<svg xmlns="http://www.w3.org/2000/svg" xmlns:xlink="http://www.w3.org/1999/xlink" version="1.1" x="0" y="0" height="230" width="800" viewBox="0 0 800 230" preserveAspectRatio="none"  >
<g label="Query sequence" class="clusterblast-cluster"  >
<text x="5" y="20" class="clusterblast-acc"  >
Query sequence</text>
<line x1="10" y1="35" x2="778.0" y2="35" style="stroke-width:1; stroke:grey; "  />
<polygon points="0,40 3,40 8,35 3,30 0,30 0,40 " style="fill:#d81515; stroke-width:1; stroke:black; " description="&lt;b&gt;ctg2_477&lt;/b&gt;&lt;br&gt;ctg2 477&lt;br&gt;Location: 482940 - 483210" locus_tag="ctg2_477" class="clusterblast-orf" id="dummy-1_q0_0_all"  />
<polygon points="11,40 69,40 74,35 69,30 11,30 11,40 " style="fill:#60d815; stroke-width:1; stroke:black; " description="&lt;b&gt;ctg2_478&lt;/b&gt;&lt;br&gt;ctg2 478&lt;br&gt;Location: 483341 - 485498" locus_tag="ctg2_478" class="clusterblast-orf" id="dummy-1_q1_0_all"  />
<polygon points="74,40 98,40 103,35 98,30 74,30 74,40 " style="fill:#15abd8; stroke-width:1; stroke:black; " description="&lt;b&gt;ctg2_479&lt;/b&gt;&lt;br&gt;ctg2 479&lt;br&gt;Location: 485499 - 486498" locus_tag="ctg2_479" class="clusterblast-orf" id="dummy-1_q2_0_all"  />
<polygon points="103,40 120,40 125,35 120,30 103,30 103,40 " style="fill:#8d15d8; stroke-width:1; stroke:black; " description="&lt;b&gt;ctg2_480&lt;/b&gt;&lt;br&gt;ctg2 480&lt;br&gt;Location: 486494 - 487253" locus_tag="ctg2_480" class="clusterblast-orf" id="dummy-1_q3_0_all"  />
<polygon points="125,40 137,40 142,35 137,30 125,30 125,40 " style="fill:#d84215; stroke-width:1; stroke:black; " description="&lt;b&gt;ctg2_481&lt;/b&gt;&lt;br&gt;ctg2 481&lt;br&gt;Location: 487249 - 487849" locus_tag="ctg2_481" class="clusterblast-orf" id="dummy-1_q4_0_all"  />
<polygon points="142,40 157,40 162,35 157,30 142,30 142,40 " style="fill:#33d815; stroke-width:1; stroke:black; " description="&lt;b&gt;ctg2_482&lt;/b&gt;&lt;br&gt;ctg2 482&lt;br&gt;Location: 487845 - 488505" locus_tag="ctg2_482" class="clusterblast-orf" id="dummy-1_q5_0_all"  />
<polygon points="167,40 184,40 189,35 184,30 167,30 167,40 " style="fill:#8d15d8; stroke-width:1; stroke:black; " description="&lt;b&gt;ctg2_483&lt;/b&gt;&lt;br&gt;ctg2 483&lt;br&gt;Location: 488695 - 489457" locus_tag="ctg2_483" class="clusterblast-orf" id="dummy-1_q6_0_all"  />
<polygon points="193,40 218,40 223,35 218,30 193,30 193,40 " style="fill:#157ed8; stroke-width:1; stroke:black; " description="&lt;b&gt;ctg2_484&lt;/b&gt;&lt;br&gt;ctg2 484&lt;br&gt;Location: 489596 - 490616" locus_tag="ctg2_484" class="clusterblast-orf" id="dummy-1_q7_0_all"  />
<polygon points="229,40 242,40 247,35 242,30 229,30 229,40 " style="fill:#ba15d8; stroke-width:1; stroke:black; " description="&lt;b&gt;ctg2_485&lt;/b&gt;&lt;br&gt;ctg2 485&lt;br&gt;Location: 490838 - 491459" locus_tag="ctg2_485" class="clusterblast-orf" id="dummy-1_q8_0_all"  />
<polygon points="248,40 255,40 260,35 255,30 248,30 248,40 " style="fill:#d86f15; stroke-width:1; stroke:black; " description="&lt;b&gt;ctg2_486&lt;/b&gt;&lt;br&gt;ctg2 486&lt;br&gt;Location: 491489 - 491882" locus_tag="ctg2_486" class="clusterblast-orf" id="dummy-1_q9_0_all"  />
<polygon points="266,40 289,40 294,35 289,30 266,30 266,40 " style="fill:#15d824; stroke-width:1; stroke:black; " description="&lt;b&gt;ctg2_487&lt;/b&gt;&lt;br&gt;ctg2 487&lt;br&gt;Location: 492097 - 493075" locus_tag="ctg2_487" class="clusterblast-orf" id="dummy-1_q10_0_all"  />
<polygon points="303,40 322,40 327,35 322,30 303,30 303,40 " style="fill:#1551d8; stroke-width:1; stroke:black; " description="&lt;b&gt;ctg2_488&lt;/b&gt;&lt;br&gt;ctg2 488&lt;br&gt;Location: 493360 - 494212" locus_tag="ctg2_488" class="clusterblast-orf" id="dummy-1_q11_0_all"  />
<polygon points="332,40 367,40 372,35 367,30 332,30 332,40 " style="fill:#d815c9; stroke-width:1; stroke:black; " description="&lt;b&gt;ctg2_489&lt;/b&gt;&lt;br&gt;ctg2 489&lt;br&gt;Location: 494356 - 495733" locus_tag="ctg2_489" class="clusterblast-orf" id="dummy-1_q12_0_all"  />
<polygon points="372,40 400,40 405,35 400,30 372,30 372,40 " style="fill:#d89c15; stroke-width:1; stroke:black; " description="&lt;b&gt;ctg2_490&lt;/b&gt;&lt;br&gt;ctg2 490&lt;br&gt;Location: 495729 - 496896" locus_tag="ctg2_490" class="clusterblast-orf" id="dummy-1_q13_0_all"  />
<polygon points="432,35 437,30 495,30 495,40 437,40 432,35 " style="fill:#15d851; stroke-width:1; stroke:black; " description="&lt;b&gt;ctg2_491&lt;/b&gt;&lt;br&gt;ctg2 491&lt;br&gt;Location: 497793 - 499992" locus_tag="ctg2_491" class="clusterblast-orf" id="dummy-1_q14_0_all"  />
<polygon points="499,40 512,40 517,35 512,30 499,30 499,40 " style="fill:#1524d8; stroke-width:1; stroke:black; " description="&lt;b&gt;ctg2_492&lt;/b&gt;&lt;br&gt;ctg2 492&lt;br&gt;Location: 500127 - 500748" locus_tag="ctg2_492" class="clusterblast-orf" id="dummy-1_q15_0_all"  />
<polygon points="518,35 523,30 537,30 537,40 523,40 518,35 " style="fill:#d8159c; stroke-width:1; stroke:black; " description="&lt;b&gt;ctg2_493&lt;/b&gt;&lt;br&gt;ctg2 493&lt;br&gt;Location: 500761 - 501418" locus_tag="ctg2_493" class="clusterblast-orf" id="dummy-1_q16_0_all"  />
<polygon points="540,40 554,40 559,35 554,30 540,30 540,40 " style="fill:#d8c915; stroke-width:1; stroke:black; " description="&lt;b&gt;ctg2_494&lt;/b&gt;&lt;br&gt;ctg2 494&lt;br&gt;Location: 501529 - 502162" locus_tag="ctg2_494" class="clusterblast-orf" id="dummy-1_q17_0_all"  />
<polygon points="559,40 578,40 583,35 578,30 559,30 559,40 " style="fill:#15d87e; stroke-width:1; stroke:black; " description="&lt;b&gt;ctg2_495&lt;/b&gt;&lt;br&gt;ctg2 495&lt;br&gt;Location: 502190 - 502997" locus_tag="ctg2_495" class="clusterblast-orf" id="dummy-1_q18_0_all"  />
<polygon points="586,40 590,35 586,30 586,40 " style="fill:#3315d8; stroke-width:1; stroke:black; " description="&lt;b&gt;ctg2_496&lt;/b&gt;&lt;br&gt;ctg2 496&lt;br&gt;Location: 503098 - 503254" locus_tag="ctg2_496" class="clusterblast-orf" id="dummy-1_q19_0_all"  />
<polygon points="592,40 625,40 630,35 625,30 592,30 592,40 " style="fill:#d8156f; stroke-width:1; stroke:black; " description="&lt;b&gt;ctg2_497&lt;/b&gt;&lt;br&gt;ctg2 497&lt;br&gt;Location: 503304 - 504618" locus_tag="ctg2_497" class="clusterblast-orf" id="dummy-1_q20_0_all"  />
<polygon points="632,40 644,40 649,35 644,30 632,30 632,40 " style="fill:#bad815; stroke-width:1; stroke:black; " description="&lt;b&gt;ctg2_498&lt;/b&gt;&lt;br&gt;ctg2 498&lt;br&gt;Location: 504687 - 505266" locus_tag="ctg2_498" class="clusterblast-orf" id="dummy-1_q21_0_all"  />
<polygon points="650,35 655,30 663,30 663,40 655,40 650,35 " style="fill:#15d8ab; stroke-width:1; stroke:black; " description="&lt;b&gt;ctg2_499&lt;/b&gt;&lt;br&gt;ctg2 499&lt;br&gt;Location: 505309 - 505759" locus_tag="ctg2_499" class="clusterblast-orf" id="dummy-1_q22_0_all"  />
<polygon points="663,35 668,30 676,30 676,40 668,40 663,35 " style="fill:#6015d8; stroke-width:1; stroke:black; " description="&lt;b&gt;ctg2_500&lt;/b&gt;&lt;br&gt;ctg2 500&lt;br&gt;Location: 505751 - 506204" locus_tag="ctg2_500" class="clusterblast-orf" id="dummy-1_q23_0_all"  />
<polygon points="679,40 736,40 741,35 736,30 679,30 679,40 " style="fill:#d81542; stroke-width:1; stroke:black; " description="&lt;b&gt;ctg2_501&lt;/b&gt;&lt;br&gt;ctg2 501&lt;br&gt;Location: 506301 - 508449" locus_tag="ctg2_501" class="clusterblast-orf" id="dummy-1_q24_0_all"  />
<polygon points="744,35 749,30 766,30 766,40 749,40 744,35 " style="fill:#8dd815; stroke-width:1; stroke:black; " description="&lt;b&gt;ctg2_502&lt;/b&gt;&lt;br&gt;ctg2 502&lt;br&gt;Location: 508528 - 509299" locus_tag="ctg2_502" class="clusterblast-orf" id="dummy-1_q25_0_all"  />
<polygon points="766,35 771,30 780,30 780,40 771,40 766,35 " style="fill:#15d8d8; stroke-width:1; stroke:black; " description="&lt;b&gt;ctg2_503&lt;/b&gt;&lt;br&gt;ctg2 503&lt;br&gt;Location: 509295 - 509775" locus_tag="ctg2_503" class="clusterblast-orf" id="dummy-1_q26_0_all"  />
</g>
<g label="NZ_CP046103" description="NZ_CP046103 (2754535-2781745): Pseudomonas sp. IB20 chromosome (88% of genes show similarity), thiopeptide" class="clusterblast-cluster"  >
<text x="5" y="70" class="clusterblast-acc"  >
<a xlink:href="https://antismash-db.secondarymetabolites.org/area.html?record=NZ_CP046103&amp;start=2754535&amp;end=2781745" target="_blank">NZ_CP046103 (2754535-2781745)</a>: Pseudomonas sp. IB20 chromosome (88% of genes show similarity), thiopeptide</text>
<line x1="10" y1="85" x2="778.0" y2="85" style="stroke-width:1; stroke:grey; "  />
</g>
<g id="a1_000"  >
<polygon points="44,90 47,90 52,85 47,80 44,80 44,90 " style="fill:#d81515; stroke-width:1; stroke:black; " description="&lt;b&gt;GJU48_RS12680&lt;/b&gt;&lt;br&gt;DUF2934 domain-containing protein&lt;br&gt;Location: 2756937 - 2757215&lt;br&gt;&lt;br&gt;&lt;b&gt;BlastP hit with ctg2_477&lt;/b&gt;&lt;br&gt;Percentage identity: 97&lt;br&gt;Percentage coverage: 34&lt;br&gt;BLAST bit score: 67&lt;br&gt;E-value: 4.36e-14" locus_tag="GJU48_RS12680" class="clusterblast-orf" id="dummy-1_h1_3_0"  />
</g>
<g id="a1_001"  >
<polygon points="56,90 114,90 119,85 114,80 56,80 56,90 " style="fill:#60d815; stroke-width:1; stroke:black; " description="&lt;b&gt;GJU48_RS12685&lt;/b&gt;&lt;br&gt;glycogen debranching protein GlgX&lt;br&gt;Location: 2757347 - 2759503&lt;br&gt;&lt;br&gt;&lt;b&gt;BlastP hit with ctg2_478&lt;/b&gt;&lt;br&gt;Percentage identity: 98&lt;br&gt;Percentage coverage: 100&lt;br&gt;BLAST bit score: 1487&lt;br&gt;E-value: 0.0" locus_tag="GJU48_RS12685" class="clusterblast-orf" id="dummy-1_h1_3_1"  />
</g>
<g id="a1_002"  >
<polygon points="119,90 143,90 148,85 143,80 119,80 119,90 " style="fill:#15abd8; stroke-width:1; stroke:black; " description="&lt;b&gt;GJU48_RS12690&lt;/b&gt;&lt;br&gt;acyl-CoA dehydrogenase family protein&lt;br&gt;Location: 2759505 - 2760503&lt;br&gt;&lt;br&gt;&lt;b&gt;BlastP hit with ctg2_479&lt;/b&gt;&lt;br&gt;Percentage identity: 87&lt;br&gt;Percentage coverage: 100&lt;br&gt;BLAST bit score: 597&lt;br&gt;E-value: 3.59e-216" locus_tag="GJU48_RS12690" class="clusterblast-orf" id="dummy-1_h1_3_2"  />
</g>
<g id="a1_003"  >
<polygon points="148,90 165,90 170,85 165,80 148,80 148,90 " style="fill:#8d15d8; stroke-width:1; stroke:black; " description="&lt;b&gt;GJU48_RS12695&lt;/b&gt;&lt;br&gt;PIG-L family deacetylase&lt;br&gt;Location: 2760500 - 2761258&lt;br&gt;&lt;br&gt;&lt;b&gt;BlastP hit with ctg2_480&lt;/b&gt;&lt;br&gt;Percentage identity: 89&lt;br&gt;Percentage coverage: 100&lt;br&gt;BLAST bit score: 473&lt;br&gt;E-value: 6.32e-170&lt;br&gt;&lt;br&gt;&lt;b&gt;BlastP hit with ctg2_483&lt;/b&gt;&lt;br&gt;Percentage identity: 62&lt;br&gt;Percentage coverage: 96&lt;br&gt;BLAST bit score: 322&lt;br&gt;E-value: 4.59e-110" locus_tag="GJU48_RS12695" class="clusterblast-orf" id="dummy-1_h1_3_3"  />
</g>
<g id="a1_004"  >
<polygon points="170,90 182,90 187,85 182,80 170,80 170,90 " style="fill:#d84215; stroke-width:1; stroke:black; " description="&lt;b&gt;GJU48_RS12700&lt;/b&gt;&lt;br&gt;methyltransferase domain-containing protein&lt;br&gt;Location: 2761255 - 2761854&lt;br&gt;&lt;br&gt;&lt;b&gt;BlastP hit with ctg2_481&lt;/b&gt;&lt;br&gt;Percentage identity: 86&lt;br&gt;Percentage coverage: 100&lt;br&gt;BLAST bit score: 355&lt;br&gt;E-value: 9.82e-125" locus_tag="GJU48_RS12700" class="clusterblast-orf" id="dummy-1_h1_3_4"  />
</g>
<g id="a1_005"  >
<polygon points="187,90 201,90 206,85 201,80 187,80 187,90 " style="fill:#33d815; stroke-width:1; stroke:black; " description="&lt;b&gt;GJU48_RS12705&lt;/b&gt;&lt;br&gt;glycosyltransferase family 2 protein&lt;br&gt;Location: 2761851 - 2762510&lt;br&gt;&lt;br&gt;&lt;b&gt;BlastP hit with ctg2_482&lt;/b&gt;&lt;br&gt;Percentage identity: 91&lt;br&gt;Percentage coverage: 100&lt;br&gt;BLAST bit score: 403&lt;br&gt;E-value: 2.79e-143" locus_tag="GJU48_RS12705" class="clusterblast-orf" id="dummy-1_h1_3_5"  />
</g>
<g id="a1_006"  >
<polygon points="211,90 228,90 233,85 228,80 211,80 211,90 " style="fill:#8d15d8; stroke-width:1; stroke:black; " description="&lt;b&gt;GJU48_RS12710&lt;/b&gt;&lt;br&gt;PIG-L family deacetylase&lt;br&gt;Location: 2762687 - 2763448&lt;br&gt;&lt;br&gt;&lt;b&gt;BlastP hit with ctg2_480&lt;/b&gt;&lt;br&gt;Percentage identity: 60&lt;br&gt;Percentage coverage: 97&lt;br&gt;BLAST bit score: 309&lt;br&gt;E-value: 6.74e-105&lt;br&gt;&lt;br&gt;&lt;b&gt;BlastP hit with ctg2_483&lt;/b&gt;&lt;br&gt;Percentage identity: 89&lt;br&gt;Percentage coverage: 100&lt;br&gt;BLAST bit score: 464&lt;br&gt;E-value: 3.11e-166" locus_tag="GJU48_RS12710" class="clusterblast-orf" id="dummy-1_h1_3_6"  />
</g>
<g id="a1_007"  >
<polygon points="246,90 259,90 264,85 259,80 246,80 246,90 " style="fill:#ba15d8; stroke-width:1; stroke:black; " description="&lt;b&gt;GJU48_RS12715&lt;/b&gt;&lt;br&gt;LysE family translocator&lt;br&gt;Location: 2763875 - 2764495&lt;br&gt;&lt;br&gt;&lt;b&gt;BlastP hit with ctg2_485&lt;/b&gt;&lt;br&gt;Percentage identity: 93&lt;br&gt;Percentage coverage: 100&lt;br&gt;BLAST bit score: 371&lt;br&gt;E-value: 4.66e-131" locus_tag="GJU48_RS12715" class="clusterblast-orf" id="dummy-1_h1_3_7"  />
</g>
<g id="a1_008"  >
<polygon points="265,90 271,90 276,85 271,80 265,80 265,90 " style="fill:#d86f15; stroke-width:1; stroke:black; " description="&lt;b&gt;GJU48_RS12720&lt;/b&gt;&lt;br&gt;ester cyclase&lt;br&gt;Location: 2764536 - 2764904&lt;br&gt;&lt;br&gt;&lt;b&gt;BlastP hit with ctg2_486&lt;/b&gt;&lt;br&gt;Percentage identity: 82&lt;br&gt;Percentage coverage: 92&lt;br&gt;BLAST bit score: 214&lt;br&gt;E-value: 2.7e-71" locus_tag="GJU48_RS12720" class="clusterblast-orf" id="dummy-1_h1_3_8"  />
</g>
<g id="a1_009"  >
<polygon points="294,90 314,90 319,85 314,80 294,80 294,90 " style="fill:#1551d8; stroke-width:1; stroke:black; " description="&lt;b&gt;GJU48_RS12725&lt;/b&gt;&lt;br&gt;4-hydroxy-tetrahydrodipicolinate synthase&lt;br&gt;Location: 2765520 - 2766383&lt;br&gt;&lt;br&gt;&lt;b&gt;BlastP hit with ctg2_488&lt;/b&gt;&lt;br&gt;Percentage identity: 86&lt;br&gt;Percentage coverage: 97&lt;br&gt;BLAST bit score: 470&lt;br&gt;E-value: 1.84e-167" locus_tag="GJU48_RS12725" class="clusterblast-orf" id="dummy-1_h1_3_9"  />
</g>
<g id="a1_0010"  >
<polygon points="323,90 358,90 363,85 358,80 323,80 323,90 " style="fill:#d815c9; stroke-width:1; stroke:black; " description="&lt;b&gt;GJU48_RS12730&lt;/b&gt;&lt;br&gt;cystathionine beta-synthase&lt;br&gt;Location: 2766526 - 2767902&lt;br&gt;&lt;br&gt;&lt;b&gt;BlastP hit with ctg2_489&lt;/b&gt;&lt;br&gt;Percentage identity: 97&lt;br&gt;Percentage coverage: 100&lt;br&gt;BLAST bit score: 872&lt;br&gt;E-value: 0.0" locus_tag="GJU48_RS12730" class="clusterblast-orf" id="dummy-1_h1_3_10"  />
</g>
<g id="a1_0011"  >
<polygon points="363,90 392,90 397,85 392,80 363,80 363,90 " style="fill:#d89c15; stroke-width:1; stroke:black; " description="&lt;b&gt;GJU48_RS12735&lt;/b&gt;&lt;br&gt;cystathionine gamma-synthase&lt;br&gt;Location: 2767899 - 2769065&lt;br&gt;&lt;br&gt;&lt;b&gt;BlastP hit with ctg2_490&lt;/b&gt;&lt;br&gt;Percentage identity: 98&lt;br&gt;Percentage coverage: 100&lt;br&gt;BLAST bit score: 761&lt;br&gt;E-value: 3.31e-279" locus_tag="GJU48_RS12735" class="clusterblast-orf" id="dummy-1_h1_3_11"  />
</g>
<g id="a1_0012"  >
<polygon points="411,85 416,80 475,80 475,90 416,90 411,85 " style="fill:#15d851; stroke-width:1; stroke:black; " description="&lt;b&gt;GJU48_RS12745&lt;/b&gt;&lt;br&gt;OsmC domain/YcaO domain-containing protein&lt;br&gt;Location: 2769547 - 2771745&lt;br&gt;&lt;br&gt;&lt;b&gt;BlastP hit with ctg2_491&lt;/b&gt;&lt;br&gt;Percentage identity: 98&lt;br&gt;Percentage coverage: 100&lt;br&gt;BLAST bit score: 1448&lt;br&gt;E-value: 0.0" locus_tag="GJU48_RS12745" class="clusterblast-orf" id="dummy-1_h1_3_12"  />
</g>
<g id="a1_0013"  >
<polygon points="478,90 491,90 496,85 491,80 478,80 478,90 " style="fill:#1524d8; stroke-width:1; stroke:black; " description="&lt;b&gt;GJU48_RS12750&lt;/b&gt;&lt;br&gt;LysE family translocator&lt;br&gt;Location: 2771869 - 2772489&lt;br&gt;&lt;br&gt;&lt;b&gt;BlastP hit with ctg2_492&lt;/b&gt;&lt;br&gt;Percentage identity: 92&lt;br&gt;Percentage coverage: 100&lt;br&gt;BLAST bit score: 375&lt;br&gt;E-value: 1.98e-132" locus_tag="GJU48_RS12750" class="clusterblast-orf" id="dummy-1_h1_3_13"  />
</g>
<g id="a1_0014"  >
<polygon points="496,85 501,80 515,80 515,90 501,90 496,85 " style="fill:#d8159c; stroke-width:1; stroke:black; " description="&lt;b&gt;GJU48_RS12755&lt;/b&gt;&lt;br&gt;class I SAM-dependent methyltransferase&lt;br&gt;Location: 2772493 - 2773149&lt;br&gt;&lt;br&gt;&lt;b&gt;BlastP hit with ctg2_493&lt;/b&gt;&lt;br&gt;Percentage identity: 86&lt;br&gt;Percentage coverage: 100&lt;br&gt;BLAST bit score: 370&lt;br&gt;E-value: 3.31e-130" locus_tag="GJU48_RS12755" class="clusterblast-orf" id="dummy-1_h1_3_14"  />
</g>
<g id="a1_0015"  >
<polygon points="519,90 533,90 538,85 533,80 519,80 519,90 " style="fill:#d8c915; stroke-width:1; stroke:black; " description="&lt;b&gt;GJU48_RS12760&lt;/b&gt;&lt;br&gt;TetR family transcriptional regulator&lt;br&gt;Location: 2773276 - 2773908&lt;br&gt;&lt;br&gt;&lt;b&gt;BlastP hit with ctg2_494&lt;/b&gt;&lt;br&gt;Percentage identity: 95&lt;br&gt;Percentage coverage: 100&lt;br&gt;BLAST bit score: 380&lt;br&gt;E-value: 1.97e-134" locus_tag="GJU48_RS12760" class="clusterblast-orf" id="dummy-1_h1_3_15"  />
</g>
<g id="a1_0016"  >
<polygon points="538,90 557,90 562,85 557,80 538,80 538,90 " style="fill:#15d87e; stroke-width:1; stroke:black; " description="&lt;b&gt;GJU48_RS12765&lt;/b&gt;&lt;br&gt;suppressor of fused domain protein&lt;br&gt;Location: 2773937 - 2774743&lt;br&gt;&lt;br&gt;&lt;b&gt;BlastP hit with ctg2_495&lt;/b&gt;&lt;br&gt;Percentage identity: 95&lt;br&gt;Percentage coverage: 100&lt;br&gt;BLAST bit score: 513&lt;br&gt;E-value: 3.04e-185" locus_tag="GJU48_RS12765" class="clusterblast-orf" id="dummy-1_h1_3_16"  />
</g>
<g id="a1_0017"  >
<polygon points="571,90 604,90 609,85 604,80 571,80 571,90 " style="fill:#d8156f; stroke-width:1; stroke:black; " description="&lt;b&gt;GJU48_RS12770&lt;/b&gt;&lt;br&gt;FAD-binding oxidoreductase&lt;br&gt;Location: 2775050 - 2776363&lt;br&gt;&lt;br&gt;&lt;b&gt;BlastP hit with ctg2_497&lt;/b&gt;&lt;br&gt;Percentage identity: 95&lt;br&gt;Percentage coverage: 100&lt;br&gt;BLAST bit score: 838&lt;br&gt;E-value: 7.13e-308" locus_tag="GJU48_RS12770" class="clusterblast-orf" id="dummy-1_h1_3_17"  />
</g>
<g id="a1_0018"  >
<polygon points="611,90 622,90 627,85 622,80 611,80 611,90 " style="fill:#bad815; stroke-width:1; stroke:black; " description="&lt;b&gt;GJU48_RS12775&lt;/b&gt;&lt;br&gt;cysteine hydrolase&lt;br&gt;Location: 2776424 - 2776987&lt;br&gt;&lt;br&gt;&lt;b&gt;BlastP hit with ctg2_498&lt;/b&gt;&lt;br&gt;Percentage identity: 88&lt;br&gt;Percentage coverage: 96&lt;br&gt;BLAST bit score: 336&lt;br&gt;E-value: 1.43e-117" locus_tag="GJU48_RS12775" class="clusterblast-orf" id="dummy-1_h1_3_18"  />
</g>
<g id="a1_0019"  >
<polygon points="629,85 634,80 641,80 641,90 634,90 629,85 " style="fill:#15d8ab; stroke-width:1; stroke:black; " description="&lt;b&gt;GJU48_RS12780&lt;/b&gt;&lt;br&gt;NUDIX domain-containing protein&lt;br&gt;Location: 2777045 - 2777482&lt;br&gt;&lt;br&gt;&lt;b&gt;BlastP hit with ctg2_499&lt;/b&gt;&lt;br&gt;Percentage identity: 79&lt;br&gt;Percentage coverage: 97&lt;br&gt;BLAST bit score: 228&lt;br&gt;E-value: 2.84e-76" locus_tag="GJU48_RS12780" class="clusterblast-orf" id="dummy-1_h1_3_19"  />
</g>
<g id="a1_0020"  >
<polygon points="641,85 646,80 654,80 654,90 646,90 641,85 " style="fill:#6015d8; stroke-width:1; stroke:black; " description="&lt;b&gt;GJU48_RS12785&lt;/b&gt;&lt;br&gt;VOC family protein&lt;br&gt;Location: 2777475 - 2777930&lt;br&gt;&lt;br&gt;&lt;b&gt;BlastP hit with ctg2_500&lt;/b&gt;&lt;br&gt;Percentage identity: 83&lt;br&gt;Percentage coverage: 100&lt;br&gt;BLAST bit score: 252&lt;br&gt;E-value: 1.29e-85" locus_tag="GJU48_RS12785" class="clusterblast-orf" id="dummy-1_h1_3_20"  />
</g>
<g id="a1_0021"  >
<polygon points="655,85 660,80 668,80 668,90 660,90 655,85 " style="fill:white; stroke-width:1; stroke:black; " description="&lt;b&gt;GJU48_RS12790&lt;/b&gt;&lt;br&gt;hypothetical protein&lt;br&gt;Location: 2777951 - 2778382" locus_tag="GJU48_RS12790" class="clusterblast-orf" id="dummy-1_h1_3_21"  />
</g>
<g id="a1_0022"  >
<polygon points="672,90 672,90 677,85 672,80 672,80 672,90 " style="fill:white; stroke-width:1; stroke:black; " description="&lt;b&gt;GJU48_RS12795&lt;/b&gt;&lt;br&gt;hypothetical protein&lt;br&gt;Location: 2778541 - 2778717" locus_tag="GJU48_RS12795" class="clusterblast-orf" id="dummy-1_h1_3_22"  />
</g>
<g id="a1_0023"  >
<polygon points="680,85 685,80 702,80 702,90 685,90 680,85 " style="fill:#8dd815; stroke-width:1; stroke:black; " description="&lt;b&gt;GJU48_RS12800&lt;/b&gt;&lt;br&gt;nucleotidyltransferase domain-containing protein&lt;br&gt;Location: 2778811 - 2779581&lt;br&gt;&lt;br&gt;&lt;b&gt;BlastP hit with ctg2_502&lt;/b&gt;&lt;br&gt;Percentage identity: 77&lt;br&gt;Percentage coverage: 100&lt;br&gt;BLAST bit score: 394&lt;br&gt;E-value: 1.47e-138" locus_tag="GJU48_RS12800" class="clusterblast-orf" id="dummy-1_h1_3_23"  />
</g>
<g id="a1_0024"  >
<polygon points="702,85 707,80 716,80 716,90 707,90 702,85 " style="fill:#15d8d8; stroke-width:1; stroke:black; " description="&lt;b&gt;GJU48_RS12805&lt;/b&gt;&lt;br&gt;ATP-binding protein&lt;br&gt;Location: 2779578 - 2780057&lt;br&gt;&lt;br&gt;&lt;b&gt;BlastP hit with ctg2_503&lt;/b&gt;&lt;br&gt;Percentage identity: 93&lt;br&gt;Percentage coverage: 100&lt;br&gt;BLAST bit score: 297&lt;br&gt;E-value: 2.49e-103" locus_tag="GJU48_RS12805" class="clusterblast-orf" id="dummy-1_h1_3_24"  />
</g>
<g id="a1_0025"  >
<polygon points="722,90 730,90 735,85 730,80 722,80 722,90 " style="fill:white; stroke-width:1; stroke:black; " description="&lt;b&gt;GJU48_RS12810&lt;/b&gt;&lt;br&gt;hypothetical protein&lt;br&gt;Location: 2780268 - 2780693" locus_tag="GJU48_RS12810" class="clusterblast-orf" id="dummy-1_h1_3_25"  />
</g>
</svg>
