<svg xmlns="http://www.w3.org/2000/svg" xmlns:xlink="http://www.w3.org/1999/xlink" version="1.1" x="0" y="0" height="230" width="800" viewBox="0 0 800 230" preserveAspectRatio="none"  >
<g label="Query sequence" class="clusterblast-cluster"  >
<text x="5" y="20" class="clusterblast-acc"  >
Query sequence</text>
<line x1="10" y1="35" x2="778.0" y2="35" style="stroke-width:1; stroke:grey; "  />
<polygon points="0,40 3,40 8,35 3,30 0,30 0,40 " style="fill:#d81515; stroke-width:1; stroke:black; " description="&lt;b&gt;ctg2_477&lt;/b&gt;&lt;br&gt;ctg2 477&lt;br&gt;Location: 482940 - 483210" locus_tag="ctg2_477" class="clusterblast-orf" id="dummy-1_q0_0_all"  />
<polygon points="11,40 69,40 74,35 69,30 11,30 11,40 " style="fill:#60d815; stroke-width:1; stroke:black; " description="&lt;b&gt;ctg2_478&lt;/b&gt;&lt;br&gt;ctg2 478&lt;br&gt;Location: 483341 - 485498" locus_tag="ctg2_478" class="clusterblast-orf" id="dummy-1_q1_0_all"  />
<polygon points="74,40 98,40 103,35 98,30 74,30 74,40 " style="fill:#15abd8; stroke-width:1; stroke:black; " description="&lt;b&gt;ctg2_479&lt;/b&gt;&lt;br&gt;ctg2 479&lt;br&gt;Location: 485499 - 486498" locus_tag="ctg2_479" class="clusterblast-orf" id="dummy-1_q2_0_all"  />
<polygon points="103,40 120,40 125,35 120,30 103,30 103,40 " style="fill:#8d15d8; stroke-width:1; stroke:black; " description="&lt;b&gt;ctg2_480&lt;/b&gt;&lt;br&gt;ctg2 480&lt;br&gt;Location: 486494 - 487253" locus_tag="ctg2_480" class="clusterblast-orf" id="dummy-1_q3_0_all"  />
<polygon points="125,40 137,40 142,35 137,30 125,30 125,40 " style="fill:#d84215; stroke-width:1; stroke:black; " description="&lt;b&gt;ctg2_481&lt;/b&gt;&lt;br&gt;ctg2 481&lt;br&gt;Location: 487249 - 487849" locus_tag="ctg2_481" class="clusterblast-orf" id="dummy-1_q4_0_all"  />
<polygon points="142,40 157,40 162,35 157,30 142,30 142,40 " style="fill:#33d815; stroke-width:1; stroke:black; " description="&lt;b&gt;ctg2_482&lt;/b&gt;&lt;br&gt;ctg2 482&lt;br&gt;Location: 487845 - 488505" locus_tag="ctg2_482" class="clusterblast-orf" id="dummy-1_q5_0_all"  />
<polygon points="167,40 184,40 189,35 184,30 167,30 167,40 " style="fill:#8d15d8; stroke-width:1; stroke:black; " description="&lt;b&gt;ctg2_483&lt;/b&gt;&lt;br&gt;ctg2 483&lt;br&gt;Location: 488695 - 489457" locus_tag="ctg2_483" class="clusterblast-orf" id="dummy-1_q6_0_all"  />
<polygon points="193,40 218,40 223,35 218,30 193,30 193,40 " style="fill:#157ed8; stroke-width:1; stroke:black; " description="&lt;b&gt;ctg2_484&lt;/b&gt;&lt;br&gt;ctg2 484&lt;br&gt;Location: 489596 - 490616" locus_tag="ctg2_484" class="clusterblast-orf" id="dummy-1_q7_0_all"  />
<polygon points="229,40 242,40 247,35 242,30 229,30 229,40 " style="fill:#ba15d8; stroke-width:1; stroke:black; " description="&lt;b&gt;ctg2_485&lt;/b&gt;&lt;br&gt;ctg2 485&lt;br&gt;Location: 490838 - 491459" locus_tag="ctg2_485" class="clusterblast-orf" id="dummy-1_q8_0_all"  />
<polygon points="248,40 255,40 260,35 255,30 248,30 248,40 " style="fill:#d86f15; stroke-width:1; stroke:black; " description="&lt;b&gt;ctg2_486&lt;/b&gt;&lt;br&gt;ctg2 486&lt;br&gt;Location: 491489 - 491882" locus_tag="ctg2_486" class="clusterblast-orf" id="dummy-1_q9_0_all"  />
<polygon points="266,40 289,40 294,35 289,30 266,30 266,40 " style="fill:#15d824; stroke-width:1; stroke:black; " description="&lt;b&gt;ctg2_487&lt;/b&gt;&lt;br&gt;ctg2 487&lt;br&gt;Location: 492097 - 493075" locus_tag="ctg2_487" class="clusterblast-orf" id="dummy-1_q10_0_all"  />
<polygon points="303,40 322,40 327,35 322,30 303,30 303,40 " style="fill:#1551d8; stroke-width:1; stroke:black; " description="&lt;b&gt;ctg2_488&lt;/b&gt;&lt;br&gt;ctg2 488&lt;br&gt;Location: 493360 - 494212" locus_tag="ctg2_488" class="clusterblast-orf" id="dummy-1_q11_0_all"  />
<polygon points="332,40 367,40 372,35 367,30 332,30 332,40 " style="fill:#d815c9; stroke-width:1; stroke:black; " description="&lt;b&gt;ctg2_489&lt;/b&gt;&lt;br&gt;ctg2 489&lt;br&gt;Location: 494356 - 495733" locus_tag="ctg2_489" class="clusterblast-orf" id="dummy-1_q12_0_all"  />
<polygon points="372,40 400,40 405,35 400,30 372,30 372,40 " style="fill:#d89c15; stroke-width:1; stroke:black; " description="&lt;b&gt;ctg2_490&lt;/b&gt;&lt;br&gt;ctg2 490&lt;br&gt;Location: 495729 - 496896" locus_tag="ctg2_490" class="clusterblast-orf" id="dummy-1_q13_0_all"  />
<polygon points="432,35 437,30 495,30 495,40 437,40 432,35 " style="fill:#15d851; stroke-width:1; stroke:black; " description="&lt;b&gt;ctg2_491&lt;/b&gt;&lt;br&gt;ctg2 491&lt;br&gt;Location: 497793 - 499992" locus_tag="ctg2_491" class="clusterblast-orf" id="dummy-1_q14_0_all"  />
<polygon points="499,40 512,40 517,35 512,30 499,30 499,40 " style="fill:#1524d8; stroke-width:1; stroke:black; " description="&lt;b&gt;ctg2_492&lt;/b&gt;&lt;br&gt;ctg2 492&lt;br&gt;Location: 500127 - 500748" locus_tag="ctg2_492" class="clusterblast-orf" id="dummy-1_q15_0_all"  />
<polygon points="518,35 523,30 537,30 537,40 523,40 518,35 " style="fill:#d8159c; stroke-width:1; stroke:black; " description="&lt;b&gt;ctg2_493&lt;/b&gt;&lt;br&gt;ctg2 493&lt;br&gt;Location: 500761 - 501418" locus_tag="ctg2_493" class="clusterblast-orf" id="dummy-1_q16_0_all"  />
<polygon points="540,40 554,40 559,35 554,30 540,30 540,40 " style="fill:#d8c915; stroke-width:1; stroke:black; " description="&lt;b&gt;ctg2_494&lt;/b&gt;&lt;br&gt;ctg2 494&lt;br&gt;Location: 501529 - 502162" locus_tag="ctg2_494" class="clusterblast-orf" id="dummy-1_q17_0_all"  />
<polygon points="559,40 578,40 583,35 578,30 559,30 559,40 " style="fill:#15d87e; stroke-width:1; stroke:black; " description="&lt;b&gt;ctg2_495&lt;/b&gt;&lt;br&gt;ctg2 495&lt;br&gt;Location: 502190 - 502997" locus_tag="ctg2_495" class="clusterblast-orf" id="dummy-1_q18_0_all"  />
<polygon points="586,40 590,35 586,30 586,40 " style="fill:#3315d8; stroke-width:1; stroke:black; " description="&lt;b&gt;ctg2_496&lt;/b&gt;&lt;br&gt;ctg2 496&lt;br&gt;Location: 503098 - 503254" locus_tag="ctg2_496" class="clusterblast-orf" id="dummy-1_q19_0_all"  />
<polygon points="592,40 625,40 630,35 625,30 592,30 592,40 " style="fill:#d8156f; stroke-width:1; stroke:black; " description="&lt;b&gt;ctg2_497&lt;/b&gt;&lt;br&gt;ctg2 497&lt;br&gt;Location: 503304 - 504618" locus_tag="ctg2_497" class="clusterblast-orf" id="dummy-1_q20_0_all"  />
<polygon points="632,40 644,40 649,35 644,30 632,30 632,40 " style="fill:#bad815; stroke-width:1; stroke:black; " description="&lt;b&gt;ctg2_498&lt;/b&gt;&lt;br&gt;ctg2 498&lt;br&gt;Location: 504687 - 505266" locus_tag="ctg2_498" class="clusterblast-orf" id="dummy-1_q21_0_all"  />
<polygon points="650,35 655,30 663,30 663,40 655,40 650,35 " style="fill:#15d8ab; stroke-width:1; stroke:black; " description="&lt;b&gt;ctg2_499&lt;/b&gt;&lt;br&gt;ctg2 499&lt;br&gt;Location: 505309 - 505759" locus_tag="ctg2_499" class="clusterblast-orf" id="dummy-1_q22_0_all"  />
<polygon points="663,35 668,30 676,30 676,40 668,40 663,35 " style="fill:#6015d8; stroke-width:1; stroke:black; " description="&lt;b&gt;ctg2_500&lt;/b&gt;&lt;br&gt;ctg2 500&lt;br&gt;Location: 505751 - 506204" locus_tag="ctg2_500" class="clusterblast-orf" id="dummy-1_q23_0_all"  />
<polygon points="679,40 736,40 741,35 736,30 679,30 679,40 " style="fill:#d81542; stroke-width:1; stroke:black; " description="&lt;b&gt;ctg2_501&lt;/b&gt;&lt;br&gt;ctg2 501&lt;br&gt;Location: 506301 - 508449" locus_tag="ctg2_501" class="clusterblast-orf" id="dummy-1_q24_0_all"  />
<polygon points="744,35 749,30 766,30 766,40 749,40 744,35 " style="fill:#8dd815; stroke-width:1; stroke:black; " description="&lt;b&gt;ctg2_502&lt;/b&gt;&lt;br&gt;ctg2 502&lt;br&gt;Location: 508528 - 509299" locus_tag="ctg2_502" class="clusterblast-orf" id="dummy-1_q25_0_all"  />
<polygon points="766,35 771,30 780,30 780,40 771,40 766,35 " style="fill:#15d8d8; stroke-width:1; stroke:black; " description="&lt;b&gt;ctg2_503&lt;/b&gt;&lt;br&gt;ctg2 503&lt;br&gt;Location: 509295 - 509775" locus_tag="ctg2_503" class="clusterblast-orf" id="dummy-1_q26_0_all"  />
</g>
<g label="NZ_FNOX01000014" description="NZ_FNOX01000014 (172176-199620): Pseudomonas salomonii strain ICMP 14252, who... (55% of genes show similarity), thiopeptide" class="clusterblast-cluster"  >
<text x="5" y="70" class="clusterblast-acc"  >
<a xlink:href="https://antismash-db.secondarymetabolites.org/area.html?record=NZ_FNOX01000014&amp;start=172176&amp;end=199620" target="_blank">NZ_FNOX01000014 (172176-199620)</a>: Pseudomonas salomonii strain ICMP 14252, who... (55% of genes show similarity), thiopeptide</text>
<line x1="10" y1="85" x2="778.0" y2="85" style="stroke-width:1; stroke:grey; "  />
</g>
<g id="a1_000"  >
<polygon points="6,90 64,90 69,85 64,80 6,80 6,90 " style="fill:white; stroke-width:1; stroke:black; " description="&lt;b&gt;BLV67_RS27630&lt;/b&gt;&lt;br&gt;TonB-dependent siderophore receptor&lt;br&gt;Location: 172249 - 174411" locus_tag="BLV67_RS27630" class="clusterblast-orf" id="dummy-1_h1_4_0"  />
</g>
<g id="a1_001"  >
<polygon points="75,90 113,90 118,85 113,80 75,80 75,90 " style="fill:#d81542; stroke-width:1; stroke:black; " description="&lt;b&gt;BLV67_RS27635&lt;/b&gt;&lt;br&gt;methyl-accepting chemotaxis protein&lt;br&gt;Location: 174597 - 176090&lt;br&gt;&lt;br&gt;&lt;b&gt;BlastP hit with ctg2_501&lt;/b&gt;&lt;br&gt;Percentage identity: 31&lt;br&gt;Percentage coverage: 44&lt;br&gt;BLAST bit score: 114&lt;br&gt;E-value: 1.12e-24" locus_tag="BLV67_RS27635" class="clusterblast-orf" id="dummy-1_h1_4_1"  />
</g>
<g id="a1_002"  >
<polygon points="125,90 128,90 133,85 128,80 125,80 125,90 " style="fill:white; stroke-width:1; stroke:black; " description="&lt;b&gt;BLV67_RS27640&lt;/b&gt;&lt;br&gt;hypothetical protein&lt;br&gt;Location: 176327 - 176596" locus_tag="BLV67_RS27640" class="clusterblast-orf" id="dummy-1_h1_4_2"  />
</g>
<g id="a1_003"  >
<polygon points="135,90 162,90 167,85 162,80 135,80 135,90 " style="fill:white; stroke-width:1; stroke:black; " description="&lt;b&gt;BLV67_RS27645&lt;/b&gt;&lt;br&gt;DUF2971 domain-containing protein&lt;br&gt;Location: 176675 - 177781" locus_tag="BLV67_RS27645" class="clusterblast-orf" id="dummy-1_h1_4_3"  />
</g>
<g id="a1_004"  >
<polygon points="176,85 181,80 191,80 191,90 181,90 176,85 " style="fill:white; stroke-width:1; stroke:black; " description="&lt;b&gt;BLV67_RS27650&lt;/b&gt;&lt;br&gt;DUF2867 domain-containing protein&lt;br&gt;Location: 178098 - 178589" locus_tag="BLV67_RS27650" class="clusterblast-orf" id="dummy-1_h1_4_4"  />
</g>
<g id="a1_005"  >
<polygon points="195,85 200,80 226,80 226,90 200,90 195,85 " style="fill:white; stroke-width:1; stroke:black; " description="&lt;b&gt;BLV67_RS27655&lt;/b&gt;&lt;br&gt;GNAT family N-acetyltransferase&lt;br&gt;Location: 178750 - 179817" locus_tag="BLV67_RS27655" class="clusterblast-orf" id="dummy-1_h1_4_5"  />
</g>
<g id="a1_006"  >
<polygon points="227,85 232,80 234,80 234,90 232,90 227,85 " style="fill:white; stroke-width:1; stroke:black; " description="&lt;b&gt;BLV67_RS27660&lt;/b&gt;&lt;br&gt;hypothetical protein&lt;br&gt;Location: 179832 - 180089" locus_tag="BLV67_RS27660" class="clusterblast-orf" id="dummy-1_h1_4_6"  />
</g>
<g id="a1_007"  >
<polygon points="236,85 241,80 270,80 270,90 241,90 236,85 " style="fill:white; stroke-width:1; stroke:black; " description="&lt;b&gt;BLV67_RS27665&lt;/b&gt;&lt;br&gt;methyltransferase domain-containing protein&lt;br&gt;Location: 180137 - 181312" locus_tag="BLV67_RS27665" class="clusterblast-orf" id="dummy-1_h1_4_7"  />
</g>
<g id="a1_008"  >
<polygon points="275,90 288,90 293,85 288,80 275,80 275,90 " style="fill:#ba15d8; stroke-width:1; stroke:black; " description="&lt;b&gt;BLV67_RS27670&lt;/b&gt;&lt;br&gt;LysE family translocator&lt;br&gt;Location: 181502 - 182122&lt;br&gt;&lt;br&gt;&lt;b&gt;BlastP hit with ctg2_485&lt;/b&gt;&lt;br&gt;Percentage identity: 91&lt;br&gt;Percentage coverage: 100&lt;br&gt;BLAST bit score: 362&lt;br&gt;E-value: 2.12e-127" locus_tag="BLV67_RS27670" class="clusterblast-orf" id="dummy-1_h1_4_8"  />
</g>
<g id="a1_009"  >
<polygon points="295,90 302,90 307,85 302,80 295,80 295,90 " style="fill:#d86f15; stroke-width:1; stroke:black; " description="&lt;b&gt;BLV67_RS27675&lt;/b&gt;&lt;br&gt;SnoaL-like domain-containing protein&lt;br&gt;Location: 182177 - 182578&lt;br&gt;&lt;br&gt;&lt;b&gt;BlastP hit with ctg2_486&lt;/b&gt;&lt;br&gt;Percentage identity: 88&lt;br&gt;Percentage coverage: 98&lt;br&gt;BLAST bit score: 239&lt;br&gt;E-value: 4.76e-81" locus_tag="BLV67_RS27675" class="clusterblast-orf" id="dummy-1_h1_4_9"  />
</g>
<g id="a1_0010"  >
<polygon points="308,90 317,90 322,85 317,80 308,80 308,90 " style="fill:white; stroke-width:1; stroke:black; " description="&lt;b&gt;BLV67_RS27680&lt;/b&gt;&lt;br&gt;VOC family protein&lt;br&gt;Location: 182629 - 183108" locus_tag="BLV67_RS27680" class="clusterblast-orf" id="dummy-1_h1_4_10"  />
</g>
<g id="a1_0011"  >
<polygon points="335,90 354,90 359,85 354,80 335,80 335,90 " style="fill:#1551d8; stroke-width:1; stroke:black; " description="&lt;b&gt;BLV67_RS27685&lt;/b&gt;&lt;br&gt;4-hydroxy-tetrahydrodipicolinate synthase&lt;br&gt;Location: 183543 - 184394&lt;br&gt;&lt;br&gt;&lt;b&gt;BlastP hit with ctg2_488&lt;/b&gt;&lt;br&gt;Percentage identity: 87&lt;br&gt;Percentage coverage: 99&lt;br&gt;BLAST bit score: 473&lt;br&gt;E-value: 9.61e-169" locus_tag="BLV67_RS27685" class="clusterblast-orf" id="dummy-1_h1_4_11"  />
</g>
<g id="a1_0012"  >
<polygon points="364,90 399,90 404,85 399,80 364,80 364,90 " style="fill:#d815c9; stroke-width:1; stroke:black; " description="&lt;b&gt;BLV67_RS27690&lt;/b&gt;&lt;br&gt;pyridoxal-phosphate dependent enzyme&lt;br&gt;Location: 184534 - 185910&lt;br&gt;&lt;br&gt;&lt;b&gt;BlastP hit with ctg2_489&lt;/b&gt;&lt;br&gt;Percentage identity: 94&lt;br&gt;Percentage coverage: 100&lt;br&gt;BLAST bit score: 847&lt;br&gt;E-value: 8.08e-311" locus_tag="BLV67_RS27690" class="clusterblast-orf" id="dummy-1_h1_4_12"  />
</g>
<g id="a1_0013"  >
<polygon points="403,90 432,90 437,85 432,80 403,80 403,90 " style="fill:#d89c15; stroke-width:1; stroke:black; " description="&lt;b&gt;BLV67_RS27695&lt;/b&gt;&lt;br&gt;cystathionine gamma-synthase&lt;br&gt;Location: 185907 - 187073&lt;br&gt;&lt;br&gt;&lt;b&gt;BlastP hit with ctg2_490&lt;/b&gt;&lt;br&gt;Percentage identity: 97&lt;br&gt;Percentage coverage: 100&lt;br&gt;BLAST bit score: 755&lt;br&gt;E-value: 9.09e-277" locus_tag="BLV67_RS27695" class="clusterblast-orf" id="dummy-1_h1_4_13"  />
</g>
<g id="a1_0014"  >
<polygon points="448,85 453,80 511,80 511,90 453,90 448,85 " style="fill:#15d851; stroke-width:1; stroke:black; " description="&lt;b&gt;BLV67_RS27700&lt;/b&gt;&lt;br&gt;OsmC domain/YcaO domain-containing protein&lt;br&gt;Location: 187422 - 189620&lt;br&gt;&lt;br&gt;&lt;b&gt;BlastP hit with ctg2_491&lt;/b&gt;&lt;br&gt;Percentage identity: 96&lt;br&gt;Percentage coverage: 100&lt;br&gt;BLAST bit score: 1427&lt;br&gt;E-value: 0.0" locus_tag="BLV67_RS27700" class="clusterblast-orf" id="dummy-1_h1_4_14"  />
</g>
<g id="a1_0015"  >
<polygon points="514,85 519,80 533,80 533,90 519,90 514,85 " style="fill:#d8159c; stroke-width:1; stroke:black; " description="&lt;b&gt;BLV67_RS27705&lt;/b&gt;&lt;br&gt;methyltransferase&lt;br&gt;Location: 189724 - 190380&lt;br&gt;&lt;br&gt;&lt;b&gt;BlastP hit with ctg2_493&lt;/b&gt;&lt;br&gt;Percentage identity: 87&lt;br&gt;Percentage coverage: 100&lt;br&gt;BLAST bit score: 372&lt;br&gt;E-value: 4.04e-131" locus_tag="BLV67_RS27705" class="clusterblast-orf" id="dummy-1_h1_4_15"  />
</g>
<g id="a1_0016"  >
<polygon points="537,90 550,90 555,85 550,80 537,80 537,90 " style="fill:#d8c915; stroke-width:1; stroke:black; " description="&lt;b&gt;BLV67_RS27710&lt;/b&gt;&lt;br&gt;TetR/AcrR family transcriptional regulator&lt;br&gt;Location: 190501 - 191133&lt;br&gt;&lt;br&gt;&lt;b&gt;BlastP hit with ctg2_494&lt;/b&gt;&lt;br&gt;Percentage identity: 87&lt;br&gt;Percentage coverage: 99&lt;br&gt;BLAST bit score: 344&lt;br&gt;E-value: 2.93e-120" locus_tag="BLV67_RS27710" class="clusterblast-orf" id="dummy-1_h1_4_16"  />
</g>
<g id="a1_0017"  >
<polygon points="563,90 574,90 579,85 574,80 563,80 563,90 " style="fill:#bad815; stroke-width:1; stroke:black; " description="&lt;b&gt;BLV67_RS27715&lt;/b&gt;&lt;br&gt;cysteine hydrolase&lt;br&gt;Location: 191400 - 191960&lt;br&gt;&lt;br&gt;&lt;b&gt;BlastP hit with ctg2_498&lt;/b&gt;&lt;br&gt;Percentage identity: 85&lt;br&gt;Percentage coverage: 95&lt;br&gt;BLAST bit score: 328&lt;br&gt;E-value: 2.19e-114" locus_tag="BLV67_RS27715" class="clusterblast-orf" id="dummy-1_h1_4_17"  />
</g>
<g id="a1_0018"  >
<polygon points="579,85 584,80 592,80 592,90 584,90 579,85 " style="fill:#15d8ab; stroke-width:1; stroke:black; " description="&lt;b&gt;BLV67_RS27720&lt;/b&gt;&lt;br&gt;NUDIX domain-containing protein&lt;br&gt;Location: 191957 - 192406&lt;br&gt;&lt;br&gt;&lt;b&gt;BlastP hit with ctg2_499&lt;/b&gt;&lt;br&gt;Percentage identity: 85&lt;br&gt;Percentage coverage: 100&lt;br&gt;BLAST bit score: 255&lt;br&gt;E-value: 6.96e-87" locus_tag="BLV67_RS27720" class="clusterblast-orf" id="dummy-1_h1_4_18"  />
</g>
<g id="a1_0019"  >
<polygon points="592,85 597,80 605,80 605,90 597,90 592,85 " style="fill:#6015d8; stroke-width:1; stroke:black; " description="&lt;b&gt;BLV67_RS27725&lt;/b&gt;&lt;br&gt;VOC family protein&lt;br&gt;Location: 192399 - 192830&lt;br&gt;&lt;br&gt;&lt;b&gt;BlastP hit with ctg2_500&lt;/b&gt;&lt;br&gt;Percentage identity: 88&lt;br&gt;Percentage coverage: 91&lt;br&gt;BLAST bit score: 246&lt;br&gt;E-value: 1.34e-83" locus_tag="BLV67_RS27725" class="clusterblast-orf" id="dummy-1_h1_4_19"  />
</g>
<g id="a1_0020"  >
<polygon points="607,85 612,80 613,80 613,90 612,90 607,85 " style="fill:white; stroke-width:1; stroke:black; " description="&lt;b&gt;BLV67_RS27730&lt;/b&gt;&lt;br&gt;hypothetical protein&lt;br&gt;Location: 192899 - 193130" locus_tag="BLV67_RS27730" class="clusterblast-orf" id="dummy-1_h1_4_20"  />
</g>
<g id="a1_0021"  >
<polygon points="620,90 671,90 676,85 671,80 620,80 620,90 " style="fill:#d81542; stroke-width:1; stroke:black; " description="&lt;b&gt;BLV67_RS27735&lt;/b&gt;&lt;br&gt;methyl-accepting chemotaxis protein&lt;br&gt;Location: 193346 - 195286&lt;br&gt;&lt;br&gt;&lt;b&gt;BlastP hit with ctg2_501&lt;/b&gt;&lt;br&gt;Percentage identity: 97&lt;br&gt;Percentage coverage: 90&lt;br&gt;BLAST bit score: 1170&lt;br&gt;E-value: 0.0" locus_tag="BLV67_RS27735" class="clusterblast-orf" id="dummy-1_h1_4_21"  />
</g>
<g id="a1_0022"  >
<polygon points="678,85 683,80 700,80 700,90 683,90 678,85 " style="fill:#8dd815; stroke-width:1; stroke:black; " description="&lt;b&gt;BLV67_RS27740&lt;/b&gt;&lt;br&gt;DNA polymerase III subunit beta&lt;br&gt;Location: 195345 - 196106&lt;br&gt;&lt;br&gt;&lt;b&gt;BlastP hit with ctg2_502&lt;/b&gt;&lt;br&gt;Percentage identity: 73&lt;br&gt;Percentage coverage: 100&lt;br&gt;BLAST bit score: 371&lt;br&gt;E-value: 1.8e-129" locus_tag="BLV67_RS27740" class="clusterblast-orf" id="dummy-1_h1_4_22"  />
</g>
<g id="a1_0023"  >
<polygon points="700,85 705,80 714,80 714,90 705,90 700,85 " style="fill:#15d8d8; stroke-width:1; stroke:black; " description="&lt;b&gt;BLV67_RS27745&lt;/b&gt;&lt;br&gt;ATP-binding protein&lt;br&gt;Location: 196103 - 196582&lt;br&gt;&lt;br&gt;&lt;b&gt;BlastP hit with ctg2_503&lt;/b&gt;&lt;br&gt;Percentage identity: 89&lt;br&gt;Percentage coverage: 100&lt;br&gt;BLAST bit score: 290&lt;br&gt;E-value: 1.97e-100" locus_tag="BLV67_RS27745" class="clusterblast-orf" id="dummy-1_h1_4_23"  />
</g>
<g id="a1_0024"  >
<polygon points="715,90 719,85 715,80 715,90 " style="fill:white; stroke-width:1; stroke:black; " description="&lt;b&gt;BLV67_RS27750&lt;/b&gt;&lt;br&gt;GNAT family N-acetyltransferase&lt;br&gt;Location: 196632 - 196763" locus_tag="BLV67_RS27750" class="clusterblast-orf" id="dummy-1_h1_4_24"  />
</g>
<g id="a1_0025"  >
<polygon points="723,90 730,90 735,85 730,80 723,80 723,90 " style="fill:white; stroke-width:1; stroke:black; " description="&lt;b&gt;BLV67_RS27755&lt;/b&gt;&lt;br&gt;hypothetical protein&lt;br&gt;Location: 196890 - 197315" locus_tag="BLV67_RS27755" class="clusterblast-orf" id="dummy-1_h1_4_25"  />
</g>
<g id="a1_0026"  >
<polygon points="735,90 768,90 773,85 768,80 735,80 735,90 " style="fill:white; stroke-width:1; stroke:black; " description="&lt;b&gt;BLV67_RS27760&lt;/b&gt;&lt;br&gt;sorbosone dehydrogenase family protein&lt;br&gt;Location: 197312 - 198604" locus_tag="BLV67_RS27760" class="clusterblast-orf" id="dummy-1_h1_4_26"  />
</g>
</svg>
