<svg xmlns="http://www.w3.org/2000/svg" xmlns:xlink="http://www.w3.org/1999/xlink" version="1.1" x="0" y="0" height="230" width="800" viewBox="0 0 800 230" preserveAspectRatio="none"  >
<g label="Query sequence" class="clusterblast-cluster"  >
<text x="5" y="20" class="clusterblast-acc"  >
Query sequence</text>
<line x1="10" y1="35" x2="778.0" y2="35" style="stroke-width:1; stroke:grey; "  />
<polygon points="17,40 19,40 24,35 19,30 17,30 17,40 " style="fill:#d81515; stroke-width:1; stroke:black; " description="&lt;b&gt;ctg2_477&lt;/b&gt;&lt;br&gt;ctg2 477&lt;br&gt;Location: 482940 - 483210" locus_tag="ctg2_477" class="clusterblast-orf" id="dummy-1_q0_0_all"  />
<polygon points="28,40 83,40 88,35 83,30 28,30 28,40 " style="fill:#60d815; stroke-width:1; stroke:black; " description="&lt;b&gt;ctg2_478&lt;/b&gt;&lt;br&gt;ctg2 478&lt;br&gt;Location: 483341 - 485498" locus_tag="ctg2_478" class="clusterblast-orf" id="dummy-1_q1_0_all"  />
<polygon points="88,40 111,40 116,35 111,30 88,30 88,40 " style="fill:#15abd8; stroke-width:1; stroke:black; " description="&lt;b&gt;ctg2_479&lt;/b&gt;&lt;br&gt;ctg2 479&lt;br&gt;Location: 485499 - 486498" locus_tag="ctg2_479" class="clusterblast-orf" id="dummy-1_q2_0_all"  />
<polygon points="115,40 132,40 137,35 132,30 115,30 115,40 " style="fill:#8d15d8; stroke-width:1; stroke:black; " description="&lt;b&gt;ctg2_480&lt;/b&gt;&lt;br&gt;ctg2 480&lt;br&gt;Location: 486494 - 487253" locus_tag="ctg2_480" class="clusterblast-orf" id="dummy-1_q3_0_all"  />
<polygon points="136,40 148,40 153,35 148,30 136,30 136,40 " style="fill:#d84215; stroke-width:1; stroke:black; " description="&lt;b&gt;ctg2_481&lt;/b&gt;&lt;br&gt;ctg2 481&lt;br&gt;Location: 487249 - 487849" locus_tag="ctg2_481" class="clusterblast-orf" id="dummy-1_q4_0_all"  />
<polygon points="153,40 166,40 171,35 166,30 153,30 153,40 " style="fill:#33d815; stroke-width:1; stroke:black; " description="&lt;b&gt;ctg2_482&lt;/b&gt;&lt;br&gt;ctg2 482&lt;br&gt;Location: 487845 - 488505" locus_tag="ctg2_482" class="clusterblast-orf" id="dummy-1_q5_0_all"  />
<polygon points="177,40 193,40 198,35 193,30 177,30 177,40 " style="fill:#8d15d8; stroke-width:1; stroke:black; " description="&lt;b&gt;ctg2_483&lt;/b&gt;&lt;br&gt;ctg2 483&lt;br&gt;Location: 488695 - 489457" locus_tag="ctg2_483" class="clusterblast-orf" id="dummy-1_q6_0_all"  />
<polygon points="202,40 225,40 230,35 225,30 202,30 202,40 " style="fill:#157ed8; stroke-width:1; stroke:black; " description="&lt;b&gt;ctg2_484&lt;/b&gt;&lt;br&gt;ctg2 484&lt;br&gt;Location: 489596 - 490616" locus_tag="ctg2_484" class="clusterblast-orf" id="dummy-1_q7_0_all"  />
<polygon points="236,40 249,40 254,35 249,30 236,30 236,40 " style="fill:#ba15d8; stroke-width:1; stroke:black; " description="&lt;b&gt;ctg2_485&lt;/b&gt;&lt;br&gt;ctg2 485&lt;br&gt;Location: 490838 - 491459" locus_tag="ctg2_485" class="clusterblast-orf" id="dummy-1_q8_0_all"  />
<polygon points="254,40 260,40 265,35 260,30 254,30 254,40 " style="fill:#d86f15; stroke-width:1; stroke:black; " description="&lt;b&gt;ctg2_486&lt;/b&gt;&lt;br&gt;ctg2 486&lt;br&gt;Location: 491489 - 491882" locus_tag="ctg2_486" class="clusterblast-orf" id="dummy-1_q9_0_all"  />
<polygon points="271,40 293,40 298,35 293,30 271,30 271,40 " style="fill:#15d824; stroke-width:1; stroke:black; " description="&lt;b&gt;ctg2_487&lt;/b&gt;&lt;br&gt;ctg2 487&lt;br&gt;Location: 492097 - 493075" locus_tag="ctg2_487" class="clusterblast-orf" id="dummy-1_q10_0_all"  />
<polygon points="306,40 325,40 330,35 325,30 306,30 306,40 " style="fill:#1551d8; stroke-width:1; stroke:black; " description="&lt;b&gt;ctg2_488&lt;/b&gt;&lt;br&gt;ctg2 488&lt;br&gt;Location: 493360 - 494212" locus_tag="ctg2_488" class="clusterblast-orf" id="dummy-1_q11_0_all"  />
<polygon points="334,40 367,40 372,35 367,30 334,30 334,40 " style="fill:#d815c9; stroke-width:1; stroke:black; " description="&lt;b&gt;ctg2_489&lt;/b&gt;&lt;br&gt;ctg2 489&lt;br&gt;Location: 494356 - 495733" locus_tag="ctg2_489" class="clusterblast-orf" id="dummy-1_q12_0_all"  />
<polygon points="372,40 400,40 405,35 400,30 372,30 372,40 " style="fill:#d89c15; stroke-width:1; stroke:black; " description="&lt;b&gt;ctg2_490&lt;/b&gt;&lt;br&gt;ctg2 490&lt;br&gt;Location: 495729 - 496896" locus_tag="ctg2_490" class="clusterblast-orf" id="dummy-1_q13_0_all"  />
<polygon points="430,35 435,30 491,30 491,40 435,40 430,35 " style="fill:#15d851; stroke-width:1; stroke:black; " description="&lt;b&gt;ctg2_491&lt;/b&gt;&lt;br&gt;ctg2 491&lt;br&gt;Location: 497793 - 499992" locus_tag="ctg2_491" class="clusterblast-orf" id="dummy-1_q14_0_all"  />
<polygon points="495,40 507,40 512,35 507,30 495,30 495,40 " style="fill:#1524d8; stroke-width:1; stroke:black; " description="&lt;b&gt;ctg2_492&lt;/b&gt;&lt;br&gt;ctg2 492&lt;br&gt;Location: 500127 - 500748" locus_tag="ctg2_492" class="clusterblast-orf" id="dummy-1_q15_0_all"  />
<polygon points="512,35 517,30 531,30 531,40 517,40 512,35 " style="fill:#d8159c; stroke-width:1; stroke:black; " description="&lt;b&gt;ctg2_493&lt;/b&gt;&lt;br&gt;ctg2 493&lt;br&gt;Location: 500761 - 501418" locus_tag="ctg2_493" class="clusterblast-orf" id="dummy-1_q16_0_all"  />
<polygon points="534,40 546,40 551,35 546,30 534,30 534,40 " style="fill:#d8c915; stroke-width:1; stroke:black; " description="&lt;b&gt;ctg2_494&lt;/b&gt;&lt;br&gt;ctg2 494&lt;br&gt;Location: 501529 - 502162" locus_tag="ctg2_494" class="clusterblast-orf" id="dummy-1_q17_0_all"  />
<polygon points="552,40 569,40 574,35 569,30 552,30 552,40 " style="fill:#15d87e; stroke-width:1; stroke:black; " description="&lt;b&gt;ctg2_495&lt;/b&gt;&lt;br&gt;ctg2 495&lt;br&gt;Location: 502190 - 502997" locus_tag="ctg2_495" class="clusterblast-orf" id="dummy-1_q18_0_all"  />
<polygon points="577,40 577,40 582,35 577,30 577,30 577,40 " style="fill:#3315d8; stroke-width:1; stroke:black; " description="&lt;b&gt;ctg2_496&lt;/b&gt;&lt;br&gt;ctg2 496&lt;br&gt;Location: 503098 - 503254" locus_tag="ctg2_496" class="clusterblast-orf" id="dummy-1_q19_0_all"  />
<polygon points="583,40 615,40 620,35 615,30 583,30 583,40 " style="fill:#d8156f; stroke-width:1; stroke:black; " description="&lt;b&gt;ctg2_497&lt;/b&gt;&lt;br&gt;ctg2 497&lt;br&gt;Location: 503304 - 504618" locus_tag="ctg2_497" class="clusterblast-orf" id="dummy-1_q20_0_all"  />
<polygon points="621,40 633,40 638,35 633,30 621,30 621,40 " style="fill:#bad815; stroke-width:1; stroke:black; " description="&lt;b&gt;ctg2_498&lt;/b&gt;&lt;br&gt;ctg2 498&lt;br&gt;Location: 504687 - 505266" locus_tag="ctg2_498" class="clusterblast-orf" id="dummy-1_q21_0_all"  />
<polygon points="639,35 644,30 651,30 651,40 644,40 639,35 " style="fill:#15d8ab; stroke-width:1; stroke:black; " description="&lt;b&gt;ctg2_499&lt;/b&gt;&lt;br&gt;ctg2 499&lt;br&gt;Location: 505309 - 505759" locus_tag="ctg2_499" class="clusterblast-orf" id="dummy-1_q22_0_all"  />
<polygon points="651,35 656,30 664,30 664,40 656,40 651,35 " style="fill:#6015d8; stroke-width:1; stroke:black; " description="&lt;b&gt;ctg2_500&lt;/b&gt;&lt;br&gt;ctg2 500&lt;br&gt;Location: 505751 - 506204" locus_tag="ctg2_500" class="clusterblast-orf" id="dummy-1_q23_0_all"  />
<polygon points="666,40 721,40 726,35 721,30 666,30 666,40 " style="fill:#d81542; stroke-width:1; stroke:black; " description="&lt;b&gt;ctg2_501&lt;/b&gt;&lt;br&gt;ctg2 501&lt;br&gt;Location: 506301 - 508449" locus_tag="ctg2_501" class="clusterblast-orf" id="dummy-1_q24_0_all"  />
<polygon points="728,35 733,30 750,30 750,40 733,40 728,35 " style="fill:#8dd815; stroke-width:1; stroke:black; " description="&lt;b&gt;ctg2_502&lt;/b&gt;&lt;br&gt;ctg2 502&lt;br&gt;Location: 508528 - 509299" locus_tag="ctg2_502" class="clusterblast-orf" id="dummy-1_q25_0_all"  />
<polygon points="750,35 755,30 763,30 763,40 755,40 750,35 " style="fill:#15d8d8; stroke-width:1; stroke:black; " description="&lt;b&gt;ctg2_503&lt;/b&gt;&lt;br&gt;ctg2 503&lt;br&gt;Location: 509295 - 509775" locus_tag="ctg2_503" class="clusterblast-orf" id="dummy-1_q26_0_all"  />
</g>
<g label="NZ_CABVGW010000001" description="NZ_CABVGW010000001 (75337-103892): Pseudomonas fluorescens isolate PS682, who... (48% of genes show similarity), thiopeptide" class="clusterblast-cluster"  >
<text x="5" y="70" class="clusterblast-acc"  >
<a xlink:href="https://antismash-db.secondarymetabolites.org/area.html?record=NZ_CABVGW010000001&amp;start=75337&amp;end=103892" target="_blank">NZ_CABVGW010000001 (75337-103892)</a>: Pseudomonas fluorescens isolate PS682, who... (48% of genes show similarity), thiopeptide</text>
<line x1="10" y1="85" x2="778.0" y2="85" style="stroke-width:1; stroke:grey; "  />
</g>
<g id="a1_000"  >
<polygon points="0,90 8,90 13,85 8,80 0,80 0,90 " style="fill:white; stroke-width:1; stroke:black; " description="&lt;b&gt;F8N22_RS00455&lt;/b&gt;&lt;br&gt;Lrp/AsnC family transcriptional regulator&lt;br&gt;Location: 103694 - 103203" locus_tag="F8N22_RS00455" class="clusterblast-orf" id="dummy-1_h1_8_0"  />
</g>
<g id="a1_001"  >
<polygon points="18,90 73,90 78,85 73,80 18,80 18,90 " style="fill:white; stroke-width:1; stroke:black; " description="&lt;b&gt;F8N22_RS00450&lt;/b&gt;&lt;br&gt;TonB-dependent siderophore receptor&lt;br&gt;Location: 103018 - 100865" locus_tag="F8N22_RS00450" class="clusterblast-orf" id="dummy-1_h1_8_1"  />
</g>
<g id="a1_002"  >
<polygon points="83,90 119,90 124,85 119,80 83,80 83,90 " style="fill:#d81542; stroke-width:1; stroke:black; " description="&lt;b&gt;F8N22_RS00445&lt;/b&gt;&lt;br&gt;methyl-accepting chemotaxis protein&lt;br&gt;Location: 100699 - 99206&lt;br&gt;&lt;br&gt;&lt;b&gt;BlastP hit with ctg2_501&lt;/b&gt;&lt;br&gt;Percentage identity: 31&lt;br&gt;Percentage coverage: 44&lt;br&gt;BLAST bit score: 113&lt;br&gt;E-value: 2.69e-24" locus_tag="F8N22_RS00445" class="clusterblast-orf" id="dummy-1_h1_8_2"  />
</g>
<g id="a1_003"  >
<polygon points="135,90 167,90 172,85 167,80 135,80 135,90 " style="fill:white; stroke-width:1; stroke:black; " description="&lt;b&gt;F8N22_RS00440&lt;/b&gt;&lt;br&gt;MFS transporter&lt;br&gt;Location: 98832 - 97495" locus_tag="F8N22_RS00440" class="clusterblast-orf" id="dummy-1_h1_8_3"  />
</g>
<g id="a1_004"  >
<polygon points="187,90 194,90 199,85 194,80 187,80 187,90 " style="fill:white; stroke-width:1; stroke:black; " description="&lt;b&gt;F8N22_RS00435&lt;/b&gt;&lt;br&gt;thiol-disulfide oxidoreductase DCC family protein&lt;br&gt;Location: 96966 - 96514" locus_tag="F8N22_RS00435" class="clusterblast-orf" id="dummy-1_h1_8_4"  />
</g>
<g id="a1_005"  >
<polygon points="199,85 204,80 220,80 220,90 204,90 199,85 " style="fill:white; stroke-width:1; stroke:black; " description="&lt;b&gt;F8N22_RS00430&lt;/b&gt;&lt;br&gt;NAD(P)-binding domain-containing protein&lt;br&gt;Location: 96519 - 95752" locus_tag="F8N22_RS00430" class="clusterblast-orf" id="dummy-1_h1_8_5"  />
</g>
<g id="a1_006"  >
<polygon points="224,90 229,90 234,85 229,80 224,80 224,90 " style="fill:white; stroke-width:1; stroke:black; " description="&lt;b&gt;F8N22_RS00425&lt;/b&gt;&lt;br&gt;VOC family protein&lt;br&gt;Location: 95621 - 95250" locus_tag="F8N22_RS00425" class="clusterblast-orf" id="dummy-1_h1_8_6"  />
</g>
<g id="a1_007"  >
<polygon points="236,90 246,90 251,85 246,80 236,80 236,90 " style="fill:white; stroke-width:1; stroke:black; " description="&lt;b&gt;F8N22_RS00420&lt;/b&gt;&lt;br&gt;adenylate kinase&lt;br&gt;Location: 95183 - 94647" locus_tag="F8N22_RS00420" class="clusterblast-orf" id="dummy-1_h1_8_7"  />
</g>
<g id="a1_008"  >
<polygon points="254,90 266,90 271,85 266,80 254,80 254,90 " style="fill:#ba15d8; stroke-width:1; stroke:black; " description="&lt;b&gt;F8N22_RS00415&lt;/b&gt;&lt;br&gt;LysE family translocator&lt;br&gt;Location: 94551 - 93931&lt;br&gt;&lt;br&gt;&lt;b&gt;BlastP hit with ctg2_485&lt;/b&gt;&lt;br&gt;Percentage identity: 89&lt;br&gt;Percentage coverage: 100&lt;br&gt;BLAST bit score: 356&lt;br&gt;E-value: 5.82e-125" locus_tag="F8N22_RS00415" class="clusterblast-orf" id="dummy-1_h1_8_8"  />
</g>
<g id="a1_009"  >
<polygon points="272,90 278,90 283,85 278,80 272,80 272,90 " style="fill:#d86f15; stroke-width:1; stroke:black; " description="&lt;b&gt;F8N22_RS00410&lt;/b&gt;&lt;br&gt;ester cyclase&lt;br&gt;Location: 93892 - 93500&lt;br&gt;&lt;br&gt;&lt;b&gt;BlastP hit with ctg2_486&lt;/b&gt;&lt;br&gt;Percentage identity: 81&lt;br&gt;Percentage coverage: 98&lt;br&gt;BLAST bit score: 220&lt;br&gt;E-value: 8.99e-74" locus_tag="F8N22_RS00410" class="clusterblast-orf" id="dummy-1_h1_8_9"  />
</g>
<g id="a1_0010"  >
<polygon points="284,90 292,90 297,85 292,80 284,80 284,90 " style="fill:white; stroke-width:1; stroke:black; " description="&lt;b&gt;F8N22_RS00405&lt;/b&gt;&lt;br&gt;VOC family protein&lt;br&gt;Location: 93465 - 92986" locus_tag="F8N22_RS00405" class="clusterblast-orf" id="dummy-1_h1_8_10"  />
</g>
<g id="a1_0011"  >
<polygon points="301,90 335,90 340,85 335,80 301,80 301,90 " style="fill:white; stroke-width:1; stroke:black; " description="&lt;b&gt;F8N22_RS00400&lt;/b&gt;&lt;br&gt;hypothetical protein&lt;br&gt;Location: 92861 - 91470" locus_tag="F8N22_RS00400" class="clusterblast-orf" id="dummy-1_h1_8_11"  />
</g>
<g id="a1_0012"  >
<polygon points="348,90 367,90 372,85 367,80 348,80 348,90 " style="fill:#1551d8; stroke-width:1; stroke:black; " description="&lt;b&gt;F8N22_RS00395&lt;/b&gt;&lt;br&gt;4-hydroxy-tetrahydrodipicolinate synthase&lt;br&gt;Location: 91176 - 90313&lt;br&gt;&lt;br&gt;&lt;b&gt;BlastP hit with ctg2_488&lt;/b&gt;&lt;br&gt;Percentage identity: 84&lt;br&gt;Percentage coverage: 97&lt;br&gt;BLAST bit score: 454&lt;br&gt;E-value: 2.27e-161" locus_tag="F8N22_RS00395" class="clusterblast-orf" id="dummy-1_h1_8_12"  />
</g>
<g id="a1_0013"  >
<polygon points="375,90 408,90 413,85 408,80 375,80 375,90 " style="fill:#d815c9; stroke-width:1; stroke:black; " description="&lt;b&gt;F8N22_RS00390&lt;/b&gt;&lt;br&gt;pyridoxal-phosphate dependent enzyme&lt;br&gt;Location: 90196 - 88820&lt;br&gt;&lt;br&gt;&lt;b&gt;BlastP hit with ctg2_489&lt;/b&gt;&lt;br&gt;Percentage identity: 96&lt;br&gt;Percentage coverage: 100&lt;br&gt;BLAST bit score: 870&lt;br&gt;E-value: 0.0" locus_tag="F8N22_RS00390" class="clusterblast-orf" id="dummy-1_h1_8_13"  />
</g>
<g id="a1_0014"  >
<polygon points="413,90 441,90 446,85 441,80 413,80 413,90 " style="fill:#d89c15; stroke-width:1; stroke:black; " description="&lt;b&gt;F8N22_RS00385&lt;/b&gt;&lt;br&gt;cystathionine gamma-synthase&lt;br&gt;Location: 88823 - 87657&lt;br&gt;&lt;br&gt;&lt;b&gt;BlastP hit with ctg2_490&lt;/b&gt;&lt;br&gt;Percentage identity: 94&lt;br&gt;Percentage coverage: 100&lt;br&gt;BLAST bit score: 738&lt;br&gt;E-value: 6.57e-270" locus_tag="F8N22_RS00385" class="clusterblast-orf" id="dummy-1_h1_8_14"  />
</g>
<g id="a1_0015"  >
<polygon points="449,85 454,80 510,80 510,90 454,90 449,85 " style="fill:#15d851; stroke-width:1; stroke:black; " description="&lt;b&gt;F8N22_RS00380&lt;/b&gt;&lt;br&gt;OsmC domain/YcaO domain-containing protein&lt;br&gt;Location: 87536 - 85338&lt;br&gt;&lt;br&gt;&lt;b&gt;BlastP hit with ctg2_491&lt;/b&gt;&lt;br&gt;Percentage identity: 95&lt;br&gt;Percentage coverage: 100&lt;br&gt;BLAST bit score: 1420&lt;br&gt;E-value: 0.0" locus_tag="F8N22_RS00380" class="clusterblast-orf" id="dummy-1_h1_8_15"  />
</g>
<g id="a1_0016"  >
<polygon points="515,90 553,90 558,85 553,80 515,80 515,90 " style="fill:#d81542; stroke-width:1; stroke:black; " description="&lt;b&gt;F8N22_RS00375&lt;/b&gt;&lt;br&gt;methyl-accepting chemotaxis protein&lt;br&gt;Location: 85174 - 83609&lt;br&gt;&lt;br&gt;&lt;b&gt;BlastP hit with ctg2_501&lt;/b&gt;&lt;br&gt;Percentage identity: 33&lt;br&gt;Percentage coverage: 44&lt;br&gt;BLAST bit score: 137&lt;br&gt;E-value: 4.24e-32" locus_tag="F8N22_RS00375" class="clusterblast-orf" id="dummy-1_h1_8_16"  />
</g>
<g id="a1_0017"  >
<polygon points="562,90 574,90 579,85 574,80 562,80 562,90 " style="fill:#1524d8; stroke-width:1; stroke:black; " description="&lt;b&gt;F8N22_RS00370&lt;/b&gt;&lt;br&gt;LysE family translocator&lt;br&gt;Location: 83481 - 82861&lt;br&gt;&lt;br&gt;&lt;b&gt;BlastP hit with ctg2_492&lt;/b&gt;&lt;br&gt;Percentage identity: 89&lt;br&gt;Percentage coverage: 100&lt;br&gt;BLAST bit score: 365&lt;br&gt;E-value: 9.01e-129" locus_tag="F8N22_RS00370" class="clusterblast-orf" id="dummy-1_h1_8_17"  />
</g>
<g id="a1_0018"  >
<polygon points="581,85 586,80 599,80 599,90 586,90 581,85 " style="fill:#d8159c; stroke-width:1; stroke:black; " description="&lt;b&gt;F8N22_RS00365&lt;/b&gt;&lt;br&gt;methyltransferase&lt;br&gt;Location: 82788 - 82132&lt;br&gt;&lt;br&gt;&lt;b&gt;BlastP hit with ctg2_493&lt;/b&gt;&lt;br&gt;Percentage identity: 84&lt;br&gt;Percentage coverage: 100&lt;br&gt;BLAST bit score: 365&lt;br&gt;E-value: 4.5e-128" locus_tag="F8N22_RS00365" class="clusterblast-orf" id="dummy-1_h1_8_18"  />
</g>
<g id="a1_0019"  >
<polygon points="602,90 615,90 620,85 615,80 602,80 602,90 " style="fill:#d8c915; stroke-width:1; stroke:black; " description="&lt;b&gt;F8N22_RS00360&lt;/b&gt;&lt;br&gt;TetR/AcrR family transcriptional regulator&lt;br&gt;Location: 82020 - 81388&lt;br&gt;&lt;br&gt;&lt;b&gt;BlastP hit with ctg2_494&lt;/b&gt;&lt;br&gt;Percentage identity: 87&lt;br&gt;Percentage coverage: 100&lt;br&gt;BLAST bit score: 343&lt;br&gt;E-value: 1.19e-119" locus_tag="F8N22_RS00360" class="clusterblast-orf" id="dummy-1_h1_8_19"  />
</g>
<g id="a1_0020"  >
<polygon points="621,90 638,90 643,85 638,80 621,80 621,90 " style="fill:#15d87e; stroke-width:1; stroke:black; " description="&lt;b&gt;F8N22_RS00355&lt;/b&gt;&lt;br&gt;Suppressor of fused protein (SUFU)&lt;br&gt;Location: 81359 - 80559&lt;br&gt;&lt;br&gt;&lt;b&gt;BlastP hit with ctg2_495&lt;/b&gt;&lt;br&gt;Percentage identity: 78&lt;br&gt;Percentage coverage: 100&lt;br&gt;BLAST bit score: 418&lt;br&gt;E-value: 1.73e-147" locus_tag="F8N22_RS00355" class="clusterblast-orf" id="dummy-1_h1_8_20"  />
</g>
<g id="a1_0021"  >
<polygon points="650,85 655,80 662,80 662,90 655,90 650,85 " style="fill:#6015d8; stroke-width:1; stroke:black; " description="&lt;b&gt;F8N22_RS00350&lt;/b&gt;&lt;br&gt;VOC family protein&lt;br&gt;Location: 80313 - 79882&lt;br&gt;&lt;br&gt;&lt;b&gt;BlastP hit with ctg2_500&lt;/b&gt;&lt;br&gt;Percentage identity: 77&lt;br&gt;Percentage coverage: 91&lt;br&gt;BLAST bit score: 216&lt;br&gt;E-value: 2.08e-71" locus_tag="F8N22_RS00350" class="clusterblast-orf" id="dummy-1_h1_8_21"  />
</g>
<g id="a1_0022"  >
<polygon points="668,90 677,90 682,85 677,80 668,80 668,90 " style="fill:white; stroke-width:1; stroke:black; " description="&lt;b&gt;F8N22_RS00345&lt;/b&gt;&lt;br&gt;hypothetical protein&lt;br&gt;Location: 79665 - 79150" locus_tag="F8N22_RS00345" class="clusterblast-orf" id="dummy-1_h1_8_22"  />
</g>
<g id="a1_0023"  >
<polygon points="687,90 694,90 699,85 694,80 687,80 687,90 " style="fill:white; stroke-width:1; stroke:black; " description="&lt;b&gt;F8N22_RS00340&lt;/b&gt;&lt;br&gt;hypothetical protein&lt;br&gt;Location: 78993 - 78553" locus_tag="F8N22_RS00340" class="clusterblast-orf" id="dummy-1_h1_8_23"  />
</g>
<g id="a1_0024"  >
<polygon points="704,85 709,80 719,80 719,90 709,90 704,85 " style="fill:white; stroke-width:1; stroke:black; " description="&lt;b&gt;F8N22_RS00335&lt;/b&gt;&lt;br&gt;GNAT family N-acetyltransferase&lt;br&gt;Location: 78383 - 77836" locus_tag="F8N22_RS00335" class="clusterblast-orf" id="dummy-1_h1_8_24"  />
</g>
<g id="a1_0025"  >
<polygon points="720,85 725,80 731,80 731,90 725,90 720,85 " style="fill:white; stroke-width:1; stroke:black; " description="&lt;b&gt;F8N22_RS00330&lt;/b&gt;&lt;br&gt;hypothetical protein&lt;br&gt;Location: 77804 - 77385" locus_tag="F8N22_RS00330" class="clusterblast-orf" id="dummy-1_h1_8_25"  />
</g>
<g id="a1_0026"  >
<polygon points="731,85 736,80 745,80 745,90 736,90 731,85 " style="fill:white; stroke-width:1; stroke:black; " description="&lt;b&gt;F8N22_RS00325&lt;/b&gt;&lt;br&gt;hypothetical protein&lt;br&gt;Location: 77388 - 76912" locus_tag="F8N22_RS00325" class="clusterblast-orf" id="dummy-1_h1_8_26"  />
</g>
<g id="a1_0027"  >
<polygon points="744,85 749,80 759,80 759,90 749,90 744,85 " style="fill:white; stroke-width:1; stroke:black; " description="&lt;b&gt;F8N22_RS00320&lt;/b&gt;&lt;br&gt;GNAT family N-acetyltransferase&lt;br&gt;Location: 76925 - 76380" locus_tag="F8N22_RS00320" class="clusterblast-orf" id="dummy-1_h1_8_27"  />
</g>
<g id="a1_0028"  >
<polygon points="764,90 775,90 780,85 775,80 764,80 764,90 " style="fill:#bad815; stroke-width:1; stroke:black; " description="&lt;b&gt;F8N22_RS00315&lt;/b&gt;&lt;br&gt;cysteine hydrolase&lt;br&gt;Location: 76215 - 75655&lt;br&gt;&lt;br&gt;&lt;b&gt;BlastP hit with ctg2_498&lt;/b&gt;&lt;br&gt;Percentage identity: 82&lt;br&gt;Percentage coverage: 97&lt;br&gt;BLAST bit score: 318&lt;br&gt;E-value: 1.41e-110" locus_tag="F8N22_RS00315" class="clusterblast-orf" id="dummy-1_h1_8_28"  />
</g>
</svg>
