<svg xmlns="http://www.w3.org/2000/svg" xmlns:xlink="http://www.w3.org/1999/xlink" version="1.1" x="0" y="0" height="230" width="800" viewBox="0 0 800 230" preserveAspectRatio="none"  >
<g label="Query sequence" class="clusterblast-cluster"  >
<text x="5" y="20" class="clusterblast-acc"  >
Query sequence</text>
<line x1="10" y1="35" x2="778.0" y2="35" style="stroke-width:1; stroke:grey; "  />
<polygon points="0,35 5,30 43,30 43,40 5,40 0,35 " style="fill:#d81515; stroke-width:1; stroke:black; " description="&lt;b&gt;ctg1_565&lt;/b&gt;&lt;br&gt;ctg1 565&lt;br&gt;Location: 600271 - 600793" locus_tag="ctg1_565" class="clusterblast-orf" id="dummy-2_q0_0_all"  />
<polygon points="53,40 165,40 170,35 165,30 53,30 53,40 " style="fill:#15d815; stroke-width:1; stroke:black; " description="&lt;b&gt;ctg1_566&lt;/b&gt;&lt;br&gt;ctg1 566&lt;br&gt;Location: 600923 - 602363" locus_tag="ctg1_566" class="clusterblast-orf" id="dummy-2_q1_0_all"  />
<polygon points="193,35 198,30 289,30 289,40 198,40 193,35 " style="fill:#1597d8; stroke-width:1; stroke:black; " description="&lt;b&gt;ctg1_567&lt;/b&gt;&lt;br&gt;ctg1 567&lt;br&gt;Location: 602638 - 603823" locus_tag="ctg1_567" class="clusterblast-orf" id="dummy-2_q2_0_all"  />
<polygon points="296,35 301,30 360,30 360,40 301,40 296,35 " style="fill:#9715d8; stroke-width:1; stroke:black; " description="&lt;b&gt;ctg1_568&lt;/b&gt;&lt;br&gt;ctg1 568&lt;br&gt;Location: 603910 - 604699" locus_tag="ctg1_568" class="clusterblast-orf" id="dummy-2_q3_0_all"  />
<polygon points="359,35 364,30 428,30 428,40 364,40 359,35 " style="fill:#d89715; stroke-width:1; stroke:black; " description="&lt;b&gt;ctg1_569&lt;/b&gt;&lt;br&gt;ctg1 569&lt;br&gt;Location: 604689 - 605535" locus_tag="ctg1_569" class="clusterblast-orf" id="dummy-2_q4_0_all"  />
<polygon points="433,35 438,30 454,30 454,40 438,40 433,35 " style="fill:#15d897; stroke-width:1; stroke:black; " description="&lt;b&gt;ctg1_570&lt;/b&gt;&lt;br&gt;ctg1 570&lt;br&gt;Location: 605602 - 605854" locus_tag="ctg1_570" class="clusterblast-orf" id="dummy-2_q5_0_all"  />
<polygon points="463,35 468,30 616,30 616,40 468,40 463,35 " style="fill:#1515d8; stroke-width:1; stroke:black; " description="&lt;b&gt;ctg1_571&lt;/b&gt;&lt;br&gt;ctg1 571&lt;br&gt;Location: 605971 - 607858" locus_tag="ctg1_571" class="clusterblast-orf" id="dummy-2_q6_0_all"  />
<polygon points="616,35 621,30 700,30 700,40 621,40 616,35 " style="fill:#d81597; stroke-width:1; stroke:black; " description="&lt;b&gt;ctg1_572&lt;/b&gt;&lt;br&gt;ctg1 572&lt;br&gt;Location: 607854 - 608889" locus_tag="ctg1_572" class="clusterblast-orf" id="dummy-2_q7_0_all"  />
<polygon points="700,35 705,30 780,30 780,40 705,40 700,35 " style="fill:#97d815; stroke-width:1; stroke:black; " description="&lt;b&gt;ctg1_573&lt;/b&gt;&lt;br&gt;ctg1 573&lt;br&gt;Location: 608885 - 609875" locus_tag="ctg1_573" class="clusterblast-orf" id="dummy-2_q8_0_all"  />
</g>
<g label="NZ_PYAQ01000001" description="NZ_PYAQ01000001 (604632-615478): Pseudomonas sp. R9.37 NODE 1 length 780182 c... (100% of genes show similarity), bacteriocin" class="clusterblast-cluster"  >
<text x="5" y="70" class="clusterblast-acc"  >
<a xlink:href="https://antismash-db.secondarymetabolites.org/area.html?record=NZ_PYAQ01000001&amp;start=604632&amp;end=615478" target="_blank">NZ_PYAQ01000001 (604632-615478)</a>: Pseudomonas sp. R9.37 NODE 1 length 780182 c... (100% of genes show similarity), bacteriocin</text>
<line x1="10" y1="85" x2="778.0" y2="85" style="stroke-width:1; stroke:grey; "  />
</g>
<g id="a2_000"  >
<polygon points="5,85 10,80 47,80 47,90 10,90 5,85 " style="fill:#d81515; stroke-width:1; stroke:black; " description="&lt;b&gt;C7U57_RS02820&lt;/b&gt;&lt;br&gt;DUF3617 domain-containing protein&lt;br&gt;Location: 605352 - 605873&lt;br&gt;&lt;br&gt;&lt;b&gt;BlastP hit with ctg1_565&lt;/b&gt;&lt;br&gt;Percentage identity: 99&lt;br&gt;Percentage coverage: 100&lt;br&gt;BLAST bit score: 342&lt;br&gt;E-value: 2.09e-120" locus_tag="C7U57_RS02820" class="clusterblast-orf" id="dummy-2_h2_8_0"  />
</g>
<g id="a2_001"  >
<polygon points="58,90 170,90 175,85 170,80 58,80 58,90 " style="fill:#15d815; stroke-width:1; stroke:black; " description="&lt;b&gt;C7U57_RS02825&lt;/b&gt;&lt;br&gt;cardiolipin synthase&lt;br&gt;Location: 606004 - 607443&lt;br&gt;&lt;br&gt;&lt;b&gt;BlastP hit with ctg1_566&lt;/b&gt;&lt;br&gt;Percentage identity: 97&lt;br&gt;Percentage coverage: 100&lt;br&gt;BLAST bit score: 925&lt;br&gt;E-value: 0.0" locus_tag="C7U57_RS02825" class="clusterblast-orf" id="dummy-2_h2_8_1"  />
</g>
<g id="a2_002"  >
<polygon points="186,85 191,80 282,80 282,90 191,90 186,85 " style="fill:#1597d8; stroke-width:1; stroke:black; " description="&lt;b&gt;C7U57_RS02830&lt;/b&gt;&lt;br&gt;class I SAM-dependent methyltransferase&lt;br&gt;Location: 607582 - 608766&lt;br&gt;&lt;br&gt;&lt;b&gt;BlastP hit with ctg1_567&lt;/b&gt;&lt;br&gt;Percentage identity: 97&lt;br&gt;Percentage coverage: 100&lt;br&gt;BLAST bit score: 777&lt;br&gt;E-value: 2.98e-285" locus_tag="C7U57_RS02830" class="clusterblast-orf" id="dummy-2_h2_8_2"  />
</g>
<g id="a2_003"  >
<polygon points="289,85 294,80 353,80 353,90 294,90 289,85 " style="fill:#9715d8; stroke-width:1; stroke:black; " description="&lt;b&gt;C7U57_RS02835&lt;/b&gt;&lt;br&gt;putative DNA-binding domain-containing protein&lt;br&gt;Location: 608854 - 609642&lt;br&gt;&lt;br&gt;&lt;b&gt;BlastP hit with ctg1_568&lt;/b&gt;&lt;br&gt;Percentage identity: 90&lt;br&gt;Percentage coverage: 100&lt;br&gt;BLAST bit score: 489&lt;br&gt;E-value: 5.4e-176" locus_tag="C7U57_RS02835" class="clusterblast-orf" id="dummy-2_h2_8_3"  />
</g>
<g id="a2_004"  >
<polygon points="353,85 358,80 421,80 421,90 358,90 353,85 " style="fill:#d89715; stroke-width:1; stroke:black; " description="&lt;b&gt;C7U57_RS02840&lt;/b&gt;&lt;br&gt;DUF692 domain-containing protein&lt;br&gt;Location: 609633 - 610478&lt;br&gt;&lt;br&gt;&lt;b&gt;BlastP hit with ctg1_569&lt;/b&gt;&lt;br&gt;Percentage identity: 91&lt;br&gt;Percentage coverage: 100&lt;br&gt;BLAST bit score: 523&lt;br&gt;E-value: 1.28e-188" locus_tag="C7U57_RS02840" class="clusterblast-orf" id="dummy-2_h2_8_4"  />
</g>
<g id="a2_005"  >
<polygon points="427,85 432,80 447,80 447,90 432,90 427,85 " style="fill:#15d897; stroke-width:1; stroke:black; " description="&lt;b&gt;C7U57_RS02845&lt;/b&gt;&lt;br&gt;hypothetical protein&lt;br&gt;Location: 610545 - 610799&lt;br&gt;&lt;br&gt;&lt;b&gt;BlastP hit with ctg1_570&lt;/b&gt;&lt;br&gt;Percentage identity: 85&lt;br&gt;Percentage coverage: 101&lt;br&gt;BLAST bit score: 108&lt;br&gt;E-value: 7.39e-31" locus_tag="C7U57_RS02845" class="clusterblast-orf" id="dummy-2_h2_8_5"  />
</g>
<g id="a2_006"  >
<polygon points="457,85 462,80 610,80 610,90 462,90 457,85 " style="fill:#1515d8; stroke-width:1; stroke:black; " description="&lt;b&gt;C7U57_RS02850&lt;/b&gt;&lt;br&gt;cadmium-translocating P-type ATPase&lt;br&gt;Location: 610916 - 612802&lt;br&gt;&lt;br&gt;&lt;b&gt;BlastP hit with ctg1_571&lt;/b&gt;&lt;br&gt;Percentage identity: 98&lt;br&gt;Percentage coverage: 100&lt;br&gt;BLAST bit score: 1102&lt;br&gt;E-value: 0.0" locus_tag="C7U57_RS02850" class="clusterblast-orf" id="dummy-2_h2_8_6"  />
</g>
<g id="a2_007"  >
<polygon points="610,85 615,80 694,80 694,90 615,90 610,85 " style="fill:#d81597; stroke-width:1; stroke:black; " description="&lt;b&gt;C7U57_RS02855&lt;/b&gt;&lt;br&gt;protease modulator HflK&lt;br&gt;Location: 612799 - 613833&lt;br&gt;&lt;br&gt;&lt;b&gt;BlastP hit with ctg1_572&lt;/b&gt;&lt;br&gt;Percentage identity: 95&lt;br&gt;Percentage coverage: 100&lt;br&gt;BLAST bit score: 543&lt;br&gt;E-value: 1.34e-194" locus_tag="C7U57_RS02855" class="clusterblast-orf" id="dummy-2_h2_8_7"  />
</g>
<g id="a2_008"  >
<polygon points="694,85 699,80 774,80 774,90 699,90 694,85 " style="fill:#97d815; stroke-width:1; stroke:black; " description="&lt;b&gt;C7U57_RS02860&lt;/b&gt;&lt;br&gt;protease modulator HflC&lt;br&gt;Location: 613830 - 614819&lt;br&gt;&lt;br&gt;&lt;b&gt;BlastP hit with ctg1_573&lt;/b&gt;&lt;br&gt;Percentage identity: 90&lt;br&gt;Percentage coverage: 100&lt;br&gt;BLAST bit score: 523&lt;br&gt;E-value: 7.14e-187" locus_tag="C7U57_RS02860" class="clusterblast-orf" id="dummy-2_h2_8_8"  />
</g>
</svg>
