<svg xmlns="http://www.w3.org/2000/svg" xmlns:xlink="http://www.w3.org/1999/xlink" version="1.1" x="0" y="0" height="230" width="800" viewBox="0 0 800 230" preserveAspectRatio="none"  >
<g label="Query sequence" class="clusterblast-cluster"  >
<text x="5" y="20" class="clusterblast-acc"  >
Query sequence</text>
<line x1="10" y1="35" x2="778.0" y2="35" style="stroke-width:1; stroke:grey; "  />
<polygon points="9,35 14,30 60,30 60,40 14,40 9,35 " style="fill:#d81515; stroke-width:1; stroke:black; " description="&lt;b&gt;ctg4_158&lt;/b&gt;&lt;br&gt;ctg4 158&lt;br&gt;Location: 161748 - 163446" locus_tag="ctg4_158" class="clusterblast-orf" id="dummy-1_q0_0_all"  />
<polygon points="63,35 68,30 82,30 82,40 68,40 63,35 " style="fill:#56d815; stroke-width:1; stroke:black; " description="&lt;b&gt;ctg4_159&lt;/b&gt;&lt;br&gt;ctg4 159&lt;br&gt;Location: 163540 - 164191" locus_tag="ctg4_159" class="clusterblast-orf" id="dummy-1_q1_0_all"  />
<polygon points="87,40 107,40 112,35 107,30 87,30 87,40 " style="fill:#1597d8; stroke-width:1; stroke:black; " description="&lt;b&gt;ctg4_160&lt;/b&gt;&lt;br&gt;ctg4 160&lt;br&gt;Location: 164359 - 165172" locus_tag="ctg4_160" class="clusterblast-orf" id="dummy-1_q2_0_all"  />
<polygon points="116,40 151,40 156,35 151,30 116,30 116,40 " style="fill:#9715d8; stroke-width:1; stroke:black; " description="&lt;b&gt;ctg4_161&lt;/b&gt;&lt;br&gt;ctg4 161&lt;br&gt;Location: 165299 - 166628" locus_tag="ctg4_161" class="clusterblast-orf" id="dummy-1_q3_0_all"  />
<polygon points="160,35 165,30 197,30 197,40 165,40 160,35 " style="fill:#d85615; stroke-width:1; stroke:black; " description="&lt;b&gt;ctg4_162&lt;/b&gt;&lt;br&gt;ctg4 162&lt;br&gt;Location: 166757 - 167987" locus_tag="ctg4_162" class="clusterblast-orf" id="dummy-1_q4_0_all"  />
<polygon points="202,40 225,40 230,35 225,30 202,30 202,40 " style="fill:#15d815; stroke-width:1; stroke:black; " description="&lt;b&gt;ctg4_163&lt;/b&gt;&lt;br&gt;ctg4 163&lt;br&gt;Location: 168153 - 169089" locus_tag="ctg4_163" class="clusterblast-orf" id="dummy-1_q5_0_all"  />
<polygon points="233,40 240,40 245,35 240,30 233,30 233,40 " style="fill:#1556d8; stroke-width:1; stroke:black; " description="&lt;b&gt;ctg4_164&lt;/b&gt;&lt;br&gt;ctg4 164&lt;br&gt;Location: 169188 - 169581" locus_tag="ctg4_164" class="clusterblast-orf" id="dummy-1_q6_0_all"  />
<polygon points="246,40 268,40 273,35 268,30 246,30 246,40 " style="fill:#d815d8; stroke-width:1; stroke:black; " description="&lt;b&gt;ctg4_165&lt;/b&gt;&lt;br&gt;ctg4 165&lt;br&gt;Location: 169597 - 170497" locus_tag="ctg4_165" class="clusterblast-orf" id="dummy-1_q7_0_all"  />
<polygon points="289,35 294,30 350,30 350,40 294,40 289,35 " style="fill:#d89715; stroke-width:1; stroke:black; " description="&lt;b&gt;ctg4_166&lt;/b&gt;&lt;br&gt;ctg4 166&lt;br&gt;Location: 171045 - 173061" locus_tag="ctg4_166" class="clusterblast-orf" id="dummy-1_q8_0_all"  />
<polygon points="354,35 359,30 449,30 449,40 359,40 354,35 " style="fill:#d89715; stroke-width:1; stroke:black; " description="&lt;b&gt;ctg4_167&lt;/b&gt;&lt;br&gt;ctg4 167&lt;br&gt;Location: 173195 - 176312" locus_tag="ctg4_167" class="clusterblast-orf" id="dummy-1_q9_0_all"  />
<polygon points="451,35 456,30 500,30 500,40 456,40 451,35 " style="fill:#15d856; stroke-width:1; stroke:black; " description="&lt;b&gt;ctg4_168&lt;/b&gt;&lt;br&gt;ctg4 168&lt;br&gt;Location: 176379 - 178008" locus_tag="ctg4_168" class="clusterblast-orf" id="dummy-1_q10_0_all"  />
<polygon points="505,40 535,40 540,35 535,30 505,30 505,40 " style="fill:#1515d8; stroke-width:1; stroke:black; " description="&lt;b&gt;ctg4_169&lt;/b&gt;&lt;br&gt;ctg4 169&lt;br&gt;Location: 178173 - 179337" locus_tag="ctg4_169" class="clusterblast-orf" id="dummy-1_q11_0_all"  />
<polygon points="540,40 584,40 589,35 584,30 540,30 540,40 " style="fill:#d81597; stroke-width:1; stroke:black; " description="&lt;b&gt;ctg4_170&lt;/b&gt;&lt;br&gt;ctg4 170&lt;br&gt;Location: 179349 - 180957" locus_tag="ctg4_170" class="clusterblast-orf" id="dummy-1_q12_0_all"  />
<polygon points="589,40 609,40 614,35 609,30 589,30 589,40 " style="fill:#d8d815; stroke-width:1; stroke:black; " description="&lt;b&gt;ctg4_171&lt;/b&gt;&lt;br&gt;ctg4 171&lt;br&gt;Location: 180971 - 181778" locus_tag="ctg4_171" class="clusterblast-orf" id="dummy-1_q13_0_all"  />
<polygon points="614,40 667,40 672,35 667,30 614,30 614,40 " style="fill:#15d897; stroke-width:1; stroke:black; " description="&lt;b&gt;ctg4_172&lt;/b&gt;&lt;br&gt;ctg4 172&lt;br&gt;Location: 181774 - 183700" locus_tag="ctg4_172" class="clusterblast-orf" id="dummy-1_q14_0_all"  />
<polygon points="672,35 677,30 691,30 691,40 677,40 672,35 " style="fill:#5615d8; stroke-width:1; stroke:black; " description="&lt;b&gt;ctg4_173&lt;/b&gt;&lt;br&gt;ctg4 173&lt;br&gt;Location: 183696 - 184332" locus_tag="ctg4_173" class="clusterblast-orf" id="dummy-1_q15_0_all"  />
<polygon points="695,40 700,40 705,35 700,30 695,30 695,40 " style="fill:#d81556; stroke-width:1; stroke:black; " description="&lt;b&gt;ctg4_174&lt;/b&gt;&lt;br&gt;ctg4 174&lt;br&gt;Location: 184462 - 184813" locus_tag="ctg4_174" class="clusterblast-orf" id="dummy-1_q16_0_all"  />
<polygon points="719,40 749,40 754,35 749,30 719,30 719,40 " style="fill:#97d815; stroke-width:1; stroke:black; " description="&lt;b&gt;ctg4_175&lt;/b&gt;&lt;br&gt;ctg4 175&lt;br&gt;Location: 185278 - 186430" locus_tag="ctg4_175" class="clusterblast-orf" id="dummy-1_q17_0_all"  />
<polygon points="755,35 760,30 771,30 771,40 760,40 755,35 " style="fill:#15d8d8; stroke-width:1; stroke:black; " description="&lt;b&gt;ctg4_176&lt;/b&gt;&lt;br&gt;ctg4 176&lt;br&gt;Location: 186447 - 186987" locus_tag="ctg4_176" class="clusterblast-orf" id="dummy-1_q18_0_all"  />
</g>
<g label="NZ_CP019856" description="NZ_CP019856 (4157722-4186036): Pseudomonas azotoformans strain F77 chromosome... (100% of genes show similarity), betalactone" class="clusterblast-cluster"  >
<text x="5" y="70" class="clusterblast-acc"  >
<a xlink:href="https://antismash-db.secondarymetabolites.org/area.html?record=NZ_CP019856&amp;start=4157722&amp;end=4186036" target="_blank">NZ_CP019856 (4157722-4186036)</a>: Pseudomonas azotoformans strain F77 chromosome... (100% of genes show similarity), betalactone</text>
<line x1="10" y1="85" x2="778.0" y2="85" style="stroke-width:1; stroke:grey; "  />
</g>
<g id="a1_000"  >
<polygon points="0,85 5,80 52,80 52,90 5,90 0,85 " style="fill:#d81515; stroke-width:1; stroke:black; " description="&lt;b&gt;B1R45_RS18955&lt;/b&gt;&lt;br&gt;outer membrane protein assembly factor&lt;br&gt;Location: 4159251 - 4160978&lt;br&gt;&lt;br&gt;&lt;b&gt;BlastP hit with ctg4_158&lt;/b&gt;&lt;br&gt;Percentage identity: 92&lt;br&gt;Percentage coverage: 100&lt;br&gt;BLAST bit score: 1072&lt;br&gt;E-value: 0.0" locus_tag="B1R45_RS18955" class="clusterblast-orf" id="dummy-1_h1_5_0"  />
</g>
<g id="a1_001"  >
<polygon points="54,85 59,80 73,80 73,90 59,90 54,85 " style="fill:#56d815; stroke-width:1; stroke:black; " description="&lt;b&gt;B1R45_RS18960&lt;/b&gt;&lt;br&gt;GNAT family N-acetyltransferase&lt;br&gt;Location: 4161043 - 4161693&lt;br&gt;&lt;br&gt;&lt;b&gt;BlastP hit with ctg4_159&lt;/b&gt;&lt;br&gt;Percentage identity: 96&lt;br&gt;Percentage coverage: 100&lt;br&gt;BLAST bit score: 437&lt;br&gt;E-value: 8.5e-157" locus_tag="B1R45_RS18960" class="clusterblast-orf" id="dummy-1_h1_5_1"  />
</g>
<g id="a1_002"  >
<polygon points="78,90 98,90 103,85 98,80 78,80 78,90 " style="fill:#1597d8; stroke-width:1; stroke:black; " description="&lt;b&gt;B1R45_RS18965&lt;/b&gt;&lt;br&gt;exodeoxyribonuclease III&lt;br&gt;Location: 4161863 - 4162675&lt;br&gt;&lt;br&gt;&lt;b&gt;BlastP hit with ctg4_160&lt;/b&gt;&lt;br&gt;Percentage identity: 97&lt;br&gt;Percentage coverage: 100&lt;br&gt;BLAST bit score: 555&lt;br&gt;E-value: 8.54e-202" locus_tag="B1R45_RS18965" class="clusterblast-orf" id="dummy-1_h1_5_2"  />
</g>
<g id="a1_003"  >
<polygon points="123,90 159,90 164,85 159,80 123,80 123,90 " style="fill:#9715d8; stroke-width:1; stroke:black; " description="&lt;b&gt;B1R45_RS18970&lt;/b&gt;&lt;br&gt;OmpA family protein&lt;br&gt;Location: 4163355 - 4164686&lt;br&gt;&lt;br&gt;&lt;b&gt;BlastP hit with ctg4_161&lt;/b&gt;&lt;br&gt;Percentage identity: 90&lt;br&gt;Percentage coverage: 100&lt;br&gt;BLAST bit score: 764&lt;br&gt;E-value: 1.38e-278" locus_tag="B1R45_RS18970" class="clusterblast-orf" id="dummy-1_h1_5_3"  />
</g>
<g id="a1_004"  >
<polygon points="168,85 173,80 205,80 205,90 173,90 168,85 " style="fill:#d85615; stroke-width:1; stroke:black; " description="&lt;b&gt;B1R45_RS18975&lt;/b&gt;&lt;br&gt;acyl-CoA dehydrogenase&lt;br&gt;Location: 4164818 - 4166047&lt;br&gt;&lt;br&gt;&lt;b&gt;BlastP hit with ctg4_162&lt;/b&gt;&lt;br&gt;Percentage identity: 99&lt;br&gt;Percentage coverage: 100&lt;br&gt;BLAST bit score: 818&lt;br&gt;E-value: 4.72e-301" locus_tag="B1R45_RS18975" class="clusterblast-orf" id="dummy-1_h1_5_4"  />
</g>
<g id="a1_005"  >
<polygon points="209,90 233,90 238,85 233,80 209,80 209,90 " style="fill:#15d815; stroke-width:1; stroke:black; " description="&lt;b&gt;B1R45_RS18980&lt;/b&gt;&lt;br&gt;LysR family transcriptional regulator&lt;br&gt;Location: 4166199 - 4167134&lt;br&gt;&lt;br&gt;&lt;b&gt;BlastP hit with ctg4_163&lt;/b&gt;&lt;br&gt;Percentage identity: 98&lt;br&gt;Percentage coverage: 100&lt;br&gt;BLAST bit score: 608&lt;br&gt;E-value: 3.81e-221" locus_tag="B1R45_RS18980" class="clusterblast-orf" id="dummy-1_h1_5_5"  />
</g>
<g id="a1_006"  >
<polygon points="243,90 250,90 255,85 250,80 243,80 243,90 " style="fill:#1556d8; stroke-width:1; stroke:black; " description="&lt;b&gt;B1R45_RS18985&lt;/b&gt;&lt;br&gt;MerR family DNA-binding transcriptional regulator&lt;br&gt;Location: 4167313 - 4167705&lt;br&gt;&lt;br&gt;&lt;b&gt;BlastP hit with ctg4_164&lt;/b&gt;&lt;br&gt;Percentage identity: 96&lt;br&gt;Percentage coverage: 99&lt;br&gt;BLAST bit score: 235&lt;br&gt;E-value: 1.44e-79" locus_tag="B1R45_RS18985" class="clusterblast-orf" id="dummy-1_h1_5_6"  />
</g>
<g id="a1_007"  >
<polygon points="255,90 278,90 283,85 278,80 255,80 255,90 " style="fill:#d815d8; stroke-width:1; stroke:black; " description="&lt;b&gt;B1R45_RS18990&lt;/b&gt;&lt;br&gt;hydroxymethylglutaryl-CoA lyase&lt;br&gt;Location: 4167723 - 4168622&lt;br&gt;&lt;br&gt;&lt;b&gt;BlastP hit with ctg4_165&lt;/b&gt;&lt;br&gt;Percentage identity: 94&lt;br&gt;Percentage coverage: 100&lt;br&gt;BLAST bit score: 551&lt;br&gt;E-value: 2.7e-199" locus_tag="B1R45_RS18990" class="clusterblast-orf" id="dummy-1_h1_5_7"  />
</g>
<g id="a1_008"  >
<polygon points="299,85 304,80 455,80 455,90 304,90 299,85 " style="fill:#d89715; stroke-width:1; stroke:black; " description="&lt;b&gt;B1R45_RS18995&lt;/b&gt;&lt;br&gt;hypothetical protein&lt;br&gt;Location: 4169170 - 4174326&lt;br&gt;&lt;br&gt;&lt;b&gt;BlastP hit with ctg4_167&lt;/b&gt;&lt;br&gt;Percentage identity: 37&lt;br&gt;Percentage coverage: 97&lt;br&gt;BLAST bit score: 563&lt;br&gt;E-value: 8.06e-176" locus_tag="B1R45_RS18995" class="clusterblast-orf" id="dummy-1_h1_5_8"  />
</g>
<g id="a1_009"  >
<polygon points="457,85 462,80 507,80 507,90 462,90 457,85 " style="fill:#15d856; stroke-width:1; stroke:black; " description="&lt;b&gt;B1R45_RS19000&lt;/b&gt;&lt;br&gt;AMP-binding protein&lt;br&gt;Location: 4174402 - 4176036&lt;br&gt;&lt;br&gt;&lt;b&gt;BlastP hit with ctg4_168&lt;/b&gt;&lt;br&gt;Percentage identity: 93&lt;br&gt;Percentage coverage: 100&lt;br&gt;BLAST bit score: 1058&lt;br&gt;E-value: 0.0" locus_tag="B1R45_RS19000" class="clusterblast-orf" id="dummy-1_h1_5_9"  />
</g>
<g id="a1_0010"  >
<polygon points="511,90 541,90 546,85 541,80 511,80 511,90 " style="fill:#1515d8; stroke-width:1; stroke:black; " description="&lt;b&gt;B1R45_RS19005&lt;/b&gt;&lt;br&gt;isovaleryl-CoA dehydrogenase&lt;br&gt;Location: 4176185 - 4177348&lt;br&gt;&lt;br&gt;&lt;b&gt;BlastP hit with ctg4_169&lt;/b&gt;&lt;br&gt;Percentage identity: 95&lt;br&gt;Percentage coverage: 100&lt;br&gt;BLAST bit score: 739&lt;br&gt;E-value: 2.12e-270" locus_tag="B1R45_RS19005" class="clusterblast-orf" id="dummy-1_h1_5_10"  />
</g>
<g id="a1_0011"  >
<polygon points="547,90 590,90 595,85 590,80 547,80 547,90 " style="fill:#d81597; stroke-width:1; stroke:black; " description="&lt;b&gt;B1R45_RS19010&lt;/b&gt;&lt;br&gt;methylcrotonoyl-CoA carboxylase&lt;br&gt;Location: 4177360 - 4178967&lt;br&gt;&lt;br&gt;&lt;b&gt;BlastP hit with ctg4_170&lt;/b&gt;&lt;br&gt;Percentage identity: 99&lt;br&gt;Percentage coverage: 100&lt;br&gt;BLAST bit score: 1052&lt;br&gt;E-value: 0.0" locus_tag="B1R45_RS19010" class="clusterblast-orf" id="dummy-1_h1_5_11"  />
</g>
<g id="a1_0012"  >
<polygon points="596,90 615,90 620,85 615,80 596,80 596,90 " style="fill:#d8d815; stroke-width:1; stroke:black; " description="&lt;b&gt;B1R45_RS19015&lt;/b&gt;&lt;br&gt;gamma-carboxygeranoyl-CoA hydratase&lt;br&gt;Location: 4178983 - 4179789&lt;br&gt;&lt;br&gt;&lt;b&gt;BlastP hit with ctg4_171&lt;/b&gt;&lt;br&gt;Percentage identity: 95&lt;br&gt;Percentage coverage: 100&lt;br&gt;BLAST bit score: 501&lt;br&gt;E-value: 1.61e-180" locus_tag="B1R45_RS19015" class="clusterblast-orf" id="dummy-1_h1_5_12"  />
</g>
<g id="a1_0013"  >
<polygon points="620,90 673,90 678,85 673,80 620,80 620,90 " style="fill:#15d897; stroke-width:1; stroke:black; " description="&lt;b&gt;B1R45_RS19020&lt;/b&gt;&lt;br&gt;acetyl/propionyl/methylcrotonyl-CoA carboxylase subunit alpha&lt;br&gt;Location: 4179786 - 4181711&lt;br&gt;&lt;br&gt;&lt;b&gt;BlastP hit with ctg4_172&lt;/b&gt;&lt;br&gt;Percentage identity: 93&lt;br&gt;Percentage coverage: 95&lt;br&gt;BLAST bit score: 1109&lt;br&gt;E-value: 0.0" locus_tag="B1R45_RS19020" class="clusterblast-orf" id="dummy-1_h1_5_13"  />
</g>
<g id="a1_0014"  >
<polygon points="678,85 683,80 697,80 697,90 683,90 678,85 " style="fill:#5615d8; stroke-width:1; stroke:black; " description="&lt;b&gt;B1R45_RS19025&lt;/b&gt;&lt;br&gt;helix-turn-helix domain-containing protein&lt;br&gt;Location: 4181708 - 4182340&lt;br&gt;&lt;br&gt;&lt;b&gt;BlastP hit with ctg4_173&lt;/b&gt;&lt;br&gt;Percentage identity: 85&lt;br&gt;Percentage coverage: 100&lt;br&gt;BLAST bit score: 367&lt;br&gt;E-value: 2.2e-129" locus_tag="B1R45_RS19025" class="clusterblast-orf" id="dummy-1_h1_5_14"  />
</g>
<g id="a1_0015"  >
<polygon points="701,90 707,90 712,85 707,80 701,80 701,90 " style="fill:#d81556; stroke-width:1; stroke:black; " description="&lt;b&gt;B1R45_RS19030&lt;/b&gt;&lt;br&gt;DUF3077 domain-containing protein&lt;br&gt;Location: 4182472 - 4182822&lt;br&gt;&lt;br&gt;&lt;b&gt;BlastP hit with ctg4_174&lt;/b&gt;&lt;br&gt;Percentage identity: 70&lt;br&gt;Percentage coverage: 98&lt;br&gt;BLAST bit score: 144&lt;br&gt;E-value: 6.88e-44" locus_tag="B1R45_RS19030" class="clusterblast-orf" id="dummy-1_h1_5_15"  />
</g>
<g id="a1_0016"  >
<polygon points="726,90 755,90 760,85 755,80 726,80 726,90 " style="fill:#97d815; stroke-width:1; stroke:black; " description="&lt;b&gt;B1R45_RS19035&lt;/b&gt;&lt;br&gt;carboxypeptidase family protein&lt;br&gt;Location: 4183290 - 4184441&lt;br&gt;&lt;br&gt;&lt;b&gt;BlastP hit with ctg4_175&lt;/b&gt;&lt;br&gt;Percentage identity: 89&lt;br&gt;Percentage coverage: 100&lt;br&gt;BLAST bit score: 712&lt;br&gt;E-value: 7.23e-260" locus_tag="B1R45_RS19035" class="clusterblast-orf" id="dummy-1_h1_5_16"  />
</g>
<g id="a1_0017"  >
<polygon points="763,85 768,80 780,80 780,90 768,90 763,85 " style="fill:#15d8d8; stroke-width:1; stroke:black; " description="&lt;b&gt;B1R45_RS19040&lt;/b&gt;&lt;br&gt;cytochrome b&lt;br&gt;Location: 4184533 - 4185072&lt;br&gt;&lt;br&gt;&lt;b&gt;BlastP hit with ctg4_176&lt;/b&gt;&lt;br&gt;Percentage identity: 97&lt;br&gt;Percentage coverage: 99&lt;br&gt;BLAST bit score: 325&lt;br&gt;E-value: 8.33e-114" locus_tag="B1R45_RS19040" class="clusterblast-orf" id="dummy-1_h1_5_17"  />
</g>
</svg>
