<svg xmlns="http://www.w3.org/2000/svg" xmlns:xlink="http://www.w3.org/1999/xlink" version="1.1" x="0" y="0" height="230" width="800" viewBox="0 0 800 230" preserveAspectRatio="none"  >
<g label="Query sequence" class="clusterblast-cluster"  >
<text x="5" y="20" class="clusterblast-acc"  >
Query sequence</text>
<line x1="10" y1="35" x2="778.0" y2="35" style="stroke-width:1; stroke:grey; "  />
<polygon points="112,40 112,40 117,35 112,30 112,30 112,40 " style="fill:#d81515; stroke-width:1; stroke:black; " description="&lt;b&gt;ctg2_477&lt;/b&gt;&lt;br&gt;ctg2 477&lt;br&gt;Location: 482940 - 483210" locus_tag="ctg2_477" class="clusterblast-orf" id="dummy-1_q0_0_all"  />
<polygon points="120,40 160,40 165,35 160,30 120,30 120,40 " style="fill:#15d863; stroke-width:1; stroke:black; " description="&lt;b&gt;ctg2_478&lt;/b&gt;&lt;br&gt;ctg2 478&lt;br&gt;Location: 483341 - 485498" locus_tag="ctg2_478" class="clusterblast-orf" id="dummy-1_q1_0_all"  />
<polygon points="165,40 180,40 185,35 180,30 165,30 165,40 " style="fill:white; stroke-width:1; stroke:black; " description="&lt;b&gt;ctg2_479&lt;/b&gt;&lt;br&gt;ctg2 479&lt;br&gt;Location: 485499 - 486498" locus_tag="ctg2_479" class="clusterblast-orf" id="dummy-1_q2_0_all"  />
<polygon points="185,40 196,40 201,35 196,30 185,30 185,40 " style="fill:white; stroke-width:1; stroke:black; " description="&lt;b&gt;ctg2_480&lt;/b&gt;&lt;br&gt;ctg2 480&lt;br&gt;Location: 486494 - 487253" locus_tag="ctg2_480" class="clusterblast-orf" id="dummy-1_q3_0_all"  />
<polygon points="201,40 208,40 213,35 208,30 201,30 201,40 " style="fill:white; stroke-width:1; stroke:black; " description="&lt;b&gt;ctg2_481&lt;/b&gt;&lt;br&gt;ctg2 481&lt;br&gt;Location: 487249 - 487849" locus_tag="ctg2_481" class="clusterblast-orf" id="dummy-1_q4_0_all"  />
<polygon points="213,40 222,40 227,35 222,30 213,30 213,40 " style="fill:white; stroke-width:1; stroke:black; " description="&lt;b&gt;ctg2_482&lt;/b&gt;&lt;br&gt;ctg2 482&lt;br&gt;Location: 487845 - 488505" locus_tag="ctg2_482" class="clusterblast-orf" id="dummy-1_q5_0_all"  />
<polygon points="231,40 242,40 247,35 242,30 231,30 231,40 " style="fill:white; stroke-width:1; stroke:black; " description="&lt;b&gt;ctg2_483&lt;/b&gt;&lt;br&gt;ctg2 483&lt;br&gt;Location: 488695 - 489457" locus_tag="ctg2_483" class="clusterblast-orf" id="dummy-1_q6_0_all"  />
<polygon points="250,40 266,40 271,35 266,30 250,30 250,40 " style="fill:white; stroke-width:1; stroke:black; " description="&lt;b&gt;ctg2_484&lt;/b&gt;&lt;br&gt;ctg2 484&lt;br&gt;Location: 489596 - 490616" locus_tag="ctg2_484" class="clusterblast-orf" id="dummy-1_q7_0_all"  />
<polygon points="275,40 283,40 288,35 283,30 275,30 275,40 " style="fill:white; stroke-width:1; stroke:black; " description="&lt;b&gt;ctg2_485&lt;/b&gt;&lt;br&gt;ctg2 485&lt;br&gt;Location: 490838 - 491459" locus_tag="ctg2_485" class="clusterblast-orf" id="dummy-1_q8_0_all"  />
<polygon points="289,40 292,40 297,35 292,30 289,30 289,40 " style="fill:white; stroke-width:1; stroke:black; " description="&lt;b&gt;ctg2_486&lt;/b&gt;&lt;br&gt;ctg2 486&lt;br&gt;Location: 491489 - 491882" locus_tag="ctg2_486" class="clusterblast-orf" id="dummy-1_q9_0_all"  />
<polygon points="301,40 317,40 322,35 317,30 301,30 301,40 " style="fill:white; stroke-width:1; stroke:black; " description="&lt;b&gt;ctg2_487&lt;/b&gt;&lt;br&gt;ctg2 487&lt;br&gt;Location: 492097 - 493075" locus_tag="ctg2_487" class="clusterblast-orf" id="dummy-1_q10_0_all"  />
<polygon points="328,40 340,40 345,35 340,30 328,30 328,40 " style="fill:white; stroke-width:1; stroke:black; " description="&lt;b&gt;ctg2_488&lt;/b&gt;&lt;br&gt;ctg2 488&lt;br&gt;Location: 493360 - 494212" locus_tag="ctg2_488" class="clusterblast-orf" id="dummy-1_q11_0_all"  />
<polygon points="348,40 372,40 377,35 372,30 348,30 348,40 " style="fill:#1563d8; stroke-width:1; stroke:black; " description="&lt;b&gt;ctg2_489&lt;/b&gt;&lt;br&gt;ctg2 489&lt;br&gt;Location: 494356 - 495733" locus_tag="ctg2_489" class="clusterblast-orf" id="dummy-1_q12_0_all"  />
<polygon points="377,40 396,40 401,35 396,30 377,30 377,40 " style="fill:#b115d8; stroke-width:1; stroke:black; " description="&lt;b&gt;ctg2_490&lt;/b&gt;&lt;br&gt;ctg2 490&lt;br&gt;Location: 495729 - 496896" locus_tag="ctg2_490" class="clusterblast-orf" id="dummy-1_q13_0_all"  />
<polygon points="419,35 424,30 465,30 465,40 424,40 419,35 " style="fill:#b1d815; stroke-width:1; stroke:black; " description="&lt;b&gt;ctg2_491&lt;/b&gt;&lt;br&gt;ctg2 491&lt;br&gt;Location: 497793 - 499992" locus_tag="ctg2_491" class="clusterblast-orf" id="dummy-1_q14_0_all"  />
<polygon points="468,40 476,40 481,35 476,30 468,30 468,40 " style="fill:white; stroke-width:1; stroke:black; " description="&lt;b&gt;ctg2_492&lt;/b&gt;&lt;br&gt;ctg2 492&lt;br&gt;Location: 500127 - 500748" locus_tag="ctg2_492" class="clusterblast-orf" id="dummy-1_q15_0_all"  />
<polygon points="481,35 486,30 495,30 495,40 486,40 481,35 " style="fill:white; stroke-width:1; stroke:black; " description="&lt;b&gt;ctg2_493&lt;/b&gt;&lt;br&gt;ctg2 493&lt;br&gt;Location: 500761 - 501418" locus_tag="ctg2_493" class="clusterblast-orf" id="dummy-1_q16_0_all"  />
<polygon points="497,40 505,40 510,35 505,30 497,30 497,40 " style="fill:white; stroke-width:1; stroke:black; " description="&lt;b&gt;ctg2_494&lt;/b&gt;&lt;br&gt;ctg2 494&lt;br&gt;Location: 501529 - 502162" locus_tag="ctg2_494" class="clusterblast-orf" id="dummy-1_q17_0_all"  />
<polygon points="511,40 522,40 527,35 522,30 511,30 511,40 " style="fill:white; stroke-width:1; stroke:black; " description="&lt;b&gt;ctg2_495&lt;/b&gt;&lt;br&gt;ctg2 495&lt;br&gt;Location: 502190 - 502997" locus_tag="ctg2_495" class="clusterblast-orf" id="dummy-1_q18_0_all"  />
<polygon points="529,40 533,35 529,30 529,40 " style="fill:white; stroke-width:1; stroke:black; " description="&lt;b&gt;ctg2_496&lt;/b&gt;&lt;br&gt;ctg2 496&lt;br&gt;Location: 503098 - 503254" locus_tag="ctg2_496" class="clusterblast-orf" id="dummy-1_q19_0_all"  />
<polygon points="534,40 556,40 561,35 556,30 534,30 534,40 " style="fill:white; stroke-width:1; stroke:black; " description="&lt;b&gt;ctg2_497&lt;/b&gt;&lt;br&gt;ctg2 497&lt;br&gt;Location: 503304 - 504618" locus_tag="ctg2_497" class="clusterblast-orf" id="dummy-1_q20_0_all"  />
<polygon points="562,40 569,40 574,35 569,30 562,30 562,40 " style="fill:white; stroke-width:1; stroke:black; " description="&lt;b&gt;ctg2_498&lt;/b&gt;&lt;br&gt;ctg2 498&lt;br&gt;Location: 504687 - 505266" locus_tag="ctg2_498" class="clusterblast-orf" id="dummy-1_q21_0_all"  />
<polygon points="575,35 580,30 585,30 585,40 580,40 575,35 " style="fill:white; stroke-width:1; stroke:black; " description="&lt;b&gt;ctg2_499&lt;/b&gt;&lt;br&gt;ctg2 499&lt;br&gt;Location: 505309 - 505759" locus_tag="ctg2_499" class="clusterblast-orf" id="dummy-1_q22_0_all"  />
<polygon points="584,35 589,30 594,30 594,40 589,40 584,35 " style="fill:white; stroke-width:1; stroke:black; " description="&lt;b&gt;ctg2_500&lt;/b&gt;&lt;br&gt;ctg2 500&lt;br&gt;Location: 505751 - 506204" locus_tag="ctg2_500" class="clusterblast-orf" id="dummy-1_q23_0_all"  />
<polygon points="596,40 635,40 640,35 635,30 596,30 596,40 " style="fill:white; stroke-width:1; stroke:black; " description="&lt;b&gt;ctg2_501&lt;/b&gt;&lt;br&gt;ctg2 501&lt;br&gt;Location: 506301 - 508449" locus_tag="ctg2_501" class="clusterblast-orf" id="dummy-1_q24_0_all"  />
<polygon points="642,35 647,30 658,30 658,40 647,40 642,35 " style="fill:white; stroke-width:1; stroke:black; " description="&lt;b&gt;ctg2_502&lt;/b&gt;&lt;br&gt;ctg2 502&lt;br&gt;Location: 508528 - 509299" locus_tag="ctg2_502" class="clusterblast-orf" id="dummy-1_q25_0_all"  />
<polygon points="658,35 663,30 668,30 668,40 663,40 658,35 " style="fill:white; stroke-width:1; stroke:black; " description="&lt;b&gt;ctg2_503&lt;/b&gt;&lt;br&gt;ctg2 503&lt;br&gt;Location: 509295 - 509775" locus_tag="ctg2_503" class="clusterblast-orf" id="dummy-1_q26_0_all"  />
</g>
<g label="BGC0000774" description="BGC0000774_c1: lipopolysaccharide (5% of genes show similarity), Saccharide:Lipopolysaccharide" class="clusterblast-cluster"  >
<text x="5" y="70" class="clusterblast-acc"  >
<a xlink:href="https://mibig.secondarymetabolites.org/go/BGC0000774/1" target="_blank">BGC0000774</a>: lipopolysaccharide                                                               (5% of genes show similarity), Saccharide:Lipopolysaccharide</text>
<line x1="10" y1="85" x2="778.0" y2="85" style="stroke-width:1; stroke:grey; "  />
</g>
<g id="a1_000"  >
<polygon points="0,85 5,80 12,80 12,90 5,90 0,85 " style="fill:white; stroke-width:1; stroke:black; " description="&lt;b&gt;AAK53492.1&lt;/b&gt;&lt;br&gt;putative ATP-dependent RNA helicase&lt;br&gt;Location: 37753 - 37148" locus_tag="AAK53492.1" class="clusterblast-orf" id="dummy-1_h1_2_0"  />
</g>
<g id="a1_001"  >
<polygon points="20,90 35,90 40,85 35,80 20,80 20,90 " style="fill:white; stroke-width:1; stroke:black; " description="&lt;b&gt;AAK53491.1&lt;/b&gt;&lt;br&gt;putative dioxygenase&lt;br&gt;Location: 36768 - 35779" locus_tag="AAK53491.1" class="clusterblast-orf" id="dummy-1_h1_2_1"  />
</g>
<g id="a1_002"  >
<polygon points="41,90 50,90 55,85 50,80 41,80 41,90 " style="fill:white; stroke-width:1; stroke:black; " description="&lt;b&gt;AAK53490.1&lt;/b&gt;&lt;br&gt;putative maleylacetoacetate isomerase&lt;br&gt;Location: 35735 - 35073" locus_tag="AAK53490.1" class="clusterblast-orf" id="dummy-1_h1_2_2"  />
</g>
<g id="a1_003"  >
<polygon points="66,85 71,80 89,80 89,90 71,90 66,85 " style="fill:white; stroke-width:1; stroke:black; " description="&lt;b&gt;AAK53489.1&lt;/b&gt;&lt;br&gt;type II secretion system protein-like protein&lt;br&gt;Location: 34553 - 33420" locus_tag="AAK53489.1" class="clusterblast-orf" id="dummy-1_h1_2_3"  />
</g>
<g id="a1_004"  >
<polygon points="91,90 94,90 99,85 94,80 91,80 91,90 " style="fill:white; stroke-width:1; stroke:black; " description="&lt;b&gt;AAK53488.1&lt;/b&gt;&lt;br&gt;putative outer membrane protein UptD precursor&lt;br&gt;Location: 33321 - 32938" locus_tag="AAK53488.1" class="clusterblast-orf" id="dummy-1_h1_2_4"  />
</g>
<g id="a1_005"  >
<polygon points="99,90 113,90 118,85 113,80 99,80 99,90 " style="fill:white; stroke-width:1; stroke:black; " description="&lt;b&gt;AAK53487.1&lt;/b&gt;&lt;br&gt;putative outer membrane protein UptE precursor&lt;br&gt;Location: 32941 - 32051" locus_tag="AAK53487.1" class="clusterblast-orf" id="dummy-1_h1_2_5"  />
</g>
<g id="a1_006"  >
<polygon points="119,90 124,90 129,85 124,80 119,80 119,90 " style="fill:white; stroke-width:1; stroke:black; " description="&lt;b&gt;AAK53486.1&lt;/b&gt;&lt;br&gt;UptF&lt;br&gt;Location: 31985 - 31491" locus_tag="AAK53486.1" class="clusterblast-orf" id="dummy-1_h1_2_6"  />
</g>
<g id="a1_007"  >
<polygon points="134,90 158,90 163,85 158,80 134,80 134,90 " style="fill:#1563d8; stroke-width:1; stroke:black; " description="&lt;b&gt;AAK53485.1&lt;/b&gt;&lt;br&gt;cystathionine beta-lyase&lt;br&gt;Location: 31259 - 29889&lt;br&gt;&lt;br&gt;&lt;b&gt;BlastP hit with ctg2_489&lt;/b&gt;&lt;br&gt;Percentage identity: 62&lt;br&gt;Percentage coverage: 98&lt;br&gt;BLAST bit score: 548&lt;br&gt;E-value: 1.77e-194" locus_tag="AAK53485.1" class="clusterblast-orf" id="dummy-1_h1_2_7"  />
</g>
<g id="a1_008"  >
<polygon points="165,90 184,90 189,85 184,80 165,80 165,90 " style="fill:#b115d8; stroke-width:1; stroke:black; " description="&lt;b&gt;AAK53484.1&lt;/b&gt;&lt;br&gt;cystathionine gamma-synthase&lt;br&gt;Location: 29795 - 28596&lt;br&gt;&lt;br&gt;&lt;b&gt;BlastP hit with ctg2_490&lt;/b&gt;&lt;br&gt;Percentage identity: 68&lt;br&gt;Percentage coverage: 97&lt;br&gt;BLAST bit score: 538&lt;br&gt;E-value: 2.04e-192" locus_tag="AAK53484.1" class="clusterblast-orf" id="dummy-1_h1_2_8"  />
</g>
<g id="a1_009"  >
<polygon points="189,90 213,90 218,85 213,80 189,80 189,90 " style="fill:white; stroke-width:1; stroke:black; " description="&lt;b&gt;AAK53483.1&lt;/b&gt;&lt;br&gt;glycosyltransferase&lt;br&gt;Location: 28599 - 27214" locus_tag="AAK53483.1" class="clusterblast-orf" id="dummy-1_h1_2_9"  />
</g>
<g id="a1_0010"  >
<polygon points="220,90 231,90 236,85 231,80 220,80 220,90 " style="fill:white; stroke-width:1; stroke:black; " description="&lt;b&gt;AAK53482.1&lt;/b&gt;&lt;br&gt;permease protein of an ABC-type polysaccaharide exporter&lt;br&gt;Location: 27130 - 26345" locus_tag="AAK53482.1" class="clusterblast-orf" id="dummy-1_h1_2_10"  />
</g>
<g id="a1_0011"  >
<polygon points="236,90 258,90 263,85 258,80 236,80 236,90 " style="fill:white; stroke-width:1; stroke:black; " description="&lt;b&gt;AAK53481.1&lt;/b&gt;&lt;br&gt;ATP-binding component of an ABC-type polysaccharide exporter&lt;br&gt;Location: 26348 - 25062" locus_tag="AAK53481.1" class="clusterblast-orf" id="dummy-1_h1_2_11"  />
</g>
<g id="a1_0012"  >
<polygon points="263,90 306,90 311,85 306,80 263,80 263,90 " style="fill:white; stroke-width:1; stroke:black; " description="&lt;b&gt;AAK53480.1&lt;/b&gt;&lt;br&gt;putative protein kinase&lt;br&gt;Location: 25022 - 22734" locus_tag="AAK53480.1" class="clusterblast-orf" id="dummy-1_h1_2_12"  />
</g>
<g id="a1_0013"  >
<polygon points="312,90 329,90 334,85 329,80 312,80 312,90 " style="fill:white; stroke-width:1; stroke:black; " description="&lt;b&gt;AAK53479.1&lt;/b&gt;&lt;br&gt;glycosyltransferase&lt;br&gt;Location: 22684 - 21623" locus_tag="AAK53479.1" class="clusterblast-orf" id="dummy-1_h1_2_13"  />
</g>
<g id="a1_0014"  >
<polygon points="334,90 366,90 371,85 366,80 334,80 334,90 " style="fill:white; stroke-width:1; stroke:black; " description="&lt;b&gt;AAK53478.1&lt;/b&gt;&lt;br&gt;putative glycosyltransferase&lt;br&gt;Location: 21602 - 19857" locus_tag="AAK53478.1" class="clusterblast-orf" id="dummy-1_h1_2_14"  />
</g>
<g id="a1_0015"  >
<polygon points="371,90 379,90 384,85 379,80 371,80 371,90 " style="fill:white; stroke-width:1; stroke:black; " description="&lt;b&gt;AAK53477.1&lt;/b&gt;&lt;br&gt;Unknown&lt;br&gt;Location: 19857 - 19222" locus_tag="AAK53477.1" class="clusterblast-orf" id="dummy-1_h1_2_15"  />
</g>
<g id="a1_0016"  >
<polygon points="385,90 402,90 407,85 402,80 385,80 385,90 " style="fill:white; stroke-width:1; stroke:black; " description="&lt;b&gt;AAK53476.1&lt;/b&gt;&lt;br&gt;GDP-mannose 4,6-dehydratase&lt;br&gt;Location: 19144 - 18110" locus_tag="AAK53476.1" class="clusterblast-orf" id="dummy-1_h1_2_16"  />
</g>
<g id="a1_0017"  >
<polygon points="406,90 421,90 426,85 421,80 406,80 406,90 " style="fill:white; stroke-width:1; stroke:black; " description="&lt;b&gt;AAK53475.1&lt;/b&gt;&lt;br&gt;GDP-4-dehydro-D-rhamnose reductase&lt;br&gt;Location: 18126 - 17188" locus_tag="AAK53475.1" class="clusterblast-orf" id="dummy-1_h1_2_17"  />
</g>
<g id="a1_0018"  >
<polygon points="429,85 434,80 476,80 476,90 434,90 429,85 " style="fill:white; stroke-width:1; stroke:black; " description="&lt;b&gt;AAK53474.1&lt;/b&gt;&lt;br&gt;integral membrane protein&lt;br&gt;Location: 17046 - 14794" locus_tag="AAK53474.1" class="clusterblast-orf" id="dummy-1_h1_2_18"  />
</g>
<g id="a1_0019"  >
<polygon points="477,85 482,80 486,80 486,90 482,90 477,85 " style="fill:white; stroke-width:1; stroke:black; " description="&lt;b&gt;AAK53473.1&lt;/b&gt;&lt;br&gt;putative integral membrane protein WxcN&lt;br&gt;Location: 14724 - 14284" locus_tag="AAK53473.1" class="clusterblast-orf" id="dummy-1_h1_2_19"  />
</g>
<g id="a1_0020"  >
<polygon points="486,85 491,80 505,80 505,90 491,90 486,85 " style="fill:white; stroke-width:1; stroke:black; " description="&lt;b&gt;AAK53472.1&lt;/b&gt;&lt;br&gt;bifunctional nucleotide hexosamine acetyltransferase / isomerase&lt;br&gt;Location: 14297 - 13368" locus_tag="AAK53472.1" class="clusterblast-orf" id="dummy-1_h1_2_20"  />
</g>
<g id="a1_0021"  >
<polygon points="505,85 510,80 525,80 525,90 510,90 505,85 " style="fill:white; stroke-width:1; stroke:black; " description="&lt;b&gt;AAK53471.1&lt;/b&gt;&lt;br&gt;glycosyltransferase&lt;br&gt;Location: 13371 - 12400" locus_tag="AAK53471.1" class="clusterblast-orf" id="dummy-1_h1_2_21"  />
</g>
<g id="a1_0022"  >
<polygon points="525,85 530,80 548,80 548,90 530,90 525,85 " style="fill:white; stroke-width:1; stroke:black; " description="&lt;b&gt;AAK53470.1&lt;/b&gt;&lt;br&gt;nucleotide sugar aminotransferase&lt;br&gt;Location: 12415 - 11312" locus_tag="AAK53470.1" class="clusterblast-orf" id="dummy-1_h1_2_22"  />
</g>
<g id="a1_0023"  >
<polygon points="549,85 554,80 556,80 556,90 554,90 549,85 " style="fill:white; stroke-width:1; stroke:black; " description="&lt;b&gt;AAK53469.1&lt;/b&gt;&lt;br&gt;WxcH&lt;br&gt;Location: 11263 - 10916" locus_tag="AAK53469.1" class="clusterblast-orf" id="dummy-1_h1_2_23"  />
</g>
<g id="a1_0024"  >
<polygon points="557,85 562,80 577,80 577,90 562,90 557,85 " style="fill:white; stroke-width:1; stroke:black; " description="&lt;b&gt;AAK53468.1&lt;/b&gt;&lt;br&gt;putative electron-transferring flavoprotein alpha subunit&lt;br&gt;Location: 10856 - 9912" locus_tag="AAK53468.1" class="clusterblast-orf" id="dummy-1_h1_2_24"  />
</g>
<g id="a1_0025"  >
<polygon points="577,85 582,80 592,80 592,90 582,90 577,85 " style="fill:white; stroke-width:1; stroke:black; " description="&lt;b&gt;AAK53467.1&lt;/b&gt;&lt;br&gt;putative electron-transferring flavoprotein beta subunit&lt;br&gt;Location: 9912 - 9166" locus_tag="AAK53467.1" class="clusterblast-orf" id="dummy-1_h1_2_25"  />
</g>
<g id="a1_0026"  >
<polygon points="597,90 614,90 619,85 614,80 597,80 597,90 " style="fill:white; stroke-width:1; stroke:black; " description="&lt;b&gt;AAK53466.1&lt;/b&gt;&lt;br&gt;dTDP-glucose 4,6-dehydratase&lt;br&gt;Location: 8937 - 7882" locus_tag="AAK53466.1" class="clusterblast-orf" id="dummy-1_h1_2_26"  />
</g>
<g id="a1_0027"  >
<polygon points="620,90 634,90 639,85 634,80 620,80 620,90 " style="fill:white; stroke-width:1; stroke:black; " description="&lt;b&gt;AAA16191.1&lt;/b&gt;&lt;br&gt;glucose-1-phosphate thymidylyltransferase&lt;br&gt;Location: 7818 - 6931" locus_tag="AAA16191.1" class="clusterblast-orf" id="dummy-1_h1_2_27"  />
</g>
<g id="a1_0028"  >
<polygon points="639,90 645,90 650,85 645,80 639,80 639,90 " style="fill:white; stroke-width:1; stroke:black; " description="&lt;b&gt;AAK53465.1&lt;/b&gt;&lt;br&gt;dTDP-4-dehydrorhamnose 3,5-epimerase&lt;br&gt;Location: 6934 - 6377" locus_tag="AAK53465.1" class="clusterblast-orf" id="dummy-1_h1_2_28"  />
</g>
<g id="a1_0029"  >
<polygon points="650,90 664,90 669,85 664,80 650,80 650,90 " style="fill:white; stroke-width:1; stroke:black; " description="&lt;b&gt;AAK53464.1&lt;/b&gt;&lt;br&gt;dTDP-4-dehydrorhamnose reductase&lt;br&gt;Location: 6380 - 5472" locus_tag="AAK53464.1" class="clusterblast-orf" id="dummy-1_h1_2_29"  />
</g>
<g id="a1_0030"  >
<polygon points="671,85 676,80 700,80 700,90 676,90 671,85 " style="fill:white; stroke-width:1; stroke:black; " description="&lt;b&gt;AAK53463.1&lt;/b&gt;&lt;br&gt;phosphomannose isomerase / GDP-mannose pyrophosphorylase&lt;br&gt;Location: 5350 - 3947" locus_tag="AAK53463.1" class="clusterblast-orf" id="dummy-1_h1_2_30"  />
</g>
<g id="a1_0031"  >
<polygon points="701,85 706,80 729,80 729,90 706,90 701,85 " style="fill:white; stroke-width:1; stroke:black; " description="&lt;b&gt;AAA27610.1&lt;/b&gt;&lt;br&gt;phosphoglucomutase / phosphomannomutase&lt;br&gt;Location: 3901 - 2555" locus_tag="AAA27610.1" class="clusterblast-orf" id="dummy-1_h1_2_31"  />
</g>
<g id="a1_0032"  >
<polygon points="732,90 742,90 747,85 742,80 732,80 732,90 " style="fill:white; stroke-width:1; stroke:black; " description="&lt;b&gt;AAK53462.1&lt;/b&gt;&lt;br&gt;alpha subunit of putative 3-oxoacid CoA-transferase&lt;br&gt;Location: 2420 - 1692" locus_tag="AAK53462.1" class="clusterblast-orf" id="dummy-1_h1_2_32"  />
</g>
<g id="a1_0033"  >
<polygon points="747,90 755,90 760,85 755,80 747,80 747,90 " style="fill:white; stroke-width:1; stroke:black; " description="&lt;b&gt;AAK53493.1&lt;/b&gt;&lt;br&gt;beta-subunit of putative 3-oxoacid CoA-transferase&lt;br&gt;Location: 1692 - 1054" locus_tag="AAK53493.1" class="clusterblast-orf" id="dummy-1_h1_2_33"  />
</g>
<g id="a1_0034"  >
<polygon points="766,85 771,80 780,80 780,90 771,90 766,85 " style="fill:white; stroke-width:1; stroke:black; " description="&lt;b&gt;AAK53494.1&lt;/b&gt;&lt;br&gt;conserved protein involved in carbohydrate biosynthesis&lt;br&gt;Location: 772 - 134" locus_tag="AAK53494.1" class="clusterblast-orf" id="dummy-1_h1_2_34"  />
</g>
</svg>
