<svg xmlns="http://www.w3.org/2000/svg" xmlns:xlink="http://www.w3.org/1999/xlink" version="1.1" x="0" y="0" height="230" width="800" viewBox="0 0 800 230" preserveAspectRatio="none"  >
<g label="Query sequence" class="clusterblast-cluster"  >
<text x="5" y="20" class="clusterblast-acc"  >
Query sequence</text>
<line x1="10" y1="35" x2="778.0" y2="35" style="stroke-width:1; stroke:grey; "  />
<polygon points="241,35 246,30 247,30 247,40 246,40 241,35 " style="fill:white; stroke-width:1; stroke:black; " description="&lt;b&gt;ctg4_277&lt;/b&gt;&lt;br&gt;ctg4 277&lt;br&gt;Location: 297387 - 298311" locus_tag="ctg4_277" class="clusterblast-orf" id="dummy-2_q0_0_all"  />
<polygon points="249,40 249,40 254,35 249,30 249,30 249,40 " style="fill:white; stroke-width:1; stroke:black; " description="&lt;b&gt;ctg4_278&lt;/b&gt;&lt;br&gt;ctg4 278&lt;br&gt;Location: 298628 - 299300" locus_tag="ctg4_278" class="clusterblast-orf" id="dummy-2_q1_0_all"  />
<polygon points="254,40 256,40 261,35 256,30 254,30 254,40 " style="fill:white; stroke-width:1; stroke:black; " description="&lt;b&gt;ctg4_279&lt;/b&gt;&lt;br&gt;ctg4 279&lt;br&gt;Location: 299302 - 300403" locus_tag="ctg4_279" class="clusterblast-orf" id="dummy-2_q2_0_all"  />
<polygon points="261,35 266,30 271,30 271,40 266,40 261,35 " style="fill:white; stroke-width:1; stroke:black; " description="&lt;b&gt;ctg4_280&lt;/b&gt;&lt;br&gt;ctg4 280&lt;br&gt;Location: 300453 - 301896" locus_tag="ctg4_280" class="clusterblast-orf" id="dummy-2_q3_0_all"  />
<polygon points="272,35 277,30 279,30 279,40 277,40 272,35 " style="fill:white; stroke-width:1; stroke:black; " description="&lt;b&gt;ctg4_281&lt;/b&gt;&lt;br&gt;ctg4 281&lt;br&gt;Location: 302046 - 303111" locus_tag="ctg4_281" class="clusterblast-orf" id="dummy-2_q4_0_all"  />
<polygon points="279,35 284,30 296,30 296,40 284,40 279,35 " style="fill:white; stroke-width:1; stroke:black; " description="&lt;b&gt;ctg4_282&lt;/b&gt;&lt;br&gt;ctg4 282&lt;br&gt;Location: 303100 - 305596" locus_tag="ctg4_282" class="clusterblast-orf" id="dummy-2_q5_0_all"  />
<polygon points="296,35 301,30 301,30 301,40 301,40 296,35 " style="fill:white; stroke-width:1; stroke:black; " description="&lt;b&gt;ctg4_283&lt;/b&gt;&lt;br&gt;ctg4 283&lt;br&gt;Location: 305564 - 306233" locus_tag="ctg4_283" class="clusterblast-orf" id="dummy-2_q6_0_all"  />
<polygon points="302,40 302,40 307,35 302,30 302,30 302,40 " style="fill:white; stroke-width:1; stroke:black; " description="&lt;b&gt;ctg4_284&lt;/b&gt;&lt;br&gt;ctg4 284&lt;br&gt;Location: 306507 - 307182" locus_tag="ctg4_284" class="clusterblast-orf" id="dummy-2_q7_0_all"  />
<polygon points="308,40 314,40 319,35 314,30 308,30 308,40 " style="fill:white; stroke-width:1; stroke:black; " description="&lt;b&gt;ctg4_285&lt;/b&gt;&lt;br&gt;ctg4 285&lt;br&gt;Location: 307371 - 309027" locus_tag="ctg4_285" class="clusterblast-orf" id="dummy-2_q8_0_all"  />
<polygon points="320,40 325,40 330,35 325,30 320,30 320,40 " style="fill:white; stroke-width:1; stroke:black; " description="&lt;b&gt;ctg4_286&lt;/b&gt;&lt;br&gt;ctg4 286&lt;br&gt;Location: 309053 - 310571" locus_tag="ctg4_286" class="clusterblast-orf" id="dummy-2_q9_0_all"  />
<polygon points="330,35 335,30 335,30 335,40 335,40 330,35 " style="fill:white; stroke-width:1; stroke:black; " description="&lt;b&gt;ctg4_287&lt;/b&gt;&lt;br&gt;ctg4 287&lt;br&gt;Location: 310592 - 311306" locus_tag="ctg4_287" class="clusterblast-orf" id="dummy-2_q10_0_all"  />
<polygon points="335,35 340,30 340,30 340,40 340,40 335,35 " style="fill:white; stroke-width:1; stroke:black; " description="&lt;b&gt;ctg4_288&lt;/b&gt;&lt;br&gt;ctg4 288&lt;br&gt;Location: 311305 - 312058" locus_tag="ctg4_288" class="clusterblast-orf" id="dummy-2_q11_0_all"  />
<polygon points="340,35 345,30 348,30 348,40 345,40 340,35 " style="fill:white; stroke-width:1; stroke:black; " description="&lt;b&gt;ctg4_289&lt;/b&gt;&lt;br&gt;ctg4 289&lt;br&gt;Location: 312066 - 313260" locus_tag="ctg4_289" class="clusterblast-orf" id="dummy-2_q12_0_all"  />
<polygon points="348,35 353,30 354,30 354,40 353,40 348,35 " style="fill:white; stroke-width:1; stroke:black; " description="&lt;b&gt;ctg4_290&lt;/b&gt;&lt;br&gt;ctg4 290&lt;br&gt;Location: 313246 - 314053" locus_tag="ctg4_290" class="clusterblast-orf" id="dummy-2_q13_0_all"  />
<polygon points="353,35 358,30 359,30 359,40 358,40 353,35 " style="fill:white; stroke-width:1; stroke:black; " description="&lt;b&gt;ctg4_291&lt;/b&gt;&lt;br&gt;ctg4 291&lt;br&gt;Location: 314049 - 314907" locus_tag="ctg4_291" class="clusterblast-orf" id="dummy-2_q14_0_all"  />
<polygon points="360,35 361,30 361,40 360,35 " style="fill:white; stroke-width:1; stroke:black; " description="&lt;b&gt;ctg4_292&lt;/b&gt;&lt;br&gt;ctg4 292&lt;br&gt;Location: 315001 - 315169" locus_tag="ctg4_292" class="clusterblast-orf" id="dummy-2_q15_0_all"  />
<polygon points="368,35 373,30 411,30 411,40 373,40 368,35 " style="fill:#d81515; stroke-width:1; stroke:black; " description="&lt;b&gt;ctg4_293&lt;/b&gt;&lt;br&gt;ctg4 293&lt;br&gt;Location: 316226 - 322496" locus_tag="ctg4_293" class="clusterblast-orf" id="dummy-2_q16_0_all"  />
<polygon points="414,40 414,40 419,35 414,30 414,30 414,40 " style="fill:#4dd815; stroke-width:1; stroke:black; " description="&lt;b&gt;ctg4_294&lt;/b&gt;&lt;br&gt;ctg4 294&lt;br&gt;Location: 322983 - 323778" locus_tag="ctg4_294" class="clusterblast-orf" id="dummy-2_q17_0_all"  />
<polygon points="419,40 424,40 429,35 424,30 419,30 419,40 " style="fill:#1585d8; stroke-width:1; stroke:black; " description="&lt;b&gt;ctg4_295&lt;/b&gt;&lt;br&gt;ctg4 295&lt;br&gt;Location: 323777 - 325247" locus_tag="ctg4_295" class="clusterblast-orf" id="dummy-2_q18_0_all"  />
<polygon points="429,35 434,30 435,30 435,40 434,40 429,35 " style="fill:white; stroke-width:1; stroke:black; " description="&lt;b&gt;ctg4_296&lt;/b&gt;&lt;br&gt;ctg4 296&lt;br&gt;Location: 325173 - 326034" locus_tag="ctg4_296" class="clusterblast-orf" id="dummy-2_q19_0_all"  />
<polygon points="436,40 440,35 436,30 436,40 " style="fill:white; stroke-width:1; stroke:black; " description="&lt;b&gt;ctg4_297&lt;/b&gt;&lt;br&gt;ctg4 297&lt;br&gt;Location: 326162 - 326828" locus_tag="ctg4_297" class="clusterblast-orf" id="dummy-2_q20_0_all"  />
<polygon points="440,40 440,40 445,35 440,30 440,30 440,40 " style="fill:white; stroke-width:1; stroke:black; " description="&lt;b&gt;ctg4_298&lt;/b&gt;&lt;br&gt;ctg4 298&lt;br&gt;Location: 326824 - 327595" locus_tag="ctg4_298" class="clusterblast-orf" id="dummy-2_q21_0_all"  />
<polygon points="445,40 450,40 455,35 450,30 445,30 445,40 " style="fill:white; stroke-width:1; stroke:black; " description="&lt;b&gt;ctg4_299&lt;/b&gt;&lt;br&gt;ctg4 299&lt;br&gt;Location: 327600 - 329061" locus_tag="ctg4_299" class="clusterblast-orf" id="dummy-2_q22_0_all"  />
<polygon points="456,40 456,40 461,35 456,30 456,30 456,40 " style="fill:white; stroke-width:1; stroke:black; " description="&lt;b&gt;ctg4_300&lt;/b&gt;&lt;br&gt;ctg4 300&lt;br&gt;Location: 329107 - 329965" locus_tag="ctg4_300" class="clusterblast-orf" id="dummy-2_q23_0_all"  />
<polygon points="461,40 464,35 461,30 461,40 " style="fill:white; stroke-width:1; stroke:black; " description="&lt;b&gt;ctg4_301&lt;/b&gt;&lt;br&gt;ctg4 301&lt;br&gt;Location: 329980 - 330373" locus_tag="ctg4_301" class="clusterblast-orf" id="dummy-2_q24_0_all"  />
<polygon points="464,40 468,40 473,35 468,30 464,30 464,40 " style="fill:#d815bc; stroke-width:1; stroke:black; " description="&lt;b&gt;ctg4_302&lt;/b&gt;&lt;br&gt;ctg4 302&lt;br&gt;Location: 330418 - 331723" locus_tag="ctg4_302" class="clusterblast-orf" id="dummy-2_q25_0_all"  />
<polygon points="473,40 474,40 479,35 474,30 473,30 473,40 " style="fill:white; stroke-width:1; stroke:black; " description="&lt;b&gt;ctg4_303&lt;/b&gt;&lt;br&gt;ctg4 303&lt;br&gt;Location: 331734 - 332538" locus_tag="ctg4_303" class="clusterblast-orf" id="dummy-2_q26_0_all"  />
<polygon points="479,40 479,40 484,35 479,30 479,30 479,40 " style="fill:white; stroke-width:1; stroke:black; " description="&lt;b&gt;ctg4_304&lt;/b&gt;&lt;br&gt;ctg4 304&lt;br&gt;Location: 332553 - 333354" locus_tag="ctg4_304" class="clusterblast-orf" id="dummy-2_q27_0_all"  />
<polygon points="485,35 488,30 488,40 485,35 " style="fill:white; stroke-width:1; stroke:black; " description="&lt;b&gt;ctg4_305&lt;/b&gt;&lt;br&gt;ctg4 305&lt;br&gt;Location: 333479 - 333902" locus_tag="ctg4_305" class="clusterblast-orf" id="dummy-2_q28_0_all"  />
<polygon points="489,40 493,40 498,35 493,30 489,30 489,40 " style="fill:white; stroke-width:1; stroke:black; " description="&lt;b&gt;ctg4_306&lt;/b&gt;&lt;br&gt;ctg4 306&lt;br&gt;Location: 334110 - 335409" locus_tag="ctg4_306" class="clusterblast-orf" id="dummy-2_q29_0_all"  />
<polygon points="498,40 501,35 498,30 498,40 " style="fill:white; stroke-width:1; stroke:black; " description="&lt;b&gt;ctg4_307&lt;/b&gt;&lt;br&gt;ctg4 307&lt;br&gt;Location: 335438 - 335804" locus_tag="ctg4_307" class="clusterblast-orf" id="dummy-2_q30_0_all"  />
<polygon points="501,40 502,40 507,35 502,30 501,30 501,40 " style="fill:#d8bc15; stroke-width:1; stroke:black; " description="&lt;b&gt;ctg4_308&lt;/b&gt;&lt;br&gt;ctg4 308&lt;br&gt;Location: 335816 - 336638" locus_tag="ctg4_308" class="clusterblast-orf" id="dummy-2_q31_0_all"  />
<polygon points="507,40 507,40 512,35 507,30 507,30 507,40 " style="fill:#15d885; stroke-width:1; stroke:black; " description="&lt;b&gt;ctg4_309&lt;/b&gt;&lt;br&gt;ctg4 309&lt;br&gt;Location: 336630 - 337434" locus_tag="ctg4_309" class="clusterblast-orf" id="dummy-2_q32_0_all"  />
<polygon points="512,40 512,40 517,35 512,30 512,30 512,40 " style="fill:#4d15d8; stroke-width:1; stroke:black; " description="&lt;b&gt;ctg4_310&lt;/b&gt;&lt;br&gt;ctg4 310&lt;br&gt;Location: 337423 - 338179" locus_tag="ctg4_310" class="clusterblast-orf" id="dummy-2_q33_0_all"  />
<polygon points="517,35 522,30 524,30 524,40 522,40 517,35 " style="fill:white; stroke-width:1; stroke:black; " description="&lt;b&gt;ctg4_311&lt;/b&gt;&lt;br&gt;ctg4 311&lt;br&gt;Location: 338240 - 339182" locus_tag="ctg4_311" class="clusterblast-orf" id="dummy-2_q34_0_all"  />
<polygon points="525,35 529,30 529,40 525,35 " style="fill:white; stroke-width:1; stroke:black; " description="&lt;b&gt;ctg4_312&lt;/b&gt;&lt;br&gt;ctg4 312&lt;br&gt;Location: 339293 - 339890" locus_tag="ctg4_312" class="clusterblast-orf" id="dummy-2_q35_0_all"  />
<polygon points="528,35 533,30 539,30 539,40 533,40 528,35 " style="fill:white; stroke-width:1; stroke:black; " description="&lt;b&gt;ctg4_313&lt;/b&gt;&lt;br&gt;ctg4 313&lt;br&gt;Location: 339852 - 341352" locus_tag="ctg4_313" class="clusterblast-orf" id="dummy-2_q36_0_all"  />
</g>
<g label="BGC0001416" description="BGC0001416_c1: nunapeptin/nunamycin (35% of genes show similarity), NRP" class="clusterblast-cluster"  >
<text x="5" y="70" class="clusterblast-acc"  >
<a xlink:href="https://mibig.secondarymetabolites.org/go/BGC0001416/1" target="_blank">BGC0001416</a>: nunapeptin/nunamycin                                                             (35% of genes show similarity), NRP</text>
<line x1="10" y1="85" x2="778.0" y2="85" style="stroke-width:1; stroke:grey; "  />
</g>
<g id="a2_000"  >
<polygon points="0,85 5,80 209,80 209,90 5,90 0,85 " style="fill:#d81515; stroke-width:1; stroke:black; " description="&lt;b&gt;AL066_08515&lt;/b&gt;&lt;br&gt;NupC&lt;br&gt;Location: 115071 - 84238&lt;br&gt;&lt;br&gt;&lt;b&gt;BlastP hit with ctg4_293&lt;/b&gt;&lt;br&gt;Percentage identity: 50&lt;br&gt;Percentage coverage: 84&lt;br&gt;BLAST bit score: 1504&lt;br&gt;E-value: 0.0" locus_tag="AL066_08515" class="clusterblast-orf" id="dummy-2_h2_4_0"  />
</g>
<g id="a2_001"  >
<polygon points="211,85 216,80 300,80 300,90 216,90 211,85 " style="fill:#d81515; stroke-width:1; stroke:black; " description="&lt;b&gt;AL066_08510&lt;/b&gt;&lt;br&gt;NupB&lt;br&gt;Location: 83899 - 70772&lt;br&gt;&lt;br&gt;&lt;b&gt;BlastP hit with ctg4_293&lt;/b&gt;&lt;br&gt;Percentage identity: 50&lt;br&gt;Percentage coverage: 83&lt;br&gt;BLAST bit score: 1536&lt;br&gt;E-value: 0.0" locus_tag="AL066_08510" class="clusterblast-orf" id="dummy-2_h2_4_1"  />
</g>
<g id="a2_002"  >
<polygon points="300,85 305,80 496,80 496,90 305,90 300,85 " style="fill:#d81515; stroke-width:1; stroke:black; " description="&lt;b&gt;AL066_08505&lt;/b&gt;&lt;br&gt;NupA&lt;br&gt;Location: 70775 - 41868&lt;br&gt;&lt;br&gt;&lt;b&gt;BlastP hit with ctg4_293&lt;/b&gt;&lt;br&gt;Percentage identity: 51&lt;br&gt;Percentage coverage: 103&lt;br&gt;BLAST bit score: 1954&lt;br&gt;E-value: 0.0" locus_tag="AL066_08505" class="clusterblast-orf" id="dummy-2_h2_4_2"  />
</g>
<g id="a2_003"  >
<polygon points="497,85 502,80 509,80 509,90 502,90 497,85 " style="fill:white; stroke-width:1; stroke:black; " description="&lt;b&gt;AL066_08500&lt;/b&gt;&lt;br&gt;NupD&lt;br&gt;Location: 41643 - 39913" locus_tag="AL066_08500" class="clusterblast-orf" id="dummy-2_h2_4_3"  />
</g>
<g id="a2_004"  >
<polygon points="510,85 515,80 517,80 517,90 515,90 510,85 " style="fill:white; stroke-width:1; stroke:black; " description="&lt;b&gt;AL066_08495&lt;/b&gt;&lt;br&gt;NupP&lt;br&gt;Location: 39798 - 38755" locus_tag="AL066_08495" class="clusterblast-orf" id="dummy-2_h2_4_4"  />
</g>
<g id="a2_005"  >
<polygon points="520,90 527,90 532,85 527,80 520,80 520,90 " style="fill:white; stroke-width:1; stroke:black; " description="&lt;b&gt;AL066_08490&lt;/b&gt;&lt;br&gt;NunB1&lt;br&gt;Location: 38315 - 36456" locus_tag="AL066_08490" class="clusterblast-orf" id="dummy-2_h2_4_5"  />
</g>
<g id="a2_006"  >
<polygon points="532,90 534,90 539,85 534,80 532,80 532,90 " style="fill:white; stroke-width:1; stroke:black; " description="&lt;b&gt;AL066_08485&lt;/b&gt;&lt;br&gt;NunB2&lt;br&gt;Location: 36463 - 35519" locus_tag="AL066_08485" class="clusterblast-orf" id="dummy-2_h2_4_6"  />
</g>
<g id="a2_007"  >
<polygon points="539,90 542,90 547,85 542,80 539,80 539,90 " style="fill:white; stroke-width:1; stroke:black; " description="&lt;b&gt;AL066_08480&lt;/b&gt;&lt;br&gt;NunC&lt;br&gt;Location: 35477 - 34275" locus_tag="AL066_08480" class="clusterblast-orf" id="dummy-2_h2_4_7"  />
</g>
<g id="a2_008"  >
<polygon points="550,85 555,80 559,80 559,90 555,90 550,85 " style="fill:white; stroke-width:1; stroke:black; " description="&lt;b&gt;AL066_08475&lt;/b&gt;&lt;br&gt;class III aminotransferase&lt;br&gt;Location: 33886 - 32522" locus_tag="AL066_08475" class="clusterblast-orf" id="dummy-2_h2_4_8"  />
</g>
<g id="a2_009"  >
<polygon points="559,85 564,80 566,80 566,90 564,90 559,85 " style="fill:white; stroke-width:1; stroke:black; " description="&lt;b&gt;AL066_08470&lt;/b&gt;&lt;br&gt;transcription factor&lt;br&gt;Location: 32525 - 31536" locus_tag="AL066_08470" class="clusterblast-orf" id="dummy-2_h2_4_9"  />
</g>
<g id="a2_0010"  >
<polygon points="569,90 664,90 669,85 664,80 569,80 569,90 " style="fill:white; stroke-width:1; stroke:black; " description="&lt;b&gt;AL066_08465&lt;/b&gt;&lt;br&gt;NunD&lt;br&gt;Location: 31125 - 16291" locus_tag="AL066_08465" class="clusterblast-orf" id="dummy-2_h2_4_10"  />
</g>
<g id="a2_0011"  >
<polygon points="669,90 756,90 761,85 756,80 669,80 669,90 " style="fill:white; stroke-width:1; stroke:black; " description="&lt;b&gt;AL066_08460&lt;/b&gt;&lt;br&gt;NunE&lt;br&gt;Location: 16287 - 2722" locus_tag="AL066_08460" class="clusterblast-orf" id="dummy-2_h2_4_11"  />
</g>
<g id="a2_0012"  >
<polygon points="764,90 764,90 769,85 764,80 764,80 764,90 " style="fill:#4dd815; stroke-width:1; stroke:black; " description="&lt;b&gt;AL066_08455&lt;/b&gt;&lt;br&gt;NunF&lt;br&gt;Location: 2310 - 1477&lt;br&gt;&lt;br&gt;&lt;b&gt;BlastP hit with ctg4_294&lt;/b&gt;&lt;br&gt;Percentage identity: 54&lt;br&gt;Percentage coverage: 105&lt;br&gt;BLAST bit score: 270&lt;br&gt;E-value: 6.97e-91" locus_tag="AL066_08455" class="clusterblast-orf" id="dummy-2_h2_4_12"  />
</g>
<g id="a2_0013"  >
<polygon points="770,90 775,90 780,85 775,80 770,80 770,90 " style="fill:#1585d8; stroke-width:1; stroke:black; " description="&lt;b&gt;AL066_08450&lt;/b&gt;&lt;br&gt;NunG&lt;br&gt;Location: 1419 - 1&lt;br&gt;&lt;br&gt;&lt;b&gt;BlastP hit with ctg4_295&lt;/b&gt;&lt;br&gt;Percentage identity: 70&lt;br&gt;Percentage coverage: 95&lt;br&gt;BLAST bit score: 625&lt;br&gt;E-value: 2.95e-224" locus_tag="AL066_08450" class="clusterblast-orf" id="dummy-2_h2_4_13"  />
</g>
</svg>
