<svg xmlns="http://www.w3.org/2000/svg" xmlns:xlink="http://www.w3.org/1999/xlink" version="1.1" x="0" y="0" height="230" width="800" viewBox="0 0 800 230" preserveAspectRatio="none"  >
<g label="Query sequence" class="clusterblast-cluster"  >
<text x="5" y="20" class="clusterblast-acc"  >
Query sequence</text>
<line x1="10" y1="35" x2="778.0" y2="35" style="stroke-width:1; stroke:grey; "  />
<polygon points="0,40 2,35 0,30 0,40 " style="fill:white; stroke-width:1; stroke:black; " description="&lt;b&gt;ctg11_30&lt;/b&gt;&lt;br&gt;ctg11 30&lt;br&gt;Location: 34985 - 35246" locus_tag="ctg11_30" class="clusterblast-orf" id="dummy-1_q0_0_all"  />
<polygon points="3,35 8,30 12,30 12,40 8,40 3,35 " style="fill:white; stroke-width:1; stroke:black; " description="&lt;b&gt;ctg11_31&lt;/b&gt;&lt;br&gt;ctg11 31&lt;br&gt;Location: 35321 - 36146" locus_tag="ctg11_31" class="clusterblast-orf" id="dummy-1_q1_0_all"  />
<polygon points="12,35 17,30 27,30 27,40 17,40 12,35 " style="fill:#d81515; stroke-width:1; stroke:black; " description="&lt;b&gt;ctg11_32&lt;/b&gt;&lt;br&gt;ctg11 32&lt;br&gt;Location: 36142 - 37666" locus_tag="ctg11_32" class="clusterblast-orf" id="dummy-1_q2_0_all"  />
<polygon points="27,35 32,30 38,30 38,40 32,40 27,35 " style="fill:#4dd815; stroke-width:1; stroke:black; " description="&lt;b&gt;ctg11_33&lt;/b&gt;&lt;br&gt;ctg11 33&lt;br&gt;Location: 37662 - 38646" locus_tag="ctg11_33" class="clusterblast-orf" id="dummy-1_q3_0_all"  />
<polygon points="44,40 57,40 62,35 57,30 44,30 44,40 " style="fill:white; stroke-width:1; stroke:black; " description="&lt;b&gt;ctg11_34&lt;/b&gt;&lt;br&gt;ctg11 34&lt;br&gt;Location: 39256 - 40999" locus_tag="ctg11_34" class="clusterblast-orf" id="dummy-1_q4_0_all"  />
<polygon points="63,40 81,40 86,35 81,30 63,30 63,40 " style="fill:white; stroke-width:1; stroke:black; " description="&lt;b&gt;ctg11_35&lt;/b&gt;&lt;br&gt;ctg11 35&lt;br&gt;Location: 41125 - 43354" locus_tag="ctg11_35" class="clusterblast-orf" id="dummy-1_q5_0_all"  />
<polygon points="88,40 90,35 88,30 88,40 " style="fill:white; stroke-width:1; stroke:black; " description="&lt;b&gt;ctg11_36&lt;/b&gt;&lt;br&gt;ctg11 36&lt;br&gt;Location: 43495 - 43717" locus_tag="ctg11_36" class="clusterblast-orf" id="dummy-1_q6_0_all"  />
<polygon points="91,35 96,30 96,30 96,40 96,40 91,35 " style="fill:white; stroke-width:1; stroke:black; " description="&lt;b&gt;ctg11_37&lt;/b&gt;&lt;br&gt;ctg11 37&lt;br&gt;Location: 43818 - 44310" locus_tag="ctg11_37" class="clusterblast-orf" id="dummy-1_q7_0_all"  />
<polygon points="98,35 103,30 109,30 109,40 103,40 98,35 " style="fill:white; stroke-width:1; stroke:black; " description="&lt;b&gt;ctg11_38&lt;/b&gt;&lt;br&gt;ctg11 38&lt;br&gt;Location: 44472 - 45579" locus_tag="ctg11_38" class="clusterblast-orf" id="dummy-1_q8_0_all"  />
<polygon points="110,35 113,30 113,40 110,35 " style="fill:white; stroke-width:1; stroke:black; " description="&lt;b&gt;ctg11_39&lt;/b&gt;&lt;br&gt;ctg11 39&lt;br&gt;Location: 45594 - 45930" locus_tag="ctg11_39" class="clusterblast-orf" id="dummy-1_q9_0_all"  />
<polygon points="114,35 119,30 121,30 121,40 119,40 114,35 " style="fill:white; stroke-width:1; stroke:black; " description="&lt;b&gt;ctg11_40&lt;/b&gt;&lt;br&gt;ctg11 40&lt;br&gt;Location: 45982 - 46699" locus_tag="ctg11_40" class="clusterblast-orf" id="dummy-1_q10_0_all"  />
<polygon points="125,35 130,30 153,30 153,40 130,40 125,35 " style="fill:white; stroke-width:1; stroke:black; " description="&lt;b&gt;ctg11_41&lt;/b&gt;&lt;br&gt;ctg11 41&lt;br&gt;Location: 47100 - 49758" locus_tag="ctg11_41" class="clusterblast-orf" id="dummy-1_q11_0_all"  />
<polygon points="153,35 158,30 161,30 161,40 158,40 153,35 " style="fill:white; stroke-width:1; stroke:black; " description="&lt;b&gt;ctg11_42&lt;/b&gt;&lt;br&gt;ctg11 42&lt;br&gt;Location: 49771 - 50602" locus_tag="ctg11_42" class="clusterblast-orf" id="dummy-1_q12_0_all"  />
<polygon points="161,35 164,30 164,40 161,35 " style="fill:white; stroke-width:1; stroke:black; " description="&lt;b&gt;ctg11_43&lt;/b&gt;&lt;br&gt;ctg11 43&lt;br&gt;Location: 50598 - 50859" locus_tag="ctg11_43" class="clusterblast-orf" id="dummy-1_q13_0_all"  />
<polygon points="164,35 169,30 173,30 173,40 169,40 164,35 " style="fill:white; stroke-width:1; stroke:black; " description="&lt;b&gt;ctg11_44&lt;/b&gt;&lt;br&gt;ctg11 44&lt;br&gt;Location: 50873 - 51743" locus_tag="ctg11_44" class="clusterblast-orf" id="dummy-1_q14_0_all"  />
<polygon points="173,35 178,30 183,30 183,40 178,40 173,35 " style="fill:white; stroke-width:1; stroke:black; " description="&lt;b&gt;ctg11_45&lt;/b&gt;&lt;br&gt;ctg11 45&lt;br&gt;Location: 51739 - 52711" locus_tag="ctg11_45" class="clusterblast-orf" id="dummy-1_q15_0_all"  />
<polygon points="183,35 188,30 192,30 192,40 188,40 183,35 " style="fill:white; stroke-width:1; stroke:black; " description="&lt;b&gt;ctg11_46&lt;/b&gt;&lt;br&gt;ctg11 46&lt;br&gt;Location: 52710 - 53601" locus_tag="ctg11_46" class="clusterblast-orf" id="dummy-1_q16_0_all"  />
<polygon points="194,40 199,40 204,35 199,30 194,30 194,40 " style="fill:white; stroke-width:1; stroke:black; " description="&lt;b&gt;ctg11_47&lt;/b&gt;&lt;br&gt;ctg11 47&lt;br&gt;Location: 53744 - 54692" locus_tag="ctg11_47" class="clusterblast-orf" id="dummy-1_q17_0_all"  />
<polygon points="204,35 209,30 220,30 220,40 209,40 204,35 " style="fill:#1585d8; stroke-width:1; stroke:black; " description="&lt;b&gt;ctg11_48&lt;/b&gt;&lt;br&gt;ctg11 48&lt;br&gt;Location: 54684 - 56304" locus_tag="ctg11_48" class="clusterblast-orf" id="dummy-1_q18_0_all"  />
<polygon points="222,40 231,40 236,35 231,30 222,30 222,40 " style="fill:#a115d8; stroke-width:1; stroke:black; " description="&lt;b&gt;ctg11_49&lt;/b&gt;&lt;br&gt;ctg11 49&lt;br&gt;Location: 56446 - 57796" locus_tag="ctg11_49" class="clusterblast-orf" id="dummy-1_q19_0_all"  />
<polygon points="236,40 244,40 249,35 244,30 236,30 236,40 " style="fill:#d86915; stroke-width:1; stroke:black; " description="&lt;b&gt;ctg11_50&lt;/b&gt;&lt;br&gt;ctg11 50&lt;br&gt;Location: 57814 - 59095" locus_tag="ctg11_50" class="clusterblast-orf" id="dummy-1_q20_0_all"  />
<polygon points="250,40 254,40 259,35 254,30 250,30 250,40 " style="fill:#15d831; stroke-width:1; stroke:black; " description="&lt;b&gt;ctg11_51&lt;/b&gt;&lt;br&gt;ctg11 51&lt;br&gt;Location: 59128 - 60001" locus_tag="ctg11_51" class="clusterblast-orf" id="dummy-1_q21_0_all"  />
<polygon points="260,35 265,30 269,30 269,40 265,40 260,35 " style="fill:#1531d8; stroke-width:1; stroke:black; " description="&lt;b&gt;ctg11_52&lt;/b&gt;&lt;br&gt;ctg11 52&lt;br&gt;Location: 60143 - 60971" locus_tag="ctg11_52" class="clusterblast-orf" id="dummy-1_q22_0_all"  />
<polygon points="271,40 283,40 288,35 283,30 271,30 271,40 " style="fill:#d815bc; stroke-width:1; stroke:black; " description="&lt;b&gt;ctg11_53&lt;/b&gt;&lt;br&gt;ctg11 53&lt;br&gt;Location: 61169 - 62822" locus_tag="ctg11_53" class="clusterblast-orf" id="dummy-1_q23_0_all"  />
<polygon points="289,40 309,40 314,35 309,30 289,30 289,40 " style="fill:#d8bc15; stroke-width:1; stroke:black; " description="&lt;b&gt;ctg11_54&lt;/b&gt;&lt;br&gt;ctg11 54&lt;br&gt;Location: 62931 - 65373" locus_tag="ctg11_54" class="clusterblast-orf" id="dummy-1_q24_0_all"  />
<polygon points="316,35 321,30 439,30 439,40 321,40 316,35 " style="fill:#15d885; stroke-width:1; stroke:black; " description="&lt;b&gt;ctg11_55&lt;/b&gt;&lt;br&gt;ctg11 55&lt;br&gt;Location: 65517 - 77370" locus_tag="ctg11_55" class="clusterblast-orf" id="dummy-1_q25_0_all"  />
<polygon points="439,35 444,30 584,30 584,40 444,40 439,35 " style="fill:#15d885; stroke-width:1; stroke:black; " description="&lt;b&gt;ctg11_56&lt;/b&gt;&lt;br&gt;ctg11 56&lt;br&gt;Location: 77373 - 91428" locus_tag="ctg11_56" class="clusterblast-orf" id="dummy-1_q26_0_all"  />
<polygon points="587,40 589,35 587,30 587,40 " style="fill:#4d15d8; stroke-width:1; stroke:black; " description="&lt;b&gt;ctg11_57&lt;/b&gt;&lt;br&gt;ctg11 57&lt;br&gt;Location: 91637 - 91889" locus_tag="ctg11_57" class="clusterblast-orf" id="dummy-1_q27_0_all"  />
<polygon points="589,40 593,35 589,30 589,40 " style="fill:#d81569; stroke-width:1; stroke:black; " description="&lt;b&gt;ctg11_58&lt;/b&gt;&lt;br&gt;ctg11 58&lt;br&gt;Location: 91885 - 92251" locus_tag="ctg11_58" class="clusterblast-orf" id="dummy-1_q28_0_all"  />
<polygon points="593,35 598,30 605,30 605,40 598,40 593,35 " style="fill:#a1d815; stroke-width:1; stroke:black; " description="&lt;b&gt;ctg11_59&lt;/b&gt;&lt;br&gt;ctg11 59&lt;br&gt;Location: 92233 - 93424" locus_tag="ctg11_59" class="clusterblast-orf" id="dummy-1_q29_0_all"  />
<polygon points="607,40 608,40 613,35 608,30 607,30 607,40 " style="fill:#15d8d8; stroke-width:1; stroke:black; " description="&lt;b&gt;ctg11_60&lt;/b&gt;&lt;br&gt;ctg11 60&lt;br&gt;Location: 93566 - 94160" locus_tag="ctg11_60" class="clusterblast-orf" id="dummy-1_q30_0_all"  />
<polygon points="612,35 617,30 627,30 627,40 617,40 612,35 " style="fill:white; stroke-width:1; stroke:black; " description="&lt;b&gt;ctg11_61&lt;/b&gt;&lt;br&gt;ctg11 61&lt;br&gt;Location: 94143 - 95499" locus_tag="ctg11_61" class="clusterblast-orf" id="dummy-1_q31_0_all"  />
<polygon points="627,35 632,30 633,30 633,40 632,40 627,35 " style="fill:white; stroke-width:1; stroke:black; " description="&lt;b&gt;ctg11_62&lt;/b&gt;&lt;br&gt;ctg11 62&lt;br&gt;Location: 95524 - 96097" locus_tag="ctg11_62" class="clusterblast-orf" id="dummy-1_q32_0_all"  />
<polygon points="633,35 638,30 643,30 643,40 638,40 633,35 " style="fill:white; stroke-width:1; stroke:black; " description="&lt;b&gt;ctg11_63&lt;/b&gt;&lt;br&gt;ctg11 63&lt;br&gt;Location: 96164 - 97121" locus_tag="ctg11_63" class="clusterblast-orf" id="dummy-1_q33_0_all"  />
<polygon points="643,35 648,30 654,30 654,40 648,40 643,35 " style="fill:white; stroke-width:1; stroke:black; " description="&lt;b&gt;ctg11_64&lt;/b&gt;&lt;br&gt;ctg11 64&lt;br&gt;Location: 97124 - 98168" locus_tag="ctg11_64" class="clusterblast-orf" id="dummy-1_q34_0_all"  />
<polygon points="654,35 658,30 658,40 654,35 " style="fill:white; stroke-width:1; stroke:black; " description="&lt;b&gt;ctg11_65&lt;/b&gt;&lt;br&gt;ctg11 65&lt;br&gt;Location: 98183 - 98531" locus_tag="ctg11_65" class="clusterblast-orf" id="dummy-1_q35_0_all"  />
<polygon points="658,35 663,30 671,30 671,40 663,40 658,35 " style="fill:white; stroke-width:1; stroke:black; " description="&lt;b&gt;ctg11_66&lt;/b&gt;&lt;br&gt;ctg11 66&lt;br&gt;Location: 98533 - 99763" locus_tag="ctg11_66" class="clusterblast-orf" id="dummy-1_q36_0_all"  />
<polygon points="673,35 678,30 680,30 680,40 678,40 673,35 " style="fill:white; stroke-width:1; stroke:black; " description="&lt;b&gt;ctg11_67&lt;/b&gt;&lt;br&gt;ctg11 67&lt;br&gt;Location: 99981 - 100671" locus_tag="ctg11_67" class="clusterblast-orf" id="dummy-1_q37_0_all"  />
<polygon points="680,35 685,30 688,30 688,40 685,40 680,35 " style="fill:white; stroke-width:1; stroke:black; " description="&lt;b&gt;ctg11_68&lt;/b&gt;&lt;br&gt;ctg11 68&lt;br&gt;Location: 100681 - 101440" locus_tag="ctg11_68" class="clusterblast-orf" id="dummy-1_q38_0_all"  />
<polygon points="688,35 693,30 700,30 700,40 693,40 688,35 " style="fill:white; stroke-width:1; stroke:black; " description="&lt;b&gt;ctg11_69&lt;/b&gt;&lt;br&gt;ctg11 69&lt;br&gt;Location: 101436 - 102597" locus_tag="ctg11_69" class="clusterblast-orf" id="dummy-1_q39_0_all"  />
<polygon points="700,35 705,30 710,30 710,40 705,40 700,35 " style="fill:white; stroke-width:1; stroke:black; " description="&lt;b&gt;ctg11_70&lt;/b&gt;&lt;br&gt;ctg11 70&lt;br&gt;Location: 102607 - 103525" locus_tag="ctg11_70" class="clusterblast-orf" id="dummy-1_q40_0_all"  />
<polygon points="712,35 717,30 724,30 724,40 717,40 712,35 " style="fill:white; stroke-width:1; stroke:black; " description="&lt;b&gt;ctg11_71&lt;/b&gt;&lt;br&gt;ctg11 71&lt;br&gt;Location: 103703 - 104912" locus_tag="ctg11_71" class="clusterblast-orf" id="dummy-1_q41_0_all"  />
<polygon points="727,40 757,40 762,35 757,30 727,30 727,40 " style="fill:white; stroke-width:1; stroke:black; " description="&lt;b&gt;ctg11_72&lt;/b&gt;&lt;br&gt;ctg11 72&lt;br&gt;Location: 105214 - 108598" locus_tag="ctg11_72" class="clusterblast-orf" id="dummy-1_q42_0_all"  />
<polygon points="762,40 764,40 769,35 764,30 762,30 762,40 " style="fill:white; stroke-width:1; stroke:black; " description="&lt;b&gt;ctg11_73&lt;/b&gt;&lt;br&gt;ctg11 73&lt;br&gt;Location: 108572 - 109238" locus_tag="ctg11_73" class="clusterblast-orf" id="dummy-1_q43_0_all"  />
<polygon points="770,35 775,30 780,30 780,40 775,40 770,35 " style="fill:white; stroke-width:1; stroke:black; " description="&lt;b&gt;ctg11_74&lt;/b&gt;&lt;br&gt;ctg11 74&lt;br&gt;Location: 109358 - 110273" locus_tag="ctg11_74" class="clusterblast-orf" id="dummy-1_q44_0_all"  />
</g>
<g label="BGC0002419" description="BGC0002419_c1: acidobactin A/acidobactin B (18% of genes show similarity), NRP+Polyketide" class="clusterblast-cluster"  >
<text x="5" y="70" class="clusterblast-acc"  >
<a xlink:href="https://mibig.secondarymetabolites.org/go/BGC0002419/1" target="_blank">BGC0002419</a>: acidobactin A/acidobactin B                                                      (18% of genes show similarity), NRP+Polyketide</text>
<line x1="10" y1="85" x2="778.0" y2="85" style="stroke-width:1; stroke:grey; "  />
</g>
<g id="a1_000"  >
<polygon points="193,90 193,90 198,85 193,80 193,80 193,90 " style="fill:white; stroke-width:1; stroke:black; " description="&lt;b&gt;Aave_3737&lt;/b&gt;&lt;br&gt;RNA polymerase, sigma-24 subunit, ECF subfamily&lt;br&gt;Location: 38028 - 37495" locus_tag="Aave_3737" class="clusterblast-orf" id="dummy-1_h1_8_0"  />
</g>
<g id="a1_001"  >
<polygon points="203,90 206,85 203,80 203,90 " style="fill:white; stroke-width:1; stroke:black; " description="&lt;b&gt;Aave_3736&lt;/b&gt;&lt;br&gt;MbtH domain protein&lt;br&gt;Location: 37053 - 36766" locus_tag="Aave_3736" class="clusterblast-orf" id="dummy-1_h1_8_1"  />
</g>
<g id="a1_002"  >
<polygon points="206,90 209,90 214,85 209,80 206,80 206,90 " style="fill:white; stroke-width:1; stroke:black; " description="&lt;b&gt;Aave_3735&lt;/b&gt;&lt;br&gt;Thioesterase&lt;br&gt;Location: 36760 - 35984" locus_tag="Aave_3735" class="clusterblast-orf" id="dummy-1_h1_8_2"  />
</g>
<g id="a1_003"  >
<polygon points="215,90 220,90 225,85 220,80 215,80 215,90 " style="fill:white; stroke-width:1; stroke:black; " description="&lt;b&gt;Aave_3734&lt;/b&gt;&lt;br&gt;Taurine catabolism dioxygenase TauD/TfdA&lt;br&gt;Location: 35888 - 34896" locus_tag="Aave_3734" class="clusterblast-orf" id="dummy-1_h1_8_3"  />
</g>
<g id="a1_004"  >
<polygon points="225,90 275,90 280,85 275,80 225,80 225,90 " style="fill:white; stroke-width:1; stroke:black; " description="&lt;b&gt;Aave_3733&lt;/b&gt;&lt;br&gt;amino acid adenylation domain protein&lt;br&gt;Location: 34899 - 29560" locus_tag="Aave_3733" class="clusterblast-orf" id="dummy-1_h1_8_4"  />
</g>
<g id="a1_005"  >
<polygon points="280,90 323,90 328,85 323,80 280,80 280,90 " style="fill:white; stroke-width:1; stroke:black; " description="&lt;b&gt;Aave_3732&lt;/b&gt;&lt;br&gt;beta-ketoacyl synthase&lt;br&gt;Location: 29551 - 24944" locus_tag="Aave_3732" class="clusterblast-orf" id="dummy-1_h1_8_5"  />
</g>
<g id="a1_006"  >
<polygon points="328,90 358,90 363,85 358,80 328,80 328,90 " style="fill:white; stroke-width:1; stroke:black; " description="&lt;b&gt;Aave_3731&lt;/b&gt;&lt;br&gt;amino acid adenylation domain protein&lt;br&gt;Location: 24942 - 21550" locus_tag="Aave_3731" class="clusterblast-orf" id="dummy-1_h1_8_6"  />
</g>
<g id="a1_007"  >
<polygon points="364,90 441,90 446,85 441,80 364,80 364,90 " style="fill:#15d885; stroke-width:1; stroke:black; " description="&lt;b&gt;Aave_3730&lt;/b&gt;&lt;br&gt;amino acid adenylation domain protein&lt;br&gt;Location: 21517 - 13562&lt;br&gt;&lt;br&gt;&lt;b&gt;BlastP hit with ctg11_55&lt;/b&gt;&lt;br&gt;Percentage identity: 46&lt;br&gt;Percentage coverage: 66&lt;br&gt;BLAST bit score: 2034&lt;br&gt;E-value: 0.0" locus_tag="Aave_3730" class="clusterblast-orf" id="dummy-1_h1_8_7"  />
</g>
<g id="a1_008"  >
<polygon points="446,90 484,90 489,85 484,80 446,80 446,90 " style="fill:white; stroke-width:1; stroke:black; " description="&lt;b&gt;Aave_3729&lt;/b&gt;&lt;br&gt;amino acid adenylation domain protein&lt;br&gt;Location: 13534 - 9428" locus_tag="Aave_3729" class="clusterblast-orf" id="dummy-1_h1_8_8"  />
</g>
<g id="a1_009"  >
<polygon points="489,85 494,80 512,80 512,90 494,90 489,85 " style="fill:white; stroke-width:1; stroke:black; " description="&lt;b&gt;Aave_3728&lt;/b&gt;&lt;br&gt;TonB-dependent siderophore receptor&lt;br&gt;Location: 9393 - 7192" locus_tag="Aave_3728" class="clusterblast-orf" id="dummy-1_h1_8_9"  />
</g>
<g id="a1_0010"  >
<polygon points="513,85 518,80 525,80 525,90 518,90 513,85 " style="fill:white; stroke-width:1; stroke:black; " description="&lt;b&gt;Aave_3727&lt;/b&gt;&lt;br&gt;conserved hypothetical protein&lt;br&gt;Location: 7080 - 5980" locus_tag="Aave_3727" class="clusterblast-orf" id="dummy-1_h1_8_10"  />
</g>
<g id="a1_0011"  >
<polygon points="525,85 530,80 535,80 535,90 530,90 525,85 " style="fill:#1531d8; stroke-width:1; stroke:black; " description="&lt;b&gt;Aave_3726&lt;/b&gt;&lt;br&gt;conserved hypothetical protein&lt;br&gt;Location: 5959 - 5018&lt;br&gt;&lt;br&gt;&lt;b&gt;BlastP hit with ctg11_52&lt;/b&gt;&lt;br&gt;Percentage identity: 62&lt;br&gt;Percentage coverage: 99&lt;br&gt;BLAST bit score: 343&lt;br&gt;E-value: 1.05e-118" locus_tag="Aave_3726" class="clusterblast-orf" id="dummy-1_h1_8_11"  />
</g>
<g id="a1_0012"  >
<polygon points="535,85 540,80 543,80 543,90 540,90 535,85 " style="fill:white; stroke-width:1; stroke:black; " description="&lt;b&gt;Aave_3725&lt;/b&gt;&lt;br&gt;ferric iron reductase protein FhuF&lt;br&gt;Location: 5011 - 4181" locus_tag="Aave_3725" class="clusterblast-orf" id="dummy-1_h1_8_12"  />
</g>
<g id="a1_0013"  >
<polygon points="545,90 558,90 563,85 558,80 545,80 545,90 " style="fill:#d815bc; stroke-width:1; stroke:black; " description="&lt;b&gt;Aave_3724&lt;/b&gt;&lt;br&gt;cyclic peptide transporter&lt;br&gt;Location: 3978 - 2284&lt;br&gt;&lt;br&gt;&lt;b&gt;BlastP hit with ctg11_53&lt;/b&gt;&lt;br&gt;Percentage identity: 54&lt;br&gt;Percentage coverage: 97&lt;br&gt;BLAST bit score: 551&lt;br&gt;E-value: 9.62e-193" locus_tag="Aave_3724" class="clusterblast-orf" id="dummy-1_h1_8_13"  />
</g>
<g id="a1_0014"  >
<polygon points="564,90 573,90 578,85 573,80 564,80 564,90 " style="fill:white; stroke-width:1; stroke:black; " description="&lt;b&gt;Aave_3723&lt;/b&gt;&lt;br&gt;L-lysine 6-monooxygenase (NADPH)&lt;br&gt;Location: 2217 - 859" locus_tag="Aave_3723" class="clusterblast-orf" id="dummy-1_h1_8_14"  />
</g>
<g id="a1_0015"  >
<polygon points="578,90 581,90 586,85 581,80 578,80 578,90 " style="fill:white; stroke-width:1; stroke:black; " description="&lt;b&gt;Aave_3722&lt;/b&gt;&lt;br&gt;4'-phosphopantetheinyl transferase&lt;br&gt;Location: 774 - 1" locus_tag="Aave_3722" class="clusterblast-orf" id="dummy-1_h1_8_15"  />
</g>
</svg>
