<svg xmlns="http://www.w3.org/2000/svg" xmlns:xlink="http://www.w3.org/1999/xlink" version="1.1" x="0" y="0" height="50" width="800" viewBox="0 0 800 50" preserveAspectRatio="none"  >
<g label="Query sequence" class="clusterblast-cluster"  >
<text x="5" y="20" class="clusterblast-acc"  >
Query sequence</text>
<line x1="10" y1="35" x2="778.0" y2="35" style="stroke-width:1; stroke:grey; "  />
<polygon points="0,40 16,40 21,35 16,30 0,30 0,40 " style="fill:white; stroke-width:1; stroke:black; " description="&lt;b&gt;ctg32_9&lt;/b&gt;&lt;br&gt;ctg32 9&lt;br&gt;Location: 11172 - 12564" locus_tag="ctg32_9" class="clusterblast-orf" id="subclusterblast-1_q0_0_all"  />
<polygon points="23,35 28,30 28,30 28,40 28,40 23,35 " style="fill:white; stroke-width:1; stroke:black; " description="&lt;b&gt;ctg32_10&lt;/b&gt;&lt;br&gt;ctg32 10&lt;br&gt;Location: 12696 - 13056" locus_tag="ctg32_10" class="clusterblast-orf" id="subclusterblast-1_q1_0_all"  />
<polygon points="30,35 35,30 42,30 42,40 35,40 30,35 " style="fill:white; stroke-width:1; stroke:black; " description="&lt;b&gt;ctg32_11&lt;/b&gt;&lt;br&gt;ctg32 11&lt;br&gt;Location: 13140 - 13938" locus_tag="ctg32_11" class="clusterblast-orf" id="subclusterblast-1_q2_0_all"  />
<polygon points="42,35 47,30 58,30 58,40 47,40 42,35 " style="fill:white; stroke-width:1; stroke:black; " description="&lt;b&gt;ctg32_12&lt;/b&gt;&lt;br&gt;ctg32 12&lt;br&gt;Location: 13953 - 14958" locus_tag="ctg32_12" class="clusterblast-orf" id="subclusterblast-1_q3_0_all"  />
<polygon points="59,40 68,40 73,35 68,30 59,30 59,40 " style="fill:white; stroke-width:1; stroke:black; " description="&lt;b&gt;ctg32_13&lt;/b&gt;&lt;br&gt;ctg32 13&lt;br&gt;Location: 15071 - 15965" locus_tag="ctg32_13" class="clusterblast-orf" id="subclusterblast-1_q4_0_all"  />
<polygon points="75,35 80,30 95,30 95,40 80,40 75,35 " style="fill:white; stroke-width:1; stroke:black; " description="&lt;b&gt;ctg32_14&lt;/b&gt;&lt;br&gt;ctg32 14&lt;br&gt;Location: 16083 - 17379" locus_tag="ctg32_14" class="clusterblast-orf" id="subclusterblast-1_q5_0_all"  />
<polygon points="95,35 100,30 111,30 111,40 100,40 95,35 " style="fill:white; stroke-width:1; stroke:black; " description="&lt;b&gt;ctg32_15&lt;/b&gt;&lt;br&gt;ctg32 15&lt;br&gt;Location: 17375 - 18464" locus_tag="ctg32_15" class="clusterblast-orf" id="subclusterblast-1_q6_0_all"  />
<polygon points="112,35 117,30 132,30 132,40 117,40 112,35 " style="fill:white; stroke-width:1; stroke:black; " description="&lt;b&gt;ctg32_16&lt;/b&gt;&lt;br&gt;ctg32 16&lt;br&gt;Location: 18486 - 19845" locus_tag="ctg32_16" class="clusterblast-orf" id="subclusterblast-1_q7_0_all"  />
<polygon points="136,40 143,40 148,35 143,30 136,30 136,40 " style="fill:white; stroke-width:1; stroke:black; " description="&lt;b&gt;ctg32_17&lt;/b&gt;&lt;br&gt;ctg32 17&lt;br&gt;Location: 20082 - 20880" locus_tag="ctg32_17" class="clusterblast-orf" id="subclusterblast-1_q8_0_all"  />
<polygon points="150,40 178,40 183,35 178,30 150,30 150,40 " style="fill:white; stroke-width:1; stroke:black; " description="&lt;b&gt;ctg32_18&lt;/b&gt;&lt;br&gt;ctg32 18&lt;br&gt;Location: 20985 - 23127" locus_tag="ctg32_18" class="clusterblast-orf" id="subclusterblast-1_q9_0_all"  />
<polygon points="183,35 188,30 200,30 200,40 188,40 183,35 " style="fill:white; stroke-width:1; stroke:black; " description="&lt;b&gt;ctg32_19&lt;/b&gt;&lt;br&gt;ctg32 19&lt;br&gt;Location: 23116 - 24247" locus_tag="ctg32_19" class="clusterblast-orf" id="subclusterblast-1_q10_0_all"  />
<polygon points="201,40 208,40 213,35 208,30 201,30 201,40 " style="fill:white; stroke-width:1; stroke:black; " description="&lt;b&gt;ctg32_20&lt;/b&gt;&lt;br&gt;ctg32 20&lt;br&gt;Location: 24345 - 25116" locus_tag="ctg32_20" class="clusterblast-orf" id="subclusterblast-1_q11_0_all"  />
<polygon points="214,35 219,30 222,30 222,40 219,40 214,35 " style="fill:white; stroke-width:1; stroke:black; " description="&lt;b&gt;ctg32_21&lt;/b&gt;&lt;br&gt;ctg32 21&lt;br&gt;Location: 25194 - 25665" locus_tag="ctg32_21" class="clusterblast-orf" id="subclusterblast-1_q12_0_all"  />
<polygon points="223,40 238,40 243,35 238,30 223,30 223,40 " style="fill:white; stroke-width:1; stroke:black; " description="&lt;b&gt;ctg32_22&lt;/b&gt;&lt;br&gt;ctg32 22&lt;br&gt;Location: 25788 - 27033" locus_tag="ctg32_22" class="clusterblast-orf" id="subclusterblast-1_q13_0_all"  />
<polygon points="246,40 251,40 256,35 251,30 246,30 246,40 " style="fill:white; stroke-width:1; stroke:black; " description="&lt;b&gt;ctg32_23&lt;/b&gt;&lt;br&gt;ctg32 23&lt;br&gt;Location: 27265 - 27943" locus_tag="ctg32_23" class="clusterblast-orf" id="subclusterblast-1_q14_0_all"  />
<polygon points="258,35 263,30 288,30 288,40 263,40 258,35 " style="fill:white; stroke-width:1; stroke:black; " description="&lt;b&gt;ctg32_24&lt;/b&gt;&lt;br&gt;ctg32 24&lt;br&gt;Location: 28070 - 30029" locus_tag="ctg32_24" class="clusterblast-orf" id="subclusterblast-1_q15_0_all"  />
<polygon points="288,35 293,30 306,30 306,40 293,40 288,35 " style="fill:white; stroke-width:1; stroke:black; " description="&lt;b&gt;ctg32_25&lt;/b&gt;&lt;br&gt;ctg32 25&lt;br&gt;Location: 30032 - 31175" locus_tag="ctg32_25" class="clusterblast-orf" id="subclusterblast-1_q16_0_all"  />
<polygon points="306,35 311,30 479,30 479,40 311,40 306,35 " style="fill:white; stroke-width:1; stroke:black; " description="&lt;b&gt;ctg32_26&lt;/b&gt;&lt;br&gt;ctg32 26&lt;br&gt;Location: 31171 - 42508" locus_tag="ctg32_26" class="clusterblast-orf" id="subclusterblast-1_q17_0_all"  />
<polygon points="479,35 484,30 677,30 677,40 484,40 479,35 " style="fill:white; stroke-width:1; stroke:black; " description="&lt;b&gt;ctg32_27&lt;/b&gt;&lt;br&gt;ctg32 27&lt;br&gt;Location: 42504 - 55416" locus_tag="ctg32_27" class="clusterblast-orf" id="subclusterblast-1_q18_0_all"  />
<polygon points="680,35 685,30 689,30 689,40 685,40 680,35 " style="fill:white; stroke-width:1; stroke:black; " description="&lt;b&gt;ctg32_28&lt;/b&gt;&lt;br&gt;ctg32 28&lt;br&gt;Location: 55625 - 56198" locus_tag="ctg32_28" class="clusterblast-orf" id="subclusterblast-1_q19_0_all"  />
<polygon points="690,35 695,30 706,30 706,40 695,40 690,35 " style="fill:white; stroke-width:1; stroke:black; " description="&lt;b&gt;ctg32_29&lt;/b&gt;&lt;br&gt;ctg32 29&lt;br&gt;Location: 56290 - 57289" locus_tag="ctg32_29" class="clusterblast-orf" id="subclusterblast-1_q20_0_all"  />
<polygon points="706,35 711,30 763,30 763,40 711,40 706,35 " style="fill:white; stroke-width:1; stroke:black; " description="&lt;b&gt;ctg32_30&lt;/b&gt;&lt;br&gt;ctg32 30&lt;br&gt;Location: 57288 - 61050" locus_tag="ctg32_30" class="clusterblast-orf" id="subclusterblast-1_q21_0_all"  />
<polygon points="763,35 768,30 780,30 780,40 768,40 763,35 " style="fill:white; stroke-width:1; stroke:black; " description="&lt;b&gt;ctg32_31&lt;/b&gt;&lt;br&gt;ctg32 31&lt;br&gt;Location: 61053 - 62115" locus_tag="ctg32_31" class="clusterblast-orf" id="subclusterblast-1_q22_0_all"  />
</g>
</svg>
