<svg xmlns="http://www.w3.org/2000/svg" xmlns:xlink="http://www.w3.org/1999/xlink" version="1.1" x="0" y="0" height="230" width="800" viewBox="0 0 800 230" preserveAspectRatio="none"  >
<g label="Query sequence" class="clusterblast-cluster"  >
<text x="5" y="20" class="clusterblast-acc"  >
Query sequence</text>
<line x1="10" y1="35" x2="778.0" y2="35" style="stroke-width:1; stroke:grey; "  />
<polygon points="46,40 48,40 53,35 48,30 46,30 46,40 " style="fill:#d81515; stroke-width:1; stroke:black; " description="&lt;b&gt;ctg28_1&lt;/b&gt;&lt;br&gt;ctg28 1&lt;br&gt;Location: 521 - 1106" locus_tag="ctg28_1" class="clusterblast-orf" id="dummy-1_q0_0_all"  />
<polygon points="55,35 60,30 65,30 65,40 60,40 55,35 " style="fill:#60d815; stroke-width:1; stroke:black; " description="&lt;b&gt;ctg28_2&lt;/b&gt;&lt;br&gt;ctg28 2&lt;br&gt;Location: 1309 - 2056" locus_tag="ctg28_2" class="clusterblast-orf" id="dummy-1_q1_0_all"  />
<polygon points="66,35 70,30 70,40 66,35 " style="fill:#15abd8; stroke-width:1; stroke:black; " description="&lt;b&gt;ctg28_3&lt;/b&gt;&lt;br&gt;ctg28 3&lt;br&gt;Location: 2126 - 2519" locus_tag="ctg28_3" class="clusterblast-orf" id="dummy-1_q2_0_all"  />
<polygon points="70,35 75,30 79,30 79,40 75,40 70,35 " style="fill:#8d15d8; stroke-width:1; stroke:black; " description="&lt;b&gt;ctg28_4&lt;/b&gt;&lt;br&gt;ctg28 4&lt;br&gt;Location: 2515 - 3220" locus_tag="ctg28_4" class="clusterblast-orf" id="dummy-1_q3_0_all"  />
<polygon points="79,35 82,30 82,40 79,35 " style="fill:#d84215; stroke-width:1; stroke:black; " description="&lt;b&gt;ctg28_5&lt;/b&gt;&lt;br&gt;ctg28 5&lt;br&gt;Location: 3231 - 3420" locus_tag="ctg28_5" class="clusterblast-orf" id="dummy-1_q4_0_all"  />
<polygon points="99,40 107,40 112,35 107,30 99,30 99,40 " style="fill:#33d815; stroke-width:1; stroke:black; " description="&lt;b&gt;ctg28_6&lt;/b&gt;&lt;br&gt;ctg28 6&lt;br&gt;Location: 4803 - 5865" locus_tag="ctg28_6" class="clusterblast-orf" id="dummy-1_q5_0_all"  />
<polygon points="112,40 154,40 159,35 154,30 112,30 112,40 " style="fill:#157ed8; stroke-width:1; stroke:black; " description="&lt;b&gt;ctg28_7&lt;/b&gt;&lt;br&gt;ctg28 7&lt;br&gt;Location: 5868 - 9630" locus_tag="ctg28_7" class="clusterblast-orf" id="dummy-1_q6_0_all"  />
<polygon points="159,40 167,40 172,35 167,30 159,30 159,40 " style="fill:#157ed8; stroke-width:1; stroke:black; " description="&lt;b&gt;ctg28_8&lt;/b&gt;&lt;br&gt;ctg28 8&lt;br&gt;Location: 9629 - 10628" locus_tag="ctg28_8" class="clusterblast-orf" id="dummy-1_q7_0_all"  />
<polygon points="173,40 175,40 180,35 175,30 173,30 173,40 " style="fill:#ba15d8; stroke-width:1; stroke:black; " description="&lt;b&gt;ctg28_9&lt;/b&gt;&lt;br&gt;ctg28 9&lt;br&gt;Location: 10747 - 11293" locus_tag="ctg28_9" class="clusterblast-orf" id="dummy-1_q8_0_all"  />
<polygon points="183,40 339,40 344,35 339,30 183,30 183,40 " style="fill:#d86f15; stroke-width:1; stroke:black; " description="&lt;b&gt;ctg28_10&lt;/b&gt;&lt;br&gt;ctg28 10&lt;br&gt;Location: 11502 - 24414" locus_tag="ctg28_10" class="clusterblast-orf" id="dummy-1_q9_0_all"  />
<polygon points="344,40 480,40 485,35 480,30 344,30 344,40 " style="fill:#d86f15; stroke-width:1; stroke:black; " description="&lt;b&gt;ctg28_11&lt;/b&gt;&lt;br&gt;ctg28 11&lt;br&gt;Location: 24410 - 35747" locus_tag="ctg28_11" class="clusterblast-orf" id="dummy-1_q10_0_all"  />
<polygon points="485,40 494,40 499,35 494,30 485,30 485,40 " style="fill:#15d824; stroke-width:1; stroke:black; " description="&lt;b&gt;ctg28_12&lt;/b&gt;&lt;br&gt;ctg28 12&lt;br&gt;Location: 35743 - 36886" locus_tag="ctg28_12" class="clusterblast-orf" id="dummy-1_q11_0_all"  />
<polygon points="499,40 519,40 524,35 519,30 499,30 499,40 " style="fill:#1551d8; stroke-width:1; stroke:black; " description="&lt;b&gt;ctg28_13&lt;/b&gt;&lt;br&gt;ctg28 13&lt;br&gt;Location: 36889 - 38848" locus_tag="ctg28_13" class="clusterblast-orf" id="dummy-1_q12_0_all"  />
<polygon points="525,35 530,30 534,30 534,40 530,40 525,35 " style="fill:#d815c9; stroke-width:1; stroke:black; " description="&lt;b&gt;ctg28_14&lt;/b&gt;&lt;br&gt;ctg28 14&lt;br&gt;Location: 38975 - 39653" locus_tag="ctg28_14" class="clusterblast-orf" id="dummy-1_q13_0_all"  />
<polygon points="537,35 542,30 552,30 552,40 542,40 537,35 " style="fill:#d89c15; stroke-width:1; stroke:black; " description="&lt;b&gt;ctg28_15&lt;/b&gt;&lt;br&gt;ctg28 15&lt;br&gt;Location: 39885 - 41130" locus_tag="ctg28_15" class="clusterblast-orf" id="dummy-1_q14_0_all"  />
<polygon points="554,40 555,40 560,35 555,30 554,30 554,40 " style="fill:#15d851; stroke-width:1; stroke:black; " description="&lt;b&gt;ctg28_16&lt;/b&gt;&lt;br&gt;ctg28 16&lt;br&gt;Location: 41253 - 41724" locus_tag="ctg28_16" class="clusterblast-orf" id="dummy-1_q15_0_all"  />
<polygon points="560,35 565,30 587,30 587,40 565,40 560,35 " style="fill:#1524d8; stroke-width:1; stroke:black; " description="&lt;b&gt;ctg28_17&lt;/b&gt;&lt;br&gt;ctg28 17&lt;br&gt;Location: 41769 - 43911" locus_tag="ctg28_17" class="clusterblast-orf" id="dummy-1_q16_0_all"  />
<polygon points="588,35 593,30 598,30 598,40 593,40 588,35 " style="fill:#d8159c; stroke-width:1; stroke:black; " description="&lt;b&gt;ctg28_18&lt;/b&gt;&lt;br&gt;ctg28 18&lt;br&gt;Location: 44016 - 44814" locus_tag="ctg28_18" class="clusterblast-orf" id="dummy-1_q17_0_all"  />
<polygon points="601,40 613,40 618,35 613,30 601,30 601,40 " style="fill:#d8c915; stroke-width:1; stroke:black; " description="&lt;b&gt;ctg28_19&lt;/b&gt;&lt;br&gt;ctg28 19&lt;br&gt;Location: 45051 - 46410" locus_tag="ctg28_19" class="clusterblast-orf" id="dummy-1_q18_0_all"  />
<polygon points="618,40 627,40 632,35 627,30 618,30 618,40 " style="fill:#15d87e; stroke-width:1; stroke:black; " description="&lt;b&gt;ctg28_20&lt;/b&gt;&lt;br&gt;ctg28 20&lt;br&gt;Location: 46432 - 47521" locus_tag="ctg28_20" class="clusterblast-orf" id="dummy-1_q19_0_all"  />
<polygon points="632,40 643,40 648,35 643,30 632,30 632,40 " style="fill:#3315d8; stroke-width:1; stroke:black; " description="&lt;b&gt;ctg28_21&lt;/b&gt;&lt;br&gt;ctg28 21&lt;br&gt;Location: 47517 - 48813" locus_tag="ctg28_21" class="clusterblast-orf" id="dummy-1_q20_0_all"  />
<polygon points="649,35 654,30 660,30 660,40 654,40 649,35 " style="fill:#d8156f; stroke-width:1; stroke:black; " description="&lt;b&gt;ctg28_22&lt;/b&gt;&lt;br&gt;ctg28 22&lt;br&gt;Location: 48925 - 49819" locus_tag="ctg28_22" class="clusterblast-orf" id="dummy-1_q21_0_all"  />
<polygon points="662,40 669,40 674,35 669,30 662,30 662,40 " style="fill:#bad815; stroke-width:1; stroke:black; " description="&lt;b&gt;ctg28_23&lt;/b&gt;&lt;br&gt;ctg28 23&lt;br&gt;Location: 49932 - 50937" locus_tag="ctg28_23" class="clusterblast-orf" id="dummy-1_q22_0_all"  />
<polygon points="675,40 680,40 685,35 680,30 675,30 675,40 " style="fill:#15d8ab; stroke-width:1; stroke:black; " description="&lt;b&gt;ctg28_24&lt;/b&gt;&lt;br&gt;ctg28 24&lt;br&gt;Location: 50952 - 51750" locus_tag="ctg28_24" class="clusterblast-orf" id="dummy-1_q23_0_all"  />
<polygon points="685,40 685,40 690,35 685,30 685,30 685,40 " style="fill:#6015d8; stroke-width:1; stroke:black; " description="&lt;b&gt;ctg28_25&lt;/b&gt;&lt;br&gt;ctg28 25&lt;br&gt;Location: 51777 - 52188" locus_tag="ctg28_25" class="clusterblast-orf" id="dummy-1_q24_0_all"  />
<polygon points="692,35 697,30 709,30 709,40 697,40 692,35 " style="fill:#d81542; stroke-width:1; stroke:black; " description="&lt;b&gt;ctg28_26&lt;/b&gt;&lt;br&gt;ctg28 26&lt;br&gt;Location: 52315 - 53710" locus_tag="ctg28_26" class="clusterblast-orf" id="dummy-1_q25_0_all"  />
<polygon points="709,35 714,30 717,30 717,40 714,40 709,35 " style="fill:#8dd815; stroke-width:1; stroke:black; " description="&lt;b&gt;ctg28_27&lt;/b&gt;&lt;br&gt;ctg28 27&lt;br&gt;Location: 53687 - 54371" locus_tag="ctg28_27" class="clusterblast-orf" id="dummy-1_q26_0_all"  />
<polygon points="722,40 729,40 734,35 729,30 722,30 722,40 " style="fill:#15d8d8; stroke-width:1; stroke:black; " description="&lt;b&gt;ctg28_28&lt;/b&gt;&lt;br&gt;ctg28 28&lt;br&gt;Location: 54781 - 55687" locus_tag="ctg28_28" class="clusterblast-orf" id="dummy-1_q27_0_all"  />
</g>
<g label="NZ_LT629704" description="NZ_LT629704 (3510772-3573303): Pseudomonas antarctica strain LMG 22709 chromo... (76% of genes show similarity), NRPS" class="clusterblast-cluster"  >
<text x="5" y="70" class="clusterblast-acc"  >
<a xlink:href="https://antismash-db.secondarymetabolites.org/area.html?record=NZ_LT629704&amp;start=3510772&amp;end=3573303" target="_blank">NZ_LT629704 (3510772-3573303)</a>: Pseudomonas antarctica strain LMG 22709 chromo... (76% of genes show similarity), NRPS</text>
<line x1="10" y1="85" x2="778.0" y2="85" style="stroke-width:1; stroke:grey; "  />
</g>
<g id="a1_000"  >
<polygon points="0,85 5,80 46,80 46,90 5,90 0,85 " style="fill:white; stroke-width:1; stroke:black; " description="&lt;b&gt;BLQ27_RS16045&lt;/b&gt;&lt;br&gt;methionine synthase&lt;br&gt;Location: 3510773 - 3514483" locus_tag="BLQ27_RS16045" class="clusterblast-orf" id="dummy-1_h1_7_0"  />
</g>
<g id="a1_001"  >
<polygon points="48,90 72,90 77,85 72,80 48,80 48,90 " style="fill:white; stroke-width:1; stroke:black; " description="&lt;b&gt;BLQ27_RS16050&lt;/b&gt;&lt;br&gt;fatty acid cis/trans isomerase&lt;br&gt;Location: 3514650 - 3516956" locus_tag="BLQ27_RS16050" class="clusterblast-orf" id="dummy-1_h1_7_1"  />
</g>
<g id="a1_002"  >
<polygon points="78,90 86,90 91,85 86,80 78,80 78,90 " style="fill:white; stroke-width:1; stroke:black; " description="&lt;b&gt;BLQ27_RS16055&lt;/b&gt;&lt;br&gt;acyltransferase&lt;br&gt;Location: 3517044 - 3518069" locus_tag="BLQ27_RS16055" class="clusterblast-orf" id="dummy-1_h1_7_2"  />
</g>
<g id="a1_003"  >
<polygon points="91,90 94,90 99,85 94,80 91,80 91,90 " style="fill:#d81515; stroke-width:1; stroke:black; " description="&lt;b&gt;BLQ27_RS16060&lt;/b&gt;&lt;br&gt;Fe-S biogenesis protein NfuA&lt;br&gt;Location: 3518128 - 3518712&lt;br&gt;&lt;br&gt;&lt;b&gt;BlastP hit with ctg28_1&lt;/b&gt;&lt;br&gt;Percentage identity: 100&lt;br&gt;Percentage coverage: 100&lt;br&gt;BLAST bit score: 394&lt;br&gt;E-value: 2.68e-140" locus_tag="BLQ27_RS16060" class="clusterblast-orf" id="dummy-1_h1_7_3"  />
</g>
<g id="a1_004"  >
<polygon points="100,85 105,80 110,80 110,90 105,90 100,85 " style="fill:#60d815; stroke-width:1; stroke:black; " description="&lt;b&gt;BLQ27_RS16065&lt;/b&gt;&lt;br&gt;precorrin-4 C(11)-methyltransferase&lt;br&gt;Location: 3518856 - 3519602&lt;br&gt;&lt;br&gt;&lt;b&gt;BlastP hit with ctg28_2&lt;/b&gt;&lt;br&gt;Percentage identity: 95&lt;br&gt;Percentage coverage: 100&lt;br&gt;BLAST bit score: 473&lt;br&gt;E-value: 4.65e-170" locus_tag="BLQ27_RS16065" class="clusterblast-orf" id="dummy-1_h1_7_4"  />
</g>
<g id="a1_005"  >
<polygon points="111,85 115,80 115,90 111,85 " style="fill:#15abd8; stroke-width:1; stroke:black; " description="&lt;b&gt;BLQ27_RS16070&lt;/b&gt;&lt;br&gt;cobalamin biosynthesis protein&lt;br&gt;Location: 3519672 - 3520064&lt;br&gt;&lt;br&gt;&lt;b&gt;BlastP hit with ctg28_3&lt;/b&gt;&lt;br&gt;Percentage identity: 86&lt;br&gt;Percentage coverage: 98&lt;br&gt;BLAST bit score: 211&lt;br&gt;E-value: 4.1e-70" locus_tag="BLQ27_RS16070" class="clusterblast-orf" id="dummy-1_h1_7_5"  />
</g>
<g id="a1_006"  >
<polygon points="115,85 120,80 124,80 124,90 120,90 115,85 " style="fill:#8d15d8; stroke-width:1; stroke:black; " description="&lt;b&gt;BLQ27_RS16075&lt;/b&gt;&lt;br&gt;CbtA family protein&lt;br&gt;Location: 3520061 - 3520768&lt;br&gt;&lt;br&gt;&lt;b&gt;BlastP hit with ctg28_4&lt;/b&gt;&lt;br&gt;Percentage identity: 93&lt;br&gt;Percentage coverage: 100&lt;br&gt;BLAST bit score: 420&lt;br&gt;E-value: 2.54e-149" locus_tag="BLQ27_RS16075" class="clusterblast-orf" id="dummy-1_h1_7_6"  />
</g>
<g id="a1_007"  >
<polygon points="124,85 127,80 127,90 124,85 " style="fill:#d84215; stroke-width:1; stroke:black; " description="&lt;b&gt;BLQ27_RS16080&lt;/b&gt;&lt;br&gt;CbtB-domain containing protein&lt;br&gt;Location: 3520780 - 3520968&lt;br&gt;&lt;br&gt;&lt;b&gt;BlastP hit with ctg28_5&lt;/b&gt;&lt;br&gt;Percentage identity: 95&lt;br&gt;Percentage coverage: 100&lt;br&gt;BLAST bit score: 112&lt;br&gt;E-value: 3.55e-33" locus_tag="BLQ27_RS16080" class="clusterblast-orf" id="dummy-1_h1_7_7"  />
</g>
<g id="a1_008"  >
<polygon points="148,90 157,90 162,85 157,80 148,80 148,90 " style="fill:#33d815; stroke-width:1; stroke:black; " description="&lt;b&gt;BLQ27_RS16090&lt;/b&gt;&lt;br&gt;cobalamin biosynthesis protein CobW&lt;br&gt;Location: 3522699 - 3523766&lt;br&gt;&lt;br&gt;&lt;b&gt;BlastP hit with ctg28_6&lt;/b&gt;&lt;br&gt;Percentage identity: 98&lt;br&gt;Percentage coverage: 101&lt;br&gt;BLAST bit score: 638&lt;br&gt;E-value: 1.38e-231" locus_tag="BLQ27_RS16090" class="clusterblast-orf" id="dummy-1_h1_7_8"  />
</g>
<g id="a1_009"  >
<polygon points="162,90 204,90 209,85 204,80 162,80 162,90 " style="fill:#157ed8; stroke-width:1; stroke:black; " description="&lt;b&gt;BLQ27_RS16095&lt;/b&gt;&lt;br&gt;cobaltochelatase subunit CobN&lt;br&gt;Location: 3523770 - 3527531&lt;br&gt;&lt;br&gt;&lt;b&gt;BlastP hit with ctg28_7&lt;/b&gt;&lt;br&gt;Percentage identity: 96&lt;br&gt;Percentage coverage: 100&lt;br&gt;BLAST bit score: 2441&lt;br&gt;E-value: 0.0" locus_tag="BLQ27_RS16095" class="clusterblast-orf" id="dummy-1_h1_7_9"  />
</g>
<g id="a1_0010"  >
<polygon points="210,90 217,90 222,85 217,80 210,80 210,90 " style="fill:#157ed8; stroke-width:1; stroke:black; " description="&lt;b&gt;BLQ27_RS16100&lt;/b&gt;&lt;br&gt;AAA family ATPase&lt;br&gt;Location: 3527638 - 3528642&lt;br&gt;&lt;br&gt;&lt;b&gt;BlastP hit with ctg28_8&lt;/b&gt;&lt;br&gt;Percentage identity: 92&lt;br&gt;Percentage coverage: 101&lt;br&gt;BLAST bit score: 593&lt;br&gt;E-value: 1.29e-214" locus_tag="BLQ27_RS16100" class="clusterblast-orf" id="dummy-1_h1_7_10"  />
</g>
<g id="a1_0011"  >
<polygon points="223,90 226,90 231,85 226,80 223,80 223,90 " style="fill:#ba15d8; stroke-width:1; stroke:black; " description="&lt;b&gt;BLQ27_RS16105&lt;/b&gt;&lt;br&gt;VWA domain-containing protein&lt;br&gt;Location: 3528696 - 3529298&lt;br&gt;&lt;br&gt;&lt;b&gt;BlastP hit with ctg28_9&lt;/b&gt;&lt;br&gt;Percentage identity: 88&lt;br&gt;Percentage coverage: 98&lt;br&gt;BLAST bit score: 307&lt;br&gt;E-value: 2.73e-106" locus_tag="BLQ27_RS16105" class="clusterblast-orf" id="dummy-1_h1_7_11"  />
</g>
<g id="a1_0012"  >
<polygon points="233,90 389,90 394,85 389,80 233,80 233,90 " style="fill:#d86f15; stroke-width:1; stroke:black; " description="&lt;b&gt;BLQ27_RS16110&lt;/b&gt;&lt;br&gt;non-ribosomal peptide synthetase&lt;br&gt;Location: 3529515 - 3542420&lt;br&gt;&lt;br&gt;&lt;b&gt;BlastP hit with ctg28_10&lt;/b&gt;&lt;br&gt;Percentage identity: 91&lt;br&gt;Percentage coverage: 100&lt;br&gt;BLAST bit score: 7774&lt;br&gt;E-value: 0.0&lt;br&gt;&lt;br&gt;&lt;b&gt;BlastP hit with ctg28_11&lt;/b&gt;&lt;br&gt;Percentage identity: 60&lt;br&gt;Percentage coverage: 57&lt;br&gt;BLAST bit score: 2397&lt;br&gt;E-value: 0.0" locus_tag="BLQ27_RS16110" class="clusterblast-orf" id="dummy-1_h1_7_12"  />
</g>
<g id="a1_0013"  >
<polygon points="394,90 530,90 535,85 530,80 394,80 394,90 " style="fill:#d86f15; stroke-width:1; stroke:black; " description="&lt;b&gt;BLQ27_RS16115&lt;/b&gt;&lt;br&gt;amino acid adenylation domain-containing protein&lt;br&gt;Location: 3542417 - 3553741&lt;br&gt;&lt;br&gt;&lt;b&gt;BlastP hit with ctg28_10&lt;/b&gt;&lt;br&gt;Percentage identity: 61&lt;br&gt;Percentage coverage: 50&lt;br&gt;BLAST bit score: 2399&lt;br&gt;E-value: 0.0&lt;br&gt;&lt;br&gt;&lt;b&gt;BlastP hit with ctg28_11&lt;/b&gt;&lt;br&gt;Percentage identity: 90&lt;br&gt;Percentage coverage: 100&lt;br&gt;BLAST bit score: 6763&lt;br&gt;E-value: 0.0" locus_tag="BLQ27_RS16115" class="clusterblast-orf" id="dummy-1_h1_7_13"  />
</g>
<g id="a1_0014"  >
<polygon points="540,90 550,90 555,85 550,80 540,80 540,90 " style="fill:#15d824; stroke-width:1; stroke:black; " description="&lt;b&gt;BLQ27_RS16120&lt;/b&gt;&lt;br&gt;macrolide transporter subunit MacA&lt;br&gt;Location: 3554117 - 3555268&lt;br&gt;&lt;br&gt;&lt;b&gt;BlastP hit with ctg28_12&lt;/b&gt;&lt;br&gt;Percentage identity: 95&lt;br&gt;Percentage coverage: 99&lt;br&gt;BLAST bit score: 669&lt;br&gt;E-value: 3.69e-243" locus_tag="BLQ27_RS16120" class="clusterblast-orf" id="dummy-1_h1_7_14"  />
</g>
<g id="a1_0015"  >
<polygon points="555,90 574,90 579,85 574,80 555,80 555,90 " style="fill:#1551d8; stroke-width:1; stroke:black; " description="&lt;b&gt;BLQ27_RS16125&lt;/b&gt;&lt;br&gt;MacB family efflux pump subunit&lt;br&gt;Location: 3555273 - 3557231&lt;br&gt;&lt;br&gt;&lt;b&gt;BlastP hit with ctg28_13&lt;/b&gt;&lt;br&gt;Percentage identity: 98&lt;br&gt;Percentage coverage: 100&lt;br&gt;BLAST bit score: 1217&lt;br&gt;E-value: 0.0" locus_tag="BLQ27_RS16125" class="clusterblast-orf" id="dummy-1_h1_7_15"  />
</g>
<g id="a1_0016"  >
<polygon points="581,85 586,80 589,80 589,90 586,90 581,85 " style="fill:#d815c9; stroke-width:1; stroke:black; " description="&lt;b&gt;BLQ27_RS16130&lt;/b&gt;&lt;br&gt;helix-turn-helix transcriptional regulator&lt;br&gt;Location: 3557368 - 3558045&lt;br&gt;&lt;br&gt;&lt;b&gt;BlastP hit with ctg28_14&lt;/b&gt;&lt;br&gt;Percentage identity: 90&lt;br&gt;Percentage coverage: 100&lt;br&gt;BLAST bit score: 389&lt;br&gt;E-value: 1.35e-137" locus_tag="BLQ27_RS16130" class="clusterblast-orf" id="dummy-1_h1_7_16"  />
</g>
<g id="a1_0017"  >
<polygon points="592,85 597,80 608,80 608,90 597,90 592,85 " style="fill:#d89c15; stroke-width:1; stroke:black; " description="&lt;b&gt;BLQ27_RS16135&lt;/b&gt;&lt;br&gt;methionine gamma-lyase&lt;br&gt;Location: 3558286 - 3559521&lt;br&gt;&lt;br&gt;&lt;b&gt;BlastP hit with ctg28_15&lt;/b&gt;&lt;br&gt;Percentage identity: 96&lt;br&gt;Percentage coverage: 99&lt;br&gt;BLAST bit score: 790&lt;br&gt;E-value: 5.87e-290" locus_tag="BLQ27_RS16135" class="clusterblast-orf" id="dummy-1_h1_7_17"  />
</g>
<g id="a1_0018"  >
<polygon points="609,90 610,90 615,85 610,80 609,80 609,90 " style="fill:#15d851; stroke-width:1; stroke:black; " description="&lt;b&gt;BLQ27_RS16140&lt;/b&gt;&lt;br&gt;Lrp/AsnC family transcriptional regulator&lt;br&gt;Location: 3559645 - 3560115&lt;br&gt;&lt;br&gt;&lt;b&gt;BlastP hit with ctg28_16&lt;/b&gt;&lt;br&gt;Percentage identity: 96&lt;br&gt;Percentage coverage: 100&lt;br&gt;BLAST bit score: 299&lt;br&gt;E-value: 3.43e-104" locus_tag="BLQ27_RS16140" class="clusterblast-orf" id="dummy-1_h1_7_18"  />
</g>
<g id="a1_0019"  >
<polygon points="617,90 617,90 622,85 617,80 617,80 617,90 " style="fill:white; stroke-width:1; stroke:black; " description="&lt;b&gt;BLQ27_RS16145&lt;/b&gt;&lt;br&gt;carboxymuconolactone decarboxylase family protein&lt;br&gt;Location: 3560264 - 3560701" locus_tag="BLQ27_RS16145" class="clusterblast-orf" id="dummy-1_h1_7_19"  />
</g>
<g id="a1_0020"  >
<polygon points="622,85 627,80 632,80 632,90 627,90 622,85 " style="fill:white; stroke-width:1; stroke:black; " description="&lt;b&gt;BLQ27_RS16150&lt;/b&gt;&lt;br&gt;helix-turn-helix transcriptional regulator&lt;br&gt;Location: 3560706 - 3561476" locus_tag="BLQ27_RS16150" class="clusterblast-orf" id="dummy-1_h1_7_20"  />
</g>
<g id="a1_0021"  >
<polygon points="633,90 642,90 647,85 642,80 633,80 633,90 " style="fill:white; stroke-width:1; stroke:black; " description="&lt;b&gt;BLQ27_RS16155&lt;/b&gt;&lt;br&gt;MFS transporter&lt;br&gt;Location: 3561575 - 3562705" locus_tag="BLQ27_RS16155" class="clusterblast-orf" id="dummy-1_h1_7_21"  />
</g>
<g id="a1_0022"  >
<polygon points="647,85 652,80 674,80 674,90 652,90 647,85 " style="fill:#1524d8; stroke-width:1; stroke:black; " description="&lt;b&gt;BLQ27_RS16160&lt;/b&gt;&lt;br&gt;TonB-dependent siderophore receptor&lt;br&gt;Location: 3562695 - 3564842&lt;br&gt;&lt;br&gt;&lt;b&gt;BlastP hit with ctg28_17&lt;/b&gt;&lt;br&gt;Percentage identity: 92&lt;br&gt;Percentage coverage: 100&lt;br&gt;BLAST bit score: 1315&lt;br&gt;E-value: 0.0" locus_tag="BLQ27_RS16160" class="clusterblast-orf" id="dummy-1_h1_7_22"  />
</g>
<g id="a1_0023"  >
<polygon points="675,85 680,80 687,80 687,90 680,90 675,85 " style="fill:white; stroke-width:1; stroke:black; " description="&lt;b&gt;BLQ27_RS16165&lt;/b&gt;&lt;br&gt;IS110 family transposase&lt;br&gt;Location: 3564954 - 3565916" locus_tag="BLQ27_RS16165" class="clusterblast-orf" id="dummy-1_h1_7_23"  />
</g>
<g id="a1_0024"  >
<polygon points="694,85 699,80 705,80 705,90 699,90 694,85 " style="fill:#d8159c; stroke-width:1; stroke:black; " description="&lt;b&gt;BLQ27_RS16170&lt;/b&gt;&lt;br&gt;helix-turn-helix domain-containing protein&lt;br&gt;Location: 3566450 - 3567346&lt;br&gt;&lt;br&gt;&lt;b&gt;BlastP hit with ctg28_18&lt;/b&gt;&lt;br&gt;Percentage identity: 95&lt;br&gt;Percentage coverage: 99&lt;br&gt;BLAST bit score: 512&lt;br&gt;E-value: 3.29e-184" locus_tag="BLQ27_RS16170" class="clusterblast-orf" id="dummy-1_h1_7_24"  />
</g>
<g id="a1_0025"  >
<polygon points="707,90 718,90 723,85 718,80 707,80 707,90 " style="fill:#d8c915; stroke-width:1; stroke:black; " description="&lt;b&gt;BLQ27_RS16175&lt;/b&gt;&lt;br&gt;glutamine synthetase&lt;br&gt;Location: 3567485 - 3568773&lt;br&gt;&lt;br&gt;&lt;b&gt;BlastP hit with ctg28_19&lt;/b&gt;&lt;br&gt;Percentage identity: 93&lt;br&gt;Percentage coverage: 34&lt;br&gt;BLAST bit score: 306&lt;br&gt;E-value: 6.53e-102" locus_tag="BLQ27_RS16175" class="clusterblast-orf" id="dummy-1_h1_7_25"  />
</g>
<g id="a1_0026"  >
<polygon points="723,90 732,90 737,85 732,80 723,80 723,90 " style="fill:#15d87e; stroke-width:1; stroke:black; " description="&lt;b&gt;BLQ27_RS16180&lt;/b&gt;&lt;br&gt;polyamine ABC transporter substrate-binding protein&lt;br&gt;Location: 3568795 - 3569883&lt;br&gt;&lt;br&gt;&lt;b&gt;BlastP hit with ctg28_20&lt;/b&gt;&lt;br&gt;Percentage identity: 96&lt;br&gt;Percentage coverage: 100&lt;br&gt;BLAST bit score: 701&lt;br&gt;E-value: 2.61e-256" locus_tag="BLQ27_RS16180" class="clusterblast-orf" id="dummy-1_h1_7_26"  />
</g>
<g id="a1_0027"  >
<polygon points="737,90 748,90 753,85 748,80 737,80 737,90 " style="fill:#3315d8; stroke-width:1; stroke:black; " description="&lt;b&gt;BLQ27_RS16185&lt;/b&gt;&lt;br&gt;FAD-binding oxidoreductase&lt;br&gt;Location: 3569880 - 3571175&lt;br&gt;&lt;br&gt;&lt;b&gt;BlastP hit with ctg28_21&lt;/b&gt;&lt;br&gt;Percentage identity: 93&lt;br&gt;Percentage coverage: 100&lt;br&gt;BLAST bit score: 814&lt;br&gt;E-value: 8.82e-299" locus_tag="BLQ27_RS16185" class="clusterblast-orf" id="dummy-1_h1_7_27"  />
</g>
<g id="a1_0028"  >
<polygon points="755,90 755,90 760,85 755,80 755,80 755,90 " style="fill:#6015d8; stroke-width:1; stroke:black; " description="&lt;b&gt;BLQ27_RS16190&lt;/b&gt;&lt;br&gt;SRPBCC family protein&lt;br&gt;Location: 3571353 - 3571769&lt;br&gt;&lt;br&gt;&lt;b&gt;BlastP hit with ctg28_25&lt;/b&gt;&lt;br&gt;Percentage identity: 93&lt;br&gt;Percentage coverage: 99&lt;br&gt;BLAST bit score: 248&lt;br&gt;E-value: 1.57e-84" locus_tag="BLQ27_RS16190" class="clusterblast-orf" id="dummy-1_h1_7_28"  />
</g>
<g id="a1_0029"  >
<polygon points="762,85 767,80 780,80 780,90 767,90 762,85 " style="fill:#d81542; stroke-width:1; stroke:black; " description="&lt;b&gt;BLQ27_RS16195&lt;/b&gt;&lt;br&gt;HAMP domain-containing histidine kinase&lt;br&gt;Location: 3571909 - 3573303&lt;br&gt;&lt;br&gt;&lt;b&gt;BlastP hit with ctg28_26&lt;/b&gt;&lt;br&gt;Percentage identity: 96&lt;br&gt;Percentage coverage: 100&lt;br&gt;BLAST bit score: 885&lt;br&gt;E-value: 0.0" locus_tag="BLQ27_RS16195" class="clusterblast-orf" id="dummy-1_h1_7_29"  />
</g>
</svg>
