<svg xmlns="http://www.w3.org/2000/svg" xmlns:xlink="http://www.w3.org/1999/xlink" version="1.1" x="0" y="0" height="230" width="800" viewBox="0 0 800 230" preserveAspectRatio="none"  >
<g label="Query sequence" class="clusterblast-cluster"  >
<text x="5" y="20" class="clusterblast-acc"  >
Query sequence</text>
<line x1="10" y1="35" x2="778.0" y2="35" style="stroke-width:1; stroke:grey; "  />
<polygon points="203,40 211,40 216,35 211,30 203,30 203,40 " style="fill:#d81515; stroke-width:1; stroke:black; " description="&lt;b&gt;ctg39_10&lt;/b&gt;&lt;br&gt;ctg39 10&lt;br&gt;Location: 9963 - 10647" locus_tag="ctg39_10" class="clusterblast-orf" id="dummy-1_q0_0_all"  />
<polygon points="216,40 221,40 226,35 221,30 216,30 216,40 " style="fill:#63d815; stroke-width:1; stroke:black; " description="&lt;b&gt;ctg39_11&lt;/b&gt;&lt;br&gt;ctg39 11&lt;br&gt;Location: 10643 - 11195" locus_tag="ctg39_11" class="clusterblast-orf" id="dummy-1_q1_0_all"  />
<polygon points="226,40 239,40 244,35 239,30 226,30 226,40 " style="fill:#15b1d8; stroke-width:1; stroke:black; " description="&lt;b&gt;ctg39_12&lt;/b&gt;&lt;br&gt;ctg39 12&lt;br&gt;Location: 11191 - 12163" locus_tag="ctg39_12" class="clusterblast-orf" id="dummy-1_q2_0_all"  />
<polygon points="242,35 246,30 246,40 242,35 " style="fill:white; stroke-width:1; stroke:black; " description="&lt;b&gt;ctg39_13&lt;/b&gt;&lt;br&gt;ctg39 13&lt;br&gt;Location: 12075 - 12252" locus_tag="ctg39_13" class="clusterblast-orf" id="dummy-1_q3_0_all"  />
<polygon points="253,35 255,30 255,40 253,35 " style="fill:white; stroke-width:1; stroke:black; " description="&lt;b&gt;ctg39_14&lt;/b&gt;&lt;br&gt;ctg39 14&lt;br&gt;Location: 12627 - 12735" locus_tag="ctg39_14" class="clusterblast-orf" id="dummy-1_q4_0_all"  />
<polygon points="260,35 265,30 275,30 275,40 265,40 260,35 " style="fill:white; stroke-width:1; stroke:black; " description="&lt;b&gt;ctg39_15&lt;/b&gt;&lt;br&gt;ctg39 15&lt;br&gt;Location: 13003 - 13813" locus_tag="ctg39_15" class="clusterblast-orf" id="dummy-1_q5_0_all"  />
<polygon points="282,40 298,40 303,35 298,30 282,30 282,40 " style="fill:#b115d8; stroke-width:1; stroke:black; " description="&lt;b&gt;ctg39_16&lt;/b&gt;&lt;br&gt;ctg39 16&lt;br&gt;Location: 14208 - 15309" locus_tag="ctg39_16" class="clusterblast-orf" id="dummy-1_q6_0_all"  />
<polygon points="303,40 327,40 332,35 327,30 303,30 303,40 " style="fill:#d86315; stroke-width:1; stroke:black; " description="&lt;b&gt;ctg39_17&lt;/b&gt;&lt;br&gt;ctg39 17&lt;br&gt;Location: 15319 - 16888" locus_tag="ctg39_17" class="clusterblast-orf" id="dummy-1_q7_0_all"  />
<polygon points="334,35 339,30 341,30 341,40 339,40 334,35 " style="fill:#15d815; stroke-width:1; stroke:black; " description="&lt;b&gt;ctg39_18&lt;/b&gt;&lt;br&gt;ctg39 18&lt;br&gt;Location: 16985 - 17339" locus_tag="ctg39_18" class="clusterblast-orf" id="dummy-1_q8_0_all"  />
<polygon points="341,40 417,40 422,35 417,30 341,30 341,40 " style="fill:#1563d8; stroke-width:1; stroke:black; " description="&lt;b&gt;ctg39_19&lt;/b&gt;&lt;br&gt;ctg39 19&lt;br&gt;Location: 17363 - 21686" locus_tag="ctg39_19" class="clusterblast-orf" id="dummy-1_q9_0_all"  />
<polygon points="424,40 445,40 450,35 445,30 424,30 424,40 " style="fill:#d815b1; stroke-width:1; stroke:black; " description="&lt;b&gt;ctg39_20&lt;/b&gt;&lt;br&gt;ctg39 20&lt;br&gt;Location: 21810 - 23229" locus_tag="ctg39_20" class="clusterblast-orf" id="dummy-1_q10_0_all"  />
<polygon points="455,40 470,40 475,35 470,30 455,30 455,40 " style="fill:#d8b115; stroke-width:1; stroke:black; " description="&lt;b&gt;ctg39_21&lt;/b&gt;&lt;br&gt;ctg39 21&lt;br&gt;Location: 23482 - 24550" locus_tag="ctg39_21" class="clusterblast-orf" id="dummy-1_q11_0_all"  />
<polygon points="477,35 482,30 500,30 500,40 482,40 477,35 " style="fill:#15d863; stroke-width:1; stroke:black; " description="&lt;b&gt;ctg39_22&lt;/b&gt;&lt;br&gt;ctg39 22&lt;br&gt;Location: 24666 - 25884" locus_tag="ctg39_22" class="clusterblast-orf" id="dummy-1_q12_0_all"  />
<polygon points="503,40 515,40 520,35 515,30 503,30 503,40 " style="fill:#1515d8; stroke-width:1; stroke:black; " description="&lt;b&gt;ctg39_23&lt;/b&gt;&lt;br&gt;ctg39 23&lt;br&gt;Location: 26065 - 26959" locus_tag="ctg39_23" class="clusterblast-orf" id="dummy-1_q13_0_all"  />
<polygon points="520,35 524,30 524,40 520,35 " style="fill:white; stroke-width:1; stroke:black; " description="&lt;b&gt;ctg39_24&lt;/b&gt;&lt;br&gt;ctg39 24&lt;br&gt;Location: 26965 - 27193" locus_tag="ctg39_24" class="clusterblast-orf" id="dummy-1_q14_0_all"  />
<polygon points="526,35 531,30 534,30 534,40 531,40 526,35 " style="fill:#d81563; stroke-width:1; stroke:black; " description="&lt;b&gt;ctg39_25&lt;/b&gt;&lt;br&gt;ctg39 25&lt;br&gt;Location: 27258 - 27708" locus_tag="ctg39_25" class="clusterblast-orf" id="dummy-1_q15_0_all"  />
<polygon points="535,35 540,30 557,30 557,40 540,40 535,35 " style="fill:#b1d815; stroke-width:1; stroke:black; " description="&lt;b&gt;ctg39_26&lt;/b&gt;&lt;br&gt;ctg39 26&lt;br&gt;Location: 27735 - 28962" locus_tag="ctg39_26" class="clusterblast-orf" id="dummy-1_q16_0_all"  />
<polygon points="557,35 562,30 571,30 571,40 562,40 557,35 " style="fill:#15d8b1; stroke-width:1; stroke:black; " description="&lt;b&gt;ctg39_27&lt;/b&gt;&lt;br&gt;ctg39 27&lt;br&gt;Location: 28961 - 29690" locus_tag="ctg39_27" class="clusterblast-orf" id="dummy-1_q17_0_all"  />
<polygon points="571,35 576,30 577,30 577,40 576,40 571,35 " style="fill:#6315d8; stroke-width:1; stroke:black; " description="&lt;b&gt;ctg39_28&lt;/b&gt;&lt;br&gt;ctg39 28&lt;br&gt;Location: 29686 - 29983" locus_tag="ctg39_28" class="clusterblast-orf" id="dummy-1_q18_0_all"  />
</g>
<g label="NZ_CABVIJ010000003" description="NZ_CABVIJ010000003 (18189-61794): Pseudomonas fluorescens isolate PS732, whol... (39% of genes show similarity), arylpolyene" class="clusterblast-cluster"  >
<text x="5" y="70" class="clusterblast-acc"  >
<a xlink:href="https://antismash-db.secondarymetabolites.org/area.html?record=NZ_CABVIJ010000003&amp;start=18189&amp;end=61794" target="_blank">NZ_CABVIJ010000003 (18189-61794)</a>: Pseudomonas fluorescens isolate PS732, whol... (39% of genes show similarity), arylpolyene</text>
<line x1="10" y1="85" x2="778.0" y2="85" style="stroke-width:1; stroke:grey; "  />
</g>
<g id="a1_000"  >
<polygon points="0,90 14,90 19,85 14,80 0,80 0,90 " style="fill:#d81515; stroke-width:1; stroke:black; " description="&lt;b&gt;F8N16_RS03680&lt;/b&gt;&lt;br&gt;type IV pilus assembly protein PilM&lt;br&gt;Location: 18732 - 19796&lt;br&gt;&lt;br&gt;&lt;b&gt;BlastP hit with ctg39_10&lt;/b&gt;&lt;br&gt;Percentage identity: 55&lt;br&gt;Percentage coverage: 77&lt;br&gt;BLAST bit score: 189&lt;br&gt;E-value: 8.75e-57" locus_tag="F8N16_RS03680" class="clusterblast-orf" id="dummy-1_h1_5_0"  />
</g>
<g id="a1_001"  >
<polygon points="19,90 25,90 30,85 25,80 19,80 19,90 " style="fill:#63d815; stroke-width:1; stroke:black; " description="&lt;b&gt;F8N16_RS03685&lt;/b&gt;&lt;br&gt;PilN domain-containing protein&lt;br&gt;Location: 19796 - 20362&lt;br&gt;&lt;br&gt;&lt;b&gt;BlastP hit with ctg39_11&lt;/b&gt;&lt;br&gt;Percentage identity: 47&lt;br&gt;Percentage coverage: 97&lt;br&gt;BLAST bit score: 149&lt;br&gt;E-value: 3.95e-44" locus_tag="F8N16_RS03685" class="clusterblast-orf" id="dummy-1_h1_5_1"  />
</g>
<g id="a1_002"  >
<polygon points="30,90 37,90 42,85 37,80 30,80 30,90 " style="fill:#15b1d8; stroke-width:1; stroke:black; " description="&lt;b&gt;F8N16_RS03690&lt;/b&gt;&lt;br&gt;type 4a pilus biogenesis protein PilO&lt;br&gt;Location: 20359 - 20982&lt;br&gt;&lt;br&gt;&lt;b&gt;BlastP hit with ctg39_12&lt;/b&gt;&lt;br&gt;Percentage identity: 38&lt;br&gt;Percentage coverage: 59&lt;br&gt;BLAST bit score: 125&lt;br&gt;E-value: 1.53e-32" locus_tag="F8N16_RS03690" class="clusterblast-orf" id="dummy-1_h1_5_2"  />
</g>
<g id="a1_003"  >
<polygon points="41,90 46,90 51,85 46,80 41,80 41,90 " style="fill:#15b1d8; stroke-width:1; stroke:black; " description="&lt;b&gt;F8N16_RS03695&lt;/b&gt;&lt;br&gt;pilus assembly protein PilP&lt;br&gt;Location: 20979 - 21506&lt;br&gt;&lt;br&gt;&lt;b&gt;BlastP hit with ctg39_12&lt;/b&gt;&lt;br&gt;Percentage identity: 42&lt;br&gt;Percentage coverage: 46&lt;br&gt;BLAST bit score: 104&lt;br&gt;E-value: 3.63e-25" locus_tag="F8N16_RS03695" class="clusterblast-orf" id="dummy-1_h1_5_3"  />
</g>
<g id="a1_004"  >
<polygon points="52,90 85,90 90,85 85,80 52,80 52,90 " style="fill:white; stroke-width:1; stroke:black; " description="&lt;b&gt;F8N16_RS03700&lt;/b&gt;&lt;br&gt;type IV pilus secretin PilQ&lt;br&gt;Location: 21520 - 23595" locus_tag="F8N16_RS03700" class="clusterblast-orf" id="dummy-1_h1_5_4"  />
</g>
<g id="a1_005"  >
<polygon points="90,90 95,90 100,85 95,80 90,80 90,90 " style="fill:white; stroke-width:1; stroke:black; " description="&lt;b&gt;F8N16_RS03705&lt;/b&gt;&lt;br&gt;shikimate kinase AroK&lt;br&gt;Location: 23600 - 24118" locus_tag="F8N16_RS03705" class="clusterblast-orf" id="dummy-1_h1_5_5"  />
</g>
<g id="a1_006"  >
<polygon points="103,90 118,90 123,85 118,80 103,80 103,90 " style="fill:#b115d8; stroke-width:1; stroke:black; " description="&lt;b&gt;F8N16_RS03710&lt;/b&gt;&lt;br&gt;3-dehydroquinate synthase&lt;br&gt;Location: 24270 - 25370&lt;br&gt;&lt;br&gt;&lt;b&gt;BlastP hit with ctg39_16&lt;/b&gt;&lt;br&gt;Percentage identity: 92&lt;br&gt;Percentage coverage: 100&lt;br&gt;BLAST bit score: 671&lt;br&gt;E-value: 1.94e-244" locus_tag="F8N16_RS03710" class="clusterblast-orf" id="dummy-1_h1_5_6"  />
</g>
<g id="a1_007"  >
<polygon points="124,90 148,90 153,85 148,80 124,80 124,90 " style="fill:#d86315; stroke-width:1; stroke:black; " description="&lt;b&gt;F8N16_RS03715&lt;/b&gt;&lt;br&gt;AAA family ATPase&lt;br&gt;Location: 25381 - 26955&lt;br&gt;&lt;br&gt;&lt;b&gt;BlastP hit with ctg39_17&lt;/b&gt;&lt;br&gt;Percentage identity: 80&lt;br&gt;Percentage coverage: 101&lt;br&gt;BLAST bit score: 727&lt;br&gt;E-value: 3.68e-261" locus_tag="F8N16_RS03715" class="clusterblast-orf" id="dummy-1_h1_5_7"  />
</g>
<g id="a1_008"  >
<polygon points="155,85 160,80 161,80 161,90 160,90 155,85 " style="fill:#15d815; stroke-width:1; stroke:black; " description="&lt;b&gt;F8N16_RS03720&lt;/b&gt;&lt;br&gt;hypothetical protein&lt;br&gt;Location: 27052 - 27391&lt;br&gt;&lt;br&gt;&lt;b&gt;BlastP hit with ctg39_18&lt;/b&gt;&lt;br&gt;Percentage identity: 78&lt;br&gt;Percentage coverage: 43&lt;br&gt;BLAST bit score: 76&lt;br&gt;E-value: 7.98e-18" locus_tag="F8N16_RS03720" class="clusterblast-orf" id="dummy-1_h1_5_8"  />
</g>
<g id="a1_009"  >
<polygon points="160,90 238,90 243,85 238,80 160,80 160,90 " style="fill:#1563d8; stroke-width:1; stroke:black; " description="&lt;b&gt;F8N16_RS03725&lt;/b&gt;&lt;br&gt;glutamate synthase large subunit&lt;br&gt;Location: 27305 - 31750&lt;br&gt;&lt;br&gt;&lt;b&gt;BlastP hit with ctg39_19&lt;/b&gt;&lt;br&gt;Percentage identity: 94&lt;br&gt;Percentage coverage: 100&lt;br&gt;BLAST bit score: 2688&lt;br&gt;E-value: 0.0" locus_tag="F8N16_RS03725" class="clusterblast-orf" id="dummy-1_h1_5_9"  />
</g>
<g id="a1_0010"  >
<polygon points="243,90 265,90 270,85 265,80 243,80 243,90 " style="fill:#d815b1; stroke-width:1; stroke:black; " description="&lt;b&gt;F8N16_RS03730&lt;/b&gt;&lt;br&gt;FAD-dependent oxidoreductase&lt;br&gt;Location: 31784 - 33202&lt;br&gt;&lt;br&gt;&lt;b&gt;BlastP hit with ctg39_20&lt;/b&gt;&lt;br&gt;Percentage identity: 98&lt;br&gt;Percentage coverage: 100&lt;br&gt;BLAST bit score: 941&lt;br&gt;E-value: 0.0" locus_tag="F8N16_RS03730" class="clusterblast-orf" id="dummy-1_h1_5_10"  />
</g>
<g id="a1_0011"  >
<polygon points="274,90 289,90 294,85 289,80 274,80 274,90 " style="fill:#d8b115; stroke-width:1; stroke:black; " description="&lt;b&gt;F8N16_RS03735&lt;/b&gt;&lt;br&gt;uroporphyrinogen decarboxylase&lt;br&gt;Location: 33449 - 34516&lt;br&gt;&lt;br&gt;&lt;b&gt;BlastP hit with ctg39_21&lt;/b&gt;&lt;br&gt;Percentage identity: 97&lt;br&gt;Percentage coverage: 100&lt;br&gt;BLAST bit score: 701&lt;br&gt;E-value: 2.15e-256" locus_tag="F8N16_RS03735" class="clusterblast-orf" id="dummy-1_h1_5_11"  />
</g>
<g id="a1_0012"  >
<polygon points="297,85 302,80 321,80 321,90 302,90 297,85 " style="fill:#15d863; stroke-width:1; stroke:black; " description="&lt;b&gt;F8N16_RS03740&lt;/b&gt;&lt;br&gt;MFS transporter&lt;br&gt;Location: 34692 - 35963&lt;br&gt;&lt;br&gt;&lt;b&gt;BlastP hit with ctg39_22&lt;/b&gt;&lt;br&gt;Percentage identity: 84&lt;br&gt;Percentage coverage: 100&lt;br&gt;BLAST bit score: 649&lt;br&gt;E-value: 7.32e-234" locus_tag="F8N16_RS03740" class="clusterblast-orf" id="dummy-1_h1_5_12"  />
</g>
<g id="a1_0013"  >
<polygon points="323,90 335,90 340,85 335,80 323,80 323,90 " style="fill:#1515d8; stroke-width:1; stroke:black; " description="&lt;b&gt;F8N16_RS03745&lt;/b&gt;&lt;br&gt;LysR family transcriptional regulator&lt;br&gt;Location: 36082 - 36978&lt;br&gt;&lt;br&gt;&lt;b&gt;BlastP hit with ctg39_23&lt;/b&gt;&lt;br&gt;Percentage identity: 88&lt;br&gt;Percentage coverage: 99&lt;br&gt;BLAST bit score: 498&lt;br&gt;E-value: 3.63e-178" locus_tag="F8N16_RS03745" class="clusterblast-orf" id="dummy-1_h1_5_13"  />
</g>
<g id="a1_0014"  >
<polygon points="342,85 344,80 344,90 342,85 " style="fill:white; stroke-width:1; stroke:black; " description="&lt;b&gt;F8N16_RS03750&lt;/b&gt;&lt;br&gt;excinuclease&lt;br&gt;Location: 37097 - 37207" locus_tag="F8N16_RS03750" class="clusterblast-orf" id="dummy-1_h1_5_14"  />
</g>
<g id="a1_0015"  >
<polygon points="347,85 352,80 362,80 362,90 352,90 347,85 " style="fill:#d81563; stroke-width:1; stroke:black; " description="&lt;b&gt;F8N16_RS03755&lt;/b&gt;&lt;br&gt;hypothetical protein&lt;br&gt;Location: 37361 - 38164&lt;br&gt;&lt;br&gt;&lt;b&gt;BlastP hit with ctg39_25&lt;/b&gt;&lt;br&gt;Percentage identity: 45&lt;br&gt;Percentage coverage: 80&lt;br&gt;BLAST bit score: 102&lt;br&gt;E-value: 3.29e-25" locus_tag="F8N16_RS03755" class="clusterblast-orf" id="dummy-1_h1_5_15"  />
</g>
<g id="a1_0016"  >
<polygon points="363,85 368,80 386,80 386,90 368,90 363,85 " style="fill:#b1d815; stroke-width:1; stroke:black; " description="&lt;b&gt;F8N16_RS03760&lt;/b&gt;&lt;br&gt;beta-ketoacyl-ACP synthase&lt;br&gt;Location: 38190 - 39416&lt;br&gt;&lt;br&gt;&lt;b&gt;BlastP hit with ctg39_26&lt;/b&gt;&lt;br&gt;Percentage identity: 93&lt;br&gt;Percentage coverage: 100&lt;br&gt;BLAST bit score: 764&lt;br&gt;E-value: 9.51e-280" locus_tag="F8N16_RS03760" class="clusterblast-orf" id="dummy-1_h1_5_16"  />
</g>
<g id="a1_0017"  >
<polygon points="386,85 391,80 399,80 399,90 391,90 386,85 " style="fill:#15d8b1; stroke-width:1; stroke:black; " description="&lt;b&gt;F8N16_RS03765&lt;/b&gt;&lt;br&gt;3-oxoacyl-ACP reductase FabG&lt;br&gt;Location: 39416 - 40144&lt;br&gt;&lt;br&gt;&lt;b&gt;BlastP hit with ctg39_27&lt;/b&gt;&lt;br&gt;Percentage identity: 93&lt;br&gt;Percentage coverage: 100&lt;br&gt;BLAST bit score: 444&lt;br&gt;E-value: 7.94e-159" locus_tag="F8N16_RS03765" class="clusterblast-orf" id="dummy-1_h1_5_17"  />
</g>
<g id="a1_0018"  >
<polygon points="399,85 404,80 408,80 408,90 404,90 399,85 " style="fill:#6315d8; stroke-width:1; stroke:black; " description="&lt;b&gt;F8N16_RS03770&lt;/b&gt;&lt;br&gt;hotdog family protein&lt;br&gt;Location: 40137 - 40601&lt;br&gt;&lt;br&gt;&lt;b&gt;BlastP hit with ctg39_28&lt;/b&gt;&lt;br&gt;Percentage identity: 78&lt;br&gt;Percentage coverage: 97&lt;br&gt;BLAST bit score: 160&lt;br&gt;E-value: 3.09e-50" locus_tag="F8N16_RS03770" class="clusterblast-orf" id="dummy-1_h1_5_18"  />
</g>
<g id="a1_0019"  >
<polygon points="408,85 413,80 430,80 430,90 413,90 408,85 " style="fill:white; stroke-width:1; stroke:black; " description="&lt;b&gt;F8N16_RS03775&lt;/b&gt;&lt;br&gt;beta-ketoacyl-ACP synthase&lt;br&gt;Location: 40598 - 41794" locus_tag="F8N16_RS03775" class="clusterblast-orf" id="dummy-1_h1_5_19"  />
</g>
<g id="a1_0020"  >
<polygon points="430,85 435,80 439,80 439,90 435,90 430,85 " style="fill:white; stroke-width:1; stroke:black; " description="&lt;b&gt;F8N16_RS03780&lt;/b&gt;&lt;br&gt;hypothetical protein&lt;br&gt;Location: 41791 - 42273" locus_tag="F8N16_RS03780" class="clusterblast-orf" id="dummy-1_h1_5_20"  />
</g>
<g id="a1_0021"  >
<polygon points="441,85 446,80 455,80 455,90 446,90 441,85 " style="fill:white; stroke-width:1; stroke:black; " description="&lt;b&gt;F8N16_RS03785&lt;/b&gt;&lt;br&gt;methyltransferase domain-containing protein&lt;br&gt;Location: 42405 - 43130" locus_tag="F8N16_RS03785" class="clusterblast-orf" id="dummy-1_h1_5_21"  />
</g>
<g id="a1_0022"  >
<polygon points="455,85 460,80 478,80 478,90 460,90 455,85 " style="fill:white; stroke-width:1; stroke:black; " description="&lt;b&gt;F8N16_RS03790&lt;/b&gt;&lt;br&gt;FAD-dependent oxidoreductase&lt;br&gt;Location: 43127 - 44374" locus_tag="F8N16_RS03790" class="clusterblast-orf" id="dummy-1_h1_5_22"  />
</g>
<g id="a1_0023"  >
<polygon points="478,85 483,80 500,80 500,90 483,90 478,85 " style="fill:white; stroke-width:1; stroke:black; " description="&lt;b&gt;F8N16_RS03795&lt;/b&gt;&lt;br&gt;sodium:proton antiporter&lt;br&gt;Location: 44361 - 45524" locus_tag="F8N16_RS03795" class="clusterblast-orf" id="dummy-1_h1_5_23"  />
</g>
<g id="a1_0024"  >
<polygon points="500,85 505,80 543,80 543,90 505,90 500,85 " style="fill:white; stroke-width:1; stroke:black; " description="&lt;b&gt;F8N16_RS03800&lt;/b&gt;&lt;br&gt;MMPL family transporter&lt;br&gt;Location: 45521 - 47860" locus_tag="F8N16_RS03800" class="clusterblast-orf" id="dummy-1_h1_5_24"  />
</g>
<g id="a1_0025"  >
<polygon points="543,85 548,80 554,80 554,90 548,90 543,85 " style="fill:white; stroke-width:1; stroke:black; " description="&lt;b&gt;F8N16_RS03805&lt;/b&gt;&lt;br&gt;outer membrane lipoprotein carrier protein LolA&lt;br&gt;Location: 47844 - 48446" locus_tag="F8N16_RS03805" class="clusterblast-orf" id="dummy-1_h1_5_25"  />
</g>
<g id="a1_0026"  >
<polygon points="554,85 559,80 562,80 562,90 559,90 554,85 " style="fill:white; stroke-width:1; stroke:black; " description="&lt;b&gt;F8N16_RS03810&lt;/b&gt;&lt;br&gt;acyl-CoA thioesterase&lt;br&gt;Location: 48443 - 48868" locus_tag="F8N16_RS03810" class="clusterblast-orf" id="dummy-1_h1_5_26"  />
</g>
<g id="a1_0027"  >
<polygon points="562,85 567,80 591,80 591,90 567,90 562,85 " style="fill:white; stroke-width:1; stroke:black; " description="&lt;b&gt;F8N16_RS03815&lt;/b&gt;&lt;br&gt;aromatic amino acid lyase&lt;br&gt;Location: 48861 - 50405" locus_tag="F8N16_RS03815" class="clusterblast-orf" id="dummy-1_h1_5_27"  />
</g>
<g id="a1_0028"  >
<polygon points="590,85 595,80 608,80 608,90 595,90 590,85 " style="fill:white; stroke-width:1; stroke:black; " description="&lt;b&gt;F8N16_RS03820&lt;/b&gt;&lt;br&gt;glycosyl transferase&lt;br&gt;Location: 50386 - 51333" locus_tag="F8N16_RS03820" class="clusterblast-orf" id="dummy-1_h1_5_28"  />
</g>
<g id="a1_0029"  >
<polygon points="608,85 613,80 622,80 622,90 613,90 608,85 " style="fill:white; stroke-width:1; stroke:black; " description="&lt;b&gt;F8N16_RS03825&lt;/b&gt;&lt;br&gt;glycosyltransferase&lt;br&gt;Location: 51330 - 52064" locus_tag="F8N16_RS03825" class="clusterblast-orf" id="dummy-1_h1_5_29"  />
</g>
<g id="a1_0030"  >
<polygon points="622,85 627,80 653,80 653,90 627,90 622,85 " style="fill:white; stroke-width:1; stroke:black; " description="&lt;b&gt;F8N16_RS03830&lt;/b&gt;&lt;br&gt;AMP-binding protein&lt;br&gt;Location: 52057 - 53736" locus_tag="F8N16_RS03830" class="clusterblast-orf" id="dummy-1_h1_5_30"  />
</g>
<g id="a1_0031"  >
<polygon points="653,85 658,80 663,80 663,90 658,90 653,85 " style="fill:white; stroke-width:1; stroke:black; " description="&lt;b&gt;F8N16_RS03835&lt;/b&gt;&lt;br&gt;hypothetical protein&lt;br&gt;Location: 53733 - 54278" locus_tag="F8N16_RS03835" class="clusterblast-orf" id="dummy-1_h1_5_31"  />
</g>
<g id="a1_0032"  >
<polygon points="663,85 668,80 668,80 668,90 668,90 663,85 " style="fill:white; stroke-width:1; stroke:black; " description="&lt;b&gt;F8N16_RS03840&lt;/b&gt;&lt;br&gt;acyl carrier protein&lt;br&gt;Location: 54275 - 54529" locus_tag="F8N16_RS03840" class="clusterblast-orf" id="dummy-1_h1_5_32"  />
</g>
<g id="a1_0033"  >
<polygon points="668,85 673,80 673,80 673,90 673,90 668,85 " style="fill:white; stroke-width:1; stroke:black; " description="&lt;b&gt;F8N16_RS03845&lt;/b&gt;&lt;br&gt;acyl carrier protein&lt;br&gt;Location: 54539 - 54799" locus_tag="F8N16_RS03845" class="clusterblast-orf" id="dummy-1_h1_5_33"  />
</g>
<g id="a1_0034"  >
<polygon points="672,85 677,80 688,80 688,90 677,90 672,85 " style="fill:white; stroke-width:1; stroke:black; " description="&lt;b&gt;F8N16_RS03850&lt;/b&gt;&lt;br&gt;1-acyl-sn-glycerol-3-phosphate acyltransferase&lt;br&gt;Location: 54780 - 55589" locus_tag="F8N16_RS03850" class="clusterblast-orf" id="dummy-1_h1_5_34"  />
</g>
<g id="a1_0035"  >
<polygon points="687,85 692,80 701,80 701,90 692,90 687,85 " style="fill:white; stroke-width:1; stroke:black; " description="&lt;b&gt;F8N16_RS03855&lt;/b&gt;&lt;br&gt;beta-ketoacyl synthase chain length factor&lt;br&gt;Location: 55565 - 56290" locus_tag="F8N16_RS03855" class="clusterblast-orf" id="dummy-1_h1_5_35"  />
</g>
<g id="a1_0036"  >
<polygon points="707,90 717,90 722,85 717,80 707,80 707,90 " style="fill:white; stroke-width:1; stroke:black; " description="&lt;b&gt;F8N16_RS03860&lt;/b&gt;&lt;br&gt;AAA family ATPase&lt;br&gt;Location: 56647 - 57417" locus_tag="F8N16_RS03860" class="clusterblast-orf" id="dummy-1_h1_5_36"  />
</g>
<g id="a1_0037"  >
<polygon points="724,85 729,80 732,80 732,90 729,90 724,85 " style="fill:white; stroke-width:1; stroke:black; " description="&lt;b&gt;F8N16_RS03865&lt;/b&gt;&lt;br&gt;thioredoxin TrxC&lt;br&gt;Location: 57546 - 57980" locus_tag="F8N16_RS03865" class="clusterblast-orf" id="dummy-1_h1_5_37"  />
</g>
<g id="a1_0038"  >
<polygon points="736,90 736,90 741,85 736,80 736,80 736,90 " style="fill:white; stroke-width:1; stroke:black; " description="&lt;b&gt;F8N16_RS03870&lt;/b&gt;&lt;br&gt;type II toxin-antitoxin system HigB family toxin&lt;br&gt;Location: 58175 - 58471" locus_tag="F8N16_RS03870" class="clusterblast-orf" id="dummy-1_h1_5_38"  />
</g>
<g id="a1_0039"  >
<polygon points="741,90 744,90 749,85 744,80 741,80 741,90 " style="fill:white; stroke-width:1; stroke:black; " description="&lt;b&gt;F8N16_RS03875&lt;/b&gt;&lt;br&gt;transcriptional regulator&lt;br&gt;Location: 58468 - 58869" locus_tag="F8N16_RS03875" class="clusterblast-orf" id="dummy-1_h1_5_39"  />
</g>
<g id="a1_0040"  >
<polygon points="752,85 757,80 779,80 779,90 757,90 752,85 " style="fill:white; stroke-width:1; stroke:black; " description="&lt;b&gt;F8N16_RS03880&lt;/b&gt;&lt;br&gt;YdiU family protein&lt;br&gt;Location: 59053 - 60516" locus_tag="F8N16_RS03880" class="clusterblast-orf" id="dummy-1_h1_5_40"  />
</g>
</svg>
