<svg xmlns="http://www.w3.org/2000/svg" xmlns:xlink="http://www.w3.org/1999/xlink" version="1.1" x="0" y="0" height="230" width="800" viewBox="0 0 800 230" preserveAspectRatio="none"  >
<g label="Query sequence" class="clusterblast-cluster"  >
<text x="5" y="20" class="clusterblast-acc"  >
Query sequence</text>
<line x1="10" y1="35" x2="778.0" y2="35" style="stroke-width:1; stroke:grey; "  />
<polygon points="5,40 73,40 78,35 73,30 5,30 5,40 " style="fill:#d81515; stroke-width:1; stroke:black; " description="&lt;b&gt;ctg2_38&lt;/b&gt;&lt;br&gt;ctg2 38&lt;br&gt;Location: 47422 - 48313" locus_tag="ctg2_38" class="clusterblast-orf" id="dummy-1_q0_0_all"  />
<polygon points="78,40 158,40 163,35 158,30 78,30 78,40 " style="fill:#15d815; stroke-width:1; stroke:black; " description="&lt;b&gt;ctg2_39&lt;/b&gt;&lt;br&gt;ctg2 39&lt;br&gt;Location: 48309 - 49344" locus_tag="ctg2_39" class="clusterblast-orf" id="dummy-1_q1_0_all"  />
<polygon points="163,40 313,40 318,35 313,30 163,30 163,40 " style="fill:#1597d8; stroke-width:1; stroke:black; " description="&lt;b&gt;ctg2_40&lt;/b&gt;&lt;br&gt;ctg2 40&lt;br&gt;Location: 49340 - 51227" locus_tag="ctg2_40" class="clusterblast-orf" id="dummy-1_q2_0_all"  />
<polygon points="328,40 344,40 349,35 344,30 328,30 328,40 " style="fill:#9715d8; stroke-width:1; stroke:black; " description="&lt;b&gt;ctg2_41&lt;/b&gt;&lt;br&gt;ctg2 41&lt;br&gt;Location: 51344 - 51596" locus_tag="ctg2_41" class="clusterblast-orf" id="dummy-1_q3_0_all"  />
<polygon points="354,40 419,40 424,35 419,30 354,30 354,40 " style="fill:#d89715; stroke-width:1; stroke:black; " description="&lt;b&gt;ctg2_42&lt;/b&gt;&lt;br&gt;ctg2 42&lt;br&gt;Location: 51663 - 52509" locus_tag="ctg2_42" class="clusterblast-orf" id="dummy-1_q4_0_all"  />
<polygon points="423,40 483,40 488,35 483,30 423,30 423,40 " style="fill:#15d897; stroke-width:1; stroke:black; " description="&lt;b&gt;ctg2_43&lt;/b&gt;&lt;br&gt;ctg2 43&lt;br&gt;Location: 52499 - 53288" locus_tag="ctg2_43" class="clusterblast-orf" id="dummy-1_q5_0_all"  />
<polygon points="495,40 588,40 593,35 588,30 495,30 495,40 " style="fill:#1515d8; stroke-width:1; stroke:black; " description="&lt;b&gt;ctg2_44&lt;/b&gt;&lt;br&gt;ctg2 44&lt;br&gt;Location: 53375 - 54560" locus_tag="ctg2_44" class="clusterblast-orf" id="dummy-1_q6_0_all"  />
<polygon points="604,35 609,30 722,30 722,40 609,40 604,35 " style="fill:#d81597; stroke-width:1; stroke:black; " description="&lt;b&gt;ctg2_45&lt;/b&gt;&lt;br&gt;ctg2 45&lt;br&gt;Location: 54693 - 56133" locus_tag="ctg2_45" class="clusterblast-orf" id="dummy-1_q7_0_all"  />
<polygon points="733,40 771,40 776,35 771,30 733,30 733,40 " style="fill:#97d815; stroke-width:1; stroke:black; " description="&lt;b&gt;ctg2_46&lt;/b&gt;&lt;br&gt;ctg2 46&lt;br&gt;Location: 56263 - 56785" locus_tag="ctg2_46" class="clusterblast-orf" id="dummy-1_q8_0_all"  />
</g>
<g label="NZ_FNOX01000011" description="NZ_FNOX01000011 (170961-181807): Pseudomonas salomonii strain ICMP 14252, who... (100% of genes show similarity), bacteriocin" class="clusterblast-cluster"  >
<text x="5" y="70" class="clusterblast-acc"  >
<a xlink:href="https://antismash-db.secondarymetabolites.org/area.html?record=NZ_FNOX01000011&amp;start=170961&amp;end=181807" target="_blank">NZ_FNOX01000011 (170961-181807)</a>: Pseudomonas salomonii strain ICMP 14252, who... (100% of genes show similarity), bacteriocin</text>
<line x1="10" y1="85" x2="778.0" y2="85" style="stroke-width:1; stroke:grey; "  />
</g>
<g id="a1_000"  >
<polygon points="0,90 76,90 81,85 76,80 0,80 0,90 " style="fill:#d81515; stroke-width:1; stroke:black; " description="&lt;b&gt;BLV67_RS24140&lt;/b&gt;&lt;br&gt;protease modulator HflC&lt;br&gt;Location: 171616 - 172608&lt;br&gt;&lt;br&gt;&lt;b&gt;BlastP hit with ctg2_38&lt;/b&gt;&lt;br&gt;Percentage identity: 99&lt;br&gt;Percentage coverage: 100&lt;br&gt;BLAST bit score: 491&lt;br&gt;E-value: 8.71e-175" locus_tag="BLV67_RS24140" class="clusterblast-orf" id="dummy-1_h1_5_0"  />
</g>
<g id="a1_001"  >
<polygon points="81,90 161,90 166,85 161,80 81,80 81,90 " style="fill:#15d815; stroke-width:1; stroke:black; " description="&lt;b&gt;BLV67_RS24145&lt;/b&gt;&lt;br&gt;protease modulator HflK&lt;br&gt;Location: 172605 - 173639&lt;br&gt;&lt;br&gt;&lt;b&gt;BlastP hit with ctg2_39&lt;/b&gt;&lt;br&gt;Percentage identity: 99&lt;br&gt;Percentage coverage: 100&lt;br&gt;BLAST bit score: 558&lt;br&gt;E-value: 1.54e-200" locus_tag="BLV67_RS24145" class="clusterblast-orf" id="dummy-1_h1_5_1"  />
</g>
<g id="a1_002"  >
<polygon points="166,90 316,90 321,85 316,80 166,80 166,90 " style="fill:#1597d8; stroke-width:1; stroke:black; " description="&lt;b&gt;BLV67_RS24150&lt;/b&gt;&lt;br&gt;cadmium-translocating P-type ATPase&lt;br&gt;Location: 173636 - 175522&lt;br&gt;&lt;br&gt;&lt;b&gt;BlastP hit with ctg2_40&lt;/b&gt;&lt;br&gt;Percentage identity: 98&lt;br&gt;Percentage coverage: 100&lt;br&gt;BLAST bit score: 1106&lt;br&gt;E-value: 0.0" locus_tag="BLV67_RS24150" class="clusterblast-orf" id="dummy-1_h1_5_2"  />
</g>
<g id="a1_003"  >
<polygon points="331,90 347,90 352,85 347,80 331,80 331,90 " style="fill:#9715d8; stroke-width:1; stroke:black; " description="&lt;b&gt;BLV67_RS24155&lt;/b&gt;&lt;br&gt;membrane protein&lt;br&gt;Location: 175640 - 175894&lt;br&gt;&lt;br&gt;&lt;b&gt;BlastP hit with ctg2_41&lt;/b&gt;&lt;br&gt;Percentage identity: 86&lt;br&gt;Percentage coverage: 101&lt;br&gt;BLAST bit score: 113&lt;br&gt;E-value: 7.71e-33" locus_tag="BLV67_RS24155" class="clusterblast-orf" id="dummy-1_h1_5_3"  />
</g>
<g id="a1_004"  >
<polygon points="357,90 422,90 427,85 422,80 357,80 357,90 " style="fill:#d89715; stroke-width:1; stroke:black; " description="&lt;b&gt;BLV67_RS24160&lt;/b&gt;&lt;br&gt;DUF692 domain-containing protein&lt;br&gt;Location: 175962 - 176807&lt;br&gt;&lt;br&gt;&lt;b&gt;BlastP hit with ctg2_42&lt;/b&gt;&lt;br&gt;Percentage identity: 92&lt;br&gt;Percentage coverage: 100&lt;br&gt;BLAST bit score: 532&lt;br&gt;E-value: 4e-192" locus_tag="BLV67_RS24160" class="clusterblast-orf" id="dummy-1_h1_5_4"  />
</g>
<g id="a1_005"  >
<polygon points="426,90 486,90 491,85 486,80 426,80 426,90 " style="fill:#15d897; stroke-width:1; stroke:black; " description="&lt;b&gt;BLV67_RS24165&lt;/b&gt;&lt;br&gt;DUF2063 domain-containing protein&lt;br&gt;Location: 176798 - 177586&lt;br&gt;&lt;br&gt;&lt;b&gt;BlastP hit with ctg2_43&lt;/b&gt;&lt;br&gt;Percentage identity: 90&lt;br&gt;Percentage coverage: 100&lt;br&gt;BLAST bit score: 498&lt;br&gt;E-value: 1.69e-179" locus_tag="BLV67_RS24165" class="clusterblast-orf" id="dummy-1_h1_5_5"  />
</g>
<g id="a1_006"  >
<polygon points="498,90 591,90 596,85 591,80 498,80 498,90 " style="fill:#1515d8; stroke-width:1; stroke:black; " description="&lt;b&gt;BLV67_RS24170&lt;/b&gt;&lt;br&gt;class I SAM-dependent methyltransferase&lt;br&gt;Location: 177675 - 178859&lt;br&gt;&lt;br&gt;&lt;b&gt;BlastP hit with ctg2_44&lt;/b&gt;&lt;br&gt;Percentage identity: 96&lt;br&gt;Percentage coverage: 100&lt;br&gt;BLAST bit score: 777&lt;br&gt;E-value: 2.1e-285" locus_tag="BLV67_RS24170" class="clusterblast-orf" id="dummy-1_h1_5_6"  />
</g>
<g id="a1_007"  >
<polygon points="607,85 612,80 726,80 726,90 612,90 607,85 " style="fill:#d81597; stroke-width:1; stroke:black; " description="&lt;b&gt;BLV67_RS24175&lt;/b&gt;&lt;br&gt;cardiolipin synthase&lt;br&gt;Location: 178996 - 180435&lt;br&gt;&lt;br&gt;&lt;b&gt;BlastP hit with ctg2_45&lt;/b&gt;&lt;br&gt;Percentage identity: 98&lt;br&gt;Percentage coverage: 100&lt;br&gt;BLAST bit score: 932&lt;br&gt;E-value: 0.0" locus_tag="BLV67_RS24175" class="clusterblast-orf" id="dummy-1_h1_5_7"  />
</g>
<g id="a1_008"  >
<polygon points="737,90 775,90 780,85 775,80 737,80 737,90 " style="fill:#97d815; stroke-width:1; stroke:black; " description="&lt;b&gt;BLV67_RS24180&lt;/b&gt;&lt;br&gt;DUF3617 domain-containing protein&lt;br&gt;Location: 180566 - 181087&lt;br&gt;&lt;br&gt;&lt;b&gt;BlastP hit with ctg2_46&lt;/b&gt;&lt;br&gt;Percentage identity: 98&lt;br&gt;Percentage coverage: 100&lt;br&gt;BLAST bit score: 339&lt;br&gt;E-value: 1.72e-119" locus_tag="BLV67_RS24180" class="clusterblast-orf" id="dummy-1_h1_5_8"  />
</g>
</svg>
