<svg xmlns="http://www.w3.org/2000/svg" xmlns:xlink="http://www.w3.org/1999/xlink" version="1.1" x="0" y="0" height="230" width="800" viewBox="0 0 800 230" preserveAspectRatio="none"  >
<g label="Query sequence" class="clusterblast-cluster"  >
<text x="5" y="20" class="clusterblast-acc"  >
Query sequence</text>
<line x1="10" y1="35" x2="778.0" y2="35" style="stroke-width:1; stroke:grey; "  />
<polygon points="204,35 209,30 209,30 209,40 209,40 204,35 " style="fill:#d81515; stroke-width:1; stroke:black; " description="&lt;b&gt;ctg7_1&lt;/b&gt;&lt;br&gt;ctg7 1&lt;br&gt;Location: 0 - 240" locus_tag="ctg7_1" class="clusterblast-orf" id="dummy-1_q0_0_all"  />
<polygon points="208,35 213,30 231,30 231,40 213,40 208,35 " style="fill:#6ad815; stroke-width:1; stroke:black; " description="&lt;b&gt;ctg7_2&lt;/b&gt;&lt;br&gt;ctg7 2&lt;br&gt;Location: 236 - 1403" locus_tag="ctg7_2" class="clusterblast-orf" id="dummy-1_q1_0_all"  />
<polygon points="231,35 236,30 240,30 240,40 236,40 231,35 " style="fill:#15bfd8; stroke-width:1; stroke:black; " description="&lt;b&gt;ctg7_3&lt;/b&gt;&lt;br&gt;ctg7 3&lt;br&gt;Location: 1399 - 1882" locus_tag="ctg7_3" class="clusterblast-orf" id="dummy-1_q2_0_all"  />
<polygon points="240,35 245,30 254,30 254,40 245,40 240,35 " style="fill:#9d15d8; stroke-width:1; stroke:black; " description="&lt;b&gt;ctg7_4&lt;/b&gt;&lt;br&gt;ctg7 4&lt;br&gt;Location: 1878 - 2613" locus_tag="ctg7_4" class="clusterblast-orf" id="dummy-1_q3_0_all"  />
<polygon points="254,35 259,30 278,30 278,40 259,40 254,35 " style="fill:#d84815; stroke-width:1; stroke:black; " description="&lt;b&gt;ctg7_5&lt;/b&gt;&lt;br&gt;ctg7 5&lt;br&gt;Location: 2609 - 3857" locus_tag="ctg7_5" class="clusterblast-orf" id="dummy-1_q4_0_all"  />
<polygon points="278,35 283,30 322,30 322,40 283,40 278,35 " style="fill:#37d815; stroke-width:1; stroke:black; " description="&lt;b&gt;ctg7_6&lt;/b&gt;&lt;br&gt;ctg7 6&lt;br&gt;Location: 3890 - 6203" locus_tag="ctg7_6" class="clusterblast-orf" id="dummy-1_q5_0_all"  />
<polygon points="322,35 327,30 334,30 334,40 327,40 322,35 " style="fill:#158cd8; stroke-width:1; stroke:black; " description="&lt;b&gt;ctg7_7&lt;/b&gt;&lt;br&gt;ctg7 7&lt;br&gt;Location: 6192 - 6843" locus_tag="ctg7_7" class="clusterblast-orf" id="dummy-1_q6_0_all"  />
<polygon points="335,35 340,30 343,30 343,40 340,40 335,35 " style="fill:#d015d8; stroke-width:1; stroke:black; " description="&lt;b&gt;ctg7_8&lt;/b&gt;&lt;br&gt;ctg7 8&lt;br&gt;Location: 6872 - 7298" locus_tag="ctg7_8" class="clusterblast-orf" id="dummy-1_q7_0_all"  />
<polygon points="343,35 348,30 372,30 372,40 348,40 343,35 " style="fill:#d87b15; stroke-width:1; stroke:black; " description="&lt;b&gt;ctg7_9&lt;/b&gt;&lt;br&gt;ctg7 9&lt;br&gt;Location: 7290 - 8832" locus_tag="ctg7_9" class="clusterblast-orf" id="dummy-1_q8_0_all"  />
<polygon points="372,35 377,30 390,30 390,40 377,40 372,35 " style="fill:#15d826; stroke-width:1; stroke:black; " description="&lt;b&gt;ctg7_10&lt;/b&gt;&lt;br&gt;ctg7 10&lt;br&gt;Location: 8815 - 9751" locus_tag="ctg7_10" class="clusterblast-orf" id="dummy-1_q9_0_all"  />
<polygon points="390,35 395,30 404,30 404,40 395,40 390,35 " style="fill:#1559d8; stroke-width:1; stroke:black; " description="&lt;b&gt;ctg7_11&lt;/b&gt;&lt;br&gt;ctg7 11&lt;br&gt;Location: 9747 - 10482" locus_tag="ctg7_11" class="clusterblast-orf" id="dummy-1_q10_0_all"  />
<polygon points="404,35 409,30 436,30 436,40 409,40 404,35 " style="fill:#d815ae; stroke-width:1; stroke:black; " description="&lt;b&gt;ctg7_12&lt;/b&gt;&lt;br&gt;ctg7 12&lt;br&gt;Location: 10474 - 12145" locus_tag="ctg7_12" class="clusterblast-orf" id="dummy-1_q11_0_all"  />
<polygon points="435,35 440,30 446,30 446,40 440,40 435,35 " style="fill:#d8ae15; stroke-width:1; stroke:black; " description="&lt;b&gt;ctg7_13&lt;/b&gt;&lt;br&gt;ctg7 13&lt;br&gt;Location: 12141 - 12687" locus_tag="ctg7_13" class="clusterblast-orf" id="dummy-1_q12_0_all"  />
<polygon points="446,35 451,30 451,30 451,40 451,40 446,35 " style="fill:#15d859; stroke-width:1; stroke:black; " description="&lt;b&gt;ctg7_14&lt;/b&gt;&lt;br&gt;ctg7 14&lt;br&gt;Location: 12683 - 12938" locus_tag="ctg7_14" class="clusterblast-orf" id="dummy-1_q13_0_all"  />
<polygon points="451,35 456,30 456,30 456,40 456,40 451,35 " style="fill:#1526d8; stroke-width:1; stroke:black; " description="&lt;b&gt;ctg7_15&lt;/b&gt;&lt;br&gt;ctg7 15&lt;br&gt;Location: 12947 - 13217" locus_tag="ctg7_15" class="clusterblast-orf" id="dummy-1_q14_0_all"  />
<polygon points="456,35 461,30 471,30 471,40 461,40 456,35 " style="fill:#d8157b; stroke-width:1; stroke:black; " description="&lt;b&gt;ctg7_16&lt;/b&gt;&lt;br&gt;ctg7 16&lt;br&gt;Location: 13194 - 14007" locus_tag="ctg7_16" class="clusterblast-orf" id="dummy-1_q15_0_all"  />
<polygon points="471,35 476,30 483,30 483,40 476,40 471,35 " style="fill:#d0d815; stroke-width:1; stroke:black; " description="&lt;b&gt;ctg7_17&lt;/b&gt;&lt;br&gt;ctg7 17&lt;br&gt;Location: 13982 - 14612" locus_tag="ctg7_17" class="clusterblast-orf" id="dummy-1_q16_0_all"  />
<polygon points="491,40 500,40 505,35 500,30 491,30 491,40 " style="fill:#15d88c; stroke-width:1; stroke:black; " description="&lt;b&gt;ctg7_18&lt;/b&gt;&lt;br&gt;ctg7 18&lt;br&gt;Location: 15040 - 15811" locus_tag="ctg7_18" class="clusterblast-orf" id="dummy-1_q17_0_all"  />
<polygon points="515,40 519,35 515,30 515,40 " style="fill:#3715d8; stroke-width:1; stroke:black; " description="&lt;b&gt;ctg7_19&lt;/b&gt;&lt;br&gt;ctg7 19&lt;br&gt;Location: 16288 - 16516" locus_tag="ctg7_19" class="clusterblast-orf" id="dummy-1_q18_0_all"  />
<polygon points="521,35 526,30 530,30 530,40 526,40 521,35 " style="fill:#d81548; stroke-width:1; stroke:black; " description="&lt;b&gt;ctg7_20&lt;/b&gt;&lt;br&gt;ctg7 20&lt;br&gt;Location: 16647 - 17082" locus_tag="ctg7_20" class="clusterblast-orf" id="dummy-1_q19_0_all"  />
<polygon points="534,40 535,40 540,35 535,30 534,30 534,40 " style="fill:#9dd815; stroke-width:1; stroke:black; " description="&lt;b&gt;ctg7_21&lt;/b&gt;&lt;br&gt;ctg7 21&lt;br&gt;Location: 17317 - 17614" locus_tag="ctg7_21" class="clusterblast-orf" id="dummy-1_q20_0_all"  />
<polygon points="540,40 542,40 547,35 542,30 540,30 540,40 " style="fill:#15d8bf; stroke-width:1; stroke:black; " description="&lt;b&gt;ctg7_22&lt;/b&gt;&lt;br&gt;ctg7 22&lt;br&gt;Location: 17610 - 18012" locus_tag="ctg7_22" class="clusterblast-orf" id="dummy-1_q21_0_all"  />
<polygon points="548,35 553,30 575,30 575,40 553,40 548,35 " style="fill:#6a15d8; stroke-width:1; stroke:black; " description="&lt;b&gt;ctg7_23&lt;/b&gt;&lt;br&gt;ctg7 23&lt;br&gt;Location: 18017 - 19481" locus_tag="ctg7_23" class="clusterblast-orf" id="dummy-1_q22_0_all"  />
</g>
<g label="NZ_CP029983" description="NZ_CP029983 (1180371-1223947): Pseudomonas sp. LG1E9 chromosome, complete genome (57% of genes show similarity), arylpolyene" class="clusterblast-cluster"  >
<text x="5" y="70" class="clusterblast-acc"  >
<a xlink:href="https://antismash-db.secondarymetabolites.org/area.html?record=NZ_CP029983&amp;start=1180371&amp;end=1223947" target="_blank">NZ_CP029983 (1180371-1223947)</a>: Pseudomonas sp. LG1E9 chromosome, complete genome (57% of genes show similarity), arylpolyene</text>
<line x1="10" y1="85" x2="778.0" y2="85" style="stroke-width:1; stroke:grey; "  />
</g>
<g id="a1_000"  >
<polygon points="0,90 5,90 10,85 5,80 0,80 0,90 " style="fill:white; stroke-width:1; stroke:black; " description="&lt;b&gt;DNK50_RS05620&lt;/b&gt;&lt;br&gt;PilN domain-containing protein&lt;br&gt;Location: 1180995 - 1181546" locus_tag="DNK50_RS05620" class="clusterblast-orf" id="dummy-1_h1_7_0"  />
</g>
<g id="a1_001"  >
<polygon points="10,90 23,90 28,85 23,80 10,80 10,90 " style="fill:white; stroke-width:1; stroke:black; " description="&lt;b&gt;DNK50_RS05625&lt;/b&gt;&lt;br&gt;pilus assembly protein PilP&lt;br&gt;Location: 1181543 - 1182514" locus_tag="DNK50_RS05625" class="clusterblast-orf" id="dummy-1_h1_7_1"  />
</g>
<g id="a1_002"  >
<polygon points="30,90 50,90 55,85 50,80 30,80 30,90 " style="fill:white; stroke-width:1; stroke:black; " description="&lt;b&gt;DNK50_RS05630&lt;/b&gt;&lt;br&gt;type IV pilus secretin PilQ family protein&lt;br&gt;Location: 1182584 - 1183909" locus_tag="DNK50_RS05630" class="clusterblast-orf" id="dummy-1_h1_7_2"  />
</g>
<g id="a1_003"  >
<polygon points="55,90 60,90 65,85 60,80 55,80 55,90 " style="fill:white; stroke-width:1; stroke:black; " description="&lt;b&gt;DNK50_RS05635&lt;/b&gt;&lt;br&gt;shikimate kinase AroK&lt;br&gt;Location: 1183914 - 1184432" locus_tag="DNK50_RS05635" class="clusterblast-orf" id="dummy-1_h1_7_3"  />
</g>
<g id="a1_004"  >
<polygon points="67,90 83,90 88,85 83,80 67,80 67,90 " style="fill:white; stroke-width:1; stroke:black; " description="&lt;b&gt;DNK50_RS05640&lt;/b&gt;&lt;br&gt;3-dehydroquinate synthase&lt;br&gt;Location: 1184558 - 1185658" locus_tag="DNK50_RS05640" class="clusterblast-orf" id="dummy-1_h1_7_4"  />
</g>
<g id="a1_005"  >
<polygon points="89,90 113,90 118,85 113,80 89,80 89,90 " style="fill:white; stroke-width:1; stroke:black; " description="&lt;b&gt;DNK50_RS05645&lt;/b&gt;&lt;br&gt;ExeA family protein&lt;br&gt;Location: 1185669 - 1187231" locus_tag="DNK50_RS05645" class="clusterblast-orf" id="dummy-1_h1_7_5"  />
</g>
<g id="a1_006"  >
<polygon points="125,90 205,90 210,85 205,80 125,80 125,90 " style="fill:white; stroke-width:1; stroke:black; " description="&lt;b&gt;DNK50_RS05655&lt;/b&gt;&lt;br&gt;glutamate synthase large subunit&lt;br&gt;Location: 1187585 - 1192030" locus_tag="DNK50_RS05655" class="clusterblast-orf" id="dummy-1_h1_7_6"  />
</g>
<g id="a1_007"  >
<polygon points="211,90 233,90 238,85 233,80 211,80 211,90 " style="fill:white; stroke-width:1; stroke:black; " description="&lt;b&gt;DNK50_RS05660&lt;/b&gt;&lt;br&gt;FAD-dependent oxidoreductase&lt;br&gt;Location: 1192063 - 1193481" locus_tag="DNK50_RS05660" class="clusterblast-orf" id="dummy-1_h1_7_7"  />
</g>
<g id="a1_008"  >
<polygon points="242,90 258,90 263,85 258,80 242,80 242,90 " style="fill:white; stroke-width:1; stroke:black; " description="&lt;b&gt;DNK50_RS05665&lt;/b&gt;&lt;br&gt;uroporphyrinogen decarboxylase&lt;br&gt;Location: 1193723 - 1194790" locus_tag="DNK50_RS05665" class="clusterblast-orf" id="dummy-1_h1_7_8"  />
</g>
<g id="a1_009"  >
<polygon points="266,90 272,90 277,85 272,80 266,80 266,90 " style="fill:white; stroke-width:1; stroke:black; " description="&lt;b&gt;DNK50_RS05670&lt;/b&gt;&lt;br&gt;cytochrome b/b6 domain-containing protein&lt;br&gt;Location: 1194986 - 1195564" locus_tag="DNK50_RS05670" class="clusterblast-orf" id="dummy-1_h1_7_9"  />
</g>
<g id="a1_0010"  >
<polygon points="277,85 282,80 289,80 289,90 282,90 277,85 " style="fill:white; stroke-width:1; stroke:black; " description="&lt;b&gt;DNK50_RS05675&lt;/b&gt;&lt;br&gt;TIGR02646 family protein&lt;br&gt;Location: 1195522 - 1196166" locus_tag="DNK50_RS05675" class="clusterblast-orf" id="dummy-1_h1_7_10"  />
</g>
<g id="a1_0011"  >
<polygon points="289,85 294,80 313,80 313,90 294,90 289,85 " style="fill:white; stroke-width:1; stroke:black; " description="&lt;b&gt;DNK50_RS05680&lt;/b&gt;&lt;br&gt;AAA family ATPase&lt;br&gt;Location: 1196163 - 1197431" locus_tag="DNK50_RS05680" class="clusterblast-orf" id="dummy-1_h1_7_11"  />
</g>
<g id="a1_0012"  >
<polygon points="314,85 319,80 339,80 339,90 319,90 314,85 " style="fill:white; stroke-width:1; stroke:black; " description="&lt;b&gt;DNK50_RS05685&lt;/b&gt;&lt;br&gt;MFS transporter&lt;br&gt;Location: 1197508 - 1198785" locus_tag="DNK50_RS05685" class="clusterblast-orf" id="dummy-1_h1_7_12"  />
</g>
<g id="a1_0013"  >
<polygon points="341,90 353,90 358,85 353,80 341,80 341,90 " style="fill:white; stroke-width:1; stroke:black; " description="&lt;b&gt;DNK50_RS05690&lt;/b&gt;&lt;br&gt;LysR family transcriptional regulator&lt;br&gt;Location: 1198910 - 1199803" locus_tag="DNK50_RS05690" class="clusterblast-orf" id="dummy-1_h1_7_13"  />
</g>
<g id="a1_0014"  >
<polygon points="360,85 365,80 368,80 368,90 365,90 360,85 " style="fill:white; stroke-width:1; stroke:black; " description="&lt;b&gt;DNK50_RS05695&lt;/b&gt;&lt;br&gt;hypothetical protein&lt;br&gt;Location: 1199899 - 1200345" locus_tag="DNK50_RS05695" class="clusterblast-orf" id="dummy-1_h1_7_14"  />
</g>
<g id="a1_0015"  >
<polygon points="369,85 374,80 392,80 392,90 374,90 369,85 " style="fill:white; stroke-width:1; stroke:black; " description="&lt;b&gt;DNK50_RS05700&lt;/b&gt;&lt;br&gt;beta-ketoacyl-ACP synthase&lt;br&gt;Location: 1200372 - 1201598" locus_tag="DNK50_RS05700" class="clusterblast-orf" id="dummy-1_h1_7_15"  />
</g>
<g id="a1_0016"  >
<polygon points="392,85 397,80 406,80 406,90 397,90 392,85 " style="fill:white; stroke-width:1; stroke:black; " description="&lt;b&gt;DNK50_RS05705&lt;/b&gt;&lt;br&gt;3-oxoacyl-ACP reductase FabG&lt;br&gt;Location: 1201598 - 1202326" locus_tag="DNK50_RS05705" class="clusterblast-orf" id="dummy-1_h1_7_16"  />
</g>
<g id="a1_0017"  >
<polygon points="406,85 411,80 415,80 415,90 411,90 406,85 " style="fill:#d81515; stroke-width:1; stroke:black; " description="&lt;b&gt;DNK50_RS05710&lt;/b&gt;&lt;br&gt;hotdog family protein&lt;br&gt;Location: 1202323 - 1202784&lt;br&gt;&lt;br&gt;&lt;b&gt;BlastP hit with ctg7_1&lt;/b&gt;&lt;br&gt;Percentage identity: 94&lt;br&gt;Percentage coverage: 100&lt;br&gt;BLAST bit score: 154&lt;br&gt;E-value: 3.87e-48" locus_tag="DNK50_RS05710" class="clusterblast-orf" id="dummy-1_h1_7_17"  />
</g>
<g id="a1_0018"  >
<polygon points="415,85 420,80 437,80 437,90 420,90 415,85 " style="fill:#6ad815; stroke-width:1; stroke:black; " description="&lt;b&gt;DNK50_RS05715&lt;/b&gt;&lt;br&gt;beta-ketoacyl-[acyl-carrier-protein] synthase family protein&lt;br&gt;Location: 1202781 - 1203947&lt;br&gt;&lt;br&gt;&lt;b&gt;BlastP hit with ctg7_2&lt;/b&gt;&lt;br&gt;Percentage identity: 91&lt;br&gt;Percentage coverage: 100&lt;br&gt;BLAST bit score: 707&lt;br&gt;E-value: 7.18e-258" locus_tag="DNK50_RS05715" class="clusterblast-orf" id="dummy-1_h1_7_18"  />
</g>
<g id="a1_0019"  >
<polygon points="437,85 442,80 446,80 446,90 442,90 437,85 " style="fill:#15bfd8; stroke-width:1; stroke:black; " description="&lt;b&gt;DNK50_RS05720&lt;/b&gt;&lt;br&gt;hypothetical protein&lt;br&gt;Location: 1203944 - 1204426&lt;br&gt;&lt;br&gt;&lt;b&gt;BlastP hit with ctg7_3&lt;/b&gt;&lt;br&gt;Percentage identity: 89&lt;br&gt;Percentage coverage: 100&lt;br&gt;BLAST bit score: 291&lt;br&gt;E-value: 5.2e-101" locus_tag="DNK50_RS05720" class="clusterblast-orf" id="dummy-1_h1_7_19"  />
</g>
<g id="a1_0020"  >
<polygon points="446,85 451,80 460,80 460,90 451,90 446,85 " style="fill:#9d15d8; stroke-width:1; stroke:black; " description="&lt;b&gt;DNK50_RS05725&lt;/b&gt;&lt;br&gt;class I SAM-dependent methyltransferase&lt;br&gt;Location: 1204423 - 1205157&lt;br&gt;&lt;br&gt;&lt;b&gt;BlastP hit with ctg7_4&lt;/b&gt;&lt;br&gt;Percentage identity: 94&lt;br&gt;Percentage coverage: 99&lt;br&gt;BLAST bit score: 477&lt;br&gt;E-value: 1.45e-171" locus_tag="DNK50_RS05725" class="clusterblast-orf" id="dummy-1_h1_7_20"  />
</g>
<g id="a1_0021"  >
<polygon points="460,85 465,80 484,80 484,90 465,90 460,85 " style="fill:#d84815; stroke-width:1; stroke:black; " description="&lt;b&gt;DNK50_RS05730&lt;/b&gt;&lt;br&gt;tryptophan 7-halogenase&lt;br&gt;Location: 1205154 - 1206401&lt;br&gt;&lt;br&gt;&lt;b&gt;BlastP hit with ctg7_5&lt;/b&gt;&lt;br&gt;Percentage identity: 96&lt;br&gt;Percentage coverage: 100&lt;br&gt;BLAST bit score: 813&lt;br&gt;E-value: 5.1e-299" locus_tag="DNK50_RS05730" class="clusterblast-orf" id="dummy-1_h1_7_21"  />
</g>
<g id="a1_0022"  >
<polygon points="485,85 490,80 529,80 529,90 490,90 485,85 " style="fill:#37d815; stroke-width:1; stroke:black; " description="&lt;b&gt;DNK50_RS05735&lt;/b&gt;&lt;br&gt;MMPL family transporter&lt;br&gt;Location: 1206435 - 1208747&lt;br&gt;&lt;br&gt;&lt;b&gt;BlastP hit with ctg7_6&lt;/b&gt;&lt;br&gt;Percentage identity: 94&lt;br&gt;Percentage coverage: 100&lt;br&gt;BLAST bit score: 1383&lt;br&gt;E-value: 0.0" locus_tag="DNK50_RS05735" class="clusterblast-orf" id="dummy-1_h1_7_22"  />
</g>
<g id="a1_0023"  >
<polygon points="529,85 534,80 540,80 540,90 534,90 529,85 " style="fill:#158cd8; stroke-width:1; stroke:black; " description="&lt;b&gt;DNK50_RS05740&lt;/b&gt;&lt;br&gt;outer membrane lipoprotein carrier protein LolA&lt;br&gt;Location: 1208737 - 1209333&lt;br&gt;&lt;br&gt;&lt;b&gt;BlastP hit with ctg7_7&lt;/b&gt;&lt;br&gt;Percentage identity: 93&lt;br&gt;Percentage coverage: 84&lt;br&gt;BLAST bit score: 331&lt;br&gt;E-value: 3.69e-115" locus_tag="DNK50_RS05740" class="clusterblast-orf" id="dummy-1_h1_7_23"  />
</g>
<g id="a1_0024"  >
<polygon points="540,85 545,80 548,80 548,90 545,90 540,85 " style="fill:#d015d8; stroke-width:1; stroke:black; " description="&lt;b&gt;DNK50_RS05745&lt;/b&gt;&lt;br&gt;acyl-CoA thioesterase&lt;br&gt;Location: 1209330 - 1209755&lt;br&gt;&lt;br&gt;&lt;b&gt;BlastP hit with ctg7_8&lt;/b&gt;&lt;br&gt;Percentage identity: 93&lt;br&gt;Percentage coverage: 100&lt;br&gt;BLAST bit score: 270&lt;br&gt;E-value: 6.16e-93" locus_tag="DNK50_RS05745" class="clusterblast-orf" id="dummy-1_h1_7_24"  />
</g>
<g id="a1_0025"  >
<polygon points="548,85 553,80 577,80 577,90 553,90 548,85 " style="fill:#d87b15; stroke-width:1; stroke:black; " description="&lt;b&gt;DNK50_RS05750&lt;/b&gt;&lt;br&gt;aromatic amino acid lyase&lt;br&gt;Location: 1209748 - 1211289&lt;br&gt;&lt;br&gt;&lt;b&gt;BlastP hit with ctg7_9&lt;/b&gt;&lt;br&gt;Percentage identity: 98&lt;br&gt;Percentage coverage: 100&lt;br&gt;BLAST bit score: 997&lt;br&gt;E-value: 0.0" locus_tag="DNK50_RS05750" class="clusterblast-orf" id="dummy-1_h1_7_25"  />
</g>
<g id="a1_0026"  >
<polygon points="577,85 582,80 595,80 595,90 582,90 577,85 " style="fill:#15d826; stroke-width:1; stroke:black; " description="&lt;b&gt;DNK50_RS05755&lt;/b&gt;&lt;br&gt;glycosyl transferase&lt;br&gt;Location: 1211273 - 1212208&lt;br&gt;&lt;br&gt;&lt;b&gt;BlastP hit with ctg7_10&lt;/b&gt;&lt;br&gt;Percentage identity: 93&lt;br&gt;Percentage coverage: 100&lt;br&gt;BLAST bit score: 607&lt;br&gt;E-value: 7.7e-221" locus_tag="DNK50_RS05755" class="clusterblast-orf" id="dummy-1_h1_7_26"  />
</g>
<g id="a1_0027"  >
<polygon points="595,85 600,80 609,80 609,90 600,90 595,85 " style="fill:#1559d8; stroke-width:1; stroke:black; " description="&lt;b&gt;DNK50_RS05760&lt;/b&gt;&lt;br&gt;glycosyltransferase family 2 protein&lt;br&gt;Location: 1212205 - 1212939&lt;br&gt;&lt;br&gt;&lt;b&gt;BlastP hit with ctg7_11&lt;/b&gt;&lt;br&gt;Percentage identity: 93&lt;br&gt;Percentage coverage: 100&lt;br&gt;BLAST bit score: 482&lt;br&gt;E-value: 1.51e-173" locus_tag="DNK50_RS05760" class="clusterblast-orf" id="dummy-1_h1_7_27"  />
</g>
<g id="a1_0028"  >
<polygon points="608,85 613,80 640,80 640,90 613,90 608,85 " style="fill:#d815ae; stroke-width:1; stroke:black; " description="&lt;b&gt;DNK50_RS05765&lt;/b&gt;&lt;br&gt;AMP-binding protein&lt;br&gt;Location: 1212932 - 1214602&lt;br&gt;&lt;br&gt;&lt;b&gt;BlastP hit with ctg7_12&lt;/b&gt;&lt;br&gt;Percentage identity: 92&lt;br&gt;Percentage coverage: 100&lt;br&gt;BLAST bit score: 1031&lt;br&gt;E-value: 0.0" locus_tag="DNK50_RS05765" class="clusterblast-orf" id="dummy-1_h1_7_28"  />
</g>
<g id="a1_0029"  >
<polygon points="640,85 645,80 651,80 651,90 645,90 640,85 " style="fill:#d8ae15; stroke-width:1; stroke:black; " description="&lt;b&gt;DNK50_RS05770&lt;/b&gt;&lt;br&gt;hypothetical protein&lt;br&gt;Location: 1214599 - 1215144&lt;br&gt;&lt;br&gt;&lt;b&gt;BlastP hit with ctg7_13&lt;/b&gt;&lt;br&gt;Percentage identity: 94&lt;br&gt;Percentage coverage: 100&lt;br&gt;BLAST bit score: 348&lt;br&gt;E-value: 1.39e-122" locus_tag="DNK50_RS05770" class="clusterblast-orf" id="dummy-1_h1_7_29"  />
</g>
<g id="a1_0030"  >
<polygon points="651,85 655,80 655,90 651,85 " style="fill:#15d859; stroke-width:1; stroke:black; " description="&lt;b&gt;DNK50_RS05775&lt;/b&gt;&lt;br&gt;acyl carrier protein&lt;br&gt;Location: 1215141 - 1215395&lt;br&gt;&lt;br&gt;&lt;b&gt;BlastP hit with ctg7_14&lt;/b&gt;&lt;br&gt;Percentage identity: 94&lt;br&gt;Percentage coverage: 100&lt;br&gt;BLAST bit score: 154&lt;br&gt;E-value: 7.75e-49" locus_tag="DNK50_RS05775" class="clusterblast-orf" id="dummy-1_h1_7_30"  />
</g>
<g id="a1_0031"  >
<polygon points="656,85 661,80 661,80 661,90 661,90 656,85 " style="fill:#1526d8; stroke-width:1; stroke:black; " description="&lt;b&gt;DNK50_RS05780&lt;/b&gt;&lt;br&gt;acyl carrier protein&lt;br&gt;Location: 1215405 - 1215674&lt;br&gt;&lt;br&gt;&lt;b&gt;BlastP hit with ctg7_15&lt;/b&gt;&lt;br&gt;Percentage identity: 96&lt;br&gt;Percentage coverage: 100&lt;br&gt;BLAST bit score: 163&lt;br&gt;E-value: 2.41e-52" locus_tag="DNK50_RS05780" class="clusterblast-orf" id="dummy-1_h1_7_31"  />
</g>
<g id="a1_0032"  >
<polygon points="660,85 665,80 676,80 676,90 665,90 660,85 " style="fill:#d8157b; stroke-width:1; stroke:black; " description="&lt;b&gt;DNK50_RS05785&lt;/b&gt;&lt;br&gt;1-acyl-sn-glycerol-3-phosphate acyltransferase&lt;br&gt;Location: 1215652 - 1216464&lt;br&gt;&lt;br&gt;&lt;b&gt;BlastP hit with ctg7_16&lt;/b&gt;&lt;br&gt;Percentage identity: 93&lt;br&gt;Percentage coverage: 100&lt;br&gt;BLAST bit score: 516&lt;br&gt;E-value: 3.04e-186" locus_tag="DNK50_RS05785" class="clusterblast-orf" id="dummy-1_h1_7_32"  />
</g>
<g id="a1_0033"  >
<polygon points="675,85 680,80 689,80 689,90 680,90 675,85 " style="fill:#d0d815; stroke-width:1; stroke:black; " description="&lt;b&gt;DNK50_RS05790&lt;/b&gt;&lt;br&gt;beta-ketoacyl synthase chain length factor&lt;br&gt;Location: 1216440 - 1217159&lt;br&gt;&lt;br&gt;&lt;b&gt;BlastP hit with ctg7_17&lt;/b&gt;&lt;br&gt;Percentage identity: 95&lt;br&gt;Percentage coverage: 100&lt;br&gt;BLAST bit score: 407&lt;br&gt;E-value: 1.62e-144" locus_tag="DNK50_RS05790" class="clusterblast-orf" id="dummy-1_h1_7_33"  />
</g>
<g id="a1_0034"  >
<polygon points="695,90 705,90 710,85 705,80 695,80 695,90 " style="fill:#15d88c; stroke-width:1; stroke:black; " description="&lt;b&gt;DNK50_RS05795&lt;/b&gt;&lt;br&gt;ParA family protein&lt;br&gt;Location: 1217487 - 1218257&lt;br&gt;&lt;br&gt;&lt;b&gt;BlastP hit with ctg7_18&lt;/b&gt;&lt;br&gt;Percentage identity: 97&lt;br&gt;Percentage coverage: 100&lt;br&gt;BLAST bit score: 492&lt;br&gt;E-value: 4.14e-177" locus_tag="DNK50_RS05795" class="clusterblast-orf" id="dummy-1_h1_7_34"  />
</g>
<g id="a1_0035"  >
<polygon points="719,90 723,85 719,80 719,90 " style="fill:#3715d8; stroke-width:1; stroke:black; " description="&lt;b&gt;DNK50_RS05800&lt;/b&gt;&lt;br&gt;hypothetical protein&lt;br&gt;Location: 1218713 - 1218934&lt;br&gt;&lt;br&gt;&lt;b&gt;BlastP hit with ctg7_19&lt;/b&gt;&lt;br&gt;Percentage identity: 85&lt;br&gt;Percentage coverage: 95&lt;br&gt;BLAST bit score: 118&lt;br&gt;E-value: 6.02e-35" locus_tag="DNK50_RS05800" class="clusterblast-orf" id="dummy-1_h1_7_35"  />
</g>
<g id="a1_0036"  >
<polygon points="725,85 730,80 734,80 734,90 730,90 725,85 " style="fill:#d81548; stroke-width:1; stroke:black; " description="&lt;b&gt;DNK50_RS05805&lt;/b&gt;&lt;br&gt;thioredoxin TrxC&lt;br&gt;Location: 1219066 - 1219500&lt;br&gt;&lt;br&gt;&lt;b&gt;BlastP hit with ctg7_20&lt;/b&gt;&lt;br&gt;Percentage identity: 96&lt;br&gt;Percentage coverage: 100&lt;br&gt;BLAST bit score: 290&lt;br&gt;E-value: 4.48e-101" locus_tag="DNK50_RS05805" class="clusterblast-orf" id="dummy-1_h1_7_36"  />
</g>
<g id="a1_0037"  >
<polygon points="738,90 739,90 744,85 739,80 738,80 738,90 " style="fill:#9dd815; stroke-width:1; stroke:black; " description="&lt;b&gt;DNK50_RS05810&lt;/b&gt;&lt;br&gt;type II toxin-antitoxin system HigB family toxin&lt;br&gt;Location: 1219737 - 1220033&lt;br&gt;&lt;br&gt;&lt;b&gt;BlastP hit with ctg7_21&lt;/b&gt;&lt;br&gt;Percentage identity: 81&lt;br&gt;Percentage coverage: 100&lt;br&gt;BLAST bit score: 167&lt;br&gt;E-value: 9.67e-54" locus_tag="DNK50_RS05810" class="clusterblast-orf" id="dummy-1_h1_7_37"  />
</g>
<g id="a1_0038"  >
<polygon points="744,90 746,90 751,85 746,80 744,80 744,90 " style="fill:#15d8bf; stroke-width:1; stroke:black; " description="&lt;b&gt;DNK50_RS05815&lt;/b&gt;&lt;br&gt;transcriptional regulator&lt;br&gt;Location: 1220030 - 1220431&lt;br&gt;&lt;br&gt;&lt;b&gt;BlastP hit with ctg7_22&lt;/b&gt;&lt;br&gt;Percentage identity: 84&lt;br&gt;Percentage coverage: 100&lt;br&gt;BLAST bit score: 227&lt;br&gt;E-value: 2.87e-76" locus_tag="DNK50_RS05815" class="clusterblast-orf" id="dummy-1_h1_7_38"  />
</g>
<g id="a1_0039"  >
<polygon points="752,85 757,80 780,80 780,90 757,90 752,85 " style="fill:#6a15d8; stroke-width:1; stroke:black; " description="&lt;b&gt;DNK50_RS05820&lt;/b&gt;&lt;br&gt;YdiU family protein&lt;br&gt;Location: 1220437 - 1221900&lt;br&gt;&lt;br&gt;&lt;b&gt;BlastP hit with ctg7_23&lt;/b&gt;&lt;br&gt;Percentage identity: 95&lt;br&gt;Percentage coverage: 100&lt;br&gt;BLAST bit score: 946&lt;br&gt;E-value: 0.0" locus_tag="DNK50_RS05820" class="clusterblast-orf" id="dummy-1_h1_7_39"  />
</g>
</svg>
