<svg xmlns="http://www.w3.org/2000/svg" xmlns:xlink="http://www.w3.org/1999/xlink" version="1.1" x="0" y="0" height="230" width="800" viewBox="0 0 800 230" preserveAspectRatio="none"  >
<g label="Query sequence" class="clusterblast-cluster"  >
<text x="5" y="20" class="clusterblast-acc"  >
Query sequence</text>
<line x1="10" y1="35" x2="778.0" y2="35" style="stroke-width:1; stroke:grey; "  />
<polygon points="41,40 43,40 48,35 43,30 41,30 41,40 " style="fill:#d81515; stroke-width:1; stroke:black; " description="&lt;b&gt;ctg28_1&lt;/b&gt;&lt;br&gt;ctg28 1&lt;br&gt;Location: 521 - 1106" locus_tag="ctg28_1" class="clusterblast-orf" id="dummy-1_q0_0_all"  />
<polygon points="51,35 56,30 60,30 60,40 56,40 51,35 " style="fill:#60d815; stroke-width:1; stroke:black; " description="&lt;b&gt;ctg28_2&lt;/b&gt;&lt;br&gt;ctg28 2&lt;br&gt;Location: 1309 - 2056" locus_tag="ctg28_2" class="clusterblast-orf" id="dummy-1_q1_0_all"  />
<polygon points="61,35 66,30 66,30 66,40 66,40 61,35 " style="fill:#15abd8; stroke-width:1; stroke:black; " description="&lt;b&gt;ctg28_3&lt;/b&gt;&lt;br&gt;ctg28 3&lt;br&gt;Location: 2126 - 2519" locus_tag="ctg28_3" class="clusterblast-orf" id="dummy-1_q2_0_all"  />
<polygon points="66,35 71,30 75,30 75,40 71,40 66,35 " style="fill:#8d15d8; stroke-width:1; stroke:black; " description="&lt;b&gt;ctg28_4&lt;/b&gt;&lt;br&gt;ctg28 4&lt;br&gt;Location: 2515 - 3220" locus_tag="ctg28_4" class="clusterblast-orf" id="dummy-1_q3_0_all"  />
<polygon points="75,35 77,30 77,40 75,35 " style="fill:#d84215; stroke-width:1; stroke:black; " description="&lt;b&gt;ctg28_5&lt;/b&gt;&lt;br&gt;ctg28 5&lt;br&gt;Location: 3231 - 3420" locus_tag="ctg28_5" class="clusterblast-orf" id="dummy-1_q4_0_all"  />
<polygon points="95,40 103,40 108,35 103,30 95,30 95,40 " style="fill:#33d815; stroke-width:1; stroke:black; " description="&lt;b&gt;ctg28_6&lt;/b&gt;&lt;br&gt;ctg28 6&lt;br&gt;Location: 4803 - 5865" locus_tag="ctg28_6" class="clusterblast-orf" id="dummy-1_q5_0_all"  />
<polygon points="108,40 151,40 156,35 151,30 108,30 108,40 " style="fill:#157ed8; stroke-width:1; stroke:black; " description="&lt;b&gt;ctg28_7&lt;/b&gt;&lt;br&gt;ctg28 7&lt;br&gt;Location: 5868 - 9630" locus_tag="ctg28_7" class="clusterblast-orf" id="dummy-1_q6_0_all"  />
<polygon points="156,40 164,40 169,35 164,30 156,30 156,40 " style="fill:#157ed8; stroke-width:1; stroke:black; " description="&lt;b&gt;ctg28_8&lt;/b&gt;&lt;br&gt;ctg28 8&lt;br&gt;Location: 9629 - 10628" locus_tag="ctg28_8" class="clusterblast-orf" id="dummy-1_q7_0_all"  />
<polygon points="170,40 172,40 177,35 172,30 170,30 170,40 " style="fill:#ba15d8; stroke-width:1; stroke:black; " description="&lt;b&gt;ctg28_9&lt;/b&gt;&lt;br&gt;ctg28 9&lt;br&gt;Location: 10747 - 11293" locus_tag="ctg28_9" class="clusterblast-orf" id="dummy-1_q8_0_all"  />
<polygon points="180,40 338,40 343,35 338,30 180,30 180,40 " style="fill:#d86f15; stroke-width:1; stroke:black; " description="&lt;b&gt;ctg28_10&lt;/b&gt;&lt;br&gt;ctg28 10&lt;br&gt;Location: 11502 - 24414" locus_tag="ctg28_10" class="clusterblast-orf" id="dummy-1_q9_0_all"  />
<polygon points="343,40 481,40 486,35 481,30 343,30 343,40 " style="fill:#d86f15; stroke-width:1; stroke:black; " description="&lt;b&gt;ctg28_11&lt;/b&gt;&lt;br&gt;ctg28 11&lt;br&gt;Location: 24410 - 35747" locus_tag="ctg28_11" class="clusterblast-orf" id="dummy-1_q10_0_all"  />
<polygon points="486,40 496,40 501,35 496,30 486,30 486,40 " style="fill:#15d824; stroke-width:1; stroke:black; " description="&lt;b&gt;ctg28_12&lt;/b&gt;&lt;br&gt;ctg28 12&lt;br&gt;Location: 35743 - 36886" locus_tag="ctg28_12" class="clusterblast-orf" id="dummy-1_q11_0_all"  />
<polygon points="501,40 521,40 526,35 521,30 501,30 501,40 " style="fill:#1551d8; stroke-width:1; stroke:black; " description="&lt;b&gt;ctg28_13&lt;/b&gt;&lt;br&gt;ctg28 13&lt;br&gt;Location: 36889 - 38848" locus_tag="ctg28_13" class="clusterblast-orf" id="dummy-1_q12_0_all"  />
<polygon points="527,35 532,30 536,30 536,40 532,40 527,35 " style="fill:#d815c9; stroke-width:1; stroke:black; " description="&lt;b&gt;ctg28_14&lt;/b&gt;&lt;br&gt;ctg28 14&lt;br&gt;Location: 38975 - 39653" locus_tag="ctg28_14" class="clusterblast-orf" id="dummy-1_q13_0_all"  />
<polygon points="539,35 544,30 554,30 554,40 544,40 539,35 " style="fill:#d89c15; stroke-width:1; stroke:black; " description="&lt;b&gt;ctg28_15&lt;/b&gt;&lt;br&gt;ctg28 15&lt;br&gt;Location: 39885 - 41130" locus_tag="ctg28_15" class="clusterblast-orf" id="dummy-1_q14_0_all"  />
<polygon points="556,40 557,40 562,35 557,30 556,30 556,40 " style="fill:#15d851; stroke-width:1; stroke:black; " description="&lt;b&gt;ctg28_16&lt;/b&gt;&lt;br&gt;ctg28 16&lt;br&gt;Location: 41253 - 41724" locus_tag="ctg28_16" class="clusterblast-orf" id="dummy-1_q15_0_all"  />
<polygon points="562,35 567,30 590,30 590,40 567,40 562,35 " style="fill:#1524d8; stroke-width:1; stroke:black; " description="&lt;b&gt;ctg28_17&lt;/b&gt;&lt;br&gt;ctg28 17&lt;br&gt;Location: 41769 - 43911" locus_tag="ctg28_17" class="clusterblast-orf" id="dummy-1_q16_0_all"  />
<polygon points="591,35 596,30 601,30 601,40 596,40 591,35 " style="fill:#d8159c; stroke-width:1; stroke:black; " description="&lt;b&gt;ctg28_18&lt;/b&gt;&lt;br&gt;ctg28 18&lt;br&gt;Location: 44016 - 44814" locus_tag="ctg28_18" class="clusterblast-orf" id="dummy-1_q17_0_all"  />
<polygon points="604,40 616,40 621,35 616,30 604,30 604,40 " style="fill:#d8c915; stroke-width:1; stroke:black; " description="&lt;b&gt;ctg28_19&lt;/b&gt;&lt;br&gt;ctg28 19&lt;br&gt;Location: 45051 - 46410" locus_tag="ctg28_19" class="clusterblast-orf" id="dummy-1_q18_0_all"  />
<polygon points="621,40 630,40 635,35 630,30 621,30 621,40 " style="fill:#15d87e; stroke-width:1; stroke:black; " description="&lt;b&gt;ctg28_20&lt;/b&gt;&lt;br&gt;ctg28 20&lt;br&gt;Location: 46432 - 47521" locus_tag="ctg28_20" class="clusterblast-orf" id="dummy-1_q19_0_all"  />
<polygon points="635,40 647,40 652,35 647,30 635,30 635,40 " style="fill:#3315d8; stroke-width:1; stroke:black; " description="&lt;b&gt;ctg28_21&lt;/b&gt;&lt;br&gt;ctg28 21&lt;br&gt;Location: 47517 - 48813" locus_tag="ctg28_21" class="clusterblast-orf" id="dummy-1_q20_0_all"  />
<polygon points="653,35 658,30 664,30 664,40 658,40 653,35 " style="fill:#d8156f; stroke-width:1; stroke:black; " description="&lt;b&gt;ctg28_22&lt;/b&gt;&lt;br&gt;ctg28 22&lt;br&gt;Location: 48925 - 49819" locus_tag="ctg28_22" class="clusterblast-orf" id="dummy-1_q21_0_all"  />
<polygon points="666,40 673,40 678,35 673,30 666,30 666,40 " style="fill:#bad815; stroke-width:1; stroke:black; " description="&lt;b&gt;ctg28_23&lt;/b&gt;&lt;br&gt;ctg28 23&lt;br&gt;Location: 49932 - 50937" locus_tag="ctg28_23" class="clusterblast-orf" id="dummy-1_q22_0_all"  />
<polygon points="679,40 684,40 689,35 684,30 679,30 679,40 " style="fill:#15d8ab; stroke-width:1; stroke:black; " description="&lt;b&gt;ctg28_24&lt;/b&gt;&lt;br&gt;ctg28 24&lt;br&gt;Location: 50952 - 51750" locus_tag="ctg28_24" class="clusterblast-orf" id="dummy-1_q23_0_all"  />
<polygon points="689,40 689,40 694,35 689,30 689,30 689,40 " style="fill:#6015d8; stroke-width:1; stroke:black; " description="&lt;b&gt;ctg28_25&lt;/b&gt;&lt;br&gt;ctg28 25&lt;br&gt;Location: 51777 - 52188" locus_tag="ctg28_25" class="clusterblast-orf" id="dummy-1_q24_0_all"  />
<polygon points="696,35 701,30 714,30 714,40 701,40 696,35 " style="fill:#d81542; stroke-width:1; stroke:black; " description="&lt;b&gt;ctg28_26&lt;/b&gt;&lt;br&gt;ctg28 26&lt;br&gt;Location: 52315 - 53710" locus_tag="ctg28_26" class="clusterblast-orf" id="dummy-1_q25_0_all"  />
<polygon points="713,35 718,30 722,30 722,40 718,40 713,35 " style="fill:#8dd815; stroke-width:1; stroke:black; " description="&lt;b&gt;ctg28_27&lt;/b&gt;&lt;br&gt;ctg28 27&lt;br&gt;Location: 53687 - 54371" locus_tag="ctg28_27" class="clusterblast-orf" id="dummy-1_q26_0_all"  />
<polygon points="727,40 734,40 739,35 734,30 727,30 727,40 " style="fill:#15d8d8; stroke-width:1; stroke:black; " description="&lt;b&gt;ctg28_28&lt;/b&gt;&lt;br&gt;ctg28 28&lt;br&gt;Location: 54781 - 55687" locus_tag="ctg28_28" class="clusterblast-orf" id="dummy-1_q27_0_all"  />
</g>
<g label="NZ_MSDI01000033" description="NZ_MSDI01000033 (35897-100142): Pseudomonas fluorescens strain E24 PF E24 con... (84% of genes show similarity), NRPS" class="clusterblast-cluster"  >
<text x="5" y="70" class="clusterblast-acc"  >
<a xlink:href="https://antismash-db.secondarymetabolites.org/area.html?record=NZ_MSDI01000033&amp;start=35897&amp;end=100142" target="_blank">NZ_MSDI01000033 (35897-100142)</a>: Pseudomonas fluorescens strain E24 PF E24 con... (84% of genes show similarity), NRPS</text>
<line x1="10" y1="85" x2="778.0" y2="85" style="stroke-width:1; stroke:grey; "  />
</g>
<g id="a1_000"  >
<polygon points="0,85 5,80 46,80 46,90 5,90 0,85 " style="fill:white; stroke-width:1; stroke:black; " description="&lt;b&gt;BFW91_RS23950&lt;/b&gt;&lt;br&gt;methionine synthase&lt;br&gt;Location: 37826 - 41536" locus_tag="BFW91_RS23950" class="clusterblast-orf" id="dummy-1_h1_1_0"  />
</g>
<g id="a1_001"  >
<polygon points="49,90 73,90 78,85 73,80 49,80 49,90 " style="fill:white; stroke-width:1; stroke:black; " description="&lt;b&gt;BFW91_RS23955&lt;/b&gt;&lt;br&gt;fatty acid cis/trans isomerase&lt;br&gt;Location: 41700 - 43994" locus_tag="BFW91_RS23955" class="clusterblast-orf" id="dummy-1_h1_1_1"  />
</g>
<g id="a1_002"  >
<polygon points="88,90 90,90 95,85 90,80 88,80 88,90 " style="fill:#d81515; stroke-width:1; stroke:black; " description="&lt;b&gt;BFW91_RS23960&lt;/b&gt;&lt;br&gt;Fe-S biogenesis protein NfuA&lt;br&gt;Location: 44809 - 45393&lt;br&gt;&lt;br&gt;&lt;b&gt;BlastP hit with ctg28_1&lt;/b&gt;&lt;br&gt;Percentage identity: 100&lt;br&gt;Percentage coverage: 100&lt;br&gt;BLAST bit score: 392&lt;br&gt;E-value: 7.68e-140" locus_tag="BFW91_RS23960" class="clusterblast-orf" id="dummy-1_h1_1_2"  />
</g>
<g id="a1_003"  >
<polygon points="97,85 102,80 107,80 107,90 102,90 97,85 " style="fill:#60d815; stroke-width:1; stroke:black; " description="&lt;b&gt;BFW91_RS23965&lt;/b&gt;&lt;br&gt;precorrin-4 C(11)-methyltransferase&lt;br&gt;Location: 45565 - 46311&lt;br&gt;&lt;br&gt;&lt;b&gt;BlastP hit with ctg28_2&lt;/b&gt;&lt;br&gt;Percentage identity: 98&lt;br&gt;Percentage coverage: 100&lt;br&gt;BLAST bit score: 485&lt;br&gt;E-value: 8.73e-175" locus_tag="BFW91_RS23965" class="clusterblast-orf" id="dummy-1_h1_1_3"  />
</g>
<g id="a1_004"  >
<polygon points="108,85 113,80 113,80 113,90 113,90 108,85 " style="fill:#15abd8; stroke-width:1; stroke:black; " description="&lt;b&gt;BFW91_RS23970&lt;/b&gt;&lt;br&gt;cobalamin biosynthesis protein&lt;br&gt;Location: 46382 - 46774&lt;br&gt;&lt;br&gt;&lt;b&gt;BlastP hit with ctg28_3&lt;/b&gt;&lt;br&gt;Percentage identity: 82&lt;br&gt;Percentage coverage: 98&lt;br&gt;BLAST bit score: 202&lt;br&gt;E-value: 1.86e-66" locus_tag="BFW91_RS23970" class="clusterblast-orf" id="dummy-1_h1_1_4"  />
</g>
<g id="a1_005"  >
<polygon points="113,85 118,80 122,80 122,90 118,90 113,85 " style="fill:#8d15d8; stroke-width:1; stroke:black; " description="&lt;b&gt;BFW91_RS23975&lt;/b&gt;&lt;br&gt;CbtA family protein&lt;br&gt;Location: 46771 - 47472&lt;br&gt;&lt;br&gt;&lt;b&gt;BlastP hit with ctg28_4&lt;/b&gt;&lt;br&gt;Percentage identity: 93&lt;br&gt;Percentage coverage: 100&lt;br&gt;BLAST bit score: 421&lt;br&gt;E-value: 8.24e-150" locus_tag="BFW91_RS23975" class="clusterblast-orf" id="dummy-1_h1_1_5"  />
</g>
<g id="a1_006"  >
<polygon points="122,85 124,80 124,90 122,85 " style="fill:#d84215; stroke-width:1; stroke:black; " description="&lt;b&gt;BFW91_RS23980&lt;/b&gt;&lt;br&gt;CbtB-domain containing protein&lt;br&gt;Location: 47484 - 47672&lt;br&gt;&lt;br&gt;&lt;b&gt;BlastP hit with ctg28_5&lt;/b&gt;&lt;br&gt;Percentage identity: 97&lt;br&gt;Percentage coverage: 100&lt;br&gt;BLAST bit score: 114&lt;br&gt;E-value: 6.12e-34" locus_tag="BFW91_RS23980" class="clusterblast-orf" id="dummy-1_h1_1_6"  />
</g>
<g id="a1_007"  >
<polygon points="129,85 134,80 138,80 138,90 134,90 129,85 " style="fill:white; stroke-width:1; stroke:black; " description="&lt;b&gt;BFW91_RS30300&lt;/b&gt;&lt;br&gt;hypothetical protein&lt;br&gt;Location: 48068 - 48745" locus_tag="BFW91_RS30300" class="clusterblast-orf" id="dummy-1_h1_1_7"  />
</g>
<g id="a1_008"  >
<polygon points="143,90 152,90 157,85 152,80 143,80 143,90 " style="fill:#33d815; stroke-width:1; stroke:black; " description="&lt;b&gt;BFW91_RS23990&lt;/b&gt;&lt;br&gt;cobalamin biosynthesis protein CobW&lt;br&gt;Location: 49141 - 50262&lt;br&gt;&lt;br&gt;&lt;b&gt;BlastP hit with ctg28_6&lt;/b&gt;&lt;br&gt;Percentage identity: 98&lt;br&gt;Percentage coverage: 100&lt;br&gt;BLAST bit score: 637&lt;br&gt;E-value: 5.43e-231" locus_tag="BFW91_RS23990" class="clusterblast-orf" id="dummy-1_h1_1_8"  />
</g>
<g id="a1_009"  >
<polygon points="157,90 199,90 204,85 199,80 157,80 157,90 " style="fill:#157ed8; stroke-width:1; stroke:black; " description="&lt;b&gt;BFW91_RS23995&lt;/b&gt;&lt;br&gt;cobaltochelatase subunit CobN&lt;br&gt;Location: 50266 - 54027&lt;br&gt;&lt;br&gt;&lt;b&gt;BlastP hit with ctg28_7&lt;/b&gt;&lt;br&gt;Percentage identity: 98&lt;br&gt;Percentage coverage: 100&lt;br&gt;BLAST bit score: 2484&lt;br&gt;E-value: 0.0" locus_tag="BFW91_RS23995" class="clusterblast-orf" id="dummy-1_h1_1_9"  />
</g>
<g id="a1_0010"  >
<polygon points="204,90 212,90 217,85 212,80 204,80 204,90 " style="fill:#157ed8; stroke-width:1; stroke:black; " description="&lt;b&gt;BFW91_RS24000&lt;/b&gt;&lt;br&gt;AAA family ATPase&lt;br&gt;Location: 54027 - 55025&lt;br&gt;&lt;br&gt;&lt;b&gt;BlastP hit with ctg28_8&lt;/b&gt;&lt;br&gt;Percentage identity: 97&lt;br&gt;Percentage coverage: 100&lt;br&gt;BLAST bit score: 634&lt;br&gt;E-value: 1.19e-230" locus_tag="BFW91_RS24000" class="clusterblast-orf" id="dummy-1_h1_1_10"  />
</g>
<g id="a1_0011"  >
<polygon points="216,90 220,90 225,85 220,80 216,80 216,90 " style="fill:#ba15d8; stroke-width:1; stroke:black; " description="&lt;b&gt;BFW91_RS24005&lt;/b&gt;&lt;br&gt;VWA domain-containing protein&lt;br&gt;Location: 54950 - 55690&lt;br&gt;&lt;br&gt;&lt;b&gt;BlastP hit with ctg28_9&lt;/b&gt;&lt;br&gt;Percentage identity: 92&lt;br&gt;Percentage coverage: 100&lt;br&gt;BLAST bit score: 327&lt;br&gt;E-value: 2.29e-113" locus_tag="BFW91_RS24005" class="clusterblast-orf" id="dummy-1_h1_1_11"  />
</g>
<g id="a1_0012"  >
<polygon points="228,90 386,90 391,85 386,80 228,80 228,90 " style="fill:#d86f15; stroke-width:1; stroke:black; " description="&lt;b&gt;BFW91_RS24010&lt;/b&gt;&lt;br&gt;non-ribosomal peptide synthetase&lt;br&gt;Location: 55898 - 68809&lt;br&gt;&lt;br&gt;&lt;b&gt;BlastP hit with ctg28_10&lt;/b&gt;&lt;br&gt;Percentage identity: 96&lt;br&gt;Percentage coverage: 100&lt;br&gt;BLAST bit score: 8103&lt;br&gt;E-value: 0.0&lt;br&gt;&lt;br&gt;&lt;b&gt;BlastP hit with ctg28_11&lt;/b&gt;&lt;br&gt;Percentage identity: 60&lt;br&gt;Percentage coverage: 57&lt;br&gt;BLAST bit score: 2402&lt;br&gt;E-value: 0.0" locus_tag="BFW91_RS24010" class="clusterblast-orf" id="dummy-1_h1_1_12"  />
</g>
<g id="a1_0013"  >
<polygon points="391,90 530,90 535,85 530,80 391,80 391,90 " style="fill:#d86f15; stroke-width:1; stroke:black; " description="&lt;b&gt;BFW91_RS24015&lt;/b&gt;&lt;br&gt;amino acid adenylation domain-containing protein&lt;br&gt;Location: 68806 - 80142&lt;br&gt;&lt;br&gt;&lt;b&gt;BlastP hit with ctg28_10&lt;/b&gt;&lt;br&gt;Percentage identity: 60&lt;br&gt;Percentage coverage: 50&lt;br&gt;BLAST bit score: 2404&lt;br&gt;E-value: 0.0&lt;br&gt;&lt;br&gt;&lt;b&gt;BlastP hit with ctg28_11&lt;/b&gt;&lt;br&gt;Percentage identity: 96&lt;br&gt;Percentage coverage: 100&lt;br&gt;BLAST bit score: 7174&lt;br&gt;E-value: 0.0" locus_tag="BFW91_RS24015" class="clusterblast-orf" id="dummy-1_h1_1_13"  />
</g>
<g id="a1_0014"  >
<polygon points="535,90 544,90 549,85 544,80 535,80 535,90 " style="fill:#15d824; stroke-width:1; stroke:black; " description="&lt;b&gt;BFW91_RS24020&lt;/b&gt;&lt;br&gt;macrolide transporter subunit MacA&lt;br&gt;Location: 80160 - 81281&lt;br&gt;&lt;br&gt;&lt;b&gt;BlastP hit with ctg28_12&lt;/b&gt;&lt;br&gt;Percentage identity: 97&lt;br&gt;Percentage coverage: 98&lt;br&gt;BLAST bit score: 669&lt;br&gt;E-value: 3.61e-243" locus_tag="BFW91_RS24020" class="clusterblast-orf" id="dummy-1_h1_1_14"  />
</g>
<g id="a1_0015"  >
<polygon points="549,90 569,90 574,85 569,80 549,80 549,90 " style="fill:#1551d8; stroke-width:1; stroke:black; " description="&lt;b&gt;BFW91_RS24025&lt;/b&gt;&lt;br&gt;MacB family efflux pump subunit&lt;br&gt;Location: 81285 - 83243&lt;br&gt;&lt;br&gt;&lt;b&gt;BlastP hit with ctg28_13&lt;/b&gt;&lt;br&gt;Percentage identity: 98&lt;br&gt;Percentage coverage: 100&lt;br&gt;BLAST bit score: 1216&lt;br&gt;E-value: 0.0" locus_tag="BFW91_RS24025" class="clusterblast-orf" id="dummy-1_h1_1_15"  />
</g>
<g id="a1_0016"  >
<polygon points="575,85 580,80 583,80 583,90 580,90 575,85 " style="fill:#d815c9; stroke-width:1; stroke:black; " description="&lt;b&gt;BFW91_RS24030&lt;/b&gt;&lt;br&gt;helix-turn-helix transcriptional regulator&lt;br&gt;Location: 83312 - 83989&lt;br&gt;&lt;br&gt;&lt;b&gt;BlastP hit with ctg28_14&lt;/b&gt;&lt;br&gt;Percentage identity: 95&lt;br&gt;Percentage coverage: 100&lt;br&gt;BLAST bit score: 414&lt;br&gt;E-value: 3.38e-147" locus_tag="BFW91_RS24030" class="clusterblast-orf" id="dummy-1_h1_1_16"  />
</g>
<g id="a1_0017"  >
<polygon points="586,85 591,80 602,80 602,90 591,90 586,85 " style="fill:#d89c15; stroke-width:1; stroke:black; " description="&lt;b&gt;BFW91_RS24035&lt;/b&gt;&lt;br&gt;methionine gamma-lyase&lt;br&gt;Location: 84222 - 85466&lt;br&gt;&lt;br&gt;&lt;b&gt;BlastP hit with ctg28_15&lt;/b&gt;&lt;br&gt;Percentage identity: 98&lt;br&gt;Percentage coverage: 100&lt;br&gt;BLAST bit score: 808&lt;br&gt;E-value: 6.42e-297" locus_tag="BFW91_RS24035" class="clusterblast-orf" id="dummy-1_h1_1_17"  />
</g>
<g id="a1_0018"  >
<polygon points="604,90 605,90 610,85 605,80 604,80 604,90 " style="fill:#15d851; stroke-width:1; stroke:black; " description="&lt;b&gt;BFW91_RS24040&lt;/b&gt;&lt;br&gt;Lrp/AsnC family transcriptional regulator&lt;br&gt;Location: 85590 - 86060&lt;br&gt;&lt;br&gt;&lt;b&gt;BlastP hit with ctg28_16&lt;/b&gt;&lt;br&gt;Percentage identity: 99&lt;br&gt;Percentage coverage: 100&lt;br&gt;BLAST bit score: 305&lt;br&gt;E-value: 2.52e-106" locus_tag="BFW91_RS24040" class="clusterblast-orf" id="dummy-1_h1_1_18"  />
</g>
<g id="a1_0019"  >
<polygon points="611,85 616,80 620,80 620,90 616,90 611,85 " style="fill:white; stroke-width:1; stroke:black; " description="&lt;b&gt;BFW91_RS24045&lt;/b&gt;&lt;br&gt;helix-turn-helix transcriptional regulator&lt;br&gt;Location: 86138 - 86908" locus_tag="BFW91_RS24045" class="clusterblast-orf" id="dummy-1_h1_1_19"  />
</g>
<g id="a1_0020"  >
<polygon points="622,90 631,90 636,85 631,80 622,80 622,90 " style="fill:white; stroke-width:1; stroke:black; " description="&lt;b&gt;BFW91_RS24050&lt;/b&gt;&lt;br&gt;MFS transporter&lt;br&gt;Location: 87007 - 88137" locus_tag="BFW91_RS24050" class="clusterblast-orf" id="dummy-1_h1_1_20"  />
</g>
<g id="a1_0021"  >
<polygon points="636,85 641,80 663,80 663,90 641,90 636,85 " style="fill:#1524d8; stroke-width:1; stroke:black; " description="&lt;b&gt;BFW91_RS24055&lt;/b&gt;&lt;br&gt;TonB-dependent siderophore receptor&lt;br&gt;Location: 88127 - 90268&lt;br&gt;&lt;br&gt;&lt;b&gt;BlastP hit with ctg28_17&lt;/b&gt;&lt;br&gt;Percentage identity: 97&lt;br&gt;Percentage coverage: 100&lt;br&gt;BLAST bit score: 1397&lt;br&gt;E-value: 0.0" locus_tag="BFW91_RS24055" class="clusterblast-orf" id="dummy-1_h1_1_21"  />
</g>
<g id="a1_0022"  >
<polygon points="664,85 669,80 676,80 676,90 669,90 664,85 " style="fill:#d8159c; stroke-width:1; stroke:black; " description="&lt;b&gt;BFW91_RS24060&lt;/b&gt;&lt;br&gt;helix-turn-helix domain-containing protein&lt;br&gt;Location: 90374 - 91270&lt;br&gt;&lt;br&gt;&lt;b&gt;BlastP hit with ctg28_18&lt;/b&gt;&lt;br&gt;Percentage identity: 99&lt;br&gt;Percentage coverage: 100&lt;br&gt;BLAST bit score: 531&lt;br&gt;E-value: 5.55e-192" locus_tag="BFW91_RS24060" class="clusterblast-orf" id="dummy-1_h1_1_22"  />
</g>
<g id="a1_0023"  >
<polygon points="677,90 689,90 694,85 689,80 677,80 677,90 " style="fill:#d8c915; stroke-width:1; stroke:black; " description="&lt;b&gt;BFW91_RS24065&lt;/b&gt;&lt;br&gt;glutamine synthetase&lt;br&gt;Location: 91409 - 92767&lt;br&gt;&lt;br&gt;&lt;b&gt;BlastP hit with ctg28_19&lt;/b&gt;&lt;br&gt;Percentage identity: 100&lt;br&gt;Percentage coverage: 100&lt;br&gt;BLAST bit score: 923&lt;br&gt;E-value: 0.0" locus_tag="BFW91_RS24065" class="clusterblast-orf" id="dummy-1_h1_1_23"  />
</g>
<g id="a1_0024"  >
<polygon points="695,90 704,90 709,85 704,80 695,80 695,90 " style="fill:#15d87e; stroke-width:1; stroke:black; " description="&lt;b&gt;BFW91_RS24070&lt;/b&gt;&lt;br&gt;polyamine ABC transporter substrate-binding protein&lt;br&gt;Location: 92790 - 93878&lt;br&gt;&lt;br&gt;&lt;b&gt;BlastP hit with ctg28_20&lt;/b&gt;&lt;br&gt;Percentage identity: 99&lt;br&gt;Percentage coverage: 100&lt;br&gt;BLAST bit score: 721&lt;br&gt;E-value: 2.18e-264" locus_tag="BFW91_RS24070" class="clusterblast-orf" id="dummy-1_h1_1_24"  />
</g>
<g id="a1_0025"  >
<polygon points="709,90 720,90 725,85 720,80 709,80 709,90 " style="fill:#3315d8; stroke-width:1; stroke:black; " description="&lt;b&gt;BFW91_RS24075&lt;/b&gt;&lt;br&gt;FAD-binding oxidoreductase&lt;br&gt;Location: 93875 - 95170&lt;br&gt;&lt;br&gt;&lt;b&gt;BlastP hit with ctg28_21&lt;/b&gt;&lt;br&gt;Percentage identity: 98&lt;br&gt;Percentage coverage: 100&lt;br&gt;BLAST bit score: 857&lt;br&gt;E-value: 1.51e-315" locus_tag="BFW91_RS24075" class="clusterblast-orf" id="dummy-1_h1_1_25"  />
</g>
<g id="a1_0026"  >
<polygon points="726,85 731,80 733,80 733,90 731,90 726,85 " style="fill:#d8156f; stroke-width:1; stroke:black; " description="&lt;b&gt;BFW91_RS24080&lt;/b&gt;&lt;br&gt;hypothetical protein&lt;br&gt;Location: 95284 - 95810&lt;br&gt;&lt;br&gt;&lt;b&gt;BlastP hit with ctg28_22&lt;/b&gt;&lt;br&gt;Percentage identity: 92&lt;br&gt;Percentage coverage: 29&lt;br&gt;BLAST bit score: 155&lt;br&gt;E-value: 6.08e-46" locus_tag="BFW91_RS24080" class="clusterblast-orf" id="dummy-1_h1_1_26"  />
</g>
<g id="a1_0027"  >
<polygon points="733,90 736,85 733,80 733,90 " style="fill:#bad815; stroke-width:1; stroke:black; " description="&lt;b&gt;BFW91_RS24085&lt;/b&gt;&lt;br&gt;aldo/keto reductase&lt;br&gt;Location: 95818 - 96045&lt;br&gt;&lt;br&gt;&lt;b&gt;BlastP hit with ctg28_23&lt;/b&gt;&lt;br&gt;Percentage identity: 95&lt;br&gt;Percentage coverage: 22&lt;br&gt;BLAST bit score: 131&lt;br&gt;E-value: 1.83e-36" locus_tag="BFW91_RS24085" class="clusterblast-orf" id="dummy-1_h1_1_27"  />
</g>
<g id="a1_0028"  >
<polygon points="736,90 741,90 746,85 741,80 736,80 736,90 " style="fill:#15d8ab; stroke-width:1; stroke:black; " description="&lt;b&gt;BFW91_RS24090&lt;/b&gt;&lt;br&gt;SDR family oxidoreductase&lt;br&gt;Location: 96061 - 96858&lt;br&gt;&lt;br&gt;&lt;b&gt;BlastP hit with ctg28_24&lt;/b&gt;&lt;br&gt;Percentage identity: 99&lt;br&gt;Percentage coverage: 100&lt;br&gt;BLAST bit score: 493&lt;br&gt;E-value: 2.04e-177" locus_tag="BFW91_RS24090" class="clusterblast-orf" id="dummy-1_h1_1_28"  />
</g>
<g id="a1_0029"  >
<polygon points="747,90 747,90 752,85 747,80 747,80 747,90 " style="fill:#6015d8; stroke-width:1; stroke:black; " description="&lt;b&gt;BFW91_RS24095&lt;/b&gt;&lt;br&gt;SRPBCC family protein&lt;br&gt;Location: 96886 - 97302&lt;br&gt;&lt;br&gt;&lt;b&gt;BlastP hit with ctg28_25&lt;/b&gt;&lt;br&gt;Percentage identity: 98&lt;br&gt;Percentage coverage: 99&lt;br&gt;BLAST bit score: 258&lt;br&gt;E-value: 2.42e-88" locus_tag="BFW91_RS24095" class="clusterblast-orf" id="dummy-1_h1_1_29"  />
</g>
<g id="a1_0030"  >
<polygon points="754,85 759,80 771,80 771,90 759,90 754,85 " style="fill:#d81542; stroke-width:1; stroke:black; " description="&lt;b&gt;BFW91_RS24100&lt;/b&gt;&lt;br&gt;HAMP domain-containing histidine kinase&lt;br&gt;Location: 97435 - 98826&lt;br&gt;&lt;br&gt;&lt;b&gt;BlastP hit with ctg28_26&lt;/b&gt;&lt;br&gt;Percentage identity: 98&lt;br&gt;Percentage coverage: 100&lt;br&gt;BLAST bit score: 900&lt;br&gt;E-value: 0.0" locus_tag="BFW91_RS24100" class="clusterblast-orf" id="dummy-1_h1_1_30"  />
</g>
<g id="a1_0031"  >
<polygon points="771,85 776,80 780,80 780,90 776,90 771,85 " style="fill:#8dd815; stroke-width:1; stroke:black; " description="&lt;b&gt;BFW91_RS24105&lt;/b&gt;&lt;br&gt;response regulator transcription factor&lt;br&gt;Location: 98804 - 99487&lt;br&gt;&lt;br&gt;&lt;b&gt;BlastP hit with ctg28_27&lt;/b&gt;&lt;br&gt;Percentage identity: 100&lt;br&gt;Percentage coverage: 100&lt;br&gt;BLAST bit score: 438&lt;br&gt;E-value: 6.91e-157" locus_tag="BFW91_RS24105" class="clusterblast-orf" id="dummy-1_h1_1_31"  />
</g>
</svg>
