<svg xmlns="http://www.w3.org/2000/svg" xmlns:xlink="http://www.w3.org/1999/xlink" version="1.1" x="0" y="0" height="230" width="800" viewBox="0 0 800 230" preserveAspectRatio="none"  >
<g label="Query sequence" class="clusterblast-cluster"  >
<text x="5" y="20" class="clusterblast-acc"  >
Query sequence</text>
<line x1="10" y1="35" x2="778.0" y2="35" style="stroke-width:1; stroke:grey; "  />
<polygon points="5,40 73,40 78,35 73,30 5,30 5,40 " style="fill:#d81515; stroke-width:1; stroke:black; " description="&lt;b&gt;ctg2_38&lt;/b&gt;&lt;br&gt;ctg2 38&lt;br&gt;Location: 47422 - 48313" locus_tag="ctg2_38" class="clusterblast-orf" id="dummy-1_q0_0_all"  />
<polygon points="78,40 158,40 163,35 158,30 78,30 78,40 " style="fill:#15d815; stroke-width:1; stroke:black; " description="&lt;b&gt;ctg2_39&lt;/b&gt;&lt;br&gt;ctg2 39&lt;br&gt;Location: 48309 - 49344" locus_tag="ctg2_39" class="clusterblast-orf" id="dummy-1_q1_0_all"  />
<polygon points="163,40 313,40 318,35 313,30 163,30 163,40 " style="fill:#1597d8; stroke-width:1; stroke:black; " description="&lt;b&gt;ctg2_40&lt;/b&gt;&lt;br&gt;ctg2 40&lt;br&gt;Location: 49340 - 51227" locus_tag="ctg2_40" class="clusterblast-orf" id="dummy-1_q2_0_all"  />
<polygon points="328,40 344,40 349,35 344,30 328,30 328,40 " style="fill:#9715d8; stroke-width:1; stroke:black; " description="&lt;b&gt;ctg2_41&lt;/b&gt;&lt;br&gt;ctg2 41&lt;br&gt;Location: 51344 - 51596" locus_tag="ctg2_41" class="clusterblast-orf" id="dummy-1_q3_0_all"  />
<polygon points="354,40 419,40 424,35 419,30 354,30 354,40 " style="fill:#d89715; stroke-width:1; stroke:black; " description="&lt;b&gt;ctg2_42&lt;/b&gt;&lt;br&gt;ctg2 42&lt;br&gt;Location: 51663 - 52509" locus_tag="ctg2_42" class="clusterblast-orf" id="dummy-1_q4_0_all"  />
<polygon points="423,40 483,40 488,35 483,30 423,30 423,40 " style="fill:#15d897; stroke-width:1; stroke:black; " description="&lt;b&gt;ctg2_43&lt;/b&gt;&lt;br&gt;ctg2 43&lt;br&gt;Location: 52499 - 53288" locus_tag="ctg2_43" class="clusterblast-orf" id="dummy-1_q5_0_all"  />
<polygon points="495,40 588,40 593,35 588,30 495,30 495,40 " style="fill:#1515d8; stroke-width:1; stroke:black; " description="&lt;b&gt;ctg2_44&lt;/b&gt;&lt;br&gt;ctg2 44&lt;br&gt;Location: 53375 - 54560" locus_tag="ctg2_44" class="clusterblast-orf" id="dummy-1_q6_0_all"  />
<polygon points="604,35 609,30 722,30 722,40 609,40 604,35 " style="fill:#d81597; stroke-width:1; stroke:black; " description="&lt;b&gt;ctg2_45&lt;/b&gt;&lt;br&gt;ctg2 45&lt;br&gt;Location: 54693 - 56133" locus_tag="ctg2_45" class="clusterblast-orf" id="dummy-1_q7_0_all"  />
<polygon points="733,40 771,40 776,35 771,30 733,30 733,40 " style="fill:#97d815; stroke-width:1; stroke:black; " description="&lt;b&gt;ctg2_46&lt;/b&gt;&lt;br&gt;ctg2 46&lt;br&gt;Location: 56263 - 56785" locus_tag="ctg2_46" class="clusterblast-orf" id="dummy-1_q8_0_all"  />
</g>
<g label="NZ_PYAQ01000001" description="NZ_PYAQ01000001 (604632-615478): Pseudomonas sp. R9.37 NODE 1 length 780182 c... (100% of genes show similarity), bacteriocin" class="clusterblast-cluster"  >
<text x="5" y="70" class="clusterblast-acc"  >
<a xlink:href="https://antismash-db.secondarymetabolites.org/area.html?record=NZ_PYAQ01000001&amp;start=604632&amp;end=615478" target="_blank">NZ_PYAQ01000001 (604632-615478)</a>: Pseudomonas sp. R9.37 NODE 1 length 780182 c... (100% of genes show similarity), bacteriocin</text>
<line x1="10" y1="85" x2="778.0" y2="85" style="stroke-width:1; stroke:grey; "  />
</g>
<g id="a1_000"  >
<polygon points="0,90 76,90 81,85 76,80 0,80 0,90 " style="fill:#d81515; stroke-width:1; stroke:black; " description="&lt;b&gt;C7U57_RS02860&lt;/b&gt;&lt;br&gt;protease modulator HflC&lt;br&gt;Location: 614819 - 613830&lt;br&gt;&lt;br&gt;&lt;b&gt;BlastP hit with ctg2_38&lt;/b&gt;&lt;br&gt;Percentage identity: 99&lt;br&gt;Percentage coverage: 100&lt;br&gt;BLAST bit score: 491&lt;br&gt;E-value: 4.17e-175" locus_tag="C7U57_RS02860" class="clusterblast-orf" id="dummy-1_h1_9_0"  />
</g>
<g id="a1_001"  >
<polygon points="81,90 161,90 166,85 161,80 81,80 81,90 " style="fill:#15d815; stroke-width:1; stroke:black; " description="&lt;b&gt;C7U57_RS02855&lt;/b&gt;&lt;br&gt;protease modulator HflK&lt;br&gt;Location: 613833 - 612799&lt;br&gt;&lt;br&gt;&lt;b&gt;BlastP hit with ctg2_39&lt;/b&gt;&lt;br&gt;Percentage identity: 96&lt;br&gt;Percentage coverage: 100&lt;br&gt;BLAST bit score: 546&lt;br&gt;E-value: 8.09e-196" locus_tag="C7U57_RS02855" class="clusterblast-orf" id="dummy-1_h1_9_1"  />
</g>
<g id="a1_002"  >
<polygon points="166,90 316,90 321,85 316,80 166,80 166,90 " style="fill:#1597d8; stroke-width:1; stroke:black; " description="&lt;b&gt;C7U57_RS02850&lt;/b&gt;&lt;br&gt;cadmium-translocating P-type ATPase&lt;br&gt;Location: 612802 - 610916&lt;br&gt;&lt;br&gt;&lt;b&gt;BlastP hit with ctg2_40&lt;/b&gt;&lt;br&gt;Percentage identity: 98&lt;br&gt;Percentage coverage: 100&lt;br&gt;BLAST bit score: 1102&lt;br&gt;E-value: 0.0" locus_tag="C7U57_RS02850" class="clusterblast-orf" id="dummy-1_h1_9_2"  />
</g>
<g id="a1_003"  >
<polygon points="331,90 347,90 352,85 347,80 331,80 331,90 " style="fill:#9715d8; stroke-width:1; stroke:black; " description="&lt;b&gt;C7U57_RS02845&lt;/b&gt;&lt;br&gt;hypothetical protein&lt;br&gt;Location: 610799 - 610545&lt;br&gt;&lt;br&gt;&lt;b&gt;BlastP hit with ctg2_41&lt;/b&gt;&lt;br&gt;Percentage identity: 85&lt;br&gt;Percentage coverage: 101&lt;br&gt;BLAST bit score: 108&lt;br&gt;E-value: 7.39e-31" locus_tag="C7U57_RS02845" class="clusterblast-orf" id="dummy-1_h1_9_3"  />
</g>
<g id="a1_004"  >
<polygon points="357,90 422,90 427,85 422,80 357,80 357,90 " style="fill:#d89715; stroke-width:1; stroke:black; " description="&lt;b&gt;C7U57_RS02840&lt;/b&gt;&lt;br&gt;DUF692 domain-containing protein&lt;br&gt;Location: 610478 - 609633&lt;br&gt;&lt;br&gt;&lt;b&gt;BlastP hit with ctg2_42&lt;/b&gt;&lt;br&gt;Percentage identity: 91&lt;br&gt;Percentage coverage: 100&lt;br&gt;BLAST bit score: 524&lt;br&gt;E-value: 4.47e-189" locus_tag="C7U57_RS02840" class="clusterblast-orf" id="dummy-1_h1_9_4"  />
</g>
<g id="a1_005"  >
<polygon points="426,90 486,90 491,85 486,80 426,80 426,90 " style="fill:#15d897; stroke-width:1; stroke:black; " description="&lt;b&gt;C7U57_RS02835&lt;/b&gt;&lt;br&gt;putative DNA-binding domain-containing protein&lt;br&gt;Location: 609642 - 608854&lt;br&gt;&lt;br&gt;&lt;b&gt;BlastP hit with ctg2_43&lt;/b&gt;&lt;br&gt;Percentage identity: 90&lt;br&gt;Percentage coverage: 100&lt;br&gt;BLAST bit score: 489&lt;br&gt;E-value: 1.09e-175" locus_tag="C7U57_RS02835" class="clusterblast-orf" id="dummy-1_h1_9_5"  />
</g>
<g id="a1_006"  >
<polygon points="498,90 591,90 596,85 591,80 498,80 498,90 " style="fill:#1515d8; stroke-width:1; stroke:black; " description="&lt;b&gt;C7U57_RS02830&lt;/b&gt;&lt;br&gt;class I SAM-dependent methyltransferase&lt;br&gt;Location: 608766 - 607582&lt;br&gt;&lt;br&gt;&lt;b&gt;BlastP hit with ctg2_44&lt;/b&gt;&lt;br&gt;Percentage identity: 97&lt;br&gt;Percentage coverage: 100&lt;br&gt;BLAST bit score: 781&lt;br&gt;E-value: 8.91e-287" locus_tag="C7U57_RS02830" class="clusterblast-orf" id="dummy-1_h1_9_6"  />
</g>
<g id="a1_007"  >
<polygon points="607,85 612,80 726,80 726,90 612,90 607,85 " style="fill:#d81597; stroke-width:1; stroke:black; " description="&lt;b&gt;C7U57_RS02825&lt;/b&gt;&lt;br&gt;cardiolipin synthase&lt;br&gt;Location: 607443 - 606004&lt;br&gt;&lt;br&gt;&lt;b&gt;BlastP hit with ctg2_45&lt;/b&gt;&lt;br&gt;Percentage identity: 97&lt;br&gt;Percentage coverage: 100&lt;br&gt;BLAST bit score: 925&lt;br&gt;E-value: 0.0" locus_tag="C7U57_RS02825" class="clusterblast-orf" id="dummy-1_h1_9_7"  />
</g>
<g id="a1_008"  >
<polygon points="737,90 775,90 780,85 775,80 737,80 737,90 " style="fill:#97d815; stroke-width:1; stroke:black; " description="&lt;b&gt;C7U57_RS02820&lt;/b&gt;&lt;br&gt;DUF3617 domain-containing protein&lt;br&gt;Location: 605873 - 605352&lt;br&gt;&lt;br&gt;&lt;b&gt;BlastP hit with ctg2_46&lt;/b&gt;&lt;br&gt;Percentage identity: 99&lt;br&gt;Percentage coverage: 100&lt;br&gt;BLAST bit score: 342&lt;br&gt;E-value: 2.09e-120" locus_tag="C7U57_RS02820" class="clusterblast-orf" id="dummy-1_h1_9_8"  />
</g>
</svg>
