<svg xmlns="http://www.w3.org/2000/svg" xmlns:xlink="http://www.w3.org/1999/xlink" version="1.1" x="0" y="0" height="230" width="800" viewBox="0 0 800 230" preserveAspectRatio="none"  >
<g label="Query sequence" class="clusterblast-cluster"  >
<text x="5" y="20" class="clusterblast-acc"  >
Query sequence</text>
<line x1="10" y1="35" x2="778.0" y2="35" style="stroke-width:1; stroke:grey; "  />
<polygon points="0,35 5,30 16,30 16,40 5,40 0,35 " style="fill:#d81515; stroke-width:1; stroke:black; " description="&lt;b&gt;ctg18_12&lt;/b&gt;&lt;br&gt;ctg18 12&lt;br&gt;Location: 11079 - 12003" locus_tag="ctg18_12" class="clusterblast-orf" id="dummy-1_q0_0_all"  />
<polygon points="22,40 29,40 34,35 29,30 22,30 22,40 " style="fill:#65d815; stroke-width:1; stroke:black; " description="&lt;b&gt;ctg18_13&lt;/b&gt;&lt;br&gt;ctg18 13&lt;br&gt;Location: 12320 - 12992" locus_tag="ctg18_13" class="clusterblast-orf" id="dummy-1_q1_0_all"  />
<polygon points="34,40 48,40 53,35 48,30 34,30 34,40 " style="fill:#15b6d8; stroke-width:1; stroke:black; " description="&lt;b&gt;ctg18_14&lt;/b&gt;&lt;br&gt;ctg18 14&lt;br&gt;Location: 12994 - 14095" locus_tag="ctg18_14" class="clusterblast-orf" id="dummy-1_q2_0_all"  />
<polygon points="54,35 59,30 80,30 80,40 59,40 54,35 " style="fill:#8815d8; stroke-width:1; stroke:black; " description="&lt;b&gt;ctg18_15&lt;/b&gt;&lt;br&gt;ctg18 15&lt;br&gt;Location: 14145 - 15588" locus_tag="ctg18_15" class="clusterblast-orf" id="dummy-1_q3_0_all"  />
<polygon points="82,35 87,30 101,30 101,40 87,40 82,35 " style="fill:#d83815; stroke-width:1; stroke:black; " description="&lt;b&gt;ctg18_16&lt;/b&gt;&lt;br&gt;ctg18 16&lt;br&gt;Location: 15738 - 16803" locus_tag="ctg18_16" class="clusterblast-orf" id="dummy-1_q4_0_all"  />
<polygon points="101,35 106,30 145,30 145,40 106,40 101,35 " style="fill:#43d815; stroke-width:1; stroke:black; " description="&lt;b&gt;ctg18_17&lt;/b&gt;&lt;br&gt;ctg18 17&lt;br&gt;Location: 16792 - 19288" locus_tag="ctg18_17" class="clusterblast-orf" id="dummy-1_q5_0_all"  />
<polygon points="145,35 150,30 157,30 157,40 150,40 145,35 " style="fill:#1593d8; stroke-width:1; stroke:black; " description="&lt;b&gt;ctg18_18&lt;/b&gt;&lt;br&gt;ctg18 18&lt;br&gt;Location: 19256 - 19925" locus_tag="ctg18_18" class="clusterblast-orf" id="dummy-1_q6_0_all"  />
<polygon points="161,40 168,40 173,35 168,30 161,30 161,40 " style="fill:#aa15d8; stroke-width:1; stroke:black; " description="&lt;b&gt;ctg18_19&lt;/b&gt;&lt;br&gt;ctg18 19&lt;br&gt;Location: 20199 - 20874" locus_tag="ctg18_19" class="clusterblast-orf" id="dummy-1_q7_0_all"  />
<polygon points="175,40 177,35 175,30 175,40 " style="fill:white; stroke-width:1; stroke:black; " description="&lt;b&gt;ctg18_20&lt;/b&gt;&lt;br&gt;ctg18 20&lt;br&gt;Location: 20965 - 21067" locus_tag="ctg18_20" class="clusterblast-orf" id="dummy-1_q8_0_all"  />
<polygon points="177,40 201,40 206,35 201,30 177,30 177,40 " style="fill:#d85a15; stroke-width:1; stroke:black; " description="&lt;b&gt;ctg18_21&lt;/b&gt;&lt;br&gt;ctg18 21&lt;br&gt;Location: 21063 - 22719" locus_tag="ctg18_21" class="clusterblast-orf" id="dummy-1_q9_0_all"  />
<polygon points="207,40 229,40 234,35 229,30 207,30 207,40 " style="fill:#d85a15; stroke-width:1; stroke:black; " description="&lt;b&gt;ctg18_22&lt;/b&gt;&lt;br&gt;ctg18 22&lt;br&gt;Location: 22745 - 24263" locus_tag="ctg18_22" class="clusterblast-orf" id="dummy-1_q10_0_all"  />
<polygon points="234,35 239,30 247,30 247,40 239,40 234,35 " style="fill:#21d815; stroke-width:1; stroke:black; " description="&lt;b&gt;ctg18_23&lt;/b&gt;&lt;br&gt;ctg18 23&lt;br&gt;Location: 24284 - 24998" locus_tag="ctg18_23" class="clusterblast-orf" id="dummy-1_q11_0_all"  />
<polygon points="247,35 252,30 260,30 260,40 252,40 247,35 " style="fill:#1571d8; stroke-width:1; stroke:black; " description="&lt;b&gt;ctg18_24&lt;/b&gt;&lt;br&gt;ctg18 24&lt;br&gt;Location: 24997 - 25750" locus_tag="ctg18_24" class="clusterblast-orf" id="dummy-1_q12_0_all"  />
<polygon points="260,35 265,30 281,30 281,40 265,40 260,35 " style="fill:#cd15d8; stroke-width:1; stroke:black; " description="&lt;b&gt;ctg18_25&lt;/b&gt;&lt;br&gt;ctg18 25&lt;br&gt;Location: 25758 - 26952" locus_tag="ctg18_25" class="clusterblast-orf" id="dummy-1_q13_0_all"  />
<polygon points="281,35 286,30 295,30 295,40 286,40 281,35 " style="fill:#d87c15; stroke-width:1; stroke:black; " description="&lt;b&gt;ctg18_26&lt;/b&gt;&lt;br&gt;ctg18 26&lt;br&gt;Location: 26938 - 27745" locus_tag="ctg18_26" class="clusterblast-orf" id="dummy-1_q14_0_all"  />
<polygon points="295,35 300,30 311,30 311,40 300,40 295,35 " style="fill:#15d82c; stroke-width:1; stroke:black; " description="&lt;b&gt;ctg18_27&lt;/b&gt;&lt;br&gt;ctg18 27&lt;br&gt;Location: 27741 - 28599" locus_tag="ctg18_27" class="clusterblast-orf" id="dummy-1_q15_0_all"  />
<polygon points="334,35 339,30 445,30 445,40 339,40 334,35 " style="fill:#154fd8; stroke-width:1; stroke:black; " description="&lt;b&gt;ctg18_28&lt;/b&gt;&lt;br&gt;ctg18 28&lt;br&gt;Location: 29918 - 36188" locus_tag="ctg18_28" class="clusterblast-orf" id="dummy-1_q16_0_all"  />
<polygon points="454,40 463,40 468,35 463,30 454,30 454,40 " style="fill:#d815c1; stroke-width:1; stroke:black; " description="&lt;b&gt;ctg18_29&lt;/b&gt;&lt;br&gt;ctg18 29&lt;br&gt;Location: 36675 - 37470" locus_tag="ctg18_29" class="clusterblast-orf" id="dummy-1_q17_0_all"  />
<polygon points="468,40 489,40 494,35 489,30 468,30 468,40 " style="fill:#d89f15; stroke-width:1; stroke:black; " description="&lt;b&gt;ctg18_30&lt;/b&gt;&lt;br&gt;ctg18 30&lt;br&gt;Location: 37469 - 38939" locus_tag="ctg18_30" class="clusterblast-orf" id="dummy-1_q18_0_all"  />
<polygon points="493,35 498,30 508,30 508,40 498,40 493,35 " style="fill:#15d84f; stroke-width:1; stroke:black; " description="&lt;b&gt;ctg18_31&lt;/b&gt;&lt;br&gt;ctg18 31&lt;br&gt;Location: 38865 - 39726" locus_tag="ctg18_31" class="clusterblast-orf" id="dummy-1_q19_0_all"  />
<polygon points="510,40 517,40 522,35 517,30 510,30 510,40 " style="fill:#152cd8; stroke-width:1; stroke:black; " description="&lt;b&gt;ctg18_32&lt;/b&gt;&lt;br&gt;ctg18 32&lt;br&gt;Location: 39854 - 40520" locus_tag="ctg18_32" class="clusterblast-orf" id="dummy-1_q20_0_all"  />
<polygon points="522,40 531,40 536,35 531,30 522,30 522,40 " style="fill:#152cd8; stroke-width:1; stroke:black; " description="&lt;b&gt;ctg18_33&lt;/b&gt;&lt;br&gt;ctg18 33&lt;br&gt;Location: 40516 - 41287" locus_tag="ctg18_33" class="clusterblast-orf" id="dummy-1_q21_0_all"  />
<polygon points="536,40 557,40 562,35 557,30 536,30 536,40 " style="fill:#d8159f; stroke-width:1; stroke:black; " description="&lt;b&gt;ctg18_34&lt;/b&gt;&lt;br&gt;ctg18 34&lt;br&gt;Location: 41292 - 42753" locus_tag="ctg18_34" class="clusterblast-orf" id="dummy-1_q22_0_all"  />
<polygon points="562,40 573,40 578,35 573,30 562,30 562,40 " style="fill:#d8c115; stroke-width:1; stroke:black; " description="&lt;b&gt;ctg18_35&lt;/b&gt;&lt;br&gt;ctg18 35&lt;br&gt;Location: 42799 - 43657" locus_tag="ctg18_35" class="clusterblast-orf" id="dummy-1_q23_0_all"  />
<polygon points="578,40 580,40 585,35 580,30 578,30 578,40 " style="fill:#15d871; stroke-width:1; stroke:black; " description="&lt;b&gt;ctg18_36&lt;/b&gt;&lt;br&gt;ctg18 36&lt;br&gt;Location: 43672 - 44065" locus_tag="ctg18_36" class="clusterblast-orf" id="dummy-1_q24_0_all"  />
<polygon points="586,40 604,40 609,35 604,30 586,30 586,40 " style="fill:#2115d8; stroke-width:1; stroke:black; " description="&lt;b&gt;ctg18_37&lt;/b&gt;&lt;br&gt;ctg18 37&lt;br&gt;Location: 44110 - 45415" locus_tag="ctg18_37" class="clusterblast-orf" id="dummy-1_q25_0_all"  />
<polygon points="609,40 618,40 623,35 618,30 609,30 609,40 " style="fill:#d8157c; stroke-width:1; stroke:black; " description="&lt;b&gt;ctg18_38&lt;/b&gt;&lt;br&gt;ctg18 38&lt;br&gt;Location: 45426 - 46230" locus_tag="ctg18_38" class="clusterblast-orf" id="dummy-1_q26_0_all"  />
<polygon points="624,40 633,40 638,35 633,30 624,30 624,40 " style="fill:#cdd815; stroke-width:1; stroke:black; " description="&lt;b&gt;ctg18_39&lt;/b&gt;&lt;br&gt;ctg18 39&lt;br&gt;Location: 46245 - 47046" locus_tag="ctg18_39" class="clusterblast-orf" id="dummy-1_q27_0_all"  />
<polygon points="640,35 645,30 648,30 648,40 645,40 640,35 " style="fill:#15d893; stroke-width:1; stroke:black; " description="&lt;b&gt;ctg18_40&lt;/b&gt;&lt;br&gt;ctg18 40&lt;br&gt;Location: 47171 - 47594" locus_tag="ctg18_40" class="clusterblast-orf" id="dummy-1_q28_0_all"  />
<polygon points="651,40 669,40 674,35 669,30 651,30 651,40 " style="fill:#4315d8; stroke-width:1; stroke:black; " description="&lt;b&gt;ctg18_41&lt;/b&gt;&lt;br&gt;ctg18 41&lt;br&gt;Location: 47802 - 49101" locus_tag="ctg18_41" class="clusterblast-orf" id="dummy-1_q29_0_all"  />
<polygon points="675,40 676,40 681,35 676,30 675,30 675,40 " style="fill:#d8155a; stroke-width:1; stroke:black; " description="&lt;b&gt;ctg18_42&lt;/b&gt;&lt;br&gt;ctg18 42&lt;br&gt;Location: 49130 - 49496" locus_tag="ctg18_42" class="clusterblast-orf" id="dummy-1_q30_0_all"  />
<polygon points="681,40 691,40 696,35 691,30 681,30 681,40 " style="fill:#aad815; stroke-width:1; stroke:black; " description="&lt;b&gt;ctg18_43&lt;/b&gt;&lt;br&gt;ctg18 43&lt;br&gt;Location: 49508 - 50330" locus_tag="ctg18_43" class="clusterblast-orf" id="dummy-1_q31_0_all"  />
<polygon points="696,40 705,40 710,35 705,30 696,30 696,40 " style="fill:#15d8b6; stroke-width:1; stroke:black; " description="&lt;b&gt;ctg18_44&lt;/b&gt;&lt;br&gt;ctg18 44&lt;br&gt;Location: 50322 - 51126" locus_tag="ctg18_44" class="clusterblast-orf" id="dummy-1_q32_0_all"  />
<polygon points="710,40 718,40 723,35 718,30 710,30 710,40 " style="fill:#6615d8; stroke-width:1; stroke:black; " description="&lt;b&gt;ctg18_45&lt;/b&gt;&lt;br&gt;ctg18 45&lt;br&gt;Location: 51115 - 51871" locus_tag="ctg18_45" class="clusterblast-orf" id="dummy-1_q33_0_all"  />
<polygon points="724,35 729,30 741,30 741,40 729,40 724,35 " style="fill:#d81538; stroke-width:1; stroke:black; " description="&lt;b&gt;ctg18_46&lt;/b&gt;&lt;br&gt;ctg18 46&lt;br&gt;Location: 51932 - 52874" locus_tag="ctg18_46" class="clusterblast-orf" id="dummy-1_q34_0_all"  />
<polygon points="743,35 748,30 754,30 754,40 748,40 743,35 " style="fill:#88d815; stroke-width:1; stroke:black; " description="&lt;b&gt;ctg18_47&lt;/b&gt;&lt;br&gt;ctg18 47&lt;br&gt;Location: 52985 - 53573" locus_tag="ctg18_47" class="clusterblast-orf" id="dummy-1_q35_0_all"  />
<polygon points="753,35 758,30 780,30 780,40 758,40 753,35 " style="fill:#15d8d8; stroke-width:1; stroke:black; " description="&lt;b&gt;ctg18_48&lt;/b&gt;&lt;br&gt;ctg18 48&lt;br&gt;Location: 53544 - 55044" locus_tag="ctg18_48" class="clusterblast-orf" id="dummy-1_q36_0_all"  />
</g>
<g label="NZ_CP015600" description="NZ_CP015600 (4078713-4122677): Pseudomonas antarctica strain PAMC 27494 chrom... (97% of genes show similarity), NRPS" class="clusterblast-cluster"  >
<text x="5" y="70" class="clusterblast-acc"  >
<a xlink:href="https://antismash-db.secondarymetabolites.org/area.html?record=NZ_CP015600&amp;start=4078713&amp;end=4122677" target="_blank">NZ_CP015600 (4078713-4122677)</a>: Pseudomonas antarctica strain PAMC 27494 chrom... (97% of genes show similarity), NRPS</text>
<line x1="10" y1="85" x2="778.0" y2="85" style="stroke-width:1; stroke:grey; "  />
</g>
<g id="a1_000"  >
<polygon points="0,85 5,80 16,80 16,90 5,90 0,85 " style="fill:#d81515; stroke-width:1; stroke:black; " description="&lt;b&gt;A7J50_RS18230&lt;/b&gt;&lt;br&gt;substrate-binding domain-containing protein&lt;br&gt;Location: 4078714 - 4079637&lt;br&gt;&lt;br&gt;&lt;b&gt;BlastP hit with ctg18_12&lt;/b&gt;&lt;br&gt;Percentage identity: 99&lt;br&gt;Percentage coverage: 100&lt;br&gt;BLAST bit score: 583&lt;br&gt;E-value: 1.12e-211" locus_tag="A7J50_RS18230" class="clusterblast-orf" id="dummy-1_h1_1_0"  />
</g>
<g id="a1_001"  >
<polygon points="22,90 28,90 33,85 28,80 22,80 22,90 " style="fill:#65d815; stroke-width:1; stroke:black; " description="&lt;b&gt;A7J50_RS18235&lt;/b&gt;&lt;br&gt;fatty acid hydroxylase&lt;br&gt;Location: 4079955 - 4080626&lt;br&gt;&lt;br&gt;&lt;b&gt;BlastP hit with ctg18_13&lt;/b&gt;&lt;br&gt;Percentage identity: 99&lt;br&gt;Percentage coverage: 100&lt;br&gt;BLAST bit score: 484&lt;br&gt;E-value: 5.14e-175" locus_tag="A7J50_RS18235" class="clusterblast-orf" id="dummy-1_h1_1_1"  />
</g>
<g id="a1_002"  >
<polygon points="33,90 48,90 53,85 48,80 33,80 33,90 " style="fill:#15b6d8; stroke-width:1; stroke:black; " description="&lt;b&gt;A7J50_RS18240&lt;/b&gt;&lt;br&gt;SMP-30/gluconolactonase/LRE family protein&lt;br&gt;Location: 4080629 - 4081729&lt;br&gt;&lt;br&gt;&lt;b&gt;BlastP hit with ctg18_14&lt;/b&gt;&lt;br&gt;Percentage identity: 99&lt;br&gt;Percentage coverage: 100&lt;br&gt;BLAST bit score: 683&lt;br&gt;E-value: 5.19e-249" locus_tag="A7J50_RS18240" class="clusterblast-orf" id="dummy-1_h1_1_2"  />
</g>
<g id="a1_003"  >
<polygon points="54,85 59,80 79,80 79,90 59,90 54,85 " style="fill:#8815d8; stroke-width:1; stroke:black; " description="&lt;b&gt;A7J50_RS18245&lt;/b&gt;&lt;br&gt;hypothetical protein&lt;br&gt;Location: 4081780 - 4083222&lt;br&gt;&lt;br&gt;&lt;b&gt;BlastP hit with ctg18_15&lt;/b&gt;&lt;br&gt;Percentage identity: 100&lt;br&gt;Percentage coverage: 100&lt;br&gt;BLAST bit score: 965&lt;br&gt;E-value: 0.0" locus_tag="A7J50_RS18245" class="clusterblast-orf" id="dummy-1_h1_1_3"  />
</g>
<g id="a1_004"  >
<polygon points="82,85 87,80 101,80 101,90 87,90 82,85 " style="fill:#d83815; stroke-width:1; stroke:black; " description="&lt;b&gt;A7J50_RS18250&lt;/b&gt;&lt;br&gt;iron ABC transporter permease&lt;br&gt;Location: 4083373 - 4084437&lt;br&gt;&lt;br&gt;&lt;b&gt;BlastP hit with ctg18_16&lt;/b&gt;&lt;br&gt;Percentage identity: 100&lt;br&gt;Percentage coverage: 100&lt;br&gt;BLAST bit score: 743&lt;br&gt;E-value: 4.79e-273" locus_tag="A7J50_RS18250" class="clusterblast-orf" id="dummy-1_h1_1_4"  />
</g>
<g id="a1_005"  >
<polygon points="101,85 106,80 145,80 145,90 106,90 101,85 " style="fill:#43d815; stroke-width:1; stroke:black; " description="&lt;b&gt;A7J50_RS18255&lt;/b&gt;&lt;br&gt;ABC transporter permease&lt;br&gt;Location: 4084427 - 4086889&lt;br&gt;&lt;br&gt;&lt;b&gt;BlastP hit with ctg18_17&lt;/b&gt;&lt;br&gt;Percentage identity: 99&lt;br&gt;Percentage coverage: 99&lt;br&gt;BLAST bit score: 1564&lt;br&gt;E-value: 0.0" locus_tag="A7J50_RS18255" class="clusterblast-orf" id="dummy-1_h1_1_5"  />
</g>
<g id="a1_006"  >
<polygon points="145,85 150,80 156,80 156,90 150,90 145,85 " style="fill:#1593d8; stroke-width:1; stroke:black; " description="&lt;b&gt;A7J50_RS18260&lt;/b&gt;&lt;br&gt;ABC transporter ATP-binding protein&lt;br&gt;Location: 4086891 - 4087559&lt;br&gt;&lt;br&gt;&lt;b&gt;BlastP hit with ctg18_18&lt;/b&gt;&lt;br&gt;Percentage identity: 100&lt;br&gt;Percentage coverage: 100&lt;br&gt;BLAST bit score: 429&lt;br&gt;E-value: 2.15e-153" locus_tag="A7J50_RS18260" class="clusterblast-orf" id="dummy-1_h1_1_6"  />
</g>
<g id="a1_007"  >
<polygon points="161,90 168,90 173,85 168,80 161,80 161,90 " style="fill:#aa15d8; stroke-width:1; stroke:black; " description="&lt;b&gt;A7J50_RS18265&lt;/b&gt;&lt;br&gt;hypothetical protein&lt;br&gt;Location: 4087834 - 4088508&lt;br&gt;&lt;br&gt;&lt;b&gt;BlastP hit with ctg18_19&lt;/b&gt;&lt;br&gt;Percentage identity: 100&lt;br&gt;Percentage coverage: 100&lt;br&gt;BLAST bit score: 455&lt;br&gt;E-value: 1.52e-163" locus_tag="A7J50_RS18265" class="clusterblast-orf" id="dummy-1_h1_1_7"  />
</g>
<g id="a1_008"  >
<polygon points="177,90 201,90 206,85 201,80 177,80 177,90 " style="fill:#d85a15; stroke-width:1; stroke:black; " description="&lt;b&gt;A7J50_RS18270&lt;/b&gt;&lt;br&gt;lipid IV(A) 4-amino-4-deoxy-L-arabinosyltransferase&lt;br&gt;Location: 4088698 - 4090353&lt;br&gt;&lt;br&gt;&lt;b&gt;BlastP hit with ctg18_21&lt;/b&gt;&lt;br&gt;Percentage identity: 100&lt;br&gt;Percentage coverage: 100&lt;br&gt;BLAST bit score: 1099&lt;br&gt;E-value: 0.0" locus_tag="A7J50_RS18270" class="clusterblast-orf" id="dummy-1_h1_1_8"  />
</g>
<g id="a1_009"  >
<polygon points="206,90 228,90 233,85 228,80 206,80 206,90 " style="fill:#d85a15; stroke-width:1; stroke:black; " description="&lt;b&gt;A7J50_RS18275&lt;/b&gt;&lt;br&gt;phospholipid carrier-dependent glycosyltransferase&lt;br&gt;Location: 4090380 - 4091897&lt;br&gt;&lt;br&gt;&lt;b&gt;BlastP hit with ctg18_22&lt;/b&gt;&lt;br&gt;Percentage identity: 100&lt;br&gt;Percentage coverage: 100&lt;br&gt;BLAST bit score: 1047&lt;br&gt;E-value: 0.0" locus_tag="A7J50_RS18275" class="clusterblast-orf" id="dummy-1_h1_1_9"  />
</g>
<g id="a1_0010"  >
<polygon points="234,85 239,80 246,80 246,90 239,90 234,85 " style="fill:#21d815; stroke-width:1; stroke:black; " description="&lt;b&gt;A7J50_RS18280&lt;/b&gt;&lt;br&gt;AAA family ATPase&lt;br&gt;Location: 4091919 - 4092632&lt;br&gt;&lt;br&gt;&lt;b&gt;BlastP hit with ctg18_23&lt;/b&gt;&lt;br&gt;Percentage identity: 100&lt;br&gt;Percentage coverage: 100&lt;br&gt;BLAST bit score: 478&lt;br&gt;E-value: 4.19e-172" locus_tag="A7J50_RS18280" class="clusterblast-orf" id="dummy-1_h1_1_10"  />
</g>
<g id="a1_0011"  >
<polygon points="246,85 251,80 260,80 260,90 251,90 246,85 " style="fill:#1571d8; stroke-width:1; stroke:black; " description="&lt;b&gt;A7J50_RS18285&lt;/b&gt;&lt;br&gt;hypothetical protein&lt;br&gt;Location: 4092632 - 4093384&lt;br&gt;&lt;br&gt;&lt;b&gt;BlastP hit with ctg18_24&lt;/b&gt;&lt;br&gt;Percentage identity: 99&lt;br&gt;Percentage coverage: 100&lt;br&gt;BLAST bit score: 458&lt;br&gt;E-value: 4.77e-164" locus_tag="A7J50_RS18285" class="clusterblast-orf" id="dummy-1_h1_1_11"  />
</g>
<g id="a1_0012"  >
<polygon points="260,85 265,80 281,80 281,90 265,90 260,85 " style="fill:#cd15d8; stroke-width:1; stroke:black; " description="&lt;b&gt;A7J50_RS18290&lt;/b&gt;&lt;br&gt;microcin B17-processing protein McbD&lt;br&gt;Location: 4093393 - 4094568&lt;br&gt;&lt;br&gt;&lt;b&gt;BlastP hit with ctg18_25&lt;/b&gt;&lt;br&gt;Percentage identity: 100&lt;br&gt;Percentage coverage: 98&lt;br&gt;BLAST bit score: 791&lt;br&gt;E-value: 6.87e-291" locus_tag="A7J50_RS18290" class="clusterblast-orf" id="dummy-1_h1_1_12"  />
</g>
<g id="a1_0013"  >
<polygon points="281,85 286,80 295,80 295,90 286,90 281,85 " style="fill:#d87c15; stroke-width:1; stroke:black; " description="&lt;b&gt;A7J50_RS18295&lt;/b&gt;&lt;br&gt;SagB/ThcOx family dehydrogenase&lt;br&gt;Location: 4094573 - 4095379&lt;br&gt;&lt;br&gt;&lt;b&gt;BlastP hit with ctg18_26&lt;/b&gt;&lt;br&gt;Percentage identity: 99&lt;br&gt;Percentage coverage: 100&lt;br&gt;BLAST bit score: 554&lt;br&gt;E-value: 2.1e-201" locus_tag="A7J50_RS18295" class="clusterblast-orf" id="dummy-1_h1_1_13"  />
</g>
<g id="a1_0014"  >
<polygon points="295,85 300,80 310,80 310,90 300,90 295,85 " style="fill:#15d82c; stroke-width:1; stroke:black; " description="&lt;b&gt;A7J50_RS18300&lt;/b&gt;&lt;br&gt;McbB family protein&lt;br&gt;Location: 4095376 - 4096233&lt;br&gt;&lt;br&gt;&lt;b&gt;BlastP hit with ctg18_27&lt;/b&gt;&lt;br&gt;Percentage identity: 100&lt;br&gt;Percentage coverage: 100&lt;br&gt;BLAST bit score: 580&lt;br&gt;E-value: 6.8e-211" locus_tag="A7J50_RS18300" class="clusterblast-orf" id="dummy-1_h1_1_14"  />
</g>
<g id="a1_0015"  >
<polygon points="312,85 316,80 316,90 312,85 " style="fill:white; stroke-width:1; stroke:black; " description="&lt;b&gt;A7J50_RS31425&lt;/b&gt;&lt;br&gt;hypothetical protein&lt;br&gt;Location: 4096328 - 4096561" locus_tag="A7J50_RS31425" class="clusterblast-orf" id="dummy-1_h1_1_15"  />
</g>
<g id="a1_0016"  >
<polygon points="334,85 339,80 445,80 445,90 339,90 334,85 " style="fill:#154fd8; stroke-width:1; stroke:black; " description="&lt;b&gt;A7J50_RS18310&lt;/b&gt;&lt;br&gt;non-ribosomal peptide synthetase&lt;br&gt;Location: 4097552 - 4103821&lt;br&gt;&lt;br&gt;&lt;b&gt;BlastP hit with ctg18_28&lt;/b&gt;&lt;br&gt;Percentage identity: 99&lt;br&gt;Percentage coverage: 100&lt;br&gt;BLAST bit score: 4128&lt;br&gt;E-value: 0.0" locus_tag="A7J50_RS18310" class="clusterblast-orf" id="dummy-1_h1_1_16"  />
</g>
<g id="a1_0017"  >
<polygon points="454,90 463,90 468,85 463,80 454,80 454,90 " style="fill:#d815c1; stroke-width:1; stroke:black; " description="&lt;b&gt;A7J50_RS18315&lt;/b&gt;&lt;br&gt;helix-turn-helix transcriptional regulator&lt;br&gt;Location: 4104309 - 4105103&lt;br&gt;&lt;br&gt;&lt;b&gt;BlastP hit with ctg18_29&lt;/b&gt;&lt;br&gt;Percentage identity: 100&lt;br&gt;Percentage coverage: 100&lt;br&gt;BLAST bit score: 520&lt;br&gt;E-value: 8.11e-188" locus_tag="A7J50_RS18315" class="clusterblast-orf" id="dummy-1_h1_1_17"  />
</g>
<g id="a1_0018"  >
<polygon points="468,90 489,90 494,85 489,80 468,80 468,90 " style="fill:#d89f15; stroke-width:1; stroke:black; " description="&lt;b&gt;A7J50_RS18320&lt;/b&gt;&lt;br&gt;efflux transporter outer membrane subunit&lt;br&gt;Location: 4105103 - 4106572&lt;br&gt;&lt;br&gt;&lt;b&gt;BlastP hit with ctg18_30&lt;/b&gt;&lt;br&gt;Percentage identity: 100&lt;br&gt;Percentage coverage: 100&lt;br&gt;BLAST bit score: 931&lt;br&gt;E-value: 0.0" locus_tag="A7J50_RS18320" class="clusterblast-orf" id="dummy-1_h1_1_18"  />
</g>
<g id="a1_0019"  >
<polygon points="492,85 497,80 508,80 508,90 497,90 492,85 " style="fill:#15d84f; stroke-width:1; stroke:black; " description="&lt;b&gt;A7J50_RS18325&lt;/b&gt;&lt;br&gt;4-hydroxyphenylacetate catabolism regulatory protein HpaA&lt;br&gt;Location: 4106499 - 4107359&lt;br&gt;&lt;br&gt;&lt;b&gt;BlastP hit with ctg18_31&lt;/b&gt;&lt;br&gt;Percentage identity: 99&lt;br&gt;Percentage coverage: 100&lt;br&gt;BLAST bit score: 574&lt;br&gt;E-value: 1.42e-208" locus_tag="A7J50_RS18325" class="clusterblast-orf" id="dummy-1_h1_1_19"  />
</g>
<g id="a1_0020"  >
<polygon points="510,90 517,90 522,85 517,80 510,80 510,90 " style="fill:#152cd8; stroke-width:1; stroke:black; " description="&lt;b&gt;A7J50_RS18330&lt;/b&gt;&lt;br&gt;4-hydroxyphenylacetate isomerase&lt;br&gt;Location: 4107488 - 4108153&lt;br&gt;&lt;br&gt;&lt;b&gt;BlastP hit with ctg18_32&lt;/b&gt;&lt;br&gt;Percentage identity: 100&lt;br&gt;Percentage coverage: 100&lt;br&gt;BLAST bit score: 447&lt;br&gt;E-value: 1.93e-160&lt;br&gt;&lt;br&gt;&lt;b&gt;BlastP hit with ctg18_33&lt;/b&gt;&lt;br&gt;Percentage identity: 41&lt;br&gt;Percentage coverage: 84&lt;br&gt;BLAST bit score: 150&lt;br&gt;E-value: 8.13e-43" locus_tag="A7J50_RS18330" class="clusterblast-orf" id="dummy-1_h1_1_20"  />
</g>
<g id="a1_0021"  >
<polygon points="522,90 530,90 535,85 530,80 522,80 522,90 " style="fill:#152cd8; stroke-width:1; stroke:black; " description="&lt;b&gt;A7J50_RS18335&lt;/b&gt;&lt;br&gt;2-hydroxyhepta-2,4-diene-1,7-dioate isomerase&lt;br&gt;Location: 4108150 - 4108920&lt;br&gt;&lt;br&gt;&lt;b&gt;BlastP hit with ctg18_32&lt;/b&gt;&lt;br&gt;Percentage identity: 42&lt;br&gt;Percentage coverage: 98&lt;br&gt;BLAST bit score: 150&lt;br&gt;E-value: 4.97e-43&lt;br&gt;&lt;br&gt;&lt;b&gt;BlastP hit with ctg18_33&lt;/b&gt;&lt;br&gt;Percentage identity: 100&lt;br&gt;Percentage coverage: 100&lt;br&gt;BLAST bit score: 523&lt;br&gt;E-value: 1.3e-189" locus_tag="A7J50_RS18335" class="clusterblast-orf" id="dummy-1_h1_1_21"  />
</g>
<g id="a1_0022"  >
<polygon points="536,90 556,90 561,85 556,80 536,80 536,90 " style="fill:#d8159f; stroke-width:1; stroke:black; " description="&lt;b&gt;A7J50_RS18340&lt;/b&gt;&lt;br&gt;5-carboxymethyl-2-hydroxymuconate semialdehyde dehydrogenase&lt;br&gt;Location: 4108926 - 4110386&lt;br&gt;&lt;br&gt;&lt;b&gt;BlastP hit with ctg18_34&lt;/b&gt;&lt;br&gt;Percentage identity: 99&lt;br&gt;Percentage coverage: 100&lt;br&gt;BLAST bit score: 969&lt;br&gt;E-value: 0.0" locus_tag="A7J50_RS18340" class="clusterblast-orf" id="dummy-1_h1_1_22"  />
</g>
<g id="a1_0023"  >
<polygon points="562,90 572,90 577,85 572,80 562,80 562,90 " style="fill:#d8c115; stroke-width:1; stroke:black; " description="&lt;b&gt;A7J50_RS18345&lt;/b&gt;&lt;br&gt;3,4-dihydroxyphenylacetate 2,3-dioxygenase&lt;br&gt;Location: 4110433 - 4111290&lt;br&gt;&lt;br&gt;&lt;b&gt;BlastP hit with ctg18_35&lt;/b&gt;&lt;br&gt;Percentage identity: 100&lt;br&gt;Percentage coverage: 100&lt;br&gt;BLAST bit score: 593&lt;br&gt;E-value: 2.2e-216" locus_tag="A7J50_RS18345" class="clusterblast-orf" id="dummy-1_h1_1_23"  />
</g>
<g id="a1_0024"  >
<polygon points="578,90 580,90 585,85 580,80 578,80 578,90 " style="fill:#15d871; stroke-width:1; stroke:black; " description="&lt;b&gt;A7J50_RS18350&lt;/b&gt;&lt;br&gt;5-carboxymethyl-2-hydroxymuconate Delta-isomerase&lt;br&gt;Location: 4111306 - 4111698&lt;br&gt;&lt;br&gt;&lt;b&gt;BlastP hit with ctg18_36&lt;/b&gt;&lt;br&gt;Percentage identity: 100&lt;br&gt;Percentage coverage: 100&lt;br&gt;BLAST bit score: 268&lt;br&gt;E-value: 7.75e-93" locus_tag="A7J50_RS18350" class="clusterblast-orf" id="dummy-1_h1_1_24"  />
</g>
<g id="a1_0025"  >
<polygon points="586,90 604,90 609,85 604,80 586,80 586,90 " style="fill:#2115d8; stroke-width:1; stroke:black; " description="&lt;b&gt;A7J50_RS18355&lt;/b&gt;&lt;br&gt;MFS transporter&lt;br&gt;Location: 4111744 - 4113048&lt;br&gt;&lt;br&gt;&lt;b&gt;BlastP hit with ctg18_37&lt;/b&gt;&lt;br&gt;Percentage identity: 100&lt;br&gt;Percentage coverage: 100&lt;br&gt;BLAST bit score: 857&lt;br&gt;E-value: 9.5e-316" locus_tag="A7J50_RS18355" class="clusterblast-orf" id="dummy-1_h1_1_25"  />
</g>
<g id="a1_0026"  >
<polygon points="609,90 618,90 623,85 618,80 609,80 609,90 " style="fill:#d8157c; stroke-width:1; stroke:black; " description="&lt;b&gt;A7J50_RS18360&lt;/b&gt;&lt;br&gt;2-oxo-hepta-3-ene-1,7-dioic acid hydratase&lt;br&gt;Location: 4113060 - 4113863&lt;br&gt;&lt;br&gt;&lt;b&gt;BlastP hit with ctg18_38&lt;/b&gt;&lt;br&gt;Percentage identity: 100&lt;br&gt;Percentage coverage: 100&lt;br&gt;BLAST bit score: 535&lt;br&gt;E-value: 5.74e-194" locus_tag="A7J50_RS18360" class="clusterblast-orf" id="dummy-1_h1_1_26"  />
</g>
<g id="a1_0027"  >
<polygon points="623,90 633,90 638,85 633,80 623,80 623,90 " style="fill:#cdd815; stroke-width:1; stroke:black; " description="&lt;b&gt;A7J50_RS18365&lt;/b&gt;&lt;br&gt;4-hydroxy-2-oxoheptanedioate aldolase&lt;br&gt;Location: 4113879 - 4114679&lt;br&gt;&lt;br&gt;&lt;b&gt;BlastP hit with ctg18_39&lt;/b&gt;&lt;br&gt;Percentage identity: 99&lt;br&gt;Percentage coverage: 100&lt;br&gt;BLAST bit score: 513&lt;br&gt;E-value: 3.7e-185" locus_tag="A7J50_RS18365" class="clusterblast-orf" id="dummy-1_h1_1_27"  />
</g>
<g id="a1_0028"  >
<polygon points="640,85 645,80 647,80 647,90 645,90 640,85 " style="fill:#15d893; stroke-width:1; stroke:black; " description="&lt;b&gt;A7J50_RS18370&lt;/b&gt;&lt;br&gt;homoprotocatechuate degradation operon regulator HpaR&lt;br&gt;Location: 4114805 - 4115227&lt;br&gt;&lt;br&gt;&lt;b&gt;BlastP hit with ctg18_40&lt;/b&gt;&lt;br&gt;Percentage identity: 100&lt;br&gt;Percentage coverage: 100&lt;br&gt;BLAST bit score: 273&lt;br&gt;E-value: 1.71e-94" locus_tag="A7J50_RS18370" class="clusterblast-orf" id="dummy-1_h1_1_28"  />
</g>
<g id="a1_0029"  >
<polygon points="651,90 669,90 674,85 669,80 651,80 651,90 " style="fill:#4315d8; stroke-width:1; stroke:black; " description="&lt;b&gt;A7J50_RS18375&lt;/b&gt;&lt;br&gt;FAD-binding oxidoreductase&lt;br&gt;Location: 4115436 - 4116734&lt;br&gt;&lt;br&gt;&lt;b&gt;BlastP hit with ctg18_41&lt;/b&gt;&lt;br&gt;Percentage identity: 100&lt;br&gt;Percentage coverage: 100&lt;br&gt;BLAST bit score: 878&lt;br&gt;E-value: 0.0" locus_tag="A7J50_RS18375" class="clusterblast-orf" id="dummy-1_h1_1_29"  />
</g>
<g id="a1_0030"  >
<polygon points="675,90 676,90 681,85 676,80 675,80 675,90 " style="fill:#d8155a; stroke-width:1; stroke:black; " description="&lt;b&gt;A7J50_RS18380&lt;/b&gt;&lt;br&gt;DUF861 domain-containing protein&lt;br&gt;Location: 4116764 - 4117129&lt;br&gt;&lt;br&gt;&lt;b&gt;BlastP hit with ctg18_42&lt;/b&gt;&lt;br&gt;Percentage identity: 98&lt;br&gt;Percentage coverage: 100&lt;br&gt;BLAST bit score: 241&lt;br&gt;E-value: 3.81e-82" locus_tag="A7J50_RS18380" class="clusterblast-orf" id="dummy-1_h1_1_30"  />
</g>
<g id="a1_0031"  >
<polygon points="681,90 691,90 696,85 691,80 681,80 681,90 " style="fill:#aad815; stroke-width:1; stroke:black; " description="&lt;b&gt;A7J50_RS18385&lt;/b&gt;&lt;br&gt;molybdenum cofactor biosynthesis F family protein&lt;br&gt;Location: 4117142 - 4117963&lt;br&gt;&lt;br&gt;&lt;b&gt;BlastP hit with ctg18_43&lt;/b&gt;&lt;br&gt;Percentage identity: 99&lt;br&gt;Percentage coverage: 100&lt;br&gt;BLAST bit score: 576&lt;br&gt;E-value: 8.94e-210" locus_tag="A7J50_RS18385" class="clusterblast-orf" id="dummy-1_h1_1_31"  />
</g>
<g id="a1_0032"  >
<polygon points="696,90 705,90 710,85 705,80 696,80 696,90 " style="fill:#15d8b6; stroke-width:1; stroke:black; " description="&lt;b&gt;A7J50_RS18390&lt;/b&gt;&lt;br&gt;SDR family oxidoreductase&lt;br&gt;Location: 4117956 - 4118759&lt;br&gt;&lt;br&gt;&lt;b&gt;BlastP hit with ctg18_44&lt;/b&gt;&lt;br&gt;Percentage identity: 100&lt;br&gt;Percentage coverage: 100&lt;br&gt;BLAST bit score: 533&lt;br&gt;E-value: 3.32e-193" locus_tag="A7J50_RS18390" class="clusterblast-orf" id="dummy-1_h1_1_32"  />
</g>
<g id="a1_0033"  >
<polygon points="710,90 718,90 723,85 718,80 710,80 710,90 " style="fill:#6615d8; stroke-width:1; stroke:black; " description="&lt;b&gt;A7J50_RS18395&lt;/b&gt;&lt;br&gt;SDR family oxidoreductase&lt;br&gt;Location: 4118749 - 4119504&lt;br&gt;&lt;br&gt;&lt;b&gt;BlastP hit with ctg18_45&lt;/b&gt;&lt;br&gt;Percentage identity: 100&lt;br&gt;Percentage coverage: 100&lt;br&gt;BLAST bit score: 468&lt;br&gt;E-value: 5.61e-168" locus_tag="A7J50_RS18395" class="clusterblast-orf" id="dummy-1_h1_1_33"  />
</g>
<g id="a1_0034"  >
<polygon points="724,85 729,80 741,80 741,90 729,90 724,85 " style="fill:#d81538; stroke-width:1; stroke:black; " description="&lt;b&gt;A7J50_RS18400&lt;/b&gt;&lt;br&gt;transcriptional regulator FeaR&lt;br&gt;Location: 4119566 - 4120507&lt;br&gt;&lt;br&gt;&lt;b&gt;BlastP hit with ctg18_46&lt;/b&gt;&lt;br&gt;Percentage identity: 100&lt;br&gt;Percentage coverage: 100&lt;br&gt;BLAST bit score: 629&lt;br&gt;E-value: 1.84e-229" locus_tag="A7J50_RS18400" class="clusterblast-orf" id="dummy-1_h1_1_34"  />
</g>
<g id="a1_0035"  >
<polygon points="743,85 748,80 754,80 754,90 748,90 743,85 " style="fill:#88d815; stroke-width:1; stroke:black; " description="&lt;b&gt;A7J50_RS18405&lt;/b&gt;&lt;br&gt;DUF3156 family protein&lt;br&gt;Location: 4120619 - 4121215&lt;br&gt;&lt;br&gt;&lt;b&gt;BlastP hit with ctg18_47&lt;/b&gt;&lt;br&gt;Percentage identity: 100&lt;br&gt;Percentage coverage: 100&lt;br&gt;BLAST bit score: 381&lt;br&gt;E-value: 3.46e-135" locus_tag="A7J50_RS18405" class="clusterblast-orf" id="dummy-1_h1_1_35"  />
</g>
<g id="a1_0036"  >
<polygon points="753,85 758,80 779,80 779,90 758,90 753,85 " style="fill:#15d8d8; stroke-width:1; stroke:black; " description="&lt;b&gt;A7J50_RS18410&lt;/b&gt;&lt;br&gt;APC family permease&lt;br&gt;Location: 4121178 - 4122677&lt;br&gt;&lt;br&gt;&lt;b&gt;BlastP hit with ctg18_48&lt;/b&gt;&lt;br&gt;Percentage identity: 100&lt;br&gt;Percentage coverage: 100&lt;br&gt;BLAST bit score: 963&lt;br&gt;E-value: 0.0" locus_tag="A7J50_RS18410" class="clusterblast-orf" id="dummy-1_h1_1_36"  />
</g>
</svg>
