<svg xmlns="http://www.w3.org/2000/svg" xmlns:xlink="http://www.w3.org/1999/xlink" version="1.1" x="0" y="0" height="230" width="800" viewBox="0 0 800 230" preserveAspectRatio="none"  >
<g label="Query sequence" class="clusterblast-cluster"  >
<text x="5" y="20" class="clusterblast-acc"  >
Query sequence</text>
<line x1="10" y1="35" x2="778.0" y2="35" style="stroke-width:1; stroke:grey; "  />
<polygon points="286,35 291,30 350,30 350,40 291,40 286,35 " style="fill:#d81515; stroke-width:1; stroke:black; " description="&lt;b&gt;ctg25_1&lt;/b&gt;&lt;br&gt;ctg25 1&lt;br&gt;Location: 549 - 2748" locus_tag="ctg25_1" class="clusterblast-orf" id="dummy-1_q0_0_all"  />
<polygon points="354,40 367,40 372,35 367,30 354,30 354,40 " style="fill:#77d815; stroke-width:1; stroke:black; " description="&lt;b&gt;ctg25_2&lt;/b&gt;&lt;br&gt;ctg25 2&lt;br&gt;Location: 2884 - 3505" locus_tag="ctg25_2" class="clusterblast-orf" id="dummy-1_q1_0_all"  />
<polygon points="373,35 378,30 392,30 392,40 378,40 373,35 " style="fill:#15d8d8; stroke-width:1; stroke:black; " description="&lt;b&gt;ctg25_3&lt;/b&gt;&lt;br&gt;ctg25 3&lt;br&gt;Location: 3518 - 4175" locus_tag="ctg25_3" class="clusterblast-orf" id="dummy-1_q2_0_all"  />
<polygon points="395,40 409,40 414,35 409,30 395,30 395,40 " style="fill:#7715d8; stroke-width:1; stroke:black; " description="&lt;b&gt;ctg25_4&lt;/b&gt;&lt;br&gt;ctg25 4&lt;br&gt;Location: 4286 - 4919" locus_tag="ctg25_4" class="clusterblast-orf" id="dummy-1_q3_0_all"  />
<polygon points="416,40 420,35 416,30 416,40 " style="fill:#d8a715; stroke-width:1; stroke:black; " description="&lt;b&gt;ctg25_5&lt;/b&gt;&lt;br&gt;ctg25 5&lt;br&gt;Location: 4996 - 5152" locus_tag="ctg25_5" class="clusterblast-orf" id="dummy-1_q4_0_all"  />
<polygon points="422,40 455,40 460,35 455,30 422,30 422,40 " style="fill:#15d846; stroke-width:1; stroke:black; " description="&lt;b&gt;ctg25_6&lt;/b&gt;&lt;br&gt;ctg25 6&lt;br&gt;Location: 5202 - 6516" locus_tag="ctg25_6" class="clusterblast-orf" id="dummy-1_q5_0_all"  />
<polygon points="462,40 474,40 479,35 474,30 462,30 462,40 " style="fill:#1546d8; stroke-width:1; stroke:black; " description="&lt;b&gt;ctg25_7&lt;/b&gt;&lt;br&gt;ctg25 7&lt;br&gt;Location: 6585 - 7164" locus_tag="ctg25_7" class="clusterblast-orf" id="dummy-1_q6_0_all"  />
<polygon points="480,35 485,30 493,30 493,40 485,40 480,35 " style="fill:#d815a7; stroke-width:1; stroke:black; " description="&lt;b&gt;ctg25_8&lt;/b&gt;&lt;br&gt;ctg25 8&lt;br&gt;Location: 7207 - 7657" locus_tag="ctg25_8" class="clusterblast-orf" id="dummy-1_q7_0_all"  />
</g>
<g label="NZ_CP022960" description="NZ_CP022960 (5017988-5046020): Pseudomonas sp. NS1(2017) strain NS1 chromosome (20% of genes show similarity), thiopeptide" class="clusterblast-cluster"  >
<text x="5" y="70" class="clusterblast-acc"  >
<a xlink:href="https://antismash-db.secondarymetabolites.org/area.html?record=NZ_CP022960&amp;start=5017988&amp;end=5046020" target="_blank">NZ_CP022960 (5017988-5046020)</a>: Pseudomonas sp. NS1(2017) strain NS1 chromosome (20% of genes show similarity), thiopeptide</text>
<line x1="10" y1="85" x2="778.0" y2="85" style="stroke-width:1; stroke:grey; "  />
</g>
<g id="a1_000"  >
<polygon points="0,85 5,80 19,80 19,90 5,90 0,85 " style="fill:white; stroke-width:1; stroke:black; " description="&lt;b&gt;CI807_RS23390&lt;/b&gt;&lt;br&gt;hypothetical protein&lt;br&gt;Location: 5018578 - 5019243" locus_tag="CI807_RS23390" class="clusterblast-orf" id="dummy-1_h1_8_0"  />
</g>
<g id="a1_001"  >
<polygon points="26,90 60,90 65,85 60,80 26,80 26,90 " style="fill:white; stroke-width:1; stroke:black; " description="&lt;b&gt;CI807_RS23395&lt;/b&gt;&lt;br&gt;MFS transporter&lt;br&gt;Location: 5019489 - 5020826" locus_tag="CI807_RS23395" class="clusterblast-orf" id="dummy-1_h1_8_1"  />
</g>
<g id="a1_002"  >
<polygon points="65,85 70,80 99,80 99,90 70,90 65,85 " style="fill:white; stroke-width:1; stroke:black; " description="&lt;b&gt;CI807_RS23400&lt;/b&gt;&lt;br&gt;MFS transporter&lt;br&gt;Location: 5020844 - 5022010" locus_tag="CI807_RS23400" class="clusterblast-orf" id="dummy-1_h1_8_2"  />
</g>
<g id="a1_003"  >
<polygon points="102,90 123,90 128,85 123,80 102,80 102,90 " style="fill:white; stroke-width:1; stroke:black; " description="&lt;b&gt;CI807_RS23405&lt;/b&gt;&lt;br&gt;LysR family transcriptional regulator&lt;br&gt;Location: 5022105 - 5022998" locus_tag="CI807_RS23405" class="clusterblast-orf" id="dummy-1_h1_8_3"  />
</g>
<g id="a1_004"  >
<polygon points="129,85 134,80 155,80 155,90 134,90 129,85 " style="fill:white; stroke-width:1; stroke:black; " description="&lt;b&gt;CI807_RS23410&lt;/b&gt;&lt;br&gt;LysR family transcriptional regulator&lt;br&gt;Location: 5023020 - 5023916" locus_tag="CI807_RS23410" class="clusterblast-orf" id="dummy-1_h1_8_4"  />
</g>
<g id="a1_005"  >
<polygon points="159,90 173,90 178,85 173,80 159,80 159,90 " style="fill:white; stroke-width:1; stroke:black; " description="&lt;b&gt;CI807_RS23415&lt;/b&gt;&lt;br&gt;hydrolase&lt;br&gt;Location: 5024069 - 5024722" locus_tag="CI807_RS23415" class="clusterblast-orf" id="dummy-1_h1_8_5"  />
</g>
<g id="a1_006"  >
<polygon points="179,85 184,80 203,80 203,90 184,90 179,85 " style="fill:white; stroke-width:1; stroke:black; " description="&lt;b&gt;CI807_RS23420&lt;/b&gt;&lt;br&gt;NAD(P)-binding domain-containing protein&lt;br&gt;Location: 5024758 - 5025573" locus_tag="CI807_RS23420" class="clusterblast-orf" id="dummy-1_h1_8_6"  />
</g>
<g id="a1_007"  >
<polygon points="205,90 210,90 215,85 210,80 205,80 205,90 " style="fill:white; stroke-width:1; stroke:black; " description="&lt;b&gt;CI807_RS23425&lt;/b&gt;&lt;br&gt;VOC family protein&lt;br&gt;Location: 5025652 - 5026008" locus_tag="CI807_RS23425" class="clusterblast-orf" id="dummy-1_h1_8_7"  />
</g>
<g id="a1_008"  >
<polygon points="217,90 230,90 235,85 230,80 217,80 217,90 " style="fill:white; stroke-width:1; stroke:black; " description="&lt;b&gt;CI807_RS23430&lt;/b&gt;&lt;br&gt;hypothetical protein&lt;br&gt;Location: 5026053 - 5026691" locus_tag="CI807_RS23430" class="clusterblast-orf" id="dummy-1_h1_8_8"  />
</g>
<g id="a1_009"  >
<polygon points="237,90 248,90 253,85 248,80 237,80 237,90 " style="fill:white; stroke-width:1; stroke:black; " description="&lt;b&gt;CI807_RS23435&lt;/b&gt;&lt;br&gt;adenylate kinase&lt;br&gt;Location: 5026750 - 5027298" locus_tag="CI807_RS23435" class="clusterblast-orf" id="dummy-1_h1_8_9"  />
</g>
<g id="a1_0010"  >
<polygon points="255,90 268,90 273,85 268,80 255,80 255,90 " style="fill:white; stroke-width:1; stroke:black; " description="&lt;b&gt;CI807_RS23440&lt;/b&gt;&lt;br&gt;LysE family translocator&lt;br&gt;Location: 5027365 - 5027985" locus_tag="CI807_RS23440" class="clusterblast-orf" id="dummy-1_h1_8_10"  />
</g>
<g id="a1_0011"  >
<polygon points="273,90 279,90 284,85 279,80 273,80 273,90 " style="fill:white; stroke-width:1; stroke:black; " description="&lt;b&gt;CI807_RS23445&lt;/b&gt;&lt;br&gt;ester cyclase&lt;br&gt;Location: 5027989 - 5028381" locus_tag="CI807_RS23445" class="clusterblast-orf" id="dummy-1_h1_8_11"  />
</g>
<g id="a1_0012"  >
<polygon points="285,90 294,90 299,85 294,80 285,80 285,90 " style="fill:white; stroke-width:1; stroke:black; " description="&lt;b&gt;CI807_RS23450&lt;/b&gt;&lt;br&gt;VOC family protein&lt;br&gt;Location: 5028415 - 5028897" locus_tag="CI807_RS23450" class="clusterblast-orf" id="dummy-1_h1_8_12"  />
</g>
<g id="a1_0013"  >
<polygon points="299,85 304,80 325,80 325,90 304,90 299,85 " style="fill:white; stroke-width:1; stroke:black; " description="&lt;b&gt;CI807_RS23455&lt;/b&gt;&lt;br&gt;SGNH/GDSL hydrolase family protein&lt;br&gt;Location: 5028894 - 5029790" locus_tag="CI807_RS23455" class="clusterblast-orf" id="dummy-1_h1_8_13"  />
</g>
<g id="a1_0014"  >
<polygon points="337,90 357,90 362,85 357,80 337,80 337,90 " style="fill:white; stroke-width:1; stroke:black; " description="&lt;b&gt;CI807_RS23460&lt;/b&gt;&lt;br&gt;4-hydroxy-tetrahydrodipicolinate synthase&lt;br&gt;Location: 5030187 - 5031050" locus_tag="CI807_RS23460" class="clusterblast-orf" id="dummy-1_h1_8_14"  />
</g>
<g id="a1_0015"  >
<polygon points="365,90 400,90 405,85 400,80 365,80 365,90 " style="fill:white; stroke-width:1; stroke:black; " description="&lt;b&gt;CI807_RS23465&lt;/b&gt;&lt;br&gt;cystathionine beta-synthase&lt;br&gt;Location: 5031167 - 5032543" locus_tag="CI807_RS23465" class="clusterblast-orf" id="dummy-1_h1_8_15"  />
</g>
<g id="a1_0016"  >
<polygon points="405,90 434,90 439,85 434,80 405,80 405,90 " style="fill:white; stroke-width:1; stroke:black; " description="&lt;b&gt;CI807_RS23470&lt;/b&gt;&lt;br&gt;cystathionine gamma-synthase&lt;br&gt;Location: 5032540 - 5033706" locus_tag="CI807_RS23470" class="clusterblast-orf" id="dummy-1_h1_8_16"  />
</g>
<g id="a1_0017"  >
<polygon points="443,85 448,80 507,80 507,90 448,90 443,85 " style="fill:#d81515; stroke-width:1; stroke:black; " description="&lt;b&gt;CI807_RS23475&lt;/b&gt;&lt;br&gt;OsmC domain/YcaO domain-containing protein&lt;br&gt;Location: 5033822 - 5036020&lt;br&gt;&lt;br&gt;&lt;b&gt;BlastP hit with ctg25_1&lt;/b&gt;&lt;br&gt;Percentage identity: 96&lt;br&gt;Percentage coverage: 100&lt;br&gt;BLAST bit score: 1422&lt;br&gt;E-value: 0.0" locus_tag="CI807_RS23475" class="clusterblast-orf" id="dummy-1_h1_8_17"  />
</g>
<g id="a1_0018"  >
<polygon points="511,90 552,90 557,85 552,80 511,80 511,90 " style="fill:white; stroke-width:1; stroke:black; " description="&lt;b&gt;CI807_RS23480&lt;/b&gt;&lt;br&gt;methyl-accepting chemotaxis protein&lt;br&gt;Location: 5036183 - 5037748" locus_tag="CI807_RS23480" class="clusterblast-orf" id="dummy-1_h1_8_18"  />
</g>
<g id="a1_0019"  >
<polygon points="559,90 572,90 577,85 572,80 559,80 559,90 " style="fill:#77d815; stroke-width:1; stroke:black; " description="&lt;b&gt;CI807_RS23485&lt;/b&gt;&lt;br&gt;LysE family translocator&lt;br&gt;Location: 5037832 - 5038452&lt;br&gt;&lt;br&gt;&lt;b&gt;BlastP hit with ctg25_2&lt;/b&gt;&lt;br&gt;Percentage identity: 92&lt;br&gt;Percentage coverage: 100&lt;br&gt;BLAST bit score: 370&lt;br&gt;E-value: 9.4e-131" locus_tag="CI807_RS23485" class="clusterblast-orf" id="dummy-1_h1_8_19"  />
</g>
<g id="a1_0020"  >
<polygon points="577,85 582,80 611,80 611,90 582,90 577,85 " style="fill:white; stroke-width:1; stroke:black; " description="&lt;b&gt;CI807_RS23490&lt;/b&gt;&lt;br&gt;arabinose transporter&lt;br&gt;Location: 5038439 - 5039617" locus_tag="CI807_RS23490" class="clusterblast-orf" id="dummy-1_h1_8_20"  />
</g>
<g id="a1_0021"  >
<polygon points="611,85 616,80 637,80 637,90 616,90 611,85 " style="fill:white; stroke-width:1; stroke:black; " description="&lt;b&gt;CI807_RS23495&lt;/b&gt;&lt;br&gt;SDR family oxidoreductase&lt;br&gt;Location: 5039629 - 5040495" locus_tag="CI807_RS23495" class="clusterblast-orf" id="dummy-1_h1_8_21"  />
</g>
<g id="a1_0022"  >
<polygon points="637,85 642,80 656,80 656,90 642,90 637,85 " style="fill:#15d8d8; stroke-width:1; stroke:black; " description="&lt;b&gt;CI807_RS23500&lt;/b&gt;&lt;br&gt;class I SAM-dependent methyltransferase&lt;br&gt;Location: 5040511 - 5041167&lt;br&gt;&lt;br&gt;&lt;b&gt;BlastP hit with ctg25_3&lt;/b&gt;&lt;br&gt;Percentage identity: 85&lt;br&gt;Percentage coverage: 100&lt;br&gt;BLAST bit score: 365&lt;br&gt;E-value: 3.17e-128" locus_tag="CI807_RS23500" class="clusterblast-orf" id="dummy-1_h1_8_22"  />
</g>
<g id="a1_0023"  >
<polygon points="659,90 673,90 678,85 673,80 659,80 659,90 " style="fill:#7715d8; stroke-width:1; stroke:black; " description="&lt;b&gt;CI807_RS23505&lt;/b&gt;&lt;br&gt;TetR family transcriptional regulator&lt;br&gt;Location: 5041279 - 5041911&lt;br&gt;&lt;br&gt;&lt;b&gt;BlastP hit with ctg25_4&lt;/b&gt;&lt;br&gt;Percentage identity: 78&lt;br&gt;Percentage coverage: 100&lt;br&gt;BLAST bit score: 305&lt;br&gt;E-value: 1.43e-104" locus_tag="CI807_RS23505" class="clusterblast-orf" id="dummy-1_h1_8_23"  />
</g>
<g id="a1_0024"  >
<polygon points="687,85 692,80 704,80 704,90 692,90 687,85 " style="fill:white; stroke-width:1; stroke:black; " description="&lt;b&gt;CI807_RS31510&lt;/b&gt;&lt;br&gt;hypothetical protein&lt;br&gt;Location: 5042236 - 5042799" locus_tag="CI807_RS31510" class="clusterblast-orf" id="dummy-1_h1_8_24"  />
</g>
<g id="a1_0025"  >
<polygon points="717,85 722,80 733,80 733,90 722,90 717,85 " style="fill:white; stroke-width:1; stroke:black; " description="&lt;b&gt;CI807_RS23515&lt;/b&gt;&lt;br&gt;GNAT family N-acetyltransferase&lt;br&gt;Location: 5043271 - 5043816" locus_tag="CI807_RS23515" class="clusterblast-orf" id="dummy-1_h1_8_25"  />
</g>
<g id="a1_0026"  >
<polygon points="736,90 747,90 752,85 747,80 736,80 736,90 " style="fill:#1546d8; stroke-width:1; stroke:black; " description="&lt;b&gt;CI807_RS23520&lt;/b&gt;&lt;br&gt;cysteine hydrolase&lt;br&gt;Location: 5043919 - 5044479&lt;br&gt;&lt;br&gt;&lt;b&gt;BlastP hit with ctg25_7&lt;/b&gt;&lt;br&gt;Percentage identity: 80&lt;br&gt;Percentage coverage: 95&lt;br&gt;BLAST bit score: 310&lt;br&gt;E-value: 3.18e-107" locus_tag="CI807_RS23520" class="clusterblast-orf" id="dummy-1_h1_8_26"  />
</g>
<g id="a1_0027"  >
<polygon points="753,85 758,80 766,80 766,90 758,90 753,85 " style="fill:#d815a7; stroke-width:1; stroke:black; " description="&lt;b&gt;CI807_RS23525&lt;/b&gt;&lt;br&gt;NUDIX domain-containing protein&lt;br&gt;Location: 5044489 - 5044950&lt;br&gt;&lt;br&gt;&lt;b&gt;BlastP hit with ctg25_8&lt;/b&gt;&lt;br&gt;Percentage identity: 74&lt;br&gt;Percentage coverage: 100&lt;br&gt;BLAST bit score: 228&lt;br&gt;E-value: 3.71e-76" locus_tag="CI807_RS23525" class="clusterblast-orf" id="dummy-1_h1_8_27"  />
</g>
<g id="a1_0028"  >
<polygon points="767,85 772,80 780,80 780,90 772,90 767,85 " style="fill:white; stroke-width:1; stroke:black; " description="&lt;b&gt;CI807_RS23530&lt;/b&gt;&lt;br&gt;hypothetical protein&lt;br&gt;Location: 5044967 - 5045410" locus_tag="CI807_RS23530" class="clusterblast-orf" id="dummy-1_h1_8_28"  />
</g>
</svg>
