<svg xmlns="http://www.w3.org/2000/svg" xmlns:xlink="http://www.w3.org/1999/xlink" version="1.1" x="0" y="0" height="230" width="800" viewBox="0 0 800 230" preserveAspectRatio="none"  >
<g label="Query sequence" class="clusterblast-cluster"  >
<text x="5" y="20" class="clusterblast-acc"  >
Query sequence</text>
<line x1="10" y1="35" x2="778.0" y2="35" style="stroke-width:1; stroke:grey; "  />
<polygon points="0,40 22,40 27,35 22,30 0,30 0,40 " style="fill:white; stroke-width:1; stroke:black; " description="&lt;b&gt;ctg39_10&lt;/b&gt;&lt;br&gt;ctg39 10&lt;br&gt;Location: 9963 - 10647" locus_tag="ctg39_10" class="clusterblast-orf" id="dummy-1_q0_0_all"  />
<polygon points="26,40 43,40 48,35 43,30 26,30 26,40 " style="fill:white; stroke-width:1; stroke:black; " description="&lt;b&gt;ctg39_11&lt;/b&gt;&lt;br&gt;ctg39 11&lt;br&gt;Location: 10643 - 11195" locus_tag="ctg39_11" class="clusterblast-orf" id="dummy-1_q1_0_all"  />
<polygon points="48,40 81,40 86,35 81,30 48,30 48,40 " style="fill:white; stroke-width:1; stroke:black; " description="&lt;b&gt;ctg39_12&lt;/b&gt;&lt;br&gt;ctg39 12&lt;br&gt;Location: 11191 - 12163" locus_tag="ctg39_12" class="clusterblast-orf" id="dummy-1_q2_0_all"  />
<polygon points="82,35 87,30 89,30 89,40 87,40 82,35 " style="fill:white; stroke-width:1; stroke:black; " description="&lt;b&gt;ctg39_13&lt;/b&gt;&lt;br&gt;ctg39 13&lt;br&gt;Location: 12075 - 12252" locus_tag="ctg39_13" class="clusterblast-orf" id="dummy-1_q3_0_all"  />
<polygon points="104,35 108,30 108,40 104,35 " style="fill:white; stroke-width:1; stroke:black; " description="&lt;b&gt;ctg39_14&lt;/b&gt;&lt;br&gt;ctg39 14&lt;br&gt;Location: 12627 - 12735" locus_tag="ctg39_14" class="clusterblast-orf" id="dummy-1_q4_0_all"  />
<polygon points="118,35 123,30 150,30 150,40 123,40 118,35 " style="fill:white; stroke-width:1; stroke:black; " description="&lt;b&gt;ctg39_15&lt;/b&gt;&lt;br&gt;ctg39 15&lt;br&gt;Location: 13003 - 13813" locus_tag="ctg39_15" class="clusterblast-orf" id="dummy-1_q5_0_all"  />
<polygon points="165,40 203,40 208,35 203,30 165,30 165,40 " style="fill:white; stroke-width:1; stroke:black; " description="&lt;b&gt;ctg39_16&lt;/b&gt;&lt;br&gt;ctg39 16&lt;br&gt;Location: 14208 - 15309" locus_tag="ctg39_16" class="clusterblast-orf" id="dummy-1_q6_0_all"  />
<polygon points="209,40 265,40 270,35 265,30 209,30 209,40 " style="fill:white; stroke-width:1; stroke:black; " description="&lt;b&gt;ctg39_17&lt;/b&gt;&lt;br&gt;ctg39 17&lt;br&gt;Location: 15319 - 16888" locus_tag="ctg39_17" class="clusterblast-orf" id="dummy-1_q7_0_all"  />
<polygon points="273,35 278,30 287,30 287,40 278,40 273,35 " style="fill:white; stroke-width:1; stroke:black; " description="&lt;b&gt;ctg39_18&lt;/b&gt;&lt;br&gt;ctg39 18&lt;br&gt;Location: 16985 - 17339" locus_tag="ctg39_18" class="clusterblast-orf" id="dummy-1_q8_0_all"  />
<polygon points="288,40 452,40 457,35 452,30 288,30 288,40 " style="fill:white; stroke-width:1; stroke:black; " description="&lt;b&gt;ctg39_19&lt;/b&gt;&lt;br&gt;ctg39 19&lt;br&gt;Location: 17363 - 21686" locus_tag="ctg39_19" class="clusterblast-orf" id="dummy-1_q9_0_all"  />
<polygon points="461,40 512,40 517,35 512,30 461,30 461,40 " style="fill:white; stroke-width:1; stroke:black; " description="&lt;b&gt;ctg39_20&lt;/b&gt;&lt;br&gt;ctg39 20&lt;br&gt;Location: 21810 - 23229" locus_tag="ctg39_20" class="clusterblast-orf" id="dummy-1_q10_0_all"  />
<polygon points="527,40 563,40 568,35 563,30 527,30 527,40 " style="fill:white; stroke-width:1; stroke:black; " description="&lt;b&gt;ctg39_21&lt;/b&gt;&lt;br&gt;ctg39 21&lt;br&gt;Location: 23482 - 24550" locus_tag="ctg39_21" class="clusterblast-orf" id="dummy-1_q11_0_all"  />
<polygon points="573,35 578,30 620,30 620,40 578,40 573,35 " style="fill:white; stroke-width:1; stroke:black; " description="&lt;b&gt;ctg39_22&lt;/b&gt;&lt;br&gt;ctg39 22&lt;br&gt;Location: 24666 - 25884" locus_tag="ctg39_22" class="clusterblast-orf" id="dummy-1_q12_0_all"  />
<polygon points="627,40 657,40 662,35 657,30 627,30 627,40 " style="fill:white; stroke-width:1; stroke:black; " description="&lt;b&gt;ctg39_23&lt;/b&gt;&lt;br&gt;ctg39 23&lt;br&gt;Location: 26065 - 26959" locus_tag="ctg39_23" class="clusterblast-orf" id="dummy-1_q13_0_all"  />
<polygon points="662,35 667,30 671,30 671,40 667,40 662,35 " style="fill:white; stroke-width:1; stroke:black; " description="&lt;b&gt;ctg39_24&lt;/b&gt;&lt;br&gt;ctg39 24&lt;br&gt;Location: 26965 - 27193" locus_tag="ctg39_24" class="clusterblast-orf" id="dummy-1_q14_0_all"  />
<polygon points="674,35 679,30 691,30 691,40 679,40 674,35 " style="fill:white; stroke-width:1; stroke:black; " description="&lt;b&gt;ctg39_25&lt;/b&gt;&lt;br&gt;ctg39 25&lt;br&gt;Location: 27258 - 27708" locus_tag="ctg39_25" class="clusterblast-orf" id="dummy-1_q15_0_all"  />
<polygon points="692,35 697,30 740,30 740,40 697,40 692,35 " style="fill:#d81515; stroke-width:1; stroke:black; " description="&lt;b&gt;ctg39_26&lt;/b&gt;&lt;br&gt;ctg39 26&lt;br&gt;Location: 27735 - 28962" locus_tag="ctg39_26" class="clusterblast-orf" id="dummy-1_q16_0_all"  />
<polygon points="740,35 745,30 768,30 768,40 745,40 740,35 " style="fill:#15d8d8; stroke-width:1; stroke:black; " description="&lt;b&gt;ctg39_27&lt;/b&gt;&lt;br&gt;ctg39 27&lt;br&gt;Location: 28961 - 29690" locus_tag="ctg39_27" class="clusterblast-orf" id="dummy-1_q17_0_all"  />
<polygon points="768,35 773,30 780,30 780,40 773,40 768,35 " style="fill:white; stroke-width:1; stroke:black; " description="&lt;b&gt;ctg39_28&lt;/b&gt;&lt;br&gt;ctg39 28&lt;br&gt;Location: 29686 - 29983" locus_tag="ctg39_28" class="clusterblast-orf" id="dummy-1_q18_0_all"  />
</g>
<g label="BGC0000837" description="BGC0000837_c1: APE Vf (10% of genes show similarity), Other" class="clusterblast-cluster"  >
<text x="5" y="70" class="clusterblast-acc"  >
<a xlink:href="https://mibig.secondarymetabolites.org/go/BGC0000837/1" target="_blank">BGC0000837</a>: APE Vf                                                                           (10% of genes show similarity), Other</text>
<line x1="10" y1="85" x2="778.0" y2="85" style="stroke-width:1; stroke:grey; "  />
</g>
<g id="a1_000"  >
<polygon points="28,85 33,80 76,80 76,90 33,90 28,85 " style="fill:#d81515; stroke-width:1; stroke:black; " description="&lt;b&gt;VF_0860&lt;/b&gt;&lt;br&gt;3-oxoacyl-(acyl carrier protein) synthase&lt;br&gt;Location: 18539 - 17304&lt;br&gt;&lt;br&gt;&lt;b&gt;BlastP hit with ctg39_26&lt;/b&gt;&lt;br&gt;Percentage identity: 61&lt;br&gt;Percentage coverage: 100&lt;br&gt;BLAST bit score: 520&lt;br&gt;E-value: 4.68e-185" locus_tag="VF_0860" class="clusterblast-orf" id="dummy-1_h1_1_0"  />
</g>
<g id="a1_001"  >
<polygon points="76,85 81,80 105,80 105,90 81,90 76,85 " style="fill:#15d8d8; stroke-width:1; stroke:black; " description="&lt;b&gt;VF_0859&lt;/b&gt;&lt;br&gt;3-oxoacyl-(acyl-carrier-protein) reductase, putative&lt;br&gt;Location: 17307 - 16582&lt;br&gt;&lt;br&gt;&lt;b&gt;BlastP hit with ctg39_27&lt;/b&gt;&lt;br&gt;Percentage identity: 61&lt;br&gt;Percentage coverage: 100&lt;br&gt;BLAST bit score: 305&lt;br&gt;E-value: 2.8e-105" locus_tag="VF_0859" class="clusterblast-orf" id="dummy-1_h1_1_1"  />
</g>
<g id="a1_002"  >
<polygon points="105,85 110,80 124,80 124,90 110,90 105,85 " style="fill:white; stroke-width:1; stroke:black; " description="&lt;b&gt;VF_0858&lt;/b&gt;&lt;br&gt;predicted 3-hydroxylacyl-(acyl carrier protein) dehydratase&lt;br&gt;Location: 16562 - 16092" locus_tag="VF_0858" class="clusterblast-orf" id="dummy-1_h1_1_2"  />
</g>
<g id="a1_003"  >
<polygon points="123,85 128,80 170,80 170,90 128,90 123,85 " style="fill:white; stroke-width:1; stroke:black; " description="&lt;b&gt;VF_0857&lt;/b&gt;&lt;br&gt;3-oxoacyl-(acyl carrier protein) synthase&lt;br&gt;Location: 16101 - 14914" locus_tag="VF_0857" class="clusterblast-orf" id="dummy-1_h1_1_3"  />
</g>
<g id="a1_004"  >
<polygon points="170,85 175,80 194,80 194,90 175,90 170,85 " style="fill:white; stroke-width:1; stroke:black; " description="&lt;b&gt;VF_0856&lt;/b&gt;&lt;br&gt;phospho-N-acetylmuramoyl-pentapeptide- transferase&lt;br&gt;Location: 14908 - 14282" locus_tag="VF_0856" class="clusterblast-orf" id="dummy-1_h1_1_4"  />
</g>
<g id="a1_005"  >
<polygon points="194,85 199,80 268,80 268,90 199,90 194,85 " style="fill:white; stroke-width:1; stroke:black; " description="&lt;b&gt;VF_0855&lt;/b&gt;&lt;br&gt;transporter&lt;br&gt;Location: 14292 - 12397" locus_tag="VF_0855" class="clusterblast-orf" id="dummy-1_h1_1_5"  />
</g>
<g id="a1_006"  >
<polygon points="288,85 293,80 312,80 312,90 293,90 288,85 " style="fill:white; stroke-width:1; stroke:black; " description="&lt;b&gt;VF_0854&lt;/b&gt;&lt;br&gt;hypothetical protein&lt;br&gt;Location: 11875 - 11255" locus_tag="VF_0854" class="clusterblast-orf" id="dummy-1_h1_1_6"  />
</g>
<g id="a1_007"  >
<polygon points="312,85 317,80 329,80 329,90 317,90 312,85 " style="fill:white; stroke-width:1; stroke:black; " description="&lt;b&gt;VF_0853&lt;/b&gt;&lt;br&gt;esterase&lt;br&gt;Location: 11262 - 10816" locus_tag="VF_0853" class="clusterblast-orf" id="dummy-1_h1_1_7"  />
</g>
<g id="a1_008"  >
<polygon points="330,85 335,80 390,80 390,90 335,90 330,85 " style="fill:white; stroke-width:1; stroke:black; " description="&lt;b&gt;VF_0852&lt;/b&gt;&lt;br&gt;phenylalanine and histidine ammonia-lyase&lt;br&gt;Location: 10804 - 9269" locus_tag="VF_0852" class="clusterblast-orf" id="dummy-1_h1_1_8"  />
</g>
<g id="a1_009"  >
<polygon points="389,85 394,80 455,80 455,90 394,90 389,85 " style="fill:white; stroke-width:1; stroke:black; " description="&lt;b&gt;VF_0851&lt;/b&gt;&lt;br&gt;predicted acyltransferase&lt;br&gt;Location: 9279 - 7588" locus_tag="VF_0851" class="clusterblast-orf" id="dummy-1_h1_1_9"  />
</g>
<g id="a1_0010"  >
<polygon points="455,85 460,80 470,80 470,90 460,90 455,85 " style="fill:white; stroke-width:1; stroke:black; " description="&lt;b&gt;VF_0850&lt;/b&gt;&lt;br&gt;AMP-(fatty)acid ligase&lt;br&gt;Location: 7585 - 7211" locus_tag="VF_0850" class="clusterblast-orf" id="dummy-1_h1_1_10"  />
</g>
<g id="a1_0011"  >
<polygon points="470,85 475,80 525,80 525,90 475,90 470,85 " style="fill:white; stroke-width:1; stroke:black; " description="&lt;b&gt;VF_0849&lt;/b&gt;&lt;br&gt;AMP-(fatty)acid ligase&lt;br&gt;Location: 7197 - 5794" locus_tag="VF_0849" class="clusterblast-orf" id="dummy-1_h1_1_11"  />
</g>
<g id="a1_0012"  >
<polygon points="523,85 528,80 545,80 545,90 528,90 523,85 " style="fill:white; stroke-width:1; stroke:black; " description="&lt;b&gt;VF_0848&lt;/b&gt;&lt;br&gt;DNA gyrase subunit B&lt;br&gt;Location: 5833 - 5273" locus_tag="VF_0848" class="clusterblast-orf" id="dummy-1_h1_1_12"  />
</g>
<g id="a1_0013"  >
<polygon points="545,85 550,80 555,80 555,90 550,90 545,85 " style="fill:white; stroke-width:1; stroke:black; " description="&lt;b&gt;VF_0847&lt;/b&gt;&lt;br&gt;acyl carrier protein&lt;br&gt;Location: 5273 - 5016" locus_tag="VF_0847" class="clusterblast-orf" id="dummy-1_h1_1_13"  />
</g>
<g id="a1_0014"  >
<polygon points="556,85 561,80 567,80 567,90 561,90 556,85 " style="fill:white; stroke-width:1; stroke:black; " description="&lt;b&gt;VF_0846&lt;/b&gt;&lt;br&gt;acyl carrier protein&lt;br&gt;Location: 5004 - 4708" locus_tag="VF_0846" class="clusterblast-orf" id="dummy-1_h1_1_14"  />
</g>
<g id="a1_0015"  >
<polygon points="566,85 571,80 597,80 597,90 571,90 566,85 " style="fill:white; stroke-width:1; stroke:black; " description="&lt;b&gt;VF_0845&lt;/b&gt;&lt;br&gt;1-acyl-sn-glycerol-3-phosphate acyltransferase&lt;br&gt;Location: 4739 - 3942" locus_tag="VF_0845" class="clusterblast-orf" id="dummy-1_h1_1_15"  />
</g>
<g id="a1_0016"  >
<polygon points="597,85 602,80 626,80 626,90 602,90 597,85 " style="fill:white; stroke-width:1; stroke:black; " description="&lt;b&gt;VF_0844&lt;/b&gt;&lt;br&gt;hypothetical protein&lt;br&gt;Location: 3937 - 3209" locus_tag="VF_0844" class="clusterblast-orf" id="dummy-1_h1_1_16"  />
</g>
<g id="a1_0017"  >
<polygon points="631,90 648,90 653,85 648,80 631,80 631,90 " style="fill:white; stroke-width:1; stroke:black; " description="&lt;b&gt;VF_0843&lt;/b&gt;&lt;br&gt;lipoprotein, putative&lt;br&gt;Location: 3079 - 2504" locus_tag="VF_0843" class="clusterblast-orf" id="dummy-1_h1_1_17"  />
</g>
<g id="a1_0018"  >
<polygon points="657,90 694,90 699,85 694,80 657,80 657,90 " style="fill:white; stroke-width:1; stroke:black; " description="&lt;b&gt;VF_0842&lt;/b&gt;&lt;br&gt;putative O-methyltransferase&lt;br&gt;Location: 2400 - 1333" locus_tag="VF_0842" class="clusterblast-orf" id="dummy-1_h1_1_18"  />
</g>
<g id="a1_0019"  >
<polygon points="703,90 746,90 751,85 746,80 703,80 703,90 " style="fill:white; stroke-width:1; stroke:black; " description="&lt;b&gt;VF_0841&lt;/b&gt;&lt;br&gt;dehydrogenase&lt;br&gt;Location: 1233 - 1" locus_tag="VF_0841" class="clusterblast-orf" id="dummy-1_h1_1_19"  />
</g>
</svg>
