<svg xmlns="http://www.w3.org/2000/svg" xmlns:xlink="http://www.w3.org/1999/xlink" version="1.1" x="0" y="0" height="230" width="800" viewBox="0 0 800 230" preserveAspectRatio="none"  >
<g label="Query sequence" class="clusterblast-cluster"  >
<text x="5" y="20" class="clusterblast-acc"  >
Query sequence</text>
<line x1="10" y1="35" x2="778.0" y2="35" style="stroke-width:1; stroke:grey; "  />
<polygon points="144,35 149,30 154,30 154,40 149,40 144,35 " style="fill:white; stroke-width:1; stroke:black; " description="&lt;b&gt;ctg18_12&lt;/b&gt;&lt;br&gt;ctg18 12&lt;br&gt;Location: 11079 - 12003" locus_tag="ctg18_12" class="clusterblast-orf" id="dummy-1_q0_0_all"  />
<polygon points="157,40 160,40 165,35 160,30 157,30 157,40 " style="fill:white; stroke-width:1; stroke:black; " description="&lt;b&gt;ctg18_13&lt;/b&gt;&lt;br&gt;ctg18 13&lt;br&gt;Location: 12320 - 12992" locus_tag="ctg18_13" class="clusterblast-orf" id="dummy-1_q1_0_all"  />
<polygon points="165,40 172,40 177,35 172,30 165,30 165,40 " style="fill:white; stroke-width:1; stroke:black; " description="&lt;b&gt;ctg18_14&lt;/b&gt;&lt;br&gt;ctg18 14&lt;br&gt;Location: 12994 - 14095" locus_tag="ctg18_14" class="clusterblast-orf" id="dummy-1_q2_0_all"  />
<polygon points="178,35 183,30 194,30 194,40 183,40 178,35 " style="fill:white; stroke-width:1; stroke:black; " description="&lt;b&gt;ctg18_15&lt;/b&gt;&lt;br&gt;ctg18 15&lt;br&gt;Location: 14145 - 15588" locus_tag="ctg18_15" class="clusterblast-orf" id="dummy-1_q3_0_all"  />
<polygon points="196,35 201,30 208,30 208,40 201,40 196,35 " style="fill:white; stroke-width:1; stroke:black; " description="&lt;b&gt;ctg18_16&lt;/b&gt;&lt;br&gt;ctg18 16&lt;br&gt;Location: 15738 - 16803" locus_tag="ctg18_16" class="clusterblast-orf" id="dummy-1_q4_0_all"  />
<polygon points="208,35 213,30 235,30 235,40 213,40 208,35 " style="fill:white; stroke-width:1; stroke:black; " description="&lt;b&gt;ctg18_17&lt;/b&gt;&lt;br&gt;ctg18 17&lt;br&gt;Location: 16792 - 19288" locus_tag="ctg18_17" class="clusterblast-orf" id="dummy-1_q5_0_all"  />
<polygon points="235,35 240,30 243,30 243,40 240,40 235,35 " style="fill:white; stroke-width:1; stroke:black; " description="&lt;b&gt;ctg18_18&lt;/b&gt;&lt;br&gt;ctg18 18&lt;br&gt;Location: 19256 - 19925" locus_tag="ctg18_18" class="clusterblast-orf" id="dummy-1_q6_0_all"  />
<polygon points="246,40 248,40 253,35 248,30 246,30 246,40 " style="fill:white; stroke-width:1; stroke:black; " description="&lt;b&gt;ctg18_19&lt;/b&gt;&lt;br&gt;ctg18 19&lt;br&gt;Location: 20199 - 20874" locus_tag="ctg18_19" class="clusterblast-orf" id="dummy-1_q7_0_all"  />
<polygon points="254,40 255,35 254,30 254,40 " style="fill:white; stroke-width:1; stroke:black; " description="&lt;b&gt;ctg18_20&lt;/b&gt;&lt;br&gt;ctg18 20&lt;br&gt;Location: 20965 - 21067" locus_tag="ctg18_20" class="clusterblast-orf" id="dummy-1_q8_0_all"  />
<polygon points="255,40 269,40 274,35 269,30 255,30 255,40 " style="fill:white; stroke-width:1; stroke:black; " description="&lt;b&gt;ctg18_21&lt;/b&gt;&lt;br&gt;ctg18 21&lt;br&gt;Location: 21063 - 22719" locus_tag="ctg18_21" class="clusterblast-orf" id="dummy-1_q9_0_all"  />
<polygon points="274,40 286,40 291,35 286,30 274,30 274,40 " style="fill:white; stroke-width:1; stroke:black; " description="&lt;b&gt;ctg18_22&lt;/b&gt;&lt;br&gt;ctg18 22&lt;br&gt;Location: 22745 - 24263" locus_tag="ctg18_22" class="clusterblast-orf" id="dummy-1_q10_0_all"  />
<polygon points="291,35 296,30 299,30 299,40 296,40 291,35 " style="fill:white; stroke-width:1; stroke:black; " description="&lt;b&gt;ctg18_23&lt;/b&gt;&lt;br&gt;ctg18 23&lt;br&gt;Location: 24284 - 24998" locus_tag="ctg18_23" class="clusterblast-orf" id="dummy-1_q11_0_all"  />
<polygon points="299,35 304,30 308,30 308,40 304,40 299,35 " style="fill:white; stroke-width:1; stroke:black; " description="&lt;b&gt;ctg18_24&lt;/b&gt;&lt;br&gt;ctg18 24&lt;br&gt;Location: 24997 - 25750" locus_tag="ctg18_24" class="clusterblast-orf" id="dummy-1_q12_0_all"  />
<polygon points="308,35 313,30 321,30 321,40 313,40 308,35 " style="fill:white; stroke-width:1; stroke:black; " description="&lt;b&gt;ctg18_25&lt;/b&gt;&lt;br&gt;ctg18 25&lt;br&gt;Location: 25758 - 26952" locus_tag="ctg18_25" class="clusterblast-orf" id="dummy-1_q13_0_all"  />
<polygon points="321,35 326,30 330,30 330,40 326,40 321,35 " style="fill:white; stroke-width:1; stroke:black; " description="&lt;b&gt;ctg18_26&lt;/b&gt;&lt;br&gt;ctg18 26&lt;br&gt;Location: 26938 - 27745" locus_tag="ctg18_26" class="clusterblast-orf" id="dummy-1_q14_0_all"  />
<polygon points="330,35 335,30 340,30 340,40 335,40 330,35 " style="fill:white; stroke-width:1; stroke:black; " description="&lt;b&gt;ctg18_27&lt;/b&gt;&lt;br&gt;ctg18 27&lt;br&gt;Location: 27741 - 28599" locus_tag="ctg18_27" class="clusterblast-orf" id="dummy-1_q15_0_all"  />
<polygon points="354,35 359,30 425,30 425,40 359,40 354,35 " style="fill:#d81515; stroke-width:1; stroke:black; " description="&lt;b&gt;ctg18_28&lt;/b&gt;&lt;br&gt;ctg18 28&lt;br&gt;Location: 29918 - 36188" locus_tag="ctg18_28" class="clusterblast-orf" id="dummy-1_q16_0_all"  />
<polygon points="430,40 434,40 439,35 434,30 430,30 430,40 " style="fill:#4dd815; stroke-width:1; stroke:black; " description="&lt;b&gt;ctg18_29&lt;/b&gt;&lt;br&gt;ctg18 29&lt;br&gt;Location: 36675 - 37470" locus_tag="ctg18_29" class="clusterblast-orf" id="dummy-1_q17_0_all"  />
<polygon points="439,40 450,40 455,35 450,30 439,30 439,40 " style="fill:#1585d8; stroke-width:1; stroke:black; " description="&lt;b&gt;ctg18_30&lt;/b&gt;&lt;br&gt;ctg18 30&lt;br&gt;Location: 37469 - 38939" locus_tag="ctg18_30" class="clusterblast-orf" id="dummy-1_q18_0_all"  />
<polygon points="455,35 460,30 464,30 464,40 460,40 455,35 " style="fill:white; stroke-width:1; stroke:black; " description="&lt;b&gt;ctg18_31&lt;/b&gt;&lt;br&gt;ctg18 31&lt;br&gt;Location: 38865 - 39726" locus_tag="ctg18_31" class="clusterblast-orf" id="dummy-1_q19_0_all"  />
<polygon points="466,40 468,40 473,35 468,30 466,30 466,40 " style="fill:white; stroke-width:1; stroke:black; " description="&lt;b&gt;ctg18_32&lt;/b&gt;&lt;br&gt;ctg18 32&lt;br&gt;Location: 39854 - 40520" locus_tag="ctg18_32" class="clusterblast-orf" id="dummy-1_q20_0_all"  />
<polygon points="473,40 477,40 482,35 477,30 473,30 473,40 " style="fill:white; stroke-width:1; stroke:black; " description="&lt;b&gt;ctg18_33&lt;/b&gt;&lt;br&gt;ctg18 33&lt;br&gt;Location: 40516 - 41287" locus_tag="ctg18_33" class="clusterblast-orf" id="dummy-1_q21_0_all"  />
<polygon points="482,40 493,40 498,35 493,30 482,30 482,40 " style="fill:white; stroke-width:1; stroke:black; " description="&lt;b&gt;ctg18_34&lt;/b&gt;&lt;br&gt;ctg18 34&lt;br&gt;Location: 41292 - 42753" locus_tag="ctg18_34" class="clusterblast-orf" id="dummy-1_q22_0_all"  />
<polygon points="499,40 503,40 508,35 503,30 499,30 499,40 " style="fill:white; stroke-width:1; stroke:black; " description="&lt;b&gt;ctg18_35&lt;/b&gt;&lt;br&gt;ctg18 35&lt;br&gt;Location: 42799 - 43657" locus_tag="ctg18_35" class="clusterblast-orf" id="dummy-1_q23_0_all"  />
<polygon points="508,40 508,40 513,35 508,30 508,30 508,40 " style="fill:white; stroke-width:1; stroke:black; " description="&lt;b&gt;ctg18_36&lt;/b&gt;&lt;br&gt;ctg18 36&lt;br&gt;Location: 43672 - 44065" locus_tag="ctg18_36" class="clusterblast-orf" id="dummy-1_q24_0_all"  />
<polygon points="513,40 523,40 528,35 523,30 513,30 513,40 " style="fill:#d815bc; stroke-width:1; stroke:black; " description="&lt;b&gt;ctg18_37&lt;/b&gt;&lt;br&gt;ctg18 37&lt;br&gt;Location: 44110 - 45415" locus_tag="ctg18_37" class="clusterblast-orf" id="dummy-1_q25_0_all"  />
<polygon points="528,40 532,40 537,35 532,30 528,30 528,40 " style="fill:white; stroke-width:1; stroke:black; " description="&lt;b&gt;ctg18_38&lt;/b&gt;&lt;br&gt;ctg18 38&lt;br&gt;Location: 45426 - 46230" locus_tag="ctg18_38" class="clusterblast-orf" id="dummy-1_q26_0_all"  />
<polygon points="537,40 541,40 546,35 541,30 537,30 537,40 " style="fill:white; stroke-width:1; stroke:black; " description="&lt;b&gt;ctg18_39&lt;/b&gt;&lt;br&gt;ctg18 39&lt;br&gt;Location: 46245 - 47046" locus_tag="ctg18_39" class="clusterblast-orf" id="dummy-1_q27_0_all"  />
<polygon points="547,35 552,30 552,30 552,40 552,40 547,35 " style="fill:white; stroke-width:1; stroke:black; " description="&lt;b&gt;ctg18_40&lt;/b&gt;&lt;br&gt;ctg18 40&lt;br&gt;Location: 47171 - 47594" locus_tag="ctg18_40" class="clusterblast-orf" id="dummy-1_q28_0_all"  />
<polygon points="555,40 564,40 569,35 564,30 555,30 555,40 " style="fill:white; stroke-width:1; stroke:black; " description="&lt;b&gt;ctg18_41&lt;/b&gt;&lt;br&gt;ctg18 41&lt;br&gt;Location: 47802 - 49101" locus_tag="ctg18_41" class="clusterblast-orf" id="dummy-1_q29_0_all"  />
<polygon points="569,40 569,40 574,35 569,30 569,30 569,40 " style="fill:white; stroke-width:1; stroke:black; " description="&lt;b&gt;ctg18_42&lt;/b&gt;&lt;br&gt;ctg18 42&lt;br&gt;Location: 49130 - 49496" locus_tag="ctg18_42" class="clusterblast-orf" id="dummy-1_q30_0_all"  />
<polygon points="574,40 578,40 583,35 578,30 574,30 574,40 " style="fill:#d8bc15; stroke-width:1; stroke:black; " description="&lt;b&gt;ctg18_43&lt;/b&gt;&lt;br&gt;ctg18 43&lt;br&gt;Location: 49508 - 50330" locus_tag="ctg18_43" class="clusterblast-orf" id="dummy-1_q31_0_all"  />
<polygon points="583,40 587,40 592,35 587,30 583,30 583,40 " style="fill:#15d885; stroke-width:1; stroke:black; " description="&lt;b&gt;ctg18_44&lt;/b&gt;&lt;br&gt;ctg18 44&lt;br&gt;Location: 50322 - 51126" locus_tag="ctg18_44" class="clusterblast-orf" id="dummy-1_q32_0_all"  />
<polygon points="592,40 595,40 600,35 595,30 592,30 592,40 " style="fill:#4d15d8; stroke-width:1; stroke:black; " description="&lt;b&gt;ctg18_45&lt;/b&gt;&lt;br&gt;ctg18 45&lt;br&gt;Location: 51115 - 51871" locus_tag="ctg18_45" class="clusterblast-orf" id="dummy-1_q33_0_all"  />
<polygon points="601,35 606,30 611,30 611,40 606,40 601,35 " style="fill:white; stroke-width:1; stroke:black; " description="&lt;b&gt;ctg18_46&lt;/b&gt;&lt;br&gt;ctg18 46&lt;br&gt;Location: 51932 - 52874" locus_tag="ctg18_46" class="clusterblast-orf" id="dummy-1_q34_0_all"  />
<polygon points="613,35 618,30 619,30 619,40 618,40 613,35 " style="fill:white; stroke-width:1; stroke:black; " description="&lt;b&gt;ctg18_47&lt;/b&gt;&lt;br&gt;ctg18 47&lt;br&gt;Location: 52985 - 53573" locus_tag="ctg18_47" class="clusterblast-orf" id="dummy-1_q35_0_all"  />
<polygon points="619,35 624,30 636,30 636,40 624,40 619,35 " style="fill:white; stroke-width:1; stroke:black; " description="&lt;b&gt;ctg18_48&lt;/b&gt;&lt;br&gt;ctg18 48&lt;br&gt;Location: 53544 - 55044" locus_tag="ctg18_48" class="clusterblast-orf" id="dummy-1_q36_0_all"  />
</g>
<g label="BGC0000425" description="BGC0000425_c1: sessilin A (55% of genes show similarity), NRP:Cyclic depsipeptide" class="clusterblast-cluster"  >
<text x="5" y="70" class="clusterblast-acc"  >
<a xlink:href="https://mibig.secondarymetabolites.org/go/BGC0000425/1" target="_blank">BGC0000425</a>: sessilin A                                                                       (55% of genes show similarity), NRP:Cyclic depsipeptide</text>
<line x1="10" y1="85" x2="778.0" y2="85" style="stroke-width:1; stroke:grey; "  />
</g>
<g id="a1_000"  >
<polygon points="0,90 10,90 15,85 10,80 0,80 0,90 " style="fill:white; stroke-width:1; stroke:black; " description="&lt;b&gt;AFH75325.1&lt;/b&gt;&lt;br&gt;diaminobutyrate-2-oxoglutarate aminotransferase&lt;br&gt;Location: 69722 - 68337" locus_tag="AFH75325.1" class="clusterblast-orf" id="dummy-1_h1_3_0"  />
</g>
<g id="a1_001"  >
<polygon points="16,85 21,80 38,80 38,90 21,90 16,85 " style="fill:white; stroke-width:1; stroke:black; " description="&lt;b&gt;AFH75324.1&lt;/b&gt;&lt;br&gt;macrolide export ATP-binding/permease protein MacB&lt;br&gt;Location: 68229 - 66271" locus_tag="AFH75324.1" class="clusterblast-orf" id="dummy-1_h1_3_1"  />
</g>
<g id="a1_002"  >
<polygon points="38,85 43,80 51,80 51,90 43,90 38,85 " style="fill:white; stroke-width:1; stroke:black; " description="&lt;b&gt;AFH75323.1&lt;/b&gt;&lt;br&gt;macrolide-specific efflux protein&lt;br&gt;Location: 66268 - 65117" locus_tag="AFH75323.1" class="clusterblast-orf" id="dummy-1_h1_3_2"  />
</g>
<g id="a1_003"  >
<polygon points="52,85 57,80 289,80 289,90 57,90 52,85 " style="fill:#d81515; stroke-width:1; stroke:black; " description="&lt;b&gt;AFH75322.1&lt;/b&gt;&lt;br&gt;nonribosomal peptide synthetase&lt;br&gt;Location: 64995 - 43822&lt;br&gt;&lt;br&gt;&lt;b&gt;BlastP hit with ctg18_28&lt;/b&gt;&lt;br&gt;Percentage identity: 49&lt;br&gt;Percentage coverage: 83&lt;br&gt;BLAST bit score: 1481&lt;br&gt;E-value: 0.0" locus_tag="AFH75322.1" class="clusterblast-orf" id="dummy-1_h1_3_3"  />
</g>
<g id="a1_004"  >
<polygon points="294,85 299,80 511,80 511,90 299,90 294,85 " style="fill:#d81515; stroke-width:1; stroke:black; " description="&lt;b&gt;AFH75321.1&lt;/b&gt;&lt;br&gt;nonribosomal peptide synthetase&lt;br&gt;Location: 43444 - 24044&lt;br&gt;&lt;br&gt;&lt;b&gt;BlastP hit with ctg18_28&lt;/b&gt;&lt;br&gt;Percentage identity: 50&lt;br&gt;Percentage coverage: 100&lt;br&gt;BLAST bit score: 1778&lt;br&gt;E-value: 0.0" locus_tag="AFH75321.1" class="clusterblast-orf" id="dummy-1_h1_3_4"  />
</g>
<g id="a1_005"  >
<polygon points="511,85 516,80 726,80 726,90 516,90 511,85 " style="fill:#d81515; stroke-width:1; stroke:black; " description="&lt;b&gt;AFH75320.1&lt;/b&gt;&lt;br&gt;nonribosomal peptide synthetase&lt;br&gt;Location: 24047 - 4806&lt;br&gt;&lt;br&gt;&lt;b&gt;BlastP hit with ctg18_28&lt;/b&gt;&lt;br&gt;Percentage identity: 51&lt;br&gt;Percentage coverage: 103&lt;br&gt;BLAST bit score: 1967&lt;br&gt;E-value: 0.0" locus_tag="AFH75320.1" class="clusterblast-orf" id="dummy-1_h1_3_5"  />
</g>
<g id="a1_006"  >
<polygon points="731,85 736,80 750,80 750,90 736,90 731,85 " style="fill:white; stroke-width:1; stroke:black; " description="&lt;b&gt;AFH75319.1&lt;/b&gt;&lt;br&gt;cyclic peptide transporter&lt;br&gt;Location: 4344 - 2647" locus_tag="AFH75319.1" class="clusterblast-orf" id="dummy-1_h1_3_6"  />
</g>
<g id="a1_007"  >
<polygon points="754,90 758,90 763,85 758,80 754,80 754,90 " style="fill:#4dd815; stroke-width:1; stroke:black; " description="&lt;b&gt;AFH75318.1&lt;/b&gt;&lt;br&gt;LuxR family transcriptional regulator&lt;br&gt;Location: 2337 - 1522&lt;br&gt;&lt;br&gt;&lt;b&gt;BlastP hit with ctg18_29&lt;/b&gt;&lt;br&gt;Percentage identity: 54&lt;br&gt;Percentage coverage: 105&lt;br&gt;BLAST bit score: 266&lt;br&gt;E-value: 1.88e-89" locus_tag="AFH75318.1" class="clusterblast-orf" id="dummy-1_h1_3_7"  />
</g>
<g id="a1_008"  >
<polygon points="763,90 775,90 780,85 775,80 763,80 763,90 " style="fill:#1585d8; stroke-width:1; stroke:black; " description="&lt;b&gt;AFH75317.1&lt;/b&gt;&lt;br&gt;outer membrane efflux protein&lt;br&gt;Location: 1459 - 20&lt;br&gt;&lt;br&gt;&lt;b&gt;BlastP hit with ctg18_30&lt;/b&gt;&lt;br&gt;Percentage identity: 72&lt;br&gt;Percentage coverage: 98&lt;br&gt;BLAST bit score: 653&lt;br&gt;E-value: 6.14e-235" locus_tag="AFH75317.1" class="clusterblast-orf" id="dummy-1_h1_3_8"  />
</g>
</svg>
