<svg xmlns="http://www.w3.org/2000/svg" xmlns:xlink="http://www.w3.org/1999/xlink" version="1.1" x="0" y="0" height="230" width="800" viewBox="0 0 800 230" preserveAspectRatio="none"  >
<g label="Query sequence" class="clusterblast-cluster"  >
<text x="5" y="20" class="clusterblast-acc"  >
Query sequence</text>
<line x1="10" y1="35" x2="778.0" y2="35" style="stroke-width:1; stroke:grey; "  />
<polygon points="33,35 38,30 48,30 48,40 38,40 33,35 " style="fill:white; stroke-width:1; stroke:black; " description="&lt;b&gt;ctg18_12&lt;/b&gt;&lt;br&gt;ctg18 12&lt;br&gt;Location: 11079 - 12003" locus_tag="ctg18_12" class="clusterblast-orf" id="dummy-1_q0_0_all"  />
<polygon points="53,40 59,40 64,35 59,30 53,30 53,40 " style="fill:white; stroke-width:1; stroke:black; " description="&lt;b&gt;ctg18_13&lt;/b&gt;&lt;br&gt;ctg18 13&lt;br&gt;Location: 12320 - 12992" locus_tag="ctg18_13" class="clusterblast-orf" id="dummy-1_q1_0_all"  />
<polygon points="64,40 77,40 82,35 77,30 64,30 64,40 " style="fill:white; stroke-width:1; stroke:black; " description="&lt;b&gt;ctg18_14&lt;/b&gt;&lt;br&gt;ctg18 14&lt;br&gt;Location: 12994 - 14095" locus_tag="ctg18_14" class="clusterblast-orf" id="dummy-1_q2_0_all"  />
<polygon points="83,35 88,30 106,30 106,40 88,40 83,35 " style="fill:white; stroke-width:1; stroke:black; " description="&lt;b&gt;ctg18_15&lt;/b&gt;&lt;br&gt;ctg18 15&lt;br&gt;Location: 14145 - 15588" locus_tag="ctg18_15" class="clusterblast-orf" id="dummy-1_q3_0_all"  />
<polygon points="109,35 114,30 126,30 126,40 114,40 109,35 " style="fill:white; stroke-width:1; stroke:black; " description="&lt;b&gt;ctg18_16&lt;/b&gt;&lt;br&gt;ctg18 16&lt;br&gt;Location: 15738 - 16803" locus_tag="ctg18_16" class="clusterblast-orf" id="dummy-1_q4_0_all"  />
<polygon points="126,35 131,30 166,30 166,40 131,40 126,35 " style="fill:white; stroke-width:1; stroke:black; " description="&lt;b&gt;ctg18_17&lt;/b&gt;&lt;br&gt;ctg18 17&lt;br&gt;Location: 16792 - 19288" locus_tag="ctg18_17" class="clusterblast-orf" id="dummy-1_q5_0_all"  />
<polygon points="166,35 171,30 177,30 177,40 171,40 166,35 " style="fill:white; stroke-width:1; stroke:black; " description="&lt;b&gt;ctg18_18&lt;/b&gt;&lt;br&gt;ctg18 18&lt;br&gt;Location: 19256 - 19925" locus_tag="ctg18_18" class="clusterblast-orf" id="dummy-1_q6_0_all"  />
<polygon points="181,40 187,40 192,35 187,30 181,30 181,40 " style="fill:white; stroke-width:1; stroke:black; " description="&lt;b&gt;ctg18_19&lt;/b&gt;&lt;br&gt;ctg18 19&lt;br&gt;Location: 20199 - 20874" locus_tag="ctg18_19" class="clusterblast-orf" id="dummy-1_q7_0_all"  />
<polygon points="193,40 195,35 193,30 193,40 " style="fill:white; stroke-width:1; stroke:black; " description="&lt;b&gt;ctg18_20&lt;/b&gt;&lt;br&gt;ctg18 20&lt;br&gt;Location: 20965 - 21067" locus_tag="ctg18_20" class="clusterblast-orf" id="dummy-1_q8_0_all"  />
<polygon points="195,40 217,40 222,35 217,30 195,30 195,40 " style="fill:white; stroke-width:1; stroke:black; " description="&lt;b&gt;ctg18_21&lt;/b&gt;&lt;br&gt;ctg18 21&lt;br&gt;Location: 21063 - 22719" locus_tag="ctg18_21" class="clusterblast-orf" id="dummy-1_q9_0_all"  />
<polygon points="222,40 242,40 247,35 242,30 222,30 222,40 " style="fill:white; stroke-width:1; stroke:black; " description="&lt;b&gt;ctg18_22&lt;/b&gt;&lt;br&gt;ctg18 22&lt;br&gt;Location: 22745 - 24263" locus_tag="ctg18_22" class="clusterblast-orf" id="dummy-1_q10_0_all"  />
<polygon points="247,35 252,30 259,30 259,40 252,40 247,35 " style="fill:white; stroke-width:1; stroke:black; " description="&lt;b&gt;ctg18_23&lt;/b&gt;&lt;br&gt;ctg18 23&lt;br&gt;Location: 24284 - 24998" locus_tag="ctg18_23" class="clusterblast-orf" id="dummy-1_q11_0_all"  />
<polygon points="259,35 264,30 271,30 271,40 264,40 259,35 " style="fill:white; stroke-width:1; stroke:black; " description="&lt;b&gt;ctg18_24&lt;/b&gt;&lt;br&gt;ctg18 24&lt;br&gt;Location: 24997 - 25750" locus_tag="ctg18_24" class="clusterblast-orf" id="dummy-1_q12_0_all"  />
<polygon points="271,35 276,30 291,30 291,40 276,40 271,35 " style="fill:white; stroke-width:1; stroke:black; " description="&lt;b&gt;ctg18_25&lt;/b&gt;&lt;br&gt;ctg18 25&lt;br&gt;Location: 25758 - 26952" locus_tag="ctg18_25" class="clusterblast-orf" id="dummy-1_q13_0_all"  />
<polygon points="290,35 295,30 303,30 303,40 295,40 290,35 " style="fill:white; stroke-width:1; stroke:black; " description="&lt;b&gt;ctg18_26&lt;/b&gt;&lt;br&gt;ctg18 26&lt;br&gt;Location: 26938 - 27745" locus_tag="ctg18_26" class="clusterblast-orf" id="dummy-1_q14_0_all"  />
<polygon points="303,35 308,30 317,30 317,40 308,40 303,35 " style="fill:white; stroke-width:1; stroke:black; " description="&lt;b&gt;ctg18_27&lt;/b&gt;&lt;br&gt;ctg18 27&lt;br&gt;Location: 27741 - 28599" locus_tag="ctg18_27" class="clusterblast-orf" id="dummy-1_q15_0_all"  />
<polygon points="339,35 344,30 440,30 440,40 344,40 339,35 " style="fill:#d81515; stroke-width:1; stroke:black; " description="&lt;b&gt;ctg18_28&lt;/b&gt;&lt;br&gt;ctg18 28&lt;br&gt;Location: 29918 - 36188" locus_tag="ctg18_28" class="clusterblast-orf" id="dummy-1_q16_0_all"  />
<polygon points="448,40 456,40 461,35 456,30 448,30 448,40 " style="fill:#4dd815; stroke-width:1; stroke:black; " description="&lt;b&gt;ctg18_29&lt;/b&gt;&lt;br&gt;ctg18 29&lt;br&gt;Location: 36675 - 37470" locus_tag="ctg18_29" class="clusterblast-orf" id="dummy-1_q17_0_all"  />
<polygon points="461,40 480,40 485,35 480,30 461,30 461,40 " style="fill:#1585d8; stroke-width:1; stroke:black; " description="&lt;b&gt;ctg18_30&lt;/b&gt;&lt;br&gt;ctg18 30&lt;br&gt;Location: 37469 - 38939" locus_tag="ctg18_30" class="clusterblast-orf" id="dummy-1_q18_0_all"  />
<polygon points="484,35 489,30 498,30 498,40 489,40 484,35 " style="fill:white; stroke-width:1; stroke:black; " description="&lt;b&gt;ctg18_31&lt;/b&gt;&lt;br&gt;ctg18 31&lt;br&gt;Location: 38865 - 39726" locus_tag="ctg18_31" class="clusterblast-orf" id="dummy-1_q19_0_all"  />
<polygon points="500,40 506,40 511,35 506,30 500,30 500,40 " style="fill:white; stroke-width:1; stroke:black; " description="&lt;b&gt;ctg18_32&lt;/b&gt;&lt;br&gt;ctg18 32&lt;br&gt;Location: 39854 - 40520" locus_tag="ctg18_32" class="clusterblast-orf" id="dummy-1_q20_0_all"  />
<polygon points="511,40 518,40 523,35 518,30 511,30 511,40 " style="fill:white; stroke-width:1; stroke:black; " description="&lt;b&gt;ctg18_33&lt;/b&gt;&lt;br&gt;ctg18 33&lt;br&gt;Location: 40516 - 41287" locus_tag="ctg18_33" class="clusterblast-orf" id="dummy-1_q21_0_all"  />
<polygon points="523,40 542,40 547,35 542,30 523,30 523,40 " style="fill:white; stroke-width:1; stroke:black; " description="&lt;b&gt;ctg18_34&lt;/b&gt;&lt;br&gt;ctg18 34&lt;br&gt;Location: 41292 - 42753" locus_tag="ctg18_34" class="clusterblast-orf" id="dummy-1_q22_0_all"  />
<polygon points="548,40 557,40 562,35 557,30 548,30 548,40 " style="fill:white; stroke-width:1; stroke:black; " description="&lt;b&gt;ctg18_35&lt;/b&gt;&lt;br&gt;ctg18 35&lt;br&gt;Location: 42799 - 43657" locus_tag="ctg18_35" class="clusterblast-orf" id="dummy-1_q23_0_all"  />
<polygon points="562,40 563,40 568,35 563,30 562,30 562,40 " style="fill:white; stroke-width:1; stroke:black; " description="&lt;b&gt;ctg18_36&lt;/b&gt;&lt;br&gt;ctg18 36&lt;br&gt;Location: 43672 - 44065" locus_tag="ctg18_36" class="clusterblast-orf" id="dummy-1_q24_0_all"  />
<polygon points="569,40 585,40 590,35 585,30 569,30 569,40 " style="fill:#d815bc; stroke-width:1; stroke:black; " description="&lt;b&gt;ctg18_37&lt;/b&gt;&lt;br&gt;ctg18 37&lt;br&gt;Location: 44110 - 45415" locus_tag="ctg18_37" class="clusterblast-orf" id="dummy-1_q25_0_all"  />
<polygon points="590,40 598,40 603,35 598,30 590,30 590,40 " style="fill:white; stroke-width:1; stroke:black; " description="&lt;b&gt;ctg18_38&lt;/b&gt;&lt;br&gt;ctg18 38&lt;br&gt;Location: 45426 - 46230" locus_tag="ctg18_38" class="clusterblast-orf" id="dummy-1_q26_0_all"  />
<polygon points="604,40 612,40 617,35 612,30 604,30 604,40 " style="fill:white; stroke-width:1; stroke:black; " description="&lt;b&gt;ctg18_39&lt;/b&gt;&lt;br&gt;ctg18 39&lt;br&gt;Location: 46245 - 47046" locus_tag="ctg18_39" class="clusterblast-orf" id="dummy-1_q27_0_all"  />
<polygon points="619,35 624,30 625,30 625,40 624,40 619,35 " style="fill:white; stroke-width:1; stroke:black; " description="&lt;b&gt;ctg18_40&lt;/b&gt;&lt;br&gt;ctg18 40&lt;br&gt;Location: 47171 - 47594" locus_tag="ctg18_40" class="clusterblast-orf" id="dummy-1_q28_0_all"  />
<polygon points="629,40 645,40 650,35 645,30 629,30 629,40 " style="fill:white; stroke-width:1; stroke:black; " description="&lt;b&gt;ctg18_41&lt;/b&gt;&lt;br&gt;ctg18 41&lt;br&gt;Location: 47802 - 49101" locus_tag="ctg18_41" class="clusterblast-orf" id="dummy-1_q29_0_all"  />
<polygon points="650,40 651,40 656,35 651,30 650,30 650,40 " style="fill:white; stroke-width:1; stroke:black; " description="&lt;b&gt;ctg18_42&lt;/b&gt;&lt;br&gt;ctg18 42&lt;br&gt;Location: 49130 - 49496" locus_tag="ctg18_42" class="clusterblast-orf" id="dummy-1_q30_0_all"  />
<polygon points="656,40 665,40 670,35 665,30 656,30 656,40 " style="fill:#d8bc15; stroke-width:1; stroke:black; " description="&lt;b&gt;ctg18_43&lt;/b&gt;&lt;br&gt;ctg18 43&lt;br&gt;Location: 49508 - 50330" locus_tag="ctg18_43" class="clusterblast-orf" id="dummy-1_q31_0_all"  />
<polygon points="670,40 678,40 683,35 678,30 670,30 670,40 " style="fill:#15d885; stroke-width:1; stroke:black; " description="&lt;b&gt;ctg18_44&lt;/b&gt;&lt;br&gt;ctg18 44&lt;br&gt;Location: 50322 - 51126" locus_tag="ctg18_44" class="clusterblast-orf" id="dummy-1_q32_0_all"  />
<polygon points="683,40 690,40 695,35 690,30 683,30 683,40 " style="fill:#4d15d8; stroke-width:1; stroke:black; " description="&lt;b&gt;ctg18_45&lt;/b&gt;&lt;br&gt;ctg18 45&lt;br&gt;Location: 51115 - 51871" locus_tag="ctg18_45" class="clusterblast-orf" id="dummy-1_q33_0_all"  />
<polygon points="696,35 701,30 711,30 711,40 701,40 696,35 " style="fill:white; stroke-width:1; stroke:black; " description="&lt;b&gt;ctg18_46&lt;/b&gt;&lt;br&gt;ctg18 46&lt;br&gt;Location: 51932 - 52874" locus_tag="ctg18_46" class="clusterblast-orf" id="dummy-1_q34_0_all"  />
<polygon points="713,35 718,30 722,30 722,40 718,40 713,35 " style="fill:white; stroke-width:1; stroke:black; " description="&lt;b&gt;ctg18_47&lt;/b&gt;&lt;br&gt;ctg18 47&lt;br&gt;Location: 52985 - 53573" locus_tag="ctg18_47" class="clusterblast-orf" id="dummy-1_q35_0_all"  />
<polygon points="722,35 727,30 746,30 746,40 727,40 722,35 " style="fill:white; stroke-width:1; stroke:black; " description="&lt;b&gt;ctg18_48&lt;/b&gt;&lt;br&gt;ctg18 48&lt;br&gt;Location: 53544 - 55044" locus_tag="ctg18_48" class="clusterblast-orf" id="dummy-1_q36_0_all"  />
</g>
<g label="BGC0001980" description="BGC0001980_c1: lokisin (28% of genes show similarity), NRP" class="clusterblast-cluster"  >
<text x="5" y="70" class="clusterblast-acc"  >
<a xlink:href="https://mibig.secondarymetabolites.org/go/BGC0001980/1" target="_blank">BGC0001980</a>: lokisin                                                                          (28% of genes show similarity), NRP</text>
<line x1="10" y1="85" x2="778.0" y2="85" style="stroke-width:1; stroke:grey; "  />
</g>
<g id="a1_000"  >
<polygon points="0,85 3,80 3,90 0,85 " style="fill:white; stroke-width:1; stroke:black; " description="&lt;b&gt;QDF82256.1&lt;/b&gt;&lt;br&gt;hypothetical protein&lt;br&gt;Location: 1699 - 1905" locus_tag="QDF82256.1" class="clusterblast-orf" id="dummy-1_h1_10_0"  />
</g>
<g id="a1_001"  >
<polygon points="8,85 13,80 14,80 14,90 13,90 8,85 " style="fill:white; stroke-width:1; stroke:black; " description="&lt;b&gt;QDF82257.1&lt;/b&gt;&lt;br&gt;hypothetical protein&lt;br&gt;Location: 2198 - 2569" locus_tag="QDF82257.1" class="clusterblast-orf" id="dummy-1_h1_10_1"  />
</g>
<g id="a1_002"  >
<polygon points="20,85 25,80 26,80 26,90 25,90 20,85 " style="fill:white; stroke-width:1; stroke:black; " description="&lt;b&gt;QDF82258.1&lt;/b&gt;&lt;br&gt;hypothetical protein&lt;br&gt;Location: 2936 - 3331" locus_tag="QDF82258.1" class="clusterblast-orf" id="dummy-1_h1_10_2"  />
</g>
<g id="a1_003"  >
<polygon points="27,85 32,80 59,80 59,90 32,90 27,85 " style="fill:white; stroke-width:1; stroke:black; " description="&lt;b&gt;QDF82252.1&lt;/b&gt;&lt;br&gt;macrolide export ATP-binding/permease protein&lt;br&gt;Location: 3391 - 5349" locus_tag="QDF82252.1" class="clusterblast-orf" id="dummy-1_h1_10_3"  />
</g>
<g id="a1_004"  >
<polygon points="59,85 64,80 77,80 77,90 64,90 59,85 " style="fill:white; stroke-width:1; stroke:black; " description="&lt;b&gt;QDF82253.1&lt;/b&gt;&lt;br&gt;macrolide-specific efflux protein&lt;br&gt;Location: 5352 - 6500" locus_tag="QDF82253.1" class="clusterblast-orf" id="dummy-1_h1_10_4"  />
</g>
<g id="a1_005"  >
<polygon points="78,85 83,80 368,80 368,90 83,90 78,85 " style="fill:white; stroke-width:1; stroke:black; " description="&lt;b&gt;QDF82259.1&lt;/b&gt;&lt;br&gt;non-ribosomal peptide synthetase&lt;br&gt;Location: 6567 - 24389" locus_tag="QDF82259.1" class="clusterblast-orf" id="dummy-1_h1_10_5"  />
</g>
<g id="a1_006"  >
<polygon points="368,85 373,80 579,80 579,90 373,90 368,85 " style="fill:#d81515; stroke-width:1; stroke:black; " description="&lt;b&gt;QDF82255.1&lt;/b&gt;&lt;br&gt;non-ribosomal peptide synthetase&lt;br&gt;Location: 24386 - 37399&lt;br&gt;&lt;br&gt;&lt;b&gt;BlastP hit with ctg18_28&lt;/b&gt;&lt;br&gt;Percentage identity: 59&lt;br&gt;Percentage coverage: 79&lt;br&gt;BLAST bit score: 1867&lt;br&gt;E-value: 0.0" locus_tag="QDF82255.1" class="clusterblast-orf" id="dummy-1_h1_10_6"  />
</g>
<g id="a1_007"  >
<polygon points="583,85 588,80 686,80 686,90 588,90 583,85 " style="fill:#d81515; stroke-width:1; stroke:black; " description="&lt;b&gt;QDF82254.1&lt;/b&gt;&lt;br&gt;non-ribosomal peptide synthetase&lt;br&gt;Location: 37644 - 44033&lt;br&gt;&lt;br&gt;&lt;b&gt;BlastP hit with ctg18_28&lt;/b&gt;&lt;br&gt;Percentage identity: 63&lt;br&gt;Percentage coverage: 102&lt;br&gt;BLAST bit score: 2580&lt;br&gt;E-value: 0.0" locus_tag="QDF82254.1" class="clusterblast-orf" id="dummy-1_h1_10_7"  />
</g>
<g id="a1_008"  >
<polygon points="695,90 702,90 707,85 702,80 695,80 695,90 " style="fill:#4dd815; stroke-width:1; stroke:black; " description="&lt;b&gt;QDF82260.1&lt;/b&gt;&lt;br&gt;transcriptional regulator, LuxR family&lt;br&gt;Location: 44546 - 45340&lt;br&gt;&lt;br&gt;&lt;b&gt;BlastP hit with ctg18_29&lt;/b&gt;&lt;br&gt;Percentage identity: 61&lt;br&gt;Percentage coverage: 100&lt;br&gt;BLAST bit score: 308&lt;br&gt;E-value: 4.29e-106" locus_tag="QDF82260.1" class="clusterblast-orf" id="dummy-1_h1_10_8"  />
</g>
<g id="a1_009"  >
<polygon points="709,90 727,90 732,85 727,80 709,80 709,90 " style="fill:#1585d8; stroke-width:1; stroke:black; " description="&lt;b&gt;QDF82261.1&lt;/b&gt;&lt;br&gt;RND efflux system, outer membrane lipoprotein CmeC&lt;br&gt;Location: 45425 - 46831&lt;br&gt;&lt;br&gt;&lt;b&gt;BlastP hit with ctg18_30&lt;/b&gt;&lt;br&gt;Percentage identity: 73&lt;br&gt;Percentage coverage: 94&lt;br&gt;BLAST bit score: 640&lt;br&gt;E-value: 6.07e-230" locus_tag="QDF82261.1" class="clusterblast-orf" id="dummy-1_h1_10_9"  />
</g>
<g id="a1_0010"  >
<polygon points="734,90 739,90 744,85 739,80 734,80 734,90 " style="fill:white; stroke-width:1; stroke:black; " description="&lt;b&gt;QDF82262.1&lt;/b&gt;&lt;br&gt;cytochrome oxidase biogenesis protein Sco1/SenC/PrrC, putative copper metallochaperone&lt;br&gt;Location: 46988 - 47593" locus_tag="QDF82262.1" class="clusterblast-orf" id="dummy-1_h1_10_10"  />
</g>
<g id="a1_0011"  >
<polygon points="744,90 747,90 752,85 747,80 744,80 744,90 " style="fill:white; stroke-width:1; stroke:black; " description="&lt;b&gt;QDF82263.1&lt;/b&gt;&lt;br&gt;copper metallochaperone&lt;br&gt;Location: 47605 - 48072" locus_tag="QDF82263.1" class="clusterblast-orf" id="dummy-1_h1_10_11"  />
</g>
<g id="a1_0012"  >
<polygon points="753,85 758,80 761,80 761,90 758,90 753,85 " style="fill:white; stroke-width:1; stroke:black; " description="&lt;b&gt;QDF82264.1&lt;/b&gt;&lt;br&gt;hypothetical protein&lt;br&gt;Location: 48142 - 48636" locus_tag="QDF82264.1" class="clusterblast-orf" id="dummy-1_h1_10_12"  />
</g>
<g id="a1_0013"  >
<polygon points="763,85 768,80 779,80 779,90 768,90 763,85 " style="fill:white; stroke-width:1; stroke:black; " description="&lt;b&gt;QDF82265.1&lt;/b&gt;&lt;br&gt;ABC-type nitrate/sulfonate/bicarbonate transport systems, periplasmic components&lt;br&gt;Location: 48764 - 49780" locus_tag="QDF82265.1" class="clusterblast-orf" id="dummy-1_h1_10_13"  />
</g>
</svg>
