<svg xmlns="http://www.w3.org/2000/svg" xmlns:xlink="http://www.w3.org/1999/xlink" version="1.1" x="0" y="0" height="230" width="800" viewBox="0 0 800 230" preserveAspectRatio="none"  >
<g label="Query sequence" class="clusterblast-cluster"  >
<text x="5" y="20" class="clusterblast-acc"  >
Query sequence</text>
<line x1="10" y1="35" x2="778.0" y2="35" style="stroke-width:1; stroke:grey; "  />
<polygon points="250,35 255,30 256,30 256,40 255,40 250,35 " style="fill:white; stroke-width:1; stroke:black; " description="&lt;b&gt;ctg18_12&lt;/b&gt;&lt;br&gt;ctg18 12&lt;br&gt;Location: 11079 - 12003" locus_tag="ctg18_12" class="clusterblast-orf" id="dummy-1_q0_0_all"  />
<polygon points="258,40 262,35 258,30 258,40 " style="fill:white; stroke-width:1; stroke:black; " description="&lt;b&gt;ctg18_13&lt;/b&gt;&lt;br&gt;ctg18 13&lt;br&gt;Location: 12320 - 12992" locus_tag="ctg18_13" class="clusterblast-orf" id="dummy-1_q1_0_all"  />
<polygon points="262,40 264,40 269,35 264,30 262,30 262,40 " style="fill:white; stroke-width:1; stroke:black; " description="&lt;b&gt;ctg18_14&lt;/b&gt;&lt;br&gt;ctg18 14&lt;br&gt;Location: 12994 - 14095" locus_tag="ctg18_14" class="clusterblast-orf" id="dummy-1_q2_0_all"  />
<polygon points="269,35 274,30 278,30 278,40 274,40 269,35 " style="fill:white; stroke-width:1; stroke:black; " description="&lt;b&gt;ctg18_15&lt;/b&gt;&lt;br&gt;ctg18 15&lt;br&gt;Location: 14145 - 15588" locus_tag="ctg18_15" class="clusterblast-orf" id="dummy-1_q3_0_all"  />
<polygon points="279,35 284,30 286,30 286,40 284,40 279,35 " style="fill:white; stroke-width:1; stroke:black; " description="&lt;b&gt;ctg18_16&lt;/b&gt;&lt;br&gt;ctg18 16&lt;br&gt;Location: 15738 - 16803" locus_tag="ctg18_16" class="clusterblast-orf" id="dummy-1_q4_0_all"  />
<polygon points="286,35 291,30 302,30 302,40 291,40 286,35 " style="fill:white; stroke-width:1; stroke:black; " description="&lt;b&gt;ctg18_17&lt;/b&gt;&lt;br&gt;ctg18 17&lt;br&gt;Location: 16792 - 19288" locus_tag="ctg18_17" class="clusterblast-orf" id="dummy-1_q5_0_all"  />
<polygon points="302,35 306,30 306,40 302,35 " style="fill:white; stroke-width:1; stroke:black; " description="&lt;b&gt;ctg18_18&lt;/b&gt;&lt;br&gt;ctg18 18&lt;br&gt;Location: 19256 - 19925" locus_tag="ctg18_18" class="clusterblast-orf" id="dummy-1_q6_0_all"  />
<polygon points="308,40 312,35 308,30 308,40 " style="fill:white; stroke-width:1; stroke:black; " description="&lt;b&gt;ctg18_19&lt;/b&gt;&lt;br&gt;ctg18 19&lt;br&gt;Location: 20199 - 20874" locus_tag="ctg18_19" class="clusterblast-orf" id="dummy-1_q7_0_all"  />
<polygon points="313,40 313,35 313,30 313,40 " style="fill:white; stroke-width:1; stroke:black; " description="&lt;b&gt;ctg18_20&lt;/b&gt;&lt;br&gt;ctg18 20&lt;br&gt;Location: 20965 - 21067" locus_tag="ctg18_20" class="clusterblast-orf" id="dummy-1_q8_0_all"  />
<polygon points="313,40 319,40 324,35 319,30 313,30 313,40 " style="fill:white; stroke-width:1; stroke:black; " description="&lt;b&gt;ctg18_21&lt;/b&gt;&lt;br&gt;ctg18 21&lt;br&gt;Location: 21063 - 22719" locus_tag="ctg18_21" class="clusterblast-orf" id="dummy-1_q9_0_all"  />
<polygon points="324,40 329,40 334,35 329,30 324,30 324,40 " style="fill:white; stroke-width:1; stroke:black; " description="&lt;b&gt;ctg18_22&lt;/b&gt;&lt;br&gt;ctg18 22&lt;br&gt;Location: 22745 - 24263" locus_tag="ctg18_22" class="clusterblast-orf" id="dummy-1_q10_0_all"  />
<polygon points="334,35 338,30 338,40 334,35 " style="fill:white; stroke-width:1; stroke:black; " description="&lt;b&gt;ctg18_23&lt;/b&gt;&lt;br&gt;ctg18 23&lt;br&gt;Location: 24284 - 24998" locus_tag="ctg18_23" class="clusterblast-orf" id="dummy-1_q11_0_all"  />
<polygon points="338,35 343,30 343,30 343,40 343,40 338,35 " style="fill:white; stroke-width:1; stroke:black; " description="&lt;b&gt;ctg18_24&lt;/b&gt;&lt;br&gt;ctg18 24&lt;br&gt;Location: 24997 - 25750" locus_tag="ctg18_24" class="clusterblast-orf" id="dummy-1_q12_0_all"  />
<polygon points="343,35 348,30 351,30 351,40 348,40 343,35 " style="fill:white; stroke-width:1; stroke:black; " description="&lt;b&gt;ctg18_25&lt;/b&gt;&lt;br&gt;ctg18 25&lt;br&gt;Location: 25758 - 26952" locus_tag="ctg18_25" class="clusterblast-orf" id="dummy-1_q13_0_all"  />
<polygon points="351,35 356,30 356,30 356,40 356,40 351,35 " style="fill:white; stroke-width:1; stroke:black; " description="&lt;b&gt;ctg18_26&lt;/b&gt;&lt;br&gt;ctg18 26&lt;br&gt;Location: 26938 - 27745" locus_tag="ctg18_26" class="clusterblast-orf" id="dummy-1_q14_0_all"  />
<polygon points="356,35 361,30 361,30 361,40 361,40 356,35 " style="fill:white; stroke-width:1; stroke:black; " description="&lt;b&gt;ctg18_27&lt;/b&gt;&lt;br&gt;ctg18 27&lt;br&gt;Location: 27741 - 28599" locus_tag="ctg18_27" class="clusterblast-orf" id="dummy-1_q15_0_all"  />
<polygon points="370,35 375,30 409,30 409,40 375,40 370,35 " style="fill:#d81515; stroke-width:1; stroke:black; " description="&lt;b&gt;ctg18_28&lt;/b&gt;&lt;br&gt;ctg18 28&lt;br&gt;Location: 29918 - 36188" locus_tag="ctg18_28" class="clusterblast-orf" id="dummy-1_q16_0_all"  />
<polygon points="413,40 413,40 418,35 413,30 413,30 413,40 " style="fill:#4dd815; stroke-width:1; stroke:black; " description="&lt;b&gt;ctg18_29&lt;/b&gt;&lt;br&gt;ctg18 29&lt;br&gt;Location: 36675 - 37470" locus_tag="ctg18_29" class="clusterblast-orf" id="dummy-1_q17_0_all"  />
<polygon points="418,40 422,40 427,35 422,30 418,30 418,40 " style="fill:#1585d8; stroke-width:1; stroke:black; " description="&lt;b&gt;ctg18_30&lt;/b&gt;&lt;br&gt;ctg18 30&lt;br&gt;Location: 37469 - 38939" locus_tag="ctg18_30" class="clusterblast-orf" id="dummy-1_q18_0_all"  />
<polygon points="426,35 431,30 432,30 432,40 431,40 426,35 " style="fill:white; stroke-width:1; stroke:black; " description="&lt;b&gt;ctg18_31&lt;/b&gt;&lt;br&gt;ctg18 31&lt;br&gt;Location: 38865 - 39726" locus_tag="ctg18_31" class="clusterblast-orf" id="dummy-1_q19_0_all"  />
<polygon points="433,40 437,35 433,30 433,40 " style="fill:white; stroke-width:1; stroke:black; " description="&lt;b&gt;ctg18_32&lt;/b&gt;&lt;br&gt;ctg18 32&lt;br&gt;Location: 39854 - 40520" locus_tag="ctg18_32" class="clusterblast-orf" id="dummy-1_q20_0_all"  />
<polygon points="437,40 437,40 442,35 437,30 437,30 437,40 " style="fill:white; stroke-width:1; stroke:black; " description="&lt;b&gt;ctg18_33&lt;/b&gt;&lt;br&gt;ctg18 33&lt;br&gt;Location: 40516 - 41287" locus_tag="ctg18_33" class="clusterblast-orf" id="dummy-1_q21_0_all"  />
<polygon points="442,40 446,40 451,35 446,30 442,30 442,40 " style="fill:white; stroke-width:1; stroke:black; " description="&lt;b&gt;ctg18_34&lt;/b&gt;&lt;br&gt;ctg18 34&lt;br&gt;Location: 41292 - 42753" locus_tag="ctg18_34" class="clusterblast-orf" id="dummy-1_q22_0_all"  />
<polygon points="451,40 452,40 457,35 452,30 451,30 451,40 " style="fill:white; stroke-width:1; stroke:black; " description="&lt;b&gt;ctg18_35&lt;/b&gt;&lt;br&gt;ctg18 35&lt;br&gt;Location: 42799 - 43657" locus_tag="ctg18_35" class="clusterblast-orf" id="dummy-1_q23_0_all"  />
<polygon points="457,40 460,35 457,30 457,40 " style="fill:white; stroke-width:1; stroke:black; " description="&lt;b&gt;ctg18_36&lt;/b&gt;&lt;br&gt;ctg18 36&lt;br&gt;Location: 43672 - 44065" locus_tag="ctg18_36" class="clusterblast-orf" id="dummy-1_q24_0_all"  />
<polygon points="460,40 463,40 468,35 463,30 460,30 460,40 " style="fill:#d815bc; stroke-width:1; stroke:black; " description="&lt;b&gt;ctg18_37&lt;/b&gt;&lt;br&gt;ctg18 37&lt;br&gt;Location: 44110 - 45415" locus_tag="ctg18_37" class="clusterblast-orf" id="dummy-1_q25_0_all"  />
<polygon points="468,40 468,40 473,35 468,30 468,30 468,40 " style="fill:white; stroke-width:1; stroke:black; " description="&lt;b&gt;ctg18_38&lt;/b&gt;&lt;br&gt;ctg18 38&lt;br&gt;Location: 45426 - 46230" locus_tag="ctg18_38" class="clusterblast-orf" id="dummy-1_q26_0_all"  />
<polygon points="473,40 473,40 478,35 473,30 473,30 473,40 " style="fill:white; stroke-width:1; stroke:black; " description="&lt;b&gt;ctg18_39&lt;/b&gt;&lt;br&gt;ctg18 39&lt;br&gt;Location: 46245 - 47046" locus_tag="ctg18_39" class="clusterblast-orf" id="dummy-1_q27_0_all"  />
<polygon points="479,35 482,30 482,40 479,35 " style="fill:white; stroke-width:1; stroke:black; " description="&lt;b&gt;ctg18_40&lt;/b&gt;&lt;br&gt;ctg18 40&lt;br&gt;Location: 47171 - 47594" locus_tag="ctg18_40" class="clusterblast-orf" id="dummy-1_q28_0_all"  />
<polygon points="483,40 487,40 492,35 487,30 483,30 483,40 " style="fill:white; stroke-width:1; stroke:black; " description="&lt;b&gt;ctg18_41&lt;/b&gt;&lt;br&gt;ctg18 41&lt;br&gt;Location: 47802 - 49101" locus_tag="ctg18_41" class="clusterblast-orf" id="dummy-1_q29_0_all"  />
<polygon points="492,40 494,35 492,30 492,40 " style="fill:white; stroke-width:1; stroke:black; " description="&lt;b&gt;ctg18_42&lt;/b&gt;&lt;br&gt;ctg18 42&lt;br&gt;Location: 49130 - 49496" locus_tag="ctg18_42" class="clusterblast-orf" id="dummy-1_q30_0_all"  />
<polygon points="494,40 494,40 499,35 494,30 494,30 494,40 " style="fill:#d8bc15; stroke-width:1; stroke:black; " description="&lt;b&gt;ctg18_43&lt;/b&gt;&lt;br&gt;ctg18 43&lt;br&gt;Location: 49508 - 50330" locus_tag="ctg18_43" class="clusterblast-orf" id="dummy-1_q31_0_all"  />
<polygon points="499,40 499,40 504,35 499,30 499,30 499,40 " style="fill:#15d885; stroke-width:1; stroke:black; " description="&lt;b&gt;ctg18_44&lt;/b&gt;&lt;br&gt;ctg18 44&lt;br&gt;Location: 50322 - 51126" locus_tag="ctg18_44" class="clusterblast-orf" id="dummy-1_q32_0_all"  />
<polygon points="504,40 504,40 509,35 504,30 504,30 504,40 " style="fill:#4d15d8; stroke-width:1; stroke:black; " description="&lt;b&gt;ctg18_45&lt;/b&gt;&lt;br&gt;ctg18 45&lt;br&gt;Location: 51115 - 51871" locus_tag="ctg18_45" class="clusterblast-orf" id="dummy-1_q33_0_all"  />
<polygon points="510,35 515,30 516,30 516,40 515,40 510,35 " style="fill:white; stroke-width:1; stroke:black; " description="&lt;b&gt;ctg18_46&lt;/b&gt;&lt;br&gt;ctg18 46&lt;br&gt;Location: 51932 - 52874" locus_tag="ctg18_46" class="clusterblast-orf" id="dummy-1_q34_0_all"  />
<polygon points="516,35 520,30 520,40 516,35 " style="fill:white; stroke-width:1; stroke:black; " description="&lt;b&gt;ctg18_47&lt;/b&gt;&lt;br&gt;ctg18 47&lt;br&gt;Location: 52985 - 53573" locus_tag="ctg18_47" class="clusterblast-orf" id="dummy-1_q35_0_all"  />
<polygon points="520,35 525,30 529,30 529,40 525,40 520,35 " style="fill:white; stroke-width:1; stroke:black; " description="&lt;b&gt;ctg18_48&lt;/b&gt;&lt;br&gt;ctg18 48&lt;br&gt;Location: 53544 - 55044" locus_tag="ctg18_48" class="clusterblast-orf" id="dummy-1_q36_0_all"  />
</g>
<g label="BGC0000437" description="BGC0000437_c1: syringomycin (29% of genes show similarity), NRP" class="clusterblast-cluster"  >
<text x="5" y="70" class="clusterblast-acc"  >
<a xlink:href="https://mibig.secondarymetabolites.org/go/BGC0000437/1" target="_blank">BGC0000437</a>: syringomycin                                                                     (29% of genes show similarity), NRP</text>
<line x1="10" y1="85" x2="778.0" y2="85" style="stroke-width:1; stroke:grey; "  />
</g>
<g id="a1_000"  >
<polygon points="0,85 5,80 19,80 19,90 5,90 0,85 " style="fill:white; stroke-width:1; stroke:black; " description="&lt;b&gt;Psyr_2622&lt;/b&gt;&lt;br&gt;Acriflavin resistance protein&lt;br&gt;Location: 122698 - 119654" locus_tag="Psyr_2622" class="clusterblast-orf" id="dummy-1_h1_4_0"  />
</g>
<g id="a1_001"  >
<polygon points="19,85 24,80 26,80 26,90 24,90 19,85 " style="fill:white; stroke-width:1; stroke:black; " description="&lt;b&gt;Psyr_2621&lt;/b&gt;&lt;br&gt;Secretion protein HlyD&lt;br&gt;Location: 119657 - 118554" locus_tag="Psyr_2621" class="clusterblast-orf" id="dummy-1_h1_4_1"  />
</g>
<g id="a1_002"  >
<polygon points="26,85 31,80 35,80 35,90 31,90 26,85 " style="fill:white; stroke-width:1; stroke:black; " description="&lt;b&gt;Psyr_2620&lt;/b&gt;&lt;br&gt;RND efflux system, outer membrane lipoprotein, NodT&lt;br&gt;Location: 118557 - 117127" locus_tag="Psyr_2620" class="clusterblast-orf" id="dummy-1_h1_4_2"  />
</g>
<g id="a1_003"  >
<polygon points="37,90 40,90 45,85 40,80 37,80 37,90 " style="fill:white; stroke-width:1; stroke:black; " description="&lt;b&gt;Psyr_2619&lt;/b&gt;&lt;br&gt;diaminobutyrate aminotransferase apoenzyme&lt;br&gt;Location: 116850 - 115516" locus_tag="Psyr_2619" class="clusterblast-orf" id="dummy-1_h1_4_3"  />
</g>
<g id="a1_004"  >
<polygon points="47,85 52,80 59,80 59,90 52,90 47,85 " style="fill:white; stroke-width:1; stroke:black; " description="&lt;b&gt;Psyr_2618&lt;/b&gt;&lt;br&gt;ABC transporter:Protein of unknown function DUF214&lt;br&gt;Location: 115301 - 113340" locus_tag="Psyr_2618" class="clusterblast-orf" id="dummy-1_h1_4_4"  />
</g>
<g id="a1_005"  >
<polygon points="59,85 64,80 66,80 66,90 64,90 59,85 " style="fill:white; stroke-width:1; stroke:black; " description="&lt;b&gt;Psyr_2617&lt;/b&gt;&lt;br&gt;Secretion protein HlyD&lt;br&gt;Location: 113337 - 112180" locus_tag="Psyr_2617" class="clusterblast-orf" id="dummy-1_h1_4_5"  />
</g>
<g id="a1_006"  >
<polygon points="67,85 72,80 325,80 325,90 72,90 67,85 " style="fill:#d81515; stroke-width:1; stroke:black; " description="&lt;b&gt;Psyr_2616&lt;/b&gt;&lt;br&gt;Amino acid adenylation&lt;br&gt;Location: 112116 - 71503&lt;br&gt;&lt;br&gt;&lt;b&gt;BlastP hit with ctg18_28&lt;/b&gt;&lt;br&gt;Percentage identity: 51&lt;br&gt;Percentage coverage: 84&lt;br&gt;BLAST bit score: 1539&lt;br&gt;E-value: 0.0" locus_tag="Psyr_2616" class="clusterblast-orf" id="dummy-1_h1_4_6"  />
</g>
<g id="a1_007"  >
<polygon points="328,85 333,80 432,80 432,90 333,90 328,85 " style="fill:white; stroke-width:1; stroke:black; " description="&lt;b&gt;Psyr_2615&lt;/b&gt;&lt;br&gt;Amino acid adenylation&lt;br&gt;Location: 71077 - 54668" locus_tag="Psyr_2615" class="clusterblast-orf" id="dummy-1_h1_4_7"  />
</g>
<g id="a1_008"  >
<polygon points="432,85 437,80 534,80 534,90 437,90 432,85 " style="fill:#d81515; stroke-width:1; stroke:black; " description="&lt;b&gt;Psyr_2614&lt;/b&gt;&lt;br&gt;Amino acid adenylation&lt;br&gt;Location: 54671 - 38553&lt;br&gt;&lt;br&gt;&lt;b&gt;BlastP hit with ctg18_28&lt;/b&gt;&lt;br&gt;Percentage identity: 49&lt;br&gt;Percentage coverage: 104&lt;br&gt;BLAST bit score: 1860&lt;br&gt;E-value: 0.0" locus_tag="Psyr_2614" class="clusterblast-orf" id="dummy-1_h1_4_8"  />
</g>
<g id="a1_009"  >
<polygon points="535,85 540,80 546,80 546,90 540,90 535,85 " style="fill:white; stroke-width:1; stroke:black; " description="&lt;b&gt;Psyr_2613&lt;/b&gt;&lt;br&gt;Cyclic peptide transporter&lt;br&gt;Location: 38495 - 36795" locus_tag="Psyr_2613" class="clusterblast-orf" id="dummy-1_h1_4_9"  />
</g>
<g id="a1_0010"  >
<polygon points="546,85 551,80 553,80 553,90 551,90 546,85 " style="fill:white; stroke-width:1; stroke:black; " description="&lt;b&gt;Psyr_2612&lt;/b&gt;&lt;br&gt;syrP protein, putative&lt;br&gt;Location: 36714 - 35653" locus_tag="Psyr_2612" class="clusterblast-orf" id="dummy-1_h1_4_10"  />
</g>
<g id="a1_0011"  >
<polygon points="555,90 562,90 567,85 562,80 555,80 555,90 " style="fill:white; stroke-width:1; stroke:black; " description="&lt;b&gt;Psyr_2611&lt;/b&gt;&lt;br&gt;Amino acid adenylation&lt;br&gt;Location: 35321 - 33477" locus_tag="Psyr_2611" class="clusterblast-orf" id="dummy-1_h1_4_11"  />
</g>
<g id="a1_0012"  >
<polygon points="567,90 568,90 573,85 568,80 567,80 567,90 " style="fill:white; stroke-width:1; stroke:black; " description="&lt;b&gt;Psyr_2610&lt;/b&gt;&lt;br&gt;Chlorinating enzyme&lt;br&gt;Location: 33459 - 32527" locus_tag="Psyr_2610" class="clusterblast-orf" id="dummy-1_h1_4_12"  />
</g>
<g id="a1_0013"  >
<polygon points="573,90 576,90 581,85 576,80 573,80 573,90 " style="fill:white; stroke-width:1; stroke:black; " description="&lt;b&gt;Psyr_2609&lt;/b&gt;&lt;br&gt;Alpha/beta hydrolase fold protein&lt;br&gt;Location: 32455 - 31244" locus_tag="Psyr_2609" class="clusterblast-orf" id="dummy-1_h1_4_13"  />
</g>
<g id="a1_0014"  >
<polygon points="583,90 759,90 764,85 759,80 583,80 583,90 " style="fill:#d81515; stroke-width:1; stroke:black; " description="&lt;b&gt;Psyr_2608&lt;/b&gt;&lt;br&gt;Amino acid adenylation&lt;br&gt;Location: 30967 - 2471&lt;br&gt;&lt;br&gt;&lt;b&gt;BlastP hit with ctg18_28&lt;/b&gt;&lt;br&gt;Percentage identity: 47&lt;br&gt;Percentage coverage: 103&lt;br&gt;BLAST bit score: 1743&lt;br&gt;E-value: 0.0" locus_tag="Psyr_2608" class="clusterblast-orf" id="dummy-1_h1_4_14"  />
</g>
<g id="a1_0015"  >
<polygon points="765,90 766,90 771,85 766,80 765,80 765,90 " style="fill:#4dd815; stroke-width:1; stroke:black; " description="&lt;b&gt;Psyr_2607&lt;/b&gt;&lt;br&gt;regulatory protein, LuxR&lt;br&gt;Location: 2246 - 1416&lt;br&gt;&lt;br&gt;&lt;b&gt;BlastP hit with ctg18_29&lt;/b&gt;&lt;br&gt;Percentage identity: 47&lt;br&gt;Percentage coverage: 102&lt;br&gt;BLAST bit score: 231&lt;br&gt;E-value: 2.62e-75" locus_tag="Psyr_2607" class="clusterblast-orf" id="dummy-1_h1_4_15"  />
</g>
<g id="a1_0016"  >
<polygon points="770,90 775,90 780,85 775,80 770,80 770,90 " style="fill:#1585d8; stroke-width:1; stroke:black; " description="&lt;b&gt;Psyr_2606&lt;/b&gt;&lt;br&gt;RND efflux system, outer membrane lipoprotein, NodT&lt;br&gt;Location: 1437 - 1&lt;br&gt;&lt;br&gt;&lt;b&gt;BlastP hit with ctg18_30&lt;/b&gt;&lt;br&gt;Percentage identity: 69&lt;br&gt;Percentage coverage: 96&lt;br&gt;BLAST bit score: 621&lt;br&gt;E-value: 2.44e-222" locus_tag="Psyr_2606" class="clusterblast-orf" id="dummy-1_h1_4_16"  />
</g>
</svg>
