<svg xmlns="http://www.w3.org/2000/svg" xmlns:xlink="http://www.w3.org/1999/xlink" version="1.1" x="0" y="0" height="230" width="800" viewBox="0 0 800 230" preserveAspectRatio="none"  >
<g label="Query sequence" class="clusterblast-cluster"  >
<text x="5" y="20" class="clusterblast-acc"  >
Query sequence</text>
<line x1="10" y1="35" x2="778.0" y2="35" style="stroke-width:1; stroke:grey; "  />
<polygon points="0,40 22,40 27,35 22,30 0,30 0,40 " style="fill:white; stroke-width:1; stroke:black; " description="&lt;b&gt;ctg39_10&lt;/b&gt;&lt;br&gt;ctg39 10&lt;br&gt;Location: 9963 - 10647" locus_tag="ctg39_10" class="clusterblast-orf" id="dummy-1_q0_0_all"  />
<polygon points="26,40 43,40 48,35 43,30 26,30 26,40 " style="fill:white; stroke-width:1; stroke:black; " description="&lt;b&gt;ctg39_11&lt;/b&gt;&lt;br&gt;ctg39 11&lt;br&gt;Location: 10643 - 11195" locus_tag="ctg39_11" class="clusterblast-orf" id="dummy-1_q1_0_all"  />
<polygon points="48,40 81,40 86,35 81,30 48,30 48,40 " style="fill:white; stroke-width:1; stroke:black; " description="&lt;b&gt;ctg39_12&lt;/b&gt;&lt;br&gt;ctg39 12&lt;br&gt;Location: 11191 - 12163" locus_tag="ctg39_12" class="clusterblast-orf" id="dummy-1_q2_0_all"  />
<polygon points="82,35 87,30 89,30 89,40 87,40 82,35 " style="fill:white; stroke-width:1; stroke:black; " description="&lt;b&gt;ctg39_13&lt;/b&gt;&lt;br&gt;ctg39 13&lt;br&gt;Location: 12075 - 12252" locus_tag="ctg39_13" class="clusterblast-orf" id="dummy-1_q3_0_all"  />
<polygon points="104,35 108,30 108,40 104,35 " style="fill:white; stroke-width:1; stroke:black; " description="&lt;b&gt;ctg39_14&lt;/b&gt;&lt;br&gt;ctg39 14&lt;br&gt;Location: 12627 - 12735" locus_tag="ctg39_14" class="clusterblast-orf" id="dummy-1_q4_0_all"  />
<polygon points="118,35 123,30 150,30 150,40 123,40 118,35 " style="fill:white; stroke-width:1; stroke:black; " description="&lt;b&gt;ctg39_15&lt;/b&gt;&lt;br&gt;ctg39 15&lt;br&gt;Location: 13003 - 13813" locus_tag="ctg39_15" class="clusterblast-orf" id="dummy-1_q5_0_all"  />
<polygon points="165,40 203,40 208,35 203,30 165,30 165,40 " style="fill:white; stroke-width:1; stroke:black; " description="&lt;b&gt;ctg39_16&lt;/b&gt;&lt;br&gt;ctg39 16&lt;br&gt;Location: 14208 - 15309" locus_tag="ctg39_16" class="clusterblast-orf" id="dummy-1_q6_0_all"  />
<polygon points="209,40 265,40 270,35 265,30 209,30 209,40 " style="fill:white; stroke-width:1; stroke:black; " description="&lt;b&gt;ctg39_17&lt;/b&gt;&lt;br&gt;ctg39 17&lt;br&gt;Location: 15319 - 16888" locus_tag="ctg39_17" class="clusterblast-orf" id="dummy-1_q7_0_all"  />
<polygon points="273,35 278,30 287,30 287,40 278,40 273,35 " style="fill:white; stroke-width:1; stroke:black; " description="&lt;b&gt;ctg39_18&lt;/b&gt;&lt;br&gt;ctg39 18&lt;br&gt;Location: 16985 - 17339" locus_tag="ctg39_18" class="clusterblast-orf" id="dummy-1_q8_0_all"  />
<polygon points="288,40 452,40 457,35 452,30 288,30 288,40 " style="fill:white; stroke-width:1; stroke:black; " description="&lt;b&gt;ctg39_19&lt;/b&gt;&lt;br&gt;ctg39 19&lt;br&gt;Location: 17363 - 21686" locus_tag="ctg39_19" class="clusterblast-orf" id="dummy-1_q9_0_all"  />
<polygon points="461,40 512,40 517,35 512,30 461,30 461,40 " style="fill:white; stroke-width:1; stroke:black; " description="&lt;b&gt;ctg39_20&lt;/b&gt;&lt;br&gt;ctg39 20&lt;br&gt;Location: 21810 - 23229" locus_tag="ctg39_20" class="clusterblast-orf" id="dummy-1_q10_0_all"  />
<polygon points="527,40 563,40 568,35 563,30 527,30 527,40 " style="fill:white; stroke-width:1; stroke:black; " description="&lt;b&gt;ctg39_21&lt;/b&gt;&lt;br&gt;ctg39 21&lt;br&gt;Location: 23482 - 24550" locus_tag="ctg39_21" class="clusterblast-orf" id="dummy-1_q11_0_all"  />
<polygon points="573,35 578,30 620,30 620,40 578,40 573,35 " style="fill:white; stroke-width:1; stroke:black; " description="&lt;b&gt;ctg39_22&lt;/b&gt;&lt;br&gt;ctg39 22&lt;br&gt;Location: 24666 - 25884" locus_tag="ctg39_22" class="clusterblast-orf" id="dummy-1_q12_0_all"  />
<polygon points="627,40 657,40 662,35 657,30 627,30 627,40 " style="fill:white; stroke-width:1; stroke:black; " description="&lt;b&gt;ctg39_23&lt;/b&gt;&lt;br&gt;ctg39 23&lt;br&gt;Location: 26065 - 26959" locus_tag="ctg39_23" class="clusterblast-orf" id="dummy-1_q13_0_all"  />
<polygon points="662,35 667,30 671,30 671,40 667,40 662,35 " style="fill:white; stroke-width:1; stroke:black; " description="&lt;b&gt;ctg39_24&lt;/b&gt;&lt;br&gt;ctg39 24&lt;br&gt;Location: 26965 - 27193" locus_tag="ctg39_24" class="clusterblast-orf" id="dummy-1_q14_0_all"  />
<polygon points="674,35 679,30 691,30 691,40 679,40 674,35 " style="fill:white; stroke-width:1; stroke:black; " description="&lt;b&gt;ctg39_25&lt;/b&gt;&lt;br&gt;ctg39 25&lt;br&gt;Location: 27258 - 27708" locus_tag="ctg39_25" class="clusterblast-orf" id="dummy-1_q15_0_all"  />
<polygon points="692,35 697,30 740,30 740,40 697,40 692,35 " style="fill:#d81515; stroke-width:1; stroke:black; " description="&lt;b&gt;ctg39_26&lt;/b&gt;&lt;br&gt;ctg39 26&lt;br&gt;Location: 27735 - 28962" locus_tag="ctg39_26" class="clusterblast-orf" id="dummy-1_q16_0_all"  />
<polygon points="740,35 745,30 768,30 768,40 745,40 740,35 " style="fill:#15d8d8; stroke-width:1; stroke:black; " description="&lt;b&gt;ctg39_27&lt;/b&gt;&lt;br&gt;ctg39 27&lt;br&gt;Location: 28961 - 29690" locus_tag="ctg39_27" class="clusterblast-orf" id="dummy-1_q17_0_all"  />
<polygon points="768,35 773,30 780,30 780,40 773,40 768,35 " style="fill:white; stroke-width:1; stroke:black; " description="&lt;b&gt;ctg39_28&lt;/b&gt;&lt;br&gt;ctg39 28&lt;br&gt;Location: 29686 - 29983" locus_tag="ctg39_28" class="clusterblast-orf" id="dummy-1_q18_0_all"  />
</g>
<g label="BGC0000836" description="BGC0000836_c1: APE Ec (10% of genes show similarity), Other" class="clusterblast-cluster"  >
<text x="5" y="70" class="clusterblast-acc"  >
<a xlink:href="https://mibig.secondarymetabolites.org/go/BGC0000836/1" target="_blank">BGC0000836</a>: APE Ec                                                                           (10% of genes show similarity), Other</text>
<line x1="10" y1="85" x2="778.0" y2="85" style="stroke-width:1; stroke:grey; "  />
</g>
<g id="a1_000"  >
<polygon points="97,85 102,80 145,80 145,90 102,90 97,85 " style="fill:#d81515; stroke-width:1; stroke:black; " description="&lt;b&gt;c1186&lt;/b&gt;&lt;br&gt;Putative beta-ketoacyl-ACP synthase&lt;br&gt;Location: 1 - 1230&lt;br&gt;&lt;br&gt;&lt;b&gt;BlastP hit with ctg39_26&lt;/b&gt;&lt;br&gt;Percentage identity: 54&lt;br&gt;Percentage coverage: 100&lt;br&gt;BLAST bit score: 477&lt;br&gt;E-value: 6.35e-168" locus_tag="c1186" class="clusterblast-orf" id="dummy-1_h1_3_0"  />
</g>
<g id="a1_001"  >
<polygon points="145,85 150,80 173,80 173,90 150,90 145,85 " style="fill:#15d8d8; stroke-width:1; stroke:black; " description="&lt;b&gt;c1187&lt;/b&gt;&lt;br&gt;3-oxoacyl-[acyl-carrier protein] reductase&lt;br&gt;Location: 1227 - 1958&lt;br&gt;&lt;br&gt;&lt;b&gt;BlastP hit with ctg39_27&lt;/b&gt;&lt;br&gt;Percentage identity: 60&lt;br&gt;Percentage coverage: 100&lt;br&gt;BLAST bit score: 290&lt;br&gt;E-value: 1.26e-99" locus_tag="c1187" class="clusterblast-orf" id="dummy-1_h1_3_1"  />
</g>
<g id="a1_002"  >
<polygon points="173,85 178,80 191,80 191,90 178,90 173,85 " style="fill:white; stroke-width:1; stroke:black; " description="&lt;b&gt;c1188&lt;/b&gt;&lt;br&gt;Conserved hypothetical protein&lt;br&gt;Location: 1958 - 2422" locus_tag="c1188" class="clusterblast-orf" id="dummy-1_h1_3_2"  />
</g>
<g id="a1_003"  >
<polygon points="191,85 196,80 237,80 237,90 196,90 191,85 " style="fill:white; stroke-width:1; stroke:black; " description="&lt;b&gt;c1189&lt;/b&gt;&lt;br&gt;Putative 3-oxoacyl-[ACP] synthase&lt;br&gt;Location: 2419 - 3597" locus_tag="c1189" class="clusterblast-orf" id="dummy-1_h1_3_3"  />
</g>
<g id="a1_004"  >
<polygon points="237,85 242,80 259,80 259,90 242,90 237,85 " style="fill:white; stroke-width:1; stroke:black; " description="&lt;b&gt;c1190&lt;/b&gt;&lt;br&gt;Conserved hypothetical protein&lt;br&gt;Location: 3590 - 4174" locus_tag="c1190" class="clusterblast-orf" id="dummy-1_h1_3_4"  />
</g>
<g id="a1_005"  >
<polygon points="259,85 264,80 350,80 350,90 264,90 259,85 " style="fill:white; stroke-width:1; stroke:black; " description="&lt;b&gt;c1191&lt;/b&gt;&lt;br&gt;Conserved hypothetical protein&lt;br&gt;Location: 4171 - 6489" locus_tag="c1191" class="clusterblast-orf" id="dummy-1_h1_3_5"  />
</g>
<g id="a1_006"  >
<polygon points="348,85 353,80 372,80 372,90 353,90 348,85 " style="fill:white; stroke-width:1; stroke:black; " description="&lt;b&gt;c1192&lt;/b&gt;&lt;br&gt;Conserved hypothetical protein&lt;br&gt;Location: 6458 - 7063" locus_tag="c1192" class="clusterblast-orf" id="dummy-1_h1_3_6"  />
</g>
<g id="a1_007"  >
<polygon points="372,85 377,80 388,80 388,90 377,90 372,85 " style="fill:white; stroke-width:1; stroke:black; " description="&lt;b&gt;c1193&lt;/b&gt;&lt;br&gt;Hypothetical protein&lt;br&gt;Location: 7060 - 7482" locus_tag="c1193" class="clusterblast-orf" id="dummy-1_h1_3_7"  />
</g>
<g id="a1_008"  >
<polygon points="388,85 393,80 452,80 452,90 393,90 388,85 " style="fill:white; stroke-width:1; stroke:black; " description="&lt;b&gt;c1194&lt;/b&gt;&lt;br&gt;Putative enzyme&lt;br&gt;Location: 7486 - 9108" locus_tag="c1194" class="clusterblast-orf" id="dummy-1_h1_3_8"  />
</g>
<g id="a1_009"  >
<polygon points="451,85 455,80 455,90 451,85 " style="fill:white; stroke-width:1; stroke:black; " description="&lt;b&gt;c1195&lt;/b&gt;&lt;br&gt;Hypothetical protein&lt;br&gt;Location: 9080 - 9202" locus_tag="c1195" class="clusterblast-orf" id="dummy-1_h1_3_9"  />
</g>
<g id="a1_0010"  >
<polygon points="453,85 458,80 468,80 468,90 458,90 453,85 " style="fill:white; stroke-width:1; stroke:black; " description="&lt;b&gt;c1196&lt;/b&gt;&lt;br&gt;Conserved hypothetical protein&lt;br&gt;Location: 9153 - 9530" locus_tag="c1196" class="clusterblast-orf" id="dummy-1_h1_3_10"  />
</g>
<g id="a1_0011"  >
<polygon points="467,85 472,80 520,80 520,90 472,90 467,85 " style="fill:white; stroke-width:1; stroke:black; " description="&lt;b&gt;c1197&lt;/b&gt;&lt;br&gt;Putative enzyme&lt;br&gt;Location: 9493 - 10851" locus_tag="c1197" class="clusterblast-orf" id="dummy-1_h1_3_11"  />
</g>
<g id="a1_0012"  >
<polygon points="519,85 524,80 542,80 542,90 524,90 519,85 " style="fill:white; stroke-width:1; stroke:black; " description="&lt;b&gt;c1198&lt;/b&gt;&lt;br&gt;Conserved hypothetical protein&lt;br&gt;Location: 10848 - 11432" locus_tag="c1198" class="clusterblast-orf" id="dummy-1_h1_3_12"  />
</g>
<g id="a1_0013"  >
<polygon points="542,85 547,80 552,80 552,90 547,90 542,85 " style="fill:white; stroke-width:1; stroke:black; " description="&lt;b&gt;c1199&lt;/b&gt;&lt;br&gt;Putative acyl carrier protein&lt;br&gt;Location: 11434 - 11685" locus_tag="c1199" class="clusterblast-orf" id="dummy-1_h1_3_13"  />
</g>
<g id="a1_0014"  >
<polygon points="553,85 558,80 563,80 563,90 558,90 553,85 " style="fill:white; stroke-width:1; stroke:black; " description="&lt;b&gt;c1200&lt;/b&gt;&lt;br&gt;Putative acyl carrier protein&lt;br&gt;Location: 11697 - 11954" locus_tag="c1200" class="clusterblast-orf" id="dummy-1_h1_3_14"  />
</g>
<g id="a1_0015"  >
<polygon points="562,85 567,80 594,80 594,90 567,90 562,85 " style="fill:white; stroke-width:1; stroke:black; " description="&lt;b&gt;c1201&lt;/b&gt;&lt;br&gt;Putative phospholipid biosynthesis acyltransferase&lt;br&gt;Location: 11929 - 12768" locus_tag="c1201" class="clusterblast-orf" id="dummy-1_h1_3_15"  />
</g>
<g id="a1_0016"  >
<polygon points="593,85 598,80 623,80 623,90 598,90 593,85 " style="fill:white; stroke-width:1; stroke:black; " description="&lt;b&gt;c1202&lt;/b&gt;&lt;br&gt;Conserved hypothetical protein&lt;br&gt;Location: 12747 - 13493" locus_tag="c1202" class="clusterblast-orf" id="dummy-1_h1_3_16"  />
</g>
<g id="a1_0017"  >
<polygon points="623,85 628,80 664,80 664,90 628,90 623,85 " style="fill:white; stroke-width:1; stroke:black; " description="&lt;b&gt;c1203&lt;/b&gt;&lt;br&gt;Putative O-methyltransferase&lt;br&gt;Location: 13510 - 14568" locus_tag="c1203" class="clusterblast-orf" id="dummy-1_h1_3_17"  />
</g>
<g id="a1_0018"  >
<polygon points="667,85 672,80 682,80 682,90 672,90 667,85 " style="fill:white; stroke-width:1; stroke:black; " description="&lt;b&gt;c1204&lt;/b&gt;&lt;br&gt;Conserved hypothetical protein&lt;br&gt;Location: 14633 - 15022" locus_tag="c1204" class="clusterblast-orf" id="dummy-1_h1_3_18"  />
</g>
</svg>
