<svg xmlns="http://www.w3.org/2000/svg" xmlns:xlink="http://www.w3.org/1999/xlink" version="1.1" x="0" y="0" height="50" width="800" viewBox="0 0 800 50" preserveAspectRatio="none"  >
<g label="Query sequence" class="clusterblast-cluster"  >
<text x="5" y="20" class="clusterblast-acc"  >
Query sequence</text>
<line x1="10" y1="35" x2="778.0" y2="35" style="stroke-width:1; stroke:grey; "  />
<polygon points="0,40 22,40 27,35 22,30 0,30 0,40 " style="fill:white; stroke-width:1; stroke:black; " description="&lt;b&gt;ctg39_10&lt;/b&gt;&lt;br&gt;ctg39 10&lt;br&gt;Location: 9963 - 10647" locus_tag="ctg39_10" class="clusterblast-orf" id="subclusterblast-1_q0_0_all"  />
<polygon points="26,40 43,40 48,35 43,30 26,30 26,40 " style="fill:white; stroke-width:1; stroke:black; " description="&lt;b&gt;ctg39_11&lt;/b&gt;&lt;br&gt;ctg39 11&lt;br&gt;Location: 10643 - 11195" locus_tag="ctg39_11" class="clusterblast-orf" id="subclusterblast-1_q1_0_all"  />
<polygon points="48,40 81,40 86,35 81,30 48,30 48,40 " style="fill:white; stroke-width:1; stroke:black; " description="&lt;b&gt;ctg39_12&lt;/b&gt;&lt;br&gt;ctg39 12&lt;br&gt;Location: 11191 - 12163" locus_tag="ctg39_12" class="clusterblast-orf" id="subclusterblast-1_q2_0_all"  />
<polygon points="82,35 87,30 89,30 89,40 87,40 82,35 " style="fill:white; stroke-width:1; stroke:black; " description="&lt;b&gt;ctg39_13&lt;/b&gt;&lt;br&gt;ctg39 13&lt;br&gt;Location: 12075 - 12252" locus_tag="ctg39_13" class="clusterblast-orf" id="subclusterblast-1_q3_0_all"  />
<polygon points="104,35 108,30 108,40 104,35 " style="fill:white; stroke-width:1; stroke:black; " description="&lt;b&gt;ctg39_14&lt;/b&gt;&lt;br&gt;ctg39 14&lt;br&gt;Location: 12627 - 12735" locus_tag="ctg39_14" class="clusterblast-orf" id="subclusterblast-1_q4_0_all"  />
<polygon points="118,35 123,30 150,30 150,40 123,40 118,35 " style="fill:white; stroke-width:1; stroke:black; " description="&lt;b&gt;ctg39_15&lt;/b&gt;&lt;br&gt;ctg39 15&lt;br&gt;Location: 13003 - 13813" locus_tag="ctg39_15" class="clusterblast-orf" id="subclusterblast-1_q5_0_all"  />
<polygon points="165,40 203,40 208,35 203,30 165,30 165,40 " style="fill:white; stroke-width:1; stroke:black; " description="&lt;b&gt;ctg39_16&lt;/b&gt;&lt;br&gt;ctg39 16&lt;br&gt;Location: 14208 - 15309" locus_tag="ctg39_16" class="clusterblast-orf" id="subclusterblast-1_q6_0_all"  />
<polygon points="209,40 265,40 270,35 265,30 209,30 209,40 " style="fill:white; stroke-width:1; stroke:black; " description="&lt;b&gt;ctg39_17&lt;/b&gt;&lt;br&gt;ctg39 17&lt;br&gt;Location: 15319 - 16888" locus_tag="ctg39_17" class="clusterblast-orf" id="subclusterblast-1_q7_0_all"  />
<polygon points="273,35 278,30 287,30 287,40 278,40 273,35 " style="fill:white; stroke-width:1; stroke:black; " description="&lt;b&gt;ctg39_18&lt;/b&gt;&lt;br&gt;ctg39 18&lt;br&gt;Location: 16985 - 17339" locus_tag="ctg39_18" class="clusterblast-orf" id="subclusterblast-1_q8_0_all"  />
<polygon points="288,40 452,40 457,35 452,30 288,30 288,40 " style="fill:white; stroke-width:1; stroke:black; " description="&lt;b&gt;ctg39_19&lt;/b&gt;&lt;br&gt;ctg39 19&lt;br&gt;Location: 17363 - 21686" locus_tag="ctg39_19" class="clusterblast-orf" id="subclusterblast-1_q9_0_all"  />
<polygon points="461,40 512,40 517,35 512,30 461,30 461,40 " style="fill:white; stroke-width:1; stroke:black; " description="&lt;b&gt;ctg39_20&lt;/b&gt;&lt;br&gt;ctg39 20&lt;br&gt;Location: 21810 - 23229" locus_tag="ctg39_20" class="clusterblast-orf" id="subclusterblast-1_q10_0_all"  />
<polygon points="527,40 563,40 568,35 563,30 527,30 527,40 " style="fill:white; stroke-width:1; stroke:black; " description="&lt;b&gt;ctg39_21&lt;/b&gt;&lt;br&gt;ctg39 21&lt;br&gt;Location: 23482 - 24550" locus_tag="ctg39_21" class="clusterblast-orf" id="subclusterblast-1_q11_0_all"  />
<polygon points="573,35 578,30 620,30 620,40 578,40 573,35 " style="fill:white; stroke-width:1; stroke:black; " description="&lt;b&gt;ctg39_22&lt;/b&gt;&lt;br&gt;ctg39 22&lt;br&gt;Location: 24666 - 25884" locus_tag="ctg39_22" class="clusterblast-orf" id="subclusterblast-1_q12_0_all"  />
<polygon points="627,40 657,40 662,35 657,30 627,30 627,40 " style="fill:white; stroke-width:1; stroke:black; " description="&lt;b&gt;ctg39_23&lt;/b&gt;&lt;br&gt;ctg39 23&lt;br&gt;Location: 26065 - 26959" locus_tag="ctg39_23" class="clusterblast-orf" id="subclusterblast-1_q13_0_all"  />
<polygon points="662,35 667,30 671,30 671,40 667,40 662,35 " style="fill:white; stroke-width:1; stroke:black; " description="&lt;b&gt;ctg39_24&lt;/b&gt;&lt;br&gt;ctg39 24&lt;br&gt;Location: 26965 - 27193" locus_tag="ctg39_24" class="clusterblast-orf" id="subclusterblast-1_q14_0_all"  />
<polygon points="674,35 679,30 691,30 691,40 679,40 674,35 " style="fill:white; stroke-width:1; stroke:black; " description="&lt;b&gt;ctg39_25&lt;/b&gt;&lt;br&gt;ctg39 25&lt;br&gt;Location: 27258 - 27708" locus_tag="ctg39_25" class="clusterblast-orf" id="subclusterblast-1_q15_0_all"  />
<polygon points="692,35 697,30 740,30 740,40 697,40 692,35 " style="fill:white; stroke-width:1; stroke:black; " description="&lt;b&gt;ctg39_26&lt;/b&gt;&lt;br&gt;ctg39 26&lt;br&gt;Location: 27735 - 28962" locus_tag="ctg39_26" class="clusterblast-orf" id="subclusterblast-1_q16_0_all"  />
<polygon points="740,35 745,30 768,30 768,40 745,40 740,35 " style="fill:white; stroke-width:1; stroke:black; " description="&lt;b&gt;ctg39_27&lt;/b&gt;&lt;br&gt;ctg39 27&lt;br&gt;Location: 28961 - 29690" locus_tag="ctg39_27" class="clusterblast-orf" id="subclusterblast-1_q17_0_all"  />
<polygon points="768,35 773,30 780,30 780,40 773,40 768,35 " style="fill:white; stroke-width:1; stroke:black; " description="&lt;b&gt;ctg39_28&lt;/b&gt;&lt;br&gt;ctg39 28&lt;br&gt;Location: 29686 - 29983" locus_tag="ctg39_28" class="clusterblast-orf" id="subclusterblast-1_q18_0_all"  />
</g>
</svg>
