<svg xmlns="http://www.w3.org/2000/svg" xmlns:xlink="http://www.w3.org/1999/xlink" version="1.1" x="0" y="0" height="230" width="800" viewBox="0 0 800 230" preserveAspectRatio="none"  >
<g label="Query sequence" class="clusterblast-cluster"  >
<text x="5" y="20" class="clusterblast-acc"  >
Query sequence</text>
<line x1="10" y1="35" x2="778.0" y2="35" style="stroke-width:1; stroke:grey; "  />
<polygon points="232,40 235,40 240,35 235,30 232,30 232,40 " style="fill:#d81515; stroke-width:1; stroke:black; " description="&lt;b&gt;ctg26_51&lt;/b&gt;&lt;br&gt;ctg26 51&lt;br&gt;Location: 58701 - 59148" locus_tag="ctg26_51" class="clusterblast-orf" id="dummy-1_q0_0_all"  />
<polygon points="243,40 270,40 275,35 270,30 243,30 243,40 " style="fill:#77d815; stroke-width:1; stroke:black; " description="&lt;b&gt;ctg26_52&lt;/b&gt;&lt;br&gt;ctg26 52&lt;br&gt;Location: 59294 - 60998" locus_tag="ctg26_52" class="clusterblast-orf" id="dummy-1_q1_0_all"  />
<polygon points="275,40 285,40 290,35 285,30 275,30 275,40 " style="fill:#15d8d8; stroke-width:1; stroke:black; " description="&lt;b&gt;ctg26_53&lt;/b&gt;&lt;br&gt;ctg26 53&lt;br&gt;Location: 61008 - 61803" locus_tag="ctg26_53" class="clusterblast-orf" id="dummy-1_q2_0_all"  />
<polygon points="291,40 330,40 335,35 330,30 291,30 291,40 " style="fill:#7715d8; stroke-width:1; stroke:black; " description="&lt;b&gt;ctg26_54&lt;/b&gt;&lt;br&gt;ctg26 54&lt;br&gt;Location: 61862 - 64238" locus_tag="ctg26_54" class="clusterblast-orf" id="dummy-1_q3_0_all"  />
<polygon points="337,40 340,35 337,30 337,40 " style="fill:#d87715; stroke-width:1; stroke:black; " description="&lt;b&gt;ctg26_55&lt;/b&gt;&lt;br&gt;ctg26 55&lt;br&gt;Location: 64348 - 64471" locus_tag="ctg26_55" class="clusterblast-orf" id="dummy-1_q4_0_all"  />
<polygon points="341,40 353,40 358,35 353,30 341,30 341,40 " style="fill:#15d815; stroke-width:1; stroke:black; " description="&lt;b&gt;ctg26_56&lt;/b&gt;&lt;br&gt;ctg26 56&lt;br&gt;Location: 64542 - 65454" locus_tag="ctg26_56" class="clusterblast-orf" id="dummy-1_q5_0_all"  />
<polygon points="358,40 367,40 372,35 367,30 358,30 358,40 " style="fill:#1577d8; stroke-width:1; stroke:black; " description="&lt;b&gt;ctg26_57&lt;/b&gt;&lt;br&gt;ctg26 57&lt;br&gt;Location: 65465 - 66218" locus_tag="ctg26_57" class="clusterblast-orf" id="dummy-1_q6_0_all"  />
<polygon points="372,40 372,40 377,35 372,30 372,30 372,40 " style="fill:#d815d8; stroke-width:1; stroke:black; " description="&lt;b&gt;ctg26_58&lt;/b&gt;&lt;br&gt;ctg26 58&lt;br&gt;Location: 66214 - 66490" locus_tag="ctg26_58" class="clusterblast-orf" id="dummy-1_q7_0_all"  />
<polygon points="377,40 393,40 398,35 393,30 377,30 377,40 " style="fill:#d8d815; stroke-width:1; stroke:black; " description="&lt;b&gt;ctg26_59&lt;/b&gt;&lt;br&gt;ctg26 59&lt;br&gt;Location: 66461 - 67613" locus_tag="ctg26_59" class="clusterblast-orf" id="dummy-1_q8_0_all"  />
<polygon points="398,35 401,30 401,40 398,35 " style="fill:#15d877; stroke-width:1; stroke:black; " description="&lt;b&gt;ctg26_60&lt;/b&gt;&lt;br&gt;ctg26 60&lt;br&gt;Location: 67618 - 67777" locus_tag="ctg26_60" class="clusterblast-orf" id="dummy-1_q9_0_all"  />
<polygon points="405,35 410,30 428,30 428,40 410,40 405,35 " style="fill:white; stroke-width:1; stroke:black; " description="&lt;b&gt;ctg26_61&lt;/b&gt;&lt;br&gt;ctg26 61&lt;br&gt;Location: 67959 - 69219" locus_tag="ctg26_61" class="clusterblast-orf" id="dummy-1_q10_0_all"  />
<polygon points="432,40 444,40 449,35 444,30 432,30 432,40 " style="fill:white; stroke-width:1; stroke:black; " description="&lt;b&gt;ctg26_62&lt;/b&gt;&lt;br&gt;ctg26 62&lt;br&gt;Location: 69428 - 70328" locus_tag="ctg26_62" class="clusterblast-orf" id="dummy-1_q11_0_all"  />
<polygon points="453,35 458,30 486,30 486,40 458,40 453,35 " style="fill:#1515d8; stroke-width:1; stroke:black; " description="&lt;b&gt;ctg26_63&lt;/b&gt;&lt;br&gt;ctg26 63&lt;br&gt;Location: 70554 - 72333" locus_tag="ctg26_63" class="clusterblast-orf" id="dummy-1_q12_0_all"  />
<polygon points="488,35 493,30 521,30 521,40 493,40 488,35 " style="fill:#1515d8; stroke-width:1; stroke:black; " description="&lt;b&gt;ctg26_64&lt;/b&gt;&lt;br&gt;ctg26 64&lt;br&gt;Location: 72452 - 74225" locus_tag="ctg26_64" class="clusterblast-orf" id="dummy-1_q13_0_all"  />
<polygon points="523,35 528,30 547,30 547,40 528,40 523,35 " style="fill:#d81577; stroke-width:1; stroke:black; " description="&lt;b&gt;ctg26_65&lt;/b&gt;&lt;br&gt;ctg26 65&lt;br&gt;Location: 74315 - 75605" locus_tag="ctg26_65" class="clusterblast-orf" id="dummy-1_q14_0_all"  />
</g>
<g label="NC_007005" description="NC_007005 (5504337-5546191): Pseudomonas syringae pv. syringae B728a, complet... (28% of genes show similarity), NRPS-like" class="clusterblast-cluster"  >
<text x="5" y="70" class="clusterblast-acc"  >
<a xlink:href="https://antismash-db.secondarymetabolites.org/area.html?record=NC_007005&amp;start=5504337&amp;end=5546191" target="_blank">NC_007005 (5504337-5546191)</a>: Pseudomonas syringae pv. syringae B728a, complet... (28% of genes show similarity), NRPS-like</text>
<line x1="10" y1="85" x2="778.0" y2="85" style="stroke-width:1; stroke:grey; "  />
</g>
<g id="a1_000"  >
<polygon points="0,90 41,90 46,85 41,80 0,80 0,90 " style="fill:white; stroke-width:1; stroke:black; " description="&lt;b&gt;PSYR_RS24075&lt;/b&gt;&lt;br&gt;bifunctional diguanylate cyclase/phosphodiesterase&lt;br&gt;Location: 5504338 - 5506824" locus_tag="PSYR_RS24075" class="clusterblast-orf" id="dummy-1_h1_9_0"  />
</g>
<g id="a1_001"  >
<polygon points="49,90 63,90 68,85 63,80 49,80 49,90 " style="fill:white; stroke-width:1; stroke:black; " description="&lt;b&gt;PSYR_RS24085&lt;/b&gt;&lt;br&gt;P-type conjugative transfer protein TrbL&lt;br&gt;Location: 5507007 - 5508014" locus_tag="PSYR_RS24085" class="clusterblast-orf" id="dummy-1_h1_9_1"  />
</g>
<g id="a1_002"  >
<polygon points="69,90 73,85 69,80 69,90 " style="fill:white; stroke-width:1; stroke:black; " description="&lt;b&gt;PSYR_RS24090&lt;/b&gt;&lt;br&gt;hypothetical protein&lt;br&gt;Location: 5508082 - 5508297" locus_tag="PSYR_RS24090" class="clusterblast-orf" id="dummy-1_h1_9_2"  />
</g>
<g id="a1_003"  >
<polygon points="80,85 85,80 87,80 87,90 85,90 80,85 " style="fill:white; stroke-width:1; stroke:black; " description="&lt;b&gt;PSYR_RS24095&lt;/b&gt;&lt;br&gt;type II toxin-antitoxin system RelE/ParE family toxin&lt;br&gt;Location: 5508664 - 5509014" locus_tag="PSYR_RS24095" class="clusterblast-orf" id="dummy-1_h1_9_3"  />
</g>
<g id="a1_004"  >
<polygon points="87,85 92,80 92,80 92,90 92,90 87,85 " style="fill:white; stroke-width:1; stroke:black; " description="&lt;b&gt;PSYR_RS24100&lt;/b&gt;&lt;br&gt;type II toxin-antitoxin system prevent-host-death family antitoxin&lt;br&gt;Location: 5509027 - 5509275" locus_tag="PSYR_RS24100" class="clusterblast-orf" id="dummy-1_h1_9_4"  />
</g>
<g id="a1_005"  >
<polygon points="98,90 111,90 116,85 111,80 98,80 98,90 " style="fill:white; stroke-width:1; stroke:black; " description="&lt;b&gt;PSYR_RS24105&lt;/b&gt;&lt;br&gt;tyrosine-type recombinase/integrase&lt;br&gt;Location: 5509613 - 5510575" locus_tag="PSYR_RS24105" class="clusterblast-orf" id="dummy-1_h1_9_5"  />
</g>
<g id="a1_006"  >
<polygon points="116,85 121,80 122,80 122,90 121,90 116,85 " style="fill:white; stroke-width:1; stroke:black; " description="&lt;b&gt;PSYR_RS24110&lt;/b&gt;&lt;br&gt;hypothetical protein&lt;br&gt;Location: 5510601 - 5510915" locus_tag="PSYR_RS24110" class="clusterblast-orf" id="dummy-1_h1_9_6"  />
</g>
<g id="a1_007"  >
<polygon points="123,85 128,80 128,80 128,90 128,90 123,85 " style="fill:white; stroke-width:1; stroke:black; " description="&lt;b&gt;PSYR_RS24115&lt;/b&gt;&lt;br&gt;hypothetical protein&lt;br&gt;Location: 5510988 - 5511227" locus_tag="PSYR_RS24115" class="clusterblast-orf" id="dummy-1_h1_9_7"  />
</g>
<g id="a1_008"  >
<polygon points="129,85 134,80 138,80 138,90 134,90 129,85 " style="fill:white; stroke-width:1; stroke:black; " description="&lt;b&gt;PSYR_RS24120&lt;/b&gt;&lt;br&gt;GNAT family N-acetyltransferase&lt;br&gt;Location: 5511307 - 5511753" locus_tag="PSYR_RS24120" class="clusterblast-orf" id="dummy-1_h1_9_8"  />
</g>
<g id="a1_009"  >
<polygon points="139,85 144,80 153,80 153,90 144,90 139,85 " style="fill:white; stroke-width:1; stroke:black; " description="&lt;b&gt;PSYR_RS24125&lt;/b&gt;&lt;br&gt;IS66 family transposase&lt;br&gt;Location: 5511809 - 5512552" locus_tag="PSYR_RS24125" class="clusterblast-orf" id="dummy-1_h1_9_9"  />
</g>
<g id="a1_0010"  >
<polygon points="167,90 196,90 201,85 196,80 167,80 167,90 " style="fill:white; stroke-width:1; stroke:black; " description="&lt;b&gt;PSYR_RS24130&lt;/b&gt;&lt;br&gt;HNH nuclease&lt;br&gt;Location: 5513326 - 5515167" locus_tag="PSYR_RS24130" class="clusterblast-orf" id="dummy-1_h1_9_10"  />
</g>
<g id="a1_0011"  >
<polygon points="201,90 202,90 207,85 202,80 201,80 201,90 " style="fill:white; stroke-width:1; stroke:black; " description="&lt;b&gt;PSYR_RS24135&lt;/b&gt;&lt;br&gt;bacteriocin immunity protein&lt;br&gt;Location: 5515172 - 5515447" locus_tag="PSYR_RS24135" class="clusterblast-orf" id="dummy-1_h1_9_11"  />
</g>
<g id="a1_0012"  >
<polygon points="211,85 213,80 213,90 211,85 " style="fill:white; stroke-width:1; stroke:black; " description="&lt;b&gt;PSYR_RS24140&lt;/b&gt;&lt;br&gt;hypothetical protein&lt;br&gt;Location: 5515668 - 5515808" locus_tag="PSYR_RS24140" class="clusterblast-orf" id="dummy-1_h1_9_12"  />
</g>
<g id="a1_0013"  >
<polygon points="215,85 220,80 220,80 220,90 220,90 215,85 " style="fill:white; stroke-width:1; stroke:black; " description="&lt;b&gt;PSYR_RS24145&lt;/b&gt;&lt;br&gt;hypothetical protein&lt;br&gt;Location: 5515912 - 5516160" locus_tag="PSYR_RS24145" class="clusterblast-orf" id="dummy-1_h1_9_13"  />
</g>
<g id="a1_0014"  >
<polygon points="221,85 225,80 225,90 221,85 " style="fill:white; stroke-width:1; stroke:black; " description="&lt;b&gt;PSYR_RS24150&lt;/b&gt;&lt;br&gt;hypothetical protein&lt;br&gt;Location: 5516212 - 5516463" locus_tag="PSYR_RS24150" class="clusterblast-orf" id="dummy-1_h1_9_14"  />
</g>
<g id="a1_0015"  >
<polygon points="226,85 231,80 234,80 234,90 231,90 226,85 " style="fill:white; stroke-width:1; stroke:black; " description="&lt;b&gt;PSYR_RS24155&lt;/b&gt;&lt;br&gt;hypothetical protein&lt;br&gt;Location: 5516468 - 5516896" locus_tag="PSYR_RS24155" class="clusterblast-orf" id="dummy-1_h1_9_15"  />
</g>
<g id="a1_0016"  >
<polygon points="235,85 240,80 242,80 242,90 240,90 235,85 " style="fill:white; stroke-width:1; stroke:black; " description="&lt;b&gt;PSYR_RS24160&lt;/b&gt;&lt;br&gt;hypothetical protein&lt;br&gt;Location: 5516978 - 5517334" locus_tag="PSYR_RS24160" class="clusterblast-orf" id="dummy-1_h1_9_16"  />
</g>
<g id="a1_0017"  >
<polygon points="243,85 248,80 253,80 253,90 248,90 243,85 " style="fill:white; stroke-width:1; stroke:black; " description="&lt;b&gt;PSYR_RS24165&lt;/b&gt;&lt;br&gt;hypothetical protein&lt;br&gt;Location: 5517416 - 5517916" locus_tag="PSYR_RS24165" class="clusterblast-orf" id="dummy-1_h1_9_17"  />
</g>
<g id="a1_0018"  >
<polygon points="252,85 257,80 259,80 259,90 257,90 252,85 " style="fill:white; stroke-width:1; stroke:black; " description="&lt;b&gt;PSYR_RS24170&lt;/b&gt;&lt;br&gt;ATP-binding protein&lt;br&gt;Location: 5517913 - 5518278" locus_tag="PSYR_RS24170" class="clusterblast-orf" id="dummy-1_h1_9_18"  />
</g>
<g id="a1_0019"  >
<polygon points="259,90 265,90 270,85 265,80 259,80 259,90 " style="fill:white; stroke-width:1; stroke:black; " description="&lt;b&gt;PSYR_RS24175&lt;/b&gt;&lt;br&gt;IS66 family transposase&lt;br&gt;Location: 5518280 - 5518826" locus_tag="PSYR_RS24175" class="clusterblast-orf" id="dummy-1_h1_9_19"  />
</g>
<g id="a1_0020"  >
<polygon points="269,85 274,80 274,80 274,90 274,90 269,85 " style="fill:white; stroke-width:1; stroke:black; " description="&lt;b&gt;PSYR_RS24180&lt;/b&gt;&lt;br&gt;hypothetical protein&lt;br&gt;Location: 5518823 - 5519053" locus_tag="PSYR_RS24180" class="clusterblast-orf" id="dummy-1_h1_9_20"  />
</g>
<g id="a1_0021"  >
<polygon points="274,90 276,85 274,80 274,90 " style="fill:white; stroke-width:1; stroke:black; " description="&lt;b&gt;PSYR_RS24185&lt;/b&gt;&lt;br&gt;IS5/IS1182 family transposase&lt;br&gt;Location: 5519074 - 5519166" locus_tag="PSYR_RS24185" class="clusterblast-orf" id="dummy-1_h1_9_21"  />
</g>
<g id="a1_0022"  >
<polygon points="277,85 282,80 306,80 306,90 282,90 277,85 " style="fill:white; stroke-width:1; stroke:black; " description="&lt;b&gt;PSYR_RS24190&lt;/b&gt;&lt;br&gt;effector protein hopAB1&lt;br&gt;Location: 5519229 - 5520779" locus_tag="PSYR_RS24190" class="clusterblast-orf" id="dummy-1_h1_9_22"  />
</g>
<g id="a1_0023"  >
<polygon points="319,90 330,90 335,85 330,80 319,80 319,90 " style="fill:white; stroke-width:1; stroke:black; " description="&lt;b&gt;PSYR_RS24195&lt;/b&gt;&lt;br&gt;formate/nitrite transporter family protein&lt;br&gt;Location: 5521505 - 5522320" locus_tag="PSYR_RS24195" class="clusterblast-orf" id="dummy-1_h1_9_23"  />
</g>
<g id="a1_0024"  >
<polygon points="337,85 342,80 349,80 349,90 342,90 337,85 " style="fill:white; stroke-width:1; stroke:black; " description="&lt;b&gt;PSYR_RS24200&lt;/b&gt;&lt;br&gt;4'-phosphopantetheinyl transferase superfamily protein&lt;br&gt;Location: 5522467 - 5523099" locus_tag="PSYR_RS24200" class="clusterblast-orf" id="dummy-1_h1_9_24"  />
</g>
<g id="a1_0025"  >
<polygon points="349,85 354,80 424,80 424,90 354,90 349,85 " style="fill:white; stroke-width:1; stroke:black; " description="&lt;b&gt;PSYR_RS24205&lt;/b&gt;&lt;br&gt;non-ribosomal peptide synthetase&lt;br&gt;Location: 5523096 - 5527136" locus_tag="PSYR_RS24205" class="clusterblast-orf" id="dummy-1_h1_9_25"  />
</g>
<g id="a1_0026"  >
<polygon points="435,90 451,90 456,85 451,80 435,80 435,90 " style="fill:white; stroke-width:1; stroke:black; " description="&lt;b&gt;PSYR_RS24210&lt;/b&gt;&lt;br&gt;Fic family protein&lt;br&gt;Location: 5527690 - 5528820" locus_tag="PSYR_RS24210" class="clusterblast-orf" id="dummy-1_h1_9_26"  />
</g>
<g id="a1_0027"  >
<polygon points="456,85 460,80 460,90 456,85 " style="fill:white; stroke-width:1; stroke:black; " description="&lt;b&gt;PSYR_RS24215&lt;/b&gt;&lt;br&gt;hypothetical protein&lt;br&gt;Location: 5528845 - 5529057" locus_tag="PSYR_RS24215" class="clusterblast-orf" id="dummy-1_h1_9_27"  />
</g>
<g id="a1_0028"  >
<polygon points="465,90 480,90 485,85 480,80 465,80 465,90 " style="fill:white; stroke-width:1; stroke:black; " description="&lt;b&gt;PSYR_RS24220&lt;/b&gt;&lt;br&gt;FUSC family protein&lt;br&gt;Location: 5529313 - 5530389" locus_tag="PSYR_RS24220" class="clusterblast-orf" id="dummy-1_h1_9_28"  />
</g>
<g id="a1_0029"  >
<polygon points="485,90 489,90 494,85 489,80 485,80 485,90 " style="fill:#d81515; stroke-width:1; stroke:black; " description="&lt;b&gt;PSYR_RS24225&lt;/b&gt;&lt;br&gt;Lrp/AsnC family transcriptional regulator&lt;br&gt;Location: 5530400 - 5530861&lt;br&gt;&lt;br&gt;&lt;b&gt;BlastP hit with ctg26_51&lt;/b&gt;&lt;br&gt;Percentage identity: 91&lt;br&gt;Percentage coverage: 99&lt;br&gt;BLAST bit score: 258&lt;br&gt;E-value: 4.62e-88" locus_tag="PSYR_RS24225" class="clusterblast-orf" id="dummy-1_h1_9_29"  />
</g>
<g id="a1_0030"  >
<polygon points="497,90 523,90 528,85 523,80 497,80 497,90 " style="fill:#77d815; stroke-width:1; stroke:black; " description="&lt;b&gt;PSYR_RS24230&lt;/b&gt;&lt;br&gt;NAD(P)/FAD-dependent oxidoreductase&lt;br&gt;Location: 5531014 - 5532693&lt;br&gt;&lt;br&gt;&lt;b&gt;BlastP hit with ctg26_52&lt;/b&gt;&lt;br&gt;Percentage identity: 91&lt;br&gt;Percentage coverage: 98&lt;br&gt;BLAST bit score: 1070&lt;br&gt;E-value: 0.0" locus_tag="PSYR_RS24230" class="clusterblast-orf" id="dummy-1_h1_9_30"  />
</g>
<g id="a1_0031"  >
<polygon points="528,90 538,90 543,85 538,80 528,80 528,90 " style="fill:#15d8d8; stroke-width:1; stroke:black; " description="&lt;b&gt;PSYR_RS24235&lt;/b&gt;&lt;br&gt;carbon-nitrogen hydrolase family protein&lt;br&gt;Location: 5532709 - 5533503&lt;br&gt;&lt;br&gt;&lt;b&gt;BlastP hit with ctg26_53&lt;/b&gt;&lt;br&gt;Percentage identity: 73&lt;br&gt;Percentage coverage: 100&lt;br&gt;BLAST bit score: 390&lt;br&gt;E-value: 1.26e-136" locus_tag="PSYR_RS24235" class="clusterblast-orf" id="dummy-1_h1_9_31"  />
</g>
<g id="a1_0032"  >
<polygon points="568,90 605,90 610,85 605,80 568,80 568,90 " style="fill:#7715d8; stroke-width:1; stroke:black; " description="&lt;b&gt;PSYR_RS24240&lt;/b&gt;&lt;br&gt;pyrroloquinoline quinone biosynthesis protein PqqF&lt;br&gt;Location: 5534830 - 5537118&lt;br&gt;&lt;br&gt;&lt;b&gt;BlastP hit with ctg26_54&lt;/b&gt;&lt;br&gt;Percentage identity: 45&lt;br&gt;Percentage coverage: 101&lt;br&gt;BLAST bit score: 605&lt;br&gt;E-value: 1.54e-205" locus_tag="PSYR_RS24240" class="clusterblast-orf" id="dummy-1_h1_9_32"  />
</g>
<g id="a1_0033"  >
<polygon points="613,90 614,85 613,80 613,90 " style="fill:#d87715; stroke-width:1; stroke:black; " description="&lt;b&gt;PSYR_RS24245&lt;/b&gt;&lt;br&gt;pyrroloquinoline quinone precursor peptide PqqA&lt;br&gt;Location: 5537254 - 5537328&lt;br&gt;&lt;br&gt;&lt;b&gt;BlastP hit with ctg26_55&lt;/b&gt;&lt;br&gt;Percentage identity: 92&lt;br&gt;Percentage coverage: 60&lt;br&gt;BLAST bit score: 52&lt;br&gt;E-value: 6.3e-10" locus_tag="PSYR_RS24245" class="clusterblast-orf" id="dummy-1_h1_9_33"  />
</g>
<g id="a1_0034"  >
<polygon points="616,90 628,90 633,85 628,80 616,80 616,90 " style="fill:#15d815; stroke-width:1; stroke:black; " description="&lt;b&gt;PSYR_RS24250&lt;/b&gt;&lt;br&gt;pyrroloquinoline quinone biosynthesis protein PqqB&lt;br&gt;Location: 5537417 - 5538328&lt;br&gt;&lt;br&gt;&lt;b&gt;BlastP hit with ctg26_56&lt;/b&gt;&lt;br&gt;Percentage identity: 90&lt;br&gt;Percentage coverage: 100&lt;br&gt;BLAST bit score: 585&lt;br&gt;E-value: 1.42e-212" locus_tag="PSYR_RS24250" class="clusterblast-orf" id="dummy-1_h1_9_34"  />
</g>
<g id="a1_0035"  >
<polygon points="633,90 642,90 647,85 642,80 633,80 633,90 " style="fill:#1577d8; stroke-width:1; stroke:black; " description="&lt;b&gt;PSYR_RS24255&lt;/b&gt;&lt;br&gt;pyrroloquinoline-quinone synthase PqqC&lt;br&gt;Location: 5538337 - 5539092&lt;br&gt;&lt;br&gt;&lt;b&gt;BlastP hit with ctg26_57&lt;/b&gt;&lt;br&gt;Percentage identity: 96&lt;br&gt;Percentage coverage: 99&lt;br&gt;BLAST bit score: 496&lt;br&gt;E-value: 4.01e-179" locus_tag="PSYR_RS24255" class="clusterblast-orf" id="dummy-1_h1_9_35"  />
</g>
<g id="a1_0036"  >
<polygon points="647,90 647,90 652,85 647,80 647,80 647,90 " style="fill:#d815d8; stroke-width:1; stroke:black; " description="&lt;b&gt;PSYR_RS24260&lt;/b&gt;&lt;br&gt;pyrroloquinoline quinone biosynthesis peptide chaperone PqqD&lt;br&gt;Location: 5539089 - 5539373&lt;br&gt;&lt;br&gt;&lt;b&gt;BlastP hit with ctg26_58&lt;/b&gt;&lt;br&gt;Percentage identity: 71&lt;br&gt;Percentage coverage: 95&lt;br&gt;BLAST bit score: 133&lt;br&gt;E-value: 1.69e-40" locus_tag="PSYR_RS24260" class="clusterblast-orf" id="dummy-1_h1_9_36"  />
</g>
<g id="a1_0037"  >
<polygon points="652,90 669,90 674,85 669,80 652,80 652,90 " style="fill:#d8d815; stroke-width:1; stroke:black; " description="&lt;b&gt;PSYR_RS24265&lt;/b&gt;&lt;br&gt;pyrroloquinoline quinone biosynthesis protein PqqE&lt;br&gt;Location: 5539366 - 5540535&lt;br&gt;&lt;br&gt;&lt;b&gt;BlastP hit with ctg26_59&lt;/b&gt;&lt;br&gt;Percentage identity: 89&lt;br&gt;Percentage coverage: 99&lt;br&gt;BLAST bit score: 716&lt;br&gt;E-value: 1.34e-261" locus_tag="PSYR_RS24265" class="clusterblast-orf" id="dummy-1_h1_9_37"  />
</g>
<g id="a1_0038"  >
<polygon points="673,90 702,90 707,85 702,80 673,80 673,90 " style="fill:white; stroke-width:1; stroke:black; " description="&lt;b&gt;PSYR_RS24270&lt;/b&gt;&lt;br&gt;S9 family peptidase&lt;br&gt;Location: 5540498 - 5542324" locus_tag="PSYR_RS24270" class="clusterblast-orf" id="dummy-1_h1_9_38"  />
</g>
<g id="a1_0039"  >
<polygon points="708,85 711,80 711,90 708,85 " style="fill:#15d877; stroke-width:1; stroke:black; " description="&lt;b&gt;PSYR_RS24275&lt;/b&gt;&lt;br&gt;YqaE/Pmp3 family membrane protein&lt;br&gt;Location: 5542380 - 5542541&lt;br&gt;&lt;br&gt;&lt;b&gt;BlastP hit with ctg26_60&lt;/b&gt;&lt;br&gt;Percentage identity: 85&lt;br&gt;Percentage coverage: 100&lt;br&gt;BLAST bit score: 87&lt;br&gt;E-value: 3.14e-23" locus_tag="PSYR_RS24275" class="clusterblast-orf" id="dummy-1_h1_9_39"  />
</g>
<g id="a1_0040"  >
<polygon points="719,85 724,80 752,80 752,90 724,90 719,85 " style="fill:#1515d8; stroke-width:1; stroke:black; " description="&lt;b&gt;PSYR_RS24280&lt;/b&gt;&lt;br&gt;acyl-CoA dehydrogenase&lt;br&gt;Location: 5542945 - 5544723&lt;br&gt;&lt;br&gt;&lt;b&gt;BlastP hit with ctg26_63&lt;/b&gt;&lt;br&gt;Percentage identity: 83&lt;br&gt;Percentage coverage: 100&lt;br&gt;BLAST bit score: 990&lt;br&gt;E-value: 0.0&lt;br&gt;&lt;br&gt;&lt;b&gt;BlastP hit with ctg26_64&lt;/b&gt;&lt;br&gt;Percentage identity: 56&lt;br&gt;Percentage coverage: 101&lt;br&gt;BLAST bit score: 634&lt;br&gt;E-value: 3e-222" locus_tag="PSYR_RS24280" class="clusterblast-orf" id="dummy-1_h1_9_40"  />
</g>
<g id="a1_0041"  >
<polygon points="755,85 760,80 780,80 780,90 760,90 755,85 " style="fill:#d81577; stroke-width:1; stroke:black; " description="&lt;b&gt;PSYR_RS24285&lt;/b&gt;&lt;br&gt;GGDEF domain-containing protein&lt;br&gt;Location: 5544893 - 5546191&lt;br&gt;&lt;br&gt;&lt;b&gt;BlastP hit with ctg26_65&lt;/b&gt;&lt;br&gt;Percentage identity: 80&lt;br&gt;Percentage coverage: 100&lt;br&gt;BLAST bit score: 682&lt;br&gt;E-value: 2.12e-246" locus_tag="PSYR_RS24285" class="clusterblast-orf" id="dummy-1_h1_9_41"  />
</g>
</svg>
