<svg xmlns="http://www.w3.org/2000/svg" xmlns:xlink="http://www.w3.org/1999/xlink" version="1.1" x="0" y="0" height="230" width="800" viewBox="0 0 800 230" preserveAspectRatio="none"  >
<g label="Query sequence" class="clusterblast-cluster"  >
<text x="5" y="20" class="clusterblast-acc"  >
Query sequence</text>
<line x1="10" y1="35" x2="778.0" y2="35" style="stroke-width:1; stroke:grey; "  />
<polygon points="0,35 5,30 11,30 11,40 5,40 0,35 " style="fill:#d81515; stroke-width:1; stroke:black; " description="&lt;b&gt;ctg27_7&lt;/b&gt;&lt;br&gt;ctg27 7&lt;br&gt;Location: 9169 - 10075" locus_tag="ctg27_7" class="clusterblast-orf" id="dummy-1_q0_0_all"  />
<polygon points="16,40 20,40 25,35 20,30 16,30 16,40 " style="fill:#77d815; stroke-width:1; stroke:black; " description="&lt;b&gt;ctg27_8&lt;/b&gt;&lt;br&gt;ctg27 8&lt;br&gt;Location: 10485 - 11169" locus_tag="ctg27_8" class="clusterblast-orf" id="dummy-1_q1_0_all"  />
<polygon points="24,40 37,40 42,35 37,30 24,30 24,40 " style="fill:#15d8d8; stroke-width:1; stroke:black; " description="&lt;b&gt;ctg27_9&lt;/b&gt;&lt;br&gt;ctg27 9&lt;br&gt;Location: 11146 - 12541" locus_tag="ctg27_9" class="clusterblast-orf" id="dummy-1_q2_0_all"  />
<polygon points="43,35 48,30 48,30 48,40 48,40 43,35 " style="fill:#7715d8; stroke-width:1; stroke:black; " description="&lt;b&gt;ctg27_10&lt;/b&gt;&lt;br&gt;ctg27 10&lt;br&gt;Location: 12668 - 13079" locus_tag="ctg27_10" class="clusterblast-orf" id="dummy-1_q3_0_all"  />
<polygon points="49,35 54,30 59,30 59,40 54,40 49,35 " style="fill:#d83f15; stroke-width:1; stroke:black; " description="&lt;b&gt;ctg27_11&lt;/b&gt;&lt;br&gt;ctg27 11&lt;br&gt;Location: 13106 - 13904" locus_tag="ctg27_11" class="clusterblast-orf" id="dummy-1_q4_0_all"  />
<polygon points="59,35 64,30 72,30 72,40 64,40 59,35 " style="fill:#4dd815; stroke-width:1; stroke:black; " description="&lt;b&gt;ctg27_12&lt;/b&gt;&lt;br&gt;ctg27 12&lt;br&gt;Location: 13919 - 14924" locus_tag="ctg27_12" class="clusterblast-orf" id="dummy-1_q5_0_all"  />
<polygon points="73,40 79,40 84,35 79,30 73,30 73,40 " style="fill:#15aed8; stroke-width:1; stroke:black; " description="&lt;b&gt;ctg27_13&lt;/b&gt;&lt;br&gt;ctg27 13&lt;br&gt;Location: 15037 - 15931" locus_tag="ctg27_13" class="clusterblast-orf" id="dummy-1_q6_0_all"  />
<polygon points="86,35 91,30 102,30 102,40 91,40 86,35 " style="fill:#a115d8; stroke-width:1; stroke:black; " description="&lt;b&gt;ctg27_14&lt;/b&gt;&lt;br&gt;ctg27 14&lt;br&gt;Location: 16043 - 17339" locus_tag="ctg27_14" class="clusterblast-orf" id="dummy-1_q7_0_all"  />
<polygon points="102,35 107,30 115,30 115,40 107,40 102,35 " style="fill:#d86915; stroke-width:1; stroke:black; " description="&lt;b&gt;ctg27_15&lt;/b&gt;&lt;br&gt;ctg27 15&lt;br&gt;Location: 17335 - 18424" locus_tag="ctg27_15" class="clusterblast-orf" id="dummy-1_q8_0_all"  />
<polygon points="116,35 121,30 133,30 133,40 121,40 116,35 " style="fill:#23d815; stroke-width:1; stroke:black; " description="&lt;b&gt;ctg27_16&lt;/b&gt;&lt;br&gt;ctg27 16&lt;br&gt;Location: 18446 - 19805" locus_tag="ctg27_16" class="clusterblast-orf" id="dummy-1_q9_0_all"  />
<polygon points="135,40 140,40 145,35 140,30 135,30 135,40 " style="fill:#1585d8; stroke-width:1; stroke:black; " description="&lt;b&gt;ctg27_17&lt;/b&gt;&lt;br&gt;ctg27 17&lt;br&gt;Location: 20042 - 20840" locus_tag="ctg27_17" class="clusterblast-orf" id="dummy-1_q10_0_all"  />
<polygon points="147,40 169,40 174,35 169,30 147,30 147,40 " style="fill:#ca15d8; stroke-width:1; stroke:black; " description="&lt;b&gt;ctg27_18&lt;/b&gt;&lt;br&gt;ctg27 18&lt;br&gt;Location: 20945 - 23087" locus_tag="ctg27_18" class="clusterblast-orf" id="dummy-1_q11_0_all"  />
<polygon points="174,35 179,30 180,30 180,40 179,40 174,35 " style="fill:#d89315; stroke-width:1; stroke:black; " description="&lt;b&gt;ctg27_19&lt;/b&gt;&lt;br&gt;ctg27 19&lt;br&gt;Location: 23132 - 23603" locus_tag="ctg27_19" class="clusterblast-orf" id="dummy-1_q12_0_all"  />
<polygon points="182,40 192,40 197,35 192,30 182,30 182,40 " style="fill:#15d831; stroke-width:1; stroke:black; " description="&lt;b&gt;ctg27_20&lt;/b&gt;&lt;br&gt;ctg27 20&lt;br&gt;Location: 23726 - 24971" locus_tag="ctg27_20" class="clusterblast-orf" id="dummy-1_q13_0_all"  />
<polygon points="200,40 203,40 208,35 203,30 200,30 200,40 " style="fill:#155bd8; stroke-width:1; stroke:black; " description="&lt;b&gt;ctg27_21&lt;/b&gt;&lt;br&gt;ctg27 21&lt;br&gt;Location: 25203 - 25881" locus_tag="ctg27_21" class="clusterblast-orf" id="dummy-1_q14_0_all"  />
<polygon points="210,35 215,30 235,30 235,40 215,40 210,35 " style="fill:#d815bc; stroke-width:1; stroke:black; " description="&lt;b&gt;ctg27_22&lt;/b&gt;&lt;br&gt;ctg27 22&lt;br&gt;Location: 26008 - 27967" locus_tag="ctg27_22" class="clusterblast-orf" id="dummy-1_q15_0_all"  />
<polygon points="235,35 240,30 249,30 249,40 240,40 235,35 " style="fill:#d8bc15; stroke-width:1; stroke:black; " description="&lt;b&gt;ctg27_23&lt;/b&gt;&lt;br&gt;ctg27 23&lt;br&gt;Location: 27970 - 29113" locus_tag="ctg27_23" class="clusterblast-orf" id="dummy-1_q16_0_all"  />
<polygon points="249,35 254,30 390,30 390,40 254,40 249,35 " style="fill:#15d85b; stroke-width:1; stroke:black; " description="&lt;b&gt;ctg27_24&lt;/b&gt;&lt;br&gt;ctg27 24&lt;br&gt;Location: 29109 - 40446" locus_tag="ctg27_24" class="clusterblast-orf" id="dummy-1_q17_0_all"  />
<polygon points="390,35 395,30 552,30 552,40 395,40 390,35 " style="fill:#15d85b; stroke-width:1; stroke:black; " description="&lt;b&gt;ctg27_25&lt;/b&gt;&lt;br&gt;ctg27 25&lt;br&gt;Location: 40442 - 53354" locus_tag="ctg27_25" class="clusterblast-orf" id="dummy-1_q18_0_all"  />
<polygon points="554,35 559,30 561,30 561,40 559,40 554,35 " style="fill:#1531d8; stroke-width:1; stroke:black; " description="&lt;b&gt;ctg27_26&lt;/b&gt;&lt;br&gt;ctg27 26&lt;br&gt;Location: 53563 - 54109" locus_tag="ctg27_26" class="clusterblast-orf" id="dummy-1_q19_0_all"  />
<polygon points="563,35 568,30 575,30 575,40 568,40 563,35 " style="fill:#d81593; stroke-width:1; stroke:black; " description="&lt;b&gt;ctg27_27&lt;/b&gt;&lt;br&gt;ctg27 27&lt;br&gt;Location: 54228 - 55227" locus_tag="ctg27_27" class="clusterblast-orf" id="dummy-1_q20_0_all"  />
<polygon points="575,35 580,30 622,30 622,40 580,40 575,35 " style="fill:#d81593; stroke-width:1; stroke:black; " description="&lt;b&gt;ctg27_28&lt;/b&gt;&lt;br&gt;ctg27 28&lt;br&gt;Location: 55226 - 58988" locus_tag="ctg27_28" class="clusterblast-orf" id="dummy-1_q21_0_all"  />
<polygon points="622,35 627,30 635,30 635,40 627,40 622,35 " style="fill:#cad815; stroke-width:1; stroke:black; " description="&lt;b&gt;ctg27_29&lt;/b&gt;&lt;br&gt;ctg27 29&lt;br&gt;Location: 58991 - 60053" locus_tag="ctg27_29" class="clusterblast-orf" id="dummy-1_q22_0_all"  />
<polygon points="653,40 655,35 653,30 653,40 " style="fill:#15d885; stroke-width:1; stroke:black; " description="&lt;b&gt;ctg27_30&lt;/b&gt;&lt;br&gt;ctg27 30&lt;br&gt;Location: 61436 - 61625" locus_tag="ctg27_30" class="clusterblast-orf" id="dummy-1_q23_0_all"  />
<polygon points="655,40 659,40 664,35 659,30 655,30 655,40 " style="fill:#2315d8; stroke-width:1; stroke:black; " description="&lt;b&gt;ctg27_31&lt;/b&gt;&lt;br&gt;ctg27 31&lt;br&gt;Location: 61636 - 62341" locus_tag="ctg27_31" class="clusterblast-orf" id="dummy-1_q24_0_all"  />
<polygon points="664,40 664,40 669,35 664,30 664,30 664,40 " style="fill:#d81569; stroke-width:1; stroke:black; " description="&lt;b&gt;ctg27_32&lt;/b&gt;&lt;br&gt;ctg27 32&lt;br&gt;Location: 62337 - 62730" locus_tag="ctg27_32" class="clusterblast-orf" id="dummy-1_q25_0_all"  />
<polygon points="670,40 674,40 679,35 674,30 670,30 670,40 " style="fill:#a1d815; stroke-width:1; stroke:black; " description="&lt;b&gt;ctg27_33&lt;/b&gt;&lt;br&gt;ctg27 33&lt;br&gt;Location: 62800 - 63547" locus_tag="ctg27_33" class="clusterblast-orf" id="dummy-1_q26_0_all"  />
<polygon points="682,35 687,30 689,30 689,40 687,40 682,35 " style="fill:#15d8ae; stroke-width:1; stroke:black; " description="&lt;b&gt;ctg27_34&lt;/b&gt;&lt;br&gt;ctg27 34&lt;br&gt;Location: 63750 - 64335" locus_tag="ctg27_34" class="clusterblast-orf" id="dummy-1_q27_0_all"  />
<polygon points="703,35 708,30 731,30 731,40 708,40 703,35 " style="fill:#4d15d8; stroke-width:1; stroke:black; " description="&lt;b&gt;ctg27_35&lt;/b&gt;&lt;br&gt;ctg27 35&lt;br&gt;Location: 65417 - 67712" locus_tag="ctg27_35" class="clusterblast-orf" id="dummy-1_q28_0_all"  />
<polygon points="733,40 775,40 780,35 775,30 733,30 733,40 " style="fill:#d8153f; stroke-width:1; stroke:black; " description="&lt;b&gt;ctg27_36&lt;/b&gt;&lt;br&gt;ctg27 36&lt;br&gt;Location: 67876 - 71587" locus_tag="ctg27_36" class="clusterblast-orf" id="dummy-1_q29_0_all"  />
</g>
<g label="NZ_MSDI01000033" description="NZ_MSDI01000033 (35897-100142): Pseudomonas fluorescens strain E24 PF E24 con... (90% of genes show similarity), NRPS" class="clusterblast-cluster"  >
<text x="5" y="70" class="clusterblast-acc"  >
<a xlink:href="https://antismash-db.secondarymetabolites.org/area.html?record=NZ_MSDI01000033&amp;start=35897&amp;end=100142" target="_blank">NZ_MSDI01000033 (35897-100142)</a>: Pseudomonas fluorescens strain E24 PF E24 con... (90% of genes show similarity), NRPS</text>
<line x1="10" y1="85" x2="778.0" y2="85" style="stroke-width:1; stroke:grey; "  />
</g>
<g id="a1_000"  >
<polygon points="4,90 8,90 13,85 8,80 4,80 4,90 " style="fill:#77d815; stroke-width:1; stroke:black; " description="&lt;b&gt;BFW91_RS24105&lt;/b&gt;&lt;br&gt;response regulator transcription factor&lt;br&gt;Location: 99487 - 98804&lt;br&gt;&lt;br&gt;&lt;b&gt;BlastP hit with ctg27_8&lt;/b&gt;&lt;br&gt;Percentage identity: 100&lt;br&gt;Percentage coverage: 100&lt;br&gt;BLAST bit score: 438&lt;br&gt;E-value: 6.91e-157" locus_tag="BFW91_RS24105" class="clusterblast-orf" id="dummy-1_h1_1_0"  />
</g>
<g id="a1_001"  >
<polygon points="12,90 25,90 30,85 25,80 12,80 12,90 " style="fill:#15d8d8; stroke-width:1; stroke:black; " description="&lt;b&gt;BFW91_RS24100&lt;/b&gt;&lt;br&gt;HAMP domain-containing histidine kinase&lt;br&gt;Location: 98826 - 97435&lt;br&gt;&lt;br&gt;&lt;b&gt;BlastP hit with ctg27_9&lt;/b&gt;&lt;br&gt;Percentage identity: 98&lt;br&gt;Percentage coverage: 100&lt;br&gt;BLAST bit score: 900&lt;br&gt;E-value: 0.0" locus_tag="BFW91_RS24100" class="clusterblast-orf" id="dummy-1_h1_1_1"  />
</g>
<g id="a1_002"  >
<polygon points="32,85 37,80 37,80 37,90 37,90 32,85 " style="fill:#7715d8; stroke-width:1; stroke:black; " description="&lt;b&gt;BFW91_RS24095&lt;/b&gt;&lt;br&gt;SRPBCC family protein&lt;br&gt;Location: 97302 - 96886&lt;br&gt;&lt;br&gt;&lt;b&gt;BlastP hit with ctg27_10&lt;/b&gt;&lt;br&gt;Percentage identity: 98&lt;br&gt;Percentage coverage: 99&lt;br&gt;BLAST bit score: 258&lt;br&gt;E-value: 2.42e-88" locus_tag="BFW91_RS24095" class="clusterblast-orf" id="dummy-1_h1_1_2"  />
</g>
<g id="a1_003"  >
<polygon points="37,85 42,80 47,80 47,90 42,90 37,85 " style="fill:#d83f15; stroke-width:1; stroke:black; " description="&lt;b&gt;BFW91_RS24090&lt;/b&gt;&lt;br&gt;SDR family oxidoreductase&lt;br&gt;Location: 96858 - 96061&lt;br&gt;&lt;br&gt;&lt;b&gt;BlastP hit with ctg27_11&lt;/b&gt;&lt;br&gt;Percentage identity: 99&lt;br&gt;Percentage coverage: 100&lt;br&gt;BLAST bit score: 493&lt;br&gt;E-value: 2.04e-177" locus_tag="BFW91_RS24090" class="clusterblast-orf" id="dummy-1_h1_1_3"  />
</g>
<g id="a1_004"  >
<polygon points="47,85 50,80 50,90 47,85 " style="fill:#4dd815; stroke-width:1; stroke:black; " description="&lt;b&gt;BFW91_RS24085&lt;/b&gt;&lt;br&gt;aldo/keto reductase&lt;br&gt;Location: 96045 - 95818&lt;br&gt;&lt;br&gt;&lt;b&gt;BlastP hit with ctg27_12&lt;/b&gt;&lt;br&gt;Percentage identity: 95&lt;br&gt;Percentage coverage: 22&lt;br&gt;BLAST bit score: 131&lt;br&gt;E-value: 1.83e-36" locus_tag="BFW91_RS24085" class="clusterblast-orf" id="dummy-1_h1_1_4"  />
</g>
<g id="a1_005"  >
<polygon points="50,90 52,90 57,85 52,80 50,80 50,90 " style="fill:#15aed8; stroke-width:1; stroke:black; " description="&lt;b&gt;BFW91_RS24080&lt;/b&gt;&lt;br&gt;hypothetical protein&lt;br&gt;Location: 95810 - 95284&lt;br&gt;&lt;br&gt;&lt;b&gt;BlastP hit with ctg27_13&lt;/b&gt;&lt;br&gt;Percentage identity: 92&lt;br&gt;Percentage coverage: 29&lt;br&gt;BLAST bit score: 155&lt;br&gt;E-value: 6.08e-46" locus_tag="BFW91_RS24080" class="clusterblast-orf" id="dummy-1_h1_1_5"  />
</g>
<g id="a1_006"  >
<polygon points="58,85 63,80 74,80 74,90 63,90 58,85 " style="fill:#a115d8; stroke-width:1; stroke:black; " description="&lt;b&gt;BFW91_RS24075&lt;/b&gt;&lt;br&gt;FAD-binding oxidoreductase&lt;br&gt;Location: 95170 - 93875&lt;br&gt;&lt;br&gt;&lt;b&gt;BlastP hit with ctg27_14&lt;/b&gt;&lt;br&gt;Percentage identity: 98&lt;br&gt;Percentage coverage: 100&lt;br&gt;BLAST bit score: 857&lt;br&gt;E-value: 1.51e-315" locus_tag="BFW91_RS24075" class="clusterblast-orf" id="dummy-1_h1_1_6"  />
</g>
<g id="a1_007"  >
<polygon points="74,85 79,80 88,80 88,90 79,90 74,85 " style="fill:#d86915; stroke-width:1; stroke:black; " description="&lt;b&gt;BFW91_RS24070&lt;/b&gt;&lt;br&gt;polyamine ABC transporter substrate-binding protein&lt;br&gt;Location: 93878 - 92790&lt;br&gt;&lt;br&gt;&lt;b&gt;BlastP hit with ctg27_15&lt;/b&gt;&lt;br&gt;Percentage identity: 99&lt;br&gt;Percentage coverage: 100&lt;br&gt;BLAST bit score: 721&lt;br&gt;E-value: 2.18e-264" locus_tag="BFW91_RS24070" class="clusterblast-orf" id="dummy-1_h1_1_7"  />
</g>
<g id="a1_008"  >
<polygon points="88,85 93,80 105,80 105,90 93,90 88,85 " style="fill:#23d815; stroke-width:1; stroke:black; " description="&lt;b&gt;BFW91_RS24065&lt;/b&gt;&lt;br&gt;glutamine synthetase&lt;br&gt;Location: 92767 - 91409&lt;br&gt;&lt;br&gt;&lt;b&gt;BlastP hit with ctg27_16&lt;/b&gt;&lt;br&gt;Percentage identity: 100&lt;br&gt;Percentage coverage: 100&lt;br&gt;BLAST bit score: 923&lt;br&gt;E-value: 0.0" locus_tag="BFW91_RS24065" class="clusterblast-orf" id="dummy-1_h1_1_8"  />
</g>
<g id="a1_009"  >
<polygon points="107,90 113,90 118,85 113,80 107,80 107,90 " style="fill:#1585d8; stroke-width:1; stroke:black; " description="&lt;b&gt;BFW91_RS24060&lt;/b&gt;&lt;br&gt;helix-turn-helix domain-containing protein&lt;br&gt;Location: 91270 - 90374&lt;br&gt;&lt;br&gt;&lt;b&gt;BlastP hit with ctg27_17&lt;/b&gt;&lt;br&gt;Percentage identity: 99&lt;br&gt;Percentage coverage: 100&lt;br&gt;BLAST bit score: 531&lt;br&gt;E-value: 5.55e-192" locus_tag="BFW91_RS24060" class="clusterblast-orf" id="dummy-1_h1_1_9"  />
</g>
<g id="a1_0010"  >
<polygon points="119,90 141,90 146,85 141,80 119,80 119,90 " style="fill:#ca15d8; stroke-width:1; stroke:black; " description="&lt;b&gt;BFW91_RS24055&lt;/b&gt;&lt;br&gt;TonB-dependent siderophore receptor&lt;br&gt;Location: 90268 - 88127&lt;br&gt;&lt;br&gt;&lt;b&gt;BlastP hit with ctg27_18&lt;/b&gt;&lt;br&gt;Percentage identity: 97&lt;br&gt;Percentage coverage: 100&lt;br&gt;BLAST bit score: 1397&lt;br&gt;E-value: 0.0" locus_tag="BFW91_RS24055" class="clusterblast-orf" id="dummy-1_h1_1_10"  />
</g>
<g id="a1_0011"  >
<polygon points="146,85 151,80 160,80 160,90 151,90 146,85 " style="fill:white; stroke-width:1; stroke:black; " description="&lt;b&gt;BFW91_RS24050&lt;/b&gt;&lt;br&gt;MFS transporter&lt;br&gt;Location: 88137 - 87007" locus_tag="BFW91_RS24050" class="clusterblast-orf" id="dummy-1_h1_1_11"  />
</g>
<g id="a1_0012"  >
<polygon points="161,90 166,90 171,85 166,80 161,80 161,90 " style="fill:white; stroke-width:1; stroke:black; " description="&lt;b&gt;BFW91_RS24045&lt;/b&gt;&lt;br&gt;helix-turn-helix transcriptional regulator&lt;br&gt;Location: 86908 - 86138" locus_tag="BFW91_RS24045" class="clusterblast-orf" id="dummy-1_h1_1_12"  />
</g>
<g id="a1_0013"  >
<polygon points="172,85 177,80 178,80 178,90 177,90 172,85 " style="fill:#d89315; stroke-width:1; stroke:black; " description="&lt;b&gt;BFW91_RS24040&lt;/b&gt;&lt;br&gt;Lrp/AsnC family transcriptional regulator&lt;br&gt;Location: 86060 - 85590&lt;br&gt;&lt;br&gt;&lt;b&gt;BlastP hit with ctg27_19&lt;/b&gt;&lt;br&gt;Percentage identity: 99&lt;br&gt;Percentage coverage: 100&lt;br&gt;BLAST bit score: 305&lt;br&gt;E-value: 2.52e-106" locus_tag="BFW91_RS24040" class="clusterblast-orf" id="dummy-1_h1_1_13"  />
</g>
<g id="a1_0014"  >
<polygon points="179,90 190,90 195,85 190,80 179,80 179,90 " style="fill:#15d831; stroke-width:1; stroke:black; " description="&lt;b&gt;BFW91_RS24035&lt;/b&gt;&lt;br&gt;methionine gamma-lyase&lt;br&gt;Location: 85466 - 84222&lt;br&gt;&lt;br&gt;&lt;b&gt;BlastP hit with ctg27_20&lt;/b&gt;&lt;br&gt;Percentage identity: 98&lt;br&gt;Percentage coverage: 100&lt;br&gt;BLAST bit score: 808&lt;br&gt;E-value: 6.42e-297" locus_tag="BFW91_RS24035" class="clusterblast-orf" id="dummy-1_h1_1_14"  />
</g>
<g id="a1_0015"  >
<polygon points="198,90 201,90 206,85 201,80 198,80 198,90 " style="fill:#155bd8; stroke-width:1; stroke:black; " description="&lt;b&gt;BFW91_RS24030&lt;/b&gt;&lt;br&gt;helix-turn-helix transcriptional regulator&lt;br&gt;Location: 83989 - 83312&lt;br&gt;&lt;br&gt;&lt;b&gt;BlastP hit with ctg27_21&lt;/b&gt;&lt;br&gt;Percentage identity: 95&lt;br&gt;Percentage coverage: 100&lt;br&gt;BLAST bit score: 414&lt;br&gt;E-value: 3.38e-147" locus_tag="BFW91_RS24030" class="clusterblast-orf" id="dummy-1_h1_1_15"  />
</g>
<g id="a1_0016"  >
<polygon points="207,85 212,80 232,80 232,90 212,90 207,85 " style="fill:#d815bc; stroke-width:1; stroke:black; " description="&lt;b&gt;BFW91_RS24025&lt;/b&gt;&lt;br&gt;MacB family efflux pump subunit&lt;br&gt;Location: 83243 - 81285&lt;br&gt;&lt;br&gt;&lt;b&gt;BlastP hit with ctg27_22&lt;/b&gt;&lt;br&gt;Percentage identity: 98&lt;br&gt;Percentage coverage: 100&lt;br&gt;BLAST bit score: 1216&lt;br&gt;E-value: 0.0" locus_tag="BFW91_RS24025" class="clusterblast-orf" id="dummy-1_h1_1_16"  />
</g>
<g id="a1_0017"  >
<polygon points="232,85 237,80 246,80 246,90 237,90 232,85 " style="fill:#d8bc15; stroke-width:1; stroke:black; " description="&lt;b&gt;BFW91_RS24020&lt;/b&gt;&lt;br&gt;macrolide transporter subunit MacA&lt;br&gt;Location: 81281 - 80160&lt;br&gt;&lt;br&gt;&lt;b&gt;BlastP hit with ctg27_23&lt;/b&gt;&lt;br&gt;Percentage identity: 97&lt;br&gt;Percentage coverage: 98&lt;br&gt;BLAST bit score: 669&lt;br&gt;E-value: 3.61e-243" locus_tag="BFW91_RS24020" class="clusterblast-orf" id="dummy-1_h1_1_17"  />
</g>
<g id="a1_0018"  >
<polygon points="246,85 251,80 388,80 388,90 251,90 246,85 " style="fill:#15d85b; stroke-width:1; stroke:black; " description="&lt;b&gt;BFW91_RS24015&lt;/b&gt;&lt;br&gt;amino acid adenylation domain-containing protein&lt;br&gt;Location: 80142 - 68806&lt;br&gt;&lt;br&gt;&lt;b&gt;BlastP hit with ctg27_24&lt;/b&gt;&lt;br&gt;Percentage identity: 96&lt;br&gt;Percentage coverage: 100&lt;br&gt;BLAST bit score: 7174&lt;br&gt;E-value: 0.0&lt;br&gt;&lt;br&gt;&lt;b&gt;BlastP hit with ctg27_25&lt;/b&gt;&lt;br&gt;Percentage identity: 60&lt;br&gt;Percentage coverage: 50&lt;br&gt;BLAST bit score: 2404&lt;br&gt;E-value: 0.0" locus_tag="BFW91_RS24015" class="clusterblast-orf" id="dummy-1_h1_1_18"  />
</g>
<g id="a1_0019"  >
<polygon points="388,85 393,80 549,80 549,90 393,90 388,85 " style="fill:#15d85b; stroke-width:1; stroke:black; " description="&lt;b&gt;BFW91_RS24010&lt;/b&gt;&lt;br&gt;non-ribosomal peptide synthetase&lt;br&gt;Location: 68809 - 55898&lt;br&gt;&lt;br&gt;&lt;b&gt;BlastP hit with ctg27_24&lt;/b&gt;&lt;br&gt;Percentage identity: 60&lt;br&gt;Percentage coverage: 57&lt;br&gt;BLAST bit score: 2402&lt;br&gt;E-value: 0.0&lt;br&gt;&lt;br&gt;&lt;b&gt;BlastP hit with ctg27_25&lt;/b&gt;&lt;br&gt;Percentage identity: 96&lt;br&gt;Percentage coverage: 100&lt;br&gt;BLAST bit score: 8103&lt;br&gt;E-value: 0.0" locus_tag="BFW91_RS24010" class="clusterblast-orf" id="dummy-1_h1_1_19"  />
</g>
<g id="a1_0020"  >
<polygon points="552,85 557,80 561,80 561,90 557,90 552,85 " style="fill:#1531d8; stroke-width:1; stroke:black; " description="&lt;b&gt;BFW91_RS24005&lt;/b&gt;&lt;br&gt;VWA domain-containing protein&lt;br&gt;Location: 55690 - 54950&lt;br&gt;&lt;br&gt;&lt;b&gt;BlastP hit with ctg27_26&lt;/b&gt;&lt;br&gt;Percentage identity: 92&lt;br&gt;Percentage coverage: 100&lt;br&gt;BLAST bit score: 327&lt;br&gt;E-value: 2.29e-113" locus_tag="BFW91_RS24005" class="clusterblast-orf" id="dummy-1_h1_1_20"  />
</g>
<g id="a1_0021"  >
<polygon points="560,85 565,80 572,80 572,90 565,90 560,85 " style="fill:#d81593; stroke-width:1; stroke:black; " description="&lt;b&gt;BFW91_RS24000&lt;/b&gt;&lt;br&gt;AAA family ATPase&lt;br&gt;Location: 55025 - 54027&lt;br&gt;&lt;br&gt;&lt;b&gt;BlastP hit with ctg27_27&lt;/b&gt;&lt;br&gt;Percentage identity: 97&lt;br&gt;Percentage coverage: 100&lt;br&gt;BLAST bit score: 634&lt;br&gt;E-value: 1.19e-230" locus_tag="BFW91_RS24000" class="clusterblast-orf" id="dummy-1_h1_1_21"  />
</g>
<g id="a1_0022"  >
<polygon points="572,85 577,80 619,80 619,90 577,90 572,85 " style="fill:#d81593; stroke-width:1; stroke:black; " description="&lt;b&gt;BFW91_RS23995&lt;/b&gt;&lt;br&gt;cobaltochelatase subunit CobN&lt;br&gt;Location: 54027 - 50266&lt;br&gt;&lt;br&gt;&lt;b&gt;BlastP hit with ctg27_28&lt;/b&gt;&lt;br&gt;Percentage identity: 98&lt;br&gt;Percentage coverage: 100&lt;br&gt;BLAST bit score: 2484&lt;br&gt;E-value: 0.0" locus_tag="BFW91_RS23995" class="clusterblast-orf" id="dummy-1_h1_1_22"  />
</g>
<g id="a1_0023"  >
<polygon points="619,85 624,80 633,80 633,90 624,90 619,85 " style="fill:#cad815; stroke-width:1; stroke:black; " description="&lt;b&gt;BFW91_RS23990&lt;/b&gt;&lt;br&gt;cobalamin biosynthesis protein CobW&lt;br&gt;Location: 50262 - 49141&lt;br&gt;&lt;br&gt;&lt;b&gt;BlastP hit with ctg27_29&lt;/b&gt;&lt;br&gt;Percentage identity: 98&lt;br&gt;Percentage coverage: 100&lt;br&gt;BLAST bit score: 637&lt;br&gt;E-value: 5.43e-231" locus_tag="BFW91_RS23990" class="clusterblast-orf" id="dummy-1_h1_1_23"  />
</g>
<g id="a1_0024"  >
<polygon points="638,90 642,90 647,85 642,80 638,80 638,90 " style="fill:white; stroke-width:1; stroke:black; " description="&lt;b&gt;BFW91_RS30300&lt;/b&gt;&lt;br&gt;hypothetical protein&lt;br&gt;Location: 48745 - 48068" locus_tag="BFW91_RS30300" class="clusterblast-orf" id="dummy-1_h1_1_24"  />
</g>
<g id="a1_0025"  >
<polygon points="652,90 654,85 652,80 652,90 " style="fill:#15d885; stroke-width:1; stroke:black; " description="&lt;b&gt;BFW91_RS23980&lt;/b&gt;&lt;br&gt;CbtB-domain containing protein&lt;br&gt;Location: 47672 - 47484&lt;br&gt;&lt;br&gt;&lt;b&gt;BlastP hit with ctg27_30&lt;/b&gt;&lt;br&gt;Percentage identity: 97&lt;br&gt;Percentage coverage: 100&lt;br&gt;BLAST bit score: 114&lt;br&gt;E-value: 6.12e-34" locus_tag="BFW91_RS23980" class="clusterblast-orf" id="dummy-1_h1_1_25"  />
</g>
<g id="a1_0026"  >
<polygon points="654,90 658,90 663,85 658,80 654,80 654,90 " style="fill:#2315d8; stroke-width:1; stroke:black; " description="&lt;b&gt;BFW91_RS23975&lt;/b&gt;&lt;br&gt;CbtA family protein&lt;br&gt;Location: 47472 - 46771&lt;br&gt;&lt;br&gt;&lt;b&gt;BlastP hit with ctg27_31&lt;/b&gt;&lt;br&gt;Percentage identity: 93&lt;br&gt;Percentage coverage: 100&lt;br&gt;BLAST bit score: 421&lt;br&gt;E-value: 8.24e-150" locus_tag="BFW91_RS23975" class="clusterblast-orf" id="dummy-1_h1_1_26"  />
</g>
<g id="a1_0027"  >
<polygon points="663,90 663,90 668,85 663,80 663,80 663,90 " style="fill:#d81569; stroke-width:1; stroke:black; " description="&lt;b&gt;BFW91_RS23970&lt;/b&gt;&lt;br&gt;cobalamin biosynthesis protein&lt;br&gt;Location: 46774 - 46382&lt;br&gt;&lt;br&gt;&lt;b&gt;BlastP hit with ctg27_32&lt;/b&gt;&lt;br&gt;Percentage identity: 82&lt;br&gt;Percentage coverage: 98&lt;br&gt;BLAST bit score: 202&lt;br&gt;E-value: 1.86e-66" locus_tag="BFW91_RS23970" class="clusterblast-orf" id="dummy-1_h1_1_27"  />
</g>
<g id="a1_0028"  >
<polygon points="669,90 673,90 678,85 673,80 669,80 669,90 " style="fill:#a1d815; stroke-width:1; stroke:black; " description="&lt;b&gt;BFW91_RS23965&lt;/b&gt;&lt;br&gt;precorrin-4 C(11)-methyltransferase&lt;br&gt;Location: 46311 - 45565&lt;br&gt;&lt;br&gt;&lt;b&gt;BlastP hit with ctg27_33&lt;/b&gt;&lt;br&gt;Percentage identity: 98&lt;br&gt;Percentage coverage: 100&lt;br&gt;BLAST bit score: 485&lt;br&gt;E-value: 8.73e-175" locus_tag="BFW91_RS23965" class="clusterblast-orf" id="dummy-1_h1_1_28"  />
</g>
<g id="a1_0029"  >
<polygon points="680,85 685,80 688,80 688,90 685,90 680,85 " style="fill:#15d8ae; stroke-width:1; stroke:black; " description="&lt;b&gt;BFW91_RS23960&lt;/b&gt;&lt;br&gt;Fe-S biogenesis protein NfuA&lt;br&gt;Location: 45393 - 44809&lt;br&gt;&lt;br&gt;&lt;b&gt;BlastP hit with ctg27_34&lt;/b&gt;&lt;br&gt;Percentage identity: 100&lt;br&gt;Percentage coverage: 100&lt;br&gt;BLAST bit score: 392&lt;br&gt;E-value: 7.68e-140" locus_tag="BFW91_RS23960" class="clusterblast-orf" id="dummy-1_h1_1_29"  />
</g>
<g id="a1_0030"  >
<polygon points="698,85 703,80 726,80 726,90 703,90 698,85 " style="fill:#4d15d8; stroke-width:1; stroke:black; " description="&lt;b&gt;BFW91_RS23955&lt;/b&gt;&lt;br&gt;fatty acid cis/trans isomerase&lt;br&gt;Location: 43994 - 41700&lt;br&gt;&lt;br&gt;&lt;b&gt;BlastP hit with ctg27_35&lt;/b&gt;&lt;br&gt;Percentage identity: 97&lt;br&gt;Percentage coverage: 100&lt;br&gt;BLAST bit score: 1538&lt;br&gt;E-value: 0.0" locus_tag="BFW91_RS23955" class="clusterblast-orf" id="dummy-1_h1_1_30"  />
</g>
<g id="a1_0031"  >
<polygon points="728,90 770,90 775,85 770,80 728,80 728,90 " style="fill:#d8153f; stroke-width:1; stroke:black; " description="&lt;b&gt;BFW91_RS23950&lt;/b&gt;&lt;br&gt;methionine synthase&lt;br&gt;Location: 41536 - 37826&lt;br&gt;&lt;br&gt;&lt;b&gt;BlastP hit with ctg27_36&lt;/b&gt;&lt;br&gt;Percentage identity: 98&lt;br&gt;Percentage coverage: 100&lt;br&gt;BLAST bit score: 2429&lt;br&gt;E-value: 0.0" locus_tag="BFW91_RS23950" class="clusterblast-orf" id="dummy-1_h1_1_31"  />
</g>
</svg>
