<svg xmlns="http://www.w3.org/2000/svg" xmlns:xlink="http://www.w3.org/1999/xlink" version="1.1" x="0" y="0" height="230" width="800" viewBox="0 0 800 230" preserveAspectRatio="none"  >
<g label="Query sequence" class="clusterblast-cluster"  >
<text x="5" y="20" class="clusterblast-acc"  >
Query sequence</text>
<line x1="10" y1="35" x2="778.0" y2="35" style="stroke-width:1; stroke:grey; "  />
<polygon points="265,35 270,30 271,30 271,40 270,40 265,35 " style="fill:white; stroke-width:1; stroke:black; " description="&lt;b&gt;ctg40_1&lt;/b&gt;&lt;br&gt;ctg40 1&lt;br&gt;Location: 281 - 452" locus_tag="ctg40_1" class="clusterblast-orf" id="dummy-1_q0_0_all"  />
<polygon points="276,35 281,30 281,30 281,40 281,40 276,35 " style="fill:white; stroke-width:1; stroke:black; " description="&lt;b&gt;ctg40_2&lt;/b&gt;&lt;br&gt;ctg40 2&lt;br&gt;Location: 615 - 783" locus_tag="ctg40_2" class="clusterblast-orf" id="dummy-1_q1_0_all"  />
<polygon points="281,35 286,30 354,30 354,40 286,40 281,35 " style="fill:#d81515; stroke-width:1; stroke:black; " description="&lt;b&gt;ctg40_3&lt;/b&gt;&lt;br&gt;ctg40 3&lt;br&gt;Location: 782 - 2981" locus_tag="ctg40_3" class="clusterblast-orf" id="dummy-1_q2_0_all"  />
<polygon points="358,40 373,40 378,35 373,30 358,30 358,40 " style="fill:#77d815; stroke-width:1; stroke:black; " description="&lt;b&gt;ctg40_4&lt;/b&gt;&lt;br&gt;ctg40 4&lt;br&gt;Location: 3117 - 3738" locus_tag="ctg40_4" class="clusterblast-orf" id="dummy-1_q3_0_all"  />
<polygon points="379,35 384,30 400,30 400,40 384,40 379,35 " style="fill:#15d8d8; stroke-width:1; stroke:black; " description="&lt;b&gt;ctg40_5&lt;/b&gt;&lt;br&gt;ctg40 5&lt;br&gt;Location: 3751 - 4408" locus_tag="ctg40_5" class="clusterblast-orf" id="dummy-1_q4_0_all"  />
<polygon points="404,40 420,40 425,35 420,30 404,30 404,40 " style="fill:#7715d8; stroke-width:1; stroke:black; " description="&lt;b&gt;ctg40_6&lt;/b&gt;&lt;br&gt;ctg40 6&lt;br&gt;Location: 4519 - 5152" locus_tag="ctg40_6" class="clusterblast-orf" id="dummy-1_q5_0_all"  />
<polygon points="427,40 427,40 432,35 427,30 427,30 427,40 " style="fill:#d8a715; stroke-width:1; stroke:black; " description="&lt;b&gt;ctg40_7&lt;/b&gt;&lt;br&gt;ctg40 7&lt;br&gt;Location: 5229 - 5385" locus_tag="ctg40_7" class="clusterblast-orf" id="dummy-1_q6_0_all"  />
<polygon points="434,40 472,40 477,35 472,30 434,30 434,40 " style="fill:#15d846; stroke-width:1; stroke:black; " description="&lt;b&gt;ctg40_8&lt;/b&gt;&lt;br&gt;ctg40 8&lt;br&gt;Location: 5435 - 6749" locus_tag="ctg40_8" class="clusterblast-orf" id="dummy-1_q7_0_all"  />
<polygon points="480,40 494,40 499,35 494,30 480,30 480,40 " style="fill:#1546d8; stroke-width:1; stroke:black; " description="&lt;b&gt;ctg40_9&lt;/b&gt;&lt;br&gt;ctg40 9&lt;br&gt;Location: 6818 - 7397" locus_tag="ctg40_9" class="clusterblast-orf" id="dummy-1_q8_0_all"  />
<polygon points="500,35 505,30 515,30 515,40 505,40 500,35 " style="fill:#d815a7; stroke-width:1; stroke:black; " description="&lt;b&gt;ctg40_10&lt;/b&gt;&lt;br&gt;ctg40 10&lt;br&gt;Location: 7440 - 7890" locus_tag="ctg40_10" class="clusterblast-orf" id="dummy-1_q9_0_all"  />
</g>
<g label="NZ_CP046103" description="NZ_CP046103 (2754535-2781745): Pseudomonas sp. IB20 chromosome (26% of genes show similarity), thiopeptide" class="clusterblast-cluster"  >
<text x="5" y="70" class="clusterblast-acc"  >
<a xlink:href="https://antismash-db.secondarymetabolites.org/area.html?record=NZ_CP046103&amp;start=2754535&amp;end=2781745" target="_blank">NZ_CP046103 (2754535-2781745)</a>: Pseudomonas sp. IB20 chromosome (26% of genes show similarity), thiopeptide</text>
<line x1="10" y1="85" x2="778.0" y2="85" style="stroke-width:1; stroke:grey; "  />
</g>
<g id="a1_000"  >
<polygon points="0,90 4,90 9,85 4,80 0,80 0,90 " style="fill:white; stroke-width:1; stroke:black; " description="&lt;b&gt;GJU48_RS12680&lt;/b&gt;&lt;br&gt;DUF2934 domain-containing protein&lt;br&gt;Location: 2756937 - 2757215" locus_tag="GJU48_RS12680" class="clusterblast-orf" id="dummy-1_h1_3_0"  />
</g>
<g id="a1_001"  >
<polygon points="13,90 79,90 84,85 79,80 13,80 13,90 " style="fill:white; stroke-width:1; stroke:black; " description="&lt;b&gt;GJU48_RS12685&lt;/b&gt;&lt;br&gt;glycogen debranching protein GlgX&lt;br&gt;Location: 2757347 - 2759503" locus_tag="GJU48_RS12685" class="clusterblast-orf" id="dummy-1_h1_3_1"  />
</g>
<g id="a1_002"  >
<polygon points="84,90 112,90 117,85 112,80 84,80 84,90 " style="fill:white; stroke-width:1; stroke:black; " description="&lt;b&gt;GJU48_RS12690&lt;/b&gt;&lt;br&gt;acyl-CoA dehydrogenase family protein&lt;br&gt;Location: 2759505 - 2760503" locus_tag="GJU48_RS12690" class="clusterblast-orf" id="dummy-1_h1_3_2"  />
</g>
<g id="a1_003"  >
<polygon points="116,90 136,90 141,85 136,80 116,80 116,90 " style="fill:white; stroke-width:1; stroke:black; " description="&lt;b&gt;GJU48_RS12695&lt;/b&gt;&lt;br&gt;PIG-L family deacetylase&lt;br&gt;Location: 2760500 - 2761258" locus_tag="GJU48_RS12695" class="clusterblast-orf" id="dummy-1_h1_3_3"  />
</g>
<g id="a1_004"  >
<polygon points="141,90 156,90 161,85 156,80 141,80 141,90 " style="fill:white; stroke-width:1; stroke:black; " description="&lt;b&gt;GJU48_RS12700&lt;/b&gt;&lt;br&gt;methyltransferase domain-containing protein&lt;br&gt;Location: 2761255 - 2761854" locus_tag="GJU48_RS12700" class="clusterblast-orf" id="dummy-1_h1_3_4"  />
</g>
<g id="a1_005"  >
<polygon points="161,90 177,90 182,85 177,80 161,80 161,90 " style="fill:white; stroke-width:1; stroke:black; " description="&lt;b&gt;GJU48_RS12705&lt;/b&gt;&lt;br&gt;glycosyltransferase family 2 protein&lt;br&gt;Location: 2761851 - 2762510" locus_tag="GJU48_RS12705" class="clusterblast-orf" id="dummy-1_h1_3_5"  />
</g>
<g id="a1_006"  >
<polygon points="188,90 208,90 213,85 208,80 188,80 188,90 " style="fill:white; stroke-width:1; stroke:black; " description="&lt;b&gt;GJU48_RS12710&lt;/b&gt;&lt;br&gt;PIG-L family deacetylase&lt;br&gt;Location: 2762687 - 2763448" locus_tag="GJU48_RS12710" class="clusterblast-orf" id="dummy-1_h1_3_6"  />
</g>
<g id="a1_007"  >
<polygon points="227,90 243,90 248,85 243,80 227,80 227,90 " style="fill:white; stroke-width:1; stroke:black; " description="&lt;b&gt;GJU48_RS12715&lt;/b&gt;&lt;br&gt;LysE family translocator&lt;br&gt;Location: 2763875 - 2764495" locus_tag="GJU48_RS12715" class="clusterblast-orf" id="dummy-1_h1_3_7"  />
</g>
<g id="a1_008"  >
<polygon points="249,90 256,90 261,85 256,80 249,80 249,90 " style="fill:white; stroke-width:1; stroke:black; " description="&lt;b&gt;GJU48_RS12720&lt;/b&gt;&lt;br&gt;ester cyclase&lt;br&gt;Location: 2764536 - 2764904" locus_tag="GJU48_RS12720" class="clusterblast-orf" id="dummy-1_h1_3_8"  />
</g>
<g id="a1_009"  >
<polygon points="281,90 305,90 310,85 305,80 281,80 281,90 " style="fill:white; stroke-width:1; stroke:black; " description="&lt;b&gt;GJU48_RS12725&lt;/b&gt;&lt;br&gt;4-hydroxy-tetrahydrodipicolinate synthase&lt;br&gt;Location: 2765520 - 2766383" locus_tag="GJU48_RS12725" class="clusterblast-orf" id="dummy-1_h1_3_9"  />
</g>
<g id="a1_0010"  >
<polygon points="314,90 355,90 360,85 355,80 314,80 314,90 " style="fill:white; stroke-width:1; stroke:black; " description="&lt;b&gt;GJU48_RS12730&lt;/b&gt;&lt;br&gt;cystathionine beta-synthase&lt;br&gt;Location: 2766526 - 2767902" locus_tag="GJU48_RS12730" class="clusterblast-orf" id="dummy-1_h1_3_10"  />
</g>
<g id="a1_0011"  >
<polygon points="359,90 393,90 398,85 393,80 359,80 359,90 " style="fill:white; stroke-width:1; stroke:black; " description="&lt;b&gt;GJU48_RS12735&lt;/b&gt;&lt;br&gt;cystathionine gamma-synthase&lt;br&gt;Location: 2767899 - 2769065" locus_tag="GJU48_RS12735" class="clusterblast-orf" id="dummy-1_h1_3_11"  />
</g>
<g id="a1_0012"  >
<polygon points="414,85 419,80 486,80 486,90 419,90 414,85 " style="fill:#d81515; stroke-width:1; stroke:black; " description="&lt;b&gt;GJU48_RS12745&lt;/b&gt;&lt;br&gt;OsmC domain/YcaO domain-containing protein&lt;br&gt;Location: 2769547 - 2771745&lt;br&gt;&lt;br&gt;&lt;b&gt;BlastP hit with ctg40_3&lt;/b&gt;&lt;br&gt;Percentage identity: 98&lt;br&gt;Percentage coverage: 100&lt;br&gt;BLAST bit score: 1450&lt;br&gt;E-value: 0.0" locus_tag="GJU48_RS12745" class="clusterblast-orf" id="dummy-1_h1_3_12"  />
</g>
<g id="a1_0013"  >
<polygon points="490,90 505,90 510,85 505,80 490,80 490,90 " style="fill:#77d815; stroke-width:1; stroke:black; " description="&lt;b&gt;GJU48_RS12750&lt;/b&gt;&lt;br&gt;LysE family translocator&lt;br&gt;Location: 2771869 - 2772489&lt;br&gt;&lt;br&gt;&lt;b&gt;BlastP hit with ctg40_4&lt;/b&gt;&lt;br&gt;Percentage identity: 93&lt;br&gt;Percentage coverage: 100&lt;br&gt;BLAST bit score: 377&lt;br&gt;E-value: 2.41e-133" locus_tag="GJU48_RS12750" class="clusterblast-orf" id="dummy-1_h1_3_13"  />
</g>
<g id="a1_0014"  >
<polygon points="510,85 515,80 532,80 532,90 515,90 510,85 " style="fill:#15d8d8; stroke-width:1; stroke:black; " description="&lt;b&gt;GJU48_RS12755&lt;/b&gt;&lt;br&gt;class I SAM-dependent methyltransferase&lt;br&gt;Location: 2772493 - 2773149&lt;br&gt;&lt;br&gt;&lt;b&gt;BlastP hit with ctg40_5&lt;/b&gt;&lt;br&gt;Percentage identity: 86&lt;br&gt;Percentage coverage: 100&lt;br&gt;BLAST bit score: 370&lt;br&gt;E-value: 3.31e-130" locus_tag="GJU48_RS12755" class="clusterblast-orf" id="dummy-1_h1_3_14"  />
</g>
<g id="a1_0015"  >
<polygon points="536,90 552,90 557,85 552,80 536,80 536,90 " style="fill:#7715d8; stroke-width:1; stroke:black; " description="&lt;b&gt;GJU48_RS12760&lt;/b&gt;&lt;br&gt;TetR family transcriptional regulator&lt;br&gt;Location: 2773276 - 2773908&lt;br&gt;&lt;br&gt;&lt;b&gt;BlastP hit with ctg40_6&lt;/b&gt;&lt;br&gt;Percentage identity: 86&lt;br&gt;Percentage coverage: 99&lt;br&gt;BLAST bit score: 340&lt;br&gt;E-value: 9.78e-119" locus_tag="GJU48_RS12760" class="clusterblast-orf" id="dummy-1_h1_3_15"  />
</g>
<g id="a1_0016"  >
<polygon points="558,90 579,90 584,85 579,80 558,80 558,90 " style="fill:white; stroke-width:1; stroke:black; " description="&lt;b&gt;GJU48_RS12765&lt;/b&gt;&lt;br&gt;suppressor of fused domain protein&lt;br&gt;Location: 2773937 - 2774743" locus_tag="GJU48_RS12765" class="clusterblast-orf" id="dummy-1_h1_3_16"  />
</g>
<g id="a1_0017"  >
<polygon points="594,90 632,90 637,85 632,80 594,80 594,90 " style="fill:#15d846; stroke-width:1; stroke:black; " description="&lt;b&gt;GJU48_RS12770&lt;/b&gt;&lt;br&gt;FAD-binding oxidoreductase&lt;br&gt;Location: 2775050 - 2776363&lt;br&gt;&lt;br&gt;&lt;b&gt;BlastP hit with ctg40_8&lt;/b&gt;&lt;br&gt;Percentage identity: 95&lt;br&gt;Percentage coverage: 100&lt;br&gt;BLAST bit score: 842&lt;br&gt;E-value: 1.06e-309" locus_tag="GJU48_RS12770" class="clusterblast-orf" id="dummy-1_h1_3_17"  />
</g>
<g id="a1_0018"  >
<polygon points="639,90 653,90 658,85 653,80 639,80 639,90 " style="fill:#1546d8; stroke-width:1; stroke:black; " description="&lt;b&gt;GJU48_RS12775&lt;/b&gt;&lt;br&gt;cysteine hydrolase&lt;br&gt;Location: 2776424 - 2776987&lt;br&gt;&lt;br&gt;&lt;b&gt;BlastP hit with ctg40_9&lt;/b&gt;&lt;br&gt;Percentage identity: 87&lt;br&gt;Percentage coverage: 96&lt;br&gt;BLAST bit score: 334&lt;br&gt;E-value: 5.82e-117" locus_tag="GJU48_RS12775" class="clusterblast-orf" id="dummy-1_h1_3_18"  />
</g>
<g id="a1_0019"  >
<polygon points="660,85 665,80 674,80 674,90 665,90 660,85 " style="fill:#d815a7; stroke-width:1; stroke:black; " description="&lt;b&gt;GJU48_RS12780&lt;/b&gt;&lt;br&gt;NUDIX domain-containing protein&lt;br&gt;Location: 2777045 - 2777482&lt;br&gt;&lt;br&gt;&lt;b&gt;BlastP hit with ctg40_10&lt;/b&gt;&lt;br&gt;Percentage identity: 79&lt;br&gt;Percentage coverage: 97&lt;br&gt;BLAST bit score: 228&lt;br&gt;E-value: 2e-76" locus_tag="GJU48_RS12780" class="clusterblast-orf" id="dummy-1_h1_3_19"  />
</g>
<g id="a1_0020"  >
<polygon points="674,85 679,80 689,80 689,90 679,90 674,85 " style="fill:white; stroke-width:1; stroke:black; " description="&lt;b&gt;GJU48_RS12785&lt;/b&gt;&lt;br&gt;VOC family protein&lt;br&gt;Location: 2777475 - 2777930" locus_tag="GJU48_RS12785" class="clusterblast-orf" id="dummy-1_h1_3_20"  />
</g>
<g id="a1_0021"  >
<polygon points="689,85 694,80 704,80 704,90 694,90 689,85 " style="fill:white; stroke-width:1; stroke:black; " description="&lt;b&gt;GJU48_RS12790&lt;/b&gt;&lt;br&gt;hypothetical protein&lt;br&gt;Location: 2777951 - 2778382" locus_tag="GJU48_RS12790" class="clusterblast-orf" id="dummy-1_h1_3_21"  />
</g>
<g id="a1_0022"  >
<polygon points="709,90 710,90 715,85 710,80 709,80 709,90 " style="fill:white; stroke-width:1; stroke:black; " description="&lt;b&gt;GJU48_RS12795&lt;/b&gt;&lt;br&gt;hypothetical protein&lt;br&gt;Location: 2778541 - 2778717" locus_tag="GJU48_RS12795" class="clusterblast-orf" id="dummy-1_h1_3_22"  />
</g>
<g id="a1_0023"  >
<polygon points="718,85 723,80 743,80 743,90 723,90 718,85 " style="fill:white; stroke-width:1; stroke:black; " description="&lt;b&gt;GJU48_RS12800&lt;/b&gt;&lt;br&gt;nucleotidyltransferase domain-containing protein&lt;br&gt;Location: 2778811 - 2779581" locus_tag="GJU48_RS12800" class="clusterblast-orf" id="dummy-1_h1_3_23"  />
</g>
<g id="a1_0024"  >
<polygon points="743,85 748,80 759,80 759,90 748,90 743,85 " style="fill:white; stroke-width:1; stroke:black; " description="&lt;b&gt;GJU48_RS12805&lt;/b&gt;&lt;br&gt;ATP-binding protein&lt;br&gt;Location: 2779578 - 2780057" locus_tag="GJU48_RS12805" class="clusterblast-orf" id="dummy-1_h1_3_24"  />
</g>
<g id="a1_0025"  >
<polygon points="766,90 775,90 780,85 775,80 766,80 766,90 " style="fill:white; stroke-width:1; stroke:black; " description="&lt;b&gt;GJU48_RS12810&lt;/b&gt;&lt;br&gt;hypothetical protein&lt;br&gt;Location: 2780268 - 2780693" locus_tag="GJU48_RS12810" class="clusterblast-orf" id="dummy-1_h1_3_25"  />
</g>
</svg>
