<svg xmlns="http://www.w3.org/2000/svg" xmlns:xlink="http://www.w3.org/1999/xlink" version="1.1" x="0" y="0" height="230" width="800" viewBox="0 0 800 230" preserveAspectRatio="none"  >
<g label="Query sequence" class="clusterblast-cluster"  >
<text x="5" y="20" class="clusterblast-acc"  >
Query sequence</text>
<line x1="10" y1="35" x2="778.0" y2="35" style="stroke-width:1; stroke:grey; "  />
<polygon points="1,35 6,30 12,30 12,40 6,40 1,35 " style="fill:#d81515; stroke-width:1; stroke:black; " description="&lt;b&gt;ctg27_7&lt;/b&gt;&lt;br&gt;ctg27 7&lt;br&gt;Location: 9169 - 10075" locus_tag="ctg27_7" class="clusterblast-orf" id="dummy-1_q0_0_all"  />
<polygon points="17,40 21,40 26,35 21,30 17,30 17,40 " style="fill:#77d815; stroke-width:1; stroke:black; " description="&lt;b&gt;ctg27_8&lt;/b&gt;&lt;br&gt;ctg27 8&lt;br&gt;Location: 10485 - 11169" locus_tag="ctg27_8" class="clusterblast-orf" id="dummy-1_q1_0_all"  />
<polygon points="26,40 38,40 43,35 38,30 26,30 26,40 " style="fill:#15d8d8; stroke-width:1; stroke:black; " description="&lt;b&gt;ctg27_9&lt;/b&gt;&lt;br&gt;ctg27 9&lt;br&gt;Location: 11146 - 12541" locus_tag="ctg27_9" class="clusterblast-orf" id="dummy-1_q2_0_all"  />
<polygon points="45,35 50,30 50,30 50,40 50,40 45,35 " style="fill:#7715d8; stroke-width:1; stroke:black; " description="&lt;b&gt;ctg27_10&lt;/b&gt;&lt;br&gt;ctg27 10&lt;br&gt;Location: 12668 - 13079" locus_tag="ctg27_10" class="clusterblast-orf" id="dummy-1_q3_0_all"  />
<polygon points="50,35 55,30 60,30 60,40 55,40 50,35 " style="fill:#d83f15; stroke-width:1; stroke:black; " description="&lt;b&gt;ctg27_11&lt;/b&gt;&lt;br&gt;ctg27 11&lt;br&gt;Location: 13106 - 13904" locus_tag="ctg27_11" class="clusterblast-orf" id="dummy-1_q4_0_all"  />
<polygon points="60,35 65,30 73,30 73,40 65,40 60,35 " style="fill:#4dd815; stroke-width:1; stroke:black; " description="&lt;b&gt;ctg27_12&lt;/b&gt;&lt;br&gt;ctg27 12&lt;br&gt;Location: 13919 - 14924" locus_tag="ctg27_12" class="clusterblast-orf" id="dummy-1_q5_0_all"  />
<polygon points="74,40 80,40 85,35 80,30 74,30 74,40 " style="fill:#15aed8; stroke-width:1; stroke:black; " description="&lt;b&gt;ctg27_13&lt;/b&gt;&lt;br&gt;ctg27 13&lt;br&gt;Location: 15037 - 15931" locus_tag="ctg27_13" class="clusterblast-orf" id="dummy-1_q6_0_all"  />
<polygon points="87,35 92,30 103,30 103,40 92,40 87,35 " style="fill:#a115d8; stroke-width:1; stroke:black; " description="&lt;b&gt;ctg27_14&lt;/b&gt;&lt;br&gt;ctg27 14&lt;br&gt;Location: 16043 - 17339" locus_tag="ctg27_14" class="clusterblast-orf" id="dummy-1_q7_0_all"  />
<polygon points="103,35 108,30 116,30 116,40 108,40 103,35 " style="fill:#d86915; stroke-width:1; stroke:black; " description="&lt;b&gt;ctg27_15&lt;/b&gt;&lt;br&gt;ctg27 15&lt;br&gt;Location: 17335 - 18424" locus_tag="ctg27_15" class="clusterblast-orf" id="dummy-1_q8_0_all"  />
<polygon points="117,35 122,30 133,30 133,40 122,40 117,35 " style="fill:#23d815; stroke-width:1; stroke:black; " description="&lt;b&gt;ctg27_16&lt;/b&gt;&lt;br&gt;ctg27 16&lt;br&gt;Location: 18446 - 19805" locus_tag="ctg27_16" class="clusterblast-orf" id="dummy-1_q9_0_all"  />
<polygon points="136,40 141,40 146,35 141,30 136,30 136,40 " style="fill:#1585d8; stroke-width:1; stroke:black; " description="&lt;b&gt;ctg27_17&lt;/b&gt;&lt;br&gt;ctg27 17&lt;br&gt;Location: 20042 - 20840" locus_tag="ctg27_17" class="clusterblast-orf" id="dummy-1_q10_0_all"  />
<polygon points="148,40 169,40 174,35 169,30 148,30 148,40 " style="fill:#ca15d8; stroke-width:1; stroke:black; " description="&lt;b&gt;ctg27_18&lt;/b&gt;&lt;br&gt;ctg27 18&lt;br&gt;Location: 20945 - 23087" locus_tag="ctg27_18" class="clusterblast-orf" id="dummy-1_q11_0_all"  />
<polygon points="175,35 180,30 181,30 181,40 180,40 175,35 " style="fill:#d89315; stroke-width:1; stroke:black; " description="&lt;b&gt;ctg27_19&lt;/b&gt;&lt;br&gt;ctg27 19&lt;br&gt;Location: 23132 - 23603" locus_tag="ctg27_19" class="clusterblast-orf" id="dummy-1_q12_0_all"  />
<polygon points="182,40 193,40 198,35 193,30 182,30 182,40 " style="fill:#15d831; stroke-width:1; stroke:black; " description="&lt;b&gt;ctg27_20&lt;/b&gt;&lt;br&gt;ctg27 20&lt;br&gt;Location: 23726 - 24971" locus_tag="ctg27_20" class="clusterblast-orf" id="dummy-1_q13_0_all"  />
<polygon points="201,40 204,40 209,35 204,30 201,30 201,40 " style="fill:#155bd8; stroke-width:1; stroke:black; " description="&lt;b&gt;ctg27_21&lt;/b&gt;&lt;br&gt;ctg27 21&lt;br&gt;Location: 25203 - 25881" locus_tag="ctg27_21" class="clusterblast-orf" id="dummy-1_q14_0_all"  />
<polygon points="211,35 216,30 235,30 235,40 216,40 211,35 " style="fill:#d815bc; stroke-width:1; stroke:black; " description="&lt;b&gt;ctg27_22&lt;/b&gt;&lt;br&gt;ctg27 22&lt;br&gt;Location: 26008 - 27967" locus_tag="ctg27_22" class="clusterblast-orf" id="dummy-1_q15_0_all"  />
<polygon points="235,35 240,30 249,30 249,40 240,40 235,35 " style="fill:#d8bc15; stroke-width:1; stroke:black; " description="&lt;b&gt;ctg27_23&lt;/b&gt;&lt;br&gt;ctg27 23&lt;br&gt;Location: 27970 - 29113" locus_tag="ctg27_23" class="clusterblast-orf" id="dummy-1_q16_0_all"  />
<polygon points="249,35 254,30 390,30 390,40 254,40 249,35 " style="fill:#15d85b; stroke-width:1; stroke:black; " description="&lt;b&gt;ctg27_24&lt;/b&gt;&lt;br&gt;ctg27 24&lt;br&gt;Location: 29109 - 40446" locus_tag="ctg27_24" class="clusterblast-orf" id="dummy-1_q17_0_all"  />
<polygon points="390,35 395,30 551,30 551,40 395,40 390,35 " style="fill:#15d85b; stroke-width:1; stroke:black; " description="&lt;b&gt;ctg27_25&lt;/b&gt;&lt;br&gt;ctg27 25&lt;br&gt;Location: 40442 - 53354" locus_tag="ctg27_25" class="clusterblast-orf" id="dummy-1_q18_0_all"  />
<polygon points="554,35 559,30 561,30 561,40 559,40 554,35 " style="fill:#1531d8; stroke-width:1; stroke:black; " description="&lt;b&gt;ctg27_26&lt;/b&gt;&lt;br&gt;ctg27 26&lt;br&gt;Location: 53563 - 54109" locus_tag="ctg27_26" class="clusterblast-orf" id="dummy-1_q19_0_all"  />
<polygon points="562,35 567,30 575,30 575,40 567,40 562,35 " style="fill:#d81593; stroke-width:1; stroke:black; " description="&lt;b&gt;ctg27_27&lt;/b&gt;&lt;br&gt;ctg27 27&lt;br&gt;Location: 54228 - 55227" locus_tag="ctg27_27" class="clusterblast-orf" id="dummy-1_q20_0_all"  />
<polygon points="575,35 580,30 621,30 621,40 580,40 575,35 " style="fill:#d81593; stroke-width:1; stroke:black; " description="&lt;b&gt;ctg27_28&lt;/b&gt;&lt;br&gt;ctg27 28&lt;br&gt;Location: 55226 - 58988" locus_tag="ctg27_28" class="clusterblast-orf" id="dummy-1_q21_0_all"  />
<polygon points="621,35 626,30 635,30 635,40 626,40 621,35 " style="fill:#cad815; stroke-width:1; stroke:black; " description="&lt;b&gt;ctg27_29&lt;/b&gt;&lt;br&gt;ctg27 29&lt;br&gt;Location: 58991 - 60053" locus_tag="ctg27_29" class="clusterblast-orf" id="dummy-1_q22_0_all"  />
<polygon points="652,40 654,35 652,30 652,40 " style="fill:#15d885; stroke-width:1; stroke:black; " description="&lt;b&gt;ctg27_30&lt;/b&gt;&lt;br&gt;ctg27 30&lt;br&gt;Location: 61436 - 61625" locus_tag="ctg27_30" class="clusterblast-orf" id="dummy-1_q23_0_all"  />
<polygon points="654,40 658,40 663,35 658,30 654,30 654,40 " style="fill:#2315d8; stroke-width:1; stroke:black; " description="&lt;b&gt;ctg27_31&lt;/b&gt;&lt;br&gt;ctg27 31&lt;br&gt;Location: 61636 - 62341" locus_tag="ctg27_31" class="clusterblast-orf" id="dummy-1_q24_0_all"  />
<polygon points="663,40 663,40 668,35 663,30 663,30 663,40 " style="fill:#d81569; stroke-width:1; stroke:black; " description="&lt;b&gt;ctg27_32&lt;/b&gt;&lt;br&gt;ctg27 32&lt;br&gt;Location: 62337 - 62730" locus_tag="ctg27_32" class="clusterblast-orf" id="dummy-1_q25_0_all"  />
<polygon points="669,40 673,40 678,35 673,30 669,30 669,40 " style="fill:#a1d815; stroke-width:1; stroke:black; " description="&lt;b&gt;ctg27_33&lt;/b&gt;&lt;br&gt;ctg27 33&lt;br&gt;Location: 62800 - 63547" locus_tag="ctg27_33" class="clusterblast-orf" id="dummy-1_q26_0_all"  />
<polygon points="681,35 686,30 688,30 688,40 686,40 681,35 " style="fill:#15d8ae; stroke-width:1; stroke:black; " description="&lt;b&gt;ctg27_34&lt;/b&gt;&lt;br&gt;ctg27 34&lt;br&gt;Location: 63750 - 64335" locus_tag="ctg27_34" class="clusterblast-orf" id="dummy-1_q27_0_all"  />
<polygon points="701,35 706,30 730,30 730,40 706,40 701,35 " style="fill:#4d15d8; stroke-width:1; stroke:black; " description="&lt;b&gt;ctg27_35&lt;/b&gt;&lt;br&gt;ctg27 35&lt;br&gt;Location: 65417 - 67712" locus_tag="ctg27_35" class="clusterblast-orf" id="dummy-1_q28_0_all"  />
<polygon points="732,40 773,40 778,35 773,30 732,30 732,40 " style="fill:#d8153f; stroke-width:1; stroke:black; " description="&lt;b&gt;ctg27_36&lt;/b&gt;&lt;br&gt;ctg27 36&lt;br&gt;Location: 67876 - 71587" locus_tag="ctg27_36" class="clusterblast-orf" id="dummy-1_q29_0_all"  />
</g>
<g label="NZ_CP027762" description="NZ_CP027762 (2622687-2685327): Pseudomonas sp. LBUM920 chromosome, complete g... (87% of genes show similarity), NRPS" class="clusterblast-cluster"  >
<text x="5" y="70" class="clusterblast-acc"  >
<a xlink:href="https://antismash-db.secondarymetabolites.org/area.html?record=NZ_CP027762&amp;start=2622687&amp;end=2685327" target="_blank">NZ_CP027762 (2622687-2685327)</a>: Pseudomonas sp. LBUM920 chromosome, complete g... (87% of genes show similarity), NRPS</text>
<line x1="10" y1="85" x2="778.0" y2="85" style="stroke-width:1; stroke:grey; "  />
</g>
<g id="a1_000"  >
<polygon points="0,85 5,80 5,80 5,90 5,90 0,85 " style="fill:#7715d8; stroke-width:1; stroke:black; " description="&lt;b&gt;C4J83_RS12445&lt;/b&gt;&lt;br&gt;SRPBCC family protein&lt;br&gt;Location: 2685327 - 2684911&lt;br&gt;&lt;br&gt;&lt;b&gt;BlastP hit with ctg27_10&lt;/b&gt;&lt;br&gt;Percentage identity: 92&lt;br&gt;Percentage coverage: 99&lt;br&gt;BLAST bit score: 247&lt;br&gt;E-value: 4.51e-84" locus_tag="C4J83_RS12445" class="clusterblast-orf" id="dummy-1_h1_5_0"  />
</g>
<g id="a1_001"  >
<polygon points="5,85 10,80 15,80 15,90 10,90 5,85 " style="fill:#d83f15; stroke-width:1; stroke:black; " description="&lt;b&gt;C4J83_RS12440&lt;/b&gt;&lt;br&gt;SDR family oxidoreductase&lt;br&gt;Location: 2684881 - 2684084&lt;br&gt;&lt;br&gt;&lt;b&gt;BlastP hit with ctg27_11&lt;/b&gt;&lt;br&gt;Percentage identity: 96&lt;br&gt;Percentage coverage: 100&lt;br&gt;BLAST bit score: 476&lt;br&gt;E-value: 2.09e-170" locus_tag="C4J83_RS12440" class="clusterblast-orf" id="dummy-1_h1_5_1"  />
</g>
<g id="a1_002"  >
<polygon points="15,85 20,80 28,80 28,90 20,90 15,85 " style="fill:#4dd815; stroke-width:1; stroke:black; " description="&lt;b&gt;C4J83_RS12435&lt;/b&gt;&lt;br&gt;aldo/keto reductase&lt;br&gt;Location: 2684068 - 2683064&lt;br&gt;&lt;br&gt;&lt;b&gt;BlastP hit with ctg27_12&lt;/b&gt;&lt;br&gt;Percentage identity: 96&lt;br&gt;Percentage coverage: 100&lt;br&gt;BLAST bit score: 625&lt;br&gt;E-value: 3.14e-227" locus_tag="C4J83_RS12435" class="clusterblast-orf" id="dummy-1_h1_5_2"  />
</g>
<g id="a1_003"  >
<polygon points="29,90 35,90 40,85 35,80 29,80 29,90 " style="fill:#15aed8; stroke-width:1; stroke:black; " description="&lt;b&gt;C4J83_RS12430&lt;/b&gt;&lt;br&gt;LysR family transcriptional regulator&lt;br&gt;Location: 2682950 - 2682057&lt;br&gt;&lt;br&gt;&lt;b&gt;BlastP hit with ctg27_13&lt;/b&gt;&lt;br&gt;Percentage identity: 97&lt;br&gt;Percentage coverage: 100&lt;br&gt;BLAST bit score: 575&lt;br&gt;E-value: 8.21e-209" locus_tag="C4J83_RS12430" class="clusterblast-orf" id="dummy-1_h1_5_3"  />
</g>
<g id="a1_004"  >
<polygon points="42,85 47,80 58,80 58,90 47,90 42,85 " style="fill:#a115d8; stroke-width:1; stroke:black; " description="&lt;b&gt;C4J83_RS12425&lt;/b&gt;&lt;br&gt;FAD-binding oxidoreductase&lt;br&gt;Location: 2681950 - 2680655&lt;br&gt;&lt;br&gt;&lt;b&gt;BlastP hit with ctg27_14&lt;/b&gt;&lt;br&gt;Percentage identity: 93&lt;br&gt;Percentage coverage: 99&lt;br&gt;BLAST bit score: 800&lt;br&gt;E-value: 2.7e-293" locus_tag="C4J83_RS12425" class="clusterblast-orf" id="dummy-1_h1_5_4"  />
</g>
<g id="a1_005"  >
<polygon points="58,85 63,80 71,80 71,90 63,90 58,85 " style="fill:#d86915; stroke-width:1; stroke:black; " description="&lt;b&gt;C4J83_RS12420&lt;/b&gt;&lt;br&gt;polyamine ABC transporter substrate-binding protein&lt;br&gt;Location: 2680658 - 2679570&lt;br&gt;&lt;br&gt;&lt;b&gt;BlastP hit with ctg27_15&lt;/b&gt;&lt;br&gt;Percentage identity: 99&lt;br&gt;Percentage coverage: 64&lt;br&gt;BLAST bit score: 463&lt;br&gt;E-value: 1.95e-164" locus_tag="C4J83_RS12420" class="clusterblast-orf" id="dummy-1_h1_5_5"  />
</g>
<g id="a1_006"  >
<polygon points="71,85 76,80 88,80 88,90 76,90 71,85 " style="fill:#23d815; stroke-width:1; stroke:black; " description="&lt;b&gt;C4J83_RS12415&lt;/b&gt;&lt;br&gt;glutamine synthetase&lt;br&gt;Location: 2679546 - 2678188&lt;br&gt;&lt;br&gt;&lt;b&gt;BlastP hit with ctg27_16&lt;/b&gt;&lt;br&gt;Percentage identity: 98&lt;br&gt;Percentage coverage: 100&lt;br&gt;BLAST bit score: 909&lt;br&gt;E-value: 0.0" locus_tag="C4J83_RS12415" class="clusterblast-orf" id="dummy-1_h1_5_6"  />
</g>
<g id="a1_007"  >
<polygon points="90,90 96,90 101,85 96,80 90,80 90,90 " style="fill:#1585d8; stroke-width:1; stroke:black; " description="&lt;b&gt;C4J83_RS12410&lt;/b&gt;&lt;br&gt;helix-turn-helix domain-containing protein&lt;br&gt;Location: 2678048 - 2677152&lt;br&gt;&lt;br&gt;&lt;b&gt;BlastP hit with ctg27_17&lt;/b&gt;&lt;br&gt;Percentage identity: 97&lt;br&gt;Percentage coverage: 99&lt;br&gt;BLAST bit score: 518&lt;br&gt;E-value: 1.2e-186" locus_tag="C4J83_RS12410" class="clusterblast-orf" id="dummy-1_h1_5_7"  />
</g>
<g id="a1_008"  >
<polygon points="103,90 124,90 129,85 124,80 103,80 103,90 " style="fill:#ca15d8; stroke-width:1; stroke:black; " description="&lt;b&gt;C4J83_RS12405&lt;/b&gt;&lt;br&gt;TonB-dependent siderophore receptor&lt;br&gt;Location: 2677054 - 2674895&lt;br&gt;&lt;br&gt;&lt;b&gt;BlastP hit with ctg27_18&lt;/b&gt;&lt;br&gt;Percentage identity: 91&lt;br&gt;Percentage coverage: 101&lt;br&gt;BLAST bit score: 1313&lt;br&gt;E-value: 0.0" locus_tag="C4J83_RS12405" class="clusterblast-orf" id="dummy-1_h1_5_8"  />
</g>
<g id="a1_009"  >
<polygon points="129,85 134,80 143,80 143,90 134,90 129,85 " style="fill:white; stroke-width:1; stroke:black; " description="&lt;b&gt;C4J83_RS12400&lt;/b&gt;&lt;br&gt;MFS transporter&lt;br&gt;Location: 2674905 - 2673775" locus_tag="C4J83_RS12400" class="clusterblast-orf" id="dummy-1_h1_5_9"  />
</g>
<g id="a1_0010"  >
<polygon points="145,90 149,90 154,85 149,80 145,80 145,90 " style="fill:white; stroke-width:1; stroke:black; " description="&lt;b&gt;C4J83_RS12395&lt;/b&gt;&lt;br&gt;helix-turn-helix transcriptional regulator&lt;br&gt;Location: 2673677 - 2672907" locus_tag="C4J83_RS12395" class="clusterblast-orf" id="dummy-1_h1_5_10"  />
</g>
<g id="a1_0011"  >
<polygon points="154,85 159,80 160,80 160,90 159,90 154,85 " style="fill:white; stroke-width:1; stroke:black; " description="&lt;b&gt;C4J83_RS12390&lt;/b&gt;&lt;br&gt;carboxymuconolactone decarboxylase family protein&lt;br&gt;Location: 2672902 - 2672465" locus_tag="C4J83_RS12390" class="clusterblast-orf" id="dummy-1_h1_5_11"  />
</g>
<g id="a1_0012"  >
<polygon points="161,85 166,80 167,80 167,90 166,90 161,85 " style="fill:#d89315; stroke-width:1; stroke:black; " description="&lt;b&gt;C4J83_RS12385&lt;/b&gt;&lt;br&gt;Lrp/AsnC family transcriptional regulator&lt;br&gt;Location: 2672343 - 2671873&lt;br&gt;&lt;br&gt;&lt;b&gt;BlastP hit with ctg27_19&lt;/b&gt;&lt;br&gt;Percentage identity: 99&lt;br&gt;Percentage coverage: 100&lt;br&gt;BLAST bit score: 304&lt;br&gt;E-value: 3.57e-106" locus_tag="C4J83_RS12385" class="clusterblast-orf" id="dummy-1_h1_5_12"  />
</g>
<g id="a1_0013"  >
<polygon points="169,90 179,90 184,85 179,80 169,80 169,90 " style="fill:#15d831; stroke-width:1; stroke:black; " description="&lt;b&gt;C4J83_RS12380&lt;/b&gt;&lt;br&gt;methionine gamma-lyase&lt;br&gt;Location: 2671749 - 2670502&lt;br&gt;&lt;br&gt;&lt;b&gt;BlastP hit with ctg27_20&lt;/b&gt;&lt;br&gt;Percentage identity: 95&lt;br&gt;Percentage coverage: 100&lt;br&gt;BLAST bit score: 786&lt;br&gt;E-value: 4.61e-288" locus_tag="C4J83_RS12380" class="clusterblast-orf" id="dummy-1_h1_5_13"  />
</g>
<g id="a1_0014"  >
<polygon points="187,90 190,90 195,85 190,80 187,80 187,90 " style="fill:#155bd8; stroke-width:1; stroke:black; " description="&lt;b&gt;C4J83_RS12375&lt;/b&gt;&lt;br&gt;helix-turn-helix transcriptional regulator&lt;br&gt;Location: 2670269 - 2669592&lt;br&gt;&lt;br&gt;&lt;b&gt;BlastP hit with ctg27_21&lt;/b&gt;&lt;br&gt;Percentage identity: 92&lt;br&gt;Percentage coverage: 100&lt;br&gt;BLAST bit score: 396&lt;br&gt;E-value: 3.47e-140" locus_tag="C4J83_RS12375" class="clusterblast-orf" id="dummy-1_h1_5_14"  />
</g>
<g id="a1_0015"  >
<polygon points="196,85 201,80 221,80 221,90 201,90 196,85 " style="fill:#d815bc; stroke-width:1; stroke:black; " description="&lt;b&gt;C4J83_RS12370&lt;/b&gt;&lt;br&gt;MacB family efflux pump subunit&lt;br&gt;Location: 2669535 - 2667577&lt;br&gt;&lt;br&gt;&lt;b&gt;BlastP hit with ctg27_22&lt;/b&gt;&lt;br&gt;Percentage identity: 98&lt;br&gt;Percentage coverage: 100&lt;br&gt;BLAST bit score: 1216&lt;br&gt;E-value: 0.0" locus_tag="C4J83_RS12370" class="clusterblast-orf" id="dummy-1_h1_5_15"  />
</g>
<g id="a1_0016"  >
<polygon points="221,85 226,80 235,80 235,90 226,90 221,85 " style="fill:#d8bc15; stroke-width:1; stroke:black; " description="&lt;b&gt;C4J83_RS12365&lt;/b&gt;&lt;br&gt;macrolide transporter subunit MacA&lt;br&gt;Location: 2667573 - 2666422&lt;br&gt;&lt;br&gt;&lt;b&gt;BlastP hit with ctg27_23&lt;/b&gt;&lt;br&gt;Percentage identity: 94&lt;br&gt;Percentage coverage: 99&lt;br&gt;BLAST bit score: 663&lt;br&gt;E-value: 1.44e-240" locus_tag="C4J83_RS12365" class="clusterblast-orf" id="dummy-1_h1_5_16"  />
</g>
<g id="a1_0017"  >
<polygon points="241,85 246,80 382,80 382,90 246,90 241,85 " style="fill:#15d85b; stroke-width:1; stroke:black; " description="&lt;b&gt;C4J83_RS12360&lt;/b&gt;&lt;br&gt;amino acid adenylation domain-containing protein&lt;br&gt;Location: 2665897 - 2654573&lt;br&gt;&lt;br&gt;&lt;b&gt;BlastP hit with ctg27_24&lt;/b&gt;&lt;br&gt;Percentage identity: 91&lt;br&gt;Percentage coverage: 100&lt;br&gt;BLAST bit score: 6787&lt;br&gt;E-value: 0.0&lt;br&gt;&lt;br&gt;&lt;b&gt;BlastP hit with ctg27_25&lt;/b&gt;&lt;br&gt;Percentage identity: 61&lt;br&gt;Percentage coverage: 50&lt;br&gt;BLAST bit score: 2422&lt;br&gt;E-value: 0.0" locus_tag="C4J83_RS12360" class="clusterblast-orf" id="dummy-1_h1_5_17"  />
</g>
<g id="a1_0018"  >
<polygon points="382,85 387,80 543,80 543,90 387,90 382,85 " style="fill:#15d85b; stroke-width:1; stroke:black; " description="&lt;b&gt;C4J83_RS12355&lt;/b&gt;&lt;br&gt;amino acid adenylation domain-containing protein&lt;br&gt;Location: 2654576 - 2641671&lt;br&gt;&lt;br&gt;&lt;b&gt;BlastP hit with ctg27_24&lt;/b&gt;&lt;br&gt;Percentage identity: 60&lt;br&gt;Percentage coverage: 57&lt;br&gt;BLAST bit score: 2402&lt;br&gt;E-value: 0.0&lt;br&gt;&lt;br&gt;&lt;b&gt;BlastP hit with ctg27_25&lt;/b&gt;&lt;br&gt;Percentage identity: 91&lt;br&gt;Percentage coverage: 100&lt;br&gt;BLAST bit score: 7783&lt;br&gt;E-value: 0.0" locus_tag="C4J83_RS12355" class="clusterblast-orf" id="dummy-1_h1_5_18"  />
</g>
<g id="a1_0019"  >
<polygon points="546,85 551,80 555,80 555,90 551,90 546,85 " style="fill:#1531d8; stroke-width:1; stroke:black; " description="&lt;b&gt;C4J83_RS12350&lt;/b&gt;&lt;br&gt;VWA domain-containing protein&lt;br&gt;Location: 2641456 - 2640725&lt;br&gt;&lt;br&gt;&lt;b&gt;BlastP hit with ctg27_26&lt;/b&gt;&lt;br&gt;Percentage identity: 89&lt;br&gt;Percentage coverage: 98&lt;br&gt;BLAST bit score: 310&lt;br&gt;E-value: 7.29e-107" locus_tag="C4J83_RS12350" class="clusterblast-orf" id="dummy-1_h1_5_19"  />
</g>
<g id="a1_0020"  >
<polygon points="554,85 559,80 566,80 566,90 559,90 554,85 " style="fill:#d81593; stroke-width:1; stroke:black; " description="&lt;b&gt;C4J83_RS12345&lt;/b&gt;&lt;br&gt;AAA family ATPase&lt;br&gt;Location: 2640800 - 2639802&lt;br&gt;&lt;br&gt;&lt;b&gt;BlastP hit with ctg27_27&lt;/b&gt;&lt;br&gt;Percentage identity: 94&lt;br&gt;Percentage coverage: 100&lt;br&gt;BLAST bit score: 617&lt;br&gt;E-value: 3.01e-224" locus_tag="C4J83_RS12345" class="clusterblast-orf" id="dummy-1_h1_5_20"  />
</g>
<g id="a1_0021"  >
<polygon points="570,85 575,80 617,80 617,90 575,90 570,85 " style="fill:#d81593; stroke-width:1; stroke:black; " description="&lt;b&gt;C4J83_RS12340&lt;/b&gt;&lt;br&gt;cobaltochelatase subunit CobN&lt;br&gt;Location: 2639511 - 2635750&lt;br&gt;&lt;br&gt;&lt;b&gt;BlastP hit with ctg27_28&lt;/b&gt;&lt;br&gt;Percentage identity: 96&lt;br&gt;Percentage coverage: 100&lt;br&gt;BLAST bit score: 2448&lt;br&gt;E-value: 0.0" locus_tag="C4J83_RS12340" class="clusterblast-orf" id="dummy-1_h1_5_21"  />
</g>
<g id="a1_0022"  >
<polygon points="617,85 622,80 630,80 630,90 622,90 617,85 " style="fill:#cad815; stroke-width:1; stroke:black; " description="&lt;b&gt;C4J83_RS12335&lt;/b&gt;&lt;br&gt;cobalamin biosynthesis protein CobW&lt;br&gt;Location: 2635746 - 2634679&lt;br&gt;&lt;br&gt;&lt;b&gt;BlastP hit with ctg27_29&lt;/b&gt;&lt;br&gt;Percentage identity: 99&lt;br&gt;Percentage coverage: 101&lt;br&gt;BLAST bit score: 646&lt;br&gt;E-value: 6.12e-235" locus_tag="C4J83_RS12335" class="clusterblast-orf" id="dummy-1_h1_5_22"  />
</g>
<g id="a1_0023"  >
<polygon points="652,90 654,85 652,80 652,90 " style="fill:#15d885; stroke-width:1; stroke:black; " description="&lt;b&gt;C4J83_RS12320&lt;/b&gt;&lt;br&gt;CbtB-domain containing protein&lt;br&gt;Location: 2632923 - 2632735&lt;br&gt;&lt;br&gt;&lt;b&gt;BlastP hit with ctg27_30&lt;/b&gt;&lt;br&gt;Percentage identity: 92&lt;br&gt;Percentage coverage: 100&lt;br&gt;BLAST bit score: 110&lt;br&gt;E-value: 4.16e-32" locus_tag="C4J83_RS12320" class="clusterblast-orf" id="dummy-1_h1_5_23"  />
</g>
<g id="a1_0024"  >
<polygon points="655,90 658,90 663,85 658,80 655,80 655,90 " style="fill:#2315d8; stroke-width:1; stroke:black; " description="&lt;b&gt;C4J83_RS12315&lt;/b&gt;&lt;br&gt;CbtA family protein&lt;br&gt;Location: 2632723 - 2632016&lt;br&gt;&lt;br&gt;&lt;b&gt;BlastP hit with ctg27_31&lt;/b&gt;&lt;br&gt;Percentage identity: 93&lt;br&gt;Percentage coverage: 100&lt;br&gt;BLAST bit score: 422&lt;br&gt;E-value: 4.39e-150" locus_tag="C4J83_RS12315" class="clusterblast-orf" id="dummy-1_h1_5_24"  />
</g>
<g id="a1_0025"  >
<polygon points="663,90 663,90 668,85 663,80 663,80 663,90 " style="fill:#d81569; stroke-width:1; stroke:black; " description="&lt;b&gt;C4J83_RS12310&lt;/b&gt;&lt;br&gt;cobalamin biosynthesis protein&lt;br&gt;Location: 2632019 - 2631627&lt;br&gt;&lt;br&gt;&lt;b&gt;BlastP hit with ctg27_32&lt;/b&gt;&lt;br&gt;Percentage identity: 89&lt;br&gt;Percentage coverage: 98&lt;br&gt;BLAST bit score: 218&lt;br&gt;E-value: 1.05e-72" locus_tag="C4J83_RS12310" class="clusterblast-orf" id="dummy-1_h1_5_25"  />
</g>
<g id="a1_0026"  >
<polygon points="669,90 673,90 678,85 673,80 669,80 669,90 " style="fill:#a1d815; stroke-width:1; stroke:black; " description="&lt;b&gt;C4J83_RS12305&lt;/b&gt;&lt;br&gt;precorrin-4 C(11)-methyltransferase&lt;br&gt;Location: 2631557 - 2630811&lt;br&gt;&lt;br&gt;&lt;b&gt;BlastP hit with ctg27_33&lt;/b&gt;&lt;br&gt;Percentage identity: 96&lt;br&gt;Percentage coverage: 100&lt;br&gt;BLAST bit score: 474&lt;br&gt;E-value: 3.27e-170" locus_tag="C4J83_RS12305" class="clusterblast-orf" id="dummy-1_h1_5_26"  />
</g>
<g id="a1_0027"  >
<polygon points="681,85 686,80 688,80 688,90 686,90 681,85 " style="fill:#15d8ae; stroke-width:1; stroke:black; " description="&lt;b&gt;C4J83_RS12300&lt;/b&gt;&lt;br&gt;Fe-S biogenesis protein NfuA&lt;br&gt;Location: 2630601 - 2630017&lt;br&gt;&lt;br&gt;&lt;b&gt;BlastP hit with ctg27_34&lt;/b&gt;&lt;br&gt;Percentage identity: 100&lt;br&gt;Percentage coverage: 100&lt;br&gt;BLAST bit score: 394&lt;br&gt;E-value: 2.68e-140" locus_tag="C4J83_RS12300" class="clusterblast-orf" id="dummy-1_h1_5_27"  />
</g>
<g id="a1_0028"  >
<polygon points="689,85 694,80 702,80 702,90 694,90 689,85 " style="fill:white; stroke-width:1; stroke:black; " description="&lt;b&gt;C4J83_RS12295&lt;/b&gt;&lt;br&gt;acyltransferase&lt;br&gt;Location: 2629957 - 2628935" locus_tag="C4J83_RS12295" class="clusterblast-orf" id="dummy-1_h1_5_28"  />
</g>
<g id="a1_0029"  >
<polygon points="703,85 708,80 731,80 731,90 708,90 703,85 " style="fill:#4d15d8; stroke-width:1; stroke:black; " description="&lt;b&gt;C4J83_RS12290&lt;/b&gt;&lt;br&gt;fatty acid cis/trans isomerase&lt;br&gt;Location: 2628870 - 2626564&lt;br&gt;&lt;br&gt;&lt;b&gt;BlastP hit with ctg27_35&lt;/b&gt;&lt;br&gt;Percentage identity: 88&lt;br&gt;Percentage coverage: 101&lt;br&gt;BLAST bit score: 1405&lt;br&gt;E-value: 0.0" locus_tag="C4J83_RS12290" class="clusterblast-orf" id="dummy-1_h1_5_29"  />
</g>
<g id="a1_0030"  >
<polygon points="733,90 775,90 780,85 775,80 733,80 733,90 " style="fill:#d8153f; stroke-width:1; stroke:black; " description="&lt;b&gt;C4J83_RS12280&lt;/b&gt;&lt;br&gt;methionine synthase&lt;br&gt;Location: 2626398 - 2622688&lt;br&gt;&lt;br&gt;&lt;b&gt;BlastP hit with ctg27_36&lt;/b&gt;&lt;br&gt;Percentage identity: 98&lt;br&gt;Percentage coverage: 100&lt;br&gt;BLAST bit score: 2429&lt;br&gt;E-value: 0.0" locus_tag="C4J83_RS12280" class="clusterblast-orf" id="dummy-1_h1_5_30"  />
</g>
</svg>
