<svg xmlns="http://www.w3.org/2000/svg" xmlns:xlink="http://www.w3.org/1999/xlink" version="1.1" x="0" y="0" height="230" width="800" viewBox="0 0 800 230" preserveAspectRatio="none"  >
<g label="Query sequence" class="clusterblast-cluster"  >
<text x="5" y="20" class="clusterblast-acc"  >
Query sequence</text>
<line x1="10" y1="35" x2="778.0" y2="35" style="stroke-width:1; stroke:grey; "  />
<polygon points="48,40 159,40 164,35 159,30 48,30 48,40 " style="fill:#d81515; stroke-width:1; stroke:black; " description="&lt;b&gt;ctg2_26&lt;/b&gt;&lt;br&gt;ctg2 26&lt;br&gt;Location: 33091 - 35092" locus_tag="ctg2_26" class="clusterblast-orf" id="dummy-1_q0_0_all"  />
<polygon points="172,40 270,40 275,35 270,30 172,30 172,40 " style="fill:#3cd815; stroke-width:1; stroke:black; " description="&lt;b&gt;ctg2_27&lt;/b&gt;&lt;br&gt;ctg2 27&lt;br&gt;Location: 35227 - 37000" locus_tag="ctg2_27" class="clusterblast-orf" id="dummy-1_q1_0_all"  />
<polygon points="275,40 371,40 376,35 371,30 275,30 275,40 " style="fill:#1563d8; stroke-width:1; stroke:black; " description="&lt;b&gt;ctg2_28&lt;/b&gt;&lt;br&gt;ctg2 28&lt;br&gt;Location: 37003 - 38752" locus_tag="ctg2_28" class="clusterblast-orf" id="dummy-1_q2_0_all"  />
<polygon points="386,40 450,40 455,35 450,30 386,30 386,40 " style="fill:#b115d8; stroke-width:1; stroke:black; " description="&lt;b&gt;ctg2_29&lt;/b&gt;&lt;br&gt;ctg2 29&lt;br&gt;Location: 38923 - 40108" locus_tag="ctg2_29" class="clusterblast-orf" id="dummy-1_q3_0_all"  />
<polygon points="458,40 466,40 471,35 466,30 458,30 458,40 " style="fill:#d88a15; stroke-width:1; stroke:black; " description="&lt;b&gt;ctg2_30&lt;/b&gt;&lt;br&gt;ctg2 30&lt;br&gt;Location: 40167 - 40395" locus_tag="ctg2_30" class="clusterblast-orf" id="dummy-1_q4_0_all"  />
<polygon points="472,35 477,30 483,30 483,40 477,40 472,35 " style="fill:#15d863; stroke-width:1; stroke:black; " description="&lt;b&gt;ctg2_31&lt;/b&gt;&lt;br&gt;ctg2 31&lt;br&gt;Location: 40402 - 40606" locus_tag="ctg2_31" class="clusterblast-orf" id="dummy-1_q5_0_all"  />
<polygon points="497,35 502,30 545,30 545,40 502,40 497,35 " style="fill:#3c15d8; stroke-width:1; stroke:black; " description="&lt;b&gt;ctg2_32&lt;/b&gt;&lt;br&gt;ctg2 32&lt;br&gt;Location: 40846 - 41662" locus_tag="ctg2_32" class="clusterblast-orf" id="dummy-1_q6_0_all"  />
<polygon points="564,40 568,40 573,35 568,30 564,30 564,40 " style="fill:#d8158a; stroke-width:1; stroke:black; " description="&lt;b&gt;ctg2_33&lt;/b&gt;&lt;br&gt;ctg2 33&lt;br&gt;Location: 41992 - 42145" locus_tag="ctg2_33" class="clusterblast-orf" id="dummy-1_q7_0_all"  />
<polygon points="576,35 581,30 697,30 697,40 581,40 576,35 " style="fill:#b1d815; stroke-width:1; stroke:black; " description="&lt;b&gt;ctg2_34&lt;/b&gt;&lt;br&gt;ctg2 34&lt;br&gt;Location: 42199 - 44287" locus_tag="ctg2_34" class="clusterblast-orf" id="dummy-1_q8_0_all"  />
<polygon points="721,35 726,30 732,30 732,40 726,40 721,35 " style="fill:#15d8d8; stroke-width:1; stroke:black; " description="&lt;b&gt;ctg2_35&lt;/b&gt;&lt;br&gt;ctg2 35&lt;br&gt;Location: 44704 - 44896" locus_tag="ctg2_35" class="clusterblast-orf" id="dummy-1_q9_0_all"  />
</g>
<g label="NZ_CP019428" description="NZ_CP019428 (4715586-4730429): Pseudomonas sp. R76 chromosome, complete genome (90% of genes show similarity), NAGGN" class="clusterblast-cluster"  >
<text x="5" y="70" class="clusterblast-acc"  >
<a xlink:href="https://antismash-db.secondarymetabolites.org/area.html?record=NZ_CP019428&amp;start=4715586&amp;end=4730429" target="_blank">NZ_CP019428 (4715586-4730429)</a>: Pseudomonas sp. R76 chromosome, complete genome (90% of genes show similarity), NAGGN</text>
<line x1="10" y1="85" x2="778.0" y2="85" style="stroke-width:1; stroke:grey; "  />
</g>
<g id="a1_000"  >
<polygon points="0,85 5,80 87,80 87,90 5,90 0,85 " style="fill:white; stroke-width:1; stroke:black; " description="&lt;b&gt;PspR76_RS21190&lt;/b&gt;&lt;br&gt;polyphosphate:AMP phosphotransferase&lt;br&gt;Location: 4716783 - 4718297" locus_tag="PspR76_RS21190" class="clusterblast-orf" id="dummy-1_h1_4_0"  />
</g>
<g id="a1_001"  >
<polygon points="96,90 206,90 211,85 206,80 96,80 96,90 " style="fill:#d81515; stroke-width:1; stroke:black; " description="&lt;b&gt;PspR76_RS21195&lt;/b&gt;&lt;br&gt;bifunctional tRNA (5-methylaminomethyl-2-thiouridine)(34)-methyltransferase MnmD/FAD-dependent 5-carboxymethylaminomethyl-2-thiouridine(34) oxidoreductase MnmC&lt;br&gt;Location: 4718452 - 4720443&lt;br&gt;&lt;br&gt;&lt;b&gt;BlastP hit with ctg2_26&lt;/b&gt;&lt;br&gt;Percentage identity: 93&lt;br&gt;Percentage coverage: 100&lt;br&gt;BLAST bit score: 1253&lt;br&gt;E-value: 0.0" locus_tag="PspR76_RS21195" class="clusterblast-orf" id="dummy-1_h1_4_1"  />
</g>
<g id="a1_002"  >
<polygon points="220,90 317,90 322,85 317,80 220,80 220,90 " style="fill:#3cd815; stroke-width:1; stroke:black; " description="&lt;b&gt;PspR76_RS21200&lt;/b&gt;&lt;br&gt;N-acetylglutaminylglutamine amidotransferase&lt;br&gt;Location: 4720587 - 4722359&lt;br&gt;&lt;br&gt;&lt;b&gt;BlastP hit with ctg2_27&lt;/b&gt;&lt;br&gt;Percentage identity: 99&lt;br&gt;Percentage coverage: 100&lt;br&gt;BLAST bit score: 1185&lt;br&gt;E-value: 0.0" locus_tag="PspR76_RS21200" class="clusterblast-orf" id="dummy-1_h1_4_2"  />
</g>
<g id="a1_003"  >
<polygon points="323,90 419,90 424,85 419,80 323,80 323,90 " style="fill:#1563d8; stroke-width:1; stroke:black; " description="&lt;b&gt;PspR76_RS21205&lt;/b&gt;&lt;br&gt;N-acetylglutaminylglutamine synthetase&lt;br&gt;Location: 4722363 - 4724108&lt;br&gt;&lt;br&gt;&lt;b&gt;BlastP hit with ctg2_28&lt;/b&gt;&lt;br&gt;Percentage identity: 99&lt;br&gt;Percentage coverage: 100&lt;br&gt;BLAST bit score: 1150&lt;br&gt;E-value: 0.0" locus_tag="PspR76_RS21205" class="clusterblast-orf" id="dummy-1_h1_4_3"  />
</g>
<g id="a1_004"  >
<polygon points="432,90 495,90 500,85 495,80 432,80 432,90 " style="fill:#b115d8; stroke-width:1; stroke:black; " description="&lt;b&gt;PspR76_RS21210&lt;/b&gt;&lt;br&gt;osmoprotectant NAGGN system M42 family peptidase&lt;br&gt;Location: 4724245 - 4725429&lt;br&gt;&lt;br&gt;&lt;b&gt;BlastP hit with ctg2_29&lt;/b&gt;&lt;br&gt;Percentage identity: 99&lt;br&gt;Percentage coverage: 100&lt;br&gt;BLAST bit score: 786&lt;br&gt;E-value: 6.54e-289" locus_tag="PspR76_RS21210" class="clusterblast-orf" id="dummy-1_h1_4_4"  />
</g>
<g id="a1_005"  >
<polygon points="505,90 513,90 518,85 513,80 505,80 505,90 " style="fill:#d88a15; stroke-width:1; stroke:black; " description="&lt;b&gt;PspR76_RS21215&lt;/b&gt;&lt;br&gt;YheU family protein&lt;br&gt;Location: 4725505 - 4725732&lt;br&gt;&lt;br&gt;&lt;b&gt;BlastP hit with ctg2_30&lt;/b&gt;&lt;br&gt;Percentage identity: 99&lt;br&gt;Percentage coverage: 100&lt;br&gt;BLAST bit score: 153&lt;br&gt;E-value: 8.24e-49" locus_tag="PspR76_RS21215" class="clusterblast-orf" id="dummy-1_h1_4_5"  />
</g>
<g id="a1_006"  >
<polygon points="518,85 523,80 529,80 529,90 523,90 518,85 " style="fill:#15d863; stroke-width:1; stroke:black; " description="&lt;b&gt;PspR76_RS21220&lt;/b&gt;&lt;br&gt;carbon storage regulator CsrA&lt;br&gt;Location: 4725740 - 4725931&lt;br&gt;&lt;br&gt;&lt;b&gt;BlastP hit with ctg2_31&lt;/b&gt;&lt;br&gt;Percentage identity: 83&lt;br&gt;Percentage coverage: 85&lt;br&gt;BLAST bit score: 96&lt;br&gt;E-value: 3.32e-26" locus_tag="PspR76_RS21220" class="clusterblast-orf" id="dummy-1_h1_4_6"  />
</g>
<g id="a1_007"  >
<polygon points="543,85 548,80 590,80 590,90 548,90 543,85 " style="fill:#3c15d8; stroke-width:1; stroke:black; " description="&lt;b&gt;PspR76_RS21225&lt;/b&gt;&lt;br&gt;SDR family oxidoreductase&lt;br&gt;Location: 4726173 - 4726988&lt;br&gt;&lt;br&gt;&lt;b&gt;BlastP hit with ctg2_32&lt;/b&gt;&lt;br&gt;Percentage identity: 98&lt;br&gt;Percentage coverage: 100&lt;br&gt;BLAST bit score: 528&lt;br&gt;E-value: 6.17e-191" locus_tag="PspR76_RS21225" class="clusterblast-orf" id="dummy-1_h1_4_7"  />
</g>
<g id="a1_008"  >
<polygon points="610,90 613,90 618,85 613,80 610,80 610,90 " style="fill:#d8158a; stroke-width:1; stroke:black; " description="&lt;b&gt;PspR76_RS21230&lt;/b&gt;&lt;br&gt;DUF3309 domain-containing protein&lt;br&gt;Location: 4727317 - 4727469&lt;br&gt;&lt;br&gt;&lt;b&gt;BlastP hit with ctg2_33&lt;/b&gt;&lt;br&gt;Percentage identity: 98&lt;br&gt;Percentage coverage: 100&lt;br&gt;BLAST bit score: 81&lt;br&gt;E-value: 1.06e-20" locus_tag="PspR76_RS21230" class="clusterblast-orf" id="dummy-1_h1_4_8"  />
</g>
<g id="a1_009"  >
<polygon points="622,85 627,80 742,80 742,90 627,90 622,85 " style="fill:#b1d815; stroke-width:1; stroke:black; " description="&lt;b&gt;PspR76_RS21235&lt;/b&gt;&lt;br&gt;sulfatase-like hydrolase/transferase&lt;br&gt;Location: 4727526 - 4729613&lt;br&gt;&lt;br&gt;&lt;b&gt;BlastP hit with ctg2_34&lt;/b&gt;&lt;br&gt;Percentage identity: 98&lt;br&gt;Percentage coverage: 100&lt;br&gt;BLAST bit score: 1379&lt;br&gt;E-value: 0.0" locus_tag="PspR76_RS21235" class="clusterblast-orf" id="dummy-1_h1_4_9"  />
</g>
<g id="a1_0010"  >
<polygon points="768,85 773,80 780,80 780,90 773,90 768,85 " style="fill:#15d8d8; stroke-width:1; stroke:black; " description="&lt;b&gt;PspR76_RS21240&lt;/b&gt;&lt;br&gt;PLDc N-terminal domain-containing protein&lt;br&gt;Location: 4730061 - 4730252&lt;br&gt;&lt;br&gt;&lt;b&gt;BlastP hit with ctg2_35&lt;/b&gt;&lt;br&gt;Percentage identity: 94&lt;br&gt;Percentage coverage: 100&lt;br&gt;BLAST bit score: 115&lt;br&gt;E-value: 4.61e-34" locus_tag="PspR76_RS21240" class="clusterblast-orf" id="dummy-1_h1_4_10"  />
</g>
</svg>
