<svg xmlns="http://www.w3.org/2000/svg" xmlns:xlink="http://www.w3.org/1999/xlink" version="1.1" x="0" y="0" height="200" width="800" viewBox="0 0 800 200" preserveAspectRatio="none"  >
<g label="Query sequence" class="clusterblast-cluster"  >
<text x="5" y="20" class="clusterblast-acc"  >
Query sequence</text>
<line x1="10" y1="35" x2="778.0" y2="35" style="stroke-width:1; stroke:grey; "  />
<polygon points="0,40 8,40 13,35 8,30 0,30 0,40 " style="fill:white; stroke-width:1; stroke:black; " description="&lt;b&gt;ctg9_7&lt;/b&gt;&lt;br&gt;ctg9 7&lt;br&gt;Location: 9961 - 10618" locus_tag="ctg9_7" class="clusterblast-orf" id="knownclusterblast-1_q0_0_all"  />
<polygon points="13,40 18,40 23,35 18,30 13,30 13,40 " style="fill:white; stroke-width:1; stroke:black; " description="&lt;b&gt;ctg9_8&lt;/b&gt;&lt;br&gt;ctg9 8&lt;br&gt;Location: 10614 - 11166" locus_tag="ctg9_8" class="clusterblast-orf" id="knownclusterblast-1_q1_0_all"  />
<polygon points="23,40 38,40 43,35 38,30 23,30 23,40 " style="fill:white; stroke-width:1; stroke:black; " description="&lt;b&gt;ctg9_9&lt;/b&gt;&lt;br&gt;ctg9 9&lt;br&gt;Location: 11162 - 12134" locus_tag="ctg9_9" class="clusterblast-orf" id="knownclusterblast-1_q2_0_all"  />
<polygon points="43,40 65,40 70,35 65,30 43,30 43,40 " style="fill:white; stroke-width:1; stroke:black; " description="&lt;b&gt;ctg9_10&lt;/b&gt;&lt;br&gt;ctg9 10&lt;br&gt;Location: 12146 - 13532" locus_tag="ctg9_10" class="clusterblast-orf" id="knownclusterblast-1_q3_0_all"  />
<polygon points="71,40 76,40 81,35 76,30 71,30 71,40 " style="fill:white; stroke-width:1; stroke:black; " description="&lt;b&gt;ctg9_11&lt;/b&gt;&lt;br&gt;ctg9 11&lt;br&gt;Location: 13563 - 14055" locus_tag="ctg9_11" class="clusterblast-orf" id="knownclusterblast-1_q4_0_all"  />
<polygon points="83,40 100,40 105,35 100,30 83,30 83,40 " style="fill:white; stroke-width:1; stroke:black; " description="&lt;b&gt;ctg9_12&lt;/b&gt;&lt;br&gt;ctg9 12&lt;br&gt;Location: 14179 - 15280" locus_tag="ctg9_12" class="clusterblast-orf" id="knownclusterblast-1_q5_0_all"  />
<polygon points="105,40 131,40 136,35 131,30 105,30 105,40 " style="fill:white; stroke-width:1; stroke:black; " description="&lt;b&gt;ctg9_13&lt;/b&gt;&lt;br&gt;ctg9 13&lt;br&gt;Location: 15290 - 16859" locus_tag="ctg9_13" class="clusterblast-orf" id="knownclusterblast-1_q6_0_all"  />
<polygon points="143,40 226,40 231,35 226,30 143,30 143,40 " style="fill:white; stroke-width:1; stroke:black; " description="&lt;b&gt;ctg9_14&lt;/b&gt;&lt;br&gt;ctg9 14&lt;br&gt;Location: 17211 - 21657" locus_tag="ctg9_14" class="clusterblast-orf" id="knownclusterblast-1_q7_0_all"  />
<polygon points="233,40 256,40 261,35 256,30 233,30 233,40 " style="fill:white; stroke-width:1; stroke:black; " description="&lt;b&gt;ctg9_15&lt;/b&gt;&lt;br&gt;ctg9 15&lt;br&gt;Location: 21781 - 23200" locus_tag="ctg9_15" class="clusterblast-orf" id="knownclusterblast-1_q8_0_all"  />
<polygon points="266,40 282,40 287,35 282,30 266,30 266,40 " style="fill:white; stroke-width:1; stroke:black; " description="&lt;b&gt;ctg9_16&lt;/b&gt;&lt;br&gt;ctg9 16&lt;br&gt;Location: 23453 - 24521" locus_tag="ctg9_16" class="clusterblast-orf" id="knownclusterblast-1_q9_0_all"  />
<polygon points="292,35 297,30 317,30 317,40 297,40 292,35 " style="fill:white; stroke-width:1; stroke:black; " description="&lt;b&gt;ctg9_17&lt;/b&gt;&lt;br&gt;ctg9 17&lt;br&gt;Location: 24754 - 26029" locus_tag="ctg9_17" class="clusterblast-orf" id="knownclusterblast-1_q10_0_all"  />
<polygon points="319,40 332,40 337,35 332,30 319,30 319,40 " style="fill:white; stroke-width:1; stroke:black; " description="&lt;b&gt;ctg9_18&lt;/b&gt;&lt;br&gt;ctg9 18&lt;br&gt;Location: 26153 - 27047" locus_tag="ctg9_18" class="clusterblast-orf" id="knownclusterblast-1_q11_0_all"  />
<polygon points="343,35 348,30 352,30 352,40 348,40 343,35 " style="fill:white; stroke-width:1; stroke:black; " description="&lt;b&gt;ctg9_19&lt;/b&gt;&lt;br&gt;ctg9 19&lt;br&gt;Location: 27346 - 27796" locus_tag="ctg9_19" class="clusterblast-orf" id="knownclusterblast-1_q12_0_all"  />
<polygon points="352,35 357,30 376,30 376,40 357,40 352,35 " style="fill:#d81515; stroke-width:1; stroke:black; " description="&lt;b&gt;ctg9_20&lt;/b&gt;&lt;br&gt;ctg9 20&lt;br&gt;Location: 27823 - 29050" locus_tag="ctg9_20" class="clusterblast-orf" id="knownclusterblast-1_q13_0_all"  />
<polygon points="376,35 381,30 391,30 391,40 381,40 376,35 " style="fill:#3cd815; stroke-width:1; stroke:black; " description="&lt;b&gt;ctg9_21&lt;/b&gt;&lt;br&gt;ctg9 21&lt;br&gt;Location: 29049 - 29778" locus_tag="ctg9_21" class="clusterblast-orf" id="knownclusterblast-1_q14_0_all"  />
<polygon points="391,35 396,30 400,30 400,40 396,40 391,35 " style="fill:white; stroke-width:1; stroke:black; " description="&lt;b&gt;ctg9_22&lt;/b&gt;&lt;br&gt;ctg9 22&lt;br&gt;Location: 29774 - 30236" locus_tag="ctg9_22" class="clusterblast-orf" id="knownclusterblast-1_q15_0_all"  />
<polygon points="400,35 405,30 423,30 423,40 405,40 400,35 " style="fill:#1563d8; stroke-width:1; stroke:black; " description="&lt;b&gt;ctg9_23&lt;/b&gt;&lt;br&gt;ctg9 23&lt;br&gt;Location: 30232 - 31399" locus_tag="ctg9_23" class="clusterblast-orf" id="knownclusterblast-1_q16_0_all"  />
<polygon points="423,35 428,30 432,30 432,40 428,40 423,35 " style="fill:white; stroke-width:1; stroke:black; " description="&lt;b&gt;ctg9_24&lt;/b&gt;&lt;br&gt;ctg9 24&lt;br&gt;Location: 31395 - 31878" locus_tag="ctg9_24" class="clusterblast-orf" id="knownclusterblast-1_q17_0_all"  />
<polygon points="432,35 437,30 447,30 447,40 437,40 432,35 " style="fill:white; stroke-width:1; stroke:black; " description="&lt;b&gt;ctg9_25&lt;/b&gt;&lt;br&gt;ctg9 25&lt;br&gt;Location: 31874 - 32609" locus_tag="ctg9_25" class="clusterblast-orf" id="knownclusterblast-1_q18_0_all"  />
<polygon points="447,35 452,30 471,30 471,40 452,40 447,35 " style="fill:#b115d8; stroke-width:1; stroke:black; " description="&lt;b&gt;ctg9_26&lt;/b&gt;&lt;br&gt;ctg9 26&lt;br&gt;Location: 32605 - 33853" locus_tag="ctg9_26" class="clusterblast-orf" id="knownclusterblast-1_q19_0_all"  />
<polygon points="472,35 477,30 518,30 518,40 477,40 472,35 " style="fill:white; stroke-width:1; stroke:black; " description="&lt;b&gt;ctg9_27&lt;/b&gt;&lt;br&gt;ctg9 27&lt;br&gt;Location: 33886 - 36199" locus_tag="ctg9_27" class="clusterblast-orf" id="knownclusterblast-1_q20_0_all"  />
<polygon points="517,35 522,30 530,30 530,40 522,40 517,35 " style="fill:white; stroke-width:1; stroke:black; " description="&lt;b&gt;ctg9_28&lt;/b&gt;&lt;br&gt;ctg9 28&lt;br&gt;Location: 36188 - 36848" locus_tag="ctg9_28" class="clusterblast-orf" id="knownclusterblast-1_q21_0_all"  />
<polygon points="531,35 536,30 539,30 539,40 536,40 531,35 " style="fill:#d88a15; stroke-width:1; stroke:black; " description="&lt;b&gt;ctg9_29&lt;/b&gt;&lt;br&gt;ctg9 29&lt;br&gt;Location: 36868 - 37294" locus_tag="ctg9_29" class="clusterblast-orf" id="knownclusterblast-1_q22_0_all"  />
<polygon points="539,35 544,30 569,30 569,40 544,40 539,35 " style="fill:#15d863; stroke-width:1; stroke:black; " description="&lt;b&gt;ctg9_30&lt;/b&gt;&lt;br&gt;ctg9 30&lt;br&gt;Location: 37286 - 38828" locus_tag="ctg9_30" class="clusterblast-orf" id="knownclusterblast-1_q23_0_all"  />
<polygon points="569,35 574,30 588,30 588,40 574,40 569,35 " style="fill:white; stroke-width:1; stroke:black; " description="&lt;b&gt;ctg9_31&lt;/b&gt;&lt;br&gt;ctg9 31&lt;br&gt;Location: 38811 - 39747" locus_tag="ctg9_31" class="clusterblast-orf" id="knownclusterblast-1_q24_0_all"  />
<polygon points="588,35 593,30 602,30 602,40 593,40 588,35 " style="fill:#3c15d8; stroke-width:1; stroke:black; " description="&lt;b&gt;ctg9_32&lt;/b&gt;&lt;br&gt;ctg9 32&lt;br&gt;Location: 39743 - 40478" locus_tag="ctg9_32" class="clusterblast-orf" id="knownclusterblast-1_q25_0_all"  />
<polygon points="602,35 607,30 635,30 635,40 607,40 602,35 " style="fill:white; stroke-width:1; stroke:black; " description="&lt;b&gt;ctg9_33&lt;/b&gt;&lt;br&gt;ctg9 33&lt;br&gt;Location: 40470 - 42141" locus_tag="ctg9_33" class="clusterblast-orf" id="knownclusterblast-1_q26_0_all"  />
<polygon points="635,35 640,30 646,30 646,40 640,40 635,35 " style="fill:#d8158a; stroke-width:1; stroke:black; " description="&lt;b&gt;ctg9_34&lt;/b&gt;&lt;br&gt;ctg9 34&lt;br&gt;Location: 42137 - 42683" locus_tag="ctg9_34" class="clusterblast-orf" id="knownclusterblast-1_q27_0_all"  />
<polygon points="646,35 651,30 651,30 651,40 651,40 646,35 " style="fill:#b1d815; stroke-width:1; stroke:black; " description="&lt;b&gt;ctg9_35&lt;/b&gt;&lt;br&gt;ctg9 35&lt;br&gt;Location: 42679 - 42934" locus_tag="ctg9_35" class="clusterblast-orf" id="knownclusterblast-1_q28_0_all"  />
<polygon points="651,35 656,30 656,30 656,40 656,40 651,35 " style="fill:#15d8d8; stroke-width:1; stroke:black; " description="&lt;b&gt;ctg9_36&lt;/b&gt;&lt;br&gt;ctg9 36&lt;br&gt;Location: 42943 - 43213" locus_tag="ctg9_36" class="clusterblast-orf" id="knownclusterblast-1_q29_0_all"  />
<polygon points="656,35 661,30 672,30 672,40 661,40 656,35 " style="fill:white; stroke-width:1; stroke:black; " description="&lt;b&gt;ctg9_37&lt;/b&gt;&lt;br&gt;ctg9 37&lt;br&gt;Location: 43190 - 44003" locus_tag="ctg9_37" class="clusterblast-orf" id="knownclusterblast-1_q30_0_all"  />
<polygon points="671,35 676,30 684,30 684,40 676,40 671,35 " style="fill:white; stroke-width:1; stroke:black; " description="&lt;b&gt;ctg9_38&lt;/b&gt;&lt;br&gt;ctg9 38&lt;br&gt;Location: 43978 - 44608" locus_tag="ctg9_38" class="clusterblast-orf" id="knownclusterblast-1_q31_0_all"  />
<polygon points="692,40 702,40 707,35 702,30 692,30 692,40 " style="fill:white; stroke-width:1; stroke:black; " description="&lt;b&gt;ctg9_39&lt;/b&gt;&lt;br&gt;ctg9 39&lt;br&gt;Location: 45036 - 45807" locus_tag="ctg9_39" class="clusterblast-orf" id="knownclusterblast-1_q32_0_all"  />
<polygon points="717,40 721,35 717,30 717,40 " style="fill:white; stroke-width:1; stroke:black; " description="&lt;b&gt;ctg9_40&lt;/b&gt;&lt;br&gt;ctg9 40&lt;br&gt;Location: 46284 - 46512" locus_tag="ctg9_40" class="clusterblast-orf" id="knownclusterblast-1_q33_0_all"  />
<polygon points="724,35 729,30 732,30 732,40 729,40 724,35 " style="fill:white; stroke-width:1; stroke:black; " description="&lt;b&gt;ctg9_41&lt;/b&gt;&lt;br&gt;ctg9 41&lt;br&gt;Location: 46643 - 47078" locus_tag="ctg9_41" class="clusterblast-orf" id="knownclusterblast-1_q34_0_all"  />
<polygon points="737,40 738,40 743,35 738,30 737,30 737,40 " style="fill:white; stroke-width:1; stroke:black; " description="&lt;b&gt;ctg9_42&lt;/b&gt;&lt;br&gt;ctg9 42&lt;br&gt;Location: 47313 - 47610" locus_tag="ctg9_42" class="clusterblast-orf" id="knownclusterblast-1_q35_0_all"  />
<polygon points="743,40 746,40 751,35 746,30 743,30 743,40 " style="fill:white; stroke-width:1; stroke:black; " description="&lt;b&gt;ctg9_43&lt;/b&gt;&lt;br&gt;ctg9 43&lt;br&gt;Location: 47606 - 48008" locus_tag="ctg9_43" class="clusterblast-orf" id="knownclusterblast-1_q36_0_all"  />
<polygon points="751,35 756,30 780,30 780,40 756,40 751,35 " style="fill:white; stroke-width:1; stroke:black; " description="&lt;b&gt;ctg9_44&lt;/b&gt;&lt;br&gt;ctg9 44&lt;br&gt;Location: 48013 - 49477" locus_tag="ctg9_44" class="clusterblast-orf" id="knownclusterblast-1_q37_0_all"  />
</g>
<g label="BGC0000837" description="BGC0000837_c1: APE Vf (40% of genes show similarity), Other" class="clusterblast-cluster"  >
<text x="5" y="70" class="clusterblast-acc"  >
<a xlink:href="https://mibig.secondarymetabolites.org/go/BGC0000837/1" target="_blank">BGC0000837</a>: APE Vf                                                                           (40% of genes show similarity), Other</text>
<line x1="10" y1="85" x2="778.0" y2="85" style="stroke-width:1; stroke:grey; "  />
</g>
<g id="a1_000"  >
<polygon points="207,85 212,80 231,80 231,90 212,90 207,85 " style="fill:#d81515; stroke-width:1; stroke:black; " description="&lt;b&gt;VF_0860&lt;/b&gt;&lt;br&gt;3-oxoacyl-(acyl carrier protein) synthase&lt;br&gt;Location: 18539 - 17304&lt;br&gt;&lt;br&gt;&lt;b&gt;BlastP hit with ctg9_20&lt;/b&gt;&lt;br&gt;Percentage identity: 61&lt;br&gt;Percentage coverage: 100&lt;br&gt;BLAST bit score: 520&lt;br&gt;E-value: 4.68e-185" locus_tag="VF_0860" class="clusterblast-orf" id="knownclusterblast-1_all_1_1_0"  />
</g>
<g id="a1_001"  >
<polygon points="231,85 236,80 245,80 245,90 236,90 231,85 " style="fill:#3cd815; stroke-width:1; stroke:black; " description="&lt;b&gt;VF_0859&lt;/b&gt;&lt;br&gt;3-oxoacyl-(acyl-carrier-protein) reductase, putative&lt;br&gt;Location: 17307 - 16582&lt;br&gt;&lt;br&gt;&lt;b&gt;BlastP hit with ctg9_21&lt;/b&gt;&lt;br&gt;Percentage identity: 61&lt;br&gt;Percentage coverage: 100&lt;br&gt;BLAST bit score: 305&lt;br&gt;E-value: 2.8e-105" locus_tag="VF_0859" class="clusterblast-orf" id="knownclusterblast-1_all_1_1_1"  />
</g>
<g id="a1_002"  >
<polygon points="246,85 251,80 255,80 255,90 251,90 246,85 " style="fill:white; stroke-width:1; stroke:black; " description="&lt;b&gt;VF_0858&lt;/b&gt;&lt;br&gt;predicted 3-hydroxylacyl-(acyl carrier protein) dehydratase&lt;br&gt;Location: 16562 - 16092" locus_tag="VF_0858" class="clusterblast-orf" id="knownclusterblast-1_all_1_1_2"  />
</g>
<g id="a1_003"  >
<polygon points="255,85 260,80 278,80 278,90 260,90 255,85 " style="fill:#1563d8; stroke-width:1; stroke:black; " description="&lt;b&gt;VF_0857&lt;/b&gt;&lt;br&gt;3-oxoacyl-(acyl carrier protein) synthase&lt;br&gt;Location: 16101 - 14914&lt;br&gt;&lt;br&gt;&lt;b&gt;BlastP hit with ctg9_23&lt;/b&gt;&lt;br&gt;Percentage identity: 51&lt;br&gt;Percentage coverage: 100&lt;br&gt;BLAST bit score: 367&lt;br&gt;E-value: 3e-125" locus_tag="VF_0857" class="clusterblast-orf" id="knownclusterblast-1_all_1_1_3"  />
</g>
<g id="a1_004"  >
<polygon points="278,85 283,80 291,80 291,90 283,90 278,85 " style="fill:white; stroke-width:1; stroke:black; " description="&lt;b&gt;VF_0856&lt;/b&gt;&lt;br&gt;phospho-N-acetylmuramoyl-pentapeptide- transferase&lt;br&gt;Location: 14908 - 14282" locus_tag="VF_0856" class="clusterblast-orf" id="knownclusterblast-1_all_1_1_4"  />
</g>
<g id="a1_005"  >
<polygon points="290,85 295,80 328,80 328,90 295,90 290,85 " style="fill:white; stroke-width:1; stroke:black; " description="&lt;b&gt;VF_0855&lt;/b&gt;&lt;br&gt;transporter&lt;br&gt;Location: 14292 - 12397" locus_tag="VF_0855" class="clusterblast-orf" id="knownclusterblast-1_all_1_1_5"  />
</g>
<g id="a1_006"  >
<polygon points="338,85 343,80 350,80 350,90 343,90 338,85 " style="fill:white; stroke-width:1; stroke:black; " description="&lt;b&gt;VF_0854&lt;/b&gt;&lt;br&gt;hypothetical protein&lt;br&gt;Location: 11875 - 11255" locus_tag="VF_0854" class="clusterblast-orf" id="knownclusterblast-1_all_1_1_6"  />
</g>
<g id="a1_007"  >
<polygon points="350,85 355,80 359,80 359,90 355,90 350,85 " style="fill:white; stroke-width:1; stroke:black; " description="&lt;b&gt;VF_0853&lt;/b&gt;&lt;br&gt;esterase&lt;br&gt;Location: 11262 - 10816" locus_tag="VF_0853" class="clusterblast-orf" id="knownclusterblast-1_all_1_1_7"  />
</g>
<g id="a1_008"  >
<polygon points="359,85 364,80 390,80 390,90 364,90 359,85 " style="fill:#15d863; stroke-width:1; stroke:black; " description="&lt;b&gt;VF_0852&lt;/b&gt;&lt;br&gt;phenylalanine and histidine ammonia-lyase&lt;br&gt;Location: 10804 - 9269&lt;br&gt;&lt;br&gt;&lt;b&gt;BlastP hit with ctg9_30&lt;/b&gt;&lt;br&gt;Percentage identity: 63&lt;br&gt;Percentage coverage: 100&lt;br&gt;BLAST bit score: 615&lt;br&gt;E-value: 2.63e-219" locus_tag="VF_0852" class="clusterblast-orf" id="knownclusterblast-1_all_1_1_8"  />
</g>
<g id="a1_009"  >
<polygon points="389,85 394,80 423,80 423,90 394,90 389,85 " style="fill:#3c15d8; stroke-width:1; stroke:black; " description="&lt;b&gt;VF_0851&lt;/b&gt;&lt;br&gt;predicted acyltransferase&lt;br&gt;Location: 9279 - 7588&lt;br&gt;&lt;br&gt;&lt;b&gt;BlastP hit with ctg9_32&lt;/b&gt;&lt;br&gt;Percentage identity: 53&lt;br&gt;Percentage coverage: 98&lt;br&gt;BLAST bit score: 273&lt;br&gt;E-value: 8.45e-89" locus_tag="VF_0851" class="clusterblast-orf" id="knownclusterblast-1_all_1_1_9"  />
</g>
<g id="a1_0010"  >
<polygon points="423,85 428,80 430,80 430,90 428,90 423,85 " style="fill:white; stroke-width:1; stroke:black; " description="&lt;b&gt;VF_0850&lt;/b&gt;&lt;br&gt;AMP-(fatty)acid ligase&lt;br&gt;Location: 7585 - 7211" locus_tag="VF_0850" class="clusterblast-orf" id="knownclusterblast-1_all_1_1_10"  />
</g>
<g id="a1_0011"  >
<polygon points="430,85 435,80 458,80 458,90 435,90 430,85 " style="fill:white; stroke-width:1; stroke:black; " description="&lt;b&gt;VF_0849&lt;/b&gt;&lt;br&gt;AMP-(fatty)acid ligase&lt;br&gt;Location: 7197 - 5794" locus_tag="VF_0849" class="clusterblast-orf" id="knownclusterblast-1_all_1_1_11"  />
</g>
<g id="a1_0012"  >
<polygon points="457,85 462,80 468,80 468,90 462,90 457,85 " style="fill:white; stroke-width:1; stroke:black; " description="&lt;b&gt;VF_0848&lt;/b&gt;&lt;br&gt;DNA gyrase subunit B&lt;br&gt;Location: 5833 - 5273" locus_tag="VF_0848" class="clusterblast-orf" id="knownclusterblast-1_all_1_1_12"  />
</g>
<g id="a1_0013"  >
<polygon points="468,85 473,80 473,80 473,90 473,90 468,85 " style="fill:#b1d815; stroke-width:1; stroke:black; " description="&lt;b&gt;VF_0847&lt;/b&gt;&lt;br&gt;acyl carrier protein&lt;br&gt;Location: 5273 - 5016&lt;br&gt;&lt;br&gt;&lt;b&gt;BlastP hit with ctg9_35&lt;/b&gt;&lt;br&gt;Percentage identity: 53&lt;br&gt;Percentage coverage: 90&lt;br&gt;BLAST bit score: 83&lt;br&gt;E-value: 2.47e-22" locus_tag="VF_0847" class="clusterblast-orf" id="knownclusterblast-1_all_1_1_13"  />
</g>
<g id="a1_0014"  >
<polygon points="474,85 479,80 480,80 480,90 479,90 474,85 " style="fill:#15d8d8; stroke-width:1; stroke:black; " description="&lt;b&gt;VF_0846&lt;/b&gt;&lt;br&gt;acyl carrier protein&lt;br&gt;Location: 5004 - 4708&lt;br&gt;&lt;br&gt;&lt;b&gt;BlastP hit with ctg9_36&lt;/b&gt;&lt;br&gt;Percentage identity: 65&lt;br&gt;Percentage coverage: 92&lt;br&gt;BLAST bit score: 105&lt;br&gt;E-value: 6.44e-31" locus_tag="VF_0846" class="clusterblast-orf" id="knownclusterblast-1_all_1_1_14"  />
</g>
<g id="a1_0015"  >
<polygon points="479,85 484,80 495,80 495,90 484,90 479,85 " style="fill:white; stroke-width:1; stroke:black; " description="&lt;b&gt;VF_0845&lt;/b&gt;&lt;br&gt;1-acyl-sn-glycerol-3-phosphate acyltransferase&lt;br&gt;Location: 4739 - 3942" locus_tag="VF_0845" class="clusterblast-orf" id="knownclusterblast-1_all_1_1_15"  />
</g>
<g id="a1_0016"  >
<polygon points="495,85 500,80 509,80 509,90 500,90 495,85 " style="fill:white; stroke-width:1; stroke:black; " description="&lt;b&gt;VF_0844&lt;/b&gt;&lt;br&gt;hypothetical protein&lt;br&gt;Location: 3937 - 3209" locus_tag="VF_0844" class="clusterblast-orf" id="knownclusterblast-1_all_1_1_16"  />
</g>
<g id="a1_0017"  >
<polygon points="512,90 518,90 523,85 518,80 512,80 512,90 " style="fill:white; stroke-width:1; stroke:black; " description="&lt;b&gt;VF_0843&lt;/b&gt;&lt;br&gt;lipoprotein, putative&lt;br&gt;Location: 3079 - 2504" locus_tag="VF_0843" class="clusterblast-orf" id="knownclusterblast-1_all_1_1_17"  />
</g>
<g id="a1_0018"  >
<polygon points="525,90 541,90 546,85 541,80 525,80 525,90 " style="fill:white; stroke-width:1; stroke:black; " description="&lt;b&gt;VF_0842&lt;/b&gt;&lt;br&gt;putative O-methyltransferase&lt;br&gt;Location: 2400 - 1333" locus_tag="VF_0842" class="clusterblast-orf" id="knownclusterblast-1_all_1_1_18"  />
</g>
<g id="a1_0019"  >
<polygon points="548,90 567,90 572,85 567,80 548,80 548,90 " style="fill:#b115d8; stroke-width:1; stroke:black; " description="&lt;b&gt;VF_0841&lt;/b&gt;&lt;br&gt;dehydrogenase&lt;br&gt;Location: 1233 - 1&lt;br&gt;&lt;br&gt;&lt;b&gt;BlastP hit with ctg9_26&lt;/b&gt;&lt;br&gt;Percentage identity: 56&lt;br&gt;Percentage coverage: 97&lt;br&gt;BLAST bit score: 461&lt;br&gt;E-value: 1e-161" locus_tag="VF_0841" class="clusterblast-orf" id="knownclusterblast-1_all_1_1_19"  />
</g>
<g label="BGC0002008" description="BGC0002008_c1: aryl polyenes (44% of genes show similarity), Other" class="clusterblast-cluster"  >
<text x="5" y="120" class="clusterblast-acc"  >
<a xlink:href="https://mibig.secondarymetabolites.org/go/BGC0002008/1" target="_blank">BGC0002008</a>: aryl polyenes                                                                    (44% of genes show similarity), Other</text>
<line x1="10" y1="135" x2="778.0" y2="135" style="stroke-width:1; stroke:grey; "  />
</g>
<g id="a1_000"  >
<polygon points="239,135 244,130 264,130 264,140 244,140 239,135 " style="fill:#d81515; stroke-width:1; stroke:black; " description="&lt;b&gt;XDD1_RS16065&lt;/b&gt;&lt;br&gt;beta-ketoacyl-ACP synthase&lt;br&gt;Location: 15251 - 13992&lt;br&gt;&lt;br&gt;&lt;b&gt;BlastP hit with ctg9_20&lt;/b&gt;&lt;br&gt;Percentage identity: 56&lt;br&gt;Percentage coverage: 100&lt;br&gt;BLAST bit score: 486&lt;br&gt;E-value: 2.9e-171" locus_tag="XDD1_RS16065" class="clusterblast-orf" id="knownclusterblast-1_all_1_2_0"  />
</g>
<g id="a1_001"  >
<polygon points="264,135 269,130 278,130 278,140 269,140 264,135 " style="fill:#3cd815; stroke-width:1; stroke:black; " description="&lt;b&gt;XDD1_RS16060&lt;/b&gt;&lt;br&gt;3-ketoacyl-ACP reductase FabG2&lt;br&gt;Location: 13995 - 13264&lt;br&gt;&lt;br&gt;&lt;b&gt;BlastP hit with ctg9_21&lt;/b&gt;&lt;br&gt;Percentage identity: 61&lt;br&gt;Percentage coverage: 100&lt;br&gt;BLAST bit score: 299&lt;br&gt;E-value: 5.73e-103" locus_tag="XDD1_RS16060" class="clusterblast-orf" id="knownclusterblast-1_all_1_2_1"  />
</g>
<g id="a1_002"  >
<polygon points="278,135 283,130 288,130 288,140 283,140 278,135 " style="fill:white; stroke-width:1; stroke:black; " description="&lt;b&gt;XDD1_RS16055&lt;/b&gt;&lt;br&gt;hotdog family protein&lt;br&gt;Location: 13267 - 12770" locus_tag="XDD1_RS16055" class="clusterblast-orf" id="knownclusterblast-1_all_1_2_2"  />
</g>
<g id="a1_003"  >
<polygon points="288,135 293,130 311,130 311,140 293,140 288,135 " style="fill:#1563d8; stroke-width:1; stroke:black; " description="&lt;b&gt;XDD1_RS16050&lt;/b&gt;&lt;br&gt;beta-ketoacyl-[acyl-carrier-protein] synthase family protein&lt;br&gt;Location: 12770 - 11595&lt;br&gt;&lt;br&gt;&lt;b&gt;BlastP hit with ctg9_23&lt;/b&gt;&lt;br&gt;Percentage identity: 47&lt;br&gt;Percentage coverage: 100&lt;br&gt;BLAST bit score: 356&lt;br&gt;E-value: 4.51e-121" locus_tag="XDD1_RS16050" class="clusterblast-orf" id="knownclusterblast-1_all_1_2_3"  />
</g>
<g id="a1_004"  >
<polygon points="311,135 316,130 322,130 322,140 316,140 311,135 " style="fill:white; stroke-width:1; stroke:black; " description="&lt;b&gt;XDD1_RS16045&lt;/b&gt;&lt;br&gt;DUF3261 domain-containing protein&lt;br&gt;Location: 11591 - 11028" locus_tag="XDD1_RS16045" class="clusterblast-orf" id="knownclusterblast-1_all_1_2_4"  />
</g>
<g id="a1_005"  >
<polygon points="322,135 327,130 368,130 368,140 327,140 322,135 " style="fill:white; stroke-width:1; stroke:black; " description="&lt;b&gt;XDD1_RS16040&lt;/b&gt;&lt;br&gt;MMPL family transporter&lt;br&gt;Location: 11031 - 8707" locus_tag="XDD1_RS16040" class="clusterblast-orf" id="knownclusterblast-1_all_1_2_5"  />
</g>
<g id="a1_006"  >
<polygon points="368,135 373,130 379,130 379,140 373,140 368,135 " style="fill:white; stroke-width:1; stroke:black; " description="&lt;b&gt;XDD1_RS16035&lt;/b&gt;&lt;br&gt;outer membrane lipoprotein carrier protein LolA&lt;br&gt;Location: 8735 - 8133" locus_tag="XDD1_RS16035" class="clusterblast-orf" id="knownclusterblast-1_all_1_2_6"  />
</g>
<g id="a1_007"  >
<polygon points="380,135 385,130 388,130 388,140 385,140 380,135 " style="fill:#d88a15; stroke-width:1; stroke:black; " description="&lt;b&gt;XDD1_RS16030&lt;/b&gt;&lt;br&gt;acyl-CoA thioesterase&lt;br&gt;Location: 8115 - 7693&lt;br&gt;&lt;br&gt;&lt;b&gt;BlastP hit with ctg9_29&lt;/b&gt;&lt;br&gt;Percentage identity: 51&lt;br&gt;Percentage coverage: 85&lt;br&gt;BLAST bit score: 134&lt;br&gt;E-value: 6.51e-41" locus_tag="XDD1_RS16030" class="clusterblast-orf" id="knownclusterblast-1_all_1_2_7"  />
</g>
<g id="a1_008"  >
<polygon points="388,135 393,130 422,130 422,140 393,140 388,135 " style="fill:#3c15d8; stroke-width:1; stroke:black; " description="&lt;b&gt;XDD1_RS16025&lt;/b&gt;&lt;br&gt;glycosyltransferase family 2 protein&lt;br&gt;Location: 7688 - 5973&lt;br&gt;&lt;br&gt;&lt;b&gt;BlastP hit with ctg9_32&lt;/b&gt;&lt;br&gt;Percentage identity: 58&lt;br&gt;Percentage coverage: 98&lt;br&gt;BLAST bit score: 289&lt;br&gt;E-value: 1.08e-94" locus_tag="XDD1_RS16025" class="clusterblast-orf" id="knownclusterblast-1_all_1_2_8"  />
</g>
<g id="a1_009"  >
<polygon points="422,135 427,130 429,130 429,140 427,140 422,135 " style="fill:white; stroke-width:1; stroke:black; " description="&lt;b&gt;XDD1_RS16020&lt;/b&gt;&lt;br&gt;hydroxymyristoyl-ACP dehydratase&lt;br&gt;Location: 5982 - 5623" locus_tag="XDD1_RS16020" class="clusterblast-orf" id="knownclusterblast-1_all_1_2_9"  />
</g>
<g id="a1_0010"  >
<polygon points="429,135 434,130 456,130 456,140 434,140 429,135 " style="fill:white; stroke-width:1; stroke:black; " description="&lt;b&gt;XDD1_RS16015&lt;/b&gt;&lt;br&gt;AMP-binding protein&lt;br&gt;Location: 5636 - 4251" locus_tag="XDD1_RS16015" class="clusterblast-orf" id="knownclusterblast-1_all_1_2_10"  />
</g>
<g id="a1_0011"  >
<polygon points="456,135 461,130 467,130 467,140 461,140 456,135 " style="fill:#d8158a; stroke-width:1; stroke:black; " description="&lt;b&gt;XDD1_RS16010&lt;/b&gt;&lt;br&gt;hypothetical protein&lt;br&gt;Location: 4254 - 3691&lt;br&gt;&lt;br&gt;&lt;b&gt;BlastP hit with ctg9_34&lt;/b&gt;&lt;br&gt;Percentage identity: 47&lt;br&gt;Percentage coverage: 78&lt;br&gt;BLAST bit score: 131&lt;br&gt;E-value: 8.65e-39" locus_tag="XDD1_RS16010" class="clusterblast-orf" id="knownclusterblast-1_all_1_2_11"  />
</g>
<g id="a1_0012"  >
<polygon points="468,135 473,130 473,130 473,140 473,140 468,135 " style="fill:#b1d815; stroke-width:1; stroke:black; " description="&lt;b&gt;XDD1_RS16005&lt;/b&gt;&lt;br&gt;acyl carrier protein&lt;br&gt;Location: 3641 - 3390&lt;br&gt;&lt;br&gt;&lt;b&gt;BlastP hit with ctg9_35&lt;/b&gt;&lt;br&gt;Percentage identity: 51&lt;br&gt;Percentage coverage: 94&lt;br&gt;BLAST bit score: 85&lt;br&gt;E-value: 4.06e-23" locus_tag="XDD1_RS16005" class="clusterblast-orf" id="knownclusterblast-1_all_1_2_12"  />
</g>
<g id="a1_0013"  >
<polygon points="473,135 478,130 478,130 478,140 478,140 473,135 " style="fill:#15d8d8; stroke-width:1; stroke:black; " description="&lt;b&gt;XDD1_RS16000&lt;/b&gt;&lt;br&gt;phosphopantetheine-binding protein&lt;br&gt;Location: 3378 - 3121&lt;br&gt;&lt;br&gt;&lt;b&gt;BlastP hit with ctg9_36&lt;/b&gt;&lt;br&gt;Percentage identity: 51&lt;br&gt;Percentage coverage: 89&lt;br&gt;BLAST bit score: 86&lt;br&gt;E-value: 2.58e-23" locus_tag="XDD1_RS16000" class="clusterblast-orf" id="knownclusterblast-1_all_1_2_13"  />
</g>
<g id="a1_0014"  >
<polygon points="479,135 484,130 494,130 494,140 484,140 479,135 " style="fill:white; stroke-width:1; stroke:black; " description="&lt;b&gt;XDD1_RS15995&lt;/b&gt;&lt;br&gt;1-acyl-sn-glycerol-3-phosphate acyltransferase&lt;br&gt;Location: 3102 - 2311" locus_tag="XDD1_RS15995" class="clusterblast-orf" id="knownclusterblast-1_all_1_2_14"  />
</g>
<g id="a1_0015"  >
<polygon points="494,135 499,130 509,130 509,140 499,140 494,135 " style="fill:white; stroke-width:1; stroke:black; " description="&lt;b&gt;XDD1_RS15990&lt;/b&gt;&lt;br&gt;beta-ketoacyl synthase chain length factor&lt;br&gt;Location: 2309 - 1590" locus_tag="XDD1_RS15990" class="clusterblast-orf" id="knownclusterblast-1_all_1_2_15"  />
</g>
<g id="a1_0016"  >
<polygon points="509,135 514,130 530,130 530,140 514,140 509,135 " style="fill:white; stroke-width:1; stroke:black; " description="&lt;b&gt;XDD1_RS15985&lt;/b&gt;&lt;br&gt;SAM-dependent methyltransferase&lt;br&gt;Location: 1576 - 503" locus_tag="XDD1_RS15985" class="clusterblast-orf" id="knownclusterblast-1_all_1_2_16"  />
</g>
<g id="a1_0017"  >
<polygon points="532,135 537,130 540,130 540,140 537,140 532,135 " style="fill:white; stroke-width:1; stroke:black; " description="&lt;b&gt;XDD1_RS15980&lt;/b&gt;&lt;br&gt;hypothetical protein&lt;br&gt;Location: 390 - 1" locus_tag="XDD1_RS15980" class="clusterblast-orf" id="knownclusterblast-1_all_1_2_17"  />
</g>
<g label="BGC0000836" description="BGC0000836_c1: APE Ec (36% of genes show similarity), Other" class="clusterblast-cluster"  >
<text x="5" y="170" class="clusterblast-acc"  >
<a xlink:href="https://mibig.secondarymetabolites.org/go/BGC0000836/1" target="_blank">BGC0000836</a>: APE Ec                                                                           (36% of genes show similarity), Other</text>
<line x1="10" y1="185" x2="778.0" y2="185" style="stroke-width:1; stroke:grey; "  />
</g>
<g id="a1_000"  >
<polygon points="241,185 246,180 266,180 266,190 246,190 241,185 " style="fill:#d81515; stroke-width:1; stroke:black; " description="&lt;b&gt;c1186&lt;/b&gt;&lt;br&gt;Putative beta-ketoacyl-ACP synthase&lt;br&gt;Location: 1 - 1230&lt;br&gt;&lt;br&gt;&lt;b&gt;BlastP hit with ctg9_20&lt;/b&gt;&lt;br&gt;Percentage identity: 54&lt;br&gt;Percentage coverage: 100&lt;br&gt;BLAST bit score: 477&lt;br&gt;E-value: 6.35e-168" locus_tag="c1186" class="clusterblast-orf" id="knownclusterblast-1_all_1_3_0"  />
</g>
<g id="a1_001"  >
<polygon points="265,185 270,180 280,180 280,190 270,190 265,185 " style="fill:#3cd815; stroke-width:1; stroke:black; " description="&lt;b&gt;c1187&lt;/b&gt;&lt;br&gt;3-oxoacyl-[acyl-carrier protein] reductase&lt;br&gt;Location: 1227 - 1958&lt;br&gt;&lt;br&gt;&lt;b&gt;BlastP hit with ctg9_21&lt;/b&gt;&lt;br&gt;Percentage identity: 60&lt;br&gt;Percentage coverage: 100&lt;br&gt;BLAST bit score: 290&lt;br&gt;E-value: 1.26e-99" locus_tag="c1187" class="clusterblast-orf" id="knownclusterblast-1_all_1_3_1"  />
</g>
<g id="a1_002"  >
<polygon points="280,185 285,180 289,180 289,190 285,190 280,185 " style="fill:white; stroke-width:1; stroke:black; " description="&lt;b&gt;c1188&lt;/b&gt;&lt;br&gt;Conserved hypothetical protein&lt;br&gt;Location: 1958 - 2422" locus_tag="c1188" class="clusterblast-orf" id="knownclusterblast-1_all_1_3_2"  />
</g>
<g id="a1_003"  >
<polygon points="289,185 294,180 312,180 312,190 294,190 289,185 " style="fill:#1563d8; stroke-width:1; stroke:black; " description="&lt;b&gt;c1189&lt;/b&gt;&lt;br&gt;Putative 3-oxoacyl-[ACP] synthase&lt;br&gt;Location: 2419 - 3597&lt;br&gt;&lt;br&gt;&lt;b&gt;BlastP hit with ctg9_23&lt;/b&gt;&lt;br&gt;Percentage identity: 48&lt;br&gt;Percentage coverage: 101&lt;br&gt;BLAST bit score: 339&lt;br&gt;E-value: 2.95e-114" locus_tag="c1189" class="clusterblast-orf" id="knownclusterblast-1_all_1_3_3"  />
</g>
<g id="a1_004"  >
<polygon points="312,185 317,180 324,180 324,190 317,190 312,185 " style="fill:white; stroke-width:1; stroke:black; " description="&lt;b&gt;c1190&lt;/b&gt;&lt;br&gt;Conserved hypothetical protein&lt;br&gt;Location: 3590 - 4174" locus_tag="c1190" class="clusterblast-orf" id="knownclusterblast-1_all_1_3_4"  />
</g>
<g id="a1_005"  >
<polygon points="324,185 329,180 369,180 369,190 329,190 324,185 " style="fill:white; stroke-width:1; stroke:black; " description="&lt;b&gt;c1191&lt;/b&gt;&lt;br&gt;Conserved hypothetical protein&lt;br&gt;Location: 4171 - 6489" locus_tag="c1191" class="clusterblast-orf" id="knownclusterblast-1_all_1_3_5"  />
</g>
<g id="a1_006"  >
<polygon points="369,185 374,180 381,180 381,190 374,190 369,185 " style="fill:white; stroke-width:1; stroke:black; " description="&lt;b&gt;c1192&lt;/b&gt;&lt;br&gt;Conserved hypothetical protein&lt;br&gt;Location: 6458 - 7063" locus_tag="c1192" class="clusterblast-orf" id="knownclusterblast-1_all_1_3_6"  />
</g>
<g id="a1_007"  >
<polygon points="381,185 386,180 389,180 389,190 386,190 381,185 " style="fill:#d88a15; stroke-width:1; stroke:black; " description="&lt;b&gt;c1193&lt;/b&gt;&lt;br&gt;Hypothetical protein&lt;br&gt;Location: 7060 - 7482&lt;br&gt;&lt;br&gt;&lt;b&gt;BlastP hit with ctg9_29&lt;/b&gt;&lt;br&gt;Percentage identity: 48&lt;br&gt;Percentage coverage: 85&lt;br&gt;BLAST bit score: 128&lt;br&gt;E-value: 1.23e-38" locus_tag="c1193" class="clusterblast-orf" id="knownclusterblast-1_all_1_3_7"  />
</g>
<g id="a1_008"  >
<polygon points="389,185 394,180 421,180 421,190 394,190 389,185 " style="fill:#3c15d8; stroke-width:1; stroke:black; " description="&lt;b&gt;c1194&lt;/b&gt;&lt;br&gt;Putative enzyme&lt;br&gt;Location: 7486 - 9108&lt;br&gt;&lt;br&gt;&lt;b&gt;BlastP hit with ctg9_32&lt;/b&gt;&lt;br&gt;Percentage identity: 55&lt;br&gt;Percentage coverage: 91&lt;br&gt;BLAST bit score: 254&lt;br&gt;E-value: 1.39e-81" locus_tag="c1194" class="clusterblast-orf" id="knownclusterblast-1_all_1_3_8"  />
</g>
<g id="a1_009"  >
<polygon points="420,185 423,180 423,190 420,185 " style="fill:white; stroke-width:1; stroke:black; " description="&lt;b&gt;c1195&lt;/b&gt;&lt;br&gt;Hypothetical protein&lt;br&gt;Location: 9080 - 9202" locus_tag="c1195" class="clusterblast-orf" id="knownclusterblast-1_all_1_3_9"  />
</g>
<g id="a1_0010"  >
<polygon points="422,185 427,180 429,180 429,190 427,190 422,185 " style="fill:white; stroke-width:1; stroke:black; " description="&lt;b&gt;c1196&lt;/b&gt;&lt;br&gt;Conserved hypothetical protein&lt;br&gt;Location: 9153 - 9530" locus_tag="c1196" class="clusterblast-orf" id="knownclusterblast-1_all_1_3_10"  />
</g>
<g id="a1_0011"  >
<polygon points="429,185 434,180 455,180 455,190 434,190 429,185 " style="fill:white; stroke-width:1; stroke:black; " description="&lt;b&gt;c1197&lt;/b&gt;&lt;br&gt;Putative enzyme&lt;br&gt;Location: 9493 - 10851" locus_tag="c1197" class="clusterblast-orf" id="knownclusterblast-1_all_1_3_11"  />
</g>
<g id="a1_0012"  >
<polygon points="455,185 460,180 467,180 467,190 460,190 455,185 " style="fill:white; stroke-width:1; stroke:black; " description="&lt;b&gt;c1198&lt;/b&gt;&lt;br&gt;Conserved hypothetical protein&lt;br&gt;Location: 10848 - 11432" locus_tag="c1198" class="clusterblast-orf" id="knownclusterblast-1_all_1_3_12"  />
</g>
<g id="a1_0013"  >
<polygon points="467,185 472,180 472,180 472,190 472,190 467,185 " style="fill:#b1d815; stroke-width:1; stroke:black; " description="&lt;b&gt;c1199&lt;/b&gt;&lt;br&gt;Putative acyl carrier protein&lt;br&gt;Location: 11434 - 11685&lt;br&gt;&lt;br&gt;&lt;b&gt;BlastP hit with ctg9_35&lt;/b&gt;&lt;br&gt;Percentage identity: 56&lt;br&gt;Percentage coverage: 94&lt;br&gt;BLAST bit score: 89&lt;br&gt;E-value: 6.05e-25" locus_tag="c1199" class="clusterblast-orf" id="knownclusterblast-1_all_1_3_13"  />
</g>
<g id="a1_0014"  >
<polygon points="472,185 477,180 477,180 477,190 477,190 472,185 " style="fill:#15d8d8; stroke-width:1; stroke:black; " description="&lt;b&gt;c1200&lt;/b&gt;&lt;br&gt;Putative acyl carrier protein&lt;br&gt;Location: 11697 - 11954&lt;br&gt;&lt;br&gt;&lt;b&gt;BlastP hit with ctg9_36&lt;/b&gt;&lt;br&gt;Percentage identity: 53&lt;br&gt;Percentage coverage: 89&lt;br&gt;BLAST bit score: 89&lt;br&gt;E-value: 1.57e-24" locus_tag="c1200" class="clusterblast-orf" id="knownclusterblast-1_all_1_3_14"  />
</g>
<g id="a1_0015"  >
<polygon points="477,185 482,180 493,180 493,190 482,190 477,185 " style="fill:white; stroke-width:1; stroke:black; " description="&lt;b&gt;c1201&lt;/b&gt;&lt;br&gt;Putative phospholipid biosynthesis acyltransferase&lt;br&gt;Location: 11929 - 12768" locus_tag="c1201" class="clusterblast-orf" id="knownclusterblast-1_all_1_3_15"  />
</g>
<g id="a1_0016"  >
<polygon points="493,185 498,180 508,180 508,190 498,190 493,185 " style="fill:white; stroke-width:1; stroke:black; " description="&lt;b&gt;c1202&lt;/b&gt;&lt;br&gt;Conserved hypothetical protein&lt;br&gt;Location: 12747 - 13493" locus_tag="c1202" class="clusterblast-orf" id="knownclusterblast-1_all_1_3_16"  />
</g>
<g id="a1_0017"  >
<polygon points="508,185 513,180 529,180 529,190 513,190 508,185 " style="fill:white; stroke-width:1; stroke:black; " description="&lt;b&gt;c1203&lt;/b&gt;&lt;br&gt;Putative O-methyltransferase&lt;br&gt;Location: 13510 - 14568" locus_tag="c1203" class="clusterblast-orf" id="knownclusterblast-1_all_1_3_17"  />
</g>
<g id="a1_0018"  >
<polygon points="530,185 535,180 538,180 538,190 535,190 530,185 " style="fill:white; stroke-width:1; stroke:black; " description="&lt;b&gt;c1204&lt;/b&gt;&lt;br&gt;Conserved hypothetical protein&lt;br&gt;Location: 14633 - 15022" locus_tag="c1204" class="clusterblast-orf" id="knownclusterblast-1_all_1_3_18"  />
</g>
</svg>
