<svg xmlns="http://www.w3.org/2000/svg" xmlns:xlink="http://www.w3.org/1999/xlink" version="1.1" x="0" y="0" height="50" width="800" viewBox="0 0 800 50" preserveAspectRatio="none"  >
<g label="Query sequence" class="clusterblast-cluster"  >
<text x="5" y="20" class="clusterblast-acc"  >
Query sequence</text>
<line x1="10" y1="35" x2="778.0" y2="35" style="stroke-width:1; stroke:grey; "  />
<polygon points="0,40 127,40 132,35 127,30 0,30 0,40 " style="fill:white; stroke-width:1; stroke:black; " description="&lt;b&gt;ctg2_26&lt;/b&gt;&lt;br&gt;ctg2 26&lt;br&gt;Location: 33091 - 35092" locus_tag="ctg2_26" class="clusterblast-orf" id="knownclusterblast-1_q0_0_all"  />
<polygon points="141,40 253,40 258,35 253,30 141,30 141,40 " style="fill:white; stroke-width:1; stroke:black; " description="&lt;b&gt;ctg2_27&lt;/b&gt;&lt;br&gt;ctg2 27&lt;br&gt;Location: 35227 - 37000" locus_tag="ctg2_27" class="clusterblast-orf" id="knownclusterblast-1_q1_0_all"  />
<polygon points="259,40 369,40 374,35 369,30 259,30 259,40 " style="fill:white; stroke-width:1; stroke:black; " description="&lt;b&gt;ctg2_28&lt;/b&gt;&lt;br&gt;ctg2 28&lt;br&gt;Location: 37003 - 38752" locus_tag="ctg2_28" class="clusterblast-orf" id="knownclusterblast-1_q2_0_all"  />
<polygon points="386,40 459,40 464,35 459,30 386,30 386,40 " style="fill:white; stroke-width:1; stroke:black; " description="&lt;b&gt;ctg2_29&lt;/b&gt;&lt;br&gt;ctg2 29&lt;br&gt;Location: 38923 - 40108" locus_tag="ctg2_29" class="clusterblast-orf" id="knownclusterblast-1_q3_0_all"  />
<polygon points="468,40 478,40 483,35 478,30 468,30 468,40 " style="fill:white; stroke-width:1; stroke:black; " description="&lt;b&gt;ctg2_30&lt;/b&gt;&lt;br&gt;ctg2 30&lt;br&gt;Location: 40167 - 40395" locus_tag="ctg2_30" class="clusterblast-orf" id="knownclusterblast-1_q4_0_all"  />
<polygon points="483,35 488,30 497,30 497,40 488,40 483,35 " style="fill:white; stroke-width:1; stroke:black; " description="&lt;b&gt;ctg2_31&lt;/b&gt;&lt;br&gt;ctg2 31&lt;br&gt;Location: 40402 - 40606" locus_tag="ctg2_31" class="clusterblast-orf" id="knownclusterblast-1_q5_0_all"  />
<polygon points="513,35 518,30 566,30 566,40 518,40 513,35 " style="fill:white; stroke-width:1; stroke:black; " description="&lt;b&gt;ctg2_32&lt;/b&gt;&lt;br&gt;ctg2 32&lt;br&gt;Location: 40846 - 41662" locus_tag="ctg2_32" class="clusterblast-orf" id="knownclusterblast-1_q6_0_all"  />
<polygon points="588,40 593,40 598,35 593,30 588,30 588,40 " style="fill:white; stroke-width:1; stroke:black; " description="&lt;b&gt;ctg2_33&lt;/b&gt;&lt;br&gt;ctg2 33&lt;br&gt;Location: 41992 - 42145" locus_tag="ctg2_33" class="clusterblast-orf" id="knownclusterblast-1_q7_0_all"  />
<polygon points="602,35 607,30 740,30 740,40 607,40 602,35 " style="fill:white; stroke-width:1; stroke:black; " description="&lt;b&gt;ctg2_34&lt;/b&gt;&lt;br&gt;ctg2 34&lt;br&gt;Location: 42199 - 44287" locus_tag="ctg2_34" class="clusterblast-orf" id="knownclusterblast-1_q8_0_all"  />
<polygon points="767,35 772,30 780,30 780,40 772,40 767,35 " style="fill:white; stroke-width:1; stroke:black; " description="&lt;b&gt;ctg2_35&lt;/b&gt;&lt;br&gt;ctg2 35&lt;br&gt;Location: 44704 - 44896" locus_tag="ctg2_35" class="clusterblast-orf" id="knownclusterblast-1_q9_0_all"  />
</g>
</svg>
