<svg xmlns="http://www.w3.org/2000/svg" xmlns:xlink="http://www.w3.org/1999/xlink" version="1.1" x="0" y="0" height="50" width="800" viewBox="0 0 800 50" preserveAspectRatio="none"  >
<g label="Query sequence" class="clusterblast-cluster"  >
<text x="5" y="20" class="clusterblast-acc"  >
Query sequence</text>
<line x1="10" y1="35" x2="778.0" y2="35" style="stroke-width:1; stroke:grey; "  />
<polygon points="0,40 2,35 0,30 0,40 " style="fill:white; stroke-width:1; stroke:black; " description="&lt;b&gt;ctg18_30&lt;/b&gt;&lt;br&gt;ctg18 30&lt;br&gt;Location: 34931 - 35192" locus_tag="ctg18_30" class="clusterblast-orf" id="subclusterblast-1_q0_0_all"  />
<polygon points="3,35 8,30 12,30 12,40 8,40 3,35 " style="fill:white; stroke-width:1; stroke:black; " description="&lt;b&gt;ctg18_31&lt;/b&gt;&lt;br&gt;ctg18 31&lt;br&gt;Location: 35267 - 36092" locus_tag="ctg18_31" class="clusterblast-orf" id="subclusterblast-1_q1_0_all"  />
<polygon points="12,35 17,30 27,30 27,40 17,40 12,35 " style="fill:white; stroke-width:1; stroke:black; " description="&lt;b&gt;ctg18_32&lt;/b&gt;&lt;br&gt;ctg18 32&lt;br&gt;Location: 36088 - 37612" locus_tag="ctg18_32" class="clusterblast-orf" id="subclusterblast-1_q2_0_all"  />
<polygon points="27,35 32,30 38,30 38,40 32,40 27,35 " style="fill:white; stroke-width:1; stroke:black; " description="&lt;b&gt;ctg18_33&lt;/b&gt;&lt;br&gt;ctg18 33&lt;br&gt;Location: 37608 - 38592" locus_tag="ctg18_33" class="clusterblast-orf" id="subclusterblast-1_q3_0_all"  />
<polygon points="44,40 57,40 62,35 57,30 44,30 44,40 " style="fill:white; stroke-width:1; stroke:black; " description="&lt;b&gt;ctg18_34&lt;/b&gt;&lt;br&gt;ctg18 34&lt;br&gt;Location: 39202 - 40945" locus_tag="ctg18_34" class="clusterblast-orf" id="subclusterblast-1_q4_0_all"  />
<polygon points="63,40 81,40 86,35 81,30 63,30 63,40 " style="fill:white; stroke-width:1; stroke:black; " description="&lt;b&gt;ctg18_35&lt;/b&gt;&lt;br&gt;ctg18 35&lt;br&gt;Location: 41071 - 43300" locus_tag="ctg18_35" class="clusterblast-orf" id="subclusterblast-1_q5_0_all"  />
<polygon points="88,40 90,35 88,30 88,40 " style="fill:white; stroke-width:1; stroke:black; " description="&lt;b&gt;ctg18_36&lt;/b&gt;&lt;br&gt;ctg18 36&lt;br&gt;Location: 43442 - 43664" locus_tag="ctg18_36" class="clusterblast-orf" id="subclusterblast-1_q6_0_all"  />
<polygon points="91,35 96,30 96,30 96,40 96,40 91,35 " style="fill:white; stroke-width:1; stroke:black; " description="&lt;b&gt;ctg18_37&lt;/b&gt;&lt;br&gt;ctg18 37&lt;br&gt;Location: 43765 - 44257" locus_tag="ctg18_37" class="clusterblast-orf" id="subclusterblast-1_q7_0_all"  />
<polygon points="98,35 103,30 109,30 109,40 103,40 98,35 " style="fill:white; stroke-width:1; stroke:black; " description="&lt;b&gt;ctg18_38&lt;/b&gt;&lt;br&gt;ctg18 38&lt;br&gt;Location: 44419 - 45526" locus_tag="ctg18_38" class="clusterblast-orf" id="subclusterblast-1_q8_0_all"  />
<polygon points="110,35 113,30 113,40 110,35 " style="fill:white; stroke-width:1; stroke:black; " description="&lt;b&gt;ctg18_39&lt;/b&gt;&lt;br&gt;ctg18 39&lt;br&gt;Location: 45541 - 45877" locus_tag="ctg18_39" class="clusterblast-orf" id="subclusterblast-1_q9_0_all"  />
<polygon points="114,35 119,30 121,30 121,40 119,40 114,35 " style="fill:white; stroke-width:1; stroke:black; " description="&lt;b&gt;ctg18_40&lt;/b&gt;&lt;br&gt;ctg18 40&lt;br&gt;Location: 45929 - 46646" locus_tag="ctg18_40" class="clusterblast-orf" id="subclusterblast-1_q10_0_all"  />
<polygon points="125,35 130,30 153,30 153,40 130,40 125,35 " style="fill:white; stroke-width:1; stroke:black; " description="&lt;b&gt;ctg18_41&lt;/b&gt;&lt;br&gt;ctg18 41&lt;br&gt;Location: 47047 - 49705" locus_tag="ctg18_41" class="clusterblast-orf" id="subclusterblast-1_q11_0_all"  />
<polygon points="153,35 158,30 161,30 161,40 158,40 153,35 " style="fill:white; stroke-width:1; stroke:black; " description="&lt;b&gt;ctg18_42&lt;/b&gt;&lt;br&gt;ctg18 42&lt;br&gt;Location: 49718 - 50516" locus_tag="ctg18_42" class="clusterblast-orf" id="subclusterblast-1_q12_0_all"  />
<polygon points="161,35 164,30 164,40 161,35 " style="fill:white; stroke-width:1; stroke:black; " description="&lt;b&gt;ctg18_43&lt;/b&gt;&lt;br&gt;ctg18 43&lt;br&gt;Location: 50545 - 50806" locus_tag="ctg18_43" class="clusterblast-orf" id="subclusterblast-1_q13_0_all"  />
<polygon points="164,35 169,30 173,30 173,40 169,40 164,35 " style="fill:white; stroke-width:1; stroke:black; " description="&lt;b&gt;ctg18_44&lt;/b&gt;&lt;br&gt;ctg18 44&lt;br&gt;Location: 50820 - 51690" locus_tag="ctg18_44" class="clusterblast-orf" id="subclusterblast-1_q14_0_all"  />
<polygon points="173,35 178,30 183,30 183,40 178,40 173,35 " style="fill:white; stroke-width:1; stroke:black; " description="&lt;b&gt;ctg18_45&lt;/b&gt;&lt;br&gt;ctg18 45&lt;br&gt;Location: 51686 - 52658" locus_tag="ctg18_45" class="clusterblast-orf" id="subclusterblast-1_q15_0_all"  />
<polygon points="183,35 188,30 192,30 192,40 188,40 183,35 " style="fill:white; stroke-width:1; stroke:black; " description="&lt;b&gt;ctg18_46&lt;/b&gt;&lt;br&gt;ctg18 46&lt;br&gt;Location: 52657 - 53548" locus_tag="ctg18_46" class="clusterblast-orf" id="subclusterblast-1_q16_0_all"  />
<polygon points="194,40 199,40 204,35 199,30 194,30 194,40 " style="fill:white; stroke-width:1; stroke:black; " description="&lt;b&gt;ctg18_47&lt;/b&gt;&lt;br&gt;ctg18 47&lt;br&gt;Location: 53691 - 54639" locus_tag="ctg18_47" class="clusterblast-orf" id="subclusterblast-1_q17_0_all"  />
<polygon points="204,35 209,30 220,30 220,40 209,40 204,35 " style="fill:white; stroke-width:1; stroke:black; " description="&lt;b&gt;ctg18_48&lt;/b&gt;&lt;br&gt;ctg18 48&lt;br&gt;Location: 54631 - 56251" locus_tag="ctg18_48" class="clusterblast-orf" id="subclusterblast-1_q18_0_all"  />
<polygon points="222,40 231,40 236,35 231,30 222,30 222,40 " style="fill:white; stroke-width:1; stroke:black; " description="&lt;b&gt;ctg18_49&lt;/b&gt;&lt;br&gt;ctg18 49&lt;br&gt;Location: 56393 - 57743" locus_tag="ctg18_49" class="clusterblast-orf" id="subclusterblast-1_q19_0_all"  />
<polygon points="236,40 244,40 249,35 244,30 236,30 236,40 " style="fill:white; stroke-width:1; stroke:black; " description="&lt;b&gt;ctg18_50&lt;/b&gt;&lt;br&gt;ctg18 50&lt;br&gt;Location: 57761 - 59042" locus_tag="ctg18_50" class="clusterblast-orf" id="subclusterblast-1_q20_0_all"  />
<polygon points="250,40 254,40 259,35 254,30 250,30 250,40 " style="fill:white; stroke-width:1; stroke:black; " description="&lt;b&gt;ctg18_51&lt;/b&gt;&lt;br&gt;ctg18 51&lt;br&gt;Location: 59075 - 59948" locus_tag="ctg18_51" class="clusterblast-orf" id="subclusterblast-1_q21_0_all"  />
<polygon points="260,35 265,30 269,30 269,40 265,40 260,35 " style="fill:white; stroke-width:1; stroke:black; " description="&lt;b&gt;ctg18_52&lt;/b&gt;&lt;br&gt;ctg18 52&lt;br&gt;Location: 60091 - 60919" locus_tag="ctg18_52" class="clusterblast-orf" id="subclusterblast-1_q22_0_all"  />
<polygon points="271,40 283,40 288,35 283,30 271,30 271,40 " style="fill:white; stroke-width:1; stroke:black; " description="&lt;b&gt;ctg18_53&lt;/b&gt;&lt;br&gt;ctg18 53&lt;br&gt;Location: 61117 - 62770" locus_tag="ctg18_53" class="clusterblast-orf" id="subclusterblast-1_q23_0_all"  />
<polygon points="289,40 309,40 314,35 309,30 289,30 289,40 " style="fill:white; stroke-width:1; stroke:black; " description="&lt;b&gt;ctg18_54&lt;/b&gt;&lt;br&gt;ctg18 54&lt;br&gt;Location: 62879 - 65321" locus_tag="ctg18_54" class="clusterblast-orf" id="subclusterblast-1_q24_0_all"  />
<polygon points="316,35 321,30 439,30 439,40 321,40 316,35 " style="fill:white; stroke-width:1; stroke:black; " description="&lt;b&gt;ctg18_55&lt;/b&gt;&lt;br&gt;ctg18 55&lt;br&gt;Location: 65465 - 77318" locus_tag="ctg18_55" class="clusterblast-orf" id="subclusterblast-1_q25_0_all"  />
<polygon points="439,35 444,30 584,30 584,40 444,40 439,35 " style="fill:white; stroke-width:1; stroke:black; " description="&lt;b&gt;ctg18_56&lt;/b&gt;&lt;br&gt;ctg18 56&lt;br&gt;Location: 77321 - 91376" locus_tag="ctg18_56" class="clusterblast-orf" id="subclusterblast-1_q26_0_all"  />
<polygon points="587,40 589,35 587,30 587,40 " style="fill:white; stroke-width:1; stroke:black; " description="&lt;b&gt;ctg18_57&lt;/b&gt;&lt;br&gt;ctg18 57&lt;br&gt;Location: 91586 - 91838" locus_tag="ctg18_57" class="clusterblast-orf" id="subclusterblast-1_q27_0_all"  />
<polygon points="589,40 593,35 589,30 589,40 " style="fill:white; stroke-width:1; stroke:black; " description="&lt;b&gt;ctg18_58&lt;/b&gt;&lt;br&gt;ctg18 58&lt;br&gt;Location: 91834 - 92200" locus_tag="ctg18_58" class="clusterblast-orf" id="subclusterblast-1_q28_0_all"  />
<polygon points="593,35 598,30 605,30 605,40 598,40 593,35 " style="fill:white; stroke-width:1; stroke:black; " description="&lt;b&gt;ctg18_59&lt;/b&gt;&lt;br&gt;ctg18 59&lt;br&gt;Location: 92182 - 93373" locus_tag="ctg18_59" class="clusterblast-orf" id="subclusterblast-1_q29_0_all"  />
<polygon points="607,40 608,40 613,35 608,30 607,30 607,40 " style="fill:white; stroke-width:1; stroke:black; " description="&lt;b&gt;ctg18_60&lt;/b&gt;&lt;br&gt;ctg18 60&lt;br&gt;Location: 93515 - 94109" locus_tag="ctg18_60" class="clusterblast-orf" id="subclusterblast-1_q30_0_all"  />
<polygon points="613,35 618,30 627,30 627,40 618,40 613,35 " style="fill:white; stroke-width:1; stroke:black; " description="&lt;b&gt;ctg18_61&lt;/b&gt;&lt;br&gt;ctg18 61&lt;br&gt;Location: 94092 - 95448" locus_tag="ctg18_61" class="clusterblast-orf" id="subclusterblast-1_q31_0_all"  />
<polygon points="627,35 632,30 633,30 633,40 632,40 627,35 " style="fill:white; stroke-width:1; stroke:black; " description="&lt;b&gt;ctg18_62&lt;/b&gt;&lt;br&gt;ctg18 62&lt;br&gt;Location: 95473 - 96046" locus_tag="ctg18_62" class="clusterblast-orf" id="subclusterblast-1_q32_0_all"  />
<polygon points="633,35 638,30 643,30 643,40 638,40 633,35 " style="fill:white; stroke-width:1; stroke:black; " description="&lt;b&gt;ctg18_63&lt;/b&gt;&lt;br&gt;ctg18 63&lt;br&gt;Location: 96113 - 97070" locus_tag="ctg18_63" class="clusterblast-orf" id="subclusterblast-1_q33_0_all"  />
<polygon points="643,35 648,30 654,30 654,40 648,40 643,35 " style="fill:white; stroke-width:1; stroke:black; " description="&lt;b&gt;ctg18_64&lt;/b&gt;&lt;br&gt;ctg18 64&lt;br&gt;Location: 97073 - 98117" locus_tag="ctg18_64" class="clusterblast-orf" id="subclusterblast-1_q34_0_all"  />
<polygon points="654,35 658,30 658,40 654,35 " style="fill:white; stroke-width:1; stroke:black; " description="&lt;b&gt;ctg18_65&lt;/b&gt;&lt;br&gt;ctg18 65&lt;br&gt;Location: 98132 - 98480" locus_tag="ctg18_65" class="clusterblast-orf" id="subclusterblast-1_q35_0_all"  />
<polygon points="658,35 663,30 671,30 671,40 663,40 658,35 " style="fill:white; stroke-width:1; stroke:black; " description="&lt;b&gt;ctg18_66&lt;/b&gt;&lt;br&gt;ctg18 66&lt;br&gt;Location: 98482 - 99712" locus_tag="ctg18_66" class="clusterblast-orf" id="subclusterblast-1_q36_0_all"  />
<polygon points="673,35 678,30 680,30 680,40 678,40 673,35 " style="fill:white; stroke-width:1; stroke:black; " description="&lt;b&gt;ctg18_67&lt;/b&gt;&lt;br&gt;ctg18 67&lt;br&gt;Location: 99930 - 100620" locus_tag="ctg18_67" class="clusterblast-orf" id="subclusterblast-1_q37_0_all"  />
<polygon points="680,35 685,30 688,30 688,40 685,40 680,35 " style="fill:white; stroke-width:1; stroke:black; " description="&lt;b&gt;ctg18_68&lt;/b&gt;&lt;br&gt;ctg18 68&lt;br&gt;Location: 100630 - 101389" locus_tag="ctg18_68" class="clusterblast-orf" id="subclusterblast-1_q38_0_all"  />
<polygon points="688,35 693,30 700,30 700,40 693,40 688,35 " style="fill:white; stroke-width:1; stroke:black; " description="&lt;b&gt;ctg18_69&lt;/b&gt;&lt;br&gt;ctg18 69&lt;br&gt;Location: 101385 - 102546" locus_tag="ctg18_69" class="clusterblast-orf" id="subclusterblast-1_q39_0_all"  />
<polygon points="700,35 705,30 710,30 710,40 705,40 700,35 " style="fill:white; stroke-width:1; stroke:black; " description="&lt;b&gt;ctg18_70&lt;/b&gt;&lt;br&gt;ctg18 70&lt;br&gt;Location: 102556 - 103474" locus_tag="ctg18_70" class="clusterblast-orf" id="subclusterblast-1_q40_0_all"  />
<polygon points="712,35 717,30 724,30 724,40 717,40 712,35 " style="fill:white; stroke-width:1; stroke:black; " description="&lt;b&gt;ctg18_71&lt;/b&gt;&lt;br&gt;ctg18 71&lt;br&gt;Location: 103652 - 104861" locus_tag="ctg18_71" class="clusterblast-orf" id="subclusterblast-1_q41_0_all"  />
<polygon points="727,40 757,40 762,35 757,30 727,30 727,40 " style="fill:white; stroke-width:1; stroke:black; " description="&lt;b&gt;ctg18_72&lt;/b&gt;&lt;br&gt;ctg18 72&lt;br&gt;Location: 105163 - 108547" locus_tag="ctg18_72" class="clusterblast-orf" id="subclusterblast-1_q42_0_all"  />
<polygon points="762,40 764,40 769,35 764,30 762,30 762,40 " style="fill:white; stroke-width:1; stroke:black; " description="&lt;b&gt;ctg18_73&lt;/b&gt;&lt;br&gt;ctg18 73&lt;br&gt;Location: 108521 - 109187" locus_tag="ctg18_73" class="clusterblast-orf" id="subclusterblast-1_q43_0_all"  />
<polygon points="770,35 775,30 780,30 780,40 775,40 770,35 " style="fill:white; stroke-width:1; stroke:black; " description="&lt;b&gt;ctg18_74&lt;/b&gt;&lt;br&gt;ctg18 74&lt;br&gt;Location: 109306 - 110221" locus_tag="ctg18_74" class="clusterblast-orf" id="subclusterblast-1_q44_0_all"  />
</g>
</svg>
