<svg xmlns="http://www.w3.org/2000/svg" xmlns:xlink="http://www.w3.org/1999/xlink" version="1.1" x="0" y="0" height="50" width="800" viewBox="0 0 800 50" preserveAspectRatio="none"  >
<g label="Query sequence" class="clusterblast-cluster"  >
<text x="5" y="20" class="clusterblast-acc"  >
Query sequence</text>
<line x1="10" y1="35" x2="778.0" y2="35" style="stroke-width:1; stroke:grey; "  />
<polygon points="0,40 8,40 13,35 8,30 0,30 0,40 " style="fill:white; stroke-width:1; stroke:black; " description="&lt;b&gt;ctg9_7&lt;/b&gt;&lt;br&gt;ctg9 7&lt;br&gt;Location: 9961 - 10618" locus_tag="ctg9_7" class="clusterblast-orf" id="subclusterblast-1_q0_0_all"  />
<polygon points="13,40 18,40 23,35 18,30 13,30 13,40 " style="fill:white; stroke-width:1; stroke:black; " description="&lt;b&gt;ctg9_8&lt;/b&gt;&lt;br&gt;ctg9 8&lt;br&gt;Location: 10614 - 11166" locus_tag="ctg9_8" class="clusterblast-orf" id="subclusterblast-1_q1_0_all"  />
<polygon points="23,40 38,40 43,35 38,30 23,30 23,40 " style="fill:white; stroke-width:1; stroke:black; " description="&lt;b&gt;ctg9_9&lt;/b&gt;&lt;br&gt;ctg9 9&lt;br&gt;Location: 11162 - 12134" locus_tag="ctg9_9" class="clusterblast-orf" id="subclusterblast-1_q2_0_all"  />
<polygon points="43,40 65,40 70,35 65,30 43,30 43,40 " style="fill:white; stroke-width:1; stroke:black; " description="&lt;b&gt;ctg9_10&lt;/b&gt;&lt;br&gt;ctg9 10&lt;br&gt;Location: 12146 - 13532" locus_tag="ctg9_10" class="clusterblast-orf" id="subclusterblast-1_q3_0_all"  />
<polygon points="71,40 76,40 81,35 76,30 71,30 71,40 " style="fill:white; stroke-width:1; stroke:black; " description="&lt;b&gt;ctg9_11&lt;/b&gt;&lt;br&gt;ctg9 11&lt;br&gt;Location: 13563 - 14055" locus_tag="ctg9_11" class="clusterblast-orf" id="subclusterblast-1_q4_0_all"  />
<polygon points="83,40 100,40 105,35 100,30 83,30 83,40 " style="fill:white; stroke-width:1; stroke:black; " description="&lt;b&gt;ctg9_12&lt;/b&gt;&lt;br&gt;ctg9 12&lt;br&gt;Location: 14179 - 15280" locus_tag="ctg9_12" class="clusterblast-orf" id="subclusterblast-1_q5_0_all"  />
<polygon points="105,40 131,40 136,35 131,30 105,30 105,40 " style="fill:white; stroke-width:1; stroke:black; " description="&lt;b&gt;ctg9_13&lt;/b&gt;&lt;br&gt;ctg9 13&lt;br&gt;Location: 15290 - 16859" locus_tag="ctg9_13" class="clusterblast-orf" id="subclusterblast-1_q6_0_all"  />
<polygon points="143,40 226,40 231,35 226,30 143,30 143,40 " style="fill:white; stroke-width:1; stroke:black; " description="&lt;b&gt;ctg9_14&lt;/b&gt;&lt;br&gt;ctg9 14&lt;br&gt;Location: 17211 - 21657" locus_tag="ctg9_14" class="clusterblast-orf" id="subclusterblast-1_q7_0_all"  />
<polygon points="233,40 256,40 261,35 256,30 233,30 233,40 " style="fill:white; stroke-width:1; stroke:black; " description="&lt;b&gt;ctg9_15&lt;/b&gt;&lt;br&gt;ctg9 15&lt;br&gt;Location: 21781 - 23200" locus_tag="ctg9_15" class="clusterblast-orf" id="subclusterblast-1_q8_0_all"  />
<polygon points="266,40 282,40 287,35 282,30 266,30 266,40 " style="fill:white; stroke-width:1; stroke:black; " description="&lt;b&gt;ctg9_16&lt;/b&gt;&lt;br&gt;ctg9 16&lt;br&gt;Location: 23453 - 24521" locus_tag="ctg9_16" class="clusterblast-orf" id="subclusterblast-1_q9_0_all"  />
<polygon points="292,35 297,30 317,30 317,40 297,40 292,35 " style="fill:white; stroke-width:1; stroke:black; " description="&lt;b&gt;ctg9_17&lt;/b&gt;&lt;br&gt;ctg9 17&lt;br&gt;Location: 24754 - 26029" locus_tag="ctg9_17" class="clusterblast-orf" id="subclusterblast-1_q10_0_all"  />
<polygon points="319,40 332,40 337,35 332,30 319,30 319,40 " style="fill:white; stroke-width:1; stroke:black; " description="&lt;b&gt;ctg9_18&lt;/b&gt;&lt;br&gt;ctg9 18&lt;br&gt;Location: 26153 - 27047" locus_tag="ctg9_18" class="clusterblast-orf" id="subclusterblast-1_q11_0_all"  />
<polygon points="343,35 348,30 352,30 352,40 348,40 343,35 " style="fill:white; stroke-width:1; stroke:black; " description="&lt;b&gt;ctg9_19&lt;/b&gt;&lt;br&gt;ctg9 19&lt;br&gt;Location: 27346 - 27796" locus_tag="ctg9_19" class="clusterblast-orf" id="subclusterblast-1_q12_0_all"  />
<polygon points="352,35 357,30 376,30 376,40 357,40 352,35 " style="fill:white; stroke-width:1; stroke:black; " description="&lt;b&gt;ctg9_20&lt;/b&gt;&lt;br&gt;ctg9 20&lt;br&gt;Location: 27823 - 29050" locus_tag="ctg9_20" class="clusterblast-orf" id="subclusterblast-1_q13_0_all"  />
<polygon points="376,35 381,30 391,30 391,40 381,40 376,35 " style="fill:white; stroke-width:1; stroke:black; " description="&lt;b&gt;ctg9_21&lt;/b&gt;&lt;br&gt;ctg9 21&lt;br&gt;Location: 29049 - 29778" locus_tag="ctg9_21" class="clusterblast-orf" id="subclusterblast-1_q14_0_all"  />
<polygon points="391,35 396,30 400,30 400,40 396,40 391,35 " style="fill:white; stroke-width:1; stroke:black; " description="&lt;b&gt;ctg9_22&lt;/b&gt;&lt;br&gt;ctg9 22&lt;br&gt;Location: 29774 - 30236" locus_tag="ctg9_22" class="clusterblast-orf" id="subclusterblast-1_q15_0_all"  />
<polygon points="400,35 405,30 423,30 423,40 405,40 400,35 " style="fill:white; stroke-width:1; stroke:black; " description="&lt;b&gt;ctg9_23&lt;/b&gt;&lt;br&gt;ctg9 23&lt;br&gt;Location: 30232 - 31399" locus_tag="ctg9_23" class="clusterblast-orf" id="subclusterblast-1_q16_0_all"  />
<polygon points="423,35 428,30 432,30 432,40 428,40 423,35 " style="fill:white; stroke-width:1; stroke:black; " description="&lt;b&gt;ctg9_24&lt;/b&gt;&lt;br&gt;ctg9 24&lt;br&gt;Location: 31395 - 31878" locus_tag="ctg9_24" class="clusterblast-orf" id="subclusterblast-1_q17_0_all"  />
<polygon points="432,35 437,30 447,30 447,40 437,40 432,35 " style="fill:white; stroke-width:1; stroke:black; " description="&lt;b&gt;ctg9_25&lt;/b&gt;&lt;br&gt;ctg9 25&lt;br&gt;Location: 31874 - 32609" locus_tag="ctg9_25" class="clusterblast-orf" id="subclusterblast-1_q18_0_all"  />
<polygon points="447,35 452,30 471,30 471,40 452,40 447,35 " style="fill:white; stroke-width:1; stroke:black; " description="&lt;b&gt;ctg9_26&lt;/b&gt;&lt;br&gt;ctg9 26&lt;br&gt;Location: 32605 - 33853" locus_tag="ctg9_26" class="clusterblast-orf" id="subclusterblast-1_q19_0_all"  />
<polygon points="472,35 477,30 518,30 518,40 477,40 472,35 " style="fill:white; stroke-width:1; stroke:black; " description="&lt;b&gt;ctg9_27&lt;/b&gt;&lt;br&gt;ctg9 27&lt;br&gt;Location: 33886 - 36199" locus_tag="ctg9_27" class="clusterblast-orf" id="subclusterblast-1_q20_0_all"  />
<polygon points="517,35 522,30 530,30 530,40 522,40 517,35 " style="fill:white; stroke-width:1; stroke:black; " description="&lt;b&gt;ctg9_28&lt;/b&gt;&lt;br&gt;ctg9 28&lt;br&gt;Location: 36188 - 36848" locus_tag="ctg9_28" class="clusterblast-orf" id="subclusterblast-1_q21_0_all"  />
<polygon points="531,35 536,30 539,30 539,40 536,40 531,35 " style="fill:white; stroke-width:1; stroke:black; " description="&lt;b&gt;ctg9_29&lt;/b&gt;&lt;br&gt;ctg9 29&lt;br&gt;Location: 36868 - 37294" locus_tag="ctg9_29" class="clusterblast-orf" id="subclusterblast-1_q22_0_all"  />
<polygon points="539,35 544,30 569,30 569,40 544,40 539,35 " style="fill:white; stroke-width:1; stroke:black; " description="&lt;b&gt;ctg9_30&lt;/b&gt;&lt;br&gt;ctg9 30&lt;br&gt;Location: 37286 - 38828" locus_tag="ctg9_30" class="clusterblast-orf" id="subclusterblast-1_q23_0_all"  />
<polygon points="569,35 574,30 588,30 588,40 574,40 569,35 " style="fill:white; stroke-width:1; stroke:black; " description="&lt;b&gt;ctg9_31&lt;/b&gt;&lt;br&gt;ctg9 31&lt;br&gt;Location: 38811 - 39747" locus_tag="ctg9_31" class="clusterblast-orf" id="subclusterblast-1_q24_0_all"  />
<polygon points="588,35 593,30 602,30 602,40 593,40 588,35 " style="fill:white; stroke-width:1; stroke:black; " description="&lt;b&gt;ctg9_32&lt;/b&gt;&lt;br&gt;ctg9 32&lt;br&gt;Location: 39743 - 40478" locus_tag="ctg9_32" class="clusterblast-orf" id="subclusterblast-1_q25_0_all"  />
<polygon points="602,35 607,30 635,30 635,40 607,40 602,35 " style="fill:white; stroke-width:1; stroke:black; " description="&lt;b&gt;ctg9_33&lt;/b&gt;&lt;br&gt;ctg9 33&lt;br&gt;Location: 40470 - 42141" locus_tag="ctg9_33" class="clusterblast-orf" id="subclusterblast-1_q26_0_all"  />
<polygon points="635,35 640,30 646,30 646,40 640,40 635,35 " style="fill:white; stroke-width:1; stroke:black; " description="&lt;b&gt;ctg9_34&lt;/b&gt;&lt;br&gt;ctg9 34&lt;br&gt;Location: 42137 - 42683" locus_tag="ctg9_34" class="clusterblast-orf" id="subclusterblast-1_q27_0_all"  />
<polygon points="646,35 651,30 651,30 651,40 651,40 646,35 " style="fill:white; stroke-width:1; stroke:black; " description="&lt;b&gt;ctg9_35&lt;/b&gt;&lt;br&gt;ctg9 35&lt;br&gt;Location: 42679 - 42934" locus_tag="ctg9_35" class="clusterblast-orf" id="subclusterblast-1_q28_0_all"  />
<polygon points="651,35 656,30 656,30 656,40 656,40 651,35 " style="fill:white; stroke-width:1; stroke:black; " description="&lt;b&gt;ctg9_36&lt;/b&gt;&lt;br&gt;ctg9 36&lt;br&gt;Location: 42943 - 43213" locus_tag="ctg9_36" class="clusterblast-orf" id="subclusterblast-1_q29_0_all"  />
<polygon points="656,35 661,30 672,30 672,40 661,40 656,35 " style="fill:white; stroke-width:1; stroke:black; " description="&lt;b&gt;ctg9_37&lt;/b&gt;&lt;br&gt;ctg9 37&lt;br&gt;Location: 43190 - 44003" locus_tag="ctg9_37" class="clusterblast-orf" id="subclusterblast-1_q30_0_all"  />
<polygon points="671,35 676,30 684,30 684,40 676,40 671,35 " style="fill:white; stroke-width:1; stroke:black; " description="&lt;b&gt;ctg9_38&lt;/b&gt;&lt;br&gt;ctg9 38&lt;br&gt;Location: 43978 - 44608" locus_tag="ctg9_38" class="clusterblast-orf" id="subclusterblast-1_q31_0_all"  />
<polygon points="692,40 702,40 707,35 702,30 692,30 692,40 " style="fill:white; stroke-width:1; stroke:black; " description="&lt;b&gt;ctg9_39&lt;/b&gt;&lt;br&gt;ctg9 39&lt;br&gt;Location: 45036 - 45807" locus_tag="ctg9_39" class="clusterblast-orf" id="subclusterblast-1_q32_0_all"  />
<polygon points="717,40 721,35 717,30 717,40 " style="fill:white; stroke-width:1; stroke:black; " description="&lt;b&gt;ctg9_40&lt;/b&gt;&lt;br&gt;ctg9 40&lt;br&gt;Location: 46284 - 46512" locus_tag="ctg9_40" class="clusterblast-orf" id="subclusterblast-1_q33_0_all"  />
<polygon points="724,35 729,30 732,30 732,40 729,40 724,35 " style="fill:white; stroke-width:1; stroke:black; " description="&lt;b&gt;ctg9_41&lt;/b&gt;&lt;br&gt;ctg9 41&lt;br&gt;Location: 46643 - 47078" locus_tag="ctg9_41" class="clusterblast-orf" id="subclusterblast-1_q34_0_all"  />
<polygon points="737,40 738,40 743,35 738,30 737,30 737,40 " style="fill:white; stroke-width:1; stroke:black; " description="&lt;b&gt;ctg9_42&lt;/b&gt;&lt;br&gt;ctg9 42&lt;br&gt;Location: 47313 - 47610" locus_tag="ctg9_42" class="clusterblast-orf" id="subclusterblast-1_q35_0_all"  />
<polygon points="743,40 746,40 751,35 746,30 743,30 743,40 " style="fill:white; stroke-width:1; stroke:black; " description="&lt;b&gt;ctg9_43&lt;/b&gt;&lt;br&gt;ctg9 43&lt;br&gt;Location: 47606 - 48008" locus_tag="ctg9_43" class="clusterblast-orf" id="subclusterblast-1_q36_0_all"  />
<polygon points="751,35 756,30 780,30 780,40 756,40 751,35 " style="fill:white; stroke-width:1; stroke:black; " description="&lt;b&gt;ctg9_44&lt;/b&gt;&lt;br&gt;ctg9 44&lt;br&gt;Location: 48013 - 49477" locus_tag="ctg9_44" class="clusterblast-orf" id="subclusterblast-1_q37_0_all"  />
</g>
</svg>
