<svg xmlns="http://www.w3.org/2000/svg" xmlns:xlink="http://www.w3.org/1999/xlink" version="1.1" x="0" y="0" height="230" width="800" viewBox="0 0 800 230" preserveAspectRatio="none"  >
<g label="Query sequence" class="clusterblast-cluster"  >
<text x="5" y="20" class="clusterblast-acc"  >
Query sequence</text>
<line x1="10" y1="35" x2="778.0" y2="35" style="stroke-width:1; stroke:grey; "  />
<polygon points="75,40 79,40 84,35 79,30 75,30 75,40 " style="fill:#d81515; stroke-width:1; stroke:black; " description="&lt;b&gt;ctg29_8&lt;/b&gt;&lt;br&gt;ctg29 8&lt;br&gt;Location: 10485 - 11169" locus_tag="ctg29_8" class="clusterblast-orf" id="dummy-1_q0_0_all"  />
<polygon points="84,40 96,40 101,35 96,30 84,30 84,40 " style="fill:#77d815; stroke-width:1; stroke:black; " description="&lt;b&gt;ctg29_9&lt;/b&gt;&lt;br&gt;ctg29 9&lt;br&gt;Location: 11146 - 12541" locus_tag="ctg29_9" class="clusterblast-orf" id="dummy-1_q1_0_all"  />
<polygon points="104,35 109,30 109,30 109,40 109,40 104,35 " style="fill:#15d8d8; stroke-width:1; stroke:black; " description="&lt;b&gt;ctg29_10&lt;/b&gt;&lt;br&gt;ctg29 10&lt;br&gt;Location: 12769 - 13123" locus_tag="ctg29_10" class="clusterblast-orf" id="dummy-1_q2_0_all"  />
<polygon points="110,35 115,30 120,30 120,40 115,40 110,35 " style="fill:#7715d8; stroke-width:1; stroke:black; " description="&lt;b&gt;ctg29_11&lt;/b&gt;&lt;br&gt;ctg29 11&lt;br&gt;Location: 13207 - 14005" locus_tag="ctg29_11" class="clusterblast-orf" id="dummy-1_q3_0_all"  />
<polygon points="120,35 125,30 133,30 133,40 125,40 120,35 " style="fill:#d85015; stroke-width:1; stroke:black; " description="&lt;b&gt;ctg29_12&lt;/b&gt;&lt;br&gt;ctg29 12&lt;br&gt;Location: 14020 - 15025" locus_tag="ctg29_12" class="clusterblast-orf" id="dummy-1_q4_0_all"  />
<polygon points="134,40 141,40 146,35 141,30 134,30 134,40 " style="fill:#3cd815; stroke-width:1; stroke:black; " description="&lt;b&gt;ctg29_13&lt;/b&gt;&lt;br&gt;ctg29 13&lt;br&gt;Location: 15138 - 16032" locus_tag="ctg29_13" class="clusterblast-orf" id="dummy-1_q5_0_all"  />
<polygon points="147,35 152,30 163,30 163,40 152,40 147,35 " style="fill:#159ed8; stroke-width:1; stroke:black; " description="&lt;b&gt;ctg29_14&lt;/b&gt;&lt;br&gt;ctg29 14&lt;br&gt;Location: 16144 - 17440" locus_tag="ctg29_14" class="clusterblast-orf" id="dummy-1_q6_0_all"  />
<polygon points="163,35 168,30 177,30 177,40 168,40 163,35 " style="fill:#b115d8; stroke-width:1; stroke:black; " description="&lt;b&gt;ctg29_15&lt;/b&gt;&lt;br&gt;ctg29 15&lt;br&gt;Location: 17436 - 18525" locus_tag="ctg29_15" class="clusterblast-orf" id="dummy-1_q7_0_all"  />
<polygon points="177,35 182,30 195,30 195,40 182,40 177,35 " style="fill:#d88a15; stroke-width:1; stroke:black; " description="&lt;b&gt;ctg29_16&lt;/b&gt;&lt;br&gt;ctg29 16&lt;br&gt;Location: 18547 - 19906" locus_tag="ctg29_16" class="clusterblast-orf" id="dummy-1_q8_0_all"  />
<polygon points="198,40 203,40 208,35 203,30 198,30 198,40 " style="fill:#15d829; stroke-width:1; stroke:black; " description="&lt;b&gt;ctg29_17&lt;/b&gt;&lt;br&gt;ctg29 17&lt;br&gt;Location: 20143 - 20941" locus_tag="ctg29_17" class="clusterblast-orf" id="dummy-1_q9_0_all"  />
<polygon points="209,40 231,40 236,35 231,30 209,30 209,40 " style="fill:#1563d8; stroke-width:1; stroke:black; " description="&lt;b&gt;ctg29_18&lt;/b&gt;&lt;br&gt;ctg29 18&lt;br&gt;Location: 21046 - 23188" locus_tag="ctg29_18" class="clusterblast-orf" id="dummy-1_q10_0_all"  />
<polygon points="237,35 242,30 243,30 243,40 242,40 237,35 " style="fill:#d815c5; stroke-width:1; stroke:black; " description="&lt;b&gt;ctg29_19&lt;/b&gt;&lt;br&gt;ctg29 19&lt;br&gt;Location: 23233 - 23704" locus_tag="ctg29_19" class="clusterblast-orf" id="dummy-1_q11_0_all"  />
<polygon points="244,40 255,40 260,35 255,30 244,30 244,40 " style="fill:#d8c515; stroke-width:1; stroke:black; " description="&lt;b&gt;ctg29_20&lt;/b&gt;&lt;br&gt;ctg29 20&lt;br&gt;Location: 23827 - 25072" locus_tag="ctg29_20" class="clusterblast-orf" id="dummy-1_q12_0_all"  />
<polygon points="263,40 267,40 272,35 267,30 263,30 263,40 " style="fill:#15d863; stroke-width:1; stroke:black; " description="&lt;b&gt;ctg29_21&lt;/b&gt;&lt;br&gt;ctg29 21&lt;br&gt;Location: 25304 - 25982" locus_tag="ctg29_21" class="clusterblast-orf" id="dummy-1_q13_0_all"  />
<polygon points="273,35 278,30 298,30 298,40 278,40 273,35 " style="fill:#1529d8; stroke-width:1; stroke:black; " description="&lt;b&gt;ctg29_22&lt;/b&gt;&lt;br&gt;ctg29 22&lt;br&gt;Location: 26109 - 28068" locus_tag="ctg29_22" class="clusterblast-orf" id="dummy-1_q14_0_all"  />
<polygon points="298,35 303,30 312,30 312,40 303,40 298,35 " style="fill:#d8158a; stroke-width:1; stroke:black; " description="&lt;b&gt;ctg29_23&lt;/b&gt;&lt;br&gt;ctg29 23&lt;br&gt;Location: 28071 - 29214" locus_tag="ctg29_23" class="clusterblast-orf" id="dummy-1_q15_0_all"  />
<polygon points="312,35 317,30 456,30 456,40 317,40 312,35 " style="fill:#b1d815; stroke-width:1; stroke:black; " description="&lt;b&gt;ctg29_24&lt;/b&gt;&lt;br&gt;ctg29 24&lt;br&gt;Location: 29210 - 40547" locus_tag="ctg29_24" class="clusterblast-orf" id="dummy-1_q16_0_all"  />
<polygon points="456,35 461,30 619,30 619,40 461,40 456,35 " style="fill:#b1d815; stroke-width:1; stroke:black; " description="&lt;b&gt;ctg29_25&lt;/b&gt;&lt;br&gt;ctg29 25&lt;br&gt;Location: 40543 - 53455" locus_tag="ctg29_25" class="clusterblast-orf" id="dummy-1_q17_0_all"  />
<polygon points="622,35 627,30 629,30 629,40 627,40 622,35 " style="fill:#15d89e; stroke-width:1; stroke:black; " description="&lt;b&gt;ctg29_26&lt;/b&gt;&lt;br&gt;ctg29 26&lt;br&gt;Location: 53664 - 54210" locus_tag="ctg29_26" class="clusterblast-orf" id="dummy-1_q18_0_all"  />
<polygon points="630,35 635,30 643,30 643,40 635,40 630,35 " style="fill:#3c15d8; stroke-width:1; stroke:black; " description="&lt;b&gt;ctg29_27&lt;/b&gt;&lt;br&gt;ctg29 27&lt;br&gt;Location: 54329 - 55328" locus_tag="ctg29_27" class="clusterblast-orf" id="dummy-1_q19_0_all"  />
<polygon points="643,35 648,30 690,30 690,40 648,40 643,35 " style="fill:#3c15d8; stroke-width:1; stroke:black; " description="&lt;b&gt;ctg29_28&lt;/b&gt;&lt;br&gt;ctg29 28&lt;br&gt;Location: 55327 - 59089" locus_tag="ctg29_28" class="clusterblast-orf" id="dummy-1_q20_0_all"  />
<polygon points="690,35 695,30 704,30 704,40 695,40 690,35 " style="fill:#d81550; stroke-width:1; stroke:black; " description="&lt;b&gt;ctg29_29&lt;/b&gt;&lt;br&gt;ctg29 29&lt;br&gt;Location: 59092 - 60154" locus_tag="ctg29_29" class="clusterblast-orf" id="dummy-1_q21_0_all"  />
</g>
<g label="NZ_MSDI01000033" description="NZ_MSDI01000033 (35897-100142): Pseudomonas fluorescens strain E24 PF E24 con... (68% of genes show similarity), NRPS" class="clusterblast-cluster"  >
<text x="5" y="70" class="clusterblast-acc"  >
<a xlink:href="https://antismash-db.secondarymetabolites.org/area.html?record=NZ_MSDI01000033&amp;start=35897&amp;end=100142" target="_blank">NZ_MSDI01000033 (35897-100142)</a>: Pseudomonas fluorescens strain E24 PF E24 con... (68% of genes show similarity), NRPS</text>
<line x1="10" y1="85" x2="778.0" y2="85" style="stroke-width:1; stroke:grey; "  />
</g>
<g id="a1_000"  >
<polygon points="0,90 3,90 8,85 3,80 0,80 0,90 " style="fill:#d81515; stroke-width:1; stroke:black; " description="&lt;b&gt;BFW91_RS24105&lt;/b&gt;&lt;br&gt;response regulator transcription factor&lt;br&gt;Location: 99487 - 98804&lt;br&gt;&lt;br&gt;&lt;b&gt;BlastP hit with ctg29_8&lt;/b&gt;&lt;br&gt;Percentage identity: 100&lt;br&gt;Percentage coverage: 100&lt;br&gt;BLAST bit score: 438&lt;br&gt;E-value: 6.91e-157" locus_tag="BFW91_RS24105" class="clusterblast-orf" id="dummy-1_h1_1_0"  />
</g>
<g id="a1_001"  >
<polygon points="8,90 20,90 25,85 20,80 8,80 8,90 " style="fill:#77d815; stroke-width:1; stroke:black; " description="&lt;b&gt;BFW91_RS24100&lt;/b&gt;&lt;br&gt;HAMP domain-containing histidine kinase&lt;br&gt;Location: 98826 - 97435&lt;br&gt;&lt;br&gt;&lt;b&gt;BlastP hit with ctg29_9&lt;/b&gt;&lt;br&gt;Percentage identity: 98&lt;br&gt;Percentage coverage: 100&lt;br&gt;BLAST bit score: 900&lt;br&gt;E-value: 0.0" locus_tag="BFW91_RS24100" class="clusterblast-orf" id="dummy-1_h1_1_1"  />
</g>
<g id="a1_002"  >
<polygon points="27,85 32,80 32,80 32,90 32,90 27,85 " style="fill:#15d8d8; stroke-width:1; stroke:black; " description="&lt;b&gt;BFW91_RS24095&lt;/b&gt;&lt;br&gt;SRPBCC family protein&lt;br&gt;Location: 97302 - 96886&lt;br&gt;&lt;br&gt;&lt;b&gt;BlastP hit with ctg29_10&lt;/b&gt;&lt;br&gt;Percentage identity: 97&lt;br&gt;Percentage coverage: 100&lt;br&gt;BLAST bit score: 224&lt;br&gt;E-value: 1.45e-75" locus_tag="BFW91_RS24095" class="clusterblast-orf" id="dummy-1_h1_1_2"  />
</g>
<g id="a1_003"  >
<polygon points="33,85 38,80 43,80 43,90 38,90 33,85 " style="fill:#7715d8; stroke-width:1; stroke:black; " description="&lt;b&gt;BFW91_RS24090&lt;/b&gt;&lt;br&gt;SDR family oxidoreductase&lt;br&gt;Location: 96858 - 96061&lt;br&gt;&lt;br&gt;&lt;b&gt;BlastP hit with ctg29_11&lt;/b&gt;&lt;br&gt;Percentage identity: 99&lt;br&gt;Percentage coverage: 100&lt;br&gt;BLAST bit score: 493&lt;br&gt;E-value: 2.04e-177" locus_tag="BFW91_RS24090" class="clusterblast-orf" id="dummy-1_h1_1_3"  />
</g>
<g id="a1_004"  >
<polygon points="43,85 46,80 46,90 43,85 " style="fill:#d85015; stroke-width:1; stroke:black; " description="&lt;b&gt;BFW91_RS24085&lt;/b&gt;&lt;br&gt;aldo/keto reductase&lt;br&gt;Location: 96045 - 95818&lt;br&gt;&lt;br&gt;&lt;b&gt;BlastP hit with ctg29_12&lt;/b&gt;&lt;br&gt;Percentage identity: 95&lt;br&gt;Percentage coverage: 22&lt;br&gt;BLAST bit score: 131&lt;br&gt;E-value: 1.83e-36" locus_tag="BFW91_RS24085" class="clusterblast-orf" id="dummy-1_h1_1_4"  />
</g>
<g id="a1_005"  >
<polygon points="46,90 48,90 53,85 48,80 46,80 46,90 " style="fill:#3cd815; stroke-width:1; stroke:black; " description="&lt;b&gt;BFW91_RS24080&lt;/b&gt;&lt;br&gt;hypothetical protein&lt;br&gt;Location: 95810 - 95284&lt;br&gt;&lt;br&gt;&lt;b&gt;BlastP hit with ctg29_13&lt;/b&gt;&lt;br&gt;Percentage identity: 92&lt;br&gt;Percentage coverage: 29&lt;br&gt;BLAST bit score: 155&lt;br&gt;E-value: 6.08e-46" locus_tag="BFW91_RS24080" class="clusterblast-orf" id="dummy-1_h1_1_5"  />
</g>
<g id="a1_006"  >
<polygon points="54,85 59,80 70,80 70,90 59,90 54,85 " style="fill:#159ed8; stroke-width:1; stroke:black; " description="&lt;b&gt;BFW91_RS24075&lt;/b&gt;&lt;br&gt;FAD-binding oxidoreductase&lt;br&gt;Location: 95170 - 93875&lt;br&gt;&lt;br&gt;&lt;b&gt;BlastP hit with ctg29_14&lt;/b&gt;&lt;br&gt;Percentage identity: 98&lt;br&gt;Percentage coverage: 100&lt;br&gt;BLAST bit score: 857&lt;br&gt;E-value: 1.51e-315" locus_tag="BFW91_RS24075" class="clusterblast-orf" id="dummy-1_h1_1_6"  />
</g>
<g id="a1_007"  >
<polygon points="70,85 75,80 84,80 84,90 75,90 70,85 " style="fill:#b115d8; stroke-width:1; stroke:black; " description="&lt;b&gt;BFW91_RS24070&lt;/b&gt;&lt;br&gt;polyamine ABC transporter substrate-binding protein&lt;br&gt;Location: 93878 - 92790&lt;br&gt;&lt;br&gt;&lt;b&gt;BlastP hit with ctg29_15&lt;/b&gt;&lt;br&gt;Percentage identity: 99&lt;br&gt;Percentage coverage: 100&lt;br&gt;BLAST bit score: 721&lt;br&gt;E-value: 2.18e-264" locus_tag="BFW91_RS24070" class="clusterblast-orf" id="dummy-1_h1_1_7"  />
</g>
<g id="a1_008"  >
<polygon points="85,85 90,80 102,80 102,90 90,90 85,85 " style="fill:#d88a15; stroke-width:1; stroke:black; " description="&lt;b&gt;BFW91_RS24065&lt;/b&gt;&lt;br&gt;glutamine synthetase&lt;br&gt;Location: 92767 - 91409&lt;br&gt;&lt;br&gt;&lt;b&gt;BlastP hit with ctg29_16&lt;/b&gt;&lt;br&gt;Percentage identity: 100&lt;br&gt;Percentage coverage: 100&lt;br&gt;BLAST bit score: 923&lt;br&gt;E-value: 0.0" locus_tag="BFW91_RS24065" class="clusterblast-orf" id="dummy-1_h1_1_8"  />
</g>
<g id="a1_009"  >
<polygon points="103,90 110,90 115,85 110,80 103,80 103,90 " style="fill:#15d829; stroke-width:1; stroke:black; " description="&lt;b&gt;BFW91_RS24060&lt;/b&gt;&lt;br&gt;helix-turn-helix domain-containing protein&lt;br&gt;Location: 91270 - 90374&lt;br&gt;&lt;br&gt;&lt;b&gt;BlastP hit with ctg29_17&lt;/b&gt;&lt;br&gt;Percentage identity: 99&lt;br&gt;Percentage coverage: 100&lt;br&gt;BLAST bit score: 531&lt;br&gt;E-value: 5.55e-192" locus_tag="BFW91_RS24060" class="clusterblast-orf" id="dummy-1_h1_1_9"  />
</g>
<g id="a1_0010"  >
<polygon points="116,90 138,90 143,85 138,80 116,80 116,90 " style="fill:#1563d8; stroke-width:1; stroke:black; " description="&lt;b&gt;BFW91_RS24055&lt;/b&gt;&lt;br&gt;TonB-dependent siderophore receptor&lt;br&gt;Location: 90268 - 88127&lt;br&gt;&lt;br&gt;&lt;b&gt;BlastP hit with ctg29_18&lt;/b&gt;&lt;br&gt;Percentage identity: 97&lt;br&gt;Percentage coverage: 100&lt;br&gt;BLAST bit score: 1397&lt;br&gt;E-value: 0.0" locus_tag="BFW91_RS24055" class="clusterblast-orf" id="dummy-1_h1_1_10"  />
</g>
<g id="a1_0011"  >
<polygon points="143,85 148,80 157,80 157,90 148,90 143,85 " style="fill:white; stroke-width:1; stroke:black; " description="&lt;b&gt;BFW91_RS24050&lt;/b&gt;&lt;br&gt;MFS transporter&lt;br&gt;Location: 88137 - 87007" locus_tag="BFW91_RS24050" class="clusterblast-orf" id="dummy-1_h1_1_11"  />
</g>
<g id="a1_0012"  >
<polygon points="159,90 163,90 168,85 163,80 159,80 159,90 " style="fill:white; stroke-width:1; stroke:black; " description="&lt;b&gt;BFW91_RS24045&lt;/b&gt;&lt;br&gt;helix-turn-helix transcriptional regulator&lt;br&gt;Location: 86908 - 86138" locus_tag="BFW91_RS24045" class="clusterblast-orf" id="dummy-1_h1_1_12"  />
</g>
<g id="a1_0013"  >
<polygon points="169,85 174,80 175,80 175,90 174,90 169,85 " style="fill:#d815c5; stroke-width:1; stroke:black; " description="&lt;b&gt;BFW91_RS24040&lt;/b&gt;&lt;br&gt;Lrp/AsnC family transcriptional regulator&lt;br&gt;Location: 86060 - 85590&lt;br&gt;&lt;br&gt;&lt;b&gt;BlastP hit with ctg29_19&lt;/b&gt;&lt;br&gt;Percentage identity: 99&lt;br&gt;Percentage coverage: 100&lt;br&gt;BLAST bit score: 305&lt;br&gt;E-value: 2.52e-106" locus_tag="BFW91_RS24040" class="clusterblast-orf" id="dummy-1_h1_1_13"  />
</g>
<g id="a1_0014"  >
<polygon points="177,90 188,90 193,85 188,80 177,80 177,90 " style="fill:#d8c515; stroke-width:1; stroke:black; " description="&lt;b&gt;BFW91_RS24035&lt;/b&gt;&lt;br&gt;methionine gamma-lyase&lt;br&gt;Location: 85466 - 84222&lt;br&gt;&lt;br&gt;&lt;b&gt;BlastP hit with ctg29_20&lt;/b&gt;&lt;br&gt;Percentage identity: 98&lt;br&gt;Percentage coverage: 100&lt;br&gt;BLAST bit score: 808&lt;br&gt;E-value: 6.42e-297" locus_tag="BFW91_RS24035" class="clusterblast-orf" id="dummy-1_h1_1_14"  />
</g>
<g id="a1_0015"  >
<polygon points="196,90 199,90 204,85 199,80 196,80 196,90 " style="fill:#15d863; stroke-width:1; stroke:black; " description="&lt;b&gt;BFW91_RS24030&lt;/b&gt;&lt;br&gt;helix-turn-helix transcriptional regulator&lt;br&gt;Location: 83989 - 83312&lt;br&gt;&lt;br&gt;&lt;b&gt;BlastP hit with ctg29_21&lt;/b&gt;&lt;br&gt;Percentage identity: 95&lt;br&gt;Percentage coverage: 100&lt;br&gt;BLAST bit score: 414&lt;br&gt;E-value: 3.38e-147" locus_tag="BFW91_RS24030" class="clusterblast-orf" id="dummy-1_h1_1_15"  />
</g>
<g id="a1_0016"  >
<polygon points="205,85 210,80 230,80 230,90 210,90 205,85 " style="fill:#1529d8; stroke-width:1; stroke:black; " description="&lt;b&gt;BFW91_RS24025&lt;/b&gt;&lt;br&gt;MacB family efflux pump subunit&lt;br&gt;Location: 83243 - 81285&lt;br&gt;&lt;br&gt;&lt;b&gt;BlastP hit with ctg29_22&lt;/b&gt;&lt;br&gt;Percentage identity: 98&lt;br&gt;Percentage coverage: 100&lt;br&gt;BLAST bit score: 1216&lt;br&gt;E-value: 0.0" locus_tag="BFW91_RS24025" class="clusterblast-orf" id="dummy-1_h1_1_16"  />
</g>
<g id="a1_0017"  >
<polygon points="230,85 235,80 244,80 244,90 235,90 230,85 " style="fill:#d8158a; stroke-width:1; stroke:black; " description="&lt;b&gt;BFW91_RS24020&lt;/b&gt;&lt;br&gt;macrolide transporter subunit MacA&lt;br&gt;Location: 81281 - 80160&lt;br&gt;&lt;br&gt;&lt;b&gt;BlastP hit with ctg29_23&lt;/b&gt;&lt;br&gt;Percentage identity: 97&lt;br&gt;Percentage coverage: 98&lt;br&gt;BLAST bit score: 669&lt;br&gt;E-value: 3.61e-243" locus_tag="BFW91_RS24020" class="clusterblast-orf" id="dummy-1_h1_1_17"  />
</g>
<g id="a1_0018"  >
<polygon points="244,85 249,80 388,80 388,90 249,90 244,85 " style="fill:#b1d815; stroke-width:1; stroke:black; " description="&lt;b&gt;BFW91_RS24015&lt;/b&gt;&lt;br&gt;amino acid adenylation domain-containing protein&lt;br&gt;Location: 80142 - 68806&lt;br&gt;&lt;br&gt;&lt;b&gt;BlastP hit with ctg29_24&lt;/b&gt;&lt;br&gt;Percentage identity: 96&lt;br&gt;Percentage coverage: 100&lt;br&gt;BLAST bit score: 7174&lt;br&gt;E-value: 0.0&lt;br&gt;&lt;br&gt;&lt;b&gt;BlastP hit with ctg29_25&lt;/b&gt;&lt;br&gt;Percentage identity: 60&lt;br&gt;Percentage coverage: 50&lt;br&gt;BLAST bit score: 2404&lt;br&gt;E-value: 0.0" locus_tag="BFW91_RS24015" class="clusterblast-orf" id="dummy-1_h1_1_18"  />
</g>
<g id="a1_0019"  >
<polygon points="388,85 393,80 551,80 551,90 393,90 388,85 " style="fill:#b1d815; stroke-width:1; stroke:black; " description="&lt;b&gt;BFW91_RS24010&lt;/b&gt;&lt;br&gt;non-ribosomal peptide synthetase&lt;br&gt;Location: 68809 - 55898&lt;br&gt;&lt;br&gt;&lt;b&gt;BlastP hit with ctg29_24&lt;/b&gt;&lt;br&gt;Percentage identity: 60&lt;br&gt;Percentage coverage: 57&lt;br&gt;BLAST bit score: 2402&lt;br&gt;E-value: 0.0&lt;br&gt;&lt;br&gt;&lt;b&gt;BlastP hit with ctg29_25&lt;/b&gt;&lt;br&gt;Percentage identity: 96&lt;br&gt;Percentage coverage: 100&lt;br&gt;BLAST bit score: 8103&lt;br&gt;E-value: 0.0" locus_tag="BFW91_RS24010" class="clusterblast-orf" id="dummy-1_h1_1_19"  />
</g>
<g id="a1_0020"  >
<polygon points="554,85 559,80 563,80 563,90 559,90 554,85 " style="fill:#15d89e; stroke-width:1; stroke:black; " description="&lt;b&gt;BFW91_RS24005&lt;/b&gt;&lt;br&gt;VWA domain-containing protein&lt;br&gt;Location: 55690 - 54950&lt;br&gt;&lt;br&gt;&lt;b&gt;BlastP hit with ctg29_26&lt;/b&gt;&lt;br&gt;Percentage identity: 92&lt;br&gt;Percentage coverage: 100&lt;br&gt;BLAST bit score: 327&lt;br&gt;E-value: 2.29e-113" locus_tag="BFW91_RS24005" class="clusterblast-orf" id="dummy-1_h1_1_20"  />
</g>
<g id="a1_0021"  >
<polygon points="562,85 567,80 575,80 575,90 567,90 562,85 " style="fill:#3c15d8; stroke-width:1; stroke:black; " description="&lt;b&gt;BFW91_RS24000&lt;/b&gt;&lt;br&gt;AAA family ATPase&lt;br&gt;Location: 55025 - 54027&lt;br&gt;&lt;br&gt;&lt;b&gt;BlastP hit with ctg29_27&lt;/b&gt;&lt;br&gt;Percentage identity: 97&lt;br&gt;Percentage coverage: 100&lt;br&gt;BLAST bit score: 634&lt;br&gt;E-value: 1.19e-230" locus_tag="BFW91_RS24000" class="clusterblast-orf" id="dummy-1_h1_1_21"  />
</g>
<g id="a1_0022"  >
<polygon points="575,85 580,80 622,80 622,90 580,90 575,85 " style="fill:#3c15d8; stroke-width:1; stroke:black; " description="&lt;b&gt;BFW91_RS23995&lt;/b&gt;&lt;br&gt;cobaltochelatase subunit CobN&lt;br&gt;Location: 54027 - 50266&lt;br&gt;&lt;br&gt;&lt;b&gt;BlastP hit with ctg29_28&lt;/b&gt;&lt;br&gt;Percentage identity: 98&lt;br&gt;Percentage coverage: 100&lt;br&gt;BLAST bit score: 2484&lt;br&gt;E-value: 0.0" locus_tag="BFW91_RS23995" class="clusterblast-orf" id="dummy-1_h1_1_22"  />
</g>
<g id="a1_0023"  >
<polygon points="622,85 627,80 636,80 636,90 627,90 622,85 " style="fill:#d81550; stroke-width:1; stroke:black; " description="&lt;b&gt;BFW91_RS23990&lt;/b&gt;&lt;br&gt;cobalamin biosynthesis protein CobW&lt;br&gt;Location: 50262 - 49141&lt;br&gt;&lt;br&gt;&lt;b&gt;BlastP hit with ctg29_29&lt;/b&gt;&lt;br&gt;Percentage identity: 98&lt;br&gt;Percentage coverage: 100&lt;br&gt;BLAST bit score: 637&lt;br&gt;E-value: 5.43e-231" locus_tag="BFW91_RS23990" class="clusterblast-orf" id="dummy-1_h1_1_23"  />
</g>
<g id="a1_0024"  >
<polygon points="641,90 645,90 650,85 645,80 641,80 641,90 " style="fill:white; stroke-width:1; stroke:black; " description="&lt;b&gt;BFW91_RS30300&lt;/b&gt;&lt;br&gt;hypothetical protein&lt;br&gt;Location: 48745 - 48068" locus_tag="BFW91_RS30300" class="clusterblast-orf" id="dummy-1_h1_1_24"  />
</g>
<g id="a1_0025"  >
<polygon points="655,90 657,85 655,80 655,90 " style="fill:white; stroke-width:1; stroke:black; " description="&lt;b&gt;BFW91_RS23980&lt;/b&gt;&lt;br&gt;CbtB-domain containing protein&lt;br&gt;Location: 47672 - 47484" locus_tag="BFW91_RS23980" class="clusterblast-orf" id="dummy-1_h1_1_25"  />
</g>
<g id="a1_0026"  >
<polygon points="657,90 661,90 666,85 661,80 657,80 657,90 " style="fill:white; stroke-width:1; stroke:black; " description="&lt;b&gt;BFW91_RS23975&lt;/b&gt;&lt;br&gt;CbtA family protein&lt;br&gt;Location: 47472 - 46771" locus_tag="BFW91_RS23975" class="clusterblast-orf" id="dummy-1_h1_1_26"  />
</g>
<g id="a1_0027"  >
<polygon points="666,90 666,90 671,85 666,80 666,80 666,90 " style="fill:white; stroke-width:1; stroke:black; " description="&lt;b&gt;BFW91_RS23970&lt;/b&gt;&lt;br&gt;cobalamin biosynthesis protein&lt;br&gt;Location: 46774 - 46382" locus_tag="BFW91_RS23970" class="clusterblast-orf" id="dummy-1_h1_1_27"  />
</g>
<g id="a1_0028"  >
<polygon points="672,90 677,90 682,85 677,80 672,80 672,90 " style="fill:white; stroke-width:1; stroke:black; " description="&lt;b&gt;BFW91_RS23965&lt;/b&gt;&lt;br&gt;precorrin-4 C(11)-methyltransferase&lt;br&gt;Location: 46311 - 45565" locus_tag="BFW91_RS23965" class="clusterblast-orf" id="dummy-1_h1_1_28"  />
</g>
<g id="a1_0029"  >
<polygon points="684,85 689,80 691,80 691,90 689,90 684,85 " style="fill:white; stroke-width:1; stroke:black; " description="&lt;b&gt;BFW91_RS23960&lt;/b&gt;&lt;br&gt;Fe-S biogenesis protein NfuA&lt;br&gt;Location: 45393 - 44809" locus_tag="BFW91_RS23960" class="clusterblast-orf" id="dummy-1_h1_1_29"  />
</g>
<g id="a1_0030"  >
<polygon points="701,85 706,80 730,80 730,90 706,90 701,85 " style="fill:white; stroke-width:1; stroke:black; " description="&lt;b&gt;BFW91_RS23955&lt;/b&gt;&lt;br&gt;fatty acid cis/trans isomerase&lt;br&gt;Location: 43994 - 41700" locus_tag="BFW91_RS23955" class="clusterblast-orf" id="dummy-1_h1_1_30"  />
</g>
<g id="a1_0031"  >
<polygon points="733,90 775,90 780,85 775,80 733,80 733,90 " style="fill:white; stroke-width:1; stroke:black; " description="&lt;b&gt;BFW91_RS23950&lt;/b&gt;&lt;br&gt;methionine synthase&lt;br&gt;Location: 41536 - 37826" locus_tag="BFW91_RS23950" class="clusterblast-orf" id="dummy-1_h1_1_31"  />
</g>
</svg>
