<svg xmlns="http://www.w3.org/2000/svg" xmlns:xlink="http://www.w3.org/1999/xlink" version="1.1" x="0" y="0" height="230" width="800" viewBox="0 0 800 230" preserveAspectRatio="none"  >
<g label="Query sequence" class="clusterblast-cluster"  >
<text x="5" y="20" class="clusterblast-acc"  >
Query sequence</text>
<line x1="10" y1="35" x2="778.0" y2="35" style="stroke-width:1; stroke:grey; "  />
<polygon points="2,40 8,40 13,35 8,30 2,30 2,40 " style="fill:#d81515; stroke-width:1; stroke:black; " description="&lt;b&gt;ctg2_73&lt;/b&gt;&lt;br&gt;ctg2 73&lt;br&gt;Location: 82556 - 83294" locus_tag="ctg2_73" class="clusterblast-orf" id="dummy-2_q0_0_all"  />
<polygon points="16,40 23,40 28,35 23,30 16,30 16,40 " style="fill:#77d815; stroke-width:1; stroke:black; " description="&lt;b&gt;ctg2_74&lt;/b&gt;&lt;br&gt;ctg2 74&lt;br&gt;Location: 83494 - 84307" locus_tag="ctg2_74" class="clusterblast-orf" id="dummy-2_q1_0_all"  />
<polygon points="28,40 32,35 28,30 28,40 " style="fill:#15d8d8; stroke-width:1; stroke:black; " description="&lt;b&gt;ctg2_75&lt;/b&gt;&lt;br&gt;ctg2 75&lt;br&gt;Location: 84310 - 84565" locus_tag="ctg2_75" class="clusterblast-orf" id="dummy-2_q2_0_all"  />
<polygon points="33,40 37,40 42,35 37,30 33,30 33,40 " style="fill:#7715d8; stroke-width:1; stroke:black; " description="&lt;b&gt;ctg2_76&lt;/b&gt;&lt;br&gt;ctg2 76&lt;br&gt;Location: 84661 - 85297" locus_tag="ctg2_76" class="clusterblast-orf" id="dummy-2_q3_0_all"  />
<polygon points="44,40 58,40 63,35 58,30 44,30 44,40 " style="fill:#d83215; stroke-width:1; stroke:black; " description="&lt;b&gt;ctg2_77&lt;/b&gt;&lt;br&gt;ctg2 77&lt;br&gt;Location: 85407 - 86697" locus_tag="ctg2_77" class="clusterblast-orf" id="dummy-2_q4_0_all"  />
<polygon points="67,40 69,35 67,30 67,40 " style="fill:#59d815; stroke-width:1; stroke:black; " description="&lt;b&gt;ctg2_78&lt;/b&gt;&lt;br&gt;ctg2 78&lt;br&gt;Location: 86917 - 87094" locus_tag="ctg2_78" class="clusterblast-orf" id="dummy-2_q5_0_all"  />
<polygon points="70,40 98,40 103,35 98,30 70,30 70,40 " style="fill:#15bbd8; stroke-width:1; stroke:black; " description="&lt;b&gt;ctg2_79&lt;/b&gt;&lt;br&gt;ctg2 79&lt;br&gt;Location: 87166 - 89332" locus_tag="ctg2_79" class="clusterblast-orf" id="dummy-2_q6_0_all"  />
<polygon points="103,40 118,40 123,35 118,30 103,30 103,40 " style="fill:#9415d8; stroke-width:1; stroke:black; " description="&lt;b&gt;ctg2_80&lt;/b&gt;&lt;br&gt;ctg2 80&lt;br&gt;Location: 89349 - 90696" locus_tag="ctg2_80" class="clusterblast-orf" id="dummy-2_q7_0_all"  />
<polygon points="125,35 128,30 128,40 125,35 " style="fill:#d85015; stroke-width:1; stroke:black; " description="&lt;b&gt;ctg2_81&lt;/b&gt;&lt;br&gt;ctg2 81&lt;br&gt;Location: 90812 - 91037" locus_tag="ctg2_81" class="clusterblast-orf" id="dummy-2_q8_0_all"  />
<polygon points="129,35 134,30 150,30 150,40 134,40 129,35 " style="fill:#3cd815; stroke-width:1; stroke:black; " description="&lt;b&gt;ctg2_82&lt;/b&gt;&lt;br&gt;ctg2 82&lt;br&gt;Location: 91120 - 92533" locus_tag="ctg2_82" class="clusterblast-orf" id="dummy-2_q9_0_all"  />
<polygon points="153,35 158,30 165,30 165,40 158,40 153,35 " style="fill:#159ed8; stroke-width:1; stroke:black; " description="&lt;b&gt;ctg2_83&lt;/b&gt;&lt;br&gt;ctg2 83&lt;br&gt;Location: 92729 - 93497" locus_tag="ctg2_83" class="clusterblast-orf" id="dummy-2_q10_0_all"  />
<polygon points="167,35 172,30 186,30 186,40 172,40 167,35 " style="fill:#b115d8; stroke-width:1; stroke:black; " description="&lt;b&gt;ctg2_84&lt;/b&gt;&lt;br&gt;ctg2 84&lt;br&gt;Location: 93621 - 94944" locus_tag="ctg2_84" class="clusterblast-orf" id="dummy-2_q11_0_all"  />
<polygon points="186,35 191,30 197,30 197,40 191,40 186,35 " style="fill:#d86d15; stroke-width:1; stroke:black; " description="&lt;b&gt;ctg2_85&lt;/b&gt;&lt;br&gt;ctg2 85&lt;br&gt;Location: 94940 - 95636" locus_tag="ctg2_85" class="clusterblast-orf" id="dummy-2_q12_0_all"  />
<polygon points="199,40 220,40 225,35 220,30 199,30 199,40 " style="fill:#1fd815; stroke-width:1; stroke:black; " description="&lt;b&gt;ctg2_86&lt;/b&gt;&lt;br&gt;ctg2 86&lt;br&gt;Location: 95812 - 97558" locus_tag="ctg2_86" class="clusterblast-orf" id="dummy-2_q13_0_all"  />
<polygon points="225,40 233,40 238,35 233,30 225,30 225,40 " style="fill:#1580d8; stroke-width:1; stroke:black; " description="&lt;b&gt;ctg2_87&lt;/b&gt;&lt;br&gt;ctg2 87&lt;br&gt;Location: 97557 - 98409" locus_tag="ctg2_87" class="clusterblast-orf" id="dummy-2_q14_0_all"  />
<polygon points="238,40 244,40 249,35 244,30 238,30 238,40 " style="fill:#ce15d8; stroke-width:1; stroke:black; " description="&lt;b&gt;ctg2_88&lt;/b&gt;&lt;br&gt;ctg2 88&lt;br&gt;Location: 98384 - 99146" locus_tag="ctg2_88" class="clusterblast-orf" id="dummy-2_q15_0_all"  />
<polygon points="252,35 257,30 268,30 268,40 257,40 252,35 " style="fill:#d88a15; stroke-width:1; stroke:black; " description="&lt;b&gt;ctg2_89&lt;/b&gt;&lt;br&gt;ctg2 89&lt;br&gt;Location: 99346 - 100411" locus_tag="ctg2_89" class="clusterblast-orf" id="dummy-2_q16_0_all"  />
<polygon points="268,35 273,30 278,30 278,40 273,40 268,35 " style="fill:#15d829; stroke-width:1; stroke:black; " description="&lt;b&gt;ctg2_90&lt;/b&gt;&lt;br&gt;ctg2 90&lt;br&gt;Location: 100451 - 101087" locus_tag="ctg2_90" class="clusterblast-orf" id="dummy-2_q17_0_all"  />
<polygon points="293,35 298,30 485,30 485,40 298,40 293,35 " style="fill:#1563d8; stroke-width:1; stroke:black; " description="&lt;b&gt;ctg2_91&lt;/b&gt;&lt;br&gt;ctg2 91&lt;br&gt;Location: 102107 - 115004" locus_tag="ctg2_91" class="clusterblast-orf" id="dummy-2_q18_0_all"  />
<polygon points="486,35 491,30 497,30 497,40 491,40 486,35 " style="fill:#d815c5; stroke-width:1; stroke:black; " description="&lt;b&gt;ctg2_92&lt;/b&gt;&lt;br&gt;ctg2 92&lt;br&gt;Location: 115054 - 115807" locus_tag="ctg2_92" class="clusterblast-orf" id="dummy-2_q19_0_all"  />
<polygon points="502,40 505,40 510,35 505,30 502,30 502,40 " style="fill:#d8a715; stroke-width:1; stroke:black; " description="&lt;b&gt;ctg2_93&lt;/b&gt;&lt;br&gt;ctg2 93&lt;br&gt;Location: 116107 - 116659" locus_tag="ctg2_93" class="clusterblast-orf" id="dummy-2_q20_0_all"  />
<polygon points="511,35 516,30 522,30 522,40 516,40 511,35 " style="fill:#15d846; stroke-width:1; stroke:black; " description="&lt;b&gt;ctg2_94&lt;/b&gt;&lt;br&gt;ctg2 94&lt;br&gt;Location: 116697 - 117486" locus_tag="ctg2_94" class="clusterblast-orf" id="dummy-2_q21_0_all"  />
<polygon points="524,35 529,30 533,30 533,40 529,40 524,35 " style="fill:#1546d8; stroke-width:1; stroke:black; " description="&lt;b&gt;ctg2_95&lt;/b&gt;&lt;br&gt;ctg2 95&lt;br&gt;Location: 117579 - 118203" locus_tag="ctg2_95" class="clusterblast-orf" id="dummy-2_q22_0_all"  />
<polygon points="535,40 557,40 562,35 557,30 535,30 535,40 " style="fill:#d815a7; stroke-width:1; stroke:black; " description="&lt;b&gt;ctg2_96&lt;/b&gt;&lt;br&gt;ctg2 96&lt;br&gt;Location: 118356 - 120135" locus_tag="ctg2_96" class="clusterblast-orf" id="dummy-2_q23_0_all"  />
<polygon points="562,40 570,40 575,35 570,30 562,30 562,40 " style="fill:#d8c515; stroke-width:1; stroke:black; " description="&lt;b&gt;ctg2_97&lt;/b&gt;&lt;br&gt;ctg2 97&lt;br&gt;Location: 120147 - 121020" locus_tag="ctg2_97" class="clusterblast-orf" id="dummy-2_q24_0_all"  />
<polygon points="575,40 594,40 599,35 594,30 575,30 575,40 " style="fill:#15d863; stroke-width:1; stroke:black; " description="&lt;b&gt;ctg2_98&lt;/b&gt;&lt;br&gt;ctg2 98&lt;br&gt;Location: 121023 - 122640" locus_tag="ctg2_98" class="clusterblast-orf" id="dummy-2_q25_0_all"  />
<polygon points="600,40 612,40 617,35 612,30 600,30 600,40 " style="fill:#1529d8; stroke-width:1; stroke:black; " description="&lt;b&gt;ctg2_99&lt;/b&gt;&lt;br&gt;ctg2 99&lt;br&gt;Location: 122656 - 123814" locus_tag="ctg2_99" class="clusterblast-orf" id="dummy-2_q26_0_all"  />
<polygon points="617,40 623,40 628,35 623,30 617,30 617,40 " style="fill:#d8158a; stroke-width:1; stroke:black; " description="&lt;b&gt;ctg2_100&lt;/b&gt;&lt;br&gt;ctg2 100&lt;br&gt;Location: 123810 - 124578" locus_tag="ctg2_100" class="clusterblast-orf" id="dummy-2_q27_0_all"  />
<polygon points="630,40 654,40 659,35 654,30 630,30 630,40 " style="fill:#ced815; stroke-width:1; stroke:black; " description="&lt;b&gt;ctg2_101&lt;/b&gt;&lt;br&gt;ctg2 101&lt;br&gt;Location: 124689 - 126612" locus_tag="ctg2_101" class="clusterblast-orf" id="dummy-2_q28_0_all"  />
<polygon points="660,40 663,40 668,35 663,30 660,30 660,40 " style="fill:#15d880; stroke-width:1; stroke:black; " description="&lt;b&gt;ctg2_102&lt;/b&gt;&lt;br&gt;ctg2 102&lt;br&gt;Location: 126703 - 127246" locus_tag="ctg2_102" class="clusterblast-orf" id="dummy-2_q29_0_all"  />
<polygon points="669,40 673,35 669,30 669,40 " style="fill:#1f15d8; stroke-width:1; stroke:black; " description="&lt;b&gt;ctg2_103&lt;/b&gt;&lt;br&gt;ctg2 103&lt;br&gt;Location: 127311 - 127596" locus_tag="ctg2_103" class="clusterblast-orf" id="dummy-2_q30_0_all"  />
<polygon points="674,35 679,30 686,30 686,40 679,40 674,35 " style="fill:#d8156d; stroke-width:1; stroke:black; " description="&lt;b&gt;ctg2_104&lt;/b&gt;&lt;br&gt;ctg2 104&lt;br&gt;Location: 127660 - 128467" locus_tag="ctg2_104" class="clusterblast-orf" id="dummy-2_q31_0_all"  />
<polygon points="687,35 692,30 701,30 701,40 692,40 687,35 " style="fill:#b1d815; stroke-width:1; stroke:black; " description="&lt;b&gt;ctg2_105&lt;/b&gt;&lt;br&gt;ctg2 105&lt;br&gt;Location: 128505 - 129441" locus_tag="ctg2_105" class="clusterblast-orf" id="dummy-2_q32_0_all"  />
<polygon points="709,40 710,40 715,35 710,30 709,30 709,40 " style="fill:#15d89e; stroke-width:1; stroke:black; " description="&lt;b&gt;ctg2_106&lt;/b&gt;&lt;br&gt;ctg2 106&lt;br&gt;Location: 129974 - 130424" locus_tag="ctg2_106" class="clusterblast-orf" id="dummy-2_q33_0_all"  />
<polygon points="721,40 729,40 734,35 729,30 721,30 721,40 " style="fill:#3c15d8; stroke-width:1; stroke:black; " description="&lt;b&gt;ctg2_107&lt;/b&gt;&lt;br&gt;ctg2 107&lt;br&gt;Location: 130807 - 131701" locus_tag="ctg2_107" class="clusterblast-orf" id="dummy-2_q34_0_all"  />
<polygon points="734,40 739,40 744,35 739,30 734,30 734,40 " style="fill:#d81550; stroke-width:1; stroke:black; " description="&lt;b&gt;ctg2_108&lt;/b&gt;&lt;br&gt;ctg2 108&lt;br&gt;Location: 131697 - 132357" locus_tag="ctg2_108" class="clusterblast-orf" id="dummy-2_q35_0_all"  />
<polygon points="744,35 749,30 757,30 757,40 749,40 744,35 " style="fill:#94d815; stroke-width:1; stroke:black; " description="&lt;b&gt;ctg2_109&lt;/b&gt;&lt;br&gt;ctg2 109&lt;br&gt;Location: 132315 - 133236" locus_tag="ctg2_109" class="clusterblast-orf" id="dummy-2_q36_0_all"  />
<polygon points="759,35 764,30 767,30 767,40 764,40 759,35 " style="fill:#15d8bb; stroke-width:1; stroke:black; " description="&lt;b&gt;ctg2_110&lt;/b&gt;&lt;br&gt;ctg2 110&lt;br&gt;Location: 133326 - 133872" locus_tag="ctg2_110" class="clusterblast-orf" id="dummy-2_q37_0_all"  />
<polygon points="767,35 772,30 772,30 772,40 772,40 767,35 " style="fill:#5915d8; stroke-width:1; stroke:black; " description="&lt;b&gt;ctg2_111&lt;/b&gt;&lt;br&gt;ctg2 111&lt;br&gt;Location: 133904 - 134231" locus_tag="ctg2_111" class="clusterblast-orf" id="dummy-2_q38_0_all"  />
<polygon points="772,35 777,30 778,30 778,40 777,40 772,35 " style="fill:#d81532; stroke-width:1; stroke:black; " description="&lt;b&gt;ctg2_112&lt;/b&gt;&lt;br&gt;ctg2 112&lt;br&gt;Location: 134254 - 134605" locus_tag="ctg2_112" class="clusterblast-orf" id="dummy-2_q39_0_all"  />
</g>
<g label="NZ_CP046103" description="NZ_CP046103 (3497555-3550452): Pseudomonas sp. IB20 chromosome (92% of genes show similarity), NRPS" class="clusterblast-cluster"  >
<text x="5" y="70" class="clusterblast-acc"  >
<a xlink:href="https://antismash-db.secondarymetabolites.org/area.html?record=NZ_CP046103&amp;start=3497555&amp;end=3550452" target="_blank">NZ_CP046103 (3497555-3550452)</a>: Pseudomonas sp. IB20 chromosome (92% of genes show similarity), NRPS</text>
<line x1="10" y1="85" x2="778.0" y2="85" style="stroke-width:1; stroke:grey; "  />
</g>
<g id="a2_000"  >
<polygon points="0,90 5,90 10,85 5,80 0,80 0,90 " style="fill:#d81515; stroke-width:1; stroke:black; " description="&lt;b&gt;GJU48_RS16245&lt;/b&gt;&lt;br&gt;septum site-determining protein MinC&lt;br&gt;Location: 3498103 - 3498840&lt;br&gt;&lt;br&gt;&lt;b&gt;BlastP hit with ctg2_73&lt;/b&gt;&lt;br&gt;Percentage identity: 99&lt;br&gt;Percentage coverage: 100&lt;br&gt;BLAST bit score: 469&lt;br&gt;E-value: 1.23e-168" locus_tag="GJU48_RS16245" class="clusterblast-orf" id="dummy-2_h2_4_0"  />
</g>
<g id="a2_001"  >
<polygon points="13,90 21,90 26,85 21,80 13,80 13,90 " style="fill:#77d815; stroke-width:1; stroke:black; " description="&lt;b&gt;GJU48_RS16250&lt;/b&gt;&lt;br&gt;septum site-determining protein MinD&lt;br&gt;Location: 3499041 - 3499853&lt;br&gt;&lt;br&gt;&lt;b&gt;BlastP hit with ctg2_74&lt;/b&gt;&lt;br&gt;Percentage identity: 100&lt;br&gt;Percentage coverage: 100&lt;br&gt;BLAST bit score: 521&lt;br&gt;E-value: 2.23e-188" locus_tag="GJU48_RS16250" class="clusterblast-orf" id="dummy-2_h2_4_1"  />
</g>
<g id="a2_002"  >
<polygon points="26,90 29,85 26,80 26,90 " style="fill:#15d8d8; stroke-width:1; stroke:black; " description="&lt;b&gt;GJU48_RS16255&lt;/b&gt;&lt;br&gt;cell division topological specificity factor MinE&lt;br&gt;Location: 3499857 - 3500111&lt;br&gt;&lt;br&gt;&lt;b&gt;BlastP hit with ctg2_75&lt;/b&gt;&lt;br&gt;Percentage identity: 100&lt;br&gt;Percentage coverage: 100&lt;br&gt;BLAST bit score: 169&lt;br&gt;E-value: 6.09e-55" locus_tag="GJU48_RS16255" class="clusterblast-orf" id="dummy-2_h2_4_2"  />
</g>
<g id="a2_003"  >
<polygon points="31,90 35,90 40,85 35,80 31,80 31,90 " style="fill:#7715d8; stroke-width:1; stroke:black; " description="&lt;b&gt;GJU48_RS16260&lt;/b&gt;&lt;br&gt;RluA family pseudouridine synthase&lt;br&gt;Location: 3500208 - 3500843&lt;br&gt;&lt;br&gt;&lt;b&gt;BlastP hit with ctg2_76&lt;/b&gt;&lt;br&gt;Percentage identity: 100&lt;br&gt;Percentage coverage: 100&lt;br&gt;BLAST bit score: 449&lt;br&gt;E-value: 1.54e-161" locus_tag="GJU48_RS16260" class="clusterblast-orf" id="dummy-2_h2_4_3"  />
</g>
<g id="a2_004"  >
<polygon points="42,90 56,90 61,85 56,80 42,80 42,90 " style="fill:#d83215; stroke-width:1; stroke:black; " description="&lt;b&gt;GJU48_RS16265&lt;/b&gt;&lt;br&gt;M18 family aminopeptidase&lt;br&gt;Location: 3500942 - 3502231&lt;br&gt;&lt;br&gt;&lt;b&gt;BlastP hit with ctg2_77&lt;/b&gt;&lt;br&gt;Percentage identity: 100&lt;br&gt;Percentage coverage: 100&lt;br&gt;BLAST bit score: 869&lt;br&gt;E-value: 0.0" locus_tag="GJU48_RS16265" class="clusterblast-orf" id="dummy-2_h2_4_4"  />
</g>
<g id="a2_005"  >
<polygon points="64,90 67,85 64,80 64,90 " style="fill:#59d815; stroke-width:1; stroke:black; " description="&lt;b&gt;GJU48_RS24940&lt;/b&gt;&lt;br&gt;hypothetical protein&lt;br&gt;Location: 3502454 - 3502621&lt;br&gt;&lt;br&gt;&lt;b&gt;BlastP hit with ctg2_78&lt;/b&gt;&lt;br&gt;Percentage identity: 96&lt;br&gt;Percentage coverage: 95&lt;br&gt;BLAST bit score: 102&lt;br&gt;E-value: 4.72e-29" locus_tag="GJU48_RS24940" class="clusterblast-orf" id="dummy-2_h2_4_5"  />
</g>
<g id="a2_006"  >
<polygon points="68,90 95,90 100,85 95,80 68,80 68,90 " style="fill:#15bbd8; stroke-width:1; stroke:black; " description="&lt;b&gt;GJU48_RS16270&lt;/b&gt;&lt;br&gt;mechanosensitive ion channel family protein&lt;br&gt;Location: 3502694 - 3504859&lt;br&gt;&lt;br&gt;&lt;b&gt;BlastP hit with ctg2_79&lt;/b&gt;&lt;br&gt;Percentage identity: 95&lt;br&gt;Percentage coverage: 100&lt;br&gt;BLAST bit score: 1306&lt;br&gt;E-value: 0.0" locus_tag="GJU48_RS16270" class="clusterblast-orf" id="dummy-2_h2_4_6"  />
</g>
<g id="a2_007"  >
<polygon points="100,90 116,90 121,85 116,80 100,80 100,90 " style="fill:#9415d8; stroke-width:1; stroke:black; " description="&lt;b&gt;GJU48_RS16275&lt;/b&gt;&lt;br&gt;amidohydrolase&lt;br&gt;Location: 3504876 - 3506222&lt;br&gt;&lt;br&gt;&lt;b&gt;BlastP hit with ctg2_80&lt;/b&gt;&lt;br&gt;Percentage identity: 96&lt;br&gt;Percentage coverage: 100&lt;br&gt;BLAST bit score: 851&lt;br&gt;E-value: 1.11e-312" locus_tag="GJU48_RS16275" class="clusterblast-orf" id="dummy-2_h2_4_7"  />
</g>
<g id="a2_008"  >
<polygon points="122,85 125,80 125,90 122,85 " style="fill:#d85015; stroke-width:1; stroke:black; " description="&lt;b&gt;GJU48_RS16280&lt;/b&gt;&lt;br&gt;MbtH family protein&lt;br&gt;Location: 3506328 - 3506552&lt;br&gt;&lt;br&gt;&lt;b&gt;BlastP hit with ctg2_81&lt;/b&gt;&lt;br&gt;Percentage identity: 97&lt;br&gt;Percentage coverage: 99&lt;br&gt;BLAST bit score: 151&lt;br&gt;E-value: 3.13e-48" locus_tag="GJU48_RS16280" class="clusterblast-orf" id="dummy-2_h2_4_8"  />
</g>
<g id="a2_009"  >
<polygon points="127,85 132,80 148,80 148,90 132,90 127,85 " style="fill:#3cd815; stroke-width:1; stroke:black; " description="&lt;b&gt;GJU48_RS16285&lt;/b&gt;&lt;br&gt;aspartate aminotransferase family protein&lt;br&gt;Location: 3506636 - 3508048&lt;br&gt;&lt;br&gt;&lt;b&gt;BlastP hit with ctg2_82&lt;/b&gt;&lt;br&gt;Percentage identity: 96&lt;br&gt;Percentage coverage: 100&lt;br&gt;BLAST bit score: 897&lt;br&gt;E-value: 0.0" locus_tag="GJU48_RS16285" class="clusterblast-orf" id="dummy-2_h2_4_9"  />
</g>
<g id="a2_0010"  >
<polygon points="151,85 156,80 162,80 162,90 156,90 151,85 " style="fill:#159ed8; stroke-width:1; stroke:black; " description="&lt;b&gt;GJU48_RS16290&lt;/b&gt;&lt;br&gt;N-acetylmuramoyl-L-alanine amidase&lt;br&gt;Location: 3508237 - 3509004&lt;br&gt;&lt;br&gt;&lt;b&gt;BlastP hit with ctg2_83&lt;/b&gt;&lt;br&gt;Percentage identity: 86&lt;br&gt;Percentage coverage: 99&lt;br&gt;BLAST bit score: 460&lt;br&gt;E-value: 1.21e-164" locus_tag="GJU48_RS16290" class="clusterblast-orf" id="dummy-2_h2_4_10"  />
</g>
<g id="a2_0011"  >
<polygon points="164,85 169,80 184,80 184,90 169,90 164,85 " style="fill:#b115d8; stroke-width:1; stroke:black; " description="&lt;b&gt;GJU48_RS16295&lt;/b&gt;&lt;br&gt;sensor histidine kinase N-terminal domain-containing protein&lt;br&gt;Location: 3509129 - 3510448&lt;br&gt;&lt;br&gt;&lt;b&gt;BlastP hit with ctg2_84&lt;/b&gt;&lt;br&gt;Percentage identity: 97&lt;br&gt;Percentage coverage: 100&lt;br&gt;BLAST bit score: 819&lt;br&gt;E-value: 1.79e-300" locus_tag="GJU48_RS16295" class="clusterblast-orf" id="dummy-2_h2_4_11"  />
</g>
<g id="a2_0012"  >
<polygon points="184,85 189,80 194,80 194,90 189,90 184,85 " style="fill:#d86d15; stroke-width:1; stroke:black; " description="&lt;b&gt;GJU48_RS16300&lt;/b&gt;&lt;br&gt;response regulator transcription factor&lt;br&gt;Location: 3510448 - 3511143&lt;br&gt;&lt;br&gt;&lt;b&gt;BlastP hit with ctg2_85&lt;/b&gt;&lt;br&gt;Percentage identity: 96&lt;br&gt;Percentage coverage: 100&lt;br&gt;BLAST bit score: 429&lt;br&gt;E-value: 6.08e-153" locus_tag="GJU48_RS16300" class="clusterblast-orf" id="dummy-2_h2_4_12"  />
</g>
<g id="a2_0013"  >
<polygon points="197,90 217,90 222,85 217,80 197,80 197,90 " style="fill:#1fd815; stroke-width:1; stroke:black; " description="&lt;b&gt;GJU48_RS16305&lt;/b&gt;&lt;br&gt;protein-disulfide reductase DsbD&lt;br&gt;Location: 3511320 - 3513053&lt;br&gt;&lt;br&gt;&lt;b&gt;BlastP hit with ctg2_86&lt;/b&gt;&lt;br&gt;Percentage identity: 94&lt;br&gt;Percentage coverage: 100&lt;br&gt;BLAST bit score: 1058&lt;br&gt;E-value: 0.0" locus_tag="GJU48_RS16305" class="clusterblast-orf" id="dummy-2_h2_4_13"  />
</g>
<g id="a2_0014"  >
<polygon points="222,90 230,90 235,85 230,80 222,80 222,90 " style="fill:#1580d8; stroke-width:1; stroke:black; " description="&lt;b&gt;GJU48_RS16310&lt;/b&gt;&lt;br&gt;TlpA family protein disulfide reductase&lt;br&gt;Location: 3513053 - 3513898&lt;br&gt;&lt;br&gt;&lt;b&gt;BlastP hit with ctg2_87&lt;/b&gt;&lt;br&gt;Percentage identity: 94&lt;br&gt;Percentage coverage: 100&lt;br&gt;BLAST bit score: 533&lt;br&gt;E-value: 2.15e-192" locus_tag="GJU48_RS16310" class="clusterblast-orf" id="dummy-2_h2_4_14"  />
</g>
<g id="a2_0015"  >
<polygon points="235,90 241,90 246,85 241,80 235,80 235,90 " style="fill:#ce15d8; stroke-width:1; stroke:black; " description="&lt;b&gt;GJU48_RS16315&lt;/b&gt;&lt;br&gt;thiol:disulfide interchange protein DsbG&lt;br&gt;Location: 3513874 - 3514635&lt;br&gt;&lt;br&gt;&lt;b&gt;BlastP hit with ctg2_88&lt;/b&gt;&lt;br&gt;Percentage identity: 93&lt;br&gt;Percentage coverage: 100&lt;br&gt;BLAST bit score: 470&lt;br&gt;E-value: 1.13e-168" locus_tag="GJU48_RS16315" class="clusterblast-orf" id="dummy-2_h2_4_15"  />
</g>
<g id="a2_0016"  >
<polygon points="249,85 254,80 265,80 265,90 254,90 249,85 " style="fill:#d88a15; stroke-width:1; stroke:black; " description="&lt;b&gt;GJU48_RS16320&lt;/b&gt;&lt;br&gt;chitinase&lt;br&gt;Location: 3514837 - 3515901&lt;br&gt;&lt;br&gt;&lt;b&gt;BlastP hit with ctg2_89&lt;/b&gt;&lt;br&gt;Percentage identity: 98&lt;br&gt;Percentage coverage: 100&lt;br&gt;BLAST bit score: 717&lt;br&gt;E-value: 5.53e-263" locus_tag="GJU48_RS16320" class="clusterblast-orf" id="dummy-2_h2_4_16"  />
</g>
<g id="a2_0017"  >
<polygon points="265,85 270,80 275,80 275,90 270,90 265,85 " style="fill:#15d829; stroke-width:1; stroke:black; " description="&lt;b&gt;GJU48_RS16325&lt;/b&gt;&lt;br&gt;lytic polysaccharide monooxygenase&lt;br&gt;Location: 3515942 - 3516577&lt;br&gt;&lt;br&gt;&lt;b&gt;BlastP hit with ctg2_90&lt;/b&gt;&lt;br&gt;Percentage identity: 98&lt;br&gt;Percentage coverage: 100&lt;br&gt;BLAST bit score: 438&lt;br&gt;E-value: 2.87e-157" locus_tag="GJU48_RS16325" class="clusterblast-orf" id="dummy-2_h2_4_17"  />
</g>
<g id="a2_0018"  >
<polygon points="286,90 289,85 286,80 286,90 " style="fill:white; stroke-width:1; stroke:black; " description="&lt;b&gt;GJU48_RS24945&lt;/b&gt;&lt;br&gt;IS5/IS1182 family transposase&lt;br&gt;Location: 3517299 - 3517489" locus_tag="GJU48_RS24945" class="clusterblast-orf" id="dummy-2_h2_4_18"  />
</g>
<g id="a2_0019"  >
<polygon points="290,85 295,80 482,80 482,90 295,90 290,85 " style="fill:#1563d8; stroke-width:1; stroke:black; " description="&lt;b&gt;GJU48_RS16330&lt;/b&gt;&lt;br&gt;non-ribosomal peptide synthetase&lt;br&gt;Location: 3517556 - 3530452&lt;br&gt;&lt;br&gt;&lt;b&gt;BlastP hit with ctg2_91&lt;/b&gt;&lt;br&gt;Percentage identity: 94&lt;br&gt;Percentage coverage: 100&lt;br&gt;BLAST bit score: 8084&lt;br&gt;E-value: 0.0" locus_tag="GJU48_RS16330" class="clusterblast-orf" id="dummy-2_h2_4_19"  />
</g>
<g id="a2_0020"  >
<polygon points="483,85 488,80 494,80 494,90 488,90 483,85 " style="fill:#d815c5; stroke-width:1; stroke:black; " description="&lt;b&gt;GJU48_RS16335&lt;/b&gt;&lt;br&gt;thioesterase&lt;br&gt;Location: 3530504 - 3531256&lt;br&gt;&lt;br&gt;&lt;b&gt;BlastP hit with ctg2_92&lt;/b&gt;&lt;br&gt;Percentage identity: 94&lt;br&gt;Percentage coverage: 100&lt;br&gt;BLAST bit score: 471&lt;br&gt;E-value: 4.45e-169" locus_tag="GJU48_RS16335" class="clusterblast-orf" id="dummy-2_h2_4_20"  />
</g>
<g id="a2_0021"  >
<polygon points="498,90 502,90 507,85 502,80 498,80 498,90 " style="fill:#d8a715; stroke-width:1; stroke:black; " description="&lt;b&gt;GJU48_RS16340&lt;/b&gt;&lt;br&gt;RNA polymerase factor sigma-70&lt;br&gt;Location: 3531557 - 3532108&lt;br&gt;&lt;br&gt;&lt;b&gt;BlastP hit with ctg2_93&lt;/b&gt;&lt;br&gt;Percentage identity: 98&lt;br&gt;Percentage coverage: 100&lt;br&gt;BLAST bit score: 358&lt;br&gt;E-value: 1.76e-126" locus_tag="GJU48_RS16340" class="clusterblast-orf" id="dummy-2_h2_4_21"  />
</g>
<g id="a2_0022"  >
<polygon points="507,85 512,80 519,80 519,90 512,90 507,85 " style="fill:#15d846; stroke-width:1; stroke:black; " description="&lt;b&gt;GJU48_RS16345&lt;/b&gt;&lt;br&gt;transporter substrate-binding domain-containing protein&lt;br&gt;Location: 3532141 - 3532929&lt;br&gt;&lt;br&gt;&lt;b&gt;BlastP hit with ctg2_94&lt;/b&gt;&lt;br&gt;Percentage identity: 93&lt;br&gt;Percentage coverage: 100&lt;br&gt;BLAST bit score: 494&lt;br&gt;E-value: 8.01e-178" locus_tag="GJU48_RS16345" class="clusterblast-orf" id="dummy-2_h2_4_22"  />
</g>
<g id="a2_0023"  >
<polygon points="520,85 525,80 529,80 529,90 525,90 520,85 " style="fill:#1546d8; stroke-width:1; stroke:black; " description="&lt;b&gt;GJU48_RS16350&lt;/b&gt;&lt;br&gt;TetR family transcriptional regulator&lt;br&gt;Location: 3533023 - 3533646&lt;br&gt;&lt;br&gt;&lt;b&gt;BlastP hit with ctg2_95&lt;/b&gt;&lt;br&gt;Percentage identity: 97&lt;br&gt;Percentage coverage: 100&lt;br&gt;BLAST bit score: 392&lt;br&gt;E-value: 2.95e-139" locus_tag="GJU48_RS16350" class="clusterblast-orf" id="dummy-2_h2_4_23"  />
</g>
<g id="a2_0024"  >
<polygon points="532,90 553,90 558,85 553,80 532,80 532,90 " style="fill:#d815a7; stroke-width:1; stroke:black; " description="&lt;b&gt;GJU48_RS16355&lt;/b&gt;&lt;br&gt;DUF1446 domain-containing protein&lt;br&gt;Location: 3533800 - 3535578&lt;br&gt;&lt;br&gt;&lt;b&gt;BlastP hit with ctg2_96&lt;/b&gt;&lt;br&gt;Percentage identity: 93&lt;br&gt;Percentage coverage: 100&lt;br&gt;BLAST bit score: 1112&lt;br&gt;E-value: 0.0" locus_tag="GJU48_RS16355" class="clusterblast-orf" id="dummy-2_h2_4_24"  />
</g>
<g id="a2_0025"  >
<polygon points="558,90 566,90 571,85 566,80 558,80 558,90 " style="fill:#d8c515; stroke-width:1; stroke:black; " description="&lt;b&gt;GJU48_RS16360&lt;/b&gt;&lt;br&gt;SDR family oxidoreductase&lt;br&gt;Location: 3535591 - 3536463&lt;br&gt;&lt;br&gt;&lt;b&gt;BlastP hit with ctg2_97&lt;/b&gt;&lt;br&gt;Percentage identity: 95&lt;br&gt;Percentage coverage: 100&lt;br&gt;BLAST bit score: 546&lt;br&gt;E-value: 1.84e-197" locus_tag="GJU48_RS16360" class="clusterblast-orf" id="dummy-2_h2_4_25"  />
</g>
<g id="a2_0026"  >
<polygon points="572,90 590,90 595,85 590,80 572,80 572,90 " style="fill:#15d863; stroke-width:1; stroke:black; " description="&lt;b&gt;GJU48_RS16365&lt;/b&gt;&lt;br&gt;acyl-CoA carboxylase subunit beta&lt;br&gt;Location: 3536467 - 3538053&lt;br&gt;&lt;br&gt;&lt;b&gt;BlastP hit with ctg2_98&lt;/b&gt;&lt;br&gt;Percentage identity: 97&lt;br&gt;Percentage coverage: 98&lt;br&gt;BLAST bit score: 1004&lt;br&gt;E-value: 0.0" locus_tag="GJU48_RS16365" class="clusterblast-orf" id="dummy-2_h2_4_26"  />
</g>
<g id="a2_0027"  >
<polygon points="596,90 608,90 613,85 608,80 596,80 596,90 " style="fill:#1529d8; stroke-width:1; stroke:black; " description="&lt;b&gt;GJU48_RS16370&lt;/b&gt;&lt;br&gt;acyl-CoA dehydrogenase family protein&lt;br&gt;Location: 3538091 - 3539248&lt;br&gt;&lt;br&gt;&lt;b&gt;BlastP hit with ctg2_99&lt;/b&gt;&lt;br&gt;Percentage identity: 99&lt;br&gt;Percentage coverage: 100&lt;br&gt;BLAST bit score: 775&lt;br&gt;E-value: 1.21e-284" locus_tag="GJU48_RS16370" class="clusterblast-orf" id="dummy-2_h2_4_27"  />
</g>
<g id="a2_0028"  >
<polygon points="613,90 619,90 624,85 619,80 613,80 613,90 " style="fill:#d8158a; stroke-width:1; stroke:black; " description="&lt;b&gt;GJU48_RS16375&lt;/b&gt;&lt;br&gt;enoyl-CoA hydratase/isomerase family protein&lt;br&gt;Location: 3539245 - 3540012&lt;br&gt;&lt;br&gt;&lt;b&gt;BlastP hit with ctg2_100&lt;/b&gt;&lt;br&gt;Percentage identity: 93&lt;br&gt;Percentage coverage: 100&lt;br&gt;BLAST bit score: 462&lt;br&gt;E-value: 2.09e-165" locus_tag="GJU48_RS16375" class="clusterblast-orf" id="dummy-2_h2_4_28"  />
</g>
<g id="a2_0029"  >
<polygon points="626,90 650,90 655,85 650,80 626,80 626,90 " style="fill:#ced815; stroke-width:1; stroke:black; " description="&lt;b&gt;GJU48_RS16380&lt;/b&gt;&lt;br&gt;acetyl/propionyl/methylcrotonyl-CoA carboxylase subunit alpha&lt;br&gt;Location: 3540123 - 3542051&lt;br&gt;&lt;br&gt;&lt;b&gt;BlastP hit with ctg2_101&lt;/b&gt;&lt;br&gt;Percentage identity: 88&lt;br&gt;Percentage coverage: 96&lt;br&gt;BLAST bit score: 1090&lt;br&gt;E-value: 0.0" locus_tag="GJU48_RS16380" class="clusterblast-orf" id="dummy-2_h2_4_29"  />
</g>
<g id="a2_0030"  >
<polygon points="656,90 659,90 664,85 659,80 656,80 656,90 " style="fill:#15d880; stroke-width:1; stroke:black; " description="&lt;b&gt;GJU48_RS16385&lt;/b&gt;&lt;br&gt;exonuclease&lt;br&gt;Location: 3542131 - 3542673&lt;br&gt;&lt;br&gt;&lt;b&gt;BlastP hit with ctg2_102&lt;/b&gt;&lt;br&gt;Percentage identity: 97&lt;br&gt;Percentage coverage: 100&lt;br&gt;BLAST bit score: 369&lt;br&gt;E-value: 3.72e-131" locus_tag="GJU48_RS16385" class="clusterblast-orf" id="dummy-2_h2_4_30"  />
</g>
<g id="a2_0031"  >
<polygon points="665,90 669,85 665,80 665,90 " style="fill:#1f15d8; stroke-width:1; stroke:black; " description="&lt;b&gt;GJU48_RS16390&lt;/b&gt;&lt;br&gt;pyrimidine/purine nucleoside phosphorylase&lt;br&gt;Location: 3542737 - 3543021&lt;br&gt;&lt;br&gt;&lt;b&gt;BlastP hit with ctg2_103&lt;/b&gt;&lt;br&gt;Percentage identity: 97&lt;br&gt;Percentage coverage: 100&lt;br&gt;BLAST bit score: 187&lt;br&gt;E-value: 5.94e-62" locus_tag="GJU48_RS16390" class="clusterblast-orf" id="dummy-2_h2_4_31"  />
</g>
<g id="a2_0032"  >
<polygon points="670,85 675,80 682,80 682,90 675,90 670,85 " style="fill:#d8156d; stroke-width:1; stroke:black; " description="&lt;b&gt;GJU48_RS16395&lt;/b&gt;&lt;br&gt;MOSC domain-containing protein&lt;br&gt;Location: 3543086 - 3543892&lt;br&gt;&lt;br&gt;&lt;b&gt;BlastP hit with ctg2_104&lt;/b&gt;&lt;br&gt;Percentage identity: 85&lt;br&gt;Percentage coverage: 100&lt;br&gt;BLAST bit score: 469&lt;br&gt;E-value: 1.45e-167" locus_tag="GJU48_RS16395" class="clusterblast-orf" id="dummy-2_h2_4_32"  />
</g>
<g id="a2_0033"  >
<polygon points="683,85 688,80 697,80 697,90 688,90 683,85 " style="fill:#b1d815; stroke-width:1; stroke:black; " description="&lt;b&gt;GJU48_RS16400&lt;/b&gt;&lt;br&gt;chemotaxis protein CheV&lt;br&gt;Location: 3543939 - 3544859&lt;br&gt;&lt;br&gt;&lt;b&gt;BlastP hit with ctg2_105&lt;/b&gt;&lt;br&gt;Percentage identity: 99&lt;br&gt;Percentage coverage: 99&lt;br&gt;BLAST bit score: 594&lt;br&gt;E-value: 1.01e-215" locus_tag="GJU48_RS16400" class="clusterblast-orf" id="dummy-2_h2_4_33"  />
</g>
<g id="a2_0034"  >
<polygon points="705,90 706,90 711,85 706,80 705,80 705,90 " style="fill:#15d89e; stroke-width:1; stroke:black; " description="&lt;b&gt;GJU48_RS16405&lt;/b&gt;&lt;br&gt;hypothetical protein&lt;br&gt;Location: 3545394 - 3545843&lt;br&gt;&lt;br&gt;&lt;b&gt;BlastP hit with ctg2_106&lt;/b&gt;&lt;br&gt;Percentage identity: 90&lt;br&gt;Percentage coverage: 100&lt;br&gt;BLAST bit score: 266&lt;br&gt;E-value: 1.86e-91" locus_tag="GJU48_RS16405" class="clusterblast-orf" id="dummy-2_h2_4_34"  />
</g>
<g id="a2_0035"  >
<polygon points="717,90 725,90 730,85 725,80 717,80 717,90 " style="fill:#3c15d8; stroke-width:1; stroke:black; " description="&lt;b&gt;GJU48_RS16410&lt;/b&gt;&lt;br&gt;sensor histidine kinase&lt;br&gt;Location: 3546229 - 3547122&lt;br&gt;&lt;br&gt;&lt;b&gt;BlastP hit with ctg2_107&lt;/b&gt;&lt;br&gt;Percentage identity: 94&lt;br&gt;Percentage coverage: 100&lt;br&gt;BLAST bit score: 546&lt;br&gt;E-value: 3.15e-197" locus_tag="GJU48_RS16410" class="clusterblast-orf" id="dummy-2_h2_4_35"  />
</g>
<g id="a2_0036"  >
<polygon points="730,90 735,90 740,85 735,80 730,80 730,90 " style="fill:#d81550; stroke-width:1; stroke:black; " description="&lt;b&gt;GJU48_RS16415&lt;/b&gt;&lt;br&gt;response regulator transcription factor&lt;br&gt;Location: 3547119 - 3547778&lt;br&gt;&lt;br&gt;&lt;b&gt;BlastP hit with ctg2_108&lt;/b&gt;&lt;br&gt;Percentage identity: 92&lt;br&gt;Percentage coverage: 100&lt;br&gt;BLAST bit score: 382&lt;br&gt;E-value: 4.75e-135" locus_tag="GJU48_RS16415" class="clusterblast-orf" id="dummy-2_h2_4_36"  />
</g>
<g id="a2_0037"  >
<polygon points="740,85 745,80 753,80 753,90 745,90 740,85 " style="fill:#94d815; stroke-width:1; stroke:black; " description="&lt;b&gt;GJU48_RS16420&lt;/b&gt;&lt;br&gt;lipid kinase YegS&lt;br&gt;Location: 3547737 - 3548657&lt;br&gt;&lt;br&gt;&lt;b&gt;BlastP hit with ctg2_109&lt;/b&gt;&lt;br&gt;Percentage identity: 96&lt;br&gt;Percentage coverage: 100&lt;br&gt;BLAST bit score: 585&lt;br&gt;E-value: 1.79e-212" locus_tag="GJU48_RS16420" class="clusterblast-orf" id="dummy-2_h2_4_37"  />
</g>
<g id="a2_0038"  >
<polygon points="755,85 760,80 763,80 763,90 760,90 755,85 " style="fill:#15d8bb; stroke-width:1; stroke:black; " description="&lt;b&gt;GJU48_RS16425&lt;/b&gt;&lt;br&gt;hypothetical protein&lt;br&gt;Location: 3548750 - 3549295&lt;br&gt;&lt;br&gt;&lt;b&gt;BlastP hit with ctg2_110&lt;/b&gt;&lt;br&gt;Percentage identity: 90&lt;br&gt;Percentage coverage: 100&lt;br&gt;BLAST bit score: 340&lt;br&gt;E-value: 1.1e-119" locus_tag="GJU48_RS16425" class="clusterblast-orf" id="dummy-2_h2_4_38"  />
</g>
<g id="a2_0039"  >
<polygon points="763,85 768,80 768,80 768,90 768,90 763,85 " style="fill:#5915d8; stroke-width:1; stroke:black; " description="&lt;b&gt;GJU48_RS16430&lt;/b&gt;&lt;br&gt;hypothetical protein&lt;br&gt;Location: 3549329 - 3549655&lt;br&gt;&lt;br&gt;&lt;b&gt;BlastP hit with ctg2_111&lt;/b&gt;&lt;br&gt;Percentage identity: 80&lt;br&gt;Percentage coverage: 100&lt;br&gt;BLAST bit score: 177&lt;br&gt;E-value: 2.16e-57" locus_tag="GJU48_RS16430" class="clusterblast-orf" id="dummy-2_h2_4_39"  />
</g>
<g id="a2_0040"  >
<polygon points="770,90 774,85 770,80 770,90 " style="fill:white; stroke-width:1; stroke:black; " description="&lt;b&gt;GJU48_RS16435&lt;/b&gt;&lt;br&gt;hypothetical protein&lt;br&gt;Location: 3549781 - 3550014" locus_tag="GJU48_RS16435" class="clusterblast-orf" id="dummy-2_h2_4_40"  />
</g>
<g id="a2_0041"  >
<polygon points="774,85 779,80 780,80 780,90 779,90 774,85 " style="fill:white; stroke-width:1; stroke:black; " description="&lt;b&gt;GJU48_RS16440&lt;/b&gt;&lt;br&gt;DUF2802 domain-containing protein&lt;br&gt;Location: 3550024 - 3550416" locus_tag="GJU48_RS16440" class="clusterblast-orf" id="dummy-2_h2_4_41"  />
</g>
</svg>
