<svg xmlns="http://www.w3.org/2000/svg" xmlns:xlink="http://www.w3.org/1999/xlink" version="1.1" x="0" y="0" height="230" width="800" viewBox="0 0 800 230" preserveAspectRatio="none"  >
<g label="Query sequence" class="clusterblast-cluster"  >
<text x="5" y="20" class="clusterblast-acc"  >
Query sequence</text>
<line x1="10" y1="35" x2="778.0" y2="35" style="stroke-width:1; stroke:grey; "  />
<polygon points="7,35 12,30 23,30 23,40 12,40 7,35 " style="fill:#d81515; stroke-width:1; stroke:black; " description="&lt;b&gt;ctg15_36&lt;/b&gt;&lt;br&gt;ctg15 36&lt;br&gt;Location: 36769 - 37693" locus_tag="ctg15_36" class="clusterblast-orf" id="dummy-1_q0_0_all"  />
<polygon points="29,40 36,40 41,35 36,30 29,30 29,40 " style="fill:#65d815; stroke-width:1; stroke:black; " description="&lt;b&gt;ctg15_37&lt;/b&gt;&lt;br&gt;ctg15 37&lt;br&gt;Location: 38010 - 38682" locus_tag="ctg15_37" class="clusterblast-orf" id="dummy-1_q1_0_all"  />
<polygon points="41,40 55,40 60,35 55,30 41,30 41,40 " style="fill:#15b6d8; stroke-width:1; stroke:black; " description="&lt;b&gt;ctg15_38&lt;/b&gt;&lt;br&gt;ctg15 38&lt;br&gt;Location: 38684 - 39785" locus_tag="ctg15_38" class="clusterblast-orf" id="dummy-1_q2_0_all"  />
<polygon points="61,35 66,30 86,30 86,40 66,40 61,35 " style="fill:#8815d8; stroke-width:1; stroke:black; " description="&lt;b&gt;ctg15_39&lt;/b&gt;&lt;br&gt;ctg15 39&lt;br&gt;Location: 39835 - 41278" locus_tag="ctg15_39" class="clusterblast-orf" id="dummy-1_q3_0_all"  />
<polygon points="88,35 93,30 107,30 107,40 93,40 88,35 " style="fill:#d83815; stroke-width:1; stroke:black; " description="&lt;b&gt;ctg15_40&lt;/b&gt;&lt;br&gt;ctg15 40&lt;br&gt;Location: 41428 - 42493" locus_tag="ctg15_40" class="clusterblast-orf" id="dummy-1_q4_0_all"  />
<polygon points="107,35 112,30 149,30 149,40 112,40 107,35 " style="fill:#43d815; stroke-width:1; stroke:black; " description="&lt;b&gt;ctg15_41&lt;/b&gt;&lt;br&gt;ctg15 41&lt;br&gt;Location: 42482 - 44945" locus_tag="ctg15_41" class="clusterblast-orf" id="dummy-1_q5_0_all"  />
<polygon points="149,35 154,30 161,30 161,40 154,40 149,35 " style="fill:#1593d8; stroke-width:1; stroke:black; " description="&lt;b&gt;ctg15_42&lt;/b&gt;&lt;br&gt;ctg15 42&lt;br&gt;Location: 44946 - 45615" locus_tag="ctg15_42" class="clusterblast-orf" id="dummy-1_q6_0_all"  />
<polygon points="166,40 173,40 178,35 173,30 166,30 166,40 " style="fill:#aa15d8; stroke-width:1; stroke:black; " description="&lt;b&gt;ctg15_43&lt;/b&gt;&lt;br&gt;ctg15 43&lt;br&gt;Location: 45889 - 46564" locus_tag="ctg15_43" class="clusterblast-orf" id="dummy-1_q7_0_all"  />
<polygon points="179,40 181,35 179,30 179,40 " style="fill:white; stroke-width:1; stroke:black; " description="&lt;b&gt;ctg15_44&lt;/b&gt;&lt;br&gt;ctg15 44&lt;br&gt;Location: 46655 - 46757" locus_tag="ctg15_44" class="clusterblast-orf" id="dummy-1_q8_0_all"  />
<polygon points="181,40 205,40 210,35 205,30 181,30 181,40 " style="fill:#d85a15; stroke-width:1; stroke:black; " description="&lt;b&gt;ctg15_45&lt;/b&gt;&lt;br&gt;ctg15 45&lt;br&gt;Location: 46753 - 48409" locus_tag="ctg15_45" class="clusterblast-orf" id="dummy-1_q9_0_all"  />
<polygon points="210,40 232,40 237,35 232,30 210,30 210,40 " style="fill:#d85a15; stroke-width:1; stroke:black; " description="&lt;b&gt;ctg15_46&lt;/b&gt;&lt;br&gt;ctg15 46&lt;br&gt;Location: 48435 - 49953" locus_tag="ctg15_46" class="clusterblast-orf" id="dummy-1_q10_0_all"  />
<polygon points="237,35 242,30 249,30 249,40 242,40 237,35 " style="fill:#21d815; stroke-width:1; stroke:black; " description="&lt;b&gt;ctg15_47&lt;/b&gt;&lt;br&gt;ctg15 47&lt;br&gt;Location: 49974 - 50688" locus_tag="ctg15_47" class="clusterblast-orf" id="dummy-1_q11_0_all"  />
<polygon points="249,35 254,30 262,30 262,40 254,40 249,35 " style="fill:#1571d8; stroke-width:1; stroke:black; " description="&lt;b&gt;ctg15_48&lt;/b&gt;&lt;br&gt;ctg15 48&lt;br&gt;Location: 50687 - 51440" locus_tag="ctg15_48" class="clusterblast-orf" id="dummy-1_q12_0_all"  />
<polygon points="263,35 268,30 283,30 283,40 268,40 263,35 " style="fill:#cd15d8; stroke-width:1; stroke:black; " description="&lt;b&gt;ctg15_49&lt;/b&gt;&lt;br&gt;ctg15 49&lt;br&gt;Location: 51448 - 52642" locus_tag="ctg15_49" class="clusterblast-orf" id="dummy-1_q13_0_all"  />
<polygon points="283,35 288,30 297,30 297,40 288,40 283,35 " style="fill:#d87c15; stroke-width:1; stroke:black; " description="&lt;b&gt;ctg15_50&lt;/b&gt;&lt;br&gt;ctg15 50&lt;br&gt;Location: 52628 - 53435" locus_tag="ctg15_50" class="clusterblast-orf" id="dummy-1_q14_0_all"  />
<polygon points="297,35 302,30 312,30 312,40 302,40 297,35 " style="fill:#15d82c; stroke-width:1; stroke:black; " description="&lt;b&gt;ctg15_51&lt;/b&gt;&lt;br&gt;ctg15 51&lt;br&gt;Location: 53431 - 54289" locus_tag="ctg15_51" class="clusterblast-orf" id="dummy-1_q15_0_all"  />
<polygon points="335,35 340,30 444,30 444,40 340,40 335,35 " style="fill:#154fd8; stroke-width:1; stroke:black; " description="&lt;b&gt;ctg15_52&lt;/b&gt;&lt;br&gt;ctg15 52&lt;br&gt;Location: 55608 - 61878" locus_tag="ctg15_52" class="clusterblast-orf" id="dummy-1_q16_0_all"  />
<polygon points="453,40 461,40 466,35 461,30 453,30 453,40 " style="fill:#d815c1; stroke-width:1; stroke:black; " description="&lt;b&gt;ctg15_53&lt;/b&gt;&lt;br&gt;ctg15 53&lt;br&gt;Location: 62365 - 63160" locus_tag="ctg15_53" class="clusterblast-orf" id="dummy-1_q17_0_all"  />
<polygon points="466,40 487,40 492,35 487,30 466,30 466,40 " style="fill:#d89f15; stroke-width:1; stroke:black; " description="&lt;b&gt;ctg15_54&lt;/b&gt;&lt;br&gt;ctg15 54&lt;br&gt;Location: 63159 - 64629" locus_tag="ctg15_54" class="clusterblast-orf" id="dummy-1_q18_0_all"  />
<polygon points="491,35 496,30 506,30 506,40 496,40 491,35 " style="fill:#15d84f; stroke-width:1; stroke:black; " description="&lt;b&gt;ctg15_55&lt;/b&gt;&lt;br&gt;ctg15 55&lt;br&gt;Location: 64555 - 65416" locus_tag="ctg15_55" class="clusterblast-orf" id="dummy-1_q19_0_all"  />
<polygon points="508,40 514,40 519,35 514,30 508,30 508,40 " style="fill:#152cd8; stroke-width:1; stroke:black; " description="&lt;b&gt;ctg15_56&lt;/b&gt;&lt;br&gt;ctg15 56&lt;br&gt;Location: 65544 - 66210" locus_tag="ctg15_56" class="clusterblast-orf" id="dummy-1_q20_0_all"  />
<polygon points="519,40 528,40 533,35 528,30 519,30 519,40 " style="fill:#152cd8; stroke-width:1; stroke:black; " description="&lt;b&gt;ctg15_57&lt;/b&gt;&lt;br&gt;ctg15 57&lt;br&gt;Location: 66206 - 66977" locus_tag="ctg15_57" class="clusterblast-orf" id="dummy-1_q21_0_all"  />
<polygon points="533,40 553,40 558,35 553,30 533,30 533,40 " style="fill:#d8159f; stroke-width:1; stroke:black; " description="&lt;b&gt;ctg15_58&lt;/b&gt;&lt;br&gt;ctg15 58&lt;br&gt;Location: 66982 - 68443" locus_tag="ctg15_58" class="clusterblast-orf" id="dummy-1_q22_0_all"  />
<polygon points="559,40 569,40 574,35 569,30 559,30 559,40 " style="fill:#d8c115; stroke-width:1; stroke:black; " description="&lt;b&gt;ctg15_59&lt;/b&gt;&lt;br&gt;ctg15 59&lt;br&gt;Location: 68489 - 69347" locus_tag="ctg15_59" class="clusterblast-orf" id="dummy-1_q23_0_all"  />
<polygon points="574,40 576,40 581,35 576,30 574,30 574,40 " style="fill:#15d871; stroke-width:1; stroke:black; " description="&lt;b&gt;ctg15_60&lt;/b&gt;&lt;br&gt;ctg15 60&lt;br&gt;Location: 69362 - 69755" locus_tag="ctg15_60" class="clusterblast-orf" id="dummy-1_q24_0_all"  />
<polygon points="582,40 600,40 605,35 600,30 582,30 582,40 " style="fill:#2115d8; stroke-width:1; stroke:black; " description="&lt;b&gt;ctg15_61&lt;/b&gt;&lt;br&gt;ctg15 61&lt;br&gt;Location: 69800 - 71105" locus_tag="ctg15_61" class="clusterblast-orf" id="dummy-1_q25_0_all"  />
<polygon points="605,40 614,40 619,35 614,30 605,30 605,40 " style="fill:#d8157c; stroke-width:1; stroke:black; " description="&lt;b&gt;ctg15_62&lt;/b&gt;&lt;br&gt;ctg15 62&lt;br&gt;Location: 71116 - 71920" locus_tag="ctg15_62" class="clusterblast-orf" id="dummy-1_q26_0_all"  />
<polygon points="619,40 628,40 633,35 628,30 619,30 619,40 " style="fill:#cdd815; stroke-width:1; stroke:black; " description="&lt;b&gt;ctg15_63&lt;/b&gt;&lt;br&gt;ctg15 63&lt;br&gt;Location: 71935 - 72736" locus_tag="ctg15_63" class="clusterblast-orf" id="dummy-1_q27_0_all"  />
<polygon points="635,35 640,30 642,30 642,40 640,40 635,35 " style="fill:#15d893; stroke-width:1; stroke:black; " description="&lt;b&gt;ctg15_64&lt;/b&gt;&lt;br&gt;ctg15 64&lt;br&gt;Location: 72861 - 73284" locus_tag="ctg15_64" class="clusterblast-orf" id="dummy-1_q28_0_all"  />
<polygon points="646,40 664,40 669,35 664,30 646,30 646,40 " style="fill:#4315d8; stroke-width:1; stroke:black; " description="&lt;b&gt;ctg15_65&lt;/b&gt;&lt;br&gt;ctg15 65&lt;br&gt;Location: 73492 - 74791" locus_tag="ctg15_65" class="clusterblast-orf" id="dummy-1_q29_0_all"  />
<polygon points="669,40 671,40 676,35 671,30 669,30 669,40 " style="fill:#d8155a; stroke-width:1; stroke:black; " description="&lt;b&gt;ctg15_66&lt;/b&gt;&lt;br&gt;ctg15 66&lt;br&gt;Location: 74820 - 75186" locus_tag="ctg15_66" class="clusterblast-orf" id="dummy-1_q30_0_all"  />
<polygon points="676,40 685,40 690,35 685,30 676,30 676,40 " style="fill:#aad815; stroke-width:1; stroke:black; " description="&lt;b&gt;ctg15_67&lt;/b&gt;&lt;br&gt;ctg15 67&lt;br&gt;Location: 75198 - 76020" locus_tag="ctg15_67" class="clusterblast-orf" id="dummy-1_q31_0_all"  />
<polygon points="690,40 699,40 704,35 699,30 690,30 690,40 " style="fill:#15d8b6; stroke-width:1; stroke:black; " description="&lt;b&gt;ctg15_68&lt;/b&gt;&lt;br&gt;ctg15 68&lt;br&gt;Location: 76012 - 76816" locus_tag="ctg15_68" class="clusterblast-orf" id="dummy-1_q32_0_all"  />
<polygon points="704,40 712,40 717,35 712,30 704,30 704,40 " style="fill:#6615d8; stroke-width:1; stroke:black; " description="&lt;b&gt;ctg15_69&lt;/b&gt;&lt;br&gt;ctg15 69&lt;br&gt;Location: 76805 - 77561" locus_tag="ctg15_69" class="clusterblast-orf" id="dummy-1_q33_0_all"  />
<polygon points="718,35 723,30 734,30 734,40 723,40 718,35 " style="fill:#d81538; stroke-width:1; stroke:black; " description="&lt;b&gt;ctg15_70&lt;/b&gt;&lt;br&gt;ctg15 70&lt;br&gt;Location: 77622 - 78564" locus_tag="ctg15_70" class="clusterblast-orf" id="dummy-1_q34_0_all"  />
<polygon points="736,35 741,30 747,30 747,40 741,40 736,35 " style="fill:#88d815; stroke-width:1; stroke:black; " description="&lt;b&gt;ctg15_71&lt;/b&gt;&lt;br&gt;ctg15 71&lt;br&gt;Location: 78675 - 79263" locus_tag="ctg15_71" class="clusterblast-orf" id="dummy-1_q35_0_all"  />
<polygon points="746,35 751,30 772,30 772,40 751,40 746,35 " style="fill:#15d8d8; stroke-width:1; stroke:black; " description="&lt;b&gt;ctg15_72&lt;/b&gt;&lt;br&gt;ctg15 72&lt;br&gt;Location: 79234 - 80734" locus_tag="ctg15_72" class="clusterblast-orf" id="dummy-1_q36_0_all"  />
</g>
<g label="NZ_CP027755" description="NZ_CP027755 (4041030-4085866): Pseudomonas synxantha strain 2-79 chromosome, ... (87% of genes show similarity), NRPS" class="clusterblast-cluster"  >
<text x="5" y="70" class="clusterblast-acc"  >
<a xlink:href="https://antismash-db.secondarymetabolites.org/area.html?record=NZ_CP027755&amp;start=4041030&amp;end=4085866" target="_blank">NZ_CP027755 (4041030-4085866)</a>: Pseudomonas synxantha strain 2-79 chromosome, ... (87% of genes show similarity), NRPS</text>
<line x1="10" y1="85" x2="778.0" y2="85" style="stroke-width:1; stroke:grey; "  />
</g>
<g id="a1_000"  >
<polygon points="0,90 7,90 12,85 7,80 0,80 0,90 " style="fill:#65d815; stroke-width:1; stroke:black; " description="&lt;b&gt;C4K02_RS18195&lt;/b&gt;&lt;br&gt;sterol desaturase family protein&lt;br&gt;Location: 4041031 - 4041732&lt;br&gt;&lt;br&gt;&lt;b&gt;BlastP hit with ctg15_37&lt;/b&gt;&lt;br&gt;Percentage identity: 89&lt;br&gt;Percentage coverage: 98&lt;br&gt;BLAST bit score: 431&lt;br&gt;E-value: 8.17e-154" locus_tag="C4K02_RS18195" class="clusterblast-orf" id="dummy-1_h1_3_0"  />
</g>
<g id="a1_001"  >
<polygon points="12,85 17,80 37,80 37,90 17,90 12,85 " style="fill:#8815d8; stroke-width:1; stroke:black; " description="&lt;b&gt;C4K02_RS18200&lt;/b&gt;&lt;br&gt;hypothetical protein&lt;br&gt;Location: 4041738 - 4043183&lt;br&gt;&lt;br&gt;&lt;b&gt;BlastP hit with ctg15_39&lt;/b&gt;&lt;br&gt;Percentage identity: 65&lt;br&gt;Percentage coverage: 100&lt;br&gt;BLAST bit score: 637&lt;br&gt;E-value: 2.88e-227" locus_tag="C4K02_RS18200" class="clusterblast-orf" id="dummy-1_h1_3_1"  />
</g>
<g id="a1_002"  >
<polygon points="40,85 45,80 46,80 46,90 45,90 40,85 " style="fill:white; stroke-width:1; stroke:black; " description="&lt;b&gt;C4K02_RS18205&lt;/b&gt;&lt;br&gt;hypothetical protein&lt;br&gt;Location: 4043335 - 4043691" locus_tag="C4K02_RS18205" class="clusterblast-orf" id="dummy-1_h1_3_2"  />
</g>
<g id="a1_003"  >
<polygon points="46,85 51,80 63,80 63,90 51,90 46,85 " style="fill:white; stroke-width:1; stroke:black; " description="&lt;b&gt;C4K02_RS18210&lt;/b&gt;&lt;br&gt;hypothetical protein&lt;br&gt;Location: 4043694 - 4044686" locus_tag="C4K02_RS18210" class="clusterblast-orf" id="dummy-1_h1_3_3"  />
</g>
<g id="a1_004"  >
<polygon points="66,85 71,80 84,80 84,90 71,90 66,85 " style="fill:#d83815; stroke-width:1; stroke:black; " description="&lt;b&gt;C4K02_RS18215&lt;/b&gt;&lt;br&gt;iron ABC transporter permease&lt;br&gt;Location: 4044826 - 4045890&lt;br&gt;&lt;br&gt;&lt;b&gt;BlastP hit with ctg15_40&lt;/b&gt;&lt;br&gt;Percentage identity: 89&lt;br&gt;Percentage coverage: 100&lt;br&gt;BLAST bit score: 675&lt;br&gt;E-value: 3.24e-246" locus_tag="C4K02_RS18215" class="clusterblast-orf" id="dummy-1_h1_3_4"  />
</g>
<g id="a1_005"  >
<polygon points="84,85 89,80 127,80 127,90 89,90 84,85 " style="fill:#43d815; stroke-width:1; stroke:black; " description="&lt;b&gt;C4K02_RS18220&lt;/b&gt;&lt;br&gt;FtsX-like permease family protein&lt;br&gt;Location: 4045880 - 4048342&lt;br&gt;&lt;br&gt;&lt;b&gt;BlastP hit with ctg15_41&lt;/b&gt;&lt;br&gt;Percentage identity: 90&lt;br&gt;Percentage coverage: 100&lt;br&gt;BLAST bit score: 1433&lt;br&gt;E-value: 0.0" locus_tag="C4K02_RS18220" class="clusterblast-orf" id="dummy-1_h1_3_5"  />
</g>
<g id="a1_006"  >
<polygon points="127,85 132,80 138,80 138,90 132,90 127,85 " style="fill:#1593d8; stroke-width:1; stroke:black; " description="&lt;b&gt;C4K02_RS18225&lt;/b&gt;&lt;br&gt;ABC transporter ATP-binding protein&lt;br&gt;Location: 4048344 - 4049012&lt;br&gt;&lt;br&gt;&lt;b&gt;BlastP hit with ctg15_42&lt;/b&gt;&lt;br&gt;Percentage identity: 92&lt;br&gt;Percentage coverage: 100&lt;br&gt;BLAST bit score: 397&lt;br&gt;E-value: 1.37e-140" locus_tag="C4K02_RS18225" class="clusterblast-orf" id="dummy-1_h1_3_6"  />
</g>
<g id="a1_007"  >
<polygon points="143,90 150,90 155,85 150,80 143,80 143,90 " style="fill:#aa15d8; stroke-width:1; stroke:black; " description="&lt;b&gt;C4K02_RS18230&lt;/b&gt;&lt;br&gt;histidine phosphatase family protein&lt;br&gt;Location: 4049286 - 4049966&lt;br&gt;&lt;br&gt;&lt;b&gt;BlastP hit with ctg15_43&lt;/b&gt;&lt;br&gt;Percentage identity: 56&lt;br&gt;Percentage coverage: 101&lt;br&gt;BLAST bit score: 268&lt;br&gt;E-value: 1.69e-89" locus_tag="C4K02_RS18230" class="clusterblast-orf" id="dummy-1_h1_3_7"  />
</g>
<g id="a1_008"  >
<polygon points="158,90 182,90 187,85 182,80 158,80 158,90 " style="fill:#d85a15; stroke-width:1; stroke:black; " description="&lt;b&gt;C4K02_RS18235&lt;/b&gt;&lt;br&gt;lipid IV(A) 4-amino-4-deoxy-L-arabinosyltransferase&lt;br&gt;Location: 4050149 - 4051804&lt;br&gt;&lt;br&gt;&lt;b&gt;BlastP hit with ctg15_45&lt;/b&gt;&lt;br&gt;Percentage identity: 85&lt;br&gt;Percentage coverage: 100&lt;br&gt;BLAST bit score: 964&lt;br&gt;E-value: 0.0" locus_tag="C4K02_RS18235" class="clusterblast-orf" id="dummy-1_h1_3_8"  />
</g>
<g id="a1_009"  >
<polygon points="187,90 209,90 214,85 209,80 187,80 187,90 " style="fill:#d85a15; stroke-width:1; stroke:black; " description="&lt;b&gt;C4K02_RS18240&lt;/b&gt;&lt;br&gt;glycosyltransferase family 39 protein&lt;br&gt;Location: 4051831 - 4053348&lt;br&gt;&lt;br&gt;&lt;b&gt;BlastP hit with ctg15_46&lt;/b&gt;&lt;br&gt;Percentage identity: 89&lt;br&gt;Percentage coverage: 99&lt;br&gt;BLAST bit score: 950&lt;br&gt;E-value: 0.0" locus_tag="C4K02_RS18240" class="clusterblast-orf" id="dummy-1_h1_3_9"  />
</g>
<g id="a1_0010"  >
<polygon points="220,90 220,90 225,85 220,80 220,80 220,90 " style="fill:white; stroke-width:1; stroke:black; " description="&lt;b&gt;C4K02_RS18245&lt;/b&gt;&lt;br&gt;hypothetical protein&lt;br&gt;Location: 4053681 - 4053989" locus_tag="C4K02_RS18245" class="clusterblast-orf" id="dummy-1_h1_3_10"  />
</g>
<g id="a1_0011"  >
<polygon points="227,85 232,80 240,80 240,90 232,90 227,85 " style="fill:#21d815; stroke-width:1; stroke:black; " description="&lt;b&gt;C4K02_RS18250&lt;/b&gt;&lt;br&gt;AAA family ATPase&lt;br&gt;Location: 4054128 - 4054841&lt;br&gt;&lt;br&gt;&lt;b&gt;BlastP hit with ctg15_47&lt;/b&gt;&lt;br&gt;Percentage identity: 83&lt;br&gt;Percentage coverage: 99&lt;br&gt;BLAST bit score: 404&lt;br&gt;E-value: 3.83e-143" locus_tag="C4K02_RS18250" class="clusterblast-orf" id="dummy-1_h1_3_11"  />
</g>
<g id="a1_0012"  >
<polygon points="240,85 245,80 253,80 253,90 245,90 240,85 " style="fill:#1571d8; stroke-width:1; stroke:black; " description="&lt;b&gt;C4K02_RS18255&lt;/b&gt;&lt;br&gt;hypothetical protein&lt;br&gt;Location: 4054841 - 4055584&lt;br&gt;&lt;br&gt;&lt;b&gt;BlastP hit with ctg15_48&lt;/b&gt;&lt;br&gt;Percentage identity: 64&lt;br&gt;Percentage coverage: 100&lt;br&gt;BLAST bit score: 290&lt;br&gt;E-value: 1.42e-97" locus_tag="C4K02_RS18255" class="clusterblast-orf" id="dummy-1_h1_3_12"  />
</g>
<g id="a1_0013"  >
<polygon points="253,85 258,80 274,80 274,90 258,90 253,85 " style="fill:#cd15d8; stroke-width:1; stroke:black; " description="&lt;b&gt;C4K02_RS18260&lt;/b&gt;&lt;br&gt;YcaO-like family protein&lt;br&gt;Location: 4055593 - 4056795&lt;br&gt;&lt;br&gt;&lt;b&gt;BlastP hit with ctg15_49&lt;/b&gt;&lt;br&gt;Percentage identity: 66&lt;br&gt;Percentage coverage: 101&lt;br&gt;BLAST bit score: 540&lt;br&gt;E-value: 1.87e-191" locus_tag="C4K02_RS18260" class="clusterblast-orf" id="dummy-1_h1_3_13"  />
</g>
<g id="a1_0014"  >
<polygon points="274,85 279,80 288,80 288,90 279,90 274,85 " style="fill:#d87c15; stroke-width:1; stroke:black; " description="&lt;b&gt;C4K02_RS18265&lt;/b&gt;&lt;br&gt;SagB/ThcOx family dehydrogenase&lt;br&gt;Location: 4056782 - 4057587&lt;br&gt;&lt;br&gt;&lt;b&gt;BlastP hit with ctg15_50&lt;/b&gt;&lt;br&gt;Percentage identity: 62&lt;br&gt;Percentage coverage: 41&lt;br&gt;BLAST bit score: 150&lt;br&gt;E-value: 2.95e-43" locus_tag="C4K02_RS18265" class="clusterblast-orf" id="dummy-1_h1_3_14"  />
</g>
<g id="a1_0015"  >
<polygon points="287,85 292,80 302,80 302,90 292,90 287,85 " style="fill:#15d82c; stroke-width:1; stroke:black; " description="&lt;b&gt;C4K02_RS18270&lt;/b&gt;&lt;br&gt;McbB family protein&lt;br&gt;Location: 4057584 - 4058441&lt;br&gt;&lt;br&gt;&lt;b&gt;BlastP hit with ctg15_51&lt;/b&gt;&lt;br&gt;Percentage identity: 65&lt;br&gt;Percentage coverage: 99&lt;br&gt;BLAST bit score: 389&lt;br&gt;E-value: 1.72e-135" locus_tag="C4K02_RS18270" class="clusterblast-orf" id="dummy-1_h1_3_15"  />
</g>
<g id="a1_0016"  >
<polygon points="303,85 307,80 307,90 303,85 " style="fill:white; stroke-width:1; stroke:black; " description="&lt;b&gt;C4K02_RS18275&lt;/b&gt;&lt;br&gt;hypothetical protein&lt;br&gt;Location: 4058501 - 4058719" locus_tag="C4K02_RS18275" class="clusterblast-orf" id="dummy-1_h1_3_16"  />
</g>
<g id="a1_0017"  >
<polygon points="313,90 317,85 313,80 313,90 " style="fill:white; stroke-width:1; stroke:black; " description="&lt;b&gt;C4K02_RS18280&lt;/b&gt;&lt;br&gt;hypothetical protein&lt;br&gt;Location: 4059065 - 4059271" locus_tag="C4K02_RS18280" class="clusterblast-orf" id="dummy-1_h1_3_17"  />
</g>
<g id="a1_0018"  >
<polygon points="334,85 339,80 443,80 443,90 339,90 334,85 " style="fill:#154fd8; stroke-width:1; stroke:black; " description="&lt;b&gt;C4K02_RS18285&lt;/b&gt;&lt;br&gt;non-ribosomal peptide synthetase&lt;br&gt;Location: 4060281 - 4066550&lt;br&gt;&lt;br&gt;&lt;b&gt;BlastP hit with ctg15_52&lt;/b&gt;&lt;br&gt;Percentage identity: 83&lt;br&gt;Percentage coverage: 100&lt;br&gt;BLAST bit score: 3493&lt;br&gt;E-value: 0.0" locus_tag="C4K02_RS18285" class="clusterblast-orf" id="dummy-1_h1_3_18"  />
</g>
<g id="a1_0019"  >
<polygon points="452,90 461,90 466,85 461,80 452,80 452,90 " style="fill:#d815c1; stroke-width:1; stroke:black; " description="&lt;b&gt;C4K02_RS18290&lt;/b&gt;&lt;br&gt;helix-turn-helix transcriptional regulator&lt;br&gt;Location: 4067040 - 4067834&lt;br&gt;&lt;br&gt;&lt;b&gt;BlastP hit with ctg15_53&lt;/b&gt;&lt;br&gt;Percentage identity: 88&lt;br&gt;Percentage coverage: 100&lt;br&gt;BLAST bit score: 454&lt;br&gt;E-value: 6.6e-162" locus_tag="C4K02_RS18290" class="clusterblast-orf" id="dummy-1_h1_3_19"  />
</g>
<g id="a1_0020"  >
<polygon points="466,90 486,90 491,85 486,80 466,80 466,90 " style="fill:#d89f15; stroke-width:1; stroke:black; " description="&lt;b&gt;C4K02_RS18295&lt;/b&gt;&lt;br&gt;efflux transporter outer membrane subunit&lt;br&gt;Location: 4067834 - 4069303&lt;br&gt;&lt;br&gt;&lt;b&gt;BlastP hit with ctg15_54&lt;/b&gt;&lt;br&gt;Percentage identity: 92&lt;br&gt;Percentage coverage: 100&lt;br&gt;BLAST bit score: 858&lt;br&gt;E-value: 4.87e-314" locus_tag="C4K02_RS18295" class="clusterblast-orf" id="dummy-1_h1_3_20"  />
</g>
<g id="a1_0021"  >
<polygon points="490,85 495,80 505,80 505,90 495,90 490,85 " style="fill:#15d84f; stroke-width:1; stroke:black; " description="&lt;b&gt;C4K02_RS18300&lt;/b&gt;&lt;br&gt;4-hydroxyphenylacetate catabolism regulatory protein HpaA&lt;br&gt;Location: 4069230 - 4070090&lt;br&gt;&lt;br&gt;&lt;b&gt;BlastP hit with ctg15_55&lt;/b&gt;&lt;br&gt;Percentage identity: 89&lt;br&gt;Percentage coverage: 100&lt;br&gt;BLAST bit score: 510&lt;br&gt;E-value: 2.86e-183" locus_tag="C4K02_RS18300" class="clusterblast-orf" id="dummy-1_h1_3_21"  />
</g>
<g id="a1_0022"  >
<polygon points="507,90 514,90 519,85 514,80 507,80 507,90 " style="fill:#152cd8; stroke-width:1; stroke:black; " description="&lt;b&gt;C4K02_RS18305&lt;/b&gt;&lt;br&gt;fumarylacetoacetate hydrolase family protein&lt;br&gt;Location: 4070219 - 4070884&lt;br&gt;&lt;br&gt;&lt;b&gt;BlastP hit with ctg15_56&lt;/b&gt;&lt;br&gt;Percentage identity: 89&lt;br&gt;Percentage coverage: 99&lt;br&gt;BLAST bit score: 400&lt;br&gt;E-value: 5.39e-142&lt;br&gt;&lt;br&gt;&lt;b&gt;BlastP hit with ctg15_57&lt;/b&gt;&lt;br&gt;Percentage identity: 41&lt;br&gt;Percentage coverage: 83&lt;br&gt;BLAST bit score: 154&lt;br&gt;E-value: 1.83e-44" locus_tag="C4K02_RS18305" class="clusterblast-orf" id="dummy-1_h1_3_22"  />
</g>
<g id="a1_0023"  >
<polygon points="519,90 527,90 532,85 527,80 519,80 519,90 " style="fill:#152cd8; stroke-width:1; stroke:black; " description="&lt;b&gt;C4K02_RS18310&lt;/b&gt;&lt;br&gt;fumarylacetoacetate hydrolase family protein&lt;br&gt;Location: 4070881 - 4071651&lt;br&gt;&lt;br&gt;&lt;b&gt;BlastP hit with ctg15_56&lt;/b&gt;&lt;br&gt;Percentage identity: 40&lt;br&gt;Percentage coverage: 96&lt;br&gt;BLAST bit score: 146&lt;br&gt;E-value: 1.56e-41&lt;br&gt;&lt;br&gt;&lt;b&gt;BlastP hit with ctg15_57&lt;/b&gt;&lt;br&gt;Percentage identity: 92&lt;br&gt;Percentage coverage: 100&lt;br&gt;BLAST bit score: 480&lt;br&gt;E-value: 1.55e-172" locus_tag="C4K02_RS18310" class="clusterblast-orf" id="dummy-1_h1_3_23"  />
</g>
<g id="a1_0024"  >
<polygon points="532,90 553,90 558,85 553,80 532,80 532,90 " style="fill:#d8159f; stroke-width:1; stroke:black; " description="&lt;b&gt;C4K02_RS18315&lt;/b&gt;&lt;br&gt;5-carboxymethyl-2-hydroxymuconate semialdehyde dehydrogenase&lt;br&gt;Location: 4071657 - 4073117&lt;br&gt;&lt;br&gt;&lt;b&gt;BlastP hit with ctg15_58&lt;/b&gt;&lt;br&gt;Percentage identity: 97&lt;br&gt;Percentage coverage: 100&lt;br&gt;BLAST bit score: 953&lt;br&gt;E-value: 0.0" locus_tag="C4K02_RS18315" class="clusterblast-orf" id="dummy-1_h1_3_24"  />
</g>
<g id="a1_0025"  >
<polygon points="560,90 570,90 575,85 570,80 560,80 560,90 " style="fill:#d8c115; stroke-width:1; stroke:black; " description="&lt;b&gt;C4K02_RS18320&lt;/b&gt;&lt;br&gt;3,4-dihydroxyphenylacetate 2,3-dioxygenase&lt;br&gt;Location: 4073270 - 4074127&lt;br&gt;&lt;br&gt;&lt;b&gt;BlastP hit with ctg15_59&lt;/b&gt;&lt;br&gt;Percentage identity: 94&lt;br&gt;Percentage coverage: 100&lt;br&gt;BLAST bit score: 570&lt;br&gt;E-value: 6.26e-207" locus_tag="C4K02_RS18320" class="clusterblast-orf" id="dummy-1_h1_3_25"  />
</g>
<g id="a1_0026"  >
<polygon points="576,90 577,90 582,85 577,80 576,80 576,90 " style="fill:#15d871; stroke-width:1; stroke:black; " description="&lt;b&gt;C4K02_RS18325&lt;/b&gt;&lt;br&gt;5-carboxymethyl-2-hydroxymuconate Delta-isomerase&lt;br&gt;Location: 4074143 - 4074535&lt;br&gt;&lt;br&gt;&lt;b&gt;BlastP hit with ctg15_60&lt;/b&gt;&lt;br&gt;Percentage identity: 94&lt;br&gt;Percentage coverage: 99&lt;br&gt;BLAST bit score: 252&lt;br&gt;E-value: 1.98e-86" locus_tag="C4K02_RS18325" class="clusterblast-orf" id="dummy-1_h1_3_26"  />
</g>
<g id="a1_0027"  >
<polygon points="585,90 602,90 607,85 602,80 585,80 585,90 " style="fill:#2115d8; stroke-width:1; stroke:black; " description="&lt;b&gt;C4K02_RS18330&lt;/b&gt;&lt;br&gt;MFS transporter&lt;br&gt;Location: 4074668 - 4075972&lt;br&gt;&lt;br&gt;&lt;b&gt;BlastP hit with ctg15_61&lt;/b&gt;&lt;br&gt;Percentage identity: 95&lt;br&gt;Percentage coverage: 100&lt;br&gt;BLAST bit score: 818&lt;br&gt;E-value: 4.74e-300" locus_tag="C4K02_RS18330" class="clusterblast-orf" id="dummy-1_h1_3_27"  />
</g>
<g id="a1_0028"  >
<polygon points="608,90 617,90 622,85 617,80 608,80 608,90 " style="fill:#d8157c; stroke-width:1; stroke:black; " description="&lt;b&gt;C4K02_RS18335&lt;/b&gt;&lt;br&gt;2-oxo-hepta-3-ene-1,7-dioic acid hydratase&lt;br&gt;Location: 4075984 - 4076787&lt;br&gt;&lt;br&gt;&lt;b&gt;BlastP hit with ctg15_62&lt;/b&gt;&lt;br&gt;Percentage identity: 95&lt;br&gt;Percentage coverage: 100&lt;br&gt;BLAST bit score: 511&lt;br&gt;E-value: 3.28e-184" locus_tag="C4K02_RS18335" class="clusterblast-orf" id="dummy-1_h1_3_28"  />
</g>
<g id="a1_0029"  >
<polygon points="622,90 631,90 636,85 631,80 622,80 622,90 " style="fill:#cdd815; stroke-width:1; stroke:black; " description="&lt;b&gt;C4K02_RS18340&lt;/b&gt;&lt;br&gt;4-hydroxy-2-oxoheptanedioate aldolase&lt;br&gt;Location: 4076804 - 4077604&lt;br&gt;&lt;br&gt;&lt;b&gt;BlastP hit with ctg15_63&lt;/b&gt;&lt;br&gt;Percentage identity: 88&lt;br&gt;Percentage coverage: 100&lt;br&gt;BLAST bit score: 452&lt;br&gt;E-value: 6.31e-161" locus_tag="C4K02_RS18340" class="clusterblast-orf" id="dummy-1_h1_3_29"  />
</g>
<g id="a1_0030"  >
<polygon points="640,85 645,80 647,80 647,90 645,90 640,85 " style="fill:#15d893; stroke-width:1; stroke:black; " description="&lt;b&gt;C4K02_RS18345&lt;/b&gt;&lt;br&gt;homoprotocatechuate degradation operon regulator HpaR&lt;br&gt;Location: 4077836 - 4078258&lt;br&gt;&lt;br&gt;&lt;b&gt;BlastP hit with ctg15_64&lt;/b&gt;&lt;br&gt;Percentage identity: 95&lt;br&gt;Percentage coverage: 100&lt;br&gt;BLAST bit score: 261&lt;br&gt;E-value: 1.84e-89" locus_tag="C4K02_RS18345" class="clusterblast-orf" id="dummy-1_h1_3_30"  />
</g>
<g id="a1_0031"  >
<polygon points="651,90 668,90 673,85 668,80 651,80 651,90 " style="fill:#4315d8; stroke-width:1; stroke:black; " description="&lt;b&gt;C4K02_RS18350&lt;/b&gt;&lt;br&gt;FAD-binding oxidoreductase&lt;br&gt;Location: 4078466 - 4079764&lt;br&gt;&lt;br&gt;&lt;b&gt;BlastP hit with ctg15_65&lt;/b&gt;&lt;br&gt;Percentage identity: 98&lt;br&gt;Percentage coverage: 100&lt;br&gt;BLAST bit score: 870&lt;br&gt;E-value: 0.0" locus_tag="C4K02_RS18350" class="clusterblast-orf" id="dummy-1_h1_3_31"  />
</g>
<g id="a1_0032"  >
<polygon points="676,90 677,90 682,85 677,80 676,80 676,90 " style="fill:#d8155a; stroke-width:1; stroke:black; " description="&lt;b&gt;C4K02_RS18355&lt;/b&gt;&lt;br&gt;DUF861 domain-containing protein&lt;br&gt;Location: 4079903 - 4080268&lt;br&gt;&lt;br&gt;&lt;b&gt;BlastP hit with ctg15_66&lt;/b&gt;&lt;br&gt;Percentage identity: 93&lt;br&gt;Percentage coverage: 99&lt;br&gt;BLAST bit score: 230&lt;br&gt;E-value: 7.12e-78" locus_tag="C4K02_RS18355" class="clusterblast-orf" id="dummy-1_h1_3_32"  />
</g>
<g id="a1_0033"  >
<polygon points="682,90 692,90 697,85 692,80 682,80 682,90 " style="fill:#aad815; stroke-width:1; stroke:black; " description="&lt;b&gt;C4K02_RS18360&lt;/b&gt;&lt;br&gt;molybdenum cofactor biosynthesis F family protein&lt;br&gt;Location: 4080281 - 4081102&lt;br&gt;&lt;br&gt;&lt;b&gt;BlastP hit with ctg15_67&lt;/b&gt;&lt;br&gt;Percentage identity: 91&lt;br&gt;Percentage coverage: 100&lt;br&gt;BLAST bit score: 536&lt;br&gt;E-value: 3.19e-194" locus_tag="C4K02_RS18360" class="clusterblast-orf" id="dummy-1_h1_3_33"  />
</g>
<g id="a1_0034"  >
<polygon points="696,90 705,90 710,85 705,80 696,80 696,90 " style="fill:#15d8b6; stroke-width:1; stroke:black; " description="&lt;b&gt;C4K02_RS18365&lt;/b&gt;&lt;br&gt;SDR family oxidoreductase&lt;br&gt;Location: 4081095 - 4081898&lt;br&gt;&lt;br&gt;&lt;b&gt;BlastP hit with ctg15_68&lt;/b&gt;&lt;br&gt;Percentage identity: 91&lt;br&gt;Percentage coverage: 100&lt;br&gt;BLAST bit score: 495&lt;br&gt;E-value: 5.83e-178" locus_tag="C4K02_RS18365" class="clusterblast-orf" id="dummy-1_h1_3_34"  />
</g>
<g id="a1_0035"  >
<polygon points="710,90 718,90 723,85 718,80 710,80 710,90 " style="fill:#6615d8; stroke-width:1; stroke:black; " description="&lt;b&gt;C4K02_RS18370&lt;/b&gt;&lt;br&gt;SDR family oxidoreductase&lt;br&gt;Location: 4081888 - 4082643&lt;br&gt;&lt;br&gt;&lt;b&gt;BlastP hit with ctg15_69&lt;/b&gt;&lt;br&gt;Percentage identity: 90&lt;br&gt;Percentage coverage: 100&lt;br&gt;BLAST bit score: 424&lt;br&gt;E-value: 1.88e-150" locus_tag="C4K02_RS18370" class="clusterblast-orf" id="dummy-1_h1_3_35"  />
</g>
<g id="a1_0036"  >
<polygon points="726,85 731,80 742,80 742,90 731,90 726,85 " style="fill:#d81538; stroke-width:1; stroke:black; " description="&lt;b&gt;C4K02_RS18375&lt;/b&gt;&lt;br&gt;transcriptional regulator FeaR&lt;br&gt;Location: 4082782 - 4083723&lt;br&gt;&lt;br&gt;&lt;b&gt;BlastP hit with ctg15_70&lt;/b&gt;&lt;br&gt;Percentage identity: 92&lt;br&gt;Percentage coverage: 100&lt;br&gt;BLAST bit score: 576&lt;br&gt;E-value: 1.99e-208" locus_tag="C4K02_RS18375" class="clusterblast-orf" id="dummy-1_h1_3_36"  />
</g>
<g id="a1_0037"  >
<polygon points="744,85 749,80 754,80 754,90 749,90 744,85 " style="fill:#88d815; stroke-width:1; stroke:black; " description="&lt;b&gt;C4K02_RS18380&lt;/b&gt;&lt;br&gt;DUF3156 family protein&lt;br&gt;Location: 4083838 - 4084404&lt;br&gt;&lt;br&gt;&lt;b&gt;BlastP hit with ctg15_71&lt;/b&gt;&lt;br&gt;Percentage identity: 72&lt;br&gt;Percentage coverage: 100&lt;br&gt;BLAST bit score: 272&lt;br&gt;E-value: 2.28e-92" locus_tag="C4K02_RS18380" class="clusterblast-orf" id="dummy-1_h1_3_37"  />
</g>
<g id="a1_0038"  >
<polygon points="753,85 758,80 779,80 779,90 758,90 753,85 " style="fill:#15d8d8; stroke-width:1; stroke:black; " description="&lt;b&gt;C4K02_RS18385&lt;/b&gt;&lt;br&gt;APC family permease&lt;br&gt;Location: 4084367 - 4085866&lt;br&gt;&lt;br&gt;&lt;b&gt;BlastP hit with ctg15_72&lt;/b&gt;&lt;br&gt;Percentage identity: 96&lt;br&gt;Percentage coverage: 100&lt;br&gt;BLAST bit score: 932&lt;br&gt;E-value: 0.0" locus_tag="C4K02_RS18385" class="clusterblast-orf" id="dummy-1_h1_3_38"  />
</g>
</svg>
