<svg xmlns="http://www.w3.org/2000/svg" xmlns:xlink="http://www.w3.org/1999/xlink" version="1.1" x="0" y="0" height="230" width="800" viewBox="0 0 800 230" preserveAspectRatio="none"  >
<g label="Query sequence" class="clusterblast-cluster"  >
<text x="5" y="20" class="clusterblast-acc"  >
Query sequence</text>
<line x1="10" y1="35" x2="778.0" y2="35" style="stroke-width:1; stroke:grey; "  />
<polygon points="283,40 285,40 290,35 285,30 283,30 283,40 " style="fill:white; stroke-width:1; stroke:black; " description="&lt;b&gt;ctg40_23&lt;/b&gt;&lt;br&gt;ctg40 23&lt;br&gt;Location: 20617 - 20851" locus_tag="ctg40_23" class="clusterblast-orf" id="dummy-1_q0_0_all"  />
<polygon points="290,40 290,40 295,35 290,30 290,30 290,40 " style="fill:#d81515; stroke-width:1; stroke:black; " description="&lt;b&gt;ctg40_24&lt;/b&gt;&lt;br&gt;ctg40 24&lt;br&gt;Location: 20850 - 21063" locus_tag="ctg40_24" class="clusterblast-orf" id="dummy-1_q1_0_all"  />
<polygon points="296,35 301,30 311,30 311,40 301,40 296,35 " style="fill:#77d815; stroke-width:1; stroke:black; " description="&lt;b&gt;ctg40_25&lt;/b&gt;&lt;br&gt;ctg40 25&lt;br&gt;Location: 21106 - 21643" locus_tag="ctg40_25" class="clusterblast-orf" id="dummy-1_q2_0_all"  />
<polygon points="313,35 318,30 350,30 350,40 318,40 313,35 " style="fill:#15d8d8; stroke-width:1; stroke:black; " description="&lt;b&gt;ctg40_26&lt;/b&gt;&lt;br&gt;ctg40 26&lt;br&gt;Location: 21754 - 23155" locus_tag="ctg40_26" class="clusterblast-orf" id="dummy-1_q3_0_all"  />
<polygon points="349,35 354,30 354,30 354,40 354,40 349,35 " style="fill:#7715d8; stroke-width:1; stroke:black; " description="&lt;b&gt;ctg40_27&lt;/b&gt;&lt;br&gt;ctg40 27&lt;br&gt;Location: 23118 - 23274" locus_tag="ctg40_27" class="clusterblast-orf" id="dummy-1_q4_0_all"  />
<polygon points="356,35 361,30 371,30 371,40 361,40 356,35 " style="fill:#d8a715; stroke-width:1; stroke:black; " description="&lt;b&gt;ctg40_28&lt;/b&gt;&lt;br&gt;ctg40 28&lt;br&gt;Location: 23351 - 23915" locus_tag="ctg40_28" class="clusterblast-orf" id="dummy-1_q5_0_all"  />
<polygon points="374,40 388,40 393,35 388,30 374,30 374,40 " style="fill:#15d846; stroke-width:1; stroke:black; " description="&lt;b&gt;ctg40_29&lt;/b&gt;&lt;br&gt;ctg40 29&lt;br&gt;Location: 24047 - 24752" locus_tag="ctg40_29" class="clusterblast-orf" id="dummy-1_q6_0_all"  />
<polygon points="393,35 398,30 405,30 405,40 398,40 393,35 " style="fill:#1546d8; stroke-width:1; stroke:black; " description="&lt;b&gt;ctg40_30&lt;/b&gt;&lt;br&gt;ctg40 30&lt;br&gt;Location: 24765 - 25233" locus_tag="ctg40_30" class="clusterblast-orf" id="dummy-1_q7_0_all"  />
<polygon points="406,40 410,35 406,30 406,40 " style="fill:white; stroke-width:1; stroke:black; " description="&lt;b&gt;ctg40_31&lt;/b&gt;&lt;br&gt;ctg40 31&lt;br&gt;Location: 25246 - 25396" locus_tag="ctg40_31" class="clusterblast-orf" id="dummy-1_q8_0_all"  />
<polygon points="413,40 466,40 471,35 466,30 413,30 413,40 " style="fill:#d815a7; stroke-width:1; stroke:black; " description="&lt;b&gt;ctg40_32&lt;/b&gt;&lt;br&gt;ctg40 32&lt;br&gt;Location: 25522 - 27721" locus_tag="ctg40_32" class="clusterblast-orf" id="dummy-1_q9_0_all"  />
<polygon points="471,40 475,35 471,30 471,40 " style="fill:white; stroke-width:1; stroke:black; " description="&lt;b&gt;ctg40_33&lt;/b&gt;&lt;br&gt;ctg40 33&lt;br&gt;Location: 27720 - 27888" locus_tag="ctg40_33" class="clusterblast-orf" id="dummy-1_q10_0_all"  />
<polygon points="475,40 476,40 481,35 476,30 475,30 475,40 " style="fill:white; stroke-width:1; stroke:black; " description="&lt;b&gt;ctg40_34&lt;/b&gt;&lt;br&gt;ctg40 34&lt;br&gt;Location: 27884 - 28091" locus_tag="ctg40_34" class="clusterblast-orf" id="dummy-1_q11_0_all"  />
<polygon points="481,40 485,35 481,30 481,40 " style="fill:white; stroke-width:1; stroke:black; " description="&lt;b&gt;ctg40_35&lt;/b&gt;&lt;br&gt;ctg40 35&lt;br&gt;Location: 28087 - 28258" locus_tag="ctg40_35" class="clusterblast-orf" id="dummy-1_q12_0_all"  />
<polygon points="484,40 485,40 490,35 485,30 484,30 484,40 " style="fill:white; stroke-width:1; stroke:black; " description="&lt;b&gt;ctg40_36&lt;/b&gt;&lt;br&gt;ctg40 36&lt;br&gt;Location: 28200 - 28425" locus_tag="ctg40_36" class="clusterblast-orf" id="dummy-1_q13_0_all"  />
<polygon points="488,40 489,40 494,35 489,30 488,30 488,40 " style="fill:white; stroke-width:1; stroke:black; " description="&lt;b&gt;ctg40_37&lt;/b&gt;&lt;br&gt;ctg40 37&lt;br&gt;Location: 28367 - 28592" locus_tag="ctg40_37" class="clusterblast-orf" id="dummy-1_q14_0_all"  />
<polygon points="492,40 496,35 492,30 492,40 " style="fill:white; stroke-width:1; stroke:black; " description="&lt;b&gt;ctg40_38&lt;/b&gt;&lt;br&gt;ctg40 38&lt;br&gt;Location: 28534 - 28672" locus_tag="ctg40_38" class="clusterblast-orf" id="dummy-1_q15_0_all"  />
</g>
<g label="NZ_CP014546" description="NZ_CP014546 (5122833-5153662): Pseudomonas azotoformans strain S4 chromosome,... (18% of genes show similarity), thiopeptide" class="clusterblast-cluster"  >
<text x="5" y="70" class="clusterblast-acc"  >
<a xlink:href="https://antismash-db.secondarymetabolites.org/area.html?record=NZ_CP014546&amp;start=5122833&amp;end=5153662" target="_blank">NZ_CP014546 (5122833-5153662)</a>: Pseudomonas azotoformans strain S4 chromosome,... (18% of genes show similarity), thiopeptide</text>
<line x1="10" y1="85" x2="778.0" y2="85" style="stroke-width:1; stroke:grey; "  />
</g>
<g id="a1_000"  >
<polygon points="0,90 34,90 39,85 34,80 0,80 0,90 " style="fill:white; stroke-width:1; stroke:black; " description="&lt;b&gt;AYR47_RS23590&lt;/b&gt;&lt;br&gt;FAD-dependent oxidoreductase&lt;br&gt;Location: 5153216 - 5151705" locus_tag="AYR47_RS23590" class="clusterblast-orf" id="dummy-1_h1_9_0"  />
</g>
<g id="a1_001"  >
<polygon points="41,90 47,90 52,85 47,80 41,80 41,90 " style="fill:white; stroke-width:1; stroke:black; " description="&lt;b&gt;AYR47_RS23585&lt;/b&gt;&lt;br&gt;hypothetical protein&lt;br&gt;Location: 5151656 - 5151213" locus_tag="AYR47_RS23585" class="clusterblast-orf" id="dummy-1_h1_9_1"  />
</g>
<g id="a1_002"  >
<polygon points="53,90 60,90 65,85 60,80 53,80 53,90 " style="fill:#d81515; stroke-width:1; stroke:black; " description="&lt;b&gt;AYR47_RS23580&lt;/b&gt;&lt;br&gt;NUDIX domain-containing protein&lt;br&gt;Location: 5151196 - 5150735&lt;br&gt;&lt;br&gt;&lt;b&gt;BlastP hit with ctg40_24&lt;/b&gt;&lt;br&gt;Percentage identity: 69&lt;br&gt;Percentage coverage: 100&lt;br&gt;BLAST bit score: 105&lt;br&gt;E-value: 3.58e-29" locus_tag="AYR47_RS23580" class="clusterblast-orf" id="dummy-1_h1_9_2"  />
</g>
<g id="a1_003"  >
<polygon points="65,85 70,80 80,80 80,90 70,90 65,85 " style="fill:#77d815; stroke-width:1; stroke:black; " description="&lt;b&gt;AYR47_RS23575&lt;/b&gt;&lt;br&gt;cysteine hydrolase&lt;br&gt;Location: 5150725 - 5150165&lt;br&gt;&lt;br&gt;&lt;b&gt;BlastP hit with ctg40_25&lt;/b&gt;&lt;br&gt;Percentage identity: 80&lt;br&gt;Percentage coverage: 97&lt;br&gt;BLAST bit score: 296&lt;br&gt;E-value: 3.91e-102" locus_tag="AYR47_RS23575" class="clusterblast-orf" id="dummy-1_h1_9_3"  />
</g>
<g id="a1_004"  >
<polygon points="83,90 91,90 96,85 91,80 83,80 83,90 " style="fill:white; stroke-width:1; stroke:black; " description="&lt;b&gt;AYR47_RS23570&lt;/b&gt;&lt;br&gt;GNAT family N-acetyltransferase&lt;br&gt;Location: 5150062 - 5149541" locus_tag="AYR47_RS23570" class="clusterblast-orf" id="dummy-1_h1_9_4"  />
</g>
<g id="a1_005"  >
<polygon points="95,85 100,80 113,80 113,90 100,90 95,85 " style="fill:#d8a715; stroke-width:1; stroke:black; " description="&lt;b&gt;AYR47_RS23565&lt;/b&gt;&lt;br&gt;TetR family transcriptional regulator&lt;br&gt;Location: 5149587 - 5148922&lt;br&gt;&lt;br&gt;&lt;b&gt;BlastP hit with ctg40_28&lt;/b&gt;&lt;br&gt;Percentage identity: 78&lt;br&gt;Percentage coverage: 99&lt;br&gt;BLAST bit score: 270&lt;br&gt;E-value: 4.18e-91" locus_tag="AYR47_RS23565" class="clusterblast-orf" id="dummy-1_h1_9_5"  />
</g>
<g id="a1_006"  >
<polygon points="116,90 128,90 133,85 128,80 116,80 116,90 " style="fill:#15d846; stroke-width:1; stroke:black; " description="&lt;b&gt;AYR47_RS23560&lt;/b&gt;&lt;br&gt;class I SAM-dependent methyltransferase&lt;br&gt;Location: 5148810 - 5148154&lt;br&gt;&lt;br&gt;&lt;b&gt;BlastP hit with ctg40_29&lt;/b&gt;&lt;br&gt;Percentage identity: 86&lt;br&gt;Percentage coverage: 93&lt;br&gt;BLAST bit score: 370&lt;br&gt;E-value: 6.27e-130" locus_tag="AYR47_RS23560" class="clusterblast-orf" id="dummy-1_h1_9_6"  />
</g>
<g id="a1_007"  >
<polygon points="133,90 151,90 156,85 151,80 133,80 133,90 " style="fill:white; stroke-width:1; stroke:black; " description="&lt;b&gt;AYR47_RS23555&lt;/b&gt;&lt;br&gt;SDR family oxidoreductase&lt;br&gt;Location: 5148138 - 5147272" locus_tag="AYR47_RS23555" class="clusterblast-orf" id="dummy-1_h1_9_7"  />
</g>
<g id="a1_008"  >
<polygon points="157,90 183,90 188,85 183,80 157,80 157,90 " style="fill:white; stroke-width:1; stroke:black; " description="&lt;b&gt;AYR47_RS23550&lt;/b&gt;&lt;br&gt;arabinose transporter&lt;br&gt;Location: 5147258 - 5146080" locus_tag="AYR47_RS23550" class="clusterblast-orf" id="dummy-1_h1_9_8"  />
</g>
<g id="a1_009"  >
<polygon points="187,85 192,80 204,80 204,90 192,90 187,85 " style="fill:#1546d8; stroke-width:1; stroke:black; " description="&lt;b&gt;AYR47_RS23545&lt;/b&gt;&lt;br&gt;LysE family translocator&lt;br&gt;Location: 5146093 - 5145473&lt;br&gt;&lt;br&gt;&lt;b&gt;BlastP hit with ctg40_30&lt;/b&gt;&lt;br&gt;Percentage identity: 88&lt;br&gt;Percentage coverage: 100&lt;br&gt;BLAST bit score: 278&lt;br&gt;E-value: 3.13e-95" locus_tag="AYR47_RS23545" class="clusterblast-orf" id="dummy-1_h1_9_9"  />
</g>
<g id="a1_0010"  >
<polygon points="206,85 211,80 247,80 247,90 211,90 206,85 " style="fill:white; stroke-width:1; stroke:black; " description="&lt;b&gt;AYR47_RS23540&lt;/b&gt;&lt;br&gt;methyl-accepting chemotaxis protein&lt;br&gt;Location: 5145390 - 5143825" locus_tag="AYR47_RS23540" class="clusterblast-orf" id="dummy-1_h1_9_10"  />
</g>
<g id="a1_0011"  >
<polygon points="252,90 305,90 310,85 305,80 252,80 252,90 " style="fill:#d815a7; stroke-width:1; stroke:black; " description="&lt;b&gt;AYR47_RS23535&lt;/b&gt;&lt;br&gt;OsmC domain/YcaO domain-containing protein&lt;br&gt;Location: 5143662 - 5141464&lt;br&gt;&lt;br&gt;&lt;b&gt;BlastP hit with ctg40_32&lt;/b&gt;&lt;br&gt;Percentage identity: 95&lt;br&gt;Percentage coverage: 100&lt;br&gt;BLAST bit score: 1415&lt;br&gt;E-value: 0.0" locus_tag="AYR47_RS23535" class="clusterblast-orf" id="dummy-1_h1_9_11"  />
</g>
<g id="a1_0012"  >
<polygon points="312,85 317,80 343,80 343,90 317,90 312,85 " style="fill:white; stroke-width:1; stroke:black; " description="&lt;b&gt;AYR47_RS23530&lt;/b&gt;&lt;br&gt;cystathionine gamma-synthase&lt;br&gt;Location: 5141373 - 5140207" locus_tag="AYR47_RS23530" class="clusterblast-orf" id="dummy-1_h1_9_12"  />
</g>
<g id="a1_0013"  >
<polygon points="343,85 348,80 379,80 379,90 348,90 343,85 " style="fill:white; stroke-width:1; stroke:black; " description="&lt;b&gt;AYR47_RS23525&lt;/b&gt;&lt;br&gt;cystathionine beta-synthase&lt;br&gt;Location: 5140210 - 5138834" locus_tag="AYR47_RS23525" class="clusterblast-orf" id="dummy-1_h1_9_13"  />
</g>
<g id="a1_0014"  >
<polygon points="383,85 388,80 414,80 414,90 388,90 383,85 " style="fill:white; stroke-width:1; stroke:black; " description="&lt;b&gt;AYR47_RS23520&lt;/b&gt;&lt;br&gt;alpha/beta fold hydrolase&lt;br&gt;Location: 5138693 - 5137521" locus_tag="AYR47_RS23520" class="clusterblast-orf" id="dummy-1_h1_9_14"  />
</g>
<g id="a1_0015"  >
<polygon points="417,85 422,80 439,80 439,90 422,90 417,85 " style="fill:white; stroke-width:1; stroke:black; " description="&lt;b&gt;AYR47_RS23515&lt;/b&gt;&lt;br&gt;4-hydroxy-tetrahydrodipicolinate synthase&lt;br&gt;Location: 5137395 - 5136547" locus_tag="AYR47_RS23515" class="clusterblast-orf" id="dummy-1_h1_9_15"  />
</g>
<g id="a1_0016"  >
<polygon points="447,85 452,80 484,80 484,90 452,90 447,85 " style="fill:white; stroke-width:1; stroke:black; " description="&lt;b&gt;AYR47_RS23510&lt;/b&gt;&lt;br&gt;hypothetical protein&lt;br&gt;Location: 5136239 - 5134845" locus_tag="AYR47_RS23510" class="clusterblast-orf" id="dummy-1_h1_9_16"  />
</g>
<g id="a1_0017"  >
<polygon points="490,90 508,90 513,85 508,80 490,80 490,90 " style="fill:white; stroke-width:1; stroke:black; " description="&lt;b&gt;AYR47_RS23505&lt;/b&gt;&lt;br&gt;SGNH/GDSL hydrolase family protein&lt;br&gt;Location: 5134636 - 5133740" locus_tag="AYR47_RS23505" class="clusterblast-orf" id="dummy-1_h1_9_17"  />
</g>
<g id="a1_0018"  >
<polygon points="513,85 518,80 526,80 526,90 518,90 513,85 " style="fill:white; stroke-width:1; stroke:black; " description="&lt;b&gt;AYR47_RS23500&lt;/b&gt;&lt;br&gt;VOC family protein&lt;br&gt;Location: 5133743 - 5133261" locus_tag="AYR47_RS23500" class="clusterblast-orf" id="dummy-1_h1_9_18"  />
</g>
<g id="a1_0019"  >
<polygon points="527,85 532,80 537,80 537,90 532,90 527,85 " style="fill:white; stroke-width:1; stroke:black; " description="&lt;b&gt;AYR47_RS23495&lt;/b&gt;&lt;br&gt;ester cyclase&lt;br&gt;Location: 5133226 - 5132834" locus_tag="AYR47_RS23495" class="clusterblast-orf" id="dummy-1_h1_9_19"  />
</g>
<g id="a1_0020"  >
<polygon points="537,85 542,80 554,80 554,90 542,90 537,85 " style="fill:white; stroke-width:1; stroke:black; " description="&lt;b&gt;AYR47_RS23490&lt;/b&gt;&lt;br&gt;LysE family translocator&lt;br&gt;Location: 5132830 - 5132210" locus_tag="AYR47_RS23490" class="clusterblast-orf" id="dummy-1_h1_9_20"  />
</g>
<g id="a1_0021"  >
<polygon points="556,85 561,80 570,80 570,90 561,90 556,85 " style="fill:white; stroke-width:1; stroke:black; " description="&lt;b&gt;AYR47_RS23485&lt;/b&gt;&lt;br&gt;adenylate kinase&lt;br&gt;Location: 5132143 - 5131595" locus_tag="AYR47_RS23485" class="clusterblast-orf" id="dummy-1_h1_9_21"  />
</g>
<g id="a1_0022"  >
<polygon points="572,85 577,80 588,80 588,90 577,90 572,85 " style="fill:white; stroke-width:1; stroke:black; " description="&lt;b&gt;AYR47_RS23480&lt;/b&gt;&lt;br&gt;hypothetical protein&lt;br&gt;Location: 5131536 - 5130898" locus_tag="AYR47_RS23480" class="clusterblast-orf" id="dummy-1_h1_9_22"  />
</g>
<g id="a1_0023"  >
<polygon points="590,85 595,80 599,80 599,90 595,90 590,85 " style="fill:white; stroke-width:1; stroke:black; " description="&lt;b&gt;AYR47_RS23475&lt;/b&gt;&lt;br&gt;VOC family protein&lt;br&gt;Location: 5130853 - 5130496" locus_tag="AYR47_RS23475" class="clusterblast-orf" id="dummy-1_h1_9_23"  />
</g>
<g id="a1_0024"  >
<polygon points="602,90 618,90 623,85 618,80 602,80 602,90 " style="fill:white; stroke-width:1; stroke:black; " description="&lt;b&gt;AYR47_RS23470&lt;/b&gt;&lt;br&gt;NAD(P)-binding domain-containing protein&lt;br&gt;Location: 5130378 - 5129587" locus_tag="AYR47_RS23470" class="clusterblast-orf" id="dummy-1_h1_9_24"  />
</g>
<g id="a1_0025"  >
<polygon points="624,85 629,80 641,80 641,90 629,90 624,85 " style="fill:white; stroke-width:1; stroke:black; " description="&lt;b&gt;AYR47_RS23465&lt;/b&gt;&lt;br&gt;hydrolase&lt;br&gt;Location: 5129541 - 5128888" locus_tag="AYR47_RS23465" class="clusterblast-orf" id="dummy-1_h1_9_25"  />
</g>
<g id="a1_0026"  >
<polygon points="645,90 664,90 669,85 664,80 645,80 645,90 " style="fill:white; stroke-width:1; stroke:black; " description="&lt;b&gt;AYR47_RS23460&lt;/b&gt;&lt;br&gt;LysR family transcriptional regulator&lt;br&gt;Location: 5128735 - 5127839" locus_tag="AYR47_RS23460" class="clusterblast-orf" id="dummy-1_h1_9_26"  />
</g>
<g id="a1_0027"  >
<polygon points="670,85 675,80 693,80 693,90 675,90 670,85 " style="fill:white; stroke-width:1; stroke:black; " description="&lt;b&gt;AYR47_RS23455&lt;/b&gt;&lt;br&gt;LysR family transcriptional regulator&lt;br&gt;Location: 5127816 - 5126923" locus_tag="AYR47_RS23455" class="clusterblast-orf" id="dummy-1_h1_9_27"  />
</g>
<g id="a1_0028"  >
<polygon points="696,90 722,90 727,85 722,80 696,80 696,90 " style="fill:white; stroke-width:1; stroke:black; " description="&lt;b&gt;AYR47_RS23450&lt;/b&gt;&lt;br&gt;MFS transporter&lt;br&gt;Location: 5126828 - 5125662" locus_tag="AYR47_RS23450" class="clusterblast-orf" id="dummy-1_h1_9_28"  />
</g>
<g id="a1_0029"  >
<polygon points="729,90 753,90 758,85 753,80 729,80 729,90 " style="fill:white; stroke-width:1; stroke:black; " description="&lt;b&gt;AYR47_RS23445&lt;/b&gt;&lt;br&gt;saccharopine dehydrogenase NADP-binding domain-containing protein&lt;br&gt;Location: 5125581 - 5124463" locus_tag="AYR47_RS23445" class="clusterblast-orf" id="dummy-1_h1_9_29"  />
</g>
<g id="a1_0030"  >
<polygon points="757,85 762,80 768,80 768,90 762,90 757,85 " style="fill:white; stroke-width:1; stroke:black; " description="&lt;b&gt;AYR47_RS23440&lt;/b&gt;&lt;br&gt;DoxX-like family protein&lt;br&gt;Location: 5124509 - 5124105" locus_tag="AYR47_RS23440" class="clusterblast-orf" id="dummy-1_h1_9_30"  />
</g>
<g id="a1_0031"  >
<polygon points="768,85 773,80 780,80 780,90 773,90 768,85 " style="fill:white; stroke-width:1; stroke:black; " description="&lt;b&gt;AYR47_RS23435&lt;/b&gt;&lt;br&gt;thiol-disulfide oxidoreductase DCC family protein&lt;br&gt;Location: 5124108 - 5123656" locus_tag="AYR47_RS23435" class="clusterblast-orf" id="dummy-1_h1_9_31"  />
</g>
</svg>
