<svg xmlns="http://www.w3.org/2000/svg" xmlns:xlink="http://www.w3.org/1999/xlink" version="1.1" x="0" y="0" height="230" width="800" viewBox="0 0 800 230" preserveAspectRatio="none"  >
<g label="Query sequence" class="clusterblast-cluster"  >
<text x="5" y="20" class="clusterblast-acc"  >
Query sequence</text>
<line x1="10" y1="35" x2="778.0" y2="35" style="stroke-width:1; stroke:grey; "  />
<polygon points="4,35 9,30 73,30 73,40 9,40 4,35 " style="fill:#d81515; stroke-width:1; stroke:black; " description="&lt;b&gt;ctg2_262&lt;/b&gt;&lt;br&gt;ctg2 262&lt;br&gt;Location: 291666 - 292707" locus_tag="ctg2_262" class="clusterblast-orf" id="dummy-3_q0_0_all"  />
<polygon points="96,40 162,40 167,35 162,30 96,30 96,40 " style="fill:#3cd815; stroke-width:1; stroke:black; " description="&lt;b&gt;ctg2_263&lt;/b&gt;&lt;br&gt;ctg2 263&lt;br&gt;Location: 293050 - 294109" locus_tag="ctg2_263" class="clusterblast-orf" id="dummy-3_q1_0_all"  />
<polygon points="167,40 206,40 211,35 206,30 167,30 167,40 " style="fill:#1563d8; stroke-width:1; stroke:black; " description="&lt;b&gt;ctg2_264&lt;/b&gt;&lt;br&gt;ctg2 264&lt;br&gt;Location: 294108 - 294759" locus_tag="ctg2_264" class="clusterblast-orf" id="dummy-3_q2_0_all"  />
<polygon points="212,40 254,40 259,35 254,30 212,30 212,40 " style="fill:#b115d8; stroke-width:1; stroke:black; " description="&lt;b&gt;ctg2_265&lt;/b&gt;&lt;br&gt;ctg2 265&lt;br&gt;Location: 294767 - 295481" locus_tag="ctg2_265" class="clusterblast-orf" id="dummy-3_q3_0_all"  />
<polygon points="285,40 292,40 297,35 292,30 285,30 285,40 " style="fill:#d88a15; stroke-width:1; stroke:black; " description="&lt;b&gt;ctg2_266&lt;/b&gt;&lt;br&gt;ctg2 266&lt;br&gt;Location: 295857 - 296046" locus_tag="ctg2_266" class="clusterblast-orf" id="dummy-3_q4_0_all"  />
<polygon points="323,40 447,40 452,35 447,30 323,30 323,40 " style="fill:#15d863; stroke-width:1; stroke:black; " description="&lt;b&gt;ctg2_267&lt;/b&gt;&lt;br&gt;ctg2 267&lt;br&gt;Location: 296427 - 298353" locus_tag="ctg2_267" class="clusterblast-orf" id="dummy-3_q5_0_all"  />
<polygon points="451,40 528,40 533,35 528,30 451,30 451,40 " style="fill:#3c15d8; stroke-width:1; stroke:black; " description="&lt;b&gt;ctg2_268&lt;/b&gt;&lt;br&gt;ctg2 268&lt;br&gt;Location: 298342 - 299554" locus_tag="ctg2_268" class="clusterblast-orf" id="dummy-3_q6_0_all"  />
<polygon points="533,40 671,40 676,35 671,30 533,30 533,40 " style="fill:#d8158a; stroke-width:1; stroke:black; " description="&lt;b&gt;ctg2_269&lt;/b&gt;&lt;br&gt;ctg2 269&lt;br&gt;Location: 299565 - 301686" locus_tag="ctg2_269" class="clusterblast-orf" id="dummy-3_q7_0_all"  />
<polygon points="683,35 688,30 719,30 719,40 688,40 683,35 " style="fill:#b1d815; stroke-width:1; stroke:black; " description="&lt;b&gt;ctg2_270&lt;/b&gt;&lt;br&gt;ctg2 270&lt;br&gt;Location: 301788 - 302334" locus_tag="ctg2_270" class="clusterblast-orf" id="dummy-3_q8_0_all"  />
<polygon points="721,35 726,30 777,30 777,40 726,40 721,35 " style="fill:#15d8d8; stroke-width:1; stroke:black; " description="&lt;b&gt;ctg2_271&lt;/b&gt;&lt;br&gt;ctg2 271&lt;br&gt;Location: 302359 - 303193" locus_tag="ctg2_271" class="clusterblast-orf" id="dummy-3_q9_0_all"  />
</g>
<g label="NZ_CP019428" description="NZ_CP019428 (4908769-4920695): Pseudomonas sp. R76 chromosome, complete genome (100% of genes show similarity), siderophore" class="clusterblast-cluster"  >
<text x="5" y="70" class="clusterblast-acc"  >
<a xlink:href="https://antismash-db.secondarymetabolites.org/area.html?record=NZ_CP019428&amp;start=4908769&amp;end=4920695" target="_blank">NZ_CP019428 (4908769-4920695)</a>: Pseudomonas sp. R76 chromosome, complete genome (100% of genes show similarity), siderophore</text>
<line x1="10" y1="85" x2="778.0" y2="85" style="stroke-width:1; stroke:grey; "  />
</g>
<g id="a3_000"  >
<polygon points="0,85 5,80 69,80 69,90 5,90 0,85 " style="fill:#d81515; stroke-width:1; stroke:black; " description="&lt;b&gt;PspR76_RS22070&lt;/b&gt;&lt;br&gt;DUF2066 domain-containing protein&lt;br&gt;Location: 4908980 - 4910020&lt;br&gt;&lt;br&gt;&lt;b&gt;BlastP hit with ctg2_262&lt;/b&gt;&lt;br&gt;Percentage identity: 96&lt;br&gt;Percentage coverage: 100&lt;br&gt;BLAST bit score: 647&lt;br&gt;E-value: 2.33e-235" locus_tag="PspR76_RS22070" class="clusterblast-orf" id="dummy-3_h3_4_0"  />
</g>
<g id="a3_001"  >
<polygon points="93,90 159,90 164,85 159,80 93,80 93,90 " style="fill:#3cd815; stroke-width:1; stroke:black; " description="&lt;b&gt;PspR76_RS22075&lt;/b&gt;&lt;br&gt;phosphoribosylformylglycinamidine cyclo-ligase&lt;br&gt;Location: 4910375 - 4911433&lt;br&gt;&lt;br&gt;&lt;b&gt;BlastP hit with ctg2_263&lt;/b&gt;&lt;br&gt;Percentage identity: 98&lt;br&gt;Percentage coverage: 100&lt;br&gt;BLAST bit score: 696&lt;br&gt;E-value: 1.15e-254" locus_tag="PspR76_RS22075" class="clusterblast-orf" id="dummy-3_h3_4_1"  />
</g>
<g id="a3_002"  >
<polygon points="164,90 203,90 208,85 203,80 164,80 164,90 " style="fill:#1563d8; stroke-width:1; stroke:black; " description="&lt;b&gt;PspR76_RS22080&lt;/b&gt;&lt;br&gt;phosphoribosylglycinamide formyltransferase&lt;br&gt;Location: 4911433 - 4912083&lt;br&gt;&lt;br&gt;&lt;b&gt;BlastP hit with ctg2_264&lt;/b&gt;&lt;br&gt;Percentage identity: 97&lt;br&gt;Percentage coverage: 100&lt;br&gt;BLAST bit score: 419&lt;br&gt;E-value: 8.78e-150" locus_tag="PspR76_RS22080" class="clusterblast-orf" id="dummy-3_h3_4_2"  />
</g>
<g id="a3_003"  >
<polygon points="208,90 251,90 256,85 251,80 208,80 208,90 " style="fill:#b115d8; stroke-width:1; stroke:black; " description="&lt;b&gt;PspR76_RS22085&lt;/b&gt;&lt;br&gt;DUF3108 domain-containing protein&lt;br&gt;Location: 4912092 - 4912805&lt;br&gt;&lt;br&gt;&lt;b&gt;BlastP hit with ctg2_265&lt;/b&gt;&lt;br&gt;Percentage identity: 99&lt;br&gt;Percentage coverage: 100&lt;br&gt;BLAST bit score: 460&lt;br&gt;E-value: 4.32e-165" locus_tag="PspR76_RS22085" class="clusterblast-orf" id="dummy-3_h3_4_3"  />
</g>
<g id="a3_004"  >
<polygon points="282,90 290,90 295,85 290,80 282,80 282,90 " style="fill:#d88a15; stroke-width:1; stroke:black; " description="&lt;b&gt;PspR76_RS22090&lt;/b&gt;&lt;br&gt;hypothetical protein&lt;br&gt;Location: 4913199 - 4913387&lt;br&gt;&lt;br&gt;&lt;b&gt;BlastP hit with ctg2_266&lt;/b&gt;&lt;br&gt;Percentage identity: 98&lt;br&gt;Percentage coverage: 100&lt;br&gt;BLAST bit score: 126&lt;br&gt;E-value: 1.61e-38" locus_tag="PspR76_RS22090" class="clusterblast-orf" id="dummy-3_h3_4_4"  />
</g>
<g id="a3_005"  >
<polygon points="321,90 445,90 450,85 445,80 321,80 321,90 " style="fill:#15d863; stroke-width:1; stroke:black; " description="&lt;b&gt;PspR76_RS22095&lt;/b&gt;&lt;br&gt;siderophore synthetase&lt;br&gt;Location: 4913770 - 4915695&lt;br&gt;&lt;br&gt;&lt;b&gt;BlastP hit with ctg2_267&lt;/b&gt;&lt;br&gt;Percentage identity: 95&lt;br&gt;Percentage coverage: 100&lt;br&gt;BLAST bit score: 1234&lt;br&gt;E-value: 0.0" locus_tag="PspR76_RS22095" class="clusterblast-orf" id="dummy-3_h3_4_5"  />
</g>
<g id="a3_006"  >
<polygon points="449,90 525,90 530,85 525,80 449,80 449,90 " style="fill:#3c15d8; stroke-width:1; stroke:black; " description="&lt;b&gt;PspR76_RS22100&lt;/b&gt;&lt;br&gt;MFS transporter&lt;br&gt;Location: 4915685 - 4916896&lt;br&gt;&lt;br&gt;&lt;b&gt;BlastP hit with ctg2_268&lt;/b&gt;&lt;br&gt;Percentage identity: 96&lt;br&gt;Percentage coverage: 100&lt;br&gt;BLAST bit score: 744&lt;br&gt;E-value: 3.81e-272" locus_tag="PspR76_RS22100" class="clusterblast-orf" id="dummy-3_h3_4_6"  />
</g>
<g id="a3_007"  >
<polygon points="531,90 668,90 673,85 668,80 531,80 531,90 " style="fill:#d8158a; stroke-width:1; stroke:black; " description="&lt;b&gt;PspR76_RS22105&lt;/b&gt;&lt;br&gt;TonB-dependent receptor&lt;br&gt;Location: 4916908 - 4919028&lt;br&gt;&lt;br&gt;&lt;b&gt;BlastP hit with ctg2_269&lt;/b&gt;&lt;br&gt;Percentage identity: 97&lt;br&gt;Percentage coverage: 100&lt;br&gt;BLAST bit score: 1384&lt;br&gt;E-value: 0.0" locus_tag="PspR76_RS22105" class="clusterblast-orf" id="dummy-3_h3_4_7"  />
</g>
<g id="a3_008"  >
<polygon points="685,85 690,80 722,80 722,90 690,90 685,85 " style="fill:#b1d815; stroke-width:1; stroke:black; " description="&lt;b&gt;PspR76_RS22110&lt;/b&gt;&lt;br&gt;DUF2058 family protein&lt;br&gt;Location: 4919205 - 4919750&lt;br&gt;&lt;br&gt;&lt;b&gt;BlastP hit with ctg2_270&lt;/b&gt;&lt;br&gt;Percentage identity: 98&lt;br&gt;Percentage coverage: 100&lt;br&gt;BLAST bit score: 331&lt;br&gt;E-value: 7.11e-116" locus_tag="PspR76_RS22110" class="clusterblast-orf" id="dummy-3_h3_4_8"  />
</g>
<g id="a3_009"  >
<polygon points="724,85 729,80 780,80 780,90 729,90 724,85 " style="fill:#15d8d8; stroke-width:1; stroke:black; " description="&lt;b&gt;PspR76_RS22115&lt;/b&gt;&lt;br&gt;nucleoside triphosphate pyrophosphohydrolase&lt;br&gt;Location: 4919776 - 4920609&lt;br&gt;&lt;br&gt;&lt;b&gt;BlastP hit with ctg2_271&lt;/b&gt;&lt;br&gt;Percentage identity: 96&lt;br&gt;Percentage coverage: 100&lt;br&gt;BLAST bit score: 536&lt;br&gt;E-value: 6.17e-194" locus_tag="PspR76_RS22115" class="clusterblast-orf" id="dummy-3_h3_4_9"  />
</g>
</svg>
