<svg xmlns="http://www.w3.org/2000/svg" xmlns:xlink="http://www.w3.org/1999/xlink" version="1.1" x="0" y="0" height="230" width="800" viewBox="0 0 800 230" preserveAspectRatio="none"  >
<g label="Query sequence" class="clusterblast-cluster"  >
<text x="5" y="20" class="clusterblast-acc"  >
Query sequence</text>
<line x1="10" y1="35" x2="778.0" y2="35" style="stroke-width:1; stroke:grey; "  />
<polygon points="43,40 48,40 53,35 48,30 43,30 43,40 " style="fill:#d81515; stroke-width:1; stroke:black; " description="&lt;b&gt;ctg2_73&lt;/b&gt;&lt;br&gt;ctg2 73&lt;br&gt;Location: 82556 - 83294" locus_tag="ctg2_73" class="clusterblast-orf" id="dummy-2_q0_0_all"  />
<polygon points="56,40 62,40 67,35 62,30 56,30 56,40 " style="fill:#43d815; stroke-width:1; stroke:black; " description="&lt;b&gt;ctg2_74&lt;/b&gt;&lt;br&gt;ctg2 74&lt;br&gt;Location: 83494 - 84307" locus_tag="ctg2_74" class="clusterblast-orf" id="dummy-2_q1_0_all"  />
<polygon points="67,40 70,35 67,30 67,40 " style="fill:#15b6d8; stroke-width:1; stroke:black; " description="&lt;b&gt;ctg2_75&lt;/b&gt;&lt;br&gt;ctg2 75&lt;br&gt;Location: 84310 - 84565" locus_tag="ctg2_75" class="clusterblast-orf" id="dummy-2_q2_0_all"  />
<polygon points="71,40 75,40 80,35 75,30 71,30 71,40 " style="fill:white; stroke-width:1; stroke:black; " description="&lt;b&gt;ctg2_76&lt;/b&gt;&lt;br&gt;ctg2 76&lt;br&gt;Location: 84661 - 85297" locus_tag="ctg2_76" class="clusterblast-orf" id="dummy-2_q3_0_all"  />
<polygon points="81,40 93,40 98,35 93,30 81,30 81,40 " style="fill:white; stroke-width:1; stroke:black; " description="&lt;b&gt;ctg2_77&lt;/b&gt;&lt;br&gt;ctg2 77&lt;br&gt;Location: 85407 - 86697" locus_tag="ctg2_77" class="clusterblast-orf" id="dummy-2_q4_0_all"  />
<polygon points="101,40 104,35 101,30 101,40 " style="fill:white; stroke-width:1; stroke:black; " description="&lt;b&gt;ctg2_78&lt;/b&gt;&lt;br&gt;ctg2 78&lt;br&gt;Location: 86917 - 87094" locus_tag="ctg2_78" class="clusterblast-orf" id="dummy-2_q5_0_all"  />
<polygon points="105,40 129,40 134,35 129,30 105,30 105,40 " style="fill:white; stroke-width:1; stroke:black; " description="&lt;b&gt;ctg2_79&lt;/b&gt;&lt;br&gt;ctg2 79&lt;br&gt;Location: 87166 - 89332" locus_tag="ctg2_79" class="clusterblast-orf" id="dummy-2_q6_0_all"  />
<polygon points="134,40 147,40 152,35 147,30 134,30 134,40 " style="fill:white; stroke-width:1; stroke:black; " description="&lt;b&gt;ctg2_80&lt;/b&gt;&lt;br&gt;ctg2 80&lt;br&gt;Location: 89349 - 90696" locus_tag="ctg2_80" class="clusterblast-orf" id="dummy-2_q7_0_all"  />
<polygon points="153,35 156,30 156,40 153,35 " style="fill:#8815d8; stroke-width:1; stroke:black; " description="&lt;b&gt;ctg2_81&lt;/b&gt;&lt;br&gt;ctg2 81&lt;br&gt;Location: 90812 - 91037" locus_tag="ctg2_81" class="clusterblast-orf" id="dummy-2_q8_0_all"  />
<polygon points="157,35 162,30 176,30 176,40 162,40 157,35 " style="fill:#d85a15; stroke-width:1; stroke:black; " description="&lt;b&gt;ctg2_82&lt;/b&gt;&lt;br&gt;ctg2 82&lt;br&gt;Location: 91120 - 92533" locus_tag="ctg2_82" class="clusterblast-orf" id="dummy-2_q9_0_all"  />
<polygon points="179,35 184,30 189,30 189,40 184,40 179,35 " style="fill:white; stroke-width:1; stroke:black; " description="&lt;b&gt;ctg2_83&lt;/b&gt;&lt;br&gt;ctg2 83&lt;br&gt;Location: 92729 - 93497" locus_tag="ctg2_83" class="clusterblast-orf" id="dummy-2_q10_0_all"  />
<polygon points="191,35 196,30 208,30 208,40 196,40 191,35 " style="fill:#15d82c; stroke-width:1; stroke:black; " description="&lt;b&gt;ctg2_84&lt;/b&gt;&lt;br&gt;ctg2 84&lt;br&gt;Location: 93621 - 94944" locus_tag="ctg2_84" class="clusterblast-orf" id="dummy-2_q11_0_all"  />
<polygon points="208,35 213,30 217,30 217,40 213,40 208,35 " style="fill:#1571d8; stroke-width:1; stroke:black; " description="&lt;b&gt;ctg2_85&lt;/b&gt;&lt;br&gt;ctg2 85&lt;br&gt;Location: 94940 - 95636" locus_tag="ctg2_85" class="clusterblast-orf" id="dummy-2_q12_0_all"  />
<polygon points="220,40 238,40 243,35 238,30 220,30 220,40 " style="fill:#cd15d8; stroke-width:1; stroke:black; " description="&lt;b&gt;ctg2_86&lt;/b&gt;&lt;br&gt;ctg2 86&lt;br&gt;Location: 95812 - 97558" locus_tag="ctg2_86" class="clusterblast-orf" id="dummy-2_q13_0_all"  />
<polygon points="243,40 249,40 254,35 249,30 243,30 243,40 " style="fill:#d89f15; stroke-width:1; stroke:black; " description="&lt;b&gt;ctg2_87&lt;/b&gt;&lt;br&gt;ctg2 87&lt;br&gt;Location: 97557 - 98409" locus_tag="ctg2_87" class="clusterblast-orf" id="dummy-2_q14_0_all"  />
<polygon points="254,40 259,40 264,35 259,30 254,30 254,40 " style="fill:#15d871; stroke-width:1; stroke:black; " description="&lt;b&gt;ctg2_88&lt;/b&gt;&lt;br&gt;ctg2 88&lt;br&gt;Location: 98384 - 99146" locus_tag="ctg2_88" class="clusterblast-orf" id="dummy-2_q15_0_all"  />
<polygon points="267,35 272,30 281,30 281,40 272,40 267,35 " style="fill:#152cd8; stroke-width:1; stroke:black; " description="&lt;b&gt;ctg2_89&lt;/b&gt;&lt;br&gt;ctg2 89&lt;br&gt;Location: 99346 - 100411" locus_tag="ctg2_89" class="clusterblast-orf" id="dummy-2_q16_0_all"  />
<polygon points="281,35 286,30 290,30 290,40 286,40 281,35 " style="fill:#d8159f; stroke-width:1; stroke:black; " description="&lt;b&gt;ctg2_90&lt;/b&gt;&lt;br&gt;ctg2 90&lt;br&gt;Location: 100451 - 101087" locus_tag="ctg2_90" class="clusterblast-orf" id="dummy-2_q17_0_all"  />
<polygon points="303,35 308,30 475,30 475,40 308,40 303,35 " style="fill:#cdd815; stroke-width:1; stroke:black; " description="&lt;b&gt;ctg2_91&lt;/b&gt;&lt;br&gt;ctg2 91&lt;br&gt;Location: 102107 - 115004" locus_tag="ctg2_91" class="clusterblast-orf" id="dummy-2_q18_0_all"  />
<polygon points="476,35 481,30 486,30 486,40 481,40 476,35 " style="fill:#15d8b6; stroke-width:1; stroke:black; " description="&lt;b&gt;ctg2_92&lt;/b&gt;&lt;br&gt;ctg2 92&lt;br&gt;Location: 115054 - 115807" locus_tag="ctg2_92" class="clusterblast-orf" id="dummy-2_q19_0_all"  />
<polygon points="490,40 492,40 497,35 492,30 490,30 490,40 " style="fill:#4315d8; stroke-width:1; stroke:black; " description="&lt;b&gt;ctg2_93&lt;/b&gt;&lt;br&gt;ctg2 93&lt;br&gt;Location: 116107 - 116659" locus_tag="ctg2_93" class="clusterblast-orf" id="dummy-2_q20_0_all"  />
<polygon points="498,35 503,30 508,30 508,40 503,40 498,35 " style="fill:white; stroke-width:1; stroke:black; " description="&lt;b&gt;ctg2_94&lt;/b&gt;&lt;br&gt;ctg2 94&lt;br&gt;Location: 116697 - 117486" locus_tag="ctg2_94" class="clusterblast-orf" id="dummy-2_q21_0_all"  />
<polygon points="509,35 514,30 518,30 518,40 514,40 509,35 " style="fill:white; stroke-width:1; stroke:black; " description="&lt;b&gt;ctg2_95&lt;/b&gt;&lt;br&gt;ctg2 95&lt;br&gt;Location: 117579 - 118203" locus_tag="ctg2_95" class="clusterblast-orf" id="dummy-2_q22_0_all"  />
<polygon points="520,40 538,40 543,35 538,30 520,30 520,40 " style="fill:white; stroke-width:1; stroke:black; " description="&lt;b&gt;ctg2_96&lt;/b&gt;&lt;br&gt;ctg2 96&lt;br&gt;Location: 118356 - 120135" locus_tag="ctg2_96" class="clusterblast-orf" id="dummy-2_q23_0_all"  />
<polygon points="544,40 550,40 555,35 550,30 544,30 544,40 " style="fill:white; stroke-width:1; stroke:black; " description="&lt;b&gt;ctg2_97&lt;/b&gt;&lt;br&gt;ctg2 97&lt;br&gt;Location: 120147 - 121020" locus_tag="ctg2_97" class="clusterblast-orf" id="dummy-2_q24_0_all"  />
<polygon points="555,40 572,40 577,35 572,30 555,30 555,40 " style="fill:#d8155a; stroke-width:1; stroke:black; " description="&lt;b&gt;ctg2_98&lt;/b&gt;&lt;br&gt;ctg2 98&lt;br&gt;Location: 121023 - 122640" locus_tag="ctg2_98" class="clusterblast-orf" id="dummy-2_q25_0_all"  />
<polygon points="577,40 587,40 592,35 587,30 577,30 577,40 " style="fill:white; stroke-width:1; stroke:black; " description="&lt;b&gt;ctg2_99&lt;/b&gt;&lt;br&gt;ctg2 99&lt;br&gt;Location: 122656 - 123814" locus_tag="ctg2_99" class="clusterblast-orf" id="dummy-2_q26_0_all"  />
<polygon points="592,40 597,40 602,35 597,30 592,30 592,40 " style="fill:white; stroke-width:1; stroke:black; " description="&lt;b&gt;ctg2_100&lt;/b&gt;&lt;br&gt;ctg2 100&lt;br&gt;Location: 123810 - 124578" locus_tag="ctg2_100" class="clusterblast-orf" id="dummy-2_q27_0_all"  />
<polygon points="604,40 625,40 630,35 625,30 604,30 604,40 " style="fill:#88d815; stroke-width:1; stroke:black; " description="&lt;b&gt;ctg2_101&lt;/b&gt;&lt;br&gt;ctg2 101&lt;br&gt;Location: 124689 - 126612" locus_tag="ctg2_101" class="clusterblast-orf" id="dummy-2_q28_0_all"  />
<polygon points="631,40 633,40 638,35 633,30 631,30 631,40 " style="fill:white; stroke-width:1; stroke:black; " description="&lt;b&gt;ctg2_102&lt;/b&gt;&lt;br&gt;ctg2 102&lt;br&gt;Location: 126703 - 127246" locus_tag="ctg2_102" class="clusterblast-orf" id="dummy-2_q29_0_all"  />
<polygon points="639,40 643,35 639,30 639,40 " style="fill:white; stroke-width:1; stroke:black; " description="&lt;b&gt;ctg2_103&lt;/b&gt;&lt;br&gt;ctg2 103&lt;br&gt;Location: 127311 - 127596" locus_tag="ctg2_103" class="clusterblast-orf" id="dummy-2_q30_0_all"  />
<polygon points="643,35 648,30 654,30 654,40 648,40 643,35 " style="fill:white; stroke-width:1; stroke:black; " description="&lt;b&gt;ctg2_104&lt;/b&gt;&lt;br&gt;ctg2 104&lt;br&gt;Location: 127660 - 128467" locus_tag="ctg2_104" class="clusterblast-orf" id="dummy-2_q31_0_all"  />
<polygon points="655,35 660,30 667,30 667,40 660,40 655,35 " style="fill:white; stroke-width:1; stroke:black; " description="&lt;b&gt;ctg2_105&lt;/b&gt;&lt;br&gt;ctg2 105&lt;br&gt;Location: 128505 - 129441" locus_tag="ctg2_105" class="clusterblast-orf" id="dummy-2_q32_0_all"  />
<polygon points="674,40 675,40 680,35 675,30 674,30 674,40 " style="fill:white; stroke-width:1; stroke:black; " description="&lt;b&gt;ctg2_106&lt;/b&gt;&lt;br&gt;ctg2 106&lt;br&gt;Location: 129974 - 130424" locus_tag="ctg2_106" class="clusterblast-orf" id="dummy-2_q33_0_all"  />
<polygon points="685,40 692,40 697,35 692,30 685,30 685,40 " style="fill:white; stroke-width:1; stroke:black; " description="&lt;b&gt;ctg2_107&lt;/b&gt;&lt;br&gt;ctg2 107&lt;br&gt;Location: 130807 - 131701" locus_tag="ctg2_107" class="clusterblast-orf" id="dummy-2_q34_0_all"  />
<polygon points="697,40 701,40 706,35 701,30 697,30 697,40 " style="fill:white; stroke-width:1; stroke:black; " description="&lt;b&gt;ctg2_108&lt;/b&gt;&lt;br&gt;ctg2 108&lt;br&gt;Location: 131697 - 132357" locus_tag="ctg2_108" class="clusterblast-orf" id="dummy-2_q35_0_all"  />
<polygon points="705,35 710,30 718,30 718,40 710,40 705,35 " style="fill:white; stroke-width:1; stroke:black; " description="&lt;b&gt;ctg2_109&lt;/b&gt;&lt;br&gt;ctg2 109&lt;br&gt;Location: 132315 - 133236" locus_tag="ctg2_109" class="clusterblast-orf" id="dummy-2_q36_0_all"  />
<polygon points="719,35 724,30 726,30 726,40 724,40 719,35 " style="fill:white; stroke-width:1; stroke:black; " description="&lt;b&gt;ctg2_110&lt;/b&gt;&lt;br&gt;ctg2 110&lt;br&gt;Location: 133326 - 133872" locus_tag="ctg2_110" class="clusterblast-orf" id="dummy-2_q37_0_all"  />
<polygon points="727,35 731,30 731,40 727,35 " style="fill:white; stroke-width:1; stroke:black; " description="&lt;b&gt;ctg2_111&lt;/b&gt;&lt;br&gt;ctg2 111&lt;br&gt;Location: 133904 - 134231" locus_tag="ctg2_111" class="clusterblast-orf" id="dummy-2_q38_0_all"  />
<polygon points="731,35 736,30 736,30 736,40 736,40 731,35 " style="fill:white; stroke-width:1; stroke:black; " description="&lt;b&gt;ctg2_112&lt;/b&gt;&lt;br&gt;ctg2 112&lt;br&gt;Location: 134254 - 134605" locus_tag="ctg2_112" class="clusterblast-orf" id="dummy-2_q39_0_all"  />
</g>
<g label="BGC0000984" description="BGC0000984_c1: delftibactin A/delftibactin B (15% of genes show similarity), NRP+Polyketide" class="clusterblast-cluster"  >
<text x="5" y="70" class="clusterblast-acc"  >
<a xlink:href="https://mibig.secondarymetabolites.org/go/BGC0000984/1" target="_blank">BGC0000984</a>: delftibactin A/delftibactin B                                                    (15% of genes show similarity), NRP+Polyketide</text>
<line x1="10" y1="85" x2="778.0" y2="85" style="stroke-width:1; stroke:grey; "  />
</g>
<g id="a2_000"  >
<polygon points="0,85 5,80 11,80 11,90 5,90 0,85 " style="fill:white; stroke-width:1; stroke:black; " description="&lt;b&gt;Daci_4745&lt;/b&gt;&lt;br&gt;conserved hypothetical protein&lt;br&gt;Location: 2 - 856" locus_tag="Daci_4745" class="clusterblast-orf" id="dummy-2_h2_4_0"  />
</g>
<g id="a2_001"  >
<polygon points="11,85 16,80 34,80 34,90 16,90 11,85 " style="fill:white; stroke-width:1; stroke:black; " description="&lt;b&gt;Daci_4746&lt;/b&gt;&lt;br&gt;cyclic peptide transporter&lt;br&gt;Location: 878 - 2593" locus_tag="Daci_4746" class="clusterblast-orf" id="dummy-2_h2_4_1"  />
</g>
<g id="a2_002"  >
<polygon points="37,90 45,90 50,85 45,80 37,80 37,90 " style="fill:white; stroke-width:1; stroke:black; " description="&lt;b&gt;Daci_4747&lt;/b&gt;&lt;br&gt;Alpha/beta hydrolase fold-3 domain protein&lt;br&gt;Location: 2839 - 3804" locus_tag="Daci_4747" class="clusterblast-orf" id="dummy-2_h2_4_2"  />
</g>
<g id="a2_003"  >
<polygon points="51,90 62,90 67,85 62,80 51,80 51,90 " style="fill:white; stroke-width:1; stroke:black; " description="&lt;b&gt;Daci_4748&lt;/b&gt;&lt;br&gt;conserved hypothetical protein&lt;br&gt;Location: 3864 - 5066" locus_tag="Daci_4748" class="clusterblast-orf" id="dummy-2_h2_4_3"  />
</g>
<g id="a2_004"  >
<polygon points="67,90 79,90 84,85 79,80 67,80 67,90 " style="fill:white; stroke-width:1; stroke:black; " description="&lt;b&gt;Daci_4749&lt;/b&gt;&lt;br&gt;L-lysine 6-monooxygenase (NADPH)&lt;br&gt;Location: 5078 - 6376" locus_tag="Daci_4749" class="clusterblast-orf" id="dummy-2_h2_4_4"  />
</g>
<g id="a2_005"  >
<polygon points="87,90 90,90 95,85 90,80 87,80 87,90 " style="fill:white; stroke-width:1; stroke:black; " description="&lt;b&gt;Daci_4750&lt;/b&gt;&lt;br&gt;RNA polymerase, sigma-24 subunit, ECF subfamily&lt;br&gt;Location: 6589 - 7188" locus_tag="Daci_4750" class="clusterblast-orf" id="dummy-2_h2_4_5"  />
</g>
<g id="a2_006"  >
<polygon points="95,90 104,90 109,85 104,80 95,80 95,90 " style="fill:white; stroke-width:1; stroke:black; " description="&lt;b&gt;Daci_4751&lt;/b&gt;&lt;br&gt;anti-FecI sigma factor, FecR&lt;br&gt;Location: 7201 - 8235" locus_tag="Daci_4751" class="clusterblast-orf" id="dummy-2_h2_4_6"  />
</g>
<g id="a2_007"  >
<polygon points="110,85 115,80 142,80 142,90 115,90 110,85 " style="fill:white; stroke-width:1; stroke:black; " description="&lt;b&gt;Daci_4752&lt;/b&gt;&lt;br&gt;TonB-dependent siderophore receptor&lt;br&gt;Location: 8312 - 10711" locus_tag="Daci_4752" class="clusterblast-orf" id="dummy-2_h2_4_7"  />
</g>
<g id="a2_008"  >
<polygon points="144,85 149,80 391,80 391,90 149,90 144,85 " style="fill:white; stroke-width:1; stroke:black; " description="&lt;b&gt;Daci_4753&lt;/b&gt;&lt;br&gt;amino acid adenylation domain protein&lt;br&gt;Location: 10893 - 29423" locus_tag="Daci_4753" class="clusterblast-orf" id="dummy-2_h2_4_8"  />
</g>
<g id="a2_009"  >
<polygon points="391,85 396,80 524,80 524,90 396,90 391,85 " style="fill:white; stroke-width:1; stroke:black; " description="&lt;b&gt;Daci_4754&lt;/b&gt;&lt;br&gt;amino acid adenylation domain protein&lt;br&gt;Location: 29423 - 39418" locus_tag="Daci_4754" class="clusterblast-orf" id="dummy-2_h2_4_9"  />
</g>
<g id="a2_0010"  >
<polygon points="523,85 528,80 586,80 586,90 528,90 523,85 " style="fill:white; stroke-width:1; stroke:black; " description="&lt;b&gt;Daci_4755&lt;/b&gt;&lt;br&gt;Beta-ketoacyl synthase&lt;br&gt;Location: 39381 - 44063" locus_tag="Daci_4755" class="clusterblast-orf" id="dummy-2_h2_4_10"  />
</g>
<g id="a2_0011"  >
<polygon points="586,85 591,80 657,80 657,90 591,90 586,85 " style="fill:#cdd815; stroke-width:1; stroke:black; " description="&lt;b&gt;Daci_4756&lt;/b&gt;&lt;br&gt;amino acid adenylation domain protein&lt;br&gt;Location: 44063 - 49432&lt;br&gt;&lt;br&gt;&lt;b&gt;BlastP hit with ctg2_91&lt;/b&gt;&lt;br&gt;Percentage identity: 46&lt;br&gt;Percentage coverage: 41&lt;br&gt;BLAST bit score: 1408&lt;br&gt;E-value: 0.0" locus_tag="Daci_4756" class="clusterblast-orf" id="dummy-2_h2_4_11"  />
</g>
<g id="a2_0012"  >
<polygon points="657,85 662,80 671,80 671,90 662,90 657,85 " style="fill:white; stroke-width:1; stroke:black; " description="&lt;b&gt;Daci_4757&lt;/b&gt;&lt;br&gt;Taurine catabolism dioxygenase TauD/TfdA&lt;br&gt;Location: 49453 - 50442" locus_tag="Daci_4757" class="clusterblast-orf" id="dummy-2_h2_4_12"  />
</g>
<g id="a2_0013"  >
<polygon points="671,85 676,80 680,80 680,90 676,90 671,85 " style="fill:white; stroke-width:1; stroke:black; " description="&lt;b&gt;Daci_4758&lt;/b&gt;&lt;br&gt;4'-phosphopantetheinyl transferase&lt;br&gt;Location: 50439 - 51128" locus_tag="Daci_4758" class="clusterblast-orf" id="dummy-2_h2_4_13"  />
</g>
<g id="a2_0014"  >
<polygon points="679,85 684,80 689,80 689,90 684,90 679,85 " style="fill:#15d8b6; stroke-width:1; stroke:black; " description="&lt;b&gt;Daci_4759&lt;/b&gt;&lt;br&gt;Thioesterase&lt;br&gt;Location: 51106 - 51849&lt;br&gt;&lt;br&gt;&lt;b&gt;BlastP hit with ctg2_92&lt;/b&gt;&lt;br&gt;Percentage identity: 46&lt;br&gt;Percentage coverage: 89&lt;br&gt;BLAST bit score: 203&lt;br&gt;E-value: 4.89e-65" locus_tag="Daci_4759" class="clusterblast-orf" id="dummy-2_h2_4_14"  />
</g>
<g id="a2_0015"  >
<polygon points="689,85 694,80 694,80 694,90 694,90 689,85 " style="fill:#8815d8; stroke-width:1; stroke:black; " description="&lt;b&gt;Daci_4760&lt;/b&gt;&lt;br&gt;MbtH domain protein&lt;br&gt;Location: 51855 - 52220&lt;br&gt;&lt;br&gt;&lt;b&gt;BlastP hit with ctg2_81&lt;/b&gt;&lt;br&gt;Percentage identity: 63&lt;br&gt;Percentage coverage: 86&lt;br&gt;BLAST bit score: 84&lt;br&gt;E-value: 2.17e-22" locus_tag="Daci_4760" class="clusterblast-orf" id="dummy-2_h2_4_15"  />
</g>
<g id="a2_0016"  >
<polygon points="695,85 700,80 702,80 702,90 700,90 695,85 " style="fill:white; stroke-width:1; stroke:black; " description="&lt;b&gt;Daci_4761&lt;/b&gt;&lt;br&gt;RNA polymerase, sigma-24 subunit, ECF subfamily&lt;br&gt;Location: 52291 - 52815" locus_tag="Daci_4761" class="clusterblast-orf" id="dummy-2_h2_4_16"  />
</g>
<g id="a2_0017"  >
<polygon points="717,85 722,80 722,80 722,90 722,90 717,85 " style="fill:white; stroke-width:1; stroke:black; " description="&lt;b&gt;Daci_4762&lt;/b&gt;&lt;br&gt;nitrogen regulatory protein P-II&lt;br&gt;Location: 53963 - 54298" locus_tag="Daci_4762" class="clusterblast-orf" id="dummy-2_h2_4_17"  />
</g>
<g id="a2_0018"  >
<polygon points="722,85 727,80 763,80 763,90 727,90 722,85 " style="fill:white; stroke-width:1; stroke:black; " description="&lt;b&gt;Daci_4763&lt;/b&gt;&lt;br&gt;heavy metal efflux pump, CzcA family&lt;br&gt;Location: 54315 - 57404" locus_tag="Daci_4763" class="clusterblast-orf" id="dummy-2_h2_4_18"  />
</g>
<g id="a2_0019"  >
<polygon points="763,85 768,80 780,80 780,90 768,90 763,85 " style="fill:white; stroke-width:1; stroke:black; " description="&lt;b&gt;Daci_4764&lt;/b&gt;&lt;br&gt;efflux transporter, RND family, MFP subunit&lt;br&gt;Location: 57409 - 58626" locus_tag="Daci_4764" class="clusterblast-orf" id="dummy-2_h2_4_19"  />
</g>
</svg>
