<svg xmlns="http://www.w3.org/2000/svg" xmlns:xlink="http://www.w3.org/1999/xlink" version="1.1" x="0" y="0" height="230" width="800" viewBox="0 0 800 230" preserveAspectRatio="none"  >
<g label="Query sequence" class="clusterblast-cluster"  >
<text x="5" y="20" class="clusterblast-acc"  >
Query sequence</text>
<line x1="10" y1="35" x2="778.0" y2="35" style="stroke-width:1; stroke:grey; "  />
<polygon points="0,40 4,40 9,35 4,30 0,30 0,40 " style="fill:#d81515; stroke-width:1; stroke:black; " description="&lt;b&gt;ctg2_478&lt;/b&gt;&lt;br&gt;ctg2 478&lt;br&gt;Location: 532188 - 533103" locus_tag="ctg2_478" class="clusterblast-orf" id="dummy-3_q0_0_all"  />
<polygon points="10,35 15,30 17,30 17,40 15,40 10,35 " style="fill:#65d815; stroke-width:1; stroke:black; " description="&lt;b&gt;ctg2_479&lt;/b&gt;&lt;br&gt;ctg2 479&lt;br&gt;Location: 533223 - 533889" locus_tag="ctg2_479" class="clusterblast-orf" id="dummy-3_q1_0_all"  />
<polygon points="17,35 22,30 52,30 52,40 22,40 17,35 " style="fill:#65d815; stroke-width:1; stroke:black; " description="&lt;b&gt;ctg2_480&lt;/b&gt;&lt;br&gt;ctg2 480&lt;br&gt;Location: 533863 - 537247" locus_tag="ctg2_480" class="clusterblast-orf" id="dummy-3_q2_0_all"  />
<polygon points="55,40 63,40 68,35 63,30 55,30 55,40 " style="fill:#15b6d8; stroke-width:1; stroke:black; " description="&lt;b&gt;ctg2_481&lt;/b&gt;&lt;br&gt;ctg2 481&lt;br&gt;Location: 537549 - 538758" locus_tag="ctg2_481" class="clusterblast-orf" id="dummy-3_q3_0_all"  />
<polygon points="70,40 74,40 79,35 74,30 70,30 70,40 " style="fill:#8815d8; stroke-width:1; stroke:black; " description="&lt;b&gt;ctg2_482&lt;/b&gt;&lt;br&gt;ctg2 482&lt;br&gt;Location: 538936 - 539854" locus_tag="ctg2_482" class="clusterblast-orf" id="dummy-3_q4_0_all"  />
<polygon points="79,40 86,40 91,35 86,30 79,30 79,40 " style="fill:#d83815; stroke-width:1; stroke:black; " description="&lt;b&gt;ctg2_483&lt;/b&gt;&lt;br&gt;ctg2 483&lt;br&gt;Location: 539864 - 541025" locus_tag="ctg2_483" class="clusterblast-orf" id="dummy-3_q5_0_all"  />
<polygon points="91,40 94,40 99,35 94,30 91,30 91,40 " style="fill:#43d815; stroke-width:1; stroke:black; " description="&lt;b&gt;ctg2_484&lt;/b&gt;&lt;br&gt;ctg2 484&lt;br&gt;Location: 541021 - 541780" locus_tag="ctg2_484" class="clusterblast-orf" id="dummy-3_q6_0_all"  />
<polygon points="99,40 102,40 107,35 102,30 99,30 99,40 " style="fill:#1593d8; stroke-width:1; stroke:black; " description="&lt;b&gt;ctg2_485&lt;/b&gt;&lt;br&gt;ctg2 485&lt;br&gt;Location: 541790 - 542480" locus_tag="ctg2_485" class="clusterblast-orf" id="dummy-3_q7_0_all"  />
<polygon points="109,40 117,40 122,35 117,30 109,30 109,40 " style="fill:#aa15d8; stroke-width:1; stroke:black; " description="&lt;b&gt;ctg2_486&lt;/b&gt;&lt;br&gt;ctg2 486&lt;br&gt;Location: 542699 - 543929" locus_tag="ctg2_486" class="clusterblast-orf" id="dummy-3_q8_0_all"  />
<polygon points="122,40 125,35 122,30 122,40 " style="fill:#d85a15; stroke-width:1; stroke:black; " description="&lt;b&gt;ctg2_487&lt;/b&gt;&lt;br&gt;ctg2 487&lt;br&gt;Location: 543931 - 544279" locus_tag="ctg2_487" class="clusterblast-orf" id="dummy-3_q9_0_all"  />
<polygon points="125,40 131,40 136,35 131,30 125,30 125,40 " style="fill:#21d815; stroke-width:1; stroke:black; " description="&lt;b&gt;ctg2_488&lt;/b&gt;&lt;br&gt;ctg2 488&lt;br&gt;Location: 544294 - 545338" locus_tag="ctg2_488" class="clusterblast-orf" id="dummy-3_q10_0_all"  />
<polygon points="136,40 141,40 146,35 141,30 136,30 136,40 " style="fill:#1571d8; stroke-width:1; stroke:black; " description="&lt;b&gt;ctg2_489&lt;/b&gt;&lt;br&gt;ctg2 489&lt;br&gt;Location: 545341 - 546298" locus_tag="ctg2_489" class="clusterblast-orf" id="dummy-3_q11_0_all"  />
<polygon points="147,40 148,40 153,35 148,30 147,30 147,40 " style="fill:#cd15d8; stroke-width:1; stroke:black; " description="&lt;b&gt;ctg2_490&lt;/b&gt;&lt;br&gt;ctg2 490&lt;br&gt;Location: 546365 - 546938" locus_tag="ctg2_490" class="clusterblast-orf" id="dummy-3_q12_0_all"  />
<polygon points="153,40 162,40 167,35 162,30 153,30 153,40 " style="fill:#d87c15; stroke-width:1; stroke:black; " description="&lt;b&gt;ctg2_491&lt;/b&gt;&lt;br&gt;ctg2 491&lt;br&gt;Location: 546963 - 548319" locus_tag="ctg2_491" class="clusterblast-orf" id="dummy-3_q13_0_all"  />
<polygon points="167,35 172,30 173,30 173,40 172,40 167,35 " style="fill:#15d82c; stroke-width:1; stroke:black; " description="&lt;b&gt;ctg2_492&lt;/b&gt;&lt;br&gt;ctg2 492&lt;br&gt;Location: 548302 - 548896" locus_tag="ctg2_492" class="clusterblast-orf" id="dummy-3_q14_0_all"  />
<polygon points="175,40 182,40 187,35 182,30 175,30 175,40 " style="fill:#154fd8; stroke-width:1; stroke:black; " description="&lt;b&gt;ctg2_493&lt;/b&gt;&lt;br&gt;ctg2 493&lt;br&gt;Location: 549038 - 550229" locus_tag="ctg2_493" class="clusterblast-orf" id="dummy-3_q15_0_all"  />
<polygon points="187,35 191,30 191,40 187,35 " style="fill:#d815c1; stroke-width:1; stroke:black; " description="&lt;b&gt;ctg2_494&lt;/b&gt;&lt;br&gt;ctg2 494&lt;br&gt;Location: 550211 - 550577" locus_tag="ctg2_494" class="clusterblast-orf" id="dummy-3_q16_0_all"  />
<polygon points="191,35 193,30 193,40 191,35 " style="fill:#d89f15; stroke-width:1; stroke:black; " description="&lt;b&gt;ctg2_495&lt;/b&gt;&lt;br&gt;ctg2 495&lt;br&gt;Location: 550573 - 550825" locus_tag="ctg2_495" class="clusterblast-orf" id="dummy-3_q17_0_all"  />
<polygon points="195,40 336,40 341,35 336,30 195,30 195,40 " style="fill:#15d84f; stroke-width:1; stroke:black; " description="&lt;b&gt;ctg2_496&lt;/b&gt;&lt;br&gt;ctg2 496&lt;br&gt;Location: 551033 - 565088" locus_tag="ctg2_496" class="clusterblast-orf" id="dummy-3_q18_0_all"  />
<polygon points="341,40 459,40 464,35 459,30 341,30 341,40 " style="fill:#15d84f; stroke-width:1; stroke:black; " description="&lt;b&gt;ctg2_497&lt;/b&gt;&lt;br&gt;ctg2 497&lt;br&gt;Location: 565091 - 576944" locus_tag="ctg2_497" class="clusterblast-orf" id="dummy-3_q19_0_all"  />
<polygon points="466,35 471,30 491,30 491,40 471,40 466,35 " style="fill:#152cd8; stroke-width:1; stroke:black; " description="&lt;b&gt;ctg2_498&lt;/b&gt;&lt;br&gt;ctg2 498&lt;br&gt;Location: 577088 - 579530" locus_tag="ctg2_498" class="clusterblast-orf" id="dummy-3_q20_0_all"  />
<polygon points="492,35 497,30 510,30 510,40 497,40 492,35 " style="fill:#d8159f; stroke-width:1; stroke:black; " description="&lt;b&gt;ctg2_499&lt;/b&gt;&lt;br&gt;ctg2 499&lt;br&gt;Location: 579639 - 581292" locus_tag="ctg2_499" class="clusterblast-orf" id="dummy-3_q21_0_all"  />
<polygon points="512,40 515,40 520,35 515,30 512,30 512,40 " style="fill:#d8c115; stroke-width:1; stroke:black; " description="&lt;b&gt;ctg2_500&lt;/b&gt;&lt;br&gt;ctg2 500&lt;br&gt;Location: 581490 - 582318" locus_tag="ctg2_500" class="clusterblast-orf" id="dummy-3_q22_0_all"  />
<polygon points="522,35 527,30 531,30 531,40 527,40 522,35 " style="fill:#15d871; stroke-width:1; stroke:black; " description="&lt;b&gt;ctg2_501&lt;/b&gt;&lt;br&gt;ctg2 501&lt;br&gt;Location: 582460 - 583333" locus_tag="ctg2_501" class="clusterblast-orf" id="dummy-3_q23_0_all"  />
<polygon points="531,35 536,30 544,30 544,40 536,40 531,35 " style="fill:#2115d8; stroke-width:1; stroke:black; " description="&lt;b&gt;ctg2_502&lt;/b&gt;&lt;br&gt;ctg2 502&lt;br&gt;Location: 583366 - 584647" locus_tag="ctg2_502" class="clusterblast-orf" id="dummy-3_q24_0_all"  />
<polygon points="545,35 550,30 559,30 559,40 550,40 545,35 " style="fill:#d8157c; stroke-width:1; stroke:black; " description="&lt;b&gt;ctg2_503&lt;/b&gt;&lt;br&gt;ctg2 503&lt;br&gt;Location: 584665 - 586015" locus_tag="ctg2_503" class="clusterblast-orf" id="dummy-3_q25_0_all"  />
<polygon points="560,40 572,40 577,35 572,30 560,30 560,40 " style="fill:#cdd815; stroke-width:1; stroke:black; " description="&lt;b&gt;ctg2_504&lt;/b&gt;&lt;br&gt;ctg2 504&lt;br&gt;Location: 586157 - 587777" locus_tag="ctg2_504" class="clusterblast-orf" id="dummy-3_q26_0_all"  />
<polygon points="577,35 582,30 587,30 587,40 582,40 577,35 " style="fill:#15d893; stroke-width:1; stroke:black; " description="&lt;b&gt;ctg2_505&lt;/b&gt;&lt;br&gt;ctg2 505&lt;br&gt;Location: 587769 - 588717" locus_tag="ctg2_505" class="clusterblast-orf" id="dummy-3_q27_0_all"  />
<polygon points="588,40 593,40 598,35 593,30 588,30 588,40 " style="fill:#4315d8; stroke-width:1; stroke:black; " description="&lt;b&gt;ctg2_506&lt;/b&gt;&lt;br&gt;ctg2 506&lt;br&gt;Location: 588860 - 589751" locus_tag="ctg2_506" class="clusterblast-orf" id="dummy-3_q28_0_all"  />
<polygon points="597,40 603,40 608,35 603,30 597,30 597,40 " style="fill:#d8155a; stroke-width:1; stroke:black; " description="&lt;b&gt;ctg2_507&lt;/b&gt;&lt;br&gt;ctg2 507&lt;br&gt;Location: 589750 - 590722" locus_tag="ctg2_507" class="clusterblast-orf" id="dummy-3_q29_0_all"  />
<polygon points="608,40 612,40 617,35 612,30 608,30 608,40 " style="fill:#aad815; stroke-width:1; stroke:black; " description="&lt;b&gt;ctg2_508&lt;/b&gt;&lt;br&gt;ctg2 508&lt;br&gt;Location: 590718 - 591588" locus_tag="ctg2_508" class="clusterblast-orf" id="dummy-3_q30_0_all"  />
<polygon points="617,40 619,35 617,30 617,40 " style="fill:#15d8b6; stroke-width:1; stroke:black; " description="&lt;b&gt;ctg2_509&lt;/b&gt;&lt;br&gt;ctg2 509&lt;br&gt;Location: 591602 - 591863" locus_tag="ctg2_509" class="clusterblast-orf" id="dummy-3_q31_0_all"  />
<polygon points="619,40 623,40 628,35 623,30 619,30 619,40 " style="fill:#6615d8; stroke-width:1; stroke:black; " description="&lt;b&gt;ctg2_510&lt;/b&gt;&lt;br&gt;ctg2 510&lt;br&gt;Location: 591859 - 592690" locus_tag="ctg2_510" class="clusterblast-orf" id="dummy-3_q32_0_all"  />
<polygon points="628,40 651,40 656,35 651,30 628,30 628,40 " style="fill:#d81538; stroke-width:1; stroke:black; " description="&lt;b&gt;ctg2_511&lt;/b&gt;&lt;br&gt;ctg2 511&lt;br&gt;Location: 592703 - 595361" locus_tag="ctg2_511" class="clusterblast-orf" id="dummy-3_q33_0_all"  />
<polygon points="658,40 660,40 665,35 660,30 658,30 658,40 " style="fill:#88d815; stroke-width:1; stroke:black; " description="&lt;b&gt;ctg2_512&lt;/b&gt;&lt;br&gt;ctg2 512&lt;br&gt;Location: 595567 - 596284" locus_tag="ctg2_512" class="clusterblast-orf" id="dummy-3_q34_0_all"  />
<polygon points="666,40 669,35 666,30 666,40 " style="fill:#15d8d8; stroke-width:1; stroke:black; " description="&lt;b&gt;ctg2_513&lt;/b&gt;&lt;br&gt;ctg2 513&lt;br&gt;Location: 596336 - 596672" locus_tag="ctg2_513" class="clusterblast-orf" id="dummy-3_q35_0_all"  />
<polygon points="670,40 676,40 681,35 676,30 670,30 670,40 " style="fill:white; stroke-width:1; stroke:black; " description="&lt;b&gt;ctg2_514&lt;/b&gt;&lt;br&gt;ctg2 514&lt;br&gt;Location: 596687 - 597794" locus_tag="ctg2_514" class="clusterblast-orf" id="dummy-3_q36_0_all"  />
<polygon points="683,40 683,40 688,35 683,30 683,30 683,40 " style="fill:white; stroke-width:1; stroke:black; " description="&lt;b&gt;ctg2_515&lt;/b&gt;&lt;br&gt;ctg2 515&lt;br&gt;Location: 597956 - 598448" locus_tag="ctg2_515" class="clusterblast-orf" id="dummy-3_q37_0_all"  />
<polygon points="689,35 691,30 691,40 689,35 " style="fill:white; stroke-width:1; stroke:black; " description="&lt;b&gt;ctg2_516&lt;/b&gt;&lt;br&gt;ctg2 516&lt;br&gt;Location: 598549 - 598771" locus_tag="ctg2_516" class="clusterblast-orf" id="dummy-3_q38_0_all"  />
<polygon points="693,35 698,30 716,30 716,40 698,40 693,35 " style="fill:#152cd8; stroke-width:1; stroke:black; " description="&lt;b&gt;ctg2_517&lt;/b&gt;&lt;br&gt;ctg2 517&lt;br&gt;Location: 598913 - 601142" locus_tag="ctg2_517" class="clusterblast-orf" id="dummy-3_q39_0_all"  />
<polygon points="717,35 722,30 735,30 735,40 722,40 717,35 " style="fill:white; stroke-width:1; stroke:black; " description="&lt;b&gt;ctg2_518&lt;/b&gt;&lt;br&gt;ctg2 518&lt;br&gt;Location: 601268 - 603011" locus_tag="ctg2_518" class="clusterblast-orf" id="dummy-3_q40_0_all"  />
<polygon points="737,35 739,30 739,40 737,35 " style="fill:white; stroke-width:1; stroke:black; " description="&lt;b&gt;ctg2_519&lt;/b&gt;&lt;br&gt;ctg2 519&lt;br&gt;Location: 603175 - 603352" locus_tag="ctg2_519" class="clusterblast-orf" id="dummy-3_q41_0_all"  />
<polygon points="742,40 747,40 752,35 747,30 742,30 742,40 " style="fill:white; stroke-width:1; stroke:black; " description="&lt;b&gt;ctg2_520&lt;/b&gt;&lt;br&gt;ctg2 520&lt;br&gt;Location: 603621 - 604605" locus_tag="ctg2_520" class="clusterblast-orf" id="dummy-3_q42_0_all"  />
<polygon points="752,40 763,40 768,35 763,30 752,30 752,40 " style="fill:white; stroke-width:1; stroke:black; " description="&lt;b&gt;ctg2_521&lt;/b&gt;&lt;br&gt;ctg2 521&lt;br&gt;Location: 604601 - 606125" locus_tag="ctg2_521" class="clusterblast-orf" id="dummy-3_q43_0_all"  />
<polygon points="768,40 771,40 776,35 771,30 768,30 768,40 " style="fill:white; stroke-width:1; stroke:black; " description="&lt;b&gt;ctg2_522&lt;/b&gt;&lt;br&gt;ctg2 522&lt;br&gt;Location: 606121 - 606946" locus_tag="ctg2_522" class="clusterblast-orf" id="dummy-3_q44_0_all"  />
<polygon points="777,35 780,30 780,40 777,35 " style="fill:white; stroke-width:1; stroke:black; " description="&lt;b&gt;ctg2_523&lt;/b&gt;&lt;br&gt;ctg2 523&lt;br&gt;Location: 607021 - 607282" locus_tag="ctg2_523" class="clusterblast-orf" id="dummy-3_q45_0_all"  />
</g>
<g label="NZ_CP015600" description="NZ_CP015600 (3603858-3668451): Pseudomonas antarctica strain PAMC 27494 chrom... (100% of genes show similarity), NRPS" class="clusterblast-cluster"  >
<text x="5" y="70" class="clusterblast-acc"  >
<a xlink:href="https://antismash-db.secondarymetabolites.org/area.html?record=NZ_CP015600&amp;start=3603858&amp;end=3668451" target="_blank">NZ_CP015600 (3603858-3668451)</a>: Pseudomonas antarctica strain PAMC 27494 chrom... (100% of genes show similarity), NRPS</text>
<line x1="10" y1="85" x2="778.0" y2="85" style="stroke-width:1; stroke:grey; "  />
</g>
<g id="a3_000"  >
<polygon points="54,90 58,90 63,85 58,80 54,80 54,90 " style="fill:#d81515; stroke-width:1; stroke:black; " description="&lt;b&gt;A7J50_RS16390&lt;/b&gt;&lt;br&gt;IclR family transcriptional regulator&lt;br&gt;Location: 3668451 - 3667621&lt;br&gt;&lt;br&gt;&lt;b&gt;BlastP hit with ctg2_478&lt;/b&gt;&lt;br&gt;Percentage identity: 100&lt;br&gt;Percentage coverage: 91&lt;br&gt;BLAST bit score: 534&lt;br&gt;E-value: 1.45e-192" locus_tag="A7J50_RS16390" class="clusterblast-orf" id="dummy-3_h3_1_0"  />
</g>
<g id="a3_001"  >
<polygon points="64,85 69,80 71,80 71,90 69,90 64,85 " style="fill:#65d815; stroke-width:1; stroke:black; " description="&lt;b&gt;A7J50_RS16385&lt;/b&gt;&lt;br&gt;response regulator&lt;br&gt;Location: 3667500 - 3666835&lt;br&gt;&lt;br&gt;&lt;b&gt;BlastP hit with ctg2_479&lt;/b&gt;&lt;br&gt;Percentage identity: 100&lt;br&gt;Percentage coverage: 100&lt;br&gt;BLAST bit score: 424&lt;br&gt;E-value: 1.91e-151&lt;br&gt;&lt;br&gt;&lt;b&gt;BlastP hit with ctg2_480&lt;/b&gt;&lt;br&gt;Percentage identity: 37&lt;br&gt;Percentage coverage: 13&lt;br&gt;BLAST bit score: 79&lt;br&gt;E-value: 3.15e-14" locus_tag="A7J50_RS16385" class="clusterblast-orf" id="dummy-3_h3_1_1"  />
</g>
<g id="a3_002"  >
<polygon points="71,85 76,80 106,80 106,90 76,90 71,85 " style="fill:#65d815; stroke-width:1; stroke:black; " description="&lt;b&gt;A7J50_RS16380&lt;/b&gt;&lt;br&gt;response regulator&lt;br&gt;Location: 3666860 - 3663477&lt;br&gt;&lt;br&gt;&lt;b&gt;BlastP hit with ctg2_479&lt;/b&gt;&lt;br&gt;Percentage identity: 37&lt;br&gt;Percentage coverage: 68&lt;br&gt;BLAST bit score: 80&lt;br&gt;E-value: 3.37e-15&lt;br&gt;&lt;br&gt;&lt;b&gt;BlastP hit with ctg2_480&lt;/b&gt;&lt;br&gt;Percentage identity: 100&lt;br&gt;Percentage coverage: 100&lt;br&gt;BLAST bit score: 2195&lt;br&gt;E-value: 0.0" locus_tag="A7J50_RS16380" class="clusterblast-orf" id="dummy-3_h3_1_2"  />
</g>
<g id="a3_003"  >
<polygon points="109,90 116,90 121,85 116,80 109,80 109,90 " style="fill:#15b6d8; stroke-width:1; stroke:black; " description="&lt;b&gt;A7J50_RS16375&lt;/b&gt;&lt;br&gt;urea ABC transporter substrate-binding protein&lt;br&gt;Location: 3663174 - 3661966&lt;br&gt;&lt;br&gt;&lt;b&gt;BlastP hit with ctg2_481&lt;/b&gt;&lt;br&gt;Percentage identity: 100&lt;br&gt;Percentage coverage: 100&lt;br&gt;BLAST bit score: 797&lt;br&gt;E-value: 6.6e-293" locus_tag="A7J50_RS16375" class="clusterblast-orf" id="dummy-3_h3_1_3"  />
</g>
<g id="a3_004"  >
<polygon points="123,90 128,90 133,85 128,80 123,80 123,90 " style="fill:#8815d8; stroke-width:1; stroke:black; " description="&lt;b&gt;A7J50_RS16370&lt;/b&gt;&lt;br&gt;urea ABC transporter permease subunit UrtB&lt;br&gt;Location: 3661787 - 3660870&lt;br&gt;&lt;br&gt;&lt;b&gt;BlastP hit with ctg2_482&lt;/b&gt;&lt;br&gt;Percentage identity: 100&lt;br&gt;Percentage coverage: 100&lt;br&gt;BLAST bit score: 573&lt;br&gt;E-value: 8.82e-208" locus_tag="A7J50_RS16370" class="clusterblast-orf" id="dummy-3_h3_1_4"  />
</g>
<g id="a3_005"  >
<polygon points="133,90 140,90 145,85 140,80 133,80 133,90 " style="fill:#d83815; stroke-width:1; stroke:black; " description="&lt;b&gt;A7J50_RS16365&lt;/b&gt;&lt;br&gt;urea ABC transporter permease subunit UrtC&lt;br&gt;Location: 3660859 - 3659699&lt;br&gt;&lt;br&gt;&lt;b&gt;BlastP hit with ctg2_483&lt;/b&gt;&lt;br&gt;Percentage identity: 100&lt;br&gt;Percentage coverage: 100&lt;br&gt;BLAST bit score: 737&lt;br&gt;E-value: 7.98e-270" locus_tag="A7J50_RS16365" class="clusterblast-orf" id="dummy-3_h3_1_5"  />
</g>
<g id="a3_006"  >
<polygon points="145,90 148,90 153,85 148,80 145,80 145,90 " style="fill:#43d815; stroke-width:1; stroke:black; " description="&lt;b&gt;A7J50_RS16360&lt;/b&gt;&lt;br&gt;urea ABC transporter ATP-binding protein UrtD&lt;br&gt;Location: 3659702 - 3658944&lt;br&gt;&lt;br&gt;&lt;b&gt;BlastP hit with ctg2_484&lt;/b&gt;&lt;br&gt;Percentage identity: 100&lt;br&gt;Percentage coverage: 100&lt;br&gt;BLAST bit score: 491&lt;br&gt;E-value: 4.32e-177" locus_tag="A7J50_RS16360" class="clusterblast-orf" id="dummy-3_h3_1_6"  />
</g>
<g id="a3_007"  >
<polygon points="153,90 155,90 160,85 155,80 153,80 153,90 " style="fill:#1593d8; stroke-width:1; stroke:black; " description="&lt;b&gt;A7J50_RS16355&lt;/b&gt;&lt;br&gt;urea ABC transporter ATP-binding subunit UrtE&lt;br&gt;Location: 3658933 - 3658244&lt;br&gt;&lt;br&gt;&lt;b&gt;BlastP hit with ctg2_485&lt;/b&gt;&lt;br&gt;Percentage identity: 100&lt;br&gt;Percentage coverage: 100&lt;br&gt;BLAST bit score: 442&lt;br&gt;E-value: 3.42e-158" locus_tag="A7J50_RS16355" class="clusterblast-orf" id="dummy-3_h3_1_7"  />
</g>
<g id="a3_008"  >
<polygon points="162,90 170,90 175,85 170,80 162,80 162,90 " style="fill:#aa15d8; stroke-width:1; stroke:black; " description="&lt;b&gt;A7J50_RS16350&lt;/b&gt;&lt;br&gt;acetamidase/formamidase family protein&lt;br&gt;Location: 3658025 - 3656796&lt;br&gt;&lt;br&gt;&lt;b&gt;BlastP hit with ctg2_486&lt;/b&gt;&lt;br&gt;Percentage identity: 100&lt;br&gt;Percentage coverage: 100&lt;br&gt;BLAST bit score: 858&lt;br&gt;E-value: 4.72e-317" locus_tag="A7J50_RS16350" class="clusterblast-orf" id="dummy-3_h3_1_8"  />
</g>
<g id="a3_009"  >
<polygon points="175,90 179,85 175,80 175,90 " style="fill:#d85a15; stroke-width:1; stroke:black; " description="&lt;b&gt;A7J50_RS16345&lt;/b&gt;&lt;br&gt;zinc ribbon domain-containing protein&lt;br&gt;Location: 3656793 - 3656446&lt;br&gt;&lt;br&gt;&lt;b&gt;BlastP hit with ctg2_487&lt;/b&gt;&lt;br&gt;Percentage identity: 99&lt;br&gt;Percentage coverage: 100&lt;br&gt;BLAST bit score: 248&lt;br&gt;E-value: 3.08e-85" locus_tag="A7J50_RS16345" class="clusterblast-orf" id="dummy-3_h3_1_9"  />
</g>
<g id="a3_0010"  >
<polygon points="179,90 185,90 190,85 185,80 179,80 179,90 " style="fill:#21d815; stroke-width:1; stroke:black; " description="&lt;b&gt;A7J50_RS16340&lt;/b&gt;&lt;br&gt;aliphatic amidase&lt;br&gt;Location: 3656430 - 3655387&lt;br&gt;&lt;br&gt;&lt;b&gt;BlastP hit with ctg2_488&lt;/b&gt;&lt;br&gt;Percentage identity: 100&lt;br&gt;Percentage coverage: 100&lt;br&gt;BLAST bit score: 730&lt;br&gt;E-value: 2.09e-268" locus_tag="A7J50_RS16340" class="clusterblast-orf" id="dummy-3_h3_1_10"  />
</g>
<g id="a3_0011"  >
<polygon points="190,90 195,90 200,85 195,80 190,80 190,90 " style="fill:#1571d8; stroke-width:1; stroke:black; " description="&lt;b&gt;A7J50_RS16335&lt;/b&gt;&lt;br&gt;ATP-dependent Clp protease ATP-binding subunit&lt;br&gt;Location: 3655383 - 3654427&lt;br&gt;&lt;br&gt;&lt;b&gt;BlastP hit with ctg2_489&lt;/b&gt;&lt;br&gt;Percentage identity: 100&lt;br&gt;Percentage coverage: 100&lt;br&gt;BLAST bit score: 613&lt;br&gt;E-value: 4.82e-223" locus_tag="A7J50_RS16335" class="clusterblast-orf" id="dummy-3_h3_1_11"  />
</g>
<g id="a3_0012"  >
<polygon points="200,90 201,90 206,85 201,80 200,80 200,90 " style="fill:#cd15d8; stroke-width:1; stroke:black; " description="&lt;b&gt;A7J50_RS16330&lt;/b&gt;&lt;br&gt;DUF2239 family protein&lt;br&gt;Location: 3654359 - 3653787&lt;br&gt;&lt;br&gt;&lt;b&gt;BlastP hit with ctg2_490&lt;/b&gt;&lt;br&gt;Percentage identity: 100&lt;br&gt;Percentage coverage: 100&lt;br&gt;BLAST bit score: 387&lt;br&gt;E-value: 7.71e-138" locus_tag="A7J50_RS16330" class="clusterblast-orf" id="dummy-3_h3_1_12"  />
</g>
<g id="a3_0013"  >
<polygon points="207,90 216,90 221,85 216,80 207,80 207,90 " style="fill:#d87c15; stroke-width:1; stroke:black; " description="&lt;b&gt;A7J50_RS16325&lt;/b&gt;&lt;br&gt;MATE family efflux transporter&lt;br&gt;Location: 3653761 - 3652406&lt;br&gt;&lt;br&gt;&lt;b&gt;BlastP hit with ctg2_491&lt;/b&gt;&lt;br&gt;Percentage identity: 100&lt;br&gt;Percentage coverage: 100&lt;br&gt;BLAST bit score: 819&lt;br&gt;E-value: 4.38e-300" locus_tag="A7J50_RS16325" class="clusterblast-orf" id="dummy-3_h3_1_13"  />
</g>
<g id="a3_0014"  >
<polygon points="221,85 226,80 227,80 227,90 226,90 221,85 " style="fill:#15d82c; stroke-width:1; stroke:black; " description="&lt;b&gt;A7J50_RS16320&lt;/b&gt;&lt;br&gt;TetR/AcrR family transcriptional regulator&lt;br&gt;Location: 3652422 - 3651829&lt;br&gt;&lt;br&gt;&lt;b&gt;BlastP hit with ctg2_492&lt;/b&gt;&lt;br&gt;Percentage identity: 100&lt;br&gt;Percentage coverage: 100&lt;br&gt;BLAST bit score: 382&lt;br&gt;E-value: 1.8e-135" locus_tag="A7J50_RS16320" class="clusterblast-orf" id="dummy-3_h3_1_14"  />
</g>
<g id="a3_0015"  >
<polygon points="228,90 236,90 241,85 236,80 228,80 228,90 " style="fill:#154fd8; stroke-width:1; stroke:black; " description="&lt;b&gt;A7J50_RS16315&lt;/b&gt;&lt;br&gt;MFS transporter&lt;br&gt;Location: 3651686 - 3650496&lt;br&gt;&lt;br&gt;&lt;b&gt;BlastP hit with ctg2_493&lt;/b&gt;&lt;br&gt;Percentage identity: 100&lt;br&gt;Percentage coverage: 100&lt;br&gt;BLAST bit score: 728&lt;br&gt;E-value: 1.12e-265" locus_tag="A7J50_RS16315" class="clusterblast-orf" id="dummy-3_h3_1_15"  />
</g>
<g id="a3_0016"  >
<polygon points="240,85 244,80 244,90 240,85 " style="fill:#d815c1; stroke-width:1; stroke:black; " description="&lt;b&gt;A7J50_RS16310&lt;/b&gt;&lt;br&gt;type II toxin-antitoxin system HicB family antitoxin&lt;br&gt;Location: 3650513 - 3650148&lt;br&gt;&lt;br&gt;&lt;b&gt;BlastP hit with ctg2_494&lt;/b&gt;&lt;br&gt;Percentage identity: 99&lt;br&gt;Percentage coverage: 100&lt;br&gt;BLAST bit score: 246&lt;br&gt;E-value: 1.96e-84" locus_tag="A7J50_RS16310" class="clusterblast-orf" id="dummy-3_h3_1_16"  />
</g>
<g id="a3_0017"  >
<polygon points="244,85 247,80 247,90 244,85 " style="fill:#d89f15; stroke-width:1; stroke:black; " description="&lt;b&gt;A7J50_RS16305&lt;/b&gt;&lt;br&gt;type II toxin-antitoxin system HicA family toxin&lt;br&gt;Location: 3650151 - 3649900&lt;br&gt;&lt;br&gt;&lt;b&gt;BlastP hit with ctg2_495&lt;/b&gt;&lt;br&gt;Percentage identity: 99&lt;br&gt;Percentage coverage: 100&lt;br&gt;BLAST bit score: 168&lt;br&gt;E-value: 1.15e-54" locus_tag="A7J50_RS16305" class="clusterblast-orf" id="dummy-3_h3_1_17"  />
</g>
<g id="a3_0018"  >
<polygon points="249,90 390,90 395,85 390,80 249,80 249,90 " style="fill:#15d84f; stroke-width:1; stroke:black; " description="&lt;b&gt;A7J50_RS16300&lt;/b&gt;&lt;br&gt;non-ribosomal peptide synthetase&lt;br&gt;Location: 3649691 - 3635637&lt;br&gt;&lt;br&gt;&lt;b&gt;BlastP hit with ctg2_496&lt;/b&gt;&lt;br&gt;Percentage identity: 99&lt;br&gt;Percentage coverage: 100&lt;br&gt;BLAST bit score: 9205&lt;br&gt;E-value: 0.0&lt;br&gt;&lt;br&gt;&lt;b&gt;BlastP hit with ctg2_497&lt;/b&gt;&lt;br&gt;Percentage identity: 68&lt;br&gt;Percentage coverage: 53&lt;br&gt;BLAST bit score: 2708&lt;br&gt;E-value: 0.0" locus_tag="A7J50_RS16300" class="clusterblast-orf" id="dummy-3_h3_1_18"  />
</g>
<g id="a3_0019"  >
<polygon points="395,90 513,90 518,85 513,80 395,80 395,90 " style="fill:#15d84f; stroke-width:1; stroke:black; " description="&lt;b&gt;A7J50_RS16295&lt;/b&gt;&lt;br&gt;non-ribosomal peptide synthetase&lt;br&gt;Location: 3635633 - 3623781&lt;br&gt;&lt;br&gt;&lt;b&gt;BlastP hit with ctg2_496&lt;/b&gt;&lt;br&gt;Percentage identity: 68&lt;br&gt;Percentage coverage: 45&lt;br&gt;BLAST bit score: 2719&lt;br&gt;E-value: 0.0&lt;br&gt;&lt;br&gt;&lt;b&gt;BlastP hit with ctg2_497&lt;/b&gt;&lt;br&gt;Percentage identity: 100&lt;br&gt;Percentage coverage: 100&lt;br&gt;BLAST bit score: 7787&lt;br&gt;E-value: 0.0" locus_tag="A7J50_RS16295" class="clusterblast-orf" id="dummy-3_h3_1_19"  />
</g>
<g id="a3_0020"  >
<polygon points="520,85 525,80 545,80 545,90 525,90 520,85 " style="fill:#152cd8; stroke-width:1; stroke:black; " description="&lt;b&gt;A7J50_RS16290&lt;/b&gt;&lt;br&gt;TonB-dependent siderophore receptor&lt;br&gt;Location: 3623636 - 3621195&lt;br&gt;&lt;br&gt;&lt;b&gt;BlastP hit with ctg2_498&lt;/b&gt;&lt;br&gt;Percentage identity: 100&lt;br&gt;Percentage coverage: 100&lt;br&gt;BLAST bit score: 1645&lt;br&gt;E-value: 0.0&lt;br&gt;&lt;br&gt;&lt;b&gt;BlastP hit with ctg2_517&lt;/b&gt;&lt;br&gt;Percentage identity: 38&lt;br&gt;Percentage coverage: 97&lt;br&gt;BLAST bit score: 481&lt;br&gt;E-value: 1.9e-157" locus_tag="A7J50_RS16290" class="clusterblast-orf" id="dummy-3_h3_1_20"  />
</g>
<g id="a3_0021"  >
<polygon points="546,85 551,80 563,80 563,90 551,90 546,85 " style="fill:#d8159f; stroke-width:1; stroke:black; " description="&lt;b&gt;A7J50_RS16285&lt;/b&gt;&lt;br&gt;cyclic peptide export ABC transporter&lt;br&gt;Location: 3621085 - 3619433&lt;br&gt;&lt;br&gt;&lt;b&gt;BlastP hit with ctg2_499&lt;/b&gt;&lt;br&gt;Percentage identity: 100&lt;br&gt;Percentage coverage: 100&lt;br&gt;BLAST bit score: 1048&lt;br&gt;E-value: 0.0" locus_tag="A7J50_RS16285" class="clusterblast-orf" id="dummy-3_h3_1_21"  />
</g>
<g id="a3_0022"  >
<polygon points="565,90 569,90 574,85 569,80 565,80 565,90 " style="fill:#d8c115; stroke-width:1; stroke:black; " description="&lt;b&gt;A7J50_RS16280&lt;/b&gt;&lt;br&gt;N(5)-hydroxyornithine transformylase PvdF&lt;br&gt;Location: 3619234 - 3618407&lt;br&gt;&lt;br&gt;&lt;b&gt;BlastP hit with ctg2_500&lt;/b&gt;&lt;br&gt;Percentage identity: 100&lt;br&gt;Percentage coverage: 100&lt;br&gt;BLAST bit score: 563&lt;br&gt;E-value: 1.6e-204" locus_tag="A7J50_RS16280" class="clusterblast-orf" id="dummy-3_h3_1_22"  />
</g>
<g id="a3_0023"  >
<polygon points="575,85 580,80 584,80 584,90 580,90 575,85 " style="fill:#15d871; stroke-width:1; stroke:black; " description="&lt;b&gt;A7J50_RS16275&lt;/b&gt;&lt;br&gt;formylglycine-generating enzyme family protein&lt;br&gt;Location: 3618264 - 3617392&lt;br&gt;&lt;br&gt;&lt;b&gt;BlastP hit with ctg2_501&lt;/b&gt;&lt;br&gt;Percentage identity: 100&lt;br&gt;Percentage coverage: 100&lt;br&gt;BLAST bit score: 613&lt;br&gt;E-value: 5.45e-224" locus_tag="A7J50_RS16275" class="clusterblast-orf" id="dummy-3_h3_1_23"  />
</g>
<g id="a3_0024"  >
<polygon points="585,85 590,80 598,80 598,90 590,90 585,85 " style="fill:#2115d8; stroke-width:1; stroke:black; " description="&lt;b&gt;A7J50_RS16270&lt;/b&gt;&lt;br&gt;aminotransferase class V-fold PLP-dependent enzyme&lt;br&gt;Location: 3617358 - 3616079&lt;br&gt;&lt;br&gt;&lt;b&gt;BlastP hit with ctg2_502&lt;/b&gt;&lt;br&gt;Percentage identity: 100&lt;br&gt;Percentage coverage: 72&lt;br&gt;BLAST bit score: 632&lt;br&gt;E-value: 1.78e-228" locus_tag="A7J50_RS16270" class="clusterblast-orf" id="dummy-3_h3_1_24"  />
</g>
<g id="a3_0025"  >
<polygon points="598,85 603,80 612,80 612,90 603,90 598,85 " style="fill:#d8157c; stroke-width:1; stroke:black; " description="&lt;b&gt;A7J50_RS16265&lt;/b&gt;&lt;br&gt;membrane dipeptidase&lt;br&gt;Location: 3616060 - 3614711&lt;br&gt;&lt;br&gt;&lt;b&gt;BlastP hit with ctg2_503&lt;/b&gt;&lt;br&gt;Percentage identity: 100&lt;br&gt;Percentage coverage: 100&lt;br&gt;BLAST bit score: 912&lt;br&gt;E-value: 0.0" locus_tag="A7J50_RS16265" class="clusterblast-orf" id="dummy-3_h3_1_25"  />
</g>
<g id="a3_0026"  >
<polygon points="614,90 626,90 631,85 626,80 614,80 614,90 " style="fill:#cdd815; stroke-width:1; stroke:black; " description="&lt;b&gt;A7J50_RS16260&lt;/b&gt;&lt;br&gt;hypothetical protein&lt;br&gt;Location: 3614568 - 3612949&lt;br&gt;&lt;br&gt;&lt;b&gt;BlastP hit with ctg2_504&lt;/b&gt;&lt;br&gt;Percentage identity: 100&lt;br&gt;Percentage coverage: 100&lt;br&gt;BLAST bit score: 1134&lt;br&gt;E-value: 0.0" locus_tag="A7J50_RS16260" class="clusterblast-orf" id="dummy-3_h3_1_26"  />
</g>
<g id="a3_0027"  >
<polygon points="630,85 635,80 640,80 640,90 635,90 630,85 " style="fill:#15d893; stroke-width:1; stroke:black; " description="&lt;b&gt;A7J50_RS16255&lt;/b&gt;&lt;br&gt;DUF1853 family protein&lt;br&gt;Location: 3612956 - 3612009&lt;br&gt;&lt;br&gt;&lt;b&gt;BlastP hit with ctg2_505&lt;/b&gt;&lt;br&gt;Percentage identity: 100&lt;br&gt;Percentage coverage: 100&lt;br&gt;BLAST bit score: 679&lt;br&gt;E-value: 2.28e-249" locus_tag="A7J50_RS16255" class="clusterblast-orf" id="dummy-3_h3_1_27"  />
</g>
<g id="a3_0028"  >
<polygon points="642,90 646,90 651,85 646,80 642,80 642,90 " style="fill:#4315d8; stroke-width:1; stroke:black; " description="&lt;b&gt;A7J50_RS16250&lt;/b&gt;&lt;br&gt;NAD(+) kinase&lt;br&gt;Location: 3611865 - 3610975&lt;br&gt;&lt;br&gt;&lt;b&gt;BlastP hit with ctg2_506&lt;/b&gt;&lt;br&gt;Percentage identity: 100&lt;br&gt;Percentage coverage: 100&lt;br&gt;BLAST bit score: 599&lt;br&gt;E-value: 3.81e-218" locus_tag="A7J50_RS16250" class="clusterblast-orf" id="dummy-3_h3_1_28"  />
</g>
<g id="a3_0029"  >
<polygon points="651,90 656,90 661,85 656,80 651,80 651,90 " style="fill:#d8155a; stroke-width:1; stroke:black; " description="&lt;b&gt;A7J50_RS16245&lt;/b&gt;&lt;br&gt;serine/threonine protein phosphatase&lt;br&gt;Location: 3610978 - 3610004&lt;br&gt;&lt;br&gt;&lt;b&gt;BlastP hit with ctg2_507&lt;/b&gt;&lt;br&gt;Percentage identity: 100&lt;br&gt;Percentage coverage: 100&lt;br&gt;BLAST bit score: 696&lt;br&gt;E-value: 1.23e-255" locus_tag="A7J50_RS16245" class="clusterblast-orf" id="dummy-3_h3_1_29"  />
</g>
<g id="a3_0030"  >
<polygon points="661,90 665,90 670,85 665,80 661,80 661,90 " style="fill:#aad815; stroke-width:1; stroke:black; " description="&lt;b&gt;A7J50_RS16240&lt;/b&gt;&lt;br&gt;rhomboid family intramembrane serine protease&lt;br&gt;Location: 3610007 - 3609138&lt;br&gt;&lt;br&gt;&lt;b&gt;BlastP hit with ctg2_508&lt;/b&gt;&lt;br&gt;Percentage identity: 100&lt;br&gt;Percentage coverage: 100&lt;br&gt;BLAST bit score: 574&lt;br&gt;E-value: 1.26e-208" locus_tag="A7J50_RS16240" class="clusterblast-orf" id="dummy-3_h3_1_30"  />
</g>
<g id="a3_0031"  >
<polygon points="670,90 673,85 670,80 670,90 " style="fill:#15d8b6; stroke-width:1; stroke:black; " description="&lt;b&gt;A7J50_RS16235&lt;/b&gt;&lt;br&gt;DUF1315 family protein&lt;br&gt;Location: 3609123 - 3608863&lt;br&gt;&lt;br&gt;&lt;b&gt;BlastP hit with ctg2_509&lt;/b&gt;&lt;br&gt;Percentage identity: 100&lt;br&gt;Percentage coverage: 100&lt;br&gt;BLAST bit score: 175&lt;br&gt;E-value: 3.62e-57" locus_tag="A7J50_RS16235" class="clusterblast-orf" id="dummy-3_h3_1_31"  />
</g>
<g id="a3_0032"  >
<polygon points="673,90 677,90 682,85 677,80 673,80 673,90 " style="fill:#6615d8; stroke-width:1; stroke:black; " description="&lt;b&gt;A7J50_RS16230&lt;/b&gt;&lt;br&gt;DUF2797 domain-containing protein&lt;br&gt;Location: 3608833 - 3608036&lt;br&gt;&lt;br&gt;&lt;b&gt;BlastP hit with ctg2_510&lt;/b&gt;&lt;br&gt;Percentage identity: 100&lt;br&gt;Percentage coverage: 96&lt;br&gt;BLAST bit score: 543&lt;br&gt;E-value: 4.83e-197" locus_tag="A7J50_RS16230" class="clusterblast-orf" id="dummy-3_h3_1_32"  />
</g>
<g id="a3_0033"  >
<polygon points="682,90 704,90 709,85 704,80 682,80 682,90 " style="fill:#d81538; stroke-width:1; stroke:black; " description="&lt;b&gt;A7J50_RS16225&lt;/b&gt;&lt;br&gt;aminopeptidase N&lt;br&gt;Location: 3608022 - 3605365&lt;br&gt;&lt;br&gt;&lt;b&gt;BlastP hit with ctg2_511&lt;/b&gt;&lt;br&gt;Percentage identity: 100&lt;br&gt;Percentage coverage: 100&lt;br&gt;BLAST bit score: 1753&lt;br&gt;E-value: 0.0" locus_tag="A7J50_RS16225" class="clusterblast-orf" id="dummy-3_h3_1_33"  />
</g>
<g id="a3_0034"  >
<polygon points="713,90 716,90 721,85 716,80 713,80 713,90 " style="fill:#88d815; stroke-width:1; stroke:black; " description="&lt;b&gt;A7J50_RS16220&lt;/b&gt;&lt;br&gt;YafY family transcriptional regulator&lt;br&gt;Location: 3604963 - 3604247&lt;br&gt;&lt;br&gt;&lt;b&gt;BlastP hit with ctg2_512&lt;/b&gt;&lt;br&gt;Percentage identity: 100&lt;br&gt;Percentage coverage: 100&lt;br&gt;BLAST bit score: 461&lt;br&gt;E-value: 1.15e-165" locus_tag="A7J50_RS16220" class="clusterblast-orf" id="dummy-3_h3_1_34"  />
</g>
<g id="a3_0035"  >
<polygon points="721,90 725,85 721,80 721,90 " style="fill:#15d8d8; stroke-width:1; stroke:black; " description="&lt;b&gt;A7J50_RS16215&lt;/b&gt;&lt;br&gt;nuclear transport factor 2 family protein&lt;br&gt;Location: 3604194 - 3603859&lt;br&gt;&lt;br&gt;&lt;b&gt;BlastP hit with ctg2_513&lt;/b&gt;&lt;br&gt;Percentage identity: 100&lt;br&gt;Percentage coverage: 100&lt;br&gt;BLAST bit score: 221&lt;br&gt;E-value: 1.1e-74" locus_tag="A7J50_RS16215" class="clusterblast-orf" id="dummy-3_h3_1_35"  />
</g>
</svg>
