<svg xmlns="http://www.w3.org/2000/svg" xmlns:xlink="http://www.w3.org/1999/xlink" version="1.1" x="0" y="0" height="230" width="800" viewBox="0 0 800 230" preserveAspectRatio="none"  >
<g label="Query sequence" class="clusterblast-cluster"  >
<text x="5" y="20" class="clusterblast-acc"  >
Query sequence</text>
<line x1="10" y1="35" x2="778.0" y2="35" style="stroke-width:1; stroke:grey; "  />
<polygon points="0,40 4,40 9,35 4,30 0,30 0,40 " style="fill:#d81515; stroke-width:1; stroke:black; " description="&lt;b&gt;ctg2_478&lt;/b&gt;&lt;br&gt;ctg2 478&lt;br&gt;Location: 532188 - 533103" locus_tag="ctg2_478" class="clusterblast-orf" id="dummy-3_q0_0_all"  />
<polygon points="10,35 15,30 17,30 17,40 15,40 10,35 " style="fill:#65d815; stroke-width:1; stroke:black; " description="&lt;b&gt;ctg2_479&lt;/b&gt;&lt;br&gt;ctg2 479&lt;br&gt;Location: 533223 - 533889" locus_tag="ctg2_479" class="clusterblast-orf" id="dummy-3_q1_0_all"  />
<polygon points="17,35 22,30 52,30 52,40 22,40 17,35 " style="fill:#65d815; stroke-width:1; stroke:black; " description="&lt;b&gt;ctg2_480&lt;/b&gt;&lt;br&gt;ctg2 480&lt;br&gt;Location: 533863 - 537247" locus_tag="ctg2_480" class="clusterblast-orf" id="dummy-3_q2_0_all"  />
<polygon points="55,40 63,40 68,35 63,30 55,30 55,40 " style="fill:#15b6d8; stroke-width:1; stroke:black; " description="&lt;b&gt;ctg2_481&lt;/b&gt;&lt;br&gt;ctg2 481&lt;br&gt;Location: 537549 - 538758" locus_tag="ctg2_481" class="clusterblast-orf" id="dummy-3_q3_0_all"  />
<polygon points="70,40 74,40 79,35 74,30 70,30 70,40 " style="fill:#8815d8; stroke-width:1; stroke:black; " description="&lt;b&gt;ctg2_482&lt;/b&gt;&lt;br&gt;ctg2 482&lt;br&gt;Location: 538936 - 539854" locus_tag="ctg2_482" class="clusterblast-orf" id="dummy-3_q4_0_all"  />
<polygon points="79,40 86,40 91,35 86,30 79,30 79,40 " style="fill:#d83815; stroke-width:1; stroke:black; " description="&lt;b&gt;ctg2_483&lt;/b&gt;&lt;br&gt;ctg2 483&lt;br&gt;Location: 539864 - 541025" locus_tag="ctg2_483" class="clusterblast-orf" id="dummy-3_q5_0_all"  />
<polygon points="91,40 94,40 99,35 94,30 91,30 91,40 " style="fill:#43d815; stroke-width:1; stroke:black; " description="&lt;b&gt;ctg2_484&lt;/b&gt;&lt;br&gt;ctg2 484&lt;br&gt;Location: 541021 - 541780" locus_tag="ctg2_484" class="clusterblast-orf" id="dummy-3_q6_0_all"  />
<polygon points="99,40 102,40 107,35 102,30 99,30 99,40 " style="fill:#1593d8; stroke-width:1; stroke:black; " description="&lt;b&gt;ctg2_485&lt;/b&gt;&lt;br&gt;ctg2 485&lt;br&gt;Location: 541790 - 542480" locus_tag="ctg2_485" class="clusterblast-orf" id="dummy-3_q7_0_all"  />
<polygon points="109,40 117,40 122,35 117,30 109,30 109,40 " style="fill:#aa15d8; stroke-width:1; stroke:black; " description="&lt;b&gt;ctg2_486&lt;/b&gt;&lt;br&gt;ctg2 486&lt;br&gt;Location: 542699 - 543929" locus_tag="ctg2_486" class="clusterblast-orf" id="dummy-3_q8_0_all"  />
<polygon points="122,40 125,35 122,30 122,40 " style="fill:#d85a15; stroke-width:1; stroke:black; " description="&lt;b&gt;ctg2_487&lt;/b&gt;&lt;br&gt;ctg2 487&lt;br&gt;Location: 543931 - 544279" locus_tag="ctg2_487" class="clusterblast-orf" id="dummy-3_q9_0_all"  />
<polygon points="125,40 131,40 136,35 131,30 125,30 125,40 " style="fill:#21d815; stroke-width:1; stroke:black; " description="&lt;b&gt;ctg2_488&lt;/b&gt;&lt;br&gt;ctg2 488&lt;br&gt;Location: 544294 - 545338" locus_tag="ctg2_488" class="clusterblast-orf" id="dummy-3_q10_0_all"  />
<polygon points="136,40 141,40 146,35 141,30 136,30 136,40 " style="fill:#1571d8; stroke-width:1; stroke:black; " description="&lt;b&gt;ctg2_489&lt;/b&gt;&lt;br&gt;ctg2 489&lt;br&gt;Location: 545341 - 546298" locus_tag="ctg2_489" class="clusterblast-orf" id="dummy-3_q11_0_all"  />
<polygon points="147,40 148,40 153,35 148,30 147,30 147,40 " style="fill:#cd15d8; stroke-width:1; stroke:black; " description="&lt;b&gt;ctg2_490&lt;/b&gt;&lt;br&gt;ctg2 490&lt;br&gt;Location: 546365 - 546938" locus_tag="ctg2_490" class="clusterblast-orf" id="dummy-3_q12_0_all"  />
<polygon points="153,40 162,40 167,35 162,30 153,30 153,40 " style="fill:#d87c15; stroke-width:1; stroke:black; " description="&lt;b&gt;ctg2_491&lt;/b&gt;&lt;br&gt;ctg2 491&lt;br&gt;Location: 546963 - 548319" locus_tag="ctg2_491" class="clusterblast-orf" id="dummy-3_q13_0_all"  />
<polygon points="167,35 172,30 173,30 173,40 172,40 167,35 " style="fill:#15d82c; stroke-width:1; stroke:black; " description="&lt;b&gt;ctg2_492&lt;/b&gt;&lt;br&gt;ctg2 492&lt;br&gt;Location: 548302 - 548896" locus_tag="ctg2_492" class="clusterblast-orf" id="dummy-3_q14_0_all"  />
<polygon points="175,40 182,40 187,35 182,30 175,30 175,40 " style="fill:#154fd8; stroke-width:1; stroke:black; " description="&lt;b&gt;ctg2_493&lt;/b&gt;&lt;br&gt;ctg2 493&lt;br&gt;Location: 549038 - 550229" locus_tag="ctg2_493" class="clusterblast-orf" id="dummy-3_q15_0_all"  />
<polygon points="187,35 191,30 191,40 187,35 " style="fill:#d815c1; stroke-width:1; stroke:black; " description="&lt;b&gt;ctg2_494&lt;/b&gt;&lt;br&gt;ctg2 494&lt;br&gt;Location: 550211 - 550577" locus_tag="ctg2_494" class="clusterblast-orf" id="dummy-3_q16_0_all"  />
<polygon points="191,35 193,30 193,40 191,35 " style="fill:#d89f15; stroke-width:1; stroke:black; " description="&lt;b&gt;ctg2_495&lt;/b&gt;&lt;br&gt;ctg2 495&lt;br&gt;Location: 550573 - 550825" locus_tag="ctg2_495" class="clusterblast-orf" id="dummy-3_q17_0_all"  />
<polygon points="195,40 336,40 341,35 336,30 195,30 195,40 " style="fill:#15d84f; stroke-width:1; stroke:black; " description="&lt;b&gt;ctg2_496&lt;/b&gt;&lt;br&gt;ctg2 496&lt;br&gt;Location: 551033 - 565088" locus_tag="ctg2_496" class="clusterblast-orf" id="dummy-3_q18_0_all"  />
<polygon points="341,40 459,40 464,35 459,30 341,30 341,40 " style="fill:#15d84f; stroke-width:1; stroke:black; " description="&lt;b&gt;ctg2_497&lt;/b&gt;&lt;br&gt;ctg2 497&lt;br&gt;Location: 565091 - 576944" locus_tag="ctg2_497" class="clusterblast-orf" id="dummy-3_q19_0_all"  />
<polygon points="466,35 471,30 491,30 491,40 471,40 466,35 " style="fill:#152cd8; stroke-width:1; stroke:black; " description="&lt;b&gt;ctg2_498&lt;/b&gt;&lt;br&gt;ctg2 498&lt;br&gt;Location: 577088 - 579530" locus_tag="ctg2_498" class="clusterblast-orf" id="dummy-3_q20_0_all"  />
<polygon points="492,35 497,30 510,30 510,40 497,40 492,35 " style="fill:#d8159f; stroke-width:1; stroke:black; " description="&lt;b&gt;ctg2_499&lt;/b&gt;&lt;br&gt;ctg2 499&lt;br&gt;Location: 579639 - 581292" locus_tag="ctg2_499" class="clusterblast-orf" id="dummy-3_q21_0_all"  />
<polygon points="512,40 515,40 520,35 515,30 512,30 512,40 " style="fill:#d8c115; stroke-width:1; stroke:black; " description="&lt;b&gt;ctg2_500&lt;/b&gt;&lt;br&gt;ctg2 500&lt;br&gt;Location: 581490 - 582318" locus_tag="ctg2_500" class="clusterblast-orf" id="dummy-3_q22_0_all"  />
<polygon points="522,35 527,30 531,30 531,40 527,40 522,35 " style="fill:#15d871; stroke-width:1; stroke:black; " description="&lt;b&gt;ctg2_501&lt;/b&gt;&lt;br&gt;ctg2 501&lt;br&gt;Location: 582460 - 583333" locus_tag="ctg2_501" class="clusterblast-orf" id="dummy-3_q23_0_all"  />
<polygon points="531,35 536,30 544,30 544,40 536,40 531,35 " style="fill:#2115d8; stroke-width:1; stroke:black; " description="&lt;b&gt;ctg2_502&lt;/b&gt;&lt;br&gt;ctg2 502&lt;br&gt;Location: 583366 - 584647" locus_tag="ctg2_502" class="clusterblast-orf" id="dummy-3_q24_0_all"  />
<polygon points="545,35 550,30 559,30 559,40 550,40 545,35 " style="fill:#d8157c; stroke-width:1; stroke:black; " description="&lt;b&gt;ctg2_503&lt;/b&gt;&lt;br&gt;ctg2 503&lt;br&gt;Location: 584665 - 586015" locus_tag="ctg2_503" class="clusterblast-orf" id="dummy-3_q25_0_all"  />
<polygon points="560,40 572,40 577,35 572,30 560,30 560,40 " style="fill:#cdd815; stroke-width:1; stroke:black; " description="&lt;b&gt;ctg2_504&lt;/b&gt;&lt;br&gt;ctg2 504&lt;br&gt;Location: 586157 - 587777" locus_tag="ctg2_504" class="clusterblast-orf" id="dummy-3_q26_0_all"  />
<polygon points="577,35 582,30 587,30 587,40 582,40 577,35 " style="fill:#15d893; stroke-width:1; stroke:black; " description="&lt;b&gt;ctg2_505&lt;/b&gt;&lt;br&gt;ctg2 505&lt;br&gt;Location: 587769 - 588717" locus_tag="ctg2_505" class="clusterblast-orf" id="dummy-3_q27_0_all"  />
<polygon points="588,40 593,40 598,35 593,30 588,30 588,40 " style="fill:#4315d8; stroke-width:1; stroke:black; " description="&lt;b&gt;ctg2_506&lt;/b&gt;&lt;br&gt;ctg2 506&lt;br&gt;Location: 588860 - 589751" locus_tag="ctg2_506" class="clusterblast-orf" id="dummy-3_q28_0_all"  />
<polygon points="597,40 603,40 608,35 603,30 597,30 597,40 " style="fill:#d8155a; stroke-width:1; stroke:black; " description="&lt;b&gt;ctg2_507&lt;/b&gt;&lt;br&gt;ctg2 507&lt;br&gt;Location: 589750 - 590722" locus_tag="ctg2_507" class="clusterblast-orf" id="dummy-3_q29_0_all"  />
<polygon points="608,40 612,40 617,35 612,30 608,30 608,40 " style="fill:#aad815; stroke-width:1; stroke:black; " description="&lt;b&gt;ctg2_508&lt;/b&gt;&lt;br&gt;ctg2 508&lt;br&gt;Location: 590718 - 591588" locus_tag="ctg2_508" class="clusterblast-orf" id="dummy-3_q30_0_all"  />
<polygon points="617,40 619,35 617,30 617,40 " style="fill:#15d8b6; stroke-width:1; stroke:black; " description="&lt;b&gt;ctg2_509&lt;/b&gt;&lt;br&gt;ctg2 509&lt;br&gt;Location: 591602 - 591863" locus_tag="ctg2_509" class="clusterblast-orf" id="dummy-3_q31_0_all"  />
<polygon points="619,40 623,40 628,35 623,30 619,30 619,40 " style="fill:#6615d8; stroke-width:1; stroke:black; " description="&lt;b&gt;ctg2_510&lt;/b&gt;&lt;br&gt;ctg2 510&lt;br&gt;Location: 591859 - 592690" locus_tag="ctg2_510" class="clusterblast-orf" id="dummy-3_q32_0_all"  />
<polygon points="628,40 651,40 656,35 651,30 628,30 628,40 " style="fill:#d81538; stroke-width:1; stroke:black; " description="&lt;b&gt;ctg2_511&lt;/b&gt;&lt;br&gt;ctg2 511&lt;br&gt;Location: 592703 - 595361" locus_tag="ctg2_511" class="clusterblast-orf" id="dummy-3_q33_0_all"  />
<polygon points="658,40 660,40 665,35 660,30 658,30 658,40 " style="fill:#88d815; stroke-width:1; stroke:black; " description="&lt;b&gt;ctg2_512&lt;/b&gt;&lt;br&gt;ctg2 512&lt;br&gt;Location: 595567 - 596284" locus_tag="ctg2_512" class="clusterblast-orf" id="dummy-3_q34_0_all"  />
<polygon points="666,40 669,35 666,30 666,40 " style="fill:#15d8d8; stroke-width:1; stroke:black; " description="&lt;b&gt;ctg2_513&lt;/b&gt;&lt;br&gt;ctg2 513&lt;br&gt;Location: 596336 - 596672" locus_tag="ctg2_513" class="clusterblast-orf" id="dummy-3_q35_0_all"  />
<polygon points="670,40 676,40 681,35 676,30 670,30 670,40 " style="fill:white; stroke-width:1; stroke:black; " description="&lt;b&gt;ctg2_514&lt;/b&gt;&lt;br&gt;ctg2 514&lt;br&gt;Location: 596687 - 597794" locus_tag="ctg2_514" class="clusterblast-orf" id="dummy-3_q36_0_all"  />
<polygon points="683,40 683,40 688,35 683,30 683,30 683,40 " style="fill:white; stroke-width:1; stroke:black; " description="&lt;b&gt;ctg2_515&lt;/b&gt;&lt;br&gt;ctg2 515&lt;br&gt;Location: 597956 - 598448" locus_tag="ctg2_515" class="clusterblast-orf" id="dummy-3_q37_0_all"  />
<polygon points="689,35 691,30 691,40 689,35 " style="fill:white; stroke-width:1; stroke:black; " description="&lt;b&gt;ctg2_516&lt;/b&gt;&lt;br&gt;ctg2 516&lt;br&gt;Location: 598549 - 598771" locus_tag="ctg2_516" class="clusterblast-orf" id="dummy-3_q38_0_all"  />
<polygon points="693,35 698,30 716,30 716,40 698,40 693,35 " style="fill:#152cd8; stroke-width:1; stroke:black; " description="&lt;b&gt;ctg2_517&lt;/b&gt;&lt;br&gt;ctg2 517&lt;br&gt;Location: 598913 - 601142" locus_tag="ctg2_517" class="clusterblast-orf" id="dummy-3_q39_0_all"  />
<polygon points="717,35 722,30 735,30 735,40 722,40 717,35 " style="fill:white; stroke-width:1; stroke:black; " description="&lt;b&gt;ctg2_518&lt;/b&gt;&lt;br&gt;ctg2 518&lt;br&gt;Location: 601268 - 603011" locus_tag="ctg2_518" class="clusterblast-orf" id="dummy-3_q40_0_all"  />
<polygon points="737,35 739,30 739,40 737,35 " style="fill:white; stroke-width:1; stroke:black; " description="&lt;b&gt;ctg2_519&lt;/b&gt;&lt;br&gt;ctg2 519&lt;br&gt;Location: 603175 - 603352" locus_tag="ctg2_519" class="clusterblast-orf" id="dummy-3_q41_0_all"  />
<polygon points="742,40 747,40 752,35 747,30 742,30 742,40 " style="fill:white; stroke-width:1; stroke:black; " description="&lt;b&gt;ctg2_520&lt;/b&gt;&lt;br&gt;ctg2 520&lt;br&gt;Location: 603621 - 604605" locus_tag="ctg2_520" class="clusterblast-orf" id="dummy-3_q42_0_all"  />
<polygon points="752,40 763,40 768,35 763,30 752,30 752,40 " style="fill:white; stroke-width:1; stroke:black; " description="&lt;b&gt;ctg2_521&lt;/b&gt;&lt;br&gt;ctg2 521&lt;br&gt;Location: 604601 - 606125" locus_tag="ctg2_521" class="clusterblast-orf" id="dummy-3_q43_0_all"  />
<polygon points="768,40 771,40 776,35 771,30 768,30 768,40 " style="fill:white; stroke-width:1; stroke:black; " description="&lt;b&gt;ctg2_522&lt;/b&gt;&lt;br&gt;ctg2 522&lt;br&gt;Location: 606121 - 606946" locus_tag="ctg2_522" class="clusterblast-orf" id="dummy-3_q44_0_all"  />
<polygon points="777,35 780,30 780,40 777,35 " style="fill:white; stroke-width:1; stroke:black; " description="&lt;b&gt;ctg2_523&lt;/b&gt;&lt;br&gt;ctg2 523&lt;br&gt;Location: 607021 - 607282" locus_tag="ctg2_523" class="clusterblast-orf" id="dummy-3_q45_0_all"  />
</g>
<g label="NZ_CP027762" description="NZ_CP027762 (3697930-3763242): Pseudomonas sp. LBUM920 chromosome, complete g... (100% of genes show similarity), NRPS" class="clusterblast-cluster"  >
<text x="5" y="70" class="clusterblast-acc"  >
<a xlink:href="https://antismash-db.secondarymetabolites.org/area.html?record=NZ_CP027762&amp;start=3697930&amp;end=3763242" target="_blank">NZ_CP027762 (3697930-3763242)</a>: Pseudomonas sp. LBUM920 chromosome, complete g... (100% of genes show similarity), NRPS</text>
<line x1="10" y1="85" x2="778.0" y2="85" style="stroke-width:1; stroke:grey; "  />
</g>
<g id="a3_000"  >
<polygon points="50,90 54,90 59,85 54,80 50,80 50,90 " style="fill:#d81515; stroke-width:1; stroke:black; " description="&lt;b&gt;C4J83_RS17425&lt;/b&gt;&lt;br&gt;IclR family transcriptional regulator&lt;br&gt;Location: 3763242 - 3762412&lt;br&gt;&lt;br&gt;&lt;b&gt;BlastP hit with ctg2_478&lt;/b&gt;&lt;br&gt;Percentage identity: 94&lt;br&gt;Percentage coverage: 91&lt;br&gt;BLAST bit score: 511&lt;br&gt;E-value: 1.42e-183" locus_tag="C4J83_RS17425" class="clusterblast-orf" id="dummy-3_h3_4_0"  />
</g>
<g id="a3_001"  >
<polygon points="71,85 76,80 77,80 77,90 76,90 71,85 " style="fill:#65d815; stroke-width:1; stroke:black; " description="&lt;b&gt;C4J83_RS17410&lt;/b&gt;&lt;br&gt;response regulator&lt;br&gt;Location: 3761289 - 3760624&lt;br&gt;&lt;br&gt;&lt;b&gt;BlastP hit with ctg2_479&lt;/b&gt;&lt;br&gt;Percentage identity: 100&lt;br&gt;Percentage coverage: 100&lt;br&gt;BLAST bit score: 423&lt;br&gt;E-value: 5.47e-151&lt;br&gt;&lt;br&gt;&lt;b&gt;BlastP hit with ctg2_480&lt;/b&gt;&lt;br&gt;Percentage identity: 36&lt;br&gt;Percentage coverage: 13&lt;br&gt;BLAST bit score: 78&lt;br&gt;E-value: 7.85e-14" locus_tag="C4J83_RS17410" class="clusterblast-orf" id="dummy-3_h3_4_1"  />
</g>
<g id="a3_002"  >
<polygon points="77,85 82,80 112,80 112,90 82,90 77,85 " style="fill:#65d815; stroke-width:1; stroke:black; " description="&lt;b&gt;C4J83_RS17405&lt;/b&gt;&lt;br&gt;response regulator&lt;br&gt;Location: 3760649 - 3757266&lt;br&gt;&lt;br&gt;&lt;b&gt;BlastP hit with ctg2_479&lt;/b&gt;&lt;br&gt;Percentage identity: 36&lt;br&gt;Percentage coverage: 68&lt;br&gt;BLAST bit score: 74&lt;br&gt;E-value: 2.37e-13&lt;br&gt;&lt;br&gt;&lt;b&gt;BlastP hit with ctg2_480&lt;/b&gt;&lt;br&gt;Percentage identity: 97&lt;br&gt;Percentage coverage: 100&lt;br&gt;BLAST bit score: 2133&lt;br&gt;E-value: 0.0" locus_tag="C4J83_RS17405" class="clusterblast-orf" id="dummy-3_h3_4_2"  />
</g>
<g id="a3_003"  >
<polygon points="116,90 123,90 128,85 123,80 116,80 116,90 " style="fill:#15b6d8; stroke-width:1; stroke:black; " description="&lt;b&gt;C4J83_RS17400&lt;/b&gt;&lt;br&gt;urea ABC transporter substrate-binding protein&lt;br&gt;Location: 3756954 - 3755746&lt;br&gt;&lt;br&gt;&lt;b&gt;BlastP hit with ctg2_481&lt;/b&gt;&lt;br&gt;Percentage identity: 99&lt;br&gt;Percentage coverage: 100&lt;br&gt;BLAST bit score: 791&lt;br&gt;E-value: 1.81e-290" locus_tag="C4J83_RS17400" class="clusterblast-orf" id="dummy-3_h3_4_3"  />
</g>
<g id="a3_004"  >
<polygon points="130,90 134,90 139,85 134,80 130,80 130,90 " style="fill:#8815d8; stroke-width:1; stroke:black; " description="&lt;b&gt;C4J83_RS17395&lt;/b&gt;&lt;br&gt;urea ABC transporter permease subunit UrtB&lt;br&gt;Location: 3755578 - 3754661&lt;br&gt;&lt;br&gt;&lt;b&gt;BlastP hit with ctg2_482&lt;/b&gt;&lt;br&gt;Percentage identity: 99&lt;br&gt;Percentage coverage: 100&lt;br&gt;BLAST bit score: 569&lt;br&gt;E-value: 4.19e-206" locus_tag="C4J83_RS17395" class="clusterblast-orf" id="dummy-3_h3_4_4"  />
</g>
<g id="a3_005"  >
<polygon points="140,90 147,90 152,85 147,80 140,80 140,90 " style="fill:#d83815; stroke-width:1; stroke:black; " description="&lt;b&gt;C4J83_RS17390&lt;/b&gt;&lt;br&gt;urea ABC transporter permease subunit UrtC&lt;br&gt;Location: 3754650 - 3753487&lt;br&gt;&lt;br&gt;&lt;b&gt;BlastP hit with ctg2_483&lt;/b&gt;&lt;br&gt;Percentage identity: 96&lt;br&gt;Percentage coverage: 100&lt;br&gt;BLAST bit score: 709&lt;br&gt;E-value: 1.57e-258" locus_tag="C4J83_RS17390" class="clusterblast-orf" id="dummy-3_h3_4_5"  />
</g>
<g id="a3_006"  >
<polygon points="152,90 154,90 159,85 154,80 152,80 152,90 " style="fill:#43d815; stroke-width:1; stroke:black; " description="&lt;b&gt;C4J83_RS17385&lt;/b&gt;&lt;br&gt;urea ABC transporter ATP-binding protein UrtD&lt;br&gt;Location: 3753490 - 3752732&lt;br&gt;&lt;br&gt;&lt;b&gt;BlastP hit with ctg2_484&lt;/b&gt;&lt;br&gt;Percentage identity: 98&lt;br&gt;Percentage coverage: 100&lt;br&gt;BLAST bit score: 488&lt;br&gt;E-value: 1.02e-175" locus_tag="C4J83_RS17385" class="clusterblast-orf" id="dummy-3_h3_4_6"  />
</g>
<g id="a3_007"  >
<polygon points="160,90 162,90 167,85 162,80 160,80 160,90 " style="fill:#1593d8; stroke-width:1; stroke:black; " description="&lt;b&gt;C4J83_RS17380&lt;/b&gt;&lt;br&gt;urea ABC transporter ATP-binding subunit UrtE&lt;br&gt;Location: 3752721 - 3752032&lt;br&gt;&lt;br&gt;&lt;b&gt;BlastP hit with ctg2_485&lt;/b&gt;&lt;br&gt;Percentage identity: 98&lt;br&gt;Percentage coverage: 100&lt;br&gt;BLAST bit score: 435&lt;br&gt;E-value: 1.34e-155" locus_tag="C4J83_RS17380" class="clusterblast-orf" id="dummy-3_h3_4_7"  />
</g>
<g id="a3_008"  >
<polygon points="169,90 177,90 182,85 177,80 169,80 169,90 " style="fill:#aa15d8; stroke-width:1; stroke:black; " description="&lt;b&gt;C4J83_RS17370&lt;/b&gt;&lt;br&gt;acetamidase/formamidase family protein&lt;br&gt;Location: 3751812 - 3750583&lt;br&gt;&lt;br&gt;&lt;b&gt;BlastP hit with ctg2_486&lt;/b&gt;&lt;br&gt;Percentage identity: 100&lt;br&gt;Percentage coverage: 100&lt;br&gt;BLAST bit score: 857&lt;br&gt;E-value: 2.68e-316" locus_tag="C4J83_RS17370" class="clusterblast-orf" id="dummy-3_h3_4_8"  />
</g>
<g id="a3_009"  >
<polygon points="182,90 185,85 182,80 182,90 " style="fill:#d85a15; stroke-width:1; stroke:black; " description="&lt;b&gt;C4J83_RS17365&lt;/b&gt;&lt;br&gt;FmdB family transcriptional regulator&lt;br&gt;Location: 3750580 - 3750233&lt;br&gt;&lt;br&gt;&lt;b&gt;BlastP hit with ctg2_487&lt;/b&gt;&lt;br&gt;Percentage identity: 94&lt;br&gt;Percentage coverage: 100&lt;br&gt;BLAST bit score: 236&lt;br&gt;E-value: 1.16e-80" locus_tag="C4J83_RS17365" class="clusterblast-orf" id="dummy-3_h3_4_9"  />
</g>
<g id="a3_0010"  >
<polygon points="186,90 191,90 196,85 191,80 186,80 186,90 " style="fill:#21d815; stroke-width:1; stroke:black; " description="&lt;b&gt;C4J83_RS17360&lt;/b&gt;&lt;br&gt;aliphatic amidase&lt;br&gt;Location: 3750217 - 3749174&lt;br&gt;&lt;br&gt;&lt;b&gt;BlastP hit with ctg2_488&lt;/b&gt;&lt;br&gt;Percentage identity: 98&lt;br&gt;Percentage coverage: 99&lt;br&gt;BLAST bit score: 718&lt;br&gt;E-value: 1.12e-263" locus_tag="C4J83_RS17360" class="clusterblast-orf" id="dummy-3_h3_4_10"  />
</g>
<g id="a3_0011"  >
<polygon points="196,90 201,90 206,85 201,80 196,80 196,90 " style="fill:#1571d8; stroke-width:1; stroke:black; " description="&lt;b&gt;C4J83_RS17355&lt;/b&gt;&lt;br&gt;ATP-dependent Clp protease ATP-binding subunit&lt;br&gt;Location: 3749170 - 3748214&lt;br&gt;&lt;br&gt;&lt;b&gt;BlastP hit with ctg2_489&lt;/b&gt;&lt;br&gt;Percentage identity: 92&lt;br&gt;Percentage coverage: 100&lt;br&gt;BLAST bit score: 566&lt;br&gt;E-value: 1.33e-204" locus_tag="C4J83_RS17355" class="clusterblast-orf" id="dummy-3_h3_4_11"  />
</g>
<g id="a3_0012"  >
<polygon points="207,90 208,90 213,85 208,80 207,80 207,90 " style="fill:#cd15d8; stroke-width:1; stroke:black; " description="&lt;b&gt;C4J83_RS17350&lt;/b&gt;&lt;br&gt;DUF2239 family protein&lt;br&gt;Location: 3748146 - 3747574&lt;br&gt;&lt;br&gt;&lt;b&gt;BlastP hit with ctg2_490&lt;/b&gt;&lt;br&gt;Percentage identity: 78&lt;br&gt;Percentage coverage: 100&lt;br&gt;BLAST bit score: 301&lt;br&gt;E-value: 5.35e-104" locus_tag="C4J83_RS17350" class="clusterblast-orf" id="dummy-3_h3_4_12"  />
</g>
<g id="a3_0013"  >
<polygon points="213,90 222,90 227,85 222,80 213,80 213,90 " style="fill:#d87c15; stroke-width:1; stroke:black; " description="&lt;b&gt;C4J83_RS17345&lt;/b&gt;&lt;br&gt;MATE family efflux transporter&lt;br&gt;Location: 3747548 - 3746193&lt;br&gt;&lt;br&gt;&lt;b&gt;BlastP hit with ctg2_491&lt;/b&gt;&lt;br&gt;Percentage identity: 97&lt;br&gt;Percentage coverage: 100&lt;br&gt;BLAST bit score: 798&lt;br&gt;E-value: 1.05e-291" locus_tag="C4J83_RS17345" class="clusterblast-orf" id="dummy-3_h3_4_13"  />
</g>
<g id="a3_0014"  >
<polygon points="227,85 232,80 233,80 233,90 232,90 227,85 " style="fill:#15d82c; stroke-width:1; stroke:black; " description="&lt;b&gt;C4J83_RS17340&lt;/b&gt;&lt;br&gt;TetR/AcrR family transcriptional regulator&lt;br&gt;Location: 3746209 - 3745610&lt;br&gt;&lt;br&gt;&lt;b&gt;BlastP hit with ctg2_492&lt;/b&gt;&lt;br&gt;Percentage identity: 84&lt;br&gt;Percentage coverage: 101&lt;br&gt;BLAST bit score: 318&lt;br&gt;E-value: 1.91e-110" locus_tag="C4J83_RS17340" class="clusterblast-orf" id="dummy-3_h3_4_14"  />
</g>
<g id="a3_0015"  >
<polygon points="235,90 242,90 247,85 242,80 235,80 235,90 " style="fill:#154fd8; stroke-width:1; stroke:black; " description="&lt;b&gt;C4J83_RS17335&lt;/b&gt;&lt;br&gt;MFS transporter&lt;br&gt;Location: 3745468 - 3744296&lt;br&gt;&lt;br&gt;&lt;b&gt;BlastP hit with ctg2_493&lt;/b&gt;&lt;br&gt;Percentage identity: 91&lt;br&gt;Percentage coverage: 98&lt;br&gt;BLAST bit score: 666&lt;br&gt;E-value: 1.5e-241" locus_tag="C4J83_RS17335" class="clusterblast-orf" id="dummy-3_h3_4_15"  />
</g>
<g id="a3_0016"  >
<polygon points="247,85 251,80 251,90 247,85 " style="fill:#d815c1; stroke-width:1; stroke:black; " description="&lt;b&gt;C4J83_RS17330&lt;/b&gt;&lt;br&gt;type II toxin-antitoxin system HicB family antitoxin&lt;br&gt;Location: 3744295 - 3743930&lt;br&gt;&lt;br&gt;&lt;b&gt;BlastP hit with ctg2_494&lt;/b&gt;&lt;br&gt;Percentage identity: 90&lt;br&gt;Percentage coverage: 100&lt;br&gt;BLAST bit score: 227&lt;br&gt;E-value: 1.18e-76" locus_tag="C4J83_RS17330" class="clusterblast-orf" id="dummy-3_h3_4_16"  />
</g>
<g id="a3_0017"  >
<polygon points="251,85 253,80 253,90 251,85 " style="fill:#d89f15; stroke-width:1; stroke:black; " description="&lt;b&gt;C4J83_RS17325&lt;/b&gt;&lt;br&gt;type II toxin-antitoxin system HicA family toxin&lt;br&gt;Location: 3743933 - 3743682&lt;br&gt;&lt;br&gt;&lt;b&gt;BlastP hit with ctg2_495&lt;/b&gt;&lt;br&gt;Percentage identity: 88&lt;br&gt;Percentage coverage: 100&lt;br&gt;BLAST bit score: 149&lt;br&gt;E-value: 6.95e-47" locus_tag="C4J83_RS17325" class="clusterblast-orf" id="dummy-3_h3_4_17"  />
</g>
<g id="a3_0018"  >
<polygon points="256,90 397,90 402,85 397,80 256,80 256,90 " style="fill:#15d84f; stroke-width:1; stroke:black; " description="&lt;b&gt;C4J83_RS17320&lt;/b&gt;&lt;br&gt;non-ribosomal peptide synthetase&lt;br&gt;Location: 3743471 - 3729423&lt;br&gt;&lt;br&gt;&lt;b&gt;BlastP hit with ctg2_496&lt;/b&gt;&lt;br&gt;Percentage identity: 90&lt;br&gt;Percentage coverage: 100&lt;br&gt;BLAST bit score: 8399&lt;br&gt;E-value: 0.0&lt;br&gt;&lt;br&gt;&lt;b&gt;BlastP hit with ctg2_497&lt;/b&gt;&lt;br&gt;Percentage identity: 67&lt;br&gt;Percentage coverage: 53&lt;br&gt;BLAST bit score: 2666&lt;br&gt;E-value: 0.0" locus_tag="C4J83_RS17320" class="clusterblast-orf" id="dummy-3_h3_4_18"  />
</g>
<g id="a3_0019"  >
<polygon points="402,90 520,90 525,85 520,80 402,80 402,90 " style="fill:#15d84f; stroke-width:1; stroke:black; " description="&lt;b&gt;C4J83_RS17315&lt;/b&gt;&lt;br&gt;non-ribosomal peptide synthase/polyketide synthase&lt;br&gt;Location: 3729419 - 3717567&lt;br&gt;&lt;br&gt;&lt;b&gt;BlastP hit with ctg2_496&lt;/b&gt;&lt;br&gt;Percentage identity: 67&lt;br&gt;Percentage coverage: 45&lt;br&gt;BLAST bit score: 2701&lt;br&gt;E-value: 0.0&lt;br&gt;&lt;br&gt;&lt;b&gt;BlastP hit with ctg2_497&lt;/b&gt;&lt;br&gt;Percentage identity: 92&lt;br&gt;Percentage coverage: 100&lt;br&gt;BLAST bit score: 7257&lt;br&gt;E-value: 0.0" locus_tag="C4J83_RS17315" class="clusterblast-orf" id="dummy-3_h3_4_19"  />
</g>
<g id="a3_0020"  >
<polygon points="528,85 533,80 553,80 553,90 533,90 528,85 " style="fill:#152cd8; stroke-width:1; stroke:black; " description="&lt;b&gt;C4J83_RS17310&lt;/b&gt;&lt;br&gt;TonB-dependent siderophore receptor&lt;br&gt;Location: 3717297 - 3714856&lt;br&gt;&lt;br&gt;&lt;b&gt;BlastP hit with ctg2_498&lt;/b&gt;&lt;br&gt;Percentage identity: 94&lt;br&gt;Percentage coverage: 100&lt;br&gt;BLAST bit score: 1565&lt;br&gt;E-value: 0.0&lt;br&gt;&lt;br&gt;&lt;b&gt;BlastP hit with ctg2_517&lt;/b&gt;&lt;br&gt;Percentage identity: 39&lt;br&gt;Percentage coverage: 97&lt;br&gt;BLAST bit score: 486&lt;br&gt;E-value: 2.19e-159" locus_tag="C4J83_RS17310" class="clusterblast-orf" id="dummy-3_h3_4_20"  />
</g>
<g id="a3_0021"  >
<polygon points="554,85 559,80 571,80 571,90 559,90 554,85 " style="fill:#d8159f; stroke-width:1; stroke:black; " description="&lt;b&gt;C4J83_RS17305&lt;/b&gt;&lt;br&gt;cyclic peptide export ABC transporter&lt;br&gt;Location: 3714746 - 3713094&lt;br&gt;&lt;br&gt;&lt;b&gt;BlastP hit with ctg2_499&lt;/b&gt;&lt;br&gt;Percentage identity: 99&lt;br&gt;Percentage coverage: 100&lt;br&gt;BLAST bit score: 1043&lt;br&gt;E-value: 0.0" locus_tag="C4J83_RS17305" class="clusterblast-orf" id="dummy-3_h3_4_21"  />
</g>
<g id="a3_0022"  >
<polygon points="573,90 577,90 582,85 577,80 573,80 573,90 " style="fill:#d8c115; stroke-width:1; stroke:black; " description="&lt;b&gt;C4J83_RS17300&lt;/b&gt;&lt;br&gt;N(5)-hydroxyornithine transformylase PvdF&lt;br&gt;Location: 3712895 - 3712068&lt;br&gt;&lt;br&gt;&lt;b&gt;BlastP hit with ctg2_500&lt;/b&gt;&lt;br&gt;Percentage identity: 98&lt;br&gt;Percentage coverage: 100&lt;br&gt;BLAST bit score: 554&lt;br&gt;E-value: 3.61e-201" locus_tag="C4J83_RS17300" class="clusterblast-orf" id="dummy-3_h3_4_22"  />
</g>
<g id="a3_0023"  >
<polygon points="595,85 600,80 604,80 604,90 600,90 595,85 " style="fill:#15d871; stroke-width:1; stroke:black; " description="&lt;b&gt;C4J83_RS17295&lt;/b&gt;&lt;br&gt;formylglycine-generating enzyme family protein&lt;br&gt;Location: 3710828 - 3709956&lt;br&gt;&lt;br&gt;&lt;b&gt;BlastP hit with ctg2_501&lt;/b&gt;&lt;br&gt;Percentage identity: 94&lt;br&gt;Percentage coverage: 100&lt;br&gt;BLAST bit score: 583&lt;br&gt;E-value: 3e-212" locus_tag="C4J83_RS17295" class="clusterblast-orf" id="dummy-3_h3_4_23"  />
</g>
<g id="a3_0024"  >
<polygon points="604,85 609,80 617,80 617,90 609,90 604,85 " style="fill:#2115d8; stroke-width:1; stroke:black; " description="&lt;b&gt;C4J83_RS17290&lt;/b&gt;&lt;br&gt;aminotransferase class V-fold PLP-dependent enzyme&lt;br&gt;Location: 3709926 - 3708646&lt;br&gt;&lt;br&gt;&lt;b&gt;BlastP hit with ctg2_502&lt;/b&gt;&lt;br&gt;Percentage identity: 89&lt;br&gt;Percentage coverage: 100&lt;br&gt;BLAST bit score: 775&lt;br&gt;E-value: 2.96e-283" locus_tag="C4J83_RS17290" class="clusterblast-orf" id="dummy-3_h3_4_24"  />
</g>
<g id="a3_0025"  >
<polygon points="618,85 623,80 632,80 632,90 623,90 618,85 " style="fill:#d8157c; stroke-width:1; stroke:black; " description="&lt;b&gt;C4J83_RS17285&lt;/b&gt;&lt;br&gt;pyoverdine-tailoring dipeptidase-like protein PvdM&lt;br&gt;Location: 3708627 - 3707278&lt;br&gt;&lt;br&gt;&lt;b&gt;BlastP hit with ctg2_503&lt;/b&gt;&lt;br&gt;Percentage identity: 96&lt;br&gt;Percentage coverage: 100&lt;br&gt;BLAST bit score: 883&lt;br&gt;E-value: 0.0" locus_tag="C4J83_RS17285" class="clusterblast-orf" id="dummy-3_h3_4_25"  />
</g>
<g id="a3_0026"  >
<polygon points="633,90 645,90 650,85 645,80 633,80 633,90 " style="fill:#cdd815; stroke-width:1; stroke:black; " description="&lt;b&gt;C4J83_RS17280&lt;/b&gt;&lt;br&gt;PvdJ/PvdD/PvdP-like protein&lt;br&gt;Location: 3707135 - 3705516&lt;br&gt;&lt;br&gt;&lt;b&gt;BlastP hit with ctg2_504&lt;/b&gt;&lt;br&gt;Percentage identity: 94&lt;br&gt;Percentage coverage: 100&lt;br&gt;BLAST bit score: 1083&lt;br&gt;E-value: 0.0" locus_tag="C4J83_RS17280" class="clusterblast-orf" id="dummy-3_h3_4_26"  />
</g>
<g id="a3_0027"  >
<polygon points="650,85 655,80 660,80 660,90 655,90 650,85 " style="fill:#15d893; stroke-width:1; stroke:black; " description="&lt;b&gt;C4J83_RS17275&lt;/b&gt;&lt;br&gt;DUF1853 family protein&lt;br&gt;Location: 3705523 - 3704576&lt;br&gt;&lt;br&gt;&lt;b&gt;BlastP hit with ctg2_505&lt;/b&gt;&lt;br&gt;Percentage identity: 94&lt;br&gt;Percentage coverage: 100&lt;br&gt;BLAST bit score: 634&lt;br&gt;E-value: 3.18e-231" locus_tag="C4J83_RS17275" class="clusterblast-orf" id="dummy-3_h3_4_27"  />
</g>
<g id="a3_0028"  >
<polygon points="661,90 665,90 670,85 665,80 661,80 661,90 " style="fill:#4315d8; stroke-width:1; stroke:black; " description="&lt;b&gt;C4J83_RS17270&lt;/b&gt;&lt;br&gt;NAD(+) kinase&lt;br&gt;Location: 3704431 - 3703541&lt;br&gt;&lt;br&gt;&lt;b&gt;BlastP hit with ctg2_506&lt;/b&gt;&lt;br&gt;Percentage identity: 100&lt;br&gt;Percentage coverage: 100&lt;br&gt;BLAST bit score: 599&lt;br&gt;E-value: 3.81e-218" locus_tag="C4J83_RS17270" class="clusterblast-orf" id="dummy-3_h3_4_28"  />
</g>
<g id="a3_0029"  >
<polygon points="670,90 676,90 681,85 676,80 670,80 670,90 " style="fill:#d8155a; stroke-width:1; stroke:black; " description="&lt;b&gt;C4J83_RS17265&lt;/b&gt;&lt;br&gt;metallophosphoesterase&lt;br&gt;Location: 3703544 - 3702570&lt;br&gt;&lt;br&gt;&lt;b&gt;BlastP hit with ctg2_507&lt;/b&gt;&lt;br&gt;Percentage identity: 97&lt;br&gt;Percentage coverage: 100&lt;br&gt;BLAST bit score: 685&lt;br&gt;E-value: 2.29e-251" locus_tag="C4J83_RS17265" class="clusterblast-orf" id="dummy-3_h3_4_29"  />
</g>
<g id="a3_0030"  >
<polygon points="680,90 684,90 689,85 684,80 680,80 680,90 " style="fill:#aad815; stroke-width:1; stroke:black; " description="&lt;b&gt;C4J83_RS17260&lt;/b&gt;&lt;br&gt;rhomboid family intramembrane serine protease&lt;br&gt;Location: 3702573 - 3701704&lt;br&gt;&lt;br&gt;&lt;b&gt;BlastP hit with ctg2_508&lt;/b&gt;&lt;br&gt;Percentage identity: 94&lt;br&gt;Percentage coverage: 100&lt;br&gt;BLAST bit score: 550&lt;br&gt;E-value: 7.22e-199" locus_tag="C4J83_RS17260" class="clusterblast-orf" id="dummy-3_h3_4_30"  />
</g>
<g id="a3_0031"  >
<polygon points="690,90 692,85 690,80 690,90 " style="fill:#15d8b6; stroke-width:1; stroke:black; " description="&lt;b&gt;C4J83_RS17255&lt;/b&gt;&lt;br&gt;DUF1315 family protein&lt;br&gt;Location: 3701689 - 3701429&lt;br&gt;&lt;br&gt;&lt;b&gt;BlastP hit with ctg2_509&lt;/b&gt;&lt;br&gt;Percentage identity: 100&lt;br&gt;Percentage coverage: 100&lt;br&gt;BLAST bit score: 175&lt;br&gt;E-value: 3.62e-57" locus_tag="C4J83_RS17255" class="clusterblast-orf" id="dummy-3_h3_4_31"  />
</g>
<g id="a3_0032"  >
<polygon points="692,90 696,90 701,85 696,80 692,80 692,90 " style="fill:#6615d8; stroke-width:1; stroke:black; " description="&lt;b&gt;C4J83_RS17250&lt;/b&gt;&lt;br&gt;DUF2797 domain-containing protein&lt;br&gt;Location: 3701432 - 3700602&lt;br&gt;&lt;br&gt;&lt;b&gt;BlastP hit with ctg2_510&lt;/b&gt;&lt;br&gt;Percentage identity: 95&lt;br&gt;Percentage coverage: 100&lt;br&gt;BLAST bit score: 539&lt;br&gt;E-value: 4.9e-195" locus_tag="C4J83_RS17250" class="clusterblast-orf" id="dummy-3_h3_4_32"  />
</g>
<g id="a3_0033"  >
<polygon points="701,90 724,90 729,85 724,80 701,80 701,90 " style="fill:#d81538; stroke-width:1; stroke:black; " description="&lt;b&gt;C4J83_RS17245&lt;/b&gt;&lt;br&gt;aminopeptidase N&lt;br&gt;Location: 3700588 - 3697931&lt;br&gt;&lt;br&gt;&lt;b&gt;BlastP hit with ctg2_511&lt;/b&gt;&lt;br&gt;Percentage identity: 97&lt;br&gt;Percentage coverage: 100&lt;br&gt;BLAST bit score: 1703&lt;br&gt;E-value: 0.0" locus_tag="C4J83_RS17245" class="clusterblast-orf" id="dummy-3_h3_4_33"  />
</g>
</svg>
