<svg xmlns="http://www.w3.org/2000/svg" xmlns:xlink="http://www.w3.org/1999/xlink" version="1.1" x="0" y="0" height="230" width="800" viewBox="0 0 800 230" preserveAspectRatio="none"  >
<g label="Query sequence" class="clusterblast-cluster"  >
<text x="5" y="20" class="clusterblast-acc"  >
Query sequence</text>
<line x1="10" y1="35" x2="778.0" y2="35" style="stroke-width:1; stroke:grey; "  />
<polygon points="215,40 245,40 250,35 245,30 215,30 215,40 " style="fill:#d81515; stroke-width:1; stroke:black; " description="&lt;b&gt;ctg38_1&lt;/b&gt;&lt;br&gt;ctg38 1&lt;br&gt;Location: 819 - 2700" locus_tag="ctg38_1" class="clusterblast-orf" id="dummy-1_q0_0_all"  />
<polygon points="251,35 256,30 260,30 260,40 256,40 251,35 " style="fill:#3cd815; stroke-width:1; stroke:black; " description="&lt;b&gt;ctg38_2&lt;/b&gt;&lt;br&gt;ctg38 2&lt;br&gt;Location: 2739 - 3198" locus_tag="ctg38_2" class="clusterblast-orf" id="dummy-1_q1_0_all"  />
<polygon points="260,35 265,30 324,30 324,40 265,40 260,35 " style="fill:#1563d8; stroke-width:1; stroke:black; " description="&lt;b&gt;ctg38_3&lt;/b&gt;&lt;br&gt;ctg38 3&lt;br&gt;Location: 3216 - 6594" locus_tag="ctg38_3" class="clusterblast-orf" id="dummy-1_q2_0_all"  />
<polygon points="324,35 329,30 342,30 342,40 329,40 324,35 " style="fill:#b115d8; stroke-width:1; stroke:black; " description="&lt;b&gt;ctg38_4&lt;/b&gt;&lt;br&gt;ctg38 4&lt;br&gt;Location: 6590 - 7538" locus_tag="ctg38_4" class="clusterblast-orf" id="dummy-1_q3_0_all"  />
<polygon points="342,35 347,30 357,30 357,40 347,40 342,35 " style="fill:#d88a15; stroke-width:1; stroke:black; " description="&lt;b&gt;ctg38_5&lt;/b&gt;&lt;br&gt;ctg38 5&lt;br&gt;Location: 7534 - 8293" locus_tag="ctg38_5" class="clusterblast-orf" id="dummy-1_q4_0_all"  />
<polygon points="364,35 369,30 377,30 377,40 369,40 364,35 " style="fill:#15d863; stroke-width:1; stroke:black; " description="&lt;b&gt;ctg38_6&lt;/b&gt;&lt;br&gt;ctg38 6&lt;br&gt;Location: 8675 - 9386" locus_tag="ctg38_6" class="clusterblast-orf" id="dummy-1_q5_0_all"  />
<polygon points="383,40 390,40 395,35 390,30 383,30 383,40 " style="fill:#3c15d8; stroke-width:1; stroke:black; " description="&lt;b&gt;ctg38_7&lt;/b&gt;&lt;br&gt;ctg38 7&lt;br&gt;Location: 9704 - 10328" locus_tag="ctg38_7" class="clusterblast-orf" id="dummy-1_q6_0_all"  />
<polygon points="396,40 428,40 433,35 428,30 396,30 396,40 " style="fill:#d8158a; stroke-width:1; stroke:black; " description="&lt;b&gt;ctg38_8&lt;/b&gt;&lt;br&gt;ctg38 8&lt;br&gt;Location: 10342 - 12289" locus_tag="ctg38_8" class="clusterblast-orf" id="dummy-1_q7_0_all"  />
<polygon points="435,35 440,30 441,30 441,40 440,40 435,35 " style="fill:#b1d815; stroke-width:1; stroke:black; " description="&lt;b&gt;ctg38_9&lt;/b&gt;&lt;br&gt;ctg38 9&lt;br&gt;Location: 12415 - 12754" locus_tag="ctg38_9" class="clusterblast-orf" id="dummy-1_q8_0_all"  />
<polygon points="444,35 449,30 565,30 565,40 449,40 444,35 " style="fill:#15d8d8; stroke-width:1; stroke:black; " description="&lt;b&gt;ctg38_10&lt;/b&gt;&lt;br&gt;ctg38 10&lt;br&gt;Location: 12906 - 19245" locus_tag="ctg38_10" class="clusterblast-orf" id="dummy-1_q9_0_all"  />
</g>
<g label="NZ_MAYQ01000006" description="NZ_MAYQ01000006 (960115-1001168): Pseudomonas moraviensis strain Devor contig... (45% of genes show similarity), NRPS-like" class="clusterblast-cluster"  >
<text x="5" y="70" class="clusterblast-acc"  >
<a xlink:href="https://antismash-db.secondarymetabolites.org/area.html?record=NZ_MAYQ01000006&amp;start=960115&amp;end=1001168" target="_blank">NZ_MAYQ01000006 (960115-1001168)</a>: Pseudomonas moraviensis strain Devor contig... (45% of genes show similarity), NRPS-like</text>
<line x1="10" y1="85" x2="778.0" y2="85" style="stroke-width:1; stroke:grey; "  />
</g>
<g id="a1_000"  >
<polygon points="0,90 4,90 9,85 4,80 0,80 0,90 " style="fill:white; stroke-width:1; stroke:black; " description="&lt;b&gt;BBA88_RS08555&lt;/b&gt;&lt;br&gt;acetolactate synthase small subunit&lt;br&gt;Location: 960116 - 960607" locus_tag="BBA88_RS08555" class="clusterblast-orf" id="dummy-1_h1_7_0"  />
</g>
<g id="a1_001"  >
<polygon points="10,90 24,90 29,85 24,80 10,80 10,90 " style="fill:white; stroke-width:1; stroke:black; " description="&lt;b&gt;BBA88_RS08560&lt;/b&gt;&lt;br&gt;ketol-acid reductoisomerase&lt;br&gt;Location: 960654 - 961670" locus_tag="BBA88_RS08560" class="clusterblast-orf" id="dummy-1_h1_7_1"  />
</g>
<g id="a1_002"  >
<polygon points="32,90 43,90 48,85 43,80 32,80 32,90 " style="fill:white; stroke-width:1; stroke:black; " description="&lt;b&gt;BBA88_RS08565&lt;/b&gt;&lt;br&gt;CDP-diacylglycerol--serine O-phosphatidyltransferase&lt;br&gt;Location: 961819 - 962676" locus_tag="BBA88_RS08565" class="clusterblast-orf" id="dummy-1_h1_7_2"  />
</g>
<g id="a1_003"  >
<polygon points="49,90 64,90 69,85 64,80 49,80 49,90 " style="fill:white; stroke-width:1; stroke:black; " description="&lt;b&gt;BBA88_RS08570&lt;/b&gt;&lt;br&gt;protein-methionine-sulfoxide reductase catalytic subunit MsrP&lt;br&gt;Location: 962740 - 963753" locus_tag="BBA88_RS08570" class="clusterblast-orf" id="dummy-1_h1_7_3"  />
</g>
<g id="a1_004"  >
<polygon points="69,90 75,90 80,85 75,80 69,80 69,90 " style="fill:white; stroke-width:1; stroke:black; " description="&lt;b&gt;BBA88_RS08575&lt;/b&gt;&lt;br&gt;protein-methionine-sulfoxide reductase heme-binding subunit MsrQ&lt;br&gt;Location: 963753 - 964376" locus_tag="BBA88_RS08575" class="clusterblast-orf" id="dummy-1_h1_7_4"  />
</g>
<g id="a1_005"  >
<polygon points="82,90 85,85 82,80 82,90 " style="fill:white; stroke-width:1; stroke:black; " description="&lt;b&gt;BBA88_RS27330&lt;/b&gt;&lt;br&gt;hypothetical protein&lt;br&gt;Location: 964445 - 964624" locus_tag="BBA88_RS27330" class="clusterblast-orf" id="dummy-1_h1_7_5"  />
</g>
<g id="a1_006"  >
<polygon points="210,85 215,80 233,80 233,90 215,90 210,85 " style="fill:white; stroke-width:1; stroke:black; " description="&lt;b&gt;BBA88_RS08620&lt;/b&gt;&lt;br&gt;PepSY domain-containing protein&lt;br&gt;Location: 971216 - 972394" locus_tag="BBA88_RS08620" class="clusterblast-orf" id="dummy-1_h1_7_6"  />
</g>
<g id="a1_007"  >
<polygon points="234,85 239,80 282,80 282,90 239,90 234,85 " style="fill:white; stroke-width:1; stroke:black; " description="&lt;b&gt;BBA88_RS08625&lt;/b&gt;&lt;br&gt;TonB-dependent siderophore receptor&lt;br&gt;Location: 972470 - 974974" locus_tag="BBA88_RS08625" class="clusterblast-orf" id="dummy-1_h1_7_7"  />
</g>
<g id="a1_008"  >
<polygon points="283,85 288,80 302,80 302,90 288,90 283,85 " style="fill:white; stroke-width:1; stroke:black; " description="&lt;b&gt;BBA88_RS08630&lt;/b&gt;&lt;br&gt;FecR family protein&lt;br&gt;Location: 975062 - 976063" locus_tag="BBA88_RS08630" class="clusterblast-orf" id="dummy-1_h1_7_8"  />
</g>
<g id="a1_009"  >
<polygon points="302,85 307,80 312,80 312,90 307,90 302,85 " style="fill:white; stroke-width:1; stroke:black; " description="&lt;b&gt;BBA88_RS08635&lt;/b&gt;&lt;br&gt;sigma-70 family RNA polymerase sigma factor&lt;br&gt;Location: 976063 - 976563" locus_tag="BBA88_RS08635" class="clusterblast-orf" id="dummy-1_h1_7_9"  />
</g>
<g id="a1_0010"  >
<polygon points="318,90 349,90 354,85 349,80 318,80 318,90 " style="fill:#d81515; stroke-width:1; stroke:black; " description="&lt;b&gt;BBA88_RS08640&lt;/b&gt;&lt;br&gt;methyl-accepting chemotaxis protein&lt;br&gt;Location: 976875 - 978755&lt;br&gt;&lt;br&gt;&lt;b&gt;BlastP hit with ctg38_1&lt;/b&gt;&lt;br&gt;Percentage identity: 88&lt;br&gt;Percentage coverage: 100&lt;br&gt;BLAST bit score: 971&lt;br&gt;E-value: 0.0" locus_tag="BBA88_RS08640" class="clusterblast-orf" id="dummy-1_h1_7_10"  />
</g>
<g id="a1_0011"  >
<polygon points="356,85 361,80 365,80 365,90 361,90 356,85 " style="fill:#3cd815; stroke-width:1; stroke:black; " description="&lt;b&gt;BBA88_RS08645&lt;/b&gt;&lt;br&gt;SRPBCC family protein&lt;br&gt;Location: 978887 - 979354&lt;br&gt;&lt;br&gt;&lt;b&gt;BlastP hit with ctg38_2&lt;/b&gt;&lt;br&gt;Percentage identity: 60&lt;br&gt;Percentage coverage: 101&lt;br&gt;BLAST bit score: 181&lt;br&gt;E-value: 1.17e-57" locus_tag="BBA88_RS08645" class="clusterblast-orf" id="dummy-1_h1_7_11"  />
</g>
<g id="a1_0012"  >
<polygon points="365,85 370,80 430,80 430,90 370,90 365,85 " style="fill:#1563d8; stroke-width:1; stroke:black; " description="&lt;b&gt;BBA88_RS08650&lt;/b&gt;&lt;br&gt;non-ribosomal peptide synthetase&lt;br&gt;Location: 979377 - 982769&lt;br&gt;&lt;br&gt;&lt;b&gt;BlastP hit with ctg38_3&lt;/b&gt;&lt;br&gt;Percentage identity: 58&lt;br&gt;Percentage coverage: 101&lt;br&gt;BLAST bit score: 1250&lt;br&gt;E-value: 0.0" locus_tag="BBA88_RS08650" class="clusterblast-orf" id="dummy-1_h1_7_12"  />
</g>
<g id="a1_0013"  >
<polygon points="430,85 435,80 448,80 448,90 435,90 430,85 " style="fill:#b115d8; stroke-width:1; stroke:black; " description="&lt;b&gt;BBA88_RS08655&lt;/b&gt;&lt;br&gt;aminobenzoate oxygenase&lt;br&gt;Location: 982780 - 983709&lt;br&gt;&lt;br&gt;&lt;b&gt;BlastP hit with ctg38_4&lt;/b&gt;&lt;br&gt;Percentage identity: 72&lt;br&gt;Percentage coverage: 98&lt;br&gt;BLAST bit score: 446&lt;br&gt;E-value: 5.57e-157" locus_tag="BBA88_RS08655" class="clusterblast-orf" id="dummy-1_h1_7_13"  />
</g>
<g id="a1_0014"  >
<polygon points="448,85 453,80 462,80 462,90 453,90 448,85 " style="fill:#d88a15; stroke-width:1; stroke:black; " description="&lt;b&gt;BBA88_RS08660&lt;/b&gt;&lt;br&gt;DUF3050 domain-containing protein&lt;br&gt;Location: 983706 - 984482&lt;br&gt;&lt;br&gt;&lt;b&gt;BlastP hit with ctg38_5&lt;/b&gt;&lt;br&gt;Percentage identity: 63&lt;br&gt;Percentage coverage: 95&lt;br&gt;BLAST bit score: 294&lt;br&gt;E-value: 4.74e-99" locus_tag="BBA88_RS08660" class="clusterblast-orf" id="dummy-1_h1_7_14"  />
</g>
<g id="a1_0015"  >
<polygon points="476,85 481,80 489,80 489,90 481,90 476,85 " style="fill:#15d863; stroke-width:1; stroke:black; " description="&lt;b&gt;BBA88_RS08665&lt;/b&gt;&lt;br&gt;GntR family transcriptional regulator&lt;br&gt;Location: 985180 - 985890&lt;br&gt;&lt;br&gt;&lt;b&gt;BlastP hit with ctg38_6&lt;/b&gt;&lt;br&gt;Percentage identity: 70&lt;br&gt;Percentage coverage: 100&lt;br&gt;BLAST bit score: 320&lt;br&gt;E-value: 1.12e-109" locus_tag="BBA88_RS08665" class="clusterblast-orf" id="dummy-1_h1_7_15"  />
</g>
<g id="a1_0016"  >
<polygon points="493,90 501,90 506,85 501,80 493,80 493,90 " style="fill:#3c15d8; stroke-width:1; stroke:black; " description="&lt;b&gt;BBA88_RS08670&lt;/b&gt;&lt;br&gt;hypothetical protein&lt;br&gt;Location: 986087 - 986779&lt;br&gt;&lt;br&gt;&lt;b&gt;BlastP hit with ctg38_7&lt;/b&gt;&lt;br&gt;Percentage identity: 86&lt;br&gt;Percentage coverage: 100&lt;br&gt;BLAST bit score: 372&lt;br&gt;E-value: 5.64e-131" locus_tag="BBA88_RS08670" class="clusterblast-orf" id="dummy-1_h1_7_16"  />
</g>
<g id="a1_0017"  >
<polygon points="506,90 538,90 543,85 538,80 506,80 506,90 " style="fill:#d8158a; stroke-width:1; stroke:black; " description="&lt;b&gt;BBA88_RS08675&lt;/b&gt;&lt;br&gt;EAL domain-containing protein&lt;br&gt;Location: 986794 - 988740&lt;br&gt;&lt;br&gt;&lt;b&gt;BlastP hit with ctg38_8&lt;/b&gt;&lt;br&gt;Percentage identity: 85&lt;br&gt;Percentage coverage: 100&lt;br&gt;BLAST bit score: 1057&lt;br&gt;E-value: 0.0" locus_tag="BBA88_RS08675" class="clusterblast-orf" id="dummy-1_h1_7_17"  />
</g>
<g id="a1_0018"  >
<polygon points="557,85 562,80 564,80 564,90 562,90 557,85 " style="fill:#b1d815; stroke-width:1; stroke:black; " description="&lt;b&gt;BBA88_RS08680&lt;/b&gt;&lt;br&gt;hypothetical protein&lt;br&gt;Location: 989471 - 989809&lt;br&gt;&lt;br&gt;&lt;b&gt;BlastP hit with ctg38_9&lt;/b&gt;&lt;br&gt;Percentage identity: 85&lt;br&gt;Percentage coverage: 100&lt;br&gt;BLAST bit score: 181&lt;br&gt;E-value: 1.22e-58" locus_tag="BBA88_RS08680" class="clusterblast-orf" id="dummy-1_h1_7_18"  />
</g>
<g id="a1_0019"  >
<polygon points="567,85 572,80 642,80 642,90 572,90 567,85 " style="fill:#15d8d8; stroke-width:1; stroke:black; " description="&lt;b&gt;BBA88_RS08685&lt;/b&gt;&lt;br&gt;type I secretion C-terminal target domain-containing protein&lt;br&gt;Location: 989959 - 993930&lt;br&gt;&lt;br&gt;&lt;b&gt;BlastP hit with ctg38_10&lt;/b&gt;&lt;br&gt;Percentage identity: 69&lt;br&gt;Percentage coverage: 63&lt;br&gt;BLAST bit score: 1634&lt;br&gt;E-value: 0.0" locus_tag="BBA88_RS08685" class="clusterblast-orf" id="dummy-1_h1_7_19"  />
</g>
<g id="a1_0020"  >
<polygon points="644,90 705,90 710,85 705,80 644,80 644,90 " style="fill:white; stroke-width:1; stroke:black; " description="&lt;b&gt;BBA88_RS08690&lt;/b&gt;&lt;br&gt;exodeoxyribonuclease V subunit gamma&lt;br&gt;Location: 994033 - 997485" locus_tag="BBA88_RS08690" class="clusterblast-orf" id="dummy-1_h1_7_20"  />
</g>
<g id="a1_0021"  >
<polygon points="709,90 775,90 780,85 775,80 709,80 709,90 " style="fill:white; stroke-width:1; stroke:black; " description="&lt;b&gt;BBA88_RS08695&lt;/b&gt;&lt;br&gt;exodeoxyribonuclease V subunit beta&lt;br&gt;Location: 997482 - 1001168" locus_tag="BBA88_RS08695" class="clusterblast-orf" id="dummy-1_h1_7_21"  />
</g>
</svg>
