<svg xmlns="http://www.w3.org/2000/svg" xmlns:xlink="http://www.w3.org/1999/xlink" version="1.1" x="0" y="0" height="230" width="800" viewBox="0 0 800 230" preserveAspectRatio="none"  >
<g label="Query sequence" class="clusterblast-cluster"  >
<text x="5" y="20" class="clusterblast-acc"  >
Query sequence</text>
<line x1="10" y1="35" x2="778.0" y2="35" style="stroke-width:1; stroke:grey; "  />
<polygon points="0,40 11,40 16,35 11,30 0,30 0,40 " style="fill:#d81515; stroke-width:1; stroke:black; " description="&lt;b&gt;ctg2_224&lt;/b&gt;&lt;br&gt;ctg2 224&lt;br&gt;Location: 241210 - 241750" locus_tag="ctg2_224" class="clusterblast-orf" id="dummy-2_q0_0_all"  />
<polygon points="17,35 22,30 52,30 52,40 22,40 17,35 " style="fill:#56d815; stroke-width:1; stroke:black; " description="&lt;b&gt;ctg2_225&lt;/b&gt;&lt;br&gt;ctg2 225&lt;br&gt;Location: 241767 - 242919" locus_tag="ctg2_225" class="clusterblast-orf" id="dummy-2_q1_0_all"  />
<polygon points="67,35 72,30 78,30 78,40 72,40 67,35 " style="fill:#1597d8; stroke-width:1; stroke:black; " description="&lt;b&gt;ctg2_226&lt;/b&gt;&lt;br&gt;ctg2 226&lt;br&gt;Location: 243384 - 243735" locus_tag="ctg2_226" class="clusterblast-orf" id="dummy-2_q2_0_all"  />
<polygon points="82,40 96,40 101,35 96,30 82,30 82,40 " style="fill:#9715d8; stroke-width:1; stroke:black; " description="&lt;b&gt;ctg2_227&lt;/b&gt;&lt;br&gt;ctg2 227&lt;br&gt;Location: 243865 - 244501" locus_tag="ctg2_227" class="clusterblast-orf" id="dummy-2_q3_0_all"  />
<polygon points="101,35 106,30 160,30 160,40 106,40 101,35 " style="fill:#d85615; stroke-width:1; stroke:black; " description="&lt;b&gt;ctg2_228&lt;/b&gt;&lt;br&gt;ctg2 228&lt;br&gt;Location: 244497 - 246423" locus_tag="ctg2_228" class="clusterblast-orf" id="dummy-2_q4_0_all"  />
<polygon points="160,35 165,30 185,30 185,40 165,40 160,35 " style="fill:#15d815; stroke-width:1; stroke:black; " description="&lt;b&gt;ctg2_229&lt;/b&gt;&lt;br&gt;ctg2 229&lt;br&gt;Location: 246419 - 247226" locus_tag="ctg2_229" class="clusterblast-orf" id="dummy-2_q5_0_all"  />
<polygon points="186,35 191,30 235,30 235,40 191,40 186,35 " style="fill:#1556d8; stroke-width:1; stroke:black; " description="&lt;b&gt;ctg2_230&lt;/b&gt;&lt;br&gt;ctg2 230&lt;br&gt;Location: 247240 - 248848" locus_tag="ctg2_230" class="clusterblast-orf" id="dummy-2_q6_0_all"  />
<polygon points="236,35 241,30 271,30 271,40 241,40 236,35 " style="fill:#d815d8; stroke-width:1; stroke:black; " description="&lt;b&gt;ctg2_231&lt;/b&gt;&lt;br&gt;ctg2 231&lt;br&gt;Location: 248860 - 250024" locus_tag="ctg2_231" class="clusterblast-orf" id="dummy-2_q7_0_all"  />
<polygon points="277,40 322,40 327,35 322,30 277,30 277,40 " style="fill:#d89715; stroke-width:1; stroke:black; " description="&lt;b&gt;ctg2_232&lt;/b&gt;&lt;br&gt;ctg2 232&lt;br&gt;Location: 250189 - 251818" locus_tag="ctg2_232" class="clusterblast-orf" id="dummy-2_q8_0_all"  />
<polygon points="329,40 488,40 493,35 488,30 329,30 329,40 " style="fill:#15d856; stroke-width:1; stroke:black; " description="&lt;b&gt;ctg2_233&lt;/b&gt;&lt;br&gt;ctg2 233&lt;br&gt;Location: 251885 - 257222" locus_tag="ctg2_233" class="clusterblast-orf" id="dummy-2_q9_0_all"  />
<polygon points="510,35 515,30 538,30 538,40 515,40 510,35 " style="fill:#1515d8; stroke-width:1; stroke:black; " description="&lt;b&gt;ctg2_234&lt;/b&gt;&lt;br&gt;ctg2 234&lt;br&gt;Location: 257770 - 258670" locus_tag="ctg2_234" class="clusterblast-orf" id="dummy-2_q10_0_all"  />
<polygon points="538,35 543,30 551,30 551,40 543,40 538,35 " style="fill:#d81597; stroke-width:1; stroke:black; " description="&lt;b&gt;ctg2_235&lt;/b&gt;&lt;br&gt;ctg2 235&lt;br&gt;Location: 258687 - 259080" locus_tag="ctg2_235" class="clusterblast-orf" id="dummy-2_q11_0_all"  />
<polygon points="554,35 559,30 582,30 582,40 559,40 554,35 " style="fill:#d8d815; stroke-width:1; stroke:black; " description="&lt;b&gt;ctg2_236&lt;/b&gt;&lt;br&gt;ctg2 236&lt;br&gt;Location: 259179 - 260115" locus_tag="ctg2_236" class="clusterblast-orf" id="dummy-2_q12_0_all"  />
<polygon points="588,40 620,40 625,35 620,30 588,30 588,40 " style="fill:#15d897; stroke-width:1; stroke:black; " description="&lt;b&gt;ctg2_237&lt;/b&gt;&lt;br&gt;ctg2 237&lt;br&gt;Location: 260281 - 261511" locus_tag="ctg2_237" class="clusterblast-orf" id="dummy-2_q13_0_all"  />
<polygon points="629,35 634,30 670,30 670,40 634,40 629,35 " style="fill:#5615d8; stroke-width:1; stroke:black; " description="&lt;b&gt;ctg2_238&lt;/b&gt;&lt;br&gt;ctg2 238&lt;br&gt;Location: 261640 - 262969" locus_tag="ctg2_238" class="clusterblast-orf" id="dummy-2_q14_0_all"  />
<polygon points="674,35 679,30 699,30 699,40 679,40 674,35 " style="fill:#d81556; stroke-width:1; stroke:black; " description="&lt;b&gt;ctg2_239&lt;/b&gt;&lt;br&gt;ctg2 239&lt;br&gt;Location: 263096 - 263909" locus_tag="ctg2_239" class="clusterblast-orf" id="dummy-2_q15_0_all"  />
<polygon points="705,40 720,40 725,35 720,30 705,30 705,40 " style="fill:#97d815; stroke-width:1; stroke:black; " description="&lt;b&gt;ctg2_240&lt;/b&gt;&lt;br&gt;ctg2 240&lt;br&gt;Location: 264077 - 264728" locus_tag="ctg2_240" class="clusterblast-orf" id="dummy-2_q16_0_all"  />
<polygon points="727,40 775,40 780,35 775,30 727,30 727,40 " style="fill:#15d8d8; stroke-width:1; stroke:black; " description="&lt;b&gt;ctg2_241&lt;/b&gt;&lt;br&gt;ctg2 241&lt;br&gt;Location: 264822 - 266520" locus_tag="ctg2_241" class="clusterblast-orf" id="dummy-2_q17_0_all"  />
</g>
<g label="NZ_JACAOY010000027" description="NZ_JACAOY010000027 (77016-105337): Pseudomonas sp. B6002 run0228 B6002 S26 L0... (100% of genes show similarity), betalactone" class="clusterblast-cluster"  >
<text x="5" y="70" class="clusterblast-acc"  >
<a xlink:href="https://antismash-db.secondarymetabolites.org/area.html?record=NZ_JACAOY010000027&amp;start=77016&amp;end=105337" target="_blank">NZ_JACAOY010000027 (77016-105337)</a>: Pseudomonas sp. B6002 run0228 B6002 S26 L0... (100% of genes show similarity), betalactone</text>
<line x1="10" y1="85" x2="778.0" y2="85" style="stroke-width:1; stroke:grey; "  />
</g>
<g id="a2_000"  >
<polygon points="0,90 12,90 17,85 12,80 0,80 0,90 " style="fill:#d81515; stroke-width:1; stroke:black; " description="&lt;b&gt;HX792_RS26640&lt;/b&gt;&lt;br&gt;cytochrome b&lt;br&gt;Location: 104378 - 103839&lt;br&gt;&lt;br&gt;&lt;b&gt;BlastP hit with ctg2_224&lt;/b&gt;&lt;br&gt;Percentage identity: 95&lt;br&gt;Percentage coverage: 99&lt;br&gt;BLAST bit score: 323&lt;br&gt;E-value: 6.85e-113" locus_tag="HX792_RS26640" class="clusterblast-orf" id="dummy-2_h2_8_0"  />
</g>
<g id="a2_001"  >
<polygon points="19,85 24,80 55,80 55,90 24,90 19,85 " style="fill:#56d815; stroke-width:1; stroke:black; " description="&lt;b&gt;HX792_RS26635&lt;/b&gt;&lt;br&gt;carboxypeptidase family protein&lt;br&gt;Location: 103746 - 102595&lt;br&gt;&lt;br&gt;&lt;b&gt;BlastP hit with ctg2_225&lt;/b&gt;&lt;br&gt;Percentage identity: 95&lt;br&gt;Percentage coverage: 100&lt;br&gt;BLAST bit score: 736&lt;br&gt;E-value: 1.27e-269" locus_tag="HX792_RS26635" class="clusterblast-orf" id="dummy-2_h2_8_1"  />
</g>
<g id="a2_002"  >
<polygon points="69,85 74,80 80,80 80,90 74,90 69,85 " style="fill:#1597d8; stroke-width:1; stroke:black; " description="&lt;b&gt;HX792_RS26630&lt;/b&gt;&lt;br&gt;DUF3077 domain-containing protein&lt;br&gt;Location: 102130 - 101780&lt;br&gt;&lt;br&gt;&lt;b&gt;BlastP hit with ctg2_226&lt;/b&gt;&lt;br&gt;Percentage identity: 75&lt;br&gt;Percentage coverage: 98&lt;br&gt;BLAST bit score: 157&lt;br&gt;E-value: 4.57e-49" locus_tag="HX792_RS26630" class="clusterblast-orf" id="dummy-2_h2_8_2"  />
</g>
<g id="a2_003"  >
<polygon points="84,90 99,90 104,85 99,80 84,80 84,90 " style="fill:#9715d8; stroke-width:1; stroke:black; " description="&lt;b&gt;HX792_RS26625&lt;/b&gt;&lt;br&gt;helix-turn-helix domain-containing protein&lt;br&gt;Location: 101649 - 101011&lt;br&gt;&lt;br&gt;&lt;b&gt;BlastP hit with ctg2_227&lt;/b&gt;&lt;br&gt;Percentage identity: 82&lt;br&gt;Percentage coverage: 100&lt;br&gt;BLAST bit score: 356&lt;br&gt;E-value: 8.79e-125" locus_tag="HX792_RS26625" class="clusterblast-orf" id="dummy-2_h2_8_3"  />
</g>
<g id="a2_004"  >
<polygon points="104,85 109,80 163,80 163,90 109,90 104,85 " style="fill:#d85615; stroke-width:1; stroke:black; " description="&lt;b&gt;HX792_RS26620&lt;/b&gt;&lt;br&gt;acetyl/propionyl/methylcrotonyl-CoA carboxylase subunit alpha&lt;br&gt;Location: 101014 - 99089&lt;br&gt;&lt;br&gt;&lt;b&gt;BlastP hit with ctg2_228&lt;/b&gt;&lt;br&gt;Percentage identity: 93&lt;br&gt;Percentage coverage: 95&lt;br&gt;BLAST bit score: 1100&lt;br&gt;E-value: 0.0" locus_tag="HX792_RS26620" class="clusterblast-orf" id="dummy-2_h2_8_4"  />
</g>
<g id="a2_005"  >
<polygon points="163,85 168,80 188,80 188,90 168,90 163,85 " style="fill:#15d815; stroke-width:1; stroke:black; " description="&lt;b&gt;HX792_RS26615&lt;/b&gt;&lt;br&gt;gamma-carboxygeranoyl-CoA hydratase&lt;br&gt;Location: 99092 - 98286&lt;br&gt;&lt;br&gt;&lt;b&gt;BlastP hit with ctg2_229&lt;/b&gt;&lt;br&gt;Percentage identity: 93&lt;br&gt;Percentage coverage: 100&lt;br&gt;BLAST bit score: 491&lt;br&gt;E-value: 2.11e-176" locus_tag="HX792_RS26615" class="clusterblast-orf" id="dummy-2_h2_8_5"  />
</g>
<g id="a2_006"  >
<polygon points="188,85 193,80 238,80 238,90 193,90 188,85 " style="fill:#1556d8; stroke-width:1; stroke:black; " description="&lt;b&gt;HX792_RS26610&lt;/b&gt;&lt;br&gt;methylcrotonoyl-CoA carboxylase&lt;br&gt;Location: 98270 - 96663&lt;br&gt;&lt;br&gt;&lt;b&gt;BlastP hit with ctg2_230&lt;/b&gt;&lt;br&gt;Percentage identity: 98&lt;br&gt;Percentage coverage: 100&lt;br&gt;BLAST bit score: 1050&lt;br&gt;E-value: 0.0" locus_tag="HX792_RS26610" class="clusterblast-orf" id="dummy-2_h2_8_6"  />
</g>
<g id="a2_007"  >
<polygon points="238,85 243,80 274,80 274,90 243,90 238,85 " style="fill:#d815d8; stroke-width:1; stroke:black; " description="&lt;b&gt;HX792_RS26605&lt;/b&gt;&lt;br&gt;isovaleryl-CoA dehydrogenase&lt;br&gt;Location: 96651 - 95488&lt;br&gt;&lt;br&gt;&lt;b&gt;BlastP hit with ctg2_231&lt;/b&gt;&lt;br&gt;Percentage identity: 95&lt;br&gt;Percentage coverage: 100&lt;br&gt;BLAST bit score: 744&lt;br&gt;E-value: 1.56e-272" locus_tag="HX792_RS26605" class="clusterblast-orf" id="dummy-2_h2_8_7"  />
</g>
<g id="a2_008"  >
<polygon points="279,90 324,90 329,85 324,80 279,80 279,90 " style="fill:#d89715; stroke-width:1; stroke:black; " description="&lt;b&gt;HX792_RS26600&lt;/b&gt;&lt;br&gt;AMP-binding protein&lt;br&gt;Location: 95337 - 93703&lt;br&gt;&lt;br&gt;&lt;b&gt;BlastP hit with ctg2_232&lt;/b&gt;&lt;br&gt;Percentage identity: 93&lt;br&gt;Percentage coverage: 100&lt;br&gt;BLAST bit score: 1061&lt;br&gt;E-value: 0.0" locus_tag="HX792_RS26600" class="clusterblast-orf" id="dummy-2_h2_8_8"  />
</g>
<g id="a2_009"  >
<polygon points="331,90 485,90 490,85 485,80 331,80 331,90 " style="fill:#15d856; stroke-width:1; stroke:black; " description="&lt;b&gt;HX792_RS26595&lt;/b&gt;&lt;br&gt;hypothetical protein&lt;br&gt;Location: 93621 - 88465&lt;br&gt;&lt;br&gt;&lt;b&gt;BlastP hit with ctg2_233&lt;/b&gt;&lt;br&gt;Percentage identity: 32&lt;br&gt;Percentage coverage: 98&lt;br&gt;BLAST bit score: 747&lt;br&gt;E-value: 1.51e-236" locus_tag="HX792_RS26595" class="clusterblast-orf" id="dummy-2_h2_8_9"  />
</g>
<g id="a2_0010"  >
<polygon points="507,85 512,80 535,80 535,90 512,90 507,85 " style="fill:#1515d8; stroke-width:1; stroke:black; " description="&lt;b&gt;HX792_RS26590&lt;/b&gt;&lt;br&gt;hydroxymethylglutaryl-CoA lyase&lt;br&gt;Location: 87916 - 87017&lt;br&gt;&lt;br&gt;&lt;b&gt;BlastP hit with ctg2_234&lt;/b&gt;&lt;br&gt;Percentage identity: 93&lt;br&gt;Percentage coverage: 100&lt;br&gt;BLAST bit score: 547&lt;br&gt;E-value: 1.28e-197" locus_tag="HX792_RS26590" class="clusterblast-orf" id="dummy-2_h2_8_10"  />
</g>
<g id="a2_0011"  >
<polygon points="536,85 541,80 548,80 548,90 541,90 536,85 " style="fill:#d81597; stroke-width:1; stroke:black; " description="&lt;b&gt;HX792_RS26585&lt;/b&gt;&lt;br&gt;MerR family DNA-binding transcriptional regulator&lt;br&gt;Location: 87000 - 86608&lt;br&gt;&lt;br&gt;&lt;b&gt;BlastP hit with ctg2_235&lt;/b&gt;&lt;br&gt;Percentage identity: 98&lt;br&gt;Percentage coverage: 99&lt;br&gt;BLAST bit score: 239&lt;br&gt;E-value: 3.03e-81" locus_tag="HX792_RS26585" class="clusterblast-orf" id="dummy-2_h2_8_11"  />
</g>
<g id="a2_0012"  >
<polygon points="553,85 558,80 582,80 582,90 558,90 553,85 " style="fill:#d8d815; stroke-width:1; stroke:black; " description="&lt;b&gt;HX792_RS26580&lt;/b&gt;&lt;br&gt;LysR family transcriptional regulator&lt;br&gt;Location: 86424 - 85489&lt;br&gt;&lt;br&gt;&lt;b&gt;BlastP hit with ctg2_236&lt;/b&gt;&lt;br&gt;Percentage identity: 98&lt;br&gt;Percentage coverage: 100&lt;br&gt;BLAST bit score: 609&lt;br&gt;E-value: 1.33e-221" locus_tag="HX792_RS26580" class="clusterblast-orf" id="dummy-2_h2_8_12"  />
</g>
<g id="a2_0013"  >
<polygon points="587,90 620,90 625,85 620,80 587,80 587,90 " style="fill:#15d897; stroke-width:1; stroke:black; " description="&lt;b&gt;HX792_RS26575&lt;/b&gt;&lt;br&gt;acyl-CoA dehydrogenase&lt;br&gt;Location: 85337 - 84108&lt;br&gt;&lt;br&gt;&lt;b&gt;BlastP hit with ctg2_237&lt;/b&gt;&lt;br&gt;Percentage identity: 99&lt;br&gt;Percentage coverage: 100&lt;br&gt;BLAST bit score: 818&lt;br&gt;E-value: 6.71e-301" locus_tag="HX792_RS26575" class="clusterblast-orf" id="dummy-2_h2_8_13"  />
</g>
<g id="a2_0014"  >
<polygon points="628,85 633,80 669,80 669,90 633,90 628,85 " style="fill:#5615d8; stroke-width:1; stroke:black; " description="&lt;b&gt;HX792_RS26570&lt;/b&gt;&lt;br&gt;substrate-binding domain-containing protein&lt;br&gt;Location: 84003 - 82672&lt;br&gt;&lt;br&gt;&lt;b&gt;BlastP hit with ctg2_238&lt;/b&gt;&lt;br&gt;Percentage identity: 89&lt;br&gt;Percentage coverage: 100&lt;br&gt;BLAST bit score: 759&lt;br&gt;E-value: 1.87e-276" locus_tag="HX792_RS26570" class="clusterblast-orf" id="dummy-2_h2_8_14"  />
</g>
<g id="a2_0015"  >
<polygon points="673,85 678,80 699,80 699,90 678,90 673,85 " style="fill:#d81556; stroke-width:1; stroke:black; " description="&lt;b&gt;HX792_RS26565&lt;/b&gt;&lt;br&gt;exodeoxyribonuclease III&lt;br&gt;Location: 82523 - 81711&lt;br&gt;&lt;br&gt;&lt;b&gt;BlastP hit with ctg2_239&lt;/b&gt;&lt;br&gt;Percentage identity: 95&lt;br&gt;Percentage coverage: 100&lt;br&gt;BLAST bit score: 543&lt;br&gt;E-value: 6.47e-197" locus_tag="HX792_RS26565" class="clusterblast-orf" id="dummy-2_h2_8_15"  />
</g>
<g id="a2_0016"  >
<polygon points="704,90 719,90 724,85 719,80 704,80 704,90 " style="fill:#97d815; stroke-width:1; stroke:black; " description="&lt;b&gt;HX792_RS26560&lt;/b&gt;&lt;br&gt;GNAT family N-acetyltransferase&lt;br&gt;Location: 81541 - 80891&lt;br&gt;&lt;br&gt;&lt;b&gt;BlastP hit with ctg2_240&lt;/b&gt;&lt;br&gt;Percentage identity: 93&lt;br&gt;Percentage coverage: 100&lt;br&gt;BLAST bit score: 427&lt;br&gt;E-value: 5.52e-153" locus_tag="HX792_RS26560" class="clusterblast-orf" id="dummy-2_h2_8_16"  />
</g>
<g id="a2_0017"  >
<polygon points="726,90 774,90 779,85 774,80 726,80 726,90 " style="fill:#15d8d8; stroke-width:1; stroke:black; " description="&lt;b&gt;HX792_RS26555&lt;/b&gt;&lt;br&gt;outer membrane protein assembly factor&lt;br&gt;Location: 80826 - 79099&lt;br&gt;&lt;br&gt;&lt;b&gt;BlastP hit with ctg2_241&lt;/b&gt;&lt;br&gt;Percentage identity: 94&lt;br&gt;Percentage coverage: 100&lt;br&gt;BLAST bit score: 1089&lt;br&gt;E-value: 0.0" locus_tag="HX792_RS26555" class="clusterblast-orf" id="dummy-2_h2_8_17"  />
</g>
</svg>
