<svg xmlns="http://www.w3.org/2000/svg" xmlns:xlink="http://www.w3.org/1999/xlink" version="1.1" x="0" y="0" height="230" width="800" viewBox="0 0 800 230" preserveAspectRatio="none"  >
<g label="Query sequence" class="clusterblast-cluster"  >
<text x="5" y="20" class="clusterblast-acc"  >
Query sequence</text>
<line x1="10" y1="35" x2="778.0" y2="35" style="stroke-width:1; stroke:grey; "  />
<polygon points="156,40 161,40 166,35 161,30 156,30 156,40 " style="fill:#d81515; stroke-width:1; stroke:black; " description="&lt;b&gt;ctg19_9&lt;/b&gt;&lt;br&gt;ctg19 9&lt;br&gt;Location: 11156 - 12551" locus_tag="ctg19_9" class="clusterblast-orf" id="dummy-1_q0_0_all"  />
<polygon points="167,35 170,30 170,40 167,35 " style="fill:#77d815; stroke-width:1; stroke:black; " description="&lt;b&gt;ctg19_10&lt;/b&gt;&lt;br&gt;ctg19 10&lt;br&gt;Location: 12678 - 13032" locus_tag="ctg19_10" class="clusterblast-orf" id="dummy-1_q1_0_all"  />
<polygon points="170,35 175,30 176,30 176,40 175,40 170,35 " style="fill:#15d8d8; stroke-width:1; stroke:black; " description="&lt;b&gt;ctg19_11&lt;/b&gt;&lt;br&gt;ctg19 11&lt;br&gt;Location: 13116 - 13914" locus_tag="ctg19_11" class="clusterblast-orf" id="dummy-1_q2_0_all"  />
<polygon points="176,35 181,30 184,30 184,40 181,40 176,35 " style="fill:#7715d8; stroke-width:1; stroke:black; " description="&lt;b&gt;ctg19_12&lt;/b&gt;&lt;br&gt;ctg19 12&lt;br&gt;Location: 13929 - 14934" locus_tag="ctg19_12" class="clusterblast-orf" id="dummy-1_q3_0_all"  />
<polygon points="185,40 187,40 192,35 187,30 185,30 185,40 " style="fill:#d83f15; stroke-width:1; stroke:black; " description="&lt;b&gt;ctg19_13&lt;/b&gt;&lt;br&gt;ctg19 13&lt;br&gt;Location: 15047 - 15941" locus_tag="ctg19_13" class="clusterblast-orf" id="dummy-1_q4_0_all"  />
<polygon points="192,35 197,30 202,30 202,40 197,40 192,35 " style="fill:#4dd815; stroke-width:1; stroke:black; " description="&lt;b&gt;ctg19_14&lt;/b&gt;&lt;br&gt;ctg19 14&lt;br&gt;Location: 16053 - 17349" locus_tag="ctg19_14" class="clusterblast-orf" id="dummy-1_q5_0_all"  />
<polygon points="202,35 207,30 210,30 210,40 207,40 202,35 " style="fill:#15aed8; stroke-width:1; stroke:black; " description="&lt;b&gt;ctg19_15&lt;/b&gt;&lt;br&gt;ctg19 15&lt;br&gt;Location: 17345 - 18434" locus_tag="ctg19_15" class="clusterblast-orf" id="dummy-1_q6_0_all"  />
<polygon points="210,35 215,30 221,30 221,40 215,40 210,35 " style="fill:#a115d8; stroke-width:1; stroke:black; " description="&lt;b&gt;ctg19_16&lt;/b&gt;&lt;br&gt;ctg19 16&lt;br&gt;Location: 18456 - 19815" locus_tag="ctg19_16" class="clusterblast-orf" id="dummy-1_q7_0_all"  />
<polygon points="222,40 224,40 229,35 224,30 222,30 222,40 " style="fill:#d86915; stroke-width:1; stroke:black; " description="&lt;b&gt;ctg19_17&lt;/b&gt;&lt;br&gt;ctg19 17&lt;br&gt;Location: 20052 - 20850" locus_tag="ctg19_17" class="clusterblast-orf" id="dummy-1_q8_0_all"  />
<polygon points="229,40 240,40 245,35 240,30 229,30 229,40 " style="fill:#23d815; stroke-width:1; stroke:black; " description="&lt;b&gt;ctg19_18&lt;/b&gt;&lt;br&gt;ctg19 18&lt;br&gt;Location: 20955 - 23097" locus_tag="ctg19_18" class="clusterblast-orf" id="dummy-1_q9_0_all"  />
<polygon points="245,35 250,30 254,30 254,40 250,40 245,35 " style="fill:#1585d8; stroke-width:1; stroke:black; " description="&lt;b&gt;ctg19_19&lt;/b&gt;&lt;br&gt;ctg19 19&lt;br&gt;Location: 23086 - 24217" locus_tag="ctg19_19" class="clusterblast-orf" id="dummy-1_q10_0_all"  />
<polygon points="255,40 255,40 260,35 255,30 255,30 255,40 " style="fill:#ca15d8; stroke-width:1; stroke:black; " description="&lt;b&gt;ctg19_20&lt;/b&gt;&lt;br&gt;ctg19 20&lt;br&gt;Location: 24315 - 25086" locus_tag="ctg19_20" class="clusterblast-orf" id="dummy-1_q11_0_all"  />
<polygon points="261,35 265,30 265,40 261,35 " style="fill:#d89315; stroke-width:1; stroke:black; " description="&lt;b&gt;ctg19_21&lt;/b&gt;&lt;br&gt;ctg19 21&lt;br&gt;Location: 25164 - 25635" locus_tag="ctg19_21" class="clusterblast-orf" id="dummy-1_q12_0_all"  />
<polygon points="265,40 270,40 275,35 270,30 265,30 265,40 " style="fill:#15d831; stroke-width:1; stroke:black; " description="&lt;b&gt;ctg19_22&lt;/b&gt;&lt;br&gt;ctg19 22&lt;br&gt;Location: 25758 - 27003" locus_tag="ctg19_22" class="clusterblast-orf" id="dummy-1_q13_0_all"  />
<polygon points="277,40 277,40 282,35 277,30 277,30 277,40 " style="fill:#155bd8; stroke-width:1; stroke:black; " description="&lt;b&gt;ctg19_23&lt;/b&gt;&lt;br&gt;ctg19 23&lt;br&gt;Location: 27235 - 27913" locus_tag="ctg19_23" class="clusterblast-orf" id="dummy-1_q14_0_all"  />
<polygon points="283,35 288,30 297,30 297,40 288,40 283,35 " style="fill:#d815bc; stroke-width:1; stroke:black; " description="&lt;b&gt;ctg19_24&lt;/b&gt;&lt;br&gt;ctg19 24&lt;br&gt;Location: 28040 - 29999" locus_tag="ctg19_24" class="clusterblast-orf" id="dummy-1_q15_0_all"  />
<polygon points="297,35 302,30 306,30 306,40 302,40 297,35 " style="fill:#d8bc15; stroke-width:1; stroke:black; " description="&lt;b&gt;ctg19_25&lt;/b&gt;&lt;br&gt;ctg19 25&lt;br&gt;Location: 30002 - 31145" locus_tag="ctg19_25" class="clusterblast-orf" id="dummy-1_q16_0_all"  />
<polygon points="306,35 311,30 391,30 391,40 311,40 306,35 " style="fill:#15d85b; stroke-width:1; stroke:black; " description="&lt;b&gt;ctg19_26&lt;/b&gt;&lt;br&gt;ctg19 26&lt;br&gt;Location: 31141 - 42478" locus_tag="ctg19_26" class="clusterblast-orf" id="dummy-1_q17_0_all"  />
<polygon points="391,35 396,30 488,30 488,40 396,40 391,35 " style="fill:#15d85b; stroke-width:1; stroke:black; " description="&lt;b&gt;ctg19_27&lt;/b&gt;&lt;br&gt;ctg19 27&lt;br&gt;Location: 42474 - 55386" locus_tag="ctg19_27" class="clusterblast-orf" id="dummy-1_q18_0_all"  />
<polygon points="490,35 494,30 494,40 490,35 " style="fill:#1531d8; stroke-width:1; stroke:black; " description="&lt;b&gt;ctg19_28&lt;/b&gt;&lt;br&gt;ctg19 28&lt;br&gt;Location: 55595 - 56141" locus_tag="ctg19_28" class="clusterblast-orf" id="dummy-1_q19_0_all"  />
<polygon points="495,35 500,30 503,30 503,40 500,40 495,35 " style="fill:#d81593; stroke-width:1; stroke:black; " description="&lt;b&gt;ctg19_29&lt;/b&gt;&lt;br&gt;ctg19 29&lt;br&gt;Location: 56260 - 57259" locus_tag="ctg19_29" class="clusterblast-orf" id="dummy-1_q20_0_all"  />
<polygon points="503,35 508,30 531,30 531,40 508,40 503,35 " style="fill:#d81593; stroke-width:1; stroke:black; " description="&lt;b&gt;ctg19_30&lt;/b&gt;&lt;br&gt;ctg19 30&lt;br&gt;Location: 57258 - 61020" locus_tag="ctg19_30" class="clusterblast-orf" id="dummy-1_q21_0_all"  />
<polygon points="531,35 536,30 539,30 539,40 536,40 531,35 " style="fill:#cad815; stroke-width:1; stroke:black; " description="&lt;b&gt;ctg19_31&lt;/b&gt;&lt;br&gt;ctg19 31&lt;br&gt;Location: 61023 - 62085" locus_tag="ctg19_31" class="clusterblast-orf" id="dummy-1_q22_0_all"  />
<polygon points="549,40 551,35 549,30 549,40 " style="fill:#15d885; stroke-width:1; stroke:black; " description="&lt;b&gt;ctg19_32&lt;/b&gt;&lt;br&gt;ctg19 32&lt;br&gt;Location: 63468 - 63657" locus_tag="ctg19_32" class="clusterblast-orf" id="dummy-1_q23_0_all"  />
<polygon points="551,40 551,40 556,35 551,30 551,30 551,40 " style="fill:#2315d8; stroke-width:1; stroke:black; " description="&lt;b&gt;ctg19_33&lt;/b&gt;&lt;br&gt;ctg19 33&lt;br&gt;Location: 63668 - 64373" locus_tag="ctg19_33" class="clusterblast-orf" id="dummy-1_q24_0_all"  />
<polygon points="556,40 559,35 556,30 556,40 " style="fill:#d81569; stroke-width:1; stroke:black; " description="&lt;b&gt;ctg19_34&lt;/b&gt;&lt;br&gt;ctg19 34&lt;br&gt;Location: 64369 - 64762" locus_tag="ctg19_34" class="clusterblast-orf" id="dummy-1_q25_0_all"  />
<polygon points="560,40 560,40 565,35 560,30 560,30 560,40 " style="fill:#a1d815; stroke-width:1; stroke:black; " description="&lt;b&gt;ctg19_35&lt;/b&gt;&lt;br&gt;ctg19 35&lt;br&gt;Location: 64832 - 65579" locus_tag="ctg19_35" class="clusterblast-orf" id="dummy-1_q26_0_all"  />
<polygon points="567,35 571,30 571,40 567,35 " style="fill:#15d8ae; stroke-width:1; stroke:black; " description="&lt;b&gt;ctg19_36&lt;/b&gt;&lt;br&gt;ctg19 36&lt;br&gt;Location: 65780 - 66365" locus_tag="ctg19_36" class="clusterblast-orf" id="dummy-1_q27_0_all"  />
<polygon points="577,35 582,30 594,30 594,40 582,40 577,35 " style="fill:#4d15d8; stroke-width:1; stroke:black; " description="&lt;b&gt;ctg19_37&lt;/b&gt;&lt;br&gt;ctg19 37&lt;br&gt;Location: 67167 - 69462" locus_tag="ctg19_37" class="clusterblast-orf" id="dummy-1_q28_0_all"  />
<polygon points="596,40 619,40 624,35 619,30 596,30 596,40 " style="fill:#d8153f; stroke-width:1; stroke:black; " description="&lt;b&gt;ctg19_38&lt;/b&gt;&lt;br&gt;ctg19 38&lt;br&gt;Location: 69626 - 73337" locus_tag="ctg19_38" class="clusterblast-orf" id="dummy-1_q29_0_all"  />
</g>
<g label="NZ_CP019428" description="NZ_CP019428 (2841935-2945551): Pseudomonas sp. R76 chromosome, complete genome (40% of genes show similarity), NRPS" class="clusterblast-cluster"  >
<text x="5" y="70" class="clusterblast-acc"  >
<a xlink:href="https://antismash-db.secondarymetabolites.org/area.html?record=NZ_CP019428&amp;start=2841935&amp;end=2945551" target="_blank">NZ_CP019428 (2841935-2945551)</a>: Pseudomonas sp. R76 chromosome, complete genome (40% of genes show similarity), NRPS</text>
<line x1="10" y1="85" x2="778.0" y2="85" style="stroke-width:1; stroke:grey; "  />
</g>
<g id="a1_000"  >
<polygon points="0,85 5,80 6,80 6,90 5,90 0,85 " style="fill:white; stroke-width:1; stroke:black; " description="&lt;b&gt;PspR76_RS13380&lt;/b&gt;&lt;br&gt;DUF2797 domain-containing protein&lt;br&gt;Location: 2945551 - 2944721" locus_tag="PspR76_RS13380" class="clusterblast-orf" id="dummy-1_h1_10_0"  />
</g>
<g id="a1_001"  >
<polygon points="6,85 8,80 8,90 6,85 " style="fill:white; stroke-width:1; stroke:black; " description="&lt;b&gt;PspR76_RS13375&lt;/b&gt;&lt;br&gt;DUF1315 family protein&lt;br&gt;Location: 2944724 - 2944464" locus_tag="PspR76_RS13375" class="clusterblast-orf" id="dummy-1_h1_10_1"  />
</g>
<g id="a1_002"  >
<polygon points="8,85 13,80 15,80 15,90 13,90 8,85 " style="fill:white; stroke-width:1; stroke:black; " description="&lt;b&gt;PspR76_RS13370&lt;/b&gt;&lt;br&gt;tetratricopeptide repeat protein&lt;br&gt;Location: 2944384 - 2943461" locus_tag="PspR76_RS13370" class="clusterblast-orf" id="dummy-1_h1_10_2"  />
</g>
<g id="a1_003"  >
<polygon points="15,85 19,80 19,90 15,85 " style="fill:white; stroke-width:1; stroke:black; " description="&lt;b&gt;PspR76_RS13365&lt;/b&gt;&lt;br&gt;hypothetical protein&lt;br&gt;Location: 2943461 - 2942976" locus_tag="PspR76_RS13365" class="clusterblast-orf" id="dummy-1_h1_10_3"  />
</g>
<g id="a1_004"  >
<polygon points="19,85 24,80 29,80 29,90 24,90 19,85 " style="fill:white; stroke-width:1; stroke:black; " description="&lt;b&gt;PspR76_RS13360&lt;/b&gt;&lt;br&gt;AAA family ATPase&lt;br&gt;Location: 2942976 - 2941627" locus_tag="PspR76_RS13360" class="clusterblast-orf" id="dummy-1_h1_10_4"  />
</g>
<g id="a1_005"  >
<polygon points="29,85 34,80 37,80 37,90 34,90 29,85 " style="fill:white; stroke-width:1; stroke:black; " description="&lt;b&gt;PspR76_RS13355&lt;/b&gt;&lt;br&gt;metallophosphoesterase&lt;br&gt;Location: 2941588 - 2940614" locus_tag="PspR76_RS13355" class="clusterblast-orf" id="dummy-1_h1_10_5"  />
</g>
<g id="a1_006"  >
<polygon points="37,85 42,80 43,80 43,90 42,90 37,85 " style="fill:white; stroke-width:1; stroke:black; " description="&lt;b&gt;PspR76_RS13350&lt;/b&gt;&lt;br&gt;NAD(+) kinase&lt;br&gt;Location: 2940617 - 2939727" locus_tag="PspR76_RS13350" class="clusterblast-orf" id="dummy-1_h1_10_6"  />
</g>
<g id="a1_007"  >
<polygon points="44,90 47,90 52,85 47,80 44,80 44,90 " style="fill:white; stroke-width:1; stroke:black; " description="&lt;b&gt;PspR76_RS13345&lt;/b&gt;&lt;br&gt;DUF1853 family protein&lt;br&gt;Location: 2939582 - 2938635" locus_tag="PspR76_RS13345" class="clusterblast-orf" id="dummy-1_h1_10_7"  />
</g>
<g id="a1_008"  >
<polygon points="52,85 57,80 64,80 64,90 57,90 52,85 " style="fill:white; stroke-width:1; stroke:black; " description="&lt;b&gt;PspR76_RS13340&lt;/b&gt;&lt;br&gt;PvdJ/PvdD/PvdP-like protein&lt;br&gt;Location: 2938642 - 2937023" locus_tag="PspR76_RS13340" class="clusterblast-orf" id="dummy-1_h1_10_8"  />
</g>
<g id="a1_009"  >
<polygon points="65,90 70,90 75,85 70,80 65,80 65,90 " style="fill:white; stroke-width:1; stroke:black; " description="&lt;b&gt;PspR76_RS13335&lt;/b&gt;&lt;br&gt;pyoverdine-tailoring dipeptidase-like protein PvdM&lt;br&gt;Location: 2936880 - 2935531" locus_tag="PspR76_RS13335" class="clusterblast-orf" id="dummy-1_h1_10_9"  />
</g>
<g id="a1_0010"  >
<polygon points="75,90 80,90 85,85 80,80 75,80 75,90 " style="fill:white; stroke-width:1; stroke:black; " description="&lt;b&gt;PspR76_RS13330&lt;/b&gt;&lt;br&gt;aminotransferase class V-fold PLP-dependent enzyme&lt;br&gt;Location: 2935512 - 2934232" locus_tag="PspR76_RS13330" class="clusterblast-orf" id="dummy-1_h1_10_10"  />
</g>
<g id="a1_0011"  >
<polygon points="85,90 87,90 92,85 87,80 85,80 85,90 " style="fill:white; stroke-width:1; stroke:black; " description="&lt;b&gt;PspR76_RS13325&lt;/b&gt;&lt;br&gt;SUMF1/EgtB/PvdO family nonheme iron enzyme&lt;br&gt;Location: 2934199 - 2933327" locus_tag="PspR76_RS13325" class="clusterblast-orf" id="dummy-1_h1_10_11"  />
</g>
<g id="a1_0012"  >
<polygon points="96,85 101,80 102,80 102,90 101,90 96,85 " style="fill:white; stroke-width:1; stroke:black; " description="&lt;b&gt;PspR76_RS13320&lt;/b&gt;&lt;br&gt;N(5)-hydroxyornithine transformylase PvdF&lt;br&gt;Location: 2932699 - 2931872" locus_tag="PspR76_RS13320" class="clusterblast-orf" id="dummy-1_h1_10_12"  />
</g>
<g id="a1_0013"  >
<polygon points="104,90 111,90 116,85 111,80 104,80 104,90 " style="fill:white; stroke-width:1; stroke:black; " description="&lt;b&gt;PspR76_RS13315&lt;/b&gt;&lt;br&gt;cyclic peptide export ABC transporter&lt;br&gt;Location: 2931682 - 2930030" locus_tag="PspR76_RS13315" class="clusterblast-orf" id="dummy-1_h1_10_13"  />
</g>
<g id="a1_0014"  >
<polygon points="117,90 131,90 136,85 131,80 117,80 117,90 " style="fill:white; stroke-width:1; stroke:black; " description="&lt;b&gt;PspR76_RS13310&lt;/b&gt;&lt;br&gt;TonB-dependent siderophore receptor&lt;br&gt;Location: 2929920 - 2927479" locus_tag="PspR76_RS13310" class="clusterblast-orf" id="dummy-1_h1_10_14"  />
</g>
<g id="a1_0015"  >
<polygon points="138,85 143,80 227,80 227,90 143,90 138,85 " style="fill:#15d85b; stroke-width:1; stroke:black; " description="&lt;b&gt;PspR76_RS13305&lt;/b&gt;&lt;br&gt;non-ribosomal peptide synthase/polyketide synthase&lt;br&gt;Location: 2927209 - 2915342&lt;br&gt;&lt;br&gt;&lt;b&gt;BlastP hit with ctg19_26&lt;/b&gt;&lt;br&gt;Percentage identity: 32&lt;br&gt;Percentage coverage: 101&lt;br&gt;BLAST bit score: 1570&lt;br&gt;E-value: 0.0&lt;br&gt;&lt;br&gt;&lt;b&gt;BlastP hit with ctg19_27&lt;/b&gt;&lt;br&gt;Percentage identity: 32&lt;br&gt;Percentage coverage: 86&lt;br&gt;BLAST bit score: 1410&lt;br&gt;E-value: 0.0" locus_tag="PspR76_RS13305" class="clusterblast-orf" id="dummy-1_h1_10_15"  />
</g>
<g id="a1_0016"  >
<polygon points="227,85 232,80 333,80 333,90 232,90 227,85 " style="fill:#15d85b; stroke-width:1; stroke:black; " description="&lt;b&gt;PspR76_RS13300&lt;/b&gt;&lt;br&gt;non-ribosomal peptide synthase/polyketide synthase&lt;br&gt;Location: 2915338 - 2901293&lt;br&gt;&lt;br&gt;&lt;b&gt;BlastP hit with ctg19_26&lt;/b&gt;&lt;br&gt;Percentage identity: 37&lt;br&gt;Percentage coverage: 86&lt;br&gt;BLAST bit score: 1707&lt;br&gt;E-value: 0.0&lt;br&gt;&lt;br&gt;&lt;b&gt;BlastP hit with ctg19_27&lt;/b&gt;&lt;br&gt;Percentage identity: 31&lt;br&gt;Percentage coverage: 112&lt;br&gt;BLAST bit score: 1684&lt;br&gt;E-value: 0.0" locus_tag="PspR76_RS13300" class="clusterblast-orf" id="dummy-1_h1_10_16"  />
</g>
<g id="a1_0017"  >
<polygon points="334,90 336,85 334,80 334,90 " style="fill:white; stroke-width:1; stroke:black; " description="&lt;b&gt;PspR76_RS13295&lt;/b&gt;&lt;br&gt;type II toxin-antitoxin system HicA family toxin&lt;br&gt;Location: 2901083 - 2900832" locus_tag="PspR76_RS13295" class="clusterblast-orf" id="dummy-1_h1_10_17"  />
</g>
<g id="a1_0018"  >
<polygon points="336,90 339,85 336,80 336,90 " style="fill:white; stroke-width:1; stroke:black; " description="&lt;b&gt;PspR76_RS13290&lt;/b&gt;&lt;br&gt;toxin-antitoxin system HicB family antitoxin&lt;br&gt;Location: 2900835 - 2900470" locus_tag="PspR76_RS13290" class="clusterblast-orf" id="dummy-1_h1_10_18"  />
</g>
<g id="a1_0019"  >
<polygon points="339,85 344,80 348,80 348,90 344,90 339,85 " style="fill:white; stroke-width:1; stroke:black; " description="&lt;b&gt;PspR76_RS13285&lt;/b&gt;&lt;br&gt;MFS transporter&lt;br&gt;Location: 2900469 - 2899297" locus_tag="PspR76_RS13285" class="clusterblast-orf" id="dummy-1_h1_10_19"  />
</g>
<g id="a1_0020"  >
<polygon points="349,90 353,85 349,80 349,90 " style="fill:white; stroke-width:1; stroke:black; " description="&lt;b&gt;PspR76_RS13280&lt;/b&gt;&lt;br&gt;TetR family transcriptional regulator&lt;br&gt;Location: 2899155 - 2898547" locus_tag="PspR76_RS13280" class="clusterblast-orf" id="dummy-1_h1_10_20"  />
</g>
<g id="a1_0021"  >
<polygon points="354,90 356,90 361,85 356,80 354,80 354,90 " style="fill:white; stroke-width:1; stroke:black; " description="&lt;b&gt;PspR76_RS13275&lt;/b&gt;&lt;br&gt;helix-turn-helix domain-containing protein&lt;br&gt;Location: 2898505 - 2897540" locus_tag="PspR76_RS13275" class="clusterblast-orf" id="dummy-1_h1_10_21"  />
</g>
<g id="a1_0022"  >
<polygon points="361,90 365,85 361,80 361,90 " style="fill:white; stroke-width:1; stroke:black; " description="&lt;b&gt;PspR76_RS13270&lt;/b&gt;&lt;br&gt;DUF3225 domain-containing protein&lt;br&gt;Location: 2897473 - 2897012" locus_tag="PspR76_RS13270" class="clusterblast-orf" id="dummy-1_h1_10_22"  />
</g>
<g id="a1_0023"  >
<polygon points="365,85 370,80 375,80 375,90 370,90 365,85 " style="fill:white; stroke-width:1; stroke:black; " description="&lt;b&gt;PspR76_RS13265&lt;/b&gt;&lt;br&gt;MATE family efflux transporter&lt;br&gt;Location: 2897011 - 2895656" locus_tag="PspR76_RS13265" class="clusterblast-orf" id="dummy-1_h1_10_23"  />
</g>
<g id="a1_0024"  >
<polygon points="375,85 380,80 380,80 380,90 380,90 375,85 " style="fill:white; stroke-width:1; stroke:black; " description="&lt;b&gt;PspR76_RS13260&lt;/b&gt;&lt;br&gt;DUF2239 family protein&lt;br&gt;Location: 2895630 - 2895058" locus_tag="PspR76_RS13260" class="clusterblast-orf" id="dummy-1_h1_10_24"  />
</g>
<g id="a1_0025"  >
<polygon points="380,85 385,80 387,80 387,90 385,90 380,85 " style="fill:white; stroke-width:1; stroke:black; " description="&lt;b&gt;PspR76_RS13255&lt;/b&gt;&lt;br&gt;AAA family ATPase&lt;br&gt;Location: 2894990 - 2894034" locus_tag="PspR76_RS13255" class="clusterblast-orf" id="dummy-1_h1_10_25"  />
</g>
<g id="a1_0026"  >
<polygon points="387,85 392,80 395,80 395,90 392,90 387,85 " style="fill:white; stroke-width:1; stroke:black; " description="&lt;b&gt;PspR76_RS13250&lt;/b&gt;&lt;br&gt;aliphatic amidase&lt;br&gt;Location: 2894030 - 2892987" locus_tag="PspR76_RS13250" class="clusterblast-orf" id="dummy-1_h1_10_26"  />
</g>
<g id="a1_0027"  >
<polygon points="395,85 398,80 398,90 395,85 " style="fill:white; stroke-width:1; stroke:black; " description="&lt;b&gt;PspR76_RS13245&lt;/b&gt;&lt;br&gt;zinc ribbon domain-containing protein&lt;br&gt;Location: 2892971 - 2892624" locus_tag="PspR76_RS13245" class="clusterblast-orf" id="dummy-1_h1_10_27"  />
</g>
<g id="a1_0028"  >
<polygon points="398,85 403,80 407,80 407,90 403,90 398,85 " style="fill:white; stroke-width:1; stroke:black; " description="&lt;b&gt;PspR76_RS13240&lt;/b&gt;&lt;br&gt;acetamidase/formamidase family protein&lt;br&gt;Location: 2892621 - 2891392" locus_tag="PspR76_RS13240" class="clusterblast-orf" id="dummy-1_h1_10_28"  />
</g>
<g id="a1_0029"  >
<polygon points="408,85 412,80 412,90 408,85 " style="fill:#d89315; stroke-width:1; stroke:black; " description="&lt;b&gt;PspR76_RS13235&lt;/b&gt;&lt;br&gt;Lrp/AsnC ligand binding domain-containing protein&lt;br&gt;Location: 2891269 - 2890799&lt;br&gt;&lt;br&gt;&lt;b&gt;BlastP hit with ctg19_21&lt;/b&gt;&lt;br&gt;Percentage identity: 96&lt;br&gt;Percentage coverage: 100&lt;br&gt;BLAST bit score: 300&lt;br&gt;E-value: 2.42e-104" locus_tag="PspR76_RS13235" class="clusterblast-orf" id="dummy-1_h1_10_29"  />
</g>
<g id="a1_0030"  >
<polygon points="413,90 417,90 422,85 417,80 413,80 413,90 " style="fill:#15d831; stroke-width:1; stroke:black; " description="&lt;b&gt;PspR76_RS13230&lt;/b&gt;&lt;br&gt;methionine gamma-lyase&lt;br&gt;Location: 2890675 - 2889431&lt;br&gt;&lt;br&gt;&lt;b&gt;BlastP hit with ctg19_22&lt;/b&gt;&lt;br&gt;Percentage identity: 95&lt;br&gt;Percentage coverage: 100&lt;br&gt;BLAST bit score: 792&lt;br&gt;E-value: 1.62e-290" locus_tag="PspR76_RS13230" class="clusterblast-orf" id="dummy-1_h1_10_30"  />
</g>
<g id="a1_0031"  >
<polygon points="424,90 424,90 429,85 424,80 424,80 424,90 " style="fill:#155bd8; stroke-width:1; stroke:black; " description="&lt;b&gt;PspR76_RS13225&lt;/b&gt;&lt;br&gt;helix-turn-helix transcriptional regulator&lt;br&gt;Location: 2889198 - 2888527&lt;br&gt;&lt;br&gt;&lt;b&gt;BlastP hit with ctg19_23&lt;/b&gt;&lt;br&gt;Percentage identity: 89&lt;br&gt;Percentage coverage: 97&lt;br&gt;BLAST bit score: 380&lt;br&gt;E-value: 8.12e-134" locus_tag="PspR76_RS13225" class="clusterblast-orf" id="dummy-1_h1_10_31"  />
</g>
<g id="a1_0032"  >
<polygon points="430,85 435,80 445,80 445,90 435,90 430,85 " style="fill:#d815bc; stroke-width:1; stroke:black; " description="&lt;b&gt;PspR76_RS13220&lt;/b&gt;&lt;br&gt;MacB family efflux pump subunit&lt;br&gt;Location: 2888395 - 2886437&lt;br&gt;&lt;br&gt;&lt;b&gt;BlastP hit with ctg19_24&lt;/b&gt;&lt;br&gt;Percentage identity: 99&lt;br&gt;Percentage coverage: 100&lt;br&gt;BLAST bit score: 1226&lt;br&gt;E-value: 0.0" locus_tag="PspR76_RS13220" class="clusterblast-orf" id="dummy-1_h1_10_32"  />
</g>
<g id="a1_0033"  >
<polygon points="445,85 450,80 453,80 453,90 450,90 445,85 " style="fill:#d8bc15; stroke-width:1; stroke:black; " description="&lt;b&gt;PspR76_RS13215&lt;/b&gt;&lt;br&gt;macrolide transporter subunit MacA&lt;br&gt;Location: 2886433 - 2885282&lt;br&gt;&lt;br&gt;&lt;b&gt;BlastP hit with ctg19_25&lt;/b&gt;&lt;br&gt;Percentage identity: 96&lt;br&gt;Percentage coverage: 100&lt;br&gt;BLAST bit score: 675&lt;br&gt;E-value: 1.92e-245" locus_tag="PspR76_RS13215" class="clusterblast-orf" id="dummy-1_h1_10_33"  />
</g>
<g id="a1_0034"  >
<polygon points="457,85 462,80 542,80 542,90 462,90 457,85 " style="fill:#15d85b; stroke-width:1; stroke:black; " description="&lt;b&gt;PspR76_RS13210&lt;/b&gt;&lt;br&gt;amino acid adenylation domain-containing protein&lt;br&gt;Location: 2884760 - 2873421&lt;br&gt;&lt;br&gt;&lt;b&gt;BlastP hit with ctg19_26&lt;/b&gt;&lt;br&gt;Percentage identity: 89&lt;br&gt;Percentage coverage: 100&lt;br&gt;BLAST bit score: 6673&lt;br&gt;E-value: 0.0&lt;br&gt;&lt;br&gt;&lt;b&gt;BlastP hit with ctg19_27&lt;/b&gt;&lt;br&gt;Percentage identity: 61&lt;br&gt;Percentage coverage: 50&lt;br&gt;BLAST bit score: 2414&lt;br&gt;E-value: 0.0" locus_tag="PspR76_RS13210" class="clusterblast-orf" id="dummy-1_h1_10_34"  />
</g>
<g id="a1_0035"  >
<polygon points="542,85 547,80 640,80 640,90 547,90 542,85 " style="fill:#15d85b; stroke-width:1; stroke:black; " description="&lt;b&gt;PspR76_RS13205&lt;/b&gt;&lt;br&gt;amino acid adenylation domain-containing protein&lt;br&gt;Location: 2873424 - 2860516&lt;br&gt;&lt;br&gt;&lt;b&gt;BlastP hit with ctg19_26&lt;/b&gt;&lt;br&gt;Percentage identity: 46&lt;br&gt;Percentage coverage: 86&lt;br&gt;BLAST bit score: 2530&lt;br&gt;E-value: 0.0&lt;br&gt;&lt;br&gt;&lt;b&gt;BlastP hit with ctg19_27&lt;/b&gt;&lt;br&gt;Percentage identity: 90&lt;br&gt;Percentage coverage: 100&lt;br&gt;BLAST bit score: 7618&lt;br&gt;E-value: 0.0" locus_tag="PspR76_RS13205" class="clusterblast-orf" id="dummy-1_h1_10_35"  />
</g>
<g id="a1_0036"  >
<polygon points="641,85 646,80 647,80 647,90 646,90 641,85 " style="fill:#1531d8; stroke-width:1; stroke:black; " description="&lt;b&gt;PspR76_RS13200&lt;/b&gt;&lt;br&gt;VWA domain-containing protein&lt;br&gt;Location: 2860307 - 2859570&lt;br&gt;&lt;br&gt;&lt;b&gt;BlastP hit with ctg19_28&lt;/b&gt;&lt;br&gt;Percentage identity: 88&lt;br&gt;Percentage coverage: 99&lt;br&gt;BLAST bit score: 311&lt;br&gt;E-value: 2.73e-107" locus_tag="PspR76_RS13200" class="clusterblast-orf" id="dummy-1_h1_10_36"  />
</g>
<g id="a1_0037"  >
<polygon points="646,85 651,80 654,80 654,90 651,90 646,85 " style="fill:#d81593; stroke-width:1; stroke:black; " description="&lt;b&gt;PspR76_RS13195&lt;/b&gt;&lt;br&gt;AAA family ATPase&lt;br&gt;Location: 2859645 - 2858647&lt;br&gt;&lt;br&gt;&lt;b&gt;BlastP hit with ctg19_29&lt;/b&gt;&lt;br&gt;Percentage identity: 95&lt;br&gt;Percentage coverage: 100&lt;br&gt;BLAST bit score: 623&lt;br&gt;E-value: 1.56e-226" locus_tag="PspR76_RS13195" class="clusterblast-orf" id="dummy-1_h1_10_37"  />
</g>
<g id="a1_0038"  >
<polygon points="655,85 660,80 683,80 683,90 660,90 655,85 " style="fill:#d81593; stroke-width:1; stroke:black; " description="&lt;b&gt;PspR76_RS13190&lt;/b&gt;&lt;br&gt;cobaltochelatase subunit CobN&lt;br&gt;Location: 2858521 - 2854760&lt;br&gt;&lt;br&gt;&lt;b&gt;BlastP hit with ctg19_30&lt;/b&gt;&lt;br&gt;Percentage identity: 97&lt;br&gt;Percentage coverage: 100&lt;br&gt;BLAST bit score: 2450&lt;br&gt;E-value: 0.0" locus_tag="PspR76_RS13190" class="clusterblast-orf" id="dummy-1_h1_10_38"  />
</g>
<g id="a1_0039"  >
<polygon points="683,85 688,80 691,80 691,90 688,90 683,85 " style="fill:#cad815; stroke-width:1; stroke:black; " description="&lt;b&gt;PspR76_RS13185&lt;/b&gt;&lt;br&gt;cobalamin biosynthesis protein CobW&lt;br&gt;Location: 2854756 - 2853692&lt;br&gt;&lt;br&gt;&lt;b&gt;BlastP hit with ctg19_31&lt;/b&gt;&lt;br&gt;Percentage identity: 98&lt;br&gt;Percentage coverage: 100&lt;br&gt;BLAST bit score: 642&lt;br&gt;E-value: 3.98e-233" locus_tag="PspR76_RS13185" class="clusterblast-orf" id="dummy-1_h1_10_39"  />
</g>
<g id="a1_0040"  >
<polygon points="694,90 695,90 700,85 695,80 694,80 694,90 " style="fill:white; stroke-width:1; stroke:black; " description="&lt;b&gt;PspR76_RS31040&lt;/b&gt;&lt;br&gt;hypothetical protein&lt;br&gt;Location: 2853237 - 2852560" locus_tag="PspR76_RS31040" class="clusterblast-orf" id="dummy-1_h1_10_40"  />
</g>
<g id="a1_0041"  >
<polygon points="702,90 704,85 702,80 702,90 " style="fill:#15d885; stroke-width:1; stroke:black; " description="&lt;b&gt;PspR76_RS13175&lt;/b&gt;&lt;br&gt;CbtB-domain containing protein&lt;br&gt;Location: 2852173 - 2851985&lt;br&gt;&lt;br&gt;&lt;b&gt;BlastP hit with ctg19_32&lt;/b&gt;&lt;br&gt;Percentage identity: 95&lt;br&gt;Percentage coverage: 100&lt;br&gt;BLAST bit score: 114&lt;br&gt;E-value: 1.24e-33" locus_tag="PspR76_RS13175" class="clusterblast-orf" id="dummy-1_h1_10_41"  />
</g>
<g id="a1_0042"  >
<polygon points="704,90 704,90 709,85 704,80 704,80 704,90 " style="fill:#2315d8; stroke-width:1; stroke:black; " description="&lt;b&gt;PspR76_RS13170&lt;/b&gt;&lt;br&gt;CbtA family protein&lt;br&gt;Location: 2851973 - 2851266&lt;br&gt;&lt;br&gt;&lt;b&gt;BlastP hit with ctg19_33&lt;/b&gt;&lt;br&gt;Percentage identity: 92&lt;br&gt;Percentage coverage: 100&lt;br&gt;BLAST bit score: 423&lt;br&gt;E-value: 1.53e-150" locus_tag="PspR76_RS13170" class="clusterblast-orf" id="dummy-1_h1_10_42"  />
</g>
<g id="a1_0043"  >
<polygon points="709,90 712,85 709,80 709,90 " style="fill:#d81569; stroke-width:1; stroke:black; " description="&lt;b&gt;PspR76_RS13165&lt;/b&gt;&lt;br&gt;cobalamin biosynthesis protein&lt;br&gt;Location: 2851269 - 2850877&lt;br&gt;&lt;br&gt;&lt;b&gt;BlastP hit with ctg19_34&lt;/b&gt;&lt;br&gt;Percentage identity: 86&lt;br&gt;Percentage coverage: 98&lt;br&gt;BLAST bit score: 218&lt;br&gt;E-value: 1.05e-72" locus_tag="PspR76_RS13165" class="clusterblast-orf" id="dummy-1_h1_10_43"  />
</g>
<g id="a1_0044"  >
<polygon points="713,90 713,90 718,85 713,80 713,80 713,90 " style="fill:#a1d815; stroke-width:1; stroke:black; " description="&lt;b&gt;PspR76_RS13160&lt;/b&gt;&lt;br&gt;precorrin-4 C(11)-methyltransferase&lt;br&gt;Location: 2850806 - 2850060&lt;br&gt;&lt;br&gt;&lt;b&gt;BlastP hit with ctg19_35&lt;/b&gt;&lt;br&gt;Percentage identity: 97&lt;br&gt;Percentage coverage: 100&lt;br&gt;BLAST bit score: 481&lt;br&gt;E-value: 2.92e-173" locus_tag="PspR76_RS13160" class="clusterblast-orf" id="dummy-1_h1_10_44"  />
</g>
<g id="a1_0045"  >
<polygon points="720,85 724,80 724,90 720,85 " style="fill:#15d8ae; stroke-width:1; stroke:black; " description="&lt;b&gt;PspR76_RS13155&lt;/b&gt;&lt;br&gt;Fe-S biogenesis protein NfuA&lt;br&gt;Location: 2849850 - 2849266&lt;br&gt;&lt;br&gt;&lt;b&gt;BlastP hit with ctg19_36&lt;/b&gt;&lt;br&gt;Percentage identity: 100&lt;br&gt;Percentage coverage: 100&lt;br&gt;BLAST bit score: 392&lt;br&gt;E-value: 1.55e-139" locus_tag="PspR76_RS13155" class="clusterblast-orf" id="dummy-1_h1_10_45"  />
</g>
<g id="a1_0046"  >
<polygon points="725,85 730,80 732,80 732,90 730,90 725,85 " style="fill:white; stroke-width:1; stroke:black; " description="&lt;b&gt;PspR76_RS13150&lt;/b&gt;&lt;br&gt;acyltransferase family protein&lt;br&gt;Location: 2849206 - 2848184" locus_tag="PspR76_RS13150" class="clusterblast-orf" id="dummy-1_h1_10_46"  />
</g>
<g id="a1_0047"  >
<polygon points="733,85 738,80 750,80 750,90 738,90 733,85 " style="fill:#4d15d8; stroke-width:1; stroke:black; " description="&lt;b&gt;PspR76_RS13145&lt;/b&gt;&lt;br&gt;fatty acid cis/trans isomerase&lt;br&gt;Location: 2848119 - 2845813&lt;br&gt;&lt;br&gt;&lt;b&gt;BlastP hit with ctg19_37&lt;/b&gt;&lt;br&gt;Percentage identity: 89&lt;br&gt;Percentage coverage: 101&lt;br&gt;BLAST bit score: 1423&lt;br&gt;E-value: 0.0" locus_tag="PspR76_RS13145" class="clusterblast-orf" id="dummy-1_h1_10_47"  />
</g>
<g id="a1_0048"  >
<polygon points="752,90 775,90 780,85 775,80 752,80 752,90 " style="fill:#d8153f; stroke-width:1; stroke:black; " description="&lt;b&gt;PspR76_RS13140&lt;/b&gt;&lt;br&gt;methionine synthase&lt;br&gt;Location: 2845646 - 2841936&lt;br&gt;&lt;br&gt;&lt;b&gt;BlastP hit with ctg19_38&lt;/b&gt;&lt;br&gt;Percentage identity: 99&lt;br&gt;Percentage coverage: 100&lt;br&gt;BLAST bit score: 2433&lt;br&gt;E-value: 0.0" locus_tag="PspR76_RS13140" class="clusterblast-orf" id="dummy-1_h1_10_48"  />
</g>
</svg>
