<svg xmlns="http://www.w3.org/2000/svg" xmlns:xlink="http://www.w3.org/1999/xlink" version="1.1" x="0" y="0" height="230" width="800" viewBox="0 0 800 230" preserveAspectRatio="none"  >
<g label="Query sequence" class="clusterblast-cluster"  >
<text x="5" y="20" class="clusterblast-acc"  >
Query sequence</text>
<line x1="10" y1="35" x2="778.0" y2="35" style="stroke-width:1; stroke:grey; "  />
<polygon points="0,40 4,40 9,35 4,30 0,30 0,40 " style="fill:#d81515; stroke-width:1; stroke:black; " description="&lt;b&gt;ctg2_478&lt;/b&gt;&lt;br&gt;ctg2 478&lt;br&gt;Location: 532188 - 533103" locus_tag="ctg2_478" class="clusterblast-orf" id="dummy-3_q0_0_all"  />
<polygon points="10,35 15,30 17,30 17,40 15,40 10,35 " style="fill:#65d815; stroke-width:1; stroke:black; " description="&lt;b&gt;ctg2_479&lt;/b&gt;&lt;br&gt;ctg2 479&lt;br&gt;Location: 533223 - 533889" locus_tag="ctg2_479" class="clusterblast-orf" id="dummy-3_q1_0_all"  />
<polygon points="17,35 22,30 52,30 52,40 22,40 17,35 " style="fill:#65d815; stroke-width:1; stroke:black; " description="&lt;b&gt;ctg2_480&lt;/b&gt;&lt;br&gt;ctg2 480&lt;br&gt;Location: 533863 - 537247" locus_tag="ctg2_480" class="clusterblast-orf" id="dummy-3_q2_0_all"  />
<polygon points="55,40 63,40 68,35 63,30 55,30 55,40 " style="fill:#15b6d8; stroke-width:1; stroke:black; " description="&lt;b&gt;ctg2_481&lt;/b&gt;&lt;br&gt;ctg2 481&lt;br&gt;Location: 537549 - 538758" locus_tag="ctg2_481" class="clusterblast-orf" id="dummy-3_q3_0_all"  />
<polygon points="70,40 74,40 79,35 74,30 70,30 70,40 " style="fill:#8815d8; stroke-width:1; stroke:black; " description="&lt;b&gt;ctg2_482&lt;/b&gt;&lt;br&gt;ctg2 482&lt;br&gt;Location: 538936 - 539854" locus_tag="ctg2_482" class="clusterblast-orf" id="dummy-3_q4_0_all"  />
<polygon points="79,40 86,40 91,35 86,30 79,30 79,40 " style="fill:#d83815; stroke-width:1; stroke:black; " description="&lt;b&gt;ctg2_483&lt;/b&gt;&lt;br&gt;ctg2 483&lt;br&gt;Location: 539864 - 541025" locus_tag="ctg2_483" class="clusterblast-orf" id="dummy-3_q5_0_all"  />
<polygon points="91,40 94,40 99,35 94,30 91,30 91,40 " style="fill:#43d815; stroke-width:1; stroke:black; " description="&lt;b&gt;ctg2_484&lt;/b&gt;&lt;br&gt;ctg2 484&lt;br&gt;Location: 541021 - 541780" locus_tag="ctg2_484" class="clusterblast-orf" id="dummy-3_q6_0_all"  />
<polygon points="99,40 102,40 107,35 102,30 99,30 99,40 " style="fill:#1593d8; stroke-width:1; stroke:black; " description="&lt;b&gt;ctg2_485&lt;/b&gt;&lt;br&gt;ctg2 485&lt;br&gt;Location: 541790 - 542480" locus_tag="ctg2_485" class="clusterblast-orf" id="dummy-3_q7_0_all"  />
<polygon points="109,40 117,40 122,35 117,30 109,30 109,40 " style="fill:#aa15d8; stroke-width:1; stroke:black; " description="&lt;b&gt;ctg2_486&lt;/b&gt;&lt;br&gt;ctg2 486&lt;br&gt;Location: 542699 - 543929" locus_tag="ctg2_486" class="clusterblast-orf" id="dummy-3_q8_0_all"  />
<polygon points="122,40 125,35 122,30 122,40 " style="fill:#d85a15; stroke-width:1; stroke:black; " description="&lt;b&gt;ctg2_487&lt;/b&gt;&lt;br&gt;ctg2 487&lt;br&gt;Location: 543931 - 544279" locus_tag="ctg2_487" class="clusterblast-orf" id="dummy-3_q9_0_all"  />
<polygon points="125,40 131,40 136,35 131,30 125,30 125,40 " style="fill:#21d815; stroke-width:1; stroke:black; " description="&lt;b&gt;ctg2_488&lt;/b&gt;&lt;br&gt;ctg2 488&lt;br&gt;Location: 544294 - 545338" locus_tag="ctg2_488" class="clusterblast-orf" id="dummy-3_q10_0_all"  />
<polygon points="136,40 141,40 146,35 141,30 136,30 136,40 " style="fill:#1571d8; stroke-width:1; stroke:black; " description="&lt;b&gt;ctg2_489&lt;/b&gt;&lt;br&gt;ctg2 489&lt;br&gt;Location: 545341 - 546298" locus_tag="ctg2_489" class="clusterblast-orf" id="dummy-3_q11_0_all"  />
<polygon points="147,40 148,40 153,35 148,30 147,30 147,40 " style="fill:#cd15d8; stroke-width:1; stroke:black; " description="&lt;b&gt;ctg2_490&lt;/b&gt;&lt;br&gt;ctg2 490&lt;br&gt;Location: 546365 - 546938" locus_tag="ctg2_490" class="clusterblast-orf" id="dummy-3_q12_0_all"  />
<polygon points="153,40 162,40 167,35 162,30 153,30 153,40 " style="fill:#d87c15; stroke-width:1; stroke:black; " description="&lt;b&gt;ctg2_491&lt;/b&gt;&lt;br&gt;ctg2 491&lt;br&gt;Location: 546963 - 548319" locus_tag="ctg2_491" class="clusterblast-orf" id="dummy-3_q13_0_all"  />
<polygon points="167,35 172,30 173,30 173,40 172,40 167,35 " style="fill:#15d82c; stroke-width:1; stroke:black; " description="&lt;b&gt;ctg2_492&lt;/b&gt;&lt;br&gt;ctg2 492&lt;br&gt;Location: 548302 - 548896" locus_tag="ctg2_492" class="clusterblast-orf" id="dummy-3_q14_0_all"  />
<polygon points="175,40 182,40 187,35 182,30 175,30 175,40 " style="fill:#154fd8; stroke-width:1; stroke:black; " description="&lt;b&gt;ctg2_493&lt;/b&gt;&lt;br&gt;ctg2 493&lt;br&gt;Location: 549038 - 550229" locus_tag="ctg2_493" class="clusterblast-orf" id="dummy-3_q15_0_all"  />
<polygon points="187,35 191,30 191,40 187,35 " style="fill:#d815c1; stroke-width:1; stroke:black; " description="&lt;b&gt;ctg2_494&lt;/b&gt;&lt;br&gt;ctg2 494&lt;br&gt;Location: 550211 - 550577" locus_tag="ctg2_494" class="clusterblast-orf" id="dummy-3_q16_0_all"  />
<polygon points="191,35 193,30 193,40 191,35 " style="fill:#d89f15; stroke-width:1; stroke:black; " description="&lt;b&gt;ctg2_495&lt;/b&gt;&lt;br&gt;ctg2 495&lt;br&gt;Location: 550573 - 550825" locus_tag="ctg2_495" class="clusterblast-orf" id="dummy-3_q17_0_all"  />
<polygon points="195,40 336,40 341,35 336,30 195,30 195,40 " style="fill:#15d84f; stroke-width:1; stroke:black; " description="&lt;b&gt;ctg2_496&lt;/b&gt;&lt;br&gt;ctg2 496&lt;br&gt;Location: 551033 - 565088" locus_tag="ctg2_496" class="clusterblast-orf" id="dummy-3_q18_0_all"  />
<polygon points="341,40 459,40 464,35 459,30 341,30 341,40 " style="fill:#15d84f; stroke-width:1; stroke:black; " description="&lt;b&gt;ctg2_497&lt;/b&gt;&lt;br&gt;ctg2 497&lt;br&gt;Location: 565091 - 576944" locus_tag="ctg2_497" class="clusterblast-orf" id="dummy-3_q19_0_all"  />
<polygon points="466,35 471,30 491,30 491,40 471,40 466,35 " style="fill:#152cd8; stroke-width:1; stroke:black; " description="&lt;b&gt;ctg2_498&lt;/b&gt;&lt;br&gt;ctg2 498&lt;br&gt;Location: 577088 - 579530" locus_tag="ctg2_498" class="clusterblast-orf" id="dummy-3_q20_0_all"  />
<polygon points="492,35 497,30 510,30 510,40 497,40 492,35 " style="fill:#d8159f; stroke-width:1; stroke:black; " description="&lt;b&gt;ctg2_499&lt;/b&gt;&lt;br&gt;ctg2 499&lt;br&gt;Location: 579639 - 581292" locus_tag="ctg2_499" class="clusterblast-orf" id="dummy-3_q21_0_all"  />
<polygon points="512,40 515,40 520,35 515,30 512,30 512,40 " style="fill:#d8c115; stroke-width:1; stroke:black; " description="&lt;b&gt;ctg2_500&lt;/b&gt;&lt;br&gt;ctg2 500&lt;br&gt;Location: 581490 - 582318" locus_tag="ctg2_500" class="clusterblast-orf" id="dummy-3_q22_0_all"  />
<polygon points="522,35 527,30 531,30 531,40 527,40 522,35 " style="fill:#15d871; stroke-width:1; stroke:black; " description="&lt;b&gt;ctg2_501&lt;/b&gt;&lt;br&gt;ctg2 501&lt;br&gt;Location: 582460 - 583333" locus_tag="ctg2_501" class="clusterblast-orf" id="dummy-3_q23_0_all"  />
<polygon points="531,35 536,30 544,30 544,40 536,40 531,35 " style="fill:#2115d8; stroke-width:1; stroke:black; " description="&lt;b&gt;ctg2_502&lt;/b&gt;&lt;br&gt;ctg2 502&lt;br&gt;Location: 583366 - 584647" locus_tag="ctg2_502" class="clusterblast-orf" id="dummy-3_q24_0_all"  />
<polygon points="545,35 550,30 559,30 559,40 550,40 545,35 " style="fill:#d8157c; stroke-width:1; stroke:black; " description="&lt;b&gt;ctg2_503&lt;/b&gt;&lt;br&gt;ctg2 503&lt;br&gt;Location: 584665 - 586015" locus_tag="ctg2_503" class="clusterblast-orf" id="dummy-3_q25_0_all"  />
<polygon points="560,40 572,40 577,35 572,30 560,30 560,40 " style="fill:#cdd815; stroke-width:1; stroke:black; " description="&lt;b&gt;ctg2_504&lt;/b&gt;&lt;br&gt;ctg2 504&lt;br&gt;Location: 586157 - 587777" locus_tag="ctg2_504" class="clusterblast-orf" id="dummy-3_q26_0_all"  />
<polygon points="577,35 582,30 587,30 587,40 582,40 577,35 " style="fill:#15d893; stroke-width:1; stroke:black; " description="&lt;b&gt;ctg2_505&lt;/b&gt;&lt;br&gt;ctg2 505&lt;br&gt;Location: 587769 - 588717" locus_tag="ctg2_505" class="clusterblast-orf" id="dummy-3_q27_0_all"  />
<polygon points="588,40 593,40 598,35 593,30 588,30 588,40 " style="fill:#4315d8; stroke-width:1; stroke:black; " description="&lt;b&gt;ctg2_506&lt;/b&gt;&lt;br&gt;ctg2 506&lt;br&gt;Location: 588860 - 589751" locus_tag="ctg2_506" class="clusterblast-orf" id="dummy-3_q28_0_all"  />
<polygon points="597,40 603,40 608,35 603,30 597,30 597,40 " style="fill:#d8155a; stroke-width:1; stroke:black; " description="&lt;b&gt;ctg2_507&lt;/b&gt;&lt;br&gt;ctg2 507&lt;br&gt;Location: 589750 - 590722" locus_tag="ctg2_507" class="clusterblast-orf" id="dummy-3_q29_0_all"  />
<polygon points="608,40 612,40 617,35 612,30 608,30 608,40 " style="fill:#aad815; stroke-width:1; stroke:black; " description="&lt;b&gt;ctg2_508&lt;/b&gt;&lt;br&gt;ctg2 508&lt;br&gt;Location: 590718 - 591588" locus_tag="ctg2_508" class="clusterblast-orf" id="dummy-3_q30_0_all"  />
<polygon points="617,40 619,35 617,30 617,40 " style="fill:#15d8b6; stroke-width:1; stroke:black; " description="&lt;b&gt;ctg2_509&lt;/b&gt;&lt;br&gt;ctg2 509&lt;br&gt;Location: 591602 - 591863" locus_tag="ctg2_509" class="clusterblast-orf" id="dummy-3_q31_0_all"  />
<polygon points="619,40 623,40 628,35 623,30 619,30 619,40 " style="fill:#6615d8; stroke-width:1; stroke:black; " description="&lt;b&gt;ctg2_510&lt;/b&gt;&lt;br&gt;ctg2 510&lt;br&gt;Location: 591859 - 592690" locus_tag="ctg2_510" class="clusterblast-orf" id="dummy-3_q32_0_all"  />
<polygon points="628,40 651,40 656,35 651,30 628,30 628,40 " style="fill:#d81538; stroke-width:1; stroke:black; " description="&lt;b&gt;ctg2_511&lt;/b&gt;&lt;br&gt;ctg2 511&lt;br&gt;Location: 592703 - 595361" locus_tag="ctg2_511" class="clusterblast-orf" id="dummy-3_q33_0_all"  />
<polygon points="658,40 660,40 665,35 660,30 658,30 658,40 " style="fill:#88d815; stroke-width:1; stroke:black; " description="&lt;b&gt;ctg2_512&lt;/b&gt;&lt;br&gt;ctg2 512&lt;br&gt;Location: 595567 - 596284" locus_tag="ctg2_512" class="clusterblast-orf" id="dummy-3_q34_0_all"  />
<polygon points="666,40 669,35 666,30 666,40 " style="fill:#15d8d8; stroke-width:1; stroke:black; " description="&lt;b&gt;ctg2_513&lt;/b&gt;&lt;br&gt;ctg2 513&lt;br&gt;Location: 596336 - 596672" locus_tag="ctg2_513" class="clusterblast-orf" id="dummy-3_q35_0_all"  />
<polygon points="670,40 676,40 681,35 676,30 670,30 670,40 " style="fill:white; stroke-width:1; stroke:black; " description="&lt;b&gt;ctg2_514&lt;/b&gt;&lt;br&gt;ctg2 514&lt;br&gt;Location: 596687 - 597794" locus_tag="ctg2_514" class="clusterblast-orf" id="dummy-3_q36_0_all"  />
<polygon points="683,40 683,40 688,35 683,30 683,30 683,40 " style="fill:white; stroke-width:1; stroke:black; " description="&lt;b&gt;ctg2_515&lt;/b&gt;&lt;br&gt;ctg2 515&lt;br&gt;Location: 597956 - 598448" locus_tag="ctg2_515" class="clusterblast-orf" id="dummy-3_q37_0_all"  />
<polygon points="689,35 691,30 691,40 689,35 " style="fill:white; stroke-width:1; stroke:black; " description="&lt;b&gt;ctg2_516&lt;/b&gt;&lt;br&gt;ctg2 516&lt;br&gt;Location: 598549 - 598771" locus_tag="ctg2_516" class="clusterblast-orf" id="dummy-3_q38_0_all"  />
<polygon points="693,35 698,30 716,30 716,40 698,40 693,35 " style="fill:#152cd8; stroke-width:1; stroke:black; " description="&lt;b&gt;ctg2_517&lt;/b&gt;&lt;br&gt;ctg2 517&lt;br&gt;Location: 598913 - 601142" locus_tag="ctg2_517" class="clusterblast-orf" id="dummy-3_q39_0_all"  />
<polygon points="717,35 722,30 735,30 735,40 722,40 717,35 " style="fill:white; stroke-width:1; stroke:black; " description="&lt;b&gt;ctg2_518&lt;/b&gt;&lt;br&gt;ctg2 518&lt;br&gt;Location: 601268 - 603011" locus_tag="ctg2_518" class="clusterblast-orf" id="dummy-3_q40_0_all"  />
<polygon points="737,35 739,30 739,40 737,35 " style="fill:white; stroke-width:1; stroke:black; " description="&lt;b&gt;ctg2_519&lt;/b&gt;&lt;br&gt;ctg2 519&lt;br&gt;Location: 603175 - 603352" locus_tag="ctg2_519" class="clusterblast-orf" id="dummy-3_q41_0_all"  />
<polygon points="742,40 747,40 752,35 747,30 742,30 742,40 " style="fill:white; stroke-width:1; stroke:black; " description="&lt;b&gt;ctg2_520&lt;/b&gt;&lt;br&gt;ctg2 520&lt;br&gt;Location: 603621 - 604605" locus_tag="ctg2_520" class="clusterblast-orf" id="dummy-3_q42_0_all"  />
<polygon points="752,40 763,40 768,35 763,30 752,30 752,40 " style="fill:white; stroke-width:1; stroke:black; " description="&lt;b&gt;ctg2_521&lt;/b&gt;&lt;br&gt;ctg2 521&lt;br&gt;Location: 604601 - 606125" locus_tag="ctg2_521" class="clusterblast-orf" id="dummy-3_q43_0_all"  />
<polygon points="768,40 771,40 776,35 771,30 768,30 768,40 " style="fill:white; stroke-width:1; stroke:black; " description="&lt;b&gt;ctg2_522&lt;/b&gt;&lt;br&gt;ctg2 522&lt;br&gt;Location: 606121 - 606946" locus_tag="ctg2_522" class="clusterblast-orf" id="dummy-3_q44_0_all"  />
<polygon points="777,35 780,30 780,40 777,35 " style="fill:white; stroke-width:1; stroke:black; " description="&lt;b&gt;ctg2_523&lt;/b&gt;&lt;br&gt;ctg2 523&lt;br&gt;Location: 607021 - 607282" locus_tag="ctg2_523" class="clusterblast-orf" id="dummy-3_q45_0_all"  />
</g>
<g label="NZ_PYAQ01000012" description="NZ_PYAQ01000012 (137100-203005): Pseudomonas sp. R9.37 NODE 12 length 237118 ... (100% of genes show similarity), NRPS" class="clusterblast-cluster"  >
<text x="5" y="70" class="clusterblast-acc"  >
<a xlink:href="https://antismash-db.secondarymetabolites.org/area.html?record=NZ_PYAQ01000012&amp;start=137100&amp;end=203005" target="_blank">NZ_PYAQ01000012 (137100-203005)</a>: Pseudomonas sp. R9.37 NODE 12 length 237118 ... (100% of genes show similarity), NRPS</text>
<line x1="10" y1="85" x2="778.0" y2="85" style="stroke-width:1; stroke:grey; "  />
</g>
<g id="a3_000"  >
<polygon points="59,85 64,80 66,80 66,90 64,90 59,85 " style="fill:#65d815; stroke-width:1; stroke:black; " description="&lt;b&gt;C7U57_RS24485&lt;/b&gt;&lt;br&gt;response regulator&lt;br&gt;Location: 139284 - 139949&lt;br&gt;&lt;br&gt;&lt;b&gt;BlastP hit with ctg2_479&lt;/b&gt;&lt;br&gt;Percentage identity: 99&lt;br&gt;Percentage coverage: 100&lt;br&gt;BLAST bit score: 421&lt;br&gt;E-value: 2.23e-150&lt;br&gt;&lt;br&gt;&lt;b&gt;BlastP hit with ctg2_480&lt;/b&gt;&lt;br&gt;Percentage identity: 36&lt;br&gt;Percentage coverage: 13&lt;br&gt;BLAST bit score: 78&lt;br&gt;E-value: 7.85e-14" locus_tag="C7U57_RS24485" class="clusterblast-orf" id="dummy-3_h3_6_0"  />
</g>
<g id="a3_001"  >
<polygon points="66,85 71,80 101,80 101,90 71,90 66,85 " style="fill:#65d815; stroke-width:1; stroke:black; " description="&lt;b&gt;C7U57_RS24490&lt;/b&gt;&lt;br&gt;response regulator&lt;br&gt;Location: 139924 - 143307&lt;br&gt;&lt;br&gt;&lt;b&gt;BlastP hit with ctg2_479&lt;/b&gt;&lt;br&gt;Percentage identity: 36&lt;br&gt;Percentage coverage: 68&lt;br&gt;BLAST bit score: 74&lt;br&gt;E-value: 2.37e-13&lt;br&gt;&lt;br&gt;&lt;b&gt;BlastP hit with ctg2_480&lt;/b&gt;&lt;br&gt;Percentage identity: 97&lt;br&gt;Percentage coverage: 100&lt;br&gt;BLAST bit score: 2135&lt;br&gt;E-value: 0.0" locus_tag="C7U57_RS24490" class="clusterblast-orf" id="dummy-3_h3_6_1"  />
</g>
<g id="a3_002"  >
<polygon points="105,90 112,90 117,85 112,80 105,80 105,90 " style="fill:#15b6d8; stroke-width:1; stroke:black; " description="&lt;b&gt;C7U57_RS24495&lt;/b&gt;&lt;br&gt;urea ABC transporter substrate-binding protein&lt;br&gt;Location: 143619 - 144827&lt;br&gt;&lt;br&gt;&lt;b&gt;BlastP hit with ctg2_481&lt;/b&gt;&lt;br&gt;Percentage identity: 99&lt;br&gt;Percentage coverage: 100&lt;br&gt;BLAST bit score: 792&lt;br&gt;E-value: 6.33e-291" locus_tag="C7U57_RS24495" class="clusterblast-orf" id="dummy-3_h3_6_2"  />
</g>
<g id="a3_003"  >
<polygon points="119,90 123,90 128,85 123,80 119,80 119,90 " style="fill:#8815d8; stroke-width:1; stroke:black; " description="&lt;b&gt;C7U57_RS24500&lt;/b&gt;&lt;br&gt;urea ABC transporter permease subunit UrtB&lt;br&gt;Location: 144995 - 145912&lt;br&gt;&lt;br&gt;&lt;b&gt;BlastP hit with ctg2_482&lt;/b&gt;&lt;br&gt;Percentage identity: 99&lt;br&gt;Percentage coverage: 100&lt;br&gt;BLAST bit score: 570&lt;br&gt;E-value: 1.46e-206" locus_tag="C7U57_RS24500" class="clusterblast-orf" id="dummy-3_h3_6_3"  />
</g>
<g id="a3_004"  >
<polygon points="128,90 136,90 141,85 136,80 128,80 128,90 " style="fill:#d83815; stroke-width:1; stroke:black; " description="&lt;b&gt;C7U57_RS24505&lt;/b&gt;&lt;br&gt;urea ABC transporter permease subunit UrtC&lt;br&gt;Location: 145923 - 147086&lt;br&gt;&lt;br&gt;&lt;b&gt;BlastP hit with ctg2_483&lt;/b&gt;&lt;br&gt;Percentage identity: 96&lt;br&gt;Percentage coverage: 100&lt;br&gt;BLAST bit score: 711&lt;br&gt;E-value: 1.91e-259" locus_tag="C7U57_RS24505" class="clusterblast-orf" id="dummy-3_h3_6_4"  />
</g>
<g id="a3_005"  >
<polygon points="141,90 143,90 148,85 143,80 141,80 141,90 " style="fill:#43d815; stroke-width:1; stroke:black; " description="&lt;b&gt;C7U57_RS24510&lt;/b&gt;&lt;br&gt;urea ABC transporter ATP-binding protein UrtD&lt;br&gt;Location: 147083 - 147841&lt;br&gt;&lt;br&gt;&lt;b&gt;BlastP hit with ctg2_484&lt;/b&gt;&lt;br&gt;Percentage identity: 98&lt;br&gt;Percentage coverage: 100&lt;br&gt;BLAST bit score: 488&lt;br&gt;E-value: 1.45e-175" locus_tag="C7U57_RS24510" class="clusterblast-orf" id="dummy-3_h3_6_5"  />
</g>
<g id="a3_006"  >
<polygon points="148,90 151,90 156,85 151,80 148,80 148,90 " style="fill:#1593d8; stroke-width:1; stroke:black; " description="&lt;b&gt;C7U57_RS24515&lt;/b&gt;&lt;br&gt;urea ABC transporter ATP-binding subunit UrtE&lt;br&gt;Location: 147852 - 148541&lt;br&gt;&lt;br&gt;&lt;b&gt;BlastP hit with ctg2_485&lt;/b&gt;&lt;br&gt;Percentage identity: 97&lt;br&gt;Percentage coverage: 100&lt;br&gt;BLAST bit score: 433&lt;br&gt;E-value: 1.1e-154" locus_tag="C7U57_RS24515" class="clusterblast-orf" id="dummy-3_h3_6_6"  />
</g>
<g id="a3_007"  >
<polygon points="158,90 166,90 171,85 166,80 158,80 158,90 " style="fill:#aa15d8; stroke-width:1; stroke:black; " description="&lt;b&gt;C7U57_RS24525&lt;/b&gt;&lt;br&gt;acetamidase/formamidase family protein&lt;br&gt;Location: 148761 - 149990&lt;br&gt;&lt;br&gt;&lt;b&gt;BlastP hit with ctg2_486&lt;/b&gt;&lt;br&gt;Percentage identity: 100&lt;br&gt;Percentage coverage: 100&lt;br&gt;BLAST bit score: 857&lt;br&gt;E-value: 2.68e-316" locus_tag="C7U57_RS24525" class="clusterblast-orf" id="dummy-3_h3_6_7"  />
</g>
<g id="a3_008"  >
<polygon points="171,90 174,85 171,80 171,90 " style="fill:#d85a15; stroke-width:1; stroke:black; " description="&lt;b&gt;C7U57_RS24530&lt;/b&gt;&lt;br&gt;FmdB family transcriptional regulator&lt;br&gt;Location: 149993 - 150340&lt;br&gt;&lt;br&gt;&lt;b&gt;BlastP hit with ctg2_487&lt;/b&gt;&lt;br&gt;Percentage identity: 94&lt;br&gt;Percentage coverage: 100&lt;br&gt;BLAST bit score: 236&lt;br&gt;E-value: 1.16e-80" locus_tag="C7U57_RS24530" class="clusterblast-orf" id="dummy-3_h3_6_8"  />
</g>
<g id="a3_009"  >
<polygon points="174,90 180,90 185,85 180,80 174,80 174,90 " style="fill:#21d815; stroke-width:1; stroke:black; " description="&lt;b&gt;C7U57_RS24535&lt;/b&gt;&lt;br&gt;aliphatic amidase&lt;br&gt;Location: 150356 - 151399&lt;br&gt;&lt;br&gt;&lt;b&gt;BlastP hit with ctg2_488&lt;/b&gt;&lt;br&gt;Percentage identity: 99&lt;br&gt;Percentage coverage: 99&lt;br&gt;BLAST bit score: 721&lt;br&gt;E-value: 9.55e-265" locus_tag="C7U57_RS24535" class="clusterblast-orf" id="dummy-3_h3_6_9"  />
</g>
<g id="a3_0010"  >
<polygon points="185,90 190,90 195,85 190,80 185,80 185,90 " style="fill:#1571d8; stroke-width:1; stroke:black; " description="&lt;b&gt;C7U57_RS24540&lt;/b&gt;&lt;br&gt;ATP-dependent Clp protease ATP-binding subunit&lt;br&gt;Location: 151403 - 152359&lt;br&gt;&lt;br&gt;&lt;b&gt;BlastP hit with ctg2_489&lt;/b&gt;&lt;br&gt;Percentage identity: 91&lt;br&gt;Percentage coverage: 100&lt;br&gt;BLAST bit score: 566&lt;br&gt;E-value: 1.89e-204" locus_tag="C7U57_RS24540" class="clusterblast-orf" id="dummy-3_h3_6_10"  />
</g>
<g id="a3_0011"  >
<polygon points="196,90 197,90 202,85 197,80 196,80 196,90 " style="fill:#cd15d8; stroke-width:1; stroke:black; " description="&lt;b&gt;C7U57_RS24545&lt;/b&gt;&lt;br&gt;DUF2239 family protein&lt;br&gt;Location: 152427 - 152999&lt;br&gt;&lt;br&gt;&lt;b&gt;BlastP hit with ctg2_490&lt;/b&gt;&lt;br&gt;Percentage identity: 78&lt;br&gt;Percentage coverage: 100&lt;br&gt;BLAST bit score: 305&lt;br&gt;E-value: 3.23e-105" locus_tag="C7U57_RS24545" class="clusterblast-orf" id="dummy-3_h3_6_11"  />
</g>
<g id="a3_0012"  >
<polygon points="202,90 211,90 216,85 211,80 202,80 202,90 " style="fill:#d87c15; stroke-width:1; stroke:black; " description="&lt;b&gt;C7U57_RS24550&lt;/b&gt;&lt;br&gt;MATE family efflux transporter&lt;br&gt;Location: 153025 - 154380&lt;br&gt;&lt;br&gt;&lt;b&gt;BlastP hit with ctg2_491&lt;/b&gt;&lt;br&gt;Percentage identity: 97&lt;br&gt;Percentage coverage: 100&lt;br&gt;BLAST bit score: 798&lt;br&gt;E-value: 1.05e-291" locus_tag="C7U57_RS24550" class="clusterblast-orf" id="dummy-3_h3_6_12"  />
</g>
<g id="a3_0013"  >
<polygon points="216,85 221,80 222,80 222,90 221,90 216,85 " style="fill:#15d82c; stroke-width:1; stroke:black; " description="&lt;b&gt;C7U57_RS24555&lt;/b&gt;&lt;br&gt;TetR/AcrR family transcriptional regulator&lt;br&gt;Location: 154364 - 154963&lt;br&gt;&lt;br&gt;&lt;b&gt;BlastP hit with ctg2_492&lt;/b&gt;&lt;br&gt;Percentage identity: 84&lt;br&gt;Percentage coverage: 101&lt;br&gt;BLAST bit score: 317&lt;br&gt;E-value: 1.11e-109" locus_tag="C7U57_RS24555" class="clusterblast-orf" id="dummy-3_h3_6_13"  />
</g>
<g id="a3_0014"  >
<polygon points="224,90 231,90 236,85 231,80 224,80 224,90 " style="fill:#154fd8; stroke-width:1; stroke:black; " description="&lt;b&gt;C7U57_RS24560&lt;/b&gt;&lt;br&gt;MFS transporter&lt;br&gt;Location: 155105 - 156276&lt;br&gt;&lt;br&gt;&lt;b&gt;BlastP hit with ctg2_493&lt;/b&gt;&lt;br&gt;Percentage identity: 91&lt;br&gt;Percentage coverage: 93&lt;br&gt;BLAST bit score: 634&lt;br&gt;E-value: 6.54e-229" locus_tag="C7U57_RS24560" class="clusterblast-orf" id="dummy-3_h3_6_14"  />
</g>
<g id="a3_0015"  >
<polygon points="236,85 240,80 240,90 236,85 " style="fill:#d815c1; stroke-width:1; stroke:black; " description="&lt;b&gt;C7U57_RS24565&lt;/b&gt;&lt;br&gt;type II toxin-antitoxin system HicB family antitoxin&lt;br&gt;Location: 156277 - 156642&lt;br&gt;&lt;br&gt;&lt;b&gt;BlastP hit with ctg2_494&lt;/b&gt;&lt;br&gt;Percentage identity: 89&lt;br&gt;Percentage coverage: 100&lt;br&gt;BLAST bit score: 228&lt;br&gt;E-value: 4.12e-77" locus_tag="C7U57_RS24565" class="clusterblast-orf" id="dummy-3_h3_6_15"  />
</g>
<g id="a3_0016"  >
<polygon points="240,85 242,80 242,90 240,85 " style="fill:#d89f15; stroke-width:1; stroke:black; " description="&lt;b&gt;C7U57_RS24570&lt;/b&gt;&lt;br&gt;type II toxin-antitoxin system HicA family toxin&lt;br&gt;Location: 156639 - 156890&lt;br&gt;&lt;br&gt;&lt;b&gt;BlastP hit with ctg2_495&lt;/b&gt;&lt;br&gt;Percentage identity: 93&lt;br&gt;Percentage coverage: 100&lt;br&gt;BLAST bit score: 157&lt;br&gt;E-value: 3.05e-50" locus_tag="C7U57_RS24570" class="clusterblast-orf" id="dummy-3_h3_6_16"  />
</g>
<g id="a3_0017"  >
<polygon points="245,90 385,90 390,85 385,80 245,80 245,90 " style="fill:#15d84f; stroke-width:1; stroke:black; " description="&lt;b&gt;C7U57_RS24575&lt;/b&gt;&lt;br&gt;non-ribosomal peptide synthetase&lt;br&gt;Location: 157101 - 171149&lt;br&gt;&lt;br&gt;&lt;b&gt;BlastP hit with ctg2_496&lt;/b&gt;&lt;br&gt;Percentage identity: 90&lt;br&gt;Percentage coverage: 100&lt;br&gt;BLAST bit score: 8402&lt;br&gt;E-value: 0.0&lt;br&gt;&lt;br&gt;&lt;b&gt;BlastP hit with ctg2_497&lt;/b&gt;&lt;br&gt;Percentage identity: 67&lt;br&gt;Percentage coverage: 53&lt;br&gt;BLAST bit score: 2670&lt;br&gt;E-value: 0.0" locus_tag="C7U57_RS24575" class="clusterblast-orf" id="dummy-3_h3_6_17"  />
</g>
<g id="a3_0018"  >
<polygon points="391,90 509,90 514,85 509,80 391,80 391,90 " style="fill:#15d84f; stroke-width:1; stroke:black; " description="&lt;b&gt;C7U57_RS24580&lt;/b&gt;&lt;br&gt;non-ribosomal peptide synthetase&lt;br&gt;Location: 171153 - 183005&lt;br&gt;&lt;br&gt;&lt;b&gt;BlastP hit with ctg2_496&lt;/b&gt;&lt;br&gt;Percentage identity: 68&lt;br&gt;Percentage coverage: 45&lt;br&gt;BLAST bit score: 2703&lt;br&gt;E-value: 0.0&lt;br&gt;&lt;br&gt;&lt;b&gt;BlastP hit with ctg2_497&lt;/b&gt;&lt;br&gt;Percentage identity: 92&lt;br&gt;Percentage coverage: 100&lt;br&gt;BLAST bit score: 7249&lt;br&gt;E-value: 0.0" locus_tag="C7U57_RS24580" class="clusterblast-orf" id="dummy-3_h3_6_18"  />
</g>
<g id="a3_0019"  >
<polygon points="516,85 521,80 542,80 542,90 521,90 516,85 " style="fill:#152cd8; stroke-width:1; stroke:black; " description="&lt;b&gt;C7U57_RS24585&lt;/b&gt;&lt;br&gt;TonB-dependent siderophore receptor&lt;br&gt;Location: 183275 - 185716&lt;br&gt;&lt;br&gt;&lt;b&gt;BlastP hit with ctg2_498&lt;/b&gt;&lt;br&gt;Percentage identity: 94&lt;br&gt;Percentage coverage: 100&lt;br&gt;BLAST bit score: 1563&lt;br&gt;E-value: 0.0&lt;br&gt;&lt;br&gt;&lt;b&gt;BlastP hit with ctg2_517&lt;/b&gt;&lt;br&gt;Percentage identity: 39&lt;br&gt;Percentage coverage: 97&lt;br&gt;BLAST bit score: 486&lt;br&gt;E-value: 3.08e-159" locus_tag="C7U57_RS24585" class="clusterblast-orf" id="dummy-3_h3_6_19"  />
</g>
<g id="a3_0020"  >
<polygon points="543,85 548,80 560,80 560,90 548,90 543,85 " style="fill:#d8159f; stroke-width:1; stroke:black; " description="&lt;b&gt;C7U57_RS24590&lt;/b&gt;&lt;br&gt;cyclic peptide export ABC transporter&lt;br&gt;Location: 185826 - 187478&lt;br&gt;&lt;br&gt;&lt;b&gt;BlastP hit with ctg2_499&lt;/b&gt;&lt;br&gt;Percentage identity: 99&lt;br&gt;Percentage coverage: 100&lt;br&gt;BLAST bit score: 1043&lt;br&gt;E-value: 0.0" locus_tag="C7U57_RS24590" class="clusterblast-orf" id="dummy-3_h3_6_20"  />
</g>
<g id="a3_0021"  >
<polygon points="562,90 566,90 571,85 566,80 562,80 562,90 " style="fill:#d8c115; stroke-width:1; stroke:black; " description="&lt;b&gt;C7U57_RS24595&lt;/b&gt;&lt;br&gt;N(5)-hydroxyornithine transformylase PvdF&lt;br&gt;Location: 187678 - 188505&lt;br&gt;&lt;br&gt;&lt;b&gt;BlastP hit with ctg2_500&lt;/b&gt;&lt;br&gt;Percentage identity: 98&lt;br&gt;Percentage coverage: 100&lt;br&gt;BLAST bit score: 553&lt;br&gt;E-value: 7.29e-201" locus_tag="C7U57_RS24595" class="clusterblast-orf" id="dummy-3_h3_6_21"  />
</g>
<g id="a3_0022"  >
<polygon points="586,85 591,80 595,80 595,90 591,90 586,85 " style="fill:#15d871; stroke-width:1; stroke:black; " description="&lt;b&gt;C7U57_RS24600&lt;/b&gt;&lt;br&gt;formylglycine-generating enzyme family protein&lt;br&gt;Location: 189929 - 190801&lt;br&gt;&lt;br&gt;&lt;b&gt;BlastP hit with ctg2_501&lt;/b&gt;&lt;br&gt;Percentage identity: 94&lt;br&gt;Percentage coverage: 100&lt;br&gt;BLAST bit score: 579&lt;br&gt;E-value: 1.43e-210" locus_tag="C7U57_RS24600" class="clusterblast-orf" id="dummy-3_h3_6_22"  />
</g>
<g id="a3_0023"  >
<polygon points="595,85 600,80 608,80 608,90 600,90 595,85 " style="fill:#2115d8; stroke-width:1; stroke:black; " description="&lt;b&gt;C7U57_RS24605&lt;/b&gt;&lt;br&gt;aminotransferase class V-fold PLP-dependent enzyme&lt;br&gt;Location: 190831 - 192111&lt;br&gt;&lt;br&gt;&lt;b&gt;BlastP hit with ctg2_502&lt;/b&gt;&lt;br&gt;Percentage identity: 89&lt;br&gt;Percentage coverage: 100&lt;br&gt;BLAST bit score: 779&lt;br&gt;E-value: 6.25e-285" locus_tag="C7U57_RS24605" class="clusterblast-orf" id="dummy-3_h3_6_23"  />
</g>
<g id="a3_0024"  >
<polygon points="608,85 613,80 622,80 622,90 613,90 608,85 " style="fill:#d8157c; stroke-width:1; stroke:black; " description="&lt;b&gt;C7U57_RS24610&lt;/b&gt;&lt;br&gt;pyoverdine-tailoring dipeptidase-like protein PvdM&lt;br&gt;Location: 192130 - 193479&lt;br&gt;&lt;br&gt;&lt;b&gt;BlastP hit with ctg2_503&lt;/b&gt;&lt;br&gt;Percentage identity: 96&lt;br&gt;Percentage coverage: 100&lt;br&gt;BLAST bit score: 885&lt;br&gt;E-value: 0.0" locus_tag="C7U57_RS24610" class="clusterblast-orf" id="dummy-3_h3_6_24"  />
</g>
<g id="a3_0025"  >
<polygon points="624,90 636,90 641,85 636,80 624,80 624,90 " style="fill:#cdd815; stroke-width:1; stroke:black; " description="&lt;b&gt;C7U57_RS24615&lt;/b&gt;&lt;br&gt;PvdJ/PvdD/PvdP-like protein&lt;br&gt;Location: 193622 - 195241&lt;br&gt;&lt;br&gt;&lt;b&gt;BlastP hit with ctg2_504&lt;/b&gt;&lt;br&gt;Percentage identity: 94&lt;br&gt;Percentage coverage: 100&lt;br&gt;BLAST bit score: 1084&lt;br&gt;E-value: 0.0" locus_tag="C7U57_RS24615" class="clusterblast-orf" id="dummy-3_h3_6_25"  />
</g>
<g id="a3_0026"  >
<polygon points="641,85 646,80 650,80 650,90 646,90 641,85 " style="fill:#15d893; stroke-width:1; stroke:black; " description="&lt;b&gt;C7U57_RS24620&lt;/b&gt;&lt;br&gt;DUF1853 family protein&lt;br&gt;Location: 195234 - 196181&lt;br&gt;&lt;br&gt;&lt;b&gt;BlastP hit with ctg2_505&lt;/b&gt;&lt;br&gt;Percentage identity: 94&lt;br&gt;Percentage coverage: 100&lt;br&gt;BLAST bit score: 635&lt;br&gt;E-value: 1.11e-231" locus_tag="C7U57_RS24620" class="clusterblast-orf" id="dummy-3_h3_6_26"  />
</g>
<g id="a3_0027"  >
<polygon points="652,90 656,90 661,85 656,80 652,80 652,90 " style="fill:#4315d8; stroke-width:1; stroke:black; " description="&lt;b&gt;C7U57_RS24625&lt;/b&gt;&lt;br&gt;NAD(+) kinase&lt;br&gt;Location: 196326 - 197216&lt;br&gt;&lt;br&gt;&lt;b&gt;BlastP hit with ctg2_506&lt;/b&gt;&lt;br&gt;Percentage identity: 100&lt;br&gt;Percentage coverage: 100&lt;br&gt;BLAST bit score: 599&lt;br&gt;E-value: 3.81e-218" locus_tag="C7U57_RS24625" class="clusterblast-orf" id="dummy-3_h3_6_27"  />
</g>
<g id="a3_0028"  >
<polygon points="661,90 666,90 671,85 666,80 661,80 661,90 " style="fill:#d8155a; stroke-width:1; stroke:black; " description="&lt;b&gt;C7U57_RS24630&lt;/b&gt;&lt;br&gt;metallophosphoesterase&lt;br&gt;Location: 197213 - 198187&lt;br&gt;&lt;br&gt;&lt;b&gt;BlastP hit with ctg2_507&lt;/b&gt;&lt;br&gt;Percentage identity: 97&lt;br&gt;Percentage coverage: 100&lt;br&gt;BLAST bit score: 682&lt;br&gt;E-value: 3.8e-250" locus_tag="C7U57_RS24630" class="clusterblast-orf" id="dummy-3_h3_6_28"  />
</g>
<g id="a3_0029"  >
<polygon points="671,90 675,90 680,85 675,80 671,80 671,90 " style="fill:#aad815; stroke-width:1; stroke:black; " description="&lt;b&gt;C7U57_RS24635&lt;/b&gt;&lt;br&gt;rhomboid family intramembrane serine protease&lt;br&gt;Location: 198184 - 199053&lt;br&gt;&lt;br&gt;&lt;b&gt;BlastP hit with ctg2_508&lt;/b&gt;&lt;br&gt;Percentage identity: 94&lt;br&gt;Percentage coverage: 100&lt;br&gt;BLAST bit score: 550&lt;br&gt;E-value: 5.08e-199" locus_tag="C7U57_RS24635" class="clusterblast-orf" id="dummy-3_h3_6_29"  />
</g>
<g id="a3_0030"  >
<polygon points="680,90 683,85 680,80 680,90 " style="fill:#15d8b6; stroke-width:1; stroke:black; " description="&lt;b&gt;C7U57_RS24640&lt;/b&gt;&lt;br&gt;DUF1315 family protein&lt;br&gt;Location: 199068 - 199328&lt;br&gt;&lt;br&gt;&lt;b&gt;BlastP hit with ctg2_509&lt;/b&gt;&lt;br&gt;Percentage identity: 100&lt;br&gt;Percentage coverage: 100&lt;br&gt;BLAST bit score: 175&lt;br&gt;E-value: 3.62e-57" locus_tag="C7U57_RS24640" class="clusterblast-orf" id="dummy-3_h3_6_30"  />
</g>
<g id="a3_0031"  >
<polygon points="683,90 687,90 692,85 687,80 683,80 683,90 " style="fill:#6615d8; stroke-width:1; stroke:black; " description="&lt;b&gt;C7U57_RS24645&lt;/b&gt;&lt;br&gt;DUF2797 domain-containing protein&lt;br&gt;Location: 199325 - 200155&lt;br&gt;&lt;br&gt;&lt;b&gt;BlastP hit with ctg2_510&lt;/b&gt;&lt;br&gt;Percentage identity: 95&lt;br&gt;Percentage coverage: 100&lt;br&gt;BLAST bit score: 538&lt;br&gt;E-value: 1.4e-194" locus_tag="C7U57_RS24645" class="clusterblast-orf" id="dummy-3_h3_6_31"  />
</g>
<g id="a3_0032"  >
<polygon points="692,90 715,90 720,85 715,80 692,80 692,90 " style="fill:#d81538; stroke-width:1; stroke:black; " description="&lt;b&gt;C7U57_RS24650&lt;/b&gt;&lt;br&gt;aminopeptidase N&lt;br&gt;Location: 200169 - 202826&lt;br&gt;&lt;br&gt;&lt;b&gt;BlastP hit with ctg2_511&lt;/b&gt;&lt;br&gt;Percentage identity: 96&lt;br&gt;Percentage coverage: 100&lt;br&gt;BLAST bit score: 1697&lt;br&gt;E-value: 0.0" locus_tag="C7U57_RS24650" class="clusterblast-orf" id="dummy-3_h3_6_32"  />
</g>
</svg>
