<svg xmlns="http://www.w3.org/2000/svg" xmlns:xlink="http://www.w3.org/1999/xlink" version="1.1" x="0" y="0" height="230" width="800" viewBox="0 0 800 230" preserveAspectRatio="none"  >
<g label="Query sequence" class="clusterblast-cluster"  >
<text x="5" y="20" class="clusterblast-acc"  >
Query sequence</text>
<line x1="10" y1="35" x2="778.0" y2="35" style="stroke-width:1; stroke:grey; "  />
<polygon points="0,40 4,40 9,35 4,30 0,30 0,40 " style="fill:#d81515; stroke-width:1; stroke:black; " description="&lt;b&gt;ctg2_478&lt;/b&gt;&lt;br&gt;ctg2 478&lt;br&gt;Location: 532188 - 533103" locus_tag="ctg2_478" class="clusterblast-orf" id="dummy-3_q0_0_all"  />
<polygon points="10,35 15,30 17,30 17,40 15,40 10,35 " style="fill:#65d815; stroke-width:1; stroke:black; " description="&lt;b&gt;ctg2_479&lt;/b&gt;&lt;br&gt;ctg2 479&lt;br&gt;Location: 533223 - 533889" locus_tag="ctg2_479" class="clusterblast-orf" id="dummy-3_q1_0_all"  />
<polygon points="17,35 22,30 52,30 52,40 22,40 17,35 " style="fill:#65d815; stroke-width:1; stroke:black; " description="&lt;b&gt;ctg2_480&lt;/b&gt;&lt;br&gt;ctg2 480&lt;br&gt;Location: 533863 - 537247" locus_tag="ctg2_480" class="clusterblast-orf" id="dummy-3_q2_0_all"  />
<polygon points="55,40 63,40 68,35 63,30 55,30 55,40 " style="fill:#15b6d8; stroke-width:1; stroke:black; " description="&lt;b&gt;ctg2_481&lt;/b&gt;&lt;br&gt;ctg2 481&lt;br&gt;Location: 537549 - 538758" locus_tag="ctg2_481" class="clusterblast-orf" id="dummy-3_q3_0_all"  />
<polygon points="70,40 74,40 79,35 74,30 70,30 70,40 " style="fill:#8815d8; stroke-width:1; stroke:black; " description="&lt;b&gt;ctg2_482&lt;/b&gt;&lt;br&gt;ctg2 482&lt;br&gt;Location: 538936 - 539854" locus_tag="ctg2_482" class="clusterblast-orf" id="dummy-3_q4_0_all"  />
<polygon points="79,40 86,40 91,35 86,30 79,30 79,40 " style="fill:#d83815; stroke-width:1; stroke:black; " description="&lt;b&gt;ctg2_483&lt;/b&gt;&lt;br&gt;ctg2 483&lt;br&gt;Location: 539864 - 541025" locus_tag="ctg2_483" class="clusterblast-orf" id="dummy-3_q5_0_all"  />
<polygon points="91,40 94,40 99,35 94,30 91,30 91,40 " style="fill:#43d815; stroke-width:1; stroke:black; " description="&lt;b&gt;ctg2_484&lt;/b&gt;&lt;br&gt;ctg2 484&lt;br&gt;Location: 541021 - 541780" locus_tag="ctg2_484" class="clusterblast-orf" id="dummy-3_q6_0_all"  />
<polygon points="99,40 102,40 107,35 102,30 99,30 99,40 " style="fill:#1593d8; stroke-width:1; stroke:black; " description="&lt;b&gt;ctg2_485&lt;/b&gt;&lt;br&gt;ctg2 485&lt;br&gt;Location: 541790 - 542480" locus_tag="ctg2_485" class="clusterblast-orf" id="dummy-3_q7_0_all"  />
<polygon points="109,40 117,40 122,35 117,30 109,30 109,40 " style="fill:#aa15d8; stroke-width:1; stroke:black; " description="&lt;b&gt;ctg2_486&lt;/b&gt;&lt;br&gt;ctg2 486&lt;br&gt;Location: 542699 - 543929" locus_tag="ctg2_486" class="clusterblast-orf" id="dummy-3_q8_0_all"  />
<polygon points="122,40 125,35 122,30 122,40 " style="fill:#d85a15; stroke-width:1; stroke:black; " description="&lt;b&gt;ctg2_487&lt;/b&gt;&lt;br&gt;ctg2 487&lt;br&gt;Location: 543931 - 544279" locus_tag="ctg2_487" class="clusterblast-orf" id="dummy-3_q9_0_all"  />
<polygon points="125,40 131,40 136,35 131,30 125,30 125,40 " style="fill:#21d815; stroke-width:1; stroke:black; " description="&lt;b&gt;ctg2_488&lt;/b&gt;&lt;br&gt;ctg2 488&lt;br&gt;Location: 544294 - 545338" locus_tag="ctg2_488" class="clusterblast-orf" id="dummy-3_q10_0_all"  />
<polygon points="136,40 141,40 146,35 141,30 136,30 136,40 " style="fill:#1571d8; stroke-width:1; stroke:black; " description="&lt;b&gt;ctg2_489&lt;/b&gt;&lt;br&gt;ctg2 489&lt;br&gt;Location: 545341 - 546298" locus_tag="ctg2_489" class="clusterblast-orf" id="dummy-3_q11_0_all"  />
<polygon points="147,40 148,40 153,35 148,30 147,30 147,40 " style="fill:#cd15d8; stroke-width:1; stroke:black; " description="&lt;b&gt;ctg2_490&lt;/b&gt;&lt;br&gt;ctg2 490&lt;br&gt;Location: 546365 - 546938" locus_tag="ctg2_490" class="clusterblast-orf" id="dummy-3_q12_0_all"  />
<polygon points="153,40 162,40 167,35 162,30 153,30 153,40 " style="fill:#d87c15; stroke-width:1; stroke:black; " description="&lt;b&gt;ctg2_491&lt;/b&gt;&lt;br&gt;ctg2 491&lt;br&gt;Location: 546963 - 548319" locus_tag="ctg2_491" class="clusterblast-orf" id="dummy-3_q13_0_all"  />
<polygon points="167,35 172,30 173,30 173,40 172,40 167,35 " style="fill:#15d82c; stroke-width:1; stroke:black; " description="&lt;b&gt;ctg2_492&lt;/b&gt;&lt;br&gt;ctg2 492&lt;br&gt;Location: 548302 - 548896" locus_tag="ctg2_492" class="clusterblast-orf" id="dummy-3_q14_0_all"  />
<polygon points="175,40 182,40 187,35 182,30 175,30 175,40 " style="fill:#154fd8; stroke-width:1; stroke:black; " description="&lt;b&gt;ctg2_493&lt;/b&gt;&lt;br&gt;ctg2 493&lt;br&gt;Location: 549038 - 550229" locus_tag="ctg2_493" class="clusterblast-orf" id="dummy-3_q15_0_all"  />
<polygon points="187,35 191,30 191,40 187,35 " style="fill:#d815c1; stroke-width:1; stroke:black; " description="&lt;b&gt;ctg2_494&lt;/b&gt;&lt;br&gt;ctg2 494&lt;br&gt;Location: 550211 - 550577" locus_tag="ctg2_494" class="clusterblast-orf" id="dummy-3_q16_0_all"  />
<polygon points="191,35 193,30 193,40 191,35 " style="fill:#d89f15; stroke-width:1; stroke:black; " description="&lt;b&gt;ctg2_495&lt;/b&gt;&lt;br&gt;ctg2 495&lt;br&gt;Location: 550573 - 550825" locus_tag="ctg2_495" class="clusterblast-orf" id="dummy-3_q17_0_all"  />
<polygon points="195,40 336,40 341,35 336,30 195,30 195,40 " style="fill:#15d84f; stroke-width:1; stroke:black; " description="&lt;b&gt;ctg2_496&lt;/b&gt;&lt;br&gt;ctg2 496&lt;br&gt;Location: 551033 - 565088" locus_tag="ctg2_496" class="clusterblast-orf" id="dummy-3_q18_0_all"  />
<polygon points="341,40 459,40 464,35 459,30 341,30 341,40 " style="fill:#15d84f; stroke-width:1; stroke:black; " description="&lt;b&gt;ctg2_497&lt;/b&gt;&lt;br&gt;ctg2 497&lt;br&gt;Location: 565091 - 576944" locus_tag="ctg2_497" class="clusterblast-orf" id="dummy-3_q19_0_all"  />
<polygon points="466,35 471,30 491,30 491,40 471,40 466,35 " style="fill:#152cd8; stroke-width:1; stroke:black; " description="&lt;b&gt;ctg2_498&lt;/b&gt;&lt;br&gt;ctg2 498&lt;br&gt;Location: 577088 - 579530" locus_tag="ctg2_498" class="clusterblast-orf" id="dummy-3_q20_0_all"  />
<polygon points="492,35 497,30 510,30 510,40 497,40 492,35 " style="fill:#d8159f; stroke-width:1; stroke:black; " description="&lt;b&gt;ctg2_499&lt;/b&gt;&lt;br&gt;ctg2 499&lt;br&gt;Location: 579639 - 581292" locus_tag="ctg2_499" class="clusterblast-orf" id="dummy-3_q21_0_all"  />
<polygon points="512,40 515,40 520,35 515,30 512,30 512,40 " style="fill:#d8c115; stroke-width:1; stroke:black; " description="&lt;b&gt;ctg2_500&lt;/b&gt;&lt;br&gt;ctg2 500&lt;br&gt;Location: 581490 - 582318" locus_tag="ctg2_500" class="clusterblast-orf" id="dummy-3_q22_0_all"  />
<polygon points="522,35 527,30 531,30 531,40 527,40 522,35 " style="fill:#15d871; stroke-width:1; stroke:black; " description="&lt;b&gt;ctg2_501&lt;/b&gt;&lt;br&gt;ctg2 501&lt;br&gt;Location: 582460 - 583333" locus_tag="ctg2_501" class="clusterblast-orf" id="dummy-3_q23_0_all"  />
<polygon points="531,35 536,30 544,30 544,40 536,40 531,35 " style="fill:#2115d8; stroke-width:1; stroke:black; " description="&lt;b&gt;ctg2_502&lt;/b&gt;&lt;br&gt;ctg2 502&lt;br&gt;Location: 583366 - 584647" locus_tag="ctg2_502" class="clusterblast-orf" id="dummy-3_q24_0_all"  />
<polygon points="545,35 550,30 559,30 559,40 550,40 545,35 " style="fill:#d8157c; stroke-width:1; stroke:black; " description="&lt;b&gt;ctg2_503&lt;/b&gt;&lt;br&gt;ctg2 503&lt;br&gt;Location: 584665 - 586015" locus_tag="ctg2_503" class="clusterblast-orf" id="dummy-3_q25_0_all"  />
<polygon points="560,40 572,40 577,35 572,30 560,30 560,40 " style="fill:#cdd815; stroke-width:1; stroke:black; " description="&lt;b&gt;ctg2_504&lt;/b&gt;&lt;br&gt;ctg2 504&lt;br&gt;Location: 586157 - 587777" locus_tag="ctg2_504" class="clusterblast-orf" id="dummy-3_q26_0_all"  />
<polygon points="577,35 582,30 587,30 587,40 582,40 577,35 " style="fill:#15d893; stroke-width:1; stroke:black; " description="&lt;b&gt;ctg2_505&lt;/b&gt;&lt;br&gt;ctg2 505&lt;br&gt;Location: 587769 - 588717" locus_tag="ctg2_505" class="clusterblast-orf" id="dummy-3_q27_0_all"  />
<polygon points="588,40 593,40 598,35 593,30 588,30 588,40 " style="fill:#4315d8; stroke-width:1; stroke:black; " description="&lt;b&gt;ctg2_506&lt;/b&gt;&lt;br&gt;ctg2 506&lt;br&gt;Location: 588860 - 589751" locus_tag="ctg2_506" class="clusterblast-orf" id="dummy-3_q28_0_all"  />
<polygon points="597,40 603,40 608,35 603,30 597,30 597,40 " style="fill:#d8155a; stroke-width:1; stroke:black; " description="&lt;b&gt;ctg2_507&lt;/b&gt;&lt;br&gt;ctg2 507&lt;br&gt;Location: 589750 - 590722" locus_tag="ctg2_507" class="clusterblast-orf" id="dummy-3_q29_0_all"  />
<polygon points="608,40 612,40 617,35 612,30 608,30 608,40 " style="fill:#aad815; stroke-width:1; stroke:black; " description="&lt;b&gt;ctg2_508&lt;/b&gt;&lt;br&gt;ctg2 508&lt;br&gt;Location: 590718 - 591588" locus_tag="ctg2_508" class="clusterblast-orf" id="dummy-3_q30_0_all"  />
<polygon points="617,40 619,35 617,30 617,40 " style="fill:#15d8b6; stroke-width:1; stroke:black; " description="&lt;b&gt;ctg2_509&lt;/b&gt;&lt;br&gt;ctg2 509&lt;br&gt;Location: 591602 - 591863" locus_tag="ctg2_509" class="clusterblast-orf" id="dummy-3_q31_0_all"  />
<polygon points="619,40 623,40 628,35 623,30 619,30 619,40 " style="fill:#6615d8; stroke-width:1; stroke:black; " description="&lt;b&gt;ctg2_510&lt;/b&gt;&lt;br&gt;ctg2 510&lt;br&gt;Location: 591859 - 592690" locus_tag="ctg2_510" class="clusterblast-orf" id="dummy-3_q32_0_all"  />
<polygon points="628,40 651,40 656,35 651,30 628,30 628,40 " style="fill:#d81538; stroke-width:1; stroke:black; " description="&lt;b&gt;ctg2_511&lt;/b&gt;&lt;br&gt;ctg2 511&lt;br&gt;Location: 592703 - 595361" locus_tag="ctg2_511" class="clusterblast-orf" id="dummy-3_q33_0_all"  />
<polygon points="658,40 660,40 665,35 660,30 658,30 658,40 " style="fill:#88d815; stroke-width:1; stroke:black; " description="&lt;b&gt;ctg2_512&lt;/b&gt;&lt;br&gt;ctg2 512&lt;br&gt;Location: 595567 - 596284" locus_tag="ctg2_512" class="clusterblast-orf" id="dummy-3_q34_0_all"  />
<polygon points="666,40 669,35 666,30 666,40 " style="fill:#15d8d8; stroke-width:1; stroke:black; " description="&lt;b&gt;ctg2_513&lt;/b&gt;&lt;br&gt;ctg2 513&lt;br&gt;Location: 596336 - 596672" locus_tag="ctg2_513" class="clusterblast-orf" id="dummy-3_q35_0_all"  />
<polygon points="670,40 676,40 681,35 676,30 670,30 670,40 " style="fill:white; stroke-width:1; stroke:black; " description="&lt;b&gt;ctg2_514&lt;/b&gt;&lt;br&gt;ctg2 514&lt;br&gt;Location: 596687 - 597794" locus_tag="ctg2_514" class="clusterblast-orf" id="dummy-3_q36_0_all"  />
<polygon points="683,40 683,40 688,35 683,30 683,30 683,40 " style="fill:white; stroke-width:1; stroke:black; " description="&lt;b&gt;ctg2_515&lt;/b&gt;&lt;br&gt;ctg2 515&lt;br&gt;Location: 597956 - 598448" locus_tag="ctg2_515" class="clusterblast-orf" id="dummy-3_q37_0_all"  />
<polygon points="689,35 691,30 691,40 689,35 " style="fill:white; stroke-width:1; stroke:black; " description="&lt;b&gt;ctg2_516&lt;/b&gt;&lt;br&gt;ctg2 516&lt;br&gt;Location: 598549 - 598771" locus_tag="ctg2_516" class="clusterblast-orf" id="dummy-3_q38_0_all"  />
<polygon points="693,35 698,30 716,30 716,40 698,40 693,35 " style="fill:#152cd8; stroke-width:1; stroke:black; " description="&lt;b&gt;ctg2_517&lt;/b&gt;&lt;br&gt;ctg2 517&lt;br&gt;Location: 598913 - 601142" locus_tag="ctg2_517" class="clusterblast-orf" id="dummy-3_q39_0_all"  />
<polygon points="717,35 722,30 735,30 735,40 722,40 717,35 " style="fill:white; stroke-width:1; stroke:black; " description="&lt;b&gt;ctg2_518&lt;/b&gt;&lt;br&gt;ctg2 518&lt;br&gt;Location: 601268 - 603011" locus_tag="ctg2_518" class="clusterblast-orf" id="dummy-3_q40_0_all"  />
<polygon points="737,35 739,30 739,40 737,35 " style="fill:white; stroke-width:1; stroke:black; " description="&lt;b&gt;ctg2_519&lt;/b&gt;&lt;br&gt;ctg2 519&lt;br&gt;Location: 603175 - 603352" locus_tag="ctg2_519" class="clusterblast-orf" id="dummy-3_q41_0_all"  />
<polygon points="742,40 747,40 752,35 747,30 742,30 742,40 " style="fill:white; stroke-width:1; stroke:black; " description="&lt;b&gt;ctg2_520&lt;/b&gt;&lt;br&gt;ctg2 520&lt;br&gt;Location: 603621 - 604605" locus_tag="ctg2_520" class="clusterblast-orf" id="dummy-3_q42_0_all"  />
<polygon points="752,40 763,40 768,35 763,30 752,30 752,40 " style="fill:white; stroke-width:1; stroke:black; " description="&lt;b&gt;ctg2_521&lt;/b&gt;&lt;br&gt;ctg2 521&lt;br&gt;Location: 604601 - 606125" locus_tag="ctg2_521" class="clusterblast-orf" id="dummy-3_q43_0_all"  />
<polygon points="768,40 771,40 776,35 771,30 768,30 768,40 " style="fill:white; stroke-width:1; stroke:black; " description="&lt;b&gt;ctg2_522&lt;/b&gt;&lt;br&gt;ctg2 522&lt;br&gt;Location: 606121 - 606946" locus_tag="ctg2_522" class="clusterblast-orf" id="dummy-3_q44_0_all"  />
<polygon points="777,35 780,30 780,40 777,35 " style="fill:white; stroke-width:1; stroke:black; " description="&lt;b&gt;ctg2_523&lt;/b&gt;&lt;br&gt;ctg2 523&lt;br&gt;Location: 607021 - 607282" locus_tag="ctg2_523" class="clusterblast-orf" id="dummy-3_q45_0_all"  />
</g>
<g label="NZ_LT907842" description="NZ_LT907842 (5913901-5979533): Pseudomonas fluorescens strain ATCC 13525 chro... (100% of genes show similarity), NRPS" class="clusterblast-cluster"  >
<text x="5" y="70" class="clusterblast-acc"  >
<a xlink:href="https://antismash-db.secondarymetabolites.org/area.html?record=NZ_LT907842&amp;start=5913901&amp;end=5979533" target="_blank">NZ_LT907842 (5913901-5979533)</a>: Pseudomonas fluorescens strain ATCC 13525 chro... (100% of genes show similarity), NRPS</text>
<line x1="10" y1="85" x2="778.0" y2="85" style="stroke-width:1; stroke:grey; "  />
</g>
<g id="a3_000"  >
<polygon points="49,85 54,80 59,80 59,90 54,90 49,85 " style="fill:#1593d8; stroke-width:1; stroke:black; " description="&lt;b&gt;CPH89_RS27415&lt;/b&gt;&lt;br&gt;ABC transporter ATP-binding protein&lt;br&gt;Location: 5979533 - 5978505&lt;br&gt;&lt;br&gt;&lt;b&gt;BlastP hit with ctg2_485&lt;/b&gt;&lt;br&gt;Percentage identity: 32&lt;br&gt;Percentage coverage: 102&lt;br&gt;BLAST bit score: 102&lt;br&gt;E-value: 6.71e-24" locus_tag="CPH89_RS27415" class="clusterblast-orf" id="dummy-3_h3_3_0"  />
</g>
<g id="a3_001"  >
<polygon points="62,90 65,90 70,85 65,80 62,80 62,90 " style="fill:#d81515; stroke-width:1; stroke:black; " description="&lt;b&gt;CPH89_RS27410&lt;/b&gt;&lt;br&gt;IclR family transcriptional regulator&lt;br&gt;Location: 5978262 - 5977432&lt;br&gt;&lt;br&gt;&lt;b&gt;BlastP hit with ctg2_478&lt;/b&gt;&lt;br&gt;Percentage identity: 99&lt;br&gt;Percentage coverage: 91&lt;br&gt;BLAST bit score: 530&lt;br&gt;E-value: 3.41e-191" locus_tag="CPH89_RS27410" class="clusterblast-orf" id="dummy-3_h3_3_1"  />
</g>
<g id="a3_002"  >
<polygon points="72,85 77,80 79,80 79,90 77,90 72,85 " style="fill:#65d815; stroke-width:1; stroke:black; " description="&lt;b&gt;CPH89_RS27405&lt;/b&gt;&lt;br&gt;response regulator&lt;br&gt;Location: 5977311 - 5976646&lt;br&gt;&lt;br&gt;&lt;b&gt;BlastP hit with ctg2_479&lt;/b&gt;&lt;br&gt;Percentage identity: 100&lt;br&gt;Percentage coverage: 100&lt;br&gt;BLAST bit score: 424&lt;br&gt;E-value: 1.91e-151&lt;br&gt;&lt;br&gt;&lt;b&gt;BlastP hit with ctg2_480&lt;/b&gt;&lt;br&gt;Percentage identity: 37&lt;br&gt;Percentage coverage: 13&lt;br&gt;BLAST bit score: 79&lt;br&gt;E-value: 3.15e-14" locus_tag="CPH89_RS27405" class="clusterblast-orf" id="dummy-3_h3_3_2"  />
</g>
<g id="a3_003"  >
<polygon points="78,85 83,80 114,80 114,90 83,90 78,85 " style="fill:#65d815; stroke-width:1; stroke:black; " description="&lt;b&gt;CPH89_RS27400&lt;/b&gt;&lt;br&gt;response regulator&lt;br&gt;Location: 5976671 - 5973288&lt;br&gt;&lt;br&gt;&lt;b&gt;BlastP hit with ctg2_479&lt;/b&gt;&lt;br&gt;Percentage identity: 38&lt;br&gt;Percentage coverage: 68&lt;br&gt;BLAST bit score: 82&lt;br&gt;E-value: 5.42e-16&lt;br&gt;&lt;br&gt;&lt;b&gt;BlastP hit with ctg2_480&lt;/b&gt;&lt;br&gt;Percentage identity: 98&lt;br&gt;Percentage coverage: 100&lt;br&gt;BLAST bit score: 2164&lt;br&gt;E-value: 0.0" locus_tag="CPH89_RS27400" class="clusterblast-orf" id="dummy-3_h3_3_3"  />
</g>
<g id="a3_004"  >
<polygon points="117,90 124,90 129,85 124,80 117,80 117,90 " style="fill:#15b6d8; stroke-width:1; stroke:black; " description="&lt;b&gt;CPH89_RS27395&lt;/b&gt;&lt;br&gt;urea ABC transporter substrate-binding protein&lt;br&gt;Location: 5972985 - 5971777&lt;br&gt;&lt;br&gt;&lt;b&gt;BlastP hit with ctg2_481&lt;/b&gt;&lt;br&gt;Percentage identity: 100&lt;br&gt;Percentage coverage: 100&lt;br&gt;BLAST bit score: 793&lt;br&gt;E-value: 1.55e-291" locus_tag="CPH89_RS27395" class="clusterblast-orf" id="dummy-3_h3_3_4"  />
</g>
<g id="a3_005"  >
<polygon points="131,90 135,90 140,85 135,80 131,80 131,90 " style="fill:#8815d8; stroke-width:1; stroke:black; " description="&lt;b&gt;CPH89_RS27390&lt;/b&gt;&lt;br&gt;urea ABC transporter permease subunit UrtB&lt;br&gt;Location: 5971640 - 5970723&lt;br&gt;&lt;br&gt;&lt;b&gt;BlastP hit with ctg2_482&lt;/b&gt;&lt;br&gt;Percentage identity: 100&lt;br&gt;Percentage coverage: 100&lt;br&gt;BLAST bit score: 573&lt;br&gt;E-value: 8.82e-208" locus_tag="CPH89_RS27390" class="clusterblast-orf" id="dummy-3_h3_3_5"  />
</g>
<g id="a3_006"  >
<polygon points="140,90 147,90 152,85 147,80 140,80 140,90 " style="fill:#d83815; stroke-width:1; stroke:black; " description="&lt;b&gt;CPH89_RS27385&lt;/b&gt;&lt;br&gt;urea ABC transporter permease subunit UrtC&lt;br&gt;Location: 5970712 - 5969552&lt;br&gt;&lt;br&gt;&lt;b&gt;BlastP hit with ctg2_483&lt;/b&gt;&lt;br&gt;Percentage identity: 98&lt;br&gt;Percentage coverage: 100&lt;br&gt;BLAST bit score: 728&lt;br&gt;E-value: 3.63e-266" locus_tag="CPH89_RS27385" class="clusterblast-orf" id="dummy-3_h3_3_6"  />
</g>
<g id="a3_007"  >
<polygon points="152,90 155,90 160,85 155,80 152,80 152,90 " style="fill:#43d815; stroke-width:1; stroke:black; " description="&lt;b&gt;CPH89_RS27380&lt;/b&gt;&lt;br&gt;urea ABC transporter ATP-binding protein UrtD&lt;br&gt;Location: 5969555 - 5968797&lt;br&gt;&lt;br&gt;&lt;b&gt;BlastP hit with ctg2_484&lt;/b&gt;&lt;br&gt;Percentage identity: 99&lt;br&gt;Percentage coverage: 100&lt;br&gt;BLAST bit score: 490&lt;br&gt;E-value: 1.76e-176" locus_tag="CPH89_RS27380" class="clusterblast-orf" id="dummy-3_h3_3_7"  />
</g>
<g id="a3_008"  >
<polygon points="160,90 162,90 167,85 162,80 160,80 160,90 " style="fill:#1593d8; stroke-width:1; stroke:black; " description="&lt;b&gt;CPH89_RS27375&lt;/b&gt;&lt;br&gt;urea ABC transporter ATP-binding subunit UrtE&lt;br&gt;Location: 5968786 - 5968097&lt;br&gt;&lt;br&gt;&lt;b&gt;BlastP hit with ctg2_485&lt;/b&gt;&lt;br&gt;Percentage identity: 98&lt;br&gt;Percentage coverage: 100&lt;br&gt;BLAST bit score: 436&lt;br&gt;E-value: 6.62e-156" locus_tag="CPH89_RS27375" class="clusterblast-orf" id="dummy-3_h3_3_8"  />
</g>
<g id="a3_009"  >
<polygon points="170,90 177,90 182,85 177,80 170,80 170,90 " style="fill:#aa15d8; stroke-width:1; stroke:black; " description="&lt;b&gt;CPH89_RS27370&lt;/b&gt;&lt;br&gt;acetamidase/formamidase family protein&lt;br&gt;Location: 5967878 - 5966649&lt;br&gt;&lt;br&gt;&lt;b&gt;BlastP hit with ctg2_486&lt;/b&gt;&lt;br&gt;Percentage identity: 99&lt;br&gt;Percentage coverage: 100&lt;br&gt;BLAST bit score: 850&lt;br&gt;E-value: 1.05e-313" locus_tag="CPH89_RS27370" class="clusterblast-orf" id="dummy-3_h3_3_9"  />
</g>
<g id="a3_0010"  >
<polygon points="182,90 186,85 182,80 182,90 " style="fill:#d85a15; stroke-width:1; stroke:black; " description="&lt;b&gt;CPH89_RS27365&lt;/b&gt;&lt;br&gt;zinc ribbon domain-containing protein&lt;br&gt;Location: 5966646 - 5966299&lt;br&gt;&lt;br&gt;&lt;b&gt;BlastP hit with ctg2_487&lt;/b&gt;&lt;br&gt;Percentage identity: 92&lt;br&gt;Percentage coverage: 100&lt;br&gt;BLAST bit score: 233&lt;br&gt;E-value: 1.93e-79" locus_tag="CPH89_RS27365" class="clusterblast-orf" id="dummy-3_h3_3_10"  />
</g>
<g id="a3_0011"  >
<polygon points="186,90 192,90 197,85 192,80 186,80 186,90 " style="fill:#21d815; stroke-width:1; stroke:black; " description="&lt;b&gt;CPH89_RS27360&lt;/b&gt;&lt;br&gt;aliphatic amidase&lt;br&gt;Location: 5966283 - 5965240&lt;br&gt;&lt;br&gt;&lt;b&gt;BlastP hit with ctg2_488&lt;/b&gt;&lt;br&gt;Percentage identity: 98&lt;br&gt;Percentage coverage: 100&lt;br&gt;BLAST bit score: 716&lt;br&gt;E-value: 6.45e-263" locus_tag="CPH89_RS27360" class="clusterblast-orf" id="dummy-3_h3_3_11"  />
</g>
<g id="a3_0012"  >
<polygon points="197,90 202,90 207,85 202,80 197,80 197,90 " style="fill:#1571d8; stroke-width:1; stroke:black; " description="&lt;b&gt;CPH89_RS27355&lt;/b&gt;&lt;br&gt;ATP-dependent Clp protease ATP-binding subunit&lt;br&gt;Location: 5965236 - 5964253&lt;br&gt;&lt;br&gt;&lt;b&gt;BlastP hit with ctg2_489&lt;/b&gt;&lt;br&gt;Percentage identity: 95&lt;br&gt;Percentage coverage: 100&lt;br&gt;BLAST bit score: 587&lt;br&gt;E-value: 2.21e-212" locus_tag="CPH89_RS27355" class="clusterblast-orf" id="dummy-3_h3_3_12"  />
</g>
<g id="a3_0013"  >
<polygon points="208,90 209,90 214,85 209,80 208,80 208,90 " style="fill:#cd15d8; stroke-width:1; stroke:black; " description="&lt;b&gt;CPH89_RS27350&lt;/b&gt;&lt;br&gt;DUF2239 family protein&lt;br&gt;Location: 5964212 - 5963640&lt;br&gt;&lt;br&gt;&lt;b&gt;BlastP hit with ctg2_490&lt;/b&gt;&lt;br&gt;Percentage identity: 93&lt;br&gt;Percentage coverage: 100&lt;br&gt;BLAST bit score: 362&lt;br&gt;E-value: 4.43e-128" locus_tag="CPH89_RS27350" class="clusterblast-orf" id="dummy-3_h3_3_13"  />
</g>
<g id="a3_0014"  >
<polygon points="214,90 223,90 228,85 223,80 214,80 214,90 " style="fill:#d87c15; stroke-width:1; stroke:black; " description="&lt;b&gt;CPH89_RS27345&lt;/b&gt;&lt;br&gt;MATE family efflux transporter&lt;br&gt;Location: 5963614 - 5962259&lt;br&gt;&lt;br&gt;&lt;b&gt;BlastP hit with ctg2_491&lt;/b&gt;&lt;br&gt;Percentage identity: 98&lt;br&gt;Percentage coverage: 100&lt;br&gt;BLAST bit score: 808&lt;br&gt;E-value: 8.08e-296" locus_tag="CPH89_RS27345" class="clusterblast-orf" id="dummy-3_h3_3_14"  />
</g>
<g id="a3_0015"  >
<polygon points="228,85 233,80 234,80 234,90 233,90 228,85 " style="fill:#15d82c; stroke-width:1; stroke:black; " description="&lt;b&gt;CPH89_RS27340&lt;/b&gt;&lt;br&gt;TetR/AcrR family transcriptional regulator&lt;br&gt;Location: 5962275 - 5961682&lt;br&gt;&lt;br&gt;&lt;b&gt;BlastP hit with ctg2_492&lt;/b&gt;&lt;br&gt;Percentage identity: 93&lt;br&gt;Percentage coverage: 98&lt;br&gt;BLAST bit score: 352&lt;br&gt;E-value: 6.93e-124" locus_tag="CPH89_RS27340" class="clusterblast-orf" id="dummy-3_h3_3_15"  />
</g>
<g id="a3_0016"  >
<polygon points="236,90 243,90 248,85 243,80 236,80 236,90 " style="fill:#154fd8; stroke-width:1; stroke:black; " description="&lt;b&gt;CPH89_RS27335&lt;/b&gt;&lt;br&gt;MFS transporter&lt;br&gt;Location: 5961539 - 5960349&lt;br&gt;&lt;br&gt;&lt;b&gt;BlastP hit with ctg2_493&lt;/b&gt;&lt;br&gt;Percentage identity: 94&lt;br&gt;Percentage coverage: 100&lt;br&gt;BLAST bit score: 697&lt;br&gt;E-value: 8.59e-254" locus_tag="CPH89_RS27335" class="clusterblast-orf" id="dummy-3_h3_3_16"  />
</g>
<g id="a3_0017"  >
<polygon points="248,85 252,80 252,90 248,85 " style="fill:#d815c1; stroke-width:1; stroke:black; " description="&lt;b&gt;CPH89_RS27330&lt;/b&gt;&lt;br&gt;type II toxin-antitoxin system HicB family antitoxin&lt;br&gt;Location: 5960366 - 5960001&lt;br&gt;&lt;br&gt;&lt;b&gt;BlastP hit with ctg2_494&lt;/b&gt;&lt;br&gt;Percentage identity: 97&lt;br&gt;Percentage coverage: 100&lt;br&gt;BLAST bit score: 239&lt;br&gt;E-value: 1.09e-81" locus_tag="CPH89_RS27330" class="clusterblast-orf" id="dummy-3_h3_3_17"  />
</g>
<g id="a3_0018"  >
<polygon points="251,85 254,80 254,90 251,85 " style="fill:#d89f15; stroke-width:1; stroke:black; " description="&lt;b&gt;CPH89_RS27325&lt;/b&gt;&lt;br&gt;type II toxin-antitoxin system HicA family toxin&lt;br&gt;Location: 5960004 - 5959753&lt;br&gt;&lt;br&gt;&lt;b&gt;BlastP hit with ctg2_495&lt;/b&gt;&lt;br&gt;Percentage identity: 99&lt;br&gt;Percentage coverage: 100&lt;br&gt;BLAST bit score: 168&lt;br&gt;E-value: 1.15e-54" locus_tag="CPH89_RS27325" class="clusterblast-orf" id="dummy-3_h3_3_18"  />
</g>
<g id="a3_0019"  >
<polygon points="256,90 397,90 402,85 397,80 256,80 256,90 " style="fill:#15d84f; stroke-width:1; stroke:black; " description="&lt;b&gt;CPH89_RS27320&lt;/b&gt;&lt;br&gt;non-ribosomal peptide synthetase&lt;br&gt;Location: 5959542 - 5945488&lt;br&gt;&lt;br&gt;&lt;b&gt;BlastP hit with ctg2_496&lt;/b&gt;&lt;br&gt;Percentage identity: 94&lt;br&gt;Percentage coverage: 100&lt;br&gt;BLAST bit score: 8658&lt;br&gt;E-value: 0.0&lt;br&gt;&lt;br&gt;&lt;b&gt;BlastP hit with ctg2_497&lt;/b&gt;&lt;br&gt;Percentage identity: 68&lt;br&gt;Percentage coverage: 54&lt;br&gt;BLAST bit score: 2697&lt;br&gt;E-value: 0.0" locus_tag="CPH89_RS27320" class="clusterblast-orf" id="dummy-3_h3_3_19"  />
</g>
<g id="a3_0020"  >
<polygon points="402,90 520,90 525,85 520,80 402,80 402,90 " style="fill:#15d84f; stroke-width:1; stroke:black; " description="&lt;b&gt;CPH89_RS27315&lt;/b&gt;&lt;br&gt;non-ribosomal peptide synthetase&lt;br&gt;Location: 5945484 - 5933632&lt;br&gt;&lt;br&gt;&lt;b&gt;BlastP hit with ctg2_496&lt;/b&gt;&lt;br&gt;Percentage identity: 68&lt;br&gt;Percentage coverage: 45&lt;br&gt;BLAST bit score: 2721&lt;br&gt;E-value: 0.0&lt;br&gt;&lt;br&gt;&lt;b&gt;BlastP hit with ctg2_497&lt;/b&gt;&lt;br&gt;Percentage identity: 96&lt;br&gt;Percentage coverage: 100&lt;br&gt;BLAST bit score: 7486&lt;br&gt;E-value: 0.0" locus_tag="CPH89_RS27315" class="clusterblast-orf" id="dummy-3_h3_3_20"  />
</g>
<g id="a3_0021"  >
<polygon points="527,85 532,80 552,80 552,90 532,90 527,85 " style="fill:#152cd8; stroke-width:1; stroke:black; " description="&lt;b&gt;CPH89_RS27310&lt;/b&gt;&lt;br&gt;TonB-dependent siderophore receptor&lt;br&gt;Location: 5933486 - 5931045&lt;br&gt;&lt;br&gt;&lt;b&gt;BlastP hit with ctg2_498&lt;/b&gt;&lt;br&gt;Percentage identity: 94&lt;br&gt;Percentage coverage: 100&lt;br&gt;BLAST bit score: 1553&lt;br&gt;E-value: 0.0&lt;br&gt;&lt;br&gt;&lt;b&gt;BlastP hit with ctg2_517&lt;/b&gt;&lt;br&gt;Percentage identity: 38&lt;br&gt;Percentage coverage: 97&lt;br&gt;BLAST bit score: 485&lt;br&gt;E-value: 6.13e-159" locus_tag="CPH89_RS27310" class="clusterblast-orf" id="dummy-3_h3_3_21"  />
</g>
<g id="a3_0022"  >
<polygon points="553,85 558,80 571,80 571,90 558,90 553,85 " style="fill:#d8159f; stroke-width:1; stroke:black; " description="&lt;b&gt;CPH89_RS27305&lt;/b&gt;&lt;br&gt;cyclic peptide export ABC transporter&lt;br&gt;Location: 5930935 - 5929283&lt;br&gt;&lt;br&gt;&lt;b&gt;BlastP hit with ctg2_499&lt;/b&gt;&lt;br&gt;Percentage identity: 98&lt;br&gt;Percentage coverage: 100&lt;br&gt;BLAST bit score: 1032&lt;br&gt;E-value: 0.0" locus_tag="CPH89_RS27305" class="clusterblast-orf" id="dummy-3_h3_3_22"  />
</g>
<g id="a3_0023"  >
<polygon points="573,90 576,90 581,85 576,80 573,80 573,90 " style="fill:#d8c115; stroke-width:1; stroke:black; " description="&lt;b&gt;CPH89_RS27300&lt;/b&gt;&lt;br&gt;N(5)-hydroxyornithine transformylase PvdF&lt;br&gt;Location: 5929084 - 5928257&lt;br&gt;&lt;br&gt;&lt;b&gt;BlastP hit with ctg2_500&lt;/b&gt;&lt;br&gt;Percentage identity: 97&lt;br&gt;Percentage coverage: 100&lt;br&gt;BLAST bit score: 550&lt;br&gt;E-value: 1.72e-199" locus_tag="CPH89_RS27300" class="clusterblast-orf" id="dummy-3_h3_3_23"  />
</g>
<g id="a3_0024"  >
<polygon points="583,85 588,80 592,80 592,90 588,90 583,85 " style="fill:#15d871; stroke-width:1; stroke:black; " description="&lt;b&gt;CPH89_RS27295&lt;/b&gt;&lt;br&gt;formylglycine-generating enzyme family protein&lt;br&gt;Location: 5928113 - 5927241&lt;br&gt;&lt;br&gt;&lt;b&gt;BlastP hit with ctg2_501&lt;/b&gt;&lt;br&gt;Percentage identity: 98&lt;br&gt;Percentage coverage: 100&lt;br&gt;BLAST bit score: 600&lt;br&gt;E-value: 5.86e-219" locus_tag="CPH89_RS27295" class="clusterblast-orf" id="dummy-3_h3_3_24"  />
</g>
<g id="a3_0025"  >
<polygon points="592,85 597,80 605,80 605,90 597,90 592,85 " style="fill:#2115d8; stroke-width:1; stroke:black; " description="&lt;b&gt;CPH89_RS27290&lt;/b&gt;&lt;br&gt;aminotransferase class V-fold PLP-dependent enzyme&lt;br&gt;Location: 5927207 - 5925927&lt;br&gt;&lt;br&gt;&lt;b&gt;BlastP hit with ctg2_502&lt;/b&gt;&lt;br&gt;Percentage identity: 95&lt;br&gt;Percentage coverage: 100&lt;br&gt;BLAST bit score: 825&lt;br&gt;E-value: 3.23e-303" locus_tag="CPH89_RS27290" class="clusterblast-orf" id="dummy-3_h3_3_25"  />
</g>
<g id="a3_0026"  >
<polygon points="606,85 611,80 620,80 620,90 611,90 606,85 " style="fill:#d8157c; stroke-width:1; stroke:black; " description="&lt;b&gt;CPH89_RS27285&lt;/b&gt;&lt;br&gt;pyoverdine-tailoring dipeptidase-like protein PvdM&lt;br&gt;Location: 5925907 - 5924558&lt;br&gt;&lt;br&gt;&lt;b&gt;BlastP hit with ctg2_503&lt;/b&gt;&lt;br&gt;Percentage identity: 99&lt;br&gt;Percentage coverage: 100&lt;br&gt;BLAST bit score: 903&lt;br&gt;E-value: 0.0" locus_tag="CPH89_RS27285" class="clusterblast-orf" id="dummy-3_h3_3_26"  />
</g>
<g id="a3_0027"  >
<polygon points="621,90 633,90 638,85 633,80 621,80 621,90 " style="fill:#cdd815; stroke-width:1; stroke:black; " description="&lt;b&gt;CPH89_RS27280&lt;/b&gt;&lt;br&gt;hypothetical protein&lt;br&gt;Location: 5924415 - 5922796&lt;br&gt;&lt;br&gt;&lt;b&gt;BlastP hit with ctg2_504&lt;/b&gt;&lt;br&gt;Percentage identity: 97&lt;br&gt;Percentage coverage: 100&lt;br&gt;BLAST bit score: 1107&lt;br&gt;E-value: 0.0" locus_tag="CPH89_RS27280" class="clusterblast-orf" id="dummy-3_h3_3_27"  />
</g>
<g id="a3_0028"  >
<polygon points="638,85 643,80 648,80 648,90 643,90 638,85 " style="fill:#15d893; stroke-width:1; stroke:black; " description="&lt;b&gt;CPH89_RS27275&lt;/b&gt;&lt;br&gt;DUF1853 family protein&lt;br&gt;Location: 5922803 - 5921856&lt;br&gt;&lt;br&gt;&lt;b&gt;BlastP hit with ctg2_505&lt;/b&gt;&lt;br&gt;Percentage identity: 96&lt;br&gt;Percentage coverage: 100&lt;br&gt;BLAST bit score: 652&lt;br&gt;E-value: 1.08e-238" locus_tag="CPH89_RS27275" class="clusterblast-orf" id="dummy-3_h3_3_28"  />
</g>
<g id="a3_0029"  >
<polygon points="649,90 653,90 658,85 653,80 649,80 649,90 " style="fill:#4315d8; stroke-width:1; stroke:black; " description="&lt;b&gt;CPH89_RS27270&lt;/b&gt;&lt;br&gt;NAD(+) kinase&lt;br&gt;Location: 5921712 - 5920822&lt;br&gt;&lt;br&gt;&lt;b&gt;BlastP hit with ctg2_506&lt;/b&gt;&lt;br&gt;Percentage identity: 100&lt;br&gt;Percentage coverage: 100&lt;br&gt;BLAST bit score: 599&lt;br&gt;E-value: 3.81e-218" locus_tag="CPH89_RS27270" class="clusterblast-orf" id="dummy-3_h3_3_29"  />
</g>
<g id="a3_0030"  >
<polygon points="658,90 664,90 669,85 664,80 658,80 658,90 " style="fill:#d8155a; stroke-width:1; stroke:black; " description="&lt;b&gt;CPH89_RS27265&lt;/b&gt;&lt;br&gt;serine/threonine protein phosphatase&lt;br&gt;Location: 5920825 - 5919851&lt;br&gt;&lt;br&gt;&lt;b&gt;BlastP hit with ctg2_507&lt;/b&gt;&lt;br&gt;Percentage identity: 99&lt;br&gt;Percentage coverage: 100&lt;br&gt;BLAST bit score: 692&lt;br&gt;E-value: 4.12e-254" locus_tag="CPH89_RS27265" class="clusterblast-orf" id="dummy-3_h3_3_30"  />
</g>
<g id="a3_0031"  >
<polygon points="669,90 673,90 678,85 673,80 669,80 669,90 " style="fill:#aad815; stroke-width:1; stroke:black; " description="&lt;b&gt;CPH89_RS27260&lt;/b&gt;&lt;br&gt;rhomboid family intramembrane serine protease&lt;br&gt;Location: 5919854 - 5918985&lt;br&gt;&lt;br&gt;&lt;b&gt;BlastP hit with ctg2_508&lt;/b&gt;&lt;br&gt;Percentage identity: 99&lt;br&gt;Percentage coverage: 100&lt;br&gt;BLAST bit score: 565&lt;br&gt;E-value: 4.06e-205" locus_tag="CPH89_RS27260" class="clusterblast-orf" id="dummy-3_h3_3_31"  />
</g>
<g id="a3_0032"  >
<polygon points="678,90 680,85 678,80 678,90 " style="fill:#15d8b6; stroke-width:1; stroke:black; " description="&lt;b&gt;CPH89_RS27255&lt;/b&gt;&lt;br&gt;DUF1315 family protein&lt;br&gt;Location: 5918970 - 5918710&lt;br&gt;&lt;br&gt;&lt;b&gt;BlastP hit with ctg2_509&lt;/b&gt;&lt;br&gt;Percentage identity: 100&lt;br&gt;Percentage coverage: 100&lt;br&gt;BLAST bit score: 175&lt;br&gt;E-value: 3.62e-57" locus_tag="CPH89_RS27255" class="clusterblast-orf" id="dummy-3_h3_3_32"  />
</g>
<g id="a3_0033"  >
<polygon points="681,90 684,90 689,85 684,80 681,80 681,90 " style="fill:#6615d8; stroke-width:1; stroke:black; " description="&lt;b&gt;CPH89_RS27250&lt;/b&gt;&lt;br&gt;DUF2797 domain-containing protein&lt;br&gt;Location: 5918680 - 5917883&lt;br&gt;&lt;br&gt;&lt;b&gt;BlastP hit with ctg2_510&lt;/b&gt;&lt;br&gt;Percentage identity: 99&lt;br&gt;Percentage coverage: 96&lt;br&gt;BLAST bit score: 540&lt;br&gt;E-value: 1.14e-195" locus_tag="CPH89_RS27250" class="clusterblast-orf" id="dummy-3_h3_3_33"  />
</g>
<g id="a3_0034"  >
<polygon points="689,90 712,90 717,85 712,80 689,80 689,90 " style="fill:#d81538; stroke-width:1; stroke:black; " description="&lt;b&gt;CPH89_RS27245&lt;/b&gt;&lt;br&gt;aminopeptidase N&lt;br&gt;Location: 5917869 - 5915212&lt;br&gt;&lt;br&gt;&lt;b&gt;BlastP hit with ctg2_511&lt;/b&gt;&lt;br&gt;Percentage identity: 99&lt;br&gt;Percentage coverage: 100&lt;br&gt;BLAST bit score: 1736&lt;br&gt;E-value: 0.0" locus_tag="CPH89_RS27245" class="clusterblast-orf" id="dummy-3_h3_3_34"  />
</g>
<g id="a3_0035"  >
<polygon points="719,90 721,90 726,85 721,80 719,80 719,90 " style="fill:#88d815; stroke-width:1; stroke:black; " description="&lt;b&gt;CPH89_RS27240&lt;/b&gt;&lt;br&gt;YafY family transcriptional regulator&lt;br&gt;Location: 5915006 - 5914290&lt;br&gt;&lt;br&gt;&lt;b&gt;BlastP hit with ctg2_512&lt;/b&gt;&lt;br&gt;Percentage identity: 95&lt;br&gt;Percentage coverage: 100&lt;br&gt;BLAST bit score: 443&lt;br&gt;E-value: 1.67e-158" locus_tag="CPH89_RS27240" class="clusterblast-orf" id="dummy-3_h3_3_35"  />
</g>
<g id="a3_0036"  >
<polygon points="727,90 730,85 727,80 727,90 " style="fill:#15d8d8; stroke-width:1; stroke:black; " description="&lt;b&gt;CPH89_RS27235&lt;/b&gt;&lt;br&gt;nuclear transport factor 2 family protein&lt;br&gt;Location: 5914237 - 5913902&lt;br&gt;&lt;br&gt;&lt;b&gt;BlastP hit with ctg2_513&lt;/b&gt;&lt;br&gt;Percentage identity: 93&lt;br&gt;Percentage coverage: 100&lt;br&gt;BLAST bit score: 209&lt;br&gt;E-value: 4.14e-70" locus_tag="CPH89_RS27235" class="clusterblast-orf" id="dummy-3_h3_3_36"  />
</g>
</svg>
