<svg xmlns="http://www.w3.org/2000/svg" xmlns:xlink="http://www.w3.org/1999/xlink" version="1.1" x="0" y="0" height="150" width="800" viewBox="0 0 800 150" preserveAspectRatio="none"  >
<g label="Query sequence" class="clusterblast-cluster"  >
<text x="5" y="20" class="clusterblast-acc"  >
Query sequence</text>
<line x1="10" y1="35" x2="778.0" y2="35" style="stroke-width:1; stroke:grey; "  />
<polygon points="118,40 123,40 128,35 123,30 118,30 118,40 " style="fill:white; stroke-width:1; stroke:black; " description="&lt;b&gt;ctg3_17&lt;/b&gt;&lt;br&gt;ctg3 17&lt;br&gt;Location: 16386 - 16866" locus_tag="ctg3_17" class="clusterblast-orf" id="knownclusterblast-1_q0_0_all"  />
<polygon points="128,40 139,40 144,35 139,30 128,30 128,40 " style="fill:white; stroke-width:1; stroke:black; " description="&lt;b&gt;ctg3_18&lt;/b&gt;&lt;br&gt;ctg3 18&lt;br&gt;Location: 16862 - 17633" locus_tag="ctg3_18" class="clusterblast-orf" id="knownclusterblast-1_q1_0_all"  />
<polygon points="145,35 150,30 190,30 190,40 150,40 145,35 " style="fill:white; stroke-width:1; stroke:black; " description="&lt;b&gt;ctg3_19&lt;/b&gt;&lt;br&gt;ctg3 19&lt;br&gt;Location: 17712 - 19860" locus_tag="ctg3_19" class="clusterblast-orf" id="knownclusterblast-1_q2_0_all"  />
<polygon points="192,40 196,40 201,35 196,30 192,30 192,40 " style="fill:white; stroke-width:1; stroke:black; " description="&lt;b&gt;ctg3_20&lt;/b&gt;&lt;br&gt;ctg3 20&lt;br&gt;Location: 19957 - 20410" locus_tag="ctg3_20" class="clusterblast-orf" id="knownclusterblast-1_q3_0_all"  />
<polygon points="201,40 205,40 210,35 205,30 201,30 201,40 " style="fill:white; stroke-width:1; stroke:black; " description="&lt;b&gt;ctg3_21&lt;/b&gt;&lt;br&gt;ctg3 21&lt;br&gt;Location: 20402 - 20852" locus_tag="ctg3_21" class="clusterblast-orf" id="knownclusterblast-1_q4_0_all"  />
<polygon points="211,35 216,30 223,30 223,40 216,40 211,35 " style="fill:white; stroke-width:1; stroke:black; " description="&lt;b&gt;ctg3_22&lt;/b&gt;&lt;br&gt;ctg3 22&lt;br&gt;Location: 20895 - 21474" locus_tag="ctg3_22" class="clusterblast-orf" id="knownclusterblast-1_q5_0_all"  />
<polygon points="225,35 230,30 252,30 252,40 230,40 225,35 " style="fill:white; stroke-width:1; stroke:black; " description="&lt;b&gt;ctg3_23&lt;/b&gt;&lt;br&gt;ctg3 23&lt;br&gt;Location: 21543 - 22857" locus_tag="ctg3_23" class="clusterblast-orf" id="knownclusterblast-1_q6_0_all"  />
<polygon points="253,35 256,30 256,40 253,35 " style="fill:white; stroke-width:1; stroke:black; " description="&lt;b&gt;ctg3_24&lt;/b&gt;&lt;br&gt;ctg3 24&lt;br&gt;Location: 22907 - 23063" locus_tag="ctg3_24" class="clusterblast-orf" id="knownclusterblast-1_q7_0_all"  />
<polygon points="258,35 263,30 275,30 275,40 263,40 258,35 " style="fill:white; stroke-width:1; stroke:black; " description="&lt;b&gt;ctg3_25&lt;/b&gt;&lt;br&gt;ctg3 25&lt;br&gt;Location: 23164 - 23971" locus_tag="ctg3_25" class="clusterblast-orf" id="knownclusterblast-1_q8_0_all"  />
<polygon points="276,35 281,30 289,30 289,40 281,40 276,35 " style="fill:white; stroke-width:1; stroke:black; " description="&lt;b&gt;ctg3_26&lt;/b&gt;&lt;br&gt;ctg3 26&lt;br&gt;Location: 23999 - 24632" locus_tag="ctg3_26" class="clusterblast-orf" id="knownclusterblast-1_q9_0_all"  />
<polygon points="291,40 300,40 305,35 300,30 291,30 291,40 " style="fill:white; stroke-width:1; stroke:black; " description="&lt;b&gt;ctg3_27&lt;/b&gt;&lt;br&gt;ctg3 27&lt;br&gt;Location: 24743 - 25400" locus_tag="ctg3_27" class="clusterblast-orf" id="knownclusterblast-1_q10_0_all"  />
<polygon points="305,35 310,30 318,30 318,40 310,40 305,35 " style="fill:white; stroke-width:1; stroke:black; " description="&lt;b&gt;ctg3_28&lt;/b&gt;&lt;br&gt;ctg3 28&lt;br&gt;Location: 25413 - 26034" locus_tag="ctg3_28" class="clusterblast-orf" id="knownclusterblast-1_q11_0_all"  />
<polygon points="321,40 361,40 366,35 361,30 321,30 321,40 " style="fill:#d81515; stroke-width:1; stroke:black; " description="&lt;b&gt;ctg3_29&lt;/b&gt;&lt;br&gt;ctg3 29&lt;br&gt;Location: 26170 - 28369" locus_tag="ctg3_29" class="clusterblast-orf" id="knownclusterblast-1_q12_0_all"  />
<polygon points="372,35 377,30 397,30 397,40 377,40 372,35 " style="fill:#15d863; stroke-width:1; stroke:black; " description="&lt;b&gt;ctg3_30&lt;/b&gt;&lt;br&gt;ctg3 30&lt;br&gt;Location: 28665 - 29832" locus_tag="ctg3_30" class="clusterblast-orf" id="knownclusterblast-1_q13_0_all"  />
<polygon points="396,35 401,30 425,30 425,40 401,40 396,35 " style="fill:#1563d8; stroke-width:1; stroke:black; " description="&lt;b&gt;ctg3_31&lt;/b&gt;&lt;br&gt;ctg3 31&lt;br&gt;Location: 29828 - 31205" locus_tag="ctg3_31" class="clusterblast-orf" id="knownclusterblast-1_q14_0_all"  />
<polygon points="428,35 433,30 446,30 446,40 433,40 428,35 " style="fill:white; stroke-width:1; stroke:black; " description="&lt;b&gt;ctg3_32&lt;/b&gt;&lt;br&gt;ctg3 32&lt;br&gt;Location: 31349 - 32201" locus_tag="ctg3_32" class="clusterblast-orf" id="knownclusterblast-1_q15_0_all"  />
<polygon points="452,35 457,30 472,30 472,40 457,40 452,35 " style="fill:white; stroke-width:1; stroke:black; " description="&lt;b&gt;ctg3_33&lt;/b&gt;&lt;br&gt;ctg3 33&lt;br&gt;Location: 32486 - 33464" locus_tag="ctg3_33" class="clusterblast-orf" id="knownclusterblast-1_q16_0_all"  />
<polygon points="476,35 481,30 484,30 484,40 481,40 476,35 " style="fill:white; stroke-width:1; stroke:black; " description="&lt;b&gt;ctg3_34&lt;/b&gt;&lt;br&gt;ctg3 34&lt;br&gt;Location: 33679 - 34072" locus_tag="ctg3_34" class="clusterblast-orf" id="knownclusterblast-1_q17_0_all"  />
<polygon points="485,35 490,30 498,30 498,40 490,40 485,35 " style="fill:white; stroke-width:1; stroke:black; " description="&lt;b&gt;ctg3_35&lt;/b&gt;&lt;br&gt;ctg3 35&lt;br&gt;Location: 34102 - 34723" locus_tag="ctg3_35" class="clusterblast-orf" id="knownclusterblast-1_q18_0_all"  />
<polygon points="503,35 508,30 524,30 524,40 508,40 503,35 " style="fill:white; stroke-width:1; stroke:black; " description="&lt;b&gt;ctg3_36&lt;/b&gt;&lt;br&gt;ctg3 36&lt;br&gt;Location: 34945 - 35965" locus_tag="ctg3_36" class="clusterblast-orf" id="knownclusterblast-1_q19_0_all"  />
<polygon points="527,35 532,30 542,30 542,40 532,40 527,35 " style="fill:white; stroke-width:1; stroke:black; " description="&lt;b&gt;ctg3_37&lt;/b&gt;&lt;br&gt;ctg3 37&lt;br&gt;Location: 36104 - 36866" locus_tag="ctg3_37" class="clusterblast-orf" id="knownclusterblast-1_q20_0_all"  />
<polygon points="546,35 551,30 560,30 560,40 551,40 546,35 " style="fill:white; stroke-width:1; stroke:black; " description="&lt;b&gt;ctg3_38&lt;/b&gt;&lt;br&gt;ctg3 38&lt;br&gt;Location: 37056 - 37716" locus_tag="ctg3_38" class="clusterblast-orf" id="knownclusterblast-1_q21_0_all"  />
<polygon points="560,35 565,30 572,30 572,40 565,40 560,35 " style="fill:white; stroke-width:1; stroke:black; " description="&lt;b&gt;ctg3_39&lt;/b&gt;&lt;br&gt;ctg3 39&lt;br&gt;Location: 37712 - 38312" locus_tag="ctg3_39" class="clusterblast-orf" id="knownclusterblast-1_q22_0_all"  />
<polygon points="572,35 577,30 588,30 588,40 577,40 572,35 " style="fill:white; stroke-width:1; stroke:black; " description="&lt;b&gt;ctg3_40&lt;/b&gt;&lt;br&gt;ctg3 40&lt;br&gt;Location: 38308 - 39067" locus_tag="ctg3_40" class="clusterblast-orf" id="knownclusterblast-1_q23_0_all"  />
<polygon points="588,35 593,30 609,30 609,40 593,40 588,35 " style="fill:white; stroke-width:1; stroke:black; " description="&lt;b&gt;ctg3_41&lt;/b&gt;&lt;br&gt;ctg3 41&lt;br&gt;Location: 39063 - 40062" locus_tag="ctg3_41" class="clusterblast-orf" id="knownclusterblast-1_q24_0_all"  />
<polygon points="609,35 614,30 653,30 653,40 614,40 609,35 " style="fill:#b115d8; stroke-width:1; stroke:black; " description="&lt;b&gt;ctg3_42&lt;/b&gt;&lt;br&gt;ctg3 42&lt;br&gt;Location: 40063 - 42220" locus_tag="ctg3_42" class="clusterblast-orf" id="knownclusterblast-1_q25_0_all"  />
<polygon points="656,35 661,30 662,30 662,40 661,40 656,35 " style="fill:#b1d815; stroke-width:1; stroke:black; " description="&lt;b&gt;ctg3_43&lt;/b&gt;&lt;br&gt;ctg3 43&lt;br&gt;Location: 42351 - 42621" locus_tag="ctg3_43" class="clusterblast-orf" id="knownclusterblast-1_q26_0_all"  />
</g>
<g label="BGC0001285" description="BGC0001285_c1: pseudopyronine A/pseudopyronine B (18% of genes show similarity), Other:Fatty acid" class="clusterblast-cluster"  >
<text x="5" y="70" class="clusterblast-acc"  >
<a xlink:href="https://mibig.secondarymetabolites.org/go/BGC0001285/1" target="_blank">BGC0001285</a>: pseudopyronine A/pseudopyronine B                                                (18% of genes show similarity), Other:Fatty acid</text>
<line x1="10" y1="85" x2="778.0" y2="85" style="stroke-width:1; stroke:grey; "  />
</g>
<g id="a1_000"  >
<polygon points="157,85 162,80 173,80 173,90 162,90 157,85 " style="fill:white; stroke-width:1; stroke:black; " description="&lt;b&gt;ALJ01868.1&lt;/b&gt;&lt;br&gt;hypothetical protein&lt;br&gt;Location: 22479 - 21685" locus_tag="ALJ01868.1" class="clusterblast-orf" id="knownclusterblast-1_all_1_1_0"  />
</g>
<g id="a1_001"  >
<polygon points="177,85 182,80 221,80 221,90 182,90 177,85 " style="fill:#b115d8; stroke-width:1; stroke:black; " description="&lt;b&gt;ALJ01867.1&lt;/b&gt;&lt;br&gt;glycogen debranching enzyme&lt;br&gt;Location: 21516 - 19363&lt;br&gt;&lt;br&gt;&lt;b&gt;BlastP hit with ctg3_42&lt;/b&gt;&lt;br&gt;Percentage identity: 80&lt;br&gt;Percentage coverage: 98&lt;br&gt;BLAST bit score: 1218&lt;br&gt;E-value: 0.0" locus_tag="ALJ01867.1" class="clusterblast-orf" id="knownclusterblast-1_all_1_1_1"  />
</g>
<g id="a1_002"  >
<polygon points="224,85 229,80 230,80 230,90 229,90 224,85 " style="fill:#b1d815; stroke-width:1; stroke:black; " description="&lt;b&gt;ALJ01866.1&lt;/b&gt;&lt;br&gt;hypothetical protein&lt;br&gt;Location: 19205 - 18939&lt;br&gt;&lt;br&gt;&lt;b&gt;BlastP hit with ctg3_43&lt;/b&gt;&lt;br&gt;Percentage identity: 71&lt;br&gt;Percentage coverage: 43&lt;br&gt;BLAST bit score: 62&lt;br&gt;E-value: 3.57e-14" locus_tag="ALJ01866.1" class="clusterblast-orf" id="knownclusterblast-1_all_1_1_2"  />
</g>
<g id="a1_003"  >
<polygon points="230,85 235,80 288,80 288,90 235,90 230,85 " style="fill:white; stroke-width:1; stroke:black; " description="&lt;b&gt;ALJ01865.1&lt;/b&gt;&lt;br&gt;malto-oligosyltrehalose synthase&lt;br&gt;Location: 18918 - 16144" locus_tag="ALJ01865.1" class="clusterblast-orf" id="knownclusterblast-1_all_1_1_3"  />
</g>
<g id="a1_004"  >
<polygon points="288,85 293,80 331,80 331,90 293,90 288,85 " style="fill:white; stroke-width:1; stroke:black; " description="&lt;b&gt;ALJ01864.1&lt;/b&gt;&lt;br&gt;4-alpha-glucanotransferase&lt;br&gt;Location: 16147 - 14078" locus_tag="ALJ01864.1" class="clusterblast-orf" id="knownclusterblast-1_all_1_1_4"  />
</g>
<g id="a1_005"  >
<polygon points="331,85 336,80 367,80 367,90 336,90 331,85 " style="fill:white; stroke-width:1; stroke:black; " description="&lt;b&gt;ALJ01863.1&lt;/b&gt;&lt;br&gt;malto-oligosyltrehalose trehalohydrolase&lt;br&gt;Location: 14081 - 12339" locus_tag="ALJ01863.1" class="clusterblast-orf" id="knownclusterblast-1_all_1_1_5"  />
</g>
<g id="a1_006"  >
<polygon points="367,85 372,80 399,80 399,90 372,90 367,85 " style="fill:white; stroke-width:1; stroke:black; " description="&lt;b&gt;ALJ01862.1&lt;/b&gt;&lt;br&gt;glycogen synthase&lt;br&gt;Location: 12324 - 10765" locus_tag="ALJ01862.1" class="clusterblast-orf" id="knownclusterblast-1_all_1_1_6"  />
</g>
<g id="a1_007"  >
<polygon points="410,85 413,80 413,90 410,85 " style="fill:white; stroke-width:1; stroke:black; " description="&lt;b&gt;ALJ01861.1&lt;/b&gt;&lt;br&gt;hypothetical protein&lt;br&gt;Location: 10272 - 10105" locus_tag="ALJ01861.1" class="clusterblast-orf" id="knownclusterblast-1_all_1_1_7"  />
</g>
<g id="a1_008"  >
<polygon points="417,90 433,90 438,85 433,80 417,80 417,90 " style="fill:white; stroke-width:1; stroke:black; " description="&lt;b&gt;ALJ01860.1&lt;/b&gt;&lt;br&gt;6-phosphogluconate dehydrogenase&lt;br&gt;Location: 9908 - 8925" locus_tag="ALJ01860.1" class="clusterblast-orf" id="knownclusterblast-1_all_1_1_8"  />
</g>
<g id="a1_009"  >
<polygon points="438,90 464,90 469,85 464,80 438,80 438,90 " style="fill:white; stroke-width:1; stroke:black; " description="&lt;b&gt;ALJ01859.1&lt;/b&gt;&lt;br&gt;glucose-6-phosphate 1-dehydrogenase&lt;br&gt;Location: 8924 - 7431" locus_tag="ALJ01859.1" class="clusterblast-orf" id="knownclusterblast-1_all_1_1_9"  />
</g>
<g id="a1_0010"  >
<polygon points="470,85 475,80 492,80 492,90 475,90 470,85 " style="fill:white; stroke-width:1; stroke:black; " description="&lt;b&gt;ALJ01858.1&lt;/b&gt;&lt;br&gt;pseudopyronine synthase&lt;br&gt;Location: 7370 - 6321" locus_tag="ALJ01858.1" class="clusterblast-orf" id="knownclusterblast-1_all_1_1_10"  />
</g>
<g id="a1_0011"  >
<polygon points="497,90 529,90 534,85 529,80 497,80 497,90 " style="fill:white; stroke-width:1; stroke:black; " description="&lt;b&gt;ALJ01857.1&lt;/b&gt;&lt;br&gt;hypothetical protein&lt;br&gt;Location: 6079 - 4283" locus_tag="ALJ01857.1" class="clusterblast-orf" id="knownclusterblast-1_all_1_1_11"  />
</g>
<g id="a1_0012"  >
<polygon points="542,90 546,85 542,80 542,90 " style="fill:white; stroke-width:1; stroke:black; " description="&lt;b&gt;ALJ01856.1&lt;/b&gt;&lt;br&gt;hypothetical protein&lt;br&gt;Location: 3889 - 3692" locus_tag="ALJ01856.1" class="clusterblast-orf" id="knownclusterblast-1_all_1_1_12"  />
</g>
<g id="a1_0013"  >
<polygon points="549,85 554,80 563,80 563,90 554,90 549,85 " style="fill:white; stroke-width:1; stroke:black; " description="&lt;b&gt;ALJ01855.1&lt;/b&gt;&lt;br&gt;putative dioxygenase&lt;br&gt;Location: 3560 - 2880" locus_tag="ALJ01855.1" class="clusterblast-orf" id="knownclusterblast-1_all_1_1_13"  />
</g>
<g id="a1_0014"  >
<polygon points="566,90 607,90 612,85 607,80 566,80 566,90 " style="fill:#d81515; stroke-width:1; stroke:black; " description="&lt;b&gt;ALJ01854.1&lt;/b&gt;&lt;br&gt;hypothetical protein&lt;br&gt;Location: 2718 - 526&lt;br&gt;&lt;br&gt;&lt;b&gt;BlastP hit with ctg3_29&lt;/b&gt;&lt;br&gt;Percentage identity: 85&lt;br&gt;Percentage coverage: 99&lt;br&gt;BLAST bit score: 1272&lt;br&gt;E-value: 0.0" locus_tag="ALJ01854.1" class="clusterblast-orf" id="knownclusterblast-1_all_1_1_14"  />
</g>
<g id="a1_0015"  >
<polygon points="613,85 618,80 622,80 622,90 618,90 613,85 " style="fill:white; stroke-width:1; stroke:black; " description="&lt;b&gt;ALJ01853.1&lt;/b&gt;&lt;br&gt;membrane protein&lt;br&gt;Location: 476 - 9" locus_tag="ALJ01853.1" class="clusterblast-orf" id="knownclusterblast-1_all_1_1_15"  />
</g>
<g label="BGC0000774" description="BGC0000774_c1: lipopolysaccharide (5% of genes show similarity), Saccharide:Lipopolysaccharide" class="clusterblast-cluster"  >
<text x="5" y="120" class="clusterblast-acc"  >
<a xlink:href="https://mibig.secondarymetabolites.org/go/BGC0000774/1" target="_blank">BGC0000774</a>: lipopolysaccharide                                                               (5% of genes show similarity), Saccharide:Lipopolysaccharide</text>
<line x1="10" y1="135" x2="778.0" y2="135" style="stroke-width:1; stroke:grey; "  />
</g>
<g id="a1_000"  >
<polygon points="0,140 8,140 13,135 8,130 0,130 0,140 " style="fill:white; stroke-width:1; stroke:black; " description="&lt;b&gt;AAK53494.1&lt;/b&gt;&lt;br&gt;conserved protein involved in carbohydrate biosynthesis&lt;br&gt;Location: 134 - 772" locus_tag="AAK53494.1" class="clusterblast-orf" id="knownclusterblast-1_all_1_2_0"  />
</g>
<g id="a1_001"  >
<polygon points="19,135 24,130 32,130 32,140 24,140 19,135 " style="fill:white; stroke-width:1; stroke:black; " description="&lt;b&gt;AAK53493.1&lt;/b&gt;&lt;br&gt;beta-subunit of putative 3-oxoacid CoA-transferase&lt;br&gt;Location: 1054 - 1692" locus_tag="AAK53493.1" class="clusterblast-orf" id="knownclusterblast-1_all_1_2_1"  />
</g>
<g id="a1_002"  >
<polygon points="32,135 37,130 47,130 47,140 37,140 32,135 " style="fill:white; stroke-width:1; stroke:black; " description="&lt;b&gt;AAK53462.1&lt;/b&gt;&lt;br&gt;alpha subunit of putative 3-oxoacid CoA-transferase&lt;br&gt;Location: 1692 - 2420" locus_tag="AAK53462.1" class="clusterblast-orf" id="knownclusterblast-1_all_1_2_2"  />
</g>
<g id="a1_003"  >
<polygon points="50,140 73,140 78,135 73,130 50,130 50,140 " style="fill:white; stroke-width:1; stroke:black; " description="&lt;b&gt;AAA27610.1&lt;/b&gt;&lt;br&gt;phosphoglucomutase / phosphomannomutase&lt;br&gt;Location: 2555 - 3901" locus_tag="AAA27610.1" class="clusterblast-orf" id="knownclusterblast-1_all_1_2_3"  />
</g>
<g id="a1_004"  >
<polygon points="79,140 103,140 108,135 103,130 79,130 79,140 " style="fill:white; stroke-width:1; stroke:black; " description="&lt;b&gt;AAK53463.1&lt;/b&gt;&lt;br&gt;phosphomannose isomerase / GDP-mannose pyrophosphorylase&lt;br&gt;Location: 3947 - 5350" locus_tag="AAK53463.1" class="clusterblast-orf" id="knownclusterblast-1_all_1_2_4"  />
</g>
<g id="a1_005"  >
<polygon points="110,135 115,130 129,130 129,140 115,140 110,135 " style="fill:white; stroke-width:1; stroke:black; " description="&lt;b&gt;AAK53464.1&lt;/b&gt;&lt;br&gt;dTDP-4-dehydrorhamnose reductase&lt;br&gt;Location: 5472 - 6380" locus_tag="AAK53464.1" class="clusterblast-orf" id="knownclusterblast-1_all_1_2_5"  />
</g>
<g id="a1_006"  >
<polygon points="129,135 134,130 140,130 140,140 134,140 129,135 " style="fill:white; stroke-width:1; stroke:black; " description="&lt;b&gt;AAK53465.1&lt;/b&gt;&lt;br&gt;dTDP-4-dehydrorhamnose 3,5-epimerase&lt;br&gt;Location: 6377 - 6934" locus_tag="AAK53465.1" class="clusterblast-orf" id="knownclusterblast-1_all_1_2_6"  />
</g>
<g id="a1_007"  >
<polygon points="140,135 145,130 159,130 159,140 145,140 140,135 " style="fill:white; stroke-width:1; stroke:black; " description="&lt;b&gt;AAA16191.1&lt;/b&gt;&lt;br&gt;glucose-1-phosphate thymidylyltransferase&lt;br&gt;Location: 6931 - 7818" locus_tag="AAA16191.1" class="clusterblast-orf" id="knownclusterblast-1_all_1_2_7"  />
</g>
<g id="a1_008"  >
<polygon points="160,135 165,130 182,130 182,140 165,140 160,135 " style="fill:white; stroke-width:1; stroke:black; " description="&lt;b&gt;AAK53466.1&lt;/b&gt;&lt;br&gt;dTDP-glucose 4,6-dehydratase&lt;br&gt;Location: 7882 - 8937" locus_tag="AAK53466.1" class="clusterblast-orf" id="knownclusterblast-1_all_1_2_8"  />
</g>
<g id="a1_009"  >
<polygon points="187,140 197,140 202,135 197,130 187,130 187,140 " style="fill:white; stroke-width:1; stroke:black; " description="&lt;b&gt;AAK53467.1&lt;/b&gt;&lt;br&gt;putative electron-transferring flavoprotein beta subunit&lt;br&gt;Location: 9166 - 9912" locus_tag="AAK53467.1" class="clusterblast-orf" id="knownclusterblast-1_all_1_2_9"  />
</g>
<g id="a1_0010"  >
<polygon points="202,140 217,140 222,135 217,130 202,130 202,140 " style="fill:white; stroke-width:1; stroke:black; " description="&lt;b&gt;AAK53468.1&lt;/b&gt;&lt;br&gt;putative electron-transferring flavoprotein alpha subunit&lt;br&gt;Location: 9912 - 10856" locus_tag="AAK53468.1" class="clusterblast-orf" id="knownclusterblast-1_all_1_2_10"  />
</g>
<g id="a1_0011"  >
<polygon points="223,140 225,140 230,135 225,130 223,130 223,140 " style="fill:white; stroke-width:1; stroke:black; " description="&lt;b&gt;AAK53469.1&lt;/b&gt;&lt;br&gt;WxcH&lt;br&gt;Location: 10916 - 11263" locus_tag="AAK53469.1" class="clusterblast-orf" id="knownclusterblast-1_all_1_2_11"  />
</g>
<g id="a1_0012"  >
<polygon points="231,140 249,140 254,135 249,130 231,130 231,140 " style="fill:white; stroke-width:1; stroke:black; " description="&lt;b&gt;AAK53470.1&lt;/b&gt;&lt;br&gt;nucleotide sugar aminotransferase&lt;br&gt;Location: 11312 - 12415" locus_tag="AAK53470.1" class="clusterblast-orf" id="knownclusterblast-1_all_1_2_12"  />
</g>
<g id="a1_0013"  >
<polygon points="254,140 269,140 274,135 269,130 254,130 254,140 " style="fill:white; stroke-width:1; stroke:black; " description="&lt;b&gt;AAK53471.1&lt;/b&gt;&lt;br&gt;glycosyltransferase&lt;br&gt;Location: 12400 - 13371" locus_tag="AAK53471.1" class="clusterblast-orf" id="knownclusterblast-1_all_1_2_13"  />
</g>
<g id="a1_0014"  >
<polygon points="274,140 288,140 293,135 288,130 274,130 274,140 " style="fill:white; stroke-width:1; stroke:black; " description="&lt;b&gt;AAK53472.1&lt;/b&gt;&lt;br&gt;bifunctional nucleotide hexosamine acetyltransferase / isomerase&lt;br&gt;Location: 13368 - 14297" locus_tag="AAK53472.1" class="clusterblast-orf" id="knownclusterblast-1_all_1_2_14"  />
</g>
<g id="a1_0015"  >
<polygon points="293,140 297,140 302,135 297,130 293,130 293,140 " style="fill:white; stroke-width:1; stroke:black; " description="&lt;b&gt;AAK53473.1&lt;/b&gt;&lt;br&gt;putative integral membrane protein WxcN&lt;br&gt;Location: 14284 - 14724" locus_tag="AAK53473.1" class="clusterblast-orf" id="knownclusterblast-1_all_1_2_15"  />
</g>
<g id="a1_0016"  >
<polygon points="303,140 345,140 350,135 345,130 303,130 303,140 " style="fill:white; stroke-width:1; stroke:black; " description="&lt;b&gt;AAK53474.1&lt;/b&gt;&lt;br&gt;integral membrane protein&lt;br&gt;Location: 14794 - 17046" locus_tag="AAK53474.1" class="clusterblast-orf" id="knownclusterblast-1_all_1_2_16"  />
</g>
<g id="a1_0017"  >
<polygon points="353,135 358,130 373,130 373,140 358,140 353,135 " style="fill:white; stroke-width:1; stroke:black; " description="&lt;b&gt;AAK53475.1&lt;/b&gt;&lt;br&gt;GDP-4-dehydro-D-rhamnose reductase&lt;br&gt;Location: 17188 - 18126" locus_tag="AAK53475.1" class="clusterblast-orf" id="knownclusterblast-1_all_1_2_17"  />
</g>
<g id="a1_0018"  >
<polygon points="372,135 377,130 394,130 394,140 377,140 372,135 " style="fill:white; stroke-width:1; stroke:black; " description="&lt;b&gt;AAK53476.1&lt;/b&gt;&lt;br&gt;GDP-mannose 4,6-dehydratase&lt;br&gt;Location: 18110 - 19144" locus_tag="AAK53476.1" class="clusterblast-orf" id="knownclusterblast-1_all_1_2_18"  />
</g>
<g id="a1_0019"  >
<polygon points="395,135 400,130 408,130 408,140 400,140 395,135 " style="fill:white; stroke-width:1; stroke:black; " description="&lt;b&gt;AAK53477.1&lt;/b&gt;&lt;br&gt;Unknown&lt;br&gt;Location: 19222 - 19857" locus_tag="AAK53477.1" class="clusterblast-orf" id="knownclusterblast-1_all_1_2_19"  />
</g>
<g id="a1_0020"  >
<polygon points="408,135 413,130 445,130 445,140 413,140 408,135 " style="fill:white; stroke-width:1; stroke:black; " description="&lt;b&gt;AAK53478.1&lt;/b&gt;&lt;br&gt;putative glycosyltransferase&lt;br&gt;Location: 19857 - 21602" locus_tag="AAK53478.1" class="clusterblast-orf" id="knownclusterblast-1_all_1_2_20"  />
</g>
<g id="a1_0021"  >
<polygon points="445,135 450,130 467,130 467,140 450,140 445,135 " style="fill:white; stroke-width:1; stroke:black; " description="&lt;b&gt;AAK53479.1&lt;/b&gt;&lt;br&gt;glycosyltransferase&lt;br&gt;Location: 21623 - 22684" locus_tag="AAK53479.1" class="clusterblast-orf" id="knownclusterblast-1_all_1_2_21"  />
</g>
<g id="a1_0022"  >
<polygon points="468,135 473,130 516,130 516,140 473,140 468,135 " style="fill:white; stroke-width:1; stroke:black; " description="&lt;b&gt;AAK53480.1&lt;/b&gt;&lt;br&gt;putative protein kinase&lt;br&gt;Location: 22734 - 25022" locus_tag="AAK53480.1" class="clusterblast-orf" id="knownclusterblast-1_all_1_2_22"  />
</g>
<g id="a1_0023"  >
<polygon points="516,135 521,130 543,130 543,140 521,140 516,135 " style="fill:white; stroke-width:1; stroke:black; " description="&lt;b&gt;AAK53481.1&lt;/b&gt;&lt;br&gt;ATP-binding component of an ABC-type polysaccharide exporter&lt;br&gt;Location: 25062 - 26348" locus_tag="AAK53481.1" class="clusterblast-orf" id="knownclusterblast-1_all_1_2_23"  />
</g>
<g id="a1_0024"  >
<polygon points="543,135 548,130 559,130 559,140 548,140 543,135 " style="fill:white; stroke-width:1; stroke:black; " description="&lt;b&gt;AAK53482.1&lt;/b&gt;&lt;br&gt;permease protein of an ABC-type polysaccaharide exporter&lt;br&gt;Location: 26345 - 27130" locus_tag="AAK53482.1" class="clusterblast-orf" id="knownclusterblast-1_all_1_2_24"  />
</g>
<g id="a1_0025"  >
<polygon points="561,135 566,130 590,130 590,140 566,140 561,135 " style="fill:white; stroke-width:1; stroke:black; " description="&lt;b&gt;AAK53483.1&lt;/b&gt;&lt;br&gt;glycosyltransferase&lt;br&gt;Location: 27214 - 28599" locus_tag="AAK53483.1" class="clusterblast-orf" id="knownclusterblast-1_all_1_2_25"  />
</g>
<g id="a1_0026"  >
<polygon points="590,135 595,130 614,130 614,140 595,140 590,135 " style="fill:#15d863; stroke-width:1; stroke:black; " description="&lt;b&gt;AAK53484.1&lt;/b&gt;&lt;br&gt;cystathionine gamma-synthase&lt;br&gt;Location: 28596 - 29795&lt;br&gt;&lt;br&gt;&lt;b&gt;BlastP hit with ctg3_30&lt;/b&gt;&lt;br&gt;Percentage identity: 68&lt;br&gt;Percentage coverage: 97&lt;br&gt;BLAST bit score: 539&lt;br&gt;E-value: 7.15e-193" locus_tag="AAK53484.1" class="clusterblast-orf" id="knownclusterblast-1_all_1_2_26"  />
</g>
<g id="a1_0027"  >
<polygon points="616,135 621,130 645,130 645,140 621,140 616,135 " style="fill:#1563d8; stroke-width:1; stroke:black; " description="&lt;b&gt;AAK53485.1&lt;/b&gt;&lt;br&gt;cystathionine beta-lyase&lt;br&gt;Location: 29889 - 31259&lt;br&gt;&lt;br&gt;&lt;b&gt;BlastP hit with ctg3_31&lt;/b&gt;&lt;br&gt;Percentage identity: 62&lt;br&gt;Percentage coverage: 98&lt;br&gt;BLAST bit score: 548&lt;br&gt;E-value: 1.77e-194" locus_tag="AAK53485.1" class="clusterblast-orf" id="knownclusterblast-1_all_1_2_27"  />
</g>
<g id="a1_0028"  >
<polygon points="650,135 655,130 660,130 660,140 655,140 650,135 " style="fill:white; stroke-width:1; stroke:black; " description="&lt;b&gt;AAK53486.1&lt;/b&gt;&lt;br&gt;UptF&lt;br&gt;Location: 31491 - 31985" locus_tag="AAK53486.1" class="clusterblast-orf" id="knownclusterblast-1_all_1_2_28"  />
</g>
<g id="a1_0029"  >
<polygon points="661,135 666,130 680,130 680,140 666,140 661,135 " style="fill:white; stroke-width:1; stroke:black; " description="&lt;b&gt;AAK53487.1&lt;/b&gt;&lt;br&gt;putative outer membrane protein UptE precursor&lt;br&gt;Location: 32051 - 32941" locus_tag="AAK53487.1" class="clusterblast-orf" id="knownclusterblast-1_all_1_2_29"  />
</g>
<g id="a1_0030"  >
<polygon points="680,135 685,130 688,130 688,140 685,140 680,135 " style="fill:white; stroke-width:1; stroke:black; " description="&lt;b&gt;AAK53488.1&lt;/b&gt;&lt;br&gt;putative outer membrane protein UptD precursor&lt;br&gt;Location: 32938 - 33321" locus_tag="AAK53488.1" class="clusterblast-orf" id="knownclusterblast-1_all_1_2_30"  />
</g>
<g id="a1_0031"  >
<polygon points="690,140 708,140 713,135 708,130 690,130 690,140 " style="fill:white; stroke-width:1; stroke:black; " description="&lt;b&gt;AAK53489.1&lt;/b&gt;&lt;br&gt;type II secretion system protein-like protein&lt;br&gt;Location: 33420 - 34553" locus_tag="AAK53489.1" class="clusterblast-orf" id="knownclusterblast-1_all_1_2_31"  />
</g>
<g id="a1_0032"  >
<polygon points="724,135 729,130 738,130 738,140 729,140 724,135 " style="fill:white; stroke-width:1; stroke:black; " description="&lt;b&gt;AAK53490.1&lt;/b&gt;&lt;br&gt;putative maleylacetoacetate isomerase&lt;br&gt;Location: 35073 - 35735" locus_tag="AAK53490.1" class="clusterblast-orf" id="knownclusterblast-1_all_1_2_32"  />
</g>
<g id="a1_0033"  >
<polygon points="739,135 744,130 759,130 759,140 744,140 739,135 " style="fill:white; stroke-width:1; stroke:black; " description="&lt;b&gt;AAK53491.1&lt;/b&gt;&lt;br&gt;putative dioxygenase&lt;br&gt;Location: 35779 - 36768" locus_tag="AAK53491.1" class="clusterblast-orf" id="knownclusterblast-1_all_1_2_33"  />
</g>
<g id="a1_0034"  >
<polygon points="767,140 775,140 780,135 775,130 767,130 767,140 " style="fill:white; stroke-width:1; stroke:black; " description="&lt;b&gt;AAK53492.1&lt;/b&gt;&lt;br&gt;putative ATP-dependent RNA helicase&lt;br&gt;Location: 37148 - 37753" locus_tag="AAK53492.1" class="clusterblast-orf" id="knownclusterblast-1_all_1_2_34"  />
</g>
</svg>
