<svg xmlns="http://www.w3.org/2000/svg" xmlns:xlink="http://www.w3.org/1999/xlink" version="1.1" x="0" y="0" height="50" width="800" viewBox="0 0 800 50" preserveAspectRatio="none"  >
<g label="Query sequence" class="clusterblast-cluster"  >
<text x="5" y="20" class="clusterblast-acc"  >
Query sequence</text>
<line x1="10" y1="35" x2="778.0" y2="35" style="stroke-width:1; stroke:grey; "  />
<polygon points="0,35 5,30 71,30 71,40 5,40 0,35 " style="fill:white; stroke-width:1; stroke:black; " description="&lt;b&gt;ctg5_113&lt;/b&gt;&lt;br&gt;ctg5 113&lt;br&gt;Location: 122801 - 123842" locus_tag="ctg5_113" class="clusterblast-orf" id="knownclusterblast-2_q0_0_all"  />
<polygon points="94,40 160,40 165,35 160,30 94,30 94,40 " style="fill:white; stroke-width:1; stroke:black; " description="&lt;b&gt;ctg5_114&lt;/b&gt;&lt;br&gt;ctg5 114&lt;br&gt;Location: 124185 - 125244" locus_tag="ctg5_114" class="clusterblast-orf" id="knownclusterblast-2_q1_0_all"  />
<polygon points="165,40 204,40 209,35 204,30 165,30 165,40 " style="fill:white; stroke-width:1; stroke:black; " description="&lt;b&gt;ctg5_115&lt;/b&gt;&lt;br&gt;ctg5 115&lt;br&gt;Location: 125243 - 125894" locus_tag="ctg5_115" class="clusterblast-orf" id="knownclusterblast-2_q2_0_all"  />
<polygon points="210,40 253,40 258,35 253,30 210,30 210,40 " style="fill:white; stroke-width:1; stroke:black; " description="&lt;b&gt;ctg5_116&lt;/b&gt;&lt;br&gt;ctg5 116&lt;br&gt;Location: 125902 - 126616" locus_tag="ctg5_116" class="clusterblast-orf" id="knownclusterblast-2_q3_0_all"  />
<polygon points="284,40 292,40 297,35 292,30 284,30 284,40 " style="fill:white; stroke-width:1; stroke:black; " description="&lt;b&gt;ctg5_117&lt;/b&gt;&lt;br&gt;ctg5 117&lt;br&gt;Location: 126992 - 127181" locus_tag="ctg5_117" class="clusterblast-orf" id="knownclusterblast-2_q4_0_all"  />
<polygon points="322,40 448,40 453,35 448,30 322,30 322,40 " style="fill:white; stroke-width:1; stroke:black; " description="&lt;b&gt;ctg5_118&lt;/b&gt;&lt;br&gt;ctg5 118&lt;br&gt;Location: 127563 - 129489" locus_tag="ctg5_118" class="clusterblast-orf" id="knownclusterblast-2_q5_0_all"  />
<polygon points="452,40 529,40 534,35 529,30 452,30 452,40 " style="fill:white; stroke-width:1; stroke:black; " description="&lt;b&gt;ctg5_119&lt;/b&gt;&lt;br&gt;ctg5 119&lt;br&gt;Location: 129478 - 130690" locus_tag="ctg5_119" class="clusterblast-orf" id="knownclusterblast-2_q6_0_all"  />
<polygon points="535,40 673,40 678,35 673,30 535,30 535,40 " style="fill:white; stroke-width:1; stroke:black; " description="&lt;b&gt;ctg5_120&lt;/b&gt;&lt;br&gt;ctg5 120&lt;br&gt;Location: 130701 - 132822" locus_tag="ctg5_120" class="clusterblast-orf" id="knownclusterblast-2_q7_0_all"  />
<polygon points="685,35 690,30 722,30 722,40 690,40 685,35 " style="fill:white; stroke-width:1; stroke:black; " description="&lt;b&gt;ctg5_121&lt;/b&gt;&lt;br&gt;ctg5 121&lt;br&gt;Location: 132924 - 133470" locus_tag="ctg5_121" class="clusterblast-orf" id="knownclusterblast-2_q8_0_all"  />
<polygon points="724,35 729,30 780,30 780,40 729,40 724,35 " style="fill:white; stroke-width:1; stroke:black; " description="&lt;b&gt;ctg5_122&lt;/b&gt;&lt;br&gt;ctg5 122&lt;br&gt;Location: 133495 - 134329" locus_tag="ctg5_122" class="clusterblast-orf" id="knownclusterblast-2_q9_0_all"  />
</g>
</svg>
