<svg xmlns="http://www.w3.org/2000/svg" xmlns:xlink="http://www.w3.org/1999/xlink" version="1.1" x="0" y="0" height="50" width="800" viewBox="0 0 800 50" preserveAspectRatio="none"  >
<g label="Query sequence" class="clusterblast-cluster"  >
<text x="5" y="20" class="clusterblast-acc"  >
Query sequence</text>
<line x1="10" y1="35" x2="778.0" y2="35" style="stroke-width:1; stroke:grey; "  />
<polygon points="0,35 5,30 43,30 43,40 5,40 0,35 " style="fill:white; stroke-width:1; stroke:black; " description="&lt;b&gt;ctg1_608&lt;/b&gt;&lt;br&gt;ctg1 608&lt;br&gt;Location: 639170 - 639692" locus_tag="ctg1_608" class="clusterblast-orf" id="knownclusterblast-2_q0_0_all"  />
<polygon points="53,40 165,40 170,35 165,30 53,30 53,40 " style="fill:white; stroke-width:1; stroke:black; " description="&lt;b&gt;ctg1_609&lt;/b&gt;&lt;br&gt;ctg1 609&lt;br&gt;Location: 639822 - 641262" locus_tag="ctg1_609" class="clusterblast-orf" id="knownclusterblast-2_q1_0_all"  />
<polygon points="192,35 197,30 288,30 288,40 197,40 192,35 " style="fill:white; stroke-width:1; stroke:black; " description="&lt;b&gt;ctg1_610&lt;/b&gt;&lt;br&gt;ctg1 610&lt;br&gt;Location: 641522 - 642707" locus_tag="ctg1_610" class="clusterblast-orf" id="knownclusterblast-2_q2_0_all"  />
<polygon points="295,35 300,30 359,30 359,40 300,40 295,35 " style="fill:white; stroke-width:1; stroke:black; " description="&lt;b&gt;ctg1_611&lt;/b&gt;&lt;br&gt;ctg1 611&lt;br&gt;Location: 642794 - 643583" locus_tag="ctg1_611" class="clusterblast-orf" id="knownclusterblast-2_q3_0_all"  />
<polygon points="358,35 363,30 427,30 427,40 363,40 358,35 " style="fill:white; stroke-width:1; stroke:black; " description="&lt;b&gt;ctg1_612&lt;/b&gt;&lt;br&gt;ctg1 612&lt;br&gt;Location: 643573 - 644419" locus_tag="ctg1_612" class="clusterblast-orf" id="knownclusterblast-2_q4_0_all"  />
<polygon points="433,35 438,30 453,30 453,40 438,40 433,35 " style="fill:white; stroke-width:1; stroke:black; " description="&lt;b&gt;ctg1_613&lt;/b&gt;&lt;br&gt;ctg1 613&lt;br&gt;Location: 644486 - 644738" locus_tag="ctg1_613" class="clusterblast-orf" id="knownclusterblast-2_q5_0_all"  />
<polygon points="463,35 468,30 616,30 616,40 468,40 463,35 " style="fill:white; stroke-width:1; stroke:black; " description="&lt;b&gt;ctg1_614&lt;/b&gt;&lt;br&gt;ctg1 614&lt;br&gt;Location: 644855 - 646742" locus_tag="ctg1_614" class="clusterblast-orf" id="knownclusterblast-2_q6_0_all"  />
<polygon points="616,35 621,30 700,30 700,40 621,40 616,35 " style="fill:white; stroke-width:1; stroke:black; " description="&lt;b&gt;ctg1_615&lt;/b&gt;&lt;br&gt;ctg1 615&lt;br&gt;Location: 646738 - 647773" locus_tag="ctg1_615" class="clusterblast-orf" id="knownclusterblast-2_q7_0_all"  />
<polygon points="700,35 705,30 780,30 780,40 705,40 700,35 " style="fill:white; stroke-width:1; stroke:black; " description="&lt;b&gt;ctg1_616&lt;/b&gt;&lt;br&gt;ctg1 616&lt;br&gt;Location: 647769 - 648759" locus_tag="ctg1_616" class="clusterblast-orf" id="knownclusterblast-2_q8_0_all"  />
</g>
</svg>
