<svg xmlns="http://www.w3.org/2000/svg" xmlns:xlink="http://www.w3.org/1999/xlink" version="1.1" x="0" y="0" height="230" width="800" viewBox="0 0 800 230" preserveAspectRatio="none"  >
<g label="Query sequence" class="clusterblast-cluster"  >
<text x="5" y="20" class="clusterblast-acc"  >
Query sequence</text>
<line x1="10" y1="35" x2="778.0" y2="35" style="stroke-width:1; stroke:grey; "  />
<polygon points="33,40 52,40 57,35 52,30 33,30 33,40 " style="fill:white; stroke-width:1; stroke:black; " description="&lt;b&gt;ctg2_88&lt;/b&gt;&lt;br&gt;ctg2 88&lt;br&gt;Location: 86756 - 88256" locus_tag="ctg2_88" class="clusterblast-orf" id="dummy-1_q0_0_all"  />
<polygon points="57,40 61,40 66,35 61,30 57,30 57,40 " style="fill:white; stroke-width:1; stroke:black; " description="&lt;b&gt;ctg2_89&lt;/b&gt;&lt;br&gt;ctg2 89&lt;br&gt;Location: 88218 - 88815" locus_tag="ctg2_89" class="clusterblast-orf" id="dummy-1_q1_0_all"  />
<polygon points="68,40 79,40 84,35 79,30 68,30 68,40 " style="fill:white; stroke-width:1; stroke:black; " description="&lt;b&gt;ctg2_90&lt;/b&gt;&lt;br&gt;ctg2 90&lt;br&gt;Location: 88926 - 89868" locus_tag="ctg2_90" class="clusterblast-orf" id="dummy-1_q2_0_all"  />
<polygon points="85,35 90,30 97,30 97,40 90,40 85,35 " style="fill:#d81515; stroke-width:1; stroke:black; " description="&lt;b&gt;ctg2_91&lt;/b&gt;&lt;br&gt;ctg2 91&lt;br&gt;Location: 89929 - 90685" locus_tag="ctg2_91" class="clusterblast-orf" id="dummy-1_q3_0_all"  />
<polygon points="97,35 102,30 110,30 110,40 102,40 97,35 " style="fill:#4dd815; stroke-width:1; stroke:black; " description="&lt;b&gt;ctg2_92&lt;/b&gt;&lt;br&gt;ctg2 92&lt;br&gt;Location: 90674 - 91478" locus_tag="ctg2_92" class="clusterblast-orf" id="dummy-1_q4_0_all"  />
<polygon points="110,35 115,30 123,30 123,40 115,40 110,35 " style="fill:#1585d8; stroke-width:1; stroke:black; " description="&lt;b&gt;ctg2_93&lt;/b&gt;&lt;br&gt;ctg2 93&lt;br&gt;Location: 91470 - 92292" locus_tag="ctg2_93" class="clusterblast-orf" id="dummy-1_q5_0_all"  />
<polygon points="123,35 128,30 129,30 129,40 128,40 123,35 " style="fill:white; stroke-width:1; stroke:black; " description="&lt;b&gt;ctg2_94&lt;/b&gt;&lt;br&gt;ctg2 94&lt;br&gt;Location: 92304 - 92670" locus_tag="ctg2_94" class="clusterblast-orf" id="dummy-1_q6_0_all"  />
<polygon points="129,35 134,30 151,30 151,40 134,40 129,35 " style="fill:white; stroke-width:1; stroke:black; " description="&lt;b&gt;ctg2_95&lt;/b&gt;&lt;br&gt;ctg2 95&lt;br&gt;Location: 92699 - 93998" locus_tag="ctg2_95" class="clusterblast-orf" id="dummy-1_q7_0_all"  />
<polygon points="154,40 156,40 161,35 156,30 154,30 154,40 " style="fill:white; stroke-width:1; stroke:black; " description="&lt;b&gt;ctg2_96&lt;/b&gt;&lt;br&gt;ctg2 96&lt;br&gt;Location: 94206 - 94629" locus_tag="ctg2_96" class="clusterblast-orf" id="dummy-1_q8_0_all"  />
<polygon points="163,35 168,30 176,30 176,40 168,40 163,35 " style="fill:white; stroke-width:1; stroke:black; " description="&lt;b&gt;ctg2_97&lt;/b&gt;&lt;br&gt;ctg2 97&lt;br&gt;Location: 94754 - 95555" locus_tag="ctg2_97" class="clusterblast-orf" id="dummy-1_q9_0_all"  />
<polygon points="176,35 181,30 189,30 189,40 181,40 176,35 " style="fill:white; stroke-width:1; stroke:black; " description="&lt;b&gt;ctg2_98&lt;/b&gt;&lt;br&gt;ctg2 98&lt;br&gt;Location: 95570 - 96374" locus_tag="ctg2_98" class="clusterblast-orf" id="dummy-1_q10_0_all"  />
<polygon points="189,35 194,30 210,30 210,40 194,40 189,35 " style="fill:#d815bc; stroke-width:1; stroke:black; " description="&lt;b&gt;ctg2_99&lt;/b&gt;&lt;br&gt;ctg2 99&lt;br&gt;Location: 96385 - 97690" locus_tag="ctg2_99" class="clusterblast-orf" id="dummy-1_q11_0_all"  />
<polygon points="211,35 216,30 218,30 218,40 216,40 211,35 " style="fill:white; stroke-width:1; stroke:black; " description="&lt;b&gt;ctg2_100&lt;/b&gt;&lt;br&gt;ctg2 100&lt;br&gt;Location: 97735 - 98128" locus_tag="ctg2_100" class="clusterblast-orf" id="dummy-1_q12_0_all"  />
<polygon points="218,35 223,30 232,30 232,40 223,40 218,35 " style="fill:white; stroke-width:1; stroke:black; " description="&lt;b&gt;ctg2_101&lt;/b&gt;&lt;br&gt;ctg2 101&lt;br&gt;Location: 98143 - 99001" locus_tag="ctg2_101" class="clusterblast-orf" id="dummy-1_q13_0_all"  />
<polygon points="232,35 237,30 256,30 256,40 237,40 232,35 " style="fill:white; stroke-width:1; stroke:black; " description="&lt;b&gt;ctg2_102&lt;/b&gt;&lt;br&gt;ctg2 102&lt;br&gt;Location: 99047 - 100508" locus_tag="ctg2_102" class="clusterblast-orf" id="dummy-1_q14_0_all"  />
<polygon points="256,35 261,30 269,30 269,40 261,40 256,35 " style="fill:white; stroke-width:1; stroke:black; " description="&lt;b&gt;ctg2_103&lt;/b&gt;&lt;br&gt;ctg2 103&lt;br&gt;Location: 100513 - 101284" locus_tag="ctg2_103" class="clusterblast-orf" id="dummy-1_q15_0_all"  />
<polygon points="269,35 274,30 279,30 279,40 274,40 269,35 " style="fill:white; stroke-width:1; stroke:black; " description="&lt;b&gt;ctg2_104&lt;/b&gt;&lt;br&gt;ctg2 104&lt;br&gt;Location: 101280 - 101946" locus_tag="ctg2_104" class="clusterblast-orf" id="dummy-1_q16_0_all"  />
<polygon points="282,40 291,40 296,35 291,30 282,30 282,40 " style="fill:white; stroke-width:1; stroke:black; " description="&lt;b&gt;ctg2_105&lt;/b&gt;&lt;br&gt;ctg2 105&lt;br&gt;Location: 102074 - 102935" locus_tag="ctg2_105" class="clusterblast-orf" id="dummy-1_q17_0_all"  />
<polygon points="294,35 299,30 318,30 318,40 299,40 294,35 " style="fill:#d8bc15; stroke-width:1; stroke:black; " description="&lt;b&gt;ctg2_106&lt;/b&gt;&lt;br&gt;ctg2 106&lt;br&gt;Location: 102861 - 104331" locus_tag="ctg2_106" class="clusterblast-orf" id="dummy-1_q18_0_all"  />
<polygon points="318,35 323,30 331,30 331,40 323,40 318,35 " style="fill:#15d885; stroke-width:1; stroke:black; " description="&lt;b&gt;ctg2_107&lt;/b&gt;&lt;br&gt;ctg2 107&lt;br&gt;Location: 104330 - 105125" locus_tag="ctg2_107" class="clusterblast-orf" id="dummy-1_q19_0_all"  />
<polygon points="339,40 436,40 441,35 436,30 339,30 339,40 " style="fill:#4d15d8; stroke-width:1; stroke:black; " description="&lt;b&gt;ctg2_108&lt;/b&gt;&lt;br&gt;ctg2 108&lt;br&gt;Location: 105612 - 111882" locus_tag="ctg2_108" class="clusterblast-orf" id="dummy-1_q20_0_all"  />
<polygon points="458,40 461,35 458,30 458,40 " style="fill:white; stroke-width:1; stroke:black; " description="&lt;b&gt;ctg2_109&lt;/b&gt;&lt;br&gt;ctg2 109&lt;br&gt;Location: 112938 - 113106" locus_tag="ctg2_109" class="clusterblast-orf" id="dummy-1_q21_0_all"  />
<polygon points="462,40 471,40 476,35 471,30 462,30 462,40 " style="fill:white; stroke-width:1; stroke:black; " description="&lt;b&gt;ctg2_110&lt;/b&gt;&lt;br&gt;ctg2 110&lt;br&gt;Location: 113200 - 114058" locus_tag="ctg2_110" class="clusterblast-orf" id="dummy-1_q22_0_all"  />
<polygon points="476,40 484,40 489,35 484,30 476,30 476,40 " style="fill:white; stroke-width:1; stroke:black; " description="&lt;b&gt;ctg2_111&lt;/b&gt;&lt;br&gt;ctg2 111&lt;br&gt;Location: 114054 - 114861" locus_tag="ctg2_111" class="clusterblast-orf" id="dummy-1_q23_0_all"  />
<polygon points="489,40 503,40 508,35 503,30 489,30 489,40 " style="fill:white; stroke-width:1; stroke:black; " description="&lt;b&gt;ctg2_112&lt;/b&gt;&lt;br&gt;ctg2 112&lt;br&gt;Location: 114847 - 116041" locus_tag="ctg2_112" class="clusterblast-orf" id="dummy-1_q24_0_all"  />
<polygon points="508,40 515,40 520,35 515,30 508,30 508,40 " style="fill:white; stroke-width:1; stroke:black; " description="&lt;b&gt;ctg2_113&lt;/b&gt;&lt;br&gt;ctg2 113&lt;br&gt;Location: 116049 - 116802" locus_tag="ctg2_113" class="clusterblast-orf" id="dummy-1_q25_0_all"  />
<polygon points="520,40 527,40 532,35 527,30 520,30 520,40 " style="fill:white; stroke-width:1; stroke:black; " description="&lt;b&gt;ctg2_114&lt;/b&gt;&lt;br&gt;ctg2 114&lt;br&gt;Location: 116801 - 117515" locus_tag="ctg2_114" class="clusterblast-orf" id="dummy-1_q26_0_all"  />
<polygon points="532,35 537,30 557,30 557,40 537,40 532,35 " style="fill:white; stroke-width:1; stroke:black; " description="&lt;b&gt;ctg2_115&lt;/b&gt;&lt;br&gt;ctg2 115&lt;br&gt;Location: 117536 - 119054" locus_tag="ctg2_115" class="clusterblast-orf" id="dummy-1_q27_0_all"  />
<polygon points="557,35 562,30 584,30 584,40 562,40 557,35 " style="fill:white; stroke-width:1; stroke:black; " description="&lt;b&gt;ctg2_116&lt;/b&gt;&lt;br&gt;ctg2 116&lt;br&gt;Location: 119080 - 120736" locus_tag="ctg2_116" class="clusterblast-orf" id="dummy-1_q28_0_all"  />
<polygon points="587,35 592,30 598,30 598,40 592,40 587,35 " style="fill:white; stroke-width:1; stroke:black; " description="&lt;b&gt;ctg2_117&lt;/b&gt;&lt;br&gt;ctg2 117&lt;br&gt;Location: 120925 - 121600" locus_tag="ctg2_117" class="clusterblast-orf" id="dummy-1_q29_0_all"  />
<polygon points="603,40 609,40 614,35 609,30 603,30 603,40 " style="fill:white; stroke-width:1; stroke:black; " description="&lt;b&gt;ctg2_118&lt;/b&gt;&lt;br&gt;ctg2 118&lt;br&gt;Location: 121874 - 122543" locus_tag="ctg2_118" class="clusterblast-orf" id="dummy-1_q30_0_all"  />
<polygon points="613,40 649,40 654,35 649,30 613,30 613,40 " style="fill:white; stroke-width:1; stroke:black; " description="&lt;b&gt;ctg2_119&lt;/b&gt;&lt;br&gt;ctg2 119&lt;br&gt;Location: 122511 - 125007" locus_tag="ctg2_119" class="clusterblast-orf" id="dummy-1_q31_0_all"  />
<polygon points="653,40 666,40 671,35 666,30 653,30 653,40 " style="fill:white; stroke-width:1; stroke:black; " description="&lt;b&gt;ctg2_120&lt;/b&gt;&lt;br&gt;ctg2 120&lt;br&gt;Location: 124996 - 126061" locus_tag="ctg2_120" class="clusterblast-orf" id="dummy-1_q32_0_all"  />
<polygon points="673,40 692,40 697,35 692,30 673,30 673,40 " style="fill:white; stroke-width:1; stroke:black; " description="&lt;b&gt;ctg2_121&lt;/b&gt;&lt;br&gt;ctg2 121&lt;br&gt;Location: 126211 - 127654" locus_tag="ctg2_121" class="clusterblast-orf" id="dummy-1_q33_0_all"  />
<polygon points="697,35 702,30 715,30 715,40 702,40 697,35 " style="fill:white; stroke-width:1; stroke:black; " description="&lt;b&gt;ctg2_122&lt;/b&gt;&lt;br&gt;ctg2 122&lt;br&gt;Location: 127704 - 128805" locus_tag="ctg2_122" class="clusterblast-orf" id="dummy-1_q34_0_all"  />
<polygon points="715,35 720,30 726,30 726,40 720,40 715,35 " style="fill:white; stroke-width:1; stroke:black; " description="&lt;b&gt;ctg2_123&lt;/b&gt;&lt;br&gt;ctg2 123&lt;br&gt;Location: 128807 - 129479" locus_tag="ctg2_123" class="clusterblast-orf" id="dummy-1_q35_0_all"  />
<polygon points="731,40 741,40 746,35 741,30 731,30 731,40 " style="fill:white; stroke-width:1; stroke:black; " description="&lt;b&gt;ctg2_124&lt;/b&gt;&lt;br&gt;ctg2 124&lt;br&gt;Location: 129796 - 130720" locus_tag="ctg2_124" class="clusterblast-orf" id="dummy-1_q36_0_all"  />
</g>
<g label="BGC0001980" description="BGC0001980_c1: lokisin (28% of genes show similarity), NRP" class="clusterblast-cluster"  >
<text x="5" y="70" class="clusterblast-acc"  >
<a xlink:href="https://mibig.secondarymetabolites.org/go/BGC0001980/1" target="_blank">BGC0001980</a>: lokisin                                                                          (28% of genes show similarity), NRP</text>
<line x1="10" y1="85" x2="778.0" y2="85" style="stroke-width:1; stroke:grey; "  />
</g>
<g id="a1_000"  >
<polygon points="0,90 11,90 16,85 11,80 0,80 0,90 " style="fill:white; stroke-width:1; stroke:black; " description="&lt;b&gt;QDF82265.1&lt;/b&gt;&lt;br&gt;ABC-type nitrate/sulfonate/bicarbonate transport systems, periplasmic components&lt;br&gt;Location: 49780 - 48764" locus_tag="QDF82265.1" class="clusterblast-orf" id="dummy-1_h1_5_0"  />
</g>
<g id="a1_001"  >
<polygon points="18,90 21,90 26,85 21,80 18,80 18,90 " style="fill:white; stroke-width:1; stroke:black; " description="&lt;b&gt;QDF82264.1&lt;/b&gt;&lt;br&gt;hypothetical protein&lt;br&gt;Location: 48636 - 48142" locus_tag="QDF82264.1" class="clusterblast-orf" id="dummy-1_h1_5_1"  />
</g>
<g id="a1_002"  >
<polygon points="27,85 32,80 35,80 35,90 32,90 27,85 " style="fill:white; stroke-width:1; stroke:black; " description="&lt;b&gt;QDF82263.1&lt;/b&gt;&lt;br&gt;copper metallochaperone&lt;br&gt;Location: 48072 - 47605" locus_tag="QDF82263.1" class="clusterblast-orf" id="dummy-1_h1_5_2"  />
</g>
<g id="a1_003"  >
<polygon points="35,85 40,80 45,80 45,90 40,90 35,85 " style="fill:white; stroke-width:1; stroke:black; " description="&lt;b&gt;QDF82262.1&lt;/b&gt;&lt;br&gt;cytochrome oxidase biogenesis protein Sco1/SenC/PrrC, putative copper metallochaperone&lt;br&gt;Location: 47593 - 46988" locus_tag="QDF82262.1" class="clusterblast-orf" id="dummy-1_h1_5_3"  />
</g>
<g id="a1_004"  >
<polygon points="47,85 52,80 70,80 70,90 52,90 47,85 " style="fill:#d8bc15; stroke-width:1; stroke:black; " description="&lt;b&gt;QDF82261.1&lt;/b&gt;&lt;br&gt;RND efflux system, outer membrane lipoprotein CmeC&lt;br&gt;Location: 46831 - 45425&lt;br&gt;&lt;br&gt;&lt;b&gt;BlastP hit with ctg2_106&lt;/b&gt;&lt;br&gt;Percentage identity: 73&lt;br&gt;Percentage coverage: 94&lt;br&gt;BLAST bit score: 639&lt;br&gt;E-value: 8.62e-230" locus_tag="QDF82261.1" class="clusterblast-orf" id="dummy-1_h1_5_4"  />
</g>
<g id="a1_005"  >
<polygon points="72,85 77,80 84,80 84,90 77,90 72,85 " style="fill:#15d885; stroke-width:1; stroke:black; " description="&lt;b&gt;QDF82260.1&lt;/b&gt;&lt;br&gt;transcriptional regulator, LuxR family&lt;br&gt;Location: 45340 - 44546&lt;br&gt;&lt;br&gt;&lt;b&gt;BlastP hit with ctg2_107&lt;/b&gt;&lt;br&gt;Percentage identity: 61&lt;br&gt;Percentage coverage: 100&lt;br&gt;BLAST bit score: 308&lt;br&gt;E-value: 4.29e-106" locus_tag="QDF82260.1" class="clusterblast-orf" id="dummy-1_h1_5_5"  />
</g>
<g id="a1_006"  >
<polygon points="93,90 191,90 196,85 191,80 93,80 93,90 " style="fill:#4d15d8; stroke-width:1; stroke:black; " description="&lt;b&gt;QDF82254.1&lt;/b&gt;&lt;br&gt;non-ribosomal peptide synthetase&lt;br&gt;Location: 44033 - 37644&lt;br&gt;&lt;br&gt;&lt;b&gt;BlastP hit with ctg2_108&lt;/b&gt;&lt;br&gt;Percentage identity: 63&lt;br&gt;Percentage coverage: 102&lt;br&gt;BLAST bit score: 2580&lt;br&gt;E-value: 0.0" locus_tag="QDF82254.1" class="clusterblast-orf" id="dummy-1_h1_5_6"  />
</g>
<g id="a1_007"  >
<polygon points="200,90 406,90 411,85 406,80 200,80 200,90 " style="fill:#4d15d8; stroke-width:1; stroke:black; " description="&lt;b&gt;QDF82255.1&lt;/b&gt;&lt;br&gt;non-ribosomal peptide synthetase&lt;br&gt;Location: 37399 - 24386&lt;br&gt;&lt;br&gt;&lt;b&gt;BlastP hit with ctg2_108&lt;/b&gt;&lt;br&gt;Percentage identity: 59&lt;br&gt;Percentage coverage: 79&lt;br&gt;BLAST bit score: 1865&lt;br&gt;E-value: 0.0" locus_tag="QDF82255.1" class="clusterblast-orf" id="dummy-1_h1_5_7"  />
</g>
<g id="a1_008"  >
<polygon points="411,90 696,90 701,85 696,80 411,80 411,90 " style="fill:white; stroke-width:1; stroke:black; " description="&lt;b&gt;QDF82259.1&lt;/b&gt;&lt;br&gt;non-ribosomal peptide synthetase&lt;br&gt;Location: 24389 - 6567" locus_tag="QDF82259.1" class="clusterblast-orf" id="dummy-1_h1_5_8"  />
</g>
<g id="a1_009"  >
<polygon points="702,90 715,90 720,85 715,80 702,80 702,90 " style="fill:white; stroke-width:1; stroke:black; " description="&lt;b&gt;QDF82253.1&lt;/b&gt;&lt;br&gt;macrolide-specific efflux protein&lt;br&gt;Location: 6500 - 5352" locus_tag="QDF82253.1" class="clusterblast-orf" id="dummy-1_h1_5_9"  />
</g>
<g id="a1_0010"  >
<polygon points="720,90 747,90 752,85 747,80 720,80 720,90 " style="fill:white; stroke-width:1; stroke:black; " description="&lt;b&gt;QDF82252.1&lt;/b&gt;&lt;br&gt;macrolide export ATP-binding/permease protein&lt;br&gt;Location: 5349 - 3391" locus_tag="QDF82252.1" class="clusterblast-orf" id="dummy-1_h1_5_10"  />
</g>
<g id="a1_0011"  >
<polygon points="753,90 754,90 759,85 754,80 753,80 753,90 " style="fill:white; stroke-width:1; stroke:black; " description="&lt;b&gt;QDF82258.1&lt;/b&gt;&lt;br&gt;hypothetical protein&lt;br&gt;Location: 3331 - 2936" locus_tag="QDF82258.1" class="clusterblast-orf" id="dummy-1_h1_5_11"  />
</g>
<g id="a1_0012"  >
<polygon points="765,90 766,90 771,85 766,80 765,80 765,90 " style="fill:white; stroke-width:1; stroke:black; " description="&lt;b&gt;QDF82257.1&lt;/b&gt;&lt;br&gt;hypothetical protein&lt;br&gt;Location: 2569 - 2198" locus_tag="QDF82257.1" class="clusterblast-orf" id="dummy-1_h1_5_12"  />
</g>
<g id="a1_0013"  >
<polygon points="776,90 779,85 776,80 776,90 " style="fill:white; stroke-width:1; stroke:black; " description="&lt;b&gt;QDF82256.1&lt;/b&gt;&lt;br&gt;hypothetical protein&lt;br&gt;Location: 1905 - 1699" locus_tag="QDF82256.1" class="clusterblast-orf" id="dummy-1_h1_5_13"  />
</g>
</svg>
