<svg xmlns="http://www.w3.org/2000/svg" xmlns:xlink="http://www.w3.org/1999/xlink" version="1.1" x="0" y="0" height="230" width="800" viewBox="0 0 800 230" preserveAspectRatio="none"  >
<g label="Query sequence" class="clusterblast-cluster"  >
<text x="5" y="20" class="clusterblast-acc"  >
Query sequence</text>
<line x1="10" y1="35" x2="778.0" y2="35" style="stroke-width:1; stroke:grey; "  />
<polygon points="58,40 65,40 70,35 65,30 58,30 58,40 " style="fill:#d81515; stroke-width:1; stroke:black; " description="&lt;b&gt;ctg2_47&lt;/b&gt;&lt;br&gt;ctg2 47&lt;br&gt;Location: 52023 - 52503" locus_tag="ctg2_47" class="clusterblast-orf" id="dummy-1_q0_0_all"  />
<polygon points="70,40 84,40 89,35 84,30 70,30 70,40 " style="fill:#60d815; stroke-width:1; stroke:black; " description="&lt;b&gt;ctg2_48&lt;/b&gt;&lt;br&gt;ctg2 48&lt;br&gt;Location: 52499 - 53270" locus_tag="ctg2_48" class="clusterblast-orf" id="dummy-1_q1_0_all"  />
<polygon points="91,35 96,30 146,30 146,40 96,40 91,35 " style="fill:#15abd8; stroke-width:1; stroke:black; " description="&lt;b&gt;ctg2_49&lt;/b&gt;&lt;br&gt;ctg2 49&lt;br&gt;Location: 53349 - 55497" locus_tag="ctg2_49" class="clusterblast-orf" id="dummy-1_q2_0_all"  />
<polygon points="148,40 154,40 159,35 154,30 148,30 148,40 " style="fill:#8d15d8; stroke-width:1; stroke:black; " description="&lt;b&gt;ctg2_50&lt;/b&gt;&lt;br&gt;ctg2 50&lt;br&gt;Location: 55594 - 56047" locus_tag="ctg2_50" class="clusterblast-orf" id="dummy-1_q3_0_all"  />
<polygon points="159,40 166,40 171,35 166,30 159,30 159,40 " style="fill:#d84215; stroke-width:1; stroke:black; " description="&lt;b&gt;ctg2_51&lt;/b&gt;&lt;br&gt;ctg2 51&lt;br&gt;Location: 56039 - 56489" locus_tag="ctg2_51" class="clusterblast-orf" id="dummy-1_q4_0_all"  />
<polygon points="172,35 177,30 186,30 186,40 177,40 172,35 " style="fill:#33d815; stroke-width:1; stroke:black; " description="&lt;b&gt;ctg2_52&lt;/b&gt;&lt;br&gt;ctg2 52&lt;br&gt;Location: 56532 - 57111" locus_tag="ctg2_52" class="clusterblast-orf" id="dummy-1_q5_0_all"  />
<polygon points="188,35 193,30 221,30 221,40 193,40 188,35 " style="fill:#157ed8; stroke-width:1; stroke:black; " description="&lt;b&gt;ctg2_53&lt;/b&gt;&lt;br&gt;ctg2 53&lt;br&gt;Location: 57180 - 58494" locus_tag="ctg2_53" class="clusterblast-orf" id="dummy-1_q6_0_all"  />
<polygon points="222,35 226,30 226,40 222,35 " style="fill:#ba15d8; stroke-width:1; stroke:black; " description="&lt;b&gt;ctg2_54&lt;/b&gt;&lt;br&gt;ctg2 54&lt;br&gt;Location: 58544 - 58700" locus_tag="ctg2_54" class="clusterblast-orf" id="dummy-1_q7_0_all"  />
<polygon points="229,35 234,30 249,30 249,40 234,40 229,35 " style="fill:#d86f15; stroke-width:1; stroke:black; " description="&lt;b&gt;ctg2_55&lt;/b&gt;&lt;br&gt;ctg2 55&lt;br&gt;Location: 58801 - 59608" locus_tag="ctg2_55" class="clusterblast-orf" id="dummy-1_q8_0_all"  />
<polygon points="250,35 255,30 266,30 266,40 255,40 250,35 " style="fill:#15d824; stroke-width:1; stroke:black; " description="&lt;b&gt;ctg2_56&lt;/b&gt;&lt;br&gt;ctg2 56&lt;br&gt;Location: 59636 - 60269" locus_tag="ctg2_56" class="clusterblast-orf" id="dummy-1_q9_0_all"  />
<polygon points="269,40 280,40 285,35 280,30 269,30 269,40 " style="fill:#1551d8; stroke-width:1; stroke:black; " description="&lt;b&gt;ctg2_57&lt;/b&gt;&lt;br&gt;ctg2 57&lt;br&gt;Location: 60380 - 61037" locus_tag="ctg2_57" class="clusterblast-orf" id="dummy-1_q10_0_all"  />
<polygon points="286,35 291,30 301,30 301,40 291,40 286,35 " style="fill:#d815c9; stroke-width:1; stroke:black; " description="&lt;b&gt;ctg2_58&lt;/b&gt;&lt;br&gt;ctg2 58&lt;br&gt;Location: 61050 - 61671" locus_tag="ctg2_58" class="clusterblast-orf" id="dummy-1_q11_0_all"  />
<polygon points="305,40 355,40 360,35 355,30 305,30 305,40 " style="fill:#d89c15; stroke-width:1; stroke:black; " description="&lt;b&gt;ctg2_59&lt;/b&gt;&lt;br&gt;ctg2 59&lt;br&gt;Location: 61806 - 64005" locus_tag="ctg2_59" class="clusterblast-orf" id="dummy-1_q12_0_all"  />
<polygon points="370,35 375,30 399,30 399,40 375,40 370,35 " style="fill:#15d851; stroke-width:1; stroke:black; " description="&lt;b&gt;ctg2_60&lt;/b&gt;&lt;br&gt;ctg2 60&lt;br&gt;Location: 64387 - 65554" locus_tag="ctg2_60" class="clusterblast-orf" id="dummy-1_q13_0_all"  />
<polygon points="399,35 404,30 434,30 434,40 404,40 399,35 " style="fill:#1524d8; stroke-width:1; stroke:black; " description="&lt;b&gt;ctg2_61&lt;/b&gt;&lt;br&gt;ctg2 61&lt;br&gt;Location: 65550 - 66927" locus_tag="ctg2_61" class="clusterblast-orf" id="dummy-1_q14_0_all"  />
<polygon points="437,35 442,30 459,30 459,40 442,40 437,35 " style="fill:#d8159c; stroke-width:1; stroke:black; " description="&lt;b&gt;ctg2_62&lt;/b&gt;&lt;br&gt;ctg2 62&lt;br&gt;Location: 67071 - 67923" locus_tag="ctg2_62" class="clusterblast-orf" id="dummy-1_q15_0_all"  />
<polygon points="466,35 471,30 491,30 491,40 471,40 466,35 " style="fill:#d8c915; stroke-width:1; stroke:black; " description="&lt;b&gt;ctg2_63&lt;/b&gt;&lt;br&gt;ctg2 63&lt;br&gt;Location: 68208 - 69186" locus_tag="ctg2_63" class="clusterblast-orf" id="dummy-1_q16_0_all"  />
<polygon points="496,35 501,30 506,30 506,40 501,40 496,35 " style="fill:#15d87e; stroke-width:1; stroke:black; " description="&lt;b&gt;ctg2_64&lt;/b&gt;&lt;br&gt;ctg2 64&lt;br&gt;Location: 69401 - 69794" locus_tag="ctg2_64" class="clusterblast-orf" id="dummy-1_q17_0_all"  />
<polygon points="507,35 512,30 522,30 522,40 512,40 507,35 " style="fill:#3315d8; stroke-width:1; stroke:black; " description="&lt;b&gt;ctg2_65&lt;/b&gt;&lt;br&gt;ctg2 65&lt;br&gt;Location: 69824 - 70445" locus_tag="ctg2_65" class="clusterblast-orf" id="dummy-1_q18_0_all"  />
<polygon points="528,35 533,30 554,30 554,40 533,40 528,35 " style="fill:#d8156f; stroke-width:1; stroke:black; " description="&lt;b&gt;ctg2_66&lt;/b&gt;&lt;br&gt;ctg2 66&lt;br&gt;Location: 70667 - 71687" locus_tag="ctg2_66" class="clusterblast-orf" id="dummy-1_q19_0_all"  />
<polygon points="557,35 562,30 576,30 576,40 562,40 557,35 " style="fill:#bad815; stroke-width:1; stroke:black; " description="&lt;b&gt;ctg2_67&lt;/b&gt;&lt;br&gt;ctg2 67&lt;br&gt;Location: 71826 - 72588" locus_tag="ctg2_67" class="clusterblast-orf" id="dummy-1_q20_0_all"  />
<polygon points="581,35 586,30 598,30 598,40 586,40 581,35 " style="fill:#15d8ab; stroke-width:1; stroke:black; " description="&lt;b&gt;ctg2_68&lt;/b&gt;&lt;br&gt;ctg2 68&lt;br&gt;Location: 72778 - 73438" locus_tag="ctg2_68" class="clusterblast-orf" id="dummy-1_q21_0_all"  />
<polygon points="598,35 603,30 613,30 613,40 603,40 598,35 " style="fill:#6015d8; stroke-width:1; stroke:black; " description="&lt;b&gt;ctg2_69&lt;/b&gt;&lt;br&gt;ctg2 69&lt;br&gt;Location: 73434 - 74034" locus_tag="ctg2_69" class="clusterblast-orf" id="dummy-1_q22_0_all"  />
<polygon points="613,35 618,30 632,30 632,40 618,40 613,35 " style="fill:#bad815; stroke-width:1; stroke:black; " description="&lt;b&gt;ctg2_70&lt;/b&gt;&lt;br&gt;ctg2 70&lt;br&gt;Location: 74030 - 74789" locus_tag="ctg2_70" class="clusterblast-orf" id="dummy-1_q23_0_all"  />
<polygon points="632,35 637,30 657,30 657,40 637,40 632,35 " style="fill:#d81542; stroke-width:1; stroke:black; " description="&lt;b&gt;ctg2_71&lt;/b&gt;&lt;br&gt;ctg2 71&lt;br&gt;Location: 74785 - 75784" locus_tag="ctg2_71" class="clusterblast-orf" id="dummy-1_q24_0_all"  />
<polygon points="657,35 662,30 711,30 711,40 662,40 657,35 " style="fill:#8dd815; stroke-width:1; stroke:black; " description="&lt;b&gt;ctg2_72&lt;/b&gt;&lt;br&gt;ctg2 72&lt;br&gt;Location: 75785 - 77942" locus_tag="ctg2_72" class="clusterblast-orf" id="dummy-1_q25_0_all"  />
<polygon points="715,35 720,30 721,30 721,40 720,40 715,35 " style="fill:#15d8d8; stroke-width:1; stroke:black; " description="&lt;b&gt;ctg2_73&lt;/b&gt;&lt;br&gt;ctg2 73&lt;br&gt;Location: 78073 - 78343" locus_tag="ctg2_73" class="clusterblast-orf" id="dummy-1_q26_0_all"  />
</g>
<g label="NZ_CP052856" description="NZ_CP052856 (1295014-1326035): Pseudomonas sp. ADAK22 chromosome, complete ge... (38% of genes show similarity), thiopeptide" class="clusterblast-cluster"  >
<text x="5" y="70" class="clusterblast-acc"  >
<a xlink:href="https://antismash-db.secondarymetabolites.org/area.html?record=NZ_CP052856&amp;start=1295014&amp;end=1326035" target="_blank">NZ_CP052856 (1295014-1326035)</a>: Pseudomonas sp. ADAK22 chromosome, complete ge... (38% of genes show similarity), thiopeptide</text>
<line x1="10" y1="85" x2="778.0" y2="85" style="stroke-width:1; stroke:grey; "  />
</g>
<g id="a1_000"  >
<polygon points="0,85 5,80 14,80 14,90 5,90 0,85 " style="fill:#33d815; stroke-width:1; stroke:black; " description="&lt;b&gt;HKK58_RS06045&lt;/b&gt;&lt;br&gt;cysteine hydrolase&lt;br&gt;Location: 1325961 - 1325401&lt;br&gt;&lt;br&gt;&lt;b&gt;BlastP hit with ctg2_52&lt;/b&gt;&lt;br&gt;Percentage identity: 84&lt;br&gt;Percentage coverage: 96&lt;br&gt;BLAST bit score: 321&lt;br&gt;E-value: 1.21e-111" locus_tag="HKK58_RS06045" class="clusterblast-orf" id="dummy-1_h1_6_0"  />
</g>
<g id="a1_001"  >
<polygon points="17,90 47,90 52,85 47,80 17,80 17,90 " style="fill:white; stroke-width:1; stroke:black; " description="&lt;b&gt;HKK58_RS06040&lt;/b&gt;&lt;br&gt;hypothetical protein&lt;br&gt;Location: 1325274 - 1323889" locus_tag="HKK58_RS06040" class="clusterblast-orf" id="dummy-1_h1_6_1"  />
</g>
<g id="a1_002"  >
<polygon points="53,90 61,90 66,85 61,80 53,80 53,90 " style="fill:white; stroke-width:1; stroke:black; " description="&lt;b&gt;HKK58_RS06035&lt;/b&gt;&lt;br&gt;GNAT family N-acetyltransferase&lt;br&gt;Location: 1323858 - 1323337" locus_tag="HKK58_RS06035" class="clusterblast-orf" id="dummy-1_h1_6_2"  />
</g>
<g id="a1_003"  >
<polygon points="66,90 76,90 81,85 76,80 66,80 66,90 " style="fill:white; stroke-width:1; stroke:black; " description="&lt;b&gt;HKK58_RS06030&lt;/b&gt;&lt;br&gt;hypothetical protein&lt;br&gt;Location: 1323320 - 1322712" locus_tag="HKK58_RS06030" class="clusterblast-orf" id="dummy-1_h1_6_3"  />
</g>
<g id="a1_004"  >
<polygon points="82,85 87,80 115,80 115,90 87,90 82,85 " style="fill:#157ed8; stroke-width:1; stroke:black; " description="&lt;b&gt;HKK58_RS06025&lt;/b&gt;&lt;br&gt;FAD-dependent oxidoreductase&lt;br&gt;Location: 1322706 - 1321393&lt;br&gt;&lt;br&gt;&lt;b&gt;BlastP hit with ctg2_53&lt;/b&gt;&lt;br&gt;Percentage identity: 92&lt;br&gt;Percentage coverage: 100&lt;br&gt;BLAST bit score: 818&lt;br&gt;E-value: 5.99e-300" locus_tag="HKK58_RS06025" class="clusterblast-orf" id="dummy-1_h1_6_4"  />
</g>
<g id="a1_005"  >
<polygon points="122,85 127,80 143,80 143,90 127,90 122,85 " style="fill:#d86f15; stroke-width:1; stroke:black; " description="&lt;b&gt;HKK58_RS06020&lt;/b&gt;&lt;br&gt;suppressor of fused domain protein&lt;br&gt;Location: 1321086 - 1320271&lt;br&gt;&lt;br&gt;&lt;b&gt;BlastP hit with ctg2_55&lt;/b&gt;&lt;br&gt;Percentage identity: 87&lt;br&gt;Percentage coverage: 101&lt;br&gt;BLAST bit score: 462&lt;br&gt;E-value: 8.95e-165" locus_tag="HKK58_RS06020" class="clusterblast-orf" id="dummy-1_h1_6_5"  />
</g>
<g id="a1_006"  >
<polygon points="144,85 149,80 160,80 160,90 149,90 144,85 " style="fill:#15d824; stroke-width:1; stroke:black; " description="&lt;b&gt;HKK58_RS06015&lt;/b&gt;&lt;br&gt;TetR family transcriptional regulator&lt;br&gt;Location: 1320242 - 1319610&lt;br&gt;&lt;br&gt;&lt;b&gt;BlastP hit with ctg2_56&lt;/b&gt;&lt;br&gt;Percentage identity: 91&lt;br&gt;Percentage coverage: 100&lt;br&gt;BLAST bit score: 363&lt;br&gt;E-value: 1e-127" locus_tag="HKK58_RS06015" class="clusterblast-orf" id="dummy-1_h1_6_6"  />
</g>
<g id="a1_007"  >
<polygon points="162,90 174,90 179,85 174,80 162,80 162,90 " style="fill:#1551d8; stroke-width:1; stroke:black; " description="&lt;b&gt;HKK58_RS06010&lt;/b&gt;&lt;br&gt;class I SAM-dependent methyltransferase&lt;br&gt;Location: 1319498 - 1318842&lt;br&gt;&lt;br&gt;&lt;b&gt;BlastP hit with ctg2_57&lt;/b&gt;&lt;br&gt;Percentage identity: 89&lt;br&gt;Percentage coverage: 100&lt;br&gt;BLAST bit score: 386&lt;br&gt;E-value: 1.32e-136" locus_tag="HKK58_RS06010" class="clusterblast-orf" id="dummy-1_h1_6_7"  />
</g>
<g id="a1_008"  >
<polygon points="179,90 196,90 201,85 196,80 179,80 179,90 " style="fill:white; stroke-width:1; stroke:black; " description="&lt;b&gt;HKK58_RS06005&lt;/b&gt;&lt;br&gt;NAD-dependent epimerase/dehydratase family protein&lt;br&gt;Location: 1318828 - 1317962" locus_tag="HKK58_RS06005" class="clusterblast-orf" id="dummy-1_h1_6_8"  />
</g>
<g id="a1_009"  >
<polygon points="201,90 226,90 231,85 226,80 201,80 201,90 " style="fill:white; stroke-width:1; stroke:black; " description="&lt;b&gt;HKK58_RS06000&lt;/b&gt;&lt;br&gt;arabinose transporter&lt;br&gt;Location: 1317949 - 1316777" locus_tag="HKK58_RS06000" class="clusterblast-orf" id="dummy-1_h1_6_9"  />
</g>
<g id="a1_0010"  >
<polygon points="231,85 236,80 246,80 246,90 236,90 231,85 " style="fill:#d815c9; stroke-width:1; stroke:black; " description="&lt;b&gt;HKK58_RS05995&lt;/b&gt;&lt;br&gt;LysE family transporter&lt;br&gt;Location: 1316790 - 1316170&lt;br&gt;&lt;br&gt;&lt;b&gt;BlastP hit with ctg2_58&lt;/b&gt;&lt;br&gt;Percentage identity: 91&lt;br&gt;Percentage coverage: 100&lt;br&gt;BLAST bit score: 373&lt;br&gt;E-value: 8.06e-132" locus_tag="HKK58_RS05995" class="clusterblast-orf" id="dummy-1_h1_6_10"  />
</g>
<g id="a1_0011"  >
<polygon points="250,90 300,90 305,85 300,80 250,80 250,90 " style="fill:#d89c15; stroke-width:1; stroke:black; " description="&lt;b&gt;HKK58_RS05990&lt;/b&gt;&lt;br&gt;OsmC domain/YcaO domain-containing protein&lt;br&gt;Location: 1316035 - 1313831&lt;br&gt;&lt;br&gt;&lt;b&gt;BlastP hit with ctg2_59&lt;/b&gt;&lt;br&gt;Percentage identity: 97&lt;br&gt;Percentage coverage: 100&lt;br&gt;BLAST bit score: 1448&lt;br&gt;E-value: 0.0" locus_tag="HKK58_RS05990" class="clusterblast-orf" id="dummy-1_h1_6_11"  />
</g>
<g id="a1_0012"  >
<polygon points="335,85 340,80 365,80 365,90 340,90 335,85 " style="fill:#15d851; stroke-width:1; stroke:black; " description="&lt;b&gt;HKK58_RS05985&lt;/b&gt;&lt;br&gt;cystathionine gamma-synthase&lt;br&gt;Location: 1312634 - 1311468&lt;br&gt;&lt;br&gt;&lt;b&gt;BlastP hit with ctg2_60&lt;/b&gt;&lt;br&gt;Percentage identity: 97&lt;br&gt;Percentage coverage: 100&lt;br&gt;BLAST bit score: 758&lt;br&gt;E-value: 7.79e-278" locus_tag="HKK58_RS05985" class="clusterblast-orf" id="dummy-1_h1_6_12"  />
</g>
<g id="a1_0013"  >
<polygon points="365,85 370,80 399,80 399,90 370,90 365,85 " style="fill:#1524d8; stroke-width:1; stroke:black; " description="&lt;b&gt;HKK58_RS05980&lt;/b&gt;&lt;br&gt;cystathionine beta-synthase&lt;br&gt;Location: 1311471 - 1310095&lt;br&gt;&lt;br&gt;&lt;b&gt;BlastP hit with ctg2_61&lt;/b&gt;&lt;br&gt;Percentage identity: 97&lt;br&gt;Percentage coverage: 100&lt;br&gt;BLAST bit score: 869&lt;br&gt;E-value: 0.0" locus_tag="HKK58_RS05980" class="clusterblast-orf" id="dummy-1_h1_6_13"  />
</g>
<g id="a1_0014"  >
<polygon points="403,85 408,80 425,80 425,90 408,90 403,85 " style="fill:#d8159c; stroke-width:1; stroke:black; " description="&lt;b&gt;HKK58_RS05975&lt;/b&gt;&lt;br&gt;4-hydroxy-tetrahydrodipicolinate synthase&lt;br&gt;Location: 1309951 - 1309088&lt;br&gt;&lt;br&gt;&lt;b&gt;BlastP hit with ctg2_62&lt;/b&gt;&lt;br&gt;Percentage identity: 86&lt;br&gt;Percentage coverage: 97&lt;br&gt;BLAST bit score: 460&lt;br&gt;E-value: 1.18e-163" locus_tag="HKK58_RS05975" class="clusterblast-orf" id="dummy-1_h1_6_14"  />
</g>
<g id="a1_0015"  >
<polygon points="432,85 437,80 457,80 457,90 437,90 432,85 " style="fill:#d8c915; stroke-width:1; stroke:black; " description="&lt;b&gt;HKK58_RS05970&lt;/b&gt;&lt;br&gt;alpha/beta hydrolase fold domain-containing protein&lt;br&gt;Location: 1308798 - 1307821&lt;br&gt;&lt;br&gt;&lt;b&gt;BlastP hit with ctg2_63&lt;/b&gt;&lt;br&gt;Percentage identity: 88&lt;br&gt;Percentage coverage: 100&lt;br&gt;BLAST bit score: 579&lt;br&gt;E-value: 2.14e-209" locus_tag="HKK58_RS05970" class="clusterblast-orf" id="dummy-1_h1_6_15"  />
</g>
<g id="a1_0016"  >
<polygon points="463,85 468,80 475,80 475,90 468,90 463,85 " style="fill:white; stroke-width:1; stroke:black; " description="&lt;b&gt;HKK58_RS05965&lt;/b&gt;&lt;br&gt;VOC family protein&lt;br&gt;Location: 1307589 - 1307107" locus_tag="HKK58_RS05965" class="clusterblast-orf" id="dummy-1_h1_6_16"  />
</g>
<g id="a1_0017"  >
<polygon points="477,85 482,80 488,80 488,90 482,90 477,85 " style="fill:white; stroke-width:1; stroke:black; " description="&lt;b&gt;HKK58_RS05960&lt;/b&gt;&lt;br&gt;hypothetical protein&lt;br&gt;Location: 1307026 - 1306565" locus_tag="HKK58_RS05960" class="clusterblast-orf" id="dummy-1_h1_6_17"  />
</g>
<g id="a1_0018"  >
<polygon points="491,85 496,80 518,80 518,90 496,90 491,85 " style="fill:white; stroke-width:1; stroke:black; " description="&lt;b&gt;HKK58_RS05955&lt;/b&gt;&lt;br&gt;helix-turn-helix domain-containing protein&lt;br&gt;Location: 1306454 - 1305405" locus_tag="HKK58_RS05955" class="clusterblast-orf" id="dummy-1_h1_6_18"  />
</g>
<g id="a1_0019"  >
<polygon points="518,85 523,80 527,80 527,90 523,90 518,85 " style="fill:#15d87e; stroke-width:1; stroke:black; " description="&lt;b&gt;HKK58_RS05950&lt;/b&gt;&lt;br&gt;ester cyclase&lt;br&gt;Location: 1305401 - 1305015&lt;br&gt;&lt;br&gt;&lt;b&gt;BlastP hit with ctg2_64&lt;/b&gt;&lt;br&gt;Percentage identity: 85&lt;br&gt;Percentage coverage: 98&lt;br&gt;BLAST bit score: 234&lt;br&gt;E-value: 3.87e-79" locus_tag="HKK58_RS05950" class="clusterblast-orf" id="dummy-1_h1_6_19"  />
</g>
<g id="a1_0020"  >
<polygon points="529,85 534,80 557,80 557,90 534,90 529,85 " style="fill:white; stroke-width:1; stroke:black; " description="&lt;b&gt;HKK58_RS05945&lt;/b&gt;&lt;br&gt;SEL1-like repeat protein&lt;br&gt;Location: 1304963 - 1303842" locus_tag="HKK58_RS05945" class="clusterblast-orf" id="dummy-1_h1_6_20"  />
</g>
<g id="a1_0021"  >
<polygon points="559,85 564,80 574,80 574,90 564,90 559,85 " style="fill:#3315d8; stroke-width:1; stroke:black; " description="&lt;b&gt;HKK58_RS05940&lt;/b&gt;&lt;br&gt;LysE family translocator&lt;br&gt;Location: 1303771 - 1303151&lt;br&gt;&lt;br&gt;&lt;b&gt;BlastP hit with ctg2_65&lt;/b&gt;&lt;br&gt;Percentage identity: 93&lt;br&gt;Percentage coverage: 100&lt;br&gt;BLAST bit score: 370&lt;br&gt;E-value: 1.34e-130" locus_tag="HKK58_RS05940" class="clusterblast-orf" id="dummy-1_h1_6_21"  />
</g>
<g id="a1_0022"  >
<polygon points="581,90 595,90 600,85 595,80 581,80 581,90 " style="fill:white; stroke-width:1; stroke:black; " description="&lt;b&gt;HKK58_RS05935&lt;/b&gt;&lt;br&gt;SDR family oxidoreductase&lt;br&gt;Location: 1302884 - 1302147" locus_tag="HKK58_RS05935" class="clusterblast-orf" id="dummy-1_h1_6_22"  />
</g>
<g id="a1_0023"  >
<polygon points="602,90 620,90 625,85 620,80 602,80 602,90 " style="fill:white; stroke-width:1; stroke:black; " description="&lt;b&gt;HKK58_RS05930&lt;/b&gt;&lt;br&gt;enoyl-CoA hydratase/isomerase family protein&lt;br&gt;Location: 1302053 - 1301142" locus_tag="HKK58_RS05930" class="clusterblast-orf" id="dummy-1_h1_6_23"  />
</g>
<g id="a1_0024"  >
<polygon points="629,90 634,90 639,85 634,80 629,80 629,90 " style="fill:white; stroke-width:1; stroke:black; " description="&lt;b&gt;HKK58_RS05925&lt;/b&gt;&lt;br&gt;ASCH domain-containing protein&lt;br&gt;Location: 1301006 - 1300596" locus_tag="HKK58_RS05925" class="clusterblast-orf" id="dummy-1_h1_6_24"  />
</g>
<g id="a1_0025"  >
<polygon points="645,85 650,80 654,80 654,90 650,90 645,85 " style="fill:white; stroke-width:1; stroke:black; " description="&lt;b&gt;HKK58_RS05920&lt;/b&gt;&lt;br&gt;antibiotic biosynthesis monooxygenase&lt;br&gt;Location: 1300350 - 1300012" locus_tag="HKK58_RS05920" class="clusterblast-orf" id="dummy-1_h1_6_25"  />
</g>
<g id="a1_0026"  >
<polygon points="654,85 659,80 679,80 679,90 659,90 654,85 " style="fill:white; stroke-width:1; stroke:black; " description="&lt;b&gt;HKK58_RS05915&lt;/b&gt;&lt;br&gt;zinc-binding dehydrogenase&lt;br&gt;Location: 1299980 - 1299006" locus_tag="HKK58_RS05915" class="clusterblast-orf" id="dummy-1_h1_6_26"  />
</g>
<g id="a1_0027"  >
<polygon points="681,85 686,80 688,80 688,90 686,90 681,85 " style="fill:white; stroke-width:1; stroke:black; " description="&lt;b&gt;HKK58_RS05910&lt;/b&gt;&lt;br&gt;helix-turn-helix transcriptional regulator&lt;br&gt;Location: 1298940 - 1298638" locus_tag="HKK58_RS05910" class="clusterblast-orf" id="dummy-1_h1_6_27"  />
</g>
<g id="a1_0028"  >
<polygon points="690,85 694,80 694,90 690,85 " style="fill:white; stroke-width:1; stroke:black; " description="&lt;b&gt;HKK58_RS05905&lt;/b&gt;&lt;br&gt;hypothetical protein&lt;br&gt;Location: 1298579 - 1298409" locus_tag="HKK58_RS05905" class="clusterblast-orf" id="dummy-1_h1_6_28"  />
</g>
<g id="a1_0029"  >
<polygon points="704,90 711,90 716,85 711,80 704,80 704,90 " style="fill:white; stroke-width:1; stroke:black; " description="&lt;b&gt;HKK58_RS05900&lt;/b&gt;&lt;br&gt;DUF2867 domain-containing protein&lt;br&gt;Location: 1298016 - 1297537" locus_tag="HKK58_RS05900" class="clusterblast-orf" id="dummy-1_h1_6_29"  />
</g>
<g id="a1_0030"  >
<polygon points="716,85 721,80 722,80 722,90 721,90 716,85 " style="fill:white; stroke-width:1; stroke:black; " description="&lt;b&gt;HKK58_RS05895&lt;/b&gt;&lt;br&gt;DUF4287 domain-containing protein&lt;br&gt;Location: 1297527 - 1297309" locus_tag="HKK58_RS05895" class="clusterblast-orf" id="dummy-1_h1_6_30"  />
</g>
<g id="a1_0031"  >
<polygon points="726,90 734,90 739,85 734,80 726,80 726,90 " style="fill:white; stroke-width:1; stroke:black; " description="&lt;b&gt;HKK58_RS05890&lt;/b&gt;&lt;br&gt;winged helix-turn-helix transcriptional regulator&lt;br&gt;Location: 1297128 - 1296610" locus_tag="HKK58_RS05890" class="clusterblast-orf" id="dummy-1_h1_6_31"  />
</g>
<g id="a1_0032"  >
<polygon points="739,90 765,90 770,85 765,80 739,80 739,90 " style="fill:white; stroke-width:1; stroke:black; " description="&lt;b&gt;HKK58_RS05885&lt;/b&gt;&lt;br&gt;FAD-dependent monooxygenase&lt;br&gt;Location: 1296610 - 1295405" locus_tag="HKK58_RS05885" class="clusterblast-orf" id="dummy-1_h1_6_32"  />
</g>
<g id="a1_0033"  >
<polygon points="771,90 775,90 780,85 775,80 771,80 771,90 " style="fill:white; stroke-width:1; stroke:black; " description="&lt;b&gt;HKK58_RS05880&lt;/b&gt;&lt;br&gt;helix-turn-helix transcriptional regulator&lt;br&gt;Location: 1295343 - 1295017" locus_tag="HKK58_RS05880" class="clusterblast-orf" id="dummy-1_h1_6_33"  />
</g>
</svg>
