<svg xmlns="http://www.w3.org/2000/svg" xmlns:xlink="http://www.w3.org/1999/xlink" version="1.1" x="0" y="0" height="230" width="800" viewBox="0 0 800 230" preserveAspectRatio="none"  >
<g label="Query sequence" class="clusterblast-cluster"  >
<text x="5" y="20" class="clusterblast-acc"  >
Query sequence</text>
<line x1="10" y1="35" x2="778.0" y2="35" style="stroke-width:1; stroke:grey; "  />
<polygon points="224,40 244,40 249,35 244,30 224,30 224,40 " style="fill:#d81515; stroke-width:1; stroke:black; " description="&lt;b&gt;ctg1_546&lt;/b&gt;&lt;br&gt;ctg1 546&lt;br&gt;Location: 581689 - 582979" locus_tag="ctg1_546" class="clusterblast-orf" id="dummy-2_q0_0_all"  />
<polygon points="251,40 281,40 286,35 281,30 251,30 251,40 " style="fill:#77d815; stroke-width:1; stroke:black; " description="&lt;b&gt;ctg1_547&lt;/b&gt;&lt;br&gt;ctg1 547&lt;br&gt;Location: 583069 - 584842" locus_tag="ctg1_547" class="clusterblast-orf" id="dummy-2_q1_0_all"  />
<polygon points="288,40 318,40 323,35 318,30 288,30 288,40 " style="fill:#77d815; stroke-width:1; stroke:black; " description="&lt;b&gt;ctg1_548&lt;/b&gt;&lt;br&gt;ctg1 548&lt;br&gt;Location: 584961 - 586740" locus_tag="ctg1_548" class="clusterblast-orf" id="dummy-2_q2_0_all"  />
<polygon points="327,35 332,30 345,30 345,40 332,40 327,35 " style="fill:white; stroke-width:1; stroke:black; " description="&lt;b&gt;ctg1_549&lt;/b&gt;&lt;br&gt;ctg1 549&lt;br&gt;Location: 586966 - 587866" locus_tag="ctg1_549" class="clusterblast-orf" id="dummy-2_q3_0_all"  />
<polygon points="349,40 369,40 374,35 369,30 349,30 349,40 " style="fill:white; stroke-width:1; stroke:black; " description="&lt;b&gt;ctg1_550&lt;/b&gt;&lt;br&gt;ctg1 550&lt;br&gt;Location: 588075 - 589335" locus_tag="ctg1_550" class="clusterblast-orf" id="dummy-2_q4_0_all"  />
<polygon points="377,40 381,35 377,30 377,40 " style="fill:#15d8d8; stroke-width:1; stroke:black; " description="&lt;b&gt;ctg1_551&lt;/b&gt;&lt;br&gt;ctg1 551&lt;br&gt;Location: 589517 - 589676" locus_tag="ctg1_551" class="clusterblast-orf" id="dummy-2_q5_0_all"  />
<polygon points="381,35 386,30 403,30 403,40 386,40 381,35 " style="fill:#7715d8; stroke-width:1; stroke:black; " description="&lt;b&gt;ctg1_552&lt;/b&gt;&lt;br&gt;ctg1 552&lt;br&gt;Location: 589681 - 590833" locus_tag="ctg1_552" class="clusterblast-orf" id="dummy-2_q6_0_all"  />
<polygon points="403,35 408,30 408,30 408,40 408,40 403,35 " style="fill:#d87715; stroke-width:1; stroke:black; " description="&lt;b&gt;ctg1_553&lt;/b&gt;&lt;br&gt;ctg1 553&lt;br&gt;Location: 590804 - 591080" locus_tag="ctg1_553" class="clusterblast-orf" id="dummy-2_q7_0_all"  />
<polygon points="408,35 413,30 423,30 423,40 413,40 408,35 " style="fill:#15d815; stroke-width:1; stroke:black; " description="&lt;b&gt;ctg1_554&lt;/b&gt;&lt;br&gt;ctg1 554&lt;br&gt;Location: 591076 - 591829" locus_tag="ctg1_554" class="clusterblast-orf" id="dummy-2_q8_0_all"  />
<polygon points="423,35 428,30 441,30 441,40 428,40 423,35 " style="fill:#1577d8; stroke-width:1; stroke:black; " description="&lt;b&gt;ctg1_555&lt;/b&gt;&lt;br&gt;ctg1 555&lt;br&gt;Location: 591840 - 592752" locus_tag="ctg1_555" class="clusterblast-orf" id="dummy-2_q9_0_all"  />
<polygon points="442,35 445,30 445,40 442,35 " style="fill:#d815d8; stroke-width:1; stroke:black; " description="&lt;b&gt;ctg1_556&lt;/b&gt;&lt;br&gt;ctg1 556&lt;br&gt;Location: 592823 - 592946" locus_tag="ctg1_556" class="clusterblast-orf" id="dummy-2_q10_0_all"  />
<polygon points="447,35 452,30 493,30 493,40 452,40 447,35 " style="fill:#d8d815; stroke-width:1; stroke:black; " description="&lt;b&gt;ctg1_557&lt;/b&gt;&lt;br&gt;ctg1 557&lt;br&gt;Location: 593056 - 595432" locus_tag="ctg1_557" class="clusterblast-orf" id="dummy-2_q11_0_all"  />
<polygon points="495,35 500,30 510,30 510,40 500,40 495,35 " style="fill:#15d877; stroke-width:1; stroke:black; " description="&lt;b&gt;ctg1_558&lt;/b&gt;&lt;br&gt;ctg1 558&lt;br&gt;Location: 595491 - 596286" locus_tag="ctg1_558" class="clusterblast-orf" id="dummy-2_q12_0_all"  />
<polygon points="510,35 515,30 544,30 544,40 515,40 510,35 " style="fill:#1515d8; stroke-width:1; stroke:black; " description="&lt;b&gt;ctg1_559&lt;/b&gt;&lt;br&gt;ctg1 559&lt;br&gt;Location: 596296 - 598000" locus_tag="ctg1_559" class="clusterblast-orf" id="dummy-2_q13_0_all"  />
<polygon points="547,35 552,30 555,30 555,40 552,40 547,35 " style="fill:#d81577; stroke-width:1; stroke:black; " description="&lt;b&gt;ctg1_560&lt;/b&gt;&lt;br&gt;ctg1 560&lt;br&gt;Location: 598146 - 598593" locus_tag="ctg1_560" class="clusterblast-orf" id="dummy-2_q14_0_all"  />
</g>
<g label="NZ_CP006256" description="NZ_CP006256 (5365585-5405357): Pseudomonas syringae pv. syringae HS191 chromo... (36% of genes show similarity), NRPS-like" class="clusterblast-cluster"  >
<text x="5" y="70" class="clusterblast-acc"  >
<a xlink:href="https://antismash-db.secondarymetabolites.org/area.html?record=NZ_CP006256&amp;start=5365585&amp;end=5405357" target="_blank">NZ_CP006256 (5365585-5405357)</a>: Pseudomonas syringae pv. syringae HS191 chromo... (36% of genes show similarity), NRPS-like</text>
<line x1="10" y1="85" x2="778.0" y2="85" style="stroke-width:1; stroke:grey; "  />
</g>
<g id="a2_000"  >
<polygon points="0,90 20,90 25,85 20,80 0,80 0,90 " style="fill:#d81515; stroke-width:1; stroke:black; " description="&lt;b&gt;PSYRH_RS23470&lt;/b&gt;&lt;br&gt;GGDEF domain-containing protein&lt;br&gt;Location: 5405357 - 5404059&lt;br&gt;&lt;br&gt;&lt;b&gt;BlastP hit with ctg1_546&lt;/b&gt;&lt;br&gt;Percentage identity: 81&lt;br&gt;Percentage coverage: 100&lt;br&gt;BLAST bit score: 685&lt;br&gt;E-value: 9.05e-248" locus_tag="PSYRH_RS23470" class="clusterblast-orf" id="dummy-2_h2_4_0"  />
</g>
<g id="a2_001"  >
<polygon points="28,90 58,90 63,85 58,80 28,80 28,90 " style="fill:#77d815; stroke-width:1; stroke:black; " description="&lt;b&gt;PSYRH_RS23465&lt;/b&gt;&lt;br&gt;acyl-CoA dehydrogenase C-terminal domain-containing protein&lt;br&gt;Location: 5403889 - 5402111&lt;br&gt;&lt;br&gt;&lt;b&gt;BlastP hit with ctg1_547&lt;/b&gt;&lt;br&gt;Percentage identity: 56&lt;br&gt;Percentage coverage: 101&lt;br&gt;BLAST bit score: 638&lt;br&gt;E-value: 6.46e-224&lt;br&gt;&lt;br&gt;&lt;b&gt;BlastP hit with ctg1_548&lt;/b&gt;&lt;br&gt;Percentage identity: 83&lt;br&gt;Percentage coverage: 100&lt;br&gt;BLAST bit score: 990&lt;br&gt;E-value: 0.0" locus_tag="PSYRH_RS23465" class="clusterblast-orf" id="dummy-2_h2_4_1"  />
</g>
<g id="a2_002"  >
<polygon points="71,90 74,85 71,80 71,90 " style="fill:#15d8d8; stroke-width:1; stroke:black; " description="&lt;b&gt;PSYRH_RS23460&lt;/b&gt;&lt;br&gt;YqaE/Pmp3 family membrane protein&lt;br&gt;Location: 5401706 - 5401545&lt;br&gt;&lt;br&gt;&lt;b&gt;BlastP hit with ctg1_551&lt;/b&gt;&lt;br&gt;Percentage identity: 85&lt;br&gt;Percentage coverage: 100&lt;br&gt;BLAST bit score: 87&lt;br&gt;E-value: 3.14e-23" locus_tag="PSYRH_RS23460" class="clusterblast-orf" id="dummy-2_h2_4_2"  />
</g>
<g id="a2_003"  >
<polygon points="75,85 80,80 111,80 111,90 80,90 75,85 " style="fill:white; stroke-width:1; stroke:black; " description="&lt;b&gt;PSYRH_RS23455&lt;/b&gt;&lt;br&gt;S9 family peptidase&lt;br&gt;Location: 5401489 - 5399663" locus_tag="PSYRH_RS23455" class="clusterblast-orf" id="dummy-2_h2_4_3"  />
</g>
<g id="a2_004"  >
<polygon points="110,85 115,80 133,80 133,90 115,90 110,85 " style="fill:#7715d8; stroke-width:1; stroke:black; " description="&lt;b&gt;PSYRH_RS23450&lt;/b&gt;&lt;br&gt;pyrroloquinoline quinone biosynthesis protein PqqE&lt;br&gt;Location: 5399700 - 5398531&lt;br&gt;&lt;br&gt;&lt;b&gt;BlastP hit with ctg1_552&lt;/b&gt;&lt;br&gt;Percentage identity: 88&lt;br&gt;Percentage coverage: 99&lt;br&gt;BLAST bit score: 714&lt;br&gt;E-value: 1.57e-260" locus_tag="PSYRH_RS23450" class="clusterblast-orf" id="dummy-2_h2_4_4"  />
</g>
<g id="a2_005"  >
<polygon points="133,85 138,80 139,80 139,90 138,90 133,85 " style="fill:#d87715; stroke-width:1; stroke:black; " description="&lt;b&gt;PSYRH_RS23445&lt;/b&gt;&lt;br&gt;pyrroloquinoline quinone biosynthesis peptide chaperone PqqD&lt;br&gt;Location: 5398538 - 5398254&lt;br&gt;&lt;br&gt;&lt;b&gt;BlastP hit with ctg1_553&lt;/b&gt;&lt;br&gt;Percentage identity: 70&lt;br&gt;Percentage coverage: 95&lt;br&gt;BLAST bit score: 134&lt;br&gt;E-value: 1.19e-40" locus_tag="PSYRH_RS23445" class="clusterblast-orf" id="dummy-2_h2_4_5"  />
</g>
<g id="a2_006"  >
<polygon points="139,85 144,80 154,80 154,90 144,90 139,85 " style="fill:#15d815; stroke-width:1; stroke:black; " description="&lt;b&gt;PSYRH_RS23440&lt;/b&gt;&lt;br&gt;pyrroloquinoline-quinone synthase PqqC&lt;br&gt;Location: 5398257 - 5397502&lt;br&gt;&lt;br&gt;&lt;b&gt;BlastP hit with ctg1_554&lt;/b&gt;&lt;br&gt;Percentage identity: 96&lt;br&gt;Percentage coverage: 99&lt;br&gt;BLAST bit score: 496&lt;br&gt;E-value: 4.01e-179" locus_tag="PSYRH_RS23440" class="clusterblast-orf" id="dummy-2_h2_4_6"  />
</g>
<g id="a2_007"  >
<polygon points="154,85 159,80 172,80 172,90 159,90 154,85 " style="fill:#1577d8; stroke-width:1; stroke:black; " description="&lt;b&gt;PSYRH_RS23435&lt;/b&gt;&lt;br&gt;pyrroloquinoline quinone biosynthesis protein PqqB&lt;br&gt;Location: 5397493 - 5396582&lt;br&gt;&lt;br&gt;&lt;b&gt;BlastP hit with ctg1_555&lt;/b&gt;&lt;br&gt;Percentage identity: 91&lt;br&gt;Percentage coverage: 100&lt;br&gt;BLAST bit score: 589&lt;br&gt;E-value: 6.04e-214" locus_tag="PSYRH_RS23435" class="clusterblast-orf" id="dummy-2_h2_4_7"  />
</g>
<g id="a2_008"  >
<polygon points="173,85 175,80 175,90 173,85 " style="fill:#d815d8; stroke-width:1; stroke:black; " description="&lt;b&gt;PSYRH_RS27445&lt;/b&gt;&lt;br&gt;pyrroloquinoline quinone precursor peptide PqqA&lt;br&gt;Location: 5396493 - 5396419&lt;br&gt;&lt;br&gt;&lt;b&gt;BlastP hit with ctg1_556&lt;/b&gt;&lt;br&gt;Percentage identity: 92&lt;br&gt;Percentage coverage: 60&lt;br&gt;BLAST bit score: 52&lt;br&gt;E-value: 6.3e-10" locus_tag="PSYRH_RS27445" class="clusterblast-orf" id="dummy-2_h2_4_8"  />
</g>
<g id="a2_009"  >
<polygon points="177,85 182,80 222,80 222,90 182,90 177,85 " style="fill:#d8d815; stroke-width:1; stroke:black; " description="&lt;b&gt;PSYRH_RS23430&lt;/b&gt;&lt;br&gt;pyrroloquinoline quinone biosynthesis protein PqqF&lt;br&gt;Location: 5396283 - 5393995&lt;br&gt;&lt;br&gt;&lt;b&gt;BlastP hit with ctg1_557&lt;/b&gt;&lt;br&gt;Percentage identity: 47&lt;br&gt;Percentage coverage: 101&lt;br&gt;BLAST bit score: 619&lt;br&gt;E-value: 5.89e-211" locus_tag="PSYRH_RS23430" class="clusterblast-orf" id="dummy-2_h2_4_9"  />
</g>
<g id="a2_0010"  >
<polygon points="233,85 238,80 249,80 249,90 238,90 233,85 " style="fill:#15d877; stroke-width:1; stroke:black; " description="&lt;b&gt;PSYRH_RS23425&lt;/b&gt;&lt;br&gt;carbon-nitrogen hydrolase family protein&lt;br&gt;Location: 5393449 - 5392655&lt;br&gt;&lt;br&gt;&lt;b&gt;BlastP hit with ctg1_558&lt;/b&gt;&lt;br&gt;Percentage identity: 72&lt;br&gt;Percentage coverage: 100&lt;br&gt;BLAST bit score: 387&lt;br&gt;E-value: 2.96e-135" locus_tag="PSYRH_RS23425" class="clusterblast-orf" id="dummy-2_h2_4_10"  />
</g>
<g id="a2_0011"  >
<polygon points="249,85 254,80 282,80 282,90 254,90 249,85 " style="fill:#1515d8; stroke-width:1; stroke:black; " description="&lt;b&gt;PSYRH_RS23420&lt;/b&gt;&lt;br&gt;NAD(P)/FAD-dependent oxidoreductase&lt;br&gt;Location: 5392639 - 5390945&lt;br&gt;&lt;br&gt;&lt;b&gt;BlastP hit with ctg1_559&lt;/b&gt;&lt;br&gt;Percentage identity: 90&lt;br&gt;Percentage coverage: 99&lt;br&gt;BLAST bit score: 1060&lt;br&gt;E-value: 0.0" locus_tag="PSYRH_RS23420" class="clusterblast-orf" id="dummy-2_h2_4_11"  />
</g>
<g id="a2_0012"  >
<polygon points="285,85 290,80 294,80 294,90 290,90 285,85 " style="fill:#d81577; stroke-width:1; stroke:black; " description="&lt;b&gt;PSYRH_RS23415&lt;/b&gt;&lt;br&gt;Lrp/AsnC family transcriptional regulator&lt;br&gt;Location: 5390793 - 5390332&lt;br&gt;&lt;br&gt;&lt;b&gt;BlastP hit with ctg1_560&lt;/b&gt;&lt;br&gt;Percentage identity: 93&lt;br&gt;Percentage coverage: 99&lt;br&gt;BLAST bit score: 262&lt;br&gt;E-value: 1.38e-89" locus_tag="PSYRH_RS23415" class="clusterblast-orf" id="dummy-2_h2_4_12"  />
</g>
<g id="a2_0013"  >
<polygon points="294,85 299,80 316,80 316,90 299,90 294,85 " style="fill:white; stroke-width:1; stroke:black; " description="&lt;b&gt;PSYRH_RS23410&lt;/b&gt;&lt;br&gt;FUSC family protein&lt;br&gt;Location: 5390321 - 5389236" locus_tag="PSYRH_RS23410" class="clusterblast-orf" id="dummy-2_h2_4_13"  />
</g>
<g id="a2_0014"  >
<polygon points="325,85 330,80 347,80 347,90 330,90 325,85 " style="fill:white; stroke-width:1; stroke:black; " description="&lt;b&gt;PSYRH_RS23400&lt;/b&gt;&lt;br&gt;Fic family protein&lt;br&gt;Location: 5388744 - 5387614" locus_tag="PSYRH_RS23400" class="clusterblast-orf" id="dummy-2_h2_4_14"  />
</g>
<g id="a2_0015"  >
<polygon points="350,90 355,90 360,85 355,80 350,80 350,90 " style="fill:white; stroke-width:1; stroke:black; " description="&lt;b&gt;PSYRH_RS23395&lt;/b&gt;&lt;br&gt;GNAT family N-acetyltransferase&lt;br&gt;Location: 5387473 - 5386970" locus_tag="PSYRH_RS23395" class="clusterblast-orf" id="dummy-2_h2_4_15"  />
</g>
<g id="a2_0016"  >
<polygon points="365,90 439,90 444,85 439,80 365,80 365,90 " style="fill:white; stroke-width:1; stroke:black; " description="&lt;b&gt;PSYRH_RS23390&lt;/b&gt;&lt;br&gt;non-ribosomal peptide synthetase&lt;br&gt;Location: 5386717 - 5382677" locus_tag="PSYRH_RS23390" class="clusterblast-orf" id="dummy-2_h2_4_16"  />
</g>
<g id="a2_0017"  >
<polygon points="444,90 452,90 457,85 452,80 444,80 444,90 " style="fill:white; stroke-width:1; stroke:black; " description="&lt;b&gt;PSYRH_RS23385&lt;/b&gt;&lt;br&gt;4'-phosphopantetheinyl transferase superfamily protein&lt;br&gt;Location: 5382680 - 5382048" locus_tag="PSYRH_RS23385" class="clusterblast-orf" id="dummy-2_h2_4_17"  />
</g>
<g id="a2_0018"  >
<polygon points="459,90 470,90 475,85 470,80 459,80 459,90 " style="fill:white; stroke-width:1; stroke:black; " description="&lt;b&gt;PSYRH_RS23380&lt;/b&gt;&lt;br&gt;AraC family transcriptional regulator&lt;br&gt;Location: 5381948 - 5381112" locus_tag="PSYRH_RS23380" class="clusterblast-orf" id="dummy-2_h2_4_18"  />
</g>
<g id="a2_0019"  >
<polygon points="476,90 482,90 487,85 482,80 476,80 476,90 " style="fill:white; stroke-width:1; stroke:black; " description="&lt;b&gt;PSYRH_RS23375&lt;/b&gt;&lt;br&gt;LysE family translocator&lt;br&gt;Location: 5381062 - 5380487" locus_tag="PSYRH_RS23375" class="clusterblast-orf" id="dummy-2_h2_4_19"  />
</g>
<g id="a2_0020"  >
<polygon points="491,85 496,80 507,80 507,90 496,90 491,85 " style="fill:white; stroke-width:1; stroke:black; " description="&lt;b&gt;PSYRH_RS23370&lt;/b&gt;&lt;br&gt;formate/nitrite transporter family protein&lt;br&gt;Location: 5380310 - 5379495" locus_tag="PSYRH_RS23370" class="clusterblast-orf" id="dummy-2_h2_4_20"  />
</g>
<g id="a2_0021"  >
<polygon points="515,90 520,90 525,85 520,80 515,80 515,90 " style="fill:white; stroke-width:1; stroke:black; " description="&lt;b&gt;PSYRH_RS23365&lt;/b&gt;&lt;br&gt;peptide-methionine (S)-S-oxide reductase MsrA&lt;br&gt;Location: 5379051 - 5378545" locus_tag="PSYRH_RS23365" class="clusterblast-orf" id="dummy-2_h2_4_21"  />
</g>
<g id="a2_0022"  >
<polygon points="538,90 556,90 561,85 556,80 538,80 538,90 " style="fill:white; stroke-width:1; stroke:black; " description="&lt;b&gt;PSYRH_RS23360&lt;/b&gt;&lt;br&gt;AAA family ATPase&lt;br&gt;Location: 5377915 - 5376713" locus_tag="PSYRH_RS23360" class="clusterblast-orf" id="dummy-2_h2_4_22"  />
</g>
<g id="a2_0023"  >
<polygon points="561,90 603,90 608,85 603,80 561,80 561,90 " style="fill:white; stroke-width:1; stroke:black; " description="&lt;b&gt;PSYRH_RS23355&lt;/b&gt;&lt;br&gt;S8 family peptidase&lt;br&gt;Location: 5376723 - 5374312" locus_tag="PSYRH_RS23355" class="clusterblast-orf" id="dummy-2_h2_4_23"  />
</g>
<g id="a2_0024"  >
<polygon points="611,90 634,90 639,85 634,80 611,80 611,90 " style="fill:white; stroke-width:1; stroke:black; " description="&lt;b&gt;PSYRH_RS23350&lt;/b&gt;&lt;br&gt;nucleotidyltransferase&lt;br&gt;Location: 5374189 - 5372753" locus_tag="PSYRH_RS23350" class="clusterblast-orf" id="dummy-2_h2_4_24"  />
</g>
<g id="a2_0025"  >
<polygon points="639,90 649,90 654,85 649,80 639,80 639,90 " style="fill:white; stroke-width:1; stroke:black; " description="&lt;b&gt;PSYRH_RS23345&lt;/b&gt;&lt;br&gt;hypothetical protein&lt;br&gt;Location: 5372732 - 5371968" locus_tag="PSYRH_RS23345" class="clusterblast-orf" id="dummy-2_h2_4_25"  />
</g>
<g id="a2_0026"  >
<polygon points="656,90 661,90 666,85 661,80 656,80 656,90 " style="fill:white; stroke-width:1; stroke:black; " description="&lt;b&gt;PSYRH_RS23340&lt;/b&gt;&lt;br&gt;hypothetical protein&lt;br&gt;Location: 5371869 - 5371351" locus_tag="PSYRH_RS23340" class="clusterblast-orf" id="dummy-2_h2_4_26"  />
</g>
<g id="a2_0027"  >
<polygon points="670,85 675,80 686,80 686,90 675,90 670,85 " style="fill:white; stroke-width:1; stroke:black; " description="&lt;b&gt;PSYRH_RS23335&lt;/b&gt;&lt;br&gt;hypothetical protein&lt;br&gt;Location: 5371157 - 5370330" locus_tag="PSYRH_RS23335" class="clusterblast-orf" id="dummy-2_h2_4_27"  />
</g>
<g id="a2_0028"  >
<polygon points="693,85 698,80 703,80 703,90 698,90 693,85 " style="fill:white; stroke-width:1; stroke:black; " description="&lt;b&gt;PSYRH_RS23330&lt;/b&gt;&lt;br&gt;plasmid mobilization relaxosome protein MobC&lt;br&gt;Location: 5370014 - 5369469" locus_tag="PSYRH_RS23330" class="clusterblast-orf" id="dummy-2_h2_4_28"  />
</g>
<g id="a2_0029"  >
<polygon points="714,90 724,90 729,85 724,80 714,80 714,90 " style="fill:white; stroke-width:1; stroke:black; " description="&lt;b&gt;PSYRH_RS23325&lt;/b&gt;&lt;br&gt;P-type DNA transfer protein VirB5&lt;br&gt;Location: 5368941 - 5368177" locus_tag="PSYRH_RS23325" class="clusterblast-orf" id="dummy-2_h2_4_29"  />
</g>
<g id="a2_0030"  >
<polygon points="741,85 746,80 754,80 754,90 746,90 741,85 " style="fill:white; stroke-width:1; stroke:black; " description="&lt;b&gt;PSYRH_RS23315&lt;/b&gt;&lt;br&gt;DUF4225 domain-containing protein&lt;br&gt;Location: 5367554 - 5366889" locus_tag="PSYRH_RS23315" class="clusterblast-orf" id="dummy-2_h2_4_30"  />
</g>
<g id="a2_0031"  >
<polygon points="757,85 762,80 767,80 767,90 762,90 757,85 " style="fill:white; stroke-width:1; stroke:black; " description="&lt;b&gt;PSYRH_RS23310&lt;/b&gt;&lt;br&gt;type VI secretion system tube protein Hcp&lt;br&gt;Location: 5366722 - 5366228" locus_tag="PSYRH_RS23310" class="clusterblast-orf" id="dummy-2_h2_4_31"  />
</g>
<g id="a2_0032"  >
<polygon points="769,85 774,80 780,80 780,90 774,90 769,85 " style="fill:white; stroke-width:1; stroke:black; " description="&lt;b&gt;PSYRH_RS23305&lt;/b&gt;&lt;br&gt;hypothetical protein&lt;br&gt;Location: 5366116 - 5365586" locus_tag="PSYRH_RS23305" class="clusterblast-orf" id="dummy-2_h2_4_32"  />
</g>
</svg>
