<svg xmlns="http://www.w3.org/2000/svg" xmlns:xlink="http://www.w3.org/1999/xlink" version="1.1" x="0" y="0" height="230" width="800" viewBox="0 0 800 230" preserveAspectRatio="none"  >
<g label="Query sequence" class="clusterblast-cluster"  >
<text x="5" y="20" class="clusterblast-acc"  >
Query sequence</text>
<line x1="10" y1="35" x2="778.0" y2="35" style="stroke-width:1; stroke:grey; "  />
<polygon points="2,40 7,40 12,35 7,30 2,30 2,40 " style="fill:#d81515; stroke-width:1; stroke:black; " description="&lt;b&gt;ctg11_96&lt;/b&gt;&lt;br&gt;ctg11 96&lt;br&gt;Location: 112815 - 113730" locus_tag="ctg11_96" class="clusterblast-orf" id="dummy-1_q0_0_all"  />
<polygon points="13,35 18,30 20,30 20,40 18,40 13,35 " style="fill:#65d815; stroke-width:1; stroke:black; " description="&lt;b&gt;ctg11_97&lt;/b&gt;&lt;br&gt;ctg11 97&lt;br&gt;Location: 113850 - 114516" locus_tag="ctg11_97" class="clusterblast-orf" id="dummy-1_q1_0_all"  />
<polygon points="19,35 24,30 54,30 54,40 24,40 19,35 " style="fill:#65d815; stroke-width:1; stroke:black; " description="&lt;b&gt;ctg11_98&lt;/b&gt;&lt;br&gt;ctg11 98&lt;br&gt;Location: 114490 - 117874" locus_tag="ctg11_98" class="clusterblast-orf" id="dummy-1_q2_0_all"  />
<polygon points="57,40 65,40 70,35 65,30 57,30 57,40 " style="fill:#15b6d8; stroke-width:1; stroke:black; " description="&lt;b&gt;ctg11_99&lt;/b&gt;&lt;br&gt;ctg11 99&lt;br&gt;Location: 118176 - 119385" locus_tag="ctg11_99" class="clusterblast-orf" id="dummy-1_q3_0_all"  />
<polygon points="72,40 76,40 81,35 76,30 72,30 72,40 " style="fill:#8815d8; stroke-width:1; stroke:black; " description="&lt;b&gt;ctg11_100&lt;/b&gt;&lt;br&gt;ctg11 100&lt;br&gt;Location: 119563 - 120481" locus_tag="ctg11_100" class="clusterblast-orf" id="dummy-1_q4_0_all"  />
<polygon points="81,40 88,40 93,35 88,30 81,30 81,40 " style="fill:#d83815; stroke-width:1; stroke:black; " description="&lt;b&gt;ctg11_101&lt;/b&gt;&lt;br&gt;ctg11 101&lt;br&gt;Location: 120491 - 121652" locus_tag="ctg11_101" class="clusterblast-orf" id="dummy-1_q5_0_all"  />
<polygon points="93,40 96,40 101,35 96,30 93,30 93,40 " style="fill:#43d815; stroke-width:1; stroke:black; " description="&lt;b&gt;ctg11_102&lt;/b&gt;&lt;br&gt;ctg11 102&lt;br&gt;Location: 121648 - 122407" locus_tag="ctg11_102" class="clusterblast-orf" id="dummy-1_q6_0_all"  />
<polygon points="101,40 103,40 108,35 103,30 101,30 101,40 " style="fill:#1593d8; stroke-width:1; stroke:black; " description="&lt;b&gt;ctg11_103&lt;/b&gt;&lt;br&gt;ctg11 103&lt;br&gt;Location: 122417 - 123107" locus_tag="ctg11_103" class="clusterblast-orf" id="dummy-1_q7_0_all"  />
<polygon points="110,40 118,40 123,35 118,30 110,30 110,40 " style="fill:#aa15d8; stroke-width:1; stroke:black; " description="&lt;b&gt;ctg11_104&lt;/b&gt;&lt;br&gt;ctg11 104&lt;br&gt;Location: 123325 - 124555" locus_tag="ctg11_104" class="clusterblast-orf" id="dummy-1_q8_0_all"  />
<polygon points="123,40 127,35 123,30 123,40 " style="fill:#d85a15; stroke-width:1; stroke:black; " description="&lt;b&gt;ctg11_105&lt;/b&gt;&lt;br&gt;ctg11 105&lt;br&gt;Location: 124557 - 124905" locus_tag="ctg11_105" class="clusterblast-orf" id="dummy-1_q9_0_all"  />
<polygon points="127,40 132,40 137,35 132,30 127,30 127,40 " style="fill:#21d815; stroke-width:1; stroke:black; " description="&lt;b&gt;ctg11_106&lt;/b&gt;&lt;br&gt;ctg11 106&lt;br&gt;Location: 124920 - 125964" locus_tag="ctg11_106" class="clusterblast-orf" id="dummy-1_q10_0_all"  />
<polygon points="137,40 142,40 147,35 142,30 137,30 137,40 " style="fill:#1571d8; stroke-width:1; stroke:black; " description="&lt;b&gt;ctg11_107&lt;/b&gt;&lt;br&gt;ctg11 107&lt;br&gt;Location: 125967 - 126924" locus_tag="ctg11_107" class="clusterblast-orf" id="dummy-1_q11_0_all"  />
<polygon points="148,40 149,40 154,35 149,30 148,30 148,40 " style="fill:#cd15d8; stroke-width:1; stroke:black; " description="&lt;b&gt;ctg11_108&lt;/b&gt;&lt;br&gt;ctg11 108&lt;br&gt;Location: 126991 - 127564" locus_tag="ctg11_108" class="clusterblast-orf" id="dummy-1_q12_0_all"  />
<polygon points="154,40 163,40 168,35 163,30 154,30 154,40 " style="fill:#d87c15; stroke-width:1; stroke:black; " description="&lt;b&gt;ctg11_109&lt;/b&gt;&lt;br&gt;ctg11 109&lt;br&gt;Location: 127589 - 128945" locus_tag="ctg11_109" class="clusterblast-orf" id="dummy-1_q13_0_all"  />
<polygon points="168,35 173,30 174,30 174,40 173,40 168,35 " style="fill:#15d82c; stroke-width:1; stroke:black; " description="&lt;b&gt;ctg11_110&lt;/b&gt;&lt;br&gt;ctg11 110&lt;br&gt;Location: 128928 - 129522" locus_tag="ctg11_110" class="clusterblast-orf" id="dummy-1_q14_0_all"  />
<polygon points="176,40 183,40 188,35 183,30 176,30 176,40 " style="fill:#154fd8; stroke-width:1; stroke:black; " description="&lt;b&gt;ctg11_111&lt;/b&gt;&lt;br&gt;ctg11 111&lt;br&gt;Location: 129664 - 130855" locus_tag="ctg11_111" class="clusterblast-orf" id="dummy-1_q15_0_all"  />
<polygon points="188,35 191,30 191,40 188,35 " style="fill:#d815c1; stroke-width:1; stroke:black; " description="&lt;b&gt;ctg11_112&lt;/b&gt;&lt;br&gt;ctg11 112&lt;br&gt;Location: 130837 - 131203" locus_tag="ctg11_112" class="clusterblast-orf" id="dummy-1_q16_0_all"  />
<polygon points="191,35 194,30 194,40 191,35 " style="fill:#d89f15; stroke-width:1; stroke:black; " description="&lt;b&gt;ctg11_113&lt;/b&gt;&lt;br&gt;ctg11 113&lt;br&gt;Location: 131199 - 131451" locus_tag="ctg11_113" class="clusterblast-orf" id="dummy-1_q17_0_all"  />
<polygon points="196,40 336,40 341,35 336,30 196,30 196,40 " style="fill:#15d84f; stroke-width:1; stroke:black; " description="&lt;b&gt;ctg11_114&lt;/b&gt;&lt;br&gt;ctg11 114&lt;br&gt;Location: 131660 - 145715" locus_tag="ctg11_114" class="clusterblast-orf" id="dummy-1_q18_0_all"  />
<polygon points="341,40 458,40 463,35 458,30 341,30 341,40 " style="fill:#15d84f; stroke-width:1; stroke:black; " description="&lt;b&gt;ctg11_115&lt;/b&gt;&lt;br&gt;ctg11 115&lt;br&gt;Location: 145718 - 157571" locus_tag="ctg11_115" class="clusterblast-orf" id="dummy-1_q19_0_all"  />
<polygon points="464,35 469,30 489,30 489,40 469,40 464,35 " style="fill:#152cd8; stroke-width:1; stroke:black; " description="&lt;b&gt;ctg11_116&lt;/b&gt;&lt;br&gt;ctg11 116&lt;br&gt;Location: 157715 - 160157" locus_tag="ctg11_116" class="clusterblast-orf" id="dummy-1_q20_0_all"  />
<polygon points="491,35 496,30 508,30 508,40 496,40 491,35 " style="fill:#d8159f; stroke-width:1; stroke:black; " description="&lt;b&gt;ctg11_117&lt;/b&gt;&lt;br&gt;ctg11 117&lt;br&gt;Location: 160266 - 161919" locus_tag="ctg11_117" class="clusterblast-orf" id="dummy-1_q21_0_all"  />
<polygon points="510,40 513,40 518,35 513,30 510,30 510,40 " style="fill:#d8c115; stroke-width:1; stroke:black; " description="&lt;b&gt;ctg11_118&lt;/b&gt;&lt;br&gt;ctg11 118&lt;br&gt;Location: 162117 - 162945" locus_tag="ctg11_118" class="clusterblast-orf" id="dummy-1_q22_0_all"  />
<polygon points="520,35 525,30 529,30 529,40 525,40 520,35 " style="fill:#15d871; stroke-width:1; stroke:black; " description="&lt;b&gt;ctg11_119&lt;/b&gt;&lt;br&gt;ctg11 119&lt;br&gt;Location: 163087 - 163960" locus_tag="ctg11_119" class="clusterblast-orf" id="dummy-1_q23_0_all"  />
<polygon points="529,35 534,30 542,30 542,40 534,40 529,35 " style="fill:#2115d8; stroke-width:1; stroke:black; " description="&lt;b&gt;ctg11_120&lt;/b&gt;&lt;br&gt;ctg11 120&lt;br&gt;Location: 163993 - 165274" locus_tag="ctg11_120" class="clusterblast-orf" id="dummy-1_q24_0_all"  />
<polygon points="542,35 547,30 556,30 556,40 547,40 542,35 " style="fill:#d8157c; stroke-width:1; stroke:black; " description="&lt;b&gt;ctg11_121&lt;/b&gt;&lt;br&gt;ctg11 121&lt;br&gt;Location: 165292 - 166642" locus_tag="ctg11_121" class="clusterblast-orf" id="dummy-1_q25_0_all"  />
<polygon points="558,40 569,40 574,35 569,30 558,30 558,40 " style="fill:#cdd815; stroke-width:1; stroke:black; " description="&lt;b&gt;ctg11_122&lt;/b&gt;&lt;br&gt;ctg11 122&lt;br&gt;Location: 166784 - 168404" locus_tag="ctg11_122" class="clusterblast-orf" id="dummy-1_q26_0_all"  />
<polygon points="574,35 579,30 584,30 584,40 579,40 574,35 " style="fill:#15d893; stroke-width:1; stroke:black; " description="&lt;b&gt;ctg11_123&lt;/b&gt;&lt;br&gt;ctg11 123&lt;br&gt;Location: 168396 - 169344" locus_tag="ctg11_123" class="clusterblast-orf" id="dummy-1_q27_0_all"  />
<polygon points="585,40 590,40 595,35 590,30 585,30 585,40 " style="fill:#4315d8; stroke-width:1; stroke:black; " description="&lt;b&gt;ctg11_124&lt;/b&gt;&lt;br&gt;ctg11 124&lt;br&gt;Location: 169487 - 170378" locus_tag="ctg11_124" class="clusterblast-orf" id="dummy-1_q28_0_all"  />
<polygon points="595,40 600,40 605,35 600,30 595,30 595,40 " style="fill:#d8155a; stroke-width:1; stroke:black; " description="&lt;b&gt;ctg11_125&lt;/b&gt;&lt;br&gt;ctg11 125&lt;br&gt;Location: 170377 - 171349" locus_tag="ctg11_125" class="clusterblast-orf" id="dummy-1_q29_0_all"  />
<polygon points="605,40 609,40 614,35 609,30 605,30 605,40 " style="fill:#aad815; stroke-width:1; stroke:black; " description="&lt;b&gt;ctg11_126&lt;/b&gt;&lt;br&gt;ctg11 126&lt;br&gt;Location: 171345 - 172215" locus_tag="ctg11_126" class="clusterblast-orf" id="dummy-1_q30_0_all"  />
<polygon points="614,40 616,35 614,30 614,40 " style="fill:#15d8b6; stroke-width:1; stroke:black; " description="&lt;b&gt;ctg11_127&lt;/b&gt;&lt;br&gt;ctg11 127&lt;br&gt;Location: 172229 - 172490" locus_tag="ctg11_127" class="clusterblast-orf" id="dummy-1_q31_0_all"  />
<polygon points="616,40 620,40 625,35 620,30 616,30 616,40 " style="fill:#6615d8; stroke-width:1; stroke:black; " description="&lt;b&gt;ctg11_128&lt;/b&gt;&lt;br&gt;ctg11 128&lt;br&gt;Location: 172486 - 173317" locus_tag="ctg11_128" class="clusterblast-orf" id="dummy-1_q32_0_all"  />
<polygon points="625,40 647,40 652,35 647,30 625,30 625,40 " style="fill:#d81538; stroke-width:1; stroke:black; " description="&lt;b&gt;ctg11_129&lt;/b&gt;&lt;br&gt;ctg11 129&lt;br&gt;Location: 173330 - 175988" locus_tag="ctg11_129" class="clusterblast-orf" id="dummy-1_q33_0_all"  />
<polygon points="657,40 659,40 664,35 659,30 657,30 657,40 " style="fill:#88d815; stroke-width:1; stroke:black; " description="&lt;b&gt;ctg11_130&lt;/b&gt;&lt;br&gt;ctg11 130&lt;br&gt;Location: 176389 - 177106" locus_tag="ctg11_130" class="clusterblast-orf" id="dummy-1_q34_0_all"  />
<polygon points="664,40 668,35 664,30 664,40 " style="fill:#15d8d8; stroke-width:1; stroke:black; " description="&lt;b&gt;ctg11_131&lt;/b&gt;&lt;br&gt;ctg11 131&lt;br&gt;Location: 177158 - 177494" locus_tag="ctg11_131" class="clusterblast-orf" id="dummy-1_q35_0_all"  />
<polygon points="668,40 674,40 679,35 674,30 668,30 668,40 " style="fill:white; stroke-width:1; stroke:black; " description="&lt;b&gt;ctg11_132&lt;/b&gt;&lt;br&gt;ctg11 132&lt;br&gt;Location: 177509 - 178616" locus_tag="ctg11_132" class="clusterblast-orf" id="dummy-1_q36_0_all"  />
<polygon points="681,40 681,40 686,35 681,30 681,30 681,40 " style="fill:white; stroke-width:1; stroke:black; " description="&lt;b&gt;ctg11_133&lt;/b&gt;&lt;br&gt;ctg11 133&lt;br&gt;Location: 178778 - 179270" locus_tag="ctg11_133" class="clusterblast-orf" id="dummy-1_q37_0_all"  />
<polygon points="687,35 689,30 689,40 687,35 " style="fill:white; stroke-width:1; stroke:black; " description="&lt;b&gt;ctg11_134&lt;/b&gt;&lt;br&gt;ctg11 134&lt;br&gt;Location: 179371 - 179593" locus_tag="ctg11_134" class="clusterblast-orf" id="dummy-1_q38_0_all"  />
<polygon points="691,35 696,30 714,30 714,40 696,40 691,35 " style="fill:#152cd8; stroke-width:1; stroke:black; " description="&lt;b&gt;ctg11_135&lt;/b&gt;&lt;br&gt;ctg11 135&lt;br&gt;Location: 179734 - 181963" locus_tag="ctg11_135" class="clusterblast-orf" id="dummy-1_q39_0_all"  />
<polygon points="715,35 720,30 734,30 734,40 720,40 715,35 " style="fill:white; stroke-width:1; stroke:black; " description="&lt;b&gt;ctg11_136&lt;/b&gt;&lt;br&gt;ctg11 136&lt;br&gt;Location: 182089 - 183898" locus_tag="ctg11_136" class="clusterblast-orf" id="dummy-1_q40_0_all"  />
<polygon points="735,35 737,30 737,40 735,35 " style="fill:white; stroke-width:1; stroke:black; " description="&lt;b&gt;ctg11_137&lt;/b&gt;&lt;br&gt;ctg11 137&lt;br&gt;Location: 183996 - 184173" locus_tag="ctg11_137" class="clusterblast-orf" id="dummy-1_q41_0_all"  />
<polygon points="739,40 745,40 750,35 745,30 739,30 739,40 " style="fill:white; stroke-width:1; stroke:black; " description="&lt;b&gt;ctg11_138&lt;/b&gt;&lt;br&gt;ctg11 138&lt;br&gt;Location: 184442 - 185426" locus_tag="ctg11_138" class="clusterblast-orf" id="dummy-1_q42_0_all"  />
<polygon points="749,40 760,40 765,35 760,30 749,30 749,40 " style="fill:white; stroke-width:1; stroke:black; " description="&lt;b&gt;ctg11_139&lt;/b&gt;&lt;br&gt;ctg11 139&lt;br&gt;Location: 185422 - 186946" locus_tag="ctg11_139" class="clusterblast-orf" id="dummy-1_q43_0_all"  />
<polygon points="765,40 769,40 774,35 769,30 765,30 765,40 " style="fill:white; stroke-width:1; stroke:black; " description="&lt;b&gt;ctg11_140&lt;/b&gt;&lt;br&gt;ctg11 140&lt;br&gt;Location: 186942 - 187767" locus_tag="ctg11_140" class="clusterblast-orf" id="dummy-1_q44_0_all"  />
<polygon points="774,35 777,30 777,40 774,35 " style="fill:white; stroke-width:1; stroke:black; " description="&lt;b&gt;ctg11_141&lt;/b&gt;&lt;br&gt;ctg11 141&lt;br&gt;Location: 187842 - 188103" locus_tag="ctg11_141" class="clusterblast-orf" id="dummy-1_q45_0_all"  />
</g>
<g label="NZ_JACHCZ010000005" description="NZ_JACHCZ010000005 (223363-300153): Pseudomonas sp. JAI120 Ga0401626 05, whol... (70% of genes show similarity), NRPS" class="clusterblast-cluster"  >
<text x="5" y="70" class="clusterblast-acc"  >
<a xlink:href="https://antismash-db.secondarymetabolites.org/area.html?record=NZ_JACHCZ010000005&amp;start=223363&amp;end=300153" target="_blank">NZ_JACHCZ010000005 (223363-300153)</a>: Pseudomonas sp. JAI120 Ga0401626 05, whol... (70% of genes show similarity), NRPS</text>
<line x1="10" y1="85" x2="778.0" y2="85" style="stroke-width:1; stroke:grey; "  />
</g>
<g id="a1_000"  >
<polygon points="0,90 3,90 8,85 3,80 0,80 0,90 " style="fill:white; stroke-width:1; stroke:black; " description="&lt;b&gt;HDC32_RS24985&lt;/b&gt;&lt;br&gt;ammonia-dependent NAD(+) synthetase&lt;br&gt;Location: 299452 - 298646" locus_tag="HDC32_RS24985" class="clusterblast-orf" id="dummy-1_h1_10_0"  />
</g>
<g id="a1_001"  >
<polygon points="8,85 11,80 11,90 8,85 " style="fill:white; stroke-width:1; stroke:black; " description="&lt;b&gt;HDC32_RS24980&lt;/b&gt;&lt;br&gt;ABC transporter substrate-binding protein&lt;br&gt;Location: 298611 - 298368" locus_tag="HDC32_RS24980" class="clusterblast-orf" id="dummy-1_h1_10_1"  />
</g>
<g id="a1_002"  >
<polygon points="11,90 12,85 11,80 11,90 " style="fill:#d81515; stroke-width:1; stroke:black; " description="&lt;b&gt;HDC32_RS24975&lt;/b&gt;&lt;br&gt;IclR family transcriptional regulator&lt;br&gt;Location: 298336 - 298235&lt;br&gt;&lt;br&gt;&lt;b&gt;BlastP hit with ctg11_96&lt;/b&gt;&lt;br&gt;Percentage identity: 97&lt;br&gt;Percentage coverage: 11&lt;br&gt;BLAST bit score: 67&lt;br&gt;E-value: 1.18e-12" locus_tag="HDC32_RS24975" class="clusterblast-orf" id="dummy-1_h1_10_2"  />
</g>
<g id="a1_003"  >
<polygon points="12,85 17,80 19,80 19,90 17,90 12,85 " style="fill:#65d815; stroke-width:1; stroke:black; " description="&lt;b&gt;HDC32_RS24970&lt;/b&gt;&lt;br&gt;response regulator&lt;br&gt;Location: 298225 - 297560&lt;br&gt;&lt;br&gt;&lt;b&gt;BlastP hit with ctg11_97&lt;/b&gt;&lt;br&gt;Percentage identity: 96&lt;br&gt;Percentage coverage: 100&lt;br&gt;BLAST bit score: 407&lt;br&gt;E-value: 1.38e-144&lt;br&gt;&lt;br&gt;&lt;b&gt;BlastP hit with ctg11_98&lt;/b&gt;&lt;br&gt;Percentage identity: 39&lt;br&gt;Percentage coverage: 10&lt;br&gt;BLAST bit score: 77&lt;br&gt;E-value: 1.06e-13" locus_tag="HDC32_RS24970" class="clusterblast-orf" id="dummy-1_h1_10_3"  />
</g>
<g id="a1_004"  >
<polygon points="19,85 24,80 54,80 54,90 24,90 19,85 " style="fill:#65d815; stroke-width:1; stroke:black; " description="&lt;b&gt;HDC32_RS24965&lt;/b&gt;&lt;br&gt;response regulator&lt;br&gt;Location: 297585 - 294202&lt;br&gt;&lt;br&gt;&lt;b&gt;BlastP hit with ctg11_97&lt;/b&gt;&lt;br&gt;Percentage identity: 37&lt;br&gt;Percentage coverage: 64&lt;br&gt;BLAST bit score: 77&lt;br&gt;E-value: 2.83e-14&lt;br&gt;&lt;br&gt;&lt;b&gt;BlastP hit with ctg11_98&lt;/b&gt;&lt;br&gt;Percentage identity: 96&lt;br&gt;Percentage coverage: 100&lt;br&gt;BLAST bit score: 2103&lt;br&gt;E-value: 0.0" locus_tag="HDC32_RS24965" class="clusterblast-orf" id="dummy-1_h1_10_4"  />
</g>
<g id="a1_005"  >
<polygon points="56,90 63,90 68,85 63,80 56,80 56,90 " style="fill:#15b6d8; stroke-width:1; stroke:black; " description="&lt;b&gt;HDC32_RS24960&lt;/b&gt;&lt;br&gt;urea ABC transporter substrate-binding protein&lt;br&gt;Location: 293986 - 292778&lt;br&gt;&lt;br&gt;&lt;b&gt;BlastP hit with ctg11_99&lt;/b&gt;&lt;br&gt;Percentage identity: 99&lt;br&gt;Percentage coverage: 100&lt;br&gt;BLAST bit score: 786&lt;br&gt;E-value: 8.61e-289" locus_tag="HDC32_RS24960" class="clusterblast-orf" id="dummy-1_h1_10_5"  />
</g>
<g id="a1_006"  >
<polygon points="69,90 74,90 79,85 74,80 69,80 69,90 " style="fill:#8815d8; stroke-width:1; stroke:black; " description="&lt;b&gt;HDC32_RS24955&lt;/b&gt;&lt;br&gt;urea ABC transporter permease subunit UrtB&lt;br&gt;Location: 292674 - 291757&lt;br&gt;&lt;br&gt;&lt;b&gt;BlastP hit with ctg11_100&lt;/b&gt;&lt;br&gt;Percentage identity: 99&lt;br&gt;Percentage coverage: 100&lt;br&gt;BLAST bit score: 567&lt;br&gt;E-value: 3.44e-205" locus_tag="HDC32_RS24955" class="clusterblast-orf" id="dummy-1_h1_10_6"  />
</g>
<g id="a1_007"  >
<polygon points="79,90 86,90 91,85 86,80 79,80 79,90 " style="fill:#d83815; stroke-width:1; stroke:black; " description="&lt;b&gt;HDC32_RS24950&lt;/b&gt;&lt;br&gt;urea ABC transporter permease subunit UrtC&lt;br&gt;Location: 291746 - 290595&lt;br&gt;&lt;br&gt;&lt;b&gt;BlastP hit with ctg11_101&lt;/b&gt;&lt;br&gt;Percentage identity: 95&lt;br&gt;Percentage coverage: 100&lt;br&gt;BLAST bit score: 704&lt;br&gt;E-value: 1.29e-256" locus_tag="HDC32_RS24950" class="clusterblast-orf" id="dummy-1_h1_10_7"  />
</g>
<g id="a1_008"  >
<polygon points="91,90 93,90 98,85 93,80 91,80 91,90 " style="fill:#43d815; stroke-width:1; stroke:black; " description="&lt;b&gt;HDC32_RS24945&lt;/b&gt;&lt;br&gt;urea ABC transporter ATP-binding protein UrtD&lt;br&gt;Location: 290598 - 289840&lt;br&gt;&lt;br&gt;&lt;b&gt;BlastP hit with ctg11_102&lt;/b&gt;&lt;br&gt;Percentage identity: 99&lt;br&gt;Percentage coverage: 100&lt;br&gt;BLAST bit score: 488&lt;br&gt;E-value: 7.17e-176" locus_tag="HDC32_RS24945" class="clusterblast-orf" id="dummy-1_h1_10_8"  />
</g>
<g id="a1_009"  >
<polygon points="99,90 101,90 106,85 101,80 99,80 99,90 " style="fill:#1593d8; stroke-width:1; stroke:black; " description="&lt;b&gt;HDC32_RS24940&lt;/b&gt;&lt;br&gt;urea ABC transporter ATP-binding subunit UrtE&lt;br&gt;Location: 289829 - 289140&lt;br&gt;&lt;br&gt;&lt;b&gt;BlastP hit with ctg11_103&lt;/b&gt;&lt;br&gt;Percentage identity: 98&lt;br&gt;Percentage coverage: 100&lt;br&gt;BLAST bit score: 434&lt;br&gt;E-value: 3.83e-155" locus_tag="HDC32_RS24940" class="clusterblast-orf" id="dummy-1_h1_10_9"  />
</g>
<g id="a1_0010"  >
<polygon points="108,90 115,90 120,85 115,80 108,80 108,90 " style="fill:white; stroke-width:1; stroke:black; " description="&lt;b&gt;HDC32_RS24935&lt;/b&gt;&lt;br&gt;hypothetical protein&lt;br&gt;Location: 288890 - 287730" locus_tag="HDC32_RS24935" class="clusterblast-orf" id="dummy-1_h1_10_10"  />
</g>
<g id="a1_0011"  >
<polygon points="122,90 124,85 122,80 122,90 " style="fill:white; stroke-width:1; stroke:black; " description="&lt;b&gt;HDC32_RS24930&lt;/b&gt;&lt;br&gt;hypothetical protein&lt;br&gt;Location: 287584 - 287339" locus_tag="HDC32_RS24930" class="clusterblast-orf" id="dummy-1_h1_10_11"  />
</g>
<g id="a1_0012"  >
<polygon points="125,90 133,90 138,85 133,80 125,80 125,90 " style="fill:#aa15d8; stroke-width:1; stroke:black; " description="&lt;b&gt;HDC32_RS24925&lt;/b&gt;&lt;br&gt;acetamidase/formamidase family protein&lt;br&gt;Location: 287249 - 286020&lt;br&gt;&lt;br&gt;&lt;b&gt;BlastP hit with ctg11_104&lt;/b&gt;&lt;br&gt;Percentage identity: 99&lt;br&gt;Percentage coverage: 100&lt;br&gt;BLAST bit score: 850&lt;br&gt;E-value: 1.49e-313" locus_tag="HDC32_RS24925" class="clusterblast-orf" id="dummy-1_h1_10_12"  />
</g>
<g id="a1_0013"  >
<polygon points="138,90 141,85 138,80 138,90 " style="fill:#d85a15; stroke-width:1; stroke:black; " description="&lt;b&gt;HDC32_RS24920&lt;/b&gt;&lt;br&gt;zinc ribbon domain-containing protein&lt;br&gt;Location: 286017 - 285670&lt;br&gt;&lt;br&gt;&lt;b&gt;BlastP hit with ctg11_105&lt;/b&gt;&lt;br&gt;Percentage identity: 90&lt;br&gt;Percentage coverage: 100&lt;br&gt;BLAST bit score: 226&lt;br&gt;E-value: 1.53e-76" locus_tag="HDC32_RS24920" class="clusterblast-orf" id="dummy-1_h1_10_13"  />
</g>
<g id="a1_0014"  >
<polygon points="142,90 147,90 152,85 147,80 142,80 142,90 " style="fill:#21d815; stroke-width:1; stroke:black; " description="&lt;b&gt;HDC32_RS24915&lt;/b&gt;&lt;br&gt;aliphatic amidase&lt;br&gt;Location: 285654 - 284611&lt;br&gt;&lt;br&gt;&lt;b&gt;BlastP hit with ctg11_106&lt;/b&gt;&lt;br&gt;Percentage identity: 98&lt;br&gt;Percentage coverage: 100&lt;br&gt;BLAST bit score: 717&lt;br&gt;E-value: 2.25e-263" locus_tag="HDC32_RS24915" class="clusterblast-orf" id="dummy-1_h1_10_14"  />
</g>
<g id="a1_0015"  >
<polygon points="152,90 158,90 163,85 158,80 152,80 152,90 " style="fill:#1571d8; stroke-width:1; stroke:black; " description="&lt;b&gt;HDC32_RS24910&lt;/b&gt;&lt;br&gt;AAA family ATPase&lt;br&gt;Location: 284607 - 283615&lt;br&gt;&lt;br&gt;&lt;b&gt;BlastP hit with ctg11_107&lt;/b&gt;&lt;br&gt;Percentage identity: 91&lt;br&gt;Percentage coverage: 93&lt;br&gt;BLAST bit score: 523&lt;br&gt;E-value: 4.8e-187" locus_tag="HDC32_RS24910" class="clusterblast-orf" id="dummy-1_h1_10_15"  />
</g>
<g id="a1_0016"  >
<polygon points="163,90 172,90 177,85 172,80 163,80 163,90 " style="fill:#d87c15; stroke-width:1; stroke:black; " description="&lt;b&gt;HDC32_RS24905&lt;/b&gt;&lt;br&gt;MATE family efflux transporter&lt;br&gt;Location: 283577 - 282222&lt;br&gt;&lt;br&gt;&lt;b&gt;BlastP hit with ctg11_109&lt;/b&gt;&lt;br&gt;Percentage identity: 95&lt;br&gt;Percentage coverage: 100&lt;br&gt;BLAST bit score: 778&lt;br&gt;E-value: 6.16e-284" locus_tag="HDC32_RS24905" class="clusterblast-orf" id="dummy-1_h1_10_16"  />
</g>
<g id="a1_0017"  >
<polygon points="177,90 184,90 189,85 184,80 177,80 177,90 " style="fill:#154fd8; stroke-width:1; stroke:black; " description="&lt;b&gt;HDC32_RS24900&lt;/b&gt;&lt;br&gt;MFS transporter&lt;br&gt;Location: 282181 - 281009&lt;br&gt;&lt;br&gt;&lt;b&gt;BlastP hit with ctg11_111&lt;/b&gt;&lt;br&gt;Percentage identity: 90&lt;br&gt;Percentage coverage: 98&lt;br&gt;BLAST bit score: 660&lt;br&gt;E-value: 5.82e-239" locus_tag="HDC32_RS24900" class="clusterblast-orf" id="dummy-1_h1_10_17"  />
</g>
<g id="a1_0018"  >
<polygon points="190,85 193,80 193,90 190,85 " style="fill:#d815c1; stroke-width:1; stroke:black; " description="&lt;b&gt;HDC32_RS24895&lt;/b&gt;&lt;br&gt;type II toxin-antitoxin system HicB family antitoxin&lt;br&gt;Location: 280977 - 280612&lt;br&gt;&lt;br&gt;&lt;b&gt;BlastP hit with ctg11_112&lt;/b&gt;&lt;br&gt;Percentage identity: 91&lt;br&gt;Percentage coverage: 100&lt;br&gt;BLAST bit score: 223&lt;br&gt;E-value: 3.96e-75" locus_tag="HDC32_RS24895" class="clusterblast-orf" id="dummy-1_h1_10_18"  />
</g>
<g id="a1_0019"  >
<polygon points="193,85 196,80 196,90 193,85 " style="fill:#d89f15; stroke-width:1; stroke:black; " description="&lt;b&gt;HDC32_RS24890&lt;/b&gt;&lt;br&gt;type II toxin-antitoxin system HicA family toxin&lt;br&gt;Location: 280615 - 280365&lt;br&gt;&lt;br&gt;&lt;b&gt;BlastP hit with ctg11_113&lt;/b&gt;&lt;br&gt;Percentage identity: 92&lt;br&gt;Percentage coverage: 45&lt;br&gt;BLAST bit score: 69&lt;br&gt;E-value: 1.09e-15" locus_tag="HDC32_RS24890" class="clusterblast-orf" id="dummy-1_h1_10_19"  />
</g>
<g id="a1_0020"  >
<polygon points="198,90 338,90 343,85 338,80 198,80 198,90 " style="fill:#15d84f; stroke-width:1; stroke:black; " description="&lt;b&gt;HDC32_RS24885&lt;/b&gt;&lt;br&gt;non-ribosomal peptide synthase/polyketide synthase&lt;br&gt;Location: 280153 - 266120&lt;br&gt;&lt;br&gt;&lt;b&gt;BlastP hit with ctg11_114&lt;/b&gt;&lt;br&gt;Percentage identity: 87&lt;br&gt;Percentage coverage: 100&lt;br&gt;BLAST bit score: 8046&lt;br&gt;E-value: 0.0&lt;br&gt;&lt;br&gt;&lt;b&gt;BlastP hit with ctg11_115&lt;/b&gt;&lt;br&gt;Percentage identity: 66&lt;br&gt;Percentage coverage: 55&lt;br&gt;BLAST bit score: 2666&lt;br&gt;E-value: 0.0" locus_tag="HDC32_RS24885" class="clusterblast-orf" id="dummy-1_h1_10_20"  />
</g>
<g id="a1_0021"  >
<polygon points="343,90 418,90 423,85 418,80 343,80 343,90 " style="fill:#15d84f; stroke-width:1; stroke:black; " description="&lt;b&gt;HDC32_RS24880&lt;/b&gt;&lt;br&gt;amino acid adenylation domain-containing protein&lt;br&gt;Location: 266116 - 258335&lt;br&gt;&lt;br&gt;&lt;b&gt;BlastP hit with ctg11_114&lt;/b&gt;&lt;br&gt;Percentage identity: 55&lt;br&gt;Percentage coverage: 55&lt;br&gt;BLAST bit score: 2603&lt;br&gt;E-value: 0.0&lt;br&gt;&lt;br&gt;&lt;b&gt;BlastP hit with ctg11_115&lt;/b&gt;&lt;br&gt;Percentage identity: 62&lt;br&gt;Percentage coverage: 65&lt;br&gt;BLAST bit score: 3019&lt;br&gt;E-value: 0.0" locus_tag="HDC32_RS24880" class="clusterblast-orf" id="dummy-1_h1_10_21"  />
</g>
<g id="a1_0022"  >
<polygon points="423,90 572,90 577,85 572,80 423,80 423,90 " style="fill:#15d84f; stroke-width:1; stroke:black; " description="&lt;b&gt;HDC32_RS24875&lt;/b&gt;&lt;br&gt;non-ribosomal peptide synthase/polyketide synthase&lt;br&gt;Location: 258261 - 243364&lt;br&gt;&lt;br&gt;&lt;b&gt;BlastP hit with ctg11_114&lt;/b&gt;&lt;br&gt;Percentage identity: 57&lt;br&gt;Percentage coverage: 68&lt;br&gt;BLAST bit score: 3215&lt;br&gt;E-value: 0.0&lt;br&gt;&lt;br&gt;&lt;b&gt;BlastP hit with ctg11_115&lt;/b&gt;&lt;br&gt;Percentage identity: 73&lt;br&gt;Percentage coverage: 99&lt;br&gt;BLAST bit score: 5643&lt;br&gt;E-value: 0.0" locus_tag="HDC32_RS24875" class="clusterblast-orf" id="dummy-1_h1_10_22"  />
</g>
<g id="a1_0023"  >
<polygon points="578,85 583,80 604,80 604,90 583,90 578,85 " style="fill:#152cd8; stroke-width:1; stroke:black; " description="&lt;b&gt;HDC32_RS24870&lt;/b&gt;&lt;br&gt;TonB-dependent siderophore receptor&lt;br&gt;Location: 243211 - 240770&lt;br&gt;&lt;br&gt;&lt;b&gt;BlastP hit with ctg11_116&lt;/b&gt;&lt;br&gt;Percentage identity: 61&lt;br&gt;Percentage coverage: 101&lt;br&gt;BLAST bit score: 1007&lt;br&gt;E-value: 0.0&lt;br&gt;&lt;br&gt;&lt;b&gt;BlastP hit with ctg11_135&lt;/b&gt;&lt;br&gt;Percentage identity: 38&lt;br&gt;Percentage coverage: 98&lt;br&gt;BLAST bit score: 468&lt;br&gt;E-value: 2.2e-152" locus_tag="HDC32_RS24870" class="clusterblast-orf" id="dummy-1_h1_10_23"  />
</g>
<g id="a1_0024"  >
<polygon points="605,85 610,80 622,80 622,90 610,90 605,85 " style="fill:#d8159f; stroke-width:1; stroke:black; " description="&lt;b&gt;HDC32_RS24865&lt;/b&gt;&lt;br&gt;cyclic peptide export ABC transporter&lt;br&gt;Location: 240669 - 239017&lt;br&gt;&lt;br&gt;&lt;b&gt;BlastP hit with ctg11_117&lt;/b&gt;&lt;br&gt;Percentage identity: 91&lt;br&gt;Percentage coverage: 100&lt;br&gt;BLAST bit score: 972&lt;br&gt;E-value: 0.0" locus_tag="HDC32_RS24865" class="clusterblast-orf" id="dummy-1_h1_10_24"  />
</g>
<g id="a1_0025"  >
<polygon points="624,90 627,90 632,85 627,80 624,80 624,90 " style="fill:#d8c115; stroke-width:1; stroke:black; " description="&lt;b&gt;HDC32_RS24860&lt;/b&gt;&lt;br&gt;N(5)-hydroxyornithine transformylase PvdF&lt;br&gt;Location: 238816 - 237971&lt;br&gt;&lt;br&gt;&lt;b&gt;BlastP hit with ctg11_118&lt;/b&gt;&lt;br&gt;Percentage identity: 95&lt;br&gt;Percentage coverage: 100&lt;br&gt;BLAST bit score: 540&lt;br&gt;E-value: 2.8e-195" locus_tag="HDC32_RS24860" class="clusterblast-orf" id="dummy-1_h1_10_25"  />
</g>
<g id="a1_0026"  >
<polygon points="633,85 638,80 642,80 642,90 638,90 633,85 " style="fill:#15d871; stroke-width:1; stroke:black; " description="&lt;b&gt;HDC32_RS24855&lt;/b&gt;&lt;br&gt;formylglycine-generating enzyme family protein&lt;br&gt;Location: 237867 - 236995&lt;br&gt;&lt;br&gt;&lt;b&gt;BlastP hit with ctg11_119&lt;/b&gt;&lt;br&gt;Percentage identity: 93&lt;br&gt;Percentage coverage: 100&lt;br&gt;BLAST bit score: 580&lt;br&gt;E-value: 1e-210" locus_tag="HDC32_RS24855" class="clusterblast-orf" id="dummy-1_h1_10_26"  />
</g>
<g id="a1_0027"  >
<polygon points="643,85 648,80 656,80 656,90 648,90 643,85 " style="fill:#2115d8; stroke-width:1; stroke:black; " description="&lt;b&gt;HDC32_RS24850&lt;/b&gt;&lt;br&gt;aminotransferase class V-fold PLP-dependent enzyme&lt;br&gt;Location: 236963 - 235692&lt;br&gt;&lt;br&gt;&lt;b&gt;BlastP hit with ctg11_120&lt;/b&gt;&lt;br&gt;Percentage identity: 87&lt;br&gt;Percentage coverage: 100&lt;br&gt;BLAST bit score: 748&lt;br&gt;E-value: 1.22e-272" locus_tag="HDC32_RS24850" class="clusterblast-orf" id="dummy-1_h1_10_27"  />
</g>
<g id="a1_0028"  >
<polygon points="656,85 661,80 670,80 670,90 661,90 656,85 " style="fill:#d8157c; stroke-width:1; stroke:black; " description="&lt;b&gt;HDC32_RS24845&lt;/b&gt;&lt;br&gt;pyoverdine-tailoring dipeptidase-like protein PvdM&lt;br&gt;Location: 235673 - 234324&lt;br&gt;&lt;br&gt;&lt;b&gt;BlastP hit with ctg11_121&lt;/b&gt;&lt;br&gt;Percentage identity: 92&lt;br&gt;Percentage coverage: 100&lt;br&gt;BLAST bit score: 855&lt;br&gt;E-value: 3.59e-314" locus_tag="HDC32_RS24845" class="clusterblast-orf" id="dummy-1_h1_10_28"  />
</g>
<g id="a1_0029"  >
<polygon points="671,90 683,90 688,85 683,80 671,80 671,90 " style="fill:#cdd815; stroke-width:1; stroke:black; " description="&lt;b&gt;HDC32_RS24840&lt;/b&gt;&lt;br&gt;PvdJ/PvdD/PvdP-like protein&lt;br&gt;Location: 234181 - 232550&lt;br&gt;&lt;br&gt;&lt;b&gt;BlastP hit with ctg11_122&lt;/b&gt;&lt;br&gt;Percentage identity: 92&lt;br&gt;Percentage coverage: 100&lt;br&gt;BLAST bit score: 1057&lt;br&gt;E-value: 0.0" locus_tag="HDC32_RS24840" class="clusterblast-orf" id="dummy-1_h1_10_29"  />
</g>
<g id="a1_0030"  >
<polygon points="688,85 693,80 701,80 701,90 693,90 688,85 " style="fill:white; stroke-width:1; stroke:black; " description="&lt;b&gt;HDC32_RS24835&lt;/b&gt;&lt;br&gt;methionine gamma-lyase&lt;br&gt;Location: 232533 - 231331" locus_tag="HDC32_RS24835" class="clusterblast-orf" id="dummy-1_h1_10_30"  />
</g>
<g id="a1_0031"  >
<polygon points="702,90 702,90 707,85 702,80 702,80 702,90 " style="fill:white; stroke-width:1; stroke:black; " description="&lt;b&gt;HDC32_RS24830&lt;/b&gt;&lt;br&gt;Lrp/AsnC family transcriptional regulator&lt;br&gt;Location: 231207 - 230737" locus_tag="HDC32_RS24830" class="clusterblast-orf" id="dummy-1_h1_10_31"  />
</g>
<g id="a1_0032"  >
<polygon points="708,90 712,85 708,80 708,90 " style="fill:white; stroke-width:1; stroke:black; " description="&lt;b&gt;HDC32_RS24825&lt;/b&gt;&lt;br&gt;carboxymuconolactone decarboxylase family protein&lt;br&gt;Location: 230629 - 230192" locus_tag="HDC32_RS24825" class="clusterblast-orf" id="dummy-1_h1_10_32"  />
</g>
<g id="a1_0033"  >
<polygon points="714,85 719,80 736,80 736,90 719,90 714,85 " style="fill:white; stroke-width:1; stroke:black; " description="&lt;b&gt;HDC32_RS24820&lt;/b&gt;&lt;br&gt;TonB-dependent siderophore receptor&lt;br&gt;Location: 230026 - 227864" locus_tag="HDC32_RS24820" class="clusterblast-orf" id="dummy-1_h1_10_33"  />
</g>
<g id="a1_0034"  >
<polygon points="738,90 741,90 746,85 741,80 738,80 738,90 " style="fill:white; stroke-width:1; stroke:black; " description="&lt;b&gt;HDC32_RS24815&lt;/b&gt;&lt;br&gt;acetoin reductase&lt;br&gt;Location: 227671 - 226892" locus_tag="HDC32_RS24815" class="clusterblast-orf" id="dummy-1_h1_10_34"  />
</g>
<g id="a1_0035"  >
<polygon points="747,85 752,80 766,80 766,90 752,90 747,85 " style="fill:white; stroke-width:1; stroke:black; " description="&lt;b&gt;HDC32_RS24810&lt;/b&gt;&lt;br&gt;sigma 54-interacting transcriptional regulator&lt;br&gt;Location: 226821 - 224962" locus_tag="HDC32_RS24810" class="clusterblast-orf" id="dummy-1_h1_10_35"  />
</g>
<g id="a1_0036"  >
<polygon points="769,90 775,90 780,85 775,80 769,80 769,90 " style="fill:white; stroke-width:1; stroke:black; " description="&lt;b&gt;HDC32_RS24805&lt;/b&gt;&lt;br&gt;thiamine pyrophosphate-dependent dehydrogenase E1 component subunit alpha&lt;br&gt;Location: 224652 - 223675" locus_tag="HDC32_RS24805" class="clusterblast-orf" id="dummy-1_h1_10_36"  />
</g>
</svg>
