<svg xmlns="http://www.w3.org/2000/svg" xmlns:xlink="http://www.w3.org/1999/xlink" version="1.1" x="0" y="0" height="230" width="800" viewBox="0 0 800 230" preserveAspectRatio="none"  >
<g label="Query sequence" class="clusterblast-cluster"  >
<text x="5" y="20" class="clusterblast-acc"  >
Query sequence</text>
<line x1="10" y1="35" x2="778.0" y2="35" style="stroke-width:1; stroke:grey; "  />
<polygon points="0,40 61,40 66,35 61,30 0,30 0,40 " style="fill:#d81515; stroke-width:1; stroke:black; " description="&lt;b&gt;ctg26_33&lt;/b&gt;&lt;br&gt;ctg26 33&lt;br&gt;Location: 34458 - 35226" locus_tag="ctg26_33" class="clusterblast-orf" id="dummy-1_q0_0_all"  />
<polygon points="66,40 122,40 127,35 122,30 66,30 66,40 " style="fill:#d81515; stroke-width:1; stroke:black; " description="&lt;b&gt;ctg26_34&lt;/b&gt;&lt;br&gt;ctg26 34&lt;br&gt;Location: 35227 - 35929" locus_tag="ctg26_34" class="clusterblast-orf" id="dummy-1_q1_0_all"  />
<polygon points="131,35 136,30 242,30 242,40 136,40 131,35 " style="fill:#3cd815; stroke-width:1; stroke:black; " description="&lt;b&gt;ctg26_35&lt;/b&gt;&lt;br&gt;ctg26 35&lt;br&gt;Location: 35980 - 37273" locus_tag="ctg26_35" class="clusterblast-orf" id="dummy-1_q2_0_all"  />
<polygon points="243,35 248,30 327,30 327,40 248,40 243,35 " style="fill:#1563d8; stroke-width:1; stroke:black; " description="&lt;b&gt;ctg26_36&lt;/b&gt;&lt;br&gt;ctg26 36&lt;br&gt;Location: 37285 - 38263" locus_tag="ctg26_36" class="clusterblast-orf" id="dummy-1_q3_0_all"  />
<polygon points="365,40 386,40 391,35 386,30 365,30 365,40 " style="fill:#b115d8; stroke-width:1; stroke:black; " description="&lt;b&gt;ctg26_37&lt;/b&gt;&lt;br&gt;ctg26 37&lt;br&gt;Location: 38704 - 39010" locus_tag="ctg26_37" class="clusterblast-orf" id="dummy-1_q4_0_all"  />
<polygon points="393,40 464,40 469,35 464,30 393,30 393,40 " style="fill:#d88a15; stroke-width:1; stroke:black; " description="&lt;b&gt;ctg26_38&lt;/b&gt;&lt;br&gt;ctg26 38&lt;br&gt;Location: 39033 - 39915" locus_tag="ctg26_38" class="clusterblast-orf" id="dummy-1_q5_0_all"  />
<polygon points="468,40 530,40 535,35 530,30 468,30 468,40 " style="fill:#15d863; stroke-width:1; stroke:black; " description="&lt;b&gt;ctg26_39&lt;/b&gt;&lt;br&gt;ctg26 39&lt;br&gt;Location: 39911 - 40688" locus_tag="ctg26_39" class="clusterblast-orf" id="dummy-1_q6_0_all"  />
<polygon points="535,40 571,40 576,35 571,30 535,30 535,40 " style="fill:#3c15d8; stroke-width:1; stroke:black; " description="&lt;b&gt;ctg26_40&lt;/b&gt;&lt;br&gt;ctg26 40&lt;br&gt;Location: 40684 - 41170" locus_tag="ctg26_40" class="clusterblast-orf" id="dummy-1_q7_0_all"  />
<polygon points="576,35 581,30 654,30 654,40 581,40 576,35 " style="fill:#d8158a; stroke-width:1; stroke:black; " description="&lt;b&gt;ctg26_41&lt;/b&gt;&lt;br&gt;ctg26 41&lt;br&gt;Location: 41166 - 42075" locus_tag="ctg26_41" class="clusterblast-orf" id="dummy-1_q8_0_all"  />
<polygon points="663,40 709,40 714,35 709,30 663,30 663,40 " style="fill:#b1d815; stroke-width:1; stroke:black; " description="&lt;b&gt;ctg26_42&lt;/b&gt;&lt;br&gt;ctg26 42&lt;br&gt;Location: 42178 - 42778" locus_tag="ctg26_42" class="clusterblast-orf" id="dummy-1_q9_0_all"  />
<polygon points="723,40 775,40 780,35 775,30 723,30 723,40 " style="fill:#15d8d8; stroke-width:1; stroke:black; " description="&lt;b&gt;ctg26_43&lt;/b&gt;&lt;br&gt;ctg26 43&lt;br&gt;Location: 42875 - 43547" locus_tag="ctg26_43" class="clusterblast-orf" id="dummy-1_q10_0_all"  />
</g>
<g label="NZ_LT629704" description="NZ_LT629704 (5676721-5687600): Pseudomonas antarctica strain LMG 22709 chromo... (81% of genes show similarity), bacteriocin" class="clusterblast-cluster"  >
<text x="5" y="70" class="clusterblast-acc"  >
<a xlink:href="https://antismash-db.secondarymetabolites.org/area.html?record=NZ_LT629704&amp;start=5676721&amp;end=5687600" target="_blank">NZ_LT629704 (5676721-5687600)</a>: Pseudomonas antarctica strain LMG 22709 chromo... (81% of genes show similarity), bacteriocin</text>
<line x1="10" y1="85" x2="778.0" y2="85" style="stroke-width:1; stroke:grey; "  />
</g>
<g id="a1_000"  >
<polygon points="16,90 90,90 95,85 90,80 16,80 16,90 " style="fill:white; stroke-width:1; stroke:black; " description="&lt;b&gt;BLQ27_RS26045&lt;/b&gt;&lt;br&gt;high-affinity branched-chain amino acid ABC transporter permease LivH&lt;br&gt;Location: 5677519 - 5678442" locus_tag="BLQ27_RS26045" class="clusterblast-orf" id="dummy-1_h1_8_0"  />
</g>
<g id="a1_001"  >
<polygon points="95,90 197,90 202,85 197,80 95,80 95,90 " style="fill:white; stroke-width:1; stroke:black; " description="&lt;b&gt;BLQ27_RS26050&lt;/b&gt;&lt;br&gt;high-affinity branched-chain amino acid ABC transporter permease LivM&lt;br&gt;Location: 5678439 - 5679692" locus_tag="BLQ27_RS26050" class="clusterblast-orf" id="dummy-1_h1_8_1"  />
</g>
<g id="a1_002"  >
<polygon points="202,90 263,90 268,85 263,80 202,80 202,90 " style="fill:#d81515; stroke-width:1; stroke:black; " description="&lt;b&gt;BLQ27_RS26055&lt;/b&gt;&lt;br&gt;high-affinity branched-chain amino acid ABC transporter ATP-binding protein LivG&lt;br&gt;Location: 5679689 - 5680456&lt;br&gt;&lt;br&gt;&lt;b&gt;BlastP hit with ctg26_33&lt;/b&gt;&lt;br&gt;Percentage identity: 99&lt;br&gt;Percentage coverage: 100&lt;br&gt;BLAST bit score: 500&lt;br&gt;E-value: 2.41e-180&lt;br&gt;&lt;br&gt;&lt;b&gt;BlastP hit with ctg26_34&lt;/b&gt;&lt;br&gt;Percentage identity: 33&lt;br&gt;Percentage coverage: 109&lt;br&gt;BLAST bit score: 122&lt;br&gt;E-value: 5.26e-32" locus_tag="BLQ27_RS26055" class="clusterblast-orf" id="dummy-1_h1_8_2"  />
</g>
<g id="a1_003"  >
<polygon points="268,90 323,90 328,85 323,80 268,80 268,90 " style="fill:#d81515; stroke-width:1; stroke:black; " description="&lt;b&gt;BLQ27_RS26060&lt;/b&gt;&lt;br&gt;ABC transporter ATP-binding protein&lt;br&gt;Location: 5680458 - 5681159&lt;br&gt;&lt;br&gt;&lt;b&gt;BlastP hit with ctg26_33&lt;/b&gt;&lt;br&gt;Percentage identity: 32&lt;br&gt;Percentage coverage: 100&lt;br&gt;BLAST bit score: 122&lt;br&gt;E-value: 8.1e-32&lt;br&gt;&lt;br&gt;&lt;b&gt;BlastP hit with ctg26_34&lt;/b&gt;&lt;br&gt;Percentage identity: 99&lt;br&gt;Percentage coverage: 100&lt;br&gt;BLAST bit score: 445&lt;br&gt;E-value: 2.8e-159" locus_tag="BLQ27_RS26060" class="clusterblast-orf" id="dummy-1_h1_8_3"  />
</g>
<g id="a1_004"  >
<polygon points="349,90 369,90 374,85 369,80 349,80 349,90 " style="fill:#b115d8; stroke-width:1; stroke:black; " description="&lt;b&gt;BLQ27_RS26065&lt;/b&gt;&lt;br&gt;DUF2282 domain-containing protein&lt;br&gt;Location: 5681398 - 5681697&lt;br&gt;&lt;br&gt;&lt;b&gt;BlastP hit with ctg26_37&lt;/b&gt;&lt;br&gt;Percentage identity: 85&lt;br&gt;Percentage coverage: 101&lt;br&gt;BLAST bit score: 152&lt;br&gt;E-value: 9.99e-48" locus_tag="BLQ27_RS26065" class="clusterblast-orf" id="dummy-1_h1_8_4"  />
</g>
<g id="a1_005"  >
<polygon points="376,90 447,90 452,85 447,80 376,80 376,90 " style="fill:#d88a15; stroke-width:1; stroke:black; " description="&lt;b&gt;BLQ27_RS26070&lt;/b&gt;&lt;br&gt;DUF692 domain-containing protein&lt;br&gt;Location: 5681722 - 5682600&lt;br&gt;&lt;br&gt;&lt;b&gt;BlastP hit with ctg26_38&lt;/b&gt;&lt;br&gt;Percentage identity: 94&lt;br&gt;Percentage coverage: 99&lt;br&gt;BLAST bit score: 556&lt;br&gt;E-value: 2.43e-201" locus_tag="BLQ27_RS26070" class="clusterblast-orf" id="dummy-1_h1_8_5"  />
</g>
<g id="a1_006"  >
<polygon points="451,90 513,90 518,85 513,80 451,80 451,90 " style="fill:#15d863; stroke-width:1; stroke:black; " description="&lt;b&gt;BLQ27_RS26075&lt;/b&gt;&lt;br&gt;putative DNA-binding domain-containing protein&lt;br&gt;Location: 5682597 - 5683373&lt;br&gt;&lt;br&gt;&lt;b&gt;BlastP hit with ctg26_39&lt;/b&gt;&lt;br&gt;Percentage identity: 79&lt;br&gt;Percentage coverage: 100&lt;br&gt;BLAST bit score: 394&lt;br&gt;E-value: 1.7e-138" locus_tag="BLQ27_RS26075" class="clusterblast-orf" id="dummy-1_h1_8_6"  />
</g>
<g id="a1_007"  >
<polygon points="518,90 554,90 559,85 554,80 518,80 518,90 " style="fill:#3c15d8; stroke-width:1; stroke:black; " description="&lt;b&gt;BLQ27_RS26080&lt;/b&gt;&lt;br&gt;DoxX family protein&lt;br&gt;Location: 5683370 - 5683855&lt;br&gt;&lt;br&gt;&lt;b&gt;BlastP hit with ctg26_40&lt;/b&gt;&lt;br&gt;Percentage identity: 96&lt;br&gt;Percentage coverage: 100&lt;br&gt;BLAST bit score: 300&lt;br&gt;E-value: 3.52e-104" locus_tag="BLQ27_RS26080" class="clusterblast-orf" id="dummy-1_h1_8_7"  />
</g>
<g id="a1_008"  >
<polygon points="559,85 564,80 637,80 637,90 564,90 559,85 " style="fill:#d8158a; stroke-width:1; stroke:black; " description="&lt;b&gt;BLQ27_RS26085&lt;/b&gt;&lt;br&gt;LysR family transcriptional regulator&lt;br&gt;Location: 5683846 - 5684760&lt;br&gt;&lt;br&gt;&lt;b&gt;BlastP hit with ctg26_41&lt;/b&gt;&lt;br&gt;Percentage identity: 96&lt;br&gt;Percentage coverage: 100&lt;br&gt;BLAST bit score: 574&lt;br&gt;E-value: 5.3e-208" locus_tag="BLQ27_RS26085" class="clusterblast-orf" id="dummy-1_h1_8_8"  />
</g>
<g id="a1_009"  >
<polygon points="646,90 692,90 697,85 692,80 646,80 646,90 " style="fill:#b1d815; stroke-width:1; stroke:black; " description="&lt;b&gt;BLQ27_RS26090&lt;/b&gt;&lt;br&gt;short chain dehydrogenase&lt;br&gt;Location: 5684864 - 5685463&lt;br&gt;&lt;br&gt;&lt;b&gt;BlastP hit with ctg26_42&lt;/b&gt;&lt;br&gt;Percentage identity: 96&lt;br&gt;Percentage coverage: 100&lt;br&gt;BLAST bit score: 369&lt;br&gt;E-value: 1.58e-130" locus_tag="BLQ27_RS26090" class="clusterblast-orf" id="dummy-1_h1_8_9"  />
</g>
<g id="a1_0010"  >
<polygon points="706,90 758,90 763,85 758,80 706,80 706,90 " style="fill:#15d8d8; stroke-width:1; stroke:black; " description="&lt;b&gt;BLQ27_RS26095&lt;/b&gt;&lt;br&gt;hypothetical protein&lt;br&gt;Location: 5685561 - 5686232&lt;br&gt;&lt;br&gt;&lt;b&gt;BlastP hit with ctg26_43&lt;/b&gt;&lt;br&gt;Percentage identity: 96&lt;br&gt;Percentage coverage: 100&lt;br&gt;BLAST bit score: 432&lt;br&gt;E-value: 1.99e-154" locus_tag="BLQ27_RS26095" class="clusterblast-orf" id="dummy-1_h1_8_10"  />
</g>
</svg>
