<svg xmlns="http://www.w3.org/2000/svg" xmlns:xlink="http://www.w3.org/1999/xlink" version="1.1" x="0" y="0" height="230" width="800" viewBox="0 0 800 230" preserveAspectRatio="none"  >
<g label="Query sequence" class="clusterblast-cluster"  >
<text x="5" y="20" class="clusterblast-acc"  >
Query sequence</text>
<line x1="10" y1="35" x2="778.0" y2="35" style="stroke-width:1; stroke:grey; "  />
<polygon points="229,40 249,40 254,35 249,30 229,30 229,40 " style="fill:#d81515; stroke-width:1; stroke:black; " description="&lt;b&gt;ctg1_546&lt;/b&gt;&lt;br&gt;ctg1 546&lt;br&gt;Location: 581689 - 582979" locus_tag="ctg1_546" class="clusterblast-orf" id="dummy-2_q0_0_all"  />
<polygon points="256,40 284,40 289,35 284,30 256,30 256,40 " style="fill:#77d815; stroke-width:1; stroke:black; " description="&lt;b&gt;ctg1_547&lt;/b&gt;&lt;br&gt;ctg1 547&lt;br&gt;Location: 583069 - 584842" locus_tag="ctg1_547" class="clusterblast-orf" id="dummy-2_q1_0_all"  />
<polygon points="291,40 320,40 325,35 320,30 291,30 291,40 " style="fill:#77d815; stroke-width:1; stroke:black; " description="&lt;b&gt;ctg1_548&lt;/b&gt;&lt;br&gt;ctg1 548&lt;br&gt;Location: 584961 - 586740" locus_tag="ctg1_548" class="clusterblast-orf" id="dummy-2_q2_0_all"  />
<polygon points="329,35 334,30 347,30 347,40 334,40 329,35 " style="fill:white; stroke-width:1; stroke:black; " description="&lt;b&gt;ctg1_549&lt;/b&gt;&lt;br&gt;ctg1 549&lt;br&gt;Location: 586966 - 587866" locus_tag="ctg1_549" class="clusterblast-orf" id="dummy-2_q3_0_all"  />
<polygon points="351,40 369,40 374,35 369,30 351,30 351,40 " style="fill:white; stroke-width:1; stroke:black; " description="&lt;b&gt;ctg1_550&lt;/b&gt;&lt;br&gt;ctg1 550&lt;br&gt;Location: 588075 - 589335" locus_tag="ctg1_550" class="clusterblast-orf" id="dummy-2_q4_0_all"  />
<polygon points="378,40 381,35 378,30 378,40 " style="fill:#15d8d8; stroke-width:1; stroke:black; " description="&lt;b&gt;ctg1_551&lt;/b&gt;&lt;br&gt;ctg1 551&lt;br&gt;Location: 589517 - 589676" locus_tag="ctg1_551" class="clusterblast-orf" id="dummy-2_q5_0_all"  />
<polygon points="381,35 386,30 403,30 403,40 386,40 381,35 " style="fill:#7715d8; stroke-width:1; stroke:black; " description="&lt;b&gt;ctg1_552&lt;/b&gt;&lt;br&gt;ctg1 552&lt;br&gt;Location: 589681 - 590833" locus_tag="ctg1_552" class="clusterblast-orf" id="dummy-2_q6_0_all"  />
<polygon points="402,35 407,30 407,30 407,40 407,40 402,35 " style="fill:#d87715; stroke-width:1; stroke:black; " description="&lt;b&gt;ctg1_553&lt;/b&gt;&lt;br&gt;ctg1 553&lt;br&gt;Location: 590804 - 591080" locus_tag="ctg1_553" class="clusterblast-orf" id="dummy-2_q7_0_all"  />
<polygon points="407,35 412,30 422,30 422,40 412,40 407,35 " style="fill:#15d815; stroke-width:1; stroke:black; " description="&lt;b&gt;ctg1_554&lt;/b&gt;&lt;br&gt;ctg1 554&lt;br&gt;Location: 591076 - 591829" locus_tag="ctg1_554" class="clusterblast-orf" id="dummy-2_q8_0_all"  />
<polygon points="422,35 427,30 439,30 439,40 427,40 422,35 " style="fill:#1577d8; stroke-width:1; stroke:black; " description="&lt;b&gt;ctg1_555&lt;/b&gt;&lt;br&gt;ctg1 555&lt;br&gt;Location: 591840 - 592752" locus_tag="ctg1_555" class="clusterblast-orf" id="dummy-2_q9_0_all"  />
<polygon points="441,35 443,30 443,40 441,35 " style="fill:#d815d8; stroke-width:1; stroke:black; " description="&lt;b&gt;ctg1_556&lt;/b&gt;&lt;br&gt;ctg1 556&lt;br&gt;Location: 592823 - 592946" locus_tag="ctg1_556" class="clusterblast-orf" id="dummy-2_q10_0_all"  />
<polygon points="445,35 450,30 490,30 490,40 450,40 445,35 " style="fill:#d8d815; stroke-width:1; stroke:black; " description="&lt;b&gt;ctg1_557&lt;/b&gt;&lt;br&gt;ctg1 557&lt;br&gt;Location: 593056 - 595432" locus_tag="ctg1_557" class="clusterblast-orf" id="dummy-2_q11_0_all"  />
<polygon points="491,35 496,30 506,30 506,40 496,40 491,35 " style="fill:#15d877; stroke-width:1; stroke:black; " description="&lt;b&gt;ctg1_558&lt;/b&gt;&lt;br&gt;ctg1 558&lt;br&gt;Location: 595491 - 596286" locus_tag="ctg1_558" class="clusterblast-orf" id="dummy-2_q12_0_all"  />
<polygon points="506,35 511,30 539,30 539,40 511,40 506,35 " style="fill:#1515d8; stroke-width:1; stroke:black; " description="&lt;b&gt;ctg1_559&lt;/b&gt;&lt;br&gt;ctg1 559&lt;br&gt;Location: 596296 - 598000" locus_tag="ctg1_559" class="clusterblast-orf" id="dummy-2_q13_0_all"  />
<polygon points="541,35 546,30 550,30 550,40 546,40 541,35 " style="fill:#d81577; stroke-width:1; stroke:black; " description="&lt;b&gt;ctg1_560&lt;/b&gt;&lt;br&gt;ctg1 560&lt;br&gt;Location: 598146 - 598593" locus_tag="ctg1_560" class="clusterblast-orf" id="dummy-2_q14_0_all"  />
</g>
<g label="NZ_RBOI01000041" description="NZ_RBOI01000041 (87050-131091): Pseudomonas syringae pv. aptata strain G733 P... (35% of genes show similarity), NRPS-like" class="clusterblast-cluster"  >
<text x="5" y="70" class="clusterblast-acc"  >
<a xlink:href="https://antismash-db.secondarymetabolites.org/area.html?record=NZ_RBOI01000041&amp;start=87050&amp;end=131091" target="_blank">NZ_RBOI01000041 (87050-131091)</a>: Pseudomonas syringae pv. aptata strain G733 P... (35% of genes show similarity), NRPS-like</text>
<line x1="10" y1="85" x2="778.0" y2="85" style="stroke-width:1; stroke:grey; "  />
</g>
<g id="a2_000"  >
<polygon points="0,90 19,90 24,85 19,80 0,80 0,90 " style="fill:#d81515; stroke-width:1; stroke:black; " description="&lt;b&gt;ALQ78_RS10025&lt;/b&gt;&lt;br&gt;GGDEF domain-containing protein&lt;br&gt;Location: 88767 - 90065&lt;br&gt;&lt;br&gt;&lt;b&gt;BlastP hit with ctg1_546&lt;/b&gt;&lt;br&gt;Percentage identity: 81&lt;br&gt;Percentage coverage: 100&lt;br&gt;BLAST bit score: 684&lt;br&gt;E-value: 1.82e-247" locus_tag="ALQ78_RS10025" class="clusterblast-orf" id="dummy-2_h2_3_0"  />
</g>
<g id="a2_001"  >
<polygon points="27,90 56,90 61,85 56,80 27,80 27,90 " style="fill:#77d815; stroke-width:1; stroke:black; " description="&lt;b&gt;ALQ78_RS10030&lt;/b&gt;&lt;br&gt;acyl-CoA dehydrogenase C-terminal domain-containing protein&lt;br&gt;Location: 90235 - 92013&lt;br&gt;&lt;br&gt;&lt;b&gt;BlastP hit with ctg1_547&lt;/b&gt;&lt;br&gt;Percentage identity: 56&lt;br&gt;Percentage coverage: 101&lt;br&gt;BLAST bit score: 630&lt;br&gt;E-value: 9.85e-221&lt;br&gt;&lt;br&gt;&lt;b&gt;BlastP hit with ctg1_548&lt;/b&gt;&lt;br&gt;Percentage identity: 84&lt;br&gt;Percentage coverage: 100&lt;br&gt;BLAST bit score: 1002&lt;br&gt;E-value: 0.0" locus_tag="ALQ78_RS10030" class="clusterblast-orf" id="dummy-2_h2_3_1"  />
</g>
<g id="a2_002"  >
<polygon points="69,90 72,85 69,80 69,90 " style="fill:#15d8d8; stroke-width:1; stroke:black; " description="&lt;b&gt;ALQ78_RS10035&lt;/b&gt;&lt;br&gt;YqaE/Pmp3 family membrane protein&lt;br&gt;Location: 92417 - 92578&lt;br&gt;&lt;br&gt;&lt;b&gt;BlastP hit with ctg1_551&lt;/b&gt;&lt;br&gt;Percentage identity: 85&lt;br&gt;Percentage coverage: 100&lt;br&gt;BLAST bit score: 87&lt;br&gt;E-value: 3.14e-23" locus_tag="ALQ78_RS10035" class="clusterblast-orf" id="dummy-2_h2_3_2"  />
</g>
<g id="a2_003"  >
<polygon points="73,85 78,80 107,80 107,90 78,90 73,85 " style="fill:white; stroke-width:1; stroke:black; " description="&lt;b&gt;ALQ78_RS10040&lt;/b&gt;&lt;br&gt;S9 family peptidase&lt;br&gt;Location: 92634 - 94460" locus_tag="ALQ78_RS10040" class="clusterblast-orf" id="dummy-2_h2_3_3"  />
</g>
<g id="a2_004"  >
<polygon points="107,85 112,80 129,80 129,90 112,90 107,85 " style="fill:#7715d8; stroke-width:1; stroke:black; " description="&lt;b&gt;ALQ78_RS10045&lt;/b&gt;&lt;br&gt;pyrroloquinoline quinone biosynthesis protein PqqE&lt;br&gt;Location: 94423 - 95592&lt;br&gt;&lt;br&gt;&lt;b&gt;BlastP hit with ctg1_552&lt;/b&gt;&lt;br&gt;Percentage identity: 88&lt;br&gt;Percentage coverage: 99&lt;br&gt;BLAST bit score: 714&lt;br&gt;E-value: 1.57e-260" locus_tag="ALQ78_RS10045" class="clusterblast-orf" id="dummy-2_h2_3_4"  />
</g>
<g id="a2_005"  >
<polygon points="129,85 134,80 134,80 134,90 134,90 129,85 " style="fill:#d87715; stroke-width:1; stroke:black; " description="&lt;b&gt;ALQ78_RS10050&lt;/b&gt;&lt;br&gt;pyrroloquinoline quinone biosynthesis peptide chaperone PqqD&lt;br&gt;Location: 95585 - 95869&lt;br&gt;&lt;br&gt;&lt;b&gt;BlastP hit with ctg1_553&lt;/b&gt;&lt;br&gt;Percentage identity: 71&lt;br&gt;Percentage coverage: 95&lt;br&gt;BLAST bit score: 134&lt;br&gt;E-value: 8.37e-41" locus_tag="ALQ78_RS10050" class="clusterblast-orf" id="dummy-2_h2_3_5"  />
</g>
<g id="a2_006"  >
<polygon points="134,85 139,80 148,80 148,90 139,90 134,85 " style="fill:#15d815; stroke-width:1; stroke:black; " description="&lt;b&gt;ALQ78_RS10055&lt;/b&gt;&lt;br&gt;pyrroloquinoline-quinone synthase PqqC&lt;br&gt;Location: 95866 - 96621&lt;br&gt;&lt;br&gt;&lt;b&gt;BlastP hit with ctg1_554&lt;/b&gt;&lt;br&gt;Percentage identity: 96&lt;br&gt;Percentage coverage: 99&lt;br&gt;BLAST bit score: 498&lt;br&gt;E-value: 9.84e-180" locus_tag="ALQ78_RS10055" class="clusterblast-orf" id="dummy-2_h2_3_6"  />
</g>
<g id="a2_007"  >
<polygon points="149,85 154,80 166,80 166,90 154,90 149,85 " style="fill:#1577d8; stroke-width:1; stroke:black; " description="&lt;b&gt;ALQ78_RS10060&lt;/b&gt;&lt;br&gt;pyrroloquinoline quinone biosynthesis protein PqqB&lt;br&gt;Location: 96630 - 97541&lt;br&gt;&lt;br&gt;&lt;b&gt;BlastP hit with ctg1_555&lt;/b&gt;&lt;br&gt;Percentage identity: 91&lt;br&gt;Percentage coverage: 100&lt;br&gt;BLAST bit score: 588&lt;br&gt;E-value: 8.58e-214" locus_tag="ALQ78_RS10060" class="clusterblast-orf" id="dummy-2_h2_3_7"  />
</g>
<g id="a2_008"  >
<polygon points="168,85 169,80 169,90 168,85 " style="fill:#d815d8; stroke-width:1; stroke:black; " description="&lt;b&gt;ALQ78_RS10065&lt;/b&gt;&lt;br&gt;pyrroloquinoline quinone precursor peptide PqqA&lt;br&gt;Location: 97630 - 97704&lt;br&gt;&lt;br&gt;&lt;b&gt;BlastP hit with ctg1_556&lt;/b&gt;&lt;br&gt;Percentage identity: 92&lt;br&gt;Percentage coverage: 60&lt;br&gt;BLAST bit score: 52&lt;br&gt;E-value: 6.3e-10" locus_tag="ALQ78_RS10065" class="clusterblast-orf" id="dummy-2_h2_3_8"  />
</g>
<g id="a2_009"  >
<polygon points="172,85 177,80 215,80 215,90 177,90 172,85 " style="fill:#d8d815; stroke-width:1; stroke:black; " description="&lt;b&gt;ALQ78_RS10070&lt;/b&gt;&lt;br&gt;pyrroloquinoline quinone biosynthesis protein PqqF&lt;br&gt;Location: 97840 - 100128&lt;br&gt;&lt;br&gt;&lt;b&gt;BlastP hit with ctg1_557&lt;/b&gt;&lt;br&gt;Percentage identity: 45&lt;br&gt;Percentage coverage: 102&lt;br&gt;BLAST bit score: 598&lt;br&gt;E-value: 7.87e-203" locus_tag="ALQ78_RS10070" class="clusterblast-orf" id="dummy-2_h2_3_9"  />
</g>
<g id="a2_0010"  >
<polygon points="219,85 224,80 234,80 234,90 224,90 219,85 " style="fill:#15d877; stroke-width:1; stroke:black; " description="&lt;b&gt;ALQ78_RS10075&lt;/b&gt;&lt;br&gt;carbon-nitrogen hydrolase family protein&lt;br&gt;Location: 100334 - 101128&lt;br&gt;&lt;br&gt;&lt;b&gt;BlastP hit with ctg1_558&lt;/b&gt;&lt;br&gt;Percentage identity: 73&lt;br&gt;Percentage coverage: 100&lt;br&gt;BLAST bit score: 393&lt;br&gt;E-value: 7.64e-138" locus_tag="ALQ78_RS10075" class="clusterblast-orf" id="dummy-2_h2_3_10"  />
</g>
<g id="a2_0011"  >
<polygon points="234,85 239,80 266,80 266,90 239,90 234,85 " style="fill:#1515d8; stroke-width:1; stroke:black; " description="&lt;b&gt;ALQ78_RS10080&lt;/b&gt;&lt;br&gt;NAD(P)/FAD-dependent oxidoreductase&lt;br&gt;Location: 101144 - 102823&lt;br&gt;&lt;br&gt;&lt;b&gt;BlastP hit with ctg1_559&lt;/b&gt;&lt;br&gt;Percentage identity: 91&lt;br&gt;Percentage coverage: 98&lt;br&gt;BLAST bit score: 1072&lt;br&gt;E-value: 0.0" locus_tag="ALQ78_RS10080" class="clusterblast-orf" id="dummy-2_h2_3_11"  />
</g>
<g id="a2_0012"  >
<polygon points="269,85 274,80 278,80 278,90 274,90 269,85 " style="fill:#d81577; stroke-width:1; stroke:black; " description="&lt;b&gt;ALQ78_RS10085&lt;/b&gt;&lt;br&gt;Lrp/AsnC family transcriptional regulator&lt;br&gt;Location: 102975 - 103436&lt;br&gt;&lt;br&gt;&lt;b&gt;BlastP hit with ctg1_560&lt;/b&gt;&lt;br&gt;Percentage identity: 93&lt;br&gt;Percentage coverage: 99&lt;br&gt;BLAST bit score: 262&lt;br&gt;E-value: 1.38e-89" locus_tag="ALQ78_RS10085" class="clusterblast-orf" id="dummy-2_h2_3_12"  />
</g>
<g id="a2_0013"  >
<polygon points="278,85 283,80 298,80 298,90 283,90 278,85 " style="fill:white; stroke-width:1; stroke:black; " description="&lt;b&gt;ALQ78_RS10090&lt;/b&gt;&lt;br&gt;FUSC family protein&lt;br&gt;Location: 103447 - 104532" locus_tag="ALQ78_RS10090" class="clusterblast-orf" id="dummy-2_h2_3_13"  />
</g>
<g id="a2_0014"  >
<polygon points="303,90 307,85 303,80 303,90 " style="fill:white; stroke-width:1; stroke:black; " description="&lt;b&gt;ALQ78_RS10095&lt;/b&gt;&lt;br&gt;hypothetical protein&lt;br&gt;Location: 104787 - 104996" locus_tag="ALQ78_RS10095" class="clusterblast-orf" id="dummy-2_h2_3_14"  />
</g>
<g id="a2_0015"  >
<polygon points="308,85 313,80 329,80 329,90 313,90 308,85 " style="fill:white; stroke-width:1; stroke:black; " description="&lt;b&gt;ALQ78_RS10100&lt;/b&gt;&lt;br&gt;Fic family protein&lt;br&gt;Location: 105024 - 106154" locus_tag="ALQ78_RS10100" class="clusterblast-orf" id="dummy-2_h2_3_15"  />
</g>
<g id="a2_0016"  >
<polygon points="332,90 336,90 341,85 336,80 332,80 332,90 " style="fill:white; stroke-width:1; stroke:black; " description="&lt;b&gt;ALQ78_RS10105&lt;/b&gt;&lt;br&gt;GNAT family N-acetyltransferase&lt;br&gt;Location: 106295 - 106798" locus_tag="ALQ78_RS10105" class="clusterblast-orf" id="dummy-2_h2_3_16"  />
</g>
<g id="a2_0017"  >
<polygon points="346,90 418,90 423,85 418,80 346,80 346,90 " style="fill:white; stroke-width:1; stroke:black; " description="&lt;b&gt;ALQ78_RS10110&lt;/b&gt;&lt;br&gt;non-ribosomal peptide synthetase&lt;br&gt;Location: 107051 - 111091" locus_tag="ALQ78_RS10110" class="clusterblast-orf" id="dummy-2_h2_3_17"  />
</g>
<g id="a2_0018"  >
<polygon points="423,90 430,90 435,85 430,80 423,80 423,90 " style="fill:white; stroke-width:1; stroke:black; " description="&lt;b&gt;ALQ78_RS10115&lt;/b&gt;&lt;br&gt;4'-phosphopantetheinyl transferase superfamily protein&lt;br&gt;Location: 111088 - 111720" locus_tag="ALQ78_RS10115" class="clusterblast-orf" id="dummy-2_h2_3_18"  />
</g>
<g id="a2_0019"  >
<polygon points="437,85 442,80 446,80 446,90 442,90 437,85 " style="fill:white; stroke-width:1; stroke:black; " description="&lt;b&gt;ALQ78_RS10120&lt;/b&gt;&lt;br&gt;putative addiction module antidote protein&lt;br&gt;Location: 111815 - 112306" locus_tag="ALQ78_RS10120" class="clusterblast-orf" id="dummy-2_h2_3_19"  />
</g>
<g id="a2_0020"  >
<polygon points="446,85 451,80 452,80 452,90 451,90 446,85 " style="fill:white; stroke-width:1; stroke:black; " description="&lt;b&gt;ALQ78_RS10125&lt;/b&gt;&lt;br&gt;type II toxin-antitoxin system RelE/ParE family toxin&lt;br&gt;Location: 112299 - 112622" locus_tag="ALQ78_RS10125" class="clusterblast-orf" id="dummy-2_h2_3_20"  />
</g>
<g id="a2_0021"  >
<polygon points="453,85 458,80 464,80 464,90 458,90 453,85 " style="fill:white; stroke-width:1; stroke:black; " description="&lt;b&gt;ALQ78_RS10130&lt;/b&gt;&lt;br&gt;hypothetical protein&lt;br&gt;Location: 112677 - 113270" locus_tag="ALQ78_RS10130" class="clusterblast-orf" id="dummy-2_h2_3_21"  />
</g>
<g id="a2_0022"  >
<polygon points="470,90 481,90 486,85 481,80 470,80 470,90 " style="fill:white; stroke-width:1; stroke:black; " description="&lt;b&gt;ALQ78_RS10135&lt;/b&gt;&lt;br&gt;AraC family transcriptional regulator&lt;br&gt;Location: 113569 - 114405" locus_tag="ALQ78_RS10135" class="clusterblast-orf" id="dummy-2_h2_3_22"  />
</g>
<g id="a2_0023"  >
<polygon points="487,90 493,90 498,85 493,80 487,80 487,90 " style="fill:white; stroke-width:1; stroke:black; " description="&lt;b&gt;ALQ78_RS10140&lt;/b&gt;&lt;br&gt;LysE family translocator&lt;br&gt;Location: 114455 - 115030" locus_tag="ALQ78_RS10140" class="clusterblast-orf" id="dummy-2_h2_3_23"  />
</g>
<g id="a2_0024"  >
<polygon points="501,85 506,80 516,80 516,90 506,90 501,85 " style="fill:white; stroke-width:1; stroke:black; " description="&lt;b&gt;ALQ78_RS10145&lt;/b&gt;&lt;br&gt;formate/nitrite transporter family protein&lt;br&gt;Location: 115207 - 116022" locus_tag="ALQ78_RS10145" class="clusterblast-orf" id="dummy-2_h2_3_24"  />
</g>
<g id="a2_0025"  >
<polygon points="525,90 529,90 534,85 529,80 525,80 525,90 " style="fill:white; stroke-width:1; stroke:black; " description="&lt;b&gt;ALQ78_RS10150&lt;/b&gt;&lt;br&gt;peptide-methionine (S)-S-oxide reductase MsrA&lt;br&gt;Location: 116466 - 116972" locus_tag="ALQ78_RS10150" class="clusterblast-orf" id="dummy-2_h2_3_25"  />
</g>
<g id="a2_0026"  >
<polygon points="552,85 557,80 593,80 593,90 557,90 552,85 " style="fill:white; stroke-width:1; stroke:black; " description="&lt;b&gt;ALQ78_RS10155&lt;/b&gt;&lt;br&gt;AAA family ATPase&lt;br&gt;Location: 117888 - 120050" locus_tag="ALQ78_RS10155" class="clusterblast-orf" id="dummy-2_h2_3_26"  />
</g>
<g id="a2_0027"  >
<polygon points="627,85 632,80 638,80 638,90 632,90 627,85 " style="fill:white; stroke-width:1; stroke:black; " description="&lt;b&gt;ALQ78_RS10165&lt;/b&gt;&lt;br&gt;recombinase family protein&lt;br&gt;Location: 121867 - 122439" locus_tag="ALQ78_RS10165" class="clusterblast-orf" id="dummy-2_h2_3_27"  />
</g>
<g id="a2_0028"  >
<polygon points="642,85 647,80 659,80 659,90 647,90 642,85 " style="fill:white; stroke-width:1; stroke:black; " description="&lt;b&gt;ALQ78_RS10170&lt;/b&gt;&lt;br&gt;HNH endonuclease&lt;br&gt;Location: 122669 - 123541" locus_tag="ALQ78_RS10170" class="clusterblast-orf" id="dummy-2_h2_3_28"  />
</g>
<g id="a2_0029"  >
<polygon points="659,85 664,80 689,80 689,90 664,90 659,85 " style="fill:white; stroke-width:1; stroke:black; " description="&lt;b&gt;ALQ78_RS10175&lt;/b&gt;&lt;br&gt;AAA family ATPase&lt;br&gt;Location: 123538 - 125106" locus_tag="ALQ78_RS10175" class="clusterblast-orf" id="dummy-2_h2_3_29"  />
</g>
<g id="a2_0030"  >
<polygon points="690,85 695,80 705,80 705,90 695,90 690,85 " style="fill:white; stroke-width:1; stroke:black; " description="&lt;b&gt;ALQ78_RS10180&lt;/b&gt;&lt;br&gt;hypothetical protein&lt;br&gt;Location: 125160 - 125972" locus_tag="ALQ78_RS10180" class="clusterblast-orf" id="dummy-2_h2_3_30"  />
</g>
<g id="a2_0031"  >
<polygon points="716,90 725,90 730,85 725,80 716,80 716,90 " style="fill:white; stroke-width:1; stroke:black; " description="&lt;b&gt;ALQ78_RS26650&lt;/b&gt;&lt;br&gt;hypothetical protein&lt;br&gt;Location: 126551 - 127307" locus_tag="ALQ78_RS26650" class="clusterblast-orf" id="dummy-2_h2_3_31"  />
</g>
<g id="a2_0032"  >
<polygon points="730,85 735,80 758,80 758,90 735,90 730,85 " style="fill:white; stroke-width:1; stroke:black; " description="&lt;b&gt;ALQ78_RS10190&lt;/b&gt;&lt;br&gt;DUF2075 domain-containing protein&lt;br&gt;Location: 127278 - 128747" locus_tag="ALQ78_RS10190" class="clusterblast-orf" id="dummy-2_h2_3_32"  />
</g>
<g id="a2_0033"  >
<polygon points="765,90 775,90 780,85 775,80 765,80 765,90 " style="fill:white; stroke-width:1; stroke:black; " description="&lt;b&gt;ALQ78_RS10195&lt;/b&gt;&lt;br&gt;hypothetical protein&lt;br&gt;Location: 129136 - 129897" locus_tag="ALQ78_RS10195" class="clusterblast-orf" id="dummy-2_h2_3_33"  />
</g>
</svg>
