<svg xmlns="http://www.w3.org/2000/svg" xmlns:xlink="http://www.w3.org/1999/xlink" version="1.1" x="0" y="0" height="230" width="800" viewBox="0 0 800 230" preserveAspectRatio="none"  >
<g label="Query sequence" class="clusterblast-cluster"  >
<text x="5" y="20" class="clusterblast-acc"  >
Query sequence</text>
<line x1="10" y1="35" x2="778.0" y2="35" style="stroke-width:1; stroke:grey; "  />
<polygon points="0,40 4,40 9,35 4,30 0,30 0,40 " style="fill:white; stroke-width:1; stroke:black; " description="&lt;b&gt;ctg11_96&lt;/b&gt;&lt;br&gt;ctg11 96&lt;br&gt;Location: 112815 - 113730" locus_tag="ctg11_96" class="clusterblast-orf" id="dummy-1_q0_0_all"  />
<polygon points="10,35 15,30 17,30 17,40 15,40 10,35 " style="fill:white; stroke-width:1; stroke:black; " description="&lt;b&gt;ctg11_97&lt;/b&gt;&lt;br&gt;ctg11 97&lt;br&gt;Location: 113850 - 114516" locus_tag="ctg11_97" class="clusterblast-orf" id="dummy-1_q1_0_all"  />
<polygon points="17,35 22,30 52,30 52,40 22,40 17,35 " style="fill:white; stroke-width:1; stroke:black; " description="&lt;b&gt;ctg11_98&lt;/b&gt;&lt;br&gt;ctg11 98&lt;br&gt;Location: 114490 - 117874" locus_tag="ctg11_98" class="clusterblast-orf" id="dummy-1_q2_0_all"  />
<polygon points="55,40 63,40 68,35 63,30 55,30 55,40 " style="fill:white; stroke-width:1; stroke:black; " description="&lt;b&gt;ctg11_99&lt;/b&gt;&lt;br&gt;ctg11 99&lt;br&gt;Location: 118176 - 119385" locus_tag="ctg11_99" class="clusterblast-orf" id="dummy-1_q3_0_all"  />
<polygon points="70,40 74,40 79,35 74,30 70,30 70,40 " style="fill:white; stroke-width:1; stroke:black; " description="&lt;b&gt;ctg11_100&lt;/b&gt;&lt;br&gt;ctg11 100&lt;br&gt;Location: 119563 - 120481" locus_tag="ctg11_100" class="clusterblast-orf" id="dummy-1_q4_0_all"  />
<polygon points="79,40 86,40 91,35 86,30 79,30 79,40 " style="fill:white; stroke-width:1; stroke:black; " description="&lt;b&gt;ctg11_101&lt;/b&gt;&lt;br&gt;ctg11 101&lt;br&gt;Location: 120491 - 121652" locus_tag="ctg11_101" class="clusterblast-orf" id="dummy-1_q5_0_all"  />
<polygon points="91,40 94,40 99,35 94,30 91,30 91,40 " style="fill:white; stroke-width:1; stroke:black; " description="&lt;b&gt;ctg11_102&lt;/b&gt;&lt;br&gt;ctg11 102&lt;br&gt;Location: 121648 - 122407" locus_tag="ctg11_102" class="clusterblast-orf" id="dummy-1_q6_0_all"  />
<polygon points="99,40 101,40 106,35 101,30 99,30 99,40 " style="fill:white; stroke-width:1; stroke:black; " description="&lt;b&gt;ctg11_103&lt;/b&gt;&lt;br&gt;ctg11 103&lt;br&gt;Location: 122417 - 123107" locus_tag="ctg11_103" class="clusterblast-orf" id="dummy-1_q7_0_all"  />
<polygon points="108,40 116,40 121,35 116,30 108,30 108,40 " style="fill:white; stroke-width:1; stroke:black; " description="&lt;b&gt;ctg11_104&lt;/b&gt;&lt;br&gt;ctg11 104&lt;br&gt;Location: 123325 - 124555" locus_tag="ctg11_104" class="clusterblast-orf" id="dummy-1_q8_0_all"  />
<polygon points="121,40 125,35 121,30 121,40 " style="fill:white; stroke-width:1; stroke:black; " description="&lt;b&gt;ctg11_105&lt;/b&gt;&lt;br&gt;ctg11 105&lt;br&gt;Location: 124557 - 124905" locus_tag="ctg11_105" class="clusterblast-orf" id="dummy-1_q9_0_all"  />
<polygon points="125,40 131,40 136,35 131,30 125,30 125,40 " style="fill:white; stroke-width:1; stroke:black; " description="&lt;b&gt;ctg11_106&lt;/b&gt;&lt;br&gt;ctg11 106&lt;br&gt;Location: 124920 - 125964" locus_tag="ctg11_106" class="clusterblast-orf" id="dummy-1_q10_0_all"  />
<polygon points="136,40 141,40 146,35 141,30 136,30 136,40 " style="fill:white; stroke-width:1; stroke:black; " description="&lt;b&gt;ctg11_107&lt;/b&gt;&lt;br&gt;ctg11 107&lt;br&gt;Location: 125967 - 126924" locus_tag="ctg11_107" class="clusterblast-orf" id="dummy-1_q11_0_all"  />
<polygon points="146,40 147,40 152,35 147,30 146,30 146,40 " style="fill:white; stroke-width:1; stroke:black; " description="&lt;b&gt;ctg11_108&lt;/b&gt;&lt;br&gt;ctg11 108&lt;br&gt;Location: 126991 - 127564" locus_tag="ctg11_108" class="clusterblast-orf" id="dummy-1_q12_0_all"  />
<polygon points="153,40 162,40 167,35 162,30 153,30 153,40 " style="fill:white; stroke-width:1; stroke:black; " description="&lt;b&gt;ctg11_109&lt;/b&gt;&lt;br&gt;ctg11 109&lt;br&gt;Location: 127589 - 128945" locus_tag="ctg11_109" class="clusterblast-orf" id="dummy-1_q13_0_all"  />
<polygon points="167,35 172,30 173,30 173,40 172,40 167,35 " style="fill:#d81515; stroke-width:1; stroke:black; " description="&lt;b&gt;ctg11_110&lt;/b&gt;&lt;br&gt;ctg11 110&lt;br&gt;Location: 128928 - 129522" locus_tag="ctg11_110" class="clusterblast-orf" id="dummy-1_q14_0_all"  />
<polygon points="174,40 182,40 187,35 182,30 174,30 174,40 " style="fill:#63d815; stroke-width:1; stroke:black; " description="&lt;b&gt;ctg11_111&lt;/b&gt;&lt;br&gt;ctg11 111&lt;br&gt;Location: 129664 - 130855" locus_tag="ctg11_111" class="clusterblast-orf" id="dummy-1_q15_0_all"  />
<polygon points="186,35 190,30 190,40 186,35 " style="fill:#15b1d8; stroke-width:1; stroke:black; " description="&lt;b&gt;ctg11_112&lt;/b&gt;&lt;br&gt;ctg11 112&lt;br&gt;Location: 130837 - 131203" locus_tag="ctg11_112" class="clusterblast-orf" id="dummy-1_q16_0_all"  />
<polygon points="190,35 193,30 193,40 190,35 " style="fill:#b115d8; stroke-width:1; stroke:black; " description="&lt;b&gt;ctg11_113&lt;/b&gt;&lt;br&gt;ctg11 113&lt;br&gt;Location: 131199 - 131451" locus_tag="ctg11_113" class="clusterblast-orf" id="dummy-1_q17_0_all"  />
<polygon points="195,40 335,40 340,35 335,30 195,30 195,40 " style="fill:#d86315; stroke-width:1; stroke:black; " description="&lt;b&gt;ctg11_114&lt;/b&gt;&lt;br&gt;ctg11 114&lt;br&gt;Location: 131660 - 145715" locus_tag="ctg11_114" class="clusterblast-orf" id="dummy-1_q18_0_all"  />
<polygon points="340,40 458,40 463,35 458,30 340,30 340,40 " style="fill:#d86315; stroke-width:1; stroke:black; " description="&lt;b&gt;ctg11_115&lt;/b&gt;&lt;br&gt;ctg11 115&lt;br&gt;Location: 145718 - 157571" locus_tag="ctg11_115" class="clusterblast-orf" id="dummy-1_q19_0_all"  />
<polygon points="465,35 470,30 490,30 490,40 470,40 465,35 " style="fill:#15d815; stroke-width:1; stroke:black; " description="&lt;b&gt;ctg11_116&lt;/b&gt;&lt;br&gt;ctg11 116&lt;br&gt;Location: 157715 - 160157" locus_tag="ctg11_116" class="clusterblast-orf" id="dummy-1_q20_0_all"  />
<polygon points="491,35 496,30 508,30 508,40 496,40 491,35 " style="fill:#1563d8; stroke-width:1; stroke:black; " description="&lt;b&gt;ctg11_117&lt;/b&gt;&lt;br&gt;ctg11 117&lt;br&gt;Location: 160266 - 161919" locus_tag="ctg11_117" class="clusterblast-orf" id="dummy-1_q21_0_all"  />
<polygon points="510,40 514,40 519,35 514,30 510,30 510,40 " style="fill:#d815b1; stroke-width:1; stroke:black; " description="&lt;b&gt;ctg11_118&lt;/b&gt;&lt;br&gt;ctg11 118&lt;br&gt;Location: 162117 - 162945" locus_tag="ctg11_118" class="clusterblast-orf" id="dummy-1_q22_0_all"  />
<polygon points="520,35 525,30 529,30 529,40 525,40 520,35 " style="fill:#d8b115; stroke-width:1; stroke:black; " description="&lt;b&gt;ctg11_119&lt;/b&gt;&lt;br&gt;ctg11 119&lt;br&gt;Location: 163087 - 163960" locus_tag="ctg11_119" class="clusterblast-orf" id="dummy-1_q23_0_all"  />
<polygon points="530,35 535,30 543,30 543,40 535,40 530,35 " style="fill:#15d863; stroke-width:1; stroke:black; " description="&lt;b&gt;ctg11_120&lt;/b&gt;&lt;br&gt;ctg11 120&lt;br&gt;Location: 163993 - 165274" locus_tag="ctg11_120" class="clusterblast-orf" id="dummy-1_q24_0_all"  />
<polygon points="543,35 548,30 557,30 557,40 548,40 543,35 " style="fill:#1515d8; stroke-width:1; stroke:black; " description="&lt;b&gt;ctg11_121&lt;/b&gt;&lt;br&gt;ctg11 121&lt;br&gt;Location: 165292 - 166642" locus_tag="ctg11_121" class="clusterblast-orf" id="dummy-1_q25_0_all"  />
<polygon points="559,40 571,40 576,35 571,30 559,30 559,40 " style="fill:#d81563; stroke-width:1; stroke:black; " description="&lt;b&gt;ctg11_122&lt;/b&gt;&lt;br&gt;ctg11 122&lt;br&gt;Location: 166784 - 168404" locus_tag="ctg11_122" class="clusterblast-orf" id="dummy-1_q26_0_all"  />
<polygon points="575,35 580,30 585,30 585,40 580,40 575,35 " style="fill:white; stroke-width:1; stroke:black; " description="&lt;b&gt;ctg11_123&lt;/b&gt;&lt;br&gt;ctg11 123&lt;br&gt;Location: 168396 - 169344" locus_tag="ctg11_123" class="clusterblast-orf" id="dummy-1_q27_0_all"  />
<polygon points="587,40 591,40 596,35 591,30 587,30 587,40 " style="fill:white; stroke-width:1; stroke:black; " description="&lt;b&gt;ctg11_124&lt;/b&gt;&lt;br&gt;ctg11 124&lt;br&gt;Location: 169487 - 170378" locus_tag="ctg11_124" class="clusterblast-orf" id="dummy-1_q28_0_all"  />
<polygon points="596,40 601,40 606,35 601,30 596,30 596,40 " style="fill:white; stroke-width:1; stroke:black; " description="&lt;b&gt;ctg11_125&lt;/b&gt;&lt;br&gt;ctg11 125&lt;br&gt;Location: 170377 - 171349" locus_tag="ctg11_125" class="clusterblast-orf" id="dummy-1_q29_0_all"  />
<polygon points="606,40 610,40 615,35 610,30 606,30 606,40 " style="fill:white; stroke-width:1; stroke:black; " description="&lt;b&gt;ctg11_126&lt;/b&gt;&lt;br&gt;ctg11 126&lt;br&gt;Location: 171345 - 172215" locus_tag="ctg11_126" class="clusterblast-orf" id="dummy-1_q30_0_all"  />
<polygon points="615,40 618,35 615,30 615,40 " style="fill:white; stroke-width:1; stroke:black; " description="&lt;b&gt;ctg11_127&lt;/b&gt;&lt;br&gt;ctg11 127&lt;br&gt;Location: 172229 - 172490" locus_tag="ctg11_127" class="clusterblast-orf" id="dummy-1_q31_0_all"  />
<polygon points="618,40 621,40 626,35 621,30 618,30 618,40 " style="fill:white; stroke-width:1; stroke:black; " description="&lt;b&gt;ctg11_128&lt;/b&gt;&lt;br&gt;ctg11 128&lt;br&gt;Location: 172486 - 173317" locus_tag="ctg11_128" class="clusterblast-orf" id="dummy-1_q32_0_all"  />
<polygon points="627,40 649,40 654,35 649,30 627,30 627,40 " style="fill:white; stroke-width:1; stroke:black; " description="&lt;b&gt;ctg11_129&lt;/b&gt;&lt;br&gt;ctg11 129&lt;br&gt;Location: 173330 - 175988" locus_tag="ctg11_129" class="clusterblast-orf" id="dummy-1_q33_0_all"  />
<polygon points="658,40 661,40 666,35 661,30 658,30 658,40 " style="fill:white; stroke-width:1; stroke:black; " description="&lt;b&gt;ctg11_130&lt;/b&gt;&lt;br&gt;ctg11 130&lt;br&gt;Location: 176389 - 177106" locus_tag="ctg11_130" class="clusterblast-orf" id="dummy-1_q34_0_all"  />
<polygon points="666,40 670,35 666,30 666,40 " style="fill:white; stroke-width:1; stroke:black; " description="&lt;b&gt;ctg11_131&lt;/b&gt;&lt;br&gt;ctg11 131&lt;br&gt;Location: 177158 - 177494" locus_tag="ctg11_131" class="clusterblast-orf" id="dummy-1_q35_0_all"  />
<polygon points="670,40 676,40 681,35 676,30 670,30 670,40 " style="fill:white; stroke-width:1; stroke:black; " description="&lt;b&gt;ctg11_132&lt;/b&gt;&lt;br&gt;ctg11 132&lt;br&gt;Location: 177509 - 178616" locus_tag="ctg11_132" class="clusterblast-orf" id="dummy-1_q36_0_all"  />
<polygon points="683,40 683,40 688,35 683,30 683,30 683,40 " style="fill:white; stroke-width:1; stroke:black; " description="&lt;b&gt;ctg11_133&lt;/b&gt;&lt;br&gt;ctg11 133&lt;br&gt;Location: 178778 - 179270" locus_tag="ctg11_133" class="clusterblast-orf" id="dummy-1_q37_0_all"  />
<polygon points="689,35 691,30 691,40 689,35 " style="fill:white; stroke-width:1; stroke:black; " description="&lt;b&gt;ctg11_134&lt;/b&gt;&lt;br&gt;ctg11 134&lt;br&gt;Location: 179371 - 179593" locus_tag="ctg11_134" class="clusterblast-orf" id="dummy-1_q38_0_all"  />
<polygon points="693,35 698,30 716,30 716,40 698,40 693,35 " style="fill:white; stroke-width:1; stroke:black; " description="&lt;b&gt;ctg11_135&lt;/b&gt;&lt;br&gt;ctg11 135&lt;br&gt;Location: 179734 - 181963" locus_tag="ctg11_135" class="clusterblast-orf" id="dummy-1_q39_0_all"  />
<polygon points="717,35 722,30 736,30 736,40 722,40 717,35 " style="fill:white; stroke-width:1; stroke:black; " description="&lt;b&gt;ctg11_136&lt;/b&gt;&lt;br&gt;ctg11 136&lt;br&gt;Location: 182089 - 183898" locus_tag="ctg11_136" class="clusterblast-orf" id="dummy-1_q40_0_all"  />
<polygon points="737,35 739,30 739,40 737,35 " style="fill:#b1d815; stroke-width:1; stroke:black; " description="&lt;b&gt;ctg11_137&lt;/b&gt;&lt;br&gt;ctg11 137&lt;br&gt;Location: 183996 - 184173" locus_tag="ctg11_137" class="clusterblast-orf" id="dummy-1_q41_0_all"  />
<polygon points="742,40 747,40 752,35 747,30 742,30 742,40 " style="fill:#15d8b1; stroke-width:1; stroke:black; " description="&lt;b&gt;ctg11_138&lt;/b&gt;&lt;br&gt;ctg11 138&lt;br&gt;Location: 184442 - 185426" locus_tag="ctg11_138" class="clusterblast-orf" id="dummy-1_q42_0_all"  />
<polygon points="752,40 763,40 768,35 763,30 752,30 752,40 " style="fill:#6315d8; stroke-width:1; stroke:black; " description="&lt;b&gt;ctg11_139&lt;/b&gt;&lt;br&gt;ctg11 139&lt;br&gt;Location: 185422 - 186946" locus_tag="ctg11_139" class="clusterblast-orf" id="dummy-1_q43_0_all"  />
<polygon points="768,40 771,40 776,35 771,30 768,30 768,40 " style="fill:white; stroke-width:1; stroke:black; " description="&lt;b&gt;ctg11_140&lt;/b&gt;&lt;br&gt;ctg11 140&lt;br&gt;Location: 186942 - 187767" locus_tag="ctg11_140" class="clusterblast-orf" id="dummy-1_q44_0_all"  />
<polygon points="777,35 780,30 780,40 777,35 " style="fill:white; stroke-width:1; stroke:black; " description="&lt;b&gt;ctg11_141&lt;/b&gt;&lt;br&gt;ctg11 141&lt;br&gt;Location: 187842 - 188103" locus_tag="ctg11_141" class="clusterblast-orf" id="dummy-1_q45_0_all"  />
</g>
<g label="BGC0001189" description="BGC0001189_c1: taiwachelin (11% of genes show similarity), NRP" class="clusterblast-cluster"  >
<text x="5" y="70" class="clusterblast-acc"  >
<a xlink:href="https://mibig.secondarymetabolites.org/go/BGC0001189/1" target="_blank">BGC0001189</a>: taiwachelin                                                                      (11% of genes show similarity), NRP</text>
<line x1="10" y1="85" x2="778.0" y2="85" style="stroke-width:1; stroke:grey; "  />
</g>
<g id="a1_000"  >
<polygon points="172,90 172,90 177,85 172,80 172,80 172,90 " style="fill:white; stroke-width:1; stroke:black; " description="&lt;b&gt;RALTA_B1222&lt;/b&gt;&lt;br&gt;putative cyclase/dehydrase; putatively involved in polyketide (linear poly-beta-ketones) synthesis; antibiotic biosynthesis&lt;br&gt;Location: 1 - 417" locus_tag="RALTA_B1222" class="clusterblast-orf" id="dummy-1_h1_7_0"  />
</g>
<g id="a1_001"  >
<polygon points="179,90 181,85 179,80 179,90 " style="fill:white; stroke-width:1; stroke:black; " description="&lt;b&gt;RALTA_B1223&lt;/b&gt;&lt;br&gt;conserved hypothetical protein, mbtH-like&lt;br&gt;Location: 634 - 855" locus_tag="RALTA_B1223" class="clusterblast-orf" id="dummy-1_h1_7_1"  />
</g>
<g id="a1_002"  >
<polygon points="181,90 184,90 189,85 184,80 181,80 181,90 " style="fill:white; stroke-width:1; stroke:black; " description="&lt;b&gt;RALTA_B1224&lt;/b&gt;&lt;br&gt;Linear gramicidin dehydrogenase, type II thioesterase&lt;br&gt;Location: 858 - 1592" locus_tag="RALTA_B1224" class="clusterblast-orf" id="dummy-1_h1_7_2"  />
</g>
<g id="a1_003"  >
<polygon points="189,90 231,90 236,85 231,80 189,80 189,90 " style="fill:white; stroke-width:1; stroke:black; " description="&lt;b&gt;RALTA_B1225&lt;/b&gt;&lt;br&gt;non ribosomal peptide synthase, antibiotic synthesis; contains 1 condensation domain, 1 AMP-acid ligases II domain, PP-binding, Phosphopantetheine attachment site and one taurine catabolism dioxygenase&lt;br&gt;Location: 1649 - 6169" locus_tag="RALTA_B1225" class="clusterblast-orf" id="dummy-1_h1_7_3"  />
</g>
<g id="a1_004"  >
<polygon points="236,90 264,90 269,85 264,80 236,80 236,90 " style="fill:white; stroke-width:1; stroke:black; " description="&lt;b&gt;RALTA_B1226&lt;/b&gt;&lt;br&gt;non ribosomal peptide synthase, antibiotic synthesis; contains 1 condensation domain, 1 AMP-acid ligases II domain&lt;br&gt;Location: 6174 - 9353" locus_tag="RALTA_B1226" class="clusterblast-orf" id="dummy-1_h1_7_4"  />
</g>
<g id="a1_005"  >
<polygon points="269,90 345,90 350,85 345,80 269,80 269,90 " style="fill:#d86315; stroke-width:1; stroke:black; " description="&lt;b&gt;RALTA_B1227&lt;/b&gt;&lt;br&gt;non ribosomal peptide synthase, antibiotic synthesis; contains 3 condensation domains, 2 AMP-acid ligases II domains, 2 PP-binding, Phosphopantetheine attachment site&lt;br&gt;Location: 9378 - 17168&lt;br&gt;&lt;br&gt;&lt;b&gt;BlastP hit with ctg11_114&lt;/b&gt;&lt;br&gt;Percentage identity: 46&lt;br&gt;Percentage coverage: 56&lt;br&gt;BLAST bit score: 1912&lt;br&gt;E-value: 0.0" locus_tag="RALTA_B1227" class="clusterblast-orf" id="dummy-1_h1_7_5"  />
</g>
<g id="a1_006"  >
<polygon points="350,90 468,90 473,85 468,80 350,80 350,90 " style="fill:#d86315; stroke-width:1; stroke:black; " description="&lt;b&gt;RALTA_B1228&lt;/b&gt;&lt;br&gt;non ribosomal peptide synthase, antibiotic synthesis; contains 4 condensation domains, 3 AMP-acid ligases II domains, 3 PP-binding, Phosphopantetheine attachment site and a putative thioesterase domain&lt;br&gt;Location: 17169 - 29036&lt;br&gt;&lt;br&gt;&lt;b&gt;BlastP hit with ctg11_115&lt;/b&gt;&lt;br&gt;Percentage identity: 53&lt;br&gt;Percentage coverage: 65&lt;br&gt;BLAST bit score: 2423&lt;br&gt;E-value: 0.0" locus_tag="RALTA_B1228" class="clusterblast-orf" id="dummy-1_h1_7_6"  />
</g>
<g id="a1_007"  >
<polygon points="474,90 492,90 497,85 492,80 474,80 474,90 " style="fill:white; stroke-width:1; stroke:black; " description="&lt;b&gt;RALTA_B1229&lt;/b&gt;&lt;br&gt;TonB-dependent siderophore receptor, HYDROXAMATE-TYPE FERRISIDEROPHORE RECEPTOR precursor&lt;br&gt;Location: 29126 - 31342" locus_tag="RALTA_B1229" class="clusterblast-orf" id="dummy-1_h1_7_7"  />
</g>
<g id="a1_008"  >
<polygon points="498,90 505,90 510,85 505,80 498,80 498,90 " style="fill:white; stroke-width:1; stroke:black; " description="&lt;b&gt;RALTA_B1230&lt;/b&gt;&lt;br&gt;conserved hypothetical protein; putative Membrane protein; DUF337,Uncharacterized iron-regulated membrane protein&lt;br&gt;Location: 31421 - 32599" locus_tag="RALTA_B1230" class="clusterblast-orf" id="dummy-1_h1_7_8"  />
</g>
<g id="a1_009"  >
<polygon points="510,90 512,85 510,80 510,90 " style="fill:white; stroke-width:1; stroke:black; " description="&lt;b&gt;RALTA_B1231&lt;/b&gt;&lt;br&gt;hypothetical protein; putative exported protein&lt;br&gt;Location: 32596 - 32790" locus_tag="RALTA_B1231" class="clusterblast-orf" id="dummy-1_h1_7_9"  />
</g>
<g id="a1_0010"  >
<polygon points="511,85 516,80 520,80 520,90 516,90 511,85 " style="fill:white; stroke-width:1; stroke:black; " description="&lt;b&gt;RALTA_B1232&lt;/b&gt;&lt;br&gt;putative reductase; Uncharacterized Fe-S protein&lt;br&gt;Location: 32732 - 33523" locus_tag="RALTA_B1232" class="clusterblast-orf" id="dummy-1_h1_7_10"  />
</g>
<g id="a1_0011"  >
<polygon points="524,85 529,80 532,80 532,90 529,90 524,85 " style="fill:white; stroke-width:1; stroke:black; " description="&lt;b&gt;RALTA_B1233&lt;/b&gt;&lt;br&gt;Transposase fragment, IS1111 family&lt;br&gt;Location: 33971 - 34705" locus_tag="RALTA_B1233" class="clusterblast-orf" id="dummy-1_h1_7_11"  />
</g>
<g id="a1_0012"  >
<polygon points="537,90 549,90 554,85 549,80 537,80 537,90 " style="fill:white; stroke-width:1; stroke:black; " description="&lt;b&gt;RALTA_B1234&lt;/b&gt;&lt;br&gt;ABC transporter ATP-binding protein, putative ABC-type siderophore export system&lt;br&gt;Location: 35229 - 36869" locus_tag="RALTA_B1234" class="clusterblast-orf" id="dummy-1_h1_7_12"  />
</g>
<g id="a1_0013"  >
<polygon points="554,90 560,90 565,85 560,80 554,80 554,90 " style="fill:white; stroke-width:1; stroke:black; " description="&lt;b&gt;RALTA_B1235&lt;/b&gt;&lt;br&gt;putative ESTERASE/LIPASE PROTEIN&lt;br&gt;Location: 36866 - 37921" locus_tag="RALTA_B1235" class="clusterblast-orf" id="dummy-1_h1_7_13"  />
</g>
<g id="a1_0014"  >
<polygon points="566,90 572,90 577,85 572,80 566,80 566,90 " style="fill:white; stroke-width:1; stroke:black; " description="&lt;b&gt;RALTA_B1236&lt;/b&gt;&lt;br&gt;siderophore biosynthesis protein, putative acetyltransferase&lt;br&gt;Location: 37983 - 39065" locus_tag="RALTA_B1236" class="clusterblast-orf" id="dummy-1_h1_7_14"  />
</g>
<g id="a1_0015"  >
<polygon points="577,90 586,90 591,85 586,80 577,80 577,90 " style="fill:white; stroke-width:1; stroke:black; " description="&lt;b&gt;RALTA_B1237&lt;/b&gt;&lt;br&gt;L-ornithine 5-monooxygenase(L-ornithine N5-oxygenase) L-lysine 6-monooxygenase (Lysine N(6)-hydroxylase); Siderophore biosynthesis protein&lt;br&gt;Location: 39062 - 40420" locus_tag="RALTA_B1237" class="clusterblast-orf" id="dummy-1_h1_7_15"  />
</g>
<g id="a1_0016"  >
<polygon points="591,85 596,80 599,80 599,90 596,90 591,85 " style="fill:white; stroke-width:1; stroke:black; " description="&lt;b&gt;RALTA_B1238&lt;/b&gt;&lt;br&gt;4'-phosphopantetheinyl transferase&lt;br&gt;Location: 40384 - 41172" locus_tag="RALTA_B1238" class="clusterblast-orf" id="dummy-1_h1_7_16"  />
</g>
<g id="a1_0017"  >
<polygon points="601,90 602,90 607,85 602,80 601,80 601,90 " style="fill:white; stroke-width:1; stroke:black; " description="&lt;b&gt;RALTA_B1239&lt;/b&gt;&lt;br&gt;RNA polymerase sigma factor&lt;br&gt;Location: 41352 - 41930" locus_tag="RALTA_B1239" class="clusterblast-orf" id="dummy-1_h1_7_17"  />
</g>
</svg>
