<svg xmlns="http://www.w3.org/2000/svg" xmlns:xlink="http://www.w3.org/1999/xlink" version="1.1" x="0" y="0" height="50" width="800" viewBox="0 0 800 50" preserveAspectRatio="none"  >
<g label="Query sequence" class="clusterblast-cluster"  >
<text x="5" y="20" class="clusterblast-acc"  >
Query sequence</text>
<line x1="10" y1="35" x2="778.0" y2="35" style="stroke-width:1; stroke:grey; "  />
<polygon points="0,40 54,40 59,35 54,30 0,30 0,40 " style="fill:white; stroke-width:1; stroke:black; " description="&lt;b&gt;ctg1_546&lt;/b&gt;&lt;br&gt;ctg1 546&lt;br&gt;Location: 581689 - 582979" locus_tag="ctg1_546" class="clusterblast-orf" id="subclusterblast-2_q0_0_all"  />
<polygon points="64,40 140,40 145,35 140,30 64,30 64,40 " style="fill:white; stroke-width:1; stroke:black; " description="&lt;b&gt;ctg1_547&lt;/b&gt;&lt;br&gt;ctg1 547&lt;br&gt;Location: 583069 - 584842" locus_tag="ctg1_547" class="clusterblast-orf" id="subclusterblast-2_q1_0_all"  />
<polygon points="151,40 228,40 233,35 228,30 151,30 151,40 " style="fill:white; stroke-width:1; stroke:black; " description="&lt;b&gt;ctg1_548&lt;/b&gt;&lt;br&gt;ctg1 548&lt;br&gt;Location: 584961 - 586740" locus_tag="ctg1_548" class="clusterblast-orf" id="subclusterblast-2_q2_0_all"  />
<polygon points="243,35 248,30 285,30 285,40 248,40 243,35 " style="fill:white; stroke-width:1; stroke:black; " description="&lt;b&gt;ctg1_549&lt;/b&gt;&lt;br&gt;ctg1 549&lt;br&gt;Location: 586966 - 587866" locus_tag="ctg1_549" class="clusterblast-orf" id="subclusterblast-2_q3_0_all"  />
<polygon points="295,40 348,40 353,35 348,30 295,30 295,40 " style="fill:white; stroke-width:1; stroke:black; " description="&lt;b&gt;ctg1_550&lt;/b&gt;&lt;br&gt;ctg1 550&lt;br&gt;Location: 588075 - 589335" locus_tag="ctg1_550" class="clusterblast-orf" id="subclusterblast-2_q4_0_all"  />
<polygon points="361,40 364,40 369,35 364,30 361,30 361,40 " style="fill:white; stroke-width:1; stroke:black; " description="&lt;b&gt;ctg1_551&lt;/b&gt;&lt;br&gt;ctg1 551&lt;br&gt;Location: 589517 - 589676" locus_tag="ctg1_551" class="clusterblast-orf" id="subclusterblast-2_q5_0_all"  />
<polygon points="369,35 374,30 422,30 422,40 374,40 369,35 " style="fill:white; stroke-width:1; stroke:black; " description="&lt;b&gt;ctg1_552&lt;/b&gt;&lt;br&gt;ctg1 552&lt;br&gt;Location: 589681 - 590833" locus_tag="ctg1_552" class="clusterblast-orf" id="subclusterblast-2_q6_0_all"  />
<polygon points="421,35 426,30 433,30 433,40 426,40 421,35 " style="fill:white; stroke-width:1; stroke:black; " description="&lt;b&gt;ctg1_553&lt;/b&gt;&lt;br&gt;ctg1 553&lt;br&gt;Location: 590804 - 591080" locus_tag="ctg1_553" class="clusterblast-orf" id="subclusterblast-2_q7_0_all"  />
<polygon points="433,35 438,30 468,30 468,40 438,40 433,35 " style="fill:white; stroke-width:1; stroke:black; " description="&lt;b&gt;ctg1_554&lt;/b&gt;&lt;br&gt;ctg1 554&lt;br&gt;Location: 591076 - 591829" locus_tag="ctg1_554" class="clusterblast-orf" id="subclusterblast-2_q8_0_all"  />
<polygon points="468,35 473,30 510,30 510,40 473,40 468,35 " style="fill:white; stroke-width:1; stroke:black; " description="&lt;b&gt;ctg1_555&lt;/b&gt;&lt;br&gt;ctg1 555&lt;br&gt;Location: 591840 - 592752" locus_tag="ctg1_555" class="clusterblast-orf" id="subclusterblast-2_q9_0_all"  />
<polygon points="514,35 519,30 519,30 519,40 519,40 514,35 " style="fill:white; stroke-width:1; stroke:black; " description="&lt;b&gt;ctg1_556&lt;/b&gt;&lt;br&gt;ctg1 556&lt;br&gt;Location: 592823 - 592946" locus_tag="ctg1_556" class="clusterblast-orf" id="subclusterblast-2_q10_0_all"  />
<polygon points="524,35 529,30 634,30 634,40 529,40 524,35 " style="fill:white; stroke-width:1; stroke:black; " description="&lt;b&gt;ctg1_557&lt;/b&gt;&lt;br&gt;ctg1 557&lt;br&gt;Location: 593056 - 595432" locus_tag="ctg1_557" class="clusterblast-orf" id="subclusterblast-2_q11_0_all"  />
<polygon points="637,35 642,30 674,30 674,40 642,40 637,35 " style="fill:white; stroke-width:1; stroke:black; " description="&lt;b&gt;ctg1_558&lt;/b&gt;&lt;br&gt;ctg1 558&lt;br&gt;Location: 595491 - 596286" locus_tag="ctg1_558" class="clusterblast-orf" id="subclusterblast-2_q12_0_all"  />
<polygon points="674,35 679,30 753,30 753,40 679,40 674,35 " style="fill:white; stroke-width:1; stroke:black; " description="&lt;b&gt;ctg1_559&lt;/b&gt;&lt;br&gt;ctg1 559&lt;br&gt;Location: 596296 - 598000" locus_tag="ctg1_559" class="clusterblast-orf" id="subclusterblast-2_q13_0_all"  />
<polygon points="759,35 764,30 780,30 780,40 764,40 759,35 " style="fill:white; stroke-width:1; stroke:black; " description="&lt;b&gt;ctg1_560&lt;/b&gt;&lt;br&gt;ctg1 560&lt;br&gt;Location: 598146 - 598593" locus_tag="ctg1_560" class="clusterblast-orf" id="subclusterblast-2_q14_0_all"  />
</g>
</svg>
