<svg xmlns="http://www.w3.org/2000/svg" xmlns:xlink="http://www.w3.org/1999/xlink" version="1.1" x="0" y="0" height="50" width="800" viewBox="0 0 800 50" preserveAspectRatio="none"  >
<g label="Query sequence" class="clusterblast-cluster"  >
<text x="5" y="20" class="clusterblast-acc"  >
Query sequence</text>
<line x1="10" y1="35" x2="778.0" y2="35" style="stroke-width:1; stroke:grey; "  />
<polygon points="0,40 61,40 66,35 61,30 0,30 0,40 " style="fill:white; stroke-width:1; stroke:black; " description="&lt;b&gt;ctg26_33&lt;/b&gt;&lt;br&gt;ctg26 33&lt;br&gt;Location: 34458 - 35226" locus_tag="ctg26_33" class="clusterblast-orf" id="subclusterblast-1_q0_0_all"  />
<polygon points="66,40 122,40 127,35 122,30 66,30 66,40 " style="fill:white; stroke-width:1; stroke:black; " description="&lt;b&gt;ctg26_34&lt;/b&gt;&lt;br&gt;ctg26 34&lt;br&gt;Location: 35227 - 35929" locus_tag="ctg26_34" class="clusterblast-orf" id="subclusterblast-1_q1_0_all"  />
<polygon points="131,35 136,30 242,30 242,40 136,40 131,35 " style="fill:white; stroke-width:1; stroke:black; " description="&lt;b&gt;ctg26_35&lt;/b&gt;&lt;br&gt;ctg26 35&lt;br&gt;Location: 35980 - 37273" locus_tag="ctg26_35" class="clusterblast-orf" id="subclusterblast-1_q2_0_all"  />
<polygon points="243,35 248,30 327,30 327,40 248,40 243,35 " style="fill:white; stroke-width:1; stroke:black; " description="&lt;b&gt;ctg26_36&lt;/b&gt;&lt;br&gt;ctg26 36&lt;br&gt;Location: 37285 - 38263" locus_tag="ctg26_36" class="clusterblast-orf" id="subclusterblast-1_q3_0_all"  />
<polygon points="365,40 386,40 391,35 386,30 365,30 365,40 " style="fill:white; stroke-width:1; stroke:black; " description="&lt;b&gt;ctg26_37&lt;/b&gt;&lt;br&gt;ctg26 37&lt;br&gt;Location: 38704 - 39010" locus_tag="ctg26_37" class="clusterblast-orf" id="subclusterblast-1_q4_0_all"  />
<polygon points="393,40 464,40 469,35 464,30 393,30 393,40 " style="fill:white; stroke-width:1; stroke:black; " description="&lt;b&gt;ctg26_38&lt;/b&gt;&lt;br&gt;ctg26 38&lt;br&gt;Location: 39033 - 39915" locus_tag="ctg26_38" class="clusterblast-orf" id="subclusterblast-1_q5_0_all"  />
<polygon points="468,40 530,40 535,35 530,30 468,30 468,40 " style="fill:white; stroke-width:1; stroke:black; " description="&lt;b&gt;ctg26_39&lt;/b&gt;&lt;br&gt;ctg26 39&lt;br&gt;Location: 39911 - 40688" locus_tag="ctg26_39" class="clusterblast-orf" id="subclusterblast-1_q6_0_all"  />
<polygon points="535,40 571,40 576,35 571,30 535,30 535,40 " style="fill:white; stroke-width:1; stroke:black; " description="&lt;b&gt;ctg26_40&lt;/b&gt;&lt;br&gt;ctg26 40&lt;br&gt;Location: 40684 - 41170" locus_tag="ctg26_40" class="clusterblast-orf" id="subclusterblast-1_q7_0_all"  />
<polygon points="576,35 581,30 654,30 654,40 581,40 576,35 " style="fill:white; stroke-width:1; stroke:black; " description="&lt;b&gt;ctg26_41&lt;/b&gt;&lt;br&gt;ctg26 41&lt;br&gt;Location: 41166 - 42075" locus_tag="ctg26_41" class="clusterblast-orf" id="subclusterblast-1_q8_0_all"  />
<polygon points="663,40 709,40 714,35 709,30 663,30 663,40 " style="fill:white; stroke-width:1; stroke:black; " description="&lt;b&gt;ctg26_42&lt;/b&gt;&lt;br&gt;ctg26 42&lt;br&gt;Location: 42178 - 42778" locus_tag="ctg26_42" class="clusterblast-orf" id="subclusterblast-1_q9_0_all"  />
<polygon points="723,40 775,40 780,35 775,30 723,30 723,40 " style="fill:white; stroke-width:1; stroke:black; " description="&lt;b&gt;ctg26_43&lt;/b&gt;&lt;br&gt;ctg26 43&lt;br&gt;Location: 42875 - 43547" locus_tag="ctg26_43" class="clusterblast-orf" id="subclusterblast-1_q10_0_all"  />
</g>
</svg>
