<svg xmlns="http://www.w3.org/2000/svg" xmlns:xlink="http://www.w3.org/1999/xlink" version="1.1" x="0" y="0" height="230" width="800" viewBox="0 0 800 230" preserveAspectRatio="none"  >
<g label="Query sequence" class="clusterblast-cluster"  >
<text x="5" y="20" class="clusterblast-acc"  >
Query sequence</text>
<line x1="10" y1="35" x2="778.0" y2="35" style="stroke-width:1; stroke:grey; "  />
<polygon points="0,40 24,40 29,35 24,30 0,30 0,40 " style="fill:#d81515; stroke-width:1; stroke:black; " description="&lt;b&gt;ctg5_225&lt;/b&gt;&lt;br&gt;ctg5 225&lt;br&gt;Location: 279861 - 281325" locus_tag="ctg5_225" class="clusterblast-orf" id="dummy-1_q0_0_all"  />
<polygon points="29,35 34,30 37,30 37,40 34,40 29,35 " style="fill:#77d815; stroke-width:1; stroke:black; " description="&lt;b&gt;ctg5_226&lt;/b&gt;&lt;br&gt;ctg5 226&lt;br&gt;Location: 281330 - 281732" locus_tag="ctg5_226" class="clusterblast-orf" id="dummy-1_q1_0_all"  />
<polygon points="37,35 42,30 43,30 43,40 42,40 37,35 " style="fill:#15d8d8; stroke-width:1; stroke:black; " description="&lt;b&gt;ctg5_227&lt;/b&gt;&lt;br&gt;ctg5 227&lt;br&gt;Location: 281728 - 282025" locus_tag="ctg5_227" class="clusterblast-orf" id="dummy-1_q2_0_all"  />
<polygon points="47,40 51,40 56,35 51,30 47,30 47,40 " style="fill:#7715d8; stroke-width:1; stroke:black; " description="&lt;b&gt;ctg5_228&lt;/b&gt;&lt;br&gt;ctg5 228&lt;br&gt;Location: 282260 - 282695" locus_tag="ctg5_228" class="clusterblast-orf" id="dummy-1_q3_0_all"  />
<polygon points="58,35 63,30 63,30 63,40 63,40 58,35 " style="fill:#d83615; stroke-width:1; stroke:black; " description="&lt;b&gt;ctg5_229&lt;/b&gt;&lt;br&gt;ctg5 229&lt;br&gt;Location: 282826 - 283054" locus_tag="ctg5_229" class="clusterblast-orf" id="dummy-1_q4_0_all"  />
<polygon points="72,35 77,30 88,30 88,40 77,40 72,35 " style="fill:#56d815; stroke-width:1; stroke:black; " description="&lt;b&gt;ctg5_230&lt;/b&gt;&lt;br&gt;ctg5 230&lt;br&gt;Location: 283531 - 284302" locus_tag="ctg5_230" class="clusterblast-orf" id="dummy-1_q5_0_all"  />
<polygon points="96,40 104,40 109,35 104,30 96,30 96,40 " style="fill:#15b8d8; stroke-width:1; stroke:black; " description="&lt;b&gt;ctg5_231&lt;/b&gt;&lt;br&gt;ctg5 231&lt;br&gt;Location: 284730 - 285360" locus_tag="ctg5_231" class="clusterblast-orf" id="dummy-1_q6_0_all"  />
<polygon points="108,40 119,40 124,35 119,30 108,30 108,40 " style="fill:#9715d8; stroke-width:1; stroke:black; " description="&lt;b&gt;ctg5_232&lt;/b&gt;&lt;br&gt;ctg5 232&lt;br&gt;Location: 285335 - 286148" locus_tag="ctg5_232" class="clusterblast-orf" id="dummy-1_q7_0_all"  />
<polygon points="124,40 124,40 129,35 124,30 124,30 124,40 " style="fill:#d85615; stroke-width:1; stroke:black; " description="&lt;b&gt;ctg5_233&lt;/b&gt;&lt;br&gt;ctg5 233&lt;br&gt;Location: 286125 - 286395" locus_tag="ctg5_233" class="clusterblast-orf" id="dummy-1_q8_0_all"  />
<polygon points="129,40 129,40 134,35 129,30 129,30 129,40 " style="fill:#36d815; stroke-width:1; stroke:black; " description="&lt;b&gt;ctg5_234&lt;/b&gt;&lt;br&gt;ctg5 234&lt;br&gt;Location: 286404 - 286659" locus_tag="ctg5_234" class="clusterblast-orf" id="dummy-1_q9_0_all"  />
<polygon points="134,40 140,40 145,35 140,30 134,30 134,40 " style="fill:#1597d8; stroke-width:1; stroke:black; " description="&lt;b&gt;ctg5_235&lt;/b&gt;&lt;br&gt;ctg5 235&lt;br&gt;Location: 286655 - 287201" locus_tag="ctg5_235" class="clusterblast-orf" id="dummy-1_q10_0_all"  />
<polygon points="145,40 173,40 178,35 173,30 145,30 145,40 " style="fill:#b815d8; stroke-width:1; stroke:black; " description="&lt;b&gt;ctg5_236&lt;/b&gt;&lt;br&gt;ctg5 236&lt;br&gt;Location: 287197 - 288868" locus_tag="ctg5_236" class="clusterblast-orf" id="dummy-1_q11_0_all"  />
<polygon points="178,40 187,40 192,35 187,30 178,30 178,40 " style="fill:#b815d8; stroke-width:1; stroke:black; " description="&lt;b&gt;ctg5_237&lt;/b&gt;&lt;br&gt;ctg5 237&lt;br&gt;Location: 288860 - 289595" locus_tag="ctg5_237" class="clusterblast-orf" id="dummy-1_q12_0_all"  />
<polygon points="192,40 206,40 211,35 206,30 192,30 192,40 " style="fill:#d87715; stroke-width:1; stroke:black; " description="&lt;b&gt;ctg5_238&lt;/b&gt;&lt;br&gt;ctg5 238&lt;br&gt;Location: 289591 - 290527" locus_tag="ctg5_238" class="clusterblast-orf" id="dummy-1_q13_0_all"  />
<polygon points="211,40 236,40 241,35 236,30 211,30 211,40 " style="fill:#15d815; stroke-width:1; stroke:black; " description="&lt;b&gt;ctg5_239&lt;/b&gt;&lt;br&gt;ctg5 239&lt;br&gt;Location: 290510 - 292052" locus_tag="ctg5_239" class="clusterblast-orf" id="dummy-1_q14_0_all"  />
<polygon points="241,40 244,40 249,35 244,30 241,30 241,40 " style="fill:#1577d8; stroke-width:1; stroke:black; " description="&lt;b&gt;ctg5_240&lt;/b&gt;&lt;br&gt;ctg5 240&lt;br&gt;Location: 292044 - 292470" locus_tag="ctg5_240" class="clusterblast-orf" id="dummy-1_q15_0_all"  />
<polygon points="250,40 258,40 263,35 258,30 250,30 250,40 " style="fill:#d815d8; stroke-width:1; stroke:black; " description="&lt;b&gt;ctg5_241&lt;/b&gt;&lt;br&gt;ctg5 241&lt;br&gt;Location: 292499 - 293150" locus_tag="ctg5_241" class="clusterblast-orf" id="dummy-1_q16_0_all"  />
<polygon points="263,40 303,40 308,35 303,30 263,30 263,40 " style="fill:#d89715; stroke-width:1; stroke:black; " description="&lt;b&gt;ctg5_242&lt;/b&gt;&lt;br&gt;ctg5 242&lt;br&gt;Location: 293139 - 295452" locus_tag="ctg5_242" class="clusterblast-orf" id="dummy-1_q17_0_all"  />
<polygon points="309,40 329,40 334,35 329,30 309,30 309,40 " style="fill:#15d836; stroke-width:1; stroke:black; " description="&lt;b&gt;ctg5_243&lt;/b&gt;&lt;br&gt;ctg5 243&lt;br&gt;Location: 295485 - 296733" locus_tag="ctg5_243" class="clusterblast-orf" id="dummy-1_q18_0_all"  />
<polygon points="334,40 343,40 348,35 343,30 334,30 334,40 " style="fill:#1556d8; stroke-width:1; stroke:black; " description="&lt;b&gt;ctg5_244&lt;/b&gt;&lt;br&gt;ctg5 244&lt;br&gt;Location: 296729 - 297464" locus_tag="ctg5_244" class="clusterblast-orf" id="dummy-1_q19_0_all"  />
<polygon points="348,40 353,40 358,35 353,30 348,30 348,40 " style="fill:#d815b8; stroke-width:1; stroke:black; " description="&lt;b&gt;ctg5_245&lt;/b&gt;&lt;br&gt;ctg5 245&lt;br&gt;Location: 297460 - 297943" locus_tag="ctg5_245" class="clusterblast-orf" id="dummy-1_q20_0_all"  />
<polygon points="358,40 376,40 381,35 376,30 358,30 358,40 " style="fill:#d8b815; stroke-width:1; stroke:black; " description="&lt;b&gt;ctg5_246&lt;/b&gt;&lt;br&gt;ctg5 246&lt;br&gt;Location: 297939 - 299106" locus_tag="ctg5_246" class="clusterblast-orf" id="dummy-1_q21_0_all"  />
<polygon points="381,40 385,40 390,35 385,30 381,30 381,40 " style="fill:#15d856; stroke-width:1; stroke:black; " description="&lt;b&gt;ctg5_247&lt;/b&gt;&lt;br&gt;ctg5 247&lt;br&gt;Location: 299102 - 299564" locus_tag="ctg5_247" class="clusterblast-orf" id="dummy-1_q22_0_all"  />
<polygon points="390,40 399,40 404,35 399,30 390,30 390,40 " style="fill:#1536d8; stroke-width:1; stroke:black; " description="&lt;b&gt;ctg5_248&lt;/b&gt;&lt;br&gt;ctg5 248&lt;br&gt;Location: 299560 - 300289" locus_tag="ctg5_248" class="clusterblast-orf" id="dummy-1_q23_0_all"  />
<polygon points="404,40 423,40 428,35 423,30 404,30 404,40 " style="fill:#d8b815; stroke-width:1; stroke:black; " description="&lt;b&gt;ctg5_249&lt;/b&gt;&lt;br&gt;ctg5 249&lt;br&gt;Location: 300288 - 301515" locus_tag="ctg5_249" class="clusterblast-orf" id="dummy-1_q24_0_all"  />
<polygon points="429,40 433,40 438,35 433,30 429,30 429,40 " style="fill:#d81597; stroke-width:1; stroke:black; " description="&lt;b&gt;ctg5_250&lt;/b&gt;&lt;br&gt;ctg5 250&lt;br&gt;Location: 301542 - 301992" locus_tag="ctg5_250" class="clusterblast-orf" id="dummy-1_q25_0_all"  />
<polygon points="444,35 449,30 461,30 461,40 449,40 444,35 " style="fill:#d8d815; stroke-width:1; stroke:black; " description="&lt;b&gt;ctg5_251&lt;/b&gt;&lt;br&gt;ctg5 251&lt;br&gt;Location: 302291 - 303185" locus_tag="ctg5_251" class="clusterblast-orf" id="dummy-1_q26_0_all"  />
<polygon points="464,40 484,40 489,35 484,30 464,30 464,40 " style="fill:#15d877; stroke-width:1; stroke:black; " description="&lt;b&gt;ctg5_252&lt;/b&gt;&lt;br&gt;ctg5 252&lt;br&gt;Location: 303309 - 304584" locus_tag="ctg5_252" class="clusterblast-orf" id="dummy-1_q27_0_all"  />
<polygon points="491,35 496,30 513,30 513,40 496,40 491,35 " style="fill:#1515d8; stroke-width:1; stroke:black; " description="&lt;b&gt;ctg5_253&lt;/b&gt;&lt;br&gt;ctg5 253&lt;br&gt;Location: 304700 - 305768" locus_tag="ctg5_253" class="clusterblast-orf" id="dummy-1_q28_0_all"  />
<polygon points="518,35 523,30 546,30 546,40 523,40 518,35 " style="fill:#d81577; stroke-width:1; stroke:black; " description="&lt;b&gt;ctg5_254&lt;/b&gt;&lt;br&gt;ctg5 254&lt;br&gt;Location: 306021 - 307440" locus_tag="ctg5_254" class="clusterblast-orf" id="dummy-1_q29_0_all"  />
<polygon points="548,35 553,30 636,30 636,40 553,40 548,35 " style="fill:#b8d815; stroke-width:1; stroke:black; " description="&lt;b&gt;ctg5_255&lt;/b&gt;&lt;br&gt;ctg5 255&lt;br&gt;Location: 307564 - 312010" locus_tag="ctg5_255" class="clusterblast-orf" id="dummy-1_q30_0_all"  />
<polygon points="643,35 648,30 674,30 674,40 648,40 643,35 " style="fill:#15d897; stroke-width:1; stroke:black; " description="&lt;b&gt;ctg5_256&lt;/b&gt;&lt;br&gt;ctg5 256&lt;br&gt;Location: 312362 - 313931" locus_tag="ctg5_256" class="clusterblast-orf" id="dummy-1_q31_0_all"  />
<polygon points="674,35 679,30 696,30 696,40 679,40 674,35 " style="fill:#3615d8; stroke-width:1; stroke:black; " description="&lt;b&gt;ctg5_257&lt;/b&gt;&lt;br&gt;ctg5 257&lt;br&gt;Location: 313941 - 315042" locus_tag="ctg5_257" class="clusterblast-orf" id="dummy-1_q32_0_all"  />
<polygon points="699,35 704,30 708,30 708,40 704,40 699,35 " style="fill:#d81556; stroke-width:1; stroke:black; " description="&lt;b&gt;ctg5_258&lt;/b&gt;&lt;br&gt;ctg5 258&lt;br&gt;Location: 315166 - 315658" locus_tag="ctg5_258" class="clusterblast-orf" id="dummy-1_q33_0_all"  />
<polygon points="709,35 714,30 736,30 736,40 714,40 709,35 " style="fill:#97d815; stroke-width:1; stroke:black; " description="&lt;b&gt;ctg5_259&lt;/b&gt;&lt;br&gt;ctg5 259&lt;br&gt;Location: 315689 - 317075" locus_tag="ctg5_259" class="clusterblast-orf" id="dummy-1_q34_0_all"  />
<polygon points="737,35 742,30 756,30 756,40 742,40 737,35 " style="fill:#15d8b8; stroke-width:1; stroke:black; " description="&lt;b&gt;ctg5_260&lt;/b&gt;&lt;br&gt;ctg5 260&lt;br&gt;Location: 317087 - 318059" locus_tag="ctg5_260" class="clusterblast-orf" id="dummy-1_q35_0_all"  />
<polygon points="756,35 761,30 767,30 767,40 761,40 756,35 " style="fill:#5615d8; stroke-width:1; stroke:black; " description="&lt;b&gt;ctg5_261&lt;/b&gt;&lt;br&gt;ctg5 261&lt;br&gt;Location: 318055 - 318607" locus_tag="ctg5_261" class="clusterblast-orf" id="dummy-1_q36_0_all"  />
<polygon points="767,35 772,30 780,30 780,40 772,40 767,35 " style="fill:#d81536; stroke-width:1; stroke:black; " description="&lt;b&gt;ctg5_262&lt;/b&gt;&lt;br&gt;ctg5 262&lt;br&gt;Location: 318603 - 319260" locus_tag="ctg5_262" class="clusterblast-orf" id="dummy-1_q37_0_all"  />
</g>
<g label="NZ_JACAQV010000001" description="NZ_JACAQV010000001 (39824-83400): Pseudomonas salomonii strain IPO3765 IPO 37... (100% of genes show similarity), arylpolyene" class="clusterblast-cluster"  >
<text x="5" y="70" class="clusterblast-acc"  >
<a xlink:href="https://antismash-db.secondarymetabolites.org/area.html?record=NZ_JACAQV010000001&amp;start=39824&amp;end=83400" target="_blank">NZ_JACAQV010000001 (39824-83400)</a>: Pseudomonas salomonii strain IPO3765 IPO 37... (100% of genes show similarity), arylpolyene</text>
<line x1="10" y1="85" x2="778.0" y2="85" style="stroke-width:1; stroke:grey; "  />
</g>
<g id="a1_000"  >
<polygon points="0,90 24,90 29,85 24,80 0,80 0,90 " style="fill:#d81515; stroke-width:1; stroke:black; " description="&lt;b&gt;HX810_RS00375&lt;/b&gt;&lt;br&gt;YdiU family protein&lt;br&gt;Location: 81529 - 80066&lt;br&gt;&lt;br&gt;&lt;b&gt;BlastP hit with ctg5_225&lt;/b&gt;&lt;br&gt;Percentage identity: 97&lt;br&gt;Percentage coverage: 100&lt;br&gt;BLAST bit score: 962&lt;br&gt;E-value: 0.0" locus_tag="HX810_RS00375" class="clusterblast-orf" id="dummy-1_h1_9_0"  />
</g>
<g id="a1_001"  >
<polygon points="32,85 37,80 40,80 40,90 37,90 32,85 " style="fill:#77d815; stroke-width:1; stroke:black; " description="&lt;b&gt;HX810_RS00370&lt;/b&gt;&lt;br&gt;transcriptional regulator&lt;br&gt;Location: 79931 - 79530&lt;br&gt;&lt;br&gt;&lt;b&gt;BlastP hit with ctg5_226&lt;/b&gt;&lt;br&gt;Percentage identity: 84&lt;br&gt;Percentage coverage: 100&lt;br&gt;BLAST bit score: 230&lt;br&gt;E-value: 1.22e-77" locus_tag="HX810_RS00370" class="clusterblast-orf" id="dummy-1_h1_9_1"  />
</g>
<g id="a1_002"  >
<polygon points="40,85 45,80 46,80 46,90 45,90 40,85 " style="fill:#15d8d8; stroke-width:1; stroke:black; " description="&lt;b&gt;HX810_RS00365&lt;/b&gt;&lt;br&gt;type II toxin-antitoxin system HigB family toxin&lt;br&gt;Location: 79533 - 79237&lt;br&gt;&lt;br&gt;&lt;b&gt;BlastP hit with ctg5_227&lt;/b&gt;&lt;br&gt;Percentage identity: 77&lt;br&gt;Percentage coverage: 100&lt;br&gt;BLAST bit score: 165&lt;br&gt;E-value: 5.6e-53" locus_tag="HX810_RS00365" class="clusterblast-orf" id="dummy-1_h1_9_2"  />
</g>
<g id="a1_003"  >
<polygon points="50,90 54,90 59,85 54,80 50,80 50,90 " style="fill:#7715d8; stroke-width:1; stroke:black; " description="&lt;b&gt;HX810_RS00360&lt;/b&gt;&lt;br&gt;thioredoxin TrxC&lt;br&gt;Location: 79001 - 78567&lt;br&gt;&lt;br&gt;&lt;b&gt;BlastP hit with ctg5_228&lt;/b&gt;&lt;br&gt;Percentage identity: 99&lt;br&gt;Percentage coverage: 100&lt;br&gt;BLAST bit score: 300&lt;br&gt;E-value: 9.77e-105" locus_tag="HX810_RS00360" class="clusterblast-orf" id="dummy-1_h1_9_3"  />
</g>
<g id="a1_004"  >
<polygon points="61,85 66,80 66,80 66,90 66,90 61,85 " style="fill:#d83615; stroke-width:1; stroke:black; " description="&lt;b&gt;HX810_RS00355&lt;/b&gt;&lt;br&gt;hypothetical protein&lt;br&gt;Location: 78438 - 78205&lt;br&gt;&lt;br&gt;&lt;b&gt;BlastP hit with ctg5_229&lt;/b&gt;&lt;br&gt;Percentage identity: 86&lt;br&gt;Percentage coverage: 93&lt;br&gt;BLAST bit score: 119&lt;br&gt;E-value: 2.35e-35" locus_tag="HX810_RS00355" class="clusterblast-orf" id="dummy-1_h1_9_4"  />
</g>
<g id="a1_005"  >
<polygon points="74,85 79,80 89,80 89,90 79,90 74,85 " style="fill:#56d815; stroke-width:1; stroke:black; " description="&lt;b&gt;HX810_RS00350&lt;/b&gt;&lt;br&gt;ParA family protein&lt;br&gt;Location: 77799 - 77029&lt;br&gt;&lt;br&gt;&lt;b&gt;BlastP hit with ctg5_230&lt;/b&gt;&lt;br&gt;Percentage identity: 98&lt;br&gt;Percentage coverage: 100&lt;br&gt;BLAST bit score: 492&lt;br&gt;E-value: 2.92e-177" locus_tag="HX810_RS00350" class="clusterblast-orf" id="dummy-1_h1_9_5"  />
</g>
<g id="a1_006"  >
<polygon points="96,90 105,90 110,85 105,80 96,80 96,90 " style="fill:#15b8d8; stroke-width:1; stroke:black; " description="&lt;b&gt;HX810_RS00345&lt;/b&gt;&lt;br&gt;beta-ketoacyl synthase chain length factor&lt;br&gt;Location: 76711 - 75992&lt;br&gt;&lt;br&gt;&lt;b&gt;BlastP hit with ctg5_231&lt;/b&gt;&lt;br&gt;Percentage identity: 93&lt;br&gt;Percentage coverage: 100&lt;br&gt;BLAST bit score: 397&lt;br&gt;E-value: 7.37e-141" locus_tag="HX810_RS00345" class="clusterblast-orf" id="dummy-1_h1_9_6"  />
</g>
<g id="a1_007"  >
<polygon points="109,90 120,90 125,85 120,80 109,80 109,90 " style="fill:#9715d8; stroke-width:1; stroke:black; " description="&lt;b&gt;HX810_RS00340&lt;/b&gt;&lt;br&gt;1-acyl-sn-glycerol-3-phosphate acyltransferase&lt;br&gt;Location: 76016 - 75204&lt;br&gt;&lt;br&gt;&lt;b&gt;BlastP hit with ctg5_232&lt;/b&gt;&lt;br&gt;Percentage identity: 92&lt;br&gt;Percentage coverage: 100&lt;br&gt;BLAST bit score: 503&lt;br&gt;E-value: 3.26e-181" locus_tag="HX810_RS00340" class="clusterblast-orf" id="dummy-1_h1_9_7"  />
</g>
<g id="a1_008"  >
<polygon points="125,90 125,90 130,85 125,80 125,80 125,90 " style="fill:#d85615; stroke-width:1; stroke:black; " description="&lt;b&gt;HX810_RS00335&lt;/b&gt;&lt;br&gt;acyl carrier protein&lt;br&gt;Location: 75226 - 74957&lt;br&gt;&lt;br&gt;&lt;b&gt;BlastP hit with ctg5_233&lt;/b&gt;&lt;br&gt;Percentage identity: 94&lt;br&gt;Percentage coverage: 100&lt;br&gt;BLAST bit score: 160&lt;br&gt;E-value: 1.99e-51" locus_tag="HX810_RS00335" class="clusterblast-orf" id="dummy-1_h1_9_8"  />
</g>
<g id="a1_009"  >
<polygon points="130,90 131,90 136,85 131,80 130,80 130,90 " style="fill:#36d815; stroke-width:1; stroke:black; " description="&lt;b&gt;HX810_RS00330&lt;/b&gt;&lt;br&gt;acyl carrier protein&lt;br&gt;Location: 74947 - 74693&lt;br&gt;&lt;br&gt;&lt;b&gt;BlastP hit with ctg5_234&lt;/b&gt;&lt;br&gt;Percentage identity: 95&lt;br&gt;Percentage coverage: 100&lt;br&gt;BLAST bit score: 157&lt;br&gt;E-value: 4.66e-50" locus_tag="HX810_RS00330" class="clusterblast-orf" id="dummy-1_h1_9_9"  />
</g>
<g id="a1_0010"  >
<polygon points="135,90 141,90 146,85 141,80 135,80 135,90 " style="fill:#1597d8; stroke-width:1; stroke:black; " description="&lt;b&gt;HX810_RS00325&lt;/b&gt;&lt;br&gt;hypothetical protein&lt;br&gt;Location: 74696 - 74151&lt;br&gt;&lt;br&gt;&lt;b&gt;BlastP hit with ctg5_235&lt;/b&gt;&lt;br&gt;Percentage identity: 96&lt;br&gt;Percentage coverage: 100&lt;br&gt;BLAST bit score: 354&lt;br&gt;E-value: 5.06e-125" locus_tag="HX810_RS00325" class="clusterblast-orf" id="dummy-1_h1_9_10"  />
</g>
<g id="a1_0011"  >
<polygon points="146,90 174,90 179,85 174,80 146,80 146,90 " style="fill:#b815d8; stroke-width:1; stroke:black; " description="&lt;b&gt;HX810_RS00320&lt;/b&gt;&lt;br&gt;AMP-binding protein&lt;br&gt;Location: 74154 - 72484&lt;br&gt;&lt;br&gt;&lt;b&gt;BlastP hit with ctg5_236&lt;/b&gt;&lt;br&gt;Percentage identity: 94&lt;br&gt;Percentage coverage: 100&lt;br&gt;BLAST bit score: 1045&lt;br&gt;E-value: 0.0" locus_tag="HX810_RS00320" class="clusterblast-orf" id="dummy-1_h1_9_11"  />
</g>
<g id="a1_0012"  >
<polygon points="179,90 189,90 194,85 189,80 179,80 179,90 " style="fill:#b815d8; stroke-width:1; stroke:black; " description="&lt;b&gt;HX810_RS00315&lt;/b&gt;&lt;br&gt;glycosyltransferase family 2 protein&lt;br&gt;Location: 72491 - 71757&lt;br&gt;&lt;br&gt;&lt;b&gt;BlastP hit with ctg5_237&lt;/b&gt;&lt;br&gt;Percentage identity: 93&lt;br&gt;Percentage coverage: 100&lt;br&gt;BLAST bit score: 483&lt;br&gt;E-value: 7.49e-174" locus_tag="HX810_RS00315" class="clusterblast-orf" id="dummy-1_h1_9_12"  />
</g>
<g id="a1_0013"  >
<polygon points="194,90 207,90 212,85 207,80 194,80 194,90 " style="fill:#d87715; stroke-width:1; stroke:black; " description="&lt;b&gt;HX810_RS00310&lt;/b&gt;&lt;br&gt;glycosyl transferase&lt;br&gt;Location: 71760 - 70825&lt;br&gt;&lt;br&gt;&lt;b&gt;BlastP hit with ctg5_238&lt;/b&gt;&lt;br&gt;Percentage identity: 96&lt;br&gt;Percentage coverage: 100&lt;br&gt;BLAST bit score: 615&lt;br&gt;E-value: 6.88e-224" locus_tag="HX810_RS00310" class="clusterblast-orf" id="dummy-1_h1_9_13"  />
</g>
<g id="a1_0014"  >
<polygon points="212,90 237,90 242,85 237,80 212,80 212,90 " style="fill:#15d815; stroke-width:1; stroke:black; " description="&lt;b&gt;HX810_RS00305&lt;/b&gt;&lt;br&gt;aromatic amino acid lyase&lt;br&gt;Location: 70841 - 69300&lt;br&gt;&lt;br&gt;&lt;b&gt;BlastP hit with ctg5_239&lt;/b&gt;&lt;br&gt;Percentage identity: 97&lt;br&gt;Percentage coverage: 100&lt;br&gt;BLAST bit score: 983&lt;br&gt;E-value: 0.0" locus_tag="HX810_RS00305" class="clusterblast-orf" id="dummy-1_h1_9_14"  />
</g>
<g id="a1_0015"  >
<polygon points="242,90 246,90 251,85 246,80 242,80 242,90 " style="fill:#1577d8; stroke-width:1; stroke:black; " description="&lt;b&gt;HX810_RS00300&lt;/b&gt;&lt;br&gt;acyl-CoA thioesterase&lt;br&gt;Location: 69307 - 68882&lt;br&gt;&lt;br&gt;&lt;b&gt;BlastP hit with ctg5_240&lt;/b&gt;&lt;br&gt;Percentage identity: 94&lt;br&gt;Percentage coverage: 100&lt;br&gt;BLAST bit score: 277&lt;br&gt;E-value: 7.79e-96" locus_tag="HX810_RS00300" class="clusterblast-orf" id="dummy-1_h1_9_15"  />
</g>
<g id="a1_0016"  >
<polygon points="251,90 259,90 264,85 259,80 251,80 251,90 " style="fill:#d815d8; stroke-width:1; stroke:black; " description="&lt;b&gt;HX810_RS00295&lt;/b&gt;&lt;br&gt;outer membrane lipoprotein carrier protein LolA&lt;br&gt;Location: 68885 - 68190&lt;br&gt;&lt;br&gt;&lt;b&gt;BlastP hit with ctg5_241&lt;/b&gt;&lt;br&gt;Percentage identity: 89&lt;br&gt;Percentage coverage: 101&lt;br&gt;BLAST bit score: 370&lt;br&gt;E-value: 6.88e-130" locus_tag="HX810_RS00295" class="clusterblast-orf" id="dummy-1_h1_9_16"  />
</g>
<g id="a1_0017"  >
<polygon points="264,90 305,90 310,85 305,80 264,80 264,90 " style="fill:#d89715; stroke-width:1; stroke:black; " description="&lt;b&gt;HX810_RS00290&lt;/b&gt;&lt;br&gt;MMPL family transporter&lt;br&gt;Location: 68200 - 65888&lt;br&gt;&lt;br&gt;&lt;b&gt;BlastP hit with ctg5_242&lt;/b&gt;&lt;br&gt;Percentage identity: 95&lt;br&gt;Percentage coverage: 100&lt;br&gt;BLAST bit score: 1396&lt;br&gt;E-value: 0.0" locus_tag="HX810_RS00290" class="clusterblast-orf" id="dummy-1_h1_9_17"  />
</g>
<g id="a1_0018"  >
<polygon points="311,90 330,90 335,85 330,80 311,80 311,90 " style="fill:#15d836; stroke-width:1; stroke:black; " description="&lt;b&gt;HX810_RS00285&lt;/b&gt;&lt;br&gt;tryptophan 7-halogenase&lt;br&gt;Location: 65854 - 64607&lt;br&gt;&lt;br&gt;&lt;b&gt;BlastP hit with ctg5_243&lt;/b&gt;&lt;br&gt;Percentage identity: 96&lt;br&gt;Percentage coverage: 100&lt;br&gt;BLAST bit score: 813&lt;br&gt;E-value: 7.24e-299" locus_tag="HX810_RS00285" class="clusterblast-orf" id="dummy-1_h1_9_18"  />
</g>
<g id="a1_0019"  >
<polygon points="335,90 345,90 350,85 345,80 335,80 335,90 " style="fill:#1556d8; stroke-width:1; stroke:black; " description="&lt;b&gt;HX810_RS00280&lt;/b&gt;&lt;br&gt;class I SAM-dependent methyltransferase&lt;br&gt;Location: 64610 - 63876&lt;br&gt;&lt;br&gt;&lt;b&gt;BlastP hit with ctg5_244&lt;/b&gt;&lt;br&gt;Percentage identity: 93&lt;br&gt;Percentage coverage: 99&lt;br&gt;BLAST bit score: 475&lt;br&gt;E-value: 5.9e-171" locus_tag="HX810_RS00280" class="clusterblast-orf" id="dummy-1_h1_9_19"  />
</g>
<g id="a1_0020"  >
<polygon points="350,90 354,90 359,85 354,80 350,80 350,90 " style="fill:#d815b8; stroke-width:1; stroke:black; " description="&lt;b&gt;HX810_RS00275&lt;/b&gt;&lt;br&gt;hypothetical protein&lt;br&gt;Location: 63879 - 63397&lt;br&gt;&lt;br&gt;&lt;b&gt;BlastP hit with ctg5_245&lt;/b&gt;&lt;br&gt;Percentage identity: 89&lt;br&gt;Percentage coverage: 100&lt;br&gt;BLAST bit score: 291&lt;br&gt;E-value: 1.05e-100" locus_tag="HX810_RS00275" class="clusterblast-orf" id="dummy-1_h1_9_20"  />
</g>
<g id="a1_0021"  >
<polygon points="359,90 377,90 382,85 377,80 359,80 359,90 " style="fill:#d8b815; stroke-width:1; stroke:black; " description="&lt;b&gt;HX810_RS00270&lt;/b&gt;&lt;br&gt;beta-ketoacyl-[acyl-carrier-protein] synthase family protein&lt;br&gt;Location: 63400 - 62234&lt;br&gt;&lt;br&gt;&lt;b&gt;BlastP hit with ctg5_246&lt;/b&gt;&lt;br&gt;Percentage identity: 92&lt;br&gt;Percentage coverage: 100&lt;br&gt;BLAST bit score: 721&lt;br&gt;E-value: 3.33e-263&lt;br&gt;&lt;br&gt;&lt;b&gt;BlastP hit with ctg5_249&lt;/b&gt;&lt;br&gt;Percentage identity: 31&lt;br&gt;Percentage coverage: 75&lt;br&gt;BLAST bit score: 125&lt;br&gt;E-value: 4.23e-30" locus_tag="HX810_RS00270" class="clusterblast-orf" id="dummy-1_h1_9_21"  />
</g>
<g id="a1_0022"  >
<polygon points="382,90 386,90 391,85 386,80 382,80 382,90 " style="fill:#15d856; stroke-width:1; stroke:black; " description="&lt;b&gt;HX810_RS00265&lt;/b&gt;&lt;br&gt;hotdog family protein&lt;br&gt;Location: 62237 - 61776&lt;br&gt;&lt;br&gt;&lt;b&gt;BlastP hit with ctg5_247&lt;/b&gt;&lt;br&gt;Percentage identity: 95&lt;br&gt;Percentage coverage: 100&lt;br&gt;BLAST bit score: 305&lt;br&gt;E-value: 2.01e-106" locus_tag="HX810_RS00265" class="clusterblast-orf" id="dummy-1_h1_9_22"  />
</g>
<g id="a1_0023"  >
<polygon points="391,90 401,90 406,85 401,80 391,80 391,90 " style="fill:#1536d8; stroke-width:1; stroke:black; " description="&lt;b&gt;HX810_RS00260&lt;/b&gt;&lt;br&gt;3-oxoacyl-ACP reductase FabG&lt;br&gt;Location: 61779 - 61051&lt;br&gt;&lt;br&gt;&lt;b&gt;BlastP hit with ctg5_248&lt;/b&gt;&lt;br&gt;Percentage identity: 98&lt;br&gt;Percentage coverage: 100&lt;br&gt;BLAST bit score: 462&lt;br&gt;E-value: 7.72e-166" locus_tag="HX810_RS00260" class="clusterblast-orf" id="dummy-1_h1_9_23"  />
</g>
<g id="a1_0024"  >
<polygon points="406,90 425,90 430,85 425,80 406,80 406,90 " style="fill:#d8b815; stroke-width:1; stroke:black; " description="&lt;b&gt;HX810_RS00255&lt;/b&gt;&lt;br&gt;beta-ketoacyl-ACP synthase&lt;br&gt;Location: 61051 - 59825&lt;br&gt;&lt;br&gt;&lt;b&gt;BlastP hit with ctg5_249&lt;/b&gt;&lt;br&gt;Percentage identity: 99&lt;br&gt;Percentage coverage: 100&lt;br&gt;BLAST bit score: 818&lt;br&gt;E-value: 6.2e-301" locus_tag="HX810_RS00255" class="clusterblast-orf" id="dummy-1_h1_9_24"  />
</g>
<g id="a1_0025"  >
<polygon points="430,90 434,90 439,85 434,80 430,80 430,90 " style="fill:#d81597; stroke-width:1; stroke:black; " description="&lt;b&gt;HX810_RS00250&lt;/b&gt;&lt;br&gt;hypothetical protein&lt;br&gt;Location: 59798 - 59379&lt;br&gt;&lt;br&gt;&lt;b&gt;BlastP hit with ctg5_250&lt;/b&gt;&lt;br&gt;Percentage identity: 90&lt;br&gt;Percentage coverage: 88&lt;br&gt;BLAST bit score: 231&lt;br&gt;E-value: 1.99e-77" locus_tag="HX810_RS00250" class="clusterblast-orf" id="dummy-1_h1_9_25"  />
</g>
<g id="a1_0026"  >
<polygon points="445,85 450,80 463,80 463,90 450,90 445,85 " style="fill:#d8d815; stroke-width:1; stroke:black; " description="&lt;b&gt;HX810_RS00245&lt;/b&gt;&lt;br&gt;LysR family transcriptional regulator&lt;br&gt;Location: 59084 - 58134&lt;br&gt;&lt;br&gt;&lt;b&gt;BlastP hit with ctg5_251&lt;/b&gt;&lt;br&gt;Percentage identity: 97&lt;br&gt;Percentage coverage: 98&lt;br&gt;BLAST bit score: 537&lt;br&gt;E-value: 2.02e-193" locus_tag="HX810_RS00245" class="clusterblast-orf" id="dummy-1_h1_9_26"  />
</g>
<g id="a1_0027"  >
<polygon points="466,90 486,90 491,85 486,80 466,80 466,90 " style="fill:#15d877; stroke-width:1; stroke:black; " description="&lt;b&gt;HX810_RS00240&lt;/b&gt;&lt;br&gt;MFS transporter&lt;br&gt;Location: 58009 - 56735&lt;br&gt;&lt;br&gt;&lt;b&gt;BlastP hit with ctg5_252&lt;/b&gt;&lt;br&gt;Percentage identity: 97&lt;br&gt;Percentage coverage: 100&lt;br&gt;BLAST bit score: 775&lt;br&gt;E-value: 1.26e-283" locus_tag="HX810_RS00240" class="clusterblast-orf" id="dummy-1_h1_9_27"  />
</g>
<g id="a1_0028"  >
<polygon points="493,85 498,80 514,80 514,90 498,90 493,85 " style="fill:#1515d8; stroke-width:1; stroke:black; " description="&lt;b&gt;HX810_RS00235&lt;/b&gt;&lt;br&gt;uroporphyrinogen decarboxylase&lt;br&gt;Location: 56632 - 55565&lt;br&gt;&lt;br&gt;&lt;b&gt;BlastP hit with ctg5_253&lt;/b&gt;&lt;br&gt;Percentage identity: 98&lt;br&gt;Percentage coverage: 100&lt;br&gt;BLAST bit score: 710&lt;br&gt;E-value: 3.32e-260" locus_tag="HX810_RS00235" class="clusterblast-orf" id="dummy-1_h1_9_28"  />
</g>
<g id="a1_0029"  >
<polygon points="519,85 524,80 547,80 547,90 524,90 519,85 " style="fill:#d81577; stroke-width:1; stroke:black; " description="&lt;b&gt;HX810_RS00230&lt;/b&gt;&lt;br&gt;FAD-dependent oxidoreductase&lt;br&gt;Location: 55341 - 53923&lt;br&gt;&lt;br&gt;&lt;b&gt;BlastP hit with ctg5_254&lt;/b&gt;&lt;br&gt;Percentage identity: 99&lt;br&gt;Percentage coverage: 100&lt;br&gt;BLAST bit score: 957&lt;br&gt;E-value: 0.0" locus_tag="HX810_RS00230" class="clusterblast-orf" id="dummy-1_h1_9_29"  />
</g>
<g id="a1_0030"  >
<polygon points="547,85 552,80 635,80 635,90 552,90 547,85 " style="fill:#b8d815; stroke-width:1; stroke:black; " description="&lt;b&gt;HX810_RS00225&lt;/b&gt;&lt;br&gt;glutamate synthase large subunit&lt;br&gt;Location: 53890 - 49445&lt;br&gt;&lt;br&gt;&lt;b&gt;BlastP hit with ctg5_255&lt;/b&gt;&lt;br&gt;Percentage identity: 99&lt;br&gt;Percentage coverage: 100&lt;br&gt;BLAST bit score: 2880&lt;br&gt;E-value: 0.0" locus_tag="HX810_RS00225" class="clusterblast-orf" id="dummy-1_h1_9_30"  />
</g>
<g id="a1_0031"  >
<polygon points="642,85 647,80 673,80 673,90 647,90 642,85 " style="fill:#15d897; stroke-width:1; stroke:black; " description="&lt;b&gt;HX810_RS00220&lt;/b&gt;&lt;br&gt;SPOR domain-containing protein&lt;br&gt;Location: 49096 - 47558&lt;br&gt;&lt;br&gt;&lt;b&gt;BlastP hit with ctg5_256&lt;/b&gt;&lt;br&gt;Percentage identity: 94&lt;br&gt;Percentage coverage: 100&lt;br&gt;BLAST bit score: 853&lt;br&gt;E-value: 2.03e-311" locus_tag="HX810_RS00220" class="clusterblast-orf" id="dummy-1_h1_9_31"  />
</g>
<g id="a1_0032"  >
<polygon points="673,85 678,80 695,80 695,90 678,90 673,85 " style="fill:#3615d8; stroke-width:1; stroke:black; " description="&lt;b&gt;HX810_RS00215&lt;/b&gt;&lt;br&gt;3-dehydroquinate synthase&lt;br&gt;Location: 47547 - 46447&lt;br&gt;&lt;br&gt;&lt;b&gt;BlastP hit with ctg5_257&lt;/b&gt;&lt;br&gt;Percentage identity: 98&lt;br&gt;Percentage coverage: 100&lt;br&gt;BLAST bit score: 711&lt;br&gt;E-value: 2.73e-260" locus_tag="HX810_RS00215" class="clusterblast-orf" id="dummy-1_h1_9_32"  />
</g>
<g id="a1_0033"  >
<polygon points="697,85 702,80 707,80 707,90 702,90 697,85 " style="fill:#d81556; stroke-width:1; stroke:black; " description="&lt;b&gt;HX810_RS00210&lt;/b&gt;&lt;br&gt;shikimate kinase AroK&lt;br&gt;Location: 46323 - 45805&lt;br&gt;&lt;br&gt;&lt;b&gt;BlastP hit with ctg5_258&lt;/b&gt;&lt;br&gt;Percentage identity: 100&lt;br&gt;Percentage coverage: 100&lt;br&gt;BLAST bit score: 320&lt;br&gt;E-value: 6.59e-112" locus_tag="HX810_RS00210" class="clusterblast-orf" id="dummy-1_h1_9_33"  />
</g>
<g id="a1_0034"  >
<polygon points="708,85 713,80 734,80 734,90 713,90 708,85 " style="fill:#97d815; stroke-width:1; stroke:black; " description="&lt;b&gt;HX810_RS00205&lt;/b&gt;&lt;br&gt;type IV pilus secretin PilQ family protein&lt;br&gt;Location: 45800 - 44472&lt;br&gt;&lt;br&gt;&lt;b&gt;BlastP hit with ctg5_259&lt;/b&gt;&lt;br&gt;Percentage identity: 92&lt;br&gt;Percentage coverage: 96&lt;br&gt;BLAST bit score: 786&lt;br&gt;E-value: 8.33e-287" locus_tag="HX810_RS00205" class="clusterblast-orf" id="dummy-1_h1_9_34"  />
</g>
<g id="a1_0035"  >
<polygon points="735,85 740,80 755,80 755,90 740,90 735,85 " style="fill:#15d8b8; stroke-width:1; stroke:black; " description="&lt;b&gt;HX810_RS00200&lt;/b&gt;&lt;br&gt;pilus assembly protein PilP&lt;br&gt;Location: 44402 - 43401&lt;br&gt;&lt;br&gt;&lt;b&gt;BlastP hit with ctg5_260&lt;/b&gt;&lt;br&gt;Percentage identity: 73&lt;br&gt;Percentage coverage: 103&lt;br&gt;BLAST bit score: 472&lt;br&gt;E-value: 8.07e-167" locus_tag="HX810_RS00200" class="clusterblast-orf" id="dummy-1_h1_9_35"  />
</g>
<g id="a1_0036"  >
<polygon points="755,85 760,80 766,80 766,90 760,90 755,85 " style="fill:#5615d8; stroke-width:1; stroke:black; " description="&lt;b&gt;HX810_RS00195&lt;/b&gt;&lt;br&gt;PilN domain-containing protein&lt;br&gt;Location: 43404 - 42853&lt;br&gt;&lt;br&gt;&lt;b&gt;BlastP hit with ctg5_261&lt;/b&gt;&lt;br&gt;Percentage identity: 92&lt;br&gt;Percentage coverage: 100&lt;br&gt;BLAST bit score: 315&lt;br&gt;E-value: 1.03e-109" locus_tag="HX810_RS00195" class="clusterblast-orf" id="dummy-1_h1_9_36"  />
</g>
<g id="a1_0037"  >
<polygon points="766,85 771,80 779,80 779,90 771,90 766,85 " style="fill:#d81536; stroke-width:1; stroke:black; " description="&lt;b&gt;HX810_RS00190&lt;/b&gt;&lt;br&gt;type IV pilus assembly protein PilM&lt;br&gt;Location: 42856 - 42200&lt;br&gt;&lt;br&gt;&lt;b&gt;BlastP hit with ctg5_262&lt;/b&gt;&lt;br&gt;Percentage identity: 89&lt;br&gt;Percentage coverage: 100&lt;br&gt;BLAST bit score: 373&lt;br&gt;E-value: 2e-131" locus_tag="HX810_RS00190" class="clusterblast-orf" id="dummy-1_h1_9_37"  />
</g>
</svg>
