<svg xmlns="http://www.w3.org/2000/svg" xmlns:xlink="http://www.w3.org/1999/xlink" version="1.1" x="0" y="0" height="230" width="800" viewBox="0 0 800 230" preserveAspectRatio="none"  >
<g label="Query sequence" class="clusterblast-cluster"  >
<text x="5" y="20" class="clusterblast-acc"  >
Query sequence</text>
<line x1="10" y1="35" x2="778.0" y2="35" style="stroke-width:1; stroke:grey; "  />
<polygon points="2,40 6,40 11,35 6,30 2,30 2,40 " style="fill:#d81515; stroke-width:1; stroke:black; " description="&lt;b&gt;ctg24_8&lt;/b&gt;&lt;br&gt;ctg24 8&lt;br&gt;Location: 10485 - 11169" locus_tag="ctg24_8" class="clusterblast-orf" id="dummy-1_q0_0_all"  />
<polygon points="11,40 23,40 28,35 23,30 11,30 11,40 " style="fill:#6cd815; stroke-width:1; stroke:black; " description="&lt;b&gt;ctg24_9&lt;/b&gt;&lt;br&gt;ctg24 9&lt;br&gt;Location: 11146 - 12541" locus_tag="ctg24_9" class="clusterblast-orf" id="dummy-1_q1_0_all"  />
<polygon points="32,35 36,30 36,40 32,35 " style="fill:#15c3d8; stroke-width:1; stroke:black; " description="&lt;b&gt;ctg24_10&lt;/b&gt;&lt;br&gt;ctg24 10&lt;br&gt;Location: 12827 - 13181" locus_tag="ctg24_10" class="clusterblast-orf" id="dummy-1_q2_0_all"  />
<polygon points="37,35 42,30 47,30 47,40 42,40 37,35 " style="fill:#9715d8; stroke-width:1; stroke:black; " description="&lt;b&gt;ctg24_11&lt;/b&gt;&lt;br&gt;ctg24 11&lt;br&gt;Location: 13265 - 14063" locus_tag="ctg24_11" class="clusterblast-orf" id="dummy-1_q3_0_all"  />
<polygon points="48,35 53,30 60,30 60,40 53,40 48,35 " style="fill:#d84115; stroke-width:1; stroke:black; " description="&lt;b&gt;ctg24_12&lt;/b&gt;&lt;br&gt;ctg24 12&lt;br&gt;Location: 14078 - 15083" locus_tag="ctg24_12" class="clusterblast-orf" id="dummy-1_q4_0_all"  />
<polygon points="62,40 68,40 73,35 68,30 62,30 62,40 " style="fill:#41d815; stroke-width:1; stroke:black; " description="&lt;b&gt;ctg24_13&lt;/b&gt;&lt;br&gt;ctg24 13&lt;br&gt;Location: 15196 - 16090" locus_tag="ctg24_13" class="clusterblast-orf" id="dummy-1_q5_0_all"  />
<polygon points="74,35 79,30 91,30 91,40 79,40 74,35 " style="fill:#1597d8; stroke-width:1; stroke:black; " description="&lt;b&gt;ctg24_14&lt;/b&gt;&lt;br&gt;ctg24 14&lt;br&gt;Location: 16202 - 17498" locus_tag="ctg24_14" class="clusterblast-orf" id="dummy-1_q6_0_all"  />
<polygon points="91,35 96,30 105,30 105,40 96,40 91,35 " style="fill:#c315d8; stroke-width:1; stroke:black; " description="&lt;b&gt;ctg24_15&lt;/b&gt;&lt;br&gt;ctg24 15&lt;br&gt;Location: 17494 - 18583" locus_tag="ctg24_15" class="clusterblast-orf" id="dummy-1_q7_0_all"  />
<polygon points="105,35 110,30 122,30 122,40 110,40 105,35 " style="fill:#d86c15; stroke-width:1; stroke:black; " description="&lt;b&gt;ctg24_16&lt;/b&gt;&lt;br&gt;ctg24 16&lt;br&gt;Location: 18605 - 19964" locus_tag="ctg24_16" class="clusterblast-orf" id="dummy-1_q8_0_all"  />
<polygon points="125,40 130,40 135,35 130,30 125,30 125,40 " style="fill:#15d815; stroke-width:1; stroke:black; " description="&lt;b&gt;ctg24_17&lt;/b&gt;&lt;br&gt;ctg24 17&lt;br&gt;Location: 20201 - 20999" locus_tag="ctg24_17" class="clusterblast-orf" id="dummy-1_q9_0_all"  />
<polygon points="136,40 159,40 164,35 159,30 136,30 136,40 " style="fill:#156cd8; stroke-width:1; stroke:black; " description="&lt;b&gt;ctg24_18&lt;/b&gt;&lt;br&gt;ctg24 18&lt;br&gt;Location: 21104 - 23246" locus_tag="ctg24_18" class="clusterblast-orf" id="dummy-1_q10_0_all"  />
<polygon points="164,35 169,30 170,30 170,40 169,40 164,35 " style="fill:#d815c3; stroke-width:1; stroke:black; " description="&lt;b&gt;ctg24_19&lt;/b&gt;&lt;br&gt;ctg24 19&lt;br&gt;Location: 23291 - 23762" locus_tag="ctg24_19" class="clusterblast-orf" id="dummy-1_q11_0_all"  />
<polygon points="172,40 182,40 187,35 182,30 172,30 172,40 " style="fill:#d89715; stroke-width:1; stroke:black; " description="&lt;b&gt;ctg24_20&lt;/b&gt;&lt;br&gt;ctg24 20&lt;br&gt;Location: 23885 - 25130" locus_tag="ctg24_20" class="clusterblast-orf" id="dummy-1_q12_0_all"  />
<polygon points="190,40 194,40 199,35 194,30 190,30 190,40 " style="fill:#15d841; stroke-width:1; stroke:black; " description="&lt;b&gt;ctg24_21&lt;/b&gt;&lt;br&gt;ctg24 21&lt;br&gt;Location: 25362 - 26040" locus_tag="ctg24_21" class="clusterblast-orf" id="dummy-1_q13_0_all"  />
<polygon points="201,35 206,30 225,30 225,40 206,40 201,35 " style="fill:#1541d8; stroke-width:1; stroke:black; " description="&lt;b&gt;ctg24_22&lt;/b&gt;&lt;br&gt;ctg24 22&lt;br&gt;Location: 26167 - 28126" locus_tag="ctg24_22" class="clusterblast-orf" id="dummy-1_q14_0_all"  />
<polygon points="225,35 230,30 240,30 240,40 230,40 225,35 " style="fill:#d81597; stroke-width:1; stroke:black; " description="&lt;b&gt;ctg24_23&lt;/b&gt;&lt;br&gt;ctg24 23&lt;br&gt;Location: 28129 - 29272" locus_tag="ctg24_23" class="clusterblast-orf" id="dummy-1_q15_0_all"  />
<polygon points="240,35 245,30 383,30 383,40 245,40 240,35 " style="fill:#d8c315; stroke-width:1; stroke:black; " description="&lt;b&gt;ctg24_24&lt;/b&gt;&lt;br&gt;ctg24 24&lt;br&gt;Location: 29268 - 40605" locus_tag="ctg24_24" class="clusterblast-orf" id="dummy-1_q16_0_all"  />
<polygon points="383,35 388,30 546,30 546,40 388,40 383,35 " style="fill:#d8c315; stroke-width:1; stroke:black; " description="&lt;b&gt;ctg24_25&lt;/b&gt;&lt;br&gt;ctg24 25&lt;br&gt;Location: 40601 - 53513" locus_tag="ctg24_25" class="clusterblast-orf" id="dummy-1_q17_0_all"  />
<polygon points="549,35 554,30 556,30 556,40 554,40 549,35 " style="fill:#15d86c; stroke-width:1; stroke:black; " description="&lt;b&gt;ctg24_26&lt;/b&gt;&lt;br&gt;ctg24 26&lt;br&gt;Location: 53722 - 54268" locus_tag="ctg24_26" class="clusterblast-orf" id="dummy-1_q18_0_all"  />
<polygon points="558,35 563,30 570,30 570,40 563,40 558,35 " style="fill:#1515d8; stroke-width:1; stroke:black; " description="&lt;b&gt;ctg24_27&lt;/b&gt;&lt;br&gt;ctg24 27&lt;br&gt;Location: 54387 - 55386" locus_tag="ctg24_27" class="clusterblast-orf" id="dummy-1_q19_0_all"  />
<polygon points="570,35 575,30 618,30 618,40 575,40 570,35 " style="fill:#1515d8; stroke-width:1; stroke:black; " description="&lt;b&gt;ctg24_28&lt;/b&gt;&lt;br&gt;ctg24 28&lt;br&gt;Location: 55385 - 59147" locus_tag="ctg24_28" class="clusterblast-orf" id="dummy-1_q20_0_all"  />
<polygon points="618,35 623,30 631,30 631,40 623,40 618,35 " style="fill:#d8156c; stroke-width:1; stroke:black; " description="&lt;b&gt;ctg24_29&lt;/b&gt;&lt;br&gt;ctg24 29&lt;br&gt;Location: 59150 - 60212" locus_tag="ctg24_29" class="clusterblast-orf" id="dummy-1_q21_0_all"  />
<polygon points="649,40 651,35 649,30 649,40 " style="fill:#c3d815; stroke-width:1; stroke:black; " description="&lt;b&gt;ctg24_30&lt;/b&gt;&lt;br&gt;ctg24 30&lt;br&gt;Location: 61595 - 61784" locus_tag="ctg24_30" class="clusterblast-orf" id="dummy-1_q22_0_all"  />
<polygon points="651,40 655,40 660,35 655,30 651,30 651,40 " style="fill:#15d897; stroke-width:1; stroke:black; " description="&lt;b&gt;ctg24_31&lt;/b&gt;&lt;br&gt;ctg24 31&lt;br&gt;Location: 61795 - 62500" locus_tag="ctg24_31" class="clusterblast-orf" id="dummy-1_q23_0_all"  />
<polygon points="660,40 660,40 665,35 660,30 660,30 660,40 " style="fill:#4115d8; stroke-width:1; stroke:black; " description="&lt;b&gt;ctg24_32&lt;/b&gt;&lt;br&gt;ctg24 32&lt;br&gt;Location: 62496 - 62889" locus_tag="ctg24_32" class="clusterblast-orf" id="dummy-1_q24_0_all"  />
<polygon points="666,40 670,40 675,35 670,30 666,30 666,40 " style="fill:#d81541; stroke-width:1; stroke:black; " description="&lt;b&gt;ctg24_33&lt;/b&gt;&lt;br&gt;ctg24 33&lt;br&gt;Location: 62959 - 63706" locus_tag="ctg24_33" class="clusterblast-orf" id="dummy-1_q25_0_all"  />
<polygon points="678,35 683,30 685,30 685,40 683,40 678,35 " style="fill:#97d815; stroke-width:1; stroke:black; " description="&lt;b&gt;ctg24_34&lt;/b&gt;&lt;br&gt;ctg24 34&lt;br&gt;Location: 63909 - 64494" locus_tag="ctg24_34" class="clusterblast-orf" id="dummy-1_q26_0_all"  />
<polygon points="699,35 704,30 728,30 728,40 704,40 699,35 " style="fill:#15d8c3; stroke-width:1; stroke:black; " description="&lt;b&gt;ctg24_35&lt;/b&gt;&lt;br&gt;ctg24 35&lt;br&gt;Location: 65576 - 67871" locus_tag="ctg24_35" class="clusterblast-orf" id="dummy-1_q27_0_all"  />
<polygon points="730,40 772,40 777,35 772,30 730,30 730,40 " style="fill:#6c15d8; stroke-width:1; stroke:black; " description="&lt;b&gt;ctg24_36&lt;/b&gt;&lt;br&gt;ctg24 36&lt;br&gt;Location: 68035 - 71746" locus_tag="ctg24_36" class="clusterblast-orf" id="dummy-1_q28_0_all"  />
</g>
<g label="NZ_MSDI01000033" description="NZ_MSDI01000033 (35897-100142): Pseudomonas fluorescens strain E24 PF E24 con... (90% of genes show similarity), NRPS" class="clusterblast-cluster"  >
<text x="5" y="70" class="clusterblast-acc"  >
<a xlink:href="https://antismash-db.secondarymetabolites.org/area.html?record=NZ_MSDI01000033&amp;start=35897&amp;end=100142" target="_blank">NZ_MSDI01000033 (35897-100142)</a>: Pseudomonas fluorescens strain E24 PF E24 con... (90% of genes show similarity), NRPS</text>
<line x1="10" y1="85" x2="778.0" y2="85" style="stroke-width:1; stroke:grey; "  />
</g>
<g id="a1_000"  >
<polygon points="0,90 3,90 8,85 3,80 0,80 0,90 " style="fill:#d81515; stroke-width:1; stroke:black; " description="&lt;b&gt;BFW91_RS24105&lt;/b&gt;&lt;br&gt;response regulator transcription factor&lt;br&gt;Location: 99487 - 98804&lt;br&gt;&lt;br&gt;&lt;b&gt;BlastP hit with ctg24_8&lt;/b&gt;&lt;br&gt;Percentage identity: 100&lt;br&gt;Percentage coverage: 100&lt;br&gt;BLAST bit score: 438&lt;br&gt;E-value: 6.91e-157" locus_tag="BFW91_RS24105" class="clusterblast-orf" id="dummy-1_h1_1_0"  />
</g>
<g id="a1_001"  >
<polygon points="8,90 20,90 25,85 20,80 8,80 8,90 " style="fill:#6cd815; stroke-width:1; stroke:black; " description="&lt;b&gt;BFW91_RS24100&lt;/b&gt;&lt;br&gt;HAMP domain-containing histidine kinase&lt;br&gt;Location: 98826 - 97435&lt;br&gt;&lt;br&gt;&lt;b&gt;BlastP hit with ctg24_9&lt;/b&gt;&lt;br&gt;Percentage identity: 98&lt;br&gt;Percentage coverage: 100&lt;br&gt;BLAST bit score: 900&lt;br&gt;E-value: 0.0" locus_tag="BFW91_RS24100" class="clusterblast-orf" id="dummy-1_h1_1_1"  />
</g>
<g id="a1_002"  >
<polygon points="27,85 32,80 32,80 32,90 32,90 27,85 " style="fill:#15c3d8; stroke-width:1; stroke:black; " description="&lt;b&gt;BFW91_RS24095&lt;/b&gt;&lt;br&gt;SRPBCC family protein&lt;br&gt;Location: 97302 - 96886&lt;br&gt;&lt;br&gt;&lt;b&gt;BlastP hit with ctg24_10&lt;/b&gt;&lt;br&gt;Percentage identity: 97&lt;br&gt;Percentage coverage: 100&lt;br&gt;BLAST bit score: 224&lt;br&gt;E-value: 1.45e-75" locus_tag="BFW91_RS24095" class="clusterblast-orf" id="dummy-1_h1_1_2"  />
</g>
<g id="a1_003"  >
<polygon points="33,85 38,80 43,80 43,90 38,90 33,85 " style="fill:#9715d8; stroke-width:1; stroke:black; " description="&lt;b&gt;BFW91_RS24090&lt;/b&gt;&lt;br&gt;SDR family oxidoreductase&lt;br&gt;Location: 96858 - 96061&lt;br&gt;&lt;br&gt;&lt;b&gt;BlastP hit with ctg24_11&lt;/b&gt;&lt;br&gt;Percentage identity: 99&lt;br&gt;Percentage coverage: 100&lt;br&gt;BLAST bit score: 493&lt;br&gt;E-value: 2.04e-177" locus_tag="BFW91_RS24090" class="clusterblast-orf" id="dummy-1_h1_1_3"  />
</g>
<g id="a1_004"  >
<polygon points="43,85 46,80 46,90 43,85 " style="fill:#d84115; stroke-width:1; stroke:black; " description="&lt;b&gt;BFW91_RS24085&lt;/b&gt;&lt;br&gt;aldo/keto reductase&lt;br&gt;Location: 96045 - 95818&lt;br&gt;&lt;br&gt;&lt;b&gt;BlastP hit with ctg24_12&lt;/b&gt;&lt;br&gt;Percentage identity: 95&lt;br&gt;Percentage coverage: 22&lt;br&gt;BLAST bit score: 131&lt;br&gt;E-value: 1.83e-36" locus_tag="BFW91_RS24085" class="clusterblast-orf" id="dummy-1_h1_1_4"  />
</g>
<g id="a1_005"  >
<polygon points="46,90 48,90 53,85 48,80 46,80 46,90 " style="fill:#41d815; stroke-width:1; stroke:black; " description="&lt;b&gt;BFW91_RS24080&lt;/b&gt;&lt;br&gt;hypothetical protein&lt;br&gt;Location: 95810 - 95284&lt;br&gt;&lt;br&gt;&lt;b&gt;BlastP hit with ctg24_13&lt;/b&gt;&lt;br&gt;Percentage identity: 92&lt;br&gt;Percentage coverage: 29&lt;br&gt;BLAST bit score: 155&lt;br&gt;E-value: 6.08e-46" locus_tag="BFW91_RS24080" class="clusterblast-orf" id="dummy-1_h1_1_5"  />
</g>
<g id="a1_006"  >
<polygon points="54,85 59,80 70,80 70,90 59,90 54,85 " style="fill:#1597d8; stroke-width:1; stroke:black; " description="&lt;b&gt;BFW91_RS24075&lt;/b&gt;&lt;br&gt;FAD-binding oxidoreductase&lt;br&gt;Location: 95170 - 93875&lt;br&gt;&lt;br&gt;&lt;b&gt;BlastP hit with ctg24_14&lt;/b&gt;&lt;br&gt;Percentage identity: 98&lt;br&gt;Percentage coverage: 100&lt;br&gt;BLAST bit score: 857&lt;br&gt;E-value: 1.51e-315" locus_tag="BFW91_RS24075" class="clusterblast-orf" id="dummy-1_h1_1_6"  />
</g>
<g id="a1_007"  >
<polygon points="70,85 75,80 84,80 84,90 75,90 70,85 " style="fill:#c315d8; stroke-width:1; stroke:black; " description="&lt;b&gt;BFW91_RS24070&lt;/b&gt;&lt;br&gt;polyamine ABC transporter substrate-binding protein&lt;br&gt;Location: 93878 - 92790&lt;br&gt;&lt;br&gt;&lt;b&gt;BlastP hit with ctg24_15&lt;/b&gt;&lt;br&gt;Percentage identity: 99&lt;br&gt;Percentage coverage: 100&lt;br&gt;BLAST bit score: 721&lt;br&gt;E-value: 2.18e-264" locus_tag="BFW91_RS24070" class="clusterblast-orf" id="dummy-1_h1_1_7"  />
</g>
<g id="a1_008"  >
<polygon points="85,85 90,80 102,80 102,90 90,90 85,85 " style="fill:#d86c15; stroke-width:1; stroke:black; " description="&lt;b&gt;BFW91_RS24065&lt;/b&gt;&lt;br&gt;glutamine synthetase&lt;br&gt;Location: 92767 - 91409&lt;br&gt;&lt;br&gt;&lt;b&gt;BlastP hit with ctg24_16&lt;/b&gt;&lt;br&gt;Percentage identity: 100&lt;br&gt;Percentage coverage: 100&lt;br&gt;BLAST bit score: 923&lt;br&gt;E-value: 0.0" locus_tag="BFW91_RS24065" class="clusterblast-orf" id="dummy-1_h1_1_8"  />
</g>
<g id="a1_009"  >
<polygon points="103,90 110,90 115,85 110,80 103,80 103,90 " style="fill:#15d815; stroke-width:1; stroke:black; " description="&lt;b&gt;BFW91_RS24060&lt;/b&gt;&lt;br&gt;helix-turn-helix domain-containing protein&lt;br&gt;Location: 91270 - 90374&lt;br&gt;&lt;br&gt;&lt;b&gt;BlastP hit with ctg24_17&lt;/b&gt;&lt;br&gt;Percentage identity: 99&lt;br&gt;Percentage coverage: 100&lt;br&gt;BLAST bit score: 531&lt;br&gt;E-value: 5.55e-192" locus_tag="BFW91_RS24060" class="clusterblast-orf" id="dummy-1_h1_1_9"  />
</g>
<g id="a1_0010"  >
<polygon points="116,90 138,90 143,85 138,80 116,80 116,90 " style="fill:#156cd8; stroke-width:1; stroke:black; " description="&lt;b&gt;BFW91_RS24055&lt;/b&gt;&lt;br&gt;TonB-dependent siderophore receptor&lt;br&gt;Location: 90268 - 88127&lt;br&gt;&lt;br&gt;&lt;b&gt;BlastP hit with ctg24_18&lt;/b&gt;&lt;br&gt;Percentage identity: 97&lt;br&gt;Percentage coverage: 100&lt;br&gt;BLAST bit score: 1397&lt;br&gt;E-value: 0.0" locus_tag="BFW91_RS24055" class="clusterblast-orf" id="dummy-1_h1_1_10"  />
</g>
<g id="a1_0011"  >
<polygon points="143,85 148,80 157,80 157,90 148,90 143,85 " style="fill:white; stroke-width:1; stroke:black; " description="&lt;b&gt;BFW91_RS24050&lt;/b&gt;&lt;br&gt;MFS transporter&lt;br&gt;Location: 88137 - 87007" locus_tag="BFW91_RS24050" class="clusterblast-orf" id="dummy-1_h1_1_11"  />
</g>
<g id="a1_0012"  >
<polygon points="159,90 163,90 168,85 163,80 159,80 159,90 " style="fill:white; stroke-width:1; stroke:black; " description="&lt;b&gt;BFW91_RS24045&lt;/b&gt;&lt;br&gt;helix-turn-helix transcriptional regulator&lt;br&gt;Location: 86908 - 86138" locus_tag="BFW91_RS24045" class="clusterblast-orf" id="dummy-1_h1_1_12"  />
</g>
<g id="a1_0013"  >
<polygon points="169,85 174,80 175,80 175,90 174,90 169,85 " style="fill:#d815c3; stroke-width:1; stroke:black; " description="&lt;b&gt;BFW91_RS24040&lt;/b&gt;&lt;br&gt;Lrp/AsnC family transcriptional regulator&lt;br&gt;Location: 86060 - 85590&lt;br&gt;&lt;br&gt;&lt;b&gt;BlastP hit with ctg24_19&lt;/b&gt;&lt;br&gt;Percentage identity: 99&lt;br&gt;Percentage coverage: 100&lt;br&gt;BLAST bit score: 305&lt;br&gt;E-value: 2.52e-106" locus_tag="BFW91_RS24040" class="clusterblast-orf" id="dummy-1_h1_1_13"  />
</g>
<g id="a1_0014"  >
<polygon points="177,90 188,90 193,85 188,80 177,80 177,90 " style="fill:#d89715; stroke-width:1; stroke:black; " description="&lt;b&gt;BFW91_RS24035&lt;/b&gt;&lt;br&gt;methionine gamma-lyase&lt;br&gt;Location: 85466 - 84222&lt;br&gt;&lt;br&gt;&lt;b&gt;BlastP hit with ctg24_20&lt;/b&gt;&lt;br&gt;Percentage identity: 98&lt;br&gt;Percentage coverage: 100&lt;br&gt;BLAST bit score: 808&lt;br&gt;E-value: 6.42e-297" locus_tag="BFW91_RS24035" class="clusterblast-orf" id="dummy-1_h1_1_14"  />
</g>
<g id="a1_0015"  >
<polygon points="196,90 199,90 204,85 199,80 196,80 196,90 " style="fill:#15d841; stroke-width:1; stroke:black; " description="&lt;b&gt;BFW91_RS24030&lt;/b&gt;&lt;br&gt;helix-turn-helix transcriptional regulator&lt;br&gt;Location: 83989 - 83312&lt;br&gt;&lt;br&gt;&lt;b&gt;BlastP hit with ctg24_21&lt;/b&gt;&lt;br&gt;Percentage identity: 95&lt;br&gt;Percentage coverage: 100&lt;br&gt;BLAST bit score: 414&lt;br&gt;E-value: 3.38e-147" locus_tag="BFW91_RS24030" class="clusterblast-orf" id="dummy-1_h1_1_15"  />
</g>
<g id="a1_0016"  >
<polygon points="205,85 210,80 230,80 230,90 210,90 205,85 " style="fill:#1541d8; stroke-width:1; stroke:black; " description="&lt;b&gt;BFW91_RS24025&lt;/b&gt;&lt;br&gt;MacB family efflux pump subunit&lt;br&gt;Location: 83243 - 81285&lt;br&gt;&lt;br&gt;&lt;b&gt;BlastP hit with ctg24_22&lt;/b&gt;&lt;br&gt;Percentage identity: 98&lt;br&gt;Percentage coverage: 100&lt;br&gt;BLAST bit score: 1216&lt;br&gt;E-value: 0.0" locus_tag="BFW91_RS24025" class="clusterblast-orf" id="dummy-1_h1_1_16"  />
</g>
<g id="a1_0017"  >
<polygon points="230,85 235,80 244,80 244,90 235,90 230,85 " style="fill:#d81597; stroke-width:1; stroke:black; " description="&lt;b&gt;BFW91_RS24020&lt;/b&gt;&lt;br&gt;macrolide transporter subunit MacA&lt;br&gt;Location: 81281 - 80160&lt;br&gt;&lt;br&gt;&lt;b&gt;BlastP hit with ctg24_23&lt;/b&gt;&lt;br&gt;Percentage identity: 97&lt;br&gt;Percentage coverage: 98&lt;br&gt;BLAST bit score: 669&lt;br&gt;E-value: 3.61e-243" locus_tag="BFW91_RS24020" class="clusterblast-orf" id="dummy-1_h1_1_17"  />
</g>
<g id="a1_0018"  >
<polygon points="244,85 249,80 388,80 388,90 249,90 244,85 " style="fill:#d8c315; stroke-width:1; stroke:black; " description="&lt;b&gt;BFW91_RS24015&lt;/b&gt;&lt;br&gt;amino acid adenylation domain-containing protein&lt;br&gt;Location: 80142 - 68806&lt;br&gt;&lt;br&gt;&lt;b&gt;BlastP hit with ctg24_24&lt;/b&gt;&lt;br&gt;Percentage identity: 96&lt;br&gt;Percentage coverage: 100&lt;br&gt;BLAST bit score: 7174&lt;br&gt;E-value: 0.0&lt;br&gt;&lt;br&gt;&lt;b&gt;BlastP hit with ctg24_25&lt;/b&gt;&lt;br&gt;Percentage identity: 60&lt;br&gt;Percentage coverage: 50&lt;br&gt;BLAST bit score: 2404&lt;br&gt;E-value: 0.0" locus_tag="BFW91_RS24015" class="clusterblast-orf" id="dummy-1_h1_1_18"  />
</g>
<g id="a1_0019"  >
<polygon points="388,85 393,80 551,80 551,90 393,90 388,85 " style="fill:#d8c315; stroke-width:1; stroke:black; " description="&lt;b&gt;BFW91_RS24010&lt;/b&gt;&lt;br&gt;non-ribosomal peptide synthetase&lt;br&gt;Location: 68809 - 55898&lt;br&gt;&lt;br&gt;&lt;b&gt;BlastP hit with ctg24_24&lt;/b&gt;&lt;br&gt;Percentage identity: 60&lt;br&gt;Percentage coverage: 57&lt;br&gt;BLAST bit score: 2402&lt;br&gt;E-value: 0.0&lt;br&gt;&lt;br&gt;&lt;b&gt;BlastP hit with ctg24_25&lt;/b&gt;&lt;br&gt;Percentage identity: 96&lt;br&gt;Percentage coverage: 100&lt;br&gt;BLAST bit score: 8103&lt;br&gt;E-value: 0.0" locus_tag="BFW91_RS24010" class="clusterblast-orf" id="dummy-1_h1_1_19"  />
</g>
<g id="a1_0020"  >
<polygon points="554,85 559,80 563,80 563,90 559,90 554,85 " style="fill:#15d86c; stroke-width:1; stroke:black; " description="&lt;b&gt;BFW91_RS24005&lt;/b&gt;&lt;br&gt;VWA domain-containing protein&lt;br&gt;Location: 55690 - 54950&lt;br&gt;&lt;br&gt;&lt;b&gt;BlastP hit with ctg24_26&lt;/b&gt;&lt;br&gt;Percentage identity: 92&lt;br&gt;Percentage coverage: 100&lt;br&gt;BLAST bit score: 327&lt;br&gt;E-value: 2.29e-113" locus_tag="BFW91_RS24005" class="clusterblast-orf" id="dummy-1_h1_1_20"  />
</g>
<g id="a1_0021"  >
<polygon points="562,85 567,80 575,80 575,90 567,90 562,85 " style="fill:#1515d8; stroke-width:1; stroke:black; " description="&lt;b&gt;BFW91_RS24000&lt;/b&gt;&lt;br&gt;AAA family ATPase&lt;br&gt;Location: 55025 - 54027&lt;br&gt;&lt;br&gt;&lt;b&gt;BlastP hit with ctg24_27&lt;/b&gt;&lt;br&gt;Percentage identity: 97&lt;br&gt;Percentage coverage: 100&lt;br&gt;BLAST bit score: 634&lt;br&gt;E-value: 1.19e-230" locus_tag="BFW91_RS24000" class="clusterblast-orf" id="dummy-1_h1_1_21"  />
</g>
<g id="a1_0022"  >
<polygon points="575,85 580,80 622,80 622,90 580,90 575,85 " style="fill:#1515d8; stroke-width:1; stroke:black; " description="&lt;b&gt;BFW91_RS23995&lt;/b&gt;&lt;br&gt;cobaltochelatase subunit CobN&lt;br&gt;Location: 54027 - 50266&lt;br&gt;&lt;br&gt;&lt;b&gt;BlastP hit with ctg24_28&lt;/b&gt;&lt;br&gt;Percentage identity: 98&lt;br&gt;Percentage coverage: 100&lt;br&gt;BLAST bit score: 2484&lt;br&gt;E-value: 0.0" locus_tag="BFW91_RS23995" class="clusterblast-orf" id="dummy-1_h1_1_22"  />
</g>
<g id="a1_0023"  >
<polygon points="622,85 627,80 636,80 636,90 627,90 622,85 " style="fill:#d8156c; stroke-width:1; stroke:black; " description="&lt;b&gt;BFW91_RS23990&lt;/b&gt;&lt;br&gt;cobalamin biosynthesis protein CobW&lt;br&gt;Location: 50262 - 49141&lt;br&gt;&lt;br&gt;&lt;b&gt;BlastP hit with ctg24_29&lt;/b&gt;&lt;br&gt;Percentage identity: 98&lt;br&gt;Percentage coverage: 100&lt;br&gt;BLAST bit score: 637&lt;br&gt;E-value: 5.43e-231" locus_tag="BFW91_RS23990" class="clusterblast-orf" id="dummy-1_h1_1_23"  />
</g>
<g id="a1_0024"  >
<polygon points="641,90 645,90 650,85 645,80 641,80 641,90 " style="fill:white; stroke-width:1; stroke:black; " description="&lt;b&gt;BFW91_RS30300&lt;/b&gt;&lt;br&gt;hypothetical protein&lt;br&gt;Location: 48745 - 48068" locus_tag="BFW91_RS30300" class="clusterblast-orf" id="dummy-1_h1_1_24"  />
</g>
<g id="a1_0025"  >
<polygon points="655,90 657,85 655,80 655,90 " style="fill:#c3d815; stroke-width:1; stroke:black; " description="&lt;b&gt;BFW91_RS23980&lt;/b&gt;&lt;br&gt;CbtB-domain containing protein&lt;br&gt;Location: 47672 - 47484&lt;br&gt;&lt;br&gt;&lt;b&gt;BlastP hit with ctg24_30&lt;/b&gt;&lt;br&gt;Percentage identity: 97&lt;br&gt;Percentage coverage: 100&lt;br&gt;BLAST bit score: 114&lt;br&gt;E-value: 6.12e-34" locus_tag="BFW91_RS23980" class="clusterblast-orf" id="dummy-1_h1_1_25"  />
</g>
<g id="a1_0026"  >
<polygon points="657,90 661,90 666,85 661,80 657,80 657,90 " style="fill:#15d897; stroke-width:1; stroke:black; " description="&lt;b&gt;BFW91_RS23975&lt;/b&gt;&lt;br&gt;CbtA family protein&lt;br&gt;Location: 47472 - 46771&lt;br&gt;&lt;br&gt;&lt;b&gt;BlastP hit with ctg24_31&lt;/b&gt;&lt;br&gt;Percentage identity: 93&lt;br&gt;Percentage coverage: 100&lt;br&gt;BLAST bit score: 421&lt;br&gt;E-value: 8.24e-150" locus_tag="BFW91_RS23975" class="clusterblast-orf" id="dummy-1_h1_1_26"  />
</g>
<g id="a1_0027"  >
<polygon points="666,90 666,90 671,85 666,80 666,80 666,90 " style="fill:#4115d8; stroke-width:1; stroke:black; " description="&lt;b&gt;BFW91_RS23970&lt;/b&gt;&lt;br&gt;cobalamin biosynthesis protein&lt;br&gt;Location: 46774 - 46382&lt;br&gt;&lt;br&gt;&lt;b&gt;BlastP hit with ctg24_32&lt;/b&gt;&lt;br&gt;Percentage identity: 82&lt;br&gt;Percentage coverage: 98&lt;br&gt;BLAST bit score: 202&lt;br&gt;E-value: 1.86e-66" locus_tag="BFW91_RS23970" class="clusterblast-orf" id="dummy-1_h1_1_27"  />
</g>
<g id="a1_0028"  >
<polygon points="672,90 677,90 682,85 677,80 672,80 672,90 " style="fill:#d81541; stroke-width:1; stroke:black; " description="&lt;b&gt;BFW91_RS23965&lt;/b&gt;&lt;br&gt;precorrin-4 C(11)-methyltransferase&lt;br&gt;Location: 46311 - 45565&lt;br&gt;&lt;br&gt;&lt;b&gt;BlastP hit with ctg24_33&lt;/b&gt;&lt;br&gt;Percentage identity: 98&lt;br&gt;Percentage coverage: 100&lt;br&gt;BLAST bit score: 485&lt;br&gt;E-value: 8.73e-175" locus_tag="BFW91_RS23965" class="clusterblast-orf" id="dummy-1_h1_1_28"  />
</g>
<g id="a1_0029"  >
<polygon points="684,85 689,80 691,80 691,90 689,90 684,85 " style="fill:#97d815; stroke-width:1; stroke:black; " description="&lt;b&gt;BFW91_RS23960&lt;/b&gt;&lt;br&gt;Fe-S biogenesis protein NfuA&lt;br&gt;Location: 45393 - 44809&lt;br&gt;&lt;br&gt;&lt;b&gt;BlastP hit with ctg24_34&lt;/b&gt;&lt;br&gt;Percentage identity: 100&lt;br&gt;Percentage coverage: 100&lt;br&gt;BLAST bit score: 392&lt;br&gt;E-value: 7.68e-140" locus_tag="BFW91_RS23960" class="clusterblast-orf" id="dummy-1_h1_1_29"  />
</g>
<g id="a1_0030"  >
<polygon points="701,85 706,80 730,80 730,90 706,90 701,85 " style="fill:#15d8c3; stroke-width:1; stroke:black; " description="&lt;b&gt;BFW91_RS23955&lt;/b&gt;&lt;br&gt;fatty acid cis/trans isomerase&lt;br&gt;Location: 43994 - 41700&lt;br&gt;&lt;br&gt;&lt;b&gt;BlastP hit with ctg24_35&lt;/b&gt;&lt;br&gt;Percentage identity: 97&lt;br&gt;Percentage coverage: 100&lt;br&gt;BLAST bit score: 1538&lt;br&gt;E-value: 0.0" locus_tag="BFW91_RS23955" class="clusterblast-orf" id="dummy-1_h1_1_30"  />
</g>
<g id="a1_0031"  >
<polygon points="733,90 775,90 780,85 775,80 733,80 733,90 " style="fill:#6c15d8; stroke-width:1; stroke:black; " description="&lt;b&gt;BFW91_RS23950&lt;/b&gt;&lt;br&gt;methionine synthase&lt;br&gt;Location: 41536 - 37826&lt;br&gt;&lt;br&gt;&lt;b&gt;BlastP hit with ctg24_36&lt;/b&gt;&lt;br&gt;Percentage identity: 98&lt;br&gt;Percentage coverage: 100&lt;br&gt;BLAST bit score: 2429&lt;br&gt;E-value: 0.0" locus_tag="BFW91_RS23950" class="clusterblast-orf" id="dummy-1_h1_1_31"  />
</g>
</svg>
