<svg xmlns="http://www.w3.org/2000/svg" xmlns:xlink="http://www.w3.org/1999/xlink" version="1.1" x="0" y="0" height="230" width="800" viewBox="0 0 800 230" preserveAspectRatio="none"  >
<g label="Query sequence" class="clusterblast-cluster"  >
<text x="5" y="20" class="clusterblast-acc"  >
Query sequence</text>
<line x1="10" y1="35" x2="778.0" y2="35" style="stroke-width:1; stroke:grey; "  />
<polygon points="0,40 52,40 57,35 52,30 0,30 0,40 " style="fill:#d81515; stroke-width:1; stroke:black; " description="&lt;b&gt;ctg1_248&lt;/b&gt;&lt;br&gt;ctg1 248&lt;br&gt;Location: 274591 - 275425" locus_tag="ctg1_248" class="clusterblast-orf" id="dummy-1_q0_0_all"  />
<polygon points="58,40 90,40 95,35 90,30 58,30 58,40 " style="fill:#3cd815; stroke-width:1; stroke:black; " description="&lt;b&gt;ctg1_249&lt;/b&gt;&lt;br&gt;ctg1 249&lt;br&gt;Location: 275450 - 275996" locus_tag="ctg1_249" class="clusterblast-orf" id="dummy-1_q1_0_all"  />
<polygon points="102,35 107,30 246,30 246,40 107,40 102,35 " style="fill:#1563d8; stroke-width:1; stroke:black; " description="&lt;b&gt;ctg1_250&lt;/b&gt;&lt;br&gt;ctg1 250&lt;br&gt;Location: 276098 - 278219" locus_tag="ctg1_250" class="clusterblast-orf" id="dummy-1_q2_0_all"  />
<polygon points="246,35 251,30 328,30 328,40 251,40 246,35 " style="fill:#b115d8; stroke-width:1; stroke:black; " description="&lt;b&gt;ctg1_251&lt;/b&gt;&lt;br&gt;ctg1 251&lt;br&gt;Location: 278230 - 279442" locus_tag="ctg1_251" class="clusterblast-orf" id="dummy-1_q3_0_all"  />
<polygon points="328,35 333,30 458,30 458,40 333,40 328,35 " style="fill:#d88a15; stroke-width:1; stroke:black; " description="&lt;b&gt;ctg1_252&lt;/b&gt;&lt;br&gt;ctg1 252&lt;br&gt;Location: 279431 - 281357" locus_tag="ctg1_252" class="clusterblast-orf" id="dummy-1_q4_0_all"  />
<polygon points="484,35 489,30 497,30 497,40 489,40 484,35 " style="fill:#15d863; stroke-width:1; stroke:black; " description="&lt;b&gt;ctg1_253&lt;/b&gt;&lt;br&gt;ctg1 253&lt;br&gt;Location: 281738 - 281927" locus_tag="ctg1_253" class="clusterblast-orf" id="dummy-1_q5_0_all"  />
<polygon points="522,35 527,30 570,30 570,40 527,40 522,35 " style="fill:#3c15d8; stroke-width:1; stroke:black; " description="&lt;b&gt;ctg1_254&lt;/b&gt;&lt;br&gt;ctg1 254&lt;br&gt;Location: 282303 - 283017" locus_tag="ctg1_254" class="clusterblast-orf" id="dummy-1_q6_0_all"  />
<polygon points="571,35 576,30 615,30 615,40 576,40 571,35 " style="fill:#d8158a; stroke-width:1; stroke:black; " description="&lt;b&gt;ctg1_255&lt;/b&gt;&lt;br&gt;ctg1 255&lt;br&gt;Location: 283025 - 283676" locus_tag="ctg1_255" class="clusterblast-orf" id="dummy-1_q7_0_all"  />
<polygon points="615,35 620,30 687,30 687,40 620,40 615,35 " style="fill:#b1d815; stroke-width:1; stroke:black; " description="&lt;b&gt;ctg1_256&lt;/b&gt;&lt;br&gt;ctg1 256&lt;br&gt;Location: 283675 - 284734" locus_tag="ctg1_256" class="clusterblast-orf" id="dummy-1_q8_0_all"  />
<polygon points="710,40 775,40 780,35 775,30 710,30 710,40 " style="fill:#15d8d8; stroke-width:1; stroke:black; " description="&lt;b&gt;ctg1_257&lt;/b&gt;&lt;br&gt;ctg1 257&lt;br&gt;Location: 285077 - 286118" locus_tag="ctg1_257" class="clusterblast-orf" id="dummy-1_q9_0_all"  />
</g>
<g label="NZ_QKMB01000024" description="NZ_QKMB01000024 (26324-38250): Pseudomonas sp. OV286 Ga0215801 124, whole gen... (100% of genes show similarity), siderophore" class="clusterblast-cluster"  >
<text x="5" y="70" class="clusterblast-acc"  >
<a xlink:href="https://antismash-db.secondarymetabolites.org/area.html?record=NZ_QKMB01000024&amp;start=26324&amp;end=38250" target="_blank">NZ_QKMB01000024 (26324-38250)</a>: Pseudomonas sp. OV286 Ga0215801 124, whole gen... (100% of genes show similarity), siderophore</text>
<line x1="10" y1="85" x2="778.0" y2="85" style="stroke-width:1; stroke:grey; "  />
</g>
<g id="a1_000"  >
<polygon points="2,90 54,90 59,85 54,80 2,80 2,90 " style="fill:#d81515; stroke-width:1; stroke:black; " description="&lt;b&gt;C7535_RS23575&lt;/b&gt;&lt;br&gt;nucleoside triphosphate pyrophosphohydrolase&lt;br&gt;Location: 38053 - 37220&lt;br&gt;&lt;br&gt;&lt;b&gt;BlastP hit with ctg1_248&lt;/b&gt;&lt;br&gt;Percentage identity: 95&lt;br&gt;Percentage coverage: 100&lt;br&gt;BLAST bit score: 530&lt;br&gt;E-value: 1.7e-191" locus_tag="C7535_RS23575" class="clusterblast-orf" id="dummy-1_h1_6_0"  />
</g>
<g id="a1_001"  >
<polygon points="60,90 92,90 97,85 92,80 60,80 60,90 " style="fill:#3cd815; stroke-width:1; stroke:black; " description="&lt;b&gt;C7535_RS23570&lt;/b&gt;&lt;br&gt;DUF2058 domain-containing protein&lt;br&gt;Location: 37194 - 36649&lt;br&gt;&lt;br&gt;&lt;b&gt;BlastP hit with ctg1_249&lt;/b&gt;&lt;br&gt;Percentage identity: 83&lt;br&gt;Percentage coverage: 100&lt;br&gt;BLAST bit score: 271&lt;br&gt;E-value: 2.96e-92" locus_tag="C7535_RS23570" class="clusterblast-orf" id="dummy-1_h1_6_1"  />
</g>
<g id="a1_002"  >
<polygon points="102,85 107,80 245,80 245,90 107,90 102,85 " style="fill:#1563d8; stroke-width:1; stroke:black; " description="&lt;b&gt;C7535_RS23565&lt;/b&gt;&lt;br&gt;TonB-dependent receptor&lt;br&gt;Location: 36583 - 34463&lt;br&gt;&lt;br&gt;&lt;b&gt;BlastP hit with ctg1_250&lt;/b&gt;&lt;br&gt;Percentage identity: 95&lt;br&gt;Percentage coverage: 100&lt;br&gt;BLAST bit score: 1360&lt;br&gt;E-value: 0.0" locus_tag="C7535_RS23565" class="clusterblast-orf" id="dummy-1_h1_6_2"  />
</g>
<g id="a1_003"  >
<polygon points="245,85 250,80 328,80 328,90 250,90 245,85 " style="fill:#b115d8; stroke-width:1; stroke:black; " description="&lt;b&gt;C7535_RS23560&lt;/b&gt;&lt;br&gt;MFS transporter&lt;br&gt;Location: 34466 - 33240&lt;br&gt;&lt;br&gt;&lt;b&gt;BlastP hit with ctg1_251&lt;/b&gt;&lt;br&gt;Percentage identity: 94&lt;br&gt;Percentage coverage: 100&lt;br&gt;BLAST bit score: 730&lt;br&gt;E-value: 2e-266" locus_tag="C7535_RS23560" class="clusterblast-orf" id="dummy-1_h1_6_3"  />
</g>
<g id="a1_004"  >
<polygon points="327,85 332,80 457,80 457,90 332,90 327,85 " style="fill:#d88a15; stroke-width:1; stroke:black; " description="&lt;b&gt;C7535_RS23555&lt;/b&gt;&lt;br&gt;siderophore synthetase&lt;br&gt;Location: 33250 - 31325&lt;br&gt;&lt;br&gt;&lt;b&gt;BlastP hit with ctg1_252&lt;/b&gt;&lt;br&gt;Percentage identity: 90&lt;br&gt;Percentage coverage: 100&lt;br&gt;BLAST bit score: 1165&lt;br&gt;E-value: 0.0" locus_tag="C7535_RS23555" class="clusterblast-orf" id="dummy-1_h1_6_4"  />
</g>
<g id="a1_005"  >
<polygon points="484,85 489,80 496,80 496,90 489,90 484,85 " style="fill:#15d863; stroke-width:1; stroke:black; " description="&lt;b&gt;C7535_RS23550&lt;/b&gt;&lt;br&gt;hypothetical protein&lt;br&gt;Location: 30938 - 30750&lt;br&gt;&lt;br&gt;&lt;b&gt;BlastP hit with ctg1_253&lt;/b&gt;&lt;br&gt;Percentage identity: 95&lt;br&gt;Percentage coverage: 100&lt;br&gt;BLAST bit score: 123&lt;br&gt;E-value: 1.89e-37" locus_tag="C7535_RS23550" class="clusterblast-orf" id="dummy-1_h1_6_5"  />
</g>
<g id="a1_006"  >
<polygon points="518,85 523,80 566,80 566,90 523,90 518,85 " style="fill:#3c15d8; stroke-width:1; stroke:black; " description="&lt;b&gt;C7535_RS23545&lt;/b&gt;&lt;br&gt;DUF3108 domain-containing protein&lt;br&gt;Location: 30430 - 29717&lt;br&gt;&lt;br&gt;&lt;b&gt;BlastP hit with ctg1_254&lt;/b&gt;&lt;br&gt;Percentage identity: 92&lt;br&gt;Percentage coverage: 100&lt;br&gt;BLAST bit score: 425&lt;br&gt;E-value: 2.26e-151" locus_tag="C7535_RS23545" class="clusterblast-orf" id="dummy-1_h1_6_6"  />
</g>
<g id="a1_007"  >
<polygon points="567,85 572,80 611,80 611,90 572,90 567,85 " style="fill:#d8158a; stroke-width:1; stroke:black; " description="&lt;b&gt;C7535_RS23540&lt;/b&gt;&lt;br&gt;phosphoribosylglycinamide formyltransferase&lt;br&gt;Location: 29708 - 29058&lt;br&gt;&lt;br&gt;&lt;b&gt;BlastP hit with ctg1_255&lt;/b&gt;&lt;br&gt;Percentage identity: 98&lt;br&gt;Percentage coverage: 100&lt;br&gt;BLAST bit score: 421&lt;br&gt;E-value: 2.16e-150" locus_tag="C7535_RS23540" class="clusterblast-orf" id="dummy-1_h1_6_7"  />
</g>
<g id="a1_008"  >
<polygon points="611,85 616,80 682,80 682,90 616,90 611,85 " style="fill:#b1d815; stroke-width:1; stroke:black; " description="&lt;b&gt;C7535_RS23535&lt;/b&gt;&lt;br&gt;phosphoribosylformylglycinamidine cyclo-ligase&lt;br&gt;Location: 29058 - 28000&lt;br&gt;&lt;br&gt;&lt;b&gt;BlastP hit with ctg1_256&lt;/b&gt;&lt;br&gt;Percentage identity: 99&lt;br&gt;Percentage coverage: 100&lt;br&gt;BLAST bit score: 699&lt;br&gt;E-value: 6.92e-256" locus_tag="C7535_RS23535" class="clusterblast-orf" id="dummy-1_h1_6_8"  />
</g>
<g id="a1_009"  >
<polygon points="706,90 772,90 777,85 772,80 706,80 706,90 " style="fill:#15d8d8; stroke-width:1; stroke:black; " description="&lt;b&gt;C7535_RS23530&lt;/b&gt;&lt;br&gt;DUF2066 domain-containing protein&lt;br&gt;Location: 27644 - 26604&lt;br&gt;&lt;br&gt;&lt;b&gt;BlastP hit with ctg1_257&lt;/b&gt;&lt;br&gt;Percentage identity: 94&lt;br&gt;Percentage coverage: 100&lt;br&gt;BLAST bit score: 638&lt;br&gt;E-value: 7.45e-232" locus_tag="C7535_RS23530" class="clusterblast-orf" id="dummy-1_h1_6_9"  />
</g>
</svg>
