<svg xmlns="http://www.w3.org/2000/svg" xmlns:xlink="http://www.w3.org/1999/xlink" version="1.1" x="0" y="0" height="230" width="800" viewBox="0 0 800 230" preserveAspectRatio="none"  >
<g label="Query sequence" class="clusterblast-cluster"  >
<text x="5" y="20" class="clusterblast-acc"  >
Query sequence</text>
<line x1="10" y1="35" x2="778.0" y2="35" style="stroke-width:1; stroke:grey; "  />
<polygon points="8,40 11,40 16,35 11,30 8,30 8,40 " style="fill:#d81515; stroke-width:1; stroke:black; " description="&lt;b&gt;ctg24_8&lt;/b&gt;&lt;br&gt;ctg24 8&lt;br&gt;Location: 10485 - 11169" locus_tag="ctg24_8" class="clusterblast-orf" id="dummy-1_q0_0_all"  />
<polygon points="16,40 29,40 34,35 29,30 16,30 16,40 " style="fill:#6cd815; stroke-width:1; stroke:black; " description="&lt;b&gt;ctg24_9&lt;/b&gt;&lt;br&gt;ctg24 9&lt;br&gt;Location: 11146 - 12541" locus_tag="ctg24_9" class="clusterblast-orf" id="dummy-1_q1_0_all"  />
<polygon points="37,35 42,30 42,30 42,40 42,40 37,35 " style="fill:#15c3d8; stroke-width:1; stroke:black; " description="&lt;b&gt;ctg24_10&lt;/b&gt;&lt;br&gt;ctg24 10&lt;br&gt;Location: 12827 - 13181" locus_tag="ctg24_10" class="clusterblast-orf" id="dummy-1_q2_0_all"  />
<polygon points="43,35 48,30 53,30 53,40 48,40 43,35 " style="fill:#9715d8; stroke-width:1; stroke:black; " description="&lt;b&gt;ctg24_11&lt;/b&gt;&lt;br&gt;ctg24 11&lt;br&gt;Location: 13265 - 14063" locus_tag="ctg24_11" class="clusterblast-orf" id="dummy-1_q3_0_all"  />
<polygon points="53,35 58,30 65,30 65,40 58,40 53,35 " style="fill:#d84115; stroke-width:1; stroke:black; " description="&lt;b&gt;ctg24_12&lt;/b&gt;&lt;br&gt;ctg24 12&lt;br&gt;Location: 14078 - 15083" locus_tag="ctg24_12" class="clusterblast-orf" id="dummy-1_q4_0_all"  />
<polygon points="67,40 73,40 78,35 73,30 67,30 67,40 " style="fill:#41d815; stroke-width:1; stroke:black; " description="&lt;b&gt;ctg24_13&lt;/b&gt;&lt;br&gt;ctg24 13&lt;br&gt;Location: 15196 - 16090" locus_tag="ctg24_13" class="clusterblast-orf" id="dummy-1_q5_0_all"  />
<polygon points="79,35 84,30 95,30 95,40 84,40 79,35 " style="fill:#1597d8; stroke-width:1; stroke:black; " description="&lt;b&gt;ctg24_14&lt;/b&gt;&lt;br&gt;ctg24 14&lt;br&gt;Location: 16202 - 17498" locus_tag="ctg24_14" class="clusterblast-orf" id="dummy-1_q6_0_all"  />
<polygon points="95,35 100,30 109,30 109,40 100,40 95,35 " style="fill:#c315d8; stroke-width:1; stroke:black; " description="&lt;b&gt;ctg24_15&lt;/b&gt;&lt;br&gt;ctg24 15&lt;br&gt;Location: 17494 - 18583" locus_tag="ctg24_15" class="clusterblast-orf" id="dummy-1_q7_0_all"  />
<polygon points="109,35 114,30 126,30 126,40 114,40 109,35 " style="fill:#d86c15; stroke-width:1; stroke:black; " description="&lt;b&gt;ctg24_16&lt;/b&gt;&lt;br&gt;ctg24 16&lt;br&gt;Location: 18605 - 19964" locus_tag="ctg24_16" class="clusterblast-orf" id="dummy-1_q8_0_all"  />
<polygon points="129,40 134,40 139,35 134,30 129,30 129,40 " style="fill:#15d815; stroke-width:1; stroke:black; " description="&lt;b&gt;ctg24_17&lt;/b&gt;&lt;br&gt;ctg24 17&lt;br&gt;Location: 20201 - 20999" locus_tag="ctg24_17" class="clusterblast-orf" id="dummy-1_q9_0_all"  />
<polygon points="140,40 162,40 167,35 162,30 140,30 140,40 " style="fill:#156cd8; stroke-width:1; stroke:black; " description="&lt;b&gt;ctg24_18&lt;/b&gt;&lt;br&gt;ctg24 18&lt;br&gt;Location: 21104 - 23246" locus_tag="ctg24_18" class="clusterblast-orf" id="dummy-1_q10_0_all"  />
<polygon points="168,35 173,30 173,30 173,40 173,40 168,35 " style="fill:#d815c3; stroke-width:1; stroke:black; " description="&lt;b&gt;ctg24_19&lt;/b&gt;&lt;br&gt;ctg24 19&lt;br&gt;Location: 23291 - 23762" locus_tag="ctg24_19" class="clusterblast-orf" id="dummy-1_q11_0_all"  />
<polygon points="175,40 185,40 190,35 185,30 175,30 175,40 " style="fill:#d89715; stroke-width:1; stroke:black; " description="&lt;b&gt;ctg24_20&lt;/b&gt;&lt;br&gt;ctg24 20&lt;br&gt;Location: 23885 - 25130" locus_tag="ctg24_20" class="clusterblast-orf" id="dummy-1_q12_0_all"  />
<polygon points="193,40 197,40 202,35 197,30 193,30 193,40 " style="fill:#15d841; stroke-width:1; stroke:black; " description="&lt;b&gt;ctg24_21&lt;/b&gt;&lt;br&gt;ctg24 21&lt;br&gt;Location: 25362 - 26040" locus_tag="ctg24_21" class="clusterblast-orf" id="dummy-1_q13_0_all"  />
<polygon points="203,35 208,30 228,30 228,40 208,40 203,35 " style="fill:#1541d8; stroke-width:1; stroke:black; " description="&lt;b&gt;ctg24_22&lt;/b&gt;&lt;br&gt;ctg24 22&lt;br&gt;Location: 26167 - 28126" locus_tag="ctg24_22" class="clusterblast-orf" id="dummy-1_q14_0_all"  />
<polygon points="228,35 233,30 242,30 242,40 233,40 228,35 " style="fill:#d81597; stroke-width:1; stroke:black; " description="&lt;b&gt;ctg24_23&lt;/b&gt;&lt;br&gt;ctg24 23&lt;br&gt;Location: 28129 - 29272" locus_tag="ctg24_23" class="clusterblast-orf" id="dummy-1_q15_0_all"  />
<polygon points="242,35 247,30 383,30 383,40 247,40 242,35 " style="fill:#d8c315; stroke-width:1; stroke:black; " description="&lt;b&gt;ctg24_24&lt;/b&gt;&lt;br&gt;ctg24 24&lt;br&gt;Location: 29268 - 40605" locus_tag="ctg24_24" class="clusterblast-orf" id="dummy-1_q16_0_all"  />
<polygon points="383,35 388,30 544,30 544,40 388,40 383,35 " style="fill:#d8c315; stroke-width:1; stroke:black; " description="&lt;b&gt;ctg24_25&lt;/b&gt;&lt;br&gt;ctg24 25&lt;br&gt;Location: 40601 - 53513" locus_tag="ctg24_25" class="clusterblast-orf" id="dummy-1_q17_0_all"  />
<polygon points="547,35 552,30 554,30 554,40 552,40 547,35 " style="fill:#15d86c; stroke-width:1; stroke:black; " description="&lt;b&gt;ctg24_26&lt;/b&gt;&lt;br&gt;ctg24 26&lt;br&gt;Location: 53722 - 54268" locus_tag="ctg24_26" class="clusterblast-orf" id="dummy-1_q18_0_all"  />
<polygon points="555,35 560,30 567,30 567,40 560,40 555,35 " style="fill:#1515d8; stroke-width:1; stroke:black; " description="&lt;b&gt;ctg24_27&lt;/b&gt;&lt;br&gt;ctg24 27&lt;br&gt;Location: 54387 - 55386" locus_tag="ctg24_27" class="clusterblast-orf" id="dummy-1_q19_0_all"  />
<polygon points="567,35 572,30 614,30 614,40 572,40 567,35 " style="fill:#1515d8; stroke-width:1; stroke:black; " description="&lt;b&gt;ctg24_28&lt;/b&gt;&lt;br&gt;ctg24 28&lt;br&gt;Location: 55385 - 59147" locus_tag="ctg24_28" class="clusterblast-orf" id="dummy-1_q20_0_all"  />
<polygon points="614,35 619,30 628,30 628,40 619,40 614,35 " style="fill:#d8156c; stroke-width:1; stroke:black; " description="&lt;b&gt;ctg24_29&lt;/b&gt;&lt;br&gt;ctg24 29&lt;br&gt;Location: 59150 - 60212" locus_tag="ctg24_29" class="clusterblast-orf" id="dummy-1_q21_0_all"  />
<polygon points="645,40 647,35 645,30 645,40 " style="fill:#c3d815; stroke-width:1; stroke:black; " description="&lt;b&gt;ctg24_30&lt;/b&gt;&lt;br&gt;ctg24 30&lt;br&gt;Location: 61595 - 61784" locus_tag="ctg24_30" class="clusterblast-orf" id="dummy-1_q22_0_all"  />
<polygon points="647,40 651,40 656,35 651,30 647,30 647,40 " style="fill:#15d897; stroke-width:1; stroke:black; " description="&lt;b&gt;ctg24_31&lt;/b&gt;&lt;br&gt;ctg24 31&lt;br&gt;Location: 61795 - 62500" locus_tag="ctg24_31" class="clusterblast-orf" id="dummy-1_q23_0_all"  />
<polygon points="656,40 656,40 661,35 656,30 656,30 656,40 " style="fill:#4115d8; stroke-width:1; stroke:black; " description="&lt;b&gt;ctg24_32&lt;/b&gt;&lt;br&gt;ctg24 32&lt;br&gt;Location: 62496 - 62889" locus_tag="ctg24_32" class="clusterblast-orf" id="dummy-1_q24_0_all"  />
<polygon points="662,40 666,40 671,35 666,30 662,30 662,40 " style="fill:#d81541; stroke-width:1; stroke:black; " description="&lt;b&gt;ctg24_33&lt;/b&gt;&lt;br&gt;ctg24 33&lt;br&gt;Location: 62959 - 63706" locus_tag="ctg24_33" class="clusterblast-orf" id="dummy-1_q25_0_all"  />
<polygon points="674,35 679,30 681,30 681,40 679,40 674,35 " style="fill:#97d815; stroke-width:1; stroke:black; " description="&lt;b&gt;ctg24_34&lt;/b&gt;&lt;br&gt;ctg24 34&lt;br&gt;Location: 63909 - 64494" locus_tag="ctg24_34" class="clusterblast-orf" id="dummy-1_q26_0_all"  />
<polygon points="694,35 699,30 723,30 723,40 699,40 694,35 " style="fill:#15d8c3; stroke-width:1; stroke:black; " description="&lt;b&gt;ctg24_35&lt;/b&gt;&lt;br&gt;ctg24 35&lt;br&gt;Location: 65576 - 67871" locus_tag="ctg24_35" class="clusterblast-orf" id="dummy-1_q27_0_all"  />
<polygon points="725,40 766,40 771,35 766,30 725,30 725,40 " style="fill:#6c15d8; stroke-width:1; stroke:black; " description="&lt;b&gt;ctg24_36&lt;/b&gt;&lt;br&gt;ctg24 36&lt;br&gt;Location: 68035 - 71746" locus_tag="ctg24_36" class="clusterblast-orf" id="dummy-1_q28_0_all"  />
</g>
<g label="NZ_CP052856" description="NZ_CP052856 (457315-519910): Pseudomonas sp. ADAK22 chromosome, complete genome (87% of genes show similarity), NRPS" class="clusterblast-cluster"  >
<text x="5" y="70" class="clusterblast-acc"  >
<a xlink:href="https://antismash-db.secondarymetabolites.org/area.html?record=NZ_CP052856&amp;start=457315&amp;end=519910" target="_blank">NZ_CP052856 (457315-519910)</a>: Pseudomonas sp. ADAK22 chromosome, complete genome (87% of genes show similarity), NRPS</text>
<line x1="10" y1="85" x2="778.0" y2="85" style="stroke-width:1; stroke:grey; "  />
</g>
<g id="a1_000"  >
<polygon points="0,85 5,80 5,80 5,90 5,90 0,85 " style="fill:#15c3d8; stroke-width:1; stroke:black; " description="&lt;b&gt;HKK58_RS02275&lt;/b&gt;&lt;br&gt;SRPBCC family protein&lt;br&gt;Location: 519910 - 519494&lt;br&gt;&lt;br&gt;&lt;b&gt;BlastP hit with ctg24_10&lt;/b&gt;&lt;br&gt;Percentage identity: 92&lt;br&gt;Percentage coverage: 100&lt;br&gt;BLAST bit score: 214&lt;br&gt;E-value: 1.89e-71" locus_tag="HKK58_RS02275" class="clusterblast-orf" id="dummy-1_h1_4_0"  />
</g>
<g id="a1_001"  >
<polygon points="5,85 10,80 15,80 15,90 10,90 5,85 " style="fill:#9715d8; stroke-width:1; stroke:black; " description="&lt;b&gt;HKK58_RS02270&lt;/b&gt;&lt;br&gt;SDR family oxidoreductase&lt;br&gt;Location: 519464 - 518667&lt;br&gt;&lt;br&gt;&lt;b&gt;BlastP hit with ctg24_11&lt;/b&gt;&lt;br&gt;Percentage identity: 95&lt;br&gt;Percentage coverage: 100&lt;br&gt;BLAST bit score: 474&lt;br&gt;E-value: 5.98e-170" locus_tag="HKK58_RS02270" class="clusterblast-orf" id="dummy-1_h1_4_1"  />
</g>
<g id="a1_002"  >
<polygon points="15,85 20,80 28,80 28,90 20,90 15,85 " style="fill:#d84115; stroke-width:1; stroke:black; " description="&lt;b&gt;HKK58_RS02265&lt;/b&gt;&lt;br&gt;aldo/keto reductase&lt;br&gt;Location: 518651 - 517647&lt;br&gt;&lt;br&gt;&lt;b&gt;BlastP hit with ctg24_12&lt;/b&gt;&lt;br&gt;Percentage identity: 96&lt;br&gt;Percentage coverage: 100&lt;br&gt;BLAST bit score: 627&lt;br&gt;E-value: 7.72e-228" locus_tag="HKK58_RS02265" class="clusterblast-orf" id="dummy-1_h1_4_2"  />
</g>
<g id="a1_003"  >
<polygon points="29,90 35,90 40,85 35,80 29,80 29,90 " style="fill:#41d815; stroke-width:1; stroke:black; " description="&lt;b&gt;HKK58_RS02260&lt;/b&gt;&lt;br&gt;LysR family transcriptional regulator&lt;br&gt;Location: 517533 - 516640&lt;br&gt;&lt;br&gt;&lt;b&gt;BlastP hit with ctg24_13&lt;/b&gt;&lt;br&gt;Percentage identity: 97&lt;br&gt;Percentage coverage: 100&lt;br&gt;BLAST bit score: 575&lt;br&gt;E-value: 8.21e-209" locus_tag="HKK58_RS02260" class="clusterblast-orf" id="dummy-1_h1_4_3"  />
</g>
<g id="a1_004"  >
<polygon points="42,85 47,80 58,80 58,90 47,90 42,85 " style="fill:#1597d8; stroke-width:1; stroke:black; " description="&lt;b&gt;HKK58_RS02255&lt;/b&gt;&lt;br&gt;FAD-dependent oxidoreductase&lt;br&gt;Location: 516533 - 515238&lt;br&gt;&lt;br&gt;&lt;b&gt;BlastP hit with ctg24_14&lt;/b&gt;&lt;br&gt;Percentage identity: 93&lt;br&gt;Percentage coverage: 99&lt;br&gt;BLAST bit score: 801&lt;br&gt;E-value: 9.43e-294" locus_tag="HKK58_RS02255" class="clusterblast-orf" id="dummy-1_h1_4_4"  />
</g>
<g id="a1_005"  >
<polygon points="58,85 63,80 71,80 71,90 63,90 58,85 " style="fill:#c315d8; stroke-width:1; stroke:black; " description="&lt;b&gt;HKK58_RS02250&lt;/b&gt;&lt;br&gt;polyamine ABC transporter substrate-binding protein&lt;br&gt;Location: 515241 - 514153&lt;br&gt;&lt;br&gt;&lt;b&gt;BlastP hit with ctg24_15&lt;/b&gt;&lt;br&gt;Percentage identity: 99&lt;br&gt;Percentage coverage: 100&lt;br&gt;BLAST bit score: 720&lt;br&gt;E-value: 6.24e-264" locus_tag="HKK58_RS02250" class="clusterblast-orf" id="dummy-1_h1_4_5"  />
</g>
<g id="a1_006"  >
<polygon points="72,85 77,80 88,80 88,90 77,90 72,85 " style="fill:#d86c15; stroke-width:1; stroke:black; " description="&lt;b&gt;HKK58_RS02245&lt;/b&gt;&lt;br&gt;glutamine synthetase&lt;br&gt;Location: 514129 - 512771&lt;br&gt;&lt;br&gt;&lt;b&gt;BlastP hit with ctg24_16&lt;/b&gt;&lt;br&gt;Percentage identity: 98&lt;br&gt;Percentage coverage: 100&lt;br&gt;BLAST bit score: 909&lt;br&gt;E-value: 0.0" locus_tag="HKK58_RS02245" class="clusterblast-orf" id="dummy-1_h1_4_6"  />
</g>
<g id="a1_007"  >
<polygon points="90,90 96,90 101,85 96,80 90,80 90,90 " style="fill:#15d815; stroke-width:1; stroke:black; " description="&lt;b&gt;HKK58_RS02240&lt;/b&gt;&lt;br&gt;helix-turn-helix domain-containing protein&lt;br&gt;Location: 512631 - 511735&lt;br&gt;&lt;br&gt;&lt;b&gt;BlastP hit with ctg24_17&lt;/b&gt;&lt;br&gt;Percentage identity: 97&lt;br&gt;Percentage coverage: 99&lt;br&gt;BLAST bit score: 518&lt;br&gt;E-value: 1.2e-186" locus_tag="HKK58_RS02240" class="clusterblast-orf" id="dummy-1_h1_4_7"  />
</g>
<g id="a1_008"  >
<polygon points="103,90 124,90 129,85 124,80 103,80 103,90 " style="fill:#156cd8; stroke-width:1; stroke:black; " description="&lt;b&gt;HKK58_RS02235&lt;/b&gt;&lt;br&gt;TonB-dependent siderophore receptor&lt;br&gt;Location: 511637 - 509478&lt;br&gt;&lt;br&gt;&lt;b&gt;BlastP hit with ctg24_18&lt;/b&gt;&lt;br&gt;Percentage identity: 90&lt;br&gt;Percentage coverage: 101&lt;br&gt;BLAST bit score: 1311&lt;br&gt;E-value: 0.0" locus_tag="HKK58_RS02235" class="clusterblast-orf" id="dummy-1_h1_4_8"  />
</g>
<g id="a1_009"  >
<polygon points="129,85 134,80 143,80 143,90 134,90 129,85 " style="fill:white; stroke-width:1; stroke:black; " description="&lt;b&gt;HKK58_RS02230&lt;/b&gt;&lt;br&gt;MFS transporter&lt;br&gt;Location: 509488 - 508358" locus_tag="HKK58_RS02230" class="clusterblast-orf" id="dummy-1_h1_4_9"  />
</g>
<g id="a1_0010"  >
<polygon points="145,90 149,90 154,85 149,80 145,80 145,90 " style="fill:white; stroke-width:1; stroke:black; " description="&lt;b&gt;HKK58_RS02225&lt;/b&gt;&lt;br&gt;helix-turn-helix transcriptional regulator&lt;br&gt;Location: 508260 - 507490" locus_tag="HKK58_RS02225" class="clusterblast-orf" id="dummy-1_h1_4_10"  />
</g>
<g id="a1_0011"  >
<polygon points="154,85 159,80 160,80 160,90 159,90 154,85 " style="fill:white; stroke-width:1; stroke:black; " description="&lt;b&gt;HKK58_RS02220&lt;/b&gt;&lt;br&gt;carboxymuconolactone decarboxylase family protein&lt;br&gt;Location: 507485 - 507048" locus_tag="HKK58_RS02220" class="clusterblast-orf" id="dummy-1_h1_4_11"  />
</g>
<g id="a1_0012"  >
<polygon points="161,85 166,80 167,80 167,90 166,90 161,85 " style="fill:#d815c3; stroke-width:1; stroke:black; " description="&lt;b&gt;HKK58_RS02215&lt;/b&gt;&lt;br&gt;Lrp/AsnC family transcriptional regulator&lt;br&gt;Location: 506926 - 506456&lt;br&gt;&lt;br&gt;&lt;b&gt;BlastP hit with ctg24_19&lt;/b&gt;&lt;br&gt;Percentage identity: 99&lt;br&gt;Percentage coverage: 100&lt;br&gt;BLAST bit score: 304&lt;br&gt;E-value: 3.57e-106" locus_tag="HKK58_RS02215" class="clusterblast-orf" id="dummy-1_h1_4_12"  />
</g>
<g id="a1_0013"  >
<polygon points="169,90 179,90 184,85 179,80 169,80 169,90 " style="fill:#d89715; stroke-width:1; stroke:black; " description="&lt;b&gt;HKK58_RS02210&lt;/b&gt;&lt;br&gt;methionine gamma-lyase&lt;br&gt;Location: 506332 - 505085&lt;br&gt;&lt;br&gt;&lt;b&gt;BlastP hit with ctg24_20&lt;/b&gt;&lt;br&gt;Percentage identity: 95&lt;br&gt;Percentage coverage: 100&lt;br&gt;BLAST bit score: 788&lt;br&gt;E-value: 5.61e-289" locus_tag="HKK58_RS02210" class="clusterblast-orf" id="dummy-1_h1_4_13"  />
</g>
<g id="a1_0014"  >
<polygon points="187,90 191,90 196,85 191,80 187,80 187,90 " style="fill:#15d841; stroke-width:1; stroke:black; " description="&lt;b&gt;HKK58_RS02205&lt;/b&gt;&lt;br&gt;helix-turn-helix transcriptional regulator&lt;br&gt;Location: 504852 - 504175&lt;br&gt;&lt;br&gt;&lt;b&gt;BlastP hit with ctg24_21&lt;/b&gt;&lt;br&gt;Percentage identity: 92&lt;br&gt;Percentage coverage: 100&lt;br&gt;BLAST bit score: 396&lt;br&gt;E-value: 3.47e-140" locus_tag="HKK58_RS02205" class="clusterblast-orf" id="dummy-1_h1_4_14"  />
</g>
<g id="a1_0015"  >
<polygon points="196,85 201,80 221,80 221,90 201,90 196,85 " style="fill:#1541d8; stroke-width:1; stroke:black; " description="&lt;b&gt;HKK58_RS02200&lt;/b&gt;&lt;br&gt;MacB family efflux pump subunit&lt;br&gt;Location: 504118 - 502160&lt;br&gt;&lt;br&gt;&lt;b&gt;BlastP hit with ctg24_22&lt;/b&gt;&lt;br&gt;Percentage identity: 98&lt;br&gt;Percentage coverage: 100&lt;br&gt;BLAST bit score: 1216&lt;br&gt;E-value: 0.0" locus_tag="HKK58_RS02200" class="clusterblast-orf" id="dummy-1_h1_4_15"  />
</g>
<g id="a1_0016"  >
<polygon points="221,85 226,80 235,80 235,90 226,90 221,85 " style="fill:#d81597; stroke-width:1; stroke:black; " description="&lt;b&gt;HKK58_RS02195&lt;/b&gt;&lt;br&gt;macrolide transporter subunit MacA&lt;br&gt;Location: 502156 - 501005&lt;br&gt;&lt;br&gt;&lt;b&gt;BlastP hit with ctg24_23&lt;/b&gt;&lt;br&gt;Percentage identity: 94&lt;br&gt;Percentage coverage: 99&lt;br&gt;BLAST bit score: 663&lt;br&gt;E-value: 1.44e-240" locus_tag="HKK58_RS02195" class="clusterblast-orf" id="dummy-1_h1_4_16"  />
</g>
<g id="a1_0017"  >
<polygon points="242,85 247,80 383,80 383,90 247,90 242,85 " style="fill:#d8c315; stroke-width:1; stroke:black; " description="&lt;b&gt;HKK58_RS02190&lt;/b&gt;&lt;br&gt;amino acid adenylation domain-containing protein&lt;br&gt;Location: 500480 - 489156&lt;br&gt;&lt;br&gt;&lt;b&gt;BlastP hit with ctg24_24&lt;/b&gt;&lt;br&gt;Percentage identity: 91&lt;br&gt;Percentage coverage: 100&lt;br&gt;BLAST bit score: 6792&lt;br&gt;E-value: 0.0&lt;br&gt;&lt;br&gt;&lt;b&gt;BlastP hit with ctg24_25&lt;/b&gt;&lt;br&gt;Percentage identity: 61&lt;br&gt;Percentage coverage: 50&lt;br&gt;BLAST bit score: 2430&lt;br&gt;E-value: 0.0" locus_tag="HKK58_RS02190" class="clusterblast-orf" id="dummy-1_h1_4_17"  />
</g>
<g id="a1_0018"  >
<polygon points="383,85 388,80 544,80 544,90 388,90 383,85 " style="fill:#d8c315; stroke-width:1; stroke:black; " description="&lt;b&gt;HKK58_RS02185&lt;/b&gt;&lt;br&gt;amino acid adenylation domain-containing protein&lt;br&gt;Location: 489159 - 476254&lt;br&gt;&lt;br&gt;&lt;b&gt;BlastP hit with ctg24_24&lt;/b&gt;&lt;br&gt;Percentage identity: 60&lt;br&gt;Percentage coverage: 57&lt;br&gt;BLAST bit score: 2407&lt;br&gt;E-value: 0.0&lt;br&gt;&lt;br&gt;&lt;b&gt;BlastP hit with ctg24_25&lt;/b&gt;&lt;br&gt;Percentage identity: 91&lt;br&gt;Percentage coverage: 100&lt;br&gt;BLAST bit score: 7788&lt;br&gt;E-value: 0.0" locus_tag="HKK58_RS02185" class="clusterblast-orf" id="dummy-1_h1_4_18"  />
</g>
<g id="a1_0019"  >
<polygon points="546,85 551,80 555,80 555,90 551,90 546,85 " style="fill:#15d86c; stroke-width:1; stroke:black; " description="&lt;b&gt;HKK58_RS02180&lt;/b&gt;&lt;br&gt;VWA domain-containing protein&lt;br&gt;Location: 476039 - 475308&lt;br&gt;&lt;br&gt;&lt;b&gt;BlastP hit with ctg24_26&lt;/b&gt;&lt;br&gt;Percentage identity: 89&lt;br&gt;Percentage coverage: 98&lt;br&gt;BLAST bit score: 310&lt;br&gt;E-value: 7.29e-107" locus_tag="HKK58_RS02180" class="clusterblast-orf" id="dummy-1_h1_4_19"  />
</g>
<g id="a1_0020"  >
<polygon points="554,85 559,80 567,80 567,90 559,90 554,85 " style="fill:#1515d8; stroke-width:1; stroke:black; " description="&lt;b&gt;HKK58_RS02175&lt;/b&gt;&lt;br&gt;AAA family ATPase&lt;br&gt;Location: 475383 - 474385&lt;br&gt;&lt;br&gt;&lt;b&gt;BlastP hit with ctg24_27&lt;/b&gt;&lt;br&gt;Percentage identity: 94&lt;br&gt;Percentage coverage: 100&lt;br&gt;BLAST bit score: 617&lt;br&gt;E-value: 3.01e-224" locus_tag="HKK58_RS02175" class="clusterblast-orf" id="dummy-1_h1_4_20"  />
</g>
<g id="a1_0021"  >
<polygon points="570,85 575,80 617,80 617,90 575,90 570,85 " style="fill:#1515d8; stroke-width:1; stroke:black; " description="&lt;b&gt;HKK58_RS02170&lt;/b&gt;&lt;br&gt;cobaltochelatase subunit CobN&lt;br&gt;Location: 474094 - 470333&lt;br&gt;&lt;br&gt;&lt;b&gt;BlastP hit with ctg24_28&lt;/b&gt;&lt;br&gt;Percentage identity: 96&lt;br&gt;Percentage coverage: 100&lt;br&gt;BLAST bit score: 2451&lt;br&gt;E-value: 0.0" locus_tag="HKK58_RS02170" class="clusterblast-orf" id="dummy-1_h1_4_21"  />
</g>
<g id="a1_0022"  >
<polygon points="617,85 622,80 631,80 631,90 622,90 617,85 " style="fill:#d8156c; stroke-width:1; stroke:black; " description="&lt;b&gt;HKK58_RS02165&lt;/b&gt;&lt;br&gt;cobalamin biosynthesis protein CobW&lt;br&gt;Location: 470329 - 469268&lt;br&gt;&lt;br&gt;&lt;b&gt;BlastP hit with ctg24_29&lt;/b&gt;&lt;br&gt;Percentage identity: 98&lt;br&gt;Percentage coverage: 100&lt;br&gt;BLAST bit score: 651&lt;br&gt;E-value: 5.94e-237" locus_tag="HKK58_RS02165" class="clusterblast-orf" id="dummy-1_h1_4_22"  />
</g>
<g id="a1_0023"  >
<polygon points="652,90 654,85 652,80 652,90 " style="fill:#c3d815; stroke-width:1; stroke:black; " description="&lt;b&gt;HKK58_RS02160&lt;/b&gt;&lt;br&gt;CbtB-domain containing protein&lt;br&gt;Location: 467553 - 467365&lt;br&gt;&lt;br&gt;&lt;b&gt;BlastP hit with ctg24_30&lt;/b&gt;&lt;br&gt;Percentage identity: 92&lt;br&gt;Percentage coverage: 100&lt;br&gt;BLAST bit score: 110&lt;br&gt;E-value: 4.16e-32" locus_tag="HKK58_RS02160" class="clusterblast-orf" id="dummy-1_h1_4_23"  />
</g>
<g id="a1_0024"  >
<polygon points="654,90 658,90 663,85 658,80 654,80 654,90 " style="fill:#15d897; stroke-width:1; stroke:black; " description="&lt;b&gt;HKK58_RS02155&lt;/b&gt;&lt;br&gt;CbtA family protein&lt;br&gt;Location: 467353 - 466646&lt;br&gt;&lt;br&gt;&lt;b&gt;BlastP hit with ctg24_31&lt;/b&gt;&lt;br&gt;Percentage identity: 92&lt;br&gt;Percentage coverage: 100&lt;br&gt;BLAST bit score: 418&lt;br&gt;E-value: 1.03e-148" locus_tag="HKK58_RS02155" class="clusterblast-orf" id="dummy-1_h1_4_24"  />
</g>
<g id="a1_0025"  >
<polygon points="663,90 663,90 668,85 663,80 663,80 663,90 " style="fill:#4115d8; stroke-width:1; stroke:black; " description="&lt;b&gt;HKK58_RS02150&lt;/b&gt;&lt;br&gt;cobalamin biosynthesis protein&lt;br&gt;Location: 466649 - 466257&lt;br&gt;&lt;br&gt;&lt;b&gt;BlastP hit with ctg24_32&lt;/b&gt;&lt;br&gt;Percentage identity: 89&lt;br&gt;Percentage coverage: 98&lt;br&gt;BLAST bit score: 218&lt;br&gt;E-value: 1.05e-72" locus_tag="HKK58_RS02150" class="clusterblast-orf" id="dummy-1_h1_4_25"  />
</g>
<g id="a1_0026"  >
<polygon points="669,90 673,90 678,85 673,80 669,80 669,90 " style="fill:#d81541; stroke-width:1; stroke:black; " description="&lt;b&gt;HKK58_RS02145&lt;/b&gt;&lt;br&gt;precorrin-4 C(11)-methyltransferase&lt;br&gt;Location: 466187 - 465441&lt;br&gt;&lt;br&gt;&lt;b&gt;BlastP hit with ctg24_33&lt;/b&gt;&lt;br&gt;Percentage identity: 96&lt;br&gt;Percentage coverage: 100&lt;br&gt;BLAST bit score: 473&lt;br&gt;E-value: 6.6e-170" locus_tag="HKK58_RS02145" class="clusterblast-orf" id="dummy-1_h1_4_26"  />
</g>
<g id="a1_0027"  >
<polygon points="681,85 686,80 688,80 688,90 686,90 681,85 " style="fill:#97d815; stroke-width:1; stroke:black; " description="&lt;b&gt;HKK58_RS02140&lt;/b&gt;&lt;br&gt;Fe-S biogenesis protein NfuA&lt;br&gt;Location: 465229 - 464645&lt;br&gt;&lt;br&gt;&lt;b&gt;BlastP hit with ctg24_34&lt;/b&gt;&lt;br&gt;Percentage identity: 100&lt;br&gt;Percentage coverage: 100&lt;br&gt;BLAST bit score: 394&lt;br&gt;E-value: 2.68e-140" locus_tag="HKK58_RS02140" class="clusterblast-orf" id="dummy-1_h1_4_27"  />
</g>
<g id="a1_0028"  >
<polygon points="689,85 694,80 702,80 702,90 694,90 689,85 " style="fill:white; stroke-width:1; stroke:black; " description="&lt;b&gt;HKK58_RS02135&lt;/b&gt;&lt;br&gt;acyltransferase&lt;br&gt;Location: 464585 - 463563" locus_tag="HKK58_RS02135" class="clusterblast-orf" id="dummy-1_h1_4_28"  />
</g>
<g id="a1_0029"  >
<polygon points="702,85 707,80 731,80 731,90 707,90 702,85 " style="fill:#15d8c3; stroke-width:1; stroke:black; " description="&lt;b&gt;HKK58_RS02130&lt;/b&gt;&lt;br&gt;fatty acid cis/trans isomerase&lt;br&gt;Location: 463498 - 461192&lt;br&gt;&lt;br&gt;&lt;b&gt;BlastP hit with ctg24_35&lt;/b&gt;&lt;br&gt;Percentage identity: 88&lt;br&gt;Percentage coverage: 101&lt;br&gt;BLAST bit score: 1403&lt;br&gt;E-value: 0.0" locus_tag="HKK58_RS02130" class="clusterblast-orf" id="dummy-1_h1_4_29"  />
</g>
<g id="a1_0030"  >
<polygon points="733,90 775,90 780,85 775,80 733,80 733,90 " style="fill:#6c15d8; stroke-width:1; stroke:black; " description="&lt;b&gt;HKK58_RS02125&lt;/b&gt;&lt;br&gt;methionine synthase&lt;br&gt;Location: 461026 - 457316&lt;br&gt;&lt;br&gt;&lt;b&gt;BlastP hit with ctg24_36&lt;/b&gt;&lt;br&gt;Percentage identity: 98&lt;br&gt;Percentage coverage: 100&lt;br&gt;BLAST bit score: 2428&lt;br&gt;E-value: 0.0" locus_tag="HKK58_RS02125" class="clusterblast-orf" id="dummy-1_h1_4_30"  />
</g>
</svg>
