<svg xmlns="http://www.w3.org/2000/svg" xmlns:xlink="http://www.w3.org/1999/xlink" version="1.1" x="0" y="0" height="230" width="800" viewBox="0 0 800 230" preserveAspectRatio="none"  >
<g label="Query sequence" class="clusterblast-cluster"  >
<text x="5" y="20" class="clusterblast-acc"  >
Query sequence</text>
<line x1="10" y1="35" x2="778.0" y2="35" style="stroke-width:1; stroke:grey; "  />
<polygon points="0,40 2,35 0,30 0,40 " style="fill:white; stroke-width:1; stroke:black; " description="&lt;b&gt;ctg3_55&lt;/b&gt;&lt;br&gt;ctg3 55&lt;br&gt;Location: 69447 - 69708" locus_tag="ctg3_55" class="clusterblast-orf" id="dummy-1_q0_0_all"  />
<polygon points="3,35 8,30 12,30 12,40 8,40 3,35 " style="fill:white; stroke-width:1; stroke:black; " description="&lt;b&gt;ctg3_56&lt;/b&gt;&lt;br&gt;ctg3 56&lt;br&gt;Location: 69783 - 70608" locus_tag="ctg3_56" class="clusterblast-orf" id="dummy-1_q1_0_all"  />
<polygon points="12,35 17,30 27,30 27,40 17,40 12,35 " style="fill:white; stroke-width:1; stroke:black; " description="&lt;b&gt;ctg3_57&lt;/b&gt;&lt;br&gt;ctg3 57&lt;br&gt;Location: 70604 - 72128" locus_tag="ctg3_57" class="clusterblast-orf" id="dummy-1_q2_0_all"  />
<polygon points="27,35 32,30 38,30 38,40 32,40 27,35 " style="fill:white; stroke-width:1; stroke:black; " description="&lt;b&gt;ctg3_58&lt;/b&gt;&lt;br&gt;ctg3 58&lt;br&gt;Location: 72124 - 73108" locus_tag="ctg3_58" class="clusterblast-orf" id="dummy-1_q3_0_all"  />
<polygon points="40,40 42,35 40,30 40,40 " style="fill:white; stroke-width:1; stroke:black; " description="&lt;b&gt;ctg3_59&lt;/b&gt;&lt;br&gt;ctg3 59&lt;br&gt;Location: 73377 - 73554" locus_tag="ctg3_59" class="clusterblast-orf" id="dummy-1_q4_0_all"  />
<polygon points="43,40 57,40 62,35 57,30 43,30 43,40 " style="fill:white; stroke-width:1; stroke:black; " description="&lt;b&gt;ctg3_60&lt;/b&gt;&lt;br&gt;ctg3 60&lt;br&gt;Location: 73652 - 75461" locus_tag="ctg3_60" class="clusterblast-orf" id="dummy-1_q5_0_all"  />
<polygon points="63,40 81,40 86,35 81,30 63,30 63,40 " style="fill:#d81515; stroke-width:1; stroke:black; " description="&lt;b&gt;ctg3_61&lt;/b&gt;&lt;br&gt;ctg3 61&lt;br&gt;Location: 75587 - 77816" locus_tag="ctg3_61" class="clusterblast-orf" id="dummy-1_q6_0_all"  />
<polygon points="88,40 90,35 88,30 88,40 " style="fill:white; stroke-width:1; stroke:black; " description="&lt;b&gt;ctg3_62&lt;/b&gt;&lt;br&gt;ctg3 62&lt;br&gt;Location: 77958 - 78180" locus_tag="ctg3_62" class="clusterblast-orf" id="dummy-1_q7_0_all"  />
<polygon points="91,35 96,30 96,30 96,40 96,40 91,35 " style="fill:white; stroke-width:1; stroke:black; " description="&lt;b&gt;ctg3_63&lt;/b&gt;&lt;br&gt;ctg3 63&lt;br&gt;Location: 78281 - 78773" locus_tag="ctg3_63" class="clusterblast-orf" id="dummy-1_q8_0_all"  />
<polygon points="98,35 103,30 109,30 109,40 103,40 98,35 " style="fill:white; stroke-width:1; stroke:black; " description="&lt;b&gt;ctg3_64&lt;/b&gt;&lt;br&gt;ctg3 64&lt;br&gt;Location: 78935 - 80042" locus_tag="ctg3_64" class="clusterblast-orf" id="dummy-1_q9_0_all"  />
<polygon points="110,35 113,30 113,40 110,35 " style="fill:#65d815; stroke-width:1; stroke:black; " description="&lt;b&gt;ctg3_65&lt;/b&gt;&lt;br&gt;ctg3 65&lt;br&gt;Location: 80057 - 80393" locus_tag="ctg3_65" class="clusterblast-orf" id="dummy-1_q10_0_all"  />
<polygon points="114,35 119,30 121,30 121,40 119,40 114,35 " style="fill:#15b6d8; stroke-width:1; stroke:black; " description="&lt;b&gt;ctg3_66&lt;/b&gt;&lt;br&gt;ctg3 66&lt;br&gt;Location: 80445 - 81162" locus_tag="ctg3_66" class="clusterblast-orf" id="dummy-1_q11_0_all"  />
<polygon points="125,35 130,30 153,30 153,40 130,40 125,35 " style="fill:#8815d8; stroke-width:1; stroke:black; " description="&lt;b&gt;ctg3_67&lt;/b&gt;&lt;br&gt;ctg3 67&lt;br&gt;Location: 81563 - 84221" locus_tag="ctg3_67" class="clusterblast-orf" id="dummy-1_q12_0_all"  />
<polygon points="153,35 158,30 161,30 161,40 158,40 153,35 " style="fill:#d83815; stroke-width:1; stroke:black; " description="&lt;b&gt;ctg3_68&lt;/b&gt;&lt;br&gt;ctg3 68&lt;br&gt;Location: 84234 - 85065" locus_tag="ctg3_68" class="clusterblast-orf" id="dummy-1_q13_0_all"  />
<polygon points="161,35 164,30 164,40 161,35 " style="fill:#43d815; stroke-width:1; stroke:black; " description="&lt;b&gt;ctg3_69&lt;/b&gt;&lt;br&gt;ctg3 69&lt;br&gt;Location: 85061 - 85322" locus_tag="ctg3_69" class="clusterblast-orf" id="dummy-1_q14_0_all"  />
<polygon points="164,35 169,30 173,30 173,40 169,40 164,35 " style="fill:#1593d8; stroke-width:1; stroke:black; " description="&lt;b&gt;ctg3_70&lt;/b&gt;&lt;br&gt;ctg3 70&lt;br&gt;Location: 85336 - 86206" locus_tag="ctg3_70" class="clusterblast-orf" id="dummy-1_q15_0_all"  />
<polygon points="173,35 178,30 183,30 183,40 178,40 173,35 " style="fill:#aa15d8; stroke-width:1; stroke:black; " description="&lt;b&gt;ctg3_71&lt;/b&gt;&lt;br&gt;ctg3 71&lt;br&gt;Location: 86202 - 87174" locus_tag="ctg3_71" class="clusterblast-orf" id="dummy-1_q16_0_all"  />
<polygon points="183,35 188,30 192,30 192,40 188,40 183,35 " style="fill:#d85a15; stroke-width:1; stroke:black; " description="&lt;b&gt;ctg3_72&lt;/b&gt;&lt;br&gt;ctg3 72&lt;br&gt;Location: 87173 - 88064" locus_tag="ctg3_72" class="clusterblast-orf" id="dummy-1_q17_0_all"  />
<polygon points="194,40 199,40 204,35 199,30 194,30 194,40 " style="fill:#21d815; stroke-width:1; stroke:black; " description="&lt;b&gt;ctg3_73&lt;/b&gt;&lt;br&gt;ctg3 73&lt;br&gt;Location: 88207 - 89155" locus_tag="ctg3_73" class="clusterblast-orf" id="dummy-1_q18_0_all"  />
<polygon points="204,35 209,30 220,30 220,40 209,40 204,35 " style="fill:#1571d8; stroke-width:1; stroke:black; " description="&lt;b&gt;ctg3_74&lt;/b&gt;&lt;br&gt;ctg3 74&lt;br&gt;Location: 89147 - 90767" locus_tag="ctg3_74" class="clusterblast-orf" id="dummy-1_q19_0_all"  />
<polygon points="222,40 231,40 236,35 231,30 222,30 222,40 " style="fill:#cd15d8; stroke-width:1; stroke:black; " description="&lt;b&gt;ctg3_75&lt;/b&gt;&lt;br&gt;ctg3 75&lt;br&gt;Location: 90909 - 92259" locus_tag="ctg3_75" class="clusterblast-orf" id="dummy-1_q20_0_all"  />
<polygon points="236,40 244,40 249,35 244,30 236,30 236,40 " style="fill:#d87c15; stroke-width:1; stroke:black; " description="&lt;b&gt;ctg3_76&lt;/b&gt;&lt;br&gt;ctg3 76&lt;br&gt;Location: 92277 - 93558" locus_tag="ctg3_76" class="clusterblast-orf" id="dummy-1_q21_0_all"  />
<polygon points="250,40 254,40 259,35 254,30 250,30 250,40 " style="fill:#15d82c; stroke-width:1; stroke:black; " description="&lt;b&gt;ctg3_77&lt;/b&gt;&lt;br&gt;ctg3 77&lt;br&gt;Location: 93591 - 94464" locus_tag="ctg3_77" class="clusterblast-orf" id="dummy-1_q22_0_all"  />
<polygon points="260,35 265,30 269,30 269,40 265,40 260,35 " style="fill:#154fd8; stroke-width:1; stroke:black; " description="&lt;b&gt;ctg3_78&lt;/b&gt;&lt;br&gt;ctg3 78&lt;br&gt;Location: 94607 - 95435" locus_tag="ctg3_78" class="clusterblast-orf" id="dummy-1_q23_0_all"  />
<polygon points="271,40 283,40 288,35 283,30 271,30 271,40 " style="fill:#d815c1; stroke-width:1; stroke:black; " description="&lt;b&gt;ctg3_79&lt;/b&gt;&lt;br&gt;ctg3 79&lt;br&gt;Location: 95633 - 97286" locus_tag="ctg3_79" class="clusterblast-orf" id="dummy-1_q24_0_all"  />
<polygon points="289,40 309,40 314,35 309,30 289,30 289,40 " style="fill:#d81515; stroke-width:1; stroke:black; " description="&lt;b&gt;ctg3_80&lt;/b&gt;&lt;br&gt;ctg3 80&lt;br&gt;Location: 97395 - 99837" locus_tag="ctg3_80" class="clusterblast-orf" id="dummy-1_q25_0_all"  />
<polygon points="316,35 321,30 439,30 439,40 321,40 316,35 " style="fill:#d89f15; stroke-width:1; stroke:black; " description="&lt;b&gt;ctg3_81&lt;/b&gt;&lt;br&gt;ctg3 81&lt;br&gt;Location: 99981 - 111834" locus_tag="ctg3_81" class="clusterblast-orf" id="dummy-1_q26_0_all"  />
<polygon points="439,35 444,30 584,30 584,40 444,40 439,35 " style="fill:#d89f15; stroke-width:1; stroke:black; " description="&lt;b&gt;ctg3_82&lt;/b&gt;&lt;br&gt;ctg3 82&lt;br&gt;Location: 111837 - 125892" locus_tag="ctg3_82" class="clusterblast-orf" id="dummy-1_q27_0_all"  />
<polygon points="587,40 589,35 587,30 587,40 " style="fill:#15d84f; stroke-width:1; stroke:black; " description="&lt;b&gt;ctg3_83&lt;/b&gt;&lt;br&gt;ctg3 83&lt;br&gt;Location: 126102 - 126354" locus_tag="ctg3_83" class="clusterblast-orf" id="dummy-1_q28_0_all"  />
<polygon points="589,40 593,35 589,30 589,40 " style="fill:#152cd8; stroke-width:1; stroke:black; " description="&lt;b&gt;ctg3_84&lt;/b&gt;&lt;br&gt;ctg3 84&lt;br&gt;Location: 126350 - 126716" locus_tag="ctg3_84" class="clusterblast-orf" id="dummy-1_q29_0_all"  />
<polygon points="593,35 598,30 605,30 605,40 598,40 593,35 " style="fill:#d8159f; stroke-width:1; stroke:black; " description="&lt;b&gt;ctg3_85&lt;/b&gt;&lt;br&gt;ctg3 85&lt;br&gt;Location: 126698 - 127889" locus_tag="ctg3_85" class="clusterblast-orf" id="dummy-1_q30_0_all"  />
<polygon points="607,40 608,40 613,35 608,30 607,30 607,40 " style="fill:#d8c115; stroke-width:1; stroke:black; " description="&lt;b&gt;ctg3_86&lt;/b&gt;&lt;br&gt;ctg3 86&lt;br&gt;Location: 128031 - 128625" locus_tag="ctg3_86" class="clusterblast-orf" id="dummy-1_q31_0_all"  />
<polygon points="613,35 618,30 627,30 627,40 618,40 613,35 " style="fill:#15d871; stroke-width:1; stroke:black; " description="&lt;b&gt;ctg3_87&lt;/b&gt;&lt;br&gt;ctg3 87&lt;br&gt;Location: 128608 - 129964" locus_tag="ctg3_87" class="clusterblast-orf" id="dummy-1_q32_0_all"  />
<polygon points="627,35 632,30 633,30 633,40 632,40 627,35 " style="fill:#2115d8; stroke-width:1; stroke:black; " description="&lt;b&gt;ctg3_88&lt;/b&gt;&lt;br&gt;ctg3 88&lt;br&gt;Location: 129989 - 130562" locus_tag="ctg3_88" class="clusterblast-orf" id="dummy-1_q33_0_all"  />
<polygon points="633,35 638,30 643,30 643,40 638,40 633,35 " style="fill:#d8157c; stroke-width:1; stroke:black; " description="&lt;b&gt;ctg3_89&lt;/b&gt;&lt;br&gt;ctg3 89&lt;br&gt;Location: 130629 - 131586" locus_tag="ctg3_89" class="clusterblast-orf" id="dummy-1_q34_0_all"  />
<polygon points="643,35 648,30 654,30 654,40 648,40 643,35 " style="fill:#cdd815; stroke-width:1; stroke:black; " description="&lt;b&gt;ctg3_90&lt;/b&gt;&lt;br&gt;ctg3 90&lt;br&gt;Location: 131589 - 132633" locus_tag="ctg3_90" class="clusterblast-orf" id="dummy-1_q35_0_all"  />
<polygon points="654,35 658,30 658,40 654,35 " style="fill:#15d893; stroke-width:1; stroke:black; " description="&lt;b&gt;ctg3_91&lt;/b&gt;&lt;br&gt;ctg3 91&lt;br&gt;Location: 132648 - 132996" locus_tag="ctg3_91" class="clusterblast-orf" id="dummy-1_q36_0_all"  />
<polygon points="658,35 663,30 671,30 671,40 663,40 658,35 " style="fill:#4315d8; stroke-width:1; stroke:black; " description="&lt;b&gt;ctg3_92&lt;/b&gt;&lt;br&gt;ctg3 92&lt;br&gt;Location: 132998 - 134228" locus_tag="ctg3_92" class="clusterblast-orf" id="dummy-1_q37_0_all"  />
<polygon points="673,35 678,30 680,30 680,40 678,40 673,35 " style="fill:#d8155a; stroke-width:1; stroke:black; " description="&lt;b&gt;ctg3_93&lt;/b&gt;&lt;br&gt;ctg3 93&lt;br&gt;Location: 134446 - 135136" locus_tag="ctg3_93" class="clusterblast-orf" id="dummy-1_q38_0_all"  />
<polygon points="680,35 685,30 688,30 688,40 685,40 680,35 " style="fill:#aad815; stroke-width:1; stroke:black; " description="&lt;b&gt;ctg3_94&lt;/b&gt;&lt;br&gt;ctg3 94&lt;br&gt;Location: 135146 - 135905" locus_tag="ctg3_94" class="clusterblast-orf" id="dummy-1_q39_0_all"  />
<polygon points="688,35 693,30 700,30 700,40 693,40 688,35 " style="fill:#15d8b6; stroke-width:1; stroke:black; " description="&lt;b&gt;ctg3_95&lt;/b&gt;&lt;br&gt;ctg3 95&lt;br&gt;Location: 135901 - 137062" locus_tag="ctg3_95" class="clusterblast-orf" id="dummy-1_q40_0_all"  />
<polygon points="700,35 705,30 710,30 710,40 705,40 700,35 " style="fill:#6615d8; stroke-width:1; stroke:black; " description="&lt;b&gt;ctg3_96&lt;/b&gt;&lt;br&gt;ctg3 96&lt;br&gt;Location: 137072 - 137990" locus_tag="ctg3_96" class="clusterblast-orf" id="dummy-1_q41_0_all"  />
<polygon points="712,35 717,30 724,30 724,40 717,40 712,35 " style="fill:#d81538; stroke-width:1; stroke:black; " description="&lt;b&gt;ctg3_97&lt;/b&gt;&lt;br&gt;ctg3 97&lt;br&gt;Location: 138168 - 139377" locus_tag="ctg3_97" class="clusterblast-orf" id="dummy-1_q42_0_all"  />
<polygon points="727,40 757,40 762,35 757,30 727,30 727,40 " style="fill:#88d815; stroke-width:1; stroke:black; " description="&lt;b&gt;ctg3_98&lt;/b&gt;&lt;br&gt;ctg3 98&lt;br&gt;Location: 139679 - 143063" locus_tag="ctg3_98" class="clusterblast-orf" id="dummy-1_q43_0_all"  />
<polygon points="762,40 764,40 769,35 764,30 762,30 762,40 " style="fill:#88d815; stroke-width:1; stroke:black; " description="&lt;b&gt;ctg3_99&lt;/b&gt;&lt;br&gt;ctg3 99&lt;br&gt;Location: 143037 - 143703" locus_tag="ctg3_99" class="clusterblast-orf" id="dummy-1_q44_0_all"  />
<polygon points="770,35 775,30 780,30 780,40 775,40 770,35 " style="fill:#15d8d8; stroke-width:1; stroke:black; " description="&lt;b&gt;ctg3_100&lt;/b&gt;&lt;br&gt;ctg3 100&lt;br&gt;Location: 143822 - 144737" locus_tag="ctg3_100" class="clusterblast-orf" id="dummy-1_q45_0_all"  />
</g>
<g label="NZ_JACAQL010000001" description="NZ_JACAQL010000001 (49386-118604): Pseudomonas sp. IPO3747 IPO 3747 S30 L002 ... (63% of genes show similarity), NRPS" class="clusterblast-cluster"  >
<text x="5" y="70" class="clusterblast-acc"  >
<a xlink:href="https://antismash-db.secondarymetabolites.org/area.html?record=NZ_JACAQL010000001&amp;start=49386&amp;end=118604" target="_blank">NZ_JACAQL010000001 (49386-118604)</a>: Pseudomonas sp. IPO3747 IPO 3747 S30 L002 ... (63% of genes show similarity), NRPS</text>
<line x1="10" y1="85" x2="778.0" y2="85" style="stroke-width:1; stroke:grey; "  />
</g>
<g id="a1_000"  >
<polygon points="33,85 38,80 40,80 40,90 38,90 33,85 " style="fill:#15b6d8; stroke-width:1; stroke:black; " description="&lt;b&gt;HX790_RS00210&lt;/b&gt;&lt;br&gt;HTH domain-containing protein&lt;br&gt;Location: 49648 - 50364&lt;br&gt;&lt;br&gt;&lt;b&gt;BlastP hit with ctg3_66&lt;/b&gt;&lt;br&gt;Percentage identity: 95&lt;br&gt;Percentage coverage: 100&lt;br&gt;BLAST bit score: 441&lt;br&gt;E-value: 1.38e-157" locus_tag="HX790_RS00210" class="clusterblast-orf" id="dummy-1_h1_8_0"  />
</g>
<g id="a1_001"  >
<polygon points="41,90 44,85 41,80 41,90 " style="fill:white; stroke-width:1; stroke:black; " description="&lt;b&gt;HX790_RS00215&lt;/b&gt;&lt;br&gt;aldo/keto reductase&lt;br&gt;Location: 50463 - 50768" locus_tag="HX790_RS00215" class="clusterblast-orf" id="dummy-1_h1_8_1"  />
</g>
<g id="a1_002"  >
<polygon points="47,85 52,80 74,80 74,90 52,90 47,85 " style="fill:#8815d8; stroke-width:1; stroke:black; " description="&lt;b&gt;HX790_RS00220&lt;/b&gt;&lt;br&gt;aminopeptidase N&lt;br&gt;Location: 51024 - 53681&lt;br&gt;&lt;br&gt;&lt;b&gt;BlastP hit with ctg3_67&lt;/b&gt;&lt;br&gt;Percentage identity: 96&lt;br&gt;Percentage coverage: 100&lt;br&gt;BLAST bit score: 1697&lt;br&gt;E-value: 0.0" locus_tag="HX790_RS00220" class="clusterblast-orf" id="dummy-1_h1_8_2"  />
</g>
<g id="a1_003"  >
<polygon points="74,85 79,80 83,80 83,90 79,90 74,85 " style="fill:#d83815; stroke-width:1; stroke:black; " description="&lt;b&gt;HX790_RS00225&lt;/b&gt;&lt;br&gt;DUF2797 domain-containing protein&lt;br&gt;Location: 53696 - 54526&lt;br&gt;&lt;br&gt;&lt;b&gt;BlastP hit with ctg3_68&lt;/b&gt;&lt;br&gt;Percentage identity: 98&lt;br&gt;Percentage coverage: 100&lt;br&gt;BLAST bit score: 555&lt;br&gt;E-value: 2.75e-201" locus_tag="HX790_RS00225" class="clusterblast-orf" id="dummy-1_h1_8_3"  />
</g>
<g id="a1_004"  >
<polygon points="83,85 86,80 86,90 83,85 " style="fill:#43d815; stroke-width:1; stroke:black; " description="&lt;b&gt;HX790_RS00230&lt;/b&gt;&lt;br&gt;DUF1315 family protein&lt;br&gt;Location: 54523 - 54783&lt;br&gt;&lt;br&gt;&lt;b&gt;BlastP hit with ctg3_69&lt;/b&gt;&lt;br&gt;Percentage identity: 100&lt;br&gt;Percentage coverage: 100&lt;br&gt;BLAST bit score: 175&lt;br&gt;E-value: 3.62e-57" locus_tag="HX790_RS00230" class="clusterblast-orf" id="dummy-1_h1_8_4"  />
</g>
<g id="a1_005"  >
<polygon points="86,85 91,80 95,80 95,90 91,90 86,85 " style="fill:#1593d8; stroke-width:1; stroke:black; " description="&lt;b&gt;HX790_RS00235&lt;/b&gt;&lt;br&gt;rhomboid family intramembrane serine protease&lt;br&gt;Location: 54798 - 55667&lt;br&gt;&lt;br&gt;&lt;b&gt;BlastP hit with ctg3_70&lt;/b&gt;&lt;br&gt;Percentage identity: 92&lt;br&gt;Percentage coverage: 100&lt;br&gt;BLAST bit score: 539&lt;br&gt;E-value: 1.34e-194" locus_tag="HX790_RS00235" class="clusterblast-orf" id="dummy-1_h1_8_5"  />
</g>
<g id="a1_006"  >
<polygon points="95,85 100,80 105,80 105,90 100,90 95,85 " style="fill:#aa15d8; stroke-width:1; stroke:black; " description="&lt;b&gt;HX790_RS00240&lt;/b&gt;&lt;br&gt;metallophosphoesterase&lt;br&gt;Location: 55664 - 56635&lt;br&gt;&lt;br&gt;&lt;b&gt;BlastP hit with ctg3_71&lt;/b&gt;&lt;br&gt;Percentage identity: 97&lt;br&gt;Percentage coverage: 100&lt;br&gt;BLAST bit score: 677&lt;br&gt;E-value: 4.98e-248" locus_tag="HX790_RS00240" class="clusterblast-orf" id="dummy-1_h1_8_6"  />
</g>
<g id="a1_007"  >
<polygon points="105,85 110,80 114,80 114,90 110,90 105,85 " style="fill:#d85a15; stroke-width:1; stroke:black; " description="&lt;b&gt;HX790_RS00245&lt;/b&gt;&lt;br&gt;NAD(+) kinase&lt;br&gt;Location: 56635 - 57525&lt;br&gt;&lt;br&gt;&lt;b&gt;BlastP hit with ctg3_72&lt;/b&gt;&lt;br&gt;Percentage identity: 100&lt;br&gt;Percentage coverage: 100&lt;br&gt;BLAST bit score: 599&lt;br&gt;E-value: 3.81e-218" locus_tag="HX790_RS00245" class="clusterblast-orf" id="dummy-1_h1_8_7"  />
</g>
<g id="a1_008"  >
<polygon points="116,90 120,90 125,85 120,80 116,80 116,90 " style="fill:#21d815; stroke-width:1; stroke:black; " description="&lt;b&gt;HX790_RS00250&lt;/b&gt;&lt;br&gt;DUF1853 family protein&lt;br&gt;Location: 57670 - 58617&lt;br&gt;&lt;br&gt;&lt;b&gt;BlastP hit with ctg3_73&lt;/b&gt;&lt;br&gt;Percentage identity: 92&lt;br&gt;Percentage coverage: 100&lt;br&gt;BLAST bit score: 627&lt;br&gt;E-value: 8.75e-229" locus_tag="HX790_RS00250" class="clusterblast-orf" id="dummy-1_h1_8_8"  />
</g>
<g id="a1_009"  >
<polygon points="125,85 130,80 142,80 142,90 130,90 125,85 " style="fill:#1571d8; stroke-width:1; stroke:black; " description="&lt;b&gt;HX790_RS00255&lt;/b&gt;&lt;br&gt;hypothetical protein&lt;br&gt;Location: 58610 - 60223&lt;br&gt;&lt;br&gt;&lt;b&gt;BlastP hit with ctg3_74&lt;/b&gt;&lt;br&gt;Percentage identity: 94&lt;br&gt;Percentage coverage: 100&lt;br&gt;BLAST bit score: 1075&lt;br&gt;E-value: 0.0" locus_tag="HX790_RS00255" class="clusterblast-orf" id="dummy-1_h1_8_9"  />
</g>
<g id="a1_0010"  >
<polygon points="144,90 153,90 158,85 153,80 144,80 144,90 " style="fill:#cd15d8; stroke-width:1; stroke:black; " description="&lt;b&gt;HX790_RS00260&lt;/b&gt;&lt;br&gt;pyoverdine-tailoring dipeptidase-like protein PvdM&lt;br&gt;Location: 60366 - 61715&lt;br&gt;&lt;br&gt;&lt;b&gt;BlastP hit with ctg3_75&lt;/b&gt;&lt;br&gt;Percentage identity: 95&lt;br&gt;Percentage coverage: 100&lt;br&gt;BLAST bit score: 877&lt;br&gt;E-value: 0.0" locus_tag="HX790_RS00260" class="clusterblast-orf" id="dummy-1_h1_8_10"  />
</g>
<g id="a1_0011"  >
<polygon points="158,90 166,90 171,85 166,80 158,80 158,90 " style="fill:#d87c15; stroke-width:1; stroke:black; " description="&lt;b&gt;HX790_RS00265&lt;/b&gt;&lt;br&gt;aminotransferase class V-fold PLP-dependent enzyme&lt;br&gt;Location: 61734 - 63014&lt;br&gt;&lt;br&gt;&lt;b&gt;BlastP hit with ctg3_76&lt;/b&gt;&lt;br&gt;Percentage identity: 91&lt;br&gt;Percentage coverage: 100&lt;br&gt;BLAST bit score: 786&lt;br&gt;E-value: 7.96e-288" locus_tag="HX790_RS00265" class="clusterblast-orf" id="dummy-1_h1_8_11"  />
</g>
<g id="a1_0012"  >
<polygon points="171,90 175,90 180,85 175,80 171,80 171,90 " style="fill:#15d82c; stroke-width:1; stroke:black; " description="&lt;b&gt;HX790_RS00270&lt;/b&gt;&lt;br&gt;formylglycine-generating enzyme family protein&lt;br&gt;Location: 63048 - 63920&lt;br&gt;&lt;br&gt;&lt;b&gt;BlastP hit with ctg3_77&lt;/b&gt;&lt;br&gt;Percentage identity: 94&lt;br&gt;Percentage coverage: 100&lt;br&gt;BLAST bit score: 585&lt;br&gt;E-value: 1.05e-212" locus_tag="HX790_RS00270" class="clusterblast-orf" id="dummy-1_h1_8_12"  />
</g>
<g id="a1_0013"  >
<polygon points="182,85 187,80 190,80 190,90 187,90 182,85 " style="fill:#154fd8; stroke-width:1; stroke:black; " description="&lt;b&gt;HX790_RS00275&lt;/b&gt;&lt;br&gt;N(5)-hydroxyornithine transformylase PvdF&lt;br&gt;Location: 64037 - 64864&lt;br&gt;&lt;br&gt;&lt;b&gt;BlastP hit with ctg3_78&lt;/b&gt;&lt;br&gt;Percentage identity: 96&lt;br&gt;Percentage coverage: 100&lt;br&gt;BLAST bit score: 541&lt;br&gt;E-value: 5.52e-196" locus_tag="HX790_RS00275" class="clusterblast-orf" id="dummy-1_h1_8_13"  />
</g>
<g id="a1_0014"  >
<polygon points="192,90 204,90 209,85 204,80 192,80 192,90 " style="fill:#d815c1; stroke-width:1; stroke:black; " description="&lt;b&gt;HX790_RS00280&lt;/b&gt;&lt;br&gt;cyclic peptide export ABC transporter&lt;br&gt;Location: 65066 - 66718&lt;br&gt;&lt;br&gt;&lt;b&gt;BlastP hit with ctg3_79&lt;/b&gt;&lt;br&gt;Percentage identity: 92&lt;br&gt;Percentage coverage: 100&lt;br&gt;BLAST bit score: 975&lt;br&gt;E-value: 0.0" locus_tag="HX790_RS00280" class="clusterblast-orf" id="dummy-1_h1_8_14"  />
</g>
<g id="a1_0015"  >
<polygon points="211,90 231,90 236,85 231,80 211,80 211,90 " style="fill:#d81515; stroke-width:1; stroke:black; " description="&lt;b&gt;HX790_RS00285&lt;/b&gt;&lt;br&gt;TonB-dependent siderophore receptor&lt;br&gt;Location: 66873 - 69251&lt;br&gt;&lt;br&gt;&lt;b&gt;BlastP hit with ctg3_61&lt;/b&gt;&lt;br&gt;Percentage identity: 39&lt;br&gt;Percentage coverage: 96&lt;br&gt;BLAST bit score: 497&lt;br&gt;E-value: 7.84e-164&lt;br&gt;&lt;br&gt;&lt;b&gt;BlastP hit with ctg3_80&lt;/b&gt;&lt;br&gt;Percentage identity: 62&lt;br&gt;Percentage coverage: 98&lt;br&gt;BLAST bit score: 995&lt;br&gt;E-value: 0.0" locus_tag="HX790_RS00285" class="clusterblast-orf" id="dummy-1_h1_8_15"  />
</g>
<g id="a1_0016"  >
<polygon points="237,85 242,80 344,80 344,90 242,90 237,85 " style="fill:#d89f15; stroke-width:1; stroke:black; " description="&lt;b&gt;HX790_RS00290&lt;/b&gt;&lt;br&gt;amino acid adenylation domain-containing protein&lt;br&gt;Location: 69387 - 79730&lt;br&gt;&lt;br&gt;&lt;b&gt;BlastP hit with ctg3_81&lt;/b&gt;&lt;br&gt;Percentage identity: 61&lt;br&gt;Percentage coverage: 100&lt;br&gt;BLAST bit score: 4323&lt;br&gt;E-value: 0.0&lt;br&gt;&lt;br&gt;&lt;b&gt;BlastP hit with ctg3_82&lt;/b&gt;&lt;br&gt;Percentage identity: 67&lt;br&gt;Percentage coverage: 45&lt;br&gt;BLAST bit score: 2702&lt;br&gt;E-value: 0.0" locus_tag="HX790_RS00290" class="clusterblast-orf" id="dummy-1_h1_8_16"  />
</g>
<g id="a1_0017"  >
<polygon points="345,85 350,80 426,80 426,90 350,90 345,85 " style="fill:#d89f15; stroke-width:1; stroke:black; " description="&lt;b&gt;HX790_RS00295&lt;/b&gt;&lt;br&gt;amino acid adenylation domain-containing protein&lt;br&gt;Location: 79804 - 87585&lt;br&gt;&lt;br&gt;&lt;b&gt;BlastP hit with ctg3_81&lt;/b&gt;&lt;br&gt;Percentage identity: 62&lt;br&gt;Percentage coverage: 65&lt;br&gt;BLAST bit score: 3018&lt;br&gt;E-value: 0.0&lt;br&gt;&lt;br&gt;&lt;b&gt;BlastP hit with ctg3_82&lt;/b&gt;&lt;br&gt;Percentage identity: 55&lt;br&gt;Percentage coverage: 55&lt;br&gt;BLAST bit score: 2634&lt;br&gt;E-value: 0.0" locus_tag="HX790_RS00295" class="clusterblast-orf" id="dummy-1_h1_8_17"  />
</g>
<g id="a1_0018"  >
<polygon points="426,85 431,80 540,80 540,90 431,90 426,85 " style="fill:#d89f15; stroke-width:1; stroke:black; " description="&lt;b&gt;HX790_RS00300&lt;/b&gt;&lt;br&gt;non-ribosomal peptide synthetase&lt;br&gt;Location: 87589 - 98604&lt;br&gt;&lt;br&gt;&lt;b&gt;BlastP hit with ctg3_81&lt;/b&gt;&lt;br&gt;Percentage identity: 60&lt;br&gt;Percentage coverage: 54&lt;br&gt;BLAST bit score: 2363&lt;br&gt;E-value: 0.0&lt;br&gt;&lt;br&gt;&lt;b&gt;BlastP hit with ctg3_82&lt;/b&gt;&lt;br&gt;Percentage identity: 60&lt;br&gt;Percentage coverage: 100&lt;br&gt;BLAST bit score: 5055&lt;br&gt;E-value: 0.0" locus_tag="HX790_RS00300" class="clusterblast-orf" id="dummy-1_h1_8_18"  />
</g>
<g id="a1_0019"  >
<polygon points="542,90 545,85 542,80 542,90 " style="fill:#15d84f; stroke-width:1; stroke:black; " description="&lt;b&gt;HX790_RS00305&lt;/b&gt;&lt;br&gt;type II toxin-antitoxin system HicA family toxin&lt;br&gt;Location: 98814 - 99077&lt;br&gt;&lt;br&gt;&lt;b&gt;BlastP hit with ctg3_83&lt;/b&gt;&lt;br&gt;Percentage identity: 93&lt;br&gt;Percentage coverage: 100&lt;br&gt;BLAST bit score: 160&lt;br&gt;E-value: 2.07e-51" locus_tag="HX790_RS00305" class="clusterblast-orf" id="dummy-1_h1_8_19"  />
</g>
<g id="a1_0020"  >
<polygon points="544,90 548,85 544,80 544,90 " style="fill:#152cd8; stroke-width:1; stroke:black; " description="&lt;b&gt;HX790_RS00310&lt;/b&gt;&lt;br&gt;type II toxin-antitoxin system HicB family antitoxin&lt;br&gt;Location: 99062 - 99427&lt;br&gt;&lt;br&gt;&lt;b&gt;BlastP hit with ctg3_84&lt;/b&gt;&lt;br&gt;Percentage identity: 91&lt;br&gt;Percentage coverage: 100&lt;br&gt;BLAST bit score: 231&lt;br&gt;E-value: 3.53e-78" locus_tag="HX790_RS00310" class="clusterblast-orf" id="dummy-1_h1_8_20"  />
</g>
<g id="a1_0021"  >
<polygon points="548,85 553,80 560,80 560,90 553,90 548,85 " style="fill:#d8159f; stroke-width:1; stroke:black; " description="&lt;b&gt;HX790_RS00315&lt;/b&gt;&lt;br&gt;MFS transporter&lt;br&gt;Location: 99394 - 100599&lt;br&gt;&lt;br&gt;&lt;b&gt;BlastP hit with ctg3_85&lt;/b&gt;&lt;br&gt;Percentage identity: 92&lt;br&gt;Percentage coverage: 98&lt;br&gt;BLAST bit score: 672&lt;br&gt;E-value: 1.17e-243" locus_tag="HX790_RS00315" class="clusterblast-orf" id="dummy-1_h1_8_21"  />
</g>
<g id="a1_0022"  >
<polygon points="562,90 563,90 568,85 563,80 562,80 562,90 " style="fill:#d8c115; stroke-width:1; stroke:black; " description="&lt;b&gt;HX790_RS00320&lt;/b&gt;&lt;br&gt;TetR/AcrR family transcriptional regulator&lt;br&gt;Location: 100741 - 101334&lt;br&gt;&lt;br&gt;&lt;b&gt;BlastP hit with ctg3_86&lt;/b&gt;&lt;br&gt;Percentage identity: 85&lt;br&gt;Percentage coverage: 100&lt;br&gt;BLAST bit score: 330&lt;br&gt;E-value: 3.37e-115" locus_tag="HX790_RS00320" class="clusterblast-orf" id="dummy-1_h1_8_22"  />
</g>
<g id="a1_0023"  >
<polygon points="568,85 573,80 582,80 582,90 573,90 568,85 " style="fill:#15d871; stroke-width:1; stroke:black; " description="&lt;b&gt;HX790_RS00325&lt;/b&gt;&lt;br&gt;MATE family efflux transporter&lt;br&gt;Location: 101318 - 102673&lt;br&gt;&lt;br&gt;&lt;b&gt;BlastP hit with ctg3_87&lt;/b&gt;&lt;br&gt;Percentage identity: 95&lt;br&gt;Percentage coverage: 100&lt;br&gt;BLAST bit score: 788&lt;br&gt;E-value: 1.36e-287" locus_tag="HX790_RS00325" class="clusterblast-orf" id="dummy-1_h1_8_23"  />
</g>
<g id="a1_0024"  >
<polygon points="582,85 587,80 588,80 588,90 587,90 582,85 " style="fill:#2115d8; stroke-width:1; stroke:black; " description="&lt;b&gt;HX790_RS00330&lt;/b&gt;&lt;br&gt;DUF2239 family protein&lt;br&gt;Location: 102699 - 103271&lt;br&gt;&lt;br&gt;&lt;b&gt;BlastP hit with ctg3_88&lt;/b&gt;&lt;br&gt;Percentage identity: 79&lt;br&gt;Percentage coverage: 99&lt;br&gt;BLAST bit score: 307&lt;br&gt;E-value: 3.94e-106" locus_tag="HX790_RS00330" class="clusterblast-orf" id="dummy-1_h1_8_24"  />
</g>
<g id="a1_0025"  >
<polygon points="591,85 596,80 599,80 599,90 596,90 591,85 " style="fill:#15d8d8; stroke-width:1; stroke:black; " description="&lt;b&gt;HX790_RS00335&lt;/b&gt;&lt;br&gt;IclR family transcriptional regulator&lt;br&gt;Location: 103520 - 104350&lt;br&gt;&lt;br&gt;&lt;b&gt;BlastP hit with ctg3_100&lt;/b&gt;&lt;br&gt;Percentage identity: 97&lt;br&gt;Percentage coverage: 91&lt;br&gt;BLAST bit score: 518&lt;br&gt;E-value: 2.57e-186" locus_tag="HX790_RS00335" class="clusterblast-orf" id="dummy-1_h1_8_25"  />
</g>
<g id="a1_0026"  >
<polygon points="602,90 607,90 612,85 607,80 602,80 602,90 " style="fill:#d8155a; stroke-width:1; stroke:black; " description="&lt;b&gt;HX790_RS00340&lt;/b&gt;&lt;br&gt;ABC transporter ATP-binding protein&lt;br&gt;Location: 104593 - 105621&lt;br&gt;&lt;br&gt;&lt;b&gt;BlastP hit with ctg3_93&lt;/b&gt;&lt;br&gt;Percentage identity: 32&lt;br&gt;Percentage coverage: 103&lt;br&gt;BLAST bit score: 102&lt;br&gt;E-value: 9.32e-24" locus_tag="HX790_RS00340" class="clusterblast-orf" id="dummy-1_h1_8_26"  />
</g>
<g id="a1_0027"  >
<polygon points="612,90 616,90 621,85 616,80 612,80 612,90 " style="fill:white; stroke-width:1; stroke:black; " description="&lt;b&gt;HX790_RS00345&lt;/b&gt;&lt;br&gt;ABC transporter permease&lt;br&gt;Location: 105618 - 106463" locus_tag="HX790_RS00345" class="clusterblast-orf" id="dummy-1_h1_8_27"  />
</g>
<g id="a1_0028"  >
<polygon points="621,90 624,90 629,85 624,80 621,80 621,90 " style="fill:white; stroke-width:1; stroke:black; " description="&lt;b&gt;HX790_RS00350&lt;/b&gt;&lt;br&gt;ABC transporter permease&lt;br&gt;Location: 106468 - 107262" locus_tag="HX790_RS00350" class="clusterblast-orf" id="dummy-1_h1_8_28"  />
</g>
<g id="a1_0029"  >
<polygon points="629,90 632,85 629,80 629,90 " style="fill:white; stroke-width:1; stroke:black; " description="&lt;b&gt;HX790_RS00355&lt;/b&gt;&lt;br&gt;(2Fe-2S)-binding protein&lt;br&gt;Location: 107262 - 107552" locus_tag="HX790_RS00355" class="clusterblast-orf" id="dummy-1_h1_8_29"  />
</g>
<g id="a1_0030"  >
<polygon points="632,90 641,90 646,85 641,80 632,80 632,90 " style="fill:white; stroke-width:1; stroke:black; " description="&lt;b&gt;HX790_RS00360&lt;/b&gt;&lt;br&gt;FAD-dependent oxidoreductase&lt;br&gt;Location: 107549 - 108892" locus_tag="HX790_RS00360" class="clusterblast-orf" id="dummy-1_h1_8_30"  />
</g>
<g id="a1_0031"  >
<polygon points="646,90 653,90 658,85 653,80 646,80 646,90 " style="fill:white; stroke-width:1; stroke:black; " description="&lt;b&gt;HX790_RS00365&lt;/b&gt;&lt;br&gt;FAD-binding oxidoreductase&lt;br&gt;Location: 108889 - 109986" locus_tag="HX790_RS00365" class="clusterblast-orf" id="dummy-1_h1_8_31"  />
</g>
<g id="a1_0032"  >
<polygon points="658,90 663,90 668,85 663,80 658,80 658,90 " style="fill:white; stroke-width:1; stroke:black; " description="&lt;b&gt;HX790_RS00370&lt;/b&gt;&lt;br&gt;ABC transporter substrate-binding protein&lt;br&gt;Location: 109999 - 111030" locus_tag="HX790_RS00370" class="clusterblast-orf" id="dummy-1_h1_8_32"  />
</g>
<g id="a1_0033"  >
<polygon points="669,85 673,80 673,90 669,85 " style="fill:white; stroke-width:1; stroke:black; " description="&lt;b&gt;HX790_RS00375&lt;/b&gt;&lt;br&gt;hypothetical protein&lt;br&gt;Location: 111070 - 111426" locus_tag="HX790_RS00375" class="clusterblast-orf" id="dummy-1_h1_8_33"  />
</g>
<g id="a1_0034"  >
<polygon points="675,85 680,80 681,80 681,90 680,90 675,85 " style="fill:white; stroke-width:1; stroke:black; " description="&lt;b&gt;HX790_RS00380&lt;/b&gt;&lt;br&gt;nicotinamidase&lt;br&gt;Location: 111639 - 112286" locus_tag="HX790_RS00380" class="clusterblast-orf" id="dummy-1_h1_8_34"  />
</g>
<g id="a1_0035"  >
<polygon points="684,85 689,80 692,80 692,90 689,90 684,85 " style="fill:white; stroke-width:1; stroke:black; " description="&lt;b&gt;HX790_RS00385&lt;/b&gt;&lt;br&gt;L-iditol 2-dehydrogenase&lt;br&gt;Location: 112496 - 113269" locus_tag="HX790_RS00385" class="clusterblast-orf" id="dummy-1_h1_8_35"  />
</g>
<g id="a1_0036"  >
<polygon points="692,85 697,80 705,80 705,90 697,90 692,85 " style="fill:white; stroke-width:1; stroke:black; " description="&lt;b&gt;HX790_RS00390&lt;/b&gt;&lt;br&gt;sugar ABC transporter substrate-binding protein&lt;br&gt;Location: 113283 - 114593" locus_tag="HX790_RS00390" class="clusterblast-orf" id="dummy-1_h1_8_36"  />
</g>
<g id="a1_0037"  >
<polygon points="707,90 712,90 717,85 712,80 707,80 707,90 " style="fill:white; stroke-width:1; stroke:black; " description="&lt;b&gt;HX790_RS00395&lt;/b&gt;&lt;br&gt;helix-turn-helix domain-containing protein&lt;br&gt;Location: 114802 - 115740" locus_tag="HX790_RS00395" class="clusterblast-orf" id="dummy-1_h1_8_37"  />
</g>
<g id="a1_0038"  >
<polygon points="719,90 724,90 729,85 724,80 719,80 719,90 " style="fill:white; stroke-width:1; stroke:black; " description="&lt;b&gt;HX790_RS00400&lt;/b&gt;&lt;br&gt;nucleoside-specific channel-forming protein Tsx&lt;br&gt;Location: 115896 - 116858" locus_tag="HX790_RS00400" class="clusterblast-orf" id="dummy-1_h1_8_38"  />
</g>
<g id="a1_0039"  >
<polygon points="729,90 735,90 740,85 735,80 729,80 729,90 " style="fill:white; stroke-width:1; stroke:black; " description="&lt;b&gt;HX790_RS00405&lt;/b&gt;&lt;br&gt;purine nucleoside permease&lt;br&gt;Location: 116873 - 117901" locus_tag="HX790_RS00405" class="clusterblast-orf" id="dummy-1_h1_8_39"  />
</g>
<g id="a1_0040"  >
<polygon points="743,85 746,80 746,90 743,85 " style="fill:white; stroke-width:1; stroke:black; " description="&lt;b&gt;HX790_RS00410&lt;/b&gt;&lt;br&gt;hypothetical protein&lt;br&gt;Location: 118231 - 118566" locus_tag="HX790_RS00410" class="clusterblast-orf" id="dummy-1_h1_8_40"  />
</g>
</svg>
