<svg xmlns="http://www.w3.org/2000/svg" xmlns:xlink="http://www.w3.org/1999/xlink" version="1.1" x="0" y="0" height="230" width="800" viewBox="0 0 800 230" preserveAspectRatio="none"  >
<g label="Query sequence" class="clusterblast-cluster"  >
<text x="5" y="20" class="clusterblast-acc"  >
Query sequence</text>
<line x1="10" y1="35" x2="778.0" y2="35" style="stroke-width:1; stroke:grey; "  />
<polygon points="0,40 24,40 29,35 24,30 0,30 0,40 " style="fill:#d81515; stroke-width:1; stroke:black; " description="&lt;b&gt;ctg5_225&lt;/b&gt;&lt;br&gt;ctg5 225&lt;br&gt;Location: 279861 - 281325" locus_tag="ctg5_225" class="clusterblast-orf" id="dummy-1_q0_0_all"  />
<polygon points="29,35 34,30 37,30 37,40 34,40 29,35 " style="fill:#77d815; stroke-width:1; stroke:black; " description="&lt;b&gt;ctg5_226&lt;/b&gt;&lt;br&gt;ctg5 226&lt;br&gt;Location: 281330 - 281732" locus_tag="ctg5_226" class="clusterblast-orf" id="dummy-1_q1_0_all"  />
<polygon points="37,35 42,30 43,30 43,40 42,40 37,35 " style="fill:#15d8d8; stroke-width:1; stroke:black; " description="&lt;b&gt;ctg5_227&lt;/b&gt;&lt;br&gt;ctg5 227&lt;br&gt;Location: 281728 - 282025" locus_tag="ctg5_227" class="clusterblast-orf" id="dummy-1_q2_0_all"  />
<polygon points="48,40 51,40 56,35 51,30 48,30 48,40 " style="fill:#7715d8; stroke-width:1; stroke:black; " description="&lt;b&gt;ctg5_228&lt;/b&gt;&lt;br&gt;ctg5 228&lt;br&gt;Location: 282260 - 282695" locus_tag="ctg5_228" class="clusterblast-orf" id="dummy-1_q3_0_all"  />
<polygon points="59,35 63,30 63,40 59,35 " style="fill:#d83615; stroke-width:1; stroke:black; " description="&lt;b&gt;ctg5_229&lt;/b&gt;&lt;br&gt;ctg5 229&lt;br&gt;Location: 282826 - 283054" locus_tag="ctg5_229" class="clusterblast-orf" id="dummy-1_q4_0_all"  />
<polygon points="73,35 78,30 88,30 88,40 78,40 73,35 " style="fill:#56d815; stroke-width:1; stroke:black; " description="&lt;b&gt;ctg5_230&lt;/b&gt;&lt;br&gt;ctg5 230&lt;br&gt;Location: 283531 - 284302" locus_tag="ctg5_230" class="clusterblast-orf" id="dummy-1_q5_0_all"  />
<polygon points="97,40 104,40 109,35 104,30 97,30 97,40 " style="fill:#15b8d8; stroke-width:1; stroke:black; " description="&lt;b&gt;ctg5_231&lt;/b&gt;&lt;br&gt;ctg5 231&lt;br&gt;Location: 284730 - 285360" locus_tag="ctg5_231" class="clusterblast-orf" id="dummy-1_q6_0_all"  />
<polygon points="109,40 120,40 125,35 120,30 109,30 109,40 " style="fill:#9715d8; stroke-width:1; stroke:black; " description="&lt;b&gt;ctg5_232&lt;/b&gt;&lt;br&gt;ctg5 232&lt;br&gt;Location: 285335 - 286148" locus_tag="ctg5_232" class="clusterblast-orf" id="dummy-1_q7_0_all"  />
<polygon points="124,40 125,40 130,35 125,30 124,30 124,40 " style="fill:#d85615; stroke-width:1; stroke:black; " description="&lt;b&gt;ctg5_233&lt;/b&gt;&lt;br&gt;ctg5 233&lt;br&gt;Location: 286125 - 286395" locus_tag="ctg5_233" class="clusterblast-orf" id="dummy-1_q8_0_all"  />
<polygon points="130,40 130,40 135,35 130,30 130,30 130,40 " style="fill:#36d815; stroke-width:1; stroke:black; " description="&lt;b&gt;ctg5_234&lt;/b&gt;&lt;br&gt;ctg5 234&lt;br&gt;Location: 286404 - 286659" locus_tag="ctg5_234" class="clusterblast-orf" id="dummy-1_q9_0_all"  />
<polygon points="135,40 140,40 145,35 140,30 135,30 135,40 " style="fill:#1597d8; stroke-width:1; stroke:black; " description="&lt;b&gt;ctg5_235&lt;/b&gt;&lt;br&gt;ctg5 235&lt;br&gt;Location: 286655 - 287201" locus_tag="ctg5_235" class="clusterblast-orf" id="dummy-1_q10_0_all"  />
<polygon points="145,40 173,40 178,35 173,30 145,30 145,40 " style="fill:#b815d8; stroke-width:1; stroke:black; " description="&lt;b&gt;ctg5_236&lt;/b&gt;&lt;br&gt;ctg5 236&lt;br&gt;Location: 287197 - 288868" locus_tag="ctg5_236" class="clusterblast-orf" id="dummy-1_q11_0_all"  />
<polygon points="178,40 188,40 193,35 188,30 178,30 178,40 " style="fill:#b815d8; stroke-width:1; stroke:black; " description="&lt;b&gt;ctg5_237&lt;/b&gt;&lt;br&gt;ctg5 237&lt;br&gt;Location: 288860 - 289595" locus_tag="ctg5_237" class="clusterblast-orf" id="dummy-1_q12_0_all"  />
<polygon points="193,40 206,40 211,35 206,30 193,30 193,40 " style="fill:#d87715; stroke-width:1; stroke:black; " description="&lt;b&gt;ctg5_238&lt;/b&gt;&lt;br&gt;ctg5 238&lt;br&gt;Location: 289591 - 290527" locus_tag="ctg5_238" class="clusterblast-orf" id="dummy-1_q13_0_all"  />
<polygon points="211,40 236,40 241,35 236,30 211,30 211,40 " style="fill:#15d815; stroke-width:1; stroke:black; " description="&lt;b&gt;ctg5_239&lt;/b&gt;&lt;br&gt;ctg5 239&lt;br&gt;Location: 290510 - 292052" locus_tag="ctg5_239" class="clusterblast-orf" id="dummy-1_q14_0_all"  />
<polygon points="241,40 245,40 250,35 245,30 241,30 241,40 " style="fill:#1577d8; stroke-width:1; stroke:black; " description="&lt;b&gt;ctg5_240&lt;/b&gt;&lt;br&gt;ctg5 240&lt;br&gt;Location: 292044 - 292470" locus_tag="ctg5_240" class="clusterblast-orf" id="dummy-1_q15_0_all"  />
<polygon points="250,40 258,40 263,35 258,30 250,30 250,40 " style="fill:#d815d8; stroke-width:1; stroke:black; " description="&lt;b&gt;ctg5_241&lt;/b&gt;&lt;br&gt;ctg5 241&lt;br&gt;Location: 292499 - 293150" locus_tag="ctg5_241" class="clusterblast-orf" id="dummy-1_q16_0_all"  />
<polygon points="263,40 303,40 308,35 303,30 263,30 263,40 " style="fill:#d89715; stroke-width:1; stroke:black; " description="&lt;b&gt;ctg5_242&lt;/b&gt;&lt;br&gt;ctg5 242&lt;br&gt;Location: 293139 - 295452" locus_tag="ctg5_242" class="clusterblast-orf" id="dummy-1_q17_0_all"  />
<polygon points="309,40 329,40 334,35 329,30 309,30 309,40 " style="fill:#15d836; stroke-width:1; stroke:black; " description="&lt;b&gt;ctg5_243&lt;/b&gt;&lt;br&gt;ctg5 243&lt;br&gt;Location: 295485 - 296733" locus_tag="ctg5_243" class="clusterblast-orf" id="dummy-1_q18_0_all"  />
<polygon points="334,40 343,40 348,35 343,30 334,30 334,40 " style="fill:#1556d8; stroke-width:1; stroke:black; " description="&lt;b&gt;ctg5_244&lt;/b&gt;&lt;br&gt;ctg5 244&lt;br&gt;Location: 296729 - 297464" locus_tag="ctg5_244" class="clusterblast-orf" id="dummy-1_q19_0_all"  />
<polygon points="348,40 353,40 358,35 353,30 348,30 348,40 " style="fill:#d815b8; stroke-width:1; stroke:black; " description="&lt;b&gt;ctg5_245&lt;/b&gt;&lt;br&gt;ctg5 245&lt;br&gt;Location: 297460 - 297943" locus_tag="ctg5_245" class="clusterblast-orf" id="dummy-1_q20_0_all"  />
<polygon points="358,40 376,40 381,35 376,30 358,30 358,40 " style="fill:#d8b815; stroke-width:1; stroke:black; " description="&lt;b&gt;ctg5_246&lt;/b&gt;&lt;br&gt;ctg5 246&lt;br&gt;Location: 297939 - 299106" locus_tag="ctg5_246" class="clusterblast-orf" id="dummy-1_q21_0_all"  />
<polygon points="381,40 385,40 390,35 385,30 381,30 381,40 " style="fill:#15d856; stroke-width:1; stroke:black; " description="&lt;b&gt;ctg5_247&lt;/b&gt;&lt;br&gt;ctg5 247&lt;br&gt;Location: 299102 - 299564" locus_tag="ctg5_247" class="clusterblast-orf" id="dummy-1_q22_0_all"  />
<polygon points="390,40 399,40 404,35 399,30 390,30 390,40 " style="fill:#1536d8; stroke-width:1; stroke:black; " description="&lt;b&gt;ctg5_248&lt;/b&gt;&lt;br&gt;ctg5 248&lt;br&gt;Location: 299560 - 300289" locus_tag="ctg5_248" class="clusterblast-orf" id="dummy-1_q23_0_all"  />
<polygon points="404,40 423,40 428,35 423,30 404,30 404,40 " style="fill:#d8b815; stroke-width:1; stroke:black; " description="&lt;b&gt;ctg5_249&lt;/b&gt;&lt;br&gt;ctg5 249&lt;br&gt;Location: 300288 - 301515" locus_tag="ctg5_249" class="clusterblast-orf" id="dummy-1_q24_0_all"  />
<polygon points="429,40 433,40 438,35 433,30 429,30 429,40 " style="fill:#d81597; stroke-width:1; stroke:black; " description="&lt;b&gt;ctg5_250&lt;/b&gt;&lt;br&gt;ctg5 250&lt;br&gt;Location: 301542 - 301992" locus_tag="ctg5_250" class="clusterblast-orf" id="dummy-1_q25_0_all"  />
<polygon points="444,35 449,30 461,30 461,40 449,40 444,35 " style="fill:#d8d815; stroke-width:1; stroke:black; " description="&lt;b&gt;ctg5_251&lt;/b&gt;&lt;br&gt;ctg5 251&lt;br&gt;Location: 302291 - 303185" locus_tag="ctg5_251" class="clusterblast-orf" id="dummy-1_q26_0_all"  />
<polygon points="464,40 484,40 489,35 484,30 464,30 464,40 " style="fill:#15d877; stroke-width:1; stroke:black; " description="&lt;b&gt;ctg5_252&lt;/b&gt;&lt;br&gt;ctg5 252&lt;br&gt;Location: 303309 - 304584" locus_tag="ctg5_252" class="clusterblast-orf" id="dummy-1_q27_0_all"  />
<polygon points="491,35 496,30 512,30 512,40 496,40 491,35 " style="fill:#1515d8; stroke-width:1; stroke:black; " description="&lt;b&gt;ctg5_253&lt;/b&gt;&lt;br&gt;ctg5 253&lt;br&gt;Location: 304700 - 305768" locus_tag="ctg5_253" class="clusterblast-orf" id="dummy-1_q28_0_all"  />
<polygon points="517,35 522,30 545,30 545,40 522,40 517,35 " style="fill:#d81577; stroke-width:1; stroke:black; " description="&lt;b&gt;ctg5_254&lt;/b&gt;&lt;br&gt;ctg5 254&lt;br&gt;Location: 306021 - 307440" locus_tag="ctg5_254" class="clusterblast-orf" id="dummy-1_q29_0_all"  />
<polygon points="548,35 553,30 636,30 636,40 553,40 548,35 " style="fill:#b8d815; stroke-width:1; stroke:black; " description="&lt;b&gt;ctg5_255&lt;/b&gt;&lt;br&gt;ctg5 255&lt;br&gt;Location: 307564 - 312010" locus_tag="ctg5_255" class="clusterblast-orf" id="dummy-1_q30_0_all"  />
<polygon points="643,35 648,30 674,30 674,40 648,40 643,35 " style="fill:#15d897; stroke-width:1; stroke:black; " description="&lt;b&gt;ctg5_256&lt;/b&gt;&lt;br&gt;ctg5 256&lt;br&gt;Location: 312362 - 313931" locus_tag="ctg5_256" class="clusterblast-orf" id="dummy-1_q31_0_all"  />
<polygon points="674,35 679,30 696,30 696,40 679,40 674,35 " style="fill:#3615d8; stroke-width:1; stroke:black; " description="&lt;b&gt;ctg5_257&lt;/b&gt;&lt;br&gt;ctg5 257&lt;br&gt;Location: 313941 - 315042" locus_tag="ctg5_257" class="clusterblast-orf" id="dummy-1_q32_0_all"  />
<polygon points="698,35 703,30 708,30 708,40 703,40 698,35 " style="fill:#d81556; stroke-width:1; stroke:black; " description="&lt;b&gt;ctg5_258&lt;/b&gt;&lt;br&gt;ctg5 258&lt;br&gt;Location: 315166 - 315658" locus_tag="ctg5_258" class="clusterblast-orf" id="dummy-1_q33_0_all"  />
<polygon points="708,35 713,30 736,30 736,40 713,40 708,35 " style="fill:#97d815; stroke-width:1; stroke:black; " description="&lt;b&gt;ctg5_259&lt;/b&gt;&lt;br&gt;ctg5 259&lt;br&gt;Location: 315689 - 317075" locus_tag="ctg5_259" class="clusterblast-orf" id="dummy-1_q34_0_all"  />
<polygon points="736,35 741,30 755,30 755,40 741,40 736,35 " style="fill:#15d8b8; stroke-width:1; stroke:black; " description="&lt;b&gt;ctg5_260&lt;/b&gt;&lt;br&gt;ctg5 260&lt;br&gt;Location: 317087 - 318059" locus_tag="ctg5_260" class="clusterblast-orf" id="dummy-1_q35_0_all"  />
<polygon points="755,35 760,30 766,30 766,40 760,40 755,35 " style="fill:#5615d8; stroke-width:1; stroke:black; " description="&lt;b&gt;ctg5_261&lt;/b&gt;&lt;br&gt;ctg5 261&lt;br&gt;Location: 318055 - 318607" locus_tag="ctg5_261" class="clusterblast-orf" id="dummy-1_q36_0_all"  />
<polygon points="766,35 771,30 779,30 779,40 771,40 766,35 " style="fill:#d81536; stroke-width:1; stroke:black; " description="&lt;b&gt;ctg5_262&lt;/b&gt;&lt;br&gt;ctg5 262&lt;br&gt;Location: 318603 - 319260" locus_tag="ctg5_262" class="clusterblast-orf" id="dummy-1_q37_0_all"  />
</g>
<g label="NZ_CP015600" description="NZ_CP015600 (486845-530421): Pseudomonas antarctica strain PAMC 27494 chromos... (100% of genes show similarity), arylpolyene" class="clusterblast-cluster"  >
<text x="5" y="70" class="clusterblast-acc"  >
<a xlink:href="https://antismash-db.secondarymetabolites.org/area.html?record=NZ_CP015600&amp;start=486845&amp;end=530421" target="_blank">NZ_CP015600 (486845-530421)</a>: Pseudomonas antarctica strain PAMC 27494 chromos... (100% of genes show similarity), arylpolyene</text>
<line x1="10" y1="85" x2="778.0" y2="85" style="stroke-width:1; stroke:grey; "  />
</g>
<g id="a1_000"  >
<polygon points="0,90 23,90 28,85 23,80 0,80 0,90 " style="fill:#d81515; stroke-width:1; stroke:black; " description="&lt;b&gt;A7J50_RS02160&lt;/b&gt;&lt;br&gt;YdiU family protein&lt;br&gt;Location: 528499 - 527036&lt;br&gt;&lt;br&gt;&lt;b&gt;BlastP hit with ctg5_225&lt;/b&gt;&lt;br&gt;Percentage identity: 99&lt;br&gt;Percentage coverage: 100&lt;br&gt;BLAST bit score: 983&lt;br&gt;E-value: 0.0" locus_tag="A7J50_RS02160" class="clusterblast-orf" id="dummy-1_h1_1_0"  />
</g>
<g id="a1_001"  >
<polygon points="29,85 34,80 36,80 36,90 34,90 29,85 " style="fill:#77d815; stroke-width:1; stroke:black; " description="&lt;b&gt;A7J50_RS02155&lt;/b&gt;&lt;br&gt;hypothetical protein&lt;br&gt;Location: 527030 - 526629&lt;br&gt;&lt;br&gt;&lt;b&gt;BlastP hit with ctg5_226&lt;/b&gt;&lt;br&gt;Percentage identity: 100&lt;br&gt;Percentage coverage: 100&lt;br&gt;BLAST bit score: 264&lt;br&gt;E-value: 4.62e-91" locus_tag="A7J50_RS02155" class="clusterblast-orf" id="dummy-1_h1_1_1"  />
</g>
<g id="a1_002"  >
<polygon points="36,85 41,80 42,80 42,90 41,90 36,85 " style="fill:#15d8d8; stroke-width:1; stroke:black; " description="&lt;b&gt;A7J50_RS02150&lt;/b&gt;&lt;br&gt;type II toxin-antitoxin system HigB family toxin&lt;br&gt;Location: 526632 - 526336&lt;br&gt;&lt;br&gt;&lt;b&gt;BlastP hit with ctg5_227&lt;/b&gt;&lt;br&gt;Percentage identity: 98&lt;br&gt;Percentage coverage: 100&lt;br&gt;BLAST bit score: 200&lt;br&gt;E-value: 7.32e-67" locus_tag="A7J50_RS02150" class="clusterblast-orf" id="dummy-1_h1_1_2"  />
</g>
<g id="a1_003"  >
<polygon points="47,90 50,90 55,85 50,80 47,80 47,90 " style="fill:#7715d8; stroke-width:1; stroke:black; " description="&lt;b&gt;A7J50_RS02145&lt;/b&gt;&lt;br&gt;thioredoxin TrxC&lt;br&gt;Location: 526100 - 525666&lt;br&gt;&lt;br&gt;&lt;b&gt;BlastP hit with ctg5_228&lt;/b&gt;&lt;br&gt;Percentage identity: 100&lt;br&gt;Percentage coverage: 100&lt;br&gt;BLAST bit score: 301&lt;br&gt;E-value: 2.4e-105" locus_tag="A7J50_RS02145" class="clusterblast-orf" id="dummy-1_h1_1_3"  />
</g>
<g id="a1_004"  >
<polygon points="58,85 63,80 63,80 63,90 63,90 58,85 " style="fill:#d83615; stroke-width:1; stroke:black; " description="&lt;b&gt;A7J50_RS02140&lt;/b&gt;&lt;br&gt;hypothetical protein&lt;br&gt;Location: 525534 - 525307&lt;br&gt;&lt;br&gt;&lt;b&gt;BlastP hit with ctg5_229&lt;/b&gt;&lt;br&gt;Percentage identity: 99&lt;br&gt;Percentage coverage: 100&lt;br&gt;BLAST bit score: 142&lt;br&gt;E-value: 1.55e-44" locus_tag="A7J50_RS02140" class="clusterblast-orf" id="dummy-1_h1_1_4"  />
</g>
<g id="a1_005"  >
<polygon points="72,85 77,80 87,80 87,90 77,90 72,85 " style="fill:#56d815; stroke-width:1; stroke:black; " description="&lt;b&gt;A7J50_RS02135&lt;/b&gt;&lt;br&gt;ParA family protein&lt;br&gt;Location: 524829 - 524059&lt;br&gt;&lt;br&gt;&lt;b&gt;BlastP hit with ctg5_230&lt;/b&gt;&lt;br&gt;Percentage identity: 100&lt;br&gt;Percentage coverage: 100&lt;br&gt;BLAST bit score: 503&lt;br&gt;E-value: 2.23e-181" locus_tag="A7J50_RS02135" class="clusterblast-orf" id="dummy-1_h1_1_5"  />
</g>
<g id="a1_006"  >
<polygon points="94,90 103,90 108,85 103,80 94,80 94,90 " style="fill:#15b8d8; stroke-width:1; stroke:black; " description="&lt;b&gt;A7J50_RS02130&lt;/b&gt;&lt;br&gt;beta-ketoacyl synthase chain length factor&lt;br&gt;Location: 523720 - 523001&lt;br&gt;&lt;br&gt;&lt;b&gt;BlastP hit with ctg5_231&lt;/b&gt;&lt;br&gt;Percentage identity: 100&lt;br&gt;Percentage coverage: 100&lt;br&gt;BLAST bit score: 424&lt;br&gt;E-value: 3.18e-151" locus_tag="A7J50_RS02130" class="clusterblast-orf" id="dummy-1_h1_1_6"  />
</g>
<g id="a1_007"  >
<polygon points="108,90 119,90 124,85 119,80 108,80 108,90 " style="fill:#9715d8; stroke-width:1; stroke:black; " description="&lt;b&gt;A7J50_RS02125&lt;/b&gt;&lt;br&gt;1-acyl-sn-glycerol-3-phosphate acyltransferase&lt;br&gt;Location: 523025 - 522213&lt;br&gt;&lt;br&gt;&lt;b&gt;BlastP hit with ctg5_232&lt;/b&gt;&lt;br&gt;Percentage identity: 100&lt;br&gt;Percentage coverage: 100&lt;br&gt;BLAST bit score: 548&lt;br&gt;E-value: 6.74e-199" locus_tag="A7J50_RS02125" class="clusterblast-orf" id="dummy-1_h1_1_7"  />
</g>
<g id="a1_008"  >
<polygon points="123,90 124,90 129,85 124,80 123,80 123,90 " style="fill:#d85615; stroke-width:1; stroke:black; " description="&lt;b&gt;A7J50_RS02120&lt;/b&gt;&lt;br&gt;acyl carrier protein&lt;br&gt;Location: 522235 - 521966&lt;br&gt;&lt;br&gt;&lt;b&gt;BlastP hit with ctg5_233&lt;/b&gt;&lt;br&gt;Percentage identity: 100&lt;br&gt;Percentage coverage: 100&lt;br&gt;BLAST bit score: 170&lt;br&gt;E-value: 4.33e-55" locus_tag="A7J50_RS02120" class="clusterblast-orf" id="dummy-1_h1_1_8"  />
</g>
<g id="a1_009"  >
<polygon points="129,90 129,90 134,85 129,80 129,80 129,90 " style="fill:#36d815; stroke-width:1; stroke:black; " description="&lt;b&gt;A7J50_RS02115&lt;/b&gt;&lt;br&gt;acyl carrier protein&lt;br&gt;Location: 521956 - 521702&lt;br&gt;&lt;br&gt;&lt;b&gt;BlastP hit with ctg5_234&lt;/b&gt;&lt;br&gt;Percentage identity: 100&lt;br&gt;Percentage coverage: 100&lt;br&gt;BLAST bit score: 163&lt;br&gt;E-value: 1.19e-52" locus_tag="A7J50_RS02115" class="clusterblast-orf" id="dummy-1_h1_1_9"  />
</g>
<g id="a1_0010"  >
<polygon points="134,90 140,90 145,85 140,80 134,80 134,90 " style="fill:#1597d8; stroke-width:1; stroke:black; " description="&lt;b&gt;A7J50_RS02110&lt;/b&gt;&lt;br&gt;hypothetical protein&lt;br&gt;Location: 521705 - 521160&lt;br&gt;&lt;br&gt;&lt;b&gt;BlastP hit with ctg5_235&lt;/b&gt;&lt;br&gt;Percentage identity: 99&lt;br&gt;Percentage coverage: 100&lt;br&gt;BLAST bit score: 362&lt;br&gt;E-value: 3.17e-128" locus_tag="A7J50_RS02110" class="clusterblast-orf" id="dummy-1_h1_1_10"  />
</g>
<g id="a1_0011"  >
<polygon points="144,90 172,90 177,85 172,80 144,80 144,90 " style="fill:#b815d8; stroke-width:1; stroke:black; " description="&lt;b&gt;A7J50_RS02105&lt;/b&gt;&lt;br&gt;AMP-binding protein&lt;br&gt;Location: 521163 - 519493&lt;br&gt;&lt;br&gt;&lt;b&gt;BlastP hit with ctg5_236&lt;/b&gt;&lt;br&gt;Percentage identity: 100&lt;br&gt;Percentage coverage: 100&lt;br&gt;BLAST bit score: 1107&lt;br&gt;E-value: 0.0" locus_tag="A7J50_RS02105" class="clusterblast-orf" id="dummy-1_h1_1_11"  />
</g>
<g id="a1_0012"  >
<polygon points="177,90 187,90 192,85 187,80 177,80 177,90 " style="fill:#b815d8; stroke-width:1; stroke:black; " description="&lt;b&gt;A7J50_RS02100&lt;/b&gt;&lt;br&gt;glycosyltransferase family 2 protein&lt;br&gt;Location: 519500 - 518766&lt;br&gt;&lt;br&gt;&lt;b&gt;BlastP hit with ctg5_237&lt;/b&gt;&lt;br&gt;Percentage identity: 100&lt;br&gt;Percentage coverage: 100&lt;br&gt;BLAST bit score: 510&lt;br&gt;E-value: 7.86e-185" locus_tag="A7J50_RS02100" class="clusterblast-orf" id="dummy-1_h1_1_12"  />
</g>
<g id="a1_0013"  >
<polygon points="192,90 205,90 210,85 205,80 192,80 192,90 " style="fill:#d87715; stroke-width:1; stroke:black; " description="&lt;b&gt;A7J50_RS02095&lt;/b&gt;&lt;br&gt;glycosyl transferase&lt;br&gt;Location: 518769 - 517834&lt;br&gt;&lt;br&gt;&lt;b&gt;BlastP hit with ctg5_238&lt;/b&gt;&lt;br&gt;Percentage identity: 99&lt;br&gt;Percentage coverage: 100&lt;br&gt;BLAST bit score: 635&lt;br&gt;E-value: 4.02e-232" locus_tag="A7J50_RS02095" class="clusterblast-orf" id="dummy-1_h1_1_13"  />
</g>
<g id="a1_0014"  >
<polygon points="210,90 235,90 240,85 235,80 210,80 210,90 " style="fill:#15d815; stroke-width:1; stroke:black; " description="&lt;b&gt;A7J50_RS02090&lt;/b&gt;&lt;br&gt;aromatic amino acid lyase&lt;br&gt;Location: 517850 - 516309&lt;br&gt;&lt;br&gt;&lt;b&gt;BlastP hit with ctg5_239&lt;/b&gt;&lt;br&gt;Percentage identity: 100&lt;br&gt;Percentage coverage: 100&lt;br&gt;BLAST bit score: 1013&lt;br&gt;E-value: 0.0" locus_tag="A7J50_RS02090" class="clusterblast-orf" id="dummy-1_h1_1_14"  />
</g>
<g id="a1_0015"  >
<polygon points="240,90 244,90 249,85 244,80 240,80 240,90 " style="fill:#1577d8; stroke-width:1; stroke:black; " description="&lt;b&gt;A7J50_RS02085&lt;/b&gt;&lt;br&gt;acyl-CoA thioesterase&lt;br&gt;Location: 516316 - 515891&lt;br&gt;&lt;br&gt;&lt;b&gt;BlastP hit with ctg5_240&lt;/b&gt;&lt;br&gt;Percentage identity: 100&lt;br&gt;Percentage coverage: 100&lt;br&gt;BLAST bit score: 290&lt;br&gt;E-value: 7.21e-101" locus_tag="A7J50_RS02085" class="clusterblast-orf" id="dummy-1_h1_1_15"  />
</g>
<g id="a1_0016"  >
<polygon points="249,90 257,90 262,85 257,80 249,80 249,90 " style="fill:#d815d8; stroke-width:1; stroke:black; " description="&lt;b&gt;A7J50_RS02080&lt;/b&gt;&lt;br&gt;outer membrane lipoprotein carrier protein LolA&lt;br&gt;Location: 515861 - 515211&lt;br&gt;&lt;br&gt;&lt;b&gt;BlastP hit with ctg5_241&lt;/b&gt;&lt;br&gt;Percentage identity: 99&lt;br&gt;Percentage coverage: 100&lt;br&gt;BLAST bit score: 414&lt;br&gt;E-value: 8.43e-148" locus_tag="A7J50_RS02080" class="clusterblast-orf" id="dummy-1_h1_1_16"  />
</g>
<g id="a1_0017"  >
<polygon points="262,90 303,90 308,85 303,80 262,80 262,90 " style="fill:#d89715; stroke-width:1; stroke:black; " description="&lt;b&gt;A7J50_RS02075&lt;/b&gt;&lt;br&gt;MMPL family transporter&lt;br&gt;Location: 515221 - 512909&lt;br&gt;&lt;br&gt;&lt;b&gt;BlastP hit with ctg5_242&lt;/b&gt;&lt;br&gt;Percentage identity: 100&lt;br&gt;Percentage coverage: 100&lt;br&gt;BLAST bit score: 1463&lt;br&gt;E-value: 0.0" locus_tag="A7J50_RS02075" class="clusterblast-orf" id="dummy-1_h1_1_17"  />
</g>
<g id="a1_0018"  >
<polygon points="308,90 328,90 333,85 328,80 308,80 308,90 " style="fill:#15d836; stroke-width:1; stroke:black; " description="&lt;b&gt;A7J50_RS02070&lt;/b&gt;&lt;br&gt;FAD-dependent oxidoreductase&lt;br&gt;Location: 512875 - 511628&lt;br&gt;&lt;br&gt;&lt;b&gt;BlastP hit with ctg5_243&lt;/b&gt;&lt;br&gt;Percentage identity: 99&lt;br&gt;Percentage coverage: 100&lt;br&gt;BLAST bit score: 840&lt;br&gt;E-value: 1.09e-309" locus_tag="A7J50_RS02070" class="clusterblast-orf" id="dummy-1_h1_1_18"  />
</g>
<g id="a1_0019"  >
<polygon points="333,90 342,90 347,85 342,80 333,80 333,90 " style="fill:#1556d8; stroke-width:1; stroke:black; " description="&lt;b&gt;A7J50_RS02065&lt;/b&gt;&lt;br&gt;class I SAM-dependent methyltransferase&lt;br&gt;Location: 511631 - 510897&lt;br&gt;&lt;br&gt;&lt;b&gt;BlastP hit with ctg5_244&lt;/b&gt;&lt;br&gt;Percentage identity: 100&lt;br&gt;Percentage coverage: 100&lt;br&gt;BLAST bit score: 504&lt;br&gt;E-value: 1.52e-182" locus_tag="A7J50_RS02065" class="clusterblast-orf" id="dummy-1_h1_1_19"  />
</g>
<g id="a1_0020"  >
<polygon points="347,90 352,90 357,85 352,80 347,80 347,90 " style="fill:#d815b8; stroke-width:1; stroke:black; " description="&lt;b&gt;A7J50_RS02060&lt;/b&gt;&lt;br&gt;hypothetical protein&lt;br&gt;Location: 510900 - 510418&lt;br&gt;&lt;br&gt;&lt;b&gt;BlastP hit with ctg5_245&lt;/b&gt;&lt;br&gt;Percentage identity: 100&lt;br&gt;Percentage coverage: 100&lt;br&gt;BLAST bit score: 321&lt;br&gt;E-value: 9.42e-113" locus_tag="A7J50_RS02060" class="clusterblast-orf" id="dummy-1_h1_1_20"  />
</g>
<g id="a1_0021"  >
<polygon points="357,90 375,90 380,85 375,80 357,80 357,90 " style="fill:#d8b815; stroke-width:1; stroke:black; " description="&lt;b&gt;A7J50_RS02055&lt;/b&gt;&lt;br&gt;beta-ketoacyl-[acyl-carrier-protein] synthase family protein&lt;br&gt;Location: 510421 - 509255&lt;br&gt;&lt;br&gt;&lt;b&gt;BlastP hit with ctg5_246&lt;/b&gt;&lt;br&gt;Percentage identity: 100&lt;br&gt;Percentage coverage: 100&lt;br&gt;BLAST bit score: 778&lt;br&gt;E-value: 4.57e-286" locus_tag="A7J50_RS02055" class="clusterblast-orf" id="dummy-1_h1_1_21"  />
</g>
<g id="a1_0022"  >
<polygon points="380,90 384,90 389,85 384,80 380,80 380,90 " style="fill:#15d856; stroke-width:1; stroke:black; " description="&lt;b&gt;A7J50_RS02050&lt;/b&gt;&lt;br&gt;hotdog family protein&lt;br&gt;Location: 509258 - 508797&lt;br&gt;&lt;br&gt;&lt;b&gt;BlastP hit with ctg5_247&lt;/b&gt;&lt;br&gt;Percentage identity: 99&lt;br&gt;Percentage coverage: 100&lt;br&gt;BLAST bit score: 314&lt;br&gt;E-value: 3.08e-110" locus_tag="A7J50_RS02050" class="clusterblast-orf" id="dummy-1_h1_1_22"  />
</g>
<g id="a1_0023"  >
<polygon points="389,90 398,90 403,85 398,80 389,80 389,90 " style="fill:#1536d8; stroke-width:1; stroke:black; " description="&lt;b&gt;A7J50_RS02045&lt;/b&gt;&lt;br&gt;3-oxoacyl-ACP reductase FabG&lt;br&gt;Location: 508800 - 508072&lt;br&gt;&lt;br&gt;&lt;b&gt;BlastP hit with ctg5_248&lt;/b&gt;&lt;br&gt;Percentage identity: 100&lt;br&gt;Percentage coverage: 100&lt;br&gt;BLAST bit score: 472&lt;br&gt;E-value: 8.39e-170" locus_tag="A7J50_RS02045" class="clusterblast-orf" id="dummy-1_h1_1_23"  />
</g>
<g id="a1_0024"  >
<polygon points="403,90 422,90 427,85 422,80 403,80 403,90 " style="fill:#d8b815; stroke-width:1; stroke:black; " description="&lt;b&gt;A7J50_RS02040&lt;/b&gt;&lt;br&gt;beta-ketoacyl-ACP synthase&lt;br&gt;Location: 508072 - 506846&lt;br&gt;&lt;br&gt;&lt;b&gt;BlastP hit with ctg5_249&lt;/b&gt;&lt;br&gt;Percentage identity: 100&lt;br&gt;Percentage coverage: 100&lt;br&gt;BLAST bit score: 824&lt;br&gt;E-value: 1.59e-303" locus_tag="A7J50_RS02040" class="clusterblast-orf" id="dummy-1_h1_1_24"  />
</g>
<g id="a1_0025"  >
<polygon points="428,90 432,90 437,85 432,80 428,80 428,90 " style="fill:#d81597; stroke-width:1; stroke:black; " description="&lt;b&gt;A7J50_RS02035&lt;/b&gt;&lt;br&gt;hypothetical protein&lt;br&gt;Location: 506818 - 506369&lt;br&gt;&lt;br&gt;&lt;b&gt;BlastP hit with ctg5_250&lt;/b&gt;&lt;br&gt;Percentage identity: 99&lt;br&gt;Percentage coverage: 100&lt;br&gt;BLAST bit score: 284&lt;br&gt;E-value: 2.55e-98" locus_tag="A7J50_RS02035" class="clusterblast-orf" id="dummy-1_h1_1_25"  />
</g>
<g id="a1_0026"  >
<polygon points="443,85 448,80 460,80 460,90 448,90 443,85 " style="fill:#d8d815; stroke-width:1; stroke:black; " description="&lt;b&gt;A7J50_RS02030&lt;/b&gt;&lt;br&gt;LysR family transcriptional regulator&lt;br&gt;Location: 506069 - 505176&lt;br&gt;&lt;br&gt;&lt;b&gt;BlastP hit with ctg5_251&lt;/b&gt;&lt;br&gt;Percentage identity: 99&lt;br&gt;Percentage coverage: 100&lt;br&gt;BLAST bit score: 558&lt;br&gt;E-value: 8.43e-202" locus_tag="A7J50_RS02030" class="clusterblast-orf" id="dummy-1_h1_1_26"  />
</g>
<g id="a1_0027"  >
<polygon points="460,90 483,90 488,85 483,80 460,80 460,90 " style="fill:#15d877; stroke-width:1; stroke:black; " description="&lt;b&gt;A7J50_RS02025&lt;/b&gt;&lt;br&gt;MFS transporter&lt;br&gt;Location: 505177 - 503777&lt;br&gt;&lt;br&gt;&lt;b&gt;BlastP hit with ctg5_252&lt;/b&gt;&lt;br&gt;Percentage identity: 100&lt;br&gt;Percentage coverage: 100&lt;br&gt;BLAST bit score: 791&lt;br&gt;E-value: 4.91e-289" locus_tag="A7J50_RS02025" class="clusterblast-orf" id="dummy-1_h1_1_27"  />
</g>
<g id="a1_0028"  >
<polygon points="492,85 497,80 513,80 513,90 497,90 492,85 " style="fill:#1515d8; stroke-width:1; stroke:black; " description="&lt;b&gt;A7J50_RS02020&lt;/b&gt;&lt;br&gt;uroporphyrinogen decarboxylase&lt;br&gt;Location: 503596 - 502529&lt;br&gt;&lt;br&gt;&lt;b&gt;BlastP hit with ctg5_253&lt;/b&gt;&lt;br&gt;Percentage identity: 100&lt;br&gt;Percentage coverage: 100&lt;br&gt;BLAST bit score: 719&lt;br&gt;E-value: 1.47e-263" locus_tag="A7J50_RS02020" class="clusterblast-orf" id="dummy-1_h1_1_28"  />
</g>
<g id="a1_0029"  >
<polygon points="518,85 523,80 546,80 546,90 523,90 518,85 " style="fill:#d81577; stroke-width:1; stroke:black; " description="&lt;b&gt;A7J50_RS02015&lt;/b&gt;&lt;br&gt;FAD-dependent oxidoreductase&lt;br&gt;Location: 502275 - 500857&lt;br&gt;&lt;br&gt;&lt;b&gt;BlastP hit with ctg5_254&lt;/b&gt;&lt;br&gt;Percentage identity: 100&lt;br&gt;Percentage coverage: 100&lt;br&gt;BLAST bit score: 961&lt;br&gt;E-value: 0.0" locus_tag="A7J50_RS02015" class="clusterblast-orf" id="dummy-1_h1_1_29"  />
</g>
<g id="a1_0030"  >
<polygon points="548,85 553,80 636,80 636,90 553,90 548,85 " style="fill:#b8d815; stroke-width:1; stroke:black; " description="&lt;b&gt;A7J50_RS02010&lt;/b&gt;&lt;br&gt;glutamate synthase large subunit&lt;br&gt;Location: 500732 - 496287&lt;br&gt;&lt;br&gt;&lt;b&gt;BlastP hit with ctg5_255&lt;/b&gt;&lt;br&gt;Percentage identity: 100&lt;br&gt;Percentage coverage: 100&lt;br&gt;BLAST bit score: 2897&lt;br&gt;E-value: 0.0" locus_tag="A7J50_RS02010" class="clusterblast-orf" id="dummy-1_h1_1_30"  />
</g>
<g id="a1_0031"  >
<polygon points="643,85 648,80 674,80 674,90 648,90 643,85 " style="fill:#15d897; stroke-width:1; stroke:black; " description="&lt;b&gt;A7J50_RS02000&lt;/b&gt;&lt;br&gt;AAA family ATPase&lt;br&gt;Location: 495934 - 494360&lt;br&gt;&lt;br&gt;&lt;b&gt;BlastP hit with ctg5_256&lt;/b&gt;&lt;br&gt;Percentage identity: 98&lt;br&gt;Percentage coverage: 100&lt;br&gt;BLAST bit score: 872&lt;br&gt;E-value: 0.0" locus_tag="A7J50_RS02000" class="clusterblast-orf" id="dummy-1_h1_1_31"  />
</g>
<g id="a1_0032"  >
<polygon points="674,85 679,80 696,80 696,90 679,90 674,85 " style="fill:#3615d8; stroke-width:1; stroke:black; " description="&lt;b&gt;A7J50_RS01995&lt;/b&gt;&lt;br&gt;3-dehydroquinate synthase&lt;br&gt;Location: 494349 - 493249&lt;br&gt;&lt;br&gt;&lt;b&gt;BlastP hit with ctg5_257&lt;/b&gt;&lt;br&gt;Percentage identity: 100&lt;br&gt;Percentage coverage: 100&lt;br&gt;BLAST bit score: 723&lt;br&gt;E-value: 1.04e-264" locus_tag="A7J50_RS01995" class="clusterblast-orf" id="dummy-1_h1_1_32"  />
</g>
<g id="a1_0033"  >
<polygon points="699,85 704,80 709,80 709,90 704,90 699,85 " style="fill:#d81556; stroke-width:1; stroke:black; " description="&lt;b&gt;A7J50_RS01990&lt;/b&gt;&lt;br&gt;shikimate kinase AroK&lt;br&gt;Location: 493124 - 492606&lt;br&gt;&lt;br&gt;&lt;b&gt;BlastP hit with ctg5_258&lt;/b&gt;&lt;br&gt;Percentage identity: 99&lt;br&gt;Percentage coverage: 100&lt;br&gt;BLAST bit score: 318&lt;br&gt;E-value: 1.89e-111" locus_tag="A7J50_RS01990" class="clusterblast-orf" id="dummy-1_h1_1_33"  />
</g>
<g id="a1_0034"  >
<polygon points="709,85 714,80 735,80 735,90 714,90 709,85 " style="fill:#97d815; stroke-width:1; stroke:black; " description="&lt;b&gt;A7J50_RS01985&lt;/b&gt;&lt;br&gt;type IV pilus secretin PilQ family protein&lt;br&gt;Location: 492601 - 491273&lt;br&gt;&lt;br&gt;&lt;b&gt;BlastP hit with ctg5_259&lt;/b&gt;&lt;br&gt;Percentage identity: 99&lt;br&gt;Percentage coverage: 96&lt;br&gt;BLAST bit score: 839&lt;br&gt;E-value: 5.54e-308" locus_tag="A7J50_RS01985" class="clusterblast-orf" id="dummy-1_h1_1_34"  />
</g>
<g id="a1_0035"  >
<polygon points="737,85 742,80 756,80 756,90 742,90 737,85 " style="fill:#15d8b8; stroke-width:1; stroke:black; " description="&lt;b&gt;A7J50_RS01980&lt;/b&gt;&lt;br&gt;type 4a pilus biogenesis protein PilO&lt;br&gt;Location: 491203 - 490232&lt;br&gt;&lt;br&gt;&lt;b&gt;BlastP hit with ctg5_260&lt;/b&gt;&lt;br&gt;Percentage identity: 99&lt;br&gt;Percentage coverage: 100&lt;br&gt;BLAST bit score: 625&lt;br&gt;E-value: 1.34e-227" locus_tag="A7J50_RS01980" class="clusterblast-orf" id="dummy-1_h1_1_35"  />
</g>
<g id="a1_0036"  >
<polygon points="756,85 761,80 767,80 767,90 761,90 756,85 " style="fill:#5615d8; stroke-width:1; stroke:black; " description="&lt;b&gt;A7J50_RS01975&lt;/b&gt;&lt;br&gt;fimbriae biosynthesis protein&lt;br&gt;Location: 490235 - 489684&lt;br&gt;&lt;br&gt;&lt;b&gt;BlastP hit with ctg5_261&lt;/b&gt;&lt;br&gt;Percentage identity: 100&lt;br&gt;Percentage coverage: 100&lt;br&gt;BLAST bit score: 338&lt;br&gt;E-value: 7.39e-119" locus_tag="A7J50_RS01975" class="clusterblast-orf" id="dummy-1_h1_1_36"  />
</g>
<g id="a1_0037"  >
<polygon points="767,85 772,80 780,80 780,90 772,90 767,85 " style="fill:#d81536; stroke-width:1; stroke:black; " description="&lt;b&gt;A7J50_RS01970&lt;/b&gt;&lt;br&gt;type IV pilus assembly protein PilM&lt;br&gt;Location: 489687 - 489031&lt;br&gt;&lt;br&gt;&lt;b&gt;BlastP hit with ctg5_262&lt;/b&gt;&lt;br&gt;Percentage identity: 100&lt;br&gt;Percentage coverage: 100&lt;br&gt;BLAST bit score: 413&lt;br&gt;E-value: 2.81e-147" locus_tag="A7J50_RS01970" class="clusterblast-orf" id="dummy-1_h1_1_37"  />
</g>
</svg>
