<svg xmlns="http://www.w3.org/2000/svg" xmlns:xlink="http://www.w3.org/1999/xlink" version="1.1" x="0" y="0" height="230" width="800" viewBox="0 0 800 230" preserveAspectRatio="none"  >
<g label="Query sequence" class="clusterblast-cluster"  >
<text x="5" y="20" class="clusterblast-acc"  >
Query sequence</text>
<line x1="10" y1="35" x2="778.0" y2="35" style="stroke-width:1; stroke:grey; "  />
<polygon points="23,40 43,40 48,35 43,30 23,30 23,40 " style="fill:white; stroke-width:1; stroke:black; " description="&lt;b&gt;ctg7_59&lt;/b&gt;&lt;br&gt;ctg7 59&lt;br&gt;Location: 64222 - 65722" locus_tag="ctg7_59" class="clusterblast-orf" id="dummy-1_q0_0_all"  />
<polygon points="48,40 53,40 58,35 53,30 48,30 48,40 " style="fill:white; stroke-width:1; stroke:black; " description="&lt;b&gt;ctg7_60&lt;/b&gt;&lt;br&gt;ctg7 60&lt;br&gt;Location: 65693 - 66281" locus_tag="ctg7_60" class="clusterblast-orf" id="dummy-1_q1_0_all"  />
<polygon points="60,40 70,40 75,35 70,30 60,30 60,40 " style="fill:white; stroke-width:1; stroke:black; " description="&lt;b&gt;ctg7_61&lt;/b&gt;&lt;br&gt;ctg7 61&lt;br&gt;Location: 66392 - 67334" locus_tag="ctg7_61" class="clusterblast-orf" id="dummy-1_q2_0_all"  />
<polygon points="76,35 81,30 89,30 89,40 81,40 76,35 " style="fill:#d81515; stroke-width:1; stroke:black; " description="&lt;b&gt;ctg7_62&lt;/b&gt;&lt;br&gt;ctg7 62&lt;br&gt;Location: 67395 - 68151" locus_tag="ctg7_62" class="clusterblast-orf" id="dummy-1_q3_0_all"  />
<polygon points="89,35 94,30 102,30 102,40 94,40 89,35 " style="fill:#4dd815; stroke-width:1; stroke:black; " description="&lt;b&gt;ctg7_63&lt;/b&gt;&lt;br&gt;ctg7 63&lt;br&gt;Location: 68140 - 68944" locus_tag="ctg7_63" class="clusterblast-orf" id="dummy-1_q4_0_all"  />
<polygon points="102,35 107,30 116,30 116,40 107,40 102,35 " style="fill:#1585d8; stroke-width:1; stroke:black; " description="&lt;b&gt;ctg7_64&lt;/b&gt;&lt;br&gt;ctg7 64&lt;br&gt;Location: 68936 - 69758" locus_tag="ctg7_64" class="clusterblast-orf" id="dummy-1_q5_0_all"  />
<polygon points="116,35 121,30 122,30 122,40 121,40 116,35 " style="fill:white; stroke-width:1; stroke:black; " description="&lt;b&gt;ctg7_65&lt;/b&gt;&lt;br&gt;ctg7 65&lt;br&gt;Location: 69770 - 70136" locus_tag="ctg7_65" class="clusterblast-orf" id="dummy-1_q6_0_all"  />
<polygon points="122,35 127,30 144,30 144,40 127,40 122,35 " style="fill:white; stroke-width:1; stroke:black; " description="&lt;b&gt;ctg7_66&lt;/b&gt;&lt;br&gt;ctg7 66&lt;br&gt;Location: 70165 - 71464" locus_tag="ctg7_66" class="clusterblast-orf" id="dummy-1_q7_0_all"  />
<polygon points="148,40 150,40 155,35 150,30 148,30 148,40 " style="fill:white; stroke-width:1; stroke:black; " description="&lt;b&gt;ctg7_67&lt;/b&gt;&lt;br&gt;ctg7 67&lt;br&gt;Location: 71672 - 72095" locus_tag="ctg7_67" class="clusterblast-orf" id="dummy-1_q8_0_all"  />
<polygon points="157,35 162,30 170,30 170,40 162,40 157,35 " style="fill:white; stroke-width:1; stroke:black; " description="&lt;b&gt;ctg7_68&lt;/b&gt;&lt;br&gt;ctg7 68&lt;br&gt;Location: 72220 - 73021" locus_tag="ctg7_68" class="clusterblast-orf" id="dummy-1_q9_0_all"  />
<polygon points="170,35 175,30 184,30 184,40 175,40 170,35 " style="fill:white; stroke-width:1; stroke:black; " description="&lt;b&gt;ctg7_69&lt;/b&gt;&lt;br&gt;ctg7 69&lt;br&gt;Location: 73036 - 73840" locus_tag="ctg7_69" class="clusterblast-orf" id="dummy-1_q10_0_all"  />
<polygon points="184,35 189,30 206,30 206,40 189,40 184,35 " style="fill:#d815bc; stroke-width:1; stroke:black; " description="&lt;b&gt;ctg7_70&lt;/b&gt;&lt;br&gt;ctg7 70&lt;br&gt;Location: 73851 - 75156" locus_tag="ctg7_70" class="clusterblast-orf" id="dummy-1_q11_0_all"  />
<polygon points="206,35 211,30 213,30 213,40 211,40 206,35 " style="fill:white; stroke-width:1; stroke:black; " description="&lt;b&gt;ctg7_71&lt;/b&gt;&lt;br&gt;ctg7 71&lt;br&gt;Location: 75201 - 75594" locus_tag="ctg7_71" class="clusterblast-orf" id="dummy-1_q12_0_all"  />
<polygon points="213,35 218,30 227,30 227,40 218,40 213,35 " style="fill:white; stroke-width:1; stroke:black; " description="&lt;b&gt;ctg7_72&lt;/b&gt;&lt;br&gt;ctg7 72&lt;br&gt;Location: 75609 - 76467" locus_tag="ctg7_72" class="clusterblast-orf" id="dummy-1_q13_0_all"  />
<polygon points="228,35 233,30 253,30 253,40 233,40 228,35 " style="fill:white; stroke-width:1; stroke:black; " description="&lt;b&gt;ctg7_73&lt;/b&gt;&lt;br&gt;ctg7 73&lt;br&gt;Location: 76513 - 77974" locus_tag="ctg7_73" class="clusterblast-orf" id="dummy-1_q14_0_all"  />
<polygon points="253,35 258,30 265,30 265,40 258,40 253,35 " style="fill:white; stroke-width:1; stroke:black; " description="&lt;b&gt;ctg7_74&lt;/b&gt;&lt;br&gt;ctg7 74&lt;br&gt;Location: 77979 - 78750" locus_tag="ctg7_74" class="clusterblast-orf" id="dummy-1_q15_0_all"  />
<polygon points="265,35 270,30 276,30 276,40 270,40 265,35 " style="fill:white; stroke-width:1; stroke:black; " description="&lt;b&gt;ctg7_75&lt;/b&gt;&lt;br&gt;ctg7 75&lt;br&gt;Location: 78746 - 79412" locus_tag="ctg7_75" class="clusterblast-orf" id="dummy-1_q16_0_all"  />
<polygon points="279,40 288,40 293,35 288,30 279,30 279,40 " style="fill:white; stroke-width:1; stroke:black; " description="&lt;b&gt;ctg7_76&lt;/b&gt;&lt;br&gt;ctg7 76&lt;br&gt;Location: 79540 - 80401" locus_tag="ctg7_76" class="clusterblast-orf" id="dummy-1_q17_0_all"  />
<polygon points="292,35 297,30 316,30 316,40 297,40 292,35 " style="fill:#d8bc15; stroke-width:1; stroke:black; " description="&lt;b&gt;ctg7_77&lt;/b&gt;&lt;br&gt;ctg7 77&lt;br&gt;Location: 80327 - 81797" locus_tag="ctg7_77" class="clusterblast-orf" id="dummy-1_q18_0_all"  />
<polygon points="316,35 321,30 329,30 329,40 321,40 316,35 " style="fill:#15d885; stroke-width:1; stroke:black; " description="&lt;b&gt;ctg7_78&lt;/b&gt;&lt;br&gt;ctg7 78&lt;br&gt;Location: 81796 - 82591" locus_tag="ctg7_78" class="clusterblast-orf" id="dummy-1_q19_0_all"  />
<polygon points="338,40 437,40 442,35 437,30 338,30 338,40 " style="fill:#4d15d8; stroke-width:1; stroke:black; " description="&lt;b&gt;ctg7_79&lt;/b&gt;&lt;br&gt;ctg7 79&lt;br&gt;Location: 83078 - 89348" locus_tag="ctg7_79" class="clusterblast-orf" id="dummy-1_q20_0_all"  />
<polygon points="464,40 473,40 478,35 473,30 464,30 464,40 " style="fill:white; stroke-width:1; stroke:black; " description="&lt;b&gt;ctg7_80&lt;/b&gt;&lt;br&gt;ctg7 80&lt;br&gt;Location: 90667 - 91525" locus_tag="ctg7_80" class="clusterblast-orf" id="dummy-1_q21_0_all"  />
<polygon points="478,40 487,40 492,35 487,30 478,30 478,40 " style="fill:white; stroke-width:1; stroke:black; " description="&lt;b&gt;ctg7_81&lt;/b&gt;&lt;br&gt;ctg7 81&lt;br&gt;Location: 91521 - 92328" locus_tag="ctg7_81" class="clusterblast-orf" id="dummy-1_q22_0_all"  />
<polygon points="491,40 506,40 511,35 506,30 491,30 491,40 " style="fill:white; stroke-width:1; stroke:black; " description="&lt;b&gt;ctg7_82&lt;/b&gt;&lt;br&gt;ctg7 82&lt;br&gt;Location: 92314 - 93508" locus_tag="ctg7_82" class="clusterblast-orf" id="dummy-1_q23_0_all"  />
<polygon points="512,40 519,40 524,35 519,30 512,30 512,40 " style="fill:white; stroke-width:1; stroke:black; " description="&lt;b&gt;ctg7_83&lt;/b&gt;&lt;br&gt;ctg7 83&lt;br&gt;Location: 93516 - 94269" locus_tag="ctg7_83" class="clusterblast-orf" id="dummy-1_q24_0_all"  />
<polygon points="524,40 531,40 536,35 531,30 524,30 524,40 " style="fill:white; stroke-width:1; stroke:black; " description="&lt;b&gt;ctg7_84&lt;/b&gt;&lt;br&gt;ctg7 84&lt;br&gt;Location: 94268 - 94982" locus_tag="ctg7_84" class="clusterblast-orf" id="dummy-1_q25_0_all"  />
<polygon points="536,35 541,30 562,30 562,40 541,40 536,35 " style="fill:white; stroke-width:1; stroke:black; " description="&lt;b&gt;ctg7_85&lt;/b&gt;&lt;br&gt;ctg7 85&lt;br&gt;Location: 95003 - 96521" locus_tag="ctg7_85" class="clusterblast-orf" id="dummy-1_q26_0_all"  />
<polygon points="562,35 567,30 590,30 590,40 567,40 562,35 " style="fill:white; stroke-width:1; stroke:black; " description="&lt;b&gt;ctg7_86&lt;/b&gt;&lt;br&gt;ctg7 86&lt;br&gt;Location: 96547 - 98203" locus_tag="ctg7_86" class="clusterblast-orf" id="dummy-1_q27_0_all"  />
<polygon points="593,35 598,30 604,30 604,40 598,40 593,35 " style="fill:white; stroke-width:1; stroke:black; " description="&lt;b&gt;ctg7_87&lt;/b&gt;&lt;br&gt;ctg7 87&lt;br&gt;Location: 98392 - 99067" locus_tag="ctg7_87" class="clusterblast-orf" id="dummy-1_q28_0_all"  />
<polygon points="609,40 615,40 620,35 615,30 609,30 609,40 " style="fill:white; stroke-width:1; stroke:black; " description="&lt;b&gt;ctg7_88&lt;/b&gt;&lt;br&gt;ctg7 88&lt;br&gt;Location: 99341 - 100010" locus_tag="ctg7_88" class="clusterblast-orf" id="dummy-1_q29_0_all"  />
<polygon points="620,40 656,40 661,35 656,30 620,30 620,40 " style="fill:white; stroke-width:1; stroke:black; " description="&lt;b&gt;ctg7_89&lt;/b&gt;&lt;br&gt;ctg7 89&lt;br&gt;Location: 100011 - 102474" locus_tag="ctg7_89" class="clusterblast-orf" id="dummy-1_q30_0_all"  />
<polygon points="661,40 673,40 678,35 673,30 661,30 661,40 " style="fill:white; stroke-width:1; stroke:black; " description="&lt;b&gt;ctg7_90&lt;/b&gt;&lt;br&gt;ctg7 90&lt;br&gt;Location: 102463 - 103528" locus_tag="ctg7_90" class="clusterblast-orf" id="dummy-1_q31_0_all"  />
<polygon points="681,40 700,40 705,35 700,30 681,30 681,40 " style="fill:white; stroke-width:1; stroke:black; " description="&lt;b&gt;ctg7_91&lt;/b&gt;&lt;br&gt;ctg7 91&lt;br&gt;Location: 103678 - 105121" locus_tag="ctg7_91" class="clusterblast-orf" id="dummy-1_q32_0_all"  />
<polygon points="706,35 711,30 724,30 724,40 711,40 706,35 " style="fill:white; stroke-width:1; stroke:black; " description="&lt;b&gt;ctg7_92&lt;/b&gt;&lt;br&gt;ctg7 92&lt;br&gt;Location: 105171 - 106272" locus_tag="ctg7_92" class="clusterblast-orf" id="dummy-1_q33_0_all"  />
<polygon points="724,35 729,30 735,30 735,40 729,40 724,35 " style="fill:white; stroke-width:1; stroke:black; " description="&lt;b&gt;ctg7_93&lt;/b&gt;&lt;br&gt;ctg7 93&lt;br&gt;Location: 106274 - 106946" locus_tag="ctg7_93" class="clusterblast-orf" id="dummy-1_q34_0_all"  />
<polygon points="741,40 751,40 756,35 751,30 741,30 741,40 " style="fill:white; stroke-width:1; stroke:black; " description="&lt;b&gt;ctg7_94&lt;/b&gt;&lt;br&gt;ctg7 94&lt;br&gt;Location: 107263 - 108187" locus_tag="ctg7_94" class="clusterblast-orf" id="dummy-1_q35_0_all"  />
</g>
<g label="BGC0000411" description="BGC0000411_c1: putisolvin (50% of genes show similarity), NRP" class="clusterblast-cluster"  >
<text x="5" y="70" class="clusterblast-acc"  >
<a xlink:href="https://mibig.secondarymetabolites.org/go/BGC0000411/1" target="_blank">BGC0000411</a>: putisolvin                                                                       (50% of genes show similarity), NRP</text>
<line x1="10" y1="85" x2="778.0" y2="85" style="stroke-width:1; stroke:grey; "  />
</g>
<g id="a1_000"  >
<polygon points="0,85 5,80 24,80 24,90 5,90 0,85 " style="fill:#d8bc15; stroke-width:1; stroke:black; " description="&lt;b&gt;ABW17373.1&lt;/b&gt;&lt;br&gt;OprM&lt;br&gt;Location: 37 - 1485&lt;br&gt;&lt;br&gt;&lt;b&gt;BlastP hit with ctg7_77&lt;/b&gt;&lt;br&gt;Percentage identity: 69&lt;br&gt;Percentage coverage: 96&lt;br&gt;BLAST bit score: 604&lt;br&gt;E-value: 9.61e-216" locus_tag="ABW17373.1" class="clusterblast-orf" id="dummy-1_h1_7_0"  />
</g>
<g id="a1_001"  >
<polygon points="24,85 29,80 37,80 37,90 29,90 24,85 " style="fill:#15d885; stroke-width:1; stroke:black; " description="&lt;b&gt;ABW17374.1&lt;/b&gt;&lt;br&gt;PsoR&lt;br&gt;Location: 1503 - 2285&lt;br&gt;&lt;br&gt;&lt;b&gt;BlastP hit with ctg7_78&lt;/b&gt;&lt;br&gt;Percentage identity: 57&lt;br&gt;Percentage coverage: 101&lt;br&gt;BLAST bit score: 266&lt;br&gt;E-value: 1.31e-89" locus_tag="ABW17374.1" class="clusterblast-orf" id="dummy-1_h1_7_1"  />
</g>
<g id="a1_002"  >
<polygon points="44,90 145,90 150,85 145,80 44,80 44,90 " style="fill:#4d15d8; stroke-width:1; stroke:black; " description="&lt;b&gt;ABW17375.1&lt;/b&gt;&lt;br&gt;PsoA&lt;br&gt;Location: 2701 - 9060&lt;br&gt;&lt;br&gt;&lt;b&gt;BlastP hit with ctg7_79&lt;/b&gt;&lt;br&gt;Percentage identity: 60&lt;br&gt;Percentage coverage: 101&lt;br&gt;BLAST bit score: 2415&lt;br&gt;E-value: 0.0" locus_tag="ABW17375.1" class="clusterblast-orf" id="dummy-1_h1_7_2"  />
</g>
<g id="a1_003"  >
<polygon points="150,90 519,90 524,85 519,80 150,80 150,90 " style="fill:#4d15d8; stroke-width:1; stroke:black; " description="&lt;b&gt;ABW17376.1&lt;/b&gt;&lt;br&gt;PsoB&lt;br&gt;Location: 9088 - 31512&lt;br&gt;&lt;br&gt;&lt;b&gt;BlastP hit with ctg7_79&lt;/b&gt;&lt;br&gt;Percentage identity: 49&lt;br&gt;Percentage coverage: 101&lt;br&gt;BLAST bit score: 1776&lt;br&gt;E-value: 0.0" locus_tag="ABW17376.1" class="clusterblast-orf" id="dummy-1_h1_7_3"  />
</g>
<g id="a1_004"  >
<polygon points="524,90 708,90 713,85 708,80 524,80 524,90 " style="fill:white; stroke-width:1; stroke:black; " description="&lt;b&gt;ABW17377.1&lt;/b&gt;&lt;br&gt;PsoC&lt;br&gt;Location: 31509 - 42830" locus_tag="ABW17377.1" class="clusterblast-orf" id="dummy-1_h1_7_4"  />
</g>
<g id="a1_005"  >
<polygon points="714,90 728,90 733,85 728,80 714,80 714,90 " style="fill:white; stroke-width:1; stroke:black; " description="&lt;b&gt;ABW17378.1&lt;/b&gt;&lt;br&gt;MacA&lt;br&gt;Location: 42894 - 44051" locus_tag="ABW17378.1" class="clusterblast-orf" id="dummy-1_h1_7_5"  />
</g>
<g id="a1_006"  >
<polygon points="733,90 761,90 766,85 761,80 733,80 733,90 " style="fill:white; stroke-width:1; stroke:black; " description="&lt;b&gt;ABW17379.1&lt;/b&gt;&lt;br&gt;MacB&lt;br&gt;Location: 44054 - 46057" locus_tag="ABW17379.1" class="clusterblast-orf" id="dummy-1_h1_7_6"  />
</g>
<g id="a1_007"  >
<polygon points="769,85 774,80 780,80 780,90 774,90 769,85 " style="fill:white; stroke-width:1; stroke:black; " description="&lt;b&gt;ABW17380.1&lt;/b&gt;&lt;br&gt;LuxR-like protein&lt;br&gt;Location: 46202 - 46846" locus_tag="ABW17380.1" class="clusterblast-orf" id="dummy-1_h1_7_7"  />
</g>
</svg>
