<svg xmlns="http://www.w3.org/2000/svg" xmlns:xlink="http://www.w3.org/1999/xlink" version="1.1" x="0" y="0" height="230" width="800" viewBox="0 0 800 230" preserveAspectRatio="none"  >
<g label="Query sequence" class="clusterblast-cluster"  >
<text x="5" y="20" class="clusterblast-acc"  >
Query sequence</text>
<line x1="10" y1="35" x2="778.0" y2="35" style="stroke-width:1; stroke:grey; "  />
<polygon points="144,40 144,40 149,35 144,30 144,30 144,40 " style="fill:#d81515; stroke-width:1; stroke:black; " description="&lt;b&gt;ctg6_325&lt;/b&gt;&lt;br&gt;ctg6 325&lt;br&gt;Location: 357221 - 357572" locus_tag="ctg6_325" class="clusterblast-orf" id="dummy-2_q0_0_all"  />
<polygon points="150,40 150,40 155,35 150,30 150,30 150,40 " style="fill:#5cd815; stroke-width:1; stroke:black; " description="&lt;b&gt;ctg6_326&lt;/b&gt;&lt;br&gt;ctg6 326&lt;br&gt;Location: 357595 - 357922" locus_tag="ctg6_326" class="clusterblast-orf" id="dummy-2_q1_0_all"  />
<polygon points="155,40 158,40 163,35 158,30 155,30 155,40 " style="fill:#15a3d8; stroke-width:1; stroke:black; " description="&lt;b&gt;ctg6_327&lt;/b&gt;&lt;br&gt;ctg6 327&lt;br&gt;Location: 357953 - 358499" locus_tag="ctg6_327" class="clusterblast-orf" id="dummy-2_q2_0_all"  />
<polygon points="165,40 174,40 179,35 174,30 165,30 165,40 " style="fill:#9115d8; stroke-width:1; stroke:black; " description="&lt;b&gt;ctg6_328&lt;/b&gt;&lt;br&gt;ctg6 328&lt;br&gt;Location: 358589 - 359510" locus_tag="ctg6_328" class="clusterblast-orf" id="dummy-2_q3_0_all"  />
<polygon points="178,35 183,30 188,30 188,40 183,40 178,35 " style="fill:#d84a15; stroke-width:1; stroke:black; " description="&lt;b&gt;ctg6_329&lt;/b&gt;&lt;br&gt;ctg6 329&lt;br&gt;Location: 359468 - 360128" locus_tag="ctg6_329" class="clusterblast-orf" id="dummy-2_q4_0_all"  />
<polygon points="188,35 193,30 202,30 202,40 193,40 188,35 " style="fill:#27d815; stroke-width:1; stroke:black; " description="&lt;b&gt;ctg6_330&lt;/b&gt;&lt;br&gt;ctg6 330&lt;br&gt;Location: 360124 - 361018" locus_tag="ctg6_330" class="clusterblast-orf" id="dummy-2_q5_0_all"  />
<polygon points="207,35 212,30 214,30 214,40 212,40 207,35 " style="fill:#156ed8; stroke-width:1; stroke:black; " description="&lt;b&gt;ctg6_331&lt;/b&gt;&lt;br&gt;ctg6 331&lt;br&gt;Location: 361401 - 361848" locus_tag="ctg6_331" class="clusterblast-orf" id="dummy-2_q6_0_all"  />
<polygon points="222,40 231,40 236,35 231,30 222,30 222,40 " style="fill:#c715d8; stroke-width:1; stroke:black; " description="&lt;b&gt;ctg6_332&lt;/b&gt;&lt;br&gt;ctg6 332&lt;br&gt;Location: 362384 - 363320" locus_tag="ctg6_332" class="clusterblast-orf" id="dummy-2_q7_0_all"  />
<polygon points="237,40 244,40 249,35 244,30 237,30 237,40 " style="fill:#d88015; stroke-width:1; stroke:black; " description="&lt;b&gt;ctg6_333&lt;/b&gt;&lt;br&gt;ctg6 333&lt;br&gt;Location: 363358 - 364165" locus_tag="ctg6_333" class="clusterblast-orf" id="dummy-2_q8_0_all"  />
<polygon points="250,35 254,30 254,40 250,35 " style="fill:#15d839; stroke-width:1; stroke:black; " description="&lt;b&gt;ctg6_334&lt;/b&gt;&lt;br&gt;ctg6 334&lt;br&gt;Location: 364229 - 364514" locus_tag="ctg6_334" class="clusterblast-orf" id="dummy-2_q9_0_all"  />
<polygon points="255,35 260,30 264,30 264,40 260,40 255,35 " style="fill:#1539d8; stroke-width:1; stroke:black; " description="&lt;b&gt;ctg6_335&lt;/b&gt;&lt;br&gt;ctg6 335&lt;br&gt;Location: 364579 - 365122" locus_tag="ctg6_335" class="clusterblast-orf" id="dummy-2_q10_0_all"  />
<polygon points="265,35 270,30 294,30 294,40 270,40 265,35 " style="fill:#d815b5; stroke-width:1; stroke:black; " description="&lt;b&gt;ctg6_336&lt;/b&gt;&lt;br&gt;ctg6 336&lt;br&gt;Location: 365213 - 367136" locus_tag="ctg6_336" class="clusterblast-orf" id="dummy-2_q11_0_all"  />
<polygon points="296,35 301,30 307,30 307,40 301,40 296,35 " style="fill:#d8b515; stroke-width:1; stroke:black; " description="&lt;b&gt;ctg6_337&lt;/b&gt;&lt;br&gt;ctg6 337&lt;br&gt;Location: 367247 - 368015" locus_tag="ctg6_337" class="clusterblast-orf" id="dummy-2_q12_0_all"  />
<polygon points="307,35 312,30 325,30 325,40 312,40 307,35 " style="fill:#15d86e; stroke-width:1; stroke:black; " description="&lt;b&gt;ctg6_338&lt;/b&gt;&lt;br&gt;ctg6 338&lt;br&gt;Location: 368011 - 369169" locus_tag="ctg6_338" class="clusterblast-orf" id="dummy-2_q13_0_all"  />
<polygon points="325,35 330,30 349,30 349,40 330,40 325,35 " style="fill:#2715d8; stroke-width:1; stroke:black; " description="&lt;b&gt;ctg6_339&lt;/b&gt;&lt;br&gt;ctg6 339&lt;br&gt;Location: 369185 - 370802" locus_tag="ctg6_339" class="clusterblast-orf" id="dummy-2_q14_0_all"  />
<polygon points="349,35 354,30 363,30 363,40 354,40 349,35 " style="fill:#d81580; stroke-width:1; stroke:black; " description="&lt;b&gt;ctg6_340&lt;/b&gt;&lt;br&gt;ctg6 340&lt;br&gt;Location: 370805 - 371678" locus_tag="ctg6_340" class="clusterblast-orf" id="dummy-2_q15_0_all"  />
<polygon points="363,35 368,30 390,30 390,40 368,40 363,35 " style="fill:#c7d815; stroke-width:1; stroke:black; " description="&lt;b&gt;ctg6_341&lt;/b&gt;&lt;br&gt;ctg6 341&lt;br&gt;Location: 371690 - 373469" locus_tag="ctg6_341" class="clusterblast-orf" id="dummy-2_q16_0_all"  />
<polygon points="392,40 396,40 401,35 396,30 392,30 392,40 " style="fill:#15d8a3; stroke-width:1; stroke:black; " description="&lt;b&gt;ctg6_342&lt;/b&gt;&lt;br&gt;ctg6 342&lt;br&gt;Location: 373622 - 374246" locus_tag="ctg6_342" class="clusterblast-orf" id="dummy-2_q17_0_all"  />
<polygon points="403,40 410,40 415,35 410,30 403,30 403,40 " style="fill:#5c15d8; stroke-width:1; stroke:black; " description="&lt;b&gt;ctg6_343&lt;/b&gt;&lt;br&gt;ctg6 343&lt;br&gt;Location: 374339 - 375128" locus_tag="ctg6_343" class="clusterblast-orf" id="dummy-2_q18_0_all"  />
<polygon points="415,35 420,30 424,30 424,40 420,40 415,35 " style="fill:#d8154a; stroke-width:1; stroke:black; " description="&lt;b&gt;ctg6_344&lt;/b&gt;&lt;br&gt;ctg6 344&lt;br&gt;Location: 375166 - 375718" locus_tag="ctg6_344" class="clusterblast-orf" id="dummy-2_q19_0_all"  />
<polygon points="428,40 435,40 440,35 435,30 428,30 428,40 " style="fill:#91d815; stroke-width:1; stroke:black; " description="&lt;b&gt;ctg6_345&lt;/b&gt;&lt;br&gt;ctg6 345&lt;br&gt;Location: 376018 - 376771" locus_tag="ctg6_345" class="clusterblast-orf" id="dummy-2_q20_0_all"  />
<polygon points="440,40 630,40 635,35 630,30 440,30 440,40 " style="fill:#15d8d8; stroke-width:1; stroke:black; " description="&lt;b&gt;ctg6_346&lt;/b&gt;&lt;br&gt;ctg6 346&lt;br&gt;Location: 376821 - 389718" locus_tag="ctg6_346" class="clusterblast-orf" id="dummy-2_q21_0_all"  />
</g>
<g label="NZ_LT629704" description="NZ_LT629704 (2781129-2832756): Pseudomonas antarctica strain LMG 22709 chromo... (55% of genes show similarity), NRPS" class="clusterblast-cluster"  >
<text x="5" y="70" class="clusterblast-acc"  >
<a xlink:href="https://antismash-db.secondarymetabolites.org/area.html?record=NZ_LT629704&amp;start=2781129&amp;end=2832756" target="_blank">NZ_LT629704 (2781129-2832756)</a>: Pseudomonas antarctica strain LMG 22709 chromo... (55% of genes show similarity), NRPS</text>
<line x1="10" y1="85" x2="778.0" y2="85" style="stroke-width:1; stroke:grey; "  />
</g>
<g id="a2_000"  >
<polygon points="0,90 4,85 0,80 0,90 " style="fill:#d81515; stroke-width:1; stroke:black; " description="&lt;b&gt;BLQ27_RS12885&lt;/b&gt;&lt;br&gt;hypothetical protein&lt;br&gt;Location: 2781130 - 2781408&lt;br&gt;&lt;br&gt;&lt;b&gt;BlastP hit with ctg6_325&lt;/b&gt;&lt;br&gt;Percentage identity: 90&lt;br&gt;Percentage coverage: 78&lt;br&gt;BLAST bit score: 181&lt;br&gt;E-value: 7.68e-59" locus_tag="BLQ27_RS12885" class="clusterblast-orf" id="dummy-2_h2_4_0"  />
</g>
<g id="a2_001"  >
<polygon points="4,90 4,90 9,85 4,80 4,80 4,90 " style="fill:#5cd815; stroke-width:1; stroke:black; " description="&lt;b&gt;BLQ27_RS12890&lt;/b&gt;&lt;br&gt;hypothetical protein&lt;br&gt;Location: 2781432 - 2781758&lt;br&gt;&lt;br&gt;&lt;b&gt;BlastP hit with ctg6_326&lt;/b&gt;&lt;br&gt;Percentage identity: 94&lt;br&gt;Percentage coverage: 100&lt;br&gt;BLAST bit score: 205&lt;br&gt;E-value: 2.25e-68" locus_tag="BLQ27_RS12890" class="clusterblast-orf" id="dummy-2_h2_4_1"  />
</g>
<g id="a2_002"  >
<polygon points="10,90 13,90 18,85 13,80 10,80 10,90 " style="fill:#15a3d8; stroke-width:1; stroke:black; " description="&lt;b&gt;BLQ27_RS12895&lt;/b&gt;&lt;br&gt;hypothetical protein&lt;br&gt;Location: 2781792 - 2782337&lt;br&gt;&lt;br&gt;&lt;b&gt;BlastP hit with ctg6_327&lt;/b&gt;&lt;br&gt;Percentage identity: 87&lt;br&gt;Percentage coverage: 100&lt;br&gt;BLAST bit score: 327&lt;br&gt;E-value: 2.38e-114" locus_tag="BLQ27_RS12895" class="clusterblast-orf" id="dummy-2_h2_4_2"  />
</g>
<g id="a2_003"  >
<polygon points="19,90 28,90 33,85 28,80 19,80 19,90 " style="fill:#9115d8; stroke-width:1; stroke:black; " description="&lt;b&gt;BLQ27_RS12900&lt;/b&gt;&lt;br&gt;lipid kinase YegS&lt;br&gt;Location: 2782429 - 2783349&lt;br&gt;&lt;br&gt;&lt;b&gt;BlastP hit with ctg6_328&lt;/b&gt;&lt;br&gt;Percentage identity: 94&lt;br&gt;Percentage coverage: 100&lt;br&gt;BLAST bit score: 573&lt;br&gt;E-value: 1.92e-207" locus_tag="BLQ27_RS12900" class="clusterblast-orf" id="dummy-2_h2_4_3"  />
</g>
<g id="a2_004"  >
<polygon points="32,85 37,80 42,80 42,90 37,90 32,85 " style="fill:#d84a15; stroke-width:1; stroke:black; " description="&lt;b&gt;BLQ27_RS12905&lt;/b&gt;&lt;br&gt;response regulator transcription factor&lt;br&gt;Location: 2783308 - 2783967&lt;br&gt;&lt;br&gt;&lt;b&gt;BlastP hit with ctg6_329&lt;/b&gt;&lt;br&gt;Percentage identity: 93&lt;br&gt;Percentage coverage: 100&lt;br&gt;BLAST bit score: 389&lt;br&gt;E-value: 1.73e-137" locus_tag="BLQ27_RS12905" class="clusterblast-orf" id="dummy-2_h2_4_4"  />
</g>
<g id="a2_005"  >
<polygon points="42,85 47,80 56,80 56,90 47,90 42,85 " style="fill:#27d815; stroke-width:1; stroke:black; " description="&lt;b&gt;BLQ27_RS12910&lt;/b&gt;&lt;br&gt;sensor histidine kinase&lt;br&gt;Location: 2783964 - 2784857&lt;br&gt;&lt;br&gt;&lt;b&gt;BlastP hit with ctg6_330&lt;/b&gt;&lt;br&gt;Percentage identity: 94&lt;br&gt;Percentage coverage: 100&lt;br&gt;BLAST bit score: 538&lt;br&gt;E-value: 5e-194" locus_tag="BLQ27_RS12910" class="clusterblast-orf" id="dummy-2_h2_4_5"  />
</g>
<g id="a2_006"  >
<polygon points="61,85 66,80 68,80 68,90 66,90 61,85 " style="fill:#156ed8; stroke-width:1; stroke:black; " description="&lt;b&gt;BLQ27_RS12920&lt;/b&gt;&lt;br&gt;hypothetical protein&lt;br&gt;Location: 2785206 - 2785655&lt;br&gt;&lt;br&gt;&lt;b&gt;BlastP hit with ctg6_331&lt;/b&gt;&lt;br&gt;Percentage identity: 90&lt;br&gt;Percentage coverage: 99&lt;br&gt;BLAST bit score: 264&lt;br&gt;E-value: 1.47e-90" locus_tag="BLQ27_RS12920" class="clusterblast-orf" id="dummy-2_h2_4_6"  />
</g>
<g id="a2_007"  >
<polygon points="76,90 85,90 90,85 85,80 76,80 76,90 " style="fill:#c715d8; stroke-width:1; stroke:black; " description="&lt;b&gt;BLQ27_RS12925&lt;/b&gt;&lt;br&gt;chemotaxis protein CheV&lt;br&gt;Location: 2786190 - 2787125&lt;br&gt;&lt;br&gt;&lt;b&gt;BlastP hit with ctg6_332&lt;/b&gt;&lt;br&gt;Percentage identity: 99&lt;br&gt;Percentage coverage: 100&lt;br&gt;BLAST bit score: 598&lt;br&gt;E-value: 2.47e-217" locus_tag="BLQ27_RS12925" class="clusterblast-orf" id="dummy-2_h2_4_7"  />
</g>
<g id="a2_008"  >
<polygon points="91,90 98,90 103,85 98,80 91,80 91,90 " style="fill:#d88015; stroke-width:1; stroke:black; " description="&lt;b&gt;BLQ27_RS12930&lt;/b&gt;&lt;br&gt;MOSC domain-containing protein&lt;br&gt;Location: 2787165 - 2787971&lt;br&gt;&lt;br&gt;&lt;b&gt;BlastP hit with ctg6_333&lt;/b&gt;&lt;br&gt;Percentage identity: 93&lt;br&gt;Percentage coverage: 100&lt;br&gt;BLAST bit score: 493&lt;br&gt;E-value: 2.56e-177" locus_tag="BLQ27_RS12930" class="clusterblast-orf" id="dummy-2_h2_4_8"  />
</g>
<g id="a2_009"  >
<polygon points="104,85 108,80 108,90 104,85 " style="fill:#15d839; stroke-width:1; stroke:black; " description="&lt;b&gt;BLQ27_RS12935&lt;/b&gt;&lt;br&gt;pyrimidine/purine nucleoside phosphorylase&lt;br&gt;Location: 2788037 - 2788321&lt;br&gt;&lt;br&gt;&lt;b&gt;BlastP hit with ctg6_334&lt;/b&gt;&lt;br&gt;Percentage identity: 98&lt;br&gt;Percentage coverage: 100&lt;br&gt;BLAST bit score: 190&lt;br&gt;E-value: 7.21e-63" locus_tag="BLQ27_RS12935" class="clusterblast-orf" id="dummy-2_h2_4_9"  />
</g>
<g id="a2_0010"  >
<polygon points="109,85 114,80 117,80 117,90 114,90 109,85 " style="fill:#1539d8; stroke-width:1; stroke:black; " description="&lt;b&gt;BLQ27_RS12940&lt;/b&gt;&lt;br&gt;3'-5' exoribonuclease&lt;br&gt;Location: 2788385 - 2788927&lt;br&gt;&lt;br&gt;&lt;b&gt;BlastP hit with ctg6_335&lt;/b&gt;&lt;br&gt;Percentage identity: 97&lt;br&gt;Percentage coverage: 100&lt;br&gt;BLAST bit score: 370&lt;br&gt;E-value: 2.62e-131" locus_tag="BLQ27_RS12940" class="clusterblast-orf" id="dummy-2_h2_4_10"  />
</g>
<g id="a2_0011"  >
<polygon points="118,85 123,80 147,80 147,90 123,90 118,85 " style="fill:#d815b5; stroke-width:1; stroke:black; " description="&lt;b&gt;BLQ27_RS12945&lt;/b&gt;&lt;br&gt;acetyl/propionyl/methylcrotonyl-CoA carboxylase subunit alpha&lt;br&gt;Location: 2788994 - 2790922&lt;br&gt;&lt;br&gt;&lt;b&gt;BlastP hit with ctg6_336&lt;/b&gt;&lt;br&gt;Percentage identity: 87&lt;br&gt;Percentage coverage: 96&lt;br&gt;BLAST bit score: 1067&lt;br&gt;E-value: 0.0" locus_tag="BLQ27_RS12945" class="clusterblast-orf" id="dummy-2_h2_4_11"  />
</g>
<g id="a2_0012"  >
<polygon points="149,85 154,80 161,80 161,90 154,90 149,85 " style="fill:#d8b515; stroke-width:1; stroke:black; " description="&lt;b&gt;BLQ27_RS12950&lt;/b&gt;&lt;br&gt;enoyl-CoA hydratase/isomerase family protein&lt;br&gt;Location: 2791033 - 2791800&lt;br&gt;&lt;br&gt;&lt;b&gt;BlastP hit with ctg6_337&lt;/b&gt;&lt;br&gt;Percentage identity: 93&lt;br&gt;Percentage coverage: 100&lt;br&gt;BLAST bit score: 463&lt;br&gt;E-value: 1.04e-165" locus_tag="BLQ27_RS12950" class="clusterblast-orf" id="dummy-2_h2_4_12"  />
</g>
<g id="a2_0013"  >
<polygon points="161,85 166,80 178,80 178,90 166,90 161,85 " style="fill:#15d86e; stroke-width:1; stroke:black; " description="&lt;b&gt;BLQ27_RS12955&lt;/b&gt;&lt;br&gt;acyl-CoA dehydrogenase family protein&lt;br&gt;Location: 2791797 - 2792954&lt;br&gt;&lt;br&gt;&lt;b&gt;BlastP hit with ctg6_338&lt;/b&gt;&lt;br&gt;Percentage identity: 99&lt;br&gt;Percentage coverage: 100&lt;br&gt;BLAST bit score: 773&lt;br&gt;E-value: 7e-284" locus_tag="BLQ27_RS12955" class="clusterblast-orf" id="dummy-2_h2_4_13"  />
</g>
<g id="a2_0014"  >
<polygon points="179,85 184,80 204,80 204,90 184,90 179,85 " style="fill:#2715d8; stroke-width:1; stroke:black; " description="&lt;b&gt;BLQ27_RS12960&lt;/b&gt;&lt;br&gt;acyl-CoA carboxylase subunit beta&lt;br&gt;Location: 2793028 - 2794644&lt;br&gt;&lt;br&gt;&lt;b&gt;BlastP hit with ctg6_339&lt;/b&gt;&lt;br&gt;Percentage identity: 97&lt;br&gt;Percentage coverage: 100&lt;br&gt;BLAST bit score: 1018&lt;br&gt;E-value: 0.0" locus_tag="BLQ27_RS12960" class="clusterblast-orf" id="dummy-2_h2_4_14"  />
</g>
<g id="a2_0015"  >
<polygon points="204,85 209,80 217,80 217,90 209,90 204,85 " style="fill:#d81580; stroke-width:1; stroke:black; " description="&lt;b&gt;BLQ27_RS12965&lt;/b&gt;&lt;br&gt;SDR family oxidoreductase&lt;br&gt;Location: 2794648 - 2795520&lt;br&gt;&lt;br&gt;&lt;b&gt;BlastP hit with ctg6_340&lt;/b&gt;&lt;br&gt;Percentage identity: 95&lt;br&gt;Percentage coverage: 100&lt;br&gt;BLAST bit score: 550&lt;br&gt;E-value: 3.86e-199" locus_tag="BLQ27_RS12965" class="clusterblast-orf" id="dummy-2_h2_4_15"  />
</g>
<g id="a2_0016"  >
<polygon points="217,85 222,80 244,80 244,90 222,90 217,85 " style="fill:#c7d815; stroke-width:1; stroke:black; " description="&lt;b&gt;BLQ27_RS12970&lt;/b&gt;&lt;br&gt;DUF1446 domain-containing protein&lt;br&gt;Location: 2795533 - 2797311&lt;br&gt;&lt;br&gt;&lt;b&gt;BlastP hit with ctg6_341&lt;/b&gt;&lt;br&gt;Percentage identity: 94&lt;br&gt;Percentage coverage: 100&lt;br&gt;BLAST bit score: 1123&lt;br&gt;E-value: 0.0" locus_tag="BLQ27_RS12970" class="clusterblast-orf" id="dummy-2_h2_4_16"  />
</g>
<g id="a2_0017"  >
<polygon points="246,90 251,90 256,85 251,80 246,80 246,90 " style="fill:#15d8a3; stroke-width:1; stroke:black; " description="&lt;b&gt;BLQ27_RS12975&lt;/b&gt;&lt;br&gt;TetR family transcriptional regulator&lt;br&gt;Location: 2797465 - 2798088&lt;br&gt;&lt;br&gt;&lt;b&gt;BlastP hit with ctg6_342&lt;/b&gt;&lt;br&gt;Percentage identity: 95&lt;br&gt;Percentage coverage: 100&lt;br&gt;BLAST bit score: 383&lt;br&gt;E-value: 1.34e-135" locus_tag="BLQ27_RS12975" class="clusterblast-orf" id="dummy-2_h2_4_17"  />
</g>
<g id="a2_0018"  >
<polygon points="259,90 264,90 269,85 264,80 259,80 259,90 " style="fill:#5c15d8; stroke-width:1; stroke:black; " description="&lt;b&gt;BLQ27_RS12980&lt;/b&gt;&lt;br&gt;transporter substrate-binding domain-containing protein&lt;br&gt;Location: 2798273 - 2798998&lt;br&gt;&lt;br&gt;&lt;b&gt;BlastP hit with ctg6_343&lt;/b&gt;&lt;br&gt;Percentage identity: 93&lt;br&gt;Percentage coverage: 92&lt;br&gt;BLAST bit score: 459&lt;br&gt;E-value: 1.95e-164" locus_tag="BLQ27_RS12980" class="clusterblast-orf" id="dummy-2_h2_4_18"  />
</g>
<g id="a2_0019"  >
<polygon points="271,85 276,80 279,80 279,90 276,90 271,85 " style="fill:#d8154a; stroke-width:1; stroke:black; " description="&lt;b&gt;BLQ27_RS12985&lt;/b&gt;&lt;br&gt;RNA polymerase factor sigma-70&lt;br&gt;Location: 2799068 - 2799619&lt;br&gt;&lt;br&gt;&lt;b&gt;BlastP hit with ctg6_344&lt;/b&gt;&lt;br&gt;Percentage identity: 99&lt;br&gt;Percentage coverage: 100&lt;br&gt;BLAST bit score: 359&lt;br&gt;E-value: 6.13e-127" locus_tag="BLQ27_RS12985" class="clusterblast-orf" id="dummy-2_h2_4_19"  />
</g>
<g id="a2_0020"  >
<polygon points="283,90 290,90 295,85 290,80 283,80 283,90 " style="fill:#91d815; stroke-width:1; stroke:black; " description="&lt;b&gt;BLQ27_RS12990&lt;/b&gt;&lt;br&gt;thioesterase&lt;br&gt;Location: 2799918 - 2800670&lt;br&gt;&lt;br&gt;&lt;b&gt;BlastP hit with ctg6_345&lt;/b&gt;&lt;br&gt;Percentage identity: 94&lt;br&gt;Percentage coverage: 100&lt;br&gt;BLAST bit score: 472&lt;br&gt;E-value: 1.55e-169" locus_tag="BLQ27_RS12990" class="clusterblast-orf" id="dummy-2_h2_4_20"  />
</g>
<g id="a2_0021"  >
<polygon points="296,90 485,90 490,85 485,80 296,80 296,90 " style="fill:#15d8d8; stroke-width:1; stroke:black; " description="&lt;b&gt;BLQ27_RS12995&lt;/b&gt;&lt;br&gt;non-ribosomal peptide synthetase&lt;br&gt;Location: 2800722 - 2813618&lt;br&gt;&lt;br&gt;&lt;b&gt;BlastP hit with ctg6_346&lt;/b&gt;&lt;br&gt;Percentage identity: 93&lt;br&gt;Percentage coverage: 100&lt;br&gt;BLAST bit score: 8016&lt;br&gt;E-value: 0.0" locus_tag="BLQ27_RS12995" class="clusterblast-orf" id="dummy-2_h2_4_21"  />
</g>
<g id="a2_0022"  >
<polygon points="491,85 494,80 494,90 491,85 " style="fill:white; stroke-width:1; stroke:black; " description="&lt;b&gt;BLQ27_RS13000&lt;/b&gt;&lt;br&gt;IS5/IS1182 family transposase&lt;br&gt;Location: 2813685 - 2813876" locus_tag="BLQ27_RS13000" class="clusterblast-orf" id="dummy-2_h2_4_22"  />
</g>
<g id="a2_0023"  >
<polygon points="500,90 505,90 510,85 505,80 500,80 500,90 " style="fill:white; stroke-width:1; stroke:black; " description="&lt;b&gt;BLQ27_RS13005&lt;/b&gt;&lt;br&gt;lytic polysaccharide monooxygenase&lt;br&gt;Location: 2814274 - 2814909" locus_tag="BLQ27_RS13005" class="clusterblast-orf" id="dummy-2_h2_4_23"  />
</g>
<g id="a2_0024"  >
<polygon points="510,90 522,90 527,85 522,80 510,80 510,90 " style="fill:white; stroke-width:1; stroke:black; " description="&lt;b&gt;BLQ27_RS13010&lt;/b&gt;&lt;br&gt;chitinase&lt;br&gt;Location: 2814950 - 2816014" locus_tag="BLQ27_RS13010" class="clusterblast-orf" id="dummy-2_h2_4_24"  />
</g>
<g id="a2_0025"  >
<polygon points="530,85 535,80 541,80 541,90 535,90 530,85 " style="fill:white; stroke-width:1; stroke:black; " description="&lt;b&gt;BLQ27_RS13015&lt;/b&gt;&lt;br&gt;thiol:disulfide interchange protein DsbG&lt;br&gt;Location: 2816216 - 2816977" locus_tag="BLQ27_RS13015" class="clusterblast-orf" id="dummy-2_h2_4_25"  />
</g>
<g id="a2_0026"  >
<polygon points="541,85 546,80 554,80 554,90 546,90 541,85 " style="fill:white; stroke-width:1; stroke:black; " description="&lt;b&gt;BLQ27_RS13020&lt;/b&gt;&lt;br&gt;TlpA family protein disulfide reductase&lt;br&gt;Location: 2816953 - 2817798" locus_tag="BLQ27_RS13020" class="clusterblast-orf" id="dummy-2_h2_4_26"  />
</g>
<g id="a2_0027"  >
<polygon points="554,85 559,80 580,80 580,90 559,90 554,85 " style="fill:white; stroke-width:1; stroke:black; " description="&lt;b&gt;BLQ27_RS13025&lt;/b&gt;&lt;br&gt;protein-disulfide reductase DsbD&lt;br&gt;Location: 2817798 - 2819525" locus_tag="BLQ27_RS13025" class="clusterblast-orf" id="dummy-2_h2_4_27"  />
</g>
<g id="a2_0028"  >
<polygon points="582,90 588,90 593,85 588,80 582,80 582,90 " style="fill:white; stroke-width:1; stroke:black; " description="&lt;b&gt;BLQ27_RS13030&lt;/b&gt;&lt;br&gt;response regulator transcription factor&lt;br&gt;Location: 2819702 - 2820397" locus_tag="BLQ27_RS13030" class="clusterblast-orf" id="dummy-2_h2_4_28"  />
</g>
<g id="a2_0029"  >
<polygon points="593,90 608,90 613,85 608,80 593,80 593,90 " style="fill:white; stroke-width:1; stroke:black; " description="&lt;b&gt;BLQ27_RS13035&lt;/b&gt;&lt;br&gt;sensor histidine kinase N-terminal domain-containing protein&lt;br&gt;Location: 2820397 - 2821716" locus_tag="BLQ27_RS13035" class="clusterblast-orf" id="dummy-2_h2_4_29"  />
</g>
<g id="a2_0030"  >
<polygon points="615,90 621,90 626,85 621,80 615,80 615,90 " style="fill:white; stroke-width:1; stroke:black; " description="&lt;b&gt;BLQ27_RS13040&lt;/b&gt;&lt;br&gt;N-acetylmuramoyl-L-alanine amidase&lt;br&gt;Location: 2821852 - 2822619" locus_tag="BLQ27_RS13040" class="clusterblast-orf" id="dummy-2_h2_4_30"  />
</g>
<g id="a2_0031"  >
<polygon points="629,90 645,90 650,85 645,80 629,80 629,90 " style="fill:white; stroke-width:1; stroke:black; " description="&lt;b&gt;BLQ27_RS13045&lt;/b&gt;&lt;br&gt;aspartate aminotransferase family protein&lt;br&gt;Location: 2822785 - 2824197" locus_tag="BLQ27_RS13045" class="clusterblast-orf" id="dummy-2_h2_4_31"  />
</g>
<g id="a2_0032"  >
<polygon points="651,90 655,85 651,80 651,90 " style="fill:white; stroke-width:1; stroke:black; " description="&lt;b&gt;BLQ27_RS13050&lt;/b&gt;&lt;br&gt;MbtH family protein&lt;br&gt;Location: 2824281 - 2824505" locus_tag="BLQ27_RS13050" class="clusterblast-orf" id="dummy-2_h2_4_32"  />
</g>
<g id="a2_0033"  >
<polygon points="670,85 675,80 690,80 690,90 675,90 670,85 " style="fill:white; stroke-width:1; stroke:black; " description="&lt;b&gt;BLQ27_RS13055&lt;/b&gt;&lt;br&gt;amidohydrolase&lt;br&gt;Location: 2825494 - 2826840" locus_tag="BLQ27_RS13055" class="clusterblast-orf" id="dummy-2_h2_4_33"  />
</g>
<g id="a2_0034"  >
<polygon points="690,85 695,80 723,80 723,90 695,90 690,85 " style="fill:white; stroke-width:1; stroke:black; " description="&lt;b&gt;BLQ27_RS13060&lt;/b&gt;&lt;br&gt;mechanosensitive ion channel&lt;br&gt;Location: 2826857 - 2829022" locus_tag="BLQ27_RS13060" class="clusterblast-orf" id="dummy-2_h2_4_34"  />
</g>
<g id="a2_0035"  >
<polygon points="724,85 727,80 727,90 724,85 " style="fill:white; stroke-width:1; stroke:black; " description="&lt;b&gt;BLQ27_RS29905&lt;/b&gt;&lt;br&gt;hypothetical protein&lt;br&gt;Location: 2829095 - 2829271" locus_tag="BLQ27_RS29905" class="clusterblast-orf" id="dummy-2_h2_4_35"  />
</g>
<g id="a2_0036"  >
<polygon points="730,85 735,80 750,80 750,90 735,90 730,85 " style="fill:white; stroke-width:1; stroke:black; " description="&lt;b&gt;BLQ27_RS13065&lt;/b&gt;&lt;br&gt;M18 family aminopeptidase&lt;br&gt;Location: 2829493 - 2830782" locus_tag="BLQ27_RS13065" class="clusterblast-orf" id="dummy-2_h2_4_36"  />
</g>
<g id="a2_0037"  >
<polygon points="752,85 757,80 762,80 762,90 757,90 752,85 " style="fill:white; stroke-width:1; stroke:black; " description="&lt;b&gt;BLQ27_RS13070&lt;/b&gt;&lt;br&gt;RluA family pseudouridine synthase&lt;br&gt;Location: 2830953 - 2831588" locus_tag="BLQ27_RS13070" class="clusterblast-orf" id="dummy-2_h2_4_37"  />
</g>
<g id="a2_0038"  >
<polygon points="763,85 767,80 767,90 763,85 " style="fill:white; stroke-width:1; stroke:black; " description="&lt;b&gt;BLQ27_RS13075&lt;/b&gt;&lt;br&gt;cell division topological specificity factor MinE&lt;br&gt;Location: 2831686 - 2831940" locus_tag="BLQ27_RS13075" class="clusterblast-orf" id="dummy-2_h2_4_38"  />
</g>
<g id="a2_0039"  >
<polygon points="767,85 772,80 780,80 780,90 772,90 767,85 " style="fill:white; stroke-width:1; stroke:black; " description="&lt;b&gt;BLQ27_RS13080&lt;/b&gt;&lt;br&gt;septum site-determining protein MinD&lt;br&gt;Location: 2831944 - 2832756" locus_tag="BLQ27_RS13080" class="clusterblast-orf" id="dummy-2_h2_4_39"  />
</g>
</svg>
