<svg xmlns="http://www.w3.org/2000/svg" xmlns:xlink="http://www.w3.org/1999/xlink" version="1.1" x="0" y="0" height="230" width="800" viewBox="0 0 800 230" preserveAspectRatio="none"  >
<g label="Query sequence" class="clusterblast-cluster"  >
<text x="5" y="20" class="clusterblast-acc"  >
Query sequence</text>
<line x1="10" y1="35" x2="778.0" y2="35" style="stroke-width:1; stroke:grey; "  />
<polygon points="213,40 217,40 222,35 217,30 213,30 213,40 " style="fill:white; stroke-width:1; stroke:black; " description="&lt;b&gt;ctg1_94&lt;/b&gt;&lt;br&gt;ctg1 94&lt;br&gt;Location: 94176 - 94725" locus_tag="ctg1_94" class="clusterblast-orf" id="dummy-1_q0_0_all"  />
<polygon points="225,35 230,30 243,30 243,40 230,40 225,35 " style="fill:white; stroke-width:1; stroke:black; " description="&lt;b&gt;ctg1_95&lt;/b&gt;&lt;br&gt;ctg1 95&lt;br&gt;Location: 94846 - 95893" locus_tag="ctg1_95" class="clusterblast-orf" id="dummy-1_q1_0_all"  />
<polygon points="266,40 269,40 274,35 269,30 266,30 266,40 " style="fill:#d81515; stroke-width:1; stroke:black; " description="&lt;b&gt;ctg1_96&lt;/b&gt;&lt;br&gt;ctg1 96&lt;br&gt;Location: 97152 - 97599" locus_tag="ctg1_96" class="clusterblast-orf" id="dummy-1_q2_0_all"  />
<polygon points="276,40 302,40 307,35 302,30 276,30 276,40 " style="fill:#77d815; stroke-width:1; stroke:black; " description="&lt;b&gt;ctg1_97&lt;/b&gt;&lt;br&gt;ctg1 97&lt;br&gt;Location: 97745 - 99449" locus_tag="ctg1_97" class="clusterblast-orf" id="dummy-1_q3_0_all"  />
<polygon points="307,40 316,40 321,35 316,30 307,30 307,40 " style="fill:#15d8d8; stroke-width:1; stroke:black; " description="&lt;b&gt;ctg1_98&lt;/b&gt;&lt;br&gt;ctg1 98&lt;br&gt;Location: 99459 - 100254" locus_tag="ctg1_98" class="clusterblast-orf" id="dummy-1_q4_0_all"  />
<polygon points="322,40 359,40 364,35 359,30 322,30 322,40 " style="fill:#7715d8; stroke-width:1; stroke:black; " description="&lt;b&gt;ctg1_99&lt;/b&gt;&lt;br&gt;ctg1 99&lt;br&gt;Location: 100313 - 102689" locus_tag="ctg1_99" class="clusterblast-orf" id="dummy-1_q5_0_all"  />
<polygon points="366,40 368,35 366,30 366,40 " style="fill:#d87715; stroke-width:1; stroke:black; " description="&lt;b&gt;ctg1_100&lt;/b&gt;&lt;br&gt;ctg1 100&lt;br&gt;Location: 102799 - 102922" locus_tag="ctg1_100" class="clusterblast-orf" id="dummy-1_q6_0_all"  />
<polygon points="370,40 381,40 386,35 381,30 370,30 370,40 " style="fill:#15d815; stroke-width:1; stroke:black; " description="&lt;b&gt;ctg1_101&lt;/b&gt;&lt;br&gt;ctg1 101&lt;br&gt;Location: 102993 - 103905" locus_tag="ctg1_101" class="clusterblast-orf" id="dummy-1_q7_0_all"  />
<polygon points="386,40 395,40 400,35 395,30 386,30 386,40 " style="fill:#1577d8; stroke-width:1; stroke:black; " description="&lt;b&gt;ctg1_102&lt;/b&gt;&lt;br&gt;ctg1 102&lt;br&gt;Location: 103916 - 104669" locus_tag="ctg1_102" class="clusterblast-orf" id="dummy-1_q8_0_all"  />
<polygon points="399,40 399,40 404,35 399,30 399,30 399,40 " style="fill:#d815d8; stroke-width:1; stroke:black; " description="&lt;b&gt;ctg1_103&lt;/b&gt;&lt;br&gt;ctg1 103&lt;br&gt;Location: 104665 - 104941" locus_tag="ctg1_103" class="clusterblast-orf" id="dummy-1_q9_0_all"  />
<polygon points="404,40 419,40 424,35 419,30 404,30 404,40 " style="fill:#d8d815; stroke-width:1; stroke:black; " description="&lt;b&gt;ctg1_104&lt;/b&gt;&lt;br&gt;ctg1 104&lt;br&gt;Location: 104912 - 106064" locus_tag="ctg1_104" class="clusterblast-orf" id="dummy-1_q10_0_all"  />
<polygon points="424,35 427,30 427,40 424,35 " style="fill:#15d877; stroke-width:1; stroke:black; " description="&lt;b&gt;ctg1_105&lt;/b&gt;&lt;br&gt;ctg1 105&lt;br&gt;Location: 106069 - 106228" locus_tag="ctg1_105" class="clusterblast-orf" id="dummy-1_q11_0_all"  />
<polygon points="431,35 436,30 453,30 453,40 436,40 431,35 " style="fill:white; stroke-width:1; stroke:black; " description="&lt;b&gt;ctg1_106&lt;/b&gt;&lt;br&gt;ctg1 106&lt;br&gt;Location: 106410 - 107670" locus_tag="ctg1_106" class="clusterblast-orf" id="dummy-1_q12_0_all"  />
<polygon points="457,40 468,40 473,35 468,30 457,30 457,40 " style="fill:white; stroke-width:1; stroke:black; " description="&lt;b&gt;ctg1_107&lt;/b&gt;&lt;br&gt;ctg1 107&lt;br&gt;Location: 107879 - 108779" locus_tag="ctg1_107" class="clusterblast-orf" id="dummy-1_q13_0_all"  />
<polygon points="477,35 482,30 508,30 508,40 482,40 477,35 " style="fill:#1515d8; stroke-width:1; stroke:black; " description="&lt;b&gt;ctg1_108&lt;/b&gt;&lt;br&gt;ctg1 108&lt;br&gt;Location: 109005 - 110784" locus_tag="ctg1_108" class="clusterblast-orf" id="dummy-1_q14_0_all"  />
<polygon points="511,35 516,30 542,30 542,40 516,40 511,35 " style="fill:#1515d8; stroke-width:1; stroke:black; " description="&lt;b&gt;ctg1_109&lt;/b&gt;&lt;br&gt;ctg1 109&lt;br&gt;Location: 110903 - 112676" locus_tag="ctg1_109" class="clusterblast-orf" id="dummy-1_q15_0_all"  />
<polygon points="544,35 549,30 567,30 567,40 549,40 544,35 " style="fill:#d81577; stroke-width:1; stroke:black; " description="&lt;b&gt;ctg1_110&lt;/b&gt;&lt;br&gt;ctg1 110&lt;br&gt;Location: 112766 - 114056" locus_tag="ctg1_110" class="clusterblast-orf" id="dummy-1_q16_0_all"  />
</g>
<g label="NZ_CP034078" description="NZ_CP034078 (5305350-5349144): Pseudomonas syringae pv. pisi str. PP1 chromos... (36% of genes show similarity), NRPS-like" class="clusterblast-cluster"  >
<text x="5" y="70" class="clusterblast-acc"  >
<a xlink:href="https://antismash-db.secondarymetabolites.org/area.html?record=NZ_CP034078&amp;start=5305350&amp;end=5349144" target="_blank">NZ_CP034078 (5305350-5349144)</a>: Pseudomonas syringae pv. pisi str. PP1 chromos... (36% of genes show similarity), NRPS-like</text>
<line x1="10" y1="85" x2="778.0" y2="85" style="stroke-width:1; stroke:grey; "  />
</g>
<g id="a1_000"  >
<polygon points="0,90 0,90 5,85 0,80 0,80 0,90 " style="fill:white; stroke-width:1; stroke:black; " description="&lt;b&gt;N032_RS24495&lt;/b&gt;&lt;br&gt;IS66 family insertion sequence hypothetical protein&lt;br&gt;Location: 5305351 - 5305668" locus_tag="N032_RS24495" class="clusterblast-orf" id="dummy-1_h1_2_0"  />
</g>
<g id="a1_001"  >
<polygon points="5,90 6,90 11,85 6,80 5,80 5,90 " style="fill:white; stroke-width:1; stroke:black; " description="&lt;b&gt;N032_RS24500&lt;/b&gt;&lt;br&gt;IS66 family insertion sequence element accessory protein TnpB&lt;br&gt;Location: 5305665 - 5306000" locus_tag="N032_RS24500" class="clusterblast-orf" id="dummy-1_h1_2_1"  />
</g>
<g id="a1_002"  >
<polygon points="12,90 35,90 40,85 35,80 12,80 12,90 " style="fill:white; stroke-width:1; stroke:black; " description="&lt;b&gt;N032_RS24505&lt;/b&gt;&lt;br&gt;IS66 family transposase&lt;br&gt;Location: 5306062 - 5307645" locus_tag="N032_RS24505" class="clusterblast-orf" id="dummy-1_h1_2_2"  />
</g>
<g id="a1_003"  >
<polygon points="40,85 45,80 65,80 65,90 45,90 40,85 " style="fill:white; stroke-width:1; stroke:black; " description="&lt;b&gt;N032_RS24510&lt;/b&gt;&lt;br&gt;Na+/H+ antiporter NhaA&lt;br&gt;Location: 5307642 - 5309012" locus_tag="N032_RS24510" class="clusterblast-orf" id="dummy-1_h1_2_3"  />
</g>
<g id="a1_004"  >
<polygon points="69,90 86,90 91,85 86,80 69,80 69,90 " style="fill:white; stroke-width:1; stroke:black; " description="&lt;b&gt;N032_RS24515&lt;/b&gt;&lt;br&gt;DUF2254 domain-containing protein&lt;br&gt;Location: 5309231 - 5310511" locus_tag="N032_RS24515" class="clusterblast-orf" id="dummy-1_h1_2_4"  />
</g>
<g id="a1_005"  >
<polygon points="93,90 116,90 121,85 116,80 93,80 93,90 " style="fill:#d81577; stroke-width:1; stroke:black; " description="&lt;b&gt;N032_RS24520&lt;/b&gt;&lt;br&gt;sensor domain-containing diguanylate cyclase&lt;br&gt;Location: 5310579 - 5312156&lt;br&gt;&lt;br&gt;&lt;b&gt;BlastP hit with ctg1_110&lt;/b&gt;&lt;br&gt;Percentage identity: 35&lt;br&gt;Percentage coverage: 43&lt;br&gt;BLAST bit score: 80&lt;br&gt;E-value: 5.73e-14" locus_tag="N032_RS24520" class="clusterblast-orf" id="dummy-1_h1_2_5"  />
</g>
<g id="a1_006"  >
<polygon points="125,90 149,90 154,85 149,80 125,80 125,90 " style="fill:white; stroke-width:1; stroke:black; " description="&lt;b&gt;N032_RS24525&lt;/b&gt;&lt;br&gt;methyl-accepting chemotaxis protein&lt;br&gt;Location: 5312400 - 5314019" locus_tag="N032_RS24525" class="clusterblast-orf" id="dummy-1_h1_2_6"  />
</g>
<g id="a1_007"  >
<polygon points="159,85 164,80 168,80 168,90 164,90 159,85 " style="fill:white; stroke-width:1; stroke:black; " description="&lt;b&gt;N032_RS24530&lt;/b&gt;&lt;br&gt;hypothetical protein&lt;br&gt;Location: 5314317 - 5314829" locus_tag="N032_RS24530" class="clusterblast-orf" id="dummy-1_h1_2_7"  />
</g>
<g id="a1_008"  >
<polygon points="170,85 175,80 177,80 177,90 175,90 170,85 " style="fill:white; stroke-width:1; stroke:black; " description="&lt;b&gt;N032_RS24535&lt;/b&gt;&lt;br&gt;hypothetical protein&lt;br&gt;Location: 5314930 - 5315331" locus_tag="N032_RS24535" class="clusterblast-orf" id="dummy-1_h1_2_8"  />
</g>
<g id="a1_009"  >
<polygon points="179,85 184,80 189,80 189,90 184,90 179,85 " style="fill:white; stroke-width:1; stroke:black; " description="&lt;b&gt;N032_RS24540&lt;/b&gt;&lt;br&gt;hypothetical protein&lt;br&gt;Location: 5315416 - 5315994" locus_tag="N032_RS24540" class="clusterblast-orf" id="dummy-1_h1_2_9"  />
</g>
<g id="a1_0010"  >
<polygon points="198,85 203,80 203,80 203,90 203,90 198,85 " style="fill:white; stroke-width:1; stroke:black; " description="&lt;b&gt;N032_RS24545&lt;/b&gt;&lt;br&gt;hypothetical protein&lt;br&gt;Location: 5316511 - 5316750" locus_tag="N032_RS24545" class="clusterblast-orf" id="dummy-1_h1_2_10"  />
</g>
<g id="a1_0011"  >
<polygon points="213,90 230,90 235,85 230,80 213,80 213,90 " style="fill:white; stroke-width:1; stroke:black; " description="&lt;b&gt;N032_RS24550&lt;/b&gt;&lt;br&gt;hypothetical protein&lt;br&gt;Location: 5317327 - 5318566" locus_tag="N032_RS24550" class="clusterblast-orf" id="dummy-1_h1_2_11"  />
</g>
<g id="a1_0012"  >
<polygon points="236,90 263,90 268,85 263,80 236,80 236,90 " style="fill:white; stroke-width:1; stroke:black; " description="&lt;b&gt;N032_RS24555&lt;/b&gt;&lt;br&gt;hypothetical protein&lt;br&gt;Location: 5318646 - 5320415" locus_tag="N032_RS24555" class="clusterblast-orf" id="dummy-1_h1_2_12"  />
</g>
<g id="a1_0013"  >
<polygon points="270,85 275,80 275,80 275,90 275,90 270,85 " style="fill:white; stroke-width:1; stroke:black; " description="&lt;b&gt;N032_RS24560&lt;/b&gt;&lt;br&gt;SOS response-associated peptidase&lt;br&gt;Location: 5320554 - 5320838" locus_tag="N032_RS24560" class="clusterblast-orf" id="dummy-1_h1_2_13"  />
</g>
<g id="a1_0014"  >
<polygon points="278,85 283,80 291,80 291,90 283,90 278,85 " style="fill:white; stroke-width:1; stroke:black; " description="&lt;b&gt;N032_RS24565&lt;/b&gt;&lt;br&gt;hypothetical protein&lt;br&gt;Location: 5320977 - 5321708" locus_tag="N032_RS24565" class="clusterblast-orf" id="dummy-1_h1_2_14"  />
</g>
<g id="a1_0015"  >
<polygon points="307,85 312,80 316,80 316,90 312,90 307,85 " style="fill:white; stroke-width:1; stroke:black; " description="&lt;b&gt;N032_RS24570&lt;/b&gt;&lt;br&gt;peptide-methionine (S)-S-oxide reductase MsrA&lt;br&gt;Location: 5322639 - 5323145" locus_tag="N032_RS24570" class="clusterblast-orf" id="dummy-1_h1_2_15"  />
</g>
<g id="a1_0016"  >
<polygon points="324,90 334,90 339,85 334,80 324,80 324,90 " style="fill:white; stroke-width:1; stroke:black; " description="&lt;b&gt;N032_RS24575&lt;/b&gt;&lt;br&gt;formate/nitrite transporter family protein&lt;br&gt;Location: 5323587 - 5324402" locus_tag="N032_RS24575" class="clusterblast-orf" id="dummy-1_h1_2_16"  />
</g>
<g id="a1_0017"  >
<polygon points="341,85 346,80 353,80 353,90 346,90 341,85 " style="fill:white; stroke-width:1; stroke:black; " description="&lt;b&gt;N032_RS24580&lt;/b&gt;&lt;br&gt;4'-phosphopantetheinyl transferase superfamily protein&lt;br&gt;Location: 5324551 - 5325183" locus_tag="N032_RS24580" class="clusterblast-orf" id="dummy-1_h1_2_17"  />
</g>
<g id="a1_0018"  >
<polygon points="353,85 358,80 425,80 425,90 358,90 353,85 " style="fill:white; stroke-width:1; stroke:black; " description="&lt;b&gt;N032_RS24585&lt;/b&gt;&lt;br&gt;non-ribosomal peptide synthetase&lt;br&gt;Location: 5325180 - 5329220" locus_tag="N032_RS24585" class="clusterblast-orf" id="dummy-1_h1_2_18"  />
</g>
<g id="a1_0019"  >
<polygon points="434,90 449,90 454,85 449,80 434,80 434,90 " style="fill:white; stroke-width:1; stroke:black; " description="&lt;b&gt;N032_RS24595&lt;/b&gt;&lt;br&gt;Fic family protein&lt;br&gt;Location: 5329766 - 5330896" locus_tag="N032_RS24595" class="clusterblast-orf" id="dummy-1_h1_2_19"  />
</g>
<g id="a1_0020"  >
<polygon points="455,85 460,80 477,80 477,90 460,90 455,85 " style="fill:white; stroke-width:1; stroke:black; " description="&lt;b&gt;N032_RS24600&lt;/b&gt;&lt;br&gt;type II toxin-antitoxin system HipA family toxin&lt;br&gt;Location: 5330921 - 5332147" locus_tag="N032_RS24600" class="clusterblast-orf" id="dummy-1_h1_2_20"  />
</g>
<g id="a1_0021"  >
<polygon points="477,85 482,80 483,80 483,90 482,90 477,85 " style="fill:white; stroke-width:1; stroke:black; " description="&lt;b&gt;N032_RS24605&lt;/b&gt;&lt;br&gt;helix-turn-helix transcriptional regulator&lt;br&gt;Location: 5332147 - 5332470" locus_tag="N032_RS24605" class="clusterblast-orf" id="dummy-1_h1_2_21"  />
</g>
<g id="a1_0022"  >
<polygon points="488,90 502,90 507,85 502,80 488,80 488,90 " style="fill:white; stroke-width:1; stroke:black; " description="&lt;b&gt;N032_RS24615&lt;/b&gt;&lt;br&gt;FUSC family protein&lt;br&gt;Location: 5332780 - 5333865" locus_tag="N032_RS24615" class="clusterblast-orf" id="dummy-1_h1_2_22"  />
</g>
<g id="a1_0023"  >
<polygon points="508,90 511,90 516,85 511,80 508,80 508,90 " style="fill:#d81515; stroke-width:1; stroke:black; " description="&lt;b&gt;N032_RS24620&lt;/b&gt;&lt;br&gt;Lrp/AsnC family transcriptional regulator&lt;br&gt;Location: 5333876 - 5334337&lt;br&gt;&lt;br&gt;&lt;b&gt;BlastP hit with ctg1_96&lt;/b&gt;&lt;br&gt;Percentage identity: 92&lt;br&gt;Percentage coverage: 99&lt;br&gt;BLAST bit score: 261&lt;br&gt;E-value: 3.96e-89" locus_tag="N032_RS24620" class="clusterblast-orf" id="dummy-1_h1_2_23"  />
</g>
<g id="a1_0024"  >
<polygon points="518,90 543,90 548,85 543,80 518,80 518,90 " style="fill:#77d815; stroke-width:1; stroke:black; " description="&lt;b&gt;N032_RS24625&lt;/b&gt;&lt;br&gt;NAD(P)/FAD-dependent oxidoreductase&lt;br&gt;Location: 5334489 - 5336168&lt;br&gt;&lt;br&gt;&lt;b&gt;BlastP hit with ctg1_97&lt;/b&gt;&lt;br&gt;Percentage identity: 91&lt;br&gt;Percentage coverage: 98&lt;br&gt;BLAST bit score: 1065&lt;br&gt;E-value: 0.0" locus_tag="N032_RS24625" class="clusterblast-orf" id="dummy-1_h1_2_24"  />
</g>
<g id="a1_0025"  >
<polygon points="549,90 558,90 563,85 558,80 549,80 549,90 " style="fill:#15d8d8; stroke-width:1; stroke:black; " description="&lt;b&gt;N032_RS24630&lt;/b&gt;&lt;br&gt;carbon-nitrogen hydrolase family protein&lt;br&gt;Location: 5336184 - 5336978&lt;br&gt;&lt;br&gt;&lt;b&gt;BlastP hit with ctg1_98&lt;/b&gt;&lt;br&gt;Percentage identity: 72&lt;br&gt;Percentage coverage: 100&lt;br&gt;BLAST bit score: 388&lt;br&gt;E-value: 1.03e-135" locus_tag="N032_RS24630" class="clusterblast-orf" id="dummy-1_h1_2_25"  />
</g>
<g id="a1_0026"  >
<polygon points="577,90 613,90 618,85 613,80 577,80 577,90 " style="fill:#7715d8; stroke-width:1; stroke:black; " description="&lt;b&gt;N032_RS24635&lt;/b&gt;&lt;br&gt;pyrroloquinoline quinone biosynthesis protein PqqF&lt;br&gt;Location: 5337783 - 5340071&lt;br&gt;&lt;br&gt;&lt;b&gt;BlastP hit with ctg1_99&lt;/b&gt;&lt;br&gt;Percentage identity: 46&lt;br&gt;Percentage coverage: 102&lt;br&gt;BLAST bit score: 610&lt;br&gt;E-value: 2.41e-207" locus_tag="N032_RS24635" class="clusterblast-orf" id="dummy-1_h1_2_26"  />
</g>
<g id="a1_0027"  >
<polygon points="620,90 622,85 620,80 620,90 " style="fill:#d87715; stroke-width:1; stroke:black; " description="&lt;b&gt;N032_RS24640&lt;/b&gt;&lt;br&gt;pyrroloquinoline quinone precursor peptide PqqA&lt;br&gt;Location: 5340207 - 5340281&lt;br&gt;&lt;br&gt;&lt;b&gt;BlastP hit with ctg1_100&lt;/b&gt;&lt;br&gt;Percentage identity: 92&lt;br&gt;Percentage coverage: 60&lt;br&gt;BLAST bit score: 52&lt;br&gt;E-value: 6.3e-10" locus_tag="N032_RS24640" class="clusterblast-orf" id="dummy-1_h1_2_27"  />
</g>
<g id="a1_0028"  >
<polygon points="623,90 634,90 639,85 634,80 623,80 623,90 " style="fill:#15d815; stroke-width:1; stroke:black; " description="&lt;b&gt;N032_RS24645&lt;/b&gt;&lt;br&gt;pyrroloquinoline quinone biosynthesis protein PqqB&lt;br&gt;Location: 5340370 - 5341281&lt;br&gt;&lt;br&gt;&lt;b&gt;BlastP hit with ctg1_101&lt;/b&gt;&lt;br&gt;Percentage identity: 91&lt;br&gt;Percentage coverage: 100&lt;br&gt;BLAST bit score: 589&lt;br&gt;E-value: 6.04e-214" locus_tag="N032_RS24645" class="clusterblast-orf" id="dummy-1_h1_2_28"  />
</g>
<g id="a1_0029"  >
<polygon points="640,90 648,90 653,85 648,80 640,80 640,90 " style="fill:#1577d8; stroke-width:1; stroke:black; " description="&lt;b&gt;N032_RS24650&lt;/b&gt;&lt;br&gt;pyrroloquinoline-quinone synthase PqqC&lt;br&gt;Location: 5341290 - 5342045&lt;br&gt;&lt;br&gt;&lt;b&gt;BlastP hit with ctg1_102&lt;/b&gt;&lt;br&gt;Percentage identity: 96&lt;br&gt;Percentage coverage: 99&lt;br&gt;BLAST bit score: 496&lt;br&gt;E-value: 4.01e-179" locus_tag="N032_RS24650" class="clusterblast-orf" id="dummy-1_h1_2_29"  />
</g>
<g id="a1_0030"  >
<polygon points="653,90 653,90 658,85 653,80 653,80 653,90 " style="fill:#d815d8; stroke-width:1; stroke:black; " description="&lt;b&gt;N032_RS24655&lt;/b&gt;&lt;br&gt;pyrroloquinoline quinone biosynthesis peptide chaperone PqqD&lt;br&gt;Location: 5342042 - 5342326&lt;br&gt;&lt;br&gt;&lt;b&gt;BlastP hit with ctg1_103&lt;/b&gt;&lt;br&gt;Percentage identity: 69&lt;br&gt;Percentage coverage: 95&lt;br&gt;BLAST bit score: 132&lt;br&gt;E-value: 6.88e-40" locus_tag="N032_RS24655" class="clusterblast-orf" id="dummy-1_h1_2_30"  />
</g>
<g id="a1_0031"  >
<polygon points="658,90 674,90 679,85 674,80 658,80 658,90 " style="fill:#d8d815; stroke-width:1; stroke:black; " description="&lt;b&gt;N032_RS24660&lt;/b&gt;&lt;br&gt;pyrroloquinoline quinone biosynthesis protein PqqE&lt;br&gt;Location: 5342319 - 5343488&lt;br&gt;&lt;br&gt;&lt;b&gt;BlastP hit with ctg1_104&lt;/b&gt;&lt;br&gt;Percentage identity: 88&lt;br&gt;Percentage coverage: 99&lt;br&gt;BLAST bit score: 715&lt;br&gt;E-value: 3.85e-261" locus_tag="N032_RS24660" class="clusterblast-orf" id="dummy-1_h1_2_31"  />
</g>
<g id="a1_0032"  >
<polygon points="678,90 706,90 711,85 706,80 678,80 678,90 " style="fill:white; stroke-width:1; stroke:black; " description="&lt;b&gt;N032_RS24665&lt;/b&gt;&lt;br&gt;S9 family peptidase&lt;br&gt;Location: 5343451 - 5345277" locus_tag="N032_RS24665" class="clusterblast-orf" id="dummy-1_h1_2_32"  />
</g>
<g id="a1_0033"  >
<polygon points="712,85 714,80 714,90 712,85 " style="fill:#15d877; stroke-width:1; stroke:black; " description="&lt;b&gt;N032_RS24670&lt;/b&gt;&lt;br&gt;YqaE/Pmp3 family membrane protein&lt;br&gt;Location: 5345333 - 5345494&lt;br&gt;&lt;br&gt;&lt;b&gt;BlastP hit with ctg1_105&lt;/b&gt;&lt;br&gt;Percentage identity: 85&lt;br&gt;Percentage coverage: 100&lt;br&gt;BLAST bit score: 87&lt;br&gt;E-value: 3.14e-23" locus_tag="N032_RS24670" class="clusterblast-orf" id="dummy-1_h1_2_33"  />
</g>
<g id="a1_0034"  >
<polygon points="722,85 727,80 753,80 753,90 727,90 722,85 " style="fill:#1515d8; stroke-width:1; stroke:black; " description="&lt;b&gt;N032_RS24675&lt;/b&gt;&lt;br&gt;acyl-CoA dehydrogenase&lt;br&gt;Location: 5345898 - 5347676&lt;br&gt;&lt;br&gt;&lt;b&gt;BlastP hit with ctg1_108&lt;/b&gt;&lt;br&gt;Percentage identity: 83&lt;br&gt;Percentage coverage: 100&lt;br&gt;BLAST bit score: 993&lt;br&gt;E-value: 0.0&lt;br&gt;&lt;br&gt;&lt;b&gt;BlastP hit with ctg1_109&lt;/b&gt;&lt;br&gt;Percentage identity: 56&lt;br&gt;Percentage coverage: 101&lt;br&gt;BLAST bit score: 638&lt;br&gt;E-value: 4.56e-224" locus_tag="N032_RS24675" class="clusterblast-orf" id="dummy-1_h1_2_34"  />
</g>
<g id="a1_0035"  >
<polygon points="756,85 761,80 780,80 780,90 761,90 756,85 " style="fill:#d81577; stroke-width:1; stroke:black; " description="&lt;b&gt;N032_RS24680&lt;/b&gt;&lt;br&gt;GGDEF domain-containing protein&lt;br&gt;Location: 5347846 - 5349144&lt;br&gt;&lt;br&gt;&lt;b&gt;BlastP hit with ctg1_110&lt;/b&gt;&lt;br&gt;Percentage identity: 81&lt;br&gt;Percentage coverage: 100&lt;br&gt;BLAST bit score: 685&lt;br&gt;E-value: 9.05e-248" locus_tag="N032_RS24680" class="clusterblast-orf" id="dummy-1_h1_2_35"  />
</g>
</svg>
