<svg xmlns="http://www.w3.org/2000/svg" xmlns:xlink="http://www.w3.org/1999/xlink" version="1.1" x="0" y="0" height="230" width="800" viewBox="0 0 800 230" preserveAspectRatio="none"  >
<g label="Query sequence" class="clusterblast-cluster"  >
<text x="5" y="20" class="clusterblast-acc"  >
Query sequence</text>
<line x1="10" y1="35" x2="778.0" y2="35" style="stroke-width:1; stroke:grey; "  />
<polygon points="0,40 8,40 13,35 8,30 0,30 0,40 " style="fill:#d81515; stroke-width:1; stroke:black; " description="&lt;b&gt;ctg15_59&lt;/b&gt;&lt;br&gt;ctg15 59&lt;br&gt;Location: 58828 - 59020" locus_tag="ctg15_59" class="clusterblast-orf" id="dummy-1_q0_0_all"  />
<polygon points="40,40 173,40 178,35 173,30 40,30 40,40 " style="fill:#3cd815; stroke-width:1; stroke:black; " description="&lt;b&gt;ctg15_60&lt;/b&gt;&lt;br&gt;ctg15 60&lt;br&gt;Location: 59437 - 61525" locus_tag="ctg15_60" class="clusterblast-orf" id="dummy-1_q1_0_all"  />
<polygon points="182,35 187,30 192,30 192,40 187,40 182,35 " style="fill:#1563d8; stroke-width:1; stroke:black; " description="&lt;b&gt;ctg15_61&lt;/b&gt;&lt;br&gt;ctg15 61&lt;br&gt;Location: 61579 - 61732" locus_tag="ctg15_61" class="clusterblast-orf" id="dummy-1_q2_0_all"  />
<polygon points="214,40 263,40 268,35 263,30 214,30 214,40 " style="fill:#b115d8; stroke-width:1; stroke:black; " description="&lt;b&gt;ctg15_62&lt;/b&gt;&lt;br&gt;ctg15 62&lt;br&gt;Location: 62062 - 62878" locus_tag="ctg15_62" class="clusterblast-orf" id="dummy-1_q3_0_all"  />
<polygon points="284,40 292,40 297,35 292,30 284,30 284,40 " style="fill:#d88a15; stroke-width:1; stroke:black; " description="&lt;b&gt;ctg15_63&lt;/b&gt;&lt;br&gt;ctg15 63&lt;br&gt;Location: 63119 - 63323" locus_tag="ctg15_63" class="clusterblast-orf" id="dummy-1_q4_0_all"  />
<polygon points="298,35 303,30 313,30 313,40 303,40 298,35 " style="fill:#15d863; stroke-width:1; stroke:black; " description="&lt;b&gt;ctg15_64&lt;/b&gt;&lt;br&gt;ctg15 64&lt;br&gt;Location: 63330 - 63558" locus_tag="ctg15_64" class="clusterblast-orf" id="dummy-1_q5_0_all"  />
<polygon points="317,35 322,30 395,30 395,40 322,40 317,35 " style="fill:#3c15d8; stroke-width:1; stroke:black; " description="&lt;b&gt;ctg15_65&lt;/b&gt;&lt;br&gt;ctg15 65&lt;br&gt;Location: 63617 - 64802" locus_tag="ctg15_65" class="clusterblast-orf" id="dummy-1_q6_0_all"  />
<polygon points="406,35 411,30 522,30 522,40 411,40 406,35 " style="fill:#d8158a; stroke-width:1; stroke:black; " description="&lt;b&gt;ctg15_66&lt;/b&gt;&lt;br&gt;ctg15 66&lt;br&gt;Location: 64973 - 66722" locus_tag="ctg15_66" class="clusterblast-orf" id="dummy-1_q7_0_all"  />
<polygon points="522,35 527,30 639,30 639,40 527,40 522,35 " style="fill:#b1d815; stroke-width:1; stroke:black; " description="&lt;b&gt;ctg15_67&lt;/b&gt;&lt;br&gt;ctg15 67&lt;br&gt;Location: 66725 - 68498" locus_tag="ctg15_67" class="clusterblast-orf" id="dummy-1_q8_0_all"  />
<polygon points="648,35 653,30 780,30 780,40 653,40 648,35 " style="fill:#15d8d8; stroke-width:1; stroke:black; " description="&lt;b&gt;ctg15_68&lt;/b&gt;&lt;br&gt;ctg15 68&lt;br&gt;Location: 68633 - 70634" locus_tag="ctg15_68" class="clusterblast-orf" id="dummy-1_q9_0_all"  />
</g>
<g label="NZ_QKMB01000006" description="NZ_QKMB01000006 (47586-62375): Pseudomonas sp. OV286 Ga0215801 106, whole gen... (100% of genes show similarity), NAGGN" class="clusterblast-cluster"  >
<text x="5" y="70" class="clusterblast-acc"  >
<a xlink:href="https://antismash-db.secondarymetabolites.org/area.html?record=NZ_QKMB01000006&amp;start=47586&amp;end=62375" target="_blank">NZ_QKMB01000006 (47586-62375)</a>: Pseudomonas sp. OV286 Ga0215801 106, whole gen... (100% of genes show similarity), NAGGN</text>
<line x1="10" y1="85" x2="778.0" y2="85" style="stroke-width:1; stroke:grey; "  />
</g>
<g id="a1_000"  >
<polygon points="7,90 14,90 19,85 14,80 7,80 7,90 " style="fill:#d81515; stroke-width:1; stroke:black; " description="&lt;b&gt;C7535_RS09995&lt;/b&gt;&lt;br&gt;PLDc N-terminal domain-containing protein&lt;br&gt;Location: 47920 - 48111&lt;br&gt;&lt;br&gt;&lt;b&gt;BlastP hit with ctg15_59&lt;/b&gt;&lt;br&gt;Percentage identity: 100&lt;br&gt;Percentage coverage: 100&lt;br&gt;BLAST bit score: 120&lt;br&gt;E-value: 2.37e-36" locus_tag="C7535_RS09995" class="clusterblast-orf" id="dummy-1_h1_8_0"  />
</g>
<g id="a1_001"  >
<polygon points="42,90 175,90 180,85 175,80 42,80 42,90 " style="fill:#3cd815; stroke-width:1; stroke:black; " description="&lt;b&gt;C7535_RS10000&lt;/b&gt;&lt;br&gt;LTA synthase family protein&lt;br&gt;Location: 48454 - 50541&lt;br&gt;&lt;br&gt;&lt;b&gt;BlastP hit with ctg15_60&lt;/b&gt;&lt;br&gt;Percentage identity: 98&lt;br&gt;Percentage coverage: 100&lt;br&gt;BLAST bit score: 1380&lt;br&gt;E-value: 0.0" locus_tag="C7535_RS10000" class="clusterblast-orf" id="dummy-1_h1_8_1"  />
</g>
<g id="a1_002"  >
<polygon points="183,85 188,80 193,80 193,90 188,90 183,85 " style="fill:#1563d8; stroke-width:1; stroke:black; " description="&lt;b&gt;C7535_RS10005&lt;/b&gt;&lt;br&gt;DUF3309 domain-containing protein&lt;br&gt;Location: 50595 - 50747&lt;br&gt;&lt;br&gt;&lt;b&gt;BlastP hit with ctg15_61&lt;/b&gt;&lt;br&gt;Percentage identity: 100&lt;br&gt;Percentage coverage: 100&lt;br&gt;BLAST bit score: 81&lt;br&gt;E-value: 1.06e-20" locus_tag="C7535_RS10005" class="clusterblast-orf" id="dummy-1_h1_8_2"  />
</g>
<g id="a1_003"  >
<polygon points="215,90 264,90 269,85 264,80 215,80 215,90 " style="fill:#b115d8; stroke-width:1; stroke:black; " description="&lt;b&gt;C7535_RS10010&lt;/b&gt;&lt;br&gt;SDR family oxidoreductase&lt;br&gt;Location: 51076 - 51891&lt;br&gt;&lt;br&gt;&lt;b&gt;BlastP hit with ctg15_62&lt;/b&gt;&lt;br&gt;Percentage identity: 97&lt;br&gt;Percentage coverage: 100&lt;br&gt;BLAST bit score: 519&lt;br&gt;E-value: 1.98e-187" locus_tag="C7535_RS10010" class="clusterblast-orf" id="dummy-1_h1_8_3"  />
</g>
<g id="a1_004"  >
<polygon points="281,90 289,90 294,85 289,80 281,80 281,90 " style="fill:#d88a15; stroke-width:1; stroke:black; " description="&lt;b&gt;C7535_RS10015&lt;/b&gt;&lt;br&gt;carbon storage regulator CsrA&lt;br&gt;Location: 52074 - 52277&lt;br&gt;&lt;br&gt;&lt;b&gt;BlastP hit with ctg15_63&lt;/b&gt;&lt;br&gt;Percentage identity: 86&lt;br&gt;Percentage coverage: 99&lt;br&gt;BLAST bit score: 113&lt;br&gt;E-value: 3.52e-33" locus_tag="C7535_RS10015" class="clusterblast-orf" id="dummy-1_h1_8_4"  />
</g>
<g id="a1_005"  >
<polygon points="295,85 300,80 310,80 310,90 300,90 295,85 " style="fill:#15d863; stroke-width:1; stroke:black; " description="&lt;b&gt;C7535_RS10020&lt;/b&gt;&lt;br&gt;YheU family protein&lt;br&gt;Location: 52285 - 52512&lt;br&gt;&lt;br&gt;&lt;b&gt;BlastP hit with ctg15_64&lt;/b&gt;&lt;br&gt;Percentage identity: 100&lt;br&gt;Percentage coverage: 100&lt;br&gt;BLAST bit score: 154&lt;br&gt;E-value: 2.87e-49" locus_tag="C7535_RS10020" class="clusterblast-orf" id="dummy-1_h1_8_5"  />
</g>
<g id="a1_006"  >
<polygon points="315,85 320,80 393,80 393,90 320,90 315,85 " style="fill:#3c15d8; stroke-width:1; stroke:black; " description="&lt;b&gt;C7535_RS10025&lt;/b&gt;&lt;br&gt;osmoprotectant NAGGN system M42 family peptidase&lt;br&gt;Location: 52587 - 53771&lt;br&gt;&lt;br&gt;&lt;b&gt;BlastP hit with ctg15_65&lt;/b&gt;&lt;br&gt;Percentage identity: 99&lt;br&gt;Percentage coverage: 100&lt;br&gt;BLAST bit score: 787&lt;br&gt;E-value: 3.24e-289" locus_tag="C7535_RS10025" class="clusterblast-orf" id="dummy-1_h1_8_6"  />
</g>
<g id="a1_007"  >
<polygon points="399,85 404,80 514,80 514,90 404,90 399,85 " style="fill:#d8158a; stroke-width:1; stroke:black; " description="&lt;b&gt;C7535_RS10030&lt;/b&gt;&lt;br&gt;N-acetylglutaminylglutamine synthetase&lt;br&gt;Location: 53854 - 55599&lt;br&gt;&lt;br&gt;&lt;b&gt;BlastP hit with ctg15_66&lt;/b&gt;&lt;br&gt;Percentage identity: 97&lt;br&gt;Percentage coverage: 100&lt;br&gt;BLAST bit score: 1137&lt;br&gt;E-value: 0.0" locus_tag="C7535_RS10030" class="clusterblast-orf" id="dummy-1_h1_8_7"  />
</g>
<g id="a1_008"  >
<polygon points="514,85 519,80 631,80 631,90 519,90 514,85 " style="fill:#b1d815; stroke-width:1; stroke:black; " description="&lt;b&gt;C7535_RS10035&lt;/b&gt;&lt;br&gt;N-acetylglutaminylglutamine amidotransferase&lt;br&gt;Location: 55603 - 57375&lt;br&gt;&lt;br&gt;&lt;b&gt;BlastP hit with ctg15_67&lt;/b&gt;&lt;br&gt;Percentage identity: 98&lt;br&gt;Percentage coverage: 100&lt;br&gt;BLAST bit score: 1179&lt;br&gt;E-value: 0.0" locus_tag="C7535_RS10035" class="clusterblast-orf" id="dummy-1_h1_8_8"  />
</g>
<g id="a1_009"  >
<polygon points="640,85 645,80 772,80 772,90 645,90 640,85 " style="fill:#15d8d8; stroke-width:1; stroke:black; " description="&lt;b&gt;C7535_RS10040&lt;/b&gt;&lt;br&gt;bifunctional tRNA (5-methylaminomethyl-2-thiouridine)(34)-methyltransferase MnmD/FAD-dependent 5-carboxymethylaminomethyl-2-thiouridine(34) oxidoreductase MnmC&lt;br&gt;Location: 57511 - 59514&lt;br&gt;&lt;br&gt;&lt;b&gt;BlastP hit with ctg15_68&lt;/b&gt;&lt;br&gt;Percentage identity: 90&lt;br&gt;Percentage coverage: 99&lt;br&gt;BLAST bit score: 1201&lt;br&gt;E-value: 0.0" locus_tag="C7535_RS10040" class="clusterblast-orf" id="dummy-1_h1_8_9"  />
</g>
</svg>
