<svg xmlns="http://www.w3.org/2000/svg" xmlns:xlink="http://www.w3.org/1999/xlink" version="1.1" x="0" y="0" height="230" width="800" viewBox="0 0 800 230" preserveAspectRatio="none"  >
<g label="Query sequence" class="clusterblast-cluster"  >
<text x="5" y="20" class="clusterblast-acc"  >
Query sequence</text>
<line x1="10" y1="35" x2="778.0" y2="35" style="stroke-width:1; stroke:grey; "  />
<polygon points="7,35 12,30 23,30 23,40 12,40 7,35 " style="fill:#d81515; stroke-width:1; stroke:black; " description="&lt;b&gt;ctg2_429&lt;/b&gt;&lt;br&gt;ctg2 429&lt;br&gt;Location: 511426 - 512350" locus_tag="ctg2_429" class="clusterblast-orf" id="dummy-3_q0_0_all"  />
<polygon points="29,40 36,40 41,35 36,30 29,30 29,40 " style="fill:#6ed815; stroke-width:1; stroke:black; " description="&lt;b&gt;ctg2_430&lt;/b&gt;&lt;br&gt;ctg2 430&lt;br&gt;Location: 512667 - 513339" locus_tag="ctg2_430" class="clusterblast-orf" id="dummy-3_q1_0_all"  />
<polygon points="41,40 55,40 60,35 55,30 41,30 41,40 " style="fill:#15c8d8; stroke-width:1; stroke:black; " description="&lt;b&gt;ctg2_431&lt;/b&gt;&lt;br&gt;ctg2 431&lt;br&gt;Location: 513341 - 514442" locus_tag="ctg2_431" class="clusterblast-orf" id="dummy-3_q2_0_all"  />
<polygon points="61,35 66,30 86,30 86,40 66,40 61,35 " style="fill:#9015d8; stroke-width:1; stroke:black; " description="&lt;b&gt;ctg2_432&lt;/b&gt;&lt;br&gt;ctg2 432&lt;br&gt;Location: 514492 - 515935" locus_tag="ctg2_432" class="clusterblast-orf" id="dummy-3_q3_0_all"  />
<polygon points="88,35 93,30 107,30 107,40 93,40 88,35 " style="fill:#d83715; stroke-width:1; stroke:black; " description="&lt;b&gt;ctg2_433&lt;/b&gt;&lt;br&gt;ctg2 433&lt;br&gt;Location: 516085 - 517150" locus_tag="ctg2_433" class="clusterblast-orf" id="dummy-3_q4_0_all"  />
<polygon points="107,35 112,30 150,30 150,40 112,40 107,35 " style="fill:#4dd815; stroke-width:1; stroke:black; " description="&lt;b&gt;ctg2_434&lt;/b&gt;&lt;br&gt;ctg2 434&lt;br&gt;Location: 517139 - 519635" locus_tag="ctg2_434" class="clusterblast-orf" id="dummy-3_q5_0_all"  />
<polygon points="149,35 154,30 161,30 161,40 154,40 149,35 " style="fill:#15a6d8; stroke-width:1; stroke:black; " description="&lt;b&gt;ctg2_435&lt;/b&gt;&lt;br&gt;ctg2 435&lt;br&gt;Location: 519603 - 520272" locus_tag="ctg2_435" class="clusterblast-orf" id="dummy-3_q6_0_all"  />
<polygon points="166,40 173,40 178,35 173,30 166,30 166,40 " style="fill:#b115d8; stroke-width:1; stroke:black; " description="&lt;b&gt;ctg2_436&lt;/b&gt;&lt;br&gt;ctg2 436&lt;br&gt;Location: 520546 - 521221" locus_tag="ctg2_436" class="clusterblast-orf" id="dummy-3_q7_0_all"  />
<polygon points="181,40 205,40 210,35 205,30 181,30 181,40 " style="fill:#d85815; stroke-width:1; stroke:black; " description="&lt;b&gt;ctg2_437&lt;/b&gt;&lt;br&gt;ctg2 437&lt;br&gt;Location: 521410 - 523066" locus_tag="ctg2_437" class="clusterblast-orf" id="dummy-3_q8_0_all"  />
<polygon points="210,40 232,40 237,35 232,30 210,30 210,40 " style="fill:#d85815; stroke-width:1; stroke:black; " description="&lt;b&gt;ctg2_438&lt;/b&gt;&lt;br&gt;ctg2 438&lt;br&gt;Location: 523092 - 524610" locus_tag="ctg2_438" class="clusterblast-orf" id="dummy-3_q9_0_all"  />
<polygon points="237,35 242,30 249,30 249,40 242,40 237,35 " style="fill:#2bd815; stroke-width:1; stroke:black; " description="&lt;b&gt;ctg2_439&lt;/b&gt;&lt;br&gt;ctg2 439&lt;br&gt;Location: 524631 - 525345" locus_tag="ctg2_439" class="clusterblast-orf" id="dummy-3_q10_0_all"  />
<polygon points="249,35 254,30 262,30 262,40 254,40 249,35 " style="fill:#1585d8; stroke-width:1; stroke:black; " description="&lt;b&gt;ctg2_440&lt;/b&gt;&lt;br&gt;ctg2 440&lt;br&gt;Location: 525344 - 526097" locus_tag="ctg2_440" class="clusterblast-orf" id="dummy-3_q11_0_all"  />
<polygon points="263,35 268,30 283,30 283,40 268,40 263,35 " style="fill:#d315d8; stroke-width:1; stroke:black; " description="&lt;b&gt;ctg2_441&lt;/b&gt;&lt;br&gt;ctg2 441&lt;br&gt;Location: 526105 - 527299" locus_tag="ctg2_441" class="clusterblast-orf" id="dummy-3_q12_0_all"  />
<polygon points="283,35 288,30 297,30 297,40 288,40 283,35 " style="fill:#d87915; stroke-width:1; stroke:black; " description="&lt;b&gt;ctg2_442&lt;/b&gt;&lt;br&gt;ctg2 442&lt;br&gt;Location: 527285 - 528092" locus_tag="ctg2_442" class="clusterblast-orf" id="dummy-3_q13_0_all"  />
<polygon points="297,35 302,30 312,30 312,40 302,40 297,35 " style="fill:#15d820; stroke-width:1; stroke:black; " description="&lt;b&gt;ctg2_443&lt;/b&gt;&lt;br&gt;ctg2 443&lt;br&gt;Location: 528088 - 528946" locus_tag="ctg2_443" class="clusterblast-orf" id="dummy-3_q14_0_all"  />
<polygon points="314,35 317,30 317,40 314,35 " style="fill:#1563d8; stroke-width:1; stroke:black; " description="&lt;b&gt;ctg2_444&lt;/b&gt;&lt;br&gt;ctg2 444&lt;br&gt;Location: 529040 - 529208" locus_tag="ctg2_444" class="clusterblast-orf" id="dummy-3_q15_0_all"  />
<polygon points="335,35 340,30 444,30 444,40 340,40 335,35 " style="fill:#d815bc; stroke-width:1; stroke:black; " description="&lt;b&gt;ctg2_445&lt;/b&gt;&lt;br&gt;ctg2 445&lt;br&gt;Location: 530264 - 536534" locus_tag="ctg2_445" class="clusterblast-orf" id="dummy-3_q16_0_all"  />
<polygon points="453,40 461,40 466,35 461,30 453,30 453,40 " style="fill:#d89b15; stroke-width:1; stroke:black; " description="&lt;b&gt;ctg2_446&lt;/b&gt;&lt;br&gt;ctg2 446&lt;br&gt;Location: 537021 - 537816" locus_tag="ctg2_446" class="clusterblast-orf" id="dummy-3_q17_0_all"  />
<polygon points="466,40 487,40 492,35 487,30 466,30 466,40 " style="fill:#15d842; stroke-width:1; stroke:black; " description="&lt;b&gt;ctg2_447&lt;/b&gt;&lt;br&gt;ctg2 447&lt;br&gt;Location: 537815 - 539285" locus_tag="ctg2_447" class="clusterblast-orf" id="dummy-3_q18_0_all"  />
<polygon points="491,35 496,30 506,30 506,40 496,40 491,35 " style="fill:#1542d8; stroke-width:1; stroke:black; " description="&lt;b&gt;ctg2_448&lt;/b&gt;&lt;br&gt;ctg2 448&lt;br&gt;Location: 539211 - 540072" locus_tag="ctg2_448" class="clusterblast-orf" id="dummy-3_q19_0_all"  />
<polygon points="508,40 514,40 519,35 514,30 508,30 508,40 " style="fill:#d8159b; stroke-width:1; stroke:black; " description="&lt;b&gt;ctg2_449&lt;/b&gt;&lt;br&gt;ctg2 449&lt;br&gt;Location: 540200 - 540866" locus_tag="ctg2_449" class="clusterblast-orf" id="dummy-3_q20_0_all"  />
<polygon points="519,40 528,40 533,35 528,30 519,30 519,40 " style="fill:#d8159b; stroke-width:1; stroke:black; " description="&lt;b&gt;ctg2_450&lt;/b&gt;&lt;br&gt;ctg2 450&lt;br&gt;Location: 540862 - 541633" locus_tag="ctg2_450" class="clusterblast-orf" id="dummy-3_q21_0_all"  />
<polygon points="533,40 553,40 558,35 553,30 533,30 533,40 " style="fill:#d8bc15; stroke-width:1; stroke:black; " description="&lt;b&gt;ctg2_451&lt;/b&gt;&lt;br&gt;ctg2 451&lt;br&gt;Location: 541638 - 543099" locus_tag="ctg2_451" class="clusterblast-orf" id="dummy-3_q22_0_all"  />
<polygon points="559,40 569,40 574,35 569,30 559,30 559,40 " style="fill:#15d863; stroke-width:1; stroke:black; " description="&lt;b&gt;ctg2_452&lt;/b&gt;&lt;br&gt;ctg2 452&lt;br&gt;Location: 543145 - 544003" locus_tag="ctg2_452" class="clusterblast-orf" id="dummy-3_q23_0_all"  />
<polygon points="574,40 576,40 581,35 576,30 574,30 574,40 " style="fill:#1520d8; stroke-width:1; stroke:black; " description="&lt;b&gt;ctg2_453&lt;/b&gt;&lt;br&gt;ctg2 453&lt;br&gt;Location: 544018 - 544411" locus_tag="ctg2_453" class="clusterblast-orf" id="dummy-3_q24_0_all"  />
<polygon points="582,40 600,40 605,35 600,30 582,30 582,40 " style="fill:#d81579; stroke-width:1; stroke:black; " description="&lt;b&gt;ctg2_454&lt;/b&gt;&lt;br&gt;ctg2 454&lt;br&gt;Location: 544456 - 545761" locus_tag="ctg2_454" class="clusterblast-orf" id="dummy-3_q25_0_all"  />
<polygon points="605,40 614,40 619,35 614,30 605,30 605,40 " style="fill:#d3d815; stroke-width:1; stroke:black; " description="&lt;b&gt;ctg2_455&lt;/b&gt;&lt;br&gt;ctg2 455&lt;br&gt;Location: 545772 - 546576" locus_tag="ctg2_455" class="clusterblast-orf" id="dummy-3_q26_0_all"  />
<polygon points="619,40 628,40 633,35 628,30 619,30 619,40 " style="fill:#15d885; stroke-width:1; stroke:black; " description="&lt;b&gt;ctg2_456&lt;/b&gt;&lt;br&gt;ctg2 456&lt;br&gt;Location: 546591 - 547392" locus_tag="ctg2_456" class="clusterblast-orf" id="dummy-3_q27_0_all"  />
<polygon points="635,35 640,30 642,30 642,40 640,40 635,35 " style="fill:#2b15d8; stroke-width:1; stroke:black; " description="&lt;b&gt;ctg2_457&lt;/b&gt;&lt;br&gt;ctg2 457&lt;br&gt;Location: 547517 - 547940" locus_tag="ctg2_457" class="clusterblast-orf" id="dummy-3_q28_0_all"  />
<polygon points="646,40 664,40 669,35 664,30 646,30 646,40 " style="fill:#d81558; stroke-width:1; stroke:black; " description="&lt;b&gt;ctg2_458&lt;/b&gt;&lt;br&gt;ctg2 458&lt;br&gt;Location: 548148 - 549447" locus_tag="ctg2_458" class="clusterblast-orf" id="dummy-3_q29_0_all"  />
<polygon points="669,40 671,40 676,35 671,30 669,30 669,40 " style="fill:#b1d815; stroke-width:1; stroke:black; " description="&lt;b&gt;ctg2_459&lt;/b&gt;&lt;br&gt;ctg2 459&lt;br&gt;Location: 549476 - 549842" locus_tag="ctg2_459" class="clusterblast-orf" id="dummy-3_q30_0_all"  />
<polygon points="676,40 685,40 690,35 685,30 676,30 676,40 " style="fill:#15d8a6; stroke-width:1; stroke:black; " description="&lt;b&gt;ctg2_460&lt;/b&gt;&lt;br&gt;ctg2 460&lt;br&gt;Location: 549854 - 550676" locus_tag="ctg2_460" class="clusterblast-orf" id="dummy-3_q31_0_all"  />
<polygon points="690,40 699,40 704,35 699,30 690,30 690,40 " style="fill:#4d15d8; stroke-width:1; stroke:black; " description="&lt;b&gt;ctg2_461&lt;/b&gt;&lt;br&gt;ctg2 461&lt;br&gt;Location: 550668 - 551472" locus_tag="ctg2_461" class="clusterblast-orf" id="dummy-3_q32_0_all"  />
<polygon points="704,40 712,40 717,35 712,30 704,30 704,40 " style="fill:#d81537; stroke-width:1; stroke:black; " description="&lt;b&gt;ctg2_462&lt;/b&gt;&lt;br&gt;ctg2 462&lt;br&gt;Location: 551461 - 552217" locus_tag="ctg2_462" class="clusterblast-orf" id="dummy-3_q33_0_all"  />
<polygon points="718,35 723,30 734,30 734,40 723,40 718,35 " style="fill:#90d815; stroke-width:1; stroke:black; " description="&lt;b&gt;ctg2_463&lt;/b&gt;&lt;br&gt;ctg2 463&lt;br&gt;Location: 552278 - 553220" locus_tag="ctg2_463" class="clusterblast-orf" id="dummy-3_q34_0_all"  />
<polygon points="736,35 741,30 747,30 747,40 741,40 736,35 " style="fill:#15d8c8; stroke-width:1; stroke:black; " description="&lt;b&gt;ctg2_464&lt;/b&gt;&lt;br&gt;ctg2 464&lt;br&gt;Location: 553331 - 553928" locus_tag="ctg2_464" class="clusterblast-orf" id="dummy-3_q35_0_all"  />
<polygon points="746,35 751,30 772,30 772,40 751,40 746,35 " style="fill:#6e15d8; stroke-width:1; stroke:black; " description="&lt;b&gt;ctg2_465&lt;/b&gt;&lt;br&gt;ctg2 465&lt;br&gt;Location: 553890 - 555390" locus_tag="ctg2_465" class="clusterblast-orf" id="dummy-3_q36_0_all"  />
</g>
<g label="NZ_CP027755" description="NZ_CP027755 (4041030-4085866): Pseudomonas synxantha strain 2-79 chromosome, ... (87% of genes show similarity), NRPS" class="clusterblast-cluster"  >
<text x="5" y="70" class="clusterblast-acc"  >
<a xlink:href="https://antismash-db.secondarymetabolites.org/area.html?record=NZ_CP027755&amp;start=4041030&amp;end=4085866" target="_blank">NZ_CP027755 (4041030-4085866)</a>: Pseudomonas synxantha strain 2-79 chromosome, ... (87% of genes show similarity), NRPS</text>
<line x1="10" y1="85" x2="778.0" y2="85" style="stroke-width:1; stroke:grey; "  />
</g>
<g id="a3_000"  >
<polygon points="0,90 7,90 12,85 7,80 0,80 0,90 " style="fill:#6ed815; stroke-width:1; stroke:black; " description="&lt;b&gt;C4K02_RS18195&lt;/b&gt;&lt;br&gt;sterol desaturase family protein&lt;br&gt;Location: 4041031 - 4041732&lt;br&gt;&lt;br&gt;&lt;b&gt;BlastP hit with ctg2_430&lt;/b&gt;&lt;br&gt;Percentage identity: 89&lt;br&gt;Percentage coverage: 98&lt;br&gt;BLAST bit score: 431&lt;br&gt;E-value: 8.17e-154" locus_tag="C4K02_RS18195" class="clusterblast-orf" id="dummy-3_h3_3_0"  />
</g>
<g id="a3_001"  >
<polygon points="12,85 17,80 37,80 37,90 17,90 12,85 " style="fill:#9015d8; stroke-width:1; stroke:black; " description="&lt;b&gt;C4K02_RS18200&lt;/b&gt;&lt;br&gt;hypothetical protein&lt;br&gt;Location: 4041738 - 4043183&lt;br&gt;&lt;br&gt;&lt;b&gt;BlastP hit with ctg2_432&lt;/b&gt;&lt;br&gt;Percentage identity: 65&lt;br&gt;Percentage coverage: 100&lt;br&gt;BLAST bit score: 639&lt;br&gt;E-value: 5e-228" locus_tag="C4K02_RS18200" class="clusterblast-orf" id="dummy-3_h3_3_1"  />
</g>
<g id="a3_002"  >
<polygon points="40,85 45,80 46,80 46,90 45,90 40,85 " style="fill:white; stroke-width:1; stroke:black; " description="&lt;b&gt;C4K02_RS18205&lt;/b&gt;&lt;br&gt;hypothetical protein&lt;br&gt;Location: 4043335 - 4043691" locus_tag="C4K02_RS18205" class="clusterblast-orf" id="dummy-3_h3_3_2"  />
</g>
<g id="a3_003"  >
<polygon points="46,85 51,80 63,80 63,90 51,90 46,85 " style="fill:white; stroke-width:1; stroke:black; " description="&lt;b&gt;C4K02_RS18210&lt;/b&gt;&lt;br&gt;hypothetical protein&lt;br&gt;Location: 4043694 - 4044686" locus_tag="C4K02_RS18210" class="clusterblast-orf" id="dummy-3_h3_3_3"  />
</g>
<g id="a3_004"  >
<polygon points="66,85 71,80 84,80 84,90 71,90 66,85 " style="fill:#d83715; stroke-width:1; stroke:black; " description="&lt;b&gt;C4K02_RS18215&lt;/b&gt;&lt;br&gt;iron ABC transporter permease&lt;br&gt;Location: 4044826 - 4045890&lt;br&gt;&lt;br&gt;&lt;b&gt;BlastP hit with ctg2_433&lt;/b&gt;&lt;br&gt;Percentage identity: 89&lt;br&gt;Percentage coverage: 100&lt;br&gt;BLAST bit score: 671&lt;br&gt;E-value: 1.54e-244" locus_tag="C4K02_RS18215" class="clusterblast-orf" id="dummy-3_h3_3_4"  />
</g>
<g id="a3_005"  >
<polygon points="84,85 89,80 127,80 127,90 89,90 84,85 " style="fill:#4dd815; stroke-width:1; stroke:black; " description="&lt;b&gt;C4K02_RS18220&lt;/b&gt;&lt;br&gt;FtsX-like permease family protein&lt;br&gt;Location: 4045880 - 4048342&lt;br&gt;&lt;br&gt;&lt;b&gt;BlastP hit with ctg2_434&lt;/b&gt;&lt;br&gt;Percentage identity: 90&lt;br&gt;Percentage coverage: 99&lt;br&gt;BLAST bit score: 1437&lt;br&gt;E-value: 0.0" locus_tag="C4K02_RS18220" class="clusterblast-orf" id="dummy-3_h3_3_5"  />
</g>
<g id="a3_006"  >
<polygon points="127,85 132,80 138,80 138,90 132,90 127,85 " style="fill:#15a6d8; stroke-width:1; stroke:black; " description="&lt;b&gt;C4K02_RS18225&lt;/b&gt;&lt;br&gt;ABC transporter ATP-binding protein&lt;br&gt;Location: 4048344 - 4049012&lt;br&gt;&lt;br&gt;&lt;b&gt;BlastP hit with ctg2_435&lt;/b&gt;&lt;br&gt;Percentage identity: 92&lt;br&gt;Percentage coverage: 100&lt;br&gt;BLAST bit score: 397&lt;br&gt;E-value: 1.37e-140" locus_tag="C4K02_RS18225" class="clusterblast-orf" id="dummy-3_h3_3_6"  />
</g>
<g id="a3_007"  >
<polygon points="143,90 150,90 155,85 150,80 143,80 143,90 " style="fill:#b115d8; stroke-width:1; stroke:black; " description="&lt;b&gt;C4K02_RS18230&lt;/b&gt;&lt;br&gt;histidine phosphatase family protein&lt;br&gt;Location: 4049286 - 4049966&lt;br&gt;&lt;br&gt;&lt;b&gt;BlastP hit with ctg2_436&lt;/b&gt;&lt;br&gt;Percentage identity: 56&lt;br&gt;Percentage coverage: 101&lt;br&gt;BLAST bit score: 268&lt;br&gt;E-value: 1.69e-89" locus_tag="C4K02_RS18230" class="clusterblast-orf" id="dummy-3_h3_3_7"  />
</g>
<g id="a3_008"  >
<polygon points="158,90 182,90 187,85 182,80 158,80 158,90 " style="fill:#d85815; stroke-width:1; stroke:black; " description="&lt;b&gt;C4K02_RS18235&lt;/b&gt;&lt;br&gt;lipid IV(A) 4-amino-4-deoxy-L-arabinosyltransferase&lt;br&gt;Location: 4050149 - 4051804&lt;br&gt;&lt;br&gt;&lt;b&gt;BlastP hit with ctg2_437&lt;/b&gt;&lt;br&gt;Percentage identity: 86&lt;br&gt;Percentage coverage: 100&lt;br&gt;BLAST bit score: 965&lt;br&gt;E-value: 0.0" locus_tag="C4K02_RS18235" class="clusterblast-orf" id="dummy-3_h3_3_8"  />
</g>
<g id="a3_009"  >
<polygon points="187,90 209,90 214,85 209,80 187,80 187,90 " style="fill:#d85815; stroke-width:1; stroke:black; " description="&lt;b&gt;C4K02_RS18240&lt;/b&gt;&lt;br&gt;glycosyltransferase family 39 protein&lt;br&gt;Location: 4051831 - 4053348&lt;br&gt;&lt;br&gt;&lt;b&gt;BlastP hit with ctg2_438&lt;/b&gt;&lt;br&gt;Percentage identity: 89&lt;br&gt;Percentage coverage: 99&lt;br&gt;BLAST bit score: 949&lt;br&gt;E-value: 0.0" locus_tag="C4K02_RS18240" class="clusterblast-orf" id="dummy-3_h3_3_9"  />
</g>
<g id="a3_0010"  >
<polygon points="220,90 220,90 225,85 220,80 220,80 220,90 " style="fill:white; stroke-width:1; stroke:black; " description="&lt;b&gt;C4K02_RS18245&lt;/b&gt;&lt;br&gt;hypothetical protein&lt;br&gt;Location: 4053681 - 4053989" locus_tag="C4K02_RS18245" class="clusterblast-orf" id="dummy-3_h3_3_10"  />
</g>
<g id="a3_0011"  >
<polygon points="227,85 232,80 240,80 240,90 232,90 227,85 " style="fill:#2bd815; stroke-width:1; stroke:black; " description="&lt;b&gt;C4K02_RS18250&lt;/b&gt;&lt;br&gt;AAA family ATPase&lt;br&gt;Location: 4054128 - 4054841&lt;br&gt;&lt;br&gt;&lt;b&gt;BlastP hit with ctg2_439&lt;/b&gt;&lt;br&gt;Percentage identity: 83&lt;br&gt;Percentage coverage: 99&lt;br&gt;BLAST bit score: 404&lt;br&gt;E-value: 3.83e-143" locus_tag="C4K02_RS18250" class="clusterblast-orf" id="dummy-3_h3_3_11"  />
</g>
<g id="a3_0012"  >
<polygon points="240,85 245,80 253,80 253,90 245,90 240,85 " style="fill:#1585d8; stroke-width:1; stroke:black; " description="&lt;b&gt;C4K02_RS18255&lt;/b&gt;&lt;br&gt;hypothetical protein&lt;br&gt;Location: 4054841 - 4055584&lt;br&gt;&lt;br&gt;&lt;b&gt;BlastP hit with ctg2_440&lt;/b&gt;&lt;br&gt;Percentage identity: 64&lt;br&gt;Percentage coverage: 100&lt;br&gt;BLAST bit score: 285&lt;br&gt;E-value: 1.34e-95" locus_tag="C4K02_RS18255" class="clusterblast-orf" id="dummy-3_h3_3_12"  />
</g>
<g id="a3_0013"  >
<polygon points="253,85 258,80 274,80 274,90 258,90 253,85 " style="fill:#d315d8; stroke-width:1; stroke:black; " description="&lt;b&gt;C4K02_RS18260&lt;/b&gt;&lt;br&gt;YcaO-like family protein&lt;br&gt;Location: 4055593 - 4056795&lt;br&gt;&lt;br&gt;&lt;b&gt;BlastP hit with ctg2_441&lt;/b&gt;&lt;br&gt;Percentage identity: 66&lt;br&gt;Percentage coverage: 101&lt;br&gt;BLAST bit score: 538&lt;br&gt;E-value: 1.08e-190" locus_tag="C4K02_RS18260" class="clusterblast-orf" id="dummy-3_h3_3_13"  />
</g>
<g id="a3_0014"  >
<polygon points="274,85 279,80 288,80 288,90 279,90 274,85 " style="fill:#d87915; stroke-width:1; stroke:black; " description="&lt;b&gt;C4K02_RS18265&lt;/b&gt;&lt;br&gt;SagB/ThcOx family dehydrogenase&lt;br&gt;Location: 4056782 - 4057587&lt;br&gt;&lt;br&gt;&lt;b&gt;BlastP hit with ctg2_442&lt;/b&gt;&lt;br&gt;Percentage identity: 62&lt;br&gt;Percentage coverage: 41&lt;br&gt;BLAST bit score: 150&lt;br&gt;E-value: 2.95e-43" locus_tag="C4K02_RS18265" class="clusterblast-orf" id="dummy-3_h3_3_14"  />
</g>
<g id="a3_0015"  >
<polygon points="287,85 292,80 302,80 302,90 292,90 287,85 " style="fill:#15d820; stroke-width:1; stroke:black; " description="&lt;b&gt;C4K02_RS18270&lt;/b&gt;&lt;br&gt;McbB family protein&lt;br&gt;Location: 4057584 - 4058441&lt;br&gt;&lt;br&gt;&lt;b&gt;BlastP hit with ctg2_443&lt;/b&gt;&lt;br&gt;Percentage identity: 65&lt;br&gt;Percentage coverage: 99&lt;br&gt;BLAST bit score: 389&lt;br&gt;E-value: 2.44e-135" locus_tag="C4K02_RS18270" class="clusterblast-orf" id="dummy-3_h3_3_15"  />
</g>
<g id="a3_0016"  >
<polygon points="303,85 307,80 307,90 303,85 " style="fill:white; stroke-width:1; stroke:black; " description="&lt;b&gt;C4K02_RS18275&lt;/b&gt;&lt;br&gt;hypothetical protein&lt;br&gt;Location: 4058501 - 4058719" locus_tag="C4K02_RS18275" class="clusterblast-orf" id="dummy-3_h3_3_16"  />
</g>
<g id="a3_0017"  >
<polygon points="313,90 317,85 313,80 313,90 " style="fill:white; stroke-width:1; stroke:black; " description="&lt;b&gt;C4K02_RS18280&lt;/b&gt;&lt;br&gt;hypothetical protein&lt;br&gt;Location: 4059065 - 4059271" locus_tag="C4K02_RS18280" class="clusterblast-orf" id="dummy-3_h3_3_17"  />
</g>
<g id="a3_0018"  >
<polygon points="334,85 339,80 443,80 443,90 339,90 334,85 " style="fill:#d815bc; stroke-width:1; stroke:black; " description="&lt;b&gt;C4K02_RS18285&lt;/b&gt;&lt;br&gt;non-ribosomal peptide synthetase&lt;br&gt;Location: 4060281 - 4066550&lt;br&gt;&lt;br&gt;&lt;b&gt;BlastP hit with ctg2_445&lt;/b&gt;&lt;br&gt;Percentage identity: 83&lt;br&gt;Percentage coverage: 100&lt;br&gt;BLAST bit score: 3495&lt;br&gt;E-value: 0.0" locus_tag="C4K02_RS18285" class="clusterblast-orf" id="dummy-3_h3_3_18"  />
</g>
<g id="a3_0019"  >
<polygon points="452,90 461,90 466,85 461,80 452,80 452,90 " style="fill:#d89b15; stroke-width:1; stroke:black; " description="&lt;b&gt;C4K02_RS18290&lt;/b&gt;&lt;br&gt;helix-turn-helix transcriptional regulator&lt;br&gt;Location: 4067040 - 4067834&lt;br&gt;&lt;br&gt;&lt;b&gt;BlastP hit with ctg2_446&lt;/b&gt;&lt;br&gt;Percentage identity: 88&lt;br&gt;Percentage coverage: 100&lt;br&gt;BLAST bit score: 454&lt;br&gt;E-value: 6.6e-162" locus_tag="C4K02_RS18290" class="clusterblast-orf" id="dummy-3_h3_3_19"  />
</g>
<g id="a3_0020"  >
<polygon points="466,90 486,90 491,85 486,80 466,80 466,90 " style="fill:#15d842; stroke-width:1; stroke:black; " description="&lt;b&gt;C4K02_RS18295&lt;/b&gt;&lt;br&gt;efflux transporter outer membrane subunit&lt;br&gt;Location: 4067834 - 4069303&lt;br&gt;&lt;br&gt;&lt;b&gt;BlastP hit with ctg2_447&lt;/b&gt;&lt;br&gt;Percentage identity: 92&lt;br&gt;Percentage coverage: 100&lt;br&gt;BLAST bit score: 860&lt;br&gt;E-value: 5.94e-315" locus_tag="C4K02_RS18295" class="clusterblast-orf" id="dummy-3_h3_3_20"  />
</g>
<g id="a3_0021"  >
<polygon points="490,85 495,80 505,80 505,90 495,90 490,85 " style="fill:#1542d8; stroke-width:1; stroke:black; " description="&lt;b&gt;C4K02_RS18300&lt;/b&gt;&lt;br&gt;4-hydroxyphenylacetate catabolism regulatory protein HpaA&lt;br&gt;Location: 4069230 - 4070090&lt;br&gt;&lt;br&gt;&lt;b&gt;BlastP hit with ctg2_448&lt;/b&gt;&lt;br&gt;Percentage identity: 89&lt;br&gt;Percentage coverage: 100&lt;br&gt;BLAST bit score: 510&lt;br&gt;E-value: 2.86e-183" locus_tag="C4K02_RS18300" class="clusterblast-orf" id="dummy-3_h3_3_21"  />
</g>
<g id="a3_0022"  >
<polygon points="507,90 514,90 519,85 514,80 507,80 507,90 " style="fill:#d8159b; stroke-width:1; stroke:black; " description="&lt;b&gt;C4K02_RS18305&lt;/b&gt;&lt;br&gt;fumarylacetoacetate hydrolase family protein&lt;br&gt;Location: 4070219 - 4070884&lt;br&gt;&lt;br&gt;&lt;b&gt;BlastP hit with ctg2_449&lt;/b&gt;&lt;br&gt;Percentage identity: 89&lt;br&gt;Percentage coverage: 99&lt;br&gt;BLAST bit score: 400&lt;br&gt;E-value: 5.39e-142&lt;br&gt;&lt;br&gt;&lt;b&gt;BlastP hit with ctg2_450&lt;/b&gt;&lt;br&gt;Percentage identity: 41&lt;br&gt;Percentage coverage: 83&lt;br&gt;BLAST bit score: 154&lt;br&gt;E-value: 1.83e-44" locus_tag="C4K02_RS18305" class="clusterblast-orf" id="dummy-3_h3_3_22"  />
</g>
<g id="a3_0023"  >
<polygon points="519,90 527,90 532,85 527,80 519,80 519,90 " style="fill:#d8159b; stroke-width:1; stroke:black; " description="&lt;b&gt;C4K02_RS18310&lt;/b&gt;&lt;br&gt;fumarylacetoacetate hydrolase family protein&lt;br&gt;Location: 4070881 - 4071651&lt;br&gt;&lt;br&gt;&lt;b&gt;BlastP hit with ctg2_449&lt;/b&gt;&lt;br&gt;Percentage identity: 40&lt;br&gt;Percentage coverage: 96&lt;br&gt;BLAST bit score: 146&lt;br&gt;E-value: 1.56e-41&lt;br&gt;&lt;br&gt;&lt;b&gt;BlastP hit with ctg2_450&lt;/b&gt;&lt;br&gt;Percentage identity: 91&lt;br&gt;Percentage coverage: 100&lt;br&gt;BLAST bit score: 478&lt;br&gt;E-value: 8.97e-172" locus_tag="C4K02_RS18310" class="clusterblast-orf" id="dummy-3_h3_3_23"  />
</g>
<g id="a3_0024"  >
<polygon points="532,90 553,90 558,85 553,80 532,80 532,90 " style="fill:#d8bc15; stroke-width:1; stroke:black; " description="&lt;b&gt;C4K02_RS18315&lt;/b&gt;&lt;br&gt;5-carboxymethyl-2-hydroxymuconate semialdehyde dehydrogenase&lt;br&gt;Location: 4071657 - 4073117&lt;br&gt;&lt;br&gt;&lt;b&gt;BlastP hit with ctg2_451&lt;/b&gt;&lt;br&gt;Percentage identity: 97&lt;br&gt;Percentage coverage: 100&lt;br&gt;BLAST bit score: 950&lt;br&gt;E-value: 0.0" locus_tag="C4K02_RS18315" class="clusterblast-orf" id="dummy-3_h3_3_24"  />
</g>
<g id="a3_0025"  >
<polygon points="560,90 570,90 575,85 570,80 560,80 560,90 " style="fill:#15d863; stroke-width:1; stroke:black; " description="&lt;b&gt;C4K02_RS18320&lt;/b&gt;&lt;br&gt;3,4-dihydroxyphenylacetate 2,3-dioxygenase&lt;br&gt;Location: 4073270 - 4074127&lt;br&gt;&lt;br&gt;&lt;b&gt;BlastP hit with ctg2_452&lt;/b&gt;&lt;br&gt;Percentage identity: 94&lt;br&gt;Percentage coverage: 100&lt;br&gt;BLAST bit score: 570&lt;br&gt;E-value: 6.26e-207" locus_tag="C4K02_RS18320" class="clusterblast-orf" id="dummy-3_h3_3_25"  />
</g>
<g id="a3_0026"  >
<polygon points="576,90 577,90 582,85 577,80 576,80 576,90 " style="fill:#1520d8; stroke-width:1; stroke:black; " description="&lt;b&gt;C4K02_RS18325&lt;/b&gt;&lt;br&gt;5-carboxymethyl-2-hydroxymuconate Delta-isomerase&lt;br&gt;Location: 4074143 - 4074535&lt;br&gt;&lt;br&gt;&lt;b&gt;BlastP hit with ctg2_453&lt;/b&gt;&lt;br&gt;Percentage identity: 94&lt;br&gt;Percentage coverage: 99&lt;br&gt;BLAST bit score: 252&lt;br&gt;E-value: 1.98e-86" locus_tag="C4K02_RS18325" class="clusterblast-orf" id="dummy-3_h3_3_26"  />
</g>
<g id="a3_0027"  >
<polygon points="585,90 602,90 607,85 602,80 585,80 585,90 " style="fill:#d81579; stroke-width:1; stroke:black; " description="&lt;b&gt;C4K02_RS18330&lt;/b&gt;&lt;br&gt;MFS transporter&lt;br&gt;Location: 4074668 - 4075972&lt;br&gt;&lt;br&gt;&lt;b&gt;BlastP hit with ctg2_454&lt;/b&gt;&lt;br&gt;Percentage identity: 95&lt;br&gt;Percentage coverage: 100&lt;br&gt;BLAST bit score: 818&lt;br&gt;E-value: 4.74e-300" locus_tag="C4K02_RS18330" class="clusterblast-orf" id="dummy-3_h3_3_27"  />
</g>
<g id="a3_0028"  >
<polygon points="608,90 617,90 622,85 617,80 608,80 608,90 " style="fill:#d3d815; stroke-width:1; stroke:black; " description="&lt;b&gt;C4K02_RS18335&lt;/b&gt;&lt;br&gt;2-oxo-hepta-3-ene-1,7-dioic acid hydratase&lt;br&gt;Location: 4075984 - 4076787&lt;br&gt;&lt;br&gt;&lt;b&gt;BlastP hit with ctg2_455&lt;/b&gt;&lt;br&gt;Percentage identity: 95&lt;br&gt;Percentage coverage: 100&lt;br&gt;BLAST bit score: 513&lt;br&gt;E-value: 5.68e-185" locus_tag="C4K02_RS18335" class="clusterblast-orf" id="dummy-3_h3_3_28"  />
</g>
<g id="a3_0029"  >
<polygon points="622,90 631,90 636,85 631,80 622,80 622,90 " style="fill:#15d885; stroke-width:1; stroke:black; " description="&lt;b&gt;C4K02_RS18340&lt;/b&gt;&lt;br&gt;4-hydroxy-2-oxoheptanedioate aldolase&lt;br&gt;Location: 4076804 - 4077604&lt;br&gt;&lt;br&gt;&lt;b&gt;BlastP hit with ctg2_456&lt;/b&gt;&lt;br&gt;Percentage identity: 87&lt;br&gt;Percentage coverage: 100&lt;br&gt;BLAST bit score: 450&lt;br&gt;E-value: 2.57e-160" locus_tag="C4K02_RS18340" class="clusterblast-orf" id="dummy-3_h3_3_29"  />
</g>
<g id="a3_0030"  >
<polygon points="640,85 645,80 647,80 647,90 645,90 640,85 " style="fill:#2b15d8; stroke-width:1; stroke:black; " description="&lt;b&gt;C4K02_RS18345&lt;/b&gt;&lt;br&gt;homoprotocatechuate degradation operon regulator HpaR&lt;br&gt;Location: 4077836 - 4078258&lt;br&gt;&lt;br&gt;&lt;b&gt;BlastP hit with ctg2_457&lt;/b&gt;&lt;br&gt;Percentage identity: 95&lt;br&gt;Percentage coverage: 100&lt;br&gt;BLAST bit score: 261&lt;br&gt;E-value: 1.84e-89" locus_tag="C4K02_RS18345" class="clusterblast-orf" id="dummy-3_h3_3_30"  />
</g>
<g id="a3_0031"  >
<polygon points="651,90 668,90 673,85 668,80 651,80 651,90 " style="fill:#d81558; stroke-width:1; stroke:black; " description="&lt;b&gt;C4K02_RS18350&lt;/b&gt;&lt;br&gt;FAD-binding oxidoreductase&lt;br&gt;Location: 4078466 - 4079764&lt;br&gt;&lt;br&gt;&lt;b&gt;BlastP hit with ctg2_458&lt;/b&gt;&lt;br&gt;Percentage identity: 98&lt;br&gt;Percentage coverage: 100&lt;br&gt;BLAST bit score: 868&lt;br&gt;E-value: 0.0" locus_tag="C4K02_RS18350" class="clusterblast-orf" id="dummy-3_h3_3_31"  />
</g>
<g id="a3_0032"  >
<polygon points="676,90 677,90 682,85 677,80 676,80 676,90 " style="fill:#b1d815; stroke-width:1; stroke:black; " description="&lt;b&gt;C4K02_RS18355&lt;/b&gt;&lt;br&gt;DUF861 domain-containing protein&lt;br&gt;Location: 4079903 - 4080268&lt;br&gt;&lt;br&gt;&lt;b&gt;BlastP hit with ctg2_459&lt;/b&gt;&lt;br&gt;Percentage identity: 95&lt;br&gt;Percentage coverage: 99&lt;br&gt;BLAST bit score: 236&lt;br&gt;E-value: 2.58e-80" locus_tag="C4K02_RS18355" class="clusterblast-orf" id="dummy-3_h3_3_32"  />
</g>
<g id="a3_0033"  >
<polygon points="682,90 692,90 697,85 692,80 682,80 682,90 " style="fill:#15d8a6; stroke-width:1; stroke:black; " description="&lt;b&gt;C4K02_RS18360&lt;/b&gt;&lt;br&gt;molybdenum cofactor biosynthesis F family protein&lt;br&gt;Location: 4080281 - 4081102&lt;br&gt;&lt;br&gt;&lt;b&gt;BlastP hit with ctg2_460&lt;/b&gt;&lt;br&gt;Percentage identity: 92&lt;br&gt;Percentage coverage: 100&lt;br&gt;BLAST bit score: 540&lt;br&gt;E-value: 9.53e-196" locus_tag="C4K02_RS18360" class="clusterblast-orf" id="dummy-3_h3_3_33"  />
</g>
<g id="a3_0034"  >
<polygon points="696,90 705,90 710,85 705,80 696,80 696,90 " style="fill:#4d15d8; stroke-width:1; stroke:black; " description="&lt;b&gt;C4K02_RS18365&lt;/b&gt;&lt;br&gt;SDR family oxidoreductase&lt;br&gt;Location: 4081095 - 4081898&lt;br&gt;&lt;br&gt;&lt;b&gt;BlastP hit with ctg2_461&lt;/b&gt;&lt;br&gt;Percentage identity: 91&lt;br&gt;Percentage coverage: 100&lt;br&gt;BLAST bit score: 495&lt;br&gt;E-value: 5.83e-178" locus_tag="C4K02_RS18365" class="clusterblast-orf" id="dummy-3_h3_3_34"  />
</g>
<g id="a3_0035"  >
<polygon points="710,90 718,90 723,85 718,80 710,80 710,90 " style="fill:#d81537; stroke-width:1; stroke:black; " description="&lt;b&gt;C4K02_RS18370&lt;/b&gt;&lt;br&gt;SDR family oxidoreductase&lt;br&gt;Location: 4081888 - 4082643&lt;br&gt;&lt;br&gt;&lt;b&gt;BlastP hit with ctg2_462&lt;/b&gt;&lt;br&gt;Percentage identity: 90&lt;br&gt;Percentage coverage: 100&lt;br&gt;BLAST bit score: 427&lt;br&gt;E-value: 1.14e-151" locus_tag="C4K02_RS18370" class="clusterblast-orf" id="dummy-3_h3_3_35"  />
</g>
<g id="a3_0036"  >
<polygon points="726,85 731,80 742,80 742,90 731,90 726,85 " style="fill:#90d815; stroke-width:1; stroke:black; " description="&lt;b&gt;C4K02_RS18375&lt;/b&gt;&lt;br&gt;transcriptional regulator FeaR&lt;br&gt;Location: 4082782 - 4083723&lt;br&gt;&lt;br&gt;&lt;b&gt;BlastP hit with ctg2_463&lt;/b&gt;&lt;br&gt;Percentage identity: 92&lt;br&gt;Percentage coverage: 100&lt;br&gt;BLAST bit score: 574&lt;br&gt;E-value: 1.15e-207" locus_tag="C4K02_RS18375" class="clusterblast-orf" id="dummy-3_h3_3_36"  />
</g>
<g id="a3_0037"  >
<polygon points="744,85 749,80 754,80 754,90 749,90 744,85 " style="fill:#15d8c8; stroke-width:1; stroke:black; " description="&lt;b&gt;C4K02_RS18380&lt;/b&gt;&lt;br&gt;DUF3156 family protein&lt;br&gt;Location: 4083838 - 4084404&lt;br&gt;&lt;br&gt;&lt;b&gt;BlastP hit with ctg2_464&lt;/b&gt;&lt;br&gt;Percentage identity: 71&lt;br&gt;Percentage coverage: 100&lt;br&gt;BLAST bit score: 270&lt;br&gt;E-value: 1.48e-91" locus_tag="C4K02_RS18380" class="clusterblast-orf" id="dummy-3_h3_3_37"  />
</g>
<g id="a3_0038"  >
<polygon points="753,85 758,80 779,80 779,90 758,90 753,85 " style="fill:#6e15d8; stroke-width:1; stroke:black; " description="&lt;b&gt;C4K02_RS18385&lt;/b&gt;&lt;br&gt;APC family permease&lt;br&gt;Location: 4084367 - 4085866&lt;br&gt;&lt;br&gt;&lt;b&gt;BlastP hit with ctg2_465&lt;/b&gt;&lt;br&gt;Percentage identity: 96&lt;br&gt;Percentage coverage: 100&lt;br&gt;BLAST bit score: 933&lt;br&gt;E-value: 0.0" locus_tag="C4K02_RS18385" class="clusterblast-orf" id="dummy-3_h3_3_38"  />
</g>
</svg>
