<svg xmlns="http://www.w3.org/2000/svg" xmlns:xlink="http://www.w3.org/1999/xlink" version="1.1" x="0" y="0" height="230" width="800" viewBox="0 0 800 230" preserveAspectRatio="none"  >
<g label="Query sequence" class="clusterblast-cluster"  >
<text x="5" y="20" class="clusterblast-acc"  >
Query sequence</text>
<line x1="10" y1="35" x2="778.0" y2="35" style="stroke-width:1; stroke:grey; "  />
<polygon points="0,40 2,35 0,30 0,40 " style="fill:white; stroke-width:1; stroke:black; " description="&lt;b&gt;ctg2_30&lt;/b&gt;&lt;br&gt;ctg2 30&lt;br&gt;Location: 35016 - 35277" locus_tag="ctg2_30" class="clusterblast-orf" id="dummy-1_q0_0_all"  />
<polygon points="3,35 8,30 12,30 12,40 8,40 3,35 " style="fill:white; stroke-width:1; stroke:black; " description="&lt;b&gt;ctg2_31&lt;/b&gt;&lt;br&gt;ctg2 31&lt;br&gt;Location: 35352 - 36177" locus_tag="ctg2_31" class="clusterblast-orf" id="dummy-1_q1_0_all"  />
<polygon points="12,35 17,30 27,30 27,40 17,40 12,35 " style="fill:white; stroke-width:1; stroke:black; " description="&lt;b&gt;ctg2_32&lt;/b&gt;&lt;br&gt;ctg2 32&lt;br&gt;Location: 36173 - 37697" locus_tag="ctg2_32" class="clusterblast-orf" id="dummy-1_q2_0_all"  />
<polygon points="27,35 32,30 38,30 38,40 32,40 27,35 " style="fill:white; stroke-width:1; stroke:black; " description="&lt;b&gt;ctg2_33&lt;/b&gt;&lt;br&gt;ctg2 33&lt;br&gt;Location: 37693 - 38677" locus_tag="ctg2_33" class="clusterblast-orf" id="dummy-1_q3_0_all"  />
<polygon points="40,40 42,35 40,30 40,40 " style="fill:white; stroke-width:1; stroke:black; " description="&lt;b&gt;ctg2_34&lt;/b&gt;&lt;br&gt;ctg2 34&lt;br&gt;Location: 38946 - 39123" locus_tag="ctg2_34" class="clusterblast-orf" id="dummy-1_q4_0_all"  />
<polygon points="44,40 57,40 62,35 57,30 44,30 44,40 " style="fill:white; stroke-width:1; stroke:black; " description="&lt;b&gt;ctg2_35&lt;/b&gt;&lt;br&gt;ctg2 35&lt;br&gt;Location: 39287 - 41030" locus_tag="ctg2_35" class="clusterblast-orf" id="dummy-1_q5_0_all"  />
<polygon points="63,40 81,40 86,35 81,30 63,30 63,40 " style="fill:#d81515; stroke-width:1; stroke:black; " description="&lt;b&gt;ctg2_36&lt;/b&gt;&lt;br&gt;ctg2 36&lt;br&gt;Location: 41156 - 43385" locus_tag="ctg2_36" class="clusterblast-orf" id="dummy-1_q6_0_all"  />
<polygon points="88,40 90,35 88,30 88,40 " style="fill:white; stroke-width:1; stroke:black; " description="&lt;b&gt;ctg2_37&lt;/b&gt;&lt;br&gt;ctg2 37&lt;br&gt;Location: 43527 - 43749" locus_tag="ctg2_37" class="clusterblast-orf" id="dummy-1_q7_0_all"  />
<polygon points="91,35 96,30 96,30 96,40 96,40 91,35 " style="fill:white; stroke-width:1; stroke:black; " description="&lt;b&gt;ctg2_38&lt;/b&gt;&lt;br&gt;ctg2 38&lt;br&gt;Location: 43850 - 44342" locus_tag="ctg2_38" class="clusterblast-orf" id="dummy-1_q8_0_all"  />
<polygon points="98,35 103,30 109,30 109,40 103,40 98,35 " style="fill:white; stroke-width:1; stroke:black; " description="&lt;b&gt;ctg2_39&lt;/b&gt;&lt;br&gt;ctg2 39&lt;br&gt;Location: 44504 - 45611" locus_tag="ctg2_39" class="clusterblast-orf" id="dummy-1_q9_0_all"  />
<polygon points="110,35 113,30 113,40 110,35 " style="fill:#65d815; stroke-width:1; stroke:black; " description="&lt;b&gt;ctg2_40&lt;/b&gt;&lt;br&gt;ctg2 40&lt;br&gt;Location: 45626 - 45962" locus_tag="ctg2_40" class="clusterblast-orf" id="dummy-1_q10_0_all"  />
<polygon points="114,35 119,30 121,30 121,40 119,40 114,35 " style="fill:#15b6d8; stroke-width:1; stroke:black; " description="&lt;b&gt;ctg2_41&lt;/b&gt;&lt;br&gt;ctg2 41&lt;br&gt;Location: 46014 - 46731" locus_tag="ctg2_41" class="clusterblast-orf" id="dummy-1_q11_0_all"  />
<polygon points="123,35 128,30 151,30 151,40 128,40 123,35 " style="fill:#8815d8; stroke-width:1; stroke:black; " description="&lt;b&gt;ctg2_42&lt;/b&gt;&lt;br&gt;ctg2 42&lt;br&gt;Location: 46937 - 49595" locus_tag="ctg2_42" class="clusterblast-orf" id="dummy-1_q12_0_all"  />
<polygon points="151,35 156,30 159,30 159,40 156,40 151,35 " style="fill:#d83815; stroke-width:1; stroke:black; " description="&lt;b&gt;ctg2_43&lt;/b&gt;&lt;br&gt;ctg2 43&lt;br&gt;Location: 49608 - 50439" locus_tag="ctg2_43" class="clusterblast-orf" id="dummy-1_q13_0_all"  />
<polygon points="159,35 162,30 162,40 159,35 " style="fill:#43d815; stroke-width:1; stroke:black; " description="&lt;b&gt;ctg2_44&lt;/b&gt;&lt;br&gt;ctg2 44&lt;br&gt;Location: 50435 - 50696" locus_tag="ctg2_44" class="clusterblast-orf" id="dummy-1_q14_0_all"  />
<polygon points="162,35 167,30 171,30 171,40 167,40 162,35 " style="fill:#1593d8; stroke-width:1; stroke:black; " description="&lt;b&gt;ctg2_45&lt;/b&gt;&lt;br&gt;ctg2 45&lt;br&gt;Location: 50710 - 51580" locus_tag="ctg2_45" class="clusterblast-orf" id="dummy-1_q15_0_all"  />
<polygon points="171,35 176,30 181,30 181,40 176,40 171,35 " style="fill:#aa15d8; stroke-width:1; stroke:black; " description="&lt;b&gt;ctg2_46&lt;/b&gt;&lt;br&gt;ctg2 46&lt;br&gt;Location: 51576 - 52548" locus_tag="ctg2_46" class="clusterblast-orf" id="dummy-1_q16_0_all"  />
<polygon points="181,35 186,30 190,30 190,40 186,40 181,35 " style="fill:#d85a15; stroke-width:1; stroke:black; " description="&lt;b&gt;ctg2_47&lt;/b&gt;&lt;br&gt;ctg2 47&lt;br&gt;Location: 52547 - 53438" locus_tag="ctg2_47" class="clusterblast-orf" id="dummy-1_q17_0_all"  />
<polygon points="192,40 197,40 202,35 197,30 192,30 192,40 " style="fill:#21d815; stroke-width:1; stroke:black; " description="&lt;b&gt;ctg2_48&lt;/b&gt;&lt;br&gt;ctg2 48&lt;br&gt;Location: 53581 - 54529" locus_tag="ctg2_48" class="clusterblast-orf" id="dummy-1_q18_0_all"  />
<polygon points="202,35 207,30 219,30 219,40 207,40 202,35 " style="fill:#1571d8; stroke-width:1; stroke:black; " description="&lt;b&gt;ctg2_49&lt;/b&gt;&lt;br&gt;ctg2 49&lt;br&gt;Location: 54521 - 56141" locus_tag="ctg2_49" class="clusterblast-orf" id="dummy-1_q19_0_all"  />
<polygon points="220,40 229,40 234,35 229,30 220,30 220,40 " style="fill:#cd15d8; stroke-width:1; stroke:black; " description="&lt;b&gt;ctg2_50&lt;/b&gt;&lt;br&gt;ctg2 50&lt;br&gt;Location: 56283 - 57633" locus_tag="ctg2_50" class="clusterblast-orf" id="dummy-1_q20_0_all"  />
<polygon points="234,40 242,40 247,35 242,30 234,30 234,40 " style="fill:#d87c15; stroke-width:1; stroke:black; " description="&lt;b&gt;ctg2_51&lt;/b&gt;&lt;br&gt;ctg2 51&lt;br&gt;Location: 57651 - 58932" locus_tag="ctg2_51" class="clusterblast-orf" id="dummy-1_q21_0_all"  />
<polygon points="248,40 252,40 257,35 252,30 248,30 248,40 " style="fill:#15d82c; stroke-width:1; stroke:black; " description="&lt;b&gt;ctg2_52&lt;/b&gt;&lt;br&gt;ctg2 52&lt;br&gt;Location: 58965 - 59838" locus_tag="ctg2_52" class="clusterblast-orf" id="dummy-1_q22_0_all"  />
<polygon points="259,35 264,30 268,30 268,40 264,40 259,35 " style="fill:#154fd8; stroke-width:1; stroke:black; " description="&lt;b&gt;ctg2_53&lt;/b&gt;&lt;br&gt;ctg2 53&lt;br&gt;Location: 60076 - 60904" locus_tag="ctg2_53" class="clusterblast-orf" id="dummy-1_q23_0_all"  />
<polygon points="270,40 282,40 287,35 282,30 270,30 270,40 " style="fill:#d815c1; stroke-width:1; stroke:black; " description="&lt;b&gt;ctg2_54&lt;/b&gt;&lt;br&gt;ctg2 54&lt;br&gt;Location: 61102 - 62755" locus_tag="ctg2_54" class="clusterblast-orf" id="dummy-1_q24_0_all"  />
<polygon points="288,40 308,40 313,35 308,30 288,30 288,40 " style="fill:#d81515; stroke-width:1; stroke:black; " description="&lt;b&gt;ctg2_55&lt;/b&gt;&lt;br&gt;ctg2 55&lt;br&gt;Location: 62864 - 65306" locus_tag="ctg2_55" class="clusterblast-orf" id="dummy-1_q25_0_all"  />
<polygon points="315,35 320,30 438,30 438,40 320,40 315,35 " style="fill:#d89f15; stroke-width:1; stroke:black; " description="&lt;b&gt;ctg2_56&lt;/b&gt;&lt;br&gt;ctg2 56&lt;br&gt;Location: 65450 - 77303" locus_tag="ctg2_56" class="clusterblast-orf" id="dummy-1_q26_0_all"  />
<polygon points="438,35 443,30 583,30 583,40 443,40 438,35 " style="fill:#d89f15; stroke-width:1; stroke:black; " description="&lt;b&gt;ctg2_57&lt;/b&gt;&lt;br&gt;ctg2 57&lt;br&gt;Location: 77306 - 91361" locus_tag="ctg2_57" class="clusterblast-orf" id="dummy-1_q27_0_all"  />
<polygon points="586,40 588,35 586,30 586,40 " style="fill:#15d84f; stroke-width:1; stroke:black; " description="&lt;b&gt;ctg2_58&lt;/b&gt;&lt;br&gt;ctg2 58&lt;br&gt;Location: 91569 - 91821" locus_tag="ctg2_58" class="clusterblast-orf" id="dummy-1_q28_0_all"  />
<polygon points="588,40 592,35 588,30 588,40 " style="fill:#152cd8; stroke-width:1; stroke:black; " description="&lt;b&gt;ctg2_59&lt;/b&gt;&lt;br&gt;ctg2 59&lt;br&gt;Location: 91817 - 92183" locus_tag="ctg2_59" class="clusterblast-orf" id="dummy-1_q29_0_all"  />
<polygon points="592,35 597,30 604,30 604,40 597,40 592,35 " style="fill:#d8159f; stroke-width:1; stroke:black; " description="&lt;b&gt;ctg2_60&lt;/b&gt;&lt;br&gt;ctg2 60&lt;br&gt;Location: 92165 - 93356" locus_tag="ctg2_60" class="clusterblast-orf" id="dummy-1_q30_0_all"  />
<polygon points="606,40 607,40 612,35 607,30 606,30 606,40 " style="fill:#d8c115; stroke-width:1; stroke:black; " description="&lt;b&gt;ctg2_61&lt;/b&gt;&lt;br&gt;ctg2 61&lt;br&gt;Location: 93498 - 94092" locus_tag="ctg2_61" class="clusterblast-orf" id="dummy-1_q31_0_all"  />
<polygon points="612,35 617,30 626,30 626,40 617,40 612,35 " style="fill:#15d871; stroke-width:1; stroke:black; " description="&lt;b&gt;ctg2_62&lt;/b&gt;&lt;br&gt;ctg2 62&lt;br&gt;Location: 94075 - 95431" locus_tag="ctg2_62" class="clusterblast-orf" id="dummy-1_q32_0_all"  />
<polygon points="626,35 631,30 632,30 632,40 631,40 626,35 " style="fill:#2115d8; stroke-width:1; stroke:black; " description="&lt;b&gt;ctg2_63&lt;/b&gt;&lt;br&gt;ctg2 63&lt;br&gt;Location: 95456 - 96029" locus_tag="ctg2_63" class="clusterblast-orf" id="dummy-1_q33_0_all"  />
<polygon points="633,35 638,30 642,30 642,40 638,40 633,35 " style="fill:#d8157c; stroke-width:1; stroke:black; " description="&lt;b&gt;ctg2_64&lt;/b&gt;&lt;br&gt;ctg2 64&lt;br&gt;Location: 96096 - 97053" locus_tag="ctg2_64" class="clusterblast-orf" id="dummy-1_q34_0_all"  />
<polygon points="642,35 647,30 653,30 653,40 647,40 642,35 " style="fill:#cdd815; stroke-width:1; stroke:black; " description="&lt;b&gt;ctg2_65&lt;/b&gt;&lt;br&gt;ctg2 65&lt;br&gt;Location: 97056 - 98100" locus_tag="ctg2_65" class="clusterblast-orf" id="dummy-1_q35_0_all"  />
<polygon points="653,35 657,30 657,40 653,35 " style="fill:#15d893; stroke-width:1; stroke:black; " description="&lt;b&gt;ctg2_66&lt;/b&gt;&lt;br&gt;ctg2 66&lt;br&gt;Location: 98115 - 98463" locus_tag="ctg2_66" class="clusterblast-orf" id="dummy-1_q36_0_all"  />
<polygon points="657,35 662,30 670,30 670,40 662,40 657,35 " style="fill:#4315d8; stroke-width:1; stroke:black; " description="&lt;b&gt;ctg2_67&lt;/b&gt;&lt;br&gt;ctg2 67&lt;br&gt;Location: 98465 - 99695" locus_tag="ctg2_67" class="clusterblast-orf" id="dummy-1_q37_0_all"  />
<polygon points="672,35 677,30 679,30 679,40 677,40 672,35 " style="fill:#d8155a; stroke-width:1; stroke:black; " description="&lt;b&gt;ctg2_68&lt;/b&gt;&lt;br&gt;ctg2 68&lt;br&gt;Location: 99914 - 100604" locus_tag="ctg2_68" class="clusterblast-orf" id="dummy-1_q38_0_all"  />
<polygon points="679,35 684,30 687,30 687,40 684,40 679,35 " style="fill:#aad815; stroke-width:1; stroke:black; " description="&lt;b&gt;ctg2_69&lt;/b&gt;&lt;br&gt;ctg2 69&lt;br&gt;Location: 100614 - 101373" locus_tag="ctg2_69" class="clusterblast-orf" id="dummy-1_q39_0_all"  />
<polygon points="687,35 692,30 699,30 699,40 692,40 687,35 " style="fill:#15d8b6; stroke-width:1; stroke:black; " description="&lt;b&gt;ctg2_70&lt;/b&gt;&lt;br&gt;ctg2 70&lt;br&gt;Location: 101369 - 102530" locus_tag="ctg2_70" class="clusterblast-orf" id="dummy-1_q40_0_all"  />
<polygon points="699,35 704,30 709,30 709,40 704,40 699,35 " style="fill:#6615d8; stroke-width:1; stroke:black; " description="&lt;b&gt;ctg2_71&lt;/b&gt;&lt;br&gt;ctg2 71&lt;br&gt;Location: 102540 - 103458" locus_tag="ctg2_71" class="clusterblast-orf" id="dummy-1_q41_0_all"  />
<polygon points="711,35 716,30 723,30 723,40 716,40 711,35 " style="fill:#d81538; stroke-width:1; stroke:black; " description="&lt;b&gt;ctg2_72&lt;/b&gt;&lt;br&gt;ctg2 72&lt;br&gt;Location: 103636 - 104845" locus_tag="ctg2_72" class="clusterblast-orf" id="dummy-1_q42_0_all"  />
<polygon points="726,40 756,40 761,35 756,30 726,30 726,40 " style="fill:#88d815; stroke-width:1; stroke:black; " description="&lt;b&gt;ctg2_73&lt;/b&gt;&lt;br&gt;ctg2 73&lt;br&gt;Location: 105147 - 108531" locus_tag="ctg2_73" class="clusterblast-orf" id="dummy-1_q43_0_all"  />
<polygon points="761,40 763,40 768,35 763,30 761,30 761,40 " style="fill:#88d815; stroke-width:1; stroke:black; " description="&lt;b&gt;ctg2_74&lt;/b&gt;&lt;br&gt;ctg2 74&lt;br&gt;Location: 108505 - 109171" locus_tag="ctg2_74" class="clusterblast-orf" id="dummy-1_q44_0_all"  />
<polygon points="770,35 775,30 780,30 780,40 775,40 770,35 " style="fill:#15d8d8; stroke-width:1; stroke:black; " description="&lt;b&gt;ctg2_75&lt;/b&gt;&lt;br&gt;ctg2 75&lt;br&gt;Location: 109374 - 110289" locus_tag="ctg2_75" class="clusterblast-orf" id="dummy-1_q45_0_all"  />
</g>
<g label="NZ_PYAQ01000012" description="NZ_PYAQ01000012 (137100-203005): Pseudomonas sp. R9.37 NODE 12 length 237118 ... (100% of genes show similarity), NRPS" class="clusterblast-cluster"  >
<text x="5" y="70" class="clusterblast-acc"  >
<a xlink:href="https://antismash-db.secondarymetabolites.org/area.html?record=NZ_PYAQ01000012&amp;start=137100&amp;end=203005" target="_blank">NZ_PYAQ01000012 (137100-203005)</a>: Pseudomonas sp. R9.37 NODE 12 length 237118 ... (100% of genes show similarity), NRPS</text>
<line x1="10" y1="85" x2="778.0" y2="85" style="stroke-width:1; stroke:grey; "  />
</g>
<g id="a1_000"  >
<polygon points="60,85 65,80 88,80 88,90 65,90 60,85 " style="fill:#8815d8; stroke-width:1; stroke:black; " description="&lt;b&gt;C7U57_RS24650&lt;/b&gt;&lt;br&gt;aminopeptidase N&lt;br&gt;Location: 202826 - 200169&lt;br&gt;&lt;br&gt;&lt;b&gt;BlastP hit with ctg2_42&lt;/b&gt;&lt;br&gt;Percentage identity: 96&lt;br&gt;Percentage coverage: 100&lt;br&gt;BLAST bit score: 1697&lt;br&gt;E-value: 0.0" locus_tag="C7U57_RS24650" class="clusterblast-orf" id="dummy-1_h1_6_0"  />
</g>
<g id="a1_001"  >
<polygon points="88,85 93,80 97,80 97,90 93,90 88,85 " style="fill:#d83815; stroke-width:1; stroke:black; " description="&lt;b&gt;C7U57_RS24645&lt;/b&gt;&lt;br&gt;DUF2797 domain-containing protein&lt;br&gt;Location: 200155 - 199325&lt;br&gt;&lt;br&gt;&lt;b&gt;BlastP hit with ctg2_43&lt;/b&gt;&lt;br&gt;Percentage identity: 95&lt;br&gt;Percentage coverage: 100&lt;br&gt;BLAST bit score: 538&lt;br&gt;E-value: 1.4e-194" locus_tag="C7U57_RS24645" class="clusterblast-orf" id="dummy-1_h1_6_1"  />
</g>
<g id="a1_002"  >
<polygon points="97,85 99,80 99,90 97,85 " style="fill:#43d815; stroke-width:1; stroke:black; " description="&lt;b&gt;C7U57_RS24640&lt;/b&gt;&lt;br&gt;DUF1315 family protein&lt;br&gt;Location: 199328 - 199068&lt;br&gt;&lt;br&gt;&lt;b&gt;BlastP hit with ctg2_44&lt;/b&gt;&lt;br&gt;Percentage identity: 100&lt;br&gt;Percentage coverage: 100&lt;br&gt;BLAST bit score: 175&lt;br&gt;E-value: 3.62e-57" locus_tag="C7U57_RS24640" class="clusterblast-orf" id="dummy-1_h1_6_2"  />
</g>
<g id="a1_003"  >
<polygon points="99,85 104,80 108,80 108,90 104,90 99,85 " style="fill:#1593d8; stroke-width:1; stroke:black; " description="&lt;b&gt;C7U57_RS24635&lt;/b&gt;&lt;br&gt;rhomboid family intramembrane serine protease&lt;br&gt;Location: 199053 - 198184&lt;br&gt;&lt;br&gt;&lt;b&gt;BlastP hit with ctg2_45&lt;/b&gt;&lt;br&gt;Percentage identity: 94&lt;br&gt;Percentage coverage: 100&lt;br&gt;BLAST bit score: 550&lt;br&gt;E-value: 5.08e-199" locus_tag="C7U57_RS24635" class="clusterblast-orf" id="dummy-1_h1_6_3"  />
</g>
<g id="a1_004"  >
<polygon points="108,85 113,80 118,80 118,90 113,90 108,85 " style="fill:#aa15d8; stroke-width:1; stroke:black; " description="&lt;b&gt;C7U57_RS24630&lt;/b&gt;&lt;br&gt;metallophosphoesterase&lt;br&gt;Location: 198187 - 197213&lt;br&gt;&lt;br&gt;&lt;b&gt;BlastP hit with ctg2_46&lt;/b&gt;&lt;br&gt;Percentage identity: 97&lt;br&gt;Percentage coverage: 100&lt;br&gt;BLAST bit score: 682&lt;br&gt;E-value: 3.8e-250" locus_tag="C7U57_RS24630" class="clusterblast-orf" id="dummy-1_h1_6_4"  />
</g>
<g id="a1_005"  >
<polygon points="118,85 123,80 128,80 128,90 123,90 118,85 " style="fill:#d85a15; stroke-width:1; stroke:black; " description="&lt;b&gt;C7U57_RS24625&lt;/b&gt;&lt;br&gt;NAD(+) kinase&lt;br&gt;Location: 197216 - 196326&lt;br&gt;&lt;br&gt;&lt;b&gt;BlastP hit with ctg2_47&lt;/b&gt;&lt;br&gt;Percentage identity: 100&lt;br&gt;Percentage coverage: 100&lt;br&gt;BLAST bit score: 599&lt;br&gt;E-value: 3.81e-218" locus_tag="C7U57_RS24625" class="clusterblast-orf" id="dummy-1_h1_6_5"  />
</g>
<g id="a1_006"  >
<polygon points="129,90 134,90 139,85 134,80 129,80 129,90 " style="fill:#21d815; stroke-width:1; stroke:black; " description="&lt;b&gt;C7U57_RS24620&lt;/b&gt;&lt;br&gt;DUF1853 family protein&lt;br&gt;Location: 196181 - 195234&lt;br&gt;&lt;br&gt;&lt;b&gt;BlastP hit with ctg2_48&lt;/b&gt;&lt;br&gt;Percentage identity: 94&lt;br&gt;Percentage coverage: 100&lt;br&gt;BLAST bit score: 635&lt;br&gt;E-value: 1.11e-231" locus_tag="C7U57_RS24620" class="clusterblast-orf" id="dummy-1_h1_6_6"  />
</g>
<g id="a1_007"  >
<polygon points="139,85 144,80 156,80 156,90 144,90 139,85 " style="fill:#1571d8; stroke-width:1; stroke:black; " description="&lt;b&gt;C7U57_RS24615&lt;/b&gt;&lt;br&gt;PvdJ/PvdD/PvdP-like protein&lt;br&gt;Location: 195241 - 193622&lt;br&gt;&lt;br&gt;&lt;b&gt;BlastP hit with ctg2_49&lt;/b&gt;&lt;br&gt;Percentage identity: 94&lt;br&gt;Percentage coverage: 100&lt;br&gt;BLAST bit score: 1084&lt;br&gt;E-value: 0.0" locus_tag="C7U57_RS24615" class="clusterblast-orf" id="dummy-1_h1_6_7"  />
</g>
<g id="a1_008"  >
<polygon points="157,90 166,90 171,85 166,80 157,80 157,90 " style="fill:#cd15d8; stroke-width:1; stroke:black; " description="&lt;b&gt;C7U57_RS24610&lt;/b&gt;&lt;br&gt;pyoverdine-tailoring dipeptidase-like protein PvdM&lt;br&gt;Location: 193479 - 192130&lt;br&gt;&lt;br&gt;&lt;b&gt;BlastP hit with ctg2_50&lt;/b&gt;&lt;br&gt;Percentage identity: 96&lt;br&gt;Percentage coverage: 100&lt;br&gt;BLAST bit score: 885&lt;br&gt;E-value: 0.0" locus_tag="C7U57_RS24610" class="clusterblast-orf" id="dummy-1_h1_6_8"  />
</g>
<g id="a1_009"  >
<polygon points="171,90 180,90 185,85 180,80 171,80 171,90 " style="fill:#d87c15; stroke-width:1; stroke:black; " description="&lt;b&gt;C7U57_RS24605&lt;/b&gt;&lt;br&gt;aminotransferase class V-fold PLP-dependent enzyme&lt;br&gt;Location: 192111 - 190831&lt;br&gt;&lt;br&gt;&lt;b&gt;BlastP hit with ctg2_51&lt;/b&gt;&lt;br&gt;Percentage identity: 89&lt;br&gt;Percentage coverage: 100&lt;br&gt;BLAST bit score: 779&lt;br&gt;E-value: 6.25e-285" locus_tag="C7U57_RS24605" class="clusterblast-orf" id="dummy-1_h1_6_9"  />
</g>
<g id="a1_0010"  >
<polygon points="185,90 189,90 194,85 189,80 185,80 185,90 " style="fill:#15d82c; stroke-width:1; stroke:black; " description="&lt;b&gt;C7U57_RS24600&lt;/b&gt;&lt;br&gt;formylglycine-generating enzyme family protein&lt;br&gt;Location: 190801 - 189929&lt;br&gt;&lt;br&gt;&lt;b&gt;BlastP hit with ctg2_52&lt;/b&gt;&lt;br&gt;Percentage identity: 94&lt;br&gt;Percentage coverage: 100&lt;br&gt;BLAST bit score: 579&lt;br&gt;E-value: 1.43e-210" locus_tag="C7U57_RS24600" class="clusterblast-orf" id="dummy-1_h1_6_10"  />
</g>
<g id="a1_0011"  >
<polygon points="209,85 214,80 217,80 217,90 214,90 209,85 " style="fill:#154fd8; stroke-width:1; stroke:black; " description="&lt;b&gt;C7U57_RS24595&lt;/b&gt;&lt;br&gt;N(5)-hydroxyornithine transformylase PvdF&lt;br&gt;Location: 188505 - 187678&lt;br&gt;&lt;br&gt;&lt;b&gt;BlastP hit with ctg2_53&lt;/b&gt;&lt;br&gt;Percentage identity: 98&lt;br&gt;Percentage coverage: 100&lt;br&gt;BLAST bit score: 553&lt;br&gt;E-value: 7.29e-201" locus_tag="C7U57_RS24595" class="clusterblast-orf" id="dummy-1_h1_6_11"  />
</g>
<g id="a1_0012"  >
<polygon points="219,90 231,90 236,85 231,80 219,80 219,90 " style="fill:#d815c1; stroke-width:1; stroke:black; " description="&lt;b&gt;C7U57_RS24590&lt;/b&gt;&lt;br&gt;cyclic peptide export ABC transporter&lt;br&gt;Location: 187478 - 185826&lt;br&gt;&lt;br&gt;&lt;b&gt;BlastP hit with ctg2_54&lt;/b&gt;&lt;br&gt;Percentage identity: 99&lt;br&gt;Percentage coverage: 100&lt;br&gt;BLAST bit score: 1043&lt;br&gt;E-value: 0.0" locus_tag="C7U57_RS24590" class="clusterblast-orf" id="dummy-1_h1_6_12"  />
</g>
<g id="a1_0013"  >
<polygon points="238,90 258,90 263,85 258,80 238,80 238,90 " style="fill:#d81515; stroke-width:1; stroke:black; " description="&lt;b&gt;C7U57_RS24585&lt;/b&gt;&lt;br&gt;TonB-dependent siderophore receptor&lt;br&gt;Location: 185716 - 183275&lt;br&gt;&lt;br&gt;&lt;b&gt;BlastP hit with ctg2_36&lt;/b&gt;&lt;br&gt;Percentage identity: 39&lt;br&gt;Percentage coverage: 97&lt;br&gt;BLAST bit score: 486&lt;br&gt;E-value: 3.08e-159&lt;br&gt;&lt;br&gt;&lt;b&gt;BlastP hit with ctg2_55&lt;/b&gt;&lt;br&gt;Percentage identity: 94&lt;br&gt;Percentage coverage: 100&lt;br&gt;BLAST bit score: 1563&lt;br&gt;E-value: 0.0" locus_tag="C7U57_RS24585" class="clusterblast-orf" id="dummy-1_h1_6_13"  />
</g>
<g id="a1_0014"  >
<polygon points="266,85 271,80 388,80 388,90 271,90 266,85 " style="fill:#d89f15; stroke-width:1; stroke:black; " description="&lt;b&gt;C7U57_RS24580&lt;/b&gt;&lt;br&gt;non-ribosomal peptide synthetase&lt;br&gt;Location: 183005 - 171153&lt;br&gt;&lt;br&gt;&lt;b&gt;BlastP hit with ctg2_56&lt;/b&gt;&lt;br&gt;Percentage identity: 92&lt;br&gt;Percentage coverage: 100&lt;br&gt;BLAST bit score: 7249&lt;br&gt;E-value: 0.0&lt;br&gt;&lt;br&gt;&lt;b&gt;BlastP hit with ctg2_57&lt;/b&gt;&lt;br&gt;Percentage identity: 68&lt;br&gt;Percentage coverage: 45&lt;br&gt;BLAST bit score: 2703&lt;br&gt;E-value: 0.0" locus_tag="C7U57_RS24580" class="clusterblast-orf" id="dummy-1_h1_6_14"  />
</g>
<g id="a1_0015"  >
<polygon points="389,85 394,80 534,80 534,90 394,90 389,85 " style="fill:#d89f15; stroke-width:1; stroke:black; " description="&lt;b&gt;C7U57_RS24575&lt;/b&gt;&lt;br&gt;non-ribosomal peptide synthetase&lt;br&gt;Location: 171149 - 157101&lt;br&gt;&lt;br&gt;&lt;b&gt;BlastP hit with ctg2_56&lt;/b&gt;&lt;br&gt;Percentage identity: 67&lt;br&gt;Percentage coverage: 53&lt;br&gt;BLAST bit score: 2670&lt;br&gt;E-value: 0.0&lt;br&gt;&lt;br&gt;&lt;b&gt;BlastP hit with ctg2_57&lt;/b&gt;&lt;br&gt;Percentage identity: 90&lt;br&gt;Percentage coverage: 100&lt;br&gt;BLAST bit score: 8402&lt;br&gt;E-value: 0.0" locus_tag="C7U57_RS24575" class="clusterblast-orf" id="dummy-1_h1_6_15"  />
</g>
<g id="a1_0016"  >
<polygon points="536,90 539,85 536,80 536,90 " style="fill:#15d84f; stroke-width:1; stroke:black; " description="&lt;b&gt;C7U57_RS24570&lt;/b&gt;&lt;br&gt;type II toxin-antitoxin system HicA family toxin&lt;br&gt;Location: 156890 - 156639&lt;br&gt;&lt;br&gt;&lt;b&gt;BlastP hit with ctg2_58&lt;/b&gt;&lt;br&gt;Percentage identity: 93&lt;br&gt;Percentage coverage: 100&lt;br&gt;BLAST bit score: 157&lt;br&gt;E-value: 3.05e-50" locus_tag="C7U57_RS24570" class="clusterblast-orf" id="dummy-1_h1_6_16"  />
</g>
<g id="a1_0017"  >
<polygon points="539,90 543,85 539,80 539,90 " style="fill:#152cd8; stroke-width:1; stroke:black; " description="&lt;b&gt;C7U57_RS24565&lt;/b&gt;&lt;br&gt;type II toxin-antitoxin system HicB family antitoxin&lt;br&gt;Location: 156642 - 156277&lt;br&gt;&lt;br&gt;&lt;b&gt;BlastP hit with ctg2_59&lt;/b&gt;&lt;br&gt;Percentage identity: 89&lt;br&gt;Percentage coverage: 100&lt;br&gt;BLAST bit score: 228&lt;br&gt;E-value: 4.12e-77" locus_tag="C7U57_RS24565" class="clusterblast-orf" id="dummy-1_h1_6_17"  />
</g>
<g id="a1_0018"  >
<polygon points="543,85 548,80 555,80 555,90 548,90 543,85 " style="fill:#d8159f; stroke-width:1; stroke:black; " description="&lt;b&gt;C7U57_RS24560&lt;/b&gt;&lt;br&gt;MFS transporter&lt;br&gt;Location: 156276 - 155105&lt;br&gt;&lt;br&gt;&lt;b&gt;BlastP hit with ctg2_60&lt;/b&gt;&lt;br&gt;Percentage identity: 91&lt;br&gt;Percentage coverage: 93&lt;br&gt;BLAST bit score: 634&lt;br&gt;E-value: 6.54e-229" locus_tag="C7U57_RS24560" class="clusterblast-orf" id="dummy-1_h1_6_18"  />
</g>
<g id="a1_0019"  >
<polygon points="556,90 557,90 562,85 557,80 556,80 556,90 " style="fill:#d8c115; stroke-width:1; stroke:black; " description="&lt;b&gt;C7U57_RS24555&lt;/b&gt;&lt;br&gt;TetR/AcrR family transcriptional regulator&lt;br&gt;Location: 154963 - 154364&lt;br&gt;&lt;br&gt;&lt;b&gt;BlastP hit with ctg2_61&lt;/b&gt;&lt;br&gt;Percentage identity: 84&lt;br&gt;Percentage coverage: 101&lt;br&gt;BLAST bit score: 317&lt;br&gt;E-value: 1.11e-109" locus_tag="C7U57_RS24555" class="clusterblast-orf" id="dummy-1_h1_6_19"  />
</g>
<g id="a1_0020"  >
<polygon points="562,85 567,80 576,80 576,90 567,90 562,85 " style="fill:#15d871; stroke-width:1; stroke:black; " description="&lt;b&gt;C7U57_RS24550&lt;/b&gt;&lt;br&gt;MATE family efflux transporter&lt;br&gt;Location: 154380 - 153025&lt;br&gt;&lt;br&gt;&lt;b&gt;BlastP hit with ctg2_62&lt;/b&gt;&lt;br&gt;Percentage identity: 97&lt;br&gt;Percentage coverage: 100&lt;br&gt;BLAST bit score: 798&lt;br&gt;E-value: 1.05e-291" locus_tag="C7U57_RS24550" class="clusterblast-orf" id="dummy-1_h1_6_20"  />
</g>
<g id="a1_0021"  >
<polygon points="577,85 582,80 583,80 583,90 582,90 577,85 " style="fill:#2115d8; stroke-width:1; stroke:black; " description="&lt;b&gt;C7U57_RS24545&lt;/b&gt;&lt;br&gt;DUF2239 family protein&lt;br&gt;Location: 152999 - 152427&lt;br&gt;&lt;br&gt;&lt;b&gt;BlastP hit with ctg2_63&lt;/b&gt;&lt;br&gt;Percentage identity: 78&lt;br&gt;Percentage coverage: 100&lt;br&gt;BLAST bit score: 305&lt;br&gt;E-value: 3.23e-105" locus_tag="C7U57_RS24545" class="clusterblast-orf" id="dummy-1_h1_6_21"  />
</g>
<g id="a1_0022"  >
<polygon points="583,85 588,80 593,80 593,90 588,90 583,85 " style="fill:#d8157c; stroke-width:1; stroke:black; " description="&lt;b&gt;C7U57_RS24540&lt;/b&gt;&lt;br&gt;ATP-dependent Clp protease ATP-binding subunit&lt;br&gt;Location: 152359 - 151403&lt;br&gt;&lt;br&gt;&lt;b&gt;BlastP hit with ctg2_64&lt;/b&gt;&lt;br&gt;Percentage identity: 91&lt;br&gt;Percentage coverage: 100&lt;br&gt;BLAST bit score: 566&lt;br&gt;E-value: 1.89e-204" locus_tag="C7U57_RS24540" class="clusterblast-orf" id="dummy-1_h1_6_22"  />
</g>
<g id="a1_0023"  >
<polygon points="593,85 598,80 604,80 604,90 598,90 593,85 " style="fill:#cdd815; stroke-width:1; stroke:black; " description="&lt;b&gt;C7U57_RS24535&lt;/b&gt;&lt;br&gt;aliphatic amidase&lt;br&gt;Location: 151399 - 150356&lt;br&gt;&lt;br&gt;&lt;b&gt;BlastP hit with ctg2_65&lt;/b&gt;&lt;br&gt;Percentage identity: 99&lt;br&gt;Percentage coverage: 99&lt;br&gt;BLAST bit score: 721&lt;br&gt;E-value: 9.55e-265" locus_tag="C7U57_RS24535" class="clusterblast-orf" id="dummy-1_h1_6_23"  />
</g>
<g id="a1_0024"  >
<polygon points="604,85 608,80 608,90 604,85 " style="fill:#15d893; stroke-width:1; stroke:black; " description="&lt;b&gt;C7U57_RS24530&lt;/b&gt;&lt;br&gt;FmdB family transcriptional regulator&lt;br&gt;Location: 150340 - 149993&lt;br&gt;&lt;br&gt;&lt;b&gt;BlastP hit with ctg2_66&lt;/b&gt;&lt;br&gt;Percentage identity: 94&lt;br&gt;Percentage coverage: 100&lt;br&gt;BLAST bit score: 236&lt;br&gt;E-value: 1.16e-80" locus_tag="C7U57_RS24530" class="clusterblast-orf" id="dummy-1_h1_6_24"  />
</g>
<g id="a1_0025"  >
<polygon points="608,85 613,80 621,80 621,90 613,90 608,85 " style="fill:#4315d8; stroke-width:1; stroke:black; " description="&lt;b&gt;C7U57_RS24525&lt;/b&gt;&lt;br&gt;acetamidase/formamidase family protein&lt;br&gt;Location: 149990 - 148761&lt;br&gt;&lt;br&gt;&lt;b&gt;BlastP hit with ctg2_67&lt;/b&gt;&lt;br&gt;Percentage identity: 100&lt;br&gt;Percentage coverage: 100&lt;br&gt;BLAST bit score: 857&lt;br&gt;E-value: 2.68e-316" locus_tag="C7U57_RS24525" class="clusterblast-orf" id="dummy-1_h1_6_25"  />
</g>
<g id="a1_0026"  >
<polygon points="623,85 628,80 630,80 630,90 628,90 623,85 " style="fill:#d8155a; stroke-width:1; stroke:black; " description="&lt;b&gt;C7U57_RS24515&lt;/b&gt;&lt;br&gt;urea ABC transporter ATP-binding subunit UrtE&lt;br&gt;Location: 148541 - 147852&lt;br&gt;&lt;br&gt;&lt;b&gt;BlastP hit with ctg2_68&lt;/b&gt;&lt;br&gt;Percentage identity: 97&lt;br&gt;Percentage coverage: 100&lt;br&gt;BLAST bit score: 433&lt;br&gt;E-value: 1.1e-154" locus_tag="C7U57_RS24515" class="clusterblast-orf" id="dummy-1_h1_6_26"  />
</g>
<g id="a1_0027"  >
<polygon points="630,85 635,80 638,80 638,90 635,90 630,85 " style="fill:#aad815; stroke-width:1; stroke:black; " description="&lt;b&gt;C7U57_RS24510&lt;/b&gt;&lt;br&gt;urea ABC transporter ATP-binding protein UrtD&lt;br&gt;Location: 147841 - 147083&lt;br&gt;&lt;br&gt;&lt;b&gt;BlastP hit with ctg2_69&lt;/b&gt;&lt;br&gt;Percentage identity: 98&lt;br&gt;Percentage coverage: 100&lt;br&gt;BLAST bit score: 488&lt;br&gt;E-value: 1.45e-175" locus_tag="C7U57_RS24510" class="clusterblast-orf" id="dummy-1_h1_6_27"  />
</g>
<g id="a1_0028"  >
<polygon points="638,85 643,80 650,80 650,90 643,90 638,85 " style="fill:#15d8b6; stroke-width:1; stroke:black; " description="&lt;b&gt;C7U57_RS24505&lt;/b&gt;&lt;br&gt;urea ABC transporter permease subunit UrtC&lt;br&gt;Location: 147086 - 145923&lt;br&gt;&lt;br&gt;&lt;b&gt;BlastP hit with ctg2_70&lt;/b&gt;&lt;br&gt;Percentage identity: 96&lt;br&gt;Percentage coverage: 100&lt;br&gt;BLAST bit score: 711&lt;br&gt;E-value: 1.91e-259" locus_tag="C7U57_RS24505" class="clusterblast-orf" id="dummy-1_h1_6_28"  />
</g>
<g id="a1_0029"  >
<polygon points="650,85 655,80 660,80 660,90 655,90 650,85 " style="fill:#6615d8; stroke-width:1; stroke:black; " description="&lt;b&gt;C7U57_RS24500&lt;/b&gt;&lt;br&gt;urea ABC transporter permease subunit UrtB&lt;br&gt;Location: 145912 - 144995&lt;br&gt;&lt;br&gt;&lt;b&gt;BlastP hit with ctg2_71&lt;/b&gt;&lt;br&gt;Percentage identity: 99&lt;br&gt;Percentage coverage: 100&lt;br&gt;BLAST bit score: 570&lt;br&gt;E-value: 1.46e-206" locus_tag="C7U57_RS24500" class="clusterblast-orf" id="dummy-1_h1_6_29"  />
</g>
<g id="a1_0030"  >
<polygon points="661,85 666,80 674,80 674,90 666,90 661,85 " style="fill:#d81538; stroke-width:1; stroke:black; " description="&lt;b&gt;C7U57_RS24495&lt;/b&gt;&lt;br&gt;urea ABC transporter substrate-binding protein&lt;br&gt;Location: 144827 - 143619&lt;br&gt;&lt;br&gt;&lt;b&gt;BlastP hit with ctg2_72&lt;/b&gt;&lt;br&gt;Percentage identity: 99&lt;br&gt;Percentage coverage: 100&lt;br&gt;BLAST bit score: 792&lt;br&gt;E-value: 6.33e-291" locus_tag="C7U57_RS24495" class="clusterblast-orf" id="dummy-1_h1_6_30"  />
</g>
<g id="a1_0031"  >
<polygon points="677,90 707,90 712,85 707,80 677,80 677,90 " style="fill:#88d815; stroke-width:1; stroke:black; " description="&lt;b&gt;C7U57_RS24490&lt;/b&gt;&lt;br&gt;response regulator&lt;br&gt;Location: 143307 - 139924&lt;br&gt;&lt;br&gt;&lt;b&gt;BlastP hit with ctg2_73&lt;/b&gt;&lt;br&gt;Percentage identity: 97&lt;br&gt;Percentage coverage: 100&lt;br&gt;BLAST bit score: 2135&lt;br&gt;E-value: 0.0&lt;br&gt;&lt;br&gt;&lt;b&gt;BlastP hit with ctg2_74&lt;/b&gt;&lt;br&gt;Percentage identity: 36&lt;br&gt;Percentage coverage: 68&lt;br&gt;BLAST bit score: 74&lt;br&gt;E-value: 2.37e-13" locus_tag="C7U57_RS24490" class="clusterblast-orf" id="dummy-1_h1_6_31"  />
</g>
<g id="a1_0032"  >
<polygon points="712,90 714,90 719,85 714,80 712,80 712,90 " style="fill:#88d815; stroke-width:1; stroke:black; " description="&lt;b&gt;C7U57_RS24485&lt;/b&gt;&lt;br&gt;response regulator&lt;br&gt;Location: 139949 - 139284&lt;br&gt;&lt;br&gt;&lt;b&gt;BlastP hit with ctg2_73&lt;/b&gt;&lt;br&gt;Percentage identity: 36&lt;br&gt;Percentage coverage: 13&lt;br&gt;BLAST bit score: 78&lt;br&gt;E-value: 7.85e-14&lt;br&gt;&lt;br&gt;&lt;b&gt;BlastP hit with ctg2_74&lt;/b&gt;&lt;br&gt;Percentage identity: 99&lt;br&gt;Percentage coverage: 100&lt;br&gt;BLAST bit score: 421&lt;br&gt;E-value: 2.23e-150" locus_tag="C7U57_RS24485" class="clusterblast-orf" id="dummy-1_h1_6_32"  />
</g>
</svg>
