<svg xmlns="http://www.w3.org/2000/svg" xmlns:xlink="http://www.w3.org/1999/xlink" version="1.1" x="0" y="0" height="230" width="800" viewBox="0 0 800 230" preserveAspectRatio="none"  >
<g label="Query sequence" class="clusterblast-cluster"  >
<text x="5" y="20" class="clusterblast-acc"  >
Query sequence</text>
<line x1="10" y1="35" x2="778.0" y2="35" style="stroke-width:1; stroke:grey; "  />
<polygon points="0,35 5,30 43,30 43,40 5,40 0,35 " style="fill:#d81515; stroke-width:1; stroke:black; " description="&lt;b&gt;ctg1_608&lt;/b&gt;&lt;br&gt;ctg1 608&lt;br&gt;Location: 639179 - 639701" locus_tag="ctg1_608" class="clusterblast-orf" id="dummy-2_q0_0_all"  />
<polygon points="53,40 165,40 170,35 165,30 53,30 53,40 " style="fill:#15d815; stroke-width:1; stroke:black; " description="&lt;b&gt;ctg1_609&lt;/b&gt;&lt;br&gt;ctg1 609&lt;br&gt;Location: 639831 - 641271" locus_tag="ctg1_609" class="clusterblast-orf" id="dummy-2_q1_0_all"  />
<polygon points="194,35 199,30 290,30 290,40 199,40 194,35 " style="fill:#1597d8; stroke-width:1; stroke:black; " description="&lt;b&gt;ctg1_610&lt;/b&gt;&lt;br&gt;ctg1 610&lt;br&gt;Location: 641571 - 642756" locus_tag="ctg1_610" class="clusterblast-orf" id="dummy-2_q2_0_all"  />
<polygon points="297,35 302,30 361,30 361,40 302,40 297,35 " style="fill:#9715d8; stroke-width:1; stroke:black; " description="&lt;b&gt;ctg1_611&lt;/b&gt;&lt;br&gt;ctg1 611&lt;br&gt;Location: 642843 - 643632" locus_tag="ctg1_611" class="clusterblast-orf" id="dummy-2_q3_0_all"  />
<polygon points="360,35 365,30 429,30 429,40 365,40 360,35 " style="fill:#d89715; stroke-width:1; stroke:black; " description="&lt;b&gt;ctg1_612&lt;/b&gt;&lt;br&gt;ctg1 612&lt;br&gt;Location: 643622 - 644468" locus_tag="ctg1_612" class="clusterblast-orf" id="dummy-2_q4_0_all"  />
<polygon points="434,35 439,30 455,30 455,40 439,40 434,35 " style="fill:#15d897; stroke-width:1; stroke:black; " description="&lt;b&gt;ctg1_613&lt;/b&gt;&lt;br&gt;ctg1 613&lt;br&gt;Location: 644535 - 644787" locus_tag="ctg1_613" class="clusterblast-orf" id="dummy-2_q5_0_all"  />
<polygon points="464,35 469,30 617,30 617,40 469,40 464,35 " style="fill:#1515d8; stroke-width:1; stroke:black; " description="&lt;b&gt;ctg1_614&lt;/b&gt;&lt;br&gt;ctg1 614&lt;br&gt;Location: 644904 - 646791" locus_tag="ctg1_614" class="clusterblast-orf" id="dummy-2_q6_0_all"  />
<polygon points="617,35 622,30 700,30 700,40 622,40 617,35 " style="fill:#d81597; stroke-width:1; stroke:black; " description="&lt;b&gt;ctg1_615&lt;/b&gt;&lt;br&gt;ctg1 615&lt;br&gt;Location: 646787 - 647822" locus_tag="ctg1_615" class="clusterblast-orf" id="dummy-2_q7_0_all"  />
<polygon points="700,35 705,30 780,30 780,40 705,40 700,35 " style="fill:#97d815; stroke-width:1; stroke:black; " description="&lt;b&gt;ctg1_616&lt;/b&gt;&lt;br&gt;ctg1 616&lt;br&gt;Location: 647818 - 648808" locus_tag="ctg1_616" class="clusterblast-orf" id="dummy-2_q8_0_all"  />
</g>
<g label="NZ_CP020369" description="NZ_CP020369 (3976325-3985777): Pseudomonas tolaasii strain 2192T genome (100% of genes show similarity), bacteriocin" class="clusterblast-cluster"  >
<text x="5" y="70" class="clusterblast-acc"  >
<a xlink:href="https://antismash-db.secondarymetabolites.org/area.html?record=NZ_CP020369&amp;start=3976325&amp;end=3985777" target="_blank">NZ_CP020369 (3976325-3985777)</a>: Pseudomonas tolaasii strain 2192T genome (100% of genes show similarity), bacteriocin</text>
<line x1="10" y1="85" x2="778.0" y2="85" style="stroke-width:1; stroke:grey; "  />
</g>
<g id="a2_000"  >
<polygon points="7,85 12,80 49,80 49,90 12,90 7,85 " style="fill:#d81515; stroke-width:1; stroke:black; " description="&lt;b&gt;B5P22_RS18275&lt;/b&gt;&lt;br&gt;DUF3617 domain-containing protein&lt;br&gt;Location: 3985777 - 3985256&lt;br&gt;&lt;br&gt;&lt;b&gt;BlastP hit with ctg1_608&lt;/b&gt;&lt;br&gt;Percentage identity: 95&lt;br&gt;Percentage coverage: 100&lt;br&gt;BLAST bit score: 330&lt;br&gt;E-value: 5.52e-116" locus_tag="B5P22_RS18275" class="clusterblast-orf" id="dummy-2_h2_9_0"  />
</g>
<g id="a2_001"  >
<polygon points="60,90 171,90 176,85 171,80 60,80 60,90 " style="fill:#15d815; stroke-width:1; stroke:black; " description="&lt;b&gt;B5P22_RS18270&lt;/b&gt;&lt;br&gt;cardiolipin synthase&lt;br&gt;Location: 3985124 - 3983685&lt;br&gt;&lt;br&gt;&lt;b&gt;BlastP hit with ctg1_609&lt;/b&gt;&lt;br&gt;Percentage identity: 98&lt;br&gt;Percentage coverage: 100&lt;br&gt;BLAST bit score: 930&lt;br&gt;E-value: 0.0" locus_tag="B5P22_RS18270" class="clusterblast-orf" id="dummy-2_h2_9_1"  />
</g>
<g id="a2_002"  >
<polygon points="186,85 191,80 282,80 282,90 191,90 186,85 " style="fill:#1597d8; stroke-width:1; stroke:black; " description="&lt;b&gt;B5P22_RS18265&lt;/b&gt;&lt;br&gt;class I SAM-dependent methyltransferase&lt;br&gt;Location: 3983568 - 3982384&lt;br&gt;&lt;br&gt;&lt;b&gt;BlastP hit with ctg1_610&lt;/b&gt;&lt;br&gt;Percentage identity: 97&lt;br&gt;Percentage coverage: 100&lt;br&gt;BLAST bit score: 779&lt;br&gt;E-value: 5.15e-286" locus_tag="B5P22_RS18265" class="clusterblast-orf" id="dummy-2_h2_9_2"  />
</g>
<g id="a2_003"  >
<polygon points="289,85 294,80 353,80 353,90 294,90 289,85 " style="fill:#9715d8; stroke-width:1; stroke:black; " description="&lt;b&gt;B5P22_RS18260&lt;/b&gt;&lt;br&gt;DUF2063 domain-containing protein&lt;br&gt;Location: 3982296 - 3981508&lt;br&gt;&lt;br&gt;&lt;b&gt;BlastP hit with ctg1_611&lt;/b&gt;&lt;br&gt;Percentage identity: 92&lt;br&gt;Percentage coverage: 100&lt;br&gt;BLAST bit score: 502&lt;br&gt;E-value: 5.04e-181" locus_tag="B5P22_RS18260" class="clusterblast-orf" id="dummy-2_h2_9_3"  />
</g>
<g id="a2_004"  >
<polygon points="352,85 357,80 420,80 420,90 357,90 352,85 " style="fill:#d89715; stroke-width:1; stroke:black; " description="&lt;b&gt;B5P22_RS18255&lt;/b&gt;&lt;br&gt;DUF692 domain-containing protein&lt;br&gt;Location: 3981517 - 3980672&lt;br&gt;&lt;br&gt;&lt;b&gt;BlastP hit with ctg1_612&lt;/b&gt;&lt;br&gt;Percentage identity: 95&lt;br&gt;Percentage coverage: 100&lt;br&gt;BLAST bit score: 518&lt;br&gt;E-value: 8.64e-187" locus_tag="B5P22_RS18255" class="clusterblast-orf" id="dummy-2_h2_9_4"  />
</g>
<g id="a2_005"  >
<polygon points="426,85 431,80 446,80 446,90 431,90 426,85 " style="fill:#15d897; stroke-width:1; stroke:black; " description="&lt;b&gt;B5P22_RS18250&lt;/b&gt;&lt;br&gt;membrane protein&lt;br&gt;Location: 3980604 - 3980350&lt;br&gt;&lt;br&gt;&lt;b&gt;BlastP hit with ctg1_613&lt;/b&gt;&lt;br&gt;Percentage identity: 83&lt;br&gt;Percentage coverage: 101&lt;br&gt;BLAST bit score: 109&lt;br&gt;E-value: 3.66e-31" locus_tag="B5P22_RS18250" class="clusterblast-orf" id="dummy-2_h2_9_5"  />
</g>
<g id="a2_006"  >
<polygon points="456,85 461,80 609,80 609,90 461,90 456,85 " style="fill:#1515d8; stroke-width:1; stroke:black; " description="&lt;b&gt;B5P22_RS18245&lt;/b&gt;&lt;br&gt;cadmium-translocating P-type ATPase&lt;br&gt;Location: 3980232 - 3978346&lt;br&gt;&lt;br&gt;&lt;b&gt;BlastP hit with ctg1_614&lt;/b&gt;&lt;br&gt;Percentage identity: 97&lt;br&gt;Percentage coverage: 100&lt;br&gt;BLAST bit score: 1093&lt;br&gt;E-value: 0.0" locus_tag="B5P22_RS18245" class="clusterblast-orf" id="dummy-2_h2_9_6"  />
</g>
<g id="a2_007"  >
<polygon points="608,85 613,80 692,80 692,90 613,90 608,85 " style="fill:#d81597; stroke-width:1; stroke:black; " description="&lt;b&gt;B5P22_RS18240&lt;/b&gt;&lt;br&gt;protease modulator HflK&lt;br&gt;Location: 3978349 - 3977315&lt;br&gt;&lt;br&gt;&lt;b&gt;BlastP hit with ctg1_615&lt;/b&gt;&lt;br&gt;Percentage identity: 98&lt;br&gt;Percentage coverage: 100&lt;br&gt;BLAST bit score: 554&lt;br&gt;E-value: 7.29e-199" locus_tag="B5P22_RS18240" class="clusterblast-orf" id="dummy-2_h2_9_7"  />
</g>
<g id="a2_008"  >
<polygon points="692,85 697,80 772,80 772,90 697,90 692,85 " style="fill:#97d815; stroke-width:1; stroke:black; " description="&lt;b&gt;B5P22_RS18235&lt;/b&gt;&lt;br&gt;protease modulator HflC&lt;br&gt;Location: 3977318 - 3976326&lt;br&gt;&lt;br&gt;&lt;b&gt;BlastP hit with ctg1_616&lt;/b&gt;&lt;br&gt;Percentage identity: 98&lt;br&gt;Percentage coverage: 94&lt;br&gt;BLAST bit score: 523&lt;br&gt;E-value: 5.22e-187" locus_tag="B5P22_RS18235" class="clusterblast-orf" id="dummy-2_h2_9_8"  />
</g>
</svg>
