<svg xmlns="http://www.w3.org/2000/svg" xmlns:xlink="http://www.w3.org/1999/xlink" version="1.1" x="0" y="0" height="230" width="800" viewBox="0 0 800 230" preserveAspectRatio="none"  >
<g label="Query sequence" class="clusterblast-cluster"  >
<text x="5" y="20" class="clusterblast-acc"  >
Query sequence</text>
<line x1="10" y1="35" x2="778.0" y2="35" style="stroke-width:1; stroke:grey; "  />
<polygon points="187,40 356,40 361,35 356,30 187,30 187,40 " style="fill:#d81515; stroke-width:1; stroke:black; " description="&lt;b&gt;ctg45_1&lt;/b&gt;&lt;br&gt;ctg45 1&lt;br&gt;Location: 0 - 9087" locus_tag="ctg45_1" class="clusterblast-orf" id="dummy-1_q0_0_all"  />
<polygon points="363,35 366,30 366,40 363,35 " style="fill:white; stroke-width:1; stroke:black; " description="&lt;b&gt;ctg45_2&lt;/b&gt;&lt;br&gt;ctg45 2&lt;br&gt;Location: 9197 - 9335" locus_tag="ctg45_2" class="clusterblast-orf" id="dummy-1_q1_0_all"  />
<polygon points="366,40 370,35 366,30 366,40 " style="fill:#3cd815; stroke-width:1; stroke:black; " description="&lt;b&gt;ctg45_3&lt;/b&gt;&lt;br&gt;ctg45 3&lt;br&gt;Location: 9362 - 9578" locus_tag="ctg45_3" class="clusterblast-orf" id="dummy-1_q2_0_all"  />
<polygon points="373,35 378,30 409,30 409,40 378,40 373,35 " style="fill:#1563d8; stroke-width:1; stroke:black; " description="&lt;b&gt;ctg45_4&lt;/b&gt;&lt;br&gt;ctg45 4&lt;br&gt;Location: 9704 - 11606" locus_tag="ctg45_4" class="clusterblast-orf" id="dummy-1_q3_0_all"  />
<polygon points="410,35 415,30 424,30 424,40 415,40 410,35 " style="fill:#b115d8; stroke-width:1; stroke:black; " description="&lt;b&gt;ctg45_5&lt;/b&gt;&lt;br&gt;ctg45 5&lt;br&gt;Location: 11665 - 12358" locus_tag="ctg45_5" class="clusterblast-orf" id="dummy-1_q4_0_all"  />
<polygon points="427,40 437,40 442,35 437,30 427,30 427,40 " style="fill:#d88a15; stroke-width:1; stroke:black; " description="&lt;b&gt;ctg45_6&lt;/b&gt;&lt;br&gt;ctg45 6&lt;br&gt;Location: 12553 - 13318" locus_tag="ctg45_6" class="clusterblast-orf" id="dummy-1_q5_0_all"  />
<polygon points="451,35 456,30 456,30 456,40 456,40 451,35 " style="fill:white; stroke-width:1; stroke:black; " description="&lt;b&gt;ctg45_7&lt;/b&gt;&lt;br&gt;ctg45 7&lt;br&gt;Location: 13781 - 14054" locus_tag="ctg45_7" class="clusterblast-orf" id="dummy-1_q6_0_all"  />
<polygon points="460,40 464,35 460,30 460,40 " style="fill:#15d863; stroke-width:1; stroke:black; " description="&lt;b&gt;ctg45_8&lt;/b&gt;&lt;br&gt;ctg45 8&lt;br&gt;Location: 14261 - 14459" locus_tag="ctg45_8" class="clusterblast-orf" id="dummy-1_q7_0_all"  />
<polygon points="464,40 477,40 482,35 477,30 464,30 464,40 " style="fill:#3c15d8; stroke-width:1; stroke:black; " description="&lt;b&gt;ctg45_9&lt;/b&gt;&lt;br&gt;ctg45 9&lt;br&gt;Location: 14455 - 15403" locus_tag="ctg45_9" class="clusterblast-orf" id="dummy-1_q8_0_all"  />
<polygon points="484,40 542,40 547,35 542,30 484,30 484,40 " style="fill:#d8158a; stroke-width:1; stroke:black; " description="&lt;b&gt;ctg45_10&lt;/b&gt;&lt;br&gt;ctg45 10&lt;br&gt;Location: 15504 - 18777" locus_tag="ctg45_10" class="clusterblast-orf" id="dummy-1_q9_0_all"  />
<polygon points="550,40 551,40 556,35 551,30 550,30 550,40 " style="fill:#b1d815; stroke-width:1; stroke:black; " description="&lt;b&gt;ctg45_11&lt;/b&gt;&lt;br&gt;ctg45 11&lt;br&gt;Location: 18951 - 19254" locus_tag="ctg45_11" class="clusterblast-orf" id="dummy-1_q10_0_all"  />
<polygon points="557,35 562,30 593,30 593,40 562,40 557,35 " style="fill:#15d8d8; stroke-width:1; stroke:black; " description="&lt;b&gt;ctg45_12&lt;/b&gt;&lt;br&gt;ctg45 12&lt;br&gt;Location: 19293 - 21174" locus_tag="ctg45_12" class="clusterblast-orf" id="dummy-1_q11_0_all"  />
</g>
<g label="NZ_CP025494" description="NZ_CP025494 (4035690-4076340): Pseudomonas palleroniana strain MAB3 chromosome (43% of genes show similarity), NRPS-like" class="clusterblast-cluster"  >
<text x="5" y="70" class="clusterblast-acc"  >
<a xlink:href="https://antismash-db.secondarymetabolites.org/area.html?record=NZ_CP025494&amp;start=4035690&amp;end=4076340" target="_blank">NZ_CP025494 (4035690-4076340)</a>: Pseudomonas palleroniana strain MAB3 chromosome (43% of genes show similarity), NRPS-like</text>
<line x1="10" y1="85" x2="778.0" y2="85" style="stroke-width:1; stroke:grey; "  />
</g>
<g id="a1_000"  >
<polygon points="0,85 5,80 26,80 26,90 5,90 0,85 " style="fill:white; stroke-width:1; stroke:black; " description="&lt;b&gt;CYL20_RS18355&lt;/b&gt;&lt;br&gt;TolC family outer membrane protein&lt;br&gt;Location: 4076340 - 4074982" locus_tag="CYL20_RS18355" class="clusterblast-orf" id="dummy-1_h1_2_0"  />
</g>
<g id="a1_001"  >
<polygon points="32,90 235,90 240,85 235,80 32,80 32,90 " style="fill:#d81515; stroke-width:1; stroke:black; " description="&lt;b&gt;CYL20_RS18350&lt;/b&gt;&lt;br&gt;retention module-containing protein&lt;br&gt;Location: 4074644 - 4063812&lt;br&gt;&lt;br&gt;&lt;b&gt;BlastP hit with ctg45_1&lt;/b&gt;&lt;br&gt;Percentage identity: 87&lt;br&gt;Percentage coverage: 98&lt;br&gt;BLAST bit score: 4655&lt;br&gt;E-value: 0.0" locus_tag="CYL20_RS18350" class="clusterblast-orf" id="dummy-1_h1_2_1"  />
</g>
<g id="a1_002"  >
<polygon points="243,90 244,90 249,85 244,80 243,80 243,90 " style="fill:#3cd815; stroke-width:1; stroke:black; " description="&lt;b&gt;CYL20_RS18345&lt;/b&gt;&lt;br&gt;hypothetical protein&lt;br&gt;Location: 4063672 - 4063334&lt;br&gt;&lt;br&gt;&lt;b&gt;BlastP hit with ctg45_3&lt;/b&gt;&lt;br&gt;Percentage identity: 93&lt;br&gt;Percentage coverage: 100&lt;br&gt;BLAST bit score: 125&lt;br&gt;E-value: 1.42e-37" locus_tag="CYL20_RS18345" class="clusterblast-orf" id="dummy-1_h1_2_2"  />
</g>
<g id="a1_003"  >
<polygon points="250,85 255,80 287,80 287,90 255,90 250,85 " style="fill:#1563d8; stroke-width:1; stroke:black; " description="&lt;b&gt;CYL20_RS18340&lt;/b&gt;&lt;br&gt;EAL domain-containing protein&lt;br&gt;Location: 4063298 - 4061352&lt;br&gt;&lt;br&gt;&lt;b&gt;BlastP hit with ctg45_4&lt;/b&gt;&lt;br&gt;Percentage identity: 95&lt;br&gt;Percentage coverage: 100&lt;br&gt;BLAST bit score: 1151&lt;br&gt;E-value: 0.0" locus_tag="CYL20_RS18340" class="clusterblast-orf" id="dummy-1_h1_2_3"  />
</g>
<g id="a1_004"  >
<polygon points="287,85 292,80 301,80 301,90 292,90 287,85 " style="fill:#b115d8; stroke-width:1; stroke:black; " description="&lt;b&gt;CYL20_RS18335&lt;/b&gt;&lt;br&gt;hypothetical protein&lt;br&gt;Location: 4061338 - 4060646&lt;br&gt;&lt;br&gt;&lt;b&gt;BlastP hit with ctg45_5&lt;/b&gt;&lt;br&gt;Percentage identity: 93&lt;br&gt;Percentage coverage: 100&lt;br&gt;BLAST bit score: 436&lt;br&gt;E-value: 1.02e-155" locus_tag="CYL20_RS18335" class="clusterblast-orf" id="dummy-1_h1_2_4"  />
</g>
<g id="a1_005"  >
<polygon points="305,90 314,90 319,85 314,80 305,80 305,90 " style="fill:#d88a15; stroke-width:1; stroke:black; " description="&lt;b&gt;CYL20_RS18330&lt;/b&gt;&lt;br&gt;GntR family transcriptional regulator&lt;br&gt;Location: 4060395 - 4059685&lt;br&gt;&lt;br&gt;&lt;b&gt;BlastP hit with ctg45_6&lt;/b&gt;&lt;br&gt;Percentage identity: 93&lt;br&gt;Percentage coverage: 89&lt;br&gt;BLAST bit score: 412&lt;br&gt;E-value: 6.53e-146" locus_tag="CYL20_RS18330" class="clusterblast-orf" id="dummy-1_h1_2_5"  />
</g>
<g id="a1_006"  >
<polygon points="326,90 336,90 341,85 336,80 326,80 326,90 " style="fill:#15d863; stroke-width:1; stroke:black; " description="&lt;b&gt;CYL20_RS18325&lt;/b&gt;&lt;br&gt;DUF3050 domain-containing protein&lt;br&gt;Location: 4059311 - 4058553&lt;br&gt;&lt;br&gt;&lt;b&gt;BlastP hit with ctg45_8&lt;/b&gt;&lt;br&gt;Percentage identity: 62&lt;br&gt;Percentage coverage: 92&lt;br&gt;BLAST bit score: 82&lt;br&gt;E-value: 3.56e-19" locus_tag="CYL20_RS18325" class="clusterblast-orf" id="dummy-1_h1_2_6"  />
</g>
<g id="a1_007"  >
<polygon points="341,90 354,90 359,85 354,80 341,80 341,90 " style="fill:#3c15d8; stroke-width:1; stroke:black; " description="&lt;b&gt;CYL20_RS18320&lt;/b&gt;&lt;br&gt;aminobenzoate oxygenase&lt;br&gt;Location: 4058556 - 4057609&lt;br&gt;&lt;br&gt;&lt;b&gt;BlastP hit with ctg45_9&lt;/b&gt;&lt;br&gt;Percentage identity: 82&lt;br&gt;Percentage coverage: 98&lt;br&gt;BLAST bit score: 507&lt;br&gt;E-value: 3.04e-181" locus_tag="CYL20_RS18320" class="clusterblast-orf" id="dummy-1_h1_2_7"  />
</g>
<g id="a1_008"  >
<polygon points="359,90 419,90 424,85 419,80 359,80 359,90 " style="fill:#d8158a; stroke-width:1; stroke:black; " description="&lt;b&gt;CYL20_RS18315&lt;/b&gt;&lt;br&gt;non-ribosomal peptide synthetase&lt;br&gt;Location: 4057612 - 4054232&lt;br&gt;&lt;br&gt;&lt;b&gt;BlastP hit with ctg45_10&lt;/b&gt;&lt;br&gt;Percentage identity: 72&lt;br&gt;Percentage coverage: 100&lt;br&gt;BLAST bit score: 1593&lt;br&gt;E-value: 0.0" locus_tag="CYL20_RS18315" class="clusterblast-orf" id="dummy-1_h1_2_8"  />
</g>
<g id="a1_009"  >
<polygon points="424,90 428,90 433,85 428,80 424,80 424,90 " style="fill:#b1d815; stroke-width:1; stroke:black; " description="&lt;b&gt;CYL20_RS18310&lt;/b&gt;&lt;br&gt;SRPBCC family protein&lt;br&gt;Location: 4054212 - 4053754&lt;br&gt;&lt;br&gt;&lt;b&gt;BlastP hit with ctg45_11&lt;/b&gt;&lt;br&gt;Percentage identity: 76&lt;br&gt;Percentage coverage: 100&lt;br&gt;BLAST bit score: 158&lt;br&gt;E-value: 1.82e-49" locus_tag="CYL20_RS18310" class="clusterblast-orf" id="dummy-1_h1_2_9"  />
</g>
<g id="a1_0010"  >
<polygon points="434,85 439,80 470,80 470,90 439,90 434,85 " style="fill:#15d8d8; stroke-width:1; stroke:black; " description="&lt;b&gt;CYL20_RS18305&lt;/b&gt;&lt;br&gt;methyl-accepting chemotaxis protein&lt;br&gt;Location: 4053715 - 4051835&lt;br&gt;&lt;br&gt;&lt;b&gt;BlastP hit with ctg45_12&lt;/b&gt;&lt;br&gt;Percentage identity: 96&lt;br&gt;Percentage coverage: 100&lt;br&gt;BLAST bit score: 1039&lt;br&gt;E-value: 0.0" locus_tag="CYL20_RS18305" class="clusterblast-orf" id="dummy-1_h1_2_10"  />
</g>
<g id="a1_0011"  >
<polygon points="542,85 547,80 565,80 565,90 547,90 542,85 " style="fill:white; stroke-width:1; stroke:black; " description="&lt;b&gt;CYL20_RS18275&lt;/b&gt;&lt;br&gt;CoA transferase&lt;br&gt;Location: 4048086 - 4046866" locus_tag="CYL20_RS18275" class="clusterblast-orf" id="dummy-1_h1_2_11"  />
</g>
<g id="a1_0012"  >
<polygon points="565,85 570,80 588,80 588,90 570,90 565,85 " style="fill:white; stroke-width:1; stroke:black; " description="&lt;b&gt;CYL20_RS18270&lt;/b&gt;&lt;br&gt;acyl-CoA dehydrogenase&lt;br&gt;Location: 4046853 - 4045672" locus_tag="CYL20_RS18270" class="clusterblast-orf" id="dummy-1_h1_2_12"  />
</g>
<g id="a1_0013"  >
<polygon points="591,90 603,90 608,85 603,80 591,80 591,90 " style="fill:white; stroke-width:1; stroke:black; " description="&lt;b&gt;CYL20_RS18265&lt;/b&gt;&lt;br&gt;LysR family transcriptional regulator&lt;br&gt;Location: 4045514 - 4044615" locus_tag="CYL20_RS18265" class="clusterblast-orf" id="dummy-1_h1_2_13"  />
</g>
<g id="a1_0014"  >
<polygon points="617,90 633,90 638,85 633,80 617,80 617,90 " style="fill:white; stroke-width:1; stroke:black; " description="&lt;b&gt;CYL20_RS18260&lt;/b&gt;&lt;br&gt;Re/Si-specific NAD(P)(+) transhydrogenase subunit alpha&lt;br&gt;Location: 4044161 - 4043040" locus_tag="CYL20_RS18260" class="clusterblast-orf" id="dummy-1_h1_2_14"  />
</g>
<g id="a1_0015"  >
<polygon points="639,90 640,90 645,85 640,80 639,80 639,90 " style="fill:white; stroke-width:1; stroke:black; " description="&lt;b&gt;CYL20_RS18255&lt;/b&gt;&lt;br&gt;NAD(P) transhydrogenase subunit alpha&lt;br&gt;Location: 4043024 - 4042704" locus_tag="CYL20_RS18255" class="clusterblast-orf" id="dummy-1_h1_2_15"  />
</g>
<g id="a1_0016"  >
<polygon points="645,90 667,90 672,85 667,80 645,80 645,90 " style="fill:white; stroke-width:1; stroke:black; " description="&lt;b&gt;CYL20_RS18250&lt;/b&gt;&lt;br&gt;NAD(P)(+) transhydrogenase (Re/Si-specific) subunit beta&lt;br&gt;Location: 4042704 - 4041268" locus_tag="CYL20_RS18250" class="clusterblast-orf" id="dummy-1_h1_2_16"  />
</g>
<g id="a1_0017"  >
<polygon points="676,90 700,90 705,85 700,80 676,80 676,90 " style="fill:white; stroke-width:1; stroke:black; " description="&lt;b&gt;CYL20_RS18245&lt;/b&gt;&lt;br&gt;acetyl-CoA hydrolase/transferase family protein&lt;br&gt;Location: 4041087 - 4039594" locus_tag="CYL20_RS18245" class="clusterblast-orf" id="dummy-1_h1_2_17"  />
</g>
<g id="a1_0018"  >
<polygon points="711,90 715,85 711,80 711,90 " style="fill:white; stroke-width:1; stroke:black; " description="&lt;b&gt;CYL20_RS18240&lt;/b&gt;&lt;br&gt;DUF1127 domain-containing protein&lt;br&gt;Location: 4039275 - 4039060" locus_tag="CYL20_RS18240" class="clusterblast-orf" id="dummy-1_h1_2_18"  />
</g>
<g id="a1_0019"  >
<polygon points="721,90 722,90 727,85 722,80 721,80 721,90 " style="fill:white; stroke-width:1; stroke:black; " description="&lt;b&gt;CYL20_RS18235&lt;/b&gt;&lt;br&gt;DUF2388 domain-containing protein&lt;br&gt;Location: 4038730 - 4038410" locus_tag="CYL20_RS18235" class="clusterblast-orf" id="dummy-1_h1_2_19"  />
</g>
<g id="a1_0020"  >
<polygon points="729,90 730,90 735,85 730,80 729,80 729,90 " style="fill:white; stroke-width:1; stroke:black; " description="&lt;b&gt;CYL20_RS18230&lt;/b&gt;&lt;br&gt;DUF2388 domain-containing protein&lt;br&gt;Location: 4038304 - 4037996" locus_tag="CYL20_RS18230" class="clusterblast-orf" id="dummy-1_h1_2_20"  />
</g>
<g id="a1_0021"  >
<polygon points="736,90 737,90 742,85 737,80 736,80 736,90 " style="fill:white; stroke-width:1; stroke:black; " description="&lt;b&gt;CYL20_RS18225&lt;/b&gt;&lt;br&gt;DUF2388 domain-containing protein&lt;br&gt;Location: 4037969 - 4037649" locus_tag="CYL20_RS18225" class="clusterblast-orf" id="dummy-1_h1_2_21"  />
</g>
<g id="a1_0022"  >
<polygon points="742,90 775,90 780,85 775,80 742,80 742,90 " style="fill:white; stroke-width:1; stroke:black; " description="&lt;b&gt;CYL20_RS18220&lt;/b&gt;&lt;br&gt;DUF4105 domain-containing protein&lt;br&gt;Location: 4037652 - 4035691" locus_tag="CYL20_RS18220" class="clusterblast-orf" id="dummy-1_h1_2_22"  />
</g>
</svg>
