<svg xmlns="http://www.w3.org/2000/svg" xmlns:xlink="http://www.w3.org/1999/xlink" version="1.1" x="0" y="0" height="230" width="800" viewBox="0 0 800 230" preserveAspectRatio="none"  >
<g label="Query sequence" class="clusterblast-cluster"  >
<text x="5" y="20" class="clusterblast-acc"  >
Query sequence</text>
<line x1="10" y1="35" x2="778.0" y2="35" style="stroke-width:1; stroke:grey; "  />
<polygon points="0,35 5,30 5,30 5,40 5,40 0,35 " style="fill:white; stroke-width:1; stroke:black; " description="&lt;b&gt;ctg26_10&lt;/b&gt;&lt;br&gt;ctg26 10&lt;br&gt;Location: 12812 - 13166" locus_tag="ctg26_10" class="clusterblast-orf" id="dummy-1_q0_0_all"  />
<polygon points="7,35 12,30 19,30 19,40 12,40 7,35 " style="fill:white; stroke-width:1; stroke:black; " description="&lt;b&gt;ctg26_11&lt;/b&gt;&lt;br&gt;ctg26 11&lt;br&gt;Location: 13250 - 14048" locus_tag="ctg26_11" class="clusterblast-orf" id="dummy-1_q1_0_all"  />
<polygon points="19,35 24,30 35,30 35,40 24,40 19,35 " style="fill:white; stroke-width:1; stroke:black; " description="&lt;b&gt;ctg26_12&lt;/b&gt;&lt;br&gt;ctg26 12&lt;br&gt;Location: 14063 - 15068" locus_tag="ctg26_12" class="clusterblast-orf" id="dummy-1_q2_0_all"  />
<polygon points="37,40 46,40 51,35 46,30 37,30 37,40 " style="fill:white; stroke-width:1; stroke:black; " description="&lt;b&gt;ctg26_13&lt;/b&gt;&lt;br&gt;ctg26 13&lt;br&gt;Location: 15181 - 16075" locus_tag="ctg26_13" class="clusterblast-orf" id="dummy-1_q3_0_all"  />
<polygon points="53,35 58,30 73,30 73,40 58,40 53,35 " style="fill:#d81515; stroke-width:1; stroke:black; " description="&lt;b&gt;ctg26_14&lt;/b&gt;&lt;br&gt;ctg26 14&lt;br&gt;Location: 16187 - 17483" locus_tag="ctg26_14" class="clusterblast-orf" id="dummy-1_q4_0_all"  />
<polygon points="73,35 78,30 91,30 91,40 78,40 73,35 " style="fill:#3cd815; stroke-width:1; stroke:black; " description="&lt;b&gt;ctg26_15&lt;/b&gt;&lt;br&gt;ctg26 15&lt;br&gt;Location: 17479 - 18568" locus_tag="ctg26_15" class="clusterblast-orf" id="dummy-1_q5_0_all"  />
<polygon points="91,35 96,30 112,30 112,40 96,40 91,35 " style="fill:white; stroke-width:1; stroke:black; " description="&lt;b&gt;ctg26_16&lt;/b&gt;&lt;br&gt;ctg26 16&lt;br&gt;Location: 18590 - 19949" locus_tag="ctg26_16" class="clusterblast-orf" id="dummy-1_q6_0_all"  />
<polygon points="116,40 124,40 129,35 124,30 116,30 116,40 " style="fill:#1563d8; stroke-width:1; stroke:black; " description="&lt;b&gt;ctg26_17&lt;/b&gt;&lt;br&gt;ctg26 17&lt;br&gt;Location: 20186 - 20984" locus_tag="ctg26_17" class="clusterblast-orf" id="dummy-1_q7_0_all"  />
<polygon points="130,40 159,40 164,35 159,30 130,30 130,40 " style="fill:#b115d8; stroke-width:1; stroke:black; " description="&lt;b&gt;ctg26_18&lt;/b&gt;&lt;br&gt;ctg26 18&lt;br&gt;Location: 21089 - 23231" locus_tag="ctg26_18" class="clusterblast-orf" id="dummy-1_q8_0_all"  />
<polygon points="164,35 169,30 182,30 182,40 169,40 164,35 " style="fill:white; stroke-width:1; stroke:black; " description="&lt;b&gt;ctg26_19&lt;/b&gt;&lt;br&gt;ctg26 19&lt;br&gt;Location: 23220 - 24351" locus_tag="ctg26_19" class="clusterblast-orf" id="dummy-1_q9_0_all"  />
<polygon points="183,40 191,40 196,35 191,30 183,30 183,40 " style="fill:white; stroke-width:1; stroke:black; " description="&lt;b&gt;ctg26_20&lt;/b&gt;&lt;br&gt;ctg26 20&lt;br&gt;Location: 24449 - 25220" locus_tag="ctg26_20" class="clusterblast-orf" id="dummy-1_q10_0_all"  />
<polygon points="197,35 202,30 204,30 204,40 202,40 197,35 " style="fill:#d88a15; stroke-width:1; stroke:black; " description="&lt;b&gt;ctg26_21&lt;/b&gt;&lt;br&gt;ctg26 21&lt;br&gt;Location: 25298 - 25769" locus_tag="ctg26_21" class="clusterblast-orf" id="dummy-1_q11_0_all"  />
<polygon points="206,40 221,40 226,35 221,30 206,30 206,40 " style="fill:#15d863; stroke-width:1; stroke:black; " description="&lt;b&gt;ctg26_22&lt;/b&gt;&lt;br&gt;ctg26 22&lt;br&gt;Location: 25892 - 27137" locus_tag="ctg26_22" class="clusterblast-orf" id="dummy-1_q12_0_all"  />
<polygon points="229,40 235,40 240,35 235,30 229,30 229,40 " style="fill:#3c15d8; stroke-width:1; stroke:black; " description="&lt;b&gt;ctg26_23&lt;/b&gt;&lt;br&gt;ctg26 23&lt;br&gt;Location: 27369 - 28047" locus_tag="ctg26_23" class="clusterblast-orf" id="dummy-1_q13_0_all"  />
<polygon points="242,35 247,30 273,30 273,40 247,40 242,35 " style="fill:#d8158a; stroke-width:1; stroke:black; " description="&lt;b&gt;ctg26_24&lt;/b&gt;&lt;br&gt;ctg26 24&lt;br&gt;Location: 28174 - 30133" locus_tag="ctg26_24" class="clusterblast-orf" id="dummy-1_q14_0_all"  />
<polygon points="273,35 278,30 291,30 291,40 278,40 273,35 " style="fill:#b1d815; stroke-width:1; stroke:black; " description="&lt;b&gt;ctg26_25&lt;/b&gt;&lt;br&gt;ctg26 25&lt;br&gt;Location: 30136 - 31279" locus_tag="ctg26_25" class="clusterblast-orf" id="dummy-1_q15_0_all"  />
<polygon points="291,35 296,30 470,30 470,40 296,40 291,35 " style="fill:#15d8d8; stroke-width:1; stroke:black; " description="&lt;b&gt;ctg26_26&lt;/b&gt;&lt;br&gt;ctg26 26&lt;br&gt;Location: 31275 - 42612" locus_tag="ctg26_26" class="clusterblast-orf" id="dummy-1_q16_0_all"  />
<polygon points="470,35 475,30 674,30 674,40 475,40 470,35 " style="fill:#15d8d8; stroke-width:1; stroke:black; " description="&lt;b&gt;ctg26_27&lt;/b&gt;&lt;br&gt;ctg26 27&lt;br&gt;Location: 42608 - 55520" locus_tag="ctg26_27" class="clusterblast-orf" id="dummy-1_q17_0_all"  />
<polygon points="677,35 682,30 686,30 686,40 682,40 677,35 " style="fill:white; stroke-width:1; stroke:black; " description="&lt;b&gt;ctg26_28&lt;/b&gt;&lt;br&gt;ctg26 28&lt;br&gt;Location: 55729 - 56302" locus_tag="ctg26_28" class="clusterblast-orf" id="dummy-1_q18_0_all"  />
<polygon points="688,35 693,30 703,30 703,40 693,40 688,35 " style="fill:white; stroke-width:1; stroke:black; " description="&lt;b&gt;ctg26_29&lt;/b&gt;&lt;br&gt;ctg26 29&lt;br&gt;Location: 56394 - 57393" locus_tag="ctg26_29" class="clusterblast-orf" id="dummy-1_q19_0_all"  />
<polygon points="703,35 708,30 763,30 763,40 708,40 703,35 " style="fill:white; stroke-width:1; stroke:black; " description="&lt;b&gt;ctg26_30&lt;/b&gt;&lt;br&gt;ctg26 30&lt;br&gt;Location: 57392 - 61154" locus_tag="ctg26_30" class="clusterblast-orf" id="dummy-1_q20_0_all"  />
<polygon points="763,35 768,30 780,30 780,40 768,40 763,35 " style="fill:white; stroke-width:1; stroke:black; " description="&lt;b&gt;ctg26_31&lt;/b&gt;&lt;br&gt;ctg26 31&lt;br&gt;Location: 61157 - 62219" locus_tag="ctg26_31" class="clusterblast-orf" id="dummy-1_q21_0_all"  />
</g>
<g label="BGC0000411" description="BGC0000411_c1: putisolvin (75% of genes show similarity), NRP" class="clusterblast-cluster"  >
<text x="5" y="70" class="clusterblast-acc"  >
<a xlink:href="https://mibig.secondarymetabolites.org/go/BGC0000411/1" target="_blank">BGC0000411</a>: putisolvin                                                                       (75% of genes show similarity), NRP</text>
<line x1="10" y1="85" x2="778.0" y2="85" style="stroke-width:1; stroke:grey; "  />
</g>
<g id="a1_000"  >
<polygon points="20,90 25,90 30,85 25,80 20,80 20,90 " style="fill:#3c15d8; stroke-width:1; stroke:black; " description="&lt;b&gt;ABW17380.1&lt;/b&gt;&lt;br&gt;LuxR-like protein&lt;br&gt;Location: 46846 - 46202&lt;br&gt;&lt;br&gt;&lt;b&gt;BlastP hit with ctg26_23&lt;/b&gt;&lt;br&gt;Percentage identity: 56&lt;br&gt;Percentage coverage: 100&lt;br&gt;BLAST bit score: 222&lt;br&gt;E-value: 2.7e-73" locus_tag="ABW17380.1" class="clusterblast-orf" id="dummy-1_h1_8_0"  />
</g>
<g id="a1_001"  >
<polygon points="32,85 37,80 64,80 64,90 37,90 32,85 " style="fill:#d8158a; stroke-width:1; stroke:black; " description="&lt;b&gt;ABW17379.1&lt;/b&gt;&lt;br&gt;MacB&lt;br&gt;Location: 46057 - 44054&lt;br&gt;&lt;br&gt;&lt;b&gt;BlastP hit with ctg26_24&lt;/b&gt;&lt;br&gt;Percentage identity: 80&lt;br&gt;Percentage coverage: 100&lt;br&gt;BLAST bit score: 1005&lt;br&gt;E-value: 0.0" locus_tag="ABW17379.1" class="clusterblast-orf" id="dummy-1_h1_8_1"  />
</g>
<g id="a1_002"  >
<polygon points="64,85 69,80 82,80 82,90 69,90 64,85 " style="fill:#b1d815; stroke-width:1; stroke:black; " description="&lt;b&gt;ABW17378.1&lt;/b&gt;&lt;br&gt;MacA&lt;br&gt;Location: 44051 - 42894&lt;br&gt;&lt;br&gt;&lt;b&gt;BlastP hit with ctg26_25&lt;/b&gt;&lt;br&gt;Percentage identity: 74&lt;br&gt;Percentage coverage: 101&lt;br&gt;BLAST bit score: 528&lt;br&gt;E-value: 4.05e-189" locus_tag="ABW17378.1" class="clusterblast-orf" id="dummy-1_h1_8_2"  />
</g>
<g id="a1_003"  >
<polygon points="83,85 88,80 262,80 262,90 88,90 83,85 " style="fill:#15d8d8; stroke-width:1; stroke:black; " description="&lt;b&gt;ABW17377.1&lt;/b&gt;&lt;br&gt;PsoC&lt;br&gt;Location: 42830 - 31509&lt;br&gt;&lt;br&gt;&lt;b&gt;BlastP hit with ctg26_26&lt;/b&gt;&lt;br&gt;Percentage identity: 51&lt;br&gt;Percentage coverage: 102&lt;br&gt;BLAST bit score: 3419&lt;br&gt;E-value: 0.0" locus_tag="ABW17377.1" class="clusterblast-orf" id="dummy-1_h1_8_3"  />
</g>
<g id="a1_004"  >
<polygon points="262,85 267,80 616,80 616,90 267,90 262,85 " style="fill:#15d8d8; stroke-width:1; stroke:black; " description="&lt;b&gt;ABW17376.1&lt;/b&gt;&lt;br&gt;PsoB&lt;br&gt;Location: 31512 - 9088&lt;br&gt;&lt;br&gt;&lt;b&gt;BlastP hit with ctg26_26&lt;/b&gt;&lt;br&gt;Percentage identity: 52&lt;br&gt;Percentage coverage: 85&lt;br&gt;BLAST bit score: 2873&lt;br&gt;E-value: 0.0&lt;br&gt;&lt;br&gt;&lt;b&gt;BlastP hit with ctg26_27&lt;/b&gt;&lt;br&gt;Percentage identity: 61&lt;br&gt;Percentage coverage: 99&lt;br&gt;BLAST bit score: 4884&lt;br&gt;E-value: 0.0" locus_tag="ABW17376.1" class="clusterblast-orf" id="dummy-1_h1_8_4"  />
</g>
<g id="a1_005"  >
<polygon points="617,85 622,80 717,80 717,90 622,90 617,85 " style="fill:#15d8d8; stroke-width:1; stroke:black; " description="&lt;b&gt;ABW17375.1&lt;/b&gt;&lt;br&gt;PsoA&lt;br&gt;Location: 9060 - 2701&lt;br&gt;&lt;br&gt;&lt;b&gt;BlastP hit with ctg26_27&lt;/b&gt;&lt;br&gt;Percentage identity: 48&lt;br&gt;Percentage coverage: 48&lt;br&gt;BLAST bit score: 1699&lt;br&gt;E-value: 0.0" locus_tag="ABW17375.1" class="clusterblast-orf" id="dummy-1_h1_8_5"  />
</g>
<g id="a1_006"  >
<polygon points="724,90 731,90 736,85 731,80 724,80 724,90 " style="fill:white; stroke-width:1; stroke:black; " description="&lt;b&gt;ABW17374.1&lt;/b&gt;&lt;br&gt;PsoR&lt;br&gt;Location: 2285 - 1503" locus_tag="ABW17374.1" class="clusterblast-orf" id="dummy-1_h1_8_6"  />
</g>
<g id="a1_007"  >
<polygon points="736,90 754,90 759,85 754,80 736,80 736,90 " style="fill:white; stroke-width:1; stroke:black; " description="&lt;b&gt;ABW17373.1&lt;/b&gt;&lt;br&gt;OprM&lt;br&gt;Location: 1485 - 37" locus_tag="ABW17373.1" class="clusterblast-orf" id="dummy-1_h1_8_7"  />
</g>
</svg>
