<svg xmlns="http://www.w3.org/2000/svg" xmlns:xlink="http://www.w3.org/1999/xlink" version="1.1" x="0" y="0" height="230" width="800" viewBox="0 0 800 230" preserveAspectRatio="none"  >
<g label="Query sequence" class="clusterblast-cluster"  >
<text x="5" y="20" class="clusterblast-acc"  >
Query sequence</text>
<line x1="10" y1="35" x2="778.0" y2="35" style="stroke-width:1; stroke:grey; "  />
<polygon points="0,40 2,35 0,30 0,40 " style="fill:white; stroke-width:1; stroke:black; " description="&lt;b&gt;ctg2_30&lt;/b&gt;&lt;br&gt;ctg2 30&lt;br&gt;Location: 35016 - 35277" locus_tag="ctg2_30" class="clusterblast-orf" id="dummy-1_q0_0_all"  />
<polygon points="3,35 8,30 12,30 12,40 8,40 3,35 " style="fill:white; stroke-width:1; stroke:black; " description="&lt;b&gt;ctg2_31&lt;/b&gt;&lt;br&gt;ctg2 31&lt;br&gt;Location: 35352 - 36177" locus_tag="ctg2_31" class="clusterblast-orf" id="dummy-1_q1_0_all"  />
<polygon points="12,35 17,30 27,30 27,40 17,40 12,35 " style="fill:#d81515; stroke-width:1; stroke:black; " description="&lt;b&gt;ctg2_32&lt;/b&gt;&lt;br&gt;ctg2 32&lt;br&gt;Location: 36173 - 37697" locus_tag="ctg2_32" class="clusterblast-orf" id="dummy-1_q2_0_all"  />
<polygon points="27,35 32,30 38,30 38,40 32,40 27,35 " style="fill:#63d815; stroke-width:1; stroke:black; " description="&lt;b&gt;ctg2_33&lt;/b&gt;&lt;br&gt;ctg2 33&lt;br&gt;Location: 37693 - 38677" locus_tag="ctg2_33" class="clusterblast-orf" id="dummy-1_q3_0_all"  />
<polygon points="40,40 42,35 40,30 40,40 " style="fill:#15b1d8; stroke-width:1; stroke:black; " description="&lt;b&gt;ctg2_34&lt;/b&gt;&lt;br&gt;ctg2 34&lt;br&gt;Location: 38946 - 39123" locus_tag="ctg2_34" class="clusterblast-orf" id="dummy-1_q4_0_all"  />
<polygon points="44,40 57,40 62,35 57,30 44,30 44,40 " style="fill:white; stroke-width:1; stroke:black; " description="&lt;b&gt;ctg2_35&lt;/b&gt;&lt;br&gt;ctg2 35&lt;br&gt;Location: 39287 - 41030" locus_tag="ctg2_35" class="clusterblast-orf" id="dummy-1_q5_0_all"  />
<polygon points="63,40 81,40 86,35 81,30 63,30 63,40 " style="fill:white; stroke-width:1; stroke:black; " description="&lt;b&gt;ctg2_36&lt;/b&gt;&lt;br&gt;ctg2 36&lt;br&gt;Location: 41156 - 43385" locus_tag="ctg2_36" class="clusterblast-orf" id="dummy-1_q6_0_all"  />
<polygon points="88,40 90,35 88,30 88,40 " style="fill:white; stroke-width:1; stroke:black; " description="&lt;b&gt;ctg2_37&lt;/b&gt;&lt;br&gt;ctg2 37&lt;br&gt;Location: 43527 - 43749" locus_tag="ctg2_37" class="clusterblast-orf" id="dummy-1_q7_0_all"  />
<polygon points="91,35 96,30 96,30 96,40 96,40 91,35 " style="fill:white; stroke-width:1; stroke:black; " description="&lt;b&gt;ctg2_38&lt;/b&gt;&lt;br&gt;ctg2 38&lt;br&gt;Location: 43850 - 44342" locus_tag="ctg2_38" class="clusterblast-orf" id="dummy-1_q8_0_all"  />
<polygon points="98,35 103,30 109,30 109,40 103,40 98,35 " style="fill:white; stroke-width:1; stroke:black; " description="&lt;b&gt;ctg2_39&lt;/b&gt;&lt;br&gt;ctg2 39&lt;br&gt;Location: 44504 - 45611" locus_tag="ctg2_39" class="clusterblast-orf" id="dummy-1_q9_0_all"  />
<polygon points="110,35 113,30 113,40 110,35 " style="fill:white; stroke-width:1; stroke:black; " description="&lt;b&gt;ctg2_40&lt;/b&gt;&lt;br&gt;ctg2 40&lt;br&gt;Location: 45626 - 45962" locus_tag="ctg2_40" class="clusterblast-orf" id="dummy-1_q10_0_all"  />
<polygon points="114,35 119,30 121,30 121,40 119,40 114,35 " style="fill:white; stroke-width:1; stroke:black; " description="&lt;b&gt;ctg2_41&lt;/b&gt;&lt;br&gt;ctg2 41&lt;br&gt;Location: 46014 - 46731" locus_tag="ctg2_41" class="clusterblast-orf" id="dummy-1_q11_0_all"  />
<polygon points="123,35 128,30 151,30 151,40 128,40 123,35 " style="fill:white; stroke-width:1; stroke:black; " description="&lt;b&gt;ctg2_42&lt;/b&gt;&lt;br&gt;ctg2 42&lt;br&gt;Location: 46937 - 49595" locus_tag="ctg2_42" class="clusterblast-orf" id="dummy-1_q12_0_all"  />
<polygon points="151,35 156,30 159,30 159,40 156,40 151,35 " style="fill:white; stroke-width:1; stroke:black; " description="&lt;b&gt;ctg2_43&lt;/b&gt;&lt;br&gt;ctg2 43&lt;br&gt;Location: 49608 - 50439" locus_tag="ctg2_43" class="clusterblast-orf" id="dummy-1_q13_0_all"  />
<polygon points="159,35 162,30 162,40 159,35 " style="fill:white; stroke-width:1; stroke:black; " description="&lt;b&gt;ctg2_44&lt;/b&gt;&lt;br&gt;ctg2 44&lt;br&gt;Location: 50435 - 50696" locus_tag="ctg2_44" class="clusterblast-orf" id="dummy-1_q14_0_all"  />
<polygon points="162,35 167,30 171,30 171,40 167,40 162,35 " style="fill:white; stroke-width:1; stroke:black; " description="&lt;b&gt;ctg2_45&lt;/b&gt;&lt;br&gt;ctg2 45&lt;br&gt;Location: 50710 - 51580" locus_tag="ctg2_45" class="clusterblast-orf" id="dummy-1_q15_0_all"  />
<polygon points="171,35 176,30 181,30 181,40 176,40 171,35 " style="fill:white; stroke-width:1; stroke:black; " description="&lt;b&gt;ctg2_46&lt;/b&gt;&lt;br&gt;ctg2 46&lt;br&gt;Location: 51576 - 52548" locus_tag="ctg2_46" class="clusterblast-orf" id="dummy-1_q16_0_all"  />
<polygon points="181,35 186,30 190,30 190,40 186,40 181,35 " style="fill:white; stroke-width:1; stroke:black; " description="&lt;b&gt;ctg2_47&lt;/b&gt;&lt;br&gt;ctg2 47&lt;br&gt;Location: 52547 - 53438" locus_tag="ctg2_47" class="clusterblast-orf" id="dummy-1_q17_0_all"  />
<polygon points="192,40 197,40 202,35 197,30 192,30 192,40 " style="fill:white; stroke-width:1; stroke:black; " description="&lt;b&gt;ctg2_48&lt;/b&gt;&lt;br&gt;ctg2 48&lt;br&gt;Location: 53581 - 54529" locus_tag="ctg2_48" class="clusterblast-orf" id="dummy-1_q18_0_all"  />
<polygon points="202,35 207,30 219,30 219,40 207,40 202,35 " style="fill:#b115d8; stroke-width:1; stroke:black; " description="&lt;b&gt;ctg2_49&lt;/b&gt;&lt;br&gt;ctg2 49&lt;br&gt;Location: 54521 - 56141" locus_tag="ctg2_49" class="clusterblast-orf" id="dummy-1_q19_0_all"  />
<polygon points="220,40 229,40 234,35 229,30 220,30 220,40 " style="fill:#d86315; stroke-width:1; stroke:black; " description="&lt;b&gt;ctg2_50&lt;/b&gt;&lt;br&gt;ctg2 50&lt;br&gt;Location: 56283 - 57633" locus_tag="ctg2_50" class="clusterblast-orf" id="dummy-1_q20_0_all"  />
<polygon points="234,40 242,40 247,35 242,30 234,30 234,40 " style="fill:#15d815; stroke-width:1; stroke:black; " description="&lt;b&gt;ctg2_51&lt;/b&gt;&lt;br&gt;ctg2 51&lt;br&gt;Location: 57651 - 58932" locus_tag="ctg2_51" class="clusterblast-orf" id="dummy-1_q21_0_all"  />
<polygon points="248,40 252,40 257,35 252,30 248,30 248,40 " style="fill:#1563d8; stroke-width:1; stroke:black; " description="&lt;b&gt;ctg2_52&lt;/b&gt;&lt;br&gt;ctg2 52&lt;br&gt;Location: 58965 - 59838" locus_tag="ctg2_52" class="clusterblast-orf" id="dummy-1_q22_0_all"  />
<polygon points="259,35 264,30 268,30 268,40 264,40 259,35 " style="fill:#d815b1; stroke-width:1; stroke:black; " description="&lt;b&gt;ctg2_53&lt;/b&gt;&lt;br&gt;ctg2 53&lt;br&gt;Location: 60076 - 60904" locus_tag="ctg2_53" class="clusterblast-orf" id="dummy-1_q23_0_all"  />
<polygon points="270,40 282,40 287,35 282,30 270,30 270,40 " style="fill:#d8b115; stroke-width:1; stroke:black; " description="&lt;b&gt;ctg2_54&lt;/b&gt;&lt;br&gt;ctg2 54&lt;br&gt;Location: 61102 - 62755" locus_tag="ctg2_54" class="clusterblast-orf" id="dummy-1_q24_0_all"  />
<polygon points="288,40 308,40 313,35 308,30 288,30 288,40 " style="fill:#15d863; stroke-width:1; stroke:black; " description="&lt;b&gt;ctg2_55&lt;/b&gt;&lt;br&gt;ctg2 55&lt;br&gt;Location: 62864 - 65306" locus_tag="ctg2_55" class="clusterblast-orf" id="dummy-1_q25_0_all"  />
<polygon points="315,35 320,30 438,30 438,40 320,40 315,35 " style="fill:#1515d8; stroke-width:1; stroke:black; " description="&lt;b&gt;ctg2_56&lt;/b&gt;&lt;br&gt;ctg2 56&lt;br&gt;Location: 65450 - 77303" locus_tag="ctg2_56" class="clusterblast-orf" id="dummy-1_q26_0_all"  />
<polygon points="438,35 443,30 583,30 583,40 443,40 438,35 " style="fill:#1515d8; stroke-width:1; stroke:black; " description="&lt;b&gt;ctg2_57&lt;/b&gt;&lt;br&gt;ctg2 57&lt;br&gt;Location: 77306 - 91361" locus_tag="ctg2_57" class="clusterblast-orf" id="dummy-1_q27_0_all"  />
<polygon points="586,40 588,35 586,30 586,40 " style="fill:#d81563; stroke-width:1; stroke:black; " description="&lt;b&gt;ctg2_58&lt;/b&gt;&lt;br&gt;ctg2 58&lt;br&gt;Location: 91569 - 91821" locus_tag="ctg2_58" class="clusterblast-orf" id="dummy-1_q28_0_all"  />
<polygon points="588,40 592,35 588,30 588,40 " style="fill:#b1d815; stroke-width:1; stroke:black; " description="&lt;b&gt;ctg2_59&lt;/b&gt;&lt;br&gt;ctg2 59&lt;br&gt;Location: 91817 - 92183" locus_tag="ctg2_59" class="clusterblast-orf" id="dummy-1_q29_0_all"  />
<polygon points="592,35 597,30 604,30 604,40 597,40 592,35 " style="fill:#15d8b1; stroke-width:1; stroke:black; " description="&lt;b&gt;ctg2_60&lt;/b&gt;&lt;br&gt;ctg2 60&lt;br&gt;Location: 92165 - 93356" locus_tag="ctg2_60" class="clusterblast-orf" id="dummy-1_q30_0_all"  />
<polygon points="606,40 607,40 612,35 607,30 606,30 606,40 " style="fill:#6315d8; stroke-width:1; stroke:black; " description="&lt;b&gt;ctg2_61&lt;/b&gt;&lt;br&gt;ctg2 61&lt;br&gt;Location: 93498 - 94092" locus_tag="ctg2_61" class="clusterblast-orf" id="dummy-1_q31_0_all"  />
<polygon points="612,35 617,30 626,30 626,40 617,40 612,35 " style="fill:white; stroke-width:1; stroke:black; " description="&lt;b&gt;ctg2_62&lt;/b&gt;&lt;br&gt;ctg2 62&lt;br&gt;Location: 94075 - 95431" locus_tag="ctg2_62" class="clusterblast-orf" id="dummy-1_q32_0_all"  />
<polygon points="626,35 631,30 632,30 632,40 631,40 626,35 " style="fill:white; stroke-width:1; stroke:black; " description="&lt;b&gt;ctg2_63&lt;/b&gt;&lt;br&gt;ctg2 63&lt;br&gt;Location: 95456 - 96029" locus_tag="ctg2_63" class="clusterblast-orf" id="dummy-1_q33_0_all"  />
<polygon points="633,35 638,30 642,30 642,40 638,40 633,35 " style="fill:white; stroke-width:1; stroke:black; " description="&lt;b&gt;ctg2_64&lt;/b&gt;&lt;br&gt;ctg2 64&lt;br&gt;Location: 96096 - 97053" locus_tag="ctg2_64" class="clusterblast-orf" id="dummy-1_q34_0_all"  />
<polygon points="642,35 647,30 653,30 653,40 647,40 642,35 " style="fill:white; stroke-width:1; stroke:black; " description="&lt;b&gt;ctg2_65&lt;/b&gt;&lt;br&gt;ctg2 65&lt;br&gt;Location: 97056 - 98100" locus_tag="ctg2_65" class="clusterblast-orf" id="dummy-1_q35_0_all"  />
<polygon points="653,35 657,30 657,40 653,35 " style="fill:white; stroke-width:1; stroke:black; " description="&lt;b&gt;ctg2_66&lt;/b&gt;&lt;br&gt;ctg2 66&lt;br&gt;Location: 98115 - 98463" locus_tag="ctg2_66" class="clusterblast-orf" id="dummy-1_q36_0_all"  />
<polygon points="657,35 662,30 670,30 670,40 662,40 657,35 " style="fill:white; stroke-width:1; stroke:black; " description="&lt;b&gt;ctg2_67&lt;/b&gt;&lt;br&gt;ctg2 67&lt;br&gt;Location: 98465 - 99695" locus_tag="ctg2_67" class="clusterblast-orf" id="dummy-1_q37_0_all"  />
<polygon points="672,35 677,30 679,30 679,40 677,40 672,35 " style="fill:white; stroke-width:1; stroke:black; " description="&lt;b&gt;ctg2_68&lt;/b&gt;&lt;br&gt;ctg2 68&lt;br&gt;Location: 99914 - 100604" locus_tag="ctg2_68" class="clusterblast-orf" id="dummy-1_q38_0_all"  />
<polygon points="679,35 684,30 687,30 687,40 684,40 679,35 " style="fill:white; stroke-width:1; stroke:black; " description="&lt;b&gt;ctg2_69&lt;/b&gt;&lt;br&gt;ctg2 69&lt;br&gt;Location: 100614 - 101373" locus_tag="ctg2_69" class="clusterblast-orf" id="dummy-1_q39_0_all"  />
<polygon points="687,35 692,30 699,30 699,40 692,40 687,35 " style="fill:white; stroke-width:1; stroke:black; " description="&lt;b&gt;ctg2_70&lt;/b&gt;&lt;br&gt;ctg2 70&lt;br&gt;Location: 101369 - 102530" locus_tag="ctg2_70" class="clusterblast-orf" id="dummy-1_q40_0_all"  />
<polygon points="699,35 704,30 709,30 709,40 704,40 699,35 " style="fill:white; stroke-width:1; stroke:black; " description="&lt;b&gt;ctg2_71&lt;/b&gt;&lt;br&gt;ctg2 71&lt;br&gt;Location: 102540 - 103458" locus_tag="ctg2_71" class="clusterblast-orf" id="dummy-1_q41_0_all"  />
<polygon points="711,35 716,30 723,30 723,40 716,40 711,35 " style="fill:white; stroke-width:1; stroke:black; " description="&lt;b&gt;ctg2_72&lt;/b&gt;&lt;br&gt;ctg2 72&lt;br&gt;Location: 103636 - 104845" locus_tag="ctg2_72" class="clusterblast-orf" id="dummy-1_q42_0_all"  />
<polygon points="726,40 756,40 761,35 756,30 726,30 726,40 " style="fill:white; stroke-width:1; stroke:black; " description="&lt;b&gt;ctg2_73&lt;/b&gt;&lt;br&gt;ctg2 73&lt;br&gt;Location: 105147 - 108531" locus_tag="ctg2_73" class="clusterblast-orf" id="dummy-1_q43_0_all"  />
<polygon points="761,40 763,40 768,35 763,30 761,30 761,40 " style="fill:white; stroke-width:1; stroke:black; " description="&lt;b&gt;ctg2_74&lt;/b&gt;&lt;br&gt;ctg2 74&lt;br&gt;Location: 108505 - 109171" locus_tag="ctg2_74" class="clusterblast-orf" id="dummy-1_q44_0_all"  />
<polygon points="770,35 775,30 780,30 780,40 775,40 770,35 " style="fill:white; stroke-width:1; stroke:black; " description="&lt;b&gt;ctg2_75&lt;/b&gt;&lt;br&gt;ctg2 75&lt;br&gt;Location: 109374 - 110289" locus_tag="ctg2_75" class="clusterblast-orf" id="dummy-1_q45_0_all"  />
</g>
<g label="BGC0002419" description="BGC0002419_c1: acidobactin A/acidobactin B (18% of genes show similarity), NRP+Polyketide" class="clusterblast-cluster"  >
<text x="5" y="70" class="clusterblast-acc"  >
<a xlink:href="https://mibig.secondarymetabolites.org/go/BGC0002419/1" target="_blank">BGC0002419</a>: acidobactin A/acidobactin B                                                      (18% of genes show similarity), NRP+Polyketide</text>
<line x1="10" y1="85" x2="778.0" y2="85" style="stroke-width:1; stroke:grey; "  />
</g>
<g id="a1_000"  >
<polygon points="192,90 193,90 198,85 193,80 192,80 192,90 " style="fill:white; stroke-width:1; stroke:black; " description="&lt;b&gt;Aave_3737&lt;/b&gt;&lt;br&gt;RNA polymerase, sigma-24 subunit, ECF subfamily&lt;br&gt;Location: 38028 - 37495" locus_tag="Aave_3737" class="clusterblast-orf" id="dummy-1_h1_8_0"  />
</g>
<g id="a1_001"  >
<polygon points="203,90 206,85 203,80 203,90 " style="fill:white; stroke-width:1; stroke:black; " description="&lt;b&gt;Aave_3736&lt;/b&gt;&lt;br&gt;MbtH domain protein&lt;br&gt;Location: 37053 - 36766" locus_tag="Aave_3736" class="clusterblast-orf" id="dummy-1_h1_8_1"  />
</g>
<g id="a1_002"  >
<polygon points="206,90 209,90 214,85 209,80 206,80 206,90 " style="fill:white; stroke-width:1; stroke:black; " description="&lt;b&gt;Aave_3735&lt;/b&gt;&lt;br&gt;Thioesterase&lt;br&gt;Location: 36760 - 35984" locus_tag="Aave_3735" class="clusterblast-orf" id="dummy-1_h1_8_2"  />
</g>
<g id="a1_003"  >
<polygon points="215,90 220,90 225,85 220,80 215,80 215,90 " style="fill:white; stroke-width:1; stroke:black; " description="&lt;b&gt;Aave_3734&lt;/b&gt;&lt;br&gt;Taurine catabolism dioxygenase TauD/TfdA&lt;br&gt;Location: 35888 - 34896" locus_tag="Aave_3734" class="clusterblast-orf" id="dummy-1_h1_8_3"  />
</g>
<g id="a1_004"  >
<polygon points="225,90 275,90 280,85 275,80 225,80 225,90 " style="fill:white; stroke-width:1; stroke:black; " description="&lt;b&gt;Aave_3733&lt;/b&gt;&lt;br&gt;amino acid adenylation domain protein&lt;br&gt;Location: 34899 - 29560" locus_tag="Aave_3733" class="clusterblast-orf" id="dummy-1_h1_8_4"  />
</g>
<g id="a1_005"  >
<polygon points="280,90 323,90 328,85 323,80 280,80 280,90 " style="fill:white; stroke-width:1; stroke:black; " description="&lt;b&gt;Aave_3732&lt;/b&gt;&lt;br&gt;beta-ketoacyl synthase&lt;br&gt;Location: 29551 - 24944" locus_tag="Aave_3732" class="clusterblast-orf" id="dummy-1_h1_8_5"  />
</g>
<g id="a1_006"  >
<polygon points="328,90 358,90 363,85 358,80 328,80 328,90 " style="fill:white; stroke-width:1; stroke:black; " description="&lt;b&gt;Aave_3731&lt;/b&gt;&lt;br&gt;amino acid adenylation domain protein&lt;br&gt;Location: 24942 - 21550" locus_tag="Aave_3731" class="clusterblast-orf" id="dummy-1_h1_8_6"  />
</g>
<g id="a1_007"  >
<polygon points="364,90 441,90 446,85 441,80 364,80 364,90 " style="fill:#1515d8; stroke-width:1; stroke:black; " description="&lt;b&gt;Aave_3730&lt;/b&gt;&lt;br&gt;amino acid adenylation domain protein&lt;br&gt;Location: 21517 - 13562&lt;br&gt;&lt;br&gt;&lt;b&gt;BlastP hit with ctg2_56&lt;/b&gt;&lt;br&gt;Percentage identity: 46&lt;br&gt;Percentage coverage: 66&lt;br&gt;BLAST bit score: 2033&lt;br&gt;E-value: 0.0" locus_tag="Aave_3730" class="clusterblast-orf" id="dummy-1_h1_8_7"  />
</g>
<g id="a1_008"  >
<polygon points="446,90 484,90 489,85 484,80 446,80 446,90 " style="fill:white; stroke-width:1; stroke:black; " description="&lt;b&gt;Aave_3729&lt;/b&gt;&lt;br&gt;amino acid adenylation domain protein&lt;br&gt;Location: 13534 - 9428" locus_tag="Aave_3729" class="clusterblast-orf" id="dummy-1_h1_8_8"  />
</g>
<g id="a1_009"  >
<polygon points="489,85 494,80 512,80 512,90 494,90 489,85 " style="fill:white; stroke-width:1; stroke:black; " description="&lt;b&gt;Aave_3728&lt;/b&gt;&lt;br&gt;TonB-dependent siderophore receptor&lt;br&gt;Location: 9393 - 7192" locus_tag="Aave_3728" class="clusterblast-orf" id="dummy-1_h1_8_9"  />
</g>
<g id="a1_0010"  >
<polygon points="513,85 518,80 525,80 525,90 518,90 513,85 " style="fill:white; stroke-width:1; stroke:black; " description="&lt;b&gt;Aave_3727&lt;/b&gt;&lt;br&gt;conserved hypothetical protein&lt;br&gt;Location: 7080 - 5980" locus_tag="Aave_3727" class="clusterblast-orf" id="dummy-1_h1_8_10"  />
</g>
<g id="a1_0011"  >
<polygon points="525,85 530,80 535,80 535,90 530,90 525,85 " style="fill:#d815b1; stroke-width:1; stroke:black; " description="&lt;b&gt;Aave_3726&lt;/b&gt;&lt;br&gt;conserved hypothetical protein&lt;br&gt;Location: 5959 - 5018&lt;br&gt;&lt;br&gt;&lt;b&gt;BlastP hit with ctg2_53&lt;/b&gt;&lt;br&gt;Percentage identity: 62&lt;br&gt;Percentage coverage: 99&lt;br&gt;BLAST bit score: 343&lt;br&gt;E-value: 1.05e-118" locus_tag="Aave_3726" class="clusterblast-orf" id="dummy-1_h1_8_11"  />
</g>
<g id="a1_0012"  >
<polygon points="535,85 540,80 543,80 543,90 540,90 535,85 " style="fill:white; stroke-width:1; stroke:black; " description="&lt;b&gt;Aave_3725&lt;/b&gt;&lt;br&gt;ferric iron reductase protein FhuF&lt;br&gt;Location: 5011 - 4181" locus_tag="Aave_3725" class="clusterblast-orf" id="dummy-1_h1_8_12"  />
</g>
<g id="a1_0013"  >
<polygon points="545,90 558,90 563,85 558,80 545,80 545,90 " style="fill:#d8b115; stroke-width:1; stroke:black; " description="&lt;b&gt;Aave_3724&lt;/b&gt;&lt;br&gt;cyclic peptide transporter&lt;br&gt;Location: 3978 - 2284&lt;br&gt;&lt;br&gt;&lt;b&gt;BlastP hit with ctg2_54&lt;/b&gt;&lt;br&gt;Percentage identity: 54&lt;br&gt;Percentage coverage: 97&lt;br&gt;BLAST bit score: 551&lt;br&gt;E-value: 1.36e-192" locus_tag="Aave_3724" class="clusterblast-orf" id="dummy-1_h1_8_13"  />
</g>
<g id="a1_0014"  >
<polygon points="564,90 573,90 578,85 573,80 564,80 564,90 " style="fill:white; stroke-width:1; stroke:black; " description="&lt;b&gt;Aave_3723&lt;/b&gt;&lt;br&gt;L-lysine 6-monooxygenase (NADPH)&lt;br&gt;Location: 2217 - 859" locus_tag="Aave_3723" class="clusterblast-orf" id="dummy-1_h1_8_14"  />
</g>
<g id="a1_0015"  >
<polygon points="579,90 582,90 587,85 582,80 579,80 579,90 " style="fill:white; stroke-width:1; stroke:black; " description="&lt;b&gt;Aave_3722&lt;/b&gt;&lt;br&gt;4'-phosphopantetheinyl transferase&lt;br&gt;Location: 774 - 1" locus_tag="Aave_3722" class="clusterblast-orf" id="dummy-1_h1_8_15"  />
</g>
</svg>
