<svg xmlns="http://www.w3.org/2000/svg" xmlns:xlink="http://www.w3.org/1999/xlink" version="1.1" x="0" y="0" height="50" width="800" viewBox="0 0 800 50" preserveAspectRatio="none"  >
<g label="Query sequence" class="clusterblast-cluster"  >
<text x="5" y="20" class="clusterblast-acc"  >
Query sequence</text>
<line x1="10" y1="35" x2="778.0" y2="35" style="stroke-width:1; stroke:grey; "  />
<polygon points="0,35 5,30 43,30 43,40 5,40 0,35 " style="fill:white; stroke-width:1; stroke:black; " description="&lt;b&gt;ctg1_608&lt;/b&gt;&lt;br&gt;ctg1 608&lt;br&gt;Location: 639179 - 639701" locus_tag="ctg1_608" class="clusterblast-orf" id="knownclusterblast-2_q0_0_all"  />
<polygon points="53,40 165,40 170,35 165,30 53,30 53,40 " style="fill:white; stroke-width:1; stroke:black; " description="&lt;b&gt;ctg1_609&lt;/b&gt;&lt;br&gt;ctg1 609&lt;br&gt;Location: 639831 - 641271" locus_tag="ctg1_609" class="clusterblast-orf" id="knownclusterblast-2_q1_0_all"  />
<polygon points="194,35 199,30 290,30 290,40 199,40 194,35 " style="fill:white; stroke-width:1; stroke:black; " description="&lt;b&gt;ctg1_610&lt;/b&gt;&lt;br&gt;ctg1 610&lt;br&gt;Location: 641571 - 642756" locus_tag="ctg1_610" class="clusterblast-orf" id="knownclusterblast-2_q2_0_all"  />
<polygon points="297,35 302,30 361,30 361,40 302,40 297,35 " style="fill:white; stroke-width:1; stroke:black; " description="&lt;b&gt;ctg1_611&lt;/b&gt;&lt;br&gt;ctg1 611&lt;br&gt;Location: 642843 - 643632" locus_tag="ctg1_611" class="clusterblast-orf" id="knownclusterblast-2_q3_0_all"  />
<polygon points="360,35 365,30 429,30 429,40 365,40 360,35 " style="fill:white; stroke-width:1; stroke:black; " description="&lt;b&gt;ctg1_612&lt;/b&gt;&lt;br&gt;ctg1 612&lt;br&gt;Location: 643622 - 644468" locus_tag="ctg1_612" class="clusterblast-orf" id="knownclusterblast-2_q4_0_all"  />
<polygon points="434,35 439,30 455,30 455,40 439,40 434,35 " style="fill:white; stroke-width:1; stroke:black; " description="&lt;b&gt;ctg1_613&lt;/b&gt;&lt;br&gt;ctg1 613&lt;br&gt;Location: 644535 - 644787" locus_tag="ctg1_613" class="clusterblast-orf" id="knownclusterblast-2_q5_0_all"  />
<polygon points="464,35 469,30 617,30 617,40 469,40 464,35 " style="fill:white; stroke-width:1; stroke:black; " description="&lt;b&gt;ctg1_614&lt;/b&gt;&lt;br&gt;ctg1 614&lt;br&gt;Location: 644904 - 646791" locus_tag="ctg1_614" class="clusterblast-orf" id="knownclusterblast-2_q6_0_all"  />
<polygon points="617,35 622,30 700,30 700,40 622,40 617,35 " style="fill:white; stroke-width:1; stroke:black; " description="&lt;b&gt;ctg1_615&lt;/b&gt;&lt;br&gt;ctg1 615&lt;br&gt;Location: 646787 - 647822" locus_tag="ctg1_615" class="clusterblast-orf" id="knownclusterblast-2_q7_0_all"  />
<polygon points="700,35 705,30 780,30 780,40 705,40 700,35 " style="fill:white; stroke-width:1; stroke:black; " description="&lt;b&gt;ctg1_616&lt;/b&gt;&lt;br&gt;ctg1 616&lt;br&gt;Location: 647818 - 648808" locus_tag="ctg1_616" class="clusterblast-orf" id="knownclusterblast-2_q8_0_all"  />
</g>
</svg>
