<svg xmlns="http://www.w3.org/2000/svg" xmlns:xlink="http://www.w3.org/1999/xlink" version="1.1" x="0" y="0" height="230" width="800" viewBox="0 0 800 230" preserveAspectRatio="none"  >
<g label="Query sequence" class="clusterblast-cluster"  >
<text x="5" y="20" class="clusterblast-acc"  >
Query sequence</text>
<line x1="10" y1="35" x2="778.0" y2="35" style="stroke-width:1; stroke:grey; "  />
<polygon points="0,40 3,40 8,35 3,30 0,30 0,40 " style="fill:#d81515; stroke-width:1; stroke:black; " description="&lt;b&gt;ctg3_486&lt;/b&gt;&lt;br&gt;ctg3 486&lt;br&gt;Location: 508690 - 508960" locus_tag="ctg3_486" class="clusterblast-orf" id="dummy-1_q0_0_all"  />
<polygon points="12,40 70,40 75,35 70,30 12,30 12,40 " style="fill:#15d863; stroke-width:1; stroke:black; " description="&lt;b&gt;ctg3_487&lt;/b&gt;&lt;br&gt;ctg3 487&lt;br&gt;Location: 509091 - 511248" locus_tag="ctg3_487" class="clusterblast-orf" id="dummy-1_q1_0_all"  />
<polygon points="75,40 100,40 105,35 100,30 75,30 75,40 " style="fill:white; stroke-width:1; stroke:black; " description="&lt;b&gt;ctg3_488&lt;/b&gt;&lt;br&gt;ctg3 488&lt;br&gt;Location: 511249 - 512248" locus_tag="ctg3_488" class="clusterblast-orf" id="dummy-1_q2_0_all"  />
<polygon points="104,40 122,40 127,35 122,30 104,30 104,40 " style="fill:white; stroke-width:1; stroke:black; " description="&lt;b&gt;ctg3_489&lt;/b&gt;&lt;br&gt;ctg3 489&lt;br&gt;Location: 512244 - 513003" locus_tag="ctg3_489" class="clusterblast-orf" id="dummy-1_q3_0_all"  />
<polygon points="127,40 139,40 144,35 139,30 127,30 127,40 " style="fill:white; stroke-width:1; stroke:black; " description="&lt;b&gt;ctg3_490&lt;/b&gt;&lt;br&gt;ctg3 490&lt;br&gt;Location: 512999 - 513599" locus_tag="ctg3_490" class="clusterblast-orf" id="dummy-1_q4_0_all"  />
<polygon points="144,40 159,40 164,35 159,30 144,30 144,40 " style="fill:white; stroke-width:1; stroke:black; " description="&lt;b&gt;ctg3_491&lt;/b&gt;&lt;br&gt;ctg3 491&lt;br&gt;Location: 513595 - 514255" locus_tag="ctg3_491" class="clusterblast-orf" id="dummy-1_q5_0_all"  />
<polygon points="169,40 187,40 192,35 187,30 169,30 169,40 " style="fill:white; stroke-width:1; stroke:black; " description="&lt;b&gt;ctg3_492&lt;/b&gt;&lt;br&gt;ctg3 492&lt;br&gt;Location: 514445 - 515207" locus_tag="ctg3_492" class="clusterblast-orf" id="dummy-1_q6_0_all"  />
<polygon points="196,40 221,40 226,35 221,30 196,30 196,40 " style="fill:white; stroke-width:1; stroke:black; " description="&lt;b&gt;ctg3_493&lt;/b&gt;&lt;br&gt;ctg3 493&lt;br&gt;Location: 515346 - 516366" locus_tag="ctg3_493" class="clusterblast-orf" id="dummy-1_q7_0_all"  />
<polygon points="232,40 246,40 251,35 246,30 232,30 232,40 " style="fill:white; stroke-width:1; stroke:black; " description="&lt;b&gt;ctg3_494&lt;/b&gt;&lt;br&gt;ctg3 494&lt;br&gt;Location: 516588 - 517209" locus_tag="ctg3_494" class="clusterblast-orf" id="dummy-1_q8_0_all"  />
<polygon points="252,40 258,40 263,35 258,30 252,30 252,40 " style="fill:white; stroke-width:1; stroke:black; " description="&lt;b&gt;ctg3_495&lt;/b&gt;&lt;br&gt;ctg3 495&lt;br&gt;Location: 517239 - 517632" locus_tag="ctg3_495" class="clusterblast-orf" id="dummy-1_q9_0_all"  />
<polygon points="269,40 293,40 298,35 293,30 269,30 269,40 " style="fill:white; stroke-width:1; stroke:black; " description="&lt;b&gt;ctg3_496&lt;/b&gt;&lt;br&gt;ctg3 496&lt;br&gt;Location: 517847 - 518825" locus_tag="ctg3_496" class="clusterblast-orf" id="dummy-1_q10_0_all"  />
<polygon points="307,40 327,40 332,35 327,30 307,30 307,40 " style="fill:white; stroke-width:1; stroke:black; " description="&lt;b&gt;ctg3_497&lt;/b&gt;&lt;br&gt;ctg3 497&lt;br&gt;Location: 519110 - 519962" locus_tag="ctg3_497" class="clusterblast-orf" id="dummy-1_q11_0_all"  />
<polygon points="336,40 372,40 377,35 372,30 336,30 336,40 " style="fill:#1563d8; stroke-width:1; stroke:black; " description="&lt;b&gt;ctg3_498&lt;/b&gt;&lt;br&gt;ctg3 498&lt;br&gt;Location: 520106 - 521483" locus_tag="ctg3_498" class="clusterblast-orf" id="dummy-1_q12_0_all"  />
<polygon points="376,40 406,40 411,35 406,30 376,30 376,40 " style="fill:#b115d8; stroke-width:1; stroke:black; " description="&lt;b&gt;ctg3_499&lt;/b&gt;&lt;br&gt;ctg3 499&lt;br&gt;Location: 521479 - 522646" locus_tag="ctg3_499" class="clusterblast-orf" id="dummy-1_q13_0_all"  />
<polygon points="427,35 432,30 492,30 492,40 432,40 427,35 " style="fill:#b1d815; stroke-width:1; stroke:black; " description="&lt;b&gt;ctg3_500&lt;/b&gt;&lt;br&gt;ctg3 500&lt;br&gt;Location: 523193 - 525392" locus_tag="ctg3_500" class="clusterblast-orf" id="dummy-1_q14_0_all"  />
<polygon points="496,40 509,40 514,35 509,30 496,30 496,40 " style="fill:white; stroke-width:1; stroke:black; " description="&lt;b&gt;ctg3_501&lt;/b&gt;&lt;br&gt;ctg3 501&lt;br&gt;Location: 525528 - 526149" locus_tag="ctg3_501" class="clusterblast-orf" id="dummy-1_q15_0_all"  />
<polygon points="514,35 519,30 534,30 534,40 519,40 514,35 " style="fill:white; stroke-width:1; stroke:black; " description="&lt;b&gt;ctg3_502&lt;/b&gt;&lt;br&gt;ctg3 502&lt;br&gt;Location: 526162 - 526819" locus_tag="ctg3_502" class="clusterblast-orf" id="dummy-1_q16_0_all"  />
<polygon points="537,40 551,40 556,35 551,30 537,30 537,40 " style="fill:white; stroke-width:1; stroke:black; " description="&lt;b&gt;ctg3_503&lt;/b&gt;&lt;br&gt;ctg3 503&lt;br&gt;Location: 526930 - 527563" locus_tag="ctg3_503" class="clusterblast-orf" id="dummy-1_q17_0_all"  />
<polygon points="556,40 575,40 580,35 575,30 556,30 556,40 " style="fill:white; stroke-width:1; stroke:black; " description="&lt;b&gt;ctg3_504&lt;/b&gt;&lt;br&gt;ctg3 504&lt;br&gt;Location: 527591 - 528398" locus_tag="ctg3_504" class="clusterblast-orf" id="dummy-1_q18_0_all"  />
<polygon points="583,40 583,40 588,35 583,30 583,30 583,40 " style="fill:white; stroke-width:1; stroke:black; " description="&lt;b&gt;ctg3_505&lt;/b&gt;&lt;br&gt;ctg3 505&lt;br&gt;Location: 528499 - 528655" locus_tag="ctg3_505" class="clusterblast-orf" id="dummy-1_q19_0_all"  />
<polygon points="589,40 623,40 628,35 623,30 589,30 589,40 " style="fill:white; stroke-width:1; stroke:black; " description="&lt;b&gt;ctg3_506&lt;/b&gt;&lt;br&gt;ctg3 506&lt;br&gt;Location: 528705 - 530019" locus_tag="ctg3_506" class="clusterblast-orf" id="dummy-1_q20_0_all"  />
<polygon points="630,40 642,40 647,35 642,30 630,30 630,40 " style="fill:white; stroke-width:1; stroke:black; " description="&lt;b&gt;ctg3_507&lt;/b&gt;&lt;br&gt;ctg3 507&lt;br&gt;Location: 530088 - 530667" locus_tag="ctg3_507" class="clusterblast-orf" id="dummy-1_q21_0_all"  />
<polygon points="648,35 653,30 662,30 662,40 653,40 648,35 " style="fill:white; stroke-width:1; stroke:black; " description="&lt;b&gt;ctg3_508&lt;/b&gt;&lt;br&gt;ctg3 508&lt;br&gt;Location: 530710 - 531160" locus_tag="ctg3_508" class="clusterblast-orf" id="dummy-1_q22_0_all"  />
<polygon points="661,35 666,30 675,30 675,40 666,40 661,35 " style="fill:white; stroke-width:1; stroke:black; " description="&lt;b&gt;ctg3_509&lt;/b&gt;&lt;br&gt;ctg3 509&lt;br&gt;Location: 531152 - 531605" locus_tag="ctg3_509" class="clusterblast-orf" id="dummy-1_q23_0_all"  />
<polygon points="683,40 736,40 741,35 736,30 683,30 683,40 " style="fill:white; stroke-width:1; stroke:black; " description="&lt;b&gt;ctg3_510&lt;/b&gt;&lt;br&gt;ctg3 510&lt;br&gt;Location: 531897 - 533850" locus_tag="ctg3_510" class="clusterblast-orf" id="dummy-1_q24_0_all"  />
<polygon points="743,35 748,30 766,30 766,40 748,40 743,35 " style="fill:white; stroke-width:1; stroke:black; " description="&lt;b&gt;ctg3_511&lt;/b&gt;&lt;br&gt;ctg3 511&lt;br&gt;Location: 533929 - 534700" locus_tag="ctg3_511" class="clusterblast-orf" id="dummy-1_q25_0_all"  />
<polygon points="766,35 771,30 780,30 780,40 771,40 766,35 " style="fill:white; stroke-width:1; stroke:black; " description="&lt;b&gt;ctg3_512&lt;/b&gt;&lt;br&gt;ctg3 512&lt;br&gt;Location: 534696 - 535176" locus_tag="ctg3_512" class="clusterblast-orf" id="dummy-1_q26_0_all"  />
</g>
<g label="BGC0001285" description="BGC0001285_c1: pseudopyronine A/pseudopyronine B (18% of genes show similarity), Other:Fatty acid" class="clusterblast-cluster"  >
<text x="5" y="70" class="clusterblast-acc"  >
<a xlink:href="https://mibig.secondarymetabolites.org/go/BGC0001285/1" target="_blank">BGC0001285</a>: pseudopyronine A/pseudopyronine B                                                (18% of genes show similarity), Other:Fatty acid</text>
<line x1="10" y1="85" x2="778.0" y2="85" style="stroke-width:1; stroke:grey; "  />
</g>
<g id="a1_000"  >
<polygon points="59,90 67,90 72,85 67,80 59,80 59,90 " style="fill:white; stroke-width:1; stroke:black; " description="&lt;b&gt;ALJ01853.1&lt;/b&gt;&lt;br&gt;membrane protein&lt;br&gt;Location: 9 - 476" locus_tag="ALJ01853.1" class="clusterblast-orf" id="dummy-1_h1_1_0"  />
</g>
<g id="a1_001"  >
<polygon points="74,85 79,80 138,80 138,90 79,90 74,85 " style="fill:#b1d815; stroke-width:1; stroke:black; " description="&lt;b&gt;ALJ01854.1&lt;/b&gt;&lt;br&gt;hypothetical protein&lt;br&gt;Location: 526 - 2718&lt;br&gt;&lt;br&gt;&lt;b&gt;BlastP hit with ctg3_500&lt;/b&gt;&lt;br&gt;Percentage identity: 85&lt;br&gt;Percentage coverage: 99&lt;br&gt;BLAST bit score: 1272&lt;br&gt;E-value: 0.0" locus_tag="ALJ01854.1" class="clusterblast-orf" id="dummy-1_h1_1_1"  />
</g>
<g id="a1_002"  >
<polygon points="143,90 158,90 163,85 158,80 143,80 143,90 " style="fill:white; stroke-width:1; stroke:black; " description="&lt;b&gt;ALJ01855.1&lt;/b&gt;&lt;br&gt;putative dioxygenase&lt;br&gt;Location: 2880 - 3560" locus_tag="ALJ01855.1" class="clusterblast-orf" id="dummy-1_h1_1_2"  />
</g>
<g id="a1_003"  >
<polygon points="167,85 172,80 173,80 173,90 172,90 167,85 " style="fill:white; stroke-width:1; stroke:black; " description="&lt;b&gt;ALJ01856.1&lt;/b&gt;&lt;br&gt;hypothetical protein&lt;br&gt;Location: 3692 - 3889" locus_tag="ALJ01856.1" class="clusterblast-orf" id="dummy-1_h1_1_3"  />
</g>
<g id="a1_004"  >
<polygon points="185,85 190,80 237,80 237,90 190,90 185,85 " style="fill:white; stroke-width:1; stroke:black; " description="&lt;b&gt;ALJ01857.1&lt;/b&gt;&lt;br&gt;hypothetical protein&lt;br&gt;Location: 4283 - 6079" locus_tag="ALJ01857.1" class="clusterblast-orf" id="dummy-1_h1_1_4"  />
</g>
<g id="a1_005"  >
<polygon points="245,90 270,90 275,85 270,80 245,80 245,90 " style="fill:white; stroke-width:1; stroke:black; " description="&lt;b&gt;ALJ01858.1&lt;/b&gt;&lt;br&gt;pseudopyronine synthase&lt;br&gt;Location: 6321 - 7370" locus_tag="ALJ01858.1" class="clusterblast-orf" id="dummy-1_h1_1_5"  />
</g>
<g id="a1_006"  >
<polygon points="277,85 282,80 321,80 321,90 282,90 277,85 " style="fill:white; stroke-width:1; stroke:black; " description="&lt;b&gt;ALJ01859.1&lt;/b&gt;&lt;br&gt;glucose-6-phosphate 1-dehydrogenase&lt;br&gt;Location: 7431 - 8924" locus_tag="ALJ01859.1" class="clusterblast-orf" id="dummy-1_h1_1_6"  />
</g>
<g id="a1_007"  >
<polygon points="321,85 326,80 350,80 350,90 326,90 321,85 " style="fill:white; stroke-width:1; stroke:black; " description="&lt;b&gt;ALJ01860.1&lt;/b&gt;&lt;br&gt;6-phosphogluconate dehydrogenase&lt;br&gt;Location: 8925 - 9908" locus_tag="ALJ01860.1" class="clusterblast-orf" id="dummy-1_h1_1_7"  />
</g>
<g id="a1_008"  >
<polygon points="356,90 356,90 361,85 356,80 356,80 356,90 " style="fill:white; stroke-width:1; stroke:black; " description="&lt;b&gt;ALJ01861.1&lt;/b&gt;&lt;br&gt;hypothetical protein&lt;br&gt;Location: 10105 - 10272" locus_tag="ALJ01861.1" class="clusterblast-orf" id="dummy-1_h1_1_8"  />
</g>
<g id="a1_009"  >
<polygon points="375,90 416,90 421,85 416,80 375,80 375,90 " style="fill:white; stroke-width:1; stroke:black; " description="&lt;b&gt;ALJ01862.1&lt;/b&gt;&lt;br&gt;glycogen synthase&lt;br&gt;Location: 10765 - 12324" locus_tag="ALJ01862.1" class="clusterblast-orf" id="dummy-1_h1_1_9"  />
</g>
<g id="a1_0010"  >
<polygon points="422,90 468,90 473,85 468,80 422,80 422,90 " style="fill:white; stroke-width:1; stroke:black; " description="&lt;b&gt;ALJ01863.1&lt;/b&gt;&lt;br&gt;malto-oligosyltrehalose trehalohydrolase&lt;br&gt;Location: 12339 - 14081" locus_tag="ALJ01863.1" class="clusterblast-orf" id="dummy-1_h1_1_10"  />
</g>
<g id="a1_0011"  >
<polygon points="473,90 529,90 534,85 529,80 473,80 473,90 " style="fill:white; stroke-width:1; stroke:black; " description="&lt;b&gt;ALJ01864.1&lt;/b&gt;&lt;br&gt;4-alpha-glucanotransferase&lt;br&gt;Location: 14078 - 16147" locus_tag="ALJ01864.1" class="clusterblast-orf" id="dummy-1_h1_1_11"  />
</g>
<g id="a1_0012"  >
<polygon points="534,90 610,90 615,85 610,80 534,80 534,90 " style="fill:white; stroke-width:1; stroke:black; " description="&lt;b&gt;ALJ01865.1&lt;/b&gt;&lt;br&gt;malto-oligosyltrehalose synthase&lt;br&gt;Location: 16144 - 18918" locus_tag="ALJ01865.1" class="clusterblast-orf" id="dummy-1_h1_1_12"  />
</g>
<g id="a1_0013"  >
<polygon points="616,90 619,90 624,85 619,80 616,80 616,90 " style="fill:#d81515; stroke-width:1; stroke:black; " description="&lt;b&gt;ALJ01866.1&lt;/b&gt;&lt;br&gt;hypothetical protein&lt;br&gt;Location: 18939 - 19205&lt;br&gt;&lt;br&gt;&lt;b&gt;BlastP hit with ctg3_486&lt;/b&gt;&lt;br&gt;Percentage identity: 71&lt;br&gt;Percentage coverage: 43&lt;br&gt;BLAST bit score: 62&lt;br&gt;E-value: 3.57e-14" locus_tag="ALJ01866.1" class="clusterblast-orf" id="dummy-1_h1_1_13"  />
</g>
<g id="a1_0014"  >
<polygon points="629,90 687,90 692,85 687,80 629,80 629,90 " style="fill:#15d863; stroke-width:1; stroke:black; " description="&lt;b&gt;ALJ01867.1&lt;/b&gt;&lt;br&gt;glycogen debranching enzyme&lt;br&gt;Location: 19363 - 21516&lt;br&gt;&lt;br&gt;&lt;b&gt;BlastP hit with ctg3_487&lt;/b&gt;&lt;br&gt;Percentage identity: 80&lt;br&gt;Percentage coverage: 98&lt;br&gt;BLAST bit score: 1218&lt;br&gt;E-value: 0.0" locus_tag="ALJ01867.1" class="clusterblast-orf" id="dummy-1_h1_1_14"  />
</g>
<g id="a1_0015"  >
<polygon points="697,90 715,90 720,85 715,80 697,80 697,90 " style="fill:white; stroke-width:1; stroke:black; " description="&lt;b&gt;ALJ01868.1&lt;/b&gt;&lt;br&gt;hypothetical protein&lt;br&gt;Location: 21685 - 22479" locus_tag="ALJ01868.1" class="clusterblast-orf" id="dummy-1_h1_1_15"  />
</g>
</svg>
