<svg xmlns="http://www.w3.org/2000/svg" xmlns:xlink="http://www.w3.org/1999/xlink" version="1.1" x="0" y="0" height="230" width="800" viewBox="0 0 800 230" preserveAspectRatio="none"  >
<g label="Query sequence" class="clusterblast-cluster"  >
<text x="5" y="20" class="clusterblast-acc"  >
Query sequence</text>
<line x1="10" y1="35" x2="778.0" y2="35" style="stroke-width:1; stroke:grey; "  />
<polygon points="115,40 116,40 121,35 116,30 115,30 115,40 " style="fill:#d81515; stroke-width:1; stroke:black; " description="&lt;b&gt;ctg3_486&lt;/b&gt;&lt;br&gt;ctg3 486&lt;br&gt;Location: 508690 - 508960" locus_tag="ctg3_486" class="clusterblast-orf" id="dummy-1_q0_0_all"  />
<polygon points="123,40 163,40 168,35 163,30 123,30 123,40 " style="fill:#15d863; stroke-width:1; stroke:black; " description="&lt;b&gt;ctg3_487&lt;/b&gt;&lt;br&gt;ctg3 487&lt;br&gt;Location: 509091 - 511248" locus_tag="ctg3_487" class="clusterblast-orf" id="dummy-1_q1_0_all"  />
<polygon points="168,40 184,40 189,35 184,30 168,30 168,40 " style="fill:white; stroke-width:1; stroke:black; " description="&lt;b&gt;ctg3_488&lt;/b&gt;&lt;br&gt;ctg3 488&lt;br&gt;Location: 511249 - 512248" locus_tag="ctg3_488" class="clusterblast-orf" id="dummy-1_q2_0_all"  />
<polygon points="189,40 200,40 205,35 200,30 189,30 189,40 " style="fill:white; stroke-width:1; stroke:black; " description="&lt;b&gt;ctg3_489&lt;/b&gt;&lt;br&gt;ctg3 489&lt;br&gt;Location: 512244 - 513003" locus_tag="ctg3_489" class="clusterblast-orf" id="dummy-1_q3_0_all"  />
<polygon points="204,40 212,40 217,35 212,30 204,30 204,40 " style="fill:white; stroke-width:1; stroke:black; " description="&lt;b&gt;ctg3_490&lt;/b&gt;&lt;br&gt;ctg3 490&lt;br&gt;Location: 512999 - 513599" locus_tag="ctg3_490" class="clusterblast-orf" id="dummy-1_q4_0_all"  />
<polygon points="217,40 225,40 230,35 225,30 217,30 217,40 " style="fill:white; stroke-width:1; stroke:black; " description="&lt;b&gt;ctg3_491&lt;/b&gt;&lt;br&gt;ctg3 491&lt;br&gt;Location: 513595 - 514255" locus_tag="ctg3_491" class="clusterblast-orf" id="dummy-1_q5_0_all"  />
<polygon points="234,40 245,40 250,35 245,30 234,30 234,40 " style="fill:white; stroke-width:1; stroke:black; " description="&lt;b&gt;ctg3_492&lt;/b&gt;&lt;br&gt;ctg3 492&lt;br&gt;Location: 514445 - 515207" locus_tag="ctg3_492" class="clusterblast-orf" id="dummy-1_q6_0_all"  />
<polygon points="253,40 269,40 274,35 269,30 253,30 253,40 " style="fill:white; stroke-width:1; stroke:black; " description="&lt;b&gt;ctg3_493&lt;/b&gt;&lt;br&gt;ctg3 493&lt;br&gt;Location: 515346 - 516366" locus_tag="ctg3_493" class="clusterblast-orf" id="dummy-1_q7_0_all"  />
<polygon points="279,40 287,40 292,35 287,30 279,30 279,40 " style="fill:white; stroke-width:1; stroke:black; " description="&lt;b&gt;ctg3_494&lt;/b&gt;&lt;br&gt;ctg3 494&lt;br&gt;Location: 516588 - 517209" locus_tag="ctg3_494" class="clusterblast-orf" id="dummy-1_q8_0_all"  />
<polygon points="292,40 296,40 301,35 296,30 292,30 292,40 " style="fill:white; stroke-width:1; stroke:black; " description="&lt;b&gt;ctg3_495&lt;/b&gt;&lt;br&gt;ctg3 495&lt;br&gt;Location: 517239 - 517632" locus_tag="ctg3_495" class="clusterblast-orf" id="dummy-1_q9_0_all"  />
<polygon points="305,40 320,40 325,35 320,30 305,30 305,40 " style="fill:white; stroke-width:1; stroke:black; " description="&lt;b&gt;ctg3_496&lt;/b&gt;&lt;br&gt;ctg3 496&lt;br&gt;Location: 517847 - 518825" locus_tag="ctg3_496" class="clusterblast-orf" id="dummy-1_q10_0_all"  />
<polygon points="331,40 344,40 349,35 344,30 331,30 331,40 " style="fill:white; stroke-width:1; stroke:black; " description="&lt;b&gt;ctg3_497&lt;/b&gt;&lt;br&gt;ctg3 497&lt;br&gt;Location: 519110 - 519962" locus_tag="ctg3_497" class="clusterblast-orf" id="dummy-1_q11_0_all"  />
<polygon points="352,40 375,40 380,35 375,30 352,30 352,40 " style="fill:#1563d8; stroke-width:1; stroke:black; " description="&lt;b&gt;ctg3_498&lt;/b&gt;&lt;br&gt;ctg3 498&lt;br&gt;Location: 520106 - 521483" locus_tag="ctg3_498" class="clusterblast-orf" id="dummy-1_q12_0_all"  />
<polygon points="380,40 399,40 404,35 399,30 380,30 380,40 " style="fill:#b115d8; stroke-width:1; stroke:black; " description="&lt;b&gt;ctg3_499&lt;/b&gt;&lt;br&gt;ctg3 499&lt;br&gt;Location: 521479 - 522646" locus_tag="ctg3_499" class="clusterblast-orf" id="dummy-1_q13_0_all"  />
<polygon points="416,35 421,30 461,30 461,40 421,40 416,35 " style="fill:#b1d815; stroke-width:1; stroke:black; " description="&lt;b&gt;ctg3_500&lt;/b&gt;&lt;br&gt;ctg3 500&lt;br&gt;Location: 523193 - 525392" locus_tag="ctg3_500" class="clusterblast-orf" id="dummy-1_q14_0_all"  />
<polygon points="464,40 472,40 477,35 472,30 464,30 464,40 " style="fill:white; stroke-width:1; stroke:black; " description="&lt;b&gt;ctg3_501&lt;/b&gt;&lt;br&gt;ctg3 501&lt;br&gt;Location: 525528 - 526149" locus_tag="ctg3_501" class="clusterblast-orf" id="dummy-1_q15_0_all"  />
<polygon points="477,35 482,30 491,30 491,40 482,40 477,35 " style="fill:white; stroke-width:1; stroke:black; " description="&lt;b&gt;ctg3_502&lt;/b&gt;&lt;br&gt;ctg3 502&lt;br&gt;Location: 526162 - 526819" locus_tag="ctg3_502" class="clusterblast-orf" id="dummy-1_q16_0_all"  />
<polygon points="493,40 501,40 506,35 501,30 493,30 493,40 " style="fill:white; stroke-width:1; stroke:black; " description="&lt;b&gt;ctg3_503&lt;/b&gt;&lt;br&gt;ctg3 503&lt;br&gt;Location: 526930 - 527563" locus_tag="ctg3_503" class="clusterblast-orf" id="dummy-1_q17_0_all"  />
<polygon points="507,40 519,40 524,35 519,30 507,30 507,40 " style="fill:white; stroke-width:1; stroke:black; " description="&lt;b&gt;ctg3_504&lt;/b&gt;&lt;br&gt;ctg3 504&lt;br&gt;Location: 527591 - 528398" locus_tag="ctg3_504" class="clusterblast-orf" id="dummy-1_q18_0_all"  />
<polygon points="526,40 529,35 526,30 526,40 " style="fill:white; stroke-width:1; stroke:black; " description="&lt;b&gt;ctg3_505&lt;/b&gt;&lt;br&gt;ctg3 505&lt;br&gt;Location: 528499 - 528655" locus_tag="ctg3_505" class="clusterblast-orf" id="dummy-1_q19_0_all"  />
<polygon points="530,40 552,40 557,35 552,30 530,30 530,40 " style="fill:white; stroke-width:1; stroke:black; " description="&lt;b&gt;ctg3_506&lt;/b&gt;&lt;br&gt;ctg3 506&lt;br&gt;Location: 528705 - 530019" locus_tag="ctg3_506" class="clusterblast-orf" id="dummy-1_q20_0_all"  />
<polygon points="559,40 566,40 571,35 566,30 559,30 559,40 " style="fill:white; stroke-width:1; stroke:black; " description="&lt;b&gt;ctg3_507&lt;/b&gt;&lt;br&gt;ctg3 507&lt;br&gt;Location: 530088 - 530667" locus_tag="ctg3_507" class="clusterblast-orf" id="dummy-1_q21_0_all"  />
<polygon points="572,35 577,30 581,30 581,40 577,40 572,35 " style="fill:white; stroke-width:1; stroke:black; " description="&lt;b&gt;ctg3_508&lt;/b&gt;&lt;br&gt;ctg3 508&lt;br&gt;Location: 530710 - 531160" locus_tag="ctg3_508" class="clusterblast-orf" id="dummy-1_q22_0_all"  />
<polygon points="581,35 586,30 590,30 590,40 586,40 581,35 " style="fill:white; stroke-width:1; stroke:black; " description="&lt;b&gt;ctg3_509&lt;/b&gt;&lt;br&gt;ctg3 509&lt;br&gt;Location: 531152 - 531605" locus_tag="ctg3_509" class="clusterblast-orf" id="dummy-1_q23_0_all"  />
<polygon points="596,40 632,40 637,35 632,30 596,30 596,40 " style="fill:white; stroke-width:1; stroke:black; " description="&lt;b&gt;ctg3_510&lt;/b&gt;&lt;br&gt;ctg3 510&lt;br&gt;Location: 531897 - 533850" locus_tag="ctg3_510" class="clusterblast-orf" id="dummy-1_q24_0_all"  />
<polygon points="638,35 643,30 654,30 654,40 643,40 638,35 " style="fill:white; stroke-width:1; stroke:black; " description="&lt;b&gt;ctg3_511&lt;/b&gt;&lt;br&gt;ctg3 511&lt;br&gt;Location: 533929 - 534700" locus_tag="ctg3_511" class="clusterblast-orf" id="dummy-1_q25_0_all"  />
<polygon points="654,35 659,30 664,30 664,40 659,40 654,35 " style="fill:white; stroke-width:1; stroke:black; " description="&lt;b&gt;ctg3_512&lt;/b&gt;&lt;br&gt;ctg3 512&lt;br&gt;Location: 534696 - 535176" locus_tag="ctg3_512" class="clusterblast-orf" id="dummy-1_q26_0_all"  />
</g>
<g label="BGC0000774" description="BGC0000774_c1: lipopolysaccharide (5% of genes show similarity), Saccharide:Lipopolysaccharide" class="clusterblast-cluster"  >
<text x="5" y="70" class="clusterblast-acc"  >
<a xlink:href="https://mibig.secondarymetabolites.org/go/BGC0000774/1" target="_blank">BGC0000774</a>: lipopolysaccharide                                                               (5% of genes show similarity), Saccharide:Lipopolysaccharide</text>
<line x1="10" y1="85" x2="778.0" y2="85" style="stroke-width:1; stroke:grey; "  />
</g>
<g id="a1_000"  >
<polygon points="0,85 5,80 12,80 12,90 5,90 0,85 " style="fill:white; stroke-width:1; stroke:black; " description="&lt;b&gt;AAK53492.1&lt;/b&gt;&lt;br&gt;putative ATP-dependent RNA helicase&lt;br&gt;Location: 37753 - 37148" locus_tag="AAK53492.1" class="clusterblast-orf" id="dummy-1_h1_2_0"  />
</g>
<g id="a1_001"  >
<polygon points="20,90 35,90 40,85 35,80 20,80 20,90 " style="fill:white; stroke-width:1; stroke:black; " description="&lt;b&gt;AAK53491.1&lt;/b&gt;&lt;br&gt;putative dioxygenase&lt;br&gt;Location: 36768 - 35779" locus_tag="AAK53491.1" class="clusterblast-orf" id="dummy-1_h1_2_1"  />
</g>
<g id="a1_002"  >
<polygon points="41,90 50,90 55,85 50,80 41,80 41,90 " style="fill:white; stroke-width:1; stroke:black; " description="&lt;b&gt;AAK53490.1&lt;/b&gt;&lt;br&gt;putative maleylacetoacetate isomerase&lt;br&gt;Location: 35735 - 35073" locus_tag="AAK53490.1" class="clusterblast-orf" id="dummy-1_h1_2_2"  />
</g>
<g id="a1_003"  >
<polygon points="66,85 71,80 89,80 89,90 71,90 66,85 " style="fill:white; stroke-width:1; stroke:black; " description="&lt;b&gt;AAK53489.1&lt;/b&gt;&lt;br&gt;type II secretion system protein-like protein&lt;br&gt;Location: 34553 - 33420" locus_tag="AAK53489.1" class="clusterblast-orf" id="dummy-1_h1_2_3"  />
</g>
<g id="a1_004"  >
<polygon points="91,90 94,90 99,85 94,80 91,80 91,90 " style="fill:white; stroke-width:1; stroke:black; " description="&lt;b&gt;AAK53488.1&lt;/b&gt;&lt;br&gt;putative outer membrane protein UptD precursor&lt;br&gt;Location: 33321 - 32938" locus_tag="AAK53488.1" class="clusterblast-orf" id="dummy-1_h1_2_4"  />
</g>
<g id="a1_005"  >
<polygon points="99,90 113,90 118,85 113,80 99,80 99,90 " style="fill:white; stroke-width:1; stroke:black; " description="&lt;b&gt;AAK53487.1&lt;/b&gt;&lt;br&gt;putative outer membrane protein UptE precursor&lt;br&gt;Location: 32941 - 32051" locus_tag="AAK53487.1" class="clusterblast-orf" id="dummy-1_h1_2_5"  />
</g>
<g id="a1_006"  >
<polygon points="119,90 124,90 129,85 124,80 119,80 119,90 " style="fill:white; stroke-width:1; stroke:black; " description="&lt;b&gt;AAK53486.1&lt;/b&gt;&lt;br&gt;UptF&lt;br&gt;Location: 31985 - 31491" locus_tag="AAK53486.1" class="clusterblast-orf" id="dummy-1_h1_2_6"  />
</g>
<g id="a1_007"  >
<polygon points="134,90 158,90 163,85 158,80 134,80 134,90 " style="fill:#1563d8; stroke-width:1; stroke:black; " description="&lt;b&gt;AAK53485.1&lt;/b&gt;&lt;br&gt;cystathionine beta-lyase&lt;br&gt;Location: 31259 - 29889&lt;br&gt;&lt;br&gt;&lt;b&gt;BlastP hit with ctg3_498&lt;/b&gt;&lt;br&gt;Percentage identity: 62&lt;br&gt;Percentage coverage: 98&lt;br&gt;BLAST bit score: 548&lt;br&gt;E-value: 1.77e-194" locus_tag="AAK53485.1" class="clusterblast-orf" id="dummy-1_h1_2_7"  />
</g>
<g id="a1_008"  >
<polygon points="165,90 184,90 189,85 184,80 165,80 165,90 " style="fill:#b115d8; stroke-width:1; stroke:black; " description="&lt;b&gt;AAK53484.1&lt;/b&gt;&lt;br&gt;cystathionine gamma-synthase&lt;br&gt;Location: 29795 - 28596&lt;br&gt;&lt;br&gt;&lt;b&gt;BlastP hit with ctg3_499&lt;/b&gt;&lt;br&gt;Percentage identity: 68&lt;br&gt;Percentage coverage: 97&lt;br&gt;BLAST bit score: 539&lt;br&gt;E-value: 7.15e-193" locus_tag="AAK53484.1" class="clusterblast-orf" id="dummy-1_h1_2_8"  />
</g>
<g id="a1_009"  >
<polygon points="189,90 213,90 218,85 213,80 189,80 189,90 " style="fill:white; stroke-width:1; stroke:black; " description="&lt;b&gt;AAK53483.1&lt;/b&gt;&lt;br&gt;glycosyltransferase&lt;br&gt;Location: 28599 - 27214" locus_tag="AAK53483.1" class="clusterblast-orf" id="dummy-1_h1_2_9"  />
</g>
<g id="a1_0010"  >
<polygon points="220,90 231,90 236,85 231,80 220,80 220,90 " style="fill:white; stroke-width:1; stroke:black; " description="&lt;b&gt;AAK53482.1&lt;/b&gt;&lt;br&gt;permease protein of an ABC-type polysaccaharide exporter&lt;br&gt;Location: 27130 - 26345" locus_tag="AAK53482.1" class="clusterblast-orf" id="dummy-1_h1_2_10"  />
</g>
<g id="a1_0011"  >
<polygon points="236,90 258,90 263,85 258,80 236,80 236,90 " style="fill:white; stroke-width:1; stroke:black; " description="&lt;b&gt;AAK53481.1&lt;/b&gt;&lt;br&gt;ATP-binding component of an ABC-type polysaccharide exporter&lt;br&gt;Location: 26348 - 25062" locus_tag="AAK53481.1" class="clusterblast-orf" id="dummy-1_h1_2_11"  />
</g>
<g id="a1_0012"  >
<polygon points="263,90 306,90 311,85 306,80 263,80 263,90 " style="fill:white; stroke-width:1; stroke:black; " description="&lt;b&gt;AAK53480.1&lt;/b&gt;&lt;br&gt;putative protein kinase&lt;br&gt;Location: 25022 - 22734" locus_tag="AAK53480.1" class="clusterblast-orf" id="dummy-1_h1_2_12"  />
</g>
<g id="a1_0013"  >
<polygon points="312,90 329,90 334,85 329,80 312,80 312,90 " style="fill:white; stroke-width:1; stroke:black; " description="&lt;b&gt;AAK53479.1&lt;/b&gt;&lt;br&gt;glycosyltransferase&lt;br&gt;Location: 22684 - 21623" locus_tag="AAK53479.1" class="clusterblast-orf" id="dummy-1_h1_2_13"  />
</g>
<g id="a1_0014"  >
<polygon points="334,90 366,90 371,85 366,80 334,80 334,90 " style="fill:white; stroke-width:1; stroke:black; " description="&lt;b&gt;AAK53478.1&lt;/b&gt;&lt;br&gt;putative glycosyltransferase&lt;br&gt;Location: 21602 - 19857" locus_tag="AAK53478.1" class="clusterblast-orf" id="dummy-1_h1_2_14"  />
</g>
<g id="a1_0015"  >
<polygon points="371,90 379,90 384,85 379,80 371,80 371,90 " style="fill:white; stroke-width:1; stroke:black; " description="&lt;b&gt;AAK53477.1&lt;/b&gt;&lt;br&gt;Unknown&lt;br&gt;Location: 19857 - 19222" locus_tag="AAK53477.1" class="clusterblast-orf" id="dummy-1_h1_2_15"  />
</g>
<g id="a1_0016"  >
<polygon points="385,90 402,90 407,85 402,80 385,80 385,90 " style="fill:white; stroke-width:1; stroke:black; " description="&lt;b&gt;AAK53476.1&lt;/b&gt;&lt;br&gt;GDP-mannose 4,6-dehydratase&lt;br&gt;Location: 19144 - 18110" locus_tag="AAK53476.1" class="clusterblast-orf" id="dummy-1_h1_2_16"  />
</g>
<g id="a1_0017"  >
<polygon points="406,90 421,90 426,85 421,80 406,80 406,90 " style="fill:white; stroke-width:1; stroke:black; " description="&lt;b&gt;AAK53475.1&lt;/b&gt;&lt;br&gt;GDP-4-dehydro-D-rhamnose reductase&lt;br&gt;Location: 18126 - 17188" locus_tag="AAK53475.1" class="clusterblast-orf" id="dummy-1_h1_2_17"  />
</g>
<g id="a1_0018"  >
<polygon points="429,85 434,80 476,80 476,90 434,90 429,85 " style="fill:white; stroke-width:1; stroke:black; " description="&lt;b&gt;AAK53474.1&lt;/b&gt;&lt;br&gt;integral membrane protein&lt;br&gt;Location: 17046 - 14794" locus_tag="AAK53474.1" class="clusterblast-orf" id="dummy-1_h1_2_18"  />
</g>
<g id="a1_0019"  >
<polygon points="477,85 482,80 486,80 486,90 482,90 477,85 " style="fill:white; stroke-width:1; stroke:black; " description="&lt;b&gt;AAK53473.1&lt;/b&gt;&lt;br&gt;putative integral membrane protein WxcN&lt;br&gt;Location: 14724 - 14284" locus_tag="AAK53473.1" class="clusterblast-orf" id="dummy-1_h1_2_19"  />
</g>
<g id="a1_0020"  >
<polygon points="486,85 491,80 505,80 505,90 491,90 486,85 " style="fill:white; stroke-width:1; stroke:black; " description="&lt;b&gt;AAK53472.1&lt;/b&gt;&lt;br&gt;bifunctional nucleotide hexosamine acetyltransferase / isomerase&lt;br&gt;Location: 14297 - 13368" locus_tag="AAK53472.1" class="clusterblast-orf" id="dummy-1_h1_2_20"  />
</g>
<g id="a1_0021"  >
<polygon points="505,85 510,80 525,80 525,90 510,90 505,85 " style="fill:white; stroke-width:1; stroke:black; " description="&lt;b&gt;AAK53471.1&lt;/b&gt;&lt;br&gt;glycosyltransferase&lt;br&gt;Location: 13371 - 12400" locus_tag="AAK53471.1" class="clusterblast-orf" id="dummy-1_h1_2_21"  />
</g>
<g id="a1_0022"  >
<polygon points="525,85 530,80 548,80 548,90 530,90 525,85 " style="fill:white; stroke-width:1; stroke:black; " description="&lt;b&gt;AAK53470.1&lt;/b&gt;&lt;br&gt;nucleotide sugar aminotransferase&lt;br&gt;Location: 12415 - 11312" locus_tag="AAK53470.1" class="clusterblast-orf" id="dummy-1_h1_2_22"  />
</g>
<g id="a1_0023"  >
<polygon points="549,85 554,80 556,80 556,90 554,90 549,85 " style="fill:white; stroke-width:1; stroke:black; " description="&lt;b&gt;AAK53469.1&lt;/b&gt;&lt;br&gt;WxcH&lt;br&gt;Location: 11263 - 10916" locus_tag="AAK53469.1" class="clusterblast-orf" id="dummy-1_h1_2_23"  />
</g>
<g id="a1_0024"  >
<polygon points="557,85 562,80 577,80 577,90 562,90 557,85 " style="fill:white; stroke-width:1; stroke:black; " description="&lt;b&gt;AAK53468.1&lt;/b&gt;&lt;br&gt;putative electron-transferring flavoprotein alpha subunit&lt;br&gt;Location: 10856 - 9912" locus_tag="AAK53468.1" class="clusterblast-orf" id="dummy-1_h1_2_24"  />
</g>
<g id="a1_0025"  >
<polygon points="577,85 582,80 592,80 592,90 582,90 577,85 " style="fill:white; stroke-width:1; stroke:black; " description="&lt;b&gt;AAK53467.1&lt;/b&gt;&lt;br&gt;putative electron-transferring flavoprotein beta subunit&lt;br&gt;Location: 9912 - 9166" locus_tag="AAK53467.1" class="clusterblast-orf" id="dummy-1_h1_2_25"  />
</g>
<g id="a1_0026"  >
<polygon points="597,90 614,90 619,85 614,80 597,80 597,90 " style="fill:white; stroke-width:1; stroke:black; " description="&lt;b&gt;AAK53466.1&lt;/b&gt;&lt;br&gt;dTDP-glucose 4,6-dehydratase&lt;br&gt;Location: 8937 - 7882" locus_tag="AAK53466.1" class="clusterblast-orf" id="dummy-1_h1_2_26"  />
</g>
<g id="a1_0027"  >
<polygon points="620,90 634,90 639,85 634,80 620,80 620,90 " style="fill:white; stroke-width:1; stroke:black; " description="&lt;b&gt;AAA16191.1&lt;/b&gt;&lt;br&gt;glucose-1-phosphate thymidylyltransferase&lt;br&gt;Location: 7818 - 6931" locus_tag="AAA16191.1" class="clusterblast-orf" id="dummy-1_h1_2_27"  />
</g>
<g id="a1_0028"  >
<polygon points="639,90 645,90 650,85 645,80 639,80 639,90 " style="fill:white; stroke-width:1; stroke:black; " description="&lt;b&gt;AAK53465.1&lt;/b&gt;&lt;br&gt;dTDP-4-dehydrorhamnose 3,5-epimerase&lt;br&gt;Location: 6934 - 6377" locus_tag="AAK53465.1" class="clusterblast-orf" id="dummy-1_h1_2_28"  />
</g>
<g id="a1_0029"  >
<polygon points="650,90 664,90 669,85 664,80 650,80 650,90 " style="fill:white; stroke-width:1; stroke:black; " description="&lt;b&gt;AAK53464.1&lt;/b&gt;&lt;br&gt;dTDP-4-dehydrorhamnose reductase&lt;br&gt;Location: 6380 - 5472" locus_tag="AAK53464.1" class="clusterblast-orf" id="dummy-1_h1_2_29"  />
</g>
<g id="a1_0030"  >
<polygon points="671,85 676,80 700,80 700,90 676,90 671,85 " style="fill:white; stroke-width:1; stroke:black; " description="&lt;b&gt;AAK53463.1&lt;/b&gt;&lt;br&gt;phosphomannose isomerase / GDP-mannose pyrophosphorylase&lt;br&gt;Location: 5350 - 3947" locus_tag="AAK53463.1" class="clusterblast-orf" id="dummy-1_h1_2_30"  />
</g>
<g id="a1_0031"  >
<polygon points="701,85 706,80 729,80 729,90 706,90 701,85 " style="fill:white; stroke-width:1; stroke:black; " description="&lt;b&gt;AAA27610.1&lt;/b&gt;&lt;br&gt;phosphoglucomutase / phosphomannomutase&lt;br&gt;Location: 3901 - 2555" locus_tag="AAA27610.1" class="clusterblast-orf" id="dummy-1_h1_2_31"  />
</g>
<g id="a1_0032"  >
<polygon points="732,90 742,90 747,85 742,80 732,80 732,90 " style="fill:white; stroke-width:1; stroke:black; " description="&lt;b&gt;AAK53462.1&lt;/b&gt;&lt;br&gt;alpha subunit of putative 3-oxoacid CoA-transferase&lt;br&gt;Location: 2420 - 1692" locus_tag="AAK53462.1" class="clusterblast-orf" id="dummy-1_h1_2_32"  />
</g>
<g id="a1_0033"  >
<polygon points="747,90 755,90 760,85 755,80 747,80 747,90 " style="fill:white; stroke-width:1; stroke:black; " description="&lt;b&gt;AAK53493.1&lt;/b&gt;&lt;br&gt;beta-subunit of putative 3-oxoacid CoA-transferase&lt;br&gt;Location: 1692 - 1054" locus_tag="AAK53493.1" class="clusterblast-orf" id="dummy-1_h1_2_33"  />
</g>
<g id="a1_0034"  >
<polygon points="766,85 771,80 780,80 780,90 771,90 766,85 " style="fill:white; stroke-width:1; stroke:black; " description="&lt;b&gt;AAK53494.1&lt;/b&gt;&lt;br&gt;conserved protein involved in carbohydrate biosynthesis&lt;br&gt;Location: 772 - 134" locus_tag="AAK53494.1" class="clusterblast-orf" id="dummy-1_h1_2_34"  />
</g>
</svg>
