<svg xmlns="http://www.w3.org/2000/svg" xmlns:xlink="http://www.w3.org/1999/xlink" version="1.1" x="0" y="0" height="50" width="800" viewBox="0 0 800 50" preserveAspectRatio="none"  >
<g label="Query sequence" class="clusterblast-cluster"  >
<text x="5" y="20" class="clusterblast-acc"  >
Query sequence</text>
<line x1="10" y1="35" x2="778.0" y2="35" style="stroke-width:1; stroke:grey; "  />
<polygon points="0,40 52,40 57,35 52,30 0,30 0,40 " style="fill:white; stroke-width:1; stroke:black; " description="&lt;b&gt;ctg6_225&lt;/b&gt;&lt;br&gt;ctg6 225&lt;br&gt;Location: 255961 - 256795" locus_tag="ctg6_225" class="clusterblast-orf" id="subclusterblast-1_q0_0_all"  />
<polygon points="58,40 90,40 95,35 90,30 58,30 58,40 " style="fill:white; stroke-width:1; stroke:black; " description="&lt;b&gt;ctg6_226&lt;/b&gt;&lt;br&gt;ctg6 226&lt;br&gt;Location: 256820 - 257366" locus_tag="ctg6_226" class="clusterblast-orf" id="subclusterblast-1_q1_0_all"  />
<polygon points="102,35 107,30 246,30 246,40 107,40 102,35 " style="fill:white; stroke-width:1; stroke:black; " description="&lt;b&gt;ctg6_227&lt;/b&gt;&lt;br&gt;ctg6 227&lt;br&gt;Location: 257468 - 259589" locus_tag="ctg6_227" class="clusterblast-orf" id="subclusterblast-1_q2_0_all"  />
<polygon points="246,35 251,30 328,30 328,40 251,40 246,35 " style="fill:white; stroke-width:1; stroke:black; " description="&lt;b&gt;ctg6_228&lt;/b&gt;&lt;br&gt;ctg6 228&lt;br&gt;Location: 259600 - 260812" locus_tag="ctg6_228" class="clusterblast-orf" id="subclusterblast-1_q3_0_all"  />
<polygon points="328,35 333,30 458,30 458,40 333,40 328,35 " style="fill:white; stroke-width:1; stroke:black; " description="&lt;b&gt;ctg6_229&lt;/b&gt;&lt;br&gt;ctg6 229&lt;br&gt;Location: 260801 - 262727" locus_tag="ctg6_229" class="clusterblast-orf" id="subclusterblast-1_q4_0_all"  />
<polygon points="484,35 489,30 497,30 497,40 489,40 484,35 " style="fill:white; stroke-width:1; stroke:black; " description="&lt;b&gt;ctg6_230&lt;/b&gt;&lt;br&gt;ctg6 230&lt;br&gt;Location: 263109 - 263298" locus_tag="ctg6_230" class="clusterblast-orf" id="subclusterblast-1_q5_0_all"  />
<polygon points="522,35 527,30 570,30 570,40 527,40 522,35 " style="fill:white; stroke-width:1; stroke:black; " description="&lt;b&gt;ctg6_231&lt;/b&gt;&lt;br&gt;ctg6 231&lt;br&gt;Location: 263674 - 264388" locus_tag="ctg6_231" class="clusterblast-orf" id="subclusterblast-1_q6_0_all"  />
<polygon points="571,35 576,30 615,30 615,40 576,40 571,35 " style="fill:white; stroke-width:1; stroke:black; " description="&lt;b&gt;ctg6_232&lt;/b&gt;&lt;br&gt;ctg6 232&lt;br&gt;Location: 264396 - 265047" locus_tag="ctg6_232" class="clusterblast-orf" id="subclusterblast-1_q7_0_all"  />
<polygon points="615,35 620,30 687,30 687,40 620,40 615,35 " style="fill:white; stroke-width:1; stroke:black; " description="&lt;b&gt;ctg6_233&lt;/b&gt;&lt;br&gt;ctg6 233&lt;br&gt;Location: 265046 - 266105" locus_tag="ctg6_233" class="clusterblast-orf" id="subclusterblast-1_q8_0_all"  />
<polygon points="710,40 775,40 780,35 775,30 710,30 710,40 " style="fill:white; stroke-width:1; stroke:black; " description="&lt;b&gt;ctg6_234&lt;/b&gt;&lt;br&gt;ctg6 234&lt;br&gt;Location: 266448 - 267489" locus_tag="ctg6_234" class="clusterblast-orf" id="subclusterblast-1_q9_0_all"  />
</g>
</svg>
