<svg xmlns="http://www.w3.org/2000/svg" xmlns:xlink="http://www.w3.org/1999/xlink" version="1.1" x="0" y="0" height="230" width="800" viewBox="0 0 800 230" preserveAspectRatio="none"  >
<g label="Query sequence" class="clusterblast-cluster"  >
<text x="5" y="20" class="clusterblast-acc"  >
Query sequence</text>
<line x1="10" y1="35" x2="778.0" y2="35" style="stroke-width:1; stroke:grey; "  />
<polygon points="0,35 5,30 58,30 58,40 5,40 0,35 " style="fill:#d81515; stroke-width:1; stroke:black; " description="&lt;b&gt;ctg13_144&lt;/b&gt;&lt;br&gt;ctg13 144&lt;br&gt;Location: 151721 - 152393" locus_tag="ctg13_144" class="clusterblast-orf" id="dummy-1_q0_0_all"  />
<polygon points="66,35 71,30 118,30 118,40 71,40 66,35 " style="fill:#5cd815; stroke-width:1; stroke:black; " description="&lt;b&gt;ctg13_145&lt;/b&gt;&lt;br&gt;ctg13 145&lt;br&gt;Location: 152490 - 153090" locus_tag="ctg13_145" class="clusterblast-orf" id="dummy-1_q1_0_all"  />
<polygon points="127,40 200,40 205,35 200,30 127,30 127,40 " style="fill:#15a3d8; stroke-width:1; stroke:black; " description="&lt;b&gt;ctg13_146&lt;/b&gt;&lt;br&gt;ctg13 146&lt;br&gt;Location: 153193 - 154102" locus_tag="ctg13_146" class="clusterblast-orf" id="dummy-1_q2_0_all"  />
<polygon points="204,35 209,30 246,30 246,40 209,40 204,35 " style="fill:#c715d8; stroke-width:1; stroke:black; " description="&lt;b&gt;ctg13_147&lt;/b&gt;&lt;br&gt;ctg13 147&lt;br&gt;Location: 154098 - 154584" locus_tag="ctg13_147" class="clusterblast-orf" id="dummy-1_q3_0_all"  />
<polygon points="246,35 251,30 312,30 312,40 251,40 246,35 " style="fill:#d88015; stroke-width:1; stroke:black; " description="&lt;b&gt;ctg13_148&lt;/b&gt;&lt;br&gt;ctg13 148&lt;br&gt;Location: 154580 - 155357" locus_tag="ctg13_148" class="clusterblast-orf" id="dummy-1_q4_0_all"  />
<polygon points="312,35 317,30 388,30 388,40 317,40 312,35 " style="fill:#15d839; stroke-width:1; stroke:black; " description="&lt;b&gt;ctg13_149&lt;/b&gt;&lt;br&gt;ctg13 149&lt;br&gt;Location: 155353 - 156235" locus_tag="ctg13_149" class="clusterblast-orf" id="dummy-1_q5_0_all"  />
<polygon points="390,35 395,30 416,30 416,40 395,40 390,35 " style="fill:#1539d8; stroke-width:1; stroke:black; " description="&lt;b&gt;ctg13_150&lt;/b&gt;&lt;br&gt;ctg13 150&lt;br&gt;Location: 156258 - 156564" locus_tag="ctg13_150" class="clusterblast-orf" id="dummy-1_q6_0_all"  />
<polygon points="420,40 447,40 452,35 447,30 420,30 420,40 " style="fill:#d81580; stroke-width:1; stroke:black; " description="&lt;b&gt;ctg13_151&lt;/b&gt;&lt;br&gt;ctg13 151&lt;br&gt;Location: 156607 - 156982" locus_tag="ctg13_151" class="clusterblast-orf" id="dummy-1_q7_0_all"  />
<polygon points="454,40 533,40 538,35 533,30 454,30 454,40 " style="fill:#c7d815; stroke-width:1; stroke:black; " description="&lt;b&gt;ctg13_152&lt;/b&gt;&lt;br&gt;ctg13 152&lt;br&gt;Location: 157005 - 157983" locus_tag="ctg13_152" class="clusterblast-orf" id="dummy-1_q8_0_all"  />
<polygon points="539,40 645,40 650,35 645,30 539,30 539,40 " style="fill:#15d8a3; stroke-width:1; stroke:black; " description="&lt;b&gt;ctg13_153&lt;/b&gt;&lt;br&gt;ctg13 153&lt;br&gt;Location: 157995 - 159288" locus_tag="ctg13_153" class="clusterblast-orf" id="dummy-1_q9_0_all"  />
<polygon points="654,35 659,30 714,30 714,40 659,40 654,35 " style="fill:#5c15d8; stroke-width:1; stroke:black; " description="&lt;b&gt;ctg13_154&lt;/b&gt;&lt;br&gt;ctg13 154&lt;br&gt;Location: 159338 - 160040" locus_tag="ctg13_154" class="clusterblast-orf" id="dummy-1_q10_0_all"  />
<polygon points="714,35 719,30 780,30 780,40 719,40 714,35 " style="fill:#5c15d8; stroke-width:1; stroke:black; " description="&lt;b&gt;ctg13_155&lt;/b&gt;&lt;br&gt;ctg13 155&lt;br&gt;Location: 160041 - 160809" locus_tag="ctg13_155" class="clusterblast-orf" id="dummy-1_q11_0_all"  />
</g>
<g label="NZ_CP015600" description="NZ_CP015600 (1615419-1624506): Pseudomonas antarctica strain PAMC 27494 chrom... (100% of genes show similarity), bacteriocin" class="clusterblast-cluster"  >
<text x="5" y="70" class="clusterblast-acc"  >
<a xlink:href="https://antismash-db.secondarymetabolites.org/area.html?record=NZ_CP015600&amp;start=1615419&amp;end=1624506" target="_blank">NZ_CP015600 (1615419-1624506)</a>: Pseudomonas antarctica strain PAMC 27494 chrom... (100% of genes show similarity), bacteriocin</text>
<line x1="10" y1="85" x2="778.0" y2="85" style="stroke-width:1; stroke:grey; "  />
</g>
<g id="a1_000"  >
<polygon points="0,85 5,80 57,80 57,90 5,90 0,85 " style="fill:#d81515; stroke-width:1; stroke:black; " description="&lt;b&gt;A7J50_RS07370&lt;/b&gt;&lt;br&gt;hypothetical protein&lt;br&gt;Location: 1615420 - 1616091&lt;br&gt;&lt;br&gt;&lt;b&gt;BlastP hit with ctg13_144&lt;/b&gt;&lt;br&gt;Percentage identity: 100&lt;br&gt;Percentage coverage: 100&lt;br&gt;BLAST bit score: 446&lt;br&gt;E-value: 4.53e-160" locus_tag="A7J50_RS07370" class="clusterblast-orf" id="dummy-1_h1_1_0"  />
</g>
<g id="a1_001"  >
<polygon points="66,85 71,80 117,80 117,90 71,90 66,85 " style="fill:#5cd815; stroke-width:1; stroke:black; " description="&lt;b&gt;A7J50_RS07375&lt;/b&gt;&lt;br&gt;short chain dehydrogenase&lt;br&gt;Location: 1616189 - 1616788&lt;br&gt;&lt;br&gt;&lt;b&gt;BlastP hit with ctg13_145&lt;/b&gt;&lt;br&gt;Percentage identity: 99&lt;br&gt;Percentage coverage: 100&lt;br&gt;BLAST bit score: 381&lt;br&gt;E-value: 2.97e-135" locus_tag="A7J50_RS07375" class="clusterblast-orf" id="dummy-1_h1_1_1"  />
</g>
<g id="a1_002"  >
<polygon points="126,90 199,90 204,85 199,80 126,80 126,90 " style="fill:#15a3d8; stroke-width:1; stroke:black; " description="&lt;b&gt;A7J50_RS07380&lt;/b&gt;&lt;br&gt;LysR family transcriptional regulator&lt;br&gt;Location: 1616892 - 1617800&lt;br&gt;&lt;br&gt;&lt;b&gt;BlastP hit with ctg13_146&lt;/b&gt;&lt;br&gt;Percentage identity: 100&lt;br&gt;Percentage coverage: 100&lt;br&gt;BLAST bit score: 593&lt;br&gt;E-value: 1.18e-215" locus_tag="A7J50_RS07380" class="clusterblast-orf" id="dummy-1_h1_1_2"  />
</g>
<g id="a1_003"  >
<polygon points="204,85 209,80 245,80 245,90 209,90 204,85 " style="fill:#c715d8; stroke-width:1; stroke:black; " description="&lt;b&gt;A7J50_RS07385&lt;/b&gt;&lt;br&gt;DoxX family protein&lt;br&gt;Location: 1617797 - 1618282&lt;br&gt;&lt;br&gt;&lt;b&gt;BlastP hit with ctg13_147&lt;/b&gt;&lt;br&gt;Percentage identity: 100&lt;br&gt;Percentage coverage: 100&lt;br&gt;BLAST bit score: 311&lt;br&gt;E-value: 9.38e-109" locus_tag="A7J50_RS07385" class="clusterblast-orf" id="dummy-1_h1_1_3"  />
</g>
<g id="a1_004"  >
<polygon points="245,85 250,80 312,80 312,90 250,90 245,85 " style="fill:#d88015; stroke-width:1; stroke:black; " description="&lt;b&gt;A7J50_RS07390&lt;/b&gt;&lt;br&gt;DUF2063 domain-containing protein&lt;br&gt;Location: 1618279 - 1619055&lt;br&gt;&lt;br&gt;&lt;b&gt;BlastP hit with ctg13_148&lt;/b&gt;&lt;br&gt;Percentage identity: 99&lt;br&gt;Percentage coverage: 100&lt;br&gt;BLAST bit score: 498&lt;br&gt;E-value: 1.76e-179" locus_tag="A7J50_RS07390" class="clusterblast-orf" id="dummy-1_h1_1_4"  />
</g>
<g id="a1_005"  >
<polygon points="311,85 316,80 387,80 387,90 316,90 311,85 " style="fill:#15d839; stroke-width:1; stroke:black; " description="&lt;b&gt;A7J50_RS07395&lt;/b&gt;&lt;br&gt;DUF692 domain-containing protein&lt;br&gt;Location: 1619052 - 1619933&lt;br&gt;&lt;br&gt;&lt;b&gt;BlastP hit with ctg13_149&lt;/b&gt;&lt;br&gt;Percentage identity: 100&lt;br&gt;Percentage coverage: 100&lt;br&gt;BLAST bit score: 601&lt;br&gt;E-value: 5.21e-219" locus_tag="A7J50_RS07395" class="clusterblast-orf" id="dummy-1_h1_1_5"  />
</g>
<g id="a1_006"  >
<polygon points="389,85 394,80 415,80 415,90 394,90 389,85 " style="fill:#1539d8; stroke-width:1; stroke:black; " description="&lt;b&gt;A7J50_RS07400&lt;/b&gt;&lt;br&gt;DUF2282 domain-containing protein&lt;br&gt;Location: 1619957 - 1620262&lt;br&gt;&lt;br&gt;&lt;b&gt;BlastP hit with ctg13_150&lt;/b&gt;&lt;br&gt;Percentage identity: 100&lt;br&gt;Percentage coverage: 100&lt;br&gt;BLAST bit score: 183&lt;br&gt;E-value: 6.69e-60" locus_tag="A7J50_RS07400" class="clusterblast-orf" id="dummy-1_h1_1_6"  />
</g>
<g id="a1_007"  >
<polygon points="419,90 446,90 451,85 446,80 419,80 419,90 " style="fill:#d81580; stroke-width:1; stroke:black; " description="&lt;b&gt;A7J50_RS07405&lt;/b&gt;&lt;br&gt;hypothetical protein&lt;br&gt;Location: 1620306 - 1620680&lt;br&gt;&lt;br&gt;&lt;b&gt;BlastP hit with ctg13_151&lt;/b&gt;&lt;br&gt;Percentage identity: 99&lt;br&gt;Percentage coverage: 100&lt;br&gt;BLAST bit score: 249&lt;br&gt;E-value: 2.98e-85" locus_tag="A7J50_RS07405" class="clusterblast-orf" id="dummy-1_h1_1_7"  />
</g>
<g id="a1_008"  >
<polygon points="453,90 532,90 537,85 532,80 453,80 453,90 " style="fill:#c7d815; stroke-width:1; stroke:black; " description="&lt;b&gt;A7J50_RS07410&lt;/b&gt;&lt;br&gt;hypothetical protein&lt;br&gt;Location: 1620704 - 1621681&lt;br&gt;&lt;br&gt;&lt;b&gt;BlastP hit with ctg13_152&lt;/b&gt;&lt;br&gt;Percentage identity: 98&lt;br&gt;Percentage coverage: 100&lt;br&gt;BLAST bit score: 661&lt;br&gt;E-value: 7.32e-242" locus_tag="A7J50_RS07410" class="clusterblast-orf" id="dummy-1_h1_1_8"  />
</g>
<g id="a1_009"  >
<polygon points="538,90 644,90 649,85 644,80 538,80 538,90 " style="fill:#15d8a3; stroke-width:1; stroke:black; " description="&lt;b&gt;A7J50_RS07415&lt;/b&gt;&lt;br&gt;MFS transporter&lt;br&gt;Location: 1621694 - 1622986&lt;br&gt;&lt;br&gt;&lt;b&gt;BlastP hit with ctg13_153&lt;/b&gt;&lt;br&gt;Percentage identity: 99&lt;br&gt;Percentage coverage: 100&lt;br&gt;BLAST bit score: 789&lt;br&gt;E-value: 6.56e-289" locus_tag="A7J50_RS07415" class="clusterblast-orf" id="dummy-1_h1_1_9"  />
</g>
<g id="a1_0010"  >
<polygon points="653,85 658,80 713,80 713,90 658,90 653,85 " style="fill:#5c15d8; stroke-width:1; stroke:black; " description="&lt;b&gt;A7J50_RS07420&lt;/b&gt;&lt;br&gt;ABC transporter ATP-binding protein&lt;br&gt;Location: 1623036 - 1623737&lt;br&gt;&lt;br&gt;&lt;b&gt;BlastP hit with ctg13_154&lt;/b&gt;&lt;br&gt;Percentage identity: 100&lt;br&gt;Percentage coverage: 100&lt;br&gt;BLAST bit score: 449&lt;br&gt;E-value: 5.9e-161&lt;br&gt;&lt;br&gt;&lt;b&gt;BlastP hit with ctg13_155&lt;/b&gt;&lt;br&gt;Percentage identity: 33&lt;br&gt;Percentage coverage: 100&lt;br&gt;BLAST bit score: 125&lt;br&gt;E-value: 3.77e-33" locus_tag="A7J50_RS07420" class="clusterblast-orf" id="dummy-1_h1_1_10"  />
</g>
<g id="a1_0011"  >
<polygon points="714,85 719,80 779,80 779,90 719,90 714,85 " style="fill:#5c15d8; stroke-width:1; stroke:black; " description="&lt;b&gt;A7J50_RS07425&lt;/b&gt;&lt;br&gt;high-affinity branched-chain amino acid ABC transporter ATP-binding protein LivG&lt;br&gt;Location: 1623739 - 1624506&lt;br&gt;&lt;br&gt;&lt;b&gt;BlastP hit with ctg13_154&lt;/b&gt;&lt;br&gt;Percentage identity: 32&lt;br&gt;Percentage coverage: 107&lt;br&gt;BLAST bit score: 122&lt;br&gt;E-value: 3.74e-32&lt;br&gt;&lt;br&gt;&lt;b&gt;BlastP hit with ctg13_155&lt;/b&gt;&lt;br&gt;Percentage identity: 99&lt;br&gt;Percentage coverage: 100&lt;br&gt;BLAST bit score: 500&lt;br&gt;E-value: 2.41e-180" locus_tag="A7J50_RS07425" class="clusterblast-orf" id="dummy-1_h1_1_11"  />
</g>
</svg>
