<svg xmlns="http://www.w3.org/2000/svg" xmlns:xlink="http://www.w3.org/1999/xlink" version="1.1" x="0" y="0" height="230" width="800" viewBox="0 0 800 230" preserveAspectRatio="none"  >
<g label="Query sequence" class="clusterblast-cluster"  >
<text x="5" y="20" class="clusterblast-acc"  >
Query sequence</text>
<line x1="10" y1="35" x2="778.0" y2="35" style="stroke-width:1; stroke:grey; "  />
<polygon points="0,35 5,30 46,30 46,40 5,40 0,35 " style="fill:#d81515; stroke-width:1; stroke:black; " description="&lt;b&gt;ctg23_10&lt;/b&gt;&lt;br&gt;ctg23 10&lt;br&gt;Location: 13192 - 16903" locus_tag="ctg23_10" class="clusterblast-orf" id="dummy-1_q0_0_all"  />
<polygon points="48,40 72,40 77,35 72,30 48,30 48,40 " style="fill:#77d815; stroke-width:1; stroke:black; " description="&lt;b&gt;ctg23_11&lt;/b&gt;&lt;br&gt;ctg23 11&lt;br&gt;Location: 17067 - 19362" locus_tag="ctg23_11" class="clusterblast-orf" id="dummy-1_q1_0_all"  />
<polygon points="90,40 93,40 98,35 93,30 90,30 90,40 " style="fill:#15d8d8; stroke-width:1; stroke:black; " description="&lt;b&gt;ctg23_12&lt;/b&gt;&lt;br&gt;ctg23 12&lt;br&gt;Location: 20444 - 21029" locus_tag="ctg23_12" class="clusterblast-orf" id="dummy-1_q2_0_all"  />
<polygon points="100,35 105,30 110,30 110,40 105,40 100,35 " style="fill:#7715d8; stroke-width:1; stroke:black; " description="&lt;b&gt;ctg23_13&lt;/b&gt;&lt;br&gt;ctg23 13&lt;br&gt;Location: 21232 - 21979" locus_tag="ctg23_13" class="clusterblast-orf" id="dummy-1_q3_0_all"  />
<polygon points="110,35 115,30 115,30 115,40 115,40 110,35 " style="fill:#d83f15; stroke-width:1; stroke:black; " description="&lt;b&gt;ctg23_14&lt;/b&gt;&lt;br&gt;ctg23 14&lt;br&gt;Location: 22049 - 22442" locus_tag="ctg23_14" class="clusterblast-orf" id="dummy-1_q4_0_all"  />
<polygon points="115,35 120,30 124,30 124,40 120,40 115,35 " style="fill:#4dd815; stroke-width:1; stroke:black; " description="&lt;b&gt;ctg23_15&lt;/b&gt;&lt;br&gt;ctg23 15&lt;br&gt;Location: 22438 - 23143" locus_tag="ctg23_15" class="clusterblast-orf" id="dummy-1_q5_0_all"  />
<polygon points="124,35 127,30 127,40 124,35 " style="fill:#15aed8; stroke-width:1; stroke:black; " description="&lt;b&gt;ctg23_16&lt;/b&gt;&lt;br&gt;ctg23 16&lt;br&gt;Location: 23154 - 23343" locus_tag="ctg23_16" class="clusterblast-orf" id="dummy-1_q6_0_all"  />
<polygon points="144,40 152,40 157,35 152,30 144,30 144,40 " style="fill:#a115d8; stroke-width:1; stroke:black; " description="&lt;b&gt;ctg23_17&lt;/b&gt;&lt;br&gt;ctg23 17&lt;br&gt;Location: 24726 - 25788" locus_tag="ctg23_17" class="clusterblast-orf" id="dummy-1_q7_0_all"  />
<polygon points="157,40 199,40 204,35 199,30 157,30 157,40 " style="fill:#d86915; stroke-width:1; stroke:black; " description="&lt;b&gt;ctg23_18&lt;/b&gt;&lt;br&gt;ctg23 18&lt;br&gt;Location: 25791 - 29553" locus_tag="ctg23_18" class="clusterblast-orf" id="dummy-1_q8_0_all"  />
<polygon points="204,40 212,40 217,35 212,30 204,30 204,40 " style="fill:#d86915; stroke-width:1; stroke:black; " description="&lt;b&gt;ctg23_19&lt;/b&gt;&lt;br&gt;ctg23 19&lt;br&gt;Location: 29552 - 30551" locus_tag="ctg23_19" class="clusterblast-orf" id="dummy-1_q9_0_all"  />
<polygon points="218,40 220,40 225,35 220,30 218,30 218,40 " style="fill:#23d815; stroke-width:1; stroke:black; " description="&lt;b&gt;ctg23_20&lt;/b&gt;&lt;br&gt;ctg23 20&lt;br&gt;Location: 30670 - 31216" locus_tag="ctg23_20" class="clusterblast-orf" id="dummy-1_q10_0_all"  />
<polygon points="228,40 384,40 389,35 384,30 228,30 228,40 " style="fill:#1585d8; stroke-width:1; stroke:black; " description="&lt;b&gt;ctg23_21&lt;/b&gt;&lt;br&gt;ctg23 21&lt;br&gt;Location: 31425 - 44337" locus_tag="ctg23_21" class="clusterblast-orf" id="dummy-1_q11_0_all"  />
<polygon points="389,40 525,40 530,35 525,30 389,30 389,40 " style="fill:#1585d8; stroke-width:1; stroke:black; " description="&lt;b&gt;ctg23_22&lt;/b&gt;&lt;br&gt;ctg23 22&lt;br&gt;Location: 44333 - 55670" locus_tag="ctg23_22" class="clusterblast-orf" id="dummy-1_q12_0_all"  />
<polygon points="530,40 540,40 545,35 540,30 530,30 530,40 " style="fill:#ca15d8; stroke-width:1; stroke:black; " description="&lt;b&gt;ctg23_23&lt;/b&gt;&lt;br&gt;ctg23 23&lt;br&gt;Location: 55666 - 56809" locus_tag="ctg23_23" class="clusterblast-orf" id="dummy-1_q13_0_all"  />
<polygon points="545,40 564,40 569,35 564,30 545,30 545,40 " style="fill:#d89315; stroke-width:1; stroke:black; " description="&lt;b&gt;ctg23_24&lt;/b&gt;&lt;br&gt;ctg23 24&lt;br&gt;Location: 56812 - 58771" locus_tag="ctg23_24" class="clusterblast-orf" id="dummy-1_q14_0_all"  />
<polygon points="571,35 576,30 579,30 579,40 576,40 571,35 " style="fill:#15d831; stroke-width:1; stroke:black; " description="&lt;b&gt;ctg23_25&lt;/b&gt;&lt;br&gt;ctg23 25&lt;br&gt;Location: 58898 - 59576" locus_tag="ctg23_25" class="clusterblast-orf" id="dummy-1_q15_0_all"  />
<polygon points="582,35 587,30 598,30 598,40 587,40 582,35 " style="fill:#155bd8; stroke-width:1; stroke:black; " description="&lt;b&gt;ctg23_26&lt;/b&gt;&lt;br&gt;ctg23 26&lt;br&gt;Location: 59808 - 61053" locus_tag="ctg23_26" class="clusterblast-orf" id="dummy-1_q16_0_all"  />
<polygon points="599,40 600,40 605,35 600,30 599,30 599,40 " style="fill:#d815bc; stroke-width:1; stroke:black; " description="&lt;b&gt;ctg23_27&lt;/b&gt;&lt;br&gt;ctg23 27&lt;br&gt;Location: 61176 - 61647" locus_tag="ctg23_27" class="clusterblast-orf" id="dummy-1_q17_0_all"  />
<polygon points="606,35 611,30 632,30 632,40 611,40 606,35 " style="fill:#d8bc15; stroke-width:1; stroke:black; " description="&lt;b&gt;ctg23_28&lt;/b&gt;&lt;br&gt;ctg23 28&lt;br&gt;Location: 61692 - 63834" locus_tag="ctg23_28" class="clusterblast-orf" id="dummy-1_q18_0_all"  />
<polygon points="634,35 639,30 645,30 645,40 639,40 634,35 " style="fill:#15d85b; stroke-width:1; stroke:black; " description="&lt;b&gt;ctg23_29&lt;/b&gt;&lt;br&gt;ctg23 29&lt;br&gt;Location: 63939 - 64836" locus_tag="ctg23_29" class="clusterblast-orf" id="dummy-1_q19_0_all"  />
<polygon points="647,40 659,40 664,35 659,30 647,30 647,40 " style="fill:#1531d8; stroke-width:1; stroke:black; " description="&lt;b&gt;ctg23_30&lt;/b&gt;&lt;br&gt;ctg23 30&lt;br&gt;Location: 64974 - 66333" locus_tag="ctg23_30" class="clusterblast-orf" id="dummy-1_q20_0_all"  />
<polygon points="664,40 672,40 677,35 672,30 664,30 664,40 " style="fill:#d81593; stroke-width:1; stroke:black; " description="&lt;b&gt;ctg23_31&lt;/b&gt;&lt;br&gt;ctg23 31&lt;br&gt;Location: 66355 - 67444" locus_tag="ctg23_31" class="clusterblast-orf" id="dummy-1_q21_0_all"  />
<polygon points="677,40 689,40 694,35 689,30 677,30 677,40 " style="fill:#cad815; stroke-width:1; stroke:black; " description="&lt;b&gt;ctg23_32&lt;/b&gt;&lt;br&gt;ctg23 32&lt;br&gt;Location: 67440 - 68736" locus_tag="ctg23_32" class="clusterblast-orf" id="dummy-1_q22_0_all"  />
<polygon points="695,35 700,30 706,30 706,40 700,40 695,35 " style="fill:#15d885; stroke-width:1; stroke:black; " description="&lt;b&gt;ctg23_33&lt;/b&gt;&lt;br&gt;ctg23 33&lt;br&gt;Location: 68848 - 69742" locus_tag="ctg23_33" class="clusterblast-orf" id="dummy-1_q23_0_all"  />
<polygon points="708,40 715,40 720,35 715,30 708,30 708,40 " style="fill:#2315d8; stroke-width:1; stroke:black; " description="&lt;b&gt;ctg23_34&lt;/b&gt;&lt;br&gt;ctg23 34&lt;br&gt;Location: 69855 - 70860" locus_tag="ctg23_34" class="clusterblast-orf" id="dummy-1_q24_0_all"  />
<polygon points="720,40 725,40 730,35 725,30 720,30 720,40 " style="fill:#d81569; stroke-width:1; stroke:black; " description="&lt;b&gt;ctg23_35&lt;/b&gt;&lt;br&gt;ctg23 35&lt;br&gt;Location: 70875 - 71673" locus_tag="ctg23_35" class="clusterblast-orf" id="dummy-1_q25_0_all"  />
<polygon points="731,40 731,40 736,35 731,30 731,30 731,40 " style="fill:#a1d815; stroke-width:1; stroke:black; " description="&lt;b&gt;ctg23_36&lt;/b&gt;&lt;br&gt;ctg23 36&lt;br&gt;Location: 71700 - 72111" locus_tag="ctg23_36" class="clusterblast-orf" id="dummy-1_q26_0_all"  />
<polygon points="737,35 742,30 755,30 755,40 742,40 737,35 " style="fill:#15d8ae; stroke-width:1; stroke:black; " description="&lt;b&gt;ctg23_37&lt;/b&gt;&lt;br&gt;ctg23 37&lt;br&gt;Location: 72238 - 73633" locus_tag="ctg23_37" class="clusterblast-orf" id="dummy-1_q27_0_all"  />
<polygon points="754,35 759,30 763,30 763,40 759,40 754,35 " style="fill:#4d15d8; stroke-width:1; stroke:black; " description="&lt;b&gt;ctg23_38&lt;/b&gt;&lt;br&gt;ctg23 38&lt;br&gt;Location: 73610 - 74294" locus_tag="ctg23_38" class="clusterblast-orf" id="dummy-1_q28_0_all"  />
<polygon points="768,40 774,40 779,35 774,30 768,30 768,40 " style="fill:#d8153f; stroke-width:1; stroke:black; " description="&lt;b&gt;ctg23_39&lt;/b&gt;&lt;br&gt;ctg23 39&lt;br&gt;Location: 74704 - 75610" locus_tag="ctg23_39" class="clusterblast-orf" id="dummy-1_q29_0_all"  />
</g>
<g label="NZ_CP015600" description="NZ_CP015600 (2619322-2681778): Pseudomonas antarctica strain PAMC 27494 chrom... (93% of genes show similarity), NRPS" class="clusterblast-cluster"  >
<text x="5" y="70" class="clusterblast-acc"  >
<a xlink:href="https://antismash-db.secondarymetabolites.org/area.html?record=NZ_CP015600&amp;start=2619322&amp;end=2681778" target="_blank">NZ_CP015600 (2619322-2681778)</a>: Pseudomonas antarctica strain PAMC 27494 chrom... (93% of genes show similarity), NRPS</text>
<line x1="10" y1="85" x2="778.0" y2="85" style="stroke-width:1; stroke:grey; "  />
</g>
<g id="a1_000"  >
<polygon points="0,85 5,80 46,80 46,90 5,90 0,85 " style="fill:#d81515; stroke-width:1; stroke:black; " description="&lt;b&gt;A7J50_RS12135&lt;/b&gt;&lt;br&gt;methionine synthase&lt;br&gt;Location: 2619323 - 2623033&lt;br&gt;&lt;br&gt;&lt;b&gt;BlastP hit with ctg23_10&lt;/b&gt;&lt;br&gt;Percentage identity: 100&lt;br&gt;Percentage coverage: 100&lt;br&gt;BLAST bit score: 2461&lt;br&gt;E-value: 0.0" locus_tag="A7J50_RS12135" class="clusterblast-orf" id="dummy-1_h1_3_0"  />
</g>
<g id="a1_001"  >
<polygon points="48,90 72,90 77,85 72,80 48,80 48,90 " style="fill:#77d815; stroke-width:1; stroke:black; " description="&lt;b&gt;A7J50_RS12140&lt;/b&gt;&lt;br&gt;fatty acid cis/trans isomerase&lt;br&gt;Location: 2623198 - 2625492&lt;br&gt;&lt;br&gt;&lt;b&gt;BlastP hit with ctg23_11&lt;/b&gt;&lt;br&gt;Percentage identity: 100&lt;br&gt;Percentage coverage: 100&lt;br&gt;BLAST bit score: 1575&lt;br&gt;E-value: 0.0" locus_tag="A7J50_RS12140" class="clusterblast-orf" id="dummy-1_h1_3_1"  />
</g>
<g id="a1_002"  >
<polygon points="90,90 92,90 97,85 92,80 90,80 90,90 " style="fill:#15d8d8; stroke-width:1; stroke:black; " description="&lt;b&gt;A7J50_RS12150&lt;/b&gt;&lt;br&gt;Fe-S biogenesis protein NfuA&lt;br&gt;Location: 2626565 - 2627149&lt;br&gt;&lt;br&gt;&lt;b&gt;BlastP hit with ctg23_12&lt;/b&gt;&lt;br&gt;Percentage identity: 100&lt;br&gt;Percentage coverage: 100&lt;br&gt;BLAST bit score: 394&lt;br&gt;E-value: 2.68e-140" locus_tag="A7J50_RS12150" class="clusterblast-orf" id="dummy-1_h1_3_2"  />
</g>
<g id="a1_003"  >
<polygon points="100,85 105,80 109,80 109,90 105,90 100,85 " style="fill:#7715d8; stroke-width:1; stroke:black; " description="&lt;b&gt;A7J50_RS12155&lt;/b&gt;&lt;br&gt;precorrin-4 C(11)-methyltransferase&lt;br&gt;Location: 2627351 - 2628097&lt;br&gt;&lt;br&gt;&lt;b&gt;BlastP hit with ctg23_13&lt;/b&gt;&lt;br&gt;Percentage identity: 100&lt;br&gt;Percentage coverage: 100&lt;br&gt;BLAST bit score: 495&lt;br&gt;E-value: 1.35e-178" locus_tag="A7J50_RS12155" class="clusterblast-orf" id="dummy-1_h1_3_3"  />
</g>
<g id="a1_004"  >
<polygon points="110,85 115,80 115,80 115,90 115,90 110,85 " style="fill:#d83f15; stroke-width:1; stroke:black; " description="&lt;b&gt;A7J50_RS12160&lt;/b&gt;&lt;br&gt;cobalamin biosynthesis protein&lt;br&gt;Location: 2628168 - 2628560&lt;br&gt;&lt;br&gt;&lt;b&gt;BlastP hit with ctg23_14&lt;/b&gt;&lt;br&gt;Percentage identity: 98&lt;br&gt;Percentage coverage: 100&lt;br&gt;BLAST bit score: 246&lt;br&gt;E-value: 7.75e-84" locus_tag="A7J50_RS12160" class="clusterblast-orf" id="dummy-1_h1_3_4"  />
</g>
<g id="a1_005"  >
<polygon points="115,85 120,80 124,80 124,90 120,90 115,85 " style="fill:#4dd815; stroke-width:1; stroke:black; " description="&lt;b&gt;A7J50_RS12165&lt;/b&gt;&lt;br&gt;CbtA family protein&lt;br&gt;Location: 2628557 - 2629261&lt;br&gt;&lt;br&gt;&lt;b&gt;BlastP hit with ctg23_15&lt;/b&gt;&lt;br&gt;Percentage identity: 99&lt;br&gt;Percentage coverage: 100&lt;br&gt;BLAST bit score: 448&lt;br&gt;E-value: 1.29e-160" locus_tag="A7J50_RS12165" class="clusterblast-orf" id="dummy-1_h1_3_5"  />
</g>
<g id="a1_006"  >
<polygon points="124,85 126,80 126,90 124,85 " style="fill:#15aed8; stroke-width:1; stroke:black; " description="&lt;b&gt;A7J50_RS12170&lt;/b&gt;&lt;br&gt;CbtB-domain containing protein&lt;br&gt;Location: 2629273 - 2629461&lt;br&gt;&lt;br&gt;&lt;b&gt;BlastP hit with ctg23_16&lt;/b&gt;&lt;br&gt;Percentage identity: 100&lt;br&gt;Percentage coverage: 100&lt;br&gt;BLAST bit score: 118&lt;br&gt;E-value: 2.59e-35" locus_tag="A7J50_RS12170" class="clusterblast-orf" id="dummy-1_h1_3_6"  />
</g>
<g id="a1_007"  >
<polygon points="143,90 152,90 157,85 152,80 143,80 143,90 " style="fill:#a115d8; stroke-width:1; stroke:black; " description="&lt;b&gt;A7J50_RS12175&lt;/b&gt;&lt;br&gt;cobalamin biosynthesis protein CobW&lt;br&gt;Location: 2630844 - 2631905&lt;br&gt;&lt;br&gt;&lt;b&gt;BlastP hit with ctg23_17&lt;/b&gt;&lt;br&gt;Percentage identity: 100&lt;br&gt;Percentage coverage: 100&lt;br&gt;BLAST bit score: 655&lt;br&gt;E-value: 2.52e-238" locus_tag="A7J50_RS12175" class="clusterblast-orf" id="dummy-1_h1_3_7"  />
</g>
<g id="a1_008"  >
<polygon points="157,90 199,90 204,85 199,80 157,80 157,90 " style="fill:#d86915; stroke-width:1; stroke:black; " description="&lt;b&gt;A7J50_RS12180&lt;/b&gt;&lt;br&gt;cobaltochelatase subunit CobN&lt;br&gt;Location: 2631909 - 2635670&lt;br&gt;&lt;br&gt;&lt;b&gt;BlastP hit with ctg23_18&lt;/b&gt;&lt;br&gt;Percentage identity: 100&lt;br&gt;Percentage coverage: 100&lt;br&gt;BLAST bit score: 2520&lt;br&gt;E-value: 0.0" locus_tag="A7J50_RS12180" class="clusterblast-orf" id="dummy-1_h1_3_8"  />
</g>
<g id="a1_009"  >
<polygon points="204,90 211,90 216,85 211,80 204,80 204,90 " style="fill:#d86915; stroke-width:1; stroke:black; " description="&lt;b&gt;A7J50_RS12185&lt;/b&gt;&lt;br&gt;AAA domain-containing protein&lt;br&gt;Location: 2635670 - 2636668&lt;br&gt;&lt;br&gt;&lt;b&gt;BlastP hit with ctg23_19&lt;/b&gt;&lt;br&gt;Percentage identity: 100&lt;br&gt;Percentage coverage: 100&lt;br&gt;BLAST bit score: 652&lt;br&gt;E-value: 5.76e-238" locus_tag="A7J50_RS12185" class="clusterblast-orf" id="dummy-1_h1_3_9"  />
</g>
<g id="a1_0010"  >
<polygon points="217,90 219,90 224,85 219,80 217,80 217,90 " style="fill:#23d815; stroke-width:1; stroke:black; " description="&lt;b&gt;A7J50_RS12190&lt;/b&gt;&lt;br&gt;VWA domain-containing protein&lt;br&gt;Location: 2636722 - 2637333&lt;br&gt;&lt;br&gt;&lt;b&gt;BlastP hit with ctg23_20&lt;/b&gt;&lt;br&gt;Percentage identity: 99&lt;br&gt;Percentage coverage: 100&lt;br&gt;BLAST bit score: 349&lt;br&gt;E-value: 1.05e-122" locus_tag="A7J50_RS12190" class="clusterblast-orf" id="dummy-1_h1_3_10"  />
</g>
<g id="a1_0011"  >
<polygon points="227,90 383,90 388,85 383,80 227,80 227,90 " style="fill:#1585d8; stroke-width:1; stroke:black; " description="&lt;b&gt;A7J50_RS12195&lt;/b&gt;&lt;br&gt;non-ribosomal peptide synthetase&lt;br&gt;Location: 2637543 - 2650454&lt;br&gt;&lt;br&gt;&lt;b&gt;BlastP hit with ctg23_21&lt;/b&gt;&lt;br&gt;Percentage identity: 99&lt;br&gt;Percentage coverage: 100&lt;br&gt;BLAST bit score: 8401&lt;br&gt;E-value: 0.0&lt;br&gt;&lt;br&gt;&lt;b&gt;BlastP hit with ctg23_22&lt;/b&gt;&lt;br&gt;Percentage identity: 61&lt;br&gt;Percentage coverage: 57&lt;br&gt;BLAST bit score: 2414&lt;br&gt;E-value: 0.0" locus_tag="A7J50_RS12195" class="clusterblast-orf" id="dummy-1_h1_3_11"  />
</g>
<g id="a1_0012"  >
<polygon points="388,90 525,90 530,85 525,80 388,80 388,90 " style="fill:#1585d8; stroke-width:1; stroke:black; " description="&lt;b&gt;A7J50_RS12200&lt;/b&gt;&lt;br&gt;non-ribosomal peptide synthetase&lt;br&gt;Location: 2650451 - 2661787&lt;br&gt;&lt;br&gt;&lt;b&gt;BlastP hit with ctg23_21&lt;/b&gt;&lt;br&gt;Percentage identity: 61&lt;br&gt;Percentage coverage: 50&lt;br&gt;BLAST bit score: 2417&lt;br&gt;E-value: 0.0&lt;br&gt;&lt;br&gt;&lt;b&gt;BlastP hit with ctg23_22&lt;/b&gt;&lt;br&gt;Percentage identity: 99&lt;br&gt;Percentage coverage: 100&lt;br&gt;BLAST bit score: 7400&lt;br&gt;E-value: 0.0" locus_tag="A7J50_RS12200" class="clusterblast-orf" id="dummy-1_h1_3_12"  />
</g>
<g id="a1_0013"  >
<polygon points="530,90 539,90 544,85 539,80 530,80 530,90 " style="fill:#ca15d8; stroke-width:1; stroke:black; " description="&lt;b&gt;A7J50_RS12205&lt;/b&gt;&lt;br&gt;macrolide transporter subunit MacA&lt;br&gt;Location: 2661805 - 2662926&lt;br&gt;&lt;br&gt;&lt;b&gt;BlastP hit with ctg23_23&lt;/b&gt;&lt;br&gt;Percentage identity: 100&lt;br&gt;Percentage coverage: 98&lt;br&gt;BLAST bit score: 682&lt;br&gt;E-value: 1.68e-248" locus_tag="A7J50_RS12205" class="clusterblast-orf" id="dummy-1_h1_3_13"  />
</g>
<g id="a1_0014"  >
<polygon points="544,90 564,90 569,85 564,80 544,80 544,90 " style="fill:#d89315; stroke-width:1; stroke:black; " description="&lt;b&gt;A7J50_RS12210&lt;/b&gt;&lt;br&gt;MacB family efflux pump subunit&lt;br&gt;Location: 2662930 - 2664888&lt;br&gt;&lt;br&gt;&lt;b&gt;BlastP hit with ctg23_24&lt;/b&gt;&lt;br&gt;Percentage identity: 100&lt;br&gt;Percentage coverage: 100&lt;br&gt;BLAST bit score: 1232&lt;br&gt;E-value: 0.0" locus_tag="A7J50_RS12210" class="clusterblast-orf" id="dummy-1_h1_3_14"  />
</g>
<g id="a1_0015"  >
<polygon points="570,85 575,80 579,80 579,90 575,90 570,85 " style="fill:#15d831; stroke-width:1; stroke:black; " description="&lt;b&gt;A7J50_RS12215&lt;/b&gt;&lt;br&gt;helix-turn-helix transcriptional regulator&lt;br&gt;Location: 2665016 - 2665705&lt;br&gt;&lt;br&gt;&lt;b&gt;BlastP hit with ctg23_25&lt;/b&gt;&lt;br&gt;Percentage identity: 99&lt;br&gt;Percentage coverage: 100&lt;br&gt;BLAST bit score: 427&lt;br&gt;E-value: 2.56e-152" locus_tag="A7J50_RS12215" class="clusterblast-orf" id="dummy-1_h1_3_15"  />
</g>
<g id="a1_0016"  >
<polygon points="582,85 587,80 597,80 597,90 587,90 582,85 " style="fill:#155bd8; stroke-width:1; stroke:black; " description="&lt;b&gt;A7J50_RS12220&lt;/b&gt;&lt;br&gt;methionine gamma-lyase&lt;br&gt;Location: 2665926 - 2667170&lt;br&gt;&lt;br&gt;&lt;b&gt;BlastP hit with ctg23_26&lt;/b&gt;&lt;br&gt;Percentage identity: 100&lt;br&gt;Percentage coverage: 100&lt;br&gt;BLAST bit score: 824&lt;br&gt;E-value: 2.54e-303" locus_tag="A7J50_RS12220" class="clusterblast-orf" id="dummy-1_h1_3_16"  />
</g>
<g id="a1_0017"  >
<polygon points="599,90 599,90 604,85 599,80 599,80 599,90 " style="fill:#d815bc; stroke-width:1; stroke:black; " description="&lt;b&gt;A7J50_RS12225&lt;/b&gt;&lt;br&gt;Lrp/AsnC family transcriptional regulator&lt;br&gt;Location: 2667294 - 2667764&lt;br&gt;&lt;br&gt;&lt;b&gt;BlastP hit with ctg23_27&lt;/b&gt;&lt;br&gt;Percentage identity: 100&lt;br&gt;Percentage coverage: 100&lt;br&gt;BLAST bit score: 308&lt;br&gt;E-value: 1.52e-107" locus_tag="A7J50_RS12225" class="clusterblast-orf" id="dummy-1_h1_3_17"  />
</g>
<g id="a1_0018"  >
<polygon points="605,85 610,80 615,80 615,90 610,90 605,85 " style="fill:white; stroke-width:1; stroke:black; " description="&lt;b&gt;A7J50_RS12230&lt;/b&gt;&lt;br&gt;helix-turn-helix transcriptional regulator&lt;br&gt;Location: 2667843 - 2668613" locus_tag="A7J50_RS12230" class="clusterblast-orf" id="dummy-1_h1_3_18"  />
</g>
<g id="a1_0019"  >
<polygon points="616,90 625,90 630,85 625,80 616,80 616,90 " style="fill:white; stroke-width:1; stroke:black; " description="&lt;b&gt;A7J50_RS12235&lt;/b&gt;&lt;br&gt;MFS transporter&lt;br&gt;Location: 2668712 - 2669842" locus_tag="A7J50_RS12235" class="clusterblast-orf" id="dummy-1_h1_3_19"  />
</g>
<g id="a1_0020"  >
<polygon points="630,85 635,80 657,80 657,90 635,90 630,85 " style="fill:#d8bc15; stroke-width:1; stroke:black; " description="&lt;b&gt;A7J50_RS12240&lt;/b&gt;&lt;br&gt;TonB-dependent siderophore receptor&lt;br&gt;Location: 2669832 - 2671973&lt;br&gt;&lt;br&gt;&lt;b&gt;BlastP hit with ctg23_28&lt;/b&gt;&lt;br&gt;Percentage identity: 100&lt;br&gt;Percentage coverage: 100&lt;br&gt;BLAST bit score: 1429&lt;br&gt;E-value: 0.0" locus_tag="A7J50_RS12240" class="clusterblast-orf" id="dummy-1_h1_3_20"  />
</g>
<g id="a1_0021"  >
<polygon points="658,85 663,80 670,80 670,90 663,90 658,85 " style="fill:#15d85b; stroke-width:1; stroke:black; " description="&lt;b&gt;A7J50_RS12245&lt;/b&gt;&lt;br&gt;helix-turn-helix domain-containing protein&lt;br&gt;Location: 2672079 - 2672975&lt;br&gt;&lt;br&gt;&lt;b&gt;BlastP hit with ctg23_29&lt;/b&gt;&lt;br&gt;Percentage identity: 100&lt;br&gt;Percentage coverage: 100&lt;br&gt;BLAST bit score: 603&lt;br&gt;E-value: 1.33e-219" locus_tag="A7J50_RS12245" class="clusterblast-orf" id="dummy-1_h1_3_21"  />
</g>
<g id="a1_0022"  >
<polygon points="671,90 683,90 688,85 683,80 671,80 671,90 " style="fill:#1531d8; stroke-width:1; stroke:black; " description="&lt;b&gt;A7J50_RS12250&lt;/b&gt;&lt;br&gt;glutamine synthetase&lt;br&gt;Location: 2673114 - 2674472&lt;br&gt;&lt;br&gt;&lt;b&gt;BlastP hit with ctg23_30&lt;/b&gt;&lt;br&gt;Percentage identity: 100&lt;br&gt;Percentage coverage: 100&lt;br&gt;BLAST bit score: 919&lt;br&gt;E-value: 0.0" locus_tag="A7J50_RS12250" class="clusterblast-orf" id="dummy-1_h1_3_22"  />
</g>
<g id="a1_0023"  >
<polygon points="689,90 697,90 702,85 697,80 689,80 689,90 " style="fill:#d81593; stroke-width:1; stroke:black; " description="&lt;b&gt;A7J50_RS12255&lt;/b&gt;&lt;br&gt;polyamine ABC transporter substrate-binding protein&lt;br&gt;Location: 2674495 - 2675583&lt;br&gt;&lt;br&gt;&lt;b&gt;BlastP hit with ctg23_31&lt;/b&gt;&lt;br&gt;Percentage identity: 100&lt;br&gt;Percentage coverage: 100&lt;br&gt;BLAST bit score: 723&lt;br&gt;E-value: 3.76e-265" locus_tag="A7J50_RS12255" class="clusterblast-orf" id="dummy-1_h1_3_23"  />
</g>
<g id="a1_0024"  >
<polygon points="702,90 713,90 718,85 713,80 702,80 702,90 " style="fill:#cad815; stroke-width:1; stroke:black; " description="&lt;b&gt;A7J50_RS12260&lt;/b&gt;&lt;br&gt;FAD-binding oxidoreductase&lt;br&gt;Location: 2675580 - 2676875&lt;br&gt;&lt;br&gt;&lt;b&gt;BlastP hit with ctg23_32&lt;/b&gt;&lt;br&gt;Percentage identity: 100&lt;br&gt;Percentage coverage: 100&lt;br&gt;BLAST bit score: 870&lt;br&gt;E-value: 0.0" locus_tag="A7J50_RS12260" class="clusterblast-orf" id="dummy-1_h1_3_24"  />
</g>
<g id="a1_0025"  >
<polygon points="720,85 725,80 731,80 731,90 725,90 720,85 " style="fill:#15d885; stroke-width:1; stroke:black; " description="&lt;b&gt;A7J50_RS12265&lt;/b&gt;&lt;br&gt;LysR family transcriptional regulator&lt;br&gt;Location: 2676994 - 2677887&lt;br&gt;&lt;br&gt;&lt;b&gt;BlastP hit with ctg23_33&lt;/b&gt;&lt;br&gt;Percentage identity: 100&lt;br&gt;Percentage coverage: 100&lt;br&gt;BLAST bit score: 590&lt;br&gt;E-value: 1.88e-214" locus_tag="A7J50_RS12265" class="clusterblast-orf" id="dummy-1_h1_3_25"  />
</g>
<g id="a1_0026"  >
<polygon points="732,90 740,90 745,85 740,80 732,80 732,90 " style="fill:#2315d8; stroke-width:1; stroke:black; " description="&lt;b&gt;A7J50_RS12270&lt;/b&gt;&lt;br&gt;aldo/keto reductase&lt;br&gt;Location: 2678001 - 2679005&lt;br&gt;&lt;br&gt;&lt;b&gt;BlastP hit with ctg23_34&lt;/b&gt;&lt;br&gt;Percentage identity: 100&lt;br&gt;Percentage coverage: 100&lt;br&gt;BLAST bit score: 653&lt;br&gt;E-value: 3.34e-238" locus_tag="A7J50_RS12270" class="clusterblast-orf" id="dummy-1_h1_3_26"  />
</g>
<g id="a1_0027"  >
<polygon points="745,90 750,90 755,85 750,80 745,80 745,90 " style="fill:#d81569; stroke-width:1; stroke:black; " description="&lt;b&gt;A7J50_RS12275&lt;/b&gt;&lt;br&gt;SDR family oxidoreductase&lt;br&gt;Location: 2679021 - 2679818&lt;br&gt;&lt;br&gt;&lt;b&gt;BlastP hit with ctg23_35&lt;/b&gt;&lt;br&gt;Percentage identity: 100&lt;br&gt;Percentage coverage: 100&lt;br&gt;BLAST bit score: 502&lt;br&gt;E-value: 6.35e-181" locus_tag="A7J50_RS12275" class="clusterblast-orf" id="dummy-1_h1_3_27"  />
</g>
<g id="a1_0028"  >
<polygon points="755,90 755,90 760,85 755,80 755,80 755,90 " style="fill:#a1d815; stroke-width:1; stroke:black; " description="&lt;b&gt;A7J50_RS12280&lt;/b&gt;&lt;br&gt;SRPBCC family protein&lt;br&gt;Location: 2679846 - 2680256&lt;br&gt;&lt;br&gt;&lt;b&gt;BlastP hit with ctg23_36&lt;/b&gt;&lt;br&gt;Percentage identity: 100&lt;br&gt;Percentage coverage: 99&lt;br&gt;BLAST bit score: 261&lt;br&gt;E-value: 9.6e-90" locus_tag="A7J50_RS12280" class="clusterblast-orf" id="dummy-1_h1_3_28"  />
</g>
<g id="a1_0029"  >
<polygon points="762,85 767,80 780,80 780,90 767,90 762,85 " style="fill:#15d8ae; stroke-width:1; stroke:black; " description="&lt;b&gt;A7J50_RS12285&lt;/b&gt;&lt;br&gt;HAMP domain-containing histidine kinase&lt;br&gt;Location: 2680384 - 2681778&lt;br&gt;&lt;br&gt;&lt;b&gt;BlastP hit with ctg23_37&lt;/b&gt;&lt;br&gt;Percentage identity: 100&lt;br&gt;Percentage coverage: 100&lt;br&gt;BLAST bit score: 914&lt;br&gt;E-value: 0.0" locus_tag="A7J50_RS12285" class="clusterblast-orf" id="dummy-1_h1_3_29"  />
</g>
</svg>
