<svg xmlns="http://www.w3.org/2000/svg" xmlns:xlink="http://www.w3.org/1999/xlink" version="1.1" x="0" y="0" height="230" width="800" viewBox="0 0 800 230" preserveAspectRatio="none"  >
<g label="Query sequence" class="clusterblast-cluster"  >
<text x="5" y="20" class="clusterblast-acc"  >
Query sequence</text>
<line x1="10" y1="35" x2="778.0" y2="35" style="stroke-width:1; stroke:grey; "  />
<polygon points="216,40 245,40 250,35 245,30 216,30 216,40 " style="fill:#d81515; stroke-width:1; stroke:black; " description="&lt;b&gt;ctg39_1&lt;/b&gt;&lt;br&gt;ctg39 1&lt;br&gt;Location: 832 - 2713" locus_tag="ctg39_1" class="clusterblast-orf" id="dummy-1_q0_0_all"  />
<polygon points="251,35 256,30 260,30 260,40 256,40 251,35 " style="fill:#3cd815; stroke-width:1; stroke:black; " description="&lt;b&gt;ctg39_2&lt;/b&gt;&lt;br&gt;ctg39 2&lt;br&gt;Location: 2752 - 3211" locus_tag="ctg39_2" class="clusterblast-orf" id="dummy-1_q1_0_all"  />
<polygon points="260,35 265,30 322,30 322,40 265,40 260,35 " style="fill:#1563d8; stroke-width:1; stroke:black; " description="&lt;b&gt;ctg39_3&lt;/b&gt;&lt;br&gt;ctg39 3&lt;br&gt;Location: 3229 - 6607" locus_tag="ctg39_3" class="clusterblast-orf" id="dummy-1_q2_0_all"  />
<polygon points="322,35 327,30 339,30 339,40 327,40 322,35 " style="fill:#b115d8; stroke-width:1; stroke:black; " description="&lt;b&gt;ctg39_4&lt;/b&gt;&lt;br&gt;ctg39 4&lt;br&gt;Location: 6603 - 7551" locus_tag="ctg39_4" class="clusterblast-orf" id="dummy-1_q3_0_all"  />
<polygon points="339,35 344,30 353,30 353,40 344,40 339,35 " style="fill:#d88a15; stroke-width:1; stroke:black; " description="&lt;b&gt;ctg39_5&lt;/b&gt;&lt;br&gt;ctg39 5&lt;br&gt;Location: 7547 - 8306" locus_tag="ctg39_5" class="clusterblast-orf" id="dummy-1_q4_0_all"  />
<polygon points="360,35 365,30 373,30 373,40 365,40 360,35 " style="fill:#15d863; stroke-width:1; stroke:black; " description="&lt;b&gt;ctg39_6&lt;/b&gt;&lt;br&gt;ctg39 6&lt;br&gt;Location: 8688 - 9399" locus_tag="ctg39_6" class="clusterblast-orf" id="dummy-1_q5_0_all"  />
<polygon points="379,40 385,40 390,35 385,30 379,30 379,40 " style="fill:#3c15d8; stroke-width:1; stroke:black; " description="&lt;b&gt;ctg39_7&lt;/b&gt;&lt;br&gt;ctg39 7&lt;br&gt;Location: 9717 - 10341" locus_tag="ctg39_7" class="clusterblast-orf" id="dummy-1_q6_0_all"  />
<polygon points="390,40 421,40 426,35 421,30 390,30 390,40 " style="fill:#d8158a; stroke-width:1; stroke:black; " description="&lt;b&gt;ctg39_8&lt;/b&gt;&lt;br&gt;ctg39 8&lt;br&gt;Location: 10355 - 12302" locus_tag="ctg39_8" class="clusterblast-orf" id="dummy-1_q7_0_all"  />
<polygon points="429,35 434,30 435,30 435,40 434,40 429,35 " style="fill:#b1d815; stroke-width:1; stroke:black; " description="&lt;b&gt;ctg39_9&lt;/b&gt;&lt;br&gt;ctg39 9&lt;br&gt;Location: 12443 - 12782" locus_tag="ctg39_9" class="clusterblast-orf" id="dummy-1_q8_0_all"  />
<polygon points="438,35 443,30 563,30 563,40 443,40 438,35 " style="fill:#15d8d8; stroke-width:1; stroke:black; " description="&lt;b&gt;ctg39_10&lt;/b&gt;&lt;br&gt;ctg39 10&lt;br&gt;Location: 12934 - 19801" locus_tag="ctg39_10" class="clusterblast-orf" id="dummy-1_q9_0_all"  />
</g>
<g label="NZ_CP027753" description="NZ_CP027753 (132612-175186): Pseudomonas chlororaphis strain B25 chromosome, ... (50% of genes show similarity), NRPS-like" class="clusterblast-cluster"  >
<text x="5" y="70" class="clusterblast-acc"  >
<a xlink:href="https://antismash-db.secondarymetabolites.org/area.html?record=NZ_CP027753&amp;start=132612&amp;end=175186" target="_blank">NZ_CP027753 (132612-175186)</a>: Pseudomonas chlororaphis strain B25 chromosome, ... (50% of genes show similarity), NRPS-like</text>
<line x1="10" y1="85" x2="778.0" y2="85" style="stroke-width:1; stroke:grey; "  />
</g>
<g id="a1_000"  >
<polygon points="0,85 5,80 5,80 5,90 5,90 0,85 " style="fill:white; stroke-width:1; stroke:black; " description="&lt;b&gt;C4K04_RS00650&lt;/b&gt;&lt;br&gt;NAD(P) transhydrogenase subunit alpha&lt;br&gt;Location: 132613 - 132936" locus_tag="C4K04_RS00650" class="clusterblast-orf" id="dummy-1_h1_9_0"  />
</g>
<g id="a1_001"  >
<polygon points="6,85 11,80 26,80 26,90 11,90 6,85 " style="fill:white; stroke-width:1; stroke:black; " description="&lt;b&gt;C4K04_RS00655&lt;/b&gt;&lt;br&gt;Re/Si-specific NAD(P)(+) transhydrogenase subunit alpha&lt;br&gt;Location: 132952 - 134073" locus_tag="C4K04_RS00655" class="clusterblast-orf" id="dummy-1_h1_9_1"  />
</g>
<g id="a1_002"  >
<polygon points="35,85 40,80 51,80 51,90 40,90 35,85 " style="fill:white; stroke-width:1; stroke:black; " description="&lt;b&gt;C4K04_RS00660&lt;/b&gt;&lt;br&gt;LysR family transcriptional regulator&lt;br&gt;Location: 134525 - 135424" locus_tag="C4K04_RS00660" class="clusterblast-orf" id="dummy-1_h1_9_2"  />
</g>
<g id="a1_003"  >
<polygon points="54,90 71,90 76,85 71,80 54,80 54,90 " style="fill:white; stroke-width:1; stroke:black; " description="&lt;b&gt;C4K04_RS00665&lt;/b&gt;&lt;br&gt;acyl-CoA dehydrogenase&lt;br&gt;Location: 135582 - 136763" locus_tag="C4K04_RS00665" class="clusterblast-orf" id="dummy-1_h1_9_3"  />
</g>
<g id="a1_004"  >
<polygon points="76,90 93,90 98,85 93,80 76,80 76,90 " style="fill:white; stroke-width:1; stroke:black; " description="&lt;b&gt;C4K04_RS00670&lt;/b&gt;&lt;br&gt;CoA transferase&lt;br&gt;Location: 136777 - 137997" locus_tag="C4K04_RS00670" class="clusterblast-orf" id="dummy-1_h1_9_4"  />
</g>
<g id="a1_005"  >
<polygon points="212,85 217,80 234,80 234,90 217,90 212,85 " style="fill:white; stroke-width:1; stroke:black; " description="&lt;b&gt;C4K04_RS00710&lt;/b&gt;&lt;br&gt;PepSY domain-containing protein&lt;br&gt;Location: 144214 - 145389" locus_tag="C4K04_RS00710" class="clusterblast-orf" id="dummy-1_h1_9_5"  />
</g>
<g id="a1_006"  >
<polygon points="235,85 240,80 280,80 280,90 240,90 235,85 " style="fill:white; stroke-width:1; stroke:black; " description="&lt;b&gt;C4K04_RS00715&lt;/b&gt;&lt;br&gt;TonB-dependent siderophore receptor&lt;br&gt;Location: 145454 - 147949" locus_tag="C4K04_RS00715" class="clusterblast-orf" id="dummy-1_h1_9_6"  />
</g>
<g id="a1_007"  >
<polygon points="282,85 287,80 301,80 301,90 287,90 282,85 " style="fill:white; stroke-width:1; stroke:black; " description="&lt;b&gt;C4K04_RS00720&lt;/b&gt;&lt;br&gt;FecR family protein&lt;br&gt;Location: 148053 - 149063" locus_tag="C4K04_RS00720" class="clusterblast-orf" id="dummy-1_h1_9_7"  />
</g>
<g id="a1_008"  >
<polygon points="301,85 306,80 310,80 310,90 306,90 301,85 " style="fill:white; stroke-width:1; stroke:black; " description="&lt;b&gt;C4K04_RS00725&lt;/b&gt;&lt;br&gt;sigma-70 family RNA polymerase sigma factor&lt;br&gt;Location: 149069 - 149569" locus_tag="C4K04_RS00725" class="clusterblast-orf" id="dummy-1_h1_9_8"  />
</g>
<g id="a1_009"  >
<polygon points="316,90 345,90 350,85 345,80 316,80 316,90 " style="fill:#d81515; stroke-width:1; stroke:black; " description="&lt;b&gt;C4K04_RS00730&lt;/b&gt;&lt;br&gt;methyl-accepting chemotaxis protein&lt;br&gt;Location: 149884 - 151764&lt;br&gt;&lt;br&gt;&lt;b&gt;BlastP hit with ctg39_1&lt;/b&gt;&lt;br&gt;Percentage identity: 87&lt;br&gt;Percentage coverage: 100&lt;br&gt;BLAST bit score: 969&lt;br&gt;E-value: 0.0" locus_tag="C4K04_RS00730" class="clusterblast-orf" id="dummy-1_h1_9_9"  />
</g>
<g id="a1_0010"  >
<polygon points="352,85 357,80 360,80 360,90 357,90 352,85 " style="fill:#3cd815; stroke-width:1; stroke:black; " description="&lt;b&gt;C4K04_RS00735&lt;/b&gt;&lt;br&gt;SRPBCC family protein&lt;br&gt;Location: 151830 - 152294&lt;br&gt;&lt;br&gt;&lt;b&gt;BlastP hit with ctg39_2&lt;/b&gt;&lt;br&gt;Percentage identity: 56&lt;br&gt;Percentage coverage: 100&lt;br&gt;BLAST bit score: 182&lt;br&gt;E-value: 3.96e-58" locus_tag="C4K04_RS00735" class="clusterblast-orf" id="dummy-1_h1_9_10"  />
</g>
<g id="a1_0011"  >
<polygon points="361,85 366,80 423,80 423,90 366,90 361,85 " style="fill:#1563d8; stroke-width:1; stroke:black; " description="&lt;b&gt;C4K04_RS00740&lt;/b&gt;&lt;br&gt;non-ribosomal peptide synthetase&lt;br&gt;Location: 152318 - 155749&lt;br&gt;&lt;br&gt;&lt;b&gt;BlastP hit with ctg39_3&lt;/b&gt;&lt;br&gt;Percentage identity: 57&lt;br&gt;Percentage coverage: 102&lt;br&gt;BLAST bit score: 1231&lt;br&gt;E-value: 0.0" locus_tag="C4K04_RS00740" class="clusterblast-orf" id="dummy-1_h1_9_11"  />
</g>
<g id="a1_0012"  >
<polygon points="424,85 429,80 441,80 441,90 429,90 424,85 " style="fill:#b115d8; stroke-width:1; stroke:black; " description="&lt;b&gt;C4K04_RS00745&lt;/b&gt;&lt;br&gt;aminobenzoate oxygenase&lt;br&gt;Location: 155765 - 156694&lt;br&gt;&lt;br&gt;&lt;b&gt;BlastP hit with ctg39_4&lt;/b&gt;&lt;br&gt;Percentage identity: 69&lt;br&gt;Percentage coverage: 98&lt;br&gt;BLAST bit score: 425&lt;br&gt;E-value: 9.13e-149" locus_tag="C4K04_RS00745" class="clusterblast-orf" id="dummy-1_h1_9_12"  />
</g>
<g id="a1_0013"  >
<polygon points="441,85 446,80 455,80 455,90 446,90 441,85 " style="fill:#d88a15; stroke-width:1; stroke:black; " description="&lt;b&gt;C4K04_RS00750&lt;/b&gt;&lt;br&gt;DUF3050 domain-containing protein&lt;br&gt;Location: 156691 - 157467&lt;br&gt;&lt;br&gt;&lt;b&gt;BlastP hit with ctg39_5&lt;/b&gt;&lt;br&gt;Percentage identity: 60&lt;br&gt;Percentage coverage: 98&lt;br&gt;BLAST bit score: 292&lt;br&gt;E-value: 3.86e-98" locus_tag="C4K04_RS00750" class="clusterblast-orf" id="dummy-1_h1_9_13"  />
</g>
<g id="a1_0014"  >
<polygon points="467,85 472,80 481,80 481,90 472,90 467,85 " style="fill:white; stroke-width:1; stroke:black; " description="&lt;b&gt;C4K04_RS00755&lt;/b&gt;&lt;br&gt;thioesterase&lt;br&gt;Location: 158153 - 158908" locus_tag="C4K04_RS00755" class="clusterblast-orf" id="dummy-1_h1_9_14"  />
</g>
<g id="a1_0015"  >
<polygon points="483,85 488,80 495,80 495,90 488,90 483,85 " style="fill:#15d863; stroke-width:1; stroke:black; " description="&lt;b&gt;C4K04_RS00760&lt;/b&gt;&lt;br&gt;GntR family transcriptional regulator&lt;br&gt;Location: 158981 - 159673&lt;br&gt;&lt;br&gt;&lt;b&gt;BlastP hit with ctg39_6&lt;/b&gt;&lt;br&gt;Percentage identity: 67&lt;br&gt;Percentage coverage: 91&lt;br&gt;BLAST bit score: 278&lt;br&gt;E-value: 3.42e-93" locus_tag="C4K04_RS00760" class="clusterblast-orf" id="dummy-1_h1_9_15"  />
</g>
<g id="a1_0016"  >
<polygon points="500,90 508,90 513,85 508,80 500,80 500,90 " style="fill:#3c15d8; stroke-width:1; stroke:black; " description="&lt;b&gt;C4K04_RS00765&lt;/b&gt;&lt;br&gt;hypothetical protein&lt;br&gt;Location: 159950 - 160639&lt;br&gt;&lt;br&gt;&lt;b&gt;BlastP hit with ctg39_7&lt;/b&gt;&lt;br&gt;Percentage identity: 84&lt;br&gt;Percentage coverage: 98&lt;br&gt;BLAST bit score: 355&lt;br&gt;E-value: 1.94e-124" locus_tag="C4K04_RS00765" class="clusterblast-orf" id="dummy-1_h1_9_16"  />
</g>
<g id="a1_0017"  >
<polygon points="513,90 544,90 549,85 544,80 513,80 513,90 " style="fill:#d8158a; stroke-width:1; stroke:black; " description="&lt;b&gt;C4K04_RS00770&lt;/b&gt;&lt;br&gt;EAL domain-containing protein&lt;br&gt;Location: 160654 - 162600&lt;br&gt;&lt;br&gt;&lt;b&gt;BlastP hit with ctg39_8&lt;/b&gt;&lt;br&gt;Percentage identity: 86&lt;br&gt;Percentage coverage: 100&lt;br&gt;BLAST bit score: 1065&lt;br&gt;E-value: 0.0" locus_tag="C4K04_RS00770" class="clusterblast-orf" id="dummy-1_h1_9_17"  />
</g>
<g id="a1_0018"  >
<polygon points="550,85 555,80 556,80 556,90 555,90 550,85 " style="fill:#b1d815; stroke-width:1; stroke:black; " description="&lt;b&gt;C4K04_RS00775&lt;/b&gt;&lt;br&gt;hypothetical protein&lt;br&gt;Location: 162641 - 162979&lt;br&gt;&lt;br&gt;&lt;b&gt;BlastP hit with ctg39_9&lt;/b&gt;&lt;br&gt;Percentage identity: 84&lt;br&gt;Percentage coverage: 100&lt;br&gt;BLAST bit score: 182&lt;br&gt;E-value: 3e-59" locus_tag="C4K04_RS00775" class="clusterblast-orf" id="dummy-1_h1_9_18"  />
</g>
<g id="a1_0019"  >
<polygon points="559,85 564,80 780,80 780,90 564,90 559,85 " style="fill:#15d8d8; stroke-width:1; stroke:black; " description="&lt;b&gt;C4K04_RS00780&lt;/b&gt;&lt;br&gt;retention module-containing protein&lt;br&gt;Location: 163127 - 175186&lt;br&gt;&lt;br&gt;&lt;b&gt;BlastP hit with ctg39_10&lt;/b&gt;&lt;br&gt;Percentage identity: 60&lt;br&gt;Percentage coverage: 103&lt;br&gt;BLAST bit score: 2303&lt;br&gt;E-value: 0.0" locus_tag="C4K04_RS00780" class="clusterblast-orf" id="dummy-1_h1_9_19"  />
</g>
</svg>
