<svg xmlns="http://www.w3.org/2000/svg" xmlns:xlink="http://www.w3.org/1999/xlink" version="1.1" x="0" y="0" height="230" width="800" viewBox="0 0 800 230" preserveAspectRatio="none"  >
<g label="Query sequence" class="clusterblast-cluster"  >
<text x="5" y="20" class="clusterblast-acc"  >
Query sequence</text>
<line x1="10" y1="35" x2="778.0" y2="35" style="stroke-width:1; stroke:grey; "  />
<polygon points="1,35 6,30 47,30 47,40 6,40 1,35 " style="fill:#d81515; stroke-width:1; stroke:black; " description="&lt;b&gt;ctg23_10&lt;/b&gt;&lt;br&gt;ctg23 10&lt;br&gt;Location: 13192 - 16903" locus_tag="ctg23_10" class="clusterblast-orf" id="dummy-1_q0_0_all"  />
<polygon points="49,40 73,40 78,35 73,30 49,30 49,40 " style="fill:#77d815; stroke-width:1; stroke:black; " description="&lt;b&gt;ctg23_11&lt;/b&gt;&lt;br&gt;ctg23 11&lt;br&gt;Location: 17067 - 19362" locus_tag="ctg23_11" class="clusterblast-orf" id="dummy-1_q1_0_all"  />
<polygon points="91,40 93,40 98,35 93,30 91,30 91,40 " style="fill:#15d8d8; stroke-width:1; stroke:black; " description="&lt;b&gt;ctg23_12&lt;/b&gt;&lt;br&gt;ctg23 12&lt;br&gt;Location: 20444 - 21029" locus_tag="ctg23_12" class="clusterblast-orf" id="dummy-1_q2_0_all"  />
<polygon points="101,35 106,30 110,30 110,40 106,40 101,35 " style="fill:#7715d8; stroke-width:1; stroke:black; " description="&lt;b&gt;ctg23_13&lt;/b&gt;&lt;br&gt;ctg23 13&lt;br&gt;Location: 21232 - 21979" locus_tag="ctg23_13" class="clusterblast-orf" id="dummy-1_q3_0_all"  />
<polygon points="111,35 116,30 116,30 116,40 116,40 111,35 " style="fill:#d83f15; stroke-width:1; stroke:black; " description="&lt;b&gt;ctg23_14&lt;/b&gt;&lt;br&gt;ctg23 14&lt;br&gt;Location: 22049 - 22442" locus_tag="ctg23_14" class="clusterblast-orf" id="dummy-1_q4_0_all"  />
<polygon points="116,35 121,30 125,30 125,40 121,40 116,35 " style="fill:#4dd815; stroke-width:1; stroke:black; " description="&lt;b&gt;ctg23_15&lt;/b&gt;&lt;br&gt;ctg23 15&lt;br&gt;Location: 22438 - 23143" locus_tag="ctg23_15" class="clusterblast-orf" id="dummy-1_q5_0_all"  />
<polygon points="125,35 127,30 127,40 125,35 " style="fill:#15aed8; stroke-width:1; stroke:black; " description="&lt;b&gt;ctg23_16&lt;/b&gt;&lt;br&gt;ctg23 16&lt;br&gt;Location: 23154 - 23343" locus_tag="ctg23_16" class="clusterblast-orf" id="dummy-1_q6_0_all"  />
<polygon points="144,40 153,40 158,35 153,30 144,30 144,40 " style="fill:#a115d8; stroke-width:1; stroke:black; " description="&lt;b&gt;ctg23_17&lt;/b&gt;&lt;br&gt;ctg23 17&lt;br&gt;Location: 24726 - 25788" locus_tag="ctg23_17" class="clusterblast-orf" id="dummy-1_q7_0_all"  />
<polygon points="158,40 200,40 205,35 200,30 158,30 158,40 " style="fill:#d86915; stroke-width:1; stroke:black; " description="&lt;b&gt;ctg23_18&lt;/b&gt;&lt;br&gt;ctg23 18&lt;br&gt;Location: 25791 - 29553" locus_tag="ctg23_18" class="clusterblast-orf" id="dummy-1_q8_0_all"  />
<polygon points="205,40 212,40 217,35 212,30 205,30 205,40 " style="fill:#d86915; stroke-width:1; stroke:black; " description="&lt;b&gt;ctg23_19&lt;/b&gt;&lt;br&gt;ctg23 19&lt;br&gt;Location: 29552 - 30551" locus_tag="ctg23_19" class="clusterblast-orf" id="dummy-1_q9_0_all"  />
<polygon points="219,40 220,40 225,35 220,30 219,30 219,40 " style="fill:#23d815; stroke-width:1; stroke:black; " description="&lt;b&gt;ctg23_20&lt;/b&gt;&lt;br&gt;ctg23 20&lt;br&gt;Location: 30670 - 31216" locus_tag="ctg23_20" class="clusterblast-orf" id="dummy-1_q10_0_all"  />
<polygon points="228,40 384,40 389,35 384,30 228,30 228,40 " style="fill:#1585d8; stroke-width:1; stroke:black; " description="&lt;b&gt;ctg23_21&lt;/b&gt;&lt;br&gt;ctg23 21&lt;br&gt;Location: 31425 - 44337" locus_tag="ctg23_21" class="clusterblast-orf" id="dummy-1_q11_0_all"  />
<polygon points="389,40 525,40 530,35 525,30 389,30 389,40 " style="fill:#1585d8; stroke-width:1; stroke:black; " description="&lt;b&gt;ctg23_22&lt;/b&gt;&lt;br&gt;ctg23 22&lt;br&gt;Location: 44333 - 55670" locus_tag="ctg23_22" class="clusterblast-orf" id="dummy-1_q12_0_all"  />
<polygon points="530,40 539,40 544,35 539,30 530,30 530,40 " style="fill:#ca15d8; stroke-width:1; stroke:black; " description="&lt;b&gt;ctg23_23&lt;/b&gt;&lt;br&gt;ctg23 23&lt;br&gt;Location: 55666 - 56809" locus_tag="ctg23_23" class="clusterblast-orf" id="dummy-1_q13_0_all"  />
<polygon points="544,40 564,40 569,35 564,30 544,30 544,40 " style="fill:#d89315; stroke-width:1; stroke:black; " description="&lt;b&gt;ctg23_24&lt;/b&gt;&lt;br&gt;ctg23 24&lt;br&gt;Location: 56812 - 58771" locus_tag="ctg23_24" class="clusterblast-orf" id="dummy-1_q14_0_all"  />
<polygon points="570,35 575,30 579,30 579,40 575,40 570,35 " style="fill:#15d831; stroke-width:1; stroke:black; " description="&lt;b&gt;ctg23_25&lt;/b&gt;&lt;br&gt;ctg23 25&lt;br&gt;Location: 58898 - 59576" locus_tag="ctg23_25" class="clusterblast-orf" id="dummy-1_q15_0_all"  />
<polygon points="582,35 587,30 597,30 597,40 587,40 582,35 " style="fill:#155bd8; stroke-width:1; stroke:black; " description="&lt;b&gt;ctg23_26&lt;/b&gt;&lt;br&gt;ctg23 26&lt;br&gt;Location: 59808 - 61053" locus_tag="ctg23_26" class="clusterblast-orf" id="dummy-1_q16_0_all"  />
<polygon points="599,40 600,40 605,35 600,30 599,30 599,40 " style="fill:#d815bc; stroke-width:1; stroke:black; " description="&lt;b&gt;ctg23_27&lt;/b&gt;&lt;br&gt;ctg23 27&lt;br&gt;Location: 61176 - 61647" locus_tag="ctg23_27" class="clusterblast-orf" id="dummy-1_q17_0_all"  />
<polygon points="605,35 610,30 632,30 632,40 610,40 605,35 " style="fill:#d8bc15; stroke-width:1; stroke:black; " description="&lt;b&gt;ctg23_28&lt;/b&gt;&lt;br&gt;ctg23 28&lt;br&gt;Location: 61692 - 63834" locus_tag="ctg23_28" class="clusterblast-orf" id="dummy-1_q18_0_all"  />
<polygon points="633,35 638,30 644,30 644,40 638,40 633,35 " style="fill:#15d85b; stroke-width:1; stroke:black; " description="&lt;b&gt;ctg23_29&lt;/b&gt;&lt;br&gt;ctg23 29&lt;br&gt;Location: 63939 - 64836" locus_tag="ctg23_29" class="clusterblast-orf" id="dummy-1_q19_0_all"  />
<polygon points="646,40 658,40 663,35 658,30 646,30 646,40 " style="fill:#1531d8; stroke-width:1; stroke:black; " description="&lt;b&gt;ctg23_30&lt;/b&gt;&lt;br&gt;ctg23 30&lt;br&gt;Location: 64974 - 66333" locus_tag="ctg23_30" class="clusterblast-orf" id="dummy-1_q20_0_all"  />
<polygon points="663,40 672,40 677,35 672,30 663,30 663,40 " style="fill:#d81593; stroke-width:1; stroke:black; " description="&lt;b&gt;ctg23_31&lt;/b&gt;&lt;br&gt;ctg23 31&lt;br&gt;Location: 66355 - 67444" locus_tag="ctg23_31" class="clusterblast-orf" id="dummy-1_q21_0_all"  />
<polygon points="677,40 688,40 693,35 688,30 677,30 677,40 " style="fill:#cad815; stroke-width:1; stroke:black; " description="&lt;b&gt;ctg23_32&lt;/b&gt;&lt;br&gt;ctg23 32&lt;br&gt;Location: 67440 - 68736" locus_tag="ctg23_32" class="clusterblast-orf" id="dummy-1_q22_0_all"  />
<polygon points="694,35 699,30 705,30 705,40 699,40 694,35 " style="fill:#15d885; stroke-width:1; stroke:black; " description="&lt;b&gt;ctg23_33&lt;/b&gt;&lt;br&gt;ctg23 33&lt;br&gt;Location: 68848 - 69742" locus_tag="ctg23_33" class="clusterblast-orf" id="dummy-1_q23_0_all"  />
<polygon points="707,40 714,40 719,35 714,30 707,30 707,40 " style="fill:#2315d8; stroke-width:1; stroke:black; " description="&lt;b&gt;ctg23_34&lt;/b&gt;&lt;br&gt;ctg23 34&lt;br&gt;Location: 69855 - 70860" locus_tag="ctg23_34" class="clusterblast-orf" id="dummy-1_q24_0_all"  />
<polygon points="720,40 724,40 729,35 724,30 720,30 720,40 " style="fill:#d81569; stroke-width:1; stroke:black; " description="&lt;b&gt;ctg23_35&lt;/b&gt;&lt;br&gt;ctg23 35&lt;br&gt;Location: 70875 - 71673" locus_tag="ctg23_35" class="clusterblast-orf" id="dummy-1_q25_0_all"  />
<polygon points="730,40 730,40 735,35 730,30 730,30 730,40 " style="fill:#a1d815; stroke-width:1; stroke:black; " description="&lt;b&gt;ctg23_36&lt;/b&gt;&lt;br&gt;ctg23 36&lt;br&gt;Location: 71700 - 72111" locus_tag="ctg23_36" class="clusterblast-orf" id="dummy-1_q26_0_all"  />
<polygon points="737,35 742,30 754,30 754,40 742,40 737,35 " style="fill:#15d8ae; stroke-width:1; stroke:black; " description="&lt;b&gt;ctg23_37&lt;/b&gt;&lt;br&gt;ctg23 37&lt;br&gt;Location: 72238 - 73633" locus_tag="ctg23_37" class="clusterblast-orf" id="dummy-1_q27_0_all"  />
<polygon points="754,35 759,30 762,30 762,40 759,40 754,35 " style="fill:#4d15d8; stroke-width:1; stroke:black; " description="&lt;b&gt;ctg23_38&lt;/b&gt;&lt;br&gt;ctg23 38&lt;br&gt;Location: 73610 - 74294" locus_tag="ctg23_38" class="clusterblast-orf" id="dummy-1_q28_0_all"  />
<polygon points="767,40 774,40 779,35 774,30 767,30 767,40 " style="fill:#d8153f; stroke-width:1; stroke:black; " description="&lt;b&gt;ctg23_39&lt;/b&gt;&lt;br&gt;ctg23 39&lt;br&gt;Location: 74704 - 75610" locus_tag="ctg23_39" class="clusterblast-orf" id="dummy-1_q29_0_all"  />
</g>
<g label="NZ_CP052856" description="NZ_CP052856 (457315-519910): Pseudomonas sp. ADAK22 chromosome, complete genome (87% of genes show similarity), NRPS" class="clusterblast-cluster"  >
<text x="5" y="70" class="clusterblast-acc"  >
<a xlink:href="https://antismash-db.secondarymetabolites.org/area.html?record=NZ_CP052856&amp;start=457315&amp;end=519910" target="_blank">NZ_CP052856 (457315-519910)</a>: Pseudomonas sp. ADAK22 chromosome, complete genome (87% of genes show similarity), NRPS</text>
<line x1="10" y1="85" x2="778.0" y2="85" style="stroke-width:1; stroke:grey; "  />
</g>
<g id="a1_000"  >
<polygon points="0,85 5,80 46,80 46,90 5,90 0,85 " style="fill:#d81515; stroke-width:1; stroke:black; " description="&lt;b&gt;HKK58_RS02125&lt;/b&gt;&lt;br&gt;methionine synthase&lt;br&gt;Location: 457316 - 461026&lt;br&gt;&lt;br&gt;&lt;b&gt;BlastP hit with ctg23_10&lt;/b&gt;&lt;br&gt;Percentage identity: 98&lt;br&gt;Percentage coverage: 100&lt;br&gt;BLAST bit score: 2428&lt;br&gt;E-value: 0.0" locus_tag="HKK58_RS02125" class="clusterblast-orf" id="dummy-1_h1_4_0"  />
</g>
<g id="a1_001"  >
<polygon points="48,90 72,90 77,85 72,80 48,80 48,90 " style="fill:#77d815; stroke-width:1; stroke:black; " description="&lt;b&gt;HKK58_RS02130&lt;/b&gt;&lt;br&gt;fatty acid cis/trans isomerase&lt;br&gt;Location: 461192 - 463498&lt;br&gt;&lt;br&gt;&lt;b&gt;BlastP hit with ctg23_11&lt;/b&gt;&lt;br&gt;Percentage identity: 88&lt;br&gt;Percentage coverage: 101&lt;br&gt;BLAST bit score: 1403&lt;br&gt;E-value: 0.0" locus_tag="HKK58_RS02130" class="clusterblast-orf" id="dummy-1_h1_4_1"  />
</g>
<g id="a1_002"  >
<polygon points="77,90 85,90 90,85 85,80 77,80 77,90 " style="fill:white; stroke-width:1; stroke:black; " description="&lt;b&gt;HKK58_RS02135&lt;/b&gt;&lt;br&gt;acyltransferase&lt;br&gt;Location: 463563 - 464585" locus_tag="HKK58_RS02135" class="clusterblast-orf" id="dummy-1_h1_4_2"  />
</g>
<g id="a1_003"  >
<polygon points="91,90 93,90 98,85 93,80 91,80 91,90 " style="fill:#15d8d8; stroke-width:1; stroke:black; " description="&lt;b&gt;HKK58_RS02140&lt;/b&gt;&lt;br&gt;Fe-S biogenesis protein NfuA&lt;br&gt;Location: 464645 - 465229&lt;br&gt;&lt;br&gt;&lt;b&gt;BlastP hit with ctg23_12&lt;/b&gt;&lt;br&gt;Percentage identity: 100&lt;br&gt;Percentage coverage: 100&lt;br&gt;BLAST bit score: 394&lt;br&gt;E-value: 2.68e-140" locus_tag="HKK58_RS02140" class="clusterblast-orf" id="dummy-1_h1_4_3"  />
</g>
<g id="a1_004"  >
<polygon points="101,85 106,80 110,80 110,90 106,90 101,85 " style="fill:#7715d8; stroke-width:1; stroke:black; " description="&lt;b&gt;HKK58_RS02145&lt;/b&gt;&lt;br&gt;precorrin-4 C(11)-methyltransferase&lt;br&gt;Location: 465441 - 466187&lt;br&gt;&lt;br&gt;&lt;b&gt;BlastP hit with ctg23_13&lt;/b&gt;&lt;br&gt;Percentage identity: 96&lt;br&gt;Percentage coverage: 100&lt;br&gt;BLAST bit score: 473&lt;br&gt;E-value: 6.6e-170" locus_tag="HKK58_RS02145" class="clusterblast-orf" id="dummy-1_h1_4_4"  />
</g>
<g id="a1_005"  >
<polygon points="111,85 116,80 116,80 116,90 116,90 111,85 " style="fill:#d83f15; stroke-width:1; stroke:black; " description="&lt;b&gt;HKK58_RS02150&lt;/b&gt;&lt;br&gt;cobalamin biosynthesis protein&lt;br&gt;Location: 466257 - 466649&lt;br&gt;&lt;br&gt;&lt;b&gt;BlastP hit with ctg23_14&lt;/b&gt;&lt;br&gt;Percentage identity: 89&lt;br&gt;Percentage coverage: 98&lt;br&gt;BLAST bit score: 218&lt;br&gt;E-value: 1.05e-72" locus_tag="HKK58_RS02150" class="clusterblast-orf" id="dummy-1_h1_4_5"  />
</g>
<g id="a1_006"  >
<polygon points="116,85 121,80 125,80 125,90 121,90 116,85 " style="fill:#4dd815; stroke-width:1; stroke:black; " description="&lt;b&gt;HKK58_RS02155&lt;/b&gt;&lt;br&gt;CbtA family protein&lt;br&gt;Location: 466646 - 467353&lt;br&gt;&lt;br&gt;&lt;b&gt;BlastP hit with ctg23_15&lt;/b&gt;&lt;br&gt;Percentage identity: 92&lt;br&gt;Percentage coverage: 100&lt;br&gt;BLAST bit score: 418&lt;br&gt;E-value: 1.03e-148" locus_tag="HKK58_RS02155" class="clusterblast-orf" id="dummy-1_h1_4_6"  />
</g>
<g id="a1_007"  >
<polygon points="125,85 127,80 127,90 125,85 " style="fill:#15aed8; stroke-width:1; stroke:black; " description="&lt;b&gt;HKK58_RS02160&lt;/b&gt;&lt;br&gt;CbtB-domain containing protein&lt;br&gt;Location: 467365 - 467553&lt;br&gt;&lt;br&gt;&lt;b&gt;BlastP hit with ctg23_16&lt;/b&gt;&lt;br&gt;Percentage identity: 92&lt;br&gt;Percentage coverage: 100&lt;br&gt;BLAST bit score: 110&lt;br&gt;E-value: 4.16e-32" locus_tag="HKK58_RS02160" class="clusterblast-orf" id="dummy-1_h1_4_7"  />
</g>
<g id="a1_008"  >
<polygon points="148,90 157,90 162,85 157,80 148,80 148,90 " style="fill:#a115d8; stroke-width:1; stroke:black; " description="&lt;b&gt;HKK58_RS02165&lt;/b&gt;&lt;br&gt;cobalamin biosynthesis protein CobW&lt;br&gt;Location: 469268 - 470329&lt;br&gt;&lt;br&gt;&lt;b&gt;BlastP hit with ctg23_17&lt;/b&gt;&lt;br&gt;Percentage identity: 98&lt;br&gt;Percentage coverage: 100&lt;br&gt;BLAST bit score: 651&lt;br&gt;E-value: 5.94e-237" locus_tag="HKK58_RS02165" class="clusterblast-orf" id="dummy-1_h1_4_8"  />
</g>
<g id="a1_009"  >
<polygon points="162,90 204,90 209,85 204,80 162,80 162,90 " style="fill:#d86915; stroke-width:1; stroke:black; " description="&lt;b&gt;HKK58_RS02170&lt;/b&gt;&lt;br&gt;cobaltochelatase subunit CobN&lt;br&gt;Location: 470333 - 474094&lt;br&gt;&lt;br&gt;&lt;b&gt;BlastP hit with ctg23_18&lt;/b&gt;&lt;br&gt;Percentage identity: 96&lt;br&gt;Percentage coverage: 100&lt;br&gt;BLAST bit score: 2451&lt;br&gt;E-value: 0.0" locus_tag="HKK58_RS02170" class="clusterblast-orf" id="dummy-1_h1_4_9"  />
</g>
<g id="a1_0010"  >
<polygon points="212,90 220,90 225,85 220,80 212,80 212,90 " style="fill:#d86915; stroke-width:1; stroke:black; " description="&lt;b&gt;HKK58_RS02175&lt;/b&gt;&lt;br&gt;AAA family ATPase&lt;br&gt;Location: 474385 - 475383&lt;br&gt;&lt;br&gt;&lt;b&gt;BlastP hit with ctg23_19&lt;/b&gt;&lt;br&gt;Percentage identity: 94&lt;br&gt;Percentage coverage: 100&lt;br&gt;BLAST bit score: 617&lt;br&gt;E-value: 3.01e-224" locus_tag="HKK58_RS02175" class="clusterblast-orf" id="dummy-1_h1_4_10"  />
</g>
<g id="a1_0011"  >
<polygon points="224,90 228,90 233,85 228,80 224,80 224,90 " style="fill:#23d815; stroke-width:1; stroke:black; " description="&lt;b&gt;HKK58_RS02180&lt;/b&gt;&lt;br&gt;VWA domain-containing protein&lt;br&gt;Location: 475308 - 476039&lt;br&gt;&lt;br&gt;&lt;b&gt;BlastP hit with ctg23_20&lt;/b&gt;&lt;br&gt;Percentage identity: 89&lt;br&gt;Percentage coverage: 98&lt;br&gt;BLAST bit score: 310&lt;br&gt;E-value: 7.29e-107" locus_tag="HKK58_RS02180" class="clusterblast-orf" id="dummy-1_h1_4_11"  />
</g>
<g id="a1_0012"  >
<polygon points="235,90 391,90 396,85 391,80 235,80 235,90 " style="fill:#1585d8; stroke-width:1; stroke:black; " description="&lt;b&gt;HKK58_RS02185&lt;/b&gt;&lt;br&gt;amino acid adenylation domain-containing protein&lt;br&gt;Location: 476254 - 489159&lt;br&gt;&lt;br&gt;&lt;b&gt;BlastP hit with ctg23_21&lt;/b&gt;&lt;br&gt;Percentage identity: 91&lt;br&gt;Percentage coverage: 100&lt;br&gt;BLAST bit score: 7788&lt;br&gt;E-value: 0.0&lt;br&gt;&lt;br&gt;&lt;b&gt;BlastP hit with ctg23_22&lt;/b&gt;&lt;br&gt;Percentage identity: 60&lt;br&gt;Percentage coverage: 57&lt;br&gt;BLAST bit score: 2407&lt;br&gt;E-value: 0.0" locus_tag="HKK58_RS02185" class="clusterblast-orf" id="dummy-1_h1_4_12"  />
</g>
<g id="a1_0013"  >
<polygon points="396,90 532,90 537,85 532,80 396,80 396,90 " style="fill:#1585d8; stroke-width:1; stroke:black; " description="&lt;b&gt;HKK58_RS02190&lt;/b&gt;&lt;br&gt;amino acid adenylation domain-containing protein&lt;br&gt;Location: 489156 - 500480&lt;br&gt;&lt;br&gt;&lt;b&gt;BlastP hit with ctg23_21&lt;/b&gt;&lt;br&gt;Percentage identity: 61&lt;br&gt;Percentage coverage: 50&lt;br&gt;BLAST bit score: 2430&lt;br&gt;E-value: 0.0&lt;br&gt;&lt;br&gt;&lt;b&gt;BlastP hit with ctg23_22&lt;/b&gt;&lt;br&gt;Percentage identity: 91&lt;br&gt;Percentage coverage: 100&lt;br&gt;BLAST bit score: 6792&lt;br&gt;E-value: 0.0" locus_tag="HKK58_RS02190" class="clusterblast-orf" id="dummy-1_h1_4_13"  />
</g>
<g id="a1_0014"  >
<polygon points="544,90 553,90 558,85 553,80 544,80 544,90 " style="fill:#ca15d8; stroke-width:1; stroke:black; " description="&lt;b&gt;HKK58_RS02195&lt;/b&gt;&lt;br&gt;macrolide transporter subunit MacA&lt;br&gt;Location: 501005 - 502156&lt;br&gt;&lt;br&gt;&lt;b&gt;BlastP hit with ctg23_23&lt;/b&gt;&lt;br&gt;Percentage identity: 94&lt;br&gt;Percentage coverage: 99&lt;br&gt;BLAST bit score: 663&lt;br&gt;E-value: 1.44e-240" locus_tag="HKK58_RS02195" class="clusterblast-orf" id="dummy-1_h1_4_14"  />
</g>
<g id="a1_0015"  >
<polygon points="558,90 578,90 583,85 578,80 558,80 558,90 " style="fill:#d89315; stroke-width:1; stroke:black; " description="&lt;b&gt;HKK58_RS02200&lt;/b&gt;&lt;br&gt;MacB family efflux pump subunit&lt;br&gt;Location: 502160 - 504118&lt;br&gt;&lt;br&gt;&lt;b&gt;BlastP hit with ctg23_24&lt;/b&gt;&lt;br&gt;Percentage identity: 98&lt;br&gt;Percentage coverage: 100&lt;br&gt;BLAST bit score: 1216&lt;br&gt;E-value: 0.0" locus_tag="HKK58_RS02200" class="clusterblast-orf" id="dummy-1_h1_4_15"  />
</g>
<g id="a1_0016"  >
<polygon points="583,85 588,80 592,80 592,90 588,90 583,85 " style="fill:#15d831; stroke-width:1; stroke:black; " description="&lt;b&gt;HKK58_RS02205&lt;/b&gt;&lt;br&gt;helix-turn-helix transcriptional regulator&lt;br&gt;Location: 504175 - 504852&lt;br&gt;&lt;br&gt;&lt;b&gt;BlastP hit with ctg23_25&lt;/b&gt;&lt;br&gt;Percentage identity: 92&lt;br&gt;Percentage coverage: 100&lt;br&gt;BLAST bit score: 396&lt;br&gt;E-value: 3.47e-140" locus_tag="HKK58_RS02205" class="clusterblast-orf" id="dummy-1_h1_4_16"  />
</g>
<g id="a1_0017"  >
<polygon points="595,85 600,80 610,80 610,90 600,90 595,85 " style="fill:#155bd8; stroke-width:1; stroke:black; " description="&lt;b&gt;HKK58_RS02210&lt;/b&gt;&lt;br&gt;methionine gamma-lyase&lt;br&gt;Location: 505085 - 506332&lt;br&gt;&lt;br&gt;&lt;b&gt;BlastP hit with ctg23_26&lt;/b&gt;&lt;br&gt;Percentage identity: 95&lt;br&gt;Percentage coverage: 100&lt;br&gt;BLAST bit score: 788&lt;br&gt;E-value: 5.61e-289" locus_tag="HKK58_RS02210" class="clusterblast-orf" id="dummy-1_h1_4_17"  />
</g>
<g id="a1_0018"  >
<polygon points="612,90 613,90 618,85 613,80 612,80 612,90 " style="fill:#d815bc; stroke-width:1; stroke:black; " description="&lt;b&gt;HKK58_RS02215&lt;/b&gt;&lt;br&gt;Lrp/AsnC family transcriptional regulator&lt;br&gt;Location: 506456 - 506926&lt;br&gt;&lt;br&gt;&lt;b&gt;BlastP hit with ctg23_27&lt;/b&gt;&lt;br&gt;Percentage identity: 99&lt;br&gt;Percentage coverage: 100&lt;br&gt;BLAST bit score: 304&lt;br&gt;E-value: 3.57e-106" locus_tag="HKK58_RS02215" class="clusterblast-orf" id="dummy-1_h1_4_18"  />
</g>
<g id="a1_0019"  >
<polygon points="619,90 620,90 625,85 620,80 619,80 619,90 " style="fill:white; stroke-width:1; stroke:black; " description="&lt;b&gt;HKK58_RS02220&lt;/b&gt;&lt;br&gt;carboxymuconolactone decarboxylase family protein&lt;br&gt;Location: 507048 - 507485" locus_tag="HKK58_RS02220" class="clusterblast-orf" id="dummy-1_h1_4_19"  />
</g>
<g id="a1_0020"  >
<polygon points="625,85 630,80 634,80 634,90 630,90 625,85 " style="fill:white; stroke-width:1; stroke:black; " description="&lt;b&gt;HKK58_RS02225&lt;/b&gt;&lt;br&gt;helix-turn-helix transcriptional regulator&lt;br&gt;Location: 507490 - 508260" locus_tag="HKK58_RS02225" class="clusterblast-orf" id="dummy-1_h1_4_20"  />
</g>
<g id="a1_0021"  >
<polygon points="636,90 645,90 650,85 645,80 636,80 636,90 " style="fill:white; stroke-width:1; stroke:black; " description="&lt;b&gt;HKK58_RS02230&lt;/b&gt;&lt;br&gt;MFS transporter&lt;br&gt;Location: 508358 - 509488" locus_tag="HKK58_RS02230" class="clusterblast-orf" id="dummy-1_h1_4_21"  />
</g>
<g id="a1_0022"  >
<polygon points="650,85 655,80 676,80 676,90 655,90 650,85 " style="fill:#d8bc15; stroke-width:1; stroke:black; " description="&lt;b&gt;HKK58_RS02235&lt;/b&gt;&lt;br&gt;TonB-dependent siderophore receptor&lt;br&gt;Location: 509478 - 511637&lt;br&gt;&lt;br&gt;&lt;b&gt;BlastP hit with ctg23_28&lt;/b&gt;&lt;br&gt;Percentage identity: 90&lt;br&gt;Percentage coverage: 101&lt;br&gt;BLAST bit score: 1311&lt;br&gt;E-value: 0.0" locus_tag="HKK58_RS02235" class="clusterblast-orf" id="dummy-1_h1_4_22"  />
</g>
<g id="a1_0023"  >
<polygon points="678,85 683,80 689,80 689,90 683,90 678,85 " style="fill:#15d85b; stroke-width:1; stroke:black; " description="&lt;b&gt;HKK58_RS02240&lt;/b&gt;&lt;br&gt;helix-turn-helix domain-containing protein&lt;br&gt;Location: 511735 - 512631&lt;br&gt;&lt;br&gt;&lt;b&gt;BlastP hit with ctg23_29&lt;/b&gt;&lt;br&gt;Percentage identity: 97&lt;br&gt;Percentage coverage: 99&lt;br&gt;BLAST bit score: 581&lt;br&gt;E-value: 4.59e-211" locus_tag="HKK58_RS02240" class="clusterblast-orf" id="dummy-1_h1_4_23"  />
</g>
<g id="a1_0024"  >
<polygon points="691,90 702,90 707,85 702,80 691,80 691,90 " style="fill:#1531d8; stroke-width:1; stroke:black; " description="&lt;b&gt;HKK58_RS02245&lt;/b&gt;&lt;br&gt;glutamine synthetase&lt;br&gt;Location: 512771 - 514129&lt;br&gt;&lt;br&gt;&lt;b&gt;BlastP hit with ctg23_30&lt;/b&gt;&lt;br&gt;Percentage identity: 98&lt;br&gt;Percentage coverage: 100&lt;br&gt;BLAST bit score: 909&lt;br&gt;E-value: 0.0" locus_tag="HKK58_RS02245" class="clusterblast-orf" id="dummy-1_h1_4_24"  />
</g>
<g id="a1_0025"  >
<polygon points="708,90 716,90 721,85 716,80 708,80 708,90 " style="fill:#d81593; stroke-width:1; stroke:black; " description="&lt;b&gt;HKK58_RS02250&lt;/b&gt;&lt;br&gt;polyamine ABC transporter substrate-binding protein&lt;br&gt;Location: 514153 - 515241&lt;br&gt;&lt;br&gt;&lt;b&gt;BlastP hit with ctg23_31&lt;/b&gt;&lt;br&gt;Percentage identity: 99&lt;br&gt;Percentage coverage: 100&lt;br&gt;BLAST bit score: 720&lt;br&gt;E-value: 6.24e-264" locus_tag="HKK58_RS02250" class="clusterblast-orf" id="dummy-1_h1_4_25"  />
</g>
<g id="a1_0026"  >
<polygon points="721,90 732,90 737,85 732,80 721,80 721,90 " style="fill:#cad815; stroke-width:1; stroke:black; " description="&lt;b&gt;HKK58_RS02255&lt;/b&gt;&lt;br&gt;FAD-dependent oxidoreductase&lt;br&gt;Location: 515238 - 516533&lt;br&gt;&lt;br&gt;&lt;b&gt;BlastP hit with ctg23_32&lt;/b&gt;&lt;br&gt;Percentage identity: 93&lt;br&gt;Percentage coverage: 99&lt;br&gt;BLAST bit score: 801&lt;br&gt;E-value: 9.43e-294" locus_tag="HKK58_RS02255" class="clusterblast-orf" id="dummy-1_h1_4_26"  />
</g>
<g id="a1_0027"  >
<polygon points="739,85 744,80 750,80 750,90 744,90 739,85 " style="fill:#15d885; stroke-width:1; stroke:black; " description="&lt;b&gt;HKK58_RS02260&lt;/b&gt;&lt;br&gt;LysR family transcriptional regulator&lt;br&gt;Location: 516640 - 517533&lt;br&gt;&lt;br&gt;&lt;b&gt;BlastP hit with ctg23_33&lt;/b&gt;&lt;br&gt;Percentage identity: 97&lt;br&gt;Percentage coverage: 100&lt;br&gt;BLAST bit score: 575&lt;br&gt;E-value: 8.21e-209" locus_tag="HKK58_RS02260" class="clusterblast-orf" id="dummy-1_h1_4_27"  />
</g>
<g id="a1_0028"  >
<polygon points="751,90 759,90 764,85 759,80 751,80 751,90 " style="fill:#2315d8; stroke-width:1; stroke:black; " description="&lt;b&gt;HKK58_RS02265&lt;/b&gt;&lt;br&gt;aldo/keto reductase&lt;br&gt;Location: 517647 - 518651&lt;br&gt;&lt;br&gt;&lt;b&gt;BlastP hit with ctg23_34&lt;/b&gt;&lt;br&gt;Percentage identity: 96&lt;br&gt;Percentage coverage: 100&lt;br&gt;BLAST bit score: 627&lt;br&gt;E-value: 7.72e-228" locus_tag="HKK58_RS02265" class="clusterblast-orf" id="dummy-1_h1_4_28"  />
</g>
<g id="a1_0029"  >
<polygon points="764,90 769,90 774,85 769,80 764,80 764,90 " style="fill:#d81569; stroke-width:1; stroke:black; " description="&lt;b&gt;HKK58_RS02270&lt;/b&gt;&lt;br&gt;SDR family oxidoreductase&lt;br&gt;Location: 518667 - 519464&lt;br&gt;&lt;br&gt;&lt;b&gt;BlastP hit with ctg23_35&lt;/b&gt;&lt;br&gt;Percentage identity: 95&lt;br&gt;Percentage coverage: 100&lt;br&gt;BLAST bit score: 474&lt;br&gt;E-value: 5.98e-170" locus_tag="HKK58_RS02270" class="clusterblast-orf" id="dummy-1_h1_4_29"  />
</g>
<g id="a1_0030"  >
<polygon points="774,90 775,90 780,85 775,80 774,80 774,90 " style="fill:#a1d815; stroke-width:1; stroke:black; " description="&lt;b&gt;HKK58_RS02275&lt;/b&gt;&lt;br&gt;SRPBCC family protein&lt;br&gt;Location: 519494 - 519910&lt;br&gt;&lt;br&gt;&lt;b&gt;BlastP hit with ctg23_36&lt;/b&gt;&lt;br&gt;Percentage identity: 92&lt;br&gt;Percentage coverage: 99&lt;br&gt;BLAST bit score: 247&lt;br&gt;E-value: 4.51e-84" locus_tag="HKK58_RS02275" class="clusterblast-orf" id="dummy-1_h1_4_30"  />
</g>
</svg>
