<svg xmlns="http://www.w3.org/2000/svg" xmlns:xlink="http://www.w3.org/1999/xlink" version="1.1" x="0" y="0" height="230" width="800" viewBox="0 0 800 230" preserveAspectRatio="none"  >
<g label="Query sequence" class="clusterblast-cluster"  >
<text x="5" y="20" class="clusterblast-acc"  >
Query sequence</text>
<line x1="10" y1="35" x2="778.0" y2="35" style="stroke-width:1; stroke:grey; "  />
<polygon points="0,40 24,40 29,35 24,30 0,30 0,40 " style="fill:#d81515; stroke-width:1; stroke:black; " description="&lt;b&gt;ctg6_226&lt;/b&gt;&lt;br&gt;ctg6 226&lt;br&gt;Location: 279743 - 281207" locus_tag="ctg6_226" class="clusterblast-orf" id="dummy-1_q0_0_all"  />
<polygon points="29,35 34,30 37,30 37,40 34,40 29,35 " style="fill:#77d815; stroke-width:1; stroke:black; " description="&lt;b&gt;ctg6_227&lt;/b&gt;&lt;br&gt;ctg6 227&lt;br&gt;Location: 281212 - 281614" locus_tag="ctg6_227" class="clusterblast-orf" id="dummy-1_q1_0_all"  />
<polygon points="37,35 42,30 42,30 42,40 42,40 37,35 " style="fill:#15d8d8; stroke-width:1; stroke:black; " description="&lt;b&gt;ctg6_228&lt;/b&gt;&lt;br&gt;ctg6 228&lt;br&gt;Location: 281610 - 281907" locus_tag="ctg6_228" class="clusterblast-orf" id="dummy-1_q2_0_all"  />
<polygon points="47,40 51,40 56,35 51,30 47,30 47,40 " style="fill:#7715d8; stroke-width:1; stroke:black; " description="&lt;b&gt;ctg6_229&lt;/b&gt;&lt;br&gt;ctg6 229&lt;br&gt;Location: 282142 - 282577" locus_tag="ctg6_229" class="clusterblast-orf" id="dummy-1_q3_0_all"  />
<polygon points="58,35 63,30 63,30 63,40 63,40 58,35 " style="fill:#d83615; stroke-width:1; stroke:black; " description="&lt;b&gt;ctg6_230&lt;/b&gt;&lt;br&gt;ctg6 230&lt;br&gt;Location: 282708 - 282936" locus_tag="ctg6_230" class="clusterblast-orf" id="dummy-1_q4_0_all"  />
<polygon points="72,35 77,30 87,30 87,40 77,40 72,35 " style="fill:#56d815; stroke-width:1; stroke:black; " description="&lt;b&gt;ctg6_231&lt;/b&gt;&lt;br&gt;ctg6 231&lt;br&gt;Location: 283413 - 284184" locus_tag="ctg6_231" class="clusterblast-orf" id="dummy-1_q5_0_all"  />
<polygon points="96,40 103,40 108,35 103,30 96,30 96,40 " style="fill:#15b8d8; stroke-width:1; stroke:black; " description="&lt;b&gt;ctg6_232&lt;/b&gt;&lt;br&gt;ctg6 232&lt;br&gt;Location: 284612 - 285242" locus_tag="ctg6_232" class="clusterblast-orf" id="dummy-1_q6_0_all"  />
<polygon points="108,40 119,40 124,35 119,30 108,30 108,40 " style="fill:#9715d8; stroke-width:1; stroke:black; " description="&lt;b&gt;ctg6_233&lt;/b&gt;&lt;br&gt;ctg6 233&lt;br&gt;Location: 285217 - 286030" locus_tag="ctg6_233" class="clusterblast-orf" id="dummy-1_q7_0_all"  />
<polygon points="123,40 124,40 129,35 124,30 123,30 123,40 " style="fill:#d85615; stroke-width:1; stroke:black; " description="&lt;b&gt;ctg6_234&lt;/b&gt;&lt;br&gt;ctg6 234&lt;br&gt;Location: 286007 - 286277" locus_tag="ctg6_234" class="clusterblast-orf" id="dummy-1_q8_0_all"  />
<polygon points="129,40 129,40 134,35 129,30 129,30 129,40 " style="fill:#36d815; stroke-width:1; stroke:black; " description="&lt;b&gt;ctg6_235&lt;/b&gt;&lt;br&gt;ctg6 235&lt;br&gt;Location: 286286 - 286541" locus_tag="ctg6_235" class="clusterblast-orf" id="dummy-1_q9_0_all"  />
<polygon points="134,40 140,40 145,35 140,30 134,30 134,40 " style="fill:#1597d8; stroke-width:1; stroke:black; " description="&lt;b&gt;ctg6_236&lt;/b&gt;&lt;br&gt;ctg6 236&lt;br&gt;Location: 286537 - 287083" locus_tag="ctg6_236" class="clusterblast-orf" id="dummy-1_q10_0_all"  />
<polygon points="145,40 173,40 178,35 173,30 145,30 145,40 " style="fill:#b815d8; stroke-width:1; stroke:black; " description="&lt;b&gt;ctg6_237&lt;/b&gt;&lt;br&gt;ctg6 237&lt;br&gt;Location: 287079 - 288750" locus_tag="ctg6_237" class="clusterblast-orf" id="dummy-1_q11_0_all"  />
<polygon points="177,40 187,40 192,35 187,30 177,30 177,40 " style="fill:#b815d8; stroke-width:1; stroke:black; " description="&lt;b&gt;ctg6_238&lt;/b&gt;&lt;br&gt;ctg6 238&lt;br&gt;Location: 288742 - 289477" locus_tag="ctg6_238" class="clusterblast-orf" id="dummy-1_q12_0_all"  />
<polygon points="192,40 205,40 210,35 205,30 192,30 192,40 " style="fill:#d87715; stroke-width:1; stroke:black; " description="&lt;b&gt;ctg6_239&lt;/b&gt;&lt;br&gt;ctg6 239&lt;br&gt;Location: 289473 - 290409" locus_tag="ctg6_239" class="clusterblast-orf" id="dummy-1_q13_0_all"  />
<polygon points="210,40 235,40 240,35 235,30 210,30 210,40 " style="fill:#15d815; stroke-width:1; stroke:black; " description="&lt;b&gt;ctg6_240&lt;/b&gt;&lt;br&gt;ctg6 240&lt;br&gt;Location: 290392 - 291934" locus_tag="ctg6_240" class="clusterblast-orf" id="dummy-1_q14_0_all"  />
<polygon points="240,40 244,40 249,35 244,30 240,30 240,40 " style="fill:#1577d8; stroke-width:1; stroke:black; " description="&lt;b&gt;ctg6_241&lt;/b&gt;&lt;br&gt;ctg6 241&lt;br&gt;Location: 291926 - 292352" locus_tag="ctg6_241" class="clusterblast-orf" id="dummy-1_q15_0_all"  />
<polygon points="249,40 257,40 262,35 257,30 249,30 249,40 " style="fill:#d815d8; stroke-width:1; stroke:black; " description="&lt;b&gt;ctg6_242&lt;/b&gt;&lt;br&gt;ctg6 242&lt;br&gt;Location: 292348 - 293032" locus_tag="ctg6_242" class="clusterblast-orf" id="dummy-1_q16_0_all"  />
<polygon points="262,40 303,40 308,35 303,30 262,30 262,40 " style="fill:#d89715; stroke-width:1; stroke:black; " description="&lt;b&gt;ctg6_243&lt;/b&gt;&lt;br&gt;ctg6 243&lt;br&gt;Location: 293021 - 295334" locus_tag="ctg6_243" class="clusterblast-orf" id="dummy-1_q17_0_all"  />
<polygon points="308,40 328,40 333,35 328,30 308,30 308,40 " style="fill:#15d836; stroke-width:1; stroke:black; " description="&lt;b&gt;ctg6_244&lt;/b&gt;&lt;br&gt;ctg6 244&lt;br&gt;Location: 295367 - 296615" locus_tag="ctg6_244" class="clusterblast-orf" id="dummy-1_q18_0_all"  />
<polygon points="333,40 342,40 347,35 342,30 333,30 333,40 " style="fill:#1556d8; stroke-width:1; stroke:black; " description="&lt;b&gt;ctg6_245&lt;/b&gt;&lt;br&gt;ctg6 245&lt;br&gt;Location: 296611 - 297346" locus_tag="ctg6_245" class="clusterblast-orf" id="dummy-1_q19_0_all"  />
<polygon points="347,40 352,40 357,35 352,30 347,30 347,40 " style="fill:#d815b8; stroke-width:1; stroke:black; " description="&lt;b&gt;ctg6_246&lt;/b&gt;&lt;br&gt;ctg6 246&lt;br&gt;Location: 297342 - 297825" locus_tag="ctg6_246" class="clusterblast-orf" id="dummy-1_q20_0_all"  />
<polygon points="357,40 375,40 380,35 375,30 357,30 357,40 " style="fill:#d8b815; stroke-width:1; stroke:black; " description="&lt;b&gt;ctg6_247&lt;/b&gt;&lt;br&gt;ctg6 247&lt;br&gt;Location: 297821 - 298988" locus_tag="ctg6_247" class="clusterblast-orf" id="dummy-1_q21_0_all"  />
<polygon points="380,40 384,40 389,35 384,30 380,30 380,40 " style="fill:#15d856; stroke-width:1; stroke:black; " description="&lt;b&gt;ctg6_248&lt;/b&gt;&lt;br&gt;ctg6 248&lt;br&gt;Location: 298984 - 299446" locus_tag="ctg6_248" class="clusterblast-orf" id="dummy-1_q22_0_all"  />
<polygon points="389,40 398,40 403,35 398,30 389,30 389,40 " style="fill:#1536d8; stroke-width:1; stroke:black; " description="&lt;b&gt;ctg6_249&lt;/b&gt;&lt;br&gt;ctg6 249&lt;br&gt;Location: 299442 - 300171" locus_tag="ctg6_249" class="clusterblast-orf" id="dummy-1_q23_0_all"  />
<polygon points="403,40 422,40 427,35 422,30 403,30 403,40 " style="fill:#d8b815; stroke-width:1; stroke:black; " description="&lt;b&gt;ctg6_250&lt;/b&gt;&lt;br&gt;ctg6 250&lt;br&gt;Location: 300170 - 301397" locus_tag="ctg6_250" class="clusterblast-orf" id="dummy-1_q24_0_all"  />
<polygon points="428,40 432,40 437,35 432,30 428,30 428,40 " style="fill:#d81597; stroke-width:1; stroke:black; " description="&lt;b&gt;ctg6_251&lt;/b&gt;&lt;br&gt;ctg6 251&lt;br&gt;Location: 301424 - 301874" locus_tag="ctg6_251" class="clusterblast-orf" id="dummy-1_q25_0_all"  />
<polygon points="443,35 448,30 460,30 460,40 448,40 443,35 " style="fill:#d8d815; stroke-width:1; stroke:black; " description="&lt;b&gt;ctg6_252&lt;/b&gt;&lt;br&gt;ctg6 252&lt;br&gt;Location: 302173 - 303067" locus_tag="ctg6_252" class="clusterblast-orf" id="dummy-1_q26_0_all"  />
<polygon points="463,40 483,40 488,35 483,30 463,30 463,40 " style="fill:#15d877; stroke-width:1; stroke:black; " description="&lt;b&gt;ctg6_253&lt;/b&gt;&lt;br&gt;ctg6 253&lt;br&gt;Location: 303191 - 304466" locus_tag="ctg6_253" class="clusterblast-orf" id="dummy-1_q27_0_all"  />
<polygon points="492,35 497,30 513,30 513,40 497,40 492,35 " style="fill:#1515d8; stroke-width:1; stroke:black; " description="&lt;b&gt;ctg6_254&lt;/b&gt;&lt;br&gt;ctg6 254&lt;br&gt;Location: 304692 - 305760" locus_tag="ctg6_254" class="clusterblast-orf" id="dummy-1_q28_0_all"  />
<polygon points="518,35 523,30 546,30 546,40 523,40 518,35 " style="fill:#d81577; stroke-width:1; stroke:black; " description="&lt;b&gt;ctg6_255&lt;/b&gt;&lt;br&gt;ctg6 255&lt;br&gt;Location: 306013 - 307432" locus_tag="ctg6_255" class="clusterblast-orf" id="dummy-1_q29_0_all"  />
<polygon points="549,35 554,30 637,30 637,40 554,40 549,35 " style="fill:#b8d815; stroke-width:1; stroke:black; " description="&lt;b&gt;ctg6_256&lt;/b&gt;&lt;br&gt;ctg6 256&lt;br&gt;Location: 307556 - 312002" locus_tag="ctg6_256" class="clusterblast-orf" id="dummy-1_q30_0_all"  />
<polygon points="644,35 649,30 674,30 674,40 649,40 644,35 " style="fill:#15d897; stroke-width:1; stroke:black; " description="&lt;b&gt;ctg6_257&lt;/b&gt;&lt;br&gt;ctg6 257&lt;br&gt;Location: 312354 - 313923" locus_tag="ctg6_257" class="clusterblast-orf" id="dummy-1_q31_0_all"  />
<polygon points="675,35 680,30 696,30 696,40 680,40 675,35 " style="fill:#3615d8; stroke-width:1; stroke:black; " description="&lt;b&gt;ctg6_258&lt;/b&gt;&lt;br&gt;ctg6 258&lt;br&gt;Location: 313933 - 315034" locus_tag="ctg6_258" class="clusterblast-orf" id="dummy-1_q32_0_all"  />
<polygon points="699,35 704,30 709,30 709,40 704,40 699,35 " style="fill:#d81556; stroke-width:1; stroke:black; " description="&lt;b&gt;ctg6_259&lt;/b&gt;&lt;br&gt;ctg6 259&lt;br&gt;Location: 315158 - 315650" locus_tag="ctg6_259" class="clusterblast-orf" id="dummy-1_q33_0_all"  />
<polygon points="709,35 714,30 737,30 737,40 714,40 709,35 " style="fill:#97d815; stroke-width:1; stroke:black; " description="&lt;b&gt;ctg6_260&lt;/b&gt;&lt;br&gt;ctg6 260&lt;br&gt;Location: 315681 - 317067" locus_tag="ctg6_260" class="clusterblast-orf" id="dummy-1_q34_0_all"  />
<polygon points="737,35 742,30 756,30 756,40 742,40 737,35 " style="fill:#15d8b8; stroke-width:1; stroke:black; " description="&lt;b&gt;ctg6_261&lt;/b&gt;&lt;br&gt;ctg6 261&lt;br&gt;Location: 317079 - 318051" locus_tag="ctg6_261" class="clusterblast-orf" id="dummy-1_q35_0_all"  />
<polygon points="756,35 761,30 767,30 767,40 761,40 756,35 " style="fill:#5615d8; stroke-width:1; stroke:black; " description="&lt;b&gt;ctg6_262&lt;/b&gt;&lt;br&gt;ctg6 262&lt;br&gt;Location: 318047 - 318599" locus_tag="ctg6_262" class="clusterblast-orf" id="dummy-1_q36_0_all"  />
<polygon points="767,35 772,30 780,30 780,40 772,40 767,35 " style="fill:#d81536; stroke-width:1; stroke:black; " description="&lt;b&gt;ctg6_263&lt;/b&gt;&lt;br&gt;ctg6 263&lt;br&gt;Location: 318595 - 319252" locus_tag="ctg6_263" class="clusterblast-orf" id="dummy-1_q37_0_all"  />
</g>
<g label="NZ_CP027755" description="NZ_CP027755 (501717-545293): Pseudomonas synxantha strain 2-79 chromosome, co... (97% of genes show similarity), arylpolyene" class="clusterblast-cluster"  >
<text x="5" y="70" class="clusterblast-acc"  >
<a xlink:href="https://antismash-db.secondarymetabolites.org/area.html?record=NZ_CP027755&amp;start=501717&amp;end=545293" target="_blank">NZ_CP027755 (501717-545293)</a>: Pseudomonas synxantha strain 2-79 chromosome, co... (97% of genes show similarity), arylpolyene</text>
<line x1="10" y1="85" x2="778.0" y2="85" style="stroke-width:1; stroke:grey; "  />
</g>
<g id="a1_000"  >
<polygon points="1,90 25,90 30,85 25,80 1,80 1,90 " style="fill:#d81515; stroke-width:1; stroke:black; " description="&lt;b&gt;C4K02_RS02450&lt;/b&gt;&lt;br&gt;YdiU family protein&lt;br&gt;Location: 543375 - 541912&lt;br&gt;&lt;br&gt;&lt;b&gt;BlastP hit with ctg6_226&lt;/b&gt;&lt;br&gt;Percentage identity: 95&lt;br&gt;Percentage coverage: 100&lt;br&gt;BLAST bit score: 942&lt;br&gt;E-value: 0.0" locus_tag="C4K02_RS02450" class="clusterblast-orf" id="dummy-1_h1_2_0"  />
</g>
<g id="a1_001"  >
<polygon points="30,85 35,80 38,80 38,90 35,90 30,85 " style="fill:#77d815; stroke-width:1; stroke:black; " description="&lt;b&gt;C4K02_RS02445&lt;/b&gt;&lt;br&gt;transcriptional regulator&lt;br&gt;Location: 541907 - 541506&lt;br&gt;&lt;br&gt;&lt;b&gt;BlastP hit with ctg6_227&lt;/b&gt;&lt;br&gt;Percentage identity: 84&lt;br&gt;Percentage coverage: 100&lt;br&gt;BLAST bit score: 231&lt;br&gt;E-value: 6.03e-78" locus_tag="C4K02_RS02445" class="clusterblast-orf" id="dummy-1_h1_2_1"  />
</g>
<g id="a1_002"  >
<polygon points="38,85 43,80 44,80 44,90 43,90 38,85 " style="fill:#15d8d8; stroke-width:1; stroke:black; " description="&lt;b&gt;C4K02_RS02440&lt;/b&gt;&lt;br&gt;type II toxin-antitoxin system HigB family toxin&lt;br&gt;Location: 541509 - 541213&lt;br&gt;&lt;br&gt;&lt;b&gt;BlastP hit with ctg6_228&lt;/b&gt;&lt;br&gt;Percentage identity: 78&lt;br&gt;Percentage coverage: 100&lt;br&gt;BLAST bit score: 164&lt;br&gt;E-value: 1.13e-52" locus_tag="C4K02_RS02440" class="clusterblast-orf" id="dummy-1_h1_2_2"  />
</g>
<g id="a1_003"  >
<polygon points="48,90 52,90 57,85 52,80 48,80 48,90 " style="fill:#7715d8; stroke-width:1; stroke:black; " description="&lt;b&gt;C4K02_RS02435&lt;/b&gt;&lt;br&gt;thioredoxin TrxC&lt;br&gt;Location: 540990 - 540556&lt;br&gt;&lt;br&gt;&lt;b&gt;BlastP hit with ctg6_229&lt;/b&gt;&lt;br&gt;Percentage identity: 97&lt;br&gt;Percentage coverage: 100&lt;br&gt;BLAST bit score: 294&lt;br&gt;E-value: 1.34e-102" locus_tag="C4K02_RS02435" class="clusterblast-orf" id="dummy-1_h1_2_3"  />
</g>
<g id="a1_004"  >
<polygon points="59,85 64,80 64,80 64,90 64,90 59,85 " style="fill:#d83615; stroke-width:1; stroke:black; " description="&lt;b&gt;C4K02_RS02430&lt;/b&gt;&lt;br&gt;hypothetical protein&lt;br&gt;Location: 540424 - 540200&lt;br&gt;&lt;br&gt;&lt;b&gt;BlastP hit with ctg6_230&lt;/b&gt;&lt;br&gt;Percentage identity: 84&lt;br&gt;Percentage coverage: 91&lt;br&gt;BLAST bit score: 115&lt;br&gt;E-value: 7.23e-34" locus_tag="C4K02_RS02430" class="clusterblast-orf" id="dummy-1_h1_2_4"  />
</g>
<g id="a1_005"  >
<polygon points="73,85 78,80 88,80 88,90 78,90 73,85 " style="fill:#56d815; stroke-width:1; stroke:black; " description="&lt;b&gt;C4K02_RS02425&lt;/b&gt;&lt;br&gt;ParA family protein&lt;br&gt;Location: 539718 - 538948&lt;br&gt;&lt;br&gt;&lt;b&gt;BlastP hit with ctg6_231&lt;/b&gt;&lt;br&gt;Percentage identity: 98&lt;br&gt;Percentage coverage: 100&lt;br&gt;BLAST bit score: 494&lt;br&gt;E-value: 3.55e-178" locus_tag="C4K02_RS02425" class="clusterblast-orf" id="dummy-1_h1_2_5"  />
</g>
<g id="a1_006"  >
<polygon points="95,90 104,90 109,85 104,80 95,80 95,90 " style="fill:#15b8d8; stroke-width:1; stroke:black; " description="&lt;b&gt;C4K02_RS02420&lt;/b&gt;&lt;br&gt;beta-ketoacyl synthase chain length factor&lt;br&gt;Location: 538610 - 537888&lt;br&gt;&lt;br&gt;&lt;b&gt;BlastP hit with ctg6_232&lt;/b&gt;&lt;br&gt;Percentage identity: 91&lt;br&gt;Percentage coverage: 100&lt;br&gt;BLAST bit score: 386&lt;br&gt;E-value: 2.01e-136" locus_tag="C4K02_RS02420" class="clusterblast-orf" id="dummy-1_h1_2_6"  />
</g>
<g id="a1_007"  >
<polygon points="109,90 120,90 125,85 120,80 109,80 109,90 " style="fill:#9715d8; stroke-width:1; stroke:black; " description="&lt;b&gt;C4K02_RS02415&lt;/b&gt;&lt;br&gt;1-acyl-sn-glycerol-3-phosphate acyltransferase&lt;br&gt;Location: 537912 - 537100&lt;br&gt;&lt;br&gt;&lt;b&gt;BlastP hit with ctg6_233&lt;/b&gt;&lt;br&gt;Percentage identity: 89&lt;br&gt;Percentage coverage: 100&lt;br&gt;BLAST bit score: 492&lt;br&gt;E-value: 8.57e-177" locus_tag="C4K02_RS02415" class="clusterblast-orf" id="dummy-1_h1_2_7"  />
</g>
<g id="a1_008"  >
<polygon points="124,90 125,90 130,85 125,80 124,80 124,90 " style="fill:#d85615; stroke-width:1; stroke:black; " description="&lt;b&gt;C4K02_RS02410&lt;/b&gt;&lt;br&gt;acyl carrier protein&lt;br&gt;Location: 537122 - 536853&lt;br&gt;&lt;br&gt;&lt;b&gt;BlastP hit with ctg6_234&lt;/b&gt;&lt;br&gt;Percentage identity: 93&lt;br&gt;Percentage coverage: 100&lt;br&gt;BLAST bit score: 159&lt;br&gt;E-value: 8.1e-51" locus_tag="C4K02_RS02410" class="clusterblast-orf" id="dummy-1_h1_2_8"  />
</g>
<g id="a1_009"  >
<polygon points="130,90 130,90 135,85 130,80 130,80 130,90 " style="fill:#36d815; stroke-width:1; stroke:black; " description="&lt;b&gt;C4K02_RS02405&lt;/b&gt;&lt;br&gt;acyl carrier protein&lt;br&gt;Location: 536843 - 536589&lt;br&gt;&lt;br&gt;&lt;b&gt;BlastP hit with ctg6_235&lt;/b&gt;&lt;br&gt;Percentage identity: 94&lt;br&gt;Percentage coverage: 100&lt;br&gt;BLAST bit score: 154&lt;br&gt;E-value: 7.75e-49" locus_tag="C4K02_RS02405" class="clusterblast-orf" id="dummy-1_h1_2_9"  />
</g>
<g id="a1_0010"  >
<polygon points="135,90 141,90 146,85 141,80 135,80 135,90 " style="fill:#1597d8; stroke-width:1; stroke:black; " description="&lt;b&gt;C4K02_RS02400&lt;/b&gt;&lt;br&gt;membrane protein&lt;br&gt;Location: 536592 - 536047&lt;br&gt;&lt;br&gt;&lt;b&gt;BlastP hit with ctg6_236&lt;/b&gt;&lt;br&gt;Percentage identity: 92&lt;br&gt;Percentage coverage: 100&lt;br&gt;BLAST bit score: 337&lt;br&gt;E-value: 2.59e-118" locus_tag="C4K02_RS02400" class="clusterblast-orf" id="dummy-1_h1_2_10"  />
</g>
<g id="a1_0011"  >
<polygon points="146,90 174,90 179,85 174,80 146,80 146,90 " style="fill:#b815d8; stroke-width:1; stroke:black; " description="&lt;b&gt;C4K02_RS02395&lt;/b&gt;&lt;br&gt;AMP-binding protein&lt;br&gt;Location: 536050 - 534380&lt;br&gt;&lt;br&gt;&lt;b&gt;BlastP hit with ctg6_237&lt;/b&gt;&lt;br&gt;Percentage identity: 90&lt;br&gt;Percentage coverage: 100&lt;br&gt;BLAST bit score: 1008&lt;br&gt;E-value: 0.0" locus_tag="C4K02_RS02395" class="clusterblast-orf" id="dummy-1_h1_2_11"  />
</g>
<g id="a1_0012"  >
<polygon points="178,90 188,90 193,85 188,80 178,80 178,90 " style="fill:#b815d8; stroke-width:1; stroke:black; " description="&lt;b&gt;C4K02_RS02390&lt;/b&gt;&lt;br&gt;glycosyltransferase family 2 protein&lt;br&gt;Location: 534387 - 533653&lt;br&gt;&lt;br&gt;&lt;b&gt;BlastP hit with ctg6_238&lt;/b&gt;&lt;br&gt;Percentage identity: 93&lt;br&gt;Percentage coverage: 100&lt;br&gt;BLAST bit score: 481&lt;br&gt;E-value: 2.15e-173" locus_tag="C4K02_RS02390" class="clusterblast-orf" id="dummy-1_h1_2_12"  />
</g>
<g id="a1_0013"  >
<polygon points="193,90 206,90 211,85 206,80 193,80 193,90 " style="fill:#d87715; stroke-width:1; stroke:black; " description="&lt;b&gt;C4K02_RS02385&lt;/b&gt;&lt;br&gt;glycosyl transferase&lt;br&gt;Location: 533656 - 532721&lt;br&gt;&lt;br&gt;&lt;b&gt;BlastP hit with ctg6_239&lt;/b&gt;&lt;br&gt;Percentage identity: 91&lt;br&gt;Percentage coverage: 100&lt;br&gt;BLAST bit score: 593&lt;br&gt;E-value: 1.66e-215" locus_tag="C4K02_RS02385" class="clusterblast-orf" id="dummy-1_h1_2_13"  />
</g>
<g id="a1_0014"  >
<polygon points="211,90 236,90 241,85 236,80 211,80 211,90 " style="fill:#15d815; stroke-width:1; stroke:black; " description="&lt;b&gt;C4K02_RS02380&lt;/b&gt;&lt;br&gt;aromatic amino acid lyase&lt;br&gt;Location: 532737 - 531196&lt;br&gt;&lt;br&gt;&lt;b&gt;BlastP hit with ctg6_240&lt;/b&gt;&lt;br&gt;Percentage identity: 97&lt;br&gt;Percentage coverage: 100&lt;br&gt;BLAST bit score: 977&lt;br&gt;E-value: 0.0" locus_tag="C4K02_RS02380" class="clusterblast-orf" id="dummy-1_h1_2_14"  />
</g>
<g id="a1_0015"  >
<polygon points="241,90 245,90 250,85 245,80 241,80 241,90 " style="fill:#1577d8; stroke-width:1; stroke:black; " description="&lt;b&gt;C4K02_RS02375&lt;/b&gt;&lt;br&gt;acyl-CoA thioesterase&lt;br&gt;Location: 531203 - 530778&lt;br&gt;&lt;br&gt;&lt;b&gt;BlastP hit with ctg6_241&lt;/b&gt;&lt;br&gt;Percentage identity: 96&lt;br&gt;Percentage coverage: 100&lt;br&gt;BLAST bit score: 276&lt;br&gt;E-value: 1.11e-95" locus_tag="C4K02_RS02375" class="clusterblast-orf" id="dummy-1_h1_2_15"  />
</g>
<g id="a1_0016"  >
<polygon points="250,90 258,90 263,85 258,80 250,80 250,90 " style="fill:#d815d8; stroke-width:1; stroke:black; " description="&lt;b&gt;C4K02_RS02370&lt;/b&gt;&lt;br&gt;outer membrane lipoprotein carrier protein LolA&lt;br&gt;Location: 530781 - 530098&lt;br&gt;&lt;br&gt;&lt;b&gt;BlastP hit with ctg6_242&lt;/b&gt;&lt;br&gt;Percentage identity: 87&lt;br&gt;Percentage coverage: 100&lt;br&gt;BLAST bit score: 377&lt;br&gt;E-value: 8.32e-133" locus_tag="C4K02_RS02370" class="clusterblast-orf" id="dummy-1_h1_2_16"  />
</g>
<g id="a1_0017"  >
<polygon points="263,90 304,90 309,85 304,80 263,80 263,90 " style="fill:#d89715; stroke-width:1; stroke:black; " description="&lt;b&gt;C4K02_RS02365&lt;/b&gt;&lt;br&gt;MMPL family transporter&lt;br&gt;Location: 530108 - 527796&lt;br&gt;&lt;br&gt;&lt;b&gt;BlastP hit with ctg6_243&lt;/b&gt;&lt;br&gt;Percentage identity: 94&lt;br&gt;Percentage coverage: 100&lt;br&gt;BLAST bit score: 1375&lt;br&gt;E-value: 0.0" locus_tag="C4K02_RS02365" class="clusterblast-orf" id="dummy-1_h1_2_17"  />
</g>
<g id="a1_0018"  >
<polygon points="309,90 329,90 334,85 329,80 309,80 309,90 " style="fill:#15d836; stroke-width:1; stroke:black; " description="&lt;b&gt;C4K02_RS02360&lt;/b&gt;&lt;br&gt;tryptophan 7-halogenase&lt;br&gt;Location: 527762 - 526515&lt;br&gt;&lt;br&gt;&lt;b&gt;BlastP hit with ctg6_244&lt;/b&gt;&lt;br&gt;Percentage identity: 94&lt;br&gt;Percentage coverage: 100&lt;br&gt;BLAST bit score: 804&lt;br&gt;E-value: 3.3e-295" locus_tag="C4K02_RS02360" class="clusterblast-orf" id="dummy-1_h1_2_18"  />
</g>
<g id="a1_0019"  >
<polygon points="334,90 344,90 349,85 344,80 334,80 334,90 " style="fill:#1556d8; stroke-width:1; stroke:black; " description="&lt;b&gt;C4K02_RS02355&lt;/b&gt;&lt;br&gt;class I SAM-dependent methyltransferase&lt;br&gt;Location: 526518 - 525769&lt;br&gt;&lt;br&gt;&lt;b&gt;BlastP hit with ctg6_245&lt;/b&gt;&lt;br&gt;Percentage identity: 89&lt;br&gt;Percentage coverage: 99&lt;br&gt;BLAST bit score: 457&lt;br&gt;E-value: 1.04e-163" locus_tag="C4K02_RS02355" class="clusterblast-orf" id="dummy-1_h1_2_19"  />
</g>
<g id="a1_0020"  >
<polygon points="349,90 353,90 358,85 353,80 349,80 349,90 " style="fill:#d815b8; stroke-width:1; stroke:black; " description="&lt;b&gt;C4K02_RS02350&lt;/b&gt;&lt;br&gt;hypothetical protein&lt;br&gt;Location: 525772 - 525290&lt;br&gt;&lt;br&gt;&lt;b&gt;BlastP hit with ctg6_246&lt;/b&gt;&lt;br&gt;Percentage identity: 83&lt;br&gt;Percentage coverage: 100&lt;br&gt;BLAST bit score: 269&lt;br&gt;E-value: 3.61e-92" locus_tag="C4K02_RS02350" class="clusterblast-orf" id="dummy-1_h1_2_20"  />
</g>
<g id="a1_0021"  >
<polygon points="358,90 376,90 381,85 376,80 358,80 358,90 " style="fill:#d8b815; stroke-width:1; stroke:black; " description="&lt;b&gt;C4K02_RS02345&lt;/b&gt;&lt;br&gt;beta-ketoacyl-[acyl-carrier-protein] synthase family protein&lt;br&gt;Location: 525293 - 524127&lt;br&gt;&lt;br&gt;&lt;b&gt;BlastP hit with ctg6_247&lt;/b&gt;&lt;br&gt;Percentage identity: 90&lt;br&gt;Percentage coverage: 100&lt;br&gt;BLAST bit score: 706&lt;br&gt;E-value: 1.45e-257" locus_tag="C4K02_RS02345" class="clusterblast-orf" id="dummy-1_h1_2_21"  />
</g>
<g id="a1_0022"  >
<polygon points="381,90 385,90 390,85 385,80 381,80 381,90 " style="fill:#15d856; stroke-width:1; stroke:black; " description="&lt;b&gt;C4K02_RS02340&lt;/b&gt;&lt;br&gt;hotdog family protein&lt;br&gt;Location: 524130 - 523669&lt;br&gt;&lt;br&gt;&lt;b&gt;BlastP hit with ctg6_248&lt;/b&gt;&lt;br&gt;Percentage identity: 94&lt;br&gt;Percentage coverage: 100&lt;br&gt;BLAST bit score: 300&lt;br&gt;E-value: 9.55e-105" locus_tag="C4K02_RS02340" class="clusterblast-orf" id="dummy-1_h1_2_22"  />
</g>
<g id="a1_0023"  >
<polygon points="390,90 399,90 404,85 399,80 390,80 390,90 " style="fill:#1536d8; stroke-width:1; stroke:black; " description="&lt;b&gt;C4K02_RS02335&lt;/b&gt;&lt;br&gt;3-oxoacyl-ACP reductase FabG&lt;br&gt;Location: 523672 - 522944&lt;br&gt;&lt;br&gt;&lt;b&gt;BlastP hit with ctg6_249&lt;/b&gt;&lt;br&gt;Percentage identity: 98&lt;br&gt;Percentage coverage: 100&lt;br&gt;BLAST bit score: 464&lt;br&gt;E-value: 1.9e-166" locus_tag="C4K02_RS02335" class="clusterblast-orf" id="dummy-1_h1_2_23"  />
</g>
<g id="a1_0024"  >
<polygon points="404,90 424,90 429,85 424,80 404,80 404,90 " style="fill:#d8b815; stroke-width:1; stroke:black; " description="&lt;b&gt;C4K02_RS02330&lt;/b&gt;&lt;br&gt;beta-ketoacyl-ACP synthase&lt;br&gt;Location: 522944 - 521718&lt;br&gt;&lt;br&gt;&lt;b&gt;BlastP hit with ctg6_250&lt;/b&gt;&lt;br&gt;Percentage identity: 98&lt;br&gt;Percentage coverage: 100&lt;br&gt;BLAST bit score: 811&lt;br&gt;E-value: 3.44e-298" locus_tag="C4K02_RS02330" class="clusterblast-orf" id="dummy-1_h1_2_24"  />
</g>
<g id="a1_0025"  >
<polygon points="429,90 432,90 437,85 432,80 429,80 429,90 " style="fill:#d81597; stroke-width:1; stroke:black; " description="&lt;b&gt;C4K02_RS02325&lt;/b&gt;&lt;br&gt;hypothetical protein&lt;br&gt;Location: 521691 - 521272&lt;br&gt;&lt;br&gt;&lt;b&gt;BlastP hit with ctg6_251&lt;/b&gt;&lt;br&gt;Percentage identity: 83&lt;br&gt;Percentage coverage: 93&lt;br&gt;BLAST bit score: 224&lt;br&gt;E-value: 5.47e-75" locus_tag="C4K02_RS02325" class="clusterblast-orf" id="dummy-1_h1_2_25"  />
</g>
<g id="a1_0026"  >
<polygon points="439,85 444,80 457,80 457,90 444,90 439,85 " style="fill:#d8d815; stroke-width:1; stroke:black; " description="&lt;b&gt;C4K02_RS02315&lt;/b&gt;&lt;br&gt;LysR family transcriptional regulator&lt;br&gt;Location: 521170 - 520277&lt;br&gt;&lt;br&gt;&lt;b&gt;BlastP hit with ctg6_252&lt;/b&gt;&lt;br&gt;Percentage identity: 95&lt;br&gt;Percentage coverage: 100&lt;br&gt;BLAST bit score: 535&lt;br&gt;E-value: 5.83e-193" locus_tag="C4K02_RS02315" class="clusterblast-orf" id="dummy-1_h1_2_26"  />
</g>
<g id="a1_0027"  >
<polygon points="459,90 479,90 484,85 479,80 459,80 459,90 " style="fill:#15d877; stroke-width:1; stroke:black; " description="&lt;b&gt;C4K02_RS02310&lt;/b&gt;&lt;br&gt;MFS transporter&lt;br&gt;Location: 520154 - 518886&lt;br&gt;&lt;br&gt;&lt;b&gt;BlastP hit with ctg6_253&lt;/b&gt;&lt;br&gt;Percentage identity: 95&lt;br&gt;Percentage coverage: 99&lt;br&gt;BLAST bit score: 760&lt;br&gt;E-value: 1.45e-277" locus_tag="C4K02_RS02310" class="clusterblast-orf" id="dummy-1_h1_2_27"  />
</g>
<g id="a1_0028"  >
<polygon points="487,85 492,80 508,80 508,90 492,90 487,85 " style="fill:#1515d8; stroke-width:1; stroke:black; " description="&lt;b&gt;C4K02_RS02305&lt;/b&gt;&lt;br&gt;uroporphyrinogen decarboxylase&lt;br&gt;Location: 518763 - 517696&lt;br&gt;&lt;br&gt;&lt;b&gt;BlastP hit with ctg6_254&lt;/b&gt;&lt;br&gt;Percentage identity: 98&lt;br&gt;Percentage coverage: 100&lt;br&gt;BLAST bit score: 705&lt;br&gt;E-value: 4.52e-258" locus_tag="C4K02_RS02305" class="clusterblast-orf" id="dummy-1_h1_2_28"  />
</g>
<g id="a1_0029"  >
<polygon points="513,85 518,80 541,80 541,90 518,90 513,85 " style="fill:#d81577; stroke-width:1; stroke:black; " description="&lt;b&gt;C4K02_RS02300&lt;/b&gt;&lt;br&gt;FAD-dependent oxidoreductase&lt;br&gt;Location: 517452 - 516034&lt;br&gt;&lt;br&gt;&lt;b&gt;BlastP hit with ctg6_255&lt;/b&gt;&lt;br&gt;Percentage identity: 99&lt;br&gt;Percentage coverage: 100&lt;br&gt;BLAST bit score: 957&lt;br&gt;E-value: 0.0" locus_tag="C4K02_RS02300" class="clusterblast-orf" id="dummy-1_h1_2_29"  />
</g>
<g id="a1_0030"  >
<polygon points="541,85 546,80 629,80 629,90 546,90 541,85 " style="fill:#b8d815; stroke-width:1; stroke:black; " description="&lt;b&gt;C4K02_RS02295&lt;/b&gt;&lt;br&gt;glutamate synthase large subunit&lt;br&gt;Location: 516001 - 511556&lt;br&gt;&lt;br&gt;&lt;b&gt;BlastP hit with ctg6_256&lt;/b&gt;&lt;br&gt;Percentage identity: 98&lt;br&gt;Percentage coverage: 100&lt;br&gt;BLAST bit score: 2860&lt;br&gt;E-value: 0.0" locus_tag="C4K02_RS02295" class="clusterblast-orf" id="dummy-1_h1_2_30"  />
</g>
<g id="a1_0031"  >
<polygon points="637,85 642,80 668,80 668,90 642,90 637,85 " style="fill:#15d897; stroke-width:1; stroke:black; " description="&lt;b&gt;C4K02_RS02285&lt;/b&gt;&lt;br&gt;ExeA family protein&lt;br&gt;Location: 511152 - 509581&lt;br&gt;&lt;br&gt;&lt;b&gt;BlastP hit with ctg6_257&lt;/b&gt;&lt;br&gt;Percentage identity: 91&lt;br&gt;Percentage coverage: 101&lt;br&gt;BLAST bit score: 832&lt;br&gt;E-value: 1.03e-302" locus_tag="C4K02_RS02285" class="clusterblast-orf" id="dummy-1_h1_2_31"  />
</g>
<g id="a1_0032"  >
<polygon points="668,85 673,80 690,80 690,90 673,90 668,85 " style="fill:#3615d8; stroke-width:1; stroke:black; " description="&lt;b&gt;C4K02_RS02280&lt;/b&gt;&lt;br&gt;3-dehydroquinate synthase&lt;br&gt;Location: 509570 - 508470&lt;br&gt;&lt;br&gt;&lt;b&gt;BlastP hit with ctg6_258&lt;/b&gt;&lt;br&gt;Percentage identity: 98&lt;br&gt;Percentage coverage: 100&lt;br&gt;BLAST bit score: 709&lt;br&gt;E-value: 2.25e-259" locus_tag="C4K02_RS02280" class="clusterblast-orf" id="dummy-1_h1_2_32"  />
</g>
<g id="a1_0033"  >
<polygon points="693,85 698,80 703,80 703,90 698,90 693,85 " style="fill:#d81556; stroke-width:1; stroke:black; " description="&lt;b&gt;C4K02_RS02275&lt;/b&gt;&lt;br&gt;shikimate kinase AroK&lt;br&gt;Location: 508344 - 507826&lt;br&gt;&lt;br&gt;&lt;b&gt;BlastP hit with ctg6_259&lt;/b&gt;&lt;br&gt;Percentage identity: 99&lt;br&gt;Percentage coverage: 100&lt;br&gt;BLAST bit score: 316&lt;br&gt;E-value: 1.55e-110" locus_tag="C4K02_RS02275" class="clusterblast-orf" id="dummy-1_h1_2_33"  />
</g>
<g id="a1_0034"  >
<polygon points="703,85 708,80 729,80 729,90 708,90 703,85 " style="fill:#97d815; stroke-width:1; stroke:black; " description="&lt;b&gt;C4K02_RS02270&lt;/b&gt;&lt;br&gt;type IV pilus secretin PilQ family protein&lt;br&gt;Location: 507821 - 506496&lt;br&gt;&lt;br&gt;&lt;b&gt;BlastP hit with ctg6_260&lt;/b&gt;&lt;br&gt;Percentage identity: 90&lt;br&gt;Percentage coverage: 96&lt;br&gt;BLAST bit score: 761&lt;br&gt;E-value: 3.16e-277" locus_tag="C4K02_RS02270" class="clusterblast-orf" id="dummy-1_h1_2_34"  />
</g>
<g id="a1_0035"  >
<polygon points="730,85 735,80 750,80 750,90 735,90 730,85 " style="fill:#15d8b8; stroke-width:1; stroke:black; " description="&lt;b&gt;C4K02_RS02265&lt;/b&gt;&lt;br&gt;pilus assembly protein PilP&lt;br&gt;Location: 506426 - 505455&lt;br&gt;&lt;br&gt;&lt;b&gt;BlastP hit with ctg6_261&lt;/b&gt;&lt;br&gt;Percentage identity: 63&lt;br&gt;Percentage coverage: 100&lt;br&gt;BLAST bit score: 391&lt;br&gt;E-value: 3.4e-135" locus_tag="C4K02_RS02265" class="clusterblast-orf" id="dummy-1_h1_2_35"  />
</g>
<g id="a1_0036"  >
<polygon points="750,85 755,80 760,80 760,90 755,90 750,85 " style="fill:#5615d8; stroke-width:1; stroke:black; " description="&lt;b&gt;C4K02_RS02260&lt;/b&gt;&lt;br&gt;PilN domain-containing protein&lt;br&gt;Location: 505458 - 504907&lt;br&gt;&lt;br&gt;&lt;b&gt;BlastP hit with ctg6_262&lt;/b&gt;&lt;br&gt;Percentage identity: 78&lt;br&gt;Percentage coverage: 100&lt;br&gt;BLAST bit score: 271&lt;br&gt;E-value: 2.42e-92" locus_tag="C4K02_RS02260" class="clusterblast-orf" id="dummy-1_h1_2_36"  />
</g>
<g id="a1_0037"  >
<polygon points="760,85 765,80 773,80 773,90 765,90 760,85 " style="fill:#d81536; stroke-width:1; stroke:black; " description="&lt;b&gt;C4K02_RS02255&lt;/b&gt;&lt;br&gt;type IV pilus assembly protein PilM&lt;br&gt;Location: 504910 - 504254&lt;br&gt;&lt;br&gt;&lt;b&gt;BlastP hit with ctg6_263&lt;/b&gt;&lt;br&gt;Percentage identity: 78&lt;br&gt;Percentage coverage: 100&lt;br&gt;BLAST bit score: 331&lt;br&gt;E-value: 1.14e-114" locus_tag="C4K02_RS02255" class="clusterblast-orf" id="dummy-1_h1_2_37"  />
</g>
<g id="a1_0038"  >
<polygon points="775,90 778,85 775,80 775,90 " style="fill:white; stroke-width:1; stroke:black; " description="&lt;b&gt;C4K02_RS29510&lt;/b&gt;&lt;br&gt;hypothetical protein&lt;br&gt;Location: 504158 - 504021" locus_tag="C4K02_RS29510" class="clusterblast-orf" id="dummy-1_h1_2_38"  />
</g>
</svg>
