<svg xmlns="http://www.w3.org/2000/svg" xmlns:xlink="http://www.w3.org/1999/xlink" version="1.1" x="0" y="0" height="230" width="800" viewBox="0 0 800 230" preserveAspectRatio="none"  >
<g label="Query sequence" class="clusterblast-cluster"  >
<text x="5" y="20" class="clusterblast-acc"  >
Query sequence</text>
<line x1="10" y1="35" x2="778.0" y2="35" style="stroke-width:1; stroke:grey; "  />
<polygon points="4,40 55,40 60,35 55,30 4,30 4,40 " style="fill:#d81515; stroke-width:1; stroke:black; " description="&lt;b&gt;ctg1_247&lt;/b&gt;&lt;br&gt;ctg1 247&lt;br&gt;Location: 274669 - 275503" locus_tag="ctg1_247" class="clusterblast-orf" id="dummy-1_q0_0_all"  />
<polygon points="61,40 93,40 98,35 93,30 61,30 61,40 " style="fill:#3cd815; stroke-width:1; stroke:black; " description="&lt;b&gt;ctg1_248&lt;/b&gt;&lt;br&gt;ctg1 248&lt;br&gt;Location: 275528 - 276074" locus_tag="ctg1_248" class="clusterblast-orf" id="dummy-1_q1_0_all"  />
<polygon points="105,35 110,30 247,30 247,40 110,40 105,35 " style="fill:#1563d8; stroke-width:1; stroke:black; " description="&lt;b&gt;ctg1_249&lt;/b&gt;&lt;br&gt;ctg1 249&lt;br&gt;Location: 276176 - 278297" locus_tag="ctg1_249" class="clusterblast-orf" id="dummy-1_q2_0_all"  />
<polygon points="248,35 253,30 329,30 329,40 253,40 248,35 " style="fill:#b115d8; stroke-width:1; stroke:black; " description="&lt;b&gt;ctg1_250&lt;/b&gt;&lt;br&gt;ctg1 250&lt;br&gt;Location: 278308 - 279520" locus_tag="ctg1_250" class="clusterblast-orf" id="dummy-1_q3_0_all"  />
<polygon points="328,35 333,30 457,30 457,40 333,40 328,35 " style="fill:#d88a15; stroke-width:1; stroke:black; " description="&lt;b&gt;ctg1_251&lt;/b&gt;&lt;br&gt;ctg1 251&lt;br&gt;Location: 279509 - 281435" locus_tag="ctg1_251" class="clusterblast-orf" id="dummy-1_q4_0_all"  />
<polygon points="483,35 488,30 496,30 496,40 488,40 483,35 " style="fill:#15d863; stroke-width:1; stroke:black; " description="&lt;b&gt;ctg1_252&lt;/b&gt;&lt;br&gt;ctg1 252&lt;br&gt;Location: 281816 - 282005" locus_tag="ctg1_252" class="clusterblast-orf" id="dummy-1_q5_0_all"  />
<polygon points="521,35 526,30 569,30 569,40 526,40 521,35 " style="fill:#3c15d8; stroke-width:1; stroke:black; " description="&lt;b&gt;ctg1_253&lt;/b&gt;&lt;br&gt;ctg1 253&lt;br&gt;Location: 282381 - 283095" locus_tag="ctg1_253" class="clusterblast-orf" id="dummy-1_q6_0_all"  />
<polygon points="569,35 574,30 613,30 613,40 574,40 569,35 " style="fill:#d8158a; stroke-width:1; stroke:black; " description="&lt;b&gt;ctg1_254&lt;/b&gt;&lt;br&gt;ctg1 254&lt;br&gt;Location: 283103 - 283754" locus_tag="ctg1_254" class="clusterblast-orf" id="dummy-1_q7_0_all"  />
<polygon points="613,35 618,30 684,30 684,40 618,40 613,35 " style="fill:#b1d815; stroke-width:1; stroke:black; " description="&lt;b&gt;ctg1_255&lt;/b&gt;&lt;br&gt;ctg1 255&lt;br&gt;Location: 283753 - 284812" locus_tag="ctg1_255" class="clusterblast-orf" id="dummy-1_q8_0_all"  />
<polygon points="707,40 772,40 777,35 772,30 707,30 707,40 " style="fill:#15d8d8; stroke-width:1; stroke:black; " description="&lt;b&gt;ctg1_256&lt;/b&gt;&lt;br&gt;ctg1 256&lt;br&gt;Location: 285155 - 286196" locus_tag="ctg1_256" class="clusterblast-orf" id="dummy-1_q9_0_all"  />
</g>
<g label="NZ_CP019428" description="NZ_CP019428 (4908769-4920695): Pseudomonas sp. R76 chromosome, complete genome (100% of genes show similarity), siderophore" class="clusterblast-cluster"  >
<text x="5" y="70" class="clusterblast-acc"  >
<a xlink:href="https://antismash-db.secondarymetabolites.org/area.html?record=NZ_CP019428&amp;start=4908769&amp;end=4920695" target="_blank">NZ_CP019428 (4908769-4920695)</a>: Pseudomonas sp. R76 chromosome, complete genome (100% of genes show similarity), siderophore</text>
<line x1="10" y1="85" x2="778.0" y2="85" style="stroke-width:1; stroke:grey; "  />
</g>
<g id="a1_000"  >
<polygon points="0,90 50,90 55,85 50,80 0,80 0,90 " style="fill:#d81515; stroke-width:1; stroke:black; " description="&lt;b&gt;PspR76_RS22115&lt;/b&gt;&lt;br&gt;nucleoside triphosphate pyrophosphohydrolase&lt;br&gt;Location: 4920609 - 4919776&lt;br&gt;&lt;br&gt;&lt;b&gt;BlastP hit with ctg1_247&lt;/b&gt;&lt;br&gt;Percentage identity: 96&lt;br&gt;Percentage coverage: 100&lt;br&gt;BLAST bit score: 536&lt;br&gt;E-value: 6.17e-194" locus_tag="PspR76_RS22115" class="clusterblast-orf" id="dummy-1_h1_4_0"  />
</g>
<g id="a1_001"  >
<polygon points="57,90 89,90 94,85 89,80 57,80 57,90 " style="fill:#3cd815; stroke-width:1; stroke:black; " description="&lt;b&gt;PspR76_RS22110&lt;/b&gt;&lt;br&gt;DUF2058 family protein&lt;br&gt;Location: 4919750 - 4919205&lt;br&gt;&lt;br&gt;&lt;b&gt;BlastP hit with ctg1_248&lt;/b&gt;&lt;br&gt;Percentage identity: 98&lt;br&gt;Percentage coverage: 100&lt;br&gt;BLAST bit score: 331&lt;br&gt;E-value: 7.11e-116" locus_tag="PspR76_RS22110" class="clusterblast-orf" id="dummy-1_h1_4_1"  />
</g>
<g id="a1_002"  >
<polygon points="106,85 111,80 248,80 248,90 111,90 106,85 " style="fill:#1563d8; stroke-width:1; stroke:black; " description="&lt;b&gt;PspR76_RS22105&lt;/b&gt;&lt;br&gt;TonB-dependent receptor&lt;br&gt;Location: 4919028 - 4916908&lt;br&gt;&lt;br&gt;&lt;b&gt;BlastP hit with ctg1_249&lt;/b&gt;&lt;br&gt;Percentage identity: 97&lt;br&gt;Percentage coverage: 100&lt;br&gt;BLAST bit score: 1384&lt;br&gt;E-value: 0.0" locus_tag="PspR76_RS22105" class="clusterblast-orf" id="dummy-1_h1_4_2"  />
</g>
<g id="a1_003"  >
<polygon points="249,85 254,80 330,80 330,90 254,90 249,85 " style="fill:#b115d8; stroke-width:1; stroke:black; " description="&lt;b&gt;PspR76_RS22100&lt;/b&gt;&lt;br&gt;MFS transporter&lt;br&gt;Location: 4916896 - 4915685&lt;br&gt;&lt;br&gt;&lt;b&gt;BlastP hit with ctg1_250&lt;/b&gt;&lt;br&gt;Percentage identity: 96&lt;br&gt;Percentage coverage: 100&lt;br&gt;BLAST bit score: 744&lt;br&gt;E-value: 3.81e-272" locus_tag="PspR76_RS22100" class="clusterblast-orf" id="dummy-1_h1_4_3"  />
</g>
<g id="a1_004"  >
<polygon points="329,85 334,80 458,80 458,90 334,90 329,85 " style="fill:#d88a15; stroke-width:1; stroke:black; " description="&lt;b&gt;PspR76_RS22095&lt;/b&gt;&lt;br&gt;siderophore synthetase&lt;br&gt;Location: 4915695 - 4913770&lt;br&gt;&lt;br&gt;&lt;b&gt;BlastP hit with ctg1_251&lt;/b&gt;&lt;br&gt;Percentage identity: 95&lt;br&gt;Percentage coverage: 100&lt;br&gt;BLAST bit score: 1234&lt;br&gt;E-value: 0.0" locus_tag="PspR76_RS22095" class="clusterblast-orf" id="dummy-1_h1_4_4"  />
</g>
<g id="a1_005"  >
<polygon points="484,85 489,80 497,80 497,90 489,90 484,85 " style="fill:#15d863; stroke-width:1; stroke:black; " description="&lt;b&gt;PspR76_RS22090&lt;/b&gt;&lt;br&gt;hypothetical protein&lt;br&gt;Location: 4913387 - 4913199&lt;br&gt;&lt;br&gt;&lt;b&gt;BlastP hit with ctg1_252&lt;/b&gt;&lt;br&gt;Percentage identity: 98&lt;br&gt;Percentage coverage: 100&lt;br&gt;BLAST bit score: 126&lt;br&gt;E-value: 1.61e-38" locus_tag="PspR76_RS22090" class="clusterblast-orf" id="dummy-1_h1_4_5"  />
</g>
<g id="a1_006"  >
<polygon points="523,85 528,80 571,80 571,90 528,90 523,85 " style="fill:#3c15d8; stroke-width:1; stroke:black; " description="&lt;b&gt;PspR76_RS22085&lt;/b&gt;&lt;br&gt;DUF3108 domain-containing protein&lt;br&gt;Location: 4912805 - 4912092&lt;br&gt;&lt;br&gt;&lt;b&gt;BlastP hit with ctg1_253&lt;/b&gt;&lt;br&gt;Percentage identity: 99&lt;br&gt;Percentage coverage: 100&lt;br&gt;BLAST bit score: 460&lt;br&gt;E-value: 4.32e-165" locus_tag="PspR76_RS22085" class="clusterblast-orf" id="dummy-1_h1_4_6"  />
</g>
<g id="a1_007"  >
<polygon points="571,85 576,80 615,80 615,90 576,90 571,85 " style="fill:#d8158a; stroke-width:1; stroke:black; " description="&lt;b&gt;PspR76_RS22080&lt;/b&gt;&lt;br&gt;phosphoribosylglycinamide formyltransferase&lt;br&gt;Location: 4912083 - 4911433&lt;br&gt;&lt;br&gt;&lt;b&gt;BlastP hit with ctg1_254&lt;/b&gt;&lt;br&gt;Percentage identity: 97&lt;br&gt;Percentage coverage: 100&lt;br&gt;BLAST bit score: 419&lt;br&gt;E-value: 8.78e-150" locus_tag="PspR76_RS22080" class="clusterblast-orf" id="dummy-1_h1_4_7"  />
</g>
<g id="a1_008"  >
<polygon points="615,85 620,80 686,80 686,90 620,90 615,85 " style="fill:#b1d815; stroke-width:1; stroke:black; " description="&lt;b&gt;PspR76_RS22075&lt;/b&gt;&lt;br&gt;phosphoribosylformylglycinamidine cyclo-ligase&lt;br&gt;Location: 4911433 - 4910375&lt;br&gt;&lt;br&gt;&lt;b&gt;BlastP hit with ctg1_255&lt;/b&gt;&lt;br&gt;Percentage identity: 98&lt;br&gt;Percentage coverage: 100&lt;br&gt;BLAST bit score: 696&lt;br&gt;E-value: 1.15e-254" locus_tag="PspR76_RS22075" class="clusterblast-orf" id="dummy-1_h1_4_8"  />
</g>
<g id="a1_009"  >
<polygon points="710,90 775,90 780,85 775,80 710,80 710,90 " style="fill:#15d8d8; stroke-width:1; stroke:black; " description="&lt;b&gt;PspR76_RS22070&lt;/b&gt;&lt;br&gt;DUF2066 domain-containing protein&lt;br&gt;Location: 4910020 - 4908980&lt;br&gt;&lt;br&gt;&lt;b&gt;BlastP hit with ctg1_256&lt;/b&gt;&lt;br&gt;Percentage identity: 96&lt;br&gt;Percentage coverage: 100&lt;br&gt;BLAST bit score: 647&lt;br&gt;E-value: 2.33e-235" locus_tag="PspR76_RS22070" class="clusterblast-orf" id="dummy-1_h1_4_9"  />
</g>
</svg>
