<svg xmlns="http://www.w3.org/2000/svg" xmlns:xlink="http://www.w3.org/1999/xlink" version="1.1" x="0" y="0" height="230" width="800" viewBox="0 0 800 230" preserveAspectRatio="none"  >
<g label="Query sequence" class="clusterblast-cluster"  >
<text x="5" y="20" class="clusterblast-acc"  >
Query sequence</text>
<line x1="10" y1="35" x2="778.0" y2="35" style="stroke-width:1; stroke:grey; "  />
<polygon points="0,35 5,30 46,30 46,40 5,40 0,35 " style="fill:white; stroke-width:1; stroke:black; " description="&lt;b&gt;ctg23_10&lt;/b&gt;&lt;br&gt;ctg23 10&lt;br&gt;Location: 13192 - 16903" locus_tag="ctg23_10" class="clusterblast-orf" id="dummy-1_q0_0_all"  />
<polygon points="48,40 72,40 77,35 72,30 48,30 48,40 " style="fill:white; stroke-width:1; stroke:black; " description="&lt;b&gt;ctg23_11&lt;/b&gt;&lt;br&gt;ctg23 11&lt;br&gt;Location: 17067 - 19362" locus_tag="ctg23_11" class="clusterblast-orf" id="dummy-1_q1_0_all"  />
<polygon points="90,40 93,40 98,35 93,30 90,30 90,40 " style="fill:white; stroke-width:1; stroke:black; " description="&lt;b&gt;ctg23_12&lt;/b&gt;&lt;br&gt;ctg23 12&lt;br&gt;Location: 20444 - 21029" locus_tag="ctg23_12" class="clusterblast-orf" id="dummy-1_q2_0_all"  />
<polygon points="100,35 105,30 109,30 109,40 105,40 100,35 " style="fill:white; stroke-width:1; stroke:black; " description="&lt;b&gt;ctg23_13&lt;/b&gt;&lt;br&gt;ctg23 13&lt;br&gt;Location: 21232 - 21979" locus_tag="ctg23_13" class="clusterblast-orf" id="dummy-1_q3_0_all"  />
<polygon points="110,35 115,30 115,30 115,40 115,40 110,35 " style="fill:white; stroke-width:1; stroke:black; " description="&lt;b&gt;ctg23_14&lt;/b&gt;&lt;br&gt;ctg23 14&lt;br&gt;Location: 22049 - 22442" locus_tag="ctg23_14" class="clusterblast-orf" id="dummy-1_q4_0_all"  />
<polygon points="115,35 120,30 124,30 124,40 120,40 115,35 " style="fill:white; stroke-width:1; stroke:black; " description="&lt;b&gt;ctg23_15&lt;/b&gt;&lt;br&gt;ctg23 15&lt;br&gt;Location: 22438 - 23143" locus_tag="ctg23_15" class="clusterblast-orf" id="dummy-1_q5_0_all"  />
<polygon points="124,35 126,30 126,40 124,35 " style="fill:white; stroke-width:1; stroke:black; " description="&lt;b&gt;ctg23_16&lt;/b&gt;&lt;br&gt;ctg23 16&lt;br&gt;Location: 23154 - 23343" locus_tag="ctg23_16" class="clusterblast-orf" id="dummy-1_q6_0_all"  />
<polygon points="144,40 152,40 157,35 152,30 144,30 144,40 " style="fill:white; stroke-width:1; stroke:black; " description="&lt;b&gt;ctg23_17&lt;/b&gt;&lt;br&gt;ctg23 17&lt;br&gt;Location: 24726 - 25788" locus_tag="ctg23_17" class="clusterblast-orf" id="dummy-1_q7_0_all"  />
<polygon points="157,40 199,40 204,35 199,30 157,30 157,40 " style="fill:white; stroke-width:1; stroke:black; " description="&lt;b&gt;ctg23_18&lt;/b&gt;&lt;br&gt;ctg23 18&lt;br&gt;Location: 25791 - 29553" locus_tag="ctg23_18" class="clusterblast-orf" id="dummy-1_q8_0_all"  />
<polygon points="204,40 212,40 217,35 212,30 204,30 204,40 " style="fill:white; stroke-width:1; stroke:black; " description="&lt;b&gt;ctg23_19&lt;/b&gt;&lt;br&gt;ctg23 19&lt;br&gt;Location: 29552 - 30551" locus_tag="ctg23_19" class="clusterblast-orf" id="dummy-1_q9_0_all"  />
<polygon points="218,40 220,40 225,35 220,30 218,30 218,40 " style="fill:white; stroke-width:1; stroke:black; " description="&lt;b&gt;ctg23_20&lt;/b&gt;&lt;br&gt;ctg23 20&lt;br&gt;Location: 30670 - 31216" locus_tag="ctg23_20" class="clusterblast-orf" id="dummy-1_q10_0_all"  />
<polygon points="227,40 384,40 389,35 384,30 227,30 227,40 " style="fill:#d81515; stroke-width:1; stroke:black; " description="&lt;b&gt;ctg23_21&lt;/b&gt;&lt;br&gt;ctg23 21&lt;br&gt;Location: 31425 - 44337" locus_tag="ctg23_21" class="clusterblast-orf" id="dummy-1_q11_0_all"  />
<polygon points="389,40 525,40 530,35 525,30 389,30 389,40 " style="fill:#d81515; stroke-width:1; stroke:black; " description="&lt;b&gt;ctg23_22&lt;/b&gt;&lt;br&gt;ctg23 22&lt;br&gt;Location: 44333 - 55670" locus_tag="ctg23_22" class="clusterblast-orf" id="dummy-1_q12_0_all"  />
<polygon points="530,40 540,40 545,35 540,30 530,30 530,40 " style="fill:#3cd815; stroke-width:1; stroke:black; " description="&lt;b&gt;ctg23_23&lt;/b&gt;&lt;br&gt;ctg23 23&lt;br&gt;Location: 55666 - 56809" locus_tag="ctg23_23" class="clusterblast-orf" id="dummy-1_q13_0_all"  />
<polygon points="545,40 564,40 569,35 564,30 545,30 545,40 " style="fill:#1563d8; stroke-width:1; stroke:black; " description="&lt;b&gt;ctg23_24&lt;/b&gt;&lt;br&gt;ctg23 24&lt;br&gt;Location: 56812 - 58771" locus_tag="ctg23_24" class="clusterblast-orf" id="dummy-1_q14_0_all"  />
<polygon points="571,35 576,30 579,30 579,40 576,40 571,35 " style="fill:#b115d8; stroke-width:1; stroke:black; " description="&lt;b&gt;ctg23_25&lt;/b&gt;&lt;br&gt;ctg23 25&lt;br&gt;Location: 58898 - 59576" locus_tag="ctg23_25" class="clusterblast-orf" id="dummy-1_q15_0_all"  />
<polygon points="582,35 587,30 598,30 598,40 587,40 582,35 " style="fill:#d88a15; stroke-width:1; stroke:black; " description="&lt;b&gt;ctg23_26&lt;/b&gt;&lt;br&gt;ctg23 26&lt;br&gt;Location: 59808 - 61053" locus_tag="ctg23_26" class="clusterblast-orf" id="dummy-1_q16_0_all"  />
<polygon points="599,40 600,40 605,35 600,30 599,30 599,40 " style="fill:#15d863; stroke-width:1; stroke:black; " description="&lt;b&gt;ctg23_27&lt;/b&gt;&lt;br&gt;ctg23 27&lt;br&gt;Location: 61176 - 61647" locus_tag="ctg23_27" class="clusterblast-orf" id="dummy-1_q17_0_all"  />
<polygon points="606,35 611,30 632,30 632,40 611,40 606,35 " style="fill:#3c15d8; stroke-width:1; stroke:black; " description="&lt;b&gt;ctg23_28&lt;/b&gt;&lt;br&gt;ctg23 28&lt;br&gt;Location: 61692 - 63834" locus_tag="ctg23_28" class="clusterblast-orf" id="dummy-1_q18_0_all"  />
<polygon points="634,35 639,30 645,30 645,40 639,40 634,35 " style="fill:#d8158a; stroke-width:1; stroke:black; " description="&lt;b&gt;ctg23_29&lt;/b&gt;&lt;br&gt;ctg23 29&lt;br&gt;Location: 63939 - 64836" locus_tag="ctg23_29" class="clusterblast-orf" id="dummy-1_q19_0_all"  />
<polygon points="647,40 659,40 664,35 659,30 647,30 647,40 " style="fill:white; stroke-width:1; stroke:black; " description="&lt;b&gt;ctg23_30&lt;/b&gt;&lt;br&gt;ctg23 30&lt;br&gt;Location: 64974 - 66333" locus_tag="ctg23_30" class="clusterblast-orf" id="dummy-1_q20_0_all"  />
<polygon points="664,40 673,40 678,35 673,30 664,30 664,40 " style="fill:#b1d815; stroke-width:1; stroke:black; " description="&lt;b&gt;ctg23_31&lt;/b&gt;&lt;br&gt;ctg23 31&lt;br&gt;Location: 66355 - 67444" locus_tag="ctg23_31" class="clusterblast-orf" id="dummy-1_q21_0_all"  />
<polygon points="678,40 689,40 694,35 689,30 678,30 678,40 " style="fill:#15d8d8; stroke-width:1; stroke:black; " description="&lt;b&gt;ctg23_32&lt;/b&gt;&lt;br&gt;ctg23 32&lt;br&gt;Location: 67440 - 68736" locus_tag="ctg23_32" class="clusterblast-orf" id="dummy-1_q22_0_all"  />
<polygon points="695,35 700,30 706,30 706,40 700,40 695,35 " style="fill:white; stroke-width:1; stroke:black; " description="&lt;b&gt;ctg23_33&lt;/b&gt;&lt;br&gt;ctg23 33&lt;br&gt;Location: 68848 - 69742" locus_tag="ctg23_33" class="clusterblast-orf" id="dummy-1_q23_0_all"  />
<polygon points="708,40 715,40 720,35 715,30 708,30 708,40 " style="fill:white; stroke-width:1; stroke:black; " description="&lt;b&gt;ctg23_34&lt;/b&gt;&lt;br&gt;ctg23 34&lt;br&gt;Location: 69855 - 70860" locus_tag="ctg23_34" class="clusterblast-orf" id="dummy-1_q24_0_all"  />
<polygon points="720,40 725,40 730,35 725,30 720,30 720,40 " style="fill:white; stroke-width:1; stroke:black; " description="&lt;b&gt;ctg23_35&lt;/b&gt;&lt;br&gt;ctg23 35&lt;br&gt;Location: 70875 - 71673" locus_tag="ctg23_35" class="clusterblast-orf" id="dummy-1_q25_0_all"  />
<polygon points="731,40 731,40 736,35 731,30 731,30 731,40 " style="fill:white; stroke-width:1; stroke:black; " description="&lt;b&gt;ctg23_36&lt;/b&gt;&lt;br&gt;ctg23 36&lt;br&gt;Location: 71700 - 72111" locus_tag="ctg23_36" class="clusterblast-orf" id="dummy-1_q26_0_all"  />
<polygon points="737,35 742,30 755,30 755,40 742,40 737,35 " style="fill:white; stroke-width:1; stroke:black; " description="&lt;b&gt;ctg23_37&lt;/b&gt;&lt;br&gt;ctg23 37&lt;br&gt;Location: 72238 - 73633" locus_tag="ctg23_37" class="clusterblast-orf" id="dummy-1_q27_0_all"  />
<polygon points="755,35 760,30 763,30 763,40 760,40 755,35 " style="fill:white; stroke-width:1; stroke:black; " description="&lt;b&gt;ctg23_38&lt;/b&gt;&lt;br&gt;ctg23 38&lt;br&gt;Location: 73610 - 74294" locus_tag="ctg23_38" class="clusterblast-orf" id="dummy-1_q28_0_all"  />
<polygon points="768,40 775,40 780,35 775,30 768,30 768,40 " style="fill:white; stroke-width:1; stroke:black; " description="&lt;b&gt;ctg23_39&lt;/b&gt;&lt;br&gt;ctg23 39&lt;br&gt;Location: 74704 - 75610" locus_tag="ctg23_39" class="clusterblast-orf" id="dummy-1_q29_0_all"  />
</g>
<g label="BGC0000398" description="BGC0000398_c1: orfamide B (60% of genes show similarity), NRP:Cyclic depsipeptide" class="clusterblast-cluster"  >
<text x="5" y="70" class="clusterblast-acc"  >
<a xlink:href="https://mibig.secondarymetabolites.org/go/BGC0000398/1" target="_blank">BGC0000398</a>: orfamide B                                                                       (60% of genes show similarity), NRP:Cyclic depsipeptide</text>
<line x1="10" y1="85" x2="778.0" y2="85" style="stroke-width:1; stroke:grey; "  />
</g>
<g id="a1_000"  >
<polygon points="119,90 123,90 128,85 123,80 119,80 119,90 " style="fill:white; stroke-width:1; stroke:black; " description="&lt;b&gt;AFH75326.1&lt;/b&gt;&lt;br&gt;putative acetyltransferase&lt;br&gt;Location: 2082 - 2816" locus_tag="AFH75326.1" class="clusterblast-orf" id="dummy-1_h1_9_0"  />
</g>
<g id="a1_001"  >
<polygon points="130,85 135,80 140,80 140,90 135,90 130,85 " style="fill:white; stroke-width:1; stroke:black; " description="&lt;b&gt;AFH75327.1&lt;/b&gt;&lt;br&gt;LuxR family transcriptional regulator&lt;br&gt;Location: 2951 - 3751" locus_tag="AFH75327.1" class="clusterblast-orf" id="dummy-1_h1_9_1"  />
</g>
<g id="a1_002"  >
<polygon points="147,90 222,90 227,85 222,80 147,80 147,90 " style="fill:#d81515; stroke-width:1; stroke:black; " description="&lt;b&gt;AFH75328.1&lt;/b&gt;&lt;br&gt;nonribosomal peptide synthetase&lt;br&gt;Location: 4357 - 10734&lt;br&gt;&lt;br&gt;&lt;b&gt;BlastP hit with ctg23_21&lt;/b&gt;&lt;br&gt;Percentage identity: 51&lt;br&gt;Percentage coverage: 48&lt;br&gt;BLAST bit score: 1830&lt;br&gt;E-value: 0.0" locus_tag="AFH75328.1" class="clusterblast-orf" id="dummy-1_h1_9_2"  />
</g>
<g id="a1_003"  >
<polygon points="231,90 389,90 394,85 389,80 231,80 231,90 " style="fill:#d81515; stroke-width:1; stroke:black; " description="&lt;b&gt;AFH75329.1&lt;/b&gt;&lt;br&gt;nonribosomal peptide synthetase&lt;br&gt;Location: 11026 - 24123&lt;br&gt;&lt;br&gt;&lt;b&gt;BlastP hit with ctg23_21&lt;/b&gt;&lt;br&gt;Percentage identity: 68&lt;br&gt;Percentage coverage: 102&lt;br&gt;BLAST bit score: 5739&lt;br&gt;E-value: 0.0&lt;br&gt;&lt;br&gt;&lt;b&gt;BlastP hit with ctg23_22&lt;/b&gt;&lt;br&gt;Percentage identity: 46&lt;br&gt;Percentage coverage: 88&lt;br&gt;BLAST bit score: 2492&lt;br&gt;E-value: 0.0" locus_tag="AFH75329.1" class="clusterblast-orf" id="dummy-1_h1_9_3"  />
</g>
<g id="a1_004"  >
<polygon points="394,90 573,90 578,85 573,80 394,80 394,90 " style="fill:#d81515; stroke-width:1; stroke:black; " description="&lt;b&gt;AFH75330.1&lt;/b&gt;&lt;br&gt;nonribosomal peptide synthetase&lt;br&gt;Location: 24120 - 38810&lt;br&gt;&lt;br&gt;&lt;b&gt;BlastP hit with ctg23_22&lt;/b&gt;&lt;br&gt;Percentage identity: 54&lt;br&gt;Percentage coverage: 130&lt;br&gt;BLAST bit score: 4654&lt;br&gt;E-value: 0.0" locus_tag="AFH75330.1" class="clusterblast-orf" id="dummy-1_h1_9_4"  />
</g>
<g id="a1_005"  >
<polygon points="580,90 589,90 594,85 589,80 580,80 580,90 " style="fill:#3cd815; stroke-width:1; stroke:black; " description="&lt;b&gt;AFH75331.1&lt;/b&gt;&lt;br&gt;macrolide-specific efflux protein&lt;br&gt;Location: 39000 - 40121&lt;br&gt;&lt;br&gt;&lt;b&gt;BlastP hit with ctg23_23&lt;/b&gt;&lt;br&gt;Percentage identity: 81&lt;br&gt;Percentage coverage: 97&lt;br&gt;BLAST bit score: 568&lt;br&gt;E-value: 7.94e-205" locus_tag="AFH75331.1" class="clusterblast-orf" id="dummy-1_h1_9_5"  />
</g>
<g id="a1_006"  >
<polygon points="594,90 614,90 619,85 614,80 594,80 594,90 " style="fill:#1563d8; stroke-width:1; stroke:black; " description="&lt;b&gt;AFH75332.1&lt;/b&gt;&lt;br&gt;macrolide export ATP-binding/permease protein MacB&lt;br&gt;Location: 40124 - 42082&lt;br&gt;&lt;br&gt;&lt;b&gt;BlastP hit with ctg23_24&lt;/b&gt;&lt;br&gt;Percentage identity: 84&lt;br&gt;Percentage coverage: 100&lt;br&gt;BLAST bit score: 1047&lt;br&gt;E-value: 0.0" locus_tag="AFH75332.1" class="clusterblast-orf" id="dummy-1_h1_9_6"  />
</g>
<g id="a1_007"  >
<polygon points="619,85 624,80 629,80 629,90 624,90 619,85 " style="fill:#b115d8; stroke-width:1; stroke:black; " description="&lt;b&gt;AFH75333.1&lt;/b&gt;&lt;br&gt;LuxR family transcriptional regulator&lt;br&gt;Location: 42125 - 42895&lt;br&gt;&lt;br&gt;&lt;b&gt;BlastP hit with ctg23_25&lt;/b&gt;&lt;br&gt;Percentage identity: 61&lt;br&gt;Percentage coverage: 111&lt;br&gt;BLAST bit score: 267&lt;br&gt;E-value: 1.33e-90" locus_tag="AFH75333.1" class="clusterblast-orf" id="dummy-1_h1_9_7"  />
</g>
<g id="a1_008"  >
<polygon points="635,85 640,80 640,80 640,90 640,90 635,85 " style="fill:white; stroke-width:1; stroke:black; " description="&lt;b&gt;AFH75334.1&lt;/b&gt;&lt;br&gt;glyoxalase family protein&lt;br&gt;Location: 43363 - 43779" locus_tag="AFH75334.1" class="clusterblast-orf" id="dummy-1_h1_9_8"  />
</g>
<g id="a1_009"  >
<polygon points="642,85 647,80 660,80 660,90 647,90 642,85 " style="fill:white; stroke-width:1; stroke:black; " description="&lt;b&gt;AFH75335.1&lt;/b&gt;&lt;br&gt;heme biosynthesis protein&lt;br&gt;Location: 43969 - 45375" locus_tag="AFH75335.1" class="clusterblast-orf" id="dummy-1_h1_9_9"  />
</g>
</svg>
