<svg xmlns="http://www.w3.org/2000/svg" xmlns:xlink="http://www.w3.org/1999/xlink" version="1.1" x="0" y="0" height="230" width="800" viewBox="0 0 800 230" preserveAspectRatio="none"  >
<g label="Query sequence" class="clusterblast-cluster"  >
<text x="5" y="20" class="clusterblast-acc"  >
Query sequence</text>
<line x1="10" y1="35" x2="778.0" y2="35" style="stroke-width:1; stroke:grey; "  />
<polygon points="109,40 109,40 114,35 109,30 109,30 109,40 " style="fill:#d81515; stroke-width:1; stroke:black; " description="&lt;b&gt;ctg24_33&lt;/b&gt;&lt;br&gt;ctg24 33&lt;br&gt;Location: 32595 - 32865" locus_tag="ctg24_33" class="clusterblast-orf" id="dummy-1_q0_0_all"  />
<polygon points="117,40 157,40 162,35 157,30 117,30 117,40 " style="fill:#15d863; stroke-width:1; stroke:black; " description="&lt;b&gt;ctg24_34&lt;/b&gt;&lt;br&gt;ctg24 34&lt;br&gt;Location: 32999 - 35156" locus_tag="ctg24_34" class="clusterblast-orf" id="dummy-1_q1_0_all"  />
<polygon points="162,40 178,40 183,35 178,30 162,30 162,40 " style="fill:white; stroke-width:1; stroke:black; " description="&lt;b&gt;ctg24_35&lt;/b&gt;&lt;br&gt;ctg24 35&lt;br&gt;Location: 35157 - 36156" locus_tag="ctg24_35" class="clusterblast-orf" id="dummy-1_q2_0_all"  />
<polygon points="183,40 193,40 198,35 193,30 183,30 183,40 " style="fill:white; stroke-width:1; stroke:black; " description="&lt;b&gt;ctg24_36&lt;/b&gt;&lt;br&gt;ctg24 36&lt;br&gt;Location: 36152 - 36911" locus_tag="ctg24_36" class="clusterblast-orf" id="dummy-1_q3_0_all"  />
<polygon points="198,40 206,40 211,35 206,30 198,30 198,40 " style="fill:white; stroke-width:1; stroke:black; " description="&lt;b&gt;ctg24_37&lt;/b&gt;&lt;br&gt;ctg24 37&lt;br&gt;Location: 36907 - 37507" locus_tag="ctg24_37" class="clusterblast-orf" id="dummy-1_q4_0_all"  />
<polygon points="211,40 219,40 224,35 219,30 211,30 211,40 " style="fill:white; stroke-width:1; stroke:black; " description="&lt;b&gt;ctg24_38&lt;/b&gt;&lt;br&gt;ctg24 38&lt;br&gt;Location: 37503 - 38163" locus_tag="ctg24_38" class="clusterblast-orf" id="dummy-1_q5_0_all"  />
<polygon points="228,40 239,40 244,35 239,30 228,30 228,40 " style="fill:white; stroke-width:1; stroke:black; " description="&lt;b&gt;ctg24_39&lt;/b&gt;&lt;br&gt;ctg24 39&lt;br&gt;Location: 38353 - 39115" locus_tag="ctg24_39" class="clusterblast-orf" id="dummy-1_q6_0_all"  />
<polygon points="247,40 263,40 268,35 263,30 247,30 247,40 " style="fill:white; stroke-width:1; stroke:black; " description="&lt;b&gt;ctg24_40&lt;/b&gt;&lt;br&gt;ctg24 40&lt;br&gt;Location: 39254 - 40274" locus_tag="ctg24_40" class="clusterblast-orf" id="dummy-1_q7_0_all"  />
<polygon points="273,40 281,40 286,35 281,30 273,30 273,40 " style="fill:white; stroke-width:1; stroke:black; " description="&lt;b&gt;ctg24_41&lt;/b&gt;&lt;br&gt;ctg24 41&lt;br&gt;Location: 40496 - 41117" locus_tag="ctg24_41" class="clusterblast-orf" id="dummy-1_q8_0_all"  />
<polygon points="286,40 289,40 294,35 289,30 286,30 286,40 " style="fill:white; stroke-width:1; stroke:black; " description="&lt;b&gt;ctg24_42&lt;/b&gt;&lt;br&gt;ctg24 42&lt;br&gt;Location: 41147 - 41540" locus_tag="ctg24_42" class="clusterblast-orf" id="dummy-1_q9_0_all"  />
<polygon points="299,40 314,40 319,35 314,30 299,30 299,40 " style="fill:white; stroke-width:1; stroke:black; " description="&lt;b&gt;ctg24_43&lt;/b&gt;&lt;br&gt;ctg24 43&lt;br&gt;Location: 41755 - 42733" locus_tag="ctg24_43" class="clusterblast-orf" id="dummy-1_q10_0_all"  />
<polygon points="320,40 322,35 320,30 320,40 " style="fill:white; stroke-width:1; stroke:black; " description="&lt;b&gt;ctg24_44&lt;/b&gt;&lt;br&gt;ctg24 44&lt;br&gt;Location: 42787 - 42892" locus_tag="ctg24_44" class="clusterblast-orf" id="dummy-1_q11_0_all"  />
<polygon points="325,40 338,40 343,35 338,30 325,30 325,40 " style="fill:white; stroke-width:1; stroke:black; " description="&lt;b&gt;ctg24_45&lt;/b&gt;&lt;br&gt;ctg24 45&lt;br&gt;Location: 43018 - 43870" locus_tag="ctg24_45" class="clusterblast-orf" id="dummy-1_q12_0_all"  />
<polygon points="346,40 369,40 374,35 369,30 346,30 346,40 " style="fill:#1563d8; stroke-width:1; stroke:black; " description="&lt;b&gt;ctg24_46&lt;/b&gt;&lt;br&gt;ctg24 46&lt;br&gt;Location: 44014 - 45391" locus_tag="ctg24_46" class="clusterblast-orf" id="dummy-1_q13_0_all"  />
<polygon points="374,40 393,40 398,35 393,30 374,30 374,40 " style="fill:#b115d8; stroke-width:1; stroke:black; " description="&lt;b&gt;ctg24_47&lt;/b&gt;&lt;br&gt;ctg24 47&lt;br&gt;Location: 45387 - 46554" locus_tag="ctg24_47" class="clusterblast-orf" id="dummy-1_q14_0_all"  />
<polygon points="409,40 412,35 409,30 409,40 " style="fill:white; stroke-width:1; stroke:black; " description="&lt;b&gt;ctg24_48&lt;/b&gt;&lt;br&gt;ctg24 48&lt;br&gt;Location: 47066 - 47234" locus_tag="ctg24_48" class="clusterblast-orf" id="dummy-1_q15_0_all"  />
<polygon points="412,40 416,35 412,30 412,40 " style="fill:white; stroke-width:1; stroke:black; " description="&lt;b&gt;ctg24_49&lt;/b&gt;&lt;br&gt;ctg24 49&lt;br&gt;Location: 47233 - 47401" locus_tag="ctg24_49" class="clusterblast-orf" id="dummy-1_q16_0_all"  />
<polygon points="416,40 419,35 416,30 416,40 " style="fill:white; stroke-width:1; stroke:black; " description="&lt;b&gt;ctg24_50&lt;/b&gt;&lt;br&gt;ctg24 50&lt;br&gt;Location: 47400 - 47568" locus_tag="ctg24_50" class="clusterblast-orf" id="dummy-1_q17_0_all"  />
<polygon points="422,35 426,30 426,40 422,35 " style="fill:white; stroke-width:1; stroke:black; " description="&lt;b&gt;ctg24_51&lt;/b&gt;&lt;br&gt;ctg24 51&lt;br&gt;Location: 47721 - 47889" locus_tag="ctg24_51" class="clusterblast-orf" id="dummy-1_q18_0_all"  />
<polygon points="426,35 431,30 472,30 472,40 431,40 426,35 " style="fill:#b1d815; stroke-width:1; stroke:black; " description="&lt;b&gt;ctg24_52&lt;/b&gt;&lt;br&gt;ctg24 52&lt;br&gt;Location: 47888 - 50087" locus_tag="ctg24_52" class="clusterblast-orf" id="dummy-1_q19_0_all"  />
<polygon points="474,40 482,40 487,35 482,30 474,30 474,40 " style="fill:white; stroke-width:1; stroke:black; " description="&lt;b&gt;ctg24_53&lt;/b&gt;&lt;br&gt;ctg24 53&lt;br&gt;Location: 50223 - 50844" locus_tag="ctg24_53" class="clusterblast-orf" id="dummy-1_q20_0_all"  />
<polygon points="487,35 492,30 501,30 501,40 492,40 487,35 " style="fill:white; stroke-width:1; stroke:black; " description="&lt;b&gt;ctg24_54&lt;/b&gt;&lt;br&gt;ctg24 54&lt;br&gt;Location: 50857 - 51514" locus_tag="ctg24_54" class="clusterblast-orf" id="dummy-1_q21_0_all"  />
<polygon points="503,40 512,40 517,35 512,30 503,30 503,40 " style="fill:white; stroke-width:1; stroke:black; " description="&lt;b&gt;ctg24_55&lt;/b&gt;&lt;br&gt;ctg24 55&lt;br&gt;Location: 51625 - 52258" locus_tag="ctg24_55" class="clusterblast-orf" id="dummy-1_q22_0_all"  />
<polygon points="518,40 521,35 518,30 518,40 " style="fill:white; stroke-width:1; stroke:black; " description="&lt;b&gt;ctg24_56&lt;/b&gt;&lt;br&gt;ctg24 56&lt;br&gt;Location: 52335 - 52491" locus_tag="ctg24_56" class="clusterblast-orf" id="dummy-1_q23_0_all"  />
<polygon points="522,40 545,40 550,35 545,30 522,30 522,40 " style="fill:white; stroke-width:1; stroke:black; " description="&lt;b&gt;ctg24_57&lt;/b&gt;&lt;br&gt;ctg24 57&lt;br&gt;Location: 52541 - 53855" locus_tag="ctg24_57" class="clusterblast-orf" id="dummy-1_q24_0_all"  />
<polygon points="551,40 558,40 563,35 558,30 551,30 551,40 " style="fill:white; stroke-width:1; stroke:black; " description="&lt;b&gt;ctg24_58&lt;/b&gt;&lt;br&gt;ctg24 58&lt;br&gt;Location: 53924 - 54503" locus_tag="ctg24_58" class="clusterblast-orf" id="dummy-1_q25_0_all"  />
<polygon points="564,35 569,30 573,30 573,40 569,40 564,35 " style="fill:white; stroke-width:1; stroke:black; " description="&lt;b&gt;ctg24_59&lt;/b&gt;&lt;br&gt;ctg24 59&lt;br&gt;Location: 54546 - 54996" locus_tag="ctg24_59" class="clusterblast-orf" id="dummy-1_q26_0_all"  />
<polygon points="573,35 578,30 583,30 583,40 578,40 573,35 " style="fill:white; stroke-width:1; stroke:black; " description="&lt;b&gt;ctg24_60&lt;/b&gt;&lt;br&gt;ctg24 60&lt;br&gt;Location: 54988 - 55444" locus_tag="ctg24_60" class="clusterblast-orf" id="dummy-1_q27_0_all"  />
<polygon points="585,40 624,40 629,35 624,30 585,30 585,40 " style="fill:white; stroke-width:1; stroke:black; " description="&lt;b&gt;ctg24_61&lt;/b&gt;&lt;br&gt;ctg24 61&lt;br&gt;Location: 55538 - 57686" locus_tag="ctg24_61" class="clusterblast-orf" id="dummy-1_q28_0_all"  />
<polygon points="631,35 636,30 647,30 647,40 636,40 631,35 " style="fill:white; stroke-width:1; stroke:black; " description="&lt;b&gt;ctg24_62&lt;/b&gt;&lt;br&gt;ctg24 62&lt;br&gt;Location: 57765 - 58536" locus_tag="ctg24_62" class="clusterblast-orf" id="dummy-1_q29_0_all"  />
<polygon points="647,35 652,30 657,30 657,40 652,40 647,35 " style="fill:white; stroke-width:1; stroke:black; " description="&lt;b&gt;ctg24_63&lt;/b&gt;&lt;br&gt;ctg24 63&lt;br&gt;Location: 58532 - 59012" locus_tag="ctg24_63" class="clusterblast-orf" id="dummy-1_q30_0_all"  />
<polygon points="662,40 666,40 671,35 666,30 662,30 662,40 " style="fill:white; stroke-width:1; stroke:black; " description="&lt;b&gt;ctg24_64&lt;/b&gt;&lt;br&gt;ctg24 64&lt;br&gt;Location: 59270 - 59687" locus_tag="ctg24_64" class="clusterblast-orf" id="dummy-1_q31_0_all"  />
</g>
<g label="BGC0000774" description="BGC0000774_c1: lipopolysaccharide (5% of genes show similarity), Saccharide:Lipopolysaccharide" class="clusterblast-cluster"  >
<text x="5" y="70" class="clusterblast-acc"  >
<a xlink:href="https://mibig.secondarymetabolites.org/go/BGC0000774/1" target="_blank">BGC0000774</a>: lipopolysaccharide                                                               (5% of genes show similarity), Saccharide:Lipopolysaccharide</text>
<line x1="10" y1="85" x2="778.0" y2="85" style="stroke-width:1; stroke:grey; "  />
</g>
<g id="a1_000"  >
<polygon points="0,85 5,80 12,80 12,90 5,90 0,85 " style="fill:white; stroke-width:1; stroke:black; " description="&lt;b&gt;AAK53492.1&lt;/b&gt;&lt;br&gt;putative ATP-dependent RNA helicase&lt;br&gt;Location: 37753 - 37148" locus_tag="AAK53492.1" class="clusterblast-orf" id="dummy-1_h1_2_0"  />
</g>
<g id="a1_001"  >
<polygon points="20,90 35,90 40,85 35,80 20,80 20,90 " style="fill:white; stroke-width:1; stroke:black; " description="&lt;b&gt;AAK53491.1&lt;/b&gt;&lt;br&gt;putative dioxygenase&lt;br&gt;Location: 36768 - 35779" locus_tag="AAK53491.1" class="clusterblast-orf" id="dummy-1_h1_2_1"  />
</g>
<g id="a1_002"  >
<polygon points="41,90 50,90 55,85 50,80 41,80 41,90 " style="fill:white; stroke-width:1; stroke:black; " description="&lt;b&gt;AAK53490.1&lt;/b&gt;&lt;br&gt;putative maleylacetoacetate isomerase&lt;br&gt;Location: 35735 - 35073" locus_tag="AAK53490.1" class="clusterblast-orf" id="dummy-1_h1_2_2"  />
</g>
<g id="a1_003"  >
<polygon points="66,85 71,80 89,80 89,90 71,90 66,85 " style="fill:white; stroke-width:1; stroke:black; " description="&lt;b&gt;AAK53489.1&lt;/b&gt;&lt;br&gt;type II secretion system protein-like protein&lt;br&gt;Location: 34553 - 33420" locus_tag="AAK53489.1" class="clusterblast-orf" id="dummy-1_h1_2_3"  />
</g>
<g id="a1_004"  >
<polygon points="91,90 94,90 99,85 94,80 91,80 91,90 " style="fill:white; stroke-width:1; stroke:black; " description="&lt;b&gt;AAK53488.1&lt;/b&gt;&lt;br&gt;putative outer membrane protein UptD precursor&lt;br&gt;Location: 33321 - 32938" locus_tag="AAK53488.1" class="clusterblast-orf" id="dummy-1_h1_2_4"  />
</g>
<g id="a1_005"  >
<polygon points="99,90 113,90 118,85 113,80 99,80 99,90 " style="fill:white; stroke-width:1; stroke:black; " description="&lt;b&gt;AAK53487.1&lt;/b&gt;&lt;br&gt;putative outer membrane protein UptE precursor&lt;br&gt;Location: 32941 - 32051" locus_tag="AAK53487.1" class="clusterblast-orf" id="dummy-1_h1_2_5"  />
</g>
<g id="a1_006"  >
<polygon points="119,90 124,90 129,85 124,80 119,80 119,90 " style="fill:white; stroke-width:1; stroke:black; " description="&lt;b&gt;AAK53486.1&lt;/b&gt;&lt;br&gt;UptF&lt;br&gt;Location: 31985 - 31491" locus_tag="AAK53486.1" class="clusterblast-orf" id="dummy-1_h1_2_6"  />
</g>
<g id="a1_007"  >
<polygon points="134,90 158,90 163,85 158,80 134,80 134,90 " style="fill:#1563d8; stroke-width:1; stroke:black; " description="&lt;b&gt;AAK53485.1&lt;/b&gt;&lt;br&gt;cystathionine beta-lyase&lt;br&gt;Location: 31259 - 29889&lt;br&gt;&lt;br&gt;&lt;b&gt;BlastP hit with ctg24_46&lt;/b&gt;&lt;br&gt;Percentage identity: 61&lt;br&gt;Percentage coverage: 98&lt;br&gt;BLAST bit score: 547&lt;br&gt;E-value: 3.56e-194" locus_tag="AAK53485.1" class="clusterblast-orf" id="dummy-1_h1_2_7"  />
</g>
<g id="a1_008"  >
<polygon points="165,90 184,90 189,85 184,80 165,80 165,90 " style="fill:#b115d8; stroke-width:1; stroke:black; " description="&lt;b&gt;AAK53484.1&lt;/b&gt;&lt;br&gt;cystathionine gamma-synthase&lt;br&gt;Location: 29795 - 28596&lt;br&gt;&lt;br&gt;&lt;b&gt;BlastP hit with ctg24_47&lt;/b&gt;&lt;br&gt;Percentage identity: 68&lt;br&gt;Percentage coverage: 97&lt;br&gt;BLAST bit score: 538&lt;br&gt;E-value: 2.04e-192" locus_tag="AAK53484.1" class="clusterblast-orf" id="dummy-1_h1_2_8"  />
</g>
<g id="a1_009"  >
<polygon points="189,90 213,90 218,85 213,80 189,80 189,90 " style="fill:white; stroke-width:1; stroke:black; " description="&lt;b&gt;AAK53483.1&lt;/b&gt;&lt;br&gt;glycosyltransferase&lt;br&gt;Location: 28599 - 27214" locus_tag="AAK53483.1" class="clusterblast-orf" id="dummy-1_h1_2_9"  />
</g>
<g id="a1_0010"  >
<polygon points="220,90 231,90 236,85 231,80 220,80 220,90 " style="fill:white; stroke-width:1; stroke:black; " description="&lt;b&gt;AAK53482.1&lt;/b&gt;&lt;br&gt;permease protein of an ABC-type polysaccaharide exporter&lt;br&gt;Location: 27130 - 26345" locus_tag="AAK53482.1" class="clusterblast-orf" id="dummy-1_h1_2_10"  />
</g>
<g id="a1_0011"  >
<polygon points="236,90 258,90 263,85 258,80 236,80 236,90 " style="fill:white; stroke-width:1; stroke:black; " description="&lt;b&gt;AAK53481.1&lt;/b&gt;&lt;br&gt;ATP-binding component of an ABC-type polysaccharide exporter&lt;br&gt;Location: 26348 - 25062" locus_tag="AAK53481.1" class="clusterblast-orf" id="dummy-1_h1_2_11"  />
</g>
<g id="a1_0012"  >
<polygon points="263,90 306,90 311,85 306,80 263,80 263,90 " style="fill:white; stroke-width:1; stroke:black; " description="&lt;b&gt;AAK53480.1&lt;/b&gt;&lt;br&gt;putative protein kinase&lt;br&gt;Location: 25022 - 22734" locus_tag="AAK53480.1" class="clusterblast-orf" id="dummy-1_h1_2_12"  />
</g>
<g id="a1_0013"  >
<polygon points="312,90 329,90 334,85 329,80 312,80 312,90 " style="fill:white; stroke-width:1; stroke:black; " description="&lt;b&gt;AAK53479.1&lt;/b&gt;&lt;br&gt;glycosyltransferase&lt;br&gt;Location: 22684 - 21623" locus_tag="AAK53479.1" class="clusterblast-orf" id="dummy-1_h1_2_13"  />
</g>
<g id="a1_0014"  >
<polygon points="334,90 366,90 371,85 366,80 334,80 334,90 " style="fill:white; stroke-width:1; stroke:black; " description="&lt;b&gt;AAK53478.1&lt;/b&gt;&lt;br&gt;putative glycosyltransferase&lt;br&gt;Location: 21602 - 19857" locus_tag="AAK53478.1" class="clusterblast-orf" id="dummy-1_h1_2_14"  />
</g>
<g id="a1_0015"  >
<polygon points="371,90 379,90 384,85 379,80 371,80 371,90 " style="fill:white; stroke-width:1; stroke:black; " description="&lt;b&gt;AAK53477.1&lt;/b&gt;&lt;br&gt;Unknown&lt;br&gt;Location: 19857 - 19222" locus_tag="AAK53477.1" class="clusterblast-orf" id="dummy-1_h1_2_15"  />
</g>
<g id="a1_0016"  >
<polygon points="385,90 402,90 407,85 402,80 385,80 385,90 " style="fill:white; stroke-width:1; stroke:black; " description="&lt;b&gt;AAK53476.1&lt;/b&gt;&lt;br&gt;GDP-mannose 4,6-dehydratase&lt;br&gt;Location: 19144 - 18110" locus_tag="AAK53476.1" class="clusterblast-orf" id="dummy-1_h1_2_16"  />
</g>
<g id="a1_0017"  >
<polygon points="406,90 421,90 426,85 421,80 406,80 406,90 " style="fill:white; stroke-width:1; stroke:black; " description="&lt;b&gt;AAK53475.1&lt;/b&gt;&lt;br&gt;GDP-4-dehydro-D-rhamnose reductase&lt;br&gt;Location: 18126 - 17188" locus_tag="AAK53475.1" class="clusterblast-orf" id="dummy-1_h1_2_17"  />
</g>
<g id="a1_0018"  >
<polygon points="429,85 434,80 476,80 476,90 434,90 429,85 " style="fill:white; stroke-width:1; stroke:black; " description="&lt;b&gt;AAK53474.1&lt;/b&gt;&lt;br&gt;integral membrane protein&lt;br&gt;Location: 17046 - 14794" locus_tag="AAK53474.1" class="clusterblast-orf" id="dummy-1_h1_2_18"  />
</g>
<g id="a1_0019"  >
<polygon points="477,85 482,80 486,80 486,90 482,90 477,85 " style="fill:white; stroke-width:1; stroke:black; " description="&lt;b&gt;AAK53473.1&lt;/b&gt;&lt;br&gt;putative integral membrane protein WxcN&lt;br&gt;Location: 14724 - 14284" locus_tag="AAK53473.1" class="clusterblast-orf" id="dummy-1_h1_2_19"  />
</g>
<g id="a1_0020"  >
<polygon points="486,85 491,80 505,80 505,90 491,90 486,85 " style="fill:white; stroke-width:1; stroke:black; " description="&lt;b&gt;AAK53472.1&lt;/b&gt;&lt;br&gt;bifunctional nucleotide hexosamine acetyltransferase / isomerase&lt;br&gt;Location: 14297 - 13368" locus_tag="AAK53472.1" class="clusterblast-orf" id="dummy-1_h1_2_20"  />
</g>
<g id="a1_0021"  >
<polygon points="505,85 510,80 525,80 525,90 510,90 505,85 " style="fill:white; stroke-width:1; stroke:black; " description="&lt;b&gt;AAK53471.1&lt;/b&gt;&lt;br&gt;glycosyltransferase&lt;br&gt;Location: 13371 - 12400" locus_tag="AAK53471.1" class="clusterblast-orf" id="dummy-1_h1_2_21"  />
</g>
<g id="a1_0022"  >
<polygon points="525,85 530,80 548,80 548,90 530,90 525,85 " style="fill:white; stroke-width:1; stroke:black; " description="&lt;b&gt;AAK53470.1&lt;/b&gt;&lt;br&gt;nucleotide sugar aminotransferase&lt;br&gt;Location: 12415 - 11312" locus_tag="AAK53470.1" class="clusterblast-orf" id="dummy-1_h1_2_22"  />
</g>
<g id="a1_0023"  >
<polygon points="549,85 554,80 556,80 556,90 554,90 549,85 " style="fill:white; stroke-width:1; stroke:black; " description="&lt;b&gt;AAK53469.1&lt;/b&gt;&lt;br&gt;WxcH&lt;br&gt;Location: 11263 - 10916" locus_tag="AAK53469.1" class="clusterblast-orf" id="dummy-1_h1_2_23"  />
</g>
<g id="a1_0024"  >
<polygon points="557,85 562,80 577,80 577,90 562,90 557,85 " style="fill:white; stroke-width:1; stroke:black; " description="&lt;b&gt;AAK53468.1&lt;/b&gt;&lt;br&gt;putative electron-transferring flavoprotein alpha subunit&lt;br&gt;Location: 10856 - 9912" locus_tag="AAK53468.1" class="clusterblast-orf" id="dummy-1_h1_2_24"  />
</g>
<g id="a1_0025"  >
<polygon points="577,85 582,80 592,80 592,90 582,90 577,85 " style="fill:white; stroke-width:1; stroke:black; " description="&lt;b&gt;AAK53467.1&lt;/b&gt;&lt;br&gt;putative electron-transferring flavoprotein beta subunit&lt;br&gt;Location: 9912 - 9166" locus_tag="AAK53467.1" class="clusterblast-orf" id="dummy-1_h1_2_25"  />
</g>
<g id="a1_0026"  >
<polygon points="597,90 614,90 619,85 614,80 597,80 597,90 " style="fill:white; stroke-width:1; stroke:black; " description="&lt;b&gt;AAK53466.1&lt;/b&gt;&lt;br&gt;dTDP-glucose 4,6-dehydratase&lt;br&gt;Location: 8937 - 7882" locus_tag="AAK53466.1" class="clusterblast-orf" id="dummy-1_h1_2_26"  />
</g>
<g id="a1_0027"  >
<polygon points="620,90 634,90 639,85 634,80 620,80 620,90 " style="fill:white; stroke-width:1; stroke:black; " description="&lt;b&gt;AAA16191.1&lt;/b&gt;&lt;br&gt;glucose-1-phosphate thymidylyltransferase&lt;br&gt;Location: 7818 - 6931" locus_tag="AAA16191.1" class="clusterblast-orf" id="dummy-1_h1_2_27"  />
</g>
<g id="a1_0028"  >
<polygon points="639,90 645,90 650,85 645,80 639,80 639,90 " style="fill:white; stroke-width:1; stroke:black; " description="&lt;b&gt;AAK53465.1&lt;/b&gt;&lt;br&gt;dTDP-4-dehydrorhamnose 3,5-epimerase&lt;br&gt;Location: 6934 - 6377" locus_tag="AAK53465.1" class="clusterblast-orf" id="dummy-1_h1_2_28"  />
</g>
<g id="a1_0029"  >
<polygon points="650,90 664,90 669,85 664,80 650,80 650,90 " style="fill:white; stroke-width:1; stroke:black; " description="&lt;b&gt;AAK53464.1&lt;/b&gt;&lt;br&gt;dTDP-4-dehydrorhamnose reductase&lt;br&gt;Location: 6380 - 5472" locus_tag="AAK53464.1" class="clusterblast-orf" id="dummy-1_h1_2_29"  />
</g>
<g id="a1_0030"  >
<polygon points="671,85 676,80 700,80 700,90 676,90 671,85 " style="fill:white; stroke-width:1; stroke:black; " description="&lt;b&gt;AAK53463.1&lt;/b&gt;&lt;br&gt;phosphomannose isomerase / GDP-mannose pyrophosphorylase&lt;br&gt;Location: 5350 - 3947" locus_tag="AAK53463.1" class="clusterblast-orf" id="dummy-1_h1_2_30"  />
</g>
<g id="a1_0031"  >
<polygon points="701,85 706,80 729,80 729,90 706,90 701,85 " style="fill:white; stroke-width:1; stroke:black; " description="&lt;b&gt;AAA27610.1&lt;/b&gt;&lt;br&gt;phosphoglucomutase / phosphomannomutase&lt;br&gt;Location: 3901 - 2555" locus_tag="AAA27610.1" class="clusterblast-orf" id="dummy-1_h1_2_31"  />
</g>
<g id="a1_0032"  >
<polygon points="732,90 742,90 747,85 742,80 732,80 732,90 " style="fill:white; stroke-width:1; stroke:black; " description="&lt;b&gt;AAK53462.1&lt;/b&gt;&lt;br&gt;alpha subunit of putative 3-oxoacid CoA-transferase&lt;br&gt;Location: 2420 - 1692" locus_tag="AAK53462.1" class="clusterblast-orf" id="dummy-1_h1_2_32"  />
</g>
<g id="a1_0033"  >
<polygon points="747,90 755,90 760,85 755,80 747,80 747,90 " style="fill:white; stroke-width:1; stroke:black; " description="&lt;b&gt;AAK53493.1&lt;/b&gt;&lt;br&gt;beta-subunit of putative 3-oxoacid CoA-transferase&lt;br&gt;Location: 1692 - 1054" locus_tag="AAK53493.1" class="clusterblast-orf" id="dummy-1_h1_2_33"  />
</g>
<g id="a1_0034"  >
<polygon points="766,85 771,80 780,80 780,90 771,90 766,85 " style="fill:white; stroke-width:1; stroke:black; " description="&lt;b&gt;AAK53494.1&lt;/b&gt;&lt;br&gt;conserved protein involved in carbohydrate biosynthesis&lt;br&gt;Location: 772 - 134" locus_tag="AAK53494.1" class="clusterblast-orf" id="dummy-1_h1_2_34"  />
</g>
</svg>
