<svg xmlns="http://www.w3.org/2000/svg" xmlns:xlink="http://www.w3.org/1999/xlink" version="1.1" x="0" y="0" height="230" width="800" viewBox="0 0 800 230" preserveAspectRatio="none"  >
<g label="Query sequence" class="clusterblast-cluster"  >
<text x="5" y="20" class="clusterblast-acc"  >
Query sequence</text>
<line x1="10" y1="35" x2="778.0" y2="35" style="stroke-width:1; stroke:grey; "  />
<polygon points="167,40 172,40 177,35 172,30 167,30 167,40 " style="fill:white; stroke-width:1; stroke:black; " description="&lt;b&gt;ctg8_198&lt;/b&gt;&lt;br&gt;ctg8 198&lt;br&gt;Location: 219517 - 220057" locus_tag="ctg8_198" class="clusterblast-orf" id="dummy-2_q0_0_all"  />
<polygon points="177,35 182,30 197,30 197,40 182,40 177,35 " style="fill:white; stroke-width:1; stroke:black; " description="&lt;b&gt;ctg8_199&lt;/b&gt;&lt;br&gt;ctg8 199&lt;br&gt;Location: 220074 - 221226" locus_tag="ctg8_199" class="clusterblast-orf" id="dummy-2_q1_0_all"  />
<polygon points="206,35 211,30 212,30 212,40 211,40 206,35 " style="fill:white; stroke-width:1; stroke:black; " description="&lt;b&gt;ctg8_200&lt;/b&gt;&lt;br&gt;ctg8 200&lt;br&gt;Location: 221691 - 222042" locus_tag="ctg8_200" class="clusterblast-orf" id="dummy-2_q2_0_all"  />
<polygon points="214,40 220,40 225,35 220,30 214,30 214,40 " style="fill:white; stroke-width:1; stroke:black; " description="&lt;b&gt;ctg8_201&lt;/b&gt;&lt;br&gt;ctg8 201&lt;br&gt;Location: 222172 - 222808" locus_tag="ctg8_201" class="clusterblast-orf" id="dummy-2_q3_0_all"  />
<polygon points="225,35 230,30 259,30 259,40 230,40 225,35 " style="fill:#d81515; stroke-width:1; stroke:black; " description="&lt;b&gt;ctg8_202&lt;/b&gt;&lt;br&gt;ctg8 202&lt;br&gt;Location: 222804 - 224730" locus_tag="ctg8_202" class="clusterblast-orf" id="dummy-2_q4_0_all"  />
<polygon points="259,35 264,30 273,30 273,40 264,40 259,35 " style="fill:white; stroke-width:1; stroke:black; " description="&lt;b&gt;ctg8_203&lt;/b&gt;&lt;br&gt;ctg8 203&lt;br&gt;Location: 224726 - 225533" locus_tag="ctg8_203" class="clusterblast-orf" id="dummy-2_q5_0_all"  />
<polygon points="273,35 278,30 302,30 302,40 278,40 273,35 " style="fill:#15d815; stroke-width:1; stroke:black; " description="&lt;b&gt;ctg8_204&lt;/b&gt;&lt;br&gt;ctg8 204&lt;br&gt;Location: 225547 - 227155" locus_tag="ctg8_204" class="clusterblast-orf" id="dummy-2_q6_0_all"  />
<polygon points="302,35 307,30 322,30 322,40 307,40 302,35 " style="fill:white; stroke-width:1; stroke:black; " description="&lt;b&gt;ctg8_205&lt;/b&gt;&lt;br&gt;ctg8 205&lt;br&gt;Location: 227167 - 228331" locus_tag="ctg8_205" class="clusterblast-orf" id="dummy-2_q7_0_all"  />
<polygon points="325,40 349,40 354,35 349,30 325,30 325,40 " style="fill:#1515d8; stroke-width:1; stroke:black; " description="&lt;b&gt;ctg8_206&lt;/b&gt;&lt;br&gt;ctg8 206&lt;br&gt;Location: 228496 - 230125" locus_tag="ctg8_206" class="clusterblast-orf" id="dummy-2_q8_0_all"  />
<polygon points="355,40 444,40 449,35 444,30 355,30 355,40 " style="fill:white; stroke-width:1; stroke:black; " description="&lt;b&gt;ctg8_207&lt;/b&gt;&lt;br&gt;ctg8 207&lt;br&gt;Location: 230192 - 235529" locus_tag="ctg8_207" class="clusterblast-orf" id="dummy-2_q9_0_all"  />
<polygon points="458,35 463,30 474,30 474,40 463,40 458,35 " style="fill:white; stroke-width:1; stroke:black; " description="&lt;b&gt;ctg8_208&lt;/b&gt;&lt;br&gt;ctg8 208&lt;br&gt;Location: 236077 - 236977" locus_tag="ctg8_208" class="clusterblast-orf" id="dummy-2_q10_0_all"  />
<polygon points="474,35 479,30 481,30 481,40 479,40 474,35 " style="fill:white; stroke-width:1; stroke:black; " description="&lt;b&gt;ctg8_209&lt;/b&gt;&lt;br&gt;ctg8 209&lt;br&gt;Location: 236994 - 237387" locus_tag="ctg8_209" class="clusterblast-orf" id="dummy-2_q11_0_all"  />
<polygon points="483,35 488,30 499,30 499,40 488,40 483,35 " style="fill:white; stroke-width:1; stroke:black; " description="&lt;b&gt;ctg8_210&lt;/b&gt;&lt;br&gt;ctg8 210&lt;br&gt;Location: 237486 - 238422" locus_tag="ctg8_210" class="clusterblast-orf" id="dummy-2_q12_0_all"  />
<polygon points="502,40 519,40 524,35 519,30 502,30 502,40 " style="fill:white; stroke-width:1; stroke:black; " description="&lt;b&gt;ctg8_211&lt;/b&gt;&lt;br&gt;ctg8 211&lt;br&gt;Location: 238588 - 239818" locus_tag="ctg8_211" class="clusterblast-orf" id="dummy-2_q13_0_all"  />
<polygon points="526,35 531,30 550,30 550,40 531,40 526,35 " style="fill:white; stroke-width:1; stroke:black; " description="&lt;b&gt;ctg8_212&lt;/b&gt;&lt;br&gt;ctg8 212&lt;br&gt;Location: 239947 - 241276" locus_tag="ctg8_212" class="clusterblast-orf" id="dummy-2_q14_0_all"  />
<polygon points="552,35 557,30 566,30 566,40 557,40 552,35 " style="fill:white; stroke-width:1; stroke:black; " description="&lt;b&gt;ctg8_213&lt;/b&gt;&lt;br&gt;ctg8 213&lt;br&gt;Location: 241403 - 242216" locus_tag="ctg8_213" class="clusterblast-orf" id="dummy-2_q15_0_all"  />
<polygon points="569,40 575,40 580,35 575,30 569,30 569,40 " style="fill:white; stroke-width:1; stroke:black; " description="&lt;b&gt;ctg8_214&lt;/b&gt;&lt;br&gt;ctg8 214&lt;br&gt;Location: 242384 - 243035" locus_tag="ctg8_214" class="clusterblast-orf" id="dummy-2_q16_0_all"  />
<polygon points="582,40 607,40 612,35 607,30 582,30 582,40 " style="fill:white; stroke-width:1; stroke:black; " description="&lt;b&gt;ctg8_215&lt;/b&gt;&lt;br&gt;ctg8 215&lt;br&gt;Location: 243099 - 244827" locus_tag="ctg8_215" class="clusterblast-orf" id="dummy-2_q17_0_all"  />
</g>
<g label="BGC0001103" description="BGC0001103_c1: mycosubtilin (20% of genes show similarity), NRP+Polyketide" class="clusterblast-cluster"  >
<text x="5" y="70" class="clusterblast-acc"  >
<a xlink:href="https://mibig.secondarymetabolites.org/go/BGC0001103/1" target="_blank">BGC0001103</a>: mycosubtilin                                                                     (20% of genes show similarity), NRP+Polyketide</text>
<line x1="10" y1="85" x2="778.0" y2="85" style="stroke-width:1; stroke:grey; "  />
</g>
<g id="a2_000"  >
<polygon points="0,90 16,90 21,85 16,80 0,80 0,90 " style="fill:white; stroke-width:1; stroke:black; " description="&lt;b&gt;AAF08794.1&lt;/b&gt;&lt;br&gt;FenF&lt;br&gt;Location: 1938 - 3140" locus_tag="AAF08794.1" class="clusterblast-orf" id="dummy-2_h2_2_0"  />
</g>
<g id="a2_001"  >
<polygon points="21,90 225,90 230,85 225,80 21,80 21,90 " style="fill:white; stroke-width:1; stroke:black; " description="&lt;b&gt;AAF08795.1&lt;/b&gt;&lt;br&gt;MycA&lt;br&gt;Location: 3161 - 15076" locus_tag="AAF08795.1" class="clusterblast-orf" id="dummy-2_h2_2_1"  />
</g>
<g id="a2_002"  >
<polygon points="231,90 509,90 514,85 509,80 231,80 231,90 " style="fill:white; stroke-width:1; stroke:black; " description="&lt;b&gt;AAF08796.1&lt;/b&gt;&lt;br&gt;MycB&lt;br&gt;Location: 15133 - 31242" locus_tag="AAF08796.1" class="clusterblast-orf" id="dummy-2_h2_2_2"  />
</g>
<g id="a2_003"  >
<polygon points="516,90 649,90 654,85 649,80 516,80 516,90 " style="fill:white; stroke-width:1; stroke:black; " description="&lt;b&gt;AAF08797.1&lt;/b&gt;&lt;br&gt;MycC&lt;br&gt;Location: 31340 - 39169" locus_tag="AAF08797.1" class="clusterblast-orf" id="dummy-2_h2_2_3"  />
</g>
<g id="a2_004"  >
<polygon points="657,90 658,90 663,85 658,80 657,80 657,90 " style="fill:white; stroke-width:1; stroke:black; " description="&lt;b&gt;AAF08798.1&lt;/b&gt;&lt;br&gt;YngL&lt;br&gt;Location: 39339 - 39731" locus_tag="AAF08798.1" class="clusterblast-orf" id="dummy-2_h2_2_4"  />
</g>
<g id="a2_005"  >
<polygon points="666,90 688,90 693,85 688,80 666,80 666,90 " style="fill:white; stroke-width:1; stroke:black; " description="&lt;b&gt;AAF08799.1&lt;/b&gt;&lt;br&gt;YngK&lt;br&gt;Location: 39886 - 41418" locus_tag="AAF08799.1" class="clusterblast-orf" id="dummy-2_h2_2_5"  />
</g>
<g id="a2_006"  >
<polygon points="702,90 717,90 722,85 717,80 702,80 702,90 " style="fill:white; stroke-width:1; stroke:black; " description="&lt;b&gt;AAF08800.1&lt;/b&gt;&lt;br&gt;YngJ&lt;br&gt;Location: 41925 - 43067" locus_tag="AAF08800.1" class="clusterblast-orf" id="dummy-2_h2_2_6"  />
</g>
<g id="a2_007"  >
<polygon points="723,90 747,90 752,85 747,80 723,80 723,90 " style="fill:#1515d8; stroke-width:1; stroke:black; " description="&lt;b&gt;AAF08801.1&lt;/b&gt;&lt;br&gt;YngI&lt;br&gt;Location: 43110 - 44759&lt;br&gt;&lt;br&gt;&lt;b&gt;BlastP hit with ctg8_206&lt;/b&gt;&lt;br&gt;Percentage identity: 47&lt;br&gt;Percentage coverage: 99&lt;br&gt;BLAST bit score: 506&lt;br&gt;E-value: 3.09e-175" locus_tag="AAF08801.1" class="clusterblast-orf" id="dummy-2_h2_2_7"  />
</g>
<g id="a2_008"  >
<polygon points="752,90 770,90 775,85 770,80 752,80 752,90 " style="fill:#d81515; stroke-width:1; stroke:black; " description="&lt;b&gt;AAF08802.1&lt;/b&gt;&lt;br&gt;YngH&lt;br&gt;Location: 44769 - 46103&lt;br&gt;&lt;br&gt;&lt;b&gt;BlastP hit with ctg8_202&lt;/b&gt;&lt;br&gt;Percentage identity: 47&lt;br&gt;Percentage coverage: 69&lt;br&gt;BLAST bit score: 393&lt;br&gt;E-value: 5.15e-131" locus_tag="AAF08802.1" class="clusterblast-orf" id="dummy-2_h2_2_8"  />
</g>
<g id="a2_009"  >
<polygon points="776,90 779,85 776,80 776,90 " style="fill:white; stroke-width:1; stroke:black; " description="&lt;b&gt;AAF08803.1&lt;/b&gt;&lt;br&gt;YngXX&lt;br&gt;Location: 46118 - 46339" locus_tag="AAF08803.1" class="clusterblast-orf" id="dummy-2_h2_2_9"  />
</g>
</svg>
