<svg xmlns="http://www.w3.org/2000/svg" xmlns:xlink="http://www.w3.org/1999/xlink" version="1.1" x="0" y="0" height="50" width="800" viewBox="0 0 800 50" preserveAspectRatio="none"  >
<g label="Query sequence" class="clusterblast-cluster"  >
<text x="5" y="20" class="clusterblast-acc"  >
Query sequence</text>
<line x1="10" y1="35" x2="778.0" y2="35" style="stroke-width:1; stroke:grey; "  />
<polygon points="0,35 5,30 44,30 44,40 5,40 0,35 " style="fill:white; stroke-width:1; stroke:black; " description="&lt;b&gt;ctg2_482&lt;/b&gt;&lt;br&gt;ctg2 482&lt;br&gt;Location: 512814 - 513336" locus_tag="ctg2_482" class="clusterblast-orf" id="knownclusterblast-1_q0_0_all"  />
<polygon points="55,40 170,40 175,35 170,30 55,30 55,40 " style="fill:white; stroke-width:1; stroke:black; " description="&lt;b&gt;ctg2_483&lt;/b&gt;&lt;br&gt;ctg2 483&lt;br&gt;Location: 513466 - 514906" locus_tag="ctg2_483" class="clusterblast-orf" id="knownclusterblast-1_q1_0_all"  />
<polygon points="186,35 191,30 284,30 284,40 191,40 186,35 " style="fill:white; stroke-width:1; stroke:black; " description="&lt;b&gt;ctg2_484&lt;/b&gt;&lt;br&gt;ctg2 484&lt;br&gt;Location: 515039 - 516224" locus_tag="ctg2_484" class="clusterblast-orf" id="knownclusterblast-1_q2_0_all"  />
<polygon points="292,35 297,30 357,30 357,40 297,40 292,35 " style="fill:white; stroke-width:1; stroke:black; " description="&lt;b&gt;ctg2_485&lt;/b&gt;&lt;br&gt;ctg2 485&lt;br&gt;Location: 516311 - 517100" locus_tag="ctg2_485" class="clusterblast-orf" id="knownclusterblast-1_q3_0_all"  />
<polygon points="357,35 362,30 427,30 427,40 362,40 357,35 " style="fill:white; stroke-width:1; stroke:black; " description="&lt;b&gt;ctg2_486&lt;/b&gt;&lt;br&gt;ctg2 486&lt;br&gt;Location: 517090 - 517936" locus_tag="ctg2_486" class="clusterblast-orf" id="knownclusterblast-1_q4_0_all"  />
<polygon points="433,35 438,30 454,30 454,40 438,40 433,35 " style="fill:white; stroke-width:1; stroke:black; " description="&lt;b&gt;ctg2_487&lt;/b&gt;&lt;br&gt;ctg2 487&lt;br&gt;Location: 518003 - 518255" locus_tag="ctg2_487" class="clusterblast-orf" id="knownclusterblast-1_q5_0_all"  />
<polygon points="463,35 468,30 621,30 621,40 468,40 463,35 " style="fill:white; stroke-width:1; stroke:black; " description="&lt;b&gt;ctg2_488&lt;/b&gt;&lt;br&gt;ctg2 488&lt;br&gt;Location: 518372 - 520259" locus_tag="ctg2_488" class="clusterblast-orf" id="knownclusterblast-1_q6_0_all"  />
<polygon points="620,35 625,30 706,30 706,40 625,40 620,35 " style="fill:white; stroke-width:1; stroke:black; " description="&lt;b&gt;ctg2_489&lt;/b&gt;&lt;br&gt;ctg2 489&lt;br&gt;Location: 520255 - 521290" locus_tag="ctg2_489" class="clusterblast-orf" id="knownclusterblast-1_q7_0_all"  />
<polygon points="706,35 711,30 780,30 780,40 711,40 706,35 " style="fill:white; stroke-width:1; stroke:black; " description="&lt;b&gt;ctg2_490&lt;/b&gt;&lt;br&gt;ctg2 490&lt;br&gt;Location: 521286 - 522177" locus_tag="ctg2_490" class="clusterblast-orf" id="knownclusterblast-1_q8_0_all"  />
</g>
</svg>
