<svg xmlns="http://www.w3.org/2000/svg" xmlns:xlink="http://www.w3.org/1999/xlink" version="1.1" x="0" y="0" height="230" width="800" viewBox="0 0 800 230" preserveAspectRatio="none"  >
<g label="Query sequence" class="clusterblast-cluster"  >
<text x="5" y="20" class="clusterblast-acc"  >
Query sequence</text>
<line x1="10" y1="35" x2="778.0" y2="35" style="stroke-width:1; stroke:grey; "  />
<polygon points="0,40 21,40 26,35 21,30 0,30 0,40 " style="fill:white; stroke-width:1; stroke:black; " description="&lt;b&gt;ctg8_59&lt;/b&gt;&lt;br&gt;ctg8 59&lt;br&gt;Location: 64222 - 65722" locus_tag="ctg8_59" class="clusterblast-orf" id="dummy-1_q0_0_all"  />
<polygon points="26,40 31,40 36,35 31,30 26,30 26,40 " style="fill:white; stroke-width:1; stroke:black; " description="&lt;b&gt;ctg8_60&lt;/b&gt;&lt;br&gt;ctg8 60&lt;br&gt;Location: 65693 - 66281" locus_tag="ctg8_60" class="clusterblast-orf" id="dummy-1_q1_0_all"  />
<polygon points="38,40 50,40 55,35 50,30 38,30 38,40 " style="fill:white; stroke-width:1; stroke:black; " description="&lt;b&gt;ctg8_61&lt;/b&gt;&lt;br&gt;ctg8 61&lt;br&gt;Location: 66392 - 67334" locus_tag="ctg8_61" class="clusterblast-orf" id="dummy-1_q2_0_all"  />
<polygon points="56,35 61,30 69,30 69,40 61,40 56,35 " style="fill:#d81515; stroke-width:1; stroke:black; " description="&lt;b&gt;ctg8_62&lt;/b&gt;&lt;br&gt;ctg8 62&lt;br&gt;Location: 67395 - 68151" locus_tag="ctg8_62" class="clusterblast-orf" id="dummy-1_q3_0_all"  />
<polygon points="69,35 74,30 83,30 83,40 74,40 69,35 " style="fill:#4dd815; stroke-width:1; stroke:black; " description="&lt;b&gt;ctg8_63&lt;/b&gt;&lt;br&gt;ctg8 63&lt;br&gt;Location: 68140 - 68944" locus_tag="ctg8_63" class="clusterblast-orf" id="dummy-1_q4_0_all"  />
<polygon points="83,35 88,30 98,30 98,40 88,40 83,35 " style="fill:#1585d8; stroke-width:1; stroke:black; " description="&lt;b&gt;ctg8_64&lt;/b&gt;&lt;br&gt;ctg8 64&lt;br&gt;Location: 68936 - 69758" locus_tag="ctg8_64" class="clusterblast-orf" id="dummy-1_q5_0_all"  />
<polygon points="98,35 103,30 105,30 105,40 103,40 98,35 " style="fill:white; stroke-width:1; stroke:black; " description="&lt;b&gt;ctg8_65&lt;/b&gt;&lt;br&gt;ctg8 65&lt;br&gt;Location: 69770 - 70136" locus_tag="ctg8_65" class="clusterblast-orf" id="dummy-1_q6_0_all"  />
<polygon points="105,35 110,30 128,30 128,40 110,40 105,35 " style="fill:white; stroke-width:1; stroke:black; " description="&lt;b&gt;ctg8_66&lt;/b&gt;&lt;br&gt;ctg8 66&lt;br&gt;Location: 70165 - 71464" locus_tag="ctg8_66" class="clusterblast-orf" id="dummy-1_q7_0_all"  />
<polygon points="132,40 134,40 139,35 134,30 132,30 132,40 " style="fill:white; stroke-width:1; stroke:black; " description="&lt;b&gt;ctg8_67&lt;/b&gt;&lt;br&gt;ctg8 67&lt;br&gt;Location: 71672 - 72095" locus_tag="ctg8_67" class="clusterblast-orf" id="dummy-1_q8_0_all"  />
<polygon points="142,35 147,30 156,30 156,40 147,40 142,35 " style="fill:white; stroke-width:1; stroke:black; " description="&lt;b&gt;ctg8_68&lt;/b&gt;&lt;br&gt;ctg8 68&lt;br&gt;Location: 72220 - 73021" locus_tag="ctg8_68" class="clusterblast-orf" id="dummy-1_q9_0_all"  />
<polygon points="156,35 161,30 170,30 170,40 161,40 156,35 " style="fill:white; stroke-width:1; stroke:black; " description="&lt;b&gt;ctg8_69&lt;/b&gt;&lt;br&gt;ctg8 69&lt;br&gt;Location: 73036 - 73840" locus_tag="ctg8_69" class="clusterblast-orf" id="dummy-1_q10_0_all"  />
<polygon points="171,35 176,30 194,30 194,40 176,40 171,35 " style="fill:#d815bc; stroke-width:1; stroke:black; " description="&lt;b&gt;ctg8_70&lt;/b&gt;&lt;br&gt;ctg8 70&lt;br&gt;Location: 73851 - 75156" locus_tag="ctg8_70" class="clusterblast-orf" id="dummy-1_q11_0_all"  />
<polygon points="194,35 199,30 201,30 201,40 199,40 194,35 " style="fill:white; stroke-width:1; stroke:black; " description="&lt;b&gt;ctg8_71&lt;/b&gt;&lt;br&gt;ctg8 71&lt;br&gt;Location: 75201 - 75594" locus_tag="ctg8_71" class="clusterblast-orf" id="dummy-1_q12_0_all"  />
<polygon points="202,35 207,30 217,30 217,40 207,40 202,35 " style="fill:white; stroke-width:1; stroke:black; " description="&lt;b&gt;ctg8_72&lt;/b&gt;&lt;br&gt;ctg8 72&lt;br&gt;Location: 75609 - 76467" locus_tag="ctg8_72" class="clusterblast-orf" id="dummy-1_q13_0_all"  />
<polygon points="218,35 223,30 244,30 244,40 223,40 218,35 " style="fill:white; stroke-width:1; stroke:black; " description="&lt;b&gt;ctg8_73&lt;/b&gt;&lt;br&gt;ctg8 73&lt;br&gt;Location: 76513 - 77974" locus_tag="ctg8_73" class="clusterblast-orf" id="dummy-1_q14_0_all"  />
<polygon points="244,35 249,30 257,30 257,40 249,40 244,35 " style="fill:white; stroke-width:1; stroke:black; " description="&lt;b&gt;ctg8_74&lt;/b&gt;&lt;br&gt;ctg8 74&lt;br&gt;Location: 77979 - 78750" locus_tag="ctg8_74" class="clusterblast-orf" id="dummy-1_q15_0_all"  />
<polygon points="257,35 262,30 269,30 269,40 262,40 257,35 " style="fill:white; stroke-width:1; stroke:black; " description="&lt;b&gt;ctg8_75&lt;/b&gt;&lt;br&gt;ctg8 75&lt;br&gt;Location: 78746 - 79412" locus_tag="ctg8_75" class="clusterblast-orf" id="dummy-1_q16_0_all"  />
<polygon points="271,40 282,40 287,35 282,30 271,30 271,40 " style="fill:white; stroke-width:1; stroke:black; " description="&lt;b&gt;ctg8_76&lt;/b&gt;&lt;br&gt;ctg8 76&lt;br&gt;Location: 79540 - 80401" locus_tag="ctg8_76" class="clusterblast-orf" id="dummy-1_q17_0_all"  />
<polygon points="285,35 290,30 311,30 311,40 290,40 285,35 " style="fill:#d8bc15; stroke-width:1; stroke:black; " description="&lt;b&gt;ctg8_77&lt;/b&gt;&lt;br&gt;ctg8 77&lt;br&gt;Location: 80327 - 81797" locus_tag="ctg8_77" class="clusterblast-orf" id="dummy-1_q18_0_all"  />
<polygon points="311,35 316,30 326,30 326,40 316,40 311,35 " style="fill:#15d885; stroke-width:1; stroke:black; " description="&lt;b&gt;ctg8_78&lt;/b&gt;&lt;br&gt;ctg8 78&lt;br&gt;Location: 81796 - 82591" locus_tag="ctg8_78" class="clusterblast-orf" id="dummy-1_q19_0_all"  />
<polygon points="334,40 440,40 445,35 440,30 334,30 334,40 " style="fill:#4d15d8; stroke-width:1; stroke:black; " description="&lt;b&gt;ctg8_79&lt;/b&gt;&lt;br&gt;ctg8 79&lt;br&gt;Location: 83078 - 89348" locus_tag="ctg8_79" class="clusterblast-orf" id="dummy-1_q20_0_all"  />
<polygon points="469,40 479,40 484,35 479,30 469,30 469,40 " style="fill:white; stroke-width:1; stroke:black; " description="&lt;b&gt;ctg8_80&lt;/b&gt;&lt;br&gt;ctg8 80&lt;br&gt;Location: 90667 - 91525" locus_tag="ctg8_80" class="clusterblast-orf" id="dummy-1_q21_0_all"  />
<polygon points="484,40 493,40 498,35 493,30 484,30 484,40 " style="fill:white; stroke-width:1; stroke:black; " description="&lt;b&gt;ctg8_81&lt;/b&gt;&lt;br&gt;ctg8 81&lt;br&gt;Location: 91521 - 92328" locus_tag="ctg8_81" class="clusterblast-orf" id="dummy-1_q22_0_all"  />
<polygon points="498,40 514,40 519,35 514,30 498,30 498,40 " style="fill:white; stroke-width:1; stroke:black; " description="&lt;b&gt;ctg8_82&lt;/b&gt;&lt;br&gt;ctg8 82&lt;br&gt;Location: 92314 - 93508" locus_tag="ctg8_82" class="clusterblast-orf" id="dummy-1_q23_0_all"  />
<polygon points="519,40 528,40 533,35 528,30 519,30 519,40 " style="fill:white; stroke-width:1; stroke:black; " description="&lt;b&gt;ctg8_83&lt;/b&gt;&lt;br&gt;ctg8 83&lt;br&gt;Location: 93516 - 94269" locus_tag="ctg8_83" class="clusterblast-orf" id="dummy-1_q24_0_all"  />
<polygon points="533,40 540,40 545,35 540,30 533,30 533,40 " style="fill:white; stroke-width:1; stroke:black; " description="&lt;b&gt;ctg8_84&lt;/b&gt;&lt;br&gt;ctg8 84&lt;br&gt;Location: 94268 - 94982" locus_tag="ctg8_84" class="clusterblast-orf" id="dummy-1_q25_0_all"  />
<polygon points="546,35 551,30 573,30 573,40 551,40 546,35 " style="fill:white; stroke-width:1; stroke:black; " description="&lt;b&gt;ctg8_85&lt;/b&gt;&lt;br&gt;ctg8 85&lt;br&gt;Location: 95003 - 96521" locus_tag="ctg8_85" class="clusterblast-orf" id="dummy-1_q26_0_all"  />
<polygon points="573,35 578,30 603,30 603,40 578,40 573,35 " style="fill:white; stroke-width:1; stroke:black; " description="&lt;b&gt;ctg8_86&lt;/b&gt;&lt;br&gt;ctg8 86&lt;br&gt;Location: 96547 - 98203" locus_tag="ctg8_86" class="clusterblast-orf" id="dummy-1_q27_0_all"  />
<polygon points="602,35 604,30 604,40 602,35 " style="fill:white; stroke-width:1; stroke:black; " description="&lt;b&gt;ctg8_87&lt;/b&gt;&lt;br&gt;ctg8 87&lt;br&gt;Location: 98199 - 98301" locus_tag="ctg8_87" class="clusterblast-orf" id="dummy-1_q28_0_all"  />
<polygon points="606,35 611,30 618,30 618,40 611,40 606,35 " style="fill:white; stroke-width:1; stroke:black; " description="&lt;b&gt;ctg8_88&lt;/b&gt;&lt;br&gt;ctg8 88&lt;br&gt;Location: 98392 - 99067" locus_tag="ctg8_88" class="clusterblast-orf" id="dummy-1_q29_0_all"  />
<polygon points="623,40 630,40 635,35 630,30 623,30 623,40 " style="fill:white; stroke-width:1; stroke:black; " description="&lt;b&gt;ctg8_89&lt;/b&gt;&lt;br&gt;ctg8 89&lt;br&gt;Location: 99341 - 100010" locus_tag="ctg8_89" class="clusterblast-orf" id="dummy-1_q30_0_all"  />
<polygon points="635,40 673,40 678,35 673,30 635,30 635,40 " style="fill:white; stroke-width:1; stroke:black; " description="&lt;b&gt;ctg8_90&lt;/b&gt;&lt;br&gt;ctg8 90&lt;br&gt;Location: 100011 - 102474" locus_tag="ctg8_90" class="clusterblast-orf" id="dummy-1_q31_0_all"  />
<polygon points="678,40 692,40 697,35 692,30 678,30 678,40 " style="fill:white; stroke-width:1; stroke:black; " description="&lt;b&gt;ctg8_91&lt;/b&gt;&lt;br&gt;ctg8 91&lt;br&gt;Location: 102463 - 103528" locus_tag="ctg8_91" class="clusterblast-orf" id="dummy-1_q32_0_all"  />
<polygon points="700,40 720,40 725,35 720,30 700,30 700,40 " style="fill:white; stroke-width:1; stroke:black; " description="&lt;b&gt;ctg8_92&lt;/b&gt;&lt;br&gt;ctg8 92&lt;br&gt;Location: 103678 - 105121" locus_tag="ctg8_92" class="clusterblast-orf" id="dummy-1_q33_0_all"  />
<polygon points="726,35 731,30 746,30 746,40 731,40 726,35 " style="fill:white; stroke-width:1; stroke:black; " description="&lt;b&gt;ctg8_93&lt;/b&gt;&lt;br&gt;ctg8 93&lt;br&gt;Location: 105171 - 106272" locus_tag="ctg8_93" class="clusterblast-orf" id="dummy-1_q34_0_all"  />
<polygon points="746,35 751,30 758,30 758,40 751,40 746,35 " style="fill:white; stroke-width:1; stroke:black; " description="&lt;b&gt;ctg8_94&lt;/b&gt;&lt;br&gt;ctg8 94&lt;br&gt;Location: 106274 - 106946" locus_tag="ctg8_94" class="clusterblast-orf" id="dummy-1_q35_0_all"  />
<polygon points="763,40 775,40 780,35 775,30 763,30 763,40 " style="fill:white; stroke-width:1; stroke:black; " description="&lt;b&gt;ctg8_95&lt;/b&gt;&lt;br&gt;ctg8 95&lt;br&gt;Location: 107263 - 108187" locus_tag="ctg8_95" class="clusterblast-orf" id="dummy-1_q36_0_all"  />
</g>
<g label="BGC0002522" description="BGC0002522_c1: viscosinamide A/pseudodesmin A (50% of genes show similarity), NRP" class="clusterblast-cluster"  >
<text x="5" y="70" class="clusterblast-acc"  >
<a xlink:href="https://mibig.secondarymetabolites.org/go/BGC0002522/1" target="_blank">BGC0002522</a>: viscosinamide A/pseudodesmin A                                                   (50% of genes show similarity), NRP</text>
<line x1="10" y1="85" x2="778.0" y2="85" style="stroke-width:1; stroke:grey; "  />
</g>
<g id="a1_000"  >
<polygon points="47,85 52,80 73,80 73,90 52,90 47,85 " style="fill:#d8bc15; stroke-width:1; stroke:black; " description="&lt;b&gt;QLY89260.1&lt;/b&gt;&lt;br&gt;outer membrane protein&lt;br&gt;Location: 1 - 1440&lt;br&gt;&lt;br&gt;&lt;b&gt;BlastP hit with ctg8_77&lt;/b&gt;&lt;br&gt;Percentage identity: 75&lt;br&gt;Percentage coverage: 98&lt;br&gt;BLAST bit score: 679&lt;br&gt;E-value: 2.81e-245" locus_tag="QLY89260.1" class="clusterblast-orf" id="dummy-1_h1_2_0"  />
</g>
<g id="a1_001"  >
<polygon points="74,85 79,80 88,80 88,90 79,90 74,85 " style="fill:#15d885; stroke-width:1; stroke:black; " description="&lt;b&gt;QLY89261.1&lt;/b&gt;&lt;br&gt;LuxR transcriptional regulator&lt;br&gt;Location: 1520 - 2326&lt;br&gt;&lt;br&gt;&lt;b&gt;BlastP hit with ctg8_78&lt;/b&gt;&lt;br&gt;Percentage identity: 64&lt;br&gt;Percentage coverage: 102&lt;br&gt;BLAST bit score: 315&lt;br&gt;E-value: 1.29e-108" locus_tag="QLY89261.1" class="clusterblast-orf" id="dummy-1_h1_2_1"  />
</g>
<g id="a1_002"  >
<polygon points="101,90 210,90 215,85 210,80 101,80 101,90 " style="fill:#4d15d8; stroke-width:1; stroke:black; " description="&lt;b&gt;QLY89262.1&lt;/b&gt;&lt;br&gt;pseudodesmin synthetase&lt;br&gt;Location: 3052 - 9480&lt;br&gt;&lt;br&gt;&lt;b&gt;BlastP hit with ctg8_79&lt;/b&gt;&lt;br&gt;Percentage identity: 69&lt;br&gt;Percentage coverage: 102&lt;br&gt;BLAST bit score: 2855&lt;br&gt;E-value: 0.0" locus_tag="QLY89262.1" class="clusterblast-orf" id="dummy-1_h1_2_2"  />
</g>
<g id="a1_003"  >
<polygon points="220,90 449,90 454,85 449,80 220,80 220,90 " style="fill:#4d15d8; stroke-width:1; stroke:black; " description="&lt;b&gt;QLY89263.1&lt;/b&gt;&lt;br&gt;pseudodesmin synthetase&lt;br&gt;Location: 9772 - 22920&lt;br&gt;&lt;br&gt;&lt;b&gt;BlastP hit with ctg8_79&lt;/b&gt;&lt;br&gt;Percentage identity: 51&lt;br&gt;Percentage coverage: 102&lt;br&gt;BLAST bit score: 1889&lt;br&gt;E-value: 0.0" locus_tag="QLY89263.1" class="clusterblast-orf" id="dummy-1_h1_2_3"  />
</g>
<g id="a1_004"  >
<polygon points="454,90 653,90 658,85 653,80 454,80 454,90 " style="fill:white; stroke-width:1; stroke:black; " description="&lt;b&gt;QLY89264.1&lt;/b&gt;&lt;br&gt;pseudodesmin synthetase&lt;br&gt;Location: 22917 - 34463" locus_tag="QLY89264.1" class="clusterblast-orf" id="dummy-1_h1_2_4"  />
</g>
<g id="a1_005"  >
<polygon points="662,90 677,90 682,85 677,80 662,80 662,90 " style="fill:white; stroke-width:1; stroke:black; " description="&lt;b&gt;QLY89265.1&lt;/b&gt;&lt;br&gt;membrane fusion protein&lt;br&gt;Location: 34646 - 35794" locus_tag="QLY89265.1" class="clusterblast-orf" id="dummy-1_h1_2_5"  />
</g>
<g id="a1_006"  >
<polygon points="682,90 712,90 717,85 712,80 682,80 682,90 " style="fill:white; stroke-width:1; stroke:black; " description="&lt;b&gt;QLY89266.1&lt;/b&gt;&lt;br&gt;integral membrane protein&lt;br&gt;Location: 35797 - 37767" locus_tag="QLY89266.1" class="clusterblast-orf" id="dummy-1_h1_2_6"  />
</g>
<g id="a1_007"  >
<polygon points="719,85 724,80 732,80 732,90 724,90 719,85 " style="fill:white; stroke-width:1; stroke:black; " description="&lt;b&gt;QLY89267.1&lt;/b&gt;&lt;br&gt;LuxR transcriptional regulator&lt;br&gt;Location: 37869 - 38612" locus_tag="QLY89267.1" class="clusterblast-orf" id="dummy-1_h1_2_7"  />
</g>
</svg>
