<svg xmlns="http://www.w3.org/2000/svg" xmlns:xlink="http://www.w3.org/1999/xlink" version="1.1" x="0" y="0" height="230" width="800" viewBox="0 0 800 230" preserveAspectRatio="none"  >
<g label="Query sequence" class="clusterblast-cluster"  >
<text x="5" y="20" class="clusterblast-acc"  >
Query sequence</text>
<line x1="10" y1="35" x2="778.0" y2="35" style="stroke-width:1; stroke:grey; "  />
<polygon points="0,40 0,40 5,35 0,30 0,30 0,40 " style="fill:#d81515; stroke-width:1; stroke:black; " description="&lt;b&gt;ctg1_285&lt;/b&gt;&lt;br&gt;ctg1 285&lt;br&gt;Location: 317874 - 318225" locus_tag="ctg1_285" class="clusterblast-orf" id="dummy-2_q0_0_all"  />
<polygon points="5,40 5,40 10,35 5,30 5,30 5,40 " style="fill:#77d815; stroke-width:1; stroke:black; " description="&lt;b&gt;ctg1_286&lt;/b&gt;&lt;br&gt;ctg1 286&lt;br&gt;Location: 318248 - 318575" locus_tag="ctg1_286" class="clusterblast-orf" id="dummy-2_q1_0_all"  />
<polygon points="11,40 14,40 19,35 14,30 11,30 11,40 " style="fill:#15d8d8; stroke-width:1; stroke:black; " description="&lt;b&gt;ctg1_287&lt;/b&gt;&lt;br&gt;ctg1 287&lt;br&gt;Location: 318606 - 319152" locus_tag="ctg1_287" class="clusterblast-orf" id="dummy-2_q2_0_all"  />
<polygon points="20,40 29,40 34,35 29,30 20,30 20,40 " style="fill:#7715d8; stroke-width:1; stroke:black; " description="&lt;b&gt;ctg1_288&lt;/b&gt;&lt;br&gt;ctg1 288&lt;br&gt;Location: 319242 - 320163" locus_tag="ctg1_288" class="clusterblast-orf" id="dummy-2_q3_0_all"  />
<polygon points="33,35 38,30 43,30 43,40 38,40 33,35 " style="fill:#d83215; stroke-width:1; stroke:black; " description="&lt;b&gt;ctg1_289&lt;/b&gt;&lt;br&gt;ctg1 289&lt;br&gt;Location: 320121 - 320781" locus_tag="ctg1_289" class="clusterblast-orf" id="dummy-2_q4_0_all"  />
<polygon points="43,35 48,30 57,30 57,40 48,40 43,35 " style="fill:#59d815; stroke-width:1; stroke:black; " description="&lt;b&gt;ctg1_290&lt;/b&gt;&lt;br&gt;ctg1 290&lt;br&gt;Location: 320777 - 321671" locus_tag="ctg1_290" class="clusterblast-orf" id="dummy-2_q5_0_all"  />
<polygon points="62,35 67,30 69,30 69,40 67,40 62,35 " style="fill:#15bbd8; stroke-width:1; stroke:black; " description="&lt;b&gt;ctg1_291&lt;/b&gt;&lt;br&gt;ctg1 291&lt;br&gt;Location: 322054 - 322504" locus_tag="ctg1_291" class="clusterblast-orf" id="dummy-2_q6_0_all"  />
<polygon points="77,40 86,40 91,35 86,30 77,30 77,40 " style="fill:#9415d8; stroke-width:1; stroke:black; " description="&lt;b&gt;ctg1_292&lt;/b&gt;&lt;br&gt;ctg1 292&lt;br&gt;Location: 323037 - 323973" locus_tag="ctg1_292" class="clusterblast-orf" id="dummy-2_q7_0_all"  />
<polygon points="92,40 99,40 104,35 99,30 92,30 92,40 " style="fill:#d85015; stroke-width:1; stroke:black; " description="&lt;b&gt;ctg1_293&lt;/b&gt;&lt;br&gt;ctg1 293&lt;br&gt;Location: 324011 - 324818" locus_tag="ctg1_293" class="clusterblast-orf" id="dummy-2_q8_0_all"  />
<polygon points="105,35 109,30 109,40 105,35 " style="fill:#3cd815; stroke-width:1; stroke:black; " description="&lt;b&gt;ctg1_294&lt;/b&gt;&lt;br&gt;ctg1 294&lt;br&gt;Location: 324882 - 325167" locus_tag="ctg1_294" class="clusterblast-orf" id="dummy-2_q9_0_all"  />
<polygon points="110,35 115,30 118,30 118,40 115,40 110,35 " style="fill:#159ed8; stroke-width:1; stroke:black; " description="&lt;b&gt;ctg1_295&lt;/b&gt;&lt;br&gt;ctg1 295&lt;br&gt;Location: 325232 - 325775" locus_tag="ctg1_295" class="clusterblast-orf" id="dummy-2_q10_0_all"  />
<polygon points="119,35 124,30 148,30 148,40 124,40 119,35 " style="fill:#b115d8; stroke-width:1; stroke:black; " description="&lt;b&gt;ctg1_296&lt;/b&gt;&lt;br&gt;ctg1 296&lt;br&gt;Location: 325866 - 327789" locus_tag="ctg1_296" class="clusterblast-orf" id="dummy-2_q11_0_all"  />
<polygon points="150,35 155,30 161,30 161,40 155,40 150,35 " style="fill:#d86d15; stroke-width:1; stroke:black; " description="&lt;b&gt;ctg1_297&lt;/b&gt;&lt;br&gt;ctg1 297&lt;br&gt;Location: 327900 - 328668" locus_tag="ctg1_297" class="clusterblast-orf" id="dummy-2_q12_0_all"  />
<polygon points="161,35 166,30 179,30 179,40 166,40 161,35 " style="fill:#1fd815; stroke-width:1; stroke:black; " description="&lt;b&gt;ctg1_298&lt;/b&gt;&lt;br&gt;ctg1 298&lt;br&gt;Location: 328664 - 329822" locus_tag="ctg1_298" class="clusterblast-orf" id="dummy-2_q13_0_all"  />
<polygon points="179,35 184,30 203,30 203,40 184,40 179,35 " style="fill:#1580d8; stroke-width:1; stroke:black; " description="&lt;b&gt;ctg1_299&lt;/b&gt;&lt;br&gt;ctg1 299&lt;br&gt;Location: 329838 - 331455" locus_tag="ctg1_299" class="clusterblast-orf" id="dummy-2_q14_0_all"  />
<polygon points="203,35 208,30 216,30 216,40 208,40 203,35 " style="fill:#ce15d8; stroke-width:1; stroke:black; " description="&lt;b&gt;ctg1_300&lt;/b&gt;&lt;br&gt;ctg1 300&lt;br&gt;Location: 331458 - 332331" locus_tag="ctg1_300" class="clusterblast-orf" id="dummy-2_q15_0_all"  />
<polygon points="216,35 221,30 243,30 243,40 221,40 216,35 " style="fill:#d88a15; stroke-width:1; stroke:black; " description="&lt;b&gt;ctg1_301&lt;/b&gt;&lt;br&gt;ctg1 301&lt;br&gt;Location: 332343 - 334122" locus_tag="ctg1_301" class="clusterblast-orf" id="dummy-2_q16_0_all"  />
<polygon points="245,40 250,40 255,35 250,30 245,30 245,40 " style="fill:#15d829; stroke-width:1; stroke:black; " description="&lt;b&gt;ctg1_302&lt;/b&gt;&lt;br&gt;ctg1 302&lt;br&gt;Location: 334275 - 334899" locus_tag="ctg1_302" class="clusterblast-orf" id="dummy-2_q17_0_all"  />
<polygon points="256,40 263,40 268,35 263,30 256,30 256,40 " style="fill:#1563d8; stroke-width:1; stroke:black; " description="&lt;b&gt;ctg1_303&lt;/b&gt;&lt;br&gt;ctg1 303&lt;br&gt;Location: 334992 - 335781" locus_tag="ctg1_303" class="clusterblast-orf" id="dummy-2_q18_0_all"  />
<polygon points="269,35 274,30 277,30 277,40 274,40 269,35 " style="fill:#d815c5; stroke-width:1; stroke:black; " description="&lt;b&gt;ctg1_304&lt;/b&gt;&lt;br&gt;ctg1 304&lt;br&gt;Location: 335819 - 336371" locus_tag="ctg1_304" class="clusterblast-orf" id="dummy-2_q19_0_all"  />
<polygon points="281,40 288,40 293,35 288,30 281,30 281,40 " style="fill:#d8a715; stroke-width:1; stroke:black; " description="&lt;b&gt;ctg1_305&lt;/b&gt;&lt;br&gt;ctg1 305&lt;br&gt;Location: 336671 - 337424" locus_tag="ctg1_305" class="clusterblast-orf" id="dummy-2_q20_0_all"  />
<polygon points="293,40 482,40 487,35 482,30 293,30 293,40 " style="fill:#15d846; stroke-width:1; stroke:black; " description="&lt;b&gt;ctg1_306&lt;/b&gt;&lt;br&gt;ctg1 306&lt;br&gt;Location: 337474 - 350371" locus_tag="ctg1_306" class="clusterblast-orf" id="dummy-2_q21_0_all"  />
<polygon points="502,40 506,40 511,35 506,30 502,30 502,40 " style="fill:#1546d8; stroke-width:1; stroke:black; " description="&lt;b&gt;ctg1_307&lt;/b&gt;&lt;br&gt;ctg1 307&lt;br&gt;Location: 351390 - 352026" locus_tag="ctg1_307" class="clusterblast-orf" id="dummy-2_q22_0_all"  />
<polygon points="512,40 523,40 528,35 523,30 512,30 512,40 " style="fill:#d815a7; stroke-width:1; stroke:black; " description="&lt;b&gt;ctg1_308&lt;/b&gt;&lt;br&gt;ctg1 308&lt;br&gt;Location: 352066 - 353131" locus_tag="ctg1_308" class="clusterblast-orf" id="dummy-2_q23_0_all"  />
<polygon points="531,35 536,30 542,30 542,40 536,40 531,35 " style="fill:#d8c515; stroke-width:1; stroke:black; " description="&lt;b&gt;ctg1_309&lt;/b&gt;&lt;br&gt;ctg1 309&lt;br&gt;Location: 353332 - 354094" locus_tag="ctg1_309" class="clusterblast-orf" id="dummy-2_q24_0_all"  />
<polygon points="542,35 547,30 555,30 555,40 547,40 542,35 " style="fill:#15d863; stroke-width:1; stroke:black; " description="&lt;b&gt;ctg1_310&lt;/b&gt;&lt;br&gt;ctg1 310&lt;br&gt;Location: 354069 - 354921" locus_tag="ctg1_310" class="clusterblast-orf" id="dummy-2_q25_0_all"  />
<polygon points="555,35 560,30 581,30 581,40 560,40 555,35 " style="fill:#1529d8; stroke-width:1; stroke:black; " description="&lt;b&gt;ctg1_311&lt;/b&gt;&lt;br&gt;ctg1 311&lt;br&gt;Location: 354920 - 356666" locus_tag="ctg1_311" class="clusterblast-orf" id="dummy-2_q26_0_all"  />
<polygon points="584,40 589,40 594,35 589,30 584,30 584,40 " style="fill:#d8158a; stroke-width:1; stroke:black; " description="&lt;b&gt;ctg1_312&lt;/b&gt;&lt;br&gt;ctg1 312&lt;br&gt;Location: 356842 - 357538" locus_tag="ctg1_312" class="clusterblast-orf" id="dummy-2_q27_0_all"  />
<polygon points="594,40 609,40 614,35 609,30 594,30 594,40 " style="fill:#ced815; stroke-width:1; stroke:black; " description="&lt;b&gt;ctg1_313&lt;/b&gt;&lt;br&gt;ctg1 313&lt;br&gt;Location: 357534 - 358857" locus_tag="ctg1_313" class="clusterblast-orf" id="dummy-2_q28_0_all"  />
<polygon points="616,40 622,40 627,35 622,30 616,30 616,40 " style="fill:#15d880; stroke-width:1; stroke:black; " description="&lt;b&gt;ctg1_314&lt;/b&gt;&lt;br&gt;ctg1 314&lt;br&gt;Location: 358981 - 359749" locus_tag="ctg1_314" class="clusterblast-orf" id="dummy-2_q29_0_all"  />
<polygon points="630,40 646,40 651,35 646,30 630,30 630,40 " style="fill:#1f15d8; stroke-width:1; stroke:black; " description="&lt;b&gt;ctg1_315&lt;/b&gt;&lt;br&gt;ctg1 315&lt;br&gt;Location: 359945 - 361358" locus_tag="ctg1_315" class="clusterblast-orf" id="dummy-2_q30_0_all"  />
<polygon points="653,40 656,35 653,30 653,40 " style="fill:#d8156d; stroke-width:1; stroke:black; " description="&lt;b&gt;ctg1_316&lt;/b&gt;&lt;br&gt;ctg1 316&lt;br&gt;Location: 361441 - 361666" locus_tag="ctg1_316" class="clusterblast-orf" id="dummy-2_q31_0_all"  />
<polygon points="658,35 663,30 678,30 678,40 663,40 658,35 " style="fill:#b1d815; stroke-width:1; stroke:black; " description="&lt;b&gt;ctg1_317&lt;/b&gt;&lt;br&gt;ctg1 317&lt;br&gt;Location: 361782 - 363129" locus_tag="ctg1_317" class="clusterblast-orf" id="dummy-2_q32_0_all"  />
<polygon points="678,35 683,30 711,30 711,40 683,40 678,35 " style="fill:#15d89e; stroke-width:1; stroke:black; " description="&lt;b&gt;ctg1_318&lt;/b&gt;&lt;br&gt;ctg1 318&lt;br&gt;Location: 363146 - 365312" locus_tag="ctg1_318" class="clusterblast-orf" id="dummy-2_q33_0_all"  />
<polygon points="712,35 714,30 714,40 712,35 " style="fill:#3c15d8; stroke-width:1; stroke:black; " description="&lt;b&gt;ctg1_319&lt;/b&gt;&lt;br&gt;ctg1 319&lt;br&gt;Location: 365384 - 365561" locus_tag="ctg1_319" class="clusterblast-orf" id="dummy-2_q34_0_all"  />
<polygon points="718,35 723,30 737,30 737,40 723,40 718,35 " style="fill:#d81550; stroke-width:1; stroke:black; " description="&lt;b&gt;ctg1_320&lt;/b&gt;&lt;br&gt;ctg1 320&lt;br&gt;Location: 365781 - 367071" locus_tag="ctg1_320" class="clusterblast-orf" id="dummy-2_q35_0_all"  />
<polygon points="739,35 744,30 748,30 748,40 744,40 739,35 " style="fill:#94d815; stroke-width:1; stroke:black; " description="&lt;b&gt;ctg1_321&lt;/b&gt;&lt;br&gt;ctg1 321&lt;br&gt;Location: 367181 - 367817" locus_tag="ctg1_321" class="clusterblast-orf" id="dummy-2_q36_0_all"  />
<polygon points="750,35 753,30 753,40 750,35 " style="fill:#15d8bb; stroke-width:1; stroke:black; " description="&lt;b&gt;ctg1_322&lt;/b&gt;&lt;br&gt;ctg1 322&lt;br&gt;Location: 367913 - 368168" locus_tag="ctg1_322" class="clusterblast-orf" id="dummy-2_q37_0_all"  />
<polygon points="753,35 758,30 766,30 766,40 758,40 753,35 " style="fill:#5915d8; stroke-width:1; stroke:black; " description="&lt;b&gt;ctg1_323&lt;/b&gt;&lt;br&gt;ctg1 323&lt;br&gt;Location: 368171 - 368984" locus_tag="ctg1_323" class="clusterblast-orf" id="dummy-2_q38_0_all"  />
<polygon points="769,35 774,30 780,30 780,40 774,40 769,35 " style="fill:#d81532; stroke-width:1; stroke:black; " description="&lt;b&gt;ctg1_324&lt;/b&gt;&lt;br&gt;ctg1 324&lt;br&gt;Location: 369184 - 369922" locus_tag="ctg1_324" class="clusterblast-orf" id="dummy-2_q39_0_all"  />
</g>
<g label="NZ_CP015600" description="NZ_CP015600 (4464342-4517239): Pseudomonas antarctica strain PAMC 27494 chrom... (97% of genes show similarity), NRPS" class="clusterblast-cluster"  >
<text x="5" y="70" class="clusterblast-acc"  >
<a xlink:href="https://antismash-db.secondarymetabolites.org/area.html?record=NZ_CP015600&amp;start=4464342&amp;end=4517239" target="_blank">NZ_CP015600 (4464342-4517239)</a>: Pseudomonas antarctica strain PAMC 27494 chrom... (97% of genes show similarity), NRPS</text>
<line x1="10" y1="85" x2="778.0" y2="85" style="stroke-width:1; stroke:grey; "  />
</g>
<g id="a2_000"  >
<polygon points="0,90 4,85 0,80 0,90 " style="fill:#d81515; stroke-width:1; stroke:black; " description="&lt;b&gt;A7J50_RS20410&lt;/b&gt;&lt;br&gt;hypothetical protein&lt;br&gt;Location: 4516767 - 4516489&lt;br&gt;&lt;br&gt;&lt;b&gt;BlastP hit with ctg1_285&lt;/b&gt;&lt;br&gt;Percentage identity: 98&lt;br&gt;Percentage coverage: 79&lt;br&gt;BLAST bit score: 196&lt;br&gt;E-value: 6.08e-65" locus_tag="A7J50_RS20410" class="clusterblast-orf" id="dummy-2_h2_1_0"  />
</g>
<g id="a2_001"  >
<polygon points="5,90 9,85 5,80 5,90 " style="fill:#77d815; stroke-width:1; stroke:black; " description="&lt;b&gt;A7J50_RS20405&lt;/b&gt;&lt;br&gt;hypothetical protein&lt;br&gt;Location: 4516465 - 4516139&lt;br&gt;&lt;br&gt;&lt;b&gt;BlastP hit with ctg1_286&lt;/b&gt;&lt;br&gt;Percentage identity: 100&lt;br&gt;Percentage coverage: 100&lt;br&gt;BLAST bit score: 216&lt;br&gt;E-value: 5.96e-73" locus_tag="A7J50_RS20405" class="clusterblast-orf" id="dummy-2_h2_1_1"  />
</g>
<g id="a2_002"  >
<polygon points="10,90 13,90 18,85 13,80 10,80 10,90 " style="fill:#15d8d8; stroke-width:1; stroke:black; " description="&lt;b&gt;A7J50_RS20400&lt;/b&gt;&lt;br&gt;hypothetical protein&lt;br&gt;Location: 4516107 - 4515562&lt;br&gt;&lt;br&gt;&lt;b&gt;BlastP hit with ctg1_287&lt;/b&gt;&lt;br&gt;Percentage identity: 98&lt;br&gt;Percentage coverage: 100&lt;br&gt;BLAST bit score: 363&lt;br&gt;E-value: 7.78e-129" locus_tag="A7J50_RS20400" class="clusterblast-orf" id="dummy-2_h2_1_2"  />
</g>
<g id="a2_003"  >
<polygon points="19,90 28,90 33,85 28,80 19,80 19,90 " style="fill:#7715d8; stroke-width:1; stroke:black; " description="&lt;b&gt;A7J50_RS20395&lt;/b&gt;&lt;br&gt;lipid kinase YegS&lt;br&gt;Location: 4515471 - 4514551&lt;br&gt;&lt;br&gt;&lt;b&gt;BlastP hit with ctg1_288&lt;/b&gt;&lt;br&gt;Percentage identity: 100&lt;br&gt;Percentage coverage: 100&lt;br&gt;BLAST bit score: 607&lt;br&gt;E-value: 5.22e-221" locus_tag="A7J50_RS20395" class="clusterblast-orf" id="dummy-2_h2_1_3"  />
</g>
<g id="a2_004"  >
<polygon points="33,85 38,80 43,80 43,90 38,90 33,85 " style="fill:#d83215; stroke-width:1; stroke:black; " description="&lt;b&gt;A7J50_RS20390&lt;/b&gt;&lt;br&gt;response regulator transcription factor&lt;br&gt;Location: 4514592 - 4513933&lt;br&gt;&lt;br&gt;&lt;b&gt;BlastP hit with ctg1_289&lt;/b&gt;&lt;br&gt;Percentage identity: 100&lt;br&gt;Percentage coverage: 100&lt;br&gt;BLAST bit score: 413&lt;br&gt;E-value: 3.04e-147" locus_tag="A7J50_RS20390" class="clusterblast-orf" id="dummy-2_h2_1_4"  />
</g>
<g id="a2_005"  >
<polygon points="42,85 47,80 56,80 56,90 47,90 42,85 " style="fill:#59d815; stroke-width:1; stroke:black; " description="&lt;b&gt;A7J50_RS20385&lt;/b&gt;&lt;br&gt;sensor histidine kinase&lt;br&gt;Location: 4513936 - 4513043&lt;br&gt;&lt;br&gt;&lt;b&gt;BlastP hit with ctg1_290&lt;/b&gt;&lt;br&gt;Percentage identity: 100&lt;br&gt;Percentage coverage: 100&lt;br&gt;BLAST bit score: 562&lt;br&gt;E-value: 1.78e-203" locus_tag="A7J50_RS20385" class="clusterblast-orf" id="dummy-2_h2_1_5"  />
</g>
<g id="a2_006"  >
<polygon points="62,85 67,80 68,80 68,90 67,90 62,85 " style="fill:#15bbd8; stroke-width:1; stroke:black; " description="&lt;b&gt;A7J50_RS20380&lt;/b&gt;&lt;br&gt;hypothetical protein&lt;br&gt;Location: 4512659 - 4512213&lt;br&gt;&lt;br&gt;&lt;b&gt;BlastP hit with ctg1_291&lt;/b&gt;&lt;br&gt;Percentage identity: 100&lt;br&gt;Percentage coverage: 99&lt;br&gt;BLAST bit score: 292&lt;br&gt;E-value: 1.09e-101" locus_tag="A7J50_RS20380" class="clusterblast-orf" id="dummy-2_h2_1_6"  />
</g>
<g id="a2_007"  >
<polygon points="76,90 85,90 90,85 85,80 76,80 76,90 " style="fill:#9415d8; stroke-width:1; stroke:black; " description="&lt;b&gt;A7J50_RS20375&lt;/b&gt;&lt;br&gt;chemotaxis protein CheV&lt;br&gt;Location: 4511676 - 4510741&lt;br&gt;&lt;br&gt;&lt;b&gt;BlastP hit with ctg1_292&lt;/b&gt;&lt;br&gt;Percentage identity: 100&lt;br&gt;Percentage coverage: 100&lt;br&gt;BLAST bit score: 605&lt;br&gt;E-value: 4.45e-220" locus_tag="A7J50_RS20375" class="clusterblast-orf" id="dummy-2_h2_1_7"  />
</g>
<g id="a2_008"  >
<polygon points="91,90 98,90 103,85 98,80 91,80 91,90 " style="fill:#d85015; stroke-width:1; stroke:black; " description="&lt;b&gt;A7J50_RS20370&lt;/b&gt;&lt;br&gt;MOSC domain-containing protein&lt;br&gt;Location: 4510702 - 4509896&lt;br&gt;&lt;br&gt;&lt;b&gt;BlastP hit with ctg1_293&lt;/b&gt;&lt;br&gt;Percentage identity: 100&lt;br&gt;Percentage coverage: 100&lt;br&gt;BLAST bit score: 535&lt;br&gt;E-value: 6.21e-194" locus_tag="A7J50_RS20370" class="clusterblast-orf" id="dummy-2_h2_1_8"  />
</g>
<g id="a2_009"  >
<polygon points="104,85 108,80 108,90 104,85 " style="fill:#3cd815; stroke-width:1; stroke:black; " description="&lt;b&gt;A7J50_RS20365&lt;/b&gt;&lt;br&gt;pyrimidine/purine nucleoside phosphorylase&lt;br&gt;Location: 4509831 - 4509547&lt;br&gt;&lt;br&gt;&lt;b&gt;BlastP hit with ctg1_294&lt;/b&gt;&lt;br&gt;Percentage identity: 100&lt;br&gt;Percentage coverage: 100&lt;br&gt;BLAST bit score: 194&lt;br&gt;E-value: 1.51e-64" locus_tag="A7J50_RS20365" class="clusterblast-orf" id="dummy-2_h2_1_9"  />
</g>
<g id="a2_0010"  >
<polygon points="109,85 114,80 117,80 117,90 114,90 109,85 " style="fill:#159ed8; stroke-width:1; stroke:black; " description="&lt;b&gt;A7J50_RS20360&lt;/b&gt;&lt;br&gt;exonuclease&lt;br&gt;Location: 4509481 - 4508939&lt;br&gt;&lt;br&gt;&lt;b&gt;BlastP hit with ctg1_295&lt;/b&gt;&lt;br&gt;Percentage identity: 100&lt;br&gt;Percentage coverage: 100&lt;br&gt;BLAST bit score: 378&lt;br&gt;E-value: 1.15e-134" locus_tag="A7J50_RS20360" class="clusterblast-orf" id="dummy-2_h2_1_10"  />
</g>
<g id="a2_0011"  >
<polygon points="119,85 124,80 148,80 148,90 124,90 119,85 " style="fill:#b115d8; stroke-width:1; stroke:black; " description="&lt;b&gt;A7J50_RS20355&lt;/b&gt;&lt;br&gt;acetyl/propionyl/methylcrotonyl-CoA carboxylase subunit alpha&lt;br&gt;Location: 4508847 - 4506925&lt;br&gt;&lt;br&gt;&lt;b&gt;BlastP hit with ctg1_296&lt;/b&gt;&lt;br&gt;Percentage identity: 100&lt;br&gt;Percentage coverage: 100&lt;br&gt;BLAST bit score: 1267&lt;br&gt;E-value: 0.0" locus_tag="A7J50_RS20355" class="clusterblast-orf" id="dummy-2_h2_1_11"  />
</g>
<g id="a2_0012"  >
<polygon points="149,85 154,80 161,80 161,90 154,90 149,85 " style="fill:#d86d15; stroke-width:1; stroke:black; " description="&lt;b&gt;A7J50_RS20350&lt;/b&gt;&lt;br&gt;enoyl-CoA hydratase&lt;br&gt;Location: 4506813 - 4506046&lt;br&gt;&lt;br&gt;&lt;b&gt;BlastP hit with ctg1_297&lt;/b&gt;&lt;br&gt;Percentage identity: 98&lt;br&gt;Percentage coverage: 100&lt;br&gt;BLAST bit score: 491&lt;br&gt;E-value: 7.74e-177" locus_tag="A7J50_RS20350" class="clusterblast-orf" id="dummy-2_h2_1_12"  />
</g>
<g id="a2_0013"  >
<polygon points="161,85 166,80 178,80 178,90 166,90 161,85 " style="fill:#1fd815; stroke-width:1; stroke:black; " description="&lt;b&gt;A7J50_RS20345&lt;/b&gt;&lt;br&gt;acyl-CoA dehydrogenase&lt;br&gt;Location: 4506049 - 4504892&lt;br&gt;&lt;br&gt;&lt;b&gt;BlastP hit with ctg1_298&lt;/b&gt;&lt;br&gt;Percentage identity: 100&lt;br&gt;Percentage coverage: 100&lt;br&gt;BLAST bit score: 783&lt;br&gt;E-value: 7.61e-288" locus_tag="A7J50_RS20345" class="clusterblast-orf" id="dummy-2_h2_1_13"  />
</g>
<g id="a2_0014"  >
<polygon points="178,85 183,80 202,80 202,90 183,90 178,85 " style="fill:#1580d8; stroke-width:1; stroke:black; " description="&lt;b&gt;A7J50_RS20340&lt;/b&gt;&lt;br&gt;acyl-CoA carboxylase subunit beta&lt;br&gt;Location: 4504875 - 4503259&lt;br&gt;&lt;br&gt;&lt;b&gt;BlastP hit with ctg1_299&lt;/b&gt;&lt;br&gt;Percentage identity: 100&lt;br&gt;Percentage coverage: 100&lt;br&gt;BLAST bit score: 1056&lt;br&gt;E-value: 0.0" locus_tag="A7J50_RS20340" class="clusterblast-orf" id="dummy-2_h2_1_14"  />
</g>
<g id="a2_0015"  >
<polygon points="203,85 208,80 216,80 216,90 208,90 203,85 " style="fill:#ce15d8; stroke-width:1; stroke:black; " description="&lt;b&gt;A7J50_RS20335&lt;/b&gt;&lt;br&gt;SDR family oxidoreductase&lt;br&gt;Location: 4503255 - 4502383&lt;br&gt;&lt;br&gt;&lt;b&gt;BlastP hit with ctg1_300&lt;/b&gt;&lt;br&gt;Percentage identity: 99&lt;br&gt;Percentage coverage: 100&lt;br&gt;BLAST bit score: 573&lt;br&gt;E-value: 3.92e-208" locus_tag="A7J50_RS20335" class="clusterblast-orf" id="dummy-2_h2_1_15"  />
</g>
<g id="a2_0016"  >
<polygon points="216,85 221,80 242,80 242,90 221,90 216,85 " style="fill:#d88a15; stroke-width:1; stroke:black; " description="&lt;b&gt;A7J50_RS20330&lt;/b&gt;&lt;br&gt;DUF1446 domain-containing protein&lt;br&gt;Location: 4502370 - 4500592&lt;br&gt;&lt;br&gt;&lt;b&gt;BlastP hit with ctg1_301&lt;/b&gt;&lt;br&gt;Percentage identity: 100&lt;br&gt;Percentage coverage: 100&lt;br&gt;BLAST bit score: 1194&lt;br&gt;E-value: 0.0" locus_tag="A7J50_RS20330" class="clusterblast-orf" id="dummy-2_h2_1_16"  />
</g>
<g id="a2_0017"  >
<polygon points="245,90 249,90 254,85 249,80 245,80 245,90 " style="fill:#15d829; stroke-width:1; stroke:black; " description="&lt;b&gt;A7J50_RS20325&lt;/b&gt;&lt;br&gt;TetR/AcrR family transcriptional regulator&lt;br&gt;Location: 4500438 - 4499815&lt;br&gt;&lt;br&gt;&lt;b&gt;BlastP hit with ctg1_302&lt;/b&gt;&lt;br&gt;Percentage identity: 100&lt;br&gt;Percentage coverage: 100&lt;br&gt;BLAST bit score: 400&lt;br&gt;E-value: 1.85e-142" locus_tag="A7J50_RS20325" class="clusterblast-orf" id="dummy-2_h2_1_17"  />
</g>
<g id="a2_0018"  >
<polygon points="256,90 262,90 267,85 262,80 256,80 256,90 " style="fill:#1563d8; stroke-width:1; stroke:black; " description="&lt;b&gt;A7J50_RS20320&lt;/b&gt;&lt;br&gt;transporter substrate-binding domain-containing protein&lt;br&gt;Location: 4499721 - 4498933&lt;br&gt;&lt;br&gt;&lt;b&gt;BlastP hit with ctg1_303&lt;/b&gt;&lt;br&gt;Percentage identity: 100&lt;br&gt;Percentage coverage: 100&lt;br&gt;BLAST bit score: 535&lt;br&gt;E-value: 3.9e-194" locus_tag="A7J50_RS20320" class="clusterblast-orf" id="dummy-2_h2_1_18"  />
</g>
<g id="a2_0019"  >
<polygon points="268,85 273,80 276,80 276,90 273,90 268,85 " style="fill:#d815c5; stroke-width:1; stroke:black; " description="&lt;b&gt;A7J50_RS20315&lt;/b&gt;&lt;br&gt;RNA polymerase factor sigma-70&lt;br&gt;Location: 4498894 - 4498343&lt;br&gt;&lt;br&gt;&lt;b&gt;BlastP hit with ctg1_304&lt;/b&gt;&lt;br&gt;Percentage identity: 100&lt;br&gt;Percentage coverage: 100&lt;br&gt;BLAST bit score: 364&lt;br&gt;E-value: 6.38e-129" locus_tag="A7J50_RS20315" class="clusterblast-orf" id="dummy-2_h2_1_19"  />
</g>
<g id="a2_0020"  >
<polygon points="281,90 287,90 292,85 287,80 281,80 281,90 " style="fill:#d8a715; stroke-width:1; stroke:black; " description="&lt;b&gt;A7J50_RS20310&lt;/b&gt;&lt;br&gt;thioesterase&lt;br&gt;Location: 4498042 - 4497290&lt;br&gt;&lt;br&gt;&lt;b&gt;BlastP hit with ctg1_305&lt;/b&gt;&lt;br&gt;Percentage identity: 99&lt;br&gt;Percentage coverage: 100&lt;br&gt;BLAST bit score: 493&lt;br&gt;E-value: 6.41e-178" locus_tag="A7J50_RS20310" class="clusterblast-orf" id="dummy-2_h2_1_20"  />
</g>
<g id="a2_0021"  >
<polygon points="293,90 481,90 486,85 481,80 293,80 293,90 " style="fill:#15d846; stroke-width:1; stroke:black; " description="&lt;b&gt;A7J50_RS20305&lt;/b&gt;&lt;br&gt;non-ribosomal peptide synthetase&lt;br&gt;Location: 4497239 - 4484343&lt;br&gt;&lt;br&gt;&lt;b&gt;BlastP hit with ctg1_306&lt;/b&gt;&lt;br&gt;Percentage identity: 100&lt;br&gt;Percentage coverage: 100&lt;br&gt;BLAST bit score: 8563&lt;br&gt;E-value: 0.0" locus_tag="A7J50_RS20305" class="clusterblast-orf" id="dummy-2_h2_1_21"  />
</g>
<g id="a2_0022"  >
<polygon points="487,85 490,80 490,90 487,85 " style="fill:white; stroke-width:1; stroke:black; " description="&lt;b&gt;A7J50_RS31690&lt;/b&gt;&lt;br&gt;IS5/IS1182 family transposase&lt;br&gt;Location: 4484264 - 4484085" locus_tag="A7J50_RS31690" class="clusterblast-orf" id="dummy-2_h2_1_22"  />
</g>
<g id="a2_0023"  >
<polygon points="501,90 506,90 511,85 506,80 501,80 501,90 " style="fill:#1546d8; stroke-width:1; stroke:black; " description="&lt;b&gt;A7J50_RS20300&lt;/b&gt;&lt;br&gt;lytic polysaccharide monooxygenase&lt;br&gt;Location: 4483324 - 4482689&lt;br&gt;&lt;br&gt;&lt;b&gt;BlastP hit with ctg1_307&lt;/b&gt;&lt;br&gt;Percentage identity: 99&lt;br&gt;Percentage coverage: 100&lt;br&gt;BLAST bit score: 444&lt;br&gt;E-value: 1.04e-159" locus_tag="A7J50_RS20300" class="clusterblast-orf" id="dummy-2_h2_1_23"  />
</g>
<g id="a2_0024"  >
<polygon points="511,90 522,90 527,85 522,80 511,80 511,90 " style="fill:#d815a7; stroke-width:1; stroke:black; " description="&lt;b&gt;A7J50_RS20295&lt;/b&gt;&lt;br&gt;chitinase&lt;br&gt;Location: 4482648 - 4481584&lt;br&gt;&lt;br&gt;&lt;b&gt;BlastP hit with ctg1_308&lt;/b&gt;&lt;br&gt;Percentage identity: 100&lt;br&gt;Percentage coverage: 100&lt;br&gt;BLAST bit score: 728&lt;br&gt;E-value: 4.23e-267" locus_tag="A7J50_RS20295" class="clusterblast-orf" id="dummy-2_h2_1_24"  />
</g>
<g id="a2_0025"  >
<polygon points="530,85 535,80 542,80 542,90 535,90 530,85 " style="fill:#d8c515; stroke-width:1; stroke:black; " description="&lt;b&gt;A7J50_RS20290&lt;/b&gt;&lt;br&gt;thiol:disulfide interchange protein DsbG&lt;br&gt;Location: 4481383 - 4480622&lt;br&gt;&lt;br&gt;&lt;b&gt;BlastP hit with ctg1_309&lt;/b&gt;&lt;br&gt;Percentage identity: 100&lt;br&gt;Percentage coverage: 100&lt;br&gt;BLAST bit score: 506&lt;br&gt;E-value: 7.51e-183" locus_tag="A7J50_RS20290" class="clusterblast-orf" id="dummy-2_h2_1_25"  />
</g>
<g id="a2_0026"  >
<polygon points="541,85 546,80 554,80 554,90 546,90 541,85 " style="fill:#15d863; stroke-width:1; stroke:black; " description="&lt;b&gt;A7J50_RS20285&lt;/b&gt;&lt;br&gt;TlpA family protein disulfide reductase&lt;br&gt;Location: 4480646 - 4479795&lt;br&gt;&lt;br&gt;&lt;b&gt;BlastP hit with ctg1_310&lt;/b&gt;&lt;br&gt;Percentage identity: 100&lt;br&gt;Percentage coverage: 100&lt;br&gt;BLAST bit score: 563&lt;br&gt;E-value: 2.09e-204" locus_tag="A7J50_RS20285" class="clusterblast-orf" id="dummy-2_h2_1_26"  />
</g>
<g id="a2_0027"  >
<polygon points="554,85 559,80 580,80 580,90 559,90 554,85 " style="fill:#1529d8; stroke-width:1; stroke:black; " description="&lt;b&gt;A7J50_RS20280&lt;/b&gt;&lt;br&gt;protein-disulfide reductase DsbD&lt;br&gt;Location: 4479795 - 4478050&lt;br&gt;&lt;br&gt;&lt;b&gt;BlastP hit with ctg1_311&lt;/b&gt;&lt;br&gt;Percentage identity: 100&lt;br&gt;Percentage coverage: 100&lt;br&gt;BLAST bit score: 1118&lt;br&gt;E-value: 0.0" locus_tag="A7J50_RS20280" class="clusterblast-orf" id="dummy-2_h2_1_27"  />
</g>
<g id="a2_0028"  >
<polygon points="583,90 588,90 593,85 588,80 583,80 583,90 " style="fill:#d8158a; stroke-width:1; stroke:black; " description="&lt;b&gt;A7J50_RS20275&lt;/b&gt;&lt;br&gt;response regulator transcription factor&lt;br&gt;Location: 4477873 - 4477178&lt;br&gt;&lt;br&gt;&lt;b&gt;BlastP hit with ctg1_312&lt;/b&gt;&lt;br&gt;Percentage identity: 100&lt;br&gt;Percentage coverage: 100&lt;br&gt;BLAST bit score: 443&lt;br&gt;E-value: 9.79e-159" locus_tag="A7J50_RS20275" class="clusterblast-orf" id="dummy-2_h2_1_28"  />
</g>
<g id="a2_0029"  >
<polygon points="593,90 608,90 613,85 608,80 593,80 593,90 " style="fill:#ced815; stroke-width:1; stroke:black; " description="&lt;b&gt;A7J50_RS20270&lt;/b&gt;&lt;br&gt;two-component sensor histidine kinase&lt;br&gt;Location: 4477178 - 4475859&lt;br&gt;&lt;br&gt;&lt;b&gt;BlastP hit with ctg1_313&lt;/b&gt;&lt;br&gt;Percentage identity: 100&lt;br&gt;Percentage coverage: 100&lt;br&gt;BLAST bit score: 840&lt;br&gt;E-value: 1.5e-308" locus_tag="A7J50_RS20270" class="clusterblast-orf" id="dummy-2_h2_1_29"  />
</g>
<g id="a2_0030"  >
<polygon points="615,90 621,90 626,85 621,80 615,80 615,90 " style="fill:#15d880; stroke-width:1; stroke:black; " description="&lt;b&gt;A7J50_RS20265&lt;/b&gt;&lt;br&gt;N-acetylmuramoyl-L-alanine amidase&lt;br&gt;Location: 4475734 - 4474967&lt;br&gt;&lt;br&gt;&lt;b&gt;BlastP hit with ctg1_314&lt;/b&gt;&lt;br&gt;Percentage identity: 98&lt;br&gt;Percentage coverage: 100&lt;br&gt;BLAST bit score: 521&lt;br&gt;E-value: 9.92e-189" locus_tag="A7J50_RS20265" class="clusterblast-orf" id="dummy-2_h2_1_30"  />
</g>
<g id="a2_0031"  >
<polygon points="629,90 646,90 651,85 646,80 629,80 629,90 " style="fill:#1f15d8; stroke-width:1; stroke:black; " description="&lt;b&gt;A7J50_RS20260&lt;/b&gt;&lt;br&gt;aspartate aminotransferase family protein&lt;br&gt;Location: 4474770 - 4473358&lt;br&gt;&lt;br&gt;&lt;b&gt;BlastP hit with ctg1_315&lt;/b&gt;&lt;br&gt;Percentage identity: 100&lt;br&gt;Percentage coverage: 100&lt;br&gt;BLAST bit score: 929&lt;br&gt;E-value: 0.0" locus_tag="A7J50_RS20260" class="clusterblast-orf" id="dummy-2_h2_1_31"  />
</g>
<g id="a2_0032"  >
<polygon points="652,90 655,85 652,80 652,90 " style="fill:#d8156d; stroke-width:1; stroke:black; " description="&lt;b&gt;A7J50_RS20255&lt;/b&gt;&lt;br&gt;MbtH family protein&lt;br&gt;Location: 4473274 - 4473050&lt;br&gt;&lt;br&gt;&lt;b&gt;BlastP hit with ctg1_316&lt;/b&gt;&lt;br&gt;Percentage identity: 100&lt;br&gt;Percentage coverage: 100&lt;br&gt;BLAST bit score: 156&lt;br&gt;E-value: 4.61e-50" locus_tag="A7J50_RS20255" class="clusterblast-orf" id="dummy-2_h2_1_32"  />
</g>
<g id="a2_0033"  >
<polygon points="657,85 662,80 677,80 677,90 662,90 657,85 " style="fill:#b1d815; stroke-width:1; stroke:black; " description="&lt;b&gt;A7J50_RS20250&lt;/b&gt;&lt;br&gt;amidohydrolase&lt;br&gt;Location: 4472933 - 4471587&lt;br&gt;&lt;br&gt;&lt;b&gt;BlastP hit with ctg1_317&lt;/b&gt;&lt;br&gt;Percentage identity: 100&lt;br&gt;Percentage coverage: 100&lt;br&gt;BLAST bit score: 878&lt;br&gt;E-value: 0.0" locus_tag="A7J50_RS20250" class="clusterblast-orf" id="dummy-2_h2_1_33"  />
</g>
<g id="a2_0034"  >
<polygon points="677,85 682,80 710,80 710,90 682,90 677,85 " style="fill:#15d89e; stroke-width:1; stroke:black; " description="&lt;b&gt;A7J50_RS20245&lt;/b&gt;&lt;br&gt;mechanosensitive ion channel family protein&lt;br&gt;Location: 4471569 - 4469404&lt;br&gt;&lt;br&gt;&lt;b&gt;BlastP hit with ctg1_318&lt;/b&gt;&lt;br&gt;Percentage identity: 100&lt;br&gt;Percentage coverage: 100&lt;br&gt;BLAST bit score: 1372&lt;br&gt;E-value: 0.0" locus_tag="A7J50_RS20245" class="clusterblast-orf" id="dummy-2_h2_1_34"  />
</g>
<g id="a2_0035"  >
<polygon points="711,85 714,80 714,90 711,85 " style="fill:#3c15d8; stroke-width:1; stroke:black; " description="&lt;b&gt;A7J50_RS31685&lt;/b&gt;&lt;br&gt;hypothetical protein&lt;br&gt;Location: 4469331 - 4469155&lt;br&gt;&lt;br&gt;&lt;b&gt;BlastP hit with ctg1_319&lt;/b&gt;&lt;br&gt;Percentage identity: 100&lt;br&gt;Percentage coverage: 100&lt;br&gt;BLAST bit score: 107&lt;br&gt;E-value: 2.61e-31" locus_tag="A7J50_RS31685" class="clusterblast-orf" id="dummy-2_h2_1_35"  />
</g>
<g id="a2_0036"  >
<polygon points="717,85 722,80 736,80 736,90 722,90 717,85 " style="fill:#d81550; stroke-width:1; stroke:black; " description="&lt;b&gt;A7J50_RS20240&lt;/b&gt;&lt;br&gt;M18 family aminopeptidase&lt;br&gt;Location: 4468934 - 4467645&lt;br&gt;&lt;br&gt;&lt;b&gt;BlastP hit with ctg1_320&lt;/b&gt;&lt;br&gt;Percentage identity: 100&lt;br&gt;Percentage coverage: 100&lt;br&gt;BLAST bit score: 870&lt;br&gt;E-value: 0.0" locus_tag="A7J50_RS20240" class="clusterblast-orf" id="dummy-2_h2_1_36"  />
</g>
<g id="a2_0037"  >
<polygon points="738,85 743,80 747,80 747,90 743,90 738,85 " style="fill:#94d815; stroke-width:1; stroke:black; " description="&lt;b&gt;A7J50_RS20235&lt;/b&gt;&lt;br&gt;RluA family pseudouridine synthase&lt;br&gt;Location: 4467534 - 4466899&lt;br&gt;&lt;br&gt;&lt;b&gt;BlastP hit with ctg1_321&lt;/b&gt;&lt;br&gt;Percentage identity: 100&lt;br&gt;Percentage coverage: 100&lt;br&gt;BLAST bit score: 450&lt;br&gt;E-value: 3.77e-162" locus_tag="A7J50_RS20235" class="clusterblast-orf" id="dummy-2_h2_1_37"  />
</g>
<g id="a2_0038"  >
<polygon points="749,85 753,80 753,90 749,85 " style="fill:#15d8bb; stroke-width:1; stroke:black; " description="&lt;b&gt;A7J50_RS20230&lt;/b&gt;&lt;br&gt;cell division topological specificity factor MinE&lt;br&gt;Location: 4466802 - 4466548&lt;br&gt;&lt;br&gt;&lt;b&gt;BlastP hit with ctg1_322&lt;/b&gt;&lt;br&gt;Percentage identity: 100&lt;br&gt;Percentage coverage: 100&lt;br&gt;BLAST bit score: 169&lt;br&gt;E-value: 6.09e-55" locus_tag="A7J50_RS20230" class="clusterblast-orf" id="dummy-2_h2_1_38"  />
</g>
<g id="a2_0039"  >
<polygon points="753,85 758,80 765,80 765,90 758,90 753,85 " style="fill:#5915d8; stroke-width:1; stroke:black; " description="&lt;b&gt;A7J50_RS20225&lt;/b&gt;&lt;br&gt;septum site-determining protein MinD&lt;br&gt;Location: 4466544 - 4465732&lt;br&gt;&lt;br&gt;&lt;b&gt;BlastP hit with ctg1_323&lt;/b&gt;&lt;br&gt;Percentage identity: 100&lt;br&gt;Percentage coverage: 100&lt;br&gt;BLAST bit score: 521&lt;br&gt;E-value: 2.23e-188" locus_tag="A7J50_RS20225" class="clusterblast-orf" id="dummy-2_h2_1_39"  />
</g>
<g id="a2_0040"  >
<polygon points="768,85 773,80 779,80 779,90 773,90 768,85 " style="fill:#d81532; stroke-width:1; stroke:black; " description="&lt;b&gt;A7J50_RS20220&lt;/b&gt;&lt;br&gt;septum site-determining protein MinC&lt;br&gt;Location: 4465531 - 4464794&lt;br&gt;&lt;br&gt;&lt;b&gt;BlastP hit with ctg1_324&lt;/b&gt;&lt;br&gt;Percentage identity: 100&lt;br&gt;Percentage coverage: 100&lt;br&gt;BLAST bit score: 474&lt;br&gt;E-value: 2.6e-170" locus_tag="A7J50_RS20220" class="clusterblast-orf" id="dummy-2_h2_1_40"  />
</g>
</svg>
