<svg xmlns="http://www.w3.org/2000/svg" xmlns:xlink="http://www.w3.org/1999/xlink" version="1.1" x="0" y="0" height="230" width="800" viewBox="0 0 800 230" preserveAspectRatio="none"  >
<g label="Query sequence" class="clusterblast-cluster"  >
<text x="5" y="20" class="clusterblast-acc"  >
Query sequence</text>
<line x1="10" y1="35" x2="778.0" y2="35" style="stroke-width:1; stroke:grey; "  />
<polygon points="0,40 61,40 66,35 61,30 0,30 0,40 " style="fill:#d81515; stroke-width:1; stroke:black; " description="&lt;b&gt;ctg29_33&lt;/b&gt;&lt;br&gt;ctg29 33&lt;br&gt;Location: 34433 - 35201" locus_tag="ctg29_33" class="clusterblast-orf" id="dummy-1_q0_0_all"  />
<polygon points="66,40 122,40 127,35 122,30 66,30 66,40 " style="fill:#d81515; stroke-width:1; stroke:black; " description="&lt;b&gt;ctg29_34&lt;/b&gt;&lt;br&gt;ctg29 34&lt;br&gt;Location: 35202 - 35904" locus_tag="ctg29_34" class="clusterblast-orf" id="dummy-1_q1_0_all"  />
<polygon points="131,35 136,30 242,30 242,40 136,40 131,35 " style="fill:#3cd815; stroke-width:1; stroke:black; " description="&lt;b&gt;ctg29_35&lt;/b&gt;&lt;br&gt;ctg29 35&lt;br&gt;Location: 35955 - 37248" locus_tag="ctg29_35" class="clusterblast-orf" id="dummy-1_q2_0_all"  />
<polygon points="243,35 248,30 327,30 327,40 248,40 243,35 " style="fill:#1563d8; stroke-width:1; stroke:black; " description="&lt;b&gt;ctg29_36&lt;/b&gt;&lt;br&gt;ctg29 36&lt;br&gt;Location: 37260 - 38238" locus_tag="ctg29_36" class="clusterblast-orf" id="dummy-1_q3_0_all"  />
<polygon points="365,40 386,40 391,35 386,30 365,30 365,40 " style="fill:#b115d8; stroke-width:1; stroke:black; " description="&lt;b&gt;ctg29_37&lt;/b&gt;&lt;br&gt;ctg29 37&lt;br&gt;Location: 38679 - 38985" locus_tag="ctg29_37" class="clusterblast-orf" id="dummy-1_q4_0_all"  />
<polygon points="393,40 464,40 469,35 464,30 393,30 393,40 " style="fill:#d88a15; stroke-width:1; stroke:black; " description="&lt;b&gt;ctg29_38&lt;/b&gt;&lt;br&gt;ctg29 38&lt;br&gt;Location: 39008 - 39890" locus_tag="ctg29_38" class="clusterblast-orf" id="dummy-1_q5_0_all"  />
<polygon points="468,40 530,40 535,35 530,30 468,30 468,40 " style="fill:#15d863; stroke-width:1; stroke:black; " description="&lt;b&gt;ctg29_39&lt;/b&gt;&lt;br&gt;ctg29 39&lt;br&gt;Location: 39886 - 40663" locus_tag="ctg29_39" class="clusterblast-orf" id="dummy-1_q6_0_all"  />
<polygon points="535,40 571,40 576,35 571,30 535,30 535,40 " style="fill:#3c15d8; stroke-width:1; stroke:black; " description="&lt;b&gt;ctg29_40&lt;/b&gt;&lt;br&gt;ctg29 40&lt;br&gt;Location: 40659 - 41145" locus_tag="ctg29_40" class="clusterblast-orf" id="dummy-1_q7_0_all"  />
<polygon points="576,35 581,30 654,30 654,40 581,40 576,35 " style="fill:#d8158a; stroke-width:1; stroke:black; " description="&lt;b&gt;ctg29_41&lt;/b&gt;&lt;br&gt;ctg29 41&lt;br&gt;Location: 41141 - 42050" locus_tag="ctg29_41" class="clusterblast-orf" id="dummy-1_q8_0_all"  />
<polygon points="663,40 709,40 714,35 709,30 663,30 663,40 " style="fill:#b1d815; stroke-width:1; stroke:black; " description="&lt;b&gt;ctg29_42&lt;/b&gt;&lt;br&gt;ctg29 42&lt;br&gt;Location: 42153 - 42753" locus_tag="ctg29_42" class="clusterblast-orf" id="dummy-1_q9_0_all"  />
<polygon points="723,40 775,40 780,35 775,30 723,30 723,40 " style="fill:#15d8d8; stroke-width:1; stroke:black; " description="&lt;b&gt;ctg29_43&lt;/b&gt;&lt;br&gt;ctg29 43&lt;br&gt;Location: 42850 - 43522" locus_tag="ctg29_43" class="clusterblast-orf" id="dummy-1_q10_0_all"  />
</g>
<g label="NZ_QKMB01000013" description="NZ_QKMB01000013 (112911-123790): Pseudomonas sp. OV286 Ga0215801 113, whole g... (81% of genes show similarity), bacteriocin" class="clusterblast-cluster"  >
<text x="5" y="70" class="clusterblast-acc"  >
<a xlink:href="https://antismash-db.secondarymetabolites.org/area.html?record=NZ_QKMB01000013&amp;start=112911&amp;end=123790" target="_blank">NZ_QKMB01000013 (112911-123790)</a>: Pseudomonas sp. OV286 Ga0215801 113, whole g... (81% of genes show similarity), bacteriocin</text>
<line x1="10" y1="85" x2="778.0" y2="85" style="stroke-width:1; stroke:grey; "  />
</g>
<g id="a1_000"  >
<polygon points="18,90 92,90 97,85 92,80 18,80 18,90 " style="fill:white; stroke-width:1; stroke:black; " description="&lt;b&gt;C7535_RS17640&lt;/b&gt;&lt;br&gt;high-affinity branched-chain amino acid ABC transporter permease LivH&lt;br&gt;Location: 122935 - 122012" locus_tag="C7535_RS17640" class="clusterblast-orf" id="dummy-1_h1_7_0"  />
</g>
<g id="a1_001"  >
<polygon points="97,90 200,90 205,85 200,80 97,80 97,90 " style="fill:white; stroke-width:1; stroke:black; " description="&lt;b&gt;C7535_RS17635&lt;/b&gt;&lt;br&gt;high-affinity branched-chain amino acid ABC transporter permease LivM&lt;br&gt;Location: 122015 - 120762" locus_tag="C7535_RS17635" class="clusterblast-orf" id="dummy-1_h1_7_1"  />
</g>
<g id="a1_002"  >
<polygon points="204,90 265,90 270,85 265,80 204,80 204,90 " style="fill:#d81515; stroke-width:1; stroke:black; " description="&lt;b&gt;C7535_RS17630&lt;/b&gt;&lt;br&gt;high-affinity branched-chain amino acid ABC transporter ATP-binding protein LivG&lt;br&gt;Location: 120765 - 119998&lt;br&gt;&lt;br&gt;&lt;b&gt;BlastP hit with ctg29_33&lt;/b&gt;&lt;br&gt;Percentage identity: 99&lt;br&gt;Percentage coverage: 100&lt;br&gt;BLAST bit score: 499&lt;br&gt;E-value: 3.43e-180&lt;br&gt;&lt;br&gt;&lt;b&gt;BlastP hit with ctg29_34&lt;/b&gt;&lt;br&gt;Percentage identity: 32&lt;br&gt;Percentage coverage: 107&lt;br&gt;BLAST bit score: 122&lt;br&gt;E-value: 3.74e-32" locus_tag="C7535_RS17630" class="clusterblast-orf" id="dummy-1_h1_7_2"  />
</g>
<g id="a1_003"  >
<polygon points="270,90 325,90 330,85 325,80 270,80 270,90 " style="fill:#d81515; stroke-width:1; stroke:black; " description="&lt;b&gt;C7535_RS17625&lt;/b&gt;&lt;br&gt;ABC transporter ATP-binding protein&lt;br&gt;Location: 119996 - 119295&lt;br&gt;&lt;br&gt;&lt;b&gt;BlastP hit with ctg29_33&lt;/b&gt;&lt;br&gt;Percentage identity: 32&lt;br&gt;Percentage coverage: 100&lt;br&gt;BLAST bit score: 124&lt;br&gt;E-value: 7.45e-33&lt;br&gt;&lt;br&gt;&lt;b&gt;BlastP hit with ctg29_34&lt;/b&gt;&lt;br&gt;Percentage identity: 99&lt;br&gt;Percentage coverage: 100&lt;br&gt;BLAST bit score: 444&lt;br&gt;E-value: 3.98e-159" locus_tag="C7535_RS17625" class="clusterblast-orf" id="dummy-1_h1_7_3"  />
</g>
<g id="a1_004"  >
<polygon points="345,90 367,90 372,85 367,80 345,80 345,90 " style="fill:#b115d8; stroke-width:1; stroke:black; " description="&lt;b&gt;C7535_RS17620&lt;/b&gt;&lt;br&gt;DUF2282 domain-containing protein&lt;br&gt;Location: 119122 - 118814&lt;br&gt;&lt;br&gt;&lt;b&gt;BlastP hit with ctg29_37&lt;/b&gt;&lt;br&gt;Percentage identity: 82&lt;br&gt;Percentage coverage: 101&lt;br&gt;BLAST bit score: 148&lt;br&gt;E-value: 5.2e-46" locus_tag="C7535_RS17620" class="clusterblast-orf" id="dummy-1_h1_7_4"  />
</g>
<g id="a1_005"  >
<polygon points="374,90 444,90 449,85 444,80 374,80 374,90 " style="fill:#d88a15; stroke-width:1; stroke:black; " description="&lt;b&gt;C7535_RS17615&lt;/b&gt;&lt;br&gt;DUF692 domain-containing protein&lt;br&gt;Location: 118790 - 117912&lt;br&gt;&lt;br&gt;&lt;b&gt;BlastP hit with ctg29_38&lt;/b&gt;&lt;br&gt;Percentage identity: 92&lt;br&gt;Percentage coverage: 99&lt;br&gt;BLAST bit score: 544&lt;br&gt;E-value: 1.29e-196" locus_tag="C7535_RS17615" class="clusterblast-orf" id="dummy-1_h1_7_5"  />
</g>
<g id="a1_006"  >
<polygon points="449,90 510,90 515,85 510,80 449,80 449,90 " style="fill:#15d863; stroke-width:1; stroke:black; " description="&lt;b&gt;C7535_RS17610&lt;/b&gt;&lt;br&gt;putative DNA-binding domain-containing protein&lt;br&gt;Location: 117915 - 117139&lt;br&gt;&lt;br&gt;&lt;b&gt;BlastP hit with ctg29_39&lt;/b&gt;&lt;br&gt;Percentage identity: 83&lt;br&gt;Percentage coverage: 100&lt;br&gt;BLAST bit score: 416&lt;br&gt;E-value: 7.17e-147" locus_tag="C7535_RS17610" class="clusterblast-orf" id="dummy-1_h1_7_6"  />
</g>
<g id="a1_007"  >
<polygon points="515,90 552,90 557,85 552,80 515,80 515,90 " style="fill:#3c15d8; stroke-width:1; stroke:black; " description="&lt;b&gt;C7535_RS17605&lt;/b&gt;&lt;br&gt;DoxX family protein&lt;br&gt;Location: 117142 - 116657&lt;br&gt;&lt;br&gt;&lt;b&gt;BlastP hit with ctg29_40&lt;/b&gt;&lt;br&gt;Percentage identity: 96&lt;br&gt;Percentage coverage: 100&lt;br&gt;BLAST bit score: 299&lt;br&gt;E-value: 5e-104" locus_tag="C7535_RS17605" class="clusterblast-orf" id="dummy-1_h1_7_7"  />
</g>
<g id="a1_008"  >
<polygon points="556,85 561,80 634,80 634,90 561,90 556,85 " style="fill:#d8158a; stroke-width:1; stroke:black; " description="&lt;b&gt;C7535_RS17600&lt;/b&gt;&lt;br&gt;LysR family transcriptional regulator&lt;br&gt;Location: 116666 - 115752&lt;br&gt;&lt;br&gt;&lt;b&gt;BlastP hit with ctg29_41&lt;/b&gt;&lt;br&gt;Percentage identity: 98&lt;br&gt;Percentage coverage: 100&lt;br&gt;BLAST bit score: 582&lt;br&gt;E-value: 2.35e-211" locus_tag="C7535_RS17600" class="clusterblast-orf" id="dummy-1_h1_7_8"  />
</g>
<g id="a1_009"  >
<polygon points="643,90 690,90 695,85 690,80 643,80 643,90 " style="fill:#b1d815; stroke-width:1; stroke:black; " description="&lt;b&gt;C7535_RS17595&lt;/b&gt;&lt;br&gt;short chain dehydrogenase&lt;br&gt;Location: 115647 - 115048&lt;br&gt;&lt;br&gt;&lt;b&gt;BlastP hit with ctg29_42&lt;/b&gt;&lt;br&gt;Percentage identity: 97&lt;br&gt;Percentage coverage: 100&lt;br&gt;BLAST bit score: 373&lt;br&gt;E-value: 6.72e-132" locus_tag="C7535_RS17595" class="clusterblast-orf" id="dummy-1_h1_7_9"  />
</g>
<g id="a1_0010"  >
<polygon points="703,90 756,90 761,85 756,80 703,80 703,90 " style="fill:#15d8d8; stroke-width:1; stroke:black; " description="&lt;b&gt;C7535_RS17590&lt;/b&gt;&lt;br&gt;hypothetical protein&lt;br&gt;Location: 114950 - 114279&lt;br&gt;&lt;br&gt;&lt;b&gt;BlastP hit with ctg29_43&lt;/b&gt;&lt;br&gt;Percentage identity: 95&lt;br&gt;Percentage coverage: 100&lt;br&gt;BLAST bit score: 429&lt;br&gt;E-value: 3.29e-153" locus_tag="C7535_RS17590" class="clusterblast-orf" id="dummy-1_h1_7_10"  />
</g>
</svg>
