<svg xmlns="http://www.w3.org/2000/svg" xmlns:xlink="http://www.w3.org/1999/xlink" version="1.1" x="0" y="0" height="230" width="800" viewBox="0 0 800 230" preserveAspectRatio="none"  >
<g label="Query sequence" class="clusterblast-cluster"  >
<text x="5" y="20" class="clusterblast-acc"  >
Query sequence</text>
<line x1="10" y1="35" x2="778.0" y2="35" style="stroke-width:1; stroke:grey; "  />
<polygon points="2,40 10,40 15,35 10,30 2,30 2,40 " style="fill:#d81515; stroke-width:1; stroke:black; " description="&lt;b&gt;ctg4_76&lt;/b&gt;&lt;br&gt;ctg4 76&lt;br&gt;Location: 87485 - 88142" locus_tag="ctg4_76" class="clusterblast-orf" id="dummy-1_q0_0_all"  />
<polygon points="15,40 20,40 25,35 20,30 15,30 15,40 " style="fill:#77d815; stroke-width:1; stroke:black; " description="&lt;b&gt;ctg4_77&lt;/b&gt;&lt;br&gt;ctg4 77&lt;br&gt;Location: 88138 - 88690" locus_tag="ctg4_77" class="clusterblast-orf" id="dummy-1_q1_0_all"  />
<polygon points="25,40 39,40 44,35 39,30 25,30 25,40 " style="fill:#15d8d8; stroke-width:1; stroke:black; " description="&lt;b&gt;ctg4_78&lt;/b&gt;&lt;br&gt;ctg4 78&lt;br&gt;Location: 88686 - 89658" locus_tag="ctg4_78" class="clusterblast-orf" id="dummy-1_q2_0_all"  />
<polygon points="45,40 67,40 72,35 67,30 45,30 45,40 " style="fill:#7715d8; stroke-width:1; stroke:black; " description="&lt;b&gt;ctg4_79&lt;/b&gt;&lt;br&gt;ctg4 79&lt;br&gt;Location: 89670 - 91056" locus_tag="ctg4_79" class="clusterblast-orf" id="dummy-1_q3_0_all"  />
<polygon points="73,40 77,40 82,35 77,30 73,30 73,40 " style="fill:#d83615; stroke-width:1; stroke:black; " description="&lt;b&gt;ctg4_80&lt;/b&gt;&lt;br&gt;ctg4 80&lt;br&gt;Location: 91087 - 91579" locus_tag="ctg4_80" class="clusterblast-orf" id="dummy-1_q4_0_all"  />
<polygon points="85,40 101,40 106,35 101,30 85,30 85,40 " style="fill:#56d815; stroke-width:1; stroke:black; " description="&lt;b&gt;ctg4_81&lt;/b&gt;&lt;br&gt;ctg4 81&lt;br&gt;Location: 91703 - 92804" locus_tag="ctg4_81" class="clusterblast-orf" id="dummy-1_q5_0_all"  />
<polygon points="106,40 132,40 137,35 132,30 106,30 106,40 " style="fill:#15b8d8; stroke-width:1; stroke:black; " description="&lt;b&gt;ctg4_82&lt;/b&gt;&lt;br&gt;ctg4 82&lt;br&gt;Location: 92814 - 94383" locus_tag="ctg4_82" class="clusterblast-orf" id="dummy-1_q6_0_all"  />
<polygon points="144,40 227,40 232,35 227,30 144,30 144,40 " style="fill:#9715d8; stroke-width:1; stroke:black; " description="&lt;b&gt;ctg4_83&lt;/b&gt;&lt;br&gt;ctg4 83&lt;br&gt;Location: 94735 - 99181" locus_tag="ctg4_83" class="clusterblast-orf" id="dummy-1_q7_0_all"  />
<polygon points="234,40 257,40 262,35 257,30 234,30 234,40 " style="fill:#d85615; stroke-width:1; stroke:black; " description="&lt;b&gt;ctg4_84&lt;/b&gt;&lt;br&gt;ctg4 84&lt;br&gt;Location: 99305 - 100724" locus_tag="ctg4_84" class="clusterblast-orf" id="dummy-1_q8_0_all"  />
<polygon points="267,40 283,40 288,35 283,30 267,30 267,40 " style="fill:#36d815; stroke-width:1; stroke:black; " description="&lt;b&gt;ctg4_85&lt;/b&gt;&lt;br&gt;ctg4 85&lt;br&gt;Location: 100977 - 102045" locus_tag="ctg4_85" class="clusterblast-orf" id="dummy-1_q9_0_all"  />
<polygon points="292,35 297,30 317,30 317,40 297,40 292,35 " style="fill:#1597d8; stroke-width:1; stroke:black; " description="&lt;b&gt;ctg4_86&lt;/b&gt;&lt;br&gt;ctg4 86&lt;br&gt;Location: 102225 - 103500" locus_tag="ctg4_86" class="clusterblast-orf" id="dummy-1_q10_0_all"  />
<polygon points="319,40 332,40 337,35 332,30 319,30 319,40 " style="fill:#b815d8; stroke-width:1; stroke:black; " description="&lt;b&gt;ctg4_87&lt;/b&gt;&lt;br&gt;ctg4 87&lt;br&gt;Location: 103624 - 104518" locus_tag="ctg4_87" class="clusterblast-orf" id="dummy-1_q11_0_all"  />
<polygon points="343,35 348,30 351,30 351,40 348,40 343,35 " style="fill:#d87715; stroke-width:1; stroke:black; " description="&lt;b&gt;ctg4_88&lt;/b&gt;&lt;br&gt;ctg4 88&lt;br&gt;Location: 104817 - 105267" locus_tag="ctg4_88" class="clusterblast-orf" id="dummy-1_q12_0_all"  />
<polygon points="352,35 357,30 376,30 376,40 357,40 352,35 " style="fill:#15d815; stroke-width:1; stroke:black; " description="&lt;b&gt;ctg4_89&lt;/b&gt;&lt;br&gt;ctg4 89&lt;br&gt;Location: 105294 - 106521" locus_tag="ctg4_89" class="clusterblast-orf" id="dummy-1_q13_0_all"  />
<polygon points="376,35 381,30 390,30 390,40 381,40 376,35 " style="fill:#1577d8; stroke-width:1; stroke:black; " description="&lt;b&gt;ctg4_90&lt;/b&gt;&lt;br&gt;ctg4 90&lt;br&gt;Location: 106520 - 107249" locus_tag="ctg4_90" class="clusterblast-orf" id="dummy-1_q14_0_all"  />
<polygon points="390,35 395,30 399,30 399,40 395,40 390,35 " style="fill:#d815d8; stroke-width:1; stroke:black; " description="&lt;b&gt;ctg4_91&lt;/b&gt;&lt;br&gt;ctg4 91&lt;br&gt;Location: 107245 - 107707" locus_tag="ctg4_91" class="clusterblast-orf" id="dummy-1_q15_0_all"  />
<polygon points="399,35 404,30 422,30 422,40 404,40 399,35 " style="fill:#15d815; stroke-width:1; stroke:black; " description="&lt;b&gt;ctg4_92&lt;/b&gt;&lt;br&gt;ctg4 92&lt;br&gt;Location: 107703 - 108870" locus_tag="ctg4_92" class="clusterblast-orf" id="dummy-1_q16_0_all"  />
<polygon points="422,35 427,30 432,30 432,40 427,40 422,35 " style="fill:#d89715; stroke-width:1; stroke:black; " description="&lt;b&gt;ctg4_93&lt;/b&gt;&lt;br&gt;ctg4 93&lt;br&gt;Location: 108866 - 109349" locus_tag="ctg4_93" class="clusterblast-orf" id="dummy-1_q17_0_all"  />
<polygon points="432,35 437,30 446,30 446,40 437,40 432,35 " style="fill:#15d836; stroke-width:1; stroke:black; " description="&lt;b&gt;ctg4_94&lt;/b&gt;&lt;br&gt;ctg4 94&lt;br&gt;Location: 109345 - 110080" locus_tag="ctg4_94" class="clusterblast-orf" id="dummy-1_q18_0_all"  />
<polygon points="446,35 451,30 470,30 470,40 451,40 446,35 " style="fill:#1556d8; stroke-width:1; stroke:black; " description="&lt;b&gt;ctg4_95&lt;/b&gt;&lt;br&gt;ctg4 95&lt;br&gt;Location: 110076 - 111324" locus_tag="ctg4_95" class="clusterblast-orf" id="dummy-1_q19_0_all"  />
<polygon points="471,35 476,30 517,30 517,40 476,40 471,35 " style="fill:#d815b8; stroke-width:1; stroke:black; " description="&lt;b&gt;ctg4_96&lt;/b&gt;&lt;br&gt;ctg4 96&lt;br&gt;Location: 111357 - 113670" locus_tag="ctg4_96" class="clusterblast-orf" id="dummy-1_q20_0_all"  />
<polygon points="516,35 521,30 529,30 529,40 521,40 516,35 " style="fill:#d8b815; stroke-width:1; stroke:black; " description="&lt;b&gt;ctg4_97&lt;/b&gt;&lt;br&gt;ctg4 97&lt;br&gt;Location: 113659 - 114319" locus_tag="ctg4_97" class="clusterblast-orf" id="dummy-1_q21_0_all"  />
<polygon points="530,35 535,30 538,30 538,40 535,40 530,35 " style="fill:#15d856; stroke-width:1; stroke:black; " description="&lt;b&gt;ctg4_98&lt;/b&gt;&lt;br&gt;ctg4 98&lt;br&gt;Location: 114339 - 114765" locus_tag="ctg4_98" class="clusterblast-orf" id="dummy-1_q22_0_all"  />
<polygon points="538,35 543,30 568,30 568,40 543,40 538,35 " style="fill:#1536d8; stroke-width:1; stroke:black; " description="&lt;b&gt;ctg4_99&lt;/b&gt;&lt;br&gt;ctg4 99&lt;br&gt;Location: 114757 - 116299" locus_tag="ctg4_99" class="clusterblast-orf" id="dummy-1_q23_0_all"  />
<polygon points="568,35 573,30 586,30 586,40 573,40 568,35 " style="fill:#d81597; stroke-width:1; stroke:black; " description="&lt;b&gt;ctg4_100&lt;/b&gt;&lt;br&gt;ctg4 100&lt;br&gt;Location: 116282 - 117218" locus_tag="ctg4_100" class="clusterblast-orf" id="dummy-1_q24_0_all"  />
<polygon points="586,35 591,30 601,30 601,40 591,40 586,35 " style="fill:#d8d815; stroke-width:1; stroke:black; " description="&lt;b&gt;ctg4_101&lt;/b&gt;&lt;br&gt;ctg4 101&lt;br&gt;Location: 117214 - 117949" locus_tag="ctg4_101" class="clusterblast-orf" id="dummy-1_q25_0_all"  />
<polygon points="601,35 606,30 633,30 633,40 606,40 601,35 " style="fill:#d8d815; stroke-width:1; stroke:black; " description="&lt;b&gt;ctg4_102&lt;/b&gt;&lt;br&gt;ctg4 102&lt;br&gt;Location: 117941 - 119612" locus_tag="ctg4_102" class="clusterblast-orf" id="dummy-1_q26_0_all"  />
<polygon points="633,35 638,30 644,30 644,40 638,40 633,35 " style="fill:#15d877; stroke-width:1; stroke:black; " description="&lt;b&gt;ctg4_103&lt;/b&gt;&lt;br&gt;ctg4 103&lt;br&gt;Location: 119608 - 120154" locus_tag="ctg4_103" class="clusterblast-orf" id="dummy-1_q27_0_all"  />
<polygon points="644,35 649,30 649,30 649,40 649,40 644,35 " style="fill:#1515d8; stroke-width:1; stroke:black; " description="&lt;b&gt;ctg4_104&lt;/b&gt;&lt;br&gt;ctg4 104&lt;br&gt;Location: 120150 - 120405" locus_tag="ctg4_104" class="clusterblast-orf" id="dummy-1_q28_0_all"  />
<polygon points="649,35 654,30 655,30 655,40 654,40 649,35 " style="fill:#d81577; stroke-width:1; stroke:black; " description="&lt;b&gt;ctg4_105&lt;/b&gt;&lt;br&gt;ctg4 105&lt;br&gt;Location: 120414 - 120684" locus_tag="ctg4_105" class="clusterblast-orf" id="dummy-1_q29_0_all"  />
<polygon points="654,35 659,30 670,30 670,40 659,40 654,35 " style="fill:#b8d815; stroke-width:1; stroke:black; " description="&lt;b&gt;ctg4_106&lt;/b&gt;&lt;br&gt;ctg4 106&lt;br&gt;Location: 120661 - 121474" locus_tag="ctg4_106" class="clusterblast-orf" id="dummy-1_q30_0_all"  />
<polygon points="670,35 675,30 684,30 684,40 675,40 670,35 " style="fill:#15d897; stroke-width:1; stroke:black; " description="&lt;b&gt;ctg4_107&lt;/b&gt;&lt;br&gt;ctg4 107&lt;br&gt;Location: 121449 - 122169" locus_tag="ctg4_107" class="clusterblast-orf" id="dummy-1_q31_0_all"  />
<polygon points="690,40 701,40 706,35 701,30 690,30 690,40 " style="fill:#3615d8; stroke-width:1; stroke:black; " description="&lt;b&gt;ctg4_108&lt;/b&gt;&lt;br&gt;ctg4 108&lt;br&gt;Location: 122507 - 123278" locus_tag="ctg4_108" class="clusterblast-orf" id="dummy-1_q32_0_all"  />
<polygon points="715,40 719,35 715,30 715,40 " style="fill:#d81556; stroke-width:1; stroke:black; " description="&lt;b&gt;ctg4_109&lt;/b&gt;&lt;br&gt;ctg4 109&lt;br&gt;Location: 123755 - 123983" locus_tag="ctg4_109" class="clusterblast-orf" id="dummy-1_q33_0_all"  />
<polygon points="722,35 727,30 731,30 731,40 727,40 722,35 " style="fill:#97d815; stroke-width:1; stroke:black; " description="&lt;b&gt;ctg4_110&lt;/b&gt;&lt;br&gt;ctg4 110&lt;br&gt;Location: 124114 - 124549" locus_tag="ctg4_110" class="clusterblast-orf" id="dummy-1_q34_0_all"  />
<polygon points="735,40 736,40 741,35 736,30 735,30 735,40 " style="fill:#15d8b8; stroke-width:1; stroke:black; " description="&lt;b&gt;ctg4_111&lt;/b&gt;&lt;br&gt;ctg4 111&lt;br&gt;Location: 124783 - 125080" locus_tag="ctg4_111" class="clusterblast-orf" id="dummy-1_q35_0_all"  />
<polygon points="741,40 744,40 749,35 744,30 741,30 741,40 " style="fill:#5615d8; stroke-width:1; stroke:black; " description="&lt;b&gt;ctg4_112&lt;/b&gt;&lt;br&gt;ctg4 112&lt;br&gt;Location: 125076 - 125478" locus_tag="ctg4_112" class="clusterblast-orf" id="dummy-1_q36_0_all"  />
<polygon points="749,35 754,30 778,30 778,40 754,40 749,35 " style="fill:#d81536; stroke-width:1; stroke:black; " description="&lt;b&gt;ctg4_113&lt;/b&gt;&lt;br&gt;ctg4 113&lt;br&gt;Location: 125483 - 126947" locus_tag="ctg4_113" class="clusterblast-orf" id="dummy-1_q37_0_all"  />
</g>
<g label="NZ_CP027724" description="NZ_CP027724 (474291-517867): Pseudomonas orientalis strain L1-3-08 chromosome... (100% of genes show similarity), arylpolyene" class="clusterblast-cluster"  >
<text x="5" y="70" class="clusterblast-acc"  >
<a xlink:href="https://antismash-db.secondarymetabolites.org/area.html?record=NZ_CP027724&amp;start=474291&amp;end=517867" target="_blank">NZ_CP027724 (474291-517867)</a>: Pseudomonas orientalis strain L1-3-08 chromosome... (100% of genes show similarity), arylpolyene</text>
<line x1="10" y1="85" x2="778.0" y2="85" style="stroke-width:1; stroke:grey; "  />
</g>
<g id="a1_000"  >
<polygon points="0,90 7,90 12,85 7,80 0,80 0,90 " style="fill:#d81515; stroke-width:1; stroke:black; " description="&lt;b&gt;C4J97_RS02035&lt;/b&gt;&lt;br&gt;type IV pilus assembly protein PilM&lt;br&gt;Location: 476872 - 477528&lt;br&gt;&lt;br&gt;&lt;b&gt;BlastP hit with ctg4_76&lt;/b&gt;&lt;br&gt;Percentage identity: 79&lt;br&gt;Percentage coverage: 100&lt;br&gt;BLAST bit score: 329&lt;br&gt;E-value: 6.6e-114" locus_tag="C4J97_RS02035" class="clusterblast-orf" id="dummy-1_h1_2_0"  />
</g>
<g id="a1_001"  >
<polygon points="12,90 18,90 23,85 18,80 12,80 12,90 " style="fill:#77d815; stroke-width:1; stroke:black; " description="&lt;b&gt;C4J97_RS02040&lt;/b&gt;&lt;br&gt;fimbriae biosynthesis protein&lt;br&gt;Location: 477525 - 478076&lt;br&gt;&lt;br&gt;&lt;b&gt;BlastP hit with ctg4_77&lt;/b&gt;&lt;br&gt;Percentage identity: 75&lt;br&gt;Percentage coverage: 100&lt;br&gt;BLAST bit score: 263&lt;br&gt;E-value: 7.69e-89" locus_tag="C4J97_RS02040" class="clusterblast-orf" id="dummy-1_h1_2_1"  />
</g>
<g id="a1_002"  >
<polygon points="23,90 37,90 42,85 37,80 23,80 23,90 " style="fill:#15d8d8; stroke-width:1; stroke:black; " description="&lt;b&gt;C4J97_RS02045&lt;/b&gt;&lt;br&gt;type 4a pilus biogenesis protein PilO&lt;br&gt;Location: 478073 - 479044&lt;br&gt;&lt;br&gt;&lt;b&gt;BlastP hit with ctg4_78&lt;/b&gt;&lt;br&gt;Percentage identity: 60&lt;br&gt;Percentage coverage: 100&lt;br&gt;BLAST bit score: 379&lt;br&gt;E-value: 1.74e-130" locus_tag="C4J97_RS02045" class="clusterblast-orf" id="dummy-1_h1_2_2"  />
</g>
<g id="a1_003"  >
<polygon points="44,90 65,90 70,85 65,80 44,80 44,90 " style="fill:#7715d8; stroke-width:1; stroke:black; " description="&lt;b&gt;C4J97_RS02050&lt;/b&gt;&lt;br&gt;type IV pilus secretin PilQ family protein&lt;br&gt;Location: 479115 - 480440&lt;br&gt;&lt;br&gt;&lt;b&gt;BlastP hit with ctg4_79&lt;/b&gt;&lt;br&gt;Percentage identity: 89&lt;br&gt;Percentage coverage: 96&lt;br&gt;BLAST bit score: 762&lt;br&gt;E-value: 2.23e-277" locus_tag="C4J97_RS02050" class="clusterblast-orf" id="dummy-1_h1_2_3"  />
</g>
<g id="a1_004"  >
<polygon points="70,90 75,90 80,85 75,80 70,80 70,90 " style="fill:#d83615; stroke-width:1; stroke:black; " description="&lt;b&gt;C4J97_RS02055&lt;/b&gt;&lt;br&gt;shikimate kinase AroK&lt;br&gt;Location: 480445 - 480963&lt;br&gt;&lt;br&gt;&lt;b&gt;BlastP hit with ctg4_80&lt;/b&gt;&lt;br&gt;Percentage identity: 97&lt;br&gt;Percentage coverage: 100&lt;br&gt;BLAST bit score: 310&lt;br&gt;E-value: 6.07e-108" locus_tag="C4J97_RS02055" class="clusterblast-orf" id="dummy-1_h1_2_4"  />
</g>
<g id="a1_005"  >
<polygon points="82,90 99,90 104,85 99,80 82,80 82,90 " style="fill:#56d815; stroke-width:1; stroke:black; " description="&lt;b&gt;C4J97_RS02060&lt;/b&gt;&lt;br&gt;3-dehydroquinate synthase&lt;br&gt;Location: 481089 - 482189&lt;br&gt;&lt;br&gt;&lt;b&gt;BlastP hit with ctg4_81&lt;/b&gt;&lt;br&gt;Percentage identity: 98&lt;br&gt;Percentage coverage: 100&lt;br&gt;BLAST bit score: 709&lt;br&gt;E-value: 3.19e-259" locus_tag="C4J97_RS02060" class="clusterblast-orf" id="dummy-1_h1_2_5"  />
</g>
<g id="a1_006"  >
<polygon points="104,90 130,90 135,85 130,80 104,80 104,90 " style="fill:#15b8d8; stroke-width:1; stroke:black; " description="&lt;b&gt;C4J97_RS02065&lt;/b&gt;&lt;br&gt;AAA family ATPase&lt;br&gt;Location: 482200 - 483774&lt;br&gt;&lt;br&gt;&lt;b&gt;BlastP hit with ctg4_82&lt;/b&gt;&lt;br&gt;Percentage identity: 91&lt;br&gt;Percentage coverage: 100&lt;br&gt;BLAST bit score: 839&lt;br&gt;E-value: 1.37e-305" locus_tag="C4J97_RS02065" class="clusterblast-orf" id="dummy-1_h1_2_6"  />
</g>
<g id="a1_007"  >
<polygon points="142,90 225,90 230,85 225,80 142,80 142,90 " style="fill:#9715d8; stroke-width:1; stroke:black; " description="&lt;b&gt;C4J97_RS02075&lt;/b&gt;&lt;br&gt;glutamate synthase large subunit&lt;br&gt;Location: 484124 - 488569&lt;br&gt;&lt;br&gt;&lt;b&gt;BlastP hit with ctg4_83&lt;/b&gt;&lt;br&gt;Percentage identity: 98&lt;br&gt;Percentage coverage: 100&lt;br&gt;BLAST bit score: 2861&lt;br&gt;E-value: 0.0" locus_tag="C4J97_RS02075" class="clusterblast-orf" id="dummy-1_h1_2_7"  />
</g>
<g id="a1_008"  >
<polygon points="230,90 253,90 258,85 253,80 230,80 230,90 " style="fill:#d85615; stroke-width:1; stroke:black; " description="&lt;b&gt;C4J97_RS02080&lt;/b&gt;&lt;br&gt;FAD-dependent oxidoreductase&lt;br&gt;Location: 488602 - 490020&lt;br&gt;&lt;br&gt;&lt;b&gt;BlastP hit with ctg4_84&lt;/b&gt;&lt;br&gt;Percentage identity: 99&lt;br&gt;Percentage coverage: 100&lt;br&gt;BLAST bit score: 957&lt;br&gt;E-value: 0.0" locus_tag="C4J97_RS02080" class="clusterblast-orf" id="dummy-1_h1_2_8"  />
</g>
<g id="a1_009"  >
<polygon points="263,90 279,90 284,85 279,80 263,80 263,90 " style="fill:#36d815; stroke-width:1; stroke:black; " description="&lt;b&gt;C4J97_RS02085&lt;/b&gt;&lt;br&gt;uroporphyrinogen decarboxylase&lt;br&gt;Location: 490263 - 491330&lt;br&gt;&lt;br&gt;&lt;b&gt;BlastP hit with ctg4_85&lt;/b&gt;&lt;br&gt;Percentage identity: 98&lt;br&gt;Percentage coverage: 100&lt;br&gt;BLAST bit score: 707&lt;br&gt;E-value: 7.82e-259" locus_tag="C4J97_RS02085" class="clusterblast-orf" id="dummy-1_h1_2_9"  />
</g>
<g id="a1_0010"  >
<polygon points="286,85 291,80 311,80 311,90 291,90 286,85 " style="fill:#1597d8; stroke-width:1; stroke:black; " description="&lt;b&gt;C4J97_RS02090&lt;/b&gt;&lt;br&gt;MFS transporter&lt;br&gt;Location: 491454 - 492728&lt;br&gt;&lt;br&gt;&lt;b&gt;BlastP hit with ctg4_86&lt;/b&gt;&lt;br&gt;Percentage identity: 94&lt;br&gt;Percentage coverage: 99&lt;br&gt;BLAST bit score: 749&lt;br&gt;E-value: 4.1e-273" locus_tag="C4J97_RS02090" class="clusterblast-orf" id="dummy-1_h1_2_10"  />
</g>
<g id="a1_0011"  >
<polygon points="314,90 326,90 331,85 326,80 314,80 314,90 " style="fill:#b815d8; stroke-width:1; stroke:black; " description="&lt;b&gt;C4J97_RS02095&lt;/b&gt;&lt;br&gt;LysR family transcriptional regulator&lt;br&gt;Location: 492853 - 493755&lt;br&gt;&lt;br&gt;&lt;b&gt;BlastP hit with ctg4_87&lt;/b&gt;&lt;br&gt;Percentage identity: 94&lt;br&gt;Percentage coverage: 99&lt;br&gt;BLAST bit score: 531&lt;br&gt;E-value: 4.38e-191" locus_tag="C4J97_RS02095" class="clusterblast-orf" id="dummy-1_h1_2_11"  />
</g>
<g id="a1_0012"  >
<polygon points="334,85 339,80 342,80 342,90 339,90 334,85 " style="fill:#d87715; stroke-width:1; stroke:black; " description="&lt;b&gt;C4J97_RS02100&lt;/b&gt;&lt;br&gt;hypothetical protein&lt;br&gt;Location: 493870 - 494265&lt;br&gt;&lt;br&gt;&lt;b&gt;BlastP hit with ctg4_88&lt;/b&gt;&lt;br&gt;Percentage identity: 88&lt;br&gt;Percentage coverage: 87&lt;br&gt;BLAST bit score: 224&lt;br&gt;E-value: 4.2e-75" locus_tag="C4J97_RS02100" class="clusterblast-orf" id="dummy-1_h1_2_12"  />
</g>
<g id="a1_0013"  >
<polygon points="342,85 347,80 366,80 366,90 347,90 342,85 " style="fill:#15d815; stroke-width:1; stroke:black; " description="&lt;b&gt;C4J97_RS02105&lt;/b&gt;&lt;br&gt;beta-ketoacyl-ACP synthase&lt;br&gt;Location: 494292 - 495518&lt;br&gt;&lt;br&gt;&lt;b&gt;BlastP hit with ctg4_89&lt;/b&gt;&lt;br&gt;Percentage identity: 98&lt;br&gt;Percentage coverage: 100&lt;br&gt;BLAST bit score: 811&lt;br&gt;E-value: 3.44e-298" locus_tag="C4J97_RS02105" class="clusterblast-orf" id="dummy-1_h1_2_13"  />
</g>
<g id="a1_0014"  >
<polygon points="366,85 371,80 380,80 380,90 371,90 366,85 " style="fill:#1577d8; stroke-width:1; stroke:black; " description="&lt;b&gt;C4J97_RS02110&lt;/b&gt;&lt;br&gt;3-oxoacyl-ACP reductase FabG&lt;br&gt;Location: 495518 - 496246&lt;br&gt;&lt;br&gt;&lt;b&gt;BlastP hit with ctg4_90&lt;/b&gt;&lt;br&gt;Percentage identity: 96&lt;br&gt;Percentage coverage: 100&lt;br&gt;BLAST bit score: 457&lt;br&gt;E-value: 7.4e-164" locus_tag="C4J97_RS02110" class="clusterblast-orf" id="dummy-1_h1_2_14"  />
</g>
<g id="a1_0015"  >
<polygon points="380,85 385,80 389,80 389,90 385,90 380,85 " style="fill:#d815d8; stroke-width:1; stroke:black; " description="&lt;b&gt;C4J97_RS02115&lt;/b&gt;&lt;br&gt;hotdog family protein&lt;br&gt;Location: 496243 - 496704&lt;br&gt;&lt;br&gt;&lt;b&gt;BlastP hit with ctg4_91&lt;/b&gt;&lt;br&gt;Percentage identity: 93&lt;br&gt;Percentage coverage: 100&lt;br&gt;BLAST bit score: 292&lt;br&gt;E-value: 2.16e-101" locus_tag="C4J97_RS02115" class="clusterblast-orf" id="dummy-1_h1_2_15"  />
</g>
<g id="a1_0016"  >
<polygon points="389,85 394,80 412,80 412,90 394,90 389,85 " style="fill:#15d815; stroke-width:1; stroke:black; " description="&lt;b&gt;C4J97_RS02120&lt;/b&gt;&lt;br&gt;beta-ketoacyl-[acyl-carrier-protein] synthase family protein&lt;br&gt;Location: 496701 - 497867&lt;br&gt;&lt;br&gt;&lt;b&gt;BlastP hit with ctg4_92&lt;/b&gt;&lt;br&gt;Percentage identity: 89&lt;br&gt;Percentage coverage: 100&lt;br&gt;BLAST bit score: 698&lt;br&gt;E-value: 2.29e-254" locus_tag="C4J97_RS02120" class="clusterblast-orf" id="dummy-1_h1_2_16"  />
</g>
<g id="a1_0017"  >
<polygon points="412,85 417,80 422,80 422,90 417,90 412,85 " style="fill:#d89715; stroke-width:1; stroke:black; " description="&lt;b&gt;C4J97_RS02125&lt;/b&gt;&lt;br&gt;hypothetical protein&lt;br&gt;Location: 497864 - 498346&lt;br&gt;&lt;br&gt;&lt;b&gt;BlastP hit with ctg4_93&lt;/b&gt;&lt;br&gt;Percentage identity: 83&lt;br&gt;Percentage coverage: 100&lt;br&gt;BLAST bit score: 271&lt;br&gt;E-value: 8.88e-93" locus_tag="C4J97_RS02125" class="clusterblast-orf" id="dummy-1_h1_2_17"  />
</g>
<g id="a1_0018"  >
<polygon points="422,85 427,80 436,80 436,90 427,90 422,85 " style="fill:#15d836; stroke-width:1; stroke:black; " description="&lt;b&gt;C4J97_RS02130&lt;/b&gt;&lt;br&gt;methyltransferase domain-containing protein&lt;br&gt;Location: 498343 - 499092&lt;br&gt;&lt;br&gt;&lt;b&gt;BlastP hit with ctg4_94&lt;/b&gt;&lt;br&gt;Percentage identity: 89&lt;br&gt;Percentage coverage: 98&lt;br&gt;BLAST bit score: 449&lt;br&gt;E-value: 2.33e-160" locus_tag="C4J97_RS02130" class="clusterblast-orf" id="dummy-1_h1_2_18"  />
</g>
<g id="a1_0019"  >
<polygon points="436,85 441,80 461,80 461,90 441,90 436,85 " style="fill:#1556d8; stroke-width:1; stroke:black; " description="&lt;b&gt;C4J97_RS02135&lt;/b&gt;&lt;br&gt;NAD(P)/FAD-dependent oxidoreductase&lt;br&gt;Location: 499089 - 500336&lt;br&gt;&lt;br&gt;&lt;b&gt;BlastP hit with ctg4_95&lt;/b&gt;&lt;br&gt;Percentage identity: 92&lt;br&gt;Percentage coverage: 100&lt;br&gt;BLAST bit score: 788&lt;br&gt;E-value: 4.11e-289" locus_tag="C4J97_RS02135" class="clusterblast-orf" id="dummy-1_h1_2_19"  />
</g>
<g id="a1_0020"  >
<polygon points="462,85 467,80 507,80 507,90 467,90 462,85 " style="fill:#d815b8; stroke-width:1; stroke:black; " description="&lt;b&gt;C4J97_RS02140&lt;/b&gt;&lt;br&gt;MMPL family transporter&lt;br&gt;Location: 500370 - 502700&lt;br&gt;&lt;br&gt;&lt;b&gt;BlastP hit with ctg4_96&lt;/b&gt;&lt;br&gt;Percentage identity: 93&lt;br&gt;Percentage coverage: 100&lt;br&gt;BLAST bit score: 1363&lt;br&gt;E-value: 0.0" locus_tag="C4J97_RS02140" class="clusterblast-orf" id="dummy-1_h1_2_20"  />
</g>
<g id="a1_0021"  >
<polygon points="507,85 512,80 520,80 520,90 512,90 507,85 " style="fill:#d8b815; stroke-width:1; stroke:black; " description="&lt;b&gt;C4J97_RS02145&lt;/b&gt;&lt;br&gt;outer membrane lipoprotein carrier protein LolA&lt;br&gt;Location: 502672 - 503355&lt;br&gt;&lt;br&gt;&lt;b&gt;BlastP hit with ctg4_97&lt;/b&gt;&lt;br&gt;Percentage identity: 90&lt;br&gt;Percentage coverage: 100&lt;br&gt;BLAST bit score: 377&lt;br&gt;E-value: 1.22e-132" locus_tag="C4J97_RS02145" class="clusterblast-orf" id="dummy-1_h1_2_21"  />
</g>
<g id="a1_0022"  >
<polygon points="520,85 525,80 529,80 529,90 525,90 520,85 " style="fill:#15d856; stroke-width:1; stroke:black; " description="&lt;b&gt;C4J97_RS02150&lt;/b&gt;&lt;br&gt;acyl-CoA thioesterase&lt;br&gt;Location: 503352 - 503777&lt;br&gt;&lt;br&gt;&lt;b&gt;BlastP hit with ctg4_98&lt;/b&gt;&lt;br&gt;Percentage identity: 90&lt;br&gt;Percentage coverage: 100&lt;br&gt;BLAST bit score: 263&lt;br&gt;E-value: 1.7e-90" locus_tag="C4J97_RS02150" class="clusterblast-orf" id="dummy-1_h1_2_22"  />
</g>
<g id="a1_0023"  >
<polygon points="528,85 533,80 559,80 559,90 533,90 528,85 " style="fill:#1536d8; stroke-width:1; stroke:black; " description="&lt;b&gt;C4J97_RS02155&lt;/b&gt;&lt;br&gt;aromatic amino acid lyase&lt;br&gt;Location: 503770 - 505311&lt;br&gt;&lt;br&gt;&lt;b&gt;BlastP hit with ctg4_99&lt;/b&gt;&lt;br&gt;Percentage identity: 97&lt;br&gt;Percentage coverage: 100&lt;br&gt;BLAST bit score: 992&lt;br&gt;E-value: 0.0" locus_tag="C4J97_RS02155" class="clusterblast-orf" id="dummy-1_h1_2_23"  />
</g>
<g id="a1_0024"  >
<polygon points="558,85 563,80 577,80 577,90 563,90 558,85 " style="fill:#d81597; stroke-width:1; stroke:black; " description="&lt;b&gt;C4J97_RS02160&lt;/b&gt;&lt;br&gt;glycosyl transferase&lt;br&gt;Location: 505295 - 506230&lt;br&gt;&lt;br&gt;&lt;b&gt;BlastP hit with ctg4_100&lt;/b&gt;&lt;br&gt;Percentage identity: 92&lt;br&gt;Percentage coverage: 100&lt;br&gt;BLAST bit score: 600&lt;br&gt;E-value: 6.06e-218" locus_tag="C4J97_RS02160" class="clusterblast-orf" id="dummy-1_h1_2_24"  />
</g>
<g id="a1_0025"  >
<polygon points="577,85 582,80 591,80 591,90 582,90 577,85 " style="fill:#d8d815; stroke-width:1; stroke:black; " description="&lt;b&gt;C4J97_RS02165&lt;/b&gt;&lt;br&gt;glycosyltransferase family 2 protein&lt;br&gt;Location: 506227 - 506961&lt;br&gt;&lt;br&gt;&lt;b&gt;BlastP hit with ctg4_101&lt;/b&gt;&lt;br&gt;Percentage identity: 93&lt;br&gt;Percentage coverage: 100&lt;br&gt;BLAST bit score: 477&lt;br&gt;E-value: 1.02e-171" locus_tag="C4J97_RS02165" class="clusterblast-orf" id="dummy-1_h1_2_25"  />
</g>
<g id="a1_0026"  >
<polygon points="591,85 596,80 624,80 624,90 596,90 591,85 " style="fill:#d8d815; stroke-width:1; stroke:black; " description="&lt;b&gt;C4J97_RS02170&lt;/b&gt;&lt;br&gt;AMP-binding protein&lt;br&gt;Location: 506954 - 508624&lt;br&gt;&lt;br&gt;&lt;b&gt;BlastP hit with ctg4_102&lt;/b&gt;&lt;br&gt;Percentage identity: 91&lt;br&gt;Percentage coverage: 100&lt;br&gt;BLAST bit score: 1023&lt;br&gt;E-value: 0.0" locus_tag="C4J97_RS02170" class="clusterblast-orf" id="dummy-1_h1_2_26"  />
</g>
<g id="a1_0027"  >
<polygon points="624,85 629,80 635,80 635,90 629,90 624,85 " style="fill:#15d877; stroke-width:1; stroke:black; " description="&lt;b&gt;C4J97_RS02175&lt;/b&gt;&lt;br&gt;hypothetical protein&lt;br&gt;Location: 508621 - 509166&lt;br&gt;&lt;br&gt;&lt;b&gt;BlastP hit with ctg4_103&lt;/b&gt;&lt;br&gt;Percentage identity: 92&lt;br&gt;Percentage coverage: 100&lt;br&gt;BLAST bit score: 340&lt;br&gt;E-value: 1.1e-119" locus_tag="C4J97_RS02175" class="clusterblast-orf" id="dummy-1_h1_2_27"  />
</g>
<g id="a1_0028"  >
<polygon points="634,85 639,80 639,80 639,90 639,90 634,85 " style="fill:#1515d8; stroke-width:1; stroke:black; " description="&lt;b&gt;C4J97_RS02180&lt;/b&gt;&lt;br&gt;acyl carrier protein&lt;br&gt;Location: 509163 - 509417&lt;br&gt;&lt;br&gt;&lt;b&gt;BlastP hit with ctg4_104&lt;/b&gt;&lt;br&gt;Percentage identity: 94&lt;br&gt;Percentage coverage: 100&lt;br&gt;BLAST bit score: 154&lt;br&gt;E-value: 7.75e-49" locus_tag="C4J97_RS02180" class="clusterblast-orf" id="dummy-1_h1_2_28"  />
</g>
<g id="a1_0029"  >
<polygon points="640,85 645,80 645,80 645,90 645,90 640,85 " style="fill:#d81577; stroke-width:1; stroke:black; " description="&lt;b&gt;C4J97_RS02185&lt;/b&gt;&lt;br&gt;acyl carrier protein&lt;br&gt;Location: 509427 - 509696&lt;br&gt;&lt;br&gt;&lt;b&gt;BlastP hit with ctg4_105&lt;/b&gt;&lt;br&gt;Percentage identity: 93&lt;br&gt;Percentage coverage: 100&lt;br&gt;BLAST bit score: 158&lt;br&gt;E-value: 2.32e-50" locus_tag="C4J97_RS02185" class="clusterblast-orf" id="dummy-1_h1_2_29"  />
</g>
<g id="a1_0030"  >
<polygon points="645,85 650,80 660,80 660,90 650,90 645,85 " style="fill:#b8d815; stroke-width:1; stroke:black; " description="&lt;b&gt;C4J97_RS02190&lt;/b&gt;&lt;br&gt;1-acyl-sn-glycerol-3-phosphate acyltransferase&lt;br&gt;Location: 509674 - 510486&lt;br&gt;&lt;br&gt;&lt;b&gt;BlastP hit with ctg4_106&lt;/b&gt;&lt;br&gt;Percentage identity: 88&lt;br&gt;Percentage coverage: 100&lt;br&gt;BLAST bit score: 492&lt;br&gt;E-value: 1.22e-176" locus_tag="C4J97_RS02190" class="clusterblast-orf" id="dummy-1_h1_2_30"  />
</g>
<g id="a1_0031"  >
<polygon points="660,85 665,80 674,80 674,90 665,90 660,85 " style="fill:#15d897; stroke-width:1; stroke:black; " description="&lt;b&gt;C4J97_RS02195&lt;/b&gt;&lt;br&gt;beta-ketoacyl synthase chain length factor&lt;br&gt;Location: 510462 - 511181&lt;br&gt;&lt;br&gt;&lt;b&gt;BlastP hit with ctg4_107&lt;/b&gt;&lt;br&gt;Percentage identity: 92&lt;br&gt;Percentage coverage: 99&lt;br&gt;BLAST bit score: 457&lt;br&gt;E-value: 4.14e-164" locus_tag="C4J97_RS02195" class="clusterblast-orf" id="dummy-1_h1_2_31"  />
</g>
<g id="a1_0032"  >
<polygon points="680,90 691,90 696,85 691,80 680,80 680,90 " style="fill:#3615d8; stroke-width:1; stroke:black; " description="&lt;b&gt;C4J97_RS02200&lt;/b&gt;&lt;br&gt;ParA family protein&lt;br&gt;Location: 511498 - 512268&lt;br&gt;&lt;br&gt;&lt;b&gt;BlastP hit with ctg4_108&lt;/b&gt;&lt;br&gt;Percentage identity: 98&lt;br&gt;Percentage coverage: 100&lt;br&gt;BLAST bit score: 494&lt;br&gt;E-value: 3.55e-178" locus_tag="C4J97_RS02200" class="clusterblast-orf" id="dummy-1_h1_2_32"  />
</g>
<g id="a1_0033"  >
<polygon points="705,90 709,85 705,80 705,90 " style="fill:#d81556; stroke-width:1; stroke:black; " description="&lt;b&gt;C4J97_RS02205&lt;/b&gt;&lt;br&gt;hypothetical protein&lt;br&gt;Location: 512734 - 512952&lt;br&gt;&lt;br&gt;&lt;b&gt;BlastP hit with ctg4_109&lt;/b&gt;&lt;br&gt;Percentage identity: 84&lt;br&gt;Percentage coverage: 92&lt;br&gt;BLAST bit score: 116&lt;br&gt;E-value: 2.39e-34" locus_tag="C4J97_RS02205" class="clusterblast-orf" id="dummy-1_h1_2_33"  />
</g>
<g id="a1_0034"  >
<polygon points="717,90 717,90 722,85 717,80 717,80 717,90 " style="fill:#d81556; stroke-width:1; stroke:black; " description="&lt;b&gt;C4J97_RS02215&lt;/b&gt;&lt;br&gt;hypothetical protein&lt;br&gt;Location: 513370 - 513591&lt;br&gt;&lt;br&gt;&lt;b&gt;BlastP hit with ctg4_109&lt;/b&gt;&lt;br&gt;Percentage identity: 84&lt;br&gt;Percentage coverage: 92&lt;br&gt;BLAST bit score: 114&lt;br&gt;E-value: 2.87e-33" locus_tag="C4J97_RS02215" class="clusterblast-orf" id="dummy-1_h1_2_34"  />
</g>
<g id="a1_0035"  >
<polygon points="724,85 729,80 733,80 733,90 729,90 724,85 " style="fill:#97d815; stroke-width:1; stroke:black; " description="&lt;b&gt;C4J97_RS02220&lt;/b&gt;&lt;br&gt;thioredoxin TrxC&lt;br&gt;Location: 513721 - 514155&lt;br&gt;&lt;br&gt;&lt;b&gt;BlastP hit with ctg4_110&lt;/b&gt;&lt;br&gt;Percentage identity: 96&lt;br&gt;Percentage coverage: 100&lt;br&gt;BLAST bit score: 291&lt;br&gt;E-value: 2.22e-101" locus_tag="C4J97_RS02220" class="clusterblast-orf" id="dummy-1_h1_2_35"  />
</g>
<g id="a1_0036"  >
<polygon points="737,90 738,90 743,85 738,80 737,80 737,90 " style="fill:#15d8b8; stroke-width:1; stroke:black; " description="&lt;b&gt;C4J97_RS02225&lt;/b&gt;&lt;br&gt;type II toxin-antitoxin system HigB family toxin&lt;br&gt;Location: 514377 - 514673&lt;br&gt;&lt;br&gt;&lt;b&gt;BlastP hit with ctg4_111&lt;/b&gt;&lt;br&gt;Percentage identity: 78&lt;br&gt;Percentage coverage: 100&lt;br&gt;BLAST bit score: 162&lt;br&gt;E-value: 6.54e-52" locus_tag="C4J97_RS02225" class="clusterblast-orf" id="dummy-1_h1_2_36"  />
</g>
<g id="a1_0037"  >
<polygon points="743,90 746,90 751,85 746,80 743,80 743,90 " style="fill:#5615d8; stroke-width:1; stroke:black; " description="&lt;b&gt;C4J97_RS02230&lt;/b&gt;&lt;br&gt;transcriptional regulator&lt;br&gt;Location: 514670 - 515071&lt;br&gt;&lt;br&gt;&lt;b&gt;BlastP hit with ctg4_112&lt;/b&gt;&lt;br&gt;Percentage identity: 85&lt;br&gt;Percentage coverage: 100&lt;br&gt;BLAST bit score: 231&lt;br&gt;E-value: 8.57e-78" locus_tag="C4J97_RS02230" class="clusterblast-orf" id="dummy-1_h1_2_37"  />
</g>
<g id="a1_0038"  >
<polygon points="751,85 756,80 780,80 780,90 756,90 751,85 " style="fill:#d81536; stroke-width:1; stroke:black; " description="&lt;b&gt;C4J97_RS02235&lt;/b&gt;&lt;br&gt;YdiU family protein&lt;br&gt;Location: 515076 - 516539&lt;br&gt;&lt;br&gt;&lt;b&gt;BlastP hit with ctg4_113&lt;/b&gt;&lt;br&gt;Percentage identity: 95&lt;br&gt;Percentage coverage: 100&lt;br&gt;BLAST bit score: 944&lt;br&gt;E-value: 0.0" locus_tag="C4J97_RS02235" class="clusterblast-orf" id="dummy-1_h1_2_38"  />
</g>
</svg>
