<svg xmlns="http://www.w3.org/2000/svg" xmlns:xlink="http://www.w3.org/1999/xlink" version="1.1" x="0" y="0" height="230" width="800" viewBox="0 0 800 230" preserveAspectRatio="none"  >
<g label="Query sequence" class="clusterblast-cluster"  >
<text x="5" y="20" class="clusterblast-acc"  >
Query sequence</text>
<line x1="10" y1="35" x2="778.0" y2="35" style="stroke-width:1; stroke:grey; "  />
<polygon points="0,35 5,30 43,30 43,40 5,40 0,35 " style="fill:#d81515; stroke-width:1; stroke:black; " description="&lt;b&gt;ctg3_388&lt;/b&gt;&lt;br&gt;ctg3 388&lt;br&gt;Location: 401602 - 402124" locus_tag="ctg3_388" class="clusterblast-orf" id="dummy-1_q0_0_all"  />
<polygon points="54,40 168,40 173,35 168,30 54,30 54,40 " style="fill:#15d815; stroke-width:1; stroke:black; " description="&lt;b&gt;ctg3_389&lt;/b&gt;&lt;br&gt;ctg3 389&lt;br&gt;Location: 402254 - 403694" locus_tag="ctg3_389" class="clusterblast-orf" id="dummy-1_q1_0_all"  />
<polygon points="184,35 189,30 282,30 282,40 189,40 184,35 " style="fill:#1597d8; stroke-width:1; stroke:black; " description="&lt;b&gt;ctg3_390&lt;/b&gt;&lt;br&gt;ctg3 390&lt;br&gt;Location: 403832 - 405017" locus_tag="ctg3_390" class="clusterblast-orf" id="dummy-1_q2_0_all"  />
<polygon points="289,35 294,30 354,30 354,40 294,40 289,35 " style="fill:#9715d8; stroke-width:1; stroke:black; " description="&lt;b&gt;ctg3_391&lt;/b&gt;&lt;br&gt;ctg3 391&lt;br&gt;Location: 405104 - 405893" locus_tag="ctg3_391" class="clusterblast-orf" id="dummy-1_q3_0_all"  />
<polygon points="353,35 358,30 423,30 423,40 358,40 353,35 " style="fill:#d89715; stroke-width:1; stroke:black; " description="&lt;b&gt;ctg3_392&lt;/b&gt;&lt;br&gt;ctg3 392&lt;br&gt;Location: 405883 - 406729" locus_tag="ctg3_392" class="clusterblast-orf" id="dummy-1_q4_0_all"  />
<polygon points="428,35 433,30 449,30 449,40 433,40 428,35 " style="fill:#15d897; stroke-width:1; stroke:black; " description="&lt;b&gt;ctg3_393&lt;/b&gt;&lt;br&gt;ctg3 393&lt;br&gt;Location: 406796 - 407048" locus_tag="ctg3_393" class="clusterblast-orf" id="dummy-1_q5_0_all"  />
<polygon points="459,35 464,30 614,30 614,40 464,40 459,35 " style="fill:#1515d8; stroke-width:1; stroke:black; " description="&lt;b&gt;ctg3_394&lt;/b&gt;&lt;br&gt;ctg3 394&lt;br&gt;Location: 407165 - 409052" locus_tag="ctg3_394" class="clusterblast-orf" id="dummy-1_q6_0_all"  />
<polygon points="614,35 619,30 699,30 699,40 619,40 614,35 " style="fill:#d81597; stroke-width:1; stroke:black; " description="&lt;b&gt;ctg3_395&lt;/b&gt;&lt;br&gt;ctg3 395&lt;br&gt;Location: 409048 - 410083" locus_tag="ctg3_395" class="clusterblast-orf" id="dummy-1_q7_0_all"  />
<polygon points="699,35 704,30 780,30 780,40 704,40 699,35 " style="fill:#97d815; stroke-width:1; stroke:black; " description="&lt;b&gt;ctg3_396&lt;/b&gt;&lt;br&gt;ctg3 396&lt;br&gt;Location: 410079 - 411069" locus_tag="ctg3_396" class="clusterblast-orf" id="dummy-1_q8_0_all"  />
</g>
<g label="NZ_CP020369" description="NZ_CP020369 (3976325-3985777): Pseudomonas tolaasii strain 2192T genome (100% of genes show similarity), bacteriocin" class="clusterblast-cluster"  >
<text x="5" y="70" class="clusterblast-acc"  >
<a xlink:href="https://antismash-db.secondarymetabolites.org/area.html?record=NZ_CP020369&amp;start=3976325&amp;end=3985777" target="_blank">NZ_CP020369 (3976325-3985777)</a>: Pseudomonas tolaasii strain 2192T genome (100% of genes show similarity), bacteriocin</text>
<line x1="10" y1="85" x2="778.0" y2="85" style="stroke-width:1; stroke:grey; "  />
</g>
<g id="a1_000"  >
<polygon points="0,85 5,80 43,80 43,90 5,90 0,85 " style="fill:#d81515; stroke-width:1; stroke:black; " description="&lt;b&gt;B5P22_RS18275&lt;/b&gt;&lt;br&gt;DUF3617 domain-containing protein&lt;br&gt;Location: 3985777 - 3985256&lt;br&gt;&lt;br&gt;&lt;b&gt;BlastP hit with ctg3_388&lt;/b&gt;&lt;br&gt;Percentage identity: 95&lt;br&gt;Percentage coverage: 100&lt;br&gt;BLAST bit score: 330&lt;br&gt;E-value: 5.52e-116" locus_tag="B5P22_RS18275" class="clusterblast-orf" id="dummy-1_h1_9_0"  />
</g>
<g id="a1_001"  >
<polygon points="54,90 168,90 173,85 168,80 54,80 54,90 " style="fill:#15d815; stroke-width:1; stroke:black; " description="&lt;b&gt;B5P22_RS18270&lt;/b&gt;&lt;br&gt;cardiolipin synthase&lt;br&gt;Location: 3985124 - 3983685&lt;br&gt;&lt;br&gt;&lt;b&gt;BlastP hit with ctg3_389&lt;/b&gt;&lt;br&gt;Percentage identity: 98&lt;br&gt;Percentage coverage: 100&lt;br&gt;BLAST bit score: 930&lt;br&gt;E-value: 0.0" locus_tag="B5P22_RS18270" class="clusterblast-orf" id="dummy-1_h1_9_1"  />
</g>
<g id="a1_002"  >
<polygon points="182,85 187,80 280,80 280,90 187,90 182,85 " style="fill:#1597d8; stroke-width:1; stroke:black; " description="&lt;b&gt;B5P22_RS18265&lt;/b&gt;&lt;br&gt;class I SAM-dependent methyltransferase&lt;br&gt;Location: 3983568 - 3982384&lt;br&gt;&lt;br&gt;&lt;b&gt;BlastP hit with ctg3_390&lt;/b&gt;&lt;br&gt;Percentage identity: 97&lt;br&gt;Percentage coverage: 100&lt;br&gt;BLAST bit score: 776&lt;br&gt;E-value: 4.23e-285" locus_tag="B5P22_RS18265" class="clusterblast-orf" id="dummy-1_h1_9_2"  />
</g>
<g id="a1_003"  >
<polygon points="287,85 292,80 352,80 352,90 292,90 287,85 " style="fill:#9715d8; stroke-width:1; stroke:black; " description="&lt;b&gt;B5P22_RS18260&lt;/b&gt;&lt;br&gt;DUF2063 domain-containing protein&lt;br&gt;Location: 3982296 - 3981508&lt;br&gt;&lt;br&gt;&lt;b&gt;BlastP hit with ctg3_391&lt;/b&gt;&lt;br&gt;Percentage identity: 93&lt;br&gt;Percentage coverage: 100&lt;br&gt;BLAST bit score: 506&lt;br&gt;E-value: 1.06e-182" locus_tag="B5P22_RS18260" class="clusterblast-orf" id="dummy-1_h1_9_3"  />
</g>
<g id="a1_004"  >
<polygon points="351,85 356,80 421,80 421,90 356,90 351,85 " style="fill:#d89715; stroke-width:1; stroke:black; " description="&lt;b&gt;B5P22_RS18255&lt;/b&gt;&lt;br&gt;DUF692 domain-containing protein&lt;br&gt;Location: 3981517 - 3980672&lt;br&gt;&lt;br&gt;&lt;b&gt;BlastP hit with ctg3_392&lt;/b&gt;&lt;br&gt;Percentage identity: 95&lt;br&gt;Percentage coverage: 100&lt;br&gt;BLAST bit score: 518&lt;br&gt;E-value: 8.64e-187" locus_tag="B5P22_RS18255" class="clusterblast-orf" id="dummy-1_h1_9_4"  />
</g>
<g id="a1_005"  >
<polygon points="426,85 431,80 447,80 447,90 431,90 426,85 " style="fill:#15d897; stroke-width:1; stroke:black; " description="&lt;b&gt;B5P22_RS18250&lt;/b&gt;&lt;br&gt;membrane protein&lt;br&gt;Location: 3980604 - 3980350&lt;br&gt;&lt;br&gt;&lt;b&gt;BlastP hit with ctg3_393&lt;/b&gt;&lt;br&gt;Percentage identity: 83&lt;br&gt;Percentage coverage: 101&lt;br&gt;BLAST bit score: 109&lt;br&gt;E-value: 3.66e-31" locus_tag="B5P22_RS18250" class="clusterblast-orf" id="dummy-1_h1_9_5"  />
</g>
<g id="a1_006"  >
<polygon points="457,85 462,80 612,80 612,90 462,90 457,85 " style="fill:#1515d8; stroke-width:1; stroke:black; " description="&lt;b&gt;B5P22_RS18245&lt;/b&gt;&lt;br&gt;cadmium-translocating P-type ATPase&lt;br&gt;Location: 3980232 - 3978346&lt;br&gt;&lt;br&gt;&lt;b&gt;BlastP hit with ctg3_394&lt;/b&gt;&lt;br&gt;Percentage identity: 97&lt;br&gt;Percentage coverage: 100&lt;br&gt;BLAST bit score: 1093&lt;br&gt;E-value: 0.0" locus_tag="B5P22_RS18245" class="clusterblast-orf" id="dummy-1_h1_9_6"  />
</g>
<g id="a1_007"  >
<polygon points="612,85 617,80 697,80 697,90 617,90 612,85 " style="fill:#d81597; stroke-width:1; stroke:black; " description="&lt;b&gt;B5P22_RS18240&lt;/b&gt;&lt;br&gt;protease modulator HflK&lt;br&gt;Location: 3978349 - 3977315&lt;br&gt;&lt;br&gt;&lt;b&gt;BlastP hit with ctg3_395&lt;/b&gt;&lt;br&gt;Percentage identity: 98&lt;br&gt;Percentage coverage: 100&lt;br&gt;BLAST bit score: 551&lt;br&gt;E-value: 1.2e-197" locus_tag="B5P22_RS18240" class="clusterblast-orf" id="dummy-1_h1_9_7"  />
</g>
<g id="a1_008"  >
<polygon points="697,85 702,80 779,80 779,90 702,90 697,85 " style="fill:#97d815; stroke-width:1; stroke:black; " description="&lt;b&gt;B5P22_RS18235&lt;/b&gt;&lt;br&gt;protease modulator HflC&lt;br&gt;Location: 3977318 - 3976326&lt;br&gt;&lt;br&gt;&lt;b&gt;BlastP hit with ctg3_396&lt;/b&gt;&lt;br&gt;Percentage identity: 89&lt;br&gt;Percentage coverage: 94&lt;br&gt;BLAST bit score: 517&lt;br&gt;E-value: 1e-184" locus_tag="B5P22_RS18235" class="clusterblast-orf" id="dummy-1_h1_9_8"  />
</g>
</svg>
