<svg xmlns="http://www.w3.org/2000/svg" xmlns:xlink="http://www.w3.org/1999/xlink" version="1.1" x="0" y="0" height="230" width="800" viewBox="0 0 800 230" preserveAspectRatio="none"  >
<g label="Query sequence" class="clusterblast-cluster"  >
<text x="5" y="20" class="clusterblast-acc"  >
Query sequence</text>
<line x1="10" y1="35" x2="778.0" y2="35" style="stroke-width:1; stroke:grey; "  />
<polygon points="242,40 312,40 317,35 312,30 242,30 242,40 " style="fill:#d81515; stroke-width:1; stroke:black; " description="&lt;b&gt;ctg48_1&lt;/b&gt;&lt;br&gt;ctg48 1&lt;br&gt;Location: 0 - 4149" locus_tag="ctg48_1" class="clusterblast-orf" id="dummy-1_q0_0_all"  />
<polygon points="320,40 321,40 326,35 321,30 320,30 320,40 " style="fill:#3cd815; stroke-width:1; stroke:black; " description="&lt;b&gt;ctg48_2&lt;/b&gt;&lt;br&gt;ctg48 2&lt;br&gt;Location: 4301 - 4640" locus_tag="ctg48_2" class="clusterblast-orf" id="dummy-1_q1_0_all"  />
<polygon points="329,35 334,30 364,30 364,40 334,40 329,35 " style="fill:#1563d8; stroke-width:1; stroke:black; " description="&lt;b&gt;ctg48_3&lt;/b&gt;&lt;br&gt;ctg48 3&lt;br&gt;Location: 4782 - 6729" locus_tag="ctg48_3" class="clusterblast-orf" id="dummy-1_q2_0_all"  />
<polygon points="365,35 370,30 376,30 376,40 370,40 365,35 " style="fill:#b115d8; stroke-width:1; stroke:black; " description="&lt;b&gt;ctg48_4&lt;/b&gt;&lt;br&gt;ctg48 4&lt;br&gt;Location: 6743 - 7367" locus_tag="ctg48_4" class="clusterblast-orf" id="dummy-1_q3_0_all"  />
<polygon points="382,40 390,40 395,35 390,30 382,30 382,40 " style="fill:#d88a15; stroke-width:1; stroke:black; " description="&lt;b&gt;ctg48_5&lt;/b&gt;&lt;br&gt;ctg48 5&lt;br&gt;Location: 7685 - 8396" locus_tag="ctg48_5" class="clusterblast-orf" id="dummy-1_q4_0_all"  />
<polygon points="402,40 410,40 415,35 410,30 402,30 402,40 " style="fill:#15d863; stroke-width:1; stroke:black; " description="&lt;b&gt;ctg48_6&lt;/b&gt;&lt;br&gt;ctg48 6&lt;br&gt;Location: 8778 - 9537" locus_tag="ctg48_6" class="clusterblast-orf" id="dummy-1_q5_0_all"  />
<polygon points="415,40 428,40 433,35 428,30 415,30 415,40 " style="fill:#3c15d8; stroke-width:1; stroke:black; " description="&lt;b&gt;ctg48_7&lt;/b&gt;&lt;br&gt;ctg48 7&lt;br&gt;Location: 9533 - 10481" locus_tag="ctg48_7" class="clusterblast-orf" id="dummy-1_q6_0_all"  />
<polygon points="432,40 489,40 494,35 489,30 432,30 432,40 " style="fill:#d8158a; stroke-width:1; stroke:black; " description="&lt;b&gt;ctg48_8&lt;/b&gt;&lt;br&gt;ctg48 8&lt;br&gt;Location: 10477 - 13855" locus_tag="ctg48_8" class="clusterblast-orf" id="dummy-1_q7_0_all"  />
<polygon points="494,40 498,40 503,35 498,30 494,30 494,40 " style="fill:#b1d815; stroke-width:1; stroke:black; " description="&lt;b&gt;ctg48_9&lt;/b&gt;&lt;br&gt;ctg48 9&lt;br&gt;Location: 13873 - 14332" locus_tag="ctg48_9" class="clusterblast-orf" id="dummy-1_q8_0_all"  />
<polygon points="503,35 508,30 537,30 537,40 508,40 503,35 " style="fill:#15d8d8; stroke-width:1; stroke:black; " description="&lt;b&gt;ctg48_10&lt;/b&gt;&lt;br&gt;ctg48 10&lt;br&gt;Location: 14371 - 16252" locus_tag="ctg48_10" class="clusterblast-orf" id="dummy-1_q9_0_all"  />
</g>
<g label="NZ_LT629704" description="NZ_LT629704 (644283-687164): Pseudomonas antarctica strain LMG 22709 chromoso... (43% of genes show similarity), NRPS-like" class="clusterblast-cluster"  >
<text x="5" y="70" class="clusterblast-acc"  >
<a xlink:href="https://antismash-db.secondarymetabolites.org/area.html?record=NZ_LT629704&amp;start=644283&amp;end=687164" target="_blank">NZ_LT629704 (644283-687164)</a>: Pseudomonas antarctica strain LMG 22709 chromoso... (43% of genes show similarity), NRPS-like</text>
<line x1="10" y1="85" x2="778.0" y2="85" style="stroke-width:1; stroke:grey; "  />
</g>
<g id="a1_000"  >
<polygon points="0,90 236,90 241,85 236,80 0,80 0,90 " style="fill:#d81515; stroke-width:1; stroke:black; " description="&lt;b&gt;BLQ27_RS02830&lt;/b&gt;&lt;br&gt;retention module-containing protein&lt;br&gt;Location: 644284 - 657564&lt;br&gt;&lt;br&gt;&lt;b&gt;BlastP hit with ctg48_1&lt;/b&gt;&lt;br&gt;Percentage identity: 91&lt;br&gt;Percentage coverage: 100&lt;br&gt;BLAST bit score: 2320&lt;br&gt;E-value: 0.0" locus_tag="BLQ27_RS02830" class="clusterblast-orf" id="dummy-1_h1_1_0"  />
</g>
<g id="a1_001"  >
<polygon points="244,90 245,90 250,85 245,80 244,80 244,90 " style="fill:#3cd815; stroke-width:1; stroke:black; " description="&lt;b&gt;BLQ27_RS02835&lt;/b&gt;&lt;br&gt;tryptophan synthase subunit beta&lt;br&gt;Location: 657717 - 658055&lt;br&gt;&lt;br&gt;&lt;b&gt;BlastP hit with ctg48_2&lt;/b&gt;&lt;br&gt;Percentage identity: 98&lt;br&gt;Percentage coverage: 100&lt;br&gt;BLAST bit score: 211&lt;br&gt;E-value: 7.7e-71" locus_tag="BLQ27_RS02835" class="clusterblast-orf" id="dummy-1_h1_1_1"  />
</g>
<g id="a1_002"  >
<polygon points="252,85 257,80 287,80 287,90 257,90 252,85 " style="fill:#1563d8; stroke-width:1; stroke:black; " description="&lt;b&gt;BLQ27_RS02840&lt;/b&gt;&lt;br&gt;EAL domain-containing protein&lt;br&gt;Location: 658142 - 660088&lt;br&gt;&lt;br&gt;&lt;b&gt;BlastP hit with ctg48_3&lt;/b&gt;&lt;br&gt;Percentage identity: 98&lt;br&gt;Percentage coverage: 100&lt;br&gt;BLAST bit score: 1181&lt;br&gt;E-value: 0.0" locus_tag="BLQ27_RS02840" class="clusterblast-orf" id="dummy-1_h1_1_2"  />
</g>
<g id="a1_003"  >
<polygon points="287,85 292,80 300,80 300,90 292,90 287,85 " style="fill:#b115d8; stroke-width:1; stroke:black; " description="&lt;b&gt;BLQ27_RS02845&lt;/b&gt;&lt;br&gt;transglutaminase-like cysteine peptidase&lt;br&gt;Location: 660103 - 660795&lt;br&gt;&lt;br&gt;&lt;b&gt;BlastP hit with ctg48_4&lt;/b&gt;&lt;br&gt;Percentage identity: 95&lt;br&gt;Percentage coverage: 100&lt;br&gt;BLAST bit score: 409&lt;br&gt;E-value: 1.32e-145" locus_tag="BLQ27_RS02845" class="clusterblast-orf" id="dummy-1_h1_1_3"  />
</g>
<g id="a1_004"  >
<polygon points="304,90 312,90 317,85 312,80 304,80 304,90 " style="fill:#d88a15; stroke-width:1; stroke:black; " description="&lt;b&gt;BLQ27_RS02850&lt;/b&gt;&lt;br&gt;GntR family transcriptional regulator&lt;br&gt;Location: 661046 - 661756&lt;br&gt;&lt;br&gt;&lt;b&gt;BlastP hit with ctg48_5&lt;/b&gt;&lt;br&gt;Percentage identity: 91&lt;br&gt;Percentage coverage: 100&lt;br&gt;BLAST bit score: 413&lt;br&gt;E-value: 1.58e-146" locus_tag="BLQ27_RS02850" class="clusterblast-orf" id="dummy-1_h1_1_4"  />
</g>
<g id="a1_005"  >
<polygon points="325,90 333,90 338,85 333,80 325,80 325,90 " style="fill:#15d863; stroke-width:1; stroke:black; " description="&lt;b&gt;BLQ27_RS02855&lt;/b&gt;&lt;br&gt;DUF3050 domain-containing protein&lt;br&gt;Location: 662171 - 662896&lt;br&gt;&lt;br&gt;&lt;b&gt;BlastP hit with ctg48_6&lt;/b&gt;&lt;br&gt;Percentage identity: 82&lt;br&gt;Percentage coverage: 95&lt;br&gt;BLAST bit score: 395&lt;br&gt;E-value: 3.64e-139" locus_tag="BLQ27_RS02855" class="clusterblast-orf" id="dummy-1_h1_1_5"  />
</g>
<g id="a1_006"  >
<polygon points="338,90 350,90 355,85 350,80 338,80 338,90 " style="fill:#3c15d8; stroke-width:1; stroke:black; " description="&lt;b&gt;BLQ27_RS02860&lt;/b&gt;&lt;br&gt;diiron oxygenase&lt;br&gt;Location: 662893 - 663840&lt;br&gt;&lt;br&gt;&lt;b&gt;BlastP hit with ctg48_7&lt;/b&gt;&lt;br&gt;Percentage identity: 88&lt;br&gt;Percentage coverage: 99&lt;br&gt;BLAST bit score: 545&lt;br&gt;E-value: 5.11e-196" locus_tag="BLQ27_RS02860" class="clusterblast-orf" id="dummy-1_h1_1_6"  />
</g>
<g id="a1_007"  >
<polygon points="355,90 412,90 417,85 412,80 355,80 355,90 " style="fill:#d8158a; stroke-width:1; stroke:black; " description="&lt;b&gt;BLQ27_RS02865&lt;/b&gt;&lt;br&gt;non-ribosomal peptide synthetase&lt;br&gt;Location: 663837 - 667214&lt;br&gt;&lt;br&gt;&lt;b&gt;BlastP hit with ctg48_8&lt;/b&gt;&lt;br&gt;Percentage identity: 81&lt;br&gt;Percentage coverage: 100&lt;br&gt;BLAST bit score: 1838&lt;br&gt;E-value: 0.0" locus_tag="BLQ27_RS02865" class="clusterblast-orf" id="dummy-1_h1_1_7"  />
</g>
<g id="a1_008"  >
<polygon points="417,90 420,90 425,85 420,80 417,80 417,90 " style="fill:#b1d815; stroke-width:1; stroke:black; " description="&lt;b&gt;BLQ27_RS02870&lt;/b&gt;&lt;br&gt;SRPBCC family protein&lt;br&gt;Location: 667233 - 667691&lt;br&gt;&lt;br&gt;&lt;b&gt;BlastP hit with ctg48_9&lt;/b&gt;&lt;br&gt;Percentage identity: 81&lt;br&gt;Percentage coverage: 100&lt;br&gt;BLAST bit score: 258&lt;br&gt;E-value: 3.69e-88" locus_tag="BLQ27_RS02870" class="clusterblast-orf" id="dummy-1_h1_1_8"  />
</g>
<g id="a1_009"  >
<polygon points="426,85 431,80 460,80 460,90 431,90 426,85 " style="fill:#15d8d8; stroke-width:1; stroke:black; " description="&lt;b&gt;BLQ27_RS02875&lt;/b&gt;&lt;br&gt;methyl-accepting chemotaxis protein&lt;br&gt;Location: 667731 - 669611&lt;br&gt;&lt;br&gt;&lt;b&gt;BlastP hit with ctg48_10&lt;/b&gt;&lt;br&gt;Percentage identity: 97&lt;br&gt;Percentage coverage: 100&lt;br&gt;BLAST bit score: 1055&lt;br&gt;E-value: 0.0" locus_tag="BLQ27_RS02875" class="clusterblast-orf" id="dummy-1_h1_1_9"  />
</g>
<g id="a1_0010"  >
<polygon points="465,90 468,85 465,80 465,90 " style="fill:white; stroke-width:1; stroke:black; " description="&lt;b&gt;BLQ27_RS29805&lt;/b&gt;&lt;br&gt;RNA polymerase subunit sigma&lt;br&gt;Location: 669895 - 670021" locus_tag="BLQ27_RS29805" class="clusterblast-orf" id="dummy-1_h1_1_10"  />
</g>
<g id="a1_0011"  >
<polygon points="472,90 476,85 472,80 472,90 " style="fill:white; stroke-width:1; stroke:black; " description="&lt;b&gt;BLQ27_RS29810&lt;/b&gt;&lt;br&gt;TonB-dependent receptor&lt;br&gt;Location: 670266 - 670463" locus_tag="BLQ27_RS29810" class="clusterblast-orf" id="dummy-1_h1_1_11"  />
</g>
<g id="a1_0012"  >
<polygon points="590,85 595,80 612,80 612,90 595,90 590,85 " style="fill:white; stroke-width:1; stroke:black; " description="&lt;b&gt;BLQ27_RS02920&lt;/b&gt;&lt;br&gt;CoA transferase&lt;br&gt;Location: 676748 - 677968" locus_tag="BLQ27_RS02920" class="clusterblast-orf" id="dummy-1_h1_1_12"  />
</g>
<g id="a1_0013"  >
<polygon points="612,85 617,80 634,80 634,90 617,90 612,85 " style="fill:white; stroke-width:1; stroke:black; " description="&lt;b&gt;BLQ27_RS02925&lt;/b&gt;&lt;br&gt;acyl-CoA dehydrogenase&lt;br&gt;Location: 677981 - 679162" locus_tag="BLQ27_RS02925" class="clusterblast-orf" id="dummy-1_h1_1_13"  />
</g>
<g id="a1_0014"  >
<polygon points="637,90 648,90 653,85 648,80 637,80 637,90 " style="fill:white; stroke-width:1; stroke:black; " description="&lt;b&gt;BLQ27_RS02930&lt;/b&gt;&lt;br&gt;LysR family transcriptional regulator&lt;br&gt;Location: 679320 - 680219" locus_tag="BLQ27_RS02930" class="clusterblast-orf" id="dummy-1_h1_1_14"  />
</g>
<g id="a1_0015"  >
<polygon points="661,90 677,90 682,85 677,80 661,80 661,90 " style="fill:white; stroke-width:1; stroke:black; " description="&lt;b&gt;BLQ27_RS02935&lt;/b&gt;&lt;br&gt;Re/Si-specific NAD(P)(+) transhydrogenase subunit alpha&lt;br&gt;Location: 680672 - 681793" locus_tag="BLQ27_RS02935" class="clusterblast-orf" id="dummy-1_h1_1_15"  />
</g>
<g id="a1_0016"  >
<polygon points="682,90 683,90 688,85 683,80 682,80 682,90 " style="fill:white; stroke-width:1; stroke:black; " description="&lt;b&gt;BLQ27_RS02940&lt;/b&gt;&lt;br&gt;NAD(P) transhydrogenase subunit alpha&lt;br&gt;Location: 681809 - 682132" locus_tag="BLQ27_RS02940" class="clusterblast-orf" id="dummy-1_h1_1_16"  />
</g>
<g id="a1_0017"  >
<polygon points="688,90 709,90 714,85 709,80 688,80 688,90 " style="fill:white; stroke-width:1; stroke:black; " description="&lt;b&gt;BLQ27_RS02945&lt;/b&gt;&lt;br&gt;NAD(P)(+) transhydrogenase (Re/Si-specific) subunit beta&lt;br&gt;Location: 682129 - 683565" locus_tag="BLQ27_RS02945" class="clusterblast-orf" id="dummy-1_h1_1_17"  />
</g>
<g id="a1_0018"  >
<polygon points="718,90 740,90 745,85 740,80 718,80 718,90 " style="fill:white; stroke-width:1; stroke:black; " description="&lt;b&gt;BLQ27_RS02950&lt;/b&gt;&lt;br&gt;acetyl-CoA hydrolase/transferase family protein&lt;br&gt;Location: 683800 - 685293" locus_tag="BLQ27_RS02950" class="clusterblast-orf" id="dummy-1_h1_1_18"  />
</g>
<g id="a1_0019"  >
<polygon points="751,90 755,85 751,80 751,90 " style="fill:white; stroke-width:1; stroke:black; " description="&lt;b&gt;BLQ27_RS02955&lt;/b&gt;&lt;br&gt;DUF1127 domain-containing protein&lt;br&gt;Location: 685612 - 685827" locus_tag="BLQ27_RS02955" class="clusterblast-orf" id="dummy-1_h1_1_19"  />
</g>
<g id="a1_0020"  >
<polygon points="760,90 763,85 760,80 760,90 " style="fill:white; stroke-width:1; stroke:black; " description="&lt;b&gt;BLQ27_RS02960&lt;/b&gt;&lt;br&gt;DUF1127 domain-containing protein&lt;br&gt;Location: 686091 - 686270" locus_tag="BLQ27_RS02960" class="clusterblast-orf" id="dummy-1_h1_1_20"  />
</g>
<g id="a1_0021"  >
<polygon points="766,90 767,90 772,85 767,80 766,80 766,90 " style="fill:white; stroke-width:1; stroke:black; " description="&lt;b&gt;BLQ27_RS02965&lt;/b&gt;&lt;br&gt;DUF2388 domain-containing protein&lt;br&gt;Location: 686430 - 686750" locus_tag="BLQ27_RS02965" class="clusterblast-orf" id="dummy-1_h1_1_21"  />
</g>
<g id="a1_0022"  >
<polygon points="774,90 775,90 780,85 775,80 774,80 774,90 " style="fill:white; stroke-width:1; stroke:black; " description="&lt;b&gt;BLQ27_RS02970&lt;/b&gt;&lt;br&gt;DUF2388 domain-containing protein&lt;br&gt;Location: 686856 - 687164" locus_tag="BLQ27_RS02970" class="clusterblast-orf" id="dummy-1_h1_1_22"  />
</g>
</svg>
