<svg xmlns="http://www.w3.org/2000/svg" xmlns:xlink="http://www.w3.org/1999/xlink" version="1.1" x="0" y="0" height="230" width="800" viewBox="0 0 800 230" preserveAspectRatio="none"  >
<g label="Query sequence" class="clusterblast-cluster"  >
<text x="5" y="20" class="clusterblast-acc"  >
Query sequence</text>
<line x1="10" y1="35" x2="778.0" y2="35" style="stroke-width:1; stroke:grey; "  />
<polygon points="113,40 118,40 123,35 118,30 113,30 113,40 " style="fill:white; stroke-width:1; stroke:black; " description="&lt;b&gt;ctg2_47&lt;/b&gt;&lt;br&gt;ctg2 47&lt;br&gt;Location: 52160 - 52640" locus_tag="ctg2_47" class="clusterblast-orf" id="dummy-1_q0_0_all"  />
<polygon points="123,40 134,40 139,35 134,30 123,30 123,40 " style="fill:white; stroke-width:1; stroke:black; " description="&lt;b&gt;ctg2_48&lt;/b&gt;&lt;br&gt;ctg2 48&lt;br&gt;Location: 52636 - 53407" locus_tag="ctg2_48" class="clusterblast-orf" id="dummy-1_q1_0_all"  />
<polygon points="141,35 146,30 185,30 185,40 146,40 141,35 " style="fill:white; stroke-width:1; stroke:black; " description="&lt;b&gt;ctg2_49&lt;/b&gt;&lt;br&gt;ctg2 49&lt;br&gt;Location: 53486 - 55634" locus_tag="ctg2_49" class="clusterblast-orf" id="dummy-1_q2_0_all"  />
<polygon points="187,40 191,40 196,35 191,30 187,30 187,40 " style="fill:white; stroke-width:1; stroke:black; " description="&lt;b&gt;ctg2_50&lt;/b&gt;&lt;br&gt;ctg2 50&lt;br&gt;Location: 55731 - 56184" locus_tag="ctg2_50" class="clusterblast-orf" id="dummy-1_q3_0_all"  />
<polygon points="196,40 201,40 206,35 201,30 196,30 196,40 " style="fill:white; stroke-width:1; stroke:black; " description="&lt;b&gt;ctg2_51&lt;/b&gt;&lt;br&gt;ctg2 51&lt;br&gt;Location: 56176 - 56626" locus_tag="ctg2_51" class="clusterblast-orf" id="dummy-1_q4_0_all"  />
<polygon points="207,35 212,30 219,30 219,40 212,40 207,35 " style="fill:white; stroke-width:1; stroke:black; " description="&lt;b&gt;ctg2_52&lt;/b&gt;&lt;br&gt;ctg2 52&lt;br&gt;Location: 56669 - 57248" locus_tag="ctg2_52" class="clusterblast-orf" id="dummy-1_q5_0_all"  />
<polygon points="220,35 225,30 247,30 247,40 225,40 220,35 " style="fill:white; stroke-width:1; stroke:black; " description="&lt;b&gt;ctg2_53&lt;/b&gt;&lt;br&gt;ctg2 53&lt;br&gt;Location: 57317 - 58631" locus_tag="ctg2_53" class="clusterblast-orf" id="dummy-1_q6_0_all"  />
<polygon points="248,35 252,30 252,40 248,35 " style="fill:white; stroke-width:1; stroke:black; " description="&lt;b&gt;ctg2_54&lt;/b&gt;&lt;br&gt;ctg2 54&lt;br&gt;Location: 58681 - 58837" locus_tag="ctg2_54" class="clusterblast-orf" id="dummy-1_q7_0_all"  />
<polygon points="254,35 259,30 270,30 270,40 259,40 254,35 " style="fill:white; stroke-width:1; stroke:black; " description="&lt;b&gt;ctg2_55&lt;/b&gt;&lt;br&gt;ctg2 55&lt;br&gt;Location: 58938 - 59745" locus_tag="ctg2_55" class="clusterblast-orf" id="dummy-1_q8_0_all"  />
<polygon points="271,35 276,30 284,30 284,40 276,40 271,35 " style="fill:white; stroke-width:1; stroke:black; " description="&lt;b&gt;ctg2_56&lt;/b&gt;&lt;br&gt;ctg2 56&lt;br&gt;Location: 59773 - 60406" locus_tag="ctg2_56" class="clusterblast-orf" id="dummy-1_q9_0_all"  />
<polygon points="286,40 295,40 300,35 295,30 286,30 286,40 " style="fill:white; stroke-width:1; stroke:black; " description="&lt;b&gt;ctg2_57&lt;/b&gt;&lt;br&gt;ctg2 57&lt;br&gt;Location: 60517 - 61174" locus_tag="ctg2_57" class="clusterblast-orf" id="dummy-1_q10_0_all"  />
<polygon points="300,35 305,30 313,30 313,40 305,40 300,35 " style="fill:white; stroke-width:1; stroke:black; " description="&lt;b&gt;ctg2_58&lt;/b&gt;&lt;br&gt;ctg2 58&lt;br&gt;Location: 61187 - 61808" locus_tag="ctg2_58" class="clusterblast-orf" id="dummy-1_q11_0_all"  />
<polygon points="316,40 356,40 361,35 356,30 316,30 316,40 " style="fill:#d81515; stroke-width:1; stroke:black; " description="&lt;b&gt;ctg2_59&lt;/b&gt;&lt;br&gt;ctg2 59&lt;br&gt;Location: 61943 - 64142" locus_tag="ctg2_59" class="clusterblast-orf" id="dummy-1_q12_0_all"  />
<polygon points="377,35 382,30 401,30 401,40 382,40 377,35 " style="fill:#15d863; stroke-width:1; stroke:black; " description="&lt;b&gt;ctg2_60&lt;/b&gt;&lt;br&gt;ctg2 60&lt;br&gt;Location: 64888 - 66055" locus_tag="ctg2_60" class="clusterblast-orf" id="dummy-1_q13_0_all"  />
<polygon points="401,35 406,30 430,30 430,40 406,40 401,35 " style="fill:#1563d8; stroke-width:1; stroke:black; " description="&lt;b&gt;ctg2_61&lt;/b&gt;&lt;br&gt;ctg2 61&lt;br&gt;Location: 66051 - 67428" locus_tag="ctg2_61" class="clusterblast-orf" id="dummy-1_q14_0_all"  />
<polygon points="433,35 438,30 450,30 450,40 438,40 433,35 " style="fill:white; stroke-width:1; stroke:black; " description="&lt;b&gt;ctg2_62&lt;/b&gt;&lt;br&gt;ctg2 62&lt;br&gt;Location: 67572 - 68424" locus_tag="ctg2_62" class="clusterblast-orf" id="dummy-1_q15_0_all"  />
<polygon points="456,35 461,30 476,30 476,40 461,40 456,35 " style="fill:white; stroke-width:1; stroke:black; " description="&lt;b&gt;ctg2_63&lt;/b&gt;&lt;br&gt;ctg2 63&lt;br&gt;Location: 68709 - 69687" locus_tag="ctg2_63" class="clusterblast-orf" id="dummy-1_q16_0_all"  />
<polygon points="481,35 486,30 489,30 489,40 486,40 481,35 " style="fill:white; stroke-width:1; stroke:black; " description="&lt;b&gt;ctg2_64&lt;/b&gt;&lt;br&gt;ctg2 64&lt;br&gt;Location: 69902 - 70295" locus_tag="ctg2_64" class="clusterblast-orf" id="dummy-1_q17_0_all"  />
<polygon points="490,35 495,30 503,30 503,40 495,40 490,35 " style="fill:white; stroke-width:1; stroke:black; " description="&lt;b&gt;ctg2_65&lt;/b&gt;&lt;br&gt;ctg2 65&lt;br&gt;Location: 70325 - 70946" locus_tag="ctg2_65" class="clusterblast-orf" id="dummy-1_q18_0_all"  />
<polygon points="507,35 512,30 528,30 528,40 512,40 507,35 " style="fill:white; stroke-width:1; stroke:black; " description="&lt;b&gt;ctg2_66&lt;/b&gt;&lt;br&gt;ctg2 66&lt;br&gt;Location: 71168 - 72188" locus_tag="ctg2_66" class="clusterblast-orf" id="dummy-1_q19_0_all"  />
<polygon points="531,35 536,30 547,30 547,40 536,40 531,35 " style="fill:white; stroke-width:1; stroke:black; " description="&lt;b&gt;ctg2_67&lt;/b&gt;&lt;br&gt;ctg2 67&lt;br&gt;Location: 72327 - 73089" locus_tag="ctg2_67" class="clusterblast-orf" id="dummy-1_q20_0_all"  />
<polygon points="551,35 556,30 565,30 565,40 556,40 551,35 " style="fill:white; stroke-width:1; stroke:black; " description="&lt;b&gt;ctg2_68&lt;/b&gt;&lt;br&gt;ctg2 68&lt;br&gt;Location: 73279 - 73939" locus_tag="ctg2_68" class="clusterblast-orf" id="dummy-1_q21_0_all"  />
<polygon points="565,35 570,30 577,30 577,40 570,40 565,35 " style="fill:white; stroke-width:1; stroke:black; " description="&lt;b&gt;ctg2_69&lt;/b&gt;&lt;br&gt;ctg2 69&lt;br&gt;Location: 73935 - 74535" locus_tag="ctg2_69" class="clusterblast-orf" id="dummy-1_q22_0_all"  />
<polygon points="577,35 582,30 593,30 593,40 582,40 577,35 " style="fill:white; stroke-width:1; stroke:black; " description="&lt;b&gt;ctg2_70&lt;/b&gt;&lt;br&gt;ctg2 70&lt;br&gt;Location: 74531 - 75290" locus_tag="ctg2_70" class="clusterblast-orf" id="dummy-1_q23_0_all"  />
<polygon points="593,35 598,30 613,30 613,40 598,40 593,35 " style="fill:white; stroke-width:1; stroke:black; " description="&lt;b&gt;ctg2_71&lt;/b&gt;&lt;br&gt;ctg2 71&lt;br&gt;Location: 75286 - 76285" locus_tag="ctg2_71" class="clusterblast-orf" id="dummy-1_q24_0_all"  />
<polygon points="613,35 618,30 658,30 658,40 618,40 613,35 " style="fill:#b115d8; stroke-width:1; stroke:black; " description="&lt;b&gt;ctg2_72&lt;/b&gt;&lt;br&gt;ctg2 72&lt;br&gt;Location: 76286 - 78443" locus_tag="ctg2_72" class="clusterblast-orf" id="dummy-1_q25_0_all"  />
<polygon points="661,35 666,30 666,30 666,40 666,40 661,35 " style="fill:#b1d815; stroke-width:1; stroke:black; " description="&lt;b&gt;ctg2_73&lt;/b&gt;&lt;br&gt;ctg2 73&lt;br&gt;Location: 78574 - 78844" locus_tag="ctg2_73" class="clusterblast-orf" id="dummy-1_q26_0_all"  />
</g>
<g label="BGC0000774" description="BGC0000774_c1: lipopolysaccharide (5% of genes show similarity), Saccharide:Lipopolysaccharide" class="clusterblast-cluster"  >
<text x="5" y="70" class="clusterblast-acc"  >
<a xlink:href="https://mibig.secondarymetabolites.org/go/BGC0000774/1" target="_blank">BGC0000774</a>: lipopolysaccharide                                                               (5% of genes show similarity), Saccharide:Lipopolysaccharide</text>
<line x1="10" y1="85" x2="778.0" y2="85" style="stroke-width:1; stroke:grey; "  />
</g>
<g id="a1_000"  >
<polygon points="0,90 8,90 13,85 8,80 0,80 0,90 " style="fill:white; stroke-width:1; stroke:black; " description="&lt;b&gt;AAK53494.1&lt;/b&gt;&lt;br&gt;conserved protein involved in carbohydrate biosynthesis&lt;br&gt;Location: 134 - 772" locus_tag="AAK53494.1" class="clusterblast-orf" id="dummy-1_h1_2_0"  />
</g>
<g id="a1_001"  >
<polygon points="19,85 24,80 32,80 32,90 24,90 19,85 " style="fill:white; stroke-width:1; stroke:black; " description="&lt;b&gt;AAK53493.1&lt;/b&gt;&lt;br&gt;beta-subunit of putative 3-oxoacid CoA-transferase&lt;br&gt;Location: 1054 - 1692" locus_tag="AAK53493.1" class="clusterblast-orf" id="dummy-1_h1_2_1"  />
</g>
<g id="a1_002"  >
<polygon points="32,85 37,80 47,80 47,90 37,90 32,85 " style="fill:white; stroke-width:1; stroke:black; " description="&lt;b&gt;AAK53462.1&lt;/b&gt;&lt;br&gt;alpha subunit of putative 3-oxoacid CoA-transferase&lt;br&gt;Location: 1692 - 2420" locus_tag="AAK53462.1" class="clusterblast-orf" id="dummy-1_h1_2_2"  />
</g>
<g id="a1_003"  >
<polygon points="50,90 73,90 78,85 73,80 50,80 50,90 " style="fill:white; stroke-width:1; stroke:black; " description="&lt;b&gt;AAA27610.1&lt;/b&gt;&lt;br&gt;phosphoglucomutase / phosphomannomutase&lt;br&gt;Location: 2555 - 3901" locus_tag="AAA27610.1" class="clusterblast-orf" id="dummy-1_h1_2_3"  />
</g>
<g id="a1_004"  >
<polygon points="79,90 103,90 108,85 103,80 79,80 79,90 " style="fill:white; stroke-width:1; stroke:black; " description="&lt;b&gt;AAK53463.1&lt;/b&gt;&lt;br&gt;phosphomannose isomerase / GDP-mannose pyrophosphorylase&lt;br&gt;Location: 3947 - 5350" locus_tag="AAK53463.1" class="clusterblast-orf" id="dummy-1_h1_2_4"  />
</g>
<g id="a1_005"  >
<polygon points="110,85 115,80 129,80 129,90 115,90 110,85 " style="fill:white; stroke-width:1; stroke:black; " description="&lt;b&gt;AAK53464.1&lt;/b&gt;&lt;br&gt;dTDP-4-dehydrorhamnose reductase&lt;br&gt;Location: 5472 - 6380" locus_tag="AAK53464.1" class="clusterblast-orf" id="dummy-1_h1_2_5"  />
</g>
<g id="a1_006"  >
<polygon points="129,85 134,80 140,80 140,90 134,90 129,85 " style="fill:white; stroke-width:1; stroke:black; " description="&lt;b&gt;AAK53465.1&lt;/b&gt;&lt;br&gt;dTDP-4-dehydrorhamnose 3,5-epimerase&lt;br&gt;Location: 6377 - 6934" locus_tag="AAK53465.1" class="clusterblast-orf" id="dummy-1_h1_2_6"  />
</g>
<g id="a1_007"  >
<polygon points="140,85 145,80 159,80 159,90 145,90 140,85 " style="fill:white; stroke-width:1; stroke:black; " description="&lt;b&gt;AAA16191.1&lt;/b&gt;&lt;br&gt;glucose-1-phosphate thymidylyltransferase&lt;br&gt;Location: 6931 - 7818" locus_tag="AAA16191.1" class="clusterblast-orf" id="dummy-1_h1_2_7"  />
</g>
<g id="a1_008"  >
<polygon points="160,85 165,80 182,80 182,90 165,90 160,85 " style="fill:white; stroke-width:1; stroke:black; " description="&lt;b&gt;AAK53466.1&lt;/b&gt;&lt;br&gt;dTDP-glucose 4,6-dehydratase&lt;br&gt;Location: 7882 - 8937" locus_tag="AAK53466.1" class="clusterblast-orf" id="dummy-1_h1_2_8"  />
</g>
<g id="a1_009"  >
<polygon points="187,90 197,90 202,85 197,80 187,80 187,90 " style="fill:white; stroke-width:1; stroke:black; " description="&lt;b&gt;AAK53467.1&lt;/b&gt;&lt;br&gt;putative electron-transferring flavoprotein beta subunit&lt;br&gt;Location: 9166 - 9912" locus_tag="AAK53467.1" class="clusterblast-orf" id="dummy-1_h1_2_9"  />
</g>
<g id="a1_0010"  >
<polygon points="202,90 217,90 222,85 217,80 202,80 202,90 " style="fill:white; stroke-width:1; stroke:black; " description="&lt;b&gt;AAK53468.1&lt;/b&gt;&lt;br&gt;putative electron-transferring flavoprotein alpha subunit&lt;br&gt;Location: 9912 - 10856" locus_tag="AAK53468.1" class="clusterblast-orf" id="dummy-1_h1_2_10"  />
</g>
<g id="a1_0011"  >
<polygon points="223,90 225,90 230,85 225,80 223,80 223,90 " style="fill:white; stroke-width:1; stroke:black; " description="&lt;b&gt;AAK53469.1&lt;/b&gt;&lt;br&gt;WxcH&lt;br&gt;Location: 10916 - 11263" locus_tag="AAK53469.1" class="clusterblast-orf" id="dummy-1_h1_2_11"  />
</g>
<g id="a1_0012"  >
<polygon points="231,90 249,90 254,85 249,80 231,80 231,90 " style="fill:white; stroke-width:1; stroke:black; " description="&lt;b&gt;AAK53470.1&lt;/b&gt;&lt;br&gt;nucleotide sugar aminotransferase&lt;br&gt;Location: 11312 - 12415" locus_tag="AAK53470.1" class="clusterblast-orf" id="dummy-1_h1_2_12"  />
</g>
<g id="a1_0013"  >
<polygon points="254,90 269,90 274,85 269,80 254,80 254,90 " style="fill:white; stroke-width:1; stroke:black; " description="&lt;b&gt;AAK53471.1&lt;/b&gt;&lt;br&gt;glycosyltransferase&lt;br&gt;Location: 12400 - 13371" locus_tag="AAK53471.1" class="clusterblast-orf" id="dummy-1_h1_2_13"  />
</g>
<g id="a1_0014"  >
<polygon points="274,90 288,90 293,85 288,80 274,80 274,90 " style="fill:white; stroke-width:1; stroke:black; " description="&lt;b&gt;AAK53472.1&lt;/b&gt;&lt;br&gt;bifunctional nucleotide hexosamine acetyltransferase / isomerase&lt;br&gt;Location: 13368 - 14297" locus_tag="AAK53472.1" class="clusterblast-orf" id="dummy-1_h1_2_14"  />
</g>
<g id="a1_0015"  >
<polygon points="293,90 297,90 302,85 297,80 293,80 293,90 " style="fill:white; stroke-width:1; stroke:black; " description="&lt;b&gt;AAK53473.1&lt;/b&gt;&lt;br&gt;putative integral membrane protein WxcN&lt;br&gt;Location: 14284 - 14724" locus_tag="AAK53473.1" class="clusterblast-orf" id="dummy-1_h1_2_15"  />
</g>
<g id="a1_0016"  >
<polygon points="303,90 345,90 350,85 345,80 303,80 303,90 " style="fill:white; stroke-width:1; stroke:black; " description="&lt;b&gt;AAK53474.1&lt;/b&gt;&lt;br&gt;integral membrane protein&lt;br&gt;Location: 14794 - 17046" locus_tag="AAK53474.1" class="clusterblast-orf" id="dummy-1_h1_2_16"  />
</g>
<g id="a1_0017"  >
<polygon points="353,85 358,80 373,80 373,90 358,90 353,85 " style="fill:white; stroke-width:1; stroke:black; " description="&lt;b&gt;AAK53475.1&lt;/b&gt;&lt;br&gt;GDP-4-dehydro-D-rhamnose reductase&lt;br&gt;Location: 17188 - 18126" locus_tag="AAK53475.1" class="clusterblast-orf" id="dummy-1_h1_2_17"  />
</g>
<g id="a1_0018"  >
<polygon points="372,85 377,80 394,80 394,90 377,90 372,85 " style="fill:white; stroke-width:1; stroke:black; " description="&lt;b&gt;AAK53476.1&lt;/b&gt;&lt;br&gt;GDP-mannose 4,6-dehydratase&lt;br&gt;Location: 18110 - 19144" locus_tag="AAK53476.1" class="clusterblast-orf" id="dummy-1_h1_2_18"  />
</g>
<g id="a1_0019"  >
<polygon points="395,85 400,80 408,80 408,90 400,90 395,85 " style="fill:white; stroke-width:1; stroke:black; " description="&lt;b&gt;AAK53477.1&lt;/b&gt;&lt;br&gt;Unknown&lt;br&gt;Location: 19222 - 19857" locus_tag="AAK53477.1" class="clusterblast-orf" id="dummy-1_h1_2_19"  />
</g>
<g id="a1_0020"  >
<polygon points="408,85 413,80 445,80 445,90 413,90 408,85 " style="fill:white; stroke-width:1; stroke:black; " description="&lt;b&gt;AAK53478.1&lt;/b&gt;&lt;br&gt;putative glycosyltransferase&lt;br&gt;Location: 19857 - 21602" locus_tag="AAK53478.1" class="clusterblast-orf" id="dummy-1_h1_2_20"  />
</g>
<g id="a1_0021"  >
<polygon points="445,85 450,80 467,80 467,90 450,90 445,85 " style="fill:white; stroke-width:1; stroke:black; " description="&lt;b&gt;AAK53479.1&lt;/b&gt;&lt;br&gt;glycosyltransferase&lt;br&gt;Location: 21623 - 22684" locus_tag="AAK53479.1" class="clusterblast-orf" id="dummy-1_h1_2_21"  />
</g>
<g id="a1_0022"  >
<polygon points="468,85 473,80 516,80 516,90 473,90 468,85 " style="fill:white; stroke-width:1; stroke:black; " description="&lt;b&gt;AAK53480.1&lt;/b&gt;&lt;br&gt;putative protein kinase&lt;br&gt;Location: 22734 - 25022" locus_tag="AAK53480.1" class="clusterblast-orf" id="dummy-1_h1_2_22"  />
</g>
<g id="a1_0023"  >
<polygon points="516,85 521,80 543,80 543,90 521,90 516,85 " style="fill:white; stroke-width:1; stroke:black; " description="&lt;b&gt;AAK53481.1&lt;/b&gt;&lt;br&gt;ATP-binding component of an ABC-type polysaccharide exporter&lt;br&gt;Location: 25062 - 26348" locus_tag="AAK53481.1" class="clusterblast-orf" id="dummy-1_h1_2_23"  />
</g>
<g id="a1_0024"  >
<polygon points="543,85 548,80 559,80 559,90 548,90 543,85 " style="fill:white; stroke-width:1; stroke:black; " description="&lt;b&gt;AAK53482.1&lt;/b&gt;&lt;br&gt;permease protein of an ABC-type polysaccaharide exporter&lt;br&gt;Location: 26345 - 27130" locus_tag="AAK53482.1" class="clusterblast-orf" id="dummy-1_h1_2_24"  />
</g>
<g id="a1_0025"  >
<polygon points="561,85 566,80 590,80 590,90 566,90 561,85 " style="fill:white; stroke-width:1; stroke:black; " description="&lt;b&gt;AAK53483.1&lt;/b&gt;&lt;br&gt;glycosyltransferase&lt;br&gt;Location: 27214 - 28599" locus_tag="AAK53483.1" class="clusterblast-orf" id="dummy-1_h1_2_25"  />
</g>
<g id="a1_0026"  >
<polygon points="590,85 595,80 614,80 614,90 595,90 590,85 " style="fill:#15d863; stroke-width:1; stroke:black; " description="&lt;b&gt;AAK53484.1&lt;/b&gt;&lt;br&gt;cystathionine gamma-synthase&lt;br&gt;Location: 28596 - 29795&lt;br&gt;&lt;br&gt;&lt;b&gt;BlastP hit with ctg2_60&lt;/b&gt;&lt;br&gt;Percentage identity: 68&lt;br&gt;Percentage coverage: 97&lt;br&gt;BLAST bit score: 538&lt;br&gt;E-value: 2.04e-192" locus_tag="AAK53484.1" class="clusterblast-orf" id="dummy-1_h1_2_26"  />
</g>
<g id="a1_0027"  >
<polygon points="616,85 621,80 645,80 645,90 621,90 616,85 " style="fill:#1563d8; stroke-width:1; stroke:black; " description="&lt;b&gt;AAK53485.1&lt;/b&gt;&lt;br&gt;cystathionine beta-lyase&lt;br&gt;Location: 29889 - 31259&lt;br&gt;&lt;br&gt;&lt;b&gt;BlastP hit with ctg2_61&lt;/b&gt;&lt;br&gt;Percentage identity: 62&lt;br&gt;Percentage coverage: 98&lt;br&gt;BLAST bit score: 548&lt;br&gt;E-value: 1.77e-194" locus_tag="AAK53485.1" class="clusterblast-orf" id="dummy-1_h1_2_27"  />
</g>
<g id="a1_0028"  >
<polygon points="650,85 655,80 660,80 660,90 655,90 650,85 " style="fill:white; stroke-width:1; stroke:black; " description="&lt;b&gt;AAK53486.1&lt;/b&gt;&lt;br&gt;UptF&lt;br&gt;Location: 31491 - 31985" locus_tag="AAK53486.1" class="clusterblast-orf" id="dummy-1_h1_2_28"  />
</g>
<g id="a1_0029"  >
<polygon points="661,85 666,80 680,80 680,90 666,90 661,85 " style="fill:white; stroke-width:1; stroke:black; " description="&lt;b&gt;AAK53487.1&lt;/b&gt;&lt;br&gt;putative outer membrane protein UptE precursor&lt;br&gt;Location: 32051 - 32941" locus_tag="AAK53487.1" class="clusterblast-orf" id="dummy-1_h1_2_29"  />
</g>
<g id="a1_0030"  >
<polygon points="680,85 685,80 688,80 688,90 685,90 680,85 " style="fill:white; stroke-width:1; stroke:black; " description="&lt;b&gt;AAK53488.1&lt;/b&gt;&lt;br&gt;putative outer membrane protein UptD precursor&lt;br&gt;Location: 32938 - 33321" locus_tag="AAK53488.1" class="clusterblast-orf" id="dummy-1_h1_2_30"  />
</g>
<g id="a1_0031"  >
<polygon points="690,90 708,90 713,85 708,80 690,80 690,90 " style="fill:white; stroke-width:1; stroke:black; " description="&lt;b&gt;AAK53489.1&lt;/b&gt;&lt;br&gt;type II secretion system protein-like protein&lt;br&gt;Location: 33420 - 34553" locus_tag="AAK53489.1" class="clusterblast-orf" id="dummy-1_h1_2_31"  />
</g>
<g id="a1_0032"  >
<polygon points="724,85 729,80 738,80 738,90 729,90 724,85 " style="fill:white; stroke-width:1; stroke:black; " description="&lt;b&gt;AAK53490.1&lt;/b&gt;&lt;br&gt;putative maleylacetoacetate isomerase&lt;br&gt;Location: 35073 - 35735" locus_tag="AAK53490.1" class="clusterblast-orf" id="dummy-1_h1_2_32"  />
</g>
<g id="a1_0033"  >
<polygon points="739,85 744,80 759,80 759,90 744,90 739,85 " style="fill:white; stroke-width:1; stroke:black; " description="&lt;b&gt;AAK53491.1&lt;/b&gt;&lt;br&gt;putative dioxygenase&lt;br&gt;Location: 35779 - 36768" locus_tag="AAK53491.1" class="clusterblast-orf" id="dummy-1_h1_2_33"  />
</g>
<g id="a1_0034"  >
<polygon points="767,90 775,90 780,85 775,80 767,80 767,90 " style="fill:white; stroke-width:1; stroke:black; " description="&lt;b&gt;AAK53492.1&lt;/b&gt;&lt;br&gt;putative ATP-dependent RNA helicase&lt;br&gt;Location: 37148 - 37753" locus_tag="AAK53492.1" class="clusterblast-orf" id="dummy-1_h1_2_34"  />
</g>
</svg>
