<svg xmlns="http://www.w3.org/2000/svg" xmlns:xlink="http://www.w3.org/1999/xlink" version="1.1" x="0" y="0" height="50" width="800" viewBox="0 0 800 50" preserveAspectRatio="none"  >
<g label="Query sequence" class="clusterblast-cluster"  >
<text x="5" y="20" class="clusterblast-acc"  >
Query sequence</text>
<line x1="10" y1="35" x2="778.0" y2="35" style="stroke-width:1; stroke:grey; "  />
<polygon points="0,40 4,40 9,35 4,30 0,30 0,40 " style="fill:white; stroke-width:1; stroke:black; " description="&lt;b&gt;ctg9_96&lt;/b&gt;&lt;br&gt;ctg9 96&lt;br&gt;Location: 112862 - 113777" locus_tag="ctg9_96" class="clusterblast-orf" id="subclusterblast-1_q0_0_all"  />
<polygon points="10,35 15,30 17,30 17,40 15,40 10,35 " style="fill:white; stroke-width:1; stroke:black; " description="&lt;b&gt;ctg9_97&lt;/b&gt;&lt;br&gt;ctg9 97&lt;br&gt;Location: 113897 - 114563" locus_tag="ctg9_97" class="clusterblast-orf" id="subclusterblast-1_q1_0_all"  />
<polygon points="17,35 22,30 52,30 52,40 22,40 17,35 " style="fill:white; stroke-width:1; stroke:black; " description="&lt;b&gt;ctg9_98&lt;/b&gt;&lt;br&gt;ctg9 98&lt;br&gt;Location: 114537 - 117921" locus_tag="ctg9_98" class="clusterblast-orf" id="subclusterblast-1_q2_0_all"  />
<polygon points="55,40 63,40 68,35 63,30 55,30 55,40 " style="fill:white; stroke-width:1; stroke:black; " description="&lt;b&gt;ctg9_99&lt;/b&gt;&lt;br&gt;ctg9 99&lt;br&gt;Location: 118223 - 119432" locus_tag="ctg9_99" class="clusterblast-orf" id="subclusterblast-1_q3_0_all"  />
<polygon points="70,40 74,40 79,35 74,30 70,30 70,40 " style="fill:white; stroke-width:1; stroke:black; " description="&lt;b&gt;ctg9_100&lt;/b&gt;&lt;br&gt;ctg9 100&lt;br&gt;Location: 119610 - 120528" locus_tag="ctg9_100" class="clusterblast-orf" id="subclusterblast-1_q4_0_all"  />
<polygon points="79,40 86,40 91,35 86,30 79,30 79,40 " style="fill:white; stroke-width:1; stroke:black; " description="&lt;b&gt;ctg9_101&lt;/b&gt;&lt;br&gt;ctg9 101&lt;br&gt;Location: 120538 - 121699" locus_tag="ctg9_101" class="clusterblast-orf" id="subclusterblast-1_q5_0_all"  />
<polygon points="91,40 94,40 99,35 94,30 91,30 91,40 " style="fill:white; stroke-width:1; stroke:black; " description="&lt;b&gt;ctg9_102&lt;/b&gt;&lt;br&gt;ctg9 102&lt;br&gt;Location: 121695 - 122454" locus_tag="ctg9_102" class="clusterblast-orf" id="subclusterblast-1_q6_0_all"  />
<polygon points="99,40 101,40 106,35 101,30 99,30 99,40 " style="fill:white; stroke-width:1; stroke:black; " description="&lt;b&gt;ctg9_103&lt;/b&gt;&lt;br&gt;ctg9 103&lt;br&gt;Location: 122464 - 123154" locus_tag="ctg9_103" class="clusterblast-orf" id="subclusterblast-1_q7_0_all"  />
<polygon points="108,40 116,40 121,35 116,30 108,30 108,40 " style="fill:white; stroke-width:1; stroke:black; " description="&lt;b&gt;ctg9_104&lt;/b&gt;&lt;br&gt;ctg9 104&lt;br&gt;Location: 123372 - 124602" locus_tag="ctg9_104" class="clusterblast-orf" id="subclusterblast-1_q8_0_all"  />
<polygon points="121,40 125,35 121,30 121,40 " style="fill:white; stroke-width:1; stroke:black; " description="&lt;b&gt;ctg9_105&lt;/b&gt;&lt;br&gt;ctg9 105&lt;br&gt;Location: 124604 - 124952" locus_tag="ctg9_105" class="clusterblast-orf" id="subclusterblast-1_q9_0_all"  />
<polygon points="125,40 131,40 136,35 131,30 125,30 125,40 " style="fill:white; stroke-width:1; stroke:black; " description="&lt;b&gt;ctg9_106&lt;/b&gt;&lt;br&gt;ctg9 106&lt;br&gt;Location: 124967 - 126011" locus_tag="ctg9_106" class="clusterblast-orf" id="subclusterblast-1_q10_0_all"  />
<polygon points="136,40 141,40 146,35 141,30 136,30 136,40 " style="fill:white; stroke-width:1; stroke:black; " description="&lt;b&gt;ctg9_107&lt;/b&gt;&lt;br&gt;ctg9 107&lt;br&gt;Location: 126014 - 126971" locus_tag="ctg9_107" class="clusterblast-orf" id="subclusterblast-1_q11_0_all"  />
<polygon points="146,40 147,40 152,35 147,30 146,30 146,40 " style="fill:white; stroke-width:1; stroke:black; " description="&lt;b&gt;ctg9_108&lt;/b&gt;&lt;br&gt;ctg9 108&lt;br&gt;Location: 127038 - 127611" locus_tag="ctg9_108" class="clusterblast-orf" id="subclusterblast-1_q12_0_all"  />
<polygon points="153,40 162,40 167,35 162,30 153,30 153,40 " style="fill:white; stroke-width:1; stroke:black; " description="&lt;b&gt;ctg9_109&lt;/b&gt;&lt;br&gt;ctg9 109&lt;br&gt;Location: 127636 - 128992" locus_tag="ctg9_109" class="clusterblast-orf" id="subclusterblast-1_q13_0_all"  />
<polygon points="167,35 172,30 173,30 173,40 172,40 167,35 " style="fill:white; stroke-width:1; stroke:black; " description="&lt;b&gt;ctg9_110&lt;/b&gt;&lt;br&gt;ctg9 110&lt;br&gt;Location: 128975 - 129569" locus_tag="ctg9_110" class="clusterblast-orf" id="subclusterblast-1_q14_0_all"  />
<polygon points="174,40 182,40 187,35 182,30 174,30 174,40 " style="fill:white; stroke-width:1; stroke:black; " description="&lt;b&gt;ctg9_111&lt;/b&gt;&lt;br&gt;ctg9 111&lt;br&gt;Location: 129711 - 130902" locus_tag="ctg9_111" class="clusterblast-orf" id="subclusterblast-1_q15_0_all"  />
<polygon points="186,35 190,30 190,40 186,35 " style="fill:white; stroke-width:1; stroke:black; " description="&lt;b&gt;ctg9_112&lt;/b&gt;&lt;br&gt;ctg9 112&lt;br&gt;Location: 130884 - 131250" locus_tag="ctg9_112" class="clusterblast-orf" id="subclusterblast-1_q16_0_all"  />
<polygon points="190,35 193,30 193,40 190,35 " style="fill:white; stroke-width:1; stroke:black; " description="&lt;b&gt;ctg9_113&lt;/b&gt;&lt;br&gt;ctg9 113&lt;br&gt;Location: 131246 - 131498" locus_tag="ctg9_113" class="clusterblast-orf" id="subclusterblast-1_q17_0_all"  />
<polygon points="195,40 335,40 340,35 335,30 195,30 195,40 " style="fill:white; stroke-width:1; stroke:black; " description="&lt;b&gt;ctg9_114&lt;/b&gt;&lt;br&gt;ctg9 114&lt;br&gt;Location: 131707 - 145762" locus_tag="ctg9_114" class="clusterblast-orf" id="subclusterblast-1_q18_0_all"  />
<polygon points="340,40 458,40 463,35 458,30 340,30 340,40 " style="fill:white; stroke-width:1; stroke:black; " description="&lt;b&gt;ctg9_115&lt;/b&gt;&lt;br&gt;ctg9 115&lt;br&gt;Location: 145765 - 157618" locus_tag="ctg9_115" class="clusterblast-orf" id="subclusterblast-1_q19_0_all"  />
<polygon points="465,35 470,30 490,30 490,40 470,40 465,35 " style="fill:white; stroke-width:1; stroke:black; " description="&lt;b&gt;ctg9_116&lt;/b&gt;&lt;br&gt;ctg9 116&lt;br&gt;Location: 157762 - 160204" locus_tag="ctg9_116" class="clusterblast-orf" id="subclusterblast-1_q20_0_all"  />
<polygon points="491,35 496,30 508,30 508,40 496,40 491,35 " style="fill:white; stroke-width:1; stroke:black; " description="&lt;b&gt;ctg9_117&lt;/b&gt;&lt;br&gt;ctg9 117&lt;br&gt;Location: 160313 - 161966" locus_tag="ctg9_117" class="clusterblast-orf" id="subclusterblast-1_q21_0_all"  />
<polygon points="510,40 514,40 519,35 514,30 510,30 510,40 " style="fill:white; stroke-width:1; stroke:black; " description="&lt;b&gt;ctg9_118&lt;/b&gt;&lt;br&gt;ctg9 118&lt;br&gt;Location: 162164 - 162992" locus_tag="ctg9_118" class="clusterblast-orf" id="subclusterblast-1_q22_0_all"  />
<polygon points="520,35 525,30 529,30 529,40 525,40 520,35 " style="fill:white; stroke-width:1; stroke:black; " description="&lt;b&gt;ctg9_119&lt;/b&gt;&lt;br&gt;ctg9 119&lt;br&gt;Location: 163134 - 164007" locus_tag="ctg9_119" class="clusterblast-orf" id="subclusterblast-1_q23_0_all"  />
<polygon points="530,35 535,30 543,30 543,40 535,40 530,35 " style="fill:white; stroke-width:1; stroke:black; " description="&lt;b&gt;ctg9_120&lt;/b&gt;&lt;br&gt;ctg9 120&lt;br&gt;Location: 164040 - 165321" locus_tag="ctg9_120" class="clusterblast-orf" id="subclusterblast-1_q24_0_all"  />
<polygon points="543,35 548,30 557,30 557,40 548,40 543,35 " style="fill:white; stroke-width:1; stroke:black; " description="&lt;b&gt;ctg9_121&lt;/b&gt;&lt;br&gt;ctg9 121&lt;br&gt;Location: 165339 - 166689" locus_tag="ctg9_121" class="clusterblast-orf" id="subclusterblast-1_q25_0_all"  />
<polygon points="559,40 571,40 576,35 571,30 559,30 559,40 " style="fill:white; stroke-width:1; stroke:black; " description="&lt;b&gt;ctg9_122&lt;/b&gt;&lt;br&gt;ctg9 122&lt;br&gt;Location: 166831 - 168451" locus_tag="ctg9_122" class="clusterblast-orf" id="subclusterblast-1_q26_0_all"  />
<polygon points="575,35 580,30 585,30 585,40 580,40 575,35 " style="fill:white; stroke-width:1; stroke:black; " description="&lt;b&gt;ctg9_123&lt;/b&gt;&lt;br&gt;ctg9 123&lt;br&gt;Location: 168443 - 169391" locus_tag="ctg9_123" class="clusterblast-orf" id="subclusterblast-1_q27_0_all"  />
<polygon points="587,40 591,40 596,35 591,30 587,30 587,40 " style="fill:white; stroke-width:1; stroke:black; " description="&lt;b&gt;ctg9_124&lt;/b&gt;&lt;br&gt;ctg9 124&lt;br&gt;Location: 169534 - 170425" locus_tag="ctg9_124" class="clusterblast-orf" id="subclusterblast-1_q28_0_all"  />
<polygon points="596,40 601,40 606,35 601,30 596,30 596,40 " style="fill:white; stroke-width:1; stroke:black; " description="&lt;b&gt;ctg9_125&lt;/b&gt;&lt;br&gt;ctg9 125&lt;br&gt;Location: 170424 - 171396" locus_tag="ctg9_125" class="clusterblast-orf" id="subclusterblast-1_q29_0_all"  />
<polygon points="606,40 610,40 615,35 610,30 606,30 606,40 " style="fill:white; stroke-width:1; stroke:black; " description="&lt;b&gt;ctg9_126&lt;/b&gt;&lt;br&gt;ctg9 126&lt;br&gt;Location: 171392 - 172262" locus_tag="ctg9_126" class="clusterblast-orf" id="subclusterblast-1_q30_0_all"  />
<polygon points="615,40 618,35 615,30 615,40 " style="fill:white; stroke-width:1; stroke:black; " description="&lt;b&gt;ctg9_127&lt;/b&gt;&lt;br&gt;ctg9 127&lt;br&gt;Location: 172276 - 172537" locus_tag="ctg9_127" class="clusterblast-orf" id="subclusterblast-1_q31_0_all"  />
<polygon points="618,40 621,40 626,35 621,30 618,30 618,40 " style="fill:white; stroke-width:1; stroke:black; " description="&lt;b&gt;ctg9_128&lt;/b&gt;&lt;br&gt;ctg9 128&lt;br&gt;Location: 172533 - 173364" locus_tag="ctg9_128" class="clusterblast-orf" id="subclusterblast-1_q32_0_all"  />
<polygon points="627,40 649,40 654,35 649,30 627,30 627,40 " style="fill:white; stroke-width:1; stroke:black; " description="&lt;b&gt;ctg9_129&lt;/b&gt;&lt;br&gt;ctg9 129&lt;br&gt;Location: 173377 - 176035" locus_tag="ctg9_129" class="clusterblast-orf" id="subclusterblast-1_q33_0_all"  />
<polygon points="658,40 661,40 666,35 661,30 658,30 658,40 " style="fill:white; stroke-width:1; stroke:black; " description="&lt;b&gt;ctg9_130&lt;/b&gt;&lt;br&gt;ctg9 130&lt;br&gt;Location: 176436 - 177153" locus_tag="ctg9_130" class="clusterblast-orf" id="subclusterblast-1_q34_0_all"  />
<polygon points="666,40 670,35 666,30 666,40 " style="fill:white; stroke-width:1; stroke:black; " description="&lt;b&gt;ctg9_131&lt;/b&gt;&lt;br&gt;ctg9 131&lt;br&gt;Location: 177205 - 177541" locus_tag="ctg9_131" class="clusterblast-orf" id="subclusterblast-1_q35_0_all"  />
<polygon points="670,40 676,40 681,35 676,30 670,30 670,40 " style="fill:white; stroke-width:1; stroke:black; " description="&lt;b&gt;ctg9_132&lt;/b&gt;&lt;br&gt;ctg9 132&lt;br&gt;Location: 177556 - 178663" locus_tag="ctg9_132" class="clusterblast-orf" id="subclusterblast-1_q36_0_all"  />
<polygon points="683,40 683,40 688,35 683,30 683,30 683,40 " style="fill:white; stroke-width:1; stroke:black; " description="&lt;b&gt;ctg9_133&lt;/b&gt;&lt;br&gt;ctg9 133&lt;br&gt;Location: 178825 - 179317" locus_tag="ctg9_133" class="clusterblast-orf" id="subclusterblast-1_q37_0_all"  />
<polygon points="689,35 691,30 691,40 689,35 " style="fill:white; stroke-width:1; stroke:black; " description="&lt;b&gt;ctg9_134&lt;/b&gt;&lt;br&gt;ctg9 134&lt;br&gt;Location: 179418 - 179640" locus_tag="ctg9_134" class="clusterblast-orf" id="subclusterblast-1_q38_0_all"  />
<polygon points="693,35 698,30 716,30 716,40 698,40 693,35 " style="fill:white; stroke-width:1; stroke:black; " description="&lt;b&gt;ctg9_135&lt;/b&gt;&lt;br&gt;ctg9 135&lt;br&gt;Location: 179781 - 182010" locus_tag="ctg9_135" class="clusterblast-orf" id="subclusterblast-1_q39_0_all"  />
<polygon points="717,35 722,30 735,30 735,40 722,40 717,35 " style="fill:white; stroke-width:1; stroke:black; " description="&lt;b&gt;ctg9_136&lt;/b&gt;&lt;br&gt;ctg9 136&lt;br&gt;Location: 182136 - 183879" locus_tag="ctg9_136" class="clusterblast-orf" id="subclusterblast-1_q40_0_all"  />
<polygon points="737,35 739,30 739,40 737,35 " style="fill:white; stroke-width:1; stroke:black; " description="&lt;b&gt;ctg9_137&lt;/b&gt;&lt;br&gt;ctg9 137&lt;br&gt;Location: 184043 - 184220" locus_tag="ctg9_137" class="clusterblast-orf" id="subclusterblast-1_q41_0_all"  />
<polygon points="742,40 747,40 752,35 747,30 742,30 742,40 " style="fill:white; stroke-width:1; stroke:black; " description="&lt;b&gt;ctg9_138&lt;/b&gt;&lt;br&gt;ctg9 138&lt;br&gt;Location: 184489 - 185473" locus_tag="ctg9_138" class="clusterblast-orf" id="subclusterblast-1_q42_0_all"  />
<polygon points="752,40 763,40 768,35 763,30 752,30 752,40 " style="fill:white; stroke-width:1; stroke:black; " description="&lt;b&gt;ctg9_139&lt;/b&gt;&lt;br&gt;ctg9 139&lt;br&gt;Location: 185469 - 186993" locus_tag="ctg9_139" class="clusterblast-orf" id="subclusterblast-1_q43_0_all"  />
<polygon points="768,40 771,40 776,35 771,30 768,30 768,40 " style="fill:white; stroke-width:1; stroke:black; " description="&lt;b&gt;ctg9_140&lt;/b&gt;&lt;br&gt;ctg9 140&lt;br&gt;Location: 186989 - 187814" locus_tag="ctg9_140" class="clusterblast-orf" id="subclusterblast-1_q44_0_all"  />
<polygon points="777,35 780,30 780,40 777,35 " style="fill:white; stroke-width:1; stroke:black; " description="&lt;b&gt;ctg9_141&lt;/b&gt;&lt;br&gt;ctg9 141&lt;br&gt;Location: 187889 - 188150" locus_tag="ctg9_141" class="clusterblast-orf" id="subclusterblast-1_q45_0_all"  />
</g>
</svg>
