<svg xmlns="http://www.w3.org/2000/svg" xmlns:xlink="http://www.w3.org/1999/xlink" version="1.1" x="0" y="0" height="230" width="800" viewBox="0 0 800 230" preserveAspectRatio="none"  >
<g label="Query sequence" class="clusterblast-cluster"  >
<text x="5" y="20" class="clusterblast-acc"  >
Query sequence</text>
<line x1="10" y1="35" x2="778.0" y2="35" style="stroke-width:1; stroke:grey; "  />
<polygon points="0,40 17,40 22,35 17,30 0,30 0,40 " style="fill:#d81515; stroke-width:1; stroke:black; " description="&lt;b&gt;ctg22_19&lt;/b&gt;&lt;br&gt;ctg22 19&lt;br&gt;Location: 16848 - 17619" locus_tag="ctg22_19" class="clusterblast-orf" id="dummy-1_q0_0_all"  />
<polygon points="24,35 29,30 86,30 86,40 29,40 24,35 " style="fill:#60d815; stroke-width:1; stroke:black; " description="&lt;b&gt;ctg22_20&lt;/b&gt;&lt;br&gt;ctg22 20&lt;br&gt;Location: 17698 - 19846" locus_tag="ctg22_20" class="clusterblast-orf" id="dummy-1_q1_0_all"  />
<polygon points="89,40 97,40 102,35 97,30 89,30 89,40 " style="fill:#15abd8; stroke-width:1; stroke:black; " description="&lt;b&gt;ctg22_21&lt;/b&gt;&lt;br&gt;ctg22 21&lt;br&gt;Location: 19942 - 20371" locus_tag="ctg22_21" class="clusterblast-orf" id="dummy-1_q2_0_all"  />
<polygon points="102,40 110,40 115,35 110,30 102,30 102,40 " style="fill:#8d15d8; stroke-width:1; stroke:black; " description="&lt;b&gt;ctg22_22&lt;/b&gt;&lt;br&gt;ctg22 22&lt;br&gt;Location: 20391 - 20847" locus_tag="ctg22_22" class="clusterblast-orf" id="dummy-1_q3_0_all"  />
<polygon points="115,40 123,40 128,35 123,30 115,30 115,40 " style="fill:#d84215; stroke-width:1; stroke:black; " description="&lt;b&gt;ctg22_23&lt;/b&gt;&lt;br&gt;ctg22 23&lt;br&gt;Location: 20839 - 21289" locus_tag="ctg22_23" class="clusterblast-orf" id="dummy-1_q4_0_all"  />
<polygon points="129,35 134,30 146,30 146,40 134,40 129,35 " style="fill:#33d815; stroke-width:1; stroke:black; " description="&lt;b&gt;ctg22_24&lt;/b&gt;&lt;br&gt;ctg22 24&lt;br&gt;Location: 21332 - 21911" locus_tag="ctg22_24" class="clusterblast-orf" id="dummy-1_q5_0_all"  />
<polygon points="148,35 153,30 186,30 186,40 153,40 148,35 " style="fill:#157ed8; stroke-width:1; stroke:black; " description="&lt;b&gt;ctg22_25&lt;/b&gt;&lt;br&gt;ctg22 25&lt;br&gt;Location: 21980 - 23294" locus_tag="ctg22_25" class="clusterblast-orf" id="dummy-1_q6_0_all"  />
<polygon points="188,35 192,30 192,40 188,35 " style="fill:#ba15d8; stroke-width:1; stroke:black; " description="&lt;b&gt;ctg22_26&lt;/b&gt;&lt;br&gt;ctg22 26&lt;br&gt;Location: 23344 - 23500" locus_tag="ctg22_26" class="clusterblast-orf" id="dummy-1_q7_0_all"  />
<polygon points="195,35 200,30 218,30 218,40 200,40 195,35 " style="fill:#d86f15; stroke-width:1; stroke:black; " description="&lt;b&gt;ctg22_27&lt;/b&gt;&lt;br&gt;ctg22 27&lt;br&gt;Location: 23601 - 24408" locus_tag="ctg22_27" class="clusterblast-orf" id="dummy-1_q8_0_all"  />
<polygon points="219,35 224,30 237,30 237,40 224,40 219,35 " style="fill:#15d824; stroke-width:1; stroke:black; " description="&lt;b&gt;ctg22_28&lt;/b&gt;&lt;br&gt;ctg22 28&lt;br&gt;Location: 24436 - 25069" locus_tag="ctg22_28" class="clusterblast-orf" id="dummy-1_q9_0_all"  />
<polygon points="241,40 255,40 260,35 255,30 241,30 241,40 " style="fill:#1551d8; stroke-width:1; stroke:black; " description="&lt;b&gt;ctg22_29&lt;/b&gt;&lt;br&gt;ctg22 29&lt;br&gt;Location: 25180 - 25837" locus_tag="ctg22_29" class="clusterblast-orf" id="dummy-1_q10_0_all"  />
<polygon points="260,35 265,30 278,30 278,40 265,40 260,35 " style="fill:#d815c9; stroke-width:1; stroke:black; " description="&lt;b&gt;ctg22_30&lt;/b&gt;&lt;br&gt;ctg22 30&lt;br&gt;Location: 25850 - 26471" locus_tag="ctg22_30" class="clusterblast-orf" id="dummy-1_q11_0_all"  />
<polygon points="281,40 341,40 346,35 341,30 281,30 281,40 " style="fill:#d89c15; stroke-width:1; stroke:black; " description="&lt;b&gt;ctg22_31&lt;/b&gt;&lt;br&gt;ctg22 31&lt;br&gt;Location: 26565 - 28806" locus_tag="ctg22_31" class="clusterblast-orf" id="dummy-1_q12_0_all"  />
<polygon points="350,35 355,30 355,30 355,40 355,40 350,35 " style="fill:white; stroke-width:1; stroke:black; " description="&lt;b&gt;ctg22_32&lt;/b&gt;&lt;br&gt;ctg22 32&lt;br&gt;Location: 28959 - 29127" locus_tag="ctg22_32" class="clusterblast-orf" id="dummy-1_q13_0_all"  />
<polygon points="355,35 360,30 360,30 360,40 360,40 355,35 " style="fill:white; stroke-width:1; stroke:black; " description="&lt;b&gt;ctg22_33&lt;/b&gt;&lt;br&gt;ctg22 33&lt;br&gt;Location: 29126 - 29294" locus_tag="ctg22_33" class="clusterblast-orf" id="dummy-1_q14_0_all"  />
<polygon points="360,35 364,30 364,40 360,35 " style="fill:white; stroke-width:1; stroke:black; " description="&lt;b&gt;ctg22_34&lt;/b&gt;&lt;br&gt;ctg22 34&lt;br&gt;Location: 29293 - 29461" locus_tag="ctg22_34" class="clusterblast-orf" id="dummy-1_q15_0_all"  />
<polygon points="364,35 369,30 369,30 369,40 369,40 364,35 " style="fill:white; stroke-width:1; stroke:black; " description="&lt;b&gt;ctg22_35&lt;/b&gt;&lt;br&gt;ctg22 35&lt;br&gt;Location: 29460 - 29625" locus_tag="ctg22_35" class="clusterblast-orf" id="dummy-1_q16_0_all"  />
<polygon points="376,35 381,30 410,30 410,40 381,40 376,35 " style="fill:#15d851; stroke-width:1; stroke:black; " description="&lt;b&gt;ctg22_36&lt;/b&gt;&lt;br&gt;ctg22 36&lt;br&gt;Location: 29871 - 31038" locus_tag="ctg22_36" class="clusterblast-orf" id="dummy-1_q17_0_all"  />
<polygon points="410,35 415,30 450,30 450,40 415,40 410,35 " style="fill:#1524d8; stroke-width:1; stroke:black; " description="&lt;b&gt;ctg22_37&lt;/b&gt;&lt;br&gt;ctg22 37&lt;br&gt;Location: 31034 - 32411" locus_tag="ctg22_37" class="clusterblast-orf" id="dummy-1_q18_0_all"  />
<polygon points="454,35 459,30 479,30 479,40 459,40 454,35 " style="fill:#d8159c; stroke-width:1; stroke:black; " description="&lt;b&gt;ctg22_38&lt;/b&gt;&lt;br&gt;ctg22 38&lt;br&gt;Location: 32555 - 33407" locus_tag="ctg22_38" class="clusterblast-orf" id="dummy-1_q19_0_all"  />
<polygon points="482,35 485,30 485,40 482,35 " style="fill:white; stroke-width:1; stroke:black; " description="&lt;b&gt;ctg22_39&lt;/b&gt;&lt;br&gt;ctg22 39&lt;br&gt;Location: 33533 - 33638" locus_tag="ctg22_39" class="clusterblast-orf" id="dummy-1_q20_0_all"  />
<polygon points="487,35 492,30 515,30 515,40 492,40 487,35 " style="fill:#d8c915; stroke-width:1; stroke:black; " description="&lt;b&gt;ctg22_40&lt;/b&gt;&lt;br&gt;ctg22 40&lt;br&gt;Location: 33692 - 34670" locus_tag="ctg22_40" class="clusterblast-orf" id="dummy-1_q21_0_all"  />
<polygon points="521,35 526,30 533,30 533,40 526,40 521,35 " style="fill:#15d87e; stroke-width:1; stroke:black; " description="&lt;b&gt;ctg22_41&lt;/b&gt;&lt;br&gt;ctg22 41&lt;br&gt;Location: 34885 - 35278" locus_tag="ctg22_41" class="clusterblast-orf" id="dummy-1_q22_0_all"  />
<polygon points="533,35 538,30 551,30 551,40 538,40 533,35 " style="fill:#3315d8; stroke-width:1; stroke:black; " description="&lt;b&gt;ctg22_42&lt;/b&gt;&lt;br&gt;ctg22 42&lt;br&gt;Location: 35308 - 35929" locus_tag="ctg22_42" class="clusterblast-orf" id="dummy-1_q23_0_all"  />
<polygon points="558,35 563,30 587,30 587,40 563,40 558,35 " style="fill:#d8156f; stroke-width:1; stroke:black; " description="&lt;b&gt;ctg22_43&lt;/b&gt;&lt;br&gt;ctg22 43&lt;br&gt;Location: 36151 - 37171" locus_tag="ctg22_43" class="clusterblast-orf" id="dummy-1_q24_0_all"  />
<polygon points="591,35 596,30 613,30 613,40 596,40 591,35 " style="fill:#bad815; stroke-width:1; stroke:black; " description="&lt;b&gt;ctg22_44&lt;/b&gt;&lt;br&gt;ctg22 44&lt;br&gt;Location: 37310 - 38072" locus_tag="ctg22_44" class="clusterblast-orf" id="dummy-1_q25_0_all"  />
<polygon points="619,35 624,30 638,30 638,40 624,40 619,35 " style="fill:#15d8ab; stroke-width:1; stroke:black; " description="&lt;b&gt;ctg22_45&lt;/b&gt;&lt;br&gt;ctg22 45&lt;br&gt;Location: 38262 - 38922" locus_tag="ctg22_45" class="clusterblast-orf" id="dummy-1_q26_0_all"  />
<polygon points="638,35 643,30 655,30 655,40 643,40 638,35 " style="fill:#6015d8; stroke-width:1; stroke:black; " description="&lt;b&gt;ctg22_46&lt;/b&gt;&lt;br&gt;ctg22 46&lt;br&gt;Location: 38918 - 39518" locus_tag="ctg22_46" class="clusterblast-orf" id="dummy-1_q27_0_all"  />
<polygon points="655,35 660,30 677,30 677,40 660,40 655,35 " style="fill:#bad815; stroke-width:1; stroke:black; " description="&lt;b&gt;ctg22_47&lt;/b&gt;&lt;br&gt;ctg22 47&lt;br&gt;Location: 39514 - 40273" locus_tag="ctg22_47" class="clusterblast-orf" id="dummy-1_q28_0_all"  />
<polygon points="677,35 682,30 706,30 706,40 682,40 677,35 " style="fill:#d81542; stroke-width:1; stroke:black; " description="&lt;b&gt;ctg22_48&lt;/b&gt;&lt;br&gt;ctg22 48&lt;br&gt;Location: 40269 - 41268" locus_tag="ctg22_48" class="clusterblast-orf" id="dummy-1_q29_0_all"  />
<polygon points="706,35 711,30 768,30 768,40 711,40 706,35 " style="fill:#8dd815; stroke-width:1; stroke:black; " description="&lt;b&gt;ctg22_49&lt;/b&gt;&lt;br&gt;ctg22 49&lt;br&gt;Location: 41269 - 43426" locus_tag="ctg22_49" class="clusterblast-orf" id="dummy-1_q30_0_all"  />
<polygon points="772,35 777,30 780,30 780,40 777,40 772,35 " style="fill:#15d8d8; stroke-width:1; stroke:black; " description="&lt;b&gt;ctg22_50&lt;/b&gt;&lt;br&gt;ctg22 50&lt;br&gt;Location: 43557 - 43827" locus_tag="ctg22_50" class="clusterblast-orf" id="dummy-1_q31_0_all"  />
</g>
<g label="NZ_LT907842" description="NZ_LT907842 (5735876-5765125): Pseudomonas fluorescens strain ATCC 13525 chro... (85% of genes show similarity), thiopeptide" class="clusterblast-cluster"  >
<text x="5" y="70" class="clusterblast-acc"  >
<a xlink:href="https://antismash-db.secondarymetabolites.org/area.html?record=NZ_LT907842&amp;start=5735876&amp;end=5765125" target="_blank">NZ_LT907842 (5735876-5765125)</a>: Pseudomonas fluorescens strain ATCC 13525 chro... (85% of genes show similarity), thiopeptide</text>
<line x1="10" y1="85" x2="778.0" y2="85" style="stroke-width:1; stroke:grey; "  />
</g>
<g id="a1_000"  >
<polygon points="4,90 13,90 18,85 13,80 4,80 4,90 " style="fill:white; stroke-width:1; stroke:black; " description="&lt;b&gt;CPH89_RS26630&lt;/b&gt;&lt;br&gt;ATP-binding protein&lt;br&gt;Location: 5765077 - 5764598" locus_tag="CPH89_RS26630" class="clusterblast-orf" id="dummy-1_h1_2_0"  />
</g>
<g id="a1_001"  >
<polygon points="18,90 35,90 40,85 35,80 18,80 18,90 " style="fill:#d81515; stroke-width:1; stroke:black; " description="&lt;b&gt;CPH89_RS26625&lt;/b&gt;&lt;br&gt;nucleotidyltransferase domain-containing protein&lt;br&gt;Location: 5764601 - 5763831&lt;br&gt;&lt;br&gt;&lt;b&gt;BlastP hit with ctg22_19&lt;/b&gt;&lt;br&gt;Percentage identity: 89&lt;br&gt;Percentage coverage: 100&lt;br&gt;BLAST bit score: 459&lt;br&gt;E-value: 5.32e-164" locus_tag="CPH89_RS26625" class="clusterblast-orf" id="dummy-1_h1_2_1"  />
</g>
<g id="a1_002"  >
<polygon points="42,85 47,80 98,80 98,90 47,90 42,85 " style="fill:#60d815; stroke-width:1; stroke:black; " description="&lt;b&gt;CPH89_RS26620&lt;/b&gt;&lt;br&gt;methyl-accepting chemotaxis protein&lt;br&gt;Location: 5763755 - 5761815&lt;br&gt;&lt;br&gt;&lt;b&gt;BlastP hit with ctg22_20&lt;/b&gt;&lt;br&gt;Percentage identity: 98&lt;br&gt;Percentage coverage: 90&lt;br&gt;BLAST bit score: 1181&lt;br&gt;E-value: 0.0" locus_tag="CPH89_RS26620" class="clusterblast-orf" id="dummy-1_h1_2_2"  />
</g>
<g id="a1_003"  >
<polygon points="107,90 115,90 120,85 115,80 107,80 107,90 " style="fill:#8d15d8; stroke-width:1; stroke:black; " description="&lt;b&gt;CPH89_RS26615&lt;/b&gt;&lt;br&gt;VOC family protein&lt;br&gt;Location: 5761513 - 5761058&lt;br&gt;&lt;br&gt;&lt;b&gt;BlastP hit with ctg22_22&lt;/b&gt;&lt;br&gt;Percentage identity: 96&lt;br&gt;Percentage coverage: 100&lt;br&gt;BLAST bit score: 292&lt;br&gt;E-value: 1.86e-101" locus_tag="CPH89_RS26615" class="clusterblast-orf" id="dummy-1_h1_2_3"  />
</g>
<g id="a1_004"  >
<polygon points="120,90 128,90 133,85 128,80 120,80 120,90 " style="fill:#d84215; stroke-width:1; stroke:black; " description="&lt;b&gt;CPH89_RS26610&lt;/b&gt;&lt;br&gt;NUDIX domain-containing protein&lt;br&gt;Location: 5761065 - 5760616&lt;br&gt;&lt;br&gt;&lt;b&gt;BlastP hit with ctg22_23&lt;/b&gt;&lt;br&gt;Percentage identity: 96&lt;br&gt;Percentage coverage: 100&lt;br&gt;BLAST bit score: 285&lt;br&gt;E-value: 6.27e-99" locus_tag="CPH89_RS26610" class="clusterblast-orf" id="dummy-1_h1_2_4"  />
</g>
<g id="a1_005"  >
<polygon points="133,85 138,80 164,80 164,90 138,90 133,85 " style="fill:white; stroke-width:1; stroke:black; " description="&lt;b&gt;CPH89_RS26605&lt;/b&gt;&lt;br&gt;FAD-binding oxidoreductase&lt;br&gt;Location: 5760604 - 5759537" locus_tag="CPH89_RS26605" class="clusterblast-orf" id="dummy-1_h1_2_5"  />
</g>
<g id="a1_006"  >
<polygon points="164,85 169,80 181,80 181,90 169,90 164,85 " style="fill:#33d815; stroke-width:1; stroke:black; " description="&lt;b&gt;CPH89_RS26600&lt;/b&gt;&lt;br&gt;cysteine hydrolase&lt;br&gt;Location: 5759523 - 5758963&lt;br&gt;&lt;br&gt;&lt;b&gt;BlastP hit with ctg22_24&lt;/b&gt;&lt;br&gt;Percentage identity: 95&lt;br&gt;Percentage coverage: 96&lt;br&gt;BLAST bit score: 356&lt;br&gt;E-value: 1.63e-125" locus_tag="CPH89_RS26600" class="clusterblast-orf" id="dummy-1_h1_2_6"  />
</g>
<g id="a1_007"  >
<polygon points="183,85 188,80 221,80 221,90 188,90 183,85 " style="fill:#157ed8; stroke-width:1; stroke:black; " description="&lt;b&gt;CPH89_RS26595&lt;/b&gt;&lt;br&gt;FAD-binding oxidoreductase&lt;br&gt;Location: 5758893 - 5757580&lt;br&gt;&lt;br&gt;&lt;b&gt;BlastP hit with ctg22_25&lt;/b&gt;&lt;br&gt;Percentage identity: 96&lt;br&gt;Percentage coverage: 100&lt;br&gt;BLAST bit score: 854&lt;br&gt;E-value: 1.99e-314" locus_tag="CPH89_RS26595" class="clusterblast-orf" id="dummy-1_h1_2_7"  />
</g>
<g id="a1_008"  >
<polygon points="222,85 227,80 227,80 227,90 227,90 222,85 " style="fill:#ba15d8; stroke-width:1; stroke:black; " description="&lt;b&gt;CPH89_RS30480&lt;/b&gt;&lt;br&gt;hypothetical protein&lt;br&gt;Location: 5757528 - 5757373&lt;br&gt;&lt;br&gt;&lt;b&gt;BlastP hit with ctg22_26&lt;/b&gt;&lt;br&gt;Percentage identity: 86&lt;br&gt;Percentage coverage: 100&lt;br&gt;BLAST bit score: 97&lt;br&gt;E-value: 4.36e-27" locus_tag="CPH89_RS30480" class="clusterblast-orf" id="dummy-1_h1_2_8"  />
</g>
<g id="a1_009"  >
<polygon points="229,85 234,80 247,80 247,90 234,90 229,85 " style="fill:#15d824; stroke-width:1; stroke:black; " description="&lt;b&gt;CPH89_RS26590&lt;/b&gt;&lt;br&gt;TetR family transcriptional regulator&lt;br&gt;Location: 5757295 - 5756663&lt;br&gt;&lt;br&gt;&lt;b&gt;BlastP hit with ctg22_28&lt;/b&gt;&lt;br&gt;Percentage identity: 88&lt;br&gt;Percentage coverage: 99&lt;br&gt;BLAST bit score: 344&lt;br&gt;E-value: 2.93e-120" locus_tag="CPH89_RS26590" class="clusterblast-orf" id="dummy-1_h1_2_9"  />
</g>
<g id="a1_0010"  >
<polygon points="250,90 264,90 269,85 264,80 250,80 250,90 " style="fill:#1551d8; stroke-width:1; stroke:black; " description="&lt;b&gt;CPH89_RS26585&lt;/b&gt;&lt;br&gt;class I SAM-dependent methyltransferase&lt;br&gt;Location: 5756551 - 5755895&lt;br&gt;&lt;br&gt;&lt;b&gt;BlastP hit with ctg22_29&lt;/b&gt;&lt;br&gt;Percentage identity: 96&lt;br&gt;Percentage coverage: 100&lt;br&gt;BLAST bit score: 408&lt;br&gt;E-value: 3.83e-145" locus_tag="CPH89_RS26585" class="clusterblast-orf" id="dummy-1_h1_2_10"  />
</g>
<g id="a1_0011"  >
<polygon points="270,85 275,80 288,80 288,90 275,90 270,85 " style="fill:#d815c9; stroke-width:1; stroke:black; " description="&lt;b&gt;CPH89_RS26580&lt;/b&gt;&lt;br&gt;LysE family translocator&lt;br&gt;Location: 5755881 - 5755261&lt;br&gt;&lt;br&gt;&lt;b&gt;BlastP hit with ctg22_30&lt;/b&gt;&lt;br&gt;Percentage identity: 96&lt;br&gt;Percentage coverage: 100&lt;br&gt;BLAST bit score: 386&lt;br&gt;E-value: 5.29e-137" locus_tag="CPH89_RS26580" class="clusterblast-orf" id="dummy-1_h1_2_11"  />
</g>
<g id="a1_0012"  >
<polygon points="292,90 350,90 355,85 350,80 292,80 292,90 " style="fill:#d89c15; stroke-width:1; stroke:black; " description="&lt;b&gt;CPH89_RS26575&lt;/b&gt;&lt;br&gt;OsmC domain/YcaO domain-containing protein&lt;br&gt;Location: 5755125 - 5752927&lt;br&gt;&lt;br&gt;&lt;b&gt;BlastP hit with ctg22_31&lt;/b&gt;&lt;br&gt;Percentage identity: 99&lt;br&gt;Percentage coverage: 98&lt;br&gt;BLAST bit score: 1462&lt;br&gt;E-value: 0.0" locus_tag="CPH89_RS26575" class="clusterblast-orf" id="dummy-1_h1_2_12"  />
</g>
<g id="a1_0013"  >
<polygon points="391,85 396,80 425,80 425,90 396,90 391,85 " style="fill:#15d851; stroke-width:1; stroke:black; " description="&lt;b&gt;CPH89_RS26570&lt;/b&gt;&lt;br&gt;cystathionine gamma-synthase&lt;br&gt;Location: 5751673 - 5750507&lt;br&gt;&lt;br&gt;&lt;b&gt;BlastP hit with ctg22_36&lt;/b&gt;&lt;br&gt;Percentage identity: 98&lt;br&gt;Percentage coverage: 100&lt;br&gt;BLAST bit score: 760&lt;br&gt;E-value: 6.68e-279" locus_tag="CPH89_RS26570" class="clusterblast-orf" id="dummy-1_h1_2_13"  />
</g>
<g id="a1_0014"  >
<polygon points="425,85 430,80 465,80 465,90 430,90 425,85 " style="fill:#1524d8; stroke-width:1; stroke:black; " description="&lt;b&gt;CPH89_RS26565&lt;/b&gt;&lt;br&gt;pyridoxal-phosphate dependent enzyme&lt;br&gt;Location: 5750510 - 5749134&lt;br&gt;&lt;br&gt;&lt;b&gt;BlastP hit with ctg22_37&lt;/b&gt;&lt;br&gt;Percentage identity: 99&lt;br&gt;Percentage coverage: 100&lt;br&gt;BLAST bit score: 885&lt;br&gt;E-value: 0.0" locus_tag="CPH89_RS26565" class="clusterblast-orf" id="dummy-1_h1_2_14"  />
</g>
<g id="a1_0015"  >
<polygon points="469,85 474,80 494,80 494,90 474,90 469,85 " style="fill:#d8159c; stroke-width:1; stroke:black; " description="&lt;b&gt;CPH89_RS26560&lt;/b&gt;&lt;br&gt;4-hydroxy-tetrahydrodipicolinate synthase&lt;br&gt;Location: 5748990 - 5748139&lt;br&gt;&lt;br&gt;&lt;b&gt;BlastP hit with ctg22_38&lt;/b&gt;&lt;br&gt;Percentage identity: 92&lt;br&gt;Percentage coverage: 99&lt;br&gt;BLAST bit score: 497&lt;br&gt;E-value: 3.44e-178" locus_tag="CPH89_RS26560" class="clusterblast-orf" id="dummy-1_h1_2_15"  />
</g>
<g id="a1_0016"  >
<polygon points="502,85 507,80 530,80 530,90 507,90 502,85 " style="fill:#d8c915; stroke-width:1; stroke:black; " description="&lt;b&gt;CPH89_RS26555&lt;/b&gt;&lt;br&gt;alpha/beta hydrolase&lt;br&gt;Location: 5747853 - 5746876&lt;br&gt;&lt;br&gt;&lt;b&gt;BlastP hit with ctg22_40&lt;/b&gt;&lt;br&gt;Percentage identity: 95&lt;br&gt;Percentage coverage: 100&lt;br&gt;BLAST bit score: 620&lt;br&gt;E-value: 2.13e-225" locus_tag="CPH89_RS26555" class="clusterblast-orf" id="dummy-1_h1_2_16"  />
</g>
<g id="a1_0017"  >
<polygon points="533,85 538,80 547,80 547,90 538,90 533,85 " style="fill:white; stroke-width:1; stroke:black; " description="&lt;b&gt;CPH89_RS26550&lt;/b&gt;&lt;br&gt;VOC family protein&lt;br&gt;Location: 5746771 - 5746289" locus_tag="CPH89_RS26550" class="clusterblast-orf" id="dummy-1_h1_2_17"  />
</g>
<g id="a1_0018"  >
<polygon points="548,85 553,80 559,80 559,90 553,90 548,85 " style="fill:#15d87e; stroke-width:1; stroke:black; " description="&lt;b&gt;CPH89_RS26545&lt;/b&gt;&lt;br&gt;ester cyclase&lt;br&gt;Location: 5746269 - 5745877&lt;br&gt;&lt;br&gt;&lt;b&gt;BlastP hit with ctg22_41&lt;/b&gt;&lt;br&gt;Percentage identity: 92&lt;br&gt;Percentage coverage: 100&lt;br&gt;BLAST bit score: 253&lt;br&gt;E-value: 1.39e-86" locus_tag="CPH89_RS26545" class="clusterblast-orf" id="dummy-1_h1_2_18"  />
</g>
<g id="a1_0019"  >
<polygon points="560,85 565,80 578,80 578,90 565,90 560,85 " style="fill:#3315d8; stroke-width:1; stroke:black; " description="&lt;b&gt;CPH89_RS26540&lt;/b&gt;&lt;br&gt;LysE family translocator&lt;br&gt;Location: 5745846 - 5745226&lt;br&gt;&lt;br&gt;&lt;b&gt;BlastP hit with ctg22_42&lt;/b&gt;&lt;br&gt;Percentage identity: 97&lt;br&gt;Percentage coverage: 100&lt;br&gt;BLAST bit score: 379&lt;br&gt;E-value: 2.93e-134" locus_tag="CPH89_RS26540" class="clusterblast-orf" id="dummy-1_h1_2_19"  />
</g>
<g id="a1_0020"  >
<polygon points="582,85 586,80 586,90 582,85 " style="fill:white; stroke-width:1; stroke:black; " description="&lt;b&gt;CPH89_RS30305&lt;/b&gt;&lt;br&gt;hypothetical protein&lt;br&gt;Location: 5745094 - 5744951" locus_tag="CPH89_RS30305" class="clusterblast-orf" id="dummy-1_h1_2_20"  />
</g>
<g id="a1_0021"  >
<polygon points="587,85 592,80 609,80 609,90 592,90 587,85 " style="fill:#bad815; stroke-width:1; stroke:black; " description="&lt;b&gt;CPH89_RS26535&lt;/b&gt;&lt;br&gt;PIG-L family deacetylase&lt;br&gt;Location: 5744919 - 5744158&lt;br&gt;&lt;br&gt;&lt;b&gt;BlastP hit with ctg22_44&lt;/b&gt;&lt;br&gt;Percentage identity: 96&lt;br&gt;Percentage coverage: 100&lt;br&gt;BLAST bit score: 497&lt;br&gt;E-value: 3.43e-179&lt;br&gt;&lt;br&gt;&lt;b&gt;BlastP hit with ctg22_47&lt;/b&gt;&lt;br&gt;Percentage identity: 62&lt;br&gt;Percentage coverage: 97&lt;br&gt;BLAST bit score: 322&lt;br&gt;E-value: 6.49e-110" locus_tag="CPH89_RS26535" class="clusterblast-orf" id="dummy-1_h1_2_21"  />
</g>
<g id="a1_0022"  >
<polygon points="614,85 619,80 633,80 633,90 619,90 614,85 " style="fill:#15d8ab; stroke-width:1; stroke:black; " description="&lt;b&gt;CPH89_RS26530&lt;/b&gt;&lt;br&gt;glycosyltransferase family 2 protein&lt;br&gt;Location: 5743969 - 5743310&lt;br&gt;&lt;br&gt;&lt;b&gt;BlastP hit with ctg22_45&lt;/b&gt;&lt;br&gt;Percentage identity: 96&lt;br&gt;Percentage coverage: 100&lt;br&gt;BLAST bit score: 425&lt;br&gt;E-value: 8.11e-152" locus_tag="CPH89_RS26530" class="clusterblast-orf" id="dummy-1_h1_2_22"  />
</g>
<g id="a1_0023"  >
<polygon points="633,85 638,80 650,80 650,90 638,90 633,85 " style="fill:#6015d8; stroke-width:1; stroke:black; " description="&lt;b&gt;CPH89_RS26525&lt;/b&gt;&lt;br&gt;methyltransferase domain-containing protein&lt;br&gt;Location: 5743313 - 5742714&lt;br&gt;&lt;br&gt;&lt;b&gt;BlastP hit with ctg22_46&lt;/b&gt;&lt;br&gt;Percentage identity: 96&lt;br&gt;Percentage coverage: 100&lt;br&gt;BLAST bit score: 403&lt;br&gt;E-value: 6.05e-144" locus_tag="CPH89_RS26525" class="clusterblast-orf" id="dummy-1_h1_2_23"  />
</g>
<g id="a1_0024"  >
<polygon points="650,85 655,80 672,80 672,90 655,90 650,85 " style="fill:#bad815; stroke-width:1; stroke:black; " description="&lt;b&gt;CPH89_RS26520&lt;/b&gt;&lt;br&gt;PIG-L family deacetylase&lt;br&gt;Location: 5742717 - 5741959&lt;br&gt;&lt;br&gt;&lt;b&gt;BlastP hit with ctg22_44&lt;/b&gt;&lt;br&gt;Percentage identity: 62&lt;br&gt;Percentage coverage: 100&lt;br&gt;BLAST bit score: 319&lt;br&gt;E-value: 7.56e-109&lt;br&gt;&lt;br&gt;&lt;b&gt;BlastP hit with ctg22_47&lt;/b&gt;&lt;br&gt;Percentage identity: 97&lt;br&gt;Percentage coverage: 100&lt;br&gt;BLAST bit score: 511&lt;br&gt;E-value: 5.1e-185" locus_tag="CPH89_RS26520" class="clusterblast-orf" id="dummy-1_h1_2_24"  />
</g>
<g id="a1_0025"  >
<polygon points="672,85 677,80 701,80 701,90 677,90 672,85 " style="fill:#d81542; stroke-width:1; stroke:black; " description="&lt;b&gt;CPH89_RS26515&lt;/b&gt;&lt;br&gt;acyl-CoA dehydrogenase&lt;br&gt;Location: 5741962 - 5740964&lt;br&gt;&lt;br&gt;&lt;b&gt;BlastP hit with ctg22_48&lt;/b&gt;&lt;br&gt;Percentage identity: 96&lt;br&gt;Percentage coverage: 100&lt;br&gt;BLAST bit score: 644&lt;br&gt;E-value: 9.15e-235" locus_tag="CPH89_RS26515" class="clusterblast-orf" id="dummy-1_h1_2_25"  />
</g>
<g id="a1_0026"  >
<polygon points="701,85 706,80 763,80 763,90 706,90 701,85 " style="fill:#8dd815; stroke-width:1; stroke:black; " description="&lt;b&gt;CPH89_RS26510&lt;/b&gt;&lt;br&gt;glycogen debranching protein GlgX&lt;br&gt;Location: 5740962 - 5738806&lt;br&gt;&lt;br&gt;&lt;b&gt;BlastP hit with ctg22_49&lt;/b&gt;&lt;br&gt;Percentage identity: 99&lt;br&gt;Percentage coverage: 100&lt;br&gt;BLAST bit score: 1513&lt;br&gt;E-value: 0.0" locus_tag="CPH89_RS26510" class="clusterblast-orf" id="dummy-1_h1_2_26"  />
</g>
<g id="a1_0027"  >
<polygon points="767,85 772,80 775,80 775,90 772,90 767,85 " style="fill:#15d8d8; stroke-width:1; stroke:black; " description="&lt;b&gt;CPH89_RS26505&lt;/b&gt;&lt;br&gt;DUF2934 domain-containing protein&lt;br&gt;Location: 5738674 - 5738405&lt;br&gt;&lt;br&gt;&lt;b&gt;BlastP hit with ctg22_50&lt;/b&gt;&lt;br&gt;Percentage identity: 89&lt;br&gt;Percentage coverage: 100&lt;br&gt;BLAST bit score: 69&lt;br&gt;E-value: 7.06e-15" locus_tag="CPH89_RS26505" class="clusterblast-orf" id="dummy-1_h1_2_27"  />
</g>
</svg>
