<svg xmlns="http://www.w3.org/2000/svg" xmlns:xlink="http://www.w3.org/1999/xlink" version="1.1" x="0" y="0" height="230" width="800" viewBox="0 0 800 230" preserveAspectRatio="none"  >
<g label="Query sequence" class="clusterblast-cluster"  >
<text x="5" y="20" class="clusterblast-acc"  >
Query sequence</text>
<line x1="10" y1="35" x2="778.0" y2="35" style="stroke-width:1; stroke:grey; "  />
<polygon points="0,35 5,30 43,30 43,40 5,40 0,35 " style="fill:#d81515; stroke-width:1; stroke:black; " description="&lt;b&gt;ctg2_443&lt;/b&gt;&lt;br&gt;ctg2 443&lt;br&gt;Location: 465221 - 465743" locus_tag="ctg2_443" class="clusterblast-orf" id="dummy-1_q0_0_all"  />
<polygon points="54,40 168,40 173,35 168,30 54,30 54,40 " style="fill:#15d815; stroke-width:1; stroke:black; " description="&lt;b&gt;ctg2_444&lt;/b&gt;&lt;br&gt;ctg2 444&lt;br&gt;Location: 465873 - 467313" locus_tag="ctg2_444" class="clusterblast-orf" id="dummy-1_q1_0_all"  />
<polygon points="184,35 189,30 281,30 281,40 189,40 184,35 " style="fill:#1597d8; stroke-width:1; stroke:black; " description="&lt;b&gt;ctg2_445&lt;/b&gt;&lt;br&gt;ctg2 445&lt;br&gt;Location: 467446 - 468631" locus_tag="ctg2_445" class="clusterblast-orf" id="dummy-1_q2_0_all"  />
<polygon points="289,35 294,30 354,30 354,40 294,40 289,35 " style="fill:#9715d8; stroke-width:1; stroke:black; " description="&lt;b&gt;ctg2_446&lt;/b&gt;&lt;br&gt;ctg2 446&lt;br&gt;Location: 468718 - 469507" locus_tag="ctg2_446" class="clusterblast-orf" id="dummy-1_q3_0_all"  />
<polygon points="353,35 358,30 423,30 423,40 358,40 353,35 " style="fill:#d89715; stroke-width:1; stroke:black; " description="&lt;b&gt;ctg2_447&lt;/b&gt;&lt;br&gt;ctg2 447&lt;br&gt;Location: 469497 - 470343" locus_tag="ctg2_447" class="clusterblast-orf" id="dummy-1_q4_0_all"  />
<polygon points="428,35 433,30 449,30 449,40 433,40 428,35 " style="fill:#15d897; stroke-width:1; stroke:black; " description="&lt;b&gt;ctg2_448&lt;/b&gt;&lt;br&gt;ctg2 448&lt;br&gt;Location: 470410 - 470662" locus_tag="ctg2_448" class="clusterblast-orf" id="dummy-1_q5_0_all"  />
<polygon points="458,35 463,30 614,30 614,40 463,40 458,35 " style="fill:#1515d8; stroke-width:1; stroke:black; " description="&lt;b&gt;ctg2_449&lt;/b&gt;&lt;br&gt;ctg2 449&lt;br&gt;Location: 470779 - 472666" locus_tag="ctg2_449" class="clusterblast-orf" id="dummy-1_q6_0_all"  />
<polygon points="614,35 619,30 699,30 699,40 619,40 614,35 " style="fill:#d81597; stroke-width:1; stroke:black; " description="&lt;b&gt;ctg2_450&lt;/b&gt;&lt;br&gt;ctg2 450&lt;br&gt;Location: 472662 - 473697" locus_tag="ctg2_450" class="clusterblast-orf" id="dummy-1_q7_0_all"  />
<polygon points="699,35 704,30 780,30 780,40 704,40 699,35 " style="fill:#97d815; stroke-width:1; stroke:black; " description="&lt;b&gt;ctg2_451&lt;/b&gt;&lt;br&gt;ctg2 451&lt;br&gt;Location: 473693 - 474683" locus_tag="ctg2_451" class="clusterblast-orf" id="dummy-1_q8_0_all"  />
</g>
<g label="NZ_JACAQV010000030" description="NZ_JACAQV010000030 (77522-88368): Pseudomonas salomonii strain IPO3765 IPO 37... (100% of genes show similarity), bacteriocin" class="clusterblast-cluster"  >
<text x="5" y="70" class="clusterblast-acc"  >
<a xlink:href="https://antismash-db.secondarymetabolites.org/area.html?record=NZ_JACAQV010000030&amp;start=77522&amp;end=88368" target="_blank">NZ_JACAQV010000030 (77522-88368)</a>: Pseudomonas salomonii strain IPO3765 IPO 37... (100% of genes show similarity), bacteriocin</text>
<line x1="10" y1="85" x2="778.0" y2="85" style="stroke-width:1; stroke:grey; "  />
</g>
<g id="a1_000"  >
<polygon points="2,85 7,80 45,80 45,90 7,90 2,85 " style="fill:#d81515; stroke-width:1; stroke:black; " description="&lt;b&gt;HX810_RS27215&lt;/b&gt;&lt;br&gt;DUF3617 domain-containing protein&lt;br&gt;Location: 78304 - 78825&lt;br&gt;&lt;br&gt;&lt;b&gt;BlastP hit with ctg2_443&lt;/b&gt;&lt;br&gt;Percentage identity: 98&lt;br&gt;Percentage coverage: 100&lt;br&gt;BLAST bit score: 339&lt;br&gt;E-value: 1.72e-119" locus_tag="HX810_RS27215" class="clusterblast-orf" id="dummy-1_h1_4_0"  />
</g>
<g id="a1_001"  >
<polygon points="55,90 169,90 174,85 169,80 55,80 55,90 " style="fill:#15d815; stroke-width:1; stroke:black; " description="&lt;b&gt;HX810_RS27220&lt;/b&gt;&lt;br&gt;cardiolipin synthase&lt;br&gt;Location: 78956 - 80395&lt;br&gt;&lt;br&gt;&lt;b&gt;BlastP hit with ctg2_444&lt;/b&gt;&lt;br&gt;Percentage identity: 98&lt;br&gt;Percentage coverage: 100&lt;br&gt;BLAST bit score: 931&lt;br&gt;E-value: 0.0" locus_tag="HX810_RS27220" class="clusterblast-orf" id="dummy-1_h1_4_1"  />
</g>
<g id="a1_002"  >
<polygon points="180,85 185,80 278,80 278,90 185,90 180,85 " style="fill:#1597d8; stroke-width:1; stroke:black; " description="&lt;b&gt;HX810_RS27225&lt;/b&gt;&lt;br&gt;class I SAM-dependent methyltransferase&lt;br&gt;Location: 80471 - 81655&lt;br&gt;&lt;br&gt;&lt;b&gt;BlastP hit with ctg2_445&lt;/b&gt;&lt;br&gt;Percentage identity: 97&lt;br&gt;Percentage coverage: 100&lt;br&gt;BLAST bit score: 778&lt;br&gt;E-value: 7.32e-286" locus_tag="HX810_RS27225" class="clusterblast-orf" id="dummy-1_h1_4_2"  />
</g>
<g id="a1_003"  >
<polygon points="285,85 290,80 350,80 350,90 290,90 285,85 " style="fill:#9715d8; stroke-width:1; stroke:black; " description="&lt;b&gt;HX810_RS27230&lt;/b&gt;&lt;br&gt;putative DNA-binding domain-containing protein&lt;br&gt;Location: 81744 - 82532&lt;br&gt;&lt;br&gt;&lt;b&gt;BlastP hit with ctg2_446&lt;/b&gt;&lt;br&gt;Percentage identity: 90&lt;br&gt;Percentage coverage: 100&lt;br&gt;BLAST bit score: 496&lt;br&gt;E-value: 9.75e-179" locus_tag="HX810_RS27230" class="clusterblast-orf" id="dummy-1_h1_4_3"  />
</g>
<g id="a1_004"  >
<polygon points="349,85 354,80 419,80 419,90 354,90 349,85 " style="fill:#d89715; stroke-width:1; stroke:black; " description="&lt;b&gt;HX810_RS27235&lt;/b&gt;&lt;br&gt;DUF692 domain-containing protein&lt;br&gt;Location: 82523 - 83368&lt;br&gt;&lt;br&gt;&lt;b&gt;BlastP hit with ctg2_447&lt;/b&gt;&lt;br&gt;Percentage identity: 92&lt;br&gt;Percentage coverage: 100&lt;br&gt;BLAST bit score: 532&lt;br&gt;E-value: 2.81e-192" locus_tag="HX810_RS27235" class="clusterblast-orf" id="dummy-1_h1_4_4"  />
</g>
<g id="a1_005"  >
<polygon points="425,85 430,80 446,80 446,90 430,90 425,85 " style="fill:#15d897; stroke-width:1; stroke:black; " description="&lt;b&gt;HX810_RS27240&lt;/b&gt;&lt;br&gt;membrane protein&lt;br&gt;Location: 83436 - 83690&lt;br&gt;&lt;br&gt;&lt;b&gt;BlastP hit with ctg2_448&lt;/b&gt;&lt;br&gt;Percentage identity: 86&lt;br&gt;Percentage coverage: 101&lt;br&gt;BLAST bit score: 113&lt;br&gt;E-value: 7.71e-33" locus_tag="HX810_RS27240" class="clusterblast-orf" id="dummy-1_h1_4_5"  />
</g>
<g id="a1_006"  >
<polygon points="455,85 460,80 611,80 611,90 460,90 455,85 " style="fill:#1515d8; stroke-width:1; stroke:black; " description="&lt;b&gt;HX810_RS27245&lt;/b&gt;&lt;br&gt;cadmium-translocating P-type ATPase&lt;br&gt;Location: 83808 - 85694&lt;br&gt;&lt;br&gt;&lt;b&gt;BlastP hit with ctg2_449&lt;/b&gt;&lt;br&gt;Percentage identity: 98&lt;br&gt;Percentage coverage: 100&lt;br&gt;BLAST bit score: 1107&lt;br&gt;E-value: 0.0" locus_tag="HX810_RS27245" class="clusterblast-orf" id="dummy-1_h1_4_6"  />
</g>
<g id="a1_007"  >
<polygon points="611,85 616,80 696,80 696,90 616,90 611,85 " style="fill:#d81597; stroke-width:1; stroke:black; " description="&lt;b&gt;HX810_RS27250&lt;/b&gt;&lt;br&gt;protease modulator HflK&lt;br&gt;Location: 85691 - 86725&lt;br&gt;&lt;br&gt;&lt;b&gt;BlastP hit with ctg2_450&lt;/b&gt;&lt;br&gt;Percentage identity: 98&lt;br&gt;Percentage coverage: 100&lt;br&gt;BLAST bit score: 555&lt;br&gt;E-value: 2.55e-199" locus_tag="HX810_RS27250" class="clusterblast-orf" id="dummy-1_h1_4_7"  />
</g>
<g id="a1_008"  >
<polygon points="696,85 701,80 777,80 777,90 701,90 696,85 " style="fill:#97d815; stroke-width:1; stroke:black; " description="&lt;b&gt;HX810_RS27255&lt;/b&gt;&lt;br&gt;protease modulator HflC&lt;br&gt;Location: 86722 - 87714&lt;br&gt;&lt;br&gt;&lt;b&gt;BlastP hit with ctg2_451&lt;/b&gt;&lt;br&gt;Percentage identity: 99&lt;br&gt;Percentage coverage: 94&lt;br&gt;BLAST bit score: 525&lt;br&gt;E-value: 9.04e-188" locus_tag="HX810_RS27255" class="clusterblast-orf" id="dummy-1_h1_4_8"  />
</g>
</svg>
