<svg xmlns="http://www.w3.org/2000/svg" xmlns:xlink="http://www.w3.org/1999/xlink" version="1.1" x="0" y="0" height="230" width="800" viewBox="0 0 800 230" preserveAspectRatio="none"  >
<g label="Query sequence" class="clusterblast-cluster"  >
<text x="5" y="20" class="clusterblast-acc"  >
Query sequence</text>
<line x1="10" y1="35" x2="778.0" y2="35" style="stroke-width:1; stroke:grey; "  />
<polygon points="163,40 165,35 163,30 163,40 " style="fill:white; stroke-width:1; stroke:black; " description="&lt;b&gt;ctg12_126&lt;/b&gt;&lt;br&gt;ctg12 126&lt;br&gt;Location: 129861 - 130188" locus_tag="ctg12_126" class="clusterblast-orf" id="dummy-1_q0_0_all"  />
<polygon points="166,40 167,35 166,30 166,40 " style="fill:white; stroke-width:1; stroke:black; " description="&lt;b&gt;ctg12_127&lt;/b&gt;&lt;br&gt;ctg12 127&lt;br&gt;Location: 130299 - 130455" locus_tag="ctg12_127" class="clusterblast-orf" id="dummy-1_q1_0_all"  />
<polygon points="168,35 173,30 173,30 173,40 173,40 168,35 " style="fill:white; stroke-width:1; stroke:black; " description="&lt;b&gt;ctg12_128&lt;/b&gt;&lt;br&gt;ctg12 128&lt;br&gt;Location: 130505 - 131291" locus_tag="ctg12_128" class="clusterblast-orf" id="dummy-1_q2_0_all"  />
<polygon points="174,35 177,30 177,40 174,35 " style="fill:white; stroke-width:1; stroke:black; " description="&lt;b&gt;ctg12_129&lt;/b&gt;&lt;br&gt;ctg12 129&lt;br&gt;Location: 131346 - 131772" locus_tag="ctg12_129" class="clusterblast-orf" id="dummy-1_q3_0_all"  />
<polygon points="179,35 181,30 181,40 179,35 " style="fill:white; stroke-width:1; stroke:black; " description="&lt;b&gt;ctg12_130&lt;/b&gt;&lt;br&gt;ctg12 130&lt;br&gt;Location: 132055 - 132400" locus_tag="ctg12_130" class="clusterblast-orf" id="dummy-1_q4_0_all"  />
<polygon points="183,40 197,40 202,35 197,30 183,30 183,40 " style="fill:white; stroke-width:1; stroke:black; " description="&lt;b&gt;ctg12_131&lt;/b&gt;&lt;br&gt;ctg12 131&lt;br&gt;Location: 132585 - 135231" locus_tag="ctg12_131" class="clusterblast-orf" id="dummy-1_q5_0_all"  />
<polygon points="204,40 204,40 209,35 204,30 204,30 204,40 " style="fill:white; stroke-width:1; stroke:black; " description="&lt;b&gt;ctg12_132&lt;/b&gt;&lt;br&gt;ctg12 132&lt;br&gt;Location: 135526 - 136174" locus_tag="ctg12_132" class="clusterblast-orf" id="dummy-1_q6_0_all"  />
<polygon points="210,40 210,40 215,35 210,30 210,30 210,40 " style="fill:white; stroke-width:1; stroke:black; " description="&lt;b&gt;ctg12_133&lt;/b&gt;&lt;br&gt;ctg12 133&lt;br&gt;Location: 136264 - 136951" locus_tag="ctg12_133" class="clusterblast-orf" id="dummy-1_q7_0_all"  />
<polygon points="216,40 218,35 216,30 216,40 " style="fill:white; stroke-width:1; stroke:black; " description="&lt;b&gt;ctg12_134&lt;/b&gt;&lt;br&gt;ctg12 134&lt;br&gt;Location: 137111 - 137414" locus_tag="ctg12_134" class="clusterblast-orf" id="dummy-1_q8_0_all"  />
<polygon points="218,40 219,40 224,35 219,30 218,30 218,40 " style="fill:white; stroke-width:1; stroke:black; " description="&lt;b&gt;ctg12_135&lt;/b&gt;&lt;br&gt;ctg12 135&lt;br&gt;Location: 137413 - 138274" locus_tag="ctg12_135" class="clusterblast-orf" id="dummy-1_q9_0_all"  />
<polygon points="225,40 226,40 231,35 226,30 225,30 225,40 " style="fill:white; stroke-width:1; stroke:black; " description="&lt;b&gt;ctg12_136&lt;/b&gt;&lt;br&gt;ctg12 136&lt;br&gt;Location: 138301 - 139129" locus_tag="ctg12_136" class="clusterblast-orf" id="dummy-1_q10_0_all"  />
<polygon points="231,40 231,40 236,35 231,30 231,30 231,40 " style="fill:white; stroke-width:1; stroke:black; " description="&lt;b&gt;ctg12_137&lt;/b&gt;&lt;br&gt;ctg12 137&lt;br&gt;Location: 139132 - 139831" locus_tag="ctg12_137" class="clusterblast-orf" id="dummy-1_q11_0_all"  />
<polygon points="236,35 240,30 240,40 236,35 " style="fill:white; stroke-width:1; stroke:black; " description="&lt;b&gt;ctg12_138&lt;/b&gt;&lt;br&gt;ctg12 138&lt;br&gt;Location: 139834 - 140455" locus_tag="ctg12_138" class="clusterblast-orf" id="dummy-1_q12_0_all"  />
<polygon points="241,40 242,40 247,35 242,30 241,30 241,40 " style="fill:white; stroke-width:1; stroke:black; " description="&lt;b&gt;ctg12_139&lt;/b&gt;&lt;br&gt;ctg12 139&lt;br&gt;Location: 140551 - 141334" locus_tag="ctg12_139" class="clusterblast-orf" id="dummy-1_q13_0_all"  />
<polygon points="255,40 258,40 263,35 258,30 255,30 255,40 " style="fill:#d81515; stroke-width:1; stroke:black; " description="&lt;b&gt;ctg12_140&lt;/b&gt;&lt;br&gt;ctg12 140&lt;br&gt;Location: 142450 - 143512" locus_tag="ctg12_140" class="clusterblast-orf" id="dummy-1_q14_0_all"  />
<polygon points="263,40 285,40 290,35 285,30 263,30 263,40 " style="fill:#77d815; stroke-width:1; stroke:black; " description="&lt;b&gt;ctg12_141&lt;/b&gt;&lt;br&gt;ctg12 141&lt;br&gt;Location: 143515 - 147277" locus_tag="ctg12_141" class="clusterblast-orf" id="dummy-1_q15_0_all"  />
<polygon points="290,40 292,40 297,35 292,30 290,30 290,40 " style="fill:#77d815; stroke-width:1; stroke:black; " description="&lt;b&gt;ctg12_142&lt;/b&gt;&lt;br&gt;ctg12 142&lt;br&gt;Location: 147276 - 148275" locus_tag="ctg12_142" class="clusterblast-orf" id="dummy-1_q16_0_all"  />
<polygon points="298,40 302,35 298,30 298,40 " style="fill:#15d8d8; stroke-width:1; stroke:black; " description="&lt;b&gt;ctg12_143&lt;/b&gt;&lt;br&gt;ctg12 143&lt;br&gt;Location: 148367 - 148940" locus_tag="ctg12_143" class="clusterblast-orf" id="dummy-1_q17_0_all"  />
<polygon points="304,40 393,40 398,35 393,30 304,30 304,40 " style="fill:#7715d8; stroke-width:1; stroke:black; " description="&lt;b&gt;ctg12_144&lt;/b&gt;&lt;br&gt;ctg12 144&lt;br&gt;Location: 149149 - 162061" locus_tag="ctg12_144" class="clusterblast-orf" id="dummy-1_q18_0_all"  />
<polygon points="398,40 476,40 481,35 476,30 398,30 398,40 " style="fill:#7715d8; stroke-width:1; stroke:black; " description="&lt;b&gt;ctg12_145&lt;/b&gt;&lt;br&gt;ctg12 145&lt;br&gt;Location: 162057 - 173394" locus_tag="ctg12_145" class="clusterblast-orf" id="dummy-1_q19_0_all"  />
<polygon points="481,40 485,40 490,35 485,30 481,30 481,40 " style="fill:#d85015; stroke-width:1; stroke:black; " description="&lt;b&gt;ctg12_146&lt;/b&gt;&lt;br&gt;ctg12 146&lt;br&gt;Location: 173390 - 174533" locus_tag="ctg12_146" class="clusterblast-orf" id="dummy-1_q20_0_all"  />
<polygon points="490,40 499,40 504,35 499,30 490,30 490,40 " style="fill:#3cd815; stroke-width:1; stroke:black; " description="&lt;b&gt;ctg12_147&lt;/b&gt;&lt;br&gt;ctg12 147&lt;br&gt;Location: 174536 - 176495" locus_tag="ctg12_147" class="clusterblast-orf" id="dummy-1_q21_0_all"  />
<polygon points="505,35 510,30 510,30 510,40 510,40 505,35 " style="fill:#159ed8; stroke-width:1; stroke:black; " description="&lt;b&gt;ctg12_148&lt;/b&gt;&lt;br&gt;ctg12 148&lt;br&gt;Location: 176622 - 177300" locus_tag="ctg12_148" class="clusterblast-orf" id="dummy-1_q22_0_all"  />
<polygon points="512,35 517,30 521,30 521,40 517,40 512,35 " style="fill:#b115d8; stroke-width:1; stroke:black; " description="&lt;b&gt;ctg12_149&lt;/b&gt;&lt;br&gt;ctg12 149&lt;br&gt;Location: 177532 - 178777" locus_tag="ctg12_149" class="clusterblast-orf" id="dummy-1_q23_0_all"  />
<polygon points="522,40 525,35 522,30 522,40 " style="fill:#d88a15; stroke-width:1; stroke:black; " description="&lt;b&gt;ctg12_150&lt;/b&gt;&lt;br&gt;ctg12 150&lt;br&gt;Location: 178900 - 179371" locus_tag="ctg12_150" class="clusterblast-orf" id="dummy-1_q24_0_all"  />
<polygon points="526,35 531,30 531,30 531,40 531,40 526,35 " style="fill:#15d829; stroke-width:1; stroke:black; " description="&lt;b&gt;ctg12_151&lt;/b&gt;&lt;br&gt;ctg12 151&lt;br&gt;Location: 179449 - 180220" locus_tag="ctg12_151" class="clusterblast-orf" id="dummy-1_q25_0_all"  />
<polygon points="532,40 535,40 540,35 535,30 532,30 532,40 " style="fill:#1563d8; stroke-width:1; stroke:black; " description="&lt;b&gt;ctg12_152&lt;/b&gt;&lt;br&gt;ctg12 152&lt;br&gt;Location: 180318 - 181449" locus_tag="ctg12_152" class="clusterblast-orf" id="dummy-1_q26_0_all"  />
<polygon points="540,35 545,30 556,30 556,40 545,40 540,35 " style="fill:#d815c5; stroke-width:1; stroke:black; " description="&lt;b&gt;ctg12_153&lt;/b&gt;&lt;br&gt;ctg12 153&lt;br&gt;Location: 181438 - 183580" locus_tag="ctg12_153" class="clusterblast-orf" id="dummy-1_q27_0_all"  />
<polygon points="557,35 562,30 563,30 563,40 562,40 557,35 " style="fill:#d8c515; stroke-width:1; stroke:black; " description="&lt;b&gt;ctg12_154&lt;/b&gt;&lt;br&gt;ctg12 154&lt;br&gt;Location: 183685 - 184582" locus_tag="ctg12_154" class="clusterblast-orf" id="dummy-1_q28_0_all"  />
<polygon points="564,40 569,40 574,35 569,30 564,30 564,40 " style="fill:#15d863; stroke-width:1; stroke:black; " description="&lt;b&gt;ctg12_155&lt;/b&gt;&lt;br&gt;ctg12 155&lt;br&gt;Location: 184720 - 186079" locus_tag="ctg12_155" class="clusterblast-orf" id="dummy-1_q29_0_all"  />
<polygon points="574,40 577,40 582,35 577,30 574,30 574,40 " style="fill:#1529d8; stroke-width:1; stroke:black; " description="&lt;b&gt;ctg12_156&lt;/b&gt;&lt;br&gt;ctg12 156&lt;br&gt;Location: 186101 - 187190" locus_tag="ctg12_156" class="clusterblast-orf" id="dummy-1_q30_0_all"  />
<polygon points="582,40 587,40 592,35 587,30 582,30 582,40 " style="fill:#d8158a; stroke-width:1; stroke:black; " description="&lt;b&gt;ctg12_157&lt;/b&gt;&lt;br&gt;ctg12 157&lt;br&gt;Location: 187186 - 188482" locus_tag="ctg12_157" class="clusterblast-orf" id="dummy-1_q31_0_all"  />
<polygon points="592,35 597,30 599,30 599,40 597,40 592,35 " style="fill:#b1d815; stroke-width:1; stroke:black; " description="&lt;b&gt;ctg12_158&lt;/b&gt;&lt;br&gt;ctg12 158&lt;br&gt;Location: 188600 - 189494" locus_tag="ctg12_158" class="clusterblast-orf" id="dummy-1_q32_0_all"  />
<polygon points="600,40 602,40 607,35 602,30 600,30 600,40 " style="fill:#15d89e; stroke-width:1; stroke:black; " description="&lt;b&gt;ctg12_159&lt;/b&gt;&lt;br&gt;ctg12 159&lt;br&gt;Location: 189607 - 190612" locus_tag="ctg12_159" class="clusterblast-orf" id="dummy-1_q33_0_all"  />
<polygon points="607,40 611,35 607,30 607,40 " style="fill:#3c15d8; stroke-width:1; stroke:black; " description="&lt;b&gt;ctg12_160&lt;/b&gt;&lt;br&gt;ctg12 160&lt;br&gt;Location: 190627 - 191089" locus_tag="ctg12_160" class="clusterblast-orf" id="dummy-1_q34_0_all"  />
<polygon points="611,40 613,35 611,30 611,40 " style="fill:#3c15d8; stroke-width:1; stroke:black; " description="&lt;b&gt;ctg12_161&lt;/b&gt;&lt;br&gt;ctg12 161&lt;br&gt;Location: 191116 - 191425" locus_tag="ctg12_161" class="clusterblast-orf" id="dummy-1_q35_0_all"  />
<polygon points="613,40 616,35 613,30 613,40 " style="fill:#d81550; stroke-width:1; stroke:black; " description="&lt;b&gt;ctg12_162&lt;/b&gt;&lt;br&gt;ctg12 162&lt;br&gt;Location: 191452 - 191863" locus_tag="ctg12_162" class="clusterblast-orf" id="dummy-1_q36_0_all"  />
</g>
<g label="NZ_CP023272" description="NZ_CP023272 (2351708-2458342): Pseudomonas lurida strain MYb11 chromosome, co... (45% of genes show similarity), NRPS" class="clusterblast-cluster"  >
<text x="5" y="70" class="clusterblast-acc"  >
<a xlink:href="https://antismash-db.secondarymetabolites.org/area.html?record=NZ_CP023272&amp;start=2351708&amp;end=2458342" target="_blank">NZ_CP023272 (2351708-2458342)</a>: Pseudomonas lurida strain MYb11 chromosome, co... (45% of genes show similarity), NRPS</text>
<line x1="10" y1="85" x2="778.0" y2="85" style="stroke-width:1; stroke:grey; "  />
</g>
<g id="a1_000"  >
<polygon points="0,85 4,80 4,90 0,85 " style="fill:white; stroke-width:1; stroke:black; " description="&lt;b&gt;CLM75_RS10875&lt;/b&gt;&lt;br&gt;response regulator&lt;br&gt;Location: 2351709 - 2352374" locus_tag="CLM75_RS10875" class="clusterblast-orf" id="dummy-1_h1_7_0"  />
</g>
<g id="a1_001"  >
<polygon points="4,85 9,80 29,80 29,90 9,90 4,85 " style="fill:white; stroke-width:1; stroke:black; " description="&lt;b&gt;CLM75_RS10880&lt;/b&gt;&lt;br&gt;response regulator&lt;br&gt;Location: 2352349 - 2355732" locus_tag="CLM75_RS10880" class="clusterblast-orf" id="dummy-1_h1_7_1"  />
</g>
<g id="a1_002"  >
<polygon points="31,90 35,90 40,85 35,80 31,80 31,90 " style="fill:white; stroke-width:1; stroke:black; " description="&lt;b&gt;CLM75_RS10885&lt;/b&gt;&lt;br&gt;urea ABC transporter substrate-binding protein&lt;br&gt;Location: 2356047 - 2357255" locus_tag="CLM75_RS10885" class="clusterblast-orf" id="dummy-1_h1_7_2"  />
</g>
<g id="a1_003"  >
<polygon points="42,90 43,90 48,85 43,80 42,80 42,90 " style="fill:white; stroke-width:1; stroke:black; " description="&lt;b&gt;CLM75_RS10890&lt;/b&gt;&lt;br&gt;urea ABC transporter permease subunit UrtB&lt;br&gt;Location: 2357464 - 2358345" locus_tag="CLM75_RS10890" class="clusterblast-orf" id="dummy-1_h1_7_3"  />
</g>
<g id="a1_004"  >
<polygon points="48,90 52,90 57,85 52,80 48,80 48,90 " style="fill:white; stroke-width:1; stroke:black; " description="&lt;b&gt;CLM75_RS10895&lt;/b&gt;&lt;br&gt;urea ABC transporter permease subunit UrtC&lt;br&gt;Location: 2358356 - 2359519" locus_tag="CLM75_RS10895" class="clusterblast-orf" id="dummy-1_h1_7_4"  />
</g>
<g id="a1_005"  >
<polygon points="57,90 57,90 62,85 57,80 57,80 57,90 " style="fill:white; stroke-width:1; stroke:black; " description="&lt;b&gt;CLM75_RS10900&lt;/b&gt;&lt;br&gt;urea ABC transporter ATP-binding protein UrtD&lt;br&gt;Location: 2359516 - 2360274" locus_tag="CLM75_RS10900" class="clusterblast-orf" id="dummy-1_h1_7_5"  />
</g>
<g id="a1_006"  >
<polygon points="62,90 62,90 67,85 62,80 62,80 62,90 " style="fill:white; stroke-width:1; stroke:black; " description="&lt;b&gt;CLM75_RS10905&lt;/b&gt;&lt;br&gt;urea ABC transporter ATP-binding subunit UrtE&lt;br&gt;Location: 2360285 - 2360974" locus_tag="CLM75_RS10905" class="clusterblast-orf" id="dummy-1_h1_7_6"  />
</g>
<g id="a1_007"  >
<polygon points="69,90 72,90 77,85 72,80 69,80 69,90 " style="fill:white; stroke-width:1; stroke:black; " description="&lt;b&gt;CLM75_RS10910&lt;/b&gt;&lt;br&gt;hypothetical protein&lt;br&gt;Location: 2361151 - 2362257" locus_tag="CLM75_RS10910" class="clusterblast-orf" id="dummy-1_h1_7_7"  />
</g>
<g id="a1_008"  >
<polygon points="78,85 83,80 90,80 90,90 83,90 78,85 " style="fill:white; stroke-width:1; stroke:black; " description="&lt;b&gt;CLM75_RS10915&lt;/b&gt;&lt;br&gt;methyl-accepting chemotaxis protein&lt;br&gt;Location: 2362394 - 2364034" locus_tag="CLM75_RS10915" class="clusterblast-orf" id="dummy-1_h1_7_8"  />
</g>
<g id="a1_009"  >
<polygon points="91,90 95,90 100,85 95,80 91,80 91,90 " style="fill:white; stroke-width:1; stroke:black; " description="&lt;b&gt;CLM75_RS10920&lt;/b&gt;&lt;br&gt;acetamidase/formamidase family protein&lt;br&gt;Location: 2364267 - 2365496" locus_tag="CLM75_RS10920" class="clusterblast-orf" id="dummy-1_h1_7_9"  />
</g>
<g id="a1_0010"  >
<polygon points="100,90 103,85 100,80 100,90 " style="fill:white; stroke-width:1; stroke:black; " description="&lt;b&gt;CLM75_RS10925&lt;/b&gt;&lt;br&gt;zinc ribbon domain-containing protein&lt;br&gt;Location: 2365499 - 2365846" locus_tag="CLM75_RS10925" class="clusterblast-orf" id="dummy-1_h1_7_10"  />
</g>
<g id="a1_0011"  >
<polygon points="103,90 106,90 111,85 106,80 103,80 103,90 " style="fill:white; stroke-width:1; stroke:black; " description="&lt;b&gt;CLM75_RS10930&lt;/b&gt;&lt;br&gt;aliphatic amidase&lt;br&gt;Location: 2365862 - 2366905" locus_tag="CLM75_RS10930" class="clusterblast-orf" id="dummy-1_h1_7_11"  />
</g>
<g id="a1_0012"  >
<polygon points="111,90 113,90 118,85 113,80 111,80 111,90 " style="fill:white; stroke-width:1; stroke:black; " description="&lt;b&gt;CLM75_RS10935&lt;/b&gt;&lt;br&gt;ATP-dependent Clp protease ATP-binding subunit&lt;br&gt;Location: 2366909 - 2367892" locus_tag="CLM75_RS10935" class="clusterblast-orf" id="dummy-1_h1_7_12"  />
</g>
<g id="a1_0013"  >
<polygon points="118,90 123,90 128,85 123,80 118,80 118,90 " style="fill:white; stroke-width:1; stroke:black; " description="&lt;b&gt;CLM75_RS10940&lt;/b&gt;&lt;br&gt;MATE family efflux transporter&lt;br&gt;Location: 2367930 - 2369285" locus_tag="CLM75_RS10940" class="clusterblast-orf" id="dummy-1_h1_7_13"  />
</g>
<g id="a1_0014"  >
<polygon points="128,85 132,80 132,90 128,85 " style="fill:white; stroke-width:1; stroke:black; " description="&lt;b&gt;CLM75_RS10945&lt;/b&gt;&lt;br&gt;TetR/AcrR family transcriptional regulator&lt;br&gt;Location: 2369269 - 2369856" locus_tag="CLM75_RS10945" class="clusterblast-orf" id="dummy-1_h1_7_14"  />
</g>
<g id="a1_0015"  >
<polygon points="133,90 137,90 142,85 137,80 133,80 133,90 " style="fill:white; stroke-width:1; stroke:black; " description="&lt;b&gt;CLM75_RS10950&lt;/b&gt;&lt;br&gt;MFS transporter&lt;br&gt;Location: 2369997 - 2371169" locus_tag="CLM75_RS10950" class="clusterblast-orf" id="dummy-1_h1_7_15"  />
</g>
<g id="a1_0016"  >
<polygon points="142,85 143,80 143,90 142,85 " style="fill:white; stroke-width:1; stroke:black; " description="&lt;b&gt;CLM75_RS10955&lt;/b&gt;&lt;br&gt;type II toxin-antitoxin system HicA family toxin&lt;br&gt;Location: 2371226 - 2371294" locus_tag="CLM75_RS10955" class="clusterblast-orf" id="dummy-1_h1_7_16"  />
</g>
<g id="a1_0017"  >
<polygon points="144,90 219,90 224,85 219,80 144,80 144,90 " style="fill:#7715d8; stroke-width:1; stroke:black; " description="&lt;b&gt;CLM75_RS10960&lt;/b&gt;&lt;br&gt;non-ribosomal peptide synthetase&lt;br&gt;Location: 2371504 - 2382438&lt;br&gt;&lt;br&gt;&lt;b&gt;BlastP hit with ctg12_144&lt;/b&gt;&lt;br&gt;Percentage identity: 31&lt;br&gt;Percentage coverage: 87&lt;br&gt;BLAST bit score: 1233&lt;br&gt;E-value: 0.0&lt;br&gt;&lt;br&gt;&lt;b&gt;BlastP hit with ctg12_145&lt;/b&gt;&lt;br&gt;Percentage identity: 39&lt;br&gt;Percentage coverage: 57&lt;br&gt;BLAST bit score: 1231&lt;br&gt;E-value: 0.0" locus_tag="CLM75_RS10960" class="clusterblast-orf" id="dummy-1_h1_7_17"  />
</g>
<g id="a1_0018"  >
<polygon points="224,90 276,90 281,85 276,80 224,80 224,90 " style="fill:#7715d8; stroke-width:1; stroke:black; " description="&lt;b&gt;CLM75_RS10965&lt;/b&gt;&lt;br&gt;non-ribosomal peptide synthetase&lt;br&gt;Location: 2382442 - 2390223&lt;br&gt;&lt;br&gt;&lt;b&gt;BlastP hit with ctg12_144&lt;/b&gt;&lt;br&gt;Percentage identity: 34&lt;br&gt;Percentage coverage: 58&lt;br&gt;BLAST bit score: 1103&lt;br&gt;E-value: 0.0&lt;br&gt;&lt;br&gt;&lt;b&gt;BlastP hit with ctg12_145&lt;/b&gt;&lt;br&gt;Percentage identity: 36&lt;br&gt;Percentage coverage: 68&lt;br&gt;BLAST bit score: 1305&lt;br&gt;E-value: 0.0" locus_tag="CLM75_RS10965" class="clusterblast-orf" id="dummy-1_h1_7_18"  />
</g>
<g id="a1_0019"  >
<polygon points="282,90 376,90 381,85 376,80 282,80 282,90 " style="fill:#7715d8; stroke-width:1; stroke:black; " description="&lt;b&gt;CLM75_RS10970&lt;/b&gt;&lt;br&gt;non-ribosomal peptide synthetase&lt;br&gt;Location: 2390297 - 2403796&lt;br&gt;&lt;br&gt;&lt;b&gt;BlastP hit with ctg12_144&lt;/b&gt;&lt;br&gt;Percentage identity: 35&lt;br&gt;Percentage coverage: 101&lt;br&gt;BLAST bit score: 1921&lt;br&gt;E-value: 0.0&lt;br&gt;&lt;br&gt;&lt;b&gt;BlastP hit with ctg12_145&lt;/b&gt;&lt;br&gt;Percentage identity: 36&lt;br&gt;Percentage coverage: 90&lt;br&gt;BLAST bit score: 1677&lt;br&gt;E-value: 0.0" locus_tag="CLM75_RS10970" class="clusterblast-orf" id="dummy-1_h1_7_19"  />
</g>
<g id="a1_0020"  >
<polygon points="382,85 387,80 399,80 399,90 387,90 382,85 " style="fill:white; stroke-width:1; stroke:black; " description="&lt;b&gt;CLM75_RS10975&lt;/b&gt;&lt;br&gt;TonB-dependent siderophore receptor&lt;br&gt;Location: 2404015 - 2406387" locus_tag="CLM75_RS10975" class="clusterblast-orf" id="dummy-1_h1_7_20"  />
</g>
<g id="a1_0021"  >
<polygon points="401,85 406,80 413,80 413,90 406,90 401,85 " style="fill:white; stroke-width:1; stroke:black; " description="&lt;b&gt;CLM75_RS10980&lt;/b&gt;&lt;br&gt;cyclic peptide export ABC transporter&lt;br&gt;Location: 2406544 - 2408196" locus_tag="CLM75_RS10980" class="clusterblast-orf" id="dummy-1_h1_7_21"  />
</g>
<g id="a1_0022"  >
<polygon points="414,90 415,90 420,85 415,80 414,80 414,90 " style="fill:white; stroke-width:1; stroke:black; " description="&lt;b&gt;CLM75_RS10985&lt;/b&gt;&lt;br&gt;N(5)-hydroxyornithine transformylase PvdF&lt;br&gt;Location: 2408397 - 2409227" locus_tag="CLM75_RS10985" class="clusterblast-orf" id="dummy-1_h1_7_22"  />
</g>
<g id="a1_0023"  >
<polygon points="421,85 426,80 427,80 427,90 426,90 421,85 " style="fill:white; stroke-width:1; stroke:black; " description="&lt;b&gt;CLM75_RS10990&lt;/b&gt;&lt;br&gt;formylglycine-generating enzyme family protein&lt;br&gt;Location: 2409353 - 2410213" locus_tag="CLM75_RS10990" class="clusterblast-orf" id="dummy-1_h1_7_23"  />
</g>
<g id="a1_0024"  >
<polygon points="428,85 433,80 437,80 437,90 433,90 428,85 " style="fill:white; stroke-width:1; stroke:black; " description="&lt;b&gt;CLM75_RS10995&lt;/b&gt;&lt;br&gt;aminotransferase class V-fold PLP-dependent enzyme&lt;br&gt;Location: 2410248 - 2411519" locus_tag="CLM75_RS10995" class="clusterblast-orf" id="dummy-1_h1_7_24"  />
</g>
<g id="a1_0025"  >
<polygon points="437,85 442,80 447,80 447,90 442,90 437,85 " style="fill:white; stroke-width:1; stroke:black; " description="&lt;b&gt;CLM75_RS11000&lt;/b&gt;&lt;br&gt;pyoverdine-tailoring dipeptidase-like protein PvdM&lt;br&gt;Location: 2411538 - 2412887" locus_tag="CLM75_RS11000" class="clusterblast-orf" id="dummy-1_h1_7_25"  />
</g>
<g id="a1_0026"  >
<polygon points="448,90 455,90 460,85 455,80 448,80 448,90 " style="fill:white; stroke-width:1; stroke:black; " description="&lt;b&gt;CLM75_RS11005&lt;/b&gt;&lt;br&gt;PvdJ/PvdD/PvdP-like protein&lt;br&gt;Location: 2413030 - 2414655" locus_tag="CLM75_RS11005" class="clusterblast-orf" id="dummy-1_h1_7_26"  />
</g>
<g id="a1_0027"  >
<polygon points="462,90 551,90 556,85 551,80 462,80 462,90 " style="fill:#7715d8; stroke-width:1; stroke:black; " description="&lt;b&gt;CLM75_RS11010&lt;/b&gt;&lt;br&gt;non-ribosomal peptide synthetase&lt;br&gt;Location: 2414902 - 2427729&lt;br&gt;&lt;br&gt;&lt;b&gt;BlastP hit with ctg12_144&lt;/b&gt;&lt;br&gt;Percentage identity: 87&lt;br&gt;Percentage coverage: 100&lt;br&gt;BLAST bit score: 7335&lt;br&gt;E-value: 0.0&lt;br&gt;&lt;br&gt;&lt;b&gt;BlastP hit with ctg12_145&lt;/b&gt;&lt;br&gt;Percentage identity: 60&lt;br&gt;Percentage coverage: 57&lt;br&gt;BLAST bit score: 2400&lt;br&gt;E-value: 0.0" locus_tag="CLM75_RS11010" class="clusterblast-orf" id="dummy-1_h1_7_27"  />
</g>
<g id="a1_0028"  >
<polygon points="556,90 633,90 638,85 633,80 556,80 556,90 " style="fill:#7715d8; stroke-width:1; stroke:black; " description="&lt;b&gt;CLM75_RS11015&lt;/b&gt;&lt;br&gt;amino acid adenylation domain-containing protein&lt;br&gt;Location: 2427726 - 2439020&lt;br&gt;&lt;br&gt;&lt;b&gt;BlastP hit with ctg12_144&lt;/b&gt;&lt;br&gt;Percentage identity: 60&lt;br&gt;Percentage coverage: 50&lt;br&gt;BLAST bit score: 2387&lt;br&gt;E-value: 0.0&lt;br&gt;&lt;br&gt;&lt;b&gt;BlastP hit with ctg12_145&lt;/b&gt;&lt;br&gt;Percentage identity: 86&lt;br&gt;Percentage coverage: 100&lt;br&gt;BLAST bit score: 6470&lt;br&gt;E-value: 0.0" locus_tag="CLM75_RS11015" class="clusterblast-orf" id="dummy-1_h1_7_28"  />
</g>
<g id="a1_0029"  >
<polygon points="642,90 645,90 650,85 645,80 642,80 642,90 " style="fill:#d85015; stroke-width:1; stroke:black; " description="&lt;b&gt;CLM75_RS11025&lt;/b&gt;&lt;br&gt;macrolide transporter subunit MacA&lt;br&gt;Location: 2439524 - 2440675&lt;br&gt;&lt;br&gt;&lt;b&gt;BlastP hit with ctg12_146&lt;/b&gt;&lt;br&gt;Percentage identity: 92&lt;br&gt;Percentage coverage: 100&lt;br&gt;BLAST bit score: 659&lt;br&gt;E-value: 3.37e-239" locus_tag="CLM75_RS11025" class="clusterblast-orf" id="dummy-1_h1_7_29"  />
</g>
<g id="a1_0030"  >
<polygon points="650,90 660,90 665,85 660,80 650,80 650,90 " style="fill:#3cd815; stroke-width:1; stroke:black; " description="&lt;b&gt;CLM75_RS11030&lt;/b&gt;&lt;br&gt;MacB family efflux pump subunit&lt;br&gt;Location: 2440679 - 2442637&lt;br&gt;&lt;br&gt;&lt;b&gt;BlastP hit with ctg12_147&lt;/b&gt;&lt;br&gt;Percentage identity: 97&lt;br&gt;Percentage coverage: 100&lt;br&gt;BLAST bit score: 1208&lt;br&gt;E-value: 0.0" locus_tag="CLM75_RS11030" class="clusterblast-orf" id="dummy-1_h1_7_30"  />
</g>
<g id="a1_0031"  >
<polygon points="665,85 670,80 670,80 670,90 670,90 665,85 " style="fill:#159ed8; stroke-width:1; stroke:black; " description="&lt;b&gt;CLM75_RS11035&lt;/b&gt;&lt;br&gt;helix-turn-helix transcriptional regulator&lt;br&gt;Location: 2442708 - 2443391&lt;br&gt;&lt;br&gt;&lt;b&gt;BlastP hit with ctg12_148&lt;/b&gt;&lt;br&gt;Percentage identity: 90&lt;br&gt;Percentage coverage: 97&lt;br&gt;BLAST bit score: 381&lt;br&gt;E-value: 3.27e-134" locus_tag="CLM75_RS11035" class="clusterblast-orf" id="dummy-1_h1_7_31"  />
</g>
<g id="a1_0032"  >
<polygon points="671,85 676,80 680,80 680,90 676,90 671,85 " style="fill:#b115d8; stroke-width:1; stroke:black; " description="&lt;b&gt;CLM75_RS11040&lt;/b&gt;&lt;br&gt;methionine gamma-lyase&lt;br&gt;Location: 2443538 - 2444773&lt;br&gt;&lt;br&gt;&lt;b&gt;BlastP hit with ctg12_149&lt;/b&gt;&lt;br&gt;Percentage identity: 95&lt;br&gt;Percentage coverage: 98&lt;br&gt;BLAST bit score: 762&lt;br&gt;E-value: 7.83e-279" locus_tag="CLM75_RS11040" class="clusterblast-orf" id="dummy-1_h1_7_32"  />
</g>
<g id="a1_0033"  >
<polygon points="681,90 685,85 681,80 681,90 " style="fill:#d88a15; stroke-width:1; stroke:black; " description="&lt;b&gt;CLM75_RS11045&lt;/b&gt;&lt;br&gt;Lrp/AsnC family transcriptional regulator&lt;br&gt;Location: 2444897 - 2445367&lt;br&gt;&lt;br&gt;&lt;b&gt;BlastP hit with ctg12_150&lt;/b&gt;&lt;br&gt;Percentage identity: 95&lt;br&gt;Percentage coverage: 100&lt;br&gt;BLAST bit score: 297&lt;br&gt;E-value: 2.82e-103" locus_tag="CLM75_RS11045" class="clusterblast-orf" id="dummy-1_h1_7_33"  />
</g>
<g id="a1_0034"  >
<polygon points="685,90 689,85 685,80 685,90 " style="fill:white; stroke-width:1; stroke:black; " description="&lt;b&gt;CLM75_RS11050&lt;/b&gt;&lt;br&gt;carboxymuconolactone decarboxylase family protein&lt;br&gt;Location: 2445465 - 2445902" locus_tag="CLM75_RS11050" class="clusterblast-orf" id="dummy-1_h1_7_34"  />
</g>
<g id="a1_0035"  >
<polygon points="689,85 694,80 694,80 694,90 694,90 689,85 " style="fill:#15d829; stroke-width:1; stroke:black; " description="&lt;b&gt;CLM75_RS11055&lt;/b&gt;&lt;br&gt;helix-turn-helix transcriptional regulator&lt;br&gt;Location: 2445907 - 2446677&lt;br&gt;&lt;br&gt;&lt;b&gt;BlastP hit with ctg12_151&lt;/b&gt;&lt;br&gt;Percentage identity: 88&lt;br&gt;Percentage coverage: 99&lt;br&gt;BLAST bit score: 459&lt;br&gt;E-value: 2.64e-164" locus_tag="CLM75_RS11055" class="clusterblast-orf" id="dummy-1_h1_7_35"  />
</g>
<g id="a1_0036"  >
<polygon points="695,90 698,90 703,85 698,80 695,80 695,90 " style="fill:#1563d8; stroke-width:1; stroke:black; " description="&lt;b&gt;CLM75_RS11060&lt;/b&gt;&lt;br&gt;MFS transporter&lt;br&gt;Location: 2446779 - 2447909&lt;br&gt;&lt;br&gt;&lt;b&gt;BlastP hit with ctg12_152&lt;/b&gt;&lt;br&gt;Percentage identity: 84&lt;br&gt;Percentage coverage: 100&lt;br&gt;BLAST bit score: 601&lt;br&gt;E-value: 2.21e-216" locus_tag="CLM75_RS11060" class="clusterblast-orf" id="dummy-1_h1_7_36"  />
</g>
<g id="a1_0037"  >
<polygon points="703,85 708,80 719,80 719,90 708,90 703,85 " style="fill:#d815c5; stroke-width:1; stroke:black; " description="&lt;b&gt;CLM75_RS11065&lt;/b&gt;&lt;br&gt;TonB-dependent siderophore receptor&lt;br&gt;Location: 2447899 - 2450061&lt;br&gt;&lt;br&gt;&lt;b&gt;BlastP hit with ctg12_153&lt;/b&gt;&lt;br&gt;Percentage identity: 91&lt;br&gt;Percentage coverage: 101&lt;br&gt;BLAST bit score: 1312&lt;br&gt;E-value: 0.0" locus_tag="CLM75_RS11065" class="clusterblast-orf" id="dummy-1_h1_7_37"  />
</g>
<g id="a1_0038"  >
<polygon points="720,85 725,80 727,80 727,90 725,90 720,85 " style="fill:#d8c515; stroke-width:1; stroke:black; " description="&lt;b&gt;CLM75_RS11070&lt;/b&gt;&lt;br&gt;helix-turn-helix domain-containing protein&lt;br&gt;Location: 2450201 - 2451097&lt;br&gt;&lt;br&gt;&lt;b&gt;BlastP hit with ctg12_154&lt;/b&gt;&lt;br&gt;Percentage identity: 94&lt;br&gt;Percentage coverage: 100&lt;br&gt;BLAST bit score: 572&lt;br&gt;E-value: 1.47e-207" locus_tag="CLM75_RS11070" class="clusterblast-orf" id="dummy-1_h1_7_38"  />
</g>
<g id="a1_0039"  >
<polygon points="728,90 732,90 737,85 732,80 728,80 728,90 " style="fill:#15d863; stroke-width:1; stroke:black; " description="&lt;b&gt;CLM75_RS11075&lt;/b&gt;&lt;br&gt;glutamine synthetase&lt;br&gt;Location: 2451237 - 2452595&lt;br&gt;&lt;br&gt;&lt;b&gt;BlastP hit with ctg12_155&lt;/b&gt;&lt;br&gt;Percentage identity: 98&lt;br&gt;Percentage coverage: 100&lt;br&gt;BLAST bit score: 908&lt;br&gt;E-value: 0.0" locus_tag="CLM75_RS11075" class="clusterblast-orf" id="dummy-1_h1_7_39"  />
</g>
<g id="a1_0040"  >
<polygon points="738,90 741,90 746,85 741,80 738,80 738,90 " style="fill:#1529d8; stroke-width:1; stroke:black; " description="&lt;b&gt;CLM75_RS11080&lt;/b&gt;&lt;br&gt;polyamine ABC transporter substrate-binding protein&lt;br&gt;Location: 2452619 - 2453707&lt;br&gt;&lt;br&gt;&lt;b&gt;BlastP hit with ctg12_156&lt;/b&gt;&lt;br&gt;Percentage identity: 95&lt;br&gt;Percentage coverage: 100&lt;br&gt;BLAST bit score: 695&lt;br&gt;E-value: 7.17e-254" locus_tag="CLM75_RS11080" class="clusterblast-orf" id="dummy-1_h1_7_40"  />
</g>
<g id="a1_0041"  >
<polygon points="746,90 750,90 755,85 750,80 746,80 746,90 " style="fill:#d8158a; stroke-width:1; stroke:black; " description="&lt;b&gt;CLM75_RS11085&lt;/b&gt;&lt;br&gt;FAD-binding oxidoreductase&lt;br&gt;Location: 2453704 - 2454996&lt;br&gt;&lt;br&gt;&lt;b&gt;BlastP hit with ctg12_157&lt;/b&gt;&lt;br&gt;Percentage identity: 90&lt;br&gt;Percentage coverage: 99&lt;br&gt;BLAST bit score: 792&lt;br&gt;E-value: 5.86e-290" locus_tag="CLM75_RS11085" class="clusterblast-orf" id="dummy-1_h1_7_41"  />
</g>
<g id="a1_0042"  >
<polygon points="756,85 761,80 762,80 762,90 761,90 756,85 " style="fill:#b1d815; stroke-width:1; stroke:black; " description="&lt;b&gt;CLM75_RS11090&lt;/b&gt;&lt;br&gt;LysR family transcriptional regulator&lt;br&gt;Location: 2455070 - 2455963&lt;br&gt;&lt;br&gt;&lt;b&gt;BlastP hit with ctg12_158&lt;/b&gt;&lt;br&gt;Percentage identity: 96&lt;br&gt;Percentage coverage: 99&lt;br&gt;BLAST bit score: 566&lt;br&gt;E-value: 5.31e-205" locus_tag="CLM75_RS11090" class="clusterblast-orf" id="dummy-1_h1_7_42"  />
</g>
<g id="a1_0043"  >
<polygon points="763,90 765,90 770,85 765,80 763,80 763,90 " style="fill:#15d89e; stroke-width:1; stroke:black; " description="&lt;b&gt;CLM75_RS11095&lt;/b&gt;&lt;br&gt;aldo/keto reductase&lt;br&gt;Location: 2456077 - 2457081&lt;br&gt;&lt;br&gt;&lt;b&gt;BlastP hit with ctg12_159&lt;/b&gt;&lt;br&gt;Percentage identity: 93&lt;br&gt;Percentage coverage: 100&lt;br&gt;BLAST bit score: 610&lt;br&gt;E-value: 1.94e-221" locus_tag="CLM75_RS11095" class="clusterblast-orf" id="dummy-1_h1_7_43"  />
</g>
<g id="a1_0044"  >
<polygon points="770,90 771,90 776,85 771,80 770,80 770,90 " style="fill:#3c15d8; stroke-width:1; stroke:black; " description="&lt;b&gt;CLM75_RS11100&lt;/b&gt;&lt;br&gt;SDR family oxidoreductase&lt;br&gt;Location: 2457048 - 2457896&lt;br&gt;&lt;br&gt;&lt;b&gt;BlastP hit with ctg12_160&lt;/b&gt;&lt;br&gt;Percentage identity: 96&lt;br&gt;Percentage coverage: 100&lt;br&gt;BLAST bit score: 279&lt;br&gt;E-value: 1.83e-94&lt;br&gt;&lt;br&gt;&lt;b&gt;BlastP hit with ctg12_161&lt;/b&gt;&lt;br&gt;Percentage identity: 98&lt;br&gt;Percentage coverage: 100&lt;br&gt;BLAST bit score: 189&lt;br&gt;E-value: 7.18e-60" locus_tag="CLM75_RS11100" class="clusterblast-orf" id="dummy-1_h1_7_44"  />
</g>
<g id="a1_0045"  >
<polygon points="776,90 780,85 776,80 776,90 " style="fill:#d81550; stroke-width:1; stroke:black; " description="&lt;b&gt;CLM75_RS11105&lt;/b&gt;&lt;br&gt;SRPBCC family protein&lt;br&gt;Location: 2457926 - 2458342&lt;br&gt;&lt;br&gt;&lt;b&gt;BlastP hit with ctg12_162&lt;/b&gt;&lt;br&gt;Percentage identity: 93&lt;br&gt;Percentage coverage: 99&lt;br&gt;BLAST bit score: 246&lt;br&gt;E-value: 6.41e-84" locus_tag="CLM75_RS11105" class="clusterblast-orf" id="dummy-1_h1_7_45"  />
</g>
</svg>
