<svg xmlns="http://www.w3.org/2000/svg" xmlns:xlink="http://www.w3.org/1999/xlink" version="1.1" x="0" y="0" height="230" width="800" viewBox="0 0 800 230" preserveAspectRatio="none"  >
<g label="Query sequence" class="clusterblast-cluster"  >
<text x="5" y="20" class="clusterblast-acc"  >
Query sequence</text>
<line x1="10" y1="35" x2="778.0" y2="35" style="stroke-width:1; stroke:grey; "  />
<polygon points="10,40 27,40 32,35 27,30 10,30 10,40 " style="fill:#d81515; stroke-width:1; stroke:black; " description="&lt;b&gt;ctg22_19&lt;/b&gt;&lt;br&gt;ctg22 19&lt;br&gt;Location: 16848 - 17619" locus_tag="ctg22_19" class="clusterblast-orf" id="dummy-1_q0_0_all"  />
<polygon points="34,35 39,30 95,30 95,40 39,40 34,35 " style="fill:#60d815; stroke-width:1; stroke:black; " description="&lt;b&gt;ctg22_20&lt;/b&gt;&lt;br&gt;ctg22 20&lt;br&gt;Location: 17698 - 19846" locus_tag="ctg22_20" class="clusterblast-orf" id="dummy-1_q1_0_all"  />
<polygon points="97,40 104,40 109,35 104,30 97,30 97,40 " style="fill:#15abd8; stroke-width:1; stroke:black; " description="&lt;b&gt;ctg22_21&lt;/b&gt;&lt;br&gt;ctg22 21&lt;br&gt;Location: 19942 - 20371" locus_tag="ctg22_21" class="clusterblast-orf" id="dummy-1_q2_0_all"  />
<polygon points="110,40 118,40 123,35 118,30 110,30 110,40 " style="fill:#8d15d8; stroke-width:1; stroke:black; " description="&lt;b&gt;ctg22_22&lt;/b&gt;&lt;br&gt;ctg22 22&lt;br&gt;Location: 20391 - 20847" locus_tag="ctg22_22" class="clusterblast-orf" id="dummy-1_q3_0_all"  />
<polygon points="123,40 130,40 135,35 130,30 123,30 123,40 " style="fill:#d84215; stroke-width:1; stroke:black; " description="&lt;b&gt;ctg22_23&lt;/b&gt;&lt;br&gt;ctg22 23&lt;br&gt;Location: 20839 - 21289" locus_tag="ctg22_23" class="clusterblast-orf" id="dummy-1_q4_0_all"  />
<polygon points="136,35 141,30 153,30 153,40 141,40 136,35 " style="fill:#33d815; stroke-width:1; stroke:black; " description="&lt;b&gt;ctg22_24&lt;/b&gt;&lt;br&gt;ctg22 24&lt;br&gt;Location: 21332 - 21911" locus_tag="ctg22_24" class="clusterblast-orf" id="dummy-1_q5_0_all"  />
<polygon points="155,35 160,30 192,30 192,40 160,40 155,35 " style="fill:#157ed8; stroke-width:1; stroke:black; " description="&lt;b&gt;ctg22_25&lt;/b&gt;&lt;br&gt;ctg22 25&lt;br&gt;Location: 21980 - 23294" locus_tag="ctg22_25" class="clusterblast-orf" id="dummy-1_q6_0_all"  />
<polygon points="193,35 197,30 197,40 193,35 " style="fill:#ba15d8; stroke-width:1; stroke:black; " description="&lt;b&gt;ctg22_26&lt;/b&gt;&lt;br&gt;ctg22 26&lt;br&gt;Location: 23344 - 23500" locus_tag="ctg22_26" class="clusterblast-orf" id="dummy-1_q7_0_all"  />
<polygon points="200,35 205,30 223,30 223,40 205,40 200,35 " style="fill:#d86f15; stroke-width:1; stroke:black; " description="&lt;b&gt;ctg22_27&lt;/b&gt;&lt;br&gt;ctg22 27&lt;br&gt;Location: 23601 - 24408" locus_tag="ctg22_27" class="clusterblast-orf" id="dummy-1_q8_0_all"  />
<polygon points="224,35 229,30 242,30 242,40 229,40 224,35 " style="fill:#15d824; stroke-width:1; stroke:black; " description="&lt;b&gt;ctg22_28&lt;/b&gt;&lt;br&gt;ctg22 28&lt;br&gt;Location: 24436 - 25069" locus_tag="ctg22_28" class="clusterblast-orf" id="dummy-1_q9_0_all"  />
<polygon points="245,40 258,40 263,35 258,30 245,30 245,40 " style="fill:#1551d8; stroke-width:1; stroke:black; " description="&lt;b&gt;ctg22_29&lt;/b&gt;&lt;br&gt;ctg22 29&lt;br&gt;Location: 25180 - 25837" locus_tag="ctg22_29" class="clusterblast-orf" id="dummy-1_q10_0_all"  />
<polygon points="264,35 269,30 281,30 281,40 269,40 264,35 " style="fill:#d815c9; stroke-width:1; stroke:black; " description="&lt;b&gt;ctg22_30&lt;/b&gt;&lt;br&gt;ctg22 30&lt;br&gt;Location: 25850 - 26471" locus_tag="ctg22_30" class="clusterblast-orf" id="dummy-1_q11_0_all"  />
<polygon points="284,40 342,40 347,35 342,30 284,30 284,40 " style="fill:#d89c15; stroke-width:1; stroke:black; " description="&lt;b&gt;ctg22_31&lt;/b&gt;&lt;br&gt;ctg22 31&lt;br&gt;Location: 26565 - 28806" locus_tag="ctg22_31" class="clusterblast-orf" id="dummy-1_q12_0_all"  />
<polygon points="351,35 356,30 356,30 356,40 356,40 351,35 " style="fill:white; stroke-width:1; stroke:black; " description="&lt;b&gt;ctg22_32&lt;/b&gt;&lt;br&gt;ctg22 32&lt;br&gt;Location: 28959 - 29127" locus_tag="ctg22_32" class="clusterblast-orf" id="dummy-1_q13_0_all"  />
<polygon points="356,35 360,30 360,40 356,35 " style="fill:white; stroke-width:1; stroke:black; " description="&lt;b&gt;ctg22_33&lt;/b&gt;&lt;br&gt;ctg22 33&lt;br&gt;Location: 29126 - 29294" locus_tag="ctg22_33" class="clusterblast-orf" id="dummy-1_q14_0_all"  />
<polygon points="360,35 365,30 365,30 365,40 365,40 360,35 " style="fill:white; stroke-width:1; stroke:black; " description="&lt;b&gt;ctg22_34&lt;/b&gt;&lt;br&gt;ctg22 34&lt;br&gt;Location: 29293 - 29461" locus_tag="ctg22_34" class="clusterblast-orf" id="dummy-1_q15_0_all"  />
<polygon points="365,35 370,30 370,30 370,40 370,40 365,35 " style="fill:white; stroke-width:1; stroke:black; " description="&lt;b&gt;ctg22_35&lt;/b&gt;&lt;br&gt;ctg22 35&lt;br&gt;Location: 29460 - 29625" locus_tag="ctg22_35" class="clusterblast-orf" id="dummy-1_q16_0_all"  />
<polygon points="377,35 382,30 409,30 409,40 382,40 377,35 " style="fill:#15d851; stroke-width:1; stroke:black; " description="&lt;b&gt;ctg22_36&lt;/b&gt;&lt;br&gt;ctg22 36&lt;br&gt;Location: 29871 - 31038" locus_tag="ctg22_36" class="clusterblast-orf" id="dummy-1_q17_0_all"  />
<polygon points="409,35 414,30 448,30 448,40 414,40 409,35 " style="fill:#1524d8; stroke-width:1; stroke:black; " description="&lt;b&gt;ctg22_37&lt;/b&gt;&lt;br&gt;ctg22 37&lt;br&gt;Location: 31034 - 32411" locus_tag="ctg22_37" class="clusterblast-orf" id="dummy-1_q18_0_all"  />
<polygon points="452,35 457,30 476,30 476,40 457,40 452,35 " style="fill:#d8159c; stroke-width:1; stroke:black; " description="&lt;b&gt;ctg22_38&lt;/b&gt;&lt;br&gt;ctg22 38&lt;br&gt;Location: 32555 - 33407" locus_tag="ctg22_38" class="clusterblast-orf" id="dummy-1_q19_0_all"  />
<polygon points="480,35 483,30 483,40 480,35 " style="fill:white; stroke-width:1; stroke:black; " description="&lt;b&gt;ctg22_39&lt;/b&gt;&lt;br&gt;ctg22 39&lt;br&gt;Location: 33533 - 33638" locus_tag="ctg22_39" class="clusterblast-orf" id="dummy-1_q20_0_all"  />
<polygon points="484,35 489,30 512,30 512,40 489,40 484,35 " style="fill:#d8c915; stroke-width:1; stroke:black; " description="&lt;b&gt;ctg22_40&lt;/b&gt;&lt;br&gt;ctg22 40&lt;br&gt;Location: 33692 - 34670" locus_tag="ctg22_40" class="clusterblast-orf" id="dummy-1_q21_0_all"  />
<polygon points="518,35 523,30 529,30 529,40 523,40 518,35 " style="fill:#15d87e; stroke-width:1; stroke:black; " description="&lt;b&gt;ctg22_41&lt;/b&gt;&lt;br&gt;ctg22 41&lt;br&gt;Location: 34885 - 35278" locus_tag="ctg22_41" class="clusterblast-orf" id="dummy-1_q22_0_all"  />
<polygon points="530,35 535,30 547,30 547,40 535,40 530,35 " style="fill:#3315d8; stroke-width:1; stroke:black; " description="&lt;b&gt;ctg22_42&lt;/b&gt;&lt;br&gt;ctg22 42&lt;br&gt;Location: 35308 - 35929" locus_tag="ctg22_42" class="clusterblast-orf" id="dummy-1_q23_0_all"  />
<polygon points="553,35 558,30 582,30 582,40 558,40 553,35 " style="fill:#d8156f; stroke-width:1; stroke:black; " description="&lt;b&gt;ctg22_43&lt;/b&gt;&lt;br&gt;ctg22 43&lt;br&gt;Location: 36151 - 37171" locus_tag="ctg22_43" class="clusterblast-orf" id="dummy-1_q24_0_all"  />
<polygon points="586,35 591,30 607,30 607,40 591,40 586,35 " style="fill:#bad815; stroke-width:1; stroke:black; " description="&lt;b&gt;ctg22_44&lt;/b&gt;&lt;br&gt;ctg22 44&lt;br&gt;Location: 37310 - 38072" locus_tag="ctg22_44" class="clusterblast-orf" id="dummy-1_q25_0_all"  />
<polygon points="613,35 618,30 631,30 631,40 618,40 613,35 " style="fill:#15d8ab; stroke-width:1; stroke:black; " description="&lt;b&gt;ctg22_45&lt;/b&gt;&lt;br&gt;ctg22 45&lt;br&gt;Location: 38262 - 38922" locus_tag="ctg22_45" class="clusterblast-orf" id="dummy-1_q26_0_all"  />
<polygon points="631,35 636,30 648,30 648,40 636,40 631,35 " style="fill:#6015d8; stroke-width:1; stroke:black; " description="&lt;b&gt;ctg22_46&lt;/b&gt;&lt;br&gt;ctg22 46&lt;br&gt;Location: 38918 - 39518" locus_tag="ctg22_46" class="clusterblast-orf" id="dummy-1_q27_0_all"  />
<polygon points="648,35 653,30 669,30 669,40 653,40 648,35 " style="fill:#bad815; stroke-width:1; stroke:black; " description="&lt;b&gt;ctg22_47&lt;/b&gt;&lt;br&gt;ctg22 47&lt;br&gt;Location: 39514 - 40273" locus_tag="ctg22_47" class="clusterblast-orf" id="dummy-1_q28_0_all"  />
<polygon points="669,35 674,30 697,30 697,40 674,40 669,35 " style="fill:#d81542; stroke-width:1; stroke:black; " description="&lt;b&gt;ctg22_48&lt;/b&gt;&lt;br&gt;ctg22 48&lt;br&gt;Location: 40269 - 41268" locus_tag="ctg22_48" class="clusterblast-orf" id="dummy-1_q29_0_all"  />
<polygon points="697,35 702,30 758,30 758,40 702,40 697,35 " style="fill:#8dd815; stroke-width:1; stroke:black; " description="&lt;b&gt;ctg22_49&lt;/b&gt;&lt;br&gt;ctg22 49&lt;br&gt;Location: 41269 - 43426" locus_tag="ctg22_49" class="clusterblast-orf" id="dummy-1_q30_0_all"  />
<polygon points="762,35 767,30 769,30 769,40 767,40 762,35 " style="fill:#15d8d8; stroke-width:1; stroke:black; " description="&lt;b&gt;ctg22_50&lt;/b&gt;&lt;br&gt;ctg22 50&lt;br&gt;Location: 43557 - 43827" locus_tag="ctg22_50" class="clusterblast-orf" id="dummy-1_q31_0_all"  />
</g>
<g label="NZ_CP023272" description="NZ_CP023272 (3235529-3264084): Pseudomonas lurida strain MYb11 chromosome, co... (50% of genes show similarity), thiopeptide" class="clusterblast-cluster"  >
<text x="5" y="70" class="clusterblast-acc"  >
<a xlink:href="https://antismash-db.secondarymetabolites.org/area.html?record=NZ_CP023272&amp;start=3235529&amp;end=3264084" target="_blank">NZ_CP023272 (3235529-3264084)</a>: Pseudomonas lurida strain MYb11 chromosome, co... (50% of genes show similarity), thiopeptide</text>
<line x1="10" y1="85" x2="778.0" y2="85" style="stroke-width:1; stroke:grey; "  />
</g>
<g id="a1_000"  >
<polygon points="0,85 5,80 15,80 15,90 5,90 0,85 " style="fill:#33d815; stroke-width:1; stroke:black; " description="&lt;b&gt;CLM75_RS14775&lt;/b&gt;&lt;br&gt;cysteine hydrolase&lt;br&gt;Location: 3263771 - 3263211&lt;br&gt;&lt;br&gt;&lt;b&gt;BlastP hit with ctg22_24&lt;/b&gt;&lt;br&gt;Percentage identity: 82&lt;br&gt;Percentage coverage: 97&lt;br&gt;BLAST bit score: 318&lt;br&gt;E-value: 2.01e-110" locus_tag="CLM75_RS14775" class="clusterblast-orf" id="dummy-1_h1_9_0"  />
</g>
<g id="a1_001"  >
<polygon points="20,90 30,90 35,85 30,80 20,80 20,90 " style="fill:white; stroke-width:1; stroke:black; " description="&lt;b&gt;CLM75_RS14770&lt;/b&gt;&lt;br&gt;GNAT family N-acetyltransferase&lt;br&gt;Location: 3263046 - 3262501" locus_tag="CLM75_RS14770" class="clusterblast-orf" id="dummy-1_h1_9_1"  />
</g>
<g id="a1_002"  >
<polygon points="35,90 43,90 48,85 43,80 35,80 35,90 " style="fill:white; stroke-width:1; stroke:black; " description="&lt;b&gt;CLM75_RS14765&lt;/b&gt;&lt;br&gt;hypothetical protein&lt;br&gt;Location: 3262514 - 3262038" locus_tag="CLM75_RS14765" class="clusterblast-orf" id="dummy-1_h1_9_2"  />
</g>
<g id="a1_003"  >
<polygon points="48,90 55,90 60,85 55,80 48,80 48,90 " style="fill:white; stroke-width:1; stroke:black; " description="&lt;b&gt;CLM75_RS14760&lt;/b&gt;&lt;br&gt;hypothetical protein&lt;br&gt;Location: 3262041 - 3261622" locus_tag="CLM75_RS14760" class="clusterblast-orf" id="dummy-1_h1_9_3"  />
</g>
<g id="a1_004"  >
<polygon points="61,90 71,90 76,85 71,80 61,80 61,90 " style="fill:white; stroke-width:1; stroke:black; " description="&lt;b&gt;CLM75_RS14755&lt;/b&gt;&lt;br&gt;GNAT family N-acetyltransferase&lt;br&gt;Location: 3261590 - 3261042" locus_tag="CLM75_RS14755" class="clusterblast-orf" id="dummy-1_h1_9_4"  />
</g>
<g id="a1_005"  >
<polygon points="81,85 86,80 94,80 94,90 86,90 81,85 " style="fill:white; stroke-width:1; stroke:black; " description="&lt;b&gt;CLM75_RS14750&lt;/b&gt;&lt;br&gt;hypothetical protein&lt;br&gt;Location: 3260869 - 3260429" locus_tag="CLM75_RS14750" class="clusterblast-orf" id="dummy-1_h1_9_5"  />
</g>
<g id="a1_006"  >
<polygon points="98,85 103,80 112,80 112,90 103,90 98,85 " style="fill:white; stroke-width:1; stroke:black; " description="&lt;b&gt;CLM75_RS14745&lt;/b&gt;&lt;br&gt;hypothetical protein&lt;br&gt;Location: 3260272 - 3259757" locus_tag="CLM75_RS14745" class="clusterblast-orf" id="dummy-1_h1_9_6"  />
</g>
<g id="a1_007"  >
<polygon points="119,90 126,90 131,85 126,80 119,80 119,90 " style="fill:#8d15d8; stroke-width:1; stroke:black; " description="&lt;b&gt;CLM75_RS14740&lt;/b&gt;&lt;br&gt;VOC family protein&lt;br&gt;Location: 3259540 - 3259109&lt;br&gt;&lt;br&gt;&lt;b&gt;BlastP hit with ctg22_22&lt;/b&gt;&lt;br&gt;Percentage identity: 77&lt;br&gt;Percentage coverage: 91&lt;br&gt;BLAST bit score: 219&lt;br&gt;E-value: 6.47e-73" locus_tag="CLM75_RS14740" class="clusterblast-orf" id="dummy-1_h1_9_7"  />
</g>
<g id="a1_008"  >
<polygon points="138,85 143,80 160,80 160,90 143,90 138,85 " style="fill:#d86f15; stroke-width:1; stroke:black; " description="&lt;b&gt;CLM75_RS14735&lt;/b&gt;&lt;br&gt;suppressor of fused domain protein&lt;br&gt;Location: 3258863 - 3258063&lt;br&gt;&lt;br&gt;&lt;b&gt;BlastP hit with ctg22_27&lt;/b&gt;&lt;br&gt;Percentage identity: 77&lt;br&gt;Percentage coverage: 100&lt;br&gt;BLAST bit score: 416&lt;br&gt;E-value: 1.42e-146" locus_tag="CLM75_RS14735" class="clusterblast-orf" id="dummy-1_h1_9_8"  />
</g>
<g id="a1_009"  >
<polygon points="161,85 166,80 179,80 179,90 166,90 161,85 " style="fill:#15d824; stroke-width:1; stroke:black; " description="&lt;b&gt;CLM75_RS14730&lt;/b&gt;&lt;br&gt;TetR family transcriptional regulator&lt;br&gt;Location: 3258034 - 3257402&lt;br&gt;&lt;br&gt;&lt;b&gt;BlastP hit with ctg22_28&lt;/b&gt;&lt;br&gt;Percentage identity: 88&lt;br&gt;Percentage coverage: 100&lt;br&gt;BLAST bit score: 341&lt;br&gt;E-value: 6.89e-119" locus_tag="CLM75_RS14730" class="clusterblast-orf" id="dummy-1_h1_9_9"  />
</g>
<g id="a1_0010"  >
<polygon points="182,90 195,90 200,85 195,80 182,80 182,90 " style="fill:#1551d8; stroke-width:1; stroke:black; " description="&lt;b&gt;CLM75_RS14725&lt;/b&gt;&lt;br&gt;class I SAM-dependent methyltransferase&lt;br&gt;Location: 3257290 - 3256634&lt;br&gt;&lt;br&gt;&lt;b&gt;BlastP hit with ctg22_29&lt;/b&gt;&lt;br&gt;Percentage identity: 84&lt;br&gt;Percentage coverage: 100&lt;br&gt;BLAST bit score: 363&lt;br&gt;E-value: 2.6e-127" locus_tag="CLM75_RS14725" class="clusterblast-orf" id="dummy-1_h1_9_10"  />
</g>
<g id="a1_0011"  >
<polygon points="202,85 207,80 220,80 220,90 207,90 202,85 " style="fill:#d815c9; stroke-width:1; stroke:black; " description="&lt;b&gt;CLM75_RS14720&lt;/b&gt;&lt;br&gt;LysE family translocator&lt;br&gt;Location: 3256561 - 3255941&lt;br&gt;&lt;br&gt;&lt;b&gt;BlastP hit with ctg22_30&lt;/b&gt;&lt;br&gt;Percentage identity: 90&lt;br&gt;Percentage coverage: 100&lt;br&gt;BLAST bit score: 369&lt;br&gt;E-value: 5.44e-130" locus_tag="CLM75_RS14720" class="clusterblast-orf" id="dummy-1_h1_9_11"  />
</g>
<g id="a1_0012"  >
<polygon points="223,85 228,80 267,80 267,90 228,90 223,85 " style="fill:#60d815; stroke-width:1; stroke:black; " description="&lt;b&gt;CLM75_RS14715&lt;/b&gt;&lt;br&gt;methyl-accepting chemotaxis protein&lt;br&gt;Location: 3255813 - 3254248&lt;br&gt;&lt;br&gt;&lt;b&gt;BlastP hit with ctg22_20&lt;/b&gt;&lt;br&gt;Percentage identity: 33&lt;br&gt;Percentage coverage: 44&lt;br&gt;BLAST bit score: 137&lt;br&gt;E-value: 4.24e-32" locus_tag="CLM75_RS14715" class="clusterblast-orf" id="dummy-1_h1_9_12"  />
</g>
<g id="a1_0013"  >
<polygon points="272,90 329,90 334,85 329,80 272,80 272,90 " style="fill:#d89c15; stroke-width:1; stroke:black; " description="&lt;b&gt;CLM75_RS14710&lt;/b&gt;&lt;br&gt;OsmC domain/YcaO domain-containing protein&lt;br&gt;Location: 3254084 - 3251886&lt;br&gt;&lt;br&gt;&lt;b&gt;BlastP hit with ctg22_31&lt;/b&gt;&lt;br&gt;Percentage identity: 95&lt;br&gt;Percentage coverage: 98&lt;br&gt;BLAST bit score: 1417&lt;br&gt;E-value: 0.0" locus_tag="CLM75_RS14710" class="clusterblast-orf" id="dummy-1_h1_9_13"  />
</g>
<g id="a1_0014"  >
<polygon points="337,85 342,80 370,80 370,90 342,90 337,85 " style="fill:#15d851; stroke-width:1; stroke:black; " description="&lt;b&gt;CLM75_RS14705&lt;/b&gt;&lt;br&gt;cystathionine gamma-synthase&lt;br&gt;Location: 3251765 - 3250599&lt;br&gt;&lt;br&gt;&lt;b&gt;BlastP hit with ctg22_36&lt;/b&gt;&lt;br&gt;Percentage identity: 94&lt;br&gt;Percentage coverage: 100&lt;br&gt;BLAST bit score: 736&lt;br&gt;E-value: 1.88e-269" locus_tag="CLM75_RS14705" class="clusterblast-orf" id="dummy-1_h1_9_14"  />
</g>
<g id="a1_0015"  >
<polygon points="370,85 375,80 409,80 409,90 375,90 370,85 " style="fill:#1524d8; stroke-width:1; stroke:black; " description="&lt;b&gt;CLM75_RS14700&lt;/b&gt;&lt;br&gt;cystathionine beta-synthase&lt;br&gt;Location: 3250602 - 3249226&lt;br&gt;&lt;br&gt;&lt;b&gt;BlastP hit with ctg22_37&lt;/b&gt;&lt;br&gt;Percentage identity: 96&lt;br&gt;Percentage coverage: 100&lt;br&gt;BLAST bit score: 868&lt;br&gt;E-value: 0.0" locus_tag="CLM75_RS14700" class="clusterblast-orf" id="dummy-1_h1_9_15"  />
</g>
<g id="a1_0016"  >
<polygon points="412,85 417,80 436,80 436,90 417,90 412,85 " style="fill:#d8159c; stroke-width:1; stroke:black; " description="&lt;b&gt;CLM75_RS14695&lt;/b&gt;&lt;br&gt;4-hydroxy-tetrahydrodipicolinate synthase&lt;br&gt;Location: 3249109 - 3248246&lt;br&gt;&lt;br&gt;&lt;b&gt;BlastP hit with ctg22_38&lt;/b&gt;&lt;br&gt;Percentage identity: 84&lt;br&gt;Percentage coverage: 96&lt;br&gt;BLAST bit score: 451&lt;br&gt;E-value: 7.57e-160" locus_tag="CLM75_RS14695" class="clusterblast-orf" id="dummy-1_h1_9_16"  />
</g>
<g id="a1_0017"  >
<polygon points="444,85 449,80 484,80 484,90 449,90 444,85 " style="fill:white; stroke-width:1; stroke:black; " description="&lt;b&gt;CLM75_RS14690&lt;/b&gt;&lt;br&gt;hypothetical protein&lt;br&gt;Location: 3247952 - 3246561" locus_tag="CLM75_RS14690" class="clusterblast-orf" id="dummy-1_h1_9_17"  />
</g>
<g id="a1_0018"  >
<polygon points="487,85 492,80 501,80 501,90 492,90 487,85 " style="fill:white; stroke-width:1; stroke:black; " description="&lt;b&gt;CLM75_RS14685&lt;/b&gt;&lt;br&gt;VOC family protein&lt;br&gt;Location: 3246436 - 3245957" locus_tag="CLM75_RS14685" class="clusterblast-orf" id="dummy-1_h1_9_18"  />
</g>
<g id="a1_0019"  >
<polygon points="502,85 507,80 513,80 513,90 507,90 502,85 " style="fill:#15d87e; stroke-width:1; stroke:black; " description="&lt;b&gt;CLM75_RS14680&lt;/b&gt;&lt;br&gt;ester cyclase&lt;br&gt;Location: 3245922 - 3245530&lt;br&gt;&lt;br&gt;&lt;b&gt;BlastP hit with ctg22_41&lt;/b&gt;&lt;br&gt;Percentage identity: 81&lt;br&gt;Percentage coverage: 98&lt;br&gt;BLAST bit score: 220&lt;br&gt;E-value: 8.99e-74" locus_tag="CLM75_RS14680" class="clusterblast-orf" id="dummy-1_h1_9_19"  />
</g>
<g id="a1_0020"  >
<polygon points="514,85 519,80 531,80 531,90 519,90 514,85 " style="fill:#3315d8; stroke-width:1; stroke:black; " description="&lt;b&gt;CLM75_RS14675&lt;/b&gt;&lt;br&gt;LysE family translocator&lt;br&gt;Location: 3245491 - 3244871&lt;br&gt;&lt;br&gt;&lt;b&gt;BlastP hit with ctg22_42&lt;/b&gt;&lt;br&gt;Percentage identity: 89&lt;br&gt;Percentage coverage: 100&lt;br&gt;BLAST bit score: 354&lt;br&gt;E-value: 3.36e-124" locus_tag="CLM75_RS14675" class="clusterblast-orf" id="dummy-1_h1_9_20"  />
</g>
<g id="a1_0021"  >
<polygon points="534,85 539,80 549,80 549,90 539,90 534,85 " style="fill:white; stroke-width:1; stroke:black; " description="&lt;b&gt;CLM75_RS14670&lt;/b&gt;&lt;br&gt;adenylate kinase&lt;br&gt;Location: 3244775 - 3244239" locus_tag="CLM75_RS14670" class="clusterblast-orf" id="dummy-1_h1_9_21"  />
</g>
<g id="a1_0022"  >
<polygon points="551,85 556,80 561,80 561,90 556,90 551,85 " style="fill:white; stroke-width:1; stroke:black; " description="&lt;b&gt;CLM75_RS14665&lt;/b&gt;&lt;br&gt;VOC family protein&lt;br&gt;Location: 3244172 - 3243801" locus_tag="CLM75_RS14665" class="clusterblast-orf" id="dummy-1_h1_9_22"  />
</g>
<g id="a1_0023"  >
<polygon points="565,90 582,90 587,85 582,80 565,80 565,90 " style="fill:white; stroke-width:1; stroke:black; " description="&lt;b&gt;CLM75_RS14660&lt;/b&gt;&lt;br&gt;NAD(P)-binding domain-containing protein&lt;br&gt;Location: 3243670 - 3242903" locus_tag="CLM75_RS14660" class="clusterblast-orf" id="dummy-1_h1_9_23"  />
</g>
<g id="a1_0024"  >
<polygon points="586,85 591,80 599,80 599,90 591,90 586,85 " style="fill:white; stroke-width:1; stroke:black; " description="&lt;b&gt;CLM75_RS14655&lt;/b&gt;&lt;br&gt;thiol-disulfide oxidoreductase DCC family protein&lt;br&gt;Location: 3242908 - 3242456" locus_tag="CLM75_RS14655" class="clusterblast-orf" id="dummy-1_h1_9_24"  />
</g>
<g id="a1_0025"  >
<polygon points="624,85 629,80 662,80 662,90 629,90 624,85 " style="fill:white; stroke-width:1; stroke:black; " description="&lt;b&gt;CLM75_RS14650&lt;/b&gt;&lt;br&gt;MFS transporter&lt;br&gt;Location: 3241567 - 3240230" locus_tag="CLM75_RS14650" class="clusterblast-orf" id="dummy-1_h1_9_25"  />
</g>
<g id="a1_0026"  >
<polygon points="672,85 677,80 714,80 714,90 677,90 672,85 " style="fill:#60d815; stroke-width:1; stroke:black; " description="&lt;b&gt;CLM75_RS14645&lt;/b&gt;&lt;br&gt;methyl-accepting chemotaxis protein&lt;br&gt;Location: 3239856 - 3238363&lt;br&gt;&lt;br&gt;&lt;b&gt;BlastP hit with ctg22_20&lt;/b&gt;&lt;br&gt;Percentage identity: 31&lt;br&gt;Percentage coverage: 44&lt;br&gt;BLAST bit score: 113&lt;br&gt;E-value: 2.69e-24" locus_tag="CLM75_RS14645" class="clusterblast-orf" id="dummy-1_h1_9_26"  />
</g>
<g id="a1_0027"  >
<polygon points="719,85 724,80 780,80 780,90 724,90 719,85 " style="fill:white; stroke-width:1; stroke:black; " description="&lt;b&gt;CLM75_RS14640&lt;/b&gt;&lt;br&gt;TonB-dependent siderophore receptor&lt;br&gt;Location: 3238196 - 3236043" locus_tag="CLM75_RS14640" class="clusterblast-orf" id="dummy-1_h1_9_27"  />
</g>
</svg>
