<svg xmlns="http://www.w3.org/2000/svg" xmlns:xlink="http://www.w3.org/1999/xlink" version="1.1" x="0" y="0" height="230" width="800" viewBox="0 0 800 230" preserveAspectRatio="none"  >
<g label="Query sequence" class="clusterblast-cluster"  >
<text x="5" y="20" class="clusterblast-acc"  >
Query sequence</text>
<line x1="10" y1="35" x2="778.0" y2="35" style="stroke-width:1; stroke:grey; "  />
<polygon points="2,40 2,40 7,35 2,30 2,30 2,40 " style="fill:white; stroke-width:1; stroke:black; " description="&lt;b&gt;ctg12_126&lt;/b&gt;&lt;br&gt;ctg12 126&lt;br&gt;Location: 129861 - 130188" locus_tag="ctg12_126" class="clusterblast-orf" id="dummy-1_q0_0_all"  />
<polygon points="8,40 10,35 8,30 8,40 " style="fill:white; stroke-width:1; stroke:black; " description="&lt;b&gt;ctg12_127&lt;/b&gt;&lt;br&gt;ctg12 127&lt;br&gt;Location: 130299 - 130455" locus_tag="ctg12_127" class="clusterblast-orf" id="dummy-1_q1_0_all"  />
<polygon points="10,35 15,30 20,30 20,40 15,40 10,35 " style="fill:white; stroke-width:1; stroke:black; " description="&lt;b&gt;ctg12_128&lt;/b&gt;&lt;br&gt;ctg12 128&lt;br&gt;Location: 130505 - 131291" locus_tag="ctg12_128" class="clusterblast-orf" id="dummy-1_q2_0_all"  />
<polygon points="21,35 26,30 26,30 26,40 26,40 21,35 " style="fill:white; stroke-width:1; stroke:black; " description="&lt;b&gt;ctg12_129&lt;/b&gt;&lt;br&gt;ctg12 129&lt;br&gt;Location: 131346 - 131772" locus_tag="ctg12_129" class="clusterblast-orf" id="dummy-1_q3_0_all"  />
<polygon points="30,35 34,30 34,40 30,35 " style="fill:white; stroke-width:1; stroke:black; " description="&lt;b&gt;ctg12_130&lt;/b&gt;&lt;br&gt;ctg12 130&lt;br&gt;Location: 132055 - 132400" locus_tag="ctg12_130" class="clusterblast-orf" id="dummy-1_q4_0_all"  />
<polygon points="36,40 65,40 70,35 65,30 36,30 36,40 " style="fill:white; stroke-width:1; stroke:black; " description="&lt;b&gt;ctg12_131&lt;/b&gt;&lt;br&gt;ctg12 131&lt;br&gt;Location: 132585 - 135231" locus_tag="ctg12_131" class="clusterblast-orf" id="dummy-1_q5_0_all"  />
<polygon points="73,40 76,40 81,35 76,30 73,30 73,40 " style="fill:white; stroke-width:1; stroke:black; " description="&lt;b&gt;ctg12_132&lt;/b&gt;&lt;br&gt;ctg12 132&lt;br&gt;Location: 135526 - 136174" locus_tag="ctg12_132" class="clusterblast-orf" id="dummy-1_q6_0_all"  />
<polygon points="82,40 86,40 91,35 86,30 82,30 82,40 " style="fill:white; stroke-width:1; stroke:black; " description="&lt;b&gt;ctg12_133&lt;/b&gt;&lt;br&gt;ctg12 133&lt;br&gt;Location: 136264 - 136951" locus_tag="ctg12_133" class="clusterblast-orf" id="dummy-1_q7_0_all"  />
<polygon points="93,40 97,35 93,30 93,40 " style="fill:white; stroke-width:1; stroke:black; " description="&lt;b&gt;ctg12_134&lt;/b&gt;&lt;br&gt;ctg12 134&lt;br&gt;Location: 137111 - 137414" locus_tag="ctg12_134" class="clusterblast-orf" id="dummy-1_q8_0_all"  />
<polygon points="97,40 103,40 108,35 103,30 97,30 97,40 " style="fill:white; stroke-width:1; stroke:black; " description="&lt;b&gt;ctg12_135&lt;/b&gt;&lt;br&gt;ctg12 135&lt;br&gt;Location: 137413 - 138274" locus_tag="ctg12_135" class="clusterblast-orf" id="dummy-1_q9_0_all"  />
<polygon points="108,40 113,40 118,35 113,30 108,30 108,40 " style="fill:white; stroke-width:1; stroke:black; " description="&lt;b&gt;ctg12_136&lt;/b&gt;&lt;br&gt;ctg12 136&lt;br&gt;Location: 138301 - 139129" locus_tag="ctg12_136" class="clusterblast-orf" id="dummy-1_q10_0_all"  />
<polygon points="118,40 122,40 127,35 122,30 118,30 118,40 " style="fill:white; stroke-width:1; stroke:black; " description="&lt;b&gt;ctg12_137&lt;/b&gt;&lt;br&gt;ctg12 137&lt;br&gt;Location: 139132 - 139831" locus_tag="ctg12_137" class="clusterblast-orf" id="dummy-1_q11_0_all"  />
<polygon points="127,35 132,30 135,30 135,40 132,40 127,35 " style="fill:white; stroke-width:1; stroke:black; " description="&lt;b&gt;ctg12_138&lt;/b&gt;&lt;br&gt;ctg12 138&lt;br&gt;Location: 139834 - 140455" locus_tag="ctg12_138" class="clusterblast-orf" id="dummy-1_q12_0_all"  />
<polygon points="136,40 141,40 146,35 141,30 136,30 136,40 " style="fill:white; stroke-width:1; stroke:black; " description="&lt;b&gt;ctg12_139&lt;/b&gt;&lt;br&gt;ctg12 139&lt;br&gt;Location: 140551 - 141334" locus_tag="ctg12_139" class="clusterblast-orf" id="dummy-1_q13_0_all"  />
<polygon points="160,40 168,40 173,35 168,30 160,30 160,40 " style="fill:#d81515; stroke-width:1; stroke:black; " description="&lt;b&gt;ctg12_140&lt;/b&gt;&lt;br&gt;ctg12 140&lt;br&gt;Location: 142450 - 143512" locus_tag="ctg12_140" class="clusterblast-orf" id="dummy-1_q14_0_all"  />
<polygon points="173,40 215,40 220,35 215,30 173,30 173,40 " style="fill:#77d815; stroke-width:1; stroke:black; " description="&lt;b&gt;ctg12_141&lt;/b&gt;&lt;br&gt;ctg12 141&lt;br&gt;Location: 143515 - 147277" locus_tag="ctg12_141" class="clusterblast-orf" id="dummy-1_q15_0_all"  />
<polygon points="220,40 227,40 232,35 227,30 220,30 220,40 " style="fill:#77d815; stroke-width:1; stroke:black; " description="&lt;b&gt;ctg12_142&lt;/b&gt;&lt;br&gt;ctg12 142&lt;br&gt;Location: 147276 - 148275" locus_tag="ctg12_142" class="clusterblast-orf" id="dummy-1_q16_0_all"  />
<polygon points="234,40 236,40 241,35 236,30 234,30 234,40 " style="fill:#15d8d8; stroke-width:1; stroke:black; " description="&lt;b&gt;ctg12_143&lt;/b&gt;&lt;br&gt;ctg12 143&lt;br&gt;Location: 148367 - 148940" locus_tag="ctg12_143" class="clusterblast-orf" id="dummy-1_q17_0_all"  />
<polygon points="243,40 400,40 405,35 400,30 243,30 243,40 " style="fill:#7715d8; stroke-width:1; stroke:black; " description="&lt;b&gt;ctg12_144&lt;/b&gt;&lt;br&gt;ctg12 144&lt;br&gt;Location: 149149 - 162061" locus_tag="ctg12_144" class="clusterblast-orf" id="dummy-1_q18_0_all"  />
<polygon points="405,40 541,40 546,35 541,30 405,30 405,40 " style="fill:#7715d8; stroke-width:1; stroke:black; " description="&lt;b&gt;ctg12_145&lt;/b&gt;&lt;br&gt;ctg12 145&lt;br&gt;Location: 162057 - 173394" locus_tag="ctg12_145" class="clusterblast-orf" id="dummy-1_q19_0_all"  />
<polygon points="546,40 555,40 560,35 555,30 546,30 546,40 " style="fill:#d85015; stroke-width:1; stroke:black; " description="&lt;b&gt;ctg12_146&lt;/b&gt;&lt;br&gt;ctg12 146&lt;br&gt;Location: 173390 - 174533" locus_tag="ctg12_146" class="clusterblast-orf" id="dummy-1_q20_0_all"  />
<polygon points="560,40 580,40 585,35 580,30 560,30 560,40 " style="fill:#3cd815; stroke-width:1; stroke:black; " description="&lt;b&gt;ctg12_147&lt;/b&gt;&lt;br&gt;ctg12 147&lt;br&gt;Location: 174536 - 176495" locus_tag="ctg12_147" class="clusterblast-orf" id="dummy-1_q21_0_all"  />
<polygon points="586,35 591,30 595,30 595,40 591,40 586,35 " style="fill:#159ed8; stroke-width:1; stroke:black; " description="&lt;b&gt;ctg12_148&lt;/b&gt;&lt;br&gt;ctg12 148&lt;br&gt;Location: 176622 - 177300" locus_tag="ctg12_148" class="clusterblast-orf" id="dummy-1_q22_0_all"  />
<polygon points="598,35 603,30 613,30 613,40 603,40 598,35 " style="fill:#b115d8; stroke-width:1; stroke:black; " description="&lt;b&gt;ctg12_149&lt;/b&gt;&lt;br&gt;ctg12 149&lt;br&gt;Location: 177532 - 178777" locus_tag="ctg12_149" class="clusterblast-orf" id="dummy-1_q23_0_all"  />
<polygon points="615,40 616,40 621,35 616,30 615,30 615,40 " style="fill:#d88a15; stroke-width:1; stroke:black; " description="&lt;b&gt;ctg12_150&lt;/b&gt;&lt;br&gt;ctg12 150&lt;br&gt;Location: 178900 - 179371" locus_tag="ctg12_150" class="clusterblast-orf" id="dummy-1_q24_0_all"  />
<polygon points="622,35 627,30 631,30 631,40 627,40 622,35 " style="fill:#15d829; stroke-width:1; stroke:black; " description="&lt;b&gt;ctg12_151&lt;/b&gt;&lt;br&gt;ctg12 151&lt;br&gt;Location: 179449 - 180220" locus_tag="ctg12_151" class="clusterblast-orf" id="dummy-1_q25_0_all"  />
<polygon points="633,40 642,40 647,35 642,30 633,30 633,40 " style="fill:#1563d8; stroke-width:1; stroke:black; " description="&lt;b&gt;ctg12_152&lt;/b&gt;&lt;br&gt;ctg12 152&lt;br&gt;Location: 180318 - 181449" locus_tag="ctg12_152" class="clusterblast-orf" id="dummy-1_q26_0_all"  />
<polygon points="647,35 652,30 673,30 673,40 652,40 647,35 " style="fill:#d815c5; stroke-width:1; stroke:black; " description="&lt;b&gt;ctg12_153&lt;/b&gt;&lt;br&gt;ctg12 153&lt;br&gt;Location: 181438 - 183580" locus_tag="ctg12_153" class="clusterblast-orf" id="dummy-1_q27_0_all"  />
<polygon points="675,35 680,30 686,30 686,40 680,40 675,35 " style="fill:#d8c515; stroke-width:1; stroke:black; " description="&lt;b&gt;ctg12_154&lt;/b&gt;&lt;br&gt;ctg12 154&lt;br&gt;Location: 183685 - 184582" locus_tag="ctg12_154" class="clusterblast-orf" id="dummy-1_q28_0_all"  />
<polygon points="688,40 700,40 705,35 700,30 688,30 688,40 " style="fill:#15d863; stroke-width:1; stroke:black; " description="&lt;b&gt;ctg12_155&lt;/b&gt;&lt;br&gt;ctg12 155&lt;br&gt;Location: 184720 - 186079" locus_tag="ctg12_155" class="clusterblast-orf" id="dummy-1_q29_0_all"  />
<polygon points="705,40 713,40 718,35 713,30 705,30 705,40 " style="fill:#1529d8; stroke-width:1; stroke:black; " description="&lt;b&gt;ctg12_156&lt;/b&gt;&lt;br&gt;ctg12 156&lt;br&gt;Location: 186101 - 187190" locus_tag="ctg12_156" class="clusterblast-orf" id="dummy-1_q30_0_all"  />
<polygon points="718,40 730,40 735,35 730,30 718,30 718,40 " style="fill:#d8158a; stroke-width:1; stroke:black; " description="&lt;b&gt;ctg12_157&lt;/b&gt;&lt;br&gt;ctg12 157&lt;br&gt;Location: 187186 - 188482" locus_tag="ctg12_157" class="clusterblast-orf" id="dummy-1_q31_0_all"  />
<polygon points="736,35 741,30 747,30 747,40 741,40 736,35 " style="fill:#b1d815; stroke-width:1; stroke:black; " description="&lt;b&gt;ctg12_158&lt;/b&gt;&lt;br&gt;ctg12 158&lt;br&gt;Location: 188600 - 189494" locus_tag="ctg12_158" class="clusterblast-orf" id="dummy-1_q32_0_all"  />
<polygon points="749,40 756,40 761,35 756,30 749,30 749,40 " style="fill:#15d89e; stroke-width:1; stroke:black; " description="&lt;b&gt;ctg12_159&lt;/b&gt;&lt;br&gt;ctg12 159&lt;br&gt;Location: 189607 - 190612" locus_tag="ctg12_159" class="clusterblast-orf" id="dummy-1_q33_0_all"  />
<polygon points="761,40 762,40 767,35 762,30 761,30 761,40 " style="fill:#3c15d8; stroke-width:1; stroke:black; " description="&lt;b&gt;ctg12_160&lt;/b&gt;&lt;br&gt;ctg12 160&lt;br&gt;Location: 190627 - 191089" locus_tag="ctg12_160" class="clusterblast-orf" id="dummy-1_q34_0_all"  />
<polygon points="767,40 771,35 767,30 767,40 " style="fill:#3c15d8; stroke-width:1; stroke:black; " description="&lt;b&gt;ctg12_161&lt;/b&gt;&lt;br&gt;ctg12 161&lt;br&gt;Location: 191116 - 191425" locus_tag="ctg12_161" class="clusterblast-orf" id="dummy-1_q35_0_all"  />
<polygon points="772,40 772,40 777,35 772,30 772,30 772,40 " style="fill:#d81550; stroke-width:1; stroke:black; " description="&lt;b&gt;ctg12_162&lt;/b&gt;&lt;br&gt;ctg12 162&lt;br&gt;Location: 191452 - 191863" locus_tag="ctg12_162" class="clusterblast-orf" id="dummy-1_q36_0_all"  />
</g>
<g label="NZ_CP015600" description="NZ_CP015600 (2619322-2681778): Pseudomonas antarctica strain PAMC 27494 chrom... (73% of genes show similarity), NRPS" class="clusterblast-cluster"  >
<text x="5" y="70" class="clusterblast-acc"  >
<a xlink:href="https://antismash-db.secondarymetabolites.org/area.html?record=NZ_CP015600&amp;start=2619322&amp;end=2681778" target="_blank">NZ_CP015600 (2619322-2681778)</a>: Pseudomonas antarctica strain PAMC 27494 chrom... (73% of genes show similarity), NRPS</text>
<line x1="10" y1="85" x2="778.0" y2="85" style="stroke-width:1; stroke:grey; "  />
</g>
<g id="a1_000"  >
<polygon points="0,85 5,80 46,80 46,90 5,90 0,85 " style="fill:white; stroke-width:1; stroke:black; " description="&lt;b&gt;A7J50_RS12135&lt;/b&gt;&lt;br&gt;methionine synthase&lt;br&gt;Location: 2619323 - 2623033" locus_tag="A7J50_RS12135" class="clusterblast-orf" id="dummy-1_h1_1_0"  />
</g>
<g id="a1_001"  >
<polygon points="48,90 72,90 77,85 72,80 48,80 48,90 " style="fill:white; stroke-width:1; stroke:black; " description="&lt;b&gt;A7J50_RS12140&lt;/b&gt;&lt;br&gt;fatty acid cis/trans isomerase&lt;br&gt;Location: 2623198 - 2625492" locus_tag="A7J50_RS12140" class="clusterblast-orf" id="dummy-1_h1_1_1"  />
</g>
<g id="a1_002"  >
<polygon points="90,90 92,90 97,85 92,80 90,80 90,90 " style="fill:white; stroke-width:1; stroke:black; " description="&lt;b&gt;A7J50_RS12150&lt;/b&gt;&lt;br&gt;Fe-S biogenesis protein NfuA&lt;br&gt;Location: 2626565 - 2627149" locus_tag="A7J50_RS12150" class="clusterblast-orf" id="dummy-1_h1_1_2"  />
</g>
<g id="a1_003"  >
<polygon points="100,85 105,80 109,80 109,90 105,90 100,85 " style="fill:white; stroke-width:1; stroke:black; " description="&lt;b&gt;A7J50_RS12155&lt;/b&gt;&lt;br&gt;precorrin-4 C(11)-methyltransferase&lt;br&gt;Location: 2627351 - 2628097" locus_tag="A7J50_RS12155" class="clusterblast-orf" id="dummy-1_h1_1_3"  />
</g>
<g id="a1_004"  >
<polygon points="110,85 115,80 115,80 115,90 115,90 110,85 " style="fill:white; stroke-width:1; stroke:black; " description="&lt;b&gt;A7J50_RS12160&lt;/b&gt;&lt;br&gt;cobalamin biosynthesis protein&lt;br&gt;Location: 2628168 - 2628560" locus_tag="A7J50_RS12160" class="clusterblast-orf" id="dummy-1_h1_1_4"  />
</g>
<g id="a1_005"  >
<polygon points="115,85 120,80 124,80 124,90 120,90 115,85 " style="fill:white; stroke-width:1; stroke:black; " description="&lt;b&gt;A7J50_RS12165&lt;/b&gt;&lt;br&gt;CbtA family protein&lt;br&gt;Location: 2628557 - 2629261" locus_tag="A7J50_RS12165" class="clusterblast-orf" id="dummy-1_h1_1_5"  />
</g>
<g id="a1_006"  >
<polygon points="124,85 126,80 126,90 124,85 " style="fill:white; stroke-width:1; stroke:black; " description="&lt;b&gt;A7J50_RS12170&lt;/b&gt;&lt;br&gt;CbtB-domain containing protein&lt;br&gt;Location: 2629273 - 2629461" locus_tag="A7J50_RS12170" class="clusterblast-orf" id="dummy-1_h1_1_6"  />
</g>
<g id="a1_007"  >
<polygon points="143,90 152,90 157,85 152,80 143,80 143,90 " style="fill:#d81515; stroke-width:1; stroke:black; " description="&lt;b&gt;A7J50_RS12175&lt;/b&gt;&lt;br&gt;cobalamin biosynthesis protein CobW&lt;br&gt;Location: 2630844 - 2631905&lt;br&gt;&lt;br&gt;&lt;b&gt;BlastP hit with ctg12_140&lt;/b&gt;&lt;br&gt;Percentage identity: 100&lt;br&gt;Percentage coverage: 100&lt;br&gt;BLAST bit score: 655&lt;br&gt;E-value: 2.52e-238" locus_tag="A7J50_RS12175" class="clusterblast-orf" id="dummy-1_h1_1_7"  />
</g>
<g id="a1_008"  >
<polygon points="157,90 199,90 204,85 199,80 157,80 157,90 " style="fill:#77d815; stroke-width:1; stroke:black; " description="&lt;b&gt;A7J50_RS12180&lt;/b&gt;&lt;br&gt;cobaltochelatase subunit CobN&lt;br&gt;Location: 2631909 - 2635670&lt;br&gt;&lt;br&gt;&lt;b&gt;BlastP hit with ctg12_141&lt;/b&gt;&lt;br&gt;Percentage identity: 100&lt;br&gt;Percentage coverage: 100&lt;br&gt;BLAST bit score: 2520&lt;br&gt;E-value: 0.0" locus_tag="A7J50_RS12180" class="clusterblast-orf" id="dummy-1_h1_1_8"  />
</g>
<g id="a1_009"  >
<polygon points="204,90 211,90 216,85 211,80 204,80 204,90 " style="fill:#77d815; stroke-width:1; stroke:black; " description="&lt;b&gt;A7J50_RS12185&lt;/b&gt;&lt;br&gt;AAA domain-containing protein&lt;br&gt;Location: 2635670 - 2636668&lt;br&gt;&lt;br&gt;&lt;b&gt;BlastP hit with ctg12_142&lt;/b&gt;&lt;br&gt;Percentage identity: 100&lt;br&gt;Percentage coverage: 100&lt;br&gt;BLAST bit score: 651&lt;br&gt;E-value: 1.16e-237" locus_tag="A7J50_RS12185" class="clusterblast-orf" id="dummy-1_h1_1_9"  />
</g>
<g id="a1_0010"  >
<polygon points="217,90 219,90 224,85 219,80 217,80 217,90 " style="fill:#15d8d8; stroke-width:1; stroke:black; " description="&lt;b&gt;A7J50_RS12190&lt;/b&gt;&lt;br&gt;VWA domain-containing protein&lt;br&gt;Location: 2636722 - 2637333&lt;br&gt;&lt;br&gt;&lt;b&gt;BlastP hit with ctg12_143&lt;/b&gt;&lt;br&gt;Percentage identity: 99&lt;br&gt;Percentage coverage: 100&lt;br&gt;BLAST bit score: 370&lt;br&gt;E-value: 8.91e-131" locus_tag="A7J50_RS12190" class="clusterblast-orf" id="dummy-1_h1_1_10"  />
</g>
<g id="a1_0011"  >
<polygon points="227,90 383,90 388,85 383,80 227,80 227,90 " style="fill:#7715d8; stroke-width:1; stroke:black; " description="&lt;b&gt;A7J50_RS12195&lt;/b&gt;&lt;br&gt;non-ribosomal peptide synthetase&lt;br&gt;Location: 2637543 - 2650454&lt;br&gt;&lt;br&gt;&lt;b&gt;BlastP hit with ctg12_144&lt;/b&gt;&lt;br&gt;Percentage identity: 100&lt;br&gt;Percentage coverage: 100&lt;br&gt;BLAST bit score: 8422&lt;br&gt;E-value: 0.0&lt;br&gt;&lt;br&gt;&lt;b&gt;BlastP hit with ctg12_145&lt;/b&gt;&lt;br&gt;Percentage identity: 61&lt;br&gt;Percentage coverage: 57&lt;br&gt;BLAST bit score: 2412&lt;br&gt;E-value: 0.0" locus_tag="A7J50_RS12195" class="clusterblast-orf" id="dummy-1_h1_1_11"  />
</g>
<g id="a1_0012"  >
<polygon points="388,90 525,90 530,85 525,80 388,80 388,90 " style="fill:#7715d8; stroke-width:1; stroke:black; " description="&lt;b&gt;A7J50_RS12200&lt;/b&gt;&lt;br&gt;non-ribosomal peptide synthetase&lt;br&gt;Location: 2650451 - 2661787&lt;br&gt;&lt;br&gt;&lt;b&gt;BlastP hit with ctg12_144&lt;/b&gt;&lt;br&gt;Percentage identity: 61&lt;br&gt;Percentage coverage: 50&lt;br&gt;BLAST bit score: 2419&lt;br&gt;E-value: 0.0&lt;br&gt;&lt;br&gt;&lt;b&gt;BlastP hit with ctg12_145&lt;/b&gt;&lt;br&gt;Percentage identity: 99&lt;br&gt;Percentage coverage: 100&lt;br&gt;BLAST bit score: 7409&lt;br&gt;E-value: 0.0" locus_tag="A7J50_RS12200" class="clusterblast-orf" id="dummy-1_h1_1_12"  />
</g>
<g id="a1_0013"  >
<polygon points="530,90 539,90 544,85 539,80 530,80 530,90 " style="fill:#d85015; stroke-width:1; stroke:black; " description="&lt;b&gt;A7J50_RS12205&lt;/b&gt;&lt;br&gt;macrolide transporter subunit MacA&lt;br&gt;Location: 2661805 - 2662926&lt;br&gt;&lt;br&gt;&lt;b&gt;BlastP hit with ctg12_146&lt;/b&gt;&lt;br&gt;Percentage identity: 100&lt;br&gt;Percentage coverage: 98&lt;br&gt;BLAST bit score: 687&lt;br&gt;E-value: 2.49e-250" locus_tag="A7J50_RS12205" class="clusterblast-orf" id="dummy-1_h1_1_13"  />
</g>
<g id="a1_0014"  >
<polygon points="544,90 564,90 569,85 564,80 544,80 544,90 " style="fill:#3cd815; stroke-width:1; stroke:black; " description="&lt;b&gt;A7J50_RS12210&lt;/b&gt;&lt;br&gt;MacB family efflux pump subunit&lt;br&gt;Location: 2662930 - 2664888&lt;br&gt;&lt;br&gt;&lt;b&gt;BlastP hit with ctg12_147&lt;/b&gt;&lt;br&gt;Percentage identity: 100&lt;br&gt;Percentage coverage: 100&lt;br&gt;BLAST bit score: 1236&lt;br&gt;E-value: 0.0" locus_tag="A7J50_RS12210" class="clusterblast-orf" id="dummy-1_h1_1_14"  />
</g>
<g id="a1_0015"  >
<polygon points="570,85 575,80 579,80 579,90 575,90 570,85 " style="fill:#159ed8; stroke-width:1; stroke:black; " description="&lt;b&gt;A7J50_RS12215&lt;/b&gt;&lt;br&gt;helix-turn-helix transcriptional regulator&lt;br&gt;Location: 2665016 - 2665705&lt;br&gt;&lt;br&gt;&lt;b&gt;BlastP hit with ctg12_148&lt;/b&gt;&lt;br&gt;Percentage identity: 100&lt;br&gt;Percentage coverage: 100&lt;br&gt;BLAST bit score: 433&lt;br&gt;E-value: 9.33e-155" locus_tag="A7J50_RS12215" class="clusterblast-orf" id="dummy-1_h1_1_15"  />
</g>
<g id="a1_0016"  >
<polygon points="582,85 587,80 597,80 597,90 587,90 582,85 " style="fill:#b115d8; stroke-width:1; stroke:black; " description="&lt;b&gt;A7J50_RS12220&lt;/b&gt;&lt;br&gt;methionine gamma-lyase&lt;br&gt;Location: 2665926 - 2667170&lt;br&gt;&lt;br&gt;&lt;b&gt;BlastP hit with ctg12_149&lt;/b&gt;&lt;br&gt;Percentage identity: 100&lt;br&gt;Percentage coverage: 100&lt;br&gt;BLAST bit score: 824&lt;br&gt;E-value: 2.54e-303" locus_tag="A7J50_RS12220" class="clusterblast-orf" id="dummy-1_h1_1_16"  />
</g>
<g id="a1_0017"  >
<polygon points="599,90 599,90 604,85 599,80 599,80 599,90 " style="fill:#d88a15; stroke-width:1; stroke:black; " description="&lt;b&gt;A7J50_RS12225&lt;/b&gt;&lt;br&gt;Lrp/AsnC family transcriptional regulator&lt;br&gt;Location: 2667294 - 2667764&lt;br&gt;&lt;br&gt;&lt;b&gt;BlastP hit with ctg12_150&lt;/b&gt;&lt;br&gt;Percentage identity: 100&lt;br&gt;Percentage coverage: 100&lt;br&gt;BLAST bit score: 308&lt;br&gt;E-value: 1.52e-107" locus_tag="A7J50_RS12225" class="clusterblast-orf" id="dummy-1_h1_1_17"  />
</g>
<g id="a1_0018"  >
<polygon points="605,85 610,80 615,80 615,90 610,90 605,85 " style="fill:#15d829; stroke-width:1; stroke:black; " description="&lt;b&gt;A7J50_RS12230&lt;/b&gt;&lt;br&gt;helix-turn-helix transcriptional regulator&lt;br&gt;Location: 2667843 - 2668613&lt;br&gt;&lt;br&gt;&lt;b&gt;BlastP hit with ctg12_151&lt;/b&gt;&lt;br&gt;Percentage identity: 99&lt;br&gt;Percentage coverage: 100&lt;br&gt;BLAST bit score: 518&lt;br&gt;E-value: 1.25e-187" locus_tag="A7J50_RS12230" class="clusterblast-orf" id="dummy-1_h1_1_18"  />
</g>
<g id="a1_0019"  >
<polygon points="616,90 625,90 630,85 625,80 616,80 616,90 " style="fill:#1563d8; stroke-width:1; stroke:black; " description="&lt;b&gt;A7J50_RS12235&lt;/b&gt;&lt;br&gt;MFS transporter&lt;br&gt;Location: 2668712 - 2669842&lt;br&gt;&lt;br&gt;&lt;b&gt;BlastP hit with ctg12_152&lt;/b&gt;&lt;br&gt;Percentage identity: 100&lt;br&gt;Percentage coverage: 100&lt;br&gt;BLAST bit score: 704&lt;br&gt;E-value: 6.65e-257" locus_tag="A7J50_RS12235" class="clusterblast-orf" id="dummy-1_h1_1_19"  />
</g>
<g id="a1_0020"  >
<polygon points="630,85 635,80 657,80 657,90 635,90 630,85 " style="fill:#d815c5; stroke-width:1; stroke:black; " description="&lt;b&gt;A7J50_RS12240&lt;/b&gt;&lt;br&gt;TonB-dependent siderophore receptor&lt;br&gt;Location: 2669832 - 2671973&lt;br&gt;&lt;br&gt;&lt;b&gt;BlastP hit with ctg12_153&lt;/b&gt;&lt;br&gt;Percentage identity: 100&lt;br&gt;Percentage coverage: 100&lt;br&gt;BLAST bit score: 1433&lt;br&gt;E-value: 0.0" locus_tag="A7J50_RS12240" class="clusterblast-orf" id="dummy-1_h1_1_20"  />
</g>
<g id="a1_0021"  >
<polygon points="658,85 663,80 670,80 670,90 663,90 658,85 " style="fill:#d8c515; stroke-width:1; stroke:black; " description="&lt;b&gt;A7J50_RS12245&lt;/b&gt;&lt;br&gt;helix-turn-helix domain-containing protein&lt;br&gt;Location: 2672079 - 2672975&lt;br&gt;&lt;br&gt;&lt;b&gt;BlastP hit with ctg12_154&lt;/b&gt;&lt;br&gt;Percentage identity: 100&lt;br&gt;Percentage coverage: 100&lt;br&gt;BLAST bit score: 605&lt;br&gt;E-value: 1.62e-220" locus_tag="A7J50_RS12245" class="clusterblast-orf" id="dummy-1_h1_1_21"  />
</g>
<g id="a1_0022"  >
<polygon points="671,90 683,90 688,85 683,80 671,80 671,90 " style="fill:#15d863; stroke-width:1; stroke:black; " description="&lt;b&gt;A7J50_RS12250&lt;/b&gt;&lt;br&gt;glutamine synthetase&lt;br&gt;Location: 2673114 - 2674472&lt;br&gt;&lt;br&gt;&lt;b&gt;BlastP hit with ctg12_155&lt;/b&gt;&lt;br&gt;Percentage identity: 100&lt;br&gt;Percentage coverage: 100&lt;br&gt;BLAST bit score: 921&lt;br&gt;E-value: 0.0" locus_tag="A7J50_RS12250" class="clusterblast-orf" id="dummy-1_h1_1_22"  />
</g>
<g id="a1_0023"  >
<polygon points="689,90 697,90 702,85 697,80 689,80 689,90 " style="fill:#1529d8; stroke-width:1; stroke:black; " description="&lt;b&gt;A7J50_RS12255&lt;/b&gt;&lt;br&gt;polyamine ABC transporter substrate-binding protein&lt;br&gt;Location: 2674495 - 2675583&lt;br&gt;&lt;br&gt;&lt;b&gt;BlastP hit with ctg12_156&lt;/b&gt;&lt;br&gt;Percentage identity: 100&lt;br&gt;Percentage coverage: 100&lt;br&gt;BLAST bit score: 725&lt;br&gt;E-value: 6.51e-266" locus_tag="A7J50_RS12255" class="clusterblast-orf" id="dummy-1_h1_1_23"  />
</g>
<g id="a1_0024"  >
<polygon points="702,90 713,90 718,85 713,80 702,80 702,90 " style="fill:#d8158a; stroke-width:1; stroke:black; " description="&lt;b&gt;A7J50_RS12260&lt;/b&gt;&lt;br&gt;FAD-binding oxidoreductase&lt;br&gt;Location: 2675580 - 2676875&lt;br&gt;&lt;br&gt;&lt;b&gt;BlastP hit with ctg12_157&lt;/b&gt;&lt;br&gt;Percentage identity: 100&lt;br&gt;Percentage coverage: 100&lt;br&gt;BLAST bit score: 870&lt;br&gt;E-value: 0.0" locus_tag="A7J50_RS12260" class="clusterblast-orf" id="dummy-1_h1_1_24"  />
</g>
<g id="a1_0025"  >
<polygon points="720,85 725,80 731,80 731,90 725,90 720,85 " style="fill:#b1d815; stroke-width:1; stroke:black; " description="&lt;b&gt;A7J50_RS12265&lt;/b&gt;&lt;br&gt;LysR family transcriptional regulator&lt;br&gt;Location: 2676994 - 2677887&lt;br&gt;&lt;br&gt;&lt;b&gt;BlastP hit with ctg12_158&lt;/b&gt;&lt;br&gt;Percentage identity: 100&lt;br&gt;Percentage coverage: 100&lt;br&gt;BLAST bit score: 591&lt;br&gt;E-value: 4.61e-215" locus_tag="A7J50_RS12265" class="clusterblast-orf" id="dummy-1_h1_1_25"  />
</g>
<g id="a1_0026"  >
<polygon points="732,90 740,90 745,85 740,80 732,80 732,90 " style="fill:#15d89e; stroke-width:1; stroke:black; " description="&lt;b&gt;A7J50_RS12270&lt;/b&gt;&lt;br&gt;aldo/keto reductase&lt;br&gt;Location: 2678001 - 2679005&lt;br&gt;&lt;br&gt;&lt;b&gt;BlastP hit with ctg12_159&lt;/b&gt;&lt;br&gt;Percentage identity: 99&lt;br&gt;Percentage coverage: 100&lt;br&gt;BLAST bit score: 649&lt;br&gt;E-value: 7.85e-237" locus_tag="A7J50_RS12270" class="clusterblast-orf" id="dummy-1_h1_1_26"  />
</g>
<g id="a1_0027"  >
<polygon points="745,90 750,90 755,85 750,80 745,80 745,90 " style="fill:#3c15d8; stroke-width:1; stroke:black; " description="&lt;b&gt;A7J50_RS12275&lt;/b&gt;&lt;br&gt;SDR family oxidoreductase&lt;br&gt;Location: 2679021 - 2679818&lt;br&gt;&lt;br&gt;&lt;b&gt;BlastP hit with ctg12_160&lt;/b&gt;&lt;br&gt;Percentage identity: 100&lt;br&gt;Percentage coverage: 100&lt;br&gt;BLAST bit score: 295&lt;br&gt;E-value: 8.59e-101&lt;br&gt;&lt;br&gt;&lt;b&gt;BlastP hit with ctg12_161&lt;/b&gt;&lt;br&gt;Percentage identity: 100&lt;br&gt;Percentage coverage: 100&lt;br&gt;BLAST bit score: 194&lt;br&gt;E-value: 3.31e-62" locus_tag="A7J50_RS12275" class="clusterblast-orf" id="dummy-1_h1_1_27"  />
</g>
<g id="a1_0028"  >
<polygon points="755,90 755,90 760,85 755,80 755,80 755,90 " style="fill:#d81550; stroke-width:1; stroke:black; " description="&lt;b&gt;A7J50_RS12280&lt;/b&gt;&lt;br&gt;SRPBCC family protein&lt;br&gt;Location: 2679846 - 2680256&lt;br&gt;&lt;br&gt;&lt;b&gt;BlastP hit with ctg12_162&lt;/b&gt;&lt;br&gt;Percentage identity: 100&lt;br&gt;Percentage coverage: 99&lt;br&gt;BLAST bit score: 261&lt;br&gt;E-value: 9.6e-90" locus_tag="A7J50_RS12280" class="clusterblast-orf" id="dummy-1_h1_1_28"  />
</g>
<g id="a1_0029"  >
<polygon points="762,85 767,80 780,80 780,90 767,90 762,85 " style="fill:white; stroke-width:1; stroke:black; " description="&lt;b&gt;A7J50_RS12285&lt;/b&gt;&lt;br&gt;HAMP domain-containing histidine kinase&lt;br&gt;Location: 2680384 - 2681778" locus_tag="A7J50_RS12285" class="clusterblast-orf" id="dummy-1_h1_1_29"  />
</g>
</svg>
