<svg xmlns="http://www.w3.org/2000/svg" xmlns:xlink="http://www.w3.org/1999/xlink" version="1.1" x="0" y="0" height="230" width="800" viewBox="0 0 800 230" preserveAspectRatio="none"  >
<g label="Query sequence" class="clusterblast-cluster"  >
<text x="5" y="20" class="clusterblast-acc"  >
Query sequence</text>
<line x1="10" y1="35" x2="778.0" y2="35" style="stroke-width:1; stroke:grey; "  />
<polygon points="0,40 23,40 28,35 23,30 0,30 0,40 " style="fill:white; stroke-width:1; stroke:black; " description="&lt;b&gt;ctg5_97&lt;/b&gt;&lt;br&gt;ctg5 97&lt;br&gt;Location: 127536 - 129000" locus_tag="ctg5_97" class="clusterblast-orf" id="dummy-1_q0_0_all"  />
<polygon points="28,35 33,30 36,30 36,40 33,40 28,35 " style="fill:white; stroke-width:1; stroke:black; " description="&lt;b&gt;ctg5_98&lt;/b&gt;&lt;br&gt;ctg5 98&lt;br&gt;Location: 129005 - 129407" locus_tag="ctg5_98" class="clusterblast-orf" id="dummy-1_q1_0_all"  />
<polygon points="36,35 41,30 42,30 42,40 41,40 36,35 " style="fill:white; stroke-width:1; stroke:black; " description="&lt;b&gt;ctg5_99&lt;/b&gt;&lt;br&gt;ctg5 99&lt;br&gt;Location: 129403 - 129700" locus_tag="ctg5_99" class="clusterblast-orf" id="dummy-1_q2_0_all"  />
<polygon points="47,40 50,40 55,35 50,30 47,30 47,40 " style="fill:white; stroke-width:1; stroke:black; " description="&lt;b&gt;ctg5_100&lt;/b&gt;&lt;br&gt;ctg5 100&lt;br&gt;Location: 129935 - 130370" locus_tag="ctg5_100" class="clusterblast-orf" id="dummy-1_q3_0_all"  />
<polygon points="58,35 62,30 62,40 58,35 " style="fill:white; stroke-width:1; stroke:black; " description="&lt;b&gt;ctg5_101&lt;/b&gt;&lt;br&gt;ctg5 101&lt;br&gt;Location: 130501 - 130729" locus_tag="ctg5_101" class="clusterblast-orf" id="dummy-1_q4_0_all"  />
<polygon points="72,35 77,30 87,30 87,40 77,40 72,35 " style="fill:white; stroke-width:1; stroke:black; " description="&lt;b&gt;ctg5_102&lt;/b&gt;&lt;br&gt;ctg5 102&lt;br&gt;Location: 131206 - 131977" locus_tag="ctg5_102" class="clusterblast-orf" id="dummy-1_q5_0_all"  />
<polygon points="95,40 102,40 107,35 102,30 95,30 95,40 " style="fill:white; stroke-width:1; stroke:black; " description="&lt;b&gt;ctg5_103&lt;/b&gt;&lt;br&gt;ctg5 103&lt;br&gt;Location: 132405 - 133035" locus_tag="ctg5_103" class="clusterblast-orf" id="dummy-1_q6_0_all"  />
<polygon points="107,40 118,40 123,35 118,30 107,30 107,40 " style="fill:white; stroke-width:1; stroke:black; " description="&lt;b&gt;ctg5_104&lt;/b&gt;&lt;br&gt;ctg5 104&lt;br&gt;Location: 133031 - 133823" locus_tag="ctg5_104" class="clusterblast-orf" id="dummy-1_q7_0_all"  />
<polygon points="122,40 123,40 128,35 123,30 122,30 122,40 " style="fill:#d81515; stroke-width:1; stroke:black; " description="&lt;b&gt;ctg5_105&lt;/b&gt;&lt;br&gt;ctg5 105&lt;br&gt;Location: 133800 - 134070" locus_tag="ctg5_105" class="clusterblast-orf" id="dummy-1_q8_0_all"  />
<polygon points="128,40 128,40 133,35 128,30 128,30 128,40 " style="fill:#3cd815; stroke-width:1; stroke:black; " description="&lt;b&gt;ctg5_106&lt;/b&gt;&lt;br&gt;ctg5 106&lt;br&gt;Location: 134079 - 134334" locus_tag="ctg5_106" class="clusterblast-orf" id="dummy-1_q9_0_all"  />
<polygon points="133,40 138,40 143,35 138,30 133,30 133,40 " style="fill:#1563d8; stroke-width:1; stroke:black; " description="&lt;b&gt;ctg5_107&lt;/b&gt;&lt;br&gt;ctg5 107&lt;br&gt;Location: 134330 - 134876" locus_tag="ctg5_107" class="clusterblast-orf" id="dummy-1_q10_0_all"  />
<polygon points="143,40 171,40 176,35 171,30 143,30 143,40 " style="fill:white; stroke-width:1; stroke:black; " description="&lt;b&gt;ctg5_108&lt;/b&gt;&lt;br&gt;ctg5 108&lt;br&gt;Location: 134872 - 136543" locus_tag="ctg5_108" class="clusterblast-orf" id="dummy-1_q11_0_all"  />
<polygon points="176,40 185,40 190,35 185,30 176,30 176,40 " style="fill:#b115d8; stroke-width:1; stroke:black; " description="&lt;b&gt;ctg5_109&lt;/b&gt;&lt;br&gt;ctg5 109&lt;br&gt;Location: 136535 - 137270" locus_tag="ctg5_109" class="clusterblast-orf" id="dummy-1_q12_0_all"  />
<polygon points="190,40 204,40 209,35 204,30 190,30 190,40 " style="fill:white; stroke-width:1; stroke:black; " description="&lt;b&gt;ctg5_110&lt;/b&gt;&lt;br&gt;ctg5 110&lt;br&gt;Location: 137266 - 138202" locus_tag="ctg5_110" class="clusterblast-orf" id="dummy-1_q13_0_all"  />
<polygon points="208,40 233,40 238,35 233,30 208,30 208,40 " style="fill:#d88a15; stroke-width:1; stroke:black; " description="&lt;b&gt;ctg5_111&lt;/b&gt;&lt;br&gt;ctg5 111&lt;br&gt;Location: 138185 - 139727" locus_tag="ctg5_111" class="clusterblast-orf" id="dummy-1_q14_0_all"  />
<polygon points="238,40 242,40 247,35 242,30 238,30 238,40 " style="fill:#15d863; stroke-width:1; stroke:black; " description="&lt;b&gt;ctg5_112&lt;/b&gt;&lt;br&gt;ctg5 112&lt;br&gt;Location: 139719 - 140145" locus_tag="ctg5_112" class="clusterblast-orf" id="dummy-1_q15_0_all"  />
<polygon points="246,40 255,40 260,35 255,30 246,30 246,40 " style="fill:white; stroke-width:1; stroke:black; " description="&lt;b&gt;ctg5_113&lt;/b&gt;&lt;br&gt;ctg5 113&lt;br&gt;Location: 140141 - 140825" locus_tag="ctg5_113" class="clusterblast-orf" id="dummy-1_q16_0_all"  />
<polygon points="260,40 300,40 305,35 300,30 260,30 260,40 " style="fill:white; stroke-width:1; stroke:black; " description="&lt;b&gt;ctg5_114&lt;/b&gt;&lt;br&gt;ctg5 114&lt;br&gt;Location: 140814 - 143127" locus_tag="ctg5_114" class="clusterblast-orf" id="dummy-1_q17_0_all"  />
<polygon points="306,40 325,40 330,35 325,30 306,30 306,40 " style="fill:#3c15d8; stroke-width:1; stroke:black; " description="&lt;b&gt;ctg5_115&lt;/b&gt;&lt;br&gt;ctg5 115&lt;br&gt;Location: 143160 - 144408" locus_tag="ctg5_115" class="clusterblast-orf" id="dummy-1_q18_0_all"  />
<polygon points="330,40 339,40 344,35 339,30 330,30 330,40 " style="fill:white; stroke-width:1; stroke:black; " description="&lt;b&gt;ctg5_116&lt;/b&gt;&lt;br&gt;ctg5 116&lt;br&gt;Location: 144404 - 145139" locus_tag="ctg5_116" class="clusterblast-orf" id="dummy-1_q19_0_all"  />
<polygon points="344,40 349,40 354,35 349,30 344,30 344,40 " style="fill:white; stroke-width:1; stroke:black; " description="&lt;b&gt;ctg5_117&lt;/b&gt;&lt;br&gt;ctg5 117&lt;br&gt;Location: 145135 - 145618" locus_tag="ctg5_117" class="clusterblast-orf" id="dummy-1_q20_0_all"  />
<polygon points="354,40 371,40 376,35 371,30 354,30 354,40 " style="fill:#d8158a; stroke-width:1; stroke:black; " description="&lt;b&gt;ctg5_118&lt;/b&gt;&lt;br&gt;ctg5 118&lt;br&gt;Location: 145614 - 146781" locus_tag="ctg5_118" class="clusterblast-orf" id="dummy-1_q21_0_all"  />
<polygon points="376,40 380,40 385,35 380,30 376,30 376,40 " style="fill:white; stroke-width:1; stroke:black; " description="&lt;b&gt;ctg5_119&lt;/b&gt;&lt;br&gt;ctg5 119&lt;br&gt;Location: 146777 - 147239" locus_tag="ctg5_119" class="clusterblast-orf" id="dummy-1_q22_0_all"  />
<polygon points="385,40 395,40 400,35 395,30 385,30 385,40 " style="fill:#b1d815; stroke-width:1; stroke:black; " description="&lt;b&gt;ctg5_120&lt;/b&gt;&lt;br&gt;ctg5 120&lt;br&gt;Location: 147235 - 147964" locus_tag="ctg5_120" class="clusterblast-orf" id="dummy-1_q23_0_all"  />
<polygon points="400,40 419,40 424,35 419,30 400,30 400,40 " style="fill:#15d8d8; stroke-width:1; stroke:black; " description="&lt;b&gt;ctg5_121&lt;/b&gt;&lt;br&gt;ctg5 121&lt;br&gt;Location: 147963 - 149190" locus_tag="ctg5_121" class="clusterblast-orf" id="dummy-1_q24_0_all"  />
<polygon points="424,40 428,40 433,35 428,30 424,30 424,40 " style="fill:white; stroke-width:1; stroke:black; " description="&lt;b&gt;ctg5_122&lt;/b&gt;&lt;br&gt;ctg5 122&lt;br&gt;Location: 149217 - 149667" locus_tag="ctg5_122" class="clusterblast-orf" id="dummy-1_q25_0_all"  />
<polygon points="437,35 442,30 445,30 445,40 442,40 437,35 " style="fill:white; stroke-width:1; stroke:black; " description="&lt;b&gt;ctg5_123&lt;/b&gt;&lt;br&gt;ctg5 123&lt;br&gt;Location: 149870 - 150257" locus_tag="ctg5_123" class="clusterblast-orf" id="dummy-1_q26_0_all"  />
<polygon points="446,35 451,30 464,30 464,40 451,40 446,35 " style="fill:white; stroke-width:1; stroke:black; " description="&lt;b&gt;ctg5_124&lt;/b&gt;&lt;br&gt;ctg5 124&lt;br&gt;Location: 150344 - 151238" locus_tag="ctg5_124" class="clusterblast-orf" id="dummy-1_q27_0_all"  />
<polygon points="466,40 486,40 491,35 486,30 466,30 466,40 " style="fill:white; stroke-width:1; stroke:black; " description="&lt;b&gt;ctg5_125&lt;/b&gt;&lt;br&gt;ctg5 125&lt;br&gt;Location: 151362 - 152637" locus_tag="ctg5_125" class="clusterblast-orf" id="dummy-1_q28_0_all"  />
<polygon points="495,35 500,30 516,30 516,40 500,40 495,35 " style="fill:white; stroke-width:1; stroke:black; " description="&lt;b&gt;ctg5_126&lt;/b&gt;&lt;br&gt;ctg5 126&lt;br&gt;Location: 152817 - 153885" locus_tag="ctg5_126" class="clusterblast-orf" id="dummy-1_q29_0_all"  />
<polygon points="521,35 526,30 548,30 548,40 526,40 521,35 " style="fill:white; stroke-width:1; stroke:black; " description="&lt;b&gt;ctg5_127&lt;/b&gt;&lt;br&gt;ctg5 127&lt;br&gt;Location: 154138 - 155557" locus_tag="ctg5_127" class="clusterblast-orf" id="dummy-1_q30_0_all"  />
<polygon points="551,35 556,30 638,30 638,40 556,40 551,35 " style="fill:white; stroke-width:1; stroke:black; " description="&lt;b&gt;ctg5_128&lt;/b&gt;&lt;br&gt;ctg5 128&lt;br&gt;Location: 155681 - 160127" locus_tag="ctg5_128" class="clusterblast-orf" id="dummy-1_q31_0_all"  />
<polygon points="645,35 650,30 675,30 675,40 650,40 645,35 " style="fill:white; stroke-width:1; stroke:black; " description="&lt;b&gt;ctg5_129&lt;/b&gt;&lt;br&gt;ctg5 129&lt;br&gt;Location: 160479 - 162048" locus_tag="ctg5_129" class="clusterblast-orf" id="dummy-1_q32_0_all"  />
<polygon points="676,35 681,30 697,30 697,40 681,40 676,35 " style="fill:white; stroke-width:1; stroke:black; " description="&lt;b&gt;ctg5_130&lt;/b&gt;&lt;br&gt;ctg5 130&lt;br&gt;Location: 162058 - 163159" locus_tag="ctg5_130" class="clusterblast-orf" id="dummy-1_q33_0_all"  />
<polygon points="700,35 705,30 709,30 709,40 705,40 700,35 " style="fill:white; stroke-width:1; stroke:black; " description="&lt;b&gt;ctg5_131&lt;/b&gt;&lt;br&gt;ctg5 131&lt;br&gt;Location: 163283 - 163775" locus_tag="ctg5_131" class="clusterblast-orf" id="dummy-1_q34_0_all"  />
<polygon points="710,35 715,30 737,30 737,40 715,40 710,35 " style="fill:white; stroke-width:1; stroke:black; " description="&lt;b&gt;ctg5_132&lt;/b&gt;&lt;br&gt;ctg5 132&lt;br&gt;Location: 163806 - 165192" locus_tag="ctg5_132" class="clusterblast-orf" id="dummy-1_q35_0_all"  />
<polygon points="737,35 742,30 756,30 756,40 742,40 737,35 " style="fill:white; stroke-width:1; stroke:black; " description="&lt;b&gt;ctg5_133&lt;/b&gt;&lt;br&gt;ctg5 133&lt;br&gt;Location: 165204 - 166176" locus_tag="ctg5_133" class="clusterblast-orf" id="dummy-1_q36_0_all"  />
<polygon points="756,35 761,30 767,30 767,40 761,40 756,35 " style="fill:white; stroke-width:1; stroke:black; " description="&lt;b&gt;ctg5_134&lt;/b&gt;&lt;br&gt;ctg5 134&lt;br&gt;Location: 166172 - 166724" locus_tag="ctg5_134" class="clusterblast-orf" id="dummy-1_q37_0_all"  />
<polygon points="767,35 772,30 780,30 780,40 772,40 767,35 " style="fill:white; stroke-width:1; stroke:black; " description="&lt;b&gt;ctg5_135&lt;/b&gt;&lt;br&gt;ctg5 135&lt;br&gt;Location: 166720 - 167377" locus_tag="ctg5_135" class="clusterblast-orf" id="dummy-1_q38_0_all"  />
</g>
<g label="BGC0000837" description="BGC0000837_c1: APE Vf (40% of genes show similarity), Other" class="clusterblast-cluster"  >
<text x="5" y="70" class="clusterblast-acc"  >
<a xlink:href="https://mibig.secondarymetabolites.org/go/BGC0000837/1" target="_blank">BGC0000837</a>: APE Vf                                                                           (40% of genes show similarity), Other</text>
<line x1="10" y1="85" x2="778.0" y2="85" style="stroke-width:1; stroke:grey; "  />
</g>
<g id="a1_000"  >
<polygon points="208,85 213,80 232,80 232,90 213,90 208,85 " style="fill:#3c15d8; stroke-width:1; stroke:black; " description="&lt;b&gt;VF_0841&lt;/b&gt;&lt;br&gt;dehydrogenase&lt;br&gt;Location: 1 - 1233&lt;br&gt;&lt;br&gt;&lt;b&gt;BlastP hit with ctg5_115&lt;/b&gt;&lt;br&gt;Percentage identity: 56&lt;br&gt;Percentage coverage: 97&lt;br&gt;BLAST bit score: 459&lt;br&gt;E-value: 1.16e-160" locus_tag="VF_0841" class="clusterblast-orf" id="dummy-1_h1_1_0"  />
</g>
<g id="a1_001"  >
<polygon points="234,85 239,80 255,80 255,90 239,90 234,85 " style="fill:white; stroke-width:1; stroke:black; " description="&lt;b&gt;VF_0842&lt;/b&gt;&lt;br&gt;putative O-methyltransferase&lt;br&gt;Location: 1333 - 2400" locus_tag="VF_0842" class="clusterblast-orf" id="dummy-1_h1_1_1"  />
</g>
<g id="a1_002"  >
<polygon points="257,85 262,80 268,80 268,90 262,90 257,85 " style="fill:white; stroke-width:1; stroke:black; " description="&lt;b&gt;VF_0843&lt;/b&gt;&lt;br&gt;lipoprotein, putative&lt;br&gt;Location: 2504 - 3079" locus_tag="VF_0843" class="clusterblast-orf" id="dummy-1_h1_1_2"  />
</g>
<g id="a1_003"  >
<polygon points="271,90 280,90 285,85 280,80 271,80 271,90 " style="fill:white; stroke-width:1; stroke:black; " description="&lt;b&gt;VF_0844&lt;/b&gt;&lt;br&gt;hypothetical protein&lt;br&gt;Location: 3209 - 3937" locus_tag="VF_0844" class="clusterblast-orf" id="dummy-1_h1_1_3"  />
</g>
<g id="a1_004"  >
<polygon points="285,90 296,90 301,85 296,80 285,80 285,90 " style="fill:white; stroke-width:1; stroke:black; " description="&lt;b&gt;VF_0845&lt;/b&gt;&lt;br&gt;1-acyl-sn-glycerol-3-phosphate acyltransferase&lt;br&gt;Location: 3942 - 4739" locus_tag="VF_0845" class="clusterblast-orf" id="dummy-1_h1_1_4"  />
</g>
<g id="a1_005"  >
<polygon points="300,90 301,90 306,85 301,80 300,80 300,90 " style="fill:#d81515; stroke-width:1; stroke:black; " description="&lt;b&gt;VF_0846&lt;/b&gt;&lt;br&gt;acyl carrier protein&lt;br&gt;Location: 4708 - 5004&lt;br&gt;&lt;br&gt;&lt;b&gt;BlastP hit with ctg5_105&lt;/b&gt;&lt;br&gt;Percentage identity: 65&lt;br&gt;Percentage coverage: 92&lt;br&gt;BLAST bit score: 105&lt;br&gt;E-value: 6.44e-31" locus_tag="VF_0846" class="clusterblast-orf" id="dummy-1_h1_1_5"  />
</g>
<g id="a1_006"  >
<polygon points="306,90 306,90 311,85 306,80 306,80 306,90 " style="fill:#3cd815; stroke-width:1; stroke:black; " description="&lt;b&gt;VF_0847&lt;/b&gt;&lt;br&gt;acyl carrier protein&lt;br&gt;Location: 5016 - 5273&lt;br&gt;&lt;br&gt;&lt;b&gt;BlastP hit with ctg5_106&lt;/b&gt;&lt;br&gt;Percentage identity: 53&lt;br&gt;Percentage coverage: 90&lt;br&gt;BLAST bit score: 83&lt;br&gt;E-value: 2.47e-22" locus_tag="VF_0847" class="clusterblast-orf" id="dummy-1_h1_1_6"  />
</g>
<g id="a1_007"  >
<polygon points="311,90 317,90 322,85 317,80 311,80 311,90 " style="fill:white; stroke-width:1; stroke:black; " description="&lt;b&gt;VF_0848&lt;/b&gt;&lt;br&gt;DNA gyrase subunit B&lt;br&gt;Location: 5273 - 5833" locus_tag="VF_0848" class="clusterblast-orf" id="dummy-1_h1_1_7"  />
</g>
<g id="a1_008"  >
<polygon points="321,90 344,90 349,85 344,80 321,80 321,90 " style="fill:white; stroke-width:1; stroke:black; " description="&lt;b&gt;VF_0849&lt;/b&gt;&lt;br&gt;AMP-(fatty)acid ligase&lt;br&gt;Location: 5794 - 7197" locus_tag="VF_0849" class="clusterblast-orf" id="dummy-1_h1_1_8"  />
</g>
<g id="a1_009"  >
<polygon points="349,90 352,90 357,85 352,80 349,80 349,90 " style="fill:white; stroke-width:1; stroke:black; " description="&lt;b&gt;VF_0850&lt;/b&gt;&lt;br&gt;AMP-(fatty)acid ligase&lt;br&gt;Location: 7211 - 7585" locus_tag="VF_0850" class="clusterblast-orf" id="dummy-1_h1_1_9"  />
</g>
<g id="a1_0010"  >
<polygon points="357,90 385,90 390,85 385,80 357,80 357,90 " style="fill:#b115d8; stroke-width:1; stroke:black; " description="&lt;b&gt;VF_0851&lt;/b&gt;&lt;br&gt;predicted acyltransferase&lt;br&gt;Location: 7588 - 9279&lt;br&gt;&lt;br&gt;&lt;b&gt;BlastP hit with ctg5_109&lt;/b&gt;&lt;br&gt;Percentage identity: 52&lt;br&gt;Percentage coverage: 98&lt;br&gt;BLAST bit score: 272&lt;br&gt;E-value: 2.37e-88" locus_tag="VF_0851" class="clusterblast-orf" id="dummy-1_h1_1_10"  />
</g>
<g id="a1_0011"  >
<polygon points="389,90 415,90 420,85 415,80 389,80 389,90 " style="fill:#d88a15; stroke-width:1; stroke:black; " description="&lt;b&gt;VF_0852&lt;/b&gt;&lt;br&gt;phenylalanine and histidine ammonia-lyase&lt;br&gt;Location: 9269 - 10804&lt;br&gt;&lt;br&gt;&lt;b&gt;BlastP hit with ctg5_111&lt;/b&gt;&lt;br&gt;Percentage identity: 63&lt;br&gt;Percentage coverage: 100&lt;br&gt;BLAST bit score: 615&lt;br&gt;E-value: 5.3e-219" locus_tag="VF_0852" class="clusterblast-orf" id="dummy-1_h1_1_11"  />
</g>
<g id="a1_0012"  >
<polygon points="420,90 423,90 428,85 423,80 420,80 420,90 " style="fill:white; stroke-width:1; stroke:black; " description="&lt;b&gt;VF_0853&lt;/b&gt;&lt;br&gt;esterase&lt;br&gt;Location: 10816 - 11262" locus_tag="VF_0853" class="clusterblast-orf" id="dummy-1_h1_1_12"  />
</g>
<g id="a1_0013"  >
<polygon points="428,90 435,90 440,85 435,80 428,80 428,90 " style="fill:white; stroke-width:1; stroke:black; " description="&lt;b&gt;VF_0854&lt;/b&gt;&lt;br&gt;hypothetical protein&lt;br&gt;Location: 11255 - 11875" locus_tag="VF_0854" class="clusterblast-orf" id="dummy-1_h1_1_13"  />
</g>
<g id="a1_0014"  >
<polygon points="451,90 483,90 488,85 483,80 451,80 451,90 " style="fill:white; stroke-width:1; stroke:black; " description="&lt;b&gt;VF_0855&lt;/b&gt;&lt;br&gt;transporter&lt;br&gt;Location: 12397 - 14292" locus_tag="VF_0855" class="clusterblast-orf" id="dummy-1_h1_1_14"  />
</g>
<g id="a1_0015"  >
<polygon points="488,90 495,90 500,85 495,80 488,80 488,90 " style="fill:white; stroke-width:1; stroke:black; " description="&lt;b&gt;VF_0856&lt;/b&gt;&lt;br&gt;phospho-N-acetylmuramoyl-pentapeptide- transferase&lt;br&gt;Location: 14282 - 14908" locus_tag="VF_0856" class="clusterblast-orf" id="dummy-1_h1_1_15"  />
</g>
<g id="a1_0016"  >
<polygon points="500,90 518,90 523,85 518,80 500,80 500,90 " style="fill:#d8158a; stroke-width:1; stroke:black; " description="&lt;b&gt;VF_0857&lt;/b&gt;&lt;br&gt;3-oxoacyl-(acyl carrier protein) synthase&lt;br&gt;Location: 14914 - 16101&lt;br&gt;&lt;br&gt;&lt;b&gt;BlastP hit with ctg5_118&lt;/b&gt;&lt;br&gt;Percentage identity: 51&lt;br&gt;Percentage coverage: 100&lt;br&gt;BLAST bit score: 367&lt;br&gt;E-value: 4.24e-125" locus_tag="VF_0857" class="clusterblast-orf" id="dummy-1_h1_1_16"  />
</g>
<g id="a1_0017"  >
<polygon points="523,90 527,90 532,85 527,80 523,80 523,90 " style="fill:white; stroke-width:1; stroke:black; " description="&lt;b&gt;VF_0858&lt;/b&gt;&lt;br&gt;predicted 3-hydroxylacyl-(acyl carrier protein) dehydratase&lt;br&gt;Location: 16092 - 16562" locus_tag="VF_0858" class="clusterblast-orf" id="dummy-1_h1_1_17"  />
</g>
<g id="a1_0018"  >
<polygon points="533,90 542,90 547,85 542,80 533,80 533,90 " style="fill:#b1d815; stroke-width:1; stroke:black; " description="&lt;b&gt;VF_0859&lt;/b&gt;&lt;br&gt;3-oxoacyl-(acyl-carrier-protein) reductase, putative&lt;br&gt;Location: 16582 - 17307&lt;br&gt;&lt;br&gt;&lt;b&gt;BlastP hit with ctg5_120&lt;/b&gt;&lt;br&gt;Percentage identity: 61&lt;br&gt;Percentage coverage: 100&lt;br&gt;BLAST bit score: 305&lt;br&gt;E-value: 2.8e-105" locus_tag="VF_0859" class="clusterblast-orf" id="dummy-1_h1_1_18"  />
</g>
<g id="a1_0019"  >
<polygon points="547,90 566,90 571,85 566,80 547,80 547,90 " style="fill:#15d8d8; stroke-width:1; stroke:black; " description="&lt;b&gt;VF_0860&lt;/b&gt;&lt;br&gt;3-oxoacyl-(acyl carrier protein) synthase&lt;br&gt;Location: 17304 - 18539&lt;br&gt;&lt;br&gt;&lt;b&gt;BlastP hit with ctg5_121&lt;/b&gt;&lt;br&gt;Percentage identity: 61&lt;br&gt;Percentage coverage: 100&lt;br&gt;BLAST bit score: 520&lt;br&gt;E-value: 4.68e-185" locus_tag="VF_0860" class="clusterblast-orf" id="dummy-1_h1_1_19"  />
</g>
</svg>
