<svg xmlns="http://www.w3.org/2000/svg" xmlns:xlink="http://www.w3.org/1999/xlink" version="1.1" x="0" y="0" height="50" width="800" viewBox="0 0 800 50" preserveAspectRatio="none"  >
<g label="Query sequence" class="clusterblast-cluster"  >
<text x="5" y="20" class="clusterblast-acc"  >
Query sequence</text>
<line x1="10" y1="35" x2="778.0" y2="35" style="stroke-width:1; stroke:grey; "  />
<polygon points="0,35 5,30 43,30 43,40 5,40 0,35 " style="fill:white; stroke-width:1; stroke:black; " description="&lt;b&gt;ctg2_443&lt;/b&gt;&lt;br&gt;ctg2 443&lt;br&gt;Location: 465221 - 465743" locus_tag="ctg2_443" class="clusterblast-orf" id="knownclusterblast-1_q0_0_all"  />
<polygon points="54,40 168,40 173,35 168,30 54,30 54,40 " style="fill:white; stroke-width:1; stroke:black; " description="&lt;b&gt;ctg2_444&lt;/b&gt;&lt;br&gt;ctg2 444&lt;br&gt;Location: 465873 - 467313" locus_tag="ctg2_444" class="clusterblast-orf" id="knownclusterblast-1_q1_0_all"  />
<polygon points="184,35 189,30 281,30 281,40 189,40 184,35 " style="fill:white; stroke-width:1; stroke:black; " description="&lt;b&gt;ctg2_445&lt;/b&gt;&lt;br&gt;ctg2 445&lt;br&gt;Location: 467446 - 468631" locus_tag="ctg2_445" class="clusterblast-orf" id="knownclusterblast-1_q2_0_all"  />
<polygon points="289,35 294,30 354,30 354,40 294,40 289,35 " style="fill:white; stroke-width:1; stroke:black; " description="&lt;b&gt;ctg2_446&lt;/b&gt;&lt;br&gt;ctg2 446&lt;br&gt;Location: 468718 - 469507" locus_tag="ctg2_446" class="clusterblast-orf" id="knownclusterblast-1_q3_0_all"  />
<polygon points="353,35 358,30 423,30 423,40 358,40 353,35 " style="fill:white; stroke-width:1; stroke:black; " description="&lt;b&gt;ctg2_447&lt;/b&gt;&lt;br&gt;ctg2 447&lt;br&gt;Location: 469497 - 470343" locus_tag="ctg2_447" class="clusterblast-orf" id="knownclusterblast-1_q4_0_all"  />
<polygon points="428,35 433,30 449,30 449,40 433,40 428,35 " style="fill:white; stroke-width:1; stroke:black; " description="&lt;b&gt;ctg2_448&lt;/b&gt;&lt;br&gt;ctg2 448&lt;br&gt;Location: 470410 - 470662" locus_tag="ctg2_448" class="clusterblast-orf" id="knownclusterblast-1_q5_0_all"  />
<polygon points="458,35 463,30 614,30 614,40 463,40 458,35 " style="fill:white; stroke-width:1; stroke:black; " description="&lt;b&gt;ctg2_449&lt;/b&gt;&lt;br&gt;ctg2 449&lt;br&gt;Location: 470779 - 472666" locus_tag="ctg2_449" class="clusterblast-orf" id="knownclusterblast-1_q6_0_all"  />
<polygon points="614,35 619,30 699,30 699,40 619,40 614,35 " style="fill:white; stroke-width:1; stroke:black; " description="&lt;b&gt;ctg2_450&lt;/b&gt;&lt;br&gt;ctg2 450&lt;br&gt;Location: 472662 - 473697" locus_tag="ctg2_450" class="clusterblast-orf" id="knownclusterblast-1_q7_0_all"  />
<polygon points="699,35 704,30 780,30 780,40 704,40 699,35 " style="fill:white; stroke-width:1; stroke:black; " description="&lt;b&gt;ctg2_451&lt;/b&gt;&lt;br&gt;ctg2 451&lt;br&gt;Location: 473693 - 474683" locus_tag="ctg2_451" class="clusterblast-orf" id="knownclusterblast-1_q8_0_all"  />
</g>
</svg>
