<svg xmlns="http://www.w3.org/2000/svg" xmlns:xlink="http://www.w3.org/1999/xlink" version="1.1" x="0" y="0" height="50" width="800" viewBox="0 0 800 50" preserveAspectRatio="none"  >
<g label="Query sequence" class="clusterblast-cluster"  >
<text x="5" y="20" class="clusterblast-acc"  >
Query sequence</text>
<line x1="10" y1="35" x2="778.0" y2="35" style="stroke-width:1; stroke:grey; "  />
<polygon points="0,35 5,30 12,30 12,40 5,40 0,35 " style="fill:white; stroke-width:1; stroke:black; " description="&lt;b&gt;ctg1_442&lt;/b&gt;&lt;br&gt;ctg1 442&lt;br&gt;Location: 521805 - 522531" locus_tag="ctg1_442" class="clusterblast-orf" id="subclusterblast-3_q0_0_all"  />
<polygon points="15,35 20,30 42,30 42,40 20,40 15,35 " style="fill:white; stroke-width:1; stroke:black; " description="&lt;b&gt;ctg1_443&lt;/b&gt;&lt;br&gt;ctg1 443&lt;br&gt;Location: 522667 - 524188" locus_tag="ctg1_443" class="clusterblast-orf" id="subclusterblast-3_q1_0_all"  />
<polygon points="42,35 47,30 61,30 61,40 47,40 42,35 " style="fill:white; stroke-width:1; stroke:black; " description="&lt;b&gt;ctg1_444&lt;/b&gt;&lt;br&gt;ctg1 444&lt;br&gt;Location: 524201 - 525281" locus_tag="ctg1_444" class="clusterblast-orf" id="subclusterblast-3_q2_0_all"  />
<polygon points="61,35 66,30 79,30 79,40 66,40 61,35 " style="fill:white; stroke-width:1; stroke:black; " description="&lt;b&gt;ctg1_445&lt;/b&gt;&lt;br&gt;ctg1 445&lt;br&gt;Location: 525308 - 526301" locus_tag="ctg1_445" class="clusterblast-orf" id="subclusterblast-3_q3_0_all"  />
<polygon points="78,35 83,30 105,30 105,40 83,40 78,35 " style="fill:white; stroke-width:1; stroke:black; " description="&lt;b&gt;ctg1_446&lt;/b&gt;&lt;br&gt;ctg1 446&lt;br&gt;Location: 526266 - 527775" locus_tag="ctg1_446" class="clusterblast-orf" id="subclusterblast-3_q4_0_all"  />
<polygon points="106,35 111,30 122,30 122,40 111,40 106,35 " style="fill:white; stroke-width:1; stroke:black; " description="&lt;b&gt;ctg1_447&lt;/b&gt;&lt;br&gt;ctg1 447&lt;br&gt;Location: 527838 - 528762" locus_tag="ctg1_447" class="clusterblast-orf" id="subclusterblast-3_q5_0_all"  />
<polygon points="127,40 134,40 139,35 134,30 127,30 127,40 " style="fill:white; stroke-width:1; stroke:black; " description="&lt;b&gt;ctg1_448&lt;/b&gt;&lt;br&gt;ctg1 448&lt;br&gt;Location: 529079 - 529751" locus_tag="ctg1_448" class="clusterblast-orf" id="subclusterblast-3_q6_0_all"  />
<polygon points="139,40 154,40 159,35 154,30 139,30 139,40 " style="fill:white; stroke-width:1; stroke:black; " description="&lt;b&gt;ctg1_449&lt;/b&gt;&lt;br&gt;ctg1 449&lt;br&gt;Location: 529753 - 530854" locus_tag="ctg1_449" class="clusterblast-orf" id="subclusterblast-3_q7_0_all"  />
<polygon points="160,35 165,30 185,30 185,40 165,40 160,35 " style="fill:white; stroke-width:1; stroke:black; " description="&lt;b&gt;ctg1_450&lt;/b&gt;&lt;br&gt;ctg1 450&lt;br&gt;Location: 530904 - 532347" locus_tag="ctg1_450" class="clusterblast-orf" id="subclusterblast-3_q8_0_all"  />
<polygon points="188,35 193,30 206,30 206,40 193,40 188,35 " style="fill:white; stroke-width:1; stroke:black; " description="&lt;b&gt;ctg1_451&lt;/b&gt;&lt;br&gt;ctg1 451&lt;br&gt;Location: 532497 - 533562" locus_tag="ctg1_451" class="clusterblast-orf" id="subclusterblast-3_q9_0_all"  />
<polygon points="206,35 211,30 250,30 250,40 211,40 206,35 " style="fill:white; stroke-width:1; stroke:black; " description="&lt;b&gt;ctg1_452&lt;/b&gt;&lt;br&gt;ctg1 452&lt;br&gt;Location: 533551 - 536047" locus_tag="ctg1_452" class="clusterblast-orf" id="subclusterblast-3_q10_0_all"  />
<polygon points="249,35 254,30 261,30 261,40 254,40 249,35 " style="fill:white; stroke-width:1; stroke:black; " description="&lt;b&gt;ctg1_453&lt;/b&gt;&lt;br&gt;ctg1 453&lt;br&gt;Location: 536015 - 536684" locus_tag="ctg1_453" class="clusterblast-orf" id="subclusterblast-3_q11_0_all"  />
<polygon points="266,40 273,40 278,35 273,30 266,30 266,40 " style="fill:white; stroke-width:1; stroke:black; " description="&lt;b&gt;ctg1_454&lt;/b&gt;&lt;br&gt;ctg1 454&lt;br&gt;Location: 536958 - 537633" locus_tag="ctg1_454" class="clusterblast-orf" id="subclusterblast-3_q12_0_all"  />
<polygon points="281,40 305,40 310,35 305,30 281,30 281,40 " style="fill:white; stroke-width:1; stroke:black; " description="&lt;b&gt;ctg1_455&lt;/b&gt;&lt;br&gt;ctg1 455&lt;br&gt;Location: 537822 - 539478" locus_tag="ctg1_455" class="clusterblast-orf" id="subclusterblast-3_q13_0_all"  />
<polygon points="311,40 332,40 337,35 332,30 311,30 311,40 " style="fill:white; stroke-width:1; stroke:black; " description="&lt;b&gt;ctg1_456&lt;/b&gt;&lt;br&gt;ctg1 456&lt;br&gt;Location: 539504 - 541022" locus_tag="ctg1_456" class="clusterblast-orf" id="subclusterblast-3_q14_0_all"  />
<polygon points="338,35 343,30 448,30 448,40 343,40 338,35 " style="fill:white; stroke-width:1; stroke:black; " description="&lt;b&gt;ctg1_457&lt;/b&gt;&lt;br&gt;ctg1 457&lt;br&gt;Location: 541077 - 547347" locus_tag="ctg1_457" class="clusterblast-orf" id="subclusterblast-3_q15_0_all"  />
<polygon points="457,40 466,40 471,35 466,30 457,30 457,40 " style="fill:white; stroke-width:1; stroke:black; " description="&lt;b&gt;ctg1_458&lt;/b&gt;&lt;br&gt;ctg1 458&lt;br&gt;Location: 547834 - 548629" locus_tag="ctg1_458" class="clusterblast-orf" id="subclusterblast-3_q16_0_all"  />
<polygon points="471,40 492,40 497,35 492,30 471,30 471,40 " style="fill:white; stroke-width:1; stroke:black; " description="&lt;b&gt;ctg1_459&lt;/b&gt;&lt;br&gt;ctg1 459&lt;br&gt;Location: 548628 - 550098" locus_tag="ctg1_459" class="clusterblast-orf" id="subclusterblast-3_q17_0_all"  />
<polygon points="495,35 500,30 511,30 511,40 500,40 495,35 " style="fill:white; stroke-width:1; stroke:black; " description="&lt;b&gt;ctg1_460&lt;/b&gt;&lt;br&gt;ctg1 460&lt;br&gt;Location: 550024 - 550885" locus_tag="ctg1_460" class="clusterblast-orf" id="subclusterblast-3_q18_0_all"  />
<polygon points="513,40 520,40 525,35 520,30 513,30 513,40 " style="fill:white; stroke-width:1; stroke:black; " description="&lt;b&gt;ctg1_461&lt;/b&gt;&lt;br&gt;ctg1 461&lt;br&gt;Location: 551013 - 551679" locus_tag="ctg1_461" class="clusterblast-orf" id="subclusterblast-3_q19_0_all"  />
<polygon points="524,40 533,40 538,35 533,30 524,30 524,40 " style="fill:white; stroke-width:1; stroke:black; " description="&lt;b&gt;ctg1_462&lt;/b&gt;&lt;br&gt;ctg1 462&lt;br&gt;Location: 551675 - 552446" locus_tag="ctg1_462" class="clusterblast-orf" id="subclusterblast-3_q20_0_all"  />
<polygon points="538,40 559,40 564,35 559,30 538,30 538,40 " style="fill:white; stroke-width:1; stroke:black; " description="&lt;b&gt;ctg1_463&lt;/b&gt;&lt;br&gt;ctg1 463&lt;br&gt;Location: 552451 - 553912" locus_tag="ctg1_463" class="clusterblast-orf" id="subclusterblast-3_q21_0_all"  />
<polygon points="565,40 575,40 580,35 575,30 565,30 565,40 " style="fill:white; stroke-width:1; stroke:black; " description="&lt;b&gt;ctg1_464&lt;/b&gt;&lt;br&gt;ctg1 464&lt;br&gt;Location: 553958 - 554816" locus_tag="ctg1_464" class="clusterblast-orf" id="subclusterblast-3_q22_0_all"  />
<polygon points="580,40 582,40 587,35 582,30 580,30 580,40 " style="fill:white; stroke-width:1; stroke:black; " description="&lt;b&gt;ctg1_465&lt;/b&gt;&lt;br&gt;ctg1 465&lt;br&gt;Location: 554831 - 555224" locus_tag="ctg1_465" class="clusterblast-orf" id="subclusterblast-3_q23_0_all"  />
<polygon points="588,40 606,40 611,35 606,30 588,30 588,40 " style="fill:white; stroke-width:1; stroke:black; " description="&lt;b&gt;ctg1_466&lt;/b&gt;&lt;br&gt;ctg1 466&lt;br&gt;Location: 555269 - 556574" locus_tag="ctg1_466" class="clusterblast-orf" id="subclusterblast-3_q24_0_all"  />
<polygon points="611,40 620,40 625,35 620,30 611,30 611,40 " style="fill:white; stroke-width:1; stroke:black; " description="&lt;b&gt;ctg1_467&lt;/b&gt;&lt;br&gt;ctg1 467&lt;br&gt;Location: 556585 - 557389" locus_tag="ctg1_467" class="clusterblast-orf" id="subclusterblast-3_q25_0_all"  />
<polygon points="625,40 634,40 639,35 634,30 625,30 625,40 " style="fill:white; stroke-width:1; stroke:black; " description="&lt;b&gt;ctg1_468&lt;/b&gt;&lt;br&gt;ctg1 468&lt;br&gt;Location: 557404 - 558205" locus_tag="ctg1_468" class="clusterblast-orf" id="subclusterblast-3_q26_0_all"  />
<polygon points="641,35 646,30 649,30 649,40 646,40 641,35 " style="fill:white; stroke-width:1; stroke:black; " description="&lt;b&gt;ctg1_469&lt;/b&gt;&lt;br&gt;ctg1 469&lt;br&gt;Location: 558330 - 558753" locus_tag="ctg1_469" class="clusterblast-orf" id="subclusterblast-3_q27_0_all"  />
<polygon points="652,40 670,40 675,35 670,30 652,30 652,40 " style="fill:white; stroke-width:1; stroke:black; " description="&lt;b&gt;ctg1_470&lt;/b&gt;&lt;br&gt;ctg1 470&lt;br&gt;Location: 558961 - 560260" locus_tag="ctg1_470" class="clusterblast-orf" id="subclusterblast-3_q28_0_all"  />
<polygon points="676,40 677,40 682,35 677,30 676,30 676,40 " style="fill:white; stroke-width:1; stroke:black; " description="&lt;b&gt;ctg1_471&lt;/b&gt;&lt;br&gt;ctg1 471&lt;br&gt;Location: 560289 - 560655" locus_tag="ctg1_471" class="clusterblast-orf" id="subclusterblast-3_q29_0_all"  />
<polygon points="682,40 692,40 697,35 692,30 682,30 682,40 " style="fill:white; stroke-width:1; stroke:black; " description="&lt;b&gt;ctg1_472&lt;/b&gt;&lt;br&gt;ctg1 472&lt;br&gt;Location: 560667 - 561489" locus_tag="ctg1_472" class="clusterblast-orf" id="subclusterblast-3_q30_0_all"  />
<polygon points="697,40 706,40 711,35 706,30 697,30 697,40 " style="fill:white; stroke-width:1; stroke:black; " description="&lt;b&gt;ctg1_473&lt;/b&gt;&lt;br&gt;ctg1 473&lt;br&gt;Location: 561481 - 562285" locus_tag="ctg1_473" class="clusterblast-orf" id="subclusterblast-3_q31_0_all"  />
<polygon points="711,40 719,40 724,35 719,30 711,30 711,40 " style="fill:white; stroke-width:1; stroke:black; " description="&lt;b&gt;ctg1_474&lt;/b&gt;&lt;br&gt;ctg1 474&lt;br&gt;Location: 562274 - 563030" locus_tag="ctg1_474" class="clusterblast-orf" id="subclusterblast-3_q32_0_all"  />
<polygon points="725,35 730,30 742,30 742,40 730,40 725,35 " style="fill:white; stroke-width:1; stroke:black; " description="&lt;b&gt;ctg1_475&lt;/b&gt;&lt;br&gt;ctg1 475&lt;br&gt;Location: 563091 - 564033" locus_tag="ctg1_475" class="clusterblast-orf" id="subclusterblast-3_q33_0_all"  />
<polygon points="744,35 749,30 754,30 754,40 749,40 744,35 " style="fill:white; stroke-width:1; stroke:black; " description="&lt;b&gt;ctg1_476&lt;/b&gt;&lt;br&gt;ctg1 476&lt;br&gt;Location: 564144 - 564741" locus_tag="ctg1_476" class="clusterblast-orf" id="subclusterblast-3_q34_0_all"  />
<polygon points="753,35 758,30 780,30 780,40 758,40 753,35 " style="fill:white; stroke-width:1; stroke:black; " description="&lt;b&gt;ctg1_477&lt;/b&gt;&lt;br&gt;ctg1 477&lt;br&gt;Location: 564703 - 566203" locus_tag="ctg1_477" class="clusterblast-orf" id="subclusterblast-3_q35_0_all"  />
</g>
</svg>
