<svg xmlns="http://www.w3.org/2000/svg" xmlns:xlink="http://www.w3.org/1999/xlink" version="1.1" x="0" y="0" height="230" width="800" viewBox="0 0 800 230" preserveAspectRatio="none"  >
<g label="Query sequence" class="clusterblast-cluster"  >
<text x="5" y="20" class="clusterblast-acc"  >
Query sequence</text>
<line x1="10" y1="35" x2="778.0" y2="35" style="stroke-width:1; stroke:grey; "  />
<polygon points="0,35 5,30 71,30 71,40 5,40 0,35 " style="fill:#d81515; stroke-width:1; stroke:black; " description="&lt;b&gt;ctg3_228&lt;/b&gt;&lt;br&gt;ctg3 228&lt;br&gt;Location: 245224 - 246265" locus_tag="ctg3_228" class="clusterblast-orf" id="dummy-3_q0_0_all"  />
<polygon points="94,40 160,40 165,35 160,30 94,30 94,40 " style="fill:#3cd815; stroke-width:1; stroke:black; " description="&lt;b&gt;ctg3_229&lt;/b&gt;&lt;br&gt;ctg3 229&lt;br&gt;Location: 246608 - 247667" locus_tag="ctg3_229" class="clusterblast-orf" id="dummy-3_q1_0_all"  />
<polygon points="165,40 204,40 209,35 204,30 165,30 165,40 " style="fill:#1563d8; stroke-width:1; stroke:black; " description="&lt;b&gt;ctg3_230&lt;/b&gt;&lt;br&gt;ctg3 230&lt;br&gt;Location: 247666 - 248317" locus_tag="ctg3_230" class="clusterblast-orf" id="dummy-3_q2_0_all"  />
<polygon points="210,40 253,40 258,35 253,30 210,30 210,40 " style="fill:#b115d8; stroke-width:1; stroke:black; " description="&lt;b&gt;ctg3_231&lt;/b&gt;&lt;br&gt;ctg3 231&lt;br&gt;Location: 248325 - 249039" locus_tag="ctg3_231" class="clusterblast-orf" id="dummy-3_q3_0_all"  />
<polygon points="284,40 292,40 297,35 292,30 284,30 284,40 " style="fill:#d88a15; stroke-width:1; stroke:black; " description="&lt;b&gt;ctg3_232&lt;/b&gt;&lt;br&gt;ctg3 232&lt;br&gt;Location: 249415 - 249604" locus_tag="ctg3_232" class="clusterblast-orf" id="dummy-3_q4_0_all"  />
<polygon points="322,40 448,40 453,35 448,30 322,30 322,40 " style="fill:#15d863; stroke-width:1; stroke:black; " description="&lt;b&gt;ctg3_233&lt;/b&gt;&lt;br&gt;ctg3 233&lt;br&gt;Location: 249986 - 251912" locus_tag="ctg3_233" class="clusterblast-orf" id="dummy-3_q5_0_all"  />
<polygon points="452,40 529,40 534,35 529,30 452,30 452,40 " style="fill:#3c15d8; stroke-width:1; stroke:black; " description="&lt;b&gt;ctg3_234&lt;/b&gt;&lt;br&gt;ctg3 234&lt;br&gt;Location: 251901 - 253113" locus_tag="ctg3_234" class="clusterblast-orf" id="dummy-3_q6_0_all"  />
<polygon points="535,40 673,40 678,35 673,30 535,30 535,40 " style="fill:#d8158a; stroke-width:1; stroke:black; " description="&lt;b&gt;ctg3_235&lt;/b&gt;&lt;br&gt;ctg3 235&lt;br&gt;Location: 253124 - 255245" locus_tag="ctg3_235" class="clusterblast-orf" id="dummy-3_q7_0_all"  />
<polygon points="685,35 690,30 722,30 722,40 690,40 685,35 " style="fill:#b1d815; stroke-width:1; stroke:black; " description="&lt;b&gt;ctg3_236&lt;/b&gt;&lt;br&gt;ctg3 236&lt;br&gt;Location: 255347 - 255893" locus_tag="ctg3_236" class="clusterblast-orf" id="dummy-3_q8_0_all"  />
<polygon points="724,35 729,30 780,30 780,40 729,40 724,35 " style="fill:#15d8d8; stroke-width:1; stroke:black; " description="&lt;b&gt;ctg3_237&lt;/b&gt;&lt;br&gt;ctg3 237&lt;br&gt;Location: 255918 - 256752" locus_tag="ctg3_237" class="clusterblast-orf" id="dummy-3_q9_0_all"  />
</g>
<g label="NZ_CP045767" description="NZ_CP045767 (3735501-3747427): Pseudomonas sp. CFSAN084952 chromosome, comple... (100% of genes show similarity), siderophore" class="clusterblast-cluster"  >
<text x="5" y="70" class="clusterblast-acc"  >
<a xlink:href="https://antismash-db.secondarymetabolites.org/area.html?record=NZ_CP045767&amp;start=3735501&amp;end=3747427" target="_blank">NZ_CP045767 (3735501-3747427)</a>: Pseudomonas sp. CFSAN084952 chromosome, comple... (100% of genes show similarity), siderophore</text>
<line x1="10" y1="85" x2="778.0" y2="85" style="stroke-width:1; stroke:grey; "  />
</g>
<g id="a3_000"  >
<polygon points="8,85 13,80 78,80 78,90 13,90 8,85 " style="fill:#d81515; stroke-width:1; stroke:black; " description="&lt;b&gt;GH769_RS16910&lt;/b&gt;&lt;br&gt;DUF2066 domain-containing protein&lt;br&gt;Location: 3735950 - 3736990&lt;br&gt;&lt;br&gt;&lt;b&gt;BlastP hit with ctg3_228&lt;/b&gt;&lt;br&gt;Percentage identity: 93&lt;br&gt;Percentage coverage: 100&lt;br&gt;BLAST bit score: 630&lt;br&gt;E-value: 1.18e-228" locus_tag="GH769_RS16910" class="clusterblast-orf" id="dummy-3_h3_10_0"  />
</g>
<g id="a3_001"  >
<polygon points="102,90 168,90 173,85 168,80 102,80 102,90 " style="fill:#3cd815; stroke-width:1; stroke:black; " description="&lt;b&gt;GH769_RS16915&lt;/b&gt;&lt;br&gt;phosphoribosylformylglycinamidine cyclo-ligase&lt;br&gt;Location: 3737332 - 3738390&lt;br&gt;&lt;br&gt;&lt;b&gt;BlastP hit with ctg3_229&lt;/b&gt;&lt;br&gt;Percentage identity: 98&lt;br&gt;Percentage coverage: 100&lt;br&gt;BLAST bit score: 694&lt;br&gt;E-value: 6.63e-254" locus_tag="GH769_RS16915" class="clusterblast-orf" id="dummy-3_h3_10_1"  />
</g>
<g id="a3_002"  >
<polygon points="173,90 212,90 217,85 212,80 173,80 173,90 " style="fill:#1563d8; stroke-width:1; stroke:black; " description="&lt;b&gt;GH769_RS16920&lt;/b&gt;&lt;br&gt;phosphoribosylglycinamide formyltransferase&lt;br&gt;Location: 3738390 - 3739040&lt;br&gt;&lt;br&gt;&lt;b&gt;BlastP hit with ctg3_230&lt;/b&gt;&lt;br&gt;Percentage identity: 98&lt;br&gt;Percentage coverage: 100&lt;br&gt;BLAST bit score: 422&lt;br&gt;E-value: 1.07e-150" locus_tag="GH769_RS16920" class="clusterblast-orf" id="dummy-3_h3_10_2"  />
</g>
<g id="a3_003"  >
<polygon points="218,90 261,90 266,85 261,80 218,80 218,90 " style="fill:#b115d8; stroke-width:1; stroke:black; " description="&lt;b&gt;GH769_RS16925&lt;/b&gt;&lt;br&gt;DUF3108 domain-containing protein&lt;br&gt;Location: 3739049 - 3739762&lt;br&gt;&lt;br&gt;&lt;b&gt;BlastP hit with ctg3_231&lt;/b&gt;&lt;br&gt;Percentage identity: 93&lt;br&gt;Percentage coverage: 100&lt;br&gt;BLAST bit score: 429&lt;br&gt;E-value: 6.77e-153" locus_tag="GH769_RS16925" class="clusterblast-orf" id="dummy-3_h3_10_3"  />
</g>
<g id="a3_004"  >
<polygon points="291,90 298,90 303,85 298,80 291,80 291,90 " style="fill:#d88a15; stroke-width:1; stroke:black; " description="&lt;b&gt;GH769_RS16930&lt;/b&gt;&lt;br&gt;hypothetical protein&lt;br&gt;Location: 3740127 - 3740315&lt;br&gt;&lt;br&gt;&lt;b&gt;BlastP hit with ctg3_232&lt;/b&gt;&lt;br&gt;Percentage identity: 87&lt;br&gt;Percentage coverage: 100&lt;br&gt;BLAST bit score: 114&lt;br&gt;E-value: 6.12e-34" locus_tag="GH769_RS16930" class="clusterblast-orf" id="dummy-3_h3_10_4"  />
</g>
<g id="a3_005"  >
<polygon points="316,90 441,90 446,85 441,80 316,80 316,90 " style="fill:#15d863; stroke-width:1; stroke:black; " description="&lt;b&gt;GH769_RS16935&lt;/b&gt;&lt;br&gt;siderophore synthetase&lt;br&gt;Location: 3740502 - 3742427&lt;br&gt;&lt;br&gt;&lt;b&gt;BlastP hit with ctg3_233&lt;/b&gt;&lt;br&gt;Percentage identity: 87&lt;br&gt;Percentage coverage: 100&lt;br&gt;BLAST bit score: 1136&lt;br&gt;E-value: 0.0" locus_tag="GH769_RS16935" class="clusterblast-orf" id="dummy-3_h3_10_5"  />
</g>
<g id="a3_006"  >
<polygon points="446,90 524,90 529,85 524,80 446,80 446,90 " style="fill:#3c15d8; stroke-width:1; stroke:black; " description="&lt;b&gt;GH769_RS16940&lt;/b&gt;&lt;br&gt;MFS transporter&lt;br&gt;Location: 3742417 - 3743646&lt;br&gt;&lt;br&gt;&lt;b&gt;BlastP hit with ctg3_234&lt;/b&gt;&lt;br&gt;Percentage identity: 92&lt;br&gt;Percentage coverage: 100&lt;br&gt;BLAST bit score: 708&lt;br&gt;E-value: 1e-257" locus_tag="GH769_RS16940" class="clusterblast-orf" id="dummy-3_h3_10_6"  />
</g>
<g id="a3_007"  >
<polygon points="528,90 667,90 672,85 667,80 528,80 528,90 " style="fill:#d8158a; stroke-width:1; stroke:black; " description="&lt;b&gt;GH769_RS16945&lt;/b&gt;&lt;br&gt;TonB-dependent receptor&lt;br&gt;Location: 3743639 - 3745759&lt;br&gt;&lt;br&gt;&lt;b&gt;BlastP hit with ctg3_235&lt;/b&gt;&lt;br&gt;Percentage identity: 93&lt;br&gt;Percentage coverage: 100&lt;br&gt;BLAST bit score: 1336&lt;br&gt;E-value: 0.0" locus_tag="GH769_RS16945" class="clusterblast-orf" id="dummy-3_h3_10_7"  />
</g>
<g id="a3_008"  >
<polygon points="676,85 681,80 713,80 713,90 681,90 676,85 " style="fill:#b1d815; stroke-width:1; stroke:black; " description="&lt;b&gt;GH769_RS16950&lt;/b&gt;&lt;br&gt;DUF2058 domain-containing protein&lt;br&gt;Location: 3745820 - 3746365&lt;br&gt;&lt;br&gt;&lt;b&gt;BlastP hit with ctg3_236&lt;/b&gt;&lt;br&gt;Percentage identity: 99&lt;br&gt;Percentage coverage: 100&lt;br&gt;BLAST bit score: 335&lt;br&gt;E-value: 2.13e-117" locus_tag="GH769_RS16950" class="clusterblast-orf" id="dummy-3_h3_10_8"  />
</g>
<g id="a3_009"  >
<polygon points="715,85 720,80 771,80 771,90 720,90 715,85 " style="fill:#15d8d8; stroke-width:1; stroke:black; " description="&lt;b&gt;GH769_RS16955&lt;/b&gt;&lt;br&gt;nucleoside triphosphate pyrophosphohydrolase&lt;br&gt;Location: 3746391 - 3747224&lt;br&gt;&lt;br&gt;&lt;b&gt;BlastP hit with ctg3_237&lt;/b&gt;&lt;br&gt;Percentage identity: 95&lt;br&gt;Percentage coverage: 100&lt;br&gt;BLAST bit score: 531&lt;br&gt;E-value: 5.92e-192" locus_tag="GH769_RS16955" class="clusterblast-orf" id="dummy-3_h3_10_9"  />
</g>
</svg>
