<svg xmlns="http://www.w3.org/2000/svg" xmlns:xlink="http://www.w3.org/1999/xlink" version="1.1" x="0" y="0" height="230" width="800" viewBox="0 0 800 230" preserveAspectRatio="none"  >
<g label="Query sequence" class="clusterblast-cluster"  >
<text x="5" y="20" class="clusterblast-acc"  >
Query sequence</text>
<line x1="10" y1="35" x2="778.0" y2="35" style="stroke-width:1; stroke:grey; "  />
<polygon points="49,40 160,40 165,35 160,30 49,30 49,40 " style="fill:#d81515; stroke-width:1; stroke:black; " description="&lt;b&gt;ctg3_51&lt;/b&gt;&lt;br&gt;ctg3 51&lt;br&gt;Location: 53806 - 55807" locus_tag="ctg3_51" class="clusterblast-orf" id="dummy-1_q0_0_all"  />
<polygon points="172,40 270,40 275,35 270,30 172,30 172,40 " style="fill:#3cd815; stroke-width:1; stroke:black; " description="&lt;b&gt;ctg3_52&lt;/b&gt;&lt;br&gt;ctg3 52&lt;br&gt;Location: 55942 - 57715" locus_tag="ctg3_52" class="clusterblast-orf" id="dummy-1_q1_0_all"  />
<polygon points="275,40 371,40 376,35 371,30 275,30 275,40 " style="fill:#1563d8; stroke-width:1; stroke:black; " description="&lt;b&gt;ctg3_53&lt;/b&gt;&lt;br&gt;ctg3 53&lt;br&gt;Location: 57718 - 59467" locus_tag="ctg3_53" class="clusterblast-orf" id="dummy-1_q2_0_all"  />
<polygon points="386,40 449,40 454,35 449,30 386,30 386,40 " style="fill:#b115d8; stroke-width:1; stroke:black; " description="&lt;b&gt;ctg3_54&lt;/b&gt;&lt;br&gt;ctg3 54&lt;br&gt;Location: 59638 - 60823" locus_tag="ctg3_54" class="clusterblast-orf" id="dummy-1_q3_0_all"  />
<polygon points="458,40 466,40 471,35 466,30 458,30 458,40 " style="fill:#d88a15; stroke-width:1; stroke:black; " description="&lt;b&gt;ctg3_55&lt;/b&gt;&lt;br&gt;ctg3 55&lt;br&gt;Location: 60882 - 61110" locus_tag="ctg3_55" class="clusterblast-orf" id="dummy-1_q4_0_all"  />
<polygon points="471,35 476,30 483,30 483,40 476,40 471,35 " style="fill:#15d863; stroke-width:1; stroke:black; " description="&lt;b&gt;ctg3_56&lt;/b&gt;&lt;br&gt;ctg3 56&lt;br&gt;Location: 61117 - 61321" locus_tag="ctg3_56" class="clusterblast-orf" id="dummy-1_q5_0_all"  />
<polygon points="497,35 502,30 544,30 544,40 502,40 497,35 " style="fill:#3c15d8; stroke-width:1; stroke:black; " description="&lt;b&gt;ctg3_57&lt;/b&gt;&lt;br&gt;ctg3 57&lt;br&gt;Location: 61562 - 62378" locus_tag="ctg3_57" class="clusterblast-orf" id="dummy-1_q6_0_all"  />
<polygon points="563,40 567,40 572,35 567,30 563,30 563,40 " style="fill:#d8158a; stroke-width:1; stroke:black; " description="&lt;b&gt;ctg3_58&lt;/b&gt;&lt;br&gt;ctg3 58&lt;br&gt;Location: 62708 - 62861" locus_tag="ctg3_58" class="clusterblast-orf" id="dummy-1_q7_0_all"  />
<polygon points="575,35 580,30 696,30 696,40 580,40 575,35 " style="fill:#b1d815; stroke-width:1; stroke:black; " description="&lt;b&gt;ctg3_59&lt;/b&gt;&lt;br&gt;ctg3 59&lt;br&gt;Location: 62915 - 65003" locus_tag="ctg3_59" class="clusterblast-orf" id="dummy-1_q8_0_all"  />
<polygon points="720,35 725,30 731,30 731,40 725,40 720,35 " style="fill:#15d8d8; stroke-width:1; stroke:black; " description="&lt;b&gt;ctg3_60&lt;/b&gt;&lt;br&gt;ctg3 60&lt;br&gt;Location: 65420 - 65612" locus_tag="ctg3_60" class="clusterblast-orf" id="dummy-1_q9_0_all"  />
</g>
<g label="NZ_FNOX01000012" description="NZ_FNOX01000012 (17398-32241): Pseudomonas salomonii strain ICMP 14252, whole... (90% of genes show similarity), NAGGN" class="clusterblast-cluster"  >
<text x="5" y="70" class="clusterblast-acc"  >
<a xlink:href="https://antismash-db.secondarymetabolites.org/area.html?record=NZ_FNOX01000012&amp;start=17398&amp;end=32241" target="_blank">NZ_FNOX01000012 (17398-32241)</a>: Pseudomonas salomonii strain ICMP 14252, whole... (90% of genes show similarity), NAGGN</text>
<line x1="10" y1="85" x2="778.0" y2="85" style="stroke-width:1; stroke:grey; "  />
</g>
<g id="a1_000"  >
<polygon points="0,85 5,80 87,80 87,90 5,90 0,85 " style="fill:white; stroke-width:1; stroke:black; " description="&lt;b&gt;BLV67_RS24700&lt;/b&gt;&lt;br&gt;polyphosphate:AMP phosphotransferase&lt;br&gt;Location: 31065 - 29551" locus_tag="BLV67_RS24700" class="clusterblast-orf" id="dummy-1_h1_10_0"  />
</g>
<g id="a1_001"  >
<polygon points="96,90 206,90 211,85 206,80 96,80 96,90 " style="fill:#d81515; stroke-width:1; stroke:black; " description="&lt;b&gt;BLV67_RS24695&lt;/b&gt;&lt;br&gt;bifunctional tRNA (5-methylaminomethyl-2-thiouridine)(34)-methyltransferase MnmD/FAD-dependent 5-carboxymethylaminomethyl-2-thiouridine(34) oxidoreductase MnmC&lt;br&gt;Location: 29394 - 27406&lt;br&gt;&lt;br&gt;&lt;b&gt;BlastP hit with ctg3_51&lt;/b&gt;&lt;br&gt;Percentage identity: 91&lt;br&gt;Percentage coverage: 99&lt;br&gt;BLAST bit score: 1220&lt;br&gt;E-value: 0.0" locus_tag="BLV67_RS24695" class="clusterblast-orf" id="dummy-1_h1_10_1"  />
</g>
<g id="a1_002"  >
<polygon points="220,90 318,90 323,85 318,80 220,80 220,90 " style="fill:#3cd815; stroke-width:1; stroke:black; " description="&lt;b&gt;BLV67_RS24690&lt;/b&gt;&lt;br&gt;N-acetylglutaminylglutamine amidotransferase&lt;br&gt;Location: 27241 - 25469&lt;br&gt;&lt;br&gt;&lt;b&gt;BlastP hit with ctg3_52&lt;/b&gt;&lt;br&gt;Percentage identity: 98&lt;br&gt;Percentage coverage: 100&lt;br&gt;BLAST bit score: 1182&lt;br&gt;E-value: 0.0" locus_tag="BLV67_RS24690" class="clusterblast-orf" id="dummy-1_h1_10_2"  />
</g>
<g id="a1_003"  >
<polygon points="323,90 419,90 424,85 419,80 323,80 323,90 " style="fill:#1563d8; stroke-width:1; stroke:black; " description="&lt;b&gt;BLV67_RS24685&lt;/b&gt;&lt;br&gt;N-acetylglutaminylglutamine synthetase&lt;br&gt;Location: 25465 - 23720&lt;br&gt;&lt;br&gt;&lt;b&gt;BlastP hit with ctg3_53&lt;/b&gt;&lt;br&gt;Percentage identity: 98&lt;br&gt;Percentage coverage: 100&lt;br&gt;BLAST bit score: 1142&lt;br&gt;E-value: 0.0" locus_tag="BLV67_RS24685" class="clusterblast-orf" id="dummy-1_h1_10_3"  />
</g>
<g id="a1_004"  >
<polygon points="432,90 495,90 500,85 495,80 432,80 432,90 " style="fill:#b115d8; stroke-width:1; stroke:black; " description="&lt;b&gt;BLV67_RS24680&lt;/b&gt;&lt;br&gt;osmoprotectant NAGGN system M42 family peptidase&lt;br&gt;Location: 23583 - 22399&lt;br&gt;&lt;br&gt;&lt;b&gt;BlastP hit with ctg3_54&lt;/b&gt;&lt;br&gt;Percentage identity: 99&lt;br&gt;Percentage coverage: 100&lt;br&gt;BLAST bit score: 785&lt;br&gt;E-value: 2.66e-288" locus_tag="BLV67_RS24680" class="clusterblast-orf" id="dummy-1_h1_10_4"  />
</g>
<g id="a1_005"  >
<polygon points="507,90 515,90 520,85 515,80 507,80 507,90 " style="fill:#d88a15; stroke-width:1; stroke:black; " description="&lt;b&gt;BLV67_RS24675&lt;/b&gt;&lt;br&gt;YheU family protein&lt;br&gt;Location: 22288 - 22061&lt;br&gt;&lt;br&gt;&lt;b&gt;BlastP hit with ctg3_55&lt;/b&gt;&lt;br&gt;Percentage identity: 97&lt;br&gt;Percentage coverage: 100&lt;br&gt;BLAST bit score: 151&lt;br&gt;E-value: 4.78e-48" locus_tag="BLV67_RS24675" class="clusterblast-orf" id="dummy-1_h1_10_5"  />
</g>
<g id="a1_006"  >
<polygon points="520,85 525,80 532,80 532,90 525,90 520,85 " style="fill:#15d863; stroke-width:1; stroke:black; " description="&lt;b&gt;BLV67_RS24670&lt;/b&gt;&lt;br&gt;carbon storage regulator CsrA&lt;br&gt;Location: 22053 - 21856&lt;br&gt;&lt;br&gt;&lt;b&gt;BlastP hit with ctg3_56&lt;/b&gt;&lt;br&gt;Percentage identity: 76&lt;br&gt;Percentage coverage: 88&lt;br&gt;BLAST bit score: 90&lt;br&gt;E-value: 4.78e-24" locus_tag="BLV67_RS24670" class="clusterblast-orf" id="dummy-1_h1_10_6"  />
</g>
<g id="a1_007"  >
<polygon points="546,85 551,80 593,80 593,90 551,90 546,85 " style="fill:#3c15d8; stroke-width:1; stroke:black; " description="&lt;b&gt;BLV67_RS24665&lt;/b&gt;&lt;br&gt;SDR family oxidoreductase&lt;br&gt;Location: 21611 - 20796&lt;br&gt;&lt;br&gt;&lt;b&gt;BlastP hit with ctg3_57&lt;/b&gt;&lt;br&gt;Percentage identity: 98&lt;br&gt;Percentage coverage: 100&lt;br&gt;BLAST bit score: 525&lt;br&gt;E-value: 1.45e-189" locus_tag="BLV67_RS24665" class="clusterblast-orf" id="dummy-1_h1_10_7"  />
</g>
<g id="a1_008"  >
<polygon points="612,90 616,90 621,85 616,80 612,80 612,90 " style="fill:#d8158a; stroke-width:1; stroke:black; " description="&lt;b&gt;BLV67_RS24660&lt;/b&gt;&lt;br&gt;DUF3309 domain-containing protein&lt;br&gt;Location: 20467 - 20315&lt;br&gt;&lt;br&gt;&lt;b&gt;BlastP hit with ctg3_58&lt;/b&gt;&lt;br&gt;Percentage identity: 100&lt;br&gt;Percentage coverage: 100&lt;br&gt;BLAST bit score: 81&lt;br&gt;E-value: 1.06e-20" locus_tag="BLV67_RS24660" class="clusterblast-orf" id="dummy-1_h1_10_8"  />
</g>
<g id="a1_009"  >
<polygon points="624,85 629,80 744,80 744,90 629,90 624,85 " style="fill:#b1d815; stroke-width:1; stroke:black; " description="&lt;b&gt;BLV67_RS24655&lt;/b&gt;&lt;br&gt;LTA synthase family protein&lt;br&gt;Location: 20259 - 18172&lt;br&gt;&lt;br&gt;&lt;b&gt;BlastP hit with ctg3_59&lt;/b&gt;&lt;br&gt;Percentage identity: 98&lt;br&gt;Percentage coverage: 100&lt;br&gt;BLAST bit score: 1380&lt;br&gt;E-value: 0.0" locus_tag="BLV67_RS24655" class="clusterblast-orf" id="dummy-1_h1_10_9"  />
</g>
<g id="a1_0010"  >
<polygon points="768,85 773,80 780,80 780,90 773,90 768,85 " style="fill:#15d8d8; stroke-width:1; stroke:black; " description="&lt;b&gt;BLV67_RS24650&lt;/b&gt;&lt;br&gt;hypothetical protein&lt;br&gt;Location: 17757 - 17566&lt;br&gt;&lt;br&gt;&lt;b&gt;BlastP hit with ctg3_60&lt;/b&gt;&lt;br&gt;Percentage identity: 100&lt;br&gt;Percentage coverage: 100&lt;br&gt;BLAST bit score: 120&lt;br&gt;E-value: 2.37e-36" locus_tag="BLV67_RS24650" class="clusterblast-orf" id="dummy-1_h1_10_10"  />
</g>
</svg>
