<svg xmlns="http://www.w3.org/2000/svg" xmlns:xlink="http://www.w3.org/1999/xlink" version="1.1" x="0" y="0" height="230" width="800" viewBox="0 0 800 230" preserveAspectRatio="none"  >
<g label="Query sequence" class="clusterblast-cluster"  >
<text x="5" y="20" class="clusterblast-acc"  >
Query sequence</text>
<line x1="10" y1="35" x2="778.0" y2="35" style="stroke-width:1; stroke:grey; "  />
<polygon points="0,40 6,40 11,35 6,30 0,30 0,40 " style="fill:#d81515; stroke-width:1; stroke:black; " description="&lt;b&gt;ctg3_98&lt;/b&gt;&lt;br&gt;ctg3 98&lt;br&gt;Location: 103401 - 104139" locus_tag="ctg3_98" class="clusterblast-orf" id="dummy-2_q0_0_all"  />
<polygon points="14,40 21,40 26,35 21,30 14,30 14,40 " style="fill:#77d815; stroke-width:1; stroke:black; " description="&lt;b&gt;ctg3_99&lt;/b&gt;&lt;br&gt;ctg3 99&lt;br&gt;Location: 104339 - 105152" locus_tag="ctg3_99" class="clusterblast-orf" id="dummy-2_q1_0_all"  />
<polygon points="26,40 30,35 26,30 26,40 " style="fill:#15d8d8; stroke-width:1; stroke:black; " description="&lt;b&gt;ctg3_100&lt;/b&gt;&lt;br&gt;ctg3 100&lt;br&gt;Location: 105155 - 105410" locus_tag="ctg3_100" class="clusterblast-orf" id="dummy-2_q2_0_all"  />
<polygon points="31,40 36,40 41,35 36,30 31,30 31,40 " style="fill:#7715d8; stroke-width:1; stroke:black; " description="&lt;b&gt;ctg3_101&lt;/b&gt;&lt;br&gt;ctg3 101&lt;br&gt;Location: 105506 - 106142" locus_tag="ctg3_101" class="clusterblast-orf" id="dummy-2_q3_0_all"  />
<polygon points="42,40 57,40 62,35 57,30 42,30 42,40 " style="fill:#d83215; stroke-width:1; stroke:black; " description="&lt;b&gt;ctg3_102&lt;/b&gt;&lt;br&gt;ctg3 102&lt;br&gt;Location: 106252 - 107542" locus_tag="ctg3_102" class="clusterblast-orf" id="dummy-2_q4_0_all"  />
<polygon points="65,40 68,35 65,30 65,40 " style="fill:#59d815; stroke-width:1; stroke:black; " description="&lt;b&gt;ctg3_103&lt;/b&gt;&lt;br&gt;ctg3 103&lt;br&gt;Location: 107762 - 107939" locus_tag="ctg3_103" class="clusterblast-orf" id="dummy-2_q5_0_all"  />
<polygon points="69,40 96,40 101,35 96,30 69,30 69,40 " style="fill:#15bbd8; stroke-width:1; stroke:black; " description="&lt;b&gt;ctg3_104&lt;/b&gt;&lt;br&gt;ctg3 104&lt;br&gt;Location: 108011 - 110177" locus_tag="ctg3_104" class="clusterblast-orf" id="dummy-2_q6_0_all"  />
<polygon points="101,40 117,40 122,35 117,30 101,30 101,40 " style="fill:#9415d8; stroke-width:1; stroke:black; " description="&lt;b&gt;ctg3_105&lt;/b&gt;&lt;br&gt;ctg3 105&lt;br&gt;Location: 110194 - 111541" locus_tag="ctg3_105" class="clusterblast-orf" id="dummy-2_q7_0_all"  />
<polygon points="123,35 127,30 127,40 123,35 " style="fill:#d85015; stroke-width:1; stroke:black; " description="&lt;b&gt;ctg3_106&lt;/b&gt;&lt;br&gt;ctg3 106&lt;br&gt;Location: 111657 - 111882" locus_tag="ctg3_106" class="clusterblast-orf" id="dummy-2_q8_0_all"  />
<polygon points="128,35 133,30 149,30 149,40 133,40 128,35 " style="fill:#3cd815; stroke-width:1; stroke:black; " description="&lt;b&gt;ctg3_107&lt;/b&gt;&lt;br&gt;ctg3 107&lt;br&gt;Location: 111965 - 113378" locus_tag="ctg3_107" class="clusterblast-orf" id="dummy-2_q9_0_all"  />
<polygon points="155,35 160,30 164,30 164,40 160,40 155,35 " style="fill:#159ed8; stroke-width:1; stroke:black; " description="&lt;b&gt;ctg3_108&lt;/b&gt;&lt;br&gt;ctg3 108&lt;br&gt;Location: 113744 - 114341" locus_tag="ctg3_108" class="clusterblast-orf" id="dummy-2_q10_0_all"  />
<polygon points="165,35 170,30 185,30 185,40 170,40 165,35 " style="fill:#b115d8; stroke-width:1; stroke:black; " description="&lt;b&gt;ctg3_109&lt;/b&gt;&lt;br&gt;ctg3 109&lt;br&gt;Location: 114465 - 115788" locus_tag="ctg3_109" class="clusterblast-orf" id="dummy-2_q11_0_all"  />
<polygon points="185,35 190,30 196,30 196,40 190,40 185,35 " style="fill:#d86d15; stroke-width:1; stroke:black; " description="&lt;b&gt;ctg3_110&lt;/b&gt;&lt;br&gt;ctg3 110&lt;br&gt;Location: 115784 - 116480" locus_tag="ctg3_110" class="clusterblast-orf" id="dummy-2_q12_0_all"  />
<polygon points="198,40 219,40 224,35 219,30 198,30 198,40 " style="fill:#1fd815; stroke-width:1; stroke:black; " description="&lt;b&gt;ctg3_111&lt;/b&gt;&lt;br&gt;ctg3 111&lt;br&gt;Location: 116656 - 118402" locus_tag="ctg3_111" class="clusterblast-orf" id="dummy-2_q13_0_all"  />
<polygon points="224,40 232,40 237,35 232,30 224,30 224,40 " style="fill:#1580d8; stroke-width:1; stroke:black; " description="&lt;b&gt;ctg3_112&lt;/b&gt;&lt;br&gt;ctg3 112&lt;br&gt;Location: 118401 - 119253" locus_tag="ctg3_112" class="clusterblast-orf" id="dummy-2_q14_0_all"  />
<polygon points="237,40 243,40 248,35 243,30 237,30 237,40 " style="fill:#ce15d8; stroke-width:1; stroke:black; " description="&lt;b&gt;ctg3_113&lt;/b&gt;&lt;br&gt;ctg3 113&lt;br&gt;Location: 119228 - 119990" locus_tag="ctg3_113" class="clusterblast-orf" id="dummy-2_q15_0_all"  />
<polygon points="251,35 256,30 267,30 267,40 256,40 251,35 " style="fill:#d88a15; stroke-width:1; stroke:black; " description="&lt;b&gt;ctg3_114&lt;/b&gt;&lt;br&gt;ctg3 114&lt;br&gt;Location: 120190 - 121255" locus_tag="ctg3_114" class="clusterblast-orf" id="dummy-2_q16_0_all"  />
<polygon points="268,35 273,30 277,30 277,40 273,40 268,35 " style="fill:#15d829; stroke-width:1; stroke:black; " description="&lt;b&gt;ctg3_115&lt;/b&gt;&lt;br&gt;ctg3 115&lt;br&gt;Location: 121295 - 121931" locus_tag="ctg3_115" class="clusterblast-orf" id="dummy-2_q17_0_all"  />
<polygon points="293,35 298,30 486,30 486,40 298,40 293,35 " style="fill:#1563d8; stroke-width:1; stroke:black; " description="&lt;b&gt;ctg3_116&lt;/b&gt;&lt;br&gt;ctg3 116&lt;br&gt;Location: 122949 - 135846" locus_tag="ctg3_116" class="clusterblast-orf" id="dummy-2_q18_0_all"  />
<polygon points="487,35 492,30 498,30 498,40 492,40 487,35 " style="fill:#d815c5; stroke-width:1; stroke:black; " description="&lt;b&gt;ctg3_117&lt;/b&gt;&lt;br&gt;ctg3 117&lt;br&gt;Location: 135896 - 136649" locus_tag="ctg3_117" class="clusterblast-orf" id="dummy-2_q19_0_all"  />
<polygon points="502,40 506,40 511,35 506,30 502,30 502,40 " style="fill:#d8a715; stroke-width:1; stroke:black; " description="&lt;b&gt;ctg3_118&lt;/b&gt;&lt;br&gt;ctg3 118&lt;br&gt;Location: 136949 - 137501" locus_tag="ctg3_118" class="clusterblast-orf" id="dummy-2_q20_0_all"  />
<polygon points="511,35 516,30 523,30 523,40 516,40 511,35 " style="fill:#15d846; stroke-width:1; stroke:black; " description="&lt;b&gt;ctg3_119&lt;/b&gt;&lt;br&gt;ctg3 119&lt;br&gt;Location: 137539 - 138328" locus_tag="ctg3_119" class="clusterblast-orf" id="dummy-2_q21_0_all"  />
<polygon points="524,35 529,30 534,30 534,40 529,40 524,35 " style="fill:#1546d8; stroke-width:1; stroke:black; " description="&lt;b&gt;ctg3_120&lt;/b&gt;&lt;br&gt;ctg3 120&lt;br&gt;Location: 138421 - 139045" locus_tag="ctg3_120" class="clusterblast-orf" id="dummy-2_q22_0_all"  />
<polygon points="536,40 558,40 563,35 558,30 536,30 536,40 " style="fill:#d815a7; stroke-width:1; stroke:black; " description="&lt;b&gt;ctg3_121&lt;/b&gt;&lt;br&gt;ctg3 121&lt;br&gt;Location: 139198 - 140977" locus_tag="ctg3_121" class="clusterblast-orf" id="dummy-2_q23_0_all"  />
<polygon points="563,40 571,40 576,35 571,30 563,30 563,40 " style="fill:#d8c515; stroke-width:1; stroke:black; " description="&lt;b&gt;ctg3_122&lt;/b&gt;&lt;br&gt;ctg3 122&lt;br&gt;Location: 140989 - 141862" locus_tag="ctg3_122" class="clusterblast-orf" id="dummy-2_q24_0_all"  />
<polygon points="576,40 595,40 600,35 595,30 576,30 576,40 " style="fill:#15d863; stroke-width:1; stroke:black; " description="&lt;b&gt;ctg3_123&lt;/b&gt;&lt;br&gt;ctg3 123&lt;br&gt;Location: 141865 - 143482" locus_tag="ctg3_123" class="clusterblast-orf" id="dummy-2_q25_0_all"  />
<polygon points="601,40 613,40 618,35 613,30 601,30 601,40 " style="fill:#1529d8; stroke-width:1; stroke:black; " description="&lt;b&gt;ctg3_124&lt;/b&gt;&lt;br&gt;ctg3 124&lt;br&gt;Location: 143498 - 144656" locus_tag="ctg3_124" class="clusterblast-orf" id="dummy-2_q26_0_all"  />
<polygon points="618,40 624,40 629,35 624,30 618,30 618,40 " style="fill:#d8158a; stroke-width:1; stroke:black; " description="&lt;b&gt;ctg3_125&lt;/b&gt;&lt;br&gt;ctg3 125&lt;br&gt;Location: 144652 - 145420" locus_tag="ctg3_125" class="clusterblast-orf" id="dummy-2_q27_0_all"  />
<polygon points="631,40 655,40 660,35 655,30 631,30 631,40 " style="fill:#ced815; stroke-width:1; stroke:black; " description="&lt;b&gt;ctg3_126&lt;/b&gt;&lt;br&gt;ctg3 126&lt;br&gt;Location: 145531 - 147454" locus_tag="ctg3_126" class="clusterblast-orf" id="dummy-2_q28_0_all"  />
<polygon points="661,40 664,40 669,35 664,30 661,30 661,40 " style="fill:#15d880; stroke-width:1; stroke:black; " description="&lt;b&gt;ctg3_127&lt;/b&gt;&lt;br&gt;ctg3 127&lt;br&gt;Location: 147545 - 148088" locus_tag="ctg3_127" class="clusterblast-orf" id="dummy-2_q29_0_all"  />
<polygon points="670,40 670,40 675,35 670,30 670,30 670,40 " style="fill:#1f15d8; stroke-width:1; stroke:black; " description="&lt;b&gt;ctg3_128&lt;/b&gt;&lt;br&gt;ctg3 128&lt;br&gt;Location: 148153 - 148438" locus_tag="ctg3_128" class="clusterblast-orf" id="dummy-2_q30_0_all"  />
<polygon points="676,35 681,30 688,30 688,40 681,40 676,35 " style="fill:#d8156d; stroke-width:1; stroke:black; " description="&lt;b&gt;ctg3_129&lt;/b&gt;&lt;br&gt;ctg3 129&lt;br&gt;Location: 148502 - 149309" locus_tag="ctg3_129" class="clusterblast-orf" id="dummy-2_q31_0_all"  />
<polygon points="688,35 693,30 702,30 702,40 693,40 688,35 " style="fill:#b1d815; stroke-width:1; stroke:black; " description="&lt;b&gt;ctg3_130&lt;/b&gt;&lt;br&gt;ctg3 130&lt;br&gt;Location: 149347 - 150283" locus_tag="ctg3_130" class="clusterblast-orf" id="dummy-2_q32_0_all"  />
<polygon points="710,40 712,40 717,35 712,30 710,30 710,40 " style="fill:#15d89e; stroke-width:1; stroke:black; " description="&lt;b&gt;ctg3_131&lt;/b&gt;&lt;br&gt;ctg3 131&lt;br&gt;Location: 150816 - 151266" locus_tag="ctg3_131" class="clusterblast-orf" id="dummy-2_q33_0_all"  />
<polygon points="723,40 731,40 736,35 731,30 723,30 723,40 " style="fill:#3c15d8; stroke-width:1; stroke:black; " description="&lt;b&gt;ctg3_132&lt;/b&gt;&lt;br&gt;ctg3 132&lt;br&gt;Location: 151649 - 152543" locus_tag="ctg3_132" class="clusterblast-orf" id="dummy-2_q34_0_all"  />
<polygon points="736,40 741,40 746,35 741,30 736,30 736,40 " style="fill:#d81550; stroke-width:1; stroke:black; " description="&lt;b&gt;ctg3_133&lt;/b&gt;&lt;br&gt;ctg3 133&lt;br&gt;Location: 152539 - 153199" locus_tag="ctg3_133" class="clusterblast-orf" id="dummy-2_q35_0_all"  />
<polygon points="745,35 750,30 759,30 759,40 750,40 745,35 " style="fill:#94d815; stroke-width:1; stroke:black; " description="&lt;b&gt;ctg3_134&lt;/b&gt;&lt;br&gt;ctg3 134&lt;br&gt;Location: 153157 - 154078" locus_tag="ctg3_134" class="clusterblast-orf" id="dummy-2_q36_0_all"  />
<polygon points="760,35 765,30 769,30 769,40 765,40 760,35 " style="fill:#15d8bb; stroke-width:1; stroke:black; " description="&lt;b&gt;ctg3_135&lt;/b&gt;&lt;br&gt;ctg3 135&lt;br&gt;Location: 154169 - 154715" locus_tag="ctg3_135" class="clusterblast-orf" id="dummy-2_q37_0_all"  />
<polygon points="769,35 774,30 774,30 774,40 774,40 769,35 " style="fill:#5915d8; stroke-width:1; stroke:black; " description="&lt;b&gt;ctg3_136&lt;/b&gt;&lt;br&gt;ctg3 136&lt;br&gt;Location: 154747 - 155074" locus_tag="ctg3_136" class="clusterblast-orf" id="dummy-2_q38_0_all"  />
<polygon points="774,35 779,30 780,30 780,40 779,40 774,35 " style="fill:#d81532; stroke-width:1; stroke:black; " description="&lt;b&gt;ctg3_137&lt;/b&gt;&lt;br&gt;ctg3 137&lt;br&gt;Location: 155097 - 155448" locus_tag="ctg3_137" class="clusterblast-orf" id="dummy-2_q39_0_all"  />
</g>
<g label="NZ_LT629704" description="NZ_LT629704 (2781129-2832756): Pseudomonas antarctica strain LMG 22709 chromo... (97% of genes show similarity), NRPS" class="clusterblast-cluster"  >
<text x="5" y="70" class="clusterblast-acc"  >
<a xlink:href="https://antismash-db.secondarymetabolites.org/area.html?record=NZ_LT629704&amp;start=2781129&amp;end=2832756" target="_blank">NZ_LT629704 (2781129-2832756)</a>: Pseudomonas antarctica strain LMG 22709 chromo... (97% of genes show similarity), NRPS</text>
<line x1="10" y1="85" x2="778.0" y2="85" style="stroke-width:1; stroke:grey; "  />
</g>
<g id="a2_000"  >
<polygon points="3,90 10,90 15,85 10,80 3,80 3,90 " style="fill:#77d815; stroke-width:1; stroke:black; " description="&lt;b&gt;BLQ27_RS13080&lt;/b&gt;&lt;br&gt;septum site-determining protein MinD&lt;br&gt;Location: 2832756 - 2831944&lt;br&gt;&lt;br&gt;&lt;b&gt;BlastP hit with ctg3_99&lt;/b&gt;&lt;br&gt;Percentage identity: 99&lt;br&gt;Percentage coverage: 100&lt;br&gt;BLAST bit score: 520&lt;br&gt;E-value: 9.08e-188" locus_tag="BLQ27_RS13080" class="clusterblast-orf" id="dummy-2_h2_5_0"  />
</g>
<g id="a2_001"  >
<polygon points="15,90 19,85 15,80 15,90 " style="fill:#15d8d8; stroke-width:1; stroke:black; " description="&lt;b&gt;BLQ27_RS13075&lt;/b&gt;&lt;br&gt;cell division topological specificity factor MinE&lt;br&gt;Location: 2831940 - 2831686&lt;br&gt;&lt;br&gt;&lt;b&gt;BlastP hit with ctg3_100&lt;/b&gt;&lt;br&gt;Percentage identity: 100&lt;br&gt;Percentage coverage: 100&lt;br&gt;BLAST bit score: 169&lt;br&gt;E-value: 6.09e-55" locus_tag="BLQ27_RS13075" class="clusterblast-orf" id="dummy-2_h2_5_1"  />
</g>
<g id="a2_002"  >
<polygon points="20,90 25,90 30,85 25,80 20,80 20,90 " style="fill:#7715d8; stroke-width:1; stroke:black; " description="&lt;b&gt;BLQ27_RS13070&lt;/b&gt;&lt;br&gt;RluA family pseudouridine synthase&lt;br&gt;Location: 2831588 - 2830953&lt;br&gt;&lt;br&gt;&lt;b&gt;BlastP hit with ctg3_101&lt;/b&gt;&lt;br&gt;Percentage identity: 100&lt;br&gt;Percentage coverage: 100&lt;br&gt;BLAST bit score: 448&lt;br&gt;E-value: 3.1e-161" locus_tag="BLQ27_RS13070" class="clusterblast-orf" id="dummy-2_h2_5_2"  />
</g>
<g id="a2_003"  >
<polygon points="32,90 47,90 52,85 47,80 32,80 32,90 " style="fill:#d83215; stroke-width:1; stroke:black; " description="&lt;b&gt;BLQ27_RS13065&lt;/b&gt;&lt;br&gt;M18 family aminopeptidase&lt;br&gt;Location: 2830782 - 2829493&lt;br&gt;&lt;br&gt;&lt;b&gt;BlastP hit with ctg3_102&lt;/b&gt;&lt;br&gt;Percentage identity: 99&lt;br&gt;Percentage coverage: 100&lt;br&gt;BLAST bit score: 862&lt;br&gt;E-value: 1.5e-317" locus_tag="BLQ27_RS13065" class="clusterblast-orf" id="dummy-2_h2_5_3"  />
</g>
<g id="a2_004"  >
<polygon points="55,90 58,85 55,80 55,90 " style="fill:#59d815; stroke-width:1; stroke:black; " description="&lt;b&gt;BLQ27_RS29905&lt;/b&gt;&lt;br&gt;hypothetical protein&lt;br&gt;Location: 2829271 - 2829095&lt;br&gt;&lt;br&gt;&lt;b&gt;BlastP hit with ctg3_103&lt;/b&gt;&lt;br&gt;Percentage identity: 98&lt;br&gt;Percentage coverage: 100&lt;br&gt;BLAST bit score: 107&lt;br&gt;E-value: 5.27e-31" locus_tag="BLQ27_RS29905" class="clusterblast-orf" id="dummy-2_h2_5_4"  />
</g>
<g id="a2_005"  >
<polygon points="59,90 86,90 91,85 86,80 59,80 59,90 " style="fill:#15bbd8; stroke-width:1; stroke:black; " description="&lt;b&gt;BLQ27_RS13060&lt;/b&gt;&lt;br&gt;mechanosensitive ion channel&lt;br&gt;Location: 2829022 - 2826857&lt;br&gt;&lt;br&gt;&lt;b&gt;BlastP hit with ctg3_104&lt;/b&gt;&lt;br&gt;Percentage identity: 97&lt;br&gt;Percentage coverage: 100&lt;br&gt;BLAST bit score: 1331&lt;br&gt;E-value: 0.0" locus_tag="BLQ27_RS13060" class="clusterblast-orf" id="dummy-2_h2_5_5"  />
</g>
<g id="a2_006"  >
<polygon points="91,90 106,90 111,85 106,80 91,80 91,90 " style="fill:#9415d8; stroke-width:1; stroke:black; " description="&lt;b&gt;BLQ27_RS13055&lt;/b&gt;&lt;br&gt;amidohydrolase&lt;br&gt;Location: 2826840 - 2825494&lt;br&gt;&lt;br&gt;&lt;b&gt;BlastP hit with ctg3_105&lt;/b&gt;&lt;br&gt;Percentage identity: 98&lt;br&gt;Percentage coverage: 100&lt;br&gt;BLAST bit score: 858&lt;br&gt;E-value: 2e-315" locus_tag="BLQ27_RS13055" class="clusterblast-orf" id="dummy-2_h2_5_6"  />
</g>
<g id="a2_007"  >
<polygon points="126,85 130,80 130,90 126,85 " style="fill:#d85015; stroke-width:1; stroke:black; " description="&lt;b&gt;BLQ27_RS13050&lt;/b&gt;&lt;br&gt;MbtH family protein&lt;br&gt;Location: 2824505 - 2824281&lt;br&gt;&lt;br&gt;&lt;b&gt;BlastP hit with ctg3_106&lt;/b&gt;&lt;br&gt;Percentage identity: 97&lt;br&gt;Percentage coverage: 99&lt;br&gt;BLAST bit score: 151&lt;br&gt;E-value: 3.13e-48" locus_tag="BLQ27_RS13050" class="clusterblast-orf" id="dummy-2_h2_5_7"  />
</g>
<g id="a2_008"  >
<polygon points="131,85 136,80 152,80 152,90 136,90 131,85 " style="fill:#3cd815; stroke-width:1; stroke:black; " description="&lt;b&gt;BLQ27_RS13045&lt;/b&gt;&lt;br&gt;aspartate aminotransferase family protein&lt;br&gt;Location: 2824197 - 2822785&lt;br&gt;&lt;br&gt;&lt;b&gt;BlastP hit with ctg3_107&lt;/b&gt;&lt;br&gt;Percentage identity: 95&lt;br&gt;Percentage coverage: 100&lt;br&gt;BLAST bit score: 887&lt;br&gt;E-value: 0.0" locus_tag="BLQ27_RS13045" class="clusterblast-orf" id="dummy-2_h2_5_8"  />
</g>
<g id="a2_009"  >
<polygon points="155,85 160,80 166,80 166,90 160,90 155,85 " style="fill:#159ed8; stroke-width:1; stroke:black; " description="&lt;b&gt;BLQ27_RS13040&lt;/b&gt;&lt;br&gt;N-acetylmuramoyl-L-alanine amidase&lt;br&gt;Location: 2822619 - 2821852&lt;br&gt;&lt;br&gt;&lt;b&gt;BlastP hit with ctg3_108&lt;/b&gt;&lt;br&gt;Percentage identity: 82&lt;br&gt;Percentage coverage: 97&lt;br&gt;BLAST bit score: 343&lt;br&gt;E-value: 1.77e-119" locus_tag="BLQ27_RS13040" class="clusterblast-orf" id="dummy-2_h2_5_9"  />
</g>
<g id="a2_0010"  >
<polygon points="168,85 173,80 188,80 188,90 173,90 168,85 " style="fill:#b115d8; stroke-width:1; stroke:black; " description="&lt;b&gt;BLQ27_RS13035&lt;/b&gt;&lt;br&gt;sensor histidine kinase N-terminal domain-containing protein&lt;br&gt;Location: 2821716 - 2820397&lt;br&gt;&lt;br&gt;&lt;b&gt;BlastP hit with ctg3_109&lt;/b&gt;&lt;br&gt;Percentage identity: 98&lt;br&gt;Percentage coverage: 100&lt;br&gt;BLAST bit score: 824&lt;br&gt;E-value: 2.66e-302" locus_tag="BLQ27_RS13035" class="clusterblast-orf" id="dummy-2_h2_5_10"  />
</g>
<g id="a2_0011"  >
<polygon points="188,85 193,80 198,80 198,90 193,90 188,85 " style="fill:#d86d15; stroke-width:1; stroke:black; " description="&lt;b&gt;BLQ27_RS13030&lt;/b&gt;&lt;br&gt;response regulator transcription factor&lt;br&gt;Location: 2820397 - 2819702&lt;br&gt;&lt;br&gt;&lt;b&gt;BlastP hit with ctg3_110&lt;/b&gt;&lt;br&gt;Percentage identity: 97&lt;br&gt;Percentage coverage: 100&lt;br&gt;BLAST bit score: 431&lt;br&gt;E-value: 7.4e-154" locus_tag="BLQ27_RS13030" class="clusterblast-orf" id="dummy-2_h2_5_11"  />
</g>
<g id="a2_0012"  >
<polygon points="201,90 222,90 227,85 222,80 201,80 201,90 " style="fill:#1fd815; stroke-width:1; stroke:black; " description="&lt;b&gt;BLQ27_RS13025&lt;/b&gt;&lt;br&gt;protein-disulfide reductase DsbD&lt;br&gt;Location: 2819525 - 2817798&lt;br&gt;&lt;br&gt;&lt;b&gt;BlastP hit with ctg3_111&lt;/b&gt;&lt;br&gt;Percentage identity: 94&lt;br&gt;Percentage coverage: 100&lt;br&gt;BLAST bit score: 1059&lt;br&gt;E-value: 0.0" locus_tag="BLQ27_RS13025" class="clusterblast-orf" id="dummy-2_h2_5_12"  />
</g>
<g id="a2_0013"  >
<polygon points="227,90 234,90 239,85 234,80 227,80 227,90 " style="fill:#1580d8; stroke-width:1; stroke:black; " description="&lt;b&gt;BLQ27_RS13020&lt;/b&gt;&lt;br&gt;TlpA family protein disulfide reductase&lt;br&gt;Location: 2817798 - 2816953&lt;br&gt;&lt;br&gt;&lt;b&gt;BlastP hit with ctg3_112&lt;/b&gt;&lt;br&gt;Percentage identity: 94&lt;br&gt;Percentage coverage: 100&lt;br&gt;BLAST bit score: 529&lt;br&gt;E-value: 5.05e-191" locus_tag="BLQ27_RS13020" class="clusterblast-orf" id="dummy-2_h2_5_13"  />
</g>
<g id="a2_0014"  >
<polygon points="239,90 246,90 251,85 246,80 239,80 239,90 " style="fill:#ce15d8; stroke-width:1; stroke:black; " description="&lt;b&gt;BLQ27_RS13015&lt;/b&gt;&lt;br&gt;thiol:disulfide interchange protein DsbG&lt;br&gt;Location: 2816977 - 2816216&lt;br&gt;&lt;br&gt;&lt;b&gt;BlastP hit with ctg3_113&lt;/b&gt;&lt;br&gt;Percentage identity: 93&lt;br&gt;Percentage coverage: 100&lt;br&gt;BLAST bit score: 468&lt;br&gt;E-value: 6.54e-168" locus_tag="BLQ27_RS13015" class="clusterblast-orf" id="dummy-2_h2_5_14"  />
</g>
<g id="a2_0015"  >
<polygon points="254,85 259,80 269,80 269,90 259,90 254,85 " style="fill:#d88a15; stroke-width:1; stroke:black; " description="&lt;b&gt;BLQ27_RS13010&lt;/b&gt;&lt;br&gt;chitinase&lt;br&gt;Location: 2816014 - 2814950&lt;br&gt;&lt;br&gt;&lt;b&gt;BlastP hit with ctg3_114&lt;/b&gt;&lt;br&gt;Percentage identity: 98&lt;br&gt;Percentage coverage: 100&lt;br&gt;BLAST bit score: 718&lt;br&gt;E-value: 2.74e-263" locus_tag="BLQ27_RS13010" class="clusterblast-orf" id="dummy-2_h2_5_15"  />
</g>
<g id="a2_0016"  >
<polygon points="270,85 275,80 280,80 280,90 275,90 270,85 " style="fill:#15d829; stroke-width:1; stroke:black; " description="&lt;b&gt;BLQ27_RS13005&lt;/b&gt;&lt;br&gt;lytic polysaccharide monooxygenase&lt;br&gt;Location: 2814909 - 2814274&lt;br&gt;&lt;br&gt;&lt;b&gt;BlastP hit with ctg3_115&lt;/b&gt;&lt;br&gt;Percentage identity: 98&lt;br&gt;Percentage coverage: 100&lt;br&gt;BLAST bit score: 434&lt;br&gt;E-value: 9.6e-156" locus_tag="BLQ27_RS13005" class="clusterblast-orf" id="dummy-2_h2_5_16"  />
</g>
<g id="a2_0017"  >
<polygon points="286,90 288,85 286,80 286,90 " style="fill:white; stroke-width:1; stroke:black; " description="&lt;b&gt;BLQ27_RS13000&lt;/b&gt;&lt;br&gt;IS5/IS1182 family transposase&lt;br&gt;Location: 2813876 - 2813685" locus_tag="BLQ27_RS13000" class="clusterblast-orf" id="dummy-2_h2_5_17"  />
</g>
<g id="a2_0018"  >
<polygon points="289,85 294,80 483,80 483,90 294,90 289,85 " style="fill:#1563d8; stroke-width:1; stroke:black; " description="&lt;b&gt;BLQ27_RS12995&lt;/b&gt;&lt;br&gt;non-ribosomal peptide synthetase&lt;br&gt;Location: 2813618 - 2800722&lt;br&gt;&lt;br&gt;&lt;b&gt;BlastP hit with ctg3_116&lt;/b&gt;&lt;br&gt;Percentage identity: 93&lt;br&gt;Percentage coverage: 100&lt;br&gt;BLAST bit score: 8018&lt;br&gt;E-value: 0.0" locus_tag="BLQ27_RS12995" class="clusterblast-orf" id="dummy-2_h2_5_18"  />
</g>
<g id="a2_0019"  >
<polygon points="484,85 489,80 495,80 495,90 489,90 484,85 " style="fill:#d815c5; stroke-width:1; stroke:black; " description="&lt;b&gt;BLQ27_RS12990&lt;/b&gt;&lt;br&gt;thioesterase&lt;br&gt;Location: 2800670 - 2799918&lt;br&gt;&lt;br&gt;&lt;b&gt;BlastP hit with ctg3_117&lt;/b&gt;&lt;br&gt;Percentage identity: 94&lt;br&gt;Percentage coverage: 100&lt;br&gt;BLAST bit score: 469&lt;br&gt;E-value: 2.58e-168" locus_tag="BLQ27_RS12990" class="clusterblast-orf" id="dummy-2_h2_5_19"  />
</g>
<g id="a2_0020"  >
<polygon points="499,90 503,90 508,85 503,80 499,80 499,90 " style="fill:#d8a715; stroke-width:1; stroke:black; " description="&lt;b&gt;BLQ27_RS12985&lt;/b&gt;&lt;br&gt;RNA polymerase factor sigma-70&lt;br&gt;Location: 2799619 - 2799068&lt;br&gt;&lt;br&gt;&lt;b&gt;BlastP hit with ctg3_118&lt;/b&gt;&lt;br&gt;Percentage identity: 99&lt;br&gt;Percentage coverage: 100&lt;br&gt;BLAST bit score: 359&lt;br&gt;E-value: 6.13e-127" locus_tag="BLQ27_RS12985" class="clusterblast-orf" id="dummy-2_h2_5_20"  />
</g>
<g id="a2_0021"  >
<polygon points="509,85 514,80 519,80 519,90 514,90 509,85 " style="fill:#15d846; stroke-width:1; stroke:black; " description="&lt;b&gt;BLQ27_RS12980&lt;/b&gt;&lt;br&gt;transporter substrate-binding domain-containing protein&lt;br&gt;Location: 2798998 - 2798273&lt;br&gt;&lt;br&gt;&lt;b&gt;BlastP hit with ctg3_119&lt;/b&gt;&lt;br&gt;Percentage identity: 93&lt;br&gt;Percentage coverage: 92&lt;br&gt;BLAST bit score: 459&lt;br&gt;E-value: 1.95e-164" locus_tag="BLQ27_RS12980" class="clusterblast-orf" id="dummy-2_h2_5_21"  />
</g>
<g id="a2_0022"  >
<polygon points="522,85 527,80 532,80 532,90 527,90 522,85 " style="fill:#1546d8; stroke-width:1; stroke:black; " description="&lt;b&gt;BLQ27_RS12975&lt;/b&gt;&lt;br&gt;TetR family transcriptional regulator&lt;br&gt;Location: 2798088 - 2797465&lt;br&gt;&lt;br&gt;&lt;b&gt;BlastP hit with ctg3_120&lt;/b&gt;&lt;br&gt;Percentage identity: 95&lt;br&gt;Percentage coverage: 100&lt;br&gt;BLAST bit score: 382&lt;br&gt;E-value: 3.85e-135" locus_tag="BLQ27_RS12975" class="clusterblast-orf" id="dummy-2_h2_5_22"  />
</g>
<g id="a2_0023"  >
<polygon points="534,90 555,90 560,85 555,80 534,80 534,90 " style="fill:#d815a7; stroke-width:1; stroke:black; " description="&lt;b&gt;BLQ27_RS12970&lt;/b&gt;&lt;br&gt;DUF1446 domain-containing protein&lt;br&gt;Location: 2797311 - 2795533&lt;br&gt;&lt;br&gt;&lt;b&gt;BlastP hit with ctg3_121&lt;/b&gt;&lt;br&gt;Percentage identity: 94&lt;br&gt;Percentage coverage: 100&lt;br&gt;BLAST bit score: 1125&lt;br&gt;E-value: 0.0" locus_tag="BLQ27_RS12970" class="clusterblast-orf" id="dummy-2_h2_5_23"  />
</g>
<g id="a2_0024"  >
<polygon points="561,90 569,90 574,85 569,80 561,80 561,90 " style="fill:#d8c515; stroke-width:1; stroke:black; " description="&lt;b&gt;BLQ27_RS12965&lt;/b&gt;&lt;br&gt;SDR family oxidoreductase&lt;br&gt;Location: 2795520 - 2794648&lt;br&gt;&lt;br&gt;&lt;b&gt;BlastP hit with ctg3_122&lt;/b&gt;&lt;br&gt;Percentage identity: 95&lt;br&gt;Percentage coverage: 100&lt;br&gt;BLAST bit score: 549&lt;br&gt;E-value: 1.11e-198" locus_tag="BLQ27_RS12965" class="clusterblast-orf" id="dummy-2_h2_5_24"  />
</g>
<g id="a2_0025"  >
<polygon points="574,90 593,90 598,85 593,80 574,80 574,90 " style="fill:#15d863; stroke-width:1; stroke:black; " description="&lt;b&gt;BLQ27_RS12960&lt;/b&gt;&lt;br&gt;acyl-CoA carboxylase subunit beta&lt;br&gt;Location: 2794644 - 2793028&lt;br&gt;&lt;br&gt;&lt;b&gt;BlastP hit with ctg3_123&lt;/b&gt;&lt;br&gt;Percentage identity: 97&lt;br&gt;Percentage coverage: 100&lt;br&gt;BLAST bit score: 1018&lt;br&gt;E-value: 0.0" locus_tag="BLQ27_RS12960" class="clusterblast-orf" id="dummy-2_h2_5_25"  />
</g>
<g id="a2_0026"  >
<polygon points="599,90 611,90 616,85 611,80 599,80 599,90 " style="fill:#1529d8; stroke-width:1; stroke:black; " description="&lt;b&gt;BLQ27_RS12955&lt;/b&gt;&lt;br&gt;acyl-CoA dehydrogenase family protein&lt;br&gt;Location: 2792954 - 2791797&lt;br&gt;&lt;br&gt;&lt;b&gt;BlastP hit with ctg3_124&lt;/b&gt;&lt;br&gt;Percentage identity: 99&lt;br&gt;Percentage coverage: 100&lt;br&gt;BLAST bit score: 774&lt;br&gt;E-value: 2.44e-284" locus_tag="BLQ27_RS12955" class="clusterblast-orf" id="dummy-2_h2_5_26"  />
</g>
<g id="a2_0027"  >
<polygon points="616,90 623,90 628,85 623,80 616,80 616,90 " style="fill:#d8158a; stroke-width:1; stroke:black; " description="&lt;b&gt;BLQ27_RS12950&lt;/b&gt;&lt;br&gt;enoyl-CoA hydratase/isomerase family protein&lt;br&gt;Location: 2791800 - 2791033&lt;br&gt;&lt;br&gt;&lt;b&gt;BlastP hit with ctg3_125&lt;/b&gt;&lt;br&gt;Percentage identity: 93&lt;br&gt;Percentage coverage: 100&lt;br&gt;BLAST bit score: 462&lt;br&gt;E-value: 1.47e-165" locus_tag="BLQ27_RS12950" class="clusterblast-orf" id="dummy-2_h2_5_27"  />
</g>
<g id="a2_0028"  >
<polygon points="630,90 653,90 658,85 653,80 630,80 630,90 " style="fill:#ced815; stroke-width:1; stroke:black; " description="&lt;b&gt;BLQ27_RS12945&lt;/b&gt;&lt;br&gt;acetyl/propionyl/methylcrotonyl-CoA carboxylase subunit alpha&lt;br&gt;Location: 2790922 - 2788994&lt;br&gt;&lt;br&gt;&lt;b&gt;BlastP hit with ctg3_126&lt;/b&gt;&lt;br&gt;Percentage identity: 87&lt;br&gt;Percentage coverage: 96&lt;br&gt;BLAST bit score: 1066&lt;br&gt;E-value: 0.0" locus_tag="BLQ27_RS12945" class="clusterblast-orf" id="dummy-2_h2_5_28"  />
</g>
<g id="a2_0029"  >
<polygon points="659,90 663,90 668,85 663,80 659,80 659,90 " style="fill:#15d880; stroke-width:1; stroke:black; " description="&lt;b&gt;BLQ27_RS12940&lt;/b&gt;&lt;br&gt;3'-5' exoribonuclease&lt;br&gt;Location: 2788927 - 2788385&lt;br&gt;&lt;br&gt;&lt;b&gt;BlastP hit with ctg3_127&lt;/b&gt;&lt;br&gt;Percentage identity: 97&lt;br&gt;Percentage coverage: 100&lt;br&gt;BLAST bit score: 370&lt;br&gt;E-value: 2.62e-131" locus_tag="BLQ27_RS12940" class="clusterblast-orf" id="dummy-2_h2_5_29"  />
</g>
<g id="a2_0030"  >
<polygon points="669,90 673,85 669,80 669,90 " style="fill:#1f15d8; stroke-width:1; stroke:black; " description="&lt;b&gt;BLQ27_RS12935&lt;/b&gt;&lt;br&gt;pyrimidine/purine nucleoside phosphorylase&lt;br&gt;Location: 2788321 - 2788037&lt;br&gt;&lt;br&gt;&lt;b&gt;BlastP hit with ctg3_128&lt;/b&gt;&lt;br&gt;Percentage identity: 98&lt;br&gt;Percentage coverage: 100&lt;br&gt;BLAST bit score: 190&lt;br&gt;E-value: 7.21e-63" locus_tag="BLQ27_RS12935" class="clusterblast-orf" id="dummy-2_h2_5_30"  />
</g>
<g id="a2_0031"  >
<polygon points="674,85 679,80 686,80 686,90 679,90 674,85 " style="fill:#d8156d; stroke-width:1; stroke:black; " description="&lt;b&gt;BLQ27_RS12930&lt;/b&gt;&lt;br&gt;MOSC domain-containing protein&lt;br&gt;Location: 2787971 - 2787165&lt;br&gt;&lt;br&gt;&lt;b&gt;BlastP hit with ctg3_129&lt;/b&gt;&lt;br&gt;Percentage identity: 93&lt;br&gt;Percentage coverage: 100&lt;br&gt;BLAST bit score: 493&lt;br&gt;E-value: 2.56e-177" locus_tag="BLQ27_RS12930" class="clusterblast-orf" id="dummy-2_h2_5_31"  />
</g>
<g id="a2_0032"  >
<polygon points="686,85 691,80 701,80 701,90 691,90 686,85 " style="fill:#b1d815; stroke-width:1; stroke:black; " description="&lt;b&gt;BLQ27_RS12925&lt;/b&gt;&lt;br&gt;chemotaxis protein CheV&lt;br&gt;Location: 2787125 - 2786190&lt;br&gt;&lt;br&gt;&lt;b&gt;BlastP hit with ctg3_130&lt;/b&gt;&lt;br&gt;Percentage identity: 99&lt;br&gt;Percentage coverage: 100&lt;br&gt;BLAST bit score: 598&lt;br&gt;E-value: 2.47e-217" locus_tag="BLQ27_RS12925" class="clusterblast-orf" id="dummy-2_h2_5_32"  />
</g>
<g id="a2_0033"  >
<polygon points="709,90 710,90 715,85 710,80 709,80 709,90 " style="fill:#15d89e; stroke-width:1; stroke:black; " description="&lt;b&gt;BLQ27_RS12920&lt;/b&gt;&lt;br&gt;hypothetical protein&lt;br&gt;Location: 2785655 - 2785206&lt;br&gt;&lt;br&gt;&lt;b&gt;BlastP hit with ctg3_131&lt;/b&gt;&lt;br&gt;Percentage identity: 91&lt;br&gt;Percentage coverage: 99&lt;br&gt;BLAST bit score: 266&lt;br&gt;E-value: 3.75e-91" locus_tag="BLQ27_RS12920" class="clusterblast-orf" id="dummy-2_h2_5_33"  />
</g>
<g id="a2_0034"  >
<polygon points="720,90 729,90 734,85 729,80 720,80 720,90 " style="fill:#3c15d8; stroke-width:1; stroke:black; " description="&lt;b&gt;BLQ27_RS12910&lt;/b&gt;&lt;br&gt;sensor histidine kinase&lt;br&gt;Location: 2784857 - 2783964&lt;br&gt;&lt;br&gt;&lt;b&gt;BlastP hit with ctg3_132&lt;/b&gt;&lt;br&gt;Percentage identity: 94&lt;br&gt;Percentage coverage: 100&lt;br&gt;BLAST bit score: 539&lt;br&gt;E-value: 1.74e-194" locus_tag="BLQ27_RS12910" class="clusterblast-orf" id="dummy-2_h2_5_34"  />
</g>
<g id="a2_0035"  >
<polygon points="734,90 739,90 744,85 739,80 734,80 734,90 " style="fill:#d81550; stroke-width:1; stroke:black; " description="&lt;b&gt;BLQ27_RS12905&lt;/b&gt;&lt;br&gt;response regulator transcription factor&lt;br&gt;Location: 2783967 - 2783308&lt;br&gt;&lt;br&gt;&lt;b&gt;BlastP hit with ctg3_133&lt;/b&gt;&lt;br&gt;Percentage identity: 93&lt;br&gt;Percentage coverage: 100&lt;br&gt;BLAST bit score: 389&lt;br&gt;E-value: 1.73e-137" locus_tag="BLQ27_RS12905" class="clusterblast-orf" id="dummy-2_h2_5_35"  />
</g>
<g id="a2_0036"  >
<polygon points="743,85 748,80 757,80 757,90 748,90 743,85 " style="fill:#94d815; stroke-width:1; stroke:black; " description="&lt;b&gt;BLQ27_RS12900&lt;/b&gt;&lt;br&gt;lipid kinase YegS&lt;br&gt;Location: 2783349 - 2782429&lt;br&gt;&lt;br&gt;&lt;b&gt;BlastP hit with ctg3_134&lt;/b&gt;&lt;br&gt;Percentage identity: 94&lt;br&gt;Percentage coverage: 100&lt;br&gt;BLAST bit score: 573&lt;br&gt;E-value: 1.92e-207" locus_tag="BLQ27_RS12900" class="clusterblast-orf" id="dummy-2_h2_5_36"  />
</g>
<g id="a2_0037"  >
<polygon points="758,85 763,80 766,80 766,90 763,90 758,85 " style="fill:#15d8bb; stroke-width:1; stroke:black; " description="&lt;b&gt;BLQ27_RS12895&lt;/b&gt;&lt;br&gt;hypothetical protein&lt;br&gt;Location: 2782337 - 2781792&lt;br&gt;&lt;br&gt;&lt;b&gt;BlastP hit with ctg3_135&lt;/b&gt;&lt;br&gt;Percentage identity: 86&lt;br&gt;Percentage coverage: 100&lt;br&gt;BLAST bit score: 324&lt;br&gt;E-value: 2.78e-113" locus_tag="BLQ27_RS12895" class="clusterblast-orf" id="dummy-2_h2_5_37"  />
</g>
<g id="a2_0038"  >
<polygon points="767,85 772,80 772,80 772,90 772,90 767,85 " style="fill:#5915d8; stroke-width:1; stroke:black; " description="&lt;b&gt;BLQ27_RS12890&lt;/b&gt;&lt;br&gt;hypothetical protein&lt;br&gt;Location: 2781758 - 2781432&lt;br&gt;&lt;br&gt;&lt;b&gt;BlastP hit with ctg3_136&lt;/b&gt;&lt;br&gt;Percentage identity: 94&lt;br&gt;Percentage coverage: 100&lt;br&gt;BLAST bit score: 205&lt;br&gt;E-value: 2.25e-68" locus_tag="BLQ27_RS12890" class="clusterblast-orf" id="dummy-2_h2_5_38"  />
</g>
<g id="a2_0039"  >
<polygon points="772,85 776,80 776,90 772,85 " style="fill:#d81532; stroke-width:1; stroke:black; " description="&lt;b&gt;BLQ27_RS12885&lt;/b&gt;&lt;br&gt;hypothetical protein&lt;br&gt;Location: 2781408 - 2781130&lt;br&gt;&lt;br&gt;&lt;b&gt;BlastP hit with ctg3_137&lt;/b&gt;&lt;br&gt;Percentage identity: 91&lt;br&gt;Percentage coverage: 78&lt;br&gt;BLAST bit score: 182&lt;br&gt;E-value: 1.33e-59" locus_tag="BLQ27_RS12885" class="clusterblast-orf" id="dummy-2_h2_5_39"  />
</g>
</svg>
