<svg xmlns="http://www.w3.org/2000/svg" xmlns:xlink="http://www.w3.org/1999/xlink" version="1.1" x="0" y="0" height="230" width="800" viewBox="0 0 800 230" preserveAspectRatio="none"  >
<g label="Query sequence" class="clusterblast-cluster"  >
<text x="5" y="20" class="clusterblast-acc"  >
Query sequence</text>
<line x1="10" y1="35" x2="778.0" y2="35" style="stroke-width:1; stroke:grey; "  />
<polygon points="0,40 21,40 26,35 21,30 0,30 0,40 " style="fill:#d81515; stroke-width:1; stroke:black; " description="&lt;b&gt;ctg1_141&lt;/b&gt;&lt;br&gt;ctg1 141&lt;br&gt;Location: 125201 - 126701" locus_tag="ctg1_141" class="clusterblast-orf" id="dummy-1_q0_0_all"  />
<polygon points="25,40 31,40 36,35 31,30 25,30 25,40 " style="fill:#65d815; stroke-width:1; stroke:black; " description="&lt;b&gt;ctg1_142&lt;/b&gt;&lt;br&gt;ctg1 142&lt;br&gt;Location: 126663 - 127260" locus_tag="ctg1_142" class="clusterblast-orf" id="dummy-1_q1_0_all"  />
<polygon points="38,40 49,40 54,35 49,30 38,30 38,40 " style="fill:#15b6d8; stroke-width:1; stroke:black; " description="&lt;b&gt;ctg1_143&lt;/b&gt;&lt;br&gt;ctg1 143&lt;br&gt;Location: 127371 - 128313" locus_tag="ctg1_143" class="clusterblast-orf" id="dummy-1_q2_0_all"  />
<polygon points="55,35 60,30 69,30 69,40 60,40 55,35 " style="fill:#8815d8; stroke-width:1; stroke:black; " description="&lt;b&gt;ctg1_144&lt;/b&gt;&lt;br&gt;ctg1 144&lt;br&gt;Location: 128374 - 129130" locus_tag="ctg1_144" class="clusterblast-orf" id="dummy-1_q3_0_all"  />
<polygon points="69,35 74,30 83,30 83,40 74,40 69,35 " style="fill:#d83815; stroke-width:1; stroke:black; " description="&lt;b&gt;ctg1_145&lt;/b&gt;&lt;br&gt;ctg1 145&lt;br&gt;Location: 129119 - 129923" locus_tag="ctg1_145" class="clusterblast-orf" id="dummy-1_q4_0_all"  />
<polygon points="82,35 87,30 97,30 97,40 87,40 82,35 " style="fill:#43d815; stroke-width:1; stroke:black; " description="&lt;b&gt;ctg1_146&lt;/b&gt;&lt;br&gt;ctg1 146&lt;br&gt;Location: 129915 - 130737" locus_tag="ctg1_146" class="clusterblast-orf" id="dummy-1_q5_0_all"  />
<polygon points="97,35 102,30 104,30 104,40 102,40 97,35 " style="fill:#1593d8; stroke-width:1; stroke:black; " description="&lt;b&gt;ctg1_147&lt;/b&gt;&lt;br&gt;ctg1 147&lt;br&gt;Location: 130749 - 131115" locus_tag="ctg1_147" class="clusterblast-orf" id="dummy-1_q6_0_all"  />
<polygon points="104,35 109,30 127,30 127,40 109,40 104,35 " style="fill:#aa15d8; stroke-width:1; stroke:black; " description="&lt;b&gt;ctg1_148&lt;/b&gt;&lt;br&gt;ctg1 148&lt;br&gt;Location: 131144 - 132443" locus_tag="ctg1_148" class="clusterblast-orf" id="dummy-1_q7_0_all"  />
<polygon points="131,40 133,40 138,35 133,30 131,30 131,40 " style="fill:#d85a15; stroke-width:1; stroke:black; " description="&lt;b&gt;ctg1_149&lt;/b&gt;&lt;br&gt;ctg1 149&lt;br&gt;Location: 132651 - 133074" locus_tag="ctg1_149" class="clusterblast-orf" id="dummy-1_q8_0_all"  />
<polygon points="140,35 145,30 154,30 154,40 145,40 140,35 " style="fill:#21d815; stroke-width:1; stroke:black; " description="&lt;b&gt;ctg1_150&lt;/b&gt;&lt;br&gt;ctg1 150&lt;br&gt;Location: 133199 - 134000" locus_tag="ctg1_150" class="clusterblast-orf" id="dummy-1_q9_0_all"  />
<polygon points="155,35 160,30 169,30 169,40 160,40 155,35 " style="fill:#1571d8; stroke-width:1; stroke:black; " description="&lt;b&gt;ctg1_151&lt;/b&gt;&lt;br&gt;ctg1 151&lt;br&gt;Location: 134015 - 134819" locus_tag="ctg1_151" class="clusterblast-orf" id="dummy-1_q10_0_all"  />
<polygon points="169,35 174,30 192,30 192,40 174,40 169,35 " style="fill:#cd15d8; stroke-width:1; stroke:black; " description="&lt;b&gt;ctg1_152&lt;/b&gt;&lt;br&gt;ctg1 152&lt;br&gt;Location: 134830 - 136135" locus_tag="ctg1_152" class="clusterblast-orf" id="dummy-1_q11_0_all"  />
<polygon points="193,35 198,30 199,30 199,40 198,40 193,35 " style="fill:#d87c15; stroke-width:1; stroke:black; " description="&lt;b&gt;ctg1_153&lt;/b&gt;&lt;br&gt;ctg1 153&lt;br&gt;Location: 136180 - 136573" locus_tag="ctg1_153" class="clusterblast-orf" id="dummy-1_q12_0_all"  />
<polygon points="200,35 205,30 215,30 215,40 205,40 200,35 " style="fill:#15d82c; stroke-width:1; stroke:black; " description="&lt;b&gt;ctg1_154&lt;/b&gt;&lt;br&gt;ctg1 154&lt;br&gt;Location: 136588 - 137446" locus_tag="ctg1_154" class="clusterblast-orf" id="dummy-1_q13_0_all"  />
<polygon points="216,35 221,30 241,30 241,40 221,40 216,35 " style="fill:#154fd8; stroke-width:1; stroke:black; " description="&lt;b&gt;ctg1_155&lt;/b&gt;&lt;br&gt;ctg1 155&lt;br&gt;Location: 137492 - 138953" locus_tag="ctg1_155" class="clusterblast-orf" id="dummy-1_q14_0_all"  />
<polygon points="241,35 246,30 255,30 255,40 246,40 241,35 " style="fill:#d815c1; stroke-width:1; stroke:black; " description="&lt;b&gt;ctg1_156&lt;/b&gt;&lt;br&gt;ctg1 156&lt;br&gt;Location: 138958 - 139729" locus_tag="ctg1_156" class="clusterblast-orf" id="dummy-1_q15_0_all"  />
<polygon points="255,35 260,30 267,30 267,40 260,40 255,35 " style="fill:#d815c1; stroke-width:1; stroke:black; " description="&lt;b&gt;ctg1_157&lt;/b&gt;&lt;br&gt;ctg1 157&lt;br&gt;Location: 139725 - 140391" locus_tag="ctg1_157" class="clusterblast-orf" id="dummy-1_q16_0_all"  />
<polygon points="269,40 279,40 284,35 279,30 269,30 269,40 " style="fill:#d89f15; stroke-width:1; stroke:black; " description="&lt;b&gt;ctg1_158&lt;/b&gt;&lt;br&gt;ctg1 158&lt;br&gt;Location: 140519 - 141380" locus_tag="ctg1_158" class="clusterblast-orf" id="dummy-1_q17_0_all"  />
<polygon points="283,35 288,30 308,30 308,40 288,40 283,35 " style="fill:#15d84f; stroke-width:1; stroke:black; " description="&lt;b&gt;ctg1_159&lt;/b&gt;&lt;br&gt;ctg1 159&lt;br&gt;Location: 141306 - 142776" locus_tag="ctg1_159" class="clusterblast-orf" id="dummy-1_q18_0_all"  />
<polygon points="308,35 313,30 322,30 322,40 313,40 308,35 " style="fill:#152cd8; stroke-width:1; stroke:black; " description="&lt;b&gt;ctg1_160&lt;/b&gt;&lt;br&gt;ctg1 160&lt;br&gt;Location: 142775 - 143570" locus_tag="ctg1_160" class="clusterblast-orf" id="dummy-1_q19_0_all"  />
<polygon points="331,40 436,40 441,35 436,30 331,30 331,40 " style="fill:#d8159f; stroke-width:1; stroke:black; " description="&lt;b&gt;ctg1_161&lt;/b&gt;&lt;br&gt;ctg1 161&lt;br&gt;Location: 144057 - 150327" locus_tag="ctg1_161" class="clusterblast-orf" id="dummy-1_q20_0_all"  />
<polygon points="442,35 447,30 469,30 469,40 447,40 442,35 " style="fill:#d8c115; stroke-width:1; stroke:black; " description="&lt;b&gt;ctg1_162&lt;/b&gt;&lt;br&gt;ctg1 162&lt;br&gt;Location: 150382 - 151900" locus_tag="ctg1_162" class="clusterblast-orf" id="dummy-1_q21_0_all"  />
<polygon points="469,35 474,30 498,30 498,40 474,40 469,35 " style="fill:#15d871; stroke-width:1; stroke:black; " description="&lt;b&gt;ctg1_163&lt;/b&gt;&lt;br&gt;ctg1 163&lt;br&gt;Location: 151926 - 153582" locus_tag="ctg1_163" class="clusterblast-orf" id="dummy-1_q22_0_all"  />
<polygon points="502,35 507,30 513,30 513,40 507,40 502,35 " style="fill:#2115d8; stroke-width:1; stroke:black; " description="&lt;b&gt;ctg1_164&lt;/b&gt;&lt;br&gt;ctg1 164&lt;br&gt;Location: 153771 - 154446" locus_tag="ctg1_164" class="clusterblast-orf" id="dummy-1_q23_0_all"  />
<polygon points="518,40 525,40 530,35 525,30 518,30 518,40 " style="fill:#d8157c; stroke-width:1; stroke:black; " description="&lt;b&gt;ctg1_165&lt;/b&gt;&lt;br&gt;ctg1 165&lt;br&gt;Location: 154720 - 155389" locus_tag="ctg1_165" class="clusterblast-orf" id="dummy-1_q24_0_all"  />
<polygon points="529,40 568,40 573,35 568,30 529,30 529,40 " style="fill:#cdd815; stroke-width:1; stroke:black; " description="&lt;b&gt;ctg1_166&lt;/b&gt;&lt;br&gt;ctg1 166&lt;br&gt;Location: 155357 - 157853" locus_tag="ctg1_166" class="clusterblast-orf" id="dummy-1_q25_0_all"  />
<polygon points="573,40 587,40 592,35 587,30 573,30 573,40 " style="fill:#15d893; stroke-width:1; stroke:black; " description="&lt;b&gt;ctg1_167&lt;/b&gt;&lt;br&gt;ctg1 167&lt;br&gt;Location: 157842 - 158907" locus_tag="ctg1_167" class="clusterblast-orf" id="dummy-1_q26_0_all"  />
<polygon points="594,40 615,40 620,35 615,30 594,30 594,40 " style="fill:#4315d8; stroke-width:1; stroke:black; " description="&lt;b&gt;ctg1_168&lt;/b&gt;&lt;br&gt;ctg1 168&lt;br&gt;Location: 159057 - 160500" locus_tag="ctg1_168" class="clusterblast-orf" id="dummy-1_q27_0_all"  />
<polygon points="621,35 626,30 640,30 640,40 626,40 621,35 " style="fill:#d8155a; stroke-width:1; stroke:black; " description="&lt;b&gt;ctg1_169&lt;/b&gt;&lt;br&gt;ctg1 169&lt;br&gt;Location: 160550 - 161651" locus_tag="ctg1_169" class="clusterblast-orf" id="dummy-1_q28_0_all"  />
<polygon points="640,35 645,30 652,30 652,40 645,40 640,35 " style="fill:#aad815; stroke-width:1; stroke:black; " description="&lt;b&gt;ctg1_170&lt;/b&gt;&lt;br&gt;ctg1 170&lt;br&gt;Location: 161653 - 162325" locus_tag="ctg1_170" class="clusterblast-orf" id="dummy-1_q29_0_all"  />
<polygon points="657,40 669,40 674,35 669,30 657,30 657,40 " style="fill:#15d8b6; stroke-width:1; stroke:black; " description="&lt;b&gt;ctg1_171&lt;/b&gt;&lt;br&gt;ctg1 171&lt;br&gt;Location: 162642 - 163566" locus_tag="ctg1_171" class="clusterblast-orf" id="dummy-1_q30_0_all"  />
<polygon points="675,40 696,40 701,35 696,30 675,30 675,40 " style="fill:#6615d8; stroke-width:1; stroke:black; " description="&lt;b&gt;ctg1_172&lt;/b&gt;&lt;br&gt;ctg1 172&lt;br&gt;Location: 163629 - 165138" locus_tag="ctg1_172" class="clusterblast-orf" id="dummy-1_q31_0_all"  />
<polygon points="701,40 713,40 718,35 713,30 701,30 701,40 " style="fill:#d81538; stroke-width:1; stroke:black; " description="&lt;b&gt;ctg1_173&lt;/b&gt;&lt;br&gt;ctg1 173&lt;br&gt;Location: 165103 - 166096" locus_tag="ctg1_173" class="clusterblast-orf" id="dummy-1_q32_0_all"  />
<polygon points="719,40 733,40 738,35 733,30 719,30 719,40 " style="fill:#88d815; stroke-width:1; stroke:black; " description="&lt;b&gt;ctg1_174&lt;/b&gt;&lt;br&gt;ctg1 174&lt;br&gt;Location: 166123 - 167203" locus_tag="ctg1_174" class="clusterblast-orf" id="dummy-1_q33_0_all"  />
<polygon points="738,40 760,40 765,35 760,30 738,30 738,40 " style="fill:#15d8d8; stroke-width:1; stroke:black; " description="&lt;b&gt;ctg1_175&lt;/b&gt;&lt;br&gt;ctg1 175&lt;br&gt;Location: 167216 - 168737" locus_tag="ctg1_175" class="clusterblast-orf" id="dummy-1_q34_0_all"  />
<polygon points="767,40 775,40 780,35 775,30 767,30 767,40 " style="fill:#d83815; stroke-width:1; stroke:black; " description="&lt;b&gt;ctg1_176&lt;/b&gt;&lt;br&gt;ctg1 176&lt;br&gt;Location: 168873 - 169599" locus_tag="ctg1_176" class="clusterblast-orf" id="dummy-1_q35_0_all"  />
</g>
<g label="NZ_AYTD01000013" description="NZ_AYTD01000013 (501962-546190): Pseudomonas canadensis strain Feb-92 scaffol... (97% of genes show similarity), NRPS" class="clusterblast-cluster"  >
<text x="5" y="70" class="clusterblast-acc"  >
<a xlink:href="https://antismash-db.secondarymetabolites.org/area.html?record=NZ_AYTD01000013&amp;start=501962&amp;end=546190" target="_blank">NZ_AYTD01000013 (501962-546190)</a>: Pseudomonas canadensis strain Feb-92 scaffol... (97% of genes show similarity), NRPS</text>
<line x1="10" y1="85" x2="778.0" y2="85" style="stroke-width:1; stroke:grey; "  />
</g>
<g id="a1_000"  >
<polygon points="1,90 22,90 27,85 22,80 1,80 1,90 " style="fill:#d81515; stroke-width:1; stroke:black; " description="&lt;b&gt;U367_RS0111355&lt;/b&gt;&lt;br&gt;APC family permease&lt;br&gt;Location: 546190 - 544691&lt;br&gt;&lt;br&gt;&lt;b&gt;BlastP hit with ctg1_141&lt;/b&gt;&lt;br&gt;Percentage identity: 96&lt;br&gt;Percentage coverage: 100&lt;br&gt;BLAST bit score: 928&lt;br&gt;E-value: 0.0" locus_tag="U367_RS0111355" class="clusterblast-orf" id="dummy-1_h1_6_0"  />
</g>
<g id="a1_001"  >
<polygon points="27,90 32,90 37,85 32,80 27,80 27,90 " style="fill:#65d815; stroke-width:1; stroke:black; " description="&lt;b&gt;U367_RS0111350&lt;/b&gt;&lt;br&gt;DUF3156 family protein&lt;br&gt;Location: 544728 - 544162&lt;br&gt;&lt;br&gt;&lt;b&gt;BlastP hit with ctg1_142&lt;/b&gt;&lt;br&gt;Percentage identity: 78&lt;br&gt;Percentage coverage: 100&lt;br&gt;BLAST bit score: 291&lt;br&gt;E-value: 6.25e-100" locus_tag="U367_RS0111350" class="clusterblast-orf" id="dummy-1_h1_6_1"  />
</g>
<g id="a1_002"  >
<polygon points="39,90 50,90 55,85 50,80 39,80 39,90 " style="fill:#15b6d8; stroke-width:1; stroke:black; " description="&lt;b&gt;U367_RS0111345&lt;/b&gt;&lt;br&gt;transcriptional regulator FeaR&lt;br&gt;Location: 544048 - 543107&lt;br&gt;&lt;br&gt;&lt;b&gt;BlastP hit with ctg1_143&lt;/b&gt;&lt;br&gt;Percentage identity: 96&lt;br&gt;Percentage coverage: 100&lt;br&gt;BLAST bit score: 603&lt;br&gt;E-value: 4.27e-219" locus_tag="U367_RS0111345" class="clusterblast-orf" id="dummy-1_h1_6_2"  />
</g>
<g id="a1_003"  >
<polygon points="58,85 63,80 71,80 71,90 63,90 58,85 " style="fill:#8815d8; stroke-width:1; stroke:black; " description="&lt;b&gt;U367_RS0111340&lt;/b&gt;&lt;br&gt;SDR family oxidoreductase&lt;br&gt;Location: 542971 - 542213&lt;br&gt;&lt;br&gt;&lt;b&gt;BlastP hit with ctg1_144&lt;/b&gt;&lt;br&gt;Percentage identity: 89&lt;br&gt;Percentage coverage: 100&lt;br&gt;BLAST bit score: 421&lt;br&gt;E-value: 4.58e-149" locus_tag="U367_RS0111340" class="clusterblast-orf" id="dummy-1_h1_6_3"  />
</g>
<g id="a1_004"  >
<polygon points="71,85 76,80 85,80 85,90 76,90 71,85 " style="fill:#d83815; stroke-width:1; stroke:black; " description="&lt;b&gt;U367_RS0111335&lt;/b&gt;&lt;br&gt;SDR family oxidoreductase&lt;br&gt;Location: 542226 - 541426&lt;br&gt;&lt;br&gt;&lt;b&gt;BlastP hit with ctg1_145&lt;/b&gt;&lt;br&gt;Percentage identity: 91&lt;br&gt;Percentage coverage: 99&lt;br&gt;BLAST bit score: 484&lt;br&gt;E-value: 1.48e-173" locus_tag="U367_RS0111335" class="clusterblast-orf" id="dummy-1_h1_6_4"  />
</g>
<g id="a1_005"  >
<polygon points="85,85 90,80 99,80 99,90 90,90 85,85 " style="fill:#43d815; stroke-width:1; stroke:black; " description="&lt;b&gt;U367_RS0111330&lt;/b&gt;&lt;br&gt;molybdenum cofactor biosynthesis F family protein&lt;br&gt;Location: 541433 - 540612&lt;br&gt;&lt;br&gt;&lt;b&gt;BlastP hit with ctg1_146&lt;/b&gt;&lt;br&gt;Percentage identity: 93&lt;br&gt;Percentage coverage: 100&lt;br&gt;BLAST bit score: 545&lt;br&gt;E-value: 1.41e-197" locus_tag="U367_RS0111330" class="clusterblast-orf" id="dummy-1_h1_6_5"  />
</g>
<g id="a1_006"  >
<polygon points="99,85 104,80 106,80 106,90 104,90 99,85 " style="fill:#1593d8; stroke-width:1; stroke:black; " description="&lt;b&gt;U367_RS0111325&lt;/b&gt;&lt;br&gt;DUF861 domain-containing protein&lt;br&gt;Location: 540598 - 540233&lt;br&gt;&lt;br&gt;&lt;b&gt;BlastP hit with ctg1_147&lt;/b&gt;&lt;br&gt;Percentage identity: 93&lt;br&gt;Percentage coverage: 99&lt;br&gt;BLAST bit score: 232&lt;br&gt;E-value: 8.66e-79" locus_tag="U367_RS0111325" class="clusterblast-orf" id="dummy-1_h1_6_6"  />
</g>
<g id="a1_007"  >
<polygon points="108,85 113,80 131,80 131,90 113,90 108,85 " style="fill:#aa15d8; stroke-width:1; stroke:black; " description="&lt;b&gt;U367_RS0111320&lt;/b&gt;&lt;br&gt;FAD-binding oxidoreductase&lt;br&gt;Location: 540096 - 538798&lt;br&gt;&lt;br&gt;&lt;b&gt;BlastP hit with ctg1_148&lt;/b&gt;&lt;br&gt;Percentage identity: 97&lt;br&gt;Percentage coverage: 100&lt;br&gt;BLAST bit score: 862&lt;br&gt;E-value: 1.49e-317" locus_tag="U367_RS0111320" class="clusterblast-orf" id="dummy-1_h1_6_7"  />
</g>
<g id="a1_008"  >
<polygon points="134,90 137,90 142,85 137,80 134,80 134,90 " style="fill:#d85a15; stroke-width:1; stroke:black; " description="&lt;b&gt;U367_RS0111315&lt;/b&gt;&lt;br&gt;homoprotocatechuate degradation operon regulator HpaR&lt;br&gt;Location: 538591 - 538163&lt;br&gt;&lt;br&gt;&lt;b&gt;BlastP hit with ctg1_149&lt;/b&gt;&lt;br&gt;Percentage identity: 94&lt;br&gt;Percentage coverage: 99&lt;br&gt;BLAST bit score: 253&lt;br&gt;E-value: 2.21e-86" locus_tag="U367_RS0111315" class="clusterblast-orf" id="dummy-1_h1_6_8"  />
</g>
<g id="a1_009"  >
<polygon points="143,85 148,80 158,80 158,90 148,90 143,85 " style="fill:#21d815; stroke-width:1; stroke:black; " description="&lt;b&gt;U367_RS0111310&lt;/b&gt;&lt;br&gt;4-hydroxy-2-oxoheptanedioate aldolase&lt;br&gt;Location: 538079 - 537279&lt;br&gt;&lt;br&gt;&lt;b&gt;BlastP hit with ctg1_150&lt;/b&gt;&lt;br&gt;Percentage identity: 90&lt;br&gt;Percentage coverage: 100&lt;br&gt;BLAST bit score: 466&lt;br&gt;E-value: 1.45e-166" locus_tag="U367_RS0111310" class="clusterblast-orf" id="dummy-1_h1_6_9"  />
</g>
<g id="a1_0010"  >
<polygon points="158,85 163,80 172,80 172,90 163,90 158,85 " style="fill:#1571d8; stroke-width:1; stroke:black; " description="&lt;b&gt;U367_RS0111305&lt;/b&gt;&lt;br&gt;2-oxo-hepta-3-ene-1,7-dioic acid hydratase&lt;br&gt;Location: 537262 - 536459&lt;br&gt;&lt;br&gt;&lt;b&gt;BlastP hit with ctg1_151&lt;/b&gt;&lt;br&gt;Percentage identity: 95&lt;br&gt;Percentage coverage: 100&lt;br&gt;BLAST bit score: 509&lt;br&gt;E-value: 9.41e-184" locus_tag="U367_RS0111305" class="clusterblast-orf" id="dummy-1_h1_6_10"  />
</g>
<g id="a1_0011"  >
<polygon points="172,85 177,80 195,80 195,90 177,90 172,85 " style="fill:#cd15d8; stroke-width:1; stroke:black; " description="&lt;b&gt;U367_RS0111300&lt;/b&gt;&lt;br&gt;MFS transporter&lt;br&gt;Location: 536447 - 535143&lt;br&gt;&lt;br&gt;&lt;b&gt;BlastP hit with ctg1_152&lt;/b&gt;&lt;br&gt;Percentage identity: 95&lt;br&gt;Percentage coverage: 100&lt;br&gt;BLAST bit score: 815&lt;br&gt;E-value: 7.85e-299" locus_tag="U367_RS0111300" class="clusterblast-orf" id="dummy-1_h1_6_11"  />
</g>
<g id="a1_0012"  >
<polygon points="196,85 201,80 203,80 203,90 201,90 196,85 " style="fill:#d87c15; stroke-width:1; stroke:black; " description="&lt;b&gt;U367_RS0111295&lt;/b&gt;&lt;br&gt;5-carboxymethyl-2-hydroxymuconate Delta-isomerase&lt;br&gt;Location: 535096 - 534704&lt;br&gt;&lt;br&gt;&lt;b&gt;BlastP hit with ctg1_153&lt;/b&gt;&lt;br&gt;Percentage identity: 93&lt;br&gt;Percentage coverage: 100&lt;br&gt;BLAST bit score: 253&lt;br&gt;E-value: 9.8e-87" locus_tag="U367_RS0111295" class="clusterblast-orf" id="dummy-1_h1_6_12"  />
</g>
<g id="a1_0013"  >
<polygon points="203,85 208,80 218,80 218,90 208,90 203,85 " style="fill:#15d82c; stroke-width:1; stroke:black; " description="&lt;b&gt;U367_RS0111290&lt;/b&gt;&lt;br&gt;3,4-dihydroxyphenylacetate 2,3-dioxygenase&lt;br&gt;Location: 534688 - 533831&lt;br&gt;&lt;br&gt;&lt;b&gt;BlastP hit with ctg1_154&lt;/b&gt;&lt;br&gt;Percentage identity: 95&lt;br&gt;Percentage coverage: 100&lt;br&gt;BLAST bit score: 568&lt;br&gt;E-value: 1.79e-206" locus_tag="U367_RS0111290" class="clusterblast-orf" id="dummy-1_h1_6_13"  />
</g>
<g id="a1_0014"  >
<polygon points="221,85 226,80 246,80 246,90 226,90 221,85 " style="fill:#154fd8; stroke-width:1; stroke:black; " description="&lt;b&gt;U367_RS0111285&lt;/b&gt;&lt;br&gt;5-carboxymethyl-2-hydroxymuconate semialdehyde dehydrogenase&lt;br&gt;Location: 533676 - 532216&lt;br&gt;&lt;br&gt;&lt;b&gt;BlastP hit with ctg1_155&lt;/b&gt;&lt;br&gt;Percentage identity: 99&lt;br&gt;Percentage coverage: 100&lt;br&gt;BLAST bit score: 962&lt;br&gt;E-value: 0.0" locus_tag="U367_RS0111285" class="clusterblast-orf" id="dummy-1_h1_6_14"  />
</g>
<g id="a1_0015"  >
<polygon points="247,85 252,80 260,80 260,90 252,90 247,85 " style="fill:#d815c1; stroke-width:1; stroke:black; " description="&lt;b&gt;U367_RS0111280&lt;/b&gt;&lt;br&gt;fumarylacetoacetate hydrolase family protein&lt;br&gt;Location: 532210 - 531440&lt;br&gt;&lt;br&gt;&lt;b&gt;BlastP hit with ctg1_156&lt;/b&gt;&lt;br&gt;Percentage identity: 94&lt;br&gt;Percentage coverage: 100&lt;br&gt;BLAST bit score: 491&lt;br&gt;E-value: 5.89e-177&lt;br&gt;&lt;br&gt;&lt;b&gt;BlastP hit with ctg1_157&lt;/b&gt;&lt;br&gt;Percentage identity: 41&lt;br&gt;Percentage coverage: 97&lt;br&gt;BLAST bit score: 147&lt;br&gt;E-value: 7.84e-42" locus_tag="U367_RS0111280" class="clusterblast-orf" id="dummy-1_h1_6_15"  />
</g>
<g id="a1_0016"  >
<polygon points="260,85 265,80 272,80 272,90 265,90 260,85 " style="fill:#d815c1; stroke-width:1; stroke:black; " description="&lt;b&gt;U367_RS0111275&lt;/b&gt;&lt;br&gt;fumarylacetoacetate hydrolase family protein&lt;br&gt;Location: 531443 - 530778&lt;br&gt;&lt;br&gt;&lt;b&gt;BlastP hit with ctg1_156&lt;/b&gt;&lt;br&gt;Percentage identity: 43&lt;br&gt;Percentage coverage: 83&lt;br&gt;BLAST bit score: 159&lt;br&gt;E-value: 1.45e-46&lt;br&gt;&lt;br&gt;&lt;b&gt;BlastP hit with ctg1_157&lt;/b&gt;&lt;br&gt;Percentage identity: 88&lt;br&gt;Percentage coverage: 99&lt;br&gt;BLAST bit score: 389&lt;br&gt;E-value: 9.99e-138" locus_tag="U367_RS0111275" class="clusterblast-orf" id="dummy-1_h1_6_16"  />
</g>
<g id="a1_0017"  >
<polygon points="274,90 284,90 289,85 284,80 274,80 274,90 " style="fill:#d89f15; stroke-width:1; stroke:black; " description="&lt;b&gt;U367_RS0111270&lt;/b&gt;&lt;br&gt;4-hydroxyphenylacetate catabolism regulatory protein HpaA&lt;br&gt;Location: 530650 - 529790&lt;br&gt;&lt;br&gt;&lt;b&gt;BlastP hit with ctg1_158&lt;/b&gt;&lt;br&gt;Percentage identity: 91&lt;br&gt;Percentage coverage: 100&lt;br&gt;BLAST bit score: 524&lt;br&gt;E-value: 6.57e-189" locus_tag="U367_RS0111270" class="clusterblast-orf" id="dummy-1_h1_6_17"  />
</g>
<g id="a1_0018"  >
<polygon points="288,85 293,80 313,80 313,90 293,90 288,85 " style="fill:#15d84f; stroke-width:1; stroke:black; " description="&lt;b&gt;U367_RS0111265&lt;/b&gt;&lt;br&gt;efflux transporter outer membrane subunit&lt;br&gt;Location: 529863 - 528412&lt;br&gt;&lt;br&gt;&lt;b&gt;BlastP hit with ctg1_159&lt;/b&gt;&lt;br&gt;Percentage identity: 87&lt;br&gt;Percentage coverage: 100&lt;br&gt;BLAST bit score: 806&lt;br&gt;E-value: 7.02e-294" locus_tag="U367_RS0111265" class="clusterblast-orf" id="dummy-1_h1_6_18"  />
</g>
<g id="a1_0019"  >
<polygon points="313,85 318,80 327,80 327,90 318,90 313,85 " style="fill:#152cd8; stroke-width:1; stroke:black; " description="&lt;b&gt;U367_RS0111260&lt;/b&gt;&lt;br&gt;helix-turn-helix transcriptional regulator&lt;br&gt;Location: 528412 - 527621&lt;br&gt;&lt;br&gt;&lt;b&gt;BlastP hit with ctg1_160&lt;/b&gt;&lt;br&gt;Percentage identity: 81&lt;br&gt;Percentage coverage: 100&lt;br&gt;BLAST bit score: 413&lt;br&gt;E-value: 1.27e-145" locus_tag="U367_RS0111260" class="clusterblast-orf" id="dummy-1_h1_6_19"  />
</g>
<g id="a1_0020"  >
<polygon points="336,90 440,90 445,85 440,80 336,80 336,90 " style="fill:#d8159f; stroke-width:1; stroke:black; " description="&lt;b&gt;U367_RS0111255&lt;/b&gt;&lt;br&gt;non-ribosomal peptide synthetase&lt;br&gt;Location: 527130 - 520921&lt;br&gt;&lt;br&gt;&lt;b&gt;BlastP hit with ctg1_161&lt;/b&gt;&lt;br&gt;Percentage identity: 84&lt;br&gt;Percentage coverage: 100&lt;br&gt;BLAST bit score: 3487&lt;br&gt;E-value: 0.0" locus_tag="U367_RS0111255" class="clusterblast-orf" id="dummy-1_h1_6_20"  />
</g>
<g id="a1_0021"  >
<polygon points="453,85 458,80 458,80 458,90 458,90 453,85 " style="fill:white; stroke-width:1; stroke:black; " description="&lt;b&gt;U367_RS0111245&lt;/b&gt;&lt;br&gt;hypothetical protein&lt;br&gt;Location: 520469 - 520161" locus_tag="U367_RS0111245" class="clusterblast-orf" id="dummy-1_h1_6_21"  />
</g>
<g id="a1_0022"  >
<polygon points="468,90 479,90 484,85 479,80 468,80 468,90 " style="fill:#6615d8; stroke-width:1; stroke:black; " description="&lt;b&gt;U367_RS0111240&lt;/b&gt;&lt;br&gt;sugar ABC transporter ATP-binding protein&lt;br&gt;Location: 519604 - 518678&lt;br&gt;&lt;br&gt;&lt;b&gt;BlastP hit with ctg1_172&lt;/b&gt;&lt;br&gt;Percentage identity: 36&lt;br&gt;Percentage coverage: 43&lt;br&gt;BLAST bit score: 128&lt;br&gt;E-value: 2.05e-31" locus_tag="U367_RS0111240" class="clusterblast-orf" id="dummy-1_h1_6_22"  />
</g>
<g id="a1_0023"  >
<polygon points="484,85 489,80 511,80 511,90 489,90 484,85 " style="fill:#d8c115; stroke-width:1; stroke:black; " description="&lt;b&gt;U367_RS0111235&lt;/b&gt;&lt;br&gt;glycosyltransferase family 39 protein&lt;br&gt;Location: 518674 - 517154&lt;br&gt;&lt;br&gt;&lt;b&gt;BlastP hit with ctg1_162&lt;/b&gt;&lt;br&gt;Percentage identity: 86&lt;br&gt;Percentage coverage: 99&lt;br&gt;BLAST bit score: 918&lt;br&gt;E-value: 0.0" locus_tag="U367_RS0111235" class="clusterblast-orf" id="dummy-1_h1_6_23"  />
</g>
<g id="a1_0024"  >
<polygon points="511,85 516,80 540,80 540,90 516,90 511,85 " style="fill:#15d871; stroke-width:1; stroke:black; " description="&lt;b&gt;U367_RS0111230&lt;/b&gt;&lt;br&gt;lipid IV(A) 4-amino-4-deoxy-L-arabinosyltransferase&lt;br&gt;Location: 517154 - 515499&lt;br&gt;&lt;br&gt;&lt;b&gt;BlastP hit with ctg1_163&lt;/b&gt;&lt;br&gt;Percentage identity: 82&lt;br&gt;Percentage coverage: 100&lt;br&gt;BLAST bit score: 925&lt;br&gt;E-value: 0.0" locus_tag="U367_RS0111230" class="clusterblast-orf" id="dummy-1_h1_6_24"  />
</g>
<g id="a1_0025"  >
<polygon points="543,85 548,80 555,80 555,90 548,90 543,85 " style="fill:#2115d8; stroke-width:1; stroke:black; " description="&lt;b&gt;U367_RS0111225&lt;/b&gt;&lt;br&gt;histidine phosphatase family protein&lt;br&gt;Location: 515321 - 514647&lt;br&gt;&lt;br&gt;&lt;b&gt;BlastP hit with ctg1_164&lt;/b&gt;&lt;br&gt;Percentage identity: 65&lt;br&gt;Percentage coverage: 100&lt;br&gt;BLAST bit score: 301&lt;br&gt;E-value: 9.35e-103" locus_tag="U367_RS0111225" class="clusterblast-orf" id="dummy-1_h1_6_25"  />
</g>
<g id="a1_0026"  >
<polygon points="560,90 567,90 572,85 567,80 560,80 560,90 " style="fill:#d8157c; stroke-width:1; stroke:black; " description="&lt;b&gt;U367_RS0111220&lt;/b&gt;&lt;br&gt;ABC transporter ATP-binding protein&lt;br&gt;Location: 514372 - 513704&lt;br&gt;&lt;br&gt;&lt;b&gt;BlastP hit with ctg1_165&lt;/b&gt;&lt;br&gt;Percentage identity: 92&lt;br&gt;Percentage coverage: 100&lt;br&gt;BLAST bit score: 390&lt;br&gt;E-value: 3.76e-138" locus_tag="U367_RS0111220" class="clusterblast-orf" id="dummy-1_h1_6_26"  />
</g>
<g id="a1_0027"  >
<polygon points="572,90 610,90 615,85 610,80 572,80 572,90 " style="fill:#cdd815; stroke-width:1; stroke:black; " description="&lt;b&gt;U367_RS0111215&lt;/b&gt;&lt;br&gt;ABC transporter permease&lt;br&gt;Location: 513702 - 511240&lt;br&gt;&lt;br&gt;&lt;b&gt;BlastP hit with ctg1_166&lt;/b&gt;&lt;br&gt;Percentage identity: 89&lt;br&gt;Percentage coverage: 99&lt;br&gt;BLAST bit score: 1417&lt;br&gt;E-value: 0.0" locus_tag="U367_RS0111215" class="clusterblast-orf" id="dummy-1_h1_6_27"  />
</g>
<g id="a1_0028"  >
<polygon points="615,90 628,90 633,85 628,80 615,80 615,90 " style="fill:#15d893; stroke-width:1; stroke:black; " description="&lt;b&gt;U367_RS0111210&lt;/b&gt;&lt;br&gt;iron ABC transporter permease&lt;br&gt;Location: 511250 - 510189&lt;br&gt;&lt;br&gt;&lt;b&gt;BlastP hit with ctg1_167&lt;/b&gt;&lt;br&gt;Percentage identity: 89&lt;br&gt;Percentage coverage: 100&lt;br&gt;BLAST bit score: 669&lt;br&gt;E-value: 6.03e-244" locus_tag="U367_RS0111210" class="clusterblast-orf" id="dummy-1_h1_6_28"  />
</g>
<g id="a1_0029"  >
<polygon points="635,90 656,90 661,85 656,80 635,80 635,90 " style="fill:#4315d8; stroke-width:1; stroke:black; " description="&lt;b&gt;U367_RS0111205&lt;/b&gt;&lt;br&gt;pre-peptidase C-terminal domain-containing protein&lt;br&gt;Location: 510087 - 508645&lt;br&gt;&lt;br&gt;&lt;b&gt;BlastP hit with ctg1_168&lt;/b&gt;&lt;br&gt;Percentage identity: 79&lt;br&gt;Percentage coverage: 100&lt;br&gt;BLAST bit score: 773&lt;br&gt;E-value: 5.47e-281" locus_tag="U367_RS0111205" class="clusterblast-orf" id="dummy-1_h1_6_29"  />
</g>
<g id="a1_0030"  >
<polygon points="661,85 666,80 681,80 681,90 666,90 661,85 " style="fill:#d8155a; stroke-width:1; stroke:black; " description="&lt;b&gt;U367_RS0111200&lt;/b&gt;&lt;br&gt;SMP-30/gluconolactonase/LRE family protein&lt;br&gt;Location: 508595 - 507495&lt;br&gt;&lt;br&gt;&lt;b&gt;BlastP hit with ctg1_169&lt;/b&gt;&lt;br&gt;Percentage identity: 86&lt;br&gt;Percentage coverage: 100&lt;br&gt;BLAST bit score: 592&lt;br&gt;E-value: 3.27e-213" locus_tag="U367_RS0111200" class="clusterblast-orf" id="dummy-1_h1_6_30"  />
</g>
<g id="a1_0031"  >
<polygon points="681,85 686,80 693,80 693,90 686,90 681,85 " style="fill:#aad815; stroke-width:1; stroke:black; " description="&lt;b&gt;U367_RS0111195&lt;/b&gt;&lt;br&gt;sterol desaturase family protein&lt;br&gt;Location: 507498 - 506821&lt;br&gt;&lt;br&gt;&lt;b&gt;BlastP hit with ctg1_170&lt;/b&gt;&lt;br&gt;Percentage identity: 89&lt;br&gt;Percentage coverage: 100&lt;br&gt;BLAST bit score: 430&lt;br&gt;E-value: 1.23e-153" locus_tag="U367_RS0111195" class="clusterblast-orf" id="dummy-1_h1_6_31"  />
</g>
<g id="a1_0032"  >
<polygon points="698,90 709,90 714,85 709,80 698,80 698,90 " style="fill:#15d8b6; stroke-width:1; stroke:black; " description="&lt;b&gt;U367_RS0111190&lt;/b&gt;&lt;br&gt;substrate-binding domain-containing protein&lt;br&gt;Location: 506524 - 505601&lt;br&gt;&lt;br&gt;&lt;b&gt;BlastP hit with ctg1_171&lt;/b&gt;&lt;br&gt;Percentage identity: 97&lt;br&gt;Percentage coverage: 100&lt;br&gt;BLAST bit score: 575&lt;br&gt;E-value: 2.53e-208" locus_tag="U367_RS0111190" class="clusterblast-orf" id="dummy-1_h1_6_32"  />
</g>
<g id="a1_0033"  >
<polygon points="715,90 737,90 742,85 737,80 715,80 715,90 " style="fill:#6615d8; stroke-width:1; stroke:black; " description="&lt;b&gt;U367_RS0111185&lt;/b&gt;&lt;br&gt;sugar ABC transporter ATP-binding protein&lt;br&gt;Location: 505537 - 504029&lt;br&gt;&lt;br&gt;&lt;b&gt;BlastP hit with ctg1_172&lt;/b&gt;&lt;br&gt;Percentage identity: 97&lt;br&gt;Percentage coverage: 100&lt;br&gt;BLAST bit score: 950&lt;br&gt;E-value: 0.0" locus_tag="U367_RS0111185" class="clusterblast-orf" id="dummy-1_h1_6_33"  />
</g>
<g id="a1_0034"  >
<polygon points="741,90 754,90 759,85 754,80 741,80 741,90 " style="fill:#d81538; stroke-width:1; stroke:black; " description="&lt;b&gt;U367_RS0111180&lt;/b&gt;&lt;br&gt;ribose ABC transporter permease&lt;br&gt;Location: 504063 - 503071&lt;br&gt;&lt;br&gt;&lt;b&gt;BlastP hit with ctg1_173&lt;/b&gt;&lt;br&gt;Percentage identity: 97&lt;br&gt;Percentage coverage: 100&lt;br&gt;BLAST bit score: 588&lt;br&gt;E-value: 1.4e-212" locus_tag="U367_RS0111180" class="clusterblast-orf" id="dummy-1_h1_6_34"  />
</g>
<g id="a1_0035"  >
<polygon points="759,90 773,90 778,85 773,80 759,80 759,90 " style="fill:#88d815; stroke-width:1; stroke:black; " description="&lt;b&gt;U367_RS0111175&lt;/b&gt;&lt;br&gt;alcohol dehydrogenase catalytic domain-containing protein&lt;br&gt;Location: 503042 - 501963&lt;br&gt;&lt;br&gt;&lt;b&gt;BlastP hit with ctg1_174&lt;/b&gt;&lt;br&gt;Percentage identity: 96&lt;br&gt;Percentage coverage: 100&lt;br&gt;BLAST bit score: 715&lt;br&gt;E-value: 6.72e-262" locus_tag="U367_RS0111175" class="clusterblast-orf" id="dummy-1_h1_6_35"  />
</g>
</svg>
