<svg xmlns="http://www.w3.org/2000/svg" xmlns:xlink="http://www.w3.org/1999/xlink" version="1.1" x="0" y="0" height="230" width="800" viewBox="0 0 800 230" preserveAspectRatio="none"  >
<g label="Query sequence" class="clusterblast-cluster"  >
<text x="5" y="20" class="clusterblast-acc"  >
Query sequence</text>
<line x1="10" y1="35" x2="778.0" y2="35" style="stroke-width:1; stroke:grey; "  />
<polygon points="48,40 62,40 67,35 62,30 48,30 48,40 " style="fill:#d81515; stroke-width:1; stroke:black; " description="&lt;b&gt;ctg16_30&lt;/b&gt;&lt;br&gt;ctg16 30&lt;br&gt;Location: 25138 - 25909" locus_tag="ctg16_30" class="clusterblast-orf" id="dummy-1_q0_0_all"  />
<polygon points="69,35 74,30 124,30 124,40 74,40 69,35 " style="fill:#60d815; stroke-width:1; stroke:black; " description="&lt;b&gt;ctg16_31&lt;/b&gt;&lt;br&gt;ctg16 31&lt;br&gt;Location: 25988 - 28136" locus_tag="ctg16_31" class="clusterblast-orf" id="dummy-1_q1_0_all"  />
<polygon points="126,40 132,40 137,35 132,30 126,30 126,40 " style="fill:#15abd8; stroke-width:1; stroke:black; " description="&lt;b&gt;ctg16_32&lt;/b&gt;&lt;br&gt;ctg16 32&lt;br&gt;Location: 28232 - 28661" locus_tag="ctg16_32" class="clusterblast-orf" id="dummy-1_q2_0_all"  />
<polygon points="137,40 144,40 149,35 144,30 137,30 137,40 " style="fill:#8d15d8; stroke-width:1; stroke:black; " description="&lt;b&gt;ctg16_33&lt;/b&gt;&lt;br&gt;ctg16 33&lt;br&gt;Location: 28681 - 29137" locus_tag="ctg16_33" class="clusterblast-orf" id="dummy-1_q3_0_all"  />
<polygon points="149,40 155,40 160,35 155,30 149,30 149,40 " style="fill:#d84215; stroke-width:1; stroke:black; " description="&lt;b&gt;ctg16_34&lt;/b&gt;&lt;br&gt;ctg16 34&lt;br&gt;Location: 29129 - 29579" locus_tag="ctg16_34" class="clusterblast-orf" id="dummy-1_q4_0_all"  />
<polygon points="161,35 166,30 176,30 176,40 166,40 161,35 " style="fill:#33d815; stroke-width:1; stroke:black; " description="&lt;b&gt;ctg16_35&lt;/b&gt;&lt;br&gt;ctg16 35&lt;br&gt;Location: 29622 - 30201" locus_tag="ctg16_35" class="clusterblast-orf" id="dummy-1_q5_0_all"  />
<polygon points="177,35 182,30 210,30 210,40 182,40 177,35 " style="fill:#157ed8; stroke-width:1; stroke:black; " description="&lt;b&gt;ctg16_36&lt;/b&gt;&lt;br&gt;ctg16 36&lt;br&gt;Location: 30270 - 31584" locus_tag="ctg16_36" class="clusterblast-orf" id="dummy-1_q6_0_all"  />
<polygon points="212,35 216,30 216,40 212,35 " style="fill:#ba15d8; stroke-width:1; stroke:black; " description="&lt;b&gt;ctg16_37&lt;/b&gt;&lt;br&gt;ctg16 37&lt;br&gt;Location: 31634 - 31790" locus_tag="ctg16_37" class="clusterblast-orf" id="dummy-1_q7_0_all"  />
<polygon points="218,35 223,30 239,30 239,40 223,40 218,35 " style="fill:#d86f15; stroke-width:1; stroke:black; " description="&lt;b&gt;ctg16_38&lt;/b&gt;&lt;br&gt;ctg16 38&lt;br&gt;Location: 31891 - 32698" locus_tag="ctg16_38" class="clusterblast-orf" id="dummy-1_q8_0_all"  />
<polygon points="239,35 244,30 255,30 255,40 244,40 239,35 " style="fill:#15d824; stroke-width:1; stroke:black; " description="&lt;b&gt;ctg16_39&lt;/b&gt;&lt;br&gt;ctg16 39&lt;br&gt;Location: 32726 - 33359" locus_tag="ctg16_39" class="clusterblast-orf" id="dummy-1_q9_0_all"  />
<polygon points="258,40 270,40 275,35 270,30 258,30 258,40 " style="fill:#1551d8; stroke-width:1; stroke:black; " description="&lt;b&gt;ctg16_40&lt;/b&gt;&lt;br&gt;ctg16 40&lt;br&gt;Location: 33470 - 34127" locus_tag="ctg16_40" class="clusterblast-orf" id="dummy-1_q10_0_all"  />
<polygon points="275,35 280,30 291,30 291,40 280,40 275,35 " style="fill:#d815c9; stroke-width:1; stroke:black; " description="&lt;b&gt;ctg16_41&lt;/b&gt;&lt;br&gt;ctg16 41&lt;br&gt;Location: 34140 - 34761" locus_tag="ctg16_41" class="clusterblast-orf" id="dummy-1_q11_0_all"  />
<polygon points="293,40 344,40 349,35 344,30 293,30 293,40 " style="fill:#d89c15; stroke-width:1; stroke:black; " description="&lt;b&gt;ctg16_42&lt;/b&gt;&lt;br&gt;ctg16 42&lt;br&gt;Location: 34855 - 37096" locus_tag="ctg16_42" class="clusterblast-orf" id="dummy-1_q12_0_all"  />
<polygon points="349,40 349,40 354,35 349,30 349,30 349,40 " style="fill:white; stroke-width:1; stroke:black; " description="&lt;b&gt;ctg16_43&lt;/b&gt;&lt;br&gt;ctg16 43&lt;br&gt;Location: 37095 - 37263" locus_tag="ctg16_43" class="clusterblast-orf" id="dummy-1_q13_0_all"  />
<polygon points="380,35 385,30 409,30 409,40 385,40 380,35 " style="fill:#15d851; stroke-width:1; stroke:black; " description="&lt;b&gt;ctg16_44&lt;/b&gt;&lt;br&gt;ctg16 44&lt;br&gt;Location: 38302 - 39469" locus_tag="ctg16_44" class="clusterblast-orf" id="dummy-1_q14_0_all"  />
<polygon points="409,35 414,30 444,30 444,40 414,40 409,35 " style="fill:#1524d8; stroke-width:1; stroke:black; " description="&lt;b&gt;ctg16_45&lt;/b&gt;&lt;br&gt;ctg16 45&lt;br&gt;Location: 39465 - 40842" locus_tag="ctg16_45" class="clusterblast-orf" id="dummy-1_q15_0_all"  />
<polygon points="447,35 452,30 469,30 469,40 452,40 447,35 " style="fill:#d8159c; stroke-width:1; stroke:black; " description="&lt;b&gt;ctg16_46&lt;/b&gt;&lt;br&gt;ctg16 46&lt;br&gt;Location: 40986 - 41838" locus_tag="ctg16_46" class="clusterblast-orf" id="dummy-1_q16_0_all"  />
<polygon points="472,35 475,30 475,40 472,35 " style="fill:white; stroke-width:1; stroke:black; " description="&lt;b&gt;ctg16_47&lt;/b&gt;&lt;br&gt;ctg16 47&lt;br&gt;Location: 41964 - 42069" locus_tag="ctg16_47" class="clusterblast-orf" id="dummy-1_q17_0_all"  />
<polygon points="476,35 481,30 501,30 501,40 481,40 476,35 " style="fill:#d8c915; stroke-width:1; stroke:black; " description="&lt;b&gt;ctg16_48&lt;/b&gt;&lt;br&gt;ctg16 48&lt;br&gt;Location: 42123 - 43101" locus_tag="ctg16_48" class="clusterblast-orf" id="dummy-1_q18_0_all"  />
<polygon points="506,35 511,30 516,30 516,40 511,40 506,35 " style="fill:#15d87e; stroke-width:1; stroke:black; " description="&lt;b&gt;ctg16_49&lt;/b&gt;&lt;br&gt;ctg16 49&lt;br&gt;Location: 43316 - 43709" locus_tag="ctg16_49" class="clusterblast-orf" id="dummy-1_q19_0_all"  />
<polygon points="517,35 522,30 532,30 532,40 522,40 517,35 " style="fill:#3315d8; stroke-width:1; stroke:black; " description="&lt;b&gt;ctg16_50&lt;/b&gt;&lt;br&gt;ctg16 50&lt;br&gt;Location: 43739 - 44360" locus_tag="ctg16_50" class="clusterblast-orf" id="dummy-1_q20_0_all"  />
<polygon points="538,35 543,30 564,30 564,40 543,40 538,35 " style="fill:#d8156f; stroke-width:1; stroke:black; " description="&lt;b&gt;ctg16_51&lt;/b&gt;&lt;br&gt;ctg16 51&lt;br&gt;Location: 44582 - 45602" locus_tag="ctg16_51" class="clusterblast-orf" id="dummy-1_q21_0_all"  />
<polygon points="567,35 572,30 586,30 586,40 572,40 567,35 " style="fill:#bad815; stroke-width:1; stroke:black; " description="&lt;b&gt;ctg16_52&lt;/b&gt;&lt;br&gt;ctg16 52&lt;br&gt;Location: 45741 - 46503" locus_tag="ctg16_52" class="clusterblast-orf" id="dummy-1_q22_0_all"  />
<polygon points="591,35 596,30 608,30 608,40 596,40 591,35 " style="fill:#15d8ab; stroke-width:1; stroke:black; " description="&lt;b&gt;ctg16_53&lt;/b&gt;&lt;br&gt;ctg16 53&lt;br&gt;Location: 46693 - 47353" locus_tag="ctg16_53" class="clusterblast-orf" id="dummy-1_q23_0_all"  />
<polygon points="608,35 613,30 623,30 623,40 613,40 608,35 " style="fill:#6015d8; stroke-width:1; stroke:black; " description="&lt;b&gt;ctg16_54&lt;/b&gt;&lt;br&gt;ctg16 54&lt;br&gt;Location: 47349 - 47949" locus_tag="ctg16_54" class="clusterblast-orf" id="dummy-1_q24_0_all"  />
<polygon points="623,35 628,30 642,30 642,40 628,40 623,35 " style="fill:#bad815; stroke-width:1; stroke:black; " description="&lt;b&gt;ctg16_55&lt;/b&gt;&lt;br&gt;ctg16 55&lt;br&gt;Location: 47945 - 48704" locus_tag="ctg16_55" class="clusterblast-orf" id="dummy-1_q25_0_all"  />
<polygon points="642,35 647,30 667,30 667,40 647,40 642,35 " style="fill:#d81542; stroke-width:1; stroke:black; " description="&lt;b&gt;ctg16_56&lt;/b&gt;&lt;br&gt;ctg16 56&lt;br&gt;Location: 48700 - 49699" locus_tag="ctg16_56" class="clusterblast-orf" id="dummy-1_q26_0_all"  />
<polygon points="667,35 672,30 721,30 721,40 672,40 667,35 " style="fill:#8dd815; stroke-width:1; stroke:black; " description="&lt;b&gt;ctg16_57&lt;/b&gt;&lt;br&gt;ctg16 57&lt;br&gt;Location: 49700 - 51857" locus_tag="ctg16_57" class="clusterblast-orf" id="dummy-1_q27_0_all"  />
<polygon points="725,35 730,30 732,30 732,40 730,40 725,35 " style="fill:#15d8d8; stroke-width:1; stroke:black; " description="&lt;b&gt;ctg16_58&lt;/b&gt;&lt;br&gt;ctg16 58&lt;br&gt;Location: 51988 - 52258" locus_tag="ctg16_58" class="clusterblast-orf" id="dummy-1_q28_0_all"  />
</g>
<g label="NZ_CP052856" description="NZ_CP052856 (1295014-1326035): Pseudomonas sp. ADAK22 chromosome, complete ge... (38% of genes show similarity), thiopeptide" class="clusterblast-cluster"  >
<text x="5" y="70" class="clusterblast-acc"  >
<a xlink:href="https://antismash-db.secondarymetabolites.org/area.html?record=NZ_CP052856&amp;start=1295014&amp;end=1326035" target="_blank">NZ_CP052856 (1295014-1326035)</a>: Pseudomonas sp. ADAK22 chromosome, complete ge... (38% of genes show similarity), thiopeptide</text>
<line x1="10" y1="85" x2="778.0" y2="85" style="stroke-width:1; stroke:grey; "  />
</g>
<g id="a1_000"  >
<polygon points="0,85 5,80 14,80 14,90 5,90 0,85 " style="fill:#33d815; stroke-width:1; stroke:black; " description="&lt;b&gt;HKK58_RS06045&lt;/b&gt;&lt;br&gt;cysteine hydrolase&lt;br&gt;Location: 1325961 - 1325401&lt;br&gt;&lt;br&gt;&lt;b&gt;BlastP hit with ctg16_35&lt;/b&gt;&lt;br&gt;Percentage identity: 85&lt;br&gt;Percentage coverage: 96&lt;br&gt;BLAST bit score: 323&lt;br&gt;E-value: 1.48e-112" locus_tag="HKK58_RS06045" class="clusterblast-orf" id="dummy-1_h1_7_0"  />
</g>
<g id="a1_001"  >
<polygon points="17,90 47,90 52,85 47,80 17,80 17,90 " style="fill:white; stroke-width:1; stroke:black; " description="&lt;b&gt;HKK58_RS06040&lt;/b&gt;&lt;br&gt;hypothetical protein&lt;br&gt;Location: 1325274 - 1323889" locus_tag="HKK58_RS06040" class="clusterblast-orf" id="dummy-1_h1_7_1"  />
</g>
<g id="a1_002"  >
<polygon points="53,90 61,90 66,85 61,80 53,80 53,90 " style="fill:white; stroke-width:1; stroke:black; " description="&lt;b&gt;HKK58_RS06035&lt;/b&gt;&lt;br&gt;GNAT family N-acetyltransferase&lt;br&gt;Location: 1323858 - 1323337" locus_tag="HKK58_RS06035" class="clusterblast-orf" id="dummy-1_h1_7_2"  />
</g>
<g id="a1_003"  >
<polygon points="66,90 76,90 81,85 76,80 66,80 66,90 " style="fill:white; stroke-width:1; stroke:black; " description="&lt;b&gt;HKK58_RS06030&lt;/b&gt;&lt;br&gt;hypothetical protein&lt;br&gt;Location: 1323320 - 1322712" locus_tag="HKK58_RS06030" class="clusterblast-orf" id="dummy-1_h1_7_3"  />
</g>
<g id="a1_004"  >
<polygon points="82,85 87,80 115,80 115,90 87,90 82,85 " style="fill:#157ed8; stroke-width:1; stroke:black; " description="&lt;b&gt;HKK58_RS06025&lt;/b&gt;&lt;br&gt;FAD-dependent oxidoreductase&lt;br&gt;Location: 1322706 - 1321393&lt;br&gt;&lt;br&gt;&lt;b&gt;BlastP hit with ctg16_36&lt;/b&gt;&lt;br&gt;Percentage identity: 92&lt;br&gt;Percentage coverage: 100&lt;br&gt;BLAST bit score: 824&lt;br&gt;E-value: 1.54e-302" locus_tag="HKK58_RS06025" class="clusterblast-orf" id="dummy-1_h1_7_4"  />
</g>
<g id="a1_005"  >
<polygon points="122,85 127,80 143,80 143,90 127,90 122,85 " style="fill:#d86f15; stroke-width:1; stroke:black; " description="&lt;b&gt;HKK58_RS06020&lt;/b&gt;&lt;br&gt;suppressor of fused domain protein&lt;br&gt;Location: 1321086 - 1320271&lt;br&gt;&lt;br&gt;&lt;b&gt;BlastP hit with ctg16_38&lt;/b&gt;&lt;br&gt;Percentage identity: 87&lt;br&gt;Percentage coverage: 101&lt;br&gt;BLAST bit score: 462&lt;br&gt;E-value: 8.95e-165" locus_tag="HKK58_RS06020" class="clusterblast-orf" id="dummy-1_h1_7_5"  />
</g>
<g id="a1_006"  >
<polygon points="144,85 149,80 160,80 160,90 149,90 144,85 " style="fill:#15d824; stroke-width:1; stroke:black; " description="&lt;b&gt;HKK58_RS06015&lt;/b&gt;&lt;br&gt;TetR family transcriptional regulator&lt;br&gt;Location: 1320242 - 1319610&lt;br&gt;&lt;br&gt;&lt;b&gt;BlastP hit with ctg16_39&lt;/b&gt;&lt;br&gt;Percentage identity: 91&lt;br&gt;Percentage coverage: 100&lt;br&gt;BLAST bit score: 362&lt;br&gt;E-value: 4.08e-127" locus_tag="HKK58_RS06015" class="clusterblast-orf" id="dummy-1_h1_7_6"  />
</g>
<g id="a1_007"  >
<polygon points="162,90 174,90 179,85 174,80 162,80 162,90 " style="fill:#1551d8; stroke-width:1; stroke:black; " description="&lt;b&gt;HKK58_RS06010&lt;/b&gt;&lt;br&gt;class I SAM-dependent methyltransferase&lt;br&gt;Location: 1319498 - 1318842&lt;br&gt;&lt;br&gt;&lt;b&gt;BlastP hit with ctg16_40&lt;/b&gt;&lt;br&gt;Percentage identity: 89&lt;br&gt;Percentage coverage: 100&lt;br&gt;BLAST bit score: 384&lt;br&gt;E-value: 1.08e-135" locus_tag="HKK58_RS06010" class="clusterblast-orf" id="dummy-1_h1_7_7"  />
</g>
<g id="a1_008"  >
<polygon points="179,90 196,90 201,85 196,80 179,80 179,90 " style="fill:white; stroke-width:1; stroke:black; " description="&lt;b&gt;HKK58_RS06005&lt;/b&gt;&lt;br&gt;NAD-dependent epimerase/dehydratase family protein&lt;br&gt;Location: 1318828 - 1317962" locus_tag="HKK58_RS06005" class="clusterblast-orf" id="dummy-1_h1_7_8"  />
</g>
<g id="a1_009"  >
<polygon points="201,90 226,90 231,85 226,80 201,80 201,90 " style="fill:white; stroke-width:1; stroke:black; " description="&lt;b&gt;HKK58_RS06000&lt;/b&gt;&lt;br&gt;arabinose transporter&lt;br&gt;Location: 1317949 - 1316777" locus_tag="HKK58_RS06000" class="clusterblast-orf" id="dummy-1_h1_7_9"  />
</g>
<g id="a1_0010"  >
<polygon points="231,85 236,80 246,80 246,90 236,90 231,85 " style="fill:#d815c9; stroke-width:1; stroke:black; " description="&lt;b&gt;HKK58_RS05995&lt;/b&gt;&lt;br&gt;LysE family transporter&lt;br&gt;Location: 1316790 - 1316170&lt;br&gt;&lt;br&gt;&lt;b&gt;BlastP hit with ctg16_41&lt;/b&gt;&lt;br&gt;Percentage identity: 92&lt;br&gt;Percentage coverage: 100&lt;br&gt;BLAST bit score: 375&lt;br&gt;E-value: 1.98e-132" locus_tag="HKK58_RS05995" class="clusterblast-orf" id="dummy-1_h1_7_10"  />
</g>
<g id="a1_0011"  >
<polygon points="250,90 300,90 305,85 300,80 250,80 250,90 " style="fill:#d89c15; stroke-width:1; stroke:black; " description="&lt;b&gt;HKK58_RS05990&lt;/b&gt;&lt;br&gt;OsmC domain/YcaO domain-containing protein&lt;br&gt;Location: 1316035 - 1313831&lt;br&gt;&lt;br&gt;&lt;b&gt;BlastP hit with ctg16_42&lt;/b&gt;&lt;br&gt;Percentage identity: 97&lt;br&gt;Percentage coverage: 98&lt;br&gt;BLAST bit score: 1443&lt;br&gt;E-value: 0.0" locus_tag="HKK58_RS05990" class="clusterblast-orf" id="dummy-1_h1_7_11"  />
</g>
<g id="a1_0012"  >
<polygon points="335,85 340,80 365,80 365,90 340,90 335,85 " style="fill:#15d851; stroke-width:1; stroke:black; " description="&lt;b&gt;HKK58_RS05985&lt;/b&gt;&lt;br&gt;cystathionine gamma-synthase&lt;br&gt;Location: 1312634 - 1311468&lt;br&gt;&lt;br&gt;&lt;b&gt;BlastP hit with ctg16_44&lt;/b&gt;&lt;br&gt;Percentage identity: 97&lt;br&gt;Percentage coverage: 100&lt;br&gt;BLAST bit score: 754&lt;br&gt;E-value: 2.61e-276" locus_tag="HKK58_RS05985" class="clusterblast-orf" id="dummy-1_h1_7_12"  />
</g>
<g id="a1_0013"  >
<polygon points="365,85 370,80 399,80 399,90 370,90 365,85 " style="fill:#1524d8; stroke-width:1; stroke:black; " description="&lt;b&gt;HKK58_RS05980&lt;/b&gt;&lt;br&gt;cystathionine beta-synthase&lt;br&gt;Location: 1311471 - 1310095&lt;br&gt;&lt;br&gt;&lt;b&gt;BlastP hit with ctg16_45&lt;/b&gt;&lt;br&gt;Percentage identity: 97&lt;br&gt;Percentage coverage: 100&lt;br&gt;BLAST bit score: 869&lt;br&gt;E-value: 0.0" locus_tag="HKK58_RS05980" class="clusterblast-orf" id="dummy-1_h1_7_13"  />
</g>
<g id="a1_0014"  >
<polygon points="403,85 408,80 425,80 425,90 408,90 403,85 " style="fill:#d8159c; stroke-width:1; stroke:black; " description="&lt;b&gt;HKK58_RS05975&lt;/b&gt;&lt;br&gt;4-hydroxy-tetrahydrodipicolinate synthase&lt;br&gt;Location: 1309951 - 1309088&lt;br&gt;&lt;br&gt;&lt;b&gt;BlastP hit with ctg16_46&lt;/b&gt;&lt;br&gt;Percentage identity: 86&lt;br&gt;Percentage coverage: 96&lt;br&gt;BLAST bit score: 458&lt;br&gt;E-value: 6.82e-163" locus_tag="HKK58_RS05975" class="clusterblast-orf" id="dummy-1_h1_7_14"  />
</g>
<g id="a1_0015"  >
<polygon points="432,85 437,80 457,80 457,90 437,90 432,85 " style="fill:#d8c915; stroke-width:1; stroke:black; " description="&lt;b&gt;HKK58_RS05970&lt;/b&gt;&lt;br&gt;alpha/beta hydrolase fold domain-containing protein&lt;br&gt;Location: 1308798 - 1307821&lt;br&gt;&lt;br&gt;&lt;b&gt;BlastP hit with ctg16_48&lt;/b&gt;&lt;br&gt;Percentage identity: 88&lt;br&gt;Percentage coverage: 100&lt;br&gt;BLAST bit score: 580&lt;br&gt;E-value: 1.5e-209" locus_tag="HKK58_RS05970" class="clusterblast-orf" id="dummy-1_h1_7_15"  />
</g>
<g id="a1_0016"  >
<polygon points="463,85 468,80 475,80 475,90 468,90 463,85 " style="fill:white; stroke-width:1; stroke:black; " description="&lt;b&gt;HKK58_RS05965&lt;/b&gt;&lt;br&gt;VOC family protein&lt;br&gt;Location: 1307589 - 1307107" locus_tag="HKK58_RS05965" class="clusterblast-orf" id="dummy-1_h1_7_16"  />
</g>
<g id="a1_0017"  >
<polygon points="477,85 482,80 488,80 488,90 482,90 477,85 " style="fill:white; stroke-width:1; stroke:black; " description="&lt;b&gt;HKK58_RS05960&lt;/b&gt;&lt;br&gt;hypothetical protein&lt;br&gt;Location: 1307026 - 1306565" locus_tag="HKK58_RS05960" class="clusterblast-orf" id="dummy-1_h1_7_17"  />
</g>
<g id="a1_0018"  >
<polygon points="491,85 496,80 518,80 518,90 496,90 491,85 " style="fill:white; stroke-width:1; stroke:black; " description="&lt;b&gt;HKK58_RS05955&lt;/b&gt;&lt;br&gt;helix-turn-helix domain-containing protein&lt;br&gt;Location: 1306454 - 1305405" locus_tag="HKK58_RS05955" class="clusterblast-orf" id="dummy-1_h1_7_18"  />
</g>
<g id="a1_0019"  >
<polygon points="518,85 523,80 527,80 527,90 523,90 518,85 " style="fill:#15d87e; stroke-width:1; stroke:black; " description="&lt;b&gt;HKK58_RS05950&lt;/b&gt;&lt;br&gt;ester cyclase&lt;br&gt;Location: 1305401 - 1305015&lt;br&gt;&lt;br&gt;&lt;b&gt;BlastP hit with ctg16_49&lt;/b&gt;&lt;br&gt;Percentage identity: 85&lt;br&gt;Percentage coverage: 98&lt;br&gt;BLAST bit score: 234&lt;br&gt;E-value: 3.87e-79" locus_tag="HKK58_RS05950" class="clusterblast-orf" id="dummy-1_h1_7_19"  />
</g>
<g id="a1_0020"  >
<polygon points="529,85 534,80 557,80 557,90 534,90 529,85 " style="fill:white; stroke-width:1; stroke:black; " description="&lt;b&gt;HKK58_RS05945&lt;/b&gt;&lt;br&gt;SEL1-like repeat protein&lt;br&gt;Location: 1304963 - 1303842" locus_tag="HKK58_RS05945" class="clusterblast-orf" id="dummy-1_h1_7_20"  />
</g>
<g id="a1_0021"  >
<polygon points="559,85 564,80 574,80 574,90 564,90 559,85 " style="fill:#3315d8; stroke-width:1; stroke:black; " description="&lt;b&gt;HKK58_RS05940&lt;/b&gt;&lt;br&gt;LysE family translocator&lt;br&gt;Location: 1303771 - 1303151&lt;br&gt;&lt;br&gt;&lt;b&gt;BlastP hit with ctg16_50&lt;/b&gt;&lt;br&gt;Percentage identity: 93&lt;br&gt;Percentage coverage: 100&lt;br&gt;BLAST bit score: 369&lt;br&gt;E-value: 5.44e-130" locus_tag="HKK58_RS05940" class="clusterblast-orf" id="dummy-1_h1_7_21"  />
</g>
<g id="a1_0022"  >
<polygon points="581,90 595,90 600,85 595,80 581,80 581,90 " style="fill:white; stroke-width:1; stroke:black; " description="&lt;b&gt;HKK58_RS05935&lt;/b&gt;&lt;br&gt;SDR family oxidoreductase&lt;br&gt;Location: 1302884 - 1302147" locus_tag="HKK58_RS05935" class="clusterblast-orf" id="dummy-1_h1_7_22"  />
</g>
<g id="a1_0023"  >
<polygon points="602,90 620,90 625,85 620,80 602,80 602,90 " style="fill:white; stroke-width:1; stroke:black; " description="&lt;b&gt;HKK58_RS05930&lt;/b&gt;&lt;br&gt;enoyl-CoA hydratase/isomerase family protein&lt;br&gt;Location: 1302053 - 1301142" locus_tag="HKK58_RS05930" class="clusterblast-orf" id="dummy-1_h1_7_23"  />
</g>
<g id="a1_0024"  >
<polygon points="629,90 634,90 639,85 634,80 629,80 629,90 " style="fill:white; stroke-width:1; stroke:black; " description="&lt;b&gt;HKK58_RS05925&lt;/b&gt;&lt;br&gt;ASCH domain-containing protein&lt;br&gt;Location: 1301006 - 1300596" locus_tag="HKK58_RS05925" class="clusterblast-orf" id="dummy-1_h1_7_24"  />
</g>
<g id="a1_0025"  >
<polygon points="645,85 650,80 654,80 654,90 650,90 645,85 " style="fill:white; stroke-width:1; stroke:black; " description="&lt;b&gt;HKK58_RS05920&lt;/b&gt;&lt;br&gt;antibiotic biosynthesis monooxygenase&lt;br&gt;Location: 1300350 - 1300012" locus_tag="HKK58_RS05920" class="clusterblast-orf" id="dummy-1_h1_7_25"  />
</g>
<g id="a1_0026"  >
<polygon points="654,85 659,80 679,80 679,90 659,90 654,85 " style="fill:white; stroke-width:1; stroke:black; " description="&lt;b&gt;HKK58_RS05915&lt;/b&gt;&lt;br&gt;zinc-binding dehydrogenase&lt;br&gt;Location: 1299980 - 1299006" locus_tag="HKK58_RS05915" class="clusterblast-orf" id="dummy-1_h1_7_26"  />
</g>
<g id="a1_0027"  >
<polygon points="681,85 686,80 688,80 688,90 686,90 681,85 " style="fill:white; stroke-width:1; stroke:black; " description="&lt;b&gt;HKK58_RS05910&lt;/b&gt;&lt;br&gt;helix-turn-helix transcriptional regulator&lt;br&gt;Location: 1298940 - 1298638" locus_tag="HKK58_RS05910" class="clusterblast-orf" id="dummy-1_h1_7_27"  />
</g>
<g id="a1_0028"  >
<polygon points="690,85 694,80 694,90 690,85 " style="fill:white; stroke-width:1; stroke:black; " description="&lt;b&gt;HKK58_RS05905&lt;/b&gt;&lt;br&gt;hypothetical protein&lt;br&gt;Location: 1298579 - 1298409" locus_tag="HKK58_RS05905" class="clusterblast-orf" id="dummy-1_h1_7_28"  />
</g>
<g id="a1_0029"  >
<polygon points="704,90 711,90 716,85 711,80 704,80 704,90 " style="fill:white; stroke-width:1; stroke:black; " description="&lt;b&gt;HKK58_RS05900&lt;/b&gt;&lt;br&gt;DUF2867 domain-containing protein&lt;br&gt;Location: 1298016 - 1297537" locus_tag="HKK58_RS05900" class="clusterblast-orf" id="dummy-1_h1_7_29"  />
</g>
<g id="a1_0030"  >
<polygon points="716,85 721,80 722,80 722,90 721,90 716,85 " style="fill:white; stroke-width:1; stroke:black; " description="&lt;b&gt;HKK58_RS05895&lt;/b&gt;&lt;br&gt;DUF4287 domain-containing protein&lt;br&gt;Location: 1297527 - 1297309" locus_tag="HKK58_RS05895" class="clusterblast-orf" id="dummy-1_h1_7_30"  />
</g>
<g id="a1_0031"  >
<polygon points="726,90 734,90 739,85 734,80 726,80 726,90 " style="fill:white; stroke-width:1; stroke:black; " description="&lt;b&gt;HKK58_RS05890&lt;/b&gt;&lt;br&gt;winged helix-turn-helix transcriptional regulator&lt;br&gt;Location: 1297128 - 1296610" locus_tag="HKK58_RS05890" class="clusterblast-orf" id="dummy-1_h1_7_31"  />
</g>
<g id="a1_0032"  >
<polygon points="739,90 765,90 770,85 765,80 739,80 739,90 " style="fill:white; stroke-width:1; stroke:black; " description="&lt;b&gt;HKK58_RS05885&lt;/b&gt;&lt;br&gt;FAD-dependent monooxygenase&lt;br&gt;Location: 1296610 - 1295405" locus_tag="HKK58_RS05885" class="clusterblast-orf" id="dummy-1_h1_7_32"  />
</g>
<g id="a1_0033"  >
<polygon points="771,90 775,90 780,85 775,80 771,80 771,90 " style="fill:white; stroke-width:1; stroke:black; " description="&lt;b&gt;HKK58_RS05880&lt;/b&gt;&lt;br&gt;helix-turn-helix transcriptional regulator&lt;br&gt;Location: 1295343 - 1295017" locus_tag="HKK58_RS05880" class="clusterblast-orf" id="dummy-1_h1_7_33"  />
</g>
</svg>
