<svg xmlns="http://www.w3.org/2000/svg" xmlns:xlink="http://www.w3.org/1999/xlink" version="1.1" x="0" y="0" height="230" width="800" viewBox="0 0 800 230" preserveAspectRatio="none"  >
<g label="Query sequence" class="clusterblast-cluster"  >
<text x="5" y="20" class="clusterblast-acc"  >
Query sequence</text>
<line x1="10" y1="35" x2="778.0" y2="35" style="stroke-width:1; stroke:grey; "  />
<polygon points="0,35 5,30 6,30 6,40 5,40 0,35 " style="fill:white; stroke-width:1; stroke:black; " description="&lt;b&gt;ctg25_10&lt;/b&gt;&lt;br&gt;ctg25 10&lt;br&gt;Location: 12754 - 13165" locus_tag="ctg25_10" class="clusterblast-orf" id="dummy-1_q0_0_all"  />
<polygon points="8,40 12,35 8,30 8,40 " style="fill:white; stroke-width:1; stroke:black; " description="&lt;b&gt;ctg25_11&lt;/b&gt;&lt;br&gt;ctg25 11&lt;br&gt;Location: 13271 - 13532" locus_tag="ctg25_11" class="clusterblast-orf" id="dummy-1_q1_0_all"  />
<polygon points="12,35 17,30 19,30 19,40 17,40 12,35 " style="fill:white; stroke-width:1; stroke:black; " description="&lt;b&gt;ctg25_12&lt;/b&gt;&lt;br&gt;ctg25 12&lt;br&gt;Location: 13528 - 13990" locus_tag="ctg25_12" class="clusterblast-orf" id="dummy-1_q2_0_all"  />
<polygon points="19,35 24,30 35,30 35,40 24,40 19,35 " style="fill:white; stroke-width:1; stroke:black; " description="&lt;b&gt;ctg25_13&lt;/b&gt;&lt;br&gt;ctg25 13&lt;br&gt;Location: 14005 - 15010" locus_tag="ctg25_13" class="clusterblast-orf" id="dummy-1_q3_0_all"  />
<polygon points="37,40 46,40 51,35 46,30 37,30 37,40 " style="fill:white; stroke-width:1; stroke:black; " description="&lt;b&gt;ctg25_14&lt;/b&gt;&lt;br&gt;ctg25 14&lt;br&gt;Location: 15123 - 16017" locus_tag="ctg25_14" class="clusterblast-orf" id="dummy-1_q4_0_all"  />
<polygon points="55,35 60,30 75,30 75,40 60,40 55,35 " style="fill:#d81515; stroke-width:1; stroke:black; " description="&lt;b&gt;ctg25_15&lt;/b&gt;&lt;br&gt;ctg25 15&lt;br&gt;Location: 16244 - 17540" locus_tag="ctg25_15" class="clusterblast-orf" id="dummy-1_q5_0_all"  />
<polygon points="75,35 80,30 92,30 92,40 80,40 75,35 " style="fill:#3cd815; stroke-width:1; stroke:black; " description="&lt;b&gt;ctg25_16&lt;/b&gt;&lt;br&gt;ctg25 16&lt;br&gt;Location: 17536 - 18625" locus_tag="ctg25_16" class="clusterblast-orf" id="dummy-1_q6_0_all"  />
<polygon points="92,35 97,30 114,30 114,40 97,40 92,35 " style="fill:white; stroke-width:1; stroke:black; " description="&lt;b&gt;ctg25_17&lt;/b&gt;&lt;br&gt;ctg25 17&lt;br&gt;Location: 18647 - 20006" locus_tag="ctg25_17" class="clusterblast-orf" id="dummy-1_q7_0_all"  />
<polygon points="118,40 125,40 130,35 125,30 118,30 118,40 " style="fill:#1563d8; stroke-width:1; stroke:black; " description="&lt;b&gt;ctg25_18&lt;/b&gt;&lt;br&gt;ctg25 18&lt;br&gt;Location: 20243 - 21041" locus_tag="ctg25_18" class="clusterblast-orf" id="dummy-1_q8_0_all"  />
<polygon points="132,40 161,40 166,35 161,30 132,30 132,40 " style="fill:#b115d8; stroke-width:1; stroke:black; " description="&lt;b&gt;ctg25_19&lt;/b&gt;&lt;br&gt;ctg25 19&lt;br&gt;Location: 21146 - 23288" locus_tag="ctg25_19" class="clusterblast-orf" id="dummy-1_q9_0_all"  />
<polygon points="165,35 170,30 183,30 183,40 170,40 165,35 " style="fill:white; stroke-width:1; stroke:black; " description="&lt;b&gt;ctg25_20&lt;/b&gt;&lt;br&gt;ctg25 20&lt;br&gt;Location: 23277 - 24408" locus_tag="ctg25_20" class="clusterblast-orf" id="dummy-1_q10_0_all"  />
<polygon points="185,40 192,40 197,35 192,30 185,30 185,40 " style="fill:white; stroke-width:1; stroke:black; " description="&lt;b&gt;ctg25_21&lt;/b&gt;&lt;br&gt;ctg25 21&lt;br&gt;Location: 24506 - 25277" locus_tag="ctg25_21" class="clusterblast-orf" id="dummy-1_q11_0_all"  />
<polygon points="198,35 203,30 206,30 206,40 203,40 198,35 " style="fill:#d88a15; stroke-width:1; stroke:black; " description="&lt;b&gt;ctg25_22&lt;/b&gt;&lt;br&gt;ctg25 22&lt;br&gt;Location: 25355 - 25826" locus_tag="ctg25_22" class="clusterblast-orf" id="dummy-1_q12_0_all"  />
<polygon points="207,40 222,40 227,35 222,30 207,30 207,40 " style="fill:#15d863; stroke-width:1; stroke:black; " description="&lt;b&gt;ctg25_23&lt;/b&gt;&lt;br&gt;ctg25 23&lt;br&gt;Location: 25949 - 27194" locus_tag="ctg25_23" class="clusterblast-orf" id="dummy-1_q13_0_all"  />
<polygon points="231,40 236,40 241,35 236,30 231,30 231,40 " style="fill:#3c15d8; stroke-width:1; stroke:black; " description="&lt;b&gt;ctg25_24&lt;/b&gt;&lt;br&gt;ctg25 24&lt;br&gt;Location: 27426 - 28104" locus_tag="ctg25_24" class="clusterblast-orf" id="dummy-1_q14_0_all"  />
<polygon points="243,35 248,30 274,30 274,40 248,40 243,35 " style="fill:#d8158a; stroke-width:1; stroke:black; " description="&lt;b&gt;ctg25_25&lt;/b&gt;&lt;br&gt;ctg25 25&lt;br&gt;Location: 28231 - 30190" locus_tag="ctg25_25" class="clusterblast-orf" id="dummy-1_q15_0_all"  />
<polygon points="274,35 279,30 292,30 292,40 279,40 274,35 " style="fill:#b1d815; stroke-width:1; stroke:black; " description="&lt;b&gt;ctg25_26&lt;/b&gt;&lt;br&gt;ctg25 26&lt;br&gt;Location: 30193 - 31336" locus_tag="ctg25_26" class="clusterblast-orf" id="dummy-1_q16_0_all"  />
<polygon points="292,35 297,30 471,30 471,40 297,40 292,35 " style="fill:#15d8d8; stroke-width:1; stroke:black; " description="&lt;b&gt;ctg25_27&lt;/b&gt;&lt;br&gt;ctg25 27&lt;br&gt;Location: 31332 - 42669" locus_tag="ctg25_27" class="clusterblast-orf" id="dummy-1_q17_0_all"  />
<polygon points="471,35 476,30 674,30 674,40 476,40 471,35 " style="fill:#15d8d8; stroke-width:1; stroke:black; " description="&lt;b&gt;ctg25_28&lt;/b&gt;&lt;br&gt;ctg25 28&lt;br&gt;Location: 42665 - 55577" locus_tag="ctg25_28" class="clusterblast-orf" id="dummy-1_q18_0_all"  />
<polygon points="677,35 682,30 686,30 686,40 682,40 677,35 " style="fill:white; stroke-width:1; stroke:black; " description="&lt;b&gt;ctg25_29&lt;/b&gt;&lt;br&gt;ctg25 29&lt;br&gt;Location: 55786 - 56332" locus_tag="ctg25_29" class="clusterblast-orf" id="dummy-1_q19_0_all"  />
<polygon points="688,35 693,30 704,30 704,40 693,40 688,35 " style="fill:white; stroke-width:1; stroke:black; " description="&lt;b&gt;ctg25_30&lt;/b&gt;&lt;br&gt;ctg25 30&lt;br&gt;Location: 56451 - 57450" locus_tag="ctg25_30" class="clusterblast-orf" id="dummy-1_q20_0_all"  />
<polygon points="704,35 709,30 763,30 763,40 709,40 704,35 " style="fill:white; stroke-width:1; stroke:black; " description="&lt;b&gt;ctg25_31&lt;/b&gt;&lt;br&gt;ctg25 31&lt;br&gt;Location: 57449 - 61211" locus_tag="ctg25_31" class="clusterblast-orf" id="dummy-1_q21_0_all"  />
<polygon points="763,35 768,30 780,30 780,40 768,40 763,35 " style="fill:white; stroke-width:1; stroke:black; " description="&lt;b&gt;ctg25_32&lt;/b&gt;&lt;br&gt;ctg25 32&lt;br&gt;Location: 61214 - 62276" locus_tag="ctg25_32" class="clusterblast-orf" id="dummy-1_q22_0_all"  />
</g>
<g label="BGC0000399" description="BGC0000399_c1: orfamide A/orfamide C (35% of genes show similarity), NRP:Cyclic depsipeptide" class="clusterblast-cluster"  >
<text x="5" y="70" class="clusterblast-acc"  >
<a xlink:href="https://mibig.secondarymetabolites.org/go/BGC0000399/1" target="_blank">BGC0000399</a>: orfamide A/orfamide C                                                            (35% of genes show similarity), NRP:Cyclic depsipeptide</text>
<line x1="10" y1="85" x2="778.0" y2="85" style="stroke-width:1; stroke:grey; "  />
</g>
<g id="a1_000"  >
<polygon points="19,85 22,80 22,90 19,85 " style="fill:white; stroke-width:1; stroke:black; " description="&lt;b&gt;PFL_2158&lt;/b&gt;&lt;br&gt;conserved hypothetical protein&lt;br&gt;Location: 47020 - 46835" locus_tag="PFL_2158" class="clusterblast-orf" id="dummy-1_h1_6_0"  />
</g>
<g id="a1_001"  >
<polygon points="24,85 28,80 28,90 24,85 " style="fill:white; stroke-width:1; stroke:black; " description="&lt;b&gt;PFL_2157&lt;/b&gt;&lt;br&gt;conserved hypothetical protein&lt;br&gt;Location: 46739 - 46482" locus_tag="PFL_2157" class="clusterblast-orf" id="dummy-1_h1_6_1"  />
</g>
<g id="a1_002"  >
<polygon points="29,90 34,90 39,85 34,80 29,80 29,90 " style="fill:white; stroke-width:1; stroke:black; " description="&lt;b&gt;PFL_2156&lt;/b&gt;&lt;br&gt;HAD hydrolase, family IA, variant 3&lt;br&gt;Location: 46369 - 45740" locus_tag="PFL_2156" class="clusterblast-orf" id="dummy-1_h1_6_2"  />
</g>
<g id="a1_003"  >
<polygon points="44,90 47,85 44,80 44,90 " style="fill:white; stroke-width:1; stroke:black; " description="&lt;b&gt;PFL_2155&lt;/b&gt;&lt;br&gt;conserved hypothetical protein&lt;br&gt;Location: 45422 - 45234" locus_tag="PFL_2155" class="clusterblast-orf" id="dummy-1_h1_6_3"  />
</g>
<g id="a1_004"  >
<polygon points="48,90 53,90 58,85 53,80 48,80 48,90 " style="fill:white; stroke-width:1; stroke:black; " description="&lt;b&gt;PFL_2154&lt;/b&gt;&lt;br&gt;conserved hypothetical protein&lt;br&gt;Location: 45197 - 44562" locus_tag="PFL_2154" class="clusterblast-orf" id="dummy-1_h1_6_4"  />
</g>
<g id="a1_005"  >
<polygon points="59,90 63,90 68,85 63,80 59,80 59,90 " style="fill:white; stroke-width:1; stroke:black; " description="&lt;b&gt;PFL_2153&lt;/b&gt;&lt;br&gt;conserved hypothetical protein&lt;br&gt;Location: 44510 - 43902" locus_tag="PFL_2153" class="clusterblast-orf" id="dummy-1_h1_6_5"  />
</g>
<g id="a1_006"  >
<polygon points="70,90 88,90 93,85 88,80 70,80 70,90 " style="fill:white; stroke-width:1; stroke:black; " description="&lt;b&gt;PFL_2152&lt;/b&gt;&lt;br&gt;radical SAM domain protein&lt;br&gt;Location: 43811 - 42303" locus_tag="PFL_2152" class="clusterblast-orf" id="dummy-1_h1_6_6"  />
</g>
<g id="a1_007"  >
<polygon points="96,90 98,90 103,85 98,80 96,80 96,90 " style="fill:white; stroke-width:1; stroke:black; " description="&lt;b&gt;PFL_2151&lt;/b&gt;&lt;br&gt;glyoxalase family protein&lt;br&gt;Location: 42127 - 41714" locus_tag="PFL_2151" class="clusterblast-orf" id="dummy-1_h1_6_7"  />
</g>
<g id="a1_008"  >
<polygon points="106,90 114,90 119,85 114,80 106,80 106,90 " style="fill:#3c15d8; stroke-width:1; stroke:black; " description="&lt;b&gt;PFL_2150&lt;/b&gt;&lt;br&gt;transcriptional regulator, LuxR family&lt;br&gt;Location: 41486 - 40698&lt;br&gt;&lt;br&gt;&lt;b&gt;BlastP hit with ctg25_24&lt;/b&gt;&lt;br&gt;Percentage identity: 63&lt;br&gt;Percentage coverage: 112&lt;br&gt;BLAST bit score: 269&lt;br&gt;E-value: 2.82e-91" locus_tag="PFL_2150" class="clusterblast-orf" id="dummy-1_h1_6_8"  />
</g>
<g id="a1_009"  >
<polygon points="120,85 125,80 151,80 151,90 125,90 120,85 " style="fill:#d8158a; stroke-width:1; stroke:black; " description="&lt;b&gt;PFL_2149&lt;/b&gt;&lt;br&gt;efflux ABC transporter, permease/ATP-binding protein&lt;br&gt;Location: 40637 - 38679&lt;br&gt;&lt;br&gt;&lt;b&gt;BlastP hit with ctg25_25&lt;/b&gt;&lt;br&gt;Percentage identity: 85&lt;br&gt;Percentage coverage: 100&lt;br&gt;BLAST bit score: 1062&lt;br&gt;E-value: 0.0" locus_tag="PFL_2149" class="clusterblast-orf" id="dummy-1_h1_6_9"  />
</g>
<g id="a1_0010"  >
<polygon points="151,85 156,80 169,80 169,90 156,90 151,85 " style="fill:#b1d815; stroke-width:1; stroke:black; " description="&lt;b&gt;PFL_2148&lt;/b&gt;&lt;br&gt;efflux transporter, RND family, MFP subunit&lt;br&gt;Location: 38676 - 37525&lt;br&gt;&lt;br&gt;&lt;b&gt;BlastP hit with ctg25_26&lt;/b&gt;&lt;br&gt;Percentage identity: 77&lt;br&gt;Percentage coverage: 100&lt;br&gt;BLAST bit score: 546&lt;br&gt;E-value: 5.39e-196" locus_tag="PFL_2148" class="clusterblast-orf" id="dummy-1_h1_6_10"  />
</g>
<g id="a1_0011"  >
<polygon points="171,85 176,80 403,80 403,90 176,90 171,85 " style="fill:#15d8d8; stroke-width:1; stroke:black; " description="&lt;b&gt;PFL_2147&lt;/b&gt;&lt;br&gt;non-ribosomal peptide synthetase OfaC&lt;br&gt;Location: 37374 - 22669&lt;br&gt;&lt;br&gt;&lt;b&gt;BlastP hit with ctg25_27&lt;/b&gt;&lt;br&gt;Percentage identity: 54&lt;br&gt;Percentage coverage: 130&lt;br&gt;BLAST bit score: 4741&lt;br&gt;E-value: 0.0" locus_tag="PFL_2147" class="clusterblast-orf" id="dummy-1_h1_6_11"  />
</g>
<g id="a1_0012"  >
<polygon points="403,85 408,80 609,80 609,90 408,90 403,85 " style="fill:#15d8d8; stroke-width:1; stroke:black; " description="&lt;b&gt;PFL_2146&lt;/b&gt;&lt;br&gt;non-ribosomal peptide synthetase OfaB&lt;br&gt;Location: 22672 - 9569&lt;br&gt;&lt;br&gt;&lt;b&gt;BlastP hit with ctg25_27&lt;/b&gt;&lt;br&gt;Percentage identity: 46&lt;br&gt;Percentage coverage: 87&lt;br&gt;BLAST bit score: 2513&lt;br&gt;E-value: 0.0&lt;br&gt;&lt;br&gt;&lt;b&gt;BlastP hit with ctg25_28&lt;/b&gt;&lt;br&gt;Percentage identity: 69&lt;br&gt;Percentage coverage: 102&lt;br&gt;BLAST bit score: 5796&lt;br&gt;E-value: 0.0" locus_tag="PFL_2146" class="clusterblast-orf" id="dummy-1_h1_6_12"  />
</g>
<g id="a1_0013"  >
<polygon points="614,85 619,80 714,80 714,90 619,90 614,85 " style="fill:#15d8d8; stroke-width:1; stroke:black; " description="&lt;b&gt;PFL_2145&lt;/b&gt;&lt;br&gt;non-ribosomal peptide synthetase OfaA&lt;br&gt;Location: 9251 - 2886&lt;br&gt;&lt;br&gt;&lt;b&gt;BlastP hit with ctg25_28&lt;/b&gt;&lt;br&gt;Percentage identity: 51&lt;br&gt;Percentage coverage: 49&lt;br&gt;BLAST bit score: 1825&lt;br&gt;E-value: 0.0" locus_tag="PFL_2145" class="clusterblast-orf" id="dummy-1_h1_6_13"  />
</g>
<g id="a1_0014"  >
<polygon points="716,90 718,85 716,80 716,90 " style="fill:white; stroke-width:1; stroke:black; " description="&lt;b&gt;PFL_2144&lt;/b&gt;&lt;br&gt;conserved hypothetical protein&lt;br&gt;Location: 2770 - 2624" locus_tag="PFL_2144" class="clusterblast-orf" id="dummy-1_h1_6_14"  />
</g>
<g id="a1_0015"  >
<polygon points="724,90 731,90 736,85 731,80 724,80 724,90 " style="fill:white; stroke-width:1; stroke:black; " description="&lt;b&gt;PFL_2143&lt;/b&gt;&lt;br&gt;transcriptional regulator, LuxR family&lt;br&gt;Location: 2291 - 1491" locus_tag="PFL_2143" class="clusterblast-orf" id="dummy-1_h1_6_15"  />
</g>
<g id="a1_0016"  >
<polygon points="737,90 755,90 760,85 755,80 737,80 737,90 " style="fill:white; stroke-width:1; stroke:black; " description="&lt;b&gt;PFL_2142&lt;/b&gt;&lt;br&gt;efflux transporter, outer membrane factor lipoprotein, NodT family&lt;br&gt;Location: 1431 - 1" locus_tag="PFL_2142" class="clusterblast-orf" id="dummy-1_h1_6_16"  />
</g>
</svg>
