<svg xmlns="http://www.w3.org/2000/svg" xmlns:xlink="http://www.w3.org/1999/xlink" version="1.1" x="0" y="0" height="50" width="800" viewBox="0 0 800 50" preserveAspectRatio="none"  >
<g label="Query sequence" class="clusterblast-cluster"  >
<text x="5" y="20" class="clusterblast-acc"  >
Query sequence</text>
<line x1="10" y1="35" x2="778.0" y2="35" style="stroke-width:1; stroke:grey; "  />
<polygon points="0,35 5,30 71,30 71,40 5,40 0,35 " style="fill:white; stroke-width:1; stroke:black; " description="&lt;b&gt;ctg3_228&lt;/b&gt;&lt;br&gt;ctg3 228&lt;br&gt;Location: 245224 - 246265" locus_tag="ctg3_228" class="clusterblast-orf" id="knownclusterblast-3_q0_0_all"  />
<polygon points="94,40 160,40 165,35 160,30 94,30 94,40 " style="fill:white; stroke-width:1; stroke:black; " description="&lt;b&gt;ctg3_229&lt;/b&gt;&lt;br&gt;ctg3 229&lt;br&gt;Location: 246608 - 247667" locus_tag="ctg3_229" class="clusterblast-orf" id="knownclusterblast-3_q1_0_all"  />
<polygon points="165,40 204,40 209,35 204,30 165,30 165,40 " style="fill:white; stroke-width:1; stroke:black; " description="&lt;b&gt;ctg3_230&lt;/b&gt;&lt;br&gt;ctg3 230&lt;br&gt;Location: 247666 - 248317" locus_tag="ctg3_230" class="clusterblast-orf" id="knownclusterblast-3_q2_0_all"  />
<polygon points="210,40 253,40 258,35 253,30 210,30 210,40 " style="fill:white; stroke-width:1; stroke:black; " description="&lt;b&gt;ctg3_231&lt;/b&gt;&lt;br&gt;ctg3 231&lt;br&gt;Location: 248325 - 249039" locus_tag="ctg3_231" class="clusterblast-orf" id="knownclusterblast-3_q3_0_all"  />
<polygon points="284,40 292,40 297,35 292,30 284,30 284,40 " style="fill:white; stroke-width:1; stroke:black; " description="&lt;b&gt;ctg3_232&lt;/b&gt;&lt;br&gt;ctg3 232&lt;br&gt;Location: 249415 - 249604" locus_tag="ctg3_232" class="clusterblast-orf" id="knownclusterblast-3_q4_0_all"  />
<polygon points="322,40 448,40 453,35 448,30 322,30 322,40 " style="fill:white; stroke-width:1; stroke:black; " description="&lt;b&gt;ctg3_233&lt;/b&gt;&lt;br&gt;ctg3 233&lt;br&gt;Location: 249986 - 251912" locus_tag="ctg3_233" class="clusterblast-orf" id="knownclusterblast-3_q5_0_all"  />
<polygon points="452,40 529,40 534,35 529,30 452,30 452,40 " style="fill:white; stroke-width:1; stroke:black; " description="&lt;b&gt;ctg3_234&lt;/b&gt;&lt;br&gt;ctg3 234&lt;br&gt;Location: 251901 - 253113" locus_tag="ctg3_234" class="clusterblast-orf" id="knownclusterblast-3_q6_0_all"  />
<polygon points="535,40 673,40 678,35 673,30 535,30 535,40 " style="fill:white; stroke-width:1; stroke:black; " description="&lt;b&gt;ctg3_235&lt;/b&gt;&lt;br&gt;ctg3 235&lt;br&gt;Location: 253124 - 255245" locus_tag="ctg3_235" class="clusterblast-orf" id="knownclusterblast-3_q7_0_all"  />
<polygon points="685,35 690,30 722,30 722,40 690,40 685,35 " style="fill:white; stroke-width:1; stroke:black; " description="&lt;b&gt;ctg3_236&lt;/b&gt;&lt;br&gt;ctg3 236&lt;br&gt;Location: 255347 - 255893" locus_tag="ctg3_236" class="clusterblast-orf" id="knownclusterblast-3_q8_0_all"  />
<polygon points="724,35 729,30 780,30 780,40 729,40 724,35 " style="fill:white; stroke-width:1; stroke:black; " description="&lt;b&gt;ctg3_237&lt;/b&gt;&lt;br&gt;ctg3 237&lt;br&gt;Location: 255918 - 256752" locus_tag="ctg3_237" class="clusterblast-orf" id="knownclusterblast-3_q9_0_all"  />
</g>
</svg>
