<svg xmlns="http://www.w3.org/2000/svg" xmlns:xlink="http://www.w3.org/1999/xlink" version="1.1" x="0" y="0" height="230" width="800" viewBox="0 0 800 230" preserveAspectRatio="none"  >
<g label="Query sequence" class="clusterblast-cluster"  >
<text x="5" y="20" class="clusterblast-acc"  >
Query sequence</text>
<line x1="10" y1="35" x2="778.0" y2="35" style="stroke-width:1; stroke:grey; "  />
<polygon points="0,40 21,40 26,35 21,30 0,30 0,40 " style="fill:white; stroke-width:1; stroke:black; " description="&lt;b&gt;ctg1_141&lt;/b&gt;&lt;br&gt;ctg1 141&lt;br&gt;Location: 125201 - 126701" locus_tag="ctg1_141" class="clusterblast-orf" id="dummy-1_q0_0_all"  />
<polygon points="25,40 31,40 36,35 31,30 25,30 25,40 " style="fill:white; stroke-width:1; stroke:black; " description="&lt;b&gt;ctg1_142&lt;/b&gt;&lt;br&gt;ctg1 142&lt;br&gt;Location: 126663 - 127260" locus_tag="ctg1_142" class="clusterblast-orf" id="dummy-1_q1_0_all"  />
<polygon points="38,40 49,40 54,35 49,30 38,30 38,40 " style="fill:white; stroke-width:1; stroke:black; " description="&lt;b&gt;ctg1_143&lt;/b&gt;&lt;br&gt;ctg1 143&lt;br&gt;Location: 127371 - 128313" locus_tag="ctg1_143" class="clusterblast-orf" id="dummy-1_q2_0_all"  />
<polygon points="55,35 60,30 69,30 69,40 60,40 55,35 " style="fill:#d81515; stroke-width:1; stroke:black; " description="&lt;b&gt;ctg1_144&lt;/b&gt;&lt;br&gt;ctg1 144&lt;br&gt;Location: 128374 - 129130" locus_tag="ctg1_144" class="clusterblast-orf" id="dummy-1_q3_0_all"  />
<polygon points="69,35 74,30 83,30 83,40 74,40 69,35 " style="fill:#4dd815; stroke-width:1; stroke:black; " description="&lt;b&gt;ctg1_145&lt;/b&gt;&lt;br&gt;ctg1 145&lt;br&gt;Location: 129119 - 129923" locus_tag="ctg1_145" class="clusterblast-orf" id="dummy-1_q4_0_all"  />
<polygon points="82,35 87,30 97,30 97,40 87,40 82,35 " style="fill:#1585d8; stroke-width:1; stroke:black; " description="&lt;b&gt;ctg1_146&lt;/b&gt;&lt;br&gt;ctg1 146&lt;br&gt;Location: 129915 - 130737" locus_tag="ctg1_146" class="clusterblast-orf" id="dummy-1_q5_0_all"  />
<polygon points="97,35 102,30 104,30 104,40 102,40 97,35 " style="fill:white; stroke-width:1; stroke:black; " description="&lt;b&gt;ctg1_147&lt;/b&gt;&lt;br&gt;ctg1 147&lt;br&gt;Location: 130749 - 131115" locus_tag="ctg1_147" class="clusterblast-orf" id="dummy-1_q6_0_all"  />
<polygon points="104,35 109,30 127,30 127,40 109,40 104,35 " style="fill:white; stroke-width:1; stroke:black; " description="&lt;b&gt;ctg1_148&lt;/b&gt;&lt;br&gt;ctg1 148&lt;br&gt;Location: 131144 - 132443" locus_tag="ctg1_148" class="clusterblast-orf" id="dummy-1_q7_0_all"  />
<polygon points="131,40 133,40 138,35 133,30 131,30 131,40 " style="fill:white; stroke-width:1; stroke:black; " description="&lt;b&gt;ctg1_149&lt;/b&gt;&lt;br&gt;ctg1 149&lt;br&gt;Location: 132651 - 133074" locus_tag="ctg1_149" class="clusterblast-orf" id="dummy-1_q8_0_all"  />
<polygon points="140,35 145,30 154,30 154,40 145,40 140,35 " style="fill:white; stroke-width:1; stroke:black; " description="&lt;b&gt;ctg1_150&lt;/b&gt;&lt;br&gt;ctg1 150&lt;br&gt;Location: 133199 - 134000" locus_tag="ctg1_150" class="clusterblast-orf" id="dummy-1_q9_0_all"  />
<polygon points="155,35 160,30 169,30 169,40 160,40 155,35 " style="fill:white; stroke-width:1; stroke:black; " description="&lt;b&gt;ctg1_151&lt;/b&gt;&lt;br&gt;ctg1 151&lt;br&gt;Location: 134015 - 134819" locus_tag="ctg1_151" class="clusterblast-orf" id="dummy-1_q10_0_all"  />
<polygon points="169,35 174,30 192,30 192,40 174,40 169,35 " style="fill:#d815bc; stroke-width:1; stroke:black; " description="&lt;b&gt;ctg1_152&lt;/b&gt;&lt;br&gt;ctg1 152&lt;br&gt;Location: 134830 - 136135" locus_tag="ctg1_152" class="clusterblast-orf" id="dummy-1_q11_0_all"  />
<polygon points="193,35 198,30 199,30 199,40 198,40 193,35 " style="fill:white; stroke-width:1; stroke:black; " description="&lt;b&gt;ctg1_153&lt;/b&gt;&lt;br&gt;ctg1 153&lt;br&gt;Location: 136180 - 136573" locus_tag="ctg1_153" class="clusterblast-orf" id="dummy-1_q12_0_all"  />
<polygon points="200,35 205,30 215,30 215,40 205,40 200,35 " style="fill:white; stroke-width:1; stroke:black; " description="&lt;b&gt;ctg1_154&lt;/b&gt;&lt;br&gt;ctg1 154&lt;br&gt;Location: 136588 - 137446" locus_tag="ctg1_154" class="clusterblast-orf" id="dummy-1_q13_0_all"  />
<polygon points="216,35 221,30 241,30 241,40 221,40 216,35 " style="fill:white; stroke-width:1; stroke:black; " description="&lt;b&gt;ctg1_155&lt;/b&gt;&lt;br&gt;ctg1 155&lt;br&gt;Location: 137492 - 138953" locus_tag="ctg1_155" class="clusterblast-orf" id="dummy-1_q14_0_all"  />
<polygon points="241,35 246,30 255,30 255,40 246,40 241,35 " style="fill:white; stroke-width:1; stroke:black; " description="&lt;b&gt;ctg1_156&lt;/b&gt;&lt;br&gt;ctg1 156&lt;br&gt;Location: 138958 - 139729" locus_tag="ctg1_156" class="clusterblast-orf" id="dummy-1_q15_0_all"  />
<polygon points="255,35 260,30 267,30 267,40 260,40 255,35 " style="fill:white; stroke-width:1; stroke:black; " description="&lt;b&gt;ctg1_157&lt;/b&gt;&lt;br&gt;ctg1 157&lt;br&gt;Location: 139725 - 140391" locus_tag="ctg1_157" class="clusterblast-orf" id="dummy-1_q16_0_all"  />
<polygon points="269,40 279,40 284,35 279,30 269,30 269,40 " style="fill:white; stroke-width:1; stroke:black; " description="&lt;b&gt;ctg1_158&lt;/b&gt;&lt;br&gt;ctg1 158&lt;br&gt;Location: 140519 - 141380" locus_tag="ctg1_158" class="clusterblast-orf" id="dummy-1_q17_0_all"  />
<polygon points="283,35 288,30 308,30 308,40 288,40 283,35 " style="fill:#d8bc15; stroke-width:1; stroke:black; " description="&lt;b&gt;ctg1_159&lt;/b&gt;&lt;br&gt;ctg1 159&lt;br&gt;Location: 141306 - 142776" locus_tag="ctg1_159" class="clusterblast-orf" id="dummy-1_q18_0_all"  />
<polygon points="308,35 313,30 322,30 322,40 313,40 308,35 " style="fill:#15d885; stroke-width:1; stroke:black; " description="&lt;b&gt;ctg1_160&lt;/b&gt;&lt;br&gt;ctg1 160&lt;br&gt;Location: 142775 - 143570" locus_tag="ctg1_160" class="clusterblast-orf" id="dummy-1_q19_0_all"  />
<polygon points="331,40 436,40 441,35 436,30 331,30 331,40 " style="fill:#4d15d8; stroke-width:1; stroke:black; " description="&lt;b&gt;ctg1_161&lt;/b&gt;&lt;br&gt;ctg1 161&lt;br&gt;Location: 144057 - 150327" locus_tag="ctg1_161" class="clusterblast-orf" id="dummy-1_q20_0_all"  />
<polygon points="442,35 447,30 469,30 469,40 447,40 442,35 " style="fill:white; stroke-width:1; stroke:black; " description="&lt;b&gt;ctg1_162&lt;/b&gt;&lt;br&gt;ctg1 162&lt;br&gt;Location: 150382 - 151900" locus_tag="ctg1_162" class="clusterblast-orf" id="dummy-1_q21_0_all"  />
<polygon points="469,35 474,30 498,30 498,40 474,40 469,35 " style="fill:white; stroke-width:1; stroke:black; " description="&lt;b&gt;ctg1_163&lt;/b&gt;&lt;br&gt;ctg1 163&lt;br&gt;Location: 151926 - 153582" locus_tag="ctg1_163" class="clusterblast-orf" id="dummy-1_q22_0_all"  />
<polygon points="502,35 507,30 513,30 513,40 507,40 502,35 " style="fill:white; stroke-width:1; stroke:black; " description="&lt;b&gt;ctg1_164&lt;/b&gt;&lt;br&gt;ctg1 164&lt;br&gt;Location: 153771 - 154446" locus_tag="ctg1_164" class="clusterblast-orf" id="dummy-1_q23_0_all"  />
<polygon points="518,40 525,40 530,35 525,30 518,30 518,40 " style="fill:white; stroke-width:1; stroke:black; " description="&lt;b&gt;ctg1_165&lt;/b&gt;&lt;br&gt;ctg1 165&lt;br&gt;Location: 154720 - 155389" locus_tag="ctg1_165" class="clusterblast-orf" id="dummy-1_q24_0_all"  />
<polygon points="529,40 568,40 573,35 568,30 529,30 529,40 " style="fill:white; stroke-width:1; stroke:black; " description="&lt;b&gt;ctg1_166&lt;/b&gt;&lt;br&gt;ctg1 166&lt;br&gt;Location: 155357 - 157853" locus_tag="ctg1_166" class="clusterblast-orf" id="dummy-1_q25_0_all"  />
<polygon points="573,40 587,40 592,35 587,30 573,30 573,40 " style="fill:white; stroke-width:1; stroke:black; " description="&lt;b&gt;ctg1_167&lt;/b&gt;&lt;br&gt;ctg1 167&lt;br&gt;Location: 157842 - 158907" locus_tag="ctg1_167" class="clusterblast-orf" id="dummy-1_q26_0_all"  />
<polygon points="594,40 615,40 620,35 615,30 594,30 594,40 " style="fill:white; stroke-width:1; stroke:black; " description="&lt;b&gt;ctg1_168&lt;/b&gt;&lt;br&gt;ctg1 168&lt;br&gt;Location: 159057 - 160500" locus_tag="ctg1_168" class="clusterblast-orf" id="dummy-1_q27_0_all"  />
<polygon points="621,35 626,30 640,30 640,40 626,40 621,35 " style="fill:white; stroke-width:1; stroke:black; " description="&lt;b&gt;ctg1_169&lt;/b&gt;&lt;br&gt;ctg1 169&lt;br&gt;Location: 160550 - 161651" locus_tag="ctg1_169" class="clusterblast-orf" id="dummy-1_q28_0_all"  />
<polygon points="640,35 645,30 652,30 652,40 645,40 640,35 " style="fill:white; stroke-width:1; stroke:black; " description="&lt;b&gt;ctg1_170&lt;/b&gt;&lt;br&gt;ctg1 170&lt;br&gt;Location: 161653 - 162325" locus_tag="ctg1_170" class="clusterblast-orf" id="dummy-1_q29_0_all"  />
<polygon points="657,40 669,40 674,35 669,30 657,30 657,40 " style="fill:white; stroke-width:1; stroke:black; " description="&lt;b&gt;ctg1_171&lt;/b&gt;&lt;br&gt;ctg1 171&lt;br&gt;Location: 162642 - 163566" locus_tag="ctg1_171" class="clusterblast-orf" id="dummy-1_q30_0_all"  />
<polygon points="675,40 696,40 701,35 696,30 675,30 675,40 " style="fill:white; stroke-width:1; stroke:black; " description="&lt;b&gt;ctg1_172&lt;/b&gt;&lt;br&gt;ctg1 172&lt;br&gt;Location: 163629 - 165138" locus_tag="ctg1_172" class="clusterblast-orf" id="dummy-1_q31_0_all"  />
<polygon points="701,40 713,40 718,35 713,30 701,30 701,40 " style="fill:white; stroke-width:1; stroke:black; " description="&lt;b&gt;ctg1_173&lt;/b&gt;&lt;br&gt;ctg1 173&lt;br&gt;Location: 165103 - 166096" locus_tag="ctg1_173" class="clusterblast-orf" id="dummy-1_q32_0_all"  />
<polygon points="719,40 733,40 738,35 733,30 719,30 719,40 " style="fill:white; stroke-width:1; stroke:black; " description="&lt;b&gt;ctg1_174&lt;/b&gt;&lt;br&gt;ctg1 174&lt;br&gt;Location: 166123 - 167203" locus_tag="ctg1_174" class="clusterblast-orf" id="dummy-1_q33_0_all"  />
<polygon points="738,40 760,40 765,35 760,30 738,30 738,40 " style="fill:white; stroke-width:1; stroke:black; " description="&lt;b&gt;ctg1_175&lt;/b&gt;&lt;br&gt;ctg1 175&lt;br&gt;Location: 167216 - 168737" locus_tag="ctg1_175" class="clusterblast-orf" id="dummy-1_q34_0_all"  />
<polygon points="767,40 775,40 780,35 775,30 767,30 767,40 " style="fill:white; stroke-width:1; stroke:black; " description="&lt;b&gt;ctg1_176&lt;/b&gt;&lt;br&gt;ctg1 176&lt;br&gt;Location: 168873 - 169599" locus_tag="ctg1_176" class="clusterblast-orf" id="dummy-1_q35_0_all"  />
</g>
<g label="BGC0001346" description="BGC0001346_c1: bananamide 1/bananamide 2/bananamide 3 (50% of genes show similarity), NRP:Cyclic depsipeptide" class="clusterblast-cluster"  >
<text x="5" y="70" class="clusterblast-acc"  >
<a xlink:href="https://mibig.secondarymetabolites.org/go/BGC0001346/1" target="_blank">BGC0001346</a>: bananamide 1/bananamide 2/bananamide 3                                           (50% of genes show similarity), NRP:Cyclic depsipeptide</text>
<line x1="10" y1="85" x2="778.0" y2="85" style="stroke-width:1; stroke:grey; "  />
</g>
<g id="a1_000"  >
<polygon points="87,85 92,80 106,80 106,90 92,90 87,85 " style="fill:#d8bc15; stroke-width:1; stroke:black; " description="&lt;b&gt;AOA33119.1&lt;/b&gt;&lt;br&gt;RND efflux system, outer membrane lipoprotein&lt;br&gt;Location: 1 - 1066&lt;br&gt;&lt;br&gt;&lt;b&gt;BlastP hit with ctg1_159&lt;/b&gt;&lt;br&gt;Percentage identity: 74&lt;br&gt;Percentage coverage: 73&lt;br&gt;BLAST bit score: 504&lt;br&gt;E-value: 3.08e-178" locus_tag="AOA33119.1" class="clusterblast-orf" id="dummy-1_h1_3_0"  />
</g>
<g id="a1_001"  >
<polygon points="107,85 112,80 121,80 121,90 112,90 107,85 " style="fill:#15d885; stroke-width:1; stroke:black; " description="&lt;b&gt;AOA33120.1&lt;/b&gt;&lt;br&gt;LuxR family DNA-binding response regulator&lt;br&gt;Location: 1126 - 1920&lt;br&gt;&lt;br&gt;&lt;b&gt;BlastP hit with ctg1_160&lt;/b&gt;&lt;br&gt;Percentage identity: 62&lt;br&gt;Percentage coverage: 100&lt;br&gt;BLAST bit score: 309&lt;br&gt;E-value: 2.13e-106" locus_tag="AOA33120.1" class="clusterblast-orf" id="dummy-1_h1_3_1"  />
</g>
<g id="a1_002"  >
<polygon points="130,90 237,90 242,85 237,80 130,80 130,90 " style="fill:#4d15d8; stroke-width:1; stroke:black; " description="&lt;b&gt;AOA33121.1&lt;/b&gt;&lt;br&gt;Nonribosomal peptide synthetase&lt;br&gt;Location: 2411 - 8821&lt;br&gt;&lt;br&gt;&lt;b&gt;BlastP hit with ctg1_161&lt;/b&gt;&lt;br&gt;Percentage identity: 64&lt;br&gt;Percentage coverage: 101&lt;br&gt;BLAST bit score: 2636&lt;br&gt;E-value: 0.0" locus_tag="AOA33121.1" class="clusterblast-orf" id="dummy-1_h1_3_2"  />
</g>
<g id="a1_003"  >
<polygon points="247,90 470,90 475,85 470,80 247,80 247,90 " style="fill:#4d15d8; stroke-width:1; stroke:black; " description="&lt;b&gt;AOA33122.1&lt;/b&gt;&lt;br&gt;Nonribosomal peptide synthetase&lt;br&gt;Location: 9072 - 22079&lt;br&gt;&lt;br&gt;&lt;b&gt;BlastP hit with ctg1_161&lt;/b&gt;&lt;br&gt;Percentage identity: 54&lt;br&gt;Percentage coverage: 101&lt;br&gt;BLAST bit score: 2031&lt;br&gt;E-value: 0.0" locus_tag="AOA33122.1" class="clusterblast-orf" id="dummy-1_h1_3_3"  />
</g>
<g id="a1_004"  >
<polygon points="475,90 616,90 621,85 616,80 475,80 475,90 " style="fill:white; stroke-width:1; stroke:black; " description="&lt;b&gt;AOA33123.1&lt;/b&gt;&lt;br&gt;Nonribosomal peptide synthetase&lt;br&gt;Location: 22076 - 30376" locus_tag="AOA33123.1" class="clusterblast-orf" id="dummy-1_h1_3_4"  />
</g>
<g id="a1_005"  >
<polygon points="622,90 637,90 642,85 637,80 622,80 622,90 " style="fill:white; stroke-width:1; stroke:black; " description="&lt;b&gt;AOA33124.1&lt;/b&gt;&lt;br&gt;RND family efflux transporter MFP subunit&lt;br&gt;Location: 30443 - 31591" locus_tag="AOA33124.1" class="clusterblast-orf" id="dummy-1_h1_3_5"  />
</g>
<g id="a1_006"  >
<polygon points="642,90 672,90 677,85 672,80 642,80 642,90 " style="fill:white; stroke-width:1; stroke:black; " description="&lt;b&gt;AOA33125.1&lt;/b&gt;&lt;br&gt;ABC transporter ATP-binding protein&lt;br&gt;Location: 31588 - 33552" locus_tag="AOA33125.1" class="clusterblast-orf" id="dummy-1_h1_3_6"  />
</g>
<g id="a1_007"  >
<polygon points="678,85 683,80 692,80 692,90 683,90 678,85 " style="fill:white; stroke-width:1; stroke:black; " description="&lt;b&gt;AOA33126.1&lt;/b&gt;&lt;br&gt;LuxR family DNA-binding response regulator&lt;br&gt;Location: 33610 - 34383" locus_tag="AOA33126.1" class="clusterblast-orf" id="dummy-1_h1_3_7"  />
</g>
</svg>
