<svg xmlns="http://www.w3.org/2000/svg" xmlns:xlink="http://www.w3.org/1999/xlink" version="1.1" x="0" y="0" height="230" width="800" viewBox="0 0 800 230" preserveAspectRatio="none"  >
<g label="Query sequence" class="clusterblast-cluster"  >
<text x="5" y="20" class="clusterblast-acc"  >
Query sequence</text>
<line x1="10" y1="35" x2="778.0" y2="35" style="stroke-width:1; stroke:grey; "  />
<polygon points="222,40 241,40 246,35 241,30 222,30 222,40 " style="fill:#d81515; stroke-width:1; stroke:black; " description="&lt;b&gt;ctg1_669&lt;/b&gt;&lt;br&gt;ctg1 669&lt;br&gt;Location: 727140 - 728430" locus_tag="ctg1_669" class="clusterblast-orf" id="dummy-2_q0_0_all"  />
<polygon points="250,40 278,40 283,35 278,30 250,30 250,40 " style="fill:#33d815; stroke-width:1; stroke:black; " description="&lt;b&gt;ctg1_670&lt;/b&gt;&lt;br&gt;ctg1 670&lt;br&gt;Location: 728608 - 730387" locus_tag="ctg1_670" class="clusterblast-orf" id="dummy-2_q1_0_all"  />
<polygon points="287,35 292,30 304,30 304,40 292,40 287,35 " style="fill:white; stroke-width:1; stroke:black; " description="&lt;b&gt;ctg1_671&lt;/b&gt;&lt;br&gt;ctg1 671&lt;br&gt;Location: 730613 - 731543" locus_tag="ctg1_671" class="clusterblast-orf" id="dummy-2_q2_0_all"  />
<polygon points="307,40 326,40 331,35 326,30 307,30 307,40 " style="fill:white; stroke-width:1; stroke:black; " description="&lt;b&gt;ctg1_672&lt;/b&gt;&lt;br&gt;ctg1 672&lt;br&gt;Location: 731712 - 732990" locus_tag="ctg1_672" class="clusterblast-orf" id="dummy-2_q3_0_all"  />
<polygon points="339,40 340,40 345,35 340,30 339,30 339,40 " style="fill:white; stroke-width:1; stroke:black; " description="&lt;b&gt;ctg1_673&lt;/b&gt;&lt;br&gt;ctg1 673&lt;br&gt;Location: 733396 - 733717" locus_tag="ctg1_673" class="clusterblast-orf" id="dummy-2_q4_0_all"  />
<polygon points="346,40 349,35 346,30 346,40 " style="fill:#15abd8; stroke-width:1; stroke:black; " description="&lt;b&gt;ctg1_674&lt;/b&gt;&lt;br&gt;ctg1 674&lt;br&gt;Location: 733800 - 733959" locus_tag="ctg1_674" class="clusterblast-orf" id="dummy-2_q5_0_all"  />
<polygon points="352,35 357,30 386,30 386,40 357,40 352,35 " style="fill:#8d15d8; stroke-width:1; stroke:black; " description="&lt;b&gt;ctg1_675&lt;/b&gt;&lt;br&gt;ctg1 675&lt;br&gt;Location: 734112 - 735939" locus_tag="ctg1_675" class="clusterblast-orf" id="dummy-2_q6_0_all"  />
<polygon points="386,35 391,30 407,30 407,40 391,40 386,35 " style="fill:#d86f15; stroke-width:1; stroke:black; " description="&lt;b&gt;ctg1_676&lt;/b&gt;&lt;br&gt;ctg1 676&lt;br&gt;Location: 735904 - 737080" locus_tag="ctg1_676" class="clusterblast-orf" id="dummy-2_q7_0_all"  />
<polygon points="407,35 412,30 412,30 412,40 412,40 407,35 " style="fill:#15d851; stroke-width:1; stroke:black; " description="&lt;b&gt;ctg1_677&lt;/b&gt;&lt;br&gt;ctg1 677&lt;br&gt;Location: 737051 - 737327" locus_tag="ctg1_677" class="clusterblast-orf" id="dummy-2_q8_0_all"  />
<polygon points="412,35 417,30 426,30 426,40 417,40 412,35 " style="fill:#1551d8; stroke-width:1; stroke:black; " description="&lt;b&gt;ctg1_678&lt;/b&gt;&lt;br&gt;ctg1 678&lt;br&gt;Location: 737323 - 738076" locus_tag="ctg1_678" class="clusterblast-orf" id="dummy-2_q9_0_all"  />
<polygon points="429,35 434,30 446,30 446,40 434,40 429,35 " style="fill:#d815c9; stroke-width:1; stroke:black; " description="&lt;b&gt;ctg1_679&lt;/b&gt;&lt;br&gt;ctg1 679&lt;br&gt;Location: 738222 - 739134" locus_tag="ctg1_679" class="clusterblast-orf" id="dummy-2_q10_0_all"  />
<polygon points="447,35 450,30 450,40 447,35 " style="fill:#d8c915; stroke-width:1; stroke:black; " description="&lt;b&gt;ctg1_680&lt;/b&gt;&lt;br&gt;ctg1 680&lt;br&gt;Location: 739220 - 739340" locus_tag="ctg1_680" class="clusterblast-orf" id="dummy-2_q11_0_all"  />
<polygon points="452,35 457,30 497,30 497,40 457,40 452,35 " style="fill:#15d8ab; stroke-width:1; stroke:black; " description="&lt;b&gt;ctg1_681&lt;/b&gt;&lt;br&gt;ctg1 681&lt;br&gt;Location: 739453 - 741889" locus_tag="ctg1_681" class="clusterblast-orf" id="dummy-2_q12_0_all"  />
<polygon points="498,35 503,30 513,30 513,40 503,40 498,35 " style="fill:#3315d8; stroke-width:1; stroke:black; " description="&lt;b&gt;ctg1_682&lt;/b&gt;&lt;br&gt;ctg1 682&lt;br&gt;Location: 741937 - 742732" locus_tag="ctg1_682" class="clusterblast-orf" id="dummy-2_q13_0_all"  />
<polygon points="513,35 518,30 544,30 544,40 518,40 513,35 " style="fill:#d8156f; stroke-width:1; stroke:black; " description="&lt;b&gt;ctg1_683&lt;/b&gt;&lt;br&gt;ctg1 683&lt;br&gt;Location: 742744 - 744427" locus_tag="ctg1_683" class="clusterblast-orf" id="dummy-2_q14_0_all"  />
<polygon points="548,35 553,30 557,30 557,40 553,40 548,35 " style="fill:#8dd815; stroke-width:1; stroke:black; " description="&lt;b&gt;ctg1_684&lt;/b&gt;&lt;br&gt;ctg1 684&lt;br&gt;Location: 744649 - 745111" locus_tag="ctg1_684" class="clusterblast-orf" id="dummy-2_q15_0_all"  />
</g>
<g label="NZ_AP020337" description="NZ_AP020337 (5391819-5433703): Pseudomonas sp. KUIN-1 (30% of genes show similarity), NRPS-like" class="clusterblast-cluster"  >
<text x="5" y="70" class="clusterblast-acc"  >
<a xlink:href="https://antismash-db.secondarymetabolites.org/area.html?record=NZ_AP020337&amp;start=5391819&amp;end=5433703" target="_blank">NZ_AP020337 (5391819-5433703)</a>: Pseudomonas sp. KUIN-1 (30% of genes show similarity), NRPS-like</text>
<line x1="10" y1="85" x2="778.0" y2="85" style="stroke-width:1; stroke:grey; "  />
</g>
<g id="a2_000"  >
<polygon points="0,90 19,90 24,85 19,80 0,80 0,90 " style="fill:#d81515; stroke-width:1; stroke:black; " description="&lt;b&gt;KUIN1_RS24615&lt;/b&gt;&lt;br&gt;GGDEF domain-containing protein&lt;br&gt;Location: 5433703 - 5432405&lt;br&gt;&lt;br&gt;&lt;b&gt;BlastP hit with ctg1_669&lt;/b&gt;&lt;br&gt;Percentage identity: 84&lt;br&gt;Percentage coverage: 100&lt;br&gt;BLAST bit score: 707&lt;br&gt;E-value: 1.9e-256" locus_tag="KUIN1_RS24615" class="clusterblast-orf" id="dummy-2_h2_3_0"  />
</g>
<g id="a2_001"  >
<polygon points="27,90 55,90 60,85 55,80 27,80 27,90 " style="fill:#33d815; stroke-width:1; stroke:black; " description="&lt;b&gt;KUIN1_RS24610&lt;/b&gt;&lt;br&gt;acyl-CoA dehydrogenase C-terminal domain-containing protein&lt;br&gt;Location: 5432235 - 5430457&lt;br&gt;&lt;br&gt;&lt;b&gt;BlastP hit with ctg1_670&lt;/b&gt;&lt;br&gt;Percentage identity: 83&lt;br&gt;Percentage coverage: 100&lt;br&gt;BLAST bit score: 1001&lt;br&gt;E-value: 0.0" locus_tag="KUIN1_RS24610" class="clusterblast-orf" id="dummy-2_h2_3_1"  />
</g>
<g id="a2_002"  >
<polygon points="67,90 70,85 67,80 67,90 " style="fill:#15abd8; stroke-width:1; stroke:black; " description="&lt;b&gt;KUIN1_RS24605&lt;/b&gt;&lt;br&gt;YqaE/Pmp3 family membrane protein&lt;br&gt;Location: 5430053 - 5429892&lt;br&gt;&lt;br&gt;&lt;b&gt;BlastP hit with ctg1_674&lt;/b&gt;&lt;br&gt;Percentage identity: 83&lt;br&gt;Percentage coverage: 100&lt;br&gt;BLAST bit score: 88&lt;br&gt;E-value: 1.55e-23" locus_tag="KUIN1_RS24605" class="clusterblast-orf" id="dummy-2_h2_3_2"  />
</g>
<g id="a2_003"  >
<polygon points="72,85 77,80 106,80 106,90 77,90 72,85 " style="fill:#8d15d8; stroke-width:1; stroke:black; " description="&lt;b&gt;KUIN1_RS24600&lt;/b&gt;&lt;br&gt;S9 family peptidase&lt;br&gt;Location: 5429836 - 5428010&lt;br&gt;&lt;br&gt;&lt;b&gt;BlastP hit with ctg1_675&lt;/b&gt;&lt;br&gt;Percentage identity: 71&lt;br&gt;Percentage coverage: 100&lt;br&gt;BLAST bit score: 901&lt;br&gt;E-value: 0.0" locus_tag="KUIN1_RS24600" class="clusterblast-orf" id="dummy-2_h2_3_3"  />
</g>
<g id="a2_004"  >
<polygon points="105,85 110,80 127,80 127,90 110,90 105,85 " style="fill:#d86f15; stroke-width:1; stroke:black; " description="&lt;b&gt;KUIN1_RS24595&lt;/b&gt;&lt;br&gt;pyrroloquinoline quinone biosynthesis protein PqqE&lt;br&gt;Location: 5428047 - 5426878&lt;br&gt;&lt;br&gt;&lt;b&gt;BlastP hit with ctg1_676&lt;/b&gt;&lt;br&gt;Percentage identity: 87&lt;br&gt;Percentage coverage: 98&lt;br&gt;BLAST bit score: 715&lt;br&gt;E-value: 5.3e-261" locus_tag="KUIN1_RS24595" class="clusterblast-orf" id="dummy-2_h2_3_4"  />
</g>
<g id="a2_005"  >
<polygon points="126,85 131,80 132,80 132,90 131,90 126,85 " style="fill:#15d851; stroke-width:1; stroke:black; " description="&lt;b&gt;KUIN1_RS24590&lt;/b&gt;&lt;br&gt;pyrroloquinoline quinone biosynthesis peptide chaperone PqqD&lt;br&gt;Location: 5426885 - 5426601&lt;br&gt;&lt;br&gt;&lt;b&gt;BlastP hit with ctg1_677&lt;/b&gt;&lt;br&gt;Percentage identity: 72&lt;br&gt;Percentage coverage: 95&lt;br&gt;BLAST bit score: 134&lt;br&gt;E-value: 8.37e-41" locus_tag="KUIN1_RS24590" class="clusterblast-orf" id="dummy-2_h2_3_5"  />
</g>
<g id="a2_006"  >
<polygon points="132,85 137,80 146,80 146,90 137,90 132,85 " style="fill:#1551d8; stroke-width:1; stroke:black; " description="&lt;b&gt;KUIN1_RS24585&lt;/b&gt;&lt;br&gt;pyrroloquinoline-quinone synthase PqqC&lt;br&gt;Location: 5426604 - 5425849&lt;br&gt;&lt;br&gt;&lt;b&gt;BlastP hit with ctg1_678&lt;/b&gt;&lt;br&gt;Percentage identity: 96&lt;br&gt;Percentage coverage: 99&lt;br&gt;BLAST bit score: 496&lt;br&gt;E-value: 5.69e-179" locus_tag="KUIN1_RS24585" class="clusterblast-orf" id="dummy-2_h2_3_6"  />
</g>
<g id="a2_007"  >
<polygon points="146,85 151,80 163,80 163,90 151,90 146,85 " style="fill:#d815c9; stroke-width:1; stroke:black; " description="&lt;b&gt;KUIN1_RS24580&lt;/b&gt;&lt;br&gt;pyrroloquinoline quinone biosynthesis protein PqqB&lt;br&gt;Location: 5425840 - 5424929&lt;br&gt;&lt;br&gt;&lt;b&gt;BlastP hit with ctg1_679&lt;/b&gt;&lt;br&gt;Percentage identity: 89&lt;br&gt;Percentage coverage: 100&lt;br&gt;BLAST bit score: 578&lt;br&gt;E-value: 7.88e-210" locus_tag="KUIN1_RS24580" class="clusterblast-orf" id="dummy-2_h2_3_7"  />
</g>
<g id="a2_008"  >
<polygon points="165,85 166,80 166,90 165,85 " style="fill:#d8c915; stroke-width:1; stroke:black; " description="&lt;b&gt;KUIN1_RS24575&lt;/b&gt;&lt;br&gt;pyrroloquinoline quinone precursor peptide PqqA&lt;br&gt;Location: 5424840 - 5424766&lt;br&gt;&lt;br&gt;&lt;b&gt;BlastP hit with ctg1_680&lt;/b&gt;&lt;br&gt;Percentage identity: 92&lt;br&gt;Percentage coverage: 62&lt;br&gt;BLAST bit score: 52&lt;br&gt;E-value: 1.22e-09" locus_tag="KUIN1_RS24575" class="clusterblast-orf" id="dummy-2_h2_3_8"  />
</g>
<g id="a2_009"  >
<polygon points="168,85 173,80 211,80 211,90 173,90 168,85 " style="fill:#15d8ab; stroke-width:1; stroke:black; " description="&lt;b&gt;KUIN1_RS24570&lt;/b&gt;&lt;br&gt;pyrroloquinoline quinone biosynthesis protein PqqF&lt;br&gt;Location: 5424630 - 5422342&lt;br&gt;&lt;br&gt;&lt;b&gt;BlastP hit with ctg1_681&lt;/b&gt;&lt;br&gt;Percentage identity: 48&lt;br&gt;Percentage coverage: 100&lt;br&gt;BLAST bit score: 656&lt;br&gt;E-value: 2.82e-225" locus_tag="KUIN1_RS24570" class="clusterblast-orf" id="dummy-2_h2_3_9"  />
</g>
<g id="a2_0010"  >
<polygon points="224,85 229,80 238,80 238,90 229,90 224,85 " style="fill:#3315d8; stroke-width:1; stroke:black; " description="&lt;b&gt;KUIN1_RS24565&lt;/b&gt;&lt;br&gt;carbon-nitrogen hydrolase family protein&lt;br&gt;Location: 5421664 - 5420870&lt;br&gt;&lt;br&gt;&lt;b&gt;BlastP hit with ctg1_682&lt;/b&gt;&lt;br&gt;Percentage identity: 68&lt;br&gt;Percentage coverage: 100&lt;br&gt;BLAST bit score: 371&lt;br&gt;E-value: 5.14e-129" locus_tag="KUIN1_RS24565" class="clusterblast-orf" id="dummy-2_h2_3_10"  />
</g>
<g id="a2_0011"  >
<polygon points="239,85 244,80 270,80 270,90 244,90 239,85 " style="fill:#d8156f; stroke-width:1; stroke:black; " description="&lt;b&gt;KUIN1_RS24560&lt;/b&gt;&lt;br&gt;NAD(P)/FAD-dependent oxidoreductase&lt;br&gt;Location: 5420854 - 5419175&lt;br&gt;&lt;br&gt;&lt;b&gt;BlastP hit with ctg1_683&lt;/b&gt;&lt;br&gt;Percentage identity: 91&lt;br&gt;Percentage coverage: 99&lt;br&gt;BLAST bit score: 1070&lt;br&gt;E-value: 0.0" locus_tag="KUIN1_RS24560" class="clusterblast-orf" id="dummy-2_h2_3_11"  />
</g>
<g id="a2_0012"  >
<polygon points="273,85 278,80 281,80 281,90 278,90 273,85 " style="fill:#8dd815; stroke-width:1; stroke:black; " description="&lt;b&gt;KUIN1_RS24555&lt;/b&gt;&lt;br&gt;Lrp/AsnC family transcriptional regulator&lt;br&gt;Location: 5419022 - 5418561&lt;br&gt;&lt;br&gt;&lt;b&gt;BlastP hit with ctg1_684&lt;/b&gt;&lt;br&gt;Percentage identity: 94&lt;br&gt;Percentage coverage: 100&lt;br&gt;BLAST bit score: 276&lt;br&gt;E-value: 2.72e-95" locus_tag="KUIN1_RS24555" class="clusterblast-orf" id="dummy-2_h2_3_12"  />
</g>
<g id="a2_0013"  >
<polygon points="282,85 287,80 302,80 302,90 287,90 282,85 " style="fill:white; stroke-width:1; stroke:black; " description="&lt;b&gt;KUIN1_RS24550&lt;/b&gt;&lt;br&gt;FUSC family protein&lt;br&gt;Location: 5418550 - 5417447" locus_tag="KUIN1_RS24550" class="clusterblast-orf" id="dummy-2_h2_3_13"  />
</g>
<g id="a2_0014"  >
<polygon points="308,90 309,90 314,85 309,80 308,80 308,90 " style="fill:white; stroke-width:1; stroke:black; " description="&lt;b&gt;KUIN1_RS24545&lt;/b&gt;&lt;br&gt;helix-turn-helix transcriptional regulator&lt;br&gt;Location: 5417138 - 5416815" locus_tag="KUIN1_RS24545" class="clusterblast-orf" id="dummy-2_h2_3_14"  />
</g>
<g id="a2_0015"  >
<polygon points="314,90 332,90 337,85 332,80 314,80 314,90 " style="fill:white; stroke-width:1; stroke:black; " description="&lt;b&gt;KUIN1_RS24540&lt;/b&gt;&lt;br&gt;type II toxin-antitoxin system HipA family toxin&lt;br&gt;Location: 5416815 - 5415589" locus_tag="KUIN1_RS24540" class="clusterblast-orf" id="dummy-2_h2_3_15"  />
</g>
<g id="a2_0016"  >
<polygon points="341,90 345,90 350,85 345,80 341,80 341,90 " style="fill:white; stroke-width:1; stroke:black; " description="&lt;b&gt;KUIN1_RS24535&lt;/b&gt;&lt;br&gt;GNAT family N-acetyltransferase&lt;br&gt;Location: 5415373 - 5414870" locus_tag="KUIN1_RS24535" class="clusterblast-orf" id="dummy-2_h2_3_16"  />
</g>
<g id="a2_0017"  >
<polygon points="355,90 425,90 430,85 425,80 355,80 355,90 " style="fill:white; stroke-width:1; stroke:black; " description="&lt;b&gt;KUIN1_RS24530&lt;/b&gt;&lt;br&gt;non-ribosomal peptide synthetase&lt;br&gt;Location: 5414614 - 5410574" locus_tag="KUIN1_RS24530" class="clusterblast-orf" id="dummy-2_h2_3_17"  />
</g>
<g id="a2_0018"  >
<polygon points="430,90 437,90 442,85 437,80 430,80 430,90 " style="fill:white; stroke-width:1; stroke:black; " description="&lt;b&gt;KUIN1_RS24525&lt;/b&gt;&lt;br&gt;4'-phosphopantetheinyl transferase superfamily protein&lt;br&gt;Location: 5410577 - 5409945" locus_tag="KUIN1_RS24525" class="clusterblast-orf" id="dummy-2_h2_3_18"  />
</g>
<g id="a2_0019"  >
<polygon points="445,85 450,80 460,80 460,90 450,90 445,85 " style="fill:white; stroke-width:1; stroke:black; " description="&lt;b&gt;KUIN1_RS24520&lt;/b&gt;&lt;br&gt;formate/nitrite transporter family protein&lt;br&gt;Location: 5409798 - 5408983" locus_tag="KUIN1_RS24520" class="clusterblast-orf" id="dummy-2_h2_3_19"  />
</g>
<g id="a2_0020"  >
<polygon points="473,90 497,90 502,85 497,80 473,80 473,90 " style="fill:white; stroke-width:1; stroke:black; " description="&lt;b&gt;KUIN1_RS24510&lt;/b&gt;&lt;br&gt;Effector protein hopAB1&lt;br&gt;Location: 5408257 - 5406707" locus_tag="KUIN1_RS24510" class="clusterblast-orf" id="dummy-2_h2_3_20"  />
</g>
<g id="a2_0021"  >
<polygon points="503,85 505,80 505,90 503,85 " style="fill:white; stroke-width:1; stroke:black; " description="&lt;b&gt;KUIN1_RS24505&lt;/b&gt;&lt;br&gt;IS5/IS1182 family transposase&lt;br&gt;Location: 5406644 - 5406552" locus_tag="KUIN1_RS24505" class="clusterblast-orf" id="dummy-2_h2_3_21"  />
</g>
<g id="a2_0022"  >
<polygon points="506,90 509,85 506,80 506,90 " style="fill:white; stroke-width:1; stroke:black; " description="&lt;b&gt;KUIN1_RS24500&lt;/b&gt;&lt;br&gt;AAA family ATPase&lt;br&gt;Location: 5406522 - 5406349" locus_tag="KUIN1_RS24500" class="clusterblast-orf" id="dummy-2_h2_3_22"  />
</g>
<g id="a2_0023"  >
<polygon points="510,85 515,80 520,80 520,90 515,90 510,85 " style="fill:white; stroke-width:1; stroke:black; " description="&lt;b&gt;KUIN1_RS24490&lt;/b&gt;&lt;br&gt;transposase&lt;br&gt;Location: 5406304 - 5405758" locus_tag="KUIN1_RS24490" class="clusterblast-orf" id="dummy-2_h2_3_23"  />
</g>
<g id="a2_0024"  >
<polygon points="520,90 522,90 527,85 522,80 520,80 520,90 " style="fill:white; stroke-width:1; stroke:black; " description="&lt;b&gt;KUIN1_RS24485&lt;/b&gt;&lt;br&gt;ATP-binding protein&lt;br&gt;Location: 5405756 - 5405391" locus_tag="KUIN1_RS24485" class="clusterblast-orf" id="dummy-2_h2_3_24"  />
</g>
<g id="a2_0025"  >
<polygon points="527,90 531,90 536,85 531,80 527,80 527,90 " style="fill:white; stroke-width:1; stroke:black; " description="&lt;b&gt;KUIN1_RS27755&lt;/b&gt;&lt;br&gt;hypothetical protein&lt;br&gt;Location: 5405394 - 5404894" locus_tag="KUIN1_RS27755" class="clusterblast-orf" id="dummy-2_h2_3_25"  />
</g>
<g id="a2_0026"  >
<polygon points="538,90 539,90 544,85 539,80 538,80 538,90 " style="fill:white; stroke-width:1; stroke:black; " description="&lt;b&gt;KUIN1_RS24475&lt;/b&gt;&lt;br&gt;hypothetical protein&lt;br&gt;Location: 5404812 - 5404456" locus_tag="KUIN1_RS24475" class="clusterblast-orf" id="dummy-2_h2_3_26"  />
</g>
<g id="a2_0027"  >
<polygon points="546,90 546,90 551,85 546,80 546,80 546,90 " style="fill:white; stroke-width:1; stroke:black; " description="&lt;b&gt;KUIN1_RS24470&lt;/b&gt;&lt;br&gt;hypothetical protein&lt;br&gt;Location: 5404374 - 5404078" locus_tag="KUIN1_RS24470" class="clusterblast-orf" id="dummy-2_h2_3_27"  />
</g>
<g id="a2_0028"  >
<polygon points="554,90 558,85 554,80 554,90 " style="fill:white; stroke-width:1; stroke:black; " description="&lt;b&gt;KUIN1_RS24465&lt;/b&gt;&lt;br&gt;hypothetical protein&lt;br&gt;Location: 5403941 - 5403690" locus_tag="KUIN1_RS24465" class="clusterblast-orf" id="dummy-2_h2_3_28"  />
</g>
<g id="a2_0029"  >
<polygon points="559,90 559,90 564,85 559,80 559,80 559,90 " style="fill:white; stroke-width:1; stroke:black; " description="&lt;b&gt;KUIN1_RS24460&lt;/b&gt;&lt;br&gt;hypothetical protein&lt;br&gt;Location: 5403638 - 5403390" locus_tag="KUIN1_RS24460" class="clusterblast-orf" id="dummy-2_h2_3_29"  />
</g>
<g id="a2_0030"  >
<polygon points="566,90 569,85 566,80 566,90 " style="fill:white; stroke-width:1; stroke:black; " description="&lt;b&gt;KUIN1_RS27530&lt;/b&gt;&lt;br&gt;hypothetical protein&lt;br&gt;Location: 5403286 - 5403146" locus_tag="KUIN1_RS27530" class="clusterblast-orf" id="dummy-2_h2_3_30"  />
</g>
<g id="a2_0031"  >
<polygon points="573,85 578,80 578,80 578,90 578,90 573,85 " style="fill:white; stroke-width:1; stroke:black; " description="&lt;b&gt;KUIN1_RS24450&lt;/b&gt;&lt;br&gt;bacteriocin immunity protein&lt;br&gt;Location: 5402925 - 5402650" locus_tag="KUIN1_RS24450" class="clusterblast-orf" id="dummy-2_h2_3_31"  />
</g>
<g id="a2_0032"  >
<polygon points="578,85 583,80 614,80 614,90 583,90 578,85 " style="fill:white; stroke-width:1; stroke:black; " description="&lt;b&gt;KUIN1_RS24445&lt;/b&gt;&lt;br&gt;S-type pyocin domain-containing protein&lt;br&gt;Location: 5402648 - 5400718" locus_tag="KUIN1_RS24445" class="clusterblast-orf" id="dummy-2_h2_3_32"  />
</g>
<g id="a2_0033"  >
<polygon points="627,90 635,90 640,85 635,80 627,80 627,90 " style="fill:white; stroke-width:1; stroke:black; " description="&lt;b&gt;KUIN1_RS24435&lt;/b&gt;&lt;br&gt;IS66 family transposase&lt;br&gt;Location: 5400034 - 5399291" locus_tag="KUIN1_RS24435" class="clusterblast-orf" id="dummy-2_h2_3_33"  />
</g>
<g id="a2_0034"  >
<polygon points="641,90 645,90 650,85 645,80 641,80 641,90 " style="fill:white; stroke-width:1; stroke:black; " description="&lt;b&gt;KUIN1_RS24430&lt;/b&gt;&lt;br&gt;GNAT family N-acetyltransferase&lt;br&gt;Location: 5399235 - 5398789" locus_tag="KUIN1_RS24430" class="clusterblast-orf" id="dummy-2_h2_3_34"  />
</g>
<g id="a2_0035"  >
<polygon points="651,90 651,90 656,85 651,80 651,80 651,90 " style="fill:white; stroke-width:1; stroke:black; " description="&lt;b&gt;KUIN1_RS24425&lt;/b&gt;&lt;br&gt;hypothetical protein&lt;br&gt;Location: 5398709 - 5398470" locus_tag="KUIN1_RS24425" class="clusterblast-orf" id="dummy-2_h2_3_35"  />
</g>
<g id="a2_0036"  >
<polygon points="657,90 658,90 663,85 658,80 657,80 657,90 " style="fill:white; stroke-width:1; stroke:black; " description="&lt;b&gt;KUIN1_RS24420&lt;/b&gt;&lt;br&gt;hypothetical protein&lt;br&gt;Location: 5398397 - 5398083" locus_tag="KUIN1_RS24420" class="clusterblast-orf" id="dummy-2_h2_3_36"  />
</g>
<g id="a2_0037"  >
<polygon points="663,85 668,80 681,80 681,90 668,90 663,85 " style="fill:white; stroke-width:1; stroke:black; " description="&lt;b&gt;KUIN1_RS24415&lt;/b&gt;&lt;br&gt;tyrosine-type recombinase/integrase&lt;br&gt;Location: 5398057 - 5397095" locus_tag="KUIN1_RS24415" class="clusterblast-orf" id="dummy-2_h2_3_37"  />
</g>
<g id="a2_0038"  >
<polygon points="688,90 692,85 688,80 688,90 " style="fill:white; stroke-width:1; stroke:black; " description="&lt;b&gt;KUIN1_RS24410&lt;/b&gt;&lt;br&gt;type II toxin-antitoxin system prevent-host-death family antitoxin&lt;br&gt;Location: 5396757 - 5396509" locus_tag="KUIN1_RS24410" class="clusterblast-orf" id="dummy-2_h2_3_38"  />
</g>
<g id="a2_0039"  >
<polygon points="692,90 694,90 699,85 694,80 692,80 692,90 " style="fill:white; stroke-width:1; stroke:black; " description="&lt;b&gt;KUIN1_RS24405&lt;/b&gt;&lt;br&gt;type II toxin-antitoxin system RelE/ParE family toxin&lt;br&gt;Location: 5396496 - 5396146" locus_tag="KUIN1_RS24405" class="clusterblast-orf" id="dummy-2_h2_3_39"  />
</g>
<g id="a2_0040"  >
<polygon points="706,85 710,80 710,90 706,85 " style="fill:white; stroke-width:1; stroke:black; " description="&lt;b&gt;KUIN1_RS24400&lt;/b&gt;&lt;br&gt;hypothetical protein&lt;br&gt;Location: 5395779 - 5395564" locus_tag="KUIN1_RS24400" class="clusterblast-orf" id="dummy-2_h2_3_40"  />
</g>
<g id="a2_0041"  >
<polygon points="711,85 716,80 730,80 730,90 716,90 711,85 " style="fill:white; stroke-width:1; stroke:black; " description="&lt;b&gt;KUIN1_RS24395&lt;/b&gt;&lt;br&gt;P-type conjugative transfer protein TrbL&lt;br&gt;Location: 5395496 - 5394489" locus_tag="KUIN1_RS24395" class="clusterblast-orf" id="dummy-2_h2_3_41"  />
</g>
<g id="a2_0042"  >
<polygon points="733,85 738,80 780,80 780,90 738,90 733,85 " style="fill:white; stroke-width:1; stroke:black; " description="&lt;b&gt;KUIN1_RS24385&lt;/b&gt;&lt;br&gt;bifunctional diguanylate cyclase/phosphodiesterase&lt;br&gt;Location: 5394306 - 5391820" locus_tag="KUIN1_RS24385" class="clusterblast-orf" id="dummy-2_h2_3_42"  />
</g>
</svg>
