<svg xmlns="http://www.w3.org/2000/svg" xmlns:xlink="http://www.w3.org/1999/xlink" version="1.1" x="0" y="0" height="230" width="800" viewBox="0 0 800 230" preserveAspectRatio="none"  >
<g label="Query sequence" class="clusterblast-cluster"  >
<text x="5" y="20" class="clusterblast-acc"  >
Query sequence</text>
<line x1="10" y1="35" x2="778.0" y2="35" style="stroke-width:1; stroke:grey; "  />
<polygon points="213,35 218,30 232,30 232,40 218,40 213,35 " style="fill:white; stroke-width:1; stroke:black; " description="&lt;b&gt;ctg19_64&lt;/b&gt;&lt;br&gt;ctg19 64&lt;br&gt;Location: 70965 - 71976" locus_tag="ctg19_64" class="clusterblast-orf" id="dummy-1_q0_0_all"  />
<polygon points="232,35 237,30 255,30 255,40 237,40 232,35 " style="fill:white; stroke-width:1; stroke:black; " description="&lt;b&gt;ctg19_65&lt;/b&gt;&lt;br&gt;ctg19 65&lt;br&gt;Location: 71962 - 73132" locus_tag="ctg19_65" class="clusterblast-orf" id="dummy-1_q1_0_all"  />
<polygon points="255,35 260,30 280,30 280,40 260,40 255,35 " style="fill:white; stroke-width:1; stroke:black; " description="&lt;b&gt;ctg19_66&lt;/b&gt;&lt;br&gt;ctg19 66&lt;br&gt;Location: 73128 - 74424" locus_tag="ctg19_66" class="clusterblast-orf" id="dummy-1_q2_0_all"  />
<polygon points="280,35 285,30 295,30 295,40 285,40 280,35 " style="fill:white; stroke-width:1; stroke:black; " description="&lt;b&gt;ctg19_67&lt;/b&gt;&lt;br&gt;ctg19 67&lt;br&gt;Location: 74417 - 75191" locus_tag="ctg19_67" class="clusterblast-orf" id="dummy-1_q3_0_all"  />
<polygon points="295,35 300,30 303,30 303,40 300,40 295,35 " style="fill:white; stroke-width:1; stroke:black; " description="&lt;b&gt;ctg19_68&lt;/b&gt;&lt;br&gt;ctg19 68&lt;br&gt;Location: 75218 - 75602" locus_tag="ctg19_68" class="clusterblast-orf" id="dummy-1_q4_0_all"  />
<polygon points="315,40 330,40 335,35 330,30 315,30 315,40 " style="fill:#d81515; stroke-width:1; stroke:black; " description="&lt;b&gt;ctg19_69&lt;/b&gt;&lt;br&gt;ctg19 69&lt;br&gt;Location: 76248 - 77259" locus_tag="ctg19_69" class="clusterblast-orf" id="dummy-1_q5_0_all"  />
<polygon points="336,40 347,40 352,35 347,30 336,30 336,40 " style="fill:#15d815; stroke-width:1; stroke:black; " description="&lt;b&gt;ctg19_70&lt;/b&gt;&lt;br&gt;ctg19 70&lt;br&gt;Location: 77321 - 78152" locus_tag="ctg19_70" class="clusterblast-orf" id="dummy-1_q6_0_all"  />
<polygon points="352,40 354,35 352,30 352,40 " style="fill:white; stroke-width:1; stroke:black; " description="&lt;b&gt;ctg19_71&lt;/b&gt;&lt;br&gt;ctg19 71&lt;br&gt;Location: 78159 - 78255" locus_tag="ctg19_71" class="clusterblast-orf" id="dummy-1_q7_0_all"  />
<polygon points="354,40 366,40 371,35 366,30 354,30 354,40 " style="fill:#1597d8; stroke-width:1; stroke:black; " description="&lt;b&gt;ctg19_72&lt;/b&gt;&lt;br&gt;ctg19 72&lt;br&gt;Location: 78275 - 79154" locus_tag="ctg19_72" class="clusterblast-orf" id="dummy-1_q8_0_all"  />
<polygon points="372,40 388,40 393,35 388,30 372,30 372,40 " style="fill:#9715d8; stroke-width:1; stroke:black; " description="&lt;b&gt;ctg19_73&lt;/b&gt;&lt;br&gt;ctg19 73&lt;br&gt;Location: 79183 - 80284" locus_tag="ctg19_73" class="clusterblast-orf" id="dummy-1_q9_0_all"  />
<polygon points="394,40 413,40 418,35 413,30 394,30 394,40 " style="fill:#d89715; stroke-width:1; stroke:black; " description="&lt;b&gt;ctg19_74&lt;/b&gt;&lt;br&gt;ctg19 74&lt;br&gt;Location: 80322 - 81555" locus_tag="ctg19_74" class="clusterblast-orf" id="dummy-1_q10_0_all"  />
<polygon points="418,40 430,40 435,35 430,30 418,30 418,40 " style="fill:#15d897; stroke-width:1; stroke:black; " description="&lt;b&gt;ctg19_75&lt;/b&gt;&lt;br&gt;ctg19 75&lt;br&gt;Location: 81585 - 82431" locus_tag="ctg19_75" class="clusterblast-orf" id="dummy-1_q11_0_all"  />
<polygon points="436,40 452,40 457,35 452,30 436,30 436,40 " style="fill:#1515d8; stroke-width:1; stroke:black; " description="&lt;b&gt;ctg19_76&lt;/b&gt;&lt;br&gt;ctg19 76&lt;br&gt;Location: 82469 - 83591" locus_tag="ctg19_76" class="clusterblast-orf" id="dummy-1_q12_0_all"  />
<polygon points="457,40 473,40 478,35 473,30 457,30 457,40 " style="fill:#d81597; stroke-width:1; stroke:black; " description="&lt;b&gt;ctg19_77&lt;/b&gt;&lt;br&gt;ctg19 77&lt;br&gt;Location: 83583 - 84675" locus_tag="ctg19_77" class="clusterblast-orf" id="dummy-1_q13_0_all"  />
<polygon points="478,40 490,40 495,35 490,30 478,30 478,40 " style="fill:#97d815; stroke-width:1; stroke:black; " description="&lt;b&gt;ctg19_78&lt;/b&gt;&lt;br&gt;ctg19 78&lt;br&gt;Location: 84671 - 85547" locus_tag="ctg19_78" class="clusterblast-orf" id="dummy-1_q14_0_all"  />
<polygon points="496,35 501,30 503,30 503,40 501,40 496,35 " style="fill:white; stroke-width:1; stroke:black; " description="&lt;b&gt;ctg19_79&lt;/b&gt;&lt;br&gt;ctg19 79&lt;br&gt;Location: 85608 - 85950" locus_tag="ctg19_79" class="clusterblast-orf" id="dummy-1_q15_0_all"  />
<polygon points="506,40 524,40 529,35 524,30 506,30 506,40 " style="fill:white; stroke-width:1; stroke:black; " description="&lt;b&gt;ctg19_80&lt;/b&gt;&lt;br&gt;ctg19 80&lt;br&gt;Location: 86095 - 87316" locus_tag="ctg19_80" class="clusterblast-orf" id="dummy-1_q16_0_all"  />
<polygon points="529,40 541,40 546,35 541,30 529,30 529,40 " style="fill:white; stroke-width:1; stroke:black; " description="&lt;b&gt;ctg19_81&lt;/b&gt;&lt;br&gt;ctg19 81&lt;br&gt;Location: 87312 - 88158" locus_tag="ctg19_81" class="clusterblast-orf" id="dummy-1_q17_0_all"  />
<polygon points="547,35 552,30 567,30 567,40 552,40 547,35 " style="fill:white; stroke-width:1; stroke:black; " description="&lt;b&gt;ctg19_82&lt;/b&gt;&lt;br&gt;ctg19 82&lt;br&gt;Location: 88212 - 89232" locus_tag="ctg19_82" class="clusterblast-orf" id="dummy-1_q18_0_all"  />
</g>
<g label="NZ_JAAQRN010000003" description="NZ_JAAQRN010000003 (442269-483139): Serratia plymuthica strain IV-11-34 scaff... (22% of genes show similarity), phosphonate" class="clusterblast-cluster"  >
<text x="5" y="70" class="clusterblast-acc"  >
<a xlink:href="https://antismash-db.secondarymetabolites.org/area.html?record=NZ_JAAQRN010000003&amp;start=442269&amp;end=483139" target="_blank">NZ_JAAQRN010000003 (442269-483139)</a>: Serratia plymuthica strain IV-11-34 scaff... (22% of genes show similarity), phosphonate</text>
<line x1="10" y1="85" x2="778.0" y2="85" style="stroke-width:1; stroke:grey; "  />
</g>
<g id="a1_000"  >
<polygon points="0,90 12,90 17,85 12,80 0,80 0,90 " style="fill:white; stroke-width:1; stroke:black; " description="&lt;b&gt;HBF29_RS08740&lt;/b&gt;&lt;br&gt;LysR family transcriptional regulator&lt;br&gt;Location: 482954 - 482046" locus_tag="HBF29_RS08740" class="clusterblast-orf" id="dummy-1_h1_5_0"  />
</g>
<g id="a1_001"  >
<polygon points="20,85 24,80 24,90 20,85 " style="fill:white; stroke-width:1; stroke:black; " description="&lt;b&gt;HBF29_RS08735&lt;/b&gt;&lt;br&gt;hypothetical protein&lt;br&gt;Location: 481872 - 481702" locus_tag="HBF29_RS08735" class="clusterblast-orf" id="dummy-1_h1_5_1"  />
</g>
<g id="a1_002"  >
<polygon points="26,90 28,90 33,85 28,80 26,80 26,90 " style="fill:white; stroke-width:1; stroke:black; " description="&lt;b&gt;HBF29_RS08730&lt;/b&gt;&lt;br&gt;hypothetical protein&lt;br&gt;Location: 481561 - 481220" locus_tag="HBF29_RS08730" class="clusterblast-orf" id="dummy-1_h1_5_2"  />
</g>
<g id="a1_003"  >
<polygon points="44,90 82,90 87,85 82,80 44,80 44,90 " style="fill:white; stroke-width:1; stroke:black; " description="&lt;b&gt;HBF29_RS08725&lt;/b&gt;&lt;br&gt;hypothetical protein&lt;br&gt;Location: 480659 - 478431" locus_tag="HBF29_RS08725" class="clusterblast-orf" id="dummy-1_h1_5_3"  />
</g>
<g id="a1_004"  >
<polygon points="95,90 110,90 115,85 110,80 95,80 95,90 " style="fill:white; stroke-width:1; stroke:black; " description="&lt;b&gt;HBF29_RS08720&lt;/b&gt;&lt;br&gt;hypothetical protein&lt;br&gt;Location: 478014 - 476980" locus_tag="HBF29_RS08720" class="clusterblast-orf" id="dummy-1_h1_5_4"  />
</g>
<g id="a1_005"  >
<polygon points="123,85 128,80 131,80 131,90 128,90 123,85 " style="fill:white; stroke-width:1; stroke:black; " description="&lt;b&gt;HBF29_RS08715&lt;/b&gt;&lt;br&gt;hypothetical protein&lt;br&gt;Location: 476590 - 476138" locus_tag="HBF29_RS08715" class="clusterblast-orf" id="dummy-1_h1_5_5"  />
</g>
<g id="a1_006"  >
<polygon points="133,85 138,80 148,80 148,90 138,90 133,85 " style="fill:white; stroke-width:1; stroke:black; " description="&lt;b&gt;HBF29_RS08710&lt;/b&gt;&lt;br&gt;hypothetical protein&lt;br&gt;Location: 476083 - 475283" locus_tag="HBF29_RS08710" class="clusterblast-orf" id="dummy-1_h1_5_6"  />
</g>
<g id="a1_007"  >
<polygon points="156,85 161,80 174,80 174,90 161,90 156,85 " style="fill:white; stroke-width:1; stroke:black; " description="&lt;b&gt;HBF29_RS08705&lt;/b&gt;&lt;br&gt;MurR/RpiR family transcriptional regulator&lt;br&gt;Location: 474854 - 473967" locus_tag="HBF29_RS08705" class="clusterblast-orf" id="dummy-1_h1_5_7"  />
</g>
<g id="a1_008"  >
<polygon points="182,90 218,90 223,85 218,80 182,80 182,90 " style="fill:white; stroke-width:1; stroke:black; " description="&lt;b&gt;HBF29_RS08700&lt;/b&gt;&lt;br&gt;TonB-dependent siderophore receptor&lt;br&gt;Location: 473552 - 471423" locus_tag="HBF29_RS08700" class="clusterblast-orf" id="dummy-1_h1_5_8"  />
</g>
<g id="a1_009"  >
<polygon points="225,85 230,80 249,80 249,90 230,90 225,85 " style="fill:white; stroke-width:1; stroke:black; " description="&lt;b&gt;HBF29_RS08695&lt;/b&gt;&lt;br&gt;MFS transporter&lt;br&gt;Location: 471312 - 470047" locus_tag="HBF29_RS08695" class="clusterblast-orf" id="dummy-1_h1_5_9"  />
</g>
<g id="a1_0010"  >
<polygon points="250,85 255,80 311,80 311,90 255,90 250,85 " style="fill:white; stroke-width:1; stroke:black; " description="&lt;b&gt;HBF29_RS08690&lt;/b&gt;&lt;br&gt;beta-galactosidase&lt;br&gt;Location: 469992 - 466873" locus_tag="HBF29_RS08690" class="clusterblast-orf" id="dummy-1_h1_5_10"  />
</g>
<g id="a1_0011"  >
<polygon points="318,90 334,90 339,85 334,80 318,80 318,90 " style="fill:white; stroke-width:1; stroke:black; " description="&lt;b&gt;HBF29_RS08685&lt;/b&gt;&lt;br&gt;substrate-binding domain-containing protein&lt;br&gt;Location: 466482 - 465418" locus_tag="HBF29_RS08685" class="clusterblast-orf" id="dummy-1_h1_5_11"  />
</g>
<g id="a1_0012"  >
<polygon points="341,90 348,90 353,85 348,80 341,80 341,90 " style="fill:white; stroke-width:1; stroke:black; " description="&lt;b&gt;HBF29_RS08680&lt;/b&gt;&lt;br&gt;TetR/AcrR family transcriptional regulator&lt;br&gt;Location: 465296 - 464721" locus_tag="HBF29_RS08680" class="clusterblast-orf" id="dummy-1_h1_5_12"  />
</g>
<g id="a1_0013"  >
<polygon points="358,90 374,90 379,85 374,80 358,80 358,90 " style="fill:white; stroke-width:1; stroke:black; " description="&lt;b&gt;HBF29_RS08675&lt;/b&gt;&lt;br&gt;iron-containing redox enzyme family protein&lt;br&gt;Location: 464430 - 463363" locus_tag="HBF29_RS08675" class="clusterblast-orf" id="dummy-1_h1_5_13"  />
</g>
<g id="a1_0014"  >
<polygon points="383,90 395,90 400,85 395,80 383,80 383,90 " style="fill:#1597d8; stroke-width:1; stroke:black; " description="&lt;b&gt;HBF29_RS08670&lt;/b&gt;&lt;br&gt;phosphoenolpyruvate mutase&lt;br&gt;Location: 463139 - 462270&lt;br&gt;&lt;br&gt;&lt;b&gt;BlastP hit with ctg19_72&lt;/b&gt;&lt;br&gt;Percentage identity: 67&lt;br&gt;Percentage coverage: 98&lt;br&gt;BLAST bit score: 402&lt;br&gt;E-value: 1.23e-140" locus_tag="HBF29_RS08670" class="clusterblast-orf" id="dummy-1_h1_5_14"  />
</g>
<g id="a1_0015"  >
<polygon points="401,90 417,90 422,85 417,80 401,80 401,90 " style="fill:#9715d8; stroke-width:1; stroke:black; " description="&lt;b&gt;HBF29_RS08665&lt;/b&gt;&lt;br&gt;phosphonopyruvate decarboxylase&lt;br&gt;Location: 462222 - 461131&lt;br&gt;&lt;br&gt;&lt;b&gt;BlastP hit with ctg19_73&lt;/b&gt;&lt;br&gt;Percentage identity: 56&lt;br&gt;Percentage coverage: 100&lt;br&gt;BLAST bit score: 403&lt;br&gt;E-value: 1.38e-138" locus_tag="HBF29_RS08665" class="clusterblast-orf" id="dummy-1_h1_5_15"  />
</g>
<g id="a1_0016"  >
<polygon points="424,90 443,90 448,85 443,80 424,80 424,90 " style="fill:#d89715; stroke-width:1; stroke:black; " description="&lt;b&gt;HBF29_RS08660&lt;/b&gt;&lt;br&gt;pyridoxal phosphate-dependent aminotransferase&lt;br&gt;Location: 461025 - 459802&lt;br&gt;&lt;br&gt;&lt;b&gt;BlastP hit with ctg19_74&lt;/b&gt;&lt;br&gt;Percentage identity: 55&lt;br&gt;Percentage coverage: 96&lt;br&gt;BLAST bit score: 446&lt;br&gt;E-value: 6.37e-154" locus_tag="HBF29_RS08660" class="clusterblast-orf" id="dummy-1_h1_5_16"  />
</g>
<g id="a1_0017"  >
<polygon points="449,90 460,90 465,85 460,80 449,80 449,90 " style="fill:#15d897; stroke-width:1; stroke:black; " description="&lt;b&gt;HBF29_RS08655&lt;/b&gt;&lt;br&gt;hypothetical protein&lt;br&gt;Location: 459745 - 458909&lt;br&gt;&lt;br&gt;&lt;b&gt;BlastP hit with ctg19_75&lt;/b&gt;&lt;br&gt;Percentage identity: 46&lt;br&gt;Percentage coverage: 98&lt;br&gt;BLAST bit score: 222&lt;br&gt;E-value: 5.4e-70" locus_tag="HBF29_RS08655" class="clusterblast-orf" id="dummy-1_h1_5_17"  />
</g>
<g id="a1_0018"  >
<polygon points="465,90 482,90 487,85 482,80 465,80 465,90 " style="fill:#1515d8; stroke-width:1; stroke:black; " description="&lt;b&gt;HBF29_RS08650&lt;/b&gt;&lt;br&gt;2-aminoethylphosphonate--pyruvate transaminase&lt;br&gt;Location: 458896 - 457757&lt;br&gt;&lt;br&gt;&lt;b&gt;BlastP hit with ctg19_76&lt;/b&gt;&lt;br&gt;Percentage identity: 44&lt;br&gt;Percentage coverage: 94&lt;br&gt;BLAST bit score: 284&lt;br&gt;E-value: 1.54e-91" locus_tag="HBF29_RS08650" class="clusterblast-orf" id="dummy-1_h1_5_18"  />
</g>
<g id="a1_0019"  >
<polygon points="487,90 502,90 507,85 502,80 487,80 487,90 " style="fill:white; stroke-width:1; stroke:black; " description="&lt;b&gt;HBF29_RS08645&lt;/b&gt;&lt;br&gt;GNAT family N-acetyltransferase&lt;br&gt;Location: 457760 - 456741" locus_tag="HBF29_RS08645" class="clusterblast-orf" id="dummy-1_h1_5_19"  />
</g>
<g id="a1_0020"  >
<polygon points="507,90 520,90 525,85 520,80 507,80 507,90 " style="fill:#97d815; stroke-width:1; stroke:black; " description="&lt;b&gt;HBF29_RS08640&lt;/b&gt;&lt;br&gt;DUF3810 domain-containing protein&lt;br&gt;Location: 456739 - 455819&lt;br&gt;&lt;br&gt;&lt;b&gt;BlastP hit with ctg19_78&lt;/b&gt;&lt;br&gt;Percentage identity: 46&lt;br&gt;Percentage coverage: 93&lt;br&gt;BLAST bit score: 216&lt;br&gt;E-value: 3.22e-67" locus_tag="HBF29_RS08640" class="clusterblast-orf" id="dummy-1_h1_5_20"  />
</g>
<g id="a1_0021"  >
<polygon points="525,90 544,90 549,85 544,80 525,80 525,90 " style="fill:#d89715; stroke-width:1; stroke:black; " description="&lt;b&gt;HBF29_RS08635&lt;/b&gt;&lt;br&gt;pyridoxal phosphate-dependent aminotransferase&lt;br&gt;Location: 455808 - 454585&lt;br&gt;&lt;br&gt;&lt;b&gt;BlastP hit with ctg19_74&lt;/b&gt;&lt;br&gt;Percentage identity: 48&lt;br&gt;Percentage coverage: 98&lt;br&gt;BLAST bit score: 389&lt;br&gt;E-value: 1.19e-131" locus_tag="HBF29_RS08635" class="clusterblast-orf" id="dummy-1_h1_5_21"  />
</g>
<g id="a1_0022"  >
<polygon points="549,90 570,90 575,85 570,80 549,80 549,90 " style="fill:white; stroke-width:1; stroke:black; " description="&lt;b&gt;HBF29_RS08630&lt;/b&gt;&lt;br&gt;hypothetical protein&lt;br&gt;Location: 454592 - 453252" locus_tag="HBF29_RS08630" class="clusterblast-orf" id="dummy-1_h1_5_22"  />
</g>
<g id="a1_0023"  >
<polygon points="576,90 585,90 590,85 585,80 576,80 576,90 " style="fill:white; stroke-width:1; stroke:black; " description="&lt;b&gt;HBF29_RS08625&lt;/b&gt;&lt;br&gt;nucleotidyltransferase&lt;br&gt;Location: 453205 - 452465" locus_tag="HBF29_RS08625" class="clusterblast-orf" id="dummy-1_h1_5_23"  />
</g>
<g id="a1_0024"  >
<polygon points="590,90 610,90 615,85 610,80 590,80 590,90 " style="fill:#d89715; stroke-width:1; stroke:black; " description="&lt;b&gt;HBF29_RS08620&lt;/b&gt;&lt;br&gt;pyridoxal phosphate-dependent aminotransferase&lt;br&gt;Location: 452468 - 451182&lt;br&gt;&lt;br&gt;&lt;b&gt;BlastP hit with ctg19_74&lt;/b&gt;&lt;br&gt;Percentage identity: 48&lt;br&gt;Percentage coverage: 98&lt;br&gt;BLAST bit score: 395&lt;br&gt;E-value: 1.29e-133" locus_tag="HBF29_RS08620" class="clusterblast-orf" id="dummy-1_h1_5_24"  />
</g>
<g id="a1_0025"  >
<polygon points="615,90 622,90 627,85 622,80 615,80 615,90 " style="fill:white; stroke-width:1; stroke:black; " description="&lt;b&gt;HBF29_RS08615&lt;/b&gt;&lt;br&gt;phosphatidylserine synthase&lt;br&gt;Location: 451185 - 450556" locus_tag="HBF29_RS08615" class="clusterblast-orf" id="dummy-1_h1_5_25"  />
</g>
<g id="a1_0026"  >
<polygon points="627,90 647,90 652,85 647,80 627,80 627,90 " style="fill:white; stroke-width:1; stroke:black; " description="&lt;b&gt;HBF29_RS08610&lt;/b&gt;&lt;br&gt;ATP-grasp domain-containing protein&lt;br&gt;Location: 450526 - 449234" locus_tag="HBF29_RS08610" class="clusterblast-orf" id="dummy-1_h1_5_26"  />
</g>
<g id="a1_0027"  >
<polygon points="653,90 673,90 678,85 673,80 653,80 653,90 " style="fill:white; stroke-width:1; stroke:black; " description="&lt;b&gt;HBF29_RS08605&lt;/b&gt;&lt;br&gt;MFS transporter&lt;br&gt;Location: 449191 - 447932" locus_tag="HBF29_RS08605" class="clusterblast-orf" id="dummy-1_h1_5_27"  />
</g>
<g id="a1_0028"  >
<polygon points="679,85 684,80 687,80 687,90 684,90 679,85 " style="fill:white; stroke-width:1; stroke:black; " description="&lt;b&gt;HBF29_RS08600&lt;/b&gt;&lt;br&gt;EamA-like transporter family protein&lt;br&gt;Location: 447869 - 447426" locus_tag="HBF29_RS08600" class="clusterblast-orf" id="dummy-1_h1_5_28"  />
</g>
<g id="a1_0029"  >
<polygon points="688,85 693,80 698,80 698,90 693,90 688,85 " style="fill:white; stroke-width:1; stroke:black; " description="&lt;b&gt;HBF29_RS08595&lt;/b&gt;&lt;br&gt;N-acetyltransferase&lt;br&gt;Location: 447421 - 446903" locus_tag="HBF29_RS08595" class="clusterblast-orf" id="dummy-1_h1_5_29"  />
</g>
<g id="a1_0030"  >
<polygon points="698,90 704,90 709,85 704,80 698,80 698,90 " style="fill:white; stroke-width:1; stroke:black; " description="&lt;b&gt;HBF29_RS08590&lt;/b&gt;&lt;br&gt;helix-turn-helix domain-containing protein&lt;br&gt;Location: 446863 - 446294" locus_tag="HBF29_RS08590" class="clusterblast-orf" id="dummy-1_h1_5_30"  />
</g>
<g id="a1_0031"  >
<polygon points="711,85 716,80 722,80 722,90 716,90 711,85 " style="fill:white; stroke-width:1; stroke:black; " description="&lt;b&gt;HBF29_RS08585&lt;/b&gt;&lt;br&gt;nitroreductase family protein&lt;br&gt;Location: 446234 - 445647" locus_tag="HBF29_RS08585" class="clusterblast-orf" id="dummy-1_h1_5_31"  />
</g>
<g id="a1_0032"  >
<polygon points="724,85 729,80 741,80 741,90 729,90 724,85 " style="fill:white; stroke-width:1; stroke:black; " description="&lt;b&gt;HBF29_RS08580&lt;/b&gt;&lt;br&gt;LysR family transcriptional regulator&lt;br&gt;Location: 445560 - 444679" locus_tag="HBF29_RS08580" class="clusterblast-orf" id="dummy-1_h1_5_32"  />
</g>
<g id="a1_0033"  >
<polygon points="743,90 750,90 755,85 750,80 743,80 743,90 " style="fill:white; stroke-width:1; stroke:black; " description="&lt;b&gt;HBF29_RS08575&lt;/b&gt;&lt;br&gt;NAD(P)H-dependent oxidoreductase&lt;br&gt;Location: 444557 - 443922" locus_tag="HBF29_RS08575" class="clusterblast-orf" id="dummy-1_h1_5_33"  />
</g>
<g id="a1_0034"  >
<polygon points="758,90 775,90 780,85 775,80 758,80 758,90 " style="fill:white; stroke-width:1; stroke:black; " description="&lt;b&gt;HBF29_RS08570&lt;/b&gt;&lt;br&gt;glycosyltransferase family 9 protein&lt;br&gt;Location: 443777 - 442671" locus_tag="HBF29_RS08570" class="clusterblast-orf" id="dummy-1_h1_5_34"  />
</g>
</svg>
