<svg xmlns="http://www.w3.org/2000/svg" xmlns:xlink="http://www.w3.org/1999/xlink" version="1.1" x="0" y="0" height="230" width="800" viewBox="0 0 800 230" preserveAspectRatio="none"  >
<g label="Query sequence" class="clusterblast-cluster"  >
<text x="5" y="20" class="clusterblast-acc"  >
Query sequence</text>
<line x1="10" y1="35" x2="778.0" y2="35" style="stroke-width:1; stroke:grey; "  />
<polygon points="0,40 0,40 5,35 0,30 0,30 0,40 " style="fill:white; stroke-width:1; stroke:black; " description="&lt;b&gt;ctg17_1&lt;/b&gt;&lt;br&gt;ctg17 1&lt;br&gt;Location: 268 - 1054" locus_tag="ctg17_1" class="clusterblast-orf" id="dummy-1_q0_0_all"  />
<polygon points="5,40 9,40 14,35 9,30 5,30 5,40 " style="fill:white; stroke-width:1; stroke:black; " description="&lt;b&gt;ctg17_2&lt;/b&gt;&lt;br&gt;ctg17 2&lt;br&gt;Location: 1083 - 2331" locus_tag="ctg17_2" class="clusterblast-orf" id="dummy-1_q1_0_all"  />
<polygon points="15,40 18,40 23,35 18,30 15,30 15,40 " style="fill:white; stroke-width:1; stroke:black; " description="&lt;b&gt;ctg17_3&lt;/b&gt;&lt;br&gt;ctg17 3&lt;br&gt;Location: 2342 - 3500" locus_tag="ctg17_3" class="clusterblast-orf" id="dummy-1_q2_0_all"  />
<polygon points="23,40 24,40 29,35 24,30 23,30 23,40 " style="fill:white; stroke-width:1; stroke:black; " description="&lt;b&gt;ctg17_4&lt;/b&gt;&lt;br&gt;ctg17 4&lt;br&gt;Location: 3573 - 4350" locus_tag="ctg17_4" class="clusterblast-orf" id="dummy-1_q3_0_all"  />
<polygon points="29,40 36,40 41,35 36,30 29,30 29,40 " style="fill:white; stroke-width:1; stroke:black; " description="&lt;b&gt;ctg17_5&lt;/b&gt;&lt;br&gt;ctg17 5&lt;br&gt;Location: 4374 - 5961" locus_tag="ctg17_5" class="clusterblast-orf" id="dummy-1_q4_0_all"  />
<polygon points="42,40 49,40 54,35 49,30 42,30 42,40 " style="fill:white; stroke-width:1; stroke:black; " description="&lt;b&gt;ctg17_6&lt;/b&gt;&lt;br&gt;ctg17 6&lt;br&gt;Location: 6195 - 7812" locus_tag="ctg17_6" class="clusterblast-orf" id="dummy-1_q5_0_all"  />
<polygon points="55,40 59,40 64,35 59,30 55,30 55,40 " style="fill:white; stroke-width:1; stroke:black; " description="&lt;b&gt;ctg17_7&lt;/b&gt;&lt;br&gt;ctg17 7&lt;br&gt;Location: 7891 - 9160" locus_tag="ctg17_7" class="clusterblast-orf" id="dummy-1_q6_0_all"  />
<polygon points="64,40 64,40 69,35 64,30 64,30 64,40 " style="fill:white; stroke-width:1; stroke:black; " description="&lt;b&gt;ctg17_8&lt;/b&gt;&lt;br&gt;ctg17 8&lt;br&gt;Location: 9210 - 9885" locus_tag="ctg17_8" class="clusterblast-orf" id="dummy-1_q7_0_all"  />
<polygon points="71,35 76,30 121,30 121,40 76,40 71,35 " style="fill:#d81515; stroke-width:1; stroke:black; " description="&lt;b&gt;ctg17_9&lt;/b&gt;&lt;br&gt;ctg17 9&lt;br&gt;Location: 10171 - 17122" locus_tag="ctg17_9" class="clusterblast-orf" id="dummy-1_q8_0_all"  />
<polygon points="121,35 126,30 136,30 136,40 126,40 121,35 " style="fill:#77d815; stroke-width:1; stroke:black; " description="&lt;b&gt;ctg17_10&lt;/b&gt;&lt;br&gt;ctg17 10&lt;br&gt;Location: 17148 - 19239" locus_tag="ctg17_10" class="clusterblast-orf" id="dummy-1_q9_0_all"  />
<polygon points="137,40 138,40 143,35 138,30 137,30 137,40 " style="fill:#15d8d8; stroke-width:1; stroke:black; " description="&lt;b&gt;ctg17_11&lt;/b&gt;&lt;br&gt;ctg17 11&lt;br&gt;Location: 19336 - 20203" locus_tag="ctg17_11" class="clusterblast-orf" id="dummy-1_q10_0_all"  />
<polygon points="144,35 149,30 198,30 198,40 149,40 144,35 " style="fill:#d81515; stroke-width:1; stroke:black; " description="&lt;b&gt;ctg17_12&lt;/b&gt;&lt;br&gt;ctg17 12&lt;br&gt;Location: 20240 - 27815" locus_tag="ctg17_12" class="clusterblast-orf" id="dummy-1_q11_0_all"  />
<polygon points="199,35 204,30 288,30 288,40 204,40 199,35 " style="fill:#d81515; stroke-width:1; stroke:black; " description="&lt;b&gt;ctg17_13&lt;/b&gt;&lt;br&gt;ctg17 13&lt;br&gt;Location: 27895 - 40228" locus_tag="ctg17_13" class="clusterblast-orf" id="dummy-1_q12_0_all"  />
<polygon points="288,35 293,30 299,30 299,40 293,40 288,35 " style="fill:#7715d8; stroke-width:1; stroke:black; " description="&lt;b&gt;ctg17_14&lt;/b&gt;&lt;br&gt;ctg17 14&lt;br&gt;Location: 40293 - 41703" locus_tag="ctg17_14" class="clusterblast-orf" id="dummy-1_q13_0_all"  />
<polygon points="299,35 304,30 386,30 386,40 304,40 299,35 " style="fill:#d81515; stroke-width:1; stroke:black; " description="&lt;b&gt;ctg17_15&lt;/b&gt;&lt;br&gt;ctg17 15&lt;br&gt;Location: 41699 - 53762" locus_tag="ctg17_15" class="clusterblast-orf" id="dummy-1_q14_0_all"  />
<polygon points="386,35 391,30 493,30 493,40 391,40 386,35 " style="fill:#d81515; stroke-width:1; stroke:black; " description="&lt;b&gt;ctg17_16&lt;/b&gt;&lt;br&gt;ctg17 16&lt;br&gt;Location: 53758 - 68632" locus_tag="ctg17_16" class="clusterblast-orf" id="dummy-1_q15_0_all"  />
<polygon points="493,35 498,30 638,30 638,40 498,40 493,35 " style="fill:#d81515; stroke-width:1; stroke:black; " description="&lt;b&gt;ctg17_17&lt;/b&gt;&lt;br&gt;ctg17 17&lt;br&gt;Location: 68690 - 88661" locus_tag="ctg17_17" class="clusterblast-orf" id="dummy-1_q16_0_all"  />
<polygon points="644,40 652,40 657,35 652,30 644,30 644,40 " style="fill:white; stroke-width:1; stroke:black; " description="&lt;b&gt;ctg17_18&lt;/b&gt;&lt;br&gt;ctg17 18&lt;br&gt;Location: 89558 - 91301" locus_tag="ctg17_18" class="clusterblast-orf" id="dummy-1_q17_0_all"  />
<polygon points="657,35 662,30 664,30 664,40 662,40 657,35 " style="fill:white; stroke-width:1; stroke:black; " description="&lt;b&gt;ctg17_19&lt;/b&gt;&lt;br&gt;ctg17 19&lt;br&gt;Location: 91392 - 92361" locus_tag="ctg17_19" class="clusterblast-orf" id="dummy-1_q18_0_all"  />
<polygon points="672,40 673,35 672,30 672,40 " style="fill:white; stroke-width:1; stroke:black; " description="&lt;b&gt;ctg17_20&lt;/b&gt;&lt;br&gt;ctg17 20&lt;br&gt;Location: 93441 - 93636" locus_tag="ctg17_20" class="clusterblast-orf" id="dummy-1_q19_0_all"  />
<polygon points="677,35 682,30 692,30 692,40 682,40 677,35 " style="fill:white; stroke-width:1; stroke:black; " description="&lt;b&gt;ctg17_21&lt;/b&gt;&lt;br&gt;ctg17 21&lt;br&gt;Location: 94147 - 96148" locus_tag="ctg17_21" class="clusterblast-orf" id="dummy-1_q20_0_all"  />
<polygon points="693,40 695,35 693,30 693,40 " style="fill:white; stroke-width:1; stroke:black; " description="&lt;b&gt;ctg17_22&lt;/b&gt;&lt;br&gt;ctg17 22&lt;br&gt;Location: 96288 - 96687" locus_tag="ctg17_22" class="clusterblast-orf" id="dummy-1_q21_0_all"  />
<polygon points="696,35 701,30 702,30 702,40 701,40 696,35 " style="fill:#d8a715; stroke-width:1; stroke:black; " description="&lt;b&gt;ctg17_23&lt;/b&gt;&lt;br&gt;ctg17 23&lt;br&gt;Location: 96818 - 97592" locus_tag="ctg17_23" class="clusterblast-orf" id="dummy-1_q22_0_all"  />
<polygon points="703,40 704,35 703,30 703,40 " style="fill:white; stroke-width:1; stroke:black; " description="&lt;b&gt;ctg17_24&lt;/b&gt;&lt;br&gt;ctg17 24&lt;br&gt;Location: 97680 - 97815" locus_tag="ctg17_24" class="clusterblast-orf" id="dummy-1_q23_0_all"  />
<polygon points="704,40 711,40 716,35 711,30 704,30 704,40 " style="fill:#15d846; stroke-width:1; stroke:black; " description="&lt;b&gt;ctg17_25&lt;/b&gt;&lt;br&gt;ctg17 25&lt;br&gt;Location: 97836 - 99483" locus_tag="ctg17_25" class="clusterblast-orf" id="dummy-1_q24_0_all"  />
<polygon points="716,40 718,40 723,35 718,30 716,30 716,40 " style="fill:#1546d8; stroke-width:1; stroke:black; " description="&lt;b&gt;ctg17_26&lt;/b&gt;&lt;br&gt;ctg17 26&lt;br&gt;Location: 99513 - 100440" locus_tag="ctg17_26" class="clusterblast-orf" id="dummy-1_q25_0_all"  />
<polygon points="723,40 725,40 730,35 725,30 723,30 723,40 " style="fill:white; stroke-width:1; stroke:black; " description="&lt;b&gt;ctg17_27&lt;/b&gt;&lt;br&gt;ctg17 27&lt;br&gt;Location: 100500 - 101448" locus_tag="ctg17_27" class="clusterblast-orf" id="dummy-1_q26_0_all"  />
<polygon points="730,40 737,40 742,35 737,30 730,30 730,40 " style="fill:#d815a7; stroke-width:1; stroke:black; " description="&lt;b&gt;ctg17_28&lt;/b&gt;&lt;br&gt;ctg17 28&lt;br&gt;Location: 101521 - 103111" locus_tag="ctg17_28" class="clusterblast-orf" id="dummy-1_q27_0_all"  />
<polygon points="742,40 746,40 751,35 746,30 742,30 742,40 " style="fill:white; stroke-width:1; stroke:black; " description="&lt;b&gt;ctg17_29&lt;/b&gt;&lt;br&gt;ctg17 29&lt;br&gt;Location: 103103 - 104390" locus_tag="ctg17_29" class="clusterblast-orf" id="dummy-1_q28_0_all"  />
<polygon points="753,35 756,30 756,40 753,35 " style="fill:white; stroke-width:1; stroke:black; " description="&lt;b&gt;ctg17_30&lt;/b&gt;&lt;br&gt;ctg17 30&lt;br&gt;Location: 104711 - 105143" locus_tag="ctg17_30" class="clusterblast-orf" id="dummy-1_q29_0_all"  />
<polygon points="756,35 761,30 761,30 761,40 761,40 756,35 " style="fill:white; stroke-width:1; stroke:black; " description="&lt;b&gt;ctg17_31&lt;/b&gt;&lt;br&gt;ctg17 31&lt;br&gt;Location: 105144 - 105732" locus_tag="ctg17_31" class="clusterblast-orf" id="dummy-1_q30_0_all"  />
<polygon points="761,35 766,30 772,30 772,40 766,40 761,35 " style="fill:white; stroke-width:1; stroke:black; " description="&lt;b&gt;ctg17_32&lt;/b&gt;&lt;br&gt;ctg17 32&lt;br&gt;Location: 105749 - 107237" locus_tag="ctg17_32" class="clusterblast-orf" id="dummy-1_q31_0_all"  />
<polygon points="772,35 775,30 775,40 772,35 " style="fill:white; stroke-width:1; stroke:black; " description="&lt;b&gt;ctg17_33&lt;/b&gt;&lt;br&gt;ctg17 33&lt;br&gt;Location: 107233 - 107719" locus_tag="ctg17_33" class="clusterblast-orf" id="dummy-1_q32_0_all"  />
<polygon points="776,35 780,30 780,40 776,35 " style="fill:white; stroke-width:1; stroke:black; " description="&lt;b&gt;ctg17_34&lt;/b&gt;&lt;br&gt;ctg17 34&lt;br&gt;Location: 107794 - 108346" locus_tag="ctg17_34" class="clusterblast-orf" id="dummy-1_q33_0_all"  />
</g>
<g label="NC_016111" description="NC_016111 (3784856-3887790): Streptomyces cattleya NRRL 8057 = DSM 46488, com... (14% of genes show similarity), NRPS,T1PKS,transAT-PKS" class="clusterblast-cluster"  >
<text x="5" y="70" class="clusterblast-acc"  >
<a xlink:href="https://antismash-db.secondarymetabolites.org/area.html?record=NC_016111&amp;start=3784856&amp;end=3887790" target="_blank">NC_016111 (3784856-3887790)</a>: Streptomyces cattleya NRRL 8057 = DSM 46488, com... (14% of genes show similarity), NRPS,T1PKS,transAT-PKS</text>
<line x1="10" y1="85" x2="778.0" y2="85" style="stroke-width:1; stroke:grey; "  />
</g>
<g id="a1_000"  >
<polygon points="30,85 32,80 32,90 30,85 " style="fill:white; stroke-width:1; stroke:black; " description="&lt;b&gt;SCAT_RS25265&lt;/b&gt;&lt;br&gt;30S ribosomal protein S11&lt;br&gt;Location: 3887283 - 3886879" locus_tag="SCAT_RS25265" class="clusterblast-orf" id="dummy-1_h1_10_0"  />
</g>
<g id="a1_001"  >
<polygon points="33,85 36,80 36,90 33,85 " style="fill:white; stroke-width:1; stroke:black; " description="&lt;b&gt;SCAT_RS25260&lt;/b&gt;&lt;br&gt;30S ribosomal protein S13&lt;br&gt;Location: 3886811 - 3886431" locus_tag="SCAT_RS25260" class="clusterblast-orf" id="dummy-1_h1_10_1"  />
</g>
<g id="a1_002"  >
<polygon points="37,85 38,80 38,90 37,85 " style="fill:white; stroke-width:1; stroke:black; " description="&lt;b&gt;SCAT_RS25255&lt;/b&gt;&lt;br&gt;50S ribosomal protein L36&lt;br&gt;Location: 3886229 - 3886116" locus_tag="SCAT_RS25255" class="clusterblast-orf" id="dummy-1_h1_10_2"  />
</g>
<g id="a1_003"  >
<polygon points="38,85 40,80 40,90 38,85 " style="fill:white; stroke-width:1; stroke:black; " description="&lt;b&gt;SCAT_RS25250&lt;/b&gt;&lt;br&gt;translation initiation factor IF-1&lt;br&gt;Location: 3886053 - 3885832" locus_tag="SCAT_RS25250" class="clusterblast-orf" id="dummy-1_h1_10_3"  />
</g>
<g id="a1_004"  >
<polygon points="41,85 46,80 47,80 47,90 46,90 41,85 " style="fill:white; stroke-width:1; stroke:black; " description="&lt;b&gt;SCAT_RS25245&lt;/b&gt;&lt;br&gt;type I methionyl aminopeptidase&lt;br&gt;Location: 3885640 - 3884804" locus_tag="SCAT_RS25245" class="clusterblast-orf" id="dummy-1_h1_10_4"  />
</g>
<g id="a1_005"  >
<polygon points="48,85 53,80 53,80 53,90 53,90 48,85 " style="fill:white; stroke-width:1; stroke:black; " description="&lt;b&gt;SCAT_RS25240&lt;/b&gt;&lt;br&gt;adenylate kinase&lt;br&gt;Location: 3884696 - 3884040" locus_tag="SCAT_RS25240" class="clusterblast-orf" id="dummy-1_h1_10_5"  />
</g>
<g id="a1_006"  >
<polygon points="53,85 58,80 62,80 62,90 58,90 53,85 " style="fill:white; stroke-width:1; stroke:black; " description="&lt;b&gt;SCAT_RS25235&lt;/b&gt;&lt;br&gt;preprotein translocase subunit SecY&lt;br&gt;Location: 3884040 - 3882724" locus_tag="SCAT_RS25235" class="clusterblast-orf" id="dummy-1_h1_10_6"  />
</g>
<g id="a1_007"  >
<polygon points="64,85 67,80 67,90 64,85 " style="fill:white; stroke-width:1; stroke:black; " description="&lt;b&gt;SCAT_RS25230&lt;/b&gt;&lt;br&gt;50S ribosomal protein L15&lt;br&gt;Location: 3882513 - 3882052" locus_tag="SCAT_RS25230" class="clusterblast-orf" id="dummy-1_h1_10_7"  />
</g>
<g id="a1_008"  >
<polygon points="67,85 69,80 69,90 67,85 " style="fill:white; stroke-width:1; stroke:black; " description="&lt;b&gt;SCAT_RS25225&lt;/b&gt;&lt;br&gt;50S ribosomal protein L30&lt;br&gt;Location: 3882050 - 3881868" locus_tag="SCAT_RS25225" class="clusterblast-orf" id="dummy-1_h1_10_8"  />
</g>
<g id="a1_009"  >
<polygon points="69,85 73,80 73,90 69,85 " style="fill:white; stroke-width:1; stroke:black; " description="&lt;b&gt;SCAT_RS25220&lt;/b&gt;&lt;br&gt;30S ribosomal protein S5&lt;br&gt;Location: 3881866 - 3881261" locus_tag="SCAT_RS25220" class="clusterblast-orf" id="dummy-1_h1_10_9"  />
</g>
<g id="a1_0010"  >
<polygon points="73,85 76,80 76,90 73,85 " style="fill:white; stroke-width:1; stroke:black; " description="&lt;b&gt;SCAT_RS25215&lt;/b&gt;&lt;br&gt;50S ribosomal protein L18&lt;br&gt;Location: 3881220 - 3880837" locus_tag="SCAT_RS25215" class="clusterblast-orf" id="dummy-1_h1_10_10"  />
</g>
<g id="a1_0011"  >
<polygon points="76,85 80,80 80,90 76,85 " style="fill:white; stroke-width:1; stroke:black; " description="&lt;b&gt;SCAT_RS25210&lt;/b&gt;&lt;br&gt;50S ribosomal protein L6&lt;br&gt;Location: 3880833 - 3880294" locus_tag="SCAT_RS25210" class="clusterblast-orf" id="dummy-1_h1_10_11"  />
</g>
<g id="a1_0012"  >
<polygon points="80,85 83,80 83,90 80,85 " style="fill:white; stroke-width:1; stroke:black; " description="&lt;b&gt;SCAT_RS25205&lt;/b&gt;&lt;br&gt;30S ribosomal protein S8&lt;br&gt;Location: 3880271 - 3879873" locus_tag="SCAT_RS25205" class="clusterblast-orf" id="dummy-1_h1_10_12"  />
</g>
<g id="a1_0013"  >
<polygon points="85,85 86,80 86,90 85,85 " style="fill:white; stroke-width:1; stroke:black; " description="&lt;b&gt;SCAT_RS25200&lt;/b&gt;&lt;br&gt;type Z 30S ribosomal protein S14&lt;br&gt;Location: 3879651 - 3879466" locus_tag="SCAT_RS25200" class="clusterblast-orf" id="dummy-1_h1_10_13"  />
</g>
<g id="a1_0014"  >
<polygon points="86,85 90,80 90,90 86,85 " style="fill:white; stroke-width:1; stroke:black; " description="&lt;b&gt;SCAT_RS25195&lt;/b&gt;&lt;br&gt;50S ribosomal protein L5&lt;br&gt;Location: 3879462 - 3878902" locus_tag="SCAT_RS25195" class="clusterblast-orf" id="dummy-1_h1_10_14"  />
</g>
<g id="a1_0015"  >
<polygon points="90,85 92,80 92,90 90,85 " style="fill:white; stroke-width:1; stroke:black; " description="&lt;b&gt;SCAT_RS25190&lt;/b&gt;&lt;br&gt;50S ribosomal protein L24&lt;br&gt;Location: 3878902 - 3878579" locus_tag="SCAT_RS25190" class="clusterblast-orf" id="dummy-1_h1_10_15"  />
</g>
<g id="a1_0016"  >
<polygon points="92,85 95,80 95,90 92,85 " style="fill:white; stroke-width:1; stroke:black; " description="&lt;b&gt;SCAT_RS25185&lt;/b&gt;&lt;br&gt;50S ribosomal protein L14&lt;br&gt;Location: 3878575 - 3878207" locus_tag="SCAT_RS25185" class="clusterblast-orf" id="dummy-1_h1_10_16"  />
</g>
<g id="a1_0017"  >
<polygon points="96,85 98,80 98,90 96,85 " style="fill:white; stroke-width:1; stroke:black; " description="&lt;b&gt;SCAT_RS25180&lt;/b&gt;&lt;br&gt;30S ribosomal protein S17&lt;br&gt;Location: 3878103 - 3877819" locus_tag="SCAT_RS25180" class="clusterblast-orf" id="dummy-1_h1_10_17"  />
</g>
<g id="a1_0018"  >
<polygon points="98,85 99,80 99,90 98,85 " style="fill:white; stroke-width:1; stroke:black; " description="&lt;b&gt;SCAT_RS25175&lt;/b&gt;&lt;br&gt;50S ribosomal protein L29&lt;br&gt;Location: 3877819 - 3877595" locus_tag="SCAT_RS25175" class="clusterblast-orf" id="dummy-1_h1_10_18"  />
</g>
<g id="a1_0019"  >
<polygon points="99,85 102,80 102,90 99,85 " style="fill:white; stroke-width:1; stroke:black; " description="&lt;b&gt;SCAT_RS25170&lt;/b&gt;&lt;br&gt;50S ribosomal protein L16&lt;br&gt;Location: 3877595 - 3877176" locus_tag="SCAT_RS25170" class="clusterblast-orf" id="dummy-1_h1_10_19"  />
</g>
<g id="a1_0020"  >
<polygon points="102,85 107,80 108,80 108,90 107,90 102,85 " style="fill:white; stroke-width:1; stroke:black; " description="&lt;b&gt;SCAT_RS25165&lt;/b&gt;&lt;br&gt;30S ribosomal protein S3&lt;br&gt;Location: 3877170 - 3876346" locus_tag="SCAT_RS25165" class="clusterblast-orf" id="dummy-1_h1_10_20"  />
</g>
<g id="a1_0021"  >
<polygon points="108,85 111,80 111,90 108,85 " style="fill:white; stroke-width:1; stroke:black; " description="&lt;b&gt;SCAT_RS25160&lt;/b&gt;&lt;br&gt;50S ribosomal protein L22&lt;br&gt;Location: 3876346 - 3875999" locus_tag="SCAT_RS25160" class="clusterblast-orf" id="dummy-1_h1_10_21"  />
</g>
<g id="a1_0022"  >
<polygon points="111,85 113,80 113,90 111,85 " style="fill:white; stroke-width:1; stroke:black; " description="&lt;b&gt;SCAT_RS25155&lt;/b&gt;&lt;br&gt;30S ribosomal protein S19&lt;br&gt;Location: 3875953 - 3875672" locus_tag="SCAT_RS25155" class="clusterblast-orf" id="dummy-1_h1_10_22"  />
</g>
<g id="a1_0023"  >
<polygon points="113,85 118,80 119,80 119,90 118,90 113,85 " style="fill:white; stroke-width:1; stroke:black; " description="&lt;b&gt;SCAT_RS25150&lt;/b&gt;&lt;br&gt;50S ribosomal protein L2&lt;br&gt;Location: 3875659 - 3874823" locus_tag="SCAT_RS25150" class="clusterblast-orf" id="dummy-1_h1_10_23"  />
</g>
<g id="a1_0024"  >
<polygon points="120,85 122,80 122,90 120,85 " style="fill:white; stroke-width:1; stroke:black; " description="&lt;b&gt;SCAT_RS25145&lt;/b&gt;&lt;br&gt;50S ribosomal protein L23&lt;br&gt;Location: 3874783 - 3874457" locus_tag="SCAT_RS25145" class="clusterblast-orf" id="dummy-1_h1_10_24"  />
</g>
<g id="a1_0025"  >
<polygon points="122,85 127,80 127,80 127,90 127,90 122,85 " style="fill:white; stroke-width:1; stroke:black; " description="&lt;b&gt;SCAT_RS25140&lt;/b&gt;&lt;br&gt;50S ribosomal protein L4&lt;br&gt;Location: 3874457 - 3873807" locus_tag="SCAT_RS25140" class="clusterblast-orf" id="dummy-1_h1_10_25"  />
</g>
<g id="a1_0026"  >
<polygon points="127,85 131,80 131,90 127,85 " style="fill:white; stroke-width:1; stroke:black; " description="&lt;b&gt;SCAT_RS25135&lt;/b&gt;&lt;br&gt;50S ribosomal protein L3&lt;br&gt;Location: 3873798 - 3873154" locus_tag="SCAT_RS25135" class="clusterblast-orf" id="dummy-1_h1_10_26"  />
</g>
<g id="a1_0027"  >
<polygon points="132,85 134,80 134,90 132,85 " style="fill:white; stroke-width:1; stroke:black; " description="&lt;b&gt;SCAT_RS25130&lt;/b&gt;&lt;br&gt;30S ribosomal protein S10&lt;br&gt;Location: 3873140 - 3872832" locus_tag="SCAT_RS25130" class="clusterblast-orf" id="dummy-1_h1_10_27"  />
</g>
<g id="a1_0028"  >
<polygon points="137,85 142,80 148,80 148,90 142,90 137,85 " style="fill:white; stroke-width:1; stroke:black; " description="&lt;b&gt;SCAT_RS25125&lt;/b&gt;&lt;br&gt;MFS transporter&lt;br&gt;Location: 3872439 - 3870829" locus_tag="SCAT_RS25125" class="clusterblast-orf" id="dummy-1_h1_10_28"  />
</g>
<g id="a1_0029"  >
<polygon points="149,90 149,90 154,85 149,80 149,80 149,90 " style="fill:white; stroke-width:1; stroke:black; " description="&lt;b&gt;SCAT_RS25120&lt;/b&gt;&lt;br&gt;helix-turn-helix transcriptional regulator&lt;br&gt;Location: 3870712 - 3870041" locus_tag="SCAT_RS25120" class="clusterblast-orf" id="dummy-1_h1_10_29"  />
</g>
<g id="a1_0030"  >
<polygon points="154,85 159,80 163,80 163,90 159,90 154,85 " style="fill:white; stroke-width:1; stroke:black; " description="&lt;b&gt;SCAT_RS25115&lt;/b&gt;&lt;br&gt;cytochrome P450&lt;br&gt;Location: 3870030 - 3868816" locus_tag="SCAT_RS25115" class="clusterblast-orf" id="dummy-1_h1_10_30"  />
</g>
<g id="a1_0031"  >
<polygon points="170,90 179,90 184,85 179,80 170,80 170,90 " style="fill:white; stroke-width:1; stroke:black; " description="&lt;b&gt;SCAT_RS25110&lt;/b&gt;&lt;br&gt;acyltransferase domain-containing protein&lt;br&gt;Location: 3867790 - 3865823" locus_tag="SCAT_RS25110" class="clusterblast-orf" id="dummy-1_h1_10_31"  />
</g>
<g id="a1_0032"  >
<polygon points="185,90 187,90 192,85 187,80 185,80 185,90 " style="fill:#15d8d8; stroke-width:1; stroke:black; " description="&lt;b&gt;SCAT_RS25105&lt;/b&gt;&lt;br&gt;methyltransferase domain-containing protein&lt;br&gt;Location: 3865728 - 3864760&lt;br&gt;&lt;br&gt;&lt;b&gt;BlastP hit with ctg17_11&lt;/b&gt;&lt;br&gt;Percentage identity: 51&lt;br&gt;Percentage coverage: 39&lt;br&gt;BLAST bit score: 101&lt;br&gt;E-value: 5.53e-23" locus_tag="SCAT_RS25105" class="clusterblast-orf" id="dummy-1_h1_10_32"  />
</g>
<g id="a1_0033"  >
<polygon points="192,90 211,90 216,85 211,80 192,80 192,90 " style="fill:#77d815; stroke-width:1; stroke:black; " description="&lt;b&gt;SCAT_RS25100&lt;/b&gt;&lt;br&gt;ACP S-malonyltransferase&lt;br&gt;Location: 3864763 - 3861500&lt;br&gt;&lt;br&gt;&lt;b&gt;BlastP hit with ctg17_10&lt;/b&gt;&lt;br&gt;Percentage identity: 46&lt;br&gt;Percentage coverage: 93&lt;br&gt;BLAST bit score: 520&lt;br&gt;E-value: 9.18e-170" locus_tag="SCAT_RS25100" class="clusterblast-orf" id="dummy-1_h1_10_33"  />
</g>
<g id="a1_0034"  >
<polygon points="216,90 219,90 224,85 219,80 216,80 216,90 " style="fill:white; stroke-width:1; stroke:black; " description="&lt;b&gt;SCAT_RS25095&lt;/b&gt;&lt;br&gt;cytochrome P450&lt;br&gt;Location: 3861496 - 3860273" locus_tag="SCAT_RS25095" class="clusterblast-orf" id="dummy-1_h1_10_34"  />
</g>
<g id="a1_0035"  >
<polygon points="225,85 230,80 235,80 235,90 230,90 225,85 " style="fill:white; stroke-width:1; stroke:black; " description="&lt;b&gt;SCAT_RS25090&lt;/b&gt;&lt;br&gt;indoleacetamide hydrolase&lt;br&gt;Location: 3860211 - 3858802" locus_tag="SCAT_RS25090" class="clusterblast-orf" id="dummy-1_h1_10_35"  />
</g>
<g id="a1_0036"  >
<polygon points="235,85 240,80 290,80 290,90 240,90 235,85 " style="fill:white; stroke-width:1; stroke:black; " description="&lt;b&gt;SCAT_RS25085&lt;/b&gt;&lt;br&gt;type I polyketide synthase&lt;br&gt;Location: 3858760 - 3851204" locus_tag="SCAT_RS25085" class="clusterblast-orf" id="dummy-1_h1_10_36"  />
</g>
<g id="a1_0037"  >
<polygon points="290,85 295,80 344,80 344,90 295,90 290,85 " style="fill:#d81515; stroke-width:1; stroke:black; " description="&lt;b&gt;SCAT_RS25080&lt;/b&gt;&lt;br&gt;SDR family NAD(P)-dependent oxidoreductase&lt;br&gt;Location: 3851125 - 3843689&lt;br&gt;&lt;br&gt;&lt;b&gt;BlastP hit with ctg17_9&lt;/b&gt;&lt;br&gt;Percentage identity: 37&lt;br&gt;Percentage coverage: 25&lt;br&gt;BLAST bit score: 293&lt;br&gt;E-value: 3.11e-77&lt;br&gt;&lt;br&gt;&lt;b&gt;BlastP hit with ctg17_12&lt;/b&gt;&lt;br&gt;Percentage identity: 41&lt;br&gt;Percentage coverage: 36&lt;br&gt;BLAST bit score: 589&lt;br&gt;E-value: 7.41e-170&lt;br&gt;&lt;br&gt;&lt;b&gt;BlastP hit with ctg17_13&lt;/b&gt;&lt;br&gt;Percentage identity: 33&lt;br&gt;Percentage coverage: 26&lt;br&gt;BLAST bit score: 495&lt;br&gt;E-value: 1.11e-138&lt;br&gt;&lt;br&gt;&lt;b&gt;BlastP hit with ctg17_16&lt;/b&gt;&lt;br&gt;Percentage identity: 37&lt;br&gt;Percentage coverage: 24&lt;br&gt;BLAST bit score: 628&lt;br&gt;E-value: 1.39e-180&lt;br&gt;&lt;br&gt;&lt;b&gt;BlastP hit with ctg17_17&lt;/b&gt;&lt;br&gt;Percentage identity: 34&lt;br&gt;Percentage coverage: 22&lt;br&gt;BLAST bit score: 620&lt;br&gt;E-value: 9.08e-178" locus_tag="SCAT_RS25080" class="clusterblast-orf" id="dummy-1_h1_10_37"  />
</g>
<g id="a1_0038"  >
<polygon points="345,85 350,80 490,80 490,90 350,90 345,85 " style="fill:#d81515; stroke-width:1; stroke:black; " description="&lt;b&gt;SCAT_RS25075&lt;/b&gt;&lt;br&gt;SDR family NAD(P)-dependent oxidoreductase&lt;br&gt;Location: 3843606 - 3823441&lt;br&gt;&lt;br&gt;&lt;b&gt;BlastP hit with ctg17_9&lt;/b&gt;&lt;br&gt;Percentage identity: 37&lt;br&gt;Percentage coverage: 26&lt;br&gt;BLAST bit score: 301&lt;br&gt;E-value: 1.47e-79&lt;br&gt;&lt;br&gt;&lt;b&gt;BlastP hit with ctg17_12&lt;/b&gt;&lt;br&gt;Percentage identity: 35&lt;br&gt;Percentage coverage: 68&lt;br&gt;BLAST bit score: 786&lt;br&gt;E-value: 2.51e-232&lt;br&gt;&lt;br&gt;&lt;b&gt;BlastP hit with ctg17_13&lt;/b&gt;&lt;br&gt;Percentage identity: 32&lt;br&gt;Percentage coverage: 80&lt;br&gt;BLAST bit score: 1306&lt;br&gt;E-value: 0.0&lt;br&gt;&lt;br&gt;&lt;b&gt;BlastP hit with ctg17_15&lt;/b&gt;&lt;br&gt;Percentage identity: 35&lt;br&gt;Percentage coverage: 89&lt;br&gt;BLAST bit score: 1618&lt;br&gt;E-value: 0.0&lt;br&gt;&lt;br&gt;&lt;b&gt;BlastP hit with ctg17_17&lt;/b&gt;&lt;br&gt;Percentage identity: 32&lt;br&gt;Percentage coverage: 74&lt;br&gt;BLAST bit score: 1921&lt;br&gt;E-value: 0.0" locus_tag="SCAT_RS25075" class="clusterblast-orf" id="dummy-1_h1_10_38"  />
</g>
<g id="a1_0039"  >
<polygon points="490,85 495,80 525,80 525,90 495,90 490,85 " style="fill:#d81515; stroke-width:1; stroke:black; " description="&lt;b&gt;SCAT_RS25070&lt;/b&gt;&lt;br&gt;non-ribosomal peptide synthetase&lt;br&gt;Location: 3823440 - 3818680&lt;br&gt;&lt;br&gt;&lt;b&gt;BlastP hit with ctg17_9&lt;/b&gt;&lt;br&gt;Percentage identity: 37&lt;br&gt;Percentage coverage: 25&lt;br&gt;BLAST bit score: 293&lt;br&gt;E-value: 5.82e-78&lt;br&gt;&lt;br&gt;&lt;b&gt;BlastP hit with ctg17_12&lt;/b&gt;&lt;br&gt;Percentage identity: 51&lt;br&gt;Percentage coverage: 17&lt;br&gt;BLAST bit score: 399&lt;br&gt;E-value: 3.17e-111&lt;br&gt;&lt;br&gt;&lt;b&gt;BlastP hit with ctg17_13&lt;/b&gt;&lt;br&gt;Percentage identity: 41&lt;br&gt;Percentage coverage: 13&lt;br&gt;BLAST bit score: 367&lt;br&gt;E-value: 1.08e-100&lt;br&gt;&lt;br&gt;&lt;b&gt;BlastP hit with ctg17_15&lt;/b&gt;&lt;br&gt;Percentage identity: 44&lt;br&gt;Percentage coverage: 14&lt;br&gt;BLAST bit score: 422&lt;br&gt;E-value: 1.35e-118&lt;br&gt;&lt;br&gt;&lt;b&gt;BlastP hit with ctg17_16&lt;/b&gt;&lt;br&gt;Percentage identity: 42&lt;br&gt;Percentage coverage: 11&lt;br&gt;BLAST bit score: 381&lt;br&gt;E-value: 5.15e-105" locus_tag="SCAT_RS25070" class="clusterblast-orf" id="dummy-1_h1_10_39"  />
</g>
<g id="a1_0040"  >
<polygon points="525,85 530,80 624,80 624,90 530,90 525,85 " style="fill:#d81515; stroke-width:1; stroke:black; " description="&lt;b&gt;SCAT_RS25065&lt;/b&gt;&lt;br&gt;SDR family NAD(P)-dependent oxidoreductase&lt;br&gt;Location: 3818683 - 3804857&lt;br&gt;&lt;br&gt;&lt;b&gt;BlastP hit with ctg17_9&lt;/b&gt;&lt;br&gt;Percentage identity: 36&lt;br&gt;Percentage coverage: 35&lt;br&gt;BLAST bit score: 377&lt;br&gt;E-value: 9.54e-103&lt;br&gt;&lt;br&gt;&lt;b&gt;BlastP hit with ctg17_12&lt;/b&gt;&lt;br&gt;Percentage identity: 33&lt;br&gt;Percentage coverage: 84&lt;br&gt;BLAST bit score: 917&lt;br&gt;E-value: 6.25e-276&lt;br&gt;&lt;br&gt;&lt;b&gt;BlastP hit with ctg17_13&lt;/b&gt;&lt;br&gt;Percentage identity: 35&lt;br&gt;Percentage coverage: 49&lt;br&gt;BLAST bit score: 952&lt;br&gt;E-value: 1.94e-278&lt;br&gt;&lt;br&gt;&lt;b&gt;BlastP hit with ctg17_15&lt;/b&gt;&lt;br&gt;Percentage identity: 32&lt;br&gt;Percentage coverage: 76&lt;br&gt;BLAST bit score: 1147&lt;br&gt;E-value: 0.0&lt;br&gt;&lt;br&gt;&lt;b&gt;BlastP hit with ctg17_16&lt;/b&gt;&lt;br&gt;Percentage identity: 35&lt;br&gt;Percentage coverage: 74&lt;br&gt;BLAST bit score: 1728&lt;br&gt;E-value: 0.0&lt;br&gt;&lt;br&gt;&lt;b&gt;BlastP hit with ctg17_17&lt;/b&gt;&lt;br&gt;Percentage identity: 33&lt;br&gt;Percentage coverage: 63&lt;br&gt;BLAST bit score: 1645&lt;br&gt;E-value: 0.0" locus_tag="SCAT_RS25065" class="clusterblast-orf" id="dummy-1_h1_10_40"  />
</g>
<g id="a1_0041"  >
<polygon points="625,85 630,80 669,80 669,90 630,90 625,85 " style="fill:#d81515; stroke-width:1; stroke:black; " description="&lt;b&gt;SCAT_RS25060&lt;/b&gt;&lt;br&gt;KR domain-containing protein&lt;br&gt;Location: 3804833 - 3798621&lt;br&gt;&lt;br&gt;&lt;b&gt;BlastP hit with ctg17_9&lt;/b&gt;&lt;br&gt;Percentage identity: 38&lt;br&gt;Percentage coverage: 29&lt;br&gt;BLAST bit score: 385&lt;br&gt;E-value: 7.73e-106&lt;br&gt;&lt;br&gt;&lt;b&gt;BlastP hit with ctg17_12&lt;/b&gt;&lt;br&gt;Percentage identity: 33&lt;br&gt;Percentage coverage: 77&lt;br&gt;BLAST bit score: 794&lt;br&gt;E-value: 5.25e-244&lt;br&gt;&lt;br&gt;&lt;b&gt;BlastP hit with ctg17_13&lt;/b&gt;&lt;br&gt;Percentage identity: 33&lt;br&gt;Percentage coverage: 43&lt;br&gt;BLAST bit score: 800&lt;br&gt;E-value: 1.61e-240&lt;br&gt;&lt;br&gt;&lt;b&gt;BlastP hit with ctg17_15&lt;/b&gt;&lt;br&gt;Percentage identity: 41&lt;br&gt;Percentage coverage: 19&lt;br&gt;BLAST bit score: 508&lt;br&gt;E-value: 5.55e-144&lt;br&gt;&lt;br&gt;&lt;b&gt;BlastP hit with ctg17_16&lt;/b&gt;&lt;br&gt;Percentage identity: 35&lt;br&gt;Percentage coverage: 34&lt;br&gt;BLAST bit score: 749&lt;br&gt;E-value: 4.56e-223&lt;br&gt;&lt;br&gt;&lt;b&gt;BlastP hit with ctg17_17&lt;/b&gt;&lt;br&gt;Percentage identity: 33&lt;br&gt;Percentage coverage: 30&lt;br&gt;BLAST bit score: 748&lt;br&gt;E-value: 9.58e-223" locus_tag="SCAT_RS25060" class="clusterblast-orf" id="dummy-1_h1_10_41"  />
</g>
<g id="a1_0042"  >
<polygon points="672,85 677,80 677,80 677,90 677,90 672,85 " style="fill:white; stroke-width:1; stroke:black; " description="&lt;b&gt;SCAT_RS25055&lt;/b&gt;&lt;br&gt;4'-phosphopantetheinyl transferase superfamily protein&lt;br&gt;Location: 3798283 - 3797504" locus_tag="SCAT_RS25055" class="clusterblast-orf" id="dummy-1_h1_10_42"  />
</g>
<g id="a1_0043"  >
<polygon points="681,90 696,90 701,85 696,80 681,80 681,90 " style="fill:white; stroke-width:1; stroke:black; " description="&lt;b&gt;SCAT_RS25050&lt;/b&gt;&lt;br&gt;helix-turn-helix transcriptional regulator&lt;br&gt;Location: 3797018 - 3794307" locus_tag="SCAT_RS25050" class="clusterblast-orf" id="dummy-1_h1_10_43"  />
</g>
<g id="a1_0044"  >
<polygon points="703,90 703,90 708,85 703,80 703,80 703,90 " style="fill:white; stroke-width:1; stroke:black; " description="&lt;b&gt;SCAT_RS25045&lt;/b&gt;&lt;br&gt;thioesterase&lt;br&gt;Location: 3793960 - 3793229" locus_tag="SCAT_RS25045" class="clusterblast-orf" id="dummy-1_h1_10_44"  />
</g>
<g id="a1_0045"  >
<polygon points="708,90 712,90 717,85 712,80 708,80 708,90 " style="fill:white; stroke-width:1; stroke:black; " description="&lt;b&gt;SCAT_RS25040&lt;/b&gt;&lt;br&gt;methionine adenosyltransferase&lt;br&gt;Location: 3793202 - 3792039" locus_tag="SCAT_RS25040" class="clusterblast-orf" id="dummy-1_h1_10_45"  />
</g>
<g id="a1_0046"  >
<polygon points="718,85 723,80 726,80 726,90 723,90 718,85 " style="fill:white; stroke-width:1; stroke:black; " description="&lt;b&gt;SCAT_RS25035&lt;/b&gt;&lt;br&gt;elongation factor Tu&lt;br&gt;Location: 3791933 - 3790740" locus_tag="SCAT_RS25035" class="clusterblast-orf" id="dummy-1_h1_10_46"  />
</g>
<g id="a1_0047"  >
<polygon points="728,85 733,80 743,80 743,90 733,90 728,85 " style="fill:white; stroke-width:1; stroke:black; " description="&lt;b&gt;SCAT_RS25030&lt;/b&gt;&lt;br&gt;elongation factor G&lt;br&gt;Location: 3790525 - 3788405" locus_tag="SCAT_RS25030" class="clusterblast-orf" id="dummy-1_h1_10_47"  />
</g>
<g id="a1_0048"  >
<polygon points="743,85 747,80 747,90 743,85 " style="fill:white; stroke-width:1; stroke:black; " description="&lt;b&gt;SCAT_RS25025&lt;/b&gt;&lt;br&gt;30S ribosomal protein S7&lt;br&gt;Location: 3788365 - 3787895" locus_tag="SCAT_RS25025" class="clusterblast-orf" id="dummy-1_h1_10_48"  />
</g>
<g id="a1_0049"  >
<polygon points="747,85 749,80 749,90 747,85 " style="fill:white; stroke-width:1; stroke:black; " description="&lt;b&gt;SCAT_RS25020&lt;/b&gt;&lt;br&gt;30S ribosomal protein S12&lt;br&gt;Location: 3787891 - 3787520" locus_tag="SCAT_RS25020" class="clusterblast-orf" id="dummy-1_h1_10_49"  />
</g>
</svg>
