<svg xmlns="http://www.w3.org/2000/svg" xmlns:xlink="http://www.w3.org/1999/xlink" version="1.1" x="0" y="0" height="230" width="800" viewBox="0 0 800 230" preserveAspectRatio="none"  >
<g label="Query sequence" class="clusterblast-cluster"  >
<text x="5" y="20" class="clusterblast-acc"  >
Query sequence</text>
<line x1="10" y1="35" x2="778.0" y2="35" style="stroke-width:1; stroke:grey; "  />
<polygon points="0,35 4,30 4,40 0,35 " style="fill:#d81515; stroke-width:1; stroke:black; " description="&lt;b&gt;ctg12_2&lt;/b&gt;&lt;br&gt;ctg12 2&lt;br&gt;Location: 463 - 739" locus_tag="ctg12_2" class="clusterblast-orf" id="dummy-1_q0_0_all"  />
<polygon points="4,35 9,30 25,30 25,40 9,40 4,35 " style="fill:#77d815; stroke-width:1; stroke:black; " description="&lt;b&gt;ctg12_3&lt;/b&gt;&lt;br&gt;ctg12 3&lt;br&gt;Location: 735 - 2157" locus_tag="ctg12_3" class="clusterblast-orf" id="dummy-1_q1_0_all"  />
<polygon points="32,40 45,40 50,35 45,30 32,30 32,40 " style="fill:#15d8d8; stroke-width:1; stroke:black; " description="&lt;b&gt;ctg12_4&lt;/b&gt;&lt;br&gt;ctg12 4&lt;br&gt;Location: 2594 - 3806" locus_tag="ctg12_4" class="clusterblast-orf" id="dummy-1_q2_0_all"  />
<polygon points="50,40 53,40 58,35 53,30 50,30 50,40 " style="fill:#7715d8; stroke-width:1; stroke:black; " description="&lt;b&gt;ctg12_5&lt;/b&gt;&lt;br&gt;ctg12 5&lt;br&gt;Location: 3802 - 4345" locus_tag="ctg12_5" class="clusterblast-orf" id="dummy-1_q3_0_all"  />
<polygon points="58,40 58,40 63,35 58,30 58,30 58,40 " style="fill:#d83215; stroke-width:1; stroke:black; " description="&lt;b&gt;ctg12_6&lt;/b&gt;&lt;br&gt;ctg12 6&lt;br&gt;Location: 4341 - 4677" locus_tag="ctg12_6" class="clusterblast-orf" id="dummy-1_q4_0_all"  />
<polygon points="63,40 66,40 71,35 66,30 63,30 63,40 " style="fill:#59d815; stroke-width:1; stroke:black; " description="&lt;b&gt;ctg12_7&lt;/b&gt;&lt;br&gt;ctg12 7&lt;br&gt;Location: 4673 - 5249" locus_tag="ctg12_7" class="clusterblast-orf" id="dummy-1_q5_0_all"  />
<polygon points="72,40 81,40 86,35 81,30 72,30 72,40 " style="fill:#15bbd8; stroke-width:1; stroke:black; " description="&lt;b&gt;ctg12_8&lt;/b&gt;&lt;br&gt;ctg12 8&lt;br&gt;Location: 5283 - 6228" locus_tag="ctg12_8" class="clusterblast-orf" id="dummy-1_q6_0_all"  />
<polygon points="86,40 94,40 99,35 94,30 86,30 86,40 " style="fill:#9415d8; stroke-width:1; stroke:black; " description="&lt;b&gt;ctg12_9&lt;/b&gt;&lt;br&gt;ctg12 9&lt;br&gt;Location: 6224 - 7097" locus_tag="ctg12_9" class="clusterblast-orf" id="dummy-1_q7_0_all"  />
<polygon points="99,40 107,40 112,35 107,30 99,30 99,40 " style="fill:#d85015; stroke-width:1; stroke:black; " description="&lt;b&gt;ctg12_10&lt;/b&gt;&lt;br&gt;ctg12 10&lt;br&gt;Location: 7096 - 7996" locus_tag="ctg12_10" class="clusterblast-orf" id="dummy-1_q8_0_all"  />
<polygon points="112,40 121,40 126,35 121,30 112,30 112,40 " style="fill:#3cd815; stroke-width:1; stroke:black; " description="&lt;b&gt;ctg12_11&lt;/b&gt;&lt;br&gt;ctg12 11&lt;br&gt;Location: 7995 - 8967" locus_tag="ctg12_11" class="clusterblast-orf" id="dummy-1_q9_0_all"  />
<polygon points="129,35 132,30 132,40 129,35 " style="fill:#159ed8; stroke-width:1; stroke:black; " description="&lt;b&gt;ctg12_12&lt;/b&gt;&lt;br&gt;ctg12 12&lt;br&gt;Location: 9152 - 9380" locus_tag="ctg12_12" class="clusterblast-orf" id="dummy-1_q10_0_all"  />
<polygon points="134,35 139,30 155,30 155,40 139,40 134,35 " style="fill:#b115d8; stroke-width:1; stroke:black; " description="&lt;b&gt;ctg12_13&lt;/b&gt;&lt;br&gt;ctg12 13&lt;br&gt;Location: 9462 - 10875" locus_tag="ctg12_13" class="clusterblast-orf" id="dummy-1_q11_0_all"  />
<polygon points="157,35 162,30 164,30 164,40 162,40 157,35 " style="fill:#d86d15; stroke-width:1; stroke:black; " description="&lt;b&gt;ctg12_14&lt;/b&gt;&lt;br&gt;ctg12 14&lt;br&gt;Location: 11018 - 11504" locus_tag="ctg12_14" class="clusterblast-orf" id="dummy-1_q12_0_all"  />
<polygon points="166,35 171,30 185,30 185,40 171,40 166,35 " style="fill:#1fd815; stroke-width:1; stroke:black; " description="&lt;b&gt;ctg12_15&lt;/b&gt;&lt;br&gt;ctg12 15&lt;br&gt;Location: 11639 - 12965" locus_tag="ctg12_15" class="clusterblast-orf" id="dummy-1_q13_0_all"  />
<polygon points="185,35 190,30 196,30 196,40 190,40 185,35 " style="fill:#1580d8; stroke-width:1; stroke:black; " description="&lt;b&gt;ctg12_16&lt;/b&gt;&lt;br&gt;ctg12 16&lt;br&gt;Location: 12961 - 13642" locus_tag="ctg12_16" class="clusterblast-orf" id="dummy-1_q14_0_all"  />
<polygon points="202,40 208,40 213,35 208,30 202,30 202,40 " style="fill:#ce15d8; stroke-width:1; stroke:black; " description="&lt;b&gt;ctg12_17&lt;/b&gt;&lt;br&gt;ctg12 17&lt;br&gt;Location: 14060 - 14804" locus_tag="ctg12_17" class="clusterblast-orf" id="dummy-1_q15_0_all"  />
<polygon points="214,40 235,40 240,35 235,30 214,30 214,40 " style="fill:#d88a15; stroke-width:1; stroke:black; " description="&lt;b&gt;ctg12_18&lt;/b&gt;&lt;br&gt;ctg12 18&lt;br&gt;Location: 14904 - 16641" locus_tag="ctg12_18" class="clusterblast-orf" id="dummy-1_q16_0_all"  />
<polygon points="240,40 248,40 253,35 248,30 240,30 240,40 " style="fill:#15d829; stroke-width:1; stroke:black; " description="&lt;b&gt;ctg12_19&lt;/b&gt;&lt;br&gt;ctg12 19&lt;br&gt;Location: 16640 - 17507" locus_tag="ctg12_19" class="clusterblast-orf" id="dummy-1_q17_0_all"  />
<polygon points="252,40 259,40 264,35 259,30 252,30 252,40 " style="fill:#1563d8; stroke-width:1; stroke:black; " description="&lt;b&gt;ctg12_20&lt;/b&gt;&lt;br&gt;ctg12 20&lt;br&gt;Location: 17482 - 18250" locus_tag="ctg12_20" class="clusterblast-orf" id="dummy-1_q18_0_all"  />
<polygon points="265,35 270,30 277,30 277,40 270,40 265,35 " style="fill:#d815c5; stroke-width:1; stroke:black; " description="&lt;b&gt;ctg12_21&lt;/b&gt;&lt;br&gt;ctg12 21&lt;br&gt;Location: 18353 - 19166" locus_tag="ctg12_21" class="clusterblast-orf" id="dummy-1_q19_0_all"  />
<polygon points="281,40 290,40 295,35 290,30 281,30 281,40 " style="fill:white; stroke-width:1; stroke:black; " description="&lt;b&gt;ctg12_22&lt;/b&gt;&lt;br&gt;ctg12 22&lt;br&gt;Location: 19384 - 20335" locus_tag="ctg12_22" class="clusterblast-orf" id="dummy-1_q20_0_all"  />
<polygon points="296,35 301,30 488,30 488,40 301,40 296,35 " style="fill:#d8a715; stroke-width:1; stroke:black; " description="&lt;b&gt;ctg12_23&lt;/b&gt;&lt;br&gt;ctg12 23&lt;br&gt;Location: 20398 - 33382" locus_tag="ctg12_23" class="clusterblast-orf" id="dummy-1_q21_0_all"  />
<polygon points="494,40 497,40 502,35 497,30 494,30 494,40 " style="fill:#15d846; stroke-width:1; stroke:black; " description="&lt;b&gt;ctg12_24&lt;/b&gt;&lt;br&gt;ctg12 24&lt;br&gt;Location: 33754 - 34303" locus_tag="ctg12_24" class="clusterblast-orf" id="dummy-1_q22_0_all"  />
<polygon points="504,35 509,30 519,30 519,40 509,40 504,35 " style="fill:#1546d8; stroke-width:1; stroke:black; " description="&lt;b&gt;ctg12_25&lt;/b&gt;&lt;br&gt;ctg12 25&lt;br&gt;Location: 34458 - 35472" locus_tag="ctg12_25" class="clusterblast-orf" id="dummy-1_q23_0_all"  />
<polygon points="520,35 525,30 532,30 532,40 525,40 520,35 " style="fill:#d815a7; stroke-width:1; stroke:black; " description="&lt;b&gt;ctg12_26&lt;/b&gt;&lt;br&gt;ctg12 26&lt;br&gt;Location: 35547 - 36372" locus_tag="ctg12_26" class="clusterblast-orf" id="dummy-1_q24_0_all"  />
<polygon points="534,35 539,30 543,30 543,40 539,40 534,35 " style="fill:#d8c515; stroke-width:1; stroke:black; " description="&lt;b&gt;ctg12_27&lt;/b&gt;&lt;br&gt;ctg12 27&lt;br&gt;Location: 36465 - 37092" locus_tag="ctg12_27" class="clusterblast-orf" id="dummy-1_q25_0_all"  />
<polygon points="546,40 567,40 572,35 567,30 546,30 546,40 " style="fill:#15d863; stroke-width:1; stroke:black; " description="&lt;b&gt;ctg12_28&lt;/b&gt;&lt;br&gt;ctg12 28&lt;br&gt;Location: 37268 - 39071" locus_tag="ctg12_28" class="clusterblast-orf" id="dummy-1_q26_0_all"  />
<polygon points="573,40 580,40 585,35 580,30 573,30 573,40 " style="fill:#1529d8; stroke-width:1; stroke:black; " description="&lt;b&gt;ctg12_29&lt;/b&gt;&lt;br&gt;ctg12 29&lt;br&gt;Location: 39083 - 39953" locus_tag="ctg12_29" class="clusterblast-orf" id="dummy-1_q27_0_all"  />
<polygon points="586,40 604,40 609,35 604,30 586,30 586,40 " style="fill:#d8158a; stroke-width:1; stroke:black; " description="&lt;b&gt;ctg12_30&lt;/b&gt;&lt;br&gt;ctg12 30&lt;br&gt;Location: 39956 - 41573" locus_tag="ctg12_30" class="clusterblast-orf" id="dummy-1_q28_0_all"  />
<polygon points="610,40 622,40 627,35 622,30 610,30 610,40 " style="fill:#ced815; stroke-width:1; stroke:black; " description="&lt;b&gt;ctg12_31&lt;/b&gt;&lt;br&gt;ctg12 31&lt;br&gt;Location: 41598 - 42756" locus_tag="ctg12_31" class="clusterblast-orf" id="dummy-1_q29_0_all"  />
<polygon points="627,40 634,40 639,35 634,30 627,30 627,40 " style="fill:#15d880; stroke-width:1; stroke:black; " description="&lt;b&gt;ctg12_32&lt;/b&gt;&lt;br&gt;ctg12 32&lt;br&gt;Location: 42752 - 43550" locus_tag="ctg12_32" class="clusterblast-orf" id="dummy-1_q30_0_all"  />
<polygon points="641,40 665,40 670,35 665,30 641,30 641,40 " style="fill:#1f15d8; stroke-width:1; stroke:black; " description="&lt;b&gt;ctg12_33&lt;/b&gt;&lt;br&gt;ctg12 33&lt;br&gt;Location: 43702 - 45664" locus_tag="ctg12_33" class="clusterblast-orf" id="dummy-1_q31_0_all"  />
<polygon points="671,40 674,40 679,35 674,30 671,30 671,40 " style="fill:#d8156d; stroke-width:1; stroke:black; " description="&lt;b&gt;ctg12_34&lt;/b&gt;&lt;br&gt;ctg12 34&lt;br&gt;Location: 45722 - 46265" locus_tag="ctg12_34" class="clusterblast-orf" id="dummy-1_q32_0_all"  />
<polygon points="680,40 684,35 680,30 680,40 " style="fill:#b1d815; stroke-width:1; stroke:black; " description="&lt;b&gt;ctg12_35&lt;/b&gt;&lt;br&gt;ctg12 35&lt;br&gt;Location: 46326 - 46611" locus_tag="ctg12_35" class="clusterblast-orf" id="dummy-1_q33_0_all"  />
<polygon points="685,35 690,30 697,30 697,40 690,40 685,35 " style="fill:#15d89e; stroke-width:1; stroke:black; " description="&lt;b&gt;ctg12_36&lt;/b&gt;&lt;br&gt;ctg12 36&lt;br&gt;Location: 46684 - 47491" locus_tag="ctg12_36" class="clusterblast-orf" id="dummy-1_q34_0_all"  />
<polygon points="699,35 704,30 712,30 712,40 704,40 699,35 " style="fill:#3c15d8; stroke-width:1; stroke:black; " description="&lt;b&gt;ctg12_37&lt;/b&gt;&lt;br&gt;ctg12 37&lt;br&gt;Location: 47581 - 48517" locus_tag="ctg12_37" class="clusterblast-orf" id="dummy-1_q35_0_all"  />
<polygon points="719,40 721,40 726,35 721,30 719,30 719,40 " style="fill:#d81550; stroke-width:1; stroke:black; " description="&lt;b&gt;ctg12_38&lt;/b&gt;&lt;br&gt;ctg12 38&lt;br&gt;Location: 48961 - 49429" locus_tag="ctg12_38" class="clusterblast-orf" id="dummy-1_q36_0_all"  />
<polygon points="733,40 742,40 747,35 742,30 733,30 733,40 " style="fill:#94d815; stroke-width:1; stroke:black; " description="&lt;b&gt;ctg12_39&lt;/b&gt;&lt;br&gt;ctg12 39&lt;br&gt;Location: 49933 - 50827" locus_tag="ctg12_39" class="clusterblast-orf" id="dummy-1_q37_0_all"  />
<polygon points="747,40 751,40 756,35 751,30 747,30 747,40 " style="fill:#15d8bb; stroke-width:1; stroke:black; " description="&lt;b&gt;ctg12_40&lt;/b&gt;&lt;br&gt;ctg12 40&lt;br&gt;Location: 50874 - 51483" locus_tag="ctg12_40" class="clusterblast-orf" id="dummy-1_q38_0_all"  />
<polygon points="756,35 761,30 770,30 770,40 761,40 756,35 " style="fill:#5915d8; stroke-width:1; stroke:black; " description="&lt;b&gt;ctg12_41&lt;/b&gt;&lt;br&gt;ctg12 41&lt;br&gt;Location: 51466 - 52384" locus_tag="ctg12_41" class="clusterblast-orf" id="dummy-1_q39_0_all"  />
<polygon points="776,40 779,35 776,30 776,40 " style="fill:#d81532; stroke-width:1; stroke:black; " description="&lt;b&gt;ctg12_42&lt;/b&gt;&lt;br&gt;ctg12 42&lt;br&gt;Location: 52823 - 53018" locus_tag="ctg12_42" class="clusterblast-orf" id="dummy-1_q40_0_all"  />
</g>
<g label="NZ_VIUJ01000010" description="NZ_VIUJ01000010 (12917-65901): Pseudomonas sp. SJZ077 Ga0314243 110, whole ge... (97% of genes show similarity), NRPS" class="clusterblast-cluster"  >
<text x="5" y="70" class="clusterblast-acc"  >
<a xlink:href="https://antismash-db.secondarymetabolites.org/area.html?record=NZ_VIUJ01000010&amp;start=12917&amp;end=65901" target="_blank">NZ_VIUJ01000010 (12917-65901)</a>: Pseudomonas sp. SJZ077 Ga0314243 110, whole ge... (97% of genes show similarity), NRPS</text>
<line x1="10" y1="85" x2="778.0" y2="85" style="stroke-width:1; stroke:grey; "  />
</g>
<g id="a1_000"  >
<polygon points="0,90 9,90 14,85 9,80 0,80 0,90 " style="fill:white; stroke-width:1; stroke:black; " description="&lt;b&gt;FBY01_RS16235&lt;/b&gt;&lt;br&gt;LysR family transcriptional regulator&lt;br&gt;Location: 12933 - 13883" locus_tag="FBY01_RS16235" class="clusterblast-orf" id="dummy-1_h1_2_0"  />
</g>
<g id="a1_001"  >
<polygon points="15,85 20,80 24,80 24,90 20,90 15,85 " style="fill:#d81515; stroke-width:1; stroke:black; " description="&lt;b&gt;FBY01_RS16240&lt;/b&gt;&lt;br&gt;3-isopropylmalate dehydratase small subunit&lt;br&gt;Location: 13980 - 14594&lt;br&gt;&lt;br&gt;&lt;b&gt;BlastP hit with ctg12_2&lt;/b&gt;&lt;br&gt;Percentage identity: 57&lt;br&gt;Percentage coverage: 99&lt;br&gt;BLAST bit score: 87&lt;br&gt;E-value: 6.92e-21" locus_tag="FBY01_RS16240" class="clusterblast-orf" id="dummy-1_h1_2_1"  />
</g>
<g id="a1_002"  >
<polygon points="24,85 29,80 45,80 45,90 29,90 24,85 " style="fill:#77d815; stroke-width:1; stroke:black; " description="&lt;b&gt;FBY01_RS16245&lt;/b&gt;&lt;br&gt;3-isopropylmalate dehydratase large subunit&lt;br&gt;Location: 14591 - 16012&lt;br&gt;&lt;br&gt;&lt;b&gt;BlastP hit with ctg12_3&lt;/b&gt;&lt;br&gt;Percentage identity: 92&lt;br&gt;Percentage coverage: 100&lt;br&gt;BLAST bit score: 869&lt;br&gt;E-value: 0.0" locus_tag="FBY01_RS16245" class="clusterblast-orf" id="dummy-1_h1_2_2"  />
</g>
<g id="a1_003"  >
<polygon points="51,90 64,90 69,85 64,80 51,80 51,90 " style="fill:#15d8d8; stroke-width:1; stroke:black; " description="&lt;b&gt;FBY01_RS16250&lt;/b&gt;&lt;br&gt;PepSY domain-containing protein&lt;br&gt;Location: 16417 - 17610&lt;br&gt;&lt;br&gt;&lt;b&gt;BlastP hit with ctg12_4&lt;/b&gt;&lt;br&gt;Percentage identity: 86&lt;br&gt;Percentage coverage: 96&lt;br&gt;BLAST bit score: 682&lt;br&gt;E-value: 1.46e-247" locus_tag="FBY01_RS16250" class="clusterblast-orf" id="dummy-1_h1_2_3"  />
</g>
<g id="a1_004"  >
<polygon points="69,90 72,90 77,85 72,80 69,80 69,90 " style="fill:#7715d8; stroke-width:1; stroke:black; " description="&lt;b&gt;FBY01_RS16255&lt;/b&gt;&lt;br&gt;hypothetical protein&lt;br&gt;Location: 17607 - 18149&lt;br&gt;&lt;br&gt;&lt;b&gt;BlastP hit with ctg12_5&lt;/b&gt;&lt;br&gt;Percentage identity: 87&lt;br&gt;Percentage coverage: 96&lt;br&gt;BLAST bit score: 328&lt;br&gt;E-value: 7.7e-115" locus_tag="FBY01_RS16255" class="clusterblast-orf" id="dummy-1_h1_2_4"  />
</g>
<g id="a1_005"  >
<polygon points="77,90 77,90 82,85 77,80 77,80 77,90 " style="fill:#d83215; stroke-width:1; stroke:black; " description="&lt;b&gt;FBY01_RS16260&lt;/b&gt;&lt;br&gt;hypothetical protein&lt;br&gt;Location: 18146 - 18469&lt;br&gt;&lt;br&gt;&lt;b&gt;BlastP hit with ctg12_6&lt;/b&gt;&lt;br&gt;Percentage identity: 93&lt;br&gt;Percentage coverage: 95&lt;br&gt;BLAST bit score: 201&lt;br&gt;E-value: 5.82e-67" locus_tag="FBY01_RS16260" class="clusterblast-orf" id="dummy-1_h1_2_5"  />
</g>
<g id="a1_006"  >
<polygon points="82,90 85,90 90,85 85,80 82,80 82,90 " style="fill:#59d815; stroke-width:1; stroke:black; " description="&lt;b&gt;FBY01_RS16265&lt;/b&gt;&lt;br&gt;hypothetical protein&lt;br&gt;Location: 18466 - 19038&lt;br&gt;&lt;br&gt;&lt;b&gt;BlastP hit with ctg12_7&lt;/b&gt;&lt;br&gt;Percentage identity: 84&lt;br&gt;Percentage coverage: 100&lt;br&gt;BLAST bit score: 311&lt;br&gt;E-value: 1.23e-107" locus_tag="FBY01_RS16265" class="clusterblast-orf" id="dummy-1_h1_2_6"  />
</g>
<g id="a1_007"  >
<polygon points="91,90 99,90 104,85 99,80 91,80 91,90 " style="fill:#15bbd8; stroke-width:1; stroke:black; " description="&lt;b&gt;FBY01_RS16270&lt;/b&gt;&lt;br&gt;zinc ABC transporter substrate-binding protein&lt;br&gt;Location: 19074 - 20000&lt;br&gt;&lt;br&gt;&lt;b&gt;BlastP hit with ctg12_8&lt;/b&gt;&lt;br&gt;Percentage identity: 92&lt;br&gt;Percentage coverage: 100&lt;br&gt;BLAST bit score: 561&lt;br&gt;E-value: 1.07e-202" locus_tag="FBY01_RS16270" class="clusterblast-orf" id="dummy-1_h1_2_7"  />
</g>
<g id="a1_008"  >
<polygon points="106,90 112,90 117,85 112,80 106,80 106,90 " style="fill:#9415d8; stroke-width:1; stroke:black; " description="&lt;b&gt;FBY01_RS16275&lt;/b&gt;&lt;br&gt;ATP-binding cassette domain-containing protein&lt;br&gt;Location: 20117 - 20854&lt;br&gt;&lt;br&gt;&lt;b&gt;BlastP hit with ctg12_9&lt;/b&gt;&lt;br&gt;Percentage identity: 92&lt;br&gt;Percentage coverage: 85&lt;br&gt;BLAST bit score: 450&lt;br&gt;E-value: 3.11e-160" locus_tag="FBY01_RS16275" class="clusterblast-orf" id="dummy-1_h1_2_8"  />
</g>
<g id="a1_009"  >
<polygon points="117,90 125,90 130,85 125,80 117,80 117,90 " style="fill:#d85015; stroke-width:1; stroke:black; " description="&lt;b&gt;FBY01_RS16280&lt;/b&gt;&lt;br&gt;metal ABC transporter permease&lt;br&gt;Location: 20854 - 21753&lt;br&gt;&lt;br&gt;&lt;b&gt;BlastP hit with ctg12_10&lt;/b&gt;&lt;br&gt;Percentage identity: 99&lt;br&gt;Percentage coverage: 100&lt;br&gt;BLAST bit score: 529&lt;br&gt;E-value: 1.86e-190" locus_tag="FBY01_RS16280" class="clusterblast-orf" id="dummy-1_h1_2_9"  />
</g>
<g id="a1_0010"  >
<polygon points="130,90 139,90 144,85 139,80 130,80 130,90 " style="fill:#3cd815; stroke-width:1; stroke:black; " description="&lt;b&gt;FBY01_RS16285&lt;/b&gt;&lt;br&gt;zinc ABC transporter substrate-binding protein&lt;br&gt;Location: 21754 - 22653&lt;br&gt;&lt;br&gt;&lt;b&gt;BlastP hit with ctg12_11&lt;/b&gt;&lt;br&gt;Percentage identity: 83&lt;br&gt;Percentage coverage: 100&lt;br&gt;BLAST bit score: 502&lt;br&gt;E-value: 2.23e-179" locus_tag="FBY01_RS16285" class="clusterblast-orf" id="dummy-1_h1_2_10"  />
</g>
<g id="a1_0011"  >
<polygon points="146,85 150,80 150,90 146,85 " style="fill:#159ed8; stroke-width:1; stroke:black; " description="&lt;b&gt;FBY01_RS16290&lt;/b&gt;&lt;br&gt;MbtH family protein&lt;br&gt;Location: 22841 - 23068&lt;br&gt;&lt;br&gt;&lt;b&gt;BlastP hit with ctg12_12&lt;/b&gt;&lt;br&gt;Percentage identity: 95&lt;br&gt;Percentage coverage: 100&lt;br&gt;BLAST bit score: 151&lt;br&gt;E-value: 3.36e-48" locus_tag="FBY01_RS16290" class="clusterblast-orf" id="dummy-1_h1_2_11"  />
</g>
<g id="a1_0012"  >
<polygon points="151,85 156,80 172,80 172,90 156,90 151,85 " style="fill:#b115d8; stroke-width:1; stroke:black; " description="&lt;b&gt;FBY01_RS16295&lt;/b&gt;&lt;br&gt;aspartate aminotransferase family protein&lt;br&gt;Location: 23150 - 24562&lt;br&gt;&lt;br&gt;&lt;b&gt;BlastP hit with ctg12_13&lt;/b&gt;&lt;br&gt;Percentage identity: 94&lt;br&gt;Percentage coverage: 100&lt;br&gt;BLAST bit score: 874&lt;br&gt;E-value: 0.0" locus_tag="FBY01_RS16295" class="clusterblast-orf" id="dummy-1_h1_2_12"  />
</g>
<g id="a1_0013"  >
<polygon points="173,85 178,80 180,80 180,90 178,90 173,85 " style="fill:#d86d15; stroke-width:1; stroke:black; " description="&lt;b&gt;FBY01_RS16300&lt;/b&gt;&lt;br&gt;GNAT family N-acetyltransferase&lt;br&gt;Location: 24640 - 25125&lt;br&gt;&lt;br&gt;&lt;b&gt;BlastP hit with ctg12_14&lt;/b&gt;&lt;br&gt;Percentage identity: 79&lt;br&gt;Percentage coverage: 98&lt;br&gt;BLAST bit score: 257&lt;br&gt;E-value: 2.93e-87" locus_tag="FBY01_RS16300" class="clusterblast-orf" id="dummy-1_h1_2_13"  />
</g>
<g id="a1_0014"  >
<polygon points="183,85 188,80 203,80 203,90 188,90 183,85 " style="fill:#1fd815; stroke-width:1; stroke:black; " description="&lt;b&gt;FBY01_RS16305&lt;/b&gt;&lt;br&gt;sensor histidine kinase N-terminal domain-containing protein&lt;br&gt;Location: 25344 - 26669&lt;br&gt;&lt;br&gt;&lt;b&gt;BlastP hit with ctg12_15&lt;/b&gt;&lt;br&gt;Percentage identity: 93&lt;br&gt;Percentage coverage: 100&lt;br&gt;BLAST bit score: 804&lt;br&gt;E-value: 2.5e-294" locus_tag="FBY01_RS16305" class="clusterblast-orf" id="dummy-1_h1_2_14"  />
</g>
<g id="a1_0015"  >
<polygon points="203,85 208,80 213,80 213,90 208,90 203,85 " style="fill:#1580d8; stroke-width:1; stroke:black; " description="&lt;b&gt;FBY01_RS16310&lt;/b&gt;&lt;br&gt;response regulator&lt;br&gt;Location: 26666 - 27349&lt;br&gt;&lt;br&gt;&lt;b&gt;BlastP hit with ctg12_16&lt;/b&gt;&lt;br&gt;Percentage identity: 95&lt;br&gt;Percentage coverage: 100&lt;br&gt;BLAST bit score: 414&lt;br&gt;E-value: 3.79e-147" locus_tag="FBY01_RS16310" class="clusterblast-orf" id="dummy-1_h1_2_15"  />
</g>
<g id="a1_0016"  >
<polygon points="217,90 223,90 228,85 223,80 217,80 217,90 " style="fill:#ce15d8; stroke-width:1; stroke:black; " description="&lt;b&gt;FBY01_RS16315&lt;/b&gt;&lt;br&gt;hypothetical protein&lt;br&gt;Location: 27641 - 28339&lt;br&gt;&lt;br&gt;&lt;b&gt;BlastP hit with ctg12_17&lt;/b&gt;&lt;br&gt;Percentage identity: 48&lt;br&gt;Percentage coverage: 101&lt;br&gt;BLAST bit score: 248&lt;br&gt;E-value: 3.84e-81" locus_tag="FBY01_RS16315" class="clusterblast-orf" id="dummy-1_h1_2_16"  />
</g>
<g id="a1_0017"  >
<polygon points="229,90 250,90 255,85 250,80 229,80 229,90 " style="fill:#d88a15; stroke-width:1; stroke:black; " description="&lt;b&gt;FBY01_RS16320&lt;/b&gt;&lt;br&gt;protein-disulfide reductase DsbD&lt;br&gt;Location: 28422 - 30158&lt;br&gt;&lt;br&gt;&lt;b&gt;BlastP hit with ctg12_18&lt;/b&gt;&lt;br&gt;Percentage identity: 88&lt;br&gt;Percentage coverage: 100&lt;br&gt;BLAST bit score: 1009&lt;br&gt;E-value: 0.0" locus_tag="FBY01_RS16320" class="clusterblast-orf" id="dummy-1_h1_2_17"  />
</g>
<g id="a1_0018"  >
<polygon points="255,90 263,90 268,85 263,80 255,80 255,90 " style="fill:#15d829; stroke-width:1; stroke:black; " description="&lt;b&gt;FBY01_RS16325&lt;/b&gt;&lt;br&gt;TlpA family protein disulfide reductase&lt;br&gt;Location: 30158 - 31024&lt;br&gt;&lt;br&gt;&lt;b&gt;BlastP hit with ctg12_19&lt;/b&gt;&lt;br&gt;Percentage identity: 91&lt;br&gt;Percentage coverage: 100&lt;br&gt;BLAST bit score: 528&lt;br&gt;E-value: 2.29e-190" locus_tag="FBY01_RS16325" class="clusterblast-orf" id="dummy-1_h1_2_18"  />
</g>
<g id="a1_0019"  >
<polygon points="267,90 274,90 279,85 274,80 267,80 267,90 " style="fill:#1563d8; stroke-width:1; stroke:black; " description="&lt;b&gt;FBY01_RS16330&lt;/b&gt;&lt;br&gt;thiol:disulfide interchange protein DsbG&lt;br&gt;Location: 31000 - 31770&lt;br&gt;&lt;br&gt;&lt;b&gt;BlastP hit with ctg12_20&lt;/b&gt;&lt;br&gt;Percentage identity: 88&lt;br&gt;Percentage coverage: 100&lt;br&gt;BLAST bit score: 449&lt;br&gt;E-value: 4.68e-160" locus_tag="FBY01_RS16330" class="clusterblast-orf" id="dummy-1_h1_2_19"  />
</g>
<g id="a1_0020"  >
<polygon points="280,85 285,80 292,80 292,90 285,90 280,85 " style="fill:#d815c5; stroke-width:1; stroke:black; " description="&lt;b&gt;FBY01_RS16335&lt;/b&gt;&lt;br&gt;alpha/beta fold hydrolase&lt;br&gt;Location: 31887 - 32699&lt;br&gt;&lt;br&gt;&lt;b&gt;BlastP hit with ctg12_21&lt;/b&gt;&lt;br&gt;Percentage identity: 91&lt;br&gt;Percentage coverage: 100&lt;br&gt;BLAST bit score: 501&lt;br&gt;E-value: 2.67e-180" locus_tag="FBY01_RS16335" class="clusterblast-orf" id="dummy-1_h1_2_20"  />
</g>
<g id="a1_0021"  >
<polygon points="296,85 301,80 488,80 488,90 301,90 296,85 " style="fill:#d8a715; stroke-width:1; stroke:black; " description="&lt;b&gt;FBY01_RS16340&lt;/b&gt;&lt;br&gt;non-ribosomal peptide synthase/polyketide synthase&lt;br&gt;Location: 32918 - 45901&lt;br&gt;&lt;br&gt;&lt;b&gt;BlastP hit with ctg12_23&lt;/b&gt;&lt;br&gt;Percentage identity: 92&lt;br&gt;Percentage coverage: 100&lt;br&gt;BLAST bit score: 7968&lt;br&gt;E-value: 0.0" locus_tag="FBY01_RS16340" class="clusterblast-orf" id="dummy-1_h1_2_21"  />
</g>
<g id="a1_0022"  >
<polygon points="494,90 497,90 502,85 497,80 494,80 494,90 " style="fill:#15d846; stroke-width:1; stroke:black; " description="&lt;b&gt;FBY01_RS16345&lt;/b&gt;&lt;br&gt;RNA polymerase factor sigma-70&lt;br&gt;Location: 46281 - 46829&lt;br&gt;&lt;br&gt;&lt;b&gt;BlastP hit with ctg12_24&lt;/b&gt;&lt;br&gt;Percentage identity: 98&lt;br&gt;Percentage coverage: 100&lt;br&gt;BLAST bit score: 350&lt;br&gt;E-value: 1.83e-123" locus_tag="FBY01_RS16345" class="clusterblast-orf" id="dummy-1_h1_2_22"  />
</g>
<g id="a1_0023"  >
<polygon points="504,85 509,80 519,80 519,90 509,90 504,85 " style="fill:#1546d8; stroke-width:1; stroke:black; " description="&lt;b&gt;FBY01_RS16350&lt;/b&gt;&lt;br&gt;GNAT family N-acetyltransferase&lt;br&gt;Location: 46986 - 47999&lt;br&gt;&lt;br&gt;&lt;b&gt;BlastP hit with ctg12_25&lt;/b&gt;&lt;br&gt;Percentage identity: 82&lt;br&gt;Percentage coverage: 100&lt;br&gt;BLAST bit score: 592&lt;br&gt;E-value: 3.55e-214" locus_tag="FBY01_RS16350" class="clusterblast-orf" id="dummy-1_h1_2_23"  />
</g>
<g id="a1_0024"  >
<polygon points="521,85 526,80 532,80 532,90 526,90 521,85 " style="fill:#d815a7; stroke-width:1; stroke:black; " description="&lt;b&gt;FBY01_RS16355&lt;/b&gt;&lt;br&gt;transporter substrate-binding domain-containing protein&lt;br&gt;Location: 48100 - 48894&lt;br&gt;&lt;br&gt;&lt;b&gt;BlastP hit with ctg12_26&lt;/b&gt;&lt;br&gt;Percentage identity: 85&lt;br&gt;Percentage coverage: 96&lt;br&gt;BLAST bit score: 456&lt;br&gt;E-value: 1.2e-162" locus_tag="FBY01_RS16355" class="clusterblast-orf" id="dummy-1_h1_2_24"  />
</g>
<g id="a1_0025"  >
<polygon points="534,85 539,80 543,80 543,90 539,90 534,85 " style="fill:#d8c515; stroke-width:1; stroke:black; " description="&lt;b&gt;FBY01_RS16360&lt;/b&gt;&lt;br&gt;TetR family transcriptional regulator&lt;br&gt;Location: 48990 - 49586&lt;br&gt;&lt;br&gt;&lt;b&gt;BlastP hit with ctg12_27&lt;/b&gt;&lt;br&gt;Percentage identity: 95&lt;br&gt;Percentage coverage: 95&lt;br&gt;BLAST bit score: 369&lt;br&gt;E-value: 4.44e-130" locus_tag="FBY01_RS16360" class="clusterblast-orf" id="dummy-1_h1_2_25"  />
</g>
<g id="a1_0026"  >
<polygon points="546,90 567,90 572,85 567,80 546,80 546,90 " style="fill:#15d863; stroke-width:1; stroke:black; " description="&lt;b&gt;FBY01_RS16365&lt;/b&gt;&lt;br&gt;DUF1446 domain-containing protein&lt;br&gt;Location: 49792 - 51594&lt;br&gt;&lt;br&gt;&lt;b&gt;BlastP hit with ctg12_28&lt;/b&gt;&lt;br&gt;Percentage identity: 90&lt;br&gt;Percentage coverage: 100&lt;br&gt;BLAST bit score: 1094&lt;br&gt;E-value: 0.0" locus_tag="FBY01_RS16365" class="clusterblast-orf" id="dummy-1_h1_2_26"  />
</g>
<g id="a1_0027"  >
<polygon points="573,90 581,90 586,85 581,80 573,80 573,90 " style="fill:#1529d8; stroke-width:1; stroke:black; " description="&lt;b&gt;FBY01_RS16370&lt;/b&gt;&lt;br&gt;SDR family oxidoreductase&lt;br&gt;Location: 51607 - 52476&lt;br&gt;&lt;br&gt;&lt;b&gt;BlastP hit with ctg12_29&lt;/b&gt;&lt;br&gt;Percentage identity: 93&lt;br&gt;Percentage coverage: 100&lt;br&gt;BLAST bit score: 548&lt;br&gt;E-value: 2.07e-198" locus_tag="FBY01_RS16370" class="clusterblast-orf" id="dummy-1_h1_2_27"  />
</g>
<g id="a1_0028"  >
<polygon points="586,90 605,90 610,85 605,80 586,80 586,90 " style="fill:#d8158a; stroke-width:1; stroke:black; " description="&lt;b&gt;FBY01_RS16375&lt;/b&gt;&lt;br&gt;acyl-CoA carboxylase subunit beta&lt;br&gt;Location: 52480 - 54096&lt;br&gt;&lt;br&gt;&lt;b&gt;BlastP hit with ctg12_30&lt;/b&gt;&lt;br&gt;Percentage identity: 95&lt;br&gt;Percentage coverage: 100&lt;br&gt;BLAST bit score: 1004&lt;br&gt;E-value: 0.0" locus_tag="FBY01_RS16375" class="clusterblast-orf" id="dummy-1_h1_2_28"  />
</g>
<g id="a1_0029"  >
<polygon points="610,90 622,90 627,85 622,80 610,80 610,90 " style="fill:#ced815; stroke-width:1; stroke:black; " description="&lt;b&gt;FBY01_RS16380&lt;/b&gt;&lt;br&gt;acyl-CoA dehydrogenase family protein&lt;br&gt;Location: 54123 - 55280&lt;br&gt;&lt;br&gt;&lt;b&gt;BlastP hit with ctg12_31&lt;/b&gt;&lt;br&gt;Percentage identity: 98&lt;br&gt;Percentage coverage: 100&lt;br&gt;BLAST bit score: 771&lt;br&gt;E-value: 2.01e-283" locus_tag="FBY01_RS16380" class="clusterblast-orf" id="dummy-1_h1_2_29"  />
</g>
<g id="a1_0030"  >
<polygon points="627,90 634,90 639,85 634,80 627,80 627,90 " style="fill:#15d880; stroke-width:1; stroke:black; " description="&lt;b&gt;FBY01_RS16385&lt;/b&gt;&lt;br&gt;enoyl-CoA hydratase/isomerase family protein&lt;br&gt;Location: 55277 - 56074&lt;br&gt;&lt;br&gt;&lt;b&gt;BlastP hit with ctg12_32&lt;/b&gt;&lt;br&gt;Percentage identity: 91&lt;br&gt;Percentage coverage: 100&lt;br&gt;BLAST bit score: 471&lt;br&gt;E-value: 1.41e-168" locus_tag="FBY01_RS16385" class="clusterblast-orf" id="dummy-1_h1_2_30"  />
</g>
<g id="a1_0031"  >
<polygon points="641,90 665,90 670,85 665,80 641,80 641,90 " style="fill:#1f15d8; stroke-width:1; stroke:black; " description="&lt;b&gt;FBY01_RS16395&lt;/b&gt;&lt;br&gt;acetyl-CoA carboxylase biotin carboxylase subunit&lt;br&gt;Location: 56208 - 58169&lt;br&gt;&lt;br&gt;&lt;b&gt;BlastP hit with ctg12_33&lt;/b&gt;&lt;br&gt;Percentage identity: 87&lt;br&gt;Percentage coverage: 94&lt;br&gt;BLAST bit score: 1037&lt;br&gt;E-value: 0.0" locus_tag="FBY01_RS16395" class="clusterblast-orf" id="dummy-1_h1_2_31"  />
</g>
<g id="a1_0032"  >
<polygon points="671,90 674,90 679,85 674,80 671,80 671,90 " style="fill:#d8156d; stroke-width:1; stroke:black; " description="&lt;b&gt;FBY01_RS16400&lt;/b&gt;&lt;br&gt;3'-5' exoribonuclease&lt;br&gt;Location: 58241 - 58789&lt;br&gt;&lt;br&gt;&lt;b&gt;BlastP hit with ctg12_34&lt;/b&gt;&lt;br&gt;Percentage identity: 84&lt;br&gt;Percentage coverage: 99&lt;br&gt;BLAST bit score: 310&lt;br&gt;E-value: 8.49e-108" locus_tag="FBY01_RS16400" class="clusterblast-orf" id="dummy-1_h1_2_32"  />
</g>
<g id="a1_0033"  >
<polygon points="680,90 684,85 680,80 680,90 " style="fill:#b1d815; stroke-width:1; stroke:black; " description="&lt;b&gt;FBY01_RS16405&lt;/b&gt;&lt;br&gt;pyrimidine/purine nucleoside phosphorylase&lt;br&gt;Location: 58851 - 59135&lt;br&gt;&lt;br&gt;&lt;b&gt;BlastP hit with ctg12_35&lt;/b&gt;&lt;br&gt;Percentage identity: 97&lt;br&gt;Percentage coverage: 100&lt;br&gt;BLAST bit score: 186&lt;br&gt;E-value: 1.7e-61" locus_tag="FBY01_RS16405" class="clusterblast-orf" id="dummy-1_h1_2_33"  />
</g>
<g id="a1_0034"  >
<polygon points="685,85 690,80 697,80 697,90 690,90 685,85 " style="fill:#15d89e; stroke-width:1; stroke:black; " description="&lt;b&gt;FBY01_RS16410&lt;/b&gt;&lt;br&gt;MOSC domain-containing protein&lt;br&gt;Location: 59207 - 60013&lt;br&gt;&lt;br&gt;&lt;b&gt;BlastP hit with ctg12_36&lt;/b&gt;&lt;br&gt;Percentage identity: 85&lt;br&gt;Percentage coverage: 100&lt;br&gt;BLAST bit score: 462&lt;br&gt;E-value: 5.65e-165" locus_tag="FBY01_RS16410" class="clusterblast-orf" id="dummy-1_h1_2_34"  />
</g>
<g id="a1_0035"  >
<polygon points="700,85 705,80 714,80 714,90 705,90 700,85 " style="fill:#3c15d8; stroke-width:1; stroke:black; " description="&lt;b&gt;FBY01_RS16415&lt;/b&gt;&lt;br&gt;chemotaxis protein CheV&lt;br&gt;Location: 60213 - 61148&lt;br&gt;&lt;br&gt;&lt;b&gt;BlastP hit with ctg12_37&lt;/b&gt;&lt;br&gt;Percentage identity: 98&lt;br&gt;Percentage coverage: 100&lt;br&gt;BLAST bit score: 598&lt;br&gt;E-value: 1.74e-217" locus_tag="FBY01_RS16415" class="clusterblast-orf" id="dummy-1_h1_2_35"  />
</g>
<g id="a1_0036"  >
<polygon points="721,90 723,90 728,85 723,80 721,80 721,90 " style="fill:#d81550; stroke-width:1; stroke:black; " description="&lt;b&gt;FBY01_RS16420&lt;/b&gt;&lt;br&gt;hypothetical protein&lt;br&gt;Location: 61611 - 62081&lt;br&gt;&lt;br&gt;&lt;b&gt;BlastP hit with ctg12_38&lt;/b&gt;&lt;br&gt;Percentage identity: 72&lt;br&gt;Percentage coverage: 101&lt;br&gt;BLAST bit score: 215&lt;br&gt;E-value: 7.83e-71" locus_tag="FBY01_RS16420" class="clusterblast-orf" id="dummy-1_h1_2_36"  />
</g>
<g id="a1_0037"  >
<polygon points="734,90 742,90 747,85 742,80 734,80 734,90 " style="fill:#94d815; stroke-width:1; stroke:black; " description="&lt;b&gt;FBY01_RS16425&lt;/b&gt;&lt;br&gt;sensor histidine kinase&lt;br&gt;Location: 62481 - 63374&lt;br&gt;&lt;br&gt;&lt;b&gt;BlastP hit with ctg12_39&lt;/b&gt;&lt;br&gt;Percentage identity: 86&lt;br&gt;Percentage coverage: 100&lt;br&gt;BLAST bit score: 489&lt;br&gt;E-value: 7.86e-175" locus_tag="FBY01_RS16425" class="clusterblast-orf" id="dummy-1_h1_2_37"  />
</g>
<g id="a1_0038"  >
<polygon points="747,90 752,90 757,85 752,80 747,80 747,90 " style="fill:#15d8bb; stroke-width:1; stroke:black; " description="&lt;b&gt;FBY01_RS16430&lt;/b&gt;&lt;br&gt;response regulator transcription factor&lt;br&gt;Location: 63371 - 64030&lt;br&gt;&lt;br&gt;&lt;b&gt;BlastP hit with ctg12_40&lt;/b&gt;&lt;br&gt;Percentage identity: 95&lt;br&gt;Percentage coverage: 100&lt;br&gt;BLAST bit score: 362&lt;br&gt;E-value: 2.01e-127" locus_tag="FBY01_RS16430" class="clusterblast-orf" id="dummy-1_h1_2_38"  />
</g>
<g id="a1_0039"  >
<polygon points="757,85 762,80 770,80 770,90 762,90 757,85 " style="fill:#5915d8; stroke-width:1; stroke:black; " description="&lt;b&gt;FBY01_RS16435&lt;/b&gt;&lt;br&gt;lipid kinase YegS&lt;br&gt;Location: 64014 - 64931&lt;br&gt;&lt;br&gt;&lt;b&gt;BlastP hit with ctg12_41&lt;/b&gt;&lt;br&gt;Percentage identity: 84&lt;br&gt;Percentage coverage: 100&lt;br&gt;BLAST bit score: 514&lt;br&gt;E-value: 2.58e-184" locus_tag="FBY01_RS16435" class="clusterblast-orf" id="dummy-1_h1_2_39"  />
</g>
<g id="a1_0040"  >
<polygon points="775,90 775,90 780,85 775,80 775,80 775,90 " style="fill:#d81532; stroke-width:1; stroke:black; " description="&lt;b&gt;FBY01_RS16440&lt;/b&gt;&lt;br&gt;hypothetical protein&lt;br&gt;Location: 65255 - 65563&lt;br&gt;&lt;br&gt;&lt;b&gt;BlastP hit with ctg12_42&lt;/b&gt;&lt;br&gt;Percentage identity: 89&lt;br&gt;Percentage coverage: 100&lt;br&gt;BLAST bit score: 117&lt;br&gt;E-value: 1.25e-34" locus_tag="FBY01_RS16440" class="clusterblast-orf" id="dummy-1_h1_2_40"  />
</g>
</svg>
