<svg xmlns="http://www.w3.org/2000/svg" xmlns:xlink="http://www.w3.org/1999/xlink" version="1.1" x="0" y="0" height="230" width="800" viewBox="0 0 800 230" preserveAspectRatio="none"  >
<g label="Query sequence" class="clusterblast-cluster"  >
<text x="5" y="20" class="clusterblast-acc"  >
Query sequence</text>
<line x1="10" y1="35" x2="778.0" y2="35" style="stroke-width:1; stroke:grey; "  />
<polygon points="0,35 4,30 4,40 0,35 " style="fill:#d81515; stroke-width:1; stroke:black; " description="&lt;b&gt;ctg12_2&lt;/b&gt;&lt;br&gt;ctg12 2&lt;br&gt;Location: 463 - 739" locus_tag="ctg12_2" class="clusterblast-orf" id="dummy-1_q0_0_all"  />
<polygon points="4,35 9,30 25,30 25,40 9,40 4,35 " style="fill:#77d815; stroke-width:1; stroke:black; " description="&lt;b&gt;ctg12_3&lt;/b&gt;&lt;br&gt;ctg12 3&lt;br&gt;Location: 735 - 2157" locus_tag="ctg12_3" class="clusterblast-orf" id="dummy-1_q1_0_all"  />
<polygon points="31,40 44,40 49,35 44,30 31,30 31,40 " style="fill:#15d8d8; stroke-width:1; stroke:black; " description="&lt;b&gt;ctg12_4&lt;/b&gt;&lt;br&gt;ctg12 4&lt;br&gt;Location: 2594 - 3806" locus_tag="ctg12_4" class="clusterblast-orf" id="dummy-1_q2_0_all"  />
<polygon points="49,40 52,40 57,35 52,30 49,30 49,40 " style="fill:#7715d8; stroke-width:1; stroke:black; " description="&lt;b&gt;ctg12_5&lt;/b&gt;&lt;br&gt;ctg12 5&lt;br&gt;Location: 3802 - 4345" locus_tag="ctg12_5" class="clusterblast-orf" id="dummy-1_q3_0_all"  />
<polygon points="57,40 57,40 62,35 57,30 57,30 57,40 " style="fill:#d83215; stroke-width:1; stroke:black; " description="&lt;b&gt;ctg12_6&lt;/b&gt;&lt;br&gt;ctg12 6&lt;br&gt;Location: 4341 - 4677" locus_tag="ctg12_6" class="clusterblast-orf" id="dummy-1_q4_0_all"  />
<polygon points="62,40 66,40 71,35 66,30 62,30 62,40 " style="fill:#59d815; stroke-width:1; stroke:black; " description="&lt;b&gt;ctg12_7&lt;/b&gt;&lt;br&gt;ctg12 7&lt;br&gt;Location: 4673 - 5249" locus_tag="ctg12_7" class="clusterblast-orf" id="dummy-1_q5_0_all"  />
<polygon points="71,40 80,40 85,35 80,30 71,30 71,40 " style="fill:#15bbd8; stroke-width:1; stroke:black; " description="&lt;b&gt;ctg12_8&lt;/b&gt;&lt;br&gt;ctg12 8&lt;br&gt;Location: 5283 - 6228" locus_tag="ctg12_8" class="clusterblast-orf" id="dummy-1_q6_0_all"  />
<polygon points="85,40 93,40 98,35 93,30 85,30 85,40 " style="fill:#9415d8; stroke-width:1; stroke:black; " description="&lt;b&gt;ctg12_9&lt;/b&gt;&lt;br&gt;ctg12 9&lt;br&gt;Location: 6224 - 7097" locus_tag="ctg12_9" class="clusterblast-orf" id="dummy-1_q7_0_all"  />
<polygon points="98,40 106,40 111,35 106,30 98,30 98,40 " style="fill:#d85015; stroke-width:1; stroke:black; " description="&lt;b&gt;ctg12_10&lt;/b&gt;&lt;br&gt;ctg12 10&lt;br&gt;Location: 7096 - 7996" locus_tag="ctg12_10" class="clusterblast-orf" id="dummy-1_q8_0_all"  />
<polygon points="111,40 121,40 126,35 121,30 111,30 111,40 " style="fill:#3cd815; stroke-width:1; stroke:black; " description="&lt;b&gt;ctg12_11&lt;/b&gt;&lt;br&gt;ctg12 11&lt;br&gt;Location: 7995 - 8967" locus_tag="ctg12_11" class="clusterblast-orf" id="dummy-1_q9_0_all"  />
<polygon points="129,35 132,30 132,40 129,35 " style="fill:#159ed8; stroke-width:1; stroke:black; " description="&lt;b&gt;ctg12_12&lt;/b&gt;&lt;br&gt;ctg12 12&lt;br&gt;Location: 9152 - 9380" locus_tag="ctg12_12" class="clusterblast-orf" id="dummy-1_q10_0_all"  />
<polygon points="133,35 138,30 154,30 154,40 138,40 133,35 " style="fill:#b115d8; stroke-width:1; stroke:black; " description="&lt;b&gt;ctg12_13&lt;/b&gt;&lt;br&gt;ctg12 13&lt;br&gt;Location: 9462 - 10875" locus_tag="ctg12_13" class="clusterblast-orf" id="dummy-1_q11_0_all"  />
<polygon points="156,35 161,30 164,30 164,40 161,40 156,35 " style="fill:#d86d15; stroke-width:1; stroke:black; " description="&lt;b&gt;ctg12_14&lt;/b&gt;&lt;br&gt;ctg12 14&lt;br&gt;Location: 11018 - 11504" locus_tag="ctg12_14" class="clusterblast-orf" id="dummy-1_q12_0_all"  />
<polygon points="166,35 171,30 185,30 185,40 171,40 166,35 " style="fill:#1fd815; stroke-width:1; stroke:black; " description="&lt;b&gt;ctg12_15&lt;/b&gt;&lt;br&gt;ctg12 15&lt;br&gt;Location: 11639 - 12965" locus_tag="ctg12_15" class="clusterblast-orf" id="dummy-1_q13_0_all"  />
<polygon points="185,35 190,30 195,30 195,40 190,40 185,35 " style="fill:#1580d8; stroke-width:1; stroke:black; " description="&lt;b&gt;ctg12_16&lt;/b&gt;&lt;br&gt;ctg12 16&lt;br&gt;Location: 12961 - 13642" locus_tag="ctg12_16" class="clusterblast-orf" id="dummy-1_q14_0_all"  />
<polygon points="201,40 207,40 212,35 207,30 201,30 201,40 " style="fill:#ce15d8; stroke-width:1; stroke:black; " description="&lt;b&gt;ctg12_17&lt;/b&gt;&lt;br&gt;ctg12 17&lt;br&gt;Location: 14060 - 14804" locus_tag="ctg12_17" class="clusterblast-orf" id="dummy-1_q15_0_all"  />
<polygon points="214,40 235,40 240,35 235,30 214,30 214,40 " style="fill:#d88a15; stroke-width:1; stroke:black; " description="&lt;b&gt;ctg12_18&lt;/b&gt;&lt;br&gt;ctg12 18&lt;br&gt;Location: 14904 - 16641" locus_tag="ctg12_18" class="clusterblast-orf" id="dummy-1_q16_0_all"  />
<polygon points="240,40 248,40 253,35 248,30 240,30 240,40 " style="fill:#15d829; stroke-width:1; stroke:black; " description="&lt;b&gt;ctg12_19&lt;/b&gt;&lt;br&gt;ctg12 19&lt;br&gt;Location: 16640 - 17507" locus_tag="ctg12_19" class="clusterblast-orf" id="dummy-1_q17_0_all"  />
<polygon points="252,40 259,40 264,35 259,30 252,30 252,40 " style="fill:#1563d8; stroke-width:1; stroke:black; " description="&lt;b&gt;ctg12_20&lt;/b&gt;&lt;br&gt;ctg12 20&lt;br&gt;Location: 17482 - 18250" locus_tag="ctg12_20" class="clusterblast-orf" id="dummy-1_q18_0_all"  />
<polygon points="265,35 270,30 277,30 277,40 270,40 265,35 " style="fill:#d815c5; stroke-width:1; stroke:black; " description="&lt;b&gt;ctg12_21&lt;/b&gt;&lt;br&gt;ctg12 21&lt;br&gt;Location: 18353 - 19166" locus_tag="ctg12_21" class="clusterblast-orf" id="dummy-1_q19_0_all"  />
<polygon points="280,40 290,40 295,35 290,30 280,30 280,40 " style="fill:white; stroke-width:1; stroke:black; " description="&lt;b&gt;ctg12_22&lt;/b&gt;&lt;br&gt;ctg12 22&lt;br&gt;Location: 19384 - 20335" locus_tag="ctg12_22" class="clusterblast-orf" id="dummy-1_q20_0_all"  />
<polygon points="296,35 301,30 488,30 488,40 301,40 296,35 " style="fill:#d8a715; stroke-width:1; stroke:black; " description="&lt;b&gt;ctg12_23&lt;/b&gt;&lt;br&gt;ctg12 23&lt;br&gt;Location: 20398 - 33382" locus_tag="ctg12_23" class="clusterblast-orf" id="dummy-1_q21_0_all"  />
<polygon points="494,40 497,40 502,35 497,30 494,30 494,40 " style="fill:#15d846; stroke-width:1; stroke:black; " description="&lt;b&gt;ctg12_24&lt;/b&gt;&lt;br&gt;ctg12 24&lt;br&gt;Location: 33754 - 34303" locus_tag="ctg12_24" class="clusterblast-orf" id="dummy-1_q22_0_all"  />
<polygon points="504,35 509,30 519,30 519,40 509,40 504,35 " style="fill:#1546d8; stroke-width:1; stroke:black; " description="&lt;b&gt;ctg12_25&lt;/b&gt;&lt;br&gt;ctg12 25&lt;br&gt;Location: 34458 - 35472" locus_tag="ctg12_25" class="clusterblast-orf" id="dummy-1_q23_0_all"  />
<polygon points="520,35 525,30 533,30 533,40 525,40 520,35 " style="fill:#d815a7; stroke-width:1; stroke:black; " description="&lt;b&gt;ctg12_26&lt;/b&gt;&lt;br&gt;ctg12 26&lt;br&gt;Location: 35547 - 36372" locus_tag="ctg12_26" class="clusterblast-orf" id="dummy-1_q24_0_all"  />
<polygon points="534,35 539,30 543,30 543,40 539,40 534,35 " style="fill:#d8c515; stroke-width:1; stroke:black; " description="&lt;b&gt;ctg12_27&lt;/b&gt;&lt;br&gt;ctg12 27&lt;br&gt;Location: 36465 - 37092" locus_tag="ctg12_27" class="clusterblast-orf" id="dummy-1_q25_0_all"  />
<polygon points="546,40 568,40 573,35 568,30 546,30 546,40 " style="fill:#15d863; stroke-width:1; stroke:black; " description="&lt;b&gt;ctg12_28&lt;/b&gt;&lt;br&gt;ctg12 28&lt;br&gt;Location: 37268 - 39071" locus_tag="ctg12_28" class="clusterblast-orf" id="dummy-1_q26_0_all"  />
<polygon points="573,40 581,40 586,35 581,30 573,30 573,40 " style="fill:#1529d8; stroke-width:1; stroke:black; " description="&lt;b&gt;ctg12_29&lt;/b&gt;&lt;br&gt;ctg12 29&lt;br&gt;Location: 39083 - 39953" locus_tag="ctg12_29" class="clusterblast-orf" id="dummy-1_q27_0_all"  />
<polygon points="586,40 605,40 610,35 605,30 586,30 586,40 " style="fill:#d8158a; stroke-width:1; stroke:black; " description="&lt;b&gt;ctg12_30&lt;/b&gt;&lt;br&gt;ctg12 30&lt;br&gt;Location: 39956 - 41573" locus_tag="ctg12_30" class="clusterblast-orf" id="dummy-1_q28_0_all"  />
<polygon points="610,40 622,40 627,35 622,30 610,30 610,40 " style="fill:#ced815; stroke-width:1; stroke:black; " description="&lt;b&gt;ctg12_31&lt;/b&gt;&lt;br&gt;ctg12 31&lt;br&gt;Location: 41598 - 42756" locus_tag="ctg12_31" class="clusterblast-orf" id="dummy-1_q29_0_all"  />
<polygon points="627,40 634,40 639,35 634,30 627,30 627,40 " style="fill:#15d880; stroke-width:1; stroke:black; " description="&lt;b&gt;ctg12_32&lt;/b&gt;&lt;br&gt;ctg12 32&lt;br&gt;Location: 42752 - 43550" locus_tag="ctg12_32" class="clusterblast-orf" id="dummy-1_q30_0_all"  />
<polygon points="641,40 666,40 671,35 666,30 641,30 641,40 " style="fill:#1f15d8; stroke-width:1; stroke:black; " description="&lt;b&gt;ctg12_33&lt;/b&gt;&lt;br&gt;ctg12 33&lt;br&gt;Location: 43702 - 45664" locus_tag="ctg12_33" class="clusterblast-orf" id="dummy-1_q31_0_all"  />
<polygon points="671,40 674,40 679,35 674,30 671,30 671,40 " style="fill:#d8156d; stroke-width:1; stroke:black; " description="&lt;b&gt;ctg12_34&lt;/b&gt;&lt;br&gt;ctg12 34&lt;br&gt;Location: 45722 - 46265" locus_tag="ctg12_34" class="clusterblast-orf" id="dummy-1_q32_0_all"  />
<polygon points="680,40 680,40 685,35 680,30 680,30 680,40 " style="fill:#b1d815; stroke-width:1; stroke:black; " description="&lt;b&gt;ctg12_35&lt;/b&gt;&lt;br&gt;ctg12 35&lt;br&gt;Location: 46326 - 46611" locus_tag="ctg12_35" class="clusterblast-orf" id="dummy-1_q33_0_all"  />
<polygon points="686,35 691,30 698,30 698,40 691,40 686,35 " style="fill:#15d89e; stroke-width:1; stroke:black; " description="&lt;b&gt;ctg12_36&lt;/b&gt;&lt;br&gt;ctg12 36&lt;br&gt;Location: 46684 - 47491" locus_tag="ctg12_36" class="clusterblast-orf" id="dummy-1_q34_0_all"  />
<polygon points="699,35 704,30 713,30 713,40 704,40 699,35 " style="fill:#3c15d8; stroke-width:1; stroke:black; " description="&lt;b&gt;ctg12_37&lt;/b&gt;&lt;br&gt;ctg12 37&lt;br&gt;Location: 47581 - 48517" locus_tag="ctg12_37" class="clusterblast-orf" id="dummy-1_q35_0_all"  />
<polygon points="719,40 721,40 726,35 721,30 719,30 719,40 " style="fill:#d81550; stroke-width:1; stroke:black; " description="&lt;b&gt;ctg12_38&lt;/b&gt;&lt;br&gt;ctg12 38&lt;br&gt;Location: 48961 - 49429" locus_tag="ctg12_38" class="clusterblast-orf" id="dummy-1_q36_0_all"  />
<polygon points="734,40 742,40 747,35 742,30 734,30 734,40 " style="fill:#94d815; stroke-width:1; stroke:black; " description="&lt;b&gt;ctg12_39&lt;/b&gt;&lt;br&gt;ctg12 39&lt;br&gt;Location: 49933 - 50827" locus_tag="ctg12_39" class="clusterblast-orf" id="dummy-1_q37_0_all"  />
<polygon points="748,40 752,40 757,35 752,30 748,30 748,40 " style="fill:#15d8bb; stroke-width:1; stroke:black; " description="&lt;b&gt;ctg12_40&lt;/b&gt;&lt;br&gt;ctg12 40&lt;br&gt;Location: 50874 - 51483" locus_tag="ctg12_40" class="clusterblast-orf" id="dummy-1_q38_0_all"  />
<polygon points="757,35 762,30 770,30 770,40 762,40 757,35 " style="fill:#5915d8; stroke-width:1; stroke:black; " description="&lt;b&gt;ctg12_41&lt;/b&gt;&lt;br&gt;ctg12 41&lt;br&gt;Location: 51466 - 52384" locus_tag="ctg12_41" class="clusterblast-orf" id="dummy-1_q39_0_all"  />
<polygon points="777,40 780,35 777,30 777,40 " style="fill:#d81532; stroke-width:1; stroke:black; " description="&lt;b&gt;ctg12_42&lt;/b&gt;&lt;br&gt;ctg12 42&lt;br&gt;Location: 52823 - 53018" locus_tag="ctg12_42" class="clusterblast-orf" id="dummy-1_q40_0_all"  />
</g>
<g label="NZ_RHGD01000001" description="NZ_RHGD01000001 (5061692-5113264): Pseudomonas mandelii strain B2/38-Q-III Sc... (100% of genes show similarity), NRPS" class="clusterblast-cluster"  >
<text x="5" y="70" class="clusterblast-acc"  >
<a xlink:href="https://antismash-db.secondarymetabolites.org/area.html?record=NZ_RHGD01000001&amp;start=5061692&amp;end=5113264" target="_blank">NZ_RHGD01000001 (5061692-5113264)</a>: Pseudomonas mandelii strain B2/38-Q-III Sc... (100% of genes show similarity), NRPS</text>
<line x1="10" y1="85" x2="778.0" y2="85" style="stroke-width:1; stroke:grey; "  />
</g>
<g id="a1_000"  >
<polygon points="7,85 12,80 16,80 16,90 12,90 7,85 " style="fill:#d81515; stroke-width:1; stroke:black; " description="&lt;b&gt;EB795_RS23485&lt;/b&gt;&lt;br&gt;3-isopropylmalate dehydratase small subunit&lt;br&gt;Location: 5113264 - 5112650&lt;br&gt;&lt;br&gt;&lt;b&gt;BlastP hit with ctg12_2&lt;/b&gt;&lt;br&gt;Percentage identity: 56&lt;br&gt;Percentage coverage: 99&lt;br&gt;BLAST bit score: 84&lt;br&gt;E-value: 1.08e-19" locus_tag="EB795_RS23485" class="clusterblast-orf" id="dummy-1_h1_1_0"  />
</g>
<g id="a1_001"  >
<polygon points="16,85 21,80 37,80 37,90 21,90 16,85 " style="fill:#77d815; stroke-width:1; stroke:black; " description="&lt;b&gt;EB795_RS23480&lt;/b&gt;&lt;br&gt;3-isopropylmalate dehydratase large subunit&lt;br&gt;Location: 5112653 - 5111232&lt;br&gt;&lt;br&gt;&lt;b&gt;BlastP hit with ctg12_3&lt;/b&gt;&lt;br&gt;Percentage identity: 93&lt;br&gt;Percentage coverage: 100&lt;br&gt;BLAST bit score: 874&lt;br&gt;E-value: 0.0" locus_tag="EB795_RS23480" class="clusterblast-orf" id="dummy-1_h1_1_1"  />
</g>
<g id="a1_002"  >
<polygon points="43,90 56,90 61,85 56,80 43,80 43,90 " style="fill:#15d8d8; stroke-width:1; stroke:black; " description="&lt;b&gt;EB795_RS23475&lt;/b&gt;&lt;br&gt;PepSY domain-containing protein&lt;br&gt;Location: 5110827 - 5109634&lt;br&gt;&lt;br&gt;&lt;b&gt;BlastP hit with ctg12_4&lt;/b&gt;&lt;br&gt;Percentage identity: 86&lt;br&gt;Percentage coverage: 96&lt;br&gt;BLAST bit score: 686&lt;br&gt;E-value: 4.38e-249" locus_tag="EB795_RS23475" class="clusterblast-orf" id="dummy-1_h1_1_2"  />
</g>
<g id="a1_003"  >
<polygon points="61,90 64,90 69,85 64,80 61,80 61,90 " style="fill:#7715d8; stroke-width:1; stroke:black; " description="&lt;b&gt;EB795_RS23470&lt;/b&gt;&lt;br&gt;hypothetical protein&lt;br&gt;Location: 5109637 - 5109095&lt;br&gt;&lt;br&gt;&lt;b&gt;BlastP hit with ctg12_5&lt;/b&gt;&lt;br&gt;Percentage identity: 87&lt;br&gt;Percentage coverage: 96&lt;br&gt;BLAST bit score: 328&lt;br&gt;E-value: 7.7e-115" locus_tag="EB795_RS23470" class="clusterblast-orf" id="dummy-1_h1_1_3"  />
</g>
<g id="a1_004"  >
<polygon points="69,90 73,85 69,80 69,90 " style="fill:#d83215; stroke-width:1; stroke:black; " description="&lt;b&gt;EB795_RS23465&lt;/b&gt;&lt;br&gt;hypothetical protein&lt;br&gt;Location: 5109098 - 5108775&lt;br&gt;&lt;br&gt;&lt;b&gt;BlastP hit with ctg12_6&lt;/b&gt;&lt;br&gt;Percentage identity: 93&lt;br&gt;Percentage coverage: 95&lt;br&gt;BLAST bit score: 201&lt;br&gt;E-value: 5.82e-67" locus_tag="EB795_RS23465" class="clusterblast-orf" id="dummy-1_h1_1_4"  />
</g>
<g id="a1_005"  >
<polygon points="73,90 77,90 82,85 77,80 73,80 73,90 " style="fill:#59d815; stroke-width:1; stroke:black; " description="&lt;b&gt;EB795_RS23460&lt;/b&gt;&lt;br&gt;hypothetical protein&lt;br&gt;Location: 5108778 - 5108206&lt;br&gt;&lt;br&gt;&lt;b&gt;BlastP hit with ctg12_7&lt;/b&gt;&lt;br&gt;Percentage identity: 83&lt;br&gt;Percentage coverage: 100&lt;br&gt;BLAST bit score: 308&lt;br&gt;E-value: 1.43e-106" locus_tag="EB795_RS23460" class="clusterblast-orf" id="dummy-1_h1_1_5"  />
</g>
<g id="a1_006"  >
<polygon points="82,90 91,90 96,85 91,80 82,80 82,90 " style="fill:#15bbd8; stroke-width:1; stroke:black; " description="&lt;b&gt;EB795_RS23455&lt;/b&gt;&lt;br&gt;zinc ABC transporter substrate-binding protein&lt;br&gt;Location: 5108170 - 5107244&lt;br&gt;&lt;br&gt;&lt;b&gt;BlastP hit with ctg12_8&lt;/b&gt;&lt;br&gt;Percentage identity: 92&lt;br&gt;Percentage coverage: 100&lt;br&gt;BLAST bit score: 558&lt;br&gt;E-value: 2.51e-201" locus_tag="EB795_RS23455" class="clusterblast-orf" id="dummy-1_h1_1_6"  />
</g>
<g id="a1_007"  >
<polygon points="96,90 104,90 109,85 104,80 96,80 96,90 " style="fill:#9415d8; stroke-width:1; stroke:black; " description="&lt;b&gt;EB795_RS23450&lt;/b&gt;&lt;br&gt;ATP-binding cassette domain-containing protein&lt;br&gt;Location: 5107247 - 5106390&lt;br&gt;&lt;br&gt;&lt;b&gt;BlastP hit with ctg12_9&lt;/b&gt;&lt;br&gt;Percentage identity: 84&lt;br&gt;Percentage coverage: 102&lt;br&gt;BLAST bit score: 467&lt;br&gt;E-value: 3.73e-166" locus_tag="EB795_RS23450" class="clusterblast-orf" id="dummy-1_h1_1_7"  />
</g>
<g id="a1_008"  >
<polygon points="109,90 117,90 122,85 117,80 109,80 109,90 " style="fill:#d85015; stroke-width:1; stroke:black; " description="&lt;b&gt;EB795_RS23445&lt;/b&gt;&lt;br&gt;metal ABC transporter permease&lt;br&gt;Location: 5106390 - 5105491&lt;br&gt;&lt;br&gt;&lt;b&gt;BlastP hit with ctg12_10&lt;/b&gt;&lt;br&gt;Percentage identity: 99&lt;br&gt;Percentage coverage: 100&lt;br&gt;BLAST bit score: 529&lt;br&gt;E-value: 1.86e-190" locus_tag="EB795_RS23445" class="clusterblast-orf" id="dummy-1_h1_1_8"  />
</g>
<g id="a1_009"  >
<polygon points="122,90 131,90 136,85 131,80 122,80 122,90 " style="fill:#3cd815; stroke-width:1; stroke:black; " description="&lt;b&gt;EB795_RS23440&lt;/b&gt;&lt;br&gt;zinc ABC transporter substrate-binding protein&lt;br&gt;Location: 5105490 - 5104591&lt;br&gt;&lt;br&gt;&lt;b&gt;BlastP hit with ctg12_11&lt;/b&gt;&lt;br&gt;Percentage identity: 82&lt;br&gt;Percentage coverage: 100&lt;br&gt;BLAST bit score: 492&lt;br&gt;E-value: 2.03e-175" locus_tag="EB795_RS23440" class="clusterblast-orf" id="dummy-1_h1_1_9"  />
</g>
<g id="a1_0010"  >
<polygon points="138,85 142,80 142,90 138,85 " style="fill:#159ed8; stroke-width:1; stroke:black; " description="&lt;b&gt;EB795_RS23435&lt;/b&gt;&lt;br&gt;MbtH family protein&lt;br&gt;Location: 5104403 - 5104176&lt;br&gt;&lt;br&gt;&lt;b&gt;BlastP hit with ctg12_12&lt;/b&gt;&lt;br&gt;Percentage identity: 95&lt;br&gt;Percentage coverage: 100&lt;br&gt;BLAST bit score: 151&lt;br&gt;E-value: 3.36e-48" locus_tag="EB795_RS23435" class="clusterblast-orf" id="dummy-1_h1_1_10"  />
</g>
<g id="a1_0011"  >
<polygon points="143,85 148,80 164,80 164,90 148,90 143,85 " style="fill:#b115d8; stroke-width:1; stroke:black; " description="&lt;b&gt;EB795_RS23430&lt;/b&gt;&lt;br&gt;aspartate aminotransferase family protein&lt;br&gt;Location: 5104094 - 5102682&lt;br&gt;&lt;br&gt;&lt;b&gt;BlastP hit with ctg12_13&lt;/b&gt;&lt;br&gt;Percentage identity: 94&lt;br&gt;Percentage coverage: 100&lt;br&gt;BLAST bit score: 874&lt;br&gt;E-value: 0.0" locus_tag="EB795_RS23430" class="clusterblast-orf" id="dummy-1_h1_1_11"  />
</g>
<g id="a1_0012"  >
<polygon points="165,85 170,80 172,80 172,90 170,90 165,85 " style="fill:#d86d15; stroke-width:1; stroke:black; " description="&lt;b&gt;EB795_RS23425&lt;/b&gt;&lt;br&gt;GNAT family N-acetyltransferase&lt;br&gt;Location: 5102604 - 5102119&lt;br&gt;&lt;br&gt;&lt;b&gt;BlastP hit with ctg12_14&lt;/b&gt;&lt;br&gt;Percentage identity: 79&lt;br&gt;Percentage coverage: 98&lt;br&gt;BLAST bit score: 257&lt;br&gt;E-value: 2.93e-87" locus_tag="EB795_RS23425" class="clusterblast-orf" id="dummy-1_h1_1_12"  />
</g>
<g id="a1_0013"  >
<polygon points="175,85 180,80 195,80 195,90 180,90 175,85 " style="fill:#1fd815; stroke-width:1; stroke:black; " description="&lt;b&gt;EB795_RS23420&lt;/b&gt;&lt;br&gt;sensor histidine kinase N-terminal domain-containing protein&lt;br&gt;Location: 5101911 - 5100589&lt;br&gt;&lt;br&gt;&lt;b&gt;BlastP hit with ctg12_15&lt;/b&gt;&lt;br&gt;Percentage identity: 93&lt;br&gt;Percentage coverage: 100&lt;br&gt;BLAST bit score: 803&lt;br&gt;E-value: 6.9e-294" locus_tag="EB795_RS23420" class="clusterblast-orf" id="dummy-1_h1_1_13"  />
</g>
<g id="a1_0014"  >
<polygon points="195,85 200,80 205,80 205,90 200,90 195,85 " style="fill:#1580d8; stroke-width:1; stroke:black; " description="&lt;b&gt;EB795_RS23415&lt;/b&gt;&lt;br&gt;response regulator&lt;br&gt;Location: 5100589 - 5099906&lt;br&gt;&lt;br&gt;&lt;b&gt;BlastP hit with ctg12_16&lt;/b&gt;&lt;br&gt;Percentage identity: 95&lt;br&gt;Percentage coverage: 100&lt;br&gt;BLAST bit score: 415&lt;br&gt;E-value: 1.32e-147" locus_tag="EB795_RS23415" class="clusterblast-orf" id="dummy-1_h1_1_14"  />
</g>
<g id="a1_0015"  >
<polygon points="209,90 215,90 220,85 215,80 209,80 209,90 " style="fill:#ce15d8; stroke-width:1; stroke:black; " description="&lt;b&gt;EB795_RS23410&lt;/b&gt;&lt;br&gt;hypothetical protein&lt;br&gt;Location: 5099615 - 5098917&lt;br&gt;&lt;br&gt;&lt;b&gt;BlastP hit with ctg12_17&lt;/b&gt;&lt;br&gt;Percentage identity: 48&lt;br&gt;Percentage coverage: 101&lt;br&gt;BLAST bit score: 246&lt;br&gt;E-value: 1.55e-80" locus_tag="EB795_RS23410" class="clusterblast-orf" id="dummy-1_h1_1_15"  />
</g>
<g id="a1_0016"  >
<polygon points="221,90 242,90 247,85 242,80 221,80 221,90 " style="fill:#d88a15; stroke-width:1; stroke:black; " description="&lt;b&gt;EB795_RS23405&lt;/b&gt;&lt;br&gt;protein-disulfide reductase DsbD&lt;br&gt;Location: 5098834 - 5097098&lt;br&gt;&lt;br&gt;&lt;b&gt;BlastP hit with ctg12_18&lt;/b&gt;&lt;br&gt;Percentage identity: 88&lt;br&gt;Percentage coverage: 100&lt;br&gt;BLAST bit score: 1011&lt;br&gt;E-value: 0.0" locus_tag="EB795_RS23405" class="clusterblast-orf" id="dummy-1_h1_1_16"  />
</g>
<g id="a1_0017"  >
<polygon points="247,90 255,90 260,85 255,80 247,80 247,90 " style="fill:#15d829; stroke-width:1; stroke:black; " description="&lt;b&gt;EB795_RS23400&lt;/b&gt;&lt;br&gt;TlpA family protein disulfide reductase&lt;br&gt;Location: 5097098 - 5096232&lt;br&gt;&lt;br&gt;&lt;b&gt;BlastP hit with ctg12_19&lt;/b&gt;&lt;br&gt;Percentage identity: 91&lt;br&gt;Percentage coverage: 100&lt;br&gt;BLAST bit score: 528&lt;br&gt;E-value: 2.29e-190" locus_tag="EB795_RS23400" class="clusterblast-orf" id="dummy-1_h1_1_17"  />
</g>
<g id="a1_0018"  >
<polygon points="259,90 266,90 271,85 266,80 259,80 259,90 " style="fill:#1563d8; stroke-width:1; stroke:black; " description="&lt;b&gt;EB795_RS23395&lt;/b&gt;&lt;br&gt;thiol:disulfide interchange protein DsbG&lt;br&gt;Location: 5096256 - 5095486&lt;br&gt;&lt;br&gt;&lt;b&gt;BlastP hit with ctg12_20&lt;/b&gt;&lt;br&gt;Percentage identity: 88&lt;br&gt;Percentage coverage: 100&lt;br&gt;BLAST bit score: 448&lt;br&gt;E-value: 9.45e-160" locus_tag="EB795_RS23395" class="clusterblast-orf" id="dummy-1_h1_1_18"  />
</g>
<g id="a1_0019"  >
<polygon points="272,85 277,80 284,80 284,90 277,90 272,85 " style="fill:#d815c5; stroke-width:1; stroke:black; " description="&lt;b&gt;EB795_RS23390&lt;/b&gt;&lt;br&gt;alpha/beta fold hydrolase&lt;br&gt;Location: 5095370 - 5094558&lt;br&gt;&lt;br&gt;&lt;b&gt;BlastP hit with ctg12_21&lt;/b&gt;&lt;br&gt;Percentage identity: 91&lt;br&gt;Percentage coverage: 100&lt;br&gt;BLAST bit score: 503&lt;br&gt;E-value: 4.63e-181" locus_tag="EB795_RS23390" class="clusterblast-orf" id="dummy-1_h1_1_19"  />
</g>
<g id="a1_0020"  >
<polygon points="288,85 293,80 480,80 480,90 293,90 288,85 " style="fill:#d8a715; stroke-width:1; stroke:black; " description="&lt;b&gt;EB795_RS23385&lt;/b&gt;&lt;br&gt;non-ribosomal peptide synthase/polyketide synthase&lt;br&gt;Location: 5094338 - 5081355&lt;br&gt;&lt;br&gt;&lt;b&gt;BlastP hit with ctg12_23&lt;/b&gt;&lt;br&gt;Percentage identity: 92&lt;br&gt;Percentage coverage: 100&lt;br&gt;BLAST bit score: 7969&lt;br&gt;E-value: 0.0" locus_tag="EB795_RS23385" class="clusterblast-orf" id="dummy-1_h1_1_20"  />
</g>
<g id="a1_0021"  >
<polygon points="486,90 489,90 494,85 489,80 486,80 486,90 " style="fill:#15d846; stroke-width:1; stroke:black; " description="&lt;b&gt;EB795_RS23380&lt;/b&gt;&lt;br&gt;RNA polymerase factor sigma-70&lt;br&gt;Location: 5080976 - 5080428&lt;br&gt;&lt;br&gt;&lt;b&gt;BlastP hit with ctg12_24&lt;/b&gt;&lt;br&gt;Percentage identity: 98&lt;br&gt;Percentage coverage: 100&lt;br&gt;BLAST bit score: 350&lt;br&gt;E-value: 1.83e-123" locus_tag="EB795_RS23380" class="clusterblast-orf" id="dummy-1_h1_1_21"  />
</g>
<g id="a1_0022"  >
<polygon points="496,85 501,80 512,80 512,90 501,90 496,85 " style="fill:#1546d8; stroke-width:1; stroke:black; " description="&lt;b&gt;EB795_RS23375&lt;/b&gt;&lt;br&gt;GNAT family N-acetyltransferase&lt;br&gt;Location: 5080270 - 5079257&lt;br&gt;&lt;br&gt;&lt;b&gt;BlastP hit with ctg12_25&lt;/b&gt;&lt;br&gt;Percentage identity: 82&lt;br&gt;Percentage coverage: 100&lt;br&gt;BLAST bit score: 592&lt;br&gt;E-value: 3.55e-214" locus_tag="EB795_RS23375" class="clusterblast-orf" id="dummy-1_h1_1_22"  />
</g>
<g id="a1_0023"  >
<polygon points="513,85 518,80 525,80 525,90 518,90 513,85 " style="fill:#d815a7; stroke-width:1; stroke:black; " description="&lt;b&gt;EB795_RS23370&lt;/b&gt;&lt;br&gt;transporter substrate-binding domain-containing protein&lt;br&gt;Location: 5079156 - 5078359&lt;br&gt;&lt;br&gt;&lt;b&gt;BlastP hit with ctg12_26&lt;/b&gt;&lt;br&gt;Percentage identity: 85&lt;br&gt;Percentage coverage: 96&lt;br&gt;BLAST bit score: 453&lt;br&gt;E-value: 2.92e-161" locus_tag="EB795_RS23370" class="clusterblast-orf" id="dummy-1_h1_1_23"  />
</g>
<g id="a1_0024"  >
<polygon points="526,85 531,80 535,80 535,90 531,90 526,85 " style="fill:#d8c515; stroke-width:1; stroke:black; " description="&lt;b&gt;EB795_RS23365&lt;/b&gt;&lt;br&gt;TetR family transcriptional regulator&lt;br&gt;Location: 5078266 - 5077670&lt;br&gt;&lt;br&gt;&lt;b&gt;BlastP hit with ctg12_27&lt;/b&gt;&lt;br&gt;Percentage identity: 95&lt;br&gt;Percentage coverage: 95&lt;br&gt;BLAST bit score: 369&lt;br&gt;E-value: 4.44e-130" locus_tag="EB795_RS23365" class="clusterblast-orf" id="dummy-1_h1_1_24"  />
</g>
<g id="a1_0025"  >
<polygon points="538,90 560,90 565,85 560,80 538,80 538,90 " style="fill:#15d863; stroke-width:1; stroke:black; " description="&lt;b&gt;EB795_RS23360&lt;/b&gt;&lt;br&gt;DUF1446 domain-containing protein&lt;br&gt;Location: 5077464 - 5075662&lt;br&gt;&lt;br&gt;&lt;b&gt;BlastP hit with ctg12_28&lt;/b&gt;&lt;br&gt;Percentage identity: 90&lt;br&gt;Percentage coverage: 100&lt;br&gt;BLAST bit score: 1094&lt;br&gt;E-value: 0.0" locus_tag="EB795_RS23360" class="clusterblast-orf" id="dummy-1_h1_1_25"  />
</g>
<g id="a1_0026"  >
<polygon points="565,90 573,90 578,85 573,80 565,80 565,90 " style="fill:#1529d8; stroke-width:1; stroke:black; " description="&lt;b&gt;EB795_RS23355&lt;/b&gt;&lt;br&gt;SDR family oxidoreductase&lt;br&gt;Location: 5075649 - 5074780&lt;br&gt;&lt;br&gt;&lt;b&gt;BlastP hit with ctg12_29&lt;/b&gt;&lt;br&gt;Percentage identity: 93&lt;br&gt;Percentage coverage: 100&lt;br&gt;BLAST bit score: 548&lt;br&gt;E-value: 4.17e-198" locus_tag="EB795_RS23355" class="clusterblast-orf" id="dummy-1_h1_1_26"  />
</g>
<g id="a1_0027"  >
<polygon points="578,90 597,90 602,85 597,80 578,80 578,90 " style="fill:#d8158a; stroke-width:1; stroke:black; " description="&lt;b&gt;EB795_RS23350&lt;/b&gt;&lt;br&gt;acyl-CoA carboxylase subunit beta&lt;br&gt;Location: 5074776 - 5073160&lt;br&gt;&lt;br&gt;&lt;b&gt;BlastP hit with ctg12_30&lt;/b&gt;&lt;br&gt;Percentage identity: 94&lt;br&gt;Percentage coverage: 100&lt;br&gt;BLAST bit score: 1001&lt;br&gt;E-value: 0.0" locus_tag="EB795_RS23350" class="clusterblast-orf" id="dummy-1_h1_1_27"  />
</g>
<g id="a1_0028"  >
<polygon points="602,90 615,90 620,85 615,80 602,80 602,90 " style="fill:#ced815; stroke-width:1; stroke:black; " description="&lt;b&gt;EB795_RS23345&lt;/b&gt;&lt;br&gt;acyl-CoA dehydrogenase family protein&lt;br&gt;Location: 5073133 - 5071976&lt;br&gt;&lt;br&gt;&lt;b&gt;BlastP hit with ctg12_31&lt;/b&gt;&lt;br&gt;Percentage identity: 98&lt;br&gt;Percentage coverage: 100&lt;br&gt;BLAST bit score: 770&lt;br&gt;E-value: 8.16e-283" locus_tag="EB795_RS23345" class="clusterblast-orf" id="dummy-1_h1_1_28"  />
</g>
<g id="a1_0029"  >
<polygon points="620,90 626,90 631,85 626,80 620,80 620,90 " style="fill:#15d880; stroke-width:1; stroke:black; " description="&lt;b&gt;EB795_RS23340&lt;/b&gt;&lt;br&gt;enoyl-CoA hydratase/isomerase family protein&lt;br&gt;Location: 5071979 - 5071182&lt;br&gt;&lt;br&gt;&lt;b&gt;BlastP hit with ctg12_32&lt;/b&gt;&lt;br&gt;Percentage identity: 91&lt;br&gt;Percentage coverage: 100&lt;br&gt;BLAST bit score: 471&lt;br&gt;E-value: 1.41e-168" locus_tag="EB795_RS23340" class="clusterblast-orf" id="dummy-1_h1_1_29"  />
</g>
<g id="a1_0030"  >
<polygon points="633,90 657,90 662,85 657,80 633,80 633,90 " style="fill:#1f15d8; stroke-width:1; stroke:black; " description="&lt;b&gt;EB795_RS23335&lt;/b&gt;&lt;br&gt;acetyl-CoA carboxylase biotin carboxylase subunit&lt;br&gt;Location: 5071048 - 5069087&lt;br&gt;&lt;br&gt;&lt;b&gt;BlastP hit with ctg12_33&lt;/b&gt;&lt;br&gt;Percentage identity: 86&lt;br&gt;Percentage coverage: 94&lt;br&gt;BLAST bit score: 1032&lt;br&gt;E-value: 0.0" locus_tag="EB795_RS23335" class="clusterblast-orf" id="dummy-1_h1_1_30"  />
</g>
<g id="a1_0031"  >
<polygon points="664,90 667,90 672,85 667,80 664,80 664,90 " style="fill:#d8156d; stroke-width:1; stroke:black; " description="&lt;b&gt;EB795_RS23330&lt;/b&gt;&lt;br&gt;3'-5' exoribonuclease&lt;br&gt;Location: 5069015 - 5068467&lt;br&gt;&lt;br&gt;&lt;b&gt;BlastP hit with ctg12_34&lt;/b&gt;&lt;br&gt;Percentage identity: 85&lt;br&gt;Percentage coverage: 99&lt;br&gt;BLAST bit score: 312&lt;br&gt;E-value: 2.08e-108" locus_tag="EB795_RS23330" class="clusterblast-orf" id="dummy-1_h1_1_31"  />
</g>
<g id="a1_0032"  >
<polygon points="673,90 677,85 673,80 673,90 " style="fill:#b1d815; stroke-width:1; stroke:black; " description="&lt;b&gt;EB795_RS23325&lt;/b&gt;&lt;br&gt;pyrimidine/purine nucleoside phosphorylase&lt;br&gt;Location: 5068405 - 5068121&lt;br&gt;&lt;br&gt;&lt;b&gt;BlastP hit with ctg12_35&lt;/b&gt;&lt;br&gt;Percentage identity: 97&lt;br&gt;Percentage coverage: 100&lt;br&gt;BLAST bit score: 186&lt;br&gt;E-value: 1.7e-61" locus_tag="EB795_RS23325" class="clusterblast-orf" id="dummy-1_h1_1_32"  />
</g>
<g id="a1_0033"  >
<polygon points="678,85 683,80 690,80 690,90 683,90 678,85 " style="fill:#15d89e; stroke-width:1; stroke:black; " description="&lt;b&gt;EB795_RS23320&lt;/b&gt;&lt;br&gt;MOSC domain-containing protein&lt;br&gt;Location: 5068048 - 5067242&lt;br&gt;&lt;br&gt;&lt;b&gt;BlastP hit with ctg12_36&lt;/b&gt;&lt;br&gt;Percentage identity: 85&lt;br&gt;Percentage coverage: 100&lt;br&gt;BLAST bit score: 464&lt;br&gt;E-value: 6.89e-166" locus_tag="EB795_RS23320" class="clusterblast-orf" id="dummy-1_h1_1_33"  />
</g>
<g id="a1_0034"  >
<polygon points="693,85 698,80 707,80 707,90 698,90 693,85 " style="fill:#3c15d8; stroke-width:1; stroke:black; " description="&lt;b&gt;EB795_RS23315&lt;/b&gt;&lt;br&gt;chemotaxis protein CheV&lt;br&gt;Location: 5067042 - 5066107&lt;br&gt;&lt;br&gt;&lt;b&gt;BlastP hit with ctg12_37&lt;/b&gt;&lt;br&gt;Percentage identity: 98&lt;br&gt;Percentage coverage: 100&lt;br&gt;BLAST bit score: 598&lt;br&gt;E-value: 1.74e-217" locus_tag="EB795_RS23315" class="clusterblast-orf" id="dummy-1_h1_1_34"  />
</g>
<g id="a1_0035"  >
<polygon points="714,90 716,90 721,85 716,80 714,80 714,90 " style="fill:#d81550; stroke-width:1; stroke:black; " description="&lt;b&gt;EB795_RS23310&lt;/b&gt;&lt;br&gt;hypothetical protein&lt;br&gt;Location: 5065644 - 5065174&lt;br&gt;&lt;br&gt;&lt;b&gt;BlastP hit with ctg12_38&lt;/b&gt;&lt;br&gt;Percentage identity: 72&lt;br&gt;Percentage coverage: 101&lt;br&gt;BLAST bit score: 215&lt;br&gt;E-value: 7.83e-71" locus_tag="EB795_RS23310" class="clusterblast-orf" id="dummy-1_h1_1_35"  />
</g>
<g id="a1_0036"  >
<polygon points="726,90 735,90 740,85 735,80 726,80 726,90 " style="fill:#94d815; stroke-width:1; stroke:black; " description="&lt;b&gt;EB795_RS23305&lt;/b&gt;&lt;br&gt;sensor histidine kinase&lt;br&gt;Location: 5064775 - 5063882&lt;br&gt;&lt;br&gt;&lt;b&gt;BlastP hit with ctg12_39&lt;/b&gt;&lt;br&gt;Percentage identity: 86&lt;br&gt;Percentage coverage: 100&lt;br&gt;BLAST bit score: 490&lt;br&gt;E-value: 5.53e-175" locus_tag="EB795_RS23305" class="clusterblast-orf" id="dummy-1_h1_1_36"  />
</g>
<g id="a1_0037"  >
<polygon points="740,90 744,90 749,85 744,80 740,80 740,90 " style="fill:#15d8bb; stroke-width:1; stroke:black; " description="&lt;b&gt;EB795_RS23300&lt;/b&gt;&lt;br&gt;response regulator transcription factor&lt;br&gt;Location: 5063885 - 5063226&lt;br&gt;&lt;br&gt;&lt;b&gt;BlastP hit with ctg12_40&lt;/b&gt;&lt;br&gt;Percentage identity: 95&lt;br&gt;Percentage coverage: 100&lt;br&gt;BLAST bit score: 362&lt;br&gt;E-value: 2.01e-127" locus_tag="EB795_RS23300" class="clusterblast-orf" id="dummy-1_h1_1_37"  />
</g>
<g id="a1_0038"  >
<polygon points="749,85 754,80 763,80 763,90 754,90 749,85 " style="fill:#5915d8; stroke-width:1; stroke:black; " description="&lt;b&gt;EB795_RS23295&lt;/b&gt;&lt;br&gt;lipid kinase YegS&lt;br&gt;Location: 5063242 - 5062325&lt;br&gt;&lt;br&gt;&lt;b&gt;BlastP hit with ctg12_41&lt;/b&gt;&lt;br&gt;Percentage identity: 84&lt;br&gt;Percentage coverage: 100&lt;br&gt;BLAST bit score: 514&lt;br&gt;E-value: 2.58e-184" locus_tag="EB795_RS23295" class="clusterblast-orf" id="dummy-1_h1_1_38"  />
</g>
<g id="a1_0039"  >
<polygon points="768,90 772,85 768,80 768,90 " style="fill:#d81532; stroke-width:1; stroke:black; " description="&lt;b&gt;EB795_RS23290&lt;/b&gt;&lt;br&gt;hypothetical protein&lt;br&gt;Location: 5062001 - 5061693&lt;br&gt;&lt;br&gt;&lt;b&gt;BlastP hit with ctg12_42&lt;/b&gt;&lt;br&gt;Percentage identity: 89&lt;br&gt;Percentage coverage: 100&lt;br&gt;BLAST bit score: 117&lt;br&gt;E-value: 1.25e-34" locus_tag="EB795_RS23290" class="clusterblast-orf" id="dummy-1_h1_1_39"  />
</g>
</svg>
