<svg xmlns="http://www.w3.org/2000/svg" xmlns:xlink="http://www.w3.org/1999/xlink" version="1.1" x="0" y="0" height="230" width="800" viewBox="0 0 800 230" preserveAspectRatio="none"  >
<g label="Query sequence" class="clusterblast-cluster"  >
<text x="5" y="20" class="clusterblast-acc"  >
Query sequence</text>
<line x1="10" y1="35" x2="778.0" y2="35" style="stroke-width:1; stroke:grey; "  />
<polygon points="306,40 306,40 311,35 306,30 306,30 306,40 " style="fill:white; stroke-width:1; stroke:black; " description="&lt;b&gt;ctg29_17&lt;/b&gt;&lt;br&gt;ctg29 17&lt;br&gt;Location: 17080 - 17416" locus_tag="ctg29_17" class="clusterblast-orf" id="dummy-1_q0_0_all"  />
<polygon points="316,40 319,35 316,30 316,40 " style="fill:white; stroke-width:1; stroke:black; " description="&lt;b&gt;ctg29_18&lt;/b&gt;&lt;br&gt;ctg29 18&lt;br&gt;Location: 17707 - 17923" locus_tag="ctg29_18" class="clusterblast-orf" id="dummy-1_q1_0_all"  />
<polygon points="323,40 344,40 349,35 344,30 323,30 323,40 " style="fill:#d81515; stroke-width:1; stroke:black; " description="&lt;b&gt;ctg29_19&lt;/b&gt;&lt;br&gt;ctg29 19&lt;br&gt;Location: 18161 - 19877" locus_tag="ctg29_19" class="clusterblast-orf" id="dummy-1_q2_0_all"  />
<polygon points="350,35 355,30 364,30 364,40 355,40 350,35 " style="fill:white; stroke-width:1; stroke:black; " description="&lt;b&gt;ctg29_20&lt;/b&gt;&lt;br&gt;ctg29 20&lt;br&gt;Location: 19972 - 20893" locus_tag="ctg29_20" class="clusterblast-orf" id="dummy-1_q3_0_all"  />
<polygon points="369,40 398,40 403,35 398,30 369,30 369,40 " style="fill:#15d8d8; stroke-width:1; stroke:black; " description="&lt;b&gt;ctg29_21&lt;/b&gt;&lt;br&gt;ctg29 21&lt;br&gt;Location: 21215 - 23423" locus_tag="ctg29_21" class="clusterblast-orf" id="dummy-1_q4_0_all"  />
<polygon points="404,35 409,30 412,30 412,40 409,40 404,35 " style="fill:white; stroke-width:1; stroke:black; " description="&lt;b&gt;ctg29_22&lt;/b&gt;&lt;br&gt;ctg29 22&lt;br&gt;Location: 23470 - 24031" locus_tag="ctg29_22" class="clusterblast-orf" id="dummy-1_q5_0_all"  />
<polygon points="416,35 421,30 435,30 435,40 421,40 416,35 " style="fill:white; stroke-width:1; stroke:black; " description="&lt;b&gt;ctg29_23&lt;/b&gt;&lt;br&gt;ctg29 23&lt;br&gt;Location: 24233 - 25475" locus_tag="ctg29_23" class="clusterblast-orf" id="dummy-1_q6_0_all"  />
<polygon points="435,35 440,30 440,30 440,40 440,40 435,35 " style="fill:white; stroke-width:1; stroke:black; " description="&lt;b&gt;ctg29_24&lt;/b&gt;&lt;br&gt;ctg29 24&lt;br&gt;Location: 25471 - 25801" locus_tag="ctg29_24" class="clusterblast-orf" id="dummy-1_q7_0_all"  />
<polygon points="440,35 445,30 448,30 448,40 445,40 440,35 " style="fill:white; stroke-width:1; stroke:black; " description="&lt;b&gt;ctg29_25&lt;/b&gt;&lt;br&gt;ctg29 25&lt;br&gt;Location: 25803 - 26367" locus_tag="ctg29_25" class="clusterblast-orf" id="dummy-1_q8_0_all"  />
<polygon points="449,35 454,30 456,30 456,40 454,40 449,35 " style="fill:white; stroke-width:1; stroke:black; " description="&lt;b&gt;ctg29_26&lt;/b&gt;&lt;br&gt;ctg29 26&lt;br&gt;Location: 26396 - 26849" locus_tag="ctg29_26" class="clusterblast-orf" id="dummy-1_q9_0_all"  />
<polygon points="460,40 468,40 473,35 468,30 460,30 460,40 " style="fill:white; stroke-width:1; stroke:black; " description="&lt;b&gt;ctg29_27&lt;/b&gt;&lt;br&gt;ctg29 27&lt;br&gt;Location: 27145 - 28003" locus_tag="ctg29_27" class="clusterblast-orf" id="dummy-1_q10_0_all"  />
</g>
<g label="NZ_FPKJ01000001" description="NZ_FPKJ01000001 (1054786-1107536): Pseudomonas sp. NFPP16, whole genome shotg... (5% of genes show similarity), T1PKS" class="clusterblast-cluster"  >
<text x="5" y="70" class="clusterblast-acc"  >
<a xlink:href="https://antismash-db.secondarymetabolites.org/area.html?record=NZ_FPKJ01000001&amp;start=1054786&amp;end=1107536" target="_blank">NZ_FPKJ01000001 (1054786-1107536)</a>: Pseudomonas sp. NFPP16, whole genome shotg... (5% of genes show similarity), T1PKS</text>
<line x1="10" y1="85" x2="778.0" y2="85" style="stroke-width:1; stroke:grey; "  />
</g>
<g id="a1_000"  >
<polygon points="0,90 6,90 11,85 6,80 0,80 0,90 " style="fill:white; stroke-width:1; stroke:black; " description="&lt;b&gt;BT254_RS04425&lt;/b&gt;&lt;br&gt;hypothetical protein&lt;br&gt;Location: 1054907 - 1055662" locus_tag="BT254_RS04425" class="clusterblast-orf" id="dummy-1_h1_4_0"  />
</g>
<g id="a1_001"  >
<polygon points="16,85 21,80 25,80 25,90 21,90 16,85 " style="fill:white; stroke-width:1; stroke:black; " description="&lt;b&gt;BT254_RS04435&lt;/b&gt;&lt;br&gt;helix-turn-helix transcriptional regulator&lt;br&gt;Location: 1055965 - 1056552" locus_tag="BT254_RS04435" class="clusterblast-orf" id="dummy-1_h1_4_1"  />
</g>
<g id="a1_002"  >
<polygon points="27,90 39,90 44,85 39,80 27,80 27,90 " style="fill:white; stroke-width:1; stroke:black; " description="&lt;b&gt;BT254_RS04440&lt;/b&gt;&lt;br&gt;alkene reductase&lt;br&gt;Location: 1056702 - 1057802" locus_tag="BT254_RS04440" class="clusterblast-orf" id="dummy-1_h1_4_2"  />
</g>
<g id="a1_003"  >
<polygon points="45,90 52,90 57,85 52,80 45,80 45,90 " style="fill:white; stroke-width:1; stroke:black; " description="&lt;b&gt;BT254_RS04445&lt;/b&gt;&lt;br&gt;SDR family oxidoreductase&lt;br&gt;Location: 1057857 - 1058645" locus_tag="BT254_RS04445" class="clusterblast-orf" id="dummy-1_h1_4_3"  />
</g>
<g id="a1_004"  >
<polygon points="58,90 66,90 71,85 66,80 58,80 58,90 " style="fill:white; stroke-width:1; stroke:black; " description="&lt;b&gt;BT254_RS04450&lt;/b&gt;&lt;br&gt;alpha/beta hydrolase&lt;br&gt;Location: 1058721 - 1059599" locus_tag="BT254_RS04450" class="clusterblast-orf" id="dummy-1_h1_4_4"  />
</g>
<g id="a1_005"  >
<polygon points="72,90 83,90 88,85 83,80 72,80 72,90 " style="fill:white; stroke-width:1; stroke:black; " description="&lt;b&gt;BT254_RS04455&lt;/b&gt;&lt;br&gt;NADP-dependent oxidoreductase&lt;br&gt;Location: 1059658 - 1060656" locus_tag="BT254_RS04455" class="clusterblast-orf" id="dummy-1_h1_4_5"  />
</g>
<g id="a1_006"  >
<polygon points="90,85 95,80 97,80 97,90 95,90 90,85 " style="fill:white; stroke-width:1; stroke:black; " description="&lt;b&gt;BT254_RS04460&lt;/b&gt;&lt;br&gt;hypothetical protein&lt;br&gt;Location: 1060849 - 1061247" locus_tag="BT254_RS04460" class="clusterblast-orf" id="dummy-1_h1_4_6"  />
</g>
<g id="a1_007"  >
<polygon points="103,85 108,80 113,80 113,90 108,90 103,85 " style="fill:white; stroke-width:1; stroke:black; " description="&lt;b&gt;BT254_RS04470&lt;/b&gt;&lt;br&gt;LysE family transporter&lt;br&gt;Location: 1061693 - 1062292" locus_tag="BT254_RS04470" class="clusterblast-orf" id="dummy-1_h1_4_7"  />
</g>
<g id="a1_008"  >
<polygon points="114,85 119,80 137,80 137,90 119,90 114,85 " style="fill:white; stroke-width:1; stroke:black; " description="&lt;b&gt;BT254_RS04475&lt;/b&gt;&lt;br&gt;efflux transporter outer membrane subunit&lt;br&gt;Location: 1062364 - 1063860" locus_tag="BT254_RS04475" class="clusterblast-orf" id="dummy-1_h1_4_8"  />
</g>
<g id="a1_009"  >
<polygon points="137,85 142,80 154,80 154,90 142,90 137,85 " style="fill:white; stroke-width:1; stroke:black; " description="&lt;b&gt;BT254_RS04480&lt;/b&gt;&lt;br&gt;ABC transporter permease&lt;br&gt;Location: 1063872 - 1064990" locus_tag="BT254_RS04480" class="clusterblast-orf" id="dummy-1_h1_4_9"  />
</g>
<g id="a1_0010"  >
<polygon points="154,85 159,80 172,80 172,90 159,90 154,85 " style="fill:white; stroke-width:1; stroke:black; " description="&lt;b&gt;BT254_RS04485&lt;/b&gt;&lt;br&gt;ABC transporter permease&lt;br&gt;Location: 1064995 - 1066143" locus_tag="BT254_RS04485" class="clusterblast-orf" id="dummy-1_h1_4_10"  />
</g>
<g id="a1_0011"  >
<polygon points="172,85 177,80 199,80 199,90 177,90 172,85 " style="fill:white; stroke-width:1; stroke:black; " description="&lt;b&gt;BT254_RS04490&lt;/b&gt;&lt;br&gt;ABC transporter ATP-binding protein&lt;br&gt;Location: 1066147 - 1067916" locus_tag="BT254_RS04490" class="clusterblast-orf" id="dummy-1_h1_4_11"  />
</g>
<g id="a1_0012"  >
<polygon points="199,85 204,80 214,80 214,90 204,90 199,85 " style="fill:white; stroke-width:1; stroke:black; " description="&lt;b&gt;BT254_RS04495&lt;/b&gt;&lt;br&gt;HlyD family efflux transporter periplasmic adaptor subunit&lt;br&gt;Location: 1067913 - 1068926" locus_tag="BT254_RS04495" class="clusterblast-orf" id="dummy-1_h1_4_12"  />
</g>
<g id="a1_0013"  >
<polygon points="216,90 221,90 226,85 221,80 216,80 216,90 " style="fill:white; stroke-width:1; stroke:black; " description="&lt;b&gt;BT254_RS04500&lt;/b&gt;&lt;br&gt;CerR family C-terminal domain-containing protein&lt;br&gt;Location: 1069038 - 1069673" locus_tag="BT254_RS04500" class="clusterblast-orf" id="dummy-1_h1_4_13"  />
</g>
<g id="a1_0014"  >
<polygon points="226,85 231,80 238,80 238,90 231,90 226,85 " style="fill:white; stroke-width:1; stroke:black; " description="&lt;b&gt;BT254_RS04505&lt;/b&gt;&lt;br&gt;thioesterase&lt;br&gt;Location: 1069679 - 1070461" locus_tag="BT254_RS04505" class="clusterblast-orf" id="dummy-1_h1_4_14"  />
</g>
<g id="a1_0015"  >
<polygon points="238,85 243,80 261,80 261,90 243,90 238,85 " style="fill:white; stroke-width:1; stroke:black; " description="&lt;b&gt;BT254_RS04510&lt;/b&gt;&lt;br&gt;amino acid adenylation domain-containing protein&lt;br&gt;Location: 1070465 - 1071961" locus_tag="BT254_RS04510" class="clusterblast-orf" id="dummy-1_h1_4_15"  />
</g>
<g id="a1_0016"  >
<polygon points="261,85 266,80 278,80 278,90 266,90 261,85 " style="fill:white; stroke-width:1; stroke:black; " description="&lt;b&gt;BT254_RS04515&lt;/b&gt;&lt;br&gt;acyl-CoA/acyl-ACP dehydrogenase&lt;br&gt;Location: 1071958 - 1073100" locus_tag="BT254_RS04515" class="clusterblast-orf" id="dummy-1_h1_4_16"  />
</g>
<g id="a1_0017"  >
<polygon points="278,85 283,80 303,80 303,90 283,90 278,85 " style="fill:white; stroke-width:1; stroke:black; " description="&lt;b&gt;BT254_RS04520&lt;/b&gt;&lt;br&gt;hypothetical protein&lt;br&gt;Location: 1073102 - 1074736" locus_tag="BT254_RS04520" class="clusterblast-orf" id="dummy-1_h1_4_17"  />
</g>
<g id="a1_0018"  >
<polygon points="304,85 309,80 385,80 385,90 309,90 304,85 " style="fill:white; stroke-width:1; stroke:black; " description="&lt;b&gt;BT254_RS04525&lt;/b&gt;&lt;br&gt;type I polyketide synthase&lt;br&gt;Location: 1074787 - 1080111" locus_tag="BT254_RS04525" class="clusterblast-orf" id="dummy-1_h1_4_18"  />
</g>
<g id="a1_0019"  >
<polygon points="386,85 391,80 499,80 499,90 391,90 386,85 " style="fill:white; stroke-width:1; stroke:black; " description="&lt;b&gt;BT254_RS04530&lt;/b&gt;&lt;br&gt;acyltransferase domain-containing protein&lt;br&gt;Location: 1080160 - 1087536" locus_tag="BT254_RS04530" class="clusterblast-orf" id="dummy-1_h1_4_19"  />
</g>
<g id="a1_0020"  >
<polygon points="500,85 505,80 520,80 520,90 505,90 500,85 " style="fill:white; stroke-width:1; stroke:black; " description="&lt;b&gt;BT254_RS04535&lt;/b&gt;&lt;br&gt;tryptophan 7-halogenase&lt;br&gt;Location: 1087569 - 1088918" locus_tag="BT254_RS04535" class="clusterblast-orf" id="dummy-1_h1_4_20"  />
</g>
<g id="a1_0021"  >
<polygon points="521,85 525,80 525,90 521,85 " style="fill:white; stroke-width:1; stroke:black; " description="&lt;b&gt;BT254_RS04540&lt;/b&gt;&lt;br&gt;peptidyl carrier protein PltL&lt;br&gt;Location: 1088932 - 1089198" locus_tag="BT254_RS04540" class="clusterblast-orf" id="dummy-1_h1_4_21"  />
</g>
<g id="a1_0022"  >
<polygon points="532,90 543,90 548,85 543,80 532,80 532,90 " style="fill:white; stroke-width:1; stroke:black; " description="&lt;b&gt;BT254_RS04545&lt;/b&gt;&lt;br&gt;LysR family transcriptional regulator&lt;br&gt;Location: 1089684 - 1090715" locus_tag="BT254_RS04545" class="clusterblast-orf" id="dummy-1_h1_4_22"  />
</g>
<g id="a1_0023"  >
<polygon points="548,90 566,90 571,85 566,80 548,80 548,90 " style="fill:white; stroke-width:1; stroke:black; " description="&lt;b&gt;BT254_RS04550&lt;/b&gt;&lt;br&gt;tryptophan 7-halogenase&lt;br&gt;Location: 1090712 - 1092220" locus_tag="BT254_RS04550" class="clusterblast-orf" id="dummy-1_h1_4_23"  />
</g>
<g id="a1_0024"  >
<polygon points="573,90 602,90 607,85 602,80 573,80 573,90 " style="fill:#15d8d8; stroke-width:1; stroke:black; " description="&lt;b&gt;BT254_RS04555&lt;/b&gt;&lt;br&gt;OsmC domain/YcaO domain-containing protein&lt;br&gt;Location: 1092370 - 1094589&lt;br&gt;&lt;br&gt;&lt;b&gt;BlastP hit with ctg29_21&lt;/b&gt;&lt;br&gt;Percentage identity: 87&lt;br&gt;Percentage coverage: 100&lt;br&gt;BLAST bit score: 1304&lt;br&gt;E-value: 0.0" locus_tag="BT254_RS04555" class="clusterblast-orf" id="dummy-1_h1_4_24"  />
</g>
<g id="a1_0025"  >
<polygon points="609,85 614,80 616,80 616,90 614,90 609,85 " style="fill:white; stroke-width:1; stroke:black; " description="&lt;b&gt;BT254_RS04560&lt;/b&gt;&lt;br&gt;hypothetical protein&lt;br&gt;Location: 1094699 - 1095136" locus_tag="BT254_RS04560" class="clusterblast-orf" id="dummy-1_h1_4_25"  />
</g>
<g id="a1_0026"  >
<polygon points="617,85 622,80 622,80 622,90 622,90 617,85 " style="fill:white; stroke-width:1; stroke:black; " description="&lt;b&gt;BT254_RS04565&lt;/b&gt;&lt;br&gt;hypothetical protein&lt;br&gt;Location: 1095211 - 1095570" locus_tag="BT254_RS04565" class="clusterblast-orf" id="dummy-1_h1_4_26"  />
</g>
<g id="a1_0027"  >
<polygon points="623,90 633,90 638,85 633,80 623,80 623,90 " style="fill:white; stroke-width:1; stroke:black; " description="&lt;b&gt;BT254_RS04570&lt;/b&gt;&lt;br&gt;suppressor of fused domain protein&lt;br&gt;Location: 1095640 - 1096605" locus_tag="BT254_RS04570" class="clusterblast-orf" id="dummy-1_h1_4_27"  />
</g>
<g id="a1_0028"  >
<polygon points="638,90 640,90 645,85 640,80 638,80 638,90 " style="fill:white; stroke-width:1; stroke:black; " description="&lt;b&gt;BT254_RS04575&lt;/b&gt;&lt;br&gt;hypothetical protein&lt;br&gt;Location: 1096626 - 1097066" locus_tag="BT254_RS04575" class="clusterblast-orf" id="dummy-1_h1_4_28"  />
</g>
<g id="a1_0029"  >
<polygon points="646,90 650,90 655,85 650,80 646,80 646,90 " style="fill:white; stroke-width:1; stroke:black; " description="&lt;b&gt;BT254_RS04580&lt;/b&gt;&lt;br&gt;GIY-YIG nuclease family protein&lt;br&gt;Location: 1097121 - 1097741" locus_tag="BT254_RS04580" class="clusterblast-orf" id="dummy-1_h1_4_29"  />
</g>
<g id="a1_0030"  >
<polygon points="659,90 680,90 685,85 680,80 659,80 659,90 " style="fill:#d81515; stroke-width:1; stroke:black; " description="&lt;b&gt;BT254_RS04585&lt;/b&gt;&lt;br&gt;amidase&lt;br&gt;Location: 1097956 - 1099668&lt;br&gt;&lt;br&gt;&lt;b&gt;BlastP hit with ctg29_19&lt;/b&gt;&lt;br&gt;Percentage identity: 88&lt;br&gt;Percentage coverage: 99&lt;br&gt;BLAST bit score: 993&lt;br&gt;E-value: 0.0" locus_tag="BT254_RS04585" class="clusterblast-orf" id="dummy-1_h1_4_30"  />
</g>
<g id="a1_0031"  >
<polygon points="687,90 689,90 694,85 689,80 687,80 687,90 " style="fill:white; stroke-width:1; stroke:black; " description="&lt;b&gt;BT254_RS04590&lt;/b&gt;&lt;br&gt;hypothetical protein&lt;br&gt;Location: 1099769 - 1100242" locus_tag="BT254_RS04590" class="clusterblast-orf" id="dummy-1_h1_4_31"  />
</g>
<g id="a1_0032"  >
<polygon points="694,85 699,80 702,80 702,90 699,90 694,85 " style="fill:white; stroke-width:1; stroke:black; " description="&lt;b&gt;BT254_RS04595&lt;/b&gt;&lt;br&gt;hypothetical protein&lt;br&gt;Location: 1100251 - 1100781" locus_tag="BT254_RS04595" class="clusterblast-orf" id="dummy-1_h1_4_32"  />
</g>
<g id="a1_0033"  >
<polygon points="704,90 713,90 718,85 713,80 704,80 704,90 " style="fill:white; stroke-width:1; stroke:black; " description="&lt;b&gt;BT254_RS04600&lt;/b&gt;&lt;br&gt;serine hydrolase&lt;br&gt;Location: 1100927 - 1101817" locus_tag="BT254_RS04600" class="clusterblast-orf" id="dummy-1_h1_4_33"  />
</g>
<g id="a1_0034"  >
<polygon points="720,90 723,90 728,85 723,80 720,80 720,90 " style="fill:white; stroke-width:1; stroke:black; " description="&lt;b&gt;BT254_RS04605&lt;/b&gt;&lt;br&gt;hypothetical protein&lt;br&gt;Location: 1101958 - 1102455" locus_tag="BT254_RS04605" class="clusterblast-orf" id="dummy-1_h1_4_34"  />
</g>
<g id="a1_0035"  >
<polygon points="730,90 732,85 730,80 730,90 " style="fill:white; stroke-width:1; stroke:black; " description="&lt;b&gt;BT254_RS31920&lt;/b&gt;&lt;br&gt;hypothetical protein&lt;br&gt;Location: 1102606 - 1102755" locus_tag="BT254_RS31920" class="clusterblast-orf" id="dummy-1_h1_4_35"  />
</g>
<g id="a1_0036"  >
<polygon points="734,85 739,80 766,80 766,90 739,90 734,85 " style="fill:white; stroke-width:1; stroke:black; " description="&lt;b&gt;BT254_RS04610&lt;/b&gt;&lt;br&gt;TonB-dependent receptor&lt;br&gt;Location: 1102854 - 1104980" locus_tag="BT254_RS04610" class="clusterblast-orf" id="dummy-1_h1_4_36"  />
</g>
<g id="a1_0037"  >
<polygon points="769,85 772,80 772,90 769,85 " style="fill:white; stroke-width:1; stroke:black; " description="&lt;b&gt;BT254_RS04615&lt;/b&gt;&lt;br&gt;DUF4287 domain-containing protein&lt;br&gt;Location: 1105128 - 1105340" locus_tag="BT254_RS04615" class="clusterblast-orf" id="dummy-1_h1_4_37"  />
</g>
<g id="a1_0038"  >
<polygon points="772,85 777,80 780,80 780,90 777,90 772,85 " style="fill:white; stroke-width:1; stroke:black; " description="&lt;b&gt;BT254_RS04620&lt;/b&gt;&lt;br&gt;hypothetical protein&lt;br&gt;Location: 1105337 - 1105840" locus_tag="BT254_RS04620" class="clusterblast-orf" id="dummy-1_h1_4_38"  />
</g>
</svg>
