<svg xmlns="http://www.w3.org/2000/svg" xmlns:xlink="http://www.w3.org/1999/xlink" version="1.1" x="0" y="0" height="230" width="800" viewBox="0 0 800 230" preserveAspectRatio="none"  >
<g label="Query sequence" class="clusterblast-cluster"  >
<text x="5" y="20" class="clusterblast-acc"  >
Query sequence</text>
<line x1="10" y1="35" x2="778.0" y2="35" style="stroke-width:1; stroke:grey; "  />
<polygon points="0,40 2,35 0,30 0,40 " style="fill:white; stroke-width:1; stroke:black; " description="&lt;b&gt;ctg27_1&lt;/b&gt;&lt;br&gt;ctg27 1&lt;br&gt;Location: 656 - 863" locus_tag="ctg27_1" class="clusterblast-orf" id="dummy-1_q0_0_all"  />
<polygon points="6,40 8,35 6,30 6,40 " style="fill:white; stroke-width:1; stroke:black; " description="&lt;b&gt;ctg27_2&lt;/b&gt;&lt;br&gt;ctg27 2&lt;br&gt;Location: 1242 - 1389" locus_tag="ctg27_2" class="clusterblast-orf" id="dummy-1_q1_0_all"  />
<polygon points="8,40 13,40 18,35 13,30 8,30 8,40 " style="fill:white; stroke-width:1; stroke:black; " description="&lt;b&gt;ctg27_3&lt;/b&gt;&lt;br&gt;ctg27 3&lt;br&gt;Location: 1385 - 2267" locus_tag="ctg27_3" class="clusterblast-orf" id="dummy-1_q2_0_all"  />
<polygon points="19,40 22,35 19,30 19,40 " style="fill:white; stroke-width:1; stroke:black; " description="&lt;b&gt;ctg27_4&lt;/b&gt;&lt;br&gt;ctg27 4&lt;br&gt;Location: 2415 - 2646" locus_tag="ctg27_4" class="clusterblast-orf" id="dummy-1_q3_0_all"  />
<polygon points="25,40 29,35 25,30 25,40 " style="fill:white; stroke-width:1; stroke:black; " description="&lt;b&gt;ctg27_5&lt;/b&gt;&lt;br&gt;ctg27 5&lt;br&gt;Location: 2915 - 3236" locus_tag="ctg27_5" class="clusterblast-orf" id="dummy-1_q4_0_all"  />
<polygon points="30,35 35,30 61,30 61,40 35,40 30,35 " style="fill:#d81515; stroke-width:1; stroke:black; " description="&lt;b&gt;ctg27_6&lt;/b&gt;&lt;br&gt;ctg27 6&lt;br&gt;Location: 3385 - 6109" locus_tag="ctg27_6" class="clusterblast-orf" id="dummy-1_q5_0_all"  />
<polygon points="70,35 75,30 85,30 85,40 75,40 70,35 " style="fill:#6ad815; stroke-width:1; stroke:black; " description="&lt;b&gt;ctg27_7&lt;/b&gt;&lt;br&gt;ctg27 7&lt;br&gt;Location: 6872 - 8210" locus_tag="ctg27_7" class="clusterblast-orf" id="dummy-1_q6_0_all"  />
<polygon points="86,35 91,30 92,30 92,40 91,40 86,35 " style="fill:#15bfd8; stroke-width:1; stroke:black; " description="&lt;b&gt;ctg27_8&lt;/b&gt;&lt;br&gt;ctg27 8&lt;br&gt;Location: 8337 - 8817" locus_tag="ctg27_8" class="clusterblast-orf" id="dummy-1_q7_0_all"  />
<polygon points="96,40 104,40 109,35 104,30 96,30 96,40 " style="fill:#9d15d8; stroke-width:1; stroke:black; " description="&lt;b&gt;ctg27_9&lt;/b&gt;&lt;br&gt;ctg27 9&lt;br&gt;Location: 9141 - 10305" locus_tag="ctg27_9" class="clusterblast-orf" id="dummy-1_q8_0_all"  />
<polygon points="109,40 126,40 131,35 126,30 109,30 109,40 " style="fill:#d84815; stroke-width:1; stroke:black; " description="&lt;b&gt;ctg27_10&lt;/b&gt;&lt;br&gt;ctg27 10&lt;br&gt;Location: 10305 - 12279" locus_tag="ctg27_10" class="clusterblast-orf" id="dummy-1_q9_0_all"  />
<polygon points="131,40 142,40 147,35 142,30 131,30 131,40 " style="fill:#37d815; stroke-width:1; stroke:black; " description="&lt;b&gt;ctg27_11&lt;/b&gt;&lt;br&gt;ctg27 11&lt;br&gt;Location: 12286 - 13681" locus_tag="ctg27_11" class="clusterblast-orf" id="dummy-1_q10_0_all"  />
<polygon points="148,35 153,30 166,30 166,40 153,40 148,35 " style="fill:#158cd8; stroke-width:1; stroke:black; " description="&lt;b&gt;ctg27_12&lt;/b&gt;&lt;br&gt;ctg27 12&lt;br&gt;Location: 13754 - 15380" locus_tag="ctg27_12" class="clusterblast-orf" id="dummy-1_q11_0_all"  />
<polygon points="169,40 179,40 184,35 179,30 169,30 169,40 " style="fill:#d015d8; stroke-width:1; stroke:black; " description="&lt;b&gt;ctg27_13&lt;/b&gt;&lt;br&gt;ctg27 13&lt;br&gt;Location: 15608 - 16946" locus_tag="ctg27_13" class="clusterblast-orf" id="dummy-1_q12_0_all"  />
<polygon points="185,40 190,40 195,35 190,30 185,30 185,40 " style="fill:#d87b15; stroke-width:1; stroke:black; " description="&lt;b&gt;ctg27_14&lt;/b&gt;&lt;br&gt;ctg27 14&lt;br&gt;Location: 17037 - 17925" locus_tag="ctg27_14" class="clusterblast-orf" id="dummy-1_q13_0_all"  />
<polygon points="196,40 210,40 215,35 210,30 196,30 196,40 " style="fill:#15d826; stroke-width:1; stroke:black; " description="&lt;b&gt;ctg27_15&lt;/b&gt;&lt;br&gt;ctg27 15&lt;br&gt;Location: 18029 - 19679" locus_tag="ctg27_15" class="clusterblast-orf" id="dummy-1_q14_0_all"  />
<polygon points="216,40 239,40 244,35 239,30 216,30 216,40 " style="fill:#1559d8; stroke-width:1; stroke:black; " description="&lt;b&gt;ctg27_16&lt;/b&gt;&lt;br&gt;ctg27 16&lt;br&gt;Location: 19841 - 22274" locus_tag="ctg27_16" class="clusterblast-orf" id="dummy-1_q15_0_all"  />
<polygon points="247,35 252,30 258,30 258,40 252,40 247,35 " style="fill:#d815ae; stroke-width:1; stroke:black; " description="&lt;b&gt;ctg27_17&lt;/b&gt;&lt;br&gt;ctg27 17&lt;br&gt;Location: 22552 - 23509" locus_tag="ctg27_17" class="clusterblast-orf" id="dummy-1_q16_0_all"  />
<polygon points="260,35 265,30 413,30 413,40 265,40 260,35 " style="fill:#d8ae15; stroke-width:1; stroke:black; " description="&lt;b&gt;ctg27_18&lt;/b&gt;&lt;br&gt;ctg27 18&lt;br&gt;Location: 23659 - 37225" locus_tag="ctg27_18" class="clusterblast-orf" id="dummy-1_q17_0_all"  />
<polygon points="413,35 418,30 502,30 502,40 418,40 413,35 " style="fill:#d8ae15; stroke-width:1; stroke:black; " description="&lt;b&gt;ctg27_19&lt;/b&gt;&lt;br&gt;ctg27 19&lt;br&gt;Location: 37238 - 45065" locus_tag="ctg27_19" class="clusterblast-orf" id="dummy-1_q18_0_all"  />
<polygon points="501,35 506,30 540,30 540,40 506,40 501,35 " style="fill:#d8ae15; stroke-width:1; stroke:black; " description="&lt;b&gt;ctg27_20&lt;/b&gt;&lt;br&gt;ctg27 20&lt;br&gt;Location: 45061 - 48463" locus_tag="ctg27_20" class="clusterblast-orf" id="dummy-1_q19_0_all"  />
<polygon points="543,35 548,30 554,30 554,40 548,40 543,35 " style="fill:#15d859; stroke-width:1; stroke:black; " description="&lt;b&gt;ctg27_21&lt;/b&gt;&lt;br&gt;ctg27 21&lt;br&gt;Location: 48698 - 49682" locus_tag="ctg27_21" class="clusterblast-orf" id="dummy-1_q20_0_all"  />
<polygon points="554,35 559,30 563,30 563,40 559,40 554,35 " style="fill:#1526d8; stroke-width:1; stroke:black; " description="&lt;b&gt;ctg27_22&lt;/b&gt;&lt;br&gt;ctg27 22&lt;br&gt;Location: 49721 - 50462" locus_tag="ctg27_22" class="clusterblast-orf" id="dummy-1_q21_0_all"  />
<polygon points="564,35 569,30 577,30 577,40 569,40 564,35 " style="fill:#d8157b; stroke-width:1; stroke:black; " description="&lt;b&gt;ctg27_23&lt;/b&gt;&lt;br&gt;ctg27 23&lt;br&gt;Location: 50555 - 51728" locus_tag="ctg27_23" class="clusterblast-orf" id="dummy-1_q22_0_all"  />
<polygon points="580,40 584,40 589,35 584,30 580,30 580,40 " style="fill:#d0d815; stroke-width:1; stroke:black; " description="&lt;b&gt;ctg27_24&lt;/b&gt;&lt;br&gt;ctg27 24&lt;br&gt;Location: 51984 - 52785" locus_tag="ctg27_24" class="clusterblast-orf" id="dummy-1_q23_0_all"  />
<polygon points="589,40 604,40 609,35 604,30 589,30 589,40 " style="fill:#15d88c; stroke-width:1; stroke:black; " description="&lt;b&gt;ctg27_25&lt;/b&gt;&lt;br&gt;ctg27 25&lt;br&gt;Location: 52777 - 54604" locus_tag="ctg27_25" class="clusterblast-orf" id="dummy-1_q24_0_all"  />
<polygon points="615,40 615,40 620,35 615,30 615,30 615,40 " style="fill:#3715d8; stroke-width:1; stroke:black; " description="&lt;b&gt;ctg27_26&lt;/b&gt;&lt;br&gt;ctg27 26&lt;br&gt;Location: 55113 - 55503" locus_tag="ctg27_26" class="clusterblast-orf" id="dummy-1_q25_0_all"  />
<polygon points="621,40 626,40 631,35 626,30 621,30 621,40 " style="fill:#d81548; stroke-width:1; stroke:black; " description="&lt;b&gt;ctg27_27&lt;/b&gt;&lt;br&gt;ctg27 27&lt;br&gt;Location: 55638 - 56535" locus_tag="ctg27_27" class="clusterblast-orf" id="dummy-1_q26_0_all"  />
<polygon points="631,35 636,30 642,30 642,40 636,40 631,35 " style="fill:#9dd815; stroke-width:1; stroke:black; " description="&lt;b&gt;ctg27_28&lt;/b&gt;&lt;br&gt;ctg27 28&lt;br&gt;Location: 56503 - 57487" locus_tag="ctg27_28" class="clusterblast-orf" id="dummy-1_q27_0_all"  />
<polygon points="643,40 646,40 651,35 646,30 643,30 643,40 " style="fill:#9dd815; stroke-width:1; stroke:black; " description="&lt;b&gt;ctg27_29&lt;/b&gt;&lt;br&gt;ctg27 29&lt;br&gt;Location: 57578 - 58262" locus_tag="ctg27_29" class="clusterblast-orf" id="dummy-1_q28_0_all"  />
<polygon points="652,35 657,30 663,30 663,40 657,40 652,35 " style="fill:white; stroke-width:1; stroke:black; " description="&lt;b&gt;ctg27_30&lt;/b&gt;&lt;br&gt;ctg27 30&lt;br&gt;Location: 58399 - 59353" locus_tag="ctg27_30" class="clusterblast-orf" id="dummy-1_q29_0_all"  />
<polygon points="664,35 669,30 670,30 670,40 669,40 664,35 " style="fill:white; stroke-width:1; stroke:black; " description="&lt;b&gt;ctg27_31&lt;/b&gt;&lt;br&gt;ctg27 31&lt;br&gt;Location: 59418 - 59967" locus_tag="ctg27_31" class="clusterblast-orf" id="dummy-1_q30_0_all"  />
<polygon points="670,35 675,30 676,30 676,40 675,40 670,35 " style="fill:white; stroke-width:1; stroke:black; " description="&lt;b&gt;ctg27_32&lt;/b&gt;&lt;br&gt;ctg27 32&lt;br&gt;Location: 59978 - 60458" locus_tag="ctg27_32" class="clusterblast-orf" id="dummy-1_q31_0_all"  />
<polygon points="676,35 681,30 681,30 681,40 681,40 676,35 " style="fill:white; stroke-width:1; stroke:black; " description="&lt;b&gt;ctg27_33&lt;/b&gt;&lt;br&gt;ctg27 33&lt;br&gt;Location: 60471 - 60987" locus_tag="ctg27_33" class="clusterblast-orf" id="dummy-1_q32_0_all"  />
<polygon points="681,35 686,30 688,30 688,40 686,40 681,35 " style="fill:white; stroke-width:1; stroke:black; " description="&lt;b&gt;ctg27_34&lt;/b&gt;&lt;br&gt;ctg27 34&lt;br&gt;Location: 60979 - 61561" locus_tag="ctg27_34" class="clusterblast-orf" id="dummy-1_q33_0_all"  />
<polygon points="688,35 693,30 697,30 697,40 693,40 688,35 " style="fill:white; stroke-width:1; stroke:black; " description="&lt;b&gt;ctg27_35&lt;/b&gt;&lt;br&gt;ctg27 35&lt;br&gt;Location: 61582 - 62344" locus_tag="ctg27_35" class="clusterblast-orf" id="dummy-1_q34_0_all"  />
<polygon points="697,35 702,30 725,30 725,40 702,40 697,35 " style="fill:white; stroke-width:1; stroke:black; " description="&lt;b&gt;ctg27_36&lt;/b&gt;&lt;br&gt;ctg27 36&lt;br&gt;Location: 62340 - 64875" locus_tag="ctg27_36" class="clusterblast-orf" id="dummy-1_q35_0_all"  />
<polygon points="727,35 732,30 733,30 733,40 732,40 727,35 " style="fill:white; stroke-width:1; stroke:black; " description="&lt;b&gt;ctg27_37&lt;/b&gt;&lt;br&gt;ctg27 37&lt;br&gt;Location: 64972 - 65533" locus_tag="ctg27_37" class="clusterblast-orf" id="dummy-1_q36_0_all"  />
<polygon points="733,35 738,30 739,30 739,40 738,40 733,35 " style="fill:white; stroke-width:1; stroke:black; " description="&lt;b&gt;ctg27_38&lt;/b&gt;&lt;br&gt;ctg27 38&lt;br&gt;Location: 65584 - 66106" locus_tag="ctg27_38" class="clusterblast-orf" id="dummy-1_q37_0_all"  />
<polygon points="747,35 752,30 759,30 759,40 752,40 747,35 " style="fill:white; stroke-width:1; stroke:black; " description="&lt;b&gt;ctg27_39&lt;/b&gt;&lt;br&gt;ctg27 39&lt;br&gt;Location: 66794 - 67850" locus_tag="ctg27_39" class="clusterblast-orf" id="dummy-1_q38_0_all"  />
<polygon points="765,35 770,30 774,30 774,40 770,40 765,35 " style="fill:#15d8bf; stroke-width:1; stroke:black; " description="&lt;b&gt;ctg27_40&lt;/b&gt;&lt;br&gt;ctg27 40&lt;br&gt;Location: 68371 - 69199" locus_tag="ctg27_40" class="clusterblast-orf" id="dummy-1_q39_0_all"  />
<polygon points="774,35 779,30 780,30 780,40 779,40 774,35 " style="fill:#6a15d8; stroke-width:1; stroke:black; " description="&lt;b&gt;ctg27_41&lt;/b&gt;&lt;br&gt;ctg27 41&lt;br&gt;Location: 69179 - 69668" locus_tag="ctg27_41" class="clusterblast-orf" id="dummy-1_q40_0_all"  />
</g>
<g label="NZ_CP029608" description="NZ_CP029608 (2143026-2202957): Pseudomonas kribbensis strain 46-2 chromosome,... (69% of genes show similarity), NRPS" class="clusterblast-cluster"  >
<text x="5" y="70" class="clusterblast-acc"  >
<a xlink:href="https://antismash-db.secondarymetabolites.org/area.html?record=NZ_CP029608&amp;start=2143026&amp;end=2202957" target="_blank">NZ_CP029608 (2143026-2202957)</a>: Pseudomonas kribbensis strain 46-2 chromosome,... (69% of genes show similarity), NRPS</text>
<line x1="10" y1="85" x2="778.0" y2="85" style="stroke-width:1; stroke:grey; "  />
</g>
<g id="a1_000"  >
<polygon points="51,85 56,80 66,80 66,90 56,90 51,85 " style="fill:#6ad815; stroke-width:1; stroke:black; " description="&lt;b&gt;DLD99_RS10130&lt;/b&gt;&lt;br&gt;lysine N(6)-hydroxylase/L-ornithine N(5)-oxygenase family protein&lt;br&gt;Location: 2202957 - 2201620&lt;br&gt;&lt;br&gt;&lt;b&gt;BlastP hit with ctg27_7&lt;/b&gt;&lt;br&gt;Percentage identity: 92&lt;br&gt;Percentage coverage: 100&lt;br&gt;BLAST bit score: 823&lt;br&gt;E-value: 8.22e-302" locus_tag="DLD99_RS10130" class="clusterblast-orf" id="dummy-1_h1_8_0"  />
</g>
<g id="a1_001"  >
<polygon points="67,85 72,80 73,80 73,90 72,90 67,85 " style="fill:#15bfd8; stroke-width:1; stroke:black; " description="&lt;b&gt;DLD99_RS10125&lt;/b&gt;&lt;br&gt;sigma-70 family RNA polymerase sigma factor&lt;br&gt;Location: 2201486 - 2201004&lt;br&gt;&lt;br&gt;&lt;b&gt;BlastP hit with ctg27_8&lt;/b&gt;&lt;br&gt;Percentage identity: 89&lt;br&gt;Percentage coverage: 100&lt;br&gt;BLAST bit score: 288&lt;br&gt;E-value: 1.67e-99" locus_tag="DLD99_RS10125" class="clusterblast-orf" id="dummy-1_h1_8_1"  />
</g>
<g id="a1_002"  >
<polygon points="77,90 85,90 90,85 85,80 77,80 77,90 " style="fill:#9d15d8; stroke-width:1; stroke:black; " description="&lt;b&gt;DLD99_RS10120&lt;/b&gt;&lt;br&gt;efflux RND transporter periplasmic adaptor subunit&lt;br&gt;Location: 2200678 - 2199515&lt;br&gt;&lt;br&gt;&lt;b&gt;BlastP hit with ctg27_9&lt;/b&gt;&lt;br&gt;Percentage identity: 88&lt;br&gt;Percentage coverage: 100&lt;br&gt;BLAST bit score: 594&lt;br&gt;E-value: 3.98e-213" locus_tag="DLD99_RS10120" class="clusterblast-orf" id="dummy-1_h1_8_2"  />
</g>
<g id="a1_003"  >
<polygon points="90,90 107,90 112,85 107,80 90,80 90,90 " style="fill:#d84815; stroke-width:1; stroke:black; " description="&lt;b&gt;DLD99_RS10115&lt;/b&gt;&lt;br&gt;MacB family efflux pump subunit&lt;br&gt;Location: 2199514 - 2197541&lt;br&gt;&lt;br&gt;&lt;b&gt;BlastP hit with ctg27_10&lt;/b&gt;&lt;br&gt;Percentage identity: 90&lt;br&gt;Percentage coverage: 100&lt;br&gt;BLAST bit score: 1133&lt;br&gt;E-value: 0.0" locus_tag="DLD99_RS10115" class="clusterblast-orf" id="dummy-1_h1_8_3"  />
</g>
<g id="a1_004"  >
<polygon points="112,90 123,90 128,85 123,80 112,80 112,90 " style="fill:#37d815; stroke-width:1; stroke:black; " description="&lt;b&gt;DLD99_RS10110&lt;/b&gt;&lt;br&gt;efflux transporter outer membrane subunit&lt;br&gt;Location: 2197533 - 2196139&lt;br&gt;&lt;br&gt;&lt;b&gt;BlastP hit with ctg27_11&lt;/b&gt;&lt;br&gt;Percentage identity: 88&lt;br&gt;Percentage coverage: 100&lt;br&gt;BLAST bit score: 767&lt;br&gt;E-value: 6.21e-279" locus_tag="DLD99_RS10110" class="clusterblast-orf" id="dummy-1_h1_8_4"  />
</g>
<g id="a1_005"  >
<polygon points="129,85 134,80 147,80 147,90 134,90 129,85 " style="fill:#158cd8; stroke-width:1; stroke:black; " description="&lt;b&gt;DLD99_RS10105&lt;/b&gt;&lt;br&gt;PvdJ/PvdD/PvdP-like protein&lt;br&gt;Location: 2196080 - 2194455&lt;br&gt;&lt;br&gt;&lt;b&gt;BlastP hit with ctg27_12&lt;/b&gt;&lt;br&gt;Percentage identity: 91&lt;br&gt;Percentage coverage: 99&lt;br&gt;BLAST bit score: 1066&lt;br&gt;E-value: 0.0" locus_tag="DLD99_RS10105" class="clusterblast-orf" id="dummy-1_h1_8_5"  />
</g>
<g id="a1_006"  >
<polygon points="149,90 160,90 165,85 160,80 149,80 149,90 " style="fill:#d015d8; stroke-width:1; stroke:black; " description="&lt;b&gt;DLD99_RS10100&lt;/b&gt;&lt;br&gt;membrane dipeptidase&lt;br&gt;Location: 2194238 - 2192868&lt;br&gt;&lt;br&gt;&lt;b&gt;BlastP hit with ctg27_13&lt;/b&gt;&lt;br&gt;Percentage identity: 96&lt;br&gt;Percentage coverage: 100&lt;br&gt;BLAST bit score: 882&lt;br&gt;E-value: 0.0" locus_tag="DLD99_RS10100" class="clusterblast-orf" id="dummy-1_h1_8_6"  />
</g>
<g id="a1_007"  >
<polygon points="165,90 174,90 179,85 174,80 165,80 165,90 " style="fill:white; stroke-width:1; stroke:black; " description="&lt;b&gt;DLD99_RS10095&lt;/b&gt;&lt;br&gt;aminotransferase class V-fold PLP-dependent enzyme&lt;br&gt;Location: 2192871 - 2191585" locus_tag="DLD99_RS10095" class="clusterblast-orf" id="dummy-1_h1_8_7"  />
</g>
<g id="a1_008"  >
<polygon points="180,90 185,90 190,85 185,80 180,80 180,90 " style="fill:#d87b15; stroke-width:1; stroke:black; " description="&lt;b&gt;DLD99_RS10090&lt;/b&gt;&lt;br&gt;formylglycine-generating enzyme family protein&lt;br&gt;Location: 2191547 - 2190660&lt;br&gt;&lt;br&gt;&lt;b&gt;BlastP hit with ctg27_14&lt;/b&gt;&lt;br&gt;Percentage identity: 83&lt;br&gt;Percentage coverage: 100&lt;br&gt;BLAST bit score: 526&lt;br&gt;E-value: 1.6e-189" locus_tag="DLD99_RS10090" class="clusterblast-orf" id="dummy-1_h1_8_8"  />
</g>
<g id="a1_009"  >
<polygon points="191,90 205,90 210,85 205,80 191,80 191,90 " style="fill:#15d826; stroke-width:1; stroke:black; " description="&lt;b&gt;DLD99_RS10085&lt;/b&gt;&lt;br&gt;cyclic peptide export ABC transporter&lt;br&gt;Location: 2190548 - 2188899&lt;br&gt;&lt;br&gt;&lt;b&gt;BlastP hit with ctg27_15&lt;/b&gt;&lt;br&gt;Percentage identity: 95&lt;br&gt;Percentage coverage: 100&lt;br&gt;BLAST bit score: 1006&lt;br&gt;E-value: 0.0" locus_tag="DLD99_RS10085" class="clusterblast-orf" id="dummy-1_h1_8_9"  />
</g>
<g id="a1_0010"  >
<polygon points="212,90 234,90 239,85 234,80 212,80 212,90 " style="fill:#1559d8; stroke-width:1; stroke:black; " description="&lt;b&gt;DLD99_RS10080&lt;/b&gt;&lt;br&gt;TonB-dependent siderophore receptor&lt;br&gt;Location: 2188686 - 2186305&lt;br&gt;&lt;br&gt;&lt;b&gt;BlastP hit with ctg27_16&lt;/b&gt;&lt;br&gt;Percentage identity: 89&lt;br&gt;Percentage coverage: 98&lt;br&gt;BLAST bit score: 1466&lt;br&gt;E-value: 0.0" locus_tag="DLD99_RS10080" class="clusterblast-orf" id="dummy-1_h1_8_10"  />
</g>
<g id="a1_0011"  >
<polygon points="240,85 245,80 251,80 251,90 245,90 240,85 " style="fill:#d815ae; stroke-width:1; stroke:black; " description="&lt;b&gt;DLD99_RS10075&lt;/b&gt;&lt;br&gt;alpha/beta hydrolase&lt;br&gt;Location: 2186239 - 2185283&lt;br&gt;&lt;br&gt;&lt;b&gt;BlastP hit with ctg27_17&lt;/b&gt;&lt;br&gt;Percentage identity: 89&lt;br&gt;Percentage coverage: 98&lt;br&gt;BLAST bit score: 569&lt;br&gt;E-value: 1.14e-205" locus_tag="DLD99_RS10075" class="clusterblast-orf" id="dummy-1_h1_8_11"  />
</g>
<g id="a1_0012"  >
<polygon points="251,85 256,80 391,80 391,90 256,90 251,85 " style="fill:#d8ae15; stroke-width:1; stroke:black; " description="&lt;b&gt;DLD99_RS10070&lt;/b&gt;&lt;br&gt;non-ribosomal peptide synthase/polyketide synthase&lt;br&gt;Location: 2185207 - 2172881&lt;br&gt;&lt;br&gt;&lt;b&gt;BlastP hit with ctg27_18&lt;/b&gt;&lt;br&gt;Percentage identity: 79&lt;br&gt;Percentage coverage: 100&lt;br&gt;BLAST bit score: 6992&lt;br&gt;E-value: 0.0&lt;br&gt;&lt;br&gt;&lt;b&gt;BlastP hit with ctg27_19&lt;/b&gt;&lt;br&gt;Percentage identity: 49&lt;br&gt;Percentage coverage: 100&lt;br&gt;BLAST bit score: 2266&lt;br&gt;E-value: 0.0&lt;br&gt;&lt;br&gt;&lt;b&gt;BlastP hit with ctg27_20&lt;/b&gt;&lt;br&gt;Percentage identity: 45&lt;br&gt;Percentage coverage: 98&lt;br&gt;BLAST bit score: 850&lt;br&gt;E-value: 2.12e-269" locus_tag="DLD99_RS10070" class="clusterblast-orf" id="dummy-1_h1_8_12"  />
</g>
<g id="a1_0013"  >
<polygon points="391,85 396,80 479,80 479,90 396,90 391,85 " style="fill:#d8ae15; stroke-width:1; stroke:black; " description="&lt;b&gt;DLD99_RS10065&lt;/b&gt;&lt;br&gt;amino acid adenylation domain-containing protein&lt;br&gt;Location: 2172867 - 2165032&lt;br&gt;&lt;br&gt;&lt;b&gt;BlastP hit with ctg27_18&lt;/b&gt;&lt;br&gt;Percentage identity: 49&lt;br&gt;Percentage coverage: 57&lt;br&gt;BLAST bit score: 2247&lt;br&gt;E-value: 0.0&lt;br&gt;&lt;br&gt;&lt;b&gt;BlastP hit with ctg27_19&lt;/b&gt;&lt;br&gt;Percentage identity: 82&lt;br&gt;Percentage coverage: 100&lt;br&gt;BLAST bit score: 4237&lt;br&gt;E-value: 0.0&lt;br&gt;&lt;br&gt;&lt;b&gt;BlastP hit with ctg27_20&lt;/b&gt;&lt;br&gt;Percentage identity: 40&lt;br&gt;Percentage coverage: 98&lt;br&gt;BLAST bit score: 707&lt;br&gt;E-value: 2.31e-222" locus_tag="DLD99_RS10065" class="clusterblast-orf" id="dummy-1_h1_8_13"  />
</g>
<g id="a1_0014"  >
<polygon points="479,85 484,80 518,80 518,90 484,90 479,85 " style="fill:#d8ae15; stroke-width:1; stroke:black; " description="&lt;b&gt;DLD99_RS10060&lt;/b&gt;&lt;br&gt;amino acid adenylation domain-containing protein&lt;br&gt;Location: 2165035 - 2161634&lt;br&gt;&lt;br&gt;&lt;b&gt;BlastP hit with ctg27_20&lt;/b&gt;&lt;br&gt;Percentage identity: 85&lt;br&gt;Percentage coverage: 100&lt;br&gt;BLAST bit score: 1909&lt;br&gt;E-value: 0.0" locus_tag="DLD99_RS10060" class="clusterblast-orf" id="dummy-1_h1_8_14"  />
</g>
<g id="a1_0015"  >
<polygon points="520,85 525,80 531,80 531,90 525,90 520,85 " style="fill:#15d859; stroke-width:1; stroke:black; " description="&lt;b&gt;DLD99_RS10055&lt;/b&gt;&lt;br&gt;TauD/TfdA family dioxygenase&lt;br&gt;Location: 2161446 - 2160463&lt;br&gt;&lt;br&gt;&lt;b&gt;BlastP hit with ctg27_21&lt;/b&gt;&lt;br&gt;Percentage identity: 92&lt;br&gt;Percentage coverage: 99&lt;br&gt;BLAST bit score: 625&lt;br&gt;E-value: 2.59e-227" locus_tag="DLD99_RS10055" class="clusterblast-orf" id="dummy-1_h1_8_15"  />
</g>
<g id="a1_0016"  >
<polygon points="532,85 537,80 540,80 540,90 537,90 532,85 " style="fill:#1526d8; stroke-width:1; stroke:black; " description="&lt;b&gt;DLD99_RS10050&lt;/b&gt;&lt;br&gt;thioesterase&lt;br&gt;Location: 2160423 - 2159683&lt;br&gt;&lt;br&gt;&lt;b&gt;BlastP hit with ctg27_22&lt;/b&gt;&lt;br&gt;Percentage identity: 88&lt;br&gt;Percentage coverage: 100&lt;br&gt;BLAST bit score: 435&lt;br&gt;E-value: 6.96e-155" locus_tag="DLD99_RS10050" class="clusterblast-orf" id="dummy-1_h1_8_16"  />
</g>
<g id="a1_0017"  >
<polygon points="541,85 546,80 554,80 554,90 546,90 541,85 " style="fill:#d8157b; stroke-width:1; stroke:black; " description="&lt;b&gt;DLD99_RS10045&lt;/b&gt;&lt;br&gt;MFS transporter&lt;br&gt;Location: 2159610 - 2158438&lt;br&gt;&lt;br&gt;&lt;b&gt;BlastP hit with ctg27_23&lt;/b&gt;&lt;br&gt;Percentage identity: 90&lt;br&gt;Percentage coverage: 100&lt;br&gt;BLAST bit score: 660&lt;br&gt;E-value: 3.23e-239" locus_tag="DLD99_RS10045" class="clusterblast-orf" id="dummy-1_h1_8_17"  />
</g>
<g id="a1_0018"  >
<polygon points="556,90 560,90 565,85 560,80 556,80 556,90 " style="fill:#d0d815; stroke-width:1; stroke:black; " description="&lt;b&gt;DLD99_RS10040&lt;/b&gt;&lt;br&gt;glucose 1-dehydrogenase&lt;br&gt;Location: 2158229 - 2157429&lt;br&gt;&lt;br&gt;&lt;b&gt;BlastP hit with ctg27_24&lt;/b&gt;&lt;br&gt;Percentage identity: 83&lt;br&gt;Percentage coverage: 100&lt;br&gt;BLAST bit score: 423&lt;br&gt;E-value: 1.18e-149" locus_tag="DLD99_RS10040" class="clusterblast-orf" id="dummy-1_h1_8_18"  />
</g>
<g id="a1_0019"  >
<polygon points="565,90 581,90 586,85 581,80 565,80 565,90 " style="fill:#15d88c; stroke-width:1; stroke:black; " description="&lt;b&gt;DLD99_RS10035&lt;/b&gt;&lt;br&gt;glycoside hydrolase family 15 protein&lt;br&gt;Location: 2157436 - 2155610&lt;br&gt;&lt;br&gt;&lt;b&gt;BlastP hit with ctg27_25&lt;/b&gt;&lt;br&gt;Percentage identity: 88&lt;br&gt;Percentage coverage: 100&lt;br&gt;BLAST bit score: 1117&lt;br&gt;E-value: 0.0" locus_tag="DLD99_RS10035" class="clusterblast-orf" id="dummy-1_h1_8_19"  />
</g>
<g id="a1_0020"  >
<polygon points="589,90 589,90 594,85 589,80 589,80 589,90 " style="fill:#3715d8; stroke-width:1; stroke:black; " description="&lt;b&gt;DLD99_RS10030&lt;/b&gt;&lt;br&gt;hypothetical protein&lt;br&gt;Location: 2155301 - 2154912&lt;br&gt;&lt;br&gt;&lt;b&gt;BlastP hit with ctg27_26&lt;/b&gt;&lt;br&gt;Percentage identity: 85&lt;br&gt;Percentage coverage: 100&lt;br&gt;BLAST bit score: 231&lt;br&gt;E-value: 3.16e-78" locus_tag="DLD99_RS10030" class="clusterblast-orf" id="dummy-1_h1_8_20"  />
</g>
<g id="a1_0021"  >
<polygon points="595,90 602,90 607,85 602,80 595,80 595,90 " style="fill:white; stroke-width:1; stroke:black; " description="&lt;b&gt;DLD99_RS10025&lt;/b&gt;&lt;br&gt;hypothetical protein&lt;br&gt;Location: 2154838 - 2153756" locus_tag="DLD99_RS10025" class="clusterblast-orf" id="dummy-1_h1_8_21"  />
</g>
<g id="a1_0022"  >
<polygon points="608,90 613,90 618,85 613,80 608,80 608,90 " style="fill:#d81548; stroke-width:1; stroke:black; " description="&lt;b&gt;DLD99_RS10020&lt;/b&gt;&lt;br&gt;alpha/beta hydrolase&lt;br&gt;Location: 2153694 - 2152795&lt;br&gt;&lt;br&gt;&lt;b&gt;BlastP hit with ctg27_27&lt;/b&gt;&lt;br&gt;Percentage identity: 85&lt;br&gt;Percentage coverage: 96&lt;br&gt;BLAST bit score: 511&lt;br&gt;E-value: 2.59e-183" locus_tag="DLD99_RS10020" class="clusterblast-orf" id="dummy-1_h1_8_22"  />
</g>
<g id="a1_0023"  >
<polygon points="617,85 622,80 629,80 629,90 622,90 617,85 " style="fill:#9dd815; stroke-width:1; stroke:black; " description="&lt;b&gt;DLD99_RS10015&lt;/b&gt;&lt;br&gt;GlxA family transcriptional regulator&lt;br&gt;Location: 2152826 - 2151843&lt;br&gt;&lt;br&gt;&lt;b&gt;BlastP hit with ctg27_28&lt;/b&gt;&lt;br&gt;Percentage identity: 88&lt;br&gt;Percentage coverage: 100&lt;br&gt;BLAST bit score: 574&lt;br&gt;E-value: 3.39e-207&lt;br&gt;&lt;br&gt;&lt;b&gt;BlastP hit with ctg27_29&lt;/b&gt;&lt;br&gt;Percentage identity: 34&lt;br&gt;Percentage coverage: 84&lt;br&gt;BLAST bit score: 87&lt;br&gt;E-value: 2.43e-18" locus_tag="DLD99_RS10015" class="clusterblast-orf" id="dummy-1_h1_8_23"  />
</g>
<g id="a1_0024"  >
<polygon points="630,90 632,90 637,85 632,80 630,80 630,90 " style="fill:#9dd815; stroke-width:1; stroke:black; " description="&lt;b&gt;DLD99_RS10010&lt;/b&gt;&lt;br&gt;DJ-1/PfpI family protein&lt;br&gt;Location: 2151754 - 2151068&lt;br&gt;&lt;br&gt;&lt;b&gt;BlastP hit with ctg27_28&lt;/b&gt;&lt;br&gt;Percentage identity: 38&lt;br&gt;Percentage coverage: 59&lt;br&gt;BLAST bit score: 96&lt;br&gt;E-value: 2.79e-21&lt;br&gt;&lt;br&gt;&lt;b&gt;BlastP hit with ctg27_29&lt;/b&gt;&lt;br&gt;Percentage identity: 82&lt;br&gt;Percentage coverage: 100&lt;br&gt;BLAST bit score: 373&lt;br&gt;E-value: 4.09e-131" locus_tag="DLD99_RS10010" class="clusterblast-orf" id="dummy-1_h1_8_24"  />
</g>
<g id="a1_0025"  >
<polygon points="640,90 644,90 649,85 644,80 640,80 640,90 " style="fill:white; stroke-width:1; stroke:black; " description="&lt;b&gt;DLD99_RS10005&lt;/b&gt;&lt;br&gt;CPBP family intramembrane metalloprotease&lt;br&gt;Location: 2150832 - 2150041" locus_tag="DLD99_RS10005" class="clusterblast-orf" id="dummy-1_h1_8_25"  />
</g>
<g id="a1_0026"  >
<polygon points="650,90 663,90 668,85 663,80 650,80 650,90 " style="fill:white; stroke-width:1; stroke:black; " description="&lt;b&gt;DLD99_RS10000&lt;/b&gt;&lt;br&gt;methyl-accepting chemotaxis protein&lt;br&gt;Location: 2149938 - 2148373" locus_tag="DLD99_RS10000" class="clusterblast-orf" id="dummy-1_h1_8_26"  />
</g>
<g id="a1_0027"  >
<polygon points="669,85 673,80 673,90 669,85 " style="fill:white; stroke-width:1; stroke:black; " description="&lt;b&gt;DLD99_RS09995&lt;/b&gt;&lt;br&gt;hypothetical protein&lt;br&gt;Location: 2148297 - 2147938" locus_tag="DLD99_RS09995" class="clusterblast-orf" id="dummy-1_h1_8_27"  />
</g>
<g id="a1_0028"  >
<polygon points="683,85 688,80 691,80 691,90 688,90 683,85 " style="fill:white; stroke-width:1; stroke:black; " description="&lt;b&gt;DLD99_RS09990&lt;/b&gt;&lt;br&gt;alpha/beta hydrolase&lt;br&gt;Location: 2146999 - 2146319" locus_tag="DLD99_RS09990" class="clusterblast-orf" id="dummy-1_h1_8_28"  />
</g>
<g id="a1_0029"  >
<polygon points="692,90 703,90 708,85 703,80 692,80 692,90 " style="fill:white; stroke-width:1; stroke:black; " description="&lt;b&gt;DLD99_RS09985&lt;/b&gt;&lt;br&gt;cytochrome-c oxidase, cbb3-type subunit I&lt;br&gt;Location: 2146223 - 2144799" locus_tag="DLD99_RS09985" class="clusterblast-orf" id="dummy-1_h1_8_29"  />
</g>
<g id="a1_0030"  >
<polygon points="708,90 710,90 715,85 710,80 708,80 708,90 " style="fill:white; stroke-width:1; stroke:black; " description="&lt;b&gt;DLD99_RS09980&lt;/b&gt;&lt;br&gt;cytochrome-c oxidase, cbb3-type subunit II&lt;br&gt;Location: 2144788 - 2144180" locus_tag="DLD99_RS09980" class="clusterblast-orf" id="dummy-1_h1_8_30"  />
</g>
<g id="a1_0031"  >
<polygon points="715,90 717,85 715,80 715,90 " style="fill:white; stroke-width:1; stroke:black; " description="&lt;b&gt;DLD99_RS09975&lt;/b&gt;&lt;br&gt;cbb3-type cytochrome c oxidase subunit 3&lt;br&gt;Location: 2144174 - 2143977" locus_tag="DLD99_RS09975" class="clusterblast-orf" id="dummy-1_h1_8_31"  />
</g>
<g id="a1_0032"  >
<polygon points="717,90 723,90 728,85 723,80 717,80 717,90 " style="fill:white; stroke-width:1; stroke:black; " description="&lt;b&gt;DLD99_RS09970&lt;/b&gt;&lt;br&gt;cytochrome-c oxidase, cbb3-type subunit III&lt;br&gt;Location: 2143980 - 2143027" locus_tag="DLD99_RS09970" class="clusterblast-orf" id="dummy-1_h1_8_32"  />
</g>
</svg>
