<svg xmlns="http://www.w3.org/2000/svg" xmlns:xlink="http://www.w3.org/1999/xlink" version="1.1" x="0" y="0" height="230" width="800" viewBox="0 0 800 230" preserveAspectRatio="none"  >
<g label="Query sequence" class="clusterblast-cluster"  >
<text x="5" y="20" class="clusterblast-acc"  >
Query sequence</text>
<line x1="10" y1="35" x2="778.0" y2="35" style="stroke-width:1; stroke:grey; "  />
<polygon points="40,35 45,30 133,30 133,40 45,40 40,35 " style="fill:#d81515; stroke-width:1; stroke:black; " description="&lt;b&gt;ctg38_1&lt;/b&gt;&lt;br&gt;ctg38 1&lt;br&gt;Location: 2 - 5384" locus_tag="ctg38_1" class="clusterblast-orf" id="dummy-1_q0_0_all"  />
<polygon points="138,35 143,30 415,30 415,40 143,40 138,35 " style="fill:#d81515; stroke-width:1; stroke:black; " description="&lt;b&gt;ctg38_2&lt;/b&gt;&lt;br&gt;ctg38 2&lt;br&gt;Location: 5681 - 21734" locus_tag="ctg38_2" class="clusterblast-orf" id="dummy-1_q1_0_all"  />
<polygon points="426,40 433,40 438,35 433,30 426,30 426,40 " style="fill:#15d815; stroke-width:1; stroke:black; " description="&lt;b&gt;ctg38_3&lt;/b&gt;&lt;br&gt;ctg38 3&lt;br&gt;Location: 22380 - 23070" locus_tag="ctg38_3" class="clusterblast-orf" id="dummy-1_q2_0_all"  />
<polygon points="441,40 458,40 463,35 458,30 441,30 441,40 " style="fill:#1515d8; stroke-width:1; stroke:black; " description="&lt;b&gt;ctg38_4&lt;/b&gt;&lt;br&gt;ctg38 4&lt;br&gt;Location: 23216 - 24491" locus_tag="ctg38_4" class="clusterblast-orf" id="dummy-1_q3_0_all"  />
<polygon points="471,40 521,40 526,35 521,30 471,30 471,40 " style="fill:#d815d8; stroke-width:1; stroke:black; " description="&lt;b&gt;ctg38_5&lt;/b&gt;&lt;br&gt;ctg38 5&lt;br&gt;Location: 24949 - 28150" locus_tag="ctg38_5" class="clusterblast-orf" id="dummy-1_q4_0_all"  />
<polygon points="526,40 542,40 547,35 542,30 526,30 526,40 " style="fill:#d8d815; stroke-width:1; stroke:black; " description="&lt;b&gt;ctg38_6&lt;/b&gt;&lt;br&gt;ctg38 6&lt;br&gt;Location: 28151 - 29342" locus_tag="ctg38_6" class="clusterblast-orf" id="dummy-1_q5_0_all"  />
<polygon points="546,40 566,40 571,35 566,30 546,30 546,40 " style="fill:#1515d8; stroke-width:1; stroke:black; " description="&lt;b&gt;ctg38_7&lt;/b&gt;&lt;br&gt;ctg38 7&lt;br&gt;Location: 29334 - 30783" locus_tag="ctg38_7" class="clusterblast-orf" id="dummy-1_q6_0_all"  />
<polygon points="576,35 580,30 580,40 576,35 " style="fill:white; stroke-width:1; stroke:black; " description="&lt;b&gt;ctg38_8&lt;/b&gt;&lt;br&gt;ctg38 8&lt;br&gt;Location: 31046 - 31286" locus_tag="ctg38_8" class="clusterblast-orf" id="dummy-1_q7_0_all"  />
<polygon points="581,35 585,30 585,40 581,35 " style="fill:white; stroke-width:1; stroke:black; " description="&lt;b&gt;ctg38_9&lt;/b&gt;&lt;br&gt;ctg38 9&lt;br&gt;Location: 31318 - 31558" locus_tag="ctg38_9" class="clusterblast-orf" id="dummy-1_q8_0_all"  />
<polygon points="588,35 593,30 594,30 594,40 593,40 588,35 " style="fill:white; stroke-width:1; stroke:black; " description="&lt;b&gt;ctg38_10&lt;/b&gt;&lt;br&gt;ctg38 10&lt;br&gt;Location: 31727 - 32084" locus_tag="ctg38_10" class="clusterblast-orf" id="dummy-1_q9_0_all"  />
<polygon points="594,35 599,30 670,30 670,40 599,40 594,35 " style="fill:white; stroke-width:1; stroke:black; " description="&lt;b&gt;ctg38_11&lt;/b&gt;&lt;br&gt;ctg38 11&lt;br&gt;Location: 32087 - 36491" locus_tag="ctg38_11" class="clusterblast-orf" id="dummy-1_q10_0_all"  />
<polygon points="673,35 678,30 701,30 701,40 678,40 673,35 " style="fill:white; stroke-width:1; stroke:black; " description="&lt;b&gt;ctg38_12&lt;/b&gt;&lt;br&gt;ctg38 12&lt;br&gt;Location: 36692 - 38294" locus_tag="ctg38_12" class="clusterblast-orf" id="dummy-1_q11_0_all"  />
<polygon points="705,35 710,30 726,30 726,40 710,40 705,35 " style="fill:white; stroke-width:1; stroke:black; " description="&lt;b&gt;ctg38_13&lt;/b&gt;&lt;br&gt;ctg38 13&lt;br&gt;Location: 38540 - 39725" locus_tag="ctg38_13" class="clusterblast-orf" id="dummy-1_q12_0_all"  />
<polygon points="726,40 735,40 740,35 735,30 726,30 726,40 " style="fill:#15d8d8; stroke-width:1; stroke:black; " description="&lt;b&gt;ctg38_14&lt;/b&gt;&lt;br&gt;ctg38 14&lt;br&gt;Location: 39760 - 40525" locus_tag="ctg38_14" class="clusterblast-orf" id="dummy-1_q13_0_all"  />
</g>
<g label="NZ_QJRO01000011" description="NZ_QJRO01000011 (24336-70678): Pseudomonas soli strain LBp-160603 NODE 11 len... (11% of genes show similarity), NRPS" class="clusterblast-cluster"  >
<text x="5" y="70" class="clusterblast-acc"  >
<a xlink:href="https://antismash-db.secondarymetabolites.org/area.html?record=NZ_QJRO01000011&amp;start=24336&amp;end=70678" target="_blank">NZ_QJRO01000011 (24336-70678)</a>: Pseudomonas soli strain LBp-160603 NODE 11 len... (11% of genes show similarity), NRPS</text>
<line x1="10" y1="85" x2="778.0" y2="85" style="stroke-width:1; stroke:grey; "  />
</g>
<g id="a1_000"  >
<polygon points="0,85 5,80 18,80 18,90 5,90 0,85 " style="fill:white; stroke-width:1; stroke:black; " description="&lt;b&gt;DMX07_RS16790&lt;/b&gt;&lt;br&gt;efflux RND transporter periplasmic adaptor subunit&lt;br&gt;Location: 69784 - 68690" locus_tag="DMX07_RS16790" class="clusterblast-orf" id="dummy-1_h1_4_0"  />
</g>
<g id="a1_001"  >
<polygon points="19,85 24,80 27,80 27,90 24,90 19,85 " style="fill:white; stroke-width:1; stroke:black; " description="&lt;b&gt;DMX07_RS16785&lt;/b&gt;&lt;br&gt;DUF2165 family protein&lt;br&gt;Location: 68675 - 68190" locus_tag="DMX07_RS16785" class="clusterblast-orf" id="dummy-1_h1_4_1"  />
</g>
<g id="a1_002"  >
<polygon points="31,85 36,80 52,80 52,90 36,90 31,85 " style="fill:white; stroke-width:1; stroke:black; " description="&lt;b&gt;DMX07_RS16780&lt;/b&gt;&lt;br&gt;sugar transporter&lt;br&gt;Location: 67985 - 66771" locus_tag="DMX07_RS16780" class="clusterblast-orf" id="dummy-1_h1_4_2"  />
</g>
<g id="a1_003"  >
<polygon points="55,90 73,90 78,85 73,80 55,80 55,90 " style="fill:white; stroke-width:1; stroke:black; " description="&lt;b&gt;DMX07_RS16775&lt;/b&gt;&lt;br&gt;hypothetical protein&lt;br&gt;Location: 66551 - 65235" locus_tag="DMX07_RS16775" class="clusterblast-orf" id="dummy-1_h1_4_3"  />
</g>
<g id="a1_004"  >
<polygon points="79,85 84,80 96,80 96,90 84,90 79,85 " style="fill:white; stroke-width:1; stroke:black; " description="&lt;b&gt;DMX07_RS16770&lt;/b&gt;&lt;br&gt;bile acid:sodium symporter&lt;br&gt;Location: 65201 - 64209" locus_tag="DMX07_RS16770" class="clusterblast-orf" id="dummy-1_h1_4_4"  />
</g>
<g id="a1_005"  >
<polygon points="98,90 113,90 118,85 113,80 98,80 98,90 " style="fill:white; stroke-width:1; stroke:black; " description="&lt;b&gt;DMX07_RS16765&lt;/b&gt;&lt;br&gt;class C beta-lactamase&lt;br&gt;Location: 64075 - 62936" locus_tag="DMX07_RS16765" class="clusterblast-orf" id="dummy-1_h1_4_5"  />
</g>
<g id="a1_006"  >
<polygon points="124,90 124,90 129,85 124,80 124,80 124,90 " style="fill:white; stroke-width:1; stroke:black; " description="&lt;b&gt;DMX07_RS16760&lt;/b&gt;&lt;br&gt;hypothetical protein&lt;br&gt;Location: 62592 - 62260" locus_tag="DMX07_RS16760" class="clusterblast-orf" id="dummy-1_h1_4_6"  />
</g>
<g id="a1_007"  >
<polygon points="130,85 135,80 136,80 136,90 135,90 130,85 " style="fill:white; stroke-width:1; stroke:black; " description="&lt;b&gt;DMX07_RS16755&lt;/b&gt;&lt;br&gt;hypothetical protein&lt;br&gt;Location: 62206 - 61901" locus_tag="DMX07_RS16755" class="clusterblast-orf" id="dummy-1_h1_4_7"  />
</g>
<g id="a1_008"  >
<polygon points="140,85 143,80 143,90 140,85 " style="fill:white; stroke-width:1; stroke:black; " description="&lt;b&gt;DMX07_RS16750&lt;/b&gt;&lt;br&gt;hypothetical protein&lt;br&gt;Location: 61675 - 61487" locus_tag="DMX07_RS16750" class="clusterblast-orf" id="dummy-1_h1_4_8"  />
</g>
<g id="a1_009"  >
<polygon points="145,85 150,80 151,80 151,90 150,90 145,85 " style="fill:white; stroke-width:1; stroke:black; " description="&lt;b&gt;DMX07_RS16745&lt;/b&gt;&lt;br&gt;YbjQ family protein&lt;br&gt;Location: 61346 - 61026" locus_tag="DMX07_RS16745" class="clusterblast-orf" id="dummy-1_h1_4_9"  />
</g>
<g id="a1_0010"  >
<polygon points="153,90 173,90 178,85 173,80 153,80 153,90 " style="fill:white; stroke-width:1; stroke:black; " description="&lt;b&gt;DMX07_RS16740&lt;/b&gt;&lt;br&gt;MFS transporter&lt;br&gt;Location: 60891 - 59470" locus_tag="DMX07_RS16740" class="clusterblast-orf" id="dummy-1_h1_4_10"  />
</g>
<g id="a1_0011"  >
<polygon points="178,90 185,90 190,85 185,80 178,80 178,90 " style="fill:white; stroke-width:1; stroke:black; " description="&lt;b&gt;DMX07_RS16735&lt;/b&gt;&lt;br&gt;class I SAM-dependent methyltransferase&lt;br&gt;Location: 59467 - 58739" locus_tag="DMX07_RS16735" class="clusterblast-orf" id="dummy-1_h1_4_11"  />
</g>
<g id="a1_0012"  >
<polygon points="193,85 198,80 208,80 208,90 198,90 193,85 " style="fill:white; stroke-width:1; stroke:black; " description="&lt;b&gt;DMX07_RS16730&lt;/b&gt;&lt;br&gt;bifunctional diaminohydroxyphosphoribosylaminopyrimidine deaminase/5-amino-6-(5-phosphoribosylamino)uracil reductase RibD&lt;br&gt;Location: 58608 - 57694" locus_tag="DMX07_RS16730" class="clusterblast-orf" id="dummy-1_h1_4_12"  />
</g>
<g id="a1_0013"  >
<polygon points="208,85 213,80 220,80 220,90 213,90 208,85 " style="fill:white; stroke-width:1; stroke:black; " description="&lt;b&gt;DMX07_RS16725&lt;/b&gt;&lt;br&gt;class I SAM-dependent methyltransferase&lt;br&gt;Location: 57697 - 57038" locus_tag="DMX07_RS16725" class="clusterblast-orf" id="dummy-1_h1_4_13"  />
</g>
<g id="a1_0014"  >
<polygon points="220,85 225,80 249,80 249,90 225,90 220,85 " style="fill:white; stroke-width:1; stroke:black; " description="&lt;b&gt;DMX07_RS16720&lt;/b&gt;&lt;br&gt;hypothetical protein&lt;br&gt;Location: 57025 - 55334" locus_tag="DMX07_RS16720" class="clusterblast-orf" id="dummy-1_h1_4_14"  />
</g>
<g id="a1_0015"  >
<polygon points="250,85 255,80 260,80 260,90 255,90 250,85 " style="fill:white; stroke-width:1; stroke:black; " description="&lt;b&gt;DMX07_RS16715&lt;/b&gt;&lt;br&gt;GTP cyclohydrolase II RibA&lt;br&gt;Location: 55309 - 54713" locus_tag="DMX07_RS16715" class="clusterblast-orf" id="dummy-1_h1_4_15"  />
</g>
<g id="a1_0016"  >
<polygon points="260,85 265,80 278,80 278,90 265,90 260,85 " style="fill:white; stroke-width:1; stroke:black; " description="&lt;b&gt;DMX07_RS16710&lt;/b&gt;&lt;br&gt;SUMF1/EgtB/PvdO family nonheme iron enzyme&lt;br&gt;Location: 54678 - 53668" locus_tag="DMX07_RS16710" class="clusterblast-orf" id="dummy-1_h1_4_16"  />
</g>
<g id="a1_0017"  >
<polygon points="279,85 284,80 294,80 294,90 284,90 279,85 " style="fill:white; stroke-width:1; stroke:black; " description="&lt;b&gt;DMX07_RS16705&lt;/b&gt;&lt;br&gt;VOC family protein&lt;br&gt;Location: 53602 - 52709" locus_tag="DMX07_RS16705" class="clusterblast-orf" id="dummy-1_h1_4_17"  />
</g>
<g id="a1_0018"  >
<polygon points="294,85 299,80 313,80 313,90 299,90 294,85 " style="fill:white; stroke-width:1; stroke:black; " description="&lt;b&gt;DMX07_RS16700&lt;/b&gt;&lt;br&gt;methyltransferase domain-containing protein&lt;br&gt;Location: 52709 - 51666" locus_tag="DMX07_RS16700" class="clusterblast-orf" id="dummy-1_h1_4_18"  />
</g>
<g id="a1_0019"  >
<polygon points="318,90 324,90 329,85 324,80 318,80 318,90 " style="fill:white; stroke-width:1; stroke:black; " description="&lt;b&gt;DMX07_RS16695&lt;/b&gt;&lt;br&gt;transcriptional regulator&lt;br&gt;Location: 51354 - 50710" locus_tag="DMX07_RS16695" class="clusterblast-orf" id="dummy-1_h1_4_19"  />
</g>
<g id="a1_0020"  >
<polygon points="330,85 335,80 439,80 439,90 335,90 330,85 " style="fill:#d81515; stroke-width:1; stroke:black; " description="&lt;b&gt;DMX07_RS16690&lt;/b&gt;&lt;br&gt;amino acid adenylation domain-containing protein&lt;br&gt;Location: 50678 - 44337&lt;br&gt;&lt;br&gt;&lt;b&gt;BlastP hit with ctg38_1&lt;/b&gt;&lt;br&gt;Percentage identity: 40&lt;br&gt;Percentage coverage: 96&lt;br&gt;BLAST bit score: 1068&lt;br&gt;E-value: 0.0&lt;br&gt;&lt;br&gt;&lt;b&gt;BlastP hit with ctg38_2&lt;/b&gt;&lt;br&gt;Percentage identity: 49&lt;br&gt;Percentage coverage: 40&lt;br&gt;BLAST bit score: 1889&lt;br&gt;E-value: 0.0" locus_tag="DMX07_RS16690" class="clusterblast-orf" id="dummy-1_h1_4_20"  />
</g>
<g id="a1_0021"  >
<polygon points="446,90 454,90 459,85 454,80 446,80 446,90 " style="fill:#15d815; stroke-width:1; stroke:black; " description="&lt;b&gt;DMX07_RS16685&lt;/b&gt;&lt;br&gt;helix-turn-helix transcriptional regulator&lt;br&gt;Location: 43917 - 43165&lt;br&gt;&lt;br&gt;&lt;b&gt;BlastP hit with ctg38_3&lt;/b&gt;&lt;br&gt;Percentage identity: 53&lt;br&gt;Percentage coverage: 100&lt;br&gt;BLAST bit score: 218&lt;br&gt;E-value: 2.34e-69" locus_tag="DMX07_RS16685" class="clusterblast-orf" id="dummy-1_h1_4_21"  />
</g>
<g id="a1_0022"  >
<polygon points="460,90 479,90 484,85 479,80 460,80 460,90 " style="fill:#1515d8; stroke-width:1; stroke:black; " description="&lt;b&gt;DMX07_RS16680&lt;/b&gt;&lt;br&gt;efflux transporter outer membrane subunit&lt;br&gt;Location: 43148 - 41718&lt;br&gt;&lt;br&gt;&lt;b&gt;BlastP hit with ctg38_4&lt;/b&gt;&lt;br&gt;Percentage identity: 68&lt;br&gt;Percentage coverage: 98&lt;br&gt;BLAST bit score: 540&lt;br&gt;E-value: 5.51e-190&lt;br&gt;&lt;br&gt;&lt;b&gt;BlastP hit with ctg38_7&lt;/b&gt;&lt;br&gt;Percentage identity: 35&lt;br&gt;Percentage coverage: 94&lt;br&gt;BLAST bit score: 205&lt;br&gt;E-value: 1.47e-58" locus_tag="DMX07_RS16680" class="clusterblast-orf" id="dummy-1_h1_4_22"  />
</g>
<g id="a1_0023"  >
<polygon points="484,85 489,80 497,80 497,90 489,90 484,85 " style="fill:#15d8d8; stroke-width:1; stroke:black; " description="&lt;b&gt;DMX07_RS16675&lt;/b&gt;&lt;br&gt;helix-turn-helix transcriptional regulator&lt;br&gt;Location: 41748 - 40996&lt;br&gt;&lt;br&gt;&lt;b&gt;BlastP hit with ctg38_14&lt;/b&gt;&lt;br&gt;Percentage identity: 35&lt;br&gt;Percentage coverage: 88&lt;br&gt;BLAST bit score: 125&lt;br&gt;E-value: 7.86e-33" locus_tag="DMX07_RS16675" class="clusterblast-orf" id="dummy-1_h1_4_23"  />
</g>
<g id="a1_0024"  >
<polygon points="498,85 503,80 506,80 506,90 503,90 498,85 " style="fill:white; stroke-width:1; stroke:black; " description="&lt;b&gt;DMX07_RS16670&lt;/b&gt;&lt;br&gt;PACE efflux transporter&lt;br&gt;Location: 40908 - 40471" locus_tag="DMX07_RS16670" class="clusterblast-orf" id="dummy-1_h1_4_24"  />
</g>
<g id="a1_0025"  >
<polygon points="511,90 526,90 531,85 526,80 511,80 511,90 " style="fill:white; stroke-width:1; stroke:black; " description="&lt;b&gt;DMX07_RS16665&lt;/b&gt;&lt;br&gt;UDP-N-acetylglucosamine 2-epimerase (non-hydrolyzing)&lt;br&gt;Location: 40155 - 39001" locus_tag="DMX07_RS16665" class="clusterblast-orf" id="dummy-1_h1_4_25"  />
</g>
<g id="a1_0026"  >
<polygon points="531,90 564,90 569,85 564,80 531,80 531,90 " style="fill:white; stroke-width:1; stroke:black; " description="&lt;b&gt;DMX07_RS16660&lt;/b&gt;&lt;br&gt;phage adsorption protein NrfB&lt;br&gt;Location: 39004 - 36830" locus_tag="DMX07_RS16660" class="clusterblast-orf" id="dummy-1_h1_4_26"  />
</g>
<g id="a1_0027"  >
<polygon points="569,90 616,90 621,85 616,80 569,80 569,90 " style="fill:white; stroke-width:1; stroke:black; " description="&lt;b&gt;DMX07_RS16655&lt;/b&gt;&lt;br&gt;phage receptor&lt;br&gt;Location: 36833 - 33831" locus_tag="DMX07_RS16655" class="clusterblast-orf" id="dummy-1_h1_4_27"  />
</g>
<g id="a1_0028"  >
<polygon points="621,90 630,90 635,85 630,80 621,80 621,90 " style="fill:white; stroke-width:1; stroke:black; " description="&lt;b&gt;DMX07_RS16650&lt;/b&gt;&lt;br&gt;DUF4434 family protein&lt;br&gt;Location: 33831 - 32992" locus_tag="DMX07_RS16650" class="clusterblast-orf" id="dummy-1_h1_4_28"  />
</g>
<g id="a1_0029"  >
<polygon points="636,90 650,90 655,85 650,80 636,80 636,90 " style="fill:white; stroke-width:1; stroke:black; " description="&lt;b&gt;DMX07_RS16645&lt;/b&gt;&lt;br&gt;GGDEF domain-containing protein&lt;br&gt;Location: 32920 - 31835" locus_tag="DMX07_RS16645" class="clusterblast-orf" id="dummy-1_h1_4_29"  />
</g>
<g id="a1_0030"  >
<polygon points="657,85 662,80 679,80 679,90 662,90 657,85 " style="fill:white; stroke-width:1; stroke:black; " description="&lt;b&gt;DMX07_RS16640&lt;/b&gt;&lt;br&gt;HAMP domain-containing protein&lt;br&gt;Location: 31744 - 30446" locus_tag="DMX07_RS16640" class="clusterblast-orf" id="dummy-1_h1_4_30"  />
</g>
<g id="a1_0031"  >
<polygon points="679,85 684,80 691,80 691,90 684,90 679,85 " style="fill:white; stroke-width:1; stroke:black; " description="&lt;b&gt;DMX07_RS16635&lt;/b&gt;&lt;br&gt;response regulator transcription factor&lt;br&gt;Location: 30439 - 29738" locus_tag="DMX07_RS16635" class="clusterblast-orf" id="dummy-1_h1_4_31"  />
</g>
<g id="a1_0032"  >
<polygon points="694,90 709,90 714,85 709,80 694,80 694,90 " style="fill:white; stroke-width:1; stroke:black; " description="&lt;b&gt;DMX07_RS16630&lt;/b&gt;&lt;br&gt;efflux RND transporter periplasmic adaptor subunit&lt;br&gt;Location: 29579 - 28404" locus_tag="DMX07_RS16630" class="clusterblast-orf" id="dummy-1_h1_4_32"  />
</g>
<g id="a1_0033"  >
<polygon points="715,90 764,90 769,85 764,80 715,80 715,90 " style="fill:white; stroke-width:1; stroke:black; " description="&lt;b&gt;DMX07_RS16625&lt;/b&gt;&lt;br&gt;multidrug efflux RND transporter permease subunit&lt;br&gt;Location: 28392 - 25270" locus_tag="DMX07_RS16625" class="clusterblast-orf" id="dummy-1_h1_4_33"  />
</g>
<g id="a1_0034"  >
<polygon points="770,85 775,80 775,80 775,90 775,90 770,85 " style="fill:white; stroke-width:1; stroke:black; " description="&lt;b&gt;DMX07_RS16620&lt;/b&gt;&lt;br&gt;HU family DNA-binding protein&lt;br&gt;Location: 25192 - 24920" locus_tag="DMX07_RS16620" class="clusterblast-orf" id="dummy-1_h1_4_34"  />
</g>
<g id="a1_0035"  >
<polygon points="775,85 779,80 779,90 775,85 " style="fill:white; stroke-width:1; stroke:black; " description="&lt;b&gt;DMX07_RS16615&lt;/b&gt;&lt;br&gt;HU family DNA-binding protein&lt;br&gt;Location: 24874 - 24635" locus_tag="DMX07_RS16615" class="clusterblast-orf" id="dummy-1_h1_4_35"  />
</g>
</svg>
