<svg xmlns="http://www.w3.org/2000/svg" xmlns:xlink="http://www.w3.org/1999/xlink" version="1.1" x="0" y="0" height="230" width="800" viewBox="0 0 800 230" preserveAspectRatio="none"  >
<g label="Query sequence" class="clusterblast-cluster"  >
<text x="5" y="20" class="clusterblast-acc"  >
Query sequence</text>
<line x1="10" y1="35" x2="778.0" y2="35" style="stroke-width:1; stroke:grey; "  />
<polygon points="0,40 2,35 0,30 0,40 " style="fill:white; stroke-width:1; stroke:black; " description="&lt;b&gt;ctg27_1&lt;/b&gt;&lt;br&gt;ctg27 1&lt;br&gt;Location: 656 - 863" locus_tag="ctg27_1" class="clusterblast-orf" id="dummy-1_q0_0_all"  />
<polygon points="6,40 8,35 6,30 6,40 " style="fill:white; stroke-width:1; stroke:black; " description="&lt;b&gt;ctg27_2&lt;/b&gt;&lt;br&gt;ctg27 2&lt;br&gt;Location: 1242 - 1389" locus_tag="ctg27_2" class="clusterblast-orf" id="dummy-1_q1_0_all"  />
<polygon points="8,40 13,40 18,35 13,30 8,30 8,40 " style="fill:white; stroke-width:1; stroke:black; " description="&lt;b&gt;ctg27_3&lt;/b&gt;&lt;br&gt;ctg27 3&lt;br&gt;Location: 1385 - 2267" locus_tag="ctg27_3" class="clusterblast-orf" id="dummy-1_q2_0_all"  />
<polygon points="19,40 22,35 19,30 19,40 " style="fill:white; stroke-width:1; stroke:black; " description="&lt;b&gt;ctg27_4&lt;/b&gt;&lt;br&gt;ctg27 4&lt;br&gt;Location: 2415 - 2646" locus_tag="ctg27_4" class="clusterblast-orf" id="dummy-1_q3_0_all"  />
<polygon points="25,40 29,35 25,30 25,40 " style="fill:white; stroke-width:1; stroke:black; " description="&lt;b&gt;ctg27_5&lt;/b&gt;&lt;br&gt;ctg27 5&lt;br&gt;Location: 2915 - 3236" locus_tag="ctg27_5" class="clusterblast-orf" id="dummy-1_q4_0_all"  />
<polygon points="30,35 35,30 61,30 61,40 35,40 30,35 " style="fill:#d81515; stroke-width:1; stroke:black; " description="&lt;b&gt;ctg27_6&lt;/b&gt;&lt;br&gt;ctg27 6&lt;br&gt;Location: 3385 - 6109" locus_tag="ctg27_6" class="clusterblast-orf" id="dummy-1_q5_0_all"  />
<polygon points="70,35 75,30 85,30 85,40 75,40 70,35 " style="fill:#6ad815; stroke-width:1; stroke:black; " description="&lt;b&gt;ctg27_7&lt;/b&gt;&lt;br&gt;ctg27 7&lt;br&gt;Location: 6872 - 8210" locus_tag="ctg27_7" class="clusterblast-orf" id="dummy-1_q6_0_all"  />
<polygon points="86,35 91,30 92,30 92,40 91,40 86,35 " style="fill:#15bfd8; stroke-width:1; stroke:black; " description="&lt;b&gt;ctg27_8&lt;/b&gt;&lt;br&gt;ctg27 8&lt;br&gt;Location: 8337 - 8817" locus_tag="ctg27_8" class="clusterblast-orf" id="dummy-1_q7_0_all"  />
<polygon points="96,40 104,40 109,35 104,30 96,30 96,40 " style="fill:#9d15d8; stroke-width:1; stroke:black; " description="&lt;b&gt;ctg27_9&lt;/b&gt;&lt;br&gt;ctg27 9&lt;br&gt;Location: 9141 - 10305" locus_tag="ctg27_9" class="clusterblast-orf" id="dummy-1_q8_0_all"  />
<polygon points="109,40 126,40 131,35 126,30 109,30 109,40 " style="fill:#d84815; stroke-width:1; stroke:black; " description="&lt;b&gt;ctg27_10&lt;/b&gt;&lt;br&gt;ctg27 10&lt;br&gt;Location: 10305 - 12279" locus_tag="ctg27_10" class="clusterblast-orf" id="dummy-1_q9_0_all"  />
<polygon points="131,40 142,40 147,35 142,30 131,30 131,40 " style="fill:#37d815; stroke-width:1; stroke:black; " description="&lt;b&gt;ctg27_11&lt;/b&gt;&lt;br&gt;ctg27 11&lt;br&gt;Location: 12286 - 13681" locus_tag="ctg27_11" class="clusterblast-orf" id="dummy-1_q10_0_all"  />
<polygon points="148,35 153,30 166,30 166,40 153,40 148,35 " style="fill:#158cd8; stroke-width:1; stroke:black; " description="&lt;b&gt;ctg27_12&lt;/b&gt;&lt;br&gt;ctg27 12&lt;br&gt;Location: 13754 - 15380" locus_tag="ctg27_12" class="clusterblast-orf" id="dummy-1_q11_0_all"  />
<polygon points="169,40 179,40 184,35 179,30 169,30 169,40 " style="fill:#d015d8; stroke-width:1; stroke:black; " description="&lt;b&gt;ctg27_13&lt;/b&gt;&lt;br&gt;ctg27 13&lt;br&gt;Location: 15608 - 16946" locus_tag="ctg27_13" class="clusterblast-orf" id="dummy-1_q12_0_all"  />
<polygon points="185,40 190,40 195,35 190,30 185,30 185,40 " style="fill:#d87b15; stroke-width:1; stroke:black; " description="&lt;b&gt;ctg27_14&lt;/b&gt;&lt;br&gt;ctg27 14&lt;br&gt;Location: 17037 - 17925" locus_tag="ctg27_14" class="clusterblast-orf" id="dummy-1_q13_0_all"  />
<polygon points="196,40 210,40 215,35 210,30 196,30 196,40 " style="fill:#15d826; stroke-width:1; stroke:black; " description="&lt;b&gt;ctg27_15&lt;/b&gt;&lt;br&gt;ctg27 15&lt;br&gt;Location: 18029 - 19679" locus_tag="ctg27_15" class="clusterblast-orf" id="dummy-1_q14_0_all"  />
<polygon points="216,40 239,40 244,35 239,30 216,30 216,40 " style="fill:#1559d8; stroke-width:1; stroke:black; " description="&lt;b&gt;ctg27_16&lt;/b&gt;&lt;br&gt;ctg27 16&lt;br&gt;Location: 19841 - 22274" locus_tag="ctg27_16" class="clusterblast-orf" id="dummy-1_q15_0_all"  />
<polygon points="247,35 252,30 258,30 258,40 252,40 247,35 " style="fill:#d815ae; stroke-width:1; stroke:black; " description="&lt;b&gt;ctg27_17&lt;/b&gt;&lt;br&gt;ctg27 17&lt;br&gt;Location: 22552 - 23509" locus_tag="ctg27_17" class="clusterblast-orf" id="dummy-1_q16_0_all"  />
<polygon points="260,35 265,30 413,30 413,40 265,40 260,35 " style="fill:#d8ae15; stroke-width:1; stroke:black; " description="&lt;b&gt;ctg27_18&lt;/b&gt;&lt;br&gt;ctg27 18&lt;br&gt;Location: 23659 - 37225" locus_tag="ctg27_18" class="clusterblast-orf" id="dummy-1_q17_0_all"  />
<polygon points="413,35 418,30 502,30 502,40 418,40 413,35 " style="fill:#d8ae15; stroke-width:1; stroke:black; " description="&lt;b&gt;ctg27_19&lt;/b&gt;&lt;br&gt;ctg27 19&lt;br&gt;Location: 37238 - 45065" locus_tag="ctg27_19" class="clusterblast-orf" id="dummy-1_q18_0_all"  />
<polygon points="501,35 506,30 540,30 540,40 506,40 501,35 " style="fill:#d8ae15; stroke-width:1; stroke:black; " description="&lt;b&gt;ctg27_20&lt;/b&gt;&lt;br&gt;ctg27 20&lt;br&gt;Location: 45061 - 48463" locus_tag="ctg27_20" class="clusterblast-orf" id="dummy-1_q19_0_all"  />
<polygon points="543,35 548,30 554,30 554,40 548,40 543,35 " style="fill:#15d859; stroke-width:1; stroke:black; " description="&lt;b&gt;ctg27_21&lt;/b&gt;&lt;br&gt;ctg27 21&lt;br&gt;Location: 48698 - 49682" locus_tag="ctg27_21" class="clusterblast-orf" id="dummy-1_q20_0_all"  />
<polygon points="554,35 559,30 563,30 563,40 559,40 554,35 " style="fill:#1526d8; stroke-width:1; stroke:black; " description="&lt;b&gt;ctg27_22&lt;/b&gt;&lt;br&gt;ctg27 22&lt;br&gt;Location: 49721 - 50462" locus_tag="ctg27_22" class="clusterblast-orf" id="dummy-1_q21_0_all"  />
<polygon points="564,35 569,30 577,30 577,40 569,40 564,35 " style="fill:#d8157b; stroke-width:1; stroke:black; " description="&lt;b&gt;ctg27_23&lt;/b&gt;&lt;br&gt;ctg27 23&lt;br&gt;Location: 50555 - 51728" locus_tag="ctg27_23" class="clusterblast-orf" id="dummy-1_q22_0_all"  />
<polygon points="580,40 584,40 589,35 584,30 580,30 580,40 " style="fill:#d0d815; stroke-width:1; stroke:black; " description="&lt;b&gt;ctg27_24&lt;/b&gt;&lt;br&gt;ctg27 24&lt;br&gt;Location: 51984 - 52785" locus_tag="ctg27_24" class="clusterblast-orf" id="dummy-1_q23_0_all"  />
<polygon points="589,40 604,40 609,35 604,30 589,30 589,40 " style="fill:#15d88c; stroke-width:1; stroke:black; " description="&lt;b&gt;ctg27_25&lt;/b&gt;&lt;br&gt;ctg27 25&lt;br&gt;Location: 52777 - 54604" locus_tag="ctg27_25" class="clusterblast-orf" id="dummy-1_q24_0_all"  />
<polygon points="615,40 615,40 620,35 615,30 615,30 615,40 " style="fill:#3715d8; stroke-width:1; stroke:black; " description="&lt;b&gt;ctg27_26&lt;/b&gt;&lt;br&gt;ctg27 26&lt;br&gt;Location: 55113 - 55503" locus_tag="ctg27_26" class="clusterblast-orf" id="dummy-1_q25_0_all"  />
<polygon points="621,40 626,40 631,35 626,30 621,30 621,40 " style="fill:#d81548; stroke-width:1; stroke:black; " description="&lt;b&gt;ctg27_27&lt;/b&gt;&lt;br&gt;ctg27 27&lt;br&gt;Location: 55638 - 56535" locus_tag="ctg27_27" class="clusterblast-orf" id="dummy-1_q26_0_all"  />
<polygon points="631,35 636,30 642,30 642,40 636,40 631,35 " style="fill:#9dd815; stroke-width:1; stroke:black; " description="&lt;b&gt;ctg27_28&lt;/b&gt;&lt;br&gt;ctg27 28&lt;br&gt;Location: 56503 - 57487" locus_tag="ctg27_28" class="clusterblast-orf" id="dummy-1_q27_0_all"  />
<polygon points="643,40 646,40 651,35 646,30 643,30 643,40 " style="fill:#9dd815; stroke-width:1; stroke:black; " description="&lt;b&gt;ctg27_29&lt;/b&gt;&lt;br&gt;ctg27 29&lt;br&gt;Location: 57578 - 58262" locus_tag="ctg27_29" class="clusterblast-orf" id="dummy-1_q28_0_all"  />
<polygon points="652,35 657,30 663,30 663,40 657,40 652,35 " style="fill:white; stroke-width:1; stroke:black; " description="&lt;b&gt;ctg27_30&lt;/b&gt;&lt;br&gt;ctg27 30&lt;br&gt;Location: 58399 - 59353" locus_tag="ctg27_30" class="clusterblast-orf" id="dummy-1_q29_0_all"  />
<polygon points="664,35 669,30 670,30 670,40 669,40 664,35 " style="fill:white; stroke-width:1; stroke:black; " description="&lt;b&gt;ctg27_31&lt;/b&gt;&lt;br&gt;ctg27 31&lt;br&gt;Location: 59418 - 59967" locus_tag="ctg27_31" class="clusterblast-orf" id="dummy-1_q30_0_all"  />
<polygon points="670,35 675,30 676,30 676,40 675,40 670,35 " style="fill:white; stroke-width:1; stroke:black; " description="&lt;b&gt;ctg27_32&lt;/b&gt;&lt;br&gt;ctg27 32&lt;br&gt;Location: 59978 - 60458" locus_tag="ctg27_32" class="clusterblast-orf" id="dummy-1_q31_0_all"  />
<polygon points="676,35 681,30 681,30 681,40 681,40 676,35 " style="fill:white; stroke-width:1; stroke:black; " description="&lt;b&gt;ctg27_33&lt;/b&gt;&lt;br&gt;ctg27 33&lt;br&gt;Location: 60471 - 60987" locus_tag="ctg27_33" class="clusterblast-orf" id="dummy-1_q32_0_all"  />
<polygon points="681,35 686,30 688,30 688,40 686,40 681,35 " style="fill:white; stroke-width:1; stroke:black; " description="&lt;b&gt;ctg27_34&lt;/b&gt;&lt;br&gt;ctg27 34&lt;br&gt;Location: 60979 - 61561" locus_tag="ctg27_34" class="clusterblast-orf" id="dummy-1_q33_0_all"  />
<polygon points="688,35 693,30 697,30 697,40 693,40 688,35 " style="fill:white; stroke-width:1; stroke:black; " description="&lt;b&gt;ctg27_35&lt;/b&gt;&lt;br&gt;ctg27 35&lt;br&gt;Location: 61582 - 62344" locus_tag="ctg27_35" class="clusterblast-orf" id="dummy-1_q34_0_all"  />
<polygon points="697,35 702,30 725,30 725,40 702,40 697,35 " style="fill:white; stroke-width:1; stroke:black; " description="&lt;b&gt;ctg27_36&lt;/b&gt;&lt;br&gt;ctg27 36&lt;br&gt;Location: 62340 - 64875" locus_tag="ctg27_36" class="clusterblast-orf" id="dummy-1_q35_0_all"  />
<polygon points="727,35 732,30 733,30 733,40 732,40 727,35 " style="fill:white; stroke-width:1; stroke:black; " description="&lt;b&gt;ctg27_37&lt;/b&gt;&lt;br&gt;ctg27 37&lt;br&gt;Location: 64972 - 65533" locus_tag="ctg27_37" class="clusterblast-orf" id="dummy-1_q36_0_all"  />
<polygon points="733,35 738,30 739,30 739,40 738,40 733,35 " style="fill:white; stroke-width:1; stroke:black; " description="&lt;b&gt;ctg27_38&lt;/b&gt;&lt;br&gt;ctg27 38&lt;br&gt;Location: 65584 - 66106" locus_tag="ctg27_38" class="clusterblast-orf" id="dummy-1_q37_0_all"  />
<polygon points="747,35 752,30 759,30 759,40 752,40 747,35 " style="fill:white; stroke-width:1; stroke:black; " description="&lt;b&gt;ctg27_39&lt;/b&gt;&lt;br&gt;ctg27 39&lt;br&gt;Location: 66794 - 67850" locus_tag="ctg27_39" class="clusterblast-orf" id="dummy-1_q38_0_all"  />
<polygon points="765,35 770,30 774,30 774,40 770,40 765,35 " style="fill:#15d8bf; stroke-width:1; stroke:black; " description="&lt;b&gt;ctg27_40&lt;/b&gt;&lt;br&gt;ctg27 40&lt;br&gt;Location: 68371 - 69199" locus_tag="ctg27_40" class="clusterblast-orf" id="dummy-1_q39_0_all"  />
<polygon points="774,35 779,30 780,30 780,40 779,40 774,35 " style="fill:#6a15d8; stroke-width:1; stroke:black; " description="&lt;b&gt;ctg27_41&lt;/b&gt;&lt;br&gt;ctg27 41&lt;br&gt;Location: 69179 - 69668" locus_tag="ctg27_41" class="clusterblast-orf" id="dummy-1_q40_0_all"  />
</g>
<g label="NZ_CM001561" description="NZ_CM001561 (2053576-2115971): Pseudomonas fluorescens R124 chromosome, whole... (67% of genes show similarity), NRPS" class="clusterblast-cluster"  >
<text x="5" y="70" class="clusterblast-acc"  >
<a xlink:href="https://antismash-db.secondarymetabolites.org/area.html?record=NZ_CM001561&amp;start=2053576&amp;end=2115971" target="_blank">NZ_CM001561 (2053576-2115971)</a>: Pseudomonas fluorescens R124 chromosome, whole... (67% of genes show similarity), NRPS</text>
<line x1="10" y1="85" x2="778.0" y2="85" style="stroke-width:1; stroke:grey; "  />
</g>
<g id="a1_000"  >
<polygon points="37,85 42,80 52,80 52,90 42,90 37,85 " style="fill:#6ad815; stroke-width:1; stroke:black; " description="&lt;b&gt;I1A_RS09280&lt;/b&gt;&lt;br&gt;SidA/IucD/PvdA family monooxygenase&lt;br&gt;Location: 2115971 - 2114637&lt;br&gt;&lt;br&gt;&lt;b&gt;BlastP hit with ctg27_7&lt;/b&gt;&lt;br&gt;Percentage identity: 92&lt;br&gt;Percentage coverage: 100&lt;br&gt;BLAST bit score: 826&lt;br&gt;E-value: 6.79e-303" locus_tag="I1A_RS09280" class="clusterblast-orf" id="dummy-1_h1_6_0"  />
</g>
<g id="a1_001"  >
<polygon points="53,85 58,80 59,80 59,90 58,90 53,85 " style="fill:#15bfd8; stroke-width:1; stroke:black; " description="&lt;b&gt;I1A_RS09275&lt;/b&gt;&lt;br&gt;sigma-70 family RNA polymerase sigma factor&lt;br&gt;Location: 2114505 - 2114023&lt;br&gt;&lt;br&gt;&lt;b&gt;BlastP hit with ctg27_8&lt;/b&gt;&lt;br&gt;Percentage identity: 92&lt;br&gt;Percentage coverage: 100&lt;br&gt;BLAST bit score: 295&lt;br&gt;E-value: 3.01e-102" locus_tag="I1A_RS09275" class="clusterblast-orf" id="dummy-1_h1_6_1"  />
</g>
<g id="a1_002"  >
<polygon points="63,90 71,90 76,85 71,80 63,80 63,90 " style="fill:#9d15d8; stroke-width:1; stroke:black; " description="&lt;b&gt;I1A_RS09270&lt;/b&gt;&lt;br&gt;efflux RND transporter periplasmic adaptor subunit&lt;br&gt;Location: 2113699 - 2112536&lt;br&gt;&lt;br&gt;&lt;b&gt;BlastP hit with ctg27_9&lt;/b&gt;&lt;br&gt;Percentage identity: 88&lt;br&gt;Percentage coverage: 100&lt;br&gt;BLAST bit score: 598&lt;br&gt;E-value: 1.2e-214" locus_tag="I1A_RS09270" class="clusterblast-orf" id="dummy-1_h1_6_2"  />
</g>
<g id="a1_003"  >
<polygon points="76,90 93,90 98,85 93,80 76,80 76,90 " style="fill:#d84815; stroke-width:1; stroke:black; " description="&lt;b&gt;I1A_RS09265&lt;/b&gt;&lt;br&gt;MacB family efflux pump subunit&lt;br&gt;Location: 2112535 - 2110562&lt;br&gt;&lt;br&gt;&lt;b&gt;BlastP hit with ctg27_10&lt;/b&gt;&lt;br&gt;Percentage identity: 92&lt;br&gt;Percentage coverage: 100&lt;br&gt;BLAST bit score: 1166&lt;br&gt;E-value: 0.0" locus_tag="I1A_RS09265" class="clusterblast-orf" id="dummy-1_h1_6_3"  />
</g>
<g id="a1_004"  >
<polygon points="98,90 109,90 114,85 109,80 98,80 98,90 " style="fill:#37d815; stroke-width:1; stroke:black; " description="&lt;b&gt;I1A_RS09260&lt;/b&gt;&lt;br&gt;efflux transporter outer membrane subunit&lt;br&gt;Location: 2110554 - 2109160&lt;br&gt;&lt;br&gt;&lt;b&gt;BlastP hit with ctg27_11&lt;/b&gt;&lt;br&gt;Percentage identity: 88&lt;br&gt;Percentage coverage: 100&lt;br&gt;BLAST bit score: 773&lt;br&gt;E-value: 2.27e-281" locus_tag="I1A_RS09260" class="clusterblast-orf" id="dummy-1_h1_6_4"  />
</g>
<g id="a1_005"  >
<polygon points="119,85 124,80 138,80 138,90 124,90 119,85 " style="fill:#158cd8; stroke-width:1; stroke:black; " description="&lt;b&gt;I1A_RS09255&lt;/b&gt;&lt;br&gt;hypothetical protein&lt;br&gt;Location: 2108673 - 2107051&lt;br&gt;&lt;br&gt;&lt;b&gt;BlastP hit with ctg27_12&lt;/b&gt;&lt;br&gt;Percentage identity: 92&lt;br&gt;Percentage coverage: 99&lt;br&gt;BLAST bit score: 1072&lt;br&gt;E-value: 0.0" locus_tag="I1A_RS09255" class="clusterblast-orf" id="dummy-1_h1_6_5"  />
</g>
<g id="a1_006"  >
<polygon points="140,90 151,90 156,85 151,80 140,80 140,90 " style="fill:#d015d8; stroke-width:1; stroke:black; " description="&lt;b&gt;I1A_RS09250&lt;/b&gt;&lt;br&gt;membrane dipeptidase&lt;br&gt;Location: 2106843 - 2105473&lt;br&gt;&lt;br&gt;&lt;b&gt;BlastP hit with ctg27_13&lt;/b&gt;&lt;br&gt;Percentage identity: 96&lt;br&gt;Percentage coverage: 100&lt;br&gt;BLAST bit score: 882&lt;br&gt;E-value: 0.0" locus_tag="I1A_RS09250" class="clusterblast-orf" id="dummy-1_h1_6_6"  />
</g>
<g id="a1_007"  >
<polygon points="156,90 165,90 170,85 165,80 156,80 156,90 " style="fill:white; stroke-width:1; stroke:black; " description="&lt;b&gt;I1A_RS09245&lt;/b&gt;&lt;br&gt;aminotransferase class V-fold PLP-dependent enzyme&lt;br&gt;Location: 2105476 - 2104190" locus_tag="I1A_RS09245" class="clusterblast-orf" id="dummy-1_h1_6_7"  />
</g>
<g id="a1_008"  >
<polygon points="170,90 175,90 180,85 175,80 170,80 170,90 " style="fill:#d87b15; stroke-width:1; stroke:black; " description="&lt;b&gt;I1A_RS09240&lt;/b&gt;&lt;br&gt;formylglycine-generating enzyme family protein&lt;br&gt;Location: 2104153 - 2103266&lt;br&gt;&lt;br&gt;&lt;b&gt;BlastP hit with ctg27_14&lt;/b&gt;&lt;br&gt;Percentage identity: 83&lt;br&gt;Percentage coverage: 100&lt;br&gt;BLAST bit score: 525&lt;br&gt;E-value: 4.58e-189" locus_tag="I1A_RS09240" class="clusterblast-orf" id="dummy-1_h1_6_8"  />
</g>
<g id="a1_009"  >
<polygon points="182,90 195,90 200,85 195,80 182,80 182,90 " style="fill:#15d826; stroke-width:1; stroke:black; " description="&lt;b&gt;I1A_RS09235&lt;/b&gt;&lt;br&gt;cyclic peptide export ABC transporter&lt;br&gt;Location: 2103157 - 2101508&lt;br&gt;&lt;br&gt;&lt;b&gt;BlastP hit with ctg27_15&lt;/b&gt;&lt;br&gt;Percentage identity: 95&lt;br&gt;Percentage coverage: 100&lt;br&gt;BLAST bit score: 1005&lt;br&gt;E-value: 0.0" locus_tag="I1A_RS09235" class="clusterblast-orf" id="dummy-1_h1_6_9"  />
</g>
<g id="a1_0010"  >
<polygon points="202,90 225,90 230,85 225,80 202,80 202,90 " style="fill:#1559d8; stroke-width:1; stroke:black; " description="&lt;b&gt;I1A_RS09230&lt;/b&gt;&lt;br&gt;TonB-dependent siderophore receptor&lt;br&gt;Location: 2101345 - 2098913&lt;br&gt;&lt;br&gt;&lt;b&gt;BlastP hit with ctg27_16&lt;/b&gt;&lt;br&gt;Percentage identity: 86&lt;br&gt;Percentage coverage: 100&lt;br&gt;BLAST bit score: 1444&lt;br&gt;E-value: 0.0" locus_tag="I1A_RS09230" class="clusterblast-orf" id="dummy-1_h1_6_10"  />
</g>
<g id="a1_0011"  >
<polygon points="241,85 246,80 252,80 252,90 246,90 241,85 " style="fill:#d815ae; stroke-width:1; stroke:black; " description="&lt;b&gt;I1A_RS09225&lt;/b&gt;&lt;br&gt;alpha/beta hydrolase&lt;br&gt;Location: 2097937 - 2096981&lt;br&gt;&lt;br&gt;&lt;b&gt;BlastP hit with ctg27_17&lt;/b&gt;&lt;br&gt;Percentage identity: 86&lt;br&gt;Percentage coverage: 100&lt;br&gt;BLAST bit score: 556&lt;br&gt;E-value: 1.22e-200" locus_tag="I1A_RS09225" class="clusterblast-orf" id="dummy-1_h1_6_11"  />
</g>
<g id="a1_0012"  >
<polygon points="252,85 257,80 392,80 392,90 257,90 252,85 " style="fill:#d8ae15; stroke-width:1; stroke:black; " description="&lt;b&gt;I1A_RS09220&lt;/b&gt;&lt;br&gt;non-ribosomal peptide synthetase&lt;br&gt;Location: 2096908 - 2084585&lt;br&gt;&lt;br&gt;&lt;b&gt;BlastP hit with ctg27_18&lt;/b&gt;&lt;br&gt;Percentage identity: 80&lt;br&gt;Percentage coverage: 100&lt;br&gt;BLAST bit score: 7026&lt;br&gt;E-value: 0.0&lt;br&gt;&lt;br&gt;&lt;b&gt;BlastP hit with ctg27_19&lt;/b&gt;&lt;br&gt;Percentage identity: 49&lt;br&gt;Percentage coverage: 100&lt;br&gt;BLAST bit score: 2247&lt;br&gt;E-value: 0.0&lt;br&gt;&lt;br&gt;&lt;b&gt;BlastP hit with ctg27_20&lt;/b&gt;&lt;br&gt;Percentage identity: 45&lt;br&gt;Percentage coverage: 98&lt;br&gt;BLAST bit score: 844&lt;br&gt;E-value: 4.24e-267" locus_tag="I1A_RS09220" class="clusterblast-orf" id="dummy-1_h1_6_12"  />
</g>
<g id="a1_0013"  >
<polygon points="392,85 397,80 480,80 480,90 397,90 392,85 " style="fill:#d8ae15; stroke-width:1; stroke:black; " description="&lt;b&gt;I1A_RS09215&lt;/b&gt;&lt;br&gt;non-ribosomal peptide synthetase&lt;br&gt;Location: 2084571 - 2076745&lt;br&gt;&lt;br&gt;&lt;b&gt;BlastP hit with ctg27_18&lt;/b&gt;&lt;br&gt;Percentage identity: 50&lt;br&gt;Percentage coverage: 57&lt;br&gt;BLAST bit score: 2289&lt;br&gt;E-value: 0.0&lt;br&gt;&lt;br&gt;&lt;b&gt;BlastP hit with ctg27_19&lt;/b&gt;&lt;br&gt;Percentage identity: 83&lt;br&gt;Percentage coverage: 100&lt;br&gt;BLAST bit score: 4231&lt;br&gt;E-value: 0.0&lt;br&gt;&lt;br&gt;&lt;b&gt;BlastP hit with ctg27_20&lt;/b&gt;&lt;br&gt;Percentage identity: 41&lt;br&gt;Percentage coverage: 98&lt;br&gt;BLAST bit score: 726&lt;br&gt;E-value: 3.68e-229" locus_tag="I1A_RS09215" class="clusterblast-orf" id="dummy-1_h1_6_13"  />
</g>
<g id="a1_0014"  >
<polygon points="480,85 485,80 519,80 519,90 485,90 480,85 " style="fill:#d8ae15; stroke-width:1; stroke:black; " description="&lt;b&gt;I1A_RS09210&lt;/b&gt;&lt;br&gt;non-ribosomal peptide synthetase&lt;br&gt;Location: 2076748 - 2073347&lt;br&gt;&lt;br&gt;&lt;b&gt;BlastP hit with ctg27_20&lt;/b&gt;&lt;br&gt;Percentage identity: 86&lt;br&gt;Percentage coverage: 100&lt;br&gt;BLAST bit score: 1902&lt;br&gt;E-value: 0.0" locus_tag="I1A_RS09210" class="clusterblast-orf" id="dummy-1_h1_6_14"  />
</g>
<g id="a1_0015"  >
<polygon points="521,85 526,80 532,80 532,90 526,90 521,85 " style="fill:#15d859; stroke-width:1; stroke:black; " description="&lt;b&gt;I1A_RS09205&lt;/b&gt;&lt;br&gt;hypothetical protein&lt;br&gt;Location: 2073159 - 2072176&lt;br&gt;&lt;br&gt;&lt;b&gt;BlastP hit with ctg27_21&lt;/b&gt;&lt;br&gt;Percentage identity: 91&lt;br&gt;Percentage coverage: 99&lt;br&gt;BLAST bit score: 616&lt;br&gt;E-value: 8.31e-224" locus_tag="I1A_RS09205" class="clusterblast-orf" id="dummy-1_h1_6_15"  />
</g>
<g id="a1_0016"  >
<polygon points="532,85 537,80 541,80 541,90 537,90 532,85 " style="fill:#1526d8; stroke-width:1; stroke:black; " description="&lt;b&gt;I1A_RS09200&lt;/b&gt;&lt;br&gt;thioesterase&lt;br&gt;Location: 2072137 - 2071397&lt;br&gt;&lt;br&gt;&lt;b&gt;BlastP hit with ctg27_22&lt;/b&gt;&lt;br&gt;Percentage identity: 90&lt;br&gt;Percentage coverage: 100&lt;br&gt;BLAST bit score: 449&lt;br&gt;E-value: 1.6e-160" locus_tag="I1A_RS09200" class="clusterblast-orf" id="dummy-1_h1_6_16"  />
</g>
<g id="a1_0017"  >
<polygon points="542,85 547,80 555,80 555,90 547,90 542,85 " style="fill:#d8157b; stroke-width:1; stroke:black; " description="&lt;b&gt;I1A_RS09195&lt;/b&gt;&lt;br&gt;MFS transporter&lt;br&gt;Location: 2071325 - 2070153&lt;br&gt;&lt;br&gt;&lt;b&gt;BlastP hit with ctg27_23&lt;/b&gt;&lt;br&gt;Percentage identity: 90&lt;br&gt;Percentage coverage: 100&lt;br&gt;BLAST bit score: 659&lt;br&gt;E-value: 6.51e-239" locus_tag="I1A_RS09195" class="clusterblast-orf" id="dummy-1_h1_6_17"  />
</g>
<g id="a1_0018"  >
<polygon points="558,90 562,90 567,85 562,80 558,80 558,90 " style="fill:#d0d815; stroke-width:1; stroke:black; " description="&lt;b&gt;I1A_RS09190&lt;/b&gt;&lt;br&gt;glucose 1-dehydrogenase&lt;br&gt;Location: 2069909 - 2069109&lt;br&gt;&lt;br&gt;&lt;b&gt;BlastP hit with ctg27_24&lt;/b&gt;&lt;br&gt;Percentage identity: 81&lt;br&gt;Percentage coverage: 100&lt;br&gt;BLAST bit score: 412&lt;br&gt;E-value: 4.37e-145" locus_tag="I1A_RS09190" class="clusterblast-orf" id="dummy-1_h1_6_18"  />
</g>
<g id="a1_0019"  >
<polygon points="566,90 582,90 587,85 582,80 566,80 566,90 " style="fill:#15d88c; stroke-width:1; stroke:black; " description="&lt;b&gt;I1A_RS09185&lt;/b&gt;&lt;br&gt;glycoside hydrolase family 15 protein&lt;br&gt;Location: 2069116 - 2067290&lt;br&gt;&lt;br&gt;&lt;b&gt;BlastP hit with ctg27_25&lt;/b&gt;&lt;br&gt;Percentage identity: 87&lt;br&gt;Percentage coverage: 100&lt;br&gt;BLAST bit score: 1114&lt;br&gt;E-value: 0.0" locus_tag="I1A_RS09185" class="clusterblast-orf" id="dummy-1_h1_6_19"  />
</g>
<g id="a1_0020"  >
<polygon points="592,90 596,85 592,80 592,90 " style="fill:#3715d8; stroke-width:1; stroke:black; " description="&lt;b&gt;I1A_RS09180&lt;/b&gt;&lt;br&gt;hypothetical protein&lt;br&gt;Location: 2066897 - 2066508&lt;br&gt;&lt;br&gt;&lt;b&gt;BlastP hit with ctg27_26&lt;/b&gt;&lt;br&gt;Percentage identity: 86&lt;br&gt;Percentage coverage: 100&lt;br&gt;BLAST bit score: 238&lt;br&gt;E-value: 1.15e-80" locus_tag="I1A_RS09180" class="clusterblast-orf" id="dummy-1_h1_6_20"  />
</g>
<g id="a1_0021"  >
<polygon points="598,90 603,90 608,85 603,80 598,80 598,90 " style="fill:#d81548; stroke-width:1; stroke:black; " description="&lt;b&gt;I1A_RS09175&lt;/b&gt;&lt;br&gt;alpha/beta hydrolase&lt;br&gt;Location: 2066333 - 2065440&lt;br&gt;&lt;br&gt;&lt;b&gt;BlastP hit with ctg27_27&lt;/b&gt;&lt;br&gt;Percentage identity: 82&lt;br&gt;Percentage coverage: 98&lt;br&gt;BLAST bit score: 506&lt;br&gt;E-value: 1.62e-181" locus_tag="I1A_RS09175" class="clusterblast-orf" id="dummy-1_h1_6_21"  />
</g>
<g id="a1_0022"  >
<polygon points="608,85 613,80 619,80 619,90 613,90 608,85 " style="fill:#9dd815; stroke-width:1; stroke:black; " description="&lt;b&gt;I1A_RS09170&lt;/b&gt;&lt;br&gt;GlxA family transcriptional regulator&lt;br&gt;Location: 2065471 - 2064488&lt;br&gt;&lt;br&gt;&lt;b&gt;BlastP hit with ctg27_28&lt;/b&gt;&lt;br&gt;Percentage identity: 84&lt;br&gt;Percentage coverage: 100&lt;br&gt;BLAST bit score: 553&lt;br&gt;E-value: 5.7e-199&lt;br&gt;&lt;br&gt;&lt;b&gt;BlastP hit with ctg27_29&lt;/b&gt;&lt;br&gt;Percentage identity: 36&lt;br&gt;Percentage coverage: 80&lt;br&gt;BLAST bit score: 100&lt;br&gt;E-value: 5.13e-23" locus_tag="I1A_RS09170" class="clusterblast-orf" id="dummy-1_h1_6_22"  />
</g>
<g id="a1_0023"  >
<polygon points="620,90 623,90 628,85 623,80 620,80 620,90 " style="fill:#9dd815; stroke-width:1; stroke:black; " description="&lt;b&gt;I1A_RS09165&lt;/b&gt;&lt;br&gt;DJ-1/PfpI family protein&lt;br&gt;Location: 2064398 - 2063712&lt;br&gt;&lt;br&gt;&lt;b&gt;BlastP hit with ctg27_28&lt;/b&gt;&lt;br&gt;Percentage identity: 35&lt;br&gt;Percentage coverage: 59&lt;br&gt;BLAST bit score: 92&lt;br&gt;E-value: 7.3e-20&lt;br&gt;&lt;br&gt;&lt;b&gt;BlastP hit with ctg27_29&lt;/b&gt;&lt;br&gt;Percentage identity: 80&lt;br&gt;Percentage coverage: 100&lt;br&gt;BLAST bit score: 365&lt;br&gt;E-value: 6.47e-128" locus_tag="I1A_RS09165" class="clusterblast-orf" id="dummy-1_h1_6_23"  />
</g>
<g id="a1_0024"  >
<polygon points="630,90 634,90 639,85 634,80 630,80 630,90 " style="fill:white; stroke-width:1; stroke:black; " description="&lt;b&gt;I1A_RS09160&lt;/b&gt;&lt;br&gt;CPBP family intramembrane metalloprotease&lt;br&gt;Location: 2063475 - 2062684" locus_tag="I1A_RS09160" class="clusterblast-orf" id="dummy-1_h1_6_24"  />
</g>
<g id="a1_0025"  >
<polygon points="640,90 653,90 658,85 653,80 640,80 640,90 " style="fill:white; stroke-width:1; stroke:black; " description="&lt;b&gt;I1A_RS09155&lt;/b&gt;&lt;br&gt;methyl-accepting chemotaxis protein&lt;br&gt;Location: 2062581 - 2061016" locus_tag="I1A_RS09155" class="clusterblast-orf" id="dummy-1_h1_6_25"  />
</g>
<g id="a1_0026"  >
<polygon points="662,85 666,80 666,90 662,85 " style="fill:white; stroke-width:1; stroke:black; " description="&lt;b&gt;I1A_RS09150&lt;/b&gt;&lt;br&gt;cytochrome c&lt;br&gt;Location: 2060692 - 2060315" locus_tag="I1A_RS09150" class="clusterblast-orf" id="dummy-1_h1_6_26"  />
</g>
<g id="a1_0027"  >
<polygon points="669,90 672,90 677,85 672,80 669,80 669,90 " style="fill:white; stroke-width:1; stroke:black; " description="&lt;b&gt;I1A_RS09145&lt;/b&gt;&lt;br&gt;hypothetical protein&lt;br&gt;Location: 2060065 - 2059367" locus_tag="I1A_RS09145" class="clusterblast-orf" id="dummy-1_h1_6_27"  />
</g>
<g id="a1_0028"  >
<polygon points="678,90 688,90 693,85 688,80 678,80 678,90 " style="fill:white; stroke-width:1; stroke:black; " description="&lt;b&gt;I1A_RS09140&lt;/b&gt;&lt;br&gt;hypothetical protein&lt;br&gt;Location: 2059287 - 2057896" locus_tag="I1A_RS09140" class="clusterblast-orf" id="dummy-1_h1_6_28"  />
</g>
<g id="a1_0029"  >
<polygon points="705,90 705,85 705,80 705,90 " style="fill:white; stroke-width:1; stroke:black; " description="&lt;b&gt;I1A_RS28865&lt;/b&gt;&lt;br&gt;hypothetical protein&lt;br&gt;Location: 2056902 - 2056840" locus_tag="I1A_RS28865" class="clusterblast-orf" id="dummy-1_h1_6_29"  />
</g>
<g id="a1_0030"  >
<polygon points="708,85 713,80 716,80 716,90 713,90 708,85 " style="fill:white; stroke-width:1; stroke:black; " description="&lt;b&gt;I1A_RS09135&lt;/b&gt;&lt;br&gt;hypothetical protein&lt;br&gt;Location: 2056594 - 2055917" locus_tag="I1A_RS09135" class="clusterblast-orf" id="dummy-1_h1_6_30"  />
</g>
<g id="a1_0031"  >
<polygon points="717,90 728,90 733,85 728,80 717,80 717,90 " style="fill:white; stroke-width:1; stroke:black; " description="&lt;b&gt;I1A_RS09130&lt;/b&gt;&lt;br&gt;cytochrome-c oxidase, cbb3-type subunit I&lt;br&gt;Location: 2055823 - 2054399" locus_tag="I1A_RS09130" class="clusterblast-orf" id="dummy-1_h1_6_31"  />
</g>
<g id="a1_0032"  >
<polygon points="733,90 735,90 740,85 735,80 733,80 733,90 " style="fill:white; stroke-width:1; stroke:black; " description="&lt;b&gt;I1A_RS09125&lt;/b&gt;&lt;br&gt;cytochrome-c oxidase, cbb3-type subunit II&lt;br&gt;Location: 2054388 - 2053780" locus_tag="I1A_RS09125" class="clusterblast-orf" id="dummy-1_h1_6_32"  />
</g>
<g id="a1_0033"  >
<polygon points="740,90 742,85 740,80 740,90 " style="fill:white; stroke-width:1; stroke:black; " description="&lt;b&gt;I1A_RS09120&lt;/b&gt;&lt;br&gt;CcoQ/FixQ family Cbb3-type cytochrome c oxidase assembly chaperone&lt;br&gt;Location: 2053774 - 2053577" locus_tag="I1A_RS09120" class="clusterblast-orf" id="dummy-1_h1_6_33"  />
</g>
</svg>
