<svg xmlns="http://www.w3.org/2000/svg" xmlns:xlink="http://www.w3.org/1999/xlink" version="1.1" x="0" y="0" height="230" width="800" viewBox="0 0 800 230" preserveAspectRatio="none"  >
<g label="Query sequence" class="clusterblast-cluster"  >
<text x="5" y="20" class="clusterblast-acc"  >
Query sequence</text>
<line x1="10" y1="35" x2="778.0" y2="35" style="stroke-width:1; stroke:grey; "  />
<polygon points="0,40 47,40 52,35 47,30 0,30 0,40 " style="fill:#d81515; stroke-width:1; stroke:black; " description="&lt;b&gt;ctg4_59&lt;/b&gt;&lt;br&gt;ctg4 59&lt;br&gt;Location: 56461 - 57238" locus_tag="ctg4_59" class="clusterblast-orf" id="dummy-1_q0_0_all"  />
<polygon points="53,40 84,40 89,35 84,30 53,30 53,40 " style="fill:#3cd815; stroke-width:1; stroke:black; " description="&lt;b&gt;ctg4_60&lt;/b&gt;&lt;br&gt;ctg4 60&lt;br&gt;Location: 57249 - 57792" locus_tag="ctg4_60" class="clusterblast-orf" id="dummy-1_q1_0_all"  />
<polygon points="97,35 102,30 238,30 238,40 102,40 97,35 " style="fill:#1563d8; stroke-width:1; stroke:black; " description="&lt;b&gt;ctg4_61&lt;/b&gt;&lt;br&gt;ctg4 61&lt;br&gt;Location: 57908 - 60020" locus_tag="ctg4_61" class="clusterblast-orf" id="dummy-1_q2_0_all"  />
<polygon points="242,35 247,30 319,30 319,40 247,40 242,35 " style="fill:#b115d8; stroke-width:1; stroke:black; " description="&lt;b&gt;ctg4_62&lt;/b&gt;&lt;br&gt;ctg4 62&lt;br&gt;Location: 60088 - 61246" locus_tag="ctg4_62" class="clusterblast-orf" id="dummy-1_q3_0_all"  />
<polygon points="319,35 324,30 447,30 447,40 324,40 319,35 " style="fill:#d88a15; stroke-width:1; stroke:black; " description="&lt;b&gt;ctg4_63&lt;/b&gt;&lt;br&gt;ctg4 63&lt;br&gt;Location: 61235 - 63158" locus_tag="ctg4_63" class="clusterblast-orf" id="dummy-1_q4_0_all"  />
<polygon points="460,35 465,30 521,30 521,40 465,40 460,35 " style="fill:#15d863; stroke-width:1; stroke:black; " description="&lt;b&gt;ctg4_64&lt;/b&gt;&lt;br&gt;ctg4 64&lt;br&gt;Location: 63352 - 64267" locus_tag="ctg4_64" class="clusterblast-orf" id="dummy-1_q5_0_all"  />
<polygon points="532,40 613,40 618,35 613,30 532,30 532,40 " style="fill:#3c15d8; stroke-width:1; stroke:black; " description="&lt;b&gt;ctg4_65&lt;/b&gt;&lt;br&gt;ctg4 65&lt;br&gt;Location: 64427 - 65714" locus_tag="ctg4_65" class="clusterblast-orf" id="dummy-1_q6_0_all"  />
<polygon points="622,40 667,40 672,35 667,30 622,30 622,40 " style="fill:#d8158a; stroke-width:1; stroke:black; " description="&lt;b&gt;ctg4_66&lt;/b&gt;&lt;br&gt;ctg4 66&lt;br&gt;Location: 65775 - 66528" locus_tag="ctg4_66" class="clusterblast-orf" id="dummy-1_q7_0_all"  />
<polygon points="672,40 714,40 719,35 714,30 672,30 672,40 " style="fill:#b1d815; stroke-width:1; stroke:black; " description="&lt;b&gt;ctg4_67&lt;/b&gt;&lt;br&gt;ctg4 67&lt;br&gt;Location: 66524 - 67229" locus_tag="ctg4_67" class="clusterblast-orf" id="dummy-1_q8_0_all"  />
<polygon points="718,40 775,40 780,35 775,30 718,30 718,40 " style="fill:#15d8d8; stroke-width:1; stroke:black; " description="&lt;b&gt;ctg4_68&lt;/b&gt;&lt;br&gt;ctg4 68&lt;br&gt;Location: 67225 - 68152" locus_tag="ctg4_68" class="clusterblast-orf" id="dummy-1_q9_0_all"  />
</g>
<g label="NZ_QTUI01000002" description="NZ_QTUI01000002 (89644-101567): Pseudomonas sp. GV088 Ga0215790 102, whole ge... (100% of genes show similarity), siderophore" class="clusterblast-cluster"  >
<text x="5" y="70" class="clusterblast-acc"  >
<a xlink:href="https://antismash-db.secondarymetabolites.org/area.html?record=NZ_QTUI01000002&amp;start=89644&amp;end=101567" target="_blank">NZ_QTUI01000002 (89644-101567)</a>: Pseudomonas sp. GV088 Ga0215790 102, whole ge... (100% of genes show similarity), siderophore</text>
<line x1="10" y1="85" x2="778.0" y2="85" style="stroke-width:1; stroke:grey; "  />
</g>
<g id="a1_000"  >
<polygon points="4,90 51,90 56,85 51,80 4,80 4,90 " style="fill:#d81515; stroke-width:1; stroke:black; " description="&lt;b&gt;C7526_RS04020&lt;/b&gt;&lt;br&gt;class II glutamine amidotransferase&lt;br&gt;Location: 101272 - 100496&lt;br&gt;&lt;br&gt;&lt;b&gt;BlastP hit with ctg4_59&lt;/b&gt;&lt;br&gt;Percentage identity: 98&lt;br&gt;Percentage coverage: 100&lt;br&gt;BLAST bit score: 533&lt;br&gt;E-value: 2.35e-193" locus_tag="C7526_RS04020" class="clusterblast-orf" id="dummy-1_h1_10_0"  />
</g>
<g id="a1_001"  >
<polygon points="57,90 88,90 93,85 88,80 57,80 57,90 " style="fill:#3cd815; stroke-width:1; stroke:black; " description="&lt;b&gt;C7526_RS04015&lt;/b&gt;&lt;br&gt;DUF2937 family protein&lt;br&gt;Location: 100482 - 99940&lt;br&gt;&lt;br&gt;&lt;b&gt;BlastP hit with ctg4_60&lt;/b&gt;&lt;br&gt;Percentage identity: 92&lt;br&gt;Percentage coverage: 100&lt;br&gt;BLAST bit score: 338&lt;br&gt;E-value: 1.19e-118" locus_tag="C7526_RS04015" class="clusterblast-orf" id="dummy-1_h1_10_1"  />
</g>
<g id="a1_002"  >
<polygon points="96,85 101,80 237,80 237,90 101,90 96,85 " style="fill:#1563d8; stroke-width:1; stroke:black; " description="&lt;b&gt;C7526_RS04010&lt;/b&gt;&lt;br&gt;TonB-dependent receptor&lt;br&gt;Location: 99895 - 97784&lt;br&gt;&lt;br&gt;&lt;b&gt;BlastP hit with ctg4_61&lt;/b&gt;&lt;br&gt;Percentage identity: 89&lt;br&gt;Percentage coverage: 100&lt;br&gt;BLAST bit score: 1258&lt;br&gt;E-value: 0.0" locus_tag="C7526_RS04010" class="clusterblast-orf" id="dummy-1_h1_10_2"  />
</g>
<g id="a1_003"  >
<polygon points="238,85 243,80 319,80 319,90 243,90 238,85 " style="fill:#b115d8; stroke-width:1; stroke:black; " description="&lt;b&gt;C7526_RS04005&lt;/b&gt;&lt;br&gt;MFS transporter&lt;br&gt;Location: 97768 - 96557&lt;br&gt;&lt;br&gt;&lt;b&gt;BlastP hit with ctg4_62&lt;/b&gt;&lt;br&gt;Percentage identity: 84&lt;br&gt;Percentage coverage: 100&lt;br&gt;BLAST bit score: 640&lt;br&gt;E-value: 3.56e-231" locus_tag="C7526_RS04005" class="clusterblast-orf" id="dummy-1_h1_10_3"  />
</g>
<g id="a1_004"  >
<polygon points="318,85 323,80 446,80 446,90 323,90 318,85 " style="fill:#d88a15; stroke-width:1; stroke:black; " description="&lt;b&gt;C7526_RS04000&lt;/b&gt;&lt;br&gt;siderophore synthetase&lt;br&gt;Location: 96567 - 94645&lt;br&gt;&lt;br&gt;&lt;b&gt;BlastP hit with ctg4_63&lt;/b&gt;&lt;br&gt;Percentage identity: 83&lt;br&gt;Percentage coverage: 100&lt;br&gt;BLAST bit score: 1103&lt;br&gt;E-value: 0.0" locus_tag="C7526_RS04000" class="clusterblast-orf" id="dummy-1_h1_10_4"  />
</g>
<g id="a1_005"  >
<polygon points="454,85 459,80 516,80 516,90 459,90 454,85 " style="fill:#15d863; stroke-width:1; stroke:black; " description="&lt;b&gt;C7526_RS03995&lt;/b&gt;&lt;br&gt;LysR family transcriptional regulator&lt;br&gt;Location: 94532 - 93603&lt;br&gt;&lt;br&gt;&lt;b&gt;BlastP hit with ctg4_64&lt;/b&gt;&lt;br&gt;Percentage identity: 91&lt;br&gt;Percentage coverage: 100&lt;br&gt;BLAST bit score: 547&lt;br&gt;E-value: 2.27e-197" locus_tag="C7526_RS03995" class="clusterblast-orf" id="dummy-1_h1_10_5"  />
</g>
<g id="a1_006"  >
<polygon points="526,90 606,90 611,85 606,80 526,80 526,90 " style="fill:#3c15d8; stroke-width:1; stroke:black; " description="&lt;b&gt;C7526_RS03990&lt;/b&gt;&lt;br&gt;MFS transporter&lt;br&gt;Location: 93456 - 92170&lt;br&gt;&lt;br&gt;&lt;b&gt;BlastP hit with ctg4_65&lt;/b&gt;&lt;br&gt;Percentage identity: 95&lt;br&gt;Percentage coverage: 100&lt;br&gt;BLAST bit score: 812&lt;br&gt;E-value: 4.04e-298" locus_tag="C7526_RS03990" class="clusterblast-orf" id="dummy-1_h1_10_6"  />
</g>
<g id="a1_007"  >
<polygon points="616,90 661,90 666,85 661,80 616,80 616,90 " style="fill:#d8158a; stroke-width:1; stroke:black; " description="&lt;b&gt;C7526_RS03985&lt;/b&gt;&lt;br&gt;LamB/YcsF family protein&lt;br&gt;Location: 92096 - 91344&lt;br&gt;&lt;br&gt;&lt;b&gt;BlastP hit with ctg4_66&lt;/b&gt;&lt;br&gt;Percentage identity: 92&lt;br&gt;Percentage coverage: 100&lt;br&gt;BLAST bit score: 467&lt;br&gt;E-value: 1.49e-167" locus_tag="C7526_RS03985" class="clusterblast-orf" id="dummy-1_h1_10_7"  />
</g>
<g id="a1_008"  >
<polygon points="666,90 708,90 713,85 708,80 666,80 666,90 " style="fill:#b1d815; stroke-width:1; stroke:black; " description="&lt;b&gt;C7526_RS03980&lt;/b&gt;&lt;br&gt;allophanate hydrolase subunit 1&lt;br&gt;Location: 91347 - 90643&lt;br&gt;&lt;br&gt;&lt;b&gt;BlastP hit with ctg4_67&lt;/b&gt;&lt;br&gt;Percentage identity: 91&lt;br&gt;Percentage coverage: 100&lt;br&gt;BLAST bit score: 419&lt;br&gt;E-value: 4.94e-149" locus_tag="C7526_RS03980" class="clusterblast-orf" id="dummy-1_h1_10_8"  />
</g>
<g id="a1_009"  >
<polygon points="713,90 770,90 775,85 770,80 713,80 713,90 " style="fill:#15d8d8; stroke-width:1; stroke:black; " description="&lt;b&gt;C7526_RS03975&lt;/b&gt;&lt;br&gt;biotin-dependent carboxyltransferase&lt;br&gt;Location: 90646 - 89720&lt;br&gt;&lt;br&gt;&lt;b&gt;BlastP hit with ctg4_68&lt;/b&gt;&lt;br&gt;Percentage identity: 86&lt;br&gt;Percentage coverage: 99&lt;br&gt;BLAST bit score: 530&lt;br&gt;E-value: 1.3e-190" locus_tag="C7526_RS03975" class="clusterblast-orf" id="dummy-1_h1_10_9"  />
</g>
</svg>
