<svg xmlns="http://www.w3.org/2000/svg" xmlns:xlink="http://www.w3.org/1999/xlink" version="1.1" x="0" y="0" height="230" width="800" viewBox="0 0 800 230" preserveAspectRatio="none"  >
<g label="Query sequence" class="clusterblast-cluster"  >
<text x="5" y="20" class="clusterblast-acc"  >
Query sequence</text>
<line x1="10" y1="35" x2="778.0" y2="35" style="stroke-width:1; stroke:grey; "  />
<polygon points="0,40 2,35 0,30 0,40 " style="fill:white; stroke-width:1; stroke:black; " description="&lt;b&gt;ctg27_1&lt;/b&gt;&lt;br&gt;ctg27 1&lt;br&gt;Location: 656 - 863" locus_tag="ctg27_1" class="clusterblast-orf" id="dummy-1_q0_0_all"  />
<polygon points="6,40 8,35 6,30 6,40 " style="fill:white; stroke-width:1; stroke:black; " description="&lt;b&gt;ctg27_2&lt;/b&gt;&lt;br&gt;ctg27 2&lt;br&gt;Location: 1242 - 1389" locus_tag="ctg27_2" class="clusterblast-orf" id="dummy-1_q1_0_all"  />
<polygon points="8,40 13,40 18,35 13,30 8,30 8,40 " style="fill:white; stroke-width:1; stroke:black; " description="&lt;b&gt;ctg27_3&lt;/b&gt;&lt;br&gt;ctg27 3&lt;br&gt;Location: 1385 - 2267" locus_tag="ctg27_3" class="clusterblast-orf" id="dummy-1_q2_0_all"  />
<polygon points="19,40 22,35 19,30 19,40 " style="fill:white; stroke-width:1; stroke:black; " description="&lt;b&gt;ctg27_4&lt;/b&gt;&lt;br&gt;ctg27 4&lt;br&gt;Location: 2415 - 2646" locus_tag="ctg27_4" class="clusterblast-orf" id="dummy-1_q3_0_all"  />
<polygon points="25,40 29,35 25,30 25,40 " style="fill:white; stroke-width:1; stroke:black; " description="&lt;b&gt;ctg27_5&lt;/b&gt;&lt;br&gt;ctg27 5&lt;br&gt;Location: 2915 - 3236" locus_tag="ctg27_5" class="clusterblast-orf" id="dummy-1_q4_0_all"  />
<polygon points="30,35 35,30 61,30 61,40 35,40 30,35 " style="fill:#d81515; stroke-width:1; stroke:black; " description="&lt;b&gt;ctg27_6&lt;/b&gt;&lt;br&gt;ctg27 6&lt;br&gt;Location: 3385 - 6109" locus_tag="ctg27_6" class="clusterblast-orf" id="dummy-1_q5_0_all"  />
<polygon points="70,35 75,30 85,30 85,40 75,40 70,35 " style="fill:#6ad815; stroke-width:1; stroke:black; " description="&lt;b&gt;ctg27_7&lt;/b&gt;&lt;br&gt;ctg27 7&lt;br&gt;Location: 6872 - 8210" locus_tag="ctg27_7" class="clusterblast-orf" id="dummy-1_q6_0_all"  />
<polygon points="86,35 91,30 92,30 92,40 91,40 86,35 " style="fill:#15bfd8; stroke-width:1; stroke:black; " description="&lt;b&gt;ctg27_8&lt;/b&gt;&lt;br&gt;ctg27 8&lt;br&gt;Location: 8337 - 8817" locus_tag="ctg27_8" class="clusterblast-orf" id="dummy-1_q7_0_all"  />
<polygon points="96,40 104,40 109,35 104,30 96,30 96,40 " style="fill:#9d15d8; stroke-width:1; stroke:black; " description="&lt;b&gt;ctg27_9&lt;/b&gt;&lt;br&gt;ctg27 9&lt;br&gt;Location: 9141 - 10305" locus_tag="ctg27_9" class="clusterblast-orf" id="dummy-1_q8_0_all"  />
<polygon points="109,40 126,40 131,35 126,30 109,30 109,40 " style="fill:#d84815; stroke-width:1; stroke:black; " description="&lt;b&gt;ctg27_10&lt;/b&gt;&lt;br&gt;ctg27 10&lt;br&gt;Location: 10305 - 12279" locus_tag="ctg27_10" class="clusterblast-orf" id="dummy-1_q9_0_all"  />
<polygon points="131,40 142,40 147,35 142,30 131,30 131,40 " style="fill:#37d815; stroke-width:1; stroke:black; " description="&lt;b&gt;ctg27_11&lt;/b&gt;&lt;br&gt;ctg27 11&lt;br&gt;Location: 12286 - 13681" locus_tag="ctg27_11" class="clusterblast-orf" id="dummy-1_q10_0_all"  />
<polygon points="148,35 153,30 166,30 166,40 153,40 148,35 " style="fill:#158cd8; stroke-width:1; stroke:black; " description="&lt;b&gt;ctg27_12&lt;/b&gt;&lt;br&gt;ctg27 12&lt;br&gt;Location: 13754 - 15380" locus_tag="ctg27_12" class="clusterblast-orf" id="dummy-1_q11_0_all"  />
<polygon points="169,40 179,40 184,35 179,30 169,30 169,40 " style="fill:#d015d8; stroke-width:1; stroke:black; " description="&lt;b&gt;ctg27_13&lt;/b&gt;&lt;br&gt;ctg27 13&lt;br&gt;Location: 15608 - 16946" locus_tag="ctg27_13" class="clusterblast-orf" id="dummy-1_q12_0_all"  />
<polygon points="185,40 190,40 195,35 190,30 185,30 185,40 " style="fill:#d87b15; stroke-width:1; stroke:black; " description="&lt;b&gt;ctg27_14&lt;/b&gt;&lt;br&gt;ctg27 14&lt;br&gt;Location: 17037 - 17925" locus_tag="ctg27_14" class="clusterblast-orf" id="dummy-1_q13_0_all"  />
<polygon points="196,40 210,40 215,35 210,30 196,30 196,40 " style="fill:#15d826; stroke-width:1; stroke:black; " description="&lt;b&gt;ctg27_15&lt;/b&gt;&lt;br&gt;ctg27 15&lt;br&gt;Location: 18029 - 19679" locus_tag="ctg27_15" class="clusterblast-orf" id="dummy-1_q14_0_all"  />
<polygon points="216,40 239,40 244,35 239,30 216,30 216,40 " style="fill:#1559d8; stroke-width:1; stroke:black; " description="&lt;b&gt;ctg27_16&lt;/b&gt;&lt;br&gt;ctg27 16&lt;br&gt;Location: 19841 - 22274" locus_tag="ctg27_16" class="clusterblast-orf" id="dummy-1_q15_0_all"  />
<polygon points="247,35 252,30 258,30 258,40 252,40 247,35 " style="fill:#d815ae; stroke-width:1; stroke:black; " description="&lt;b&gt;ctg27_17&lt;/b&gt;&lt;br&gt;ctg27 17&lt;br&gt;Location: 22552 - 23509" locus_tag="ctg27_17" class="clusterblast-orf" id="dummy-1_q16_0_all"  />
<polygon points="260,35 265,30 413,30 413,40 265,40 260,35 " style="fill:#d8ae15; stroke-width:1; stroke:black; " description="&lt;b&gt;ctg27_18&lt;/b&gt;&lt;br&gt;ctg27 18&lt;br&gt;Location: 23659 - 37225" locus_tag="ctg27_18" class="clusterblast-orf" id="dummy-1_q17_0_all"  />
<polygon points="413,35 418,30 502,30 502,40 418,40 413,35 " style="fill:#d8ae15; stroke-width:1; stroke:black; " description="&lt;b&gt;ctg27_19&lt;/b&gt;&lt;br&gt;ctg27 19&lt;br&gt;Location: 37238 - 45065" locus_tag="ctg27_19" class="clusterblast-orf" id="dummy-1_q18_0_all"  />
<polygon points="501,35 506,30 540,30 540,40 506,40 501,35 " style="fill:#d8ae15; stroke-width:1; stroke:black; " description="&lt;b&gt;ctg27_20&lt;/b&gt;&lt;br&gt;ctg27 20&lt;br&gt;Location: 45061 - 48463" locus_tag="ctg27_20" class="clusterblast-orf" id="dummy-1_q19_0_all"  />
<polygon points="543,35 548,30 554,30 554,40 548,40 543,35 " style="fill:#15d859; stroke-width:1; stroke:black; " description="&lt;b&gt;ctg27_21&lt;/b&gt;&lt;br&gt;ctg27 21&lt;br&gt;Location: 48698 - 49682" locus_tag="ctg27_21" class="clusterblast-orf" id="dummy-1_q20_0_all"  />
<polygon points="554,35 559,30 563,30 563,40 559,40 554,35 " style="fill:#1526d8; stroke-width:1; stroke:black; " description="&lt;b&gt;ctg27_22&lt;/b&gt;&lt;br&gt;ctg27 22&lt;br&gt;Location: 49721 - 50462" locus_tag="ctg27_22" class="clusterblast-orf" id="dummy-1_q21_0_all"  />
<polygon points="564,35 569,30 577,30 577,40 569,40 564,35 " style="fill:#d8157b; stroke-width:1; stroke:black; " description="&lt;b&gt;ctg27_23&lt;/b&gt;&lt;br&gt;ctg27 23&lt;br&gt;Location: 50555 - 51728" locus_tag="ctg27_23" class="clusterblast-orf" id="dummy-1_q22_0_all"  />
<polygon points="580,40 584,40 589,35 584,30 580,30 580,40 " style="fill:#d0d815; stroke-width:1; stroke:black; " description="&lt;b&gt;ctg27_24&lt;/b&gt;&lt;br&gt;ctg27 24&lt;br&gt;Location: 51984 - 52785" locus_tag="ctg27_24" class="clusterblast-orf" id="dummy-1_q23_0_all"  />
<polygon points="589,40 604,40 609,35 604,30 589,30 589,40 " style="fill:#15d88c; stroke-width:1; stroke:black; " description="&lt;b&gt;ctg27_25&lt;/b&gt;&lt;br&gt;ctg27 25&lt;br&gt;Location: 52777 - 54604" locus_tag="ctg27_25" class="clusterblast-orf" id="dummy-1_q24_0_all"  />
<polygon points="615,40 615,40 620,35 615,30 615,30 615,40 " style="fill:#3715d8; stroke-width:1; stroke:black; " description="&lt;b&gt;ctg27_26&lt;/b&gt;&lt;br&gt;ctg27 26&lt;br&gt;Location: 55113 - 55503" locus_tag="ctg27_26" class="clusterblast-orf" id="dummy-1_q25_0_all"  />
<polygon points="621,40 626,40 631,35 626,30 621,30 621,40 " style="fill:#d81548; stroke-width:1; stroke:black; " description="&lt;b&gt;ctg27_27&lt;/b&gt;&lt;br&gt;ctg27 27&lt;br&gt;Location: 55638 - 56535" locus_tag="ctg27_27" class="clusterblast-orf" id="dummy-1_q26_0_all"  />
<polygon points="631,35 636,30 642,30 642,40 636,40 631,35 " style="fill:#9dd815; stroke-width:1; stroke:black; " description="&lt;b&gt;ctg27_28&lt;/b&gt;&lt;br&gt;ctg27 28&lt;br&gt;Location: 56503 - 57487" locus_tag="ctg27_28" class="clusterblast-orf" id="dummy-1_q27_0_all"  />
<polygon points="643,40 646,40 651,35 646,30 643,30 643,40 " style="fill:#9dd815; stroke-width:1; stroke:black; " description="&lt;b&gt;ctg27_29&lt;/b&gt;&lt;br&gt;ctg27 29&lt;br&gt;Location: 57578 - 58262" locus_tag="ctg27_29" class="clusterblast-orf" id="dummy-1_q28_0_all"  />
<polygon points="652,35 657,30 663,30 663,40 657,40 652,35 " style="fill:white; stroke-width:1; stroke:black; " description="&lt;b&gt;ctg27_30&lt;/b&gt;&lt;br&gt;ctg27 30&lt;br&gt;Location: 58399 - 59353" locus_tag="ctg27_30" class="clusterblast-orf" id="dummy-1_q29_0_all"  />
<polygon points="664,35 669,30 670,30 670,40 669,40 664,35 " style="fill:white; stroke-width:1; stroke:black; " description="&lt;b&gt;ctg27_31&lt;/b&gt;&lt;br&gt;ctg27 31&lt;br&gt;Location: 59418 - 59967" locus_tag="ctg27_31" class="clusterblast-orf" id="dummy-1_q30_0_all"  />
<polygon points="670,35 675,30 676,30 676,40 675,40 670,35 " style="fill:white; stroke-width:1; stroke:black; " description="&lt;b&gt;ctg27_32&lt;/b&gt;&lt;br&gt;ctg27 32&lt;br&gt;Location: 59978 - 60458" locus_tag="ctg27_32" class="clusterblast-orf" id="dummy-1_q31_0_all"  />
<polygon points="676,35 681,30 681,30 681,40 681,40 676,35 " style="fill:white; stroke-width:1; stroke:black; " description="&lt;b&gt;ctg27_33&lt;/b&gt;&lt;br&gt;ctg27 33&lt;br&gt;Location: 60471 - 60987" locus_tag="ctg27_33" class="clusterblast-orf" id="dummy-1_q32_0_all"  />
<polygon points="681,35 686,30 688,30 688,40 686,40 681,35 " style="fill:white; stroke-width:1; stroke:black; " description="&lt;b&gt;ctg27_34&lt;/b&gt;&lt;br&gt;ctg27 34&lt;br&gt;Location: 60979 - 61561" locus_tag="ctg27_34" class="clusterblast-orf" id="dummy-1_q33_0_all"  />
<polygon points="688,35 693,30 697,30 697,40 693,40 688,35 " style="fill:white; stroke-width:1; stroke:black; " description="&lt;b&gt;ctg27_35&lt;/b&gt;&lt;br&gt;ctg27 35&lt;br&gt;Location: 61582 - 62344" locus_tag="ctg27_35" class="clusterblast-orf" id="dummy-1_q34_0_all"  />
<polygon points="697,35 702,30 725,30 725,40 702,40 697,35 " style="fill:white; stroke-width:1; stroke:black; " description="&lt;b&gt;ctg27_36&lt;/b&gt;&lt;br&gt;ctg27 36&lt;br&gt;Location: 62340 - 64875" locus_tag="ctg27_36" class="clusterblast-orf" id="dummy-1_q35_0_all"  />
<polygon points="727,35 732,30 733,30 733,40 732,40 727,35 " style="fill:white; stroke-width:1; stroke:black; " description="&lt;b&gt;ctg27_37&lt;/b&gt;&lt;br&gt;ctg27 37&lt;br&gt;Location: 64972 - 65533" locus_tag="ctg27_37" class="clusterblast-orf" id="dummy-1_q36_0_all"  />
<polygon points="733,35 738,30 739,30 739,40 738,40 733,35 " style="fill:white; stroke-width:1; stroke:black; " description="&lt;b&gt;ctg27_38&lt;/b&gt;&lt;br&gt;ctg27 38&lt;br&gt;Location: 65584 - 66106" locus_tag="ctg27_38" class="clusterblast-orf" id="dummy-1_q37_0_all"  />
<polygon points="747,35 752,30 759,30 759,40 752,40 747,35 " style="fill:white; stroke-width:1; stroke:black; " description="&lt;b&gt;ctg27_39&lt;/b&gt;&lt;br&gt;ctg27 39&lt;br&gt;Location: 66794 - 67850" locus_tag="ctg27_39" class="clusterblast-orf" id="dummy-1_q38_0_all"  />
<polygon points="765,35 770,30 774,30 774,40 770,40 765,35 " style="fill:#15d8bf; stroke-width:1; stroke:black; " description="&lt;b&gt;ctg27_40&lt;/b&gt;&lt;br&gt;ctg27 40&lt;br&gt;Location: 68371 - 69199" locus_tag="ctg27_40" class="clusterblast-orf" id="dummy-1_q39_0_all"  />
<polygon points="774,35 779,30 780,30 780,40 779,40 774,35 " style="fill:#6a15d8; stroke-width:1; stroke:black; " description="&lt;b&gt;ctg27_41&lt;/b&gt;&lt;br&gt;ctg27 41&lt;br&gt;Location: 69179 - 69668" locus_tag="ctg27_41" class="clusterblast-orf" id="dummy-1_q40_0_all"  />
</g>
<g label="NZ_LT629796" description="NZ_LT629796 (51952-114136): Pseudomonas mandelii strain LMG 21607 chromosome I (68% of genes show similarity), NRPS" class="clusterblast-cluster"  >
<text x="5" y="70" class="clusterblast-acc"  >
<a xlink:href="https://antismash-db.secondarymetabolites.org/area.html?record=NZ_LT629796&amp;start=51952&amp;end=114136" target="_blank">NZ_LT629796 (51952-114136)</a>: Pseudomonas mandelii strain LMG 21607 chromosome I (68% of genes show similarity), NRPS</text>
<line x1="10" y1="85" x2="778.0" y2="85" style="stroke-width:1; stroke:grey; "  />
</g>
<g id="a1_000"  >
<polygon points="38,85 43,80 43,80 43,90 43,90 38,85 " style="fill:white; stroke-width:1; stroke:black; " description="&lt;b&gt;BLU63_RS00220&lt;/b&gt;&lt;br&gt;chemotaxis protein CheY&lt;br&gt;Location: 51953 - 52363" locus_tag="BLU63_RS00220" class="clusterblast-orf" id="dummy-1_h1_1_0"  />
</g>
<g id="a1_001"  >
<polygon points="44,85 48,80 48,90 44,85 " style="fill:#d81515; stroke-width:1; stroke:black; " description="&lt;b&gt;BLU63_RS00225&lt;/b&gt;&lt;br&gt;magnesium-translocating P-type ATPase&lt;br&gt;Location: 52467 - 52802&lt;br&gt;&lt;br&gt;&lt;b&gt;BlastP hit with ctg27_6&lt;/b&gt;&lt;br&gt;Percentage identity: 94&lt;br&gt;Percentage coverage: 12&lt;br&gt;BLAST bit score: 213&lt;br&gt;E-value: 6.38e-63" locus_tag="BLU63_RS00225" class="clusterblast-orf" id="dummy-1_h1_1_1"  />
</g>
<g id="a1_002"  >
<polygon points="52,85 57,80 67,80 67,90 57,90 52,85 " style="fill:#6ad815; stroke-width:1; stroke:black; " description="&lt;b&gt;BLU63_RS00235&lt;/b&gt;&lt;br&gt;lysine N(6)-hydroxylase/L-ornithine N(5)-oxygenase family protein&lt;br&gt;Location: 53181 - 54518&lt;br&gt;&lt;br&gt;&lt;b&gt;BlastP hit with ctg27_7&lt;/b&gt;&lt;br&gt;Percentage identity: 96&lt;br&gt;Percentage coverage: 100&lt;br&gt;BLAST bit score: 856&lt;br&gt;E-value: 9.14e-315" locus_tag="BLU63_RS00235" class="clusterblast-orf" id="dummy-1_h1_1_2"  />
</g>
<g id="a1_003"  >
<polygon points="68,85 73,80 74,80 74,90 73,90 68,85 " style="fill:#15bfd8; stroke-width:1; stroke:black; " description="&lt;b&gt;BLU63_RS00240&lt;/b&gt;&lt;br&gt;sigma-70 family RNA polymerase sigma factor&lt;br&gt;Location: 54641 - 55123&lt;br&gt;&lt;br&gt;&lt;b&gt;BlastP hit with ctg27_8&lt;/b&gt;&lt;br&gt;Percentage identity: 93&lt;br&gt;Percentage coverage: 100&lt;br&gt;BLAST bit score: 303&lt;br&gt;E-value: 1.89e-105" locus_tag="BLU63_RS00240" class="clusterblast-orf" id="dummy-1_h1_1_3"  />
</g>
<g id="a1_004"  >
<polygon points="78,90 86,90 91,85 86,80 78,80 78,90 " style="fill:#9d15d8; stroke-width:1; stroke:black; " description="&lt;b&gt;BLU63_RS00245&lt;/b&gt;&lt;br&gt;efflux RND transporter periplasmic adaptor subunit&lt;br&gt;Location: 55445 - 56617&lt;br&gt;&lt;br&gt;&lt;b&gt;BlastP hit with ctg27_9&lt;/b&gt;&lt;br&gt;Percentage identity: 82&lt;br&gt;Percentage coverage: 101&lt;br&gt;BLAST bit score: 551&lt;br&gt;E-value: 3.45e-196" locus_tag="BLU63_RS00245" class="clusterblast-orf" id="dummy-1_h1_1_4"  />
</g>
<g id="a1_005"  >
<polygon points="91,90 108,90 113,85 108,80 91,80 91,90 " style="fill:#d84815; stroke-width:1; stroke:black; " description="&lt;b&gt;BLU63_RS00250&lt;/b&gt;&lt;br&gt;MacB family efflux pump subunit&lt;br&gt;Location: 56618 - 58591&lt;br&gt;&lt;br&gt;&lt;b&gt;BlastP hit with ctg27_10&lt;/b&gt;&lt;br&gt;Percentage identity: 88&lt;br&gt;Percentage coverage: 100&lt;br&gt;BLAST bit score: 1095&lt;br&gt;E-value: 0.0" locus_tag="BLU63_RS00250" class="clusterblast-orf" id="dummy-1_h1_1_5"  />
</g>
<g id="a1_006"  >
<polygon points="113,90 124,90 129,85 124,80 113,80 113,90 " style="fill:#37d815; stroke-width:1; stroke:black; " description="&lt;b&gt;BLU63_RS00255&lt;/b&gt;&lt;br&gt;efflux transporter outer membrane subunit&lt;br&gt;Location: 58599 - 59993&lt;br&gt;&lt;br&gt;&lt;b&gt;BlastP hit with ctg27_11&lt;/b&gt;&lt;br&gt;Percentage identity: 77&lt;br&gt;Percentage coverage: 100&lt;br&gt;BLAST bit score: 682&lt;br&gt;E-value: 2.71e-245" locus_tag="BLU63_RS00255" class="clusterblast-orf" id="dummy-1_h1_1_6"  />
</g>
<g id="a1_007"  >
<polygon points="130,85 135,80 149,80 149,90 135,90 130,85 " style="fill:#158cd8; stroke-width:1; stroke:black; " description="&lt;b&gt;BLU63_RS00260&lt;/b&gt;&lt;br&gt;PvdJ/PvdD/PvdP-like protein&lt;br&gt;Location: 60107 - 61735&lt;br&gt;&lt;br&gt;&lt;b&gt;BlastP hit with ctg27_12&lt;/b&gt;&lt;br&gt;Percentage identity: 78&lt;br&gt;Percentage coverage: 99&lt;br&gt;BLAST bit score: 918&lt;br&gt;E-value: 0.0" locus_tag="BLU63_RS00260" class="clusterblast-orf" id="dummy-1_h1_1_7"  />
</g>
<g id="a1_008"  >
<polygon points="151,90 162,90 167,85 162,80 151,80 151,90 " style="fill:#d015d8; stroke-width:1; stroke:black; " description="&lt;b&gt;BLU63_RS00265&lt;/b&gt;&lt;br&gt;pyoverdine-tailoring dipeptidase-like protein PvdM&lt;br&gt;Location: 61978 - 63327&lt;br&gt;&lt;br&gt;&lt;b&gt;BlastP hit with ctg27_13&lt;/b&gt;&lt;br&gt;Percentage identity: 83&lt;br&gt;Percentage coverage: 100&lt;br&gt;BLAST bit score: 773&lt;br&gt;E-value: 4.3e-282" locus_tag="BLU63_RS00265" class="clusterblast-orf" id="dummy-1_h1_1_8"  />
</g>
<g id="a1_009"  >
<polygon points="167,90 176,90 181,85 176,80 167,80 167,90 " style="fill:white; stroke-width:1; stroke:black; " description="&lt;b&gt;BLU63_RS00270&lt;/b&gt;&lt;br&gt;aminotransferase class V-fold PLP-dependent enzyme&lt;br&gt;Location: 63358 - 64638" locus_tag="BLU63_RS00270" class="clusterblast-orf" id="dummy-1_h1_1_9"  />
</g>
<g id="a1_0010"  >
<polygon points="183,90 188,90 193,85 188,80 183,80 183,90 " style="fill:#d87b15; stroke-width:1; stroke:black; " description="&lt;b&gt;BLU63_RS00275&lt;/b&gt;&lt;br&gt;formylglycine-generating enzyme family protein&lt;br&gt;Location: 64775 - 65653&lt;br&gt;&lt;br&gt;&lt;b&gt;BlastP hit with ctg27_14&lt;/b&gt;&lt;br&gt;Percentage identity: 69&lt;br&gt;Percentage coverage: 87&lt;br&gt;BLAST bit score: 405&lt;br&gt;E-value: 9.31e-142" locus_tag="BLU63_RS00275" class="clusterblast-orf" id="dummy-1_h1_1_10"  />
</g>
<g id="a1_0011"  >
<polygon points="196,90 209,90 214,85 209,80 196,80 196,90 " style="fill:#15d826; stroke-width:1; stroke:black; " description="&lt;b&gt;BLU63_RS00280&lt;/b&gt;&lt;br&gt;cyclic peptide export ABC transporter&lt;br&gt;Location: 65888 - 67537&lt;br&gt;&lt;br&gt;&lt;b&gt;BlastP hit with ctg27_15&lt;/b&gt;&lt;br&gt;Percentage identity: 83&lt;br&gt;Percentage coverage: 100&lt;br&gt;BLAST bit score: 901&lt;br&gt;E-value: 0.0" locus_tag="BLU63_RS00280" class="clusterblast-orf" id="dummy-1_h1_1_11"  />
</g>
<g id="a1_0012"  >
<polygon points="217,90 240,90 245,85 240,80 217,80 217,90 " style="fill:#1559d8; stroke-width:1; stroke:black; " description="&lt;b&gt;BLU63_RS00285&lt;/b&gt;&lt;br&gt;TonB-dependent siderophore receptor&lt;br&gt;Location: 67798 - 70263&lt;br&gt;&lt;br&gt;&lt;b&gt;BlastP hit with ctg27_16&lt;/b&gt;&lt;br&gt;Percentage identity: 36&lt;br&gt;Percentage coverage: 100&lt;br&gt;BLAST bit score: 465&lt;br&gt;E-value: 4.64e-150" locus_tag="BLU63_RS00285" class="clusterblast-orf" id="dummy-1_h1_1_12"  />
</g>
<g id="a1_0013"  >
<polygon points="248,85 253,80 259,80 259,90 253,90 248,85 " style="fill:#d815ae; stroke-width:1; stroke:black; " description="&lt;b&gt;BLU63_RS00290&lt;/b&gt;&lt;br&gt;alpha/beta hydrolase&lt;br&gt;Location: 70521 - 71477&lt;br&gt;&lt;br&gt;&lt;b&gt;BlastP hit with ctg27_17&lt;/b&gt;&lt;br&gt;Percentage identity: 51&lt;br&gt;Percentage coverage: 98&lt;br&gt;BLAST bit score: 287&lt;br&gt;E-value: 2.94e-94" locus_tag="BLU63_RS00290" class="clusterblast-orf" id="dummy-1_h1_1_13"  />
</g>
<g id="a1_0014"  >
<polygon points="260,85 265,80 393,80 393,90 265,90 260,85 " style="fill:#d8ae15; stroke-width:1; stroke:black; " description="&lt;b&gt;BLU63_RS00295&lt;/b&gt;&lt;br&gt;non-ribosomal peptide synthetase&lt;br&gt;Location: 71606 - 83368&lt;br&gt;&lt;br&gt;&lt;b&gt;BlastP hit with ctg27_18&lt;/b&gt;&lt;br&gt;Percentage identity: 46&lt;br&gt;Percentage coverage: 91&lt;br&gt;BLAST bit score: 3235&lt;br&gt;E-value: 0.0&lt;br&gt;&lt;br&gt;&lt;b&gt;BlastP hit with ctg27_19&lt;/b&gt;&lt;br&gt;Percentage identity: 45&lt;br&gt;Percentage coverage: 101&lt;br&gt;BLAST bit score: 2013&lt;br&gt;E-value: 0.0&lt;br&gt;&lt;br&gt;&lt;b&gt;BlastP hit with ctg27_20&lt;/b&gt;&lt;br&gt;Percentage identity: 50&lt;br&gt;Percentage coverage: 99&lt;br&gt;BLAST bit score: 966&lt;br&gt;E-value: 2.77e-311" locus_tag="BLU63_RS00295" class="clusterblast-orf" id="dummy-1_h1_1_14"  />
</g>
<g id="a1_0015"  >
<polygon points="393,85 398,80 517,80 517,90 398,90 393,85 " style="fill:#d8ae15; stroke-width:1; stroke:black; " description="&lt;b&gt;BLU63_RS00300&lt;/b&gt;&lt;br&gt;non-ribosomal peptide synthetase&lt;br&gt;Location: 83368 - 94335&lt;br&gt;&lt;br&gt;&lt;b&gt;BlastP hit with ctg27_18&lt;/b&gt;&lt;br&gt;Percentage identity: 39&lt;br&gt;Percentage coverage: 92&lt;br&gt;BLAST bit score: 2539&lt;br&gt;E-value: 0.0&lt;br&gt;&lt;br&gt;&lt;b&gt;BlastP hit with ctg27_19&lt;/b&gt;&lt;br&gt;Percentage identity: 44&lt;br&gt;Percentage coverage: 101&lt;br&gt;BLAST bit score: 1922&lt;br&gt;E-value: 0.0&lt;br&gt;&lt;br&gt;&lt;b&gt;BlastP hit with ctg27_20&lt;/b&gt;&lt;br&gt;Percentage identity: 49&lt;br&gt;Percentage coverage: 98&lt;br&gt;BLAST bit score: 938&lt;br&gt;E-value: 4.36e-302" locus_tag="BLU63_RS00300" class="clusterblast-orf" id="dummy-1_h1_1_15"  />
</g>
<g id="a1_0016"  >
<polygon points="519,85 524,80 528,80 528,90 524,90 519,85 " style="fill:#1526d8; stroke-width:1; stroke:black; " description="&lt;b&gt;BLU63_RS00305&lt;/b&gt;&lt;br&gt;thioesterase&lt;br&gt;Location: 94525 - 95259&lt;br&gt;&lt;br&gt;&lt;b&gt;BlastP hit with ctg27_22&lt;/b&gt;&lt;br&gt;Percentage identity: 82&lt;br&gt;Percentage coverage: 99&lt;br&gt;BLAST bit score: 409&lt;br&gt;E-value: 1.05e-144" locus_tag="BLU63_RS00305" class="clusterblast-orf" id="dummy-1_h1_1_16"  />
</g>
<g id="a1_0017"  >
<polygon points="530,85 535,80 544,80 544,90 535,90 530,85 " style="fill:#d8157b; stroke-width:1; stroke:black; " description="&lt;b&gt;BLU63_RS00310&lt;/b&gt;&lt;br&gt;MFS transporter&lt;br&gt;Location: 95499 - 96671&lt;br&gt;&lt;br&gt;&lt;b&gt;BlastP hit with ctg27_23&lt;/b&gt;&lt;br&gt;Percentage identity: 92&lt;br&gt;Percentage coverage: 100&lt;br&gt;BLAST bit score: 675&lt;br&gt;E-value: 5.26e-245" locus_tag="BLU63_RS00310" class="clusterblast-orf" id="dummy-1_h1_1_17"  />
</g>
<g id="a1_0018"  >
<polygon points="546,90 550,90 555,85 550,80 546,80 546,90 " style="fill:#d0d815; stroke-width:1; stroke:black; " description="&lt;b&gt;BLU63_RS00315&lt;/b&gt;&lt;br&gt;glucose 1-dehydrogenase&lt;br&gt;Location: 96904 - 97692&lt;br&gt;&lt;br&gt;&lt;b&gt;BlastP hit with ctg27_24&lt;/b&gt;&lt;br&gt;Percentage identity: 83&lt;br&gt;Percentage coverage: 100&lt;br&gt;BLAST bit score: 419&lt;br&gt;E-value: 3.41e-148" locus_tag="BLU63_RS00315" class="clusterblast-orf" id="dummy-1_h1_1_18"  />
</g>
<g id="a1_0019"  >
<polygon points="555,90 571,90 576,85 571,80 555,80 555,90 " style="fill:#15d88c; stroke-width:1; stroke:black; " description="&lt;b&gt;BLU63_RS00320&lt;/b&gt;&lt;br&gt;glycoside hydrolase family 15 protein&lt;br&gt;Location: 97685 - 99511&lt;br&gt;&lt;br&gt;&lt;b&gt;BlastP hit with ctg27_25&lt;/b&gt;&lt;br&gt;Percentage identity: 91&lt;br&gt;Percentage coverage: 100&lt;br&gt;BLAST bit score: 1152&lt;br&gt;E-value: 0.0" locus_tag="BLU63_RS00320" class="clusterblast-orf" id="dummy-1_h1_1_19"  />
</g>
<g id="a1_0020"  >
<polygon points="579,90 579,90 584,85 579,80 579,80 579,90 " style="fill:#3715d8; stroke-width:1; stroke:black; " description="&lt;b&gt;BLU63_RS00325&lt;/b&gt;&lt;br&gt;hypothetical protein&lt;br&gt;Location: 99824 - 100213&lt;br&gt;&lt;br&gt;&lt;b&gt;BlastP hit with ctg27_26&lt;/b&gt;&lt;br&gt;Percentage identity: 93&lt;br&gt;Percentage coverage: 99&lt;br&gt;BLAST bit score: 252&lt;br&gt;E-value: 1.84e-86" locus_tag="BLU63_RS00325" class="clusterblast-orf" id="dummy-1_h1_1_20"  />
</g>
<g id="a1_0021"  >
<polygon points="584,90 589,90 594,85 589,80 584,80 584,90 " style="fill:#d81548; stroke-width:1; stroke:black; " description="&lt;b&gt;BLU63_RS00330&lt;/b&gt;&lt;br&gt;alpha/beta hydrolase&lt;br&gt;Location: 100272 - 101174&lt;br&gt;&lt;br&gt;&lt;b&gt;BlastP hit with ctg27_27&lt;/b&gt;&lt;br&gt;Percentage identity: 86&lt;br&gt;Percentage coverage: 98&lt;br&gt;BLAST bit score: 534&lt;br&gt;E-value: 1.94e-192" locus_tag="BLU63_RS00330" class="clusterblast-orf" id="dummy-1_h1_1_21"  />
</g>
<g id="a1_0022"  >
<polygon points="594,85 599,80 605,80 605,90 599,90 594,85 " style="fill:#9dd815; stroke-width:1; stroke:black; " description="&lt;b&gt;BLU63_RS00335&lt;/b&gt;&lt;br&gt;GlxA family transcriptional regulator&lt;br&gt;Location: 101143 - 102126&lt;br&gt;&lt;br&gt;&lt;b&gt;BlastP hit with ctg27_28&lt;/b&gt;&lt;br&gt;Percentage identity: 90&lt;br&gt;Percentage coverage: 100&lt;br&gt;BLAST bit score: 587&lt;br&gt;E-value: 3.17e-212&lt;br&gt;&lt;br&gt;&lt;b&gt;BlastP hit with ctg27_29&lt;/b&gt;&lt;br&gt;Percentage identity: 35&lt;br&gt;Percentage coverage: 83&lt;br&gt;BLAST bit score: 89&lt;br&gt;E-value: 6.67e-19" locus_tag="BLU63_RS00335" class="clusterblast-orf" id="dummy-1_h1_1_22"  />
</g>
<g id="a1_0023"  >
<polygon points="606,90 609,90 614,85 609,80 606,80 606,90 " style="fill:#9dd815; stroke-width:1; stroke:black; " description="&lt;b&gt;BLU63_RS00340&lt;/b&gt;&lt;br&gt;DJ-1/PfpI family protein&lt;br&gt;Location: 102215 - 102892&lt;br&gt;&lt;br&gt;&lt;b&gt;BlastP hit with ctg27_28&lt;/b&gt;&lt;br&gt;Percentage identity: 38&lt;br&gt;Percentage coverage: 54&lt;br&gt;BLAST bit score: 95&lt;br&gt;E-value: 5.04e-21&lt;br&gt;&lt;br&gt;&lt;b&gt;BlastP hit with ctg27_29&lt;/b&gt;&lt;br&gt;Percentage identity: 88&lt;br&gt;Percentage coverage: 99&lt;br&gt;BLAST bit score: 394&lt;br&gt;E-value: 3.09e-139" locus_tag="BLU63_RS00340" class="clusterblast-orf" id="dummy-1_h1_1_23"  />
</g>
<g id="a1_0024"  >
<polygon points="619,85 624,80 628,80 628,90 624,90 619,85 " style="fill:#15d8bf; stroke-width:1; stroke:black; " description="&lt;b&gt;BLU63_RS00345&lt;/b&gt;&lt;br&gt;3'-kinase&lt;br&gt;Location: 103361 - 104161&lt;br&gt;&lt;br&gt;&lt;b&gt;BlastP hit with ctg27_40&lt;/b&gt;&lt;br&gt;Percentage identity: 82&lt;br&gt;Percentage coverage: 96&lt;br&gt;BLAST bit score: 453&lt;br&gt;E-value: 2.22e-161" locus_tag="BLU63_RS00345" class="clusterblast-orf" id="dummy-1_h1_1_24"  />
</g>
<g id="a1_0025"  >
<polygon points="628,85 633,80 634,80 634,90 633,90 628,85 " style="fill:#6a15d8; stroke-width:1; stroke:black; " description="&lt;b&gt;BLU63_RS00350&lt;/b&gt;&lt;br&gt;SRPBCC family protein&lt;br&gt;Location: 104169 - 104657&lt;br&gt;&lt;br&gt;&lt;b&gt;BlastP hit with ctg27_41&lt;/b&gt;&lt;br&gt;Percentage identity: 88&lt;br&gt;Percentage coverage: 99&lt;br&gt;BLAST bit score: 299&lt;br&gt;E-value: 5.39e-104" locus_tag="BLU63_RS00350" class="clusterblast-orf" id="dummy-1_h1_1_25"  />
</g>
<g id="a1_0026"  >
<polygon points="637,90 641,85 637,80 637,90 " style="fill:white; stroke-width:1; stroke:black; " description="&lt;b&gt;BLU63_RS00355&lt;/b&gt;&lt;br&gt;lysozyme inhibitor LprI family protein&lt;br&gt;Location: 104931 - 105332" locus_tag="BLU63_RS00355" class="clusterblast-orf" id="dummy-1_h1_1_26"  />
</g>
<g id="a1_0027"  >
<polygon points="643,85 648,80 656,80 656,90 648,90 643,85 " style="fill:white; stroke-width:1; stroke:black; " description="&lt;b&gt;BLU63_RS00360&lt;/b&gt;&lt;br&gt;quinohemoprotein amine dehydrogenase subunit beta&lt;br&gt;Location: 105468 - 106586" locus_tag="BLU63_RS00360" class="clusterblast-orf" id="dummy-1_h1_1_27"  />
</g>
<g id="a1_0028"  >
<polygon points="656,85 660,80 660,90 656,85 " style="fill:white; stroke-width:1; stroke:black; " description="&lt;b&gt;BLU63_RS00365&lt;/b&gt;&lt;br&gt;quinohemoprotein amine dehydrogenase subunit gamma&lt;br&gt;Location: 106611 - 106934" locus_tag="BLU63_RS00365" class="clusterblast-orf" id="dummy-1_h1_1_28"  />
</g>
<g id="a1_0029"  >
<polygon points="660,85 665,80 676,80 676,90 665,90 660,85 " style="fill:white; stroke-width:1; stroke:black; " description="&lt;b&gt;BLU63_RS00370&lt;/b&gt;&lt;br&gt;quinohemoprotein amine dehydrogenase maturation protein&lt;br&gt;Location: 106936 - 108366" locus_tag="BLU63_RS00370" class="clusterblast-orf" id="dummy-1_h1_1_29"  />
</g>
<g id="a1_0030"  >
<polygon points="677,85 682,80 694,80 694,90 682,90 677,85 " style="fill:white; stroke-width:1; stroke:black; " description="&lt;b&gt;BLU63_RS00375&lt;/b&gt;&lt;br&gt;quinohemoprotein amine dehydrogenase subunit alpha&lt;br&gt;Location: 108448 - 110028" locus_tag="BLU63_RS00375" class="clusterblast-orf" id="dummy-1_h1_1_30"  />
</g>
<g id="a1_0031"  >
<polygon points="698,90 702,85 698,80 698,90 " style="fill:white; stroke-width:1; stroke:black; " description="&lt;b&gt;BLU63_RS00380&lt;/b&gt;&lt;br&gt;hypothetical protein&lt;br&gt;Location: 110374 - 110730" locus_tag="BLU63_RS00380" class="clusterblast-orf" id="dummy-1_h1_1_31"  />
</g>
<g id="a1_0032"  >
<polygon points="703,85 706,80 706,90 703,85 " style="fill:white; stroke-width:1; stroke:black; " description="&lt;b&gt;BLU63_RS00385&lt;/b&gt;&lt;br&gt;DUF1652 domain-containing protein&lt;br&gt;Location: 110777 - 111031" locus_tag="BLU63_RS00385" class="clusterblast-orf" id="dummy-1_h1_1_32"  />
</g>
<g id="a1_0033"  >
<polygon points="709,90 721,90 726,85 721,80 709,80 709,90 " style="fill:white; stroke-width:1; stroke:black; " description="&lt;b&gt;BLU63_RS00390&lt;/b&gt;&lt;br&gt;aldehyde dehydrogenase family protein&lt;br&gt;Location: 111306 - 112796" locus_tag="BLU63_RS00390" class="clusterblast-orf" id="dummy-1_h1_1_33"  />
</g>
<g id="a1_0034"  >
<polygon points="726,85 731,80 741,80 741,90 731,90 726,85 " style="fill:white; stroke-width:1; stroke:black; " description="&lt;b&gt;BLU63_RS00395&lt;/b&gt;&lt;br&gt;tryptophan 7-halogenase&lt;br&gt;Location: 112847 - 114136" locus_tag="BLU63_RS00395" class="clusterblast-orf" id="dummy-1_h1_1_34"  />
</g>
</svg>
