<svg xmlns="http://www.w3.org/2000/svg" xmlns:xlink="http://www.w3.org/1999/xlink" version="1.1" x="0" y="0" height="230" width="800" viewBox="0 0 800 230" preserveAspectRatio="none"  >
<g label="Query sequence" class="clusterblast-cluster"  >
<text x="5" y="20" class="clusterblast-acc"  >
Query sequence</text>
<line x1="10" y1="35" x2="778.0" y2="35" style="stroke-width:1; stroke:grey; "  />
<polygon points="314,40 340,40 345,35 340,30 314,30 314,40 " style="fill:#d81515; stroke-width:1; stroke:black; " description="&lt;b&gt;ctg36_1&lt;/b&gt;&lt;br&gt;ctg36 1&lt;br&gt;Location: 1 - 6997" locus_tag="ctg36_1" class="clusterblast-orf" id="dummy-1_q0_0_all"  />
<polygon points="345,40 376,40 381,35 376,30 345,30 345,40 " style="fill:#d81515; stroke-width:1; stroke:black; " description="&lt;b&gt;ctg36_2&lt;/b&gt;&lt;br&gt;ctg36 2&lt;br&gt;Location: 6993 - 15294" locus_tag="ctg36_2" class="clusterblast-orf" id="dummy-1_q1_0_all"  />
<polygon points="381,40 381,40 386,35 381,30 381,30 381,40 " style="fill:#15d815; stroke-width:1; stroke:black; " description="&lt;b&gt;ctg36_3&lt;/b&gt;&lt;br&gt;ctg36 3&lt;br&gt;Location: 15376 - 16525" locus_tag="ctg36_3" class="clusterblast-orf" id="dummy-1_q2_0_all"  />
<polygon points="386,40 390,40 395,35 390,30 386,30 386,40 " style="fill:#1515d8; stroke-width:1; stroke:black; " description="&lt;b&gt;ctg36_4&lt;/b&gt;&lt;br&gt;ctg36 4&lt;br&gt;Location: 16521 - 18486" locus_tag="ctg36_4" class="clusterblast-orf" id="dummy-1_q3_0_all"  />
<polygon points="396,35 399,30 399,40 396,35 " style="fill:#d815d8; stroke-width:1; stroke:black; " description="&lt;b&gt;ctg36_5&lt;/b&gt;&lt;br&gt;ctg36 5&lt;br&gt;Location: 18627 - 19344" locus_tag="ctg36_5" class="clusterblast-orf" id="dummy-1_q4_0_all"  />
<polygon points="402,40 406,35 402,30 402,40 " style="fill:#d8d815; stroke-width:1; stroke:black; " description="&lt;b&gt;ctg36_6&lt;/b&gt;&lt;br&gt;ctg36 6&lt;br&gt;Location: 20105 - 21047" locus_tag="ctg36_6" class="clusterblast-orf" id="dummy-1_q5_0_all"  />
<polygon points="407,40 408,35 407,30 407,40 " style="fill:white; stroke-width:1; stroke:black; " description="&lt;b&gt;ctg36_7&lt;/b&gt;&lt;br&gt;ctg36 7&lt;br&gt;Location: 21189 - 21396" locus_tag="ctg36_7" class="clusterblast-orf" id="dummy-1_q6_0_all"  />
<polygon points="408,40 412,35 408,30 408,40 " style="fill:white; stroke-width:1; stroke:black; " description="&lt;b&gt;ctg36_8&lt;/b&gt;&lt;br&gt;ctg36 8&lt;br&gt;Location: 21464 - 22394" locus_tag="ctg36_8" class="clusterblast-orf" id="dummy-1_q7_0_all"  />
<polygon points="412,40 414,35 412,30 412,40 " style="fill:white; stroke-width:1; stroke:black; " description="&lt;b&gt;ctg36_9&lt;/b&gt;&lt;br&gt;ctg36 9&lt;br&gt;Location: 22426 - 22783" locus_tag="ctg36_9" class="clusterblast-orf" id="dummy-1_q8_0_all"  />
<polygon points="414,40 417,35 414,30 414,40 " style="fill:white; stroke-width:1; stroke:black; " description="&lt;b&gt;ctg36_10&lt;/b&gt;&lt;br&gt;ctg36 10&lt;br&gt;Location: 22822 - 23587" locus_tag="ctg36_10" class="clusterblast-orf" id="dummy-1_q9_0_all"  />
<polygon points="417,40 420,35 417,30 417,40 " style="fill:white; stroke-width:1; stroke:black; " description="&lt;b&gt;ctg36_11&lt;/b&gt;&lt;br&gt;ctg36 11&lt;br&gt;Location: 23583 - 24210" locus_tag="ctg36_11" class="clusterblast-orf" id="dummy-1_q10_0_all"  />
<polygon points="420,40 423,35 420,30 420,40 " style="fill:white; stroke-width:1; stroke:black; " description="&lt;b&gt;ctg36_12&lt;/b&gt;&lt;br&gt;ctg36 12&lt;br&gt;Location: 24181 - 24754" locus_tag="ctg36_12" class="clusterblast-orf" id="dummy-1_q11_0_all"  />
<polygon points="423,40 424,35 423,30 423,40 " style="fill:white; stroke-width:1; stroke:black; " description="&lt;b&gt;ctg36_13&lt;/b&gt;&lt;br&gt;ctg36 13&lt;br&gt;Location: 24872 - 25094" locus_tag="ctg36_13" class="clusterblast-orf" id="dummy-1_q12_0_all"  />
<polygon points="424,40 426,35 424,30 424,40 " style="fill:white; stroke-width:1; stroke:black; " description="&lt;b&gt;ctg36_14&lt;/b&gt;&lt;br&gt;ctg36 14&lt;br&gt;Location: 25080 - 25491" locus_tag="ctg36_14" class="clusterblast-orf" id="dummy-1_q13_0_all"  />
<polygon points="426,40 430,40 435,35 430,30 426,30 426,40 " style="fill:white; stroke-width:1; stroke:black; " description="&lt;b&gt;ctg36_15&lt;/b&gt;&lt;br&gt;ctg36 15&lt;br&gt;Location: 25483 - 27490" locus_tag="ctg36_15" class="clusterblast-orf" id="dummy-1_q14_0_all"  />
<polygon points="435,40 436,35 435,30 435,40 " style="fill:white; stroke-width:1; stroke:black; " description="&lt;b&gt;ctg36_16&lt;/b&gt;&lt;br&gt;ctg36 16&lt;br&gt;Location: 27608 - 27803" locus_tag="ctg36_16" class="clusterblast-orf" id="dummy-1_q15_0_all"  />
<polygon points="436,40 437,35 436,30 436,40 " style="fill:white; stroke-width:1; stroke:black; " description="&lt;b&gt;ctg36_17&lt;/b&gt;&lt;br&gt;ctg36 17&lt;br&gt;Location: 27795 - 28146" locus_tag="ctg36_17" class="clusterblast-orf" id="dummy-1_q16_0_all"  />
<polygon points="438,40 440,35 438,30 438,40 " style="fill:white; stroke-width:1; stroke:black; " description="&lt;b&gt;ctg36_18&lt;/b&gt;&lt;br&gt;ctg36 18&lt;br&gt;Location: 28246 - 28645" locus_tag="ctg36_18" class="clusterblast-orf" id="dummy-1_q17_0_all"  />
<polygon points="440,35 442,30 442,40 440,35 " style="fill:#15d8d8; stroke-width:1; stroke:black; " description="&lt;b&gt;ctg36_19&lt;/b&gt;&lt;br&gt;ctg36 19&lt;br&gt;Location: 28735 - 29275" locus_tag="ctg36_19" class="clusterblast-orf" id="dummy-1_q18_0_all"  />
<polygon points="443,35 448,30 465,30 465,40 448,40 443,35 " style="fill:white; stroke-width:1; stroke:black; " description="&lt;b&gt;ctg36_20&lt;/b&gt;&lt;br&gt;ctg36 20&lt;br&gt;Location: 29490 - 34464" locus_tag="ctg36_20" class="clusterblast-orf" id="dummy-1_q19_0_all"  />
</g>
<g label="NZ_QPDS01000001" description="NZ_QPDS01000001 (87715-265429): Pseudomonas cichorii strain 473 Contig 1, who... (12% of genes show similarity), NRPS" class="clusterblast-cluster"  >
<text x="5" y="70" class="clusterblast-acc"  >
<a xlink:href="https://antismash-db.secondarymetabolites.org/area.html?record=NZ_QPDS01000001&amp;start=87715&amp;end=265429" target="_blank">NZ_QPDS01000001 (87715-265429)</a>: Pseudomonas cichorii strain 473 Contig 1, who... (12% of genes show similarity), NRPS</text>
<line x1="10" y1="85" x2="778.0" y2="85" style="stroke-width:1; stroke:grey; "  />
</g>
<g id="a1_000"  >
<polygon points="0,90 2,90 7,85 2,80 0,80 0,90 " style="fill:white; stroke-width:1; stroke:black; " description="&lt;b&gt;D2G36_RS00390&lt;/b&gt;&lt;br&gt;DUF2300 domain-containing protein&lt;br&gt;Location: 87716 - 89335" locus_tag="D2G36_RS00390" class="clusterblast-orf" id="dummy-1_h1_4_0"  />
</g>
<g id="a1_001"  >
<polygon points="7,90 8,85 7,80 7,90 " style="fill:white; stroke-width:1; stroke:black; " description="&lt;b&gt;D2G36_RS00395&lt;/b&gt;&lt;br&gt;hypothetical protein&lt;br&gt;Location: 89353 - 89742" locus_tag="D2G36_RS00395" class="clusterblast-orf" id="dummy-1_h1_4_1"  />
</g>
<g id="a1_002"  >
<polygon points="11,85 14,80 14,90 11,85 " style="fill:white; stroke-width:1; stroke:black; " description="&lt;b&gt;D2G36_RS00405&lt;/b&gt;&lt;br&gt;hypothetical protein&lt;br&gt;Location: 90389 - 91123" locus_tag="D2G36_RS00405" class="clusterblast-orf" id="dummy-1_h1_4_2"  />
</g>
<g id="a1_003"  >
<polygon points="15,85 20,80 23,80 23,90 20,90 15,85 " style="fill:white; stroke-width:1; stroke:black; " description="&lt;b&gt;D2G36_RS00410&lt;/b&gt;&lt;br&gt;DUF3999 domain-containing protein&lt;br&gt;Location: 91219 - 92967" locus_tag="D2G36_RS00410" class="clusterblast-orf" id="dummy-1_h1_4_3"  />
</g>
<g id="a1_004"  >
<polygon points="23,85 28,80 34,80 34,90 28,90 23,85 " style="fill:white; stroke-width:1; stroke:black; " description="&lt;b&gt;D2G36_RS00415&lt;/b&gt;&lt;br&gt;DUF2339 domain-containing protein&lt;br&gt;Location: 92970 - 95594" locus_tag="D2G36_RS00415" class="clusterblast-orf" id="dummy-1_h1_4_4"  />
</g>
<g id="a1_005"  >
<polygon points="36,90 38,85 36,80 36,90 " style="fill:white; stroke-width:1; stroke:black; " description="&lt;b&gt;D2G36_RS00420&lt;/b&gt;&lt;br&gt;hypothetical protein&lt;br&gt;Location: 96010 - 96399" locus_tag="D2G36_RS00420" class="clusterblast-orf" id="dummy-1_h1_4_5"  />
</g>
<g id="a1_006"  >
<polygon points="38,90 42,85 38,80 38,90 " style="fill:white; stroke-width:1; stroke:black; " description="&lt;b&gt;D2G36_RS00425&lt;/b&gt;&lt;br&gt;3-oxoacyl-ACP synthase&lt;br&gt;Location: 96493 - 97512" locus_tag="D2G36_RS00425" class="clusterblast-orf" id="dummy-1_h1_4_6"  />
</g>
<g id="a1_007"  >
<polygon points="42,90 42,90 47,85 42,80 42,80 42,90 " style="fill:white; stroke-width:1; stroke:black; " description="&lt;b&gt;D2G36_RS00430&lt;/b&gt;&lt;br&gt;NAD(P)-dependent oxidoreductase&lt;br&gt;Location: 97512 - 98519" locus_tag="D2G36_RS00430" class="clusterblast-orf" id="dummy-1_h1_4_7"  />
</g>
<g id="a1_008"  >
<polygon points="47,90 51,85 47,80 47,90 " style="fill:white; stroke-width:1; stroke:black; " description="&lt;b&gt;D2G36_RS00435&lt;/b&gt;&lt;br&gt;MBL fold metallo-hydrolase&lt;br&gt;Location: 98516 - 99370" locus_tag="D2G36_RS00435" class="clusterblast-orf" id="dummy-1_h1_4_8"  />
</g>
<g id="a1_009"  >
<polygon points="51,90 52,90 57,85 52,80 51,80 51,90 " style="fill:white; stroke-width:1; stroke:black; " description="&lt;b&gt;D2G36_RS00440&lt;/b&gt;&lt;br&gt;adenylate synthase&lt;br&gt;Location: 99360 - 100718" locus_tag="D2G36_RS00440" class="clusterblast-orf" id="dummy-1_h1_4_9"  />
</g>
<g id="a1_0010"  >
<polygon points="57,90 57,90 62,85 57,80 57,80 57,90 " style="fill:white; stroke-width:1; stroke:black; " description="&lt;b&gt;D2G36_RS00445&lt;/b&gt;&lt;br&gt;ATP-grasp domain-containing protein&lt;br&gt;Location: 100706 - 101860" locus_tag="D2G36_RS00445" class="clusterblast-orf" id="dummy-1_h1_4_10"  />
</g>
<g id="a1_0011"  >
<polygon points="62,90 62,90 67,85 62,80 62,80 62,90 " style="fill:white; stroke-width:1; stroke:black; " description="&lt;b&gt;D2G36_RS00450&lt;/b&gt;&lt;br&gt;hypothetical protein&lt;br&gt;Location: 101857 - 102996" locus_tag="D2G36_RS00450" class="clusterblast-orf" id="dummy-1_h1_4_11"  />
</g>
<g id="a1_0012"  >
<polygon points="67,90 71,85 67,80 67,90 " style="fill:white; stroke-width:1; stroke:black; " description="&lt;b&gt;D2G36_RS00455&lt;/b&gt;&lt;br&gt;aromatic ring-hydroxylating dioxygenase subunit alpha&lt;br&gt;Location: 102993 - 103994" locus_tag="D2G36_RS00455" class="clusterblast-orf" id="dummy-1_h1_4_12"  />
</g>
<g id="a1_0013"  >
<polygon points="71,85 73,80 73,90 71,85 " style="fill:white; stroke-width:1; stroke:black; " description="&lt;b&gt;D2G36_RS00460&lt;/b&gt;&lt;br&gt;hypothetical protein&lt;br&gt;Location: 104008 - 104463" locus_tag="D2G36_RS00460" class="clusterblast-orf" id="dummy-1_h1_4_13"  />
</g>
<g id="a1_0014"  >
<polygon points="75,90 79,85 75,80 75,90 " style="fill:white; stroke-width:1; stroke:black; " description="&lt;b&gt;D2G36_RS00465&lt;/b&gt;&lt;br&gt;hypothetical protein&lt;br&gt;Location: 104832 - 105857" locus_tag="D2G36_RS00465" class="clusterblast-orf" id="dummy-1_h1_4_14"  />
</g>
<g id="a1_0015"  >
<polygon points="79,85 81,80 81,90 79,85 " style="fill:white; stroke-width:1; stroke:black; " description="&lt;b&gt;D2G36_RS00470&lt;/b&gt;&lt;br&gt;cupin domain-containing protein&lt;br&gt;Location: 105898 - 106272" locus_tag="D2G36_RS00470" class="clusterblast-orf" id="dummy-1_h1_4_15"  />
</g>
<g id="a1_0016"  >
<polygon points="81,85 86,80 141,80 141,90 86,90 81,85 " style="fill:#d81515; stroke-width:1; stroke:black; " description="&lt;b&gt;D2G36_RS00475&lt;/b&gt;&lt;br&gt;amino acid adenylation domain-containing protein&lt;br&gt;Location: 106346 - 119950&lt;br&gt;&lt;br&gt;&lt;b&gt;BlastP hit with ctg36_1&lt;/b&gt;&lt;br&gt;Percentage identity: 41&lt;br&gt;Percentage coverage: 105&lt;br&gt;BLAST bit score: 1510&lt;br&gt;E-value: 0.0&lt;br&gt;&lt;br&gt;&lt;b&gt;BlastP hit with ctg36_2&lt;/b&gt;&lt;br&gt;Percentage identity: 47&lt;br&gt;Percentage coverage: 56&lt;br&gt;BLAST bit score: 1267&lt;br&gt;E-value: 0.0" locus_tag="D2G36_RS00475" class="clusterblast-orf" id="dummy-1_h1_4_16"  />
</g>
<g id="a1_0017"  >
<polygon points="141,85 146,80 205,80 205,90 146,90 141,85 " style="fill:#d81515; stroke-width:1; stroke:black; " description="&lt;b&gt;D2G36_RS00480&lt;/b&gt;&lt;br&gt;non-ribosomal peptide synthetase&lt;br&gt;Location: 119952 - 134558&lt;br&gt;&lt;br&gt;&lt;b&gt;BlastP hit with ctg36_1&lt;/b&gt;&lt;br&gt;Percentage identity: 42&lt;br&gt;Percentage coverage: 103&lt;br&gt;BLAST bit score: 1655&lt;br&gt;E-value: 0.0&lt;br&gt;&lt;br&gt;&lt;b&gt;BlastP hit with ctg36_2&lt;/b&gt;&lt;br&gt;Percentage identity: 45&lt;br&gt;Percentage coverage: 81&lt;br&gt;BLAST bit score: 1711&lt;br&gt;E-value: 0.0" locus_tag="D2G36_RS00480" class="clusterblast-orf" id="dummy-1_h1_4_17"  />
</g>
<g id="a1_0018"  >
<polygon points="207,90 210,85 207,80 207,90 " style="fill:#15d8d8; stroke-width:1; stroke:black; " description="&lt;b&gt;D2G36_RS00485&lt;/b&gt;&lt;br&gt;aspartyl beta-hydroxylase&lt;br&gt;Location: 134992 - 135609&lt;br&gt;&lt;br&gt;&lt;b&gt;BlastP hit with ctg36_19&lt;/b&gt;&lt;br&gt;Percentage identity: 49&lt;br&gt;Percentage coverage: 96&lt;br&gt;BLAST bit score: 164&lt;br&gt;E-value: 1.02e-49" locus_tag="D2G36_RS00485" class="clusterblast-orf" id="dummy-1_h1_4_18"  />
</g>
<g id="a1_0019"  >
<polygon points="211,85 216,80 216,80 216,90 216,90 211,85 " style="fill:white; stroke-width:1; stroke:black; " description="&lt;b&gt;D2G36_RS00490&lt;/b&gt;&lt;br&gt;alpha/beta fold hydrolase&lt;br&gt;Location: 135799 - 137007" locus_tag="D2G36_RS00490" class="clusterblast-orf" id="dummy-1_h1_4_19"  />
</g>
<g id="a1_0020"  >
<polygon points="216,85 220,80 220,90 216,85 " style="fill:white; stroke-width:1; stroke:black; " description="&lt;b&gt;D2G36_RS00495&lt;/b&gt;&lt;br&gt;chlorinating enzyme&lt;br&gt;Location: 137064 - 138008" locus_tag="D2G36_RS00495" class="clusterblast-orf" id="dummy-1_h1_4_20"  />
</g>
<g id="a1_0021"  >
<polygon points="220,85 225,80 229,80 229,90 225,90 220,85 " style="fill:white; stroke-width:1; stroke:black; " description="&lt;b&gt;D2G36_RS00500&lt;/b&gt;&lt;br&gt;amino acid adenylation domain-containing protein&lt;br&gt;Location: 138027 - 139937" locus_tag="D2G36_RS00500" class="clusterblast-orf" id="dummy-1_h1_4_21"  />
</g>
<g id="a1_0022"  >
<polygon points="230,90 230,90 235,85 230,80 230,80 230,90 " style="fill:white; stroke-width:1; stroke:black; " description="&lt;b&gt;D2G36_RS00505&lt;/b&gt;&lt;br&gt;TauD/TfdA family dioxygenase&lt;br&gt;Location: 140259 - 141311" locus_tag="D2G36_RS00505" class="clusterblast-orf" id="dummy-1_h1_4_22"  />
</g>
<g id="a1_0023"  >
<polygon points="235,90 238,90 243,85 238,80 235,80 235,90 " style="fill:white; stroke-width:1; stroke:black; " description="&lt;b&gt;D2G36_RS00510&lt;/b&gt;&lt;br&gt;cyclic peptide export ABC transporter&lt;br&gt;Location: 141470 - 143164" locus_tag="D2G36_RS00510" class="clusterblast-orf" id="dummy-1_h1_4_23"  />
</g>
<g id="a1_0024"  >
<polygon points="243,85 247,80 247,90 243,85 " style="fill:white; stroke-width:1; stroke:black; " description="&lt;b&gt;D2G36_RS00515&lt;/b&gt;&lt;br&gt;magnesium transporter CorA family protein&lt;br&gt;Location: 143263 - 144186" locus_tag="D2G36_RS00515" class="clusterblast-orf" id="dummy-1_h1_4_24"  />
</g>
<g id="a1_0025"  >
<polygon points="247,85 252,80 254,80 254,90 252,90 247,85 " style="fill:white; stroke-width:1; stroke:black; " description="&lt;b&gt;D2G36_RS00520&lt;/b&gt;&lt;br&gt;RimK family protein&lt;br&gt;Location: 144219 - 145799" locus_tag="D2G36_RS00520" class="clusterblast-orf" id="dummy-1_h1_4_25"  />
</g>
<g id="a1_0026"  >
<polygon points="255,90 255,90 260,85 255,80 255,80 255,90 " style="fill:white; stroke-width:1; stroke:black; " description="&lt;b&gt;D2G36_RS00525&lt;/b&gt;&lt;br&gt;GNAT family N-acetyltransferase&lt;br&gt;Location: 145893 - 146981" locus_tag="D2G36_RS00525" class="clusterblast-orf" id="dummy-1_h1_4_26"  />
</g>
<g id="a1_0027"  >
<polygon points="262,85 266,80 266,90 262,85 " style="fill:white; stroke-width:1; stroke:black; " description="&lt;b&gt;D2G36_RS00530&lt;/b&gt;&lt;br&gt;HAMP domain-containing protein&lt;br&gt;Location: 147415 - 148542" locus_tag="D2G36_RS00530" class="clusterblast-orf" id="dummy-1_h1_4_27"  />
</g>
<g id="a1_0028"  >
<polygon points="267,85 270,80 270,90 267,85 " style="fill:white; stroke-width:1; stroke:black; " description="&lt;b&gt;D2G36_RS00535&lt;/b&gt;&lt;br&gt;response regulator transcription factor&lt;br&gt;Location: 148605 - 149294" locus_tag="D2G36_RS00535" class="clusterblast-orf" id="dummy-1_h1_4_28"  />
</g>
<g id="a1_0029"  >
<polygon points="270,90 272,90 277,85 272,80 270,80 270,90 " style="fill:white; stroke-width:1; stroke:black; " description="&lt;b&gt;D2G36_RS00540&lt;/b&gt;&lt;br&gt;efflux transporter outer membrane subunit&lt;br&gt;Location: 149392 - 150900" locus_tag="D2G36_RS00540" class="clusterblast-orf" id="dummy-1_h1_4_29"  />
</g>
<g id="a1_0030"  >
<polygon points="277,90 280,85 277,80 277,90 " style="fill:white; stroke-width:1; stroke:black; " description="&lt;b&gt;D2G36_RS00545&lt;/b&gt;&lt;br&gt;MipA/OmpV family protein&lt;br&gt;Location: 150897 - 151733" locus_tag="D2G36_RS00545" class="clusterblast-orf" id="dummy-1_h1_4_30"  />
</g>
<g id="a1_0031"  >
<polygon points="281,90 281,90 286,85 281,80 281,80 281,90 " style="fill:white; stroke-width:1; stroke:black; " description="&lt;b&gt;D2G36_RS00550&lt;/b&gt;&lt;br&gt;efflux RND transporter periplasmic adaptor subunit&lt;br&gt;Location: 151754 - 152884" locus_tag="D2G36_RS00550" class="clusterblast-orf" id="dummy-1_h1_4_31"  />
</g>
<g id="a1_0032"  >
<polygon points="286,90 294,90 299,85 294,80 286,80 286,90 " style="fill:white; stroke-width:1; stroke:black; " description="&lt;b&gt;D2G36_RS00555&lt;/b&gt;&lt;br&gt;efflux RND transporter permease subunit&lt;br&gt;Location: 152888 - 155965" locus_tag="D2G36_RS00555" class="clusterblast-orf" id="dummy-1_h1_4_32"  />
</g>
<g id="a1_0033"  >
<polygon points="299,85 303,80 303,90 299,85 " style="fill:white; stroke-width:1; stroke:black; " description="&lt;b&gt;D2G36_RS00560&lt;/b&gt;&lt;br&gt;class I SAM-dependent methyltransferase&lt;br&gt;Location: 156038 - 156862" locus_tag="D2G36_RS00560" class="clusterblast-orf" id="dummy-1_h1_4_33"  />
</g>
<g id="a1_0034"  >
<polygon points="304,85 307,80 307,90 304,85 " style="fill:white; stroke-width:1; stroke:black; " description="&lt;b&gt;D2G36_RS00565&lt;/b&gt;&lt;br&gt;ABC transporter ATP-binding protein&lt;br&gt;Location: 157052 - 157792" locus_tag="D2G36_RS00565" class="clusterblast-orf" id="dummy-1_h1_4_34"  />
</g>
<g id="a1_0035"  >
<polygon points="307,85 311,80 311,90 307,85 " style="fill:white; stroke-width:1; stroke:black; " description="&lt;b&gt;D2G36_RS00570&lt;/b&gt;&lt;br&gt;ABC transporter permease&lt;br&gt;Location: 157789 - 158631" locus_tag="D2G36_RS00570" class="clusterblast-orf" id="dummy-1_h1_4_35"  />
</g>
<g id="a1_0036"  >
<polygon points="311,85 315,80 315,90 311,85 " style="fill:white; stroke-width:1; stroke:black; " description="&lt;b&gt;D2G36_RS00575&lt;/b&gt;&lt;br&gt;aliphatic sulfonate ABC transporter substrate-binding protein&lt;br&gt;Location: 158631 - 159557" locus_tag="D2G36_RS00575" class="clusterblast-orf" id="dummy-1_h1_4_36"  />
</g>
<g id="a1_0037"  >
<polygon points="316,85 321,80 321,80 321,90 321,90 316,85 " style="fill:white; stroke-width:1; stroke:black; " description="&lt;b&gt;D2G36_RS00580&lt;/b&gt;&lt;br&gt;acyl-CoA dehydrogenase family protein&lt;br&gt;Location: 159865 - 161052" locus_tag="D2G36_RS00580" class="clusterblast-orf" id="dummy-1_h1_4_37"  />
</g>
<g id="a1_0038"  >
<polygon points="323,85 326,80 326,90 323,85 " style="fill:white; stroke-width:1; stroke:black; " description="&lt;b&gt;D2G36_RS00585&lt;/b&gt;&lt;br&gt;two-component system response regulator NarL&lt;br&gt;Location: 161355 - 162005" locus_tag="D2G36_RS00585" class="clusterblast-orf" id="dummy-1_h1_4_38"  />
</g>
<g id="a1_0039"  >
<polygon points="326,85 331,80 333,80 333,90 331,90 326,85 " style="fill:white; stroke-width:1; stroke:black; " description="&lt;b&gt;D2G36_RS00590&lt;/b&gt;&lt;br&gt;HAMP domain-containing protein&lt;br&gt;Location: 162002 - 163804" locus_tag="D2G36_RS00590" class="clusterblast-orf" id="dummy-1_h1_4_39"  />
</g>
<g id="a1_0040"  >
<polygon points="335,90 336,90 341,85 336,80 335,80 335,90 " style="fill:white; stroke-width:1; stroke:black; " description="&lt;b&gt;D2G36_RS00595&lt;/b&gt;&lt;br&gt;NarK family nitrate/nitrite MFS transporter&lt;br&gt;Location: 164057 - 165472" locus_tag="D2G36_RS00595" class="clusterblast-orf" id="dummy-1_h1_4_40"  />
</g>
<g id="a1_0041"  >
<polygon points="341,90 353,90 358,85 353,80 341,80 341,90 " style="fill:white; stroke-width:1; stroke:black; " description="&lt;b&gt;D2G36_RS00600&lt;/b&gt;&lt;br&gt;nitrate reductase subunit alpha&lt;br&gt;Location: 165539 - 169297" locus_tag="D2G36_RS00600" class="clusterblast-orf" id="dummy-1_h1_4_41"  />
</g>
<g id="a1_0042"  >
<polygon points="358,90 359,90 364,85 359,80 358,80 358,90 " style="fill:white; stroke-width:1; stroke:black; " description="&lt;b&gt;D2G36_RS00605&lt;/b&gt;&lt;br&gt;nitrate reductase subunit beta&lt;br&gt;Location: 169309 - 170847" locus_tag="D2G36_RS00605" class="clusterblast-orf" id="dummy-1_h1_4_42"  />
</g>
<g id="a1_0043"  >
<polygon points="364,90 368,85 364,80 364,90 " style="fill:white; stroke-width:1; stroke:black; " description="&lt;b&gt;D2G36_RS00610&lt;/b&gt;&lt;br&gt;nitrate reductase molybdenum cofactor assembly chaperone&lt;br&gt;Location: 170850 - 171593" locus_tag="D2G36_RS00610" class="clusterblast-orf" id="dummy-1_h1_4_43"  />
</g>
<g id="a1_0044"  >
<polygon points="368,90 371,85 368,80 368,90 " style="fill:white; stroke-width:1; stroke:black; " description="&lt;b&gt;D2G36_RS00615&lt;/b&gt;&lt;br&gt;respiratory nitrate reductase subunit gamma&lt;br&gt;Location: 171586 - 172266" locus_tag="D2G36_RS00615" class="clusterblast-orf" id="dummy-1_h1_4_44"  />
</g>
<g id="a1_0045"  >
<polygon points="371,90 374,85 371,80 371,90 " style="fill:white; stroke-width:1; stroke:black; " description="&lt;b&gt;D2G36_RS00620&lt;/b&gt;&lt;br&gt;peptidylprolyl isomerase&lt;br&gt;Location: 172277 - 173137" locus_tag="D2G36_RS00620" class="clusterblast-orf" id="dummy-1_h1_4_45"  />
</g>
<g id="a1_0046"  >
<polygon points="374,90 375,85 374,80 374,90 " style="fill:white; stroke-width:1; stroke:black; " description="&lt;b&gt;D2G36_RS00625&lt;/b&gt;&lt;br&gt;DUF3079 domain-containing protein&lt;br&gt;Location: 173151 - 173366" locus_tag="D2G36_RS00625" class="clusterblast-orf" id="dummy-1_h1_4_46"  />
</g>
<g id="a1_0047"  >
<polygon points="376,85 379,80 379,90 376,85 " style="fill:#d815d8; stroke-width:1; stroke:black; " description="&lt;b&gt;D2G36_RS00630&lt;/b&gt;&lt;br&gt;helix-turn-helix transcriptional regulator&lt;br&gt;Location: 173456 - 174250&lt;br&gt;&lt;br&gt;&lt;b&gt;BlastP hit with ctg36_5&lt;/b&gt;&lt;br&gt;Percentage identity: 37&lt;br&gt;Percentage coverage: 80&lt;br&gt;BLAST bit score: 109&lt;br&gt;E-value: 7.48e-27" locus_tag="D2G36_RS00630" class="clusterblast-orf" id="dummy-1_h1_4_47"  />
</g>
<g id="a1_0048"  >
<polygon points="381,90 418,90 423,85 418,80 381,80 381,90 " style="fill:#d81515; stroke-width:1; stroke:black; " description="&lt;b&gt;D2G36_RS00635&lt;/b&gt;&lt;br&gt;amino acid adenylation domain-containing protein&lt;br&gt;Location: 174596 - 184093&lt;br&gt;&lt;br&gt;&lt;b&gt;BlastP hit with ctg36_1&lt;/b&gt;&lt;br&gt;Percentage identity: 64&lt;br&gt;Percentage coverage: 101&lt;br&gt;BLAST bit score: 2943&lt;br&gt;E-value: 0.0&lt;br&gt;&lt;br&gt;&lt;b&gt;BlastP hit with ctg36_2&lt;/b&gt;&lt;br&gt;Percentage identity: 47&lt;br&gt;Percentage coverage: 79&lt;br&gt;BLAST bit score: 1785&lt;br&gt;E-value: 0.0" locus_tag="D2G36_RS00635" class="clusterblast-orf" id="dummy-1_h1_4_48"  />
</g>
<g id="a1_0049"  >
<polygon points="422,90 495,90 500,85 495,80 422,80 422,90 " style="fill:#d81515; stroke-width:1; stroke:black; " description="&lt;b&gt;D2G36_RS00640&lt;/b&gt;&lt;br&gt;non-ribosomal peptide synthetase&lt;br&gt;Location: 184090 - 201828&lt;br&gt;&lt;br&gt;&lt;b&gt;BlastP hit with ctg36_1&lt;/b&gt;&lt;br&gt;Percentage identity: 39&lt;br&gt;Percentage coverage: 146&lt;br&gt;BLAST bit score: 2100&lt;br&gt;E-value: 0.0&lt;br&gt;&lt;br&gt;&lt;b&gt;BlastP hit with ctg36_2&lt;/b&gt;&lt;br&gt;Percentage identity: 58&lt;br&gt;Percentage coverage: 80&lt;br&gt;BLAST bit score: 2409&lt;br&gt;E-value: 0.0" locus_tag="D2G36_RS00640" class="clusterblast-orf" id="dummy-1_h1_4_49"  />
</g>
<g id="a1_0050"  >
<polygon points="501,90 501,90 506,85 501,80 501,80 501,90 " style="fill:#15d815; stroke-width:1; stroke:black; " description="&lt;b&gt;D2G36_RS00645&lt;/b&gt;&lt;br&gt;macrolide transporter subunit MacA&lt;br&gt;Location: 201947 - 203098&lt;br&gt;&lt;br&gt;&lt;b&gt;BlastP hit with ctg36_3&lt;/b&gt;&lt;br&gt;Percentage identity: 70&lt;br&gt;Percentage coverage: 100&lt;br&gt;BLAST bit score: 504&lt;br&gt;E-value: 1.12e-177" locus_tag="D2G36_RS00645" class="clusterblast-orf" id="dummy-1_h1_4_50"  />
</g>
<g id="a1_0051"  >
<polygon points="506,90 510,90 515,85 510,80 506,80 506,90 " style="fill:#1515d8; stroke-width:1; stroke:black; " description="&lt;b&gt;D2G36_RS00650&lt;/b&gt;&lt;br&gt;MacB family efflux pump subunit&lt;br&gt;Location: 203101 - 205107&lt;br&gt;&lt;br&gt;&lt;b&gt;BlastP hit with ctg36_4&lt;/b&gt;&lt;br&gt;Percentage identity: 80&lt;br&gt;Percentage coverage: 99&lt;br&gt;BLAST bit score: 1014&lt;br&gt;E-value: 0.0" locus_tag="D2G36_RS00650" class="clusterblast-orf" id="dummy-1_h1_4_51"  />
</g>
<g id="a1_0052"  >
<polygon points="515,85 518,80 518,90 515,85 " style="fill:#d815d8; stroke-width:1; stroke:black; " description="&lt;b&gt;D2G36_RS00655&lt;/b&gt;&lt;br&gt;response regulator transcription factor&lt;br&gt;Location: 205136 - 205804&lt;br&gt;&lt;br&gt;&lt;b&gt;BlastP hit with ctg36_5&lt;/b&gt;&lt;br&gt;Percentage identity: 41&lt;br&gt;Percentage coverage: 92&lt;br&gt;BLAST bit score: 140&lt;br&gt;E-value: 1.87e-39" locus_tag="D2G36_RS00655" class="clusterblast-orf" id="dummy-1_h1_4_52"  />
</g>
<g id="a1_0053"  >
<polygon points="520,85 525,80 525,80 525,90 525,90 520,85 " style="fill:white; stroke-width:1; stroke:black; " description="&lt;b&gt;D2G36_RS00660&lt;/b&gt;&lt;br&gt;glucarate dehydratase&lt;br&gt;Location: 206193 - 207548" locus_tag="D2G36_RS00660" class="clusterblast-orf" id="dummy-1_h1_4_53"  />
</g>
<g id="a1_0054"  >
<polygon points="526,85 531,80 532,80 532,90 531,90 526,85 " style="fill:white; stroke-width:1; stroke:black; " description="&lt;b&gt;D2G36_RS00665&lt;/b&gt;&lt;br&gt;MFS transporter&lt;br&gt;Location: 207575 - 208951" locus_tag="D2G36_RS00665" class="clusterblast-orf" id="dummy-1_h1_4_54"  />
</g>
<g id="a1_0055"  >
<polygon points="532,85 537,80 537,80 537,90 537,90 532,85 " style="fill:white; stroke-width:1; stroke:black; " description="&lt;b&gt;D2G36_RS00670&lt;/b&gt;&lt;br&gt;LacI family transcriptional regulator&lt;br&gt;Location: 209105 - 210139" locus_tag="D2G36_RS00670" class="clusterblast-orf" id="dummy-1_h1_4_55"  />
</g>
<g id="a1_0056"  >
<polygon points="538,90 538,90 543,85 538,80 538,80 538,90 " style="fill:white; stroke-width:1; stroke:black; " description="&lt;b&gt;D2G36_RS00675&lt;/b&gt;&lt;br&gt;alpha/beta fold hydrolase&lt;br&gt;Location: 210350 - 211513" locus_tag="D2G36_RS00675" class="clusterblast-orf" id="dummy-1_h1_4_56"  />
</g>
<g id="a1_0057"  >
<polygon points="543,85 548,80 553,80 553,90 548,90 543,85 " style="fill:white; stroke-width:1; stroke:black; " description="&lt;b&gt;D2G36_RS00680&lt;/b&gt;&lt;br&gt;TonB-dependent siderophore receptor&lt;br&gt;Location: 211576 - 213783" locus_tag="D2G36_RS00680" class="clusterblast-orf" id="dummy-1_h1_4_57"  />
</g>
<g id="a1_0058"  >
<polygon points="554,90 558,85 554,80 554,90 " style="fill:white; stroke-width:1; stroke:black; " description="&lt;b&gt;D2G36_RS00685&lt;/b&gt;&lt;br&gt;ABC transporter ATP-binding protein&lt;br&gt;Location: 214051 - 214854" locus_tag="D2G36_RS00685" class="clusterblast-orf" id="dummy-1_h1_4_58"  />
</g>
<g id="a1_0059"  >
<polygon points="558,90 562,85 558,80 558,90 " style="fill:white; stroke-width:1; stroke:black; " description="&lt;b&gt;D2G36_RS00690&lt;/b&gt;&lt;br&gt;iron ABC transporter permease&lt;br&gt;Location: 214851 - 215834" locus_tag="D2G36_RS00690" class="clusterblast-orf" id="dummy-1_h1_4_59"  />
</g>
<g id="a1_0060"  >
<polygon points="562,90 566,85 562,80 562,90 " style="fill:white; stroke-width:1; stroke:black; " description="&lt;b&gt;D2G36_RS00695&lt;/b&gt;&lt;br&gt;iron ABC transporter permease&lt;br&gt;Location: 215831 - 216880" locus_tag="D2G36_RS00695" class="clusterblast-orf" id="dummy-1_h1_4_60"  />
</g>
<g id="a1_0061"  >
<polygon points="567,90 571,85 567,80 567,90 " style="fill:white; stroke-width:1; stroke:black; " description="&lt;b&gt;D2G36_RS00700&lt;/b&gt;&lt;br&gt;ABC transporter substrate-binding protein&lt;br&gt;Location: 216939 - 217847" locus_tag="D2G36_RS00700" class="clusterblast-orf" id="dummy-1_h1_4_61"  />
</g>
<g id="a1_0062"  >
<polygon points="571,90 571,90 576,85 571,80 571,80 571,90 " style="fill:white; stroke-width:1; stroke:black; " description="&lt;b&gt;D2G36_RS00705&lt;/b&gt;&lt;br&gt;TauD/TfdA family dioxygenase&lt;br&gt;Location: 217969 - 218958" locus_tag="D2G36_RS00705" class="clusterblast-orf" id="dummy-1_h1_4_62"  />
</g>
<g id="a1_0063"  >
<polygon points="576,90 592,90 597,85 592,80 576,80 576,90 " style="fill:white; stroke-width:1; stroke:black; " description="&lt;b&gt;D2G36_RS00710&lt;/b&gt;&lt;br&gt;non-ribosomal peptide synthetase&lt;br&gt;Location: 219025 - 223833" locus_tag="D2G36_RS00710" class="clusterblast-orf" id="dummy-1_h1_4_63"  />
</g>
<g id="a1_0064"  >
<polygon points="597,90 634,90 639,85 634,80 597,80 597,90 " style="fill:#d81515; stroke-width:1; stroke:black; " description="&lt;b&gt;D2G36_RS00715&lt;/b&gt;&lt;br&gt;amino acid adenylation domain-containing protein&lt;br&gt;Location: 223876 - 233340&lt;br&gt;&lt;br&gt;&lt;b&gt;BlastP hit with ctg36_1&lt;/b&gt;&lt;br&gt;Percentage identity: 33&lt;br&gt;Percentage coverage: 104&lt;br&gt;BLAST bit score: 910&lt;br&gt;E-value: 5.45e-280&lt;br&gt;&lt;br&gt;&lt;b&gt;BlastP hit with ctg36_2&lt;/b&gt;&lt;br&gt;Percentage identity: 36&lt;br&gt;Percentage coverage: 78&lt;br&gt;BLAST bit score: 1092&lt;br&gt;E-value: 0.0" locus_tag="D2G36_RS00715" class="clusterblast-orf" id="dummy-1_h1_4_64"  />
</g>
<g id="a1_0065"  >
<polygon points="639,90 673,90 678,85 673,80 639,80 639,90 " style="fill:white; stroke-width:1; stroke:black; " description="&lt;b&gt;D2G36_RS00720&lt;/b&gt;&lt;br&gt;amino acid adenylation domain-containing protein&lt;br&gt;Location: 233343 - 242372" locus_tag="D2G36_RS00720" class="clusterblast-orf" id="dummy-1_h1_4_65"  />
</g>
<g id="a1_0066"  >
<polygon points="678,90 690,90 695,85 690,80 678,80 678,90 " style="fill:white; stroke-width:1; stroke:black; " description="&lt;b&gt;D2G36_RS00725&lt;/b&gt;&lt;br&gt;amino acid adenylation domain-containing protein&lt;br&gt;Location: 242369 - 246151" locus_tag="D2G36_RS00725" class="clusterblast-orf" id="dummy-1_h1_4_66"  />
</g>
<g id="a1_0067"  >
<polygon points="695,90 697,90 702,85 697,80 695,80 695,90 " style="fill:white; stroke-width:1; stroke:black; " description="&lt;b&gt;D2G36_RS00730&lt;/b&gt;&lt;br&gt;cyclic peptide export ABC transporter&lt;br&gt;Location: 246148 - 247791" locus_tag="D2G36_RS00730" class="clusterblast-orf" id="dummy-1_h1_4_67"  />
</g>
<g id="a1_0068"  >
<polygon points="702,85 705,80 705,90 702,85 " style="fill:white; stroke-width:1; stroke:black; " description="&lt;b&gt;D2G36_RS00735&lt;/b&gt;&lt;br&gt;siderophore-iron reductase FhuF&lt;br&gt;Location: 247792 - 248520" locus_tag="D2G36_RS00735" class="clusterblast-orf" id="dummy-1_h1_4_68"  />
</g>
<g id="a1_0069"  >
<polygon points="706,90 707,85 706,80 706,90 " style="fill:white; stroke-width:1; stroke:black; " description="&lt;b&gt;D2G36_RS00740&lt;/b&gt;&lt;br&gt;MbtH family NRPS accessory protein&lt;br&gt;Location: 248722 - 248937" locus_tag="D2G36_RS00740" class="clusterblast-orf" id="dummy-1_h1_4_69"  />
</g>
<g id="a1_0070"  >
<polygon points="707,90 709,90 714,85 709,80 707,80 707,90 " style="fill:white; stroke-width:1; stroke:black; " description="&lt;b&gt;D2G36_RS00745&lt;/b&gt;&lt;br&gt;diaminobutyrate--2-oxoglutarate transaminase family protein&lt;br&gt;Location: 248976 - 250406" locus_tag="D2G36_RS00745" class="clusterblast-orf" id="dummy-1_h1_4_70"  />
</g>
<g id="a1_0071"  >
<polygon points="714,85 719,80 723,80 723,90 719,90 714,85 " style="fill:white; stroke-width:1; stroke:black; " description="&lt;b&gt;D2G36_RS00750&lt;/b&gt;&lt;br&gt;methyl-accepting chemotaxis protein&lt;br&gt;Location: 250459 - 252597" locus_tag="D2G36_RS00750" class="clusterblast-orf" id="dummy-1_h1_4_71"  />
</g>
<g id="a1_0072"  >
<polygon points="725,90 726,90 731,85 726,80 725,80 725,90 " style="fill:white; stroke-width:1; stroke:black; " description="&lt;b&gt;D2G36_RS00755&lt;/b&gt;&lt;br&gt;APC family permease&lt;br&gt;Location: 253005 - 254453" locus_tag="D2G36_RS00755" class="clusterblast-orf" id="dummy-1_h1_4_72"  />
</g>
<g id="a1_0073"  >
<polygon points="732,90 733,90 738,85 733,80 732,80 732,90 " style="fill:white; stroke-width:1; stroke:black; " description="&lt;b&gt;D2G36_RS00760&lt;/b&gt;&lt;br&gt;hypothetical protein&lt;br&gt;Location: 254550 - 255875" locus_tag="D2G36_RS00760" class="clusterblast-orf" id="dummy-1_h1_4_73"  />
</g>
<g id="a1_0074"  >
<polygon points="738,85 741,80 741,90 738,85 " style="fill:white; stroke-width:1; stroke:black; " description="&lt;b&gt;D2G36_RS00765&lt;/b&gt;&lt;br&gt;IclR family transcriptional regulator&lt;br&gt;Location: 255918 - 256667" locus_tag="D2G36_RS00765" class="clusterblast-orf" id="dummy-1_h1_4_74"  />
</g>
<g id="a1_0075"  >
<polygon points="742,90 744,90 749,85 744,80 742,80 742,90 " style="fill:white; stroke-width:1; stroke:black; " description="&lt;b&gt;D2G36_RS00770&lt;/b&gt;&lt;br&gt;acetolactate synthase large subunit&lt;br&gt;Location: 256938 - 258479" locus_tag="D2G36_RS00770" class="clusterblast-orf" id="dummy-1_h1_4_75"  />
</g>
<g id="a1_0076"  >
<polygon points="749,90 751,90 756,85 751,80 749,80 749,90 " style="fill:white; stroke-width:1; stroke:black; " description="&lt;b&gt;D2G36_RS00775&lt;/b&gt;&lt;br&gt;aldehyde dehydrogenase family protein&lt;br&gt;Location: 258491 - 259981" locus_tag="D2G36_RS00775" class="clusterblast-orf" id="dummy-1_h1_4_76"  />
</g>
<g id="a1_0077"  >
<polygon points="756,90 759,85 756,80 756,90 " style="fill:white; stroke-width:1; stroke:black; " description="&lt;b&gt;D2G36_RS00780&lt;/b&gt;&lt;br&gt;SDR family oxidoreductase&lt;br&gt;Location: 260008 - 260802" locus_tag="D2G36_RS00780" class="clusterblast-orf" id="dummy-1_h1_4_77"  />
</g>
<g id="a1_0078"  >
<polygon points="759,90 759,90 764,85 759,80 759,80 759,90 " style="fill:white; stroke-width:1; stroke:black; " description="&lt;b&gt;D2G36_RS00785&lt;/b&gt;&lt;br&gt;glycosyl hydrolase&lt;br&gt;Location: 260815 - 261855" locus_tag="D2G36_RS00785" class="clusterblast-orf" id="dummy-1_h1_4_78"  />
</g>
<g id="a1_0079"  >
<polygon points="764,90 766,85 764,80 764,90 " style="fill:white; stroke-width:1; stroke:black; " description="&lt;b&gt;D2G36_RS00790&lt;/b&gt;&lt;br&gt;glyoxalase&lt;br&gt;Location: 261867 - 262316" locus_tag="D2G36_RS00790" class="clusterblast-orf" id="dummy-1_h1_4_79"  />
</g>
<g id="a1_0080"  >
<polygon points="766,90 769,85 766,80 766,90 " style="fill:white; stroke-width:1; stroke:black; " description="&lt;b&gt;D2G36_RS00795&lt;/b&gt;&lt;br&gt;amino acid synthesis family protein&lt;br&gt;Location: 262333 - 262935" locus_tag="D2G36_RS00795" class="clusterblast-orf" id="dummy-1_h1_4_80"  />
</g>
<g id="a1_0081"  >
<polygon points="769,90 772,85 769,80 769,90 " style="fill:white; stroke-width:1; stroke:black; " description="&lt;b&gt;D2G36_RS00800&lt;/b&gt;&lt;br&gt;alpha/beta hydrolase&lt;br&gt;Location: 262953 - 263825" locus_tag="D2G36_RS00800" class="clusterblast-orf" id="dummy-1_h1_4_81"  />
</g>
<g id="a1_0082"  >
<polygon points="772,90 775,90 780,85 775,80 772,80 772,90 " style="fill:white; stroke-width:1; stroke:black; " description="&lt;b&gt;D2G36_RS00805&lt;/b&gt;&lt;br&gt;bifunctional 3-(3-hydroxy-phenyl)propionate/3-hydroxycinnamic acid hydroxylase&lt;br&gt;Location: 263822 - 265429" locus_tag="D2G36_RS00805" class="clusterblast-orf" id="dummy-1_h1_4_82"  />
</g>
</svg>
