<svg xmlns="http://www.w3.org/2000/svg" xmlns:xlink="http://www.w3.org/1999/xlink" version="1.1" x="0" y="0" height="230" width="800" viewBox="0 0 800 230" preserveAspectRatio="none"  >
<g label="Query sequence" class="clusterblast-cluster"  >
<text x="5" y="20" class="clusterblast-acc"  >
Query sequence</text>
<line x1="10" y1="35" x2="778.0" y2="35" style="stroke-width:1; stroke:grey; "  />
<polygon points="0,40 49,40 54,35 49,30 0,30 0,40 " style="fill:white; stroke-width:1; stroke:black; " description="&lt;b&gt;ctg1_138&lt;/b&gt;&lt;br&gt;ctg1 138&lt;br&gt;Location: 138956 - 140336" locus_tag="ctg1_138" class="clusterblast-orf" id="dummy-1_q0_0_all"  />
<polygon points="55,40 67,40 72,35 67,30 55,30 55,40 " style="fill:#d81515; stroke-width:1; stroke:black; " description="&lt;b&gt;ctg1_139&lt;/b&gt;&lt;br&gt;ctg1 139&lt;br&gt;Location: 140381 - 140807" locus_tag="ctg1_139" class="clusterblast-orf" id="dummy-1_q1_0_all"  />
<polygon points="78,40 125,40 130,35 125,30 78,30 78,40 " style="fill:#63d815; stroke-width:1; stroke:black; " description="&lt;b&gt;ctg1_140&lt;/b&gt;&lt;br&gt;ctg1 140&lt;br&gt;Location: 140969 - 142292" locus_tag="ctg1_140" class="clusterblast-orf" id="dummy-1_q2_0_all"  />
<polygon points="138,40 163,40 168,35 163,30 138,30 138,40 " style="fill:#15b1d8; stroke-width:1; stroke:black; " description="&lt;b&gt;ctg1_141&lt;/b&gt;&lt;br&gt;ctg1 141&lt;br&gt;Location: 142494 - 143271" locus_tag="ctg1_141" class="clusterblast-orf" id="dummy-1_q3_0_all"  />
<polygon points="168,40 235,40 240,35 235,30 168,30 168,40 " style="fill:#b115d8; stroke-width:1; stroke:black; " description="&lt;b&gt;ctg1_142&lt;/b&gt;&lt;br&gt;ctg1 142&lt;br&gt;Location: 143272 - 145108" locus_tag="ctg1_142" class="clusterblast-orf" id="dummy-1_q4_0_all"  />
<polygon points="245,35 250,30 275,30 275,40 250,40 245,35 " style="fill:#d86315; stroke-width:1; stroke:black; " description="&lt;b&gt;ctg1_143&lt;/b&gt;&lt;br&gt;ctg1 143&lt;br&gt;Location: 145256 - 146027" locus_tag="ctg1_143" class="clusterblast-orf" id="dummy-1_q5_0_all"  />
<polygon points="276,35 281,30 320,30 320,40 281,40 276,35 " style="fill:#15d815; stroke-width:1; stroke:black; " description="&lt;b&gt;ctg1_144&lt;/b&gt;&lt;br&gt;ctg1 144&lt;br&gt;Location: 146038 - 147187" locus_tag="ctg1_144" class="clusterblast-orf" id="dummy-1_q6_0_all"  />
<polygon points="320,35 325,30 369,30 369,40 325,40 320,35 " style="fill:#1563d8; stroke-width:1; stroke:black; " description="&lt;b&gt;ctg1_145&lt;/b&gt;&lt;br&gt;ctg1 145&lt;br&gt;Location: 147183 - 148431" locus_tag="ctg1_145" class="clusterblast-orf" id="dummy-1_q7_0_all"  />
<polygon points="374,35 379,30 396,30 396,40 379,40 374,35 " style="fill:#d815b1; stroke-width:1; stroke:black; " description="&lt;b&gt;ctg1_146&lt;/b&gt;&lt;br&gt;ctg1 146&lt;br&gt;Location: 148569 - 149124" locus_tag="ctg1_146" class="clusterblast-orf" id="dummy-1_q8_0_all"  />
<polygon points="402,40 425,40 430,35 425,30 402,30 402,40 " style="fill:#d8b115; stroke-width:1; stroke:black; " description="&lt;b&gt;ctg1_147&lt;/b&gt;&lt;br&gt;ctg1 147&lt;br&gt;Location: 149281 - 150001" locus_tag="ctg1_147" class="clusterblast-orf" id="dummy-1_q9_0_all"  />
<polygon points="443,40 473,40 478,35 473,30 443,30 443,40 " style="fill:#15d863; stroke-width:1; stroke:black; " description="&lt;b&gt;ctg1_148&lt;/b&gt;&lt;br&gt;ctg1 148&lt;br&gt;Location: 150326 - 151229" locus_tag="ctg1_148" class="clusterblast-orf" id="dummy-1_q10_0_all"  />
<polygon points="483,40 502,40 507,35 502,30 483,30 483,40 " style="fill:#1515d8; stroke-width:1; stroke:black; " description="&lt;b&gt;ctg1_149&lt;/b&gt;&lt;br&gt;ctg1 149&lt;br&gt;Location: 151355 - 151982" locus_tag="ctg1_149" class="clusterblast-orf" id="dummy-1_q11_0_all"  />
<polygon points="510,40 584,40 589,35 584,30 510,30 510,40 " style="fill:#d81563; stroke-width:1; stroke:black; " description="&lt;b&gt;ctg1_150&lt;/b&gt;&lt;br&gt;ctg1 150&lt;br&gt;Location: 152051 - 154082" locus_tag="ctg1_150" class="clusterblast-orf" id="dummy-1_q12_0_all"  />
<polygon points="591,35 596,30 635,30 635,40 596,40 591,35 " style="fill:#b1d815; stroke-width:1; stroke:black; " description="&lt;b&gt;ctg1_151&lt;/b&gt;&lt;br&gt;ctg1 151&lt;br&gt;Location: 154121 - 155252" locus_tag="ctg1_151" class="clusterblast-orf" id="dummy-1_q13_0_all"  />
<polygon points="635,35 640,30 679,30 679,40 640,40 635,35 " style="fill:#15d8b1; stroke-width:1; stroke:black; " description="&lt;b&gt;ctg1_152&lt;/b&gt;&lt;br&gt;ctg1 152&lt;br&gt;Location: 155252 - 156383" locus_tag="ctg1_152" class="clusterblast-orf" id="dummy-1_q14_0_all"  />
<polygon points="678,35 683,30 731,30 731,40 683,40 678,35 " style="fill:#15d8b1; stroke-width:1; stroke:black; " description="&lt;b&gt;ctg1_153&lt;/b&gt;&lt;br&gt;ctg1 153&lt;br&gt;Location: 156366 - 157734" locus_tag="ctg1_153" class="clusterblast-orf" id="dummy-1_q15_0_all"  />
<polygon points="731,35 736,30 780,30 780,40 736,40 731,35 " style="fill:#6315d8; stroke-width:1; stroke:black; " description="&lt;b&gt;ctg1_154&lt;/b&gt;&lt;br&gt;ctg1 154&lt;br&gt;Location: 157730 - 158981" locus_tag="ctg1_154" class="clusterblast-orf" id="dummy-1_q16_0_all"  />
</g>
<g label="NZ_MOBJ01000021" description="NZ_MOBJ01000021 (22928-43480): Pseudomonas brassicacearum strain 48H11 48H11 ... (27% of genes show similarity), butyrolactone,hserlactone" class="clusterblast-cluster"  >
<text x="5" y="70" class="clusterblast-acc"  >
<a xlink:href="https://antismash-db.secondarymetabolites.org/area.html?record=NZ_MOBJ01000021&amp;start=22928&amp;end=43480" target="_blank">NZ_MOBJ01000021 (22928-43480)</a>: Pseudomonas brassicacearum strain 48H11 48H11 ... (27% of genes show similarity), butyrolactone,hserlactone</text>
<line x1="10" y1="85" x2="778.0" y2="85" style="stroke-width:1; stroke:grey; "  />
</g>
<g id="a1_000"  >
<polygon points="17,85 22,80 64,80 64,90 22,90 17,85 " style="fill:white; stroke-width:1; stroke:black; " description="&lt;b&gt;BK659_RS23650&lt;/b&gt;&lt;br&gt;pilus assembly protein&lt;br&gt;Location: 42615 - 41425" locus_tag="BK659_RS23650" class="clusterblast-orf" id="dummy-1_h1_5_0"  />
</g>
<g id="a1_001"  >
<polygon points="66,85 71,80 103,80 103,90 71,90 66,85 " style="fill:white; stroke-width:1; stroke:black; " description="&lt;b&gt;BK659_RS23645&lt;/b&gt;&lt;br&gt;Flp pilus assembly protein CpaB&lt;br&gt;Location: 41364 - 40420" locus_tag="BK659_RS23645" class="clusterblast-orf" id="dummy-1_h1_5_1"  />
</g>
<g id="a1_002"  >
<polygon points="116,90 119,90 124,85 119,80 116,80 116,90 " style="fill:white; stroke-width:1; stroke:black; " description="&lt;b&gt;BK659_RS23640&lt;/b&gt;&lt;br&gt;Flp family type IVb pilin&lt;br&gt;Location: 40087 - 39884" locus_tag="BK659_RS23640" class="clusterblast-orf" id="dummy-1_h1_5_2"  />
</g>
<g id="a1_003"  >
<polygon points="126,90 137,90 142,85 137,80 126,80 126,90 " style="fill:white; stroke-width:1; stroke:black; " description="&lt;b&gt;BK659_RS23635&lt;/b&gt;&lt;br&gt;response regulator&lt;br&gt;Location: 39832 - 39419" locus_tag="BK659_RS23635" class="clusterblast-orf" id="dummy-1_h1_5_3"  />
</g>
<g id="a1_004"  >
<polygon points="143,90 146,90 151,85 146,80 143,80 143,90 " style="fill:white; stroke-width:1; stroke:black; " description="&lt;b&gt;BK659_RS23630&lt;/b&gt;&lt;br&gt;Flp family type IVb pilin&lt;br&gt;Location: 39380 - 39177" locus_tag="BK659_RS23630" class="clusterblast-orf" id="dummy-1_h1_5_4"  />
</g>
<g id="a1_005"  >
<polygon points="158,90 234,90 239,85 234,80 158,80 158,90 " style="fill:white; stroke-width:1; stroke:black; " description="&lt;b&gt;BK659_RS23625&lt;/b&gt;&lt;br&gt;autotransporter outer membrane beta-barrel domain-containing protein&lt;br&gt;Location: 38999 - 36924" locus_tag="BK659_RS23625" class="clusterblast-orf" id="dummy-1_h1_5_5"  />
</g>
<g id="a1_006"  >
<polygon points="242,85 247,80 272,80 272,90 247,90 242,85 " style="fill:#d86315; stroke-width:1; stroke:black; " description="&lt;b&gt;BK659_RS23620&lt;/b&gt;&lt;br&gt;SDR family oxidoreductase&lt;br&gt;Location: 36839 - 36069&lt;br&gt;&lt;br&gt;&lt;b&gt;BlastP hit with ctg1_143&lt;/b&gt;&lt;br&gt;Percentage identity: 97&lt;br&gt;Percentage coverage: 100&lt;br&gt;BLAST bit score: 503&lt;br&gt;E-value: 2.23e-181" locus_tag="BK659_RS23620" class="clusterblast-orf" id="dummy-1_h1_5_6"  />
</g>
<g id="a1_007"  >
<polygon points="273,85 278,80 318,80 318,90 278,90 273,85 " style="fill:#15d815; stroke-width:1; stroke:black; " description="&lt;b&gt;BK659_RS23615&lt;/b&gt;&lt;br&gt;NADH:flavin oxidoreductase&lt;br&gt;Location: 36057 - 34909&lt;br&gt;&lt;br&gt;&lt;b&gt;BlastP hit with ctg1_144&lt;/b&gt;&lt;br&gt;Percentage identity: 94&lt;br&gt;Percentage coverage: 100&lt;br&gt;BLAST bit score: 737&lt;br&gt;E-value: 5.84e-270" locus_tag="BK659_RS23615" class="clusterblast-orf" id="dummy-1_h1_5_7"  />
</g>
<g id="a1_008"  >
<polygon points="317,85 322,80 366,80 366,90 322,90 317,85 " style="fill:#1563d8; stroke-width:1; stroke:black; " description="&lt;b&gt;BK659_RS23610&lt;/b&gt;&lt;br&gt;A-factor biosynthesis protein&lt;br&gt;Location: 34912 - 33665&lt;br&gt;&lt;br&gt;&lt;b&gt;BlastP hit with ctg1_145&lt;/b&gt;&lt;br&gt;Percentage identity: 89&lt;br&gt;Percentage coverage: 100&lt;br&gt;BLAST bit score: 746&lt;br&gt;E-value: 1.67e-272" locus_tag="BK659_RS23610" class="clusterblast-orf" id="dummy-1_h1_5_8"  />
</g>
<g id="a1_009"  >
<polygon points="373,85 378,80 395,80 395,90 378,90 373,85 " style="fill:#d815b1; stroke-width:1; stroke:black; " description="&lt;b&gt;BK659_RS23605&lt;/b&gt;&lt;br&gt;GNAT family N-acetyltransferase&lt;br&gt;Location: 33480 - 32929&lt;br&gt;&lt;br&gt;&lt;b&gt;BlastP hit with ctg1_146&lt;/b&gt;&lt;br&gt;Percentage identity: 89&lt;br&gt;Percentage coverage: 100&lt;br&gt;BLAST bit score: 340&lt;br&gt;E-value: 1.89e-119" locus_tag="BK659_RS23605" class="clusterblast-orf" id="dummy-1_h1_5_9"  />
</g>
<g id="a1_0010"  >
<polygon points="401,90 424,90 429,85 424,80 401,80 401,90 " style="fill:#d8b115; stroke-width:1; stroke:black; " description="&lt;b&gt;BK659_RS23600&lt;/b&gt;&lt;br&gt;autoinducer binding domain-containing protein&lt;br&gt;Location: 32774 - 32055&lt;br&gt;&lt;br&gt;&lt;b&gt;BlastP hit with ctg1_147&lt;/b&gt;&lt;br&gt;Percentage identity: 91&lt;br&gt;Percentage coverage: 100&lt;br&gt;BLAST bit score: 449&lt;br&gt;E-value: 6.58e-161" locus_tag="BK659_RS23600" class="clusterblast-orf" id="dummy-1_h1_5_10"  />
</g>
<g id="a1_0011"  >
<polygon points="443,90 455,90 460,85 455,80 443,80 443,90 " style="fill:white; stroke-width:1; stroke:black; " description="&lt;b&gt;BK659_RS23595&lt;/b&gt;&lt;br&gt;DMT family transporter&lt;br&gt;Location: 31700 - 31251" locus_tag="BK659_RS23595" class="clusterblast-orf" id="dummy-1_h1_5_11"  />
</g>
<g id="a1_0012"  >
<polygon points="460,85 465,80 494,80 494,90 465,90 460,85 " style="fill:white; stroke-width:1; stroke:black; " description="&lt;b&gt;BK659_RS23590&lt;/b&gt;&lt;br&gt;acyl dehydratase&lt;br&gt;Location: 31245 - 30391" locus_tag="BK659_RS23590" class="clusterblast-orf" id="dummy-1_h1_5_12"  />
</g>
<g id="a1_0013"  >
<polygon points="494,85 499,80 546,80 546,90 499,90 494,85 " style="fill:white; stroke-width:1; stroke:black; " description="&lt;b&gt;BK659_RS23585&lt;/b&gt;&lt;br&gt;3-oxoacyl-ACP reductase&lt;br&gt;Location: 30388 - 29036" locus_tag="BK659_RS23585" class="clusterblast-orf" id="dummy-1_h1_5_13"  />
</g>
<g id="a1_0014"  >
<polygon points="558,90 603,90 608,85 603,80 558,80 558,90 " style="fill:white; stroke-width:1; stroke:black; " description="&lt;b&gt;BK659_RS23580&lt;/b&gt;&lt;br&gt;acetyl-CoA C-acetyltransferase&lt;br&gt;Location: 28742 - 27465" locus_tag="BK659_RS23580" class="clusterblast-orf" id="dummy-1_h1_5_14"  />
</g>
<g id="a1_0015"  >
<polygon points="607,85 612,80 647,80 647,90 612,90 607,85 " style="fill:white; stroke-width:1; stroke:black; " description="&lt;b&gt;BK659_RS23575&lt;/b&gt;&lt;br&gt;bile acid:sodium symporter&lt;br&gt;Location: 27478 - 26450" locus_tag="BK659_RS23575" class="clusterblast-orf" id="dummy-1_h1_5_15"  />
</g>
<g id="a1_0016"  >
<polygon points="650,90 676,90 681,85 676,80 650,80 650,90 " style="fill:white; stroke-width:1; stroke:black; " description="&lt;b&gt;BK659_RS23570&lt;/b&gt;&lt;br&gt;helix-turn-helix transcriptional regulator&lt;br&gt;Location: 26366 - 25578" locus_tag="BK659_RS23570" class="clusterblast-orf" id="dummy-1_h1_5_16"  />
</g>
<g id="a1_0017"  >
<polygon points="686,85 691,80 762,80 762,90 691,90 686,85 " style="fill:white; stroke-width:1; stroke:black; " description="&lt;b&gt;BK659_RS23565&lt;/b&gt;&lt;br&gt;methyl-accepting chemotaxis protein&lt;br&gt;Location: 25457 - 23511" locus_tag="BK659_RS23565" class="clusterblast-orf" id="dummy-1_h1_5_17"  />
</g>
</svg>
