<svg xmlns="http://www.w3.org/2000/svg" xmlns:xlink="http://www.w3.org/1999/xlink" version="1.1" x="0" y="0" height="230" width="800" viewBox="0 0 800 230" preserveAspectRatio="none"  >
<g label="Query sequence" class="clusterblast-cluster"  >
<text x="5" y="20" class="clusterblast-acc"  >
Query sequence</text>
<line x1="10" y1="35" x2="778.0" y2="35" style="stroke-width:1; stroke:grey; "  />
<polygon points="306,40 306,40 311,35 306,30 306,30 306,40 " style="fill:white; stroke-width:1; stroke:black; " description="&lt;b&gt;ctg29_17&lt;/b&gt;&lt;br&gt;ctg29 17&lt;br&gt;Location: 17080 - 17416" locus_tag="ctg29_17" class="clusterblast-orf" id="dummy-1_q0_0_all"  />
<polygon points="316,40 319,35 316,30 316,40 " style="fill:white; stroke-width:1; stroke:black; " description="&lt;b&gt;ctg29_18&lt;/b&gt;&lt;br&gt;ctg29 18&lt;br&gt;Location: 17707 - 17923" locus_tag="ctg29_18" class="clusterblast-orf" id="dummy-1_q1_0_all"  />
<polygon points="323,40 344,40 349,35 344,30 323,30 323,40 " style="fill:#d81515; stroke-width:1; stroke:black; " description="&lt;b&gt;ctg29_19&lt;/b&gt;&lt;br&gt;ctg29 19&lt;br&gt;Location: 18161 - 19877" locus_tag="ctg29_19" class="clusterblast-orf" id="dummy-1_q2_0_all"  />
<polygon points="350,35 355,30 364,30 364,40 355,40 350,35 " style="fill:white; stroke-width:1; stroke:black; " description="&lt;b&gt;ctg29_20&lt;/b&gt;&lt;br&gt;ctg29 20&lt;br&gt;Location: 19972 - 20893" locus_tag="ctg29_20" class="clusterblast-orf" id="dummy-1_q3_0_all"  />
<polygon points="369,40 398,40 403,35 398,30 369,30 369,40 " style="fill:#15d8d8; stroke-width:1; stroke:black; " description="&lt;b&gt;ctg29_21&lt;/b&gt;&lt;br&gt;ctg29 21&lt;br&gt;Location: 21215 - 23423" locus_tag="ctg29_21" class="clusterblast-orf" id="dummy-1_q4_0_all"  />
<polygon points="404,35 409,30 412,30 412,40 409,40 404,35 " style="fill:white; stroke-width:1; stroke:black; " description="&lt;b&gt;ctg29_22&lt;/b&gt;&lt;br&gt;ctg29 22&lt;br&gt;Location: 23470 - 24031" locus_tag="ctg29_22" class="clusterblast-orf" id="dummy-1_q5_0_all"  />
<polygon points="416,35 421,30 435,30 435,40 421,40 416,35 " style="fill:white; stroke-width:1; stroke:black; " description="&lt;b&gt;ctg29_23&lt;/b&gt;&lt;br&gt;ctg29 23&lt;br&gt;Location: 24233 - 25475" locus_tag="ctg29_23" class="clusterblast-orf" id="dummy-1_q6_0_all"  />
<polygon points="435,35 440,30 440,30 440,40 440,40 435,35 " style="fill:white; stroke-width:1; stroke:black; " description="&lt;b&gt;ctg29_24&lt;/b&gt;&lt;br&gt;ctg29 24&lt;br&gt;Location: 25471 - 25801" locus_tag="ctg29_24" class="clusterblast-orf" id="dummy-1_q7_0_all"  />
<polygon points="440,35 445,30 448,30 448,40 445,40 440,35 " style="fill:white; stroke-width:1; stroke:black; " description="&lt;b&gt;ctg29_25&lt;/b&gt;&lt;br&gt;ctg29 25&lt;br&gt;Location: 25803 - 26367" locus_tag="ctg29_25" class="clusterblast-orf" id="dummy-1_q8_0_all"  />
<polygon points="449,35 454,30 456,30 456,40 454,40 449,35 " style="fill:white; stroke-width:1; stroke:black; " description="&lt;b&gt;ctg29_26&lt;/b&gt;&lt;br&gt;ctg29 26&lt;br&gt;Location: 26396 - 26849" locus_tag="ctg29_26" class="clusterblast-orf" id="dummy-1_q9_0_all"  />
<polygon points="460,40 468,40 473,35 468,30 460,30 460,40 " style="fill:white; stroke-width:1; stroke:black; " description="&lt;b&gt;ctg29_27&lt;/b&gt;&lt;br&gt;ctg29 27&lt;br&gt;Location: 27145 - 28003" locus_tag="ctg29_27" class="clusterblast-orf" id="dummy-1_q10_0_all"  />
</g>
<g label="NZ_AP014522" description="NZ_AP014522 (3089356-3142106): Pseudomonas protegens Cab57 (5% of genes show similarity), T1PKS" class="clusterblast-cluster"  >
<text x="5" y="70" class="clusterblast-acc"  >
<a xlink:href="https://antismash-db.secondarymetabolites.org/area.html?record=NZ_AP014522&amp;start=3089356&amp;end=3142106" target="_blank">NZ_AP014522 (3089356-3142106)</a>: Pseudomonas protegens Cab57 (5% of genes show similarity), T1PKS</text>
<line x1="10" y1="85" x2="778.0" y2="85" style="stroke-width:1; stroke:grey; "  />
</g>
<g id="a1_000"  >
<polygon points="0,90 6,90 11,85 6,80 0,80 0,90 " style="fill:white; stroke-width:1; stroke:black; " description="&lt;b&gt;PPC_RS14270&lt;/b&gt;&lt;br&gt;hypothetical protein&lt;br&gt;Location: 3141944 - 3141189" locus_tag="PPC_RS14270" class="clusterblast-orf" id="dummy-1_h1_9_0"  />
</g>
<g id="a1_001"  >
<polygon points="15,85 20,80 24,80 24,90 20,90 15,85 " style="fill:white; stroke-width:1; stroke:black; " description="&lt;b&gt;PPC_RS14265&lt;/b&gt;&lt;br&gt;helix-turn-helix transcriptional regulator&lt;br&gt;Location: 3140926 - 3140339" locus_tag="PPC_RS14265" class="clusterblast-orf" id="dummy-1_h1_9_1"  />
</g>
<g id="a1_002"  >
<polygon points="26,90 38,90 43,85 38,80 26,80 26,90 " style="fill:white; stroke-width:1; stroke:black; " description="&lt;b&gt;PPC_RS14260&lt;/b&gt;&lt;br&gt;alkene reductase&lt;br&gt;Location: 3140189 - 3139089" locus_tag="PPC_RS14260" class="clusterblast-orf" id="dummy-1_h1_9_2"  />
</g>
<g id="a1_003"  >
<polygon points="44,90 51,90 56,85 51,80 44,80 44,90 " style="fill:white; stroke-width:1; stroke:black; " description="&lt;b&gt;PPC_RS14255&lt;/b&gt;&lt;br&gt;SDR family oxidoreductase&lt;br&gt;Location: 3139034 - 3138246" locus_tag="PPC_RS14255" class="clusterblast-orf" id="dummy-1_h1_9_3"  />
</g>
<g id="a1_004"  >
<polygon points="57,90 66,90 71,85 66,80 57,80 57,90 " style="fill:white; stroke-width:1; stroke:black; " description="&lt;b&gt;PPC_RS14250&lt;/b&gt;&lt;br&gt;alpha/beta hydrolase&lt;br&gt;Location: 3138170 - 3137301" locus_tag="PPC_RS14250" class="clusterblast-orf" id="dummy-1_h1_9_4"  />
</g>
<g id="a1_005"  >
<polygon points="72,90 82,90 87,85 82,80 72,80 72,90 " style="fill:white; stroke-width:1; stroke:black; " description="&lt;b&gt;PPC_RS14245&lt;/b&gt;&lt;br&gt;NADP-dependent oxidoreductase&lt;br&gt;Location: 3137232 - 3136234" locus_tag="PPC_RS14245" class="clusterblast-orf" id="dummy-1_h1_9_5"  />
</g>
<g id="a1_006"  >
<polygon points="90,85 95,80 96,80 96,90 95,90 90,85 " style="fill:white; stroke-width:1; stroke:black; " description="&lt;b&gt;PPC_RS14240&lt;/b&gt;&lt;br&gt;hypothetical protein&lt;br&gt;Location: 3136031 - 3135633" locus_tag="PPC_RS14240" class="clusterblast-orf" id="dummy-1_h1_9_6"  />
</g>
<g id="a1_007"  >
<polygon points="103,85 108,80 112,80 112,90 108,90 103,85 " style="fill:white; stroke-width:1; stroke:black; " description="&lt;b&gt;PPC_RS14230&lt;/b&gt;&lt;br&gt;LysE family transporter&lt;br&gt;Location: 3135200 - 3134601" locus_tag="PPC_RS14230" class="clusterblast-orf" id="dummy-1_h1_9_7"  />
</g>
<g id="a1_008"  >
<polygon points="113,85 118,80 136,80 136,90 118,90 113,85 " style="fill:white; stroke-width:1; stroke:black; " description="&lt;b&gt;PPC_RS14225&lt;/b&gt;&lt;br&gt;efflux transporter outer membrane subunit&lt;br&gt;Location: 3134529 - 3133033" locus_tag="PPC_RS14225" class="clusterblast-orf" id="dummy-1_h1_9_8"  />
</g>
<g id="a1_009"  >
<polygon points="136,85 141,80 153,80 153,90 141,90 136,85 " style="fill:white; stroke-width:1; stroke:black; " description="&lt;b&gt;PPC_RS14220&lt;/b&gt;&lt;br&gt;ABC transporter permease&lt;br&gt;Location: 3133021 - 3131903" locus_tag="PPC_RS14220" class="clusterblast-orf" id="dummy-1_h1_9_9"  />
</g>
<g id="a1_0010"  >
<polygon points="153,85 158,80 171,80 171,90 158,90 153,85 " style="fill:white; stroke-width:1; stroke:black; " description="&lt;b&gt;PPC_RS14215&lt;/b&gt;&lt;br&gt;ABC transporter permease&lt;br&gt;Location: 3131898 - 3130750" locus_tag="PPC_RS14215" class="clusterblast-orf" id="dummy-1_h1_9_10"  />
</g>
<g id="a1_0011"  >
<polygon points="171,85 176,80 198,80 198,90 176,90 171,85 " style="fill:white; stroke-width:1; stroke:black; " description="&lt;b&gt;PPC_RS14210&lt;/b&gt;&lt;br&gt;ABC transporter ATP-binding protein&lt;br&gt;Location: 3130746 - 3128977" locus_tag="PPC_RS14210" class="clusterblast-orf" id="dummy-1_h1_9_11"  />
</g>
<g id="a1_0012"  >
<polygon points="198,85 203,80 213,80 213,90 203,90 198,85 " style="fill:white; stroke-width:1; stroke:black; " description="&lt;b&gt;PPC_RS14205&lt;/b&gt;&lt;br&gt;HlyD family efflux transporter periplasmic adaptor subunit&lt;br&gt;Location: 3128980 - 3127967" locus_tag="PPC_RS14205" class="clusterblast-orf" id="dummy-1_h1_9_12"  />
</g>
<g id="a1_0013"  >
<polygon points="215,90 220,90 225,85 220,80 215,80 215,90 " style="fill:white; stroke-width:1; stroke:black; " description="&lt;b&gt;PPC_RS14200&lt;/b&gt;&lt;br&gt;CerR family C-terminal domain-containing protein&lt;br&gt;Location: 3127855 - 3127220" locus_tag="PPC_RS14200" class="clusterblast-orf" id="dummy-1_h1_9_13"  />
</g>
<g id="a1_0014"  >
<polygon points="225,85 230,80 237,80 237,90 230,90 225,85 " style="fill:white; stroke-width:1; stroke:black; " description="&lt;b&gt;PPC_RS14195&lt;/b&gt;&lt;br&gt;thioesterase&lt;br&gt;Location: 3127214 - 3126432" locus_tag="PPC_RS14195" class="clusterblast-orf" id="dummy-1_h1_9_14"  />
</g>
<g id="a1_0015"  >
<polygon points="237,85 242,80 260,80 260,90 242,90 237,85 " style="fill:white; stroke-width:1; stroke:black; " description="&lt;b&gt;PPC_RS14190&lt;/b&gt;&lt;br&gt;amino acid adenylation domain-containing protein&lt;br&gt;Location: 3126428 - 3124932" locus_tag="PPC_RS14190" class="clusterblast-orf" id="dummy-1_h1_9_15"  />
</g>
<g id="a1_0016"  >
<polygon points="260,85 265,80 277,80 277,90 265,90 260,85 " style="fill:white; stroke-width:1; stroke:black; " description="&lt;b&gt;PPC_RS14185&lt;/b&gt;&lt;br&gt;acyl-CoA/acyl-ACP dehydrogenase&lt;br&gt;Location: 3124935 - 3123793" locus_tag="PPC_RS14185" class="clusterblast-orf" id="dummy-1_h1_9_16"  />
</g>
<g id="a1_0017"  >
<polygon points="277,85 282,80 302,80 302,90 282,90 277,85 " style="fill:white; stroke-width:1; stroke:black; " description="&lt;b&gt;PPC_RS14180&lt;/b&gt;&lt;br&gt;hypothetical protein&lt;br&gt;Location: 3123791 - 3122157" locus_tag="PPC_RS14180" class="clusterblast-orf" id="dummy-1_h1_9_17"  />
</g>
<g id="a1_0018"  >
<polygon points="303,85 308,80 385,80 385,90 308,90 303,85 " style="fill:white; stroke-width:1; stroke:black; " description="&lt;b&gt;PPC_RS14175&lt;/b&gt;&lt;br&gt;type I polyketide synthase&lt;br&gt;Location: 3122106 - 3116782" locus_tag="PPC_RS14175" class="clusterblast-orf" id="dummy-1_h1_9_18"  />
</g>
<g id="a1_0019"  >
<polygon points="385,85 390,80 498,80 498,90 390,90 385,85 " style="fill:white; stroke-width:1; stroke:black; " description="&lt;b&gt;PPC_RS14170&lt;/b&gt;&lt;br&gt;acyltransferase domain-containing protein&lt;br&gt;Location: 3116733 - 3109357" locus_tag="PPC_RS14170" class="clusterblast-orf" id="dummy-1_h1_9_19"  />
</g>
<g id="a1_0020"  >
<polygon points="499,85 504,80 520,80 520,90 504,90 499,85 " style="fill:white; stroke-width:1; stroke:black; " description="&lt;b&gt;PPC_RS14165&lt;/b&gt;&lt;br&gt;tryptophan 7-halogenase&lt;br&gt;Location: 3109324 - 3107975" locus_tag="PPC_RS14165" class="clusterblast-orf" id="dummy-1_h1_9_20"  />
</g>
<g id="a1_0021"  >
<polygon points="520,85 524,80 524,90 520,85 " style="fill:white; stroke-width:1; stroke:black; " description="&lt;b&gt;PPC_RS14160&lt;/b&gt;&lt;br&gt;peptidyl carrier protein PltL&lt;br&gt;Location: 3107961 - 3107695" locus_tag="PPC_RS14160" class="clusterblast-orf" id="dummy-1_h1_9_21"  />
</g>
<g id="a1_0022"  >
<polygon points="531,90 542,90 547,85 542,80 531,80 531,90 " style="fill:white; stroke-width:1; stroke:black; " description="&lt;b&gt;PPC_RS14155&lt;/b&gt;&lt;br&gt;LysR family transcriptional regulator&lt;br&gt;Location: 3107209 - 3106178" locus_tag="PPC_RS14155" class="clusterblast-orf" id="dummy-1_h1_9_22"  />
</g>
<g id="a1_0023"  >
<polygon points="547,90 565,90 570,85 565,80 547,80 547,90 " style="fill:white; stroke-width:1; stroke:black; " description="&lt;b&gt;PPC_RS14150&lt;/b&gt;&lt;br&gt;tryptophan 7-halogenase&lt;br&gt;Location: 3106181 - 3104673" locus_tag="PPC_RS14150" class="clusterblast-orf" id="dummy-1_h1_9_23"  />
</g>
<g id="a1_0024"  >
<polygon points="572,90 601,90 606,85 601,80 572,80 572,90 " style="fill:#15d8d8; stroke-width:1; stroke:black; " description="&lt;b&gt;PPC_RS14145&lt;/b&gt;&lt;br&gt;OsmC domain/YcaO domain-containing protein&lt;br&gt;Location: 3104522 - 3102303&lt;br&gt;&lt;br&gt;&lt;b&gt;BlastP hit with ctg29_21&lt;/b&gt;&lt;br&gt;Percentage identity: 88&lt;br&gt;Percentage coverage: 100&lt;br&gt;BLAST bit score: 1307&lt;br&gt;E-value: 0.0" locus_tag="PPC_RS14145" class="clusterblast-orf" id="dummy-1_h1_9_24"  />
</g>
<g id="a1_0025"  >
<polygon points="608,85 613,80 615,80 615,90 613,90 608,85 " style="fill:white; stroke-width:1; stroke:black; " description="&lt;b&gt;PPC_RS14140&lt;/b&gt;&lt;br&gt;hypothetical protein&lt;br&gt;Location: 3102193 - 3101756" locus_tag="PPC_RS14140" class="clusterblast-orf" id="dummy-1_h1_9_25"  />
</g>
<g id="a1_0026"  >
<polygon points="616,85 621,80 621,80 621,90 621,90 616,85 " style="fill:white; stroke-width:1; stroke:black; " description="&lt;b&gt;PPC_RS14135&lt;/b&gt;&lt;br&gt;hypothetical protein&lt;br&gt;Location: 3101681 - 3101322" locus_tag="PPC_RS14135" class="clusterblast-orf" id="dummy-1_h1_9_26"  />
</g>
<g id="a1_0027"  >
<polygon points="622,90 632,90 637,85 632,80 622,80 622,90 " style="fill:white; stroke-width:1; stroke:black; " description="&lt;b&gt;PPC_RS14130&lt;/b&gt;&lt;br&gt;suppressor of fused domain protein&lt;br&gt;Location: 3101251 - 3100286" locus_tag="PPC_RS14130" class="clusterblast-orf" id="dummy-1_h1_9_27"  />
</g>
<g id="a1_0028"  >
<polygon points="638,90 639,90 644,85 639,80 638,80 638,90 " style="fill:white; stroke-width:1; stroke:black; " description="&lt;b&gt;PPC_RS14125&lt;/b&gt;&lt;br&gt;hypothetical protein&lt;br&gt;Location: 3100265 - 3099825" locus_tag="PPC_RS14125" class="clusterblast-orf" id="dummy-1_h1_9_28"  />
</g>
<g id="a1_0029"  >
<polygon points="645,90 650,90 655,85 650,80 645,80 645,90 " style="fill:white; stroke-width:1; stroke:black; " description="&lt;b&gt;PPC_RS14120&lt;/b&gt;&lt;br&gt;GIY-YIG nuclease family protein&lt;br&gt;Location: 3099770 - 3099150" locus_tag="PPC_RS14120" class="clusterblast-orf" id="dummy-1_h1_9_29"  />
</g>
<g id="a1_0030"  >
<polygon points="658,90 679,90 684,85 679,80 658,80 658,90 " style="fill:#d81515; stroke-width:1; stroke:black; " description="&lt;b&gt;PPC_RS14115&lt;/b&gt;&lt;br&gt;amidase&lt;br&gt;Location: 3098934 - 3097222&lt;br&gt;&lt;br&gt;&lt;b&gt;BlastP hit with ctg29_19&lt;/b&gt;&lt;br&gt;Percentage identity: 87&lt;br&gt;Percentage coverage: 100&lt;br&gt;BLAST bit score: 989&lt;br&gt;E-value: 0.0" locus_tag="PPC_RS14115" class="clusterblast-orf" id="dummy-1_h1_9_30"  />
</g>
<g id="a1_0031"  >
<polygon points="687,90 689,85 687,80 687,90 " style="fill:white; stroke-width:1; stroke:black; " description="&lt;b&gt;PPC_RS31690&lt;/b&gt;&lt;br&gt;DUF2559 family protein&lt;br&gt;Location: 3097055 - 3096885" locus_tag="PPC_RS31690" class="clusterblast-orf" id="dummy-1_h1_9_31"  />
</g>
<g id="a1_0032"  >
<polygon points="689,90 693,90 698,85 693,80 689,80 689,90 " style="fill:white; stroke-width:1; stroke:black; " description="&lt;b&gt;PPC_RS14110&lt;/b&gt;&lt;br&gt;putative adenosine monophosphate-protein transferase Fic&lt;br&gt;Location: 3096885 - 3096286" locus_tag="PPC_RS14110" class="clusterblast-orf" id="dummy-1_h1_9_32"  />
</g>
<g id="a1_0033"  >
<polygon points="700,85 705,80 708,80 708,90 705,90 700,85 " style="fill:white; stroke-width:1; stroke:black; " description="&lt;b&gt;PPC_RS14105&lt;/b&gt;&lt;br&gt;hypothetical protein&lt;br&gt;Location: 3096212 - 3095682" locus_tag="PPC_RS14105" class="clusterblast-orf" id="dummy-1_h1_9_33"  />
</g>
<g id="a1_0034"  >
<polygon points="710,90 719,90 724,85 719,80 710,80 710,90 " style="fill:white; stroke-width:1; stroke:black; " description="&lt;b&gt;PPC_RS14100&lt;/b&gt;&lt;br&gt;serine hydrolase&lt;br&gt;Location: 3095536 - 3094646" locus_tag="PPC_RS14100" class="clusterblast-orf" id="dummy-1_h1_9_34"  />
</g>
<g id="a1_0035"  >
<polygon points="726,90 728,90 733,85 728,80 726,80 726,90 " style="fill:white; stroke-width:1; stroke:black; " description="&lt;b&gt;PPC_RS14095&lt;/b&gt;&lt;br&gt;hypothetical protein&lt;br&gt;Location: 3094511 - 3094014" locus_tag="PPC_RS14095" class="clusterblast-orf" id="dummy-1_h1_9_35"  />
</g>
<g id="a1_0036"  >
<polygon points="734,85 739,80 766,80 766,90 739,90 734,85 " style="fill:white; stroke-width:1; stroke:black; " description="&lt;b&gt;PPC_RS14090&lt;/b&gt;&lt;br&gt;TonB-dependent receptor&lt;br&gt;Location: 3093981 - 3091855" locus_tag="PPC_RS14090" class="clusterblast-orf" id="dummy-1_h1_9_36"  />
</g>
<g id="a1_0037"  >
<polygon points="769,85 772,80 772,90 769,85 " style="fill:white; stroke-width:1; stroke:black; " description="&lt;b&gt;PPC_RS14085&lt;/b&gt;&lt;br&gt;DUF4287 domain-containing protein&lt;br&gt;Location: 3091707 - 3091495" locus_tag="PPC_RS14085" class="clusterblast-orf" id="dummy-1_h1_9_37"  />
</g>
<g id="a1_0038"  >
<polygon points="772,85 777,80 780,80 780,90 777,90 772,85 " style="fill:white; stroke-width:1; stroke:black; " description="&lt;b&gt;PPC_RS14080&lt;/b&gt;&lt;br&gt;hypothetical protein&lt;br&gt;Location: 3091498 - 3090995" locus_tag="PPC_RS14080" class="clusterblast-orf" id="dummy-1_h1_9_38"  />
</g>
</svg>
