<svg xmlns="http://www.w3.org/2000/svg" xmlns:xlink="http://www.w3.org/1999/xlink" version="1.1" x="0" y="0" height="230" width="800" viewBox="0 0 800 230" preserveAspectRatio="none"  >
<g label="Query sequence" class="clusterblast-cluster"  >
<text x="5" y="20" class="clusterblast-acc"  >
Query sequence</text>
<line x1="10" y1="35" x2="778.0" y2="35" style="stroke-width:1; stroke:grey; "  />
<polygon points="0,40 2,35 0,30 0,40 " style="fill:white; stroke-width:1; stroke:black; " description="&lt;b&gt;ctg27_1&lt;/b&gt;&lt;br&gt;ctg27 1&lt;br&gt;Location: 656 - 863" locus_tag="ctg27_1" class="clusterblast-orf" id="dummy-1_q0_0_all"  />
<polygon points="6,40 8,35 6,30 6,40 " style="fill:white; stroke-width:1; stroke:black; " description="&lt;b&gt;ctg27_2&lt;/b&gt;&lt;br&gt;ctg27 2&lt;br&gt;Location: 1242 - 1389" locus_tag="ctg27_2" class="clusterblast-orf" id="dummy-1_q1_0_all"  />
<polygon points="8,40 13,40 18,35 13,30 8,30 8,40 " style="fill:white; stroke-width:1; stroke:black; " description="&lt;b&gt;ctg27_3&lt;/b&gt;&lt;br&gt;ctg27 3&lt;br&gt;Location: 1385 - 2267" locus_tag="ctg27_3" class="clusterblast-orf" id="dummy-1_q2_0_all"  />
<polygon points="19,40 22,35 19,30 19,40 " style="fill:white; stroke-width:1; stroke:black; " description="&lt;b&gt;ctg27_4&lt;/b&gt;&lt;br&gt;ctg27 4&lt;br&gt;Location: 2415 - 2646" locus_tag="ctg27_4" class="clusterblast-orf" id="dummy-1_q3_0_all"  />
<polygon points="25,40 29,35 25,30 25,40 " style="fill:white; stroke-width:1; stroke:black; " description="&lt;b&gt;ctg27_5&lt;/b&gt;&lt;br&gt;ctg27 5&lt;br&gt;Location: 2915 - 3236" locus_tag="ctg27_5" class="clusterblast-orf" id="dummy-1_q4_0_all"  />
<polygon points="30,35 35,30 61,30 61,40 35,40 30,35 " style="fill:#d81515; stroke-width:1; stroke:black; " description="&lt;b&gt;ctg27_6&lt;/b&gt;&lt;br&gt;ctg27 6&lt;br&gt;Location: 3385 - 6109" locus_tag="ctg27_6" class="clusterblast-orf" id="dummy-1_q5_0_all"  />
<polygon points="70,35 75,30 85,30 85,40 75,40 70,35 " style="fill:#5cd815; stroke-width:1; stroke:black; " description="&lt;b&gt;ctg27_7&lt;/b&gt;&lt;br&gt;ctg27 7&lt;br&gt;Location: 6872 - 8210" locus_tag="ctg27_7" class="clusterblast-orf" id="dummy-1_q6_0_all"  />
<polygon points="86,35 91,30 92,30 92,40 91,40 86,35 " style="fill:#15a3d8; stroke-width:1; stroke:black; " description="&lt;b&gt;ctg27_8&lt;/b&gt;&lt;br&gt;ctg27 8&lt;br&gt;Location: 8337 - 8817" locus_tag="ctg27_8" class="clusterblast-orf" id="dummy-1_q7_0_all"  />
<polygon points="96,40 104,40 109,35 104,30 96,30 96,40 " style="fill:#9115d8; stroke-width:1; stroke:black; " description="&lt;b&gt;ctg27_9&lt;/b&gt;&lt;br&gt;ctg27 9&lt;br&gt;Location: 9141 - 10305" locus_tag="ctg27_9" class="clusterblast-orf" id="dummy-1_q8_0_all"  />
<polygon points="109,40 126,40 131,35 126,30 109,30 109,40 " style="fill:#d84a15; stroke-width:1; stroke:black; " description="&lt;b&gt;ctg27_10&lt;/b&gt;&lt;br&gt;ctg27 10&lt;br&gt;Location: 10305 - 12279" locus_tag="ctg27_10" class="clusterblast-orf" id="dummy-1_q9_0_all"  />
<polygon points="131,40 142,40 147,35 142,30 131,30 131,40 " style="fill:#27d815; stroke-width:1; stroke:black; " description="&lt;b&gt;ctg27_11&lt;/b&gt;&lt;br&gt;ctg27 11&lt;br&gt;Location: 12286 - 13681" locus_tag="ctg27_11" class="clusterblast-orf" id="dummy-1_q10_0_all"  />
<polygon points="148,35 153,30 166,30 166,40 153,40 148,35 " style="fill:#156ed8; stroke-width:1; stroke:black; " description="&lt;b&gt;ctg27_12&lt;/b&gt;&lt;br&gt;ctg27 12&lt;br&gt;Location: 13754 - 15380" locus_tag="ctg27_12" class="clusterblast-orf" id="dummy-1_q11_0_all"  />
<polygon points="169,40 179,40 184,35 179,30 169,30 169,40 " style="fill:#c715d8; stroke-width:1; stroke:black; " description="&lt;b&gt;ctg27_13&lt;/b&gt;&lt;br&gt;ctg27 13&lt;br&gt;Location: 15608 - 16946" locus_tag="ctg27_13" class="clusterblast-orf" id="dummy-1_q12_0_all"  />
<polygon points="185,40 190,40 195,35 190,30 185,30 185,40 " style="fill:#d88015; stroke-width:1; stroke:black; " description="&lt;b&gt;ctg27_14&lt;/b&gt;&lt;br&gt;ctg27 14&lt;br&gt;Location: 17037 - 17925" locus_tag="ctg27_14" class="clusterblast-orf" id="dummy-1_q13_0_all"  />
<polygon points="196,40 210,40 215,35 210,30 196,30 196,40 " style="fill:#15d839; stroke-width:1; stroke:black; " description="&lt;b&gt;ctg27_15&lt;/b&gt;&lt;br&gt;ctg27 15&lt;br&gt;Location: 18029 - 19679" locus_tag="ctg27_15" class="clusterblast-orf" id="dummy-1_q14_0_all"  />
<polygon points="216,40 239,40 244,35 239,30 216,30 216,40 " style="fill:white; stroke-width:1; stroke:black; " description="&lt;b&gt;ctg27_16&lt;/b&gt;&lt;br&gt;ctg27 16&lt;br&gt;Location: 19841 - 22274" locus_tag="ctg27_16" class="clusterblast-orf" id="dummy-1_q15_0_all"  />
<polygon points="247,35 252,30 258,30 258,40 252,40 247,35 " style="fill:#1539d8; stroke-width:1; stroke:black; " description="&lt;b&gt;ctg27_17&lt;/b&gt;&lt;br&gt;ctg27 17&lt;br&gt;Location: 22552 - 23509" locus_tag="ctg27_17" class="clusterblast-orf" id="dummy-1_q16_0_all"  />
<polygon points="260,35 265,30 413,30 413,40 265,40 260,35 " style="fill:#d815b5; stroke-width:1; stroke:black; " description="&lt;b&gt;ctg27_18&lt;/b&gt;&lt;br&gt;ctg27 18&lt;br&gt;Location: 23659 - 37225" locus_tag="ctg27_18" class="clusterblast-orf" id="dummy-1_q17_0_all"  />
<polygon points="413,35 418,30 502,30 502,40 418,40 413,35 " style="fill:#d815b5; stroke-width:1; stroke:black; " description="&lt;b&gt;ctg27_19&lt;/b&gt;&lt;br&gt;ctg27 19&lt;br&gt;Location: 37238 - 45065" locus_tag="ctg27_19" class="clusterblast-orf" id="dummy-1_q18_0_all"  />
<polygon points="501,35 506,30 540,30 540,40 506,40 501,35 " style="fill:#d815b5; stroke-width:1; stroke:black; " description="&lt;b&gt;ctg27_20&lt;/b&gt;&lt;br&gt;ctg27 20&lt;br&gt;Location: 45061 - 48463" locus_tag="ctg27_20" class="clusterblast-orf" id="dummy-1_q19_0_all"  />
<polygon points="543,35 548,30 554,30 554,40 548,40 543,35 " style="fill:#d8b515; stroke-width:1; stroke:black; " description="&lt;b&gt;ctg27_21&lt;/b&gt;&lt;br&gt;ctg27 21&lt;br&gt;Location: 48698 - 49682" locus_tag="ctg27_21" class="clusterblast-orf" id="dummy-1_q20_0_all"  />
<polygon points="554,35 559,30 563,30 563,40 559,40 554,35 " style="fill:#15d86e; stroke-width:1; stroke:black; " description="&lt;b&gt;ctg27_22&lt;/b&gt;&lt;br&gt;ctg27 22&lt;br&gt;Location: 49721 - 50462" locus_tag="ctg27_22" class="clusterblast-orf" id="dummy-1_q21_0_all"  />
<polygon points="564,35 569,30 577,30 577,40 569,40 564,35 " style="fill:#2715d8; stroke-width:1; stroke:black; " description="&lt;b&gt;ctg27_23&lt;/b&gt;&lt;br&gt;ctg27 23&lt;br&gt;Location: 50555 - 51728" locus_tag="ctg27_23" class="clusterblast-orf" id="dummy-1_q22_0_all"  />
<polygon points="580,40 584,40 589,35 584,30 580,30 580,40 " style="fill:#d81580; stroke-width:1; stroke:black; " description="&lt;b&gt;ctg27_24&lt;/b&gt;&lt;br&gt;ctg27 24&lt;br&gt;Location: 51984 - 52785" locus_tag="ctg27_24" class="clusterblast-orf" id="dummy-1_q23_0_all"  />
<polygon points="589,40 604,40 609,35 604,30 589,30 589,40 " style="fill:#c7d815; stroke-width:1; stroke:black; " description="&lt;b&gt;ctg27_25&lt;/b&gt;&lt;br&gt;ctg27 25&lt;br&gt;Location: 52777 - 54604" locus_tag="ctg27_25" class="clusterblast-orf" id="dummy-1_q24_0_all"  />
<polygon points="615,40 615,40 620,35 615,30 615,30 615,40 " style="fill:white; stroke-width:1; stroke:black; " description="&lt;b&gt;ctg27_26&lt;/b&gt;&lt;br&gt;ctg27 26&lt;br&gt;Location: 55113 - 55503" locus_tag="ctg27_26" class="clusterblast-orf" id="dummy-1_q25_0_all"  />
<polygon points="621,40 626,40 631,35 626,30 621,30 621,40 " style="fill:#15d8a3; stroke-width:1; stroke:black; " description="&lt;b&gt;ctg27_27&lt;/b&gt;&lt;br&gt;ctg27 27&lt;br&gt;Location: 55638 - 56535" locus_tag="ctg27_27" class="clusterblast-orf" id="dummy-1_q26_0_all"  />
<polygon points="631,35 636,30 642,30 642,40 636,40 631,35 " style="fill:#5c15d8; stroke-width:1; stroke:black; " description="&lt;b&gt;ctg27_28&lt;/b&gt;&lt;br&gt;ctg27 28&lt;br&gt;Location: 56503 - 57487" locus_tag="ctg27_28" class="clusterblast-orf" id="dummy-1_q27_0_all"  />
<polygon points="643,40 646,40 651,35 646,30 643,30 643,40 " style="fill:#d8154a; stroke-width:1; stroke:black; " description="&lt;b&gt;ctg27_29&lt;/b&gt;&lt;br&gt;ctg27 29&lt;br&gt;Location: 57578 - 58262" locus_tag="ctg27_29" class="clusterblast-orf" id="dummy-1_q28_0_all"  />
<polygon points="652,35 657,30 663,30 663,40 657,40 652,35 " style="fill:white; stroke-width:1; stroke:black; " description="&lt;b&gt;ctg27_30&lt;/b&gt;&lt;br&gt;ctg27 30&lt;br&gt;Location: 58399 - 59353" locus_tag="ctg27_30" class="clusterblast-orf" id="dummy-1_q29_0_all"  />
<polygon points="664,35 669,30 670,30 670,40 669,40 664,35 " style="fill:white; stroke-width:1; stroke:black; " description="&lt;b&gt;ctg27_31&lt;/b&gt;&lt;br&gt;ctg27 31&lt;br&gt;Location: 59418 - 59967" locus_tag="ctg27_31" class="clusterblast-orf" id="dummy-1_q30_0_all"  />
<polygon points="670,35 675,30 676,30 676,40 675,40 670,35 " style="fill:white; stroke-width:1; stroke:black; " description="&lt;b&gt;ctg27_32&lt;/b&gt;&lt;br&gt;ctg27 32&lt;br&gt;Location: 59978 - 60458" locus_tag="ctg27_32" class="clusterblast-orf" id="dummy-1_q31_0_all"  />
<polygon points="676,35 681,30 681,30 681,40 681,40 676,35 " style="fill:white; stroke-width:1; stroke:black; " description="&lt;b&gt;ctg27_33&lt;/b&gt;&lt;br&gt;ctg27 33&lt;br&gt;Location: 60471 - 60987" locus_tag="ctg27_33" class="clusterblast-orf" id="dummy-1_q32_0_all"  />
<polygon points="681,35 686,30 688,30 688,40 686,40 681,35 " style="fill:white; stroke-width:1; stroke:black; " description="&lt;b&gt;ctg27_34&lt;/b&gt;&lt;br&gt;ctg27 34&lt;br&gt;Location: 60979 - 61561" locus_tag="ctg27_34" class="clusterblast-orf" id="dummy-1_q33_0_all"  />
<polygon points="688,35 693,30 697,30 697,40 693,40 688,35 " style="fill:white; stroke-width:1; stroke:black; " description="&lt;b&gt;ctg27_35&lt;/b&gt;&lt;br&gt;ctg27 35&lt;br&gt;Location: 61582 - 62344" locus_tag="ctg27_35" class="clusterblast-orf" id="dummy-1_q34_0_all"  />
<polygon points="697,35 702,30 725,30 725,40 702,40 697,35 " style="fill:white; stroke-width:1; stroke:black; " description="&lt;b&gt;ctg27_36&lt;/b&gt;&lt;br&gt;ctg27 36&lt;br&gt;Location: 62340 - 64875" locus_tag="ctg27_36" class="clusterblast-orf" id="dummy-1_q35_0_all"  />
<polygon points="727,35 732,30 733,30 733,40 732,40 727,35 " style="fill:white; stroke-width:1; stroke:black; " description="&lt;b&gt;ctg27_37&lt;/b&gt;&lt;br&gt;ctg27 37&lt;br&gt;Location: 64972 - 65533" locus_tag="ctg27_37" class="clusterblast-orf" id="dummy-1_q36_0_all"  />
<polygon points="733,35 738,30 739,30 739,40 738,40 733,35 " style="fill:white; stroke-width:1; stroke:black; " description="&lt;b&gt;ctg27_38&lt;/b&gt;&lt;br&gt;ctg27 38&lt;br&gt;Location: 65584 - 66106" locus_tag="ctg27_38" class="clusterblast-orf" id="dummy-1_q37_0_all"  />
<polygon points="747,35 752,30 759,30 759,40 752,40 747,35 " style="fill:white; stroke-width:1; stroke:black; " description="&lt;b&gt;ctg27_39&lt;/b&gt;&lt;br&gt;ctg27 39&lt;br&gt;Location: 66794 - 67850" locus_tag="ctg27_39" class="clusterblast-orf" id="dummy-1_q38_0_all"  />
<polygon points="765,35 770,30 774,30 774,40 770,40 765,35 " style="fill:#91d815; stroke-width:1; stroke:black; " description="&lt;b&gt;ctg27_40&lt;/b&gt;&lt;br&gt;ctg27 40&lt;br&gt;Location: 68371 - 69199" locus_tag="ctg27_40" class="clusterblast-orf" id="dummy-1_q39_0_all"  />
<polygon points="774,35 779,30 780,30 780,40 779,40 774,35 " style="fill:#15d8d8; stroke-width:1; stroke:black; " description="&lt;b&gt;ctg27_41&lt;/b&gt;&lt;br&gt;ctg27 41&lt;br&gt;Location: 69179 - 69668" locus_tag="ctg27_41" class="clusterblast-orf" id="dummy-1_q40_0_all"  />
</g>
<g label="BGC0002418" description="BGC0002418_c1: pacifibactin (13% of genes show similarity), NRP+Polyketide" class="clusterblast-cluster"  >
<text x="5" y="70" class="clusterblast-acc"  >
<a xlink:href="https://mibig.secondarymetabolites.org/go/BGC0002418/1" target="_blank">BGC0002418</a>: pacifibactin                                                                     (13% of genes show similarity), NRP+Polyketide</text>
<line x1="10" y1="85" x2="778.0" y2="85" style="stroke-width:1; stroke:grey; "  />
</g>
<g id="a1_000"  >
<polygon points="58,90 59,90 64,85 59,80 58,80 58,90 " style="fill:white; stroke-width:1; stroke:black; " description="&lt;b&gt;S7S_05275&lt;/b&gt;&lt;br&gt;extracytoplasmic-function sigma-70 factor&lt;br&gt;Location: 1 - 513" locus_tag="S7S_05275" class="clusterblast-orf" id="dummy-1_h1_7_0"  />
</g>
<g id="a1_001"  >
<polygon points="67,90 69,85 67,80 67,90 " style="fill:white; stroke-width:1; stroke:black; " description="&lt;b&gt;S7S_05280&lt;/b&gt;&lt;br&gt;hypothetical protein&lt;br&gt;Location: 743 - 967" locus_tag="S7S_05280" class="clusterblast-orf" id="dummy-1_h1_7_1"  />
</g>
<g id="a1_002"  >
<polygon points="73,90 76,85 73,80 73,90 " style="fill:white; stroke-width:1; stroke:black; " description="&lt;b&gt;S7S_05285&lt;/b&gt;&lt;br&gt;MbtH-like protein&lt;br&gt;Location: 1298 - 1525" locus_tag="S7S_05285" class="clusterblast-orf" id="dummy-1_h1_7_2"  />
</g>
<g id="a1_003"  >
<polygon points="75,90 79,90 84,85 79,80 75,80 75,90 " style="fill:white; stroke-width:1; stroke:black; " description="&lt;b&gt;S7S_05290&lt;/b&gt;&lt;br&gt;thioesterase domain-containing protein&lt;br&gt;Location: 1522 - 2274" locus_tag="S7S_05290" class="clusterblast-orf" id="dummy-1_h1_7_3"  />
</g>
<g id="a1_004"  >
<polygon points="84,90 86,90 91,85 86,80 84,80 84,90 " style="fill:white; stroke-width:1; stroke:black; " description="&lt;b&gt;S7S_05295&lt;/b&gt;&lt;br&gt;4'-phosphopantetheinyl transferase&lt;br&gt;Location: 2252 - 2908" locus_tag="S7S_05295" class="clusterblast-orf" id="dummy-1_h1_7_4"  />
</g>
<g id="a1_005"  >
<polygon points="91,90 97,90 102,85 97,80 91,80 91,90 " style="fill:#d8b515; stroke-width:1; stroke:black; " description="&lt;b&gt;S7S_05300&lt;/b&gt;&lt;br&gt;taurine catabolism dioxygenase TauD, TfdA family protein 2&lt;br&gt;Location: 2932 - 3903&lt;br&gt;&lt;br&gt;&lt;b&gt;BlastP hit with ctg27_21&lt;/b&gt;&lt;br&gt;Percentage identity: 61&lt;br&gt;Percentage coverage: 96&lt;br&gt;BLAST bit score: 402&lt;br&gt;E-value: 3.04e-141" locus_tag="S7S_05300" class="clusterblast-orf" id="dummy-1_h1_7_5"  />
</g>
<g id="a1_006"  >
<polygon points="103,90 134,90 139,85 134,80 103,80 103,90 " style="fill:white; stroke-width:1; stroke:black; " description="&lt;b&gt;S7S_05305&lt;/b&gt;&lt;br&gt;amino acid adenylation domain-containing protein&lt;br&gt;Location: 3921 - 7166" locus_tag="S7S_05305" class="clusterblast-orf" id="dummy-1_h1_7_6"  />
</g>
<g id="a1_007"  >
<polygon points="139,90 209,90 214,85 209,80 139,80 139,90 " style="fill:white; stroke-width:1; stroke:black; " description="&lt;b&gt;S7S_05310&lt;/b&gt;&lt;br&gt;erythronolide synthase&lt;br&gt;Location: 7163 - 13807" locus_tag="S7S_05310" class="clusterblast-orf" id="dummy-1_h1_7_7"  />
</g>
<g id="a1_008"  >
<polygon points="215,90 245,90 250,85 245,80 215,80 215,90 " style="fill:white; stroke-width:1; stroke:black; " description="&lt;b&gt;S7S_05315&lt;/b&gt;&lt;br&gt;amino acid adenylation domain-containing protein&lt;br&gt;Location: 13837 - 16953" locus_tag="S7S_05315" class="clusterblast-orf" id="dummy-1_h1_7_8"  />
</g>
<g id="a1_009"  >
<polygon points="250,90 380,90 385,85 380,80 250,80 250,90 " style="fill:white; stroke-width:1; stroke:black; " description="&lt;b&gt;S7S_05320&lt;/b&gt;&lt;br&gt;protein PvdD&lt;br&gt;Location: 16978 - 28905" locus_tag="S7S_05320" class="clusterblast-orf" id="dummy-1_h1_7_9"  />
</g>
<g id="a1_0010"  >
<polygon points="387,90 470,90 475,85 470,80 387,80 387,90 " style="fill:#d815b5; stroke-width:1; stroke:black; " description="&lt;b&gt;S7S_05325&lt;/b&gt;&lt;br&gt;PpsD&lt;br&gt;Location: 29078 - 36826&lt;br&gt;&lt;br&gt;&lt;b&gt;BlastP hit with ctg27_20&lt;/b&gt;&lt;br&gt;Percentage identity: 46&lt;br&gt;Percentage coverage: 98&lt;br&gt;BLAST bit score: 805&lt;br&gt;E-value: 2.77e-260" locus_tag="S7S_05325" class="clusterblast-orf" id="dummy-1_h1_7_10"  />
</g>
<g id="a1_0011"  >
<polygon points="477,85 482,80 489,80 489,90 482,90 477,85 " style="fill:white; stroke-width:1; stroke:black; " description="&lt;b&gt;S7S_05330&lt;/b&gt;&lt;br&gt;hypothetical protein&lt;br&gt;Location: 37040 - 38074" locus_tag="S7S_05330" class="clusterblast-orf" id="dummy-1_h1_7_11"  />
</g>
<g id="a1_0012"  >
<polygon points="489,85 494,80 511,80 511,90 494,90 489,85 " style="fill:white; stroke-width:1; stroke:black; " description="&lt;b&gt;S7S_05335&lt;/b&gt;&lt;br&gt;AMP-binding domain protein&lt;br&gt;Location: 38094 - 40064" locus_tag="S7S_05335" class="clusterblast-orf" id="dummy-1_h1_7_12"  />
</g>
<g id="a1_0013"  >
<polygon points="511,85 516,80 522,80 522,90 516,90 511,85 " style="fill:white; stroke-width:1; stroke:black; " description="&lt;b&gt;S7S_05340&lt;/b&gt;&lt;br&gt;fumarylacetoacetate hydrolase&lt;br&gt;Location: 40061 - 41020" locus_tag="S7S_05340" class="clusterblast-orf" id="dummy-1_h1_7_13"  />
</g>
<g id="a1_0014"  >
<polygon points="522,85 527,80 534,80 534,90 527,90 522,85 " style="fill:white; stroke-width:1; stroke:black; " description="&lt;b&gt;S7S_05345&lt;/b&gt;&lt;br&gt;glyoxalase&lt;br&gt;Location: 41036 - 42109" locus_tag="S7S_05345" class="clusterblast-orf" id="dummy-1_h1_7_14"  />
</g>
<g id="a1_0015"  >
<polygon points="534,85 539,80 545,80 545,90 539,90 534,85 " style="fill:white; stroke-width:1; stroke:black; " description="&lt;b&gt;S7S_05350&lt;/b&gt;&lt;br&gt;phytanoyl-CoA dioxygenase (PhyH) family protein&lt;br&gt;Location: 42109 - 43086" locus_tag="S7S_05350" class="clusterblast-orf" id="dummy-1_h1_7_15"  />
</g>
<g id="a1_0016"  >
<polygon points="547,90 560,90 565,85 560,80 547,80 547,90 " style="fill:white; stroke-width:1; stroke:black; " description="&lt;b&gt;S7S_05355&lt;/b&gt;&lt;br&gt;monooxygenase FAD-binding protein&lt;br&gt;Location: 43234 - 44814" locus_tag="S7S_05355" class="clusterblast-orf" id="dummy-1_h1_7_16"  />
</g>
<g id="a1_0017"  >
<polygon points="566,90 568,90 573,85 568,80 566,80 566,90 " style="fill:white; stroke-width:1; stroke:black; " description="&lt;b&gt;S7S_05360&lt;/b&gt;&lt;br&gt;TetR family transcriptional regulator&lt;br&gt;Location: 44910 - 45548" locus_tag="S7S_05360" class="clusterblast-orf" id="dummy-1_h1_7_17"  />
</g>
<g id="a1_0018"  >
<polygon points="573,85 578,80 580,80 580,90 578,90 573,85 " style="fill:white; stroke-width:1; stroke:black; " description="&lt;b&gt;S7S_05365&lt;/b&gt;&lt;br&gt;TetR family transcriptional regulator&lt;br&gt;Location: 45578 - 46141" locus_tag="S7S_05365" class="clusterblast-orf" id="dummy-1_h1_7_18"  />
</g>
<g id="a1_0019"  >
<polygon points="581,90 587,90 592,85 587,80 581,80 581,90 " style="fill:white; stroke-width:1; stroke:black; " description="&lt;b&gt;S7S_05370&lt;/b&gt;&lt;br&gt;hydrolase, alpha/beta fold family, putative&lt;br&gt;Location: 46261 - 47178" locus_tag="S7S_05370" class="clusterblast-orf" id="dummy-1_h1_7_19"  />
</g>
<g id="a1_0020"  >
<polygon points="593,90 596,85 593,80 593,90 " style="fill:white; stroke-width:1; stroke:black; " description="&lt;b&gt;S7S_05375&lt;/b&gt;&lt;br&gt;hypothetical protein&lt;br&gt;Location: 47281 - 47565" locus_tag="S7S_05375" class="clusterblast-orf" id="dummy-1_h1_7_20"  />
</g>
<g id="a1_0021"  >
<polygon points="599,90 606,90 611,85 606,80 599,80 599,90 " style="fill:white; stroke-width:1; stroke:black; " description="&lt;b&gt;S7S_05380&lt;/b&gt;&lt;br&gt;oxidoreductase FAD-binding domain-containing protein&lt;br&gt;Location: 47820 - 48932" locus_tag="S7S_05380" class="clusterblast-orf" id="dummy-1_h1_7_21"  />
</g>
<g id="a1_0022"  >
<polygon points="611,90 620,90 625,85 620,80 611,80 611,90 " style="fill:white; stroke-width:1; stroke:black; " description="&lt;b&gt;S7S_05385&lt;/b&gt;&lt;br&gt;fatty acid desaturase domain-containing protein&lt;br&gt;Location: 48943 - 50130" locus_tag="S7S_05385" class="clusterblast-orf" id="dummy-1_h1_7_22"  />
</g>
<g id="a1_0023"  >
<polygon points="626,85 631,80 636,80 636,90 631,90 626,85 " style="fill:#1539d8; stroke-width:1; stroke:black; " description="&lt;b&gt;S7S_05390&lt;/b&gt;&lt;br&gt;lipolytic protein&lt;br&gt;Location: 50222 - 51151&lt;br&gt;&lt;br&gt;&lt;b&gt;BlastP hit with ctg27_17&lt;/b&gt;&lt;br&gt;Percentage identity: 46&lt;br&gt;Percentage coverage: 100&lt;br&gt;BLAST bit score: 259&lt;br&gt;E-value: 2.3e-85" locus_tag="S7S_05390" class="clusterblast-orf" id="dummy-1_h1_7_23"  />
</g>
<g id="a1_0024"  >
<polygon points="637,85 642,80 662,80 662,90 642,90 637,85 " style="fill:white; stroke-width:1; stroke:black; " description="&lt;b&gt;S7S_05395&lt;/b&gt;&lt;br&gt;TonB-dependent siderophore receptor&lt;br&gt;Location: 51225 - 53378" locus_tag="S7S_05395" class="clusterblast-orf" id="dummy-1_h1_7_24"  />
</g>
<g id="a1_0025"  >
<polygon points="665,85 670,80 679,80 679,90 670,90 665,85 " style="fill:#5cd815; stroke-width:1; stroke:black; " description="&lt;b&gt;S7S_05400&lt;/b&gt;&lt;br&gt;L-lysine 6-monooxygenase&lt;br&gt;Location: 53639 - 54949&lt;br&gt;&lt;br&gt;&lt;b&gt;BlastP hit with ctg27_7&lt;/b&gt;&lt;br&gt;Percentage identity: 50&lt;br&gt;Percentage coverage: 96&lt;br&gt;BLAST bit score: 427&lt;br&gt;E-value: 2.24e-147" locus_tag="S7S_05400" class="clusterblast-orf" id="dummy-1_h1_7_25"  />
</g>
<g id="a1_0026"  >
<polygon points="679,85 684,80 692,80 692,90 684,90 679,85 " style="fill:white; stroke-width:1; stroke:black; " description="&lt;b&gt;S7S_05405&lt;/b&gt;&lt;br&gt;hypothetical protein&lt;br&gt;Location: 54960 - 56060" locus_tag="S7S_05405" class="clusterblast-orf" id="dummy-1_h1_7_26"  />
</g>
<g id="a1_0027"  >
<polygon points="692,85 697,80 701,80 701,90 697,90 692,85 " style="fill:white; stroke-width:1; stroke:black; " description="&lt;b&gt;S7S_05410&lt;/b&gt;&lt;br&gt;FhuF/siderophore biosynthesis protein&lt;br&gt;Location: 56107 - 56856" locus_tag="S7S_05410" class="clusterblast-orf" id="dummy-1_h1_7_27"  />
</g>
<g id="a1_0028"  >
<polygon points="702,90 716,90 721,85 716,80 702,80 702,90 " style="fill:white; stroke-width:1; stroke:black; " description="&lt;b&gt;S7S_05415&lt;/b&gt;&lt;br&gt;pyoverdine synthetase E, pdvE&lt;br&gt;Location: 56972 - 58606" locus_tag="S7S_05415" class="clusterblast-orf" id="dummy-1_h1_7_28"  />
</g>
</svg>
