<svg xmlns="http://www.w3.org/2000/svg" xmlns:xlink="http://www.w3.org/1999/xlink" version="1.1" x="0" y="0" height="450" width="800" viewBox="0 0 800 450" preserveAspectRatio="none"  >
<g label="Query sequence" class="clusterblast-cluster"  >
<text x="5" y="20" class="clusterblast-acc"  >
Query sequence</text>
<line x1="10" y1="35" x2="778.0" y2="35" style="stroke-width:1; stroke:grey; "  />
<polygon points="0,35 5,30 43,30 43,40 5,40 0,35 " style="fill:white; stroke-width:1; stroke:black; " description="&lt;b&gt;ctg19_64&lt;/b&gt;&lt;br&gt;ctg19 64&lt;br&gt;Location: 70965 - 71976" locus_tag="ctg19_64" class="clusterblast-orf" id="knownclusterblast-1_q0_0_all"  />
<polygon points="42,35 47,30 92,30 92,40 47,40 42,35 " style="fill:white; stroke-width:1; stroke:black; " description="&lt;b&gt;ctg19_65&lt;/b&gt;&lt;br&gt;ctg19 65&lt;br&gt;Location: 71962 - 73132" locus_tag="ctg19_65" class="clusterblast-orf" id="knownclusterblast-1_q1_0_all"  />
<polygon points="92,35 97,30 148,30 148,40 97,40 92,35 " style="fill:#d81515; stroke-width:1; stroke:black; " description="&lt;b&gt;ctg19_66&lt;/b&gt;&lt;br&gt;ctg19 66&lt;br&gt;Location: 73128 - 74424" locus_tag="ctg19_66" class="clusterblast-orf" id="knownclusterblast-1_q2_0_all"  />
<polygon points="147,35 152,30 180,30 180,40 152,40 147,35 " style="fill:white; stroke-width:1; stroke:black; " description="&lt;b&gt;ctg19_67&lt;/b&gt;&lt;br&gt;ctg19 67&lt;br&gt;Location: 74417 - 75191" locus_tag="ctg19_67" class="clusterblast-orf" id="knownclusterblast-1_q3_0_all"  />
<polygon points="182,35 187,30 198,30 198,40 187,40 182,35 " style="fill:#15d8d8; stroke-width:1; stroke:black; " description="&lt;b&gt;ctg19_68&lt;/b&gt;&lt;br&gt;ctg19 68&lt;br&gt;Location: 75218 - 75602" locus_tag="ctg19_68" class="clusterblast-orf" id="knownclusterblast-1_q4_0_all"  />
<polygon points="226,40 264,40 269,35 264,30 226,30 226,40 " style="fill:white; stroke-width:1; stroke:black; " description="&lt;b&gt;ctg19_69&lt;/b&gt;&lt;br&gt;ctg19 69&lt;br&gt;Location: 76248 - 77259" locus_tag="ctg19_69" class="clusterblast-orf" id="knownclusterblast-1_q5_0_all"  />
<polygon points="271,40 302,40 307,35 302,30 271,30 271,40 " style="fill:white; stroke-width:1; stroke:black; " description="&lt;b&gt;ctg19_70&lt;/b&gt;&lt;br&gt;ctg19 70&lt;br&gt;Location: 77321 - 78152" locus_tag="ctg19_70" class="clusterblast-orf" id="knownclusterblast-1_q6_0_all"  />
<polygon points="307,40 311,35 307,30 307,40 " style="fill:white; stroke-width:1; stroke:black; " description="&lt;b&gt;ctg19_71&lt;/b&gt;&lt;br&gt;ctg19 71&lt;br&gt;Location: 78159 - 78255" locus_tag="ctg19_71" class="clusterblast-orf" id="knownclusterblast-1_q7_0_all"  />
<polygon points="312,40 345,40 350,35 345,30 312,30 312,40 " style="fill:white; stroke-width:1; stroke:black; " description="&lt;b&gt;ctg19_72&lt;/b&gt;&lt;br&gt;ctg19 72&lt;br&gt;Location: 78275 - 79154" locus_tag="ctg19_72" class="clusterblast-orf" id="knownclusterblast-1_q8_0_all"  />
<polygon points="351,40 393,40 398,35 393,30 351,30 351,40 " style="fill:white; stroke-width:1; stroke:black; " description="&lt;b&gt;ctg19_73&lt;/b&gt;&lt;br&gt;ctg19 73&lt;br&gt;Location: 79183 - 80284" locus_tag="ctg19_73" class="clusterblast-orf" id="knownclusterblast-1_q9_0_all"  />
<polygon points="399,40 447,40 452,35 447,30 399,30 399,40 " style="fill:white; stroke-width:1; stroke:black; " description="&lt;b&gt;ctg19_74&lt;/b&gt;&lt;br&gt;ctg19 74&lt;br&gt;Location: 80322 - 81555" locus_tag="ctg19_74" class="clusterblast-orf" id="knownclusterblast-1_q10_0_all"  />
<polygon points="453,40 485,40 490,35 485,30 453,30 453,40 " style="fill:white; stroke-width:1; stroke:black; " description="&lt;b&gt;ctg19_75&lt;/b&gt;&lt;br&gt;ctg19 75&lt;br&gt;Location: 81585 - 82431" locus_tag="ctg19_75" class="clusterblast-orf" id="knownclusterblast-1_q11_0_all"  />
<polygon points="491,40 534,40 539,35 534,30 491,30 491,40 " style="fill:white; stroke-width:1; stroke:black; " description="&lt;b&gt;ctg19_76&lt;/b&gt;&lt;br&gt;ctg19 76&lt;br&gt;Location: 82469 - 83591" locus_tag="ctg19_76" class="clusterblast-orf" id="knownclusterblast-1_q12_0_all"  />
<polygon points="539,40 580,40 585,35 580,30 539,30 539,40 " style="fill:white; stroke-width:1; stroke:black; " description="&lt;b&gt;ctg19_77&lt;/b&gt;&lt;br&gt;ctg19 77&lt;br&gt;Location: 83583 - 84675" locus_tag="ctg19_77" class="clusterblast-orf" id="knownclusterblast-1_q13_0_all"  />
<polygon points="585,40 618,40 623,35 618,30 585,30 585,40 " style="fill:white; stroke-width:1; stroke:black; " description="&lt;b&gt;ctg19_78&lt;/b&gt;&lt;br&gt;ctg19 78&lt;br&gt;Location: 84671 - 85547" locus_tag="ctg19_78" class="clusterblast-orf" id="knownclusterblast-1_q14_0_all"  />
<polygon points="625,35 630,30 640,30 640,40 630,40 625,35 " style="fill:white; stroke-width:1; stroke:black; " description="&lt;b&gt;ctg19_79&lt;/b&gt;&lt;br&gt;ctg19 79&lt;br&gt;Location: 85608 - 85950" locus_tag="ctg19_79" class="clusterblast-orf" id="knownclusterblast-1_q15_0_all"  />
<polygon points="646,40 693,40 698,35 693,30 646,30 646,40 " style="fill:white; stroke-width:1; stroke:black; " description="&lt;b&gt;ctg19_80&lt;/b&gt;&lt;br&gt;ctg19 80&lt;br&gt;Location: 86095 - 87316" locus_tag="ctg19_80" class="clusterblast-orf" id="knownclusterblast-1_q16_0_all"  />
<polygon points="698,40 729,40 734,35 729,30 698,30 698,40 " style="fill:white; stroke-width:1; stroke:black; " description="&lt;b&gt;ctg19_81&lt;/b&gt;&lt;br&gt;ctg19 81&lt;br&gt;Location: 87312 - 88158" locus_tag="ctg19_81" class="clusterblast-orf" id="knownclusterblast-1_q17_0_all"  />
<polygon points="736,35 741,30 780,30 780,40 741,40 736,35 " style="fill:white; stroke-width:1; stroke:black; " description="&lt;b&gt;ctg19_82&lt;/b&gt;&lt;br&gt;ctg19 82&lt;br&gt;Location: 88212 - 89232" locus_tag="ctg19_82" class="clusterblast-orf" id="knownclusterblast-1_q18_0_all"  />
</g>
<g label="BGC0000859" description="BGC0000859_c1: ectoine (50% of genes show similarity), Other" class="clusterblast-cluster"  >
<text x="5" y="70" class="clusterblast-acc"  >
<a xlink:href="https://mibig.secondarymetabolites.org/go/BGC0000859/1" target="_blank">BGC0000859</a>: ectoine                                                                          (50% of genes show similarity), Other</text>
<line x1="10" y1="85" x2="778.0" y2="85" style="stroke-width:1; stroke:grey; "  />
</g>
<g id="a1_000"  >
<polygon points="324,85 329,80 352,80 352,90 329,90 324,85 " style="fill:white; stroke-width:1; stroke:black; " description="&lt;b&gt;ACB30333.1&lt;/b&gt;&lt;br&gt;aspartokinase&lt;br&gt;Location: 3305 - 2667" locus_tag="ACB30333.1" class="clusterblast-orf" id="knownclusterblast-1_all_1_1_0"  />
</g>
<g id="a1_001"  >
<polygon points="354,85 359,80 372,80 372,90 359,90 354,85 " style="fill:#15d8d8; stroke-width:1; stroke:black; " description="&lt;b&gt;ACB30332.1&lt;/b&gt;&lt;br&gt;ectoine synthase&lt;br&gt;Location: 2607 - 2203&lt;br&gt;&lt;br&gt;&lt;b&gt;BlastP hit with ctg19_68&lt;/b&gt;&lt;br&gt;Percentage identity: 48&lt;br&gt;Percentage coverage: 102&lt;br&gt;BLAST bit score: 133&lt;br&gt;E-value: 6.46e-41" locus_tag="ACB30332.1" class="clusterblast-orf" id="knownclusterblast-1_all_1_1_1"  />
</g>
<g id="a1_002"  >
<polygon points="374,85 379,80 431,80 431,90 379,90 374,85 " style="fill:#d81515; stroke-width:1; stroke:black; " description="&lt;b&gt;ACB30331.1&lt;/b&gt;&lt;br&gt;L-2,4-diaminobutyric acid aminotransferase&lt;br&gt;Location: 2151 - 820&lt;br&gt;&lt;br&gt;&lt;b&gt;BlastP hit with ctg19_66&lt;/b&gt;&lt;br&gt;Percentage identity: 50&lt;br&gt;Percentage coverage: 97&lt;br&gt;BLAST bit score: 430&lt;br&gt;E-value: 1.49e-148" locus_tag="ACB30331.1" class="clusterblast-orf" id="knownclusterblast-1_all_1_1_2"  />
</g>
<g id="a1_003"  >
<polygon points="432,85 437,80 455,80 455,90 437,90 432,85 " style="fill:white; stroke-width:1; stroke:black; " description="&lt;b&gt;ACB30330.1&lt;/b&gt;&lt;br&gt;L-2,4-diaminobutyric acid acetyltransferase&lt;br&gt;Location: 777 - 259" locus_tag="ACB30330.1" class="clusterblast-orf" id="knownclusterblast-1_all_1_1_3"  />
</g>
<g label="BGC0000854" description="BGC0000854_c1: ectoine (33% of genes show similarity), Other" class="clusterblast-cluster"  >
<text x="5" y="120" class="clusterblast-acc"  >
<a xlink:href="https://mibig.secondarymetabolites.org/go/BGC0000854/1" target="_blank">BGC0000854</a>: ectoine                                                                          (33% of genes show similarity), Other</text>
<line x1="10" y1="135" x2="778.0" y2="135" style="stroke-width:1; stroke:grey; "  />
</g>
<g id="a1_000"  >
<polygon points="261,135 266,130 301,130 301,140 266,140 261,135 " style="fill:white; stroke-width:1; stroke:black; " description="&lt;b&gt;AAY96769.2&lt;/b&gt;&lt;br&gt;putative ectoine hydroxylase&lt;br&gt;Location: 6879 - 5920" locus_tag="AAY96769.2" class="clusterblast-orf" id="knownclusterblast-1_all_1_2_0"  />
</g>
<g id="a1_001"  >
<polygon points="317,135 322,130 378,130 378,140 322,140 317,135 " style="fill:white; stroke-width:1; stroke:black; " description="&lt;b&gt;AAY96773.1&lt;/b&gt;&lt;br&gt;aspartokinase&lt;br&gt;Location: 5559 - 4117" locus_tag="AAY96773.1" class="clusterblast-orf" id="knownclusterblast-1_all_1_2_1"  />
</g>
<g id="a1_002"  >
<polygon points="381,135 386,130 398,130 398,140 386,140 381,135 " style="fill:#15d8d8; stroke-width:1; stroke:black; " description="&lt;b&gt;AAY96772.1&lt;/b&gt;&lt;br&gt;ectoine synthase&lt;br&gt;Location: 4056 - 3652&lt;br&gt;&lt;br&gt;&lt;b&gt;BlastP hit with ctg19_68&lt;/b&gt;&lt;br&gt;Percentage identity: 47&lt;br&gt;Percentage coverage: 102&lt;br&gt;BLAST bit score: 132&lt;br&gt;E-value: 1.84e-40" locus_tag="AAY96772.1" class="clusterblast-orf" id="knownclusterblast-1_all_1_2_2"  />
</g>
<g id="a1_003"  >
<polygon points="400,135 405,130 457,130 457,140 405,140 400,135 " style="fill:#d81515; stroke-width:1; stroke:black; " description="&lt;b&gt;AAY96771.1&lt;/b&gt;&lt;br&gt;L-2,4-diaminobutyrat transaminase&lt;br&gt;Location: 3601 - 2270&lt;br&gt;&lt;br&gt;&lt;b&gt;BlastP hit with ctg19_66&lt;/b&gt;&lt;br&gt;Percentage identity: 50&lt;br&gt;Percentage coverage: 97&lt;br&gt;BLAST bit score: 427&lt;br&gt;E-value: 1.72e-147" locus_tag="AAY96771.1" class="clusterblast-orf" id="knownclusterblast-1_all_1_2_3"  />
</g>
<g id="a1_004"  >
<polygon points="459,135 464,130 481,130 481,140 464,140 459,135 " style="fill:white; stroke-width:1; stroke:black; " description="&lt;b&gt;AAY96770.1&lt;/b&gt;&lt;br&gt;L-2,4-diaminobutyrat acetyltransferase&lt;br&gt;Location: 2227 - 1709" locus_tag="AAY96770.1" class="clusterblast-orf" id="knownclusterblast-1_all_1_2_4"  />
</g>
<g id="a1_005"  >
<polygon points="495,140 513,140 518,135 513,130 495,130 495,140 " style="fill:white; stroke-width:1; stroke:black; " description="&lt;b&gt;ACP19701.1&lt;/b&gt;&lt;br&gt;transcriptional regulator MarR family&lt;br&gt;Location: 1381 - 839" locus_tag="ACP19701.1" class="clusterblast-orf" id="knownclusterblast-1_all_1_2_5"  />
</g>
<g label="BGC0000855" description="BGC0000855_c1: ectoine (50% of genes show similarity), Other" class="clusterblast-cluster"  >
<text x="5" y="170" class="clusterblast-acc"  >
<a xlink:href="https://mibig.secondarymetabolites.org/go/BGC0000855/1" target="_blank">BGC0000855</a>: ectoine                                                                          (50% of genes show similarity), Other</text>
<line x1="10" y1="185" x2="778.0" y2="185" style="stroke-width:1; stroke:grey; "  />
</g>
<g id="a1_000"  >
<polygon points="321,185 326,180 340,180 340,190 326,190 321,185 " style="fill:white; stroke-width:1; stroke:black; " description="&lt;b&gt;ABB30173.1&lt;/b&gt;&lt;br&gt;hypothetical protein&lt;br&gt;Location: 3455 - 3000" locus_tag="ABB30173.1" class="clusterblast-orf" id="knownclusterblast-1_all_1_3_0"  />
</g>
<g id="a1_001"  >
<polygon points="354,185 359,180 372,180 372,190 359,190 354,185 " style="fill:#15d8d8; stroke-width:1; stroke:black; " description="&lt;b&gt;ABB30172.1&lt;/b&gt;&lt;br&gt;ectoine synthase&lt;br&gt;Location: 2673 - 2269&lt;br&gt;&lt;br&gt;&lt;b&gt;BlastP hit with ctg19_68&lt;/b&gt;&lt;br&gt;Percentage identity: 47&lt;br&gt;Percentage coverage: 102&lt;br&gt;BLAST bit score: 127&lt;br&gt;E-value: 1.22e-38" locus_tag="ABB30172.1" class="clusterblast-orf" id="knownclusterblast-1_all_1_3_1"  />
</g>
<g id="a1_002"  >
<polygon points="379,185 384,180 435,180 435,190 384,190 379,185 " style="fill:#d81515; stroke-width:1; stroke:black; " description="&lt;b&gt;ABB30171.1&lt;/b&gt;&lt;br&gt;L-2,4-diaminobutyric acid acetyl transferase&lt;br&gt;Location: 2098 - 788&lt;br&gt;&lt;br&gt;&lt;b&gt;BlastP hit with ctg19_66&lt;/b&gt;&lt;br&gt;Percentage identity: 49&lt;br&gt;Percentage coverage: 96&lt;br&gt;BLAST bit score: 423&lt;br&gt;E-value: 6.27e-146" locus_tag="ABB30171.1" class="clusterblast-orf" id="knownclusterblast-1_all_1_3_2"  />
</g>
<g id="a1_003"  >
<polygon points="437,185 442,180 458,180 458,190 442,190 437,185 " style="fill:white; stroke-width:1; stroke:black; " description="&lt;b&gt;ABB30170.1&lt;/b&gt;&lt;br&gt;L-2,4-diaminobutyric acid acetyl transferase&lt;br&gt;Location: 740 - 246" locus_tag="ABB30170.1" class="clusterblast-orf" id="knownclusterblast-1_all_1_3_3"  />
</g>
<g label="BGC0000856" description="BGC0000856_c1: ectoine (50% of genes show similarity), Other" class="clusterblast-cluster"  >
<text x="5" y="220" class="clusterblast-acc"  >
<a xlink:href="https://mibig.secondarymetabolites.org/go/BGC0000856/1" target="_blank">BGC0000856</a>: ectoine                                                                          (50% of genes show similarity), Other</text>
<line x1="10" y1="235" x2="778.0" y2="235" style="stroke-width:1; stroke:grey; "  />
</g>
<g id="a1_000"  >
<polygon points="308,235 313,230 364,230 364,240 313,240 308,235 " style="fill:white; stroke-width:1; stroke:black; " description="&lt;b&gt;ABY40742.1&lt;/b&gt;&lt;br&gt;aspartokinase&lt;br&gt;Location: 4347 - 3034" locus_tag="ABY40742.1" class="clusterblast-orf" id="knownclusterblast-1_all_1_4_0"  />
</g>
<g id="a1_001"  >
<polygon points="369,235 374,230 387,230 387,240 374,240 369,235 " style="fill:#15d8d8; stroke-width:1; stroke:black; " description="&lt;b&gt;ABY40741.1&lt;/b&gt;&lt;br&gt;ectoine synthase&lt;br&gt;Location: 2901 - 2497&lt;br&gt;&lt;br&gt;&lt;b&gt;BlastP hit with ctg19_68&lt;/b&gt;&lt;br&gt;Percentage identity: 46&lt;br&gt;Percentage coverage: 102&lt;br&gt;BLAST bit score: 127&lt;br&gt;E-value: 1.74e-38" locus_tag="ABY40741.1" class="clusterblast-orf" id="knownclusterblast-1_all_1_4_1"  />
</g>
<g id="a1_002"  >
<polygon points="390,235 395,230 447,230 447,240 395,240 390,235 " style="fill:#d81515; stroke-width:1; stroke:black; " description="&lt;b&gt;ABY40740.1&lt;/b&gt;&lt;br&gt;L-2,4-diaminobutyrate aminotransferase&lt;br&gt;Location: 2425 - 1088&lt;br&gt;&lt;br&gt;&lt;b&gt;BlastP hit with ctg19_66&lt;/b&gt;&lt;br&gt;Percentage identity: 46&lt;br&gt;Percentage coverage: 96&lt;br&gt;BLAST bit score: 399&lt;br&gt;E-value: 1.43e-136" locus_tag="ABY40740.1" class="clusterblast-orf" id="knownclusterblast-1_all_1_4_2"  />
</g>
<g id="a1_003"  >
<polygon points="450,235 455,230 471,230 471,240 455,240 450,235 " style="fill:white; stroke-width:1; stroke:black; " description="&lt;b&gt;ABY40739.1&lt;/b&gt;&lt;br&gt;L-2,4-diaminobutyric acid acetyltransferase&lt;br&gt;Location: 1027 - 518" locus_tag="ABY40739.1" class="clusterblast-orf" id="knownclusterblast-1_all_1_4_3"  />
</g>
<g label="BGC0000860" description="BGC0000860_c1: ectoine (40% of genes show similarity), Other" class="clusterblast-cluster"  >
<text x="5" y="270" class="clusterblast-acc"  >
<a xlink:href="https://mibig.secondarymetabolites.org/go/BGC0000860/1" target="_blank">BGC0000860</a>: ectoine                                                                          (40% of genes show similarity), Other</text>
<line x1="10" y1="285" x2="778.0" y2="285" style="stroke-width:1; stroke:grey; "  />
</g>
<g id="a1_000"  >
<polygon points="295,285 300,280 355,280 355,290 300,290 295,285 " style="fill:white; stroke-width:1; stroke:black; " description="&lt;b&gt;ADA71977.1&lt;/b&gt;&lt;br&gt;aspartokinase&lt;br&gt;Location: 5134 - 3740" locus_tag="ADA71977.1" class="clusterblast-orf" id="knownclusterblast-1_all_1_5_0"  />
</g>
<g id="a1_001"  >
<polygon points="355,285 360,280 372,280 372,290 360,290 355,285 " style="fill:#15d8d8; stroke-width:1; stroke:black; " description="&lt;b&gt;ADA71976.1&lt;/b&gt;&lt;br&gt;L-ectoine synthase&lt;br&gt;Location: 3737 - 3342&lt;br&gt;&lt;br&gt;&lt;b&gt;BlastP hit with ctg19_68&lt;/b&gt;&lt;br&gt;Percentage identity: 50&lt;br&gt;Percentage coverage: 97&lt;br&gt;BLAST bit score: 130&lt;br&gt;E-value: 6.83e-40" locus_tag="ADA71976.1" class="clusterblast-orf" id="knownclusterblast-1_all_1_5_1"  />
</g>
<g id="a1_002"  >
<polygon points="372,285 377,280 427,280 427,290 377,290 372,285 " style="fill:#d81515; stroke-width:1; stroke:black; " description="&lt;b&gt;ADA71975.1&lt;/b&gt;&lt;br&gt;L-2,4-diaminobutyrate transaminase&lt;br&gt;Location: 3334 - 2042&lt;br&gt;&lt;br&gt;&lt;b&gt;BlastP hit with ctg19_66&lt;/b&gt;&lt;br&gt;Percentage identity: 48&lt;br&gt;Percentage coverage: 98&lt;br&gt;BLAST bit score: 394&lt;br&gt;E-value: 8.05e-135" locus_tag="ADA71975.1" class="clusterblast-orf" id="knownclusterblast-1_all_1_5_2"  />
</g>
<g id="a1_003"  >
<polygon points="429,285 434,280 453,280 453,290 434,290 429,285 " style="fill:white; stroke-width:1; stroke:black; " description="&lt;b&gt;ADA71974.1&lt;/b&gt;&lt;br&gt;L-2,4-diaminobutyric acid acetyltransferase&lt;br&gt;Location: 1986 - 1441" locus_tag="ADA71974.1" class="clusterblast-orf" id="knownclusterblast-1_all_1_5_3"  />
</g>
<g id="a1_004"  >
<polygon points="460,290 479,290 484,285 479,280 460,280 460,290 " style="fill:white; stroke-width:1; stroke:black; " description="&lt;b&gt;ADA71973.1&lt;/b&gt;&lt;br&gt;MarR family transcriptional regulator&lt;br&gt;Location: 1265 - 711" locus_tag="ADA71973.1" class="clusterblast-orf" id="knownclusterblast-1_all_1_5_4"  />
</g>
<g label="BGC0002052" description="BGC0002052_c1: ectoine (50% of genes show similarity), Other:Ectoine" class="clusterblast-cluster"  >
<text x="5" y="320" class="clusterblast-acc"  >
<a xlink:href="https://mibig.secondarymetabolites.org/go/BGC0002052/1" target="_blank">BGC0002052</a>: ectoine                                                                          (50% of genes show similarity), Other:Ectoine</text>
<line x1="10" y1="335" x2="778.0" y2="335" style="stroke-width:1; stroke:grey; "  />
</g>
<g id="a1_000"  >
<polygon points="316,335 321,330 355,330 355,340 321,340 316,335 " style="fill:white; stroke-width:1; stroke:black; " description="&lt;b&gt;NAI38-5748&lt;/b&gt;&lt;br&gt;ectoine dioxygenase&lt;br&gt;Location: 189 - 1088" locus_tag="NAI38-5748" class="clusterblast-orf" id="knownclusterblast-1_all_1_6_0"  />
</g>
<g id="a1_001"  >
<polygon points="359,335 364,330 376,330 376,340 364,340 359,335 " style="fill:#15d8d8; stroke-width:1; stroke:black; " description="&lt;b&gt;NAI38-5749&lt;/b&gt;&lt;br&gt;EctC&lt;br&gt;Location: 1184 - 1600&lt;br&gt;&lt;br&gt;&lt;b&gt;BlastP hit with ctg19_68&lt;/b&gt;&lt;br&gt;Percentage identity: 51&lt;br&gt;Percentage coverage: 99&lt;br&gt;BLAST bit score: 140&lt;br&gt;E-value: 6.67e-44" locus_tag="NAI38-5749" class="clusterblast-orf" id="knownclusterblast-1_all_1_6_1"  />
</g>
<g id="a1_002"  >
<polygon points="379,335 384,330 433,330 433,340 384,340 379,335 " style="fill:#d81515; stroke-width:1; stroke:black; " description="&lt;b&gt;NAI38-5750&lt;/b&gt;&lt;br&gt;diaminobutyrate--2-oxoglutarate transaminase&lt;br&gt;Location: 1647 - 2915&lt;br&gt;&lt;br&gt;&lt;b&gt;BlastP hit with ctg19_66&lt;/b&gt;&lt;br&gt;Percentage identity: 47&lt;br&gt;Percentage coverage: 91&lt;br&gt;BLAST bit score: 384&lt;br&gt;E-value: 1.06e-130" locus_tag="NAI38-5750" class="clusterblast-orf" id="knownclusterblast-1_all_1_6_2"  />
</g>
<g id="a1_003"  >
<polygon points="438,335 443,330 463,330 463,340 443,340 438,335 " style="fill:white; stroke-width:1; stroke:black; " description="&lt;b&gt;NAI38-5751&lt;/b&gt;&lt;br&gt;L-2,4-diaminobutyric acid acetyltransferase&lt;br&gt;Location: 3051 - 3620" locus_tag="NAI38-5751" class="clusterblast-orf" id="knownclusterblast-1_all_1_6_3"  />
</g>
<g label="BGC0000853" description="BGC0000853_c1: ectoine (50% of genes show similarity), Other" class="clusterblast-cluster"  >
<text x="5" y="370" class="clusterblast-acc"  >
<a xlink:href="https://mibig.secondarymetabolites.org/go/BGC0000853/1" target="_blank">BGC0000853</a>: ectoine                                                                          (50% of genes show similarity), Other</text>
<line x1="10" y1="385" x2="778.0" y2="385" style="stroke-width:1; stroke:grey; "  />
</g>
<g id="a1_000"  >
<polygon points="318,385 323,380 356,380 356,390 323,390 318,385 " style="fill:white; stroke-width:1; stroke:black; " description="&lt;b&gt;AAS02097.1&lt;/b&gt;&lt;br&gt;ThpD&lt;br&gt;Location: 3345 - 2452" locus_tag="AAS02097.1" class="clusterblast-orf" id="knownclusterblast-1_all_1_7_0"  />
</g>
<g id="a1_001"  >
<polygon points="357,385 362,380 374,380 374,390 362,390 357,385 " style="fill:#15d8d8; stroke-width:1; stroke:black; " description="&lt;b&gt;AAS02096.1&lt;/b&gt;&lt;br&gt;ThpC&lt;br&gt;Location: 2445 - 2047&lt;br&gt;&lt;br&gt;&lt;b&gt;BlastP hit with ctg19_68&lt;/b&gt;&lt;br&gt;Percentage identity: 52&lt;br&gt;Percentage coverage: 99&lt;br&gt;BLAST bit score: 139&lt;br&gt;E-value: 3.2e-43" locus_tag="AAS02096.1" class="clusterblast-orf" id="knownclusterblast-1_all_1_7_1"  />
</g>
<g id="a1_002"  >
<polygon points="377,385 382,380 431,380 431,390 382,390 377,385 " style="fill:#d81515; stroke-width:1; stroke:black; " description="&lt;b&gt;AAS02095.1&lt;/b&gt;&lt;br&gt;ThpB&lt;br&gt;Location: 1960 - 698&lt;br&gt;&lt;br&gt;&lt;b&gt;BlastP hit with ctg19_66&lt;/b&gt;&lt;br&gt;Percentage identity: 48&lt;br&gt;Percentage coverage: 92&lt;br&gt;BLAST bit score: 380&lt;br&gt;E-value: 1.6e-129" locus_tag="AAS02095.1" class="clusterblast-orf" id="knownclusterblast-1_all_1_7_2"  />
</g>
<g id="a1_003"  >
<polygon points="438,385 443,380 461,380 461,390 443,390 438,385 " style="fill:white; stroke-width:1; stroke:black; " description="&lt;b&gt;AAS02094.1&lt;/b&gt;&lt;br&gt;ThpA&lt;br&gt;Location: 539 - 9" locus_tag="AAS02094.1" class="clusterblast-orf" id="knownclusterblast-1_all_1_7_3"  />
</g>
<g label="BGC0000852" description="BGC0000852_c1: ectoine (66% of genes show similarity), Other" class="clusterblast-cluster"  >
<text x="5" y="420" class="clusterblast-acc"  >
<a xlink:href="https://mibig.secondarymetabolites.org/go/BGC0000852/1" target="_blank">BGC0000852</a>: ectoine                                                                          (66% of genes show similarity), Other</text>
<line x1="10" y1="435" x2="778.0" y2="435" style="stroke-width:1; stroke:grey; "  />
</g>
<g id="a1_000"  >
<polygon points="337,435 342,430 355,430 355,440 342,440 337,435 " style="fill:#15d8d8; stroke-width:1; stroke:black; " description="&lt;b&gt;AAK12085.1&lt;/b&gt;&lt;br&gt;EctC&lt;br&gt;Location: 2854 - 2450&lt;br&gt;&lt;br&gt;&lt;b&gt;BlastP hit with ctg19_68&lt;/b&gt;&lt;br&gt;Percentage identity: 49&lt;br&gt;Percentage coverage: 98&lt;br&gt;BLAST bit score: 132&lt;br&gt;E-value: 1.84e-40" locus_tag="AAK12085.1" class="clusterblast-orf" id="knownclusterblast-1_all_1_8_0"  />
</g>
<g id="a1_001"  >
<polygon points="362,435 367,430 416,430 416,440 367,440 362,435 " style="fill:#d81515; stroke-width:1; stroke:black; " description="&lt;b&gt;AAK12084.1&lt;/b&gt;&lt;br&gt;EctB&lt;br&gt;Location: 2290 - 1010&lt;br&gt;&lt;br&gt;&lt;b&gt;BlastP hit with ctg19_66&lt;/b&gt;&lt;br&gt;Percentage identity: 47&lt;br&gt;Percentage coverage: 97&lt;br&gt;BLAST bit score: 384&lt;br&gt;E-value: 8.5e-131" locus_tag="AAK12084.1" class="clusterblast-orf" id="knownclusterblast-1_all_1_8_1"  />
</g>
<g id="a1_002"  >
<polygon points="418,435 423,430 442,430 442,440 423,440 418,435 " style="fill:white; stroke-width:1; stroke:black; " description="&lt;b&gt;AAK12083.1&lt;/b&gt;&lt;br&gt;EctA&lt;br&gt;Location: 958 - 416" locus_tag="AAK12083.1" class="clusterblast-orf" id="knownclusterblast-1_all_1_8_2"  />
</g>
</svg>
