<svg xmlns="http://www.w3.org/2000/svg" xmlns:xlink="http://www.w3.org/1999/xlink" version="1.1" x="0" y="0" height="230" width="800" viewBox="0 0 800 230" preserveAspectRatio="none"  >
<g label="Query sequence" class="clusterblast-cluster"  >
<text x="5" y="20" class="clusterblast-acc"  >
Query sequence</text>
<line x1="10" y1="35" x2="778.0" y2="35" style="stroke-width:1; stroke:grey; "  />
<polygon points="206,35 211,30 235,30 235,40 211,40 206,35 " style="fill:white; stroke-width:1; stroke:black; " description="&lt;b&gt;ctg13_64&lt;/b&gt;&lt;br&gt;ctg13 64&lt;br&gt;Location: 75216 - 76908" locus_tag="ctg13_64" class="clusterblast-orf" id="dummy-1_q0_0_all"  />
<polygon points="237,35 242,30 249,30 249,40 242,40 237,35 " style="fill:white; stroke-width:1; stroke:black; " description="&lt;b&gt;ctg13_65&lt;/b&gt;&lt;br&gt;ctg13 65&lt;br&gt;Location: 77009 - 77660" locus_tag="ctg13_65" class="clusterblast-orf" id="dummy-1_q1_0_all"  />
<polygon points="254,40 263,40 268,35 263,30 254,30 254,40 " style="fill:white; stroke-width:1; stroke:black; " description="&lt;b&gt;ctg13_66&lt;/b&gt;&lt;br&gt;ctg13 66&lt;br&gt;Location: 77970 - 78783" locus_tag="ctg13_66" class="clusterblast-orf" id="dummy-1_q2_0_all"  />
<polygon points="272,40 290,40 295,35 290,30 272,30 272,40 " style="fill:white; stroke-width:1; stroke:black; " description="&lt;b&gt;ctg13_67&lt;/b&gt;&lt;br&gt;ctg13 67&lt;br&gt;Location: 78974 - 80315" locus_tag="ctg13_67" class="clusterblast-orf" id="dummy-1_q3_0_all"  />
<polygon points="297,35 302,30 319,30 319,40 302,40 297,35 " style="fill:white; stroke-width:1; stroke:black; " description="&lt;b&gt;ctg13_68&lt;/b&gt;&lt;br&gt;ctg13 68&lt;br&gt;Location: 80427 - 81657" locus_tag="ctg13_68" class="clusterblast-orf" id="dummy-1_q4_0_all"  />
<polygon points="322,40 333,40 338,35 333,30 322,30 322,40 " style="fill:white; stroke-width:1; stroke:black; " description="&lt;b&gt;ctg13_69&lt;/b&gt;&lt;br&gt;ctg13 69&lt;br&gt;Location: 81811 - 82741" locus_tag="ctg13_69" class="clusterblast-orf" id="dummy-1_q5_0_all"  />
<polygon points="342,40 344,40 349,35 344,30 342,30 342,40 " style="fill:white; stroke-width:1; stroke:black; " description="&lt;b&gt;ctg13_70&lt;/b&gt;&lt;br&gt;ctg13 70&lt;br&gt;Location: 82998 - 83397" locus_tag="ctg13_70" class="clusterblast-orf" id="dummy-1_q6_0_all"  />
<polygon points="352,40 363,40 368,35 363,30 352,30 352,40 " style="fill:white; stroke-width:1; stroke:black; " description="&lt;b&gt;ctg13_71&lt;/b&gt;&lt;br&gt;ctg13 71&lt;br&gt;Location: 83547 - 84447" locus_tag="ctg13_71" class="clusterblast-orf" id="dummy-1_q7_0_all"  />
<polygon points="379,35 384,30 409,30 409,40 384,40 379,35 " style="fill:#d81515; stroke-width:1; stroke:black; " description="&lt;b&gt;ctg13_72&lt;/b&gt;&lt;br&gt;ctg13 72&lt;br&gt;Location: 85103 - 86798" locus_tag="ctg13_72" class="clusterblast-orf" id="dummy-1_q8_0_all"  />
<polygon points="414,40 430,40 435,35 430,30 414,30 414,40 " style="fill:white; stroke-width:1; stroke:black; " description="&lt;b&gt;ctg13_73&lt;/b&gt;&lt;br&gt;ctg13 73&lt;br&gt;Location: 87092 - 88256" locus_tag="ctg13_73" class="clusterblast-orf" id="dummy-1_q9_0_all"  />
<polygon points="435,40 458,40 463,35 458,30 435,30 435,40 " style="fill:#15d815; stroke-width:1; stroke:black; " description="&lt;b&gt;ctg13_74&lt;/b&gt;&lt;br&gt;ctg13 74&lt;br&gt;Location: 88268 - 89876" locus_tag="ctg13_74" class="clusterblast-orf" id="dummy-1_q10_0_all"  />
<polygon points="465,40 475,40 480,35 475,30 465,30 465,40 " style="fill:white; stroke-width:1; stroke:black; " description="&lt;b&gt;ctg13_75&lt;/b&gt;&lt;br&gt;ctg13 75&lt;br&gt;Location: 89988 - 90804" locus_tag="ctg13_75" class="clusterblast-orf" id="dummy-1_q11_0_all"  />
<polygon points="480,40 509,40 514,35 509,30 480,30 480,40 " style="fill:#1515d8; stroke-width:1; stroke:black; " description="&lt;b&gt;ctg13_76&lt;/b&gt;&lt;br&gt;ctg13 76&lt;br&gt;Location: 90803 - 92753" locus_tag="ctg13_76" class="clusterblast-orf" id="dummy-1_q12_0_all"  />
<polygon points="514,35 519,30 526,30 526,40 519,40 514,35 " style="fill:white; stroke-width:1; stroke:black; " description="&lt;b&gt;ctg13_77&lt;/b&gt;&lt;br&gt;ctg13 77&lt;br&gt;Location: 92795 - 93443" locus_tag="ctg13_77" class="clusterblast-orf" id="dummy-1_q13_0_all"  />
<polygon points="528,40 529,40 534,35 529,30 528,30 528,40 " style="fill:white; stroke-width:1; stroke:black; " description="&lt;b&gt;ctg13_78&lt;/b&gt;&lt;br&gt;ctg13 78&lt;br&gt;Location: 93551 - 93914" locus_tag="ctg13_78" class="clusterblast-orf" id="dummy-1_q14_0_all"  />
<polygon points="542,35 547,30 571,30 571,40 547,40 542,35 " style="fill:white; stroke-width:1; stroke:black; " description="&lt;b&gt;ctg13_79&lt;/b&gt;&lt;br&gt;ctg13 79&lt;br&gt;Location: 94376 - 95987" locus_tag="ctg13_79" class="clusterblast-orf" id="dummy-1_q15_0_all"  />
<polygon points="571,35 574,30 574,40 571,35 " style="fill:white; stroke-width:1; stroke:black; " description="&lt;b&gt;ctg13_80&lt;/b&gt;&lt;br&gt;ctg13 80&lt;br&gt;Location: 95995 - 96163" locus_tag="ctg13_80" class="clusterblast-orf" id="dummy-1_q16_0_all"  />
</g>
<g label="BGC0001103" description="BGC0001103_c1: mycosubtilin (20% of genes show similarity), NRP+Polyketide" class="clusterblast-cluster"  >
<text x="5" y="70" class="clusterblast-acc"  >
<a xlink:href="https://mibig.secondarymetabolites.org/go/BGC0001103/1" target="_blank">BGC0001103</a>: mycosubtilin                                                                     (20% of genes show similarity), NRP+Polyketide</text>
<line x1="10" y1="85" x2="778.0" y2="85" style="stroke-width:1; stroke:grey; "  />
</g>
<g id="a1_000"  >
<polygon points="0,90 16,90 21,85 16,80 0,80 0,90 " style="fill:white; stroke-width:1; stroke:black; " description="&lt;b&gt;AAF08794.1&lt;/b&gt;&lt;br&gt;FenF&lt;br&gt;Location: 1938 - 3140" locus_tag="AAF08794.1" class="clusterblast-orf" id="dummy-1_h1_3_0"  />
</g>
<g id="a1_001"  >
<polygon points="21,90 225,90 230,85 225,80 21,80 21,90 " style="fill:white; stroke-width:1; stroke:black; " description="&lt;b&gt;AAF08795.1&lt;/b&gt;&lt;br&gt;MycA&lt;br&gt;Location: 3161 - 15076" locus_tag="AAF08795.1" class="clusterblast-orf" id="dummy-1_h1_3_1"  />
</g>
<g id="a1_002"  >
<polygon points="231,90 509,90 514,85 509,80 231,80 231,90 " style="fill:white; stroke-width:1; stroke:black; " description="&lt;b&gt;AAF08796.1&lt;/b&gt;&lt;br&gt;MycB&lt;br&gt;Location: 15133 - 31242" locus_tag="AAF08796.1" class="clusterblast-orf" id="dummy-1_h1_3_2"  />
</g>
<g id="a1_003"  >
<polygon points="516,90 649,90 654,85 649,80 516,80 516,90 " style="fill:white; stroke-width:1; stroke:black; " description="&lt;b&gt;AAF08797.1&lt;/b&gt;&lt;br&gt;MycC&lt;br&gt;Location: 31340 - 39169" locus_tag="AAF08797.1" class="clusterblast-orf" id="dummy-1_h1_3_3"  />
</g>
<g id="a1_004"  >
<polygon points="657,90 658,90 663,85 658,80 657,80 657,90 " style="fill:white; stroke-width:1; stroke:black; " description="&lt;b&gt;AAF08798.1&lt;/b&gt;&lt;br&gt;YngL&lt;br&gt;Location: 39339 - 39731" locus_tag="AAF08798.1" class="clusterblast-orf" id="dummy-1_h1_3_4"  />
</g>
<g id="a1_005"  >
<polygon points="666,90 688,90 693,85 688,80 666,80 666,90 " style="fill:white; stroke-width:1; stroke:black; " description="&lt;b&gt;AAF08799.1&lt;/b&gt;&lt;br&gt;YngK&lt;br&gt;Location: 39886 - 41418" locus_tag="AAF08799.1" class="clusterblast-orf" id="dummy-1_h1_3_5"  />
</g>
<g id="a1_006"  >
<polygon points="702,90 717,90 722,85 717,80 702,80 702,90 " style="fill:white; stroke-width:1; stroke:black; " description="&lt;b&gt;AAF08800.1&lt;/b&gt;&lt;br&gt;YngJ&lt;br&gt;Location: 41925 - 43067" locus_tag="AAF08800.1" class="clusterblast-orf" id="dummy-1_h1_3_6"  />
</g>
<g id="a1_007"  >
<polygon points="723,90 747,90 752,85 747,80 723,80 723,90 " style="fill:#d81515; stroke-width:1; stroke:black; " description="&lt;b&gt;AAF08801.1&lt;/b&gt;&lt;br&gt;YngI&lt;br&gt;Location: 43110 - 44759&lt;br&gt;&lt;br&gt;&lt;b&gt;BlastP hit with ctg13_72&lt;/b&gt;&lt;br&gt;Percentage identity: 49&lt;br&gt;Percentage coverage: 96&lt;br&gt;BLAST bit score: 539&lt;br&gt;E-value: 6.64e-188" locus_tag="AAF08801.1" class="clusterblast-orf" id="dummy-1_h1_3_7"  />
</g>
<g id="a1_008"  >
<polygon points="752,90 770,90 775,85 770,80 752,80 752,90 " style="fill:#1515d8; stroke-width:1; stroke:black; " description="&lt;b&gt;AAF08802.1&lt;/b&gt;&lt;br&gt;YngH&lt;br&gt;Location: 44769 - 46103&lt;br&gt;&lt;br&gt;&lt;b&gt;BlastP hit with ctg13_76&lt;/b&gt;&lt;br&gt;Percentage identity: 47&lt;br&gt;Percentage coverage: 68&lt;br&gt;BLAST bit score: 398&lt;br&gt;E-value: 5.21e-133" locus_tag="AAF08802.1" class="clusterblast-orf" id="dummy-1_h1_3_8"  />
</g>
<g id="a1_009"  >
<polygon points="776,90 779,85 776,80 776,90 " style="fill:white; stroke-width:1; stroke:black; " description="&lt;b&gt;AAF08803.1&lt;/b&gt;&lt;br&gt;YngXX&lt;br&gt;Location: 46118 - 46339" locus_tag="AAF08803.1" class="clusterblast-orf" id="dummy-1_h1_3_9"  />
</g>
</svg>
