<svg xmlns="http://www.w3.org/2000/svg" xmlns:xlink="http://www.w3.org/1999/xlink" version="1.1" x="0" y="0" height="50" width="800" viewBox="0 0 800 50" preserveAspectRatio="none"  >
<g label="Query sequence" class="clusterblast-cluster"  >
<text x="5" y="20" class="clusterblast-acc"  >
Query sequence</text>
<line x1="10" y1="35" x2="778.0" y2="35" style="stroke-width:1; stroke:grey; "  />
<polygon points="0,40 19,40 24,35 19,30 0,30 0,40 " style="fill:white; stroke-width:1; stroke:black; " description="&lt;b&gt;ctg29_17&lt;/b&gt;&lt;br&gt;ctg29 17&lt;br&gt;Location: 17080 - 17416" locus_tag="ctg29_17" class="clusterblast-orf" id="knownclusterblast-1_q0_0_all"  />
<polygon points="45,40 55,40 60,35 55,30 45,30 45,40 " style="fill:white; stroke-width:1; stroke:black; " description="&lt;b&gt;ctg29_18&lt;/b&gt;&lt;br&gt;ctg29 18&lt;br&gt;Location: 17707 - 17923" locus_tag="ctg29_18" class="clusterblast-orf" id="knownclusterblast-1_q1_0_all"  />
<polygon points="77,40 195,40 200,35 195,30 77,30 77,40 " style="fill:white; stroke-width:1; stroke:black; " description="&lt;b&gt;ctg29_19&lt;/b&gt;&lt;br&gt;ctg29 19&lt;br&gt;Location: 18161 - 19877" locus_tag="ctg29_19" class="clusterblast-orf" id="knownclusterblast-1_q2_0_all"  />
<polygon points="207,35 212,30 272,30 272,40 212,40 207,35 " style="fill:white; stroke-width:1; stroke:black; " description="&lt;b&gt;ctg29_20&lt;/b&gt;&lt;br&gt;ctg29 20&lt;br&gt;Location: 19972 - 20893" locus_tag="ctg29_20" class="clusterblast-orf" id="knownclusterblast-1_q3_0_all"  />
<polygon points="295,40 448,40 453,35 448,30 295,30 295,40 " style="fill:white; stroke-width:1; stroke:black; " description="&lt;b&gt;ctg29_21&lt;/b&gt;&lt;br&gt;ctg29 21&lt;br&gt;Location: 21215 - 23423" locus_tag="ctg29_21" class="clusterblast-orf" id="knownclusterblast-1_q4_0_all"  />
<polygon points="457,35 462,30 497,30 497,40 462,40 457,35 " style="fill:white; stroke-width:1; stroke:black; " description="&lt;b&gt;ctg29_22&lt;/b&gt;&lt;br&gt;ctg29 22&lt;br&gt;Location: 23470 - 24031" locus_tag="ctg29_22" class="clusterblast-orf" id="knownclusterblast-1_q5_0_all"  />
<polygon points="511,35 516,30 600,30 600,40 516,40 511,35 " style="fill:white; stroke-width:1; stroke:black; " description="&lt;b&gt;ctg29_23&lt;/b&gt;&lt;br&gt;ctg29 23&lt;br&gt;Location: 24233 - 25475" locus_tag="ctg29_23" class="clusterblast-orf" id="knownclusterblast-1_q6_0_all"  />
<polygon points="599,35 604,30 623,30 623,40 604,40 599,35 " style="fill:white; stroke-width:1; stroke:black; " description="&lt;b&gt;ctg29_24&lt;/b&gt;&lt;br&gt;ctg29 24&lt;br&gt;Location: 25471 - 25801" locus_tag="ctg29_24" class="clusterblast-orf" id="knownclusterblast-1_q7_0_all"  />
<polygon points="623,35 628,30 663,30 663,40 628,40 623,35 " style="fill:white; stroke-width:1; stroke:black; " description="&lt;b&gt;ctg29_25&lt;/b&gt;&lt;br&gt;ctg29 25&lt;br&gt;Location: 25803 - 26367" locus_tag="ctg29_25" class="clusterblast-orf" id="knownclusterblast-1_q8_0_all"  />
<polygon points="665,35 670,30 698,30 698,40 670,40 665,35 " style="fill:white; stroke-width:1; stroke:black; " description="&lt;b&gt;ctg29_26&lt;/b&gt;&lt;br&gt;ctg29 26&lt;br&gt;Location: 26396 - 26849" locus_tag="ctg29_26" class="clusterblast-orf" id="knownclusterblast-1_q9_0_all"  />
<polygon points="719,40 775,40 780,35 775,30 719,30 719,40 " style="fill:white; stroke-width:1; stroke:black; " description="&lt;b&gt;ctg29_27&lt;/b&gt;&lt;br&gt;ctg29 27&lt;br&gt;Location: 27145 - 28003" locus_tag="ctg29_27" class="clusterblast-orf" id="knownclusterblast-1_q10_0_all"  />
</g>
</svg>
