<svg xmlns="http://www.w3.org/2000/svg" xmlns:xlink="http://www.w3.org/1999/xlink" version="1.1" x="0" y="0" height="230" width="800" viewBox="0 0 800 230" preserveAspectRatio="none"  >
<g label="Query sequence" class="clusterblast-cluster"  >
<text x="5" y="20" class="clusterblast-acc"  >
Query sequence</text>
<line x1="10" y1="35" x2="778.0" y2="35" style="stroke-width:1; stroke:grey; "  />
<polygon points="225,35 230,30 251,30 251,40 230,40 225,35 " style="fill:white; stroke-width:1; stroke:black; " description="&lt;b&gt;ctg13_64&lt;/b&gt;&lt;br&gt;ctg13 64&lt;br&gt;Location: 75216 - 76908" locus_tag="ctg13_64" class="clusterblast-orf" id="dummy-1_q0_0_all"  />
<polygon points="253,35 258,30 263,30 263,40 258,40 253,35 " style="fill:white; stroke-width:1; stroke:black; " description="&lt;b&gt;ctg13_65&lt;/b&gt;&lt;br&gt;ctg13 65&lt;br&gt;Location: 77009 - 77660" locus_tag="ctg13_65" class="clusterblast-orf" id="dummy-1_q1_0_all"  />
<polygon points="268,40 276,40 281,35 276,30 268,30 268,40 " style="fill:white; stroke-width:1; stroke:black; " description="&lt;b&gt;ctg13_66&lt;/b&gt;&lt;br&gt;ctg13 66&lt;br&gt;Location: 77970 - 78783" locus_tag="ctg13_66" class="clusterblast-orf" id="dummy-1_q2_0_all"  />
<polygon points="284,40 300,40 305,35 300,30 284,30 284,40 " style="fill:white; stroke-width:1; stroke:black; " description="&lt;b&gt;ctg13_67&lt;/b&gt;&lt;br&gt;ctg13 67&lt;br&gt;Location: 78974 - 80315" locus_tag="ctg13_67" class="clusterblast-orf" id="dummy-1_q3_0_all"  />
<polygon points="307,35 312,30 326,30 326,40 312,40 307,35 " style="fill:white; stroke-width:1; stroke:black; " description="&lt;b&gt;ctg13_68&lt;/b&gt;&lt;br&gt;ctg13 68&lt;br&gt;Location: 80427 - 81657" locus_tag="ctg13_68" class="clusterblast-orf" id="dummy-1_q4_0_all"  />
<polygon points="329,40 338,40 343,35 338,30 329,30 329,40 " style="fill:white; stroke-width:1; stroke:black; " description="&lt;b&gt;ctg13_69&lt;/b&gt;&lt;br&gt;ctg13 69&lt;br&gt;Location: 81811 - 82741" locus_tag="ctg13_69" class="clusterblast-orf" id="dummy-1_q5_0_all"  />
<polygon points="347,40 349,40 354,35 349,30 347,30 347,40 " style="fill:white; stroke-width:1; stroke:black; " description="&lt;b&gt;ctg13_70&lt;/b&gt;&lt;br&gt;ctg13 70&lt;br&gt;Location: 82998 - 83397" locus_tag="ctg13_70" class="clusterblast-orf" id="dummy-1_q6_0_all"  />
<polygon points="356,40 365,40 370,35 365,30 356,30 356,40 " style="fill:white; stroke-width:1; stroke:black; " description="&lt;b&gt;ctg13_71&lt;/b&gt;&lt;br&gt;ctg13 71&lt;br&gt;Location: 83547 - 84447" locus_tag="ctg13_71" class="clusterblast-orf" id="dummy-1_q7_0_all"  />
<polygon points="380,35 385,30 407,30 407,40 385,40 380,35 " style="fill:#d81515; stroke-width:1; stroke:black; " description="&lt;b&gt;ctg13_72&lt;/b&gt;&lt;br&gt;ctg13 72&lt;br&gt;Location: 85103 - 86798" locus_tag="ctg13_72" class="clusterblast-orf" id="dummy-1_q8_0_all"  />
<polygon points="412,40 425,40 430,35 425,30 412,30 412,40 " style="fill:white; stroke-width:1; stroke:black; " description="&lt;b&gt;ctg13_73&lt;/b&gt;&lt;br&gt;ctg13 73&lt;br&gt;Location: 87092 - 88256" locus_tag="ctg13_73" class="clusterblast-orf" id="dummy-1_q9_0_all"  />
<polygon points="430,40 451,40 456,35 451,30 430,30 430,40 " style="fill:#15d815; stroke-width:1; stroke:black; " description="&lt;b&gt;ctg13_74&lt;/b&gt;&lt;br&gt;ctg13 74&lt;br&gt;Location: 88268 - 89876" locus_tag="ctg13_74" class="clusterblast-orf" id="dummy-1_q10_0_all"  />
<polygon points="457,40 465,40 470,35 465,30 457,30 457,40 " style="fill:white; stroke-width:1; stroke:black; " description="&lt;b&gt;ctg13_75&lt;/b&gt;&lt;br&gt;ctg13 75&lt;br&gt;Location: 89988 - 90804" locus_tag="ctg13_75" class="clusterblast-orf" id="dummy-1_q11_0_all"  />
<polygon points="470,40 496,40 501,35 496,30 470,30 470,40 " style="fill:#1515d8; stroke-width:1; stroke:black; " description="&lt;b&gt;ctg13_76&lt;/b&gt;&lt;br&gt;ctg13 76&lt;br&gt;Location: 90803 - 92753" locus_tag="ctg13_76" class="clusterblast-orf" id="dummy-1_q12_0_all"  />
<polygon points="502,35 507,30 512,30 512,40 507,40 502,35 " style="fill:white; stroke-width:1; stroke:black; " description="&lt;b&gt;ctg13_77&lt;/b&gt;&lt;br&gt;ctg13 77&lt;br&gt;Location: 92795 - 93443" locus_tag="ctg13_77" class="clusterblast-orf" id="dummy-1_q13_0_all"  />
<polygon points="513,40 514,40 519,35 514,30 513,30 513,40 " style="fill:white; stroke-width:1; stroke:black; " description="&lt;b&gt;ctg13_78&lt;/b&gt;&lt;br&gt;ctg13 78&lt;br&gt;Location: 93551 - 93914" locus_tag="ctg13_78" class="clusterblast-orf" id="dummy-1_q14_0_all"  />
<polygon points="526,35 531,30 552,30 552,40 531,40 526,35 " style="fill:white; stroke-width:1; stroke:black; " description="&lt;b&gt;ctg13_79&lt;/b&gt;&lt;br&gt;ctg13 79&lt;br&gt;Location: 94376 - 95987" locus_tag="ctg13_79" class="clusterblast-orf" id="dummy-1_q15_0_all"  />
<polygon points="552,35 555,30 555,40 552,35 " style="fill:white; stroke-width:1; stroke:black; " description="&lt;b&gt;ctg13_80&lt;/b&gt;&lt;br&gt;ctg13 80&lt;br&gt;Location: 95995 - 96163" locus_tag="ctg13_80" class="clusterblast-orf" id="dummy-1_q16_0_all"  />
</g>
<g label="BGC0001095" description="BGC0001095_c1: fengycin (13% of genes show similarity), NRP" class="clusterblast-cluster"  >
<text x="5" y="70" class="clusterblast-acc"  >
<a xlink:href="https://mibig.secondarymetabolites.org/go/BGC0001095/1" target="_blank">BGC0001095</a>: fengycin                                                                         (13% of genes show similarity), NRP</text>
<line x1="10" y1="85" x2="778.0" y2="85" style="stroke-width:1; stroke:grey; "  />
</g>
<g id="a1_000"  >
<polygon points="0,90 18,90 23,85 18,80 0,80 0,90 " style="fill:white; stroke-width:1; stroke:black; " description="&lt;b&gt;RBAM_018470&lt;/b&gt;&lt;br&gt;DacC&lt;br&gt;Location: 49542 - 48067" locus_tag="RBAM_018470" class="clusterblast-orf" id="dummy-1_h1_1_0"  />
</g>
<g id="a1_001"  >
<polygon points="30,90 146,90 151,85 146,80 30,80 30,90 " style="fill:white; stroke-width:1; stroke:black; " description="&lt;b&gt;RBAM_018460&lt;/b&gt;&lt;br&gt;fengycin synthetase A&lt;br&gt;Location: 47586 - 39928" locus_tag="RBAM_018460" class="clusterblast-orf" id="dummy-1_h1_1_1"  />
</g>
<g id="a1_002"  >
<polygon points="151,90 267,90 272,85 267,80 151,80 151,90 " style="fill:white; stroke-width:1; stroke:black; " description="&lt;b&gt;RBAM_018450&lt;/b&gt;&lt;br&gt;fengycin synthetase B&lt;br&gt;Location: 39902 - 32205" locus_tag="RBAM_018450" class="clusterblast-orf" id="dummy-1_h1_1_2"  />
</g>
<g id="a1_003"  >
<polygon points="273,90 388,90 393,85 388,80 273,80 273,90 " style="fill:white; stroke-width:1; stroke:black; " description="&lt;b&gt;RBAM_018440&lt;/b&gt;&lt;br&gt;fengycin synthetase C&lt;br&gt;Location: 32189 - 24540" locus_tag="RBAM_018440" class="clusterblast-orf" id="dummy-1_h1_1_3"  />
</g>
<g id="a1_004"  >
<polygon points="394,90 558,90 563,85 558,80 394,80 394,90 " style="fill:white; stroke-width:1; stroke:black; " description="&lt;b&gt;RBAM_018430&lt;/b&gt;&lt;br&gt;fengycin synthetase D&lt;br&gt;Location: 24514 - 13739" locus_tag="RBAM_018430" class="clusterblast-orf" id="dummy-1_h1_1_4"  />
</g>
<g id="a1_005"  >
<polygon points="564,90 618,90 623,85 618,80 564,80 564,90 " style="fill:white; stroke-width:1; stroke:black; " description="&lt;b&gt;RBAM_018420&lt;/b&gt;&lt;br&gt;fengycin synthetase E&lt;br&gt;Location: 13720 - 9917" locus_tag="RBAM_018420" class="clusterblast-orf" id="dummy-1_h1_1_5"  />
</g>
<g id="a1_006"  >
<polygon points="624,90 626,90 631,85 626,80 624,80 624,90 " style="fill:white; stroke-width:1; stroke:black; " description="&lt;b&gt;RBAM_018410&lt;/b&gt;&lt;br&gt;YngL&lt;br&gt;Location: 9895 - 9464" locus_tag="RBAM_018410" class="clusterblast-orf" id="dummy-1_h1_1_6"  />
</g>
<g id="a1_007"  >
<polygon points="632,90 652,90 657,85 652,80 632,80 632,90 " style="fill:white; stroke-width:1; stroke:black; " description="&lt;b&gt;RBAM_018400&lt;/b&gt;&lt;br&gt;YngK&lt;br&gt;Location: 9342 - 7804" locus_tag="RBAM_018400" class="clusterblast-orf" id="dummy-1_h1_1_7"  />
</g>
<g id="a1_008"  >
<polygon points="659,90 672,90 677,85 672,80 659,80 659,90 " style="fill:white; stroke-width:1; stroke:black; " description="&lt;b&gt;RBAM_018390&lt;/b&gt;&lt;br&gt;YngJ&lt;br&gt;Location: 7664 - 6522" locus_tag="RBAM_018390" class="clusterblast-orf" id="dummy-1_h1_1_8"  />
</g>
<g id="a1_009"  >
<polygon points="678,90 698,90 703,85 698,80 678,80 678,90 " style="fill:#d81515; stroke-width:1; stroke:black; " description="&lt;b&gt;RBAM_018380&lt;/b&gt;&lt;br&gt;YngI&lt;br&gt;Location: 6476 - 4836&lt;br&gt;&lt;br&gt;&lt;b&gt;BlastP hit with ctg13_72&lt;/b&gt;&lt;br&gt;Percentage identity: 48&lt;br&gt;Percentage coverage: 96&lt;br&gt;BLAST bit score: 541&lt;br&gt;E-value: 7.41e-189" locus_tag="RBAM_018380" class="clusterblast-orf" id="dummy-1_h1_1_9"  />
</g>
<g id="a1_0010"  >
<polygon points="704,90 720,90 725,85 720,80 704,80 704,90 " style="fill:#1515d8; stroke-width:1; stroke:black; " description="&lt;b&gt;RBAM_018370&lt;/b&gt;&lt;br&gt;YngH&lt;br&gt;Location: 4814 - 3465&lt;br&gt;&lt;br&gt;&lt;b&gt;BlastP hit with ctg13_76&lt;/b&gt;&lt;br&gt;Percentage identity: 49&lt;br&gt;Percentage coverage: 68&lt;br&gt;BLAST bit score: 418&lt;br&gt;E-value: 9.5e-141" locus_tag="RBAM_018370" class="clusterblast-orf" id="dummy-1_h1_1_10"  />
</g>
<g id="a1_0011"  >
<polygon points="725,90 728,85 725,80 725,90 " style="fill:white; stroke-width:1; stroke:black; " description="&lt;b&gt;RBAM_018360&lt;/b&gt;&lt;br&gt;hypothetical protein&lt;br&gt;Location: 3468 - 3256" locus_tag="RBAM_018360" class="clusterblast-orf" id="dummy-1_h1_1_11"  />
</g>
<g id="a1_0012"  >
<polygon points="729,90 738,90 743,85 738,80 729,80 729,90 " style="fill:white; stroke-width:1; stroke:black; " description="&lt;b&gt;RBAM_018350&lt;/b&gt;&lt;br&gt;YngG&lt;br&gt;Location: 3240 - 2341" locus_tag="RBAM_018350" class="clusterblast-orf" id="dummy-1_h1_1_12"  />
</g>
<g id="a1_0013"  >
<polygon points="743,90 750,90 755,85 750,80 743,80 743,90 " style="fill:white; stroke-width:1; stroke:black; " description="&lt;b&gt;RBAM_018340&lt;/b&gt;&lt;br&gt;YngF&lt;br&gt;Location: 2327 - 1548" locus_tag="RBAM_018340" class="clusterblast-orf" id="dummy-1_h1_1_13"  />
</g>
<g id="a1_0014"  >
<polygon points="755,90 775,90 780,85 775,80 755,80 755,90 " style="fill:white; stroke-width:1; stroke:black; " description="&lt;b&gt;RBAM_018330&lt;/b&gt;&lt;br&gt;YngE&lt;br&gt;Location: 1530 - 1" locus_tag="RBAM_018330" class="clusterblast-orf" id="dummy-1_h1_1_14"  />
</g>
</svg>
