<svg xmlns="http://www.w3.org/2000/svg" xmlns:xlink="http://www.w3.org/1999/xlink" version="1.1" x="0" y="0" height="230" width="800" viewBox="0 0 800 230" preserveAspectRatio="none"  >
<g label="Query sequence" class="clusterblast-cluster"  >
<text x="5" y="20" class="clusterblast-acc"  >
Query sequence</text>
<line x1="10" y1="35" x2="778.0" y2="35" style="stroke-width:1; stroke:grey; "  />
<polygon points="197,40 270,40 275,35 270,30 197,30 197,40 " style="fill:#d81515; stroke-width:1; stroke:black; " description="&lt;b&gt;ctg36_1&lt;/b&gt;&lt;br&gt;ctg36 1&lt;br&gt;Location: 1 - 6997" locus_tag="ctg36_1" class="clusterblast-orf" id="dummy-1_q0_0_all"  />
<polygon points="275,40 363,40 368,35 363,30 275,30 275,40 " style="fill:#d81515; stroke-width:1; stroke:black; " description="&lt;b&gt;ctg36_2&lt;/b&gt;&lt;br&gt;ctg36 2&lt;br&gt;Location: 6993 - 15294" locus_tag="ctg36_2" class="clusterblast-orf" id="dummy-1_q1_0_all"  />
<polygon points="369,40 377,40 382,35 377,30 369,30 369,40 " style="fill:#77d815; stroke-width:1; stroke:black; " description="&lt;b&gt;ctg36_3&lt;/b&gt;&lt;br&gt;ctg36 3&lt;br&gt;Location: 15376 - 16525" locus_tag="ctg36_3" class="clusterblast-orf" id="dummy-1_q2_0_all"  />
<polygon points="382,40 399,40 404,35 399,30 382,30 382,40 " style="fill:#15d8d8; stroke-width:1; stroke:black; " description="&lt;b&gt;ctg36_4&lt;/b&gt;&lt;br&gt;ctg36 4&lt;br&gt;Location: 16521 - 18486" locus_tag="ctg36_4" class="clusterblast-orf" id="dummy-1_q3_0_all"  />
<polygon points="405,35 410,30 413,30 413,40 410,40 405,35 " style="fill:#7715d8; stroke-width:1; stroke:black; " description="&lt;b&gt;ctg36_5&lt;/b&gt;&lt;br&gt;ctg36 5&lt;br&gt;Location: 18627 - 19344" locus_tag="ctg36_5" class="clusterblast-orf" id="dummy-1_q4_0_all"  />
<polygon points="422,40 427,40 432,35 427,30 422,30 422,40 " style="fill:white; stroke-width:1; stroke:black; " description="&lt;b&gt;ctg36_6&lt;/b&gt;&lt;br&gt;ctg36 6&lt;br&gt;Location: 20105 - 21047" locus_tag="ctg36_6" class="clusterblast-orf" id="dummy-1_q5_0_all"  />
<polygon points="434,40 436,35 434,30 434,40 " style="fill:white; stroke-width:1; stroke:black; " description="&lt;b&gt;ctg36_7&lt;/b&gt;&lt;br&gt;ctg36 7&lt;br&gt;Location: 21189 - 21396" locus_tag="ctg36_7" class="clusterblast-orf" id="dummy-1_q6_0_all"  />
<polygon points="437,40 442,40 447,35 442,30 437,30 437,40 " style="fill:white; stroke-width:1; stroke:black; " description="&lt;b&gt;ctg36_8&lt;/b&gt;&lt;br&gt;ctg36 8&lt;br&gt;Location: 21464 - 22394" locus_tag="ctg36_8" class="clusterblast-orf" id="dummy-1_q7_0_all"  />
<polygon points="448,40 452,35 448,30 448,40 " style="fill:white; stroke-width:1; stroke:black; " description="&lt;b&gt;ctg36_9&lt;/b&gt;&lt;br&gt;ctg36 9&lt;br&gt;Location: 22426 - 22783" locus_tag="ctg36_9" class="clusterblast-orf" id="dummy-1_q8_0_all"  />
<polygon points="452,40 456,40 461,35 456,30 452,30 452,40 " style="fill:white; stroke-width:1; stroke:black; " description="&lt;b&gt;ctg36_10&lt;/b&gt;&lt;br&gt;ctg36 10&lt;br&gt;Location: 22822 - 23587" locus_tag="ctg36_10" class="clusterblast-orf" id="dummy-1_q9_0_all"  />
<polygon points="461,40 463,40 468,35 463,30 461,30 461,40 " style="fill:white; stroke-width:1; stroke:black; " description="&lt;b&gt;ctg36_11&lt;/b&gt;&lt;br&gt;ctg36 11&lt;br&gt;Location: 23583 - 24210" locus_tag="ctg36_11" class="clusterblast-orf" id="dummy-1_q10_0_all"  />
<polygon points="467,40 469,40 474,35 469,30 467,30 467,40 " style="fill:white; stroke-width:1; stroke:black; " description="&lt;b&gt;ctg36_12&lt;/b&gt;&lt;br&gt;ctg36 12&lt;br&gt;Location: 24181 - 24754" locus_tag="ctg36_12" class="clusterblast-orf" id="dummy-1_q11_0_all"  />
<polygon points="475,40 478,35 475,30 475,40 " style="fill:white; stroke-width:1; stroke:black; " description="&lt;b&gt;ctg36_13&lt;/b&gt;&lt;br&gt;ctg36 13&lt;br&gt;Location: 24872 - 25094" locus_tag="ctg36_13" class="clusterblast-orf" id="dummy-1_q12_0_all"  />
<polygon points="477,40 477,40 482,35 477,30 477,30 477,40 " style="fill:white; stroke-width:1; stroke:black; " description="&lt;b&gt;ctg36_14&lt;/b&gt;&lt;br&gt;ctg36 14&lt;br&gt;Location: 25080 - 25491" locus_tag="ctg36_14" class="clusterblast-orf" id="dummy-1_q13_0_all"  />
<polygon points="482,40 499,40 504,35 499,30 482,30 482,40 " style="fill:white; stroke-width:1; stroke:black; " description="&lt;b&gt;ctg36_15&lt;/b&gt;&lt;br&gt;ctg36 15&lt;br&gt;Location: 25483 - 27490" locus_tag="ctg36_15" class="clusterblast-orf" id="dummy-1_q14_0_all"  />
<polygon points="506,40 508,35 506,30 506,40 " style="fill:white; stroke-width:1; stroke:black; " description="&lt;b&gt;ctg36_16&lt;/b&gt;&lt;br&gt;ctg36 16&lt;br&gt;Location: 27608 - 27803" locus_tag="ctg36_16" class="clusterblast-orf" id="dummy-1_q15_0_all"  />
<polygon points="508,40 512,35 508,30 508,40 " style="fill:white; stroke-width:1; stroke:black; " description="&lt;b&gt;ctg36_17&lt;/b&gt;&lt;br&gt;ctg36 17&lt;br&gt;Location: 27795 - 28146" locus_tag="ctg36_17" class="clusterblast-orf" id="dummy-1_q16_0_all"  />
<polygon points="513,40 517,35 513,30 513,40 " style="fill:white; stroke-width:1; stroke:black; " description="&lt;b&gt;ctg36_18&lt;/b&gt;&lt;br&gt;ctg36 18&lt;br&gt;Location: 28246 - 28645" locus_tag="ctg36_18" class="clusterblast-orf" id="dummy-1_q17_0_all"  />
<polygon points="518,35 523,30 524,30 524,40 523,40 518,35 " style="fill:white; stroke-width:1; stroke:black; " description="&lt;b&gt;ctg36_19&lt;/b&gt;&lt;br&gt;ctg36 19&lt;br&gt;Location: 28735 - 29275" locus_tag="ctg36_19" class="clusterblast-orf" id="dummy-1_q18_0_all"  />
<polygon points="527,35 532,30 582,30 582,40 532,40 527,35 " style="fill:white; stroke-width:1; stroke:black; " description="&lt;b&gt;ctg36_20&lt;/b&gt;&lt;br&gt;ctg36 20&lt;br&gt;Location: 29490 - 34464" locus_tag="ctg36_20" class="clusterblast-orf" id="dummy-1_q19_0_all"  />
</g>
<g label="BGC0000425" description="BGC0000425_c1: sessilin A (55% of genes show similarity), NRP:Cyclic depsipeptide" class="clusterblast-cluster"  >
<text x="5" y="70" class="clusterblast-acc"  >
<a xlink:href="https://mibig.secondarymetabolites.org/go/BGC0000425/1" target="_blank">BGC0000425</a>: sessilin A                                                                       (55% of genes show similarity), NRP:Cyclic depsipeptide</text>
<line x1="10" y1="85" x2="778.0" y2="85" style="stroke-width:1; stroke:grey; "  />
</g>
<g id="a1_000"  >
<polygon points="0,85 5,80 16,80 16,90 5,90 0,85 " style="fill:white; stroke-width:1; stroke:black; " description="&lt;b&gt;AFH75317.1&lt;/b&gt;&lt;br&gt;outer membrane efflux protein&lt;br&gt;Location: 20 - 1459" locus_tag="AFH75317.1" class="clusterblast-orf" id="dummy-1_h1_8_0"  />
</g>
<g id="a1_001"  >
<polygon points="16,85 21,80 25,80 25,90 21,90 16,85 " style="fill:white; stroke-width:1; stroke:black; " description="&lt;b&gt;AFH75318.1&lt;/b&gt;&lt;br&gt;LuxR family transcriptional regulator&lt;br&gt;Location: 1522 - 2337" locus_tag="AFH75318.1" class="clusterblast-orf" id="dummy-1_h1_8_1"  />
</g>
<g id="a1_002"  >
<polygon points="29,90 43,90 48,85 43,80 29,80 29,90 " style="fill:white; stroke-width:1; stroke:black; " description="&lt;b&gt;AFH75319.1&lt;/b&gt;&lt;br&gt;cyclic peptide transporter&lt;br&gt;Location: 2647 - 4344" locus_tag="AFH75319.1" class="clusterblast-orf" id="dummy-1_h1_8_2"  />
</g>
<g id="a1_003"  >
<polygon points="53,90 263,90 268,85 263,80 53,80 53,90 " style="fill:#d81515; stroke-width:1; stroke:black; " description="&lt;b&gt;AFH75320.1&lt;/b&gt;&lt;br&gt;nonribosomal peptide synthetase&lt;br&gt;Location: 4806 - 24047&lt;br&gt;&lt;br&gt;&lt;b&gt;BlastP hit with ctg36_1&lt;/b&gt;&lt;br&gt;Percentage identity: 60&lt;br&gt;Percentage coverage: 100&lt;br&gt;BLAST bit score: 2721&lt;br&gt;E-value: 0.0&lt;br&gt;&lt;br&gt;&lt;b&gt;BlastP hit with ctg36_2&lt;/b&gt;&lt;br&gt;Percentage identity: 53&lt;br&gt;Percentage coverage: 80&lt;br&gt;BLAST bit score: 2064&lt;br&gt;E-value: 0.0" locus_tag="AFH75320.1" class="clusterblast-orf" id="dummy-1_h1_8_3"  />
</g>
<g id="a1_004"  >
<polygon points="268,90 480,90 485,85 480,80 268,80 268,90 " style="fill:#d81515; stroke-width:1; stroke:black; " description="&lt;b&gt;AFH75321.1&lt;/b&gt;&lt;br&gt;nonribosomal peptide synthetase&lt;br&gt;Location: 24044 - 43444&lt;br&gt;&lt;br&gt;&lt;b&gt;BlastP hit with ctg36_1&lt;/b&gt;&lt;br&gt;Percentage identity: 58&lt;br&gt;Percentage coverage: 100&lt;br&gt;BLAST bit score: 2581&lt;br&gt;E-value: 0.0&lt;br&gt;&lt;br&gt;&lt;b&gt;BlastP hit with ctg36_2&lt;/b&gt;&lt;br&gt;Percentage identity: 50&lt;br&gt;Percentage coverage: 90&lt;br&gt;BLAST bit score: 2181&lt;br&gt;E-value: 0.0" locus_tag="AFH75321.1" class="clusterblast-orf" id="dummy-1_h1_8_4"  />
</g>
<g id="a1_005"  >
<polygon points="490,90 722,90 727,85 722,80 490,80 490,90 " style="fill:#d81515; stroke-width:1; stroke:black; " description="&lt;b&gt;AFH75322.1&lt;/b&gt;&lt;br&gt;nonribosomal peptide synthetase&lt;br&gt;Location: 43822 - 64995&lt;br&gt;&lt;br&gt;&lt;b&gt;BlastP hit with ctg36_1&lt;/b&gt;&lt;br&gt;Percentage identity: 54&lt;br&gt;Percentage coverage: 102&lt;br&gt;BLAST bit score: 2315&lt;br&gt;E-value: 0.0&lt;br&gt;&lt;br&gt;&lt;b&gt;BlastP hit with ctg36_2&lt;/b&gt;&lt;br&gt;Percentage identity: 53&lt;br&gt;Percentage coverage: 78&lt;br&gt;BLAST bit score: 2049&lt;br&gt;E-value: 0.0" locus_tag="AFH75322.1" class="clusterblast-orf" id="dummy-1_h1_8_5"  />
</g>
<g id="a1_006"  >
<polygon points="728,90 736,90 741,85 736,80 728,80 728,90 " style="fill:#77d815; stroke-width:1; stroke:black; " description="&lt;b&gt;AFH75323.1&lt;/b&gt;&lt;br&gt;macrolide-specific efflux protein&lt;br&gt;Location: 65117 - 66268&lt;br&gt;&lt;br&gt;&lt;b&gt;BlastP hit with ctg36_3&lt;/b&gt;&lt;br&gt;Percentage identity: 82&lt;br&gt;Percentage coverage: 100&lt;br&gt;BLAST bit score: 588&lt;br&gt;E-value: 7.47e-213" locus_tag="AFH75323.1" class="clusterblast-orf" id="dummy-1_h1_8_6"  />
</g>
<g id="a1_007"  >
<polygon points="741,90 758,90 763,85 758,80 741,80 741,90 " style="fill:#15d8d8; stroke-width:1; stroke:black; " description="&lt;b&gt;AFH75324.1&lt;/b&gt;&lt;br&gt;macrolide export ATP-binding/permease protein MacB&lt;br&gt;Location: 66271 - 68229&lt;br&gt;&lt;br&gt;&lt;b&gt;BlastP hit with ctg36_4&lt;/b&gt;&lt;br&gt;Percentage identity: 80&lt;br&gt;Percentage coverage: 100&lt;br&gt;BLAST bit score: 990&lt;br&gt;E-value: 0.0" locus_tag="AFH75324.1" class="clusterblast-orf" id="dummy-1_h1_8_7"  />
</g>
<g id="a1_008"  >
<polygon points="764,85 769,80 780,80 780,90 769,90 764,85 " style="fill:white; stroke-width:1; stroke:black; " description="&lt;b&gt;AFH75325.1&lt;/b&gt;&lt;br&gt;diaminobutyrate-2-oxoglutarate aminotransferase&lt;br&gt;Location: 68337 - 69722" locus_tag="AFH75325.1" class="clusterblast-orf" id="dummy-1_h1_8_8"  />
</g>
</svg>
