<svg xmlns="http://www.w3.org/2000/svg" xmlns:xlink="http://www.w3.org/1999/xlink" version="1.1" x="0" y="0" height="400" width="800" viewBox="0 0 800 400" preserveAspectRatio="none"  >
<g label="Query sequence" class="clusterblast-cluster"  >
<text x="5" y="20" class="clusterblast-acc"  >
Query sequence</text>
<line x1="10" y1="35" x2="778.0" y2="35" style="stroke-width:1; stroke:grey; "  />
<polygon points="1,40 33,40 38,35 33,30 1,30 1,40 " style="fill:white; stroke-width:1; stroke:black; " description="&lt;b&gt;ctg39_1&lt;/b&gt;&lt;br&gt;ctg39 1&lt;br&gt;Location: 272 - 2324" locus_tag="ctg39_1" class="clusterblast-orf" id="knownclusterblast-1_q0_0_all"  />
<polygon points="38,40 60,40 65,35 60,30 38,30 38,40 " style="fill:white; stroke-width:1; stroke:black; " description="&lt;b&gt;ctg39_2&lt;/b&gt;&lt;br&gt;ctg39 2&lt;br&gt;Location: 2334 - 3789" locus_tag="ctg39_2" class="clusterblast-orf" id="knownclusterblast-1_q1_0_all"  />
<polygon points="66,40 94,40 99,35 94,30 66,30 66,40 " style="fill:white; stroke-width:1; stroke:black; " description="&lt;b&gt;ctg39_3&lt;/b&gt;&lt;br&gt;ctg39 3&lt;br&gt;Location: 3838 - 5611" locus_tag="ctg39_3" class="clusterblast-orf" id="knownclusterblast-1_q2_0_all"  />
<polygon points="108,35 113,30 129,30 129,40 113,40 108,35 " style="fill:white; stroke-width:1; stroke:black; " description="&lt;b&gt;ctg39_4&lt;/b&gt;&lt;br&gt;ctg39 4&lt;br&gt;Location: 6127 - 7261" locus_tag="ctg39_4" class="clusterblast-orf" id="knownclusterblast-1_q3_0_all"  />
<polygon points="133,35 138,30 139,30 139,40 138,40 133,35 " style="fill:white; stroke-width:1; stroke:black; " description="&lt;b&gt;ctg39_5&lt;/b&gt;&lt;br&gt;ctg39 5&lt;br&gt;Location: 7492 - 7843" locus_tag="ctg39_5" class="clusterblast-orf" id="knownclusterblast-1_q4_0_all"  />
<polygon points="139,35 144,30 169,30 169,40 144,40 139,35 " style="fill:white; stroke-width:1; stroke:black; " description="&lt;b&gt;ctg39_6&lt;/b&gt;&lt;br&gt;ctg39 6&lt;br&gt;Location: 7820 - 9464" locus_tag="ctg39_6" class="clusterblast-orf" id="knownclusterblast-1_q5_0_all"  />
<polygon points="173,40 187,40 192,35 187,30 173,30 173,40 " style="fill:white; stroke-width:1; stroke:black; " description="&lt;b&gt;ctg39_7&lt;/b&gt;&lt;br&gt;ctg39 7&lt;br&gt;Location: 9674 - 10724" locus_tag="ctg39_7" class="clusterblast-orf" id="knownclusterblast-1_q6_0_all"  />
<polygon points="196,40 224,40 229,35 224,30 196,30 196,40 " style="fill:white; stroke-width:1; stroke:black; " description="&lt;b&gt;ctg39_8&lt;/b&gt;&lt;br&gt;ctg39 8&lt;br&gt;Location: 10933 - 12733" locus_tag="ctg39_8" class="clusterblast-orf" id="knownclusterblast-1_q7_0_all"  />
<polygon points="230,40 250,40 255,35 250,30 230,30 230,40 " style="fill:white; stroke-width:1; stroke:black; " description="&lt;b&gt;ctg39_9&lt;/b&gt;&lt;br&gt;ctg39 9&lt;br&gt;Location: 12765 - 14130" locus_tag="ctg39_9" class="clusterblast-orf" id="knownclusterblast-1_q8_0_all"  />
<polygon points="259,40 273,40 278,35 273,30 259,30 259,40 " style="fill:white; stroke-width:1; stroke:black; " description="&lt;b&gt;ctg39_10&lt;/b&gt;&lt;br&gt;ctg39 10&lt;br&gt;Location: 14349 - 15378" locus_tag="ctg39_10" class="clusterblast-orf" id="knownclusterblast-1_q9_0_all"  />
<polygon points="278,40 318,40 323,35 318,30 278,30 278,40 " style="fill:white; stroke-width:1; stroke:black; " description="&lt;b&gt;ctg39_11&lt;/b&gt;&lt;br&gt;ctg39 11&lt;br&gt;Location: 15402 - 17835" locus_tag="ctg39_11" class="clusterblast-orf" id="knownclusterblast-1_q10_0_all"  />
<polygon points="333,40 494,40 499,35 494,30 333,30 333,40 " style="fill:#d81515; stroke-width:1; stroke:black; " description="&lt;b&gt;ctg39_12&lt;/b&gt;&lt;br&gt;ctg39 12&lt;br&gt;Location: 18403 - 27433" locus_tag="ctg39_12" class="clusterblast-orf" id="knownclusterblast-1_q11_0_all"  />
<polygon points="499,40 571,40 576,35 571,30 499,30 499,40 " style="fill:#15d863; stroke-width:1; stroke:black; " description="&lt;b&gt;ctg39_13&lt;/b&gt;&lt;br&gt;ctg39 13&lt;br&gt;Location: 27429 - 31638" locus_tag="ctg39_13" class="clusterblast-orf" id="knownclusterblast-1_q12_0_all"  />
<polygon points="576,40 738,40 743,35 738,30 576,30 576,40 " style="fill:#1563d8; stroke-width:1; stroke:black; " description="&lt;b&gt;ctg39_14&lt;/b&gt;&lt;br&gt;ctg39 14&lt;br&gt;Location: 31634 - 40778" locus_tag="ctg39_14" class="clusterblast-orf" id="knownclusterblast-1_q13_0_all"  />
<polygon points="743,40 751,40 756,35 751,30 743,30 743,40 " style="fill:white; stroke-width:1; stroke:black; " description="&lt;b&gt;ctg39_15&lt;/b&gt;&lt;br&gt;ctg39 15&lt;br&gt;Location: 40767 - 41469" locus_tag="ctg39_15" class="clusterblast-orf" id="knownclusterblast-1_q14_0_all"  />
<polygon points="756,40 760,35 756,30 756,40 " style="fill:#b115d8; stroke-width:1; stroke:black; " description="&lt;b&gt;ctg39_16&lt;/b&gt;&lt;br&gt;ctg39 16&lt;br&gt;Location: 41461 - 41659" locus_tag="ctg39_16" class="clusterblast-orf" id="knownclusterblast-1_q15_0_all"  />
<polygon points="763,40 774,40 779,35 774,30 763,30 763,40 " style="fill:#b1d815; stroke-width:1; stroke:black; " description="&lt;b&gt;ctg39_17&lt;/b&gt;&lt;br&gt;ctg39 17&lt;br&gt;Location: 41833 - 42703" locus_tag="ctg39_17" class="clusterblast-orf" id="knownclusterblast-1_q16_0_all"  />
</g>
<g label="BGC0002503" description="BGC0002503_c1: chitinimide B/chitinimide F/chitinimide D/chitinimide A/chitin... (41% of genes show similarity), NRP+Polyketide" class="clusterblast-cluster"  >
<text x="5" y="70" class="clusterblast-acc"  >
<a xlink:href="https://mibig.secondarymetabolites.org/go/BGC0002503/1" target="_blank">BGC0002503</a>: chitinimide B/chitinimide F/chitinimide D/chitinimide A/chitinimide C/chitinimide E/chitinimide G (41% of genes show similarity), NRP+Polyketide</text>
<line x1="10" y1="85" x2="778.0" y2="85" style="stroke-width:1; stroke:grey; "  />
</g>
<g id="a1_000"  >
<polygon points="0,90 4,85 0,80 0,90 " style="fill:#b115d8; stroke-width:1; stroke:black; " description="&lt;b&gt;QPB41095.1&lt;/b&gt;&lt;br&gt;MbtH family NRPS accessory protein&lt;br&gt;Location: 3125 - 3373&lt;br&gt;&lt;br&gt;&lt;b&gt;BlastP hit with ctg39_16&lt;/b&gt;&lt;br&gt;Percentage identity: 61&lt;br&gt;Percentage coverage: 86&lt;br&gt;BLAST bit score: 84&lt;br&gt;E-value: 2.62e-23" locus_tag="QPB41095.1" class="clusterblast-orf" id="knownclusterblast-1_all_1_1_0"  />
</g>
<g id="a1_001"  >
<polygon points="9,90 156,90 161,85 156,80 9,80 9,90 " style="fill:white; stroke-width:1; stroke:black; " description="&lt;b&gt;QPB41096.1&lt;/b&gt;&lt;br&gt;non-ribosomal peptide synthetase&lt;br&gt;Location: 3636 - 11924" locus_tag="QPB41096.1" class="clusterblast-orf" id="knownclusterblast-1_all_1_1_1"  />
</g>
<g id="a1_002"  >
<polygon points="161,90 408,90 413,85 408,80 161,80 161,90 " style="fill:#d81515; stroke-width:1; stroke:black; " description="&lt;b&gt;QPB41097.1&lt;/b&gt;&lt;br&gt;non-ribosomal peptide synthetase&lt;br&gt;Location: 11953 - 25668&lt;br&gt;&lt;br&gt;&lt;b&gt;BlastP hit with ctg39_12&lt;/b&gt;&lt;br&gt;Percentage identity: 62&lt;br&gt;Percentage coverage: 100&lt;br&gt;BLAST bit score: 3554&lt;br&gt;E-value: 0.0" locus_tag="QPB41097.1" class="clusterblast-orf" id="knownclusterblast-1_all_1_1_2"  />
</g>
<g id="a1_003"  >
<polygon points="413,90 484,90 489,85 484,80 413,80 413,90 " style="fill:#15d863; stroke-width:1; stroke:black; " description="&lt;b&gt;QPB41098.1&lt;/b&gt;&lt;br&gt;non-ribosomal peptide synthetase&lt;br&gt;Location: 25665 - 29813&lt;br&gt;&lt;br&gt;&lt;b&gt;BlastP hit with ctg39_13&lt;/b&gt;&lt;br&gt;Percentage identity: 52&lt;br&gt;Percentage coverage: 101&lt;br&gt;BLAST bit score: 1300&lt;br&gt;E-value: 0.0" locus_tag="QPB41098.1" class="clusterblast-orf" id="knownclusterblast-1_all_1_1_3"  />
</g>
<g id="a1_004"  >
<polygon points="489,90 655,90 660,85 655,80 489,80 489,90 " style="fill:#1563d8; stroke-width:1; stroke:black; " description="&lt;b&gt;QPB41099.1&lt;/b&gt;&lt;br&gt;non-ribosomal peptide synthetase&lt;br&gt;Location: 29813 - 39121&lt;br&gt;&lt;br&gt;&lt;b&gt;BlastP hit with ctg39_14&lt;/b&gt;&lt;br&gt;Percentage identity: 51&lt;br&gt;Percentage coverage: 103&lt;br&gt;BLAST bit score: 2714&lt;br&gt;E-value: 0.0" locus_tag="QPB41099.1" class="clusterblast-orf" id="knownclusterblast-1_all_1_1_4"  />
</g>
<g id="a1_005"  >
<polygon points="669,90 681,90 686,85 681,80 669,80 669,90 " style="fill:white; stroke-width:1; stroke:black; " description="&lt;b&gt;QPB41100.1&lt;/b&gt;&lt;br&gt;sterol desaturase family protein&lt;br&gt;Location: 39649 - 40542" locus_tag="QPB41100.1" class="clusterblast-orf" id="knownclusterblast-1_all_1_1_5"  />
</g>
<g id="a1_006"  >
<polygon points="686,90 694,90 699,85 694,80 686,80 686,90 " style="fill:white; stroke-width:1; stroke:black; " description="&lt;b&gt;QPB41101.1&lt;/b&gt;&lt;br&gt;4'-phosphopantetheinyl transferase superfamily protein&lt;br&gt;Location: 40539 - 41264" locus_tag="QPB41101.1" class="clusterblast-orf" id="knownclusterblast-1_all_1_1_6"  />
</g>
<g id="a1_007"  >
<polygon points="700,90 710,90 715,85 710,80 700,80 700,90 " style="fill:white; stroke-width:1; stroke:black; " description="&lt;b&gt;QPB41102.1&lt;/b&gt;&lt;br&gt;thioesterase/alpha/beta fold hydrolase&lt;br&gt;Location: 41330 - 42115" locus_tag="QPB41102.1" class="clusterblast-orf" id="knownclusterblast-1_all_1_1_7"  />
</g>
<g id="a1_008"  >
<polygon points="714,90 729,90 734,85 729,80 714,80 714,90 " style="fill:white; stroke-width:1; stroke:black; " description="&lt;b&gt;QPB41103.1&lt;/b&gt;&lt;br&gt;GSCFA domain-containing protein&lt;br&gt;Location: 42112 - 43167" locus_tag="QPB41103.1" class="clusterblast-orf" id="knownclusterblast-1_all_1_1_8"  />
</g>
<g id="a1_009"  >
<polygon points="735,90 743,90 748,85 743,80 735,80 735,90 " style="fill:white; stroke-width:1; stroke:black; " description="&lt;b&gt;QPB41104.1&lt;/b&gt;&lt;br&gt;hypothetical protein&lt;br&gt;Location: 43240 - 43947" locus_tag="QPB41104.1" class="clusterblast-orf" id="knownclusterblast-1_all_1_1_9"  />
</g>
<g id="a1_0010"  >
<polygon points="750,90 761,90 766,85 761,80 750,80 750,90 " style="fill:#b1d815; stroke-width:1; stroke:black; " description="&lt;b&gt;QPB41105.1&lt;/b&gt;&lt;br&gt;taurine dioxygenase&lt;br&gt;Location: 44059 - 44934&lt;br&gt;&lt;br&gt;&lt;b&gt;BlastP hit with ctg39_17&lt;/b&gt;&lt;br&gt;Percentage identity: 68&lt;br&gt;Percentage coverage: 100&lt;br&gt;BLAST bit score: 413&lt;br&gt;E-value: 1.79e-146" locus_tag="QPB41105.1" class="clusterblast-orf" id="knownclusterblast-1_all_1_1_10"  />
</g>
<g id="a1_0011"  >
<polygon points="768,85 773,80 780,80 780,90 773,90 768,85 " style="fill:white; stroke-width:1; stroke:black; " description="&lt;b&gt;QPB41106.1&lt;/b&gt;&lt;br&gt;hypothetical protein&lt;br&gt;Location: 45054 - 45659" locus_tag="QPB41106.1" class="clusterblast-orf" id="knownclusterblast-1_all_1_1_11"  />
</g>
<g label="BGC0001878" description="BGC0001878_c1: detoxin N2/detoxin N3 (60% of genes show similarity), NRP+Polyketide" class="clusterblast-cluster"  >
<text x="5" y="120" class="clusterblast-acc"  >
<a xlink:href="https://mibig.secondarymetabolites.org/go/BGC0001878/1" target="_blank">BGC0001878</a>: detoxin N2/detoxin N3                                                            (60% of genes show similarity), NRP+Polyketide</text>
<line x1="10" y1="135" x2="778.0" y2="135" style="stroke-width:1; stroke:grey; "  />
</g>
<g id="a1_000"  >
<polygon points="245,140 311,140 316,135 311,130 245,130 245,140 " style="fill:#15d863; stroke-width:1; stroke:black; " description="&lt;b&gt;DAC80528.1&lt;/b&gt;&lt;br&gt;peptide synthetase&lt;br&gt;Location: 38 - 3898&lt;br&gt;&lt;br&gt;&lt;b&gt;BlastP hit with ctg39_13&lt;/b&gt;&lt;br&gt;Percentage identity: 46&lt;br&gt;Percentage coverage: 94&lt;br&gt;BLAST bit score: 1021&lt;br&gt;E-value: 0.0" locus_tag="DAC80528.1" class="clusterblast-orf" id="knownclusterblast-1_all_1_2_0"  />
</g>
<g id="a1_001"  >
<polygon points="316,140 479,140 484,135 479,130 316,130 316,140 " style="fill:#1563d8; stroke-width:1; stroke:black; " description="&lt;b&gt;DAC80529.1&lt;/b&gt;&lt;br&gt;malonyl CoA-acyl carrier protein transacylase&lt;br&gt;Location: 3895 - 13038&lt;br&gt;&lt;br&gt;&lt;b&gt;BlastP hit with ctg39_14&lt;/b&gt;&lt;br&gt;Percentage identity: 50&lt;br&gt;Percentage coverage: 101&lt;br&gt;BLAST bit score: 2651&lt;br&gt;E-value: 0.0" locus_tag="DAC80529.1" class="clusterblast-orf" id="knownclusterblast-1_all_1_2_1"  />
</g>
<g id="a1_002"  >
<polygon points="484,140 499,140 504,135 499,130 484,130 484,140 " style="fill:white; stroke-width:1; stroke:black; " description="&lt;b&gt;DAC80530.1&lt;/b&gt;&lt;br&gt;hypothetical protein&lt;br&gt;Location: 13069 - 14124" locus_tag="DAC80530.1" class="clusterblast-orf" id="knownclusterblast-1_all_1_2_2"  />
</g>
<g id="a1_003"  >
<polygon points="505,140 511,140 516,135 511,130 505,130 505,140 " style="fill:white; stroke-width:1; stroke:black; " description="&lt;b&gt;DAC80531.1&lt;/b&gt;&lt;br&gt;hypothetical protein&lt;br&gt;Location: 14171 - 14794" locus_tag="DAC80531.1" class="clusterblast-orf" id="knownclusterblast-1_all_1_2_3"  />
</g>
<g id="a1_004"  >
<polygon points="518,140 529,140 534,135 529,130 518,130 518,140 " style="fill:#b1d815; stroke-width:1; stroke:black; " description="&lt;b&gt;DAC80532.1&lt;/b&gt;&lt;br&gt;alpha-ketoglutarate-dependent taurine dioxygenase&lt;br&gt;Location: 14887 - 15759&lt;br&gt;&lt;br&gt;&lt;b&gt;BlastP hit with ctg39_17&lt;/b&gt;&lt;br&gt;Percentage identity: 60&lt;br&gt;Percentage coverage: 100&lt;br&gt;BLAST bit score: 357&lt;br&gt;E-value: 2.76e-124" locus_tag="DAC80532.1" class="clusterblast-orf" id="knownclusterblast-1_all_1_2_4"  />
</g>
<g label="BGC0002123" description="BGC0002123_c1: pseudovibriamide A1/pseudovibriamide B1/pseudovibriamide A2/ps... (13% of genes show similarity), NRP+Polyketide" class="clusterblast-cluster"  >
<text x="5" y="170" class="clusterblast-acc"  >
<a xlink:href="https://mibig.secondarymetabolites.org/go/BGC0002123/1" target="_blank">BGC0002123</a>: pseudovibriamide A1/pseudovibriamide B1/pseudovibriamide A2/pseudovibriamide A3/pseudovibriamide A4/pseudovibriamide B2/pseudovibriamide A5/pseudovibriamide A6/pseudovibriamide B3/pseudovibriamide B4/pseudovibriamide B6/pseudovibriamide B5 (13% of genes show similarity), NRP+Polyketide</text>
<line x1="10" y1="185" x2="778.0" y2="185" style="stroke-width:1; stroke:grey; "  />
</g>
<g id="a1_000"  >
<polygon points="1,190 8,190 13,185 8,180 1,180 1,190 " style="fill:white; stroke-width:1; stroke:black; " description="&lt;b&gt;KGB56_24820&lt;/b&gt;&lt;br&gt;response regulator transcription factor&lt;br&gt;Location: 43194 - 42529" locus_tag="KGB56_24820" class="clusterblast-orf" id="knownclusterblast-1_all_1_3_0"  />
</g>
<g id="a1_001"  >
<polygon points="13,190 33,190 38,185 33,180 13,180 13,190 " style="fill:white; stroke-width:1; stroke:black; " description="&lt;b&gt;KGB56_24815&lt;/b&gt;&lt;br&gt;HAMP domain-containing histidine kinase&lt;br&gt;Location: 42532 - 41147" locus_tag="KGB56_24815" class="clusterblast-orf" id="knownclusterblast-1_all_1_3_1"  />
</g>
<g id="a1_002"  >
<polygon points="38,190 52,190 57,185 52,180 38,180 38,190 " style="fill:white; stroke-width:1; stroke:black; " description="&lt;b&gt;KGB56_24810&lt;/b&gt;&lt;br&gt;ABC transporter substrate-binding protein&lt;br&gt;Location: 41177 - 40140" locus_tag="KGB56_24810" class="clusterblast-orf" id="knownclusterblast-1_all_1_3_2"  />
</g>
<g id="a1_003"  >
<polygon points="58,190 62,190 67,185 62,180 58,180 58,190 " style="fill:white; stroke-width:1; stroke:black; " description="&lt;b&gt;KGB56_24805&lt;/b&gt;&lt;br&gt;GNAT family N-acetyltransferase&lt;br&gt;Location: 40059 - 39586" locus_tag="KGB56_24805" class="clusterblast-orf" id="knownclusterblast-1_all_1_3_3"  />
</g>
<g id="a1_004"  >
<polygon points="69,190 87,190 92,185 87,180 69,180 69,190 " style="fill:white; stroke-width:1; stroke:black; " description="&lt;b&gt;KGB56_24800&lt;/b&gt;&lt;br&gt;MFS transporter&lt;br&gt;Location: 39442 - 38210" locus_tag="KGB56_24800" class="clusterblast-orf" id="knownclusterblast-1_all_1_3_4"  />
</g>
<g id="a1_005"  >
<polygon points="94,185 99,180 111,180 111,190 99,190 94,185 " style="fill:#b1d815; stroke-width:1; stroke:black; " description="&lt;b&gt;KGB56_24795&lt;/b&gt;&lt;br&gt;TauD/TfdA family dioxygenase&lt;br&gt;Location: 38104 - 37193&lt;br&gt;&lt;br&gt;&lt;b&gt;BlastP hit with ctg39_17&lt;/b&gt;&lt;br&gt;Percentage identity: 71&lt;br&gt;Percentage coverage: 99&lt;br&gt;BLAST bit score: 432&lt;br&gt;E-value: 9.59e-154" locus_tag="KGB56_24795" class="clusterblast-orf" id="knownclusterblast-1_all_1_3_5"  />
</g>
<g id="a1_006"  >
<polygon points="111,185 116,180 123,180 123,190 116,190 111,185 " style="fill:white; stroke-width:1; stroke:black; " description="&lt;b&gt;KGB56_24790&lt;/b&gt;&lt;br&gt;hypothetical protein&lt;br&gt;Location: 37163 - 36531" locus_tag="KGB56_24790" class="clusterblast-orf" id="knownclusterblast-1_all_1_3_6"  />
</g>
<g id="a1_007"  >
<polygon points="123,185 128,180 136,180 136,190 128,190 123,185 " style="fill:white; stroke-width:1; stroke:black; " description="&lt;b&gt;KGB56_24785&lt;/b&gt;&lt;br&gt;hypothetical protein&lt;br&gt;Location: 36544 - 35831" locus_tag="KGB56_24785" class="clusterblast-orf" id="knownclusterblast-1_all_1_3_7"  />
</g>
<g id="a1_008"  >
<polygon points="135,185 140,180 154,180 154,190 140,190 135,185 " style="fill:white; stroke-width:1; stroke:black; " description="&lt;b&gt;KGB56_24780&lt;/b&gt;&lt;br&gt;GSCFA domain-containing protein&lt;br&gt;Location: 35862 - 34816" locus_tag="KGB56_24780" class="clusterblast-orf" id="knownclusterblast-1_all_1_3_8"  />
</g>
<g id="a1_009"  >
<polygon points="155,185 160,180 178,180 178,190 160,190 155,185 " style="fill:white; stroke-width:1; stroke:black; " description="&lt;b&gt;KGB56_24775&lt;/b&gt;&lt;br&gt;MFS transporter&lt;br&gt;Location: 34781 - 33540" locus_tag="KGB56_24775" class="clusterblast-orf" id="knownclusterblast-1_all_1_3_9"  />
</g>
<g id="a1_0010"  >
<polygon points="182,190 329,190 334,185 329,180 182,180 182,190 " style="fill:white; stroke-width:1; stroke:black; " description="&lt;b&gt;KGB56_24770&lt;/b&gt;&lt;br&gt;amino acid adenylation domain-containing protein&lt;br&gt;Location: 33322 - 25025" locus_tag="KGB56_24770" class="clusterblast-orf" id="knownclusterblast-1_all_1_3_10"  />
</g>
<g id="a1_0011"  >
<polygon points="334,190 520,190 525,185 520,180 334,180 334,190 " style="fill:#d81515; stroke-width:1; stroke:black; " description="&lt;b&gt;KGB56_24765&lt;/b&gt;&lt;br&gt;amino acid adenylation domain-containing protein&lt;br&gt;Location: 24988 - 14585&lt;br&gt;&lt;br&gt;&lt;b&gt;BlastP hit with ctg39_12&lt;/b&gt;&lt;br&gt;Percentage identity: 49&lt;br&gt;Percentage coverage: 99&lt;br&gt;BLAST bit score: 2744&lt;br&gt;E-value: 0.0" locus_tag="KGB56_24765" class="clusterblast-orf" id="knownclusterblast-1_all_1_3_11"  />
</g>
<g id="a1_0012"  >
<polygon points="525,190 596,190 601,185 596,180 525,180 525,190 " style="fill:white; stroke-width:1; stroke:black; " description="&lt;b&gt;KGB56_24760&lt;/b&gt;&lt;br&gt;non-ribosomal peptide synthetase&lt;br&gt;Location: 14588 - 10470" locus_tag="KGB56_24760" class="clusterblast-orf" id="knownclusterblast-1_all_1_3_12"  />
</g>
<g id="a1_0013"  >
<polygon points="601,190 761,190 766,185 761,180 601,180 601,190 " style="fill:white; stroke-width:1; stroke:black; " description="&lt;b&gt;KGB56_24755&lt;/b&gt;&lt;br&gt;non-ribosomal peptide synthetase&lt;br&gt;Location: 10461 - 1483" locus_tag="KGB56_24755" class="clusterblast-orf" id="knownclusterblast-1_all_1_3_13"  />
</g>
<g id="a1_0014"  >
<polygon points="764,185 769,180 778,180 778,190 769,190 764,185 " style="fill:white; stroke-width:1; stroke:black; " description="&lt;b&gt;KGB56_24750&lt;/b&gt;&lt;br&gt;4'-phosphopantetheinyl transferase superfamily protein&lt;br&gt;Location: 1548 - 781" locus_tag="KGB56_24750" class="clusterblast-orf" id="knownclusterblast-1_all_1_3_14"  />
</g>
<g label="BGC0001760" description="BGC0001760_c1: rimosamide (14% of genes show similarity), NRP" class="clusterblast-cluster"  >
<text x="5" y="220" class="clusterblast-acc"  >
<a xlink:href="https://mibig.secondarymetabolites.org/go/BGC0001760/1" target="_blank">BGC0001760</a>: rimosamide                                                                       (14% of genes show similarity), NRP</text>
<line x1="10" y1="235" x2="778.0" y2="235" style="stroke-width:1; stroke:grey; "  />
</g>
<g id="a1_000"  >
<polygon points="123,235 128,230 140,230 140,240 128,240 123,235 " style="fill:white; stroke-width:1; stroke:black; " description="&lt;b&gt;SRIM_RS28530&lt;/b&gt;&lt;br&gt;hypothetical protein&lt;br&gt;Location: 29094 - 28153" locus_tag="SRIM_RS28530" class="clusterblast-orf" id="knownclusterblast-1_all_1_4_0"  />
</g>
<g id="a1_001"  >
<polygon points="143,235 148,230 157,230 157,240 148,240 143,235 " style="fill:white; stroke-width:1; stroke:black; " description="&lt;b&gt;SRIM_RS28535&lt;/b&gt;&lt;br&gt;putative glycosyl hydrolase&lt;br&gt;Location: 28009 - 27200" locus_tag="SRIM_RS28535" class="clusterblast-orf" id="knownclusterblast-1_all_1_4_1"  />
</g>
<g id="a1_002"  >
<polygon points="163,240 169,240 174,235 169,230 163,230 163,240 " style="fill:white; stroke-width:1; stroke:black; " description="&lt;b&gt;SRIM_RS28540&lt;/b&gt;&lt;br&gt;SigE family RNA polymerase sigma factor&lt;br&gt;Location: 26875 - 26312" locus_tag="SRIM_RS28540" class="clusterblast-orf" id="knownclusterblast-1_all_1_4_2"  />
</g>
<g id="a1_003"  >
<polygon points="174,240 182,240 187,235 182,230 174,230 174,240 " style="fill:white; stroke-width:1; stroke:black; " description="&lt;b&gt;SRIM_RS28545&lt;/b&gt;&lt;br&gt;hypothetical protein&lt;br&gt;Location: 26312 - 25590" locus_tag="SRIM_RS28545" class="clusterblast-orf" id="knownclusterblast-1_all_1_4_3"  />
</g>
<g id="a1_004"  >
<polygon points="188,235 193,230 206,230 206,240 193,240 188,235 " style="fill:white; stroke-width:1; stroke:black; " description="&lt;b&gt;SRIM_RS28550&lt;/b&gt;&lt;br&gt;non-homologous end-joining DNA ligase&lt;br&gt;Location: 25559 - 24555" locus_tag="SRIM_RS28550" class="clusterblast-orf" id="knownclusterblast-1_all_1_4_4"  />
</g>
<g id="a1_005"  >
<polygon points="212,240 226,240 231,235 226,230 212,230 212,240 " style="fill:white; stroke-width:1; stroke:black; " description="&lt;b&gt;SRIM_RS28555&lt;/b&gt;&lt;br&gt;ATP-dependent DNA ligase&lt;br&gt;Location: 24252 - 23191" locus_tag="SRIM_RS28555" class="clusterblast-orf" id="knownclusterblast-1_all_1_4_5"  />
</g>
<g id="a1_006"  >
<polygon points="231,235 236,230 287,230 287,240 236,240 231,235 " style="fill:white; stroke-width:1; stroke:black; " description="&lt;b&gt;SRIM_RS28560&lt;/b&gt;&lt;br&gt;non-ribosomal peptide synthetase&lt;br&gt;Location: 23172 - 20155" locus_tag="SRIM_RS28560" class="clusterblast-orf" id="knownclusterblast-1_all_1_4_6"  />
</g>
<g id="a1_007"  >
<polygon points="297,240 369,240 374,235 369,230 297,230 297,240 " style="fill:white; stroke-width:1; stroke:black; " description="&lt;b&gt;SRIM_RS28565&lt;/b&gt;&lt;br&gt;non-ribosomal peptide synthetase&lt;br&gt;Location: 19575 - 15391" locus_tag="SRIM_RS28565" class="clusterblast-orf" id="knownclusterblast-1_all_1_4_7"  />
</g>
<g id="a1_008"  >
<polygon points="374,240 540,240 545,235 540,230 374,230 374,240 " style="fill:#1563d8; stroke-width:1; stroke:black; " description="&lt;b&gt;SRIM_RS28570&lt;/b&gt;&lt;br&gt;non-ribosomal peptide synthetase&lt;br&gt;Location: 15391 - 6092&lt;br&gt;&lt;br&gt;&lt;b&gt;BlastP hit with ctg39_14&lt;/b&gt;&lt;br&gt;Percentage identity: 50&lt;br&gt;Percentage coverage: 102&lt;br&gt;BLAST bit score: 2741&lt;br&gt;E-value: 0.0" locus_tag="SRIM_RS28570" class="clusterblast-orf" id="knownclusterblast-1_all_1_4_8"  />
</g>
<g id="a1_009"  >
<polygon points="546,240 560,240 565,235 560,230 546,230 546,240 " style="fill:white; stroke-width:1; stroke:black; " description="&lt;b&gt;SRIM_RS28575&lt;/b&gt;&lt;br&gt;GSCFA domain-containing protein&lt;br&gt;Location: 6014 - 4959" locus_tag="SRIM_RS28575" class="clusterblast-orf" id="knownclusterblast-1_all_1_4_9"  />
</g>
<g id="a1_0010"  >
<polygon points="568,240 573,240 578,235 573,230 568,230 568,240 " style="fill:white; stroke-width:1; stroke:black; " description="&lt;b&gt;SRIM_RS28580&lt;/b&gt;&lt;br&gt;hypothetical protein&lt;br&gt;Location: 4837 - 4262" locus_tag="SRIM_RS28580" class="clusterblast-orf" id="knownclusterblast-1_all_1_4_10"  />
</g>
<g id="a1_0011"  >
<polygon points="579,240 590,240 595,235 590,230 579,230 579,240 " style="fill:#b1d815; stroke-width:1; stroke:black; " description="&lt;b&gt;SRIM_RS28585&lt;/b&gt;&lt;br&gt;TauD/TfdA family dioxygenase&lt;br&gt;Location: 4206 - 3334&lt;br&gt;&lt;br&gt;&lt;b&gt;BlastP hit with ctg39_17&lt;/b&gt;&lt;br&gt;Percentage identity: 61&lt;br&gt;Percentage coverage: 101&lt;br&gt;BLAST bit score: 362&lt;br&gt;E-value: 2.05e-126" locus_tag="SRIM_RS28585" class="clusterblast-orf" id="knownclusterblast-1_all_1_4_11"  />
</g>
<g id="a1_0012"  >
<polygon points="596,235 601,230 611,230 611,240 601,240 596,235 " style="fill:white; stroke-width:1; stroke:black; " description="&lt;b&gt;SRIM_RS28590&lt;/b&gt;&lt;br&gt;hypothetical protein&lt;br&gt;Location: 3266 - 2466" locus_tag="SRIM_RS28590" class="clusterblast-orf" id="knownclusterblast-1_all_1_4_12"  />
</g>
<g id="a1_0013"  >
<polygon points="616,240 651,240 656,235 651,230 616,230 616,240 " style="fill:white; stroke-width:1; stroke:black; " description="&lt;b&gt;SRIM_RS28595&lt;/b&gt;&lt;br&gt;FUSC family protein&lt;br&gt;Location: 2199 - 1" locus_tag="SRIM_RS28595" class="clusterblast-orf" id="knownclusterblast-1_all_1_4_13"  />
</g>
<g label="BGC0001840" description="BGC0001840_c1: detoxin S1 (22% of genes show similarity), NRP+Polyketide" class="clusterblast-cluster"  >
<text x="5" y="270" class="clusterblast-acc"  >
<a xlink:href="https://mibig.secondarymetabolites.org/go/BGC0001840/1" target="_blank">BGC0001840</a>: detoxin S1                                                                       (22% of genes show similarity), NRP+Polyketide</text>
<line x1="10" y1="285" x2="778.0" y2="285" style="stroke-width:1; stroke:grey; "  />
</g>
<g id="a1_000"  >
<polygon points="209,290 280,290 285,285 280,280 209,280 209,290 " style="fill:white; stroke-width:1; stroke:black; " description="&lt;b&gt;ctg16_20&lt;/b&gt;&lt;br&gt;NRPS/PKS&lt;br&gt;Location: 21011 - 16872" locus_tag="ctg16_20" class="clusterblast-orf" id="knownclusterblast-1_all_1_5_0"  />
</g>
<g id="a1_001"  >
<polygon points="285,290 453,290 458,285 453,280 285,280 285,290 " style="fill:#1563d8; stroke-width:1; stroke:black; " description="&lt;b&gt;ctg16_19&lt;/b&gt;&lt;br&gt;nrps&lt;br&gt;Location: 16872 - 7432&lt;br&gt;&lt;br&gt;&lt;b&gt;BlastP hit with ctg39_14&lt;/b&gt;&lt;br&gt;Percentage identity: 46&lt;br&gt;Percentage coverage: 103&lt;br&gt;BLAST bit score: 2362&lt;br&gt;E-value: 0.0" locus_tag="ctg16_19" class="clusterblast-orf" id="knownclusterblast-1_all_1_5_1"  />
</g>
<g id="a1_002"  >
<polygon points="460,290 471,290 476,285 471,280 460,280 460,290 " style="fill:#b1d815; stroke-width:1; stroke:black; " description="&lt;b&gt;ctg16_18&lt;/b&gt;&lt;br&gt;TauD&lt;br&gt;Location: 7364 - 6474&lt;br&gt;&lt;br&gt;&lt;b&gt;BlastP hit with ctg39_17&lt;/b&gt;&lt;br&gt;Percentage identity: 60&lt;br&gt;Percentage coverage: 101&lt;br&gt;BLAST bit score: 365&lt;br&gt;E-value: 2.18e-127" locus_tag="ctg16_18" class="clusterblast-orf" id="knownclusterblast-1_all_1_5_2"  />
</g>
<g id="a1_003"  >
<polygon points="479,285 484,280 493,280 493,290 484,290 479,285 " style="fill:white; stroke-width:1; stroke:black; " description="&lt;b&gt;ctg16_17&lt;/b&gt;&lt;br&gt;enoyl-CoA hydratase&lt;br&gt;Location: 6306 - 5542" locus_tag="ctg16_17" class="clusterblast-orf" id="knownclusterblast-1_all_1_5_3"  />
</g>
<g id="a1_004"  >
<polygon points="495,285 500,280 517,280 517,290 500,290 495,285 " style="fill:white; stroke-width:1; stroke:black; " description="&lt;b&gt;ctg16_16&lt;/b&gt;&lt;br&gt;cytochrome P450&lt;br&gt;Location: 5464 - 4211" locus_tag="ctg16_16" class="clusterblast-orf" id="knownclusterblast-1_all_1_5_4"  />
</g>
<g id="a1_005"  >
<polygon points="519,285 524,280 545,280 545,290 524,290 519,285 " style="fill:white; stroke-width:1; stroke:black; " description="&lt;b&gt;ctg16_15&lt;/b&gt;&lt;br&gt;hypothetical protein&lt;br&gt;Location: 4109 - 2736" locus_tag="ctg16_15" class="clusterblast-orf" id="knownclusterblast-1_all_1_5_5"  />
</g>
<g id="a1_006"  >
<polygon points="545,285 550,280 556,280 556,290 550,290 545,285 " style="fill:white; stroke-width:1; stroke:black; " description="&lt;b&gt;ctg16_14&lt;/b&gt;&lt;br&gt;putative ATP/GTP-binding protein&lt;br&gt;Location: 2722 - 2132" locus_tag="ctg16_14" class="clusterblast-orf" id="knownclusterblast-1_all_1_5_6"  />
</g>
<g id="a1_007"  >
<polygon points="555,285 560,280 562,280 562,290 560,290 555,285 " style="fill:white; stroke-width:1; stroke:black; " description="&lt;b&gt;ctg16_13&lt;/b&gt;&lt;br&gt;multi-component regulatory system-2 protein&lt;br&gt;Location: 2157 - 1777" locus_tag="ctg16_13" class="clusterblast-orf" id="knownclusterblast-1_all_1_5_7"  />
</g>
<g id="a1_008"  >
<polygon points="562,285 567,280 570,280 570,290 567,290 562,285 " style="fill:white; stroke-width:1; stroke:black; " description="&lt;b&gt;ctg16_12&lt;/b&gt;&lt;br&gt;hypothetical protein&lt;br&gt;Location: 1780 - 1370" locus_tag="ctg16_12" class="clusterblast-orf" id="knownclusterblast-1_all_1_5_8"  />
</g>
<g label="BGC0001841" description="BGC0001841_c1: detoxin P1/detoxin P2/detoxin P3 (50% of genes show similarity), NRP+Polyketide" class="clusterblast-cluster"  >
<text x="5" y="320" class="clusterblast-acc"  >
<a xlink:href="https://mibig.secondarymetabolites.org/go/BGC0001841/1" target="_blank">BGC0001841</a>: detoxin P1/detoxin P2/detoxin P3                                                 (50% of genes show similarity), NRP+Polyketide</text>
<line x1="10" y1="335" x2="778.0" y2="335" style="stroke-width:1; stroke:grey; "  />
</g>
<g id="a1_000"  >
<polygon points="259,340 323,340 328,335 323,330 259,330 259,340 " style="fill:white; stroke-width:1; stroke:black; " description="&lt;b&gt;DAC80524.1&lt;/b&gt;&lt;br&gt;peptide synthetase&lt;br&gt;Location: 7 - 3789" locus_tag="DAC80524.1" class="clusterblast-orf" id="knownclusterblast-1_all_1_6_0"  />
</g>
<g id="a1_001"  >
<polygon points="328,340 476,340 481,335 476,330 328,330 328,340 " style="fill:#1563d8; stroke-width:1; stroke:black; " description="&lt;b&gt;DAC80525.1&lt;/b&gt;&lt;br&gt;malonyl CoA-acyl carrier protein transacylase&lt;br&gt;Location: 3786 - 12152&lt;br&gt;&lt;br&gt;&lt;b&gt;BlastP hit with ctg39_14&lt;/b&gt;&lt;br&gt;Percentage identity: 47&lt;br&gt;Percentage coverage: 99&lt;br&gt;BLAST bit score: 2288&lt;br&gt;E-value: 0.0" locus_tag="DAC80525.1" class="clusterblast-orf" id="knownclusterblast-1_all_1_6_1"  />
</g>
<g id="a1_002"  >
<polygon points="482,340 493,340 498,335 493,330 482,330 482,340 " style="fill:#b1d815; stroke-width:1; stroke:black; " description="&lt;b&gt;DAC80526.1&lt;/b&gt;&lt;br&gt;alpha-ketoglutarate-dependent taurine dioxygenase&lt;br&gt;Location: 12177 - 13049&lt;br&gt;&lt;br&gt;&lt;b&gt;BlastP hit with ctg39_17&lt;/b&gt;&lt;br&gt;Percentage identity: 55&lt;br&gt;Percentage coverage: 99&lt;br&gt;BLAST bit score: 325&lt;br&gt;E-value: 5.53e-112" locus_tag="DAC80526.1" class="clusterblast-orf" id="knownclusterblast-1_all_1_6_2"  />
</g>
<g id="a1_003"  >
<polygon points="498,340 515,340 520,335 515,330 498,330 498,340 " style="fill:white; stroke-width:1; stroke:black; " description="&lt;b&gt;DAC80527.1&lt;/b&gt;&lt;br&gt;putative cytochrome P450 hydroxylase&lt;br&gt;Location: 13066 - 14286" locus_tag="DAC80527.1" class="clusterblast-orf" id="knownclusterblast-1_all_1_6_3"  />
</g>
<g label="BGC0001833" description="BGC0001833_c1: icosalide A/icosalide B (100% of genes show similarity), NRP:Lipopeptide" class="clusterblast-cluster"  >
<text x="5" y="370" class="clusterblast-acc"  >
<a xlink:href="https://mibig.secondarymetabolites.org/go/BGC0001833/1" target="_blank">BGC0001833</a>: icosalide A/icosalide B                                                          (100% of genes show similarity), NRP:Lipopeptide</text>
<line x1="10" y1="385" x2="778.0" y2="385" style="stroke-width:1; stroke:grey; "  />
</g>
<g id="a1_000"  >
<polygon points="252,390 522,390 527,385 522,380 252,380 252,390 " style="fill:#d81515; stroke-width:1; stroke:black; " description="&lt;b&gt;AYA44686.1&lt;/b&gt;&lt;br&gt;icosalide NRPS&lt;br&gt;Location: 14965 - 30015&lt;br&gt;&lt;br&gt;&lt;b&gt;BlastP hit with ctg39_12&lt;/b&gt;&lt;br&gt;Percentage identity: 46&lt;br&gt;Percentage coverage: 57&lt;br&gt;BLAST bit score: 1323&lt;br&gt;E-value: 0.0" locus_tag="AYA44686.1" class="clusterblast-orf" id="knownclusterblast-1_all_1_7_0"  />
</g>
</svg>
