<svg xmlns="http://www.w3.org/2000/svg" xmlns:xlink="http://www.w3.org/1999/xlink" version="1.1" x="0" y="0" height="50" width="800" viewBox="0 0 800 50" preserveAspectRatio="none"  >
<g label="Query sequence" class="clusterblast-cluster"  >
<text x="5" y="20" class="clusterblast-acc"  >
Query sequence</text>
<line x1="10" y1="35" x2="778.0" y2="35" style="stroke-width:1; stroke:grey; "  />
<polygon points="0,40 49,40 54,35 49,30 0,30 0,40 " style="fill:white; stroke-width:1; stroke:black; " description="&lt;b&gt;ctg1_138&lt;/b&gt;&lt;br&gt;ctg1 138&lt;br&gt;Location: 138956 - 140336" locus_tag="ctg1_138" class="clusterblast-orf" id="subclusterblast-1_q0_0_all"  />
<polygon points="55,40 67,40 72,35 67,30 55,30 55,40 " style="fill:white; stroke-width:1; stroke:black; " description="&lt;b&gt;ctg1_139&lt;/b&gt;&lt;br&gt;ctg1 139&lt;br&gt;Location: 140381 - 140807" locus_tag="ctg1_139" class="clusterblast-orf" id="subclusterblast-1_q1_0_all"  />
<polygon points="78,40 125,40 130,35 125,30 78,30 78,40 " style="fill:white; stroke-width:1; stroke:black; " description="&lt;b&gt;ctg1_140&lt;/b&gt;&lt;br&gt;ctg1 140&lt;br&gt;Location: 140969 - 142292" locus_tag="ctg1_140" class="clusterblast-orf" id="subclusterblast-1_q2_0_all"  />
<polygon points="138,40 163,40 168,35 163,30 138,30 138,40 " style="fill:white; stroke-width:1; stroke:black; " description="&lt;b&gt;ctg1_141&lt;/b&gt;&lt;br&gt;ctg1 141&lt;br&gt;Location: 142494 - 143271" locus_tag="ctg1_141" class="clusterblast-orf" id="subclusterblast-1_q3_0_all"  />
<polygon points="168,40 235,40 240,35 235,30 168,30 168,40 " style="fill:white; stroke-width:1; stroke:black; " description="&lt;b&gt;ctg1_142&lt;/b&gt;&lt;br&gt;ctg1 142&lt;br&gt;Location: 143272 - 145108" locus_tag="ctg1_142" class="clusterblast-orf" id="subclusterblast-1_q4_0_all"  />
<polygon points="245,35 250,30 275,30 275,40 250,40 245,35 " style="fill:white; stroke-width:1; stroke:black; " description="&lt;b&gt;ctg1_143&lt;/b&gt;&lt;br&gt;ctg1 143&lt;br&gt;Location: 145256 - 146027" locus_tag="ctg1_143" class="clusterblast-orf" id="subclusterblast-1_q5_0_all"  />
<polygon points="276,35 281,30 320,30 320,40 281,40 276,35 " style="fill:white; stroke-width:1; stroke:black; " description="&lt;b&gt;ctg1_144&lt;/b&gt;&lt;br&gt;ctg1 144&lt;br&gt;Location: 146038 - 147187" locus_tag="ctg1_144" class="clusterblast-orf" id="subclusterblast-1_q6_0_all"  />
<polygon points="320,35 325,30 369,30 369,40 325,40 320,35 " style="fill:white; stroke-width:1; stroke:black; " description="&lt;b&gt;ctg1_145&lt;/b&gt;&lt;br&gt;ctg1 145&lt;br&gt;Location: 147183 - 148431" locus_tag="ctg1_145" class="clusterblast-orf" id="subclusterblast-1_q7_0_all"  />
<polygon points="374,35 379,30 396,30 396,40 379,40 374,35 " style="fill:white; stroke-width:1; stroke:black; " description="&lt;b&gt;ctg1_146&lt;/b&gt;&lt;br&gt;ctg1 146&lt;br&gt;Location: 148569 - 149124" locus_tag="ctg1_146" class="clusterblast-orf" id="subclusterblast-1_q8_0_all"  />
<polygon points="402,40 425,40 430,35 425,30 402,30 402,40 " style="fill:white; stroke-width:1; stroke:black; " description="&lt;b&gt;ctg1_147&lt;/b&gt;&lt;br&gt;ctg1 147&lt;br&gt;Location: 149281 - 150001" locus_tag="ctg1_147" class="clusterblast-orf" id="subclusterblast-1_q9_0_all"  />
<polygon points="443,40 473,40 478,35 473,30 443,30 443,40 " style="fill:white; stroke-width:1; stroke:black; " description="&lt;b&gt;ctg1_148&lt;/b&gt;&lt;br&gt;ctg1 148&lt;br&gt;Location: 150326 - 151229" locus_tag="ctg1_148" class="clusterblast-orf" id="subclusterblast-1_q10_0_all"  />
<polygon points="483,40 502,40 507,35 502,30 483,30 483,40 " style="fill:white; stroke-width:1; stroke:black; " description="&lt;b&gt;ctg1_149&lt;/b&gt;&lt;br&gt;ctg1 149&lt;br&gt;Location: 151355 - 151982" locus_tag="ctg1_149" class="clusterblast-orf" id="subclusterblast-1_q11_0_all"  />
<polygon points="510,40 584,40 589,35 584,30 510,30 510,40 " style="fill:white; stroke-width:1; stroke:black; " description="&lt;b&gt;ctg1_150&lt;/b&gt;&lt;br&gt;ctg1 150&lt;br&gt;Location: 152051 - 154082" locus_tag="ctg1_150" class="clusterblast-orf" id="subclusterblast-1_q12_0_all"  />
<polygon points="591,35 596,30 635,30 635,40 596,40 591,35 " style="fill:white; stroke-width:1; stroke:black; " description="&lt;b&gt;ctg1_151&lt;/b&gt;&lt;br&gt;ctg1 151&lt;br&gt;Location: 154121 - 155252" locus_tag="ctg1_151" class="clusterblast-orf" id="subclusterblast-1_q13_0_all"  />
<polygon points="635,35 640,30 679,30 679,40 640,40 635,35 " style="fill:white; stroke-width:1; stroke:black; " description="&lt;b&gt;ctg1_152&lt;/b&gt;&lt;br&gt;ctg1 152&lt;br&gt;Location: 155252 - 156383" locus_tag="ctg1_152" class="clusterblast-orf" id="subclusterblast-1_q14_0_all"  />
<polygon points="678,35 683,30 731,30 731,40 683,40 678,35 " style="fill:white; stroke-width:1; stroke:black; " description="&lt;b&gt;ctg1_153&lt;/b&gt;&lt;br&gt;ctg1 153&lt;br&gt;Location: 156366 - 157734" locus_tag="ctg1_153" class="clusterblast-orf" id="subclusterblast-1_q15_0_all"  />
<polygon points="731,35 736,30 780,30 780,40 736,40 731,35 " style="fill:white; stroke-width:1; stroke:black; " description="&lt;b&gt;ctg1_154&lt;/b&gt;&lt;br&gt;ctg1 154&lt;br&gt;Location: 157730 - 158981" locus_tag="ctg1_154" class="clusterblast-orf" id="subclusterblast-1_q16_0_all"  />
</g>
</svg>
