<svg xmlns="http://www.w3.org/2000/svg" xmlns:xlink="http://www.w3.org/1999/xlink" version="1.1" x="0" y="0" height="230" width="800" viewBox="0 0 800 230" preserveAspectRatio="none"  >
<g label="Query sequence" class="clusterblast-cluster"  >
<text x="5" y="20" class="clusterblast-acc"  >
Query sequence</text>
<line x1="10" y1="35" x2="778.0" y2="35" style="stroke-width:1; stroke:grey; "  />
<polygon points="25,35 30,30 37,30 37,40 30,40 25,35 " style="fill:#d81515; stroke-width:1; stroke:black; " description="&lt;b&gt;ctg28_26&lt;/b&gt;&lt;br&gt;ctg28 26&lt;br&gt;Location: 23474 - 23891" locus_tag="ctg28_26" class="clusterblast-orf" id="dummy-1_q0_0_all"  />
<polygon points="44,40 52,40 57,35 52,30 44,30 44,40 " style="fill:#60d815; stroke-width:1; stroke:black; " description="&lt;b&gt;ctg28_27&lt;/b&gt;&lt;br&gt;ctg28 27&lt;br&gt;Location: 24149 - 24629" locus_tag="ctg28_27" class="clusterblast-orf" id="dummy-1_q1_0_all"  />
<polygon points="57,40 74,40 79,35 74,30 57,30 57,40 " style="fill:#15abd8; stroke-width:1; stroke:black; " description="&lt;b&gt;ctg28_28&lt;/b&gt;&lt;br&gt;ctg28 28&lt;br&gt;Location: 24625 - 25396" locus_tag="ctg28_28" class="clusterblast-orf" id="dummy-1_q2_0_all"  />
<polygon points="81,35 86,30 135,30 135,40 86,40 81,35 " style="fill:#8d15d8; stroke-width:1; stroke:black; " description="&lt;b&gt;ctg28_29&lt;/b&gt;&lt;br&gt;ctg28 29&lt;br&gt;Location: 25475 - 27416" locus_tag="ctg28_29" class="clusterblast-orf" id="dummy-1_q3_0_all"  />
<polygon points="143,40 151,40 156,35 151,30 143,30 143,40 " style="fill:#d84215; stroke-width:1; stroke:black; " description="&lt;b&gt;ctg28_30&lt;/b&gt;&lt;br&gt;ctg28 30&lt;br&gt;Location: 27717 - 28173" locus_tag="ctg28_30" class="clusterblast-orf" id="dummy-1_q4_0_all"  />
<polygon points="156,40 163,40 168,35 163,30 156,30 156,40 " style="fill:#33d815; stroke-width:1; stroke:black; " description="&lt;b&gt;ctg28_31&lt;/b&gt;&lt;br&gt;ctg28 31&lt;br&gt;Location: 28165 - 28615" locus_tag="ctg28_31" class="clusterblast-orf" id="dummy-1_q5_0_all"  />
<polygon points="170,35 175,30 186,30 186,40 175,40 170,35 " style="fill:#157ed8; stroke-width:1; stroke:black; " description="&lt;b&gt;ctg28_32&lt;/b&gt;&lt;br&gt;ctg28 32&lt;br&gt;Location: 28658 - 29237" locus_tag="ctg28_32" class="clusterblast-orf" id="dummy-1_q6_0_all"  />
<polygon points="188,35 193,30 224,30 224,40 193,40 188,35 " style="fill:#ba15d8; stroke-width:1; stroke:black; " description="&lt;b&gt;ctg28_33&lt;/b&gt;&lt;br&gt;ctg28 33&lt;br&gt;Location: 29306 - 30620" locus_tag="ctg28_33" class="clusterblast-orf" id="dummy-1_q7_0_all"  />
<polygon points="226,35 230,30 230,40 226,35 " style="fill:#d86f15; stroke-width:1; stroke:black; " description="&lt;b&gt;ctg28_34&lt;/b&gt;&lt;br&gt;ctg28 34&lt;br&gt;Location: 30670 - 30826" locus_tag="ctg28_34" class="clusterblast-orf" id="dummy-1_q8_0_all"  />
<polygon points="232,35 237,30 250,30 250,40 237,40 232,35 " style="fill:#15d824; stroke-width:1; stroke:black; " description="&lt;b&gt;ctg28_35&lt;/b&gt;&lt;br&gt;ctg28 35&lt;br&gt;Location: 30903 - 31536" locus_tag="ctg28_35" class="clusterblast-orf" id="dummy-1_q9_0_all"  />
<polygon points="253,40 266,40 271,35 266,30 253,30 253,40 " style="fill:#1551d8; stroke-width:1; stroke:black; " description="&lt;b&gt;ctg28_36&lt;/b&gt;&lt;br&gt;ctg28 36&lt;br&gt;Location: 31647 - 32304" locus_tag="ctg28_36" class="clusterblast-orf" id="dummy-1_q10_0_all"  />
<polygon points="271,35 276,30 289,30 289,40 276,40 271,35 " style="fill:#d815c9; stroke-width:1; stroke:black; " description="&lt;b&gt;ctg28_37&lt;/b&gt;&lt;br&gt;ctg28 37&lt;br&gt;Location: 32316 - 32937" locus_tag="ctg28_37" class="clusterblast-orf" id="dummy-1_q11_0_all"  />
<polygon points="292,40 348,40 353,35 348,30 292,30 292,40 " style="fill:#d89c15; stroke-width:1; stroke:black; " description="&lt;b&gt;ctg28_38&lt;/b&gt;&lt;br&gt;ctg28 38&lt;br&gt;Location: 33070 - 35269" locus_tag="ctg28_38" class="clusterblast-orf" id="dummy-1_q12_0_all"  />
<polygon points="353,40 353,40 358,35 353,30 353,30 353,40 " style="fill:white; stroke-width:1; stroke:black; " description="&lt;b&gt;ctg28_39&lt;/b&gt;&lt;br&gt;ctg28 39&lt;br&gt;Location: 35268 - 35436" locus_tag="ctg28_39" class="clusterblast-orf" id="dummy-1_q13_0_all"  />
<polygon points="366,35 371,30 399,30 399,40 371,40 366,35 " style="fill:#15d851; stroke-width:1; stroke:black; " description="&lt;b&gt;ctg28_40&lt;/b&gt;&lt;br&gt;ctg28 40&lt;br&gt;Location: 35732 - 36899" locus_tag="ctg28_40" class="clusterblast-orf" id="dummy-1_q14_0_all"  />
<polygon points="399,35 404,30 437,30 437,40 404,40 399,35 " style="fill:#1524d8; stroke-width:1; stroke:black; " description="&lt;b&gt;ctg28_41&lt;/b&gt;&lt;br&gt;ctg28 41&lt;br&gt;Location: 36895 - 38272" locus_tag="ctg28_41" class="clusterblast-orf" id="dummy-1_q15_0_all"  />
<polygon points="441,35 446,30 464,30 464,40 446,40 441,35 " style="fill:#d8159c; stroke-width:1; stroke:black; " description="&lt;b&gt;ctg28_42&lt;/b&gt;&lt;br&gt;ctg28 42&lt;br&gt;Location: 38416 - 39256" locus_tag="ctg28_42" class="clusterblast-orf" id="dummy-1_q16_0_all"  />
<polygon points="472,35 477,30 500,30 500,40 477,40 472,35 " style="fill:#d8c915; stroke-width:1; stroke:black; " description="&lt;b&gt;ctg28_43&lt;/b&gt;&lt;br&gt;ctg28 43&lt;br&gt;Location: 39541 - 40519" locus_tag="ctg28_43" class="clusterblast-orf" id="dummy-1_q17_0_all"  />
<polygon points="505,35 510,30 516,30 516,40 510,40 505,35 " style="fill:#15d87e; stroke-width:1; stroke:black; " description="&lt;b&gt;ctg28_44&lt;/b&gt;&lt;br&gt;ctg28 44&lt;br&gt;Location: 40734 - 41127" locus_tag="ctg28_44" class="clusterblast-orf" id="dummy-1_q18_0_all"  />
<polygon points="517,35 522,30 535,30 535,40 522,40 517,35 " style="fill:#3315d8; stroke-width:1; stroke:black; " description="&lt;b&gt;ctg28_45&lt;/b&gt;&lt;br&gt;ctg28 45&lt;br&gt;Location: 41157 - 41778" locus_tag="ctg28_45" class="clusterblast-orf" id="dummy-1_q19_0_all"  />
<polygon points="541,35 546,30 569,30 569,40 546,40 541,35 " style="fill:#d8156f; stroke-width:1; stroke:black; " description="&lt;b&gt;ctg28_46&lt;/b&gt;&lt;br&gt;ctg28 46&lt;br&gt;Location: 41999 - 43019" locus_tag="ctg28_46" class="clusterblast-orf" id="dummy-1_q20_0_all"  />
<polygon points="573,35 578,30 594,30 594,40 578,40 573,35 " style="fill:#bad815; stroke-width:1; stroke:black; " description="&lt;b&gt;ctg28_47&lt;/b&gt;&lt;br&gt;ctg28 47&lt;br&gt;Location: 43158 - 43920" locus_tag="ctg28_47" class="clusterblast-orf" id="dummy-1_q21_0_all"  />
<polygon points="599,35 604,30 618,30 618,40 604,40 599,35 " style="fill:#15d8ab; stroke-width:1; stroke:black; " description="&lt;b&gt;ctg28_48&lt;/b&gt;&lt;br&gt;ctg28 48&lt;br&gt;Location: 44110 - 44770" locus_tag="ctg28_48" class="clusterblast-orf" id="dummy-1_q22_0_all"  />
<polygon points="618,35 623,30 634,30 634,40 623,40 618,35 " style="fill:#6015d8; stroke-width:1; stroke:black; " description="&lt;b&gt;ctg28_49&lt;/b&gt;&lt;br&gt;ctg28 49&lt;br&gt;Location: 44766 - 45366" locus_tag="ctg28_49" class="clusterblast-orf" id="dummy-1_q23_0_all"  />
<polygon points="634,35 639,30 655,30 655,40 639,40 634,35 " style="fill:#bad815; stroke-width:1; stroke:black; " description="&lt;b&gt;ctg28_50&lt;/b&gt;&lt;br&gt;ctg28 50&lt;br&gt;Location: 45362 - 46121" locus_tag="ctg28_50" class="clusterblast-orf" id="dummy-1_q24_0_all"  />
<polygon points="655,35 660,30 683,30 683,40 660,40 655,35 " style="fill:#d81542; stroke-width:1; stroke:black; " description="&lt;b&gt;ctg28_51&lt;/b&gt;&lt;br&gt;ctg28 51&lt;br&gt;Location: 46117 - 47116" locus_tag="ctg28_51" class="clusterblast-orf" id="dummy-1_q25_0_all"  />
<polygon points="683,35 688,30 743,30 743,40 688,40 683,35 " style="fill:#8dd815; stroke-width:1; stroke:black; " description="&lt;b&gt;ctg28_52&lt;/b&gt;&lt;br&gt;ctg28 52&lt;br&gt;Location: 47117 - 49274" locus_tag="ctg28_52" class="clusterblast-orf" id="dummy-1_q26_0_all"  />
<polygon points="747,35 752,30 754,30 754,40 752,40 747,35 " style="fill:#15d8d8; stroke-width:1; stroke:black; " description="&lt;b&gt;ctg28_53&lt;/b&gt;&lt;br&gt;ctg28 53&lt;br&gt;Location: 49405 - 49675" locus_tag="ctg28_53" class="clusterblast-orf" id="dummy-1_q27_0_all"  />
</g>
<g label="NZ_CABVGW010000001" description="NZ_CABVGW010000001 (75337-103892): Pseudomonas fluorescens isolate PS682, who... (44% of genes show similarity), thiopeptide" class="clusterblast-cluster"  >
<text x="5" y="70" class="clusterblast-acc"  >
<a xlink:href="https://antismash-db.secondarymetabolites.org/area.html?record=NZ_CABVGW010000001&amp;start=75337&amp;end=103892" target="_blank">NZ_CABVGW010000001 (75337-103892)</a>: Pseudomonas fluorescens isolate PS682, who... (44% of genes show similarity), thiopeptide</text>
<line x1="10" y1="85" x2="778.0" y2="85" style="stroke-width:1; stroke:grey; "  />
</g>
<g id="a1_000"  >
<polygon points="0,85 5,80 15,80 15,90 5,90 0,85 " style="fill:#157ed8; stroke-width:1; stroke:black; " description="&lt;b&gt;F8N22_RS00315&lt;/b&gt;&lt;br&gt;cysteine hydrolase&lt;br&gt;Location: 75655 - 76215&lt;br&gt;&lt;br&gt;&lt;b&gt;BlastP hit with ctg28_32&lt;/b&gt;&lt;br&gt;Percentage identity: 80&lt;br&gt;Percentage coverage: 97&lt;br&gt;BLAST bit score: 311&lt;br&gt;E-value: 5.51e-108" locus_tag="F8N22_RS00315" class="clusterblast-orf" id="dummy-1_h1_10_0"  />
</g>
<g id="a1_001"  >
<polygon points="20,90 30,90 35,85 30,80 20,80 20,90 " style="fill:white; stroke-width:1; stroke:black; " description="&lt;b&gt;F8N22_RS00320&lt;/b&gt;&lt;br&gt;GNAT family N-acetyltransferase&lt;br&gt;Location: 76380 - 76925" locus_tag="F8N22_RS00320" class="clusterblast-orf" id="dummy-1_h1_10_1"  />
</g>
<g id="a1_002"  >
<polygon points="34,90 43,90 48,85 43,80 34,80 34,90 " style="fill:white; stroke-width:1; stroke:black; " description="&lt;b&gt;F8N22_RS00325&lt;/b&gt;&lt;br&gt;hypothetical protein&lt;br&gt;Location: 76912 - 77388" locus_tag="F8N22_RS00325" class="clusterblast-orf" id="dummy-1_h1_10_2"  />
</g>
<g id="a1_003"  >
<polygon points="48,90 54,90 59,85 54,80 48,80 48,90 " style="fill:white; stroke-width:1; stroke:black; " description="&lt;b&gt;F8N22_RS00330&lt;/b&gt;&lt;br&gt;hypothetical protein&lt;br&gt;Location: 77385 - 77804" locus_tag="F8N22_RS00330" class="clusterblast-orf" id="dummy-1_h1_10_3"  />
</g>
<g id="a1_004"  >
<polygon points="60,90 70,90 75,85 70,80 60,80 60,90 " style="fill:white; stroke-width:1; stroke:black; " description="&lt;b&gt;F8N22_RS00335&lt;/b&gt;&lt;br&gt;GNAT family N-acetyltransferase&lt;br&gt;Location: 77836 - 78383" locus_tag="F8N22_RS00335" class="clusterblast-orf" id="dummy-1_h1_10_4"  />
</g>
<g id="a1_005"  >
<polygon points="80,85 85,80 92,80 92,90 85,90 80,85 " style="fill:white; stroke-width:1; stroke:black; " description="&lt;b&gt;F8N22_RS00340&lt;/b&gt;&lt;br&gt;hypothetical protein&lt;br&gt;Location: 78553 - 78993" locus_tag="F8N22_RS00340" class="clusterblast-orf" id="dummy-1_h1_10_5"  />
</g>
<g id="a1_006"  >
<polygon points="97,85 102,80 111,80 111,90 102,90 97,85 " style="fill:white; stroke-width:1; stroke:black; " description="&lt;b&gt;F8N22_RS00345&lt;/b&gt;&lt;br&gt;hypothetical protein&lt;br&gt;Location: 79150 - 79665" locus_tag="F8N22_RS00345" class="clusterblast-orf" id="dummy-1_h1_10_6"  />
</g>
<g id="a1_007"  >
<polygon points="117,90 124,90 129,85 124,80 117,80 117,90 " style="fill:#d84215; stroke-width:1; stroke:black; " description="&lt;b&gt;F8N22_RS00350&lt;/b&gt;&lt;br&gt;VOC family protein&lt;br&gt;Location: 79882 - 80313&lt;br&gt;&lt;br&gt;&lt;b&gt;BlastP hit with ctg28_30&lt;/b&gt;&lt;br&gt;Percentage identity: 76&lt;br&gt;Percentage coverage: 91&lt;br&gt;BLAST bit score: 218&lt;br&gt;E-value: 3.74e-72" locus_tag="F8N22_RS00350" class="clusterblast-orf" id="dummy-1_h1_10_7"  />
</g>
<g id="a1_008"  >
<polygon points="136,85 141,80 158,80 158,90 141,90 136,85 " style="fill:white; stroke-width:1; stroke:black; " description="&lt;b&gt;F8N22_RS00355&lt;/b&gt;&lt;br&gt;Suppressor of fused protein (SUFU)&lt;br&gt;Location: 80559 - 81359" locus_tag="F8N22_RS00355" class="clusterblast-orf" id="dummy-1_h1_10_8"  />
</g>
<g id="a1_009"  >
<polygon points="159,85 164,80 177,80 177,90 164,90 159,85 " style="fill:#15d824; stroke-width:1; stroke:black; " description="&lt;b&gt;F8N22_RS00360&lt;/b&gt;&lt;br&gt;TetR/AcrR family transcriptional regulator&lt;br&gt;Location: 81388 - 82020&lt;br&gt;&lt;br&gt;&lt;b&gt;BlastP hit with ctg28_35&lt;/b&gt;&lt;br&gt;Percentage identity: 81&lt;br&gt;Percentage coverage: 100&lt;br&gt;BLAST bit score: 317&lt;br&gt;E-value: 1.91e-109" locus_tag="F8N22_RS00360" class="clusterblast-orf" id="dummy-1_h1_10_9"  />
</g>
<g id="a1_0010"  >
<polygon points="180,90 193,90 198,85 193,80 180,80 180,90 " style="fill:#1551d8; stroke-width:1; stroke:black; " description="&lt;b&gt;F8N22_RS00365&lt;/b&gt;&lt;br&gt;methyltransferase&lt;br&gt;Location: 82132 - 82788&lt;br&gt;&lt;br&gt;&lt;b&gt;BlastP hit with ctg28_36&lt;/b&gt;&lt;br&gt;Percentage identity: 84&lt;br&gt;Percentage coverage: 100&lt;br&gt;BLAST bit score: 362&lt;br&gt;E-value: 3.69e-127" locus_tag="F8N22_RS00365" class="clusterblast-orf" id="dummy-1_h1_10_10"  />
</g>
<g id="a1_0011"  >
<polygon points="200,85 205,80 217,80 217,90 205,90 200,85 " style="fill:#d815c9; stroke-width:1; stroke:black; " description="&lt;b&gt;F8N22_RS00370&lt;/b&gt;&lt;br&gt;LysE family translocator&lt;br&gt;Location: 82861 - 83481&lt;br&gt;&lt;br&gt;&lt;b&gt;BlastP hit with ctg28_37&lt;/b&gt;&lt;br&gt;Percentage identity: 88&lt;br&gt;Percentage coverage: 100&lt;br&gt;BLAST bit score: 362&lt;br&gt;E-value: 3.01e-127" locus_tag="F8N22_RS00370" class="clusterblast-orf" id="dummy-1_h1_10_11"  />
</g>
<g id="a1_0012"  >
<polygon points="221,85 226,80 264,80 264,90 226,90 221,85 " style="fill:#8d15d8; stroke-width:1; stroke:black; " description="&lt;b&gt;F8N22_RS00375&lt;/b&gt;&lt;br&gt;methyl-accepting chemotaxis protein&lt;br&gt;Location: 83609 - 85174&lt;br&gt;&lt;br&gt;&lt;b&gt;BlastP hit with ctg28_29&lt;/b&gt;&lt;br&gt;Percentage identity: 33&lt;br&gt;Percentage coverage: 49&lt;br&gt;BLAST bit score: 137&lt;br&gt;E-value: 2.81e-32" locus_tag="F8N22_RS00375" class="clusterblast-orf" id="dummy-1_h1_10_12"  />
</g>
<g id="a1_0013"  >
<polygon points="269,90 325,90 330,85 325,80 269,80 269,90 " style="fill:#d89c15; stroke-width:1; stroke:black; " description="&lt;b&gt;F8N22_RS00380&lt;/b&gt;&lt;br&gt;OsmC domain/YcaO domain-containing protein&lt;br&gt;Location: 85338 - 87536&lt;br&gt;&lt;br&gt;&lt;b&gt;BlastP hit with ctg28_38&lt;/b&gt;&lt;br&gt;Percentage identity: 95&lt;br&gt;Percentage coverage: 100&lt;br&gt;BLAST bit score: 1420&lt;br&gt;E-value: 0.0" locus_tag="F8N22_RS00380" class="clusterblast-orf" id="dummy-1_h1_10_13"  />
</g>
<g id="a1_0014"  >
<polygon points="333,85 338,80 366,80 366,90 338,90 333,85 " style="fill:#15d851; stroke-width:1; stroke:black; " description="&lt;b&gt;F8N22_RS00385&lt;/b&gt;&lt;br&gt;cystathionine gamma-synthase&lt;br&gt;Location: 87657 - 88823&lt;br&gt;&lt;br&gt;&lt;b&gt;BlastP hit with ctg28_40&lt;/b&gt;&lt;br&gt;Percentage identity: 94&lt;br&gt;Percentage coverage: 100&lt;br&gt;BLAST bit score: 739&lt;br&gt;E-value: 1.14e-270" locus_tag="F8N22_RS00385" class="clusterblast-orf" id="dummy-1_h1_10_14"  />
</g>
<g id="a1_0015"  >
<polygon points="366,85 371,80 404,80 404,90 371,90 366,85 " style="fill:#1524d8; stroke-width:1; stroke:black; " description="&lt;b&gt;F8N22_RS00390&lt;/b&gt;&lt;br&gt;pyridoxal-phosphate dependent enzyme&lt;br&gt;Location: 88820 - 90196&lt;br&gt;&lt;br&gt;&lt;b&gt;BlastP hit with ctg28_41&lt;/b&gt;&lt;br&gt;Percentage identity: 97&lt;br&gt;Percentage coverage: 100&lt;br&gt;BLAST bit score: 871&lt;br&gt;E-value: 0.0" locus_tag="F8N22_RS00390" class="clusterblast-orf" id="dummy-1_h1_10_15"  />
</g>
<g id="a1_0016"  >
<polygon points="407,85 412,80 431,80 431,90 412,90 407,85 " style="fill:#d8159c; stroke-width:1; stroke:black; " description="&lt;b&gt;F8N22_RS00395&lt;/b&gt;&lt;br&gt;4-hydroxy-tetrahydrodipicolinate synthase&lt;br&gt;Location: 90313 - 91176&lt;br&gt;&lt;br&gt;&lt;b&gt;BlastP hit with ctg28_42&lt;/b&gt;&lt;br&gt;Percentage identity: 86&lt;br&gt;Percentage coverage: 99&lt;br&gt;BLAST bit score: 463&lt;br&gt;E-value: 8.65e-165" locus_tag="F8N22_RS00395" class="clusterblast-orf" id="dummy-1_h1_10_16"  />
</g>
<g id="a1_0017"  >
<polygon points="439,85 444,80 478,80 478,90 444,90 439,85 " style="fill:white; stroke-width:1; stroke:black; " description="&lt;b&gt;F8N22_RS00400&lt;/b&gt;&lt;br&gt;hypothetical protein&lt;br&gt;Location: 91470 - 92861" locus_tag="F8N22_RS00400" class="clusterblast-orf" id="dummy-1_h1_10_17"  />
</g>
<g id="a1_0018"  >
<polygon points="482,85 487,80 495,80 495,90 487,90 482,85 " style="fill:white; stroke-width:1; stroke:black; " description="&lt;b&gt;F8N22_RS00405&lt;/b&gt;&lt;br&gt;VOC family protein&lt;br&gt;Location: 92986 - 93465" locus_tag="F8N22_RS00405" class="clusterblast-orf" id="dummy-1_h1_10_18"  />
</g>
<g id="a1_0019"  >
<polygon points="496,85 501,80 507,80 507,90 501,90 496,85 " style="fill:#15d87e; stroke-width:1; stroke:black; " description="&lt;b&gt;F8N22_RS00410&lt;/b&gt;&lt;br&gt;ester cyclase&lt;br&gt;Location: 93500 - 93892&lt;br&gt;&lt;br&gt;&lt;b&gt;BlastP hit with ctg28_44&lt;/b&gt;&lt;br&gt;Percentage identity: 81&lt;br&gt;Percentage coverage: 98&lt;br&gt;BLAST bit score: 220&lt;br&gt;E-value: 8.99e-74" locus_tag="F8N22_RS00410" class="clusterblast-orf" id="dummy-1_h1_10_19"  />
</g>
<g id="a1_0020"  >
<polygon points="508,85 513,80 525,80 525,90 513,90 508,85 " style="fill:#3315d8; stroke-width:1; stroke:black; " description="&lt;b&gt;F8N22_RS00415&lt;/b&gt;&lt;br&gt;LysE family translocator&lt;br&gt;Location: 93931 - 94551&lt;br&gt;&lt;br&gt;&lt;b&gt;BlastP hit with ctg28_45&lt;/b&gt;&lt;br&gt;Percentage identity: 89&lt;br&gt;Percentage coverage: 100&lt;br&gt;BLAST bit score: 357&lt;br&gt;E-value: 2.88e-125" locus_tag="F8N22_RS00415" class="clusterblast-orf" id="dummy-1_h1_10_20"  />
</g>
<g id="a1_0021"  >
<polygon points="528,85 533,80 543,80 543,90 533,90 528,85 " style="fill:white; stroke-width:1; stroke:black; " description="&lt;b&gt;F8N22_RS00420&lt;/b&gt;&lt;br&gt;adenylate kinase&lt;br&gt;Location: 94647 - 95183" locus_tag="F8N22_RS00420" class="clusterblast-orf" id="dummy-1_h1_10_21"  />
</g>
<g id="a1_0022"  >
<polygon points="545,85 550,80 555,80 555,90 550,90 545,85 " style="fill:white; stroke-width:1; stroke:black; " description="&lt;b&gt;F8N22_RS00425&lt;/b&gt;&lt;br&gt;VOC family protein&lt;br&gt;Location: 95250 - 95621" locus_tag="F8N22_RS00425" class="clusterblast-orf" id="dummy-1_h1_10_22"  />
</g>
<g id="a1_0023"  >
<polygon points="559,90 575,90 580,85 575,80 559,80 559,90 " style="fill:white; stroke-width:1; stroke:black; " description="&lt;b&gt;F8N22_RS00430&lt;/b&gt;&lt;br&gt;NAD(P)-binding domain-containing protein&lt;br&gt;Location: 95752 - 96519" locus_tag="F8N22_RS00430" class="clusterblast-orf" id="dummy-1_h1_10_23"  />
</g>
<g id="a1_0024"  >
<polygon points="580,85 585,80 592,80 592,90 585,90 580,85 " style="fill:white; stroke-width:1; stroke:black; " description="&lt;b&gt;F8N22_RS00435&lt;/b&gt;&lt;br&gt;thiol-disulfide oxidoreductase DCC family protein&lt;br&gt;Location: 96514 - 96966" locus_tag="F8N22_RS00435" class="clusterblast-orf" id="dummy-1_h1_10_24"  />
</g>
<g id="a1_0025"  >
<polygon points="607,85 612,80 644,80 644,90 612,90 607,85 " style="fill:white; stroke-width:1; stroke:black; " description="&lt;b&gt;F8N22_RS00440&lt;/b&gt;&lt;br&gt;MFS transporter&lt;br&gt;Location: 97495 - 98832" locus_tag="F8N22_RS00440" class="clusterblast-orf" id="dummy-1_h1_10_25"  />
</g>
<g id="a1_0026"  >
<polygon points="655,85 660,80 696,80 696,90 660,90 655,85 " style="fill:#8d15d8; stroke-width:1; stroke:black; " description="&lt;b&gt;F8N22_RS00445&lt;/b&gt;&lt;br&gt;methyl-accepting chemotaxis protein&lt;br&gt;Location: 99206 - 100699&lt;br&gt;&lt;br&gt;&lt;b&gt;BlastP hit with ctg28_29&lt;/b&gt;&lt;br&gt;Percentage identity: 31&lt;br&gt;Percentage coverage: 48&lt;br&gt;BLAST bit score: 113&lt;br&gt;E-value: 1.57e-24" locus_tag="F8N22_RS00445" class="clusterblast-orf" id="dummy-1_h1_10_26"  />
</g>
<g id="a1_0027"  >
<polygon points="701,85 706,80 761,80 761,90 706,90 701,85 " style="fill:white; stroke-width:1; stroke:black; " description="&lt;b&gt;F8N22_RS00450&lt;/b&gt;&lt;br&gt;TonB-dependent siderophore receptor&lt;br&gt;Location: 100865 - 103018" locus_tag="F8N22_RS00450" class="clusterblast-orf" id="dummy-1_h1_10_27"  />
</g>
<g id="a1_0028"  >
<polygon points="766,85 771,80 780,80 780,90 771,90 766,85 " style="fill:white; stroke-width:1; stroke:black; " description="&lt;b&gt;F8N22_RS00455&lt;/b&gt;&lt;br&gt;Lrp/AsnC family transcriptional regulator&lt;br&gt;Location: 103203 - 103694" locus_tag="F8N22_RS00455" class="clusterblast-orf" id="dummy-1_h1_10_28"  />
</g>
</svg>
