<svg xmlns="http://www.w3.org/2000/svg" xmlns:xlink="http://www.w3.org/1999/xlink" version="1.1" x="0" y="0" height="230" width="800" viewBox="0 0 800 230" preserveAspectRatio="none"  >
<g label="Query sequence" class="clusterblast-cluster"  >
<text x="5" y="20" class="clusterblast-acc"  >
Query sequence</text>
<line x1="10" y1="35" x2="778.0" y2="35" style="stroke-width:1; stroke:grey; "  />
<polygon points="4,40 12,40 17,35 12,30 4,30 4,40 " style="fill:#d81515; stroke-width:1; stroke:black; " description="&lt;b&gt;ctg4_233&lt;/b&gt;&lt;br&gt;ctg4 233&lt;br&gt;Location: 257197 - 257389" locus_tag="ctg4_233" class="clusterblast-orf" id="dummy-3_q0_0_all"  />
<polygon points="37,40 170,40 175,35 170,30 37,30 37,40 " style="fill:#3cd815; stroke-width:1; stroke:black; " description="&lt;b&gt;ctg4_234&lt;/b&gt;&lt;br&gt;ctg4 234&lt;br&gt;Location: 257696 - 259784" locus_tag="ctg4_234" class="clusterblast-orf" id="dummy-3_q1_0_all"  />
<polygon points="178,35 183,30 189,30 189,40 183,40 178,35 " style="fill:#1563d8; stroke-width:1; stroke:black; " description="&lt;b&gt;ctg4_235&lt;/b&gt;&lt;br&gt;ctg4 235&lt;br&gt;Location: 259838 - 259991" locus_tag="ctg4_235" class="clusterblast-orf" id="dummy-3_q2_0_all"  />
<polygon points="210,40 259,40 264,35 259,30 210,30 210,40 " style="fill:#b115d8; stroke-width:1; stroke:black; " description="&lt;b&gt;ctg4_236&lt;/b&gt;&lt;br&gt;ctg4 236&lt;br&gt;Location: 260321 - 261137" locus_tag="ctg4_236" class="clusterblast-orf" id="dummy-3_q3_0_all"  />
<polygon points="281,40 289,40 294,35 289,30 281,30 281,40 " style="fill:#d88a15; stroke-width:1; stroke:black; " description="&lt;b&gt;ctg4_237&lt;/b&gt;&lt;br&gt;ctg4 237&lt;br&gt;Location: 261389 - 261593" locus_tag="ctg4_237" class="clusterblast-orf" id="dummy-3_q4_0_all"  />
<polygon points="295,35 300,30 310,30 310,40 300,40 295,35 " style="fill:#15d863; stroke-width:1; stroke:black; " description="&lt;b&gt;ctg4_238&lt;/b&gt;&lt;br&gt;ctg4 238&lt;br&gt;Location: 261600 - 261828" locus_tag="ctg4_238" class="clusterblast-orf" id="dummy-3_q5_0_all"  />
<polygon points="313,35 318,30 392,30 392,40 318,40 313,35 " style="fill:#3c15d8; stroke-width:1; stroke:black; " description="&lt;b&gt;ctg4_239&lt;/b&gt;&lt;br&gt;ctg4 239&lt;br&gt;Location: 261887 - 263072" locus_tag="ctg4_239" class="clusterblast-orf" id="dummy-3_q6_0_all"  />
<polygon points="403,35 408,30 518,30 518,40 408,40 403,35 " style="fill:#d8158a; stroke-width:1; stroke:black; " description="&lt;b&gt;ctg4_240&lt;/b&gt;&lt;br&gt;ctg4 240&lt;br&gt;Location: 263243 - 264992" locus_tag="ctg4_240" class="clusterblast-orf" id="dummy-3_q7_0_all"  />
<polygon points="518,35 523,30 635,30 635,40 523,40 518,35 " style="fill:#b1d815; stroke-width:1; stroke:black; " description="&lt;b&gt;ctg4_241&lt;/b&gt;&lt;br&gt;ctg4 241&lt;br&gt;Location: 264995 - 266768" locus_tag="ctg4_241" class="clusterblast-orf" id="dummy-3_q8_0_all"  />
<polygon points="644,35 649,30 776,30 776,40 649,40 644,35 " style="fill:#15d8d8; stroke-width:1; stroke:black; " description="&lt;b&gt;ctg4_242&lt;/b&gt;&lt;br&gt;ctg4 242&lt;br&gt;Location: 266903 - 268904" locus_tag="ctg4_242" class="clusterblast-orf" id="dummy-3_q9_0_all"  />
</g>
<g label="NZ_JACAOZ010000019" description="NZ_JACAOZ010000019 (29750-44622): Pseudomonas edaphica strain B7002 run0228 B... (100% of genes show similarity), NAGGN" class="clusterblast-cluster"  >
<text x="5" y="70" class="clusterblast-acc"  >
<a xlink:href="https://antismash-db.secondarymetabolites.org/area.html?record=NZ_JACAOZ010000019&amp;start=29750&amp;end=44622" target="_blank">NZ_JACAOZ010000019 (29750-44622)</a>: Pseudomonas edaphica strain B7002 run0228 B... (100% of genes show similarity), NAGGN</text>
<line x1="10" y1="85" x2="778.0" y2="85" style="stroke-width:1; stroke:grey; "  />
</g>
<g id="a3_000"  >
<polygon points="0,90 7,90 12,85 7,80 0,80 0,90 " style="fill:#d81515; stroke-width:1; stroke:black; " description="&lt;b&gt;HX797_RS20055&lt;/b&gt;&lt;br&gt;PLDc N-terminal domain-containing protein&lt;br&gt;Location: 44434 - 44243&lt;br&gt;&lt;br&gt;&lt;b&gt;BlastP hit with ctg4_233&lt;/b&gt;&lt;br&gt;Percentage identity: 100&lt;br&gt;Percentage coverage: 100&lt;br&gt;BLAST bit score: 120&lt;br&gt;E-value: 2.37e-36" locus_tag="HX797_RS20055" class="clusterblast-orf" id="dummy-3_h3_6_0"  />
</g>
<g id="a3_001"  >
<polygon points="39,90 172,90 177,85 172,80 39,80 39,90 " style="fill:#3cd815; stroke-width:1; stroke:black; " description="&lt;b&gt;HX797_RS20050&lt;/b&gt;&lt;br&gt;LTA synthase family protein&lt;br&gt;Location: 43834 - 41747&lt;br&gt;&lt;br&gt;&lt;b&gt;BlastP hit with ctg4_234&lt;/b&gt;&lt;br&gt;Percentage identity: 98&lt;br&gt;Percentage coverage: 100&lt;br&gt;BLAST bit score: 1380&lt;br&gt;E-value: 0.0" locus_tag="HX797_RS20050" class="clusterblast-orf" id="dummy-3_h3_6_1"  />
</g>
<g id="a3_002"  >
<polygon points="180,85 185,80 190,80 190,90 185,90 180,85 " style="fill:#1563d8; stroke-width:1; stroke:black; " description="&lt;b&gt;HX797_RS20045&lt;/b&gt;&lt;br&gt;DUF3309 domain-containing protein&lt;br&gt;Location: 41691 - 41539&lt;br&gt;&lt;br&gt;&lt;b&gt;BlastP hit with ctg4_235&lt;/b&gt;&lt;br&gt;Percentage identity: 100&lt;br&gt;Percentage coverage: 100&lt;br&gt;BLAST bit score: 81&lt;br&gt;E-value: 1.06e-20" locus_tag="HX797_RS20045" class="clusterblast-orf" id="dummy-3_h3_6_2"  />
</g>
<g id="a3_003"  >
<polygon points="212,90 261,90 266,85 261,80 212,80 212,90 " style="fill:#b115d8; stroke-width:1; stroke:black; " description="&lt;b&gt;HX797_RS20040&lt;/b&gt;&lt;br&gt;SDR family oxidoreductase&lt;br&gt;Location: 41209 - 40394&lt;br&gt;&lt;br&gt;&lt;b&gt;BlastP hit with ctg4_236&lt;/b&gt;&lt;br&gt;Percentage identity: 98&lt;br&gt;Percentage coverage: 100&lt;br&gt;BLAST bit score: 527&lt;br&gt;E-value: 1.77e-190" locus_tag="HX797_RS20040" class="clusterblast-orf" id="dummy-3_h3_6_3"  />
</g>
<g id="a3_004"  >
<polygon points="282,90 290,90 295,85 290,80 282,80 282,90 " style="fill:#d88a15; stroke-width:1; stroke:black; " description="&lt;b&gt;HX797_RS20035&lt;/b&gt;&lt;br&gt;carbon storage regulator CsrA&lt;br&gt;Location: 40144 - 39947&lt;br&gt;&lt;br&gt;&lt;b&gt;BlastP hit with ctg4_237&lt;/b&gt;&lt;br&gt;Percentage identity: 80&lt;br&gt;Percentage coverage: 88&lt;br&gt;BLAST bit score: 96&lt;br&gt;E-value: 3.49e-26" locus_tag="HX797_RS20035" class="clusterblast-orf" id="dummy-3_h3_6_4"  />
</g>
<g id="a3_005"  >
<polygon points="296,85 301,80 311,80 311,90 301,90 296,85 " style="fill:#15d863; stroke-width:1; stroke:black; " description="&lt;b&gt;HX797_RS20030&lt;/b&gt;&lt;br&gt;YheU family protein&lt;br&gt;Location: 39939 - 39712&lt;br&gt;&lt;br&gt;&lt;b&gt;BlastP hit with ctg4_238&lt;/b&gt;&lt;br&gt;Percentage identity: 99&lt;br&gt;Percentage coverage: 100&lt;br&gt;BLAST bit score: 153&lt;br&gt;E-value: 8.24e-49" locus_tag="HX797_RS20030" class="clusterblast-orf" id="dummy-3_h3_6_5"  />
</g>
<g id="a3_006"  >
<polygon points="317,85 322,80 395,80 395,90 322,90 317,85 " style="fill:#3c15d8; stroke-width:1; stroke:black; " description="&lt;b&gt;HX797_RS20025&lt;/b&gt;&lt;br&gt;osmoprotectant NAGGN system M42 family peptidase&lt;br&gt;Location: 39622 - 38438&lt;br&gt;&lt;br&gt;&lt;b&gt;BlastP hit with ctg4_239&lt;/b&gt;&lt;br&gt;Percentage identity: 99&lt;br&gt;Percentage coverage: 100&lt;br&gt;BLAST bit score: 783&lt;br&gt;E-value: 1.08e-287" locus_tag="HX797_RS20025" class="clusterblast-orf" id="dummy-3_h3_6_6"  />
</g>
<g id="a3_007"  >
<polygon points="406,85 411,80 521,80 521,90 411,90 406,85 " style="fill:#d8158a; stroke-width:1; stroke:black; " description="&lt;b&gt;HX797_RS20020&lt;/b&gt;&lt;br&gt;N-acetylglutaminylglutamine synthetase&lt;br&gt;Location: 38272 - 36527&lt;br&gt;&lt;br&gt;&lt;b&gt;BlastP hit with ctg4_240&lt;/b&gt;&lt;br&gt;Percentage identity: 97&lt;br&gt;Percentage coverage: 100&lt;br&gt;BLAST bit score: 1140&lt;br&gt;E-value: 0.0" locus_tag="HX797_RS20020" class="clusterblast-orf" id="dummy-3_h3_6_7"  />
</g>
<g id="a3_008"  >
<polygon points="521,85 526,80 638,80 638,90 526,90 521,85 " style="fill:#b1d815; stroke-width:1; stroke:black; " description="&lt;b&gt;HX797_RS20015&lt;/b&gt;&lt;br&gt;N-acetylglutaminylglutamine amidotransferase&lt;br&gt;Location: 36523 - 34751&lt;br&gt;&lt;br&gt;&lt;b&gt;BlastP hit with ctg4_241&lt;/b&gt;&lt;br&gt;Percentage identity: 99&lt;br&gt;Percentage coverage: 100&lt;br&gt;BLAST bit score: 1186&lt;br&gt;E-value: 0.0" locus_tag="HX797_RS20015" class="clusterblast-orf" id="dummy-3_h3_6_8"  />
</g>
<g id="a3_009"  >
<polygon points="648,85 653,80 780,80 780,90 653,90 648,85 " style="fill:#15d8d8; stroke-width:1; stroke:black; " description="&lt;b&gt;HX797_RS20010&lt;/b&gt;&lt;br&gt;bifunctional tRNA (5-methylaminomethyl-2-thiouridine)(34)-methyltransferase MnmD/FAD-dependent 5-carboxymethylaminomethyl-2-thiouridine(34) oxidoreductase MnmC&lt;br&gt;Location: 34586 - 32598&lt;br&gt;&lt;br&gt;&lt;b&gt;BlastP hit with ctg4_242&lt;/b&gt;&lt;br&gt;Percentage identity: 92&lt;br&gt;Percentage coverage: 99&lt;br&gt;BLAST bit score: 1238&lt;br&gt;E-value: 0.0" locus_tag="HX797_RS20010" class="clusterblast-orf" id="dummy-3_h3_6_9"  />
</g>
</svg>
