<svg xmlns="http://www.w3.org/2000/svg" xmlns:xlink="http://www.w3.org/1999/xlink" version="1.1" x="0" y="0" height="230" width="800" viewBox="0 0 800 230" preserveAspectRatio="none"  >
<g label="Query sequence" class="clusterblast-cluster"  >
<text x="5" y="20" class="clusterblast-acc"  >
Query sequence</text>
<line x1="10" y1="35" x2="778.0" y2="35" style="stroke-width:1; stroke:grey; "  />
<polygon points="60,35 65,30 70,30 70,40 65,40 60,35 " style="fill:#d81515; stroke-width:1; stroke:black; " description="&lt;b&gt;ctg28_26&lt;/b&gt;&lt;br&gt;ctg28 26&lt;br&gt;Location: 23474 - 23891" locus_tag="ctg28_26" class="clusterblast-orf" id="dummy-1_q0_0_all"  />
<polygon points="77,40 84,40 89,35 84,30 77,30 77,40 " style="fill:#60d815; stroke-width:1; stroke:black; " description="&lt;b&gt;ctg28_27&lt;/b&gt;&lt;br&gt;ctg28 27&lt;br&gt;Location: 24149 - 24629" locus_tag="ctg28_27" class="clusterblast-orf" id="dummy-1_q1_0_all"  />
<polygon points="89,40 103,40 108,35 103,30 89,30 89,40 " style="fill:#15abd8; stroke-width:1; stroke:black; " description="&lt;b&gt;ctg28_28&lt;/b&gt;&lt;br&gt;ctg28 28&lt;br&gt;Location: 24625 - 25396" locus_tag="ctg28_28" class="clusterblast-orf" id="dummy-1_q2_0_all"  />
<polygon points="110,35 115,30 159,30 159,40 115,40 110,35 " style="fill:#8d15d8; stroke-width:1; stroke:black; " description="&lt;b&gt;ctg28_29&lt;/b&gt;&lt;br&gt;ctg28 29&lt;br&gt;Location: 25475 - 27416" locus_tag="ctg28_29" class="clusterblast-orf" id="dummy-1_q3_0_all"  />
<polygon points="166,40 173,40 178,35 173,30 166,30 166,40 " style="fill:#d84215; stroke-width:1; stroke:black; " description="&lt;b&gt;ctg28_30&lt;/b&gt;&lt;br&gt;ctg28 30&lt;br&gt;Location: 27717 - 28173" locus_tag="ctg28_30" class="clusterblast-orf" id="dummy-1_q4_0_all"  />
<polygon points="178,40 184,40 189,35 184,30 178,30 178,40 " style="fill:#33d815; stroke-width:1; stroke:black; " description="&lt;b&gt;ctg28_31&lt;/b&gt;&lt;br&gt;ctg28 31&lt;br&gt;Location: 28165 - 28615" locus_tag="ctg28_31" class="clusterblast-orf" id="dummy-1_q5_0_all"  />
<polygon points="190,35 195,30 205,30 205,40 195,40 190,35 " style="fill:#157ed8; stroke-width:1; stroke:black; " description="&lt;b&gt;ctg28_32&lt;/b&gt;&lt;br&gt;ctg28 32&lt;br&gt;Location: 28658 - 29237" locus_tag="ctg28_32" class="clusterblast-orf" id="dummy-1_q6_0_all"  />
<polygon points="207,35 212,30 240,30 240,40 212,40 207,35 " style="fill:#ba15d8; stroke-width:1; stroke:black; " description="&lt;b&gt;ctg28_33&lt;/b&gt;&lt;br&gt;ctg28 33&lt;br&gt;Location: 29306 - 30620" locus_tag="ctg28_33" class="clusterblast-orf" id="dummy-1_q7_0_all"  />
<polygon points="241,35 245,30 245,40 241,35 " style="fill:#d86f15; stroke-width:1; stroke:black; " description="&lt;b&gt;ctg28_34&lt;/b&gt;&lt;br&gt;ctg28 34&lt;br&gt;Location: 30670 - 30826" locus_tag="ctg28_34" class="clusterblast-orf" id="dummy-1_q8_0_all"  />
<polygon points="247,35 252,30 263,30 263,40 252,40 247,35 " style="fill:#15d824; stroke-width:1; stroke:black; " description="&lt;b&gt;ctg28_35&lt;/b&gt;&lt;br&gt;ctg28 35&lt;br&gt;Location: 30903 - 31536" locus_tag="ctg28_35" class="clusterblast-orf" id="dummy-1_q9_0_all"  />
<polygon points="266,40 277,40 282,35 277,30 266,30 266,40 " style="fill:#1551d8; stroke-width:1; stroke:black; " description="&lt;b&gt;ctg28_36&lt;/b&gt;&lt;br&gt;ctg28 36&lt;br&gt;Location: 31647 - 32304" locus_tag="ctg28_36" class="clusterblast-orf" id="dummy-1_q10_0_all"  />
<polygon points="282,35 287,30 298,30 298,40 287,40 282,35 " style="fill:#d815c9; stroke-width:1; stroke:black; " description="&lt;b&gt;ctg28_37&lt;/b&gt;&lt;br&gt;ctg28 37&lt;br&gt;Location: 32316 - 32937" locus_tag="ctg28_37" class="clusterblast-orf" id="dummy-1_q11_0_all"  />
<polygon points="301,40 352,40 357,35 352,30 301,30 301,40 " style="fill:#d89c15; stroke-width:1; stroke:black; " description="&lt;b&gt;ctg28_38&lt;/b&gt;&lt;br&gt;ctg28 38&lt;br&gt;Location: 33070 - 35269" locus_tag="ctg28_38" class="clusterblast-orf" id="dummy-1_q12_0_all"  />
<polygon points="357,40 361,35 357,30 357,40 " style="fill:white; stroke-width:1; stroke:black; " description="&lt;b&gt;ctg28_39&lt;/b&gt;&lt;br&gt;ctg28 39&lt;br&gt;Location: 35268 - 35436" locus_tag="ctg28_39" class="clusterblast-orf" id="dummy-1_q13_0_all"  />
<polygon points="369,35 374,30 398,30 398,40 374,40 369,35 " style="fill:#15d851; stroke-width:1; stroke:black; " description="&lt;b&gt;ctg28_40&lt;/b&gt;&lt;br&gt;ctg28 40&lt;br&gt;Location: 35732 - 36899" locus_tag="ctg28_40" class="clusterblast-orf" id="dummy-1_q14_0_all"  />
<polygon points="398,35 403,30 433,30 433,40 403,40 398,35 " style="fill:#1524d8; stroke-width:1; stroke:black; " description="&lt;b&gt;ctg28_41&lt;/b&gt;&lt;br&gt;ctg28 41&lt;br&gt;Location: 36895 - 38272" locus_tag="ctg28_41" class="clusterblast-orf" id="dummy-1_q15_0_all"  />
<polygon points="436,35 441,30 457,30 457,40 441,40 436,35 " style="fill:#d8159c; stroke-width:1; stroke:black; " description="&lt;b&gt;ctg28_42&lt;/b&gt;&lt;br&gt;ctg28 42&lt;br&gt;Location: 38416 - 39256" locus_tag="ctg28_42" class="clusterblast-orf" id="dummy-1_q16_0_all"  />
<polygon points="465,35 470,30 489,30 489,40 470,40 465,35 " style="fill:#d8c915; stroke-width:1; stroke:black; " description="&lt;b&gt;ctg28_43&lt;/b&gt;&lt;br&gt;ctg28 43&lt;br&gt;Location: 39541 - 40519" locus_tag="ctg28_43" class="clusterblast-orf" id="dummy-1_q17_0_all"  />
<polygon points="495,35 500,30 504,30 504,40 500,40 495,35 " style="fill:#15d87e; stroke-width:1; stroke:black; " description="&lt;b&gt;ctg28_44&lt;/b&gt;&lt;br&gt;ctg28 44&lt;br&gt;Location: 40734 - 41127" locus_tag="ctg28_44" class="clusterblast-orf" id="dummy-1_q18_0_all"  />
<polygon points="505,35 510,30 521,30 521,40 510,40 505,35 " style="fill:#3315d8; stroke-width:1; stroke:black; " description="&lt;b&gt;ctg28_45&lt;/b&gt;&lt;br&gt;ctg28 45&lt;br&gt;Location: 41157 - 41778" locus_tag="ctg28_45" class="clusterblast-orf" id="dummy-1_q19_0_all"  />
<polygon points="526,35 531,30 552,30 552,40 531,40 526,35 " style="fill:#d8156f; stroke-width:1; stroke:black; " description="&lt;b&gt;ctg28_46&lt;/b&gt;&lt;br&gt;ctg28 46&lt;br&gt;Location: 41999 - 43019" locus_tag="ctg28_46" class="clusterblast-orf" id="dummy-1_q20_0_all"  />
<polygon points="556,35 561,30 575,30 575,40 561,40 556,35 " style="fill:#bad815; stroke-width:1; stroke:black; " description="&lt;b&gt;ctg28_47&lt;/b&gt;&lt;br&gt;ctg28 47&lt;br&gt;Location: 43158 - 43920" locus_tag="ctg28_47" class="clusterblast-orf" id="dummy-1_q21_0_all"  />
<polygon points="580,35 585,30 596,30 596,40 585,40 580,35 " style="fill:#15d8ab; stroke-width:1; stroke:black; " description="&lt;b&gt;ctg28_48&lt;/b&gt;&lt;br&gt;ctg28 48&lt;br&gt;Location: 44110 - 44770" locus_tag="ctg28_48" class="clusterblast-orf" id="dummy-1_q22_0_all"  />
<polygon points="596,35 601,30 611,30 611,40 601,40 596,35 " style="fill:#6015d8; stroke-width:1; stroke:black; " description="&lt;b&gt;ctg28_49&lt;/b&gt;&lt;br&gt;ctg28 49&lt;br&gt;Location: 44766 - 45366" locus_tag="ctg28_49" class="clusterblast-orf" id="dummy-1_q23_0_all"  />
<polygon points="611,35 616,30 630,30 630,40 616,40 611,35 " style="fill:#bad815; stroke-width:1; stroke:black; " description="&lt;b&gt;ctg28_50&lt;/b&gt;&lt;br&gt;ctg28 50&lt;br&gt;Location: 45362 - 46121" locus_tag="ctg28_50" class="clusterblast-orf" id="dummy-1_q24_0_all"  />
<polygon points="630,35 635,30 655,30 655,40 635,40 630,35 " style="fill:#d81542; stroke-width:1; stroke:black; " description="&lt;b&gt;ctg28_51&lt;/b&gt;&lt;br&gt;ctg28 51&lt;br&gt;Location: 46117 - 47116" locus_tag="ctg28_51" class="clusterblast-orf" id="dummy-1_q25_0_all"  />
<polygon points="655,35 660,30 710,30 710,40 660,40 655,35 " style="fill:#8dd815; stroke-width:1; stroke:black; " description="&lt;b&gt;ctg28_52&lt;/b&gt;&lt;br&gt;ctg28 52&lt;br&gt;Location: 47117 - 49274" locus_tag="ctg28_52" class="clusterblast-orf" id="dummy-1_q26_0_all"  />
<polygon points="713,35 718,30 720,30 720,40 718,40 713,35 " style="fill:#15d8d8; stroke-width:1; stroke:black; " description="&lt;b&gt;ctg28_53&lt;/b&gt;&lt;br&gt;ctg28 53&lt;br&gt;Location: 49405 - 49675" locus_tag="ctg28_53" class="clusterblast-orf" id="dummy-1_q27_0_all"  />
</g>
<g label="NZ_CP052856" description="NZ_CP052856 (1295014-1326035): Pseudomonas sp. ADAK22 chromosome, complete ge... (35% of genes show similarity), thiopeptide" class="clusterblast-cluster"  >
<text x="5" y="70" class="clusterblast-acc"  >
<a xlink:href="https://antismash-db.secondarymetabolites.org/area.html?record=NZ_CP052856&amp;start=1295014&amp;end=1326035" target="_blank">NZ_CP052856 (1295014-1326035)</a>: Pseudomonas sp. ADAK22 chromosome, complete ge... (35% of genes show similarity), thiopeptide</text>
<line x1="10" y1="85" x2="778.0" y2="85" style="stroke-width:1; stroke:grey; "  />
</g>
<g id="a1_000"  >
<polygon points="0,85 5,80 14,80 14,90 5,90 0,85 " style="fill:#157ed8; stroke-width:1; stroke:black; " description="&lt;b&gt;HKK58_RS06045&lt;/b&gt;&lt;br&gt;cysteine hydrolase&lt;br&gt;Location: 1325961 - 1325401&lt;br&gt;&lt;br&gt;&lt;b&gt;BlastP hit with ctg28_32&lt;/b&gt;&lt;br&gt;Percentage identity: 84&lt;br&gt;Percentage coverage: 96&lt;br&gt;BLAST bit score: 324&lt;br&gt;E-value: 5.15e-113" locus_tag="HKK58_RS06045" class="clusterblast-orf" id="dummy-1_h1_9_0"  />
</g>
<g id="a1_001"  >
<polygon points="17,90 47,90 52,85 47,80 17,80 17,90 " style="fill:white; stroke-width:1; stroke:black; " description="&lt;b&gt;HKK58_RS06040&lt;/b&gt;&lt;br&gt;hypothetical protein&lt;br&gt;Location: 1325274 - 1323889" locus_tag="HKK58_RS06040" class="clusterblast-orf" id="dummy-1_h1_9_1"  />
</g>
<g id="a1_002"  >
<polygon points="53,90 61,90 66,85 61,80 53,80 53,90 " style="fill:white; stroke-width:1; stroke:black; " description="&lt;b&gt;HKK58_RS06035&lt;/b&gt;&lt;br&gt;GNAT family N-acetyltransferase&lt;br&gt;Location: 1323858 - 1323337" locus_tag="HKK58_RS06035" class="clusterblast-orf" id="dummy-1_h1_9_2"  />
</g>
<g id="a1_003"  >
<polygon points="66,90 76,90 81,85 76,80 66,80 66,90 " style="fill:white; stroke-width:1; stroke:black; " description="&lt;b&gt;HKK58_RS06030&lt;/b&gt;&lt;br&gt;hypothetical protein&lt;br&gt;Location: 1323320 - 1322712" locus_tag="HKK58_RS06030" class="clusterblast-orf" id="dummy-1_h1_9_3"  />
</g>
<g id="a1_004"  >
<polygon points="82,85 87,80 115,80 115,90 87,90 82,85 " style="fill:#ba15d8; stroke-width:1; stroke:black; " description="&lt;b&gt;HKK58_RS06025&lt;/b&gt;&lt;br&gt;FAD-dependent oxidoreductase&lt;br&gt;Location: 1322706 - 1321393&lt;br&gt;&lt;br&gt;&lt;b&gt;BlastP hit with ctg28_33&lt;/b&gt;&lt;br&gt;Percentage identity: 92&lt;br&gt;Percentage coverage: 100&lt;br&gt;BLAST bit score: 821&lt;br&gt;E-value: 3.62e-301" locus_tag="HKK58_RS06025" class="clusterblast-orf" id="dummy-1_h1_9_4"  />
</g>
<g id="a1_005"  >
<polygon points="122,85 127,80 143,80 143,90 127,90 122,85 " style="fill:white; stroke-width:1; stroke:black; " description="&lt;b&gt;HKK58_RS06020&lt;/b&gt;&lt;br&gt;suppressor of fused domain protein&lt;br&gt;Location: 1321086 - 1320271" locus_tag="HKK58_RS06020" class="clusterblast-orf" id="dummy-1_h1_9_5"  />
</g>
<g id="a1_006"  >
<polygon points="144,85 149,80 160,80 160,90 149,90 144,85 " style="fill:#15d824; stroke-width:1; stroke:black; " description="&lt;b&gt;HKK58_RS06015&lt;/b&gt;&lt;br&gt;TetR family transcriptional regulator&lt;br&gt;Location: 1320242 - 1319610&lt;br&gt;&lt;br&gt;&lt;b&gt;BlastP hit with ctg28_35&lt;/b&gt;&lt;br&gt;Percentage identity: 88&lt;br&gt;Percentage coverage: 99&lt;br&gt;BLAST bit score: 345&lt;br&gt;E-value: 1.02e-120" locus_tag="HKK58_RS06015" class="clusterblast-orf" id="dummy-1_h1_9_6"  />
</g>
<g id="a1_007"  >
<polygon points="162,90 174,90 179,85 174,80 162,80 162,90 " style="fill:#1551d8; stroke-width:1; stroke:black; " description="&lt;b&gt;HKK58_RS06010&lt;/b&gt;&lt;br&gt;class I SAM-dependent methyltransferase&lt;br&gt;Location: 1319498 - 1318842&lt;br&gt;&lt;br&gt;&lt;b&gt;BlastP hit with ctg28_36&lt;/b&gt;&lt;br&gt;Percentage identity: 89&lt;br&gt;Percentage coverage: 100&lt;br&gt;BLAST bit score: 384&lt;br&gt;E-value: 1.08e-135" locus_tag="HKK58_RS06010" class="clusterblast-orf" id="dummy-1_h1_9_7"  />
</g>
<g id="a1_008"  >
<polygon points="179,90 196,90 201,85 196,80 179,80 179,90 " style="fill:white; stroke-width:1; stroke:black; " description="&lt;b&gt;HKK58_RS06005&lt;/b&gt;&lt;br&gt;NAD-dependent epimerase/dehydratase family protein&lt;br&gt;Location: 1318828 - 1317962" locus_tag="HKK58_RS06005" class="clusterblast-orf" id="dummy-1_h1_9_8"  />
</g>
<g id="a1_009"  >
<polygon points="201,90 226,90 231,85 226,80 201,80 201,90 " style="fill:white; stroke-width:1; stroke:black; " description="&lt;b&gt;HKK58_RS06000&lt;/b&gt;&lt;br&gt;arabinose transporter&lt;br&gt;Location: 1317949 - 1316777" locus_tag="HKK58_RS06000" class="clusterblast-orf" id="dummy-1_h1_9_9"  />
</g>
<g id="a1_0010"  >
<polygon points="231,85 236,80 246,80 246,90 236,90 231,85 " style="fill:#d815c9; stroke-width:1; stroke:black; " description="&lt;b&gt;HKK58_RS05995&lt;/b&gt;&lt;br&gt;LysE family transporter&lt;br&gt;Location: 1316790 - 1316170&lt;br&gt;&lt;br&gt;&lt;b&gt;BlastP hit with ctg28_37&lt;/b&gt;&lt;br&gt;Percentage identity: 90&lt;br&gt;Percentage coverage: 100&lt;br&gt;BLAST bit score: 369&lt;br&gt;E-value: 2.69e-130" locus_tag="HKK58_RS05995" class="clusterblast-orf" id="dummy-1_h1_9_10"  />
</g>
<g id="a1_0011"  >
<polygon points="250,90 300,90 305,85 300,80 250,80 250,90 " style="fill:#d89c15; stroke-width:1; stroke:black; " description="&lt;b&gt;HKK58_RS05990&lt;/b&gt;&lt;br&gt;OsmC domain/YcaO domain-containing protein&lt;br&gt;Location: 1316035 - 1313831&lt;br&gt;&lt;br&gt;&lt;b&gt;BlastP hit with ctg28_38&lt;/b&gt;&lt;br&gt;Percentage identity: 97&lt;br&gt;Percentage coverage: 100&lt;br&gt;BLAST bit score: 1445&lt;br&gt;E-value: 0.0" locus_tag="HKK58_RS05990" class="clusterblast-orf" id="dummy-1_h1_9_11"  />
</g>
<g id="a1_0012"  >
<polygon points="335,85 340,80 365,80 365,90 340,90 335,85 " style="fill:#15d851; stroke-width:1; stroke:black; " description="&lt;b&gt;HKK58_RS05985&lt;/b&gt;&lt;br&gt;cystathionine gamma-synthase&lt;br&gt;Location: 1312634 - 1311468&lt;br&gt;&lt;br&gt;&lt;b&gt;BlastP hit with ctg28_40&lt;/b&gt;&lt;br&gt;Percentage identity: 97&lt;br&gt;Percentage coverage: 100&lt;br&gt;BLAST bit score: 755&lt;br&gt;E-value: 9.09e-277" locus_tag="HKK58_RS05985" class="clusterblast-orf" id="dummy-1_h1_9_12"  />
</g>
<g id="a1_0013"  >
<polygon points="365,85 370,80 399,80 399,90 370,90 365,85 " style="fill:#1524d8; stroke-width:1; stroke:black; " description="&lt;b&gt;HKK58_RS05980&lt;/b&gt;&lt;br&gt;cystathionine beta-synthase&lt;br&gt;Location: 1311471 - 1310095&lt;br&gt;&lt;br&gt;&lt;b&gt;BlastP hit with ctg28_41&lt;/b&gt;&lt;br&gt;Percentage identity: 96&lt;br&gt;Percentage coverage: 100&lt;br&gt;BLAST bit score: 868&lt;br&gt;E-value: 0.0" locus_tag="HKK58_RS05980" class="clusterblast-orf" id="dummy-1_h1_9_13"  />
</g>
<g id="a1_0014"  >
<polygon points="403,85 408,80 425,80 425,90 408,90 403,85 " style="fill:#d8159c; stroke-width:1; stroke:black; " description="&lt;b&gt;HKK58_RS05975&lt;/b&gt;&lt;br&gt;4-hydroxy-tetrahydrodipicolinate synthase&lt;br&gt;Location: 1309951 - 1309088&lt;br&gt;&lt;br&gt;&lt;b&gt;BlastP hit with ctg28_42&lt;/b&gt;&lt;br&gt;Percentage identity: 87&lt;br&gt;Percentage coverage: 99&lt;br&gt;BLAST bit score: 466&lt;br&gt;E-value: 7.42e-166" locus_tag="HKK58_RS05975" class="clusterblast-orf" id="dummy-1_h1_9_14"  />
</g>
<g id="a1_0015"  >
<polygon points="432,85 437,80 457,80 457,90 437,90 432,85 " style="fill:#d8c915; stroke-width:1; stroke:black; " description="&lt;b&gt;HKK58_RS05970&lt;/b&gt;&lt;br&gt;alpha/beta hydrolase fold domain-containing protein&lt;br&gt;Location: 1308798 - 1307821&lt;br&gt;&lt;br&gt;&lt;b&gt;BlastP hit with ctg28_43&lt;/b&gt;&lt;br&gt;Percentage identity: 88&lt;br&gt;Percentage coverage: 100&lt;br&gt;BLAST bit score: 579&lt;br&gt;E-value: 3.03e-209" locus_tag="HKK58_RS05970" class="clusterblast-orf" id="dummy-1_h1_9_15"  />
</g>
<g id="a1_0016"  >
<polygon points="463,85 468,80 475,80 475,90 468,90 463,85 " style="fill:white; stroke-width:1; stroke:black; " description="&lt;b&gt;HKK58_RS05965&lt;/b&gt;&lt;br&gt;VOC family protein&lt;br&gt;Location: 1307589 - 1307107" locus_tag="HKK58_RS05965" class="clusterblast-orf" id="dummy-1_h1_9_16"  />
</g>
<g id="a1_0017"  >
<polygon points="477,85 482,80 488,80 488,90 482,90 477,85 " style="fill:white; stroke-width:1; stroke:black; " description="&lt;b&gt;HKK58_RS05960&lt;/b&gt;&lt;br&gt;hypothetical protein&lt;br&gt;Location: 1307026 - 1306565" locus_tag="HKK58_RS05960" class="clusterblast-orf" id="dummy-1_h1_9_17"  />
</g>
<g id="a1_0018"  >
<polygon points="491,85 496,80 518,80 518,90 496,90 491,85 " style="fill:white; stroke-width:1; stroke:black; " description="&lt;b&gt;HKK58_RS05955&lt;/b&gt;&lt;br&gt;helix-turn-helix domain-containing protein&lt;br&gt;Location: 1306454 - 1305405" locus_tag="HKK58_RS05955" class="clusterblast-orf" id="dummy-1_h1_9_18"  />
</g>
<g id="a1_0019"  >
<polygon points="518,85 523,80 527,80 527,90 523,90 518,85 " style="fill:#15d87e; stroke-width:1; stroke:black; " description="&lt;b&gt;HKK58_RS05950&lt;/b&gt;&lt;br&gt;ester cyclase&lt;br&gt;Location: 1305401 - 1305015&lt;br&gt;&lt;br&gt;&lt;b&gt;BlastP hit with ctg28_44&lt;/b&gt;&lt;br&gt;Percentage identity: 84&lt;br&gt;Percentage coverage: 98&lt;br&gt;BLAST bit score: 232&lt;br&gt;E-value: 2.24e-78" locus_tag="HKK58_RS05950" class="clusterblast-orf" id="dummy-1_h1_9_19"  />
</g>
<g id="a1_0020"  >
<polygon points="529,85 534,80 557,80 557,90 534,90 529,85 " style="fill:white; stroke-width:1; stroke:black; " description="&lt;b&gt;HKK58_RS05945&lt;/b&gt;&lt;br&gt;SEL1-like repeat protein&lt;br&gt;Location: 1304963 - 1303842" locus_tag="HKK58_RS05945" class="clusterblast-orf" id="dummy-1_h1_9_20"  />
</g>
<g id="a1_0021"  >
<polygon points="559,85 564,80 574,80 574,90 564,90 559,85 " style="fill:#3315d8; stroke-width:1; stroke:black; " description="&lt;b&gt;HKK58_RS05940&lt;/b&gt;&lt;br&gt;LysE family translocator&lt;br&gt;Location: 1303771 - 1303151&lt;br&gt;&lt;br&gt;&lt;b&gt;BlastP hit with ctg28_45&lt;/b&gt;&lt;br&gt;Percentage identity: 94&lt;br&gt;Percentage coverage: 100&lt;br&gt;BLAST bit score: 372&lt;br&gt;E-value: 3.28e-131" locus_tag="HKK58_RS05940" class="clusterblast-orf" id="dummy-1_h1_9_21"  />
</g>
<g id="a1_0022"  >
<polygon points="581,90 595,90 600,85 595,80 581,80 581,90 " style="fill:white; stroke-width:1; stroke:black; " description="&lt;b&gt;HKK58_RS05935&lt;/b&gt;&lt;br&gt;SDR family oxidoreductase&lt;br&gt;Location: 1302884 - 1302147" locus_tag="HKK58_RS05935" class="clusterblast-orf" id="dummy-1_h1_9_22"  />
</g>
<g id="a1_0023"  >
<polygon points="602,90 620,90 625,85 620,80 602,80 602,90 " style="fill:white; stroke-width:1; stroke:black; " description="&lt;b&gt;HKK58_RS05930&lt;/b&gt;&lt;br&gt;enoyl-CoA hydratase/isomerase family protein&lt;br&gt;Location: 1302053 - 1301142" locus_tag="HKK58_RS05930" class="clusterblast-orf" id="dummy-1_h1_9_23"  />
</g>
<g id="a1_0024"  >
<polygon points="629,90 634,90 639,85 634,80 629,80 629,90 " style="fill:white; stroke-width:1; stroke:black; " description="&lt;b&gt;HKK58_RS05925&lt;/b&gt;&lt;br&gt;ASCH domain-containing protein&lt;br&gt;Location: 1301006 - 1300596" locus_tag="HKK58_RS05925" class="clusterblast-orf" id="dummy-1_h1_9_24"  />
</g>
<g id="a1_0025"  >
<polygon points="645,85 650,80 654,80 654,90 650,90 645,85 " style="fill:white; stroke-width:1; stroke:black; " description="&lt;b&gt;HKK58_RS05920&lt;/b&gt;&lt;br&gt;antibiotic biosynthesis monooxygenase&lt;br&gt;Location: 1300350 - 1300012" locus_tag="HKK58_RS05920" class="clusterblast-orf" id="dummy-1_h1_9_25"  />
</g>
<g id="a1_0026"  >
<polygon points="654,85 659,80 679,80 679,90 659,90 654,85 " style="fill:white; stroke-width:1; stroke:black; " description="&lt;b&gt;HKK58_RS05915&lt;/b&gt;&lt;br&gt;zinc-binding dehydrogenase&lt;br&gt;Location: 1299980 - 1299006" locus_tag="HKK58_RS05915" class="clusterblast-orf" id="dummy-1_h1_9_26"  />
</g>
<g id="a1_0027"  >
<polygon points="681,85 686,80 688,80 688,90 686,90 681,85 " style="fill:white; stroke-width:1; stroke:black; " description="&lt;b&gt;HKK58_RS05910&lt;/b&gt;&lt;br&gt;helix-turn-helix transcriptional regulator&lt;br&gt;Location: 1298940 - 1298638" locus_tag="HKK58_RS05910" class="clusterblast-orf" id="dummy-1_h1_9_27"  />
</g>
<g id="a1_0028"  >
<polygon points="690,85 694,80 694,90 690,85 " style="fill:white; stroke-width:1; stroke:black; " description="&lt;b&gt;HKK58_RS05905&lt;/b&gt;&lt;br&gt;hypothetical protein&lt;br&gt;Location: 1298579 - 1298409" locus_tag="HKK58_RS05905" class="clusterblast-orf" id="dummy-1_h1_9_28"  />
</g>
<g id="a1_0029"  >
<polygon points="704,90 711,90 716,85 711,80 704,80 704,90 " style="fill:white; stroke-width:1; stroke:black; " description="&lt;b&gt;HKK58_RS05900&lt;/b&gt;&lt;br&gt;DUF2867 domain-containing protein&lt;br&gt;Location: 1298016 - 1297537" locus_tag="HKK58_RS05900" class="clusterblast-orf" id="dummy-1_h1_9_29"  />
</g>
<g id="a1_0030"  >
<polygon points="716,85 721,80 722,80 722,90 721,90 716,85 " style="fill:white; stroke-width:1; stroke:black; " description="&lt;b&gt;HKK58_RS05895&lt;/b&gt;&lt;br&gt;DUF4287 domain-containing protein&lt;br&gt;Location: 1297527 - 1297309" locus_tag="HKK58_RS05895" class="clusterblast-orf" id="dummy-1_h1_9_30"  />
</g>
<g id="a1_0031"  >
<polygon points="726,90 734,90 739,85 734,80 726,80 726,90 " style="fill:white; stroke-width:1; stroke:black; " description="&lt;b&gt;HKK58_RS05890&lt;/b&gt;&lt;br&gt;winged helix-turn-helix transcriptional regulator&lt;br&gt;Location: 1297128 - 1296610" locus_tag="HKK58_RS05890" class="clusterblast-orf" id="dummy-1_h1_9_31"  />
</g>
<g id="a1_0032"  >
<polygon points="739,90 765,90 770,85 765,80 739,80 739,90 " style="fill:white; stroke-width:1; stroke:black; " description="&lt;b&gt;HKK58_RS05885&lt;/b&gt;&lt;br&gt;FAD-dependent monooxygenase&lt;br&gt;Location: 1296610 - 1295405" locus_tag="HKK58_RS05885" class="clusterblast-orf" id="dummy-1_h1_9_32"  />
</g>
<g id="a1_0033"  >
<polygon points="771,90 775,90 780,85 775,80 771,80 771,90 " style="fill:white; stroke-width:1; stroke:black; " description="&lt;b&gt;HKK58_RS05880&lt;/b&gt;&lt;br&gt;helix-turn-helix transcriptional regulator&lt;br&gt;Location: 1295343 - 1295017" locus_tag="HKK58_RS05880" class="clusterblast-orf" id="dummy-1_h1_9_33"  />
</g>
</svg>
