<svg xmlns="http://www.w3.org/2000/svg" xmlns:xlink="http://www.w3.org/1999/xlink" version="1.1" x="0" y="0" height="230" width="800" viewBox="0 0 800 230" preserveAspectRatio="none"  >
<g label="Query sequence" class="clusterblast-cluster"  >
<text x="5" y="20" class="clusterblast-acc"  >
Query sequence</text>
<line x1="10" y1="35" x2="778.0" y2="35" style="stroke-width:1; stroke:grey; "  />
<polygon points="118,35 123,30 127,30 127,40 123,40 118,35 " style="fill:white; stroke-width:1; stroke:black; " description="&lt;b&gt;ctg28_26&lt;/b&gt;&lt;br&gt;ctg28 26&lt;br&gt;Location: 23474 - 23891" locus_tag="ctg28_26" class="clusterblast-orf" id="dummy-1_q0_0_all"  />
<polygon points="132,40 137,40 142,35 137,30 132,30 132,40 " style="fill:white; stroke-width:1; stroke:black; " description="&lt;b&gt;ctg28_27&lt;/b&gt;&lt;br&gt;ctg28 27&lt;br&gt;Location: 24149 - 24629" locus_tag="ctg28_27" class="clusterblast-orf" id="dummy-1_q1_0_all"  />
<polygon points="142,40 153,40 158,35 153,30 142,30 142,40 " style="fill:white; stroke-width:1; stroke:black; " description="&lt;b&gt;ctg28_28&lt;/b&gt;&lt;br&gt;ctg28 28&lt;br&gt;Location: 24625 - 25396" locus_tag="ctg28_28" class="clusterblast-orf" id="dummy-1_q2_0_all"  />
<polygon points="160,35 165,30 200,30 200,40 165,40 160,35 " style="fill:white; stroke-width:1; stroke:black; " description="&lt;b&gt;ctg28_29&lt;/b&gt;&lt;br&gt;ctg28 29&lt;br&gt;Location: 25475 - 27416" locus_tag="ctg28_29" class="clusterblast-orf" id="dummy-1_q3_0_all"  />
<polygon points="206,40 211,40 216,35 211,30 206,30 206,40 " style="fill:white; stroke-width:1; stroke:black; " description="&lt;b&gt;ctg28_30&lt;/b&gt;&lt;br&gt;ctg28 30&lt;br&gt;Location: 27717 - 28173" locus_tag="ctg28_30" class="clusterblast-orf" id="dummy-1_q4_0_all"  />
<polygon points="215,40 220,40 225,35 220,30 215,30 215,40 " style="fill:white; stroke-width:1; stroke:black; " description="&lt;b&gt;ctg28_31&lt;/b&gt;&lt;br&gt;ctg28 31&lt;br&gt;Location: 28165 - 28615" locus_tag="ctg28_31" class="clusterblast-orf" id="dummy-1_q5_0_all"  />
<polygon points="226,35 231,30 238,30 238,40 231,40 226,35 " style="fill:white; stroke-width:1; stroke:black; " description="&lt;b&gt;ctg28_32&lt;/b&gt;&lt;br&gt;ctg28 32&lt;br&gt;Location: 28658 - 29237" locus_tag="ctg28_32" class="clusterblast-orf" id="dummy-1_q6_0_all"  />
<polygon points="239,35 244,30 266,30 266,40 244,40 239,35 " style="fill:white; stroke-width:1; stroke:black; " description="&lt;b&gt;ctg28_33&lt;/b&gt;&lt;br&gt;ctg28 33&lt;br&gt;Location: 29306 - 30620" locus_tag="ctg28_33" class="clusterblast-orf" id="dummy-1_q7_0_all"  />
<polygon points="267,35 271,30 271,40 267,35 " style="fill:white; stroke-width:1; stroke:black; " description="&lt;b&gt;ctg28_34&lt;/b&gt;&lt;br&gt;ctg28 34&lt;br&gt;Location: 30670 - 30826" locus_tag="ctg28_34" class="clusterblast-orf" id="dummy-1_q8_0_all"  />
<polygon points="272,35 277,30 285,30 285,40 277,40 272,35 " style="fill:white; stroke-width:1; stroke:black; " description="&lt;b&gt;ctg28_35&lt;/b&gt;&lt;br&gt;ctg28 35&lt;br&gt;Location: 30903 - 31536" locus_tag="ctg28_35" class="clusterblast-orf" id="dummy-1_q9_0_all"  />
<polygon points="288,40 296,40 301,35 296,30 288,30 288,40 " style="fill:white; stroke-width:1; stroke:black; " description="&lt;b&gt;ctg28_36&lt;/b&gt;&lt;br&gt;ctg28 36&lt;br&gt;Location: 31647 - 32304" locus_tag="ctg28_36" class="clusterblast-orf" id="dummy-1_q10_0_all"  />
<polygon points="301,35 306,30 314,30 314,40 306,40 301,35 " style="fill:white; stroke-width:1; stroke:black; " description="&lt;b&gt;ctg28_37&lt;/b&gt;&lt;br&gt;ctg28 37&lt;br&gt;Location: 32316 - 32937" locus_tag="ctg28_37" class="clusterblast-orf" id="dummy-1_q11_0_all"  />
<polygon points="317,40 358,40 363,35 358,30 317,30 317,40 " style="fill:#d81515; stroke-width:1; stroke:black; " description="&lt;b&gt;ctg28_38&lt;/b&gt;&lt;br&gt;ctg28 38&lt;br&gt;Location: 33070 - 35269" locus_tag="ctg28_38" class="clusterblast-orf" id="dummy-1_q12_0_all"  />
<polygon points="363,40 366,35 363,30 363,40 " style="fill:white; stroke-width:1; stroke:black; " description="&lt;b&gt;ctg28_39&lt;/b&gt;&lt;br&gt;ctg28 39&lt;br&gt;Location: 35268 - 35436" locus_tag="ctg28_39" class="clusterblast-orf" id="dummy-1_q13_0_all"  />
<polygon points="372,35 377,30 396,30 396,40 377,40 372,35 " style="fill:#15d863; stroke-width:1; stroke:black; " description="&lt;b&gt;ctg28_40&lt;/b&gt;&lt;br&gt;ctg28 40&lt;br&gt;Location: 35732 - 36899" locus_tag="ctg28_40" class="clusterblast-orf" id="dummy-1_q14_0_all"  />
<polygon points="396,35 401,30 425,30 425,40 401,40 396,35 " style="fill:#1563d8; stroke-width:1; stroke:black; " description="&lt;b&gt;ctg28_41&lt;/b&gt;&lt;br&gt;ctg28 41&lt;br&gt;Location: 36895 - 38272" locus_tag="ctg28_41" class="clusterblast-orf" id="dummy-1_q15_0_all"  />
<polygon points="428,35 433,30 445,30 445,40 433,40 428,35 " style="fill:white; stroke-width:1; stroke:black; " description="&lt;b&gt;ctg28_42&lt;/b&gt;&lt;br&gt;ctg28 42&lt;br&gt;Location: 38416 - 39256" locus_tag="ctg28_42" class="clusterblast-orf" id="dummy-1_q16_0_all"  />
<polygon points="451,35 456,30 471,30 471,40 456,40 451,35 " style="fill:white; stroke-width:1; stroke:black; " description="&lt;b&gt;ctg28_43&lt;/b&gt;&lt;br&gt;ctg28 43&lt;br&gt;Location: 39541 - 40519" locus_tag="ctg28_43" class="clusterblast-orf" id="dummy-1_q17_0_all"  />
<polygon points="476,35 481,30 484,30 484,40 481,40 476,35 " style="fill:white; stroke-width:1; stroke:black; " description="&lt;b&gt;ctg28_44&lt;/b&gt;&lt;br&gt;ctg28 44&lt;br&gt;Location: 40734 - 41127" locus_tag="ctg28_44" class="clusterblast-orf" id="dummy-1_q18_0_all"  />
<polygon points="485,35 490,30 498,30 498,40 490,40 485,35 " style="fill:white; stroke-width:1; stroke:black; " description="&lt;b&gt;ctg28_45&lt;/b&gt;&lt;br&gt;ctg28 45&lt;br&gt;Location: 41157 - 41778" locus_tag="ctg28_45" class="clusterblast-orf" id="dummy-1_q19_0_all"  />
<polygon points="502,35 507,30 523,30 523,40 507,40 502,35 " style="fill:white; stroke-width:1; stroke:black; " description="&lt;b&gt;ctg28_46&lt;/b&gt;&lt;br&gt;ctg28 46&lt;br&gt;Location: 41999 - 43019" locus_tag="ctg28_46" class="clusterblast-orf" id="dummy-1_q20_0_all"  />
<polygon points="526,35 531,30 542,30 542,40 531,40 526,35 " style="fill:white; stroke-width:1; stroke:black; " description="&lt;b&gt;ctg28_47&lt;/b&gt;&lt;br&gt;ctg28 47&lt;br&gt;Location: 43158 - 43920" locus_tag="ctg28_47" class="clusterblast-orf" id="dummy-1_q21_0_all"  />
<polygon points="546,35 551,30 560,30 560,40 551,40 546,35 " style="fill:white; stroke-width:1; stroke:black; " description="&lt;b&gt;ctg28_48&lt;/b&gt;&lt;br&gt;ctg28 48&lt;br&gt;Location: 44110 - 44770" locus_tag="ctg28_48" class="clusterblast-orf" id="dummy-1_q22_0_all"  />
<polygon points="560,35 565,30 572,30 572,40 565,40 560,35 " style="fill:white; stroke-width:1; stroke:black; " description="&lt;b&gt;ctg28_49&lt;/b&gt;&lt;br&gt;ctg28 49&lt;br&gt;Location: 44766 - 45366" locus_tag="ctg28_49" class="clusterblast-orf" id="dummy-1_q23_0_all"  />
<polygon points="572,35 577,30 588,30 588,40 577,40 572,35 " style="fill:white; stroke-width:1; stroke:black; " description="&lt;b&gt;ctg28_50&lt;/b&gt;&lt;br&gt;ctg28 50&lt;br&gt;Location: 45362 - 46121" locus_tag="ctg28_50" class="clusterblast-orf" id="dummy-1_q24_0_all"  />
<polygon points="588,35 593,30 608,30 608,40 593,40 588,35 " style="fill:white; stroke-width:1; stroke:black; " description="&lt;b&gt;ctg28_51&lt;/b&gt;&lt;br&gt;ctg28 51&lt;br&gt;Location: 46117 - 47116" locus_tag="ctg28_51" class="clusterblast-orf" id="dummy-1_q25_0_all"  />
<polygon points="608,35 613,30 653,30 653,40 613,40 608,35 " style="fill:#b115d8; stroke-width:1; stroke:black; " description="&lt;b&gt;ctg28_52&lt;/b&gt;&lt;br&gt;ctg28 52&lt;br&gt;Location: 47117 - 49274" locus_tag="ctg28_52" class="clusterblast-orf" id="dummy-1_q26_0_all"  />
<polygon points="656,35 661,30 661,30 661,40 661,40 656,35 " style="fill:#b1d815; stroke-width:1; stroke:black; " description="&lt;b&gt;ctg28_53&lt;/b&gt;&lt;br&gt;ctg28 53&lt;br&gt;Location: 49405 - 49675" locus_tag="ctg28_53" class="clusterblast-orf" id="dummy-1_q27_0_all"  />
</g>
<g label="BGC0000774" description="BGC0000774_c1: lipopolysaccharide (5% of genes show similarity), Saccharide:Lipopolysaccharide" class="clusterblast-cluster"  >
<text x="5" y="70" class="clusterblast-acc"  >
<a xlink:href="https://mibig.secondarymetabolites.org/go/BGC0000774/1" target="_blank">BGC0000774</a>: lipopolysaccharide                                                               (5% of genes show similarity), Saccharide:Lipopolysaccharide</text>
<line x1="10" y1="85" x2="778.0" y2="85" style="stroke-width:1; stroke:grey; "  />
</g>
<g id="a1_000"  >
<polygon points="0,90 8,90 13,85 8,80 0,80 0,90 " style="fill:white; stroke-width:1; stroke:black; " description="&lt;b&gt;AAK53494.1&lt;/b&gt;&lt;br&gt;conserved protein involved in carbohydrate biosynthesis&lt;br&gt;Location: 134 - 772" locus_tag="AAK53494.1" class="clusterblast-orf" id="dummy-1_h1_2_0"  />
</g>
<g id="a1_001"  >
<polygon points="19,85 24,80 32,80 32,90 24,90 19,85 " style="fill:white; stroke-width:1; stroke:black; " description="&lt;b&gt;AAK53493.1&lt;/b&gt;&lt;br&gt;beta-subunit of putative 3-oxoacid CoA-transferase&lt;br&gt;Location: 1054 - 1692" locus_tag="AAK53493.1" class="clusterblast-orf" id="dummy-1_h1_2_1"  />
</g>
<g id="a1_002"  >
<polygon points="32,85 37,80 47,80 47,90 37,90 32,85 " style="fill:white; stroke-width:1; stroke:black; " description="&lt;b&gt;AAK53462.1&lt;/b&gt;&lt;br&gt;alpha subunit of putative 3-oxoacid CoA-transferase&lt;br&gt;Location: 1692 - 2420" locus_tag="AAK53462.1" class="clusterblast-orf" id="dummy-1_h1_2_2"  />
</g>
<g id="a1_003"  >
<polygon points="50,90 73,90 78,85 73,80 50,80 50,90 " style="fill:white; stroke-width:1; stroke:black; " description="&lt;b&gt;AAA27610.1&lt;/b&gt;&lt;br&gt;phosphoglucomutase / phosphomannomutase&lt;br&gt;Location: 2555 - 3901" locus_tag="AAA27610.1" class="clusterblast-orf" id="dummy-1_h1_2_3"  />
</g>
<g id="a1_004"  >
<polygon points="79,90 103,90 108,85 103,80 79,80 79,90 " style="fill:white; stroke-width:1; stroke:black; " description="&lt;b&gt;AAK53463.1&lt;/b&gt;&lt;br&gt;phosphomannose isomerase / GDP-mannose pyrophosphorylase&lt;br&gt;Location: 3947 - 5350" locus_tag="AAK53463.1" class="clusterblast-orf" id="dummy-1_h1_2_4"  />
</g>
<g id="a1_005"  >
<polygon points="110,85 115,80 129,80 129,90 115,90 110,85 " style="fill:white; stroke-width:1; stroke:black; " description="&lt;b&gt;AAK53464.1&lt;/b&gt;&lt;br&gt;dTDP-4-dehydrorhamnose reductase&lt;br&gt;Location: 5472 - 6380" locus_tag="AAK53464.1" class="clusterblast-orf" id="dummy-1_h1_2_5"  />
</g>
<g id="a1_006"  >
<polygon points="129,85 134,80 140,80 140,90 134,90 129,85 " style="fill:white; stroke-width:1; stroke:black; " description="&lt;b&gt;AAK53465.1&lt;/b&gt;&lt;br&gt;dTDP-4-dehydrorhamnose 3,5-epimerase&lt;br&gt;Location: 6377 - 6934" locus_tag="AAK53465.1" class="clusterblast-orf" id="dummy-1_h1_2_6"  />
</g>
<g id="a1_007"  >
<polygon points="140,85 145,80 159,80 159,90 145,90 140,85 " style="fill:white; stroke-width:1; stroke:black; " description="&lt;b&gt;AAA16191.1&lt;/b&gt;&lt;br&gt;glucose-1-phosphate thymidylyltransferase&lt;br&gt;Location: 6931 - 7818" locus_tag="AAA16191.1" class="clusterblast-orf" id="dummy-1_h1_2_7"  />
</g>
<g id="a1_008"  >
<polygon points="160,85 165,80 182,80 182,90 165,90 160,85 " style="fill:white; stroke-width:1; stroke:black; " description="&lt;b&gt;AAK53466.1&lt;/b&gt;&lt;br&gt;dTDP-glucose 4,6-dehydratase&lt;br&gt;Location: 7882 - 8937" locus_tag="AAK53466.1" class="clusterblast-orf" id="dummy-1_h1_2_8"  />
</g>
<g id="a1_009"  >
<polygon points="187,90 197,90 202,85 197,80 187,80 187,90 " style="fill:white; stroke-width:1; stroke:black; " description="&lt;b&gt;AAK53467.1&lt;/b&gt;&lt;br&gt;putative electron-transferring flavoprotein beta subunit&lt;br&gt;Location: 9166 - 9912" locus_tag="AAK53467.1" class="clusterblast-orf" id="dummy-1_h1_2_9"  />
</g>
<g id="a1_0010"  >
<polygon points="202,90 217,90 222,85 217,80 202,80 202,90 " style="fill:white; stroke-width:1; stroke:black; " description="&lt;b&gt;AAK53468.1&lt;/b&gt;&lt;br&gt;putative electron-transferring flavoprotein alpha subunit&lt;br&gt;Location: 9912 - 10856" locus_tag="AAK53468.1" class="clusterblast-orf" id="dummy-1_h1_2_10"  />
</g>
<g id="a1_0011"  >
<polygon points="223,90 225,90 230,85 225,80 223,80 223,90 " style="fill:white; stroke-width:1; stroke:black; " description="&lt;b&gt;AAK53469.1&lt;/b&gt;&lt;br&gt;WxcH&lt;br&gt;Location: 10916 - 11263" locus_tag="AAK53469.1" class="clusterblast-orf" id="dummy-1_h1_2_11"  />
</g>
<g id="a1_0012"  >
<polygon points="231,90 249,90 254,85 249,80 231,80 231,90 " style="fill:white; stroke-width:1; stroke:black; " description="&lt;b&gt;AAK53470.1&lt;/b&gt;&lt;br&gt;nucleotide sugar aminotransferase&lt;br&gt;Location: 11312 - 12415" locus_tag="AAK53470.1" class="clusterblast-orf" id="dummy-1_h1_2_12"  />
</g>
<g id="a1_0013"  >
<polygon points="254,90 269,90 274,85 269,80 254,80 254,90 " style="fill:white; stroke-width:1; stroke:black; " description="&lt;b&gt;AAK53471.1&lt;/b&gt;&lt;br&gt;glycosyltransferase&lt;br&gt;Location: 12400 - 13371" locus_tag="AAK53471.1" class="clusterblast-orf" id="dummy-1_h1_2_13"  />
</g>
<g id="a1_0014"  >
<polygon points="274,90 288,90 293,85 288,80 274,80 274,90 " style="fill:white; stroke-width:1; stroke:black; " description="&lt;b&gt;AAK53472.1&lt;/b&gt;&lt;br&gt;bifunctional nucleotide hexosamine acetyltransferase / isomerase&lt;br&gt;Location: 13368 - 14297" locus_tag="AAK53472.1" class="clusterblast-orf" id="dummy-1_h1_2_14"  />
</g>
<g id="a1_0015"  >
<polygon points="293,90 297,90 302,85 297,80 293,80 293,90 " style="fill:white; stroke-width:1; stroke:black; " description="&lt;b&gt;AAK53473.1&lt;/b&gt;&lt;br&gt;putative integral membrane protein WxcN&lt;br&gt;Location: 14284 - 14724" locus_tag="AAK53473.1" class="clusterblast-orf" id="dummy-1_h1_2_15"  />
</g>
<g id="a1_0016"  >
<polygon points="303,90 345,90 350,85 345,80 303,80 303,90 " style="fill:white; stroke-width:1; stroke:black; " description="&lt;b&gt;AAK53474.1&lt;/b&gt;&lt;br&gt;integral membrane protein&lt;br&gt;Location: 14794 - 17046" locus_tag="AAK53474.1" class="clusterblast-orf" id="dummy-1_h1_2_16"  />
</g>
<g id="a1_0017"  >
<polygon points="353,85 358,80 373,80 373,90 358,90 353,85 " style="fill:white; stroke-width:1; stroke:black; " description="&lt;b&gt;AAK53475.1&lt;/b&gt;&lt;br&gt;GDP-4-dehydro-D-rhamnose reductase&lt;br&gt;Location: 17188 - 18126" locus_tag="AAK53475.1" class="clusterblast-orf" id="dummy-1_h1_2_17"  />
</g>
<g id="a1_0018"  >
<polygon points="372,85 377,80 394,80 394,90 377,90 372,85 " style="fill:white; stroke-width:1; stroke:black; " description="&lt;b&gt;AAK53476.1&lt;/b&gt;&lt;br&gt;GDP-mannose 4,6-dehydratase&lt;br&gt;Location: 18110 - 19144" locus_tag="AAK53476.1" class="clusterblast-orf" id="dummy-1_h1_2_18"  />
</g>
<g id="a1_0019"  >
<polygon points="395,85 400,80 408,80 408,90 400,90 395,85 " style="fill:white; stroke-width:1; stroke:black; " description="&lt;b&gt;AAK53477.1&lt;/b&gt;&lt;br&gt;Unknown&lt;br&gt;Location: 19222 - 19857" locus_tag="AAK53477.1" class="clusterblast-orf" id="dummy-1_h1_2_19"  />
</g>
<g id="a1_0020"  >
<polygon points="408,85 413,80 445,80 445,90 413,90 408,85 " style="fill:white; stroke-width:1; stroke:black; " description="&lt;b&gt;AAK53478.1&lt;/b&gt;&lt;br&gt;putative glycosyltransferase&lt;br&gt;Location: 19857 - 21602" locus_tag="AAK53478.1" class="clusterblast-orf" id="dummy-1_h1_2_20"  />
</g>
<g id="a1_0021"  >
<polygon points="445,85 450,80 467,80 467,90 450,90 445,85 " style="fill:white; stroke-width:1; stroke:black; " description="&lt;b&gt;AAK53479.1&lt;/b&gt;&lt;br&gt;glycosyltransferase&lt;br&gt;Location: 21623 - 22684" locus_tag="AAK53479.1" class="clusterblast-orf" id="dummy-1_h1_2_21"  />
</g>
<g id="a1_0022"  >
<polygon points="468,85 473,80 516,80 516,90 473,90 468,85 " style="fill:white; stroke-width:1; stroke:black; " description="&lt;b&gt;AAK53480.1&lt;/b&gt;&lt;br&gt;putative protein kinase&lt;br&gt;Location: 22734 - 25022" locus_tag="AAK53480.1" class="clusterblast-orf" id="dummy-1_h1_2_22"  />
</g>
<g id="a1_0023"  >
<polygon points="516,85 521,80 543,80 543,90 521,90 516,85 " style="fill:white; stroke-width:1; stroke:black; " description="&lt;b&gt;AAK53481.1&lt;/b&gt;&lt;br&gt;ATP-binding component of an ABC-type polysaccharide exporter&lt;br&gt;Location: 25062 - 26348" locus_tag="AAK53481.1" class="clusterblast-orf" id="dummy-1_h1_2_23"  />
</g>
<g id="a1_0024"  >
<polygon points="543,85 548,80 559,80 559,90 548,90 543,85 " style="fill:white; stroke-width:1; stroke:black; " description="&lt;b&gt;AAK53482.1&lt;/b&gt;&lt;br&gt;permease protein of an ABC-type polysaccaharide exporter&lt;br&gt;Location: 26345 - 27130" locus_tag="AAK53482.1" class="clusterblast-orf" id="dummy-1_h1_2_24"  />
</g>
<g id="a1_0025"  >
<polygon points="561,85 566,80 590,80 590,90 566,90 561,85 " style="fill:white; stroke-width:1; stroke:black; " description="&lt;b&gt;AAK53483.1&lt;/b&gt;&lt;br&gt;glycosyltransferase&lt;br&gt;Location: 27214 - 28599" locus_tag="AAK53483.1" class="clusterblast-orf" id="dummy-1_h1_2_25"  />
</g>
<g id="a1_0026"  >
<polygon points="590,85 595,80 614,80 614,90 595,90 590,85 " style="fill:#15d863; stroke-width:1; stroke:black; " description="&lt;b&gt;AAK53484.1&lt;/b&gt;&lt;br&gt;cystathionine gamma-synthase&lt;br&gt;Location: 28596 - 29795&lt;br&gt;&lt;br&gt;&lt;b&gt;BlastP hit with ctg28_40&lt;/b&gt;&lt;br&gt;Percentage identity: 67&lt;br&gt;Percentage coverage: 97&lt;br&gt;BLAST bit score: 537&lt;br&gt;E-value: 4.12e-192" locus_tag="AAK53484.1" class="clusterblast-orf" id="dummy-1_h1_2_26"  />
</g>
<g id="a1_0027"  >
<polygon points="616,85 621,80 645,80 645,90 621,90 616,85 " style="fill:#1563d8; stroke-width:1; stroke:black; " description="&lt;b&gt;AAK53485.1&lt;/b&gt;&lt;br&gt;cystathionine beta-lyase&lt;br&gt;Location: 29889 - 31259&lt;br&gt;&lt;br&gt;&lt;b&gt;BlastP hit with ctg28_41&lt;/b&gt;&lt;br&gt;Percentage identity: 61&lt;br&gt;Percentage coverage: 98&lt;br&gt;BLAST bit score: 547&lt;br&gt;E-value: 3.56e-194" locus_tag="AAK53485.1" class="clusterblast-orf" id="dummy-1_h1_2_27"  />
</g>
<g id="a1_0028"  >
<polygon points="650,85 655,80 660,80 660,90 655,90 650,85 " style="fill:white; stroke-width:1; stroke:black; " description="&lt;b&gt;AAK53486.1&lt;/b&gt;&lt;br&gt;UptF&lt;br&gt;Location: 31491 - 31985" locus_tag="AAK53486.1" class="clusterblast-orf" id="dummy-1_h1_2_28"  />
</g>
<g id="a1_0029"  >
<polygon points="661,85 666,80 680,80 680,90 666,90 661,85 " style="fill:white; stroke-width:1; stroke:black; " description="&lt;b&gt;AAK53487.1&lt;/b&gt;&lt;br&gt;putative outer membrane protein UptE precursor&lt;br&gt;Location: 32051 - 32941" locus_tag="AAK53487.1" class="clusterblast-orf" id="dummy-1_h1_2_29"  />
</g>
<g id="a1_0030"  >
<polygon points="680,85 685,80 688,80 688,90 685,90 680,85 " style="fill:white; stroke-width:1; stroke:black; " description="&lt;b&gt;AAK53488.1&lt;/b&gt;&lt;br&gt;putative outer membrane protein UptD precursor&lt;br&gt;Location: 32938 - 33321" locus_tag="AAK53488.1" class="clusterblast-orf" id="dummy-1_h1_2_30"  />
</g>
<g id="a1_0031"  >
<polygon points="690,90 708,90 713,85 708,80 690,80 690,90 " style="fill:white; stroke-width:1; stroke:black; " description="&lt;b&gt;AAK53489.1&lt;/b&gt;&lt;br&gt;type II secretion system protein-like protein&lt;br&gt;Location: 33420 - 34553" locus_tag="AAK53489.1" class="clusterblast-orf" id="dummy-1_h1_2_31"  />
</g>
<g id="a1_0032"  >
<polygon points="724,85 729,80 738,80 738,90 729,90 724,85 " style="fill:white; stroke-width:1; stroke:black; " description="&lt;b&gt;AAK53490.1&lt;/b&gt;&lt;br&gt;putative maleylacetoacetate isomerase&lt;br&gt;Location: 35073 - 35735" locus_tag="AAK53490.1" class="clusterblast-orf" id="dummy-1_h1_2_32"  />
</g>
<g id="a1_0033"  >
<polygon points="739,85 744,80 759,80 759,90 744,90 739,85 " style="fill:white; stroke-width:1; stroke:black; " description="&lt;b&gt;AAK53491.1&lt;/b&gt;&lt;br&gt;putative dioxygenase&lt;br&gt;Location: 35779 - 36768" locus_tag="AAK53491.1" class="clusterblast-orf" id="dummy-1_h1_2_33"  />
</g>
<g id="a1_0034"  >
<polygon points="767,90 775,90 780,85 775,80 767,80 767,90 " style="fill:white; stroke-width:1; stroke:black; " description="&lt;b&gt;AAK53492.1&lt;/b&gt;&lt;br&gt;putative ATP-dependent RNA helicase&lt;br&gt;Location: 37148 - 37753" locus_tag="AAK53492.1" class="clusterblast-orf" id="dummy-1_h1_2_34"  />
</g>
</svg>
