<svg xmlns="http://www.w3.org/2000/svg" xmlns:xlink="http://www.w3.org/1999/xlink" version="1.1" x="0" y="0" height="50" width="800" viewBox="0 0 800 50" preserveAspectRatio="none"  >
<g label="Query sequence" class="clusterblast-cluster"  >
<text x="5" y="20" class="clusterblast-acc"  >
Query sequence</text>
<line x1="10" y1="35" x2="778.0" y2="35" style="stroke-width:1; stroke:grey; "  />
<polygon points="0,40 76,40 81,35 76,30 0,30 0,40 " style="fill:white; stroke-width:1; stroke:black; " description="&lt;b&gt;ctg51_1&lt;/b&gt;&lt;br&gt;ctg51 1&lt;br&gt;Location: 819 - 2700" locus_tag="ctg51_1" class="clusterblast-orf" id="knownclusterblast-1_q0_0_all"  />
<polygon points="82,35 87,30 102,30 102,40 87,40 82,35 " style="fill:white; stroke-width:1; stroke:black; " description="&lt;b&gt;ctg51_2&lt;/b&gt;&lt;br&gt;ctg51 2&lt;br&gt;Location: 2739 - 3198" locus_tag="ctg51_2" class="clusterblast-orf" id="knownclusterblast-1_q1_0_all"  />
<polygon points="103,35 108,30 248,30 248,40 108,40 103,35 " style="fill:white; stroke-width:1; stroke:black; " description="&lt;b&gt;ctg51_3&lt;/b&gt;&lt;br&gt;ctg51 3&lt;br&gt;Location: 3216 - 6594" locus_tag="ctg51_3" class="clusterblast-orf" id="knownclusterblast-1_q2_0_all"  />
<polygon points="247,35 252,30 288,30 288,40 252,40 247,35 " style="fill:white; stroke-width:1; stroke:black; " description="&lt;b&gt;ctg51_4&lt;/b&gt;&lt;br&gt;ctg51 4&lt;br&gt;Location: 6590 - 7538" locus_tag="ctg51_4" class="clusterblast-orf" id="knownclusterblast-1_q3_0_all"  />
<polygon points="288,35 293,30 321,30 321,40 293,40 288,35 " style="fill:white; stroke-width:1; stroke:black; " description="&lt;b&gt;ctg51_5&lt;/b&gt;&lt;br&gt;ctg51 5&lt;br&gt;Location: 7534 - 8293" locus_tag="ctg51_5" class="clusterblast-orf" id="knownclusterblast-1_q4_0_all"  />
<polygon points="337,35 342,30 367,30 367,40 342,40 337,35 " style="fill:white; stroke-width:1; stroke:black; " description="&lt;b&gt;ctg51_6&lt;/b&gt;&lt;br&gt;ctg51 6&lt;br&gt;Location: 8675 - 9386" locus_tag="ctg51_6" class="clusterblast-orf" id="knownclusterblast-1_q5_0_all"  />
<polygon points="381,40 403,40 408,35 403,30 381,30 381,40 " style="fill:white; stroke-width:1; stroke:black; " description="&lt;b&gt;ctg51_7&lt;/b&gt;&lt;br&gt;ctg51 7&lt;br&gt;Location: 9704 - 10328" locus_tag="ctg51_7" class="clusterblast-orf" id="knownclusterblast-1_q6_0_all"  />
<polygon points="408,40 487,40 492,35 487,30 408,30 408,40 " style="fill:white; stroke-width:1; stroke:black; " description="&lt;b&gt;ctg51_8&lt;/b&gt;&lt;br&gt;ctg51 8&lt;br&gt;Location: 10342 - 12289" locus_tag="ctg51_8" class="clusterblast-orf" id="knownclusterblast-1_q7_0_all"  />
<polygon points="498,35 503,30 513,30 513,40 503,40 498,35 " style="fill:white; stroke-width:1; stroke:black; " description="&lt;b&gt;ctg51_9&lt;/b&gt;&lt;br&gt;ctg51 9&lt;br&gt;Location: 12431 - 12770" locus_tag="ctg51_9" class="clusterblast-orf" id="knownclusterblast-1_q8_0_all"  />
<polygon points="519,35 524,30 780,30 780,40 524,40 519,35 " style="fill:white; stroke-width:1; stroke:black; " description="&lt;b&gt;ctg51_10&lt;/b&gt;&lt;br&gt;ctg51 10&lt;br&gt;Location: 12922 - 19003" locus_tag="ctg51_10" class="clusterblast-orf" id="knownclusterblast-1_q9_0_all"  />
</g>
</svg>
