<svg xmlns="http://www.w3.org/2000/svg" xmlns:xlink="http://www.w3.org/1999/xlink" version="1.1" x="0" y="0" height="230" width="800" viewBox="0 0 800 230" preserveAspectRatio="none"  >
<g label="Query sequence" class="clusterblast-cluster"  >
<text x="5" y="20" class="clusterblast-acc"  >
Query sequence</text>
<line x1="10" y1="35" x2="778.0" y2="35" style="stroke-width:1; stroke:grey; "  />
<polygon points="23,40 43,40 48,35 43,30 23,30 23,40 " style="fill:white; stroke-width:1; stroke:black; " description="&lt;b&gt;ctg1_106&lt;/b&gt;&lt;br&gt;ctg1 106&lt;br&gt;Location: 108976 - 110476" locus_tag="ctg1_106" class="clusterblast-orf" id="dummy-1_q0_0_all"  />
<polygon points="48,40 53,40 58,35 53,30 48,30 48,40 " style="fill:white; stroke-width:1; stroke:black; " description="&lt;b&gt;ctg1_107&lt;/b&gt;&lt;br&gt;ctg1 107&lt;br&gt;Location: 110438 - 111035" locus_tag="ctg1_107" class="clusterblast-orf" id="dummy-1_q1_0_all"  />
<polygon points="60,40 70,40 75,35 70,30 60,30 60,40 " style="fill:white; stroke-width:1; stroke:black; " description="&lt;b&gt;ctg1_108&lt;/b&gt;&lt;br&gt;ctg1 108&lt;br&gt;Location: 111146 - 112088" locus_tag="ctg1_108" class="clusterblast-orf" id="dummy-1_q2_0_all"  />
<polygon points="76,35 81,30 89,30 89,40 81,40 76,35 " style="fill:#d81515; stroke-width:1; stroke:black; " description="&lt;b&gt;ctg1_109&lt;/b&gt;&lt;br&gt;ctg1 109&lt;br&gt;Location: 112149 - 112905" locus_tag="ctg1_109" class="clusterblast-orf" id="dummy-1_q3_0_all"  />
<polygon points="89,35 94,30 102,30 102,40 94,40 89,35 " style="fill:#4dd815; stroke-width:1; stroke:black; " description="&lt;b&gt;ctg1_110&lt;/b&gt;&lt;br&gt;ctg1 110&lt;br&gt;Location: 112894 - 113698" locus_tag="ctg1_110" class="clusterblast-orf" id="dummy-1_q4_0_all"  />
<polygon points="102,35 107,30 116,30 116,40 107,40 102,35 " style="fill:#1585d8; stroke-width:1; stroke:black; " description="&lt;b&gt;ctg1_111&lt;/b&gt;&lt;br&gt;ctg1 111&lt;br&gt;Location: 113690 - 114512" locus_tag="ctg1_111" class="clusterblast-orf" id="dummy-1_q5_0_all"  />
<polygon points="116,35 121,30 122,30 122,40 121,40 116,35 " style="fill:white; stroke-width:1; stroke:black; " description="&lt;b&gt;ctg1_112&lt;/b&gt;&lt;br&gt;ctg1 112&lt;br&gt;Location: 114524 - 114890" locus_tag="ctg1_112" class="clusterblast-orf" id="dummy-1_q6_0_all"  />
<polygon points="122,35 127,30 144,30 144,40 127,40 122,35 " style="fill:white; stroke-width:1; stroke:black; " description="&lt;b&gt;ctg1_113&lt;/b&gt;&lt;br&gt;ctg1 113&lt;br&gt;Location: 114919 - 116218" locus_tag="ctg1_113" class="clusterblast-orf" id="dummy-1_q7_0_all"  />
<polygon points="148,40 150,40 155,35 150,30 148,30 148,40 " style="fill:white; stroke-width:1; stroke:black; " description="&lt;b&gt;ctg1_114&lt;/b&gt;&lt;br&gt;ctg1 114&lt;br&gt;Location: 116426 - 116849" locus_tag="ctg1_114" class="clusterblast-orf" id="dummy-1_q8_0_all"  />
<polygon points="157,35 162,30 170,30 170,40 162,40 157,35 " style="fill:white; stroke-width:1; stroke:black; " description="&lt;b&gt;ctg1_115&lt;/b&gt;&lt;br&gt;ctg1 115&lt;br&gt;Location: 116974 - 117775" locus_tag="ctg1_115" class="clusterblast-orf" id="dummy-1_q9_0_all"  />
<polygon points="170,35 175,30 184,30 184,40 175,40 170,35 " style="fill:white; stroke-width:1; stroke:black; " description="&lt;b&gt;ctg1_116&lt;/b&gt;&lt;br&gt;ctg1 116&lt;br&gt;Location: 117790 - 118594" locus_tag="ctg1_116" class="clusterblast-orf" id="dummy-1_q10_0_all"  />
<polygon points="184,35 189,30 206,30 206,40 189,40 184,35 " style="fill:#d815bc; stroke-width:1; stroke:black; " description="&lt;b&gt;ctg1_117&lt;/b&gt;&lt;br&gt;ctg1 117&lt;br&gt;Location: 118605 - 119910" locus_tag="ctg1_117" class="clusterblast-orf" id="dummy-1_q11_0_all"  />
<polygon points="206,35 211,30 213,30 213,40 211,40 206,35 " style="fill:white; stroke-width:1; stroke:black; " description="&lt;b&gt;ctg1_118&lt;/b&gt;&lt;br&gt;ctg1 118&lt;br&gt;Location: 119955 - 120348" locus_tag="ctg1_118" class="clusterblast-orf" id="dummy-1_q12_0_all"  />
<polygon points="213,35 218,30 227,30 227,40 218,40 213,35 " style="fill:white; stroke-width:1; stroke:black; " description="&lt;b&gt;ctg1_119&lt;/b&gt;&lt;br&gt;ctg1 119&lt;br&gt;Location: 120363 - 121221" locus_tag="ctg1_119" class="clusterblast-orf" id="dummy-1_q13_0_all"  />
<polygon points="228,35 233,30 253,30 253,40 233,40 228,35 " style="fill:white; stroke-width:1; stroke:black; " description="&lt;b&gt;ctg1_120&lt;/b&gt;&lt;br&gt;ctg1 120&lt;br&gt;Location: 121267 - 122728" locus_tag="ctg1_120" class="clusterblast-orf" id="dummy-1_q14_0_all"  />
<polygon points="253,35 258,30 265,30 265,40 258,40 253,35 " style="fill:white; stroke-width:1; stroke:black; " description="&lt;b&gt;ctg1_121&lt;/b&gt;&lt;br&gt;ctg1 121&lt;br&gt;Location: 122733 - 123504" locus_tag="ctg1_121" class="clusterblast-orf" id="dummy-1_q15_0_all"  />
<polygon points="265,35 270,30 276,30 276,40 270,40 265,35 " style="fill:white; stroke-width:1; stroke:black; " description="&lt;b&gt;ctg1_122&lt;/b&gt;&lt;br&gt;ctg1 122&lt;br&gt;Location: 123500 - 124166" locus_tag="ctg1_122" class="clusterblast-orf" id="dummy-1_q16_0_all"  />
<polygon points="279,40 288,40 293,35 288,30 279,30 279,40 " style="fill:white; stroke-width:1; stroke:black; " description="&lt;b&gt;ctg1_123&lt;/b&gt;&lt;br&gt;ctg1 123&lt;br&gt;Location: 124294 - 125155" locus_tag="ctg1_123" class="clusterblast-orf" id="dummy-1_q17_0_all"  />
<polygon points="292,35 297,30 316,30 316,40 297,40 292,35 " style="fill:#d8bc15; stroke-width:1; stroke:black; " description="&lt;b&gt;ctg1_124&lt;/b&gt;&lt;br&gt;ctg1 124&lt;br&gt;Location: 125081 - 126551" locus_tag="ctg1_124" class="clusterblast-orf" id="dummy-1_q18_0_all"  />
<polygon points="316,35 321,30 329,30 329,40 321,40 316,35 " style="fill:#15d885; stroke-width:1; stroke:black; " description="&lt;b&gt;ctg1_125&lt;/b&gt;&lt;br&gt;ctg1 125&lt;br&gt;Location: 126550 - 127345" locus_tag="ctg1_125" class="clusterblast-orf" id="dummy-1_q19_0_all"  />
<polygon points="338,40 437,40 442,35 437,30 338,30 338,40 " style="fill:#4d15d8; stroke-width:1; stroke:black; " description="&lt;b&gt;ctg1_126&lt;/b&gt;&lt;br&gt;ctg1 126&lt;br&gt;Location: 127832 - 134102" locus_tag="ctg1_126" class="clusterblast-orf" id="dummy-1_q20_0_all"  />
<polygon points="460,40 462,35 460,30 460,40 " style="fill:white; stroke-width:1; stroke:black; " description="&lt;b&gt;ctg1_127&lt;/b&gt;&lt;br&gt;ctg1 127&lt;br&gt;Location: 135158 - 135326" locus_tag="ctg1_127" class="clusterblast-orf" id="dummy-1_q21_0_all"  />
<polygon points="464,40 473,40 478,35 473,30 464,30 464,40 " style="fill:white; stroke-width:1; stroke:black; " description="&lt;b&gt;ctg1_128&lt;/b&gt;&lt;br&gt;ctg1 128&lt;br&gt;Location: 135420 - 136278" locus_tag="ctg1_128" class="clusterblast-orf" id="dummy-1_q22_0_all"  />
<polygon points="478,40 487,40 492,35 487,30 478,30 478,40 " style="fill:white; stroke-width:1; stroke:black; " description="&lt;b&gt;ctg1_129&lt;/b&gt;&lt;br&gt;ctg1 129&lt;br&gt;Location: 136274 - 137081" locus_tag="ctg1_129" class="clusterblast-orf" id="dummy-1_q23_0_all"  />
<polygon points="491,40 506,40 511,35 506,30 491,30 491,40 " style="fill:white; stroke-width:1; stroke:black; " description="&lt;b&gt;ctg1_130&lt;/b&gt;&lt;br&gt;ctg1 130&lt;br&gt;Location: 137067 - 138261" locus_tag="ctg1_130" class="clusterblast-orf" id="dummy-1_q24_0_all"  />
<polygon points="511,40 519,40 524,35 519,30 511,30 511,40 " style="fill:white; stroke-width:1; stroke:black; " description="&lt;b&gt;ctg1_131&lt;/b&gt;&lt;br&gt;ctg1 131&lt;br&gt;Location: 138269 - 139022" locus_tag="ctg1_131" class="clusterblast-orf" id="dummy-1_q25_0_all"  />
<polygon points="524,40 531,40 536,35 531,30 524,30 524,40 " style="fill:white; stroke-width:1; stroke:black; " description="&lt;b&gt;ctg1_132&lt;/b&gt;&lt;br&gt;ctg1 132&lt;br&gt;Location: 139021 - 139735" locus_tag="ctg1_132" class="clusterblast-orf" id="dummy-1_q26_0_all"  />
<polygon points="536,35 541,30 562,30 562,40 541,40 536,35 " style="fill:white; stroke-width:1; stroke:black; " description="&lt;b&gt;ctg1_133&lt;/b&gt;&lt;br&gt;ctg1 133&lt;br&gt;Location: 139756 - 141274" locus_tag="ctg1_133" class="clusterblast-orf" id="dummy-1_q27_0_all"  />
<polygon points="562,35 567,30 590,30 590,40 567,40 562,35 " style="fill:white; stroke-width:1; stroke:black; " description="&lt;b&gt;ctg1_134&lt;/b&gt;&lt;br&gt;ctg1 134&lt;br&gt;Location: 141300 - 142956" locus_tag="ctg1_134" class="clusterblast-orf" id="dummy-1_q28_0_all"  />
<polygon points="593,35 598,30 604,30 604,40 598,40 593,35 " style="fill:white; stroke-width:1; stroke:black; " description="&lt;b&gt;ctg1_135&lt;/b&gt;&lt;br&gt;ctg1 135&lt;br&gt;Location: 143145 - 143820" locus_tag="ctg1_135" class="clusterblast-orf" id="dummy-1_q29_0_all"  />
<polygon points="609,40 615,40 620,35 615,30 609,30 609,40 " style="fill:white; stroke-width:1; stroke:black; " description="&lt;b&gt;ctg1_136&lt;/b&gt;&lt;br&gt;ctg1 136&lt;br&gt;Location: 144094 - 144763" locus_tag="ctg1_136" class="clusterblast-orf" id="dummy-1_q30_0_all"  />
<polygon points="619,40 656,40 661,35 656,30 619,30 619,40 " style="fill:white; stroke-width:1; stroke:black; " description="&lt;b&gt;ctg1_137&lt;/b&gt;&lt;br&gt;ctg1 137&lt;br&gt;Location: 144731 - 147227" locus_tag="ctg1_137" class="clusterblast-orf" id="dummy-1_q31_0_all"  />
<polygon points="661,40 673,40 678,35 673,30 661,30 661,40 " style="fill:white; stroke-width:1; stroke:black; " description="&lt;b&gt;ctg1_138&lt;/b&gt;&lt;br&gt;ctg1 138&lt;br&gt;Location: 147216 - 148281" locus_tag="ctg1_138" class="clusterblast-orf" id="dummy-1_q32_0_all"  />
<polygon points="681,40 700,40 705,35 700,30 681,30 681,40 " style="fill:white; stroke-width:1; stroke:black; " description="&lt;b&gt;ctg1_139&lt;/b&gt;&lt;br&gt;ctg1 139&lt;br&gt;Location: 148432 - 149875" locus_tag="ctg1_139" class="clusterblast-orf" id="dummy-1_q33_0_all"  />
<polygon points="706,35 711,30 724,30 724,40 711,40 706,35 " style="fill:white; stroke-width:1; stroke:black; " description="&lt;b&gt;ctg1_140&lt;/b&gt;&lt;br&gt;ctg1 140&lt;br&gt;Location: 149925 - 151026" locus_tag="ctg1_140" class="clusterblast-orf" id="dummy-1_q34_0_all"  />
<polygon points="724,35 729,30 735,30 735,40 729,40 724,35 " style="fill:white; stroke-width:1; stroke:black; " description="&lt;b&gt;ctg1_141&lt;/b&gt;&lt;br&gt;ctg1 141&lt;br&gt;Location: 151028 - 151700" locus_tag="ctg1_141" class="clusterblast-orf" id="dummy-1_q35_0_all"  />
<polygon points="741,40 751,40 756,35 751,30 741,30 741,40 " style="fill:white; stroke-width:1; stroke:black; " description="&lt;b&gt;ctg1_142&lt;/b&gt;&lt;br&gt;ctg1 142&lt;br&gt;Location: 152017 - 152941" locus_tag="ctg1_142" class="clusterblast-orf" id="dummy-1_q36_0_all"  />
</g>
<g label="BGC0000411" description="BGC0000411_c1: putisolvin (50% of genes show similarity), NRP" class="clusterblast-cluster"  >
<text x="5" y="70" class="clusterblast-acc"  >
<a xlink:href="https://mibig.secondarymetabolites.org/go/BGC0000411/1" target="_blank">BGC0000411</a>: putisolvin                                                                       (50% of genes show similarity), NRP</text>
<line x1="10" y1="85" x2="778.0" y2="85" style="stroke-width:1; stroke:grey; "  />
</g>
<g id="a1_000"  >
<polygon points="0,85 5,80 24,80 24,90 5,90 0,85 " style="fill:#d8bc15; stroke-width:1; stroke:black; " description="&lt;b&gt;ABW17373.1&lt;/b&gt;&lt;br&gt;OprM&lt;br&gt;Location: 37 - 1485&lt;br&gt;&lt;br&gt;&lt;b&gt;BlastP hit with ctg1_124&lt;/b&gt;&lt;br&gt;Percentage identity: 70&lt;br&gt;Percentage coverage: 96&lt;br&gt;BLAST bit score: 606&lt;br&gt;E-value: 1.67e-216" locus_tag="ABW17373.1" class="clusterblast-orf" id="dummy-1_h1_7_0"  />
</g>
<g id="a1_001"  >
<polygon points="24,85 29,80 37,80 37,90 29,90 24,85 " style="fill:#15d885; stroke-width:1; stroke:black; " description="&lt;b&gt;ABW17374.1&lt;/b&gt;&lt;br&gt;PsoR&lt;br&gt;Location: 1503 - 2285&lt;br&gt;&lt;br&gt;&lt;b&gt;BlastP hit with ctg1_125&lt;/b&gt;&lt;br&gt;Percentage identity: 57&lt;br&gt;Percentage coverage: 101&lt;br&gt;BLAST bit score: 266&lt;br&gt;E-value: 1.31e-89" locus_tag="ABW17374.1" class="clusterblast-orf" id="dummy-1_h1_7_1"  />
</g>
<g id="a1_002"  >
<polygon points="44,90 145,90 150,85 145,80 44,80 44,90 " style="fill:#4d15d8; stroke-width:1; stroke:black; " description="&lt;b&gt;ABW17375.1&lt;/b&gt;&lt;br&gt;PsoA&lt;br&gt;Location: 2701 - 9060&lt;br&gt;&lt;br&gt;&lt;b&gt;BlastP hit with ctg1_126&lt;/b&gt;&lt;br&gt;Percentage identity: 60&lt;br&gt;Percentage coverage: 101&lt;br&gt;BLAST bit score: 2418&lt;br&gt;E-value: 0.0" locus_tag="ABW17375.1" class="clusterblast-orf" id="dummy-1_h1_7_2"  />
</g>
<g id="a1_003"  >
<polygon points="150,90 519,90 524,85 519,80 150,80 150,90 " style="fill:#4d15d8; stroke-width:1; stroke:black; " description="&lt;b&gt;ABW17376.1&lt;/b&gt;&lt;br&gt;PsoB&lt;br&gt;Location: 9088 - 31512&lt;br&gt;&lt;br&gt;&lt;b&gt;BlastP hit with ctg1_126&lt;/b&gt;&lt;br&gt;Percentage identity: 48&lt;br&gt;Percentage coverage: 99&lt;br&gt;BLAST bit score: 1735&lt;br&gt;E-value: 0.0" locus_tag="ABW17376.1" class="clusterblast-orf" id="dummy-1_h1_7_3"  />
</g>
<g id="a1_004"  >
<polygon points="524,90 708,90 713,85 708,80 524,80 524,90 " style="fill:white; stroke-width:1; stroke:black; " description="&lt;b&gt;ABW17377.1&lt;/b&gt;&lt;br&gt;PsoC&lt;br&gt;Location: 31509 - 42830" locus_tag="ABW17377.1" class="clusterblast-orf" id="dummy-1_h1_7_4"  />
</g>
<g id="a1_005"  >
<polygon points="714,90 728,90 733,85 728,80 714,80 714,90 " style="fill:white; stroke-width:1; stroke:black; " description="&lt;b&gt;ABW17378.1&lt;/b&gt;&lt;br&gt;MacA&lt;br&gt;Location: 42894 - 44051" locus_tag="ABW17378.1" class="clusterblast-orf" id="dummy-1_h1_7_5"  />
</g>
<g id="a1_006"  >
<polygon points="733,90 761,90 766,85 761,80 733,80 733,90 " style="fill:white; stroke-width:1; stroke:black; " description="&lt;b&gt;ABW17379.1&lt;/b&gt;&lt;br&gt;MacB&lt;br&gt;Location: 44054 - 46057" locus_tag="ABW17379.1" class="clusterblast-orf" id="dummy-1_h1_7_6"  />
</g>
<g id="a1_007"  >
<polygon points="769,85 774,80 780,80 780,90 774,90 769,85 " style="fill:white; stroke-width:1; stroke:black; " description="&lt;b&gt;ABW17380.1&lt;/b&gt;&lt;br&gt;LuxR-like protein&lt;br&gt;Location: 46202 - 46846" locus_tag="ABW17380.1" class="clusterblast-orf" id="dummy-1_h1_7_7"  />
</g>
</svg>
