<svg xmlns="http://www.w3.org/2000/svg" xmlns:xlink="http://www.w3.org/1999/xlink" version="1.1" x="0" y="0" height="50" width="800" viewBox="0 0 800 50" preserveAspectRatio="none"  >
<g label="Query sequence" class="clusterblast-cluster"  >
<text x="5" y="20" class="clusterblast-acc"  >
Query sequence</text>
<line x1="10" y1="35" x2="778.0" y2="35" style="stroke-width:1; stroke:grey; "  />
<polygon points="0,40 61,40 66,35 61,30 0,30 0,40 " style="fill:white; stroke-width:1; stroke:black; " description="&lt;b&gt;ctg19_32&lt;/b&gt;&lt;br&gt;ctg19 32&lt;br&gt;Location: 34468 - 35236" locus_tag="ctg19_32" class="clusterblast-orf" id="knownclusterblast-1_q0_0_all"  />
<polygon points="66,40 122,40 127,35 122,30 66,30 66,40 " style="fill:white; stroke-width:1; stroke:black; " description="&lt;b&gt;ctg19_33&lt;/b&gt;&lt;br&gt;ctg19 33&lt;br&gt;Location: 35237 - 35939" locus_tag="ctg19_33" class="clusterblast-orf" id="knownclusterblast-1_q1_0_all"  />
<polygon points="131,35 136,30 242,30 242,40 136,40 131,35 " style="fill:white; stroke-width:1; stroke:black; " description="&lt;b&gt;ctg19_34&lt;/b&gt;&lt;br&gt;ctg19 34&lt;br&gt;Location: 35990 - 37283" locus_tag="ctg19_34" class="clusterblast-orf" id="knownclusterblast-1_q2_0_all"  />
<polygon points="243,35 248,30 327,30 327,40 248,40 243,35 " style="fill:white; stroke-width:1; stroke:black; " description="&lt;b&gt;ctg19_35&lt;/b&gt;&lt;br&gt;ctg19 35&lt;br&gt;Location: 37295 - 38273" locus_tag="ctg19_35" class="clusterblast-orf" id="knownclusterblast-1_q3_0_all"  />
<polygon points="329,35 334,30 361,30 361,40 334,40 329,35 " style="fill:white; stroke-width:1; stroke:black; " description="&lt;b&gt;ctg19_36&lt;/b&gt;&lt;br&gt;ctg19 36&lt;br&gt;Location: 38296 - 38671" locus_tag="ctg19_36" class="clusterblast-orf" id="knownclusterblast-1_q4_0_all"  />
<polygon points="365,40 386,40 391,35 386,30 365,30 365,40 " style="fill:white; stroke-width:1; stroke:black; " description="&lt;b&gt;ctg19_37&lt;/b&gt;&lt;br&gt;ctg19 37&lt;br&gt;Location: 38714 - 39020" locus_tag="ctg19_37" class="clusterblast-orf" id="knownclusterblast-1_q5_0_all"  />
<polygon points="393,40 464,40 469,35 464,30 393,30 393,40 " style="fill:white; stroke-width:1; stroke:black; " description="&lt;b&gt;ctg19_38&lt;/b&gt;&lt;br&gt;ctg19 38&lt;br&gt;Location: 39043 - 39925" locus_tag="ctg19_38" class="clusterblast-orf" id="knownclusterblast-1_q6_0_all"  />
<polygon points="468,40 530,40 535,35 530,30 468,30 468,40 " style="fill:white; stroke-width:1; stroke:black; " description="&lt;b&gt;ctg19_39&lt;/b&gt;&lt;br&gt;ctg19 39&lt;br&gt;Location: 39921 - 40698" locus_tag="ctg19_39" class="clusterblast-orf" id="knownclusterblast-1_q7_0_all"  />
<polygon points="535,40 571,40 576,35 571,30 535,30 535,40 " style="fill:white; stroke-width:1; stroke:black; " description="&lt;b&gt;ctg19_40&lt;/b&gt;&lt;br&gt;ctg19 40&lt;br&gt;Location: 40694 - 41180" locus_tag="ctg19_40" class="clusterblast-orf" id="knownclusterblast-1_q8_0_all"  />
<polygon points="576,35 581,30 654,30 654,40 581,40 576,35 " style="fill:white; stroke-width:1; stroke:black; " description="&lt;b&gt;ctg19_41&lt;/b&gt;&lt;br&gt;ctg19 41&lt;br&gt;Location: 41176 - 42085" locus_tag="ctg19_41" class="clusterblast-orf" id="knownclusterblast-1_q9_0_all"  />
<polygon points="663,40 709,40 714,35 709,30 663,30 663,40 " style="fill:white; stroke-width:1; stroke:black; " description="&lt;b&gt;ctg19_42&lt;/b&gt;&lt;br&gt;ctg19 42&lt;br&gt;Location: 42188 - 42788" locus_tag="ctg19_42" class="clusterblast-orf" id="knownclusterblast-1_q10_0_all"  />
<polygon points="723,40 775,40 780,35 775,30 723,30 723,40 " style="fill:white; stroke-width:1; stroke:black; " description="&lt;b&gt;ctg19_43&lt;/b&gt;&lt;br&gt;ctg19 43&lt;br&gt;Location: 42885 - 43557" locus_tag="ctg19_43" class="clusterblast-orf" id="knownclusterblast-1_q11_0_all"  />
</g>
</svg>
