<svg xmlns="http://www.w3.org/2000/svg" xmlns:xlink="http://www.w3.org/1999/xlink" version="1.1" x="0" y="0" height="230" width="800" viewBox="0 0 800 230" preserveAspectRatio="none"  >
<g label="Query sequence" class="clusterblast-cluster"  >
<text x="5" y="20" class="clusterblast-acc"  >
Query sequence</text>
<line x1="10" y1="35" x2="778.0" y2="35" style="stroke-width:1; stroke:grey; "  />
<polygon points="0,35 5,30 47,30 47,40 5,40 0,35 " style="fill:white; stroke-width:1; stroke:black; " description="&lt;b&gt;ctg21_10&lt;/b&gt;&lt;br&gt;ctg21 10&lt;br&gt;Location: 13139 - 16850" locus_tag="ctg21_10" class="clusterblast-orf" id="dummy-1_q0_0_all"  />
<polygon points="49,40 74,40 79,35 74,30 49,30 49,40 " style="fill:white; stroke-width:1; stroke:black; " description="&lt;b&gt;ctg21_11&lt;/b&gt;&lt;br&gt;ctg21 11&lt;br&gt;Location: 17014 - 19309" locus_tag="ctg21_11" class="clusterblast-orf" id="dummy-1_q1_0_all"  />
<polygon points="89,40 92,40 97,35 92,30 89,30 89,40 " style="fill:white; stroke-width:1; stroke:black; " description="&lt;b&gt;ctg21_12&lt;/b&gt;&lt;br&gt;ctg21 12&lt;br&gt;Location: 20086 - 20671" locus_tag="ctg21_12" class="clusterblast-orf" id="dummy-1_q2_0_all"  />
<polygon points="99,35 104,30 109,30 109,40 104,40 99,35 " style="fill:white; stroke-width:1; stroke:black; " description="&lt;b&gt;ctg21_13&lt;/b&gt;&lt;br&gt;ctg21 13&lt;br&gt;Location: 20872 - 21619" locus_tag="ctg21_13" class="clusterblast-orf" id="dummy-1_q3_0_all"  />
<polygon points="110,35 115,30 115,30 115,40 115,40 110,35 " style="fill:white; stroke-width:1; stroke:black; " description="&lt;b&gt;ctg21_14&lt;/b&gt;&lt;br&gt;ctg21 14&lt;br&gt;Location: 21689 - 22082" locus_tag="ctg21_14" class="clusterblast-orf" id="dummy-1_q4_0_all"  />
<polygon points="115,35 120,30 124,30 124,40 120,40 115,35 " style="fill:white; stroke-width:1; stroke:black; " description="&lt;b&gt;ctg21_15&lt;/b&gt;&lt;br&gt;ctg21 15&lt;br&gt;Location: 22078 - 22783" locus_tag="ctg21_15" class="clusterblast-orf" id="dummy-1_q5_0_all"  />
<polygon points="124,35 126,30 126,40 124,35 " style="fill:white; stroke-width:1; stroke:black; " description="&lt;b&gt;ctg21_16&lt;/b&gt;&lt;br&gt;ctg21 16&lt;br&gt;Location: 22794 - 22983" locus_tag="ctg21_16" class="clusterblast-orf" id="dummy-1_q6_0_all"  />
<polygon points="144,40 153,40 158,35 153,30 144,30 144,40 " style="fill:white; stroke-width:1; stroke:black; " description="&lt;b&gt;ctg21_17&lt;/b&gt;&lt;br&gt;ctg21 17&lt;br&gt;Location: 24354 - 25416" locus_tag="ctg21_17" class="clusterblast-orf" id="dummy-1_q7_0_all"  />
<polygon points="158,40 201,40 206,35 201,30 158,30 158,40 " style="fill:white; stroke-width:1; stroke:black; " description="&lt;b&gt;ctg21_18&lt;/b&gt;&lt;br&gt;ctg21 18&lt;br&gt;Location: 25419 - 29181" locus_tag="ctg21_18" class="clusterblast-orf" id="dummy-1_q8_0_all"  />
<polygon points="206,40 214,40 219,35 214,30 206,30 206,40 " style="fill:white; stroke-width:1; stroke:black; " description="&lt;b&gt;ctg21_19&lt;/b&gt;&lt;br&gt;ctg21 19&lt;br&gt;Location: 29180 - 30179" locus_tag="ctg21_19" class="clusterblast-orf" id="dummy-1_q9_0_all"  />
<polygon points="221,40 222,40 227,35 222,30 221,30 221,40 " style="fill:white; stroke-width:1; stroke:black; " description="&lt;b&gt;ctg21_20&lt;/b&gt;&lt;br&gt;ctg21 20&lt;br&gt;Location: 30334 - 30844" locus_tag="ctg21_20" class="clusterblast-orf" id="dummy-1_q10_0_all"  />
<polygon points="230,40 391,40 396,35 391,30 230,30 230,40 " style="fill:#d81515; stroke-width:1; stroke:black; " description="&lt;b&gt;ctg21_21&lt;/b&gt;&lt;br&gt;ctg21 21&lt;br&gt;Location: 31052 - 43964" locus_tag="ctg21_21" class="clusterblast-orf" id="dummy-1_q11_0_all"  />
<polygon points="396,40 537,40 542,35 537,30 396,30 396,40 " style="fill:#d81515; stroke-width:1; stroke:black; " description="&lt;b&gt;ctg21_22&lt;/b&gt;&lt;br&gt;ctg21 22&lt;br&gt;Location: 43960 - 55297" locus_tag="ctg21_22" class="clusterblast-orf" id="dummy-1_q12_0_all"  />
<polygon points="542,40 552,40 557,35 552,30 542,30 542,40 " style="fill:#3cd815; stroke-width:1; stroke:black; " description="&lt;b&gt;ctg21_23&lt;/b&gt;&lt;br&gt;ctg21 23&lt;br&gt;Location: 55293 - 56436" locus_tag="ctg21_23" class="clusterblast-orf" id="dummy-1_q13_0_all"  />
<polygon points="557,40 577,40 582,35 577,30 557,30 557,40 " style="fill:#1563d8; stroke-width:1; stroke:black; " description="&lt;b&gt;ctg21_24&lt;/b&gt;&lt;br&gt;ctg21 24&lt;br&gt;Location: 56439 - 58398" locus_tag="ctg21_24" class="clusterblast-orf" id="dummy-1_q14_0_all"  />
<polygon points="584,35 589,30 592,30 592,40 589,40 584,35 " style="fill:#b115d8; stroke-width:1; stroke:black; " description="&lt;b&gt;ctg21_25&lt;/b&gt;&lt;br&gt;ctg21 25&lt;br&gt;Location: 58525 - 59203" locus_tag="ctg21_25" class="clusterblast-orf" id="dummy-1_q15_0_all"  />
<polygon points="595,35 600,30 611,30 611,40 600,40 595,35 " style="fill:#d88a15; stroke-width:1; stroke:black; " description="&lt;b&gt;ctg21_26&lt;/b&gt;&lt;br&gt;ctg21 26&lt;br&gt;Location: 59435 - 60680" locus_tag="ctg21_26" class="clusterblast-orf" id="dummy-1_q16_0_all"  />
<polygon points="613,40 614,40 619,35 614,30 613,30 613,40 " style="fill:#15d863; stroke-width:1; stroke:black; " description="&lt;b&gt;ctg21_27&lt;/b&gt;&lt;br&gt;ctg21 27&lt;br&gt;Location: 60803 - 61274" locus_tag="ctg21_27" class="clusterblast-orf" id="dummy-1_q17_0_all"  />
<polygon points="620,35 625,30 630,30 630,40 625,40 620,35 " style="fill:white; stroke-width:1; stroke:black; " description="&lt;b&gt;ctg21_28&lt;/b&gt;&lt;br&gt;ctg21 28&lt;br&gt;Location: 61352 - 62123" locus_tag="ctg21_28" class="clusterblast-orf" id="dummy-1_q18_0_all"  />
<polygon points="630,40 641,40 646,35 641,30 630,30 630,40 " style="fill:white; stroke-width:1; stroke:black; " description="&lt;b&gt;ctg21_29&lt;/b&gt;&lt;br&gt;ctg21 29&lt;br&gt;Location: 62173 - 63352" locus_tag="ctg21_29" class="clusterblast-orf" id="dummy-1_q19_0_all"  />
<polygon points="646,35 651,30 673,30 673,40 651,40 646,35 " style="fill:#3c15d8; stroke-width:1; stroke:black; " description="&lt;b&gt;ctg21_30&lt;/b&gt;&lt;br&gt;ctg21 30&lt;br&gt;Location: 63341 - 65483" locus_tag="ctg21_30" class="clusterblast-orf" id="dummy-1_q20_0_all"  />
<polygon points="674,35 679,30 685,30 685,40 679,40 674,35 " style="fill:#d8158a; stroke-width:1; stroke:black; " description="&lt;b&gt;ctg21_31&lt;/b&gt;&lt;br&gt;ctg21 31&lt;br&gt;Location: 65588 - 66386" locus_tag="ctg21_31" class="clusterblast-orf" id="dummy-1_q21_0_all"  />
<polygon points="688,40 700,40 705,35 700,30 688,30 688,40 " style="fill:white; stroke-width:1; stroke:black; " description="&lt;b&gt;ctg21_32&lt;/b&gt;&lt;br&gt;ctg21 32&lt;br&gt;Location: 66623 - 67982" locus_tag="ctg21_32" class="clusterblast-orf" id="dummy-1_q22_0_all"  />
<polygon points="705,40 715,40 720,35 715,30 705,30 705,40 " style="fill:#b1d815; stroke-width:1; stroke:black; " description="&lt;b&gt;ctg21_33&lt;/b&gt;&lt;br&gt;ctg21 33&lt;br&gt;Location: 68004 - 69093" locus_tag="ctg21_33" class="clusterblast-orf" id="dummy-1_q23_0_all"  />
<polygon points="719,40 731,40 736,35 731,30 719,30 719,40 " style="fill:#15d8d8; stroke-width:1; stroke:black; " description="&lt;b&gt;ctg21_34&lt;/b&gt;&lt;br&gt;ctg21 34&lt;br&gt;Location: 69089 - 70385" locus_tag="ctg21_34" class="clusterblast-orf" id="dummy-1_q24_0_all"  />
<polygon points="738,35 743,30 749,30 749,40 743,40 738,35 " style="fill:white; stroke-width:1; stroke:black; " description="&lt;b&gt;ctg21_35&lt;/b&gt;&lt;br&gt;ctg21 35&lt;br&gt;Location: 70503 - 71397" locus_tag="ctg21_35" class="clusterblast-orf" id="dummy-1_q25_0_all"  />
<polygon points="751,40 759,40 764,35 759,30 751,30 751,40 " style="fill:white; stroke-width:1; stroke:black; " description="&lt;b&gt;ctg21_36&lt;/b&gt;&lt;br&gt;ctg21 36&lt;br&gt;Location: 71510 - 72515" locus_tag="ctg21_36" class="clusterblast-orf" id="dummy-1_q26_0_all"  />
<polygon points="764,40 769,40 774,35 769,30 764,30 764,40 " style="fill:white; stroke-width:1; stroke:black; " description="&lt;b&gt;ctg21_37&lt;/b&gt;&lt;br&gt;ctg21 37&lt;br&gt;Location: 72530 - 73328" locus_tag="ctg21_37" class="clusterblast-orf" id="dummy-1_q27_0_all"  />
<polygon points="774,40 775,40 780,35 775,30 774,30 774,40 " style="fill:white; stroke-width:1; stroke:black; " description="&lt;b&gt;ctg21_38&lt;/b&gt;&lt;br&gt;ctg21 38&lt;br&gt;Location: 73355 - 73766" locus_tag="ctg21_38" class="clusterblast-orf" id="dummy-1_q28_0_all"  />
</g>
<g label="BGC0001312" description="BGC0001312_c1: viscosin (68% of genes show similarity), NRP" class="clusterblast-cluster"  >
<text x="5" y="70" class="clusterblast-acc"  >
<a xlink:href="https://mibig.secondarymetabolites.org/go/BGC0001312/1" target="_blank">BGC0001312</a>: viscosin                                                                         (68% of genes show similarity), NRP</text>
<line x1="10" y1="85" x2="778.0" y2="85" style="stroke-width:1; stroke:grey; "  />
</g>
<g id="a1_000"  >
<polygon points="110,85 115,80 121,80 121,90 115,90 110,85 " style="fill:white; stroke-width:1; stroke:black; " description="&lt;b&gt;PFLU_2548&lt;/b&gt;&lt;br&gt;conserved hypothetical protein&lt;br&gt;Location: 1 - 861" locus_tag="PFLU_2548" class="clusterblast-orf" id="dummy-1_h1_1_0"  />
</g>
<g id="a1_001"  >
<polygon points="122,85 127,80 138,80 138,90 127,90 122,85 " style="fill:white; stroke-width:1; stroke:black; " description="&lt;b&gt;PFLU_2549&lt;/b&gt;&lt;br&gt;putative aminotransferase&lt;br&gt;Location: 896 - 2167" locus_tag="PFLU_2549" class="clusterblast-orf" id="dummy-1_h1_1_1"  />
</g>
<g id="a1_002"  >
<polygon points="138,85 143,80 156,80 156,90 143,90 138,85 " style="fill:white; stroke-width:1; stroke:black; " description="&lt;b&gt;PFLU_2550&lt;/b&gt;&lt;br&gt;putative dipeptidase&lt;br&gt;Location: 2186 - 3535" locus_tag="PFLU_2550" class="clusterblast-orf" id="dummy-1_h1_1_2"  />
</g>
<g id="a1_003"  >
<polygon points="157,90 173,90 178,85 173,80 157,80 157,90 " style="fill:white; stroke-width:1; stroke:black; " description="&lt;b&gt;PFLU_2551&lt;/b&gt;&lt;br&gt;conserved hypothetical protein&lt;br&gt;Location: 3678 - 5303" locus_tag="PFLU_2551" class="clusterblast-orf" id="dummy-1_h1_1_3"  />
</g>
<g id="a1_004"  >
<polygon points="184,90 345,90 350,85 345,80 184,80 184,90 " style="fill:#d81515; stroke-width:1; stroke:black; " description="&lt;b&gt;PFLU_2552&lt;/b&gt;&lt;br&gt;putative non-ribosomal peptide synthetase&lt;br&gt;Location: 5734 - 18618&lt;br&gt;&lt;br&gt;&lt;b&gt;BlastP hit with ctg21_21&lt;/b&gt;&lt;br&gt;Percentage identity: 88&lt;br&gt;Percentage coverage: 100&lt;br&gt;BLAST bit score: 7501&lt;br&gt;E-value: 0.0&lt;br&gt;&lt;br&gt;&lt;b&gt;BlastP hit with ctg21_22&lt;/b&gt;&lt;br&gt;Percentage identity: 59&lt;br&gt;Percentage coverage: 58&lt;br&gt;BLAST bit score: 2378&lt;br&gt;E-value: 0.0" locus_tag="PFLU_2552" class="clusterblast-orf" id="dummy-1_h1_1_4"  />
</g>
<g id="a1_005"  >
<polygon points="350,90 490,90 495,85 490,80 350,80 350,90 " style="fill:#d81515; stroke-width:1; stroke:black; " description="&lt;b&gt;PFLU_2553&lt;/b&gt;&lt;br&gt;putative non-ribosomal peptide synthetase&lt;br&gt;Location: 18615 - 29936&lt;br&gt;&lt;br&gt;&lt;b&gt;BlastP hit with ctg21_21&lt;/b&gt;&lt;br&gt;Percentage identity: 60&lt;br&gt;Percentage coverage: 50&lt;br&gt;BLAST bit score: 2373&lt;br&gt;E-value: 0.0&lt;br&gt;&lt;br&gt;&lt;b&gt;BlastP hit with ctg21_22&lt;/b&gt;&lt;br&gt;Percentage identity: 88&lt;br&gt;Percentage coverage: 100&lt;br&gt;BLAST bit score: 6615&lt;br&gt;E-value: 0.0" locus_tag="PFLU_2553" class="clusterblast-orf" id="dummy-1_h1_1_5"  />
</g>
<g id="a1_006"  >
<polygon points="509,90 519,90 524,85 519,80 509,80 509,90 " style="fill:#3cd815; stroke-width:1; stroke:black; " description="&lt;b&gt;PFLU_2555&lt;/b&gt;&lt;br&gt;putative drug-efflux protein&lt;br&gt;Location: 30994 - 32145&lt;br&gt;&lt;br&gt;&lt;b&gt;BlastP hit with ctg21_23&lt;/b&gt;&lt;br&gt;Percentage identity: 94&lt;br&gt;Percentage coverage: 99&lt;br&gt;BLAST bit score: 661&lt;br&gt;E-value: 1.14e-241" locus_tag="PFLU_2555" class="clusterblast-orf" id="dummy-1_h1_1_6"  />
</g>
<g id="a1_007"  >
<polygon points="524,90 544,90 549,85 544,80 524,80 524,90 " style="fill:#1563d8; stroke-width:1; stroke:black; " description="&lt;b&gt;PFLU_2556&lt;/b&gt;&lt;br&gt;macrolide-specific ABC-type efflux carrier&lt;br&gt;Location: 32149 - 34107&lt;br&gt;&lt;br&gt;&lt;b&gt;BlastP hit with ctg21_24&lt;/b&gt;&lt;br&gt;Percentage identity: 97&lt;br&gt;Percentage coverage: 100&lt;br&gt;BLAST bit score: 1210&lt;br&gt;E-value: 0.0" locus_tag="PFLU_2556" class="clusterblast-orf" id="dummy-1_h1_1_7"  />
</g>
<g id="a1_008"  >
<polygon points="550,85 555,80 558,80 558,90 555,90 550,85 " style="fill:#b115d8; stroke-width:1; stroke:black; " description="&lt;b&gt;PFLU_2557&lt;/b&gt;&lt;br&gt;putative LuxR-family regulatory protein&lt;br&gt;Location: 34178 - 34852&lt;br&gt;&lt;br&gt;&lt;b&gt;BlastP hit with ctg21_25&lt;/b&gt;&lt;br&gt;Percentage identity: 87&lt;br&gt;Percentage coverage: 97&lt;br&gt;BLAST bit score: 374&lt;br&gt;E-value: 4.51e-133" locus_tag="PFLU_2557" class="clusterblast-orf" id="dummy-1_h1_1_8"  />
</g>
<g id="a1_009"  >
<polygon points="560,85 565,80 576,80 576,90 565,90 560,85 " style="fill:#d88a15; stroke-width:1; stroke:black; " description="&lt;b&gt;PFLU_2558&lt;/b&gt;&lt;br&gt;methionine gamma-lyase&lt;br&gt;Location: 35005 - 36240&lt;br&gt;&lt;br&gt;&lt;b&gt;BlastP hit with ctg21_26&lt;/b&gt;&lt;br&gt;Percentage identity: 94&lt;br&gt;Percentage coverage: 98&lt;br&gt;BLAST bit score: 756&lt;br&gt;E-value: 2.96e-278" locus_tag="PFLU_2558" class="clusterblast-orf" id="dummy-1_h1_1_9"  />
</g>
<g id="a1_0010"  >
<polygon points="578,90 579,90 584,85 579,80 578,80 578,90 " style="fill:#15d863; stroke-width:1; stroke:black; " description="&lt;b&gt;PFLU_2559&lt;/b&gt;&lt;br&gt;AsnC family regulatory protein&lt;br&gt;Location: 36364 - 36834&lt;br&gt;&lt;br&gt;&lt;b&gt;BlastP hit with ctg21_27&lt;/b&gt;&lt;br&gt;Percentage identity: 97&lt;br&gt;Percentage coverage: 100&lt;br&gt;BLAST bit score: 301&lt;br&gt;E-value: 1.16e-106" locus_tag="PFLU_2559" class="clusterblast-orf" id="dummy-1_h1_1_10"  />
</g>
<g id="a1_0011"  >
<polygon points="590,90 590,90 595,85 590,80 590,80 590,90 " style="fill:white; stroke-width:1; stroke:black; " description="&lt;b&gt;PFLU_2561&lt;/b&gt;&lt;br&gt;conserved hypothetical protein&lt;br&gt;Location: 37269 - 37706" locus_tag="PFLU_2561" class="clusterblast-orf" id="dummy-1_h1_1_11"  />
</g>
<g id="a1_0012"  >
<polygon points="595,85 600,80 623,80 623,90 600,90 595,85 " style="fill:#3c15d8; stroke-width:1; stroke:black; " description="&lt;b&gt;PFLU_2562&lt;/b&gt;&lt;br&gt;putative ferric siderophore receptor&lt;br&gt;Location: 37710 - 39872&lt;br&gt;&lt;br&gt;&lt;b&gt;BlastP hit with ctg21_30&lt;/b&gt;&lt;br&gt;Percentage identity: 89&lt;br&gt;Percentage coverage: 101&lt;br&gt;BLAST bit score: 1283&lt;br&gt;E-value: 0.0" locus_tag="PFLU_2562" class="clusterblast-orf" id="dummy-1_h1_1_12"  />
</g>
<g id="a1_0013"  >
<polygon points="624,85 629,80 636,80 636,90 629,90 624,85 " style="fill:#d8158a; stroke-width:1; stroke:black; " description="&lt;b&gt;PFLU_2563&lt;/b&gt;&lt;br&gt;putative AraC-type regulatory protein&lt;br&gt;Location: 39960 - 40892&lt;br&gt;&lt;br&gt;&lt;b&gt;BlastP hit with ctg21_31&lt;/b&gt;&lt;br&gt;Percentage identity: 90&lt;br&gt;Percentage coverage: 100&lt;br&gt;BLAST bit score: 477&lt;br&gt;E-value: 5.13e-172" locus_tag="PFLU_2563" class="clusterblast-orf" id="dummy-1_h1_1_13"  />
</g>
<g id="a1_0014"  >
<polygon points="638,90 647,90 652,85 647,80 638,80 638,90 " style="fill:#b1d815; stroke-width:1; stroke:black; " description="&lt;b&gt;PFLU_2564&lt;/b&gt;&lt;br&gt;putrescine ABC transporter, substrate-binding protein&lt;br&gt;Location: 41057 - 42145&lt;br&gt;&lt;br&gt;&lt;b&gt;BlastP hit with ctg21_33&lt;/b&gt;&lt;br&gt;Percentage identity: 95&lt;br&gt;Percentage coverage: 100&lt;br&gt;BLAST bit score: 693&lt;br&gt;E-value: 5.71e-255" locus_tag="PFLU_2564" class="clusterblast-orf" id="dummy-1_h1_1_14"  />
</g>
<g id="a1_0015"  >
<polygon points="652,90 664,90 669,85 664,80 652,80 652,90 " style="fill:#15d8d8; stroke-width:1; stroke:black; " description="&lt;b&gt;PFLU_2565&lt;/b&gt;&lt;br&gt;putative oxidoreductase&lt;br&gt;Location: 42142 - 43437&lt;br&gt;&lt;br&gt;&lt;b&gt;BlastP hit with ctg21_34&lt;/b&gt;&lt;br&gt;Percentage identity: 90&lt;br&gt;Percentage coverage: 99&lt;br&gt;BLAST bit score: 793&lt;br&gt;E-value: 2.92e-292" locus_tag="PFLU_2565" class="clusterblast-orf" id="dummy-1_h1_1_15"  />
</g>
</svg>
