<svg xmlns="http://www.w3.org/2000/svg" xmlns:xlink="http://www.w3.org/1999/xlink" version="1.1" x="0" y="0" height="230" width="800" viewBox="0 0 800 230" preserveAspectRatio="none"  >
<g label="Query sequence" class="clusterblast-cluster"  >
<text x="5" y="20" class="clusterblast-acc"  >
Query sequence</text>
<line x1="10" y1="35" x2="778.0" y2="35" style="stroke-width:1; stroke:grey; "  />
<polygon points="0,40 0,40 5,35 0,30 0,30 0,40 " style="fill:white; stroke-width:1; stroke:black; " description="&lt;b&gt;ctg4_157&lt;/b&gt;&lt;br&gt;ctg4 157&lt;br&gt;Location: 167510 - 167861" locus_tag="ctg4_157" class="clusterblast-orf" id="dummy-2_q0_0_all"  />
<polygon points="5,40 5,40 10,35 5,30 5,30 5,40 " style="fill:white; stroke-width:1; stroke:black; " description="&lt;b&gt;ctg4_158&lt;/b&gt;&lt;br&gt;ctg4 158&lt;br&gt;Location: 167884 - 168211" locus_tag="ctg4_158" class="clusterblast-orf" id="dummy-2_q1_0_all"  />
<polygon points="11,40 14,40 19,35 14,30 11,30 11,40 " style="fill:white; stroke-width:1; stroke:black; " description="&lt;b&gt;ctg4_159&lt;/b&gt;&lt;br&gt;ctg4 159&lt;br&gt;Location: 168243 - 168789" locus_tag="ctg4_159" class="clusterblast-orf" id="dummy-2_q2_0_all"  />
<polygon points="20,40 29,40 34,35 29,30 20,30 20,40 " style="fill:white; stroke-width:1; stroke:black; " description="&lt;b&gt;ctg4_160&lt;/b&gt;&lt;br&gt;ctg4 160&lt;br&gt;Location: 168879 - 169800" locus_tag="ctg4_160" class="clusterblast-orf" id="dummy-2_q3_0_all"  />
<polygon points="33,35 38,30 43,30 43,40 38,40 33,35 " style="fill:white; stroke-width:1; stroke:black; " description="&lt;b&gt;ctg4_161&lt;/b&gt;&lt;br&gt;ctg4 161&lt;br&gt;Location: 169758 - 170418" locus_tag="ctg4_161" class="clusterblast-orf" id="dummy-2_q4_0_all"  />
<polygon points="43,35 48,30 57,30 57,40 48,40 43,35 " style="fill:white; stroke-width:1; stroke:black; " description="&lt;b&gt;ctg4_162&lt;/b&gt;&lt;br&gt;ctg4 162&lt;br&gt;Location: 170414 - 171308" locus_tag="ctg4_162" class="clusterblast-orf" id="dummy-2_q5_0_all"  />
<polygon points="62,35 67,30 69,30 69,40 67,40 62,35 " style="fill:white; stroke-width:1; stroke:black; " description="&lt;b&gt;ctg4_163&lt;/b&gt;&lt;br&gt;ctg4 163&lt;br&gt;Location: 171691 - 172141" locus_tag="ctg4_163" class="clusterblast-orf" id="dummy-2_q6_0_all"  />
<polygon points="77,40 86,40 91,35 86,30 77,30 77,40 " style="fill:white; stroke-width:1; stroke:black; " description="&lt;b&gt;ctg4_164&lt;/b&gt;&lt;br&gt;ctg4 164&lt;br&gt;Location: 172674 - 173610" locus_tag="ctg4_164" class="clusterblast-orf" id="dummy-2_q7_0_all"  />
<polygon points="92,40 99,40 104,35 99,30 92,30 92,40 " style="fill:white; stroke-width:1; stroke:black; " description="&lt;b&gt;ctg4_165&lt;/b&gt;&lt;br&gt;ctg4 165&lt;br&gt;Location: 173648 - 174455" locus_tag="ctg4_165" class="clusterblast-orf" id="dummy-2_q8_0_all"  />
<polygon points="105,35 109,30 109,40 105,35 " style="fill:white; stroke-width:1; stroke:black; " description="&lt;b&gt;ctg4_166&lt;/b&gt;&lt;br&gt;ctg4 166&lt;br&gt;Location: 174519 - 174804" locus_tag="ctg4_166" class="clusterblast-orf" id="dummy-2_q9_0_all"  />
<polygon points="110,35 115,30 118,30 118,40 115,40 110,35 " style="fill:white; stroke-width:1; stroke:black; " description="&lt;b&gt;ctg4_167&lt;/b&gt;&lt;br&gt;ctg4 167&lt;br&gt;Location: 174869 - 175412" locus_tag="ctg4_167" class="clusterblast-orf" id="dummy-2_q10_0_all"  />
<polygon points="119,35 124,30 148,30 148,40 124,40 119,35 " style="fill:#d81515; stroke-width:1; stroke:black; " description="&lt;b&gt;ctg4_168&lt;/b&gt;&lt;br&gt;ctg4 168&lt;br&gt;Location: 175503 - 177426" locus_tag="ctg4_168" class="clusterblast-orf" id="dummy-2_q11_0_all"  />
<polygon points="150,35 155,30 161,30 161,40 155,40 150,35 " style="fill:white; stroke-width:1; stroke:black; " description="&lt;b&gt;ctg4_169&lt;/b&gt;&lt;br&gt;ctg4 169&lt;br&gt;Location: 177537 - 178305" locus_tag="ctg4_169" class="clusterblast-orf" id="dummy-2_q12_0_all"  />
<polygon points="161,35 166,30 179,30 179,40 166,40 161,35 " style="fill:white; stroke-width:1; stroke:black; " description="&lt;b&gt;ctg4_170&lt;/b&gt;&lt;br&gt;ctg4 170&lt;br&gt;Location: 178301 - 179459" locus_tag="ctg4_170" class="clusterblast-orf" id="dummy-2_q13_0_all"  />
<polygon points="179,35 184,30 203,30 203,40 184,40 179,35 " style="fill:#43d815; stroke-width:1; stroke:black; " description="&lt;b&gt;ctg4_171&lt;/b&gt;&lt;br&gt;ctg4 171&lt;br&gt;Location: 179475 - 181092" locus_tag="ctg4_171" class="clusterblast-orf" id="dummy-2_q14_0_all"  />
<polygon points="203,35 208,30 216,30 216,40 208,40 203,35 " style="fill:white; stroke-width:1; stroke:black; " description="&lt;b&gt;ctg4_172&lt;/b&gt;&lt;br&gt;ctg4 172&lt;br&gt;Location: 181095 - 181968" locus_tag="ctg4_172" class="clusterblast-orf" id="dummy-2_q15_0_all"  />
<polygon points="216,35 221,30 243,30 243,40 221,40 216,35 " style="fill:white; stroke-width:1; stroke:black; " description="&lt;b&gt;ctg4_173&lt;/b&gt;&lt;br&gt;ctg4 173&lt;br&gt;Location: 181980 - 183759" locus_tag="ctg4_173" class="clusterblast-orf" id="dummy-2_q16_0_all"  />
<polygon points="245,40 250,40 255,35 250,30 245,30 245,40 " style="fill:white; stroke-width:1; stroke:black; " description="&lt;b&gt;ctg4_174&lt;/b&gt;&lt;br&gt;ctg4 174&lt;br&gt;Location: 183912 - 184536" locus_tag="ctg4_174" class="clusterblast-orf" id="dummy-2_q17_0_all"  />
<polygon points="256,40 263,40 268,35 263,30 256,30 256,40 " style="fill:white; stroke-width:1; stroke:black; " description="&lt;b&gt;ctg4_175&lt;/b&gt;&lt;br&gt;ctg4 175&lt;br&gt;Location: 184629 - 185418" locus_tag="ctg4_175" class="clusterblast-orf" id="dummy-2_q18_0_all"  />
<polygon points="269,35 274,30 277,30 277,40 274,40 269,35 " style="fill:#15b6d8; stroke-width:1; stroke:black; " description="&lt;b&gt;ctg4_176&lt;/b&gt;&lt;br&gt;ctg4 176&lt;br&gt;Location: 185456 - 186008" locus_tag="ctg4_176" class="clusterblast-orf" id="dummy-2_q19_0_all"  />
<polygon points="281,40 288,40 293,35 288,30 281,30 281,40 " style="fill:#8815d8; stroke-width:1; stroke:black; " description="&lt;b&gt;ctg4_177&lt;/b&gt;&lt;br&gt;ctg4 177&lt;br&gt;Location: 186308 - 187061" locus_tag="ctg4_177" class="clusterblast-orf" id="dummy-2_q20_0_all"  />
<polygon points="293,40 482,40 487,35 482,30 293,30 293,40 " style="fill:#d85a15; stroke-width:1; stroke:black; " description="&lt;b&gt;ctg4_178&lt;/b&gt;&lt;br&gt;ctg4 178&lt;br&gt;Location: 187111 - 200008" locus_tag="ctg4_178" class="clusterblast-orf" id="dummy-2_q21_0_all"  />
<polygon points="502,40 506,40 511,35 506,30 502,30 502,40 " style="fill:#15d82c; stroke-width:1; stroke:black; " description="&lt;b&gt;ctg4_179&lt;/b&gt;&lt;br&gt;ctg4 179&lt;br&gt;Location: 201028 - 201664" locus_tag="ctg4_179" class="clusterblast-orf" id="dummy-2_q22_0_all"  />
<polygon points="512,40 523,40 528,35 523,30 512,30 512,40 " style="fill:#1571d8; stroke-width:1; stroke:black; " description="&lt;b&gt;ctg4_180&lt;/b&gt;&lt;br&gt;ctg4 180&lt;br&gt;Location: 201704 - 202769" locus_tag="ctg4_180" class="clusterblast-orf" id="dummy-2_q23_0_all"  />
<polygon points="531,35 536,30 542,30 542,40 536,40 531,35 " style="fill:#cd15d8; stroke-width:1; stroke:black; " description="&lt;b&gt;ctg4_181&lt;/b&gt;&lt;br&gt;ctg4 181&lt;br&gt;Location: 202969 - 203731" locus_tag="ctg4_181" class="clusterblast-orf" id="dummy-2_q24_0_all"  />
<polygon points="542,35 547,30 555,30 555,40 547,40 542,35 " style="fill:#d89f15; stroke-width:1; stroke:black; " description="&lt;b&gt;ctg4_182&lt;/b&gt;&lt;br&gt;ctg4 182&lt;br&gt;Location: 203706 - 204558" locus_tag="ctg4_182" class="clusterblast-orf" id="dummy-2_q25_0_all"  />
<polygon points="555,35 560,30 581,30 581,40 560,40 555,35 " style="fill:#15d871; stroke-width:1; stroke:black; " description="&lt;b&gt;ctg4_183&lt;/b&gt;&lt;br&gt;ctg4 183&lt;br&gt;Location: 204557 - 206303" locus_tag="ctg4_183" class="clusterblast-orf" id="dummy-2_q26_0_all"  />
<polygon points="584,40 589,40 594,35 589,30 584,30 584,40 " style="fill:#152cd8; stroke-width:1; stroke:black; " description="&lt;b&gt;ctg4_184&lt;/b&gt;&lt;br&gt;ctg4 184&lt;br&gt;Location: 206479 - 207175" locus_tag="ctg4_184" class="clusterblast-orf" id="dummy-2_q27_0_all"  />
<polygon points="594,40 609,40 614,35 609,30 594,30 594,40 " style="fill:#d8159f; stroke-width:1; stroke:black; " description="&lt;b&gt;ctg4_185&lt;/b&gt;&lt;br&gt;ctg4 185&lt;br&gt;Location: 207171 - 208494" locus_tag="ctg4_185" class="clusterblast-orf" id="dummy-2_q28_0_all"  />
<polygon points="616,40 622,40 627,35 622,30 616,30 616,40 " style="fill:white; stroke-width:1; stroke:black; " description="&lt;b&gt;ctg4_186&lt;/b&gt;&lt;br&gt;ctg4 186&lt;br&gt;Location: 208618 - 209386" locus_tag="ctg4_186" class="clusterblast-orf" id="dummy-2_q29_0_all"  />
<polygon points="630,40 646,40 651,35 646,30 630,30 630,40 " style="fill:#cdd815; stroke-width:1; stroke:black; " description="&lt;b&gt;ctg4_187&lt;/b&gt;&lt;br&gt;ctg4 187&lt;br&gt;Location: 209582 - 210995" locus_tag="ctg4_187" class="clusterblast-orf" id="dummy-2_q30_0_all"  />
<polygon points="653,40 656,35 653,30 653,40 " style="fill:#15d8b6; stroke-width:1; stroke:black; " description="&lt;b&gt;ctg4_188&lt;/b&gt;&lt;br&gt;ctg4 188&lt;br&gt;Location: 211078 - 211303" locus_tag="ctg4_188" class="clusterblast-orf" id="dummy-2_q31_0_all"  />
<polygon points="658,35 663,30 678,30 678,40 663,40 658,35 " style="fill:white; stroke-width:1; stroke:black; " description="&lt;b&gt;ctg4_189&lt;/b&gt;&lt;br&gt;ctg4 189&lt;br&gt;Location: 211419 - 212766" locus_tag="ctg4_189" class="clusterblast-orf" id="dummy-2_q32_0_all"  />
<polygon points="678,35 683,30 711,30 711,40 683,40 678,35 " style="fill:white; stroke-width:1; stroke:black; " description="&lt;b&gt;ctg4_190&lt;/b&gt;&lt;br&gt;ctg4 190&lt;br&gt;Location: 212783 - 214949" locus_tag="ctg4_190" class="clusterblast-orf" id="dummy-2_q33_0_all"  />
<polygon points="712,35 714,30 714,40 712,35 " style="fill:white; stroke-width:1; stroke:black; " description="&lt;b&gt;ctg4_191&lt;/b&gt;&lt;br&gt;ctg4 191&lt;br&gt;Location: 215021 - 215198" locus_tag="ctg4_191" class="clusterblast-orf" id="dummy-2_q34_0_all"  />
<polygon points="718,35 723,30 737,30 737,40 723,40 718,35 " style="fill:white; stroke-width:1; stroke:black; " description="&lt;b&gt;ctg4_192&lt;/b&gt;&lt;br&gt;ctg4 192&lt;br&gt;Location: 215418 - 216708" locus_tag="ctg4_192" class="clusterblast-orf" id="dummy-2_q35_0_all"  />
<polygon points="739,35 744,30 748,30 748,40 744,40 739,35 " style="fill:white; stroke-width:1; stroke:black; " description="&lt;b&gt;ctg4_193&lt;/b&gt;&lt;br&gt;ctg4 193&lt;br&gt;Location: 216818 - 217454" locus_tag="ctg4_193" class="clusterblast-orf" id="dummy-2_q36_0_all"  />
<polygon points="750,35 753,30 753,40 750,35 " style="fill:#4315d8; stroke-width:1; stroke:black; " description="&lt;b&gt;ctg4_194&lt;/b&gt;&lt;br&gt;ctg4 194&lt;br&gt;Location: 217550 - 217805" locus_tag="ctg4_194" class="clusterblast-orf" id="dummy-2_q37_0_all"  />
<polygon points="753,35 758,30 766,30 766,40 758,40 753,35 " style="fill:#d8155a; stroke-width:1; stroke:black; " description="&lt;b&gt;ctg4_195&lt;/b&gt;&lt;br&gt;ctg4 195&lt;br&gt;Location: 217808 - 218621" locus_tag="ctg4_195" class="clusterblast-orf" id="dummy-2_q38_0_all"  />
<polygon points="769,35 774,30 780,30 780,40 774,40 769,35 " style="fill:#88d815; stroke-width:1; stroke:black; " description="&lt;b&gt;ctg4_196&lt;/b&gt;&lt;br&gt;ctg4 196&lt;br&gt;Location: 218821 - 219559" locus_tag="ctg4_196" class="clusterblast-orf" id="dummy-2_q39_0_all"  />
</g>
<g label="BGC0001890" description="BGC0001890_c1: amphi-enterobactin 1/amphi-enterobactin 2/amphi-enterobactin 3... (8% of genes show similarity), NRP" class="clusterblast-cluster"  >
<text x="5" y="70" class="clusterblast-acc"  >
<a xlink:href="https://mibig.secondarymetabolites.org/go/BGC0001890/1" target="_blank">BGC0001890</a>: amphi-enterobactin 1/amphi-enterobactin 2/amphi-enterobactin 3/amphi-enterobactin 4 (8% of genes show similarity), NRP</text>
<line x1="10" y1="85" x2="778.0" y2="85" style="stroke-width:1; stroke:grey; "  />
</g>
<g id="a2_000"  >
<polygon points="177,90 196,90 201,85 196,80 177,80 177,90 " style="fill:white; stroke-width:1; stroke:black; " description="&lt;b&gt;VIBHAR_01379&lt;/b&gt;&lt;br&gt;hypothetical protein&lt;br&gt;Location: 2 - 1612" locus_tag="VIBHAR_01379" class="clusterblast-orf" id="dummy-2_h2_8_0"  />
</g>
<g id="a2_001"  >
<polygon points="202,90 214,90 219,85 214,80 202,80 202,90 " style="fill:white; stroke-width:1; stroke:black; " description="&lt;b&gt;VIBHAR_01380&lt;/b&gt;&lt;br&gt;hypothetical protein&lt;br&gt;Location: 1670 - 2818" locus_tag="VIBHAR_01380" class="clusterblast-orf" id="dummy-2_h2_8_1"  />
</g>
<g id="a2_002"  >
<polygon points="224,90 234,90 239,85 234,80 224,80 224,90 " style="fill:white; stroke-width:1; stroke:black; " description="&lt;b&gt;VIBHAR_01381&lt;/b&gt;&lt;br&gt;hypothetical protein&lt;br&gt;Location: 3103 - 4128" locus_tag="VIBHAR_01381" class="clusterblast-orf" id="dummy-2_h2_8_2"  />
</g>
<g id="a2_003"  >
<polygon points="246,90 256,90 261,85 256,80 246,80 246,90 " style="fill:white; stroke-width:1; stroke:black; " description="&lt;b&gt;VIBHAR_01382&lt;/b&gt;&lt;br&gt;hypothetical protein&lt;br&gt;Location: 4611 - 5636" locus_tag="VIBHAR_01382" class="clusterblast-orf" id="dummy-2_h2_8_3"  />
</g>
<g id="a2_004"  >
<polygon points="268,85 272,80 272,90 268,85 " style="fill:#4315d8; stroke-width:1; stroke:black; " description="&lt;b&gt;VIBHAR_01383&lt;/b&gt;&lt;br&gt;hypothetical protein&lt;br&gt;Location: 6097 - 6360&lt;br&gt;&lt;br&gt;&lt;b&gt;BlastP hit with ctg4_194&lt;/b&gt;&lt;br&gt;Percentage identity: 48&lt;br&gt;Percentage coverage: 101&lt;br&gt;BLAST bit score: 71&lt;br&gt;E-value: 9.44e-18" locus_tag="VIBHAR_01383" class="clusterblast-orf" id="dummy-2_h2_8_4"  />
</g>
<g id="a2_005"  >
<polygon points="272,85 277,80 285,80 285,90 277,90 272,85 " style="fill:#d8155a; stroke-width:1; stroke:black; " description="&lt;b&gt;VIBHAR_01384&lt;/b&gt;&lt;br&gt;hypothetical protein&lt;br&gt;Location: 6363 - 7175&lt;br&gt;&lt;br&gt;&lt;b&gt;BlastP hit with ctg4_195&lt;/b&gt;&lt;br&gt;Percentage identity: 73&lt;br&gt;Percentage coverage: 100&lt;br&gt;BLAST bit score: 399&lt;br&gt;E-value: 1.22e-141" locus_tag="VIBHAR_01384" class="clusterblast-orf" id="dummy-2_h2_8_5"  />
</g>
<g id="a2_006"  >
<polygon points="285,85 290,80 295,80 295,90 290,90 285,85 " style="fill:white; stroke-width:1; stroke:black; " description="&lt;b&gt;VIBHAR_01386&lt;/b&gt;&lt;br&gt;hypothetical protein&lt;br&gt;Location: 7193 - 7855" locus_tag="VIBHAR_01386" class="clusterblast-orf" id="dummy-2_h2_8_6"  />
</g>
<g id="a2_007"  >
<polygon points="294,90 296,85 294,80 294,90 " style="fill:white; stroke-width:1; stroke:black; " description="&lt;b&gt;VIBHAR_01385&lt;/b&gt;&lt;br&gt;hypothetical protein&lt;br&gt;Location: 7791 - 7955" locus_tag="VIBHAR_01385" class="clusterblast-orf" id="dummy-2_h2_8_7"  />
</g>
<g id="a2_008"  >
<polygon points="298,90 302,85 298,80 298,90 " style="fill:white; stroke-width:1; stroke:black; " description="&lt;b&gt;VIBHAR_01387&lt;/b&gt;&lt;br&gt;hypothetical protein&lt;br&gt;Location: 8053 - 8334" locus_tag="VIBHAR_01387" class="clusterblast-orf" id="dummy-2_h2_8_8"  />
</g>
<g id="a2_009"  >
<polygon points="303,90 312,90 317,85 312,80 303,80 303,90 " style="fill:white; stroke-width:1; stroke:black; " description="&lt;b&gt;VIBHAR_01388&lt;/b&gt;&lt;br&gt;hypothetical protein&lt;br&gt;Location: 8383 - 9354" locus_tag="VIBHAR_01388" class="clusterblast-orf" id="dummy-2_h2_8_9"  />
</g>
<g id="a2_0010"  >
<polygon points="319,90 327,90 332,85 327,80 319,80 319,90 " style="fill:white; stroke-width:1; stroke:black; " description="&lt;b&gt;VIBHAR_01389&lt;/b&gt;&lt;br&gt;hypothetical protein&lt;br&gt;Location: 9450 - 10370" locus_tag="VIBHAR_01389" class="clusterblast-orf" id="dummy-2_h2_8_10"  />
</g>
<g id="a2_0011"  >
<polygon points="336,90 349,90 354,85 349,80 336,80 336,90 " style="fill:white; stroke-width:1; stroke:black; " description="&lt;b&gt;VIBHAR_01390&lt;/b&gt;&lt;br&gt;hypothetical protein&lt;br&gt;Location: 10607 - 11806" locus_tag="VIBHAR_01390" class="clusterblast-orf" id="dummy-2_h2_8_11"  />
</g>
<g id="a2_0012"  >
<polygon points="360,85 365,80 373,80 373,90 365,90 360,85 " style="fill:white; stroke-width:1; stroke:black; " description="&lt;b&gt;VIBHAR_01391&lt;/b&gt;&lt;br&gt;hypothetical protein&lt;br&gt;Location: 12233 - 13093" locus_tag="VIBHAR_01391" class="clusterblast-orf" id="dummy-2_h2_8_12"  />
</g>
<g id="a2_0013"  >
<polygon points="381,90 400,90 405,85 400,80 381,80 381,90 " style="fill:white; stroke-width:1; stroke:black; " description="&lt;b&gt;VIBHAR_01393&lt;/b&gt;&lt;br&gt;hypothetical protein&lt;br&gt;Location: 13619 - 15226" locus_tag="VIBHAR_01393" class="clusterblast-orf" id="dummy-2_h2_8_13"  />
</g>
<g id="a2_0014"  >
<polygon points="406,90 408,90 413,85 408,80 406,80 406,90 " style="fill:white; stroke-width:1; stroke:black; " description="&lt;b&gt;VIBHAR_01394&lt;/b&gt;&lt;br&gt;hypothetical protein&lt;br&gt;Location: 15308 - 15736" locus_tag="VIBHAR_01394" class="clusterblast-orf" id="dummy-2_h2_8_14"  />
</g>
<g id="a2_0015"  >
<polygon points="415,90 421,90 426,85 421,80 415,80 415,90 " style="fill:white; stroke-width:1; stroke:black; " description="&lt;b&gt;VIBHAR_01395&lt;/b&gt;&lt;br&gt;hypothetical protein&lt;br&gt;Location: 15868 - 16590" locus_tag="VIBHAR_01395" class="clusterblast-orf" id="dummy-2_h2_8_15"  />
</g>
<g id="a2_0016"  >
<polygon points="426,85 431,80 438,80 438,90 431,90 426,85 " style="fill:white; stroke-width:1; stroke:black; " description="&lt;b&gt;VIBHAR_01396&lt;/b&gt;&lt;br&gt;hypothetical protein&lt;br&gt;Location: 16610 - 17431" locus_tag="VIBHAR_01396" class="clusterblast-orf" id="dummy-2_h2_8_16"  />
</g>
<g id="a2_0017"  >
<polygon points="438,90 451,90 456,85 451,80 438,80 438,90 " style="fill:white; stroke-width:1; stroke:black; " description="&lt;b&gt;VIBHAR_01397&lt;/b&gt;&lt;br&gt;hypothetical protein&lt;br&gt;Location: 17443 - 18600" locus_tag="VIBHAR_01397" class="clusterblast-orf" id="dummy-2_h2_8_17"  />
</g>
<g id="a2_0018"  >
<polygon points="460,90 473,90 478,85 473,80 460,80 460,90 " style="fill:white; stroke-width:1; stroke:black; " description="&lt;b&gt;VIBHAR_01398&lt;/b&gt;&lt;br&gt;hypothetical protein&lt;br&gt;Location: 18892 - 20112" locus_tag="VIBHAR_01398" class="clusterblast-orf" id="dummy-2_h2_8_18"  />
</g>
<g id="a2_0019"  >
<polygon points="478,90 498,90 503,85 498,80 478,80 478,90 " style="fill:white; stroke-width:1; stroke:black; " description="&lt;b&gt;VIBHAR_01399&lt;/b&gt;&lt;br&gt;hypothetical protein&lt;br&gt;Location: 20109 - 21728" locus_tag="VIBHAR_01399" class="clusterblast-orf" id="dummy-2_h2_8_19"  />
</g>
<g id="a2_0020"  >
<polygon points="504,90 512,90 517,85 512,80 504,80 504,90 " style="fill:white; stroke-width:1; stroke:black; " description="&lt;b&gt;VIBHAR_01400&lt;/b&gt;&lt;br&gt;hypothetical protein&lt;br&gt;Location: 21793 - 22683" locus_tag="VIBHAR_01400" class="clusterblast-orf" id="dummy-2_h2_8_20"  />
</g>
<g id="a2_0021"  >
<polygon points="517,90 572,90 577,85 572,80 517,80 517,90 " style="fill:white; stroke-width:1; stroke:black; " description="&lt;b&gt;VIBHAR_01401&lt;/b&gt;&lt;br&gt;hypothetical protein&lt;br&gt;Location: 22711 - 26664" locus_tag="VIBHAR_01401" class="clusterblast-orf" id="dummy-2_h2_8_21"  />
</g>
<g id="a2_0022"  >
<polygon points="576,90 586,90 591,85 586,80 576,80 576,90 " style="fill:white; stroke-width:1; stroke:black; " description="&lt;b&gt;VIBHAR_01402&lt;/b&gt;&lt;br&gt;hypothetical protein&lt;br&gt;Location: 26657 - 27598" locus_tag="VIBHAR_01402" class="clusterblast-orf" id="dummy-2_h2_8_22"  />
</g>
<g id="a2_0023"  >
<polygon points="591,85 596,80 602,80 602,90 596,90 591,85 " style="fill:white; stroke-width:1; stroke:black; " description="&lt;b&gt;VIBHAR_01403&lt;/b&gt;&lt;br&gt;hypothetical protein&lt;br&gt;Location: 27616 - 28356" locus_tag="VIBHAR_01403" class="clusterblast-orf" id="dummy-2_h2_8_23"  />
</g>
</svg>
