<svg xmlns="http://www.w3.org/2000/svg" xmlns:xlink="http://www.w3.org/1999/xlink" version="1.1" x="0" y="0" height="230" width="800" viewBox="0 0 800 230" preserveAspectRatio="none"  >
<g label="Query sequence" class="clusterblast-cluster"  >
<text x="5" y="20" class="clusterblast-acc"  >
Query sequence</text>
<line x1="10" y1="35" x2="778.0" y2="35" style="stroke-width:1; stroke:grey; "  />
<polygon points="2,35 7,30 18,30 18,40 7,40 2,35 " style="fill:#d81515; stroke-width:1; stroke:black; " description="&lt;b&gt;ctg8_154&lt;/b&gt;&lt;br&gt;ctg8 154&lt;br&gt;Location: 180553 - 181477" locus_tag="ctg8_154" class="clusterblast-orf" id="dummy-2_q0_0_all"  />
<polygon points="24,40 31,40 36,35 31,30 24,30 24,40 " style="fill:#65d815; stroke-width:1; stroke:black; " description="&lt;b&gt;ctg8_155&lt;/b&gt;&lt;br&gt;ctg8 155&lt;br&gt;Location: 181794 - 182466" locus_tag="ctg8_155" class="clusterblast-orf" id="dummy-2_q1_0_all"  />
<polygon points="36,40 50,40 55,35 50,30 36,30 36,40 " style="fill:#15b6d8; stroke-width:1; stroke:black; " description="&lt;b&gt;ctg8_156&lt;/b&gt;&lt;br&gt;ctg8 156&lt;br&gt;Location: 182468 - 183569" locus_tag="ctg8_156" class="clusterblast-orf" id="dummy-2_q2_0_all"  />
<polygon points="56,35 61,30 81,30 81,40 61,40 56,35 " style="fill:#8815d8; stroke-width:1; stroke:black; " description="&lt;b&gt;ctg8_157&lt;/b&gt;&lt;br&gt;ctg8 157&lt;br&gt;Location: 183619 - 185062" locus_tag="ctg8_157" class="clusterblast-orf" id="dummy-2_q3_0_all"  />
<polygon points="84,35 89,30 103,30 103,40 89,40 84,35 " style="fill:#d83815; stroke-width:1; stroke:black; " description="&lt;b&gt;ctg8_158&lt;/b&gt;&lt;br&gt;ctg8 158&lt;br&gt;Location: 185212 - 186277" locus_tag="ctg8_158" class="clusterblast-orf" id="dummy-2_q4_0_all"  />
<polygon points="103,35 108,30 146,30 146,40 108,40 103,35 " style="fill:#43d815; stroke-width:1; stroke:black; " description="&lt;b&gt;ctg8_159&lt;/b&gt;&lt;br&gt;ctg8 159&lt;br&gt;Location: 186266 - 188729" locus_tag="ctg8_159" class="clusterblast-orf" id="dummy-2_q5_0_all"  />
<polygon points="146,35 151,30 158,30 158,40 151,40 146,35 " style="fill:#1593d8; stroke-width:1; stroke:black; " description="&lt;b&gt;ctg8_160&lt;/b&gt;&lt;br&gt;ctg8 160&lt;br&gt;Location: 188730 - 189399" locus_tag="ctg8_160" class="clusterblast-orf" id="dummy-2_q6_0_all"  />
<polygon points="163,40 170,40 175,35 170,30 163,30 163,40 " style="fill:#aa15d8; stroke-width:1; stroke:black; " description="&lt;b&gt;ctg8_161&lt;/b&gt;&lt;br&gt;ctg8 161&lt;br&gt;Location: 189673 - 190348" locus_tag="ctg8_161" class="clusterblast-orf" id="dummy-2_q7_0_all"  />
<polygon points="176,40 178,35 176,30 176,40 " style="fill:white; stroke-width:1; stroke:black; " description="&lt;b&gt;ctg8_162&lt;/b&gt;&lt;br&gt;ctg8 162&lt;br&gt;Location: 190439 - 190541" locus_tag="ctg8_162" class="clusterblast-orf" id="dummy-2_q8_0_all"  />
<polygon points="178,40 202,40 207,35 202,30 178,30 178,40 " style="fill:#d85a15; stroke-width:1; stroke:black; " description="&lt;b&gt;ctg8_163&lt;/b&gt;&lt;br&gt;ctg8 163&lt;br&gt;Location: 190537 - 192193" locus_tag="ctg8_163" class="clusterblast-orf" id="dummy-2_q9_0_all"  />
<polygon points="208,40 229,40 234,35 229,30 208,30 208,40 " style="fill:#d85a15; stroke-width:1; stroke:black; " description="&lt;b&gt;ctg8_164&lt;/b&gt;&lt;br&gt;ctg8 164&lt;br&gt;Location: 192219 - 193737" locus_tag="ctg8_164" class="clusterblast-orf" id="dummy-2_q10_0_all"  />
<polygon points="235,35 240,30 247,30 247,40 240,40 235,35 " style="fill:#21d815; stroke-width:1; stroke:black; " description="&lt;b&gt;ctg8_165&lt;/b&gt;&lt;br&gt;ctg8 165&lt;br&gt;Location: 193758 - 194472" locus_tag="ctg8_165" class="clusterblast-orf" id="dummy-2_q11_0_all"  />
<polygon points="247,35 252,30 261,30 261,40 252,40 247,35 " style="fill:#1571d8; stroke-width:1; stroke:black; " description="&lt;b&gt;ctg8_166&lt;/b&gt;&lt;br&gt;ctg8 166&lt;br&gt;Location: 194471 - 195224" locus_tag="ctg8_166" class="clusterblast-orf" id="dummy-2_q12_0_all"  />
<polygon points="261,35 266,30 282,30 282,40 266,40 261,35 " style="fill:#cd15d8; stroke-width:1; stroke:black; " description="&lt;b&gt;ctg8_167&lt;/b&gt;&lt;br&gt;ctg8 167&lt;br&gt;Location: 195232 - 196426" locus_tag="ctg8_167" class="clusterblast-orf" id="dummy-2_q13_0_all"  />
<polygon points="282,35 287,30 296,30 296,40 287,40 282,35 " style="fill:#d87c15; stroke-width:1; stroke:black; " description="&lt;b&gt;ctg8_168&lt;/b&gt;&lt;br&gt;ctg8 168&lt;br&gt;Location: 196412 - 197219" locus_tag="ctg8_168" class="clusterblast-orf" id="dummy-2_q14_0_all"  />
<polygon points="296,35 301,30 311,30 311,40 301,40 296,35 " style="fill:#15d82c; stroke-width:1; stroke:black; " description="&lt;b&gt;ctg8_169&lt;/b&gt;&lt;br&gt;ctg8 169&lt;br&gt;Location: 197215 - 198073" locus_tag="ctg8_169" class="clusterblast-orf" id="dummy-2_q15_0_all"  />
<polygon points="334,35 339,30 445,30 445,40 339,40 334,35 " style="fill:#154fd8; stroke-width:1; stroke:black; " description="&lt;b&gt;ctg8_170&lt;/b&gt;&lt;br&gt;ctg8 170&lt;br&gt;Location: 199392 - 205662" locus_tag="ctg8_170" class="clusterblast-orf" id="dummy-2_q16_0_all"  />
<polygon points="453,40 462,40 467,35 462,30 453,30 453,40 " style="fill:#d815c1; stroke-width:1; stroke:black; " description="&lt;b&gt;ctg8_171&lt;/b&gt;&lt;br&gt;ctg8 171&lt;br&gt;Location: 206149 - 206944" locus_tag="ctg8_171" class="clusterblast-orf" id="dummy-2_q17_0_all"  />
<polygon points="467,40 488,40 493,35 488,30 467,30 467,40 " style="fill:#d89f15; stroke-width:1; stroke:black; " description="&lt;b&gt;ctg8_172&lt;/b&gt;&lt;br&gt;ctg8 172&lt;br&gt;Location: 206943 - 208413" locus_tag="ctg8_172" class="clusterblast-orf" id="dummy-2_q18_0_all"  />
<polygon points="492,35 497,30 507,30 507,40 497,40 492,35 " style="fill:#15d84f; stroke-width:1; stroke:black; " description="&lt;b&gt;ctg8_173&lt;/b&gt;&lt;br&gt;ctg8 173&lt;br&gt;Location: 208339 - 209200" locus_tag="ctg8_173" class="clusterblast-orf" id="dummy-2_q19_0_all"  />
<polygon points="509,40 516,40 521,35 516,30 509,30 509,40 " style="fill:#152cd8; stroke-width:1; stroke:black; " description="&lt;b&gt;ctg8_174&lt;/b&gt;&lt;br&gt;ctg8 174&lt;br&gt;Location: 209328 - 209994" locus_tag="ctg8_174" class="clusterblast-orf" id="dummy-2_q20_0_all"  />
<polygon points="521,40 530,40 535,35 530,30 521,30 521,40 " style="fill:#152cd8; stroke-width:1; stroke:black; " description="&lt;b&gt;ctg8_175&lt;/b&gt;&lt;br&gt;ctg8 175&lt;br&gt;Location: 209990 - 210761" locus_tag="ctg8_175" class="clusterblast-orf" id="dummy-2_q21_0_all"  />
<polygon points="535,40 556,40 561,35 556,30 535,30 535,40 " style="fill:#d8159f; stroke-width:1; stroke:black; " description="&lt;b&gt;ctg8_176&lt;/b&gt;&lt;br&gt;ctg8 176&lt;br&gt;Location: 210766 - 212227" locus_tag="ctg8_176" class="clusterblast-orf" id="dummy-2_q22_0_all"  />
<polygon points="561,40 572,40 577,35 572,30 561,30 561,40 " style="fill:#d8c115; stroke-width:1; stroke:black; " description="&lt;b&gt;ctg8_177&lt;/b&gt;&lt;br&gt;ctg8 177&lt;br&gt;Location: 212273 - 213131" locus_tag="ctg8_177" class="clusterblast-orf" id="dummy-2_q23_0_all"  />
<polygon points="577,40 579,40 584,35 579,30 577,30 577,40 " style="fill:#15d871; stroke-width:1; stroke:black; " description="&lt;b&gt;ctg8_178&lt;/b&gt;&lt;br&gt;ctg8 178&lt;br&gt;Location: 213146 - 213539" locus_tag="ctg8_178" class="clusterblast-orf" id="dummy-2_q24_0_all"  />
<polygon points="585,40 603,40 608,35 603,30 585,30 585,40 " style="fill:#2115d8; stroke-width:1; stroke:black; " description="&lt;b&gt;ctg8_179&lt;/b&gt;&lt;br&gt;ctg8 179&lt;br&gt;Location: 213584 - 214889" locus_tag="ctg8_179" class="clusterblast-orf" id="dummy-2_q25_0_all"  />
<polygon points="608,40 617,40 622,35 617,30 608,30 608,40 " style="fill:#d8157c; stroke-width:1; stroke:black; " description="&lt;b&gt;ctg8_180&lt;/b&gt;&lt;br&gt;ctg8 180&lt;br&gt;Location: 214900 - 215704" locus_tag="ctg8_180" class="clusterblast-orf" id="dummy-2_q26_0_all"  />
<polygon points="622,40 631,40 636,35 631,30 622,30 622,40 " style="fill:#cdd815; stroke-width:1; stroke:black; " description="&lt;b&gt;ctg8_181&lt;/b&gt;&lt;br&gt;ctg8 181&lt;br&gt;Location: 215719 - 216520" locus_tag="ctg8_181" class="clusterblast-orf" id="dummy-2_q27_0_all"  />
<polygon points="639,35 644,30 646,30 646,40 644,40 639,35 " style="fill:#15d893; stroke-width:1; stroke:black; " description="&lt;b&gt;ctg8_182&lt;/b&gt;&lt;br&gt;ctg8 182&lt;br&gt;Location: 216645 - 217068" locus_tag="ctg8_182" class="clusterblast-orf" id="dummy-2_q28_0_all"  />
<polygon points="650,40 668,40 673,35 668,30 650,30 650,40 " style="fill:#4315d8; stroke-width:1; stroke:black; " description="&lt;b&gt;ctg8_183&lt;/b&gt;&lt;br&gt;ctg8 183&lt;br&gt;Location: 217276 - 218575" locus_tag="ctg8_183" class="clusterblast-orf" id="dummy-2_q29_0_all"  />
<polygon points="673,40 675,40 680,35 675,30 673,30 673,40 " style="fill:#d8155a; stroke-width:1; stroke:black; " description="&lt;b&gt;ctg8_184&lt;/b&gt;&lt;br&gt;ctg8 184&lt;br&gt;Location: 218604 - 218970" locus_tag="ctg8_184" class="clusterblast-orf" id="dummy-2_q30_0_all"  />
<polygon points="680,40 689,40 694,35 689,30 680,30 680,40 " style="fill:#aad815; stroke-width:1; stroke:black; " description="&lt;b&gt;ctg8_185&lt;/b&gt;&lt;br&gt;ctg8 185&lt;br&gt;Location: 218982 - 219804" locus_tag="ctg8_185" class="clusterblast-orf" id="dummy-2_q31_0_all"  />
<polygon points="694,40 703,40 708,35 703,30 694,30 694,40 " style="fill:#15d8b6; stroke-width:1; stroke:black; " description="&lt;b&gt;ctg8_186&lt;/b&gt;&lt;br&gt;ctg8 186&lt;br&gt;Location: 219796 - 220600" locus_tag="ctg8_186" class="clusterblast-orf" id="dummy-2_q32_0_all"  />
<polygon points="708,40 716,40 721,35 716,30 708,30 708,40 " style="fill:#6615d8; stroke-width:1; stroke:black; " description="&lt;b&gt;ctg8_187&lt;/b&gt;&lt;br&gt;ctg8 187&lt;br&gt;Location: 220589 - 221345" locus_tag="ctg8_187" class="clusterblast-orf" id="dummy-2_q33_0_all"  />
<polygon points="723,35 728,30 739,30 739,40 728,40 723,35 " style="fill:#d81538; stroke-width:1; stroke:black; " description="&lt;b&gt;ctg8_188&lt;/b&gt;&lt;br&gt;ctg8 188&lt;br&gt;Location: 221406 - 222348" locus_tag="ctg8_188" class="clusterblast-orf" id="dummy-2_q34_0_all"  />
<polygon points="741,35 746,30 752,30 752,40 746,40 741,35 " style="fill:#88d815; stroke-width:1; stroke:black; " description="&lt;b&gt;ctg8_189&lt;/b&gt;&lt;br&gt;ctg8 189&lt;br&gt;Location: 222459 - 223047" locus_tag="ctg8_189" class="clusterblast-orf" id="dummy-2_q35_0_all"  />
<polygon points="751,35 756,30 777,30 777,40 756,40 751,35 " style="fill:#15d8d8; stroke-width:1; stroke:black; " description="&lt;b&gt;ctg8_190&lt;/b&gt;&lt;br&gt;ctg8 190&lt;br&gt;Location: 223018 - 224518" locus_tag="ctg8_190" class="clusterblast-orf" id="dummy-2_q36_0_all"  />
</g>
<g label="NZ_JACAQM010000030" description="NZ_JACAQM010000030 (30927-77137): Pseudomonas reactans strain IPO3748 IPO 374... (83% of genes show similarity), NRPS" class="clusterblast-cluster"  >
<text x="5" y="70" class="clusterblast-acc"  >
<a xlink:href="https://antismash-db.secondarymetabolites.org/area.html?record=NZ_JACAQM010000030&amp;start=30927&amp;end=77137" target="_blank">NZ_JACAQM010000030 (30927-77137)</a>: Pseudomonas reactans strain IPO3748 IPO 374... (83% of genes show similarity), NRPS</text>
<line x1="10" y1="85" x2="778.0" y2="85" style="stroke-width:1; stroke:grey; "  />
</g>
<g id="a2_000"  >
<polygon points="0,85 5,80 17,80 17,90 5,90 0,85 " style="fill:white; stroke-width:1; stroke:black; " description="&lt;b&gt;HX785_RS29550&lt;/b&gt;&lt;br&gt;ribose ABC transporter permease&lt;br&gt;Location: 76252 - 75260" locus_tag="HX785_RS29550" class="clusterblast-orf" id="dummy-2_h2_6_0"  />
</g>
<g id="a2_001"  >
<polygon points="16,85 21,80 43,80 43,90 21,90 16,85 " style="fill:white; stroke-width:1; stroke:black; " description="&lt;b&gt;HX785_RS29545&lt;/b&gt;&lt;br&gt;sugar ABC transporter ATP-binding protein&lt;br&gt;Location: 75294 - 73786" locus_tag="HX785_RS29545" class="clusterblast-orf" id="dummy-2_h2_6_1"  />
</g>
<g id="a2_002"  >
<polygon points="44,85 49,80 60,80 60,90 49,90 44,85 " style="fill:#d81515; stroke-width:1; stroke:black; " description="&lt;b&gt;HX785_RS29540&lt;/b&gt;&lt;br&gt;substrate-binding domain-containing protein&lt;br&gt;Location: 73722 - 72799&lt;br&gt;&lt;br&gt;&lt;b&gt;BlastP hit with ctg8_154&lt;/b&gt;&lt;br&gt;Percentage identity: 98&lt;br&gt;Percentage coverage: 100&lt;br&gt;BLAST bit score: 580&lt;br&gt;E-value: 2.64e-210" locus_tag="HX785_RS29540" class="clusterblast-orf" id="dummy-2_h2_6_2"  />
</g>
<g id="a2_003"  >
<polygon points="64,90 71,90 76,85 71,80 64,80 64,90 " style="fill:#65d815; stroke-width:1; stroke:black; " description="&lt;b&gt;HX785_RS29535&lt;/b&gt;&lt;br&gt;sterol desaturase family protein&lt;br&gt;Location: 72605 - 71928&lt;br&gt;&lt;br&gt;&lt;b&gt;BlastP hit with ctg8_155&lt;/b&gt;&lt;br&gt;Percentage identity: 89&lt;br&gt;Percentage coverage: 100&lt;br&gt;BLAST bit score: 436&lt;br&gt;E-value: 6.38e-156" locus_tag="HX785_RS29535" class="clusterblast-orf" id="dummy-2_h2_6_3"  />
</g>
<g id="a2_004"  >
<polygon points="76,90 90,90 95,85 90,80 76,80 76,90 " style="fill:#15b6d8; stroke-width:1; stroke:black; " description="&lt;b&gt;HX785_RS29530&lt;/b&gt;&lt;br&gt;SMP-30/gluconolactonase/LRE family protein&lt;br&gt;Location: 71931 - 70831&lt;br&gt;&lt;br&gt;&lt;b&gt;BlastP hit with ctg8_156&lt;/b&gt;&lt;br&gt;Percentage identity: 88&lt;br&gt;Percentage coverage: 100&lt;br&gt;BLAST bit score: 605&lt;br&gt;E-value: 2.17e-218" locus_tag="HX785_RS29530" class="clusterblast-orf" id="dummy-2_h2_6_4"  />
</g>
<g id="a2_005"  >
<polygon points="96,85 101,80 121,80 121,90 101,90 96,85 " style="fill:#8815d8; stroke-width:1; stroke:black; " description="&lt;b&gt;HX785_RS29525&lt;/b&gt;&lt;br&gt;hypothetical protein&lt;br&gt;Location: 70782 - 69340&lt;br&gt;&lt;br&gt;&lt;b&gt;BlastP hit with ctg8_157&lt;/b&gt;&lt;br&gt;Percentage identity: 81&lt;br&gt;Percentage coverage: 100&lt;br&gt;BLAST bit score: 791&lt;br&gt;E-value: 5.42e-288" locus_tag="HX785_RS29525" class="clusterblast-orf" id="dummy-2_h2_6_5"  />
</g>
<g id="a2_006"  >
<polygon points="123,85 128,80 142,80 142,90 128,90 123,85 " style="fill:#d83815; stroke-width:1; stroke:black; " description="&lt;b&gt;HX785_RS29520&lt;/b&gt;&lt;br&gt;iron ABC transporter permease&lt;br&gt;Location: 69239 - 68178&lt;br&gt;&lt;br&gt;&lt;b&gt;BlastP hit with ctg8_158&lt;/b&gt;&lt;br&gt;Percentage identity: 89&lt;br&gt;Percentage coverage: 100&lt;br&gt;BLAST bit score: 670&lt;br&gt;E-value: 2.99e-244" locus_tag="HX785_RS29520" class="clusterblast-orf" id="dummy-2_h2_6_6"  />
</g>
<g id="a2_007"  >
<polygon points="142,85 147,80 185,80 185,90 147,90 142,85 " style="fill:#43d815; stroke-width:1; stroke:black; " description="&lt;b&gt;HX785_RS29515&lt;/b&gt;&lt;br&gt;FtsX-like permease family protein&lt;br&gt;Location: 68188 - 65726&lt;br&gt;&lt;br&gt;&lt;b&gt;BlastP hit with ctg8_159&lt;/b&gt;&lt;br&gt;Percentage identity: 89&lt;br&gt;Percentage coverage: 100&lt;br&gt;BLAST bit score: 1413&lt;br&gt;E-value: 0.0" locus_tag="HX785_RS29515" class="clusterblast-orf" id="dummy-2_h2_6_7"  />
</g>
<g id="a2_008"  >
<polygon points="185,85 190,80 197,80 197,90 190,90 185,85 " style="fill:#1593d8; stroke-width:1; stroke:black; " description="&lt;b&gt;HX785_RS29510&lt;/b&gt;&lt;br&gt;ABC transporter ATP-binding protein&lt;br&gt;Location: 65724 - 65056&lt;br&gt;&lt;br&gt;&lt;b&gt;BlastP hit with ctg8_160&lt;/b&gt;&lt;br&gt;Percentage identity: 93&lt;br&gt;Percentage coverage: 100&lt;br&gt;BLAST bit score: 394&lt;br&gt;E-value: 1.12e-139" locus_tag="HX785_RS29510" class="clusterblast-orf" id="dummy-2_h2_6_8"  />
</g>
<g id="a2_009"  >
<polygon points="202,90 209,90 214,85 209,80 202,80 202,90 " style="fill:#aa15d8; stroke-width:1; stroke:black; " description="&lt;b&gt;HX785_RS29505&lt;/b&gt;&lt;br&gt;histidine phosphatase family protein&lt;br&gt;Location: 64781 - 64107&lt;br&gt;&lt;br&gt;&lt;b&gt;BlastP hit with ctg8_161&lt;/b&gt;&lt;br&gt;Percentage identity: 65&lt;br&gt;Percentage coverage: 100&lt;br&gt;BLAST bit score: 307&lt;br&gt;E-value: 4.88e-105" locus_tag="HX785_RS29505" class="clusterblast-orf" id="dummy-2_h2_6_9"  />
</g>
<g id="a2_0010"  >
<polygon points="217,90 241,90 246,85 241,80 217,80 217,90 " style="fill:#d85a15; stroke-width:1; stroke:black; " description="&lt;b&gt;HX785_RS29500&lt;/b&gt;&lt;br&gt;lipid IV(A) 4-amino-4-deoxy-L-arabinosyltransferase&lt;br&gt;Location: 63929 - 62274&lt;br&gt;&lt;br&gt;&lt;b&gt;BlastP hit with ctg8_163&lt;/b&gt;&lt;br&gt;Percentage identity: 82&lt;br&gt;Percentage coverage: 100&lt;br&gt;BLAST bit score: 915&lt;br&gt;E-value: 0.0" locus_tag="HX785_RS29500" class="clusterblast-orf" id="dummy-2_h2_6_10"  />
</g>
<g id="a2_0011"  >
<polygon points="246,90 268,90 273,85 268,80 246,80 246,90 " style="fill:#d85a15; stroke-width:1; stroke:black; " description="&lt;b&gt;HX785_RS29495&lt;/b&gt;&lt;br&gt;glycosyltransferase family 39 protein&lt;br&gt;Location: 62274 - 60754&lt;br&gt;&lt;br&gt;&lt;b&gt;BlastP hit with ctg8_164&lt;/b&gt;&lt;br&gt;Percentage identity: 85&lt;br&gt;Percentage coverage: 99&lt;br&gt;BLAST bit score: 905&lt;br&gt;E-value: 0.0" locus_tag="HX785_RS29495" class="clusterblast-orf" id="dummy-2_h2_6_11"  />
</g>
<g id="a2_0012"  >
<polygon points="273,85 278,80 283,80 283,90 278,90 273,85 " style="fill:white; stroke-width:1; stroke:black; " description="&lt;b&gt;HX785_RS29490&lt;/b&gt;&lt;br&gt;HD domain-containing protein&lt;br&gt;Location: 60744 - 60169" locus_tag="HX785_RS29490" class="clusterblast-orf" id="dummy-2_h2_6_12"  />
</g>
<g id="a2_0013"  >
<polygon points="285,85 290,80 295,80 295,90 290,90 285,85 " style="fill:white; stroke-width:1; stroke:black; " description="&lt;b&gt;HX785_RS29485&lt;/b&gt;&lt;br&gt;helix-turn-helix transcriptional regulator&lt;br&gt;Location: 60063 - 59506" locus_tag="HX785_RS29485" class="clusterblast-orf" id="dummy-2_h2_6_13"  />
</g>
<g id="a2_0014"  >
<polygon points="296,85 301,80 312,80 312,90 301,90 296,85 " style="fill:white; stroke-width:1; stroke:black; " description="&lt;b&gt;HX785_RS29480&lt;/b&gt;&lt;br&gt;sugar ABC transporter ATP-binding protein&lt;br&gt;Location: 59442 - 58513" locus_tag="HX785_RS29480" class="clusterblast-orf" id="dummy-2_h2_6_14"  />
</g>
<g id="a2_0015"  >
<polygon points="322,90 323,90 328,85 323,80 322,80 322,90 " style="fill:white; stroke-width:1; stroke:black; " description="&lt;b&gt;HX785_RS29475&lt;/b&gt;&lt;br&gt;hypothetical protein&lt;br&gt;Location: 57957 - 57649" locus_tag="HX785_RS29475" class="clusterblast-orf" id="dummy-2_h2_6_15"  />
</g>
<g id="a2_0016"  >
<polygon points="337,85 342,80 446,80 446,90 342,90 337,85 " style="fill:#154fd8; stroke-width:1; stroke:black; " description="&lt;b&gt;HX785_RS29470&lt;/b&gt;&lt;br&gt;amino acid adenylation domain-containing protein&lt;br&gt;Location: 57137 - 50928&lt;br&gt;&lt;br&gt;&lt;b&gt;BlastP hit with ctg8_170&lt;/b&gt;&lt;br&gt;Percentage identity: 83&lt;br&gt;Percentage coverage: 100&lt;br&gt;BLAST bit score: 3474&lt;br&gt;E-value: 0.0" locus_tag="HX785_RS29470" class="clusterblast-orf" id="dummy-2_h2_6_16"  />
</g>
<g id="a2_0017"  >
<polygon points="455,90 464,90 469,85 464,80 455,80 455,90 " style="fill:#d815c1; stroke-width:1; stroke:black; " description="&lt;b&gt;HX785_RS29465&lt;/b&gt;&lt;br&gt;helix-turn-helix transcriptional regulator&lt;br&gt;Location: 50438 - 49647&lt;br&gt;&lt;br&gt;&lt;b&gt;BlastP hit with ctg8_171&lt;/b&gt;&lt;br&gt;Percentage identity: 80&lt;br&gt;Percentage coverage: 100&lt;br&gt;BLAST bit score: 409&lt;br&gt;E-value: 5.99e-144" locus_tag="HX785_RS29465" class="clusterblast-orf" id="dummy-2_h2_6_17"  />
</g>
<g id="a2_0018"  >
<polygon points="469,90 489,90 494,85 489,80 469,80 469,90 " style="fill:#d89f15; stroke-width:1; stroke:black; " description="&lt;b&gt;HX785_RS29460&lt;/b&gt;&lt;br&gt;AdeC/AdeK/OprM family multidrug efflux complex outer membrane factor&lt;br&gt;Location: 49647 - 48196&lt;br&gt;&lt;br&gt;&lt;b&gt;BlastP hit with ctg8_172&lt;/b&gt;&lt;br&gt;Percentage identity: 87&lt;br&gt;Percentage coverage: 100&lt;br&gt;BLAST bit score: 806&lt;br&gt;E-value: 9.97e-294" locus_tag="HX785_RS29460" class="clusterblast-orf" id="dummy-2_h2_6_18"  />
</g>
<g id="a2_0019"  >
<polygon points="493,85 498,80 508,80 508,90 498,90 493,85 " style="fill:#15d84f; stroke-width:1; stroke:black; " description="&lt;b&gt;HX785_RS29455&lt;/b&gt;&lt;br&gt;4-hydroxyphenylacetate catabolism regulatory protein HpaA&lt;br&gt;Location: 48269 - 47409&lt;br&gt;&lt;br&gt;&lt;b&gt;BlastP hit with ctg8_173&lt;/b&gt;&lt;br&gt;Percentage identity: 92&lt;br&gt;Percentage coverage: 100&lt;br&gt;BLAST bit score: 527&lt;br&gt;E-value: 5.63e-190" locus_tag="HX785_RS29455" class="clusterblast-orf" id="dummy-2_h2_6_19"  />
</g>
<g id="a2_0020"  >
<polygon points="511,90 517,90 522,85 517,80 511,80 511,90 " style="fill:#152cd8; stroke-width:1; stroke:black; " description="&lt;b&gt;HX785_RS29450&lt;/b&gt;&lt;br&gt;fumarylacetoacetate hydrolase family protein&lt;br&gt;Location: 47281 - 46616&lt;br&gt;&lt;br&gt;&lt;b&gt;BlastP hit with ctg8_174&lt;/b&gt;&lt;br&gt;Percentage identity: 89&lt;br&gt;Percentage coverage: 99&lt;br&gt;BLAST bit score: 395&lt;br&gt;E-value: 7.34e-140&lt;br&gt;&lt;br&gt;&lt;b&gt;BlastP hit with ctg8_175&lt;/b&gt;&lt;br&gt;Percentage identity: 43&lt;br&gt;Percentage coverage: 83&lt;br&gt;BLAST bit score: 162&lt;br&gt;E-value: 1.29e-47" locus_tag="HX785_RS29450" class="clusterblast-orf" id="dummy-2_h2_6_20"  />
</g>
<g id="a2_0021"  >
<polygon points="522,90 531,90 536,85 531,80 522,80 522,90 " style="fill:#152cd8; stroke-width:1; stroke:black; " description="&lt;b&gt;HX785_RS29445&lt;/b&gt;&lt;br&gt;fumarylacetoacetate hydrolase family protein&lt;br&gt;Location: 46619 - 45849&lt;br&gt;&lt;br&gt;&lt;b&gt;BlastP hit with ctg8_174&lt;/b&gt;&lt;br&gt;Percentage identity: 41&lt;br&gt;Percentage coverage: 97&lt;br&gt;BLAST bit score: 149&lt;br&gt;E-value: 9.91e-43&lt;br&gt;&lt;br&gt;&lt;b&gt;BlastP hit with ctg8_175&lt;/b&gt;&lt;br&gt;Percentage identity: 94&lt;br&gt;Percentage coverage: 100&lt;br&gt;BLAST bit score: 491&lt;br&gt;E-value: 1.19e-176" locus_tag="HX785_RS29445" class="clusterblast-orf" id="dummy-2_h2_6_21"  />
</g>
<g id="a2_0022"  >
<polygon points="536,90 557,90 562,85 557,80 536,80 536,90 " style="fill:#d8159f; stroke-width:1; stroke:black; " description="&lt;b&gt;HX785_RS29440&lt;/b&gt;&lt;br&gt;5-carboxymethyl-2-hydroxymuconate semialdehyde dehydrogenase&lt;br&gt;Location: 45843 - 44383&lt;br&gt;&lt;br&gt;&lt;b&gt;BlastP hit with ctg8_176&lt;/b&gt;&lt;br&gt;Percentage identity: 98&lt;br&gt;Percentage coverage: 100&lt;br&gt;BLAST bit score: 961&lt;br&gt;E-value: 0.0" locus_tag="HX785_RS29440" class="clusterblast-orf" id="dummy-2_h2_6_22"  />
</g>
<g id="a2_0023"  >
<polygon points="563,90 573,90 578,85 573,80 563,80 563,90 " style="fill:#d8c115; stroke-width:1; stroke:black; " description="&lt;b&gt;HX785_RS29435&lt;/b&gt;&lt;br&gt;3,4-dihydroxyphenylacetate 2,3-dioxygenase&lt;br&gt;Location: 44335 - 43478&lt;br&gt;&lt;br&gt;&lt;b&gt;BlastP hit with ctg8_177&lt;/b&gt;&lt;br&gt;Percentage identity: 95&lt;br&gt;Percentage coverage: 100&lt;br&gt;BLAST bit score: 572&lt;br&gt;E-value: 7.62e-208" locus_tag="HX785_RS29435" class="clusterblast-orf" id="dummy-2_h2_6_23"  />
</g>
<g id="a2_0024"  >
<polygon points="578,90 580,90 585,85 580,80 578,80 578,90 " style="fill:#15d871; stroke-width:1; stroke:black; " description="&lt;b&gt;HX785_RS29430&lt;/b&gt;&lt;br&gt;5-carboxymethyl-2-hydroxymuconate Delta-isomerase&lt;br&gt;Location: 43462 - 43070&lt;br&gt;&lt;br&gt;&lt;b&gt;BlastP hit with ctg8_178&lt;/b&gt;&lt;br&gt;Percentage identity: 93&lt;br&gt;Percentage coverage: 100&lt;br&gt;BLAST bit score: 253&lt;br&gt;E-value: 9.8e-87" locus_tag="HX785_RS29430" class="clusterblast-orf" id="dummy-2_h2_6_24"  />
</g>
<g id="a2_0025"  >
<polygon points="586,90 604,90 609,85 604,80 586,80 586,90 " style="fill:#2115d8; stroke-width:1; stroke:black; " description="&lt;b&gt;HX785_RS29425&lt;/b&gt;&lt;br&gt;MFS transporter&lt;br&gt;Location: 43023 - 41719&lt;br&gt;&lt;br&gt;&lt;b&gt;BlastP hit with ctg8_179&lt;/b&gt;&lt;br&gt;Percentage identity: 96&lt;br&gt;Percentage coverage: 100&lt;br&gt;BLAST bit score: 824&lt;br&gt;E-value: 1.22e-302" locus_tag="HX785_RS29425" class="clusterblast-orf" id="dummy-2_h2_6_25"  />
</g>
<g id="a2_0026"  >
<polygon points="609,90 618,90 623,85 618,80 609,80 609,90 " style="fill:#d8157c; stroke-width:1; stroke:black; " description="&lt;b&gt;HX785_RS29420&lt;/b&gt;&lt;br&gt;2-oxo-hepta-3-ene-1,7-dioic acid hydratase&lt;br&gt;Location: 41707 - 40904&lt;br&gt;&lt;br&gt;&lt;b&gt;BlastP hit with ctg8_180&lt;/b&gt;&lt;br&gt;Percentage identity: 96&lt;br&gt;Percentage coverage: 100&lt;br&gt;BLAST bit score: 515&lt;br&gt;E-value: 6.91e-186" locus_tag="HX785_RS29420" class="clusterblast-orf" id="dummy-2_h2_6_26"  />
</g>
<g id="a2_0027"  >
<polygon points="623,90 632,90 637,85 632,80 623,80 623,90 " style="fill:#cdd815; stroke-width:1; stroke:black; " description="&lt;b&gt;HX785_RS29415&lt;/b&gt;&lt;br&gt;4-hydroxy-2-oxoheptanedioate aldolase&lt;br&gt;Location: 40888 - 40088&lt;br&gt;&lt;br&gt;&lt;b&gt;BlastP hit with ctg8_181&lt;/b&gt;&lt;br&gt;Percentage identity: 89&lt;br&gt;Percentage coverage: 100&lt;br&gt;BLAST bit score: 460&lt;br&gt;E-value: 3.98e-164" locus_tag="HX785_RS29415" class="clusterblast-orf" id="dummy-2_h2_6_27"  />
</g>
<g id="a2_0028"  >
<polygon points="640,85 645,80 647,80 647,90 645,90 640,85 " style="fill:#15d893; stroke-width:1; stroke:black; " description="&lt;b&gt;HX785_RS29410&lt;/b&gt;&lt;br&gt;homoprotocatechuate degradation operon regulator HpaR&lt;br&gt;Location: 39963 - 39535&lt;br&gt;&lt;br&gt;&lt;b&gt;BlastP hit with ctg8_182&lt;/b&gt;&lt;br&gt;Percentage identity: 94&lt;br&gt;Percentage coverage: 99&lt;br&gt;BLAST bit score: 253&lt;br&gt;E-value: 2.21e-86" locus_tag="HX785_RS29410" class="clusterblast-orf" id="dummy-2_h2_6_28"  />
</g>
<g id="a2_0029"  >
<polygon points="651,90 669,90 674,85 669,80 651,80 651,90 " style="fill:#4315d8; stroke-width:1; stroke:black; " description="&lt;b&gt;HX785_RS29405&lt;/b&gt;&lt;br&gt;FAD-binding oxidoreductase&lt;br&gt;Location: 39328 - 38030&lt;br&gt;&lt;br&gt;&lt;b&gt;BlastP hit with ctg8_183&lt;/b&gt;&lt;br&gt;Percentage identity: 98&lt;br&gt;Percentage coverage: 100&lt;br&gt;BLAST bit score: 868&lt;br&gt;E-value: 0.0" locus_tag="HX785_RS29405" class="clusterblast-orf" id="dummy-2_h2_6_29"  />
</g>
<g id="a2_0030"  >
<polygon points="674,90 676,90 681,85 676,80 674,80 674,90 " style="fill:#d8155a; stroke-width:1; stroke:black; " description="&lt;b&gt;HX785_RS29400&lt;/b&gt;&lt;br&gt;DUF861 domain-containing protein&lt;br&gt;Location: 37998 - 37633&lt;br&gt;&lt;br&gt;&lt;b&gt;BlastP hit with ctg8_184&lt;/b&gt;&lt;br&gt;Percentage identity: 92&lt;br&gt;Percentage coverage: 99&lt;br&gt;BLAST bit score: 231&lt;br&gt;E-value: 3.53e-78" locus_tag="HX785_RS29400" class="clusterblast-orf" id="dummy-2_h2_6_30"  />
</g>
<g id="a2_0031"  >
<polygon points="681,90 690,90 695,85 690,80 681,80 681,90 " style="fill:#aad815; stroke-width:1; stroke:black; " description="&lt;b&gt;HX785_RS29395&lt;/b&gt;&lt;br&gt;molybdenum cofactor biosynthesis F family protein&lt;br&gt;Location: 37619 - 36798&lt;br&gt;&lt;br&gt;&lt;b&gt;BlastP hit with ctg8_185&lt;/b&gt;&lt;br&gt;Percentage identity: 93&lt;br&gt;Percentage coverage: 100&lt;br&gt;BLAST bit score: 541&lt;br&gt;E-value: 4.72e-196" locus_tag="HX785_RS29395" class="clusterblast-orf" id="dummy-2_h2_6_31"  />
</g>
<g id="a2_0032"  >
<polygon points="695,90 704,90 709,85 704,80 695,80 695,90 " style="fill:#15d8b6; stroke-width:1; stroke:black; " description="&lt;b&gt;HX785_RS29390&lt;/b&gt;&lt;br&gt;SDR family oxidoreductase&lt;br&gt;Location: 36805 - 36005&lt;br&gt;&lt;br&gt;&lt;b&gt;BlastP hit with ctg8_186&lt;/b&gt;&lt;br&gt;Percentage identity: 91&lt;br&gt;Percentage coverage: 99&lt;br&gt;BLAST bit score: 483&lt;br&gt;E-value: 2.1e-173" locus_tag="HX785_RS29390" class="clusterblast-orf" id="dummy-2_h2_6_32"  />
</g>
<g id="a2_0033"  >
<polygon points="709,90 718,90 723,85 718,80 709,80 709,90 " style="fill:#6615d8; stroke-width:1; stroke:black; " description="&lt;b&gt;HX785_RS29385&lt;/b&gt;&lt;br&gt;SDR family oxidoreductase&lt;br&gt;Location: 36018 - 35260&lt;br&gt;&lt;br&gt;&lt;b&gt;BlastP hit with ctg8_187&lt;/b&gt;&lt;br&gt;Percentage identity: 87&lt;br&gt;Percentage coverage: 100&lt;br&gt;BLAST bit score: 405&lt;br&gt;E-value: 4e-143" locus_tag="HX785_RS29385" class="clusterblast-orf" id="dummy-2_h2_6_33"  />
</g>
<g id="a2_0034"  >
<polygon points="725,85 730,80 742,80 742,90 730,90 725,85 " style="fill:#d81538; stroke-width:1; stroke:black; " description="&lt;b&gt;HX785_RS29380&lt;/b&gt;&lt;br&gt;transcriptional regulator FeaR&lt;br&gt;Location: 35118 - 34177&lt;br&gt;&lt;br&gt;&lt;b&gt;BlastP hit with ctg8_188&lt;/b&gt;&lt;br&gt;Percentage identity: 95&lt;br&gt;Percentage coverage: 100&lt;br&gt;BLAST bit score: 599&lt;br&gt;E-value: 1.01e-217" locus_tag="HX785_RS29380" class="clusterblast-orf" id="dummy-2_h2_6_34"  />
</g>
<g id="a2_0035"  >
<polygon points="744,85 749,80 754,80 754,90 749,90 744,85 " style="fill:#88d815; stroke-width:1; stroke:black; " description="&lt;b&gt;HX785_RS29375&lt;/b&gt;&lt;br&gt;DUF3156 family protein&lt;br&gt;Location: 34063 - 33497&lt;br&gt;&lt;br&gt;&lt;b&gt;BlastP hit with ctg8_189&lt;/b&gt;&lt;br&gt;Percentage identity: 78&lt;br&gt;Percentage coverage: 100&lt;br&gt;BLAST bit score: 292&lt;br&gt;E-value: 2.75e-100" locus_tag="HX785_RS29375" class="clusterblast-orf" id="dummy-2_h2_6_35"  />
</g>
<g id="a2_0036"  >
<polygon points="753,85 758,80 780,80 780,90 758,90 753,85 " style="fill:#15d8d8; stroke-width:1; stroke:black; " description="&lt;b&gt;HX785_RS29370&lt;/b&gt;&lt;br&gt;APC family permease&lt;br&gt;Location: 33534 - 32035&lt;br&gt;&lt;br&gt;&lt;b&gt;BlastP hit with ctg8_190&lt;/b&gt;&lt;br&gt;Percentage identity: 97&lt;br&gt;Percentage coverage: 100&lt;br&gt;BLAST bit score: 935&lt;br&gt;E-value: 0.0" locus_tag="HX785_RS29370" class="clusterblast-orf" id="dummy-2_h2_6_36"  />
</g>
</svg>
