<svg xmlns="http://www.w3.org/2000/svg" xmlns:xlink="http://www.w3.org/1999/xlink" version="1.1" x="0" y="0" height="230" width="800" viewBox="0 0 800 230" preserveAspectRatio="none"  >
<g label="Query sequence" class="clusterblast-cluster"  >
<text x="5" y="20" class="clusterblast-acc"  >
Query sequence</text>
<line x1="10" y1="35" x2="778.0" y2="35" style="stroke-width:1; stroke:grey; "  />
<polygon points="0,40 4,40 9,35 4,30 0,30 0,40 " style="fill:#d81515; stroke-width:1; stroke:black; " description="&lt;b&gt;ctg18_16&lt;/b&gt;&lt;br&gt;ctg18 16&lt;br&gt;Location: 16961 - 17876" locus_tag="ctg18_16" class="clusterblast-orf" id="dummy-1_q0_0_all"  />
<polygon points="10,35 15,30 17,30 17,40 15,40 10,35 " style="fill:#65d815; stroke-width:1; stroke:black; " description="&lt;b&gt;ctg18_17&lt;/b&gt;&lt;br&gt;ctg18 17&lt;br&gt;Location: 17995 - 18661" locus_tag="ctg18_17" class="clusterblast-orf" id="dummy-1_q1_0_all"  />
<polygon points="17,35 22,30 52,30 52,40 22,40 17,35 " style="fill:#65d815; stroke-width:1; stroke:black; " description="&lt;b&gt;ctg18_18&lt;/b&gt;&lt;br&gt;ctg18 18&lt;br&gt;Location: 18635 - 22019" locus_tag="ctg18_18" class="clusterblast-orf" id="dummy-1_q2_0_all"  />
<polygon points="55,40 63,40 68,35 63,30 55,30 55,40 " style="fill:#15b6d8; stroke-width:1; stroke:black; " description="&lt;b&gt;ctg18_19&lt;/b&gt;&lt;br&gt;ctg18 19&lt;br&gt;Location: 22321 - 23530" locus_tag="ctg18_19" class="clusterblast-orf" id="dummy-1_q3_0_all"  />
<polygon points="70,40 74,40 79,35 74,30 70,30 70,40 " style="fill:#8815d8; stroke-width:1; stroke:black; " description="&lt;b&gt;ctg18_20&lt;/b&gt;&lt;br&gt;ctg18 20&lt;br&gt;Location: 23708 - 24626" locus_tag="ctg18_20" class="clusterblast-orf" id="dummy-1_q4_0_all"  />
<polygon points="79,40 86,40 91,35 86,30 79,30 79,40 " style="fill:#d83815; stroke-width:1; stroke:black; " description="&lt;b&gt;ctg18_21&lt;/b&gt;&lt;br&gt;ctg18 21&lt;br&gt;Location: 24636 - 25797" locus_tag="ctg18_21" class="clusterblast-orf" id="dummy-1_q5_0_all"  />
<polygon points="91,40 94,40 99,35 94,30 91,30 91,40 " style="fill:#43d815; stroke-width:1; stroke:black; " description="&lt;b&gt;ctg18_22&lt;/b&gt;&lt;br&gt;ctg18 22&lt;br&gt;Location: 25793 - 26552" locus_tag="ctg18_22" class="clusterblast-orf" id="dummy-1_q6_0_all"  />
<polygon points="99,40 101,40 106,35 101,30 99,30 99,40 " style="fill:#1593d8; stroke-width:1; stroke:black; " description="&lt;b&gt;ctg18_23&lt;/b&gt;&lt;br&gt;ctg18 23&lt;br&gt;Location: 26562 - 27252" locus_tag="ctg18_23" class="clusterblast-orf" id="dummy-1_q7_0_all"  />
<polygon points="108,40 116,40 121,35 116,30 108,30 108,40 " style="fill:#aa15d8; stroke-width:1; stroke:black; " description="&lt;b&gt;ctg18_24&lt;/b&gt;&lt;br&gt;ctg18 24&lt;br&gt;Location: 27470 - 28700" locus_tag="ctg18_24" class="clusterblast-orf" id="dummy-1_q8_0_all"  />
<polygon points="121,40 125,35 121,30 121,40 " style="fill:#d85a15; stroke-width:1; stroke:black; " description="&lt;b&gt;ctg18_25&lt;/b&gt;&lt;br&gt;ctg18 25&lt;br&gt;Location: 28702 - 29050" locus_tag="ctg18_25" class="clusterblast-orf" id="dummy-1_q9_0_all"  />
<polygon points="125,40 131,40 136,35 131,30 125,30 125,40 " style="fill:#21d815; stroke-width:1; stroke:black; " description="&lt;b&gt;ctg18_26&lt;/b&gt;&lt;br&gt;ctg18 26&lt;br&gt;Location: 29065 - 30109" locus_tag="ctg18_26" class="clusterblast-orf" id="dummy-1_q10_0_all"  />
<polygon points="136,40 141,40 146,35 141,30 136,30 136,40 " style="fill:#1571d8; stroke-width:1; stroke:black; " description="&lt;b&gt;ctg18_27&lt;/b&gt;&lt;br&gt;ctg18 27&lt;br&gt;Location: 30112 - 31069" locus_tag="ctg18_27" class="clusterblast-orf" id="dummy-1_q11_0_all"  />
<polygon points="146,40 147,40 152,35 147,30 146,30 146,40 " style="fill:#cd15d8; stroke-width:1; stroke:black; " description="&lt;b&gt;ctg18_28&lt;/b&gt;&lt;br&gt;ctg18 28&lt;br&gt;Location: 31136 - 31709" locus_tag="ctg18_28" class="clusterblast-orf" id="dummy-1_q12_0_all"  />
<polygon points="153,40 162,40 167,35 162,30 153,30 153,40 " style="fill:#d87c15; stroke-width:1; stroke:black; " description="&lt;b&gt;ctg18_29&lt;/b&gt;&lt;br&gt;ctg18 29&lt;br&gt;Location: 31734 - 33090" locus_tag="ctg18_29" class="clusterblast-orf" id="dummy-1_q13_0_all"  />
<polygon points="167,35 172,30 173,30 173,40 172,40 167,35 " style="fill:#15d82c; stroke-width:1; stroke:black; " description="&lt;b&gt;ctg18_30&lt;/b&gt;&lt;br&gt;ctg18 30&lt;br&gt;Location: 33073 - 33667" locus_tag="ctg18_30" class="clusterblast-orf" id="dummy-1_q14_0_all"  />
<polygon points="174,40 181,40 186,35 181,30 174,30 174,40 " style="fill:#154fd8; stroke-width:1; stroke:black; " description="&lt;b&gt;ctg18_31&lt;/b&gt;&lt;br&gt;ctg18 31&lt;br&gt;Location: 33809 - 35000" locus_tag="ctg18_31" class="clusterblast-orf" id="dummy-1_q15_0_all"  />
<polygon points="186,35 190,30 190,40 186,35 " style="fill:#d815c1; stroke-width:1; stroke:black; " description="&lt;b&gt;ctg18_32&lt;/b&gt;&lt;br&gt;ctg18 32&lt;br&gt;Location: 34982 - 35348" locus_tag="ctg18_32" class="clusterblast-orf" id="dummy-1_q16_0_all"  />
<polygon points="190,35 193,30 193,40 190,35 " style="fill:#d89f15; stroke-width:1; stroke:black; " description="&lt;b&gt;ctg18_33&lt;/b&gt;&lt;br&gt;ctg18 33&lt;br&gt;Location: 35344 - 35596" locus_tag="ctg18_33" class="clusterblast-orf" id="dummy-1_q17_0_all"  />
<polygon points="195,40 335,40 340,35 335,30 195,30 195,40 " style="fill:#15d84f; stroke-width:1; stroke:black; " description="&lt;b&gt;ctg18_34&lt;/b&gt;&lt;br&gt;ctg18 34&lt;br&gt;Location: 35806 - 49861" locus_tag="ctg18_34" class="clusterblast-orf" id="dummy-1_q18_0_all"  />
<polygon points="340,40 458,40 463,35 458,30 340,30 340,40 " style="fill:#15d84f; stroke-width:1; stroke:black; " description="&lt;b&gt;ctg18_35&lt;/b&gt;&lt;br&gt;ctg18 35&lt;br&gt;Location: 49864 - 61717" locus_tag="ctg18_35" class="clusterblast-orf" id="dummy-1_q19_0_all"  />
<polygon points="465,35 470,30 490,30 490,40 470,40 465,35 " style="fill:#152cd8; stroke-width:1; stroke:black; " description="&lt;b&gt;ctg18_36&lt;/b&gt;&lt;br&gt;ctg18 36&lt;br&gt;Location: 61861 - 64303" locus_tag="ctg18_36" class="clusterblast-orf" id="dummy-1_q20_0_all"  />
<polygon points="491,35 496,30 508,30 508,40 496,40 491,35 " style="fill:#d8159f; stroke-width:1; stroke:black; " description="&lt;b&gt;ctg18_37&lt;/b&gt;&lt;br&gt;ctg18 37&lt;br&gt;Location: 64412 - 66065" locus_tag="ctg18_37" class="clusterblast-orf" id="dummy-1_q21_0_all"  />
<polygon points="510,40 514,40 519,35 514,30 510,30 510,40 " style="fill:#d8c115; stroke-width:1; stroke:black; " description="&lt;b&gt;ctg18_38&lt;/b&gt;&lt;br&gt;ctg18 38&lt;br&gt;Location: 66263 - 67091" locus_tag="ctg18_38" class="clusterblast-orf" id="dummy-1_q22_0_all"  />
<polygon points="520,35 525,30 529,30 529,40 525,40 520,35 " style="fill:#15d871; stroke-width:1; stroke:black; " description="&lt;b&gt;ctg18_39&lt;/b&gt;&lt;br&gt;ctg18 39&lt;br&gt;Location: 67234 - 68107" locus_tag="ctg18_39" class="clusterblast-orf" id="dummy-1_q23_0_all"  />
<polygon points="530,35 535,30 543,30 543,40 535,40 530,35 " style="fill:#2115d8; stroke-width:1; stroke:black; " description="&lt;b&gt;ctg18_40&lt;/b&gt;&lt;br&gt;ctg18 40&lt;br&gt;Location: 68140 - 69421" locus_tag="ctg18_40" class="clusterblast-orf" id="dummy-1_q24_0_all"  />
<polygon points="543,35 548,30 557,30 557,40 548,40 543,35 " style="fill:#d8157c; stroke-width:1; stroke:black; " description="&lt;b&gt;ctg18_41&lt;/b&gt;&lt;br&gt;ctg18 41&lt;br&gt;Location: 69439 - 70789" locus_tag="ctg18_41" class="clusterblast-orf" id="dummy-1_q25_0_all"  />
<polygon points="559,40 571,40 576,35 571,30 559,30 559,40 " style="fill:#cdd815; stroke-width:1; stroke:black; " description="&lt;b&gt;ctg18_42&lt;/b&gt;&lt;br&gt;ctg18 42&lt;br&gt;Location: 70931 - 72551" locus_tag="ctg18_42" class="clusterblast-orf" id="dummy-1_q26_0_all"  />
<polygon points="575,35 580,30 585,30 585,40 580,40 575,35 " style="fill:#15d893; stroke-width:1; stroke:black; " description="&lt;b&gt;ctg18_43&lt;/b&gt;&lt;br&gt;ctg18 43&lt;br&gt;Location: 72543 - 73491" locus_tag="ctg18_43" class="clusterblast-orf" id="dummy-1_q27_0_all"  />
<polygon points="587,40 591,40 596,35 591,30 587,30 587,40 " style="fill:#4315d8; stroke-width:1; stroke:black; " description="&lt;b&gt;ctg18_44&lt;/b&gt;&lt;br&gt;ctg18 44&lt;br&gt;Location: 73634 - 74525" locus_tag="ctg18_44" class="clusterblast-orf" id="dummy-1_q28_0_all"  />
<polygon points="596,40 601,40 606,35 601,30 596,30 596,40 " style="fill:#d8155a; stroke-width:1; stroke:black; " description="&lt;b&gt;ctg18_45&lt;/b&gt;&lt;br&gt;ctg18 45&lt;br&gt;Location: 74524 - 75496" locus_tag="ctg18_45" class="clusterblast-orf" id="dummy-1_q29_0_all"  />
<polygon points="606,40 610,40 615,35 610,30 606,30 606,40 " style="fill:#aad815; stroke-width:1; stroke:black; " description="&lt;b&gt;ctg18_46&lt;/b&gt;&lt;br&gt;ctg18 46&lt;br&gt;Location: 75492 - 76362" locus_tag="ctg18_46" class="clusterblast-orf" id="dummy-1_q30_0_all"  />
<polygon points="615,40 618,35 615,30 615,40 " style="fill:#15d8b6; stroke-width:1; stroke:black; " description="&lt;b&gt;ctg18_47&lt;/b&gt;&lt;br&gt;ctg18 47&lt;br&gt;Location: 76376 - 76637" locus_tag="ctg18_47" class="clusterblast-orf" id="dummy-1_q31_0_all"  />
<polygon points="618,40 621,40 626,35 621,30 618,30 618,40 " style="fill:#6615d8; stroke-width:1; stroke:black; " description="&lt;b&gt;ctg18_48&lt;/b&gt;&lt;br&gt;ctg18 48&lt;br&gt;Location: 76666 - 77464" locus_tag="ctg18_48" class="clusterblast-orf" id="dummy-1_q32_0_all"  />
<polygon points="627,40 649,40 654,35 649,30 627,30 627,40 " style="fill:#d81538; stroke-width:1; stroke:black; " description="&lt;b&gt;ctg18_49&lt;/b&gt;&lt;br&gt;ctg18 49&lt;br&gt;Location: 77477 - 80135" locus_tag="ctg18_49" class="clusterblast-orf" id="dummy-1_q33_0_all"  />
<polygon points="658,40 661,40 666,35 661,30 658,30 658,40 " style="fill:#88d815; stroke-width:1; stroke:black; " description="&lt;b&gt;ctg18_50&lt;/b&gt;&lt;br&gt;ctg18 50&lt;br&gt;Location: 80536 - 81253" locus_tag="ctg18_50" class="clusterblast-orf" id="dummy-1_q34_0_all"  />
<polygon points="666,40 670,35 666,30 666,40 " style="fill:#15d8d8; stroke-width:1; stroke:black; " description="&lt;b&gt;ctg18_51&lt;/b&gt;&lt;br&gt;ctg18 51&lt;br&gt;Location: 81305 - 81641" locus_tag="ctg18_51" class="clusterblast-orf" id="dummy-1_q35_0_all"  />
<polygon points="670,40 676,40 681,35 676,30 670,30 670,40 " style="fill:white; stroke-width:1; stroke:black; " description="&lt;b&gt;ctg18_52&lt;/b&gt;&lt;br&gt;ctg18 52&lt;br&gt;Location: 81656 - 82763" locus_tag="ctg18_52" class="clusterblast-orf" id="dummy-1_q36_0_all"  />
<polygon points="683,40 683,40 688,35 683,30 683,30 683,40 " style="fill:white; stroke-width:1; stroke:black; " description="&lt;b&gt;ctg18_53&lt;/b&gt;&lt;br&gt;ctg18 53&lt;br&gt;Location: 82925 - 83417" locus_tag="ctg18_53" class="clusterblast-orf" id="dummy-1_q37_0_all"  />
<polygon points="689,35 691,30 691,40 689,35 " style="fill:white; stroke-width:1; stroke:black; " description="&lt;b&gt;ctg18_54&lt;/b&gt;&lt;br&gt;ctg18 54&lt;br&gt;Location: 83518 - 83740" locus_tag="ctg18_54" class="clusterblast-orf" id="dummy-1_q38_0_all"  />
<polygon points="693,35 698,30 716,30 716,40 698,40 693,35 " style="fill:#152cd8; stroke-width:1; stroke:black; " description="&lt;b&gt;ctg18_55&lt;/b&gt;&lt;br&gt;ctg18 55&lt;br&gt;Location: 83882 - 86111" locus_tag="ctg18_55" class="clusterblast-orf" id="dummy-1_q39_0_all"  />
<polygon points="717,35 722,30 735,30 735,40 722,40 717,35 " style="fill:white; stroke-width:1; stroke:black; " description="&lt;b&gt;ctg18_56&lt;/b&gt;&lt;br&gt;ctg18 56&lt;br&gt;Location: 86237 - 87980" locus_tag="ctg18_56" class="clusterblast-orf" id="dummy-1_q40_0_all"  />
<polygon points="742,40 747,40 752,35 747,30 742,30 742,40 " style="fill:white; stroke-width:1; stroke:black; " description="&lt;b&gt;ctg18_57&lt;/b&gt;&lt;br&gt;ctg18 57&lt;br&gt;Location: 88590 - 89574" locus_tag="ctg18_57" class="clusterblast-orf" id="dummy-1_q41_0_all"  />
<polygon points="752,40 763,40 768,35 763,30 752,30 752,40 " style="fill:white; stroke-width:1; stroke:black; " description="&lt;b&gt;ctg18_58&lt;/b&gt;&lt;br&gt;ctg18 58&lt;br&gt;Location: 89570 - 91094" locus_tag="ctg18_58" class="clusterblast-orf" id="dummy-1_q42_0_all"  />
<polygon points="768,40 771,40 776,35 771,30 768,30 768,40 " style="fill:white; stroke-width:1; stroke:black; " description="&lt;b&gt;ctg18_59&lt;/b&gt;&lt;br&gt;ctg18 59&lt;br&gt;Location: 91090 - 91915" locus_tag="ctg18_59" class="clusterblast-orf" id="dummy-1_q43_0_all"  />
<polygon points="777,35 780,30 780,40 777,35 " style="fill:white; stroke-width:1; stroke:black; " description="&lt;b&gt;ctg18_60&lt;/b&gt;&lt;br&gt;ctg18 60&lt;br&gt;Location: 91990 - 92251" locus_tag="ctg18_60" class="clusterblast-orf" id="dummy-1_q44_0_all"  />
</g>
<g label="NZ_CP027762" description="NZ_CP027762 (3697930-3763242): Pseudomonas sp. LBUM920 chromosome, complete g... (100% of genes show similarity), NRPS" class="clusterblast-cluster"  >
<text x="5" y="70" class="clusterblast-acc"  >
<a xlink:href="https://antismash-db.secondarymetabolites.org/area.html?record=NZ_CP027762&amp;start=3697930&amp;end=3763242" target="_blank">NZ_CP027762 (3697930-3763242)</a>: Pseudomonas sp. LBUM920 chromosome, complete g... (100% of genes show similarity), NRPS</text>
<line x1="10" y1="85" x2="778.0" y2="85" style="stroke-width:1; stroke:grey; "  />
</g>
<g id="a1_000"  >
<polygon points="51,90 55,90 60,85 55,80 51,80 51,90 " style="fill:#d81515; stroke-width:1; stroke:black; " description="&lt;b&gt;C4J83_RS17425&lt;/b&gt;&lt;br&gt;IclR family transcriptional regulator&lt;br&gt;Location: 3763242 - 3762412&lt;br&gt;&lt;br&gt;&lt;b&gt;BlastP hit with ctg18_16&lt;/b&gt;&lt;br&gt;Percentage identity: 95&lt;br&gt;Percentage coverage: 91&lt;br&gt;BLAST bit score: 509&lt;br&gt;E-value: 5.77e-183" locus_tag="C4J83_RS17425" class="clusterblast-orf" id="dummy-1_h1_4_0"  />
</g>
<g id="a1_001"  >
<polygon points="71,85 76,80 78,80 78,90 76,90 71,85 " style="fill:#65d815; stroke-width:1; stroke:black; " description="&lt;b&gt;C4J83_RS17410&lt;/b&gt;&lt;br&gt;response regulator&lt;br&gt;Location: 3761289 - 3760624&lt;br&gt;&lt;br&gt;&lt;b&gt;BlastP hit with ctg18_17&lt;/b&gt;&lt;br&gt;Percentage identity: 100&lt;br&gt;Percentage coverage: 100&lt;br&gt;BLAST bit score: 423&lt;br&gt;E-value: 5.47e-151&lt;br&gt;&lt;br&gt;&lt;b&gt;BlastP hit with ctg18_18&lt;/b&gt;&lt;br&gt;Percentage identity: 36&lt;br&gt;Percentage coverage: 13&lt;br&gt;BLAST bit score: 78&lt;br&gt;E-value: 7.85e-14" locus_tag="C4J83_RS17410" class="clusterblast-orf" id="dummy-1_h1_4_1"  />
</g>
<g id="a1_002"  >
<polygon points="78,85 83,80 113,80 113,90 83,90 78,85 " style="fill:#65d815; stroke-width:1; stroke:black; " description="&lt;b&gt;C4J83_RS17405&lt;/b&gt;&lt;br&gt;response regulator&lt;br&gt;Location: 3760649 - 3757266&lt;br&gt;&lt;br&gt;&lt;b&gt;BlastP hit with ctg18_17&lt;/b&gt;&lt;br&gt;Percentage identity: 36&lt;br&gt;Percentage coverage: 68&lt;br&gt;BLAST bit score: 74&lt;br&gt;E-value: 2.37e-13&lt;br&gt;&lt;br&gt;&lt;b&gt;BlastP hit with ctg18_18&lt;/b&gt;&lt;br&gt;Percentage identity: 97&lt;br&gt;Percentage coverage: 100&lt;br&gt;BLAST bit score: 2135&lt;br&gt;E-value: 0.0" locus_tag="C4J83_RS17405" class="clusterblast-orf" id="dummy-1_h1_4_2"  />
</g>
<g id="a1_003"  >
<polygon points="116,90 124,90 129,85 124,80 116,80 116,90 " style="fill:#15b6d8; stroke-width:1; stroke:black; " description="&lt;b&gt;C4J83_RS17400&lt;/b&gt;&lt;br&gt;urea ABC transporter substrate-binding protein&lt;br&gt;Location: 3756954 - 3755746&lt;br&gt;&lt;br&gt;&lt;b&gt;BlastP hit with ctg18_19&lt;/b&gt;&lt;br&gt;Percentage identity: 99&lt;br&gt;Percentage coverage: 100&lt;br&gt;BLAST bit score: 791&lt;br&gt;E-value: 1.81e-290" locus_tag="C4J83_RS17400" class="clusterblast-orf" id="dummy-1_h1_4_3"  />
</g>
<g id="a1_004"  >
<polygon points="131,90 135,90 140,85 135,80 131,80 131,90 " style="fill:#8815d8; stroke-width:1; stroke:black; " description="&lt;b&gt;C4J83_RS17395&lt;/b&gt;&lt;br&gt;urea ABC transporter permease subunit UrtB&lt;br&gt;Location: 3755578 - 3754661&lt;br&gt;&lt;br&gt;&lt;b&gt;BlastP hit with ctg18_20&lt;/b&gt;&lt;br&gt;Percentage identity: 98&lt;br&gt;Percentage coverage: 100&lt;br&gt;BLAST bit score: 566&lt;br&gt;E-value: 6.94e-205" locus_tag="C4J83_RS17395" class="clusterblast-orf" id="dummy-1_h1_4_4"  />
</g>
<g id="a1_005"  >
<polygon points="140,90 147,90 152,85 147,80 140,80 140,90 " style="fill:#d83815; stroke-width:1; stroke:black; " description="&lt;b&gt;C4J83_RS17390&lt;/b&gt;&lt;br&gt;urea ABC transporter permease subunit UrtC&lt;br&gt;Location: 3754650 - 3753487&lt;br&gt;&lt;br&gt;&lt;b&gt;BlastP hit with ctg18_21&lt;/b&gt;&lt;br&gt;Percentage identity: 96&lt;br&gt;Percentage coverage: 100&lt;br&gt;BLAST bit score: 709&lt;br&gt;E-value: 7.78e-259" locus_tag="C4J83_RS17390" class="clusterblast-orf" id="dummy-1_h1_4_5"  />
</g>
<g id="a1_006"  >
<polygon points="152,90 155,90 160,85 155,80 152,80 152,90 " style="fill:#43d815; stroke-width:1; stroke:black; " description="&lt;b&gt;C4J83_RS17385&lt;/b&gt;&lt;br&gt;urea ABC transporter ATP-binding protein UrtD&lt;br&gt;Location: 3753490 - 3752732&lt;br&gt;&lt;br&gt;&lt;b&gt;BlastP hit with ctg18_22&lt;/b&gt;&lt;br&gt;Percentage identity: 98&lt;br&gt;Percentage coverage: 100&lt;br&gt;BLAST bit score: 488&lt;br&gt;E-value: 1.02e-175" locus_tag="C4J83_RS17385" class="clusterblast-orf" id="dummy-1_h1_4_6"  />
</g>
<g id="a1_007"  >
<polygon points="160,90 162,90 167,85 162,80 160,80 160,90 " style="fill:#1593d8; stroke-width:1; stroke:black; " description="&lt;b&gt;C4J83_RS17380&lt;/b&gt;&lt;br&gt;urea ABC transporter ATP-binding subunit UrtE&lt;br&gt;Location: 3752721 - 3752032&lt;br&gt;&lt;br&gt;&lt;b&gt;BlastP hit with ctg18_23&lt;/b&gt;&lt;br&gt;Percentage identity: 98&lt;br&gt;Percentage coverage: 100&lt;br&gt;BLAST bit score: 435&lt;br&gt;E-value: 1.34e-155" locus_tag="C4J83_RS17380" class="clusterblast-orf" id="dummy-1_h1_4_7"  />
</g>
<g id="a1_008"  >
<polygon points="170,90 177,90 182,85 177,80 170,80 170,90 " style="fill:#aa15d8; stroke-width:1; stroke:black; " description="&lt;b&gt;C4J83_RS17370&lt;/b&gt;&lt;br&gt;acetamidase/formamidase family protein&lt;br&gt;Location: 3751812 - 3750583&lt;br&gt;&lt;br&gt;&lt;b&gt;BlastP hit with ctg18_24&lt;/b&gt;&lt;br&gt;Percentage identity: 100&lt;br&gt;Percentage coverage: 100&lt;br&gt;BLAST bit score: 857&lt;br&gt;E-value: 2.68e-316" locus_tag="C4J83_RS17370" class="clusterblast-orf" id="dummy-1_h1_4_8"  />
</g>
<g id="a1_009"  >
<polygon points="182,90 186,85 182,80 182,90 " style="fill:#d85a15; stroke-width:1; stroke:black; " description="&lt;b&gt;C4J83_RS17365&lt;/b&gt;&lt;br&gt;FmdB family transcriptional regulator&lt;br&gt;Location: 3750580 - 3750233&lt;br&gt;&lt;br&gt;&lt;b&gt;BlastP hit with ctg18_25&lt;/b&gt;&lt;br&gt;Percentage identity: 96&lt;br&gt;Percentage coverage: 100&lt;br&gt;BLAST bit score: 241&lt;br&gt;E-value: 1.21e-82" locus_tag="C4J83_RS17365" class="clusterblast-orf" id="dummy-1_h1_4_9"  />
</g>
<g id="a1_0010"  >
<polygon points="186,90 192,90 197,85 192,80 186,80 186,90 " style="fill:#21d815; stroke-width:1; stroke:black; " description="&lt;b&gt;C4J83_RS17360&lt;/b&gt;&lt;br&gt;aliphatic amidase&lt;br&gt;Location: 3750217 - 3749174&lt;br&gt;&lt;br&gt;&lt;b&gt;BlastP hit with ctg18_26&lt;/b&gt;&lt;br&gt;Percentage identity: 98&lt;br&gt;Percentage coverage: 99&lt;br&gt;BLAST bit score: 718&lt;br&gt;E-value: 1.12e-263" locus_tag="C4J83_RS17360" class="clusterblast-orf" id="dummy-1_h1_4_10"  />
</g>
<g id="a1_0011"  >
<polygon points="197,90 202,90 207,85 202,80 197,80 197,90 " style="fill:#1571d8; stroke-width:1; stroke:black; " description="&lt;b&gt;C4J83_RS17355&lt;/b&gt;&lt;br&gt;ATP-dependent Clp protease ATP-binding subunit&lt;br&gt;Location: 3749170 - 3748214&lt;br&gt;&lt;br&gt;&lt;b&gt;BlastP hit with ctg18_27&lt;/b&gt;&lt;br&gt;Percentage identity: 92&lt;br&gt;Percentage coverage: 100&lt;br&gt;BLAST bit score: 570&lt;br&gt;E-value: 8.04e-206" locus_tag="C4J83_RS17355" class="clusterblast-orf" id="dummy-1_h1_4_11"  />
</g>
<g id="a1_0012"  >
<polygon points="208,90 209,90 214,85 209,80 208,80 208,90 " style="fill:#cd15d8; stroke-width:1; stroke:black; " description="&lt;b&gt;C4J83_RS17350&lt;/b&gt;&lt;br&gt;DUF2239 family protein&lt;br&gt;Location: 3748146 - 3747574&lt;br&gt;&lt;br&gt;&lt;b&gt;BlastP hit with ctg18_28&lt;/b&gt;&lt;br&gt;Percentage identity: 79&lt;br&gt;Percentage coverage: 100&lt;br&gt;BLAST bit score: 305&lt;br&gt;E-value: 3.23e-105" locus_tag="C4J83_RS17350" class="clusterblast-orf" id="dummy-1_h1_4_12"  />
</g>
<g id="a1_0013"  >
<polygon points="214,90 223,90 228,85 223,80 214,80 214,90 " style="fill:#d87c15; stroke-width:1; stroke:black; " description="&lt;b&gt;C4J83_RS17345&lt;/b&gt;&lt;br&gt;MATE family efflux transporter&lt;br&gt;Location: 3747548 - 3746193&lt;br&gt;&lt;br&gt;&lt;b&gt;BlastP hit with ctg18_29&lt;/b&gt;&lt;br&gt;Percentage identity: 97&lt;br&gt;Percentage coverage: 100&lt;br&gt;BLAST bit score: 798&lt;br&gt;E-value: 1.49e-291" locus_tag="C4J83_RS17345" class="clusterblast-orf" id="dummy-1_h1_4_13"  />
</g>
<g id="a1_0014"  >
<polygon points="228,85 233,80 234,80 234,90 233,90 228,85 " style="fill:#15d82c; stroke-width:1; stroke:black; " description="&lt;b&gt;C4J83_RS17340&lt;/b&gt;&lt;br&gt;TetR/AcrR family transcriptional regulator&lt;br&gt;Location: 3746209 - 3745610&lt;br&gt;&lt;br&gt;&lt;b&gt;BlastP hit with ctg18_30&lt;/b&gt;&lt;br&gt;Percentage identity: 84&lt;br&gt;Percentage coverage: 101&lt;br&gt;BLAST bit score: 318&lt;br&gt;E-value: 1.91e-110" locus_tag="C4J83_RS17340" class="clusterblast-orf" id="dummy-1_h1_4_14"  />
</g>
<g id="a1_0015"  >
<polygon points="235,90 242,90 247,85 242,80 235,80 235,90 " style="fill:#154fd8; stroke-width:1; stroke:black; " description="&lt;b&gt;C4J83_RS17335&lt;/b&gt;&lt;br&gt;MFS transporter&lt;br&gt;Location: 3745468 - 3744296&lt;br&gt;&lt;br&gt;&lt;b&gt;BlastP hit with ctg18_31&lt;/b&gt;&lt;br&gt;Percentage identity: 92&lt;br&gt;Percentage coverage: 98&lt;br&gt;BLAST bit score: 671&lt;br&gt;E-value: 2.23e-243" locus_tag="C4J83_RS17335" class="clusterblast-orf" id="dummy-1_h1_4_15"  />
</g>
<g id="a1_0016"  >
<polygon points="247,85 251,80 251,90 247,85 " style="fill:#d815c1; stroke-width:1; stroke:black; " description="&lt;b&gt;C4J83_RS17330&lt;/b&gt;&lt;br&gt;type II toxin-antitoxin system HicB family antitoxin&lt;br&gt;Location: 3744295 - 3743930&lt;br&gt;&lt;br&gt;&lt;b&gt;BlastP hit with ctg18_32&lt;/b&gt;&lt;br&gt;Percentage identity: 90&lt;br&gt;Percentage coverage: 100&lt;br&gt;BLAST bit score: 227&lt;br&gt;E-value: 1.18e-76" locus_tag="C4J83_RS17330" class="clusterblast-orf" id="dummy-1_h1_4_16"  />
</g>
<g id="a1_0017"  >
<polygon points="251,85 254,80 254,90 251,85 " style="fill:#d89f15; stroke-width:1; stroke:black; " description="&lt;b&gt;C4J83_RS17325&lt;/b&gt;&lt;br&gt;type II toxin-antitoxin system HicA family toxin&lt;br&gt;Location: 3743933 - 3743682&lt;br&gt;&lt;br&gt;&lt;b&gt;BlastP hit with ctg18_33&lt;/b&gt;&lt;br&gt;Percentage identity: 88&lt;br&gt;Percentage coverage: 100&lt;br&gt;BLAST bit score: 149&lt;br&gt;E-value: 6.95e-47" locus_tag="C4J83_RS17325" class="clusterblast-orf" id="dummy-1_h1_4_17"  />
</g>
<g id="a1_0018"  >
<polygon points="256,90 397,90 402,85 397,80 256,80 256,90 " style="fill:#15d84f; stroke-width:1; stroke:black; " description="&lt;b&gt;C4J83_RS17320&lt;/b&gt;&lt;br&gt;non-ribosomal peptide synthetase&lt;br&gt;Location: 3743471 - 3729423&lt;br&gt;&lt;br&gt;&lt;b&gt;BlastP hit with ctg18_34&lt;/b&gt;&lt;br&gt;Percentage identity: 90&lt;br&gt;Percentage coverage: 100&lt;br&gt;BLAST bit score: 8406&lt;br&gt;E-value: 0.0&lt;br&gt;&lt;br&gt;&lt;b&gt;BlastP hit with ctg18_35&lt;/b&gt;&lt;br&gt;Percentage identity: 66&lt;br&gt;Percentage coverage: 53&lt;br&gt;BLAST bit score: 2659&lt;br&gt;E-value: 0.0" locus_tag="C4J83_RS17320" class="clusterblast-orf" id="dummy-1_h1_4_18"  />
</g>
<g id="a1_0019"  >
<polygon points="402,90 519,90 524,85 519,80 402,80 402,90 " style="fill:#15d84f; stroke-width:1; stroke:black; " description="&lt;b&gt;C4J83_RS17315&lt;/b&gt;&lt;br&gt;non-ribosomal peptide synthase/polyketide synthase&lt;br&gt;Location: 3729419 - 3717567&lt;br&gt;&lt;br&gt;&lt;b&gt;BlastP hit with ctg18_34&lt;/b&gt;&lt;br&gt;Percentage identity: 68&lt;br&gt;Percentage coverage: 45&lt;br&gt;BLAST bit score: 2722&lt;br&gt;E-value: 0.0&lt;br&gt;&lt;br&gt;&lt;b&gt;BlastP hit with ctg18_35&lt;/b&gt;&lt;br&gt;Percentage identity: 92&lt;br&gt;Percentage coverage: 100&lt;br&gt;BLAST bit score: 7231&lt;br&gt;E-value: 0.0" locus_tag="C4J83_RS17315" class="clusterblast-orf" id="dummy-1_h1_4_19"  />
</g>
<g id="a1_0020"  >
<polygon points="527,85 532,80 552,80 552,90 532,90 527,85 " style="fill:#152cd8; stroke-width:1; stroke:black; " description="&lt;b&gt;C4J83_RS17310&lt;/b&gt;&lt;br&gt;TonB-dependent siderophore receptor&lt;br&gt;Location: 3717297 - 3714856&lt;br&gt;&lt;br&gt;&lt;b&gt;BlastP hit with ctg18_36&lt;/b&gt;&lt;br&gt;Percentage identity: 94&lt;br&gt;Percentage coverage: 100&lt;br&gt;BLAST bit score: 1566&lt;br&gt;E-value: 0.0&lt;br&gt;&lt;br&gt;&lt;b&gt;BlastP hit with ctg18_55&lt;/b&gt;&lt;br&gt;Percentage identity: 39&lt;br&gt;Percentage coverage: 97&lt;br&gt;BLAST bit score: 491&lt;br&gt;E-value: 3.54e-161" locus_tag="C4J83_RS17310" class="clusterblast-orf" id="dummy-1_h1_4_20"  />
</g>
<g id="a1_0021"  >
<polygon points="554,85 559,80 571,80 571,90 559,90 554,85 " style="fill:#d8159f; stroke-width:1; stroke:black; " description="&lt;b&gt;C4J83_RS17305&lt;/b&gt;&lt;br&gt;cyclic peptide export ABC transporter&lt;br&gt;Location: 3714746 - 3713094&lt;br&gt;&lt;br&gt;&lt;b&gt;BlastP hit with ctg18_37&lt;/b&gt;&lt;br&gt;Percentage identity: 99&lt;br&gt;Percentage coverage: 100&lt;br&gt;BLAST bit score: 1045&lt;br&gt;E-value: 0.0" locus_tag="C4J83_RS17305" class="clusterblast-orf" id="dummy-1_h1_4_21"  />
</g>
<g id="a1_0022"  >
<polygon points="573,90 576,90 581,85 576,80 573,80 573,90 " style="fill:#d8c115; stroke-width:1; stroke:black; " description="&lt;b&gt;C4J83_RS17300&lt;/b&gt;&lt;br&gt;N(5)-hydroxyornithine transformylase PvdF&lt;br&gt;Location: 3712895 - 3712068&lt;br&gt;&lt;br&gt;&lt;b&gt;BlastP hit with ctg18_38&lt;/b&gt;&lt;br&gt;Percentage identity: 98&lt;br&gt;Percentage coverage: 100&lt;br&gt;BLAST bit score: 555&lt;br&gt;E-value: 2.54e-201" locus_tag="C4J83_RS17300" class="clusterblast-orf" id="dummy-1_h1_4_22"  />
</g>
<g id="a1_0023"  >
<polygon points="594,85 599,80 603,80 603,90 599,90 594,85 " style="fill:#15d871; stroke-width:1; stroke:black; " description="&lt;b&gt;C4J83_RS17295&lt;/b&gt;&lt;br&gt;formylglycine-generating enzyme family protein&lt;br&gt;Location: 3710828 - 3709956&lt;br&gt;&lt;br&gt;&lt;b&gt;BlastP hit with ctg18_39&lt;/b&gt;&lt;br&gt;Percentage identity: 94&lt;br&gt;Percentage coverage: 100&lt;br&gt;BLAST bit score: 581&lt;br&gt;E-value: 3.5e-211" locus_tag="C4J83_RS17295" class="clusterblast-orf" id="dummy-1_h1_4_23"  />
</g>
<g id="a1_0024"  >
<polygon points="604,85 609,80 617,80 617,90 609,90 604,85 " style="fill:#2115d8; stroke-width:1; stroke:black; " description="&lt;b&gt;C4J83_RS17290&lt;/b&gt;&lt;br&gt;aminotransferase class V-fold PLP-dependent enzyme&lt;br&gt;Location: 3709926 - 3708646&lt;br&gt;&lt;br&gt;&lt;b&gt;BlastP hit with ctg18_40&lt;/b&gt;&lt;br&gt;Percentage identity: 89&lt;br&gt;Percentage coverage: 100&lt;br&gt;BLAST bit score: 776&lt;br&gt;E-value: 7.28e-284" locus_tag="C4J83_RS17290" class="clusterblast-orf" id="dummy-1_h1_4_24"  />
</g>
<g id="a1_0025"  >
<polygon points="617,85 622,80 631,80 631,90 622,90 617,85 " style="fill:#d8157c; stroke-width:1; stroke:black; " description="&lt;b&gt;C4J83_RS17285&lt;/b&gt;&lt;br&gt;pyoverdine-tailoring dipeptidase-like protein PvdM&lt;br&gt;Location: 3708627 - 3707278&lt;br&gt;&lt;br&gt;&lt;b&gt;BlastP hit with ctg18_41&lt;/b&gt;&lt;br&gt;Percentage identity: 95&lt;br&gt;Percentage coverage: 100&lt;br&gt;BLAST bit score: 879&lt;br&gt;E-value: 0.0" locus_tag="C4J83_RS17285" class="clusterblast-orf" id="dummy-1_h1_4_25"  />
</g>
<g id="a1_0026"  >
<polygon points="632,90 644,90 649,85 644,80 632,80 632,90 " style="fill:#cdd815; stroke-width:1; stroke:black; " description="&lt;b&gt;C4J83_RS17280&lt;/b&gt;&lt;br&gt;PvdJ/PvdD/PvdP-like protein&lt;br&gt;Location: 3707135 - 3705516&lt;br&gt;&lt;br&gt;&lt;b&gt;BlastP hit with ctg18_42&lt;/b&gt;&lt;br&gt;Percentage identity: 94&lt;br&gt;Percentage coverage: 100&lt;br&gt;BLAST bit score: 1086&lt;br&gt;E-value: 0.0" locus_tag="C4J83_RS17280" class="clusterblast-orf" id="dummy-1_h1_4_26"  />
</g>
<g id="a1_0027"  >
<polygon points="649,85 654,80 659,80 659,90 654,90 649,85 " style="fill:#15d893; stroke-width:1; stroke:black; " description="&lt;b&gt;C4J83_RS17275&lt;/b&gt;&lt;br&gt;DUF1853 family protein&lt;br&gt;Location: 3705523 - 3704576&lt;br&gt;&lt;br&gt;&lt;b&gt;BlastP hit with ctg18_43&lt;/b&gt;&lt;br&gt;Percentage identity: 93&lt;br&gt;Percentage coverage: 100&lt;br&gt;BLAST bit score: 631&lt;br&gt;E-value: 2.61e-230" locus_tag="C4J83_RS17275" class="clusterblast-orf" id="dummy-1_h1_4_27"  />
</g>
<g id="a1_0028"  >
<polygon points="660,90 665,90 670,85 665,80 660,80 660,90 " style="fill:#4315d8; stroke-width:1; stroke:black; " description="&lt;b&gt;C4J83_RS17270&lt;/b&gt;&lt;br&gt;NAD(+) kinase&lt;br&gt;Location: 3704431 - 3703541&lt;br&gt;&lt;br&gt;&lt;b&gt;BlastP hit with ctg18_44&lt;/b&gt;&lt;br&gt;Percentage identity: 100&lt;br&gt;Percentage coverage: 100&lt;br&gt;BLAST bit score: 599&lt;br&gt;E-value: 3.81e-218" locus_tag="C4J83_RS17270" class="clusterblast-orf" id="dummy-1_h1_4_28"  />
</g>
<g id="a1_0029"  >
<polygon points="670,90 675,90 680,85 675,80 670,80 670,90 " style="fill:#d8155a; stroke-width:1; stroke:black; " description="&lt;b&gt;C4J83_RS17265&lt;/b&gt;&lt;br&gt;metallophosphoesterase&lt;br&gt;Location: 3703544 - 3702570&lt;br&gt;&lt;br&gt;&lt;b&gt;BlastP hit with ctg18_45&lt;/b&gt;&lt;br&gt;Percentage identity: 98&lt;br&gt;Percentage coverage: 100&lt;br&gt;BLAST bit score: 687&lt;br&gt;E-value: 5.62e-252" locus_tag="C4J83_RS17265" class="clusterblast-orf" id="dummy-1_h1_4_29"  />
</g>
<g id="a1_0030"  >
<polygon points="680,90 684,90 689,85 684,80 680,80 680,90 " style="fill:#aad815; stroke-width:1; stroke:black; " description="&lt;b&gt;C4J83_RS17260&lt;/b&gt;&lt;br&gt;rhomboid family intramembrane serine protease&lt;br&gt;Location: 3702573 - 3701704&lt;br&gt;&lt;br&gt;&lt;b&gt;BlastP hit with ctg18_46&lt;/b&gt;&lt;br&gt;Percentage identity: 94&lt;br&gt;Percentage coverage: 100&lt;br&gt;BLAST bit score: 550&lt;br&gt;E-value: 7.22e-199" locus_tag="C4J83_RS17260" class="clusterblast-orf" id="dummy-1_h1_4_30"  />
</g>
<g id="a1_0031"  >
<polygon points="689,90 692,85 689,80 689,90 " style="fill:#15d8b6; stroke-width:1; stroke:black; " description="&lt;b&gt;C4J83_RS17255&lt;/b&gt;&lt;br&gt;DUF1315 family protein&lt;br&gt;Location: 3701689 - 3701429&lt;br&gt;&lt;br&gt;&lt;b&gt;BlastP hit with ctg18_47&lt;/b&gt;&lt;br&gt;Percentage identity: 100&lt;br&gt;Percentage coverage: 100&lt;br&gt;BLAST bit score: 175&lt;br&gt;E-value: 3.62e-57" locus_tag="C4J83_RS17255" class="clusterblast-orf" id="dummy-1_h1_4_31"  />
</g>
<g id="a1_0032"  >
<polygon points="692,90 695,90 700,85 695,80 692,80 692,90 " style="fill:#6615d8; stroke-width:1; stroke:black; " description="&lt;b&gt;C4J83_RS17250&lt;/b&gt;&lt;br&gt;DUF2797 domain-containing protein&lt;br&gt;Location: 3701432 - 3700602&lt;br&gt;&lt;br&gt;&lt;b&gt;BlastP hit with ctg18_48&lt;/b&gt;&lt;br&gt;Percentage identity: 96&lt;br&gt;Percentage coverage: 100&lt;br&gt;BLAST bit score: 522&lt;br&gt;E-value: 1.6e-188" locus_tag="C4J83_RS17250" class="clusterblast-orf" id="dummy-1_h1_4_32"  />
</g>
<g id="a1_0033"  >
<polygon points="700,90 723,90 728,85 723,80 700,80 700,90 " style="fill:#d81538; stroke-width:1; stroke:black; " description="&lt;b&gt;C4J83_RS17245&lt;/b&gt;&lt;br&gt;aminopeptidase N&lt;br&gt;Location: 3700588 - 3697931&lt;br&gt;&lt;br&gt;&lt;b&gt;BlastP hit with ctg18_49&lt;/b&gt;&lt;br&gt;Percentage identity: 97&lt;br&gt;Percentage coverage: 100&lt;br&gt;BLAST bit score: 1701&lt;br&gt;E-value: 0.0" locus_tag="C4J83_RS17245" class="clusterblast-orf" id="dummy-1_h1_4_33"  />
</g>
</svg>
