<svg xmlns="http://www.w3.org/2000/svg" xmlns:xlink="http://www.w3.org/1999/xlink" version="1.1" x="0" y="0" height="230" width="800" viewBox="0 0 800 230" preserveAspectRatio="none"  >
<g label="Query sequence" class="clusterblast-cluster"  >
<text x="5" y="20" class="clusterblast-acc"  >
Query sequence</text>
<line x1="10" y1="35" x2="778.0" y2="35" style="stroke-width:1; stroke:grey; "  />
<polygon points="0,40 0,40 5,35 0,30 0,30 0,40 " style="fill:#d81515; stroke-width:1; stroke:black; " description="&lt;b&gt;ctg2_407&lt;/b&gt;&lt;br&gt;ctg2 407&lt;br&gt;Location: 443240 - 443591" locus_tag="ctg2_407" class="clusterblast-orf" id="dummy-2_q0_0_all"  />
<polygon points="5,40 5,40 10,35 5,30 5,30 5,40 " style="fill:#77d815; stroke-width:1; stroke:black; " description="&lt;b&gt;ctg2_408&lt;/b&gt;&lt;br&gt;ctg2 408&lt;br&gt;Location: 443614 - 443941" locus_tag="ctg2_408" class="clusterblast-orf" id="dummy-2_q1_0_all"  />
<polygon points="11,40 14,40 19,35 14,30 11,30 11,40 " style="fill:#15d8d8; stroke-width:1; stroke:black; " description="&lt;b&gt;ctg2_409&lt;/b&gt;&lt;br&gt;ctg2 409&lt;br&gt;Location: 443973 - 444519" locus_tag="ctg2_409" class="clusterblast-orf" id="dummy-2_q2_0_all"  />
<polygon points="20,40 29,40 34,35 29,30 20,30 20,40 " style="fill:#7715d8; stroke-width:1; stroke:black; " description="&lt;b&gt;ctg2_410&lt;/b&gt;&lt;br&gt;ctg2 410&lt;br&gt;Location: 444609 - 445530" locus_tag="ctg2_410" class="clusterblast-orf" id="dummy-2_q3_0_all"  />
<polygon points="33,35 38,30 43,30 43,40 38,40 33,35 " style="fill:#d83215; stroke-width:1; stroke:black; " description="&lt;b&gt;ctg2_411&lt;/b&gt;&lt;br&gt;ctg2 411&lt;br&gt;Location: 445488 - 446148" locus_tag="ctg2_411" class="clusterblast-orf" id="dummy-2_q4_0_all"  />
<polygon points="43,35 48,30 57,30 57,40 48,40 43,35 " style="fill:#59d815; stroke-width:1; stroke:black; " description="&lt;b&gt;ctg2_412&lt;/b&gt;&lt;br&gt;ctg2 412&lt;br&gt;Location: 446144 - 447038" locus_tag="ctg2_412" class="clusterblast-orf" id="dummy-2_q5_0_all"  />
<polygon points="62,35 67,30 69,30 69,40 67,40 62,35 " style="fill:#15bbd8; stroke-width:1; stroke:black; " description="&lt;b&gt;ctg2_413&lt;/b&gt;&lt;br&gt;ctg2 413&lt;br&gt;Location: 447421 - 447871" locus_tag="ctg2_413" class="clusterblast-orf" id="dummy-2_q6_0_all"  />
<polygon points="77,40 86,40 91,35 86,30 77,30 77,40 " style="fill:#9415d8; stroke-width:1; stroke:black; " description="&lt;b&gt;ctg2_414&lt;/b&gt;&lt;br&gt;ctg2 414&lt;br&gt;Location: 448404 - 449340" locus_tag="ctg2_414" class="clusterblast-orf" id="dummy-2_q7_0_all"  />
<polygon points="92,40 99,40 104,35 99,30 92,30 92,40 " style="fill:#d85015; stroke-width:1; stroke:black; " description="&lt;b&gt;ctg2_415&lt;/b&gt;&lt;br&gt;ctg2 415&lt;br&gt;Location: 449378 - 450185" locus_tag="ctg2_415" class="clusterblast-orf" id="dummy-2_q8_0_all"  />
<polygon points="105,35 109,30 109,40 105,35 " style="fill:#3cd815; stroke-width:1; stroke:black; " description="&lt;b&gt;ctg2_416&lt;/b&gt;&lt;br&gt;ctg2 416&lt;br&gt;Location: 450249 - 450534" locus_tag="ctg2_416" class="clusterblast-orf" id="dummy-2_q9_0_all"  />
<polygon points="110,35 115,30 118,30 118,40 115,40 110,35 " style="fill:#159ed8; stroke-width:1; stroke:black; " description="&lt;b&gt;ctg2_417&lt;/b&gt;&lt;br&gt;ctg2 417&lt;br&gt;Location: 450599 - 451142" locus_tag="ctg2_417" class="clusterblast-orf" id="dummy-2_q10_0_all"  />
<polygon points="119,35 124,30 148,30 148,40 124,40 119,35 " style="fill:#b115d8; stroke-width:1; stroke:black; " description="&lt;b&gt;ctg2_418&lt;/b&gt;&lt;br&gt;ctg2 418&lt;br&gt;Location: 451233 - 453156" locus_tag="ctg2_418" class="clusterblast-orf" id="dummy-2_q11_0_all"  />
<polygon points="150,35 155,30 161,30 161,40 155,40 150,35 " style="fill:#d86d15; stroke-width:1; stroke:black; " description="&lt;b&gt;ctg2_419&lt;/b&gt;&lt;br&gt;ctg2 419&lt;br&gt;Location: 453267 - 454035" locus_tag="ctg2_419" class="clusterblast-orf" id="dummy-2_q12_0_all"  />
<polygon points="161,35 166,30 179,30 179,40 166,40 161,35 " style="fill:#1fd815; stroke-width:1; stroke:black; " description="&lt;b&gt;ctg2_420&lt;/b&gt;&lt;br&gt;ctg2 420&lt;br&gt;Location: 454031 - 455189" locus_tag="ctg2_420" class="clusterblast-orf" id="dummy-2_q13_0_all"  />
<polygon points="179,35 184,30 203,30 203,40 184,40 179,35 " style="fill:#1580d8; stroke-width:1; stroke:black; " description="&lt;b&gt;ctg2_421&lt;/b&gt;&lt;br&gt;ctg2 421&lt;br&gt;Location: 455205 - 456822" locus_tag="ctg2_421" class="clusterblast-orf" id="dummy-2_q14_0_all"  />
<polygon points="203,35 208,30 216,30 216,40 208,40 203,35 " style="fill:#ce15d8; stroke-width:1; stroke:black; " description="&lt;b&gt;ctg2_422&lt;/b&gt;&lt;br&gt;ctg2 422&lt;br&gt;Location: 456825 - 457698" locus_tag="ctg2_422" class="clusterblast-orf" id="dummy-2_q15_0_all"  />
<polygon points="216,35 221,30 243,30 243,40 221,40 216,35 " style="fill:#d88a15; stroke-width:1; stroke:black; " description="&lt;b&gt;ctg2_423&lt;/b&gt;&lt;br&gt;ctg2 423&lt;br&gt;Location: 457710 - 459489" locus_tag="ctg2_423" class="clusterblast-orf" id="dummy-2_q16_0_all"  />
<polygon points="245,40 250,40 255,35 250,30 245,30 245,40 " style="fill:#15d829; stroke-width:1; stroke:black; " description="&lt;b&gt;ctg2_424&lt;/b&gt;&lt;br&gt;ctg2 424&lt;br&gt;Location: 459642 - 460266" locus_tag="ctg2_424" class="clusterblast-orf" id="dummy-2_q17_0_all"  />
<polygon points="256,40 263,40 268,35 263,30 256,30 256,40 " style="fill:#1563d8; stroke-width:1; stroke:black; " description="&lt;b&gt;ctg2_425&lt;/b&gt;&lt;br&gt;ctg2 425&lt;br&gt;Location: 460359 - 461148" locus_tag="ctg2_425" class="clusterblast-orf" id="dummy-2_q18_0_all"  />
<polygon points="269,35 274,30 277,30 277,40 274,40 269,35 " style="fill:#d815c5; stroke-width:1; stroke:black; " description="&lt;b&gt;ctg2_426&lt;/b&gt;&lt;br&gt;ctg2 426&lt;br&gt;Location: 461186 - 461738" locus_tag="ctg2_426" class="clusterblast-orf" id="dummy-2_q19_0_all"  />
<polygon points="281,40 288,40 293,35 288,30 281,30 281,40 " style="fill:#d8a715; stroke-width:1; stroke:black; " description="&lt;b&gt;ctg2_427&lt;/b&gt;&lt;br&gt;ctg2 427&lt;br&gt;Location: 462038 - 462791" locus_tag="ctg2_427" class="clusterblast-orf" id="dummy-2_q20_0_all"  />
<polygon points="293,40 482,40 487,35 482,30 293,30 293,40 " style="fill:#15d846; stroke-width:1; stroke:black; " description="&lt;b&gt;ctg2_428&lt;/b&gt;&lt;br&gt;ctg2 428&lt;br&gt;Location: 462841 - 475738" locus_tag="ctg2_428" class="clusterblast-orf" id="dummy-2_q21_0_all"  />
<polygon points="502,40 506,40 511,35 506,30 502,30 502,40 " style="fill:#1546d8; stroke-width:1; stroke:black; " description="&lt;b&gt;ctg2_429&lt;/b&gt;&lt;br&gt;ctg2 429&lt;br&gt;Location: 476758 - 477394" locus_tag="ctg2_429" class="clusterblast-orf" id="dummy-2_q22_0_all"  />
<polygon points="512,40 523,40 528,35 523,30 512,30 512,40 " style="fill:#d815a7; stroke-width:1; stroke:black; " description="&lt;b&gt;ctg2_430&lt;/b&gt;&lt;br&gt;ctg2 430&lt;br&gt;Location: 477434 - 478499" locus_tag="ctg2_430" class="clusterblast-orf" id="dummy-2_q23_0_all"  />
<polygon points="531,35 536,30 542,30 542,40 536,40 531,35 " style="fill:#d8c515; stroke-width:1; stroke:black; " description="&lt;b&gt;ctg2_431&lt;/b&gt;&lt;br&gt;ctg2 431&lt;br&gt;Location: 478699 - 479461" locus_tag="ctg2_431" class="clusterblast-orf" id="dummy-2_q24_0_all"  />
<polygon points="542,35 547,30 555,30 555,40 547,40 542,35 " style="fill:#15d863; stroke-width:1; stroke:black; " description="&lt;b&gt;ctg2_432&lt;/b&gt;&lt;br&gt;ctg2 432&lt;br&gt;Location: 479436 - 480288" locus_tag="ctg2_432" class="clusterblast-orf" id="dummy-2_q25_0_all"  />
<polygon points="555,35 560,30 581,30 581,40 560,40 555,35 " style="fill:#1529d8; stroke-width:1; stroke:black; " description="&lt;b&gt;ctg2_433&lt;/b&gt;&lt;br&gt;ctg2 433&lt;br&gt;Location: 480287 - 482033" locus_tag="ctg2_433" class="clusterblast-orf" id="dummy-2_q26_0_all"  />
<polygon points="584,40 589,40 594,35 589,30 584,30 584,40 " style="fill:#d8158a; stroke-width:1; stroke:black; " description="&lt;b&gt;ctg2_434&lt;/b&gt;&lt;br&gt;ctg2 434&lt;br&gt;Location: 482209 - 482905" locus_tag="ctg2_434" class="clusterblast-orf" id="dummy-2_q27_0_all"  />
<polygon points="594,40 609,40 614,35 609,30 594,30 594,40 " style="fill:#ced815; stroke-width:1; stroke:black; " description="&lt;b&gt;ctg2_435&lt;/b&gt;&lt;br&gt;ctg2 435&lt;br&gt;Location: 482901 - 484224" locus_tag="ctg2_435" class="clusterblast-orf" id="dummy-2_q28_0_all"  />
<polygon points="616,40 622,40 627,35 622,30 616,30 616,40 " style="fill:#15d880; stroke-width:1; stroke:black; " description="&lt;b&gt;ctg2_436&lt;/b&gt;&lt;br&gt;ctg2 436&lt;br&gt;Location: 484348 - 485116" locus_tag="ctg2_436" class="clusterblast-orf" id="dummy-2_q29_0_all"  />
<polygon points="630,40 646,40 651,35 646,30 630,30 630,40 " style="fill:#1f15d8; stroke-width:1; stroke:black; " description="&lt;b&gt;ctg2_437&lt;/b&gt;&lt;br&gt;ctg2 437&lt;br&gt;Location: 485312 - 486725" locus_tag="ctg2_437" class="clusterblast-orf" id="dummy-2_q30_0_all"  />
<polygon points="653,40 656,35 653,30 653,40 " style="fill:#d8156d; stroke-width:1; stroke:black; " description="&lt;b&gt;ctg2_438&lt;/b&gt;&lt;br&gt;ctg2 438&lt;br&gt;Location: 486808 - 487033" locus_tag="ctg2_438" class="clusterblast-orf" id="dummy-2_q31_0_all"  />
<polygon points="658,35 663,30 678,30 678,40 663,40 658,35 " style="fill:#b1d815; stroke-width:1; stroke:black; " description="&lt;b&gt;ctg2_439&lt;/b&gt;&lt;br&gt;ctg2 439&lt;br&gt;Location: 487149 - 488496" locus_tag="ctg2_439" class="clusterblast-orf" id="dummy-2_q32_0_all"  />
<polygon points="678,35 683,30 711,30 711,40 683,40 678,35 " style="fill:#15d89e; stroke-width:1; stroke:black; " description="&lt;b&gt;ctg2_440&lt;/b&gt;&lt;br&gt;ctg2 440&lt;br&gt;Location: 488513 - 490679" locus_tag="ctg2_440" class="clusterblast-orf" id="dummy-2_q33_0_all"  />
<polygon points="712,35 714,30 714,40 712,35 " style="fill:#3c15d8; stroke-width:1; stroke:black; " description="&lt;b&gt;ctg2_441&lt;/b&gt;&lt;br&gt;ctg2 441&lt;br&gt;Location: 490751 - 490928" locus_tag="ctg2_441" class="clusterblast-orf" id="dummy-2_q34_0_all"  />
<polygon points="718,35 723,30 737,30 737,40 723,40 718,35 " style="fill:#d81550; stroke-width:1; stroke:black; " description="&lt;b&gt;ctg2_442&lt;/b&gt;&lt;br&gt;ctg2 442&lt;br&gt;Location: 491148 - 492438" locus_tag="ctg2_442" class="clusterblast-orf" id="dummy-2_q35_0_all"  />
<polygon points="739,35 744,30 748,30 748,40 744,40 739,35 " style="fill:#94d815; stroke-width:1; stroke:black; " description="&lt;b&gt;ctg2_443&lt;/b&gt;&lt;br&gt;ctg2 443&lt;br&gt;Location: 492548 - 493184" locus_tag="ctg2_443" class="clusterblast-orf" id="dummy-2_q36_0_all"  />
<polygon points="750,35 753,30 753,40 750,35 " style="fill:#15d8bb; stroke-width:1; stroke:black; " description="&lt;b&gt;ctg2_444&lt;/b&gt;&lt;br&gt;ctg2 444&lt;br&gt;Location: 493280 - 493535" locus_tag="ctg2_444" class="clusterblast-orf" id="dummy-2_q37_0_all"  />
<polygon points="753,35 758,30 766,30 766,40 758,40 753,35 " style="fill:#5915d8; stroke-width:1; stroke:black; " description="&lt;b&gt;ctg2_445&lt;/b&gt;&lt;br&gt;ctg2 445&lt;br&gt;Location: 493538 - 494351" locus_tag="ctg2_445" class="clusterblast-orf" id="dummy-2_q38_0_all"  />
<polygon points="769,35 774,30 780,30 780,40 774,40 769,35 " style="fill:#d81532; stroke-width:1; stroke:black; " description="&lt;b&gt;ctg2_446&lt;/b&gt;&lt;br&gt;ctg2 446&lt;br&gt;Location: 494551 - 495289" locus_tag="ctg2_446" class="clusterblast-orf" id="dummy-2_q39_0_all"  />
</g>
<g label="NZ_MSDI01000001" description="NZ_MSDI01000001 (680074-732971): Pseudomonas fluorescens strain E24 PF E24 co... (97% of genes show similarity), NRPS" class="clusterblast-cluster"  >
<text x="5" y="70" class="clusterblast-acc"  >
<a xlink:href="https://antismash-db.secondarymetabolites.org/area.html?record=NZ_MSDI01000001&amp;start=680074&amp;end=732971" target="_blank">NZ_MSDI01000001 (680074-732971)</a>: Pseudomonas fluorescens strain E24 PF E24 co... (97% of genes show similarity), NRPS</text>
<line x1="10" y1="85" x2="778.0" y2="85" style="stroke-width:1; stroke:grey; "  />
</g>
<g id="a2_000"  >
<polygon points="2,90 6,85 2,80 2,90 " style="fill:#d81515; stroke-width:1; stroke:black; " description="&lt;b&gt;BFW91_RS03660&lt;/b&gt;&lt;br&gt;hypothetical protein&lt;br&gt;Location: 732511 - 732218&lt;br&gt;&lt;br&gt;&lt;b&gt;BlastP hit with ctg2_407&lt;/b&gt;&lt;br&gt;Percentage identity: 89&lt;br&gt;Percentage coverage: 83&lt;br&gt;BLAST bit score: 182&lt;br&gt;E-value: 2.2e-59" locus_tag="BFW91_RS03660" class="clusterblast-orf" id="dummy-2_h2_2_0"  />
</g>
<g id="a2_001"  >
<polygon points="6,90 6,90 11,85 6,80 6,80 6,90 " style="fill:#77d815; stroke-width:1; stroke:black; " description="&lt;b&gt;BFW91_RS03655&lt;/b&gt;&lt;br&gt;hypothetical protein&lt;br&gt;Location: 732194 - 731868&lt;br&gt;&lt;br&gt;&lt;b&gt;BlastP hit with ctg2_408&lt;/b&gt;&lt;br&gt;Percentage identity: 91&lt;br&gt;Percentage coverage: 100&lt;br&gt;BLAST bit score: 201&lt;br&gt;E-value: 5.31e-67" locus_tag="BFW91_RS03655" class="clusterblast-orf" id="dummy-2_h2_2_1"  />
</g>
<g id="a2_002"  >
<polygon points="12,90 15,90 20,85 15,80 12,80 12,90 " style="fill:#15d8d8; stroke-width:1; stroke:black; " description="&lt;b&gt;BFW91_RS03650&lt;/b&gt;&lt;br&gt;hypothetical protein&lt;br&gt;Location: 731835 - 731290&lt;br&gt;&lt;br&gt;&lt;b&gt;BlastP hit with ctg2_409&lt;/b&gt;&lt;br&gt;Percentage identity: 93&lt;br&gt;Percentage coverage: 100&lt;br&gt;BLAST bit score: 347&lt;br&gt;E-value: 2.81e-122" locus_tag="BFW91_RS03650" class="clusterblast-orf" id="dummy-2_h2_2_2"  />
</g>
<g id="a2_003"  >
<polygon points="21,90 30,90 35,85 30,80 21,80 21,90 " style="fill:#7715d8; stroke-width:1; stroke:black; " description="&lt;b&gt;BFW91_RS03645&lt;/b&gt;&lt;br&gt;lipid kinase YegS&lt;br&gt;Location: 731198 - 730278&lt;br&gt;&lt;br&gt;&lt;b&gt;BlastP hit with ctg2_410&lt;/b&gt;&lt;br&gt;Percentage identity: 97&lt;br&gt;Percentage coverage: 100&lt;br&gt;BLAST bit score: 590&lt;br&gt;E-value: 2.66e-214" locus_tag="BFW91_RS03645" class="clusterblast-orf" id="dummy-2_h2_2_3"  />
</g>
<g id="a2_004"  >
<polygon points="34,85 39,80 44,80 44,90 39,90 34,85 " style="fill:#d83215; stroke-width:1; stroke:black; " description="&lt;b&gt;BFW91_RS03640&lt;/b&gt;&lt;br&gt;response regulator transcription factor&lt;br&gt;Location: 730319 - 729660&lt;br&gt;&lt;br&gt;&lt;b&gt;BlastP hit with ctg2_411&lt;/b&gt;&lt;br&gt;Percentage identity: 98&lt;br&gt;Percentage coverage: 100&lt;br&gt;BLAST bit score: 411&lt;br&gt;E-value: 1.76e-146" locus_tag="BFW91_RS03640" class="clusterblast-orf" id="dummy-2_h2_2_4"  />
</g>
<g id="a2_005"  >
<polygon points="44,85 49,80 58,80 58,90 49,90 44,85 " style="fill:#59d815; stroke-width:1; stroke:black; " description="&lt;b&gt;BFW91_RS03635&lt;/b&gt;&lt;br&gt;sensor histidine kinase&lt;br&gt;Location: 729663 - 728770&lt;br&gt;&lt;br&gt;&lt;b&gt;BlastP hit with ctg2_412&lt;/b&gt;&lt;br&gt;Percentage identity: 96&lt;br&gt;Percentage coverage: 100&lt;br&gt;BLAST bit score: 550&lt;br&gt;E-value: 6.63e-199" locus_tag="BFW91_RS03635" class="clusterblast-orf" id="dummy-2_h2_2_5"  />
</g>
<g id="a2_006"  >
<polygon points="63,85 68,80 70,80 70,90 68,90 63,85 " style="fill:#15bbd8; stroke-width:1; stroke:black; " description="&lt;b&gt;BFW91_RS03630&lt;/b&gt;&lt;br&gt;hypothetical protein&lt;br&gt;Location: 728386 - 727937&lt;br&gt;&lt;br&gt;&lt;b&gt;BlastP hit with ctg2_413&lt;/b&gt;&lt;br&gt;Percentage identity: 96&lt;br&gt;Percentage coverage: 100&lt;br&gt;BLAST bit score: 285&lt;br&gt;E-value: 8.91e-99" locus_tag="BFW91_RS03630" class="clusterblast-orf" id="dummy-2_h2_2_6"  />
</g>
<g id="a2_007"  >
<polygon points="78,90 87,90 92,85 87,80 78,80 78,90 " style="fill:#9415d8; stroke-width:1; stroke:black; " description="&lt;b&gt;BFW91_RS03625&lt;/b&gt;&lt;br&gt;chemotaxis protein CheV&lt;br&gt;Location: 727403 - 726468&lt;br&gt;&lt;br&gt;&lt;b&gt;BlastP hit with ctg2_414&lt;/b&gt;&lt;br&gt;Percentage identity: 98&lt;br&gt;Percentage coverage: 100&lt;br&gt;BLAST bit score: 594&lt;br&gt;E-value: 8.25e-216" locus_tag="BFW91_RS03625" class="clusterblast-orf" id="dummy-2_h2_2_7"  />
</g>
<g id="a2_008"  >
<polygon points="93,90 100,90 105,85 100,80 93,80 93,90 " style="fill:#d85015; stroke-width:1; stroke:black; " description="&lt;b&gt;BFW91_RS03620&lt;/b&gt;&lt;br&gt;MOSC domain-containing protein&lt;br&gt;Location: 726430 - 725624&lt;br&gt;&lt;br&gt;&lt;b&gt;BlastP hit with ctg2_415&lt;/b&gt;&lt;br&gt;Percentage identity: 97&lt;br&gt;Percentage coverage: 100&lt;br&gt;BLAST bit score: 518&lt;br&gt;E-value: 3.17e-187" locus_tag="BFW91_RS03620" class="clusterblast-orf" id="dummy-2_h2_2_8"  />
</g>
<g id="a2_009"  >
<polygon points="106,85 110,80 110,90 106,85 " style="fill:#3cd815; stroke-width:1; stroke:black; " description="&lt;b&gt;BFW91_RS03615&lt;/b&gt;&lt;br&gt;pyrimidine/purine nucleoside phosphorylase&lt;br&gt;Location: 725559 - 725275&lt;br&gt;&lt;br&gt;&lt;b&gt;BlastP hit with ctg2_416&lt;/b&gt;&lt;br&gt;Percentage identity: 99&lt;br&gt;Percentage coverage: 100&lt;br&gt;BLAST bit score: 191&lt;br&gt;E-value: 2.51e-63" locus_tag="BFW91_RS03615" class="clusterblast-orf" id="dummy-2_h2_2_9"  />
</g>
<g id="a2_0010"  >
<polygon points="111,85 116,80 119,80 119,90 116,90 111,85 " style="fill:#159ed8; stroke-width:1; stroke:black; " description="&lt;b&gt;BFW91_RS03610&lt;/b&gt;&lt;br&gt;3'-5' exoribonuclease&lt;br&gt;Location: 725209 - 724667&lt;br&gt;&lt;br&gt;&lt;b&gt;BlastP hit with ctg2_417&lt;/b&gt;&lt;br&gt;Percentage identity: 99&lt;br&gt;Percentage coverage: 100&lt;br&gt;BLAST bit score: 374&lt;br&gt;E-value: 5.5e-133" locus_tag="BFW91_RS03610" class="clusterblast-orf" id="dummy-2_h2_2_10"  />
</g>
<g id="a2_0011"  >
<polygon points="120,85 125,80 149,80 149,90 125,90 120,85 " style="fill:#b115d8; stroke-width:1; stroke:black; " description="&lt;b&gt;BFW91_RS03605&lt;/b&gt;&lt;br&gt;acetyl/propionyl/methylcrotonyl-CoA carboxylase subunit alpha&lt;br&gt;Location: 724575 - 722653&lt;br&gt;&lt;br&gt;&lt;b&gt;BlastP hit with ctg2_418&lt;/b&gt;&lt;br&gt;Percentage identity: 95&lt;br&gt;Percentage coverage: 100&lt;br&gt;BLAST bit score: 1204&lt;br&gt;E-value: 0.0" locus_tag="BFW91_RS03605" class="clusterblast-orf" id="dummy-2_h2_2_11"  />
</g>
<g id="a2_0012"  >
<polygon points="151,85 156,80 162,80 162,90 156,90 151,85 " style="fill:#d86d15; stroke-width:1; stroke:black; " description="&lt;b&gt;BFW91_RS03600&lt;/b&gt;&lt;br&gt;enoyl-CoA hydratase/isomerase family protein&lt;br&gt;Location: 722543 - 721776&lt;br&gt;&lt;br&gt;&lt;b&gt;BlastP hit with ctg2_419&lt;/b&gt;&lt;br&gt;Percentage identity: 98&lt;br&gt;Percentage coverage: 100&lt;br&gt;BLAST bit score: 487&lt;br&gt;E-value: 2.59e-175" locus_tag="BFW91_RS03600" class="clusterblast-orf" id="dummy-2_h2_2_12"  />
</g>
<g id="a2_0013"  >
<polygon points="162,85 167,80 180,80 180,90 167,90 162,85 " style="fill:#1fd815; stroke-width:1; stroke:black; " description="&lt;b&gt;BFW91_RS03595&lt;/b&gt;&lt;br&gt;acyl-CoA dehydrogenase family protein&lt;br&gt;Location: 721779 - 720622&lt;br&gt;&lt;br&gt;&lt;b&gt;BlastP hit with ctg2_420&lt;/b&gt;&lt;br&gt;Percentage identity: 99&lt;br&gt;Percentage coverage: 100&lt;br&gt;BLAST bit score: 773&lt;br&gt;E-value: 3.47e-284" locus_tag="BFW91_RS03595" class="clusterblast-orf" id="dummy-2_h2_2_13"  />
</g>
<g id="a2_0014"  >
<polygon points="180,85 185,80 204,80 204,90 185,90 180,85 " style="fill:#1580d8; stroke-width:1; stroke:black; " description="&lt;b&gt;BFW91_RS03590&lt;/b&gt;&lt;br&gt;acyl-CoA carboxylase subunit beta&lt;br&gt;Location: 720605 - 718989&lt;br&gt;&lt;br&gt;&lt;b&gt;BlastP hit with ctg2_421&lt;/b&gt;&lt;br&gt;Percentage identity: 98&lt;br&gt;Percentage coverage: 100&lt;br&gt;BLAST bit score: 1045&lt;br&gt;E-value: 0.0" locus_tag="BFW91_RS03590" class="clusterblast-orf" id="dummy-2_h2_2_14"  />
</g>
<g id="a2_0015"  >
<polygon points="204,85 209,80 217,80 217,90 209,90 204,85 " style="fill:#ce15d8; stroke-width:1; stroke:black; " description="&lt;b&gt;BFW91_RS03585&lt;/b&gt;&lt;br&gt;SDR family oxidoreductase&lt;br&gt;Location: 718985 - 718113&lt;br&gt;&lt;br&gt;&lt;b&gt;BlastP hit with ctg2_422&lt;/b&gt;&lt;br&gt;Percentage identity: 98&lt;br&gt;Percentage coverage: 100&lt;br&gt;BLAST bit score: 565&lt;br&gt;E-value: 4.39e-205" locus_tag="BFW91_RS03585" class="clusterblast-orf" id="dummy-2_h2_2_15"  />
</g>
<g id="a2_0016"  >
<polygon points="217,85 222,80 244,80 244,90 222,90 217,85 " style="fill:#d88a15; stroke-width:1; stroke:black; " description="&lt;b&gt;BFW91_RS03580&lt;/b&gt;&lt;br&gt;DUF1446 domain-containing protein&lt;br&gt;Location: 718100 - 716322&lt;br&gt;&lt;br&gt;&lt;b&gt;BlastP hit with ctg2_423&lt;/b&gt;&lt;br&gt;Percentage identity: 97&lt;br&gt;Percentage coverage: 100&lt;br&gt;BLAST bit score: 1164&lt;br&gt;E-value: 0.0" locus_tag="BFW91_RS03580" class="clusterblast-orf" id="dummy-2_h2_2_16"  />
</g>
<g id="a2_0017"  >
<polygon points="246,90 251,90 256,85 251,80 246,80 246,90 " style="fill:#15d829; stroke-width:1; stroke:black; " description="&lt;b&gt;BFW91_RS03575&lt;/b&gt;&lt;br&gt;TetR family transcriptional regulator&lt;br&gt;Location: 716168 - 715545&lt;br&gt;&lt;br&gt;&lt;b&gt;BlastP hit with ctg2_424&lt;/b&gt;&lt;br&gt;Percentage identity: 98&lt;br&gt;Percentage coverage: 100&lt;br&gt;BLAST bit score: 395&lt;br&gt;E-value: 1.25e-140" locus_tag="BFW91_RS03575" class="clusterblast-orf" id="dummy-2_h2_2_17"  />
</g>
<g id="a2_0018"  >
<polygon points="257,90 264,90 269,85 264,80 257,80 257,90 " style="fill:#1563d8; stroke-width:1; stroke:black; " description="&lt;b&gt;BFW91_RS03570&lt;/b&gt;&lt;br&gt;transporter substrate-binding domain-containing protein&lt;br&gt;Location: 715451 - 714663&lt;br&gt;&lt;br&gt;&lt;b&gt;BlastP hit with ctg2_425&lt;/b&gt;&lt;br&gt;Percentage identity: 99&lt;br&gt;Percentage coverage: 100&lt;br&gt;BLAST bit score: 529&lt;br&gt;E-value: 1.07e-191" locus_tag="BFW91_RS03570" class="clusterblast-orf" id="dummy-2_h2_2_18"  />
</g>
<g id="a2_0019"  >
<polygon points="270,85 275,80 278,80 278,90 275,90 270,85 " style="fill:#d815c5; stroke-width:1; stroke:black; " description="&lt;b&gt;BFW91_RS03565&lt;/b&gt;&lt;br&gt;RNA polymerase factor sigma-70&lt;br&gt;Location: 714624 - 714073&lt;br&gt;&lt;br&gt;&lt;b&gt;BlastP hit with ctg2_426&lt;/b&gt;&lt;br&gt;Percentage identity: 98&lt;br&gt;Percentage coverage: 100&lt;br&gt;BLAST bit score: 358&lt;br&gt;E-value: 8.71e-127" locus_tag="BFW91_RS03565" class="clusterblast-orf" id="dummy-2_h2_2_19"  />
</g>
<g id="a2_0020"  >
<polygon points="282,90 289,90 294,85 289,80 282,80 282,90 " style="fill:#d8a715; stroke-width:1; stroke:black; " description="&lt;b&gt;BFW91_RS03560&lt;/b&gt;&lt;br&gt;thioesterase&lt;br&gt;Location: 713774 - 713022&lt;br&gt;&lt;br&gt;&lt;b&gt;BlastP hit with ctg2_427&lt;/b&gt;&lt;br&gt;Percentage identity: 94&lt;br&gt;Percentage coverage: 100&lt;br&gt;BLAST bit score: 473&lt;br&gt;E-value: 5.42e-170" locus_tag="BFW91_RS03560" class="clusterblast-orf" id="dummy-2_h2_2_20"  />
</g>
<g id="a2_0021"  >
<polygon points="294,90 483,90 488,85 483,80 294,80 294,90 " style="fill:#15d846; stroke-width:1; stroke:black; " description="&lt;b&gt;BFW91_RS03555&lt;/b&gt;&lt;br&gt;non-ribosomal peptide synthetase&lt;br&gt;Location: 712971 - 700075&lt;br&gt;&lt;br&gt;&lt;b&gt;BlastP hit with ctg2_428&lt;/b&gt;&lt;br&gt;Percentage identity: 95&lt;br&gt;Percentage coverage: 100&lt;br&gt;BLAST bit score: 8195&lt;br&gt;E-value: 0.0" locus_tag="BFW91_RS03555" class="clusterblast-orf" id="dummy-2_h2_2_21"  />
</g>
<g id="a2_0022"  >
<polygon points="489,85 491,80 491,90 489,85 " style="fill:white; stroke-width:1; stroke:black; " description="&lt;b&gt;BFW91_RS03550&lt;/b&gt;&lt;br&gt;IS5/IS1182 family transposase&lt;br&gt;Location: 699996 - 699817" locus_tag="BFW91_RS03550" class="clusterblast-orf" id="dummy-2_h2_2_22"  />
</g>
<g id="a2_0023"  >
<polygon points="499,90 503,90 508,85 503,80 499,80 499,90 " style="fill:#1546d8; stroke-width:1; stroke:black; " description="&lt;b&gt;BFW91_RS03545&lt;/b&gt;&lt;br&gt;lytic polysaccharide monooxygenase&lt;br&gt;Location: 699321 - 698686&lt;br&gt;&lt;br&gt;&lt;b&gt;BlastP hit with ctg2_429&lt;/b&gt;&lt;br&gt;Percentage identity: 100&lt;br&gt;Percentage coverage: 100&lt;br&gt;BLAST bit score: 444&lt;br&gt;E-value: 1.04e-159" locus_tag="BFW91_RS03545" class="clusterblast-orf" id="dummy-2_h2_2_23"  />
</g>
<g id="a2_0024"  >
<polygon points="509,90 520,90 525,85 520,80 509,80 509,90 " style="fill:#d815a7; stroke-width:1; stroke:black; " description="&lt;b&gt;BFW91_RS03540&lt;/b&gt;&lt;br&gt;chitinase&lt;br&gt;Location: 698645 - 697581&lt;br&gt;&lt;br&gt;&lt;b&gt;BlastP hit with ctg2_430&lt;/b&gt;&lt;br&gt;Percentage identity: 99&lt;br&gt;Percentage coverage: 100&lt;br&gt;BLAST bit score: 724&lt;br&gt;E-value: 1.42e-265" locus_tag="BFW91_RS03540" class="clusterblast-orf" id="dummy-2_h2_2_24"  />
</g>
<g id="a2_0025"  >
<polygon points="528,85 533,80 539,80 539,90 533,90 528,85 " style="fill:#d8c515; stroke-width:1; stroke:black; " description="&lt;b&gt;BFW91_RS03535&lt;/b&gt;&lt;br&gt;thiol:disulfide interchange protein DsbG&lt;br&gt;Location: 697380 - 696619&lt;br&gt;&lt;br&gt;&lt;b&gt;BlastP hit with ctg2_431&lt;/b&gt;&lt;br&gt;Percentage identity: 98&lt;br&gt;Percentage coverage: 100&lt;br&gt;BLAST bit score: 500&lt;br&gt;E-value: 2.07e-180" locus_tag="BFW91_RS03535" class="clusterblast-orf" id="dummy-2_h2_2_25"  />
</g>
<g id="a2_0026"  >
<polygon points="539,85 544,80 552,80 552,90 544,90 539,85 " style="fill:#15d863; stroke-width:1; stroke:black; " description="&lt;b&gt;BFW91_RS03530&lt;/b&gt;&lt;br&gt;TlpA family protein disulfide reductase&lt;br&gt;Location: 696643 - 695792&lt;br&gt;&lt;br&gt;&lt;b&gt;BlastP hit with ctg2_432&lt;/b&gt;&lt;br&gt;Percentage identity: 99&lt;br&gt;Percentage coverage: 100&lt;br&gt;BLAST bit score: 556&lt;br&gt;E-value: 8.18e-202" locus_tag="BFW91_RS03530" class="clusterblast-orf" id="dummy-2_h2_2_26"  />
</g>
<g id="a2_0027"  >
<polygon points="552,85 557,80 578,80 578,90 557,90 552,85 " style="fill:#1529d8; stroke-width:1; stroke:black; " description="&lt;b&gt;BFW91_RS03525&lt;/b&gt;&lt;br&gt;protein-disulfide reductase DsbD&lt;br&gt;Location: 695792 - 694053&lt;br&gt;&lt;br&gt;&lt;b&gt;BlastP hit with ctg2_433&lt;/b&gt;&lt;br&gt;Percentage identity: 96&lt;br&gt;Percentage coverage: 100&lt;br&gt;BLAST bit score: 1076&lt;br&gt;E-value: 0.0" locus_tag="BFW91_RS03525" class="clusterblast-orf" id="dummy-2_h2_2_27"  />
</g>
<g id="a2_0028"  >
<polygon points="581,90 586,90 591,85 586,80 581,80 581,90 " style="fill:#d8158a; stroke-width:1; stroke:black; " description="&lt;b&gt;BFW91_RS03520&lt;/b&gt;&lt;br&gt;response regulator transcription factor&lt;br&gt;Location: 693876 - 693181&lt;br&gt;&lt;br&gt;&lt;b&gt;BlastP hit with ctg2_434&lt;/b&gt;&lt;br&gt;Percentage identity: 99&lt;br&gt;Percentage coverage: 100&lt;br&gt;BLAST bit score: 439&lt;br&gt;E-value: 4.65e-157" locus_tag="BFW91_RS03520" class="clusterblast-orf" id="dummy-2_h2_2_28"  />
</g>
<g id="a2_0029"  >
<polygon points="591,90 606,90 611,85 606,80 591,80 591,90 " style="fill:#ced815; stroke-width:1; stroke:black; " description="&lt;b&gt;BFW91_RS03515&lt;/b&gt;&lt;br&gt;two-component sensor histidine kinase&lt;br&gt;Location: 693181 - 691862&lt;br&gt;&lt;br&gt;&lt;b&gt;BlastP hit with ctg2_435&lt;/b&gt;&lt;br&gt;Percentage identity: 98&lt;br&gt;Percentage coverage: 100&lt;br&gt;BLAST bit score: 825&lt;br&gt;E-value: 1.32e-302" locus_tag="BFW91_RS03515" class="clusterblast-orf" id="dummy-2_h2_2_29"  />
</g>
<g id="a2_0030"  >
<polygon points="613,90 619,90 624,85 619,80 613,80 613,90 " style="fill:#15d880; stroke-width:1; stroke:black; " description="&lt;b&gt;BFW91_RS03510&lt;/b&gt;&lt;br&gt;N-acetylmuramoyl-L-alanine amidase&lt;br&gt;Location: 691735 - 690968&lt;br&gt;&lt;br&gt;&lt;b&gt;BlastP hit with ctg2_436&lt;/b&gt;&lt;br&gt;Percentage identity: 91&lt;br&gt;Percentage coverage: 100&lt;br&gt;BLAST bit score: 488&lt;br&gt;E-value: 1.82e-175" locus_tag="BFW91_RS03510" class="clusterblast-orf" id="dummy-2_h2_2_30"  />
</g>
<g id="a2_0031"  >
<polygon points="627,90 643,90 648,85 643,80 627,80 627,90 " style="fill:#1f15d8; stroke-width:1; stroke:black; " description="&lt;b&gt;BFW91_RS03505&lt;/b&gt;&lt;br&gt;aspartate aminotransferase family protein&lt;br&gt;Location: 690772 - 689360&lt;br&gt;&lt;br&gt;&lt;b&gt;BlastP hit with ctg2_437&lt;/b&gt;&lt;br&gt;Percentage identity: 99&lt;br&gt;Percentage coverage: 100&lt;br&gt;BLAST bit score: 916&lt;br&gt;E-value: 0.0" locus_tag="BFW91_RS03505" class="clusterblast-orf" id="dummy-2_h2_2_31"  />
</g>
<g id="a2_0032"  >
<polygon points="649,90 653,85 649,80 649,90 " style="fill:#d8156d; stroke-width:1; stroke:black; " description="&lt;b&gt;BFW91_RS03500&lt;/b&gt;&lt;br&gt;MbtH family protein&lt;br&gt;Location: 689276 - 689052&lt;br&gt;&lt;br&gt;&lt;b&gt;BlastP hit with ctg2_438&lt;/b&gt;&lt;br&gt;Percentage identity: 97&lt;br&gt;Percentage coverage: 99&lt;br&gt;BLAST bit score: 151&lt;br&gt;E-value: 3.13e-48" locus_tag="BFW91_RS03500" class="clusterblast-orf" id="dummy-2_h2_2_32"  />
</g>
<g id="a2_0033"  >
<polygon points="655,85 660,80 675,80 675,90 660,90 655,85 " style="fill:#b1d815; stroke-width:1; stroke:black; " description="&lt;b&gt;BFW91_RS03495&lt;/b&gt;&lt;br&gt;amidohydrolase&lt;br&gt;Location: 688933 - 687587&lt;br&gt;&lt;br&gt;&lt;b&gt;BlastP hit with ctg2_439&lt;/b&gt;&lt;br&gt;Percentage identity: 99&lt;br&gt;Percentage coverage: 100&lt;br&gt;BLAST bit score: 863&lt;br&gt;E-value: 1.44e-317" locus_tag="BFW91_RS03495" class="clusterblast-orf" id="dummy-2_h2_2_33"  />
</g>
<g id="a2_0034"  >
<polygon points="675,85 680,80 707,80 707,90 680,90 675,85 " style="fill:#15d89e; stroke-width:1; stroke:black; " description="&lt;b&gt;BFW91_RS03490&lt;/b&gt;&lt;br&gt;mechanosensitive ion channel family protein&lt;br&gt;Location: 687569 - 685404&lt;br&gt;&lt;br&gt;&lt;b&gt;BlastP hit with ctg2_440&lt;/b&gt;&lt;br&gt;Percentage identity: 99&lt;br&gt;Percentage coverage: 100&lt;br&gt;BLAST bit score: 1362&lt;br&gt;E-value: 0.0" locus_tag="BFW91_RS03490" class="clusterblast-orf" id="dummy-2_h2_2_34"  />
</g>
<g id="a2_0035"  >
<polygon points="709,85 711,80 711,90 709,85 " style="fill:#3c15d8; stroke-width:1; stroke:black; " description="&lt;b&gt;BFW91_RS30165&lt;/b&gt;&lt;br&gt;hypothetical protein&lt;br&gt;Location: 685331 - 685164&lt;br&gt;&lt;br&gt;&lt;b&gt;BlastP hit with ctg2_441&lt;/b&gt;&lt;br&gt;Percentage identity: 100&lt;br&gt;Percentage coverage: 95&lt;br&gt;BLAST bit score: 104&lt;br&gt;E-value: 5.72e-30" locus_tag="BFW91_RS30165" class="clusterblast-orf" id="dummy-2_h2_2_35"  />
</g>
<g id="a2_0036"  >
<polygon points="715,85 720,80 734,80 734,90 720,90 715,85 " style="fill:#d81550; stroke-width:1; stroke:black; " description="&lt;b&gt;BFW91_RS03485&lt;/b&gt;&lt;br&gt;M18 family aminopeptidase&lt;br&gt;Location: 684935 - 683646&lt;br&gt;&lt;br&gt;&lt;b&gt;BlastP hit with ctg2_442&lt;/b&gt;&lt;br&gt;Percentage identity: 100&lt;br&gt;Percentage coverage: 100&lt;br&gt;BLAST bit score: 870&lt;br&gt;E-value: 0.0" locus_tag="BFW91_RS03485" class="clusterblast-orf" id="dummy-2_h2_2_36"  />
</g>
<g id="a2_0037"  >
<polygon points="736,85 741,80 746,80 746,90 741,90 736,85 " style="fill:#94d815; stroke-width:1; stroke:black; " description="&lt;b&gt;BFW91_RS03480&lt;/b&gt;&lt;br&gt;RluA family pseudouridine synthase&lt;br&gt;Location: 683474 - 682839&lt;br&gt;&lt;br&gt;&lt;b&gt;BlastP hit with ctg2_443&lt;/b&gt;&lt;br&gt;Percentage identity: 100&lt;br&gt;Percentage coverage: 100&lt;br&gt;BLAST bit score: 449&lt;br&gt;E-value: 1.54e-161" locus_tag="BFW91_RS03480" class="clusterblast-orf" id="dummy-2_h2_2_37"  />
</g>
<g id="a2_0038"  >
<polygon points="747,85 751,80 751,90 747,85 " style="fill:#15d8bb; stroke-width:1; stroke:black; " description="&lt;b&gt;BFW91_RS03475&lt;/b&gt;&lt;br&gt;cell division topological specificity factor MinE&lt;br&gt;Location: 682742 - 682488&lt;br&gt;&lt;br&gt;&lt;b&gt;BlastP hit with ctg2_444&lt;/b&gt;&lt;br&gt;Percentage identity: 100&lt;br&gt;Percentage coverage: 100&lt;br&gt;BLAST bit score: 169&lt;br&gt;E-value: 6.09e-55" locus_tag="BFW91_RS03475" class="clusterblast-orf" id="dummy-2_h2_2_38"  />
</g>
<g id="a2_0039"  >
<polygon points="751,85 756,80 763,80 763,90 756,90 751,85 " style="fill:#5915d8; stroke-width:1; stroke:black; " description="&lt;b&gt;BFW91_RS03470&lt;/b&gt;&lt;br&gt;septum site-determining protein MinD&lt;br&gt;Location: 682484 - 681672&lt;br&gt;&lt;br&gt;&lt;b&gt;BlastP hit with ctg2_445&lt;/b&gt;&lt;br&gt;Percentage identity: 99&lt;br&gt;Percentage coverage: 100&lt;br&gt;BLAST bit score: 516&lt;br&gt;E-value: 3.04e-186" locus_tag="BFW91_RS03470" class="clusterblast-orf" id="dummy-2_h2_2_39"  />
</g>
<g id="a2_0040"  >
<polygon points="766,85 771,80 777,80 777,90 771,90 766,85 " style="fill:#d81532; stroke-width:1; stroke:black; " description="&lt;b&gt;BFW91_RS03465&lt;/b&gt;&lt;br&gt;septum site-determining protein MinC&lt;br&gt;Location: 681471 - 680734&lt;br&gt;&lt;br&gt;&lt;b&gt;BlastP hit with ctg2_446&lt;/b&gt;&lt;br&gt;Percentage identity: 100&lt;br&gt;Percentage coverage: 100&lt;br&gt;BLAST bit score: 474&lt;br&gt;E-value: 2.6e-170" locus_tag="BFW91_RS03465" class="clusterblast-orf" id="dummy-2_h2_2_40"  />
</g>
</svg>
