<svg xmlns="http://www.w3.org/2000/svg" xmlns:xlink="http://www.w3.org/1999/xlink" version="1.1" x="0" y="0" height="230" width="800" viewBox="0 0 800 230" preserveAspectRatio="none"  >
<g label="Query sequence" class="clusterblast-cluster"  >
<text x="5" y="20" class="clusterblast-acc"  >
Query sequence</text>
<line x1="10" y1="35" x2="778.0" y2="35" style="stroke-width:1; stroke:grey; "  />
<polygon points="0,35 5,30 52,30 52,40 5,40 0,35 " style="fill:white; stroke-width:1; stroke:black; " description="&lt;b&gt;ctg8_37&lt;/b&gt;&lt;br&gt;ctg8 37&lt;br&gt;Location: 43779 - 45477" locus_tag="ctg8_37" class="clusterblast-orf" id="dummy-1_q0_0_all"  />
<polygon points="55,35 60,30 75,30 75,40 60,40 55,35 " style="fill:white; stroke-width:1; stroke:black; " description="&lt;b&gt;ctg8_38&lt;/b&gt;&lt;br&gt;ctg8 38&lt;br&gt;Location: 45571 - 46222" locus_tag="ctg8_38" class="clusterblast-orf" id="dummy-1_q1_0_all"  />
<polygon points="80,40 100,40 105,35 100,30 80,30 80,40 " style="fill:white; stroke-width:1; stroke:black; " description="&lt;b&gt;ctg8_39&lt;/b&gt;&lt;br&gt;ctg8 39&lt;br&gt;Location: 46390 - 47203" locus_tag="ctg8_39" class="clusterblast-orf" id="dummy-1_q2_0_all"  />
<polygon points="109,40 145,40 150,35 145,30 109,30 109,40 " style="fill:white; stroke-width:1; stroke:black; " description="&lt;b&gt;ctg8_40&lt;/b&gt;&lt;br&gt;ctg8 40&lt;br&gt;Location: 47330 - 48659" locus_tag="ctg8_40" class="clusterblast-orf" id="dummy-1_q3_0_all"  />
<polygon points="154,35 159,30 192,30 192,40 159,40 154,35 " style="fill:white; stroke-width:1; stroke:black; " description="&lt;b&gt;ctg8_41&lt;/b&gt;&lt;br&gt;ctg8 41&lt;br&gt;Location: 48788 - 50018" locus_tag="ctg8_41" class="clusterblast-orf" id="dummy-1_q4_0_all"  />
<polygon points="197,40 221,40 226,35 221,30 197,30 197,40 " style="fill:white; stroke-width:1; stroke:black; " description="&lt;b&gt;ctg8_42&lt;/b&gt;&lt;br&gt;ctg8 42&lt;br&gt;Location: 50184 - 51120" locus_tag="ctg8_42" class="clusterblast-orf" id="dummy-1_q5_0_all"  />
<polygon points="229,40 236,40 241,35 236,30 229,30 229,40 " style="fill:white; stroke-width:1; stroke:black; " description="&lt;b&gt;ctg8_43&lt;/b&gt;&lt;br&gt;ctg8 43&lt;br&gt;Location: 51219 - 51612" locus_tag="ctg8_43" class="clusterblast-orf" id="dummy-1_q6_0_all"  />
<polygon points="242,40 264,40 269,35 264,30 242,30 242,40 " style="fill:white; stroke-width:1; stroke:black; " description="&lt;b&gt;ctg8_44&lt;/b&gt;&lt;br&gt;ctg8 44&lt;br&gt;Location: 51629 - 52529" locus_tag="ctg8_44" class="clusterblast-orf" id="dummy-1_q7_0_all"  />
<polygon points="286,35 291,30 451,30 451,40 291,40 286,35 " style="fill:white; stroke-width:1; stroke:black; " description="&lt;b&gt;ctg8_45&lt;/b&gt;&lt;br&gt;ctg8 45&lt;br&gt;Location: 53077 - 58414" locus_tag="ctg8_45" class="clusterblast-orf" id="dummy-1_q8_0_all"  />
<polygon points="453,35 458,30 503,30 503,40 458,40 453,35 " style="fill:#d81515; stroke-width:1; stroke:black; " description="&lt;b&gt;ctg8_46&lt;/b&gt;&lt;br&gt;ctg8 46&lt;br&gt;Location: 58481 - 60110" locus_tag="ctg8_46" class="clusterblast-orf" id="dummy-1_q9_0_all"  />
<polygon points="508,40 539,40 544,35 539,30 508,30 508,40 " style="fill:white; stroke-width:1; stroke:black; " description="&lt;b&gt;ctg8_47&lt;/b&gt;&lt;br&gt;ctg8 47&lt;br&gt;Location: 60275 - 61439" locus_tag="ctg8_47" class="clusterblast-orf" id="dummy-1_q10_0_all"  />
<polygon points="544,40 589,40 594,35 589,30 544,30 544,40 " style="fill:#15d815; stroke-width:1; stroke:black; " description="&lt;b&gt;ctg8_48&lt;/b&gt;&lt;br&gt;ctg8 48&lt;br&gt;Location: 61451 - 63059" locus_tag="ctg8_48" class="clusterblast-orf" id="dummy-1_q11_0_all"  />
<polygon points="594,40 614,40 619,35 614,30 594,30 594,40 " style="fill:white; stroke-width:1; stroke:black; " description="&lt;b&gt;ctg8_49&lt;/b&gt;&lt;br&gt;ctg8 49&lt;br&gt;Location: 63073 - 63880" locus_tag="ctg8_49" class="clusterblast-orf" id="dummy-1_q12_0_all"  />
<polygon points="619,40 674,40 679,35 674,30 619,30 619,40 " style="fill:#1515d8; stroke-width:1; stroke:black; " description="&lt;b&gt;ctg8_50&lt;/b&gt;&lt;br&gt;ctg8 50&lt;br&gt;Location: 63876 - 65802" locus_tag="ctg8_50" class="clusterblast-orf" id="dummy-1_q13_0_all"  />
<polygon points="678,35 683,30 698,30 698,40 683,40 678,35 " style="fill:white; stroke-width:1; stroke:black; " description="&lt;b&gt;ctg8_51&lt;/b&gt;&lt;br&gt;ctg8 51&lt;br&gt;Location: 65798 - 66434" locus_tag="ctg8_51" class="clusterblast-orf" id="dummy-1_q14_0_all"  />
<polygon points="702,40 708,40 713,35 708,30 702,30 702,40 " style="fill:white; stroke-width:1; stroke:black; " description="&lt;b&gt;ctg8_52&lt;/b&gt;&lt;br&gt;ctg8 52&lt;br&gt;Location: 66564 - 66915" locus_tag="ctg8_52" class="clusterblast-orf" id="dummy-1_q15_0_all"  />
<polygon points="727,40 758,40 763,35 758,30 727,30 727,40 " style="fill:white; stroke-width:1; stroke:black; " description="&lt;b&gt;ctg8_53&lt;/b&gt;&lt;br&gt;ctg8 53&lt;br&gt;Location: 67380 - 68532" locus_tag="ctg8_53" class="clusterblast-orf" id="dummy-1_q16_0_all"  />
<polygon points="763,35 768,30 780,30 780,40 768,40 763,35 " style="fill:white; stroke-width:1; stroke:black; " description="&lt;b&gt;ctg8_54&lt;/b&gt;&lt;br&gt;ctg8 54&lt;br&gt;Location: 68549 - 69089" locus_tag="ctg8_54" class="clusterblast-orf" id="dummy-1_q17_0_all"  />
</g>
<g label="BGC0002284" description="BGC0002284_c1: corynecin III/corynecin I/corynecin II (13% of genes show similarity), Other" class="clusterblast-cluster"  >
<text x="5" y="70" class="clusterblast-acc"  >
<a xlink:href="https://mibig.secondarymetabolites.org/go/BGC0002284/1" target="_blank">BGC0002284</a>: corynecin III/corynecin I/corynecin II                                           (13% of genes show similarity), Other</text>
<line x1="10" y1="85" x2="778.0" y2="85" style="stroke-width:1; stroke:grey; "  />
</g>
<g id="a1_000"  >
<polygon points="114,85 119,80 158,80 158,90 119,90 114,85 " style="fill:white; stroke-width:1; stroke:black; " description="&lt;b&gt;CPI83_20065&lt;/b&gt;&lt;br&gt;hypothetical protein&lt;br&gt;Location: 17900 - 16452" locus_tag="CPI83_20065" class="clusterblast-orf" id="dummy-1_h1_4_0"  />
</g>
<g id="a1_001"  >
<polygon points="165,90 229,90 234,85 229,80 165,80 165,90 " style="fill:white; stroke-width:1; stroke:black; " description="&lt;b&gt;CPI83_20060&lt;/b&gt;&lt;br&gt;MMPL family transporter&lt;br&gt;Location: 16227 - 13981" locus_tag="CPI83_20060" class="clusterblast-orf" id="dummy-1_h1_4_1"  />
</g>
<g id="a1_002"  >
<polygon points="240,90 279,90 284,85 279,80 240,80 240,90 " style="fill:white; stroke-width:1; stroke:black; " description="&lt;b&gt;CPI83_20055&lt;/b&gt;&lt;br&gt;hypothetical protein&lt;br&gt;Location: 13797 - 12358" locus_tag="CPI83_20055" class="clusterblast-orf" id="dummy-1_h1_4_2"  />
</g>
<g id="a1_003"  >
<polygon points="284,90 321,90 326,85 321,80 284,80 284,90 " style="fill:white; stroke-width:1; stroke:black; " description="&lt;b&gt;CPI83_20050&lt;/b&gt;&lt;br&gt;hypothetical protein&lt;br&gt;Location: 12361 - 10997" locus_tag="CPI83_20050" class="clusterblast-orf" id="dummy-1_h1_4_3"  />
</g>
<g id="a1_004"  >
<polygon points="326,85 331,80 369,80 369,90 331,90 326,85 " style="fill:white; stroke-width:1; stroke:black; " description="&lt;b&gt;CPI83_20045&lt;/b&gt;&lt;br&gt;C4-dicarboxylate transporter DctA&lt;br&gt;Location: 11019 - 9613" locus_tag="CPI83_20045" class="clusterblast-orf" id="dummy-1_h1_4_4"  />
</g>
<g id="a1_005"  >
<polygon points="375,90 378,90 383,85 378,80 375,80 375,90 " style="fill:white; stroke-width:1; stroke:black; " description="&lt;b&gt;CPI83_20040&lt;/b&gt;&lt;br&gt;GlsB/YeaQ/YmgE family stress response membrane protein&lt;br&gt;Location: 9424 - 9164" locus_tag="CPI83_20040" class="clusterblast-orf" id="dummy-1_h1_4_5"  />
</g>
<g id="a1_006"  >
<polygon points="388,85 393,80 411,80 411,90 393,90 388,85 " style="fill:white; stroke-width:1; stroke:black; " description="&lt;b&gt;CPI83_20035&lt;/b&gt;&lt;br&gt;GTP pyrophosphokinase&lt;br&gt;Location: 9006 - 8260" locus_tag="CPI83_20035" class="clusterblast-orf" id="dummy-1_h1_4_6"  />
</g>
<g id="a1_007"  >
<polygon points="412,85 417,80 431,80 431,90 417,90 412,85 " style="fill:white; stroke-width:1; stroke:black; " description="&lt;b&gt;CPI83_20030&lt;/b&gt;&lt;br&gt;TetR/AcrR family transcriptional regulator&lt;br&gt;Location: 8211 - 7612" locus_tag="CPI83_20030" class="clusterblast-orf" id="dummy-1_h1_4_7"  />
</g>
<g id="a1_008"  >
<polygon points="434,90 478,90 483,85 478,80 434,80 434,90 " style="fill:#15d815; stroke-width:1; stroke:black; " description="&lt;b&gt;CPI83_20025&lt;/b&gt;&lt;br&gt;methylcrotonoyl-CoA carboxylase&lt;br&gt;Location: 7513 - 5924&lt;br&gt;&lt;br&gt;&lt;b&gt;BlastP hit with ctg8_48&lt;/b&gt;&lt;br&gt;Percentage identity: 68&lt;br&gt;Percentage coverage: 95&lt;br&gt;BLAST bit score: 713&lt;br&gt;E-value: 2.98e-257" locus_tag="CPI83_20025" class="clusterblast-orf" id="dummy-1_h1_4_8"  />
</g>
<g id="a1_009"  >
<polygon points="483,90 541,90 546,85 541,80 483,80 483,90 " style="fill:#1515d8; stroke-width:1; stroke:black; " description="&lt;b&gt;CPI83_20020&lt;/b&gt;&lt;br&gt;acetyl/propionyl/methylcrotonyl-CoA carboxylase subunit alpha&lt;br&gt;Location: 5918 - 3879&lt;br&gt;&lt;br&gt;&lt;b&gt;BlastP hit with ctg8_50&lt;/b&gt;&lt;br&gt;Percentage identity: 47&lt;br&gt;Percentage coverage: 98&lt;br&gt;BLAST bit score: 500&lt;br&gt;E-value: 1.16e-169" locus_tag="CPI83_20020" class="clusterblast-orf" id="dummy-1_h1_4_9"  />
</g>
<g id="a1_0010"  >
<polygon points="546,90 577,90 582,85 577,80 546,80 546,90 " style="fill:white; stroke-width:1; stroke:black; " description="&lt;b&gt;CPI83_20015&lt;/b&gt;&lt;br&gt;acyl-CoA dehydrogenase&lt;br&gt;Location: 3879 - 2716" locus_tag="CPI83_20015" class="clusterblast-orf" id="dummy-1_h1_4_10"  />
</g>
<g id="a1_0011"  >
<polygon points="582,90 592,90 597,85 592,80 582,80 582,90 " style="fill:white; stroke-width:1; stroke:black; " description="&lt;b&gt;CPI83_20010&lt;/b&gt;&lt;br&gt;dehydratase&lt;br&gt;Location: 2719 - 2231" locus_tag="CPI83_20010" class="clusterblast-orf" id="dummy-1_h1_4_11"  />
</g>
<g id="a1_0012"  >
<polygon points="596,90 617,90 622,85 617,80 596,80 596,90 " style="fill:white; stroke-width:1; stroke:black; " description="&lt;b&gt;CPI83_20005&lt;/b&gt;&lt;br&gt;CoA ester lyase&lt;br&gt;Location: 2234 - 1407" locus_tag="CPI83_20005" class="clusterblast-orf" id="dummy-1_h1_4_12"  />
</g>
<g id="a1_0013"  >
<polygon points="622,90 640,90 645,85 640,80 622,80 622,90 " style="fill:white; stroke-width:1; stroke:black; " description="&lt;b&gt;CPI83_20000&lt;/b&gt;&lt;br&gt;CoA transferase subunit A&lt;br&gt;Location: 1403 - 648" locus_tag="CPI83_20000" class="clusterblast-orf" id="dummy-1_h1_4_13"  />
</g>
<g id="a1_0014"  >
<polygon points="646,90 660,90 665,85 660,80 646,80 646,90 " style="fill:white; stroke-width:1; stroke:black; " description="&lt;b&gt;CPI83_19995&lt;/b&gt;&lt;br&gt;succinyl-CoA--3-ketoacid-CoA transferase&lt;br&gt;Location: 627 - 1" locus_tag="CPI83_19995" class="clusterblast-orf" id="dummy-1_h1_4_14"  />
</g>
</svg>
