<svg xmlns="http://www.w3.org/2000/svg" xmlns:xlink="http://www.w3.org/1999/xlink" version="1.1" x="0" y="0" height="230" width="800" viewBox="0 0 800 230" preserveAspectRatio="none"  >
<g label="Query sequence" class="clusterblast-cluster"  >
<text x="5" y="20" class="clusterblast-acc"  >
Query sequence</text>
<line x1="10" y1="35" x2="778.0" y2="35" style="stroke-width:1; stroke:grey; "  />
<polygon points="0,40 8,40 13,35 8,30 0,30 0,40 " style="fill:white; stroke-width:1; stroke:black; " description="&lt;b&gt;ctg5_75&lt;/b&gt;&lt;br&gt;ctg5 75&lt;br&gt;Location: 87087 - 87744" locus_tag="ctg5_75" class="clusterblast-orf" id="dummy-1_q0_0_all"  />
<polygon points="13,40 19,40 24,35 19,30 13,30 13,40 " style="fill:white; stroke-width:1; stroke:black; " description="&lt;b&gt;ctg5_76&lt;/b&gt;&lt;br&gt;ctg5 76&lt;br&gt;Location: 87740 - 88292" locus_tag="ctg5_76" class="clusterblast-orf" id="dummy-1_q1_0_all"  />
<polygon points="23,40 38,40 43,35 38,30 23,30 23,40 " style="fill:white; stroke-width:1; stroke:black; " description="&lt;b&gt;ctg5_77&lt;/b&gt;&lt;br&gt;ctg5 77&lt;br&gt;Location: 88288 - 89260" locus_tag="ctg5_77" class="clusterblast-orf" id="dummy-1_q2_0_all"  />
<polygon points="43,40 65,40 70,35 65,30 43,30 43,40 " style="fill:white; stroke-width:1; stroke:black; " description="&lt;b&gt;ctg5_78&lt;/b&gt;&lt;br&gt;ctg5 78&lt;br&gt;Location: 89272 - 90658" locus_tag="ctg5_78" class="clusterblast-orf" id="dummy-1_q3_0_all"  />
<polygon points="71,40 76,40 81,35 76,30 71,30 71,40 " style="fill:white; stroke-width:1; stroke:black; " description="&lt;b&gt;ctg5_79&lt;/b&gt;&lt;br&gt;ctg5 79&lt;br&gt;Location: 90689 - 91181" locus_tag="ctg5_79" class="clusterblast-orf" id="dummy-1_q4_0_all"  />
<polygon points="83,40 100,40 105,35 100,30 83,30 83,40 " style="fill:white; stroke-width:1; stroke:black; " description="&lt;b&gt;ctg5_80&lt;/b&gt;&lt;br&gt;ctg5 80&lt;br&gt;Location: 91305 - 92406" locus_tag="ctg5_80" class="clusterblast-orf" id="dummy-1_q5_0_all"  />
<polygon points="105,40 131,40 136,35 131,30 105,30 105,40 " style="fill:white; stroke-width:1; stroke:black; " description="&lt;b&gt;ctg5_81&lt;/b&gt;&lt;br&gt;ctg5 81&lt;br&gt;Location: 92416 - 93985" locus_tag="ctg5_81" class="clusterblast-orf" id="dummy-1_q6_0_all"  />
<polygon points="143,40 226,40 231,35 226,30 143,30 143,40 " style="fill:white; stroke-width:1; stroke:black; " description="&lt;b&gt;ctg5_82&lt;/b&gt;&lt;br&gt;ctg5 82&lt;br&gt;Location: 94337 - 98783" locus_tag="ctg5_82" class="clusterblast-orf" id="dummy-1_q7_0_all"  />
<polygon points="234,40 257,40 262,35 257,30 234,30 234,40 " style="fill:white; stroke-width:1; stroke:black; " description="&lt;b&gt;ctg5_83&lt;/b&gt;&lt;br&gt;ctg5 83&lt;br&gt;Location: 98907 - 100326" locus_tag="ctg5_83" class="clusterblast-orf" id="dummy-1_q8_0_all"  />
<polygon points="267,40 283,40 288,35 283,30 267,30 267,40 " style="fill:white; stroke-width:1; stroke:black; " description="&lt;b&gt;ctg5_84&lt;/b&gt;&lt;br&gt;ctg5 84&lt;br&gt;Location: 100579 - 101647" locus_tag="ctg5_84" class="clusterblast-orf" id="dummy-1_q9_0_all"  />
<polygon points="290,35 295,30 315,30 315,40 295,40 290,35 " style="fill:white; stroke-width:1; stroke:black; " description="&lt;b&gt;ctg5_85&lt;/b&gt;&lt;br&gt;ctg5 85&lt;br&gt;Location: 101763 - 103038" locus_tag="ctg5_85" class="clusterblast-orf" id="dummy-1_q10_0_all"  />
<polygon points="318,40 331,40 336,35 331,30 318,30 318,40 " style="fill:white; stroke-width:1; stroke:black; " description="&lt;b&gt;ctg5_86&lt;/b&gt;&lt;br&gt;ctg5 86&lt;br&gt;Location: 103162 - 104056" locus_tag="ctg5_86" class="clusterblast-orf" id="dummy-1_q11_0_all"  />
<polygon points="342,35 347,30 350,30 350,40 347,40 342,35 " style="fill:white; stroke-width:1; stroke:black; " description="&lt;b&gt;ctg5_87&lt;/b&gt;&lt;br&gt;ctg5 87&lt;br&gt;Location: 104355 - 104805" locus_tag="ctg5_87" class="clusterblast-orf" id="dummy-1_q12_0_all"  />
<polygon points="351,35 356,30 375,30 375,40 356,40 351,35 " style="fill:#d81515; stroke-width:1; stroke:black; " description="&lt;b&gt;ctg5_88&lt;/b&gt;&lt;br&gt;ctg5 88&lt;br&gt;Location: 104832 - 106059" locus_tag="ctg5_88" class="clusterblast-orf" id="dummy-1_q13_0_all"  />
<polygon points="375,35 380,30 390,30 390,40 380,40 375,35 " style="fill:#3cd815; stroke-width:1; stroke:black; " description="&lt;b&gt;ctg5_89&lt;/b&gt;&lt;br&gt;ctg5 89&lt;br&gt;Location: 106058 - 106787" locus_tag="ctg5_89" class="clusterblast-orf" id="dummy-1_q14_0_all"  />
<polygon points="390,35 395,30 399,30 399,40 395,40 390,35 " style="fill:white; stroke-width:1; stroke:black; " description="&lt;b&gt;ctg5_90&lt;/b&gt;&lt;br&gt;ctg5 90&lt;br&gt;Location: 106783 - 107245" locus_tag="ctg5_90" class="clusterblast-orf" id="dummy-1_q15_0_all"  />
<polygon points="399,35 404,30 422,30 422,40 404,40 399,35 " style="fill:#1563d8; stroke-width:1; stroke:black; " description="&lt;b&gt;ctg5_91&lt;/b&gt;&lt;br&gt;ctg5 91&lt;br&gt;Location: 107241 - 108408" locus_tag="ctg5_91" class="clusterblast-orf" id="dummy-1_q16_0_all"  />
<polygon points="422,35 427,30 431,30 431,40 427,40 422,35 " style="fill:white; stroke-width:1; stroke:black; " description="&lt;b&gt;ctg5_92&lt;/b&gt;&lt;br&gt;ctg5 92&lt;br&gt;Location: 108404 - 108887" locus_tag="ctg5_92" class="clusterblast-orf" id="dummy-1_q17_0_all"  />
<polygon points="431,35 436,30 446,30 446,40 436,40 431,35 " style="fill:white; stroke-width:1; stroke:black; " description="&lt;b&gt;ctg5_93&lt;/b&gt;&lt;br&gt;ctg5 93&lt;br&gt;Location: 108883 - 109618" locus_tag="ctg5_93" class="clusterblast-orf" id="dummy-1_q18_0_all"  />
<polygon points="446,35 451,30 470,30 470,40 451,40 446,35 " style="fill:#b115d8; stroke-width:1; stroke:black; " description="&lt;b&gt;ctg5_94&lt;/b&gt;&lt;br&gt;ctg5 94&lt;br&gt;Location: 109614 - 110862" locus_tag="ctg5_94" class="clusterblast-orf" id="dummy-1_q19_0_all"  />
<polygon points="471,35 476,30 517,30 517,40 476,40 471,35 " style="fill:white; stroke-width:1; stroke:black; " description="&lt;b&gt;ctg5_95&lt;/b&gt;&lt;br&gt;ctg5 95&lt;br&gt;Location: 110895 - 113208" locus_tag="ctg5_95" class="clusterblast-orf" id="dummy-1_q20_0_all"  />
<polygon points="517,35 522,30 530,30 530,40 522,40 517,35 " style="fill:white; stroke-width:1; stroke:black; " description="&lt;b&gt;ctg5_96&lt;/b&gt;&lt;br&gt;ctg5 96&lt;br&gt;Location: 113197 - 113857" locus_tag="ctg5_96" class="clusterblast-orf" id="dummy-1_q21_0_all"  />
<polygon points="530,35 535,30 539,30 539,40 535,40 530,35 " style="fill:#d88a15; stroke-width:1; stroke:black; " description="&lt;b&gt;ctg5_97&lt;/b&gt;&lt;br&gt;ctg5 97&lt;br&gt;Location: 113877 - 114303" locus_tag="ctg5_97" class="clusterblast-orf" id="dummy-1_q22_0_all"  />
<polygon points="538,35 543,30 569,30 569,40 543,40 538,35 " style="fill:#15d863; stroke-width:1; stroke:black; " description="&lt;b&gt;ctg5_98&lt;/b&gt;&lt;br&gt;ctg5 98&lt;br&gt;Location: 114295 - 115837" locus_tag="ctg5_98" class="clusterblast-orf" id="dummy-1_q23_0_all"  />
<polygon points="569,35 574,30 587,30 587,40 574,40 569,35 " style="fill:white; stroke-width:1; stroke:black; " description="&lt;b&gt;ctg5_99&lt;/b&gt;&lt;br&gt;ctg5 99&lt;br&gt;Location: 115820 - 116756" locus_tag="ctg5_99" class="clusterblast-orf" id="dummy-1_q24_0_all"  />
<polygon points="587,35 592,30 602,30 602,40 592,40 587,35 " style="fill:#3c15d8; stroke-width:1; stroke:black; " description="&lt;b&gt;ctg5_100&lt;/b&gt;&lt;br&gt;ctg5 100&lt;br&gt;Location: 116752 - 117487" locus_tag="ctg5_100" class="clusterblast-orf" id="dummy-1_q25_0_all"  />
<polygon points="601,35 606,30 634,30 634,40 606,40 601,35 " style="fill:white; stroke-width:1; stroke:black; " description="&lt;b&gt;ctg5_101&lt;/b&gt;&lt;br&gt;ctg5 101&lt;br&gt;Location: 117479 - 119150" locus_tag="ctg5_101" class="clusterblast-orf" id="dummy-1_q26_0_all"  />
<polygon points="634,35 639,30 645,30 645,40 639,40 634,35 " style="fill:#d8158a; stroke-width:1; stroke:black; " description="&lt;b&gt;ctg5_102&lt;/b&gt;&lt;br&gt;ctg5 102&lt;br&gt;Location: 119146 - 119692" locus_tag="ctg5_102" class="clusterblast-orf" id="dummy-1_q27_0_all"  />
<polygon points="645,35 650,30 650,30 650,40 650,40 645,35 " style="fill:#b1d815; stroke-width:1; stroke:black; " description="&lt;b&gt;ctg5_103&lt;/b&gt;&lt;br&gt;ctg5 103&lt;br&gt;Location: 119688 - 119943" locus_tag="ctg5_103" class="clusterblast-orf" id="dummy-1_q28_0_all"  />
<polygon points="650,35 655,30 656,30 656,40 655,40 650,35 " style="fill:#15d8d8; stroke-width:1; stroke:black; " description="&lt;b&gt;ctg5_104&lt;/b&gt;&lt;br&gt;ctg5 104&lt;br&gt;Location: 119952 - 120222" locus_tag="ctg5_104" class="clusterblast-orf" id="dummy-1_q29_0_all"  />
<polygon points="655,35 660,30 671,30 671,40 660,40 655,35 " style="fill:white; stroke-width:1; stroke:black; " description="&lt;b&gt;ctg5_105&lt;/b&gt;&lt;br&gt;ctg5 105&lt;br&gt;Location: 120199 - 121012" locus_tag="ctg5_105" class="clusterblast-orf" id="dummy-1_q30_0_all"  />
<polygon points="671,35 676,30 683,30 683,40 676,40 671,35 " style="fill:white; stroke-width:1; stroke:black; " description="&lt;b&gt;ctg5_106&lt;/b&gt;&lt;br&gt;ctg5 106&lt;br&gt;Location: 120987 - 121617" locus_tag="ctg5_106" class="clusterblast-orf" id="dummy-1_q31_0_all"  />
<polygon points="692,40 702,40 707,35 702,30 692,30 692,40 " style="fill:white; stroke-width:1; stroke:black; " description="&lt;b&gt;ctg5_107&lt;/b&gt;&lt;br&gt;ctg5 107&lt;br&gt;Location: 122045 - 122816" locus_tag="ctg5_107" class="clusterblast-orf" id="dummy-1_q32_0_all"  />
<polygon points="716,40 716,40 721,35 716,30 716,30 716,40 " style="fill:white; stroke-width:1; stroke:black; " description="&lt;b&gt;ctg5_108&lt;/b&gt;&lt;br&gt;ctg5 108&lt;br&gt;Location: 123293 - 123521" locus_tag="ctg5_108" class="clusterblast-orf" id="dummy-1_q33_0_all"  />
<polygon points="724,35 729,30 732,30 732,40 729,40 724,35 " style="fill:white; stroke-width:1; stroke:black; " description="&lt;b&gt;ctg5_109&lt;/b&gt;&lt;br&gt;ctg5 109&lt;br&gt;Location: 123652 - 124087" locus_tag="ctg5_109" class="clusterblast-orf" id="dummy-1_q34_0_all"  />
<polygon points="737,40 738,40 743,35 738,30 737,30 737,40 " style="fill:white; stroke-width:1; stroke:black; " description="&lt;b&gt;ctg5_110&lt;/b&gt;&lt;br&gt;ctg5 110&lt;br&gt;Location: 124322 - 124619" locus_tag="ctg5_110" class="clusterblast-orf" id="dummy-1_q35_0_all"  />
<polygon points="743,40 746,40 751,35 746,30 743,30 743,40 " style="fill:white; stroke-width:1; stroke:black; " description="&lt;b&gt;ctg5_111&lt;/b&gt;&lt;br&gt;ctg5 111&lt;br&gt;Location: 124615 - 125017" locus_tag="ctg5_111" class="clusterblast-orf" id="dummy-1_q36_0_all"  />
<polygon points="751,35 756,30 780,30 780,40 756,40 751,35 " style="fill:white; stroke-width:1; stroke:black; " description="&lt;b&gt;ctg5_112&lt;/b&gt;&lt;br&gt;ctg5 112&lt;br&gt;Location: 125022 - 126486" locus_tag="ctg5_112" class="clusterblast-orf" id="dummy-1_q37_0_all"  />
</g>
<g label="BGC0002008" description="BGC0002008_c1: aryl polyenes (44% of genes show similarity), Other" class="clusterblast-cluster"  >
<text x="5" y="70" class="clusterblast-acc"  >
<a xlink:href="https://mibig.secondarymetabolites.org/go/BGC0002008/1" target="_blank">BGC0002008</a>: aryl polyenes                                                                    (44% of genes show similarity), Other</text>
<line x1="10" y1="85" x2="778.0" y2="85" style="stroke-width:1; stroke:grey; "  />
</g>
<g id="a1_000"  >
<polygon points="239,85 244,80 263,80 263,90 244,90 239,85 " style="fill:#d81515; stroke-width:1; stroke:black; " description="&lt;b&gt;XDD1_RS16065&lt;/b&gt;&lt;br&gt;beta-ketoacyl-ACP synthase&lt;br&gt;Location: 15251 - 13992&lt;br&gt;&lt;br&gt;&lt;b&gt;BlastP hit with ctg5_88&lt;/b&gt;&lt;br&gt;Percentage identity: 56&lt;br&gt;Percentage coverage: 100&lt;br&gt;BLAST bit score: 486&lt;br&gt;E-value: 2.9e-171" locus_tag="XDD1_RS16065" class="clusterblast-orf" id="dummy-1_h1_2_0"  />
</g>
<g id="a1_001"  >
<polygon points="263,85 268,80 278,80 278,90 268,90 263,85 " style="fill:#3cd815; stroke-width:1; stroke:black; " description="&lt;b&gt;XDD1_RS16060&lt;/b&gt;&lt;br&gt;3-ketoacyl-ACP reductase FabG2&lt;br&gt;Location: 13995 - 13264&lt;br&gt;&lt;br&gt;&lt;b&gt;BlastP hit with ctg5_89&lt;/b&gt;&lt;br&gt;Percentage identity: 61&lt;br&gt;Percentage coverage: 100&lt;br&gt;BLAST bit score: 299&lt;br&gt;E-value: 5.73e-103" locus_tag="XDD1_RS16060" class="clusterblast-orf" id="dummy-1_h1_2_1"  />
</g>
<g id="a1_002"  >
<polygon points="278,85 283,80 288,80 288,90 283,90 278,85 " style="fill:white; stroke-width:1; stroke:black; " description="&lt;b&gt;XDD1_RS16055&lt;/b&gt;&lt;br&gt;hotdog family protein&lt;br&gt;Location: 13267 - 12770" locus_tag="XDD1_RS16055" class="clusterblast-orf" id="dummy-1_h1_2_2"  />
</g>
<g id="a1_003"  >
<polygon points="288,85 293,80 311,80 311,90 293,90 288,85 " style="fill:#1563d8; stroke-width:1; stroke:black; " description="&lt;b&gt;XDD1_RS16050&lt;/b&gt;&lt;br&gt;beta-ketoacyl-[acyl-carrier-protein] synthase family protein&lt;br&gt;Location: 12770 - 11595&lt;br&gt;&lt;br&gt;&lt;b&gt;BlastP hit with ctg5_91&lt;/b&gt;&lt;br&gt;Percentage identity: 47&lt;br&gt;Percentage coverage: 100&lt;br&gt;BLAST bit score: 356&lt;br&gt;E-value: 4.51e-121" locus_tag="XDD1_RS16050" class="clusterblast-orf" id="dummy-1_h1_2_3"  />
</g>
<g id="a1_004"  >
<polygon points="311,85 316,80 322,80 322,90 316,90 311,85 " style="fill:white; stroke-width:1; stroke:black; " description="&lt;b&gt;XDD1_RS16045&lt;/b&gt;&lt;br&gt;DUF3261 domain-containing protein&lt;br&gt;Location: 11591 - 11028" locus_tag="XDD1_RS16045" class="clusterblast-orf" id="dummy-1_h1_2_4"  />
</g>
<g id="a1_005"  >
<polygon points="322,85 327,80 368,80 368,90 327,90 322,85 " style="fill:white; stroke-width:1; stroke:black; " description="&lt;b&gt;XDD1_RS16040&lt;/b&gt;&lt;br&gt;MMPL family transporter&lt;br&gt;Location: 11031 - 8707" locus_tag="XDD1_RS16040" class="clusterblast-orf" id="dummy-1_h1_2_5"  />
</g>
<g id="a1_006"  >
<polygon points="368,85 373,80 379,80 379,90 373,90 368,85 " style="fill:white; stroke-width:1; stroke:black; " description="&lt;b&gt;XDD1_RS16035&lt;/b&gt;&lt;br&gt;outer membrane lipoprotein carrier protein LolA&lt;br&gt;Location: 8735 - 8133" locus_tag="XDD1_RS16035" class="clusterblast-orf" id="dummy-1_h1_2_6"  />
</g>
<g id="a1_007"  >
<polygon points="380,85 385,80 388,80 388,90 385,90 380,85 " style="fill:#d88a15; stroke-width:1; stroke:black; " description="&lt;b&gt;XDD1_RS16030&lt;/b&gt;&lt;br&gt;acyl-CoA thioesterase&lt;br&gt;Location: 8115 - 7693&lt;br&gt;&lt;br&gt;&lt;b&gt;BlastP hit with ctg5_97&lt;/b&gt;&lt;br&gt;Percentage identity: 51&lt;br&gt;Percentage coverage: 85&lt;br&gt;BLAST bit score: 134&lt;br&gt;E-value: 6.51e-41" locus_tag="XDD1_RS16030" class="clusterblast-orf" id="dummy-1_h1_2_7"  />
</g>
<g id="a1_008"  >
<polygon points="388,85 393,80 422,80 422,90 393,90 388,85 " style="fill:#3c15d8; stroke-width:1; stroke:black; " description="&lt;b&gt;XDD1_RS16025&lt;/b&gt;&lt;br&gt;glycosyltransferase family 2 protein&lt;br&gt;Location: 7688 - 5973&lt;br&gt;&lt;br&gt;&lt;b&gt;BlastP hit with ctg5_100&lt;/b&gt;&lt;br&gt;Percentage identity: 58&lt;br&gt;Percentage coverage: 98&lt;br&gt;BLAST bit score: 289&lt;br&gt;E-value: 1.08e-94" locus_tag="XDD1_RS16025" class="clusterblast-orf" id="dummy-1_h1_2_8"  />
</g>
<g id="a1_009"  >
<polygon points="422,85 427,80 429,80 429,90 427,90 422,85 " style="fill:white; stroke-width:1; stroke:black; " description="&lt;b&gt;XDD1_RS16020&lt;/b&gt;&lt;br&gt;hydroxymyristoyl-ACP dehydratase&lt;br&gt;Location: 5982 - 5623" locus_tag="XDD1_RS16020" class="clusterblast-orf" id="dummy-1_h1_2_9"  />
</g>
<g id="a1_0010"  >
<polygon points="429,85 434,80 456,80 456,90 434,90 429,85 " style="fill:white; stroke-width:1; stroke:black; " description="&lt;b&gt;XDD1_RS16015&lt;/b&gt;&lt;br&gt;AMP-binding protein&lt;br&gt;Location: 5636 - 4251" locus_tag="XDD1_RS16015" class="clusterblast-orf" id="dummy-1_h1_2_10"  />
</g>
<g id="a1_0011"  >
<polygon points="456,85 461,80 467,80 467,90 461,90 456,85 " style="fill:#d8158a; stroke-width:1; stroke:black; " description="&lt;b&gt;XDD1_RS16010&lt;/b&gt;&lt;br&gt;hypothetical protein&lt;br&gt;Location: 4254 - 3691&lt;br&gt;&lt;br&gt;&lt;b&gt;BlastP hit with ctg5_102&lt;/b&gt;&lt;br&gt;Percentage identity: 47&lt;br&gt;Percentage coverage: 78&lt;br&gt;BLAST bit score: 131&lt;br&gt;E-value: 8.65e-39" locus_tag="XDD1_RS16010" class="clusterblast-orf" id="dummy-1_h1_2_11"  />
</g>
<g id="a1_0012"  >
<polygon points="468,85 473,80 473,80 473,90 473,90 468,85 " style="fill:#b1d815; stroke-width:1; stroke:black; " description="&lt;b&gt;XDD1_RS16005&lt;/b&gt;&lt;br&gt;acyl carrier protein&lt;br&gt;Location: 3641 - 3390&lt;br&gt;&lt;br&gt;&lt;b&gt;BlastP hit with ctg5_103&lt;/b&gt;&lt;br&gt;Percentage identity: 51&lt;br&gt;Percentage coverage: 94&lt;br&gt;BLAST bit score: 85&lt;br&gt;E-value: 4.06e-23" locus_tag="XDD1_RS16005" class="clusterblast-orf" id="dummy-1_h1_2_12"  />
</g>
<g id="a1_0013"  >
<polygon points="474,85 479,80 479,80 479,90 479,90 474,85 " style="fill:#15d8d8; stroke-width:1; stroke:black; " description="&lt;b&gt;XDD1_RS16000&lt;/b&gt;&lt;br&gt;phosphopantetheine-binding protein&lt;br&gt;Location: 3378 - 3121&lt;br&gt;&lt;br&gt;&lt;b&gt;BlastP hit with ctg5_104&lt;/b&gt;&lt;br&gt;Percentage identity: 51&lt;br&gt;Percentage coverage: 89&lt;br&gt;BLAST bit score: 86&lt;br&gt;E-value: 2.58e-23" locus_tag="XDD1_RS16000" class="clusterblast-orf" id="dummy-1_h1_2_13"  />
</g>
<g id="a1_0014"  >
<polygon points="479,85 484,80 495,80 495,90 484,90 479,85 " style="fill:white; stroke-width:1; stroke:black; " description="&lt;b&gt;XDD1_RS15995&lt;/b&gt;&lt;br&gt;1-acyl-sn-glycerol-3-phosphate acyltransferase&lt;br&gt;Location: 3102 - 2311" locus_tag="XDD1_RS15995" class="clusterblast-orf" id="dummy-1_h1_2_14"  />
</g>
<g id="a1_0015"  >
<polygon points="495,85 500,80 509,80 509,90 500,90 495,85 " style="fill:white; stroke-width:1; stroke:black; " description="&lt;b&gt;XDD1_RS15990&lt;/b&gt;&lt;br&gt;beta-ketoacyl synthase chain length factor&lt;br&gt;Location: 2309 - 1590" locus_tag="XDD1_RS15990" class="clusterblast-orf" id="dummy-1_h1_2_15"  />
</g>
<g id="a1_0016"  >
<polygon points="509,85 514,80 531,80 531,90 514,90 509,85 " style="fill:white; stroke-width:1; stroke:black; " description="&lt;b&gt;XDD1_RS15985&lt;/b&gt;&lt;br&gt;SAM-dependent methyltransferase&lt;br&gt;Location: 1576 - 503" locus_tag="XDD1_RS15985" class="clusterblast-orf" id="dummy-1_h1_2_16"  />
</g>
<g id="a1_0017"  >
<polygon points="533,85 538,80 540,80 540,90 538,90 533,85 " style="fill:white; stroke-width:1; stroke:black; " description="&lt;b&gt;XDD1_RS15980&lt;/b&gt;&lt;br&gt;hypothetical protein&lt;br&gt;Location: 390 - 1" locus_tag="XDD1_RS15980" class="clusterblast-orf" id="dummy-1_h1_2_17"  />
</g>
</svg>
