<svg xmlns="http://www.w3.org/2000/svg" xmlns:xlink="http://www.w3.org/1999/xlink" version="1.1" x="0" y="0" height="230" width="800" viewBox="0 0 800 230" preserveAspectRatio="none"  >
<g label="Query sequence" class="clusterblast-cluster"  >
<text x="5" y="20" class="clusterblast-acc"  >
Query sequence</text>
<line x1="10" y1="35" x2="778.0" y2="35" style="stroke-width:1; stroke:grey; "  />
<polygon points="0,40 3,40 8,35 3,30 0,30 0,40 " style="fill:white; stroke-width:1; stroke:black; " description="&lt;b&gt;ctg21_8&lt;/b&gt;&lt;br&gt;ctg21 8&lt;br&gt;Location: 10485 - 11169" locus_tag="ctg21_8" class="clusterblast-orf" id="dummy-1_q0_0_all"  />
<polygon points="8,40 21,40 26,35 21,30 8,30 8,40 " style="fill:white; stroke-width:1; stroke:black; " description="&lt;b&gt;ctg21_9&lt;/b&gt;&lt;br&gt;ctg21 9&lt;br&gt;Location: 11146 - 12541" locus_tag="ctg21_9" class="clusterblast-orf" id="dummy-1_q1_0_all"  />
<polygon points="29,35 34,30 34,30 34,40 34,40 29,35 " style="fill:white; stroke-width:1; stroke:black; " description="&lt;b&gt;ctg21_10&lt;/b&gt;&lt;br&gt;ctg21 10&lt;br&gt;Location: 12771 - 13182" locus_tag="ctg21_10" class="clusterblast-orf" id="dummy-1_q2_0_all"  />
<polygon points="34,35 39,30 45,30 45,40 39,40 34,35 " style="fill:white; stroke-width:1; stroke:black; " description="&lt;b&gt;ctg21_11&lt;/b&gt;&lt;br&gt;ctg21 11&lt;br&gt;Location: 13209 - 14007" locus_tag="ctg21_11" class="clusterblast-orf" id="dummy-1_q3_0_all"  />
<polygon points="45,35 50,30 58,30 58,40 50,40 45,35 " style="fill:white; stroke-width:1; stroke:black; " description="&lt;b&gt;ctg21_12&lt;/b&gt;&lt;br&gt;ctg21 12&lt;br&gt;Location: 14022 - 15027" locus_tag="ctg21_12" class="clusterblast-orf" id="dummy-1_q4_0_all"  />
<polygon points="59,40 65,40 70,35 65,30 59,30 59,40 " style="fill:white; stroke-width:1; stroke:black; " description="&lt;b&gt;ctg21_13&lt;/b&gt;&lt;br&gt;ctg21 13&lt;br&gt;Location: 15140 - 16034" locus_tag="ctg21_13" class="clusterblast-orf" id="dummy-1_q5_0_all"  />
<polygon points="72,35 77,30 88,30 88,40 77,40 72,35 " style="fill:#d81515; stroke-width:1; stroke:black; " description="&lt;b&gt;ctg21_14&lt;/b&gt;&lt;br&gt;ctg21 14&lt;br&gt;Location: 16146 - 17442" locus_tag="ctg21_14" class="clusterblast-orf" id="dummy-1_q6_0_all"  />
<polygon points="88,35 93,30 102,30 102,40 93,40 88,35 " style="fill:#3cd815; stroke-width:1; stroke:black; " description="&lt;b&gt;ctg21_15&lt;/b&gt;&lt;br&gt;ctg21 15&lt;br&gt;Location: 17438 - 18527" locus_tag="ctg21_15" class="clusterblast-orf" id="dummy-1_q7_0_all"  />
<polygon points="102,35 107,30 120,30 120,40 107,40 102,35 " style="fill:white; stroke-width:1; stroke:black; " description="&lt;b&gt;ctg21_16&lt;/b&gt;&lt;br&gt;ctg21 16&lt;br&gt;Location: 18549 - 19908" locus_tag="ctg21_16" class="clusterblast-orf" id="dummy-1_q8_0_all"  />
<polygon points="123,40 128,40 133,35 128,30 123,30 123,40 " style="fill:#1563d8; stroke-width:1; stroke:black; " description="&lt;b&gt;ctg21_17&lt;/b&gt;&lt;br&gt;ctg21 17&lt;br&gt;Location: 20145 - 20943" locus_tag="ctg21_17" class="clusterblast-orf" id="dummy-1_q9_0_all"  />
<polygon points="134,40 157,40 162,35 157,30 134,30 134,40 " style="fill:#b115d8; stroke-width:1; stroke:black; " description="&lt;b&gt;ctg21_18&lt;/b&gt;&lt;br&gt;ctg21 18&lt;br&gt;Location: 21048 - 23190" locus_tag="ctg21_18" class="clusterblast-orf" id="dummy-1_q10_0_all"  />
<polygon points="162,35 167,30 168,30 168,40 167,40 162,35 " style="fill:#d88a15; stroke-width:1; stroke:black; " description="&lt;b&gt;ctg21_19&lt;/b&gt;&lt;br&gt;ctg21 19&lt;br&gt;Location: 23235 - 23706" locus_tag="ctg21_19" class="clusterblast-orf" id="dummy-1_q11_0_all"  />
<polygon points="170,40 181,40 186,35 181,30 170,30 170,40 " style="fill:#15d863; stroke-width:1; stroke:black; " description="&lt;b&gt;ctg21_20&lt;/b&gt;&lt;br&gt;ctg21 20&lt;br&gt;Location: 23829 - 25074" locus_tag="ctg21_20" class="clusterblast-orf" id="dummy-1_q12_0_all"  />
<polygon points="189,40 192,40 197,35 192,30 189,30 189,40 " style="fill:#3c15d8; stroke-width:1; stroke:black; " description="&lt;b&gt;ctg21_21&lt;/b&gt;&lt;br&gt;ctg21 21&lt;br&gt;Location: 25306 - 25984" locus_tag="ctg21_21" class="clusterblast-orf" id="dummy-1_q13_0_all"  />
<polygon points="199,35 204,30 224,30 224,40 204,40 199,35 " style="fill:#d8158a; stroke-width:1; stroke:black; " description="&lt;b&gt;ctg21_22&lt;/b&gt;&lt;br&gt;ctg21 22&lt;br&gt;Location: 26111 - 28070" locus_tag="ctg21_22" class="clusterblast-orf" id="dummy-1_q14_0_all"  />
<polygon points="224,35 229,30 238,30 238,40 229,40 224,35 " style="fill:#b1d815; stroke-width:1; stroke:black; " description="&lt;b&gt;ctg21_23&lt;/b&gt;&lt;br&gt;ctg21 23&lt;br&gt;Location: 28073 - 29216" locus_tag="ctg21_23" class="clusterblast-orf" id="dummy-1_q15_0_all"  />
<polygon points="238,35 243,30 383,30 383,40 243,40 238,35 " style="fill:#15d8d8; stroke-width:1; stroke:black; " description="&lt;b&gt;ctg21_24&lt;/b&gt;&lt;br&gt;ctg21 24&lt;br&gt;Location: 29212 - 40549" locus_tag="ctg21_24" class="clusterblast-orf" id="dummy-1_q16_0_all"  />
<polygon points="383,35 388,30 547,30 547,40 388,40 383,35 " style="fill:#15d8d8; stroke-width:1; stroke:black; " description="&lt;b&gt;ctg21_25&lt;/b&gt;&lt;br&gt;ctg21 25&lt;br&gt;Location: 40545 - 53457" locus_tag="ctg21_25" class="clusterblast-orf" id="dummy-1_q17_0_all"  />
<polygon points="550,35 555,30 557,30 557,40 555,40 550,35 " style="fill:white; stroke-width:1; stroke:black; " description="&lt;b&gt;ctg21_26&lt;/b&gt;&lt;br&gt;ctg21 26&lt;br&gt;Location: 53666 - 54212" locus_tag="ctg21_26" class="clusterblast-orf" id="dummy-1_q18_0_all"  />
<polygon points="558,35 563,30 571,30 571,40 563,40 558,35 " style="fill:white; stroke-width:1; stroke:black; " description="&lt;b&gt;ctg21_27&lt;/b&gt;&lt;br&gt;ctg21 27&lt;br&gt;Location: 54331 - 55330" locus_tag="ctg21_27" class="clusterblast-orf" id="dummy-1_q19_0_all"  />
<polygon points="571,35 576,30 619,30 619,40 576,40 571,35 " style="fill:white; stroke-width:1; stroke:black; " description="&lt;b&gt;ctg21_28&lt;/b&gt;&lt;br&gt;ctg21 28&lt;br&gt;Location: 55329 - 59091" locus_tag="ctg21_28" class="clusterblast-orf" id="dummy-1_q20_0_all"  />
<polygon points="619,35 624,30 633,30 633,40 624,40 619,35 " style="fill:white; stroke-width:1; stroke:black; " description="&lt;b&gt;ctg21_29&lt;/b&gt;&lt;br&gt;ctg21 29&lt;br&gt;Location: 59094 - 60156" locus_tag="ctg21_29" class="clusterblast-orf" id="dummy-1_q21_0_all"  />
<polygon points="650,40 653,35 650,30 650,40 " style="fill:white; stroke-width:1; stroke:black; " description="&lt;b&gt;ctg21_30&lt;/b&gt;&lt;br&gt;ctg21 30&lt;br&gt;Location: 61539 - 61728" locus_tag="ctg21_30" class="clusterblast-orf" id="dummy-1_q22_0_all"  />
<polygon points="653,40 657,40 662,35 657,30 653,30 653,40 " style="fill:white; stroke-width:1; stroke:black; " description="&lt;b&gt;ctg21_31&lt;/b&gt;&lt;br&gt;ctg21 31&lt;br&gt;Location: 61739 - 62444" locus_tag="ctg21_31" class="clusterblast-orf" id="dummy-1_q23_0_all"  />
<polygon points="662,40 662,40 667,35 662,30 662,30 662,40 " style="fill:white; stroke-width:1; stroke:black; " description="&lt;b&gt;ctg21_32&lt;/b&gt;&lt;br&gt;ctg21 32&lt;br&gt;Location: 62440 - 62833" locus_tag="ctg21_32" class="clusterblast-orf" id="dummy-1_q24_0_all"  />
<polygon points="668,40 672,40 677,35 672,30 668,30 668,40 " style="fill:white; stroke-width:1; stroke:black; " description="&lt;b&gt;ctg21_33&lt;/b&gt;&lt;br&gt;ctg21 33&lt;br&gt;Location: 62903 - 63650" locus_tag="ctg21_33" class="clusterblast-orf" id="dummy-1_q25_0_all"  />
<polygon points="680,35 685,30 687,30 687,40 685,40 680,35 " style="fill:white; stroke-width:1; stroke:black; " description="&lt;b&gt;ctg21_34&lt;/b&gt;&lt;br&gt;ctg21 34&lt;br&gt;Location: 63853 - 64438" locus_tag="ctg21_34" class="clusterblast-orf" id="dummy-1_q26_0_all"  />
<polygon points="701,35 706,30 730,30 730,40 706,40 701,35 " style="fill:white; stroke-width:1; stroke:black; " description="&lt;b&gt;ctg21_35&lt;/b&gt;&lt;br&gt;ctg21 35&lt;br&gt;Location: 65520 - 67815" locus_tag="ctg21_35" class="clusterblast-orf" id="dummy-1_q27_0_all"  />
<polygon points="732,40 775,40 780,35 775,30 732,30 732,40 " style="fill:white; stroke-width:1; stroke:black; " description="&lt;b&gt;ctg21_36&lt;/b&gt;&lt;br&gt;ctg21 36&lt;br&gt;Location: 67979 - 71690" locus_tag="ctg21_36" class="clusterblast-orf" id="dummy-1_q28_0_all"  />
</g>
<g label="BGC0000398" description="BGC0000398_c1: orfamide B (60% of genes show similarity), NRP:Cyclic depsipeptide" class="clusterblast-cluster"  >
<text x="5" y="70" class="clusterblast-acc"  >
<a xlink:href="https://mibig.secondarymetabolites.org/go/BGC0000398/1" target="_blank">BGC0000398</a>: orfamide B                                                                       (60% of genes show similarity), NRP:Cyclic depsipeptide</text>
<line x1="10" y1="85" x2="778.0" y2="85" style="stroke-width:1; stroke:grey; "  />
</g>
<g id="a1_000"  >
<polygon points="114,90 127,90 132,85 127,80 114,80 114,90 " style="fill:white; stroke-width:1; stroke:black; " description="&lt;b&gt;AFH75335.1&lt;/b&gt;&lt;br&gt;heme biosynthesis protein&lt;br&gt;Location: 45375 - 43969" locus_tag="AFH75335.1" class="clusterblast-orf" id="dummy-1_h1_6_0"  />
</g>
<g id="a1_001"  >
<polygon points="134,90 134,90 139,85 134,80 134,80 134,90 " style="fill:white; stroke-width:1; stroke:black; " description="&lt;b&gt;AFH75334.1&lt;/b&gt;&lt;br&gt;glyoxalase family protein&lt;br&gt;Location: 43779 - 43363" locus_tag="AFH75334.1" class="clusterblast-orf" id="dummy-1_h1_6_1"  />
</g>
<g id="a1_002"  >
<polygon points="145,90 150,90 155,85 150,80 145,80 145,90 " style="fill:#3c15d8; stroke-width:1; stroke:black; " description="&lt;b&gt;AFH75333.1&lt;/b&gt;&lt;br&gt;LuxR family transcriptional regulator&lt;br&gt;Location: 42895 - 42125&lt;br&gt;&lt;br&gt;&lt;b&gt;BlastP hit with ctg21_21&lt;/b&gt;&lt;br&gt;Percentage identity: 61&lt;br&gt;Percentage coverage: 111&lt;br&gt;BLAST bit score: 267&lt;br&gt;E-value: 1.33e-90" locus_tag="AFH75333.1" class="clusterblast-orf" id="dummy-1_h1_6_2"  />
</g>
<g id="a1_003"  >
<polygon points="156,85 161,80 181,80 181,90 161,90 156,85 " style="fill:#d8158a; stroke-width:1; stroke:black; " description="&lt;b&gt;AFH75332.1&lt;/b&gt;&lt;br&gt;macrolide export ATP-binding/permease protein MacB&lt;br&gt;Location: 42082 - 40124&lt;br&gt;&lt;br&gt;&lt;b&gt;BlastP hit with ctg21_22&lt;/b&gt;&lt;br&gt;Percentage identity: 84&lt;br&gt;Percentage coverage: 100&lt;br&gt;BLAST bit score: 1047&lt;br&gt;E-value: 0.0" locus_tag="AFH75332.1" class="clusterblast-orf" id="dummy-1_h1_6_3"  />
</g>
<g id="a1_004"  >
<polygon points="181,85 186,80 195,80 195,90 186,90 181,85 " style="fill:#b1d815; stroke-width:1; stroke:black; " description="&lt;b&gt;AFH75331.1&lt;/b&gt;&lt;br&gt;macrolide-specific efflux protein&lt;br&gt;Location: 40121 - 39000&lt;br&gt;&lt;br&gt;&lt;b&gt;BlastP hit with ctg21_23&lt;/b&gt;&lt;br&gt;Percentage identity: 81&lt;br&gt;Percentage coverage: 97&lt;br&gt;BLAST bit score: 568&lt;br&gt;E-value: 7.94e-205" locus_tag="AFH75331.1" class="clusterblast-orf" id="dummy-1_h1_6_4"  />
</g>
<g id="a1_005"  >
<polygon points="197,85 202,80 385,80 385,90 202,90 197,85 " style="fill:#15d8d8; stroke-width:1; stroke:black; " description="&lt;b&gt;AFH75330.1&lt;/b&gt;&lt;br&gt;nonribosomal peptide synthetase&lt;br&gt;Location: 38810 - 24120&lt;br&gt;&lt;br&gt;&lt;b&gt;BlastP hit with ctg21_24&lt;/b&gt;&lt;br&gt;Percentage identity: 54&lt;br&gt;Percentage coverage: 130&lt;br&gt;BLAST bit score: 4654&lt;br&gt;E-value: 0.0" locus_tag="AFH75330.1" class="clusterblast-orf" id="dummy-1_h1_6_5"  />
</g>
<g id="a1_006"  >
<polygon points="384,85 389,80 551,80 551,90 389,90 384,85 " style="fill:#15d8d8; stroke-width:1; stroke:black; " description="&lt;b&gt;AFH75329.1&lt;/b&gt;&lt;br&gt;nonribosomal peptide synthetase&lt;br&gt;Location: 24123 - 11026&lt;br&gt;&lt;br&gt;&lt;b&gt;BlastP hit with ctg21_24&lt;/b&gt;&lt;br&gt;Percentage identity: 46&lt;br&gt;Percentage coverage: 88&lt;br&gt;BLAST bit score: 2492&lt;br&gt;E-value: 0.0&lt;br&gt;&lt;br&gt;&lt;b&gt;BlastP hit with ctg21_25&lt;/b&gt;&lt;br&gt;Percentage identity: 68&lt;br&gt;Percentage coverage: 102&lt;br&gt;BLAST bit score: 5739&lt;br&gt;E-value: 0.0" locus_tag="AFH75329.1" class="clusterblast-orf" id="dummy-1_h1_6_6"  />
</g>
<g id="a1_007"  >
<polygon points="555,85 560,80 636,80 636,90 560,90 555,85 " style="fill:#15d8d8; stroke-width:1; stroke:black; " description="&lt;b&gt;AFH75328.1&lt;/b&gt;&lt;br&gt;nonribosomal peptide synthetase&lt;br&gt;Location: 10734 - 4357&lt;br&gt;&lt;br&gt;&lt;b&gt;BlastP hit with ctg21_25&lt;/b&gt;&lt;br&gt;Percentage identity: 51&lt;br&gt;Percentage coverage: 48&lt;br&gt;BLAST bit score: 1830&lt;br&gt;E-value: 0.0" locus_tag="AFH75328.1" class="clusterblast-orf" id="dummy-1_h1_6_7"  />
</g>
<g id="a1_008"  >
<polygon points="644,90 649,90 654,85 649,80 644,80 644,90 " style="fill:white; stroke-width:1; stroke:black; " description="&lt;b&gt;AFH75327.1&lt;/b&gt;&lt;br&gt;LuxR family transcriptional regulator&lt;br&gt;Location: 3751 - 2951" locus_tag="AFH75327.1" class="clusterblast-orf" id="dummy-1_h1_6_8"  />
</g>
<g id="a1_009"  >
<polygon points="656,85 661,80 665,80 665,90 661,90 656,85 " style="fill:white; stroke-width:1; stroke:black; " description="&lt;b&gt;AFH75326.1&lt;/b&gt;&lt;br&gt;putative acetyltransferase&lt;br&gt;Location: 2816 - 2082" locus_tag="AFH75326.1" class="clusterblast-orf" id="dummy-1_h1_6_9"  />
</g>
</svg>
