<svg xmlns="http://www.w3.org/2000/svg" xmlns:xlink="http://www.w3.org/1999/xlink" version="1.1" x="0" y="0" height="230" width="800" viewBox="0 0 800 230" preserveAspectRatio="none"  >
<g label="Query sequence" class="clusterblast-cluster"  >
<text x="5" y="20" class="clusterblast-acc"  >
Query sequence</text>
<line x1="10" y1="35" x2="778.0" y2="35" style="stroke-width:1; stroke:grey; "  />
<polygon points="0,40 8,40 13,35 8,30 0,30 0,40 " style="fill:white; stroke-width:1; stroke:black; " description="&lt;b&gt;ctg5_75&lt;/b&gt;&lt;br&gt;ctg5 75&lt;br&gt;Location: 87087 - 87744" locus_tag="ctg5_75" class="clusterblast-orf" id="dummy-1_q0_0_all"  />
<polygon points="13,40 19,40 24,35 19,30 13,30 13,40 " style="fill:white; stroke-width:1; stroke:black; " description="&lt;b&gt;ctg5_76&lt;/b&gt;&lt;br&gt;ctg5 76&lt;br&gt;Location: 87740 - 88292" locus_tag="ctg5_76" class="clusterblast-orf" id="dummy-1_q1_0_all"  />
<polygon points="23,40 38,40 43,35 38,30 23,30 23,40 " style="fill:white; stroke-width:1; stroke:black; " description="&lt;b&gt;ctg5_77&lt;/b&gt;&lt;br&gt;ctg5 77&lt;br&gt;Location: 88288 - 89260" locus_tag="ctg5_77" class="clusterblast-orf" id="dummy-1_q2_0_all"  />
<polygon points="43,40 65,40 70,35 65,30 43,30 43,40 " style="fill:white; stroke-width:1; stroke:black; " description="&lt;b&gt;ctg5_78&lt;/b&gt;&lt;br&gt;ctg5 78&lt;br&gt;Location: 89272 - 90658" locus_tag="ctg5_78" class="clusterblast-orf" id="dummy-1_q3_0_all"  />
<polygon points="71,40 76,40 81,35 76,30 71,30 71,40 " style="fill:white; stroke-width:1; stroke:black; " description="&lt;b&gt;ctg5_79&lt;/b&gt;&lt;br&gt;ctg5 79&lt;br&gt;Location: 90689 - 91181" locus_tag="ctg5_79" class="clusterblast-orf" id="dummy-1_q4_0_all"  />
<polygon points="83,40 100,40 105,35 100,30 83,30 83,40 " style="fill:white; stroke-width:1; stroke:black; " description="&lt;b&gt;ctg5_80&lt;/b&gt;&lt;br&gt;ctg5 80&lt;br&gt;Location: 91305 - 92406" locus_tag="ctg5_80" class="clusterblast-orf" id="dummy-1_q5_0_all"  />
<polygon points="105,40 131,40 136,35 131,30 105,30 105,40 " style="fill:white; stroke-width:1; stroke:black; " description="&lt;b&gt;ctg5_81&lt;/b&gt;&lt;br&gt;ctg5 81&lt;br&gt;Location: 92416 - 93985" locus_tag="ctg5_81" class="clusterblast-orf" id="dummy-1_q6_0_all"  />
<polygon points="143,40 226,40 231,35 226,30 143,30 143,40 " style="fill:white; stroke-width:1; stroke:black; " description="&lt;b&gt;ctg5_82&lt;/b&gt;&lt;br&gt;ctg5 82&lt;br&gt;Location: 94337 - 98783" locus_tag="ctg5_82" class="clusterblast-orf" id="dummy-1_q7_0_all"  />
<polygon points="234,40 257,40 262,35 257,30 234,30 234,40 " style="fill:white; stroke-width:1; stroke:black; " description="&lt;b&gt;ctg5_83&lt;/b&gt;&lt;br&gt;ctg5 83&lt;br&gt;Location: 98907 - 100326" locus_tag="ctg5_83" class="clusterblast-orf" id="dummy-1_q8_0_all"  />
<polygon points="267,40 283,40 288,35 283,30 267,30 267,40 " style="fill:white; stroke-width:1; stroke:black; " description="&lt;b&gt;ctg5_84&lt;/b&gt;&lt;br&gt;ctg5 84&lt;br&gt;Location: 100579 - 101647" locus_tag="ctg5_84" class="clusterblast-orf" id="dummy-1_q9_0_all"  />
<polygon points="290,35 295,30 315,30 315,40 295,40 290,35 " style="fill:white; stroke-width:1; stroke:black; " description="&lt;b&gt;ctg5_85&lt;/b&gt;&lt;br&gt;ctg5 85&lt;br&gt;Location: 101763 - 103038" locus_tag="ctg5_85" class="clusterblast-orf" id="dummy-1_q10_0_all"  />
<polygon points="318,40 331,40 336,35 331,30 318,30 318,40 " style="fill:white; stroke-width:1; stroke:black; " description="&lt;b&gt;ctg5_86&lt;/b&gt;&lt;br&gt;ctg5 86&lt;br&gt;Location: 103162 - 104056" locus_tag="ctg5_86" class="clusterblast-orf" id="dummy-1_q11_0_all"  />
<polygon points="342,35 347,30 350,30 350,40 347,40 342,35 " style="fill:white; stroke-width:1; stroke:black; " description="&lt;b&gt;ctg5_87&lt;/b&gt;&lt;br&gt;ctg5 87&lt;br&gt;Location: 104355 - 104805" locus_tag="ctg5_87" class="clusterblast-orf" id="dummy-1_q12_0_all"  />
<polygon points="351,35 356,30 375,30 375,40 356,40 351,35 " style="fill:#d81515; stroke-width:1; stroke:black; " description="&lt;b&gt;ctg5_88&lt;/b&gt;&lt;br&gt;ctg5 88&lt;br&gt;Location: 104832 - 106059" locus_tag="ctg5_88" class="clusterblast-orf" id="dummy-1_q13_0_all"  />
<polygon points="375,35 380,30 390,30 390,40 380,40 375,35 " style="fill:#3cd815; stroke-width:1; stroke:black; " description="&lt;b&gt;ctg5_89&lt;/b&gt;&lt;br&gt;ctg5 89&lt;br&gt;Location: 106058 - 106787" locus_tag="ctg5_89" class="clusterblast-orf" id="dummy-1_q14_0_all"  />
<polygon points="390,35 395,30 399,30 399,40 395,40 390,35 " style="fill:white; stroke-width:1; stroke:black; " description="&lt;b&gt;ctg5_90&lt;/b&gt;&lt;br&gt;ctg5 90&lt;br&gt;Location: 106783 - 107245" locus_tag="ctg5_90" class="clusterblast-orf" id="dummy-1_q15_0_all"  />
<polygon points="399,35 404,30 422,30 422,40 404,40 399,35 " style="fill:#1563d8; stroke-width:1; stroke:black; " description="&lt;b&gt;ctg5_91&lt;/b&gt;&lt;br&gt;ctg5 91&lt;br&gt;Location: 107241 - 108408" locus_tag="ctg5_91" class="clusterblast-orf" id="dummy-1_q16_0_all"  />
<polygon points="422,35 427,30 431,30 431,40 427,40 422,35 " style="fill:white; stroke-width:1; stroke:black; " description="&lt;b&gt;ctg5_92&lt;/b&gt;&lt;br&gt;ctg5 92&lt;br&gt;Location: 108404 - 108887" locus_tag="ctg5_92" class="clusterblast-orf" id="dummy-1_q17_0_all"  />
<polygon points="431,35 436,30 446,30 446,40 436,40 431,35 " style="fill:white; stroke-width:1; stroke:black; " description="&lt;b&gt;ctg5_93&lt;/b&gt;&lt;br&gt;ctg5 93&lt;br&gt;Location: 108883 - 109618" locus_tag="ctg5_93" class="clusterblast-orf" id="dummy-1_q18_0_all"  />
<polygon points="446,35 451,30 470,30 470,40 451,40 446,35 " style="fill:#b115d8; stroke-width:1; stroke:black; " description="&lt;b&gt;ctg5_94&lt;/b&gt;&lt;br&gt;ctg5 94&lt;br&gt;Location: 109614 - 110862" locus_tag="ctg5_94" class="clusterblast-orf" id="dummy-1_q19_0_all"  />
<polygon points="471,35 476,30 517,30 517,40 476,40 471,35 " style="fill:white; stroke-width:1; stroke:black; " description="&lt;b&gt;ctg5_95&lt;/b&gt;&lt;br&gt;ctg5 95&lt;br&gt;Location: 110895 - 113208" locus_tag="ctg5_95" class="clusterblast-orf" id="dummy-1_q20_0_all"  />
<polygon points="517,35 522,30 530,30 530,40 522,40 517,35 " style="fill:white; stroke-width:1; stroke:black; " description="&lt;b&gt;ctg5_96&lt;/b&gt;&lt;br&gt;ctg5 96&lt;br&gt;Location: 113197 - 113857" locus_tag="ctg5_96" class="clusterblast-orf" id="dummy-1_q21_0_all"  />
<polygon points="530,35 535,30 539,30 539,40 535,40 530,35 " style="fill:#d88a15; stroke-width:1; stroke:black; " description="&lt;b&gt;ctg5_97&lt;/b&gt;&lt;br&gt;ctg5 97&lt;br&gt;Location: 113877 - 114303" locus_tag="ctg5_97" class="clusterblast-orf" id="dummy-1_q22_0_all"  />
<polygon points="538,35 543,30 569,30 569,40 543,40 538,35 " style="fill:#15d863; stroke-width:1; stroke:black; " description="&lt;b&gt;ctg5_98&lt;/b&gt;&lt;br&gt;ctg5 98&lt;br&gt;Location: 114295 - 115837" locus_tag="ctg5_98" class="clusterblast-orf" id="dummy-1_q23_0_all"  />
<polygon points="569,35 574,30 587,30 587,40 574,40 569,35 " style="fill:white; stroke-width:1; stroke:black; " description="&lt;b&gt;ctg5_99&lt;/b&gt;&lt;br&gt;ctg5 99&lt;br&gt;Location: 115820 - 116756" locus_tag="ctg5_99" class="clusterblast-orf" id="dummy-1_q24_0_all"  />
<polygon points="587,35 592,30 602,30 602,40 592,40 587,35 " style="fill:#3c15d8; stroke-width:1; stroke:black; " description="&lt;b&gt;ctg5_100&lt;/b&gt;&lt;br&gt;ctg5 100&lt;br&gt;Location: 116752 - 117487" locus_tag="ctg5_100" class="clusterblast-orf" id="dummy-1_q25_0_all"  />
<polygon points="601,35 606,30 634,30 634,40 606,40 601,35 " style="fill:white; stroke-width:1; stroke:black; " description="&lt;b&gt;ctg5_101&lt;/b&gt;&lt;br&gt;ctg5 101&lt;br&gt;Location: 117479 - 119150" locus_tag="ctg5_101" class="clusterblast-orf" id="dummy-1_q26_0_all"  />
<polygon points="634,35 639,30 645,30 645,40 639,40 634,35 " style="fill:#d8158a; stroke-width:1; stroke:black; " description="&lt;b&gt;ctg5_102&lt;/b&gt;&lt;br&gt;ctg5 102&lt;br&gt;Location: 119146 - 119692" locus_tag="ctg5_102" class="clusterblast-orf" id="dummy-1_q27_0_all"  />
<polygon points="645,35 650,30 650,30 650,40 650,40 645,35 " style="fill:#b1d815; stroke-width:1; stroke:black; " description="&lt;b&gt;ctg5_103&lt;/b&gt;&lt;br&gt;ctg5 103&lt;br&gt;Location: 119688 - 119943" locus_tag="ctg5_103" class="clusterblast-orf" id="dummy-1_q28_0_all"  />
<polygon points="650,35 655,30 656,30 656,40 655,40 650,35 " style="fill:#15d8d8; stroke-width:1; stroke:black; " description="&lt;b&gt;ctg5_104&lt;/b&gt;&lt;br&gt;ctg5 104&lt;br&gt;Location: 119952 - 120222" locus_tag="ctg5_104" class="clusterblast-orf" id="dummy-1_q29_0_all"  />
<polygon points="655,35 660,30 671,30 671,40 660,40 655,35 " style="fill:white; stroke-width:1; stroke:black; " description="&lt;b&gt;ctg5_105&lt;/b&gt;&lt;br&gt;ctg5 105&lt;br&gt;Location: 120199 - 121012" locus_tag="ctg5_105" class="clusterblast-orf" id="dummy-1_q30_0_all"  />
<polygon points="671,35 676,30 683,30 683,40 676,40 671,35 " style="fill:white; stroke-width:1; stroke:black; " description="&lt;b&gt;ctg5_106&lt;/b&gt;&lt;br&gt;ctg5 106&lt;br&gt;Location: 120987 - 121617" locus_tag="ctg5_106" class="clusterblast-orf" id="dummy-1_q31_0_all"  />
<polygon points="692,40 702,40 707,35 702,30 692,30 692,40 " style="fill:white; stroke-width:1; stroke:black; " description="&lt;b&gt;ctg5_107&lt;/b&gt;&lt;br&gt;ctg5 107&lt;br&gt;Location: 122045 - 122816" locus_tag="ctg5_107" class="clusterblast-orf" id="dummy-1_q32_0_all"  />
<polygon points="716,40 716,40 721,35 716,30 716,30 716,40 " style="fill:white; stroke-width:1; stroke:black; " description="&lt;b&gt;ctg5_108&lt;/b&gt;&lt;br&gt;ctg5 108&lt;br&gt;Location: 123293 - 123521" locus_tag="ctg5_108" class="clusterblast-orf" id="dummy-1_q33_0_all"  />
<polygon points="724,35 729,30 732,30 732,40 729,40 724,35 " style="fill:white; stroke-width:1; stroke:black; " description="&lt;b&gt;ctg5_109&lt;/b&gt;&lt;br&gt;ctg5 109&lt;br&gt;Location: 123652 - 124087" locus_tag="ctg5_109" class="clusterblast-orf" id="dummy-1_q34_0_all"  />
<polygon points="737,40 738,40 743,35 738,30 737,30 737,40 " style="fill:white; stroke-width:1; stroke:black; " description="&lt;b&gt;ctg5_110&lt;/b&gt;&lt;br&gt;ctg5 110&lt;br&gt;Location: 124322 - 124619" locus_tag="ctg5_110" class="clusterblast-orf" id="dummy-1_q35_0_all"  />
<polygon points="743,40 746,40 751,35 746,30 743,30 743,40 " style="fill:white; stroke-width:1; stroke:black; " description="&lt;b&gt;ctg5_111&lt;/b&gt;&lt;br&gt;ctg5 111&lt;br&gt;Location: 124615 - 125017" locus_tag="ctg5_111" class="clusterblast-orf" id="dummy-1_q36_0_all"  />
<polygon points="751,35 756,30 780,30 780,40 756,40 751,35 " style="fill:white; stroke-width:1; stroke:black; " description="&lt;b&gt;ctg5_112&lt;/b&gt;&lt;br&gt;ctg5 112&lt;br&gt;Location: 125022 - 126486" locus_tag="ctg5_112" class="clusterblast-orf" id="dummy-1_q37_0_all"  />
</g>
<g label="BGC0000837" description="BGC0000837_c1: APE Vf (40% of genes show similarity), Other" class="clusterblast-cluster"  >
<text x="5" y="70" class="clusterblast-acc"  >
<a xlink:href="https://mibig.secondarymetabolites.org/go/BGC0000837/1" target="_blank">BGC0000837</a>: APE Vf                                                                           (40% of genes show similarity), Other</text>
<line x1="10" y1="85" x2="778.0" y2="85" style="stroke-width:1; stroke:grey; "  />
</g>
<g id="a1_000"  >
<polygon points="206,85 211,80 230,80 230,90 211,90 206,85 " style="fill:#d81515; stroke-width:1; stroke:black; " description="&lt;b&gt;VF_0860&lt;/b&gt;&lt;br&gt;3-oxoacyl-(acyl carrier protein) synthase&lt;br&gt;Location: 18539 - 17304&lt;br&gt;&lt;br&gt;&lt;b&gt;BlastP hit with ctg5_88&lt;/b&gt;&lt;br&gt;Percentage identity: 61&lt;br&gt;Percentage coverage: 100&lt;br&gt;BLAST bit score: 520&lt;br&gt;E-value: 4.68e-185" locus_tag="VF_0860" class="clusterblast-orf" id="dummy-1_h1_1_0"  />
</g>
<g id="a1_001"  >
<polygon points="230,85 235,80 245,80 245,90 235,90 230,85 " style="fill:#3cd815; stroke-width:1; stroke:black; " description="&lt;b&gt;VF_0859&lt;/b&gt;&lt;br&gt;3-oxoacyl-(acyl-carrier-protein) reductase, putative&lt;br&gt;Location: 17307 - 16582&lt;br&gt;&lt;br&gt;&lt;b&gt;BlastP hit with ctg5_89&lt;/b&gt;&lt;br&gt;Percentage identity: 61&lt;br&gt;Percentage coverage: 100&lt;br&gt;BLAST bit score: 305&lt;br&gt;E-value: 2.8e-105" locus_tag="VF_0859" class="clusterblast-orf" id="dummy-1_h1_1_1"  />
</g>
<g id="a1_002"  >
<polygon points="245,85 250,80 254,80 254,90 250,90 245,85 " style="fill:white; stroke-width:1; stroke:black; " description="&lt;b&gt;VF_0858&lt;/b&gt;&lt;br&gt;predicted 3-hydroxylacyl-(acyl carrier protein) dehydratase&lt;br&gt;Location: 16562 - 16092" locus_tag="VF_0858" class="clusterblast-orf" id="dummy-1_h1_1_2"  />
</g>
<g id="a1_003"  >
<polygon points="254,85 259,80 278,80 278,90 259,90 254,85 " style="fill:#1563d8; stroke-width:1; stroke:black; " description="&lt;b&gt;VF_0857&lt;/b&gt;&lt;br&gt;3-oxoacyl-(acyl carrier protein) synthase&lt;br&gt;Location: 16101 - 14914&lt;br&gt;&lt;br&gt;&lt;b&gt;BlastP hit with ctg5_91&lt;/b&gt;&lt;br&gt;Percentage identity: 51&lt;br&gt;Percentage coverage: 100&lt;br&gt;BLAST bit score: 367&lt;br&gt;E-value: 3e-125" locus_tag="VF_0857" class="clusterblast-orf" id="dummy-1_h1_1_3"  />
</g>
<g id="a1_004"  >
<polygon points="278,85 283,80 290,80 290,90 283,90 278,85 " style="fill:white; stroke-width:1; stroke:black; " description="&lt;b&gt;VF_0856&lt;/b&gt;&lt;br&gt;phospho-N-acetylmuramoyl-pentapeptide- transferase&lt;br&gt;Location: 14908 - 14282" locus_tag="VF_0856" class="clusterblast-orf" id="dummy-1_h1_1_4"  />
</g>
<g id="a1_005"  >
<polygon points="290,85 295,80 328,80 328,90 295,90 290,85 " style="fill:white; stroke-width:1; stroke:black; " description="&lt;b&gt;VF_0855&lt;/b&gt;&lt;br&gt;transporter&lt;br&gt;Location: 14292 - 12397" locus_tag="VF_0855" class="clusterblast-orf" id="dummy-1_h1_1_5"  />
</g>
<g id="a1_006"  >
<polygon points="338,85 343,80 350,80 350,90 343,90 338,85 " style="fill:white; stroke-width:1; stroke:black; " description="&lt;b&gt;VF_0854&lt;/b&gt;&lt;br&gt;hypothetical protein&lt;br&gt;Location: 11875 - 11255" locus_tag="VF_0854" class="clusterblast-orf" id="dummy-1_h1_1_6"  />
</g>
<g id="a1_007"  >
<polygon points="350,85 355,80 359,80 359,90 355,90 350,85 " style="fill:white; stroke-width:1; stroke:black; " description="&lt;b&gt;VF_0853&lt;/b&gt;&lt;br&gt;esterase&lt;br&gt;Location: 11262 - 10816" locus_tag="VF_0853" class="clusterblast-orf" id="dummy-1_h1_1_7"  />
</g>
<g id="a1_008"  >
<polygon points="359,85 364,80 390,80 390,90 364,90 359,85 " style="fill:#15d863; stroke-width:1; stroke:black; " description="&lt;b&gt;VF_0852&lt;/b&gt;&lt;br&gt;phenylalanine and histidine ammonia-lyase&lt;br&gt;Location: 10804 - 9269&lt;br&gt;&lt;br&gt;&lt;b&gt;BlastP hit with ctg5_98&lt;/b&gt;&lt;br&gt;Percentage identity: 63&lt;br&gt;Percentage coverage: 100&lt;br&gt;BLAST bit score: 615&lt;br&gt;E-value: 2.63e-219" locus_tag="VF_0852" class="clusterblast-orf" id="dummy-1_h1_1_8"  />
</g>
<g id="a1_009"  >
<polygon points="389,85 394,80 423,80 423,90 394,90 389,85 " style="fill:#3c15d8; stroke-width:1; stroke:black; " description="&lt;b&gt;VF_0851&lt;/b&gt;&lt;br&gt;predicted acyltransferase&lt;br&gt;Location: 9279 - 7588&lt;br&gt;&lt;br&gt;&lt;b&gt;BlastP hit with ctg5_100&lt;/b&gt;&lt;br&gt;Percentage identity: 53&lt;br&gt;Percentage coverage: 98&lt;br&gt;BLAST bit score: 273&lt;br&gt;E-value: 8.45e-89" locus_tag="VF_0851" class="clusterblast-orf" id="dummy-1_h1_1_9"  />
</g>
<g id="a1_0010"  >
<polygon points="423,85 428,80 430,80 430,90 428,90 423,85 " style="fill:white; stroke-width:1; stroke:black; " description="&lt;b&gt;VF_0850&lt;/b&gt;&lt;br&gt;AMP-(fatty)acid ligase&lt;br&gt;Location: 7585 - 7211" locus_tag="VF_0850" class="clusterblast-orf" id="dummy-1_h1_1_10"  />
</g>
<g id="a1_0011"  >
<polygon points="431,85 436,80 458,80 458,90 436,90 431,85 " style="fill:white; stroke-width:1; stroke:black; " description="&lt;b&gt;VF_0849&lt;/b&gt;&lt;br&gt;AMP-(fatty)acid ligase&lt;br&gt;Location: 7197 - 5794" locus_tag="VF_0849" class="clusterblast-orf" id="dummy-1_h1_1_11"  />
</g>
<g id="a1_0012"  >
<polygon points="458,85 463,80 469,80 469,90 463,90 458,85 " style="fill:white; stroke-width:1; stroke:black; " description="&lt;b&gt;VF_0848&lt;/b&gt;&lt;br&gt;DNA gyrase subunit B&lt;br&gt;Location: 5833 - 5273" locus_tag="VF_0848" class="clusterblast-orf" id="dummy-1_h1_1_12"  />
</g>
<g id="a1_0013"  >
<polygon points="469,85 474,80 474,80 474,90 474,90 469,85 " style="fill:#b1d815; stroke-width:1; stroke:black; " description="&lt;b&gt;VF_0847&lt;/b&gt;&lt;br&gt;acyl carrier protein&lt;br&gt;Location: 5273 - 5016&lt;br&gt;&lt;br&gt;&lt;b&gt;BlastP hit with ctg5_103&lt;/b&gt;&lt;br&gt;Percentage identity: 53&lt;br&gt;Percentage coverage: 90&lt;br&gt;BLAST bit score: 83&lt;br&gt;E-value: 2.47e-22" locus_tag="VF_0847" class="clusterblast-orf" id="dummy-1_h1_1_13"  />
</g>
<g id="a1_0014"  >
<polygon points="474,85 479,80 480,80 480,90 479,90 474,85 " style="fill:#15d8d8; stroke-width:1; stroke:black; " description="&lt;b&gt;VF_0846&lt;/b&gt;&lt;br&gt;acyl carrier protein&lt;br&gt;Location: 5004 - 4708&lt;br&gt;&lt;br&gt;&lt;b&gt;BlastP hit with ctg5_104&lt;/b&gt;&lt;br&gt;Percentage identity: 65&lt;br&gt;Percentage coverage: 92&lt;br&gt;BLAST bit score: 105&lt;br&gt;E-value: 6.44e-31" locus_tag="VF_0846" class="clusterblast-orf" id="dummy-1_h1_1_14"  />
</g>
<g id="a1_0015"  >
<polygon points="479,85 484,80 495,80 495,90 484,90 479,85 " style="fill:white; stroke-width:1; stroke:black; " description="&lt;b&gt;VF_0845&lt;/b&gt;&lt;br&gt;1-acyl-sn-glycerol-3-phosphate acyltransferase&lt;br&gt;Location: 4739 - 3942" locus_tag="VF_0845" class="clusterblast-orf" id="dummy-1_h1_1_15"  />
</g>
<g id="a1_0016"  >
<polygon points="495,85 500,80 509,80 509,90 500,90 495,85 " style="fill:white; stroke-width:1; stroke:black; " description="&lt;b&gt;VF_0844&lt;/b&gt;&lt;br&gt;hypothetical protein&lt;br&gt;Location: 3937 - 3209" locus_tag="VF_0844" class="clusterblast-orf" id="dummy-1_h1_1_16"  />
</g>
<g id="a1_0017"  >
<polygon points="512,90 518,90 523,85 518,80 512,80 512,90 " style="fill:white; stroke-width:1; stroke:black; " description="&lt;b&gt;VF_0843&lt;/b&gt;&lt;br&gt;lipoprotein, putative&lt;br&gt;Location: 3079 - 2504" locus_tag="VF_0843" class="clusterblast-orf" id="dummy-1_h1_1_17"  />
</g>
<g id="a1_0018"  >
<polygon points="525,90 542,90 547,85 542,80 525,80 525,90 " style="fill:white; stroke-width:1; stroke:black; " description="&lt;b&gt;VF_0842&lt;/b&gt;&lt;br&gt;putative O-methyltransferase&lt;br&gt;Location: 2400 - 1333" locus_tag="VF_0842" class="clusterblast-orf" id="dummy-1_h1_1_18"  />
</g>
<g id="a1_0019"  >
<polygon points="549,90 568,90 573,85 568,80 549,80 549,90 " style="fill:#b115d8; stroke-width:1; stroke:black; " description="&lt;b&gt;VF_0841&lt;/b&gt;&lt;br&gt;dehydrogenase&lt;br&gt;Location: 1233 - 1&lt;br&gt;&lt;br&gt;&lt;b&gt;BlastP hit with ctg5_94&lt;/b&gt;&lt;br&gt;Percentage identity: 56&lt;br&gt;Percentage coverage: 97&lt;br&gt;BLAST bit score: 461&lt;br&gt;E-value: 1e-161" locus_tag="VF_0841" class="clusterblast-orf" id="dummy-1_h1_1_19"  />
</g>
</svg>
