<svg xmlns="http://www.w3.org/2000/svg" xmlns:xlink="http://www.w3.org/1999/xlink" version="1.1" x="0" y="0" height="50" width="800" viewBox="0 0 800 50" preserveAspectRatio="none"  >
<g label="Query sequence" class="clusterblast-cluster"  >
<text x="5" y="20" class="clusterblast-acc"  >
Query sequence</text>
<line x1="10" y1="35" x2="778.0" y2="35" style="stroke-width:1; stroke:grey; "  />
<polygon points="0,35 5,30 52,30 52,40 5,40 0,35 " style="fill:white; stroke-width:1; stroke:black; " description="&lt;b&gt;ctg8_37&lt;/b&gt;&lt;br&gt;ctg8 37&lt;br&gt;Location: 43779 - 45477" locus_tag="ctg8_37" class="clusterblast-orf" id="subclusterblast-1_q0_0_all"  />
<polygon points="55,35 60,30 75,30 75,40 60,40 55,35 " style="fill:white; stroke-width:1; stroke:black; " description="&lt;b&gt;ctg8_38&lt;/b&gt;&lt;br&gt;ctg8 38&lt;br&gt;Location: 45571 - 46222" locus_tag="ctg8_38" class="clusterblast-orf" id="subclusterblast-1_q1_0_all"  />
<polygon points="80,40 100,40 105,35 100,30 80,30 80,40 " style="fill:white; stroke-width:1; stroke:black; " description="&lt;b&gt;ctg8_39&lt;/b&gt;&lt;br&gt;ctg8 39&lt;br&gt;Location: 46390 - 47203" locus_tag="ctg8_39" class="clusterblast-orf" id="subclusterblast-1_q2_0_all"  />
<polygon points="109,40 145,40 150,35 145,30 109,30 109,40 " style="fill:white; stroke-width:1; stroke:black; " description="&lt;b&gt;ctg8_40&lt;/b&gt;&lt;br&gt;ctg8 40&lt;br&gt;Location: 47330 - 48659" locus_tag="ctg8_40" class="clusterblast-orf" id="subclusterblast-1_q3_0_all"  />
<polygon points="154,35 159,30 192,30 192,40 159,40 154,35 " style="fill:white; stroke-width:1; stroke:black; " description="&lt;b&gt;ctg8_41&lt;/b&gt;&lt;br&gt;ctg8 41&lt;br&gt;Location: 48788 - 50018" locus_tag="ctg8_41" class="clusterblast-orf" id="subclusterblast-1_q4_0_all"  />
<polygon points="197,40 221,40 226,35 221,30 197,30 197,40 " style="fill:white; stroke-width:1; stroke:black; " description="&lt;b&gt;ctg8_42&lt;/b&gt;&lt;br&gt;ctg8 42&lt;br&gt;Location: 50184 - 51120" locus_tag="ctg8_42" class="clusterblast-orf" id="subclusterblast-1_q5_0_all"  />
<polygon points="229,40 236,40 241,35 236,30 229,30 229,40 " style="fill:white; stroke-width:1; stroke:black; " description="&lt;b&gt;ctg8_43&lt;/b&gt;&lt;br&gt;ctg8 43&lt;br&gt;Location: 51219 - 51612" locus_tag="ctg8_43" class="clusterblast-orf" id="subclusterblast-1_q6_0_all"  />
<polygon points="242,40 264,40 269,35 264,30 242,30 242,40 " style="fill:white; stroke-width:1; stroke:black; " description="&lt;b&gt;ctg8_44&lt;/b&gt;&lt;br&gt;ctg8 44&lt;br&gt;Location: 51629 - 52529" locus_tag="ctg8_44" class="clusterblast-orf" id="subclusterblast-1_q7_0_all"  />
<polygon points="286,35 291,30 451,30 451,40 291,40 286,35 " style="fill:white; stroke-width:1; stroke:black; " description="&lt;b&gt;ctg8_45&lt;/b&gt;&lt;br&gt;ctg8 45&lt;br&gt;Location: 53077 - 58414" locus_tag="ctg8_45" class="clusterblast-orf" id="subclusterblast-1_q8_0_all"  />
<polygon points="453,35 458,30 503,30 503,40 458,40 453,35 " style="fill:white; stroke-width:1; stroke:black; " description="&lt;b&gt;ctg8_46&lt;/b&gt;&lt;br&gt;ctg8 46&lt;br&gt;Location: 58481 - 60110" locus_tag="ctg8_46" class="clusterblast-orf" id="subclusterblast-1_q9_0_all"  />
<polygon points="508,40 539,40 544,35 539,30 508,30 508,40 " style="fill:white; stroke-width:1; stroke:black; " description="&lt;b&gt;ctg8_47&lt;/b&gt;&lt;br&gt;ctg8 47&lt;br&gt;Location: 60275 - 61439" locus_tag="ctg8_47" class="clusterblast-orf" id="subclusterblast-1_q10_0_all"  />
<polygon points="544,40 589,40 594,35 589,30 544,30 544,40 " style="fill:white; stroke-width:1; stroke:black; " description="&lt;b&gt;ctg8_48&lt;/b&gt;&lt;br&gt;ctg8 48&lt;br&gt;Location: 61451 - 63059" locus_tag="ctg8_48" class="clusterblast-orf" id="subclusterblast-1_q11_0_all"  />
<polygon points="594,40 614,40 619,35 614,30 594,30 594,40 " style="fill:white; stroke-width:1; stroke:black; " description="&lt;b&gt;ctg8_49&lt;/b&gt;&lt;br&gt;ctg8 49&lt;br&gt;Location: 63073 - 63880" locus_tag="ctg8_49" class="clusterblast-orf" id="subclusterblast-1_q12_0_all"  />
<polygon points="619,40 674,40 679,35 674,30 619,30 619,40 " style="fill:white; stroke-width:1; stroke:black; " description="&lt;b&gt;ctg8_50&lt;/b&gt;&lt;br&gt;ctg8 50&lt;br&gt;Location: 63876 - 65802" locus_tag="ctg8_50" class="clusterblast-orf" id="subclusterblast-1_q13_0_all"  />
<polygon points="678,35 683,30 698,30 698,40 683,40 678,35 " style="fill:white; stroke-width:1; stroke:black; " description="&lt;b&gt;ctg8_51&lt;/b&gt;&lt;br&gt;ctg8 51&lt;br&gt;Location: 65798 - 66434" locus_tag="ctg8_51" class="clusterblast-orf" id="subclusterblast-1_q14_0_all"  />
<polygon points="702,40 708,40 713,35 708,30 702,30 702,40 " style="fill:white; stroke-width:1; stroke:black; " description="&lt;b&gt;ctg8_52&lt;/b&gt;&lt;br&gt;ctg8 52&lt;br&gt;Location: 66564 - 66915" locus_tag="ctg8_52" class="clusterblast-orf" id="subclusterblast-1_q15_0_all"  />
<polygon points="727,40 758,40 763,35 758,30 727,30 727,40 " style="fill:white; stroke-width:1; stroke:black; " description="&lt;b&gt;ctg8_53&lt;/b&gt;&lt;br&gt;ctg8 53&lt;br&gt;Location: 67380 - 68532" locus_tag="ctg8_53" class="clusterblast-orf" id="subclusterblast-1_q16_0_all"  />
<polygon points="763,35 768,30 780,30 780,40 768,40 763,35 " style="fill:white; stroke-width:1; stroke:black; " description="&lt;b&gt;ctg8_54&lt;/b&gt;&lt;br&gt;ctg8 54&lt;br&gt;Location: 68549 - 69089" locus_tag="ctg8_54" class="clusterblast-orf" id="subclusterblast-1_q17_0_all"  />
</g>
</svg>
