<svg xmlns="http://www.w3.org/2000/svg" xmlns:xlink="http://www.w3.org/1999/xlink" version="1.1" x="0" y="0" height="230" width="800" viewBox="0 0 800 230" preserveAspectRatio="none"  >
<g label="Query sequence" class="clusterblast-cluster"  >
<text x="5" y="20" class="clusterblast-acc"  >
Query sequence</text>
<line x1="10" y1="35" x2="778.0" y2="35" style="stroke-width:1; stroke:grey; "  />
<polygon points="3,40 11,40 16,35 11,30 3,30 3,40 " style="fill:#d81515; stroke-width:1; stroke:black; " description="&lt;b&gt;ctg3_377&lt;/b&gt;&lt;br&gt;ctg3 377&lt;br&gt;Location: 419808 - 420000" locus_tag="ctg3_377" class="clusterblast-orf" id="dummy-3_q0_0_all"  />
<polygon points="36,40 169,40 174,35 169,30 36,30 36,40 " style="fill:#3cd815; stroke-width:1; stroke:black; " description="&lt;b&gt;ctg3_378&lt;/b&gt;&lt;br&gt;ctg3 378&lt;br&gt;Location: 420307 - 422395" locus_tag="ctg3_378" class="clusterblast-orf" id="dummy-3_q1_0_all"  />
<polygon points="178,35 183,30 188,30 188,40 183,40 178,35 " style="fill:#1563d8; stroke-width:1; stroke:black; " description="&lt;b&gt;ctg3_379&lt;/b&gt;&lt;br&gt;ctg3 379&lt;br&gt;Location: 422449 - 422602" locus_tag="ctg3_379" class="clusterblast-orf" id="dummy-3_q2_0_all"  />
<polygon points="210,40 259,40 264,35 259,30 210,30 210,40 " style="fill:#b115d8; stroke-width:1; stroke:black; " description="&lt;b&gt;ctg3_380&lt;/b&gt;&lt;br&gt;ctg3 380&lt;br&gt;Location: 422932 - 423748" locus_tag="ctg3_380" class="clusterblast-orf" id="dummy-3_q3_0_all"  />
<polygon points="280,40 288,40 293,35 288,30 280,30 280,40 " style="fill:#d88a15; stroke-width:1; stroke:black; " description="&lt;b&gt;ctg3_381&lt;/b&gt;&lt;br&gt;ctg3 381&lt;br&gt;Location: 423989 - 424193" locus_tag="ctg3_381" class="clusterblast-orf" id="dummy-3_q4_0_all"  />
<polygon points="294,35 299,30 309,30 309,40 299,40 294,35 " style="fill:#15d863; stroke-width:1; stroke:black; " description="&lt;b&gt;ctg3_382&lt;/b&gt;&lt;br&gt;ctg3 382&lt;br&gt;Location: 424200 - 424428" locus_tag="ctg3_382" class="clusterblast-orf" id="dummy-3_q5_0_all"  />
<polygon points="313,35 318,30 391,30 391,40 318,40 313,35 " style="fill:#3c15d8; stroke-width:1; stroke:black; " description="&lt;b&gt;ctg3_383&lt;/b&gt;&lt;br&gt;ctg3 383&lt;br&gt;Location: 424487 - 425672" locus_tag="ctg3_383" class="clusterblast-orf" id="dummy-3_q6_0_all"  />
<polygon points="403,35 408,30 518,30 518,40 408,40 403,35 " style="fill:#d8158a; stroke-width:1; stroke:black; " description="&lt;b&gt;ctg3_384&lt;/b&gt;&lt;br&gt;ctg3 384&lt;br&gt;Location: 425843 - 427592" locus_tag="ctg3_384" class="clusterblast-orf" id="dummy-3_q7_0_all"  />
<polygon points="518,35 523,30 636,30 636,40 523,40 518,35 " style="fill:#b1d815; stroke-width:1; stroke:black; " description="&lt;b&gt;ctg3_385&lt;/b&gt;&lt;br&gt;ctg3 385&lt;br&gt;Location: 427595 - 429368" locus_tag="ctg3_385" class="clusterblast-orf" id="dummy-3_q8_0_all"  />
<polygon points="645,35 650,30 777,30 777,40 650,40 645,35 " style="fill:#15d8d8; stroke-width:1; stroke:black; " description="&lt;b&gt;ctg3_386&lt;/b&gt;&lt;br&gt;ctg3 386&lt;br&gt;Location: 429503 - 431504" locus_tag="ctg3_386" class="clusterblast-orf" id="dummy-3_q9_0_all"  />
</g>
<g label="NZ_MSDI01000001" description="NZ_MSDI01000001 (628602-643460): Pseudomonas fluorescens strain E24 PF E24 co... (100% of genes show similarity), NAGGN" class="clusterblast-cluster"  >
<text x="5" y="70" class="clusterblast-acc"  >
<a xlink:href="https://antismash-db.secondarymetabolites.org/area.html?record=NZ_MSDI01000001&amp;start=628602&amp;end=643460" target="_blank">NZ_MSDI01000001 (628602-643460)</a>: Pseudomonas fluorescens strain E24 PF E24 co... (100% of genes show similarity), NAGGN</text>
<line x1="10" y1="85" x2="778.0" y2="85" style="stroke-width:1; stroke:grey; "  />
</g>
<g id="a3_000"  >
<polygon points="0,90 7,90 12,85 7,80 0,80 0,90 " style="fill:#d81515; stroke-width:1; stroke:black; " description="&lt;b&gt;BFW91_RS03275&lt;/b&gt;&lt;br&gt;PLDc N-terminal domain-containing protein&lt;br&gt;Location: 643250 - 643059&lt;br&gt;&lt;br&gt;&lt;b&gt;BlastP hit with ctg3_377&lt;/b&gt;&lt;br&gt;Percentage identity: 100&lt;br&gt;Percentage coverage: 100&lt;br&gt;BLAST bit score: 120&lt;br&gt;E-value: 2.37e-36" locus_tag="BFW91_RS03275" class="clusterblast-orf" id="dummy-3_h3_3_0"  />
</g>
<g id="a3_001"  >
<polygon points="39,90 172,90 177,85 172,80 39,80 39,90 " style="fill:#3cd815; stroke-width:1; stroke:black; " description="&lt;b&gt;BFW91_RS03270&lt;/b&gt;&lt;br&gt;LTA synthase family protein&lt;br&gt;Location: 642651 - 640564&lt;br&gt;&lt;br&gt;&lt;b&gt;BlastP hit with ctg3_378&lt;/b&gt;&lt;br&gt;Percentage identity: 99&lt;br&gt;Percentage coverage: 100&lt;br&gt;BLAST bit score: 1387&lt;br&gt;E-value: 0.0" locus_tag="BFW91_RS03270" class="clusterblast-orf" id="dummy-3_h3_3_1"  />
</g>
<g id="a3_002"  >
<polygon points="181,85 186,80 191,80 191,90 186,90 181,85 " style="fill:#1563d8; stroke-width:1; stroke:black; " description="&lt;b&gt;BFW91_RS03265&lt;/b&gt;&lt;br&gt;DUF3309 domain-containing protein&lt;br&gt;Location: 640509 - 640357&lt;br&gt;&lt;br&gt;&lt;b&gt;BlastP hit with ctg3_379&lt;/b&gt;&lt;br&gt;Percentage identity: 100&lt;br&gt;Percentage coverage: 100&lt;br&gt;BLAST bit score: 81&lt;br&gt;E-value: 1.06e-20" locus_tag="BFW91_RS03265" class="clusterblast-orf" id="dummy-3_h3_3_2"  />
</g>
<g id="a3_003"  >
<polygon points="213,90 262,90 267,85 262,80 213,80 213,90 " style="fill:#b115d8; stroke-width:1; stroke:black; " description="&lt;b&gt;BFW91_RS03260&lt;/b&gt;&lt;br&gt;SDR family oxidoreductase&lt;br&gt;Location: 640026 - 639211&lt;br&gt;&lt;br&gt;&lt;b&gt;BlastP hit with ctg3_380&lt;/b&gt;&lt;br&gt;Percentage identity: 99&lt;br&gt;Percentage coverage: 100&lt;br&gt;BLAST bit score: 528&lt;br&gt;E-value: 8.77e-191" locus_tag="BFW91_RS03260" class="clusterblast-orf" id="dummy-3_h3_3_3"  />
</g>
<g id="a3_004"  >
<polygon points="284,90 292,90 297,85 292,80 284,80 284,90 " style="fill:#d88a15; stroke-width:1; stroke:black; " description="&lt;b&gt;BFW91_RS03255&lt;/b&gt;&lt;br&gt;carbon storage regulator CsrA&lt;br&gt;Location: 638958 - 638755&lt;br&gt;&lt;br&gt;&lt;b&gt;BlastP hit with ctg3_381&lt;/b&gt;&lt;br&gt;Percentage identity: 87&lt;br&gt;Percentage coverage: 100&lt;br&gt;BLAST bit score: 115&lt;br&gt;E-value: 6.08e-34" locus_tag="BFW91_RS03255" class="clusterblast-orf" id="dummy-3_h3_3_4"  />
</g>
<g id="a3_005"  >
<polygon points="298,85 303,80 313,80 313,90 303,90 298,85 " style="fill:#15d863; stroke-width:1; stroke:black; " description="&lt;b&gt;BFW91_RS03250&lt;/b&gt;&lt;br&gt;YheU family protein&lt;br&gt;Location: 638747 - 638520&lt;br&gt;&lt;br&gt;&lt;b&gt;BlastP hit with ctg3_382&lt;/b&gt;&lt;br&gt;Percentage identity: 99&lt;br&gt;Percentage coverage: 100&lt;br&gt;BLAST bit score: 153&lt;br&gt;E-value: 8.24e-49" locus_tag="BFW91_RS03250" class="clusterblast-orf" id="dummy-3_h3_3_5"  />
</g>
<g id="a3_006"  >
<polygon points="317,85 322,80 395,80 395,90 322,90 317,85 " style="fill:#3c15d8; stroke-width:1; stroke:black; " description="&lt;b&gt;BFW91_RS03245&lt;/b&gt;&lt;br&gt;osmoprotectant NAGGN system M42 family peptidase&lt;br&gt;Location: 638460 - 637276&lt;br&gt;&lt;br&gt;&lt;b&gt;BlastP hit with ctg3_383&lt;/b&gt;&lt;br&gt;Percentage identity: 100&lt;br&gt;Percentage coverage: 100&lt;br&gt;BLAST bit score: 788&lt;br&gt;E-value: 1.13e-289" locus_tag="BFW91_RS03245" class="clusterblast-orf" id="dummy-3_h3_3_6"  />
</g>
<g id="a3_007"  >
<polygon points="405,85 410,80 521,80 521,90 410,90 405,85 " style="fill:#d8158a; stroke-width:1; stroke:black; " description="&lt;b&gt;BFW91_RS03240&lt;/b&gt;&lt;br&gt;N-acetylglutaminylglutamine synthetase&lt;br&gt;Location: 637127 - 635379&lt;br&gt;&lt;br&gt;&lt;b&gt;BlastP hit with ctg3_384&lt;/b&gt;&lt;br&gt;Percentage identity: 99&lt;br&gt;Percentage coverage: 100&lt;br&gt;BLAST bit score: 1154&lt;br&gt;E-value: 0.0" locus_tag="BFW91_RS03240" class="clusterblast-orf" id="dummy-3_h3_3_7"  />
</g>
<g id="a3_008"  >
<polygon points="521,85 526,80 638,80 638,90 526,90 521,85 " style="fill:#b1d815; stroke-width:1; stroke:black; " description="&lt;b&gt;BFW91_RS03235&lt;/b&gt;&lt;br&gt;N-acetylglutaminylglutamine amidotransferase&lt;br&gt;Location: 635375 - 633603&lt;br&gt;&lt;br&gt;&lt;b&gt;BlastP hit with ctg3_385&lt;/b&gt;&lt;br&gt;Percentage identity: 100&lt;br&gt;Percentage coverage: 100&lt;br&gt;BLAST bit score: 1193&lt;br&gt;E-value: 0.0" locus_tag="BFW91_RS03235" class="clusterblast-orf" id="dummy-3_h3_3_8"  />
</g>
<g id="a3_009"  >
<polygon points="647,85 652,80 779,80 779,90 652,90 647,85 " style="fill:#15d8d8; stroke-width:1; stroke:black; " description="&lt;b&gt;BFW91_RS03230&lt;/b&gt;&lt;br&gt;bifunctional tRNA (5-methylaminomethyl-2-thiouridine)(34)-methyltransferase MnmD/FAD-dependent 5-carboxymethylaminomethyl-2-thiouridine(34) oxidoreductase MnmC&lt;br&gt;Location: 633467 - 631467&lt;br&gt;&lt;br&gt;&lt;b&gt;BlastP hit with ctg3_386&lt;/b&gt;&lt;br&gt;Percentage identity: 94&lt;br&gt;Percentage coverage: 100&lt;br&gt;BLAST bit score: 1271&lt;br&gt;E-value: 0.0" locus_tag="BFW91_RS03230" class="clusterblast-orf" id="dummy-3_h3_3_9"  />
</g>
</svg>
