<svg xmlns="http://www.w3.org/2000/svg" xmlns:xlink="http://www.w3.org/1999/xlink" version="1.1" x="0" y="0" height="230" width="800" viewBox="0 0 800 230" preserveAspectRatio="none"  >
<g label="Query sequence" class="clusterblast-cluster"  >
<text x="5" y="20" class="clusterblast-acc"  >
Query sequence</text>
<line x1="10" y1="35" x2="778.0" y2="35" style="stroke-width:1; stroke:grey; "  />
<polygon points="0,35 5,30 58,30 58,40 5,40 0,35 " style="fill:#d81515; stroke-width:1; stroke:black; " description="&lt;b&gt;ctg13_89&lt;/b&gt;&lt;br&gt;ctg13 89&lt;br&gt;Location: 99853 - 100525" locus_tag="ctg13_89" class="clusterblast-orf" id="dummy-1_q0_0_all"  />
<polygon points="66,35 71,30 118,30 118,40 71,40 66,35 " style="fill:#3cd815; stroke-width:1; stroke:black; " description="&lt;b&gt;ctg13_90&lt;/b&gt;&lt;br&gt;ctg13 90&lt;br&gt;Location: 100622 - 101222" locus_tag="ctg13_90" class="clusterblast-orf" id="dummy-1_q1_0_all"  />
<polygon points="127,40 200,40 205,35 200,30 127,30 127,40 " style="fill:#1563d8; stroke-width:1; stroke:black; " description="&lt;b&gt;ctg13_91&lt;/b&gt;&lt;br&gt;ctg13 91&lt;br&gt;Location: 101325 - 102234" locus_tag="ctg13_91" class="clusterblast-orf" id="dummy-1_q2_0_all"  />
<polygon points="204,35 209,30 246,30 246,40 209,40 204,35 " style="fill:#b115d8; stroke-width:1; stroke:black; " description="&lt;b&gt;ctg13_92&lt;/b&gt;&lt;br&gt;ctg13 92&lt;br&gt;Location: 102230 - 102716" locus_tag="ctg13_92" class="clusterblast-orf" id="dummy-1_q3_0_all"  />
<polygon points="246,35 251,30 312,30 312,40 251,40 246,35 " style="fill:#d88a15; stroke-width:1; stroke:black; " description="&lt;b&gt;ctg13_93&lt;/b&gt;&lt;br&gt;ctg13 93&lt;br&gt;Location: 102712 - 103489" locus_tag="ctg13_93" class="clusterblast-orf" id="dummy-1_q4_0_all"  />
<polygon points="312,35 317,30 388,30 388,40 317,40 312,35 " style="fill:#15d863; stroke-width:1; stroke:black; " description="&lt;b&gt;ctg13_94&lt;/b&gt;&lt;br&gt;ctg13 94&lt;br&gt;Location: 103485 - 104367" locus_tag="ctg13_94" class="clusterblast-orf" id="dummy-1_q5_0_all"  />
<polygon points="390,35 395,30 416,30 416,40 395,40 390,35 " style="fill:#3c15d8; stroke-width:1; stroke:black; " description="&lt;b&gt;ctg13_95&lt;/b&gt;&lt;br&gt;ctg13 95&lt;br&gt;Location: 104390 - 104696" locus_tag="ctg13_95" class="clusterblast-orf" id="dummy-1_q6_0_all"  />
<polygon points="454,40 533,40 538,35 533,30 454,30 454,40 " style="fill:#d8158a; stroke-width:1; stroke:black; " description="&lt;b&gt;ctg13_96&lt;/b&gt;&lt;br&gt;ctg13 96&lt;br&gt;Location: 105137 - 106115" locus_tag="ctg13_96" class="clusterblast-orf" id="dummy-1_q7_0_all"  />
<polygon points="539,40 645,40 650,35 645,30 539,30 539,40 " style="fill:#b1d815; stroke-width:1; stroke:black; " description="&lt;b&gt;ctg13_97&lt;/b&gt;&lt;br&gt;ctg13 97&lt;br&gt;Location: 106127 - 107420" locus_tag="ctg13_97" class="clusterblast-orf" id="dummy-1_q8_0_all"  />
<polygon points="654,35 659,30 714,30 714,40 659,40 654,35 " style="fill:#15d8d8; stroke-width:1; stroke:black; " description="&lt;b&gt;ctg13_98&lt;/b&gt;&lt;br&gt;ctg13 98&lt;br&gt;Location: 107471 - 108173" locus_tag="ctg13_98" class="clusterblast-orf" id="dummy-1_q9_0_all"  />
<polygon points="714,35 719,30 780,30 780,40 719,40 714,35 " style="fill:#15d8d8; stroke-width:1; stroke:black; " description="&lt;b&gt;ctg13_99&lt;/b&gt;&lt;br&gt;ctg13 99&lt;br&gt;Location: 108174 - 108942" locus_tag="ctg13_99" class="clusterblast-orf" id="dummy-1_q10_0_all"  />
</g>
<g label="NZ_QKMB01000013" description="NZ_QKMB01000013 (112911-123790): Pseudomonas sp. OV286 Ga0215801 113, whole g... (81% of genes show similarity), bacteriocin" class="clusterblast-cluster"  >
<text x="5" y="70" class="clusterblast-acc"  >
<a xlink:href="https://antismash-db.secondarymetabolites.org/area.html?record=NZ_QKMB01000013&amp;start=112911&amp;end=123790" target="_blank">NZ_QKMB01000013 (112911-123790)</a>: Pseudomonas sp. OV286 Ga0215801 113, whole g... (81% of genes show similarity), bacteriocin</text>
<line x1="10" y1="85" x2="778.0" y2="85" style="stroke-width:1; stroke:grey; "  />
</g>
<g id="a1_000"  >
<polygon points="18,85 23,80 76,80 76,90 23,90 18,85 " style="fill:#d81515; stroke-width:1; stroke:black; " description="&lt;b&gt;C7535_RS17590&lt;/b&gt;&lt;br&gt;hypothetical protein&lt;br&gt;Location: 114279 - 114950&lt;br&gt;&lt;br&gt;&lt;b&gt;BlastP hit with ctg13_89&lt;/b&gt;&lt;br&gt;Percentage identity: 95&lt;br&gt;Percentage coverage: 100&lt;br&gt;BLAST bit score: 429&lt;br&gt;E-value: 3.29e-153" locus_tag="C7535_RS17590" class="clusterblast-orf" id="dummy-1_h1_7_0"  />
</g>
<g id="a1_001"  >
<polygon points="84,85 89,80 135,80 135,90 89,90 84,85 " style="fill:#3cd815; stroke-width:1; stroke:black; " description="&lt;b&gt;C7535_RS17595&lt;/b&gt;&lt;br&gt;short chain dehydrogenase&lt;br&gt;Location: 115048 - 115647&lt;br&gt;&lt;br&gt;&lt;b&gt;BlastP hit with ctg13_90&lt;/b&gt;&lt;br&gt;Percentage identity: 97&lt;br&gt;Percentage coverage: 100&lt;br&gt;BLAST bit score: 373&lt;br&gt;E-value: 6.72e-132" locus_tag="C7535_RS17595" class="clusterblast-orf" id="dummy-1_h1_7_1"  />
</g>
<g id="a1_002"  >
<polygon points="144,90 218,90 223,85 218,80 144,80 144,90 " style="fill:#1563d8; stroke-width:1; stroke:black; " description="&lt;b&gt;C7535_RS17600&lt;/b&gt;&lt;br&gt;LysR family transcriptional regulator&lt;br&gt;Location: 115752 - 116666&lt;br&gt;&lt;br&gt;&lt;b&gt;BlastP hit with ctg13_91&lt;/b&gt;&lt;br&gt;Percentage identity: 97&lt;br&gt;Percentage coverage: 100&lt;br&gt;BLAST bit score: 580&lt;br&gt;E-value: 2.74e-210" locus_tag="C7535_RS17600" class="clusterblast-orf" id="dummy-1_h1_7_2"  />
</g>
<g id="a1_003"  >
<polygon points="222,85 227,80 264,80 264,90 227,90 222,85 " style="fill:#b115d8; stroke-width:1; stroke:black; " description="&lt;b&gt;C7535_RS17605&lt;/b&gt;&lt;br&gt;DoxX family protein&lt;br&gt;Location: 116657 - 117142&lt;br&gt;&lt;br&gt;&lt;b&gt;BlastP hit with ctg13_92&lt;/b&gt;&lt;br&gt;Percentage identity: 96&lt;br&gt;Percentage coverage: 100&lt;br&gt;BLAST bit score: 299&lt;br&gt;E-value: 5e-104" locus_tag="C7535_RS17605" class="clusterblast-orf" id="dummy-1_h1_7_3"  />
</g>
<g id="a1_004"  >
<polygon points="263,85 268,80 330,80 330,90 268,90 263,85 " style="fill:#d88a15; stroke-width:1; stroke:black; " description="&lt;b&gt;C7535_RS17610&lt;/b&gt;&lt;br&gt;putative DNA-binding domain-containing protein&lt;br&gt;Location: 117139 - 117915&lt;br&gt;&lt;br&gt;&lt;b&gt;BlastP hit with ctg13_93&lt;/b&gt;&lt;br&gt;Percentage identity: 83&lt;br&gt;Percentage coverage: 100&lt;br&gt;BLAST bit score: 417&lt;br&gt;E-value: 1.24e-147" locus_tag="C7535_RS17610" class="clusterblast-orf" id="dummy-1_h1_7_4"  />
</g>
<g id="a1_005"  >
<polygon points="330,85 335,80 405,80 405,90 335,90 330,85 " style="fill:#15d863; stroke-width:1; stroke:black; " description="&lt;b&gt;C7535_RS17615&lt;/b&gt;&lt;br&gt;DUF692 domain-containing protein&lt;br&gt;Location: 117912 - 118790&lt;br&gt;&lt;br&gt;&lt;b&gt;BlastP hit with ctg13_94&lt;/b&gt;&lt;br&gt;Percentage identity: 92&lt;br&gt;Percentage coverage: 99&lt;br&gt;BLAST bit score: 545&lt;br&gt;E-value: 6.39e-197" locus_tag="C7535_RS17615" class="clusterblast-orf" id="dummy-1_h1_7_5"  />
</g>
<g id="a1_006"  >
<polygon points="407,85 412,80 434,80 434,90 412,90 407,85 " style="fill:#3c15d8; stroke-width:1; stroke:black; " description="&lt;b&gt;C7535_RS17620&lt;/b&gt;&lt;br&gt;DUF2282 domain-containing protein&lt;br&gt;Location: 118814 - 119122&lt;br&gt;&lt;br&gt;&lt;b&gt;BlastP hit with ctg13_95&lt;/b&gt;&lt;br&gt;Percentage identity: 82&lt;br&gt;Percentage coverage: 101&lt;br&gt;BLAST bit score: 148&lt;br&gt;E-value: 5.2e-46" locus_tag="C7535_RS17620" class="clusterblast-orf" id="dummy-1_h1_7_6"  />
</g>
<g id="a1_007"  >
<polygon points="448,85 453,80 509,80 509,90 453,90 448,85 " style="fill:#15d8d8; stroke-width:1; stroke:black; " description="&lt;b&gt;C7535_RS17625&lt;/b&gt;&lt;br&gt;ABC transporter ATP-binding protein&lt;br&gt;Location: 119295 - 119996&lt;br&gt;&lt;br&gt;&lt;b&gt;BlastP hit with ctg13_98&lt;/b&gt;&lt;br&gt;Percentage identity: 99&lt;br&gt;Percentage coverage: 100&lt;br&gt;BLAST bit score: 444&lt;br&gt;E-value: 3.98e-159&lt;br&gt;&lt;br&gt;&lt;b&gt;BlastP hit with ctg13_99&lt;/b&gt;&lt;br&gt;Percentage identity: 32&lt;br&gt;Percentage coverage: 100&lt;br&gt;BLAST bit score: 124&lt;br&gt;E-value: 7.45e-33" locus_tag="C7535_RS17625" class="clusterblast-orf" id="dummy-1_h1_7_7"  />
</g>
<g id="a1_008"  >
<polygon points="509,85 514,80 575,80 575,90 514,90 509,85 " style="fill:#15d8d8; stroke-width:1; stroke:black; " description="&lt;b&gt;C7535_RS17630&lt;/b&gt;&lt;br&gt;high-affinity branched-chain amino acid ABC transporter ATP-binding protein LivG&lt;br&gt;Location: 119998 - 120765&lt;br&gt;&lt;br&gt;&lt;b&gt;BlastP hit with ctg13_98&lt;/b&gt;&lt;br&gt;Percentage identity: 32&lt;br&gt;Percentage coverage: 107&lt;br&gt;BLAST bit score: 122&lt;br&gt;E-value: 3.74e-32&lt;br&gt;&lt;br&gt;&lt;b&gt;BlastP hit with ctg13_99&lt;/b&gt;&lt;br&gt;Percentage identity: 99&lt;br&gt;Percentage coverage: 100&lt;br&gt;BLAST bit score: 499&lt;br&gt;E-value: 3.43e-180" locus_tag="C7535_RS17630" class="clusterblast-orf" id="dummy-1_h1_7_8"  />
</g>
<g id="a1_009"  >
<polygon points="574,85 579,80 682,80 682,90 579,90 574,85 " style="fill:white; stroke-width:1; stroke:black; " description="&lt;b&gt;C7535_RS17635&lt;/b&gt;&lt;br&gt;high-affinity branched-chain amino acid ABC transporter permease LivM&lt;br&gt;Location: 120762 - 122015" locus_tag="C7535_RS17635" class="clusterblast-orf" id="dummy-1_h1_7_9"  />
</g>
<g id="a1_0010"  >
<polygon points="682,85 687,80 761,80 761,90 687,90 682,85 " style="fill:white; stroke-width:1; stroke:black; " description="&lt;b&gt;C7535_RS17640&lt;/b&gt;&lt;br&gt;high-affinity branched-chain amino acid ABC transporter permease LivH&lt;br&gt;Location: 122012 - 122935" locus_tag="C7535_RS17640" class="clusterblast-orf" id="dummy-1_h1_7_10"  />
</g>
</svg>
