<svg xmlns="http://www.w3.org/2000/svg" xmlns:xlink="http://www.w3.org/1999/xlink" version="1.1" x="0" y="0" height="230" width="800" viewBox="0 0 800 230" preserveAspectRatio="none"  >
<g label="Query sequence" class="clusterblast-cluster"  >
<text x="5" y="20" class="clusterblast-acc"  >
Query sequence</text>
<line x1="10" y1="35" x2="778.0" y2="35" style="stroke-width:1; stroke:grey; "  />
<polygon points="0,35 5,30 58,30 58,40 5,40 0,35 " style="fill:#d81515; stroke-width:1; stroke:black; " description="&lt;b&gt;ctg13_89&lt;/b&gt;&lt;br&gt;ctg13 89&lt;br&gt;Location: 99853 - 100525" locus_tag="ctg13_89" class="clusterblast-orf" id="dummy-1_q0_0_all"  />
<polygon points="66,35 71,30 118,30 118,40 71,40 66,35 " style="fill:#3cd815; stroke-width:1; stroke:black; " description="&lt;b&gt;ctg13_90&lt;/b&gt;&lt;br&gt;ctg13 90&lt;br&gt;Location: 100622 - 101222" locus_tag="ctg13_90" class="clusterblast-orf" id="dummy-1_q1_0_all"  />
<polygon points="127,40 200,40 205,35 200,30 127,30 127,40 " style="fill:#1563d8; stroke-width:1; stroke:black; " description="&lt;b&gt;ctg13_91&lt;/b&gt;&lt;br&gt;ctg13 91&lt;br&gt;Location: 101325 - 102234" locus_tag="ctg13_91" class="clusterblast-orf" id="dummy-1_q2_0_all"  />
<polygon points="204,35 209,30 246,30 246,40 209,40 204,35 " style="fill:#b115d8; stroke-width:1; stroke:black; " description="&lt;b&gt;ctg13_92&lt;/b&gt;&lt;br&gt;ctg13 92&lt;br&gt;Location: 102230 - 102716" locus_tag="ctg13_92" class="clusterblast-orf" id="dummy-1_q3_0_all"  />
<polygon points="246,35 251,30 312,30 312,40 251,40 246,35 " style="fill:#d88a15; stroke-width:1; stroke:black; " description="&lt;b&gt;ctg13_93&lt;/b&gt;&lt;br&gt;ctg13 93&lt;br&gt;Location: 102712 - 103489" locus_tag="ctg13_93" class="clusterblast-orf" id="dummy-1_q4_0_all"  />
<polygon points="312,35 317,30 388,30 388,40 317,40 312,35 " style="fill:#15d863; stroke-width:1; stroke:black; " description="&lt;b&gt;ctg13_94&lt;/b&gt;&lt;br&gt;ctg13 94&lt;br&gt;Location: 103485 - 104367" locus_tag="ctg13_94" class="clusterblast-orf" id="dummy-1_q5_0_all"  />
<polygon points="390,35 395,30 416,30 416,40 395,40 390,35 " style="fill:#3c15d8; stroke-width:1; stroke:black; " description="&lt;b&gt;ctg13_95&lt;/b&gt;&lt;br&gt;ctg13 95&lt;br&gt;Location: 104390 - 104696" locus_tag="ctg13_95" class="clusterblast-orf" id="dummy-1_q6_0_all"  />
<polygon points="454,40 533,40 538,35 533,30 454,30 454,40 " style="fill:#d8158a; stroke-width:1; stroke:black; " description="&lt;b&gt;ctg13_96&lt;/b&gt;&lt;br&gt;ctg13 96&lt;br&gt;Location: 105137 - 106115" locus_tag="ctg13_96" class="clusterblast-orf" id="dummy-1_q7_0_all"  />
<polygon points="539,40 645,40 650,35 645,30 539,30 539,40 " style="fill:#b1d815; stroke-width:1; stroke:black; " description="&lt;b&gt;ctg13_97&lt;/b&gt;&lt;br&gt;ctg13 97&lt;br&gt;Location: 106127 - 107420" locus_tag="ctg13_97" class="clusterblast-orf" id="dummy-1_q8_0_all"  />
<polygon points="654,35 659,30 714,30 714,40 659,40 654,35 " style="fill:#15d8d8; stroke-width:1; stroke:black; " description="&lt;b&gt;ctg13_98&lt;/b&gt;&lt;br&gt;ctg13 98&lt;br&gt;Location: 107471 - 108173" locus_tag="ctg13_98" class="clusterblast-orf" id="dummy-1_q9_0_all"  />
<polygon points="714,35 719,30 780,30 780,40 719,40 714,35 " style="fill:#15d8d8; stroke-width:1; stroke:black; " description="&lt;b&gt;ctg13_99&lt;/b&gt;&lt;br&gt;ctg13 99&lt;br&gt;Location: 108174 - 108942" locus_tag="ctg13_99" class="clusterblast-orf" id="dummy-1_q10_0_all"  />
</g>
<g label="NZ_CP007637" description="NZ_CP007637 (1454750-1463483): Pseudomonas simiae strain WCS417 genome (81% of genes show similarity), bacteriocin" class="clusterblast-cluster"  >
<text x="5" y="70" class="clusterblast-acc"  >
<a xlink:href="https://antismash-db.secondarymetabolites.org/area.html?record=NZ_CP007637&amp;start=1454750&amp;end=1463483" target="_blank">NZ_CP007637 (1454750-1463483)</a>: Pseudomonas simiae strain WCS417 genome (81% of genes show similarity), bacteriocin</text>
<line x1="10" y1="85" x2="778.0" y2="85" style="stroke-width:1; stroke:grey; "  />
</g>
<g id="a1_000"  >
<polygon points="15,85 20,80 72,80 72,90 20,90 15,85 " style="fill:#d81515; stroke-width:1; stroke:black; " description="&lt;b&gt;PS417_RS21275&lt;/b&gt;&lt;br&gt;membrane protein&lt;br&gt;Location: 1454751 - 1455422&lt;br&gt;&lt;br&gt;&lt;b&gt;BlastP hit with ctg13_89&lt;/b&gt;&lt;br&gt;Percentage identity: 92&lt;br&gt;Percentage coverage: 100&lt;br&gt;BLAST bit score: 416&lt;br&gt;E-value: 2.49e-148" locus_tag="PS417_RS21275" class="clusterblast-orf" id="dummy-1_h1_9_0"  />
</g>
<g id="a1_001"  >
<polygon points="81,85 86,80 132,80 132,90 86,90 81,85 " style="fill:#3cd815; stroke-width:1; stroke:black; " description="&lt;b&gt;PS417_RS21270&lt;/b&gt;&lt;br&gt;short chain dehydrogenase&lt;br&gt;Location: 1455519 - 1456118&lt;br&gt;&lt;br&gt;&lt;b&gt;BlastP hit with ctg13_90&lt;/b&gt;&lt;br&gt;Percentage identity: 96&lt;br&gt;Percentage coverage: 100&lt;br&gt;BLAST bit score: 367&lt;br&gt;E-value: 1.85e-129" locus_tag="PS417_RS21270" class="clusterblast-orf" id="dummy-1_h1_9_1"  />
</g>
<g id="a1_002"  >
<polygon points="141,90 214,90 219,85 214,80 141,80 141,90 " style="fill:#1563d8; stroke-width:1; stroke:black; " description="&lt;b&gt;PS417_RS21265&lt;/b&gt;&lt;br&gt;LysR family transcriptional regulator&lt;br&gt;Location: 1456224 - 1457132&lt;br&gt;&lt;br&gt;&lt;b&gt;BlastP hit with ctg13_91&lt;/b&gt;&lt;br&gt;Percentage identity: 96&lt;br&gt;Percentage coverage: 100&lt;br&gt;BLAST bit score: 574&lt;br&gt;E-value: 3.47e-208" locus_tag="PS417_RS21265" class="clusterblast-orf" id="dummy-1_h1_9_2"  />
</g>
<g id="a1_003"  >
<polygon points="219,85 224,80 260,80 260,90 224,90 219,85 " style="fill:#b115d8; stroke-width:1; stroke:black; " description="&lt;b&gt;PS417_RS21260&lt;/b&gt;&lt;br&gt;DoxX family protein&lt;br&gt;Location: 1457129 - 1457614&lt;br&gt;&lt;br&gt;&lt;b&gt;BlastP hit with ctg13_92&lt;/b&gt;&lt;br&gt;Percentage identity: 94&lt;br&gt;Percentage coverage: 99&lt;br&gt;BLAST bit score: 290&lt;br&gt;E-value: 1.61e-100" locus_tag="PS417_RS21260" class="clusterblast-orf" id="dummy-1_h1_9_3"  />
</g>
<g id="a1_004"  >
<polygon points="260,85 265,80 327,80 327,90 265,90 260,85 " style="fill:#d88a15; stroke-width:1; stroke:black; " description="&lt;b&gt;PS417_RS21255&lt;/b&gt;&lt;br&gt;DUF2063 domain-containing protein&lt;br&gt;Location: 1457611 - 1458387&lt;br&gt;&lt;br&gt;&lt;b&gt;BlastP hit with ctg13_93&lt;/b&gt;&lt;br&gt;Percentage identity: 80&lt;br&gt;Percentage coverage: 100&lt;br&gt;BLAST bit score: 397&lt;br&gt;E-value: 2.08e-139" locus_tag="PS417_RS21255" class="clusterblast-orf" id="dummy-1_h1_9_4"  />
</g>
<g id="a1_005"  >
<polygon points="327,85 332,80 402,80 402,90 332,90 327,85 " style="fill:#15d863; stroke-width:1; stroke:black; " description="&lt;b&gt;PS417_RS21250&lt;/b&gt;&lt;br&gt;DUF692 domain-containing protein&lt;br&gt;Location: 1458384 - 1459262&lt;br&gt;&lt;br&gt;&lt;b&gt;BlastP hit with ctg13_94&lt;/b&gt;&lt;br&gt;Percentage identity: 91&lt;br&gt;Percentage coverage: 99&lt;br&gt;BLAST bit score: 541&lt;br&gt;E-value: 3.03e-195" locus_tag="PS417_RS21250" class="clusterblast-orf" id="dummy-1_h1_9_5"  />
</g>
<g id="a1_006"  >
<polygon points="404,85 409,80 429,80 429,90 409,90 404,85 " style="fill:#3c15d8; stroke-width:1; stroke:black; " description="&lt;b&gt;PS417_RS21245&lt;/b&gt;&lt;br&gt;DUF2282 domain-containing protein&lt;br&gt;Location: 1459286 - 1459582&lt;br&gt;&lt;br&gt;&lt;b&gt;BlastP hit with ctg13_95&lt;/b&gt;&lt;br&gt;Percentage identity: 91&lt;br&gt;Percentage coverage: 100&lt;br&gt;BLAST bit score: 164&lt;br&gt;E-value: 2.58e-52" locus_tag="PS417_RS21245" class="clusterblast-orf" id="dummy-1_h1_9_6"  />
</g>
<g id="a1_007"  >
<polygon points="452,85 457,80 512,80 512,90 457,90 452,85 " style="fill:#15d8d8; stroke-width:1; stroke:black; " description="&lt;b&gt;PS417_RS21240&lt;/b&gt;&lt;br&gt;ABC transporter ATP-binding protein&lt;br&gt;Location: 1459843 - 1460544&lt;br&gt;&lt;br&gt;&lt;b&gt;BlastP hit with ctg13_98&lt;/b&gt;&lt;br&gt;Percentage identity: 99&lt;br&gt;Percentage coverage: 100&lt;br&gt;BLAST bit score: 446&lt;br&gt;E-value: 9.78e-160&lt;br&gt;&lt;br&gt;&lt;b&gt;BlastP hit with ctg13_99&lt;/b&gt;&lt;br&gt;Percentage identity: 32&lt;br&gt;Percentage coverage: 100&lt;br&gt;BLAST bit score: 122&lt;br&gt;E-value: 5.76e-32" locus_tag="PS417_RS21240" class="clusterblast-orf" id="dummy-1_h1_9_7"  />
</g>
<g id="a1_008"  >
<polygon points="512,85 517,80 578,80 578,90 517,90 512,85 " style="fill:#15d8d8; stroke-width:1; stroke:black; " description="&lt;b&gt;PS417_RS21235&lt;/b&gt;&lt;br&gt;ABC transporter ATP-binding protein&lt;br&gt;Location: 1460546 - 1461313&lt;br&gt;&lt;br&gt;&lt;b&gt;BlastP hit with ctg13_98&lt;/b&gt;&lt;br&gt;Percentage identity: 32&lt;br&gt;Percentage coverage: 107&lt;br&gt;BLAST bit score: 122&lt;br&gt;E-value: 3.74e-32&lt;br&gt;&lt;br&gt;&lt;b&gt;BlastP hit with ctg13_99&lt;/b&gt;&lt;br&gt;Percentage identity: 100&lt;br&gt;Percentage coverage: 100&lt;br&gt;BLAST bit score: 503&lt;br&gt;E-value: 1.45e-181" locus_tag="PS417_RS21235" class="clusterblast-orf" id="dummy-1_h1_9_8"  />
</g>
<g id="a1_009"  >
<polygon points="578,85 583,80 685,80 685,90 583,90 578,85 " style="fill:white; stroke-width:1; stroke:black; " description="&lt;b&gt;PS417_RS21230&lt;/b&gt;&lt;br&gt;high-affinity branched-chain amino acid ABC transporter permease LivM&lt;br&gt;Location: 1461310 - 1462563" locus_tag="PS417_RS21230" class="clusterblast-orf" id="dummy-1_h1_9_9"  />
</g>
<g id="a1_0010"  >
<polygon points="685,85 690,80 764,80 764,90 690,90 685,85 " style="fill:white; stroke-width:1; stroke:black; " description="&lt;b&gt;PS417_RS21225&lt;/b&gt;&lt;br&gt;high-affinity branched-chain amino acid ABC transporter permease LivH&lt;br&gt;Location: 1462560 - 1463483" locus_tag="PS417_RS21225" class="clusterblast-orf" id="dummy-1_h1_9_10"  />
</g>
</svg>
