<svg xmlns="http://www.w3.org/2000/svg" xmlns:xlink="http://www.w3.org/1999/xlink" version="1.1" x="0" y="0" height="230" width="800" viewBox="0 0 800 230" preserveAspectRatio="none"  >
<g label="Query sequence" class="clusterblast-cluster"  >
<text x="5" y="20" class="clusterblast-acc"  >
Query sequence</text>
<line x1="10" y1="35" x2="778.0" y2="35" style="stroke-width:1; stroke:grey; "  />
<polygon points="0,40 52,40 57,35 52,30 0,30 0,40 " style="fill:#d81515; stroke-width:1; stroke:black; " description="&lt;b&gt;ctg3_200&lt;/b&gt;&lt;br&gt;ctg3 200&lt;br&gt;Location: 228908 - 229742" locus_tag="ctg3_200" class="clusterblast-orf" id="dummy-1_q0_0_all"  />
<polygon points="58,40 90,40 95,35 90,30 58,30 58,40 " style="fill:#3cd815; stroke-width:1; stroke:black; " description="&lt;b&gt;ctg3_201&lt;/b&gt;&lt;br&gt;ctg3 201&lt;br&gt;Location: 229767 - 230313" locus_tag="ctg3_201" class="clusterblast-orf" id="dummy-1_q1_0_all"  />
<polygon points="102,35 107,30 246,30 246,40 107,40 102,35 " style="fill:#1563d8; stroke-width:1; stroke:black; " description="&lt;b&gt;ctg3_202&lt;/b&gt;&lt;br&gt;ctg3 202&lt;br&gt;Location: 230415 - 232536" locus_tag="ctg3_202" class="clusterblast-orf" id="dummy-1_q2_0_all"  />
<polygon points="246,35 251,30 328,30 328,40 251,40 246,35 " style="fill:#b115d8; stroke-width:1; stroke:black; " description="&lt;b&gt;ctg3_203&lt;/b&gt;&lt;br&gt;ctg3 203&lt;br&gt;Location: 232547 - 233759" locus_tag="ctg3_203" class="clusterblast-orf" id="dummy-1_q3_0_all"  />
<polygon points="328,35 333,30 458,30 458,40 333,40 328,35 " style="fill:#d88a15; stroke-width:1; stroke:black; " description="&lt;b&gt;ctg3_204&lt;/b&gt;&lt;br&gt;ctg3 204&lt;br&gt;Location: 233748 - 235674" locus_tag="ctg3_204" class="clusterblast-orf" id="dummy-1_q4_0_all"  />
<polygon points="484,35 489,30 497,30 497,40 489,40 484,35 " style="fill:#15d863; stroke-width:1; stroke:black; " description="&lt;b&gt;ctg3_205&lt;/b&gt;&lt;br&gt;ctg3 205&lt;br&gt;Location: 236056 - 236245" locus_tag="ctg3_205" class="clusterblast-orf" id="dummy-1_q5_0_all"  />
<polygon points="522,35 527,30 570,30 570,40 527,40 522,35 " style="fill:#3c15d8; stroke-width:1; stroke:black; " description="&lt;b&gt;ctg3_206&lt;/b&gt;&lt;br&gt;ctg3 206&lt;br&gt;Location: 236621 - 237335" locus_tag="ctg3_206" class="clusterblast-orf" id="dummy-1_q6_0_all"  />
<polygon points="571,35 576,30 615,30 615,40 576,40 571,35 " style="fill:#d8158a; stroke-width:1; stroke:black; " description="&lt;b&gt;ctg3_207&lt;/b&gt;&lt;br&gt;ctg3 207&lt;br&gt;Location: 237343 - 237994" locus_tag="ctg3_207" class="clusterblast-orf" id="dummy-1_q7_0_all"  />
<polygon points="615,35 620,30 687,30 687,40 620,40 615,35 " style="fill:#b1d815; stroke-width:1; stroke:black; " description="&lt;b&gt;ctg3_208&lt;/b&gt;&lt;br&gt;ctg3 208&lt;br&gt;Location: 237993 - 239052" locus_tag="ctg3_208" class="clusterblast-orf" id="dummy-1_q8_0_all"  />
<polygon points="710,40 775,40 780,35 775,30 710,30 710,40 " style="fill:#15d8d8; stroke-width:1; stroke:black; " description="&lt;b&gt;ctg3_209&lt;/b&gt;&lt;br&gt;ctg3 209&lt;br&gt;Location: 239395 - 240436" locus_tag="ctg3_209" class="clusterblast-orf" id="dummy-1_q9_0_all"  />
</g>
<g label="NZ_JACAOZ010000014" description="NZ_JACAOZ010000014 (275275-287201): Pseudomonas edaphica strain B7002 run0228... (100% of genes show similarity), siderophore" class="clusterblast-cluster"  >
<text x="5" y="70" class="clusterblast-acc"  >
<a xlink:href="https://antismash-db.secondarymetabolites.org/area.html?record=NZ_JACAOZ010000014&amp;start=275275&amp;end=287201" target="_blank">NZ_JACAOZ010000014 (275275-287201)</a>: Pseudomonas edaphica strain B7002 run0228... (100% of genes show similarity), siderophore</text>
<line x1="10" y1="85" x2="778.0" y2="85" style="stroke-width:1; stroke:grey; "  />
</g>
<g id="a1_000"  >
<polygon points="0,90 52,90 57,85 52,80 0,80 0,90 " style="fill:#d81515; stroke-width:1; stroke:black; " description="&lt;b&gt;HX797_RS18125&lt;/b&gt;&lt;br&gt;nucleoside triphosphate pyrophosphohydrolase&lt;br&gt;Location: 275471 - 276304&lt;br&gt;&lt;br&gt;&lt;b&gt;BlastP hit with ctg3_200&lt;/b&gt;&lt;br&gt;Percentage identity: 97&lt;br&gt;Percentage coverage: 100&lt;br&gt;BLAST bit score: 538&lt;br&gt;E-value: 1.07e-194" locus_tag="HX797_RS18125" class="clusterblast-orf" id="dummy-1_h1_8_0"  />
</g>
<g id="a1_001"  >
<polygon points="58,90 90,90 95,85 90,80 58,80 58,90 " style="fill:#3cd815; stroke-width:1; stroke:black; " description="&lt;b&gt;HX797_RS18130&lt;/b&gt;&lt;br&gt;DUF2058 domain-containing protein&lt;br&gt;Location: 276330 - 276875&lt;br&gt;&lt;br&gt;&lt;b&gt;BlastP hit with ctg3_201&lt;/b&gt;&lt;br&gt;Percentage identity: 97&lt;br&gt;Percentage coverage: 100&lt;br&gt;BLAST bit score: 330&lt;br&gt;E-value: 1.44e-115" locus_tag="HX797_RS18130" class="clusterblast-orf" id="dummy-1_h1_8_1"  />
</g>
<g id="a1_002"  >
<polygon points="100,85 105,80 243,80 243,90 105,90 100,85 " style="fill:#1563d8; stroke-width:1; stroke:black; " description="&lt;b&gt;HX797_RS18135&lt;/b&gt;&lt;br&gt;TonB-dependent receptor&lt;br&gt;Location: 276943 - 279063&lt;br&gt;&lt;br&gt;&lt;b&gt;BlastP hit with ctg3_202&lt;/b&gt;&lt;br&gt;Percentage identity: 94&lt;br&gt;Percentage coverage: 100&lt;br&gt;BLAST bit score: 1343&lt;br&gt;E-value: 0.0" locus_tag="HX797_RS18135" class="clusterblast-orf" id="dummy-1_h1_8_2"  />
</g>
<g id="a1_003"  >
<polygon points="243,85 248,80 326,80 326,90 248,90 243,85 " style="fill:#b115d8; stroke-width:1; stroke:black; " description="&lt;b&gt;HX797_RS18140&lt;/b&gt;&lt;br&gt;MFS transporter&lt;br&gt;Location: 279060 - 280286&lt;br&gt;&lt;br&gt;&lt;b&gt;BlastP hit with ctg3_203&lt;/b&gt;&lt;br&gt;Percentage identity: 93&lt;br&gt;Percentage coverage: 100&lt;br&gt;BLAST bit score: 712&lt;br&gt;E-value: 2.04e-259" locus_tag="HX797_RS18140" class="clusterblast-orf" id="dummy-1_h1_8_3"  />
</g>
<g id="a1_004"  >
<polygon points="325,85 330,80 456,80 456,90 330,90 325,85 " style="fill:#d88a15; stroke-width:1; stroke:black; " description="&lt;b&gt;HX797_RS18145&lt;/b&gt;&lt;br&gt;siderophore synthetase&lt;br&gt;Location: 280276 - 282201&lt;br&gt;&lt;br&gt;&lt;b&gt;BlastP hit with ctg3_204&lt;/b&gt;&lt;br&gt;Percentage identity: 86&lt;br&gt;Percentage coverage: 100&lt;br&gt;BLAST bit score: 1122&lt;br&gt;E-value: 0.0" locus_tag="HX797_RS18145" class="clusterblast-orf" id="dummy-1_h1_8_4"  />
</g>
<g id="a1_005"  >
<polygon points="482,85 487,80 494,80 494,90 487,90 482,85 " style="fill:#15d863; stroke-width:1; stroke:black; " description="&lt;b&gt;HX797_RS18150&lt;/b&gt;&lt;br&gt;hypothetical protein&lt;br&gt;Location: 282586 - 282774&lt;br&gt;&lt;br&gt;&lt;b&gt;BlastP hit with ctg3_205&lt;/b&gt;&lt;br&gt;Percentage identity: 92&lt;br&gt;Percentage coverage: 100&lt;br&gt;BLAST bit score: 119&lt;br&gt;E-value: 6.34e-36" locus_tag="HX797_RS18150" class="clusterblast-orf" id="dummy-1_h1_8_5"  />
</g>
<g id="a1_006"  >
<polygon points="520,85 525,80 568,80 568,90 525,90 520,85 " style="fill:#3c15d8; stroke-width:1; stroke:black; " description="&lt;b&gt;HX797_RS18155&lt;/b&gt;&lt;br&gt;DUF3108 domain-containing protein&lt;br&gt;Location: 283151 - 283864&lt;br&gt;&lt;br&gt;&lt;b&gt;BlastP hit with ctg3_206&lt;/b&gt;&lt;br&gt;Percentage identity: 92&lt;br&gt;Percentage coverage: 100&lt;br&gt;BLAST bit score: 427&lt;br&gt;E-value: 5.56e-152" locus_tag="HX797_RS18155" class="clusterblast-orf" id="dummy-1_h1_8_6"  />
</g>
<g id="a1_007"  >
<polygon points="569,85 574,80 613,80 613,90 574,90 569,85 " style="fill:#d8158a; stroke-width:1; stroke:black; " description="&lt;b&gt;HX797_RS18160&lt;/b&gt;&lt;br&gt;phosphoribosylglycinamide formyltransferase&lt;br&gt;Location: 283873 - 284523&lt;br&gt;&lt;br&gt;&lt;b&gt;BlastP hit with ctg3_207&lt;/b&gt;&lt;br&gt;Percentage identity: 97&lt;br&gt;Percentage coverage: 100&lt;br&gt;BLAST bit score: 421&lt;br&gt;E-value: 3.06e-150" locus_tag="HX797_RS18160" class="clusterblast-orf" id="dummy-1_h1_8_7"  />
</g>
<g id="a1_008"  >
<polygon points="613,85 618,80 684,80 684,90 618,90 613,85 " style="fill:#b1d815; stroke-width:1; stroke:black; " description="&lt;b&gt;HX797_RS18165&lt;/b&gt;&lt;br&gt;phosphoribosylformylglycinamidine cyclo-ligase&lt;br&gt;Location: 284523 - 285581&lt;br&gt;&lt;br&gt;&lt;b&gt;BlastP hit with ctg3_208&lt;/b&gt;&lt;br&gt;Percentage identity: 99&lt;br&gt;Percentage coverage: 100&lt;br&gt;BLAST bit score: 696&lt;br&gt;E-value: 8.08e-255" locus_tag="HX797_RS18165" class="clusterblast-orf" id="dummy-1_h1_8_8"  />
</g>
<g id="a1_009"  >
<polygon points="708,90 774,90 779,85 774,80 708,80 708,90 " style="fill:#15d8d8; stroke-width:1; stroke:black; " description="&lt;b&gt;HX797_RS18170&lt;/b&gt;&lt;br&gt;DUF2066 domain-containing protein&lt;br&gt;Location: 285937 - 286977&lt;br&gt;&lt;br&gt;&lt;b&gt;BlastP hit with ctg3_209&lt;/b&gt;&lt;br&gt;Percentage identity: 94&lt;br&gt;Percentage coverage: 100&lt;br&gt;BLAST bit score: 642&lt;br&gt;E-value: 1.57e-233" locus_tag="HX797_RS18170" class="clusterblast-orf" id="dummy-1_h1_8_9"  />
</g>
</svg>
