<svg xmlns="http://www.w3.org/2000/svg" xmlns:xlink="http://www.w3.org/1999/xlink" version="1.1" x="0" y="0" height="230" width="800" viewBox="0 0 800 230" preserveAspectRatio="none"  >
<g label="Query sequence" class="clusterblast-cluster"  >
<text x="5" y="20" class="clusterblast-acc"  >
Query sequence</text>
<line x1="10" y1="35" x2="778.0" y2="35" style="stroke-width:1; stroke:grey; "  />
<polygon points="0,40 2,35 0,30 0,40 " style="fill:white; stroke-width:1; stroke:black; " description="&lt;b&gt;ctg1_30&lt;/b&gt;&lt;br&gt;ctg1 30&lt;br&gt;Location: 34933 - 35194" locus_tag="ctg1_30" class="clusterblast-orf" id="dummy-1_q0_0_all"  />
<polygon points="3,35 8,30 12,30 12,40 8,40 3,35 " style="fill:white; stroke-width:1; stroke:black; " description="&lt;b&gt;ctg1_31&lt;/b&gt;&lt;br&gt;ctg1 31&lt;br&gt;Location: 35269 - 36094" locus_tag="ctg1_31" class="clusterblast-orf" id="dummy-1_q1_0_all"  />
<polygon points="12,35 17,30 27,30 27,40 17,40 12,35 " style="fill:#d81515; stroke-width:1; stroke:black; " description="&lt;b&gt;ctg1_32&lt;/b&gt;&lt;br&gt;ctg1 32&lt;br&gt;Location: 36090 - 37614" locus_tag="ctg1_32" class="clusterblast-orf" id="dummy-1_q2_0_all"  />
<polygon points="27,35 32,30 38,30 38,40 32,40 27,35 " style="fill:#63d815; stroke-width:1; stroke:black; " description="&lt;b&gt;ctg1_33&lt;/b&gt;&lt;br&gt;ctg1 33&lt;br&gt;Location: 37610 - 38594" locus_tag="ctg1_33" class="clusterblast-orf" id="dummy-1_q3_0_all"  />
<polygon points="40,40 42,35 40,30 40,40 " style="fill:#15b1d8; stroke-width:1; stroke:black; " description="&lt;b&gt;ctg1_34&lt;/b&gt;&lt;br&gt;ctg1 34&lt;br&gt;Location: 38863 - 39040" locus_tag="ctg1_34" class="clusterblast-orf" id="dummy-1_q4_0_all"  />
<polygon points="44,40 57,40 62,35 57,30 44,30 44,40 " style="fill:white; stroke-width:1; stroke:black; " description="&lt;b&gt;ctg1_35&lt;/b&gt;&lt;br&gt;ctg1 35&lt;br&gt;Location: 39204 - 40947" locus_tag="ctg1_35" class="clusterblast-orf" id="dummy-1_q5_0_all"  />
<polygon points="63,40 81,40 86,35 81,30 63,30 63,40 " style="fill:white; stroke-width:1; stroke:black; " description="&lt;b&gt;ctg1_36&lt;/b&gt;&lt;br&gt;ctg1 36&lt;br&gt;Location: 41073 - 43302" locus_tag="ctg1_36" class="clusterblast-orf" id="dummy-1_q6_0_all"  />
<polygon points="88,40 90,35 88,30 88,40 " style="fill:white; stroke-width:1; stroke:black; " description="&lt;b&gt;ctg1_37&lt;/b&gt;&lt;br&gt;ctg1 37&lt;br&gt;Location: 43443 - 43665" locus_tag="ctg1_37" class="clusterblast-orf" id="dummy-1_q7_0_all"  />
<polygon points="91,35 96,30 96,30 96,40 96,40 91,35 " style="fill:white; stroke-width:1; stroke:black; " description="&lt;b&gt;ctg1_38&lt;/b&gt;&lt;br&gt;ctg1 38&lt;br&gt;Location: 43766 - 44258" locus_tag="ctg1_38" class="clusterblast-orf" id="dummy-1_q8_0_all"  />
<polygon points="98,35 103,30 109,30 109,40 103,40 98,35 " style="fill:white; stroke-width:1; stroke:black; " description="&lt;b&gt;ctg1_39&lt;/b&gt;&lt;br&gt;ctg1 39&lt;br&gt;Location: 44420 - 45527" locus_tag="ctg1_39" class="clusterblast-orf" id="dummy-1_q9_0_all"  />
<polygon points="110,35 113,30 113,40 110,35 " style="fill:white; stroke-width:1; stroke:black; " description="&lt;b&gt;ctg1_40&lt;/b&gt;&lt;br&gt;ctg1 40&lt;br&gt;Location: 45542 - 45878" locus_tag="ctg1_40" class="clusterblast-orf" id="dummy-1_q10_0_all"  />
<polygon points="114,35 119,30 121,30 121,40 119,40 114,35 " style="fill:white; stroke-width:1; stroke:black; " description="&lt;b&gt;ctg1_41&lt;/b&gt;&lt;br&gt;ctg1 41&lt;br&gt;Location: 45930 - 46647" locus_tag="ctg1_41" class="clusterblast-orf" id="dummy-1_q11_0_all"  />
<polygon points="125,35 130,30 153,30 153,40 130,40 125,35 " style="fill:white; stroke-width:1; stroke:black; " description="&lt;b&gt;ctg1_42&lt;/b&gt;&lt;br&gt;ctg1 42&lt;br&gt;Location: 47050 - 49708" locus_tag="ctg1_42" class="clusterblast-orf" id="dummy-1_q12_0_all"  />
<polygon points="153,35 158,30 161,30 161,40 158,40 153,35 " style="fill:white; stroke-width:1; stroke:black; " description="&lt;b&gt;ctg1_43&lt;/b&gt;&lt;br&gt;ctg1 43&lt;br&gt;Location: 49721 - 50552" locus_tag="ctg1_43" class="clusterblast-orf" id="dummy-1_q13_0_all"  />
<polygon points="161,35 164,30 164,40 161,35 " style="fill:white; stroke-width:1; stroke:black; " description="&lt;b&gt;ctg1_44&lt;/b&gt;&lt;br&gt;ctg1 44&lt;br&gt;Location: 50548 - 50809" locus_tag="ctg1_44" class="clusterblast-orf" id="dummy-1_q14_0_all"  />
<polygon points="164,35 169,30 173,30 173,40 169,40 164,35 " style="fill:white; stroke-width:1; stroke:black; " description="&lt;b&gt;ctg1_45&lt;/b&gt;&lt;br&gt;ctg1 45&lt;br&gt;Location: 50823 - 51693" locus_tag="ctg1_45" class="clusterblast-orf" id="dummy-1_q15_0_all"  />
<polygon points="173,35 178,30 183,30 183,40 178,40 173,35 " style="fill:white; stroke-width:1; stroke:black; " description="&lt;b&gt;ctg1_46&lt;/b&gt;&lt;br&gt;ctg1 46&lt;br&gt;Location: 51689 - 52661" locus_tag="ctg1_46" class="clusterblast-orf" id="dummy-1_q16_0_all"  />
<polygon points="183,35 188,30 192,30 192,40 188,40 183,35 " style="fill:white; stroke-width:1; stroke:black; " description="&lt;b&gt;ctg1_47&lt;/b&gt;&lt;br&gt;ctg1 47&lt;br&gt;Location: 52660 - 53551" locus_tag="ctg1_47" class="clusterblast-orf" id="dummy-1_q17_0_all"  />
<polygon points="194,40 199,40 204,35 199,30 194,30 194,40 " style="fill:white; stroke-width:1; stroke:black; " description="&lt;b&gt;ctg1_48&lt;/b&gt;&lt;br&gt;ctg1 48&lt;br&gt;Location: 53694 - 54642" locus_tag="ctg1_48" class="clusterblast-orf" id="dummy-1_q18_0_all"  />
<polygon points="204,35 209,30 220,30 220,40 209,40 204,35 " style="fill:#b115d8; stroke-width:1; stroke:black; " description="&lt;b&gt;ctg1_49&lt;/b&gt;&lt;br&gt;ctg1 49&lt;br&gt;Location: 54634 - 56254" locus_tag="ctg1_49" class="clusterblast-orf" id="dummy-1_q19_0_all"  />
<polygon points="222,40 231,40 236,35 231,30 222,30 222,40 " style="fill:#d86315; stroke-width:1; stroke:black; " description="&lt;b&gt;ctg1_50&lt;/b&gt;&lt;br&gt;ctg1 50&lt;br&gt;Location: 56396 - 57752" locus_tag="ctg1_50" class="clusterblast-orf" id="dummy-1_q20_0_all"  />
<polygon points="236,40 244,40 249,35 244,30 236,30 236,40 " style="fill:#15d815; stroke-width:1; stroke:black; " description="&lt;b&gt;ctg1_51&lt;/b&gt;&lt;br&gt;ctg1 51&lt;br&gt;Location: 57770 - 59051" locus_tag="ctg1_51" class="clusterblast-orf" id="dummy-1_q21_0_all"  />
<polygon points="250,40 254,40 259,35 254,30 250,30 250,40 " style="fill:#1563d8; stroke-width:1; stroke:black; " description="&lt;b&gt;ctg1_52&lt;/b&gt;&lt;br&gt;ctg1 52&lt;br&gt;Location: 59084 - 59957" locus_tag="ctg1_52" class="clusterblast-orf" id="dummy-1_q22_0_all"  />
<polygon points="260,35 265,30 269,30 269,40 265,40 260,35 " style="fill:#d815b1; stroke-width:1; stroke:black; " description="&lt;b&gt;ctg1_53&lt;/b&gt;&lt;br&gt;ctg1 53&lt;br&gt;Location: 60100 - 60928" locus_tag="ctg1_53" class="clusterblast-orf" id="dummy-1_q23_0_all"  />
<polygon points="271,40 283,40 288,35 283,30 271,30 271,40 " style="fill:#d8b115; stroke-width:1; stroke:black; " description="&lt;b&gt;ctg1_54&lt;/b&gt;&lt;br&gt;ctg1 54&lt;br&gt;Location: 61126 - 62779" locus_tag="ctg1_54" class="clusterblast-orf" id="dummy-1_q24_0_all"  />
<polygon points="289,40 309,40 314,35 309,30 289,30 289,40 " style="fill:#15d863; stroke-width:1; stroke:black; " description="&lt;b&gt;ctg1_55&lt;/b&gt;&lt;br&gt;ctg1 55&lt;br&gt;Location: 62888 - 65330" locus_tag="ctg1_55" class="clusterblast-orf" id="dummy-1_q25_0_all"  />
<polygon points="316,35 321,30 439,30 439,40 321,40 316,35 " style="fill:#1515d8; stroke-width:1; stroke:black; " description="&lt;b&gt;ctg1_56&lt;/b&gt;&lt;br&gt;ctg1 56&lt;br&gt;Location: 65474 - 77327" locus_tag="ctg1_56" class="clusterblast-orf" id="dummy-1_q26_0_all"  />
<polygon points="439,35 444,30 584,30 584,40 444,40 439,35 " style="fill:#1515d8; stroke-width:1; stroke:black; " description="&lt;b&gt;ctg1_57&lt;/b&gt;&lt;br&gt;ctg1 57&lt;br&gt;Location: 77330 - 91385" locus_tag="ctg1_57" class="clusterblast-orf" id="dummy-1_q27_0_all"  />
<polygon points="587,40 589,35 587,30 587,40 " style="fill:#d81563; stroke-width:1; stroke:black; " description="&lt;b&gt;ctg1_58&lt;/b&gt;&lt;br&gt;ctg1 58&lt;br&gt;Location: 91594 - 91846" locus_tag="ctg1_58" class="clusterblast-orf" id="dummy-1_q28_0_all"  />
<polygon points="589,40 593,35 589,30 589,40 " style="fill:#b1d815; stroke-width:1; stroke:black; " description="&lt;b&gt;ctg1_59&lt;/b&gt;&lt;br&gt;ctg1 59&lt;br&gt;Location: 91842 - 92208" locus_tag="ctg1_59" class="clusterblast-orf" id="dummy-1_q29_0_all"  />
<polygon points="593,35 598,30 605,30 605,40 598,40 593,35 " style="fill:#15d8b1; stroke-width:1; stroke:black; " description="&lt;b&gt;ctg1_60&lt;/b&gt;&lt;br&gt;ctg1 60&lt;br&gt;Location: 92190 - 93381" locus_tag="ctg1_60" class="clusterblast-orf" id="dummy-1_q30_0_all"  />
<polygon points="607,40 608,40 613,35 608,30 607,30 607,40 " style="fill:#6315d8; stroke-width:1; stroke:black; " description="&lt;b&gt;ctg1_61&lt;/b&gt;&lt;br&gt;ctg1 61&lt;br&gt;Location: 93523 - 94117" locus_tag="ctg1_61" class="clusterblast-orf" id="dummy-1_q31_0_all"  />
<polygon points="613,35 618,30 627,30 627,40 618,40 613,35 " style="fill:white; stroke-width:1; stroke:black; " description="&lt;b&gt;ctg1_62&lt;/b&gt;&lt;br&gt;ctg1 62&lt;br&gt;Location: 94100 - 95456" locus_tag="ctg1_62" class="clusterblast-orf" id="dummy-1_q32_0_all"  />
<polygon points="627,35 632,30 633,30 633,40 632,40 627,35 " style="fill:white; stroke-width:1; stroke:black; " description="&lt;b&gt;ctg1_63&lt;/b&gt;&lt;br&gt;ctg1 63&lt;br&gt;Location: 95481 - 96054" locus_tag="ctg1_63" class="clusterblast-orf" id="dummy-1_q33_0_all"  />
<polygon points="633,35 638,30 643,30 643,40 638,40 633,35 " style="fill:white; stroke-width:1; stroke:black; " description="&lt;b&gt;ctg1_64&lt;/b&gt;&lt;br&gt;ctg1 64&lt;br&gt;Location: 96121 - 97078" locus_tag="ctg1_64" class="clusterblast-orf" id="dummy-1_q34_0_all"  />
<polygon points="643,35 648,30 654,30 654,40 648,40 643,35 " style="fill:white; stroke-width:1; stroke:black; " description="&lt;b&gt;ctg1_65&lt;/b&gt;&lt;br&gt;ctg1 65&lt;br&gt;Location: 97081 - 98125" locus_tag="ctg1_65" class="clusterblast-orf" id="dummy-1_q35_0_all"  />
<polygon points="654,35 658,30 658,40 654,35 " style="fill:white; stroke-width:1; stroke:black; " description="&lt;b&gt;ctg1_66&lt;/b&gt;&lt;br&gt;ctg1 66&lt;br&gt;Location: 98140 - 98488" locus_tag="ctg1_66" class="clusterblast-orf" id="dummy-1_q36_0_all"  />
<polygon points="658,35 663,30 671,30 671,40 663,40 658,35 " style="fill:white; stroke-width:1; stroke:black; " description="&lt;b&gt;ctg1_67&lt;/b&gt;&lt;br&gt;ctg1 67&lt;br&gt;Location: 98490 - 99720" locus_tag="ctg1_67" class="clusterblast-orf" id="dummy-1_q37_0_all"  />
<polygon points="673,35 678,30 680,30 680,40 678,40 673,35 " style="fill:white; stroke-width:1; stroke:black; " description="&lt;b&gt;ctg1_68&lt;/b&gt;&lt;br&gt;ctg1 68&lt;br&gt;Location: 99938 - 100628" locus_tag="ctg1_68" class="clusterblast-orf" id="dummy-1_q38_0_all"  />
<polygon points="680,35 685,30 688,30 688,40 685,40 680,35 " style="fill:white; stroke-width:1; stroke:black; " description="&lt;b&gt;ctg1_69&lt;/b&gt;&lt;br&gt;ctg1 69&lt;br&gt;Location: 100638 - 101397" locus_tag="ctg1_69" class="clusterblast-orf" id="dummy-1_q39_0_all"  />
<polygon points="688,35 693,30 700,30 700,40 693,40 688,35 " style="fill:white; stroke-width:1; stroke:black; " description="&lt;b&gt;ctg1_70&lt;/b&gt;&lt;br&gt;ctg1 70&lt;br&gt;Location: 101393 - 102554" locus_tag="ctg1_70" class="clusterblast-orf" id="dummy-1_q40_0_all"  />
<polygon points="700,35 705,30 710,30 710,40 705,40 700,35 " style="fill:white; stroke-width:1; stroke:black; " description="&lt;b&gt;ctg1_71&lt;/b&gt;&lt;br&gt;ctg1 71&lt;br&gt;Location: 102564 - 103482" locus_tag="ctg1_71" class="clusterblast-orf" id="dummy-1_q41_0_all"  />
<polygon points="712,35 717,30 724,30 724,40 717,40 712,35 " style="fill:white; stroke-width:1; stroke:black; " description="&lt;b&gt;ctg1_72&lt;/b&gt;&lt;br&gt;ctg1 72&lt;br&gt;Location: 103660 - 104869" locus_tag="ctg1_72" class="clusterblast-orf" id="dummy-1_q42_0_all"  />
<polygon points="727,40 757,40 762,35 757,30 727,30 727,40 " style="fill:white; stroke-width:1; stroke:black; " description="&lt;b&gt;ctg1_73&lt;/b&gt;&lt;br&gt;ctg1 73&lt;br&gt;Location: 105171 - 108555" locus_tag="ctg1_73" class="clusterblast-orf" id="dummy-1_q43_0_all"  />
<polygon points="762,40 764,40 769,35 764,30 762,30 762,40 " style="fill:white; stroke-width:1; stroke:black; " description="&lt;b&gt;ctg1_74&lt;/b&gt;&lt;br&gt;ctg1 74&lt;br&gt;Location: 108529 - 109195" locus_tag="ctg1_74" class="clusterblast-orf" id="dummy-1_q44_0_all"  />
<polygon points="770,35 775,30 780,30 780,40 775,40 770,35 " style="fill:white; stroke-width:1; stroke:black; " description="&lt;b&gt;ctg1_75&lt;/b&gt;&lt;br&gt;ctg1 75&lt;br&gt;Location: 109315 - 110230" locus_tag="ctg1_75" class="clusterblast-orf" id="dummy-1_q45_0_all"  />
</g>
<g label="BGC0002417" description="BGC0002417_c1: variochelin A/variochelin B (15% of genes show similarity), NRP+Polyketide" class="clusterblast-cluster"  >
<text x="5" y="70" class="clusterblast-acc"  >
<a xlink:href="https://mibig.secondarymetabolites.org/go/BGC0002417/1" target="_blank">BGC0002417</a>: variochelin A/variochelin B                                                      (15% of genes show similarity), NRP+Polyketide</text>
<line x1="10" y1="85" x2="778.0" y2="85" style="stroke-width:1; stroke:grey; "  />
</g>
<g id="a1_000"  >
<polygon points="191,90 192,90 197,85 192,80 191,80 191,90 " style="fill:white; stroke-width:1; stroke:black; " description="&lt;b&gt;VAPA_1c38770&lt;/b&gt;&lt;br&gt;putative RNA polymerase sigma factor, sigma-70 family&lt;br&gt;Location: 38337 - 37792" locus_tag="VAPA_1c38770" class="clusterblast-orf" id="dummy-1_h1_4_0"  />
</g>
<g id="a1_001"  >
<polygon points="198,90 200,85 198,80 198,90 " style="fill:white; stroke-width:1; stroke:black; " description="&lt;b&gt;VAPA_1c38760&lt;/b&gt;&lt;br&gt;putative anti-FecI sigma factor FecR&lt;br&gt;Location: 37695 - 37492" locus_tag="VAPA_1c38760" class="clusterblast-orf" id="dummy-1_h1_4_1"  />
</g>
<g id="a1_002"  >
<polygon points="201,90 203,85 201,80 201,90 " style="fill:white; stroke-width:1; stroke:black; " description="&lt;b&gt;VAPA_1c38750&lt;/b&gt;&lt;br&gt;MbtH domain-containing protein&lt;br&gt;Location: 37391 - 37134" locus_tag="VAPA_1c38750" class="clusterblast-orf" id="dummy-1_h1_4_2"  />
</g>
<g id="a1_003"  >
<polygon points="203,90 206,90 211,85 206,80 203,80 203,90 " style="fill:white; stroke-width:1; stroke:black; " description="&lt;b&gt;VAPA_1c38740&lt;/b&gt;&lt;br&gt;thioesterase domain-containing protein&lt;br&gt;Location: 37128 - 36391" locus_tag="VAPA_1c38740" class="clusterblast-orf" id="dummy-1_h1_4_3"  />
</g>
<g id="a1_004"  >
<polygon points="211,90 213,90 218,85 213,80 211,80 211,90 " style="fill:white; stroke-width:1; stroke:black; " description="&lt;b&gt;VAPA_1c38730&lt;/b&gt;&lt;br&gt;putative 4'-phosphopantetheinyl transferase&lt;br&gt;Location: 36413 - 35724" locus_tag="VAPA_1c38730" class="clusterblast-orf" id="dummy-1_h1_4_4"  />
</g>
<g id="a1_005"  >
<polygon points="218,90 223,90 228,85 223,80 218,80 218,90 " style="fill:white; stroke-width:1; stroke:black; " description="&lt;b&gt;VAPA_1c38720&lt;/b&gt;&lt;br&gt;putative alpha-ketoglutarate-dependent taurine dioxygenase TauD&lt;br&gt;Location: 35727 - 34735" locus_tag="VAPA_1c38720" class="clusterblast-orf" id="dummy-1_h1_4_5"  />
</g>
<g id="a1_006"  >
<polygon points="228,90 279,90 284,85 279,80 228,80 228,90 " style="fill:white; stroke-width:1; stroke:black; " description="&lt;b&gt;VAPA_1c38710&lt;/b&gt;&lt;br&gt;putative non-ribosomal peptide synthetase&lt;br&gt;Location: 34714 - 29399" locus_tag="VAPA_1c38710" class="clusterblast-orf" id="dummy-1_h1_4_6"  />
</g>
<g id="a1_007"  >
<polygon points="284,90 326,90 331,85 326,80 284,80 284,90 " style="fill:white; stroke-width:1; stroke:black; " description="&lt;b&gt;VAPA_1c38700&lt;/b&gt;&lt;br&gt;putative polyketide synthase&lt;br&gt;Location: 29397 - 24835" locus_tag="VAPA_1c38700" class="clusterblast-orf" id="dummy-1_h1_4_7"  />
</g>
<g id="a1_008"  >
<polygon points="331,90 360,90 365,85 360,80 331,80 331,90 " style="fill:white; stroke-width:1; stroke:black; " description="&lt;b&gt;VAPA_1c38690&lt;/b&gt;&lt;br&gt;putative non-ribosomal peptide synthetase&lt;br&gt;Location: 24838 - 21497" locus_tag="VAPA_1c38690" class="clusterblast-orf" id="dummy-1_h1_4_8"  />
</g>
<g id="a1_009"  >
<polygon points="365,90 442,90 447,85 442,80 365,80 365,90 " style="fill:#1515d8; stroke-width:1; stroke:black; " description="&lt;b&gt;VAPA_1c38680&lt;/b&gt;&lt;br&gt;putative non-ribosomal peptide synthetase&lt;br&gt;Location: 21497 - 13620&lt;br&gt;&lt;br&gt;&lt;b&gt;BlastP hit with ctg1_56&lt;/b&gt;&lt;br&gt;Percentage identity: 50&lt;br&gt;Percentage coverage: 65&lt;br&gt;BLAST bit score: 2289&lt;br&gt;E-value: 0.0&lt;br&gt;&lt;br&gt;&lt;b&gt;BlastP hit with ctg1_57&lt;/b&gt;&lt;br&gt;Percentage identity: 47&lt;br&gt;Percentage coverage: 56&lt;br&gt;BLAST bit score: 2090&lt;br&gt;E-value: 0.0" locus_tag="VAPA_1c38680" class="clusterblast-orf" id="dummy-1_h1_4_9"  />
</g>
<g id="a1_0010"  >
<polygon points="447,90 484,90 489,85 484,80 447,80 447,90 " style="fill:white; stroke-width:1; stroke:black; " description="&lt;b&gt;VAPA_1c38670&lt;/b&gt;&lt;br&gt;putative non-ribosomal peptide synthetase&lt;br&gt;Location: 13623 - 9550" locus_tag="VAPA_1c38670" class="clusterblast-orf" id="dummy-1_h1_4_10"  />
</g>
<g id="a1_0011"  >
<polygon points="490,85 495,80 512,80 512,90 495,90 490,85 " style="fill:white; stroke-width:1; stroke:black; " description="&lt;b&gt;VAPA_1c38660&lt;/b&gt;&lt;br&gt;putative plug domain-containing TonB-dependent receptor&lt;br&gt;Location: 9472 - 7304" locus_tag="VAPA_1c38660" class="clusterblast-orf" id="dummy-1_h1_4_11"  />
</g>
<g id="a1_0012"  >
<polygon points="514,85 519,80 528,80 528,90 519,90 514,85 " style="fill:white; stroke-width:1; stroke:black; " description="&lt;b&gt;VAPA_1c38650&lt;/b&gt;&lt;br&gt;putative monooxygenase&lt;br&gt;Location: 7141 - 5789" locus_tag="VAPA_1c38650" class="clusterblast-orf" id="dummy-1_h1_4_12"  />
</g>
<g id="a1_0013"  >
<polygon points="529,85 534,80 539,80 539,90 534,90 529,85 " style="fill:white; stroke-width:1; stroke:black; " description="&lt;b&gt;VAPA_1c38640&lt;/b&gt;&lt;br&gt;GNAT domain-containing protein&lt;br&gt;Location: 5746 - 4712" locus_tag="VAPA_1c38640" class="clusterblast-orf" id="dummy-1_h1_4_13"  />
</g>
<g id="a1_0014"  >
<polygon points="539,85 544,80 548,80 548,90 544,90 539,85 " style="fill:#d815b1; stroke-width:1; stroke:black; " description="&lt;b&gt;VAPA_1c38630&lt;/b&gt;&lt;br&gt;putative formyl transferase&lt;br&gt;Location: 4715 - 3870&lt;br&gt;&lt;br&gt;&lt;b&gt;BlastP hit with ctg1_53&lt;/b&gt;&lt;br&gt;Percentage identity: 67&lt;br&gt;Percentage coverage: 99&lt;br&gt;BLAST bit score: 369&lt;br&gt;E-value: 2.28e-129" locus_tag="VAPA_1c38630" class="clusterblast-orf" id="dummy-1_h1_4_14"  />
</g>
<g id="a1_0015"  >
<polygon points="549,85 554,80 558,80 558,90 554,90 549,85 " style="fill:white; stroke-width:1; stroke:black; " description="&lt;b&gt;VAPA_1c38620&lt;/b&gt;&lt;br&gt;putative ferric iron reductase&lt;br&gt;Location: 3769 - 2924" locus_tag="VAPA_1c38620" class="clusterblast-orf" id="dummy-1_h1_4_15"  />
</g>
<g id="a1_0016"  >
<polygon points="559,90 572,90 577,85 572,80 559,80 559,90 " style="fill:#d8b115; stroke-width:1; stroke:black; " description="&lt;b&gt;VAPA_1c38610&lt;/b&gt;&lt;br&gt;cyclic peptide transporter&lt;br&gt;Location: 2790 - 1099&lt;br&gt;&lt;br&gt;&lt;b&gt;BlastP hit with ctg1_54&lt;/b&gt;&lt;br&gt;Percentage identity: 55&lt;br&gt;Percentage coverage: 97&lt;br&gt;BLAST bit score: 561&lt;br&gt;E-value: 2.16e-196" locus_tag="VAPA_1c38610" class="clusterblast-orf" id="dummy-1_h1_4_16"  />
</g>
<g id="a1_0017"  >
<polygon points="577,90 579,85 577,80 577,90 " style="fill:white; stroke-width:1; stroke:black; " description="&lt;b&gt;VAPA_1c38600&lt;/b&gt;&lt;br&gt;hypothetical protein&lt;br&gt;Location: 1102 - 866" locus_tag="VAPA_1c38600" class="clusterblast-orf" id="dummy-1_h1_4_17"  />
</g>
<g id="a1_0018"  >
<polygon points="579,85 581,80 581,90 579,85 " style="fill:white; stroke-width:1; stroke:black; " description="&lt;b&gt;VAPA_1c38590&lt;/b&gt;&lt;br&gt;putative anti-FecI sigma factor FecR&lt;br&gt;Location: 855 - 637" locus_tag="VAPA_1c38590" class="clusterblast-orf" id="dummy-1_h1_4_18"  />
</g>
<g id="a1_0019"  >
<polygon points="582,85 587,80 588,80 588,90 587,90 582,85 " style="fill:white; stroke-width:1; stroke:black; " description="&lt;b&gt;VAPA_1c38580&lt;/b&gt;&lt;br&gt;RNA polymerase sigma factor, sigma-70 family&lt;br&gt;Location: 621 - 1" locus_tag="VAPA_1c38580" class="clusterblast-orf" id="dummy-1_h1_4_19"  />
</g>
</svg>
