<svg xmlns="http://www.w3.org/2000/svg" xmlns:xlink="http://www.w3.org/1999/xlink" version="1.1" x="0" y="0" height="230" width="800" viewBox="0 0 800 230" preserveAspectRatio="none"  >
<g label="Query sequence" class="clusterblast-cluster"  >
<text x="5" y="20" class="clusterblast-acc"  >
Query sequence</text>
<line x1="10" y1="35" x2="778.0" y2="35" style="stroke-width:1; stroke:grey; "  />
<polygon points="0,40 0,40 5,35 0,30 0,30 0,40 " style="fill:white; stroke-width:1; stroke:black; " description="&lt;b&gt;ctg3_300&lt;/b&gt;&lt;br&gt;ctg3 300&lt;br&gt;Location: 330117 - 330468" locus_tag="ctg3_300" class="clusterblast-orf" id="dummy-2_q0_0_all"  />
<polygon points="5,40 5,40 10,35 5,30 5,30 5,40 " style="fill:white; stroke-width:1; stroke:black; " description="&lt;b&gt;ctg3_301&lt;/b&gt;&lt;br&gt;ctg3 301&lt;br&gt;Location: 330491 - 330818" locus_tag="ctg3_301" class="clusterblast-orf" id="dummy-2_q1_0_all"  />
<polygon points="11,40 14,40 19,35 14,30 11,30 11,40 " style="fill:white; stroke-width:1; stroke:black; " description="&lt;b&gt;ctg3_302&lt;/b&gt;&lt;br&gt;ctg3 302&lt;br&gt;Location: 330850 - 331396" locus_tag="ctg3_302" class="clusterblast-orf" id="dummy-2_q2_0_all"  />
<polygon points="20,40 29,40 34,35 29,30 20,30 20,40 " style="fill:white; stroke-width:1; stroke:black; " description="&lt;b&gt;ctg3_303&lt;/b&gt;&lt;br&gt;ctg3 303&lt;br&gt;Location: 331487 - 332408" locus_tag="ctg3_303" class="clusterblast-orf" id="dummy-2_q3_0_all"  />
<polygon points="33,35 38,30 43,30 43,40 38,40 33,35 " style="fill:white; stroke-width:1; stroke:black; " description="&lt;b&gt;ctg3_304&lt;/b&gt;&lt;br&gt;ctg3 304&lt;br&gt;Location: 332366 - 333026" locus_tag="ctg3_304" class="clusterblast-orf" id="dummy-2_q4_0_all"  />
<polygon points="43,35 48,30 57,30 57,40 48,40 43,35 " style="fill:white; stroke-width:1; stroke:black; " description="&lt;b&gt;ctg3_305&lt;/b&gt;&lt;br&gt;ctg3 305&lt;br&gt;Location: 333022 - 333916" locus_tag="ctg3_305" class="clusterblast-orf" id="dummy-2_q5_0_all"  />
<polygon points="62,35 67,30 69,30 69,40 67,40 62,35 " style="fill:white; stroke-width:1; stroke:black; " description="&lt;b&gt;ctg3_306&lt;/b&gt;&lt;br&gt;ctg3 306&lt;br&gt;Location: 334299 - 334749" locus_tag="ctg3_306" class="clusterblast-orf" id="dummy-2_q6_0_all"  />
<polygon points="77,40 86,40 91,35 86,30 77,30 77,40 " style="fill:white; stroke-width:1; stroke:black; " description="&lt;b&gt;ctg3_307&lt;/b&gt;&lt;br&gt;ctg3 307&lt;br&gt;Location: 335282 - 336218" locus_tag="ctg3_307" class="clusterblast-orf" id="dummy-2_q7_0_all"  />
<polygon points="92,40 99,40 104,35 99,30 92,30 92,40 " style="fill:white; stroke-width:1; stroke:black; " description="&lt;b&gt;ctg3_308&lt;/b&gt;&lt;br&gt;ctg3 308&lt;br&gt;Location: 336256 - 337063" locus_tag="ctg3_308" class="clusterblast-orf" id="dummy-2_q8_0_all"  />
<polygon points="105,35 109,30 109,40 105,35 " style="fill:white; stroke-width:1; stroke:black; " description="&lt;b&gt;ctg3_309&lt;/b&gt;&lt;br&gt;ctg3 309&lt;br&gt;Location: 337127 - 337412" locus_tag="ctg3_309" class="clusterblast-orf" id="dummy-2_q9_0_all"  />
<polygon points="110,35 115,30 118,30 118,40 115,40 110,35 " style="fill:white; stroke-width:1; stroke:black; " description="&lt;b&gt;ctg3_310&lt;/b&gt;&lt;br&gt;ctg3 310&lt;br&gt;Location: 337477 - 338020" locus_tag="ctg3_310" class="clusterblast-orf" id="dummy-2_q10_0_all"  />
<polygon points="119,35 124,30 148,30 148,40 124,40 119,35 " style="fill:#d81515; stroke-width:1; stroke:black; " description="&lt;b&gt;ctg3_311&lt;/b&gt;&lt;br&gt;ctg3 311&lt;br&gt;Location: 338111 - 340034" locus_tag="ctg3_311" class="clusterblast-orf" id="dummy-2_q11_0_all"  />
<polygon points="150,35 155,30 161,30 161,40 155,40 150,35 " style="fill:white; stroke-width:1; stroke:black; " description="&lt;b&gt;ctg3_312&lt;/b&gt;&lt;br&gt;ctg3 312&lt;br&gt;Location: 340145 - 340913" locus_tag="ctg3_312" class="clusterblast-orf" id="dummy-2_q12_0_all"  />
<polygon points="161,35 166,30 179,30 179,40 166,40 161,35 " style="fill:white; stroke-width:1; stroke:black; " description="&lt;b&gt;ctg3_313&lt;/b&gt;&lt;br&gt;ctg3 313&lt;br&gt;Location: 340909 - 342067" locus_tag="ctg3_313" class="clusterblast-orf" id="dummy-2_q13_0_all"  />
<polygon points="179,35 184,30 203,30 203,40 184,40 179,35 " style="fill:#43d815; stroke-width:1; stroke:black; " description="&lt;b&gt;ctg3_314&lt;/b&gt;&lt;br&gt;ctg3 314&lt;br&gt;Location: 342083 - 343700" locus_tag="ctg3_314" class="clusterblast-orf" id="dummy-2_q14_0_all"  />
<polygon points="203,35 208,30 216,30 216,40 208,40 203,35 " style="fill:white; stroke-width:1; stroke:black; " description="&lt;b&gt;ctg3_315&lt;/b&gt;&lt;br&gt;ctg3 315&lt;br&gt;Location: 343703 - 344576" locus_tag="ctg3_315" class="clusterblast-orf" id="dummy-2_q15_0_all"  />
<polygon points="217,35 222,30 243,30 243,40 222,40 217,35 " style="fill:white; stroke-width:1; stroke:black; " description="&lt;b&gt;ctg3_316&lt;/b&gt;&lt;br&gt;ctg3 316&lt;br&gt;Location: 344588 - 346367" locus_tag="ctg3_316" class="clusterblast-orf" id="dummy-2_q16_0_all"  />
<polygon points="245,40 250,40 255,35 250,30 245,30 245,40 " style="fill:white; stroke-width:1; stroke:black; " description="&lt;b&gt;ctg3_317&lt;/b&gt;&lt;br&gt;ctg3 317&lt;br&gt;Location: 346520 - 347144" locus_tag="ctg3_317" class="clusterblast-orf" id="dummy-2_q17_0_all"  />
<polygon points="256,40 263,40 268,35 263,30 256,30 256,40 " style="fill:white; stroke-width:1; stroke:black; " description="&lt;b&gt;ctg3_318&lt;/b&gt;&lt;br&gt;ctg3 318&lt;br&gt;Location: 347237 - 348026" locus_tag="ctg3_318" class="clusterblast-orf" id="dummy-2_q18_0_all"  />
<polygon points="269,35 274,30 277,30 277,40 274,40 269,35 " style="fill:#15b6d8; stroke-width:1; stroke:black; " description="&lt;b&gt;ctg3_319&lt;/b&gt;&lt;br&gt;ctg3 319&lt;br&gt;Location: 348064 - 348616" locus_tag="ctg3_319" class="clusterblast-orf" id="dummy-2_q19_0_all"  />
<polygon points="281,40 288,40 293,35 288,30 281,30 281,40 " style="fill:#8815d8; stroke-width:1; stroke:black; " description="&lt;b&gt;ctg3_320&lt;/b&gt;&lt;br&gt;ctg3 320&lt;br&gt;Location: 348916 - 349669" locus_tag="ctg3_320" class="clusterblast-orf" id="dummy-2_q20_0_all"  />
<polygon points="293,40 482,40 487,35 482,30 293,30 293,40 " style="fill:#d85a15; stroke-width:1; stroke:black; " description="&lt;b&gt;ctg3_321&lt;/b&gt;&lt;br&gt;ctg3 321&lt;br&gt;Location: 349719 - 362616" locus_tag="ctg3_321" class="clusterblast-orf" id="dummy-2_q21_0_all"  />
<polygon points="502,40 506,40 511,35 506,30 502,30 502,40 " style="fill:#15d82c; stroke-width:1; stroke:black; " description="&lt;b&gt;ctg3_322&lt;/b&gt;&lt;br&gt;ctg3 322&lt;br&gt;Location: 363634 - 364270" locus_tag="ctg3_322" class="clusterblast-orf" id="dummy-2_q22_0_all"  />
<polygon points="512,40 523,40 528,35 523,30 512,30 512,40 " style="fill:#1571d8; stroke-width:1; stroke:black; " description="&lt;b&gt;ctg3_323&lt;/b&gt;&lt;br&gt;ctg3 323&lt;br&gt;Location: 364310 - 365375" locus_tag="ctg3_323" class="clusterblast-orf" id="dummy-2_q23_0_all"  />
<polygon points="531,35 536,30 542,30 542,40 536,40 531,35 " style="fill:#cd15d8; stroke-width:1; stroke:black; " description="&lt;b&gt;ctg3_324&lt;/b&gt;&lt;br&gt;ctg3 324&lt;br&gt;Location: 365575 - 366337" locus_tag="ctg3_324" class="clusterblast-orf" id="dummy-2_q24_0_all"  />
<polygon points="542,35 547,30 555,30 555,40 547,40 542,35 " style="fill:#d89f15; stroke-width:1; stroke:black; " description="&lt;b&gt;ctg3_325&lt;/b&gt;&lt;br&gt;ctg3 325&lt;br&gt;Location: 366312 - 367164" locus_tag="ctg3_325" class="clusterblast-orf" id="dummy-2_q25_0_all"  />
<polygon points="555,35 560,30 581,30 581,40 560,40 555,35 " style="fill:#15d871; stroke-width:1; stroke:black; " description="&lt;b&gt;ctg3_326&lt;/b&gt;&lt;br&gt;ctg3 326&lt;br&gt;Location: 367163 - 368909" locus_tag="ctg3_326" class="clusterblast-orf" id="dummy-2_q26_0_all"  />
<polygon points="584,40 589,40 594,35 589,30 584,30 584,40 " style="fill:#152cd8; stroke-width:1; stroke:black; " description="&lt;b&gt;ctg3_327&lt;/b&gt;&lt;br&gt;ctg3 327&lt;br&gt;Location: 369085 - 369781" locus_tag="ctg3_327" class="clusterblast-orf" id="dummy-2_q27_0_all"  />
<polygon points="594,40 609,40 614,35 609,30 594,30 594,40 " style="fill:#d8159f; stroke-width:1; stroke:black; " description="&lt;b&gt;ctg3_328&lt;/b&gt;&lt;br&gt;ctg3 328&lt;br&gt;Location: 369777 - 371100" locus_tag="ctg3_328" class="clusterblast-orf" id="dummy-2_q28_0_all"  />
<polygon points="616,40 620,40 625,35 620,30 616,30 616,40 " style="fill:white; stroke-width:1; stroke:black; " description="&lt;b&gt;ctg3_329&lt;/b&gt;&lt;br&gt;ctg3 329&lt;br&gt;Location: 371224 - 371821" locus_tag="ctg3_329" class="clusterblast-orf" id="dummy-2_q29_0_all"  />
<polygon points="630,40 646,40 651,35 646,30 630,30 630,40 " style="fill:#cdd815; stroke-width:1; stroke:black; " description="&lt;b&gt;ctg3_330&lt;/b&gt;&lt;br&gt;ctg3 330&lt;br&gt;Location: 372187 - 373600" locus_tag="ctg3_330" class="clusterblast-orf" id="dummy-2_q30_0_all"  />
<polygon points="653,40 656,35 653,30 653,40 " style="fill:#15d8b6; stroke-width:1; stroke:black; " description="&lt;b&gt;ctg3_331&lt;/b&gt;&lt;br&gt;ctg3 331&lt;br&gt;Location: 373683 - 373908" locus_tag="ctg3_331" class="clusterblast-orf" id="dummy-2_q31_0_all"  />
<polygon points="658,35 663,30 678,30 678,40 663,40 658,35 " style="fill:white; stroke-width:1; stroke:black; " description="&lt;b&gt;ctg3_332&lt;/b&gt;&lt;br&gt;ctg3 332&lt;br&gt;Location: 374024 - 375371" locus_tag="ctg3_332" class="clusterblast-orf" id="dummy-2_q32_0_all"  />
<polygon points="678,35 683,30 711,30 711,40 683,40 678,35 " style="fill:white; stroke-width:1; stroke:black; " description="&lt;b&gt;ctg3_333&lt;/b&gt;&lt;br&gt;ctg3 333&lt;br&gt;Location: 375388 - 377554" locus_tag="ctg3_333" class="clusterblast-orf" id="dummy-2_q33_0_all"  />
<polygon points="712,35 714,30 714,40 712,35 " style="fill:white; stroke-width:1; stroke:black; " description="&lt;b&gt;ctg3_334&lt;/b&gt;&lt;br&gt;ctg3 334&lt;br&gt;Location: 377626 - 377803" locus_tag="ctg3_334" class="clusterblast-orf" id="dummy-2_q34_0_all"  />
<polygon points="718,35 723,30 737,30 737,40 723,40 718,35 " style="fill:white; stroke-width:1; stroke:black; " description="&lt;b&gt;ctg3_335&lt;/b&gt;&lt;br&gt;ctg3 335&lt;br&gt;Location: 378023 - 379313" locus_tag="ctg3_335" class="clusterblast-orf" id="dummy-2_q35_0_all"  />
<polygon points="739,35 744,30 748,30 748,40 744,40 739,35 " style="fill:white; stroke-width:1; stroke:black; " description="&lt;b&gt;ctg3_336&lt;/b&gt;&lt;br&gt;ctg3 336&lt;br&gt;Location: 379423 - 380059" locus_tag="ctg3_336" class="clusterblast-orf" id="dummy-2_q36_0_all"  />
<polygon points="750,35 753,30 753,40 750,35 " style="fill:#4315d8; stroke-width:1; stroke:black; " description="&lt;b&gt;ctg3_337&lt;/b&gt;&lt;br&gt;ctg3 337&lt;br&gt;Location: 380155 - 380410" locus_tag="ctg3_337" class="clusterblast-orf" id="dummy-2_q37_0_all"  />
<polygon points="753,35 758,30 766,30 766,40 758,40 753,35 " style="fill:#d8155a; stroke-width:1; stroke:black; " description="&lt;b&gt;ctg3_338&lt;/b&gt;&lt;br&gt;ctg3 338&lt;br&gt;Location: 380413 - 381226" locus_tag="ctg3_338" class="clusterblast-orf" id="dummy-2_q38_0_all"  />
<polygon points="769,35 774,30 780,30 780,40 774,40 769,35 " style="fill:#88d815; stroke-width:1; stroke:black; " description="&lt;b&gt;ctg3_339&lt;/b&gt;&lt;br&gt;ctg3 339&lt;br&gt;Location: 381426 - 382164" locus_tag="ctg3_339" class="clusterblast-orf" id="dummy-2_q39_0_all"  />
</g>
<g label="BGC0000330" description="BGC0000330_c1: cupriachelin (11% of genes show similarity), NRP:NRP siderophore" class="clusterblast-cluster"  >
<text x="5" y="70" class="clusterblast-acc"  >
<a xlink:href="https://mibig.secondarymetabolites.org/go/BGC0000330/1" target="_blank">BGC0000330</a>: cupriachelin                                                                     (11% of genes show similarity), NRP:NRP siderophore</text>
<line x1="10" y1="85" x2="778.0" y2="85" style="stroke-width:1; stroke:grey; "  />
</g>
<g id="a2_000"  >
<polygon points="117,85 122,80 122,80 122,90 122,90 117,85 " style="fill:white; stroke-width:1; stroke:black; " description="&lt;b&gt;H16_B1676&lt;/b&gt;&lt;br&gt;hypothetical membrane spanning protein&lt;br&gt;Location: 1 - 342" locus_tag="H16_B1676" class="clusterblast-orf" id="dummy-2_h2_10_0"  />
</g>
<g id="a2_001"  >
<polygon points="122,85 127,80 146,80 146,90 127,90 122,85 " style="fill:white; stroke-width:1; stroke:black; " description="&lt;b&gt;H16_B1677&lt;/b&gt;&lt;br&gt;iron regulated protein&lt;br&gt;Location: 326 - 1957" locus_tag="H16_B1677" class="clusterblast-orf" id="dummy-2_h2_10_1"  />
</g>
<g id="a2_002"  >
<polygon points="146,85 151,80 152,80 152,90 151,90 146,85 " style="fill:white; stroke-width:1; stroke:black; " description="&lt;b&gt;H16_B1678&lt;/b&gt;&lt;br&gt;hypothetical protein&lt;br&gt;Location: 1954 - 2322" locus_tag="H16_B1678" class="clusterblast-orf" id="dummy-2_h2_10_2"  />
</g>
<g id="a2_003"  >
<polygon points="152,85 157,80 186,80 186,90 157,90 152,85 " style="fill:white; stroke-width:1; stroke:black; " description="&lt;b&gt;H16_B1679&lt;/b&gt;&lt;br&gt;outer membrane receptor, TonB dependent&lt;br&gt;Location: 2348 - 4630" locus_tag="H16_B1679" class="clusterblast-orf" id="dummy-2_h2_10_3"  />
</g>
<g id="a2_004"  >
<polygon points="188,85 193,80 209,80 209,90 193,90 188,85 " style="fill:white; stroke-width:1; stroke:black; " description="&lt;b&gt;H16_B1680&lt;/b&gt;&lt;br&gt;ornithine N-monooxygenase&lt;br&gt;Location: 4736 - 6136" locus_tag="H16_B1680" class="clusterblast-orf" id="dummy-2_h2_10_4"  />
</g>
<g id="a2_005"  >
<polygon points="209,85 214,80 226,80 226,90 214,90 209,85 " style="fill:white; stroke-width:1; stroke:black; " description="&lt;b&gt;H16_B1681&lt;/b&gt;&lt;br&gt;N-acyltransferase&lt;br&gt;Location: 6159 - 7259" locus_tag="H16_B1681" class="clusterblast-orf" id="dummy-2_h2_10_5"  />
</g>
<g id="a2_006"  >
<polygon points="226,85 231,80 252,80 252,90 231,90 226,85 " style="fill:white; stroke-width:1; stroke:black; " description="&lt;b&gt;H16_B1682&lt;/b&gt;&lt;br&gt;ABC-type transporter, ATPase and permease components: Pep3E family&lt;br&gt;Location: 7292 - 8974" locus_tag="H16_B1682" class="clusterblast-orf" id="dummy-2_h2_10_6"  />
</g>
<g id="a2_007"  >
<polygon points="251,85 256,80 300,80 300,90 256,90 251,85 " style="fill:white; stroke-width:1; stroke:black; " description="&lt;b&gt;H16_B1683&lt;/b&gt;&lt;br&gt;non-ribosomal peptide synthetase&lt;br&gt;Location: 8971 - 12198" locus_tag="H16_B1683" class="clusterblast-orf" id="dummy-2_h2_10_7"  />
</g>
<g id="a2_008"  >
<polygon points="304,90 310,90 315,85 310,80 304,80 304,90 " style="fill:white; stroke-width:1; stroke:black; " description="&lt;b&gt;H16_B1684&lt;/b&gt;&lt;br&gt;putative iron transport-related membrane protein&lt;br&gt;Location: 12449 - 13204" locus_tag="H16_B1684" class="clusterblast-orf" id="dummy-2_h2_10_8"  />
</g>
<g id="a2_009"  >
<polygon points="315,85 320,80 405,80 405,90 320,90 315,85 " style="fill:white; stroke-width:1; stroke:black; " description="&lt;b&gt;H16_B1685&lt;/b&gt;&lt;br&gt;non-ribosomal peptide synthetase&lt;br&gt;Location: 13217 - 19243" locus_tag="H16_B1685" class="clusterblast-orf" id="dummy-2_h2_10_9"  />
</g>
<g id="a2_0010"  >
<polygon points="406,85 411,80 452,80 452,90 411,90 406,85 " style="fill:white; stroke-width:1; stroke:black; " description="&lt;b&gt;H16_B1686&lt;/b&gt;&lt;br&gt;non-ribosomal peptide synthetase&lt;br&gt;Location: 19281 - 22376" locus_tag="H16_B1686" class="clusterblast-orf" id="dummy-2_h2_10_10"  />
</g>
<g id="a2_0011"  >
<polygon points="452,85 457,80 591,80 591,90 457,90 452,85 " style="fill:white; stroke-width:1; stroke:black; " description="&lt;b&gt;H16_B1687&lt;/b&gt;&lt;br&gt;non-ribosomal peptide synthetase&lt;br&gt;Location: 22369 - 31653" locus_tag="H16_B1687" class="clusterblast-orf" id="dummy-2_h2_10_11"  />
</g>
<g id="a2_0012"  >
<polygon points="593,85 598,80 609,80 609,90 598,90 593,85 " style="fill:white; stroke-width:1; stroke:black; " description="&lt;b&gt;H16_B1688&lt;/b&gt;&lt;br&gt;pyoverdine biosynthesis regulatory gene&lt;br&gt;Location: 31769 - 32830" locus_tag="H16_B1688" class="clusterblast-orf" id="dummy-2_h2_10_12"  />
</g>
<g id="a2_0013"  >
<polygon points="613,90 616,85 613,80 613,90 " style="fill:#15d8b6; stroke-width:1; stroke:black; " description="&lt;b&gt;H16_B1689&lt;/b&gt;&lt;br&gt;MbtH-like protein&lt;br&gt;Location: 33100 - 33306&lt;br&gt;&lt;br&gt;&lt;b&gt;BlastP hit with ctg3_331&lt;/b&gt;&lt;br&gt;Percentage identity: 61&lt;br&gt;Percentage coverage: 89&lt;br&gt;BLAST bit score: 87&lt;br&gt;E-value: 1.57e-24" locus_tag="H16_B1689" class="clusterblast-orf" id="dummy-2_h2_10_13"  />
</g>
<g id="a2_0014"  >
<polygon points="616,90 623,90 628,85 623,80 616,80 616,90 " style="fill:white; stroke-width:1; stroke:black; " description="&lt;b&gt;H16_B1690&lt;/b&gt;&lt;br&gt;thioesterase&lt;br&gt;Location: 33303 - 34121" locus_tag="H16_B1690" class="clusterblast-orf" id="dummy-2_h2_10_14"  />
</g>
<g id="a2_0015"  >
<polygon points="628,90 636,90 641,85 636,80 628,80 628,90 " style="fill:white; stroke-width:1; stroke:black; " description="&lt;b&gt;H16_B1691&lt;/b&gt;&lt;br&gt;phosphopantetheinyltransferase family protein&lt;br&gt;Location: 34108 - 34941" locus_tag="H16_B1691" class="clusterblast-orf" id="dummy-2_h2_10_15"  />
</g>
<g id="a2_0016"  >
<polygon points="641,90 657,90 662,85 657,80 641,80 641,90 " style="fill:#cdd815; stroke-width:1; stroke:black; " description="&lt;b&gt;H16_B1692&lt;/b&gt;&lt;br&gt;aminotransferase&lt;br&gt;Location: 34938 - 36362&lt;br&gt;&lt;br&gt;&lt;b&gt;BlastP hit with ctg3_330&lt;/b&gt;&lt;br&gt;Percentage identity: 63&lt;br&gt;Percentage coverage: 97&lt;br&gt;BLAST bit score: 583&lt;br&gt;E-value: 7.97e-208" locus_tag="H16_B1692" class="clusterblast-orf" id="dummy-2_h2_10_16"  />
</g>
</svg>
