<svg xmlns="http://www.w3.org/2000/svg" xmlns:xlink="http://www.w3.org/1999/xlink" version="1.1" x="0" y="0" height="230" width="800" viewBox="0 0 800 230" preserveAspectRatio="none"  >
<g label="Query sequence" class="clusterblast-cluster"  >
<text x="5" y="20" class="clusterblast-acc"  >
Query sequence</text>
<line x1="10" y1="35" x2="778.0" y2="35" style="stroke-width:1; stroke:grey; "  />
<polygon points="239,35 244,30 244,30 244,40 244,40 239,35 " style="fill:white; stroke-width:1; stroke:black; " description="&lt;b&gt;ctg1_445&lt;/b&gt;&lt;br&gt;ctg1 445&lt;br&gt;Location: 521382 - 522108" locus_tag="ctg1_445" class="clusterblast-orf" id="dummy-3_q0_0_all"  />
<polygon points="245,35 250,30 255,30 255,40 250,40 245,35 " style="fill:white; stroke-width:1; stroke:black; " description="&lt;b&gt;ctg1_446&lt;/b&gt;&lt;br&gt;ctg1 446&lt;br&gt;Location: 522244 - 523765" locus_tag="ctg1_446" class="clusterblast-orf" id="dummy-3_q1_0_all"  />
<polygon points="255,35 260,30 263,30 263,40 260,40 255,35 " style="fill:white; stroke-width:1; stroke:black; " description="&lt;b&gt;ctg1_447&lt;/b&gt;&lt;br&gt;ctg1 447&lt;br&gt;Location: 523778 - 524858" locus_tag="ctg1_447" class="clusterblast-orf" id="dummy-3_q2_0_all"  />
<polygon points="263,35 268,30 270,30 270,40 268,40 263,35 " style="fill:white; stroke-width:1; stroke:black; " description="&lt;b&gt;ctg1_448&lt;/b&gt;&lt;br&gt;ctg1 448&lt;br&gt;Location: 524885 - 525878" locus_tag="ctg1_448" class="clusterblast-orf" id="dummy-3_q3_0_all"  />
<polygon points="269,35 274,30 280,30 280,40 274,40 269,35 " style="fill:white; stroke-width:1; stroke:black; " description="&lt;b&gt;ctg1_449&lt;/b&gt;&lt;br&gt;ctg1 449&lt;br&gt;Location: 525843 - 527352" locus_tag="ctg1_449" class="clusterblast-orf" id="dummy-3_q4_0_all"  />
<polygon points="280,35 285,30 286,30 286,40 285,40 280,35 " style="fill:white; stroke-width:1; stroke:black; " description="&lt;b&gt;ctg1_450&lt;/b&gt;&lt;br&gt;ctg1 450&lt;br&gt;Location: 527415 - 528339" locus_tag="ctg1_450" class="clusterblast-orf" id="dummy-3_q5_0_all"  />
<polygon points="288,40 288,40 293,35 288,30 288,30 288,40 " style="fill:white; stroke-width:1; stroke:black; " description="&lt;b&gt;ctg1_451&lt;/b&gt;&lt;br&gt;ctg1 451&lt;br&gt;Location: 528656 - 529328" locus_tag="ctg1_451" class="clusterblast-orf" id="dummy-3_q6_0_all"  />
<polygon points="293,40 295,40 300,35 295,30 293,30 293,40 " style="fill:white; stroke-width:1; stroke:black; " description="&lt;b&gt;ctg1_452&lt;/b&gt;&lt;br&gt;ctg1 452&lt;br&gt;Location: 529330 - 530431" locus_tag="ctg1_452" class="clusterblast-orf" id="dummy-3_q7_0_all"  />
<polygon points="301,35 306,30 311,30 311,40 306,40 301,35 " style="fill:white; stroke-width:1; stroke:black; " description="&lt;b&gt;ctg1_453&lt;/b&gt;&lt;br&gt;ctg1 453&lt;br&gt;Location: 530481 - 531924" locus_tag="ctg1_453" class="clusterblast-orf" id="dummy-3_q8_0_all"  />
<polygon points="312,35 317,30 319,30 319,40 317,40 312,35 " style="fill:white; stroke-width:1; stroke:black; " description="&lt;b&gt;ctg1_454&lt;/b&gt;&lt;br&gt;ctg1 454&lt;br&gt;Location: 532074 - 533139" locus_tag="ctg1_454" class="clusterblast-orf" id="dummy-3_q9_0_all"  />
<polygon points="319,35 324,30 336,30 336,40 324,40 319,35 " style="fill:white; stroke-width:1; stroke:black; " description="&lt;b&gt;ctg1_455&lt;/b&gt;&lt;br&gt;ctg1 455&lt;br&gt;Location: 533128 - 535624" locus_tag="ctg1_455" class="clusterblast-orf" id="dummy-3_q10_0_all"  />
<polygon points="335,35 340,30 340,30 340,40 340,40 335,35 " style="fill:white; stroke-width:1; stroke:black; " description="&lt;b&gt;ctg1_456&lt;/b&gt;&lt;br&gt;ctg1 456&lt;br&gt;Location: 535592 - 536261" locus_tag="ctg1_456" class="clusterblast-orf" id="dummy-3_q11_0_all"  />
<polygon points="342,40 346,35 342,30 342,40 " style="fill:white; stroke-width:1; stroke:black; " description="&lt;b&gt;ctg1_457&lt;/b&gt;&lt;br&gt;ctg1 457&lt;br&gt;Location: 536535 - 537210" locus_tag="ctg1_457" class="clusterblast-orf" id="dummy-3_q12_0_all"  />
<polygon points="348,40 354,40 359,35 354,30 348,30 348,40 " style="fill:white; stroke-width:1; stroke:black; " description="&lt;b&gt;ctg1_458&lt;/b&gt;&lt;br&gt;ctg1 458&lt;br&gt;Location: 537399 - 539055" locus_tag="ctg1_458" class="clusterblast-orf" id="dummy-3_q13_0_all"  />
<polygon points="359,40 364,40 369,35 364,30 359,30 359,40 " style="fill:white; stroke-width:1; stroke:black; " description="&lt;b&gt;ctg1_459&lt;/b&gt;&lt;br&gt;ctg1 459&lt;br&gt;Location: 539081 - 540599" locus_tag="ctg1_459" class="clusterblast-orf" id="dummy-3_q14_0_all"  />
<polygon points="370,35 375,30 412,30 412,40 375,40 370,35 " style="fill:#d81515; stroke-width:1; stroke:black; " description="&lt;b&gt;ctg1_460&lt;/b&gt;&lt;br&gt;ctg1 460&lt;br&gt;Location: 540654 - 546924" locus_tag="ctg1_460" class="clusterblast-orf" id="dummy-3_q15_0_all"  />
<polygon points="416,40 416,40 421,35 416,30 416,30 416,40 " style="fill:#4dd815; stroke-width:1; stroke:black; " description="&lt;b&gt;ctg1_461&lt;/b&gt;&lt;br&gt;ctg1 461&lt;br&gt;Location: 547411 - 548206" locus_tag="ctg1_461" class="clusterblast-orf" id="dummy-3_q16_0_all"  />
<polygon points="421,40 426,40 431,35 426,30 421,30 421,40 " style="fill:#1585d8; stroke-width:1; stroke:black; " description="&lt;b&gt;ctg1_462&lt;/b&gt;&lt;br&gt;ctg1 462&lt;br&gt;Location: 548205 - 549675" locus_tag="ctg1_462" class="clusterblast-orf" id="dummy-3_q17_0_all"  />
<polygon points="430,35 435,30 436,30 436,40 435,40 430,35 " style="fill:white; stroke-width:1; stroke:black; " description="&lt;b&gt;ctg1_463&lt;/b&gt;&lt;br&gt;ctg1 463&lt;br&gt;Location: 549601 - 550462" locus_tag="ctg1_463" class="clusterblast-orf" id="dummy-3_q18_0_all"  />
<polygon points="437,40 437,40 442,35 437,30 437,30 437,40 " style="fill:white; stroke-width:1; stroke:black; " description="&lt;b&gt;ctg1_464&lt;/b&gt;&lt;br&gt;ctg1 464&lt;br&gt;Location: 550590 - 551256" locus_tag="ctg1_464" class="clusterblast-orf" id="dummy-3_q19_0_all"  />
<polygon points="442,40 442,40 447,35 442,30 442,30 442,40 " style="fill:white; stroke-width:1; stroke:black; " description="&lt;b&gt;ctg1_465&lt;/b&gt;&lt;br&gt;ctg1 465&lt;br&gt;Location: 551252 - 552023" locus_tag="ctg1_465" class="clusterblast-orf" id="dummy-3_q20_0_all"  />
<polygon points="447,40 452,40 457,35 452,30 447,30 447,40 " style="fill:white; stroke-width:1; stroke:black; " description="&lt;b&gt;ctg1_466&lt;/b&gt;&lt;br&gt;ctg1 466&lt;br&gt;Location: 552028 - 553489" locus_tag="ctg1_466" class="clusterblast-orf" id="dummy-3_q21_0_all"  />
<polygon points="457,40 458,40 463,35 458,30 457,30 457,40 " style="fill:white; stroke-width:1; stroke:black; " description="&lt;b&gt;ctg1_467&lt;/b&gt;&lt;br&gt;ctg1 467&lt;br&gt;Location: 553535 - 554393" locus_tag="ctg1_467" class="clusterblast-orf" id="dummy-3_q22_0_all"  />
<polygon points="463,40 466,35 463,30 463,40 " style="fill:white; stroke-width:1; stroke:black; " description="&lt;b&gt;ctg1_468&lt;/b&gt;&lt;br&gt;ctg1 468&lt;br&gt;Location: 554408 - 554801" locus_tag="ctg1_468" class="clusterblast-orf" id="dummy-3_q23_0_all"  />
<polygon points="466,40 470,40 475,35 470,30 466,30 466,40 " style="fill:#d815bc; stroke-width:1; stroke:black; " description="&lt;b&gt;ctg1_469&lt;/b&gt;&lt;br&gt;ctg1 469&lt;br&gt;Location: 554846 - 556151" locus_tag="ctg1_469" class="clusterblast-orf" id="dummy-3_q24_0_all"  />
<polygon points="475,40 475,40 480,35 475,30 475,30 475,40 " style="fill:white; stroke-width:1; stroke:black; " description="&lt;b&gt;ctg1_470&lt;/b&gt;&lt;br&gt;ctg1 470&lt;br&gt;Location: 556162 - 556966" locus_tag="ctg1_470" class="clusterblast-orf" id="dummy-3_q25_0_all"  />
<polygon points="480,40 481,40 486,35 481,30 480,30 480,40 " style="fill:white; stroke-width:1; stroke:black; " description="&lt;b&gt;ctg1_471&lt;/b&gt;&lt;br&gt;ctg1 471&lt;br&gt;Location: 556981 - 557782" locus_tag="ctg1_471" class="clusterblast-orf" id="dummy-3_q26_0_all"  />
<polygon points="487,35 490,30 490,40 487,35 " style="fill:white; stroke-width:1; stroke:black; " description="&lt;b&gt;ctg1_472&lt;/b&gt;&lt;br&gt;ctg1 472&lt;br&gt;Location: 557907 - 558330" locus_tag="ctg1_472" class="clusterblast-orf" id="dummy-3_q27_0_all"  />
<polygon points="491,40 495,40 500,35 495,30 491,30 491,40 " style="fill:white; stroke-width:1; stroke:black; " description="&lt;b&gt;ctg1_473&lt;/b&gt;&lt;br&gt;ctg1 473&lt;br&gt;Location: 558538 - 559837" locus_tag="ctg1_473" class="clusterblast-orf" id="dummy-3_q28_0_all"  />
<polygon points="500,40 502,35 500,30 500,40 " style="fill:white; stroke-width:1; stroke:black; " description="&lt;b&gt;ctg1_474&lt;/b&gt;&lt;br&gt;ctg1 474&lt;br&gt;Location: 559866 - 560232" locus_tag="ctg1_474" class="clusterblast-orf" id="dummy-3_q29_0_all"  />
<polygon points="503,40 503,40 508,35 503,30 503,30 503,40 " style="fill:#d8bc15; stroke-width:1; stroke:black; " description="&lt;b&gt;ctg1_475&lt;/b&gt;&lt;br&gt;ctg1 475&lt;br&gt;Location: 560244 - 561066" locus_tag="ctg1_475" class="clusterblast-orf" id="dummy-3_q30_0_all"  />
<polygon points="508,40 508,40 513,35 508,30 508,30 508,40 " style="fill:#15d885; stroke-width:1; stroke:black; " description="&lt;b&gt;ctg1_476&lt;/b&gt;&lt;br&gt;ctg1 476&lt;br&gt;Location: 561058 - 561862" locus_tag="ctg1_476" class="clusterblast-orf" id="dummy-3_q31_0_all"  />
<polygon points="513,40 514,40 519,35 514,30 513,30 513,40 " style="fill:#4d15d8; stroke-width:1; stroke:black; " description="&lt;b&gt;ctg1_477&lt;/b&gt;&lt;br&gt;ctg1 477&lt;br&gt;Location: 561851 - 562607" locus_tag="ctg1_477" class="clusterblast-orf" id="dummy-3_q32_0_all"  />
<polygon points="519,35 524,30 525,30 525,40 524,40 519,35 " style="fill:white; stroke-width:1; stroke:black; " description="&lt;b&gt;ctg1_478&lt;/b&gt;&lt;br&gt;ctg1 478&lt;br&gt;Location: 562668 - 563610" locus_tag="ctg1_478" class="clusterblast-orf" id="dummy-3_q33_0_all"  />
<polygon points="526,35 530,30 530,40 526,35 " style="fill:white; stroke-width:1; stroke:black; " description="&lt;b&gt;ctg1_479&lt;/b&gt;&lt;br&gt;ctg1 479&lt;br&gt;Location: 563721 - 564318" locus_tag="ctg1_479" class="clusterblast-orf" id="dummy-3_q34_0_all"  />
<polygon points="530,35 535,30 540,30 540,40 535,40 530,35 " style="fill:white; stroke-width:1; stroke:black; " description="&lt;b&gt;ctg1_480&lt;/b&gt;&lt;br&gt;ctg1 480&lt;br&gt;Location: 564280 - 565780" locus_tag="ctg1_480" class="clusterblast-orf" id="dummy-3_q35_0_all"  />
</g>
<g label="BGC0001416" description="BGC0001416_c1: nunapeptin/nunamycin (35% of genes show similarity), NRP" class="clusterblast-cluster"  >
<text x="5" y="70" class="clusterblast-acc"  >
<a xlink:href="https://mibig.secondarymetabolites.org/go/BGC0001416/1" target="_blank">BGC0001416</a>: nunapeptin/nunamycin                                                             (35% of genes show similarity), NRP</text>
<line x1="10" y1="85" x2="778.0" y2="85" style="stroke-width:1; stroke:grey; "  />
</g>
<g id="a3_000"  >
<polygon points="0,85 5,80 209,80 209,90 5,90 0,85 " style="fill:#d81515; stroke-width:1; stroke:black; " description="&lt;b&gt;AL066_08515&lt;/b&gt;&lt;br&gt;NupC&lt;br&gt;Location: 115071 - 84238&lt;br&gt;&lt;br&gt;&lt;b&gt;BlastP hit with ctg1_460&lt;/b&gt;&lt;br&gt;Percentage identity: 50&lt;br&gt;Percentage coverage: 84&lt;br&gt;BLAST bit score: 1499&lt;br&gt;E-value: 0.0" locus_tag="AL066_08515" class="clusterblast-orf" id="dummy-3_h3_5_0"  />
</g>
<g id="a3_001"  >
<polygon points="211,85 216,80 300,80 300,90 216,90 211,85 " style="fill:#d81515; stroke-width:1; stroke:black; " description="&lt;b&gt;AL066_08510&lt;/b&gt;&lt;br&gt;NupB&lt;br&gt;Location: 83899 - 70772&lt;br&gt;&lt;br&gt;&lt;b&gt;BlastP hit with ctg1_460&lt;/b&gt;&lt;br&gt;Percentage identity: 50&lt;br&gt;Percentage coverage: 83&lt;br&gt;BLAST bit score: 1530&lt;br&gt;E-value: 0.0" locus_tag="AL066_08510" class="clusterblast-orf" id="dummy-3_h3_5_1"  />
</g>
<g id="a3_002"  >
<polygon points="300,85 305,80 496,80 496,90 305,90 300,85 " style="fill:#d81515; stroke-width:1; stroke:black; " description="&lt;b&gt;AL066_08505&lt;/b&gt;&lt;br&gt;NupA&lt;br&gt;Location: 70775 - 41868&lt;br&gt;&lt;br&gt;&lt;b&gt;BlastP hit with ctg1_460&lt;/b&gt;&lt;br&gt;Percentage identity: 51&lt;br&gt;Percentage coverage: 104&lt;br&gt;BLAST bit score: 1948&lt;br&gt;E-value: 0.0" locus_tag="AL066_08505" class="clusterblast-orf" id="dummy-3_h3_5_2"  />
</g>
<g id="a3_003"  >
<polygon points="497,85 502,80 509,80 509,90 502,90 497,85 " style="fill:white; stroke-width:1; stroke:black; " description="&lt;b&gt;AL066_08500&lt;/b&gt;&lt;br&gt;NupD&lt;br&gt;Location: 41643 - 39913" locus_tag="AL066_08500" class="clusterblast-orf" id="dummy-3_h3_5_3"  />
</g>
<g id="a3_004"  >
<polygon points="510,85 515,80 517,80 517,90 515,90 510,85 " style="fill:white; stroke-width:1; stroke:black; " description="&lt;b&gt;AL066_08495&lt;/b&gt;&lt;br&gt;NupP&lt;br&gt;Location: 39798 - 38755" locus_tag="AL066_08495" class="clusterblast-orf" id="dummy-3_h3_5_4"  />
</g>
<g id="a3_005"  >
<polygon points="520,90 527,90 532,85 527,80 520,80 520,90 " style="fill:white; stroke-width:1; stroke:black; " description="&lt;b&gt;AL066_08490&lt;/b&gt;&lt;br&gt;NunB1&lt;br&gt;Location: 38315 - 36456" locus_tag="AL066_08490" class="clusterblast-orf" id="dummy-3_h3_5_5"  />
</g>
<g id="a3_006"  >
<polygon points="532,90 534,90 539,85 534,80 532,80 532,90 " style="fill:white; stroke-width:1; stroke:black; " description="&lt;b&gt;AL066_08485&lt;/b&gt;&lt;br&gt;NunB2&lt;br&gt;Location: 36463 - 35519" locus_tag="AL066_08485" class="clusterblast-orf" id="dummy-3_h3_5_6"  />
</g>
<g id="a3_007"  >
<polygon points="539,90 542,90 547,85 542,80 539,80 539,90 " style="fill:white; stroke-width:1; stroke:black; " description="&lt;b&gt;AL066_08480&lt;/b&gt;&lt;br&gt;NunC&lt;br&gt;Location: 35477 - 34275" locus_tag="AL066_08480" class="clusterblast-orf" id="dummy-3_h3_5_7"  />
</g>
<g id="a3_008"  >
<polygon points="550,85 555,80 559,80 559,90 555,90 550,85 " style="fill:white; stroke-width:1; stroke:black; " description="&lt;b&gt;AL066_08475&lt;/b&gt;&lt;br&gt;class III aminotransferase&lt;br&gt;Location: 33886 - 32522" locus_tag="AL066_08475" class="clusterblast-orf" id="dummy-3_h3_5_8"  />
</g>
<g id="a3_009"  >
<polygon points="559,85 564,80 566,80 566,90 564,90 559,85 " style="fill:white; stroke-width:1; stroke:black; " description="&lt;b&gt;AL066_08470&lt;/b&gt;&lt;br&gt;transcription factor&lt;br&gt;Location: 32525 - 31536" locus_tag="AL066_08470" class="clusterblast-orf" id="dummy-3_h3_5_9"  />
</g>
<g id="a3_0010"  >
<polygon points="569,90 664,90 669,85 664,80 569,80 569,90 " style="fill:white; stroke-width:1; stroke:black; " description="&lt;b&gt;AL066_08465&lt;/b&gt;&lt;br&gt;NunD&lt;br&gt;Location: 31125 - 16291" locus_tag="AL066_08465" class="clusterblast-orf" id="dummy-3_h3_5_10"  />
</g>
<g id="a3_0011"  >
<polygon points="669,90 756,90 761,85 756,80 669,80 669,90 " style="fill:white; stroke-width:1; stroke:black; " description="&lt;b&gt;AL066_08460&lt;/b&gt;&lt;br&gt;NunE&lt;br&gt;Location: 16287 - 2722" locus_tag="AL066_08460" class="clusterblast-orf" id="dummy-3_h3_5_11"  />
</g>
<g id="a3_0012"  >
<polygon points="764,90 764,90 769,85 764,80 764,80 764,90 " style="fill:#4dd815; stroke-width:1; stroke:black; " description="&lt;b&gt;AL066_08455&lt;/b&gt;&lt;br&gt;NunF&lt;br&gt;Location: 2310 - 1477&lt;br&gt;&lt;br&gt;&lt;b&gt;BlastP hit with ctg1_461&lt;/b&gt;&lt;br&gt;Percentage identity: 54&lt;br&gt;Percentage coverage: 105&lt;br&gt;BLAST bit score: 270&lt;br&gt;E-value: 6.97e-91" locus_tag="AL066_08455" class="clusterblast-orf" id="dummy-3_h3_5_12"  />
</g>
<g id="a3_0013"  >
<polygon points="770,90 775,90 780,85 775,80 770,80 770,90 " style="fill:#1585d8; stroke-width:1; stroke:black; " description="&lt;b&gt;AL066_08450&lt;/b&gt;&lt;br&gt;NunG&lt;br&gt;Location: 1419 - 1&lt;br&gt;&lt;br&gt;&lt;b&gt;BlastP hit with ctg1_462&lt;/b&gt;&lt;br&gt;Percentage identity: 70&lt;br&gt;Percentage coverage: 95&lt;br&gt;BLAST bit score: 625&lt;br&gt;E-value: 2.95e-224" locus_tag="AL066_08450" class="clusterblast-orf" id="dummy-3_h3_5_13"  />
</g>
</svg>
