<svg xmlns="http://www.w3.org/2000/svg" xmlns:xlink="http://www.w3.org/1999/xlink" version="1.1" x="0" y="0" height="230" width="800" viewBox="0 0 800 230" preserveAspectRatio="none"  >
<g label="Query sequence" class="clusterblast-cluster"  >
<text x="5" y="20" class="clusterblast-acc"  >
Query sequence</text>
<line x1="10" y1="35" x2="778.0" y2="35" style="stroke-width:1; stroke:grey; "  />
<polygon points="0,35 5,30 5,30 5,40 5,40 0,35 " style="fill:white; stroke-width:1; stroke:black; " description="&lt;b&gt;ctg6_10&lt;/b&gt;&lt;br&gt;ctg6 10&lt;br&gt;Location: 12749 - 13160" locus_tag="ctg6_10" class="clusterblast-orf" id="dummy-1_q0_0_all"  />
<polygon points="5,35 9,30 9,40 5,35 " style="fill:white; stroke-width:1; stroke:black; " description="&lt;b&gt;ctg6_11&lt;/b&gt;&lt;br&gt;ctg6 11&lt;br&gt;Location: 13187 - 13520" locus_tag="ctg6_11" class="clusterblast-orf" id="dummy-1_q1_0_all"  />
<polygon points="9,35 14,30 15,30 15,40 14,40 9,35 " style="fill:white; stroke-width:1; stroke:black; " description="&lt;b&gt;ctg6_12&lt;/b&gt;&lt;br&gt;ctg6 12&lt;br&gt;Location: 13523 - 13985" locus_tag="ctg6_12" class="clusterblast-orf" id="dummy-1_q2_0_all"  />
<polygon points="15,35 20,30 28,30 28,40 20,40 15,35 " style="fill:white; stroke-width:1; stroke:black; " description="&lt;b&gt;ctg6_13&lt;/b&gt;&lt;br&gt;ctg6 13&lt;br&gt;Location: 14000 - 15005" locus_tag="ctg6_13" class="clusterblast-orf" id="dummy-1_q3_0_all"  />
<polygon points="29,40 36,40 41,35 36,30 29,30 29,40 " style="fill:white; stroke-width:1; stroke:black; " description="&lt;b&gt;ctg6_14&lt;/b&gt;&lt;br&gt;ctg6 14&lt;br&gt;Location: 15118 - 16012" locus_tag="ctg6_14" class="clusterblast-orf" id="dummy-1_q4_0_all"  />
<polygon points="42,35 47,30 58,30 58,40 47,40 42,35 " style="fill:#d81515; stroke-width:1; stroke:black; " description="&lt;b&gt;ctg6_15&lt;/b&gt;&lt;br&gt;ctg6 15&lt;br&gt;Location: 16130 - 17426" locus_tag="ctg6_15" class="clusterblast-orf" id="dummy-1_q5_0_all"  />
<polygon points="58,35 63,30 72,30 72,40 63,40 58,35 " style="fill:#3cd815; stroke-width:1; stroke:black; " description="&lt;b&gt;ctg6_16&lt;/b&gt;&lt;br&gt;ctg6 16&lt;br&gt;Location: 17422 - 18511" locus_tag="ctg6_16" class="clusterblast-orf" id="dummy-1_q6_0_all"  />
<polygon points="72,35 77,30 89,30 89,40 77,40 72,35 " style="fill:white; stroke-width:1; stroke:black; " description="&lt;b&gt;ctg6_17&lt;/b&gt;&lt;br&gt;ctg6 17&lt;br&gt;Location: 18533 - 19892" locus_tag="ctg6_17" class="clusterblast-orf" id="dummy-1_q7_0_all"  />
<polygon points="91,40 98,40 103,35 98,30 91,30 91,40 " style="fill:#1563d8; stroke-width:1; stroke:black; " description="&lt;b&gt;ctg6_18&lt;/b&gt;&lt;br&gt;ctg6 18&lt;br&gt;Location: 20030 - 20927" locus_tag="ctg6_18" class="clusterblast-orf" id="dummy-1_q8_0_all"  />
<polygon points="104,40 126,40 131,35 126,30 104,30 104,40 " style="fill:#b115d8; stroke-width:1; stroke:black; " description="&lt;b&gt;ctg6_19&lt;/b&gt;&lt;br&gt;ctg6 19&lt;br&gt;Location: 21032 - 23174" locus_tag="ctg6_19" class="clusterblast-orf" id="dummy-1_q9_0_all"  />
<polygon points="131,35 136,30 145,30 145,40 136,40 131,35 " style="fill:white; stroke-width:1; stroke:black; " description="&lt;b&gt;ctg6_20&lt;/b&gt;&lt;br&gt;ctg6 20&lt;br&gt;Location: 23163 - 24294" locus_tag="ctg6_20" class="clusterblast-orf" id="dummy-1_q10_0_all"  />
<polygon points="146,40 151,40 156,35 151,30 146,30 146,40 " style="fill:white; stroke-width:1; stroke:black; " description="&lt;b&gt;ctg6_21&lt;/b&gt;&lt;br&gt;ctg6 21&lt;br&gt;Location: 24392 - 25163" locus_tag="ctg6_21" class="clusterblast-orf" id="dummy-1_q11_0_all"  />
<polygon points="157,35 162,30 163,30 163,40 162,40 157,35 " style="fill:#d88a15; stroke-width:1; stroke:black; " description="&lt;b&gt;ctg6_22&lt;/b&gt;&lt;br&gt;ctg6 22&lt;br&gt;Location: 25241 - 25712" locus_tag="ctg6_22" class="clusterblast-orf" id="dummy-1_q12_0_all"  />
<polygon points="164,40 175,40 180,35 175,30 164,30 164,40 " style="fill:#15d863; stroke-width:1; stroke:black; " description="&lt;b&gt;ctg6_23&lt;/b&gt;&lt;br&gt;ctg6 23&lt;br&gt;Location: 25835 - 27080" locus_tag="ctg6_23" class="clusterblast-orf" id="dummy-1_q13_0_all"  />
<polygon points="183,40 186,40 191,35 186,30 183,30 183,40 " style="fill:#3c15d8; stroke-width:1; stroke:black; " description="&lt;b&gt;ctg6_24&lt;/b&gt;&lt;br&gt;ctg6 24&lt;br&gt;Location: 27312 - 27990" locus_tag="ctg6_24" class="clusterblast-orf" id="dummy-1_q14_0_all"  />
<polygon points="193,35 198,30 218,30 218,40 198,40 193,35 " style="fill:#d8158a; stroke-width:1; stroke:black; " description="&lt;b&gt;ctg6_25&lt;/b&gt;&lt;br&gt;ctg6 25&lt;br&gt;Location: 28117 - 30076" locus_tag="ctg6_25" class="clusterblast-orf" id="dummy-1_q15_0_all"  />
<polygon points="218,35 223,30 232,30 232,40 223,40 218,35 " style="fill:#b1d815; stroke-width:1; stroke:black; " description="&lt;b&gt;ctg6_26&lt;/b&gt;&lt;br&gt;ctg6 26&lt;br&gt;Location: 30079 - 31222" locus_tag="ctg6_26" class="clusterblast-orf" id="dummy-1_q16_0_all"  />
<polygon points="232,35 237,30 375,30 375,40 237,40 232,35 " style="fill:#15d8d8; stroke-width:1; stroke:black; " description="&lt;b&gt;ctg6_27&lt;/b&gt;&lt;br&gt;ctg6 27&lt;br&gt;Location: 31218 - 42555" locus_tag="ctg6_27" class="clusterblast-orf" id="dummy-1_q17_0_all"  />
<polygon points="375,35 380,30 537,30 537,40 380,40 375,35 " style="fill:#15d8d8; stroke-width:1; stroke:black; " description="&lt;b&gt;ctg6_28&lt;/b&gt;&lt;br&gt;ctg6 28&lt;br&gt;Location: 42551 - 55463" locus_tag="ctg6_28" class="clusterblast-orf" id="dummy-1_q18_0_all"  />
<polygon points="540,35 545,30 547,30 547,40 545,40 540,35 " style="fill:white; stroke-width:1; stroke:black; " description="&lt;b&gt;ctg6_29&lt;/b&gt;&lt;br&gt;ctg6 29&lt;br&gt;Location: 55672 - 56245" locus_tag="ctg6_29" class="clusterblast-orf" id="dummy-1_q19_0_all"  />
<polygon points="548,35 553,30 561,30 561,40 553,40 548,35 " style="fill:white; stroke-width:1; stroke:black; " description="&lt;b&gt;ctg6_30&lt;/b&gt;&lt;br&gt;ctg6 30&lt;br&gt;Location: 56337 - 57336" locus_tag="ctg6_30" class="clusterblast-orf" id="dummy-1_q20_0_all"  />
<polygon points="561,35 566,30 608,30 608,40 566,40 561,35 " style="fill:white; stroke-width:1; stroke:black; " description="&lt;b&gt;ctg6_31&lt;/b&gt;&lt;br&gt;ctg6 31&lt;br&gt;Location: 57335 - 61097" locus_tag="ctg6_31" class="clusterblast-orf" id="dummy-1_q21_0_all"  />
<polygon points="608,35 613,30 621,30 621,40 613,40 608,35 " style="fill:white; stroke-width:1; stroke:black; " description="&lt;b&gt;ctg6_32&lt;/b&gt;&lt;br&gt;ctg6 32&lt;br&gt;Location: 61100 - 62162" locus_tag="ctg6_32" class="clusterblast-orf" id="dummy-1_q22_0_all"  />
<polygon points="635,35 640,30 645,30 645,40 640,40 635,35 " style="fill:white; stroke-width:1; stroke:black; " description="&lt;b&gt;ctg6_33&lt;/b&gt;&lt;br&gt;ctg6 33&lt;br&gt;Location: 63278 - 64061" locus_tag="ctg6_33" class="clusterblast-orf" id="dummy-1_q23_0_all"  />
<polygon points="646,40 649,40 654,35 649,30 646,30 646,40 " style="fill:white; stroke-width:1; stroke:black; " description="&lt;b&gt;ctg6_34&lt;/b&gt;&lt;br&gt;ctg6 34&lt;br&gt;Location: 64157 - 64778" locus_tag="ctg6_34" class="clusterblast-orf" id="dummy-1_q24_0_all"  />
<polygon points="654,35 659,30 663,30 663,40 659,40 654,35 " style="fill:white; stroke-width:1; stroke:black; " description="&lt;b&gt;ctg6_35&lt;/b&gt;&lt;br&gt;ctg6 35&lt;br&gt;Location: 64781 - 65480" locus_tag="ctg6_35" class="clusterblast-orf" id="dummy-1_q25_0_all"  />
<polygon points="663,35 668,30 673,30 673,40 668,40 663,35 " style="fill:white; stroke-width:1; stroke:black; " description="&lt;b&gt;ctg6_36&lt;/b&gt;&lt;br&gt;ctg6 36&lt;br&gt;Location: 65483 - 66311" locus_tag="ctg6_36" class="clusterblast-orf" id="dummy-1_q26_0_all"  />
<polygon points="674,35 679,30 685,30 685,40 679,40 674,35 " style="fill:white; stroke-width:1; stroke:black; " description="&lt;b&gt;ctg6_37&lt;/b&gt;&lt;br&gt;ctg6 37&lt;br&gt;Location: 66338 - 67199" locus_tag="ctg6_37" class="clusterblast-orf" id="dummy-1_q27_0_all"  />
<polygon points="685,35 688,30 688,40 685,35 " style="fill:white; stroke-width:1; stroke:black; " description="&lt;b&gt;ctg6_38&lt;/b&gt;&lt;br&gt;ctg6 38&lt;br&gt;Location: 67198 - 67501" locus_tag="ctg6_38" class="clusterblast-orf" id="dummy-1_q28_0_all"  />
<polygon points="690,35 695,30 699,30 699,40 695,40 690,35 " style="fill:white; stroke-width:1; stroke:black; " description="&lt;b&gt;ctg6_39&lt;/b&gt;&lt;br&gt;ctg6 39&lt;br&gt;Location: 67661 - 68348" locus_tag="ctg6_39" class="clusterblast-orf" id="dummy-1_q29_0_all"  />
<polygon points="700,35 705,30 708,30 708,40 705,40 700,35 " style="fill:white; stroke-width:1; stroke:black; " description="&lt;b&gt;ctg6_40&lt;/b&gt;&lt;br&gt;ctg6 40&lt;br&gt;Location: 68438 - 69086" locus_tag="ctg6_40" class="clusterblast-orf" id="dummy-1_q30_0_all"  />
<polygon points="712,35 717,30 745,30 745,40 717,40 712,35 " style="fill:white; stroke-width:1; stroke:black; " description="&lt;b&gt;ctg6_41&lt;/b&gt;&lt;br&gt;ctg6 41&lt;br&gt;Location: 69381 - 72027" locus_tag="ctg6_41" class="clusterblast-orf" id="dummy-1_q31_0_all"  />
<polygon points="748,40 752,35 748,30 748,40 " style="fill:white; stroke-width:1; stroke:black; " description="&lt;b&gt;ctg6_42&lt;/b&gt;&lt;br&gt;ctg6 42&lt;br&gt;Location: 72212 - 72557" locus_tag="ctg6_42" class="clusterblast-orf" id="dummy-1_q32_0_all"  />
<polygon points="756,40 756,40 761,35 756,30 756,30 756,40 " style="fill:white; stroke-width:1; stroke:black; " description="&lt;b&gt;ctg6_43&lt;/b&gt;&lt;br&gt;ctg6 43&lt;br&gt;Location: 72840 - 73266" locus_tag="ctg6_43" class="clusterblast-orf" id="dummy-1_q33_0_all"  />
<polygon points="762,40 767,40 772,35 767,30 762,30 762,40 " style="fill:white; stroke-width:1; stroke:black; " description="&lt;b&gt;ctg6_44&lt;/b&gt;&lt;br&gt;ctg6 44&lt;br&gt;Location: 73321 - 74107" locus_tag="ctg6_44" class="clusterblast-orf" id="dummy-1_q34_0_all"  />
<polygon points="772,35 774,30 774,40 772,35 " style="fill:white; stroke-width:1; stroke:black; " description="&lt;b&gt;ctg6_45&lt;/b&gt;&lt;br&gt;ctg6 45&lt;br&gt;Location: 74157 - 74313" locus_tag="ctg6_45" class="clusterblast-orf" id="dummy-1_q35_0_all"  />
<polygon points="776,35 780,30 780,40 776,35 " style="fill:white; stroke-width:1; stroke:black; " description="&lt;b&gt;ctg6_46&lt;/b&gt;&lt;br&gt;ctg6 46&lt;br&gt;Location: 74424 - 74751" locus_tag="ctg6_46" class="clusterblast-orf" id="dummy-1_q36_0_all"  />
</g>
<g label="BGC0001312" description="BGC0001312_c1: viscosin (68% of genes show similarity), NRP" class="clusterblast-cluster"  >
<text x="5" y="70" class="clusterblast-acc"  >
<a xlink:href="https://mibig.secondarymetabolites.org/go/BGC0001312/1" target="_blank">BGC0001312</a>: viscosin                                                                         (68% of genes show similarity), NRP</text>
<line x1="10" y1="85" x2="778.0" y2="85" style="stroke-width:1; stroke:grey; "  />
</g>
<g id="a1_000"  >
<polygon points="116,85 121,80 133,80 133,90 121,90 116,85 " style="fill:#d81515; stroke-width:1; stroke:black; " description="&lt;b&gt;PFLU_2565&lt;/b&gt;&lt;br&gt;putative oxidoreductase&lt;br&gt;Location: 43437 - 42142&lt;br&gt;&lt;br&gt;&lt;b&gt;BlastP hit with ctg6_15&lt;/b&gt;&lt;br&gt;Percentage identity: 90&lt;br&gt;Percentage coverage: 99&lt;br&gt;BLAST bit score: 796&lt;br&gt;E-value: 2.51e-293" locus_tag="PFLU_2565" class="clusterblast-orf" id="dummy-1_h1_1_0"  />
</g>
<g id="a1_001"  >
<polygon points="133,85 138,80 146,80 146,90 138,90 133,85 " style="fill:#3cd815; stroke-width:1; stroke:black; " description="&lt;b&gt;PFLU_2564&lt;/b&gt;&lt;br&gt;putrescine ABC transporter, substrate-binding protein&lt;br&gt;Location: 42145 - 41057&lt;br&gt;&lt;br&gt;&lt;b&gt;BlastP hit with ctg6_16&lt;/b&gt;&lt;br&gt;Percentage identity: 95&lt;br&gt;Percentage coverage: 100&lt;br&gt;BLAST bit score: 693&lt;br&gt;E-value: 5.71e-255" locus_tag="PFLU_2564" class="clusterblast-orf" id="dummy-1_h1_1_1"  />
</g>
<g id="a1_002"  >
<polygon points="148,90 155,90 160,85 155,80 148,80 148,90 " style="fill:#1563d8; stroke-width:1; stroke:black; " description="&lt;b&gt;PFLU_2563&lt;/b&gt;&lt;br&gt;putative AraC-type regulatory protein&lt;br&gt;Location: 40892 - 39960&lt;br&gt;&lt;br&gt;&lt;b&gt;BlastP hit with ctg6_18&lt;/b&gt;&lt;br&gt;Percentage identity: 90&lt;br&gt;Percentage coverage: 100&lt;br&gt;BLAST bit score: 536&lt;br&gt;E-value: 9.48e-195" locus_tag="PFLU_2563" class="clusterblast-orf" id="dummy-1_h1_1_2"  />
</g>
<g id="a1_003"  >
<polygon points="161,90 183,90 188,85 183,80 161,80 161,90 " style="fill:#b115d8; stroke-width:1; stroke:black; " description="&lt;b&gt;PFLU_2562&lt;/b&gt;&lt;br&gt;putative ferric siderophore receptor&lt;br&gt;Location: 39872 - 37710&lt;br&gt;&lt;br&gt;&lt;b&gt;BlastP hit with ctg6_19&lt;/b&gt;&lt;br&gt;Percentage identity: 89&lt;br&gt;Percentage coverage: 101&lt;br&gt;BLAST bit score: 1283&lt;br&gt;E-value: 0.0" locus_tag="PFLU_2562" class="clusterblast-orf" id="dummy-1_h1_1_3"  />
</g>
<g id="a1_004"  >
<polygon points="188,85 193,80 194,80 194,90 193,90 188,85 " style="fill:white; stroke-width:1; stroke:black; " description="&lt;b&gt;PFLU_2561&lt;/b&gt;&lt;br&gt;conserved hypothetical protein&lt;br&gt;Location: 37706 - 37269" locus_tag="PFLU_2561" class="clusterblast-orf" id="dummy-1_h1_1_4"  />
</g>
<g id="a1_005"  >
<polygon points="199,85 204,80 205,80 205,90 204,90 199,85 " style="fill:#d88a15; stroke-width:1; stroke:black; " description="&lt;b&gt;PFLU_2559&lt;/b&gt;&lt;br&gt;AsnC family regulatory protein&lt;br&gt;Location: 36834 - 36364&lt;br&gt;&lt;br&gt;&lt;b&gt;BlastP hit with ctg6_22&lt;/b&gt;&lt;br&gt;Percentage identity: 97&lt;br&gt;Percentage coverage: 100&lt;br&gt;BLAST bit score: 301&lt;br&gt;E-value: 1.16e-106" locus_tag="PFLU_2559" class="clusterblast-orf" id="dummy-1_h1_1_5"  />
</g>
<g id="a1_006"  >
<polygon points="207,90 217,90 222,85 217,80 207,80 207,90 " style="fill:#15d863; stroke-width:1; stroke:black; " description="&lt;b&gt;PFLU_2558&lt;/b&gt;&lt;br&gt;methionine gamma-lyase&lt;br&gt;Location: 36240 - 35005&lt;br&gt;&lt;br&gt;&lt;b&gt;BlastP hit with ctg6_23&lt;/b&gt;&lt;br&gt;Percentage identity: 94&lt;br&gt;Percentage coverage: 98&lt;br&gt;BLAST bit score: 764&lt;br&gt;E-value: 2.65e-281" locus_tag="PFLU_2558" class="clusterblast-orf" id="dummy-1_h1_1_6"  />
</g>
<g id="a1_007"  >
<polygon points="224,90 228,90 233,85 228,80 224,80 224,90 " style="fill:#3c15d8; stroke-width:1; stroke:black; " description="&lt;b&gt;PFLU_2557&lt;/b&gt;&lt;br&gt;putative LuxR-family regulatory protein&lt;br&gt;Location: 34852 - 34178&lt;br&gt;&lt;br&gt;&lt;b&gt;BlastP hit with ctg6_24&lt;/b&gt;&lt;br&gt;Percentage identity: 87&lt;br&gt;Percentage coverage: 97&lt;br&gt;BLAST bit score: 374&lt;br&gt;E-value: 4.51e-133" locus_tag="PFLU_2557" class="clusterblast-orf" id="dummy-1_h1_1_7"  />
</g>
<g id="a1_008"  >
<polygon points="234,85 239,80 258,80 258,90 239,90 234,85 " style="fill:#d8158a; stroke-width:1; stroke:black; " description="&lt;b&gt;PFLU_2556&lt;/b&gt;&lt;br&gt;macrolide-specific ABC-type efflux carrier&lt;br&gt;Location: 34107 - 32149&lt;br&gt;&lt;br&gt;&lt;b&gt;BlastP hit with ctg6_25&lt;/b&gt;&lt;br&gt;Percentage identity: 97&lt;br&gt;Percentage coverage: 100&lt;br&gt;BLAST bit score: 1210&lt;br&gt;E-value: 0.0" locus_tag="PFLU_2556" class="clusterblast-orf" id="dummy-1_h1_1_8"  />
</g>
<g id="a1_009"  >
<polygon points="258,85 263,80 273,80 273,90 263,90 258,85 " style="fill:#b1d815; stroke-width:1; stroke:black; " description="&lt;b&gt;PFLU_2555&lt;/b&gt;&lt;br&gt;putative drug-efflux protein&lt;br&gt;Location: 32145 - 30994&lt;br&gt;&lt;br&gt;&lt;b&gt;BlastP hit with ctg6_26&lt;/b&gt;&lt;br&gt;Percentage identity: 94&lt;br&gt;Percentage coverage: 99&lt;br&gt;BLAST bit score: 661&lt;br&gt;E-value: 1.14e-241" locus_tag="PFLU_2555" class="clusterblast-orf" id="dummy-1_h1_1_9"  />
</g>
<g id="a1_0010"  >
<polygon points="286,85 291,80 429,80 429,90 291,90 286,85 " style="fill:#15d8d8; stroke-width:1; stroke:black; " description="&lt;b&gt;PFLU_2553&lt;/b&gt;&lt;br&gt;putative non-ribosomal peptide synthetase&lt;br&gt;Location: 29936 - 18615&lt;br&gt;&lt;br&gt;&lt;b&gt;BlastP hit with ctg6_27&lt;/b&gt;&lt;br&gt;Percentage identity: 88&lt;br&gt;Percentage coverage: 100&lt;br&gt;BLAST bit score: 6606&lt;br&gt;E-value: 0.0&lt;br&gt;&lt;br&gt;&lt;b&gt;BlastP hit with ctg6_28&lt;/b&gt;&lt;br&gt;Percentage identity: 60&lt;br&gt;Percentage coverage: 50&lt;br&gt;BLAST bit score: 2379&lt;br&gt;E-value: 0.0" locus_tag="PFLU_2553" class="clusterblast-orf" id="dummy-1_h1_1_10"  />
</g>
<g id="a1_0011"  >
<polygon points="429,85 434,80 591,80 591,90 434,90 429,85 " style="fill:#15d8d8; stroke-width:1; stroke:black; " description="&lt;b&gt;PFLU_2552&lt;/b&gt;&lt;br&gt;putative non-ribosomal peptide synthetase&lt;br&gt;Location: 18618 - 5734&lt;br&gt;&lt;br&gt;&lt;b&gt;BlastP hit with ctg6_27&lt;/b&gt;&lt;br&gt;Percentage identity: 59&lt;br&gt;Percentage coverage: 58&lt;br&gt;BLAST bit score: 2371&lt;br&gt;E-value: 0.0&lt;br&gt;&lt;br&gt;&lt;b&gt;BlastP hit with ctg6_28&lt;/b&gt;&lt;br&gt;Percentage identity: 88&lt;br&gt;Percentage coverage: 100&lt;br&gt;BLAST bit score: 7503&lt;br&gt;E-value: 0.0" locus_tag="PFLU_2552" class="clusterblast-orf" id="dummy-1_h1_1_11"  />
</g>
<g id="a1_0012"  >
<polygon points="596,85 601,80 616,80 616,90 601,90 596,85 " style="fill:white; stroke-width:1; stroke:black; " description="&lt;b&gt;PFLU_2551&lt;/b&gt;&lt;br&gt;conserved hypothetical protein&lt;br&gt;Location: 5303 - 3678" locus_tag="PFLU_2551" class="clusterblast-orf" id="dummy-1_h1_1_12"  />
</g>
<g id="a1_0013"  >
<polygon points="618,90 630,90 635,85 630,80 618,80 618,90 " style="fill:white; stroke-width:1; stroke:black; " description="&lt;b&gt;PFLU_2550&lt;/b&gt;&lt;br&gt;putative dipeptidase&lt;br&gt;Location: 3535 - 2186" locus_tag="PFLU_2550" class="clusterblast-orf" id="dummy-1_h1_1_13"  />
</g>
<g id="a1_0014"  >
<polygon points="635,90 646,90 651,85 646,80 635,80 635,90 " style="fill:white; stroke-width:1; stroke:black; " description="&lt;b&gt;PFLU_2549&lt;/b&gt;&lt;br&gt;putative aminotransferase&lt;br&gt;Location: 2167 - 896" locus_tag="PFLU_2549" class="clusterblast-orf" id="dummy-1_h1_1_14"  />
</g>
<g id="a1_0015"  >
<polygon points="652,90 658,90 663,85 658,80 652,80 652,90 " style="fill:white; stroke-width:1; stroke:black; " description="&lt;b&gt;PFLU_2548&lt;/b&gt;&lt;br&gt;conserved hypothetical protein&lt;br&gt;Location: 861 - 1" locus_tag="PFLU_2548" class="clusterblast-orf" id="dummy-1_h1_1_15"  />
</g>
</svg>
