<svg xmlns="http://www.w3.org/2000/svg" xmlns:xlink="http://www.w3.org/1999/xlink" version="1.1" x="0" y="0" height="230" width="800" viewBox="0 0 800 230" preserveAspectRatio="none"  >
<g label="Query sequence" class="clusterblast-cluster"  >
<text x="5" y="20" class="clusterblast-acc"  >
Query sequence</text>
<line x1="10" y1="35" x2="778.0" y2="35" style="stroke-width:1; stroke:grey; "  />
<polygon points="15,40 23,40 28,35 23,30 15,30 15,40 " style="fill:#d81515; stroke-width:1; stroke:black; " description="&lt;b&gt;ctg3_47&lt;/b&gt;&lt;br&gt;ctg3 47&lt;br&gt;Location: 52023 - 52503" locus_tag="ctg3_47" class="clusterblast-orf" id="dummy-1_q0_0_all"  />
<polygon points="28,40 45,40 50,35 45,30 28,30 28,40 " style="fill:#60d815; stroke-width:1; stroke:black; " description="&lt;b&gt;ctg3_48&lt;/b&gt;&lt;br&gt;ctg3 48&lt;br&gt;Location: 52499 - 53270" locus_tag="ctg3_48" class="clusterblast-orf" id="dummy-1_q1_0_all"  />
<polygon points="52,35 57,30 113,30 113,40 57,40 52,35 " style="fill:#15abd8; stroke-width:1; stroke:black; " description="&lt;b&gt;ctg3_49&lt;/b&gt;&lt;br&gt;ctg3 49&lt;br&gt;Location: 53349 - 55497" locus_tag="ctg3_49" class="clusterblast-orf" id="dummy-1_q2_0_all"  />
<polygon points="115,40 123,40 128,35 123,30 115,30 115,40 " style="fill:#8d15d8; stroke-width:1; stroke:black; " description="&lt;b&gt;ctg3_50&lt;/b&gt;&lt;br&gt;ctg3 50&lt;br&gt;Location: 55594 - 56047" locus_tag="ctg3_50" class="clusterblast-orf" id="dummy-1_q3_0_all"  />
<polygon points="128,40 135,40 140,35 135,30 128,30 128,40 " style="fill:#d84215; stroke-width:1; stroke:black; " description="&lt;b&gt;ctg3_51&lt;/b&gt;&lt;br&gt;ctg3 51&lt;br&gt;Location: 56039 - 56489" locus_tag="ctg3_51" class="clusterblast-orf" id="dummy-1_q4_0_all"  />
<polygon points="142,35 147,30 158,30 158,40 147,40 142,35 " style="fill:#33d815; stroke-width:1; stroke:black; " description="&lt;b&gt;ctg3_52&lt;/b&gt;&lt;br&gt;ctg3 52&lt;br&gt;Location: 56532 - 57111" locus_tag="ctg3_52" class="clusterblast-orf" id="dummy-1_q5_0_all"  />
<polygon points="160,35 165,30 197,30 197,40 165,40 160,35 " style="fill:#157ed8; stroke-width:1; stroke:black; " description="&lt;b&gt;ctg3_53&lt;/b&gt;&lt;br&gt;ctg3 53&lt;br&gt;Location: 57180 - 58494" locus_tag="ctg3_53" class="clusterblast-orf" id="dummy-1_q6_0_all"  />
<polygon points="198,35 203,30 203,30 203,40 203,40 198,35 " style="fill:#ba15d8; stroke-width:1; stroke:black; " description="&lt;b&gt;ctg3_54&lt;/b&gt;&lt;br&gt;ctg3 54&lt;br&gt;Location: 58544 - 58700" locus_tag="ctg3_54" class="clusterblast-orf" id="dummy-1_q7_0_all"  />
<polygon points="206,35 211,30 228,30 228,40 211,40 206,35 " style="fill:#d86f15; stroke-width:1; stroke:black; " description="&lt;b&gt;ctg3_55&lt;/b&gt;&lt;br&gt;ctg3 55&lt;br&gt;Location: 58801 - 59608" locus_tag="ctg3_55" class="clusterblast-orf" id="dummy-1_q8_0_all"  />
<polygon points="229,35 234,30 247,30 247,40 234,40 229,35 " style="fill:#15d824; stroke-width:1; stroke:black; " description="&lt;b&gt;ctg3_56&lt;/b&gt;&lt;br&gt;ctg3 56&lt;br&gt;Location: 59636 - 60269" locus_tag="ctg3_56" class="clusterblast-orf" id="dummy-1_q9_0_all"  />
<polygon points="250,40 263,40 268,35 263,30 250,30 250,40 " style="fill:#1551d8; stroke-width:1; stroke:black; " description="&lt;b&gt;ctg3_57&lt;/b&gt;&lt;br&gt;ctg3 57&lt;br&gt;Location: 60380 - 61037" locus_tag="ctg3_57" class="clusterblast-orf" id="dummy-1_q10_0_all"  />
<polygon points="269,35 274,30 286,30 286,40 274,40 269,35 " style="fill:#d815c9; stroke-width:1; stroke:black; " description="&lt;b&gt;ctg3_58&lt;/b&gt;&lt;br&gt;ctg3 58&lt;br&gt;Location: 61050 - 61671" locus_tag="ctg3_58" class="clusterblast-orf" id="dummy-1_q11_0_all"  />
<polygon points="290,40 347,40 352,35 347,30 290,30 290,40 " style="fill:#d89c15; stroke-width:1; stroke:black; " description="&lt;b&gt;ctg3_59&lt;/b&gt;&lt;br&gt;ctg3 59&lt;br&gt;Location: 61806 - 64005" locus_tag="ctg3_59" class="clusterblast-orf" id="dummy-1_q12_0_all"  />
<polygon points="372,35 377,30 405,30 405,40 377,40 372,35 " style="fill:#15d851; stroke-width:1; stroke:black; " description="&lt;b&gt;ctg3_60&lt;/b&gt;&lt;br&gt;ctg3 60&lt;br&gt;Location: 64723 - 65890" locus_tag="ctg3_60" class="clusterblast-orf" id="dummy-1_q13_0_all"  />
<polygon points="405,35 410,30 444,30 444,40 410,40 405,35 " style="fill:#1524d8; stroke-width:1; stroke:black; " description="&lt;b&gt;ctg3_61&lt;/b&gt;&lt;br&gt;ctg3 61&lt;br&gt;Location: 65886 - 67263" locus_tag="ctg3_61" class="clusterblast-orf" id="dummy-1_q14_0_all"  />
<polygon points="448,35 453,30 472,30 472,40 453,40 448,35 " style="fill:#d8159c; stroke-width:1; stroke:black; " description="&lt;b&gt;ctg3_62&lt;/b&gt;&lt;br&gt;ctg3 62&lt;br&gt;Location: 67407 - 68259" locus_tag="ctg3_62" class="clusterblast-orf" id="dummy-1_q15_0_all"  />
<polygon points="480,35 485,30 507,30 507,40 485,40 480,35 " style="fill:#d8c915; stroke-width:1; stroke:black; " description="&lt;b&gt;ctg3_63&lt;/b&gt;&lt;br&gt;ctg3 63&lt;br&gt;Location: 68544 - 69522" locus_tag="ctg3_63" class="clusterblast-orf" id="dummy-1_q16_0_all"  />
<polygon points="513,35 518,30 524,30 524,40 518,40 513,35 " style="fill:#15d87e; stroke-width:1; stroke:black; " description="&lt;b&gt;ctg3_64&lt;/b&gt;&lt;br&gt;ctg3 64&lt;br&gt;Location: 69737 - 70130" locus_tag="ctg3_64" class="clusterblast-orf" id="dummy-1_q17_0_all"  />
<polygon points="525,35 530,30 543,30 543,40 530,40 525,35 " style="fill:#3315d8; stroke-width:1; stroke:black; " description="&lt;b&gt;ctg3_65&lt;/b&gt;&lt;br&gt;ctg3 65&lt;br&gt;Location: 70160 - 70781" locus_tag="ctg3_65" class="clusterblast-orf" id="dummy-1_q18_0_all"  />
<polygon points="549,35 554,30 577,30 577,40 554,40 549,35 " style="fill:#d8156f; stroke-width:1; stroke:black; " description="&lt;b&gt;ctg3_66&lt;/b&gt;&lt;br&gt;ctg3 66&lt;br&gt;Location: 71003 - 72023" locus_tag="ctg3_66" class="clusterblast-orf" id="dummy-1_q19_0_all"  />
<polygon points="581,35 586,30 603,30 603,40 586,40 581,35 " style="fill:#bad815; stroke-width:1; stroke:black; " description="&lt;b&gt;ctg3_67&lt;/b&gt;&lt;br&gt;ctg3 67&lt;br&gt;Location: 72162 - 72924" locus_tag="ctg3_67" class="clusterblast-orf" id="dummy-1_q20_0_all"  />
<polygon points="608,35 613,30 627,30 627,40 613,40 608,35 " style="fill:#15d8ab; stroke-width:1; stroke:black; " description="&lt;b&gt;ctg3_68&lt;/b&gt;&lt;br&gt;ctg3 68&lt;br&gt;Location: 73114 - 73774" locus_tag="ctg3_68" class="clusterblast-orf" id="dummy-1_q21_0_all"  />
<polygon points="627,35 632,30 643,30 643,40 632,40 627,35 " style="fill:#6015d8; stroke-width:1; stroke:black; " description="&lt;b&gt;ctg3_69&lt;/b&gt;&lt;br&gt;ctg3 69&lt;br&gt;Location: 73770 - 74370" locus_tag="ctg3_69" class="clusterblast-orf" id="dummy-1_q22_0_all"  />
<polygon points="643,35 648,30 665,30 665,40 648,40 643,35 " style="fill:#bad815; stroke-width:1; stroke:black; " description="&lt;b&gt;ctg3_70&lt;/b&gt;&lt;br&gt;ctg3 70&lt;br&gt;Location: 74366 - 75125" locus_tag="ctg3_70" class="clusterblast-orf" id="dummy-1_q23_0_all"  />
<polygon points="665,35 670,30 693,30 693,40 670,40 665,35 " style="fill:#d81542; stroke-width:1; stroke:black; " description="&lt;b&gt;ctg3_71&lt;/b&gt;&lt;br&gt;ctg3 71&lt;br&gt;Location: 75121 - 76120" locus_tag="ctg3_71" class="clusterblast-orf" id="dummy-1_q24_0_all"  />
<polygon points="693,35 698,30 753,30 753,40 698,40 693,35 " style="fill:#8dd815; stroke-width:1; stroke:black; " description="&lt;b&gt;ctg3_72&lt;/b&gt;&lt;br&gt;ctg3 72&lt;br&gt;Location: 76121 - 78278" locus_tag="ctg3_72" class="clusterblast-orf" id="dummy-1_q25_0_all"  />
<polygon points="757,35 762,30 765,30 765,40 762,40 757,35 " style="fill:#15d8d8; stroke-width:1; stroke:black; " description="&lt;b&gt;ctg3_73&lt;/b&gt;&lt;br&gt;ctg3 73&lt;br&gt;Location: 78409 - 78679" locus_tag="ctg3_73" class="clusterblast-orf" id="dummy-1_q26_0_all"  />
</g>
<g label="NZ_CP023272" description="NZ_CP023272 (3235529-3264084): Pseudomonas lurida strain MYb11 chromosome, co... (50% of genes show similarity), thiopeptide" class="clusterblast-cluster"  >
<text x="5" y="70" class="clusterblast-acc"  >
<a xlink:href="https://antismash-db.secondarymetabolites.org/area.html?record=NZ_CP023272&amp;start=3235529&amp;end=3264084" target="_blank">NZ_CP023272 (3235529-3264084)</a>: Pseudomonas lurida strain MYb11 chromosome, co... (50% of genes show similarity), thiopeptide</text>
<line x1="10" y1="85" x2="778.0" y2="85" style="stroke-width:1; stroke:grey; "  />
</g>
<g id="a1_000"  >
<polygon points="0,85 5,80 15,80 15,90 5,90 0,85 " style="fill:#33d815; stroke-width:1; stroke:black; " description="&lt;b&gt;CLM75_RS14775&lt;/b&gt;&lt;br&gt;cysteine hydrolase&lt;br&gt;Location: 3263771 - 3263211&lt;br&gt;&lt;br&gt;&lt;b&gt;BlastP hit with ctg3_52&lt;/b&gt;&lt;br&gt;Percentage identity: 82&lt;br&gt;Percentage coverage: 97&lt;br&gt;BLAST bit score: 318&lt;br&gt;E-value: 2.01e-110" locus_tag="CLM75_RS14775" class="clusterblast-orf" id="dummy-1_h1_8_0"  />
</g>
<g id="a1_001"  >
<polygon points="20,90 30,90 35,85 30,80 20,80 20,90 " style="fill:white; stroke-width:1; stroke:black; " description="&lt;b&gt;CLM75_RS14770&lt;/b&gt;&lt;br&gt;GNAT family N-acetyltransferase&lt;br&gt;Location: 3263046 - 3262501" locus_tag="CLM75_RS14770" class="clusterblast-orf" id="dummy-1_h1_8_1"  />
</g>
<g id="a1_002"  >
<polygon points="35,90 43,90 48,85 43,80 35,80 35,90 " style="fill:white; stroke-width:1; stroke:black; " description="&lt;b&gt;CLM75_RS14765&lt;/b&gt;&lt;br&gt;hypothetical protein&lt;br&gt;Location: 3262514 - 3262038" locus_tag="CLM75_RS14765" class="clusterblast-orf" id="dummy-1_h1_8_2"  />
</g>
<g id="a1_003"  >
<polygon points="48,90 55,90 60,85 55,80 48,80 48,90 " style="fill:white; stroke-width:1; stroke:black; " description="&lt;b&gt;CLM75_RS14760&lt;/b&gt;&lt;br&gt;hypothetical protein&lt;br&gt;Location: 3262041 - 3261622" locus_tag="CLM75_RS14760" class="clusterblast-orf" id="dummy-1_h1_8_3"  />
</g>
<g id="a1_004"  >
<polygon points="61,90 71,90 76,85 71,80 61,80 61,90 " style="fill:white; stroke-width:1; stroke:black; " description="&lt;b&gt;CLM75_RS14755&lt;/b&gt;&lt;br&gt;GNAT family N-acetyltransferase&lt;br&gt;Location: 3261590 - 3261042" locus_tag="CLM75_RS14755" class="clusterblast-orf" id="dummy-1_h1_8_4"  />
</g>
<g id="a1_005"  >
<polygon points="81,85 86,80 94,80 94,90 86,90 81,85 " style="fill:white; stroke-width:1; stroke:black; " description="&lt;b&gt;CLM75_RS14750&lt;/b&gt;&lt;br&gt;hypothetical protein&lt;br&gt;Location: 3260869 - 3260429" locus_tag="CLM75_RS14750" class="clusterblast-orf" id="dummy-1_h1_8_5"  />
</g>
<g id="a1_006"  >
<polygon points="98,85 103,80 112,80 112,90 103,90 98,85 " style="fill:white; stroke-width:1; stroke:black; " description="&lt;b&gt;CLM75_RS14745&lt;/b&gt;&lt;br&gt;hypothetical protein&lt;br&gt;Location: 3260272 - 3259757" locus_tag="CLM75_RS14745" class="clusterblast-orf" id="dummy-1_h1_8_6"  />
</g>
<g id="a1_007"  >
<polygon points="119,90 126,90 131,85 126,80 119,80 119,90 " style="fill:#8d15d8; stroke-width:1; stroke:black; " description="&lt;b&gt;CLM75_RS14740&lt;/b&gt;&lt;br&gt;VOC family protein&lt;br&gt;Location: 3259540 - 3259109&lt;br&gt;&lt;br&gt;&lt;b&gt;BlastP hit with ctg3_50&lt;/b&gt;&lt;br&gt;Percentage identity: 77&lt;br&gt;Percentage coverage: 91&lt;br&gt;BLAST bit score: 216&lt;br&gt;E-value: 2.08e-71" locus_tag="CLM75_RS14740" class="clusterblast-orf" id="dummy-1_h1_8_7"  />
</g>
<g id="a1_008"  >
<polygon points="138,85 143,80 160,80 160,90 143,90 138,85 " style="fill:#d86f15; stroke-width:1; stroke:black; " description="&lt;b&gt;CLM75_RS14735&lt;/b&gt;&lt;br&gt;suppressor of fused domain protein&lt;br&gt;Location: 3258863 - 3258063&lt;br&gt;&lt;br&gt;&lt;b&gt;BlastP hit with ctg3_55&lt;/b&gt;&lt;br&gt;Percentage identity: 77&lt;br&gt;Percentage coverage: 100&lt;br&gt;BLAST bit score: 416&lt;br&gt;E-value: 1.42e-146" locus_tag="CLM75_RS14735" class="clusterblast-orf" id="dummy-1_h1_8_8"  />
</g>
<g id="a1_009"  >
<polygon points="161,85 166,80 179,80 179,90 166,90 161,85 " style="fill:#15d824; stroke-width:1; stroke:black; " description="&lt;b&gt;CLM75_RS14730&lt;/b&gt;&lt;br&gt;TetR family transcriptional regulator&lt;br&gt;Location: 3258034 - 3257402&lt;br&gt;&lt;br&gt;&lt;b&gt;BlastP hit with ctg3_56&lt;/b&gt;&lt;br&gt;Percentage identity: 87&lt;br&gt;Percentage coverage: 100&lt;br&gt;BLAST bit score: 341&lt;br&gt;E-value: 6.89e-119" locus_tag="CLM75_RS14730" class="clusterblast-orf" id="dummy-1_h1_8_9"  />
</g>
<g id="a1_0010"  >
<polygon points="182,90 195,90 200,85 195,80 182,80 182,90 " style="fill:#1551d8; stroke-width:1; stroke:black; " description="&lt;b&gt;CLM75_RS14725&lt;/b&gt;&lt;br&gt;class I SAM-dependent methyltransferase&lt;br&gt;Location: 3257290 - 3256634&lt;br&gt;&lt;br&gt;&lt;b&gt;BlastP hit with ctg3_57&lt;/b&gt;&lt;br&gt;Percentage identity: 84&lt;br&gt;Percentage coverage: 100&lt;br&gt;BLAST bit score: 365&lt;br&gt;E-value: 3.17e-128" locus_tag="CLM75_RS14725" class="clusterblast-orf" id="dummy-1_h1_8_10"  />
</g>
<g id="a1_0011"  >
<polygon points="202,85 207,80 220,80 220,90 207,90 202,85 " style="fill:#d815c9; stroke-width:1; stroke:black; " description="&lt;b&gt;CLM75_RS14720&lt;/b&gt;&lt;br&gt;LysE family translocator&lt;br&gt;Location: 3256561 - 3255941&lt;br&gt;&lt;br&gt;&lt;b&gt;BlastP hit with ctg3_58&lt;/b&gt;&lt;br&gt;Percentage identity: 90&lt;br&gt;Percentage coverage: 100&lt;br&gt;BLAST bit score: 367&lt;br&gt;E-value: 2.21e-129" locus_tag="CLM75_RS14720" class="clusterblast-orf" id="dummy-1_h1_8_11"  />
</g>
<g id="a1_0012"  >
<polygon points="223,85 228,80 267,80 267,90 228,90 223,85 " style="fill:#15abd8; stroke-width:1; stroke:black; " description="&lt;b&gt;CLM75_RS14715&lt;/b&gt;&lt;br&gt;methyl-accepting chemotaxis protein&lt;br&gt;Location: 3255813 - 3254248&lt;br&gt;&lt;br&gt;&lt;b&gt;BlastP hit with ctg3_49&lt;/b&gt;&lt;br&gt;Percentage identity: 33&lt;br&gt;Percentage coverage: 44&lt;br&gt;BLAST bit score: 137&lt;br&gt;E-value: 4.24e-32" locus_tag="CLM75_RS14715" class="clusterblast-orf" id="dummy-1_h1_8_12"  />
</g>
<g id="a1_0013"  >
<polygon points="272,90 329,90 334,85 329,80 272,80 272,90 " style="fill:#d89c15; stroke-width:1; stroke:black; " description="&lt;b&gt;CLM75_RS14710&lt;/b&gt;&lt;br&gt;OsmC domain/YcaO domain-containing protein&lt;br&gt;Location: 3254084 - 3251886&lt;br&gt;&lt;br&gt;&lt;b&gt;BlastP hit with ctg3_59&lt;/b&gt;&lt;br&gt;Percentage identity: 95&lt;br&gt;Percentage coverage: 100&lt;br&gt;BLAST bit score: 1419&lt;br&gt;E-value: 0.0" locus_tag="CLM75_RS14710" class="clusterblast-orf" id="dummy-1_h1_8_13"  />
</g>
<g id="a1_0014"  >
<polygon points="337,85 342,80 370,80 370,90 342,90 337,85 " style="fill:#15d851; stroke-width:1; stroke:black; " description="&lt;b&gt;CLM75_RS14705&lt;/b&gt;&lt;br&gt;cystathionine gamma-synthase&lt;br&gt;Location: 3251765 - 3250599&lt;br&gt;&lt;br&gt;&lt;b&gt;BlastP hit with ctg3_60&lt;/b&gt;&lt;br&gt;Percentage identity: 94&lt;br&gt;Percentage coverage: 100&lt;br&gt;BLAST bit score: 736&lt;br&gt;E-value: 3.8e-269" locus_tag="CLM75_RS14705" class="clusterblast-orf" id="dummy-1_h1_8_14"  />
</g>
<g id="a1_0015"  >
<polygon points="370,85 375,80 409,80 409,90 375,90 370,85 " style="fill:#1524d8; stroke-width:1; stroke:black; " description="&lt;b&gt;CLM75_RS14700&lt;/b&gt;&lt;br&gt;cystathionine beta-synthase&lt;br&gt;Location: 3250602 - 3249226&lt;br&gt;&lt;br&gt;&lt;b&gt;BlastP hit with ctg3_61&lt;/b&gt;&lt;br&gt;Percentage identity: 96&lt;br&gt;Percentage coverage: 100&lt;br&gt;BLAST bit score: 868&lt;br&gt;E-value: 0.0" locus_tag="CLM75_RS14700" class="clusterblast-orf" id="dummy-1_h1_8_15"  />
</g>
<g id="a1_0016"  >
<polygon points="412,85 417,80 436,80 436,90 417,90 412,85 " style="fill:#d8159c; stroke-width:1; stroke:black; " description="&lt;b&gt;CLM75_RS14695&lt;/b&gt;&lt;br&gt;4-hydroxy-tetrahydrodipicolinate synthase&lt;br&gt;Location: 3249109 - 3248246&lt;br&gt;&lt;br&gt;&lt;b&gt;BlastP hit with ctg3_62&lt;/b&gt;&lt;br&gt;Percentage identity: 84&lt;br&gt;Percentage coverage: 97&lt;br&gt;BLAST bit score: 455&lt;br&gt;E-value: 1.6e-161" locus_tag="CLM75_RS14695" class="clusterblast-orf" id="dummy-1_h1_8_16"  />
</g>
<g id="a1_0017"  >
<polygon points="444,85 449,80 484,80 484,90 449,90 444,85 " style="fill:white; stroke-width:1; stroke:black; " description="&lt;b&gt;CLM75_RS14690&lt;/b&gt;&lt;br&gt;hypothetical protein&lt;br&gt;Location: 3247952 - 3246561" locus_tag="CLM75_RS14690" class="clusterblast-orf" id="dummy-1_h1_8_17"  />
</g>
<g id="a1_0018"  >
<polygon points="487,85 492,80 501,80 501,90 492,90 487,85 " style="fill:white; stroke-width:1; stroke:black; " description="&lt;b&gt;CLM75_RS14685&lt;/b&gt;&lt;br&gt;VOC family protein&lt;br&gt;Location: 3246436 - 3245957" locus_tag="CLM75_RS14685" class="clusterblast-orf" id="dummy-1_h1_8_18"  />
</g>
<g id="a1_0019"  >
<polygon points="502,85 507,80 513,80 513,90 507,90 502,85 " style="fill:#15d87e; stroke-width:1; stroke:black; " description="&lt;b&gt;CLM75_RS14680&lt;/b&gt;&lt;br&gt;ester cyclase&lt;br&gt;Location: 3245922 - 3245530&lt;br&gt;&lt;br&gt;&lt;b&gt;BlastP hit with ctg3_64&lt;/b&gt;&lt;br&gt;Percentage identity: 81&lt;br&gt;Percentage coverage: 98&lt;br&gt;BLAST bit score: 220&lt;br&gt;E-value: 8.99e-74" locus_tag="CLM75_RS14680" class="clusterblast-orf" id="dummy-1_h1_8_19"  />
</g>
<g id="a1_0020"  >
<polygon points="514,85 519,80 531,80 531,90 519,90 514,85 " style="fill:#3315d8; stroke-width:1; stroke:black; " description="&lt;b&gt;CLM75_RS14675&lt;/b&gt;&lt;br&gt;LysE family translocator&lt;br&gt;Location: 3245491 - 3244871&lt;br&gt;&lt;br&gt;&lt;b&gt;BlastP hit with ctg3_65&lt;/b&gt;&lt;br&gt;Percentage identity: 89&lt;br&gt;Percentage coverage: 100&lt;br&gt;BLAST bit score: 356&lt;br&gt;E-value: 4.1e-125" locus_tag="CLM75_RS14675" class="clusterblast-orf" id="dummy-1_h1_8_20"  />
</g>
<g id="a1_0021"  >
<polygon points="534,85 539,80 549,80 549,90 539,90 534,85 " style="fill:white; stroke-width:1; stroke:black; " description="&lt;b&gt;CLM75_RS14670&lt;/b&gt;&lt;br&gt;adenylate kinase&lt;br&gt;Location: 3244775 - 3244239" locus_tag="CLM75_RS14670" class="clusterblast-orf" id="dummy-1_h1_8_21"  />
</g>
<g id="a1_0022"  >
<polygon points="551,85 556,80 561,80 561,90 556,90 551,85 " style="fill:white; stroke-width:1; stroke:black; " description="&lt;b&gt;CLM75_RS14665&lt;/b&gt;&lt;br&gt;VOC family protein&lt;br&gt;Location: 3244172 - 3243801" locus_tag="CLM75_RS14665" class="clusterblast-orf" id="dummy-1_h1_8_22"  />
</g>
<g id="a1_0023"  >
<polygon points="565,90 582,90 587,85 582,80 565,80 565,90 " style="fill:white; stroke-width:1; stroke:black; " description="&lt;b&gt;CLM75_RS14660&lt;/b&gt;&lt;br&gt;NAD(P)-binding domain-containing protein&lt;br&gt;Location: 3243670 - 3242903" locus_tag="CLM75_RS14660" class="clusterblast-orf" id="dummy-1_h1_8_23"  />
</g>
<g id="a1_0024"  >
<polygon points="586,85 591,80 599,80 599,90 591,90 586,85 " style="fill:white; stroke-width:1; stroke:black; " description="&lt;b&gt;CLM75_RS14655&lt;/b&gt;&lt;br&gt;thiol-disulfide oxidoreductase DCC family protein&lt;br&gt;Location: 3242908 - 3242456" locus_tag="CLM75_RS14655" class="clusterblast-orf" id="dummy-1_h1_8_24"  />
</g>
<g id="a1_0025"  >
<polygon points="624,85 629,80 662,80 662,90 629,90 624,85 " style="fill:white; stroke-width:1; stroke:black; " description="&lt;b&gt;CLM75_RS14650&lt;/b&gt;&lt;br&gt;MFS transporter&lt;br&gt;Location: 3241567 - 3240230" locus_tag="CLM75_RS14650" class="clusterblast-orf" id="dummy-1_h1_8_25"  />
</g>
<g id="a1_0026"  >
<polygon points="672,85 677,80 714,80 714,90 677,90 672,85 " style="fill:#15abd8; stroke-width:1; stroke:black; " description="&lt;b&gt;CLM75_RS14645&lt;/b&gt;&lt;br&gt;methyl-accepting chemotaxis protein&lt;br&gt;Location: 3239856 - 3238363&lt;br&gt;&lt;br&gt;&lt;b&gt;BlastP hit with ctg3_49&lt;/b&gt;&lt;br&gt;Percentage identity: 31&lt;br&gt;Percentage coverage: 44&lt;br&gt;BLAST bit score: 113&lt;br&gt;E-value: 2.69e-24" locus_tag="CLM75_RS14645" class="clusterblast-orf" id="dummy-1_h1_8_26"  />
</g>
<g id="a1_0027"  >
<polygon points="719,85 724,80 780,80 780,90 724,90 719,85 " style="fill:white; stroke-width:1; stroke:black; " description="&lt;b&gt;CLM75_RS14640&lt;/b&gt;&lt;br&gt;TonB-dependent siderophore receptor&lt;br&gt;Location: 3238196 - 3236043" locus_tag="CLM75_RS14640" class="clusterblast-orf" id="dummy-1_h1_8_27"  />
</g>
</svg>
