<svg xmlns="http://www.w3.org/2000/svg" xmlns:xlink="http://www.w3.org/1999/xlink" version="1.1" x="0" y="0" height="230" width="800" viewBox="0 0 800 230" preserveAspectRatio="none"  >
<g label="Query sequence" class="clusterblast-cluster"  >
<text x="5" y="20" class="clusterblast-acc"  >
Query sequence</text>
<line x1="10" y1="35" x2="778.0" y2="35" style="stroke-width:1; stroke:grey; "  />
<polygon points="155,35 160,30 182,30 182,40 160,40 155,35 " style="fill:#d81515; stroke-width:1; stroke:black; " description="&lt;b&gt;ctg28_10&lt;/b&gt;&lt;br&gt;ctg28 10&lt;br&gt;Location: 13196 - 16907" locus_tag="ctg28_10" class="clusterblast-orf" id="dummy-1_q0_0_all"  />
<polygon points="184,40 196,40 201,35 196,30 184,30 184,40 " style="fill:#77d815; stroke-width:1; stroke:black; " description="&lt;b&gt;ctg28_11&lt;/b&gt;&lt;br&gt;ctg28 11&lt;br&gt;Location: 17071 - 19366" locus_tag="ctg28_11" class="clusterblast-orf" id="dummy-1_q1_0_all"  />
<polygon points="209,40 213,35 209,30 209,40 " style="fill:#15d8d8; stroke-width:1; stroke:black; " description="&lt;b&gt;ctg28_12&lt;/b&gt;&lt;br&gt;ctg28 12&lt;br&gt;Location: 20433 - 21018" locus_tag="ctg28_12" class="clusterblast-orf" id="dummy-1_q2_0_all"  />
<polygon points="215,35 220,30 221,30 221,40 220,40 215,35 " style="fill:#7715d8; stroke-width:1; stroke:black; " description="&lt;b&gt;ctg28_13&lt;/b&gt;&lt;br&gt;ctg28 13&lt;br&gt;Location: 21222 - 21969" locus_tag="ctg28_13" class="clusterblast-orf" id="dummy-1_q3_0_all"  />
<polygon points="221,35 224,30 224,40 221,35 " style="fill:#d83f15; stroke-width:1; stroke:black; " description="&lt;b&gt;ctg28_14&lt;/b&gt;&lt;br&gt;ctg28 14&lt;br&gt;Location: 22039 - 22432" locus_tag="ctg28_14" class="clusterblast-orf" id="dummy-1_q4_0_all"  />
<polygon points="224,35 229,30 229,30 229,40 229,40 224,35 " style="fill:#4dd815; stroke-width:1; stroke:black; " description="&lt;b&gt;ctg28_15&lt;/b&gt;&lt;br&gt;ctg28 15&lt;br&gt;Location: 22428 - 23133" locus_tag="ctg28_15" class="clusterblast-orf" id="dummy-1_q5_0_all"  />
<polygon points="229,35 231,30 231,40 229,35 " style="fill:#15aed8; stroke-width:1; stroke:black; " description="&lt;b&gt;ctg28_16&lt;/b&gt;&lt;br&gt;ctg28 16&lt;br&gt;Location: 23144 - 23333" locus_tag="ctg28_16" class="clusterblast-orf" id="dummy-1_q6_0_all"  />
<polygon points="241,40 244,40 249,35 244,30 241,30 241,40 " style="fill:#a115d8; stroke-width:1; stroke:black; " description="&lt;b&gt;ctg28_17&lt;/b&gt;&lt;br&gt;ctg28 17&lt;br&gt;Location: 24704 - 25766" locus_tag="ctg28_17" class="clusterblast-orf" id="dummy-1_q7_0_all"  />
<polygon points="249,40 272,40 277,35 272,30 249,30 249,40 " style="fill:#d86915; stroke-width:1; stroke:black; " description="&lt;b&gt;ctg28_18&lt;/b&gt;&lt;br&gt;ctg28 18&lt;br&gt;Location: 25769 - 29531" locus_tag="ctg28_18" class="clusterblast-orf" id="dummy-1_q8_0_all"  />
<polygon points="277,40 280,40 285,35 280,30 277,30 277,40 " style="fill:#d86915; stroke-width:1; stroke:black; " description="&lt;b&gt;ctg28_19&lt;/b&gt;&lt;br&gt;ctg28 19&lt;br&gt;Location: 29530 - 30529" locus_tag="ctg28_19" class="clusterblast-orf" id="dummy-1_q9_0_all"  />
<polygon points="286,40 290,35 286,30 286,40 " style="fill:#23d815; stroke-width:1; stroke:black; " description="&lt;b&gt;ctg28_20&lt;/b&gt;&lt;br&gt;ctg28 20&lt;br&gt;Location: 30648 - 31194" locus_tag="ctg28_20" class="clusterblast-orf" id="dummy-1_q10_0_all"  />
<polygon points="292,40 384,40 389,35 384,30 292,30 292,40 " style="fill:#1585d8; stroke-width:1; stroke:black; " description="&lt;b&gt;ctg28_21&lt;/b&gt;&lt;br&gt;ctg28 21&lt;br&gt;Location: 31403 - 44315" locus_tag="ctg28_21" class="clusterblast-orf" id="dummy-1_q11_0_all"  />
<polygon points="389,40 469,40 474,35 469,30 389,30 389,40 " style="fill:#1585d8; stroke-width:1; stroke:black; " description="&lt;b&gt;ctg28_22&lt;/b&gt;&lt;br&gt;ctg28 22&lt;br&gt;Location: 44311 - 55648" locus_tag="ctg28_22" class="clusterblast-orf" id="dummy-1_q12_0_all"  />
<polygon points="474,40 478,40 483,35 478,30 474,30 474,40 " style="fill:#ca15d8; stroke-width:1; stroke:black; " description="&lt;b&gt;ctg28_23&lt;/b&gt;&lt;br&gt;ctg28 23&lt;br&gt;Location: 55644 - 56787" locus_tag="ctg28_23" class="clusterblast-orf" id="dummy-1_q13_0_all"  />
<polygon points="483,40 492,40 497,35 492,30 483,30 483,40 " style="fill:#d89315; stroke-width:1; stroke:black; " description="&lt;b&gt;ctg28_24&lt;/b&gt;&lt;br&gt;ctg28 24&lt;br&gt;Location: 56790 - 58749" locus_tag="ctg28_24" class="clusterblast-orf" id="dummy-1_q14_0_all"  />
<polygon points="498,35 503,30 503,30 503,40 503,40 498,35 " style="fill:#15d831; stroke-width:1; stroke:black; " description="&lt;b&gt;ctg28_25&lt;/b&gt;&lt;br&gt;ctg28 25&lt;br&gt;Location: 58876 - 59554" locus_tag="ctg28_25" class="clusterblast-orf" id="dummy-1_q15_0_all"  />
<polygon points="505,35 510,30 515,30 515,40 510,40 505,35 " style="fill:#155bd8; stroke-width:1; stroke:black; " description="&lt;b&gt;ctg28_26&lt;/b&gt;&lt;br&gt;ctg28 26&lt;br&gt;Location: 59786 - 61031" locus_tag="ctg28_26" class="clusterblast-orf" id="dummy-1_q16_0_all"  />
<polygon points="516,40 519,35 516,30 516,40 " style="fill:#d815bc; stroke-width:1; stroke:black; " description="&lt;b&gt;ctg28_27&lt;/b&gt;&lt;br&gt;ctg28 27&lt;br&gt;Location: 61154 - 61625" locus_tag="ctg28_27" class="clusterblast-orf" id="dummy-1_q17_0_all"  />
<polygon points="520,35 525,30 525,30 525,40 525,40 520,35 " style="fill:#d8bc15; stroke-width:1; stroke:black; " description="&lt;b&gt;ctg28_28&lt;/b&gt;&lt;br&gt;ctg28 28&lt;br&gt;Location: 61703 - 62474" locus_tag="ctg28_28" class="clusterblast-orf" id="dummy-1_q18_0_all"  />
<polygon points="526,40 530,40 535,35 530,30 526,30 526,40 " style="fill:#15d85b; stroke-width:1; stroke:black; " description="&lt;b&gt;ctg28_29&lt;/b&gt;&lt;br&gt;ctg28 29&lt;br&gt;Location: 62572 - 63703" locus_tag="ctg28_29" class="clusterblast-orf" id="dummy-1_q19_0_all"  />
<polygon points="535,35 540,30 551,30 551,40 540,40 535,35 " style="fill:#1531d8; stroke-width:1; stroke:black; " description="&lt;b&gt;ctg28_30&lt;/b&gt;&lt;br&gt;ctg28 30&lt;br&gt;Location: 63692 - 65834" locus_tag="ctg28_30" class="clusterblast-orf" id="dummy-1_q20_0_all"  />
<polygon points="552,35 557,30 558,30 558,40 557,40 552,35 " style="fill:#d81593; stroke-width:1; stroke:black; " description="&lt;b&gt;ctg28_31&lt;/b&gt;&lt;br&gt;ctg28 31&lt;br&gt;Location: 65939 - 66737" locus_tag="ctg28_31" class="clusterblast-orf" id="dummy-1_q21_0_all"  />
<polygon points="559,40 565,40 570,35 565,30 559,30 559,40 " style="fill:#cad815; stroke-width:1; stroke:black; " description="&lt;b&gt;ctg28_32&lt;/b&gt;&lt;br&gt;ctg28 32&lt;br&gt;Location: 66974 - 68333" locus_tag="ctg28_32" class="clusterblast-orf" id="dummy-1_q22_0_all"  />
<polygon points="570,40 573,40 578,35 573,30 570,30 570,40 " style="fill:#15d885; stroke-width:1; stroke:black; " description="&lt;b&gt;ctg28_33&lt;/b&gt;&lt;br&gt;ctg28 33&lt;br&gt;Location: 68355 - 69444" locus_tag="ctg28_33" class="clusterblast-orf" id="dummy-1_q23_0_all"  />
<polygon points="578,40 583,40 588,35 583,30 578,30 578,40 " style="fill:#2315d8; stroke-width:1; stroke:black; " description="&lt;b&gt;ctg28_34&lt;/b&gt;&lt;br&gt;ctg28 34&lt;br&gt;Location: 69440 - 70736" locus_tag="ctg28_34" class="clusterblast-orf" id="dummy-1_q24_0_all"  />
<polygon points="589,35 594,30 595,30 595,40 594,40 589,35 " style="fill:#d81569; stroke-width:1; stroke:black; " description="&lt;b&gt;ctg28_35&lt;/b&gt;&lt;br&gt;ctg28 35&lt;br&gt;Location: 70854 - 71748" locus_tag="ctg28_35" class="clusterblast-orf" id="dummy-1_q25_0_all"  />
<polygon points="596,40 599,40 604,35 599,30 596,30 596,40 " style="fill:#a1d815; stroke-width:1; stroke:black; " description="&lt;b&gt;ctg28_36&lt;/b&gt;&lt;br&gt;ctg28 36&lt;br&gt;Location: 71861 - 72866" locus_tag="ctg28_36" class="clusterblast-orf" id="dummy-1_q26_0_all"  />
<polygon points="604,40 605,40 610,35 605,30 604,30 604,40 " style="fill:#15d8ae; stroke-width:1; stroke:black; " description="&lt;b&gt;ctg28_37&lt;/b&gt;&lt;br&gt;ctg28 37&lt;br&gt;Location: 72881 - 73679" locus_tag="ctg28_37" class="clusterblast-orf" id="dummy-1_q27_0_all"  />
<polygon points="610,40 613,35 610,30 610,40 " style="fill:#4d15d8; stroke-width:1; stroke:black; " description="&lt;b&gt;ctg28_38&lt;/b&gt;&lt;br&gt;ctg28 38&lt;br&gt;Location: 73706 - 74123" locus_tag="ctg28_38" class="clusterblast-orf" id="dummy-1_q28_0_all"  />
<polygon points="614,35 619,30 625,30 625,40 619,40 614,35 " style="fill:#d8153f; stroke-width:1; stroke:black; " description="&lt;b&gt;ctg28_39&lt;/b&gt;&lt;br&gt;ctg28 39&lt;br&gt;Location: 74255 - 75647" locus_tag="ctg28_39" class="clusterblast-orf" id="dummy-1_q29_0_all"  />
</g>
<g label="NZ_CP019428" description="NZ_CP019428 (2841935-2945551): Pseudomonas sp. R76 chromosome, complete genome (40% of genes show similarity), NRPS" class="clusterblast-cluster"  >
<text x="5" y="70" class="clusterblast-acc"  >
<a xlink:href="https://antismash-db.secondarymetabolites.org/area.html?record=NZ_CP019428&amp;start=2841935&amp;end=2945551" target="_blank">NZ_CP019428 (2841935-2945551)</a>: Pseudomonas sp. R76 chromosome, complete genome (40% of genes show similarity), NRPS</text>
<line x1="10" y1="85" x2="778.0" y2="85" style="stroke-width:1; stroke:grey; "  />
</g>
<g id="a1_000"  >
<polygon points="0,85 5,80 27,80 27,90 5,90 0,85 " style="fill:#d81515; stroke-width:1; stroke:black; " description="&lt;b&gt;PspR76_RS13140&lt;/b&gt;&lt;br&gt;methionine synthase&lt;br&gt;Location: 2841936 - 2845646&lt;br&gt;&lt;br&gt;&lt;b&gt;BlastP hit with ctg28_10&lt;/b&gt;&lt;br&gt;Percentage identity: 98&lt;br&gt;Percentage coverage: 100&lt;br&gt;BLAST bit score: 2431&lt;br&gt;E-value: 0.0" locus_tag="PspR76_RS13140" class="clusterblast-orf" id="dummy-1_h1_8_0"  />
</g>
<g id="a1_001"  >
<polygon points="29,90 41,90 46,85 41,80 29,80 29,90 " style="fill:#77d815; stroke-width:1; stroke:black; " description="&lt;b&gt;PspR76_RS13145&lt;/b&gt;&lt;br&gt;fatty acid cis/trans isomerase&lt;br&gt;Location: 2845813 - 2848119&lt;br&gt;&lt;br&gt;&lt;b&gt;BlastP hit with ctg28_11&lt;/b&gt;&lt;br&gt;Percentage identity: 89&lt;br&gt;Percentage coverage: 101&lt;br&gt;BLAST bit score: 1427&lt;br&gt;E-value: 0.0" locus_tag="PspR76_RS13145" class="clusterblast-orf" id="dummy-1_h1_8_1"  />
</g>
<g id="a1_002"  >
<polygon points="47,90 49,90 54,85 49,80 47,80 47,90 " style="fill:white; stroke-width:1; stroke:black; " description="&lt;b&gt;PspR76_RS13150&lt;/b&gt;&lt;br&gt;acyltransferase family protein&lt;br&gt;Location: 2848184 - 2849206" locus_tag="PspR76_RS13150" class="clusterblast-orf" id="dummy-1_h1_8_2"  />
</g>
<g id="a1_003"  >
<polygon points="55,90 59,85 55,80 55,90 " style="fill:#15d8d8; stroke-width:1; stroke:black; " description="&lt;b&gt;PspR76_RS13155&lt;/b&gt;&lt;br&gt;Fe-S biogenesis protein NfuA&lt;br&gt;Location: 2849266 - 2849850&lt;br&gt;&lt;br&gt;&lt;b&gt;BlastP hit with ctg28_12&lt;/b&gt;&lt;br&gt;Percentage identity: 100&lt;br&gt;Percentage coverage: 100&lt;br&gt;BLAST bit score: 394&lt;br&gt;E-value: 2.68e-140" locus_tag="PspR76_RS13155" class="clusterblast-orf" id="dummy-1_h1_8_3"  />
</g>
<g id="a1_004"  >
<polygon points="61,85 66,80 66,80 66,90 66,90 61,85 " style="fill:#7715d8; stroke-width:1; stroke:black; " description="&lt;b&gt;PspR76_RS13160&lt;/b&gt;&lt;br&gt;precorrin-4 C(11)-methyltransferase&lt;br&gt;Location: 2850060 - 2850806&lt;br&gt;&lt;br&gt;&lt;b&gt;BlastP hit with ctg28_13&lt;/b&gt;&lt;br&gt;Percentage identity: 97&lt;br&gt;Percentage coverage: 100&lt;br&gt;BLAST bit score: 481&lt;br&gt;E-value: 2.92e-173" locus_tag="PspR76_RS13160" class="clusterblast-orf" id="dummy-1_h1_8_4"  />
</g>
<g id="a1_005"  >
<polygon points="67,85 70,80 70,90 67,85 " style="fill:#d83f15; stroke-width:1; stroke:black; " description="&lt;b&gt;PspR76_RS13165&lt;/b&gt;&lt;br&gt;cobalamin biosynthesis protein&lt;br&gt;Location: 2850877 - 2851269&lt;br&gt;&lt;br&gt;&lt;b&gt;BlastP hit with ctg28_14&lt;/b&gt;&lt;br&gt;Percentage identity: 86&lt;br&gt;Percentage coverage: 98&lt;br&gt;BLAST bit score: 218&lt;br&gt;E-value: 1.05e-72" locus_tag="PspR76_RS13165" class="clusterblast-orf" id="dummy-1_h1_8_5"  />
</g>
<g id="a1_006"  >
<polygon points="70,85 75,80 75,80 75,90 75,90 70,85 " style="fill:#4dd815; stroke-width:1; stroke:black; " description="&lt;b&gt;PspR76_RS13170&lt;/b&gt;&lt;br&gt;CbtA family protein&lt;br&gt;Location: 2851266 - 2851973&lt;br&gt;&lt;br&gt;&lt;b&gt;BlastP hit with ctg28_15&lt;/b&gt;&lt;br&gt;Percentage identity: 92&lt;br&gt;Percentage coverage: 100&lt;br&gt;BLAST bit score: 423&lt;br&gt;E-value: 1.08e-150" locus_tag="PspR76_RS13170" class="clusterblast-orf" id="dummy-1_h1_8_6"  />
</g>
<g id="a1_007"  >
<polygon points="75,85 77,80 77,90 75,85 " style="fill:#15aed8; stroke-width:1; stroke:black; " description="&lt;b&gt;PspR76_RS13175&lt;/b&gt;&lt;br&gt;CbtB-domain containing protein&lt;br&gt;Location: 2851985 - 2852173&lt;br&gt;&lt;br&gt;&lt;b&gt;BlastP hit with ctg28_16&lt;/b&gt;&lt;br&gt;Percentage identity: 95&lt;br&gt;Percentage coverage: 100&lt;br&gt;BLAST bit score: 114&lt;br&gt;E-value: 1.24e-33" locus_tag="PspR76_RS13175" class="clusterblast-orf" id="dummy-1_h1_8_7"  />
</g>
<g id="a1_008"  >
<polygon points="79,85 84,80 85,80 85,90 84,90 79,85 " style="fill:white; stroke-width:1; stroke:black; " description="&lt;b&gt;PspR76_RS31040&lt;/b&gt;&lt;br&gt;hypothetical protein&lt;br&gt;Location: 2852560 - 2853237" locus_tag="PspR76_RS31040" class="clusterblast-orf" id="dummy-1_h1_8_8"  />
</g>
<g id="a1_009"  >
<polygon points="88,90 91,90 96,85 91,80 88,80 88,90 " style="fill:#a115d8; stroke-width:1; stroke:black; " description="&lt;b&gt;PspR76_RS13185&lt;/b&gt;&lt;br&gt;cobalamin biosynthesis protein CobW&lt;br&gt;Location: 2853692 - 2854756&lt;br&gt;&lt;br&gt;&lt;b&gt;BlastP hit with ctg28_17&lt;/b&gt;&lt;br&gt;Percentage identity: 98&lt;br&gt;Percentage coverage: 100&lt;br&gt;BLAST bit score: 642&lt;br&gt;E-value: 3.98e-233" locus_tag="PspR76_RS13185" class="clusterblast-orf" id="dummy-1_h1_8_9"  />
</g>
<g id="a1_0010"  >
<polygon points="96,90 119,90 124,85 119,80 96,80 96,90 " style="fill:#d86915; stroke-width:1; stroke:black; " description="&lt;b&gt;PspR76_RS13190&lt;/b&gt;&lt;br&gt;cobaltochelatase subunit CobN&lt;br&gt;Location: 2854760 - 2858521&lt;br&gt;&lt;br&gt;&lt;b&gt;BlastP hit with ctg28_18&lt;/b&gt;&lt;br&gt;Percentage identity: 97&lt;br&gt;Percentage coverage: 100&lt;br&gt;BLAST bit score: 2449&lt;br&gt;E-value: 0.0" locus_tag="PspR76_RS13190" class="clusterblast-orf" id="dummy-1_h1_8_10"  />
</g>
<g id="a1_0011"  >
<polygon points="125,90 128,90 133,85 128,80 125,80 125,90 " style="fill:#d86915; stroke-width:1; stroke:black; " description="&lt;b&gt;PspR76_RS13195&lt;/b&gt;&lt;br&gt;AAA family ATPase&lt;br&gt;Location: 2858647 - 2859645&lt;br&gt;&lt;br&gt;&lt;b&gt;BlastP hit with ctg28_19&lt;/b&gt;&lt;br&gt;Percentage identity: 95&lt;br&gt;Percentage coverage: 100&lt;br&gt;BLAST bit score: 623&lt;br&gt;E-value: 1.56e-226" locus_tag="PspR76_RS13195" class="clusterblast-orf" id="dummy-1_h1_8_11"  />
</g>
<g id="a1_0012"  >
<polygon points="132,90 133,90 138,85 133,80 132,80 132,90 " style="fill:#23d815; stroke-width:1; stroke:black; " description="&lt;b&gt;PspR76_RS13200&lt;/b&gt;&lt;br&gt;VWA domain-containing protein&lt;br&gt;Location: 2859570 - 2860307&lt;br&gt;&lt;br&gt;&lt;b&gt;BlastP hit with ctg28_20&lt;/b&gt;&lt;br&gt;Percentage identity: 88&lt;br&gt;Percentage coverage: 99&lt;br&gt;BLAST bit score: 311&lt;br&gt;E-value: 2.73e-107" locus_tag="PspR76_RS13200" class="clusterblast-orf" id="dummy-1_h1_8_12"  />
</g>
<g id="a1_0013"  >
<polygon points="139,90 232,90 237,85 232,80 139,80 139,90 " style="fill:#1585d8; stroke-width:1; stroke:black; " description="&lt;b&gt;PspR76_RS13205&lt;/b&gt;&lt;br&gt;amino acid adenylation domain-containing protein&lt;br&gt;Location: 2860516 - 2873424&lt;br&gt;&lt;br&gt;&lt;b&gt;BlastP hit with ctg28_21&lt;/b&gt;&lt;br&gt;Percentage identity: 90&lt;br&gt;Percentage coverage: 100&lt;br&gt;BLAST bit score: 7616&lt;br&gt;E-value: 0.0&lt;br&gt;&lt;br&gt;&lt;b&gt;BlastP hit with ctg28_22&lt;/b&gt;&lt;br&gt;Percentage identity: 46&lt;br&gt;Percentage coverage: 86&lt;br&gt;BLAST bit score: 2526&lt;br&gt;E-value: 0.0" locus_tag="PspR76_RS13205" class="clusterblast-orf" id="dummy-1_h1_8_13"  />
</g>
<g id="a1_0014"  >
<polygon points="237,90 317,90 322,85 317,80 237,80 237,90 " style="fill:#1585d8; stroke-width:1; stroke:black; " description="&lt;b&gt;PspR76_RS13210&lt;/b&gt;&lt;br&gt;amino acid adenylation domain-containing protein&lt;br&gt;Location: 2873421 - 2884760&lt;br&gt;&lt;br&gt;&lt;b&gt;BlastP hit with ctg28_21&lt;/b&gt;&lt;br&gt;Percentage identity: 61&lt;br&gt;Percentage coverage: 50&lt;br&gt;BLAST bit score: 2412&lt;br&gt;E-value: 0.0&lt;br&gt;&lt;br&gt;&lt;b&gt;BlastP hit with ctg28_22&lt;/b&gt;&lt;br&gt;Percentage identity: 89&lt;br&gt;Percentage coverage: 100&lt;br&gt;BLAST bit score: 6660&lt;br&gt;E-value: 0.0" locus_tag="PspR76_RS13210" class="clusterblast-orf" id="dummy-1_h1_8_14"  />
</g>
<g id="a1_0015"  >
<polygon points="326,90 329,90 334,85 329,80 326,80 326,90 " style="fill:#ca15d8; stroke-width:1; stroke:black; " description="&lt;b&gt;PspR76_RS13215&lt;/b&gt;&lt;br&gt;macrolide transporter subunit MacA&lt;br&gt;Location: 2885282 - 2886433&lt;br&gt;&lt;br&gt;&lt;b&gt;BlastP hit with ctg28_23&lt;/b&gt;&lt;br&gt;Percentage identity: 96&lt;br&gt;Percentage coverage: 100&lt;br&gt;BLAST bit score: 672&lt;br&gt;E-value: 2.23e-244" locus_tag="PspR76_RS13215" class="clusterblast-orf" id="dummy-1_h1_8_15"  />
</g>
<g id="a1_0016"  >
<polygon points="334,90 344,90 349,85 344,80 334,80 334,90 " style="fill:#d89315; stroke-width:1; stroke:black; " description="&lt;b&gt;PspR76_RS13220&lt;/b&gt;&lt;br&gt;MacB family efflux pump subunit&lt;br&gt;Location: 2886437 - 2888395&lt;br&gt;&lt;br&gt;&lt;b&gt;BlastP hit with ctg28_24&lt;/b&gt;&lt;br&gt;Percentage identity: 99&lt;br&gt;Percentage coverage: 100&lt;br&gt;BLAST bit score: 1222&lt;br&gt;E-value: 0.0" locus_tag="PspR76_RS13220" class="clusterblast-orf" id="dummy-1_h1_8_16"  />
</g>
<g id="a1_0017"  >
<polygon points="350,85 355,80 355,80 355,90 355,90 350,85 " style="fill:#15d831; stroke-width:1; stroke:black; " description="&lt;b&gt;PspR76_RS13225&lt;/b&gt;&lt;br&gt;helix-turn-helix transcriptional regulator&lt;br&gt;Location: 2888527 - 2889198&lt;br&gt;&lt;br&gt;&lt;b&gt;BlastP hit with ctg28_25&lt;/b&gt;&lt;br&gt;Percentage identity: 89&lt;br&gt;Percentage coverage: 97&lt;br&gt;BLAST bit score: 380&lt;br&gt;E-value: 8.12e-134" locus_tag="PspR76_RS13225" class="clusterblast-orf" id="dummy-1_h1_8_17"  />
</g>
<g id="a1_0018"  >
<polygon points="357,85 362,80 366,80 366,90 362,90 357,85 " style="fill:#155bd8; stroke-width:1; stroke:black; " description="&lt;b&gt;PspR76_RS13230&lt;/b&gt;&lt;br&gt;methionine gamma-lyase&lt;br&gt;Location: 2889431 - 2890675&lt;br&gt;&lt;br&gt;&lt;b&gt;BlastP hit with ctg28_26&lt;/b&gt;&lt;br&gt;Percentage identity: 95&lt;br&gt;Percentage coverage: 100&lt;br&gt;BLAST bit score: 783&lt;br&gt;E-value: 3.64e-287" locus_tag="PspR76_RS13230" class="clusterblast-orf" id="dummy-1_h1_8_18"  />
</g>
<g id="a1_0019"  >
<polygon points="367,90 371,85 367,80 367,90 " style="fill:#d815bc; stroke-width:1; stroke:black; " description="&lt;b&gt;PspR76_RS13235&lt;/b&gt;&lt;br&gt;Lrp/AsnC ligand binding domain-containing protein&lt;br&gt;Location: 2890799 - 2891269&lt;br&gt;&lt;br&gt;&lt;b&gt;BlastP hit with ctg28_27&lt;/b&gt;&lt;br&gt;Percentage identity: 96&lt;br&gt;Percentage coverage: 100&lt;br&gt;BLAST bit score: 300&lt;br&gt;E-value: 2.42e-104" locus_tag="PspR76_RS13235" class="clusterblast-orf" id="dummy-1_h1_8_19"  />
</g>
<g id="a1_0020"  >
<polygon points="372,90 376,90 381,85 376,80 372,80 372,90 " style="fill:white; stroke-width:1; stroke:black; " description="&lt;b&gt;PspR76_RS13240&lt;/b&gt;&lt;br&gt;acetamidase/formamidase family protein&lt;br&gt;Location: 2891392 - 2892621" locus_tag="PspR76_RS13240" class="clusterblast-orf" id="dummy-1_h1_8_20"  />
</g>
<g id="a1_0021"  >
<polygon points="381,90 384,85 381,80 381,90 " style="fill:white; stroke-width:1; stroke:black; " description="&lt;b&gt;PspR76_RS13245&lt;/b&gt;&lt;br&gt;zinc ribbon domain-containing protein&lt;br&gt;Location: 2892624 - 2892971" locus_tag="PspR76_RS13245" class="clusterblast-orf" id="dummy-1_h1_8_21"  />
</g>
<g id="a1_0022"  >
<polygon points="384,90 387,90 392,85 387,80 384,80 384,90 " style="fill:white; stroke-width:1; stroke:black; " description="&lt;b&gt;PspR76_RS13250&lt;/b&gt;&lt;br&gt;aliphatic amidase&lt;br&gt;Location: 2892987 - 2894030" locus_tag="PspR76_RS13250" class="clusterblast-orf" id="dummy-1_h1_8_22"  />
</g>
<g id="a1_0023"  >
<polygon points="392,90 394,90 399,85 394,80 392,80 392,90 " style="fill:white; stroke-width:1; stroke:black; " description="&lt;b&gt;PspR76_RS13255&lt;/b&gt;&lt;br&gt;AAA family ATPase&lt;br&gt;Location: 2894034 - 2894990" locus_tag="PspR76_RS13255" class="clusterblast-orf" id="dummy-1_h1_8_23"  />
</g>
<g id="a1_0024"  >
<polygon points="399,90 399,90 404,85 399,80 399,80 399,90 " style="fill:white; stroke-width:1; stroke:black; " description="&lt;b&gt;PspR76_RS13260&lt;/b&gt;&lt;br&gt;DUF2239 family protein&lt;br&gt;Location: 2895058 - 2895630" locus_tag="PspR76_RS13260" class="clusterblast-orf" id="dummy-1_h1_8_24"  />
</g>
<g id="a1_0025"  >
<polygon points="404,90 409,90 414,85 409,80 404,80 404,90 " style="fill:white; stroke-width:1; stroke:black; " description="&lt;b&gt;PspR76_RS13265&lt;/b&gt;&lt;br&gt;MATE family efflux transporter&lt;br&gt;Location: 2895656 - 2897011" locus_tag="PspR76_RS13265" class="clusterblast-orf" id="dummy-1_h1_8_25"  />
</g>
<g id="a1_0026"  >
<polygon points="414,85 418,80 418,90 414,85 " style="fill:white; stroke-width:1; stroke:black; " description="&lt;b&gt;PspR76_RS13270&lt;/b&gt;&lt;br&gt;DUF3225 domain-containing protein&lt;br&gt;Location: 2897012 - 2897473" locus_tag="PspR76_RS13270" class="clusterblast-orf" id="dummy-1_h1_8_26"  />
</g>
<g id="a1_0027"  >
<polygon points="418,85 423,80 425,80 425,90 423,90 418,85 " style="fill:white; stroke-width:1; stroke:black; " description="&lt;b&gt;PspR76_RS13275&lt;/b&gt;&lt;br&gt;helix-turn-helix domain-containing protein&lt;br&gt;Location: 2897540 - 2898505" locus_tag="PspR76_RS13275" class="clusterblast-orf" id="dummy-1_h1_8_27"  />
</g>
<g id="a1_0028"  >
<polygon points="426,85 430,80 430,90 426,85 " style="fill:white; stroke-width:1; stroke:black; " description="&lt;b&gt;PspR76_RS13280&lt;/b&gt;&lt;br&gt;TetR family transcriptional regulator&lt;br&gt;Location: 2898547 - 2899155" locus_tag="PspR76_RS13280" class="clusterblast-orf" id="dummy-1_h1_8_28"  />
</g>
<g id="a1_0029"  >
<polygon points="431,90 435,90 440,85 435,80 431,80 431,90 " style="fill:white; stroke-width:1; stroke:black; " description="&lt;b&gt;PspR76_RS13285&lt;/b&gt;&lt;br&gt;MFS transporter&lt;br&gt;Location: 2899297 - 2900469" locus_tag="PspR76_RS13285" class="clusterblast-orf" id="dummy-1_h1_8_29"  />
</g>
<g id="a1_0030"  >
<polygon points="440,85 443,80 443,90 440,85 " style="fill:white; stroke-width:1; stroke:black; " description="&lt;b&gt;PspR76_RS13290&lt;/b&gt;&lt;br&gt;toxin-antitoxin system HicB family antitoxin&lt;br&gt;Location: 2900470 - 2900835" locus_tag="PspR76_RS13290" class="clusterblast-orf" id="dummy-1_h1_8_30"  />
</g>
<g id="a1_0031"  >
<polygon points="443,85 445,80 445,90 443,85 " style="fill:white; stroke-width:1; stroke:black; " description="&lt;b&gt;PspR76_RS13295&lt;/b&gt;&lt;br&gt;type II toxin-antitoxin system HicA family toxin&lt;br&gt;Location: 2900832 - 2901083" locus_tag="PspR76_RS13295" class="clusterblast-orf" id="dummy-1_h1_8_31"  />
</g>
<g id="a1_0032"  >
<polygon points="446,90 547,90 552,85 547,80 446,80 446,90 " style="fill:#1585d8; stroke-width:1; stroke:black; " description="&lt;b&gt;PspR76_RS13300&lt;/b&gt;&lt;br&gt;non-ribosomal peptide synthase/polyketide synthase&lt;br&gt;Location: 2901293 - 2915338&lt;br&gt;&lt;br&gt;&lt;b&gt;BlastP hit with ctg28_21&lt;/b&gt;&lt;br&gt;Percentage identity: 31&lt;br&gt;Percentage coverage: 112&lt;br&gt;BLAST bit score: 1689&lt;br&gt;E-value: 0.0&lt;br&gt;&lt;br&gt;&lt;b&gt;BlastP hit with ctg28_22&lt;/b&gt;&lt;br&gt;Percentage identity: 37&lt;br&gt;Percentage coverage: 86&lt;br&gt;BLAST bit score: 1703&lt;br&gt;E-value: 0.0" locus_tag="PspR76_RS13300" class="clusterblast-orf" id="dummy-1_h1_8_32"  />
</g>
<g id="a1_0033"  >
<polygon points="552,90 636,90 641,85 636,80 552,80 552,90 " style="fill:#1585d8; stroke-width:1; stroke:black; " description="&lt;b&gt;PspR76_RS13305&lt;/b&gt;&lt;br&gt;non-ribosomal peptide synthase/polyketide synthase&lt;br&gt;Location: 2915342 - 2927209&lt;br&gt;&lt;br&gt;&lt;b&gt;BlastP hit with ctg28_21&lt;/b&gt;&lt;br&gt;Percentage identity: 32&lt;br&gt;Percentage coverage: 86&lt;br&gt;BLAST bit score: 1412&lt;br&gt;E-value: 0.0&lt;br&gt;&lt;br&gt;&lt;b&gt;BlastP hit with ctg28_22&lt;/b&gt;&lt;br&gt;Percentage identity: 32&lt;br&gt;Percentage coverage: 101&lt;br&gt;BLAST bit score: 1566&lt;br&gt;E-value: 0.0" locus_tag="PspR76_RS13305" class="clusterblast-orf" id="dummy-1_h1_8_33"  />
</g>
<g id="a1_0034"  >
<polygon points="643,85 648,80 662,80 662,90 648,90 643,85 " style="fill:white; stroke-width:1; stroke:black; " description="&lt;b&gt;PspR76_RS13310&lt;/b&gt;&lt;br&gt;TonB-dependent siderophore receptor&lt;br&gt;Location: 2927479 - 2929920" locus_tag="PspR76_RS13310" class="clusterblast-orf" id="dummy-1_h1_8_34"  />
</g>
<g id="a1_0035"  >
<polygon points="663,85 668,80 675,80 675,90 668,90 663,85 " style="fill:white; stroke-width:1; stroke:black; " description="&lt;b&gt;PspR76_RS13315&lt;/b&gt;&lt;br&gt;cyclic peptide export ABC transporter&lt;br&gt;Location: 2930030 - 2931682" locus_tag="PspR76_RS13315" class="clusterblast-orf" id="dummy-1_h1_8_35"  />
</g>
<g id="a1_0036"  >
<polygon points="677,90 678,90 683,85 678,80 677,80 677,90 " style="fill:white; stroke-width:1; stroke:black; " description="&lt;b&gt;PspR76_RS13320&lt;/b&gt;&lt;br&gt;N(5)-hydroxyornithine transformylase PvdF&lt;br&gt;Location: 2931872 - 2932699" locus_tag="PspR76_RS13320" class="clusterblast-orf" id="dummy-1_h1_8_36"  />
</g>
<g id="a1_0037"  >
<polygon points="687,85 692,80 694,80 694,90 692,90 687,85 " style="fill:white; stroke-width:1; stroke:black; " description="&lt;b&gt;PspR76_RS13325&lt;/b&gt;&lt;br&gt;SUMF1/EgtB/PvdO family nonheme iron enzyme&lt;br&gt;Location: 2933327 - 2934199" locus_tag="PspR76_RS13325" class="clusterblast-orf" id="dummy-1_h1_8_37"  />
</g>
<g id="a1_0038"  >
<polygon points="694,85 699,80 704,80 704,90 699,90 694,85 " style="fill:white; stroke-width:1; stroke:black; " description="&lt;b&gt;PspR76_RS13330&lt;/b&gt;&lt;br&gt;aminotransferase class V-fold PLP-dependent enzyme&lt;br&gt;Location: 2934232 - 2935512" locus_tag="PspR76_RS13330" class="clusterblast-orf" id="dummy-1_h1_8_38"  />
</g>
<g id="a1_0039"  >
<polygon points="704,85 709,80 714,80 714,90 709,90 704,85 " style="fill:white; stroke-width:1; stroke:black; " description="&lt;b&gt;PspR76_RS13335&lt;/b&gt;&lt;br&gt;pyoverdine-tailoring dipeptidase-like protein PvdM&lt;br&gt;Location: 2935531 - 2936880" locus_tag="PspR76_RS13335" class="clusterblast-orf" id="dummy-1_h1_8_39"  />
</g>
<g id="a1_0040"  >
<polygon points="715,90 722,90 727,85 722,80 715,80 715,90 " style="fill:white; stroke-width:1; stroke:black; " description="&lt;b&gt;PspR76_RS13340&lt;/b&gt;&lt;br&gt;PvdJ/PvdD/PvdP-like protein&lt;br&gt;Location: 2937023 - 2938642" locus_tag="PspR76_RS13340" class="clusterblast-orf" id="dummy-1_h1_8_40"  />
</g>
<g id="a1_0041"  >
<polygon points="727,85 732,80 735,80 735,90 732,90 727,85 " style="fill:white; stroke-width:1; stroke:black; " description="&lt;b&gt;PspR76_RS13345&lt;/b&gt;&lt;br&gt;DUF1853 family protein&lt;br&gt;Location: 2938635 - 2939582" locus_tag="PspR76_RS13345" class="clusterblast-orf" id="dummy-1_h1_8_41"  />
</g>
<g id="a1_0042"  >
<polygon points="736,90 737,90 742,85 737,80 736,80 736,90 " style="fill:white; stroke-width:1; stroke:black; " description="&lt;b&gt;PspR76_RS13350&lt;/b&gt;&lt;br&gt;NAD(+) kinase&lt;br&gt;Location: 2939727 - 2940617" locus_tag="PspR76_RS13350" class="clusterblast-orf" id="dummy-1_h1_8_42"  />
</g>
<g id="a1_0043"  >
<polygon points="742,90 745,90 750,85 745,80 742,80 742,90 " style="fill:white; stroke-width:1; stroke:black; " description="&lt;b&gt;PspR76_RS13355&lt;/b&gt;&lt;br&gt;metallophosphoesterase&lt;br&gt;Location: 2940614 - 2941588" locus_tag="PspR76_RS13355" class="clusterblast-orf" id="dummy-1_h1_8_43"  />
</g>
<g id="a1_0044"  >
<polygon points="750,90 755,90 760,85 755,80 750,80 750,90 " style="fill:white; stroke-width:1; stroke:black; " description="&lt;b&gt;PspR76_RS13360&lt;/b&gt;&lt;br&gt;AAA family ATPase&lt;br&gt;Location: 2941627 - 2942976" locus_tag="PspR76_RS13360" class="clusterblast-orf" id="dummy-1_h1_8_44"  />
</g>
<g id="a1_0045"  >
<polygon points="760,90 764,85 760,80 760,90 " style="fill:white; stroke-width:1; stroke:black; " description="&lt;b&gt;PspR76_RS13365&lt;/b&gt;&lt;br&gt;hypothetical protein&lt;br&gt;Location: 2942976 - 2943461" locus_tag="PspR76_RS13365" class="clusterblast-orf" id="dummy-1_h1_8_45"  />
</g>
<g id="a1_0046"  >
<polygon points="764,90 766,90 771,85 766,80 764,80 764,90 " style="fill:white; stroke-width:1; stroke:black; " description="&lt;b&gt;PspR76_RS13370&lt;/b&gt;&lt;br&gt;tetratricopeptide repeat protein&lt;br&gt;Location: 2943461 - 2944384" locus_tag="PspR76_RS13370" class="clusterblast-orf" id="dummy-1_h1_8_46"  />
</g>
<g id="a1_0047"  >
<polygon points="771,90 773,85 771,80 771,90 " style="fill:white; stroke-width:1; stroke:black; " description="&lt;b&gt;PspR76_RS13375&lt;/b&gt;&lt;br&gt;DUF1315 family protein&lt;br&gt;Location: 2944464 - 2944724" locus_tag="PspR76_RS13375" class="clusterblast-orf" id="dummy-1_h1_8_47"  />
</g>
<g id="a1_0048"  >
<polygon points="773,90 775,90 780,85 775,80 773,80 773,90 " style="fill:white; stroke-width:1; stroke:black; " description="&lt;b&gt;PspR76_RS13380&lt;/b&gt;&lt;br&gt;DUF2797 domain-containing protein&lt;br&gt;Location: 2944721 - 2945551" locus_tag="PspR76_RS13380" class="clusterblast-orf" id="dummy-1_h1_8_48"  />
</g>
</svg>
