<svg xmlns="http://www.w3.org/2000/svg" xmlns:xlink="http://www.w3.org/1999/xlink" version="1.1" x="0" y="0" height="230" width="800" viewBox="0 0 800 230" preserveAspectRatio="none"  >
<g label="Query sequence" class="clusterblast-cluster"  >
<text x="5" y="20" class="clusterblast-acc"  >
Query sequence</text>
<line x1="10" y1="35" x2="778.0" y2="35" style="stroke-width:1; stroke:grey; "  />
<polygon points="0,40 4,40 9,35 4,30 0,30 0,40 " style="fill:#d81515; stroke-width:1; stroke:black; " description="&lt;b&gt;ctg9_97&lt;/b&gt;&lt;br&gt;ctg9 97&lt;br&gt;Location: 112971 - 113886" locus_tag="ctg9_97" class="clusterblast-orf" id="dummy-1_q0_0_all"  />
<polygon points="10,35 15,30 17,30 17,40 15,40 10,35 " style="fill:#65d815; stroke-width:1; stroke:black; " description="&lt;b&gt;ctg9_98&lt;/b&gt;&lt;br&gt;ctg9 98&lt;br&gt;Location: 114006 - 114672" locus_tag="ctg9_98" class="clusterblast-orf" id="dummy-1_q1_0_all"  />
<polygon points="17,35 22,30 52,30 52,40 22,40 17,35 " style="fill:#65d815; stroke-width:1; stroke:black; " description="&lt;b&gt;ctg9_99&lt;/b&gt;&lt;br&gt;ctg9 99&lt;br&gt;Location: 114646 - 118030" locus_tag="ctg9_99" class="clusterblast-orf" id="dummy-1_q2_0_all"  />
<polygon points="55,40 63,40 68,35 63,30 55,30 55,40 " style="fill:#15b6d8; stroke-width:1; stroke:black; " description="&lt;b&gt;ctg9_100&lt;/b&gt;&lt;br&gt;ctg9 100&lt;br&gt;Location: 118332 - 119541" locus_tag="ctg9_100" class="clusterblast-orf" id="dummy-1_q3_0_all"  />
<polygon points="70,40 74,40 79,35 74,30 70,30 70,40 " style="fill:#8815d8; stroke-width:1; stroke:black; " description="&lt;b&gt;ctg9_101&lt;/b&gt;&lt;br&gt;ctg9 101&lt;br&gt;Location: 119719 - 120637" locus_tag="ctg9_101" class="clusterblast-orf" id="dummy-1_q4_0_all"  />
<polygon points="79,40 86,40 91,35 86,30 79,30 79,40 " style="fill:#d83815; stroke-width:1; stroke:black; " description="&lt;b&gt;ctg9_102&lt;/b&gt;&lt;br&gt;ctg9 102&lt;br&gt;Location: 120647 - 121808" locus_tag="ctg9_102" class="clusterblast-orf" id="dummy-1_q5_0_all"  />
<polygon points="91,40 94,40 99,35 94,30 91,30 91,40 " style="fill:#43d815; stroke-width:1; stroke:black; " description="&lt;b&gt;ctg9_103&lt;/b&gt;&lt;br&gt;ctg9 103&lt;br&gt;Location: 121804 - 122563" locus_tag="ctg9_103" class="clusterblast-orf" id="dummy-1_q6_0_all"  />
<polygon points="99,40 101,40 106,35 101,30 99,30 99,40 " style="fill:#1593d8; stroke-width:1; stroke:black; " description="&lt;b&gt;ctg9_104&lt;/b&gt;&lt;br&gt;ctg9 104&lt;br&gt;Location: 122573 - 123263" locus_tag="ctg9_104" class="clusterblast-orf" id="dummy-1_q7_0_all"  />
<polygon points="108,40 116,40 121,35 116,30 108,30 108,40 " style="fill:#aa15d8; stroke-width:1; stroke:black; " description="&lt;b&gt;ctg9_105&lt;/b&gt;&lt;br&gt;ctg9 105&lt;br&gt;Location: 123481 - 124711" locus_tag="ctg9_105" class="clusterblast-orf" id="dummy-1_q8_0_all"  />
<polygon points="121,40 125,35 121,30 121,40 " style="fill:#d85a15; stroke-width:1; stroke:black; " description="&lt;b&gt;ctg9_106&lt;/b&gt;&lt;br&gt;ctg9 106&lt;br&gt;Location: 124713 - 125061" locus_tag="ctg9_106" class="clusterblast-orf" id="dummy-1_q9_0_all"  />
<polygon points="125,40 131,40 136,35 131,30 125,30 125,40 " style="fill:#21d815; stroke-width:1; stroke:black; " description="&lt;b&gt;ctg9_107&lt;/b&gt;&lt;br&gt;ctg9 107&lt;br&gt;Location: 125076 - 126120" locus_tag="ctg9_107" class="clusterblast-orf" id="dummy-1_q10_0_all"  />
<polygon points="136,40 141,40 146,35 141,30 136,30 136,40 " style="fill:#1571d8; stroke-width:1; stroke:black; " description="&lt;b&gt;ctg9_108&lt;/b&gt;&lt;br&gt;ctg9 108&lt;br&gt;Location: 126123 - 127080" locus_tag="ctg9_108" class="clusterblast-orf" id="dummy-1_q11_0_all"  />
<polygon points="146,40 147,40 152,35 147,30 146,30 146,40 " style="fill:#cd15d8; stroke-width:1; stroke:black; " description="&lt;b&gt;ctg9_109&lt;/b&gt;&lt;br&gt;ctg9 109&lt;br&gt;Location: 127147 - 127720" locus_tag="ctg9_109" class="clusterblast-orf" id="dummy-1_q12_0_all"  />
<polygon points="153,40 162,40 167,35 162,30 153,30 153,40 " style="fill:#d87c15; stroke-width:1; stroke:black; " description="&lt;b&gt;ctg9_110&lt;/b&gt;&lt;br&gt;ctg9 110&lt;br&gt;Location: 127745 - 129101" locus_tag="ctg9_110" class="clusterblast-orf" id="dummy-1_q13_0_all"  />
<polygon points="167,35 172,30 173,30 173,40 172,40 167,35 " style="fill:#15d82c; stroke-width:1; stroke:black; " description="&lt;b&gt;ctg9_111&lt;/b&gt;&lt;br&gt;ctg9 111&lt;br&gt;Location: 129084 - 129678" locus_tag="ctg9_111" class="clusterblast-orf" id="dummy-1_q14_0_all"  />
<polygon points="174,40 182,40 187,35 182,30 174,30 174,40 " style="fill:#154fd8; stroke-width:1; stroke:black; " description="&lt;b&gt;ctg9_112&lt;/b&gt;&lt;br&gt;ctg9 112&lt;br&gt;Location: 129820 - 131011" locus_tag="ctg9_112" class="clusterblast-orf" id="dummy-1_q15_0_all"  />
<polygon points="186,35 190,30 190,40 186,35 " style="fill:#d815c1; stroke-width:1; stroke:black; " description="&lt;b&gt;ctg9_113&lt;/b&gt;&lt;br&gt;ctg9 113&lt;br&gt;Location: 130993 - 131359" locus_tag="ctg9_113" class="clusterblast-orf" id="dummy-1_q16_0_all"  />
<polygon points="190,35 193,30 193,40 190,35 " style="fill:#d89f15; stroke-width:1; stroke:black; " description="&lt;b&gt;ctg9_114&lt;/b&gt;&lt;br&gt;ctg9 114&lt;br&gt;Location: 131355 - 131607" locus_tag="ctg9_114" class="clusterblast-orf" id="dummy-1_q17_0_all"  />
<polygon points="195,40 335,40 340,35 335,30 195,30 195,40 " style="fill:#15d84f; stroke-width:1; stroke:black; " description="&lt;b&gt;ctg9_115&lt;/b&gt;&lt;br&gt;ctg9 115&lt;br&gt;Location: 131816 - 145871" locus_tag="ctg9_115" class="clusterblast-orf" id="dummy-1_q18_0_all"  />
<polygon points="340,40 458,40 463,35 458,30 340,30 340,40 " style="fill:#15d84f; stroke-width:1; stroke:black; " description="&lt;b&gt;ctg9_116&lt;/b&gt;&lt;br&gt;ctg9 116&lt;br&gt;Location: 145874 - 157727" locus_tag="ctg9_116" class="clusterblast-orf" id="dummy-1_q19_0_all"  />
<polygon points="465,35 470,30 490,30 490,40 470,40 465,35 " style="fill:#152cd8; stroke-width:1; stroke:black; " description="&lt;b&gt;ctg9_117&lt;/b&gt;&lt;br&gt;ctg9 117&lt;br&gt;Location: 157871 - 160313" locus_tag="ctg9_117" class="clusterblast-orf" id="dummy-1_q20_0_all"  />
<polygon points="491,35 496,30 508,30 508,40 496,40 491,35 " style="fill:#d8159f; stroke-width:1; stroke:black; " description="&lt;b&gt;ctg9_118&lt;/b&gt;&lt;br&gt;ctg9 118&lt;br&gt;Location: 160422 - 162075" locus_tag="ctg9_118" class="clusterblast-orf" id="dummy-1_q21_0_all"  />
<polygon points="510,40 514,40 519,35 514,30 510,30 510,40 " style="fill:#d8c115; stroke-width:1; stroke:black; " description="&lt;b&gt;ctg9_119&lt;/b&gt;&lt;br&gt;ctg9 119&lt;br&gt;Location: 162273 - 163101" locus_tag="ctg9_119" class="clusterblast-orf" id="dummy-1_q22_0_all"  />
<polygon points="520,35 525,30 529,30 529,40 525,40 520,35 " style="fill:#15d871; stroke-width:1; stroke:black; " description="&lt;b&gt;ctg9_120&lt;/b&gt;&lt;br&gt;ctg9 120&lt;br&gt;Location: 163243 - 164116" locus_tag="ctg9_120" class="clusterblast-orf" id="dummy-1_q23_0_all"  />
<polygon points="530,35 535,30 543,30 543,40 535,40 530,35 " style="fill:#2115d8; stroke-width:1; stroke:black; " description="&lt;b&gt;ctg9_121&lt;/b&gt;&lt;br&gt;ctg9 121&lt;br&gt;Location: 164149 - 165430" locus_tag="ctg9_121" class="clusterblast-orf" id="dummy-1_q24_0_all"  />
<polygon points="543,35 548,30 557,30 557,40 548,40 543,35 " style="fill:#d8157c; stroke-width:1; stroke:black; " description="&lt;b&gt;ctg9_122&lt;/b&gt;&lt;br&gt;ctg9 122&lt;br&gt;Location: 165448 - 166798" locus_tag="ctg9_122" class="clusterblast-orf" id="dummy-1_q25_0_all"  />
<polygon points="559,40 571,40 576,35 571,30 559,30 559,40 " style="fill:#cdd815; stroke-width:1; stroke:black; " description="&lt;b&gt;ctg9_123&lt;/b&gt;&lt;br&gt;ctg9 123&lt;br&gt;Location: 166940 - 168560" locus_tag="ctg9_123" class="clusterblast-orf" id="dummy-1_q26_0_all"  />
<polygon points="575,35 580,30 585,30 585,40 580,40 575,35 " style="fill:#15d893; stroke-width:1; stroke:black; " description="&lt;b&gt;ctg9_124&lt;/b&gt;&lt;br&gt;ctg9 124&lt;br&gt;Location: 168552 - 169500" locus_tag="ctg9_124" class="clusterblast-orf" id="dummy-1_q27_0_all"  />
<polygon points="587,40 591,40 596,35 591,30 587,30 587,40 " style="fill:#4315d8; stroke-width:1; stroke:black; " description="&lt;b&gt;ctg9_125&lt;/b&gt;&lt;br&gt;ctg9 125&lt;br&gt;Location: 169643 - 170534" locus_tag="ctg9_125" class="clusterblast-orf" id="dummy-1_q28_0_all"  />
<polygon points="596,40 601,40 606,35 601,30 596,30 596,40 " style="fill:#d8155a; stroke-width:1; stroke:black; " description="&lt;b&gt;ctg9_126&lt;/b&gt;&lt;br&gt;ctg9 126&lt;br&gt;Location: 170533 - 171505" locus_tag="ctg9_126" class="clusterblast-orf" id="dummy-1_q29_0_all"  />
<polygon points="606,40 610,40 615,35 610,30 606,30 606,40 " style="fill:#aad815; stroke-width:1; stroke:black; " description="&lt;b&gt;ctg9_127&lt;/b&gt;&lt;br&gt;ctg9 127&lt;br&gt;Location: 171501 - 172371" locus_tag="ctg9_127" class="clusterblast-orf" id="dummy-1_q30_0_all"  />
<polygon points="615,40 618,35 615,30 615,40 " style="fill:#15d8b6; stroke-width:1; stroke:black; " description="&lt;b&gt;ctg9_128&lt;/b&gt;&lt;br&gt;ctg9 128&lt;br&gt;Location: 172385 - 172646" locus_tag="ctg9_128" class="clusterblast-orf" id="dummy-1_q31_0_all"  />
<polygon points="618,40 621,40 626,35 621,30 618,30 618,40 " style="fill:#6615d8; stroke-width:1; stroke:black; " description="&lt;b&gt;ctg9_129&lt;/b&gt;&lt;br&gt;ctg9 129&lt;br&gt;Location: 172642 - 173473" locus_tag="ctg9_129" class="clusterblast-orf" id="dummy-1_q32_0_all"  />
<polygon points="627,40 649,40 654,35 649,30 627,30 627,40 " style="fill:#d81538; stroke-width:1; stroke:black; " description="&lt;b&gt;ctg9_130&lt;/b&gt;&lt;br&gt;ctg9 130&lt;br&gt;Location: 173486 - 176144" locus_tag="ctg9_130" class="clusterblast-orf" id="dummy-1_q33_0_all"  />
<polygon points="658,40 661,40 666,35 661,30 658,30 658,40 " style="fill:#88d815; stroke-width:1; stroke:black; " description="&lt;b&gt;ctg9_131&lt;/b&gt;&lt;br&gt;ctg9 131&lt;br&gt;Location: 176545 - 177262" locus_tag="ctg9_131" class="clusterblast-orf" id="dummy-1_q34_0_all"  />
<polygon points="666,40 670,35 666,30 666,40 " style="fill:#15d8d8; stroke-width:1; stroke:black; " description="&lt;b&gt;ctg9_132&lt;/b&gt;&lt;br&gt;ctg9 132&lt;br&gt;Location: 177314 - 177650" locus_tag="ctg9_132" class="clusterblast-orf" id="dummy-1_q35_0_all"  />
<polygon points="670,40 676,40 681,35 676,30 670,30 670,40 " style="fill:white; stroke-width:1; stroke:black; " description="&lt;b&gt;ctg9_133&lt;/b&gt;&lt;br&gt;ctg9 133&lt;br&gt;Location: 177665 - 178772" locus_tag="ctg9_133" class="clusterblast-orf" id="dummy-1_q36_0_all"  />
<polygon points="683,40 683,40 688,35 683,30 683,30 683,40 " style="fill:white; stroke-width:1; stroke:black; " description="&lt;b&gt;ctg9_134&lt;/b&gt;&lt;br&gt;ctg9 134&lt;br&gt;Location: 178934 - 179426" locus_tag="ctg9_134" class="clusterblast-orf" id="dummy-1_q37_0_all"  />
<polygon points="689,35 691,30 691,40 689,35 " style="fill:white; stroke-width:1; stroke:black; " description="&lt;b&gt;ctg9_135&lt;/b&gt;&lt;br&gt;ctg9 135&lt;br&gt;Location: 179527 - 179749" locus_tag="ctg9_135" class="clusterblast-orf" id="dummy-1_q38_0_all"  />
<polygon points="693,35 698,30 716,30 716,40 698,40 693,35 " style="fill:#152cd8; stroke-width:1; stroke:black; " description="&lt;b&gt;ctg9_136&lt;/b&gt;&lt;br&gt;ctg9 136&lt;br&gt;Location: 179890 - 182119" locus_tag="ctg9_136" class="clusterblast-orf" id="dummy-1_q39_0_all"  />
<polygon points="717,35 722,30 736,30 736,40 722,40 717,35 " style="fill:white; stroke-width:1; stroke:black; " description="&lt;b&gt;ctg9_137&lt;/b&gt;&lt;br&gt;ctg9 137&lt;br&gt;Location: 182245 - 184054" locus_tag="ctg9_137" class="clusterblast-orf" id="dummy-1_q40_0_all"  />
<polygon points="737,35 739,30 739,40 737,35 " style="fill:white; stroke-width:1; stroke:black; " description="&lt;b&gt;ctg9_138&lt;/b&gt;&lt;br&gt;ctg9 138&lt;br&gt;Location: 184152 - 184329" locus_tag="ctg9_138" class="clusterblast-orf" id="dummy-1_q41_0_all"  />
<polygon points="742,40 747,40 752,35 747,30 742,30 742,40 " style="fill:white; stroke-width:1; stroke:black; " description="&lt;b&gt;ctg9_139&lt;/b&gt;&lt;br&gt;ctg9 139&lt;br&gt;Location: 184598 - 185582" locus_tag="ctg9_139" class="clusterblast-orf" id="dummy-1_q42_0_all"  />
<polygon points="752,40 763,40 768,35 763,30 752,30 752,40 " style="fill:white; stroke-width:1; stroke:black; " description="&lt;b&gt;ctg9_140&lt;/b&gt;&lt;br&gt;ctg9 140&lt;br&gt;Location: 185578 - 187102" locus_tag="ctg9_140" class="clusterblast-orf" id="dummy-1_q43_0_all"  />
<polygon points="768,40 771,40 776,35 771,30 768,30 768,40 " style="fill:white; stroke-width:1; stroke:black; " description="&lt;b&gt;ctg9_141&lt;/b&gt;&lt;br&gt;ctg9 141&lt;br&gt;Location: 187098 - 187923" locus_tag="ctg9_141" class="clusterblast-orf" id="dummy-1_q44_0_all"  />
<polygon points="777,35 780,30 780,40 777,35 " style="fill:white; stroke-width:1; stroke:black; " description="&lt;b&gt;ctg9_142&lt;/b&gt;&lt;br&gt;ctg9 142&lt;br&gt;Location: 187998 - 188259" locus_tag="ctg9_142" class="clusterblast-orf" id="dummy-1_q45_0_all"  />
</g>
<g label="NZ_CP027762" description="NZ_CP027762 (3697930-3763242): Pseudomonas sp. LBUM920 chromosome, complete g... (100% of genes show similarity), NRPS" class="clusterblast-cluster"  >
<text x="5" y="70" class="clusterblast-acc"  >
<a xlink:href="https://antismash-db.secondarymetabolites.org/area.html?record=NZ_CP027762&amp;start=3697930&amp;end=3763242" target="_blank">NZ_CP027762 (3697930-3763242)</a>: Pseudomonas sp. LBUM920 chromosome, complete g... (100% of genes show similarity), NRPS</text>
<line x1="10" y1="85" x2="778.0" y2="85" style="stroke-width:1; stroke:grey; "  />
</g>
<g id="a1_000"  >
<polygon points="51,90 55,90 60,85 55,80 51,80 51,90 " style="fill:#d81515; stroke-width:1; stroke:black; " description="&lt;b&gt;C4J83_RS17425&lt;/b&gt;&lt;br&gt;IclR family transcriptional regulator&lt;br&gt;Location: 3763242 - 3762412&lt;br&gt;&lt;br&gt;&lt;b&gt;BlastP hit with ctg9_97&lt;/b&gt;&lt;br&gt;Percentage identity: 94&lt;br&gt;Percentage coverage: 91&lt;br&gt;BLAST bit score: 511&lt;br&gt;E-value: 1.42e-183" locus_tag="C4J83_RS17425" class="clusterblast-orf" id="dummy-1_h1_4_0"  />
</g>
<g id="a1_001"  >
<polygon points="71,85 76,80 78,80 78,90 76,90 71,85 " style="fill:#65d815; stroke-width:1; stroke:black; " description="&lt;b&gt;C4J83_RS17410&lt;/b&gt;&lt;br&gt;response regulator&lt;br&gt;Location: 3761289 - 3760624&lt;br&gt;&lt;br&gt;&lt;b&gt;BlastP hit with ctg9_98&lt;/b&gt;&lt;br&gt;Percentage identity: 99&lt;br&gt;Percentage coverage: 100&lt;br&gt;BLAST bit score: 419&lt;br&gt;E-value: 2.6e-149&lt;br&gt;&lt;br&gt;&lt;b&gt;BlastP hit with ctg9_99&lt;/b&gt;&lt;br&gt;Percentage identity: 36&lt;br&gt;Percentage coverage: 13&lt;br&gt;BLAST bit score: 77&lt;br&gt;E-value: 1.06e-13" locus_tag="C4J83_RS17410" class="clusterblast-orf" id="dummy-1_h1_4_1"  />
</g>
<g id="a1_002"  >
<polygon points="78,85 83,80 113,80 113,90 83,90 78,85 " style="fill:#65d815; stroke-width:1; stroke:black; " description="&lt;b&gt;C4J83_RS17405&lt;/b&gt;&lt;br&gt;response regulator&lt;br&gt;Location: 3760649 - 3757266&lt;br&gt;&lt;br&gt;&lt;b&gt;BlastP hit with ctg9_98&lt;/b&gt;&lt;br&gt;Percentage identity: 36&lt;br&gt;Percentage coverage: 68&lt;br&gt;BLAST bit score: 74&lt;br&gt;E-value: 2.37e-13&lt;br&gt;&lt;br&gt;&lt;b&gt;BlastP hit with ctg9_99&lt;/b&gt;&lt;br&gt;Percentage identity: 97&lt;br&gt;Percentage coverage: 100&lt;br&gt;BLAST bit score: 2133&lt;br&gt;E-value: 0.0" locus_tag="C4J83_RS17405" class="clusterblast-orf" id="dummy-1_h1_4_2"  />
</g>
<g id="a1_003"  >
<polygon points="116,90 124,90 129,85 124,80 116,80 116,90 " style="fill:#15b6d8; stroke-width:1; stroke:black; " description="&lt;b&gt;C4J83_RS17400&lt;/b&gt;&lt;br&gt;urea ABC transporter substrate-binding protein&lt;br&gt;Location: 3756954 - 3755746&lt;br&gt;&lt;br&gt;&lt;b&gt;BlastP hit with ctg9_100&lt;/b&gt;&lt;br&gt;Percentage identity: 99&lt;br&gt;Percentage coverage: 100&lt;br&gt;BLAST bit score: 791&lt;br&gt;E-value: 1.81e-290" locus_tag="C4J83_RS17400" class="clusterblast-orf" id="dummy-1_h1_4_3"  />
</g>
<g id="a1_004"  >
<polygon points="131,90 135,90 140,85 135,80 131,80 131,90 " style="fill:#8815d8; stroke-width:1; stroke:black; " description="&lt;b&gt;C4J83_RS17395&lt;/b&gt;&lt;br&gt;urea ABC transporter permease subunit UrtB&lt;br&gt;Location: 3755578 - 3754661&lt;br&gt;&lt;br&gt;&lt;b&gt;BlastP hit with ctg9_101&lt;/b&gt;&lt;br&gt;Percentage identity: 99&lt;br&gt;Percentage coverage: 100&lt;br&gt;BLAST bit score: 569&lt;br&gt;E-value: 4.19e-206" locus_tag="C4J83_RS17395" class="clusterblast-orf" id="dummy-1_h1_4_4"  />
</g>
<g id="a1_005"  >
<polygon points="140,90 147,90 152,85 147,80 140,80 140,90 " style="fill:#d83815; stroke-width:1; stroke:black; " description="&lt;b&gt;C4J83_RS17390&lt;/b&gt;&lt;br&gt;urea ABC transporter permease subunit UrtC&lt;br&gt;Location: 3754650 - 3753487&lt;br&gt;&lt;br&gt;&lt;b&gt;BlastP hit with ctg9_102&lt;/b&gt;&lt;br&gt;Percentage identity: 96&lt;br&gt;Percentage coverage: 100&lt;br&gt;BLAST bit score: 709&lt;br&gt;E-value: 1.57e-258" locus_tag="C4J83_RS17390" class="clusterblast-orf" id="dummy-1_h1_4_5"  />
</g>
<g id="a1_006"  >
<polygon points="152,90 155,90 160,85 155,80 152,80 152,90 " style="fill:#43d815; stroke-width:1; stroke:black; " description="&lt;b&gt;C4J83_RS17385&lt;/b&gt;&lt;br&gt;urea ABC transporter ATP-binding protein UrtD&lt;br&gt;Location: 3753490 - 3752732&lt;br&gt;&lt;br&gt;&lt;b&gt;BlastP hit with ctg9_103&lt;/b&gt;&lt;br&gt;Percentage identity: 98&lt;br&gt;Percentage coverage: 100&lt;br&gt;BLAST bit score: 488&lt;br&gt;E-value: 1.02e-175" locus_tag="C4J83_RS17385" class="clusterblast-orf" id="dummy-1_h1_4_6"  />
</g>
<g id="a1_007"  >
<polygon points="160,90 162,90 167,85 162,80 160,80 160,90 " style="fill:#1593d8; stroke-width:1; stroke:black; " description="&lt;b&gt;C4J83_RS17380&lt;/b&gt;&lt;br&gt;urea ABC transporter ATP-binding subunit UrtE&lt;br&gt;Location: 3752721 - 3752032&lt;br&gt;&lt;br&gt;&lt;b&gt;BlastP hit with ctg9_104&lt;/b&gt;&lt;br&gt;Percentage identity: 98&lt;br&gt;Percentage coverage: 100&lt;br&gt;BLAST bit score: 437&lt;br&gt;E-value: 3.28e-156" locus_tag="C4J83_RS17380" class="clusterblast-orf" id="dummy-1_h1_4_7"  />
</g>
<g id="a1_008"  >
<polygon points="170,90 177,90 182,85 177,80 170,80 170,90 " style="fill:#aa15d8; stroke-width:1; stroke:black; " description="&lt;b&gt;C4J83_RS17370&lt;/b&gt;&lt;br&gt;acetamidase/formamidase family protein&lt;br&gt;Location: 3751812 - 3750583&lt;br&gt;&lt;br&gt;&lt;b&gt;BlastP hit with ctg9_105&lt;/b&gt;&lt;br&gt;Percentage identity: 100&lt;br&gt;Percentage coverage: 100&lt;br&gt;BLAST bit score: 857&lt;br&gt;E-value: 2.68e-316" locus_tag="C4J83_RS17370" class="clusterblast-orf" id="dummy-1_h1_4_8"  />
</g>
<g id="a1_009"  >
<polygon points="182,90 186,85 182,80 182,90 " style="fill:#d85a15; stroke-width:1; stroke:black; " description="&lt;b&gt;C4J83_RS17365&lt;/b&gt;&lt;br&gt;FmdB family transcriptional regulator&lt;br&gt;Location: 3750580 - 3750233&lt;br&gt;&lt;br&gt;&lt;b&gt;BlastP hit with ctg9_106&lt;/b&gt;&lt;br&gt;Percentage identity: 95&lt;br&gt;Percentage coverage: 100&lt;br&gt;BLAST bit score: 239&lt;br&gt;E-value: 9.95e-82" locus_tag="C4J83_RS17365" class="clusterblast-orf" id="dummy-1_h1_4_9"  />
</g>
<g id="a1_0010"  >
<polygon points="186,90 192,90 197,85 192,80 186,80 186,90 " style="fill:#21d815; stroke-width:1; stroke:black; " description="&lt;b&gt;C4J83_RS17360&lt;/b&gt;&lt;br&gt;aliphatic amidase&lt;br&gt;Location: 3750217 - 3749174&lt;br&gt;&lt;br&gt;&lt;b&gt;BlastP hit with ctg9_107&lt;/b&gt;&lt;br&gt;Percentage identity: 98&lt;br&gt;Percentage coverage: 99&lt;br&gt;BLAST bit score: 718&lt;br&gt;E-value: 1.12e-263" locus_tag="C4J83_RS17360" class="clusterblast-orf" id="dummy-1_h1_4_10"  />
</g>
<g id="a1_0011"  >
<polygon points="197,90 202,90 207,85 202,80 197,80 197,90 " style="fill:#1571d8; stroke-width:1; stroke:black; " description="&lt;b&gt;C4J83_RS17355&lt;/b&gt;&lt;br&gt;ATP-dependent Clp protease ATP-binding subunit&lt;br&gt;Location: 3749170 - 3748214&lt;br&gt;&lt;br&gt;&lt;b&gt;BlastP hit with ctg9_108&lt;/b&gt;&lt;br&gt;Percentage identity: 92&lt;br&gt;Percentage coverage: 100&lt;br&gt;BLAST bit score: 572&lt;br&gt;E-value: 1.39e-206" locus_tag="C4J83_RS17355" class="clusterblast-orf" id="dummy-1_h1_4_11"  />
</g>
<g id="a1_0012"  >
<polygon points="208,90 209,90 214,85 209,80 208,80 208,90 " style="fill:#cd15d8; stroke-width:1; stroke:black; " description="&lt;b&gt;C4J83_RS17350&lt;/b&gt;&lt;br&gt;DUF2239 family protein&lt;br&gt;Location: 3748146 - 3747574&lt;br&gt;&lt;br&gt;&lt;b&gt;BlastP hit with ctg9_109&lt;/b&gt;&lt;br&gt;Percentage identity: 78&lt;br&gt;Percentage coverage: 100&lt;br&gt;BLAST bit score: 300&lt;br&gt;E-value: 2.17e-103" locus_tag="C4J83_RS17350" class="clusterblast-orf" id="dummy-1_h1_4_12"  />
</g>
<g id="a1_0013"  >
<polygon points="214,90 223,90 228,85 223,80 214,80 214,90 " style="fill:#d87c15; stroke-width:1; stroke:black; " description="&lt;b&gt;C4J83_RS17345&lt;/b&gt;&lt;br&gt;MATE family efflux transporter&lt;br&gt;Location: 3747548 - 3746193&lt;br&gt;&lt;br&gt;&lt;b&gt;BlastP hit with ctg9_110&lt;/b&gt;&lt;br&gt;Percentage identity: 97&lt;br&gt;Percentage coverage: 100&lt;br&gt;BLAST bit score: 798&lt;br&gt;E-value: 1.05e-291" locus_tag="C4J83_RS17345" class="clusterblast-orf" id="dummy-1_h1_4_13"  />
</g>
<g id="a1_0014"  >
<polygon points="228,85 233,80 234,80 234,90 233,90 228,85 " style="fill:#15d82c; stroke-width:1; stroke:black; " description="&lt;b&gt;C4J83_RS17340&lt;/b&gt;&lt;br&gt;TetR/AcrR family transcriptional regulator&lt;br&gt;Location: 3746209 - 3745610&lt;br&gt;&lt;br&gt;&lt;b&gt;BlastP hit with ctg9_111&lt;/b&gt;&lt;br&gt;Percentage identity: 84&lt;br&gt;Percentage coverage: 101&lt;br&gt;BLAST bit score: 318&lt;br&gt;E-value: 1.91e-110" locus_tag="C4J83_RS17340" class="clusterblast-orf" id="dummy-1_h1_4_14"  />
</g>
<g id="a1_0015"  >
<polygon points="235,90 242,90 247,85 242,80 235,80 235,90 " style="fill:#154fd8; stroke-width:1; stroke:black; " description="&lt;b&gt;C4J83_RS17335&lt;/b&gt;&lt;br&gt;MFS transporter&lt;br&gt;Location: 3745468 - 3744296&lt;br&gt;&lt;br&gt;&lt;b&gt;BlastP hit with ctg9_112&lt;/b&gt;&lt;br&gt;Percentage identity: 91&lt;br&gt;Percentage coverage: 98&lt;br&gt;BLAST bit score: 668&lt;br&gt;E-value: 3.68e-242" locus_tag="C4J83_RS17335" class="clusterblast-orf" id="dummy-1_h1_4_15"  />
</g>
<g id="a1_0016"  >
<polygon points="247,85 251,80 251,90 247,85 " style="fill:#d815c1; stroke-width:1; stroke:black; " description="&lt;b&gt;C4J83_RS17330&lt;/b&gt;&lt;br&gt;type II toxin-antitoxin system HicB family antitoxin&lt;br&gt;Location: 3744295 - 3743930&lt;br&gt;&lt;br&gt;&lt;b&gt;BlastP hit with ctg9_113&lt;/b&gt;&lt;br&gt;Percentage identity: 91&lt;br&gt;Percentage coverage: 100&lt;br&gt;BLAST bit score: 228&lt;br&gt;E-value: 2.9e-77" locus_tag="C4J83_RS17330" class="clusterblast-orf" id="dummy-1_h1_4_16"  />
</g>
<g id="a1_0017"  >
<polygon points="251,85 254,80 254,90 251,85 " style="fill:#d89f15; stroke-width:1; stroke:black; " description="&lt;b&gt;C4J83_RS17325&lt;/b&gt;&lt;br&gt;type II toxin-antitoxin system HicA family toxin&lt;br&gt;Location: 3743933 - 3743682&lt;br&gt;&lt;br&gt;&lt;b&gt;BlastP hit with ctg9_114&lt;/b&gt;&lt;br&gt;Percentage identity: 88&lt;br&gt;Percentage coverage: 100&lt;br&gt;BLAST bit score: 149&lt;br&gt;E-value: 6.95e-47" locus_tag="C4J83_RS17325" class="clusterblast-orf" id="dummy-1_h1_4_17"  />
</g>
<g id="a1_0018"  >
<polygon points="256,90 397,90 402,85 397,80 256,80 256,90 " style="fill:#15d84f; stroke-width:1; stroke:black; " description="&lt;b&gt;C4J83_RS17320&lt;/b&gt;&lt;br&gt;non-ribosomal peptide synthetase&lt;br&gt;Location: 3743471 - 3729423&lt;br&gt;&lt;br&gt;&lt;b&gt;BlastP hit with ctg9_115&lt;/b&gt;&lt;br&gt;Percentage identity: 90&lt;br&gt;Percentage coverage: 100&lt;br&gt;BLAST bit score: 8383&lt;br&gt;E-value: 0.0&lt;br&gt;&lt;br&gt;&lt;b&gt;BlastP hit with ctg9_116&lt;/b&gt;&lt;br&gt;Percentage identity: 67&lt;br&gt;Percentage coverage: 53&lt;br&gt;BLAST bit score: 2673&lt;br&gt;E-value: 0.0" locus_tag="C4J83_RS17320" class="clusterblast-orf" id="dummy-1_h1_4_18"  />
</g>
<g id="a1_0019"  >
<polygon points="402,90 519,90 524,85 519,80 402,80 402,90 " style="fill:#15d84f; stroke-width:1; stroke:black; " description="&lt;b&gt;C4J83_RS17315&lt;/b&gt;&lt;br&gt;non-ribosomal peptide synthase/polyketide synthase&lt;br&gt;Location: 3729419 - 3717567&lt;br&gt;&lt;br&gt;&lt;b&gt;BlastP hit with ctg9_115&lt;/b&gt;&lt;br&gt;Percentage identity: 67&lt;br&gt;Percentage coverage: 45&lt;br&gt;BLAST bit score: 2706&lt;br&gt;E-value: 0.0&lt;br&gt;&lt;br&gt;&lt;b&gt;BlastP hit with ctg9_116&lt;/b&gt;&lt;br&gt;Percentage identity: 93&lt;br&gt;Percentage coverage: 100&lt;br&gt;BLAST bit score: 7264&lt;br&gt;E-value: 0.0" locus_tag="C4J83_RS17315" class="clusterblast-orf" id="dummy-1_h1_4_19"  />
</g>
<g id="a1_0020"  >
<polygon points="527,85 532,80 552,80 552,90 532,90 527,85 " style="fill:#152cd8; stroke-width:1; stroke:black; " description="&lt;b&gt;C4J83_RS17310&lt;/b&gt;&lt;br&gt;TonB-dependent siderophore receptor&lt;br&gt;Location: 3717297 - 3714856&lt;br&gt;&lt;br&gt;&lt;b&gt;BlastP hit with ctg9_117&lt;/b&gt;&lt;br&gt;Percentage identity: 94&lt;br&gt;Percentage coverage: 100&lt;br&gt;BLAST bit score: 1565&lt;br&gt;E-value: 0.0&lt;br&gt;&lt;br&gt;&lt;b&gt;BlastP hit with ctg9_136&lt;/b&gt;&lt;br&gt;Percentage identity: 39&lt;br&gt;Percentage coverage: 97&lt;br&gt;BLAST bit score: 490&lt;br&gt;E-value: 7.05e-161" locus_tag="C4J83_RS17310" class="clusterblast-orf" id="dummy-1_h1_4_20"  />
</g>
<g id="a1_0021"  >
<polygon points="554,85 559,80 571,80 571,90 559,90 554,85 " style="fill:#d8159f; stroke-width:1; stroke:black; " description="&lt;b&gt;C4J83_RS17305&lt;/b&gt;&lt;br&gt;cyclic peptide export ABC transporter&lt;br&gt;Location: 3714746 - 3713094&lt;br&gt;&lt;br&gt;&lt;b&gt;BlastP hit with ctg9_118&lt;/b&gt;&lt;br&gt;Percentage identity: 99&lt;br&gt;Percentage coverage: 100&lt;br&gt;BLAST bit score: 1043&lt;br&gt;E-value: 0.0" locus_tag="C4J83_RS17305" class="clusterblast-orf" id="dummy-1_h1_4_21"  />
</g>
<g id="a1_0022"  >
<polygon points="573,90 576,90 581,85 576,80 573,80 573,90 " style="fill:#d8c115; stroke-width:1; stroke:black; " description="&lt;b&gt;C4J83_RS17300&lt;/b&gt;&lt;br&gt;N(5)-hydroxyornithine transformylase PvdF&lt;br&gt;Location: 3712895 - 3712068&lt;br&gt;&lt;br&gt;&lt;b&gt;BlastP hit with ctg9_119&lt;/b&gt;&lt;br&gt;Percentage identity: 98&lt;br&gt;Percentage coverage: 100&lt;br&gt;BLAST bit score: 554&lt;br&gt;E-value: 3.61e-201" locus_tag="C4J83_RS17300" class="clusterblast-orf" id="dummy-1_h1_4_22"  />
</g>
<g id="a1_0023"  >
<polygon points="594,85 599,80 603,80 603,90 599,90 594,85 " style="fill:#15d871; stroke-width:1; stroke:black; " description="&lt;b&gt;C4J83_RS17295&lt;/b&gt;&lt;br&gt;formylglycine-generating enzyme family protein&lt;br&gt;Location: 3710828 - 3709956&lt;br&gt;&lt;br&gt;&lt;b&gt;BlastP hit with ctg9_120&lt;/b&gt;&lt;br&gt;Percentage identity: 95&lt;br&gt;Percentage coverage: 100&lt;br&gt;BLAST bit score: 586&lt;br&gt;E-value: 3.65e-213" locus_tag="C4J83_RS17295" class="clusterblast-orf" id="dummy-1_h1_4_23"  />
</g>
<g id="a1_0024"  >
<polygon points="604,85 609,80 617,80 617,90 609,90 604,85 " style="fill:#2115d8; stroke-width:1; stroke:black; " description="&lt;b&gt;C4J83_RS17290&lt;/b&gt;&lt;br&gt;aminotransferase class V-fold PLP-dependent enzyme&lt;br&gt;Location: 3709926 - 3708646&lt;br&gt;&lt;br&gt;&lt;b&gt;BlastP hit with ctg9_121&lt;/b&gt;&lt;br&gt;Percentage identity: 89&lt;br&gt;Percentage coverage: 100&lt;br&gt;BLAST bit score: 771&lt;br&gt;E-value: 4.91e-282" locus_tag="C4J83_RS17290" class="clusterblast-orf" id="dummy-1_h1_4_24"  />
</g>
<g id="a1_0025"  >
<polygon points="617,85 622,80 631,80 631,90 622,90 617,85 " style="fill:#d8157c; stroke-width:1; stroke:black; " description="&lt;b&gt;C4J83_RS17285&lt;/b&gt;&lt;br&gt;pyoverdine-tailoring dipeptidase-like protein PvdM&lt;br&gt;Location: 3708627 - 3707278&lt;br&gt;&lt;br&gt;&lt;b&gt;BlastP hit with ctg9_122&lt;/b&gt;&lt;br&gt;Percentage identity: 95&lt;br&gt;Percentage coverage: 100&lt;br&gt;BLAST bit score: 879&lt;br&gt;E-value: 0.0" locus_tag="C4J83_RS17285" class="clusterblast-orf" id="dummy-1_h1_4_25"  />
</g>
<g id="a1_0026"  >
<polygon points="632,90 644,90 649,85 644,80 632,80 632,90 " style="fill:#cdd815; stroke-width:1; stroke:black; " description="&lt;b&gt;C4J83_RS17280&lt;/b&gt;&lt;br&gt;PvdJ/PvdD/PvdP-like protein&lt;br&gt;Location: 3707135 - 3705516&lt;br&gt;&lt;br&gt;&lt;b&gt;BlastP hit with ctg9_123&lt;/b&gt;&lt;br&gt;Percentage identity: 94&lt;br&gt;Percentage coverage: 100&lt;br&gt;BLAST bit score: 1081&lt;br&gt;E-value: 0.0" locus_tag="C4J83_RS17280" class="clusterblast-orf" id="dummy-1_h1_4_26"  />
</g>
<g id="a1_0027"  >
<polygon points="649,85 654,80 659,80 659,90 654,90 649,85 " style="fill:#15d893; stroke-width:1; stroke:black; " description="&lt;b&gt;C4J83_RS17275&lt;/b&gt;&lt;br&gt;DUF1853 family protein&lt;br&gt;Location: 3705523 - 3704576&lt;br&gt;&lt;br&gt;&lt;b&gt;BlastP hit with ctg9_124&lt;/b&gt;&lt;br&gt;Percentage identity: 94&lt;br&gt;Percentage coverage: 100&lt;br&gt;BLAST bit score: 634&lt;br&gt;E-value: 3.18e-231" locus_tag="C4J83_RS17275" class="clusterblast-orf" id="dummy-1_h1_4_27"  />
</g>
<g id="a1_0028"  >
<polygon points="660,90 665,90 670,85 665,80 660,80 660,90 " style="fill:#4315d8; stroke-width:1; stroke:black; " description="&lt;b&gt;C4J83_RS17270&lt;/b&gt;&lt;br&gt;NAD(+) kinase&lt;br&gt;Location: 3704431 - 3703541&lt;br&gt;&lt;br&gt;&lt;b&gt;BlastP hit with ctg9_125&lt;/b&gt;&lt;br&gt;Percentage identity: 100&lt;br&gt;Percentage coverage: 100&lt;br&gt;BLAST bit score: 599&lt;br&gt;E-value: 3.81e-218" locus_tag="C4J83_RS17270" class="clusterblast-orf" id="dummy-1_h1_4_28"  />
</g>
<g id="a1_0029"  >
<polygon points="670,90 675,90 680,85 675,80 670,80 670,90 " style="fill:#d8155a; stroke-width:1; stroke:black; " description="&lt;b&gt;C4J83_RS17265&lt;/b&gt;&lt;br&gt;metallophosphoesterase&lt;br&gt;Location: 3703544 - 3702570&lt;br&gt;&lt;br&gt;&lt;b&gt;BlastP hit with ctg9_126&lt;/b&gt;&lt;br&gt;Percentage identity: 98&lt;br&gt;Percentage coverage: 100&lt;br&gt;BLAST bit score: 687&lt;br&gt;E-value: 5.62e-252" locus_tag="C4J83_RS17265" class="clusterblast-orf" id="dummy-1_h1_4_29"  />
</g>
<g id="a1_0030"  >
<polygon points="680,90 684,90 689,85 684,80 680,80 680,90 " style="fill:#aad815; stroke-width:1; stroke:black; " description="&lt;b&gt;C4J83_RS17260&lt;/b&gt;&lt;br&gt;rhomboid family intramembrane serine protease&lt;br&gt;Location: 3702573 - 3701704&lt;br&gt;&lt;br&gt;&lt;b&gt;BlastP hit with ctg9_127&lt;/b&gt;&lt;br&gt;Percentage identity: 94&lt;br&gt;Percentage coverage: 100&lt;br&gt;BLAST bit score: 550&lt;br&gt;E-value: 7.22e-199" locus_tag="C4J83_RS17260" class="clusterblast-orf" id="dummy-1_h1_4_30"  />
</g>
<g id="a1_0031"  >
<polygon points="689,90 692,85 689,80 689,90 " style="fill:#15d8b6; stroke-width:1; stroke:black; " description="&lt;b&gt;C4J83_RS17255&lt;/b&gt;&lt;br&gt;DUF1315 family protein&lt;br&gt;Location: 3701689 - 3701429&lt;br&gt;&lt;br&gt;&lt;b&gt;BlastP hit with ctg9_128&lt;/b&gt;&lt;br&gt;Percentage identity: 100&lt;br&gt;Percentage coverage: 100&lt;br&gt;BLAST bit score: 175&lt;br&gt;E-value: 3.62e-57" locus_tag="C4J83_RS17255" class="clusterblast-orf" id="dummy-1_h1_4_31"  />
</g>
<g id="a1_0032"  >
<polygon points="692,90 695,90 700,85 695,80 692,80 692,90 " style="fill:#6615d8; stroke-width:1; stroke:black; " description="&lt;b&gt;C4J83_RS17250&lt;/b&gt;&lt;br&gt;DUF2797 domain-containing protein&lt;br&gt;Location: 3701432 - 3700602&lt;br&gt;&lt;br&gt;&lt;b&gt;BlastP hit with ctg9_129&lt;/b&gt;&lt;br&gt;Percentage identity: 95&lt;br&gt;Percentage coverage: 100&lt;br&gt;BLAST bit score: 539&lt;br&gt;E-value: 4.9e-195" locus_tag="C4J83_RS17250" class="clusterblast-orf" id="dummy-1_h1_4_32"  />
</g>
<g id="a1_0033"  >
<polygon points="700,90 723,90 728,85 723,80 700,80 700,90 " style="fill:#d81538; stroke-width:1; stroke:black; " description="&lt;b&gt;C4J83_RS17245&lt;/b&gt;&lt;br&gt;aminopeptidase N&lt;br&gt;Location: 3700588 - 3697931&lt;br&gt;&lt;br&gt;&lt;b&gt;BlastP hit with ctg9_130&lt;/b&gt;&lt;br&gt;Percentage identity: 97&lt;br&gt;Percentage coverage: 100&lt;br&gt;BLAST bit score: 1704&lt;br&gt;E-value: 0.0" locus_tag="C4J83_RS17245" class="clusterblast-orf" id="dummy-1_h1_4_33"  />
</g>
</svg>
