<svg xmlns="http://www.w3.org/2000/svg" xmlns:xlink="http://www.w3.org/1999/xlink" version="1.1" x="0" y="0" height="230" width="800" viewBox="0 0 800 230" preserveAspectRatio="none"  >
<g label="Query sequence" class="clusterblast-cluster"  >
<text x="5" y="20" class="clusterblast-acc"  >
Query sequence</text>
<line x1="10" y1="35" x2="778.0" y2="35" style="stroke-width:1; stroke:grey; "  />
<polygon points="0,40 6,40 11,35 6,30 0,30 0,40 " style="fill:#d81515; stroke-width:1; stroke:black; " description="&lt;b&gt;ctg2_185&lt;/b&gt;&lt;br&gt;ctg2 185&lt;br&gt;Location: 192099 - 192837" locus_tag="ctg2_185" class="clusterblast-orf" id="dummy-2_q0_0_all"  />
<polygon points="14,40 21,40 26,35 21,30 14,30 14,40 " style="fill:#77d815; stroke-width:1; stroke:black; " description="&lt;b&gt;ctg2_186&lt;/b&gt;&lt;br&gt;ctg2 186&lt;br&gt;Location: 193037 - 193850" locus_tag="ctg2_186" class="clusterblast-orf" id="dummy-2_q1_0_all"  />
<polygon points="26,40 30,35 26,30 26,40 " style="fill:#15d8d8; stroke-width:1; stroke:black; " description="&lt;b&gt;ctg2_187&lt;/b&gt;&lt;br&gt;ctg2 187&lt;br&gt;Location: 193853 - 194108" locus_tag="ctg2_187" class="clusterblast-orf" id="dummy-2_q2_0_all"  />
<polygon points="31,40 36,40 41,35 36,30 31,30 31,40 " style="fill:#7715d8; stroke-width:1; stroke:black; " description="&lt;b&gt;ctg2_188&lt;/b&gt;&lt;br&gt;ctg2 188&lt;br&gt;Location: 194204 - 194840" locus_tag="ctg2_188" class="clusterblast-orf" id="dummy-2_q3_0_all"  />
<polygon points="42,40 57,40 62,35 57,30 42,30 42,40 " style="fill:#d83215; stroke-width:1; stroke:black; " description="&lt;b&gt;ctg2_189&lt;/b&gt;&lt;br&gt;ctg2 189&lt;br&gt;Location: 194950 - 196240" locus_tag="ctg2_189" class="clusterblast-orf" id="dummy-2_q4_0_all"  />
<polygon points="65,40 68,35 65,30 65,40 " style="fill:#59d815; stroke-width:1; stroke:black; " description="&lt;b&gt;ctg2_190&lt;/b&gt;&lt;br&gt;ctg2 190&lt;br&gt;Location: 196460 - 196637" locus_tag="ctg2_190" class="clusterblast-orf" id="dummy-2_q5_0_all"  />
<polygon points="69,40 96,40 101,35 96,30 69,30 69,40 " style="fill:#15bbd8; stroke-width:1; stroke:black; " description="&lt;b&gt;ctg2_191&lt;/b&gt;&lt;br&gt;ctg2 191&lt;br&gt;Location: 196709 - 198875" locus_tag="ctg2_191" class="clusterblast-orf" id="dummy-2_q6_0_all"  />
<polygon points="101,40 117,40 122,35 117,30 101,30 101,40 " style="fill:#9415d8; stroke-width:1; stroke:black; " description="&lt;b&gt;ctg2_192&lt;/b&gt;&lt;br&gt;ctg2 192&lt;br&gt;Location: 198892 - 200239" locus_tag="ctg2_192" class="clusterblast-orf" id="dummy-2_q7_0_all"  />
<polygon points="123,35 127,30 127,40 123,35 " style="fill:#d85015; stroke-width:1; stroke:black; " description="&lt;b&gt;ctg2_193&lt;/b&gt;&lt;br&gt;ctg2 193&lt;br&gt;Location: 200355 - 200580" locus_tag="ctg2_193" class="clusterblast-orf" id="dummy-2_q8_0_all"  />
<polygon points="128,35 133,30 149,30 149,40 133,40 128,35 " style="fill:#3cd815; stroke-width:1; stroke:black; " description="&lt;b&gt;ctg2_194&lt;/b&gt;&lt;br&gt;ctg2 194&lt;br&gt;Location: 200663 - 202076" locus_tag="ctg2_194" class="clusterblast-orf" id="dummy-2_q9_0_all"  />
<polygon points="152,35 157,30 164,30 164,40 157,40 152,35 " style="fill:#159ed8; stroke-width:1; stroke:black; " description="&lt;b&gt;ctg2_195&lt;/b&gt;&lt;br&gt;ctg2 195&lt;br&gt;Location: 202272 - 203040" locus_tag="ctg2_195" class="clusterblast-orf" id="dummy-2_q10_0_all"  />
<polygon points="165,35 170,30 185,30 185,40 170,40 165,35 " style="fill:#b115d8; stroke-width:1; stroke:black; " description="&lt;b&gt;ctg2_196&lt;/b&gt;&lt;br&gt;ctg2 196&lt;br&gt;Location: 203164 - 204487" locus_tag="ctg2_196" class="clusterblast-orf" id="dummy-2_q11_0_all"  />
<polygon points="185,35 190,30 196,30 196,40 190,40 185,35 " style="fill:#d86d15; stroke-width:1; stroke:black; " description="&lt;b&gt;ctg2_197&lt;/b&gt;&lt;br&gt;ctg2 197&lt;br&gt;Location: 204483 - 205179" locus_tag="ctg2_197" class="clusterblast-orf" id="dummy-2_q12_0_all"  />
<polygon points="198,40 219,40 224,35 219,30 198,30 198,40 " style="fill:#1fd815; stroke-width:1; stroke:black; " description="&lt;b&gt;ctg2_198&lt;/b&gt;&lt;br&gt;ctg2 198&lt;br&gt;Location: 205355 - 207101" locus_tag="ctg2_198" class="clusterblast-orf" id="dummy-2_q13_0_all"  />
<polygon points="224,40 232,40 237,35 232,30 224,30 224,40 " style="fill:#1580d8; stroke-width:1; stroke:black; " description="&lt;b&gt;ctg2_199&lt;/b&gt;&lt;br&gt;ctg2 199&lt;br&gt;Location: 207100 - 207952" locus_tag="ctg2_199" class="clusterblast-orf" id="dummy-2_q14_0_all"  />
<polygon points="237,40 243,40 248,35 243,30 237,30 237,40 " style="fill:#ce15d8; stroke-width:1; stroke:black; " description="&lt;b&gt;ctg2_200&lt;/b&gt;&lt;br&gt;ctg2 200&lt;br&gt;Location: 207927 - 208689" locus_tag="ctg2_200" class="clusterblast-orf" id="dummy-2_q15_0_all"  />
<polygon points="251,35 256,30 267,30 267,40 256,40 251,35 " style="fill:#d88a15; stroke-width:1; stroke:black; " description="&lt;b&gt;ctg2_201&lt;/b&gt;&lt;br&gt;ctg2 201&lt;br&gt;Location: 208890 - 209955" locus_tag="ctg2_201" class="clusterblast-orf" id="dummy-2_q16_0_all"  />
<polygon points="268,35 273,30 277,30 277,40 273,40 268,35 " style="fill:#15d829; stroke-width:1; stroke:black; " description="&lt;b&gt;ctg2_202&lt;/b&gt;&lt;br&gt;ctg2 202&lt;br&gt;Location: 209995 - 210631" locus_tag="ctg2_202" class="clusterblast-orf" id="dummy-2_q17_0_all"  />
<polygon points="293,35 298,30 486,30 486,40 298,40 293,35 " style="fill:#1563d8; stroke-width:1; stroke:black; " description="&lt;b&gt;ctg2_203&lt;/b&gt;&lt;br&gt;ctg2 203&lt;br&gt;Location: 211650 - 224547" locus_tag="ctg2_203" class="clusterblast-orf" id="dummy-2_q18_0_all"  />
<polygon points="487,35 492,30 498,30 498,40 492,40 487,35 " style="fill:#d815c5; stroke-width:1; stroke:black; " description="&lt;b&gt;ctg2_204&lt;/b&gt;&lt;br&gt;ctg2 204&lt;br&gt;Location: 224597 - 225350" locus_tag="ctg2_204" class="clusterblast-orf" id="dummy-2_q19_0_all"  />
<polygon points="502,40 506,40 511,35 506,30 502,30 502,40 " style="fill:#d8a715; stroke-width:1; stroke:black; " description="&lt;b&gt;ctg2_205&lt;/b&gt;&lt;br&gt;ctg2 205&lt;br&gt;Location: 225650 - 226202" locus_tag="ctg2_205" class="clusterblast-orf" id="dummy-2_q20_0_all"  />
<polygon points="511,35 516,30 523,30 523,40 516,40 511,35 " style="fill:#15d846; stroke-width:1; stroke:black; " description="&lt;b&gt;ctg2_206&lt;/b&gt;&lt;br&gt;ctg2 206&lt;br&gt;Location: 226240 - 227029" locus_tag="ctg2_206" class="clusterblast-orf" id="dummy-2_q21_0_all"  />
<polygon points="525,35 530,30 534,30 534,40 530,40 525,35 " style="fill:#1546d8; stroke-width:1; stroke:black; " description="&lt;b&gt;ctg2_207&lt;/b&gt;&lt;br&gt;ctg2 207&lt;br&gt;Location: 227122 - 227746" locus_tag="ctg2_207" class="clusterblast-orf" id="dummy-2_q22_0_all"  />
<polygon points="536,40 558,40 563,35 558,30 536,30 536,40 " style="fill:#d815a7; stroke-width:1; stroke:black; " description="&lt;b&gt;ctg2_208&lt;/b&gt;&lt;br&gt;ctg2 208&lt;br&gt;Location: 227899 - 229678" locus_tag="ctg2_208" class="clusterblast-orf" id="dummy-2_q23_0_all"  />
<polygon points="563,40 571,40 576,35 571,30 563,30 563,40 " style="fill:#d8c515; stroke-width:1; stroke:black; " description="&lt;b&gt;ctg2_209&lt;/b&gt;&lt;br&gt;ctg2 209&lt;br&gt;Location: 229690 - 230563" locus_tag="ctg2_209" class="clusterblast-orf" id="dummy-2_q24_0_all"  />
<polygon points="576,40 595,40 600,35 595,30 576,30 576,40 " style="fill:#15d863; stroke-width:1; stroke:black; " description="&lt;b&gt;ctg2_210&lt;/b&gt;&lt;br&gt;ctg2 210&lt;br&gt;Location: 230566 - 232183" locus_tag="ctg2_210" class="clusterblast-orf" id="dummy-2_q25_0_all"  />
<polygon points="601,40 613,40 618,35 613,30 601,30 601,40 " style="fill:#1529d8; stroke-width:1; stroke:black; " description="&lt;b&gt;ctg2_211&lt;/b&gt;&lt;br&gt;ctg2 211&lt;br&gt;Location: 232199 - 233357" locus_tag="ctg2_211" class="clusterblast-orf" id="dummy-2_q26_0_all"  />
<polygon points="618,40 624,40 629,35 624,30 618,30 618,40 " style="fill:#d8158a; stroke-width:1; stroke:black; " description="&lt;b&gt;ctg2_212&lt;/b&gt;&lt;br&gt;ctg2 212&lt;br&gt;Location: 233353 - 234121" locus_tag="ctg2_212" class="clusterblast-orf" id="dummy-2_q27_0_all"  />
<polygon points="631,40 655,40 660,35 655,30 631,30 631,40 " style="fill:#ced815; stroke-width:1; stroke:black; " description="&lt;b&gt;ctg2_213&lt;/b&gt;&lt;br&gt;ctg2 213&lt;br&gt;Location: 234232 - 236155" locus_tag="ctg2_213" class="clusterblast-orf" id="dummy-2_q28_0_all"  />
<polygon points="661,40 664,40 669,35 664,30 661,30 661,40 " style="fill:#15d880; stroke-width:1; stroke:black; " description="&lt;b&gt;ctg2_214&lt;/b&gt;&lt;br&gt;ctg2 214&lt;br&gt;Location: 236246 - 236789" locus_tag="ctg2_214" class="clusterblast-orf" id="dummy-2_q29_0_all"  />
<polygon points="670,40 670,40 675,35 670,30 670,30 670,40 " style="fill:#1f15d8; stroke-width:1; stroke:black; " description="&lt;b&gt;ctg2_215&lt;/b&gt;&lt;br&gt;ctg2 215&lt;br&gt;Location: 236854 - 237139" locus_tag="ctg2_215" class="clusterblast-orf" id="dummy-2_q30_0_all"  />
<polygon points="676,35 681,30 688,30 688,40 681,40 676,35 " style="fill:#d8156d; stroke-width:1; stroke:black; " description="&lt;b&gt;ctg2_216&lt;/b&gt;&lt;br&gt;ctg2 216&lt;br&gt;Location: 237203 - 238010" locus_tag="ctg2_216" class="clusterblast-orf" id="dummy-2_q31_0_all"  />
<polygon points="688,35 693,30 702,30 702,40 693,40 688,35 " style="fill:#b1d815; stroke-width:1; stroke:black; " description="&lt;b&gt;ctg2_217&lt;/b&gt;&lt;br&gt;ctg2 217&lt;br&gt;Location: 238048 - 238984" locus_tag="ctg2_217" class="clusterblast-orf" id="dummy-2_q32_0_all"  />
<polygon points="710,40 712,40 717,35 712,30 710,30 710,40 " style="fill:#15d89e; stroke-width:1; stroke:black; " description="&lt;b&gt;ctg2_218&lt;/b&gt;&lt;br&gt;ctg2 218&lt;br&gt;Location: 239517 - 239967" locus_tag="ctg2_218" class="clusterblast-orf" id="dummy-2_q33_0_all"  />
<polygon points="723,40 731,40 736,35 731,30 723,30 723,40 " style="fill:#3c15d8; stroke-width:1; stroke:black; " description="&lt;b&gt;ctg2_219&lt;/b&gt;&lt;br&gt;ctg2 219&lt;br&gt;Location: 240350 - 241244" locus_tag="ctg2_219" class="clusterblast-orf" id="dummy-2_q34_0_all"  />
<polygon points="736,40 741,40 746,35 741,30 736,30 736,40 " style="fill:#d81550; stroke-width:1; stroke:black; " description="&lt;b&gt;ctg2_220&lt;/b&gt;&lt;br&gt;ctg2 220&lt;br&gt;Location: 241240 - 241900" locus_tag="ctg2_220" class="clusterblast-orf" id="dummy-2_q35_0_all"  />
<polygon points="745,35 750,30 759,30 759,40 750,40 745,35 " style="fill:#94d815; stroke-width:1; stroke:black; " description="&lt;b&gt;ctg2_221&lt;/b&gt;&lt;br&gt;ctg2 221&lt;br&gt;Location: 241858 - 242779" locus_tag="ctg2_221" class="clusterblast-orf" id="dummy-2_q36_0_all"  />
<polygon points="760,35 765,30 769,30 769,40 765,40 760,35 " style="fill:#15d8bb; stroke-width:1; stroke:black; " description="&lt;b&gt;ctg2_222&lt;/b&gt;&lt;br&gt;ctg2 222&lt;br&gt;Location: 242869 - 243415" locus_tag="ctg2_222" class="clusterblast-orf" id="dummy-2_q37_0_all"  />
<polygon points="769,35 774,30 774,30 774,40 774,40 769,35 " style="fill:#5915d8; stroke-width:1; stroke:black; " description="&lt;b&gt;ctg2_223&lt;/b&gt;&lt;br&gt;ctg2 223&lt;br&gt;Location: 243446 - 243773" locus_tag="ctg2_223" class="clusterblast-orf" id="dummy-2_q38_0_all"  />
<polygon points="774,35 779,30 780,30 780,40 779,40 774,35 " style="fill:#d81532; stroke-width:1; stroke:black; " description="&lt;b&gt;ctg2_224&lt;/b&gt;&lt;br&gt;ctg2 224&lt;br&gt;Location: 243796 - 244147" locus_tag="ctg2_224" class="clusterblast-orf" id="dummy-2_q39_0_all"  />
</g>
<g label="NZ_LT907842" description="NZ_LT907842 (208134-259890): Pseudomonas fluorescens strain ATCC 13525 chromo... (97% of genes show similarity), NRPS" class="clusterblast-cluster"  >
<text x="5" y="70" class="clusterblast-acc"  >
<a xlink:href="https://antismash-db.secondarymetabolites.org/area.html?record=NZ_LT907842&amp;start=208134&amp;end=259890" target="_blank">NZ_LT907842 (208134-259890)</a>: Pseudomonas fluorescens strain ATCC 13525 chromo... (97% of genes show similarity), NRPS</text>
<line x1="10" y1="85" x2="778.0" y2="85" style="stroke-width:1; stroke:grey; "  />
</g>
<g id="a2_000"  >
<polygon points="2,90 8,90 13,85 8,80 2,80 2,90 " style="fill:#d81515; stroke-width:1; stroke:black; " description="&lt;b&gt;CPH89_RS01010&lt;/b&gt;&lt;br&gt;septum site-determining protein MinC&lt;br&gt;Location: 208135 - 208872&lt;br&gt;&lt;br&gt;&lt;b&gt;BlastP hit with ctg2_185&lt;/b&gt;&lt;br&gt;Percentage identity: 100&lt;br&gt;Percentage coverage: 100&lt;br&gt;BLAST bit score: 474&lt;br&gt;E-value: 2.6e-170" locus_tag="CPH89_RS01010" class="clusterblast-orf" id="dummy-2_h2_3_0"  />
</g>
<g id="a2_001"  >
<polygon points="16,90 23,90 28,85 23,80 16,80 16,90 " style="fill:#77d815; stroke-width:1; stroke:black; " description="&lt;b&gt;CPH89_RS01015&lt;/b&gt;&lt;br&gt;septum site-determining protein MinD&lt;br&gt;Location: 209073 - 209885&lt;br&gt;&lt;br&gt;&lt;b&gt;BlastP hit with ctg2_186&lt;/b&gt;&lt;br&gt;Percentage identity: 99&lt;br&gt;Percentage coverage: 100&lt;br&gt;BLAST bit score: 516&lt;br&gt;E-value: 3.04e-186" locus_tag="CPH89_RS01015" class="clusterblast-orf" id="dummy-2_h2_3_1"  />
</g>
<g id="a2_002"  >
<polygon points="28,90 32,85 28,80 28,90 " style="fill:#15d8d8; stroke-width:1; stroke:black; " description="&lt;b&gt;CPH89_RS01020&lt;/b&gt;&lt;br&gt;cell division topological specificity factor MinE&lt;br&gt;Location: 209889 - 210143&lt;br&gt;&lt;br&gt;&lt;b&gt;BlastP hit with ctg2_187&lt;/b&gt;&lt;br&gt;Percentage identity: 100&lt;br&gt;Percentage coverage: 100&lt;br&gt;BLAST bit score: 169&lt;br&gt;E-value: 6.09e-55" locus_tag="CPH89_RS01020" class="clusterblast-orf" id="dummy-2_h2_3_2"  />
</g>
<g id="a2_003"  >
<polygon points="33,90 38,90 43,85 38,80 33,80 33,90 " style="fill:#7715d8; stroke-width:1; stroke:black; " description="&lt;b&gt;CPH89_RS01025&lt;/b&gt;&lt;br&gt;RluA family pseudouridine synthase&lt;br&gt;Location: 210240 - 210875&lt;br&gt;&lt;br&gt;&lt;b&gt;BlastP hit with ctg2_188&lt;/b&gt;&lt;br&gt;Percentage identity: 100&lt;br&gt;Percentage coverage: 100&lt;br&gt;BLAST bit score: 449&lt;br&gt;E-value: 1.54e-161" locus_tag="CPH89_RS01025" class="clusterblast-orf" id="dummy-2_h2_3_3"  />
</g>
<g id="a2_004"  >
<polygon points="45,90 60,90 65,85 60,80 45,80 45,90 " style="fill:#d83215; stroke-width:1; stroke:black; " description="&lt;b&gt;CPH89_RS01030&lt;/b&gt;&lt;br&gt;M18 family aminopeptidase&lt;br&gt;Location: 211047 - 212336&lt;br&gt;&lt;br&gt;&lt;b&gt;BlastP hit with ctg2_189&lt;/b&gt;&lt;br&gt;Percentage identity: 100&lt;br&gt;Percentage coverage: 100&lt;br&gt;BLAST bit score: 870&lt;br&gt;E-value: 0.0" locus_tag="CPH89_RS01030" class="clusterblast-orf" id="dummy-2_h2_3_4"  />
</g>
<g id="a2_005"  >
<polygon points="68,90 71,85 68,80 68,90 " style="fill:#59d815; stroke-width:1; stroke:black; " description="&lt;b&gt;CPH89_RS30330&lt;/b&gt;&lt;br&gt;hypothetical protein&lt;br&gt;Location: 212566 - 212733&lt;br&gt;&lt;br&gt;&lt;b&gt;BlastP hit with ctg2_190&lt;/b&gt;&lt;br&gt;Percentage identity: 100&lt;br&gt;Percentage coverage: 95&lt;br&gt;BLAST bit score: 104&lt;br&gt;E-value: 5.72e-30" locus_tag="CPH89_RS30330" class="clusterblast-orf" id="dummy-2_h2_3_5"  />
</g>
<g id="a2_006"  >
<polygon points="72,90 99,90 104,85 99,80 72,80 72,90 " style="fill:#15bbd8; stroke-width:1; stroke:black; " description="&lt;b&gt;CPH89_RS01035&lt;/b&gt;&lt;br&gt;mechanosensitive ion channel family protein&lt;br&gt;Location: 212806 - 214971&lt;br&gt;&lt;br&gt;&lt;b&gt;BlastP hit with ctg2_191&lt;/b&gt;&lt;br&gt;Percentage identity: 99&lt;br&gt;Percentage coverage: 100&lt;br&gt;BLAST bit score: 1362&lt;br&gt;E-value: 0.0" locus_tag="CPH89_RS01035" class="clusterblast-orf" id="dummy-2_h2_3_6"  />
</g>
<g id="a2_007"  >
<polygon points="104,90 120,90 125,85 120,80 104,80 104,90 " style="fill:#9415d8; stroke-width:1; stroke:black; " description="&lt;b&gt;CPH89_RS01040&lt;/b&gt;&lt;br&gt;amidohydrolase&lt;br&gt;Location: 214989 - 216335&lt;br&gt;&lt;br&gt;&lt;b&gt;BlastP hit with ctg2_192&lt;/b&gt;&lt;br&gt;Percentage identity: 98&lt;br&gt;Percentage coverage: 100&lt;br&gt;BLAST bit score: 860&lt;br&gt;E-value: 2.44e-316" locus_tag="CPH89_RS01040" class="clusterblast-orf" id="dummy-2_h2_3_7"  />
</g>
<g id="a2_008"  >
<polygon points="126,85 130,80 130,90 126,85 " style="fill:#d85015; stroke-width:1; stroke:black; " description="&lt;b&gt;CPH89_RS01045&lt;/b&gt;&lt;br&gt;MbtH family protein&lt;br&gt;Location: 216454 - 216678&lt;br&gt;&lt;br&gt;&lt;b&gt;BlastP hit with ctg2_193&lt;/b&gt;&lt;br&gt;Percentage identity: 97&lt;br&gt;Percentage coverage: 99&lt;br&gt;BLAST bit score: 151&lt;br&gt;E-value: 3.13e-48" locus_tag="CPH89_RS01045" class="clusterblast-orf" id="dummy-2_h2_3_8"  />
</g>
<g id="a2_009"  >
<polygon points="131,85 136,80 152,80 152,90 136,90 131,85 " style="fill:#3cd815; stroke-width:1; stroke:black; " description="&lt;b&gt;CPH89_RS01050&lt;/b&gt;&lt;br&gt;aspartate aminotransferase family protein&lt;br&gt;Location: 216762 - 218174&lt;br&gt;&lt;br&gt;&lt;b&gt;BlastP hit with ctg2_194&lt;/b&gt;&lt;br&gt;Percentage identity: 98&lt;br&gt;Percentage coverage: 100&lt;br&gt;BLAST bit score: 917&lt;br&gt;E-value: 0.0" locus_tag="CPH89_RS01050" class="clusterblast-orf" id="dummy-2_h2_3_9"  />
</g>
<g id="a2_0010"  >
<polygon points="155,85 160,80 167,80 167,90 160,90 155,85 " style="fill:#159ed8; stroke-width:1; stroke:black; " description="&lt;b&gt;CPH89_RS01055&lt;/b&gt;&lt;br&gt;N-acetylmuramoyl-L-alanine amidase&lt;br&gt;Location: 218370 - 219137&lt;br&gt;&lt;br&gt;&lt;b&gt;BlastP hit with ctg2_195&lt;/b&gt;&lt;br&gt;Percentage identity: 91&lt;br&gt;Percentage coverage: 100&lt;br&gt;BLAST bit score: 487&lt;br&gt;E-value: 2.59e-175" locus_tag="CPH89_RS01055" class="clusterblast-orf" id="dummy-2_h2_3_10"  />
</g>
<g id="a2_0011"  >
<polygon points="168,85 173,80 188,80 188,90 173,90 168,85 " style="fill:#b115d8; stroke-width:1; stroke:black; " description="&lt;b&gt;CPH89_RS01060&lt;/b&gt;&lt;br&gt;two-component sensor histidine kinase&lt;br&gt;Location: 219264 - 220583&lt;br&gt;&lt;br&gt;&lt;b&gt;BlastP hit with ctg2_196&lt;/b&gt;&lt;br&gt;Percentage identity: 98&lt;br&gt;Percentage coverage: 100&lt;br&gt;BLAST bit score: 825&lt;br&gt;E-value: 1.32e-302" locus_tag="CPH89_RS01060" class="clusterblast-orf" id="dummy-2_h2_3_11"  />
</g>
<g id="a2_0012"  >
<polygon points="188,85 193,80 199,80 199,90 193,90 188,85 " style="fill:#d86d15; stroke-width:1; stroke:black; " description="&lt;b&gt;CPH89_RS01065&lt;/b&gt;&lt;br&gt;response regulator transcription factor&lt;br&gt;Location: 220583 - 221278&lt;br&gt;&lt;br&gt;&lt;b&gt;BlastP hit with ctg2_197&lt;/b&gt;&lt;br&gt;Percentage identity: 99&lt;br&gt;Percentage coverage: 100&lt;br&gt;BLAST bit score: 437&lt;br&gt;E-value: 1.89e-156" locus_tag="CPH89_RS01065" class="clusterblast-orf" id="dummy-2_h2_3_12"  />
</g>
<g id="a2_0013"  >
<polygon points="201,90 222,90 227,85 222,80 201,80 201,90 " style="fill:#1fd815; stroke-width:1; stroke:black; " description="&lt;b&gt;CPH89_RS01070&lt;/b&gt;&lt;br&gt;protein-disulfide reductase DsbD&lt;br&gt;Location: 221455 - 223194&lt;br&gt;&lt;br&gt;&lt;b&gt;BlastP hit with ctg2_198&lt;/b&gt;&lt;br&gt;Percentage identity: 95&lt;br&gt;Percentage coverage: 100&lt;br&gt;BLAST bit score: 1072&lt;br&gt;E-value: 0.0" locus_tag="CPH89_RS01070" class="clusterblast-orf" id="dummy-2_h2_3_13"  />
</g>
<g id="a2_0014"  >
<polygon points="227,90 235,90 240,85 235,80 227,80 227,90 " style="fill:#1580d8; stroke-width:1; stroke:black; " description="&lt;b&gt;CPH89_RS01075&lt;/b&gt;&lt;br&gt;TlpA family protein disulfide reductase&lt;br&gt;Location: 223194 - 224045&lt;br&gt;&lt;br&gt;&lt;b&gt;BlastP hit with ctg2_199&lt;/b&gt;&lt;br&gt;Percentage identity: 99&lt;br&gt;Percentage coverage: 100&lt;br&gt;BLAST bit score: 555&lt;br&gt;E-value: 3.33e-201" locus_tag="CPH89_RS01075" class="clusterblast-orf" id="dummy-2_h2_3_14"  />
</g>
<g id="a2_0015"  >
<polygon points="240,90 246,90 251,85 246,80 240,80 240,90 " style="fill:#ce15d8; stroke-width:1; stroke:black; " description="&lt;b&gt;CPH89_RS01080&lt;/b&gt;&lt;br&gt;thiol:disulfide interchange protein DsbG&lt;br&gt;Location: 224021 - 224782&lt;br&gt;&lt;br&gt;&lt;b&gt;BlastP hit with ctg2_200&lt;/b&gt;&lt;br&gt;Percentage identity: 98&lt;br&gt;Percentage coverage: 100&lt;br&gt;BLAST bit score: 499&lt;br&gt;E-value: 2.94e-180" locus_tag="CPH89_RS01080" class="clusterblast-orf" id="dummy-2_h2_3_15"  />
</g>
<g id="a2_0016"  >
<polygon points="254,85 259,80 270,80 270,90 259,90 254,85 " style="fill:#d88a15; stroke-width:1; stroke:black; " description="&lt;b&gt;CPH89_RS01085&lt;/b&gt;&lt;br&gt;chitinase&lt;br&gt;Location: 224983 - 226047&lt;br&gt;&lt;br&gt;&lt;b&gt;BlastP hit with ctg2_201&lt;/b&gt;&lt;br&gt;Percentage identity: 100&lt;br&gt;Percentage coverage: 100&lt;br&gt;BLAST bit score: 728&lt;br&gt;E-value: 4.23e-267" locus_tag="CPH89_RS01085" class="clusterblast-orf" id="dummy-2_h2_3_16"  />
</g>
<g id="a2_0017"  >
<polygon points="271,85 276,80 280,80 280,90 276,90 271,85 " style="fill:#15d829; stroke-width:1; stroke:black; " description="&lt;b&gt;CPH89_RS01090&lt;/b&gt;&lt;br&gt;lytic polysaccharide monooxygenase&lt;br&gt;Location: 226088 - 226723&lt;br&gt;&lt;br&gt;&lt;b&gt;BlastP hit with ctg2_202&lt;/b&gt;&lt;br&gt;Percentage identity: 98&lt;br&gt;Percentage coverage: 100&lt;br&gt;BLAST bit score: 439&lt;br&gt;E-value: 1.42e-157" locus_tag="CPH89_RS01090" class="clusterblast-orf" id="dummy-2_h2_3_17"  />
</g>
<g id="a2_0018"  >
<polygon points="288,90 290,85 288,80 288,90 " style="fill:white; stroke-width:1; stroke:black; " description="&lt;b&gt;CPH89_RS30335&lt;/b&gt;&lt;br&gt;IS5/IS1182 family transposase&lt;br&gt;Location: 227220 - 227399" locus_tag="CPH89_RS30335" class="clusterblast-orf" id="dummy-2_h2_3_18"  />
</g>
<g id="a2_0019"  >
<polygon points="292,85 297,80 485,80 485,90 297,90 292,85 " style="fill:#1563d8; stroke-width:1; stroke:black; " description="&lt;b&gt;CPH89_RS01100&lt;/b&gt;&lt;br&gt;non-ribosomal peptide synthetase&lt;br&gt;Location: 227478 - 240374&lt;br&gt;&lt;br&gt;&lt;b&gt;BlastP hit with ctg2_203&lt;/b&gt;&lt;br&gt;Percentage identity: 96&lt;br&gt;Percentage coverage: 100&lt;br&gt;BLAST bit score: 8209&lt;br&gt;E-value: 0.0" locus_tag="CPH89_RS01100" class="clusterblast-orf" id="dummy-2_h2_3_19"  />
</g>
<g id="a2_0020"  >
<polygon points="486,85 491,80 497,80 497,90 491,90 486,85 " style="fill:#d815c5; stroke-width:1; stroke:black; " description="&lt;b&gt;CPH89_RS01105&lt;/b&gt;&lt;br&gt;thioesterase&lt;br&gt;Location: 240425 - 241177&lt;br&gt;&lt;br&gt;&lt;b&gt;BlastP hit with ctg2_204&lt;/b&gt;&lt;br&gt;Percentage identity: 94&lt;br&gt;Percentage coverage: 100&lt;br&gt;BLAST bit score: 471&lt;br&gt;E-value: 3.13e-169" locus_tag="CPH89_RS01105" class="clusterblast-orf" id="dummy-2_h2_3_20"  />
</g>
<g id="a2_0021"  >
<polygon points="501,90 505,90 510,85 505,80 501,80 501,90 " style="fill:#d8a715; stroke-width:1; stroke:black; " description="&lt;b&gt;CPH89_RS01110&lt;/b&gt;&lt;br&gt;RNA polymerase factor sigma-70&lt;br&gt;Location: 241476 - 242027&lt;br&gt;&lt;br&gt;&lt;b&gt;BlastP hit with ctg2_205&lt;/b&gt;&lt;br&gt;Percentage identity: 98&lt;br&gt;Percentage coverage: 100&lt;br&gt;BLAST bit score: 358&lt;br&gt;E-value: 8.71e-127" locus_tag="CPH89_RS01110" class="clusterblast-orf" id="dummy-2_h2_3_21"  />
</g>
<g id="a2_0022"  >
<polygon points="510,85 515,80 522,80 522,90 515,90 510,85 " style="fill:#15d846; stroke-width:1; stroke:black; " description="&lt;b&gt;CPH89_RS01115&lt;/b&gt;&lt;br&gt;transporter substrate-binding domain-containing protein&lt;br&gt;Location: 242066 - 242854&lt;br&gt;&lt;br&gt;&lt;b&gt;BlastP hit with ctg2_206&lt;/b&gt;&lt;br&gt;Percentage identity: 99&lt;br&gt;Percentage coverage: 100&lt;br&gt;BLAST bit score: 529&lt;br&gt;E-value: 1.07e-191" locus_tag="CPH89_RS01115" class="clusterblast-orf" id="dummy-2_h2_3_22"  />
</g>
<g id="a2_0023"  >
<polygon points="523,85 528,80 533,80 533,90 528,90 523,85 " style="fill:#1546d8; stroke-width:1; stroke:black; " description="&lt;b&gt;CPH89_RS01120&lt;/b&gt;&lt;br&gt;TetR family transcriptional regulator&lt;br&gt;Location: 242948 - 243571&lt;br&gt;&lt;br&gt;&lt;b&gt;BlastP hit with ctg2_207&lt;/b&gt;&lt;br&gt;Percentage identity: 99&lt;br&gt;Percentage coverage: 100&lt;br&gt;BLAST bit score: 397&lt;br&gt;E-value: 2.16e-141" locus_tag="CPH89_RS01120" class="clusterblast-orf" id="dummy-2_h2_3_23"  />
</g>
<g id="a2_0024"  >
<polygon points="535,90 557,90 562,85 557,80 535,80 535,90 " style="fill:#d815a7; stroke-width:1; stroke:black; " description="&lt;b&gt;CPH89_RS01125&lt;/b&gt;&lt;br&gt;DUF1446 domain-containing protein&lt;br&gt;Location: 243725 - 245503&lt;br&gt;&lt;br&gt;&lt;b&gt;BlastP hit with ctg2_208&lt;/b&gt;&lt;br&gt;Percentage identity: 98&lt;br&gt;Percentage coverage: 100&lt;br&gt;BLAST bit score: 1170&lt;br&gt;E-value: 0.0" locus_tag="CPH89_RS01125" class="clusterblast-orf" id="dummy-2_h2_3_24"  />
</g>
<g id="a2_0025"  >
<polygon points="562,90 570,90 575,85 570,80 562,80 562,90 " style="fill:#d8c515; stroke-width:1; stroke:black; " description="&lt;b&gt;CPH89_RS01130&lt;/b&gt;&lt;br&gt;SDR family oxidoreductase&lt;br&gt;Location: 245516 - 246388&lt;br&gt;&lt;br&gt;&lt;b&gt;BlastP hit with ctg2_209&lt;/b&gt;&lt;br&gt;Percentage identity: 98&lt;br&gt;Percentage coverage: 100&lt;br&gt;BLAST bit score: 568&lt;br&gt;E-value: 3.76e-206" locus_tag="CPH89_RS01130" class="clusterblast-orf" id="dummy-2_h2_3_25"  />
</g>
<g id="a2_0026"  >
<polygon points="575,90 594,90 599,85 594,80 575,80 575,90 " style="fill:#15d863; stroke-width:1; stroke:black; " description="&lt;b&gt;CPH89_RS01135&lt;/b&gt;&lt;br&gt;acyl-CoA carboxylase subunit beta&lt;br&gt;Location: 246392 - 248008&lt;br&gt;&lt;br&gt;&lt;b&gt;BlastP hit with ctg2_210&lt;/b&gt;&lt;br&gt;Percentage identity: 98&lt;br&gt;Percentage coverage: 100&lt;br&gt;BLAST bit score: 1042&lt;br&gt;E-value: 0.0" locus_tag="CPH89_RS01135" class="clusterblast-orf" id="dummy-2_h2_3_26"  />
</g>
<g id="a2_0027"  >
<polygon points="599,90 612,90 617,85 612,80 599,80 599,90 " style="fill:#1529d8; stroke-width:1; stroke:black; " description="&lt;b&gt;CPH89_RS01140&lt;/b&gt;&lt;br&gt;acyl-CoA dehydrogenase family protein&lt;br&gt;Location: 248025 - 249182&lt;br&gt;&lt;br&gt;&lt;b&gt;BlastP hit with ctg2_211&lt;/b&gt;&lt;br&gt;Percentage identity: 99&lt;br&gt;Percentage coverage: 100&lt;br&gt;BLAST bit score: 773&lt;br&gt;E-value: 3.47e-284" locus_tag="CPH89_RS01140" class="clusterblast-orf" id="dummy-2_h2_3_27"  />
</g>
<g id="a2_0028"  >
<polygon points="617,90 623,90 628,85 623,80 617,80 617,90 " style="fill:#d8158a; stroke-width:1; stroke:black; " description="&lt;b&gt;CPH89_RS01145&lt;/b&gt;&lt;br&gt;enoyl-CoA hydratase/isomerase family protein&lt;br&gt;Location: 249179 - 249946&lt;br&gt;&lt;br&gt;&lt;b&gt;BlastP hit with ctg2_212&lt;/b&gt;&lt;br&gt;Percentage identity: 97&lt;br&gt;Percentage coverage: 100&lt;br&gt;BLAST bit score: 482&lt;br&gt;E-value: 3.53e-173" locus_tag="CPH89_RS01145" class="clusterblast-orf" id="dummy-2_h2_3_28"  />
</g>
<g id="a2_0029"  >
<polygon points="630,90 654,90 659,85 654,80 630,80 630,90 " style="fill:#ced815; stroke-width:1; stroke:black; " description="&lt;b&gt;CPH89_RS01150&lt;/b&gt;&lt;br&gt;acetyl/propionyl/methylcrotonyl-CoA carboxylase subunit alpha&lt;br&gt;Location: 250056 - 251978&lt;br&gt;&lt;br&gt;&lt;b&gt;BlastP hit with ctg2_213&lt;/b&gt;&lt;br&gt;Percentage identity: 95&lt;br&gt;Percentage coverage: 100&lt;br&gt;BLAST bit score: 1207&lt;br&gt;E-value: 0.0" locus_tag="CPH89_RS01150" class="clusterblast-orf" id="dummy-2_h2_3_29"  />
</g>
<g id="a2_0030"  >
<polygon points="660,90 663,90 668,85 663,80 660,80 660,90 " style="fill:#15d880; stroke-width:1; stroke:black; " description="&lt;b&gt;CPH89_RS01155&lt;/b&gt;&lt;br&gt;3'-5' exoribonuclease&lt;br&gt;Location: 252070 - 252612&lt;br&gt;&lt;br&gt;&lt;b&gt;BlastP hit with ctg2_214&lt;/b&gt;&lt;br&gt;Percentage identity: 99&lt;br&gt;Percentage coverage: 100&lt;br&gt;BLAST bit score: 374&lt;br&gt;E-value: 5.5e-133" locus_tag="CPH89_RS01155" class="clusterblast-orf" id="dummy-2_h2_3_30"  />
</g>
<g id="a2_0031"  >
<polygon points="669,90 673,85 669,80 669,90 " style="fill:#1f15d8; stroke-width:1; stroke:black; " description="&lt;b&gt;CPH89_RS01160&lt;/b&gt;&lt;br&gt;pyrimidine/purine nucleoside phosphorylase&lt;br&gt;Location: 252678 - 252962&lt;br&gt;&lt;br&gt;&lt;b&gt;BlastP hit with ctg2_215&lt;/b&gt;&lt;br&gt;Percentage identity: 99&lt;br&gt;Percentage coverage: 100&lt;br&gt;BLAST bit score: 191&lt;br&gt;E-value: 2.51e-63" locus_tag="CPH89_RS01160" class="clusterblast-orf" id="dummy-2_h2_3_31"  />
</g>
<g id="a2_0032"  >
<polygon points="674,85 679,80 687,80 687,90 679,90 674,85 " style="fill:#d8156d; stroke-width:1; stroke:black; " description="&lt;b&gt;CPH89_RS01165&lt;/b&gt;&lt;br&gt;MOSC domain-containing protein&lt;br&gt;Location: 253027 - 253833&lt;br&gt;&lt;br&gt;&lt;b&gt;BlastP hit with ctg2_216&lt;/b&gt;&lt;br&gt;Percentage identity: 97&lt;br&gt;Percentage coverage: 100&lt;br&gt;BLAST bit score: 518&lt;br&gt;E-value: 6.39e-187" locus_tag="CPH89_RS01165" class="clusterblast-orf" id="dummy-2_h2_3_32"  />
</g>
<g id="a2_0033"  >
<polygon points="687,85 692,80 701,80 701,90 692,90 687,85 " style="fill:#b1d815; stroke-width:1; stroke:black; " description="&lt;b&gt;CPH89_RS01170&lt;/b&gt;&lt;br&gt;chemotaxis protein CheV&lt;br&gt;Location: 253871 - 254806&lt;br&gt;&lt;br&gt;&lt;b&gt;BlastP hit with ctg2_217&lt;/b&gt;&lt;br&gt;Percentage identity: 99&lt;br&gt;Percentage coverage: 100&lt;br&gt;BLAST bit score: 597&lt;br&gt;E-value: 7.07e-217" locus_tag="CPH89_RS01170" class="clusterblast-orf" id="dummy-2_h2_3_33"  />
</g>
<g id="a2_0034"  >
<polygon points="709,90 711,90 716,85 711,80 709,80 709,90 " style="fill:#15d89e; stroke-width:1; stroke:black; " description="&lt;b&gt;CPH89_RS01175&lt;/b&gt;&lt;br&gt;hypothetical protein&lt;br&gt;Location: 255340 - 255789&lt;br&gt;&lt;br&gt;&lt;b&gt;BlastP hit with ctg2_218&lt;/b&gt;&lt;br&gt;Percentage identity: 96&lt;br&gt;Percentage coverage: 100&lt;br&gt;BLAST bit score: 285&lt;br&gt;E-value: 8.91e-99" locus_tag="CPH89_RS01175" class="clusterblast-orf" id="dummy-2_h2_3_34"  />
</g>
<g id="a2_0035"  >
<polygon points="722,90 730,90 735,85 730,80 722,80 722,90 " style="fill:#3c15d8; stroke-width:1; stroke:black; " description="&lt;b&gt;CPH89_RS01180&lt;/b&gt;&lt;br&gt;sensor histidine kinase&lt;br&gt;Location: 256173 - 257066&lt;br&gt;&lt;br&gt;&lt;b&gt;BlastP hit with ctg2_219&lt;/b&gt;&lt;br&gt;Percentage identity: 95&lt;br&gt;Percentage coverage: 100&lt;br&gt;BLAST bit score: 542&lt;br&gt;E-value: 1.5e-195" locus_tag="CPH89_RS01180" class="clusterblast-orf" id="dummy-2_h2_3_35"  />
</g>
<g id="a2_0036"  >
<polygon points="735,90 740,90 745,85 740,80 735,80 735,90 " style="fill:#d81550; stroke-width:1; stroke:black; " description="&lt;b&gt;CPH89_RS01185&lt;/b&gt;&lt;br&gt;response regulator transcription factor&lt;br&gt;Location: 257063 - 257722&lt;br&gt;&lt;br&gt;&lt;b&gt;BlastP hit with ctg2_220&lt;/b&gt;&lt;br&gt;Percentage identity: 98&lt;br&gt;Percentage coverage: 100&lt;br&gt;BLAST bit score: 408&lt;br&gt;E-value: 4.14e-145" locus_tag="CPH89_RS01185" class="clusterblast-orf" id="dummy-2_h2_3_36"  />
</g>
<g id="a2_0037"  >
<polygon points="744,85 749,80 758,80 758,90 749,90 744,85 " style="fill:#94d815; stroke-width:1; stroke:black; " description="&lt;b&gt;CPH89_RS01190&lt;/b&gt;&lt;br&gt;lipid kinase YegS&lt;br&gt;Location: 257681 - 258601&lt;br&gt;&lt;br&gt;&lt;b&gt;BlastP hit with ctg2_221&lt;/b&gt;&lt;br&gt;Percentage identity: 97&lt;br&gt;Percentage coverage: 100&lt;br&gt;BLAST bit score: 591&lt;br&gt;E-value: 1.32e-214" locus_tag="CPH89_RS01190" class="clusterblast-orf" id="dummy-2_h2_3_37"  />
</g>
<g id="a2_0038"  >
<polygon points="759,85 764,80 768,80 768,90 764,90 759,85 " style="fill:#15d8bb; stroke-width:1; stroke:black; " description="&lt;b&gt;CPH89_RS01195&lt;/b&gt;&lt;br&gt;hypothetical protein&lt;br&gt;Location: 258693 - 259238&lt;br&gt;&lt;br&gt;&lt;b&gt;BlastP hit with ctg2_222&lt;/b&gt;&lt;br&gt;Percentage identity: 91&lt;br&gt;Percentage coverage: 100&lt;br&gt;BLAST bit score: 338&lt;br&gt;E-value: 9.02e-119" locus_tag="CPH89_RS01195" class="clusterblast-orf" id="dummy-2_h2_3_38"  />
</g>
<g id="a2_0039"  >
<polygon points="768,85 773,80 773,80 773,90 773,90 768,85 " style="fill:#5915d8; stroke-width:1; stroke:black; " description="&lt;b&gt;CPH89_RS01200&lt;/b&gt;&lt;br&gt;hypothetical protein&lt;br&gt;Location: 259271 - 259597&lt;br&gt;&lt;br&gt;&lt;b&gt;BlastP hit with ctg2_223&lt;/b&gt;&lt;br&gt;Percentage identity: 93&lt;br&gt;Percentage coverage: 100&lt;br&gt;BLAST bit score: 204&lt;br&gt;E-value: 6.45e-68" locus_tag="CPH89_RS01200" class="clusterblast-orf" id="dummy-2_h2_3_39"  />
</g>
<g id="a2_0040"  >
<polygon points="773,85 777,80 777,90 773,85 " style="fill:#d81532; stroke-width:1; stroke:black; " description="&lt;b&gt;CPH89_RS01205&lt;/b&gt;&lt;br&gt;hypothetical protein&lt;br&gt;Location: 259621 - 259890&lt;br&gt;&lt;br&gt;&lt;b&gt;BlastP hit with ctg2_224&lt;/b&gt;&lt;br&gt;Percentage identity: 90&lt;br&gt;Percentage coverage: 71&lt;br&gt;BLAST bit score: 164&lt;br&gt;E-value: 3.59e-52" locus_tag="CPH89_RS01205" class="clusterblast-orf" id="dummy-2_h2_3_40"  />
</g>
</svg>
