<svg xmlns="http://www.w3.org/2000/svg" xmlns:xlink="http://www.w3.org/1999/xlink" version="1.1" x="0" y="0" height="230" width="800" viewBox="0 0 800 230" preserveAspectRatio="none"  >
<g label="Query sequence" class="clusterblast-cluster"  >
<text x="5" y="20" class="clusterblast-acc"  >
Query sequence</text>
<line x1="10" y1="35" x2="778.0" y2="35" style="stroke-width:1; stroke:grey; "  />
<polygon points="0,40 4,40 9,35 4,30 0,30 0,40 " style="fill:white; stroke-width:1; stroke:black; " description="&lt;b&gt;ctg9_97&lt;/b&gt;&lt;br&gt;ctg9 97&lt;br&gt;Location: 112971 - 113886" locus_tag="ctg9_97" class="clusterblast-orf" id="dummy-1_q0_0_all"  />
<polygon points="10,35 15,30 17,30 17,40 15,40 10,35 " style="fill:white; stroke-width:1; stroke:black; " description="&lt;b&gt;ctg9_98&lt;/b&gt;&lt;br&gt;ctg9 98&lt;br&gt;Location: 114006 - 114672" locus_tag="ctg9_98" class="clusterblast-orf" id="dummy-1_q1_0_all"  />
<polygon points="17,35 22,30 52,30 52,40 22,40 17,35 " style="fill:white; stroke-width:1; stroke:black; " description="&lt;b&gt;ctg9_99&lt;/b&gt;&lt;br&gt;ctg9 99&lt;br&gt;Location: 114646 - 118030" locus_tag="ctg9_99" class="clusterblast-orf" id="dummy-1_q2_0_all"  />
<polygon points="55,40 63,40 68,35 63,30 55,30 55,40 " style="fill:white; stroke-width:1; stroke:black; " description="&lt;b&gt;ctg9_100&lt;/b&gt;&lt;br&gt;ctg9 100&lt;br&gt;Location: 118332 - 119541" locus_tag="ctg9_100" class="clusterblast-orf" id="dummy-1_q3_0_all"  />
<polygon points="70,40 74,40 79,35 74,30 70,30 70,40 " style="fill:white; stroke-width:1; stroke:black; " description="&lt;b&gt;ctg9_101&lt;/b&gt;&lt;br&gt;ctg9 101&lt;br&gt;Location: 119719 - 120637" locus_tag="ctg9_101" class="clusterblast-orf" id="dummy-1_q4_0_all"  />
<polygon points="79,40 86,40 91,35 86,30 79,30 79,40 " style="fill:white; stroke-width:1; stroke:black; " description="&lt;b&gt;ctg9_102&lt;/b&gt;&lt;br&gt;ctg9 102&lt;br&gt;Location: 120647 - 121808" locus_tag="ctg9_102" class="clusterblast-orf" id="dummy-1_q5_0_all"  />
<polygon points="91,40 94,40 99,35 94,30 91,30 91,40 " style="fill:white; stroke-width:1; stroke:black; " description="&lt;b&gt;ctg9_103&lt;/b&gt;&lt;br&gt;ctg9 103&lt;br&gt;Location: 121804 - 122563" locus_tag="ctg9_103" class="clusterblast-orf" id="dummy-1_q6_0_all"  />
<polygon points="99,40 101,40 106,35 101,30 99,30 99,40 " style="fill:white; stroke-width:1; stroke:black; " description="&lt;b&gt;ctg9_104&lt;/b&gt;&lt;br&gt;ctg9 104&lt;br&gt;Location: 122573 - 123263" locus_tag="ctg9_104" class="clusterblast-orf" id="dummy-1_q7_0_all"  />
<polygon points="108,40 116,40 121,35 116,30 108,30 108,40 " style="fill:white; stroke-width:1; stroke:black; " description="&lt;b&gt;ctg9_105&lt;/b&gt;&lt;br&gt;ctg9 105&lt;br&gt;Location: 123481 - 124711" locus_tag="ctg9_105" class="clusterblast-orf" id="dummy-1_q8_0_all"  />
<polygon points="121,40 125,35 121,30 121,40 " style="fill:white; stroke-width:1; stroke:black; " description="&lt;b&gt;ctg9_106&lt;/b&gt;&lt;br&gt;ctg9 106&lt;br&gt;Location: 124713 - 125061" locus_tag="ctg9_106" class="clusterblast-orf" id="dummy-1_q9_0_all"  />
<polygon points="125,40 131,40 136,35 131,30 125,30 125,40 " style="fill:white; stroke-width:1; stroke:black; " description="&lt;b&gt;ctg9_107&lt;/b&gt;&lt;br&gt;ctg9 107&lt;br&gt;Location: 125076 - 126120" locus_tag="ctg9_107" class="clusterblast-orf" id="dummy-1_q10_0_all"  />
<polygon points="136,40 141,40 146,35 141,30 136,30 136,40 " style="fill:white; stroke-width:1; stroke:black; " description="&lt;b&gt;ctg9_108&lt;/b&gt;&lt;br&gt;ctg9 108&lt;br&gt;Location: 126123 - 127080" locus_tag="ctg9_108" class="clusterblast-orf" id="dummy-1_q11_0_all"  />
<polygon points="146,40 147,40 152,35 147,30 146,30 146,40 " style="fill:white; stroke-width:1; stroke:black; " description="&lt;b&gt;ctg9_109&lt;/b&gt;&lt;br&gt;ctg9 109&lt;br&gt;Location: 127147 - 127720" locus_tag="ctg9_109" class="clusterblast-orf" id="dummy-1_q12_0_all"  />
<polygon points="153,40 162,40 167,35 162,30 153,30 153,40 " style="fill:white; stroke-width:1; stroke:black; " description="&lt;b&gt;ctg9_110&lt;/b&gt;&lt;br&gt;ctg9 110&lt;br&gt;Location: 127745 - 129101" locus_tag="ctg9_110" class="clusterblast-orf" id="dummy-1_q13_0_all"  />
<polygon points="167,35 172,30 173,30 173,40 172,40 167,35 " style="fill:#d81515; stroke-width:1; stroke:black; " description="&lt;b&gt;ctg9_111&lt;/b&gt;&lt;br&gt;ctg9 111&lt;br&gt;Location: 129084 - 129678" locus_tag="ctg9_111" class="clusterblast-orf" id="dummy-1_q14_0_all"  />
<polygon points="174,40 182,40 187,35 182,30 174,30 174,40 " style="fill:#63d815; stroke-width:1; stroke:black; " description="&lt;b&gt;ctg9_112&lt;/b&gt;&lt;br&gt;ctg9 112&lt;br&gt;Location: 129820 - 131011" locus_tag="ctg9_112" class="clusterblast-orf" id="dummy-1_q15_0_all"  />
<polygon points="186,35 190,30 190,40 186,35 " style="fill:#15b1d8; stroke-width:1; stroke:black; " description="&lt;b&gt;ctg9_113&lt;/b&gt;&lt;br&gt;ctg9 113&lt;br&gt;Location: 130993 - 131359" locus_tag="ctg9_113" class="clusterblast-orf" id="dummy-1_q16_0_all"  />
<polygon points="190,35 193,30 193,40 190,35 " style="fill:#b115d8; stroke-width:1; stroke:black; " description="&lt;b&gt;ctg9_114&lt;/b&gt;&lt;br&gt;ctg9 114&lt;br&gt;Location: 131355 - 131607" locus_tag="ctg9_114" class="clusterblast-orf" id="dummy-1_q17_0_all"  />
<polygon points="195,40 335,40 340,35 335,30 195,30 195,40 " style="fill:#d86315; stroke-width:1; stroke:black; " description="&lt;b&gt;ctg9_115&lt;/b&gt;&lt;br&gt;ctg9 115&lt;br&gt;Location: 131816 - 145871" locus_tag="ctg9_115" class="clusterblast-orf" id="dummy-1_q18_0_all"  />
<polygon points="340,40 458,40 463,35 458,30 340,30 340,40 " style="fill:#d86315; stroke-width:1; stroke:black; " description="&lt;b&gt;ctg9_116&lt;/b&gt;&lt;br&gt;ctg9 116&lt;br&gt;Location: 145874 - 157727" locus_tag="ctg9_116" class="clusterblast-orf" id="dummy-1_q19_0_all"  />
<polygon points="465,35 470,30 490,30 490,40 470,40 465,35 " style="fill:#15d815; stroke-width:1; stroke:black; " description="&lt;b&gt;ctg9_117&lt;/b&gt;&lt;br&gt;ctg9 117&lt;br&gt;Location: 157871 - 160313" locus_tag="ctg9_117" class="clusterblast-orf" id="dummy-1_q20_0_all"  />
<polygon points="491,35 496,30 508,30 508,40 496,40 491,35 " style="fill:#1563d8; stroke-width:1; stroke:black; " description="&lt;b&gt;ctg9_118&lt;/b&gt;&lt;br&gt;ctg9 118&lt;br&gt;Location: 160422 - 162075" locus_tag="ctg9_118" class="clusterblast-orf" id="dummy-1_q21_0_all"  />
<polygon points="510,40 514,40 519,35 514,30 510,30 510,40 " style="fill:#d815b1; stroke-width:1; stroke:black; " description="&lt;b&gt;ctg9_119&lt;/b&gt;&lt;br&gt;ctg9 119&lt;br&gt;Location: 162273 - 163101" locus_tag="ctg9_119" class="clusterblast-orf" id="dummy-1_q22_0_all"  />
<polygon points="520,35 525,30 529,30 529,40 525,40 520,35 " style="fill:#d8b115; stroke-width:1; stroke:black; " description="&lt;b&gt;ctg9_120&lt;/b&gt;&lt;br&gt;ctg9 120&lt;br&gt;Location: 163243 - 164116" locus_tag="ctg9_120" class="clusterblast-orf" id="dummy-1_q23_0_all"  />
<polygon points="530,35 535,30 543,30 543,40 535,40 530,35 " style="fill:#15d863; stroke-width:1; stroke:black; " description="&lt;b&gt;ctg9_121&lt;/b&gt;&lt;br&gt;ctg9 121&lt;br&gt;Location: 164149 - 165430" locus_tag="ctg9_121" class="clusterblast-orf" id="dummy-1_q24_0_all"  />
<polygon points="543,35 548,30 557,30 557,40 548,40 543,35 " style="fill:#1515d8; stroke-width:1; stroke:black; " description="&lt;b&gt;ctg9_122&lt;/b&gt;&lt;br&gt;ctg9 122&lt;br&gt;Location: 165448 - 166798" locus_tag="ctg9_122" class="clusterblast-orf" id="dummy-1_q25_0_all"  />
<polygon points="559,40 571,40 576,35 571,30 559,30 559,40 " style="fill:#d81563; stroke-width:1; stroke:black; " description="&lt;b&gt;ctg9_123&lt;/b&gt;&lt;br&gt;ctg9 123&lt;br&gt;Location: 166940 - 168560" locus_tag="ctg9_123" class="clusterblast-orf" id="dummy-1_q26_0_all"  />
<polygon points="575,35 580,30 585,30 585,40 580,40 575,35 " style="fill:white; stroke-width:1; stroke:black; " description="&lt;b&gt;ctg9_124&lt;/b&gt;&lt;br&gt;ctg9 124&lt;br&gt;Location: 168552 - 169500" locus_tag="ctg9_124" class="clusterblast-orf" id="dummy-1_q27_0_all"  />
<polygon points="587,40 591,40 596,35 591,30 587,30 587,40 " style="fill:white; stroke-width:1; stroke:black; " description="&lt;b&gt;ctg9_125&lt;/b&gt;&lt;br&gt;ctg9 125&lt;br&gt;Location: 169643 - 170534" locus_tag="ctg9_125" class="clusterblast-orf" id="dummy-1_q28_0_all"  />
<polygon points="596,40 601,40 606,35 601,30 596,30 596,40 " style="fill:white; stroke-width:1; stroke:black; " description="&lt;b&gt;ctg9_126&lt;/b&gt;&lt;br&gt;ctg9 126&lt;br&gt;Location: 170533 - 171505" locus_tag="ctg9_126" class="clusterblast-orf" id="dummy-1_q29_0_all"  />
<polygon points="606,40 610,40 615,35 610,30 606,30 606,40 " style="fill:white; stroke-width:1; stroke:black; " description="&lt;b&gt;ctg9_127&lt;/b&gt;&lt;br&gt;ctg9 127&lt;br&gt;Location: 171501 - 172371" locus_tag="ctg9_127" class="clusterblast-orf" id="dummy-1_q30_0_all"  />
<polygon points="615,40 618,35 615,30 615,40 " style="fill:white; stroke-width:1; stroke:black; " description="&lt;b&gt;ctg9_128&lt;/b&gt;&lt;br&gt;ctg9 128&lt;br&gt;Location: 172385 - 172646" locus_tag="ctg9_128" class="clusterblast-orf" id="dummy-1_q31_0_all"  />
<polygon points="618,40 621,40 626,35 621,30 618,30 618,40 " style="fill:white; stroke-width:1; stroke:black; " description="&lt;b&gt;ctg9_129&lt;/b&gt;&lt;br&gt;ctg9 129&lt;br&gt;Location: 172642 - 173473" locus_tag="ctg9_129" class="clusterblast-orf" id="dummy-1_q32_0_all"  />
<polygon points="627,40 649,40 654,35 649,30 627,30 627,40 " style="fill:white; stroke-width:1; stroke:black; " description="&lt;b&gt;ctg9_130&lt;/b&gt;&lt;br&gt;ctg9 130&lt;br&gt;Location: 173486 - 176144" locus_tag="ctg9_130" class="clusterblast-orf" id="dummy-1_q33_0_all"  />
<polygon points="658,40 661,40 666,35 661,30 658,30 658,40 " style="fill:white; stroke-width:1; stroke:black; " description="&lt;b&gt;ctg9_131&lt;/b&gt;&lt;br&gt;ctg9 131&lt;br&gt;Location: 176545 - 177262" locus_tag="ctg9_131" class="clusterblast-orf" id="dummy-1_q34_0_all"  />
<polygon points="666,40 670,35 666,30 666,40 " style="fill:white; stroke-width:1; stroke:black; " description="&lt;b&gt;ctg9_132&lt;/b&gt;&lt;br&gt;ctg9 132&lt;br&gt;Location: 177314 - 177650" locus_tag="ctg9_132" class="clusterblast-orf" id="dummy-1_q35_0_all"  />
<polygon points="670,40 676,40 681,35 676,30 670,30 670,40 " style="fill:white; stroke-width:1; stroke:black; " description="&lt;b&gt;ctg9_133&lt;/b&gt;&lt;br&gt;ctg9 133&lt;br&gt;Location: 177665 - 178772" locus_tag="ctg9_133" class="clusterblast-orf" id="dummy-1_q36_0_all"  />
<polygon points="683,40 683,40 688,35 683,30 683,30 683,40 " style="fill:white; stroke-width:1; stroke:black; " description="&lt;b&gt;ctg9_134&lt;/b&gt;&lt;br&gt;ctg9 134&lt;br&gt;Location: 178934 - 179426" locus_tag="ctg9_134" class="clusterblast-orf" id="dummy-1_q37_0_all"  />
<polygon points="689,35 691,30 691,40 689,35 " style="fill:white; stroke-width:1; stroke:black; " description="&lt;b&gt;ctg9_135&lt;/b&gt;&lt;br&gt;ctg9 135&lt;br&gt;Location: 179527 - 179749" locus_tag="ctg9_135" class="clusterblast-orf" id="dummy-1_q38_0_all"  />
<polygon points="693,35 698,30 716,30 716,40 698,40 693,35 " style="fill:white; stroke-width:1; stroke:black; " description="&lt;b&gt;ctg9_136&lt;/b&gt;&lt;br&gt;ctg9 136&lt;br&gt;Location: 179890 - 182119" locus_tag="ctg9_136" class="clusterblast-orf" id="dummy-1_q39_0_all"  />
<polygon points="717,35 722,30 736,30 736,40 722,40 717,35 " style="fill:white; stroke-width:1; stroke:black; " description="&lt;b&gt;ctg9_137&lt;/b&gt;&lt;br&gt;ctg9 137&lt;br&gt;Location: 182245 - 184054" locus_tag="ctg9_137" class="clusterblast-orf" id="dummy-1_q40_0_all"  />
<polygon points="737,35 739,30 739,40 737,35 " style="fill:#b1d815; stroke-width:1; stroke:black; " description="&lt;b&gt;ctg9_138&lt;/b&gt;&lt;br&gt;ctg9 138&lt;br&gt;Location: 184152 - 184329" locus_tag="ctg9_138" class="clusterblast-orf" id="dummy-1_q41_0_all"  />
<polygon points="742,40 747,40 752,35 747,30 742,30 742,40 " style="fill:#15d8b1; stroke-width:1; stroke:black; " description="&lt;b&gt;ctg9_139&lt;/b&gt;&lt;br&gt;ctg9 139&lt;br&gt;Location: 184598 - 185582" locus_tag="ctg9_139" class="clusterblast-orf" id="dummy-1_q42_0_all"  />
<polygon points="752,40 763,40 768,35 763,30 752,30 752,40 " style="fill:#6315d8; stroke-width:1; stroke:black; " description="&lt;b&gt;ctg9_140&lt;/b&gt;&lt;br&gt;ctg9 140&lt;br&gt;Location: 185578 - 187102" locus_tag="ctg9_140" class="clusterblast-orf" id="dummy-1_q43_0_all"  />
<polygon points="768,40 771,40 776,35 771,30 768,30 768,40 " style="fill:white; stroke-width:1; stroke:black; " description="&lt;b&gt;ctg9_141&lt;/b&gt;&lt;br&gt;ctg9 141&lt;br&gt;Location: 187098 - 187923" locus_tag="ctg9_141" class="clusterblast-orf" id="dummy-1_q44_0_all"  />
<polygon points="777,35 780,30 780,40 777,35 " style="fill:white; stroke-width:1; stroke:black; " description="&lt;b&gt;ctg9_142&lt;/b&gt;&lt;br&gt;ctg9 142&lt;br&gt;Location: 187998 - 188259" locus_tag="ctg9_142" class="clusterblast-orf" id="dummy-1_q45_0_all"  />
</g>
<g label="BGC0001285" description="BGC0001285_c1: pseudopyronine A/pseudopyronine B (18% of genes show similarity), Other:Fatty acid" class="clusterblast-cluster"  >
<text x="5" y="70" class="clusterblast-acc"  >
<a xlink:href="https://mibig.secondarymetabolites.org/go/BGC0001285/1" target="_blank">BGC0001285</a>: pseudopyronine A/pseudopyronine B                                                (18% of genes show similarity), Other:Fatty acid</text>
<line x1="10" y1="85" x2="778.0" y2="85" style="stroke-width:1; stroke:grey; "  />
</g>
<g id="a1_000"  >
<polygon points="273,85 278,80 281,80 281,90 278,90 273,85 " style="fill:white; stroke-width:1; stroke:black; " description="&lt;b&gt;ALJ01868.1&lt;/b&gt;&lt;br&gt;hypothetical protein&lt;br&gt;Location: 22479 - 21685" locus_tag="ALJ01868.1" class="clusterblast-orf" id="dummy-1_h1_10_0"  />
</g>
<g id="a1_001"  >
<polygon points="283,85 288,80 305,80 305,90 288,90 283,85 " style="fill:white; stroke-width:1; stroke:black; " description="&lt;b&gt;ALJ01867.1&lt;/b&gt;&lt;br&gt;glycogen debranching enzyme&lt;br&gt;Location: 21516 - 19363" locus_tag="ALJ01867.1" class="clusterblast-orf" id="dummy-1_h1_10_1"  />
</g>
<g id="a1_002"  >
<polygon points="307,85 310,80 310,90 307,85 " style="fill:white; stroke-width:1; stroke:black; " description="&lt;b&gt;ALJ01866.1&lt;/b&gt;&lt;br&gt;hypothetical protein&lt;br&gt;Location: 19205 - 18939" locus_tag="ALJ01866.1" class="clusterblast-orf" id="dummy-1_h1_10_2"  />
</g>
<g id="a1_003"  >
<polygon points="310,85 315,80 339,80 339,90 315,90 310,85 " style="fill:white; stroke-width:1; stroke:black; " description="&lt;b&gt;ALJ01865.1&lt;/b&gt;&lt;br&gt;malto-oligosyltrehalose synthase&lt;br&gt;Location: 18918 - 16144" locus_tag="ALJ01865.1" class="clusterblast-orf" id="dummy-1_h1_10_3"  />
</g>
<g id="a1_004"  >
<polygon points="339,85 344,80 360,80 360,90 344,90 339,85 " style="fill:white; stroke-width:1; stroke:black; " description="&lt;b&gt;ALJ01864.1&lt;/b&gt;&lt;br&gt;4-alpha-glucanotransferase&lt;br&gt;Location: 16147 - 14078" locus_tag="ALJ01864.1" class="clusterblast-orf" id="dummy-1_h1_10_4"  />
</g>
<g id="a1_005"  >
<polygon points="360,85 365,80 378,80 378,90 365,90 360,85 " style="fill:white; stroke-width:1; stroke:black; " description="&lt;b&gt;ALJ01863.1&lt;/b&gt;&lt;br&gt;malto-oligosyltrehalose trehalohydrolase&lt;br&gt;Location: 14081 - 12339" locus_tag="ALJ01863.1" class="clusterblast-orf" id="dummy-1_h1_10_5"  />
</g>
<g id="a1_006"  >
<polygon points="378,85 383,80 394,80 394,90 383,90 378,85 " style="fill:white; stroke-width:1; stroke:black; " description="&lt;b&gt;ALJ01862.1&lt;/b&gt;&lt;br&gt;glycogen synthase&lt;br&gt;Location: 12324 - 10765" locus_tag="ALJ01862.1" class="clusterblast-orf" id="dummy-1_h1_10_6"  />
</g>
<g id="a1_007"  >
<polygon points="400,85 401,80 401,90 400,85 " style="fill:#b1d815; stroke-width:1; stroke:black; " description="&lt;b&gt;ALJ01861.1&lt;/b&gt;&lt;br&gt;hypothetical protein&lt;br&gt;Location: 10272 - 10105&lt;br&gt;&lt;br&gt;&lt;b&gt;BlastP hit with ctg9_138&lt;/b&gt;&lt;br&gt;Percentage identity: 69&lt;br&gt;Percentage coverage: 67&lt;br&gt;BLAST bit score: 50&lt;br&gt;E-value: 2.57e-10" locus_tag="ALJ01861.1" class="clusterblast-orf" id="dummy-1_h1_10_7"  />
</g>
<g id="a1_008"  >
<polygon points="403,90 409,90 414,85 409,80 403,80 403,90 " style="fill:#15d8b1; stroke-width:1; stroke:black; " description="&lt;b&gt;ALJ01860.1&lt;/b&gt;&lt;br&gt;6-phosphogluconate dehydrogenase&lt;br&gt;Location: 9908 - 8925&lt;br&gt;&lt;br&gt;&lt;b&gt;BlastP hit with ctg9_139&lt;/b&gt;&lt;br&gt;Percentage identity: 73&lt;br&gt;Percentage coverage: 100&lt;br&gt;BLAST bit score: 480&lt;br&gt;E-value: 6.68e-172" locus_tag="ALJ01860.1" class="clusterblast-orf" id="dummy-1_h1_10_8"  />
</g>
<g id="a1_009"  >
<polygon points="414,90 424,90 429,85 424,80 414,80 414,90 " style="fill:#6315d8; stroke-width:1; stroke:black; " description="&lt;b&gt;ALJ01859.1&lt;/b&gt;&lt;br&gt;glucose-6-phosphate 1-dehydrogenase&lt;br&gt;Location: 8924 - 7431&lt;br&gt;&lt;br&gt;&lt;b&gt;BlastP hit with ctg9_140&lt;/b&gt;&lt;br&gt;Percentage identity: 75&lt;br&gt;Percentage coverage: 98&lt;br&gt;BLAST bit score: 760&lt;br&gt;E-value: 8.68e-277" locus_tag="ALJ01859.1" class="clusterblast-orf" id="dummy-1_h1_10_9"  />
</g>
<g id="a1_0010"  >
<polygon points="430,85 435,80 441,80 441,90 435,90 430,85 " style="fill:white; stroke-width:1; stroke:black; " description="&lt;b&gt;ALJ01858.1&lt;/b&gt;&lt;br&gt;pseudopyronine synthase&lt;br&gt;Location: 7370 - 6321" locus_tag="ALJ01858.1" class="clusterblast-orf" id="dummy-1_h1_10_10"  />
</g>
<g id="a1_0011"  >
<polygon points="443,90 457,90 462,85 457,80 443,80 443,90 " style="fill:white; stroke-width:1; stroke:black; " description="&lt;b&gt;ALJ01857.1&lt;/b&gt;&lt;br&gt;hypothetical protein&lt;br&gt;Location: 6079 - 4283" locus_tag="ALJ01857.1" class="clusterblast-orf" id="dummy-1_h1_10_11"  />
</g>
<g id="a1_0012"  >
<polygon points="466,90 468,85 466,80 466,90 " style="fill:white; stroke-width:1; stroke:black; " description="&lt;b&gt;ALJ01856.1&lt;/b&gt;&lt;br&gt;hypothetical protein&lt;br&gt;Location: 3889 - 3692" locus_tag="ALJ01856.1" class="clusterblast-orf" id="dummy-1_h1_10_12"  />
</g>
<g id="a1_0013"  >
<polygon points="469,85 474,80 476,80 476,90 474,90 469,85 " style="fill:white; stroke-width:1; stroke:black; " description="&lt;b&gt;ALJ01855.1&lt;/b&gt;&lt;br&gt;putative dioxygenase&lt;br&gt;Location: 3560 - 2880" locus_tag="ALJ01855.1" class="clusterblast-orf" id="dummy-1_h1_10_13"  />
</g>
<g id="a1_0014"  >
<polygon points="478,90 496,90 501,85 496,80 478,80 478,90 " style="fill:white; stroke-width:1; stroke:black; " description="&lt;b&gt;ALJ01854.1&lt;/b&gt;&lt;br&gt;hypothetical protein&lt;br&gt;Location: 2718 - 526" locus_tag="ALJ01854.1" class="clusterblast-orf" id="dummy-1_h1_10_14"  />
</g>
<g id="a1_0015"  >
<polygon points="501,85 506,80 506,80 506,90 506,90 501,85 " style="fill:white; stroke-width:1; stroke:black; " description="&lt;b&gt;ALJ01853.1&lt;/b&gt;&lt;br&gt;membrane protein&lt;br&gt;Location: 476 - 9" locus_tag="ALJ01853.1" class="clusterblast-orf" id="dummy-1_h1_10_15"  />
</g>
</svg>
