<svg xmlns="http://www.w3.org/2000/svg" xmlns:xlink="http://www.w3.org/1999/xlink" version="1.1" x="0" y="0" height="230" width="800" viewBox="0 0 800 230" preserveAspectRatio="none"  >
<g label="Query sequence" class="clusterblast-cluster"  >
<text x="5" y="20" class="clusterblast-acc"  >
Query sequence</text>
<line x1="10" y1="35" x2="778.0" y2="35" style="stroke-width:1; stroke:grey; "  />
<polygon points="0,35 5,30 46,30 46,40 5,40 0,35 " style="fill:white; stroke-width:1; stroke:black; " description="&lt;b&gt;ctg28_10&lt;/b&gt;&lt;br&gt;ctg28 10&lt;br&gt;Location: 13196 - 16907" locus_tag="ctg28_10" class="clusterblast-orf" id="dummy-1_q0_0_all"  />
<polygon points="48,40 72,40 77,35 72,30 48,30 48,40 " style="fill:white; stroke-width:1; stroke:black; " description="&lt;b&gt;ctg28_11&lt;/b&gt;&lt;br&gt;ctg28 11&lt;br&gt;Location: 17071 - 19366" locus_tag="ctg28_11" class="clusterblast-orf" id="dummy-1_q1_0_all"  />
<polygon points="90,40 92,40 97,35 92,30 90,30 90,40 " style="fill:white; stroke-width:1; stroke:black; " description="&lt;b&gt;ctg28_12&lt;/b&gt;&lt;br&gt;ctg28 12&lt;br&gt;Location: 20433 - 21018" locus_tag="ctg28_12" class="clusterblast-orf" id="dummy-1_q2_0_all"  />
<polygon points="100,35 105,30 109,30 109,40 105,40 100,35 " style="fill:white; stroke-width:1; stroke:black; " description="&lt;b&gt;ctg28_13&lt;/b&gt;&lt;br&gt;ctg28 13&lt;br&gt;Location: 21222 - 21969" locus_tag="ctg28_13" class="clusterblast-orf" id="dummy-1_q3_0_all"  />
<polygon points="110,35 115,30 115,30 115,40 115,40 110,35 " style="fill:white; stroke-width:1; stroke:black; " description="&lt;b&gt;ctg28_14&lt;/b&gt;&lt;br&gt;ctg28 14&lt;br&gt;Location: 22039 - 22432" locus_tag="ctg28_14" class="clusterblast-orf" id="dummy-1_q4_0_all"  />
<polygon points="115,35 120,30 124,30 124,40 120,40 115,35 " style="fill:white; stroke-width:1; stroke:black; " description="&lt;b&gt;ctg28_15&lt;/b&gt;&lt;br&gt;ctg28 15&lt;br&gt;Location: 22428 - 23133" locus_tag="ctg28_15" class="clusterblast-orf" id="dummy-1_q5_0_all"  />
<polygon points="124,35 126,30 126,40 124,35 " style="fill:white; stroke-width:1; stroke:black; " description="&lt;b&gt;ctg28_16&lt;/b&gt;&lt;br&gt;ctg28 16&lt;br&gt;Location: 23144 - 23333" locus_tag="ctg28_16" class="clusterblast-orf" id="dummy-1_q6_0_all"  />
<polygon points="143,40 152,40 157,35 152,30 143,30 143,40 " style="fill:white; stroke-width:1; stroke:black; " description="&lt;b&gt;ctg28_17&lt;/b&gt;&lt;br&gt;ctg28 17&lt;br&gt;Location: 24704 - 25766" locus_tag="ctg28_17" class="clusterblast-orf" id="dummy-1_q7_0_all"  />
<polygon points="157,40 199,40 204,35 199,30 157,30 157,40 " style="fill:white; stroke-width:1; stroke:black; " description="&lt;b&gt;ctg28_18&lt;/b&gt;&lt;br&gt;ctg28 18&lt;br&gt;Location: 25769 - 29531" locus_tag="ctg28_18" class="clusterblast-orf" id="dummy-1_q8_0_all"  />
<polygon points="204,40 211,40 216,35 211,30 204,30 204,40 " style="fill:white; stroke-width:1; stroke:black; " description="&lt;b&gt;ctg28_19&lt;/b&gt;&lt;br&gt;ctg28 19&lt;br&gt;Location: 29530 - 30529" locus_tag="ctg28_19" class="clusterblast-orf" id="dummy-1_q9_0_all"  />
<polygon points="218,40 219,40 224,35 219,30 218,30 218,40 " style="fill:white; stroke-width:1; stroke:black; " description="&lt;b&gt;ctg28_20&lt;/b&gt;&lt;br&gt;ctg28 20&lt;br&gt;Location: 30648 - 31194" locus_tag="ctg28_20" class="clusterblast-orf" id="dummy-1_q10_0_all"  />
<polygon points="227,40 383,40 388,35 383,30 227,30 227,40 " style="fill:#d81515; stroke-width:1; stroke:black; " description="&lt;b&gt;ctg28_21&lt;/b&gt;&lt;br&gt;ctg28 21&lt;br&gt;Location: 31403 - 44315" locus_tag="ctg28_21" class="clusterblast-orf" id="dummy-1_q11_0_all"  />
<polygon points="388,40 525,40 530,35 525,30 388,30 388,40 " style="fill:#d81515; stroke-width:1; stroke:black; " description="&lt;b&gt;ctg28_22&lt;/b&gt;&lt;br&gt;ctg28 22&lt;br&gt;Location: 44311 - 55648" locus_tag="ctg28_22" class="clusterblast-orf" id="dummy-1_q12_0_all"  />
<polygon points="530,40 539,40 544,35 539,30 530,30 530,40 " style="fill:#3cd815; stroke-width:1; stroke:black; " description="&lt;b&gt;ctg28_23&lt;/b&gt;&lt;br&gt;ctg28 23&lt;br&gt;Location: 55644 - 56787" locus_tag="ctg28_23" class="clusterblast-orf" id="dummy-1_q13_0_all"  />
<polygon points="544,40 564,40 569,35 564,30 544,30 544,40 " style="fill:#1563d8; stroke-width:1; stroke:black; " description="&lt;b&gt;ctg28_24&lt;/b&gt;&lt;br&gt;ctg28 24&lt;br&gt;Location: 56790 - 58749" locus_tag="ctg28_24" class="clusterblast-orf" id="dummy-1_q14_0_all"  />
<polygon points="570,35 575,30 579,30 579,40 575,40 570,35 " style="fill:#b115d8; stroke-width:1; stroke:black; " description="&lt;b&gt;ctg28_25&lt;/b&gt;&lt;br&gt;ctg28 25&lt;br&gt;Location: 58876 - 59554" locus_tag="ctg28_25" class="clusterblast-orf" id="dummy-1_q15_0_all"  />
<polygon points="582,35 587,30 597,30 597,40 587,40 582,35 " style="fill:#d88a15; stroke-width:1; stroke:black; " description="&lt;b&gt;ctg28_26&lt;/b&gt;&lt;br&gt;ctg28 26&lt;br&gt;Location: 59786 - 61031" locus_tag="ctg28_26" class="clusterblast-orf" id="dummy-1_q16_0_all"  />
<polygon points="599,40 599,40 604,35 599,30 599,30 599,40 " style="fill:#15d863; stroke-width:1; stroke:black; " description="&lt;b&gt;ctg28_27&lt;/b&gt;&lt;br&gt;ctg28 27&lt;br&gt;Location: 61154 - 61625" locus_tag="ctg28_27" class="clusterblast-orf" id="dummy-1_q17_0_all"  />
<polygon points="605,35 610,30 615,30 615,40 610,40 605,35 " style="fill:white; stroke-width:1; stroke:black; " description="&lt;b&gt;ctg28_28&lt;/b&gt;&lt;br&gt;ctg28 28&lt;br&gt;Location: 61703 - 62474" locus_tag="ctg28_28" class="clusterblast-orf" id="dummy-1_q18_0_all"  />
<polygon points="616,40 625,40 630,35 625,30 616,30 616,40 " style="fill:white; stroke-width:1; stroke:black; " description="&lt;b&gt;ctg28_29&lt;/b&gt;&lt;br&gt;ctg28 29&lt;br&gt;Location: 62572 - 63703" locus_tag="ctg28_29" class="clusterblast-orf" id="dummy-1_q19_0_all"  />
<polygon points="630,35 635,30 657,30 657,40 635,40 630,35 " style="fill:#3c15d8; stroke-width:1; stroke:black; " description="&lt;b&gt;ctg28_30&lt;/b&gt;&lt;br&gt;ctg28 30&lt;br&gt;Location: 63692 - 65834" locus_tag="ctg28_30" class="clusterblast-orf" id="dummy-1_q20_0_all"  />
<polygon points="658,35 663,30 668,30 668,40 663,40 658,35 " style="fill:#d8158a; stroke-width:1; stroke:black; " description="&lt;b&gt;ctg28_31&lt;/b&gt;&lt;br&gt;ctg28 31&lt;br&gt;Location: 65939 - 66737" locus_tag="ctg28_31" class="clusterblast-orf" id="dummy-1_q21_0_all"  />
<polygon points="671,40 683,40 688,35 683,30 671,30 671,40 " style="fill:white; stroke-width:1; stroke:black; " description="&lt;b&gt;ctg28_32&lt;/b&gt;&lt;br&gt;ctg28 32&lt;br&gt;Location: 66974 - 68333" locus_tag="ctg28_32" class="clusterblast-orf" id="dummy-1_q22_0_all"  />
<polygon points="689,40 697,40 702,35 697,30 689,30 689,40 " style="fill:#b1d815; stroke-width:1; stroke:black; " description="&lt;b&gt;ctg28_33&lt;/b&gt;&lt;br&gt;ctg28 33&lt;br&gt;Location: 68355 - 69444" locus_tag="ctg28_33" class="clusterblast-orf" id="dummy-1_q23_0_all"  />
<polygon points="702,40 713,40 718,35 713,30 702,30 702,40 " style="fill:#15d8d8; stroke-width:1; stroke:black; " description="&lt;b&gt;ctg28_34&lt;/b&gt;&lt;br&gt;ctg28 34&lt;br&gt;Location: 69440 - 70736" locus_tag="ctg28_34" class="clusterblast-orf" id="dummy-1_q24_0_all"  />
<polygon points="720,35 725,30 731,30 731,40 725,40 720,35 " style="fill:white; stroke-width:1; stroke:black; " description="&lt;b&gt;ctg28_35&lt;/b&gt;&lt;br&gt;ctg28 35&lt;br&gt;Location: 70854 - 71748" locus_tag="ctg28_35" class="clusterblast-orf" id="dummy-1_q25_0_all"  />
<polygon points="732,40 740,40 745,35 740,30 732,30 732,40 " style="fill:white; stroke-width:1; stroke:black; " description="&lt;b&gt;ctg28_36&lt;/b&gt;&lt;br&gt;ctg28 36&lt;br&gt;Location: 71861 - 72866" locus_tag="ctg28_36" class="clusterblast-orf" id="dummy-1_q26_0_all"  />
<polygon points="745,40 750,40 755,35 750,30 745,30 745,40 " style="fill:white; stroke-width:1; stroke:black; " description="&lt;b&gt;ctg28_37&lt;/b&gt;&lt;br&gt;ctg28 37&lt;br&gt;Location: 72881 - 73679" locus_tag="ctg28_37" class="clusterblast-orf" id="dummy-1_q27_0_all"  />
<polygon points="755,40 756,40 761,35 756,30 755,30 755,40 " style="fill:white; stroke-width:1; stroke:black; " description="&lt;b&gt;ctg28_38&lt;/b&gt;&lt;br&gt;ctg28 38&lt;br&gt;Location: 73706 - 74123" locus_tag="ctg28_38" class="clusterblast-orf" id="dummy-1_q28_0_all"  />
<polygon points="762,35 767,30 780,30 780,40 767,40 762,35 " style="fill:white; stroke-width:1; stroke:black; " description="&lt;b&gt;ctg28_39&lt;/b&gt;&lt;br&gt;ctg28 39&lt;br&gt;Location: 74255 - 75647" locus_tag="ctg28_39" class="clusterblast-orf" id="dummy-1_q29_0_all"  />
</g>
<g label="BGC0000323" description="BGC0000323_c1: cichofactin A/cichofactin B (66% of genes show similarity), NRP:Lipopeptide" class="clusterblast-cluster"  >
<text x="5" y="70" class="clusterblast-acc"  >
<a xlink:href="https://mibig.secondarymetabolites.org/go/BGC0000323/1" target="_blank">BGC0000323</a>: cichofactin A/cichofactin B                                                      (66% of genes show similarity), NRP:Lipopeptide</text>
<line x1="10" y1="85" x2="778.0" y2="85" style="stroke-width:1; stroke:grey; "  />
</g>
<g id="a1_000"  >
<polygon points="186,85 191,80 196,80 196,90 191,90 186,85 " style="fill:white; stroke-width:1; stroke:black; " description="&lt;b&gt;AHZ34234.1&lt;/b&gt;&lt;br&gt;LuxR&lt;br&gt;Location: 1 - 795" locus_tag="AHZ34234.1" class="clusterblast-orf" id="dummy-1_h1_3_0"  />
</g>
<g id="a1_001"  >
<polygon points="201,90 314,90 319,85 314,80 201,80 201,90 " style="fill:#d81515; stroke-width:1; stroke:black; " description="&lt;b&gt;AHZ34232.1&lt;/b&gt;&lt;br&gt;CifA&lt;br&gt;Location: 1142 - 10639&lt;br&gt;&lt;br&gt;&lt;b&gt;BlastP hit with ctg28_21&lt;/b&gt;&lt;br&gt;Percentage identity: 53&lt;br&gt;Percentage coverage: 74&lt;br&gt;BLAST bit score: 3097&lt;br&gt;E-value: 0.0" locus_tag="AHZ34232.1" class="clusterblast-orf" id="dummy-1_h1_3_1"  />
</g>
<g id="a1_002"  >
<polygon points="322,90 536,90 541,85 536,80 322,80 322,90 " style="fill:#d81515; stroke-width:1; stroke:black; " description="&lt;b&gt;AHZ34233.1&lt;/b&gt;&lt;br&gt;CifB&lt;br&gt;Location: 10885 - 28374&lt;br&gt;&lt;br&gt;&lt;b&gt;BlastP hit with ctg28_22&lt;/b&gt;&lt;br&gt;Percentage identity: 54&lt;br&gt;Percentage coverage: 101&lt;br&gt;BLAST bit score: 3714&lt;br&gt;E-value: 0.0" locus_tag="AHZ34233.1" class="clusterblast-orf" id="dummy-1_h1_3_2"  />
</g>
<g id="a1_003"  >
<polygon points="542,90 552,90 557,85 552,80 542,80 542,90 " style="fill:#3cd815; stroke-width:1; stroke:black; " description="&lt;b&gt;AHZ34235.1&lt;/b&gt;&lt;br&gt;MacA&lt;br&gt;Location: 28493 - 29644&lt;br&gt;&lt;br&gt;&lt;b&gt;BlastP hit with ctg28_23&lt;/b&gt;&lt;br&gt;Percentage identity: 69&lt;br&gt;Percentage coverage: 100&lt;br&gt;BLAST bit score: 472&lt;br&gt;E-value: 5.89e-167" locus_tag="AHZ34235.1" class="clusterblast-orf" id="dummy-1_h1_3_3"  />
</g>
<g id="a1_004"  >
<polygon points="557,90 577,90 582,85 577,80 557,80 557,90 " style="fill:#1563d8; stroke-width:1; stroke:black; " description="&lt;b&gt;AHZ34236.1&lt;/b&gt;&lt;br&gt;MacB&lt;br&gt;Location: 29647 - 31653&lt;br&gt;&lt;br&gt;&lt;b&gt;BlastP hit with ctg28_24&lt;/b&gt;&lt;br&gt;Percentage identity: 78&lt;br&gt;Percentage coverage: 99&lt;br&gt;BLAST bit score: 992&lt;br&gt;E-value: 0.0" locus_tag="AHZ34236.1" class="clusterblast-orf" id="dummy-1_h1_3_4"  />
</g>
<g id="a1_005"  >
<polygon points="582,85 587,80 593,80 593,90 587,90 582,85 " style="fill:white; stroke-width:1; stroke:black; " description="&lt;b&gt;AHZ34237.1&lt;/b&gt;&lt;br&gt;LuxR&lt;br&gt;Location: 31683 - 32510" locus_tag="AHZ34237.1" class="clusterblast-orf" id="dummy-1_h1_3_5"  />
</g>
</svg>
