<svg xmlns="http://www.w3.org/2000/svg" xmlns:xlink="http://www.w3.org/1999/xlink" version="1.1" x="0" y="0" height="230" width="800" viewBox="0 0 800 230" preserveAspectRatio="none"  >
<g label="Query sequence" class="clusterblast-cluster"  >
<text x="5" y="20" class="clusterblast-acc"  >
Query sequence</text>
<line x1="10" y1="35" x2="778.0" y2="35" style="stroke-width:1; stroke:grey; "  />
<polygon points="241,35 246,30 247,30 247,40 246,40 241,35 " style="fill:white; stroke-width:1; stroke:black; " description="&lt;b&gt;ctg10_34&lt;/b&gt;&lt;br&gt;ctg10 34&lt;br&gt;Location: 34204 - 35128" locus_tag="ctg10_34" class="clusterblast-orf" id="dummy-1_q0_0_all"  />
<polygon points="249,40 249,40 254,35 249,30 249,30 249,40 " style="fill:white; stroke-width:1; stroke:black; " description="&lt;b&gt;ctg10_35&lt;/b&gt;&lt;br&gt;ctg10 35&lt;br&gt;Location: 35445 - 36117" locus_tag="ctg10_35" class="clusterblast-orf" id="dummy-1_q1_0_all"  />
<polygon points="254,40 256,40 261,35 256,30 254,30 254,40 " style="fill:white; stroke-width:1; stroke:black; " description="&lt;b&gt;ctg10_36&lt;/b&gt;&lt;br&gt;ctg10 36&lt;br&gt;Location: 36119 - 37220" locus_tag="ctg10_36" class="clusterblast-orf" id="dummy-1_q2_0_all"  />
<polygon points="261,35 266,30 271,30 271,40 266,40 261,35 " style="fill:white; stroke-width:1; stroke:black; " description="&lt;b&gt;ctg10_37&lt;/b&gt;&lt;br&gt;ctg10 37&lt;br&gt;Location: 37270 - 38713" locus_tag="ctg10_37" class="clusterblast-orf" id="dummy-1_q3_0_all"  />
<polygon points="272,35 277,30 279,30 279,40 277,40 272,35 " style="fill:white; stroke-width:1; stroke:black; " description="&lt;b&gt;ctg10_38&lt;/b&gt;&lt;br&gt;ctg10 38&lt;br&gt;Location: 38863 - 39928" locus_tag="ctg10_38" class="clusterblast-orf" id="dummy-1_q4_0_all"  />
<polygon points="279,35 284,30 296,30 296,40 284,40 279,35 " style="fill:white; stroke-width:1; stroke:black; " description="&lt;b&gt;ctg10_39&lt;/b&gt;&lt;br&gt;ctg10 39&lt;br&gt;Location: 39917 - 42413" locus_tag="ctg10_39" class="clusterblast-orf" id="dummy-1_q5_0_all"  />
<polygon points="296,35 301,30 301,30 301,40 301,40 296,35 " style="fill:white; stroke-width:1; stroke:black; " description="&lt;b&gt;ctg10_40&lt;/b&gt;&lt;br&gt;ctg10 40&lt;br&gt;Location: 42381 - 43050" locus_tag="ctg10_40" class="clusterblast-orf" id="dummy-1_q6_0_all"  />
<polygon points="302,40 302,40 307,35 302,30 302,30 302,40 " style="fill:white; stroke-width:1; stroke:black; " description="&lt;b&gt;ctg10_41&lt;/b&gt;&lt;br&gt;ctg10 41&lt;br&gt;Location: 43324 - 43999" locus_tag="ctg10_41" class="clusterblast-orf" id="dummy-1_q7_0_all"  />
<polygon points="308,40 308,35 308,30 308,40 " style="fill:white; stroke-width:1; stroke:black; " description="&lt;b&gt;ctg10_42&lt;/b&gt;&lt;br&gt;ctg10 42&lt;br&gt;Location: 44090 - 44192" locus_tag="ctg10_42" class="clusterblast-orf" id="dummy-1_q8_0_all"  />
<polygon points="308,40 314,40 319,35 314,30 308,30 308,40 " style="fill:white; stroke-width:1; stroke:black; " description="&lt;b&gt;ctg10_43&lt;/b&gt;&lt;br&gt;ctg10 43&lt;br&gt;Location: 44188 - 45844" locus_tag="ctg10_43" class="clusterblast-orf" id="dummy-1_q9_0_all"  />
<polygon points="320,40 325,40 330,35 325,30 320,30 320,40 " style="fill:white; stroke-width:1; stroke:black; " description="&lt;b&gt;ctg10_44&lt;/b&gt;&lt;br&gt;ctg10 44&lt;br&gt;Location: 45870 - 47388" locus_tag="ctg10_44" class="clusterblast-orf" id="dummy-1_q10_0_all"  />
<polygon points="330,35 335,30 335,30 335,40 335,40 330,35 " style="fill:white; stroke-width:1; stroke:black; " description="&lt;b&gt;ctg10_45&lt;/b&gt;&lt;br&gt;ctg10 45&lt;br&gt;Location: 47409 - 48123" locus_tag="ctg10_45" class="clusterblast-orf" id="dummy-1_q11_0_all"  />
<polygon points="335,35 340,30 340,30 340,40 340,40 335,35 " style="fill:white; stroke-width:1; stroke:black; " description="&lt;b&gt;ctg10_46&lt;/b&gt;&lt;br&gt;ctg10 46&lt;br&gt;Location: 48122 - 48875" locus_tag="ctg10_46" class="clusterblast-orf" id="dummy-1_q12_0_all"  />
<polygon points="340,35 345,30 348,30 348,40 345,40 340,35 " style="fill:white; stroke-width:1; stroke:black; " description="&lt;b&gt;ctg10_47&lt;/b&gt;&lt;br&gt;ctg10 47&lt;br&gt;Location: 48883 - 50077" locus_tag="ctg10_47" class="clusterblast-orf" id="dummy-1_q13_0_all"  />
<polygon points="348,35 353,30 354,30 354,40 353,40 348,35 " style="fill:white; stroke-width:1; stroke:black; " description="&lt;b&gt;ctg10_48&lt;/b&gt;&lt;br&gt;ctg10 48&lt;br&gt;Location: 50063 - 50870" locus_tag="ctg10_48" class="clusterblast-orf" id="dummy-1_q14_0_all"  />
<polygon points="353,35 358,30 359,30 359,40 358,40 353,35 " style="fill:white; stroke-width:1; stroke:black; " description="&lt;b&gt;ctg10_49&lt;/b&gt;&lt;br&gt;ctg10 49&lt;br&gt;Location: 50866 - 51724" locus_tag="ctg10_49" class="clusterblast-orf" id="dummy-1_q15_0_all"  />
<polygon points="368,35 373,30 411,30 411,40 373,40 368,35 " style="fill:#d81515; stroke-width:1; stroke:black; " description="&lt;b&gt;ctg10_50&lt;/b&gt;&lt;br&gt;ctg10 50&lt;br&gt;Location: 53043 - 59313" locus_tag="ctg10_50" class="clusterblast-orf" id="dummy-1_q16_0_all"  />
<polygon points="414,40 414,40 419,35 414,30 414,30 414,40 " style="fill:#4dd815; stroke-width:1; stroke:black; " description="&lt;b&gt;ctg10_51&lt;/b&gt;&lt;br&gt;ctg10 51&lt;br&gt;Location: 59800 - 60595" locus_tag="ctg10_51" class="clusterblast-orf" id="dummy-1_q17_0_all"  />
<polygon points="419,40 424,40 429,35 424,30 419,30 419,40 " style="fill:#1585d8; stroke-width:1; stroke:black; " description="&lt;b&gt;ctg10_52&lt;/b&gt;&lt;br&gt;ctg10 52&lt;br&gt;Location: 60594 - 62064" locus_tag="ctg10_52" class="clusterblast-orf" id="dummy-1_q18_0_all"  />
<polygon points="429,35 434,30 435,30 435,40 434,40 429,35 " style="fill:white; stroke-width:1; stroke:black; " description="&lt;b&gt;ctg10_53&lt;/b&gt;&lt;br&gt;ctg10 53&lt;br&gt;Location: 61990 - 62851" locus_tag="ctg10_53" class="clusterblast-orf" id="dummy-1_q19_0_all"  />
<polygon points="436,40 440,35 436,30 436,40 " style="fill:white; stroke-width:1; stroke:black; " description="&lt;b&gt;ctg10_54&lt;/b&gt;&lt;br&gt;ctg10 54&lt;br&gt;Location: 62979 - 63645" locus_tag="ctg10_54" class="clusterblast-orf" id="dummy-1_q20_0_all"  />
<polygon points="440,40 440,40 445,35 440,30 440,30 440,40 " style="fill:white; stroke-width:1; stroke:black; " description="&lt;b&gt;ctg10_55&lt;/b&gt;&lt;br&gt;ctg10 55&lt;br&gt;Location: 63641 - 64412" locus_tag="ctg10_55" class="clusterblast-orf" id="dummy-1_q21_0_all"  />
<polygon points="445,40 450,40 455,35 450,30 445,30 445,40 " style="fill:white; stroke-width:1; stroke:black; " description="&lt;b&gt;ctg10_56&lt;/b&gt;&lt;br&gt;ctg10 56&lt;br&gt;Location: 64417 - 65878" locus_tag="ctg10_56" class="clusterblast-orf" id="dummy-1_q22_0_all"  />
<polygon points="456,40 456,40 461,35 456,30 456,30 456,40 " style="fill:white; stroke-width:1; stroke:black; " description="&lt;b&gt;ctg10_57&lt;/b&gt;&lt;br&gt;ctg10 57&lt;br&gt;Location: 65924 - 66782" locus_tag="ctg10_57" class="clusterblast-orf" id="dummy-1_q23_0_all"  />
<polygon points="461,40 464,35 461,30 461,40 " style="fill:white; stroke-width:1; stroke:black; " description="&lt;b&gt;ctg10_58&lt;/b&gt;&lt;br&gt;ctg10 58&lt;br&gt;Location: 66797 - 67190" locus_tag="ctg10_58" class="clusterblast-orf" id="dummy-1_q24_0_all"  />
<polygon points="464,40 468,40 473,35 468,30 464,30 464,40 " style="fill:#d815bc; stroke-width:1; stroke:black; " description="&lt;b&gt;ctg10_59&lt;/b&gt;&lt;br&gt;ctg10 59&lt;br&gt;Location: 67235 - 68540" locus_tag="ctg10_59" class="clusterblast-orf" id="dummy-1_q25_0_all"  />
<polygon points="473,40 474,40 479,35 474,30 473,30 473,40 " style="fill:white; stroke-width:1; stroke:black; " description="&lt;b&gt;ctg10_60&lt;/b&gt;&lt;br&gt;ctg10 60&lt;br&gt;Location: 68551 - 69355" locus_tag="ctg10_60" class="clusterblast-orf" id="dummy-1_q26_0_all"  />
<polygon points="479,40 479,40 484,35 479,30 479,30 479,40 " style="fill:white; stroke-width:1; stroke:black; " description="&lt;b&gt;ctg10_61&lt;/b&gt;&lt;br&gt;ctg10 61&lt;br&gt;Location: 69370 - 70171" locus_tag="ctg10_61" class="clusterblast-orf" id="dummy-1_q27_0_all"  />
<polygon points="485,35 488,30 488,40 485,35 " style="fill:white; stroke-width:1; stroke:black; " description="&lt;b&gt;ctg10_62&lt;/b&gt;&lt;br&gt;ctg10 62&lt;br&gt;Location: 70296 - 70719" locus_tag="ctg10_62" class="clusterblast-orf" id="dummy-1_q28_0_all"  />
<polygon points="489,40 493,40 498,35 493,30 489,30 489,40 " style="fill:white; stroke-width:1; stroke:black; " description="&lt;b&gt;ctg10_63&lt;/b&gt;&lt;br&gt;ctg10 63&lt;br&gt;Location: 70927 - 72226" locus_tag="ctg10_63" class="clusterblast-orf" id="dummy-1_q29_0_all"  />
<polygon points="498,40 501,35 498,30 498,40 " style="fill:white; stroke-width:1; stroke:black; " description="&lt;b&gt;ctg10_64&lt;/b&gt;&lt;br&gt;ctg10 64&lt;br&gt;Location: 72255 - 72621" locus_tag="ctg10_64" class="clusterblast-orf" id="dummy-1_q30_0_all"  />
<polygon points="501,40 502,40 507,35 502,30 501,30 501,40 " style="fill:#d8bc15; stroke-width:1; stroke:black; " description="&lt;b&gt;ctg10_65&lt;/b&gt;&lt;br&gt;ctg10 65&lt;br&gt;Location: 72633 - 73455" locus_tag="ctg10_65" class="clusterblast-orf" id="dummy-1_q31_0_all"  />
<polygon points="507,40 507,40 512,35 507,30 507,30 507,40 " style="fill:#15d885; stroke-width:1; stroke:black; " description="&lt;b&gt;ctg10_66&lt;/b&gt;&lt;br&gt;ctg10 66&lt;br&gt;Location: 73447 - 74251" locus_tag="ctg10_66" class="clusterblast-orf" id="dummy-1_q32_0_all"  />
<polygon points="512,40 512,40 517,35 512,30 512,30 512,40 " style="fill:#4d15d8; stroke-width:1; stroke:black; " description="&lt;b&gt;ctg10_67&lt;/b&gt;&lt;br&gt;ctg10 67&lt;br&gt;Location: 74240 - 74996" locus_tag="ctg10_67" class="clusterblast-orf" id="dummy-1_q33_0_all"  />
<polygon points="517,35 522,30 524,30 524,40 522,40 517,35 " style="fill:white; stroke-width:1; stroke:black; " description="&lt;b&gt;ctg10_68&lt;/b&gt;&lt;br&gt;ctg10 68&lt;br&gt;Location: 75057 - 75999" locus_tag="ctg10_68" class="clusterblast-orf" id="dummy-1_q34_0_all"  />
<polygon points="525,35 529,30 529,40 525,35 " style="fill:white; stroke-width:1; stroke:black; " description="&lt;b&gt;ctg10_69&lt;/b&gt;&lt;br&gt;ctg10 69&lt;br&gt;Location: 76110 - 76698" locus_tag="ctg10_69" class="clusterblast-orf" id="dummy-1_q35_0_all"  />
<polygon points="528,35 533,30 539,30 539,40 533,40 528,35 " style="fill:white; stroke-width:1; stroke:black; " description="&lt;b&gt;ctg10_70&lt;/b&gt;&lt;br&gt;ctg10 70&lt;br&gt;Location: 76669 - 78169" locus_tag="ctg10_70" class="clusterblast-orf" id="dummy-1_q36_0_all"  />
</g>
<g label="BGC0001416" description="BGC0001416_c1: nunapeptin/nunamycin (35% of genes show similarity), NRP" class="clusterblast-cluster"  >
<text x="5" y="70" class="clusterblast-acc"  >
<a xlink:href="https://mibig.secondarymetabolites.org/go/BGC0001416/1" target="_blank">BGC0001416</a>: nunapeptin/nunamycin                                                             (35% of genes show similarity), NRP</text>
<line x1="10" y1="85" x2="778.0" y2="85" style="stroke-width:1; stroke:grey; "  />
</g>
<g id="a1_000"  >
<polygon points="0,85 5,80 209,80 209,90 5,90 0,85 " style="fill:#d81515; stroke-width:1; stroke:black; " description="&lt;b&gt;AL066_08515&lt;/b&gt;&lt;br&gt;NupC&lt;br&gt;Location: 115071 - 84238&lt;br&gt;&lt;br&gt;&lt;b&gt;BlastP hit with ctg10_50&lt;/b&gt;&lt;br&gt;Percentage identity: 50&lt;br&gt;Percentage coverage: 84&lt;br&gt;BLAST bit score: 1504&lt;br&gt;E-value: 0.0" locus_tag="AL066_08515" class="clusterblast-orf" id="dummy-1_h1_4_0"  />
</g>
<g id="a1_001"  >
<polygon points="211,85 216,80 300,80 300,90 216,90 211,85 " style="fill:#d81515; stroke-width:1; stroke:black; " description="&lt;b&gt;AL066_08510&lt;/b&gt;&lt;br&gt;NupB&lt;br&gt;Location: 83899 - 70772&lt;br&gt;&lt;br&gt;&lt;b&gt;BlastP hit with ctg10_50&lt;/b&gt;&lt;br&gt;Percentage identity: 50&lt;br&gt;Percentage coverage: 83&lt;br&gt;BLAST bit score: 1536&lt;br&gt;E-value: 0.0" locus_tag="AL066_08510" class="clusterblast-orf" id="dummy-1_h1_4_1"  />
</g>
<g id="a1_002"  >
<polygon points="300,85 305,80 496,80 496,90 305,90 300,85 " style="fill:#d81515; stroke-width:1; stroke:black; " description="&lt;b&gt;AL066_08505&lt;/b&gt;&lt;br&gt;NupA&lt;br&gt;Location: 70775 - 41868&lt;br&gt;&lt;br&gt;&lt;b&gt;BlastP hit with ctg10_50&lt;/b&gt;&lt;br&gt;Percentage identity: 51&lt;br&gt;Percentage coverage: 103&lt;br&gt;BLAST bit score: 1954&lt;br&gt;E-value: 0.0" locus_tag="AL066_08505" class="clusterblast-orf" id="dummy-1_h1_4_2"  />
</g>
<g id="a1_003"  >
<polygon points="497,85 502,80 509,80 509,90 502,90 497,85 " style="fill:white; stroke-width:1; stroke:black; " description="&lt;b&gt;AL066_08500&lt;/b&gt;&lt;br&gt;NupD&lt;br&gt;Location: 41643 - 39913" locus_tag="AL066_08500" class="clusterblast-orf" id="dummy-1_h1_4_3"  />
</g>
<g id="a1_004"  >
<polygon points="510,85 515,80 517,80 517,90 515,90 510,85 " style="fill:white; stroke-width:1; stroke:black; " description="&lt;b&gt;AL066_08495&lt;/b&gt;&lt;br&gt;NupP&lt;br&gt;Location: 39798 - 38755" locus_tag="AL066_08495" class="clusterblast-orf" id="dummy-1_h1_4_4"  />
</g>
<g id="a1_005"  >
<polygon points="520,90 527,90 532,85 527,80 520,80 520,90 " style="fill:white; stroke-width:1; stroke:black; " description="&lt;b&gt;AL066_08490&lt;/b&gt;&lt;br&gt;NunB1&lt;br&gt;Location: 38315 - 36456" locus_tag="AL066_08490" class="clusterblast-orf" id="dummy-1_h1_4_5"  />
</g>
<g id="a1_006"  >
<polygon points="532,90 534,90 539,85 534,80 532,80 532,90 " style="fill:white; stroke-width:1; stroke:black; " description="&lt;b&gt;AL066_08485&lt;/b&gt;&lt;br&gt;NunB2&lt;br&gt;Location: 36463 - 35519" locus_tag="AL066_08485" class="clusterblast-orf" id="dummy-1_h1_4_6"  />
</g>
<g id="a1_007"  >
<polygon points="539,90 542,90 547,85 542,80 539,80 539,90 " style="fill:white; stroke-width:1; stroke:black; " description="&lt;b&gt;AL066_08480&lt;/b&gt;&lt;br&gt;NunC&lt;br&gt;Location: 35477 - 34275" locus_tag="AL066_08480" class="clusterblast-orf" id="dummy-1_h1_4_7"  />
</g>
<g id="a1_008"  >
<polygon points="550,85 555,80 559,80 559,90 555,90 550,85 " style="fill:white; stroke-width:1; stroke:black; " description="&lt;b&gt;AL066_08475&lt;/b&gt;&lt;br&gt;class III aminotransferase&lt;br&gt;Location: 33886 - 32522" locus_tag="AL066_08475" class="clusterblast-orf" id="dummy-1_h1_4_8"  />
</g>
<g id="a1_009"  >
<polygon points="559,85 564,80 566,80 566,90 564,90 559,85 " style="fill:white; stroke-width:1; stroke:black; " description="&lt;b&gt;AL066_08470&lt;/b&gt;&lt;br&gt;transcription factor&lt;br&gt;Location: 32525 - 31536" locus_tag="AL066_08470" class="clusterblast-orf" id="dummy-1_h1_4_9"  />
</g>
<g id="a1_0010"  >
<polygon points="569,90 664,90 669,85 664,80 569,80 569,90 " style="fill:white; stroke-width:1; stroke:black; " description="&lt;b&gt;AL066_08465&lt;/b&gt;&lt;br&gt;NunD&lt;br&gt;Location: 31125 - 16291" locus_tag="AL066_08465" class="clusterblast-orf" id="dummy-1_h1_4_10"  />
</g>
<g id="a1_0011"  >
<polygon points="669,90 756,90 761,85 756,80 669,80 669,90 " style="fill:white; stroke-width:1; stroke:black; " description="&lt;b&gt;AL066_08460&lt;/b&gt;&lt;br&gt;NunE&lt;br&gt;Location: 16287 - 2722" locus_tag="AL066_08460" class="clusterblast-orf" id="dummy-1_h1_4_11"  />
</g>
<g id="a1_0012"  >
<polygon points="764,90 764,90 769,85 764,80 764,80 764,90 " style="fill:#4dd815; stroke-width:1; stroke:black; " description="&lt;b&gt;AL066_08455&lt;/b&gt;&lt;br&gt;NunF&lt;br&gt;Location: 2310 - 1477&lt;br&gt;&lt;br&gt;&lt;b&gt;BlastP hit with ctg10_51&lt;/b&gt;&lt;br&gt;Percentage identity: 54&lt;br&gt;Percentage coverage: 105&lt;br&gt;BLAST bit score: 270&lt;br&gt;E-value: 6.97e-91" locus_tag="AL066_08455" class="clusterblast-orf" id="dummy-1_h1_4_12"  />
</g>
<g id="a1_0013"  >
<polygon points="770,90 775,90 780,85 775,80 770,80 770,90 " style="fill:#1585d8; stroke-width:1; stroke:black; " description="&lt;b&gt;AL066_08450&lt;/b&gt;&lt;br&gt;NunG&lt;br&gt;Location: 1419 - 1&lt;br&gt;&lt;br&gt;&lt;b&gt;BlastP hit with ctg10_52&lt;/b&gt;&lt;br&gt;Percentage identity: 70&lt;br&gt;Percentage coverage: 95&lt;br&gt;BLAST bit score: 625&lt;br&gt;E-value: 2.95e-224" locus_tag="AL066_08450" class="clusterblast-orf" id="dummy-1_h1_4_13"  />
</g>
</svg>
