<svg xmlns="http://www.w3.org/2000/svg" xmlns:xlink="http://www.w3.org/1999/xlink" version="1.1" x="0" y="0" height="50" width="800" viewBox="0 0 800 50" preserveAspectRatio="none"  >
<g label="Query sequence" class="clusterblast-cluster"  >
<text x="5" y="20" class="clusterblast-acc"  >
Query sequence</text>
<line x1="10" y1="35" x2="778.0" y2="35" style="stroke-width:1; stroke:grey; "  />
<polygon points="0,40 129,40 134,35 129,30 0,30 0,40 " style="fill:white; stroke-width:1; stroke:black; " description="&lt;b&gt;ctg2_135&lt;/b&gt;&lt;br&gt;ctg2 135&lt;br&gt;Location: 140706 - 142707" locus_tag="ctg2_135" class="clusterblast-orf" id="subclusterblast-1_q0_0_all"  />
<polygon points="143,40 256,40 261,35 256,30 143,30 143,40 " style="fill:white; stroke-width:1; stroke:black; " description="&lt;b&gt;ctg2_136&lt;/b&gt;&lt;br&gt;ctg2 136&lt;br&gt;Location: 142842 - 144615" locus_tag="ctg2_136" class="clusterblast-orf" id="subclusterblast-1_q1_0_all"  />
<polygon points="261,40 373,40 378,35 373,30 261,30 261,40 " style="fill:white; stroke-width:1; stroke:black; " description="&lt;b&gt;ctg2_137&lt;/b&gt;&lt;br&gt;ctg2 137&lt;br&gt;Location: 144618 - 146367" locus_tag="ctg2_137" class="clusterblast-orf" id="subclusterblast-1_q2_0_all"  />
<polygon points="389,40 463,40 468,35 463,30 389,30 389,40 " style="fill:white; stroke-width:1; stroke:black; " description="&lt;b&gt;ctg2_138&lt;/b&gt;&lt;br&gt;ctg2 138&lt;br&gt;Location: 146538 - 147723" locus_tag="ctg2_138" class="clusterblast-orf" id="subclusterblast-1_q3_0_all"  />
<polygon points="472,40 482,40 487,35 482,30 472,30 472,40 " style="fill:white; stroke-width:1; stroke:black; " description="&lt;b&gt;ctg2_139&lt;/b&gt;&lt;br&gt;ctg2 139&lt;br&gt;Location: 147782 - 148010" locus_tag="ctg2_139" class="clusterblast-orf" id="subclusterblast-1_q4_0_all"  />
<polygon points="488,35 493,30 501,30 501,40 493,40 488,35 " style="fill:white; stroke-width:1; stroke:black; " description="&lt;b&gt;ctg2_140&lt;/b&gt;&lt;br&gt;ctg2 140&lt;br&gt;Location: 148017 - 148221" locus_tag="ctg2_140" class="clusterblast-orf" id="subclusterblast-1_q5_0_all"  />
<polygon points="517,35 522,30 572,30 572,40 522,40 517,35 " style="fill:white; stroke-width:1; stroke:black; " description="&lt;b&gt;ctg2_141&lt;/b&gt;&lt;br&gt;ctg2 141&lt;br&gt;Location: 148462 - 149278" locus_tag="ctg2_141" class="clusterblast-orf" id="subclusterblast-1_q6_0_all"  />
<polygon points="594,40 599,40 604,35 599,30 594,30 594,40 " style="fill:white; stroke-width:1; stroke:black; " description="&lt;b&gt;ctg2_142&lt;/b&gt;&lt;br&gt;ctg2 142&lt;br&gt;Location: 149607 - 149760" locus_tag="ctg2_142" class="clusterblast-orf" id="subclusterblast-1_q7_0_all"  />
<polygon points="608,35 613,30 747,30 747,40 613,40 608,35 " style="fill:white; stroke-width:1; stroke:black; " description="&lt;b&gt;ctg2_143&lt;/b&gt;&lt;br&gt;ctg2 143&lt;br&gt;Location: 149814 - 151902" locus_tag="ctg2_143" class="clusterblast-orf" id="subclusterblast-1_q8_0_all"  />
<polygon points="767,35 772,30 780,30 780,40 772,40 767,35 " style="fill:white; stroke-width:1; stroke:black; " description="&lt;b&gt;ctg2_144&lt;/b&gt;&lt;br&gt;ctg2 144&lt;br&gt;Location: 152209 - 152401" locus_tag="ctg2_144" class="clusterblast-orf" id="subclusterblast-1_q9_0_all"  />
</g>
</svg>
