<svg xmlns="http://www.w3.org/2000/svg" xmlns:xlink="http://www.w3.org/1999/xlink" version="1.1" x="0" y="0" height="50" width="800" viewBox="0 0 800 50" preserveAspectRatio="none"  >
<g label="Query sequence" class="clusterblast-cluster"  >
<text x="5" y="20" class="clusterblast-acc"  >
Query sequence</text>
<line x1="10" y1="35" x2="778.0" y2="35" style="stroke-width:1; stroke:grey; "  />
<polygon points="0,35 5,30 71,30 71,40 5,40 0,35 " style="fill:white; stroke-width:1; stroke:black; " description="&lt;b&gt;ctg2_315&lt;/b&gt;&lt;br&gt;ctg2 315&lt;br&gt;Location: 333808 - 334849" locus_tag="ctg2_315" class="clusterblast-orf" id="subclusterblast-3_q0_0_all"  />
<polygon points="94,40 160,40 165,35 160,30 94,30 94,40 " style="fill:white; stroke-width:1; stroke:black; " description="&lt;b&gt;ctg2_316&lt;/b&gt;&lt;br&gt;ctg2 316&lt;br&gt;Location: 335192 - 336251" locus_tag="ctg2_316" class="clusterblast-orf" id="subclusterblast-3_q1_0_all"  />
<polygon points="165,40 204,40 209,35 204,30 165,30 165,40 " style="fill:white; stroke-width:1; stroke:black; " description="&lt;b&gt;ctg2_317&lt;/b&gt;&lt;br&gt;ctg2 317&lt;br&gt;Location: 336250 - 336901" locus_tag="ctg2_317" class="clusterblast-orf" id="subclusterblast-3_q2_0_all"  />
<polygon points="210,40 253,40 258,35 253,30 210,30 210,40 " style="fill:white; stroke-width:1; stroke:black; " description="&lt;b&gt;ctg2_318&lt;/b&gt;&lt;br&gt;ctg2 318&lt;br&gt;Location: 336909 - 337623" locus_tag="ctg2_318" class="clusterblast-orf" id="subclusterblast-3_q3_0_all"  />
<polygon points="284,40 292,40 297,35 292,30 284,30 284,40 " style="fill:white; stroke-width:1; stroke:black; " description="&lt;b&gt;ctg2_319&lt;/b&gt;&lt;br&gt;ctg2 319&lt;br&gt;Location: 337999 - 338188" locus_tag="ctg2_319" class="clusterblast-orf" id="subclusterblast-3_q4_0_all"  />
<polygon points="322,40 448,40 453,35 448,30 322,30 322,40 " style="fill:white; stroke-width:1; stroke:black; " description="&lt;b&gt;ctg2_320&lt;/b&gt;&lt;br&gt;ctg2 320&lt;br&gt;Location: 338570 - 340496" locus_tag="ctg2_320" class="clusterblast-orf" id="subclusterblast-3_q5_0_all"  />
<polygon points="452,40 529,40 534,35 529,30 452,30 452,40 " style="fill:white; stroke-width:1; stroke:black; " description="&lt;b&gt;ctg2_321&lt;/b&gt;&lt;br&gt;ctg2 321&lt;br&gt;Location: 340485 - 341697" locus_tag="ctg2_321" class="clusterblast-orf" id="subclusterblast-3_q6_0_all"  />
<polygon points="535,40 673,40 678,35 673,30 535,30 535,40 " style="fill:white; stroke-width:1; stroke:black; " description="&lt;b&gt;ctg2_322&lt;/b&gt;&lt;br&gt;ctg2 322&lt;br&gt;Location: 341708 - 343829" locus_tag="ctg2_322" class="clusterblast-orf" id="subclusterblast-3_q7_0_all"  />
<polygon points="685,35 690,30 722,30 722,40 690,40 685,35 " style="fill:white; stroke-width:1; stroke:black; " description="&lt;b&gt;ctg2_323&lt;/b&gt;&lt;br&gt;ctg2 323&lt;br&gt;Location: 343931 - 344477" locus_tag="ctg2_323" class="clusterblast-orf" id="subclusterblast-3_q8_0_all"  />
<polygon points="724,35 729,30 780,30 780,40 729,40 724,35 " style="fill:white; stroke-width:1; stroke:black; " description="&lt;b&gt;ctg2_324&lt;/b&gt;&lt;br&gt;ctg2 324&lt;br&gt;Location: 344502 - 345336" locus_tag="ctg2_324" class="clusterblast-orf" id="subclusterblast-3_q9_0_all"  />
</g>
</svg>
