<svg xmlns="http://www.w3.org/2000/svg" xmlns:xlink="http://www.w3.org/1999/xlink" version="1.1" x="0" y="0" height="230" width="800" viewBox="0 0 800 230" preserveAspectRatio="none"  >
<g label="Query sequence" class="clusterblast-cluster"  >
<text x="5" y="20" class="clusterblast-acc"  >
Query sequence</text>
<line x1="10" y1="35" x2="778.0" y2="35" style="stroke-width:1; stroke:grey; "  />
<polygon points="0,40 9,40 14,35 9,30 0,30 0,40 " style="fill:#d81515; stroke-width:1; stroke:black; " description="&lt;b&gt;ctg1_49&lt;/b&gt;&lt;br&gt;ctg1 49&lt;br&gt;Location: 54842 - 55322" locus_tag="ctg1_49" class="clusterblast-orf" id="dummy-1_q0_0_all"  />
<polygon points="14,40 31,40 36,35 31,30 14,30 14,40 " style="fill:#60d815; stroke-width:1; stroke:black; " description="&lt;b&gt;ctg1_50&lt;/b&gt;&lt;br&gt;ctg1 50&lt;br&gt;Location: 55318 - 56089" locus_tag="ctg1_50" class="clusterblast-orf" id="dummy-1_q1_0_all"  />
<polygon points="38,35 43,30 101,30 101,40 43,40 38,35 " style="fill:#15abd8; stroke-width:1; stroke:black; " description="&lt;b&gt;ctg1_51&lt;/b&gt;&lt;br&gt;ctg1 51&lt;br&gt;Location: 56168 - 58316" locus_tag="ctg1_51" class="clusterblast-orf" id="dummy-1_q2_0_all"  />
<polygon points="103,40 111,40 116,35 111,30 103,30 103,40 " style="fill:#8d15d8; stroke-width:1; stroke:black; " description="&lt;b&gt;ctg1_52&lt;/b&gt;&lt;br&gt;ctg1 52&lt;br&gt;Location: 58413 - 58866" locus_tag="ctg1_52" class="clusterblast-orf" id="dummy-1_q3_0_all"  />
<polygon points="116,40 124,40 129,35 124,30 116,30 116,40 " style="fill:#d84215; stroke-width:1; stroke:black; " description="&lt;b&gt;ctg1_53&lt;/b&gt;&lt;br&gt;ctg1 53&lt;br&gt;Location: 58858 - 59308" locus_tag="ctg1_53" class="clusterblast-orf" id="dummy-1_q4_0_all"  />
<polygon points="131,35 136,30 147,30 147,40 136,40 131,35 " style="fill:#33d815; stroke-width:1; stroke:black; " description="&lt;b&gt;ctg1_54&lt;/b&gt;&lt;br&gt;ctg1 54&lt;br&gt;Location: 59351 - 59930" locus_tag="ctg1_54" class="clusterblast-orf" id="dummy-1_q5_0_all"  />
<polygon points="149,35 154,30 187,30 187,40 154,40 149,35 " style="fill:#157ed8; stroke-width:1; stroke:black; " description="&lt;b&gt;ctg1_55&lt;/b&gt;&lt;br&gt;ctg1 55&lt;br&gt;Location: 59999 - 61313" locus_tag="ctg1_55" class="clusterblast-orf" id="dummy-1_q6_0_all"  />
<polygon points="189,35 193,30 193,40 189,35 " style="fill:#ba15d8; stroke-width:1; stroke:black; " description="&lt;b&gt;ctg1_56&lt;/b&gt;&lt;br&gt;ctg1 56&lt;br&gt;Location: 61363 - 61519" locus_tag="ctg1_56" class="clusterblast-orf" id="dummy-1_q7_0_all"  />
<polygon points="196,35 201,30 220,30 220,40 201,40 196,35 " style="fill:#d86f15; stroke-width:1; stroke:black; " description="&lt;b&gt;ctg1_57&lt;/b&gt;&lt;br&gt;ctg1 57&lt;br&gt;Location: 61620 - 62427" locus_tag="ctg1_57" class="clusterblast-orf" id="dummy-1_q8_0_all"  />
<polygon points="221,35 226,30 239,30 239,40 226,40 221,35 " style="fill:#15d824; stroke-width:1; stroke:black; " description="&lt;b&gt;ctg1_58&lt;/b&gt;&lt;br&gt;ctg1 58&lt;br&gt;Location: 62455 - 63088" locus_tag="ctg1_58" class="clusterblast-orf" id="dummy-1_q9_0_all"  />
<polygon points="242,40 256,40 261,35 256,30 242,30 242,40 " style="fill:#1551d8; stroke-width:1; stroke:black; " description="&lt;b&gt;ctg1_59&lt;/b&gt;&lt;br&gt;ctg1 59&lt;br&gt;Location: 63199 - 63856" locus_tag="ctg1_59" class="clusterblast-orf" id="dummy-1_q10_0_all"  />
<polygon points="262,35 267,30 280,30 280,40 267,40 262,35 " style="fill:#d815c9; stroke-width:1; stroke:black; " description="&lt;b&gt;ctg1_60&lt;/b&gt;&lt;br&gt;ctg1 60&lt;br&gt;Location: 63869 - 64490" locus_tag="ctg1_60" class="clusterblast-orf" id="dummy-1_q11_0_all"  />
<polygon points="283,40 342,40 347,35 342,30 283,30 283,40 " style="fill:#d89c15; stroke-width:1; stroke:black; " description="&lt;b&gt;ctg1_61&lt;/b&gt;&lt;br&gt;ctg1 61&lt;br&gt;Location: 64623 - 66822" locus_tag="ctg1_61" class="clusterblast-orf" id="dummy-1_q12_0_all"  />
<polygon points="359,40 362,40 367,35 362,30 359,30 359,40 " style="fill:white; stroke-width:1; stroke:black; " description="&lt;b&gt;ctg1_62&lt;/b&gt;&lt;br&gt;ctg1 62&lt;br&gt;Location: 67231 - 67492" locus_tag="ctg1_62" class="clusterblast-orf" id="dummy-1_q13_0_all"  />
<polygon points="375,35 380,30 409,30 409,40 380,40 375,35 " style="fill:#15d851; stroke-width:1; stroke:black; " description="&lt;b&gt;ctg1_63&lt;/b&gt;&lt;br&gt;ctg1 63&lt;br&gt;Location: 67785 - 68952" locus_tag="ctg1_63" class="clusterblast-orf" id="dummy-1_q14_0_all"  />
<polygon points="409,35 414,30 449,30 449,40 414,40 409,35 " style="fill:#1524d8; stroke-width:1; stroke:black; " description="&lt;b&gt;ctg1_64&lt;/b&gt;&lt;br&gt;ctg1 64&lt;br&gt;Location: 68948 - 70325" locus_tag="ctg1_64" class="clusterblast-orf" id="dummy-1_q15_0_all"  />
<polygon points="453,35 458,30 478,30 478,40 458,40 453,35 " style="fill:#d8159c; stroke-width:1; stroke:black; " description="&lt;b&gt;ctg1_65&lt;/b&gt;&lt;br&gt;ctg1 65&lt;br&gt;Location: 70469 - 71321" locus_tag="ctg1_65" class="clusterblast-orf" id="dummy-1_q16_0_all"  />
<polygon points="486,35 491,30 514,30 514,40 491,40 486,35 " style="fill:#d8c915; stroke-width:1; stroke:black; " description="&lt;b&gt;ctg1_66&lt;/b&gt;&lt;br&gt;ctg1 66&lt;br&gt;Location: 71606 - 72584" locus_tag="ctg1_66" class="clusterblast-orf" id="dummy-1_q17_0_all"  />
<polygon points="520,35 525,30 532,30 532,40 525,40 520,35 " style="fill:#15d87e; stroke-width:1; stroke:black; " description="&lt;b&gt;ctg1_67&lt;/b&gt;&lt;br&gt;ctg1 67&lt;br&gt;Location: 72799 - 73192" locus_tag="ctg1_67" class="clusterblast-orf" id="dummy-1_q18_0_all"  />
<polygon points="533,35 538,30 551,30 551,40 538,40 533,35 " style="fill:#3315d8; stroke-width:1; stroke:black; " description="&lt;b&gt;ctg1_68&lt;/b&gt;&lt;br&gt;ctg1 68&lt;br&gt;Location: 73222 - 73843" locus_tag="ctg1_68" class="clusterblast-orf" id="dummy-1_q19_0_all"  />
<polygon points="557,35 562,30 587,30 587,40 562,40 557,35 " style="fill:#d8156f; stroke-width:1; stroke:black; " description="&lt;b&gt;ctg1_69&lt;/b&gt;&lt;br&gt;ctg1 69&lt;br&gt;Location: 74065 - 75085" locus_tag="ctg1_69" class="clusterblast-orf" id="dummy-1_q20_0_all"  />
<polygon points="591,35 596,30 613,30 613,40 596,40 591,35 " style="fill:#bad815; stroke-width:1; stroke:black; " description="&lt;b&gt;ctg1_70&lt;/b&gt;&lt;br&gt;ctg1 70&lt;br&gt;Location: 75224 - 75986" locus_tag="ctg1_70" class="clusterblast-orf" id="dummy-1_q21_0_all"  />
<polygon points="618,35 623,30 638,30 638,40 623,40 618,35 " style="fill:#15d8ab; stroke-width:1; stroke:black; " description="&lt;b&gt;ctg1_71&lt;/b&gt;&lt;br&gt;ctg1 71&lt;br&gt;Location: 76176 - 76836" locus_tag="ctg1_71" class="clusterblast-orf" id="dummy-1_q22_0_all"  />
<polygon points="637,35 642,30 655,30 655,40 642,40 637,35 " style="fill:#6015d8; stroke-width:1; stroke:black; " description="&lt;b&gt;ctg1_72&lt;/b&gt;&lt;br&gt;ctg1 72&lt;br&gt;Location: 76832 - 77432" locus_tag="ctg1_72" class="clusterblast-orf" id="dummy-1_q23_0_all"  />
<polygon points="655,35 660,30 677,30 677,40 660,40 655,35 " style="fill:#bad815; stroke-width:1; stroke:black; " description="&lt;b&gt;ctg1_73&lt;/b&gt;&lt;br&gt;ctg1 73&lt;br&gt;Location: 77428 - 78187" locus_tag="ctg1_73" class="clusterblast-orf" id="dummy-1_q24_0_all"  />
<polygon points="677,35 682,30 706,30 706,40 682,40 677,35 " style="fill:#d81542; stroke-width:1; stroke:black; " description="&lt;b&gt;ctg1_74&lt;/b&gt;&lt;br&gt;ctg1 74&lt;br&gt;Location: 78183 - 79182" locus_tag="ctg1_74" class="clusterblast-orf" id="dummy-1_q25_0_all"  />
<polygon points="706,35 711,30 768,30 768,40 711,40 706,35 " style="fill:#8dd815; stroke-width:1; stroke:black; " description="&lt;b&gt;ctg1_75&lt;/b&gt;&lt;br&gt;ctg1 75&lt;br&gt;Location: 79183 - 81340" locus_tag="ctg1_75" class="clusterblast-orf" id="dummy-1_q26_0_all"  />
<polygon points="772,35 777,30 780,30 780,40 777,40 772,35 " style="fill:#15d8d8; stroke-width:1; stroke:black; " description="&lt;b&gt;ctg1_76&lt;/b&gt;&lt;br&gt;ctg1 76&lt;br&gt;Location: 81471 - 81741" locus_tag="ctg1_76" class="clusterblast-orf" id="dummy-1_q27_0_all"  />
</g>
<g label="NZ_FNOX01000014" description="NZ_FNOX01000014 (172176-199620): Pseudomonas salomonii strain ICMP 14252, who... (55% of genes show similarity), thiopeptide" class="clusterblast-cluster"  >
<text x="5" y="70" class="clusterblast-acc"  >
<a xlink:href="https://antismash-db.secondarymetabolites.org/area.html?record=NZ_FNOX01000014&amp;start=172176&amp;end=199620" target="_blank">NZ_FNOX01000014 (172176-199620)</a>: Pseudomonas salomonii strain ICMP 14252, who... (55% of genes show similarity), thiopeptide</text>
<line x1="10" y1="85" x2="778.0" y2="85" style="stroke-width:1; stroke:grey; "  />
</g>
<g id="a1_000"  >
<polygon points="7,85 12,80 45,80 45,90 12,90 7,85 " style="fill:white; stroke-width:1; stroke:black; " description="&lt;b&gt;BLV67_RS27760&lt;/b&gt;&lt;br&gt;sorbosone dehydrogenase family protein&lt;br&gt;Location: 198604 - 197312" locus_tag="BLV67_RS27760" class="clusterblast-orf" id="dummy-1_h1_4_0"  />
</g>
<g id="a1_001"  >
<polygon points="45,85 50,80 57,80 57,90 50,90 45,85 " style="fill:white; stroke-width:1; stroke:black; " description="&lt;b&gt;BLV67_RS27755&lt;/b&gt;&lt;br&gt;hypothetical protein&lt;br&gt;Location: 197315 - 196890" locus_tag="BLV67_RS27755" class="clusterblast-orf" id="dummy-1_h1_4_1"  />
</g>
<g id="a1_002"  >
<polygon points="61,85 65,80 65,90 61,85 " style="fill:white; stroke-width:1; stroke:black; " description="&lt;b&gt;BLV67_RS27750&lt;/b&gt;&lt;br&gt;GNAT family N-acetyltransferase&lt;br&gt;Location: 196763 - 196632" locus_tag="BLV67_RS27750" class="clusterblast-orf" id="dummy-1_h1_4_2"  />
</g>
<g id="a1_003"  >
<polygon points="66,90 75,90 80,85 75,80 66,80 66,90 " style="fill:#d81515; stroke-width:1; stroke:black; " description="&lt;b&gt;BLV67_RS27745&lt;/b&gt;&lt;br&gt;ATP-binding protein&lt;br&gt;Location: 196582 - 196103&lt;br&gt;&lt;br&gt;&lt;b&gt;BlastP hit with ctg1_49&lt;/b&gt;&lt;br&gt;Percentage identity: 88&lt;br&gt;Percentage coverage: 100&lt;br&gt;BLAST bit score: 288&lt;br&gt;E-value: 8e-100" locus_tag="BLV67_RS27745" class="clusterblast-orf" id="dummy-1_h1_4_3"  />
</g>
<g id="a1_004"  >
<polygon points="80,90 97,90 102,85 97,80 80,80 80,90 " style="fill:#60d815; stroke-width:1; stroke:black; " description="&lt;b&gt;BLV67_RS27740&lt;/b&gt;&lt;br&gt;DNA polymerase III subunit beta&lt;br&gt;Location: 196106 - 195345&lt;br&gt;&lt;br&gt;&lt;b&gt;BlastP hit with ctg1_50&lt;/b&gt;&lt;br&gt;Percentage identity: 72&lt;br&gt;Percentage coverage: 100&lt;br&gt;BLAST bit score: 367&lt;br&gt;E-value: 8.49e-128" locus_tag="BLV67_RS27740" class="clusterblast-orf" id="dummy-1_h1_4_4"  />
</g>
<g id="a1_005"  >
<polygon points="104,85 109,80 160,80 160,90 109,90 104,85 " style="fill:#15abd8; stroke-width:1; stroke:black; " description="&lt;b&gt;BLV67_RS27735&lt;/b&gt;&lt;br&gt;methyl-accepting chemotaxis protein&lt;br&gt;Location: 195286 - 193346&lt;br&gt;&lt;br&gt;&lt;b&gt;BlastP hit with ctg1_51&lt;/b&gt;&lt;br&gt;Percentage identity: 97&lt;br&gt;Percentage coverage: 90&lt;br&gt;BLAST bit score: 1171&lt;br&gt;E-value: 0.0" locus_tag="BLV67_RS27735" class="clusterblast-orf" id="dummy-1_h1_4_5"  />
</g>
<g id="a1_006"  >
<polygon points="166,90 168,90 173,85 168,80 166,80 166,90 " style="fill:white; stroke-width:1; stroke:black; " description="&lt;b&gt;BLV67_RS27730&lt;/b&gt;&lt;br&gt;hypothetical protein&lt;br&gt;Location: 193130 - 192899" locus_tag="BLV67_RS27730" class="clusterblast-orf" id="dummy-1_h1_4_6"  />
</g>
<g id="a1_007"  >
<polygon points="175,90 182,90 187,85 182,80 175,80 175,90 " style="fill:#8d15d8; stroke-width:1; stroke:black; " description="&lt;b&gt;BLV67_RS27725&lt;/b&gt;&lt;br&gt;VOC family protein&lt;br&gt;Location: 192830 - 192399&lt;br&gt;&lt;br&gt;&lt;b&gt;BlastP hit with ctg1_52&lt;/b&gt;&lt;br&gt;Percentage identity: 89&lt;br&gt;Percentage coverage: 91&lt;br&gt;BLAST bit score: 249&lt;br&gt;E-value: 1.15e-84" locus_tag="BLV67_RS27725" class="clusterblast-orf" id="dummy-1_h1_4_7"  />
</g>
<g id="a1_008"  >
<polygon points="187,90 195,90 200,85 195,80 187,80 187,90 " style="fill:#d84215; stroke-width:1; stroke:black; " description="&lt;b&gt;BLV67_RS27720&lt;/b&gt;&lt;br&gt;NUDIX domain-containing protein&lt;br&gt;Location: 192406 - 191957&lt;br&gt;&lt;br&gt;&lt;b&gt;BlastP hit with ctg1_53&lt;/b&gt;&lt;br&gt;Percentage identity: 85&lt;br&gt;Percentage coverage: 100&lt;br&gt;BLAST bit score: 256&lt;br&gt;E-value: 1.71e-87" locus_tag="BLV67_RS27720" class="clusterblast-orf" id="dummy-1_h1_4_8"  />
</g>
<g id="a1_009"  >
<polygon points="200,85 205,80 216,80 216,90 205,90 200,85 " style="fill:#33d815; stroke-width:1; stroke:black; " description="&lt;b&gt;BLV67_RS27715&lt;/b&gt;&lt;br&gt;cysteine hydrolase&lt;br&gt;Location: 191960 - 191400&lt;br&gt;&lt;br&gt;&lt;b&gt;BlastP hit with ctg1_54&lt;/b&gt;&lt;br&gt;Percentage identity: 86&lt;br&gt;Percentage coverage: 95&lt;br&gt;BLAST bit score: 329&lt;br&gt;E-value: 7.64e-115" locus_tag="BLV67_RS27715" class="clusterblast-orf" id="dummy-1_h1_4_9"  />
</g>
<g id="a1_0010"  >
<polygon points="224,85 229,80 242,80 242,90 229,90 224,85 " style="fill:#15d824; stroke-width:1; stroke:black; " description="&lt;b&gt;BLV67_RS27710&lt;/b&gt;&lt;br&gt;TetR/AcrR family transcriptional regulator&lt;br&gt;Location: 191133 - 190501&lt;br&gt;&lt;br&gt;&lt;b&gt;BlastP hit with ctg1_58&lt;/b&gt;&lt;br&gt;Percentage identity: 87&lt;br&gt;Percentage coverage: 99&lt;br&gt;BLAST bit score: 342&lt;br&gt;E-value: 1.69e-119" locus_tag="BLV67_RS27710" class="clusterblast-orf" id="dummy-1_h1_4_10"  />
</g>
<g id="a1_0011"  >
<polygon points="246,90 260,90 265,85 260,80 246,80 246,90 " style="fill:#1551d8; stroke-width:1; stroke:black; " description="&lt;b&gt;BLV67_RS27705&lt;/b&gt;&lt;br&gt;methyltransferase&lt;br&gt;Location: 190380 - 189724&lt;br&gt;&lt;br&gt;&lt;b&gt;BlastP hit with ctg1_59&lt;/b&gt;&lt;br&gt;Percentage identity: 87&lt;br&gt;Percentage coverage: 100&lt;br&gt;BLAST bit score: 372&lt;br&gt;E-value: 4.04e-131" locus_tag="BLV67_RS27705" class="clusterblast-orf" id="dummy-1_h1_4_11"  />
</g>
<g id="a1_0012"  >
<polygon points="268,90 327,90 332,85 327,80 268,80 268,90 " style="fill:#d89c15; stroke-width:1; stroke:black; " description="&lt;b&gt;BLV67_RS27700&lt;/b&gt;&lt;br&gt;OsmC domain/YcaO domain-containing protein&lt;br&gt;Location: 189620 - 187422&lt;br&gt;&lt;br&gt;&lt;b&gt;BlastP hit with ctg1_61&lt;/b&gt;&lt;br&gt;Percentage identity: 96&lt;br&gt;Percentage coverage: 100&lt;br&gt;BLAST bit score: 1428&lt;br&gt;E-value: 0.0" locus_tag="BLV67_RS27700" class="clusterblast-orf" id="dummy-1_h1_4_12"  />
</g>
<g id="a1_0013"  >
<polygon points="342,85 347,80 376,80 376,90 347,90 342,85 " style="fill:#15d851; stroke-width:1; stroke:black; " description="&lt;b&gt;BLV67_RS27695&lt;/b&gt;&lt;br&gt;cystathionine gamma-synthase&lt;br&gt;Location: 187073 - 185907&lt;br&gt;&lt;br&gt;&lt;b&gt;BlastP hit with ctg1_63&lt;/b&gt;&lt;br&gt;Percentage identity: 97&lt;br&gt;Percentage coverage: 100&lt;br&gt;BLAST bit score: 755&lt;br&gt;E-value: 9.09e-277" locus_tag="BLV67_RS27695" class="clusterblast-orf" id="dummy-1_h1_4_13"  />
</g>
<g id="a1_0014"  >
<polygon points="375,85 380,80 415,80 415,90 380,90 375,85 " style="fill:#1524d8; stroke-width:1; stroke:black; " description="&lt;b&gt;BLV67_RS27690&lt;/b&gt;&lt;br&gt;pyridoxal-phosphate dependent enzyme&lt;br&gt;Location: 185910 - 184534&lt;br&gt;&lt;br&gt;&lt;b&gt;BlastP hit with ctg1_64&lt;/b&gt;&lt;br&gt;Percentage identity: 94&lt;br&gt;Percentage coverage: 100&lt;br&gt;BLAST bit score: 847&lt;br&gt;E-value: 8.08e-311" locus_tag="BLV67_RS27690" class="clusterblast-orf" id="dummy-1_h1_4_14"  />
</g>
<g id="a1_0015"  >
<polygon points="419,85 424,80 444,80 444,90 424,90 419,85 " style="fill:#d8159c; stroke-width:1; stroke:black; " description="&lt;b&gt;BLV67_RS27685&lt;/b&gt;&lt;br&gt;4-hydroxy-tetrahydrodipicolinate synthase&lt;br&gt;Location: 184394 - 183543&lt;br&gt;&lt;br&gt;&lt;b&gt;BlastP hit with ctg1_65&lt;/b&gt;&lt;br&gt;Percentage identity: 86&lt;br&gt;Percentage coverage: 100&lt;br&gt;BLAST bit score: 474&lt;br&gt;E-value: 4.77e-169" locus_tag="BLV67_RS27685" class="clusterblast-orf" id="dummy-1_h1_4_15"  />
</g>
<g id="a1_0016"  >
<polygon points="457,85 462,80 471,80 471,90 462,90 457,85 " style="fill:white; stroke-width:1; stroke:black; " description="&lt;b&gt;BLV67_RS27680&lt;/b&gt;&lt;br&gt;VOC family protein&lt;br&gt;Location: 183108 - 182629" locus_tag="BLV67_RS27680" class="clusterblast-orf" id="dummy-1_h1_4_16"  />
</g>
<g id="a1_0017"  >
<polygon points="472,85 477,80 484,80 484,90 477,90 472,85 " style="fill:#15d87e; stroke-width:1; stroke:black; " description="&lt;b&gt;BLV67_RS27675&lt;/b&gt;&lt;br&gt;SnoaL-like domain-containing protein&lt;br&gt;Location: 182578 - 182177&lt;br&gt;&lt;br&gt;&lt;b&gt;BlastP hit with ctg1_67&lt;/b&gt;&lt;br&gt;Percentage identity: 88&lt;br&gt;Percentage coverage: 98&lt;br&gt;BLAST bit score: 239&lt;br&gt;E-value: 4.76e-81" locus_tag="BLV67_RS27675" class="clusterblast-orf" id="dummy-1_h1_4_17"  />
</g>
<g id="a1_0018"  >
<polygon points="485,85 490,80 503,80 503,90 490,90 485,85 " style="fill:#3315d8; stroke-width:1; stroke:black; " description="&lt;b&gt;BLV67_RS27670&lt;/b&gt;&lt;br&gt;LysE family translocator&lt;br&gt;Location: 182122 - 181502&lt;br&gt;&lt;br&gt;&lt;b&gt;BlastP hit with ctg1_68&lt;/b&gt;&lt;br&gt;Percentage identity: 92&lt;br&gt;Percentage coverage: 100&lt;br&gt;BLAST bit score: 363&lt;br&gt;E-value: 5.21e-128" locus_tag="BLV67_RS27670" class="clusterblast-orf" id="dummy-1_h1_4_18"  />
</g>
<g id="a1_0019"  >
<polygon points="509,90 538,90 543,85 538,80 509,80 509,90 " style="fill:white; stroke-width:1; stroke:black; " description="&lt;b&gt;BLV67_RS27665&lt;/b&gt;&lt;br&gt;methyltransferase domain-containing protein&lt;br&gt;Location: 181312 - 180137" locus_tag="BLV67_RS27665" class="clusterblast-orf" id="dummy-1_h1_4_19"  />
</g>
<g id="a1_0020"  >
<polygon points="544,90 547,90 552,85 547,80 544,80 544,90 " style="fill:white; stroke-width:1; stroke:black; " description="&lt;b&gt;BLV67_RS27660&lt;/b&gt;&lt;br&gt;hypothetical protein&lt;br&gt;Location: 180089 - 179832" locus_tag="BLV67_RS27660" class="clusterblast-orf" id="dummy-1_h1_4_20"  />
</g>
<g id="a1_0021"  >
<polygon points="552,90 578,90 583,85 578,80 552,80 552,90 " style="fill:white; stroke-width:1; stroke:black; " description="&lt;b&gt;BLV67_RS27655&lt;/b&gt;&lt;br&gt;GNAT family N-acetyltransferase&lt;br&gt;Location: 179817 - 178750" locus_tag="BLV67_RS27655" class="clusterblast-orf" id="dummy-1_h1_4_21"  />
</g>
<g id="a1_0022"  >
<polygon points="588,90 597,90 602,85 597,80 588,80 588,90 " style="fill:white; stroke-width:1; stroke:black; " description="&lt;b&gt;BLV67_RS27650&lt;/b&gt;&lt;br&gt;DUF2867 domain-containing protein&lt;br&gt;Location: 178589 - 178098" locus_tag="BLV67_RS27650" class="clusterblast-orf" id="dummy-1_h1_4_22"  />
</g>
<g id="a1_0023"  >
<polygon points="611,85 616,80 643,80 643,90 616,90 611,85 " style="fill:white; stroke-width:1; stroke:black; " description="&lt;b&gt;BLV67_RS27645&lt;/b&gt;&lt;br&gt;DUF2971 domain-containing protein&lt;br&gt;Location: 177781 - 176675" locus_tag="BLV67_RS27645" class="clusterblast-orf" id="dummy-1_h1_4_23"  />
</g>
<g id="a1_0024"  >
<polygon points="646,85 651,80 653,80 653,90 651,90 646,85 " style="fill:white; stroke-width:1; stroke:black; " description="&lt;b&gt;BLV67_RS27640&lt;/b&gt;&lt;br&gt;hypothetical protein&lt;br&gt;Location: 176596 - 176327" locus_tag="BLV67_RS27640" class="clusterblast-orf" id="dummy-1_h1_4_24"  />
</g>
<g id="a1_0025"  >
<polygon points="660,85 665,80 704,80 704,90 665,90 660,85 " style="fill:#15abd8; stroke-width:1; stroke:black; " description="&lt;b&gt;BLV67_RS27635&lt;/b&gt;&lt;br&gt;methyl-accepting chemotaxis protein&lt;br&gt;Location: 176090 - 174597&lt;br&gt;&lt;br&gt;&lt;b&gt;BlastP hit with ctg1_51&lt;/b&gt;&lt;br&gt;Percentage identity: 31&lt;br&gt;Percentage coverage: 44&lt;br&gt;BLAST bit score: 114&lt;br&gt;E-value: 1.12e-24" locus_tag="BLV67_RS27635" class="clusterblast-orf" id="dummy-1_h1_4_25"  />
</g>
<g id="a1_0026"  >
<polygon points="709,85 714,80 772,80 772,90 714,90 709,85 " style="fill:white; stroke-width:1; stroke:black; " description="&lt;b&gt;BLV67_RS27630&lt;/b&gt;&lt;br&gt;TonB-dependent siderophore receptor&lt;br&gt;Location: 174411 - 172249" locus_tag="BLV67_RS27630" class="clusterblast-orf" id="dummy-1_h1_4_26"  />
</g>
</svg>
