<svg xmlns="http://www.w3.org/2000/svg" xmlns:xlink="http://www.w3.org/1999/xlink" version="1.1" x="0" y="0" height="230" width="800" viewBox="0 0 800 230" preserveAspectRatio="none"  >
<g label="Query sequence" class="clusterblast-cluster"  >
<text x="5" y="20" class="clusterblast-acc"  >
Query sequence</text>
<line x1="10" y1="35" x2="778.0" y2="35" style="stroke-width:1; stroke:grey; "  />
<polygon points="0,40 76,40 81,35 76,30 0,30 0,40 " style="fill:#d81515; stroke-width:1; stroke:black; " description="&lt;b&gt;ctg4_49&lt;/b&gt;&lt;br&gt;ctg4 49&lt;br&gt;Location: 78638 - 79628" locus_tag="ctg4_49" class="clusterblast-orf" id="dummy-1_q0_0_all"  />
<polygon points="80,40 159,40 164,35 159,30 80,30 80,40 " style="fill:#15d815; stroke-width:1; stroke:black; " description="&lt;b&gt;ctg4_50&lt;/b&gt;&lt;br&gt;ctg4 50&lt;br&gt;Location: 79624 - 80659" locus_tag="ctg4_50" class="clusterblast-orf" id="dummy-1_q1_0_all"  />
<polygon points="164,40 312,40 317,35 312,30 164,30 164,40 " style="fill:#1597d8; stroke-width:1; stroke:black; " description="&lt;b&gt;ctg4_51&lt;/b&gt;&lt;br&gt;ctg4 51&lt;br&gt;Location: 80655 - 82542" locus_tag="ctg4_51" class="clusterblast-orf" id="dummy-1_q2_0_all"  />
<polygon points="326,40 342,40 347,35 342,30 326,30 326,40 " style="fill:#9715d8; stroke-width:1; stroke:black; " description="&lt;b&gt;ctg4_52&lt;/b&gt;&lt;br&gt;ctg4 52&lt;br&gt;Location: 82659 - 82911" locus_tag="ctg4_52" class="clusterblast-orf" id="dummy-1_q3_0_all"  />
<polygon points="352,40 416,40 421,35 416,30 352,30 352,40 " style="fill:#d89715; stroke-width:1; stroke:black; " description="&lt;b&gt;ctg4_53&lt;/b&gt;&lt;br&gt;ctg4 53&lt;br&gt;Location: 82978 - 83824" locus_tag="ctg4_53" class="clusterblast-orf" id="dummy-1_q4_0_all"  />
<polygon points="420,40 479,40 484,35 479,30 420,30 420,40 " style="fill:#15d897; stroke-width:1; stroke:black; " description="&lt;b&gt;ctg4_54&lt;/b&gt;&lt;br&gt;ctg4 54&lt;br&gt;Location: 83814 - 84603" locus_tag="ctg4_54" class="clusterblast-orf" id="dummy-1_q5_0_all"  />
<polygon points="491,40 582,40 587,35 582,30 491,30 491,40 " style="fill:#1515d8; stroke-width:1; stroke:black; " description="&lt;b&gt;ctg4_55&lt;/b&gt;&lt;br&gt;ctg4 55&lt;br&gt;Location: 84690 - 85875" locus_tag="ctg4_55" class="clusterblast-orf" id="dummy-1_q6_0_all"  />
<polygon points="611,35 616,30 727,30 727,40 616,40 611,35 " style="fill:#d81597; stroke-width:1; stroke:black; " description="&lt;b&gt;ctg4_56&lt;/b&gt;&lt;br&gt;ctg4 56&lt;br&gt;Location: 86164 - 87604" locus_tag="ctg4_56" class="clusterblast-orf" id="dummy-1_q7_0_all"  />
<polygon points="738,40 775,40 780,35 775,30 738,30 738,40 " style="fill:#97d815; stroke-width:1; stroke:black; " description="&lt;b&gt;ctg4_57&lt;/b&gt;&lt;br&gt;ctg4 57&lt;br&gt;Location: 87734 - 88256" locus_tag="ctg4_57" class="clusterblast-orf" id="dummy-1_q8_0_all"  />
</g>
<g label="NZ_JACAQV010000030" description="NZ_JACAQV010000030 (77522-88368): Pseudomonas salomonii strain IPO3765 IPO 37... (100% of genes show similarity), bacteriocin" class="clusterblast-cluster"  >
<text x="5" y="70" class="clusterblast-acc"  >
<a xlink:href="https://antismash-db.secondarymetabolites.org/area.html?record=NZ_JACAQV010000030&amp;start=77522&amp;end=88368" target="_blank">NZ_JACAQV010000030 (77522-88368)</a>: Pseudomonas salomonii strain IPO3765 IPO 37... (100% of genes show similarity), bacteriocin</text>
<line x1="10" y1="85" x2="778.0" y2="85" style="stroke-width:1; stroke:grey; "  />
</g>
<g id="a1_000"  >
<polygon points="8,90 83,90 88,85 83,80 8,80 8,90 " style="fill:#d81515; stroke-width:1; stroke:black; " description="&lt;b&gt;HX810_RS27255&lt;/b&gt;&lt;br&gt;protease modulator HflC&lt;br&gt;Location: 87714 - 86722&lt;br&gt;&lt;br&gt;&lt;b&gt;BlastP hit with ctg4_49&lt;/b&gt;&lt;br&gt;Percentage identity: 99&lt;br&gt;Percentage coverage: 94&lt;br&gt;BLAST bit score: 525&lt;br&gt;E-value: 9.04e-188" locus_tag="HX810_RS27255" class="clusterblast-orf" id="dummy-1_h1_4_0"  />
</g>
<g id="a1_001"  >
<polygon points="88,90 167,90 172,85 167,80 88,80 88,90 " style="fill:#15d815; stroke-width:1; stroke:black; " description="&lt;b&gt;HX810_RS27250&lt;/b&gt;&lt;br&gt;protease modulator HflK&lt;br&gt;Location: 86725 - 85691&lt;br&gt;&lt;br&gt;&lt;b&gt;BlastP hit with ctg4_50&lt;/b&gt;&lt;br&gt;Percentage identity: 98&lt;br&gt;Percentage coverage: 100&lt;br&gt;BLAST bit score: 555&lt;br&gt;E-value: 2.55e-199" locus_tag="HX810_RS27250" class="clusterblast-orf" id="dummy-1_h1_4_1"  />
</g>
<g id="a1_002"  >
<polygon points="172,90 320,90 325,85 320,80 172,80 172,90 " style="fill:#1597d8; stroke-width:1; stroke:black; " description="&lt;b&gt;HX810_RS27245&lt;/b&gt;&lt;br&gt;cadmium-translocating P-type ATPase&lt;br&gt;Location: 85694 - 83808&lt;br&gt;&lt;br&gt;&lt;b&gt;BlastP hit with ctg4_51&lt;/b&gt;&lt;br&gt;Percentage identity: 98&lt;br&gt;Percentage coverage: 100&lt;br&gt;BLAST bit score: 1103&lt;br&gt;E-value: 0.0" locus_tag="HX810_RS27245" class="clusterblast-orf" id="dummy-1_h1_4_2"  />
</g>
<g id="a1_003"  >
<polygon points="334,90 350,90 355,85 350,80 334,80 334,90 " style="fill:#9715d8; stroke-width:1; stroke:black; " description="&lt;b&gt;HX810_RS27240&lt;/b&gt;&lt;br&gt;membrane protein&lt;br&gt;Location: 83690 - 83436&lt;br&gt;&lt;br&gt;&lt;b&gt;BlastP hit with ctg4_52&lt;/b&gt;&lt;br&gt;Percentage identity: 86&lt;br&gt;Percentage coverage: 101&lt;br&gt;BLAST bit score: 113&lt;br&gt;E-value: 7.71e-33" locus_tag="HX810_RS27240" class="clusterblast-orf" id="dummy-1_h1_4_3"  />
</g>
<g id="a1_004"  >
<polygon points="360,90 424,90 429,85 424,80 360,80 360,90 " style="fill:#d89715; stroke-width:1; stroke:black; " description="&lt;b&gt;HX810_RS27235&lt;/b&gt;&lt;br&gt;DUF692 domain-containing protein&lt;br&gt;Location: 83368 - 82523&lt;br&gt;&lt;br&gt;&lt;b&gt;BlastP hit with ctg4_53&lt;/b&gt;&lt;br&gt;Percentage identity: 93&lt;br&gt;Percentage coverage: 100&lt;br&gt;BLAST bit score: 534&lt;br&gt;E-value: 4.86e-193" locus_tag="HX810_RS27235" class="clusterblast-orf" id="dummy-1_h1_4_4"  />
</g>
<g id="a1_005"  >
<polygon points="428,90 487,90 492,85 487,80 428,80 428,90 " style="fill:#15d897; stroke-width:1; stroke:black; " description="&lt;b&gt;HX810_RS27230&lt;/b&gt;&lt;br&gt;putative DNA-binding domain-containing protein&lt;br&gt;Location: 82532 - 81744&lt;br&gt;&lt;br&gt;&lt;b&gt;BlastP hit with ctg4_54&lt;/b&gt;&lt;br&gt;Percentage identity: 90&lt;br&gt;Percentage coverage: 100&lt;br&gt;BLAST bit score: 498&lt;br&gt;E-value: 1.69e-179" locus_tag="HX810_RS27230" class="clusterblast-orf" id="dummy-1_h1_4_5"  />
</g>
<g id="a1_006"  >
<polygon points="499,90 590,90 595,85 590,80 499,80 499,90 " style="fill:#1515d8; stroke-width:1; stroke:black; " description="&lt;b&gt;HX810_RS27225&lt;/b&gt;&lt;br&gt;class I SAM-dependent methyltransferase&lt;br&gt;Location: 81655 - 80471&lt;br&gt;&lt;br&gt;&lt;b&gt;BlastP hit with ctg4_55&lt;/b&gt;&lt;br&gt;Percentage identity: 96&lt;br&gt;Percentage coverage: 100&lt;br&gt;BLAST bit score: 777&lt;br&gt;E-value: 2.98e-285" locus_tag="HX810_RS27225" class="clusterblast-orf" id="dummy-1_h1_4_6"  />
</g>
<g id="a1_007"  >
<polygon points="601,85 606,80 718,80 718,90 606,90 601,85 " style="fill:#d81597; stroke-width:1; stroke:black; " description="&lt;b&gt;HX810_RS27220&lt;/b&gt;&lt;br&gt;cardiolipin synthase&lt;br&gt;Location: 80395 - 78956&lt;br&gt;&lt;br&gt;&lt;b&gt;BlastP hit with ctg4_56&lt;/b&gt;&lt;br&gt;Percentage identity: 98&lt;br&gt;Percentage coverage: 100&lt;br&gt;BLAST bit score: 930&lt;br&gt;E-value: 0.0" locus_tag="HX810_RS27220" class="clusterblast-orf" id="dummy-1_h1_4_7"  />
</g>
<g id="a1_008"  >
<polygon points="729,90 766,90 771,85 766,80 729,80 729,90 " style="fill:#97d815; stroke-width:1; stroke:black; " description="&lt;b&gt;HX810_RS27215&lt;/b&gt;&lt;br&gt;DUF3617 domain-containing protein&lt;br&gt;Location: 78825 - 78304&lt;br&gt;&lt;br&gt;&lt;b&gt;BlastP hit with ctg4_57&lt;/b&gt;&lt;br&gt;Percentage identity: 98&lt;br&gt;Percentage coverage: 100&lt;br&gt;BLAST bit score: 337&lt;br&gt;E-value: 1.41e-118" locus_tag="HX810_RS27215" class="clusterblast-orf" id="dummy-1_h1_4_8"  />
</g>
</svg>
