<svg xmlns="http://www.w3.org/2000/svg" xmlns:xlink="http://www.w3.org/1999/xlink" version="1.1" x="0" y="0" height="230" width="800" viewBox="0 0 800 230" preserveAspectRatio="none"  >
<g label="Query sequence" class="clusterblast-cluster"  >
<text x="5" y="20" class="clusterblast-acc"  >
Query sequence</text>
<line x1="10" y1="35" x2="778.0" y2="35" style="stroke-width:1; stroke:grey; "  />
<polygon points="1,35 6,30 14,30 14,40 6,40 1,35 " style="fill:#d81515; stroke-width:1; stroke:black; " description="&lt;b&gt;ctg14_31&lt;/b&gt;&lt;br&gt;ctg14 31&lt;br&gt;Location: 30536 - 31262" locus_tag="ctg14_31" class="clusterblast-orf" id="dummy-1_q0_0_all"  />
<polygon points="16,35 21,30 43,30 43,40 21,40 16,35 " style="fill:#6ed815; stroke-width:1; stroke:black; " description="&lt;b&gt;ctg14_32&lt;/b&gt;&lt;br&gt;ctg14 32&lt;br&gt;Location: 31398 - 32919" locus_tag="ctg14_32" class="clusterblast-orf" id="dummy-1_q1_0_all"  />
<polygon points="43,35 48,30 62,30 62,40 48,40 43,35 " style="fill:#15c8d8; stroke-width:1; stroke:black; " description="&lt;b&gt;ctg14_33&lt;/b&gt;&lt;br&gt;ctg14 33&lt;br&gt;Location: 32932 - 34012" locus_tag="ctg14_33" class="clusterblast-orf" id="dummy-1_q2_0_all"  />
<polygon points="63,35 68,30 80,30 80,40 68,40 63,35 " style="fill:#9015d8; stroke-width:1; stroke:black; " description="&lt;b&gt;ctg14_34&lt;/b&gt;&lt;br&gt;ctg14 34&lt;br&gt;Location: 34039 - 35032" locus_tag="ctg14_34" class="clusterblast-orf" id="dummy-1_q3_0_all"  />
<polygon points="79,35 84,30 106,30 106,40 84,40 79,35 " style="fill:#d83715; stroke-width:1; stroke:black; " description="&lt;b&gt;ctg14_35&lt;/b&gt;&lt;br&gt;ctg14 35&lt;br&gt;Location: 34997 - 36506" locus_tag="ctg14_35" class="clusterblast-orf" id="dummy-1_q4_0_all"  />
<polygon points="107,35 112,30 123,30 123,40 112,40 107,35 " style="fill:#4dd815; stroke-width:1; stroke:black; " description="&lt;b&gt;ctg14_36&lt;/b&gt;&lt;br&gt;ctg14 36&lt;br&gt;Location: 36569 - 37493" locus_tag="ctg14_36" class="clusterblast-orf" id="dummy-1_q5_0_all"  />
<polygon points="129,40 135,40 140,35 135,30 129,30 129,40 " style="fill:#15a6d8; stroke-width:1; stroke:black; " description="&lt;b&gt;ctg14_37&lt;/b&gt;&lt;br&gt;ctg14 37&lt;br&gt;Location: 37810 - 38482" locus_tag="ctg14_37" class="clusterblast-orf" id="dummy-1_q6_0_all"  />
<polygon points="140,40 155,40 160,35 155,30 140,30 140,40 " style="fill:#b115d8; stroke-width:1; stroke:black; " description="&lt;b&gt;ctg14_38&lt;/b&gt;&lt;br&gt;ctg14 38&lt;br&gt;Location: 38484 - 39585" locus_tag="ctg14_38" class="clusterblast-orf" id="dummy-1_q7_0_all"  />
<polygon points="160,35 165,30 186,30 186,40 165,40 160,35 " style="fill:#d85815; stroke-width:1; stroke:black; " description="&lt;b&gt;ctg14_39&lt;/b&gt;&lt;br&gt;ctg14 39&lt;br&gt;Location: 39635 - 41078" locus_tag="ctg14_39" class="clusterblast-orf" id="dummy-1_q8_0_all"  />
<polygon points="188,35 193,30 207,30 207,40 193,40 188,35 " style="fill:#2bd815; stroke-width:1; stroke:black; " description="&lt;b&gt;ctg14_40&lt;/b&gt;&lt;br&gt;ctg14 40&lt;br&gt;Location: 41228 - 42293" locus_tag="ctg14_40" class="clusterblast-orf" id="dummy-1_q9_0_all"  />
<polygon points="207,35 212,30 250,30 250,40 212,40 207,35 " style="fill:#1585d8; stroke-width:1; stroke:black; " description="&lt;b&gt;ctg14_41&lt;/b&gt;&lt;br&gt;ctg14 41&lt;br&gt;Location: 42282 - 44745" locus_tag="ctg14_41" class="clusterblast-orf" id="dummy-1_q10_0_all"  />
<polygon points="250,35 255,30 262,30 262,40 255,40 250,35 " style="fill:#d315d8; stroke-width:1; stroke:black; " description="&lt;b&gt;ctg14_42&lt;/b&gt;&lt;br&gt;ctg14 42&lt;br&gt;Location: 44746 - 45415" locus_tag="ctg14_42" class="clusterblast-orf" id="dummy-1_q11_0_all"  />
<polygon points="266,40 273,40 278,35 273,30 266,30 266,40 " style="fill:#d87915; stroke-width:1; stroke:black; " description="&lt;b&gt;ctg14_43&lt;/b&gt;&lt;br&gt;ctg14 43&lt;br&gt;Location: 45689 - 46364" locus_tag="ctg14_43" class="clusterblast-orf" id="dummy-1_q12_0_all"  />
<polygon points="280,40 282,35 280,30 280,40 " style="fill:white; stroke-width:1; stroke:black; " description="&lt;b&gt;ctg14_44&lt;/b&gt;&lt;br&gt;ctg14 44&lt;br&gt;Location: 46455 - 46557" locus_tag="ctg14_44" class="clusterblast-orf" id="dummy-1_q13_0_all"  />
<polygon points="282,40 305,40 310,35 305,30 282,30 282,40 " style="fill:#15d820; stroke-width:1; stroke:black; " description="&lt;b&gt;ctg14_45&lt;/b&gt;&lt;br&gt;ctg14 45&lt;br&gt;Location: 46553 - 48209" locus_tag="ctg14_45" class="clusterblast-orf" id="dummy-1_q14_0_all"  />
<polygon points="311,40 332,40 337,35 332,30 311,30 311,40 " style="fill:#1563d8; stroke-width:1; stroke:black; " description="&lt;b&gt;ctg14_46&lt;/b&gt;&lt;br&gt;ctg14 46&lt;br&gt;Location: 48235 - 49753" locus_tag="ctg14_46" class="clusterblast-orf" id="dummy-1_q15_0_all"  />
<polygon points="338,35 343,30 448,30 448,40 343,40 338,35 " style="fill:#d815bc; stroke-width:1; stroke:black; " description="&lt;b&gt;ctg14_47&lt;/b&gt;&lt;br&gt;ctg14 47&lt;br&gt;Location: 49808 - 56078" locus_tag="ctg14_47" class="clusterblast-orf" id="dummy-1_q16_0_all"  />
<polygon points="457,40 466,40 471,35 466,30 457,30 457,40 " style="fill:#d89b15; stroke-width:1; stroke:black; " description="&lt;b&gt;ctg14_48&lt;/b&gt;&lt;br&gt;ctg14 48&lt;br&gt;Location: 56565 - 57360" locus_tag="ctg14_48" class="clusterblast-orf" id="dummy-1_q17_0_all"  />
<polygon points="471,40 491,40 496,35 491,30 471,30 471,40 " style="fill:#15d842; stroke-width:1; stroke:black; " description="&lt;b&gt;ctg14_49&lt;/b&gt;&lt;br&gt;ctg14 49&lt;br&gt;Location: 57359 - 58829" locus_tag="ctg14_49" class="clusterblast-orf" id="dummy-1_q18_0_all"  />
<polygon points="495,35 500,30 510,30 510,40 500,40 495,35 " style="fill:#1542d8; stroke-width:1; stroke:black; " description="&lt;b&gt;ctg14_50&lt;/b&gt;&lt;br&gt;ctg14 50&lt;br&gt;Location: 58755 - 59616" locus_tag="ctg14_50" class="clusterblast-orf" id="dummy-1_q19_0_all"  />
<polygon points="512,40 519,40 524,35 519,30 512,30 512,40 " style="fill:#d8159b; stroke-width:1; stroke:black; " description="&lt;b&gt;ctg14_51&lt;/b&gt;&lt;br&gt;ctg14 51&lt;br&gt;Location: 59744 - 60410" locus_tag="ctg14_51" class="clusterblast-orf" id="dummy-1_q20_0_all"  />
<polygon points="524,40 532,40 537,35 532,30 524,30 524,40 " style="fill:#d8159b; stroke-width:1; stroke:black; " description="&lt;b&gt;ctg14_52&lt;/b&gt;&lt;br&gt;ctg14 52&lt;br&gt;Location: 60406 - 61177" locus_tag="ctg14_52" class="clusterblast-orf" id="dummy-1_q21_0_all"  />
<polygon points="537,40 558,40 563,35 558,30 537,30 537,40 " style="fill:#d8bc15; stroke-width:1; stroke:black; " description="&lt;b&gt;ctg14_53&lt;/b&gt;&lt;br&gt;ctg14 53&lt;br&gt;Location: 61182 - 62643" locus_tag="ctg14_53" class="clusterblast-orf" id="dummy-1_q22_0_all"  />
<polygon points="564,40 574,40 579,35 574,30 564,30 564,40 " style="fill:#15d863; stroke-width:1; stroke:black; " description="&lt;b&gt;ctg14_54&lt;/b&gt;&lt;br&gt;ctg14 54&lt;br&gt;Location: 62689 - 63547" locus_tag="ctg14_54" class="clusterblast-orf" id="dummy-1_q23_0_all"  />
<polygon points="579,40 581,40 586,35 581,30 579,30 579,40 " style="fill:#1520d8; stroke-width:1; stroke:black; " description="&lt;b&gt;ctg14_55&lt;/b&gt;&lt;br&gt;ctg14 55&lt;br&gt;Location: 63562 - 63955" locus_tag="ctg14_55" class="clusterblast-orf" id="dummy-1_q24_0_all"  />
<polygon points="587,40 605,40 610,35 605,30 587,30 587,40 " style="fill:#d81579; stroke-width:1; stroke:black; " description="&lt;b&gt;ctg14_56&lt;/b&gt;&lt;br&gt;ctg14 56&lt;br&gt;Location: 64000 - 65305" locus_tag="ctg14_56" class="clusterblast-orf" id="dummy-1_q25_0_all"  />
<polygon points="610,40 619,40 624,35 619,30 610,30 610,40 " style="fill:#d3d815; stroke-width:1; stroke:black; " description="&lt;b&gt;ctg14_57&lt;/b&gt;&lt;br&gt;ctg14 57&lt;br&gt;Location: 65316 - 66120" locus_tag="ctg14_57" class="clusterblast-orf" id="dummy-1_q26_0_all"  />
<polygon points="624,40 633,40 638,35 633,30 624,30 624,40 " style="fill:#15d885; stroke-width:1; stroke:black; " description="&lt;b&gt;ctg14_58&lt;/b&gt;&lt;br&gt;ctg14 58&lt;br&gt;Location: 66135 - 66936" locus_tag="ctg14_58" class="clusterblast-orf" id="dummy-1_q27_0_all"  />
<polygon points="640,35 645,30 648,30 648,40 645,40 640,35 " style="fill:#2b15d8; stroke-width:1; stroke:black; " description="&lt;b&gt;ctg14_59&lt;/b&gt;&lt;br&gt;ctg14 59&lt;br&gt;Location: 67061 - 67484" locus_tag="ctg14_59" class="clusterblast-orf" id="dummy-1_q28_0_all"  />
<polygon points="651,40 669,40 674,35 669,30 651,30 651,40 " style="fill:#d81558; stroke-width:1; stroke:black; " description="&lt;b&gt;ctg14_60&lt;/b&gt;&lt;br&gt;ctg14 60&lt;br&gt;Location: 67692 - 68991" locus_tag="ctg14_60" class="clusterblast-orf" id="dummy-1_q29_0_all"  />
<polygon points="675,40 676,40 681,35 676,30 675,30 675,40 " style="fill:#b1d815; stroke-width:1; stroke:black; " description="&lt;b&gt;ctg14_61&lt;/b&gt;&lt;br&gt;ctg14 61&lt;br&gt;Location: 69020 - 69386" locus_tag="ctg14_61" class="clusterblast-orf" id="dummy-1_q30_0_all"  />
<polygon points="681,40 691,40 696,35 691,30 681,30 681,40 " style="fill:#15d8a6; stroke-width:1; stroke:black; " description="&lt;b&gt;ctg14_62&lt;/b&gt;&lt;br&gt;ctg14 62&lt;br&gt;Location: 69398 - 70220" locus_tag="ctg14_62" class="clusterblast-orf" id="dummy-1_q31_0_all"  />
<polygon points="695,40 705,40 710,35 705,30 695,30 695,40 " style="fill:#4d15d8; stroke-width:1; stroke:black; " description="&lt;b&gt;ctg14_63&lt;/b&gt;&lt;br&gt;ctg14 63&lt;br&gt;Location: 70212 - 71016" locus_tag="ctg14_63" class="clusterblast-orf" id="dummy-1_q32_0_all"  />
<polygon points="709,40 718,40 723,35 718,30 709,30 709,40 " style="fill:#d81537; stroke-width:1; stroke:black; " description="&lt;b&gt;ctg14_64&lt;/b&gt;&lt;br&gt;ctg14 64&lt;br&gt;Location: 71005 - 71761" locus_tag="ctg14_64" class="clusterblast-orf" id="dummy-1_q33_0_all"  />
<polygon points="724,35 729,30 740,30 740,40 729,40 724,35 " style="fill:#90d815; stroke-width:1; stroke:black; " description="&lt;b&gt;ctg14_65&lt;/b&gt;&lt;br&gt;ctg14 65&lt;br&gt;Location: 71822 - 72764" locus_tag="ctg14_65" class="clusterblast-orf" id="dummy-1_q34_0_all"  />
<polygon points="742,35 747,30 752,30 752,40 747,40 742,35 " style="fill:#15d8c8; stroke-width:1; stroke:black; " description="&lt;b&gt;ctg14_66&lt;/b&gt;&lt;br&gt;ctg14 66&lt;br&gt;Location: 72875 - 73463" locus_tag="ctg14_66" class="clusterblast-orf" id="dummy-1_q35_0_all"  />
<polygon points="752,35 757,30 778,30 778,40 757,40 752,35 " style="fill:#6e15d8; stroke-width:1; stroke:black; " description="&lt;b&gt;ctg14_67&lt;/b&gt;&lt;br&gt;ctg14 67&lt;br&gt;Location: 73434 - 74934" locus_tag="ctg14_67" class="clusterblast-orf" id="dummy-1_q36_0_all"  />
</g>
<g label="NZ_CP027754" description="NZ_CP027754 (4374286-4418865): Pseudomonas synxantha strain 30B chromosome, c... (97% of genes show similarity), NRPS" class="clusterblast-cluster"  >
<text x="5" y="70" class="clusterblast-acc"  >
<a xlink:href="https://antismash-db.secondarymetabolites.org/area.html?record=NZ_CP027754&amp;start=4374286&amp;end=4418865" target="_blank">NZ_CP027754 (4374286-4418865)</a>: Pseudomonas synxantha strain 30B chromosome, c... (97% of genes show similarity), NRPS</text>
<line x1="10" y1="85" x2="778.0" y2="85" style="stroke-width:1; stroke:grey; "  />
</g>
<g id="a1_000"  >
<polygon points="0,85 5,80 12,80 12,90 5,90 0,85 " style="fill:#d81515; stroke-width:1; stroke:black; " description="&lt;b&gt;C4K03_RS20240&lt;/b&gt;&lt;br&gt;SDR family oxidoreductase&lt;br&gt;Location: 4374287 - 4375012&lt;br&gt;&lt;br&gt;&lt;b&gt;BlastP hit with ctg14_31&lt;/b&gt;&lt;br&gt;Percentage identity: 89&lt;br&gt;Percentage coverage: 100&lt;br&gt;BLAST bit score: 410&lt;br&gt;E-value: 2.69e-145" locus_tag="C4K03_RS20240" class="clusterblast-orf" id="dummy-1_h1_4_0"  />
</g>
<g id="a1_001"  >
<polygon points="15,85 20,80 41,80 41,90 20,90 15,85 " style="fill:#6ed815; stroke-width:1; stroke:black; " description="&lt;b&gt;C4K03_RS20245&lt;/b&gt;&lt;br&gt;FGGY-family carbohydrate kinase&lt;br&gt;Location: 4375151 - 4376683&lt;br&gt;&lt;br&gt;&lt;b&gt;BlastP hit with ctg14_32&lt;/b&gt;&lt;br&gt;Percentage identity: 93&lt;br&gt;Percentage coverage: 100&lt;br&gt;BLAST bit score: 961&lt;br&gt;E-value: 0.0" locus_tag="C4K03_RS20245" class="clusterblast-orf" id="dummy-1_h1_4_1"  />
</g>
<g id="a1_002"  >
<polygon points="42,85 47,80 61,80 61,90 47,90 42,85 " style="fill:#15c8d8; stroke-width:1; stroke:black; " description="&lt;b&gt;C4K03_RS20250&lt;/b&gt;&lt;br&gt;alcohol dehydrogenase catalytic domain-containing protein&lt;br&gt;Location: 4376688 - 4377779&lt;br&gt;&lt;br&gt;&lt;b&gt;BlastP hit with ctg14_33&lt;/b&gt;&lt;br&gt;Percentage identity: 96&lt;br&gt;Percentage coverage: 100&lt;br&gt;BLAST bit score: 714&lt;br&gt;E-value: 1.11e-261" locus_tag="C4K03_RS20250" class="clusterblast-orf" id="dummy-1_h1_4_2"  />
</g>
<g id="a1_003"  >
<polygon points="61,85 66,80 78,80 78,90 66,90 61,85 " style="fill:#9015d8; stroke-width:1; stroke:black; " description="&lt;b&gt;C4K03_RS20255&lt;/b&gt;&lt;br&gt;ribose ABC transporter permease&lt;br&gt;Location: 4377807 - 4378799&lt;br&gt;&lt;br&gt;&lt;b&gt;BlastP hit with ctg14_34&lt;/b&gt;&lt;br&gt;Percentage identity: 95&lt;br&gt;Percentage coverage: 100&lt;br&gt;BLAST bit score: 576&lt;br&gt;E-value: 5.2e-208" locus_tag="C4K03_RS20255" class="clusterblast-orf" id="dummy-1_h1_4_3"  />
</g>
<g id="a1_004"  >
<polygon points="78,85 83,80 104,80 104,90 83,90 78,85 " style="fill:#d83715; stroke-width:1; stroke:black; " description="&lt;b&gt;C4K03_RS20260&lt;/b&gt;&lt;br&gt;sugar ABC transporter ATP-binding protein&lt;br&gt;Location: 4378765 - 4380273&lt;br&gt;&lt;br&gt;&lt;b&gt;BlastP hit with ctg14_35&lt;/b&gt;&lt;br&gt;Percentage identity: 94&lt;br&gt;Percentage coverage: 100&lt;br&gt;BLAST bit score: 921&lt;br&gt;E-value: 0.0" locus_tag="C4K03_RS20260" class="clusterblast-orf" id="dummy-1_h1_4_4"  />
</g>
<g id="a1_005"  >
<polygon points="105,85 110,80 121,80 121,90 110,90 105,85 " style="fill:#4dd815; stroke-width:1; stroke:black; " description="&lt;b&gt;C4K03_RS20265&lt;/b&gt;&lt;br&gt;substrate-binding domain-containing protein&lt;br&gt;Location: 4380337 - 4381257&lt;br&gt;&lt;br&gt;&lt;b&gt;BlastP hit with ctg14_36&lt;/b&gt;&lt;br&gt;Percentage identity: 96&lt;br&gt;Percentage coverage: 100&lt;br&gt;BLAST bit score: 555&lt;br&gt;E-value: 2.05e-200" locus_tag="C4K03_RS20265" class="clusterblast-orf" id="dummy-1_h1_4_5"  />
</g>
<g id="a1_006"  >
<polygon points="131,90 138,90 143,85 138,80 131,80 131,90 " style="fill:#15a6d8; stroke-width:1; stroke:black; " description="&lt;b&gt;C4K03_RS20270&lt;/b&gt;&lt;br&gt;fatty acid hydroxylase family protein&lt;br&gt;Location: 4381778 - 4382482&lt;br&gt;&lt;br&gt;&lt;b&gt;BlastP hit with ctg14_37&lt;/b&gt;&lt;br&gt;Percentage identity: 90&lt;br&gt;Percentage coverage: 97&lt;br&gt;BLAST bit score: 429&lt;br&gt;E-value: 3.45e-153" locus_tag="C4K03_RS20270" class="clusterblast-orf" id="dummy-1_h1_4_6"  />
</g>
<g id="a1_007"  >
<polygon points="143,85 148,80 168,80 168,90 148,90 143,85 " style="fill:#d85815; stroke-width:1; stroke:black; " description="&lt;b&gt;C4K03_RS20275&lt;/b&gt;&lt;br&gt;hypothetical protein&lt;br&gt;Location: 4382488 - 4383933&lt;br&gt;&lt;br&gt;&lt;b&gt;BlastP hit with ctg14_39&lt;/b&gt;&lt;br&gt;Percentage identity: 64&lt;br&gt;Percentage coverage: 100&lt;br&gt;BLAST bit score: 616&lt;br&gt;E-value: 6.58e-219" locus_tag="C4K03_RS20275" class="clusterblast-orf" id="dummy-1_h1_4_7"  />
</g>
<g id="a1_008"  >
<polygon points="171,85 176,80 190,80 190,90 176,90 171,85 " style="fill:#2bd815; stroke-width:1; stroke:black; " description="&lt;b&gt;C4K03_RS20280&lt;/b&gt;&lt;br&gt;iron ABC transporter permease&lt;br&gt;Location: 4384101 - 4385165&lt;br&gt;&lt;br&gt;&lt;b&gt;BlastP hit with ctg14_40&lt;/b&gt;&lt;br&gt;Percentage identity: 89&lt;br&gt;Percentage coverage: 100&lt;br&gt;BLAST bit score: 672&lt;br&gt;E-value: 3.78e-245" locus_tag="C4K03_RS20280" class="clusterblast-orf" id="dummy-1_h1_4_8"  />
</g>
<g id="a1_009"  >
<polygon points="190,85 195,80 233,80 233,90 195,90 190,85 " style="fill:#1585d8; stroke-width:1; stroke:black; " description="&lt;b&gt;C4K03_RS20285&lt;/b&gt;&lt;br&gt;FtsX-like permease family protein&lt;br&gt;Location: 4385155 - 4387617&lt;br&gt;&lt;br&gt;&lt;b&gt;BlastP hit with ctg14_41&lt;/b&gt;&lt;br&gt;Percentage identity: 90&lt;br&gt;Percentage coverage: 100&lt;br&gt;BLAST bit score: 1429&lt;br&gt;E-value: 0.0" locus_tag="C4K03_RS20285" class="clusterblast-orf" id="dummy-1_h1_4_9"  />
</g>
<g id="a1_0010"  >
<polygon points="233,85 238,80 244,80 244,90 238,90 233,85 " style="fill:#d315d8; stroke-width:1; stroke:black; " description="&lt;b&gt;C4K03_RS20290&lt;/b&gt;&lt;br&gt;ABC transporter ATP-binding protein&lt;br&gt;Location: 4387619 - 4388287&lt;br&gt;&lt;br&gt;&lt;b&gt;BlastP hit with ctg14_42&lt;/b&gt;&lt;br&gt;Percentage identity: 92&lt;br&gt;Percentage coverage: 100&lt;br&gt;BLAST bit score: 397&lt;br&gt;E-value: 1.37e-140" locus_tag="C4K03_RS20290" class="clusterblast-orf" id="dummy-1_h1_4_10"  />
</g>
<g id="a1_0011"  >
<polygon points="249,90 256,90 261,85 256,80 249,80 249,90 " style="fill:#d87915; stroke-width:1; stroke:black; " description="&lt;b&gt;C4K03_RS20295&lt;/b&gt;&lt;br&gt;histidine phosphatase family protein&lt;br&gt;Location: 4388562 - 4389242&lt;br&gt;&lt;br&gt;&lt;b&gt;BlastP hit with ctg14_43&lt;/b&gt;&lt;br&gt;Percentage identity: 56&lt;br&gt;Percentage coverage: 101&lt;br&gt;BLAST bit score: 265&lt;br&gt;E-value: 1.38e-88" locus_tag="C4K03_RS20295" class="clusterblast-orf" id="dummy-1_h1_4_11"  />
</g>
<g id="a1_0012"  >
<polygon points="264,90 288,90 293,85 288,80 264,80 264,90 " style="fill:#15d820; stroke-width:1; stroke:black; " description="&lt;b&gt;C4K03_RS20300&lt;/b&gt;&lt;br&gt;lipid IV(A) 4-amino-4-deoxy-L-arabinosyltransferase&lt;br&gt;Location: 4389425 - 4391080&lt;br&gt;&lt;br&gt;&lt;b&gt;BlastP hit with ctg14_45&lt;/b&gt;&lt;br&gt;Percentage identity: 85&lt;br&gt;Percentage coverage: 100&lt;br&gt;BLAST bit score: 959&lt;br&gt;E-value: 0.0" locus_tag="C4K03_RS20300" class="clusterblast-orf" id="dummy-1_h1_4_12"  />
</g>
<g id="a1_0013"  >
<polygon points="294,90 315,90 320,85 315,80 294,80 294,90 " style="fill:#1563d8; stroke-width:1; stroke:black; " description="&lt;b&gt;C4K03_RS20305&lt;/b&gt;&lt;br&gt;dolichyl-phosphate-mannose--protein mannosyltransferase&lt;br&gt;Location: 4391107 - 4392624&lt;br&gt;&lt;br&gt;&lt;b&gt;BlastP hit with ctg14_46&lt;/b&gt;&lt;br&gt;Percentage identity: 88&lt;br&gt;Percentage coverage: 100&lt;br&gt;BLAST bit score: 945&lt;br&gt;E-value: 0.0" locus_tag="C4K03_RS20305" class="clusterblast-orf" id="dummy-1_h1_4_13"  />
</g>
<g id="a1_0014"  >
<polygon points="326,90 327,90 332,85 327,80 326,80 326,90 " style="fill:white; stroke-width:1; stroke:black; " description="&lt;b&gt;C4K03_RS20310&lt;/b&gt;&lt;br&gt;hypothetical protein&lt;br&gt;Location: 4392957 - 4393265" locus_tag="C4K03_RS20310" class="clusterblast-orf" id="dummy-1_h1_4_14"  />
</g>
<g id="a1_0015"  >
<polygon points="334,85 339,80 443,80 443,90 339,90 334,85 " style="fill:#d815bc; stroke-width:1; stroke:black; " description="&lt;b&gt;C4K03_RS20315&lt;/b&gt;&lt;br&gt;amino acid adenylation domain-containing protein&lt;br&gt;Location: 4393388 - 4399657&lt;br&gt;&lt;br&gt;&lt;b&gt;BlastP hit with ctg14_47&lt;/b&gt;&lt;br&gt;Percentage identity: 83&lt;br&gt;Percentage coverage: 100&lt;br&gt;BLAST bit score: 3504&lt;br&gt;E-value: 0.0" locus_tag="C4K03_RS20315" class="clusterblast-orf" id="dummy-1_h1_4_15"  />
</g>
<g id="a1_0016"  >
<polygon points="452,90 461,90 466,85 461,80 452,80 452,90 " style="fill:#d89b15; stroke-width:1; stroke:black; " description="&lt;b&gt;C4K03_RS20320&lt;/b&gt;&lt;br&gt;helix-turn-helix transcriptional regulator&lt;br&gt;Location: 4400147 - 4400941&lt;br&gt;&lt;br&gt;&lt;b&gt;BlastP hit with ctg14_48&lt;/b&gt;&lt;br&gt;Percentage identity: 88&lt;br&gt;Percentage coverage: 100&lt;br&gt;BLAST bit score: 451&lt;br&gt;E-value: 1.55e-160" locus_tag="C4K03_RS20320" class="clusterblast-orf" id="dummy-1_h1_4_16"  />
</g>
<g id="a1_0017"  >
<polygon points="466,90 487,90 492,85 487,80 466,80 466,90 " style="fill:#15d842; stroke-width:1; stroke:black; " description="&lt;b&gt;C4K03_RS20325&lt;/b&gt;&lt;br&gt;efflux transporter outer membrane subunit&lt;br&gt;Location: 4400941 - 4402410&lt;br&gt;&lt;br&gt;&lt;b&gt;BlastP hit with ctg14_49&lt;/b&gt;&lt;br&gt;Percentage identity: 92&lt;br&gt;Percentage coverage: 100&lt;br&gt;BLAST bit score: 858&lt;br&gt;E-value: 3.43e-314" locus_tag="C4K03_RS20325" class="clusterblast-orf" id="dummy-1_h1_4_17"  />
</g>
<g id="a1_0018"  >
<polygon points="490,85 495,80 505,80 505,90 495,90 490,85 " style="fill:#1542d8; stroke-width:1; stroke:black; " description="&lt;b&gt;C4K03_RS20330&lt;/b&gt;&lt;br&gt;4-hydroxyphenylacetate catabolism regulatory protein HpaA&lt;br&gt;Location: 4402337 - 4403197&lt;br&gt;&lt;br&gt;&lt;b&gt;BlastP hit with ctg14_50&lt;/b&gt;&lt;br&gt;Percentage identity: 90&lt;br&gt;Percentage coverage: 100&lt;br&gt;BLAST bit score: 513&lt;br&gt;E-value: 2.45e-184" locus_tag="C4K03_RS20330" class="clusterblast-orf" id="dummy-1_h1_4_18"  />
</g>
<g id="a1_0019"  >
<polygon points="508,90 514,90 519,85 514,80 508,80 508,90 " style="fill:#d8159b; stroke-width:1; stroke:black; " description="&lt;b&gt;C4K03_RS20335&lt;/b&gt;&lt;br&gt;4-hydroxyphenylacetate isomerase&lt;br&gt;Location: 4403326 - 4403991&lt;br&gt;&lt;br&gt;&lt;b&gt;BlastP hit with ctg14_51&lt;/b&gt;&lt;br&gt;Percentage identity: 88&lt;br&gt;Percentage coverage: 99&lt;br&gt;BLAST bit score: 399&lt;br&gt;E-value: 1.09e-141&lt;br&gt;&lt;br&gt;&lt;b&gt;BlastP hit with ctg14_52&lt;/b&gt;&lt;br&gt;Percentage identity: 41&lt;br&gt;Percentage coverage: 83&lt;br&gt;BLAST bit score: 152&lt;br&gt;E-value: 1.03e-43" locus_tag="C4K03_RS20335" class="clusterblast-orf" id="dummy-1_h1_4_19"  />
</g>
<g id="a1_0020"  >
<polygon points="519,90 528,90 533,85 528,80 519,80 519,90 " style="fill:#d8159b; stroke-width:1; stroke:black; " description="&lt;b&gt;C4K03_RS20340&lt;/b&gt;&lt;br&gt;2-hydroxyhepta-2,4-diene-1,7-dioate isomerase&lt;br&gt;Location: 4403988 - 4404758&lt;br&gt;&lt;br&gt;&lt;b&gt;BlastP hit with ctg14_51&lt;/b&gt;&lt;br&gt;Percentage identity: 40&lt;br&gt;Percentage coverage: 97&lt;br&gt;BLAST bit score: 146&lt;br&gt;E-value: 2.2e-41&lt;br&gt;&lt;br&gt;&lt;b&gt;BlastP hit with ctg14_52&lt;/b&gt;&lt;br&gt;Percentage identity: 92&lt;br&gt;Percentage coverage: 100&lt;br&gt;BLAST bit score: 484&lt;br&gt;E-value: 6.59e-174" locus_tag="C4K03_RS20340" class="clusterblast-orf" id="dummy-1_h1_4_20"  />
</g>
<g id="a1_0021"  >
<polygon points="533,90 553,90 558,85 553,80 533,80 533,90 " style="fill:#d8bc15; stroke-width:1; stroke:black; " description="&lt;b&gt;C4K03_RS20345&lt;/b&gt;&lt;br&gt;5-carboxymethyl-2-hydroxymuconate semialdehyde dehydrogenase&lt;br&gt;Location: 4404764 - 4406224&lt;br&gt;&lt;br&gt;&lt;b&gt;BlastP hit with ctg14_53&lt;/b&gt;&lt;br&gt;Percentage identity: 97&lt;br&gt;Percentage coverage: 100&lt;br&gt;BLAST bit score: 951&lt;br&gt;E-value: 0.0" locus_tag="C4K03_RS20345" class="clusterblast-orf" id="dummy-1_h1_4_21"  />
</g>
<g id="a1_0022"  >
<polygon points="561,90 571,90 576,85 571,80 561,80 561,90 " style="fill:#15d863; stroke-width:1; stroke:black; " description="&lt;b&gt;C4K03_RS20350&lt;/b&gt;&lt;br&gt;3,4-dihydroxyphenylacetate 2,3-dioxygenase&lt;br&gt;Location: 4406379 - 4407236&lt;br&gt;&lt;br&gt;&lt;b&gt;BlastP hit with ctg14_54&lt;/b&gt;&lt;br&gt;Percentage identity: 95&lt;br&gt;Percentage coverage: 100&lt;br&gt;BLAST bit score: 573&lt;br&gt;E-value: 3.78e-208" locus_tag="C4K03_RS20350" class="clusterblast-orf" id="dummy-1_h1_4_22"  />
</g>
<g id="a1_0023"  >
<polygon points="576,90 578,90 583,85 578,80 576,80 576,90 " style="fill:#1520d8; stroke-width:1; stroke:black; " description="&lt;b&gt;C4K03_RS20355&lt;/b&gt;&lt;br&gt;5-carboxymethyl-2-hydroxymuconate isomerase&lt;br&gt;Location: 4407252 - 4407644&lt;br&gt;&lt;br&gt;&lt;b&gt;BlastP hit with ctg14_55&lt;/b&gt;&lt;br&gt;Percentage identity: 93&lt;br&gt;Percentage coverage: 99&lt;br&gt;BLAST bit score: 251&lt;br&gt;E-value: 5.67e-86" locus_tag="C4K03_RS20355" class="clusterblast-orf" id="dummy-1_h1_4_23"  />
</g>
<g id="a1_0024"  >
<polygon points="585,90 603,90 608,85 603,80 585,80 585,90 " style="fill:#d81579; stroke-width:1; stroke:black; " description="&lt;b&gt;C4K03_RS20360&lt;/b&gt;&lt;br&gt;MFS transporter&lt;br&gt;Location: 4407777 - 4409081&lt;br&gt;&lt;br&gt;&lt;b&gt;BlastP hit with ctg14_56&lt;/b&gt;&lt;br&gt;Percentage identity: 95&lt;br&gt;Percentage coverage: 100&lt;br&gt;BLAST bit score: 824&lt;br&gt;E-value: 1.22e-302" locus_tag="C4K03_RS20360" class="clusterblast-orf" id="dummy-1_h1_4_24"  />
</g>
<g id="a1_0025"  >
<polygon points="609,90 618,90 623,85 618,80 609,80 609,90 " style="fill:#d3d815; stroke-width:1; stroke:black; " description="&lt;b&gt;C4K03_RS20365&lt;/b&gt;&lt;br&gt;2-oxo-hepta-3-ene-1,7-dioic acid hydratase&lt;br&gt;Location: 4409093 - 4409896&lt;br&gt;&lt;br&gt;&lt;b&gt;BlastP hit with ctg14_57&lt;/b&gt;&lt;br&gt;Percentage identity: 94&lt;br&gt;Percentage coverage: 100&lt;br&gt;BLAST bit score: 510&lt;br&gt;E-value: 6.62e-184" locus_tag="C4K03_RS20365" class="clusterblast-orf" id="dummy-1_h1_4_25"  />
</g>
<g id="a1_0026"  >
<polygon points="623,90 632,90 637,85 632,80 623,80 623,90 " style="fill:#15d885; stroke-width:1; stroke:black; " description="&lt;b&gt;C4K03_RS20370&lt;/b&gt;&lt;br&gt;4-hydroxy-2-oxoheptanedioate aldolase&lt;br&gt;Location: 4409913 - 4410713&lt;br&gt;&lt;br&gt;&lt;b&gt;BlastP hit with ctg14_58&lt;/b&gt;&lt;br&gt;Percentage identity: 88&lt;br&gt;Percentage coverage: 100&lt;br&gt;BLAST bit score: 456&lt;br&gt;E-value: 1.89e-162" locus_tag="C4K03_RS20370" class="clusterblast-orf" id="dummy-1_h1_4_26"  />
</g>
<g id="a1_0027"  >
<polygon points="639,85 644,80 646,80 646,90 644,90 639,85 " style="fill:#2b15d8; stroke-width:1; stroke:black; " description="&lt;b&gt;C4K03_RS20375&lt;/b&gt;&lt;br&gt;homoprotocatechuate degradation operon regulator HpaR&lt;br&gt;Location: 4410838 - 4411260&lt;br&gt;&lt;br&gt;&lt;b&gt;BlastP hit with ctg14_59&lt;/b&gt;&lt;br&gt;Percentage identity: 94&lt;br&gt;Percentage coverage: 100&lt;br&gt;BLAST bit score: 259&lt;br&gt;E-value: 7.49e-89" locus_tag="C4K03_RS20375" class="clusterblast-orf" id="dummy-1_h1_4_27"  />
</g>
<g id="a1_0028"  >
<polygon points="650,90 668,90 673,85 668,80 650,80 650,90 " style="fill:#d81558; stroke-width:1; stroke:black; " description="&lt;b&gt;C4K03_RS20380&lt;/b&gt;&lt;br&gt;FAD-binding oxidoreductase&lt;br&gt;Location: 4411468 - 4412766&lt;br&gt;&lt;br&gt;&lt;b&gt;BlastP hit with ctg14_60&lt;/b&gt;&lt;br&gt;Percentage identity: 98&lt;br&gt;Percentage coverage: 100&lt;br&gt;BLAST bit score: 865&lt;br&gt;E-value: 0.0" locus_tag="C4K03_RS20380" class="clusterblast-orf" id="dummy-1_h1_4_28"  />
</g>
<g id="a1_0029"  >
<polygon points="675,90 677,90 682,85 677,80 675,80 675,90 " style="fill:#b1d815; stroke-width:1; stroke:black; " description="&lt;b&gt;C4K03_RS20385&lt;/b&gt;&lt;br&gt;DUF861 domain-containing protein&lt;br&gt;Location: 4412905 - 4413270&lt;br&gt;&lt;br&gt;&lt;b&gt;BlastP hit with ctg14_61&lt;/b&gt;&lt;br&gt;Percentage identity: 95&lt;br&gt;Percentage coverage: 99&lt;br&gt;BLAST bit score: 236&lt;br&gt;E-value: 2.58e-80" locus_tag="C4K03_RS20385" class="clusterblast-orf" id="dummy-1_h1_4_29"  />
</g>
<g id="a1_0030"  >
<polygon points="682,90 691,90 696,85 691,80 682,80 682,90 " style="fill:#15d8a6; stroke-width:1; stroke:black; " description="&lt;b&gt;C4K03_RS20390&lt;/b&gt;&lt;br&gt;molybdenum cofactor biosynthesis protein F&lt;br&gt;Location: 4413283 - 4414104&lt;br&gt;&lt;br&gt;&lt;b&gt;BlastP hit with ctg14_62&lt;/b&gt;&lt;br&gt;Percentage identity: 92&lt;br&gt;Percentage coverage: 100&lt;br&gt;BLAST bit score: 540&lt;br&gt;E-value: 9.53e-196" locus_tag="C4K03_RS20390" class="clusterblast-orf" id="dummy-1_h1_4_30"  />
</g>
<g id="a1_0031"  >
<polygon points="696,90 705,90 710,85 705,80 696,80 696,90 " style="fill:#4d15d8; stroke-width:1; stroke:black; " description="&lt;b&gt;C4K03_RS20395&lt;/b&gt;&lt;br&gt;SDR family oxidoreductase&lt;br&gt;Location: 4414097 - 4414900&lt;br&gt;&lt;br&gt;&lt;b&gt;BlastP hit with ctg14_63&lt;/b&gt;&lt;br&gt;Percentage identity: 90&lt;br&gt;Percentage coverage: 100&lt;br&gt;BLAST bit score: 489&lt;br&gt;E-value: 1.6e-175" locus_tag="C4K03_RS20395" class="clusterblast-orf" id="dummy-1_h1_4_31"  />
</g>
<g id="a1_0032"  >
<polygon points="710,90 718,90 723,85 718,80 710,80 710,90 " style="fill:#d81537; stroke-width:1; stroke:black; " description="&lt;b&gt;C4K03_RS20400&lt;/b&gt;&lt;br&gt;SDR family oxidoreductase&lt;br&gt;Location: 4414890 - 4415645&lt;br&gt;&lt;br&gt;&lt;b&gt;BlastP hit with ctg14_64&lt;/b&gt;&lt;br&gt;Percentage identity: 89&lt;br&gt;Percentage coverage: 100&lt;br&gt;BLAST bit score: 424&lt;br&gt;E-value: 2.67e-150" locus_tag="C4K03_RS20400" class="clusterblast-orf" id="dummy-1_h1_4_32"  />
</g>
<g id="a1_0033"  >
<polygon points="726,85 731,80 742,80 742,90 731,90 726,85 " style="fill:#90d815; stroke-width:1; stroke:black; " description="&lt;b&gt;C4K03_RS20405&lt;/b&gt;&lt;br&gt;transcriptional regulator FeaR&lt;br&gt;Location: 4415781 - 4416722&lt;br&gt;&lt;br&gt;&lt;b&gt;BlastP hit with ctg14_65&lt;/b&gt;&lt;br&gt;Percentage identity: 92&lt;br&gt;Percentage coverage: 100&lt;br&gt;BLAST bit score: 571&lt;br&gt;E-value: 1.34e-206" locus_tag="C4K03_RS20405" class="clusterblast-orf" id="dummy-1_h1_4_33"  />
</g>
<g id="a1_0034"  >
<polygon points="744,85 749,80 754,80 754,90 749,90 744,85 " style="fill:#15d8c8; stroke-width:1; stroke:black; " description="&lt;b&gt;C4K03_RS20410&lt;/b&gt;&lt;br&gt;DUF3156 family protein&lt;br&gt;Location: 4416837 - 4417403&lt;br&gt;&lt;br&gt;&lt;b&gt;BlastP hit with ctg14_66&lt;/b&gt;&lt;br&gt;Percentage identity: 72&lt;br&gt;Percentage coverage: 100&lt;br&gt;BLAST bit score: 268&lt;br&gt;E-value: 1.08e-90" locus_tag="C4K03_RS20410" class="clusterblast-orf" id="dummy-1_h1_4_34"  />
</g>
<g id="a1_0035"  >
<polygon points="753,85 758,80 780,80 780,90 758,90 753,85 " style="fill:#6e15d8; stroke-width:1; stroke:black; " description="&lt;b&gt;C4K03_RS20415&lt;/b&gt;&lt;br&gt;APC family permease&lt;br&gt;Location: 4417366 - 4418865&lt;br&gt;&lt;br&gt;&lt;b&gt;BlastP hit with ctg14_67&lt;/b&gt;&lt;br&gt;Percentage identity: 96&lt;br&gt;Percentage coverage: 100&lt;br&gt;BLAST bit score: 933&lt;br&gt;E-value: 0.0" locus_tag="C4K03_RS20415" class="clusterblast-orf" id="dummy-1_h1_4_35"  />
</g>
</svg>
