<svg xmlns="http://www.w3.org/2000/svg" xmlns:xlink="http://www.w3.org/1999/xlink" version="1.1" x="0" y="0" height="230" width="800" viewBox="0 0 800 230" preserveAspectRatio="none"  >
<g label="Query sequence" class="clusterblast-cluster"  >
<text x="5" y="20" class="clusterblast-acc"  >
Query sequence</text>
<line x1="10" y1="35" x2="778.0" y2="35" style="stroke-width:1; stroke:grey; "  />
<polygon points="0,40 76,40 81,35 76,30 0,30 0,40 " style="fill:#d81515; stroke-width:1; stroke:black; " description="&lt;b&gt;ctg4_49&lt;/b&gt;&lt;br&gt;ctg4 49&lt;br&gt;Location: 78638 - 79628" locus_tag="ctg4_49" class="clusterblast-orf" id="dummy-1_q0_0_all"  />
<polygon points="80,40 159,40 164,35 159,30 80,30 80,40 " style="fill:#15d815; stroke-width:1; stroke:black; " description="&lt;b&gt;ctg4_50&lt;/b&gt;&lt;br&gt;ctg4 50&lt;br&gt;Location: 79624 - 80659" locus_tag="ctg4_50" class="clusterblast-orf" id="dummy-1_q1_0_all"  />
<polygon points="164,40 312,40 317,35 312,30 164,30 164,40 " style="fill:#1597d8; stroke-width:1; stroke:black; " description="&lt;b&gt;ctg4_51&lt;/b&gt;&lt;br&gt;ctg4 51&lt;br&gt;Location: 80655 - 82542" locus_tag="ctg4_51" class="clusterblast-orf" id="dummy-1_q2_0_all"  />
<polygon points="326,40 342,40 347,35 342,30 326,30 326,40 " style="fill:#9715d8; stroke-width:1; stroke:black; " description="&lt;b&gt;ctg4_52&lt;/b&gt;&lt;br&gt;ctg4 52&lt;br&gt;Location: 82659 - 82911" locus_tag="ctg4_52" class="clusterblast-orf" id="dummy-1_q3_0_all"  />
<polygon points="352,40 416,40 421,35 416,30 352,30 352,40 " style="fill:#d89715; stroke-width:1; stroke:black; " description="&lt;b&gt;ctg4_53&lt;/b&gt;&lt;br&gt;ctg4 53&lt;br&gt;Location: 82978 - 83824" locus_tag="ctg4_53" class="clusterblast-orf" id="dummy-1_q4_0_all"  />
<polygon points="420,40 479,40 484,35 479,30 420,30 420,40 " style="fill:#15d897; stroke-width:1; stroke:black; " description="&lt;b&gt;ctg4_54&lt;/b&gt;&lt;br&gt;ctg4 54&lt;br&gt;Location: 83814 - 84603" locus_tag="ctg4_54" class="clusterblast-orf" id="dummy-1_q5_0_all"  />
<polygon points="491,40 582,40 587,35 582,30 491,30 491,40 " style="fill:#1515d8; stroke-width:1; stroke:black; " description="&lt;b&gt;ctg4_55&lt;/b&gt;&lt;br&gt;ctg4 55&lt;br&gt;Location: 84690 - 85875" locus_tag="ctg4_55" class="clusterblast-orf" id="dummy-1_q6_0_all"  />
<polygon points="611,35 616,30 727,30 727,40 616,40 611,35 " style="fill:#d81597; stroke-width:1; stroke:black; " description="&lt;b&gt;ctg4_56&lt;/b&gt;&lt;br&gt;ctg4 56&lt;br&gt;Location: 86164 - 87604" locus_tag="ctg4_56" class="clusterblast-orf" id="dummy-1_q7_0_all"  />
<polygon points="738,40 775,40 780,35 775,30 738,30 738,40 " style="fill:#97d815; stroke-width:1; stroke:black; " description="&lt;b&gt;ctg4_57&lt;/b&gt;&lt;br&gt;ctg4 57&lt;br&gt;Location: 87734 - 88256" locus_tag="ctg4_57" class="clusterblast-orf" id="dummy-1_q8_0_all"  />
</g>
<g label="NZ_JACAOU010000018" description="NZ_JACAOU010000018 (160134-170980): Pseudomonas tolaasii strain B1001 run0228... (100% of genes show similarity), bacteriocin" class="clusterblast-cluster"  >
<text x="5" y="70" class="clusterblast-acc"  >
<a xlink:href="https://antismash-db.secondarymetabolites.org/area.html?record=NZ_JACAOU010000018&amp;start=160134&amp;end=170980" target="_blank">NZ_JACAOU010000018 (160134-170980)</a>: Pseudomonas tolaasii strain B1001 run0228... (100% of genes show similarity), bacteriocin</text>
<line x1="10" y1="85" x2="778.0" y2="85" style="stroke-width:1; stroke:grey; "  />
</g>
<g id="a1_000"  >
<polygon points="6,90 81,90 86,85 81,80 6,80 6,90 " style="fill:#d81515; stroke-width:1; stroke:black; " description="&lt;b&gt;HX784_RS28290&lt;/b&gt;&lt;br&gt;protease modulator HflC&lt;br&gt;Location: 160789 - 161781&lt;br&gt;&lt;br&gt;&lt;b&gt;BlastP hit with ctg4_49&lt;/b&gt;&lt;br&gt;Percentage identity: 98&lt;br&gt;Percentage coverage: 94&lt;br&gt;BLAST bit score: 521&lt;br&gt;E-value: 2.12e-186" locus_tag="HX784_RS28290" class="clusterblast-orf" id="dummy-1_h1_7_0"  />
</g>
<g id="a1_001"  >
<polygon points="86,90 165,90 170,85 165,80 86,80 86,90 " style="fill:#15d815; stroke-width:1; stroke:black; " description="&lt;b&gt;HX784_RS28295&lt;/b&gt;&lt;br&gt;protease modulator HflK&lt;br&gt;Location: 161778 - 162812&lt;br&gt;&lt;br&gt;&lt;b&gt;BlastP hit with ctg4_50&lt;/b&gt;&lt;br&gt;Percentage identity: 98&lt;br&gt;Percentage coverage: 100&lt;br&gt;BLAST bit score: 551&lt;br&gt;E-value: 1.2e-197" locus_tag="HX784_RS28295" class="clusterblast-orf" id="dummy-1_h1_7_1"  />
</g>
<g id="a1_002"  >
<polygon points="169,90 317,90 322,85 317,80 169,80 169,90 " style="fill:#1597d8; stroke-width:1; stroke:black; " description="&lt;b&gt;HX784_RS28300&lt;/b&gt;&lt;br&gt;cadmium-translocating P-type ATPase&lt;br&gt;Location: 162809 - 164695&lt;br&gt;&lt;br&gt;&lt;b&gt;BlastP hit with ctg4_51&lt;/b&gt;&lt;br&gt;Percentage identity: 97&lt;br&gt;Percentage coverage: 100&lt;br&gt;BLAST bit score: 1092&lt;br&gt;E-value: 0.0" locus_tag="HX784_RS28300" class="clusterblast-orf" id="dummy-1_h1_7_2"  />
</g>
<g id="a1_003"  >
<polygon points="332,90 347,90 352,85 347,80 332,80 332,90 " style="fill:#9715d8; stroke-width:1; stroke:black; " description="&lt;b&gt;HX784_RS28305&lt;/b&gt;&lt;br&gt;membrane protein&lt;br&gt;Location: 164813 - 165067&lt;br&gt;&lt;br&gt;&lt;b&gt;BlastP hit with ctg4_52&lt;/b&gt;&lt;br&gt;Percentage identity: 83&lt;br&gt;Percentage coverage: 101&lt;br&gt;BLAST bit score: 109&lt;br&gt;E-value: 3.66e-31" locus_tag="HX784_RS28305" class="clusterblast-orf" id="dummy-1_h1_7_3"  />
</g>
<g id="a1_004"  >
<polygon points="358,90 421,90 426,85 421,80 358,80 358,90 " style="fill:#d89715; stroke-width:1; stroke:black; " description="&lt;b&gt;HX784_RS28310&lt;/b&gt;&lt;br&gt;DUF692 domain-containing protein&lt;br&gt;Location: 165135 - 165980&lt;br&gt;&lt;br&gt;&lt;b&gt;BlastP hit with ctg4_53&lt;/b&gt;&lt;br&gt;Percentage identity: 95&lt;br&gt;Percentage coverage: 100&lt;br&gt;BLAST bit score: 522&lt;br&gt;E-value: 2.58e-188" locus_tag="HX784_RS28310" class="clusterblast-orf" id="dummy-1_h1_7_4"  />
</g>
<g id="a1_005"  >
<polygon points="426,90 485,90 490,85 485,80 426,80 426,90 " style="fill:#15d897; stroke-width:1; stroke:black; " description="&lt;b&gt;HX784_RS28315&lt;/b&gt;&lt;br&gt;putative DNA-binding domain-containing protein&lt;br&gt;Location: 165971 - 166759&lt;br&gt;&lt;br&gt;&lt;b&gt;BlastP hit with ctg4_54&lt;/b&gt;&lt;br&gt;Percentage identity: 93&lt;br&gt;Percentage coverage: 100&lt;br&gt;BLAST bit score: 507&lt;br&gt;E-value: 7.47e-183" locus_tag="HX784_RS28315" class="clusterblast-orf" id="dummy-1_h1_7_5"  />
</g>
<g id="a1_006"  >
<polygon points="497,90 588,90 593,85 588,80 497,80 497,90 " style="fill:#1515d8; stroke-width:1; stroke:black; " description="&lt;b&gt;HX784_RS28320&lt;/b&gt;&lt;br&gt;class I SAM-dependent methyltransferase&lt;br&gt;Location: 166847 - 168031&lt;br&gt;&lt;br&gt;&lt;b&gt;BlastP hit with ctg4_55&lt;/b&gt;&lt;br&gt;Percentage identity: 97&lt;br&gt;Percentage coverage: 100&lt;br&gt;BLAST bit score: 779&lt;br&gt;E-value: 5.15e-286" locus_tag="HX784_RS28320" class="clusterblast-orf" id="dummy-1_h1_7_6"  />
</g>
<g id="a1_007"  >
<polygon points="604,85 609,80 720,80 720,90 609,90 604,85 " style="fill:#d81597; stroke-width:1; stroke:black; " description="&lt;b&gt;HX784_RS28325&lt;/b&gt;&lt;br&gt;cardiolipin synthase&lt;br&gt;Location: 168166 - 169605&lt;br&gt;&lt;br&gt;&lt;b&gt;BlastP hit with ctg4_56&lt;/b&gt;&lt;br&gt;Percentage identity: 98&lt;br&gt;Percentage coverage: 100&lt;br&gt;BLAST bit score: 931&lt;br&gt;E-value: 0.0" locus_tag="HX784_RS28325" class="clusterblast-orf" id="dummy-1_h1_7_7"  />
</g>
<g id="a1_008"  >
<polygon points="731,90 768,90 773,85 768,80 731,80 731,90 " style="fill:#97d815; stroke-width:1; stroke:black; " description="&lt;b&gt;HX784_RS28330&lt;/b&gt;&lt;br&gt;DUF3617 domain-containing protein&lt;br&gt;Location: 169737 - 170258&lt;br&gt;&lt;br&gt;&lt;b&gt;BlastP hit with ctg4_57&lt;/b&gt;&lt;br&gt;Percentage identity: 95&lt;br&gt;Percentage coverage: 100&lt;br&gt;BLAST bit score: 329&lt;br&gt;E-value: 2.25e-115" locus_tag="HX784_RS28330" class="clusterblast-orf" id="dummy-1_h1_7_8"  />
</g>
</svg>
