<svg xmlns="http://www.w3.org/2000/svg" xmlns:xlink="http://www.w3.org/1999/xlink" version="1.1" x="0" y="0" height="230" width="800" viewBox="0 0 800 230" preserveAspectRatio="none"  >
<g label="Query sequence" class="clusterblast-cluster"  >
<text x="5" y="20" class="clusterblast-acc"  >
Query sequence</text>
<line x1="10" y1="35" x2="778.0" y2="35" style="stroke-width:1; stroke:grey; "  />
<polygon points="16,40 24,40 29,35 24,30 16,30 16,40 " style="fill:#d81515; stroke-width:1; stroke:black; " description="&lt;b&gt;ctg1_49&lt;/b&gt;&lt;br&gt;ctg1 49&lt;br&gt;Location: 54842 - 55322" locus_tag="ctg1_49" class="clusterblast-orf" id="dummy-1_q0_0_all"  />
<polygon points="29,40 45,40 50,35 45,30 29,30 29,40 " style="fill:#60d815; stroke-width:1; stroke:black; " description="&lt;b&gt;ctg1_50&lt;/b&gt;&lt;br&gt;ctg1 50&lt;br&gt;Location: 55318 - 56089" locus_tag="ctg1_50" class="clusterblast-orf" id="dummy-1_q1_0_all"  />
<polygon points="53,35 58,30 112,30 112,40 58,40 53,35 " style="fill:#15abd8; stroke-width:1; stroke:black; " description="&lt;b&gt;ctg1_51&lt;/b&gt;&lt;br&gt;ctg1 51&lt;br&gt;Location: 56168 - 58316" locus_tag="ctg1_51" class="clusterblast-orf" id="dummy-1_q2_0_all"  />
<polygon points="115,40 123,40 128,35 123,30 115,30 115,40 " style="fill:#8d15d8; stroke-width:1; stroke:black; " description="&lt;b&gt;ctg1_52&lt;/b&gt;&lt;br&gt;ctg1 52&lt;br&gt;Location: 58413 - 58866" locus_tag="ctg1_52" class="clusterblast-orf" id="dummy-1_q3_0_all"  />
<polygon points="127,40 135,40 140,35 135,30 127,30 127,40 " style="fill:#d84215; stroke-width:1; stroke:black; " description="&lt;b&gt;ctg1_53&lt;/b&gt;&lt;br&gt;ctg1 53&lt;br&gt;Location: 58858 - 59308" locus_tag="ctg1_53" class="clusterblast-orf" id="dummy-1_q4_0_all"  />
<polygon points="141,35 146,30 157,30 157,40 146,40 141,35 " style="fill:#33d815; stroke-width:1; stroke:black; " description="&lt;b&gt;ctg1_54&lt;/b&gt;&lt;br&gt;ctg1 54&lt;br&gt;Location: 59351 - 59930" locus_tag="ctg1_54" class="clusterblast-orf" id="dummy-1_q5_0_all"  />
<polygon points="159,35 164,30 196,30 196,40 164,40 159,35 " style="fill:#157ed8; stroke-width:1; stroke:black; " description="&lt;b&gt;ctg1_55&lt;/b&gt;&lt;br&gt;ctg1 55&lt;br&gt;Location: 59999 - 61313" locus_tag="ctg1_55" class="clusterblast-orf" id="dummy-1_q6_0_all"  />
<polygon points="197,35 201,30 201,40 197,35 " style="fill:#ba15d8; stroke-width:1; stroke:black; " description="&lt;b&gt;ctg1_56&lt;/b&gt;&lt;br&gt;ctg1 56&lt;br&gt;Location: 61363 - 61519" locus_tag="ctg1_56" class="clusterblast-orf" id="dummy-1_q7_0_all"  />
<polygon points="204,35 209,30 227,30 227,40 209,40 204,35 " style="fill:#d86f15; stroke-width:1; stroke:black; " description="&lt;b&gt;ctg1_57&lt;/b&gt;&lt;br&gt;ctg1 57&lt;br&gt;Location: 61620 - 62427" locus_tag="ctg1_57" class="clusterblast-orf" id="dummy-1_q8_0_all"  />
<polygon points="227,35 232,30 245,30 245,40 232,40 227,35 " style="fill:#15d824; stroke-width:1; stroke:black; " description="&lt;b&gt;ctg1_58&lt;/b&gt;&lt;br&gt;ctg1 58&lt;br&gt;Location: 62455 - 63088" locus_tag="ctg1_58" class="clusterblast-orf" id="dummy-1_q9_0_all"  />
<polygon points="248,40 261,40 266,35 261,30 248,30 248,40 " style="fill:#1551d8; stroke-width:1; stroke:black; " description="&lt;b&gt;ctg1_59&lt;/b&gt;&lt;br&gt;ctg1 59&lt;br&gt;Location: 63199 - 63856" locus_tag="ctg1_59" class="clusterblast-orf" id="dummy-1_q10_0_all"  />
<polygon points="267,35 272,30 284,30 284,40 272,40 267,35 " style="fill:#d815c9; stroke-width:1; stroke:black; " description="&lt;b&gt;ctg1_60&lt;/b&gt;&lt;br&gt;ctg1 60&lt;br&gt;Location: 63869 - 64490" locus_tag="ctg1_60" class="clusterblast-orf" id="dummy-1_q11_0_all"  />
<polygon points="288,40 344,40 349,35 344,30 288,30 288,40 " style="fill:#d89c15; stroke-width:1; stroke:black; " description="&lt;b&gt;ctg1_61&lt;/b&gt;&lt;br&gt;ctg1 61&lt;br&gt;Location: 64623 - 66822" locus_tag="ctg1_61" class="clusterblast-orf" id="dummy-1_q12_0_all"  />
<polygon points="360,40 363,40 368,35 363,30 360,30 360,40 " style="fill:white; stroke-width:1; stroke:black; " description="&lt;b&gt;ctg1_62&lt;/b&gt;&lt;br&gt;ctg1 62&lt;br&gt;Location: 67231 - 67492" locus_tag="ctg1_62" class="clusterblast-orf" id="dummy-1_q13_0_all"  />
<polygon points="376,35 381,30 408,30 408,40 381,40 376,35 " style="fill:#15d851; stroke-width:1; stroke:black; " description="&lt;b&gt;ctg1_63&lt;/b&gt;&lt;br&gt;ctg1 63&lt;br&gt;Location: 67785 - 68952" locus_tag="ctg1_63" class="clusterblast-orf" id="dummy-1_q14_0_all"  />
<polygon points="408,35 413,30 446,30 446,40 413,40 408,35 " style="fill:#1524d8; stroke-width:1; stroke:black; " description="&lt;b&gt;ctg1_64&lt;/b&gt;&lt;br&gt;ctg1 64&lt;br&gt;Location: 68948 - 70325" locus_tag="ctg1_64" class="clusterblast-orf" id="dummy-1_q15_0_all"  />
<polygon points="450,35 455,30 474,30 474,40 455,40 450,35 " style="fill:#d8159c; stroke-width:1; stroke:black; " description="&lt;b&gt;ctg1_65&lt;/b&gt;&lt;br&gt;ctg1 65&lt;br&gt;Location: 70469 - 71321" locus_tag="ctg1_65" class="clusterblast-orf" id="dummy-1_q16_0_all"  />
<polygon points="482,35 487,30 509,30 509,40 487,40 482,35 " style="fill:#d8c915; stroke-width:1; stroke:black; " description="&lt;b&gt;ctg1_66&lt;/b&gt;&lt;br&gt;ctg1 66&lt;br&gt;Location: 71606 - 72584" locus_tag="ctg1_66" class="clusterblast-orf" id="dummy-1_q17_0_all"  />
<polygon points="515,35 520,30 526,30 526,40 520,40 515,35 " style="fill:#15d87e; stroke-width:1; stroke:black; " description="&lt;b&gt;ctg1_67&lt;/b&gt;&lt;br&gt;ctg1 67&lt;br&gt;Location: 72799 - 73192" locus_tag="ctg1_67" class="clusterblast-orf" id="dummy-1_q18_0_all"  />
<polygon points="527,35 532,30 544,30 544,40 532,40 527,35 " style="fill:#3315d8; stroke-width:1; stroke:black; " description="&lt;b&gt;ctg1_68&lt;/b&gt;&lt;br&gt;ctg1 68&lt;br&gt;Location: 73222 - 73843" locus_tag="ctg1_68" class="clusterblast-orf" id="dummy-1_q19_0_all"  />
<polygon points="550,35 555,30 579,30 579,40 555,40 550,35 " style="fill:#d8156f; stroke-width:1; stroke:black; " description="&lt;b&gt;ctg1_69&lt;/b&gt;&lt;br&gt;ctg1 69&lt;br&gt;Location: 74065 - 75085" locus_tag="ctg1_69" class="clusterblast-orf" id="dummy-1_q20_0_all"  />
<polygon points="583,35 588,30 604,30 604,40 588,40 583,35 " style="fill:#bad815; stroke-width:1; stroke:black; " description="&lt;b&gt;ctg1_70&lt;/b&gt;&lt;br&gt;ctg1 70&lt;br&gt;Location: 75224 - 75986" locus_tag="ctg1_70" class="clusterblast-orf" id="dummy-1_q21_0_all"  />
<polygon points="609,35 614,30 627,30 627,40 614,40 609,35 " style="fill:#15d8ab; stroke-width:1; stroke:black; " description="&lt;b&gt;ctg1_71&lt;/b&gt;&lt;br&gt;ctg1 71&lt;br&gt;Location: 76176 - 76836" locus_tag="ctg1_71" class="clusterblast-orf" id="dummy-1_q22_0_all"  />
<polygon points="627,35 632,30 644,30 644,40 632,40 627,35 " style="fill:#6015d8; stroke-width:1; stroke:black; " description="&lt;b&gt;ctg1_72&lt;/b&gt;&lt;br&gt;ctg1 72&lt;br&gt;Location: 76832 - 77432" locus_tag="ctg1_72" class="clusterblast-orf" id="dummy-1_q23_0_all"  />
<polygon points="644,35 649,30 665,30 665,40 649,40 644,35 " style="fill:#bad815; stroke-width:1; stroke:black; " description="&lt;b&gt;ctg1_73&lt;/b&gt;&lt;br&gt;ctg1 73&lt;br&gt;Location: 77428 - 78187" locus_tag="ctg1_73" class="clusterblast-orf" id="dummy-1_q24_0_all"  />
<polygon points="665,35 670,30 693,30 693,40 670,40 665,35 " style="fill:#d81542; stroke-width:1; stroke:black; " description="&lt;b&gt;ctg1_74&lt;/b&gt;&lt;br&gt;ctg1 74&lt;br&gt;Location: 78183 - 79182" locus_tag="ctg1_74" class="clusterblast-orf" id="dummy-1_q25_0_all"  />
<polygon points="693,35 698,30 753,30 753,40 698,40 693,35 " style="fill:#8dd815; stroke-width:1; stroke:black; " description="&lt;b&gt;ctg1_75&lt;/b&gt;&lt;br&gt;ctg1 75&lt;br&gt;Location: 79183 - 81340" locus_tag="ctg1_75" class="clusterblast-orf" id="dummy-1_q26_0_all"  />
<polygon points="756,35 761,30 764,30 764,40 761,40 756,35 " style="fill:#15d8d8; stroke-width:1; stroke:black; " description="&lt;b&gt;ctg1_76&lt;/b&gt;&lt;br&gt;ctg1 76&lt;br&gt;Location: 81471 - 81741" locus_tag="ctg1_76" class="clusterblast-orf" id="dummy-1_q27_0_all"  />
</g>
<g label="NZ_CABVGW010000001" description="NZ_CABVGW010000001 (75337-103892): Pseudomonas fluorescens isolate PS682, who... (48% of genes show similarity), thiopeptide" class="clusterblast-cluster"  >
<text x="5" y="70" class="clusterblast-acc"  >
<a xlink:href="https://antismash-db.secondarymetabolites.org/area.html?record=NZ_CABVGW010000001&amp;start=75337&amp;end=103892" target="_blank">NZ_CABVGW010000001 (75337-103892)</a>: Pseudomonas fluorescens isolate PS682, who... (48% of genes show similarity), thiopeptide</text>
<line x1="10" y1="85" x2="778.0" y2="85" style="stroke-width:1; stroke:grey; "  />
</g>
<g id="a1_000"  >
<polygon points="0,85 5,80 15,80 15,90 5,90 0,85 " style="fill:#33d815; stroke-width:1; stroke:black; " description="&lt;b&gt;F8N22_RS00315&lt;/b&gt;&lt;br&gt;cysteine hydrolase&lt;br&gt;Location: 75655 - 76215&lt;br&gt;&lt;br&gt;&lt;b&gt;BlastP hit with ctg1_54&lt;/b&gt;&lt;br&gt;Percentage identity: 81&lt;br&gt;Percentage coverage: 97&lt;br&gt;BLAST bit score: 317&lt;br&gt;E-value: 4.05e-110" locus_tag="F8N22_RS00315" class="clusterblast-orf" id="dummy-1_h1_7_0"  />
</g>
<g id="a1_001"  >
<polygon points="20,90 30,90 35,85 30,80 20,80 20,90 " style="fill:white; stroke-width:1; stroke:black; " description="&lt;b&gt;F8N22_RS00320&lt;/b&gt;&lt;br&gt;GNAT family N-acetyltransferase&lt;br&gt;Location: 76380 - 76925" locus_tag="F8N22_RS00320" class="clusterblast-orf" id="dummy-1_h1_7_1"  />
</g>
<g id="a1_002"  >
<polygon points="34,90 43,90 48,85 43,80 34,80 34,90 " style="fill:white; stroke-width:1; stroke:black; " description="&lt;b&gt;F8N22_RS00325&lt;/b&gt;&lt;br&gt;hypothetical protein&lt;br&gt;Location: 76912 - 77388" locus_tag="F8N22_RS00325" class="clusterblast-orf" id="dummy-1_h1_7_2"  />
</g>
<g id="a1_003"  >
<polygon points="48,90 54,90 59,85 54,80 48,80 48,90 " style="fill:white; stroke-width:1; stroke:black; " description="&lt;b&gt;F8N22_RS00330&lt;/b&gt;&lt;br&gt;hypothetical protein&lt;br&gt;Location: 77385 - 77804" locus_tag="F8N22_RS00330" class="clusterblast-orf" id="dummy-1_h1_7_3"  />
</g>
<g id="a1_004"  >
<polygon points="60,90 70,90 75,85 70,80 60,80 60,90 " style="fill:white; stroke-width:1; stroke:black; " description="&lt;b&gt;F8N22_RS00335&lt;/b&gt;&lt;br&gt;GNAT family N-acetyltransferase&lt;br&gt;Location: 77836 - 78383" locus_tag="F8N22_RS00335" class="clusterblast-orf" id="dummy-1_h1_7_4"  />
</g>
<g id="a1_005"  >
<polygon points="80,85 85,80 92,80 92,90 85,90 80,85 " style="fill:white; stroke-width:1; stroke:black; " description="&lt;b&gt;F8N22_RS00340&lt;/b&gt;&lt;br&gt;hypothetical protein&lt;br&gt;Location: 78553 - 78993" locus_tag="F8N22_RS00340" class="clusterblast-orf" id="dummy-1_h1_7_5"  />
</g>
<g id="a1_006"  >
<polygon points="97,85 102,80 111,80 111,90 102,90 97,85 " style="fill:white; stroke-width:1; stroke:black; " description="&lt;b&gt;F8N22_RS00345&lt;/b&gt;&lt;br&gt;hypothetical protein&lt;br&gt;Location: 79150 - 79665" locus_tag="F8N22_RS00345" class="clusterblast-orf" id="dummy-1_h1_7_6"  />
</g>
<g id="a1_007"  >
<polygon points="117,90 124,90 129,85 124,80 117,80 117,90 " style="fill:#8d15d8; stroke-width:1; stroke:black; " description="&lt;b&gt;F8N22_RS00350&lt;/b&gt;&lt;br&gt;VOC family protein&lt;br&gt;Location: 79882 - 80313&lt;br&gt;&lt;br&gt;&lt;b&gt;BlastP hit with ctg1_52&lt;/b&gt;&lt;br&gt;Percentage identity: 77&lt;br&gt;Percentage coverage: 91&lt;br&gt;BLAST bit score: 218&lt;br&gt;E-value: 1.78e-72" locus_tag="F8N22_RS00350" class="clusterblast-orf" id="dummy-1_h1_7_7"  />
</g>
<g id="a1_008"  >
<polygon points="136,85 141,80 158,80 158,90 141,90 136,85 " style="fill:#d86f15; stroke-width:1; stroke:black; " description="&lt;b&gt;F8N22_RS00355&lt;/b&gt;&lt;br&gt;Suppressor of fused protein (SUFU)&lt;br&gt;Location: 80559 - 81359&lt;br&gt;&lt;br&gt;&lt;b&gt;BlastP hit with ctg1_57&lt;/b&gt;&lt;br&gt;Percentage identity: 78&lt;br&gt;Percentage coverage: 100&lt;br&gt;BLAST bit score: 418&lt;br&gt;E-value: 1.73e-147" locus_tag="F8N22_RS00355" class="clusterblast-orf" id="dummy-1_h1_7_8"  />
</g>
<g id="a1_009"  >
<polygon points="159,85 164,80 177,80 177,90 164,90 159,85 " style="fill:#15d824; stroke-width:1; stroke:black; " description="&lt;b&gt;F8N22_RS00360&lt;/b&gt;&lt;br&gt;TetR/AcrR family transcriptional regulator&lt;br&gt;Location: 81388 - 82020&lt;br&gt;&lt;br&gt;&lt;b&gt;BlastP hit with ctg1_58&lt;/b&gt;&lt;br&gt;Percentage identity: 87&lt;br&gt;Percentage coverage: 100&lt;br&gt;BLAST bit score: 342&lt;br&gt;E-value: 2.4e-119" locus_tag="F8N22_RS00360" class="clusterblast-orf" id="dummy-1_h1_7_9"  />
</g>
<g id="a1_0010"  >
<polygon points="180,90 193,90 198,85 193,80 180,80 180,90 " style="fill:#1551d8; stroke-width:1; stroke:black; " description="&lt;b&gt;F8N22_RS00365&lt;/b&gt;&lt;br&gt;methyltransferase&lt;br&gt;Location: 82132 - 82788&lt;br&gt;&lt;br&gt;&lt;b&gt;BlastP hit with ctg1_59&lt;/b&gt;&lt;br&gt;Percentage identity: 84&lt;br&gt;Percentage coverage: 100&lt;br&gt;BLAST bit score: 365&lt;br&gt;E-value: 4.5e-128" locus_tag="F8N22_RS00365" class="clusterblast-orf" id="dummy-1_h1_7_10"  />
</g>
<g id="a1_0011"  >
<polygon points="200,85 205,80 217,80 217,90 205,90 200,85 " style="fill:#d815c9; stroke-width:1; stroke:black; " description="&lt;b&gt;F8N22_RS00370&lt;/b&gt;&lt;br&gt;LysE family translocator&lt;br&gt;Location: 82861 - 83481&lt;br&gt;&lt;br&gt;&lt;b&gt;BlastP hit with ctg1_60&lt;/b&gt;&lt;br&gt;Percentage identity: 89&lt;br&gt;Percentage coverage: 100&lt;br&gt;BLAST bit score: 365&lt;br&gt;E-value: 9.01e-129" locus_tag="F8N22_RS00370" class="clusterblast-orf" id="dummy-1_h1_7_11"  />
</g>
<g id="a1_0012"  >
<polygon points="221,85 226,80 264,80 264,90 226,90 221,85 " style="fill:#15abd8; stroke-width:1; stroke:black; " description="&lt;b&gt;F8N22_RS00375&lt;/b&gt;&lt;br&gt;methyl-accepting chemotaxis protein&lt;br&gt;Location: 83609 - 85174&lt;br&gt;&lt;br&gt;&lt;b&gt;BlastP hit with ctg1_51&lt;/b&gt;&lt;br&gt;Percentage identity: 33&lt;br&gt;Percentage coverage: 44&lt;br&gt;BLAST bit score: 137&lt;br&gt;E-value: 4.24e-32" locus_tag="F8N22_RS00375" class="clusterblast-orf" id="dummy-1_h1_7_12"  />
</g>
<g id="a1_0013"  >
<polygon points="269,90 325,90 330,85 325,80 269,80 269,90 " style="fill:#d89c15; stroke-width:1; stroke:black; " description="&lt;b&gt;F8N22_RS00380&lt;/b&gt;&lt;br&gt;OsmC domain/YcaO domain-containing protein&lt;br&gt;Location: 85338 - 87536&lt;br&gt;&lt;br&gt;&lt;b&gt;BlastP hit with ctg1_61&lt;/b&gt;&lt;br&gt;Percentage identity: 95&lt;br&gt;Percentage coverage: 100&lt;br&gt;BLAST bit score: 1418&lt;br&gt;E-value: 0.0" locus_tag="F8N22_RS00380" class="clusterblast-orf" id="dummy-1_h1_7_13"  />
</g>
<g id="a1_0014"  >
<polygon points="333,85 338,80 366,80 366,90 338,90 333,85 " style="fill:#15d851; stroke-width:1; stroke:black; " description="&lt;b&gt;F8N22_RS00385&lt;/b&gt;&lt;br&gt;cystathionine gamma-synthase&lt;br&gt;Location: 87657 - 88823&lt;br&gt;&lt;br&gt;&lt;b&gt;BlastP hit with ctg1_63&lt;/b&gt;&lt;br&gt;Percentage identity: 94&lt;br&gt;Percentage coverage: 100&lt;br&gt;BLAST bit score: 738&lt;br&gt;E-value: 6.57e-270" locus_tag="F8N22_RS00385" class="clusterblast-orf" id="dummy-1_h1_7_14"  />
</g>
<g id="a1_0015"  >
<polygon points="366,85 371,80 404,80 404,90 371,90 366,85 " style="fill:#1524d8; stroke-width:1; stroke:black; " description="&lt;b&gt;F8N22_RS00390&lt;/b&gt;&lt;br&gt;pyridoxal-phosphate dependent enzyme&lt;br&gt;Location: 88820 - 90196&lt;br&gt;&lt;br&gt;&lt;b&gt;BlastP hit with ctg1_64&lt;/b&gt;&lt;br&gt;Percentage identity: 96&lt;br&gt;Percentage coverage: 100&lt;br&gt;BLAST bit score: 870&lt;br&gt;E-value: 0.0" locus_tag="F8N22_RS00390" class="clusterblast-orf" id="dummy-1_h1_7_15"  />
</g>
<g id="a1_0016"  >
<polygon points="407,85 412,80 431,80 431,90 412,90 407,85 " style="fill:#d8159c; stroke-width:1; stroke:black; " description="&lt;b&gt;F8N22_RS00395&lt;/b&gt;&lt;br&gt;4-hydroxy-tetrahydrodipicolinate synthase&lt;br&gt;Location: 90313 - 91176&lt;br&gt;&lt;br&gt;&lt;b&gt;BlastP hit with ctg1_65&lt;/b&gt;&lt;br&gt;Percentage identity: 84&lt;br&gt;Percentage coverage: 97&lt;br&gt;BLAST bit score: 455&lt;br&gt;E-value: 1.6e-161" locus_tag="F8N22_RS00395" class="clusterblast-orf" id="dummy-1_h1_7_16"  />
</g>
<g id="a1_0017"  >
<polygon points="439,85 444,80 478,80 478,90 444,90 439,85 " style="fill:white; stroke-width:1; stroke:black; " description="&lt;b&gt;F8N22_RS00400&lt;/b&gt;&lt;br&gt;hypothetical protein&lt;br&gt;Location: 91470 - 92861" locus_tag="F8N22_RS00400" class="clusterblast-orf" id="dummy-1_h1_7_17"  />
</g>
<g id="a1_0018"  >
<polygon points="482,85 487,80 495,80 495,90 487,90 482,85 " style="fill:white; stroke-width:1; stroke:black; " description="&lt;b&gt;F8N22_RS00405&lt;/b&gt;&lt;br&gt;VOC family protein&lt;br&gt;Location: 92986 - 93465" locus_tag="F8N22_RS00405" class="clusterblast-orf" id="dummy-1_h1_7_18"  />
</g>
<g id="a1_0019"  >
<polygon points="496,85 501,80 507,80 507,90 501,90 496,85 " style="fill:#15d87e; stroke-width:1; stroke:black; " description="&lt;b&gt;F8N22_RS00410&lt;/b&gt;&lt;br&gt;ester cyclase&lt;br&gt;Location: 93500 - 93892&lt;br&gt;&lt;br&gt;&lt;b&gt;BlastP hit with ctg1_67&lt;/b&gt;&lt;br&gt;Percentage identity: 81&lt;br&gt;Percentage coverage: 98&lt;br&gt;BLAST bit score: 220&lt;br&gt;E-value: 8.99e-74" locus_tag="F8N22_RS00410" class="clusterblast-orf" id="dummy-1_h1_7_19"  />
</g>
<g id="a1_0020"  >
<polygon points="508,85 513,80 525,80 525,90 513,90 508,85 " style="fill:#3315d8; stroke-width:1; stroke:black; " description="&lt;b&gt;F8N22_RS00415&lt;/b&gt;&lt;br&gt;LysE family translocator&lt;br&gt;Location: 93931 - 94551&lt;br&gt;&lt;br&gt;&lt;b&gt;BlastP hit with ctg1_68&lt;/b&gt;&lt;br&gt;Percentage identity: 89&lt;br&gt;Percentage coverage: 100&lt;br&gt;BLAST bit score: 357&lt;br&gt;E-value: 2.88e-125" locus_tag="F8N22_RS00415" class="clusterblast-orf" id="dummy-1_h1_7_20"  />
</g>
<g id="a1_0021"  >
<polygon points="528,85 533,80 543,80 543,90 533,90 528,85 " style="fill:white; stroke-width:1; stroke:black; " description="&lt;b&gt;F8N22_RS00420&lt;/b&gt;&lt;br&gt;adenylate kinase&lt;br&gt;Location: 94647 - 95183" locus_tag="F8N22_RS00420" class="clusterblast-orf" id="dummy-1_h1_7_21"  />
</g>
<g id="a1_0022"  >
<polygon points="545,85 550,80 555,80 555,90 550,90 545,85 " style="fill:white; stroke-width:1; stroke:black; " description="&lt;b&gt;F8N22_RS00425&lt;/b&gt;&lt;br&gt;VOC family protein&lt;br&gt;Location: 95250 - 95621" locus_tag="F8N22_RS00425" class="clusterblast-orf" id="dummy-1_h1_7_22"  />
</g>
<g id="a1_0023"  >
<polygon points="559,90 575,90 580,85 575,80 559,80 559,90 " style="fill:white; stroke-width:1; stroke:black; " description="&lt;b&gt;F8N22_RS00430&lt;/b&gt;&lt;br&gt;NAD(P)-binding domain-containing protein&lt;br&gt;Location: 95752 - 96519" locus_tag="F8N22_RS00430" class="clusterblast-orf" id="dummy-1_h1_7_23"  />
</g>
<g id="a1_0024"  >
<polygon points="580,85 585,80 592,80 592,90 585,90 580,85 " style="fill:white; stroke-width:1; stroke:black; " description="&lt;b&gt;F8N22_RS00435&lt;/b&gt;&lt;br&gt;thiol-disulfide oxidoreductase DCC family protein&lt;br&gt;Location: 96514 - 96966" locus_tag="F8N22_RS00435" class="clusterblast-orf" id="dummy-1_h1_7_24"  />
</g>
<g id="a1_0025"  >
<polygon points="607,85 612,80 644,80 644,90 612,90 607,85 " style="fill:white; stroke-width:1; stroke:black; " description="&lt;b&gt;F8N22_RS00440&lt;/b&gt;&lt;br&gt;MFS transporter&lt;br&gt;Location: 97495 - 98832" locus_tag="F8N22_RS00440" class="clusterblast-orf" id="dummy-1_h1_7_25"  />
</g>
<g id="a1_0026"  >
<polygon points="655,85 660,80 696,80 696,90 660,90 655,85 " style="fill:#15abd8; stroke-width:1; stroke:black; " description="&lt;b&gt;F8N22_RS00445&lt;/b&gt;&lt;br&gt;methyl-accepting chemotaxis protein&lt;br&gt;Location: 99206 - 100699&lt;br&gt;&lt;br&gt;&lt;b&gt;BlastP hit with ctg1_51&lt;/b&gt;&lt;br&gt;Percentage identity: 31&lt;br&gt;Percentage coverage: 44&lt;br&gt;BLAST bit score: 113&lt;br&gt;E-value: 2.69e-24" locus_tag="F8N22_RS00445" class="clusterblast-orf" id="dummy-1_h1_7_26"  />
</g>
<g id="a1_0027"  >
<polygon points="701,85 706,80 761,80 761,90 706,90 701,85 " style="fill:white; stroke-width:1; stroke:black; " description="&lt;b&gt;F8N22_RS00450&lt;/b&gt;&lt;br&gt;TonB-dependent siderophore receptor&lt;br&gt;Location: 100865 - 103018" locus_tag="F8N22_RS00450" class="clusterblast-orf" id="dummy-1_h1_7_27"  />
</g>
<g id="a1_0028"  >
<polygon points="766,85 771,80 780,80 780,90 771,90 766,85 " style="fill:white; stroke-width:1; stroke:black; " description="&lt;b&gt;F8N22_RS00455&lt;/b&gt;&lt;br&gt;Lrp/AsnC family transcriptional regulator&lt;br&gt;Location: 103203 - 103694" locus_tag="F8N22_RS00455" class="clusterblast-orf" id="dummy-1_h1_7_28"  />
</g>
</svg>
