<svg xmlns="http://www.w3.org/2000/svg" xmlns:xlink="http://www.w3.org/1999/xlink" version="1.1" x="0" y="0" height="230" width="800" viewBox="0 0 800 230" preserveAspectRatio="none"  >
<g label="Query sequence" class="clusterblast-cluster"  >
<text x="5" y="20" class="clusterblast-acc"  >
Query sequence</text>
<line x1="10" y1="35" x2="778.0" y2="35" style="stroke-width:1; stroke:grey; "  />
<polygon points="10,40 27,40 32,35 27,30 10,30 10,40 " style="fill:white; stroke-width:1; stroke:black; " description="&lt;b&gt;ctg12_86&lt;/b&gt;&lt;br&gt;ctg12 86&lt;br&gt;Location: 86448 - 87063" locus_tag="ctg12_86" class="clusterblast-orf" id="dummy-1_q0_0_all"  />
<polygon points="32,40 107,40 112,35 107,30 32,30 32,40 " style="fill:white; stroke-width:1; stroke:black; " description="&lt;b&gt;ctg12_87&lt;/b&gt;&lt;br&gt;ctg12 87&lt;br&gt;Location: 87059 - 89288" locus_tag="ctg12_87" class="clusterblast-orf" id="dummy-1_q1_0_all"  />
<polygon points="127,40 130,40 135,35 130,30 127,30 127,40 " style="fill:white; stroke-width:1; stroke:black; " description="&lt;b&gt;ctg12_88&lt;/b&gt;&lt;br&gt;ctg12 88&lt;br&gt;Location: 89706 - 89913" locus_tag="ctg12_88" class="clusterblast-orf" id="dummy-1_q2_0_all"  />
<polygon points="150,40 171,40 176,35 171,30 150,30 150,40 " style="fill:#d81515; stroke-width:1; stroke:black; " description="&lt;b&gt;ctg12_89&lt;/b&gt;&lt;br&gt;ctg12 89&lt;br&gt;Location: 90336 - 91053" locus_tag="ctg12_89" class="clusterblast-orf" id="dummy-1_q3_0_all"  />
<polygon points="178,35 183,30 224,30 224,40 183,40 178,35 " style="fill:#77d815; stroke-width:1; stroke:black; " description="&lt;b&gt;ctg12_90&lt;/b&gt;&lt;br&gt;ctg12 90&lt;br&gt;Location: 91118 - 92384" locus_tag="ctg12_90" class="clusterblast-orf" id="dummy-1_q4_0_all"  />
<polygon points="224,35 229,30 272,30 272,40 229,40 224,35 " style="fill:#15d8d8; stroke-width:1; stroke:black; " description="&lt;b&gt;ctg12_91&lt;/b&gt;&lt;br&gt;ctg12 91&lt;br&gt;Location: 92396 - 93716" locus_tag="ctg12_91" class="clusterblast-orf" id="dummy-1_q5_0_all"  />
<polygon points="272,35 277,30 314,30 314,40 277,40 272,35 " style="fill:#7715d8; stroke-width:1; stroke:black; " description="&lt;b&gt;ctg12_92&lt;/b&gt;&lt;br&gt;ctg12 92&lt;br&gt;Location: 93712 - 94876" locus_tag="ctg12_92" class="clusterblast-orf" id="dummy-1_q6_0_all"  />
<polygon points="314,35 319,30 324,30 324,40 319,40 314,35 " style="fill:#d8a715; stroke-width:1; stroke:black; " description="&lt;b&gt;ctg12_93&lt;/b&gt;&lt;br&gt;ctg12 93&lt;br&gt;Location: 94877 - 95153" locus_tag="ctg12_93" class="clusterblast-orf" id="dummy-1_q7_0_all"  />
<polygon points="324,35 329,30 352,30 352,40 329,40 324,35 " style="fill:#15d846; stroke-width:1; stroke:black; " description="&lt;b&gt;ctg12_94&lt;/b&gt;&lt;br&gt;ctg12 94&lt;br&gt;Location: 95156 - 95921" locus_tag="ctg12_94" class="clusterblast-orf" id="dummy-1_q8_0_all"  />
<polygon points="352,35 357,30 376,30 376,40 357,40 352,35 " style="fill:#1546d8; stroke-width:1; stroke:black; " description="&lt;b&gt;ctg12_95&lt;/b&gt;&lt;br&gt;ctg12 95&lt;br&gt;Location: 95928 - 96594" locus_tag="ctg12_95" class="clusterblast-orf" id="dummy-1_q9_0_all"  />
<polygon points="376,35 381,30 414,30 414,40 381,40 376,35 " style="fill:#d815a7; stroke-width:1; stroke:black; " description="&lt;b&gt;ctg12_96&lt;/b&gt;&lt;br&gt;ctg12 96&lt;br&gt;Location: 96607 - 97639" locus_tag="ctg12_96" class="clusterblast-orf" id="dummy-1_q10_0_all"  />
<polygon points="420,40 425,40 430,35 425,30 420,30 420,40 " style="fill:white; stroke-width:1; stroke:black; " description="&lt;b&gt;ctg12_97&lt;/b&gt;&lt;br&gt;ctg12 97&lt;br&gt;Location: 97814 - 98099" locus_tag="ctg12_97" class="clusterblast-orf" id="dummy-1_q11_0_all"  />
<polygon points="452,35 457,30 489,30 489,40 457,40 452,35 " style="fill:white; stroke-width:1; stroke:black; " description="&lt;b&gt;ctg12_98&lt;/b&gt;&lt;br&gt;ctg12 98&lt;br&gt;Location: 98713 - 99742" locus_tag="ctg12_98" class="clusterblast-orf" id="dummy-1_q12_0_all"  />
<polygon points="495,40 522,40 527,35 522,30 495,30 495,40 " style="fill:white; stroke-width:1; stroke:black; " description="&lt;b&gt;ctg12_99&lt;/b&gt;&lt;br&gt;ctg12 99&lt;br&gt;Location: 99886 - 100780" locus_tag="ctg12_99" class="clusterblast-orf" id="dummy-1_q13_0_all"  />
<polygon points="530,40 570,40 575,35 570,30 530,30 530,40 " style="fill:white; stroke-width:1; stroke:black; " description="&lt;b&gt;ctg12_100&lt;/b&gt;&lt;br&gt;ctg12 100&lt;br&gt;Location: 100869 - 102120" locus_tag="ctg12_100" class="clusterblast-orf" id="dummy-1_q14_0_all"  />
<polygon points="580,40 593,40 598,35 593,30 580,30 580,40 " style="fill:white; stroke-width:1; stroke:black; " description="&lt;b&gt;ctg12_101&lt;/b&gt;&lt;br&gt;ctg12 101&lt;br&gt;Location: 102248 - 102752" locus_tag="ctg12_101" class="clusterblast-orf" id="dummy-1_q15_0_all"  />
<polygon points="600,40 621,40 626,35 621,30 600,30 600,40 " style="fill:white; stroke-width:1; stroke:black; " description="&lt;b&gt;ctg12_102&lt;/b&gt;&lt;br&gt;ctg12 102&lt;br&gt;Location: 102821 - 103538" locus_tag="ctg12_102" class="clusterblast-orf" id="dummy-1_q16_0_all"  />
<polygon points="632,35 637,30 671,30 671,40 637,40 632,35 " style="fill:white; stroke-width:1; stroke:black; " description="&lt;b&gt;ctg12_103&lt;/b&gt;&lt;br&gt;ctg12 103&lt;br&gt;Location: 103689 - 104772" locus_tag="ctg12_103" class="clusterblast-orf" id="dummy-1_q17_0_all"  />
<polygon points="673,35 678,30 699,30 699,40 678,40 673,35 " style="fill:white; stroke-width:1; stroke:black; " description="&lt;b&gt;ctg12_104&lt;/b&gt;&lt;br&gt;ctg12 104&lt;br&gt;Location: 104849 - 105548" locus_tag="ctg12_104" class="clusterblast-orf" id="dummy-1_q18_0_all"  />
<polygon points="702,35 707,30 734,30 734,40 707,40 702,35 " style="fill:white; stroke-width:1; stroke:black; " description="&lt;b&gt;ctg12_105&lt;/b&gt;&lt;br&gt;ctg12 105&lt;br&gt;Location: 105651 - 106539" locus_tag="ctg12_105" class="clusterblast-orf" id="dummy-1_q19_0_all"  />
<polygon points="735,35 740,30 747,30 747,40 740,40 735,35 " style="fill:white; stroke-width:1; stroke:black; " description="&lt;b&gt;ctg12_106&lt;/b&gt;&lt;br&gt;ctg12 106&lt;br&gt;Location: 106550 - 106892" locus_tag="ctg12_106" class="clusterblast-orf" id="dummy-1_q20_0_all"  />
<polygon points="747,35 752,30 770,30 770,40 752,40 747,35 " style="fill:white; stroke-width:1; stroke:black; " description="&lt;b&gt;ctg12_107&lt;/b&gt;&lt;br&gt;ctg12 107&lt;br&gt;Location: 106891 - 107518" locus_tag="ctg12_107" class="clusterblast-orf" id="dummy-1_q21_0_all"  />
</g>
<g label="NZ_LMGQ01000029" description="NZ_LMGQ01000029 (160262-187111): Pseudomonas sp. Root569 contig 9, whole geno... (25% of genes show similarity), NAGGN,TfuA-related" class="clusterblast-cluster"  >
<text x="5" y="70" class="clusterblast-acc"  >
<a xlink:href="https://antismash-db.secondarymetabolites.org/area.html?record=NZ_LMGQ01000029&amp;start=160262&amp;end=187111" target="_blank">NZ_LMGQ01000029 (160262-187111)</a>: Pseudomonas sp. Root569 contig 9, whole geno... (25% of genes show similarity), NAGGN,TfuA-related</text>
<line x1="10" y1="85" x2="778.0" y2="85" style="stroke-width:1; stroke:grey; "  />
</g>
<g id="a1_000"  >
<polygon points="0,90 14,90 19,85 14,80 0,80 0,90 " style="fill:white; stroke-width:1; stroke:black; " description="&lt;b&gt;ASD70_RS27390&lt;/b&gt;&lt;br&gt;acireductone dioxygenase&lt;br&gt;Location: 160477 - 161007" locus_tag="ASD70_RS27390" class="clusterblast-orf" id="dummy-1_h1_10_0"  />
</g>
<g id="a1_001"  >
<polygon points="26,90 31,90 36,85 31,80 26,80 26,90 " style="fill:#d81515; stroke-width:1; stroke:black; " description="&lt;b&gt;ASD70_RS27395&lt;/b&gt;&lt;br&gt;helix-turn-helix transcriptional regulator&lt;br&gt;Location: 161219 - 161488&lt;br&gt;&lt;br&gt;&lt;b&gt;BlastP hit with ctg12_89&lt;/b&gt;&lt;br&gt;Percentage identity: 49&lt;br&gt;Percentage coverage: 23&lt;br&gt;BLAST bit score: 55&lt;br&gt;E-value: 5.17e-08" locus_tag="ASD70_RS27395" class="clusterblast-orf" id="dummy-1_h1_10_1"  />
</g>
<g id="a1_002"  >
<polygon points="38,85 43,80 48,80 48,90 43,90 38,85 " style="fill:white; stroke-width:1; stroke:black; " description="&lt;b&gt;ASD70_RS27400&lt;/b&gt;&lt;br&gt;DUF3509 domain-containing protein&lt;br&gt;Location: 161547 - 161825" locus_tag="ASD70_RS27400" class="clusterblast-orf" id="dummy-1_h1_10_2"  />
</g>
<g id="a1_003"  >
<polygon points="52,85 57,80 63,80 63,90 57,90 52,85 " style="fill:white; stroke-width:1; stroke:black; " description="&lt;b&gt;ASD70_RS29035&lt;/b&gt;&lt;br&gt;hypothetical protein&lt;br&gt;Location: 161926 - 162234" locus_tag="ASD70_RS29035" class="clusterblast-orf" id="dummy-1_h1_10_3"  />
</g>
<g id="a1_004"  >
<polygon points="63,90 124,90 129,85 124,80 63,80 63,90 " style="fill:white; stroke-width:1; stroke:black; " description="&lt;b&gt;ASD70_RS27405&lt;/b&gt;&lt;br&gt;long-chain-acyl-CoA synthetase&lt;br&gt;Location: 162233 - 164059" locus_tag="ASD70_RS27405" class="clusterblast-orf" id="dummy-1_h1_10_4"  />
</g>
<g id="a1_005"  >
<polygon points="133,90 146,90 151,85 146,80 133,80 133,90 " style="fill:white; stroke-width:1; stroke:black; " description="&lt;b&gt;ASD70_RS27410&lt;/b&gt;&lt;br&gt;ankyrin repeat domain-containing protein&lt;br&gt;Location: 164166 - 164681" locus_tag="ASD70_RS27410" class="clusterblast-orf" id="dummy-1_h1_10_5"  />
</g>
<g id="a1_006"  >
<polygon points="153,90 167,90 172,85 167,80 153,80 153,90 " style="fill:white; stroke-width:1; stroke:black; " description="&lt;b&gt;ASD70_RS27415&lt;/b&gt;&lt;br&gt;hypothetical protein&lt;br&gt;Location: 164722 - 165252" locus_tag="ASD70_RS27415" class="clusterblast-orf" id="dummy-1_h1_10_6"  />
</g>
<g id="a1_007"  >
<polygon points="174,90 176,90 181,85 176,80 174,80 174,90 " style="fill:white; stroke-width:1; stroke:black; " description="&lt;b&gt;ASD70_RS27420&lt;/b&gt;&lt;br&gt;PLDc N-terminal domain-containing protein&lt;br&gt;Location: 165321 - 165512" locus_tag="ASD70_RS27420" class="clusterblast-orf" id="dummy-1_h1_10_7"  />
</g>
<g id="a1_008"  >
<polygon points="184,85 189,80 225,80 225,90 189,90 184,85 " style="fill:white; stroke-width:1; stroke:black; " description="&lt;b&gt;ASD70_RS27425&lt;/b&gt;&lt;br&gt;hypothetical protein&lt;br&gt;Location: 165590 - 166723" locus_tag="ASD70_RS27425" class="clusterblast-orf" id="dummy-1_h1_10_8"  />
</g>
<g id="a1_009"  >
<polygon points="226,85 231,80 273,80 273,90 231,90 226,85 " style="fill:#15d8d8; stroke-width:1; stroke:black; " description="&lt;b&gt;ASD70_RS27430&lt;/b&gt;&lt;br&gt;MFS transporter&lt;br&gt;Location: 166765 - 168069&lt;br&gt;&lt;br&gt;&lt;b&gt;BlastP hit with ctg12_91&lt;/b&gt;&lt;br&gt;Percentage identity: 32&lt;br&gt;Percentage coverage: 98&lt;br&gt;BLAST bit score: 217&lt;br&gt;E-value: 5.06e-64" locus_tag="ASD70_RS27430" class="clusterblast-orf" id="dummy-1_h1_10_9"  />
</g>
<g id="a1_0010"  >
<polygon points="275,85 280,80 315,80 315,90 280,90 275,85 " style="fill:#7715d8; stroke-width:1; stroke:black; " description="&lt;b&gt;ASD70_RS27435&lt;/b&gt;&lt;br&gt;HesA/MoeB/ThiF family protein&lt;br&gt;Location: 168116 - 169240&lt;br&gt;&lt;br&gt;&lt;b&gt;BlastP hit with ctg12_92&lt;/b&gt;&lt;br&gt;Percentage identity: 44&lt;br&gt;Percentage coverage: 93&lt;br&gt;BLAST bit score: 300&lt;br&gt;E-value: 2e-97" locus_tag="ASD70_RS27435" class="clusterblast-orf" id="dummy-1_h1_10_10"  />
</g>
<g id="a1_0011"  >
<polygon points="316,85 321,80 325,80 325,90 321,90 316,85 " style="fill:white; stroke-width:1; stroke:black; " description="&lt;b&gt;ASD70_RS27440&lt;/b&gt;&lt;br&gt;MoaD/ThiS family protein&lt;br&gt;Location: 169242 - 169514" locus_tag="ASD70_RS27440" class="clusterblast-orf" id="dummy-1_h1_10_11"  />
</g>
<g id="a1_0012"  >
<polygon points="325,85 330,80 353,80 353,90 330,90 325,85 " style="fill:#15d846; stroke-width:1; stroke:black; " description="&lt;b&gt;ASD70_RS27445&lt;/b&gt;&lt;br&gt;hypothetical protein&lt;br&gt;Location: 169518 - 170288&lt;br&gt;&lt;br&gt;&lt;b&gt;BlastP hit with ctg12_94&lt;/b&gt;&lt;br&gt;Percentage identity: 33&lt;br&gt;Percentage coverage: 99&lt;br&gt;BLAST bit score: 134&lt;br&gt;E-value: 1.81e-36" locus_tag="ASD70_RS27445" class="clusterblast-orf" id="dummy-1_h1_10_12"  />
</g>
<g id="a1_0013"  >
<polygon points="352,85 357,80 378,80 378,90 357,90 352,85 " style="fill:#1546d8; stroke-width:1; stroke:black; " description="&lt;b&gt;ASD70_RS27450&lt;/b&gt;&lt;br&gt;hypothetical protein&lt;br&gt;Location: 170263 - 170964&lt;br&gt;&lt;br&gt;&lt;b&gt;BlastP hit with ctg12_95&lt;/b&gt;&lt;br&gt;Percentage identity: 51&lt;br&gt;Percentage coverage: 95&lt;br&gt;BLAST bit score: 201&lt;br&gt;E-value: 3.31e-63" locus_tag="ASD70_RS27450" class="clusterblast-orf" id="dummy-1_h1_10_13"  />
</g>
<g id="a1_0014"  >
<polygon points="377,85 382,80 421,80 421,90 382,90 377,85 " style="fill:#d815a7; stroke-width:1; stroke:black; " description="&lt;b&gt;ASD70_RS27455&lt;/b&gt;&lt;br&gt;YcaO-like family protein&lt;br&gt;Location: 170945 - 172162&lt;br&gt;&lt;br&gt;&lt;b&gt;BlastP hit with ctg12_96&lt;/b&gt;&lt;br&gt;Percentage identity: 48&lt;br&gt;Percentage coverage: 99&lt;br&gt;BLAST bit score: 322&lt;br&gt;E-value: 1.45e-106" locus_tag="ASD70_RS27455" class="clusterblast-orf" id="dummy-1_h1_10_14"  />
</g>
<g id="a1_0015"  >
<polygon points="424,85 429,80 430,80 430,90 429,90 424,85 " style="fill:white; stroke-width:1; stroke:black; " description="&lt;b&gt;ASD70_RS29040&lt;/b&gt;&lt;br&gt;hypothetical protein&lt;br&gt;Location: 172240 - 172416" locus_tag="ASD70_RS29040" class="clusterblast-orf" id="dummy-1_h1_10_15"  />
</g>
<g id="a1_0016"  >
<polygon points="456,90 526,90 531,85 526,80 456,80 456,90 " style="fill:white; stroke-width:1; stroke:black; " description="&lt;b&gt;ASD70_RS27460&lt;/b&gt;&lt;br&gt;LTA synthase family protein&lt;br&gt;Location: 173136 - 175223" locus_tag="ASD70_RS27460" class="clusterblast-orf" id="dummy-1_h1_10_16"  />
</g>
<g id="a1_0017"  >
<polygon points="534,85 539,80 539,80 539,90 539,90 534,85 " style="fill:white; stroke-width:1; stroke:black; " description="&lt;b&gt;ASD70_RS28770&lt;/b&gt;&lt;br&gt;DUF3309 domain-containing protein&lt;br&gt;Location: 175295 - 175447" locus_tag="ASD70_RS28770" class="clusterblast-orf" id="dummy-1_h1_10_17"  />
</g>
<g id="a1_0018"  >
<polygon points="551,90 575,90 580,85 575,80 551,80 551,90 " style="fill:white; stroke-width:1; stroke:black; " description="&lt;b&gt;ASD70_RS27465&lt;/b&gt;&lt;br&gt;SDR family oxidoreductase&lt;br&gt;Location: 175774 - 176589" locus_tag="ASD70_RS27465" class="clusterblast-orf" id="dummy-1_h1_10_18"  />
</g>
<g id="a1_0019"  >
<polygon points="585,90 587,90 592,85 587,80 585,80 585,90 " style="fill:white; stroke-width:1; stroke:black; " description="&lt;b&gt;ASD70_RS27470&lt;/b&gt;&lt;br&gt;carbon storage regulator CsrA&lt;br&gt;Location: 176717 - 176920" locus_tag="ASD70_RS27470" class="clusterblast-orf" id="dummy-1_h1_10_19"  />
</g>
<g id="a1_0020"  >
<polygon points="593,85 598,80 601,80 601,90 598,90 593,85 " style="fill:white; stroke-width:1; stroke:black; " description="&lt;b&gt;ASD70_RS27475&lt;/b&gt;&lt;br&gt;YheU family protein&lt;br&gt;Location: 176931 - 177158" locus_tag="ASD70_RS27475" class="clusterblast-orf" id="dummy-1_h1_10_20"  />
</g>
<g id="a1_0021"  >
<polygon points="604,85 609,80 646,80 646,90 609,90 604,85 " style="fill:white; stroke-width:1; stroke:black; " description="&lt;b&gt;ASD70_RS27480&lt;/b&gt;&lt;br&gt;osmoprotectant NAGGN system M42 family peptidase&lt;br&gt;Location: 177234 - 178418" locus_tag="ASD70_RS27480" class="clusterblast-orf" id="dummy-1_h1_10_21"  />
</g>
<g id="a1_0022"  >
<polygon points="653,85 658,80 715,80 715,90 658,90 653,85 " style="fill:white; stroke-width:1; stroke:black; " description="&lt;b&gt;ASD70_RS27485&lt;/b&gt;&lt;br&gt;N-acetylglutaminylglutamine synthetase&lt;br&gt;Location: 178590 - 180335" locus_tag="ASD70_RS27485" class="clusterblast-orf" id="dummy-1_h1_10_22"  />
</g>
<g id="a1_0023"  >
<polygon points="716,85 721,80 780,80 780,90 721,90 716,85 " style="fill:white; stroke-width:1; stroke:black; " description="&lt;b&gt;ASD70_RS27490&lt;/b&gt;&lt;br&gt;N-acetylglutaminylglutamine amidotransferase&lt;br&gt;Location: 180339 - 182111" locus_tag="ASD70_RS27490" class="clusterblast-orf" id="dummy-1_h1_10_23"  />
</g>
</svg>
