<svg xmlns="http://www.w3.org/2000/svg" xmlns:xlink="http://www.w3.org/1999/xlink" version="1.1" x="0" y="0" height="230" width="800" viewBox="0 0 800 230" preserveAspectRatio="none"  >
<g label="Query sequence" class="clusterblast-cluster"  >
<text x="5" y="20" class="clusterblast-acc"  >
Query sequence</text>
<line x1="10" y1="35" x2="778.0" y2="35" style="stroke-width:1; stroke:grey; "  />
<polygon points="0,40 23,40 28,35 23,30 0,30 0,40 " style="fill:#d81515; stroke-width:1; stroke:black; " description="&lt;b&gt;ctg6_216&lt;/b&gt;&lt;br&gt;ctg6 216&lt;br&gt;Location: 262628 - 264092" locus_tag="ctg6_216" class="clusterblast-orf" id="dummy-1_q0_0_all"  />
<polygon points="28,35 33,30 36,30 36,40 33,40 28,35 " style="fill:#67d815; stroke-width:1; stroke:black; " description="&lt;b&gt;ctg6_217&lt;/b&gt;&lt;br&gt;ctg6 217&lt;br&gt;Location: 264097 - 264499" locus_tag="ctg6_217" class="clusterblast-orf" id="dummy-1_q1_0_all"  />
<polygon points="36,35 41,30 42,30 42,40 41,40 36,35 " style="fill:#15b9d8; stroke-width:1; stroke:black; " description="&lt;b&gt;ctg6_218&lt;/b&gt;&lt;br&gt;ctg6 218&lt;br&gt;Location: 264495 - 264792" locus_tag="ctg6_218" class="clusterblast-orf" id="dummy-1_q2_0_all"  />
<polygon points="47,40 50,40 55,35 50,30 47,30 47,40 " style="fill:#8615d8; stroke-width:1; stroke:black; " description="&lt;b&gt;ctg6_219&lt;/b&gt;&lt;br&gt;ctg6 219&lt;br&gt;Location: 265027 - 265462" locus_tag="ctg6_219" class="clusterblast-orf" id="dummy-1_q3_0_all"  />
<polygon points="58,35 62,30 62,40 58,35 " style="fill:#d83415; stroke-width:1; stroke:black; " description="&lt;b&gt;ctg6_220&lt;/b&gt;&lt;br&gt;ctg6 220&lt;br&gt;Location: 265593 - 265821" locus_tag="ctg6_220" class="clusterblast-orf" id="dummy-1_q4_0_all"  />
<polygon points="72,35 77,30 87,30 87,40 77,40 72,35 " style="fill:#49d815; stroke-width:1; stroke:black; " description="&lt;b&gt;ctg6_221&lt;/b&gt;&lt;br&gt;ctg6 221&lt;br&gt;Location: 266298 - 267069" locus_tag="ctg6_221" class="clusterblast-orf" id="dummy-1_q5_0_all"  />
<polygon points="95,40 102,40 107,35 102,30 95,30 95,40 " style="fill:#159bd8; stroke-width:1; stroke:black; " description="&lt;b&gt;ctg6_222&lt;/b&gt;&lt;br&gt;ctg6 222&lt;br&gt;Location: 267497 - 268127" locus_tag="ctg6_222" class="clusterblast-orf" id="dummy-1_q6_0_all"  />
<polygon points="107,40 118,40 123,35 118,30 107,30 107,40 " style="fill:#a515d8; stroke-width:1; stroke:black; " description="&lt;b&gt;ctg6_223&lt;/b&gt;&lt;br&gt;ctg6 223&lt;br&gt;Location: 268102 - 268915" locus_tag="ctg6_223" class="clusterblast-orf" id="dummy-1_q7_0_all"  />
<polygon points="122,40 123,40 128,35 123,30 122,30 122,40 " style="fill:#d85315; stroke-width:1; stroke:black; " description="&lt;b&gt;ctg6_224&lt;/b&gt;&lt;br&gt;ctg6 224&lt;br&gt;Location: 268892 - 269162" locus_tag="ctg6_224" class="clusterblast-orf" id="dummy-1_q8_0_all"  />
<polygon points="128,40 128,40 133,35 128,30 128,30 128,40 " style="fill:#2ad815; stroke-width:1; stroke:black; " description="&lt;b&gt;ctg6_225&lt;/b&gt;&lt;br&gt;ctg6 225&lt;br&gt;Location: 269171 - 269426" locus_tag="ctg6_225" class="clusterblast-orf" id="dummy-1_q9_0_all"  />
<polygon points="133,40 138,40 143,35 138,30 133,30 133,40 " style="fill:#157cd8; stroke-width:1; stroke:black; " description="&lt;b&gt;ctg6_226&lt;/b&gt;&lt;br&gt;ctg6 226&lt;br&gt;Location: 269422 - 269968" locus_tag="ctg6_226" class="clusterblast-orf" id="dummy-1_q10_0_all"  />
<polygon points="143,40 171,40 176,35 171,30 143,30 143,40 " style="fill:#c415d8; stroke-width:1; stroke:black; " description="&lt;b&gt;ctg6_227&lt;/b&gt;&lt;br&gt;ctg6 227&lt;br&gt;Location: 269964 - 271635" locus_tag="ctg6_227" class="clusterblast-orf" id="dummy-1_q11_0_all"  />
<polygon points="176,40 185,40 190,35 185,30 176,30 176,40 " style="fill:#d87215; stroke-width:1; stroke:black; " description="&lt;b&gt;ctg6_228&lt;/b&gt;&lt;br&gt;ctg6 228&lt;br&gt;Location: 271627 - 272362" locus_tag="ctg6_228" class="clusterblast-orf" id="dummy-1_q12_0_all"  />
<polygon points="190,40 203,40 208,35 203,30 190,30 190,40 " style="fill:#15d81f; stroke-width:1; stroke:black; " description="&lt;b&gt;ctg6_229&lt;/b&gt;&lt;br&gt;ctg6 229&lt;br&gt;Location: 272358 - 273294" locus_tag="ctg6_229" class="clusterblast-orf" id="dummy-1_q13_0_all"  />
<polygon points="208,40 233,40 238,35 233,30 208,30 208,40 " style="fill:#155dd8; stroke-width:1; stroke:black; " description="&lt;b&gt;ctg6_230&lt;/b&gt;&lt;br&gt;ctg6 230&lt;br&gt;Location: 273277 - 274819" locus_tag="ctg6_230" class="clusterblast-orf" id="dummy-1_q14_0_all"  />
<polygon points="238,40 241,40 246,35 241,30 238,30 238,40 " style="fill:#d815ce; stroke-width:1; stroke:black; " description="&lt;b&gt;ctg6_231&lt;/b&gt;&lt;br&gt;ctg6 231&lt;br&gt;Location: 274811 - 275237" locus_tag="ctg6_231" class="clusterblast-orf" id="dummy-1_q15_0_all"  />
<polygon points="246,40 255,40 260,35 255,30 246,30 246,40 " style="fill:#d89015; stroke-width:1; stroke:black; " description="&lt;b&gt;ctg6_232&lt;/b&gt;&lt;br&gt;ctg6 232&lt;br&gt;Location: 275233 - 275917" locus_tag="ctg6_232" class="clusterblast-orf" id="dummy-1_q16_0_all"  />
<polygon points="260,40 300,40 305,35 300,30 260,30 260,40 " style="fill:#15d83e; stroke-width:1; stroke:black; " description="&lt;b&gt;ctg6_233&lt;/b&gt;&lt;br&gt;ctg6 233&lt;br&gt;Location: 275906 - 278219" locus_tag="ctg6_233" class="clusterblast-orf" id="dummy-1_q17_0_all"  />
<polygon points="306,40 325,40 330,35 325,30 306,30 306,40 " style="fill:#153ed8; stroke-width:1; stroke:black; " description="&lt;b&gt;ctg6_234&lt;/b&gt;&lt;br&gt;ctg6 234&lt;br&gt;Location: 278252 - 279500" locus_tag="ctg6_234" class="clusterblast-orf" id="dummy-1_q18_0_all"  />
<polygon points="330,40 339,40 344,35 339,30 330,30 330,40 " style="fill:#d815af; stroke-width:1; stroke:black; " description="&lt;b&gt;ctg6_235&lt;/b&gt;&lt;br&gt;ctg6 235&lt;br&gt;Location: 279496 - 280231" locus_tag="ctg6_235" class="clusterblast-orf" id="dummy-1_q19_0_all"  />
<polygon points="344,40 349,40 354,35 349,30 344,30 344,40 " style="fill:#d8af15; stroke-width:1; stroke:black; " description="&lt;b&gt;ctg6_236&lt;/b&gt;&lt;br&gt;ctg6 236&lt;br&gt;Location: 280227 - 280710" locus_tag="ctg6_236" class="clusterblast-orf" id="dummy-1_q20_0_all"  />
<polygon points="354,40 371,40 376,35 371,30 354,30 354,40 " style="fill:#15d85d; stroke-width:1; stroke:black; " description="&lt;b&gt;ctg6_237&lt;/b&gt;&lt;br&gt;ctg6 237&lt;br&gt;Location: 280706 - 281873" locus_tag="ctg6_237" class="clusterblast-orf" id="dummy-1_q21_0_all"  />
<polygon points="376,40 380,40 385,35 380,30 376,30 376,40 " style="fill:#151fd8; stroke-width:1; stroke:black; " description="&lt;b&gt;ctg6_238&lt;/b&gt;&lt;br&gt;ctg6 238&lt;br&gt;Location: 281869 - 282331" locus_tag="ctg6_238" class="clusterblast-orf" id="dummy-1_q22_0_all"  />
<polygon points="385,40 395,40 400,35 395,30 385,30 385,40 " style="fill:#d81590; stroke-width:1; stroke:black; " description="&lt;b&gt;ctg6_239&lt;/b&gt;&lt;br&gt;ctg6 239&lt;br&gt;Location: 282327 - 283056" locus_tag="ctg6_239" class="clusterblast-orf" id="dummy-1_q23_0_all"  />
<polygon points="400,40 419,40 424,35 419,30 400,30 400,40 " style="fill:#15d85d; stroke-width:1; stroke:black; " description="&lt;b&gt;ctg6_240&lt;/b&gt;&lt;br&gt;ctg6 240&lt;br&gt;Location: 283055 - 284282" locus_tag="ctg6_240" class="clusterblast-orf" id="dummy-1_q24_0_all"  />
<polygon points="424,40 428,40 433,35 428,30 424,30 424,40 " style="fill:#d8ce15; stroke-width:1; stroke:black; " description="&lt;b&gt;ctg6_241&lt;/b&gt;&lt;br&gt;ctg6 241&lt;br&gt;Location: 284309 - 284759" locus_tag="ctg6_241" class="clusterblast-orf" id="dummy-1_q25_0_all"  />
<polygon points="437,35 442,30 445,30 445,40 442,40 437,35 " style="fill:#15d87c; stroke-width:1; stroke:black; " description="&lt;b&gt;ctg6_242&lt;/b&gt;&lt;br&gt;ctg6 242&lt;br&gt;Location: 284973 - 285360" locus_tag="ctg6_242" class="clusterblast-orf" id="dummy-1_q26_0_all"  />
<polygon points="446,35 451,30 464,30 464,40 451,40 446,35 " style="fill:#2a15d8; stroke-width:1; stroke:black; " description="&lt;b&gt;ctg6_243&lt;/b&gt;&lt;br&gt;ctg6 243&lt;br&gt;Location: 285447 - 286341" locus_tag="ctg6_243" class="clusterblast-orf" id="dummy-1_q27_0_all"  />
<polygon points="466,40 486,40 491,35 486,30 466,30 466,40 " style="fill:#d81572; stroke-width:1; stroke:black; " description="&lt;b&gt;ctg6_244&lt;/b&gt;&lt;br&gt;ctg6 244&lt;br&gt;Location: 286465 - 287740" locus_tag="ctg6_244" class="clusterblast-orf" id="dummy-1_q28_0_all"  />
<polygon points="495,35 500,30 516,30 516,40 500,40 495,35 " style="fill:#c4d815; stroke-width:1; stroke:black; " description="&lt;b&gt;ctg6_245&lt;/b&gt;&lt;br&gt;ctg6 245&lt;br&gt;Location: 287920 - 288988" locus_tag="ctg6_245" class="clusterblast-orf" id="dummy-1_q29_0_all"  />
<polygon points="521,35 526,30 548,30 548,40 526,40 521,35 " style="fill:#15d89b; stroke-width:1; stroke:black; " description="&lt;b&gt;ctg6_246&lt;/b&gt;&lt;br&gt;ctg6 246&lt;br&gt;Location: 289241 - 290660" locus_tag="ctg6_246" class="clusterblast-orf" id="dummy-1_q30_0_all"  />
<polygon points="551,35 556,30 638,30 638,40 556,40 551,35 " style="fill:#4915d8; stroke-width:1; stroke:black; " description="&lt;b&gt;ctg6_247&lt;/b&gt;&lt;br&gt;ctg6 247&lt;br&gt;Location: 290784 - 295230" locus_tag="ctg6_247" class="clusterblast-orf" id="dummy-1_q31_0_all"  />
<polygon points="645,35 650,30 675,30 675,40 650,40 645,35 " style="fill:#d81553; stroke-width:1; stroke:black; " description="&lt;b&gt;ctg6_248&lt;/b&gt;&lt;br&gt;ctg6 248&lt;br&gt;Location: 295582 - 297151" locus_tag="ctg6_248" class="clusterblast-orf" id="dummy-1_q32_0_all"  />
<polygon points="676,35 681,30 697,30 697,40 681,40 676,35 " style="fill:#a5d815; stroke-width:1; stroke:black; " description="&lt;b&gt;ctg6_249&lt;/b&gt;&lt;br&gt;ctg6 249&lt;br&gt;Location: 297161 - 298262" locus_tag="ctg6_249" class="clusterblast-orf" id="dummy-1_q33_0_all"  />
<polygon points="700,35 705,30 709,30 709,40 705,40 700,35 " style="fill:#15d8b9; stroke-width:1; stroke:black; " description="&lt;b&gt;ctg6_250&lt;/b&gt;&lt;br&gt;ctg6 250&lt;br&gt;Location: 298385 - 298877" locus_tag="ctg6_250" class="clusterblast-orf" id="dummy-1_q34_0_all"  />
<polygon points="710,35 715,30 737,30 737,40 715,40 710,35 " style="fill:#6715d8; stroke-width:1; stroke:black; " description="&lt;b&gt;ctg6_251&lt;/b&gt;&lt;br&gt;ctg6 251&lt;br&gt;Location: 298908 - 300294" locus_tag="ctg6_251" class="clusterblast-orf" id="dummy-1_q35_0_all"  />
<polygon points="737,35 742,30 756,30 756,40 742,40 737,35 " style="fill:#d81534; stroke-width:1; stroke:black; " description="&lt;b&gt;ctg6_252&lt;/b&gt;&lt;br&gt;ctg6 252&lt;br&gt;Location: 300306 - 301278" locus_tag="ctg6_252" class="clusterblast-orf" id="dummy-1_q36_0_all"  />
<polygon points="756,35 761,30 767,30 767,40 761,40 756,35 " style="fill:#86d815; stroke-width:1; stroke:black; " description="&lt;b&gt;ctg6_253&lt;/b&gt;&lt;br&gt;ctg6 253&lt;br&gt;Location: 301274 - 301826" locus_tag="ctg6_253" class="clusterblast-orf" id="dummy-1_q37_0_all"  />
<polygon points="767,35 772,30 780,30 780,40 772,40 767,35 " style="fill:#15d8d8; stroke-width:1; stroke:black; " description="&lt;b&gt;ctg6_254&lt;/b&gt;&lt;br&gt;ctg6 254&lt;br&gt;Location: 301822 - 302479" locus_tag="ctg6_254" class="clusterblast-orf" id="dummy-1_q38_0_all"  />
</g>
<g label="NZ_CP027727" description="NZ_CP027727 (489269-532845): Pseudomonas sp. R5-89-07 chromosome, complete ge... (100% of genes show similarity), arylpolyene" class="clusterblast-cluster"  >
<text x="5" y="70" class="clusterblast-acc"  >
<a xlink:href="https://antismash-db.secondarymetabolites.org/area.html?record=NZ_CP027727&amp;start=489269&amp;end=532845" target="_blank">NZ_CP027727 (489269-532845)</a>: Pseudomonas sp. R5-89-07 chromosome, complete ge... (100% of genes show similarity), arylpolyene</text>
<line x1="10" y1="85" x2="778.0" y2="85" style="stroke-width:1; stroke:grey; "  />
</g>
<g id="a1_000"  >
<polygon points="1,90 25,90 30,85 25,80 1,80 1,90 " style="fill:#d81515; stroke-width:1; stroke:black; " description="&lt;b&gt;C4J94_RS02300&lt;/b&gt;&lt;br&gt;YdiU family protein&lt;br&gt;Location: 530964 - 529501&lt;br&gt;&lt;br&gt;&lt;b&gt;BlastP hit with ctg6_216&lt;/b&gt;&lt;br&gt;Percentage identity: 96&lt;br&gt;Percentage coverage: 100&lt;br&gt;BLAST bit score: 949&lt;br&gt;E-value: 0.0" locus_tag="C4J94_RS02300" class="clusterblast-orf" id="dummy-1_h1_4_0"  />
</g>
<g id="a1_001"  >
<polygon points="30,85 35,80 38,80 38,90 35,90 30,85 " style="fill:#67d815; stroke-width:1; stroke:black; " description="&lt;b&gt;C4J94_RS02295&lt;/b&gt;&lt;br&gt;transcriptional regulator&lt;br&gt;Location: 529496 - 529095&lt;br&gt;&lt;br&gt;&lt;b&gt;BlastP hit with ctg6_217&lt;/b&gt;&lt;br&gt;Percentage identity: 85&lt;br&gt;Percentage coverage: 100&lt;br&gt;BLAST bit score: 232&lt;br&gt;E-value: 2.99e-78" locus_tag="C4J94_RS02295" class="clusterblast-orf" id="dummy-1_h1_4_1"  />
</g>
<g id="a1_002"  >
<polygon points="38,85 43,80 44,80 44,90 43,90 38,85 " style="fill:#15b9d8; stroke-width:1; stroke:black; " description="&lt;b&gt;C4J94_RS02290&lt;/b&gt;&lt;br&gt;type II toxin-antitoxin system HigB family toxin&lt;br&gt;Location: 529098 - 528802&lt;br&gt;&lt;br&gt;&lt;b&gt;BlastP hit with ctg6_218&lt;/b&gt;&lt;br&gt;Percentage identity: 79&lt;br&gt;Percentage coverage: 100&lt;br&gt;BLAST bit score: 167&lt;br&gt;E-value: 1.37e-53" locus_tag="C4J94_RS02290" class="clusterblast-orf" id="dummy-1_h1_4_2"  />
</g>
<g id="a1_003"  >
<polygon points="48,90 52,90 57,85 52,80 48,80 48,90 " style="fill:#8615d8; stroke-width:1; stroke:black; " description="&lt;b&gt;C4J94_RS02285&lt;/b&gt;&lt;br&gt;thioredoxin TrxC&lt;br&gt;Location: 528578 - 528144&lt;br&gt;&lt;br&gt;&lt;b&gt;BlastP hit with ctg6_219&lt;/b&gt;&lt;br&gt;Percentage identity: 97&lt;br&gt;Percentage coverage: 100&lt;br&gt;BLAST bit score: 295&lt;br&gt;E-value: 6.61e-103" locus_tag="C4J94_RS02285" class="clusterblast-orf" id="dummy-1_h1_4_3"  />
</g>
<g id="a1_004"  >
<polygon points="58,85 62,80 62,90 58,85 " style="fill:#d83415; stroke-width:1; stroke:black; " description="&lt;b&gt;C4J94_RS02280&lt;/b&gt;&lt;br&gt;hypothetical protein&lt;br&gt;Location: 528079 - 527861&lt;br&gt;&lt;br&gt;&lt;b&gt;BlastP hit with ctg6_220&lt;/b&gt;&lt;br&gt;Percentage identity: 84&lt;br&gt;Percentage coverage: 92&lt;br&gt;BLAST bit score: 117&lt;br&gt;E-value: 1.18e-34" locus_tag="C4J94_RS02280" class="clusterblast-orf" id="dummy-1_h1_4_4"  />
</g>
<g id="a1_005"  >
<polygon points="71,85 76,80 86,80 86,90 76,90 71,85 " style="fill:#49d815; stroke-width:1; stroke:black; " description="&lt;b&gt;C4J94_RS02275&lt;/b&gt;&lt;br&gt;ParA family protein&lt;br&gt;Location: 527396 - 526626&lt;br&gt;&lt;br&gt;&lt;b&gt;BlastP hit with ctg6_221&lt;/b&gt;&lt;br&gt;Percentage identity: 97&lt;br&gt;Percentage coverage: 100&lt;br&gt;BLAST bit score: 489&lt;br&gt;E-value: 3.41e-176" locus_tag="C4J94_RS02275" class="clusterblast-orf" id="dummy-1_h1_4_5"  />
</g>
<g id="a1_006"  >
<polygon points="93,90 102,90 107,85 102,80 93,80 93,90 " style="fill:#159bd8; stroke-width:1; stroke:black; " description="&lt;b&gt;C4J94_RS02270&lt;/b&gt;&lt;br&gt;beta-ketoacyl synthase chain length factor&lt;br&gt;Location: 526310 - 525591&lt;br&gt;&lt;br&gt;&lt;b&gt;BlastP hit with ctg6_222&lt;/b&gt;&lt;br&gt;Percentage identity: 95&lt;br&gt;Percentage coverage: 100&lt;br&gt;BLAST bit score: 407&lt;br&gt;E-value: 1.62e-144" locus_tag="C4J94_RS02270" class="clusterblast-orf" id="dummy-1_h1_4_6"  />
</g>
<g id="a1_007"  >
<polygon points="106,90 117,90 122,85 117,80 106,80 106,90 " style="fill:#a515d8; stroke-width:1; stroke:black; " description="&lt;b&gt;C4J94_RS02265&lt;/b&gt;&lt;br&gt;1-acyl-sn-glycerol-3-phosphate acyltransferase&lt;br&gt;Location: 525615 - 524803&lt;br&gt;&lt;br&gt;&lt;b&gt;BlastP hit with ctg6_223&lt;/b&gt;&lt;br&gt;Percentage identity: 89&lt;br&gt;Percentage coverage: 100&lt;br&gt;BLAST bit score: 491&lt;br&gt;E-value: 2.45e-176" locus_tag="C4J94_RS02265" class="clusterblast-orf" id="dummy-1_h1_4_7"  />
</g>
<g id="a1_008"  >
<polygon points="122,90 122,90 127,85 122,80 122,80 122,90 " style="fill:#d85315; stroke-width:1; stroke:black; " description="&lt;b&gt;C4J94_RS02260&lt;/b&gt;&lt;br&gt;acyl carrier protein&lt;br&gt;Location: 524825 - 524556&lt;br&gt;&lt;br&gt;&lt;b&gt;BlastP hit with ctg6_224&lt;/b&gt;&lt;br&gt;Percentage identity: 94&lt;br&gt;Percentage coverage: 100&lt;br&gt;BLAST bit score: 159&lt;br&gt;E-value: 8.1e-51" locus_tag="C4J94_RS02260" class="clusterblast-orf" id="dummy-1_h1_4_8"  />
</g>
<g id="a1_009"  >
<polygon points="127,90 127,90 132,85 127,80 127,80 127,90 " style="fill:#2ad815; stroke-width:1; stroke:black; " description="&lt;b&gt;C4J94_RS02255&lt;/b&gt;&lt;br&gt;acyl carrier protein&lt;br&gt;Location: 524546 - 524292&lt;br&gt;&lt;br&gt;&lt;b&gt;BlastP hit with ctg6_225&lt;/b&gt;&lt;br&gt;Percentage identity: 94&lt;br&gt;Percentage coverage: 100&lt;br&gt;BLAST bit score: 154&lt;br&gt;E-value: 7.75e-49" locus_tag="C4J94_RS02255" class="clusterblast-orf" id="dummy-1_h1_4_9"  />
</g>
<g id="a1_0010"  >
<polygon points="132,90 138,90 143,85 138,80 132,80 132,90 " style="fill:#157cd8; stroke-width:1; stroke:black; " description="&lt;b&gt;C4J94_RS02250&lt;/b&gt;&lt;br&gt;hypothetical protein&lt;br&gt;Location: 524295 - 523750&lt;br&gt;&lt;br&gt;&lt;b&gt;BlastP hit with ctg6_226&lt;/b&gt;&lt;br&gt;Percentage identity: 93&lt;br&gt;Percentage coverage: 100&lt;br&gt;BLAST bit score: 342&lt;br&gt;E-value: 1.9e-120" locus_tag="C4J94_RS02250" class="clusterblast-orf" id="dummy-1_h1_4_10"  />
</g>
<g id="a1_0011"  >
<polygon points="143,90 170,90 175,85 170,80 143,80 143,90 " style="fill:#c415d8; stroke-width:1; stroke:black; " description="&lt;b&gt;C4J94_RS02245&lt;/b&gt;&lt;br&gt;AMP-binding protein&lt;br&gt;Location: 523753 - 522083&lt;br&gt;&lt;br&gt;&lt;b&gt;BlastP hit with ctg6_227&lt;/b&gt;&lt;br&gt;Percentage identity: 91&lt;br&gt;Percentage coverage: 99&lt;br&gt;BLAST bit score: 1018&lt;br&gt;E-value: 0.0" locus_tag="C4J94_RS02245" class="clusterblast-orf" id="dummy-1_h1_4_11"  />
</g>
<g id="a1_0012"  >
<polygon points="178,90 188,90 193,85 188,80 178,80 178,90 " style="fill:#d87215; stroke-width:1; stroke:black; " description="&lt;b&gt;C4J94_RS02240&lt;/b&gt;&lt;br&gt;glycosyltransferase family 2 protein&lt;br&gt;Location: 521924 - 521190&lt;br&gt;&lt;br&gt;&lt;b&gt;BlastP hit with ctg6_228&lt;/b&gt;&lt;br&gt;Percentage identity: 93&lt;br&gt;Percentage coverage: 100&lt;br&gt;BLAST bit score: 482&lt;br&gt;E-value: 1.51e-173" locus_tag="C4J94_RS02240" class="clusterblast-orf" id="dummy-1_h1_4_12"  />
</g>
<g id="a1_0013"  >
<polygon points="193,90 206,90 211,85 206,80 193,80 193,90 " style="fill:#15d81f; stroke-width:1; stroke:black; " description="&lt;b&gt;C4J94_RS02235&lt;/b&gt;&lt;br&gt;glycosyl transferase&lt;br&gt;Location: 521193 - 520258&lt;br&gt;&lt;br&gt;&lt;b&gt;BlastP hit with ctg6_229&lt;/b&gt;&lt;br&gt;Percentage identity: 93&lt;br&gt;Percentage coverage: 100&lt;br&gt;BLAST bit score: 604&lt;br&gt;E-value: 8.98e-220" locus_tag="C4J94_RS02235" class="clusterblast-orf" id="dummy-1_h1_4_13"  />
</g>
<g id="a1_0014"  >
<polygon points="211,90 236,90 241,85 236,80 211,80 211,90 " style="fill:#155dd8; stroke-width:1; stroke:black; " description="&lt;b&gt;C4J94_RS02230&lt;/b&gt;&lt;br&gt;aromatic amino acid lyase&lt;br&gt;Location: 520274 - 518733&lt;br&gt;&lt;br&gt;&lt;b&gt;BlastP hit with ctg6_230&lt;/b&gt;&lt;br&gt;Percentage identity: 96&lt;br&gt;Percentage coverage: 100&lt;br&gt;BLAST bit score: 980&lt;br&gt;E-value: 0.0" locus_tag="C4J94_RS02230" class="clusterblast-orf" id="dummy-1_h1_4_14"  />
</g>
<g id="a1_0015"  >
<polygon points="241,90 244,90 249,85 244,80 241,80 241,90 " style="fill:#d815ce; stroke-width:1; stroke:black; " description="&lt;b&gt;C4J94_RS02225&lt;/b&gt;&lt;br&gt;acyl-CoA thioesterase&lt;br&gt;Location: 518740 - 518315&lt;br&gt;&lt;br&gt;&lt;b&gt;BlastP hit with ctg6_231&lt;/b&gt;&lt;br&gt;Percentage identity: 95&lt;br&gt;Percentage coverage: 100&lt;br&gt;BLAST bit score: 276&lt;br&gt;E-value: 1.57e-95" locus_tag="C4J94_RS02225" class="clusterblast-orf" id="dummy-1_h1_4_15"  />
</g>
<g id="a1_0016"  >
<polygon points="250,90 257,90 262,85 257,80 250,80 250,90 " style="fill:#d89015; stroke-width:1; stroke:black; " description="&lt;b&gt;C4J94_RS02220&lt;/b&gt;&lt;br&gt;outer membrane lipoprotein carrier protein LolA&lt;br&gt;Location: 518285 - 517635&lt;br&gt;&lt;br&gt;&lt;b&gt;BlastP hit with ctg6_232&lt;/b&gt;&lt;br&gt;Percentage identity: 91&lt;br&gt;Percentage coverage: 95&lt;br&gt;BLAST bit score: 379&lt;br&gt;E-value: 1.97e-133" locus_tag="C4J94_RS02220" class="clusterblast-orf" id="dummy-1_h1_4_16"  />
</g>
<g id="a1_0017"  >
<polygon points="262,90 302,90 307,85 302,80 262,80 262,90 " style="fill:#15d83e; stroke-width:1; stroke:black; " description="&lt;b&gt;C4J94_RS02215&lt;/b&gt;&lt;br&gt;MMPL family transporter&lt;br&gt;Location: 517663 - 515333&lt;br&gt;&lt;br&gt;&lt;b&gt;BlastP hit with ctg6_233&lt;/b&gt;&lt;br&gt;Percentage identity: 93&lt;br&gt;Percentage coverage: 100&lt;br&gt;BLAST bit score: 1361&lt;br&gt;E-value: 0.0" locus_tag="C4J94_RS02215" class="clusterblast-orf" id="dummy-1_h1_4_17"  />
</g>
<g id="a1_0018"  >
<polygon points="308,90 327,90 332,85 327,80 308,80 308,90 " style="fill:#153ed8; stroke-width:1; stroke:black; " description="&lt;b&gt;C4J94_RS02210&lt;/b&gt;&lt;br&gt;tryptophan 7-halogenase&lt;br&gt;Location: 515299 - 514052&lt;br&gt;&lt;br&gt;&lt;b&gt;BlastP hit with ctg6_234&lt;/b&gt;&lt;br&gt;Percentage identity: 93&lt;br&gt;Percentage coverage: 99&lt;br&gt;BLAST bit score: 791&lt;br&gt;E-value: 3.53e-290" locus_tag="C4J94_RS02210" class="clusterblast-orf" id="dummy-1_h1_4_18"  />
</g>
<g id="a1_0019"  >
<polygon points="332,90 342,90 347,85 342,80 332,80 332,90 " style="fill:#d815af; stroke-width:1; stroke:black; " description="&lt;b&gt;C4J94_RS02205&lt;/b&gt;&lt;br&gt;class I SAM-dependent methyltransferase&lt;br&gt;Location: 514055 - 513321&lt;br&gt;&lt;br&gt;&lt;b&gt;BlastP hit with ctg6_235&lt;/b&gt;&lt;br&gt;Percentage identity: 90&lt;br&gt;Percentage coverage: 100&lt;br&gt;BLAST bit score: 458&lt;br&gt;E-value: 4.28e-164" locus_tag="C4J94_RS02205" class="clusterblast-orf" id="dummy-1_h1_4_19"  />
</g>
<g id="a1_0020"  >
<polygon points="347,90 351,90 356,85 351,80 347,80 347,90 " style="fill:#d8af15; stroke-width:1; stroke:black; " description="&lt;b&gt;C4J94_RS02200&lt;/b&gt;&lt;br&gt;hypothetical protein&lt;br&gt;Location: 513324 - 512842&lt;br&gt;&lt;br&gt;&lt;b&gt;BlastP hit with ctg6_236&lt;/b&gt;&lt;br&gt;Percentage identity: 86&lt;br&gt;Percentage coverage: 100&lt;br&gt;BLAST bit score: 278&lt;br&gt;E-value: 1.6e-95" locus_tag="C4J94_RS02200" class="clusterblast-orf" id="dummy-1_h1_4_20"  />
</g>
<g id="a1_0021"  >
<polygon points="356,90 374,90 379,85 374,80 356,80 356,90 " style="fill:#15d85d; stroke-width:1; stroke:black; " description="&lt;b&gt;C4J94_RS02195&lt;/b&gt;&lt;br&gt;beta-ketoacyl-[acyl-carrier-protein] synthase family protein&lt;br&gt;Location: 512845 - 511679&lt;br&gt;&lt;br&gt;&lt;b&gt;BlastP hit with ctg6_237&lt;/b&gt;&lt;br&gt;Percentage identity: 91&lt;br&gt;Percentage coverage: 100&lt;br&gt;BLAST bit score: 714&lt;br&gt;E-value: 1.84e-260&lt;br&gt;&lt;br&gt;&lt;b&gt;BlastP hit with ctg6_240&lt;/b&gt;&lt;br&gt;Percentage identity: 32&lt;br&gt;Percentage coverage: 76&lt;br&gt;BLAST bit score: 125&lt;br&gt;E-value: 3.07e-30" locus_tag="C4J94_RS02195" class="clusterblast-orf" id="dummy-1_h1_4_21"  />
</g>
<g id="a1_0022"  >
<polygon points="379,90 383,90 388,85 383,80 379,80 379,90 " style="fill:#151fd8; stroke-width:1; stroke:black; " description="&lt;b&gt;C4J94_RS02190&lt;/b&gt;&lt;br&gt;hotdog family protein&lt;br&gt;Location: 511682 - 511221&lt;br&gt;&lt;br&gt;&lt;b&gt;BlastP hit with ctg6_238&lt;/b&gt;&lt;br&gt;Percentage identity: 94&lt;br&gt;Percentage coverage: 100&lt;br&gt;BLAST bit score: 298&lt;br&gt;E-value: 5.53e-104" locus_tag="C4J94_RS02190" class="clusterblast-orf" id="dummy-1_h1_4_22"  />
</g>
<g id="a1_0023"  >
<polygon points="388,90 397,90 402,85 397,80 388,80 388,90 " style="fill:#d81590; stroke-width:1; stroke:black; " description="&lt;b&gt;C4J94_RS02185&lt;/b&gt;&lt;br&gt;3-oxoacyl-ACP reductase FabG&lt;br&gt;Location: 511224 - 510496&lt;br&gt;&lt;br&gt;&lt;b&gt;BlastP hit with ctg6_239&lt;/b&gt;&lt;br&gt;Percentage identity: 96&lt;br&gt;Percentage coverage: 100&lt;br&gt;BLAST bit score: 455&lt;br&gt;E-value: 6.08e-163" locus_tag="C4J94_RS02185" class="clusterblast-orf" id="dummy-1_h1_4_23"  />
</g>
<g id="a1_0024"  >
<polygon points="402,90 421,90 426,85 421,80 402,80 402,90 " style="fill:#15d85d; stroke-width:1; stroke:black; " description="&lt;b&gt;C4J94_RS02180&lt;/b&gt;&lt;br&gt;beta-ketoacyl-ACP synthase&lt;br&gt;Location: 510496 - 509270&lt;br&gt;&lt;br&gt;&lt;b&gt;BlastP hit with ctg6_240&lt;/b&gt;&lt;br&gt;Percentage identity: 99&lt;br&gt;Percentage coverage: 100&lt;br&gt;BLAST bit score: 817&lt;br&gt;E-value: 8.81e-301" locus_tag="C4J94_RS02180" class="clusterblast-orf" id="dummy-1_h1_4_24"  />
</g>
<g id="a1_0025"  >
<polygon points="427,90 429,90 434,85 429,80 427,80 427,90 " style="fill:#d8ce15; stroke-width:1; stroke:black; " description="&lt;b&gt;C4J94_RS02175&lt;/b&gt;&lt;br&gt;hypothetical protein&lt;br&gt;Location: 509242 - 508847&lt;br&gt;&lt;br&gt;&lt;b&gt;BlastP hit with ctg6_241&lt;/b&gt;&lt;br&gt;Percentage identity: 93&lt;br&gt;Percentage coverage: 87&lt;br&gt;BLAST bit score: 236&lt;br&gt;E-value: 7.91e-80" locus_tag="C4J94_RS02175" class="clusterblast-orf" id="dummy-1_h1_4_25"  />
</g>
<g id="a1_0026"  >
<polygon points="438,85 443,80 446,80 446,90 443,90 438,85 " style="fill:#15d87c; stroke-width:1; stroke:black; " description="&lt;b&gt;C4J94_RS02170&lt;/b&gt;&lt;br&gt;type II toxin-antitoxin system PemK/MazF family toxin&lt;br&gt;Location: 508644 - 508258&lt;br&gt;&lt;br&gt;&lt;b&gt;BlastP hit with ctg6_242&lt;/b&gt;&lt;br&gt;Percentage identity: 91&lt;br&gt;Percentage coverage: 100&lt;br&gt;BLAST bit score: 235&lt;br&gt;E-value: 1.24e-79" locus_tag="C4J94_RS02170" class="clusterblast-orf" id="dummy-1_h1_4_26"  />
</g>
<g id="a1_0027"  >
<polygon points="448,85 453,80 465,80 465,90 453,90 448,85 " style="fill:#2a15d8; stroke-width:1; stroke:black; " description="&lt;b&gt;C4J94_RS02165&lt;/b&gt;&lt;br&gt;LysR family transcriptional regulator&lt;br&gt;Location: 508170 - 507277&lt;br&gt;&lt;br&gt;&lt;b&gt;BlastP hit with ctg6_243&lt;/b&gt;&lt;br&gt;Percentage identity: 94&lt;br&gt;Percentage coverage: 99&lt;br&gt;BLAST bit score: 525&lt;br&gt;E-value: 7.58e-189" locus_tag="C4J94_RS02165" class="clusterblast-orf" id="dummy-1_h1_4_27"  />
</g>
<g id="a1_0028"  >
<polygon points="468,90 487,90 492,85 487,80 468,80 468,90 " style="fill:#d81572; stroke-width:1; stroke:black; " description="&lt;b&gt;C4J94_RS02160&lt;/b&gt;&lt;br&gt;MFS transporter&lt;br&gt;Location: 507154 - 505880&lt;br&gt;&lt;br&gt;&lt;b&gt;BlastP hit with ctg6_244&lt;/b&gt;&lt;br&gt;Percentage identity: 95&lt;br&gt;Percentage coverage: 99&lt;br&gt;BLAST bit score: 748&lt;br&gt;E-value: 5.82e-273" locus_tag="C4J94_RS02160" class="clusterblast-orf" id="dummy-1_h1_4_28"  />
</g>
<g id="a1_0029"  >
<polygon points="495,85 500,80 516,80 516,90 500,90 495,85 " style="fill:#c4d815; stroke-width:1; stroke:black; " description="&lt;b&gt;C4J94_RS02155&lt;/b&gt;&lt;br&gt;uroporphyrinogen decarboxylase&lt;br&gt;Location: 505759 - 504692&lt;br&gt;&lt;br&gt;&lt;b&gt;BlastP hit with ctg6_245&lt;/b&gt;&lt;br&gt;Percentage identity: 98&lt;br&gt;Percentage coverage: 100&lt;br&gt;BLAST bit score: 706&lt;br&gt;E-value: 1.58e-258" locus_tag="C4J94_RS02155" class="clusterblast-orf" id="dummy-1_h1_4_29"  />
</g>
<g id="a1_0030"  >
<polygon points="520,85 525,80 548,80 548,90 525,90 520,85 " style="fill:#15d89b; stroke-width:1; stroke:black; " description="&lt;b&gt;C4J94_RS02150&lt;/b&gt;&lt;br&gt;FAD-dependent oxidoreductase&lt;br&gt;Location: 504448 - 503030&lt;br&gt;&lt;br&gt;&lt;b&gt;BlastP hit with ctg6_246&lt;/b&gt;&lt;br&gt;Percentage identity: 100&lt;br&gt;Percentage coverage: 100&lt;br&gt;BLAST bit score: 959&lt;br&gt;E-value: 0.0" locus_tag="C4J94_RS02150" class="clusterblast-orf" id="dummy-1_h1_4_30"  />
</g>
<g id="a1_0031"  >
<polygon points="549,85 554,80 636,80 636,90 554,90 549,85 " style="fill:#4915d8; stroke-width:1; stroke:black; " description="&lt;b&gt;C4J94_RS02145&lt;/b&gt;&lt;br&gt;glutamate synthase large subunit&lt;br&gt;Location: 502997 - 498552&lt;br&gt;&lt;br&gt;&lt;b&gt;BlastP hit with ctg6_247&lt;/b&gt;&lt;br&gt;Percentage identity: 98&lt;br&gt;Percentage coverage: 100&lt;br&gt;BLAST bit score: 2860&lt;br&gt;E-value: 0.0" locus_tag="C4J94_RS02145" class="clusterblast-orf" id="dummy-1_h1_4_31"  />
</g>
<g id="a1_0032"  >
<polygon points="643,85 648,80 673,80 673,90 648,90 643,85 " style="fill:#d81553; stroke-width:1; stroke:black; " description="&lt;b&gt;C4J94_RS02135&lt;/b&gt;&lt;br&gt;ExeA family protein&lt;br&gt;Location: 498198 - 496642&lt;br&gt;&lt;br&gt;&lt;b&gt;BlastP hit with ctg6_248&lt;/b&gt;&lt;br&gt;Percentage identity: 94&lt;br&gt;Percentage coverage: 100&lt;br&gt;BLAST bit score: 833&lt;br&gt;E-value: 2.98e-303" locus_tag="C4J94_RS02135" class="clusterblast-orf" id="dummy-1_h1_4_32"  />
</g>
<g id="a1_0033"  >
<polygon points="673,85 678,80 695,80 695,90 678,90 673,85 " style="fill:#a5d815; stroke-width:1; stroke:black; " description="&lt;b&gt;C4J94_RS02130&lt;/b&gt;&lt;br&gt;3-dehydroquinate synthase&lt;br&gt;Location: 496632 - 495532&lt;br&gt;&lt;br&gt;&lt;b&gt;BlastP hit with ctg6_249&lt;/b&gt;&lt;br&gt;Percentage identity: 99&lt;br&gt;Percentage coverage: 100&lt;br&gt;BLAST bit score: 714&lt;br&gt;E-value: 3.33e-261" locus_tag="C4J94_RS02130" class="clusterblast-orf" id="dummy-1_h1_4_33"  />
</g>
<g id="a1_0034"  >
<polygon points="697,85 702,80 708,80 708,90 702,90 697,85 " style="fill:#15d8b9; stroke-width:1; stroke:black; " description="&lt;b&gt;C4J94_RS02125&lt;/b&gt;&lt;br&gt;shikimate kinase AroK&lt;br&gt;Location: 495406 - 494888&lt;br&gt;&lt;br&gt;&lt;b&gt;BlastP hit with ctg6_250&lt;/b&gt;&lt;br&gt;Percentage identity: 98&lt;br&gt;Percentage coverage: 100&lt;br&gt;BLAST bit score: 312&lt;br&gt;E-value: 5.2e-109" locus_tag="C4J94_RS02125" class="clusterblast-orf" id="dummy-1_h1_4_34"  />
</g>
<g id="a1_0035"  >
<polygon points="708,85 713,80 734,80 734,90 713,90 708,85 " style="fill:#6715d8; stroke-width:1; stroke:black; " description="&lt;b&gt;C4J94_RS02120&lt;/b&gt;&lt;br&gt;type IV pilus secretin PilQ family protein&lt;br&gt;Location: 494883 - 493558&lt;br&gt;&lt;br&gt;&lt;b&gt;BlastP hit with ctg6_251&lt;/b&gt;&lt;br&gt;Percentage identity: 89&lt;br&gt;Percentage coverage: 96&lt;br&gt;BLAST bit score: 759&lt;br&gt;E-value: 2.59e-276" locus_tag="C4J94_RS02120" class="clusterblast-orf" id="dummy-1_h1_4_35"  />
</g>
<g id="a1_0036"  >
<polygon points="735,85 740,80 754,80 754,90 740,90 735,85 " style="fill:#d81534; stroke-width:1; stroke:black; " description="&lt;b&gt;C4J94_RS02115&lt;/b&gt;&lt;br&gt;pilus assembly protein PilP&lt;br&gt;Location: 493488 - 492517&lt;br&gt;&lt;br&gt;&lt;b&gt;BlastP hit with ctg6_252&lt;/b&gt;&lt;br&gt;Percentage identity: 64&lt;br&gt;Percentage coverage: 100&lt;br&gt;BLAST bit score: 393&lt;br&gt;E-value: 5.92e-136" locus_tag="C4J94_RS02115" class="clusterblast-orf" id="dummy-1_h1_4_36"  />
</g>
<g id="a1_0037"  >
<polygon points="754,85 759,80 765,80 765,90 759,90 754,85 " style="fill:#86d815; stroke-width:1; stroke:black; " description="&lt;b&gt;C4J94_RS02110&lt;/b&gt;&lt;br&gt;PilN domain-containing protein&lt;br&gt;Location: 492520 - 491969&lt;br&gt;&lt;br&gt;&lt;b&gt;BlastP hit with ctg6_253&lt;/b&gt;&lt;br&gt;Percentage identity: 78&lt;br&gt;Percentage coverage: 100&lt;br&gt;BLAST bit score: 267&lt;br&gt;E-value: 1.62e-90" locus_tag="C4J94_RS02110" class="clusterblast-orf" id="dummy-1_h1_4_37"  />
</g>
<g id="a1_0038"  >
<polygon points="765,85 770,80 778,80 778,90 770,90 765,85 " style="fill:#15d8d8; stroke-width:1; stroke:black; " description="&lt;b&gt;C4J94_RS02105&lt;/b&gt;&lt;br&gt;type IV pilus assembly protein PilM&lt;br&gt;Location: 491972 - 491316&lt;br&gt;&lt;br&gt;&lt;b&gt;BlastP hit with ctg6_254&lt;/b&gt;&lt;br&gt;Percentage identity: 81&lt;br&gt;Percentage coverage: 100&lt;br&gt;BLAST bit score: 335&lt;br&gt;E-value: 3.43e-116" locus_tag="C4J94_RS02105" class="clusterblast-orf" id="dummy-1_h1_4_38"  />
</g>
</svg>
