<svg xmlns="http://www.w3.org/2000/svg" xmlns:xlink="http://www.w3.org/1999/xlink" version="1.1" x="0" y="0" height="230" width="800" viewBox="0 0 800 230" preserveAspectRatio="none"  >
<g label="Query sequence" class="clusterblast-cluster"  >
<text x="5" y="20" class="clusterblast-acc"  >
Query sequence</text>
<line x1="10" y1="35" x2="778.0" y2="35" style="stroke-width:1; stroke:grey; "  />
<polygon points="0,40 23,40 28,35 23,30 0,30 0,40 " style="fill:#d81515; stroke-width:1; stroke:black; " description="&lt;b&gt;ctg6_216&lt;/b&gt;&lt;br&gt;ctg6 216&lt;br&gt;Location: 262628 - 264092" locus_tag="ctg6_216" class="clusterblast-orf" id="dummy-1_q0_0_all"  />
<polygon points="28,35 33,30 36,30 36,40 33,40 28,35 " style="fill:#67d815; stroke-width:1; stroke:black; " description="&lt;b&gt;ctg6_217&lt;/b&gt;&lt;br&gt;ctg6 217&lt;br&gt;Location: 264097 - 264499" locus_tag="ctg6_217" class="clusterblast-orf" id="dummy-1_q1_0_all"  />
<polygon points="36,35 41,30 42,30 42,40 41,40 36,35 " style="fill:#15b9d8; stroke-width:1; stroke:black; " description="&lt;b&gt;ctg6_218&lt;/b&gt;&lt;br&gt;ctg6 218&lt;br&gt;Location: 264495 - 264792" locus_tag="ctg6_218" class="clusterblast-orf" id="dummy-1_q2_0_all"  />
<polygon points="47,40 50,40 55,35 50,30 47,30 47,40 " style="fill:#8615d8; stroke-width:1; stroke:black; " description="&lt;b&gt;ctg6_219&lt;/b&gt;&lt;br&gt;ctg6 219&lt;br&gt;Location: 265027 - 265462" locus_tag="ctg6_219" class="clusterblast-orf" id="dummy-1_q3_0_all"  />
<polygon points="58,35 62,30 62,40 58,35 " style="fill:#d83415; stroke-width:1; stroke:black; " description="&lt;b&gt;ctg6_220&lt;/b&gt;&lt;br&gt;ctg6 220&lt;br&gt;Location: 265593 - 265821" locus_tag="ctg6_220" class="clusterblast-orf" id="dummy-1_q4_0_all"  />
<polygon points="72,35 77,30 87,30 87,40 77,40 72,35 " style="fill:#49d815; stroke-width:1; stroke:black; " description="&lt;b&gt;ctg6_221&lt;/b&gt;&lt;br&gt;ctg6 221&lt;br&gt;Location: 266298 - 267069" locus_tag="ctg6_221" class="clusterblast-orf" id="dummy-1_q5_0_all"  />
<polygon points="95,40 102,40 107,35 102,30 95,30 95,40 " style="fill:#159bd8; stroke-width:1; stroke:black; " description="&lt;b&gt;ctg6_222&lt;/b&gt;&lt;br&gt;ctg6 222&lt;br&gt;Location: 267497 - 268127" locus_tag="ctg6_222" class="clusterblast-orf" id="dummy-1_q6_0_all"  />
<polygon points="107,40 118,40 123,35 118,30 107,30 107,40 " style="fill:#a515d8; stroke-width:1; stroke:black; " description="&lt;b&gt;ctg6_223&lt;/b&gt;&lt;br&gt;ctg6 223&lt;br&gt;Location: 268102 - 268915" locus_tag="ctg6_223" class="clusterblast-orf" id="dummy-1_q7_0_all"  />
<polygon points="122,40 123,40 128,35 123,30 122,30 122,40 " style="fill:#d85315; stroke-width:1; stroke:black; " description="&lt;b&gt;ctg6_224&lt;/b&gt;&lt;br&gt;ctg6 224&lt;br&gt;Location: 268892 - 269162" locus_tag="ctg6_224" class="clusterblast-orf" id="dummy-1_q8_0_all"  />
<polygon points="128,40 128,40 133,35 128,30 128,30 128,40 " style="fill:#2ad815; stroke-width:1; stroke:black; " description="&lt;b&gt;ctg6_225&lt;/b&gt;&lt;br&gt;ctg6 225&lt;br&gt;Location: 269171 - 269426" locus_tag="ctg6_225" class="clusterblast-orf" id="dummy-1_q9_0_all"  />
<polygon points="133,40 138,40 143,35 138,30 133,30 133,40 " style="fill:#157cd8; stroke-width:1; stroke:black; " description="&lt;b&gt;ctg6_226&lt;/b&gt;&lt;br&gt;ctg6 226&lt;br&gt;Location: 269422 - 269968" locus_tag="ctg6_226" class="clusterblast-orf" id="dummy-1_q10_0_all"  />
<polygon points="143,40 171,40 176,35 171,30 143,30 143,40 " style="fill:#c415d8; stroke-width:1; stroke:black; " description="&lt;b&gt;ctg6_227&lt;/b&gt;&lt;br&gt;ctg6 227&lt;br&gt;Location: 269964 - 271635" locus_tag="ctg6_227" class="clusterblast-orf" id="dummy-1_q11_0_all"  />
<polygon points="176,40 185,40 190,35 185,30 176,30 176,40 " style="fill:#d87215; stroke-width:1; stroke:black; " description="&lt;b&gt;ctg6_228&lt;/b&gt;&lt;br&gt;ctg6 228&lt;br&gt;Location: 271627 - 272362" locus_tag="ctg6_228" class="clusterblast-orf" id="dummy-1_q12_0_all"  />
<polygon points="190,40 203,40 208,35 203,30 190,30 190,40 " style="fill:#15d81f; stroke-width:1; stroke:black; " description="&lt;b&gt;ctg6_229&lt;/b&gt;&lt;br&gt;ctg6 229&lt;br&gt;Location: 272358 - 273294" locus_tag="ctg6_229" class="clusterblast-orf" id="dummy-1_q13_0_all"  />
<polygon points="208,40 233,40 238,35 233,30 208,30 208,40 " style="fill:#155dd8; stroke-width:1; stroke:black; " description="&lt;b&gt;ctg6_230&lt;/b&gt;&lt;br&gt;ctg6 230&lt;br&gt;Location: 273277 - 274819" locus_tag="ctg6_230" class="clusterblast-orf" id="dummy-1_q14_0_all"  />
<polygon points="238,40 241,40 246,35 241,30 238,30 238,40 " style="fill:#d815ce; stroke-width:1; stroke:black; " description="&lt;b&gt;ctg6_231&lt;/b&gt;&lt;br&gt;ctg6 231&lt;br&gt;Location: 274811 - 275237" locus_tag="ctg6_231" class="clusterblast-orf" id="dummy-1_q15_0_all"  />
<polygon points="246,40 255,40 260,35 255,30 246,30 246,40 " style="fill:#d89015; stroke-width:1; stroke:black; " description="&lt;b&gt;ctg6_232&lt;/b&gt;&lt;br&gt;ctg6 232&lt;br&gt;Location: 275233 - 275917" locus_tag="ctg6_232" class="clusterblast-orf" id="dummy-1_q16_0_all"  />
<polygon points="260,40 300,40 305,35 300,30 260,30 260,40 " style="fill:#15d83e; stroke-width:1; stroke:black; " description="&lt;b&gt;ctg6_233&lt;/b&gt;&lt;br&gt;ctg6 233&lt;br&gt;Location: 275906 - 278219" locus_tag="ctg6_233" class="clusterblast-orf" id="dummy-1_q17_0_all"  />
<polygon points="306,40 325,40 330,35 325,30 306,30 306,40 " style="fill:#153ed8; stroke-width:1; stroke:black; " description="&lt;b&gt;ctg6_234&lt;/b&gt;&lt;br&gt;ctg6 234&lt;br&gt;Location: 278252 - 279500" locus_tag="ctg6_234" class="clusterblast-orf" id="dummy-1_q18_0_all"  />
<polygon points="330,40 339,40 344,35 339,30 330,30 330,40 " style="fill:#d815af; stroke-width:1; stroke:black; " description="&lt;b&gt;ctg6_235&lt;/b&gt;&lt;br&gt;ctg6 235&lt;br&gt;Location: 279496 - 280231" locus_tag="ctg6_235" class="clusterblast-orf" id="dummy-1_q19_0_all"  />
<polygon points="344,40 349,40 354,35 349,30 344,30 344,40 " style="fill:#d8af15; stroke-width:1; stroke:black; " description="&lt;b&gt;ctg6_236&lt;/b&gt;&lt;br&gt;ctg6 236&lt;br&gt;Location: 280227 - 280710" locus_tag="ctg6_236" class="clusterblast-orf" id="dummy-1_q20_0_all"  />
<polygon points="354,40 371,40 376,35 371,30 354,30 354,40 " style="fill:#15d85d; stroke-width:1; stroke:black; " description="&lt;b&gt;ctg6_237&lt;/b&gt;&lt;br&gt;ctg6 237&lt;br&gt;Location: 280706 - 281873" locus_tag="ctg6_237" class="clusterblast-orf" id="dummy-1_q21_0_all"  />
<polygon points="376,40 380,40 385,35 380,30 376,30 376,40 " style="fill:#151fd8; stroke-width:1; stroke:black; " description="&lt;b&gt;ctg6_238&lt;/b&gt;&lt;br&gt;ctg6 238&lt;br&gt;Location: 281869 - 282331" locus_tag="ctg6_238" class="clusterblast-orf" id="dummy-1_q22_0_all"  />
<polygon points="385,40 395,40 400,35 395,30 385,30 385,40 " style="fill:#d81590; stroke-width:1; stroke:black; " description="&lt;b&gt;ctg6_239&lt;/b&gt;&lt;br&gt;ctg6 239&lt;br&gt;Location: 282327 - 283056" locus_tag="ctg6_239" class="clusterblast-orf" id="dummy-1_q23_0_all"  />
<polygon points="400,40 419,40 424,35 419,30 400,30 400,40 " style="fill:#15d85d; stroke-width:1; stroke:black; " description="&lt;b&gt;ctg6_240&lt;/b&gt;&lt;br&gt;ctg6 240&lt;br&gt;Location: 283055 - 284282" locus_tag="ctg6_240" class="clusterblast-orf" id="dummy-1_q24_0_all"  />
<polygon points="424,40 428,40 433,35 428,30 424,30 424,40 " style="fill:#d8ce15; stroke-width:1; stroke:black; " description="&lt;b&gt;ctg6_241&lt;/b&gt;&lt;br&gt;ctg6 241&lt;br&gt;Location: 284309 - 284759" locus_tag="ctg6_241" class="clusterblast-orf" id="dummy-1_q25_0_all"  />
<polygon points="437,35 442,30 445,30 445,40 442,40 437,35 " style="fill:#15d87c; stroke-width:1; stroke:black; " description="&lt;b&gt;ctg6_242&lt;/b&gt;&lt;br&gt;ctg6 242&lt;br&gt;Location: 284973 - 285360" locus_tag="ctg6_242" class="clusterblast-orf" id="dummy-1_q26_0_all"  />
<polygon points="446,35 451,30 464,30 464,40 451,40 446,35 " style="fill:#2a15d8; stroke-width:1; stroke:black; " description="&lt;b&gt;ctg6_243&lt;/b&gt;&lt;br&gt;ctg6 243&lt;br&gt;Location: 285447 - 286341" locus_tag="ctg6_243" class="clusterblast-orf" id="dummy-1_q27_0_all"  />
<polygon points="466,40 486,40 491,35 486,30 466,30 466,40 " style="fill:#d81572; stroke-width:1; stroke:black; " description="&lt;b&gt;ctg6_244&lt;/b&gt;&lt;br&gt;ctg6 244&lt;br&gt;Location: 286465 - 287740" locus_tag="ctg6_244" class="clusterblast-orf" id="dummy-1_q28_0_all"  />
<polygon points="495,35 500,30 516,30 516,40 500,40 495,35 " style="fill:#c4d815; stroke-width:1; stroke:black; " description="&lt;b&gt;ctg6_245&lt;/b&gt;&lt;br&gt;ctg6 245&lt;br&gt;Location: 287920 - 288988" locus_tag="ctg6_245" class="clusterblast-orf" id="dummy-1_q29_0_all"  />
<polygon points="521,35 526,30 548,30 548,40 526,40 521,35 " style="fill:#15d89b; stroke-width:1; stroke:black; " description="&lt;b&gt;ctg6_246&lt;/b&gt;&lt;br&gt;ctg6 246&lt;br&gt;Location: 289241 - 290660" locus_tag="ctg6_246" class="clusterblast-orf" id="dummy-1_q30_0_all"  />
<polygon points="551,35 556,30 638,30 638,40 556,40 551,35 " style="fill:#4915d8; stroke-width:1; stroke:black; " description="&lt;b&gt;ctg6_247&lt;/b&gt;&lt;br&gt;ctg6 247&lt;br&gt;Location: 290784 - 295230" locus_tag="ctg6_247" class="clusterblast-orf" id="dummy-1_q31_0_all"  />
<polygon points="645,35 650,30 675,30 675,40 650,40 645,35 " style="fill:#d81553; stroke-width:1; stroke:black; " description="&lt;b&gt;ctg6_248&lt;/b&gt;&lt;br&gt;ctg6 248&lt;br&gt;Location: 295582 - 297151" locus_tag="ctg6_248" class="clusterblast-orf" id="dummy-1_q32_0_all"  />
<polygon points="676,35 681,30 697,30 697,40 681,40 676,35 " style="fill:#a5d815; stroke-width:1; stroke:black; " description="&lt;b&gt;ctg6_249&lt;/b&gt;&lt;br&gt;ctg6 249&lt;br&gt;Location: 297161 - 298262" locus_tag="ctg6_249" class="clusterblast-orf" id="dummy-1_q33_0_all"  />
<polygon points="700,35 705,30 709,30 709,40 705,40 700,35 " style="fill:#15d8b9; stroke-width:1; stroke:black; " description="&lt;b&gt;ctg6_250&lt;/b&gt;&lt;br&gt;ctg6 250&lt;br&gt;Location: 298385 - 298877" locus_tag="ctg6_250" class="clusterblast-orf" id="dummy-1_q34_0_all"  />
<polygon points="710,35 715,30 737,30 737,40 715,40 710,35 " style="fill:#6715d8; stroke-width:1; stroke:black; " description="&lt;b&gt;ctg6_251&lt;/b&gt;&lt;br&gt;ctg6 251&lt;br&gt;Location: 298908 - 300294" locus_tag="ctg6_251" class="clusterblast-orf" id="dummy-1_q35_0_all"  />
<polygon points="737,35 742,30 756,30 756,40 742,40 737,35 " style="fill:#d81534; stroke-width:1; stroke:black; " description="&lt;b&gt;ctg6_252&lt;/b&gt;&lt;br&gt;ctg6 252&lt;br&gt;Location: 300306 - 301278" locus_tag="ctg6_252" class="clusterblast-orf" id="dummy-1_q36_0_all"  />
<polygon points="756,35 761,30 767,30 767,40 761,40 756,35 " style="fill:#86d815; stroke-width:1; stroke:black; " description="&lt;b&gt;ctg6_253&lt;/b&gt;&lt;br&gt;ctg6 253&lt;br&gt;Location: 301274 - 301826" locus_tag="ctg6_253" class="clusterblast-orf" id="dummy-1_q37_0_all"  />
<polygon points="767,35 772,30 780,30 780,40 772,40 767,35 " style="fill:#15d8d8; stroke-width:1; stroke:black; " description="&lt;b&gt;ctg6_254&lt;/b&gt;&lt;br&gt;ctg6 254&lt;br&gt;Location: 301822 - 302479" locus_tag="ctg6_254" class="clusterblast-orf" id="dummy-1_q38_0_all"  />
</g>
<g label="NZ_CP018049" description="NZ_CP018049 (451597-495173): Pseudomonas orientalis strain F9 chromosome, com... (100% of genes show similarity), arylpolyene" class="clusterblast-cluster"  >
<text x="5" y="70" class="clusterblast-acc"  >
<a xlink:href="https://antismash-db.secondarymetabolites.org/area.html?record=NZ_CP018049&amp;start=451597&amp;end=495173" target="_blank">NZ_CP018049 (451597-495173)</a>: Pseudomonas orientalis strain F9 chromosome, com... (100% of genes show similarity), arylpolyene</text>
<line x1="10" y1="85" x2="778.0" y2="85" style="stroke-width:1; stroke:grey; "  />
</g>
<g id="a1_000"  >
<polygon points="3,90 26,90 31,85 26,80 3,80 3,90 " style="fill:#d81515; stroke-width:1; stroke:black; " description="&lt;b&gt;BOP93_RS02150&lt;/b&gt;&lt;br&gt;YdiU family protein&lt;br&gt;Location: 493164 - 491701&lt;br&gt;&lt;br&gt;&lt;b&gt;BlastP hit with ctg6_216&lt;/b&gt;&lt;br&gt;Percentage identity: 96&lt;br&gt;Percentage coverage: 100&lt;br&gt;BLAST bit score: 945&lt;br&gt;E-value: 0.0" locus_tag="BOP93_RS02150" class="clusterblast-orf" id="dummy-1_h1_6_0"  />
</g>
<g id="a1_001"  >
<polygon points="31,85 36,80 39,80 39,90 36,90 31,85 " style="fill:#67d815; stroke-width:1; stroke:black; " description="&lt;b&gt;BOP93_RS02145&lt;/b&gt;&lt;br&gt;transcriptional regulator&lt;br&gt;Location: 491696 - 491295&lt;br&gt;&lt;br&gt;&lt;b&gt;BlastP hit with ctg6_217&lt;/b&gt;&lt;br&gt;Percentage identity: 84&lt;br&gt;Percentage coverage: 100&lt;br&gt;BLAST bit score: 230&lt;br&gt;E-value: 1.22e-77" locus_tag="BOP93_RS02145" class="clusterblast-orf" id="dummy-1_h1_6_1"  />
</g>
<g id="a1_002"  >
<polygon points="39,85 44,80 45,80 45,90 44,90 39,85 " style="fill:#15b9d8; stroke-width:1; stroke:black; " description="&lt;b&gt;BOP93_RS02140&lt;/b&gt;&lt;br&gt;type II toxin-antitoxin system HigB family toxin&lt;br&gt;Location: 491298 - 491002&lt;br&gt;&lt;br&gt;&lt;b&gt;BlastP hit with ctg6_218&lt;/b&gt;&lt;br&gt;Percentage identity: 79&lt;br&gt;Percentage coverage: 100&lt;br&gt;BLAST bit score: 163&lt;br&gt;E-value: 3.24e-52" locus_tag="BOP93_RS02140" class="clusterblast-orf" id="dummy-1_h1_6_2"  />
</g>
<g id="a1_003"  >
<polygon points="49,90 53,90 58,85 53,80 49,80 49,90 " style="fill:#8615d8; stroke-width:1; stroke:black; " description="&lt;b&gt;BOP93_RS02135&lt;/b&gt;&lt;br&gt;thioredoxin TrxC&lt;br&gt;Location: 490780 - 490346&lt;br&gt;&lt;br&gt;&lt;b&gt;BlastP hit with ctg6_219&lt;/b&gt;&lt;br&gt;Percentage identity: 94&lt;br&gt;Percentage coverage: 100&lt;br&gt;BLAST bit score: 287&lt;br&gt;E-value: 1.06e-99" locus_tag="BOP93_RS02135" class="clusterblast-orf" id="dummy-1_h1_6_3"  />
</g>
<g id="a1_004"  >
<polygon points="61,85 65,80 65,90 61,85 " style="fill:#d83415; stroke-width:1; stroke:black; " description="&lt;b&gt;BOP93_RS02130&lt;/b&gt;&lt;br&gt;hypothetical protein&lt;br&gt;Location: 490157 - 489975&lt;br&gt;&lt;br&gt;&lt;b&gt;BlastP hit with ctg6_220&lt;/b&gt;&lt;br&gt;Percentage identity: 90&lt;br&gt;Percentage coverage: 68&lt;br&gt;BLAST bit score: 92&lt;br&gt;E-value: 1.01e-24" locus_tag="BOP93_RS02130" class="clusterblast-orf" id="dummy-1_h1_6_4"  />
</g>
<g id="a1_005"  >
<polygon points="73,85 78,80 88,80 88,90 78,90 73,85 " style="fill:#49d815; stroke-width:1; stroke:black; " description="&lt;b&gt;BOP93_RS02125&lt;/b&gt;&lt;br&gt;ParA family protein&lt;br&gt;Location: 489574 - 488804&lt;br&gt;&lt;br&gt;&lt;b&gt;BlastP hit with ctg6_221&lt;/b&gt;&lt;br&gt;Percentage identity: 97&lt;br&gt;Percentage coverage: 100&lt;br&gt;BLAST bit score: 491&lt;br&gt;E-value: 8.36e-177" locus_tag="BOP93_RS02125" class="clusterblast-orf" id="dummy-1_h1_6_5"  />
</g>
<g id="a1_006"  >
<polygon points="94,90 103,90 108,85 103,80 94,80 94,90 " style="fill:#159bd8; stroke-width:1; stroke:black; " description="&lt;b&gt;BOP93_RS02120&lt;/b&gt;&lt;br&gt;beta-ketoacyl synthase chain length factor&lt;br&gt;Location: 488487 - 487768&lt;br&gt;&lt;br&gt;&lt;b&gt;BlastP hit with ctg6_222&lt;/b&gt;&lt;br&gt;Percentage identity: 95&lt;br&gt;Percentage coverage: 99&lt;br&gt;BLAST bit score: 403&lt;br&gt;E-value: 3.81e-143" locus_tag="BOP93_RS02120" class="clusterblast-orf" id="dummy-1_h1_6_6"  />
</g>
<g id="a1_007"  >
<polygon points="108,90 119,90 124,85 119,80 108,80 108,90 " style="fill:#a515d8; stroke-width:1; stroke:black; " description="&lt;b&gt;BOP93_RS02115&lt;/b&gt;&lt;br&gt;1-acyl-sn-glycerol-3-phosphate acyltransferase&lt;br&gt;Location: 487792 - 486980&lt;br&gt;&lt;br&gt;&lt;b&gt;BlastP hit with ctg6_223&lt;/b&gt;&lt;br&gt;Percentage identity: 89&lt;br&gt;Percentage coverage: 100&lt;br&gt;BLAST bit score: 490&lt;br&gt;E-value: 4.95e-176" locus_tag="BOP93_RS02115" class="clusterblast-orf" id="dummy-1_h1_6_7"  />
</g>
<g id="a1_008"  >
<polygon points="123,90 124,90 129,85 124,80 123,80 123,90 " style="fill:#d85315; stroke-width:1; stroke:black; " description="&lt;b&gt;BOP93_RS02110&lt;/b&gt;&lt;br&gt;acyl carrier protein&lt;br&gt;Location: 487002 - 486733&lt;br&gt;&lt;br&gt;&lt;b&gt;BlastP hit with ctg6_224&lt;/b&gt;&lt;br&gt;Percentage identity: 94&lt;br&gt;Percentage coverage: 100&lt;br&gt;BLAST bit score: 160&lt;br&gt;E-value: 1.99e-51" locus_tag="BOP93_RS02110" class="clusterblast-orf" id="dummy-1_h1_6_8"  />
</g>
<g id="a1_009"  >
<polygon points="129,90 129,90 134,85 129,80 129,80 129,90 " style="fill:#2ad815; stroke-width:1; stroke:black; " description="&lt;b&gt;BOP93_RS02105&lt;/b&gt;&lt;br&gt;acyl carrier protein&lt;br&gt;Location: 486723 - 486469&lt;br&gt;&lt;br&gt;&lt;b&gt;BlastP hit with ctg6_225&lt;/b&gt;&lt;br&gt;Percentage identity: 94&lt;br&gt;Percentage coverage: 100&lt;br&gt;BLAST bit score: 152&lt;br&gt;E-value: 2.22e-48" locus_tag="BOP93_RS02105" class="clusterblast-orf" id="dummy-1_h1_6_9"  />
</g>
<g id="a1_0010"  >
<polygon points="134,90 139,90 144,85 139,80 134,80 134,90 " style="fill:#157cd8; stroke-width:1; stroke:black; " description="&lt;b&gt;BOP93_RS02100&lt;/b&gt;&lt;br&gt;hypothetical protein&lt;br&gt;Location: 486472 - 485927&lt;br&gt;&lt;br&gt;&lt;b&gt;BlastP hit with ctg6_226&lt;/b&gt;&lt;br&gt;Percentage identity: 91&lt;br&gt;Percentage coverage: 100&lt;br&gt;BLAST bit score: 335&lt;br&gt;E-value: 1.5e-117" locus_tag="BOP93_RS02100" class="clusterblast-orf" id="dummy-1_h1_6_10"  />
</g>
<g id="a1_0011"  >
<polygon points="144,90 172,90 177,85 172,80 144,80 144,90 " style="fill:#c415d8; stroke-width:1; stroke:black; " description="&lt;b&gt;BOP93_RS02095&lt;/b&gt;&lt;br&gt;AMP-binding protein&lt;br&gt;Location: 485930 - 484260&lt;br&gt;&lt;br&gt;&lt;b&gt;BlastP hit with ctg6_227&lt;/b&gt;&lt;br&gt;Percentage identity: 91&lt;br&gt;Percentage coverage: 100&lt;br&gt;BLAST bit score: 1020&lt;br&gt;E-value: 0.0" locus_tag="BOP93_RS02095" class="clusterblast-orf" id="dummy-1_h1_6_11"  />
</g>
<g id="a1_0012"  >
<polygon points="177,90 186,90 191,85 186,80 177,80 177,90 " style="fill:#d87215; stroke-width:1; stroke:black; " description="&lt;b&gt;BOP93_RS02090&lt;/b&gt;&lt;br&gt;glycosyltransferase family 2 protein&lt;br&gt;Location: 484267 - 483533&lt;br&gt;&lt;br&gt;&lt;b&gt;BlastP hit with ctg6_228&lt;/b&gt;&lt;br&gt;Percentage identity: 91&lt;br&gt;Percentage coverage: 100&lt;br&gt;BLAST bit score: 469&lt;br&gt;E-value: 2.31e-168" locus_tag="BOP93_RS02090" class="clusterblast-orf" id="dummy-1_h1_6_12"  />
</g>
<g id="a1_0013"  >
<polygon points="191,90 204,90 209,85 204,80 191,80 191,90 " style="fill:#15d81f; stroke-width:1; stroke:black; " description="&lt;b&gt;BOP93_RS02085&lt;/b&gt;&lt;br&gt;glycosyl transferase&lt;br&gt;Location: 483536 - 482601&lt;br&gt;&lt;br&gt;&lt;b&gt;BlastP hit with ctg6_229&lt;/b&gt;&lt;br&gt;Percentage identity: 90&lt;br&gt;Percentage coverage: 100&lt;br&gt;BLAST bit score: 585&lt;br&gt;E-value: 5.33e-212" locus_tag="BOP93_RS02085" class="clusterblast-orf" id="dummy-1_h1_6_13"  />
</g>
<g id="a1_0014"  >
<polygon points="209,90 234,90 239,85 234,80 209,80 209,90 " style="fill:#155dd8; stroke-width:1; stroke:black; " description="&lt;b&gt;BOP93_RS02080&lt;/b&gt;&lt;br&gt;aromatic amino acid lyase&lt;br&gt;Location: 482617 - 481076&lt;br&gt;&lt;br&gt;&lt;b&gt;BlastP hit with ctg6_230&lt;/b&gt;&lt;br&gt;Percentage identity: 96&lt;br&gt;Percentage coverage: 100&lt;br&gt;BLAST bit score: 983&lt;br&gt;E-value: 0.0" locus_tag="BOP93_RS02080" class="clusterblast-orf" id="dummy-1_h1_6_14"  />
</g>
<g id="a1_0015"  >
<polygon points="239,90 242,90 247,85 242,80 239,80 239,90 " style="fill:#d815ce; stroke-width:1; stroke:black; " description="&lt;b&gt;BOP93_RS02075&lt;/b&gt;&lt;br&gt;acyl-CoA thioesterase&lt;br&gt;Location: 481083 - 480658&lt;br&gt;&lt;br&gt;&lt;b&gt;BlastP hit with ctg6_231&lt;/b&gt;&lt;br&gt;Percentage identity: 93&lt;br&gt;Percentage coverage: 100&lt;br&gt;BLAST bit score: 272&lt;br&gt;E-value: 5.27e-94" locus_tag="BOP93_RS02075" class="clusterblast-orf" id="dummy-1_h1_6_15"  />
</g>
<g id="a1_0016"  >
<polygon points="247,90 256,90 261,85 256,80 247,80 247,90 " style="fill:#d89015; stroke-width:1; stroke:black; " description="&lt;b&gt;BOP93_RS02070&lt;/b&gt;&lt;br&gt;outer membrane lipoprotein carrier protein LolA&lt;br&gt;Location: 480661 - 479978&lt;br&gt;&lt;br&gt;&lt;b&gt;BlastP hit with ctg6_232&lt;/b&gt;&lt;br&gt;Percentage identity: 86&lt;br&gt;Percentage coverage: 100&lt;br&gt;BLAST bit score: 377&lt;br&gt;E-value: 1.18e-132" locus_tag="BOP93_RS02070" class="clusterblast-orf" id="dummy-1_h1_6_16"  />
</g>
<g id="a1_0017"  >
<polygon points="260,90 301,90 306,85 301,80 260,80 260,90 " style="fill:#15d83e; stroke-width:1; stroke:black; " description="&lt;b&gt;BOP93_RS02065&lt;/b&gt;&lt;br&gt;MMPL family transporter&lt;br&gt;Location: 480006 - 477676&lt;br&gt;&lt;br&gt;&lt;b&gt;BlastP hit with ctg6_233&lt;/b&gt;&lt;br&gt;Percentage identity: 93&lt;br&gt;Percentage coverage: 100&lt;br&gt;BLAST bit score: 1365&lt;br&gt;E-value: 0.0" locus_tag="BOP93_RS02065" class="clusterblast-orf" id="dummy-1_h1_6_17"  />
</g>
<g id="a1_0018"  >
<polygon points="306,90 326,90 331,85 326,80 306,80 306,90 " style="fill:#153ed8; stroke-width:1; stroke:black; " description="&lt;b&gt;BOP93_RS02060&lt;/b&gt;&lt;br&gt;tryptophan 7-halogenase&lt;br&gt;Location: 477642 - 476395&lt;br&gt;&lt;br&gt;&lt;b&gt;BlastP hit with ctg6_234&lt;/b&gt;&lt;br&gt;Percentage identity: 93&lt;br&gt;Percentage coverage: 100&lt;br&gt;BLAST bit score: 790&lt;br&gt;E-value: 1.01e-289" locus_tag="BOP93_RS02060" class="clusterblast-orf" id="dummy-1_h1_6_18"  />
</g>
<g id="a1_0019"  >
<polygon points="331,90 340,90 345,85 340,80 331,80 331,90 " style="fill:#d815af; stroke-width:1; stroke:black; " description="&lt;b&gt;BOP93_RS02055&lt;/b&gt;&lt;br&gt;class I SAM-dependent methyltransferase&lt;br&gt;Location: 476398 - 475649&lt;br&gt;&lt;br&gt;&lt;b&gt;BlastP hit with ctg6_235&lt;/b&gt;&lt;br&gt;Percentage identity: 90&lt;br&gt;Percentage coverage: 98&lt;br&gt;BLAST bit score: 453&lt;br&gt;E-value: 4.92e-162" locus_tag="BOP93_RS02055" class="clusterblast-orf" id="dummy-1_h1_6_19"  />
</g>
<g id="a1_0020"  >
<polygon points="345,90 350,90 355,85 350,80 345,80 345,90 " style="fill:#d8af15; stroke-width:1; stroke:black; " description="&lt;b&gt;BOP93_RS02050&lt;/b&gt;&lt;br&gt;hypothetical protein&lt;br&gt;Location: 475652 - 475170&lt;br&gt;&lt;br&gt;&lt;b&gt;BlastP hit with ctg6_236&lt;/b&gt;&lt;br&gt;Percentage identity: 83&lt;br&gt;Percentage coverage: 100&lt;br&gt;BLAST bit score: 267&lt;br&gt;E-value: 2.97e-91" locus_tag="BOP93_RS02050" class="clusterblast-orf" id="dummy-1_h1_6_20"  />
</g>
<g id="a1_0021"  >
<polygon points="355,90 373,90 378,85 373,80 355,80 355,90 " style="fill:#15d85d; stroke-width:1; stroke:black; " description="&lt;b&gt;BOP93_RS02045&lt;/b&gt;&lt;br&gt;beta-ketoacyl-[acyl-carrier-protein] synthase family protein&lt;br&gt;Location: 475173 - 474007&lt;br&gt;&lt;br&gt;&lt;b&gt;BlastP hit with ctg6_237&lt;/b&gt;&lt;br&gt;Percentage identity: 91&lt;br&gt;Percentage coverage: 100&lt;br&gt;BLAST bit score: 706&lt;br&gt;E-value: 1.45e-257&lt;br&gt;&lt;br&gt;&lt;b&gt;BlastP hit with ctg6_240&lt;/b&gt;&lt;br&gt;Percentage identity: 32&lt;br&gt;Percentage coverage: 76&lt;br&gt;BLAST bit score: 125&lt;br&gt;E-value: 2.22e-30" locus_tag="BOP93_RS02045" class="clusterblast-orf" id="dummy-1_h1_6_21"  />
</g>
<g id="a1_0022"  >
<polygon points="378,90 382,90 387,85 382,80 378,80 378,90 " style="fill:#151fd8; stroke-width:1; stroke:black; " description="&lt;b&gt;BOP93_RS02040&lt;/b&gt;&lt;br&gt;hotdog family protein&lt;br&gt;Location: 474010 - 473549&lt;br&gt;&lt;br&gt;&lt;b&gt;BlastP hit with ctg6_238&lt;/b&gt;&lt;br&gt;Percentage identity: 93&lt;br&gt;Percentage coverage: 100&lt;br&gt;BLAST bit score: 293&lt;br&gt;E-value: 7.55e-102" locus_tag="BOP93_RS02040" class="clusterblast-orf" id="dummy-1_h1_6_22"  />
</g>
<g id="a1_0023"  >
<polygon points="386,90 396,90 401,85 396,80 386,80 386,90 " style="fill:#d81590; stroke-width:1; stroke:black; " description="&lt;b&gt;BOP93_RS02035&lt;/b&gt;&lt;br&gt;3-oxoacyl-ACP reductase FabG&lt;br&gt;Location: 473552 - 472824&lt;br&gt;&lt;br&gt;&lt;b&gt;BlastP hit with ctg6_239&lt;/b&gt;&lt;br&gt;Percentage identity: 97&lt;br&gt;Percentage coverage: 100&lt;br&gt;BLAST bit score: 460&lt;br&gt;E-value: 4.47e-165" locus_tag="BOP93_RS02035" class="clusterblast-orf" id="dummy-1_h1_6_23"  />
</g>
<g id="a1_0024"  >
<polygon points="401,90 420,90 425,85 420,80 401,80 401,90 " style="fill:#15d85d; stroke-width:1; stroke:black; " description="&lt;b&gt;BOP93_RS02030&lt;/b&gt;&lt;br&gt;beta-ketoacyl-ACP synthase&lt;br&gt;Location: 472824 - 471598&lt;br&gt;&lt;br&gt;&lt;b&gt;BlastP hit with ctg6_240&lt;/b&gt;&lt;br&gt;Percentage identity: 98&lt;br&gt;Percentage coverage: 100&lt;br&gt;BLAST bit score: 813&lt;br&gt;E-value: 5.94e-299" locus_tag="BOP93_RS02030" class="clusterblast-orf" id="dummy-1_h1_6_24"  />
</g>
<g id="a1_0025"  >
<polygon points="425,90 428,90 433,85 428,80 425,80 425,90 " style="fill:#d8ce15; stroke-width:1; stroke:black; " description="&lt;b&gt;BOP93_RS02025&lt;/b&gt;&lt;br&gt;hypothetical protein&lt;br&gt;Location: 471571 - 471176&lt;br&gt;&lt;br&gt;&lt;b&gt;BlastP hit with ctg6_241&lt;/b&gt;&lt;br&gt;Percentage identity: 88&lt;br&gt;Percentage coverage: 87&lt;br&gt;BLAST bit score: 223&lt;br&gt;E-value: 2.43e-74" locus_tag="BOP93_RS02025" class="clusterblast-orf" id="dummy-1_h1_6_25"  />
</g>
<g id="a1_0026"  >
<polygon points="437,85 442,80 445,80 445,90 442,90 437,85 " style="fill:#15d87c; stroke-width:1; stroke:black; " description="&lt;b&gt;BOP93_RS02020&lt;/b&gt;&lt;br&gt;type II toxin-antitoxin system PemK/MazF family toxin&lt;br&gt;Location: 470974 - 470588&lt;br&gt;&lt;br&gt;&lt;b&gt;BlastP hit with ctg6_242&lt;/b&gt;&lt;br&gt;Percentage identity: 95&lt;br&gt;Percentage coverage: 100&lt;br&gt;BLAST bit score: 240&lt;br&gt;E-value: 9.12e-82" locus_tag="BOP93_RS02020" class="clusterblast-orf" id="dummy-1_h1_6_26"  />
</g>
<g id="a1_0027"  >
<polygon points="446,85 451,80 464,80 464,90 451,90 446,85 " style="fill:#2a15d8; stroke-width:1; stroke:black; " description="&lt;b&gt;BOP93_RS02015&lt;/b&gt;&lt;br&gt;LysR family transcriptional regulator&lt;br&gt;Location: 470500 - 469607&lt;br&gt;&lt;br&gt;&lt;b&gt;BlastP hit with ctg6_243&lt;/b&gt;&lt;br&gt;Percentage identity: 96&lt;br&gt;Percentage coverage: 99&lt;br&gt;BLAST bit score: 540&lt;br&gt;E-value: 6.09e-195" locus_tag="BOP93_RS02015" class="clusterblast-orf" id="dummy-1_h1_6_27"  />
</g>
<g id="a1_0028"  >
<polygon points="466,90 486,90 491,85 486,80 466,80 466,90 " style="fill:#d81572; stroke-width:1; stroke:black; " description="&lt;b&gt;BOP93_RS02010&lt;/b&gt;&lt;br&gt;MFS transporter&lt;br&gt;Location: 469483 - 468215&lt;br&gt;&lt;br&gt;&lt;b&gt;BlastP hit with ctg6_244&lt;/b&gt;&lt;br&gt;Percentage identity: 95&lt;br&gt;Percentage coverage: 99&lt;br&gt;BLAST bit score: 748&lt;br&gt;E-value: 5.4e-273" locus_tag="BOP93_RS02010" class="clusterblast-orf" id="dummy-1_h1_6_28"  />
</g>
<g id="a1_0029"  >
<polygon points="493,85 498,80 514,80 514,90 498,90 493,85 " style="fill:#c4d815; stroke-width:1; stroke:black; " description="&lt;b&gt;BOP93_RS02005&lt;/b&gt;&lt;br&gt;uroporphyrinogen decarboxylase&lt;br&gt;Location: 468092 - 467025&lt;br&gt;&lt;br&gt;&lt;b&gt;BlastP hit with ctg6_245&lt;/b&gt;&lt;br&gt;Percentage identity: 98&lt;br&gt;Percentage coverage: 100&lt;br&gt;BLAST bit score: 705&lt;br&gt;E-value: 3.18e-258" locus_tag="BOP93_RS02005" class="clusterblast-orf" id="dummy-1_h1_6_29"  />
</g>
<g id="a1_0030"  >
<polygon points="519,85 524,80 547,80 547,90 524,90 519,85 " style="fill:#15d89b; stroke-width:1; stroke:black; " description="&lt;b&gt;BOP93_RS02000&lt;/b&gt;&lt;br&gt;FAD-dependent oxidoreductase&lt;br&gt;Location: 466782 - 465364&lt;br&gt;&lt;br&gt;&lt;b&gt;BlastP hit with ctg6_246&lt;/b&gt;&lt;br&gt;Percentage identity: 99&lt;br&gt;Percentage coverage: 100&lt;br&gt;BLAST bit score: 955&lt;br&gt;E-value: 0.0" locus_tag="BOP93_RS02000" class="clusterblast-orf" id="dummy-1_h1_6_30"  />
</g>
<g id="a1_0031"  >
<polygon points="547,85 552,80 634,80 634,90 552,90 547,85 " style="fill:#4915d8; stroke-width:1; stroke:black; " description="&lt;b&gt;BOP93_RS01995&lt;/b&gt;&lt;br&gt;glutamate synthase large subunit&lt;br&gt;Location: 465331 - 460886&lt;br&gt;&lt;br&gt;&lt;b&gt;BlastP hit with ctg6_247&lt;/b&gt;&lt;br&gt;Percentage identity: 98&lt;br&gt;Percentage coverage: 100&lt;br&gt;BLAST bit score: 2863&lt;br&gt;E-value: 0.0" locus_tag="BOP93_RS01995" class="clusterblast-orf" id="dummy-1_h1_6_31"  />
</g>
<g id="a1_0032"  >
<polygon points="641,85 646,80 672,80 672,90 646,90 641,85 " style="fill:#d81553; stroke-width:1; stroke:black; " description="&lt;b&gt;BOP93_RS01985&lt;/b&gt;&lt;br&gt;ExeA family protein&lt;br&gt;Location: 460534 - 458960&lt;br&gt;&lt;br&gt;&lt;b&gt;BlastP hit with ctg6_248&lt;/b&gt;&lt;br&gt;Percentage identity: 87&lt;br&gt;Percentage coverage: 103&lt;br&gt;BLAST bit score: 833&lt;br&gt;E-value: 3.73e-303" locus_tag="BOP93_RS01985" class="clusterblast-orf" id="dummy-1_h1_6_32"  />
</g>
<g id="a1_0033"  >
<polygon points="672,85 677,80 694,80 694,90 677,90 672,85 " style="fill:#a5d815; stroke-width:1; stroke:black; " description="&lt;b&gt;BOP93_RS01980&lt;/b&gt;&lt;br&gt;3-dehydroquinate synthase&lt;br&gt;Location: 458949 - 457849&lt;br&gt;&lt;br&gt;&lt;b&gt;BlastP hit with ctg6_249&lt;/b&gt;&lt;br&gt;Percentage identity: 99&lt;br&gt;Percentage coverage: 100&lt;br&gt;BLAST bit score: 714&lt;br&gt;E-value: 3.33e-261" locus_tag="BOP93_RS01980" class="clusterblast-orf" id="dummy-1_h1_6_33"  />
</g>
<g id="a1_0034"  >
<polygon points="696,85 701,80 706,80 706,90 701,90 696,85 " style="fill:#15d8b9; stroke-width:1; stroke:black; " description="&lt;b&gt;BOP93_RS01975&lt;/b&gt;&lt;br&gt;shikimate kinase AroK&lt;br&gt;Location: 457723 - 457205&lt;br&gt;&lt;br&gt;&lt;b&gt;BlastP hit with ctg6_250&lt;/b&gt;&lt;br&gt;Percentage identity: 97&lt;br&gt;Percentage coverage: 100&lt;br&gt;BLAST bit score: 309&lt;br&gt;E-value: 8.62e-108" locus_tag="BOP93_RS01975" class="clusterblast-orf" id="dummy-1_h1_6_34"  />
</g>
<g id="a1_0035"  >
<polygon points="707,85 712,80 732,80 732,90 712,90 707,85 " style="fill:#6715d8; stroke-width:1; stroke:black; " description="&lt;b&gt;BOP93_RS01970&lt;/b&gt;&lt;br&gt;type IV pilus secretin PilQ family protein&lt;br&gt;Location: 457200 - 455875&lt;br&gt;&lt;br&gt;&lt;b&gt;BlastP hit with ctg6_251&lt;/b&gt;&lt;br&gt;Percentage identity: 90&lt;br&gt;Percentage coverage: 96&lt;br&gt;BLAST bit score: 765&lt;br&gt;E-value: 1.35e-278" locus_tag="BOP93_RS01970" class="clusterblast-orf" id="dummy-1_h1_6_35"  />
</g>
<g id="a1_0036"  >
<polygon points="734,85 739,80 753,80 753,90 739,90 734,85 " style="fill:#d81534; stroke-width:1; stroke:black; " description="&lt;b&gt;BOP93_RS01965&lt;/b&gt;&lt;br&gt;pilus assembly protein PilP&lt;br&gt;Location: 455805 - 454834&lt;br&gt;&lt;br&gt;&lt;b&gt;BlastP hit with ctg6_252&lt;/b&gt;&lt;br&gt;Percentage identity: 62&lt;br&gt;Percentage coverage: 100&lt;br&gt;BLAST bit score: 379&lt;br&gt;E-value: 2.47e-130" locus_tag="BOP93_RS01965" class="clusterblast-orf" id="dummy-1_h1_6_36"  />
</g>
<g id="a1_0037"  >
<polygon points="753,85 758,80 764,80 764,90 758,90 753,85 " style="fill:#86d815; stroke-width:1; stroke:black; " description="&lt;b&gt;BOP93_RS01960&lt;/b&gt;&lt;br&gt;PilN domain-containing protein&lt;br&gt;Location: 454837 - 454286&lt;br&gt;&lt;br&gt;&lt;b&gt;BlastP hit with ctg6_253&lt;/b&gt;&lt;br&gt;Percentage identity: 73&lt;br&gt;Percentage coverage: 100&lt;br&gt;BLAST bit score: 251&lt;br&gt;E-value: 2.84e-84" locus_tag="BOP93_RS01960" class="clusterblast-orf" id="dummy-1_h1_6_37"  />
</g>
<g id="a1_0038"  >
<polygon points="764,85 769,80 776,80 776,90 769,90 764,85 " style="fill:#15d8d8; stroke-width:1; stroke:black; " description="&lt;b&gt;BOP93_RS01955&lt;/b&gt;&lt;br&gt;type IV pilus assembly protein PilM&lt;br&gt;Location: 454289 - 453633&lt;br&gt;&lt;br&gt;&lt;b&gt;BlastP hit with ctg6_254&lt;/b&gt;&lt;br&gt;Percentage identity: 79&lt;br&gt;Percentage coverage: 100&lt;br&gt;BLAST bit score: 328&lt;br&gt;E-value: 1.33e-113" locus_tag="BOP93_RS01955" class="clusterblast-orf" id="dummy-1_h1_6_38"  />
</g>
</svg>
