<svg xmlns="http://www.w3.org/2000/svg" xmlns:xlink="http://www.w3.org/1999/xlink" version="1.1" x="0" y="0" height="200" width="800" viewBox="0 0 800 200" preserveAspectRatio="none"  >
<g label="Query sequence" class="clusterblast-cluster"  >
<text x="5" y="20" class="clusterblast-acc"  >
Query sequence</text>
<line x1="10" y1="35" x2="778.0" y2="35" style="stroke-width:1; stroke:grey; "  />
<polygon points="0,40 23,40 28,35 23,30 0,30 0,40 " style="fill:white; stroke-width:1; stroke:black; " description="&lt;b&gt;ctg6_216&lt;/b&gt;&lt;br&gt;ctg6 216&lt;br&gt;Location: 262628 - 264092" locus_tag="ctg6_216" class="clusterblast-orf" id="knownclusterblast-1_q0_0_all"  />
<polygon points="28,35 33,30 36,30 36,40 33,40 28,35 " style="fill:white; stroke-width:1; stroke:black; " description="&lt;b&gt;ctg6_217&lt;/b&gt;&lt;br&gt;ctg6 217&lt;br&gt;Location: 264097 - 264499" locus_tag="ctg6_217" class="clusterblast-orf" id="knownclusterblast-1_q1_0_all"  />
<polygon points="36,35 41,30 42,30 42,40 41,40 36,35 " style="fill:white; stroke-width:1; stroke:black; " description="&lt;b&gt;ctg6_218&lt;/b&gt;&lt;br&gt;ctg6 218&lt;br&gt;Location: 264495 - 264792" locus_tag="ctg6_218" class="clusterblast-orf" id="knownclusterblast-1_q2_0_all"  />
<polygon points="47,40 50,40 55,35 50,30 47,30 47,40 " style="fill:white; stroke-width:1; stroke:black; " description="&lt;b&gt;ctg6_219&lt;/b&gt;&lt;br&gt;ctg6 219&lt;br&gt;Location: 265027 - 265462" locus_tag="ctg6_219" class="clusterblast-orf" id="knownclusterblast-1_q3_0_all"  />
<polygon points="58,35 62,30 62,40 58,35 " style="fill:white; stroke-width:1; stroke:black; " description="&lt;b&gt;ctg6_220&lt;/b&gt;&lt;br&gt;ctg6 220&lt;br&gt;Location: 265593 - 265821" locus_tag="ctg6_220" class="clusterblast-orf" id="knownclusterblast-1_q4_0_all"  />
<polygon points="72,35 77,30 87,30 87,40 77,40 72,35 " style="fill:white; stroke-width:1; stroke:black; " description="&lt;b&gt;ctg6_221&lt;/b&gt;&lt;br&gt;ctg6 221&lt;br&gt;Location: 266298 - 267069" locus_tag="ctg6_221" class="clusterblast-orf" id="knownclusterblast-1_q5_0_all"  />
<polygon points="95,40 102,40 107,35 102,30 95,30 95,40 " style="fill:white; stroke-width:1; stroke:black; " description="&lt;b&gt;ctg6_222&lt;/b&gt;&lt;br&gt;ctg6 222&lt;br&gt;Location: 267497 - 268127" locus_tag="ctg6_222" class="clusterblast-orf" id="knownclusterblast-1_q6_0_all"  />
<polygon points="107,40 118,40 123,35 118,30 107,30 107,40 " style="fill:white; stroke-width:1; stroke:black; " description="&lt;b&gt;ctg6_223&lt;/b&gt;&lt;br&gt;ctg6 223&lt;br&gt;Location: 268102 - 268915" locus_tag="ctg6_223" class="clusterblast-orf" id="knownclusterblast-1_q7_0_all"  />
<polygon points="122,40 123,40 128,35 123,30 122,30 122,40 " style="fill:#d81515; stroke-width:1; stroke:black; " description="&lt;b&gt;ctg6_224&lt;/b&gt;&lt;br&gt;ctg6 224&lt;br&gt;Location: 268892 - 269162" locus_tag="ctg6_224" class="clusterblast-orf" id="knownclusterblast-1_q8_0_all"  />
<polygon points="128,40 128,40 133,35 128,30 128,30 128,40 " style="fill:#3cd815; stroke-width:1; stroke:black; " description="&lt;b&gt;ctg6_225&lt;/b&gt;&lt;br&gt;ctg6 225&lt;br&gt;Location: 269171 - 269426" locus_tag="ctg6_225" class="clusterblast-orf" id="knownclusterblast-1_q9_0_all"  />
<polygon points="133,40 138,40 143,35 138,30 133,30 133,40 " style="fill:#1563d8; stroke-width:1; stroke:black; " description="&lt;b&gt;ctg6_226&lt;/b&gt;&lt;br&gt;ctg6 226&lt;br&gt;Location: 269422 - 269968" locus_tag="ctg6_226" class="clusterblast-orf" id="knownclusterblast-1_q10_0_all"  />
<polygon points="143,40 171,40 176,35 171,30 143,30 143,40 " style="fill:white; stroke-width:1; stroke:black; " description="&lt;b&gt;ctg6_227&lt;/b&gt;&lt;br&gt;ctg6 227&lt;br&gt;Location: 269964 - 271635" locus_tag="ctg6_227" class="clusterblast-orf" id="knownclusterblast-1_q11_0_all"  />
<polygon points="176,40 185,40 190,35 185,30 176,30 176,40 " style="fill:#b115d8; stroke-width:1; stroke:black; " description="&lt;b&gt;ctg6_228&lt;/b&gt;&lt;br&gt;ctg6 228&lt;br&gt;Location: 271627 - 272362" locus_tag="ctg6_228" class="clusterblast-orf" id="knownclusterblast-1_q12_0_all"  />
<polygon points="190,40 203,40 208,35 203,30 190,30 190,40 " style="fill:white; stroke-width:1; stroke:black; " description="&lt;b&gt;ctg6_229&lt;/b&gt;&lt;br&gt;ctg6 229&lt;br&gt;Location: 272358 - 273294" locus_tag="ctg6_229" class="clusterblast-orf" id="knownclusterblast-1_q13_0_all"  />
<polygon points="208,40 233,40 238,35 233,30 208,30 208,40 " style="fill:#d88a15; stroke-width:1; stroke:black; " description="&lt;b&gt;ctg6_230&lt;/b&gt;&lt;br&gt;ctg6 230&lt;br&gt;Location: 273277 - 274819" locus_tag="ctg6_230" class="clusterblast-orf" id="knownclusterblast-1_q14_0_all"  />
<polygon points="238,40 241,40 246,35 241,30 238,30 238,40 " style="fill:#15d863; stroke-width:1; stroke:black; " description="&lt;b&gt;ctg6_231&lt;/b&gt;&lt;br&gt;ctg6 231&lt;br&gt;Location: 274811 - 275237" locus_tag="ctg6_231" class="clusterblast-orf" id="knownclusterblast-1_q15_0_all"  />
<polygon points="246,40 255,40 260,35 255,30 246,30 246,40 " style="fill:white; stroke-width:1; stroke:black; " description="&lt;b&gt;ctg6_232&lt;/b&gt;&lt;br&gt;ctg6 232&lt;br&gt;Location: 275233 - 275917" locus_tag="ctg6_232" class="clusterblast-orf" id="knownclusterblast-1_q16_0_all"  />
<polygon points="260,40 300,40 305,35 300,30 260,30 260,40 " style="fill:white; stroke-width:1; stroke:black; " description="&lt;b&gt;ctg6_233&lt;/b&gt;&lt;br&gt;ctg6 233&lt;br&gt;Location: 275906 - 278219" locus_tag="ctg6_233" class="clusterblast-orf" id="knownclusterblast-1_q17_0_all"  />
<polygon points="306,40 325,40 330,35 325,30 306,30 306,40 " style="fill:#3c15d8; stroke-width:1; stroke:black; " description="&lt;b&gt;ctg6_234&lt;/b&gt;&lt;br&gt;ctg6 234&lt;br&gt;Location: 278252 - 279500" locus_tag="ctg6_234" class="clusterblast-orf" id="knownclusterblast-1_q18_0_all"  />
<polygon points="330,40 339,40 344,35 339,30 330,30 330,40 " style="fill:white; stroke-width:1; stroke:black; " description="&lt;b&gt;ctg6_235&lt;/b&gt;&lt;br&gt;ctg6 235&lt;br&gt;Location: 279496 - 280231" locus_tag="ctg6_235" class="clusterblast-orf" id="knownclusterblast-1_q19_0_all"  />
<polygon points="344,40 349,40 354,35 349,30 344,30 344,40 " style="fill:white; stroke-width:1; stroke:black; " description="&lt;b&gt;ctg6_236&lt;/b&gt;&lt;br&gt;ctg6 236&lt;br&gt;Location: 280227 - 280710" locus_tag="ctg6_236" class="clusterblast-orf" id="knownclusterblast-1_q20_0_all"  />
<polygon points="354,40 371,40 376,35 371,30 354,30 354,40 " style="fill:#d8158a; stroke-width:1; stroke:black; " description="&lt;b&gt;ctg6_237&lt;/b&gt;&lt;br&gt;ctg6 237&lt;br&gt;Location: 280706 - 281873" locus_tag="ctg6_237" class="clusterblast-orf" id="knownclusterblast-1_q21_0_all"  />
<polygon points="376,40 380,40 385,35 380,30 376,30 376,40 " style="fill:white; stroke-width:1; stroke:black; " description="&lt;b&gt;ctg6_238&lt;/b&gt;&lt;br&gt;ctg6 238&lt;br&gt;Location: 281869 - 282331" locus_tag="ctg6_238" class="clusterblast-orf" id="knownclusterblast-1_q22_0_all"  />
<polygon points="385,40 395,40 400,35 395,30 385,30 385,40 " style="fill:#b1d815; stroke-width:1; stroke:black; " description="&lt;b&gt;ctg6_239&lt;/b&gt;&lt;br&gt;ctg6 239&lt;br&gt;Location: 282327 - 283056" locus_tag="ctg6_239" class="clusterblast-orf" id="knownclusterblast-1_q23_0_all"  />
<polygon points="400,40 419,40 424,35 419,30 400,30 400,40 " style="fill:#15d8d8; stroke-width:1; stroke:black; " description="&lt;b&gt;ctg6_240&lt;/b&gt;&lt;br&gt;ctg6 240&lt;br&gt;Location: 283055 - 284282" locus_tag="ctg6_240" class="clusterblast-orf" id="knownclusterblast-1_q24_0_all"  />
<polygon points="424,40 428,40 433,35 428,30 424,30 424,40 " style="fill:white; stroke-width:1; stroke:black; " description="&lt;b&gt;ctg6_241&lt;/b&gt;&lt;br&gt;ctg6 241&lt;br&gt;Location: 284309 - 284759" locus_tag="ctg6_241" class="clusterblast-orf" id="knownclusterblast-1_q25_0_all"  />
<polygon points="437,35 442,30 445,30 445,40 442,40 437,35 " style="fill:white; stroke-width:1; stroke:black; " description="&lt;b&gt;ctg6_242&lt;/b&gt;&lt;br&gt;ctg6 242&lt;br&gt;Location: 284973 - 285360" locus_tag="ctg6_242" class="clusterblast-orf" id="knownclusterblast-1_q26_0_all"  />
<polygon points="446,35 451,30 464,30 464,40 451,40 446,35 " style="fill:white; stroke-width:1; stroke:black; " description="&lt;b&gt;ctg6_243&lt;/b&gt;&lt;br&gt;ctg6 243&lt;br&gt;Location: 285447 - 286341" locus_tag="ctg6_243" class="clusterblast-orf" id="knownclusterblast-1_q27_0_all"  />
<polygon points="466,40 486,40 491,35 486,30 466,30 466,40 " style="fill:white; stroke-width:1; stroke:black; " description="&lt;b&gt;ctg6_244&lt;/b&gt;&lt;br&gt;ctg6 244&lt;br&gt;Location: 286465 - 287740" locus_tag="ctg6_244" class="clusterblast-orf" id="knownclusterblast-1_q28_0_all"  />
<polygon points="495,35 500,30 516,30 516,40 500,40 495,35 " style="fill:white; stroke-width:1; stroke:black; " description="&lt;b&gt;ctg6_245&lt;/b&gt;&lt;br&gt;ctg6 245&lt;br&gt;Location: 287920 - 288988" locus_tag="ctg6_245" class="clusterblast-orf" id="knownclusterblast-1_q29_0_all"  />
<polygon points="521,35 526,30 548,30 548,40 526,40 521,35 " style="fill:white; stroke-width:1; stroke:black; " description="&lt;b&gt;ctg6_246&lt;/b&gt;&lt;br&gt;ctg6 246&lt;br&gt;Location: 289241 - 290660" locus_tag="ctg6_246" class="clusterblast-orf" id="knownclusterblast-1_q30_0_all"  />
<polygon points="551,35 556,30 638,30 638,40 556,40 551,35 " style="fill:white; stroke-width:1; stroke:black; " description="&lt;b&gt;ctg6_247&lt;/b&gt;&lt;br&gt;ctg6 247&lt;br&gt;Location: 290784 - 295230" locus_tag="ctg6_247" class="clusterblast-orf" id="knownclusterblast-1_q31_0_all"  />
<polygon points="645,35 650,30 675,30 675,40 650,40 645,35 " style="fill:white; stroke-width:1; stroke:black; " description="&lt;b&gt;ctg6_248&lt;/b&gt;&lt;br&gt;ctg6 248&lt;br&gt;Location: 295582 - 297151" locus_tag="ctg6_248" class="clusterblast-orf" id="knownclusterblast-1_q32_0_all"  />
<polygon points="676,35 681,30 697,30 697,40 681,40 676,35 " style="fill:white; stroke-width:1; stroke:black; " description="&lt;b&gt;ctg6_249&lt;/b&gt;&lt;br&gt;ctg6 249&lt;br&gt;Location: 297161 - 298262" locus_tag="ctg6_249" class="clusterblast-orf" id="knownclusterblast-1_q33_0_all"  />
<polygon points="700,35 705,30 709,30 709,40 705,40 700,35 " style="fill:white; stroke-width:1; stroke:black; " description="&lt;b&gt;ctg6_250&lt;/b&gt;&lt;br&gt;ctg6 250&lt;br&gt;Location: 298385 - 298877" locus_tag="ctg6_250" class="clusterblast-orf" id="knownclusterblast-1_q34_0_all"  />
<polygon points="710,35 715,30 737,30 737,40 715,40 710,35 " style="fill:white; stroke-width:1; stroke:black; " description="&lt;b&gt;ctg6_251&lt;/b&gt;&lt;br&gt;ctg6 251&lt;br&gt;Location: 298908 - 300294" locus_tag="ctg6_251" class="clusterblast-orf" id="knownclusterblast-1_q35_0_all"  />
<polygon points="737,35 742,30 756,30 756,40 742,40 737,35 " style="fill:white; stroke-width:1; stroke:black; " description="&lt;b&gt;ctg6_252&lt;/b&gt;&lt;br&gt;ctg6 252&lt;br&gt;Location: 300306 - 301278" locus_tag="ctg6_252" class="clusterblast-orf" id="knownclusterblast-1_q36_0_all"  />
<polygon points="756,35 761,30 767,30 767,40 761,40 756,35 " style="fill:white; stroke-width:1; stroke:black; " description="&lt;b&gt;ctg6_253&lt;/b&gt;&lt;br&gt;ctg6 253&lt;br&gt;Location: 301274 - 301826" locus_tag="ctg6_253" class="clusterblast-orf" id="knownclusterblast-1_q37_0_all"  />
<polygon points="767,35 772,30 780,30 780,40 772,40 767,35 " style="fill:white; stroke-width:1; stroke:black; " description="&lt;b&gt;ctg6_254&lt;/b&gt;&lt;br&gt;ctg6 254&lt;br&gt;Location: 301822 - 302479" locus_tag="ctg6_254" class="clusterblast-orf" id="knownclusterblast-1_q38_0_all"  />
</g>
<g label="BGC0000837" description="BGC0000837_c1: APE Vf (40% of genes show similarity), Other" class="clusterblast-cluster"  >
<text x="5" y="70" class="clusterblast-acc"  >
<a xlink:href="https://mibig.secondarymetabolites.org/go/BGC0000837/1" target="_blank">BGC0000837</a>: APE Vf                                                                           (40% of genes show similarity), Other</text>
<line x1="10" y1="85" x2="778.0" y2="85" style="stroke-width:1; stroke:grey; "  />
</g>
<g id="a1_000"  >
<polygon points="208,85 213,80 232,80 232,90 213,90 208,85 " style="fill:#3c15d8; stroke-width:1; stroke:black; " description="&lt;b&gt;VF_0841&lt;/b&gt;&lt;br&gt;dehydrogenase&lt;br&gt;Location: 1 - 1233&lt;br&gt;&lt;br&gt;&lt;b&gt;BlastP hit with ctg6_234&lt;/b&gt;&lt;br&gt;Percentage identity: 56&lt;br&gt;Percentage coverage: 97&lt;br&gt;BLAST bit score: 463&lt;br&gt;E-value: 2.48e-162" locus_tag="VF_0841" class="clusterblast-orf" id="knownclusterblast-1_all_1_1_0"  />
</g>
<g id="a1_001"  >
<polygon points="234,85 239,80 255,80 255,90 239,90 234,85 " style="fill:white; stroke-width:1; stroke:black; " description="&lt;b&gt;VF_0842&lt;/b&gt;&lt;br&gt;putative O-methyltransferase&lt;br&gt;Location: 1333 - 2400" locus_tag="VF_0842" class="clusterblast-orf" id="knownclusterblast-1_all_1_1_1"  />
</g>
<g id="a1_002"  >
<polygon points="257,85 262,80 268,80 268,90 262,90 257,85 " style="fill:white; stroke-width:1; stroke:black; " description="&lt;b&gt;VF_0843&lt;/b&gt;&lt;br&gt;lipoprotein, putative&lt;br&gt;Location: 2504 - 3079" locus_tag="VF_0843" class="clusterblast-orf" id="knownclusterblast-1_all_1_1_2"  />
</g>
<g id="a1_003"  >
<polygon points="271,90 280,90 285,85 280,80 271,80 271,90 " style="fill:white; stroke-width:1; stroke:black; " description="&lt;b&gt;VF_0844&lt;/b&gt;&lt;br&gt;hypothetical protein&lt;br&gt;Location: 3209 - 3937" locus_tag="VF_0844" class="clusterblast-orf" id="knownclusterblast-1_all_1_1_3"  />
</g>
<g id="a1_004"  >
<polygon points="285,90 296,90 301,85 296,80 285,80 285,90 " style="fill:white; stroke-width:1; stroke:black; " description="&lt;b&gt;VF_0845&lt;/b&gt;&lt;br&gt;1-acyl-sn-glycerol-3-phosphate acyltransferase&lt;br&gt;Location: 3942 - 4739" locus_tag="VF_0845" class="clusterblast-orf" id="knownclusterblast-1_all_1_1_4"  />
</g>
<g id="a1_005"  >
<polygon points="300,90 301,90 306,85 301,80 300,80 300,90 " style="fill:#d81515; stroke-width:1; stroke:black; " description="&lt;b&gt;VF_0846&lt;/b&gt;&lt;br&gt;acyl carrier protein&lt;br&gt;Location: 4708 - 5004&lt;br&gt;&lt;br&gt;&lt;b&gt;BlastP hit with ctg6_224&lt;/b&gt;&lt;br&gt;Percentage identity: 65&lt;br&gt;Percentage coverage: 92&lt;br&gt;BLAST bit score: 105&lt;br&gt;E-value: 6.44e-31" locus_tag="VF_0846" class="clusterblast-orf" id="knownclusterblast-1_all_1_1_5"  />
</g>
<g id="a1_006"  >
<polygon points="306,90 306,90 311,85 306,80 306,80 306,90 " style="fill:#3cd815; stroke-width:1; stroke:black; " description="&lt;b&gt;VF_0847&lt;/b&gt;&lt;br&gt;acyl carrier protein&lt;br&gt;Location: 5016 - 5273&lt;br&gt;&lt;br&gt;&lt;b&gt;BlastP hit with ctg6_225&lt;/b&gt;&lt;br&gt;Percentage identity: 53&lt;br&gt;Percentage coverage: 90&lt;br&gt;BLAST bit score: 83&lt;br&gt;E-value: 2.47e-22" locus_tag="VF_0847" class="clusterblast-orf" id="knownclusterblast-1_all_1_1_6"  />
</g>
<g id="a1_007"  >
<polygon points="311,90 317,90 322,85 317,80 311,80 311,90 " style="fill:white; stroke-width:1; stroke:black; " description="&lt;b&gt;VF_0848&lt;/b&gt;&lt;br&gt;DNA gyrase subunit B&lt;br&gt;Location: 5273 - 5833" locus_tag="VF_0848" class="clusterblast-orf" id="knownclusterblast-1_all_1_1_7"  />
</g>
<g id="a1_008"  >
<polygon points="321,90 344,90 349,85 344,80 321,80 321,90 " style="fill:white; stroke-width:1; stroke:black; " description="&lt;b&gt;VF_0849&lt;/b&gt;&lt;br&gt;AMP-(fatty)acid ligase&lt;br&gt;Location: 5794 - 7197" locus_tag="VF_0849" class="clusterblast-orf" id="knownclusterblast-1_all_1_1_8"  />
</g>
<g id="a1_009"  >
<polygon points="349,90 352,90 357,85 352,80 349,80 349,90 " style="fill:white; stroke-width:1; stroke:black; " description="&lt;b&gt;VF_0850&lt;/b&gt;&lt;br&gt;AMP-(fatty)acid ligase&lt;br&gt;Location: 7211 - 7585" locus_tag="VF_0850" class="clusterblast-orf" id="knownclusterblast-1_all_1_1_9"  />
</g>
<g id="a1_0010"  >
<polygon points="357,90 385,90 390,85 385,80 357,80 357,90 " style="fill:#b115d8; stroke-width:1; stroke:black; " description="&lt;b&gt;VF_0851&lt;/b&gt;&lt;br&gt;predicted acyltransferase&lt;br&gt;Location: 7588 - 9279&lt;br&gt;&lt;br&gt;&lt;b&gt;BlastP hit with ctg6_228&lt;/b&gt;&lt;br&gt;Percentage identity: 53&lt;br&gt;Percentage coverage: 98&lt;br&gt;BLAST bit score: 273&lt;br&gt;E-value: 8.45e-89" locus_tag="VF_0851" class="clusterblast-orf" id="knownclusterblast-1_all_1_1_10"  />
</g>
<g id="a1_0011"  >
<polygon points="389,90 415,90 420,85 415,80 389,80 389,90 " style="fill:#d88a15; stroke-width:1; stroke:black; " description="&lt;b&gt;VF_0852&lt;/b&gt;&lt;br&gt;phenylalanine and histidine ammonia-lyase&lt;br&gt;Location: 9269 - 10804&lt;br&gt;&lt;br&gt;&lt;b&gt;BlastP hit with ctg6_230&lt;/b&gt;&lt;br&gt;Percentage identity: 63&lt;br&gt;Percentage coverage: 100&lt;br&gt;BLAST bit score: 617&lt;br&gt;E-value: 6.5e-220" locus_tag="VF_0852" class="clusterblast-orf" id="knownclusterblast-1_all_1_1_11"  />
</g>
<g id="a1_0012"  >
<polygon points="420,90 423,90 428,85 423,80 420,80 420,90 " style="fill:white; stroke-width:1; stroke:black; " description="&lt;b&gt;VF_0853&lt;/b&gt;&lt;br&gt;esterase&lt;br&gt;Location: 10816 - 11262" locus_tag="VF_0853" class="clusterblast-orf" id="knownclusterblast-1_all_1_1_12"  />
</g>
<g id="a1_0013"  >
<polygon points="428,90 435,90 440,85 435,80 428,80 428,90 " style="fill:white; stroke-width:1; stroke:black; " description="&lt;b&gt;VF_0854&lt;/b&gt;&lt;br&gt;hypothetical protein&lt;br&gt;Location: 11255 - 11875" locus_tag="VF_0854" class="clusterblast-orf" id="knownclusterblast-1_all_1_1_13"  />
</g>
<g id="a1_0014"  >
<polygon points="451,90 483,90 488,85 483,80 451,80 451,90 " style="fill:white; stroke-width:1; stroke:black; " description="&lt;b&gt;VF_0855&lt;/b&gt;&lt;br&gt;transporter&lt;br&gt;Location: 12397 - 14292" locus_tag="VF_0855" class="clusterblast-orf" id="knownclusterblast-1_all_1_1_14"  />
</g>
<g id="a1_0015"  >
<polygon points="488,90 495,90 500,85 495,80 488,80 488,90 " style="fill:white; stroke-width:1; stroke:black; " description="&lt;b&gt;VF_0856&lt;/b&gt;&lt;br&gt;phospho-N-acetylmuramoyl-pentapeptide- transferase&lt;br&gt;Location: 14282 - 14908" locus_tag="VF_0856" class="clusterblast-orf" id="knownclusterblast-1_all_1_1_15"  />
</g>
<g id="a1_0016"  >
<polygon points="500,90 518,90 523,85 518,80 500,80 500,90 " style="fill:#d8158a; stroke-width:1; stroke:black; " description="&lt;b&gt;VF_0857&lt;/b&gt;&lt;br&gt;3-oxoacyl-(acyl carrier protein) synthase&lt;br&gt;Location: 14914 - 16101&lt;br&gt;&lt;br&gt;&lt;b&gt;BlastP hit with ctg6_237&lt;/b&gt;&lt;br&gt;Percentage identity: 51&lt;br&gt;Percentage coverage: 100&lt;br&gt;BLAST bit score: 367&lt;br&gt;E-value: 3e-125" locus_tag="VF_0857" class="clusterblast-orf" id="knownclusterblast-1_all_1_1_16"  />
</g>
<g id="a1_0017"  >
<polygon points="523,90 527,90 532,85 527,80 523,80 523,90 " style="fill:white; stroke-width:1; stroke:black; " description="&lt;b&gt;VF_0858&lt;/b&gt;&lt;br&gt;predicted 3-hydroxylacyl-(acyl carrier protein) dehydratase&lt;br&gt;Location: 16092 - 16562" locus_tag="VF_0858" class="clusterblast-orf" id="knownclusterblast-1_all_1_1_17"  />
</g>
<g id="a1_0018"  >
<polygon points="533,90 542,90 547,85 542,80 533,80 533,90 " style="fill:#b1d815; stroke-width:1; stroke:black; " description="&lt;b&gt;VF_0859&lt;/b&gt;&lt;br&gt;3-oxoacyl-(acyl-carrier-protein) reductase, putative&lt;br&gt;Location: 16582 - 17307&lt;br&gt;&lt;br&gt;&lt;b&gt;BlastP hit with ctg6_239&lt;/b&gt;&lt;br&gt;Percentage identity: 61&lt;br&gt;Percentage coverage: 100&lt;br&gt;BLAST bit score: 303&lt;br&gt;E-value: 1.61e-104" locus_tag="VF_0859" class="clusterblast-orf" id="knownclusterblast-1_all_1_1_18"  />
</g>
<g id="a1_0019"  >
<polygon points="547,90 566,90 571,85 566,80 547,80 547,90 " style="fill:#15d8d8; stroke-width:1; stroke:black; " description="&lt;b&gt;VF_0860&lt;/b&gt;&lt;br&gt;3-oxoacyl-(acyl carrier protein) synthase&lt;br&gt;Location: 17304 - 18539&lt;br&gt;&lt;br&gt;&lt;b&gt;BlastP hit with ctg6_240&lt;/b&gt;&lt;br&gt;Percentage identity: 61&lt;br&gt;Percentage coverage: 100&lt;br&gt;BLAST bit score: 520&lt;br&gt;E-value: 4.68e-185" locus_tag="VF_0860" class="clusterblast-orf" id="knownclusterblast-1_all_1_1_19"  />
</g>
<g label="BGC0002008" description="BGC0002008_c1: aryl polyenes (44% of genes show similarity), Other" class="clusterblast-cluster"  >
<text x="5" y="120" class="clusterblast-acc"  >
<a xlink:href="https://mibig.secondarymetabolites.org/go/BGC0002008/1" target="_blank">BGC0002008</a>: aryl polyenes                                                                    (44% of genes show similarity), Other</text>
<line x1="10" y1="135" x2="778.0" y2="135" style="stroke-width:1; stroke:grey; "  />
</g>
<g id="a1_000"  >
<polygon points="240,140 243,140 248,135 243,130 240,130 240,140 " style="fill:white; stroke-width:1; stroke:black; " description="&lt;b&gt;XDD1_RS15980&lt;/b&gt;&lt;br&gt;hypothetical protein&lt;br&gt;Location: 1 - 390" locus_tag="XDD1_RS15980" class="clusterblast-orf" id="knownclusterblast-1_all_1_2_0"  />
</g>
<g id="a1_001"  >
<polygon points="250,140 266,140 271,135 266,130 250,130 250,140 " style="fill:white; stroke-width:1; stroke:black; " description="&lt;b&gt;XDD1_RS15985&lt;/b&gt;&lt;br&gt;SAM-dependent methyltransferase&lt;br&gt;Location: 503 - 1576" locus_tag="XDD1_RS15985" class="clusterblast-orf" id="knownclusterblast-1_all_1_2_1"  />
</g>
<g id="a1_002"  >
<polygon points="271,140 280,140 285,135 280,130 271,130 271,140 " style="fill:white; stroke-width:1; stroke:black; " description="&lt;b&gt;XDD1_RS15990&lt;/b&gt;&lt;br&gt;beta-ketoacyl synthase chain length factor&lt;br&gt;Location: 1590 - 2309" locus_tag="XDD1_RS15990" class="clusterblast-orf" id="knownclusterblast-1_all_1_2_2"  />
</g>
<g id="a1_003"  >
<polygon points="285,140 296,140 301,135 296,130 285,130 285,140 " style="fill:white; stroke-width:1; stroke:black; " description="&lt;b&gt;XDD1_RS15995&lt;/b&gt;&lt;br&gt;1-acyl-sn-glycerol-3-phosphate acyltransferase&lt;br&gt;Location: 2311 - 3102" locus_tag="XDD1_RS15995" class="clusterblast-orf" id="knownclusterblast-1_all_1_2_3"  />
</g>
<g id="a1_004"  >
<polygon points="301,140 301,140 306,135 301,130 301,130 301,140 " style="fill:#d81515; stroke-width:1; stroke:black; " description="&lt;b&gt;XDD1_RS16000&lt;/b&gt;&lt;br&gt;phosphopantetheine-binding protein&lt;br&gt;Location: 3121 - 3378&lt;br&gt;&lt;br&gt;&lt;b&gt;BlastP hit with ctg6_224&lt;/b&gt;&lt;br&gt;Percentage identity: 51&lt;br&gt;Percentage coverage: 89&lt;br&gt;BLAST bit score: 86&lt;br&gt;E-value: 2.58e-23" locus_tag="XDD1_RS16000" class="clusterblast-orf" id="knownclusterblast-1_all_1_2_4"  />
</g>
<g id="a1_005"  >
<polygon points="307,140 311,135 307,130 307,140 " style="fill:#3cd815; stroke-width:1; stroke:black; " description="&lt;b&gt;XDD1_RS16005&lt;/b&gt;&lt;br&gt;acyl carrier protein&lt;br&gt;Location: 3390 - 3641&lt;br&gt;&lt;br&gt;&lt;b&gt;BlastP hit with ctg6_225&lt;/b&gt;&lt;br&gt;Percentage identity: 51&lt;br&gt;Percentage coverage: 94&lt;br&gt;BLAST bit score: 85&lt;br&gt;E-value: 4.06e-23" locus_tag="XDD1_RS16005" class="clusterblast-orf" id="knownclusterblast-1_all_1_2_5"  />
</g>
<g id="a1_006"  >
<polygon points="312,140 318,140 323,135 318,130 312,130 312,140 " style="fill:#1563d8; stroke-width:1; stroke:black; " description="&lt;b&gt;XDD1_RS16010&lt;/b&gt;&lt;br&gt;hypothetical protein&lt;br&gt;Location: 3691 - 4254&lt;br&gt;&lt;br&gt;&lt;b&gt;BlastP hit with ctg6_226&lt;/b&gt;&lt;br&gt;Percentage identity: 47&lt;br&gt;Percentage coverage: 78&lt;br&gt;BLAST bit score: 131&lt;br&gt;E-value: 1.22e-38" locus_tag="XDD1_RS16010" class="clusterblast-orf" id="knownclusterblast-1_all_1_2_6"  />
</g>
<g id="a1_007"  >
<polygon points="323,140 346,140 351,135 346,130 323,130 323,140 " style="fill:white; stroke-width:1; stroke:black; " description="&lt;b&gt;XDD1_RS16015&lt;/b&gt;&lt;br&gt;AMP-binding protein&lt;br&gt;Location: 4251 - 5636" locus_tag="XDD1_RS16015" class="clusterblast-orf" id="knownclusterblast-1_all_1_2_7"  />
</g>
<g id="a1_008"  >
<polygon points="350,140 352,140 357,135 352,130 350,130 350,140 " style="fill:white; stroke-width:1; stroke:black; " description="&lt;b&gt;XDD1_RS16020&lt;/b&gt;&lt;br&gt;hydroxymyristoyl-ACP dehydratase&lt;br&gt;Location: 5623 - 5982" locus_tag="XDD1_RS16020" class="clusterblast-orf" id="knownclusterblast-1_all_1_2_8"  />
</g>
<g id="a1_009"  >
<polygon points="357,140 386,140 391,135 386,130 357,130 357,140 " style="fill:#b115d8; stroke-width:1; stroke:black; " description="&lt;b&gt;XDD1_RS16025&lt;/b&gt;&lt;br&gt;glycosyltransferase family 2 protein&lt;br&gt;Location: 5973 - 7688&lt;br&gt;&lt;br&gt;&lt;b&gt;BlastP hit with ctg6_228&lt;/b&gt;&lt;br&gt;Percentage identity: 58&lt;br&gt;Percentage coverage: 98&lt;br&gt;BLAST bit score: 289&lt;br&gt;E-value: 1.08e-94" locus_tag="XDD1_RS16025" class="clusterblast-orf" id="knownclusterblast-1_all_1_2_9"  />
</g>
<g id="a1_0010"  >
<polygon points="391,140 394,140 399,135 394,130 391,130 391,140 " style="fill:#15d863; stroke-width:1; stroke:black; " description="&lt;b&gt;XDD1_RS16030&lt;/b&gt;&lt;br&gt;acyl-CoA thioesterase&lt;br&gt;Location: 7693 - 8115&lt;br&gt;&lt;br&gt;&lt;b&gt;BlastP hit with ctg6_231&lt;/b&gt;&lt;br&gt;Percentage identity: 51&lt;br&gt;Percentage coverage: 85&lt;br&gt;BLAST bit score: 134&lt;br&gt;E-value: 4.59e-41" locus_tag="XDD1_RS16030" class="clusterblast-orf" id="knownclusterblast-1_all_1_2_10"  />
</g>
<g id="a1_0011"  >
<polygon points="399,140 406,140 411,135 406,130 399,130 399,140 " style="fill:white; stroke-width:1; stroke:black; " description="&lt;b&gt;XDD1_RS16035&lt;/b&gt;&lt;br&gt;outer membrane lipoprotein carrier protein LolA&lt;br&gt;Location: 8133 - 8735" locus_tag="XDD1_RS16035" class="clusterblast-orf" id="knownclusterblast-1_all_1_2_11"  />
</g>
<g id="a1_0012"  >
<polygon points="411,140 451,140 456,135 451,130 411,130 411,140 " style="fill:white; stroke-width:1; stroke:black; " description="&lt;b&gt;XDD1_RS16040&lt;/b&gt;&lt;br&gt;MMPL family transporter&lt;br&gt;Location: 8707 - 11031" locus_tag="XDD1_RS16040" class="clusterblast-orf" id="knownclusterblast-1_all_1_2_12"  />
</g>
<g id="a1_0013"  >
<polygon points="456,140 462,140 467,135 462,130 456,130 456,140 " style="fill:white; stroke-width:1; stroke:black; " description="&lt;b&gt;XDD1_RS16045&lt;/b&gt;&lt;br&gt;DUF3261 domain-containing protein&lt;br&gt;Location: 11028 - 11591" locus_tag="XDD1_RS16045" class="clusterblast-orf" id="knownclusterblast-1_all_1_2_13"  />
</g>
<g id="a1_0014"  >
<polygon points="467,140 485,140 490,135 485,130 467,130 467,140 " style="fill:#d8158a; stroke-width:1; stroke:black; " description="&lt;b&gt;XDD1_RS16050&lt;/b&gt;&lt;br&gt;beta-ketoacyl-[acyl-carrier-protein] synthase family protein&lt;br&gt;Location: 11595 - 12770&lt;br&gt;&lt;br&gt;&lt;b&gt;BlastP hit with ctg6_237&lt;/b&gt;&lt;br&gt;Percentage identity: 47&lt;br&gt;Percentage coverage: 100&lt;br&gt;BLAST bit score: 356&lt;br&gt;E-value: 4.51e-121" locus_tag="XDD1_RS16050" class="clusterblast-orf" id="knownclusterblast-1_all_1_2_14"  />
</g>
<g id="a1_0015"  >
<polygon points="490,140 495,140 500,135 495,130 490,130 490,140 " style="fill:white; stroke-width:1; stroke:black; " description="&lt;b&gt;XDD1_RS16055&lt;/b&gt;&lt;br&gt;hotdog family protein&lt;br&gt;Location: 12770 - 13267" locus_tag="XDD1_RS16055" class="clusterblast-orf" id="knownclusterblast-1_all_1_2_15"  />
</g>
<g id="a1_0016"  >
<polygon points="500,140 509,140 514,135 509,130 500,130 500,140 " style="fill:#b1d815; stroke-width:1; stroke:black; " description="&lt;b&gt;XDD1_RS16060&lt;/b&gt;&lt;br&gt;3-ketoacyl-ACP reductase FabG2&lt;br&gt;Location: 13264 - 13995&lt;br&gt;&lt;br&gt;&lt;b&gt;BlastP hit with ctg6_239&lt;/b&gt;&lt;br&gt;Percentage identity: 61&lt;br&gt;Percentage coverage: 100&lt;br&gt;BLAST bit score: 297&lt;br&gt;E-value: 3.29e-102" locus_tag="XDD1_RS16060" class="clusterblast-orf" id="knownclusterblast-1_all_1_2_16"  />
</g>
<g id="a1_0017"  >
<polygon points="514,140 534,140 539,135 534,130 514,130 514,140 " style="fill:#15d8d8; stroke-width:1; stroke:black; " description="&lt;b&gt;XDD1_RS16065&lt;/b&gt;&lt;br&gt;beta-ketoacyl-ACP synthase&lt;br&gt;Location: 13992 - 15251&lt;br&gt;&lt;br&gt;&lt;b&gt;BlastP hit with ctg6_240&lt;/b&gt;&lt;br&gt;Percentage identity: 56&lt;br&gt;Percentage coverage: 100&lt;br&gt;BLAST bit score: 486&lt;br&gt;E-value: 2.9e-171" locus_tag="XDD1_RS16065" class="clusterblast-orf" id="knownclusterblast-1_all_1_2_17"  />
</g>
<g label="BGC0000836" description="BGC0000836_c1: APE Ec (36% of genes show similarity), Other" class="clusterblast-cluster"  >
<text x="5" y="170" class="clusterblast-acc"  >
<a xlink:href="https://mibig.secondarymetabolites.org/go/BGC0000836/1" target="_blank">BGC0000836</a>: APE Ec                                                                           (36% of genes show similarity), Other</text>
<line x1="10" y1="185" x2="778.0" y2="185" style="stroke-width:1; stroke:grey; "  />
</g>
<g id="a1_000"  >
<polygon points="242,190 245,190 250,185 245,180 242,180 242,190 " style="fill:white; stroke-width:1; stroke:black; " description="&lt;b&gt;c1204&lt;/b&gt;&lt;br&gt;Conserved hypothetical protein&lt;br&gt;Location: 15022 - 14633" locus_tag="c1204" class="clusterblast-orf" id="knownclusterblast-1_all_1_3_0"  />
</g>
<g id="a1_001"  >
<polygon points="251,190 267,190 272,185 267,180 251,180 251,190 " style="fill:white; stroke-width:1; stroke:black; " description="&lt;b&gt;c1203&lt;/b&gt;&lt;br&gt;Putative O-methyltransferase&lt;br&gt;Location: 14568 - 13510" locus_tag="c1203" class="clusterblast-orf" id="knownclusterblast-1_all_1_3_1"  />
</g>
<g id="a1_002"  >
<polygon points="272,190 282,190 287,185 282,180 272,180 272,190 " style="fill:white; stroke-width:1; stroke:black; " description="&lt;b&gt;c1202&lt;/b&gt;&lt;br&gt;Conserved hypothetical protein&lt;br&gt;Location: 13493 - 12747" locus_tag="c1202" class="clusterblast-orf" id="knownclusterblast-1_all_1_3_2"  />
</g>
<g id="a1_003"  >
<polygon points="287,190 298,190 303,185 298,180 287,180 287,190 " style="fill:white; stroke-width:1; stroke:black; " description="&lt;b&gt;c1201&lt;/b&gt;&lt;br&gt;Putative phospholipid biosynthesis acyltransferase&lt;br&gt;Location: 12768 - 11929" locus_tag="c1201" class="clusterblast-orf" id="knownclusterblast-1_all_1_3_3"  />
</g>
<g id="a1_004"  >
<polygon points="303,190 303,190 308,185 303,180 303,180 303,190 " style="fill:#d81515; stroke-width:1; stroke:black; " description="&lt;b&gt;c1200&lt;/b&gt;&lt;br&gt;Putative acyl carrier protein&lt;br&gt;Location: 11954 - 11697&lt;br&gt;&lt;br&gt;&lt;b&gt;BlastP hit with ctg6_224&lt;/b&gt;&lt;br&gt;Percentage identity: 53&lt;br&gt;Percentage coverage: 89&lt;br&gt;BLAST bit score: 89&lt;br&gt;E-value: 1.57e-24" locus_tag="c1200" class="clusterblast-orf" id="knownclusterblast-1_all_1_3_4"  />
</g>
<g id="a1_005"  >
<polygon points="308,190 308,190 313,185 308,180 308,180 308,190 " style="fill:#3cd815; stroke-width:1; stroke:black; " description="&lt;b&gt;c1199&lt;/b&gt;&lt;br&gt;Putative acyl carrier protein&lt;br&gt;Location: 11685 - 11434&lt;br&gt;&lt;br&gt;&lt;b&gt;BlastP hit with ctg6_225&lt;/b&gt;&lt;br&gt;Percentage identity: 56&lt;br&gt;Percentage coverage: 94&lt;br&gt;BLAST bit score: 89&lt;br&gt;E-value: 6.05e-25" locus_tag="c1199" class="clusterblast-orf" id="knownclusterblast-1_all_1_3_5"  />
</g>
<g id="a1_006"  >
<polygon points="313,190 319,190 324,185 319,180 313,180 313,190 " style="fill:white; stroke-width:1; stroke:black; " description="&lt;b&gt;c1198&lt;/b&gt;&lt;br&gt;Conserved hypothetical protein&lt;br&gt;Location: 11432 - 10848" locus_tag="c1198" class="clusterblast-orf" id="knownclusterblast-1_all_1_3_6"  />
</g>
<g id="a1_007"  >
<polygon points="324,190 346,190 351,185 346,180 324,180 324,190 " style="fill:white; stroke-width:1; stroke:black; " description="&lt;b&gt;c1197&lt;/b&gt;&lt;br&gt;Putative enzyme&lt;br&gt;Location: 10851 - 9493" locus_tag="c1197" class="clusterblast-orf" id="knownclusterblast-1_all_1_3_7"  />
</g>
<g id="a1_008"  >
<polygon points="350,190 352,190 357,185 352,180 350,180 350,190 " style="fill:white; stroke-width:1; stroke:black; " description="&lt;b&gt;c1196&lt;/b&gt;&lt;br&gt;Conserved hypothetical protein&lt;br&gt;Location: 9530 - 9153" locus_tag="c1196" class="clusterblast-orf" id="knownclusterblast-1_all_1_3_8"  />
</g>
<g id="a1_009"  >
<polygon points="356,190 359,185 356,180 356,190 " style="fill:white; stroke-width:1; stroke:black; " description="&lt;b&gt;c1195&lt;/b&gt;&lt;br&gt;Hypothetical protein&lt;br&gt;Location: 9202 - 9080" locus_tag="c1195" class="clusterblast-orf" id="knownclusterblast-1_all_1_3_9"  />
</g>
<g id="a1_0010"  >
<polygon points="358,190 385,190 390,185 385,180 358,180 358,190 " style="fill:#b115d8; stroke-width:1; stroke:black; " description="&lt;b&gt;c1194&lt;/b&gt;&lt;br&gt;Putative enzyme&lt;br&gt;Location: 9108 - 7486&lt;br&gt;&lt;br&gt;&lt;b&gt;BlastP hit with ctg6_228&lt;/b&gt;&lt;br&gt;Percentage identity: 55&lt;br&gt;Percentage coverage: 91&lt;br&gt;BLAST bit score: 254&lt;br&gt;E-value: 1.39e-81" locus_tag="c1194" class="clusterblast-orf" id="knownclusterblast-1_all_1_3_10"  />
</g>
<g id="a1_0011"  >
<polygon points="390,190 393,190 398,185 393,180 390,180 390,190 " style="fill:#15d863; stroke-width:1; stroke:black; " description="&lt;b&gt;c1193&lt;/b&gt;&lt;br&gt;Hypothetical protein&lt;br&gt;Location: 7482 - 7060&lt;br&gt;&lt;br&gt;&lt;b&gt;BlastP hit with ctg6_231&lt;/b&gt;&lt;br&gt;Percentage identity: 48&lt;br&gt;Percentage coverage: 85&lt;br&gt;BLAST bit score: 128&lt;br&gt;E-value: 8.65e-39" locus_tag="c1193" class="clusterblast-orf" id="knownclusterblast-1_all_1_3_11"  />
</g>
<g id="a1_0012"  >
<polygon points="398,190 405,190 410,185 405,180 398,180 398,190 " style="fill:white; stroke-width:1; stroke:black; " description="&lt;b&gt;c1192&lt;/b&gt;&lt;br&gt;Conserved hypothetical protein&lt;br&gt;Location: 7063 - 6458" locus_tag="c1192" class="clusterblast-orf" id="knownclusterblast-1_all_1_3_12"  />
</g>
<g id="a1_0013"  >
<polygon points="410,190 450,190 455,185 450,180 410,180 410,190 " style="fill:white; stroke-width:1; stroke:black; " description="&lt;b&gt;c1191&lt;/b&gt;&lt;br&gt;Conserved hypothetical protein&lt;br&gt;Location: 6489 - 4171" locus_tag="c1191" class="clusterblast-orf" id="knownclusterblast-1_all_1_3_13"  />
</g>
<g id="a1_0014"  >
<polygon points="455,190 461,190 466,185 461,180 455,180 455,190 " style="fill:white; stroke-width:1; stroke:black; " description="&lt;b&gt;c1190&lt;/b&gt;&lt;br&gt;Conserved hypothetical protein&lt;br&gt;Location: 4174 - 3590" locus_tag="c1190" class="clusterblast-orf" id="knownclusterblast-1_all_1_3_14"  />
</g>
<g id="a1_0015"  >
<polygon points="466,190 484,190 489,185 484,180 466,180 466,190 " style="fill:#d8158a; stroke-width:1; stroke:black; " description="&lt;b&gt;c1189&lt;/b&gt;&lt;br&gt;Putative 3-oxoacyl-[ACP] synthase&lt;br&gt;Location: 3597 - 2419&lt;br&gt;&lt;br&gt;&lt;b&gt;BlastP hit with ctg6_237&lt;/b&gt;&lt;br&gt;Percentage identity: 48&lt;br&gt;Percentage coverage: 101&lt;br&gt;BLAST bit score: 339&lt;br&gt;E-value: 2.95e-114" locus_tag="c1189" class="clusterblast-orf" id="knownclusterblast-1_all_1_3_15"  />
</g>
<g id="a1_0016"  >
<polygon points="489,190 493,190 498,185 493,180 489,180 489,190 " style="fill:white; stroke-width:1; stroke:black; " description="&lt;b&gt;c1188&lt;/b&gt;&lt;br&gt;Conserved hypothetical protein&lt;br&gt;Location: 2422 - 1958" locus_tag="c1188" class="clusterblast-orf" id="knownclusterblast-1_all_1_3_16"  />
</g>
<g id="a1_0017"  >
<polygon points="498,190 508,190 513,185 508,180 498,180 498,190 " style="fill:#b1d815; stroke-width:1; stroke:black; " description="&lt;b&gt;c1187&lt;/b&gt;&lt;br&gt;3-oxoacyl-[acyl-carrier protein] reductase&lt;br&gt;Location: 1958 - 1227&lt;br&gt;&lt;br&gt;&lt;b&gt;BlastP hit with ctg6_239&lt;/b&gt;&lt;br&gt;Percentage identity: 60&lt;br&gt;Percentage coverage: 100&lt;br&gt;BLAST bit score: 288&lt;br&gt;E-value: 7.26e-99" locus_tag="c1187" class="clusterblast-orf" id="knownclusterblast-1_all_1_3_17"  />
</g>
<g id="a1_0018"  >
<polygon points="512,190 532,190 537,185 532,180 512,180 512,190 " style="fill:#15d8d8; stroke-width:1; stroke:black; " description="&lt;b&gt;c1186&lt;/b&gt;&lt;br&gt;Putative beta-ketoacyl-ACP synthase&lt;br&gt;Location: 1230 - 1&lt;br&gt;&lt;br&gt;&lt;b&gt;BlastP hit with ctg6_240&lt;/b&gt;&lt;br&gt;Percentage identity: 54&lt;br&gt;Percentage coverage: 100&lt;br&gt;BLAST bit score: 477&lt;br&gt;E-value: 6.35e-168" locus_tag="c1186" class="clusterblast-orf" id="knownclusterblast-1_all_1_3_18"  />
</g>
</svg>
