<svg xmlns="http://www.w3.org/2000/svg" xmlns:xlink="http://www.w3.org/1999/xlink" version="1.1" x="0" y="0" height="230" width="800" viewBox="0 0 800 230" preserveAspectRatio="none"  >
<g label="Query sequence" class="clusterblast-cluster"  >
<text x="5" y="20" class="clusterblast-acc"  >
Query sequence</text>
<line x1="10" y1="35" x2="778.0" y2="35" style="stroke-width:1; stroke:grey; "  />
<polygon points="0,40 0,40 5,35 0,30 0,30 0,40 " style="fill:white; stroke-width:1; stroke:black; " description="&lt;b&gt;ctg2_261&lt;/b&gt;&lt;br&gt;ctg2 261&lt;br&gt;Location: 293675 - 294026" locus_tag="ctg2_261" class="clusterblast-orf" id="dummy-2_q0_0_all"  />
<polygon points="5,40 5,40 10,35 5,30 5,30 5,40 " style="fill:white; stroke-width:1; stroke:black; " description="&lt;b&gt;ctg2_262&lt;/b&gt;&lt;br&gt;ctg2 262&lt;br&gt;Location: 294049 - 294376" locus_tag="ctg2_262" class="clusterblast-orf" id="dummy-2_q1_0_all"  />
<polygon points="11,40 14,40 19,35 14,30 11,30 11,40 " style="fill:white; stroke-width:1; stroke:black; " description="&lt;b&gt;ctg2_263&lt;/b&gt;&lt;br&gt;ctg2 263&lt;br&gt;Location: 294407 - 294953" locus_tag="ctg2_263" class="clusterblast-orf" id="dummy-2_q2_0_all"  />
<polygon points="20,40 29,40 34,35 29,30 20,30 20,40 " style="fill:white; stroke-width:1; stroke:black; " description="&lt;b&gt;ctg2_264&lt;/b&gt;&lt;br&gt;ctg2 264&lt;br&gt;Location: 295043 - 295964" locus_tag="ctg2_264" class="clusterblast-orf" id="dummy-2_q3_0_all"  />
<polygon points="33,35 38,30 43,30 43,40 38,40 33,35 " style="fill:white; stroke-width:1; stroke:black; " description="&lt;b&gt;ctg2_265&lt;/b&gt;&lt;br&gt;ctg2 265&lt;br&gt;Location: 295922 - 296582" locus_tag="ctg2_265" class="clusterblast-orf" id="dummy-2_q4_0_all"  />
<polygon points="43,35 48,30 57,30 57,40 48,40 43,35 " style="fill:white; stroke-width:1; stroke:black; " description="&lt;b&gt;ctg2_266&lt;/b&gt;&lt;br&gt;ctg2 266&lt;br&gt;Location: 296578 - 297472" locus_tag="ctg2_266" class="clusterblast-orf" id="dummy-2_q5_0_all"  />
<polygon points="62,35 67,30 69,30 69,40 67,40 62,35 " style="fill:white; stroke-width:1; stroke:black; " description="&lt;b&gt;ctg2_267&lt;/b&gt;&lt;br&gt;ctg2 267&lt;br&gt;Location: 297855 - 298305" locus_tag="ctg2_267" class="clusterblast-orf" id="dummy-2_q6_0_all"  />
<polygon points="77,40 86,40 91,35 86,30 77,30 77,40 " style="fill:white; stroke-width:1; stroke:black; " description="&lt;b&gt;ctg2_268&lt;/b&gt;&lt;br&gt;ctg2 268&lt;br&gt;Location: 298838 - 299774" locus_tag="ctg2_268" class="clusterblast-orf" id="dummy-2_q7_0_all"  />
<polygon points="92,40 99,40 104,35 99,30 92,30 92,40 " style="fill:white; stroke-width:1; stroke:black; " description="&lt;b&gt;ctg2_269&lt;/b&gt;&lt;br&gt;ctg2 269&lt;br&gt;Location: 299812 - 300619" locus_tag="ctg2_269" class="clusterblast-orf" id="dummy-2_q8_0_all"  />
<polygon points="105,35 109,30 109,40 105,35 " style="fill:white; stroke-width:1; stroke:black; " description="&lt;b&gt;ctg2_270&lt;/b&gt;&lt;br&gt;ctg2 270&lt;br&gt;Location: 300683 - 300968" locus_tag="ctg2_270" class="clusterblast-orf" id="dummy-2_q9_0_all"  />
<polygon points="110,35 115,30 118,30 118,40 115,40 110,35 " style="fill:white; stroke-width:1; stroke:black; " description="&lt;b&gt;ctg2_271&lt;/b&gt;&lt;br&gt;ctg2 271&lt;br&gt;Location: 301033 - 301576" locus_tag="ctg2_271" class="clusterblast-orf" id="dummy-2_q10_0_all"  />
<polygon points="119,35 124,30 148,30 148,40 124,40 119,35 " style="fill:#d81515; stroke-width:1; stroke:black; " description="&lt;b&gt;ctg2_272&lt;/b&gt;&lt;br&gt;ctg2 272&lt;br&gt;Location: 301667 - 303590" locus_tag="ctg2_272" class="clusterblast-orf" id="dummy-2_q11_0_all"  />
<polygon points="150,35 155,30 161,30 161,40 155,40 150,35 " style="fill:white; stroke-width:1; stroke:black; " description="&lt;b&gt;ctg2_273&lt;/b&gt;&lt;br&gt;ctg2 273&lt;br&gt;Location: 303701 - 304469" locus_tag="ctg2_273" class="clusterblast-orf" id="dummy-2_q12_0_all"  />
<polygon points="161,35 166,30 179,30 179,40 166,40 161,35 " style="fill:white; stroke-width:1; stroke:black; " description="&lt;b&gt;ctg2_274&lt;/b&gt;&lt;br&gt;ctg2 274&lt;br&gt;Location: 304465 - 305623" locus_tag="ctg2_274" class="clusterblast-orf" id="dummy-2_q13_0_all"  />
<polygon points="179,35 184,30 203,30 203,40 184,40 179,35 " style="fill:#43d815; stroke-width:1; stroke:black; " description="&lt;b&gt;ctg2_275&lt;/b&gt;&lt;br&gt;ctg2 275&lt;br&gt;Location: 305639 - 307256" locus_tag="ctg2_275" class="clusterblast-orf" id="dummy-2_q14_0_all"  />
<polygon points="203,35 208,30 216,30 216,40 208,40 203,35 " style="fill:white; stroke-width:1; stroke:black; " description="&lt;b&gt;ctg2_276&lt;/b&gt;&lt;br&gt;ctg2 276&lt;br&gt;Location: 307259 - 308132" locus_tag="ctg2_276" class="clusterblast-orf" id="dummy-2_q15_0_all"  />
<polygon points="216,35 221,30 243,30 243,40 221,40 216,35 " style="fill:white; stroke-width:1; stroke:black; " description="&lt;b&gt;ctg2_277&lt;/b&gt;&lt;br&gt;ctg2 277&lt;br&gt;Location: 308144 - 309923" locus_tag="ctg2_277" class="clusterblast-orf" id="dummy-2_q16_0_all"  />
<polygon points="245,40 250,40 255,35 250,30 245,30 245,40 " style="fill:white; stroke-width:1; stroke:black; " description="&lt;b&gt;ctg2_278&lt;/b&gt;&lt;br&gt;ctg2 278&lt;br&gt;Location: 310076 - 310700" locus_tag="ctg2_278" class="clusterblast-orf" id="dummy-2_q17_0_all"  />
<polygon points="256,40 263,40 268,35 263,30 256,30 256,40 " style="fill:white; stroke-width:1; stroke:black; " description="&lt;b&gt;ctg2_279&lt;/b&gt;&lt;br&gt;ctg2 279&lt;br&gt;Location: 310793 - 311582" locus_tag="ctg2_279" class="clusterblast-orf" id="dummy-2_q18_0_all"  />
<polygon points="269,35 274,30 277,30 277,40 274,40 269,35 " style="fill:#15b6d8; stroke-width:1; stroke:black; " description="&lt;b&gt;ctg2_280&lt;/b&gt;&lt;br&gt;ctg2 280&lt;br&gt;Location: 311620 - 312172" locus_tag="ctg2_280" class="clusterblast-orf" id="dummy-2_q19_0_all"  />
<polygon points="281,40 288,40 293,35 288,30 281,30 281,40 " style="fill:#8815d8; stroke-width:1; stroke:black; " description="&lt;b&gt;ctg2_281&lt;/b&gt;&lt;br&gt;ctg2 281&lt;br&gt;Location: 312472 - 313225" locus_tag="ctg2_281" class="clusterblast-orf" id="dummy-2_q20_0_all"  />
<polygon points="293,40 482,40 487,35 482,30 293,30 293,40 " style="fill:#d85a15; stroke-width:1; stroke:black; " description="&lt;b&gt;ctg2_282&lt;/b&gt;&lt;br&gt;ctg2 282&lt;br&gt;Location: 313275 - 326172" locus_tag="ctg2_282" class="clusterblast-orf" id="dummy-2_q21_0_all"  />
<polygon points="502,40 506,40 511,35 506,30 502,30 502,40 " style="fill:#15d82c; stroke-width:1; stroke:black; " description="&lt;b&gt;ctg2_283&lt;/b&gt;&lt;br&gt;ctg2 283&lt;br&gt;Location: 327191 - 327827" locus_tag="ctg2_283" class="clusterblast-orf" id="dummy-2_q22_0_all"  />
<polygon points="512,40 523,40 528,35 523,30 512,30 512,40 " style="fill:#1571d8; stroke-width:1; stroke:black; " description="&lt;b&gt;ctg2_284&lt;/b&gt;&lt;br&gt;ctg2 284&lt;br&gt;Location: 327867 - 328932" locus_tag="ctg2_284" class="clusterblast-orf" id="dummy-2_q23_0_all"  />
<polygon points="531,35 536,30 542,30 542,40 536,40 531,35 " style="fill:#cd15d8; stroke-width:1; stroke:black; " description="&lt;b&gt;ctg2_285&lt;/b&gt;&lt;br&gt;ctg2 285&lt;br&gt;Location: 329132 - 329894" locus_tag="ctg2_285" class="clusterblast-orf" id="dummy-2_q24_0_all"  />
<polygon points="542,35 547,30 555,30 555,40 547,40 542,35 " style="fill:#d89f15; stroke-width:1; stroke:black; " description="&lt;b&gt;ctg2_286&lt;/b&gt;&lt;br&gt;ctg2 286&lt;br&gt;Location: 329869 - 330721" locus_tag="ctg2_286" class="clusterblast-orf" id="dummy-2_q25_0_all"  />
<polygon points="555,35 560,30 581,30 581,40 560,40 555,35 " style="fill:#15d871; stroke-width:1; stroke:black; " description="&lt;b&gt;ctg2_287&lt;/b&gt;&lt;br&gt;ctg2 287&lt;br&gt;Location: 330720 - 332466" locus_tag="ctg2_287" class="clusterblast-orf" id="dummy-2_q26_0_all"  />
<polygon points="584,40 589,40 594,35 589,30 584,30 584,40 " style="fill:#152cd8; stroke-width:1; stroke:black; " description="&lt;b&gt;ctg2_288&lt;/b&gt;&lt;br&gt;ctg2 288&lt;br&gt;Location: 332642 - 333338" locus_tag="ctg2_288" class="clusterblast-orf" id="dummy-2_q27_0_all"  />
<polygon points="594,40 609,40 614,35 609,30 594,30 594,40 " style="fill:#d8159f; stroke-width:1; stroke:black; " description="&lt;b&gt;ctg2_289&lt;/b&gt;&lt;br&gt;ctg2 289&lt;br&gt;Location: 333334 - 334657" locus_tag="ctg2_289" class="clusterblast-orf" id="dummy-2_q28_0_all"  />
<polygon points="616,40 622,40 627,35 622,30 616,30 616,40 " style="fill:white; stroke-width:1; stroke:black; " description="&lt;b&gt;ctg2_290&lt;/b&gt;&lt;br&gt;ctg2 290&lt;br&gt;Location: 334781 - 335549" locus_tag="ctg2_290" class="clusterblast-orf" id="dummy-2_q29_0_all"  />
<polygon points="630,40 646,40 651,35 646,30 630,30 630,40 " style="fill:#cdd815; stroke-width:1; stroke:black; " description="&lt;b&gt;ctg2_291&lt;/b&gt;&lt;br&gt;ctg2 291&lt;br&gt;Location: 335745 - 337158" locus_tag="ctg2_291" class="clusterblast-orf" id="dummy-2_q30_0_all"  />
<polygon points="653,40 656,35 653,30 653,40 " style="fill:#15d8b6; stroke-width:1; stroke:black; " description="&lt;b&gt;ctg2_292&lt;/b&gt;&lt;br&gt;ctg2 292&lt;br&gt;Location: 337241 - 337466" locus_tag="ctg2_292" class="clusterblast-orf" id="dummy-2_q31_0_all"  />
<polygon points="658,35 663,30 678,30 678,40 663,40 658,35 " style="fill:white; stroke-width:1; stroke:black; " description="&lt;b&gt;ctg2_293&lt;/b&gt;&lt;br&gt;ctg2 293&lt;br&gt;Location: 337582 - 338929" locus_tag="ctg2_293" class="clusterblast-orf" id="dummy-2_q32_0_all"  />
<polygon points="678,35 683,30 711,30 711,40 683,40 678,35 " style="fill:white; stroke-width:1; stroke:black; " description="&lt;b&gt;ctg2_294&lt;/b&gt;&lt;br&gt;ctg2 294&lt;br&gt;Location: 338946 - 341112" locus_tag="ctg2_294" class="clusterblast-orf" id="dummy-2_q33_0_all"  />
<polygon points="712,35 714,30 714,40 712,35 " style="fill:white; stroke-width:1; stroke:black; " description="&lt;b&gt;ctg2_295&lt;/b&gt;&lt;br&gt;ctg2 295&lt;br&gt;Location: 341184 - 341361" locus_tag="ctg2_295" class="clusterblast-orf" id="dummy-2_q34_0_all"  />
<polygon points="718,35 723,30 737,30 737,40 723,40 718,35 " style="fill:white; stroke-width:1; stroke:black; " description="&lt;b&gt;ctg2_296&lt;/b&gt;&lt;br&gt;ctg2 296&lt;br&gt;Location: 341581 - 342871" locus_tag="ctg2_296" class="clusterblast-orf" id="dummy-2_q35_0_all"  />
<polygon points="739,35 744,30 748,30 748,40 744,40 739,35 " style="fill:white; stroke-width:1; stroke:black; " description="&lt;b&gt;ctg2_297&lt;/b&gt;&lt;br&gt;ctg2 297&lt;br&gt;Location: 342981 - 343617" locus_tag="ctg2_297" class="clusterblast-orf" id="dummy-2_q36_0_all"  />
<polygon points="750,35 753,30 753,40 750,35 " style="fill:#4315d8; stroke-width:1; stroke:black; " description="&lt;b&gt;ctg2_298&lt;/b&gt;&lt;br&gt;ctg2 298&lt;br&gt;Location: 343713 - 343968" locus_tag="ctg2_298" class="clusterblast-orf" id="dummy-2_q37_0_all"  />
<polygon points="753,35 758,30 766,30 766,40 758,40 753,35 " style="fill:#d8155a; stroke-width:1; stroke:black; " description="&lt;b&gt;ctg2_299&lt;/b&gt;&lt;br&gt;ctg2 299&lt;br&gt;Location: 343971 - 344784" locus_tag="ctg2_299" class="clusterblast-orf" id="dummy-2_q38_0_all"  />
<polygon points="769,35 774,30 780,30 780,40 774,40 769,35 " style="fill:#88d815; stroke-width:1; stroke:black; " description="&lt;b&gt;ctg2_300&lt;/b&gt;&lt;br&gt;ctg2 300&lt;br&gt;Location: 344984 - 345722" locus_tag="ctg2_300" class="clusterblast-orf" id="dummy-2_q39_0_all"  />
</g>
<g label="BGC0000993" description="BGC0000993_c1: FR901228 (14% of genes show similarity), NRP:Cyclic depsipeptide+Polyketide:Modular type I polyketide" class="clusterblast-cluster"  >
<text x="5" y="70" class="clusterblast-acc"  >
<a xlink:href="https://mibig.secondarymetabolites.org/go/BGC0000993/1" target="_blank">BGC0000993</a>: FR901228                                                                         (14% of genes show similarity), NRP:Cyclic depsipeptide+Polyketide:Modular type I polyketide</text>
<line x1="10" y1="85" x2="778.0" y2="85" style="stroke-width:1; stroke:grey; "  />
</g>
<g id="a2_000"  >
<polygon points="87,90 88,90 93,85 88,80 87,80 87,90 " style="fill:white; stroke-width:1; stroke:black; " description="&lt;b&gt;ABP57738.1&lt;/b&gt;&lt;br&gt;16S rRNA pseudouridine synthase&lt;br&gt;Location: 1 - 454" locus_tag="ABP57738.1" class="clusterblast-orf" id="dummy-2_h2_5_0"  />
</g>
<g id="a2_001"  >
<polygon points="93,90 96,90 101,85 96,80 93,80 93,90 " style="fill:white; stroke-width:1; stroke:black; " description="&lt;b&gt;ABP57739.1&lt;/b&gt;&lt;br&gt;MutT/nudix family phosphohydrolase&lt;br&gt;Location: 466 - 957" locus_tag="ABP57739.1" class="clusterblast-orf" id="dummy-2_h2_5_1"  />
</g>
<g id="a2_002"  >
<polygon points="101,90 105,90 110,85 105,80 101,80 101,90 " style="fill:white; stroke-width:1; stroke:black; " description="&lt;b&gt;ABP57740.1&lt;/b&gt;&lt;br&gt;transcription elongation factor GreB&lt;br&gt;Location: 972 - 1544" locus_tag="ABP57740.1" class="clusterblast-orf" id="dummy-2_h2_5_2"  />
</g>
<g id="a2_003"  >
<polygon points="111,85 115,80 115,90 111,85 " style="fill:white; stroke-width:1; stroke:black; " description="&lt;b&gt;ABP57741.1&lt;/b&gt;&lt;br&gt;DepK&lt;br&gt;Location: 1616 - 1873" locus_tag="ABP57741.1" class="clusterblast-orf" id="dummy-2_h2_5_3"  />
</g>
<g id="a2_004"  >
<polygon points="116,85 121,80 123,80 123,90 121,90 116,85 " style="fill:white; stroke-width:1; stroke:black; " description="&lt;b&gt;ABP57742.1&lt;/b&gt;&lt;br&gt;DepL&lt;br&gt;Location: 1971 - 2438" locus_tag="ABP57742.1" class="clusterblast-orf" id="dummy-2_h2_5_4"  />
</g>
<g id="a2_005"  >
<polygon points="124,90 137,90 142,85 137,80 124,80 124,90 " style="fill:white; stroke-width:1; stroke:black; " description="&lt;b&gt;ABP57743.1&lt;/b&gt;&lt;br&gt;DepM&lt;br&gt;Location: 2513 - 3682" locus_tag="ABP57743.1" class="clusterblast-orf" id="dummy-2_h2_5_5"  />
</g>
<g id="a2_006"  >
<polygon points="153,90 156,85 153,80 153,90 " style="fill:white; stroke-width:1; stroke:black; " description="&lt;b&gt;ABP57744.1&lt;/b&gt;&lt;br&gt;DepN&lt;br&gt;Location: 4469 - 4666" locus_tag="ABP57744.1" class="clusterblast-orf" id="dummy-2_h2_5_6"  />
</g>
<g id="a2_007"  >
<polygon points="162,90 233,90 238,85 233,80 162,80 162,90 " style="fill:white; stroke-width:1; stroke:black; " description="&lt;b&gt;ABP57745.1&lt;/b&gt;&lt;br&gt;DepA&lt;br&gt;Location: 5034 - 10127" locus_tag="ABP57745.1" class="clusterblast-orf" id="dummy-2_h2_5_7"  />
</g>
<g id="a2_008"  >
<polygon points="238,90 303,90 308,85 303,80 238,80 238,90 " style="fill:white; stroke-width:1; stroke:black; " description="&lt;b&gt;ABP57746.1&lt;/b&gt;&lt;br&gt;DepB&lt;br&gt;Location: 10127 - 14788" locus_tag="ABP57746.1" class="clusterblast-orf" id="dummy-2_h2_5_8"  />
</g>
<g id="a2_009"  >
<polygon points="308,90 356,90 361,85 356,80 308,80 308,90 " style="fill:white; stroke-width:1; stroke:black; " description="&lt;b&gt;ABP57747.1&lt;/b&gt;&lt;br&gt;DepC&lt;br&gt;Location: 14785 - 18336" locus_tag="ABP57747.1" class="clusterblast-orf" id="dummy-2_h2_5_9"  />
</g>
<g id="a2_0010"  >
<polygon points="361,90 494,90 499,85 494,80 361,80 361,90 " style="fill:white; stroke-width:1; stroke:black; " description="&lt;b&gt;ABP57748.1&lt;/b&gt;&lt;br&gt;DepD&lt;br&gt;Location: 18333 - 27506" locus_tag="ABP57748.1" class="clusterblast-orf" id="dummy-2_h2_5_10"  />
</g>
<g id="a2_0011"  >
<polygon points="499,90 579,90 584,85 579,80 499,80 499,90 " style="fill:white; stroke-width:1; stroke:black; " description="&lt;b&gt;ABP57749.1&lt;/b&gt;&lt;br&gt;DepE&lt;br&gt;Location: 27503 - 33181" locus_tag="ABP57749.1" class="clusterblast-orf" id="dummy-2_h2_5_11"  />
</g>
<g id="a2_0012"  >
<polygon points="584,90 596,90 601,85 596,80 584,80 584,90 " style="fill:white; stroke-width:1; stroke:black; " description="&lt;b&gt;ABP57750.1&lt;/b&gt;&lt;br&gt;DepF&lt;br&gt;Location: 33178 - 34350" locus_tag="ABP57750.1" class="clusterblast-orf" id="dummy-2_h2_5_12"  />
</g>
<g id="a2_0013"  >
<polygon points="601,90 611,90 616,85 611,80 601,80 601,90 " style="fill:white; stroke-width:1; stroke:black; " description="&lt;b&gt;ABP57751.1&lt;/b&gt;&lt;br&gt;DepG&lt;br&gt;Location: 34347 - 35312" locus_tag="ABP57751.1" class="clusterblast-orf" id="dummy-2_h2_5_13"  />
</g>
<g id="a2_0014"  >
<polygon points="616,90 625,90 630,85 625,80 616,80 616,90 " style="fill:white; stroke-width:1; stroke:black; " description="&lt;b&gt;ABP57752.1&lt;/b&gt;&lt;br&gt;DepH&lt;br&gt;Location: 35309 - 36268" locus_tag="ABP57752.1" class="clusterblast-orf" id="dummy-2_h2_5_14"  />
</g>
<g id="a2_0015"  >
<polygon points="631,90 640,90 645,85 640,80 631,80 631,90 " style="fill:white; stroke-width:1; stroke:black; " description="&lt;b&gt;ABP57753.1&lt;/b&gt;&lt;br&gt;DepI&lt;br&gt;Location: 36324 - 37238" locus_tag="ABP57753.1" class="clusterblast-orf" id="dummy-2_h2_5_15"  />
</g>
<g id="a2_0016"  >
<polygon points="645,90 651,90 656,85 651,80 645,80 645,90 " style="fill:white; stroke-width:1; stroke:black; " description="&lt;b&gt;ABP57754.1&lt;/b&gt;&lt;br&gt;DepJ&lt;br&gt;Location: 37235 - 37999" locus_tag="ABP57754.1" class="clusterblast-orf" id="dummy-2_h2_5_16"  />
</g>
<g id="a2_0017"  >
<polygon points="657,85 662,80 671,80 671,90 662,90 657,85 " style="fill:white; stroke-width:1; stroke:black; " description="&lt;b&gt;ABP57755.1&lt;/b&gt;&lt;br&gt;hydrogen peroxid-inducible genes activator OxyR&lt;br&gt;Location: 38068 - 39006" locus_tag="ABP57755.1" class="clusterblast-orf" id="dummy-2_h2_5_17"  />
</g>
<g id="a2_0018"  >
<polygon points="671,85 675,80 675,90 671,85 " style="fill:#4315d8; stroke-width:1; stroke:black; " description="&lt;b&gt;ABP57756.1&lt;/b&gt;&lt;br&gt;cell division topological specificity factor MinE&lt;br&gt;Location: 39010 - 39267&lt;br&gt;&lt;br&gt;&lt;b&gt;BlastP hit with ctg2_298&lt;/b&gt;&lt;br&gt;Percentage identity: 57&lt;br&gt;Percentage coverage: 88&lt;br&gt;BLAST bit score: 91&lt;br&gt;E-value: 2.23e-25" locus_tag="ABP57756.1" class="clusterblast-orf" id="dummy-2_h2_5_18"  />
</g>
<g id="a2_0019"  >
<polygon points="675,85 680,80 687,80 687,90 680,90 675,85 " style="fill:#d8155a; stroke-width:1; stroke:black; " description="&lt;b&gt;ABP57757.1&lt;/b&gt;&lt;br&gt;septum site-determining protein MinD&lt;br&gt;Location: 39271 - 40083&lt;br&gt;&lt;br&gt;&lt;b&gt;BlastP hit with ctg2_299&lt;/b&gt;&lt;br&gt;Percentage identity: 71&lt;br&gt;Percentage coverage: 100&lt;br&gt;BLAST bit score: 379&lt;br&gt;E-value: 1.42e-133" locus_tag="ABP57757.1" class="clusterblast-orf" id="dummy-2_h2_5_19"  />
</g>
<g id="a2_0020"  >
<polygon points="688,85 692,80 692,90 688,85 " style="fill:#88d815; stroke-width:1; stroke:black; " description="&lt;b&gt;ABP57758.1&lt;/b&gt;&lt;br&gt;septum formation inhibitor MinC&lt;br&gt;Location: 40110 - 40434&lt;br&gt;&lt;br&gt;&lt;b&gt;BlastP hit with ctg2_300&lt;/b&gt;&lt;br&gt;Percentage identity: 53&lt;br&gt;Percentage coverage: 43&lt;br&gt;BLAST bit score: 111&lt;br&gt;E-value: 3.91e-31" locus_tag="ABP57758.1" class="clusterblast-orf" id="dummy-2_h2_5_20"  />
</g>
</svg>
