<svg xmlns="http://www.w3.org/2000/svg" xmlns:xlink="http://www.w3.org/1999/xlink" version="1.1" x="0" y="0" height="50" width="800" viewBox="0 0 800 50" preserveAspectRatio="none"  >
<g label="Query sequence" class="clusterblast-cluster"  >
<text x="5" y="20" class="clusterblast-acc"  >
Query sequence</text>
<line x1="10" y1="35" x2="778.0" y2="35" style="stroke-width:1; stroke:grey; "  />
<polygon points="0,40 9,40 14,35 9,30 0,30 0,40 " style="fill:white; stroke-width:1; stroke:black; " description="&lt;b&gt;ctg1_49&lt;/b&gt;&lt;br&gt;ctg1 49&lt;br&gt;Location: 54842 - 55322" locus_tag="ctg1_49" class="clusterblast-orf" id="subclusterblast-1_q0_0_all"  />
<polygon points="14,40 31,40 36,35 31,30 14,30 14,40 " style="fill:white; stroke-width:1; stroke:black; " description="&lt;b&gt;ctg1_50&lt;/b&gt;&lt;br&gt;ctg1 50&lt;br&gt;Location: 55318 - 56089" locus_tag="ctg1_50" class="clusterblast-orf" id="subclusterblast-1_q1_0_all"  />
<polygon points="38,35 43,30 101,30 101,40 43,40 38,35 " style="fill:white; stroke-width:1; stroke:black; " description="&lt;b&gt;ctg1_51&lt;/b&gt;&lt;br&gt;ctg1 51&lt;br&gt;Location: 56168 - 58316" locus_tag="ctg1_51" class="clusterblast-orf" id="subclusterblast-1_q2_0_all"  />
<polygon points="103,40 111,40 116,35 111,30 103,30 103,40 " style="fill:white; stroke-width:1; stroke:black; " description="&lt;b&gt;ctg1_52&lt;/b&gt;&lt;br&gt;ctg1 52&lt;br&gt;Location: 58413 - 58866" locus_tag="ctg1_52" class="clusterblast-orf" id="subclusterblast-1_q3_0_all"  />
<polygon points="116,40 124,40 129,35 124,30 116,30 116,40 " style="fill:white; stroke-width:1; stroke:black; " description="&lt;b&gt;ctg1_53&lt;/b&gt;&lt;br&gt;ctg1 53&lt;br&gt;Location: 58858 - 59308" locus_tag="ctg1_53" class="clusterblast-orf" id="subclusterblast-1_q4_0_all"  />
<polygon points="131,35 136,30 147,30 147,40 136,40 131,35 " style="fill:white; stroke-width:1; stroke:black; " description="&lt;b&gt;ctg1_54&lt;/b&gt;&lt;br&gt;ctg1 54&lt;br&gt;Location: 59351 - 59930" locus_tag="ctg1_54" class="clusterblast-orf" id="subclusterblast-1_q5_0_all"  />
<polygon points="149,35 154,30 187,30 187,40 154,40 149,35 " style="fill:white; stroke-width:1; stroke:black; " description="&lt;b&gt;ctg1_55&lt;/b&gt;&lt;br&gt;ctg1 55&lt;br&gt;Location: 59999 - 61313" locus_tag="ctg1_55" class="clusterblast-orf" id="subclusterblast-1_q6_0_all"  />
<polygon points="189,35 193,30 193,40 189,35 " style="fill:white; stroke-width:1; stroke:black; " description="&lt;b&gt;ctg1_56&lt;/b&gt;&lt;br&gt;ctg1 56&lt;br&gt;Location: 61363 - 61519" locus_tag="ctg1_56" class="clusterblast-orf" id="subclusterblast-1_q7_0_all"  />
<polygon points="196,35 201,30 220,30 220,40 201,40 196,35 " style="fill:white; stroke-width:1; stroke:black; " description="&lt;b&gt;ctg1_57&lt;/b&gt;&lt;br&gt;ctg1 57&lt;br&gt;Location: 61620 - 62427" locus_tag="ctg1_57" class="clusterblast-orf" id="subclusterblast-1_q8_0_all"  />
<polygon points="221,35 226,30 239,30 239,40 226,40 221,35 " style="fill:white; stroke-width:1; stroke:black; " description="&lt;b&gt;ctg1_58&lt;/b&gt;&lt;br&gt;ctg1 58&lt;br&gt;Location: 62455 - 63088" locus_tag="ctg1_58" class="clusterblast-orf" id="subclusterblast-1_q9_0_all"  />
<polygon points="242,40 256,40 261,35 256,30 242,30 242,40 " style="fill:white; stroke-width:1; stroke:black; " description="&lt;b&gt;ctg1_59&lt;/b&gt;&lt;br&gt;ctg1 59&lt;br&gt;Location: 63199 - 63856" locus_tag="ctg1_59" class="clusterblast-orf" id="subclusterblast-1_q10_0_all"  />
<polygon points="262,35 267,30 280,30 280,40 267,40 262,35 " style="fill:white; stroke-width:1; stroke:black; " description="&lt;b&gt;ctg1_60&lt;/b&gt;&lt;br&gt;ctg1 60&lt;br&gt;Location: 63869 - 64490" locus_tag="ctg1_60" class="clusterblast-orf" id="subclusterblast-1_q11_0_all"  />
<polygon points="283,40 342,40 347,35 342,30 283,30 283,40 " style="fill:white; stroke-width:1; stroke:black; " description="&lt;b&gt;ctg1_61&lt;/b&gt;&lt;br&gt;ctg1 61&lt;br&gt;Location: 64623 - 66822" locus_tag="ctg1_61" class="clusterblast-orf" id="subclusterblast-1_q12_0_all"  />
<polygon points="359,40 362,40 367,35 362,30 359,30 359,40 " style="fill:white; stroke-width:1; stroke:black; " description="&lt;b&gt;ctg1_62&lt;/b&gt;&lt;br&gt;ctg1 62&lt;br&gt;Location: 67231 - 67492" locus_tag="ctg1_62" class="clusterblast-orf" id="subclusterblast-1_q13_0_all"  />
<polygon points="375,35 380,30 409,30 409,40 380,40 375,35 " style="fill:white; stroke-width:1; stroke:black; " description="&lt;b&gt;ctg1_63&lt;/b&gt;&lt;br&gt;ctg1 63&lt;br&gt;Location: 67785 - 68952" locus_tag="ctg1_63" class="clusterblast-orf" id="subclusterblast-1_q14_0_all"  />
<polygon points="409,35 414,30 449,30 449,40 414,40 409,35 " style="fill:white; stroke-width:1; stroke:black; " description="&lt;b&gt;ctg1_64&lt;/b&gt;&lt;br&gt;ctg1 64&lt;br&gt;Location: 68948 - 70325" locus_tag="ctg1_64" class="clusterblast-orf" id="subclusterblast-1_q15_0_all"  />
<polygon points="453,35 458,30 478,30 478,40 458,40 453,35 " style="fill:white; stroke-width:1; stroke:black; " description="&lt;b&gt;ctg1_65&lt;/b&gt;&lt;br&gt;ctg1 65&lt;br&gt;Location: 70469 - 71321" locus_tag="ctg1_65" class="clusterblast-orf" id="subclusterblast-1_q16_0_all"  />
<polygon points="486,35 491,30 514,30 514,40 491,40 486,35 " style="fill:white; stroke-width:1; stroke:black; " description="&lt;b&gt;ctg1_66&lt;/b&gt;&lt;br&gt;ctg1 66&lt;br&gt;Location: 71606 - 72584" locus_tag="ctg1_66" class="clusterblast-orf" id="subclusterblast-1_q17_0_all"  />
<polygon points="520,35 525,30 532,30 532,40 525,40 520,35 " style="fill:white; stroke-width:1; stroke:black; " description="&lt;b&gt;ctg1_67&lt;/b&gt;&lt;br&gt;ctg1 67&lt;br&gt;Location: 72799 - 73192" locus_tag="ctg1_67" class="clusterblast-orf" id="subclusterblast-1_q18_0_all"  />
<polygon points="533,35 538,30 551,30 551,40 538,40 533,35 " style="fill:white; stroke-width:1; stroke:black; " description="&lt;b&gt;ctg1_68&lt;/b&gt;&lt;br&gt;ctg1 68&lt;br&gt;Location: 73222 - 73843" locus_tag="ctg1_68" class="clusterblast-orf" id="subclusterblast-1_q19_0_all"  />
<polygon points="557,35 562,30 587,30 587,40 562,40 557,35 " style="fill:white; stroke-width:1; stroke:black; " description="&lt;b&gt;ctg1_69&lt;/b&gt;&lt;br&gt;ctg1 69&lt;br&gt;Location: 74065 - 75085" locus_tag="ctg1_69" class="clusterblast-orf" id="subclusterblast-1_q20_0_all"  />
<polygon points="591,35 596,30 613,30 613,40 596,40 591,35 " style="fill:white; stroke-width:1; stroke:black; " description="&lt;b&gt;ctg1_70&lt;/b&gt;&lt;br&gt;ctg1 70&lt;br&gt;Location: 75224 - 75986" locus_tag="ctg1_70" class="clusterblast-orf" id="subclusterblast-1_q21_0_all"  />
<polygon points="618,35 623,30 638,30 638,40 623,40 618,35 " style="fill:white; stroke-width:1; stroke:black; " description="&lt;b&gt;ctg1_71&lt;/b&gt;&lt;br&gt;ctg1 71&lt;br&gt;Location: 76176 - 76836" locus_tag="ctg1_71" class="clusterblast-orf" id="subclusterblast-1_q22_0_all"  />
<polygon points="637,35 642,30 655,30 655,40 642,40 637,35 " style="fill:white; stroke-width:1; stroke:black; " description="&lt;b&gt;ctg1_72&lt;/b&gt;&lt;br&gt;ctg1 72&lt;br&gt;Location: 76832 - 77432" locus_tag="ctg1_72" class="clusterblast-orf" id="subclusterblast-1_q23_0_all"  />
<polygon points="655,35 660,30 677,30 677,40 660,40 655,35 " style="fill:white; stroke-width:1; stroke:black; " description="&lt;b&gt;ctg1_73&lt;/b&gt;&lt;br&gt;ctg1 73&lt;br&gt;Location: 77428 - 78187" locus_tag="ctg1_73" class="clusterblast-orf" id="subclusterblast-1_q24_0_all"  />
<polygon points="677,35 682,30 706,30 706,40 682,40 677,35 " style="fill:white; stroke-width:1; stroke:black; " description="&lt;b&gt;ctg1_74&lt;/b&gt;&lt;br&gt;ctg1 74&lt;br&gt;Location: 78183 - 79182" locus_tag="ctg1_74" class="clusterblast-orf" id="subclusterblast-1_q25_0_all"  />
<polygon points="706,35 711,30 768,30 768,40 711,40 706,35 " style="fill:white; stroke-width:1; stroke:black; " description="&lt;b&gt;ctg1_75&lt;/b&gt;&lt;br&gt;ctg1 75&lt;br&gt;Location: 79183 - 81340" locus_tag="ctg1_75" class="clusterblast-orf" id="subclusterblast-1_q26_0_all"  />
<polygon points="772,35 777,30 780,30 780,40 777,40 772,35 " style="fill:white; stroke-width:1; stroke:black; " description="&lt;b&gt;ctg1_76&lt;/b&gt;&lt;br&gt;ctg1 76&lt;br&gt;Location: 81471 - 81741" locus_tag="ctg1_76" class="clusterblast-orf" id="subclusterblast-1_q27_0_all"  />
</g>
</svg>
