<svg xmlns="http://www.w3.org/2000/svg" xmlns:xlink="http://www.w3.org/1999/xlink" version="1.1" x="0" y="0" height="230" width="800" viewBox="0 0 800 230" preserveAspectRatio="none"  >
<g label="Query sequence" class="clusterblast-cluster"  >
<text x="5" y="20" class="clusterblast-acc"  >
Query sequence</text>
<line x1="10" y1="35" x2="778.0" y2="35" style="stroke-width:1; stroke:grey; "  />
<polygon points="0,40 11,40 16,35 11,30 0,30 0,40 " style="fill:#d81515; stroke-width:1; stroke:black; " description="&lt;b&gt;ctg5_282&lt;/b&gt;&lt;br&gt;ctg5 282&lt;br&gt;Location: 279794 - 280334" locus_tag="ctg5_282" class="clusterblast-orf" id="dummy-2_q0_0_all"  />
<polygon points="17,35 22,30 53,30 53,40 22,40 17,35 " style="fill:#56d815; stroke-width:1; stroke:black; " description="&lt;b&gt;ctg5_283&lt;/b&gt;&lt;br&gt;ctg5 283&lt;br&gt;Location: 280351 - 281503" locus_tag="ctg5_283" class="clusterblast-orf" id="dummy-2_q1_0_all"  />
<polygon points="67,35 72,30 78,30 78,40 72,40 67,35 " style="fill:#1597d8; stroke-width:1; stroke:black; " description="&lt;b&gt;ctg5_284&lt;/b&gt;&lt;br&gt;ctg5 284&lt;br&gt;Location: 281968 - 282319" locus_tag="ctg5_284" class="clusterblast-orf" id="dummy-2_q2_0_all"  />
<polygon points="82,40 97,40 102,35 97,30 82,30 82,40 " style="fill:#9715d8; stroke-width:1; stroke:black; " description="&lt;b&gt;ctg5_285&lt;/b&gt;&lt;br&gt;ctg5 285&lt;br&gt;Location: 282449 - 283085" locus_tag="ctg5_285" class="clusterblast-orf" id="dummy-2_q3_0_all"  />
<polygon points="101,35 106,30 161,30 161,40 106,40 101,35 " style="fill:#d85615; stroke-width:1; stroke:black; " description="&lt;b&gt;ctg5_286&lt;/b&gt;&lt;br&gt;ctg5 286&lt;br&gt;Location: 283081 - 285007" locus_tag="ctg5_286" class="clusterblast-orf" id="dummy-2_q4_0_all"  />
<polygon points="161,35 166,30 186,30 186,40 166,40 161,35 " style="fill:#15d815; stroke-width:1; stroke:black; " description="&lt;b&gt;ctg5_287&lt;/b&gt;&lt;br&gt;ctg5 287&lt;br&gt;Location: 285003 - 285810" locus_tag="ctg5_287" class="clusterblast-orf" id="dummy-2_q5_0_all"  />
<polygon points="186,35 191,30 236,30 236,40 191,40 186,35 " style="fill:#1556d8; stroke-width:1; stroke:black; " description="&lt;b&gt;ctg5_288&lt;/b&gt;&lt;br&gt;ctg5 288&lt;br&gt;Location: 285824 - 287432" locus_tag="ctg5_288" class="clusterblast-orf" id="dummy-2_q6_0_all"  />
<polygon points="236,35 241,30 272,30 272,40 241,40 236,35 " style="fill:#d815d8; stroke-width:1; stroke:black; " description="&lt;b&gt;ctg5_289&lt;/b&gt;&lt;br&gt;ctg5 289&lt;br&gt;Location: 287444 - 288608" locus_tag="ctg5_289" class="clusterblast-orf" id="dummy-2_q7_0_all"  />
<polygon points="277,40 323,40 328,35 323,30 277,30 277,40 " style="fill:#d89715; stroke-width:1; stroke:black; " description="&lt;b&gt;ctg5_290&lt;/b&gt;&lt;br&gt;ctg5 290&lt;br&gt;Location: 288773 - 290402" locus_tag="ctg5_290" class="clusterblast-orf" id="dummy-2_q8_0_all"  />
<polygon points="330,40 421,40 426,35 421,30 330,30 330,40 " style="fill:#15d856; stroke-width:1; stroke:black; " description="&lt;b&gt;ctg5_291&lt;/b&gt;&lt;br&gt;ctg5 291&lt;br&gt;Location: 290469 - 293586" locus_tag="ctg5_291" class="clusterblast-orf" id="dummy-2_q9_0_all"  />
<polygon points="430,40 487,40 492,35 487,30 430,30 430,40 " style="fill:#15d856; stroke-width:1; stroke:black; " description="&lt;b&gt;ctg5_292&lt;/b&gt;&lt;br&gt;ctg5 292&lt;br&gt;Location: 293720 - 295736" locus_tag="ctg5_292" class="clusterblast-orf" id="dummy-2_q10_0_all"  />
<polygon points="509,35 514,30 537,30 537,40 514,40 509,35 " style="fill:#1515d8; stroke-width:1; stroke:black; " description="&lt;b&gt;ctg5_293&lt;/b&gt;&lt;br&gt;ctg5 293&lt;br&gt;Location: 296284 - 297184" locus_tag="ctg5_293" class="clusterblast-orf" id="dummy-2_q11_0_all"  />
<polygon points="538,35 543,30 550,30 550,40 543,40 538,35 " style="fill:#d81597; stroke-width:1; stroke:black; " description="&lt;b&gt;ctg5_294&lt;/b&gt;&lt;br&gt;ctg5 294&lt;br&gt;Location: 297200 - 297593" locus_tag="ctg5_294" class="clusterblast-orf" id="dummy-2_q12_0_all"  />
<polygon points="553,35 558,30 582,30 582,40 558,40 553,35 " style="fill:#d8d815; stroke-width:1; stroke:black; " description="&lt;b&gt;ctg5_295&lt;/b&gt;&lt;br&gt;ctg5 295&lt;br&gt;Location: 297692 - 298628" locus_tag="ctg5_295" class="clusterblast-orf" id="dummy-2_q13_0_all"  />
<polygon points="587,40 620,40 625,35 620,30 587,30 587,40 " style="fill:#15d897; stroke-width:1; stroke:black; " description="&lt;b&gt;ctg5_296&lt;/b&gt;&lt;br&gt;ctg5 296&lt;br&gt;Location: 298794 - 300024" locus_tag="ctg5_296" class="clusterblast-orf" id="dummy-2_q14_0_all"  />
<polygon points="629,35 634,30 670,30 670,40 634,40 629,35 " style="fill:#5615d8; stroke-width:1; stroke:black; " description="&lt;b&gt;ctg5_297&lt;/b&gt;&lt;br&gt;ctg5 297&lt;br&gt;Location: 300153 - 301482" locus_tag="ctg5_297" class="clusterblast-orf" id="dummy-2_q15_0_all"  />
<polygon points="674,35 679,30 699,30 699,40 679,40 674,35 " style="fill:#d81556; stroke-width:1; stroke:black; " description="&lt;b&gt;ctg5_298&lt;/b&gt;&lt;br&gt;ctg5 298&lt;br&gt;Location: 301609 - 302422" locus_tag="ctg5_298" class="clusterblast-orf" id="dummy-2_q16_0_all"  />
<polygon points="704,40 719,40 724,35 719,30 704,30 704,40 " style="fill:#97d815; stroke-width:1; stroke:black; " description="&lt;b&gt;ctg5_299&lt;/b&gt;&lt;br&gt;ctg5 299&lt;br&gt;Location: 302590 - 303241" locus_tag="ctg5_299" class="clusterblast-orf" id="dummy-2_q17_0_all"  />
<polygon points="727,40 775,40 780,35 775,30 727,30 727,40 " style="fill:#15d8d8; stroke-width:1; stroke:black; " description="&lt;b&gt;ctg5_300&lt;/b&gt;&lt;br&gt;ctg5 300&lt;br&gt;Location: 303335 - 305033" locus_tag="ctg5_300" class="clusterblast-orf" id="dummy-2_q18_0_all"  />
</g>
<g label="NZ_JACAQN010000012" description="NZ_JACAQN010000012 (286477-314804): Pseudomonas sp. IPO3749 IPO 3749 S32 L002... (94% of genes show similarity), betalactone" class="clusterblast-cluster"  >
<text x="5" y="70" class="clusterblast-acc"  >
<a xlink:href="https://antismash-db.secondarymetabolites.org/area.html?record=NZ_JACAQN010000012&amp;start=286477&amp;end=314804" target="_blank">NZ_JACAQN010000012 (286477-314804)</a>: Pseudomonas sp. IPO3749 IPO 3749 S32 L002... (94% of genes show similarity), betalactone</text>
<line x1="10" y1="85" x2="778.0" y2="85" style="stroke-width:1; stroke:grey; "  />
</g>
<g id="a2_000"  >
<polygon points="6,90 15,90 20,85 15,80 6,80 6,90 " style="fill:white; stroke-width:1; stroke:black; " description="&lt;b&gt;HX832_RS16005&lt;/b&gt;&lt;br&gt;helix-turn-helix transcriptional regulator&lt;br&gt;Location: 313660 - 313208" locus_tag="HX832_RS16005" class="clusterblast-orf" id="dummy-2_h2_3_0"  />
</g>
<g id="a2_001"  >
<polygon points="20,85 25,80 55,80 55,90 25,90 20,85 " style="fill:#56d815; stroke-width:1; stroke:black; " description="&lt;b&gt;HX832_RS16000&lt;/b&gt;&lt;br&gt;carboxypeptidase family protein&lt;br&gt;Location: 313211 - 312060&lt;br&gt;&lt;br&gt;&lt;b&gt;BlastP hit with ctg5_283&lt;/b&gt;&lt;br&gt;Percentage identity: 87&lt;br&gt;Percentage coverage: 100&lt;br&gt;BLAST bit score: 698&lt;br&gt;E-value: 2.21e-254" locus_tag="HX832_RS16000" class="clusterblast-orf" id="dummy-2_h2_3_1"  />
</g>
<g id="a2_002"  >
<polygon points="70,85 75,80 80,80 80,90 75,90 70,85 " style="fill:#1597d8; stroke-width:1; stroke:black; " description="&lt;b&gt;HX832_RS15995&lt;/b&gt;&lt;br&gt;DUF3077 domain-containing protein&lt;br&gt;Location: 311593 - 311243&lt;br&gt;&lt;br&gt;&lt;b&gt;BlastP hit with ctg5_284&lt;/b&gt;&lt;br&gt;Percentage identity: 69&lt;br&gt;Percentage coverage: 98&lt;br&gt;BLAST bit score: 145&lt;br&gt;E-value: 2.4e-44" locus_tag="HX832_RS15995" class="clusterblast-orf" id="dummy-2_h2_3_2"  />
</g>
<g id="a2_003"  >
<polygon points="84,90 99,90 104,85 99,80 84,80 84,90 " style="fill:#9715d8; stroke-width:1; stroke:black; " description="&lt;b&gt;HX832_RS15990&lt;/b&gt;&lt;br&gt;helix-turn-helix domain-containing protein&lt;br&gt;Location: 311110 - 310478&lt;br&gt;&lt;br&gt;&lt;b&gt;BlastP hit with ctg5_285&lt;/b&gt;&lt;br&gt;Percentage identity: 87&lt;br&gt;Percentage coverage: 100&lt;br&gt;BLAST bit score: 369&lt;br&gt;E-value: 5.4e-130" locus_tag="HX832_RS15990" class="clusterblast-orf" id="dummy-2_h2_3_3"  />
</g>
<g id="a2_004"  >
<polygon points="104,85 109,80 163,80 163,90 109,90 104,85 " style="fill:#d85615; stroke-width:1; stroke:black; " description="&lt;b&gt;HX832_RS15985&lt;/b&gt;&lt;br&gt;acetyl/propionyl/methylcrotonyl-CoA carboxylase subunit alpha&lt;br&gt;Location: 310481 - 308556&lt;br&gt;&lt;br&gt;&lt;b&gt;BlastP hit with ctg5_286&lt;/b&gt;&lt;br&gt;Percentage identity: 91&lt;br&gt;Percentage coverage: 95&lt;br&gt;BLAST bit score: 1096&lt;br&gt;E-value: 0.0" locus_tag="HX832_RS15985" class="clusterblast-orf" id="dummy-2_h2_3_4"  />
</g>
<g id="a2_005"  >
<polygon points="163,85 168,80 188,80 188,90 168,90 163,85 " style="fill:#15d815; stroke-width:1; stroke:black; " description="&lt;b&gt;HX832_RS15980&lt;/b&gt;&lt;br&gt;gamma-carboxygeranoyl-CoA hydratase&lt;br&gt;Location: 308559 - 307753&lt;br&gt;&lt;br&gt;&lt;b&gt;BlastP hit with ctg5_287&lt;/b&gt;&lt;br&gt;Percentage identity: 95&lt;br&gt;Percentage coverage: 100&lt;br&gt;BLAST bit score: 503&lt;br&gt;E-value: 2.79e-181" locus_tag="HX832_RS15980" class="clusterblast-orf" id="dummy-2_h2_3_5"  />
</g>
<g id="a2_006"  >
<polygon points="189,85 194,80 238,80 238,90 194,90 189,85 " style="fill:#1556d8; stroke-width:1; stroke:black; " description="&lt;b&gt;HX832_RS15975&lt;/b&gt;&lt;br&gt;methylcrotonoyl-CoA carboxylase&lt;br&gt;Location: 307737 - 306130&lt;br&gt;&lt;br&gt;&lt;b&gt;BlastP hit with ctg5_288&lt;/b&gt;&lt;br&gt;Percentage identity: 99&lt;br&gt;Percentage coverage: 100&lt;br&gt;BLAST bit score: 1054&lt;br&gt;E-value: 0.0" locus_tag="HX832_RS15975" class="clusterblast-orf" id="dummy-2_h2_3_6"  />
</g>
<g id="a2_007"  >
<polygon points="239,85 244,80 275,80 275,90 244,90 239,85 " style="fill:#d815d8; stroke-width:1; stroke:black; " description="&lt;b&gt;HX832_RS15970&lt;/b&gt;&lt;br&gt;isovaleryl-CoA dehydrogenase&lt;br&gt;Location: 306118 - 304955&lt;br&gt;&lt;br&gt;&lt;b&gt;BlastP hit with ctg5_289&lt;/b&gt;&lt;br&gt;Percentage identity: 95&lt;br&gt;Percentage coverage: 100&lt;br&gt;BLAST bit score: 748&lt;br&gt;E-value: 6.62e-274" locus_tag="HX832_RS15970" class="clusterblast-orf" id="dummy-2_h2_3_7"  />
</g>
<g id="a2_008"  >
<polygon points="279,90 325,90 330,85 325,80 279,80 279,90 " style="fill:#d89715; stroke-width:1; stroke:black; " description="&lt;b&gt;HX832_RS15965&lt;/b&gt;&lt;br&gt;AMP-binding protein&lt;br&gt;Location: 304804 - 303170&lt;br&gt;&lt;br&gt;&lt;b&gt;BlastP hit with ctg5_290&lt;/b&gt;&lt;br&gt;Percentage identity: 93&lt;br&gt;Percentage coverage: 100&lt;br&gt;BLAST bit score: 1055&lt;br&gt;E-value: 0.0" locus_tag="HX832_RS15965" class="clusterblast-orf" id="dummy-2_h2_3_8"  />
</g>
<g id="a2_009"  >
<polygon points="334,90 487,90 492,85 487,80 334,80 334,90 " style="fill:#15d856; stroke-width:1; stroke:black; " description="&lt;b&gt;HX832_RS15960&lt;/b&gt;&lt;br&gt;hypothetical protein&lt;br&gt;Location: 303022 - 297926&lt;br&gt;&lt;br&gt;&lt;b&gt;BlastP hit with ctg5_291&lt;/b&gt;&lt;br&gt;Percentage identity: 37&lt;br&gt;Percentage coverage: 94&lt;br&gt;BLAST bit score: 560&lt;br&gt;E-value: 5.8e-175&lt;br&gt;&lt;br&gt;&lt;b&gt;BlastP hit with ctg5_292&lt;/b&gt;&lt;br&gt;Percentage identity: 33&lt;br&gt;Percentage coverage: 61&lt;br&gt;BLAST bit score: 184&lt;br&gt;E-value: 1.81e-46" locus_tag="HX832_RS15960" class="clusterblast-orf" id="dummy-2_h2_3_9"  />
</g>
<g id="a2_0010"  >
<polygon points="509,85 514,80 537,80 537,90 514,90 509,85 " style="fill:#1515d8; stroke-width:1; stroke:black; " description="&lt;b&gt;HX832_RS15955&lt;/b&gt;&lt;br&gt;hydroxymethylglutaryl-CoA lyase&lt;br&gt;Location: 297377 - 296478&lt;br&gt;&lt;br&gt;&lt;b&gt;BlastP hit with ctg5_293&lt;/b&gt;&lt;br&gt;Percentage identity: 94&lt;br&gt;Percentage coverage: 100&lt;br&gt;BLAST bit score: 550&lt;br&gt;E-value: 1.1e-198" locus_tag="HX832_RS15955" class="clusterblast-orf" id="dummy-2_h2_3_10"  />
</g>
<g id="a2_0011"  >
<polygon points="537,85 542,80 549,80 549,90 542,90 537,85 " style="fill:#d81597; stroke-width:1; stroke:black; " description="&lt;b&gt;HX832_RS15950&lt;/b&gt;&lt;br&gt;MerR family DNA-binding transcriptional regulator&lt;br&gt;Location: 296461 - 296069&lt;br&gt;&lt;br&gt;&lt;b&gt;BlastP hit with ctg5_294&lt;/b&gt;&lt;br&gt;Percentage identity: 96&lt;br&gt;Percentage coverage: 99&lt;br&gt;BLAST bit score: 235&lt;br&gt;E-value: 1.02e-79" locus_tag="HX832_RS15950" class="clusterblast-orf" id="dummy-2_h2_3_11"  />
</g>
<g id="a2_0012"  >
<polygon points="551,85 556,80 580,80 580,90 556,90 551,85 " style="fill:#d8d815; stroke-width:1; stroke:black; " description="&lt;b&gt;HX832_RS15945&lt;/b&gt;&lt;br&gt;LysR family transcriptional regulator&lt;br&gt;Location: 296014 - 295079&lt;br&gt;&lt;br&gt;&lt;b&gt;BlastP hit with ctg5_295&lt;/b&gt;&lt;br&gt;Percentage identity: 99&lt;br&gt;Percentage coverage: 100&lt;br&gt;BLAST bit score: 611&lt;br&gt;E-value: 1.62e-222" locus_tag="HX832_RS15945" class="clusterblast-orf" id="dummy-2_h2_3_12"  />
</g>
<g id="a2_0013"  >
<polygon points="585,90 618,90 623,85 618,80 585,80 585,90 " style="fill:#15d897; stroke-width:1; stroke:black; " description="&lt;b&gt;HX832_RS15940&lt;/b&gt;&lt;br&gt;acyl-CoA dehydrogenase&lt;br&gt;Location: 294927 - 293698&lt;br&gt;&lt;br&gt;&lt;b&gt;BlastP hit with ctg5_296&lt;/b&gt;&lt;br&gt;Percentage identity: 99&lt;br&gt;Percentage coverage: 100&lt;br&gt;BLAST bit score: 817&lt;br&gt;E-value: 1.35e-300" locus_tag="HX832_RS15940" class="clusterblast-orf" id="dummy-2_h2_3_13"  />
</g>
<g id="a2_0014"  >
<polygon points="623,85 628,80 665,80 665,90 628,90 623,85 " style="fill:#5615d8; stroke-width:1; stroke:black; " description="&lt;b&gt;HX832_RS15935&lt;/b&gt;&lt;br&gt;substrate-binding domain-containing protein&lt;br&gt;Location: 293670 - 292339&lt;br&gt;&lt;br&gt;&lt;b&gt;BlastP hit with ctg5_297&lt;/b&gt;&lt;br&gt;Percentage identity: 91&lt;br&gt;Percentage coverage: 100&lt;br&gt;BLAST bit score: 769&lt;br&gt;E-value: 1.44e-280" locus_tag="HX832_RS15935" class="clusterblast-orf" id="dummy-2_h2_3_14"  />
</g>
<g id="a2_0015"  >
<polygon points="668,85 673,80 693,80 693,90 673,90 668,85 " style="fill:#d81556; stroke-width:1; stroke:black; " description="&lt;b&gt;HX832_RS15930&lt;/b&gt;&lt;br&gt;exodeoxyribonuclease III&lt;br&gt;Location: 292243 - 291431&lt;br&gt;&lt;br&gt;&lt;b&gt;BlastP hit with ctg5_298&lt;/b&gt;&lt;br&gt;Percentage identity: 95&lt;br&gt;Percentage coverage: 100&lt;br&gt;BLAST bit score: 542&lt;br&gt;E-value: 1.31e-196" locus_tag="HX832_RS15930" class="clusterblast-orf" id="dummy-2_h2_3_15"  />
</g>
<g id="a2_0016"  >
<polygon points="698,90 713,90 718,85 713,80 698,80 698,90 " style="fill:#97d815; stroke-width:1; stroke:black; " description="&lt;b&gt;HX832_RS15925&lt;/b&gt;&lt;br&gt;GNAT family N-acetyltransferase&lt;br&gt;Location: 291261 - 290611&lt;br&gt;&lt;br&gt;&lt;b&gt;BlastP hit with ctg5_299&lt;/b&gt;&lt;br&gt;Percentage identity: 95&lt;br&gt;Percentage coverage: 100&lt;br&gt;BLAST bit score: 436&lt;br&gt;E-value: 3.46e-156" locus_tag="HX832_RS15925" class="clusterblast-orf" id="dummy-2_h2_3_16"  />
</g>
<g id="a2_0017"  >
<polygon points="720,90 768,90 773,85 768,80 720,80 720,90 " style="fill:#15d8d8; stroke-width:1; stroke:black; " description="&lt;b&gt;HX832_RS15920&lt;/b&gt;&lt;br&gt;outer membrane protein assembly factor&lt;br&gt;Location: 290546 - 288819&lt;br&gt;&lt;br&gt;&lt;b&gt;BlastP hit with ctg5_300&lt;/b&gt;&lt;br&gt;Percentage identity: 94&lt;br&gt;Percentage coverage: 100&lt;br&gt;BLAST bit score: 1098&lt;br&gt;E-value: 0.0" locus_tag="HX832_RS15920" class="clusterblast-orf" id="dummy-2_h2_3_17"  />
</g>
</svg>
