<svg xmlns="http://www.w3.org/2000/svg" xmlns:xlink="http://www.w3.org/1999/xlink" version="1.1" x="0" y="0" height="230" width="800" viewBox="0 0 800 230" preserveAspectRatio="none"  >
<g label="Query sequence" class="clusterblast-cluster"  >
<text x="5" y="20" class="clusterblast-acc"  >
Query sequence</text>
<line x1="10" y1="35" x2="778.0" y2="35" style="stroke-width:1; stroke:grey; "  />
<polygon points="233,40 236,40 241,35 236,30 233,30 233,40 " style="fill:#d81515; stroke-width:1; stroke:black; " description="&lt;b&gt;ctg3_51&lt;/b&gt;&lt;br&gt;ctg3 51&lt;br&gt;Location: 58918 - 59365" locus_tag="ctg3_51" class="clusterblast-orf" id="dummy-1_q0_0_all"  />
<polygon points="244,40 270,40 275,35 270,30 244,30 244,40 " style="fill:#77d815; stroke-width:1; stroke:black; " description="&lt;b&gt;ctg3_52&lt;/b&gt;&lt;br&gt;ctg3 52&lt;br&gt;Location: 59511 - 61215" locus_tag="ctg3_52" class="clusterblast-orf" id="dummy-1_q1_0_all"  />
<polygon points="275,40 285,40 290,35 285,30 275,30 275,40 " style="fill:#15d8d8; stroke-width:1; stroke:black; " description="&lt;b&gt;ctg3_53&lt;/b&gt;&lt;br&gt;ctg3 53&lt;br&gt;Location: 61225 - 62020" locus_tag="ctg3_53" class="clusterblast-orf" id="dummy-1_q2_0_all"  />
<polygon points="291,40 330,40 335,35 330,30 291,30 291,40 " style="fill:#7715d8; stroke-width:1; stroke:black; " description="&lt;b&gt;ctg3_54&lt;/b&gt;&lt;br&gt;ctg3 54&lt;br&gt;Location: 62079 - 64455" locus_tag="ctg3_54" class="clusterblast-orf" id="dummy-1_q3_0_all"  />
<polygon points="338,40 340,35 338,30 338,40 " style="fill:#d87715; stroke-width:1; stroke:black; " description="&lt;b&gt;ctg3_55&lt;/b&gt;&lt;br&gt;ctg3 55&lt;br&gt;Location: 64565 - 64688" locus_tag="ctg3_55" class="clusterblast-orf" id="dummy-1_q4_0_all"  />
<polygon points="341,40 353,40 358,35 353,30 341,30 341,40 " style="fill:#15d815; stroke-width:1; stroke:black; " description="&lt;b&gt;ctg3_56&lt;/b&gt;&lt;br&gt;ctg3 56&lt;br&gt;Location: 64759 - 65671" locus_tag="ctg3_56" class="clusterblast-orf" id="dummy-1_q5_0_all"  />
<polygon points="358,40 367,40 372,35 367,30 358,30 358,40 " style="fill:#1577d8; stroke-width:1; stroke:black; " description="&lt;b&gt;ctg3_57&lt;/b&gt;&lt;br&gt;ctg3 57&lt;br&gt;Location: 65682 - 66435" locus_tag="ctg3_57" class="clusterblast-orf" id="dummy-1_q6_0_all"  />
<polygon points="372,40 372,40 377,35 372,30 372,30 372,40 " style="fill:#d815d8; stroke-width:1; stroke:black; " description="&lt;b&gt;ctg3_58&lt;/b&gt;&lt;br&gt;ctg3 58&lt;br&gt;Location: 66431 - 66707" locus_tag="ctg3_58" class="clusterblast-orf" id="dummy-1_q7_0_all"  />
<polygon points="377,40 393,40 398,35 393,30 377,30 377,40 " style="fill:#d8d815; stroke-width:1; stroke:black; " description="&lt;b&gt;ctg3_59&lt;/b&gt;&lt;br&gt;ctg3 59&lt;br&gt;Location: 66678 - 67830" locus_tag="ctg3_59" class="clusterblast-orf" id="dummy-1_q8_0_all"  />
<polygon points="398,35 401,30 401,40 398,35 " style="fill:#15d877; stroke-width:1; stroke:black; " description="&lt;b&gt;ctg3_60&lt;/b&gt;&lt;br&gt;ctg3 60&lt;br&gt;Location: 67835 - 67994" locus_tag="ctg3_60" class="clusterblast-orf" id="dummy-1_q9_0_all"  />
<polygon points="405,35 410,30 428,30 428,40 410,40 405,35 " style="fill:white; stroke-width:1; stroke:black; " description="&lt;b&gt;ctg3_61&lt;/b&gt;&lt;br&gt;ctg3 61&lt;br&gt;Location: 68176 - 69436" locus_tag="ctg3_61" class="clusterblast-orf" id="dummy-1_q10_0_all"  />
<polygon points="432,40 444,40 449,35 444,30 432,30 432,40 " style="fill:white; stroke-width:1; stroke:black; " description="&lt;b&gt;ctg3_62&lt;/b&gt;&lt;br&gt;ctg3 62&lt;br&gt;Location: 69645 - 70545" locus_tag="ctg3_62" class="clusterblast-orf" id="dummy-1_q11_0_all"  />
<polygon points="453,35 458,30 486,30 486,40 458,40 453,35 " style="fill:#1515d8; stroke-width:1; stroke:black; " description="&lt;b&gt;ctg3_63&lt;/b&gt;&lt;br&gt;ctg3 63&lt;br&gt;Location: 70771 - 72550" locus_tag="ctg3_63" class="clusterblast-orf" id="dummy-1_q12_0_all"  />
<polygon points="488,35 493,30 521,30 521,40 493,40 488,35 " style="fill:#1515d8; stroke-width:1; stroke:black; " description="&lt;b&gt;ctg3_64&lt;/b&gt;&lt;br&gt;ctg3 64&lt;br&gt;Location: 72669 - 74442" locus_tag="ctg3_64" class="clusterblast-orf" id="dummy-1_q13_0_all"  />
<polygon points="523,35 528,30 547,30 547,40 528,40 523,35 " style="fill:#d81577; stroke-width:1; stroke:black; " description="&lt;b&gt;ctg3_65&lt;/b&gt;&lt;br&gt;ctg3 65&lt;br&gt;Location: 74532 - 75822" locus_tag="ctg3_65" class="clusterblast-orf" id="dummy-1_q14_0_all"  />
</g>
<g label="NZ_CP028490" description="NZ_CP028490 (4967599-5011640): Pseudomonas syringae pv. atrofaciens strain LM... (30% of genes show similarity), NRPS-like" class="clusterblast-cluster"  >
<text x="5" y="70" class="clusterblast-acc"  >
<a xlink:href="https://antismash-db.secondarymetabolites.org/area.html?record=NZ_CP028490&amp;start=4967599&amp;end=5011640" target="_blank">NZ_CP028490 (4967599-5011640)</a>: Pseudomonas syringae pv. atrofaciens strain LM... (30% of genes show similarity), NRPS-like</text>
<line x1="10" y1="85" x2="778.0" y2="85" style="stroke-width:1; stroke:grey; "  />
</g>
<g id="a1_000"  >
<polygon points="0,90 41,90 46,85 41,80 0,80 0,90 " style="fill:white; stroke-width:1; stroke:black; " description="&lt;b&gt;DA456_RS22330&lt;/b&gt;&lt;br&gt;EAL domain-containing protein&lt;br&gt;Location: 5010207 - 5007721" locus_tag="DA456_RS22330" class="clusterblast-orf" id="dummy-1_h1_8_0"  />
</g>
<g id="a1_001"  >
<polygon points="50,90 65,90 70,85 65,80 50,80 50,90 " style="fill:white; stroke-width:1; stroke:black; " description="&lt;b&gt;DA456_RS22320&lt;/b&gt;&lt;br&gt;site-specific integrase&lt;br&gt;Location: 5007501 - 5006428" locus_tag="DA456_RS22320" class="clusterblast-orf" id="dummy-1_h1_8_1"  />
</g>
<g id="a1_002"  >
<polygon points="75,90 79,85 75,80 75,90 " style="fill:white; stroke-width:1; stroke:black; " description="&lt;b&gt;DA456_RS22315&lt;/b&gt;&lt;br&gt;hypothetical protein&lt;br&gt;Location: 5006126 - 5005908" locus_tag="DA456_RS22315" class="clusterblast-orf" id="dummy-1_h1_8_2"  />
</g>
<g id="a1_003"  >
<polygon points="82,90 90,90 95,85 90,80 82,80 82,90 " style="fill:white; stroke-width:1; stroke:black; " description="&lt;b&gt;DA456_RS22310&lt;/b&gt;&lt;br&gt;hypothetical protein&lt;br&gt;Location: 5005786 - 5005061" locus_tag="DA456_RS22310" class="clusterblast-orf" id="dummy-1_h1_8_3"  />
</g>
<g id="a1_004"  >
<polygon points="96,90 97,90 102,85 97,80 96,80 96,90 " style="fill:white; stroke-width:1; stroke:black; " description="&lt;b&gt;DA456_RS22305&lt;/b&gt;&lt;br&gt;hypothetical protein&lt;br&gt;Location: 5004994 - 5004704" locus_tag="DA456_RS22305" class="clusterblast-orf" id="dummy-1_h1_8_4"  />
</g>
<g id="a1_005"  >
<polygon points="107,90 109,90 114,85 109,80 107,80 107,90 " style="fill:white; stroke-width:1; stroke:black; " description="&lt;b&gt;DA456_RS22300&lt;/b&gt;&lt;br&gt;conjugal transfer transcriptional regulator TraJ&lt;br&gt;Location: 5004425 - 5004051" locus_tag="DA456_RS22300" class="clusterblast-orf" id="dummy-1_h1_8_5"  />
</g>
<g id="a1_006"  >
<polygon points="115,90 124,90 129,85 124,80 115,80 115,90 " style="fill:white; stroke-width:1; stroke:black; " description="&lt;b&gt;DA456_RS22295&lt;/b&gt;&lt;br&gt;P-type conjugative transfer protein TrbJ&lt;br&gt;Location: 5004008 - 5003253" locus_tag="DA456_RS22295" class="clusterblast-orf" id="dummy-1_h1_8_6"  />
</g>
<g id="a1_007"  >
<polygon points="133,90 153,90 158,85 153,80 133,80 133,90 " style="fill:white; stroke-width:1; stroke:black; " description="&lt;b&gt;DA456_RS22290&lt;/b&gt;&lt;br&gt;P-type conjugative transfer protein TrbL&lt;br&gt;Location: 5003049 - 5001664" locus_tag="DA456_RS22290" class="clusterblast-orf" id="dummy-1_h1_8_7"  />
</g>
<g id="a1_008"  >
<polygon points="160,90 164,85 160,80 160,90 " style="fill:white; stroke-width:1; stroke:black; " description="&lt;b&gt;DA456_RS22285&lt;/b&gt;&lt;br&gt;hypothetical protein&lt;br&gt;Location: 5001596 - 5001375" locus_tag="DA456_RS22285" class="clusterblast-orf" id="dummy-1_h1_8_8"  />
</g>
<g id="a1_009"  >
<polygon points="170,85 175,80 177,80 177,90 175,90 170,85 " style="fill:white; stroke-width:1; stroke:black; " description="&lt;b&gt;DA456_RS22280&lt;/b&gt;&lt;br&gt;type II toxin-antitoxin system RelE/ParE family toxin&lt;br&gt;Location: 5001012 - 5000662" locus_tag="DA456_RS22280" class="clusterblast-orf" id="dummy-1_h1_8_9"  />
</g>
<g id="a1_0010"  >
<polygon points="177,85 182,80 182,80 182,90 182,90 177,85 " style="fill:white; stroke-width:1; stroke:black; " description="&lt;b&gt;DA456_RS22275&lt;/b&gt;&lt;br&gt;type II toxin-antitoxin system prevent-host-death family antitoxin&lt;br&gt;Location: 5000649 - 5000401" locus_tag="DA456_RS22275" class="clusterblast-orf" id="dummy-1_h1_8_10"  />
</g>
<g id="a1_0011"  >
<polygon points="188,90 201,90 206,85 201,80 188,80 188,90 " style="fill:white; stroke-width:1; stroke:black; " description="&lt;b&gt;DA456_RS22270&lt;/b&gt;&lt;br&gt;tyrosine-type recombinase/integrase&lt;br&gt;Location: 5000064 - 4999102" locus_tag="DA456_RS22270" class="clusterblast-orf" id="dummy-1_h1_8_11"  />
</g>
<g id="a1_0012"  >
<polygon points="208,85 213,80 213,80 213,90 213,90 208,85 " style="fill:white; stroke-width:1; stroke:black; " description="&lt;b&gt;DA456_RS22265&lt;/b&gt;&lt;br&gt;hypothetical protein&lt;br&gt;Location: 4998976 - 4998716" locus_tag="DA456_RS22265" class="clusterblast-orf" id="dummy-1_h1_8_12"  />
</g>
<g id="a1_0013"  >
<polygon points="218,85 222,80 222,90 218,85 " style="fill:white; stroke-width:1; stroke:black; " description="&lt;b&gt;DA456_RS22260&lt;/b&gt;&lt;br&gt;hypothetical protein&lt;br&gt;Location: 4998443 - 4998228" locus_tag="DA456_RS22260" class="clusterblast-orf" id="dummy-1_h1_8_13"  />
</g>
<g id="a1_0014"  >
<polygon points="226,85 231,80 234,80 234,90 231,90 226,85 " style="fill:white; stroke-width:1; stroke:black; " description="&lt;b&gt;DA456_RS22255&lt;/b&gt;&lt;br&gt;helix-turn-helix transcriptional regulator&lt;br&gt;Location: 4998035 - 4997577" locus_tag="DA456_RS22255" class="clusterblast-orf" id="dummy-1_h1_8_14"  />
</g>
<g id="a1_0015"  >
<polygon points="236,90 249,90 254,85 249,80 236,80 236,90 " style="fill:white; stroke-width:1; stroke:black; " description="&lt;b&gt;DA456_RS22250&lt;/b&gt;&lt;br&gt;aromatic alcohol reductase&lt;br&gt;Location: 4997480 - 4996533" locus_tag="DA456_RS22250" class="clusterblast-orf" id="dummy-1_h1_8_15"  />
</g>
<g id="a1_0016"  >
<polygon points="257,85 262,80 262,80 262,90 262,90 257,85 " style="fill:white; stroke-width:1; stroke:black; " description="&lt;b&gt;DA456_RS22245&lt;/b&gt;&lt;br&gt;hypothetical protein&lt;br&gt;Location: 4996339 - 4996118" locus_tag="DA456_RS22245" class="clusterblast-orf" id="dummy-1_h1_8_16"  />
</g>
<g id="a1_0017"  >
<polygon points="264,85 269,80 269,80 269,90 269,90 264,85 " style="fill:white; stroke-width:1; stroke:black; " description="&lt;b&gt;DA456_RS22240&lt;/b&gt;&lt;br&gt;hypothetical protein&lt;br&gt;Location: 4995972 - 4995697" locus_tag="DA456_RS22240" class="clusterblast-orf" id="dummy-1_h1_8_17"  />
</g>
<g id="a1_0018"  >
<polygon points="274,85 279,80 281,80 281,90 279,90 274,85 " style="fill:white; stroke-width:1; stroke:black; " description="&lt;b&gt;DA456_RS22235&lt;/b&gt;&lt;br&gt;hypothetical protein&lt;br&gt;Location: 4995444 - 4995052" locus_tag="DA456_RS22235" class="clusterblast-orf" id="dummy-1_h1_8_18"  />
</g>
<g id="a1_0019"  >
<polygon points="297,85 302,80 307,80 307,90 302,90 297,85 " style="fill:white; stroke-width:1; stroke:black; " description="&lt;b&gt;DA456_RS22230&lt;/b&gt;&lt;br&gt;peptide-methionine (S)-S-oxide reductase MsrA&lt;br&gt;Location: 4994183 - 4993677" locus_tag="DA456_RS22230" class="clusterblast-orf" id="dummy-1_h1_8_19"  />
</g>
<g id="a1_0020"  >
<polygon points="315,90 325,90 330,85 325,80 315,80 315,90 " style="fill:white; stroke-width:1; stroke:black; " description="&lt;b&gt;DA456_RS22225&lt;/b&gt;&lt;br&gt;formate/nitrite transporter family protein&lt;br&gt;Location: 4993235 - 4992420" locus_tag="DA456_RS22225" class="clusterblast-orf" id="dummy-1_h1_8_20"  />
</g>
<g id="a1_0021"  >
<polygon points="333,85 338,80 345,80 345,90 338,90 333,85 " style="fill:white; stroke-width:1; stroke:black; " description="&lt;b&gt;DA456_RS22220&lt;/b&gt;&lt;br&gt;4'-phosphopantetheinyl transferase superfamily protein&lt;br&gt;Location: 4992269 - 4991637" locus_tag="DA456_RS22220" class="clusterblast-orf" id="dummy-1_h1_8_21"  />
</g>
<g id="a1_0022"  >
<polygon points="345,85 350,80 420,80 420,90 350,90 345,85 " style="fill:white; stroke-width:1; stroke:black; " description="&lt;b&gt;DA456_RS22215&lt;/b&gt;&lt;br&gt;non-ribosomal peptide synthetase&lt;br&gt;Location: 4991640 - 4987600" locus_tag="DA456_RS22215" class="clusterblast-orf" id="dummy-1_h1_8_22"  />
</g>
<g id="a1_0023"  >
<polygon points="425,85 430,80 434,80 434,90 430,90 425,85 " style="fill:white; stroke-width:1; stroke:black; " description="&lt;b&gt;DA456_RS22205&lt;/b&gt;&lt;br&gt;GNAT family N-acetyltransferase&lt;br&gt;Location: 4987347 - 4986844" locus_tag="DA456_RS22205" class="clusterblast-orf" id="dummy-1_h1_8_23"  />
</g>
<g id="a1_0024"  >
<polygon points="438,85 443,80 461,80 461,90 443,90 438,85 " style="fill:white; stroke-width:1; stroke:black; " description="&lt;b&gt;DA456_RS22200&lt;/b&gt;&lt;br&gt;type II toxin-antitoxin system HipA family toxin&lt;br&gt;Location: 4986616 - 4985390" locus_tag="DA456_RS22200" class="clusterblast-orf" id="dummy-1_h1_8_24"  />
</g>
<g id="a1_0025"  >
<polygon points="461,85 466,80 467,80 467,90 466,90 461,85 " style="fill:white; stroke-width:1; stroke:black; " description="&lt;b&gt;DA456_RS22195&lt;/b&gt;&lt;br&gt;helix-turn-helix transcriptional regulator&lt;br&gt;Location: 4985390 - 4985067" locus_tag="DA456_RS22195" class="clusterblast-orf" id="dummy-1_h1_8_25"  />
</g>
<g id="a1_0026"  >
<polygon points="473,90 488,90 493,85 488,80 473,80 473,90 " style="fill:white; stroke-width:1; stroke:black; " description="&lt;b&gt;DA456_RS22185&lt;/b&gt;&lt;br&gt;FUSC family protein&lt;br&gt;Location: 4984756 - 4983671" locus_tag="DA456_RS22185" class="clusterblast-orf" id="dummy-1_h1_8_26"  />
</g>
<g id="a1_0027"  >
<polygon points="493,90 497,90 502,85 497,80 493,80 493,90 " style="fill:#d81515; stroke-width:1; stroke:black; " description="&lt;b&gt;DA456_RS22180&lt;/b&gt;&lt;br&gt;Lrp/AsnC family transcriptional regulator&lt;br&gt;Location: 4983660 - 4983199&lt;br&gt;&lt;br&gt;&lt;b&gt;BlastP hit with ctg3_51&lt;/b&gt;&lt;br&gt;Percentage identity: 92&lt;br&gt;Percentage coverage: 99&lt;br&gt;BLAST bit score: 261&lt;br&gt;E-value: 3.96e-89" locus_tag="DA456_RS22180" class="clusterblast-orf" id="dummy-1_h1_8_27"  />
</g>
<g id="a1_0028"  >
<polygon points="505,90 531,90 536,85 531,80 505,80 505,90 " style="fill:#77d815; stroke-width:1; stroke:black; " description="&lt;b&gt;DA456_RS22175&lt;/b&gt;&lt;br&gt;NAD(P)/FAD-dependent oxidoreductase&lt;br&gt;Location: 4983047 - 4981368&lt;br&gt;&lt;br&gt;&lt;b&gt;BlastP hit with ctg3_52&lt;/b&gt;&lt;br&gt;Percentage identity: 91&lt;br&gt;Percentage coverage: 98&lt;br&gt;BLAST bit score: 1072&lt;br&gt;E-value: 0.0" locus_tag="DA456_RS22175" class="clusterblast-orf" id="dummy-1_h1_8_28"  />
</g>
<g id="a1_0029"  >
<polygon points="536,90 546,90 551,85 546,80 536,80 536,90 " style="fill:#15d8d8; stroke-width:1; stroke:black; " description="&lt;b&gt;DA456_RS22170&lt;/b&gt;&lt;br&gt;carbon-nitrogen hydrolase family protein&lt;br&gt;Location: 4981352 - 4980558&lt;br&gt;&lt;br&gt;&lt;b&gt;BlastP hit with ctg3_53&lt;/b&gt;&lt;br&gt;Percentage identity: 72&lt;br&gt;Percentage coverage: 100&lt;br&gt;BLAST bit score: 387&lt;br&gt;E-value: 2.08e-135" locus_tag="DA456_RS22170" class="clusterblast-orf" id="dummy-1_h1_8_29"  />
</g>
<g id="a1_0030"  >
<polygon points="568,90 606,90 611,85 606,80 568,80 568,90 " style="fill:#7715d8; stroke-width:1; stroke:black; " description="&lt;b&gt;DA456_RS22165&lt;/b&gt;&lt;br&gt;pyrroloquinoline quinone biosynthesis protein PqqF&lt;br&gt;Location: 4979624 - 4977336&lt;br&gt;&lt;br&gt;&lt;b&gt;BlastP hit with ctg3_54&lt;/b&gt;&lt;br&gt;Percentage identity: 46&lt;br&gt;Percentage coverage: 102&lt;br&gt;BLAST bit score: 604&lt;br&gt;E-value: 3.08e-205" locus_tag="DA456_RS22165" class="clusterblast-orf" id="dummy-1_h1_8_30"  />
</g>
<g id="a1_0031"  >
<polygon points="613,90 615,85 613,80 613,90 " style="fill:#d87715; stroke-width:1; stroke:black; " description="&lt;b&gt;DA456_RS22160&lt;/b&gt;&lt;br&gt;pyrroloquinoline quinone precursor peptide PqqA&lt;br&gt;Location: 4977200 - 4977126&lt;br&gt;&lt;br&gt;&lt;b&gt;BlastP hit with ctg3_55&lt;/b&gt;&lt;br&gt;Percentage identity: 92&lt;br&gt;Percentage coverage: 60&lt;br&gt;BLAST bit score: 52&lt;br&gt;E-value: 6.3e-10" locus_tag="DA456_RS22160" class="clusterblast-orf" id="dummy-1_h1_8_31"  />
</g>
<g id="a1_0032"  >
<polygon points="616,90 628,90 633,85 628,80 616,80 616,90 " style="fill:#15d815; stroke-width:1; stroke:black; " description="&lt;b&gt;DA456_RS22155&lt;/b&gt;&lt;br&gt;pyrroloquinoline quinone biosynthesis protein PqqB&lt;br&gt;Location: 4977037 - 4976126&lt;br&gt;&lt;br&gt;&lt;b&gt;BlastP hit with ctg3_56&lt;/b&gt;&lt;br&gt;Percentage identity: 91&lt;br&gt;Percentage coverage: 100&lt;br&gt;BLAST bit score: 587&lt;br&gt;E-value: 2.46e-213" locus_tag="DA456_RS22155" class="clusterblast-orf" id="dummy-1_h1_8_32"  />
</g>
<g id="a1_0033"  >
<polygon points="633,90 642,90 647,85 642,80 633,80 633,90 " style="fill:#1577d8; stroke-width:1; stroke:black; " description="&lt;b&gt;DA456_RS22150&lt;/b&gt;&lt;br&gt;pyrroloquinoline-quinone synthase PqqC&lt;br&gt;Location: 4976117 - 4975362&lt;br&gt;&lt;br&gt;&lt;b&gt;BlastP hit with ctg3_57&lt;/b&gt;&lt;br&gt;Percentage identity: 96&lt;br&gt;Percentage coverage: 99&lt;br&gt;BLAST bit score: 496&lt;br&gt;E-value: 4.01e-179" locus_tag="DA456_RS22150" class="clusterblast-orf" id="dummy-1_h1_8_33"  />
</g>
<g id="a1_0034"  >
<polygon points="647,90 648,90 653,85 648,80 647,80 647,90 " style="fill:#d815d8; stroke-width:1; stroke:black; " description="&lt;b&gt;DA456_RS22145&lt;/b&gt;&lt;br&gt;pyrroloquinoline quinone biosynthesis peptide chaperone PqqD&lt;br&gt;Location: 4975365 - 4975066&lt;br&gt;&lt;br&gt;&lt;b&gt;BlastP hit with ctg3_58&lt;/b&gt;&lt;br&gt;Percentage identity: 70&lt;br&gt;Percentage coverage: 95&lt;br&gt;BLAST bit score: 134&lt;br&gt;E-value: 1.38e-40" locus_tag="DA456_RS22145" class="clusterblast-orf" id="dummy-1_h1_8_34"  />
</g>
<g id="a1_0035"  >
<polygon points="653,90 669,90 674,85 669,80 653,80 653,90 " style="fill:#d8d815; stroke-width:1; stroke:black; " description="&lt;b&gt;DA456_RS22140&lt;/b&gt;&lt;br&gt;pyrroloquinoline quinone biosynthesis protein PqqE&lt;br&gt;Location: 4975088 - 4973919&lt;br&gt;&lt;br&gt;&lt;b&gt;BlastP hit with ctg3_59&lt;/b&gt;&lt;br&gt;Percentage identity: 89&lt;br&gt;Percentage coverage: 98&lt;br&gt;BLAST bit score: 713&lt;br&gt;E-value: 3.16e-260" locus_tag="DA456_RS22140" class="clusterblast-orf" id="dummy-1_h1_8_35"  />
</g>
<g id="a1_0036"  >
<polygon points="674,90 703,90 708,85 703,80 674,80 674,90 " style="fill:white; stroke-width:1; stroke:black; " description="&lt;b&gt;DA456_RS22135&lt;/b&gt;&lt;br&gt;S9 family peptidase&lt;br&gt;Location: 4973956 - 4972130" locus_tag="DA456_RS22135" class="clusterblast-orf" id="dummy-1_h1_8_36"  />
</g>
<g id="a1_0037"  >
<polygon points="709,85 712,80 712,90 709,85 " style="fill:#15d877; stroke-width:1; stroke:black; " description="&lt;b&gt;DA456_RS22130&lt;/b&gt;&lt;br&gt;YqaE/Pmp3 family membrane protein&lt;br&gt;Location: 4972074 - 4971913&lt;br&gt;&lt;br&gt;&lt;b&gt;BlastP hit with ctg3_60&lt;/b&gt;&lt;br&gt;Percentage identity: 85&lt;br&gt;Percentage coverage: 100&lt;br&gt;BLAST bit score: 87&lt;br&gt;E-value: 3.14e-23" locus_tag="DA456_RS22130" class="clusterblast-orf" id="dummy-1_h1_8_37"  />
</g>
<g id="a1_0038"  >
<polygon points="719,85 724,80 752,80 752,90 724,90 719,85 " style="fill:#1515d8; stroke-width:1; stroke:black; " description="&lt;b&gt;DA456_RS22125&lt;/b&gt;&lt;br&gt;acyl-CoA dehydrogenase C-terminal domain-containing protein&lt;br&gt;Location: 4971509 - 4969731&lt;br&gt;&lt;br&gt;&lt;b&gt;BlastP hit with ctg3_63&lt;/b&gt;&lt;br&gt;Percentage identity: 83&lt;br&gt;Percentage coverage: 100&lt;br&gt;BLAST bit score: 988&lt;br&gt;E-value: 0.0&lt;br&gt;&lt;br&gt;&lt;b&gt;BlastP hit with ctg3_64&lt;/b&gt;&lt;br&gt;Percentage identity: 56&lt;br&gt;Percentage coverage: 101&lt;br&gt;BLAST bit score: 634&lt;br&gt;E-value: 3e-222" locus_tag="DA456_RS22125" class="clusterblast-orf" id="dummy-1_h1_8_38"  />
</g>
<g id="a1_0039"  >
<polygon points="755,85 760,80 780,80 780,90 760,90 755,85 " style="fill:#d81577; stroke-width:1; stroke:black; " description="&lt;b&gt;DA456_RS22120&lt;/b&gt;&lt;br&gt;GGDEF domain-containing protein&lt;br&gt;Location: 4969561 - 4968263&lt;br&gt;&lt;br&gt;&lt;b&gt;BlastP hit with ctg3_65&lt;/b&gt;&lt;br&gt;Percentage identity: 81&lt;br&gt;Percentage coverage: 100&lt;br&gt;BLAST bit score: 685&lt;br&gt;E-value: 9.05e-248" locus_tag="DA456_RS22120" class="clusterblast-orf" id="dummy-1_h1_8_39"  />
</g>
</svg>
