<svg xmlns="http://www.w3.org/2000/svg" xmlns:xlink="http://www.w3.org/1999/xlink" version="1.1" x="0" y="0" height="230" width="800" viewBox="0 0 800 230" preserveAspectRatio="none"  >
<g label="Query sequence" class="clusterblast-cluster"  >
<text x="5" y="20" class="clusterblast-acc"  >
Query sequence</text>
<line x1="10" y1="35" x2="778.0" y2="35" style="stroke-width:1; stroke:grey; "  />
<polygon points="8,40 67,40 72,35 67,30 8,30 8,40 " style="fill:#d81515; stroke-width:1; stroke:black; " description="&lt;b&gt;ctg14_32&lt;/b&gt;&lt;br&gt;ctg14 32&lt;br&gt;Location: 34460 - 35228" locus_tag="ctg14_32" class="clusterblast-orf" id="dummy-1_q0_0_all"  />
<polygon points="73,40 127,40 132,35 127,30 73,30 73,40 " style="fill:#d81515; stroke-width:1; stroke:black; " description="&lt;b&gt;ctg14_33&lt;/b&gt;&lt;br&gt;ctg14 33&lt;br&gt;Location: 35229 - 35931" locus_tag="ctg14_33" class="clusterblast-orf" id="dummy-1_q1_0_all"  />
<polygon points="136,35 141,30 245,30 245,40 141,40 136,35 " style="fill:#3cd815; stroke-width:1; stroke:black; " description="&lt;b&gt;ctg14_34&lt;/b&gt;&lt;br&gt;ctg14 34&lt;br&gt;Location: 35982 - 37275" locus_tag="ctg14_34" class="clusterblast-orf" id="dummy-1_q2_0_all"  />
<polygon points="246,35 251,30 328,30 328,40 251,40 246,35 " style="fill:#1563d8; stroke-width:1; stroke:black; " description="&lt;b&gt;ctg14_35&lt;/b&gt;&lt;br&gt;ctg14 35&lt;br&gt;Location: 37287 - 38265" locus_tag="ctg14_35" class="clusterblast-orf" id="dummy-1_q3_0_all"  />
<polygon points="340,40 354,40 359,35 354,30 340,30 340,40 " style="fill:white; stroke-width:1; stroke:black; " description="&lt;b&gt;ctg14_36&lt;/b&gt;&lt;br&gt;ctg14 36&lt;br&gt;Location: 38405 - 38627" locus_tag="ctg14_36" class="clusterblast-orf" id="dummy-1_q4_0_all"  />
<polygon points="365,40 386,40 391,35 386,30 365,30 365,40 " style="fill:#b115d8; stroke-width:1; stroke:black; " description="&lt;b&gt;ctg14_37&lt;/b&gt;&lt;br&gt;ctg14 37&lt;br&gt;Location: 38706 - 39012" locus_tag="ctg14_37" class="clusterblast-orf" id="dummy-1_q5_0_all"  />
<polygon points="393,40 462,40 467,35 462,30 393,30 393,40 " style="fill:#d88a15; stroke-width:1; stroke:black; " description="&lt;b&gt;ctg14_38&lt;/b&gt;&lt;br&gt;ctg14 38&lt;br&gt;Location: 39035 - 39917" locus_tag="ctg14_38" class="clusterblast-orf" id="dummy-1_q6_0_all"  />
<polygon points="467,40 527,40 532,35 527,30 467,30 467,40 " style="fill:#15d863; stroke-width:1; stroke:black; " description="&lt;b&gt;ctg14_39&lt;/b&gt;&lt;br&gt;ctg14 39&lt;br&gt;Location: 39913 - 40690" locus_tag="ctg14_39" class="clusterblast-orf" id="dummy-1_q7_0_all"  />
<polygon points="532,40 568,40 573,35 568,30 532,30 532,40 " style="fill:#3c15d8; stroke-width:1; stroke:black; " description="&lt;b&gt;ctg14_40&lt;/b&gt;&lt;br&gt;ctg14 40&lt;br&gt;Location: 40686 - 41172" locus_tag="ctg14_40" class="clusterblast-orf" id="dummy-1_q8_0_all"  />
<polygon points="572,35 577,30 649,30 649,40 577,40 572,35 " style="fill:#d8158a; stroke-width:1; stroke:black; " description="&lt;b&gt;ctg14_41&lt;/b&gt;&lt;br&gt;ctg14 41&lt;br&gt;Location: 41168 - 42077" locus_tag="ctg14_41" class="clusterblast-orf" id="dummy-1_q9_0_all"  />
<polygon points="658,40 703,40 708,35 703,30 658,30 658,40 " style="fill:#b1d815; stroke-width:1; stroke:black; " description="&lt;b&gt;ctg14_42&lt;/b&gt;&lt;br&gt;ctg14 42&lt;br&gt;Location: 42180 - 42780" locus_tag="ctg14_42" class="clusterblast-orf" id="dummy-1_q10_0_all"  />
<polygon points="716,40 768,40 773,35 768,30 716,30 716,40 " style="fill:#15d8d8; stroke-width:1; stroke:black; " description="&lt;b&gt;ctg14_43&lt;/b&gt;&lt;br&gt;ctg14 43&lt;br&gt;Location: 42877 - 43549" locus_tag="ctg14_43" class="clusterblast-orf" id="dummy-1_q11_0_all"  />
</g>
<g label="NZ_CP046103" description="NZ_CP046103 (1379927-1389196): Pseudomonas sp. IB20 chromosome (83% of genes show similarity), bacteriocin" class="clusterblast-cluster"  >
<text x="5" y="70" class="clusterblast-acc"  >
<a xlink:href="https://antismash-db.secondarymetabolites.org/area.html?record=NZ_CP046103&amp;start=1379927&amp;end=1389196" target="_blank">NZ_CP046103 (1379927-1389196)</a>: Pseudomonas sp. IB20 chromosome (83% of genes show similarity), bacteriocin</text>
<line x1="10" y1="85" x2="778.0" y2="85" style="stroke-width:1; stroke:grey; "  />
</g>
<g id="a1_000"  >
<polygon points="0,90 100,90 105,85 100,80 0,80 0,90 " style="fill:white; stroke-width:1; stroke:black; " description="&lt;b&gt;GJU48_RS06365&lt;/b&gt;&lt;br&gt;high-affinity branched-chain amino acid ABC transporter permease LivM&lt;br&gt;Location: 1389196 - 1387943" locus_tag="GJU48_RS06365" class="clusterblast-orf" id="dummy-1_h1_3_0"  />
</g>
<g id="a1_001"  >
<polygon points="105,90 164,90 169,85 164,80 105,80 105,90 " style="fill:#d81515; stroke-width:1; stroke:black; " description="&lt;b&gt;GJU48_RS06360&lt;/b&gt;&lt;br&gt;high-affinity branched-chain amino acid ABC transporter ATP-binding protein LivG&lt;br&gt;Location: 1387946 - 1387179&lt;br&gt;&lt;br&gt;&lt;b&gt;BlastP hit with ctg14_32&lt;/b&gt;&lt;br&gt;Percentage identity: 100&lt;br&gt;Percentage coverage: 100&lt;br&gt;BLAST bit score: 503&lt;br&gt;E-value: 1.45e-181&lt;br&gt;&lt;br&gt;&lt;b&gt;BlastP hit with ctg14_33&lt;/b&gt;&lt;br&gt;Percentage identity: 32&lt;br&gt;Percentage coverage: 107&lt;br&gt;BLAST bit score: 122&lt;br&gt;E-value: 3.74e-32" locus_tag="GJU48_RS06360" class="clusterblast-orf" id="dummy-1_h1_3_1"  />
</g>
<g id="a1_002"  >
<polygon points="169,90 223,90 228,85 223,80 169,80 169,90 " style="fill:#d81515; stroke-width:1; stroke:black; " description="&lt;b&gt;GJU48_RS06355&lt;/b&gt;&lt;br&gt;ABC transporter ATP-binding protein&lt;br&gt;Location: 1387177 - 1386476&lt;br&gt;&lt;br&gt;&lt;b&gt;BlastP hit with ctg14_32&lt;/b&gt;&lt;br&gt;Percentage identity: 32&lt;br&gt;Percentage coverage: 100&lt;br&gt;BLAST bit score: 124&lt;br&gt;E-value: 1.47e-32&lt;br&gt;&lt;br&gt;&lt;b&gt;BlastP hit with ctg14_33&lt;/b&gt;&lt;br&gt;Percentage identity: 98&lt;br&gt;Percentage coverage: 100&lt;br&gt;BLAST bit score: 443&lt;br&gt;E-value: 1.62e-158" locus_tag="GJU48_RS06355" class="clusterblast-orf" id="dummy-1_h1_3_2"  />
</g>
<g id="a1_003"  >
<polygon points="237,85 242,80 341,80 341,90 242,90 237,85 " style="fill:#3cd815; stroke-width:1; stroke:black; " description="&lt;b&gt;GJU48_RS06350&lt;/b&gt;&lt;br&gt;MFS transporter&lt;br&gt;Location: 1386374 - 1385133&lt;br&gt;&lt;br&gt;&lt;b&gt;BlastP hit with ctg14_34&lt;/b&gt;&lt;br&gt;Percentage identity: 93&lt;br&gt;Percentage coverage: 96&lt;br&gt;BLAST bit score: 709&lt;br&gt;E-value: 2.39e-257" locus_tag="GJU48_RS06350" class="clusterblast-orf" id="dummy-1_h1_3_3"  />
</g>
<g id="a1_004"  >
<polygon points="333,90 357,90 362,85 357,80 333,80 333,90 " style="fill:white; stroke-width:1; stroke:black; " description="&lt;b&gt;GJU48_RS24830&lt;/b&gt;&lt;br&gt;hypothetical protein&lt;br&gt;Location: 1385239 - 1384892" locus_tag="GJU48_RS24830" class="clusterblast-orf" id="dummy-1_h1_3_4"  />
</g>
<g id="a1_005"  >
<polygon points="374,90 394,90 399,85 394,80 374,80 374,90 " style="fill:#b115d8; stroke-width:1; stroke:black; " description="&lt;b&gt;GJU48_RS06345&lt;/b&gt;&lt;br&gt;DUF2282 domain-containing protein&lt;br&gt;Location: 1384751 - 1384452&lt;br&gt;&lt;br&gt;&lt;b&gt;BlastP hit with ctg14_37&lt;/b&gt;&lt;br&gt;Percentage identity: 85&lt;br&gt;Percentage coverage: 101&lt;br&gt;BLAST bit score: 152&lt;br&gt;E-value: 9.99e-48" locus_tag="GJU48_RS06345" class="clusterblast-orf" id="dummy-1_h1_3_5"  />
</g>
<g id="a1_006"  >
<polygon points="401,90 470,90 475,85 470,80 401,80 401,90 " style="fill:#d88a15; stroke-width:1; stroke:black; " description="&lt;b&gt;GJU48_RS06340&lt;/b&gt;&lt;br&gt;DUF692 domain-containing protein&lt;br&gt;Location: 1384427 - 1383549&lt;br&gt;&lt;br&gt;&lt;b&gt;BlastP hit with ctg14_38&lt;/b&gt;&lt;br&gt;Percentage identity: 95&lt;br&gt;Percentage coverage: 99&lt;br&gt;BLAST bit score: 573&lt;br&gt;E-value: 3.36e-208" locus_tag="GJU48_RS06340" class="clusterblast-orf" id="dummy-1_h1_3_6"  />
</g>
<g id="a1_007"  >
<polygon points="475,90 535,90 540,85 535,80 475,80 475,90 " style="fill:#15d863; stroke-width:1; stroke:black; " description="&lt;b&gt;GJU48_RS06335&lt;/b&gt;&lt;br&gt;putative DNA-binding domain-containing protein&lt;br&gt;Location: 1383552 - 1382776&lt;br&gt;&lt;br&gt;&lt;b&gt;BlastP hit with ctg14_39&lt;/b&gt;&lt;br&gt;Percentage identity: 81&lt;br&gt;Percentage coverage: 100&lt;br&gt;BLAST bit score: 411&lt;br&gt;E-value: 4.82e-145" locus_tag="GJU48_RS06335" class="clusterblast-orf" id="dummy-1_h1_3_7"  />
</g>
<g id="a1_008"  >
<polygon points="540,90 575,90 580,85 575,80 540,80 540,90 " style="fill:#3c15d8; stroke-width:1; stroke:black; " description="&lt;b&gt;GJU48_RS06330&lt;/b&gt;&lt;br&gt;DoxX family protein&lt;br&gt;Location: 1382779 - 1382294&lt;br&gt;&lt;br&gt;&lt;b&gt;BlastP hit with ctg14_40&lt;/b&gt;&lt;br&gt;Percentage identity: 95&lt;br&gt;Percentage coverage: 100&lt;br&gt;BLAST bit score: 296&lt;br&gt;E-value: 5.84e-103" locus_tag="GJU48_RS06330" class="clusterblast-orf" id="dummy-1_h1_3_8"  />
</g>
<g id="a1_009"  >
<polygon points="580,85 585,80 657,80 657,90 585,90 580,85 " style="fill:#d8158a; stroke-width:1; stroke:black; " description="&lt;b&gt;GJU48_RS06325&lt;/b&gt;&lt;br&gt;LysR family transcriptional regulator&lt;br&gt;Location: 1382303 - 1381389&lt;br&gt;&lt;br&gt;&lt;b&gt;BlastP hit with ctg14_41&lt;/b&gt;&lt;br&gt;Percentage identity: 97&lt;br&gt;Percentage coverage: 100&lt;br&gt;BLAST bit score: 582&lt;br&gt;E-value: 3.34e-211" locus_tag="GJU48_RS06325" class="clusterblast-orf" id="dummy-1_h1_3_9"  />
</g>
<g id="a1_0010"  >
<polygon points="665,90 711,90 716,85 711,80 665,80 665,90 " style="fill:#b1d815; stroke-width:1; stroke:black; " description="&lt;b&gt;GJU48_RS06320&lt;/b&gt;&lt;br&gt;short chain dehydrogenase&lt;br&gt;Location: 1381285 - 1380686&lt;br&gt;&lt;br&gt;&lt;b&gt;BlastP hit with ctg14_42&lt;/b&gt;&lt;br&gt;Percentage identity: 96&lt;br&gt;Percentage coverage: 100&lt;br&gt;BLAST bit score: 367&lt;br&gt;E-value: 9.16e-130" locus_tag="GJU48_RS06320" class="clusterblast-orf" id="dummy-1_h1_3_10"  />
</g>
<g id="a1_0011"  >
<polygon points="723,90 775,90 780,85 775,80 723,80 723,90 " style="fill:#15d8d8; stroke-width:1; stroke:black; " description="&lt;b&gt;GJU48_RS06315&lt;/b&gt;&lt;br&gt;hypothetical protein&lt;br&gt;Location: 1380599 - 1379928&lt;br&gt;&lt;br&gt;&lt;b&gt;BlastP hit with ctg14_43&lt;/b&gt;&lt;br&gt;Percentage identity: 93&lt;br&gt;Percentage coverage: 100&lt;br&gt;BLAST bit score: 423&lt;br&gt;E-value: 4.49e-151" locus_tag="GJU48_RS06315" class="clusterblast-orf" id="dummy-1_h1_3_11"  />
</g>
</svg>
