<svg xmlns="http://www.w3.org/2000/svg" xmlns:xlink="http://www.w3.org/1999/xlink" version="1.1" x="0" y="0" height="230" width="800" viewBox="0 0 800 230" preserveAspectRatio="none"  >
<g label="Query sequence" class="clusterblast-cluster"  >
<text x="5" y="20" class="clusterblast-acc"  >
Query sequence</text>
<line x1="10" y1="35" x2="778.0" y2="35" style="stroke-width:1; stroke:grey; "  />
<polygon points="0,35 5,30 43,30 43,40 5,40 0,35 " style="fill:#d81515; stroke-width:1; stroke:black; " description="&lt;b&gt;ctg8_181&lt;/b&gt;&lt;br&gt;ctg8 181&lt;br&gt;Location: 188290 - 188812" locus_tag="ctg8_181" class="clusterblast-orf" id="dummy-1_q0_0_all"  />
<polygon points="53,40 165,40 170,35 165,30 53,30 53,40 " style="fill:#15d815; stroke-width:1; stroke:black; " description="&lt;b&gt;ctg8_182&lt;/b&gt;&lt;br&gt;ctg8 182&lt;br&gt;Location: 188942 - 190382" locus_tag="ctg8_182" class="clusterblast-orf" id="dummy-1_q1_0_all"  />
<polygon points="194,35 199,30 290,30 290,40 199,40 194,35 " style="fill:#1597d8; stroke-width:1; stroke:black; " description="&lt;b&gt;ctg8_183&lt;/b&gt;&lt;br&gt;ctg8 183&lt;br&gt;Location: 190680 - 191865" locus_tag="ctg8_183" class="clusterblast-orf" id="dummy-1_q2_0_all"  />
<polygon points="297,35 302,30 361,30 361,40 302,40 297,35 " style="fill:#9715d8; stroke-width:1; stroke:black; " description="&lt;b&gt;ctg8_184&lt;/b&gt;&lt;br&gt;ctg8 184&lt;br&gt;Location: 191952 - 192741" locus_tag="ctg8_184" class="clusterblast-orf" id="dummy-1_q3_0_all"  />
<polygon points="360,35 365,30 429,30 429,40 365,40 360,35 " style="fill:#d89715; stroke-width:1; stroke:black; " description="&lt;b&gt;ctg8_185&lt;/b&gt;&lt;br&gt;ctg8 185&lt;br&gt;Location: 192731 - 193577" locus_tag="ctg8_185" class="clusterblast-orf" id="dummy-1_q4_0_all"  />
<polygon points="434,35 439,30 455,30 455,40 439,40 434,35 " style="fill:#15d897; stroke-width:1; stroke:black; " description="&lt;b&gt;ctg8_186&lt;/b&gt;&lt;br&gt;ctg8 186&lt;br&gt;Location: 193644 - 193896" locus_tag="ctg8_186" class="clusterblast-orf" id="dummy-1_q5_0_all"  />
<polygon points="464,35 469,30 617,30 617,40 469,40 464,35 " style="fill:#1515d8; stroke-width:1; stroke:black; " description="&lt;b&gt;ctg8_187&lt;/b&gt;&lt;br&gt;ctg8 187&lt;br&gt;Location: 194013 - 195900" locus_tag="ctg8_187" class="clusterblast-orf" id="dummy-1_q6_0_all"  />
<polygon points="617,35 622,30 700,30 700,40 622,40 617,35 " style="fill:#d81597; stroke-width:1; stroke:black; " description="&lt;b&gt;ctg8_188&lt;/b&gt;&lt;br&gt;ctg8 188&lt;br&gt;Location: 195896 - 196931" locus_tag="ctg8_188" class="clusterblast-orf" id="dummy-1_q7_0_all"  />
<polygon points="700,35 705,30 780,30 780,40 705,40 700,35 " style="fill:#97d815; stroke-width:1; stroke:black; " description="&lt;b&gt;ctg8_189&lt;/b&gt;&lt;br&gt;ctg8 189&lt;br&gt;Location: 196927 - 197917" locus_tag="ctg8_189" class="clusterblast-orf" id="dummy-1_q8_0_all"  />
</g>
<g label="NZ_CP019428" description="NZ_CP019428 (6737260-6748106): Pseudomonas sp. R76 chromosome, complete genome (100% of genes show similarity), bacteriocin" class="clusterblast-cluster"  >
<text x="5" y="70" class="clusterblast-acc"  >
<a xlink:href="https://antismash-db.secondarymetabolites.org/area.html?record=NZ_CP019428&amp;start=6737260&amp;end=6748106" target="_blank">NZ_CP019428 (6737260-6748106)</a>: Pseudomonas sp. R76 chromosome, complete genome (100% of genes show similarity), bacteriocin</text>
<line x1="10" y1="85" x2="778.0" y2="85" style="stroke-width:1; stroke:grey; "  />
</g>
<g id="a1_000"  >
<polygon points="6,85 11,80 48,80 48,90 11,90 6,85 " style="fill:#d81515; stroke-width:1; stroke:black; " description="&lt;b&gt;PspR76_RS30600&lt;/b&gt;&lt;br&gt;DUF3617 family protein&lt;br&gt;Location: 6737983 - 6738504&lt;br&gt;&lt;br&gt;&lt;b&gt;BlastP hit with ctg8_181&lt;/b&gt;&lt;br&gt;Percentage identity: 98&lt;br&gt;Percentage coverage: 100&lt;br&gt;BLAST bit score: 340&lt;br&gt;E-value: 8.5e-120" locus_tag="PspR76_RS30600" class="clusterblast-orf" id="dummy-1_h1_6_0"  />
</g>
<g id="a1_001"  >
<polygon points="59,90 170,90 175,85 170,80 59,80 59,90 " style="fill:#15d815; stroke-width:1; stroke:black; " description="&lt;b&gt;PspR76_RS30605&lt;/b&gt;&lt;br&gt;cardiolipin synthase&lt;br&gt;Location: 6738635 - 6740074&lt;br&gt;&lt;br&gt;&lt;b&gt;BlastP hit with ctg8_182&lt;/b&gt;&lt;br&gt;Percentage identity: 98&lt;br&gt;Percentage coverage: 100&lt;br&gt;BLAST bit score: 931&lt;br&gt;E-value: 0.0" locus_tag="PspR76_RS30605" class="clusterblast-orf" id="dummy-1_h1_6_1"  />
</g>
<g id="a1_002"  >
<polygon points="186,85 191,80 282,80 282,90 191,90 186,85 " style="fill:#1597d8; stroke-width:1; stroke:black; " description="&lt;b&gt;PspR76_RS30610&lt;/b&gt;&lt;br&gt;class I SAM-dependent methyltransferase&lt;br&gt;Location: 6740210 - 6741394&lt;br&gt;&lt;br&gt;&lt;b&gt;BlastP hit with ctg8_183&lt;/b&gt;&lt;br&gt;Percentage identity: 97&lt;br&gt;Percentage coverage: 100&lt;br&gt;BLAST bit score: 774&lt;br&gt;E-value: 3.48e-284" locus_tag="PspR76_RS30610" class="clusterblast-orf" id="dummy-1_h1_6_2"  />
</g>
<g id="a1_003"  >
<polygon points="289,85 294,80 353,80 353,90 294,90 289,85 " style="fill:#9715d8; stroke-width:1; stroke:black; " description="&lt;b&gt;PspR76_RS30615&lt;/b&gt;&lt;br&gt;putative DNA-binding domain-containing protein&lt;br&gt;Location: 6741482 - 6742270&lt;br&gt;&lt;br&gt;&lt;b&gt;BlastP hit with ctg8_184&lt;/b&gt;&lt;br&gt;Percentage identity: 93&lt;br&gt;Percentage coverage: 100&lt;br&gt;BLAST bit score: 508&lt;br&gt;E-value: 3.7e-183" locus_tag="PspR76_RS30615" class="clusterblast-orf" id="dummy-1_h1_6_3"  />
</g>
<g id="a1_004"  >
<polygon points="353,85 358,80 421,80 421,90 358,90 353,85 " style="fill:#d89715; stroke-width:1; stroke:black; " description="&lt;b&gt;PspR76_RS30620&lt;/b&gt;&lt;br&gt;DUF692 family protein&lt;br&gt;Location: 6742261 - 6743106&lt;br&gt;&lt;br&gt;&lt;b&gt;BlastP hit with ctg8_185&lt;/b&gt;&lt;br&gt;Percentage identity: 91&lt;br&gt;Percentage coverage: 100&lt;br&gt;BLAST bit score: 527&lt;br&gt;E-value: 2.7e-190" locus_tag="PspR76_RS30620" class="clusterblast-orf" id="dummy-1_h1_6_4"  />
</g>
<g id="a1_005"  >
<polygon points="426,85 431,80 447,80 447,90 431,90 426,85 " style="fill:#15d897; stroke-width:1; stroke:black; " description="&lt;b&gt;PspR76_RS30625&lt;/b&gt;&lt;br&gt;hypothetical protein&lt;br&gt;Location: 6743174 - 6743428&lt;br&gt;&lt;br&gt;&lt;b&gt;BlastP hit with ctg8_186&lt;/b&gt;&lt;br&gt;Percentage identity: 87&lt;br&gt;Percentage coverage: 101&lt;br&gt;BLAST bit score: 111&lt;br&gt;E-value: 6.34e-32" locus_tag="PspR76_RS30625" class="clusterblast-orf" id="dummy-1_h1_6_5"  />
</g>
<g id="a1_006"  >
<polygon points="457,85 462,80 609,80 609,90 462,90 457,85 " style="fill:#1515d8; stroke-width:1; stroke:black; " description="&lt;b&gt;PspR76_RS30630&lt;/b&gt;&lt;br&gt;cadmium-translocating P-type ATPase&lt;br&gt;Location: 6743545 - 6745431&lt;br&gt;&lt;br&gt;&lt;b&gt;BlastP hit with ctg8_187&lt;/b&gt;&lt;br&gt;Percentage identity: 98&lt;br&gt;Percentage coverage: 100&lt;br&gt;BLAST bit score: 1098&lt;br&gt;E-value: 0.0" locus_tag="PspR76_RS30630" class="clusterblast-orf" id="dummy-1_h1_6_6"  />
</g>
<g id="a1_007"  >
<polygon points="609,85 614,80 693,80 693,90 614,90 609,85 " style="fill:#d81597; stroke-width:1; stroke:black; " description="&lt;b&gt;PspR76_RS30635&lt;/b&gt;&lt;br&gt;protease modulator HflK&lt;br&gt;Location: 6745428 - 6746462&lt;br&gt;&lt;br&gt;&lt;b&gt;BlastP hit with ctg8_188&lt;/b&gt;&lt;br&gt;Percentage identity: 97&lt;br&gt;Percentage coverage: 100&lt;br&gt;BLAST bit score: 544&lt;br&gt;E-value: 9.42e-195" locus_tag="PspR76_RS30635" class="clusterblast-orf" id="dummy-1_h1_6_7"  />
</g>
<g id="a1_008"  >
<polygon points="693,85 698,80 773,80 773,90 698,90 693,85 " style="fill:#97d815; stroke-width:1; stroke:black; " description="&lt;b&gt;PspR76_RS30640&lt;/b&gt;&lt;br&gt;protease modulator HflC&lt;br&gt;Location: 6746459 - 6747451&lt;br&gt;&lt;br&gt;&lt;b&gt;BlastP hit with ctg8_189&lt;/b&gt;&lt;br&gt;Percentage identity: 90&lt;br&gt;Percentage coverage: 94&lt;br&gt;BLAST bit score: 520&lt;br&gt;E-value: 6.07e-186" locus_tag="PspR76_RS30640" class="clusterblast-orf" id="dummy-1_h1_6_8"  />
</g>
</svg>
