<svg xmlns="http://www.w3.org/2000/svg" xmlns:xlink="http://www.w3.org/1999/xlink" version="1.1" x="0" y="0" height="230" width="800" viewBox="0 0 800 230" preserveAspectRatio="none"  >
<g label="Query sequence" class="clusterblast-cluster"  >
<text x="5" y="20" class="clusterblast-acc"  >
Query sequence</text>
<line x1="10" y1="35" x2="778.0" y2="35" style="stroke-width:1; stroke:grey; "  />
<polygon points="234,40 308,40 313,35 308,30 234,30 234,40 " style="fill:#d81515; stroke-width:1; stroke:black; " description="&lt;b&gt;ctg52_1&lt;/b&gt;&lt;br&gt;ctg52 1&lt;br&gt;Location: 0 - 4152" locus_tag="ctg52_1" class="clusterblast-orf" id="dummy-1_q0_0_all"  />
<polygon points="316,40 318,40 323,35 318,30 316,30 316,40 " style="fill:#3cd815; stroke-width:1; stroke:black; " description="&lt;b&gt;ctg52_2&lt;/b&gt;&lt;br&gt;ctg52 2&lt;br&gt;Location: 4304 - 4643" locus_tag="ctg52_2" class="clusterblast-orf" id="dummy-1_q1_0_all"  />
<polygon points="326,35 331,30 363,30 363,40 331,40 326,35 " style="fill:#1563d8; stroke-width:1; stroke:black; " description="&lt;b&gt;ctg52_3&lt;/b&gt;&lt;br&gt;ctg52 3&lt;br&gt;Location: 4785 - 6732" locus_tag="ctg52_3" class="clusterblast-orf" id="dummy-1_q2_0_all"  />
<polygon points="363,35 368,30 375,30 375,40 368,40 363,35 " style="fill:#b115d8; stroke-width:1; stroke:black; " description="&lt;b&gt;ctg52_4&lt;/b&gt;&lt;br&gt;ctg52 4&lt;br&gt;Location: 6746 - 7370" locus_tag="ctg52_4" class="clusterblast-orf" id="dummy-1_q3_0_all"  />
<polygon points="381,40 390,40 395,35 390,30 381,30 381,40 " style="fill:#d88a15; stroke-width:1; stroke:black; " description="&lt;b&gt;ctg52_5&lt;/b&gt;&lt;br&gt;ctg52 5&lt;br&gt;Location: 7688 - 8399" locus_tag="ctg52_5" class="clusterblast-orf" id="dummy-1_q4_0_all"  />
<polygon points="402,40 412,40 417,35 412,30 402,30 402,40 " style="fill:#15d863; stroke-width:1; stroke:black; " description="&lt;b&gt;ctg52_6&lt;/b&gt;&lt;br&gt;ctg52 6&lt;br&gt;Location: 8781 - 9540" locus_tag="ctg52_6" class="clusterblast-orf" id="dummy-1_q5_0_all"  />
<polygon points="417,40 430,40 435,35 430,30 417,30 417,40 " style="fill:#3c15d8; stroke-width:1; stroke:black; " description="&lt;b&gt;ctg52_7&lt;/b&gt;&lt;br&gt;ctg52 7&lt;br&gt;Location: 9536 - 10484" locus_tag="ctg52_7" class="clusterblast-orf" id="dummy-1_q6_0_all"  />
<polygon points="435,40 495,40 500,35 495,30 435,30 435,40 " style="fill:#d8158a; stroke-width:1; stroke:black; " description="&lt;b&gt;ctg52_8&lt;/b&gt;&lt;br&gt;ctg52 8&lt;br&gt;Location: 10480 - 13858" locus_tag="ctg52_8" class="clusterblast-orf" id="dummy-1_q7_0_all"  />
<polygon points="500,40 504,40 509,35 504,30 500,30 500,40 " style="fill:#b1d815; stroke-width:1; stroke:black; " description="&lt;b&gt;ctg52_9&lt;/b&gt;&lt;br&gt;ctg52 9&lt;br&gt;Location: 13876 - 14335" locus_tag="ctg52_9" class="clusterblast-orf" id="dummy-1_q8_0_all"  />
<polygon points="510,35 515,30 546,30 546,40 515,40 510,35 " style="fill:#15d8d8; stroke-width:1; stroke:black; " description="&lt;b&gt;ctg52_10&lt;/b&gt;&lt;br&gt;ctg52 10&lt;br&gt;Location: 14374 - 16255" locus_tag="ctg52_10" class="clusterblast-orf" id="dummy-1_q9_0_all"  />
</g>
<g label="NZ_CP025494" description="NZ_CP025494 (4035690-4076340): Pseudomonas palleroniana strain MAB3 chromosome (43% of genes show similarity), NRPS-like" class="clusterblast-cluster"  >
<text x="5" y="70" class="clusterblast-acc"  >
<a xlink:href="https://antismash-db.secondarymetabolites.org/area.html?record=NZ_CP025494&amp;start=4035690&amp;end=4076340" target="_blank">NZ_CP025494 (4035690-4076340)</a>: Pseudomonas palleroniana strain MAB3 chromosome (43% of genes show similarity), NRPS-like</text>
<line x1="10" y1="85" x2="778.0" y2="85" style="stroke-width:1; stroke:grey; "  />
</g>
<g id="a1_000"  >
<polygon points="0,85 5,80 26,80 26,90 5,90 0,85 " style="fill:white; stroke-width:1; stroke:black; " description="&lt;b&gt;CYL20_RS18355&lt;/b&gt;&lt;br&gt;TolC family outer membrane protein&lt;br&gt;Location: 4076340 - 4074982" locus_tag="CYL20_RS18355" class="clusterblast-orf" id="dummy-1_h1_3_0"  />
</g>
<g id="a1_001"  >
<polygon points="32,90 235,90 240,85 235,80 32,80 32,90 " style="fill:#d81515; stroke-width:1; stroke:black; " description="&lt;b&gt;CYL20_RS18350&lt;/b&gt;&lt;br&gt;retention module-containing protein&lt;br&gt;Location: 4074644 - 4063812&lt;br&gt;&lt;br&gt;&lt;b&gt;BlastP hit with ctg52_1&lt;/b&gt;&lt;br&gt;Percentage identity: 89&lt;br&gt;Percentage coverage: 100&lt;br&gt;BLAST bit score: 2260&lt;br&gt;E-value: 0.0" locus_tag="CYL20_RS18350" class="clusterblast-orf" id="dummy-1_h1_3_1"  />
</g>
<g id="a1_002"  >
<polygon points="243,90 244,90 249,85 244,80 243,80 243,90 " style="fill:#3cd815; stroke-width:1; stroke:black; " description="&lt;b&gt;CYL20_RS18345&lt;/b&gt;&lt;br&gt;hypothetical protein&lt;br&gt;Location: 4063672 - 4063334&lt;br&gt;&lt;br&gt;&lt;b&gt;BlastP hit with ctg52_2&lt;/b&gt;&lt;br&gt;Percentage identity: 96&lt;br&gt;Percentage coverage: 100&lt;br&gt;BLAST bit score: 207&lt;br&gt;E-value: 2.58e-69" locus_tag="CYL20_RS18345" class="clusterblast-orf" id="dummy-1_h1_3_2"  />
</g>
<g id="a1_003"  >
<polygon points="250,85 255,80 287,80 287,90 255,90 250,85 " style="fill:#1563d8; stroke-width:1; stroke:black; " description="&lt;b&gt;CYL20_RS18340&lt;/b&gt;&lt;br&gt;EAL domain-containing protein&lt;br&gt;Location: 4063298 - 4061352&lt;br&gt;&lt;br&gt;&lt;b&gt;BlastP hit with ctg52_3&lt;/b&gt;&lt;br&gt;Percentage identity: 95&lt;br&gt;Percentage coverage: 100&lt;br&gt;BLAST bit score: 1174&lt;br&gt;E-value: 0.0" locus_tag="CYL20_RS18340" class="clusterblast-orf" id="dummy-1_h1_3_3"  />
</g>
<g id="a1_004"  >
<polygon points="287,85 292,80 301,80 301,90 292,90 287,85 " style="fill:#b115d8; stroke-width:1; stroke:black; " description="&lt;b&gt;CYL20_RS18335&lt;/b&gt;&lt;br&gt;hypothetical protein&lt;br&gt;Location: 4061338 - 4060646&lt;br&gt;&lt;br&gt;&lt;b&gt;BlastP hit with ctg52_4&lt;/b&gt;&lt;br&gt;Percentage identity: 93&lt;br&gt;Percentage coverage: 100&lt;br&gt;BLAST bit score: 404&lt;br&gt;E-value: 1.79e-143" locus_tag="CYL20_RS18335" class="clusterblast-orf" id="dummy-1_h1_3_4"  />
</g>
<g id="a1_005"  >
<polygon points="305,90 314,90 319,85 314,80 305,80 305,90 " style="fill:#d88a15; stroke-width:1; stroke:black; " description="&lt;b&gt;CYL20_RS18330&lt;/b&gt;&lt;br&gt;GntR family transcriptional regulator&lt;br&gt;Location: 4060395 - 4059685&lt;br&gt;&lt;br&gt;&lt;b&gt;BlastP hit with ctg52_5&lt;/b&gt;&lt;br&gt;Percentage identity: 93&lt;br&gt;Percentage coverage: 96&lt;br&gt;BLAST bit score: 411&lt;br&gt;E-value: 6.42e-146" locus_tag="CYL20_RS18330" class="clusterblast-orf" id="dummy-1_h1_3_5"  />
</g>
<g id="a1_006"  >
<polygon points="326,90 336,90 341,85 336,80 326,80 326,90 " style="fill:#15d863; stroke-width:1; stroke:black; " description="&lt;b&gt;CYL20_RS18325&lt;/b&gt;&lt;br&gt;DUF3050 domain-containing protein&lt;br&gt;Location: 4059311 - 4058553&lt;br&gt;&lt;br&gt;&lt;b&gt;BlastP hit with ctg52_6&lt;/b&gt;&lt;br&gt;Percentage identity: 74&lt;br&gt;Percentage coverage: 99&lt;br&gt;BLAST bit score: 371&lt;br&gt;E-value: 1.48e-129" locus_tag="CYL20_RS18325" class="clusterblast-orf" id="dummy-1_h1_3_6"  />
</g>
<g id="a1_007"  >
<polygon points="341,90 354,90 359,85 354,80 341,80 341,90 " style="fill:#3c15d8; stroke-width:1; stroke:black; " description="&lt;b&gt;CYL20_RS18320&lt;/b&gt;&lt;br&gt;aminobenzoate oxygenase&lt;br&gt;Location: 4058556 - 4057609&lt;br&gt;&lt;br&gt;&lt;b&gt;BlastP hit with ctg52_7&lt;/b&gt;&lt;br&gt;Percentage identity: 82&lt;br&gt;Percentage coverage: 98&lt;br&gt;BLAST bit score: 507&lt;br&gt;E-value: 3.04e-181" locus_tag="CYL20_RS18320" class="clusterblast-orf" id="dummy-1_h1_3_7"  />
</g>
<g id="a1_008"  >
<polygon points="359,90 419,90 424,85 419,80 359,80 359,90 " style="fill:#d8158a; stroke-width:1; stroke:black; " description="&lt;b&gt;CYL20_RS18315&lt;/b&gt;&lt;br&gt;non-ribosomal peptide synthetase&lt;br&gt;Location: 4057612 - 4054232&lt;br&gt;&lt;br&gt;&lt;b&gt;BlastP hit with ctg52_8&lt;/b&gt;&lt;br&gt;Percentage identity: 72&lt;br&gt;Percentage coverage: 100&lt;br&gt;BLAST bit score: 1642&lt;br&gt;E-value: 0.0" locus_tag="CYL20_RS18315" class="clusterblast-orf" id="dummy-1_h1_3_8"  />
</g>
<g id="a1_009"  >
<polygon points="424,90 428,90 433,85 428,80 424,80 424,90 " style="fill:#b1d815; stroke-width:1; stroke:black; " description="&lt;b&gt;CYL20_RS18310&lt;/b&gt;&lt;br&gt;SRPBCC family protein&lt;br&gt;Location: 4054212 - 4053754&lt;br&gt;&lt;br&gt;&lt;b&gt;BlastP hit with ctg52_9&lt;/b&gt;&lt;br&gt;Percentage identity: 75&lt;br&gt;Percentage coverage: 100&lt;br&gt;BLAST bit score: 234&lt;br&gt;E-value: 1.04e-78" locus_tag="CYL20_RS18310" class="clusterblast-orf" id="dummy-1_h1_3_9"  />
</g>
<g id="a1_0010"  >
<polygon points="434,85 439,80 470,80 470,90 439,90 434,85 " style="fill:#15d8d8; stroke-width:1; stroke:black; " description="&lt;b&gt;CYL20_RS18305&lt;/b&gt;&lt;br&gt;methyl-accepting chemotaxis protein&lt;br&gt;Location: 4053715 - 4051835&lt;br&gt;&lt;br&gt;&lt;b&gt;BlastP hit with ctg52_10&lt;/b&gt;&lt;br&gt;Percentage identity: 96&lt;br&gt;Percentage coverage: 100&lt;br&gt;BLAST bit score: 1039&lt;br&gt;E-value: 0.0" locus_tag="CYL20_RS18305" class="clusterblast-orf" id="dummy-1_h1_3_10"  />
</g>
<g id="a1_0011"  >
<polygon points="542,85 547,80 565,80 565,90 547,90 542,85 " style="fill:white; stroke-width:1; stroke:black; " description="&lt;b&gt;CYL20_RS18275&lt;/b&gt;&lt;br&gt;CoA transferase&lt;br&gt;Location: 4048086 - 4046866" locus_tag="CYL20_RS18275" class="clusterblast-orf" id="dummy-1_h1_3_11"  />
</g>
<g id="a1_0012"  >
<polygon points="565,85 570,80 588,80 588,90 570,90 565,85 " style="fill:white; stroke-width:1; stroke:black; " description="&lt;b&gt;CYL20_RS18270&lt;/b&gt;&lt;br&gt;acyl-CoA dehydrogenase&lt;br&gt;Location: 4046853 - 4045672" locus_tag="CYL20_RS18270" class="clusterblast-orf" id="dummy-1_h1_3_12"  />
</g>
<g id="a1_0013"  >
<polygon points="591,90 603,90 608,85 603,80 591,80 591,90 " style="fill:white; stroke-width:1; stroke:black; " description="&lt;b&gt;CYL20_RS18265&lt;/b&gt;&lt;br&gt;LysR family transcriptional regulator&lt;br&gt;Location: 4045514 - 4044615" locus_tag="CYL20_RS18265" class="clusterblast-orf" id="dummy-1_h1_3_13"  />
</g>
<g id="a1_0014"  >
<polygon points="617,90 633,90 638,85 633,80 617,80 617,90 " style="fill:white; stroke-width:1; stroke:black; " description="&lt;b&gt;CYL20_RS18260&lt;/b&gt;&lt;br&gt;Re/Si-specific NAD(P)(+) transhydrogenase subunit alpha&lt;br&gt;Location: 4044161 - 4043040" locus_tag="CYL20_RS18260" class="clusterblast-orf" id="dummy-1_h1_3_14"  />
</g>
<g id="a1_0015"  >
<polygon points="639,90 640,90 645,85 640,80 639,80 639,90 " style="fill:white; stroke-width:1; stroke:black; " description="&lt;b&gt;CYL20_RS18255&lt;/b&gt;&lt;br&gt;NAD(P) transhydrogenase subunit alpha&lt;br&gt;Location: 4043024 - 4042704" locus_tag="CYL20_RS18255" class="clusterblast-orf" id="dummy-1_h1_3_15"  />
</g>
<g id="a1_0016"  >
<polygon points="645,90 667,90 672,85 667,80 645,80 645,90 " style="fill:white; stroke-width:1; stroke:black; " description="&lt;b&gt;CYL20_RS18250&lt;/b&gt;&lt;br&gt;NAD(P)(+) transhydrogenase (Re/Si-specific) subunit beta&lt;br&gt;Location: 4042704 - 4041268" locus_tag="CYL20_RS18250" class="clusterblast-orf" id="dummy-1_h1_3_16"  />
</g>
<g id="a1_0017"  >
<polygon points="676,90 700,90 705,85 700,80 676,80 676,90 " style="fill:white; stroke-width:1; stroke:black; " description="&lt;b&gt;CYL20_RS18245&lt;/b&gt;&lt;br&gt;acetyl-CoA hydrolase/transferase family protein&lt;br&gt;Location: 4041087 - 4039594" locus_tag="CYL20_RS18245" class="clusterblast-orf" id="dummy-1_h1_3_17"  />
</g>
<g id="a1_0018"  >
<polygon points="711,90 715,85 711,80 711,90 " style="fill:white; stroke-width:1; stroke:black; " description="&lt;b&gt;CYL20_RS18240&lt;/b&gt;&lt;br&gt;DUF1127 domain-containing protein&lt;br&gt;Location: 4039275 - 4039060" locus_tag="CYL20_RS18240" class="clusterblast-orf" id="dummy-1_h1_3_18"  />
</g>
<g id="a1_0019"  >
<polygon points="721,90 722,90 727,85 722,80 721,80 721,90 " style="fill:white; stroke-width:1; stroke:black; " description="&lt;b&gt;CYL20_RS18235&lt;/b&gt;&lt;br&gt;DUF2388 domain-containing protein&lt;br&gt;Location: 4038730 - 4038410" locus_tag="CYL20_RS18235" class="clusterblast-orf" id="dummy-1_h1_3_19"  />
</g>
<g id="a1_0020"  >
<polygon points="729,90 730,90 735,85 730,80 729,80 729,90 " style="fill:white; stroke-width:1; stroke:black; " description="&lt;b&gt;CYL20_RS18230&lt;/b&gt;&lt;br&gt;DUF2388 domain-containing protein&lt;br&gt;Location: 4038304 - 4037996" locus_tag="CYL20_RS18230" class="clusterblast-orf" id="dummy-1_h1_3_20"  />
</g>
<g id="a1_0021"  >
<polygon points="736,90 737,90 742,85 737,80 736,80 736,90 " style="fill:white; stroke-width:1; stroke:black; " description="&lt;b&gt;CYL20_RS18225&lt;/b&gt;&lt;br&gt;DUF2388 domain-containing protein&lt;br&gt;Location: 4037969 - 4037649" locus_tag="CYL20_RS18225" class="clusterblast-orf" id="dummy-1_h1_3_21"  />
</g>
<g id="a1_0022"  >
<polygon points="742,90 775,90 780,85 775,80 742,80 742,90 " style="fill:white; stroke-width:1; stroke:black; " description="&lt;b&gt;CYL20_RS18220&lt;/b&gt;&lt;br&gt;DUF4105 domain-containing protein&lt;br&gt;Location: 4037652 - 4035691" locus_tag="CYL20_RS18220" class="clusterblast-orf" id="dummy-1_h1_3_22"  />
</g>
</svg>
