<svg xmlns="http://www.w3.org/2000/svg" xmlns:xlink="http://www.w3.org/1999/xlink" version="1.1" x="0" y="0" height="230" width="800" viewBox="0 0 800 230" preserveAspectRatio="none"  >
<g label="Query sequence" class="clusterblast-cluster"  >
<text x="5" y="20" class="clusterblast-acc"  >
Query sequence</text>
<line x1="10" y1="35" x2="778.0" y2="35" style="stroke-width:1; stroke:grey; "  />
<polygon points="0,40 4,40 9,35 4,30 0,30 0,40 " style="fill:#d81515; stroke-width:1; stroke:black; " description="&lt;b&gt;ctg7_96&lt;/b&gt;&lt;br&gt;ctg7 96&lt;br&gt;Location: 112734 - 113649" locus_tag="ctg7_96" class="clusterblast-orf" id="dummy-1_q0_0_all"  />
<polygon points="12,35 17,30 18,30 18,40 17,40 12,35 " style="fill:#65d815; stroke-width:1; stroke:black; " description="&lt;b&gt;ctg7_97&lt;/b&gt;&lt;br&gt;ctg7 97&lt;br&gt;Location: 113885 - 114551" locus_tag="ctg7_97" class="clusterblast-orf" id="dummy-1_q1_0_all"  />
<polygon points="18,35 23,30 53,30 53,40 23,40 18,35 " style="fill:#65d815; stroke-width:1; stroke:black; " description="&lt;b&gt;ctg7_98&lt;/b&gt;&lt;br&gt;ctg7 98&lt;br&gt;Location: 114525 - 117909" locus_tag="ctg7_98" class="clusterblast-orf" id="dummy-1_q2_0_all"  />
<polygon points="56,40 64,40 69,35 64,30 56,30 56,40 " style="fill:#15b6d8; stroke-width:1; stroke:black; " description="&lt;b&gt;ctg7_99&lt;/b&gt;&lt;br&gt;ctg7 99&lt;br&gt;Location: 118211 - 119420" locus_tag="ctg7_99" class="clusterblast-orf" id="dummy-1_q3_0_all"  />
<polygon points="71,40 75,40 80,35 75,30 71,30 71,40 " style="fill:#8815d8; stroke-width:1; stroke:black; " description="&lt;b&gt;ctg7_100&lt;/b&gt;&lt;br&gt;ctg7 100&lt;br&gt;Location: 119598 - 120516" locus_tag="ctg7_100" class="clusterblast-orf" id="dummy-1_q4_0_all"  />
<polygon points="80,40 87,40 92,35 87,30 80,30 80,40 " style="fill:#d83815; stroke-width:1; stroke:black; " description="&lt;b&gt;ctg7_101&lt;/b&gt;&lt;br&gt;ctg7 101&lt;br&gt;Location: 120526 - 121687" locus_tag="ctg7_101" class="clusterblast-orf" id="dummy-1_q5_0_all"  />
<polygon points="92,40 95,40 100,35 95,30 92,30 92,40 " style="fill:#43d815; stroke-width:1; stroke:black; " description="&lt;b&gt;ctg7_102&lt;/b&gt;&lt;br&gt;ctg7 102&lt;br&gt;Location: 121683 - 122442" locus_tag="ctg7_102" class="clusterblast-orf" id="dummy-1_q6_0_all"  />
<polygon points="100,40 102,40 107,35 102,30 100,30 100,40 " style="fill:#1593d8; stroke-width:1; stroke:black; " description="&lt;b&gt;ctg7_103&lt;/b&gt;&lt;br&gt;ctg7 103&lt;br&gt;Location: 122452 - 123142" locus_tag="ctg7_103" class="clusterblast-orf" id="dummy-1_q7_0_all"  />
<polygon points="110,40 117,40 122,35 117,30 110,30 110,40 " style="fill:#aa15d8; stroke-width:1; stroke:black; " description="&lt;b&gt;ctg7_104&lt;/b&gt;&lt;br&gt;ctg7 104&lt;br&gt;Location: 123360 - 124590" locus_tag="ctg7_104" class="clusterblast-orf" id="dummy-1_q8_0_all"  />
<polygon points="122,40 126,35 122,30 122,40 " style="fill:#d85a15; stroke-width:1; stroke:black; " description="&lt;b&gt;ctg7_105&lt;/b&gt;&lt;br&gt;ctg7 105&lt;br&gt;Location: 124592 - 124940" locus_tag="ctg7_105" class="clusterblast-orf" id="dummy-1_q9_0_all"  />
<polygon points="126,40 132,40 137,35 132,30 126,30 126,40 " style="fill:#21d815; stroke-width:1; stroke:black; " description="&lt;b&gt;ctg7_106&lt;/b&gt;&lt;br&gt;ctg7 106&lt;br&gt;Location: 124955 - 125999" locus_tag="ctg7_106" class="clusterblast-orf" id="dummy-1_q10_0_all"  />
<polygon points="137,40 142,40 147,35 142,30 137,30 137,40 " style="fill:#1571d8; stroke-width:1; stroke:black; " description="&lt;b&gt;ctg7_107&lt;/b&gt;&lt;br&gt;ctg7 107&lt;br&gt;Location: 126002 - 126959" locus_tag="ctg7_107" class="clusterblast-orf" id="dummy-1_q11_0_all"  />
<polygon points="147,40 148,40 153,35 148,30 147,30 147,40 " style="fill:#cd15d8; stroke-width:1; stroke:black; " description="&lt;b&gt;ctg7_108&lt;/b&gt;&lt;br&gt;ctg7 108&lt;br&gt;Location: 127026 - 127599" locus_tag="ctg7_108" class="clusterblast-orf" id="dummy-1_q12_0_all"  />
<polygon points="154,40 163,40 168,35 163,30 154,30 154,40 " style="fill:#d87c15; stroke-width:1; stroke:black; " description="&lt;b&gt;ctg7_109&lt;/b&gt;&lt;br&gt;ctg7 109&lt;br&gt;Location: 127624 - 128980" locus_tag="ctg7_109" class="clusterblast-orf" id="dummy-1_q13_0_all"  />
<polygon points="167,35 172,30 174,30 174,40 172,40 167,35 " style="fill:#15d82c; stroke-width:1; stroke:black; " description="&lt;b&gt;ctg7_110&lt;/b&gt;&lt;br&gt;ctg7 110&lt;br&gt;Location: 128963 - 129557" locus_tag="ctg7_110" class="clusterblast-orf" id="dummy-1_q14_0_all"  />
<polygon points="175,40 182,40 187,35 182,30 175,30 175,40 " style="fill:#154fd8; stroke-width:1; stroke:black; " description="&lt;b&gt;ctg7_111&lt;/b&gt;&lt;br&gt;ctg7 111&lt;br&gt;Location: 129699 - 130890" locus_tag="ctg7_111" class="clusterblast-orf" id="dummy-1_q15_0_all"  />
<polygon points="187,35 191,30 191,40 187,35 " style="fill:#d815c1; stroke-width:1; stroke:black; " description="&lt;b&gt;ctg7_112&lt;/b&gt;&lt;br&gt;ctg7 112&lt;br&gt;Location: 130872 - 131238" locus_tag="ctg7_112" class="clusterblast-orf" id="dummy-1_q16_0_all"  />
<polygon points="191,35 194,30 194,40 191,35 " style="fill:#d89f15; stroke-width:1; stroke:black; " description="&lt;b&gt;ctg7_113&lt;/b&gt;&lt;br&gt;ctg7 113&lt;br&gt;Location: 131234 - 131486" locus_tag="ctg7_113" class="clusterblast-orf" id="dummy-1_q17_0_all"  />
<polygon points="196,40 336,40 341,35 336,30 196,30 196,40 " style="fill:#15d84f; stroke-width:1; stroke:black; " description="&lt;b&gt;ctg7_114&lt;/b&gt;&lt;br&gt;ctg7 114&lt;br&gt;Location: 131695 - 145750" locus_tag="ctg7_114" class="clusterblast-orf" id="dummy-1_q18_0_all"  />
<polygon points="341,40 459,40 464,35 459,30 341,30 341,40 " style="fill:#15d84f; stroke-width:1; stroke:black; " description="&lt;b&gt;ctg7_115&lt;/b&gt;&lt;br&gt;ctg7 115&lt;br&gt;Location: 145753 - 157606" locus_tag="ctg7_115" class="clusterblast-orf" id="dummy-1_q19_0_all"  />
<polygon points="465,35 470,30 491,30 491,40 470,40 465,35 " style="fill:#152cd8; stroke-width:1; stroke:black; " description="&lt;b&gt;ctg7_116&lt;/b&gt;&lt;br&gt;ctg7 116&lt;br&gt;Location: 157750 - 160192" locus_tag="ctg7_116" class="clusterblast-orf" id="dummy-1_q20_0_all"  />
<polygon points="492,35 497,30 509,30 509,40 497,40 492,35 " style="fill:#d8159f; stroke-width:1; stroke:black; " description="&lt;b&gt;ctg7_117&lt;/b&gt;&lt;br&gt;ctg7 117&lt;br&gt;Location: 160301 - 161954" locus_tag="ctg7_117" class="clusterblast-orf" id="dummy-1_q21_0_all"  />
<polygon points="511,40 514,40 519,35 514,30 511,30 511,40 " style="fill:#d8c115; stroke-width:1; stroke:black; " description="&lt;b&gt;ctg7_118&lt;/b&gt;&lt;br&gt;ctg7 118&lt;br&gt;Location: 162152 - 162980" locus_tag="ctg7_118" class="clusterblast-orf" id="dummy-1_q22_0_all"  />
<polygon points="521,35 526,30 530,30 530,40 526,40 521,35 " style="fill:#15d871; stroke-width:1; stroke:black; " description="&lt;b&gt;ctg7_119&lt;/b&gt;&lt;br&gt;ctg7 119&lt;br&gt;Location: 163122 - 163995" locus_tag="ctg7_119" class="clusterblast-orf" id="dummy-1_q23_0_all"  />
<polygon points="530,35 535,30 543,30 543,40 535,40 530,35 " style="fill:#2115d8; stroke-width:1; stroke:black; " description="&lt;b&gt;ctg7_120&lt;/b&gt;&lt;br&gt;ctg7 120&lt;br&gt;Location: 164028 - 165309" locus_tag="ctg7_120" class="clusterblast-orf" id="dummy-1_q24_0_all"  />
<polygon points="544,35 549,30 558,30 558,40 549,40 544,35 " style="fill:#d8157c; stroke-width:1; stroke:black; " description="&lt;b&gt;ctg7_121&lt;/b&gt;&lt;br&gt;ctg7 121&lt;br&gt;Location: 165327 - 166677" locus_tag="ctg7_121" class="clusterblast-orf" id="dummy-1_q25_0_all"  />
<polygon points="559,40 571,40 576,35 571,30 559,30 559,40 " style="fill:#cdd815; stroke-width:1; stroke:black; " description="&lt;b&gt;ctg7_122&lt;/b&gt;&lt;br&gt;ctg7 122&lt;br&gt;Location: 166819 - 168439" locus_tag="ctg7_122" class="clusterblast-orf" id="dummy-1_q26_0_all"  />
<polygon points="576,35 581,30 586,30 586,40 581,40 576,35 " style="fill:#15d893; stroke-width:1; stroke:black; " description="&lt;b&gt;ctg7_123&lt;/b&gt;&lt;br&gt;ctg7 123&lt;br&gt;Location: 168431 - 169379" locus_tag="ctg7_123" class="clusterblast-orf" id="dummy-1_q27_0_all"  />
<polygon points="587,40 591,40 596,35 591,30 587,30 587,40 " style="fill:#4315d8; stroke-width:1; stroke:black; " description="&lt;b&gt;ctg7_124&lt;/b&gt;&lt;br&gt;ctg7 124&lt;br&gt;Location: 169522 - 170413" locus_tag="ctg7_124" class="clusterblast-orf" id="dummy-1_q28_0_all"  />
<polygon points="596,40 601,40 606,35 601,30 596,30 596,40 " style="fill:#d8155a; stroke-width:1; stroke:black; " description="&lt;b&gt;ctg7_125&lt;/b&gt;&lt;br&gt;ctg7 125&lt;br&gt;Location: 170412 - 171384" locus_tag="ctg7_125" class="clusterblast-orf" id="dummy-1_q29_0_all"  />
<polygon points="606,40 610,40 615,35 610,30 606,30 606,40 " style="fill:#aad815; stroke-width:1; stroke:black; " description="&lt;b&gt;ctg7_126&lt;/b&gt;&lt;br&gt;ctg7 126&lt;br&gt;Location: 171380 - 172250" locus_tag="ctg7_126" class="clusterblast-orf" id="dummy-1_q30_0_all"  />
<polygon points="615,40 618,35 615,30 615,40 " style="fill:#15d8b6; stroke-width:1; stroke:black; " description="&lt;b&gt;ctg7_127&lt;/b&gt;&lt;br&gt;ctg7 127&lt;br&gt;Location: 172264 - 172525" locus_tag="ctg7_127" class="clusterblast-orf" id="dummy-1_q31_0_all"  />
<polygon points="618,40 622,40 627,35 622,30 618,30 618,40 " style="fill:#6615d8; stroke-width:1; stroke:black; " description="&lt;b&gt;ctg7_128&lt;/b&gt;&lt;br&gt;ctg7 128&lt;br&gt;Location: 172521 - 173352" locus_tag="ctg7_128" class="clusterblast-orf" id="dummy-1_q32_0_all"  />
<polygon points="627,40 649,40 654,35 649,30 627,30 627,40 " style="fill:#d81538; stroke-width:1; stroke:black; " description="&lt;b&gt;ctg7_129&lt;/b&gt;&lt;br&gt;ctg7 129&lt;br&gt;Location: 173365 - 176023" locus_tag="ctg7_129" class="clusterblast-orf" id="dummy-1_q33_0_all"  />
<polygon points="658,40 661,40 666,35 661,30 658,30 658,40 " style="fill:#88d815; stroke-width:1; stroke:black; " description="&lt;b&gt;ctg7_130&lt;/b&gt;&lt;br&gt;ctg7 130&lt;br&gt;Location: 176424 - 177141" locus_tag="ctg7_130" class="clusterblast-orf" id="dummy-1_q34_0_all"  />
<polygon points="666,40 670,35 666,30 666,40 " style="fill:#15d8d8; stroke-width:1; stroke:black; " description="&lt;b&gt;ctg7_131&lt;/b&gt;&lt;br&gt;ctg7 131&lt;br&gt;Location: 177193 - 177529" locus_tag="ctg7_131" class="clusterblast-orf" id="dummy-1_q35_0_all"  />
<polygon points="670,40 676,40 681,35 676,30 670,30 670,40 " style="fill:white; stroke-width:1; stroke:black; " description="&lt;b&gt;ctg7_132&lt;/b&gt;&lt;br&gt;ctg7 132&lt;br&gt;Location: 177544 - 178651" locus_tag="ctg7_132" class="clusterblast-orf" id="dummy-1_q36_0_all"  />
<polygon points="683,40 683,40 688,35 683,30 683,30 683,40 " style="fill:white; stroke-width:1; stroke:black; " description="&lt;b&gt;ctg7_133&lt;/b&gt;&lt;br&gt;ctg7 133&lt;br&gt;Location: 178813 - 179305" locus_tag="ctg7_133" class="clusterblast-orf" id="dummy-1_q37_0_all"  />
<polygon points="689,35 692,30 692,40 689,35 " style="fill:white; stroke-width:1; stroke:black; " description="&lt;b&gt;ctg7_134&lt;/b&gt;&lt;br&gt;ctg7 134&lt;br&gt;Location: 179406 - 179628" locus_tag="ctg7_134" class="clusterblast-orf" id="dummy-1_q38_0_all"  />
<polygon points="693,35 698,30 716,30 716,40 698,40 693,35 " style="fill:#152cd8; stroke-width:1; stroke:black; " description="&lt;b&gt;ctg7_135&lt;/b&gt;&lt;br&gt;ctg7 135&lt;br&gt;Location: 179769 - 181998" locus_tag="ctg7_135" class="clusterblast-orf" id="dummy-1_q39_0_all"  />
<polygon points="717,35 722,30 736,30 736,40 722,40 717,35 " style="fill:white; stroke-width:1; stroke:black; " description="&lt;b&gt;ctg7_136&lt;/b&gt;&lt;br&gt;ctg7 136&lt;br&gt;Location: 182124 - 183933" locus_tag="ctg7_136" class="clusterblast-orf" id="dummy-1_q40_0_all"  />
<polygon points="737,35 739,30 739,40 737,35 " style="fill:white; stroke-width:1; stroke:black; " description="&lt;b&gt;ctg7_137&lt;/b&gt;&lt;br&gt;ctg7 137&lt;br&gt;Location: 184031 - 184208" locus_tag="ctg7_137" class="clusterblast-orf" id="dummy-1_q41_0_all"  />
<polygon points="742,40 747,40 752,35 747,30 742,30 742,40 " style="fill:white; stroke-width:1; stroke:black; " description="&lt;b&gt;ctg7_138&lt;/b&gt;&lt;br&gt;ctg7 138&lt;br&gt;Location: 184477 - 185461" locus_tag="ctg7_138" class="clusterblast-orf" id="dummy-1_q42_0_all"  />
<polygon points="752,40 763,40 768,35 763,30 752,30 752,40 " style="fill:white; stroke-width:1; stroke:black; " description="&lt;b&gt;ctg7_139&lt;/b&gt;&lt;br&gt;ctg7 139&lt;br&gt;Location: 185457 - 186981" locus_tag="ctg7_139" class="clusterblast-orf" id="dummy-1_q43_0_all"  />
<polygon points="768,40 771,40 776,35 771,30 768,30 768,40 " style="fill:white; stroke-width:1; stroke:black; " description="&lt;b&gt;ctg7_140&lt;/b&gt;&lt;br&gt;ctg7 140&lt;br&gt;Location: 186977 - 187802" locus_tag="ctg7_140" class="clusterblast-orf" id="dummy-1_q44_0_all"  />
<polygon points="777,35 780,30 780,40 777,35 " style="fill:white; stroke-width:1; stroke:black; " description="&lt;b&gt;ctg7_141&lt;/b&gt;&lt;br&gt;ctg7 141&lt;br&gt;Location: 187877 - 188138" locus_tag="ctg7_141" class="clusterblast-orf" id="dummy-1_q45_0_all"  />
</g>
<g label="NZ_PYAQ01000012" description="NZ_PYAQ01000012 (137100-203005): Pseudomonas sp. R9.37 NODE 12 length 237118 ... (100% of genes show similarity), NRPS" class="clusterblast-cluster"  >
<text x="5" y="70" class="clusterblast-acc"  >
<a xlink:href="https://antismash-db.secondarymetabolites.org/area.html?record=NZ_PYAQ01000012&amp;start=137100&amp;end=203005" target="_blank">NZ_PYAQ01000012 (137100-203005)</a>: Pseudomonas sp. R9.37 NODE 12 length 237118 ... (100% of genes show similarity), NRPS</text>
<line x1="10" y1="85" x2="778.0" y2="85" style="stroke-width:1; stroke:grey; "  />
</g>
<g id="a1_000"  >
<polygon points="61,85 66,80 68,80 68,90 66,90 61,85 " style="fill:#65d815; stroke-width:1; stroke:black; " description="&lt;b&gt;C7U57_RS24485&lt;/b&gt;&lt;br&gt;response regulator&lt;br&gt;Location: 139284 - 139949&lt;br&gt;&lt;br&gt;&lt;b&gt;BlastP hit with ctg7_97&lt;/b&gt;&lt;br&gt;Percentage identity: 99&lt;br&gt;Percentage coverage: 100&lt;br&gt;BLAST bit score: 417&lt;br&gt;E-value: 1.06e-148&lt;br&gt;&lt;br&gt;&lt;b&gt;BlastP hit with ctg7_98&lt;/b&gt;&lt;br&gt;Percentage identity: 36&lt;br&gt;Percentage coverage: 13&lt;br&gt;BLAST bit score: 77&lt;br&gt;E-value: 1.06e-13" locus_tag="C7U57_RS24485" class="clusterblast-orf" id="dummy-1_h1_6_0"  />
</g>
<g id="a1_001"  >
<polygon points="67,85 72,80 102,80 102,90 72,90 67,85 " style="fill:#65d815; stroke-width:1; stroke:black; " description="&lt;b&gt;C7U57_RS24490&lt;/b&gt;&lt;br&gt;response regulator&lt;br&gt;Location: 139924 - 143307&lt;br&gt;&lt;br&gt;&lt;b&gt;BlastP hit with ctg7_97&lt;/b&gt;&lt;br&gt;Percentage identity: 36&lt;br&gt;Percentage coverage: 68&lt;br&gt;BLAST bit score: 74&lt;br&gt;E-value: 2.37e-13&lt;br&gt;&lt;br&gt;&lt;b&gt;BlastP hit with ctg7_98&lt;/b&gt;&lt;br&gt;Percentage identity: 97&lt;br&gt;Percentage coverage: 100&lt;br&gt;BLAST bit score: 2135&lt;br&gt;E-value: 0.0" locus_tag="C7U57_RS24490" class="clusterblast-orf" id="dummy-1_h1_6_1"  />
</g>
<g id="a1_002"  >
<polygon points="106,90 113,90 118,85 113,80 106,80 106,90 " style="fill:#15b6d8; stroke-width:1; stroke:black; " description="&lt;b&gt;C7U57_RS24495&lt;/b&gt;&lt;br&gt;urea ABC transporter substrate-binding protein&lt;br&gt;Location: 143619 - 144827&lt;br&gt;&lt;br&gt;&lt;b&gt;BlastP hit with ctg7_99&lt;/b&gt;&lt;br&gt;Percentage identity: 99&lt;br&gt;Percentage coverage: 100&lt;br&gt;BLAST bit score: 792&lt;br&gt;E-value: 6.33e-291" locus_tag="C7U57_RS24495" class="clusterblast-orf" id="dummy-1_h1_6_2"  />
</g>
<g id="a1_003"  >
<polygon points="120,90 124,90 129,85 124,80 120,80 120,90 " style="fill:#8815d8; stroke-width:1; stroke:black; " description="&lt;b&gt;C7U57_RS24500&lt;/b&gt;&lt;br&gt;urea ABC transporter permease subunit UrtB&lt;br&gt;Location: 144995 - 145912&lt;br&gt;&lt;br&gt;&lt;b&gt;BlastP hit with ctg7_100&lt;/b&gt;&lt;br&gt;Percentage identity: 99&lt;br&gt;Percentage coverage: 100&lt;br&gt;BLAST bit score: 570&lt;br&gt;E-value: 1.46e-206" locus_tag="C7U57_RS24500" class="clusterblast-orf" id="dummy-1_h1_6_3"  />
</g>
<g id="a1_004"  >
<polygon points="130,90 137,90 142,85 137,80 130,80 130,90 " style="fill:#d83815; stroke-width:1; stroke:black; " description="&lt;b&gt;C7U57_RS24505&lt;/b&gt;&lt;br&gt;urea ABC transporter permease subunit UrtC&lt;br&gt;Location: 145923 - 147086&lt;br&gt;&lt;br&gt;&lt;b&gt;BlastP hit with ctg7_101&lt;/b&gt;&lt;br&gt;Percentage identity: 96&lt;br&gt;Percentage coverage: 100&lt;br&gt;BLAST bit score: 711&lt;br&gt;E-value: 1.91e-259" locus_tag="C7U57_RS24505" class="clusterblast-orf" id="dummy-1_h1_6_4"  />
</g>
<g id="a1_005"  >
<polygon points="142,90 144,90 149,85 144,80 142,80 142,90 " style="fill:#43d815; stroke-width:1; stroke:black; " description="&lt;b&gt;C7U57_RS24510&lt;/b&gt;&lt;br&gt;urea ABC transporter ATP-binding protein UrtD&lt;br&gt;Location: 147083 - 147841&lt;br&gt;&lt;br&gt;&lt;b&gt;BlastP hit with ctg7_102&lt;/b&gt;&lt;br&gt;Percentage identity: 98&lt;br&gt;Percentage coverage: 100&lt;br&gt;BLAST bit score: 488&lt;br&gt;E-value: 1.45e-175" locus_tag="C7U57_RS24510" class="clusterblast-orf" id="dummy-1_h1_6_5"  />
</g>
<g id="a1_006"  >
<polygon points="149,90 152,90 157,85 152,80 149,80 149,90 " style="fill:#1593d8; stroke-width:1; stroke:black; " description="&lt;b&gt;C7U57_RS24515&lt;/b&gt;&lt;br&gt;urea ABC transporter ATP-binding subunit UrtE&lt;br&gt;Location: 147852 - 148541&lt;br&gt;&lt;br&gt;&lt;b&gt;BlastP hit with ctg7_103&lt;/b&gt;&lt;br&gt;Percentage identity: 98&lt;br&gt;Percentage coverage: 100&lt;br&gt;BLAST bit score: 434&lt;br&gt;E-value: 2.69e-155" locus_tag="C7U57_RS24515" class="clusterblast-orf" id="dummy-1_h1_6_6"  />
</g>
<g id="a1_007"  >
<polygon points="159,90 167,90 172,85 167,80 159,80 159,90 " style="fill:#aa15d8; stroke-width:1; stroke:black; " description="&lt;b&gt;C7U57_RS24525&lt;/b&gt;&lt;br&gt;acetamidase/formamidase family protein&lt;br&gt;Location: 148761 - 149990&lt;br&gt;&lt;br&gt;&lt;b&gt;BlastP hit with ctg7_104&lt;/b&gt;&lt;br&gt;Percentage identity: 100&lt;br&gt;Percentage coverage: 100&lt;br&gt;BLAST bit score: 857&lt;br&gt;E-value: 2.68e-316" locus_tag="C7U57_RS24525" class="clusterblast-orf" id="dummy-1_h1_6_7"  />
</g>
<g id="a1_008"  >
<polygon points="172,90 175,85 172,80 172,90 " style="fill:#d85a15; stroke-width:1; stroke:black; " description="&lt;b&gt;C7U57_RS24530&lt;/b&gt;&lt;br&gt;FmdB family transcriptional regulator&lt;br&gt;Location: 149993 - 150340&lt;br&gt;&lt;br&gt;&lt;b&gt;BlastP hit with ctg7_105&lt;/b&gt;&lt;br&gt;Percentage identity: 95&lt;br&gt;Percentage coverage: 100&lt;br&gt;BLAST bit score: 239&lt;br&gt;E-value: 9.95e-82" locus_tag="C7U57_RS24530" class="clusterblast-orf" id="dummy-1_h1_6_8"  />
</g>
<g id="a1_009"  >
<polygon points="175,90 181,90 186,85 181,80 175,80 175,90 " style="fill:#21d815; stroke-width:1; stroke:black; " description="&lt;b&gt;C7U57_RS24535&lt;/b&gt;&lt;br&gt;aliphatic amidase&lt;br&gt;Location: 150356 - 151399&lt;br&gt;&lt;br&gt;&lt;b&gt;BlastP hit with ctg7_106&lt;/b&gt;&lt;br&gt;Percentage identity: 99&lt;br&gt;Percentage coverage: 99&lt;br&gt;BLAST bit score: 721&lt;br&gt;E-value: 9.55e-265" locus_tag="C7U57_RS24535" class="clusterblast-orf" id="dummy-1_h1_6_9"  />
</g>
<g id="a1_0010"  >
<polygon points="186,90 191,90 196,85 191,80 186,80 186,90 " style="fill:#1571d8; stroke-width:1; stroke:black; " description="&lt;b&gt;C7U57_RS24540&lt;/b&gt;&lt;br&gt;ATP-dependent Clp protease ATP-binding subunit&lt;br&gt;Location: 151403 - 152359&lt;br&gt;&lt;br&gt;&lt;b&gt;BlastP hit with ctg7_107&lt;/b&gt;&lt;br&gt;Percentage identity: 92&lt;br&gt;Percentage coverage: 100&lt;br&gt;BLAST bit score: 571&lt;br&gt;E-value: 1.97e-206" locus_tag="C7U57_RS24540" class="clusterblast-orf" id="dummy-1_h1_6_10"  />
</g>
<g id="a1_0011"  >
<polygon points="197,90 198,90 203,85 198,80 197,80 197,90 " style="fill:#cd15d8; stroke-width:1; stroke:black; " description="&lt;b&gt;C7U57_RS24545&lt;/b&gt;&lt;br&gt;DUF2239 family protein&lt;br&gt;Location: 152427 - 152999&lt;br&gt;&lt;br&gt;&lt;b&gt;BlastP hit with ctg7_108&lt;/b&gt;&lt;br&gt;Percentage identity: 78&lt;br&gt;Percentage coverage: 100&lt;br&gt;BLAST bit score: 303&lt;br&gt;E-value: 1.31e-104" locus_tag="C7U57_RS24545" class="clusterblast-orf" id="dummy-1_h1_6_11"  />
</g>
<g id="a1_0012"  >
<polygon points="203,90 212,90 217,85 212,80 203,80 203,90 " style="fill:#d87c15; stroke-width:1; stroke:black; " description="&lt;b&gt;C7U57_RS24550&lt;/b&gt;&lt;br&gt;MATE family efflux transporter&lt;br&gt;Location: 153025 - 154380&lt;br&gt;&lt;br&gt;&lt;b&gt;BlastP hit with ctg7_109&lt;/b&gt;&lt;br&gt;Percentage identity: 97&lt;br&gt;Percentage coverage: 100&lt;br&gt;BLAST bit score: 798&lt;br&gt;E-value: 1.05e-291" locus_tag="C7U57_RS24550" class="clusterblast-orf" id="dummy-1_h1_6_12"  />
</g>
<g id="a1_0013"  >
<polygon points="217,85 222,80 223,80 223,90 222,90 217,85 " style="fill:#15d82c; stroke-width:1; stroke:black; " description="&lt;b&gt;C7U57_RS24555&lt;/b&gt;&lt;br&gt;TetR/AcrR family transcriptional regulator&lt;br&gt;Location: 154364 - 154963&lt;br&gt;&lt;br&gt;&lt;b&gt;BlastP hit with ctg7_110&lt;/b&gt;&lt;br&gt;Percentage identity: 84&lt;br&gt;Percentage coverage: 101&lt;br&gt;BLAST bit score: 317&lt;br&gt;E-value: 1.11e-109" locus_tag="C7U57_RS24555" class="clusterblast-orf" id="dummy-1_h1_6_13"  />
</g>
<g id="a1_0014"  >
<polygon points="225,90 232,90 237,85 232,80 225,80 225,90 " style="fill:#154fd8; stroke-width:1; stroke:black; " description="&lt;b&gt;C7U57_RS24560&lt;/b&gt;&lt;br&gt;MFS transporter&lt;br&gt;Location: 155105 - 156276&lt;br&gt;&lt;br&gt;&lt;b&gt;BlastP hit with ctg7_111&lt;/b&gt;&lt;br&gt;Percentage identity: 92&lt;br&gt;Percentage coverage: 93&lt;br&gt;BLAST bit score: 636&lt;br&gt;E-value: 1.61e-229" locus_tag="C7U57_RS24560" class="clusterblast-orf" id="dummy-1_h1_6_14"  />
</g>
<g id="a1_0015"  >
<polygon points="237,85 240,80 240,90 237,85 " style="fill:#d815c1; stroke-width:1; stroke:black; " description="&lt;b&gt;C7U57_RS24565&lt;/b&gt;&lt;br&gt;type II toxin-antitoxin system HicB family antitoxin&lt;br&gt;Location: 156277 - 156642&lt;br&gt;&lt;br&gt;&lt;b&gt;BlastP hit with ctg7_112&lt;/b&gt;&lt;br&gt;Percentage identity: 90&lt;br&gt;Percentage coverage: 100&lt;br&gt;BLAST bit score: 229&lt;br&gt;E-value: 1.01e-77" locus_tag="C7U57_RS24565" class="clusterblast-orf" id="dummy-1_h1_6_15"  />
</g>
<g id="a1_0016"  >
<polygon points="240,85 243,80 243,90 240,85 " style="fill:#d89f15; stroke-width:1; stroke:black; " description="&lt;b&gt;C7U57_RS24570&lt;/b&gt;&lt;br&gt;type II toxin-antitoxin system HicA family toxin&lt;br&gt;Location: 156639 - 156890&lt;br&gt;&lt;br&gt;&lt;b&gt;BlastP hit with ctg7_113&lt;/b&gt;&lt;br&gt;Percentage identity: 93&lt;br&gt;Percentage coverage: 100&lt;br&gt;BLAST bit score: 157&lt;br&gt;E-value: 3.05e-50" locus_tag="C7U57_RS24570" class="clusterblast-orf" id="dummy-1_h1_6_16"  />
</g>
<g id="a1_0017"  >
<polygon points="245,90 385,90 390,85 385,80 245,80 245,90 " style="fill:#15d84f; stroke-width:1; stroke:black; " description="&lt;b&gt;C7U57_RS24575&lt;/b&gt;&lt;br&gt;non-ribosomal peptide synthetase&lt;br&gt;Location: 157101 - 171149&lt;br&gt;&lt;br&gt;&lt;b&gt;BlastP hit with ctg7_114&lt;/b&gt;&lt;br&gt;Percentage identity: 90&lt;br&gt;Percentage coverage: 100&lt;br&gt;BLAST bit score: 8386&lt;br&gt;E-value: 0.0&lt;br&gt;&lt;br&gt;&lt;b&gt;BlastP hit with ctg7_115&lt;/b&gt;&lt;br&gt;Percentage identity: 67&lt;br&gt;Percentage coverage: 53&lt;br&gt;BLAST bit score: 2677&lt;br&gt;E-value: 0.0" locus_tag="C7U57_RS24575" class="clusterblast-orf" id="dummy-1_h1_6_17"  />
</g>
<g id="a1_0018"  >
<polygon points="391,90 508,90 513,85 508,80 391,80 391,90 " style="fill:#15d84f; stroke-width:1; stroke:black; " description="&lt;b&gt;C7U57_RS24580&lt;/b&gt;&lt;br&gt;non-ribosomal peptide synthetase&lt;br&gt;Location: 171153 - 183005&lt;br&gt;&lt;br&gt;&lt;b&gt;BlastP hit with ctg7_114&lt;/b&gt;&lt;br&gt;Percentage identity: 68&lt;br&gt;Percentage coverage: 45&lt;br&gt;BLAST bit score: 2709&lt;br&gt;E-value: 0.0&lt;br&gt;&lt;br&gt;&lt;b&gt;BlastP hit with ctg7_115&lt;/b&gt;&lt;br&gt;Percentage identity: 93&lt;br&gt;Percentage coverage: 100&lt;br&gt;BLAST bit score: 7256&lt;br&gt;E-value: 0.0" locus_tag="C7U57_RS24580" class="clusterblast-orf" id="dummy-1_h1_6_18"  />
</g>
<g id="a1_0019"  >
<polygon points="516,85 521,80 541,80 541,90 521,90 516,85 " style="fill:#152cd8; stroke-width:1; stroke:black; " description="&lt;b&gt;C7U57_RS24585&lt;/b&gt;&lt;br&gt;TonB-dependent siderophore receptor&lt;br&gt;Location: 183275 - 185716&lt;br&gt;&lt;br&gt;&lt;b&gt;BlastP hit with ctg7_116&lt;/b&gt;&lt;br&gt;Percentage identity: 94&lt;br&gt;Percentage coverage: 100&lt;br&gt;BLAST bit score: 1563&lt;br&gt;E-value: 0.0&lt;br&gt;&lt;br&gt;&lt;b&gt;BlastP hit with ctg7_135&lt;/b&gt;&lt;br&gt;Percentage identity: 39&lt;br&gt;Percentage coverage: 97&lt;br&gt;BLAST bit score: 490&lt;br&gt;E-value: 9.93e-161" locus_tag="C7U57_RS24585" class="clusterblast-orf" id="dummy-1_h1_6_19"  />
</g>
<g id="a1_0020"  >
<polygon points="542,85 547,80 559,80 559,90 547,90 542,85 " style="fill:#d8159f; stroke-width:1; stroke:black; " description="&lt;b&gt;C7U57_RS24590&lt;/b&gt;&lt;br&gt;cyclic peptide export ABC transporter&lt;br&gt;Location: 185826 - 187478&lt;br&gt;&lt;br&gt;&lt;b&gt;BlastP hit with ctg7_117&lt;/b&gt;&lt;br&gt;Percentage identity: 99&lt;br&gt;Percentage coverage: 100&lt;br&gt;BLAST bit score: 1043&lt;br&gt;E-value: 0.0" locus_tag="C7U57_RS24590" class="clusterblast-orf" id="dummy-1_h1_6_20"  />
</g>
<g id="a1_0021"  >
<polygon points="561,90 565,90 570,85 565,80 561,80 561,90 " style="fill:#d8c115; stroke-width:1; stroke:black; " description="&lt;b&gt;C7U57_RS24595&lt;/b&gt;&lt;br&gt;N(5)-hydroxyornithine transformylase PvdF&lt;br&gt;Location: 187678 - 188505&lt;br&gt;&lt;br&gt;&lt;b&gt;BlastP hit with ctg7_118&lt;/b&gt;&lt;br&gt;Percentage identity: 98&lt;br&gt;Percentage coverage: 100&lt;br&gt;BLAST bit score: 553&lt;br&gt;E-value: 7.29e-201" locus_tag="C7U57_RS24595" class="clusterblast-orf" id="dummy-1_h1_6_21"  />
</g>
<g id="a1_0022"  >
<polygon points="585,85 590,80 594,80 594,90 590,90 585,85 " style="fill:#15d871; stroke-width:1; stroke:black; " description="&lt;b&gt;C7U57_RS24600&lt;/b&gt;&lt;br&gt;formylglycine-generating enzyme family protein&lt;br&gt;Location: 189929 - 190801&lt;br&gt;&lt;br&gt;&lt;b&gt;BlastP hit with ctg7_119&lt;/b&gt;&lt;br&gt;Percentage identity: 94&lt;br&gt;Percentage coverage: 100&lt;br&gt;BLAST bit score: 582&lt;br&gt;E-value: 1.73e-211" locus_tag="C7U57_RS24600" class="clusterblast-orf" id="dummy-1_h1_6_22"  />
</g>
<g id="a1_0023"  >
<polygon points="594,85 599,80 607,80 607,90 599,90 594,85 " style="fill:#2115d8; stroke-width:1; stroke:black; " description="&lt;b&gt;C7U57_RS24605&lt;/b&gt;&lt;br&gt;aminotransferase class V-fold PLP-dependent enzyme&lt;br&gt;Location: 190831 - 192111&lt;br&gt;&lt;br&gt;&lt;b&gt;BlastP hit with ctg7_120&lt;/b&gt;&lt;br&gt;Percentage identity: 89&lt;br&gt;Percentage coverage: 100&lt;br&gt;BLAST bit score: 776&lt;br&gt;E-value: 1.03e-283" locus_tag="C7U57_RS24605" class="clusterblast-orf" id="dummy-1_h1_6_23"  />
</g>
<g id="a1_0024"  >
<polygon points="608,85 613,80 621,80 621,90 613,90 608,85 " style="fill:#d8157c; stroke-width:1; stroke:black; " description="&lt;b&gt;C7U57_RS24610&lt;/b&gt;&lt;br&gt;pyoverdine-tailoring dipeptidase-like protein PvdM&lt;br&gt;Location: 192130 - 193479&lt;br&gt;&lt;br&gt;&lt;b&gt;BlastP hit with ctg7_121&lt;/b&gt;&lt;br&gt;Percentage identity: 96&lt;br&gt;Percentage coverage: 100&lt;br&gt;BLAST bit score: 881&lt;br&gt;E-value: 0.0" locus_tag="C7U57_RS24610" class="clusterblast-orf" id="dummy-1_h1_6_24"  />
</g>
<g id="a1_0025"  >
<polygon points="623,90 635,90 640,85 635,80 623,80 623,90 " style="fill:#cdd815; stroke-width:1; stroke:black; " description="&lt;b&gt;C7U57_RS24615&lt;/b&gt;&lt;br&gt;PvdJ/PvdD/PvdP-like protein&lt;br&gt;Location: 193622 - 195241&lt;br&gt;&lt;br&gt;&lt;b&gt;BlastP hit with ctg7_122&lt;/b&gt;&lt;br&gt;Percentage identity: 94&lt;br&gt;Percentage coverage: 100&lt;br&gt;BLAST bit score: 1082&lt;br&gt;E-value: 0.0" locus_tag="C7U57_RS24615" class="clusterblast-orf" id="dummy-1_h1_6_25"  />
</g>
<g id="a1_0026"  >
<polygon points="640,85 645,80 649,80 649,90 645,90 640,85 " style="fill:#15d893; stroke-width:1; stroke:black; " description="&lt;b&gt;C7U57_RS24620&lt;/b&gt;&lt;br&gt;DUF1853 family protein&lt;br&gt;Location: 195234 - 196181&lt;br&gt;&lt;br&gt;&lt;b&gt;BlastP hit with ctg7_123&lt;/b&gt;&lt;br&gt;Percentage identity: 94&lt;br&gt;Percentage coverage: 100&lt;br&gt;BLAST bit score: 635&lt;br&gt;E-value: 1.11e-231" locus_tag="C7U57_RS24620" class="clusterblast-orf" id="dummy-1_h1_6_26"  />
</g>
<g id="a1_0027"  >
<polygon points="651,90 655,90 660,85 655,80 651,80 651,90 " style="fill:#4315d8; stroke-width:1; stroke:black; " description="&lt;b&gt;C7U57_RS24625&lt;/b&gt;&lt;br&gt;NAD(+) kinase&lt;br&gt;Location: 196326 - 197216&lt;br&gt;&lt;br&gt;&lt;b&gt;BlastP hit with ctg7_124&lt;/b&gt;&lt;br&gt;Percentage identity: 100&lt;br&gt;Percentage coverage: 100&lt;br&gt;BLAST bit score: 599&lt;br&gt;E-value: 3.81e-218" locus_tag="C7U57_RS24625" class="clusterblast-orf" id="dummy-1_h1_6_27"  />
</g>
<g id="a1_0028"  >
<polygon points="660,90 665,90 670,85 665,80 660,80 660,90 " style="fill:#d8155a; stroke-width:1; stroke:black; " description="&lt;b&gt;C7U57_RS24630&lt;/b&gt;&lt;br&gt;metallophosphoesterase&lt;br&gt;Location: 197213 - 198187&lt;br&gt;&lt;br&gt;&lt;b&gt;BlastP hit with ctg7_125&lt;/b&gt;&lt;br&gt;Percentage identity: 98&lt;br&gt;Percentage coverage: 100&lt;br&gt;BLAST bit score: 684&lt;br&gt;E-value: 9.32e-251" locus_tag="C7U57_RS24630" class="clusterblast-orf" id="dummy-1_h1_6_28"  />
</g>
<g id="a1_0029"  >
<polygon points="670,90 674,90 679,85 674,80 670,80 670,90 " style="fill:#aad815; stroke-width:1; stroke:black; " description="&lt;b&gt;C7U57_RS24635&lt;/b&gt;&lt;br&gt;rhomboid family intramembrane serine protease&lt;br&gt;Location: 198184 - 199053&lt;br&gt;&lt;br&gt;&lt;b&gt;BlastP hit with ctg7_126&lt;/b&gt;&lt;br&gt;Percentage identity: 94&lt;br&gt;Percentage coverage: 100&lt;br&gt;BLAST bit score: 550&lt;br&gt;E-value: 5.08e-199" locus_tag="C7U57_RS24635" class="clusterblast-orf" id="dummy-1_h1_6_29"  />
</g>
<g id="a1_0030"  >
<polygon points="679,90 682,85 679,80 679,90 " style="fill:#15d8b6; stroke-width:1; stroke:black; " description="&lt;b&gt;C7U57_RS24640&lt;/b&gt;&lt;br&gt;DUF1315 family protein&lt;br&gt;Location: 199068 - 199328&lt;br&gt;&lt;br&gt;&lt;b&gt;BlastP hit with ctg7_127&lt;/b&gt;&lt;br&gt;Percentage identity: 100&lt;br&gt;Percentage coverage: 100&lt;br&gt;BLAST bit score: 175&lt;br&gt;E-value: 3.62e-57" locus_tag="C7U57_RS24640" class="clusterblast-orf" id="dummy-1_h1_6_30"  />
</g>
<g id="a1_0031"  >
<polygon points="682,90 686,90 691,85 686,80 682,80 682,90 " style="fill:#6615d8; stroke-width:1; stroke:black; " description="&lt;b&gt;C7U57_RS24645&lt;/b&gt;&lt;br&gt;DUF2797 domain-containing protein&lt;br&gt;Location: 199325 - 200155&lt;br&gt;&lt;br&gt;&lt;b&gt;BlastP hit with ctg7_128&lt;/b&gt;&lt;br&gt;Percentage identity: 94&lt;br&gt;Percentage coverage: 100&lt;br&gt;BLAST bit score: 538&lt;br&gt;E-value: 1.4e-194" locus_tag="C7U57_RS24645" class="clusterblast-orf" id="dummy-1_h1_6_31"  />
</g>
<g id="a1_0032"  >
<polygon points="691,90 713,90 718,85 713,80 691,80 691,90 " style="fill:#d81538; stroke-width:1; stroke:black; " description="&lt;b&gt;C7U57_RS24650&lt;/b&gt;&lt;br&gt;aminopeptidase N&lt;br&gt;Location: 200169 - 202826&lt;br&gt;&lt;br&gt;&lt;b&gt;BlastP hit with ctg7_129&lt;/b&gt;&lt;br&gt;Percentage identity: 96&lt;br&gt;Percentage coverage: 100&lt;br&gt;BLAST bit score: 1699&lt;br&gt;E-value: 0.0" locus_tag="C7U57_RS24650" class="clusterblast-orf" id="dummy-1_h1_6_32"  />
</g>
</svg>
