<svg xmlns="http://www.w3.org/2000/svg" xmlns:xlink="http://www.w3.org/1999/xlink" version="1.1" x="0" y="0" height="230" width="800" viewBox="0 0 800 230" preserveAspectRatio="none"  >
<g label="Query sequence" class="clusterblast-cluster"  >
<text x="5" y="20" class="clusterblast-acc"  >
Query sequence</text>
<line x1="10" y1="35" x2="778.0" y2="35" style="stroke-width:1; stroke:grey; "  />
<polygon points="0,40 4,40 9,35 4,30 0,30 0,40 " style="fill:#d81515; stroke-width:1; stroke:black; " description="&lt;b&gt;ctg7_96&lt;/b&gt;&lt;br&gt;ctg7 96&lt;br&gt;Location: 112734 - 113649" locus_tag="ctg7_96" class="clusterblast-orf" id="dummy-1_q0_0_all"  />
<polygon points="12,35 17,30 18,30 18,40 17,40 12,35 " style="fill:#65d815; stroke-width:1; stroke:black; " description="&lt;b&gt;ctg7_97&lt;/b&gt;&lt;br&gt;ctg7 97&lt;br&gt;Location: 113885 - 114551" locus_tag="ctg7_97" class="clusterblast-orf" id="dummy-1_q1_0_all"  />
<polygon points="18,35 23,30 53,30 53,40 23,40 18,35 " style="fill:#65d815; stroke-width:1; stroke:black; " description="&lt;b&gt;ctg7_98&lt;/b&gt;&lt;br&gt;ctg7 98&lt;br&gt;Location: 114525 - 117909" locus_tag="ctg7_98" class="clusterblast-orf" id="dummy-1_q2_0_all"  />
<polygon points="56,40 64,40 69,35 64,30 56,30 56,40 " style="fill:#15b6d8; stroke-width:1; stroke:black; " description="&lt;b&gt;ctg7_99&lt;/b&gt;&lt;br&gt;ctg7 99&lt;br&gt;Location: 118211 - 119420" locus_tag="ctg7_99" class="clusterblast-orf" id="dummy-1_q3_0_all"  />
<polygon points="71,40 75,40 80,35 75,30 71,30 71,40 " style="fill:#8815d8; stroke-width:1; stroke:black; " description="&lt;b&gt;ctg7_100&lt;/b&gt;&lt;br&gt;ctg7 100&lt;br&gt;Location: 119598 - 120516" locus_tag="ctg7_100" class="clusterblast-orf" id="dummy-1_q4_0_all"  />
<polygon points="80,40 87,40 92,35 87,30 80,30 80,40 " style="fill:#d83815; stroke-width:1; stroke:black; " description="&lt;b&gt;ctg7_101&lt;/b&gt;&lt;br&gt;ctg7 101&lt;br&gt;Location: 120526 - 121687" locus_tag="ctg7_101" class="clusterblast-orf" id="dummy-1_q5_0_all"  />
<polygon points="92,40 95,40 100,35 95,30 92,30 92,40 " style="fill:#43d815; stroke-width:1; stroke:black; " description="&lt;b&gt;ctg7_102&lt;/b&gt;&lt;br&gt;ctg7 102&lt;br&gt;Location: 121683 - 122442" locus_tag="ctg7_102" class="clusterblast-orf" id="dummy-1_q6_0_all"  />
<polygon points="100,40 102,40 107,35 102,30 100,30 100,40 " style="fill:#1593d8; stroke-width:1; stroke:black; " description="&lt;b&gt;ctg7_103&lt;/b&gt;&lt;br&gt;ctg7 103&lt;br&gt;Location: 122452 - 123142" locus_tag="ctg7_103" class="clusterblast-orf" id="dummy-1_q7_0_all"  />
<polygon points="110,40 117,40 122,35 117,30 110,30 110,40 " style="fill:#aa15d8; stroke-width:1; stroke:black; " description="&lt;b&gt;ctg7_104&lt;/b&gt;&lt;br&gt;ctg7 104&lt;br&gt;Location: 123360 - 124590" locus_tag="ctg7_104" class="clusterblast-orf" id="dummy-1_q8_0_all"  />
<polygon points="122,40 126,35 122,30 122,40 " style="fill:#d85a15; stroke-width:1; stroke:black; " description="&lt;b&gt;ctg7_105&lt;/b&gt;&lt;br&gt;ctg7 105&lt;br&gt;Location: 124592 - 124940" locus_tag="ctg7_105" class="clusterblast-orf" id="dummy-1_q9_0_all"  />
<polygon points="126,40 132,40 137,35 132,30 126,30 126,40 " style="fill:#21d815; stroke-width:1; stroke:black; " description="&lt;b&gt;ctg7_106&lt;/b&gt;&lt;br&gt;ctg7 106&lt;br&gt;Location: 124955 - 125999" locus_tag="ctg7_106" class="clusterblast-orf" id="dummy-1_q10_0_all"  />
<polygon points="137,40 142,40 147,35 142,30 137,30 137,40 " style="fill:#1571d8; stroke-width:1; stroke:black; " description="&lt;b&gt;ctg7_107&lt;/b&gt;&lt;br&gt;ctg7 107&lt;br&gt;Location: 126002 - 126959" locus_tag="ctg7_107" class="clusterblast-orf" id="dummy-1_q11_0_all"  />
<polygon points="147,40 148,40 153,35 148,30 147,30 147,40 " style="fill:#cd15d8; stroke-width:1; stroke:black; " description="&lt;b&gt;ctg7_108&lt;/b&gt;&lt;br&gt;ctg7 108&lt;br&gt;Location: 127026 - 127599" locus_tag="ctg7_108" class="clusterblast-orf" id="dummy-1_q12_0_all"  />
<polygon points="154,40 163,40 168,35 163,30 154,30 154,40 " style="fill:#d87c15; stroke-width:1; stroke:black; " description="&lt;b&gt;ctg7_109&lt;/b&gt;&lt;br&gt;ctg7 109&lt;br&gt;Location: 127624 - 128980" locus_tag="ctg7_109" class="clusterblast-orf" id="dummy-1_q13_0_all"  />
<polygon points="167,35 172,30 174,30 174,40 172,40 167,35 " style="fill:#15d82c; stroke-width:1; stroke:black; " description="&lt;b&gt;ctg7_110&lt;/b&gt;&lt;br&gt;ctg7 110&lt;br&gt;Location: 128963 - 129557" locus_tag="ctg7_110" class="clusterblast-orf" id="dummy-1_q14_0_all"  />
<polygon points="175,40 182,40 187,35 182,30 175,30 175,40 " style="fill:#154fd8; stroke-width:1; stroke:black; " description="&lt;b&gt;ctg7_111&lt;/b&gt;&lt;br&gt;ctg7 111&lt;br&gt;Location: 129699 - 130890" locus_tag="ctg7_111" class="clusterblast-orf" id="dummy-1_q15_0_all"  />
<polygon points="187,35 191,30 191,40 187,35 " style="fill:#d815c1; stroke-width:1; stroke:black; " description="&lt;b&gt;ctg7_112&lt;/b&gt;&lt;br&gt;ctg7 112&lt;br&gt;Location: 130872 - 131238" locus_tag="ctg7_112" class="clusterblast-orf" id="dummy-1_q16_0_all"  />
<polygon points="191,35 194,30 194,40 191,35 " style="fill:#d89f15; stroke-width:1; stroke:black; " description="&lt;b&gt;ctg7_113&lt;/b&gt;&lt;br&gt;ctg7 113&lt;br&gt;Location: 131234 - 131486" locus_tag="ctg7_113" class="clusterblast-orf" id="dummy-1_q17_0_all"  />
<polygon points="196,40 336,40 341,35 336,30 196,30 196,40 " style="fill:#15d84f; stroke-width:1; stroke:black; " description="&lt;b&gt;ctg7_114&lt;/b&gt;&lt;br&gt;ctg7 114&lt;br&gt;Location: 131695 - 145750" locus_tag="ctg7_114" class="clusterblast-orf" id="dummy-1_q18_0_all"  />
<polygon points="341,40 459,40 464,35 459,30 341,30 341,40 " style="fill:#15d84f; stroke-width:1; stroke:black; " description="&lt;b&gt;ctg7_115&lt;/b&gt;&lt;br&gt;ctg7 115&lt;br&gt;Location: 145753 - 157606" locus_tag="ctg7_115" class="clusterblast-orf" id="dummy-1_q19_0_all"  />
<polygon points="465,35 470,30 491,30 491,40 470,40 465,35 " style="fill:#152cd8; stroke-width:1; stroke:black; " description="&lt;b&gt;ctg7_116&lt;/b&gt;&lt;br&gt;ctg7 116&lt;br&gt;Location: 157750 - 160192" locus_tag="ctg7_116" class="clusterblast-orf" id="dummy-1_q20_0_all"  />
<polygon points="492,35 497,30 509,30 509,40 497,40 492,35 " style="fill:#d8159f; stroke-width:1; stroke:black; " description="&lt;b&gt;ctg7_117&lt;/b&gt;&lt;br&gt;ctg7 117&lt;br&gt;Location: 160301 - 161954" locus_tag="ctg7_117" class="clusterblast-orf" id="dummy-1_q21_0_all"  />
<polygon points="511,40 514,40 519,35 514,30 511,30 511,40 " style="fill:#d8c115; stroke-width:1; stroke:black; " description="&lt;b&gt;ctg7_118&lt;/b&gt;&lt;br&gt;ctg7 118&lt;br&gt;Location: 162152 - 162980" locus_tag="ctg7_118" class="clusterblast-orf" id="dummy-1_q22_0_all"  />
<polygon points="521,35 526,30 530,30 530,40 526,40 521,35 " style="fill:#15d871; stroke-width:1; stroke:black; " description="&lt;b&gt;ctg7_119&lt;/b&gt;&lt;br&gt;ctg7 119&lt;br&gt;Location: 163122 - 163995" locus_tag="ctg7_119" class="clusterblast-orf" id="dummy-1_q23_0_all"  />
<polygon points="530,35 535,30 543,30 543,40 535,40 530,35 " style="fill:#2115d8; stroke-width:1; stroke:black; " description="&lt;b&gt;ctg7_120&lt;/b&gt;&lt;br&gt;ctg7 120&lt;br&gt;Location: 164028 - 165309" locus_tag="ctg7_120" class="clusterblast-orf" id="dummy-1_q24_0_all"  />
<polygon points="544,35 549,30 558,30 558,40 549,40 544,35 " style="fill:#d8157c; stroke-width:1; stroke:black; " description="&lt;b&gt;ctg7_121&lt;/b&gt;&lt;br&gt;ctg7 121&lt;br&gt;Location: 165327 - 166677" locus_tag="ctg7_121" class="clusterblast-orf" id="dummy-1_q25_0_all"  />
<polygon points="559,40 571,40 576,35 571,30 559,30 559,40 " style="fill:#cdd815; stroke-width:1; stroke:black; " description="&lt;b&gt;ctg7_122&lt;/b&gt;&lt;br&gt;ctg7 122&lt;br&gt;Location: 166819 - 168439" locus_tag="ctg7_122" class="clusterblast-orf" id="dummy-1_q26_0_all"  />
<polygon points="576,35 581,30 586,30 586,40 581,40 576,35 " style="fill:#15d893; stroke-width:1; stroke:black; " description="&lt;b&gt;ctg7_123&lt;/b&gt;&lt;br&gt;ctg7 123&lt;br&gt;Location: 168431 - 169379" locus_tag="ctg7_123" class="clusterblast-orf" id="dummy-1_q27_0_all"  />
<polygon points="587,40 591,40 596,35 591,30 587,30 587,40 " style="fill:#4315d8; stroke-width:1; stroke:black; " description="&lt;b&gt;ctg7_124&lt;/b&gt;&lt;br&gt;ctg7 124&lt;br&gt;Location: 169522 - 170413" locus_tag="ctg7_124" class="clusterblast-orf" id="dummy-1_q28_0_all"  />
<polygon points="596,40 601,40 606,35 601,30 596,30 596,40 " style="fill:#d8155a; stroke-width:1; stroke:black; " description="&lt;b&gt;ctg7_125&lt;/b&gt;&lt;br&gt;ctg7 125&lt;br&gt;Location: 170412 - 171384" locus_tag="ctg7_125" class="clusterblast-orf" id="dummy-1_q29_0_all"  />
<polygon points="606,40 610,40 615,35 610,30 606,30 606,40 " style="fill:#aad815; stroke-width:1; stroke:black; " description="&lt;b&gt;ctg7_126&lt;/b&gt;&lt;br&gt;ctg7 126&lt;br&gt;Location: 171380 - 172250" locus_tag="ctg7_126" class="clusterblast-orf" id="dummy-1_q30_0_all"  />
<polygon points="615,40 618,35 615,30 615,40 " style="fill:#15d8b6; stroke-width:1; stroke:black; " description="&lt;b&gt;ctg7_127&lt;/b&gt;&lt;br&gt;ctg7 127&lt;br&gt;Location: 172264 - 172525" locus_tag="ctg7_127" class="clusterblast-orf" id="dummy-1_q31_0_all"  />
<polygon points="618,40 622,40 627,35 622,30 618,30 618,40 " style="fill:#6615d8; stroke-width:1; stroke:black; " description="&lt;b&gt;ctg7_128&lt;/b&gt;&lt;br&gt;ctg7 128&lt;br&gt;Location: 172521 - 173352" locus_tag="ctg7_128" class="clusterblast-orf" id="dummy-1_q32_0_all"  />
<polygon points="627,40 649,40 654,35 649,30 627,30 627,40 " style="fill:#d81538; stroke-width:1; stroke:black; " description="&lt;b&gt;ctg7_129&lt;/b&gt;&lt;br&gt;ctg7 129&lt;br&gt;Location: 173365 - 176023" locus_tag="ctg7_129" class="clusterblast-orf" id="dummy-1_q33_0_all"  />
<polygon points="658,40 661,40 666,35 661,30 658,30 658,40 " style="fill:#88d815; stroke-width:1; stroke:black; " description="&lt;b&gt;ctg7_130&lt;/b&gt;&lt;br&gt;ctg7 130&lt;br&gt;Location: 176424 - 177141" locus_tag="ctg7_130" class="clusterblast-orf" id="dummy-1_q34_0_all"  />
<polygon points="666,40 670,35 666,30 666,40 " style="fill:#15d8d8; stroke-width:1; stroke:black; " description="&lt;b&gt;ctg7_131&lt;/b&gt;&lt;br&gt;ctg7 131&lt;br&gt;Location: 177193 - 177529" locus_tag="ctg7_131" class="clusterblast-orf" id="dummy-1_q35_0_all"  />
<polygon points="670,40 676,40 681,35 676,30 670,30 670,40 " style="fill:white; stroke-width:1; stroke:black; " description="&lt;b&gt;ctg7_132&lt;/b&gt;&lt;br&gt;ctg7 132&lt;br&gt;Location: 177544 - 178651" locus_tag="ctg7_132" class="clusterblast-orf" id="dummy-1_q36_0_all"  />
<polygon points="683,40 683,40 688,35 683,30 683,30 683,40 " style="fill:white; stroke-width:1; stroke:black; " description="&lt;b&gt;ctg7_133&lt;/b&gt;&lt;br&gt;ctg7 133&lt;br&gt;Location: 178813 - 179305" locus_tag="ctg7_133" class="clusterblast-orf" id="dummy-1_q37_0_all"  />
<polygon points="689,35 692,30 692,40 689,35 " style="fill:white; stroke-width:1; stroke:black; " description="&lt;b&gt;ctg7_134&lt;/b&gt;&lt;br&gt;ctg7 134&lt;br&gt;Location: 179406 - 179628" locus_tag="ctg7_134" class="clusterblast-orf" id="dummy-1_q38_0_all"  />
<polygon points="693,35 698,30 716,30 716,40 698,40 693,35 " style="fill:#152cd8; stroke-width:1; stroke:black; " description="&lt;b&gt;ctg7_135&lt;/b&gt;&lt;br&gt;ctg7 135&lt;br&gt;Location: 179769 - 181998" locus_tag="ctg7_135" class="clusterblast-orf" id="dummy-1_q39_0_all"  />
<polygon points="717,35 722,30 736,30 736,40 722,40 717,35 " style="fill:white; stroke-width:1; stroke:black; " description="&lt;b&gt;ctg7_136&lt;/b&gt;&lt;br&gt;ctg7 136&lt;br&gt;Location: 182124 - 183933" locus_tag="ctg7_136" class="clusterblast-orf" id="dummy-1_q40_0_all"  />
<polygon points="737,35 739,30 739,40 737,35 " style="fill:white; stroke-width:1; stroke:black; " description="&lt;b&gt;ctg7_137&lt;/b&gt;&lt;br&gt;ctg7 137&lt;br&gt;Location: 184031 - 184208" locus_tag="ctg7_137" class="clusterblast-orf" id="dummy-1_q41_0_all"  />
<polygon points="742,40 747,40 752,35 747,30 742,30 742,40 " style="fill:white; stroke-width:1; stroke:black; " description="&lt;b&gt;ctg7_138&lt;/b&gt;&lt;br&gt;ctg7 138&lt;br&gt;Location: 184477 - 185461" locus_tag="ctg7_138" class="clusterblast-orf" id="dummy-1_q42_0_all"  />
<polygon points="752,40 763,40 768,35 763,30 752,30 752,40 " style="fill:white; stroke-width:1; stroke:black; " description="&lt;b&gt;ctg7_139&lt;/b&gt;&lt;br&gt;ctg7 139&lt;br&gt;Location: 185457 - 186981" locus_tag="ctg7_139" class="clusterblast-orf" id="dummy-1_q43_0_all"  />
<polygon points="768,40 771,40 776,35 771,30 768,30 768,40 " style="fill:white; stroke-width:1; stroke:black; " description="&lt;b&gt;ctg7_140&lt;/b&gt;&lt;br&gt;ctg7 140&lt;br&gt;Location: 186977 - 187802" locus_tag="ctg7_140" class="clusterblast-orf" id="dummy-1_q44_0_all"  />
<polygon points="777,35 780,30 780,40 777,35 " style="fill:white; stroke-width:1; stroke:black; " description="&lt;b&gt;ctg7_141&lt;/b&gt;&lt;br&gt;ctg7 141&lt;br&gt;Location: 187877 - 188138" locus_tag="ctg7_141" class="clusterblast-orf" id="dummy-1_q45_0_all"  />
</g>
<g label="NZ_JACAQL010000001" description="NZ_JACAQL010000001 (49386-118604): Pseudomonas sp. IPO3747 IPO 3747 S30 L002 ... (63% of genes show similarity), NRPS" class="clusterblast-cluster"  >
<text x="5" y="70" class="clusterblast-acc"  >
<a xlink:href="https://antismash-db.secondarymetabolites.org/area.html?record=NZ_JACAQL010000001&amp;start=49386&amp;end=118604" target="_blank">NZ_JACAQL010000001 (49386-118604)</a>: Pseudomonas sp. IPO3747 IPO 3747 S30 L002 ... (63% of genes show similarity), NRPS</text>
<line x1="10" y1="85" x2="778.0" y2="85" style="stroke-width:1; stroke:grey; "  />
</g>
<g id="a1_000"  >
<polygon points="33,90 37,85 33,80 33,90 " style="fill:white; stroke-width:1; stroke:black; " description="&lt;b&gt;HX790_RS00410&lt;/b&gt;&lt;br&gt;hypothetical protein&lt;br&gt;Location: 118566 - 118231" locus_tag="HX790_RS00410" class="clusterblast-orf" id="dummy-1_h1_8_0"  />
</g>
<g id="a1_001"  >
<polygon points="40,85 45,80 51,80 51,90 45,90 40,85 " style="fill:white; stroke-width:1; stroke:black; " description="&lt;b&gt;HX790_RS00405&lt;/b&gt;&lt;br&gt;purine nucleoside permease&lt;br&gt;Location: 117901 - 116873" locus_tag="HX790_RS00405" class="clusterblast-orf" id="dummy-1_h1_8_1"  />
</g>
<g id="a1_002"  >
<polygon points="51,85 56,80 61,80 61,90 56,90 51,85 " style="fill:white; stroke-width:1; stroke:black; " description="&lt;b&gt;HX790_RS00400&lt;/b&gt;&lt;br&gt;nucleoside-specific channel-forming protein Tsx&lt;br&gt;Location: 116858 - 115896" locus_tag="HX790_RS00400" class="clusterblast-orf" id="dummy-1_h1_8_2"  />
</g>
<g id="a1_003"  >
<polygon points="62,85 67,80 72,80 72,90 67,90 62,85 " style="fill:white; stroke-width:1; stroke:black; " description="&lt;b&gt;HX790_RS00395&lt;/b&gt;&lt;br&gt;helix-turn-helix domain-containing protein&lt;br&gt;Location: 115740 - 114802" locus_tag="HX790_RS00395" class="clusterblast-orf" id="dummy-1_h1_8_3"  />
</g>
<g id="a1_004"  >
<polygon points="74,90 83,90 88,85 83,80 74,80 74,90 " style="fill:white; stroke-width:1; stroke:black; " description="&lt;b&gt;HX790_RS00390&lt;/b&gt;&lt;br&gt;sugar ABC transporter substrate-binding protein&lt;br&gt;Location: 114593 - 113283" locus_tag="HX790_RS00390" class="clusterblast-orf" id="dummy-1_h1_8_4"  />
</g>
<g id="a1_005"  >
<polygon points="88,90 91,90 96,85 91,80 88,80 88,90 " style="fill:white; stroke-width:1; stroke:black; " description="&lt;b&gt;HX790_RS00385&lt;/b&gt;&lt;br&gt;L-iditol 2-dehydrogenase&lt;br&gt;Location: 113269 - 112496" locus_tag="HX790_RS00385" class="clusterblast-orf" id="dummy-1_h1_8_5"  />
</g>
<g id="a1_006"  >
<polygon points="98,90 100,90 105,85 100,80 98,80 98,90 " style="fill:white; stroke-width:1; stroke:black; " description="&lt;b&gt;HX790_RS00380&lt;/b&gt;&lt;br&gt;nicotinamidase&lt;br&gt;Location: 112286 - 111639" locus_tag="HX790_RS00380" class="clusterblast-orf" id="dummy-1_h1_8_6"  />
</g>
<g id="a1_007"  >
<polygon points="107,90 111,85 107,80 107,90 " style="fill:white; stroke-width:1; stroke:black; " description="&lt;b&gt;HX790_RS00375&lt;/b&gt;&lt;br&gt;hypothetical protein&lt;br&gt;Location: 111426 - 111070" locus_tag="HX790_RS00375" class="clusterblast-orf" id="dummy-1_h1_8_7"  />
</g>
<g id="a1_008"  >
<polygon points="111,85 116,80 122,80 122,90 116,90 111,85 " style="fill:white; stroke-width:1; stroke:black; " description="&lt;b&gt;HX790_RS00370&lt;/b&gt;&lt;br&gt;ABC transporter substrate-binding protein&lt;br&gt;Location: 111030 - 109999" locus_tag="HX790_RS00370" class="clusterblast-orf" id="dummy-1_h1_8_8"  />
</g>
<g id="a1_009"  >
<polygon points="122,85 127,80 133,80 133,90 127,90 122,85 " style="fill:white; stroke-width:1; stroke:black; " description="&lt;b&gt;HX790_RS00365&lt;/b&gt;&lt;br&gt;FAD-binding oxidoreductase&lt;br&gt;Location: 109986 - 108889" locus_tag="HX790_RS00365" class="clusterblast-orf" id="dummy-1_h1_8_9"  />
</g>
<g id="a1_0010"  >
<polygon points="133,85 138,80 147,80 147,90 138,90 133,85 " style="fill:white; stroke-width:1; stroke:black; " description="&lt;b&gt;HX790_RS00360&lt;/b&gt;&lt;br&gt;FAD-dependent oxidoreductase&lt;br&gt;Location: 108892 - 107549" locus_tag="HX790_RS00360" class="clusterblast-orf" id="dummy-1_h1_8_10"  />
</g>
<g id="a1_0011"  >
<polygon points="147,85 150,80 150,90 147,85 " style="fill:white; stroke-width:1; stroke:black; " description="&lt;b&gt;HX790_RS00355&lt;/b&gt;&lt;br&gt;(2Fe-2S)-binding protein&lt;br&gt;Location: 107552 - 107262" locus_tag="HX790_RS00355" class="clusterblast-orf" id="dummy-1_h1_8_11"  />
</g>
<g id="a1_0012"  >
<polygon points="150,85 155,80 158,80 158,90 155,90 150,85 " style="fill:white; stroke-width:1; stroke:black; " description="&lt;b&gt;HX790_RS00350&lt;/b&gt;&lt;br&gt;ABC transporter permease&lt;br&gt;Location: 107262 - 106468" locus_tag="HX790_RS00350" class="clusterblast-orf" id="dummy-1_h1_8_12"  />
</g>
<g id="a1_0013"  >
<polygon points="158,85 163,80 167,80 167,90 163,90 158,85 " style="fill:white; stroke-width:1; stroke:black; " description="&lt;b&gt;HX790_RS00345&lt;/b&gt;&lt;br&gt;ABC transporter permease&lt;br&gt;Location: 106463 - 105618" locus_tag="HX790_RS00345" class="clusterblast-orf" id="dummy-1_h1_8_13"  />
</g>
<g id="a1_0014"  >
<polygon points="167,85 172,80 178,80 178,90 172,90 167,85 " style="fill:#1593d8; stroke-width:1; stroke:black; " description="&lt;b&gt;HX790_RS00340&lt;/b&gt;&lt;br&gt;ABC transporter ATP-binding protein&lt;br&gt;Location: 105621 - 104593&lt;br&gt;&lt;br&gt;&lt;b&gt;BlastP hit with ctg7_103&lt;/b&gt;&lt;br&gt;Percentage identity: 32&lt;br&gt;Percentage coverage: 103&lt;br&gt;BLAST bit score: 102&lt;br&gt;E-value: 9.32e-24" locus_tag="HX790_RS00340" class="clusterblast-orf" id="dummy-1_h1_8_14"  />
</g>
<g id="a1_0015"  >
<polygon points="180,90 184,90 189,85 184,80 180,80 180,90 " style="fill:#d81515; stroke-width:1; stroke:black; " description="&lt;b&gt;HX790_RS00335&lt;/b&gt;&lt;br&gt;IclR family transcriptional regulator&lt;br&gt;Location: 104350 - 103520&lt;br&gt;&lt;br&gt;&lt;b&gt;BlastP hit with ctg7_96&lt;/b&gt;&lt;br&gt;Percentage identity: 97&lt;br&gt;Percentage coverage: 91&lt;br&gt;BLAST bit score: 521&lt;br&gt;E-value: 2.2e-187" locus_tag="HX790_RS00335" class="clusterblast-orf" id="dummy-1_h1_8_15"  />
</g>
<g id="a1_0016"  >
<polygon points="191,90 192,90 197,85 192,80 191,80 191,90 " style="fill:#cd15d8; stroke-width:1; stroke:black; " description="&lt;b&gt;HX790_RS00330&lt;/b&gt;&lt;br&gt;DUF2239 family protein&lt;br&gt;Location: 103271 - 102699&lt;br&gt;&lt;br&gt;&lt;b&gt;BlastP hit with ctg7_108&lt;/b&gt;&lt;br&gt;Percentage identity: 79&lt;br&gt;Percentage coverage: 99&lt;br&gt;BLAST bit score: 306&lt;br&gt;E-value: 1.13e-105" locus_tag="HX790_RS00330" class="clusterblast-orf" id="dummy-1_h1_8_16"  />
</g>
<g id="a1_0017"  >
<polygon points="197,90 206,90 211,85 206,80 197,80 197,90 " style="fill:#d87c15; stroke-width:1; stroke:black; " description="&lt;b&gt;HX790_RS00325&lt;/b&gt;&lt;br&gt;MATE family efflux transporter&lt;br&gt;Location: 102673 - 101318&lt;br&gt;&lt;br&gt;&lt;b&gt;BlastP hit with ctg7_109&lt;/b&gt;&lt;br&gt;Percentage identity: 95&lt;br&gt;Percentage coverage: 100&lt;br&gt;BLAST bit score: 788&lt;br&gt;E-value: 9.58e-288" locus_tag="HX790_RS00325" class="clusterblast-orf" id="dummy-1_h1_8_17"  />
</g>
<g id="a1_0018"  >
<polygon points="211,85 216,80 217,80 217,90 216,90 211,85 " style="fill:#15d82c; stroke-width:1; stroke:black; " description="&lt;b&gt;HX790_RS00320&lt;/b&gt;&lt;br&gt;TetR/AcrR family transcriptional regulator&lt;br&gt;Location: 101334 - 100741&lt;br&gt;&lt;br&gt;&lt;b&gt;BlastP hit with ctg7_110&lt;/b&gt;&lt;br&gt;Percentage identity: 85&lt;br&gt;Percentage coverage: 100&lt;br&gt;BLAST bit score: 330&lt;br&gt;E-value: 3.37e-115" locus_tag="HX790_RS00320" class="clusterblast-orf" id="dummy-1_h1_8_18"  />
</g>
<g id="a1_0019"  >
<polygon points="219,90 226,90 231,85 226,80 219,80 219,90 " style="fill:#154fd8; stroke-width:1; stroke:black; " description="&lt;b&gt;HX790_RS00315&lt;/b&gt;&lt;br&gt;MFS transporter&lt;br&gt;Location: 100599 - 99394&lt;br&gt;&lt;br&gt;&lt;b&gt;BlastP hit with ctg7_111&lt;/b&gt;&lt;br&gt;Percentage identity: 91&lt;br&gt;Percentage coverage: 98&lt;br&gt;BLAST bit score: 667&lt;br&gt;E-value: 7.87e-242" locus_tag="HX790_RS00315" class="clusterblast-orf" id="dummy-1_h1_8_19"  />
</g>
<g id="a1_0020"  >
<polygon points="231,85 235,80 235,90 231,85 " style="fill:#d815c1; stroke-width:1; stroke:black; " description="&lt;b&gt;HX790_RS00310&lt;/b&gt;&lt;br&gt;type II toxin-antitoxin system HicB family antitoxin&lt;br&gt;Location: 99427 - 99062&lt;br&gt;&lt;br&gt;&lt;b&gt;BlastP hit with ctg7_112&lt;/b&gt;&lt;br&gt;Percentage identity: 91&lt;br&gt;Percentage coverage: 100&lt;br&gt;BLAST bit score: 230&lt;br&gt;E-value: 5.01e-78" locus_tag="HX790_RS00310" class="clusterblast-orf" id="dummy-1_h1_8_20"  />
</g>
<g id="a1_0021"  >
<polygon points="235,85 237,80 237,90 235,85 " style="fill:#d89f15; stroke-width:1; stroke:black; " description="&lt;b&gt;HX790_RS00305&lt;/b&gt;&lt;br&gt;type II toxin-antitoxin system HicA family toxin&lt;br&gt;Location: 99077 - 98814&lt;br&gt;&lt;br&gt;&lt;b&gt;BlastP hit with ctg7_113&lt;/b&gt;&lt;br&gt;Percentage identity: 93&lt;br&gt;Percentage coverage: 100&lt;br&gt;BLAST bit score: 160&lt;br&gt;E-value: 2.07e-51" locus_tag="HX790_RS00305" class="clusterblast-orf" id="dummy-1_h1_8_21"  />
</g>
<g id="a1_0022"  >
<polygon points="240,90 348,90 353,85 348,80 240,80 240,90 " style="fill:#15d84f; stroke-width:1; stroke:black; " description="&lt;b&gt;HX790_RS00300&lt;/b&gt;&lt;br&gt;non-ribosomal peptide synthetase&lt;br&gt;Location: 98604 - 87589&lt;br&gt;&lt;br&gt;&lt;b&gt;BlastP hit with ctg7_114&lt;/b&gt;&lt;br&gt;Percentage identity: 60&lt;br&gt;Percentage coverage: 101&lt;br&gt;BLAST bit score: 5046&lt;br&gt;E-value: 0.0&lt;br&gt;&lt;br&gt;&lt;b&gt;BlastP hit with ctg7_115&lt;/b&gt;&lt;br&gt;Percentage identity: 60&lt;br&gt;Percentage coverage: 54&lt;br&gt;BLAST bit score: 2373&lt;br&gt;E-value: 0.0" locus_tag="HX790_RS00300" class="clusterblast-orf" id="dummy-1_h1_8_22"  />
</g>
<g id="a1_0023"  >
<polygon points="354,90 429,90 434,85 429,80 354,80 354,90 " style="fill:#15d84f; stroke-width:1; stroke:black; " description="&lt;b&gt;HX790_RS00295&lt;/b&gt;&lt;br&gt;amino acid adenylation domain-containing protein&lt;br&gt;Location: 87585 - 79804&lt;br&gt;&lt;br&gt;&lt;b&gt;BlastP hit with ctg7_114&lt;/b&gt;&lt;br&gt;Percentage identity: 55&lt;br&gt;Percentage coverage: 55&lt;br&gt;BLAST bit score: 2623&lt;br&gt;E-value: 0.0&lt;br&gt;&lt;br&gt;&lt;b&gt;BlastP hit with ctg7_115&lt;/b&gt;&lt;br&gt;Percentage identity: 62&lt;br&gt;Percentage coverage: 65&lt;br&gt;BLAST bit score: 3022&lt;br&gt;E-value: 0.0" locus_tag="HX790_RS00295" class="clusterblast-orf" id="dummy-1_h1_8_23"  />
</g>
<g id="a1_0024"  >
<polygon points="435,90 537,90 542,85 537,80 435,80 435,90 " style="fill:#15d84f; stroke-width:1; stroke:black; " description="&lt;b&gt;HX790_RS00290&lt;/b&gt;&lt;br&gt;amino acid adenylation domain-containing protein&lt;br&gt;Location: 79730 - 69387&lt;br&gt;&lt;br&gt;&lt;b&gt;BlastP hit with ctg7_114&lt;/b&gt;&lt;br&gt;Percentage identity: 67&lt;br&gt;Percentage coverage: 45&lt;br&gt;BLAST bit score: 2689&lt;br&gt;E-value: 0.0&lt;br&gt;&lt;br&gt;&lt;b&gt;BlastP hit with ctg7_115&lt;/b&gt;&lt;br&gt;Percentage identity: 61&lt;br&gt;Percentage coverage: 100&lt;br&gt;BLAST bit score: 4327&lt;br&gt;E-value: 0.0" locus_tag="HX790_RS00290" class="clusterblast-orf" id="dummy-1_h1_8_24"  />
</g>
<g id="a1_0025"  >
<polygon points="543,85 548,80 568,80 568,90 548,90 543,85 " style="fill:#152cd8; stroke-width:1; stroke:black; " description="&lt;b&gt;HX790_RS00285&lt;/b&gt;&lt;br&gt;TonB-dependent siderophore receptor&lt;br&gt;Location: 69251 - 66873&lt;br&gt;&lt;br&gt;&lt;b&gt;BlastP hit with ctg7_116&lt;/b&gt;&lt;br&gt;Percentage identity: 62&lt;br&gt;Percentage coverage: 98&lt;br&gt;BLAST bit score: 993&lt;br&gt;E-value: 0.0&lt;br&gt;&lt;br&gt;&lt;b&gt;BlastP hit with ctg7_135&lt;/b&gt;&lt;br&gt;Percentage identity: 39&lt;br&gt;Percentage coverage: 96&lt;br&gt;BLAST bit score: 496&lt;br&gt;E-value: 1.56e-163" locus_tag="HX790_RS00285" class="clusterblast-orf" id="dummy-1_h1_8_25"  />
</g>
<g id="a1_0026"  >
<polygon points="569,85 574,80 586,80 586,90 574,90 569,85 " style="fill:#d8159f; stroke-width:1; stroke:black; " description="&lt;b&gt;HX790_RS00280&lt;/b&gt;&lt;br&gt;cyclic peptide export ABC transporter&lt;br&gt;Location: 66718 - 65066&lt;br&gt;&lt;br&gt;&lt;b&gt;BlastP hit with ctg7_117&lt;/b&gt;&lt;br&gt;Percentage identity: 92&lt;br&gt;Percentage coverage: 100&lt;br&gt;BLAST bit score: 973&lt;br&gt;E-value: 0.0" locus_tag="HX790_RS00280" class="clusterblast-orf" id="dummy-1_h1_8_26"  />
</g>
<g id="a1_0027"  >
<polygon points="589,90 592,90 597,85 592,80 589,80 589,90 " style="fill:#d8c115; stroke-width:1; stroke:black; " description="&lt;b&gt;HX790_RS00275&lt;/b&gt;&lt;br&gt;N(5)-hydroxyornithine transformylase PvdF&lt;br&gt;Location: 64864 - 64037&lt;br&gt;&lt;br&gt;&lt;b&gt;BlastP hit with ctg7_118&lt;/b&gt;&lt;br&gt;Percentage identity: 95&lt;br&gt;Percentage coverage: 100&lt;br&gt;BLAST bit score: 541&lt;br&gt;E-value: 7.83e-196" locus_tag="HX790_RS00275" class="clusterblast-orf" id="dummy-1_h1_8_27"  />
</g>
<g id="a1_0028"  >
<polygon points="598,85 603,80 607,80 607,90 603,90 598,85 " style="fill:#15d871; stroke-width:1; stroke:black; " description="&lt;b&gt;HX790_RS00270&lt;/b&gt;&lt;br&gt;formylglycine-generating enzyme family protein&lt;br&gt;Location: 63920 - 63048&lt;br&gt;&lt;br&gt;&lt;b&gt;BlastP hit with ctg7_119&lt;/b&gt;&lt;br&gt;Percentage identity: 95&lt;br&gt;Percentage coverage: 100&lt;br&gt;BLAST bit score: 590&lt;br&gt;E-value: 1.09e-214" locus_tag="HX790_RS00270" class="clusterblast-orf" id="dummy-1_h1_8_28"  />
</g>
<g id="a1_0029"  >
<polygon points="608,85 613,80 621,80 621,90 613,90 608,85 " style="fill:#2115d8; stroke-width:1; stroke:black; " description="&lt;b&gt;HX790_RS00265&lt;/b&gt;&lt;br&gt;aminotransferase class V-fold PLP-dependent enzyme&lt;br&gt;Location: 63014 - 61734&lt;br&gt;&lt;br&gt;&lt;b&gt;BlastP hit with ctg7_120&lt;/b&gt;&lt;br&gt;Percentage identity: 90&lt;br&gt;Percentage coverage: 100&lt;br&gt;BLAST bit score: 783&lt;br&gt;E-value: 1.32e-286" locus_tag="HX790_RS00265" class="clusterblast-orf" id="dummy-1_h1_8_29"  />
</g>
<g id="a1_0030"  >
<polygon points="621,85 626,80 635,80 635,90 626,90 621,85 " style="fill:#d8157c; stroke-width:1; stroke:black; " description="&lt;b&gt;HX790_RS00260&lt;/b&gt;&lt;br&gt;pyoverdine-tailoring dipeptidase-like protein PvdM&lt;br&gt;Location: 61715 - 60366&lt;br&gt;&lt;br&gt;&lt;b&gt;BlastP hit with ctg7_121&lt;/b&gt;&lt;br&gt;Percentage identity: 95&lt;br&gt;Percentage coverage: 100&lt;br&gt;BLAST bit score: 877&lt;br&gt;E-value: 0.0" locus_tag="HX790_RS00260" class="clusterblast-orf" id="dummy-1_h1_8_30"  />
</g>
<g id="a1_0031"  >
<polygon points="637,90 648,90 653,85 648,80 637,80 637,90 " style="fill:#cdd815; stroke-width:1; stroke:black; " description="&lt;b&gt;HX790_RS00255&lt;/b&gt;&lt;br&gt;hypothetical protein&lt;br&gt;Location: 60223 - 58610&lt;br&gt;&lt;br&gt;&lt;b&gt;BlastP hit with ctg7_122&lt;/b&gt;&lt;br&gt;Percentage identity: 94&lt;br&gt;Percentage coverage: 100&lt;br&gt;BLAST bit score: 1071&lt;br&gt;E-value: 0.0" locus_tag="HX790_RS00255" class="clusterblast-orf" id="dummy-1_h1_8_31"  />
</g>
<g id="a1_0032"  >
<polygon points="653,85 658,80 663,80 663,90 658,90 653,85 " style="fill:#15d893; stroke-width:1; stroke:black; " description="&lt;b&gt;HX790_RS00250&lt;/b&gt;&lt;br&gt;DUF1853 family protein&lt;br&gt;Location: 58617 - 57670&lt;br&gt;&lt;br&gt;&lt;b&gt;BlastP hit with ctg7_123&lt;/b&gt;&lt;br&gt;Percentage identity: 92&lt;br&gt;Percentage coverage: 100&lt;br&gt;BLAST bit score: 630&lt;br&gt;E-value: 1.06e-229" locus_tag="HX790_RS00250" class="clusterblast-orf" id="dummy-1_h1_8_32"  />
</g>
<g id="a1_0033"  >
<polygon points="664,90 669,90 674,85 669,80 664,80 664,90 " style="fill:#4315d8; stroke-width:1; stroke:black; " description="&lt;b&gt;HX790_RS00245&lt;/b&gt;&lt;br&gt;NAD(+) kinase&lt;br&gt;Location: 57525 - 56635&lt;br&gt;&lt;br&gt;&lt;b&gt;BlastP hit with ctg7_124&lt;/b&gt;&lt;br&gt;Percentage identity: 100&lt;br&gt;Percentage coverage: 100&lt;br&gt;BLAST bit score: 599&lt;br&gt;E-value: 3.81e-218" locus_tag="HX790_RS00245" class="clusterblast-orf" id="dummy-1_h1_8_33"  />
</g>
<g id="a1_0034"  >
<polygon points="674,90 679,90 684,85 679,80 674,80 674,90 " style="fill:#d8155a; stroke-width:1; stroke:black; " description="&lt;b&gt;HX790_RS00240&lt;/b&gt;&lt;br&gt;metallophosphoesterase&lt;br&gt;Location: 56635 - 55664&lt;br&gt;&lt;br&gt;&lt;b&gt;BlastP hit with ctg7_125&lt;/b&gt;&lt;br&gt;Percentage identity: 97&lt;br&gt;Percentage coverage: 100&lt;br&gt;BLAST bit score: 677&lt;br&gt;E-value: 4.98e-248" locus_tag="HX790_RS00240" class="clusterblast-orf" id="dummy-1_h1_8_34"  />
</g>
<g id="a1_0035"  >
<polygon points="684,90 688,90 693,85 688,80 684,80 684,90 " style="fill:#aad815; stroke-width:1; stroke:black; " description="&lt;b&gt;HX790_RS00235&lt;/b&gt;&lt;br&gt;rhomboid family intramembrane serine protease&lt;br&gt;Location: 55667 - 54798&lt;br&gt;&lt;br&gt;&lt;b&gt;BlastP hit with ctg7_126&lt;/b&gt;&lt;br&gt;Percentage identity: 92&lt;br&gt;Percentage coverage: 100&lt;br&gt;BLAST bit score: 539&lt;br&gt;E-value: 1.34e-194" locus_tag="HX790_RS00235" class="clusterblast-orf" id="dummy-1_h1_8_35"  />
</g>
<g id="a1_0036"  >
<polygon points="693,90 696,85 693,80 693,90 " style="fill:#15d8b6; stroke-width:1; stroke:black; " description="&lt;b&gt;HX790_RS00230&lt;/b&gt;&lt;br&gt;DUF1315 family protein&lt;br&gt;Location: 54783 - 54523&lt;br&gt;&lt;br&gt;&lt;b&gt;BlastP hit with ctg7_127&lt;/b&gt;&lt;br&gt;Percentage identity: 100&lt;br&gt;Percentage coverage: 100&lt;br&gt;BLAST bit score: 175&lt;br&gt;E-value: 3.62e-57" locus_tag="HX790_RS00230" class="clusterblast-orf" id="dummy-1_h1_8_36"  />
</g>
<g id="a1_0037"  >
<polygon points="695,90 699,90 704,85 699,80 695,80 695,90 " style="fill:#6615d8; stroke-width:1; stroke:black; " description="&lt;b&gt;HX790_RS00225&lt;/b&gt;&lt;br&gt;DUF2797 domain-containing protein&lt;br&gt;Location: 54526 - 53696&lt;br&gt;&lt;br&gt;&lt;b&gt;BlastP hit with ctg7_128&lt;/b&gt;&lt;br&gt;Percentage identity: 96&lt;br&gt;Percentage coverage: 100&lt;br&gt;BLAST bit score: 549&lt;br&gt;E-value: 3.75e-199" locus_tag="HX790_RS00225" class="clusterblast-orf" id="dummy-1_h1_8_37"  />
</g>
<g id="a1_0038"  >
<polygon points="704,90 727,90 732,85 727,80 704,80 704,90 " style="fill:#d81538; stroke-width:1; stroke:black; " description="&lt;b&gt;HX790_RS00220&lt;/b&gt;&lt;br&gt;aminopeptidase N&lt;br&gt;Location: 53681 - 51024&lt;br&gt;&lt;br&gt;&lt;b&gt;BlastP hit with ctg7_129&lt;/b&gt;&lt;br&gt;Percentage identity: 97&lt;br&gt;Percentage coverage: 100&lt;br&gt;BLAST bit score: 1701&lt;br&gt;E-value: 0.0" locus_tag="HX790_RS00220" class="clusterblast-orf" id="dummy-1_h1_8_38"  />
</g>
<g id="a1_0039"  >
<polygon points="734,85 738,80 738,90 734,85 " style="fill:white; stroke-width:1; stroke:black; " description="&lt;b&gt;HX790_RS00215&lt;/b&gt;&lt;br&gt;aldo/keto reductase&lt;br&gt;Location: 50768 - 50463" locus_tag="HX790_RS00215" class="clusterblast-orf" id="dummy-1_h1_8_39"  />
</g>
<g id="a1_0040"  >
<polygon points="739,90 741,90 746,85 741,80 739,80 739,90 " style="fill:#88d815; stroke-width:1; stroke:black; " description="&lt;b&gt;HX790_RS00210&lt;/b&gt;&lt;br&gt;HTH domain-containing protein&lt;br&gt;Location: 50364 - 49648&lt;br&gt;&lt;br&gt;&lt;b&gt;BlastP hit with ctg7_130&lt;/b&gt;&lt;br&gt;Percentage identity: 95&lt;br&gt;Percentage coverage: 100&lt;br&gt;BLAST bit score: 439&lt;br&gt;E-value: 7.96e-157" locus_tag="HX790_RS00210" class="clusterblast-orf" id="dummy-1_h1_8_40"  />
</g>
</svg>
