<svg xmlns="http://www.w3.org/2000/svg" xmlns:xlink="http://www.w3.org/1999/xlink" version="1.1" x="0" y="0" height="50" width="800" viewBox="0 0 800 50" preserveAspectRatio="none"  >
<g label="Query sequence" class="clusterblast-cluster"  >
<text x="5" y="20" class="clusterblast-acc"  >
Query sequence</text>
<line x1="10" y1="35" x2="778.0" y2="35" style="stroke-width:1; stroke:grey; "  />
<polygon points="0,40 8,40 13,35 8,30 0,30 0,40 " style="fill:white; stroke-width:1; stroke:black; " description="&lt;b&gt;ctg2_365&lt;/b&gt;&lt;br&gt;ctg2 365&lt;br&gt;Location: 411623 - 411815" locus_tag="ctg2_365" class="clusterblast-orf" id="knownclusterblast-3_q0_0_all"  />
<polygon points="40,40 173,40 178,35 173,30 40,30 40,40 " style="fill:white; stroke-width:1; stroke:black; " description="&lt;b&gt;ctg2_366&lt;/b&gt;&lt;br&gt;ctg2 366&lt;br&gt;Location: 412232 - 414320" locus_tag="ctg2_366" class="clusterblast-orf" id="knownclusterblast-3_q1_0_all"  />
<polygon points="182,35 187,30 192,30 192,40 187,40 182,35 " style="fill:white; stroke-width:1; stroke:black; " description="&lt;b&gt;ctg2_367&lt;/b&gt;&lt;br&gt;ctg2 367&lt;br&gt;Location: 414374 - 414527" locus_tag="ctg2_367" class="clusterblast-orf" id="knownclusterblast-3_q2_0_all"  />
<polygon points="214,40 263,40 268,35 263,30 214,30 214,40 " style="fill:white; stroke-width:1; stroke:black; " description="&lt;b&gt;ctg2_368&lt;/b&gt;&lt;br&gt;ctg2 368&lt;br&gt;Location: 414856 - 415672" locus_tag="ctg2_368" class="clusterblast-orf" id="knownclusterblast-3_q3_0_all"  />
<polygon points="284,40 292,40 297,35 292,30 284,30 284,40 " style="fill:white; stroke-width:1; stroke:black; " description="&lt;b&gt;ctg2_369&lt;/b&gt;&lt;br&gt;ctg2 369&lt;br&gt;Location: 415913 - 416117" locus_tag="ctg2_369" class="clusterblast-orf" id="knownclusterblast-3_q4_0_all"  />
<polygon points="298,35 303,30 313,30 313,40 303,40 298,35 " style="fill:white; stroke-width:1; stroke:black; " description="&lt;b&gt;ctg2_370&lt;/b&gt;&lt;br&gt;ctg2 370&lt;br&gt;Location: 416124 - 416352" locus_tag="ctg2_370" class="clusterblast-orf" id="knownclusterblast-3_q5_0_all"  />
<polygon points="317,35 322,30 395,30 395,40 322,40 317,35 " style="fill:white; stroke-width:1; stroke:black; " description="&lt;b&gt;ctg2_371&lt;/b&gt;&lt;br&gt;ctg2 371&lt;br&gt;Location: 416411 - 417596" locus_tag="ctg2_371" class="clusterblast-orf" id="knownclusterblast-3_q6_0_all"  />
<polygon points="406,35 411,30 522,30 522,40 411,40 406,35 " style="fill:white; stroke-width:1; stroke:black; " description="&lt;b&gt;ctg2_372&lt;/b&gt;&lt;br&gt;ctg2 372&lt;br&gt;Location: 417767 - 419516" locus_tag="ctg2_372" class="clusterblast-orf" id="knownclusterblast-3_q7_0_all"  />
<polygon points="522,35 527,30 639,30 639,40 527,40 522,35 " style="fill:white; stroke-width:1; stroke:black; " description="&lt;b&gt;ctg2_373&lt;/b&gt;&lt;br&gt;ctg2 373&lt;br&gt;Location: 419519 - 421292" locus_tag="ctg2_373" class="clusterblast-orf" id="knownclusterblast-3_q8_0_all"  />
<polygon points="648,35 653,30 780,30 780,40 653,40 648,35 " style="fill:white; stroke-width:1; stroke:black; " description="&lt;b&gt;ctg2_374&lt;/b&gt;&lt;br&gt;ctg2 374&lt;br&gt;Location: 421427 - 423428" locus_tag="ctg2_374" class="clusterblast-orf" id="knownclusterblast-3_q9_0_all"  />
</g>
</svg>
