<svg xmlns="http://www.w3.org/2000/svg" xmlns:xlink="http://www.w3.org/1999/xlink" version="1.1" x="0" y="0" height="230" width="800" viewBox="0 0 800 230" preserveAspectRatio="none"  >
<g label="Query sequence" class="clusterblast-cluster"  >
<text x="5" y="20" class="clusterblast-acc"  >
Query sequence</text>
<line x1="10" y1="35" x2="778.0" y2="35" style="stroke-width:1; stroke:grey; "  />
<polygon points="0,40 4,40 9,35 4,30 0,30 0,40 " style="fill:white; stroke-width:1; stroke:black; " description="&lt;b&gt;ctg7_96&lt;/b&gt;&lt;br&gt;ctg7 96&lt;br&gt;Location: 112734 - 113649" locus_tag="ctg7_96" class="clusterblast-orf" id="dummy-1_q0_0_all"  />
<polygon points="12,35 17,30 18,30 18,40 17,40 12,35 " style="fill:white; stroke-width:1; stroke:black; " description="&lt;b&gt;ctg7_97&lt;/b&gt;&lt;br&gt;ctg7 97&lt;br&gt;Location: 113885 - 114551" locus_tag="ctg7_97" class="clusterblast-orf" id="dummy-1_q1_0_all"  />
<polygon points="18,35 23,30 53,30 53,40 23,40 18,35 " style="fill:white; stroke-width:1; stroke:black; " description="&lt;b&gt;ctg7_98&lt;/b&gt;&lt;br&gt;ctg7 98&lt;br&gt;Location: 114525 - 117909" locus_tag="ctg7_98" class="clusterblast-orf" id="dummy-1_q2_0_all"  />
<polygon points="56,40 64,40 69,35 64,30 56,30 56,40 " style="fill:white; stroke-width:1; stroke:black; " description="&lt;b&gt;ctg7_99&lt;/b&gt;&lt;br&gt;ctg7 99&lt;br&gt;Location: 118211 - 119420" locus_tag="ctg7_99" class="clusterblast-orf" id="dummy-1_q3_0_all"  />
<polygon points="71,40 75,40 80,35 75,30 71,30 71,40 " style="fill:white; stroke-width:1; stroke:black; " description="&lt;b&gt;ctg7_100&lt;/b&gt;&lt;br&gt;ctg7 100&lt;br&gt;Location: 119598 - 120516" locus_tag="ctg7_100" class="clusterblast-orf" id="dummy-1_q4_0_all"  />
<polygon points="80,40 87,40 92,35 87,30 80,30 80,40 " style="fill:white; stroke-width:1; stroke:black; " description="&lt;b&gt;ctg7_101&lt;/b&gt;&lt;br&gt;ctg7 101&lt;br&gt;Location: 120526 - 121687" locus_tag="ctg7_101" class="clusterblast-orf" id="dummy-1_q5_0_all"  />
<polygon points="92,40 95,40 100,35 95,30 92,30 92,40 " style="fill:white; stroke-width:1; stroke:black; " description="&lt;b&gt;ctg7_102&lt;/b&gt;&lt;br&gt;ctg7 102&lt;br&gt;Location: 121683 - 122442" locus_tag="ctg7_102" class="clusterblast-orf" id="dummy-1_q6_0_all"  />
<polygon points="100,40 102,40 107,35 102,30 100,30 100,40 " style="fill:white; stroke-width:1; stroke:black; " description="&lt;b&gt;ctg7_103&lt;/b&gt;&lt;br&gt;ctg7 103&lt;br&gt;Location: 122452 - 123142" locus_tag="ctg7_103" class="clusterblast-orf" id="dummy-1_q7_0_all"  />
<polygon points="110,40 117,40 122,35 117,30 110,30 110,40 " style="fill:white; stroke-width:1; stroke:black; " description="&lt;b&gt;ctg7_104&lt;/b&gt;&lt;br&gt;ctg7 104&lt;br&gt;Location: 123360 - 124590" locus_tag="ctg7_104" class="clusterblast-orf" id="dummy-1_q8_0_all"  />
<polygon points="122,40 126,35 122,30 122,40 " style="fill:white; stroke-width:1; stroke:black; " description="&lt;b&gt;ctg7_105&lt;/b&gt;&lt;br&gt;ctg7 105&lt;br&gt;Location: 124592 - 124940" locus_tag="ctg7_105" class="clusterblast-orf" id="dummy-1_q9_0_all"  />
<polygon points="126,40 132,40 137,35 132,30 126,30 126,40 " style="fill:white; stroke-width:1; stroke:black; " description="&lt;b&gt;ctg7_106&lt;/b&gt;&lt;br&gt;ctg7 106&lt;br&gt;Location: 124955 - 125999" locus_tag="ctg7_106" class="clusterblast-orf" id="dummy-1_q10_0_all"  />
<polygon points="137,40 142,40 147,35 142,30 137,30 137,40 " style="fill:white; stroke-width:1; stroke:black; " description="&lt;b&gt;ctg7_107&lt;/b&gt;&lt;br&gt;ctg7 107&lt;br&gt;Location: 126002 - 126959" locus_tag="ctg7_107" class="clusterblast-orf" id="dummy-1_q11_0_all"  />
<polygon points="147,40 148,40 153,35 148,30 147,30 147,40 " style="fill:white; stroke-width:1; stroke:black; " description="&lt;b&gt;ctg7_108&lt;/b&gt;&lt;br&gt;ctg7 108&lt;br&gt;Location: 127026 - 127599" locus_tag="ctg7_108" class="clusterblast-orf" id="dummy-1_q12_0_all"  />
<polygon points="154,40 163,40 168,35 163,30 154,30 154,40 " style="fill:white; stroke-width:1; stroke:black; " description="&lt;b&gt;ctg7_109&lt;/b&gt;&lt;br&gt;ctg7 109&lt;br&gt;Location: 127624 - 128980" locus_tag="ctg7_109" class="clusterblast-orf" id="dummy-1_q13_0_all"  />
<polygon points="167,35 172,30 174,30 174,40 172,40 167,35 " style="fill:#d81515; stroke-width:1; stroke:black; " description="&lt;b&gt;ctg7_110&lt;/b&gt;&lt;br&gt;ctg7 110&lt;br&gt;Location: 128963 - 129557" locus_tag="ctg7_110" class="clusterblast-orf" id="dummy-1_q14_0_all"  />
<polygon points="175,40 182,40 187,35 182,30 175,30 175,40 " style="fill:#63d815; stroke-width:1; stroke:black; " description="&lt;b&gt;ctg7_111&lt;/b&gt;&lt;br&gt;ctg7 111&lt;br&gt;Location: 129699 - 130890" locus_tag="ctg7_111" class="clusterblast-orf" id="dummy-1_q15_0_all"  />
<polygon points="187,35 191,30 191,40 187,35 " style="fill:#15b1d8; stroke-width:1; stroke:black; " description="&lt;b&gt;ctg7_112&lt;/b&gt;&lt;br&gt;ctg7 112&lt;br&gt;Location: 130872 - 131238" locus_tag="ctg7_112" class="clusterblast-orf" id="dummy-1_q16_0_all"  />
<polygon points="191,35 194,30 194,40 191,35 " style="fill:#b115d8; stroke-width:1; stroke:black; " description="&lt;b&gt;ctg7_113&lt;/b&gt;&lt;br&gt;ctg7 113&lt;br&gt;Location: 131234 - 131486" locus_tag="ctg7_113" class="clusterblast-orf" id="dummy-1_q17_0_all"  />
<polygon points="196,40 336,40 341,35 336,30 196,30 196,40 " style="fill:#d86315; stroke-width:1; stroke:black; " description="&lt;b&gt;ctg7_114&lt;/b&gt;&lt;br&gt;ctg7 114&lt;br&gt;Location: 131695 - 145750" locus_tag="ctg7_114" class="clusterblast-orf" id="dummy-1_q18_0_all"  />
<polygon points="341,40 459,40 464,35 459,30 341,30 341,40 " style="fill:#d86315; stroke-width:1; stroke:black; " description="&lt;b&gt;ctg7_115&lt;/b&gt;&lt;br&gt;ctg7 115&lt;br&gt;Location: 145753 - 157606" locus_tag="ctg7_115" class="clusterblast-orf" id="dummy-1_q19_0_all"  />
<polygon points="465,35 470,30 491,30 491,40 470,40 465,35 " style="fill:#15d815; stroke-width:1; stroke:black; " description="&lt;b&gt;ctg7_116&lt;/b&gt;&lt;br&gt;ctg7 116&lt;br&gt;Location: 157750 - 160192" locus_tag="ctg7_116" class="clusterblast-orf" id="dummy-1_q20_0_all"  />
<polygon points="492,35 497,30 509,30 509,40 497,40 492,35 " style="fill:#1563d8; stroke-width:1; stroke:black; " description="&lt;b&gt;ctg7_117&lt;/b&gt;&lt;br&gt;ctg7 117&lt;br&gt;Location: 160301 - 161954" locus_tag="ctg7_117" class="clusterblast-orf" id="dummy-1_q21_0_all"  />
<polygon points="511,40 514,40 519,35 514,30 511,30 511,40 " style="fill:#d815b1; stroke-width:1; stroke:black; " description="&lt;b&gt;ctg7_118&lt;/b&gt;&lt;br&gt;ctg7 118&lt;br&gt;Location: 162152 - 162980" locus_tag="ctg7_118" class="clusterblast-orf" id="dummy-1_q22_0_all"  />
<polygon points="521,35 526,30 530,30 530,40 526,40 521,35 " style="fill:#d8b115; stroke-width:1; stroke:black; " description="&lt;b&gt;ctg7_119&lt;/b&gt;&lt;br&gt;ctg7 119&lt;br&gt;Location: 163122 - 163995" locus_tag="ctg7_119" class="clusterblast-orf" id="dummy-1_q23_0_all"  />
<polygon points="530,35 535,30 543,30 543,40 535,40 530,35 " style="fill:#15d863; stroke-width:1; stroke:black; " description="&lt;b&gt;ctg7_120&lt;/b&gt;&lt;br&gt;ctg7 120&lt;br&gt;Location: 164028 - 165309" locus_tag="ctg7_120" class="clusterblast-orf" id="dummy-1_q24_0_all"  />
<polygon points="544,35 549,30 558,30 558,40 549,40 544,35 " style="fill:#1515d8; stroke-width:1; stroke:black; " description="&lt;b&gt;ctg7_121&lt;/b&gt;&lt;br&gt;ctg7 121&lt;br&gt;Location: 165327 - 166677" locus_tag="ctg7_121" class="clusterblast-orf" id="dummy-1_q25_0_all"  />
<polygon points="559,40 571,40 576,35 571,30 559,30 559,40 " style="fill:#d81563; stroke-width:1; stroke:black; " description="&lt;b&gt;ctg7_122&lt;/b&gt;&lt;br&gt;ctg7 122&lt;br&gt;Location: 166819 - 168439" locus_tag="ctg7_122" class="clusterblast-orf" id="dummy-1_q26_0_all"  />
<polygon points="576,35 581,30 586,30 586,40 581,40 576,35 " style="fill:white; stroke-width:1; stroke:black; " description="&lt;b&gt;ctg7_123&lt;/b&gt;&lt;br&gt;ctg7 123&lt;br&gt;Location: 168431 - 169379" locus_tag="ctg7_123" class="clusterblast-orf" id="dummy-1_q27_0_all"  />
<polygon points="587,40 591,40 596,35 591,30 587,30 587,40 " style="fill:white; stroke-width:1; stroke:black; " description="&lt;b&gt;ctg7_124&lt;/b&gt;&lt;br&gt;ctg7 124&lt;br&gt;Location: 169522 - 170413" locus_tag="ctg7_124" class="clusterblast-orf" id="dummy-1_q28_0_all"  />
<polygon points="596,40 601,40 606,35 601,30 596,30 596,40 " style="fill:white; stroke-width:1; stroke:black; " description="&lt;b&gt;ctg7_125&lt;/b&gt;&lt;br&gt;ctg7 125&lt;br&gt;Location: 170412 - 171384" locus_tag="ctg7_125" class="clusterblast-orf" id="dummy-1_q29_0_all"  />
<polygon points="606,40 610,40 615,35 610,30 606,30 606,40 " style="fill:white; stroke-width:1; stroke:black; " description="&lt;b&gt;ctg7_126&lt;/b&gt;&lt;br&gt;ctg7 126&lt;br&gt;Location: 171380 - 172250" locus_tag="ctg7_126" class="clusterblast-orf" id="dummy-1_q30_0_all"  />
<polygon points="615,40 618,35 615,30 615,40 " style="fill:white; stroke-width:1; stroke:black; " description="&lt;b&gt;ctg7_127&lt;/b&gt;&lt;br&gt;ctg7 127&lt;br&gt;Location: 172264 - 172525" locus_tag="ctg7_127" class="clusterblast-orf" id="dummy-1_q31_0_all"  />
<polygon points="618,40 622,40 627,35 622,30 618,30 618,40 " style="fill:white; stroke-width:1; stroke:black; " description="&lt;b&gt;ctg7_128&lt;/b&gt;&lt;br&gt;ctg7 128&lt;br&gt;Location: 172521 - 173352" locus_tag="ctg7_128" class="clusterblast-orf" id="dummy-1_q32_0_all"  />
<polygon points="627,40 649,40 654,35 649,30 627,30 627,40 " style="fill:white; stroke-width:1; stroke:black; " description="&lt;b&gt;ctg7_129&lt;/b&gt;&lt;br&gt;ctg7 129&lt;br&gt;Location: 173365 - 176023" locus_tag="ctg7_129" class="clusterblast-orf" id="dummy-1_q33_0_all"  />
<polygon points="658,40 661,40 666,35 661,30 658,30 658,40 " style="fill:white; stroke-width:1; stroke:black; " description="&lt;b&gt;ctg7_130&lt;/b&gt;&lt;br&gt;ctg7 130&lt;br&gt;Location: 176424 - 177141" locus_tag="ctg7_130" class="clusterblast-orf" id="dummy-1_q34_0_all"  />
<polygon points="666,40 670,35 666,30 666,40 " style="fill:white; stroke-width:1; stroke:black; " description="&lt;b&gt;ctg7_131&lt;/b&gt;&lt;br&gt;ctg7 131&lt;br&gt;Location: 177193 - 177529" locus_tag="ctg7_131" class="clusterblast-orf" id="dummy-1_q35_0_all"  />
<polygon points="670,40 676,40 681,35 676,30 670,30 670,40 " style="fill:white; stroke-width:1; stroke:black; " description="&lt;b&gt;ctg7_132&lt;/b&gt;&lt;br&gt;ctg7 132&lt;br&gt;Location: 177544 - 178651" locus_tag="ctg7_132" class="clusterblast-orf" id="dummy-1_q36_0_all"  />
<polygon points="683,40 683,40 688,35 683,30 683,30 683,40 " style="fill:white; stroke-width:1; stroke:black; " description="&lt;b&gt;ctg7_133&lt;/b&gt;&lt;br&gt;ctg7 133&lt;br&gt;Location: 178813 - 179305" locus_tag="ctg7_133" class="clusterblast-orf" id="dummy-1_q37_0_all"  />
<polygon points="689,35 692,30 692,40 689,35 " style="fill:white; stroke-width:1; stroke:black; " description="&lt;b&gt;ctg7_134&lt;/b&gt;&lt;br&gt;ctg7 134&lt;br&gt;Location: 179406 - 179628" locus_tag="ctg7_134" class="clusterblast-orf" id="dummy-1_q38_0_all"  />
<polygon points="693,35 698,30 716,30 716,40 698,40 693,35 " style="fill:white; stroke-width:1; stroke:black; " description="&lt;b&gt;ctg7_135&lt;/b&gt;&lt;br&gt;ctg7 135&lt;br&gt;Location: 179769 - 181998" locus_tag="ctg7_135" class="clusterblast-orf" id="dummy-1_q39_0_all"  />
<polygon points="717,35 722,30 736,30 736,40 722,40 717,35 " style="fill:white; stroke-width:1; stroke:black; " description="&lt;b&gt;ctg7_136&lt;/b&gt;&lt;br&gt;ctg7 136&lt;br&gt;Location: 182124 - 183933" locus_tag="ctg7_136" class="clusterblast-orf" id="dummy-1_q40_0_all"  />
<polygon points="737,35 739,30 739,40 737,35 " style="fill:#b1d815; stroke-width:1; stroke:black; " description="&lt;b&gt;ctg7_137&lt;/b&gt;&lt;br&gt;ctg7 137&lt;br&gt;Location: 184031 - 184208" locus_tag="ctg7_137" class="clusterblast-orf" id="dummy-1_q41_0_all"  />
<polygon points="742,40 747,40 752,35 747,30 742,30 742,40 " style="fill:#15d8b1; stroke-width:1; stroke:black; " description="&lt;b&gt;ctg7_138&lt;/b&gt;&lt;br&gt;ctg7 138&lt;br&gt;Location: 184477 - 185461" locus_tag="ctg7_138" class="clusterblast-orf" id="dummy-1_q42_0_all"  />
<polygon points="752,40 763,40 768,35 763,30 752,30 752,40 " style="fill:#6315d8; stroke-width:1; stroke:black; " description="&lt;b&gt;ctg7_139&lt;/b&gt;&lt;br&gt;ctg7 139&lt;br&gt;Location: 185457 - 186981" locus_tag="ctg7_139" class="clusterblast-orf" id="dummy-1_q43_0_all"  />
<polygon points="768,40 771,40 776,35 771,30 768,30 768,40 " style="fill:white; stroke-width:1; stroke:black; " description="&lt;b&gt;ctg7_140&lt;/b&gt;&lt;br&gt;ctg7 140&lt;br&gt;Location: 186977 - 187802" locus_tag="ctg7_140" class="clusterblast-orf" id="dummy-1_q44_0_all"  />
<polygon points="777,35 780,30 780,40 777,35 " style="fill:white; stroke-width:1; stroke:black; " description="&lt;b&gt;ctg7_141&lt;/b&gt;&lt;br&gt;ctg7 141&lt;br&gt;Location: 187877 - 188138" locus_tag="ctg7_141" class="clusterblast-orf" id="dummy-1_q45_0_all"  />
</g>
<g label="BGC0002693" description="BGC0002693_c1: pyoverdine SMX-1 (38% of genes show similarity), NRP" class="clusterblast-cluster"  >
<text x="5" y="70" class="clusterblast-acc"  >
<a xlink:href="https://mibig.secondarymetabolites.org/go/BGC0002693/1" target="_blank">BGC0002693</a>: pyoverdine SMX-1                                                                 (38% of genes show similarity), NRP</text>
<line x1="10" y1="85" x2="778.0" y2="85" style="stroke-width:1; stroke:grey; "  />
</g>
<g id="a1_000"  >
<polygon points="45,85 50,80 54,80 54,90 50,90 45,85 " style="fill:white; stroke-width:1; stroke:black; " description="&lt;b&gt;DCC84_23265&lt;/b&gt;&lt;br&gt;alpha/beta hydrolase&lt;br&gt;Location: 66663 - 65755" locus_tag="DCC84_23265" class="clusterblast-orf" id="dummy-1_h1_1_0"  />
</g>
<g id="a1_001"  >
<polygon points="55,85 56,80 56,90 55,85 " style="fill:white; stroke-width:1; stroke:black; " description="&lt;b&gt;DCC84_23260&lt;/b&gt;&lt;br&gt;glyoxalase/bleomycin resistance/dioxygenase family protein&lt;br&gt;Location: 65705 - 65556" locus_tag="DCC84_23260" class="clusterblast-orf" id="dummy-1_h1_1_1"  />
</g>
<g id="a1_002"  >
<polygon points="56,85 57,80 57,90 56,85 " style="fill:white; stroke-width:1; stroke:black; " description="&lt;b&gt;DCC84_23255&lt;/b&gt;&lt;br&gt;NAD-dependent DNA ligase&lt;br&gt;Location: 65551 - 65483" locus_tag="DCC84_23255" class="clusterblast-orf" id="dummy-1_h1_1_2"  />
</g>
<g id="a1_003"  >
<polygon points="59,85 64,80 64,80 64,90 64,90 59,85 " style="fill:white; stroke-width:1; stroke:black; " description="&lt;b&gt;DCC84_23250&lt;/b&gt;&lt;br&gt;cysteine hydrolase family protein&lt;br&gt;Location: 65298 - 64837" locus_tag="DCC84_23250" class="clusterblast-orf" id="dummy-1_h1_1_3"  />
</g>
<g id="a1_004"  >
<polygon points="65,85 70,80 84,80 84,90 70,90 65,85 " style="fill:white; stroke-width:1; stroke:black; " description="&lt;b&gt;DCC84_23245&lt;/b&gt;&lt;br&gt;glycoside hydrolase family 15 protein&lt;br&gt;Location: 64700 - 62874" locus_tag="DCC84_23245" class="clusterblast-orf" id="dummy-1_h1_1_4"  />
</g>
<g id="a1_005"  >
<polygon points="84,85 89,80 92,80 92,90 89,90 84,85 " style="fill:white; stroke-width:1; stroke:black; " description="&lt;b&gt;DCC84_23240&lt;/b&gt;&lt;br&gt;SDR family oxidoreductase&lt;br&gt;Location: 62881 - 62081" locus_tag="DCC84_23240" class="clusterblast-orf" id="dummy-1_h1_1_5"  />
</g>
<g id="a1_006"  >
<polygon points="94,90 96,90 101,85 96,80 94,80 94,90 " style="fill:white; stroke-width:1; stroke:black; " description="&lt;b&gt;DCC84_23235&lt;/b&gt;&lt;br&gt;AraC family transcriptional regulator&lt;br&gt;Location: 61919 - 61176" locus_tag="DCC84_23235" class="clusterblast-orf" id="dummy-1_h1_1_6"  />
</g>
<g id="a1_007"  >
<polygon points="103,90 113,90 118,85 113,80 103,80 103,90 " style="fill:white; stroke-width:1; stroke:black; " description="&lt;b&gt;DCC84_23230&lt;/b&gt;&lt;br&gt;TolC family protein&lt;br&gt;Location: 61061 - 59613" locus_tag="DCC84_23230" class="clusterblast-orf" id="dummy-1_h1_1_7"  />
</g>
<g id="a1_008"  >
<polygon points="118,90 124,90 129,85 124,80 118,80 118,90 " style="fill:white; stroke-width:1; stroke:black; " description="&lt;b&gt;DCC84_23225&lt;/b&gt;&lt;br&gt;HlyD family secretion protein&lt;br&gt;Location: 59616 - 58486" locus_tag="DCC84_23225" class="clusterblast-orf" id="dummy-1_h1_1_8"  />
</g>
<g id="a1_009"  >
<polygon points="129,90 140,90 145,85 140,80 129,80 129,90 " style="fill:white; stroke-width:1; stroke:black; " description="&lt;b&gt;DCC84_23220&lt;/b&gt;&lt;br&gt;DHA2 family efflux MFS transporter permease subunit&lt;br&gt;Location: 58496 - 56988" locus_tag="DCC84_23220" class="clusterblast-orf" id="dummy-1_h1_1_9"  />
</g>
<g id="a1_0010"  >
<polygon points="147,90 148,85 147,80 147,90 " style="fill:white; stroke-width:1; stroke:black; " description="&lt;b&gt;DCC84_23215&lt;/b&gt;&lt;br&gt;helix-turn-helix domain-containing protein&lt;br&gt;Location: 56776 - 56669" locus_tag="DCC84_23215" class="clusterblast-orf" id="dummy-1_h1_1_10"  />
</g>
<g id="a1_0011"  >
<polygon points="151,85 152,80 152,90 151,85 " style="fill:white; stroke-width:1; stroke:black; " description="&lt;b&gt;DCC84_23210&lt;/b&gt;&lt;br&gt;helix-turn-helix domain-containing protein&lt;br&gt;Location: 56358 - 56263" locus_tag="DCC84_23210" class="clusterblast-orf" id="dummy-1_h1_1_11"  />
</g>
<g id="a1_0012"  >
<polygon points="154,85 159,80 160,80 160,90 159,90 154,85 " style="fill:#d81515; stroke-width:1; stroke:black; " description="&lt;b&gt;DCC84_23205&lt;/b&gt;&lt;br&gt;TetR/AcrR family transcriptional regulator&lt;br&gt;Location: 56080 - 55496&lt;br&gt;&lt;br&gt;&lt;b&gt;BlastP hit with ctg7_110&lt;/b&gt;&lt;br&gt;Percentage identity: 77&lt;br&gt;Percentage coverage: 96&lt;br&gt;BLAST bit score: 273&lt;br&gt;E-value: 4.17e-94" locus_tag="DCC84_23205" class="clusterblast-orf" id="dummy-1_h1_1_12"  />
</g>
<g id="a1_0013"  >
<polygon points="162,90 169,90 174,85 169,80 162,80 162,90 " style="fill:#63d815; stroke-width:1; stroke:black; " description="&lt;b&gt;DCC84_23200&lt;/b&gt;&lt;br&gt;MFS transporter&lt;br&gt;Location: 55361 - 54189&lt;br&gt;&lt;br&gt;&lt;b&gt;BlastP hit with ctg7_111&lt;/b&gt;&lt;br&gt;Percentage identity: 87&lt;br&gt;Percentage coverage: 98&lt;br&gt;BLAST bit score: 647&lt;br&gt;E-value: 1.21e-235" locus_tag="DCC84_23200" class="clusterblast-orf" id="dummy-1_h1_1_13"  />
</g>
<g id="a1_0014"  >
<polygon points="174,85 177,80 177,90 174,85 " style="fill:#15b1d8; stroke-width:1; stroke:black; " description="&lt;b&gt;DCC84_23195&lt;/b&gt;&lt;br&gt;type II toxin-antitoxin system HicB family antitoxin&lt;br&gt;Location: 54188 - 53832&lt;br&gt;&lt;br&gt;&lt;b&gt;BlastP hit with ctg7_112&lt;/b&gt;&lt;br&gt;Percentage identity: 89&lt;br&gt;Percentage coverage: 94&lt;br&gt;BLAST bit score: 206&lt;br&gt;E-value: 5.13e-70" locus_tag="DCC84_23195" class="clusterblast-orf" id="dummy-1_h1_1_14"  />
</g>
<g id="a1_0015"  >
<polygon points="177,85 180,80 180,90 177,85 " style="fill:#b115d8; stroke-width:1; stroke:black; " description="&lt;b&gt;DCC84_23190&lt;/b&gt;&lt;br&gt;type II toxin-antitoxin system HicA family toxin&lt;br&gt;Location: 53835 - 53584&lt;br&gt;&lt;br&gt;&lt;b&gt;BlastP hit with ctg7_113&lt;/b&gt;&lt;br&gt;Percentage identity: 93&lt;br&gt;Percentage coverage: 100&lt;br&gt;BLAST bit score: 157&lt;br&gt;E-value: 4.2e-52" locus_tag="DCC84_23190" class="clusterblast-orf" id="dummy-1_h1_1_15"  />
</g>
<g id="a1_0016"  >
<polygon points="182,90 305,90 310,85 305,80 182,80 182,90 " style="fill:#d86315; stroke-width:1; stroke:black; " description="&lt;b&gt;DCC84_23185&lt;/b&gt;&lt;br&gt;amino acid adenylation domain-containing protein&lt;br&gt;Location: 53374 - 41006&lt;br&gt;&lt;br&gt;&lt;b&gt;BlastP hit with ctg7_114&lt;/b&gt;&lt;br&gt;Percentage identity: 54&lt;br&gt;Percentage coverage: 88&lt;br&gt;BLAST bit score: 3900&lt;br&gt;E-value: 0.0" locus_tag="DCC84_23185" class="clusterblast-orf" id="dummy-1_h1_1_16"  />
</g>
<g id="a1_0017"  >
<polygon points="310,90 420,90 425,85 420,80 310,80 310,90 " style="fill:#d86315; stroke-width:1; stroke:black; " description="&lt;b&gt;DCC84_23180&lt;/b&gt;&lt;br&gt;amino acid adenylation domain-containing protein&lt;br&gt;Location: 41003 - 29943&lt;br&gt;&lt;br&gt;&lt;b&gt;BlastP hit with ctg7_114&lt;/b&gt;&lt;br&gt;Percentage identity: 51&lt;br&gt;Percentage coverage: 56&lt;br&gt;BLAST bit score: 2351&lt;br&gt;E-value: 0.0&lt;br&gt;&lt;br&gt;&lt;b&gt;BlastP hit with ctg7_115&lt;/b&gt;&lt;br&gt;Percentage identity: 55&lt;br&gt;Percentage coverage: 94&lt;br&gt;BLAST bit score: 3665&lt;br&gt;E-value: 0.0" locus_tag="DCC84_23180" class="clusterblast-orf" id="dummy-1_h1_1_17"  />
</g>
<g id="a1_0018"  >
<polygon points="425,90 547,90 552,85 547,80 425,80 425,90 " style="fill:#d86315; stroke-width:1; stroke:black; " description="&lt;b&gt;DCC84_23175&lt;/b&gt;&lt;br&gt;amino acid adenylation domain-containing protein&lt;br&gt;Location: 29943 - 17614&lt;br&gt;&lt;br&gt;&lt;b&gt;BlastP hit with ctg7_114&lt;/b&gt;&lt;br&gt;Percentage identity: 50&lt;br&gt;Percentage coverage: 62&lt;br&gt;BLAST bit score: 2557&lt;br&gt;E-value: 0.0&lt;br&gt;&lt;br&gt;&lt;b&gt;BlastP hit with ctg7_115&lt;/b&gt;&lt;br&gt;Percentage identity: 50&lt;br&gt;Percentage coverage: 94&lt;br&gt;BLAST bit score: 3316&lt;br&gt;E-value: 0.0" locus_tag="DCC84_23175" class="clusterblast-orf" id="dummy-1_h1_1_18"  />
</g>
<g id="a1_0019"  >
<polygon points="553,90 558,90 563,85 558,80 553,80 553,90 " style="fill:white; stroke-width:1; stroke:black; " description="&lt;b&gt;DCC84_23170&lt;/b&gt;&lt;br&gt;alpha/beta hydrolase&lt;br&gt;Location: 17529 - 16567" locus_tag="DCC84_23170" class="clusterblast-orf" id="dummy-1_h1_1_19"  />
</g>
<g id="a1_0020"  >
<polygon points="563,85 568,80 589,80 589,90 568,90 563,85 " style="fill:white; stroke-width:1; stroke:black; " description="&lt;b&gt;DCC84_23165&lt;/b&gt;&lt;br&gt;TonB-dependent siderophore receptor&lt;br&gt;Location: 16516 - 14051" locus_tag="DCC84_23165" class="clusterblast-orf" id="dummy-1_h1_1_20"  />
</g>
<g id="a1_0021"  >
<polygon points="590,85 595,80 607,80 607,90 595,90 590,85 " style="fill:#1563d8; stroke-width:1; stroke:black; " description="&lt;b&gt;DCC84_23160&lt;/b&gt;&lt;br&gt;cyclic peptide export ABC transporter&lt;br&gt;Location: 13953 - 12304&lt;br&gt;&lt;br&gt;&lt;b&gt;BlastP hit with ctg7_117&lt;/b&gt;&lt;br&gt;Percentage identity: 73&lt;br&gt;Percentage coverage: 100&lt;br&gt;BLAST bit score: 765&lt;br&gt;E-value: 4.66e-277" locus_tag="DCC84_23160" class="clusterblast-orf" id="dummy-1_h1_1_21"  />
</g>
<g id="a1_0022"  >
<polygon points="609,85 614,80 618,80 618,90 614,90 609,85 " style="fill:#d8b115; stroke-width:1; stroke:black; " description="&lt;b&gt;DCC84_23155&lt;/b&gt;&lt;br&gt;formylglycine-generating enzyme family protein&lt;br&gt;Location: 12152 - 11277&lt;br&gt;&lt;br&gt;&lt;b&gt;BlastP hit with ctg7_119&lt;/b&gt;&lt;br&gt;Percentage identity: 84&lt;br&gt;Percentage coverage: 98&lt;br&gt;BLAST bit score: 516&lt;br&gt;E-value: 4.08e-187" locus_tag="DCC84_23155" class="clusterblast-orf" id="dummy-1_h1_1_22"  />
</g>
<g id="a1_0023"  >
<polygon points="618,85 623,80 631,80 631,90 623,90 618,85 " style="fill:#15d863; stroke-width:1; stroke:black; " description="&lt;b&gt;DCC84_23150&lt;/b&gt;&lt;br&gt;aminotransferase class V-fold PLP-dependent enzyme&lt;br&gt;Location: 11245 - 9968&lt;br&gt;&lt;br&gt;&lt;b&gt;BlastP hit with ctg7_120&lt;/b&gt;&lt;br&gt;Percentage identity: 84&lt;br&gt;Percentage coverage: 100&lt;br&gt;BLAST bit score: 729&lt;br&gt;E-value: 7.51e-267" locus_tag="DCC84_23150" class="clusterblast-orf" id="dummy-1_h1_1_23"  />
</g>
<g id="a1_0024"  >
<polygon points="631,85 636,80 645,80 645,90 636,90 631,85 " style="fill:#1515d8; stroke-width:1; stroke:black; " description="&lt;b&gt;DCC84_23145&lt;/b&gt;&lt;br&gt;membrane dipeptidase&lt;br&gt;Location: 9940 - 8591&lt;br&gt;&lt;br&gt;&lt;b&gt;BlastP hit with ctg7_121&lt;/b&gt;&lt;br&gt;Percentage identity: 93&lt;br&gt;Percentage coverage: 100&lt;br&gt;BLAST bit score: 861&lt;br&gt;E-value: 2.52e-318" locus_tag="DCC84_23145" class="clusterblast-orf" id="dummy-1_h1_1_24"  />
</g>
<g id="a1_0025"  >
<polygon points="647,90 659,90 664,85 659,80 647,80 647,90 " style="fill:#d81563; stroke-width:1; stroke:black; " description="&lt;b&gt;DCC84_23140&lt;/b&gt;&lt;br&gt;PvdJ/PvdD/PvdP-like protein&lt;br&gt;Location: 8438 - 6810&lt;br&gt;&lt;br&gt;&lt;b&gt;BlastP hit with ctg7_122&lt;/b&gt;&lt;br&gt;Percentage identity: 87&lt;br&gt;Percentage coverage: 100&lt;br&gt;BLAST bit score: 995&lt;br&gt;E-value: 0.0" locus_tag="DCC84_23140" class="clusterblast-orf" id="dummy-1_h1_1_25"  />
</g>
<g id="a1_0026"  >
<polygon points="664,85 669,80 679,80 679,90 669,90 664,85 " style="fill:white; stroke-width:1; stroke:black; " description="&lt;b&gt;DCC84_23135&lt;/b&gt;&lt;br&gt;efflux transporter outer membrane subunit&lt;br&gt;Location: 6765 - 5356" locus_tag="DCC84_23135" class="clusterblast-orf" id="dummy-1_h1_1_26"  />
</g>
<g id="a1_0027"  >
<polygon points="679,85 684,80 699,80 699,90 684,90 679,85 " style="fill:white; stroke-width:1; stroke:black; " description="&lt;b&gt;DCC84_23130&lt;/b&gt;&lt;br&gt;MacB family efflux pump subunit&lt;br&gt;Location: 5348 - 3378" locus_tag="DCC84_23130" class="clusterblast-orf" id="dummy-1_h1_1_27"  />
</g>
<g id="a1_0028"  >
<polygon points="699,85 704,80 711,80 711,90 704,90 699,85 " style="fill:white; stroke-width:1; stroke:black; " description="&lt;b&gt;DCC84_23125&lt;/b&gt;&lt;br&gt;efflux RND transporter periplasmic adaptor subunit&lt;br&gt;Location: 3377 - 2205" locus_tag="DCC84_23125" class="clusterblast-orf" id="dummy-1_h1_1_28"  />
</g>
<g id="a1_0029"  >
<polygon points="714,90 714,90 719,85 714,80 714,80 714,90 " style="fill:white; stroke-width:1; stroke:black; " description="&lt;b&gt;DCC84_23120&lt;/b&gt;&lt;br&gt;sigma-70 family RNA polymerase sigma factor&lt;br&gt;Location: 1948 - 1466" locus_tag="DCC84_23120" class="clusterblast-orf" id="dummy-1_h1_1_29"  />
</g>
<g id="a1_0030"  >
<polygon points="720,90 729,90 734,85 729,80 720,80 720,90 " style="fill:white; stroke-width:1; stroke:black; " description="&lt;b&gt;DCC84_23115&lt;/b&gt;&lt;br&gt;ornithine monooxygenase&lt;br&gt;Location: 1338 - 1" locus_tag="DCC84_23115" class="clusterblast-orf" id="dummy-1_h1_1_30"  />
</g>
</svg>
