<svg xmlns="http://www.w3.org/2000/svg" xmlns:xlink="http://www.w3.org/1999/xlink" version="1.1" x="0" y="0" height="230" width="800" viewBox="0 0 800 230" preserveAspectRatio="none"  >
<g label="Query sequence" class="clusterblast-cluster"  >
<text x="5" y="20" class="clusterblast-acc"  >
Query sequence</text>
<line x1="10" y1="35" x2="778.0" y2="35" style="stroke-width:1; stroke:grey; "  />
<polygon points="0,40 0,40 5,35 0,30 0,30 0,40 " style="fill:white; stroke-width:1; stroke:black; " description="&lt;b&gt;ctg2_285&lt;/b&gt;&lt;br&gt;ctg2 285&lt;br&gt;Location: 319763 - 320114" locus_tag="ctg2_285" class="clusterblast-orf" id="dummy-2_q0_0_all"  />
<polygon points="5,40 5,40 10,35 5,30 5,30 5,40 " style="fill:white; stroke-width:1; stroke:black; " description="&lt;b&gt;ctg2_286&lt;/b&gt;&lt;br&gt;ctg2 286&lt;br&gt;Location: 320137 - 320464" locus_tag="ctg2_286" class="clusterblast-orf" id="dummy-2_q1_0_all"  />
<polygon points="11,40 14,40 19,35 14,30 11,30 11,40 " style="fill:white; stroke-width:1; stroke:black; " description="&lt;b&gt;ctg2_287&lt;/b&gt;&lt;br&gt;ctg2 287&lt;br&gt;Location: 320495 - 321041" locus_tag="ctg2_287" class="clusterblast-orf" id="dummy-2_q2_0_all"  />
<polygon points="20,40 29,40 34,35 29,30 20,30 20,40 " style="fill:white; stroke-width:1; stroke:black; " description="&lt;b&gt;ctg2_288&lt;/b&gt;&lt;br&gt;ctg2 288&lt;br&gt;Location: 321131 - 322052" locus_tag="ctg2_288" class="clusterblast-orf" id="dummy-2_q3_0_all"  />
<polygon points="33,35 38,30 43,30 43,40 38,40 33,35 " style="fill:white; stroke-width:1; stroke:black; " description="&lt;b&gt;ctg2_289&lt;/b&gt;&lt;br&gt;ctg2 289&lt;br&gt;Location: 322010 - 322670" locus_tag="ctg2_289" class="clusterblast-orf" id="dummy-2_q4_0_all"  />
<polygon points="43,35 48,30 57,30 57,40 48,40 43,35 " style="fill:white; stroke-width:1; stroke:black; " description="&lt;b&gt;ctg2_290&lt;/b&gt;&lt;br&gt;ctg2 290&lt;br&gt;Location: 322666 - 323560" locus_tag="ctg2_290" class="clusterblast-orf" id="dummy-2_q5_0_all"  />
<polygon points="62,35 67,30 69,30 69,40 67,40 62,35 " style="fill:white; stroke-width:1; stroke:black; " description="&lt;b&gt;ctg2_291&lt;/b&gt;&lt;br&gt;ctg2 291&lt;br&gt;Location: 323943 - 324393" locus_tag="ctg2_291" class="clusterblast-orf" id="dummy-2_q6_0_all"  />
<polygon points="77,40 86,40 91,35 86,30 77,30 77,40 " style="fill:white; stroke-width:1; stroke:black; " description="&lt;b&gt;ctg2_292&lt;/b&gt;&lt;br&gt;ctg2 292&lt;br&gt;Location: 324926 - 325862" locus_tag="ctg2_292" class="clusterblast-orf" id="dummy-2_q7_0_all"  />
<polygon points="92,40 99,40 104,35 99,30 92,30 92,40 " style="fill:white; stroke-width:1; stroke:black; " description="&lt;b&gt;ctg2_293&lt;/b&gt;&lt;br&gt;ctg2 293&lt;br&gt;Location: 325900 - 326707" locus_tag="ctg2_293" class="clusterblast-orf" id="dummy-2_q8_0_all"  />
<polygon points="105,35 109,30 109,40 105,35 " style="fill:white; stroke-width:1; stroke:black; " description="&lt;b&gt;ctg2_294&lt;/b&gt;&lt;br&gt;ctg2 294&lt;br&gt;Location: 326771 - 327056" locus_tag="ctg2_294" class="clusterblast-orf" id="dummy-2_q9_0_all"  />
<polygon points="110,35 115,30 118,30 118,40 115,40 110,35 " style="fill:white; stroke-width:1; stroke:black; " description="&lt;b&gt;ctg2_295&lt;/b&gt;&lt;br&gt;ctg2 295&lt;br&gt;Location: 327121 - 327664" locus_tag="ctg2_295" class="clusterblast-orf" id="dummy-2_q10_0_all"  />
<polygon points="119,35 124,30 148,30 148,40 124,40 119,35 " style="fill:#d81515; stroke-width:1; stroke:black; " description="&lt;b&gt;ctg2_296&lt;/b&gt;&lt;br&gt;ctg2 296&lt;br&gt;Location: 327755 - 329678" locus_tag="ctg2_296" class="clusterblast-orf" id="dummy-2_q11_0_all"  />
<polygon points="150,35 155,30 161,30 161,40 155,40 150,35 " style="fill:white; stroke-width:1; stroke:black; " description="&lt;b&gt;ctg2_297&lt;/b&gt;&lt;br&gt;ctg2 297&lt;br&gt;Location: 329789 - 330557" locus_tag="ctg2_297" class="clusterblast-orf" id="dummy-2_q12_0_all"  />
<polygon points="161,35 166,30 179,30 179,40 166,40 161,35 " style="fill:white; stroke-width:1; stroke:black; " description="&lt;b&gt;ctg2_298&lt;/b&gt;&lt;br&gt;ctg2 298&lt;br&gt;Location: 330553 - 331711" locus_tag="ctg2_298" class="clusterblast-orf" id="dummy-2_q13_0_all"  />
<polygon points="179,35 184,30 203,30 203,40 184,40 179,35 " style="fill:#43d815; stroke-width:1; stroke:black; " description="&lt;b&gt;ctg2_299&lt;/b&gt;&lt;br&gt;ctg2 299&lt;br&gt;Location: 331727 - 333344" locus_tag="ctg2_299" class="clusterblast-orf" id="dummy-2_q14_0_all"  />
<polygon points="203,35 208,30 216,30 216,40 208,40 203,35 " style="fill:white; stroke-width:1; stroke:black; " description="&lt;b&gt;ctg2_300&lt;/b&gt;&lt;br&gt;ctg2 300&lt;br&gt;Location: 333347 - 334220" locus_tag="ctg2_300" class="clusterblast-orf" id="dummy-2_q15_0_all"  />
<polygon points="216,35 221,30 243,30 243,40 221,40 216,35 " style="fill:white; stroke-width:1; stroke:black; " description="&lt;b&gt;ctg2_301&lt;/b&gt;&lt;br&gt;ctg2 301&lt;br&gt;Location: 334232 - 336011" locus_tag="ctg2_301" class="clusterblast-orf" id="dummy-2_q16_0_all"  />
<polygon points="245,40 250,40 255,35 250,30 245,30 245,40 " style="fill:white; stroke-width:1; stroke:black; " description="&lt;b&gt;ctg2_302&lt;/b&gt;&lt;br&gt;ctg2 302&lt;br&gt;Location: 336164 - 336788" locus_tag="ctg2_302" class="clusterblast-orf" id="dummy-2_q17_0_all"  />
<polygon points="256,40 263,40 268,35 263,30 256,30 256,40 " style="fill:white; stroke-width:1; stroke:black; " description="&lt;b&gt;ctg2_303&lt;/b&gt;&lt;br&gt;ctg2 303&lt;br&gt;Location: 336881 - 337670" locus_tag="ctg2_303" class="clusterblast-orf" id="dummy-2_q18_0_all"  />
<polygon points="269,35 274,30 277,30 277,40 274,40 269,35 " style="fill:#15b6d8; stroke-width:1; stroke:black; " description="&lt;b&gt;ctg2_304&lt;/b&gt;&lt;br&gt;ctg2 304&lt;br&gt;Location: 337708 - 338260" locus_tag="ctg2_304" class="clusterblast-orf" id="dummy-2_q19_0_all"  />
<polygon points="281,40 288,40 293,35 288,30 281,30 281,40 " style="fill:#8815d8; stroke-width:1; stroke:black; " description="&lt;b&gt;ctg2_305&lt;/b&gt;&lt;br&gt;ctg2 305&lt;br&gt;Location: 338560 - 339313" locus_tag="ctg2_305" class="clusterblast-orf" id="dummy-2_q20_0_all"  />
<polygon points="293,40 482,40 487,35 482,30 293,30 293,40 " style="fill:#d85a15; stroke-width:1; stroke:black; " description="&lt;b&gt;ctg2_306&lt;/b&gt;&lt;br&gt;ctg2 306&lt;br&gt;Location: 339363 - 352260" locus_tag="ctg2_306" class="clusterblast-orf" id="dummy-2_q21_0_all"  />
<polygon points="502,40 506,40 511,35 506,30 502,30 502,40 " style="fill:#15d82c; stroke-width:1; stroke:black; " description="&lt;b&gt;ctg2_307&lt;/b&gt;&lt;br&gt;ctg2 307&lt;br&gt;Location: 353279 - 353915" locus_tag="ctg2_307" class="clusterblast-orf" id="dummy-2_q22_0_all"  />
<polygon points="512,40 523,40 528,35 523,30 512,30 512,40 " style="fill:#1571d8; stroke-width:1; stroke:black; " description="&lt;b&gt;ctg2_308&lt;/b&gt;&lt;br&gt;ctg2 308&lt;br&gt;Location: 353955 - 355020" locus_tag="ctg2_308" class="clusterblast-orf" id="dummy-2_q23_0_all"  />
<polygon points="531,35 536,30 542,30 542,40 536,40 531,35 " style="fill:#cd15d8; stroke-width:1; stroke:black; " description="&lt;b&gt;ctg2_309&lt;/b&gt;&lt;br&gt;ctg2 309&lt;br&gt;Location: 355221 - 355983" locus_tag="ctg2_309" class="clusterblast-orf" id="dummy-2_q24_0_all"  />
<polygon points="542,35 547,30 555,30 555,40 547,40 542,35 " style="fill:#d89f15; stroke-width:1; stroke:black; " description="&lt;b&gt;ctg2_310&lt;/b&gt;&lt;br&gt;ctg2 310&lt;br&gt;Location: 355958 - 356810" locus_tag="ctg2_310" class="clusterblast-orf" id="dummy-2_q25_0_all"  />
<polygon points="555,35 560,30 581,30 581,40 560,40 555,35 " style="fill:#15d871; stroke-width:1; stroke:black; " description="&lt;b&gt;ctg2_311&lt;/b&gt;&lt;br&gt;ctg2 311&lt;br&gt;Location: 356809 - 358555" locus_tag="ctg2_311" class="clusterblast-orf" id="dummy-2_q26_0_all"  />
<polygon points="584,40 589,40 594,35 589,30 584,30 584,40 " style="fill:#152cd8; stroke-width:1; stroke:black; " description="&lt;b&gt;ctg2_312&lt;/b&gt;&lt;br&gt;ctg2 312&lt;br&gt;Location: 358731 - 359427" locus_tag="ctg2_312" class="clusterblast-orf" id="dummy-2_q27_0_all"  />
<polygon points="594,40 609,40 614,35 609,30 594,30 594,40 " style="fill:#d8159f; stroke-width:1; stroke:black; " description="&lt;b&gt;ctg2_313&lt;/b&gt;&lt;br&gt;ctg2 313&lt;br&gt;Location: 359423 - 360746" locus_tag="ctg2_313" class="clusterblast-orf" id="dummy-2_q28_0_all"  />
<polygon points="616,40 622,40 627,35 622,30 616,30 616,40 " style="fill:white; stroke-width:1; stroke:black; " description="&lt;b&gt;ctg2_314&lt;/b&gt;&lt;br&gt;ctg2 314&lt;br&gt;Location: 360870 - 361638" locus_tag="ctg2_314" class="clusterblast-orf" id="dummy-2_q29_0_all"  />
<polygon points="630,40 646,40 651,35 646,30 630,30 630,40 " style="fill:#cdd815; stroke-width:1; stroke:black; " description="&lt;b&gt;ctg2_315&lt;/b&gt;&lt;br&gt;ctg2 315&lt;br&gt;Location: 361834 - 363247" locus_tag="ctg2_315" class="clusterblast-orf" id="dummy-2_q30_0_all"  />
<polygon points="653,40 656,35 653,30 653,40 " style="fill:#15d8b6; stroke-width:1; stroke:black; " description="&lt;b&gt;ctg2_316&lt;/b&gt;&lt;br&gt;ctg2 316&lt;br&gt;Location: 363330 - 363555" locus_tag="ctg2_316" class="clusterblast-orf" id="dummy-2_q31_0_all"  />
<polygon points="658,35 663,30 678,30 678,40 663,40 658,35 " style="fill:white; stroke-width:1; stroke:black; " description="&lt;b&gt;ctg2_317&lt;/b&gt;&lt;br&gt;ctg2 317&lt;br&gt;Location: 363671 - 365018" locus_tag="ctg2_317" class="clusterblast-orf" id="dummy-2_q32_0_all"  />
<polygon points="678,35 683,30 711,30 711,40 683,40 678,35 " style="fill:white; stroke-width:1; stroke:black; " description="&lt;b&gt;ctg2_318&lt;/b&gt;&lt;br&gt;ctg2 318&lt;br&gt;Location: 365035 - 367201" locus_tag="ctg2_318" class="clusterblast-orf" id="dummy-2_q33_0_all"  />
<polygon points="712,35 714,30 714,40 712,35 " style="fill:white; stroke-width:1; stroke:black; " description="&lt;b&gt;ctg2_319&lt;/b&gt;&lt;br&gt;ctg2 319&lt;br&gt;Location: 367273 - 367450" locus_tag="ctg2_319" class="clusterblast-orf" id="dummy-2_q34_0_all"  />
<polygon points="718,35 723,30 737,30 737,40 723,40 718,35 " style="fill:white; stroke-width:1; stroke:black; " description="&lt;b&gt;ctg2_320&lt;/b&gt;&lt;br&gt;ctg2 320&lt;br&gt;Location: 367670 - 368960" locus_tag="ctg2_320" class="clusterblast-orf" id="dummy-2_q35_0_all"  />
<polygon points="739,35 744,30 748,30 748,40 744,40 739,35 " style="fill:white; stroke-width:1; stroke:black; " description="&lt;b&gt;ctg2_321&lt;/b&gt;&lt;br&gt;ctg2 321&lt;br&gt;Location: 369070 - 369706" locus_tag="ctg2_321" class="clusterblast-orf" id="dummy-2_q36_0_all"  />
<polygon points="750,35 753,30 753,40 750,35 " style="fill:#4315d8; stroke-width:1; stroke:black; " description="&lt;b&gt;ctg2_322&lt;/b&gt;&lt;br&gt;ctg2 322&lt;br&gt;Location: 369802 - 370057" locus_tag="ctg2_322" class="clusterblast-orf" id="dummy-2_q37_0_all"  />
<polygon points="753,35 758,30 766,30 766,40 758,40 753,35 " style="fill:#d8155a; stroke-width:1; stroke:black; " description="&lt;b&gt;ctg2_323&lt;/b&gt;&lt;br&gt;ctg2 323&lt;br&gt;Location: 370060 - 370873" locus_tag="ctg2_323" class="clusterblast-orf" id="dummy-2_q38_0_all"  />
<polygon points="769,35 774,30 780,30 780,40 774,40 769,35 " style="fill:#88d815; stroke-width:1; stroke:black; " description="&lt;b&gt;ctg2_324&lt;/b&gt;&lt;br&gt;ctg2 324&lt;br&gt;Location: 371073 - 371811" locus_tag="ctg2_324" class="clusterblast-orf" id="dummy-2_q39_0_all"  />
</g>
<g label="BGC0001189" description="BGC0001189_c1: taiwachelin (16% of genes show similarity), NRP" class="clusterblast-cluster"  >
<text x="5" y="70" class="clusterblast-acc"  >
<a xlink:href="https://mibig.secondarymetabolites.org/go/BGC0001189/1" target="_blank">BGC0001189</a>: taiwachelin                                                                      (16% of genes show similarity), NRP</text>
<line x1="10" y1="85" x2="778.0" y2="85" style="stroke-width:1; stroke:grey; "  />
</g>
<g id="a2_000"  >
<polygon points="75,90 77,90 82,85 77,80 75,80 75,90 " style="fill:white; stroke-width:1; stroke:black; " description="&lt;b&gt;RALTA_B1222&lt;/b&gt;&lt;br&gt;putative cyclase/dehydrase; putatively involved in polyketide (linear poly-beta-ketones) synthesis; antibiotic biosynthesis&lt;br&gt;Location: 1 - 417" locus_tag="RALTA_B1222" class="clusterblast-orf" id="dummy-2_h2_9_0"  />
</g>
<g id="a2_001"  >
<polygon points="85,90 88,85 85,80 85,90 " style="fill:#15d8b6; stroke-width:1; stroke:black; " description="&lt;b&gt;RALTA_B1223&lt;/b&gt;&lt;br&gt;conserved hypothetical protein, mbtH-like&lt;br&gt;Location: 634 - 855&lt;br&gt;&lt;br&gt;&lt;b&gt;BlastP hit with ctg2_316&lt;/b&gt;&lt;br&gt;Percentage identity: 69&lt;br&gt;Percentage coverage: 91&lt;br&gt;BLAST bit score: 102&lt;br&gt;E-value: 1.43e-30" locus_tag="RALTA_B1223" class="clusterblast-orf" id="dummy-2_h2_9_1"  />
</g>
<g id="a2_002"  >
<polygon points="88,90 94,90 99,85 94,80 88,80 88,90 " style="fill:#8815d8; stroke-width:1; stroke:black; " description="&lt;b&gt;RALTA_B1224&lt;/b&gt;&lt;br&gt;Linear gramicidin dehydrogenase, type II thioesterase&lt;br&gt;Location: 858 - 1592&lt;br&gt;&lt;br&gt;&lt;b&gt;BlastP hit with ctg2_305&lt;/b&gt;&lt;br&gt;Percentage identity: 48&lt;br&gt;Percentage coverage: 89&lt;br&gt;BLAST bit score: 200&lt;br&gt;E-value: 5.08e-64" locus_tag="RALTA_B1224" class="clusterblast-orf" id="dummy-2_h2_9_2"  />
</g>
<g id="a2_003"  >
<polygon points="100,90 163,90 168,85 163,80 100,80 100,90 " style="fill:white; stroke-width:1; stroke:black; " description="&lt;b&gt;RALTA_B1225&lt;/b&gt;&lt;br&gt;non ribosomal peptide synthase, antibiotic synthesis; contains 1 condensation domain, 1 AMP-acid ligases II domain, PP-binding, Phosphopantetheine attachment site and one taurine catabolism dioxygenase&lt;br&gt;Location: 1649 - 6169" locus_tag="RALTA_B1225" class="clusterblast-orf" id="dummy-2_h2_9_3"  />
</g>
<g id="a2_004"  >
<polygon points="168,90 210,90 215,85 210,80 168,80 168,90 " style="fill:white; stroke-width:1; stroke:black; " description="&lt;b&gt;RALTA_B1226&lt;/b&gt;&lt;br&gt;non ribosomal peptide synthase, antibiotic synthesis; contains 1 condensation domain, 1 AMP-acid ligases II domain&lt;br&gt;Location: 6174 - 9353" locus_tag="RALTA_B1226" class="clusterblast-orf" id="dummy-2_h2_9_4"  />
</g>
<g id="a2_005"  >
<polygon points="216,90 328,90 333,85 328,80 216,80 216,90 " style="fill:white; stroke-width:1; stroke:black; " description="&lt;b&gt;RALTA_B1227&lt;/b&gt;&lt;br&gt;non ribosomal peptide synthase, antibiotic synthesis; contains 3 condensation domains, 2 AMP-acid ligases II domains, 2 PP-binding, Phosphopantetheine attachment site&lt;br&gt;Location: 9378 - 17168" locus_tag="RALTA_B1227" class="clusterblast-orf" id="dummy-2_h2_9_5"  />
</g>
<g id="a2_006"  >
<polygon points="333,90 505,90 510,85 505,80 333,80 333,90 " style="fill:white; stroke-width:1; stroke:black; " description="&lt;b&gt;RALTA_B1228&lt;/b&gt;&lt;br&gt;non ribosomal peptide synthase, antibiotic synthesis; contains 4 condensation domains, 3 AMP-acid ligases II domains, 3 PP-binding, Phosphopantetheine attachment site and a putative thioesterase domain&lt;br&gt;Location: 17169 - 29036" locus_tag="RALTA_B1228" class="clusterblast-orf" id="dummy-2_h2_9_6"  />
</g>
<g id="a2_007"  >
<polygon points="512,90 540,90 545,85 540,80 512,80 512,90 " style="fill:white; stroke-width:1; stroke:black; " description="&lt;b&gt;RALTA_B1229&lt;/b&gt;&lt;br&gt;TonB-dependent siderophore receptor, HYDROXAMATE-TYPE FERRISIDEROPHORE RECEPTOR precursor&lt;br&gt;Location: 29126 - 31342" locus_tag="RALTA_B1229" class="clusterblast-orf" id="dummy-2_h2_9_7"  />
</g>
<g id="a2_008"  >
<polygon points="546,90 559,90 564,85 559,80 546,80 546,90 " style="fill:white; stroke-width:1; stroke:black; " description="&lt;b&gt;RALTA_B1230&lt;/b&gt;&lt;br&gt;conserved hypothetical protein; putative Membrane protein; DUF337,Uncharacterized iron-regulated membrane protein&lt;br&gt;Location: 31421 - 32599" locus_tag="RALTA_B1230" class="clusterblast-orf" id="dummy-2_h2_9_8"  />
</g>
<g id="a2_009"  >
<polygon points="564,90 567,85 564,80 564,90 " style="fill:white; stroke-width:1; stroke:black; " description="&lt;b&gt;RALTA_B1231&lt;/b&gt;&lt;br&gt;hypothetical protein; putative exported protein&lt;br&gt;Location: 32596 - 32790" locus_tag="RALTA_B1231" class="clusterblast-orf" id="dummy-2_h2_9_9"  />
</g>
<g id="a2_0010"  >
<polygon points="566,85 571,80 578,80 578,90 571,90 566,85 " style="fill:white; stroke-width:1; stroke:black; " description="&lt;b&gt;RALTA_B1232&lt;/b&gt;&lt;br&gt;putative reductase; Uncharacterized Fe-S protein&lt;br&gt;Location: 32732 - 33523" locus_tag="RALTA_B1232" class="clusterblast-orf" id="dummy-2_h2_9_10"  />
</g>
<g id="a2_0011"  >
<polygon points="584,85 589,80 595,80 595,90 589,90 584,85 " style="fill:white; stroke-width:1; stroke:black; " description="&lt;b&gt;RALTA_B1233&lt;/b&gt;&lt;br&gt;Transposase fragment, IS1111 family&lt;br&gt;Location: 33971 - 34705" locus_tag="RALTA_B1233" class="clusterblast-orf" id="dummy-2_h2_9_11"  />
</g>
<g id="a2_0012"  >
<polygon points="603,90 623,90 628,85 623,80 603,80 603,90 " style="fill:white; stroke-width:1; stroke:black; " description="&lt;b&gt;RALTA_B1234&lt;/b&gt;&lt;br&gt;ABC transporter ATP-binding protein, putative ABC-type siderophore export system&lt;br&gt;Location: 35229 - 36869" locus_tag="RALTA_B1234" class="clusterblast-orf" id="dummy-2_h2_9_12"  />
</g>
<g id="a2_0013"  >
<polygon points="628,90 639,90 644,85 639,80 628,80 628,90 " style="fill:white; stroke-width:1; stroke:black; " description="&lt;b&gt;RALTA_B1235&lt;/b&gt;&lt;br&gt;putative ESTERASE/LIPASE PROTEIN&lt;br&gt;Location: 36866 - 37921" locus_tag="RALTA_B1235" class="clusterblast-orf" id="dummy-2_h2_9_13"  />
</g>
<g id="a2_0014"  >
<polygon points="645,90 656,90 661,85 656,80 645,80 645,90 " style="fill:white; stroke-width:1; stroke:black; " description="&lt;b&gt;RALTA_B1236&lt;/b&gt;&lt;br&gt;siderophore biosynthesis protein, putative acetyltransferase&lt;br&gt;Location: 37983 - 39065" locus_tag="RALTA_B1236" class="clusterblast-orf" id="dummy-2_h2_9_14"  />
</g>
<g id="a2_0015"  >
<polygon points="661,90 676,90 681,85 676,80 661,80 661,90 " style="fill:white; stroke-width:1; stroke:black; " description="&lt;b&gt;RALTA_B1237&lt;/b&gt;&lt;br&gt;L-ornithine 5-monooxygenase(L-ornithine N5-oxygenase) L-lysine 6-monooxygenase (Lysine N(6)-hydroxylase); Siderophore biosynthesis protein&lt;br&gt;Location: 39062 - 40420" locus_tag="RALTA_B1237" class="clusterblast-orf" id="dummy-2_h2_9_15"  />
</g>
<g id="a2_0016"  >
<polygon points="681,85 686,80 692,80 692,90 686,90 681,85 " style="fill:white; stroke-width:1; stroke:black; " description="&lt;b&gt;RALTA_B1238&lt;/b&gt;&lt;br&gt;4'-phosphopantetheinyl transferase&lt;br&gt;Location: 40384 - 41172" locus_tag="RALTA_B1238" class="clusterblast-orf" id="dummy-2_h2_9_16"  />
</g>
<g id="a2_0017"  >
<polygon points="695,90 699,90 704,85 699,80 695,80 695,90 " style="fill:#15b6d8; stroke-width:1; stroke:black; " description="&lt;b&gt;RALTA_B1239&lt;/b&gt;&lt;br&gt;RNA polymerase sigma factor&lt;br&gt;Location: 41352 - 41930&lt;br&gt;&lt;br&gt;&lt;b&gt;BlastP hit with ctg2_304&lt;/b&gt;&lt;br&gt;Percentage identity: 56&lt;br&gt;Percentage coverage: 85&lt;br&gt;BLAST bit score: 160&lt;br&gt;E-value: 3.6e-50" locus_tag="RALTA_B1239" class="clusterblast-orf" id="dummy-2_h2_9_17"  />
</g>
</svg>
