<svg xmlns="http://www.w3.org/2000/svg" xmlns:xlink="http://www.w3.org/1999/xlink" version="1.1" x="0" y="0" height="230" width="800" viewBox="0 0 800 230" preserveAspectRatio="none"  >
<g label="Query sequence" class="clusterblast-cluster"  >
<text x="5" y="20" class="clusterblast-acc"  >
Query sequence</text>
<line x1="10" y1="35" x2="778.0" y2="35" style="stroke-width:1; stroke:grey; "  />
<polygon points="33,40 52,40 57,35 52,30 33,30 33,40 " style="fill:white; stroke-width:1; stroke:black; " description="&lt;b&gt;ctg5_146&lt;/b&gt;&lt;br&gt;ctg5 146&lt;br&gt;Location: 125434 - 126934" locus_tag="ctg5_146" class="clusterblast-orf" id="dummy-1_q0_0_all"  />
<polygon points="57,40 61,40 66,35 61,30 57,30 57,40 " style="fill:white; stroke-width:1; stroke:black; " description="&lt;b&gt;ctg5_147&lt;/b&gt;&lt;br&gt;ctg5 147&lt;br&gt;Location: 126899 - 127493" locus_tag="ctg5_147" class="clusterblast-orf" id="dummy-1_q1_0_all"  />
<polygon points="68,40 79,40 84,35 79,30 68,30 68,40 " style="fill:white; stroke-width:1; stroke:black; " description="&lt;b&gt;ctg5_148&lt;/b&gt;&lt;br&gt;ctg5 148&lt;br&gt;Location: 127604 - 128546" locus_tag="ctg5_148" class="clusterblast-orf" id="dummy-1_q2_0_all"  />
<polygon points="85,35 90,30 97,30 97,40 90,40 85,35 " style="fill:#d81515; stroke-width:1; stroke:black; " description="&lt;b&gt;ctg5_149&lt;/b&gt;&lt;br&gt;ctg5 149&lt;br&gt;Location: 128607 - 129363" locus_tag="ctg5_149" class="clusterblast-orf" id="dummy-1_q3_0_all"  />
<polygon points="97,35 102,30 110,30 110,40 102,40 97,35 " style="fill:#4dd815; stroke-width:1; stroke:black; " description="&lt;b&gt;ctg5_150&lt;/b&gt;&lt;br&gt;ctg5 150&lt;br&gt;Location: 129352 - 130156" locus_tag="ctg5_150" class="clusterblast-orf" id="dummy-1_q4_0_all"  />
<polygon points="110,35 115,30 123,30 123,40 115,40 110,35 " style="fill:#1585d8; stroke-width:1; stroke:black; " description="&lt;b&gt;ctg5_151&lt;/b&gt;&lt;br&gt;ctg5 151&lt;br&gt;Location: 130148 - 130970" locus_tag="ctg5_151" class="clusterblast-orf" id="dummy-1_q5_0_all"  />
<polygon points="123,35 128,30 129,30 129,40 128,40 123,35 " style="fill:white; stroke-width:1; stroke:black; " description="&lt;b&gt;ctg5_152&lt;/b&gt;&lt;br&gt;ctg5 152&lt;br&gt;Location: 130982 - 131348" locus_tag="ctg5_152" class="clusterblast-orf" id="dummy-1_q6_0_all"  />
<polygon points="129,35 134,30 151,30 151,40 134,40 129,35 " style="fill:white; stroke-width:1; stroke:black; " description="&lt;b&gt;ctg5_153&lt;/b&gt;&lt;br&gt;ctg5 153&lt;br&gt;Location: 131377 - 132676" locus_tag="ctg5_153" class="clusterblast-orf" id="dummy-1_q7_0_all"  />
<polygon points="154,40 156,40 161,35 156,30 154,30 154,40 " style="fill:white; stroke-width:1; stroke:black; " description="&lt;b&gt;ctg5_154&lt;/b&gt;&lt;br&gt;ctg5 154&lt;br&gt;Location: 132884 - 133307" locus_tag="ctg5_154" class="clusterblast-orf" id="dummy-1_q8_0_all"  />
<polygon points="163,35 168,30 176,30 176,40 168,40 163,35 " style="fill:white; stroke-width:1; stroke:black; " description="&lt;b&gt;ctg5_155&lt;/b&gt;&lt;br&gt;ctg5 155&lt;br&gt;Location: 133432 - 134233" locus_tag="ctg5_155" class="clusterblast-orf" id="dummy-1_q9_0_all"  />
<polygon points="176,35 181,30 189,30 189,40 181,40 176,35 " style="fill:white; stroke-width:1; stroke:black; " description="&lt;b&gt;ctg5_156&lt;/b&gt;&lt;br&gt;ctg5 156&lt;br&gt;Location: 134248 - 135052" locus_tag="ctg5_156" class="clusterblast-orf" id="dummy-1_q10_0_all"  />
<polygon points="189,35 194,30 210,30 210,40 194,40 189,35 " style="fill:#d815bc; stroke-width:1; stroke:black; " description="&lt;b&gt;ctg5_157&lt;/b&gt;&lt;br&gt;ctg5 157&lt;br&gt;Location: 135063 - 136368" locus_tag="ctg5_157" class="clusterblast-orf" id="dummy-1_q11_0_all"  />
<polygon points="211,35 216,30 218,30 218,40 216,40 211,35 " style="fill:white; stroke-width:1; stroke:black; " description="&lt;b&gt;ctg5_158&lt;/b&gt;&lt;br&gt;ctg5 158&lt;br&gt;Location: 136413 - 136806" locus_tag="ctg5_158" class="clusterblast-orf" id="dummy-1_q12_0_all"  />
<polygon points="218,35 223,30 232,30 232,40 223,40 218,35 " style="fill:white; stroke-width:1; stroke:black; " description="&lt;b&gt;ctg5_159&lt;/b&gt;&lt;br&gt;ctg5 159&lt;br&gt;Location: 136821 - 137679" locus_tag="ctg5_159" class="clusterblast-orf" id="dummy-1_q13_0_all"  />
<polygon points="232,35 237,30 256,30 256,40 237,40 232,35 " style="fill:white; stroke-width:1; stroke:black; " description="&lt;b&gt;ctg5_160&lt;/b&gt;&lt;br&gt;ctg5 160&lt;br&gt;Location: 137725 - 139186" locus_tag="ctg5_160" class="clusterblast-orf" id="dummy-1_q14_0_all"  />
<polygon points="256,35 261,30 269,30 269,40 261,40 256,35 " style="fill:white; stroke-width:1; stroke:black; " description="&lt;b&gt;ctg5_161&lt;/b&gt;&lt;br&gt;ctg5 161&lt;br&gt;Location: 139191 - 139962" locus_tag="ctg5_161" class="clusterblast-orf" id="dummy-1_q15_0_all"  />
<polygon points="269,35 274,30 279,30 279,40 274,40 269,35 " style="fill:white; stroke-width:1; stroke:black; " description="&lt;b&gt;ctg5_162&lt;/b&gt;&lt;br&gt;ctg5 162&lt;br&gt;Location: 139958 - 140624" locus_tag="ctg5_162" class="clusterblast-orf" id="dummy-1_q16_0_all"  />
<polygon points="282,40 291,40 296,35 291,30 282,30 282,40 " style="fill:white; stroke-width:1; stroke:black; " description="&lt;b&gt;ctg5_163&lt;/b&gt;&lt;br&gt;ctg5 163&lt;br&gt;Location: 140752 - 141613" locus_tag="ctg5_163" class="clusterblast-orf" id="dummy-1_q17_0_all"  />
<polygon points="294,35 299,30 318,30 318,40 299,40 294,35 " style="fill:#d8bc15; stroke-width:1; stroke:black; " description="&lt;b&gt;ctg5_164&lt;/b&gt;&lt;br&gt;ctg5 164&lt;br&gt;Location: 141539 - 143009" locus_tag="ctg5_164" class="clusterblast-orf" id="dummy-1_q18_0_all"  />
<polygon points="318,35 323,30 331,30 331,40 323,40 318,35 " style="fill:#15d885; stroke-width:1; stroke:black; " description="&lt;b&gt;ctg5_165&lt;/b&gt;&lt;br&gt;ctg5 165&lt;br&gt;Location: 143008 - 143803" locus_tag="ctg5_165" class="clusterblast-orf" id="dummy-1_q19_0_all"  />
<polygon points="339,40 436,40 441,35 436,30 339,30 339,40 " style="fill:#4d15d8; stroke-width:1; stroke:black; " description="&lt;b&gt;ctg5_166&lt;/b&gt;&lt;br&gt;ctg5 166&lt;br&gt;Location: 144290 - 150560" locus_tag="ctg5_166" class="clusterblast-orf" id="dummy-1_q20_0_all"  />
<polygon points="458,40 461,35 458,30 458,40 " style="fill:white; stroke-width:1; stroke:black; " description="&lt;b&gt;ctg5_167&lt;/b&gt;&lt;br&gt;ctg5 167&lt;br&gt;Location: 151617 - 151785" locus_tag="ctg5_167" class="clusterblast-orf" id="dummy-1_q21_0_all"  />
<polygon points="462,40 471,40 476,35 471,30 462,30 462,40 " style="fill:white; stroke-width:1; stroke:black; " description="&lt;b&gt;ctg5_168&lt;/b&gt;&lt;br&gt;ctg5 168&lt;br&gt;Location: 151879 - 152737" locus_tag="ctg5_168" class="clusterblast-orf" id="dummy-1_q22_0_all"  />
<polygon points="476,40 484,40 489,35 484,30 476,30 476,40 " style="fill:white; stroke-width:1; stroke:black; " description="&lt;b&gt;ctg5_169&lt;/b&gt;&lt;br&gt;ctg5 169&lt;br&gt;Location: 152733 - 153540" locus_tag="ctg5_169" class="clusterblast-orf" id="dummy-1_q23_0_all"  />
<polygon points="489,40 503,40 508,35 503,30 489,30 489,40 " style="fill:white; stroke-width:1; stroke:black; " description="&lt;b&gt;ctg5_170&lt;/b&gt;&lt;br&gt;ctg5 170&lt;br&gt;Location: 153526 - 154720" locus_tag="ctg5_170" class="clusterblast-orf" id="dummy-1_q24_0_all"  />
<polygon points="508,40 515,40 520,35 515,30 508,30 508,40 " style="fill:white; stroke-width:1; stroke:black; " description="&lt;b&gt;ctg5_171&lt;/b&gt;&lt;br&gt;ctg5 171&lt;br&gt;Location: 154728 - 155481" locus_tag="ctg5_171" class="clusterblast-orf" id="dummy-1_q25_0_all"  />
<polygon points="520,40 527,40 532,35 527,30 520,30 520,40 " style="fill:white; stroke-width:1; stroke:black; " description="&lt;b&gt;ctg5_172&lt;/b&gt;&lt;br&gt;ctg5 172&lt;br&gt;Location: 155480 - 156194" locus_tag="ctg5_172" class="clusterblast-orf" id="dummy-1_q26_0_all"  />
<polygon points="532,35 537,30 557,30 557,40 537,40 532,35 " style="fill:white; stroke-width:1; stroke:black; " description="&lt;b&gt;ctg5_173&lt;/b&gt;&lt;br&gt;ctg5 173&lt;br&gt;Location: 156215 - 157733" locus_tag="ctg5_173" class="clusterblast-orf" id="dummy-1_q27_0_all"  />
<polygon points="557,35 562,30 584,30 584,40 562,40 557,35 " style="fill:white; stroke-width:1; stroke:black; " description="&lt;b&gt;ctg5_174&lt;/b&gt;&lt;br&gt;ctg5 174&lt;br&gt;Location: 157759 - 159415" locus_tag="ctg5_174" class="clusterblast-orf" id="dummy-1_q28_0_all"  />
<polygon points="587,35 592,30 598,30 598,40 592,40 587,35 " style="fill:white; stroke-width:1; stroke:black; " description="&lt;b&gt;ctg5_175&lt;/b&gt;&lt;br&gt;ctg5 175&lt;br&gt;Location: 159604 - 160279" locus_tag="ctg5_175" class="clusterblast-orf" id="dummy-1_q29_0_all"  />
<polygon points="603,40 609,40 614,35 609,30 603,30 603,40 " style="fill:white; stroke-width:1; stroke:black; " description="&lt;b&gt;ctg5_176&lt;/b&gt;&lt;br&gt;ctg5 176&lt;br&gt;Location: 160553 - 161222" locus_tag="ctg5_176" class="clusterblast-orf" id="dummy-1_q30_0_all"  />
<polygon points="613,40 649,40 654,35 649,30 613,30 613,40 " style="fill:white; stroke-width:1; stroke:black; " description="&lt;b&gt;ctg5_177&lt;/b&gt;&lt;br&gt;ctg5 177&lt;br&gt;Location: 161190 - 163686" locus_tag="ctg5_177" class="clusterblast-orf" id="dummy-1_q31_0_all"  />
<polygon points="653,40 666,40 671,35 666,30 653,30 653,40 " style="fill:white; stroke-width:1; stroke:black; " description="&lt;b&gt;ctg5_178&lt;/b&gt;&lt;br&gt;ctg5 178&lt;br&gt;Location: 163675 - 164740" locus_tag="ctg5_178" class="clusterblast-orf" id="dummy-1_q32_0_all"  />
<polygon points="673,40 692,40 697,35 692,30 673,30 673,40 " style="fill:white; stroke-width:1; stroke:black; " description="&lt;b&gt;ctg5_179&lt;/b&gt;&lt;br&gt;ctg5 179&lt;br&gt;Location: 164890 - 166333" locus_tag="ctg5_179" class="clusterblast-orf" id="dummy-1_q33_0_all"  />
<polygon points="697,35 702,30 715,30 715,40 702,40 697,35 " style="fill:white; stroke-width:1; stroke:black; " description="&lt;b&gt;ctg5_180&lt;/b&gt;&lt;br&gt;ctg5 180&lt;br&gt;Location: 166383 - 167484" locus_tag="ctg5_180" class="clusterblast-orf" id="dummy-1_q34_0_all"  />
<polygon points="715,35 720,30 726,30 726,40 720,40 715,35 " style="fill:white; stroke-width:1; stroke:black; " description="&lt;b&gt;ctg5_181&lt;/b&gt;&lt;br&gt;ctg5 181&lt;br&gt;Location: 167486 - 168158" locus_tag="ctg5_181" class="clusterblast-orf" id="dummy-1_q35_0_all"  />
<polygon points="731,40 741,40 746,35 741,30 731,30 731,40 " style="fill:white; stroke-width:1; stroke:black; " description="&lt;b&gt;ctg5_182&lt;/b&gt;&lt;br&gt;ctg5 182&lt;br&gt;Location: 168475 - 169399" locus_tag="ctg5_182" class="clusterblast-orf" id="dummy-1_q36_0_all"  />
</g>
<g label="BGC0001980" description="BGC0001980_c1: lokisin (28% of genes show similarity), NRP" class="clusterblast-cluster"  >
<text x="5" y="70" class="clusterblast-acc"  >
<a xlink:href="https://mibig.secondarymetabolites.org/go/BGC0001980/1" target="_blank">BGC0001980</a>: lokisin                                                                          (28% of genes show similarity), NRP</text>
<line x1="10" y1="85" x2="778.0" y2="85" style="stroke-width:1; stroke:grey; "  />
</g>
<g id="a1_000"  >
<polygon points="0,90 11,90 16,85 11,80 0,80 0,90 " style="fill:white; stroke-width:1; stroke:black; " description="&lt;b&gt;QDF82265.1&lt;/b&gt;&lt;br&gt;ABC-type nitrate/sulfonate/bicarbonate transport systems, periplasmic components&lt;br&gt;Location: 49780 - 48764" locus_tag="QDF82265.1" class="clusterblast-orf" id="dummy-1_h1_5_0"  />
</g>
<g id="a1_001"  >
<polygon points="18,90 21,90 26,85 21,80 18,80 18,90 " style="fill:white; stroke-width:1; stroke:black; " description="&lt;b&gt;QDF82264.1&lt;/b&gt;&lt;br&gt;hypothetical protein&lt;br&gt;Location: 48636 - 48142" locus_tag="QDF82264.1" class="clusterblast-orf" id="dummy-1_h1_5_1"  />
</g>
<g id="a1_002"  >
<polygon points="27,85 32,80 35,80 35,90 32,90 27,85 " style="fill:white; stroke-width:1; stroke:black; " description="&lt;b&gt;QDF82263.1&lt;/b&gt;&lt;br&gt;copper metallochaperone&lt;br&gt;Location: 48072 - 47605" locus_tag="QDF82263.1" class="clusterblast-orf" id="dummy-1_h1_5_2"  />
</g>
<g id="a1_003"  >
<polygon points="35,85 40,80 45,80 45,90 40,90 35,85 " style="fill:white; stroke-width:1; stroke:black; " description="&lt;b&gt;QDF82262.1&lt;/b&gt;&lt;br&gt;cytochrome oxidase biogenesis protein Sco1/SenC/PrrC, putative copper metallochaperone&lt;br&gt;Location: 47593 - 46988" locus_tag="QDF82262.1" class="clusterblast-orf" id="dummy-1_h1_5_3"  />
</g>
<g id="a1_004"  >
<polygon points="47,85 52,80 70,80 70,90 52,90 47,85 " style="fill:#d8bc15; stroke-width:1; stroke:black; " description="&lt;b&gt;QDF82261.1&lt;/b&gt;&lt;br&gt;RND efflux system, outer membrane lipoprotein CmeC&lt;br&gt;Location: 46831 - 45425&lt;br&gt;&lt;br&gt;&lt;b&gt;BlastP hit with ctg5_164&lt;/b&gt;&lt;br&gt;Percentage identity: 73&lt;br&gt;Percentage coverage: 94&lt;br&gt;BLAST bit score: 639&lt;br&gt;E-value: 8.62e-230" locus_tag="QDF82261.1" class="clusterblast-orf" id="dummy-1_h1_5_4"  />
</g>
<g id="a1_005"  >
<polygon points="72,85 77,80 84,80 84,90 77,90 72,85 " style="fill:#15d885; stroke-width:1; stroke:black; " description="&lt;b&gt;QDF82260.1&lt;/b&gt;&lt;br&gt;transcriptional regulator, LuxR family&lt;br&gt;Location: 45340 - 44546&lt;br&gt;&lt;br&gt;&lt;b&gt;BlastP hit with ctg5_165&lt;/b&gt;&lt;br&gt;Percentage identity: 61&lt;br&gt;Percentage coverage: 100&lt;br&gt;BLAST bit score: 308&lt;br&gt;E-value: 4.29e-106" locus_tag="QDF82260.1" class="clusterblast-orf" id="dummy-1_h1_5_5"  />
</g>
<g id="a1_006"  >
<polygon points="93,90 191,90 196,85 191,80 93,80 93,90 " style="fill:#4d15d8; stroke-width:1; stroke:black; " description="&lt;b&gt;QDF82254.1&lt;/b&gt;&lt;br&gt;non-ribosomal peptide synthetase&lt;br&gt;Location: 44033 - 37644&lt;br&gt;&lt;br&gt;&lt;b&gt;BlastP hit with ctg5_166&lt;/b&gt;&lt;br&gt;Percentage identity: 63&lt;br&gt;Percentage coverage: 102&lt;br&gt;BLAST bit score: 2579&lt;br&gt;E-value: 0.0" locus_tag="QDF82254.1" class="clusterblast-orf" id="dummy-1_h1_5_6"  />
</g>
<g id="a1_007"  >
<polygon points="200,90 406,90 411,85 406,80 200,80 200,90 " style="fill:#4d15d8; stroke-width:1; stroke:black; " description="&lt;b&gt;QDF82255.1&lt;/b&gt;&lt;br&gt;non-ribosomal peptide synthetase&lt;br&gt;Location: 37399 - 24386&lt;br&gt;&lt;br&gt;&lt;b&gt;BlastP hit with ctg5_166&lt;/b&gt;&lt;br&gt;Percentage identity: 59&lt;br&gt;Percentage coverage: 79&lt;br&gt;BLAST bit score: 1867&lt;br&gt;E-value: 0.0" locus_tag="QDF82255.1" class="clusterblast-orf" id="dummy-1_h1_5_7"  />
</g>
<g id="a1_008"  >
<polygon points="411,90 696,90 701,85 696,80 411,80 411,90 " style="fill:white; stroke-width:1; stroke:black; " description="&lt;b&gt;QDF82259.1&lt;/b&gt;&lt;br&gt;non-ribosomal peptide synthetase&lt;br&gt;Location: 24389 - 6567" locus_tag="QDF82259.1" class="clusterblast-orf" id="dummy-1_h1_5_8"  />
</g>
<g id="a1_009"  >
<polygon points="702,90 715,90 720,85 715,80 702,80 702,90 " style="fill:white; stroke-width:1; stroke:black; " description="&lt;b&gt;QDF82253.1&lt;/b&gt;&lt;br&gt;macrolide-specific efflux protein&lt;br&gt;Location: 6500 - 5352" locus_tag="QDF82253.1" class="clusterblast-orf" id="dummy-1_h1_5_9"  />
</g>
<g id="a1_0010"  >
<polygon points="720,90 747,90 752,85 747,80 720,80 720,90 " style="fill:white; stroke-width:1; stroke:black; " description="&lt;b&gt;QDF82252.1&lt;/b&gt;&lt;br&gt;macrolide export ATP-binding/permease protein&lt;br&gt;Location: 5349 - 3391" locus_tag="QDF82252.1" class="clusterblast-orf" id="dummy-1_h1_5_10"  />
</g>
<g id="a1_0011"  >
<polygon points="753,90 754,90 759,85 754,80 753,80 753,90 " style="fill:white; stroke-width:1; stroke:black; " description="&lt;b&gt;QDF82258.1&lt;/b&gt;&lt;br&gt;hypothetical protein&lt;br&gt;Location: 3331 - 2936" locus_tag="QDF82258.1" class="clusterblast-orf" id="dummy-1_h1_5_11"  />
</g>
<g id="a1_0012"  >
<polygon points="765,90 766,90 771,85 766,80 765,80 765,90 " style="fill:white; stroke-width:1; stroke:black; " description="&lt;b&gt;QDF82257.1&lt;/b&gt;&lt;br&gt;hypothetical protein&lt;br&gt;Location: 2569 - 2198" locus_tag="QDF82257.1" class="clusterblast-orf" id="dummy-1_h1_5_12"  />
</g>
<g id="a1_0013"  >
<polygon points="776,90 779,85 776,80 776,90 " style="fill:white; stroke-width:1; stroke:black; " description="&lt;b&gt;QDF82256.1&lt;/b&gt;&lt;br&gt;hypothetical protein&lt;br&gt;Location: 1905 - 1699" locus_tag="QDF82256.1" class="clusterblast-orf" id="dummy-1_h1_5_13"  />
</g>
</svg>
