<svg xmlns="http://www.w3.org/2000/svg" xmlns:xlink="http://www.w3.org/1999/xlink" version="1.1" x="0" y="0" height="230" width="800" viewBox="0 0 800 230" preserveAspectRatio="none"  >
<g label="Query sequence" class="clusterblast-cluster"  >
<text x="5" y="20" class="clusterblast-acc"  >
Query sequence</text>
<line x1="10" y1="35" x2="778.0" y2="35" style="stroke-width:1; stroke:grey; "  />
<polygon points="0,40 4,40 9,35 4,30 0,30 0,40 " style="fill:white; stroke-width:1; stroke:black; " description="&lt;b&gt;ctg7_96&lt;/b&gt;&lt;br&gt;ctg7 96&lt;br&gt;Location: 112734 - 113649" locus_tag="ctg7_96" class="clusterblast-orf" id="dummy-1_q0_0_all"  />
<polygon points="12,35 17,30 18,30 18,40 17,40 12,35 " style="fill:white; stroke-width:1; stroke:black; " description="&lt;b&gt;ctg7_97&lt;/b&gt;&lt;br&gt;ctg7 97&lt;br&gt;Location: 113885 - 114551" locus_tag="ctg7_97" class="clusterblast-orf" id="dummy-1_q1_0_all"  />
<polygon points="18,35 23,30 53,30 53,40 23,40 18,35 " style="fill:white; stroke-width:1; stroke:black; " description="&lt;b&gt;ctg7_98&lt;/b&gt;&lt;br&gt;ctg7 98&lt;br&gt;Location: 114525 - 117909" locus_tag="ctg7_98" class="clusterblast-orf" id="dummy-1_q2_0_all"  />
<polygon points="56,40 64,40 69,35 64,30 56,30 56,40 " style="fill:white; stroke-width:1; stroke:black; " description="&lt;b&gt;ctg7_99&lt;/b&gt;&lt;br&gt;ctg7 99&lt;br&gt;Location: 118211 - 119420" locus_tag="ctg7_99" class="clusterblast-orf" id="dummy-1_q3_0_all"  />
<polygon points="71,40 75,40 80,35 75,30 71,30 71,40 " style="fill:white; stroke-width:1; stroke:black; " description="&lt;b&gt;ctg7_100&lt;/b&gt;&lt;br&gt;ctg7 100&lt;br&gt;Location: 119598 - 120516" locus_tag="ctg7_100" class="clusterblast-orf" id="dummy-1_q4_0_all"  />
<polygon points="80,40 87,40 92,35 87,30 80,30 80,40 " style="fill:white; stroke-width:1; stroke:black; " description="&lt;b&gt;ctg7_101&lt;/b&gt;&lt;br&gt;ctg7 101&lt;br&gt;Location: 120526 - 121687" locus_tag="ctg7_101" class="clusterblast-orf" id="dummy-1_q5_0_all"  />
<polygon points="92,40 95,40 100,35 95,30 92,30 92,40 " style="fill:white; stroke-width:1; stroke:black; " description="&lt;b&gt;ctg7_102&lt;/b&gt;&lt;br&gt;ctg7 102&lt;br&gt;Location: 121683 - 122442" locus_tag="ctg7_102" class="clusterblast-orf" id="dummy-1_q6_0_all"  />
<polygon points="100,40 102,40 107,35 102,30 100,30 100,40 " style="fill:white; stroke-width:1; stroke:black; " description="&lt;b&gt;ctg7_103&lt;/b&gt;&lt;br&gt;ctg7 103&lt;br&gt;Location: 122452 - 123142" locus_tag="ctg7_103" class="clusterblast-orf" id="dummy-1_q7_0_all"  />
<polygon points="110,40 117,40 122,35 117,30 110,30 110,40 " style="fill:white; stroke-width:1; stroke:black; " description="&lt;b&gt;ctg7_104&lt;/b&gt;&lt;br&gt;ctg7 104&lt;br&gt;Location: 123360 - 124590" locus_tag="ctg7_104" class="clusterblast-orf" id="dummy-1_q8_0_all"  />
<polygon points="122,40 126,35 122,30 122,40 " style="fill:white; stroke-width:1; stroke:black; " description="&lt;b&gt;ctg7_105&lt;/b&gt;&lt;br&gt;ctg7 105&lt;br&gt;Location: 124592 - 124940" locus_tag="ctg7_105" class="clusterblast-orf" id="dummy-1_q9_0_all"  />
<polygon points="126,40 132,40 137,35 132,30 126,30 126,40 " style="fill:white; stroke-width:1; stroke:black; " description="&lt;b&gt;ctg7_106&lt;/b&gt;&lt;br&gt;ctg7 106&lt;br&gt;Location: 124955 - 125999" locus_tag="ctg7_106" class="clusterblast-orf" id="dummy-1_q10_0_all"  />
<polygon points="137,40 142,40 147,35 142,30 137,30 137,40 " style="fill:white; stroke-width:1; stroke:black; " description="&lt;b&gt;ctg7_107&lt;/b&gt;&lt;br&gt;ctg7 107&lt;br&gt;Location: 126002 - 126959" locus_tag="ctg7_107" class="clusterblast-orf" id="dummy-1_q11_0_all"  />
<polygon points="147,40 148,40 153,35 148,30 147,30 147,40 " style="fill:white; stroke-width:1; stroke:black; " description="&lt;b&gt;ctg7_108&lt;/b&gt;&lt;br&gt;ctg7 108&lt;br&gt;Location: 127026 - 127599" locus_tag="ctg7_108" class="clusterblast-orf" id="dummy-1_q12_0_all"  />
<polygon points="154,40 163,40 168,35 163,30 154,30 154,40 " style="fill:white; stroke-width:1; stroke:black; " description="&lt;b&gt;ctg7_109&lt;/b&gt;&lt;br&gt;ctg7 109&lt;br&gt;Location: 127624 - 128980" locus_tag="ctg7_109" class="clusterblast-orf" id="dummy-1_q13_0_all"  />
<polygon points="167,35 172,30 174,30 174,40 172,40 167,35 " style="fill:#d81515; stroke-width:1; stroke:black; " description="&lt;b&gt;ctg7_110&lt;/b&gt;&lt;br&gt;ctg7 110&lt;br&gt;Location: 128963 - 129557" locus_tag="ctg7_110" class="clusterblast-orf" id="dummy-1_q14_0_all"  />
<polygon points="175,40 182,40 187,35 182,30 175,30 175,40 " style="fill:#63d815; stroke-width:1; stroke:black; " description="&lt;b&gt;ctg7_111&lt;/b&gt;&lt;br&gt;ctg7 111&lt;br&gt;Location: 129699 - 130890" locus_tag="ctg7_111" class="clusterblast-orf" id="dummy-1_q15_0_all"  />
<polygon points="187,35 191,30 191,40 187,35 " style="fill:#15b1d8; stroke-width:1; stroke:black; " description="&lt;b&gt;ctg7_112&lt;/b&gt;&lt;br&gt;ctg7 112&lt;br&gt;Location: 130872 - 131238" locus_tag="ctg7_112" class="clusterblast-orf" id="dummy-1_q16_0_all"  />
<polygon points="191,35 194,30 194,40 191,35 " style="fill:#b115d8; stroke-width:1; stroke:black; " description="&lt;b&gt;ctg7_113&lt;/b&gt;&lt;br&gt;ctg7 113&lt;br&gt;Location: 131234 - 131486" locus_tag="ctg7_113" class="clusterblast-orf" id="dummy-1_q17_0_all"  />
<polygon points="196,40 336,40 341,35 336,30 196,30 196,40 " style="fill:#d86315; stroke-width:1; stroke:black; " description="&lt;b&gt;ctg7_114&lt;/b&gt;&lt;br&gt;ctg7 114&lt;br&gt;Location: 131695 - 145750" locus_tag="ctg7_114" class="clusterblast-orf" id="dummy-1_q18_0_all"  />
<polygon points="341,40 459,40 464,35 459,30 341,30 341,40 " style="fill:#d86315; stroke-width:1; stroke:black; " description="&lt;b&gt;ctg7_115&lt;/b&gt;&lt;br&gt;ctg7 115&lt;br&gt;Location: 145753 - 157606" locus_tag="ctg7_115" class="clusterblast-orf" id="dummy-1_q19_0_all"  />
<polygon points="465,35 470,30 491,30 491,40 470,40 465,35 " style="fill:#15d815; stroke-width:1; stroke:black; " description="&lt;b&gt;ctg7_116&lt;/b&gt;&lt;br&gt;ctg7 116&lt;br&gt;Location: 157750 - 160192" locus_tag="ctg7_116" class="clusterblast-orf" id="dummy-1_q20_0_all"  />
<polygon points="492,35 497,30 509,30 509,40 497,40 492,35 " style="fill:#1563d8; stroke-width:1; stroke:black; " description="&lt;b&gt;ctg7_117&lt;/b&gt;&lt;br&gt;ctg7 117&lt;br&gt;Location: 160301 - 161954" locus_tag="ctg7_117" class="clusterblast-orf" id="dummy-1_q21_0_all"  />
<polygon points="511,40 514,40 519,35 514,30 511,30 511,40 " style="fill:#d815b1; stroke-width:1; stroke:black; " description="&lt;b&gt;ctg7_118&lt;/b&gt;&lt;br&gt;ctg7 118&lt;br&gt;Location: 162152 - 162980" locus_tag="ctg7_118" class="clusterblast-orf" id="dummy-1_q22_0_all"  />
<polygon points="521,35 526,30 530,30 530,40 526,40 521,35 " style="fill:#d8b115; stroke-width:1; stroke:black; " description="&lt;b&gt;ctg7_119&lt;/b&gt;&lt;br&gt;ctg7 119&lt;br&gt;Location: 163122 - 163995" locus_tag="ctg7_119" class="clusterblast-orf" id="dummy-1_q23_0_all"  />
<polygon points="530,35 535,30 543,30 543,40 535,40 530,35 " style="fill:#15d863; stroke-width:1; stroke:black; " description="&lt;b&gt;ctg7_120&lt;/b&gt;&lt;br&gt;ctg7 120&lt;br&gt;Location: 164028 - 165309" locus_tag="ctg7_120" class="clusterblast-orf" id="dummy-1_q24_0_all"  />
<polygon points="544,35 549,30 558,30 558,40 549,40 544,35 " style="fill:#1515d8; stroke-width:1; stroke:black; " description="&lt;b&gt;ctg7_121&lt;/b&gt;&lt;br&gt;ctg7 121&lt;br&gt;Location: 165327 - 166677" locus_tag="ctg7_121" class="clusterblast-orf" id="dummy-1_q25_0_all"  />
<polygon points="559,40 571,40 576,35 571,30 559,30 559,40 " style="fill:#d81563; stroke-width:1; stroke:black; " description="&lt;b&gt;ctg7_122&lt;/b&gt;&lt;br&gt;ctg7 122&lt;br&gt;Location: 166819 - 168439" locus_tag="ctg7_122" class="clusterblast-orf" id="dummy-1_q26_0_all"  />
<polygon points="576,35 581,30 586,30 586,40 581,40 576,35 " style="fill:white; stroke-width:1; stroke:black; " description="&lt;b&gt;ctg7_123&lt;/b&gt;&lt;br&gt;ctg7 123&lt;br&gt;Location: 168431 - 169379" locus_tag="ctg7_123" class="clusterblast-orf" id="dummy-1_q27_0_all"  />
<polygon points="587,40 591,40 596,35 591,30 587,30 587,40 " style="fill:white; stroke-width:1; stroke:black; " description="&lt;b&gt;ctg7_124&lt;/b&gt;&lt;br&gt;ctg7 124&lt;br&gt;Location: 169522 - 170413" locus_tag="ctg7_124" class="clusterblast-orf" id="dummy-1_q28_0_all"  />
<polygon points="596,40 601,40 606,35 601,30 596,30 596,40 " style="fill:white; stroke-width:1; stroke:black; " description="&lt;b&gt;ctg7_125&lt;/b&gt;&lt;br&gt;ctg7 125&lt;br&gt;Location: 170412 - 171384" locus_tag="ctg7_125" class="clusterblast-orf" id="dummy-1_q29_0_all"  />
<polygon points="606,40 610,40 615,35 610,30 606,30 606,40 " style="fill:white; stroke-width:1; stroke:black; " description="&lt;b&gt;ctg7_126&lt;/b&gt;&lt;br&gt;ctg7 126&lt;br&gt;Location: 171380 - 172250" locus_tag="ctg7_126" class="clusterblast-orf" id="dummy-1_q30_0_all"  />
<polygon points="615,40 618,35 615,30 615,40 " style="fill:white; stroke-width:1; stroke:black; " description="&lt;b&gt;ctg7_127&lt;/b&gt;&lt;br&gt;ctg7 127&lt;br&gt;Location: 172264 - 172525" locus_tag="ctg7_127" class="clusterblast-orf" id="dummy-1_q31_0_all"  />
<polygon points="618,40 622,40 627,35 622,30 618,30 618,40 " style="fill:white; stroke-width:1; stroke:black; " description="&lt;b&gt;ctg7_128&lt;/b&gt;&lt;br&gt;ctg7 128&lt;br&gt;Location: 172521 - 173352" locus_tag="ctg7_128" class="clusterblast-orf" id="dummy-1_q32_0_all"  />
<polygon points="627,40 649,40 654,35 649,30 627,30 627,40 " style="fill:white; stroke-width:1; stroke:black; " description="&lt;b&gt;ctg7_129&lt;/b&gt;&lt;br&gt;ctg7 129&lt;br&gt;Location: 173365 - 176023" locus_tag="ctg7_129" class="clusterblast-orf" id="dummy-1_q33_0_all"  />
<polygon points="658,40 661,40 666,35 661,30 658,30 658,40 " style="fill:white; stroke-width:1; stroke:black; " description="&lt;b&gt;ctg7_130&lt;/b&gt;&lt;br&gt;ctg7 130&lt;br&gt;Location: 176424 - 177141" locus_tag="ctg7_130" class="clusterblast-orf" id="dummy-1_q34_0_all"  />
<polygon points="666,40 670,35 666,30 666,40 " style="fill:white; stroke-width:1; stroke:black; " description="&lt;b&gt;ctg7_131&lt;/b&gt;&lt;br&gt;ctg7 131&lt;br&gt;Location: 177193 - 177529" locus_tag="ctg7_131" class="clusterblast-orf" id="dummy-1_q35_0_all"  />
<polygon points="670,40 676,40 681,35 676,30 670,30 670,40 " style="fill:white; stroke-width:1; stroke:black; " description="&lt;b&gt;ctg7_132&lt;/b&gt;&lt;br&gt;ctg7 132&lt;br&gt;Location: 177544 - 178651" locus_tag="ctg7_132" class="clusterblast-orf" id="dummy-1_q36_0_all"  />
<polygon points="683,40 683,40 688,35 683,30 683,30 683,40 " style="fill:white; stroke-width:1; stroke:black; " description="&lt;b&gt;ctg7_133&lt;/b&gt;&lt;br&gt;ctg7 133&lt;br&gt;Location: 178813 - 179305" locus_tag="ctg7_133" class="clusterblast-orf" id="dummy-1_q37_0_all"  />
<polygon points="689,35 692,30 692,40 689,35 " style="fill:white; stroke-width:1; stroke:black; " description="&lt;b&gt;ctg7_134&lt;/b&gt;&lt;br&gt;ctg7 134&lt;br&gt;Location: 179406 - 179628" locus_tag="ctg7_134" class="clusterblast-orf" id="dummy-1_q38_0_all"  />
<polygon points="693,35 698,30 716,30 716,40 698,40 693,35 " style="fill:white; stroke-width:1; stroke:black; " description="&lt;b&gt;ctg7_135&lt;/b&gt;&lt;br&gt;ctg7 135&lt;br&gt;Location: 179769 - 181998" locus_tag="ctg7_135" class="clusterblast-orf" id="dummy-1_q39_0_all"  />
<polygon points="717,35 722,30 736,30 736,40 722,40 717,35 " style="fill:white; stroke-width:1; stroke:black; " description="&lt;b&gt;ctg7_136&lt;/b&gt;&lt;br&gt;ctg7 136&lt;br&gt;Location: 182124 - 183933" locus_tag="ctg7_136" class="clusterblast-orf" id="dummy-1_q40_0_all"  />
<polygon points="737,35 739,30 739,40 737,35 " style="fill:#b1d815; stroke-width:1; stroke:black; " description="&lt;b&gt;ctg7_137&lt;/b&gt;&lt;br&gt;ctg7 137&lt;br&gt;Location: 184031 - 184208" locus_tag="ctg7_137" class="clusterblast-orf" id="dummy-1_q41_0_all"  />
<polygon points="742,40 747,40 752,35 747,30 742,30 742,40 " style="fill:#15d8b1; stroke-width:1; stroke:black; " description="&lt;b&gt;ctg7_138&lt;/b&gt;&lt;br&gt;ctg7 138&lt;br&gt;Location: 184477 - 185461" locus_tag="ctg7_138" class="clusterblast-orf" id="dummy-1_q42_0_all"  />
<polygon points="752,40 763,40 768,35 763,30 752,30 752,40 " style="fill:#6315d8; stroke-width:1; stroke:black; " description="&lt;b&gt;ctg7_139&lt;/b&gt;&lt;br&gt;ctg7 139&lt;br&gt;Location: 185457 - 186981" locus_tag="ctg7_139" class="clusterblast-orf" id="dummy-1_q43_0_all"  />
<polygon points="768,40 771,40 776,35 771,30 768,30 768,40 " style="fill:white; stroke-width:1; stroke:black; " description="&lt;b&gt;ctg7_140&lt;/b&gt;&lt;br&gt;ctg7 140&lt;br&gt;Location: 186977 - 187802" locus_tag="ctg7_140" class="clusterblast-orf" id="dummy-1_q44_0_all"  />
<polygon points="777,35 780,30 780,40 777,35 " style="fill:white; stroke-width:1; stroke:black; " description="&lt;b&gt;ctg7_141&lt;/b&gt;&lt;br&gt;ctg7 141&lt;br&gt;Location: 187877 - 188138" locus_tag="ctg7_141" class="clusterblast-orf" id="dummy-1_q45_0_all"  />
</g>
<g label="BGC0001312" description="BGC0001312_c1: viscosin (25% of genes show similarity), NRP" class="clusterblast-cluster"  >
<text x="5" y="70" class="clusterblast-acc"  >
<a xlink:href="https://mibig.secondarymetabolites.org/go/BGC0001312/1" target="_blank">BGC0001312</a>: viscosin                                                                         (25% of genes show similarity), NRP</text>
<line x1="10" y1="85" x2="778.0" y2="85" style="stroke-width:1; stroke:grey; "  />
</g>
<g id="a1_000"  >
<polygon points="165,85 170,80 174,80 174,90 170,90 165,85 " style="fill:#d8b115; stroke-width:1; stroke:black; " description="&lt;b&gt;PFLU_2548&lt;/b&gt;&lt;br&gt;conserved hypothetical protein&lt;br&gt;Location: 1 - 861&lt;br&gt;&lt;br&gt;&lt;b&gt;BlastP hit with ctg7_119&lt;/b&gt;&lt;br&gt;Percentage identity: 95&lt;br&gt;Percentage coverage: 98&lt;br&gt;BLAST bit score: 578&lt;br&gt;E-value: 9.78e-212" locus_tag="PFLU_2548" class="clusterblast-orf" id="dummy-1_h1_3_0"  />
</g>
<g id="a1_001"  >
<polygon points="174,85 179,80 187,80 187,90 179,90 174,85 " style="fill:#15d863; stroke-width:1; stroke:black; " description="&lt;b&gt;PFLU_2549&lt;/b&gt;&lt;br&gt;putative aminotransferase&lt;br&gt;Location: 896 - 2167&lt;br&gt;&lt;br&gt;&lt;b&gt;BlastP hit with ctg7_120&lt;/b&gt;&lt;br&gt;Percentage identity: 86&lt;br&gt;Percentage coverage: 100&lt;br&gt;BLAST bit score: 743&lt;br&gt;E-value: 2.29e-272" locus_tag="PFLU_2549" class="clusterblast-orf" id="dummy-1_h1_3_1"  />
</g>
<g id="a1_002"  >
<polygon points="187,85 192,80 201,80 201,90 192,90 187,85 " style="fill:#1515d8; stroke-width:1; stroke:black; " description="&lt;b&gt;PFLU_2550&lt;/b&gt;&lt;br&gt;putative dipeptidase&lt;br&gt;Location: 2186 - 3535&lt;br&gt;&lt;br&gt;&lt;b&gt;BlastP hit with ctg7_121&lt;/b&gt;&lt;br&gt;Percentage identity: 92&lt;br&gt;Percentage coverage: 100&lt;br&gt;BLAST bit score: 862&lt;br&gt;E-value: 8.41e-319" locus_tag="PFLU_2550" class="clusterblast-orf" id="dummy-1_h1_3_2"  />
</g>
<g id="a1_003"  >
<polygon points="203,90 215,90 220,85 215,80 203,80 203,90 " style="fill:#d81563; stroke-width:1; stroke:black; " description="&lt;b&gt;PFLU_2551&lt;/b&gt;&lt;br&gt;conserved hypothetical protein&lt;br&gt;Location: 3678 - 5303&lt;br&gt;&lt;br&gt;&lt;b&gt;BlastP hit with ctg7_122&lt;/b&gt;&lt;br&gt;Percentage identity: 93&lt;br&gt;Percentage coverage: 100&lt;br&gt;BLAST bit score: 1067&lt;br&gt;E-value: 0.0" locus_tag="PFLU_2551" class="clusterblast-orf" id="dummy-1_h1_3_3"  />
</g>
<g id="a1_004"  >
<polygon points="224,90 352,90 357,85 352,80 224,80 224,90 " style="fill:white; stroke-width:1; stroke:black; " description="&lt;b&gt;PFLU_2552&lt;/b&gt;&lt;br&gt;putative non-ribosomal peptide synthetase&lt;br&gt;Location: 5734 - 18618" locus_tag="PFLU_2552" class="clusterblast-orf" id="dummy-1_h1_3_4"  />
</g>
<g id="a1_005"  >
<polygon points="357,90 469,90 474,85 469,80 357,80 357,90 " style="fill:white; stroke-width:1; stroke:black; " description="&lt;b&gt;PFLU_2553&lt;/b&gt;&lt;br&gt;putative non-ribosomal peptide synthetase&lt;br&gt;Location: 18615 - 29936" locus_tag="PFLU_2553" class="clusterblast-orf" id="dummy-1_h1_3_5"  />
</g>
<g id="a1_006"  >
<polygon points="485,90 492,90 497,85 492,80 485,80 485,90 " style="fill:white; stroke-width:1; stroke:black; " description="&lt;b&gt;PFLU_2555&lt;/b&gt;&lt;br&gt;putative drug-efflux protein&lt;br&gt;Location: 30994 - 32145" locus_tag="PFLU_2555" class="clusterblast-orf" id="dummy-1_h1_3_6"  />
</g>
<g id="a1_007"  >
<polygon points="497,90 513,90 518,85 513,80 497,80 497,90 " style="fill:white; stroke-width:1; stroke:black; " description="&lt;b&gt;PFLU_2556&lt;/b&gt;&lt;br&gt;macrolide-specific ABC-type efflux carrier&lt;br&gt;Location: 32149 - 34107" locus_tag="PFLU_2556" class="clusterblast-orf" id="dummy-1_h1_3_7"  />
</g>
<g id="a1_008"  >
<polygon points="518,85 523,80 525,80 525,90 523,90 518,85 " style="fill:white; stroke-width:1; stroke:black; " description="&lt;b&gt;PFLU_2557&lt;/b&gt;&lt;br&gt;putative LuxR-family regulatory protein&lt;br&gt;Location: 34178 - 34852" locus_tag="PFLU_2557" class="clusterblast-orf" id="dummy-1_h1_3_8"  />
</g>
<g id="a1_009"  >
<polygon points="527,85 532,80 540,80 540,90 532,90 527,85 " style="fill:white; stroke-width:1; stroke:black; " description="&lt;b&gt;PFLU_2558&lt;/b&gt;&lt;br&gt;methionine gamma-lyase&lt;br&gt;Location: 35005 - 36240" locus_tag="PFLU_2558" class="clusterblast-orf" id="dummy-1_h1_3_9"  />
</g>
<g id="a1_0010"  >
<polygon points="541,90 541,90 546,85 541,80 541,80 541,90 " style="fill:white; stroke-width:1; stroke:black; " description="&lt;b&gt;PFLU_2559&lt;/b&gt;&lt;br&gt;AsnC family regulatory protein&lt;br&gt;Location: 36364 - 36834" locus_tag="PFLU_2559" class="clusterblast-orf" id="dummy-1_h1_3_10"  />
</g>
<g id="a1_0011"  >
<polygon points="550,90 550,90 555,85 550,80 550,80 550,90 " style="fill:white; stroke-width:1; stroke:black; " description="&lt;b&gt;PFLU_2561&lt;/b&gt;&lt;br&gt;conserved hypothetical protein&lt;br&gt;Location: 37269 - 37706" locus_tag="PFLU_2561" class="clusterblast-orf" id="dummy-1_h1_3_11"  />
</g>
<g id="a1_0012"  >
<polygon points="555,85 560,80 577,80 577,90 560,90 555,85 " style="fill:white; stroke-width:1; stroke:black; " description="&lt;b&gt;PFLU_2562&lt;/b&gt;&lt;br&gt;putative ferric siderophore receptor&lt;br&gt;Location: 37710 - 39872" locus_tag="PFLU_2562" class="clusterblast-orf" id="dummy-1_h1_3_12"  />
</g>
<g id="a1_0013"  >
<polygon points="578,85 583,80 588,80 588,90 583,90 578,85 " style="fill:white; stroke-width:1; stroke:black; " description="&lt;b&gt;PFLU_2563&lt;/b&gt;&lt;br&gt;putative AraC-type regulatory protein&lt;br&gt;Location: 39960 - 40892" locus_tag="PFLU_2563" class="clusterblast-orf" id="dummy-1_h1_3_13"  />
</g>
<g id="a1_0014"  >
<polygon points="590,90 596,90 601,85 596,80 590,80 590,90 " style="fill:white; stroke-width:1; stroke:black; " description="&lt;b&gt;PFLU_2564&lt;/b&gt;&lt;br&gt;putrescine ABC transporter, substrate-binding protein&lt;br&gt;Location: 41057 - 42145" locus_tag="PFLU_2564" class="clusterblast-orf" id="dummy-1_h1_3_14"  />
</g>
<g id="a1_0015"  >
<polygon points="601,90 609,90 614,85 609,80 601,80 601,90 " style="fill:white; stroke-width:1; stroke:black; " description="&lt;b&gt;PFLU_2565&lt;/b&gt;&lt;br&gt;putative oxidoreductase&lt;br&gt;Location: 42142 - 43437" locus_tag="PFLU_2565" class="clusterblast-orf" id="dummy-1_h1_3_15"  />
</g>
</svg>
