<svg xmlns="http://www.w3.org/2000/svg" xmlns:xlink="http://www.w3.org/1999/xlink" version="1.1" x="0" y="0" height="230" width="800" viewBox="0 0 800 230" preserveAspectRatio="none"  >
<g label="Query sequence" class="clusterblast-cluster"  >
<text x="5" y="20" class="clusterblast-acc"  >
Query sequence</text>
<line x1="10" y1="35" x2="778.0" y2="35" style="stroke-width:1; stroke:grey; "  />
<polygon points="31,40 50,40 55,35 50,30 31,30 31,40 " style="fill:white; stroke-width:1; stroke:black; " description="&lt;b&gt;ctg5_146&lt;/b&gt;&lt;br&gt;ctg5 146&lt;br&gt;Location: 125434 - 126934" locus_tag="ctg5_146" class="clusterblast-orf" id="dummy-1_q0_0_all"  />
<polygon points="55,40 59,40 64,35 59,30 55,30 55,40 " style="fill:white; stroke-width:1; stroke:black; " description="&lt;b&gt;ctg5_147&lt;/b&gt;&lt;br&gt;ctg5 147&lt;br&gt;Location: 126899 - 127493" locus_tag="ctg5_147" class="clusterblast-orf" id="dummy-1_q1_0_all"  />
<polygon points="66,40 77,40 82,35 77,30 66,30 66,40 " style="fill:white; stroke-width:1; stroke:black; " description="&lt;b&gt;ctg5_148&lt;/b&gt;&lt;br&gt;ctg5 148&lt;br&gt;Location: 127604 - 128546" locus_tag="ctg5_148" class="clusterblast-orf" id="dummy-1_q2_0_all"  />
<polygon points="83,35 88,30 95,30 95,40 88,40 83,35 " style="fill:#d81515; stroke-width:1; stroke:black; " description="&lt;b&gt;ctg5_149&lt;/b&gt;&lt;br&gt;ctg5 149&lt;br&gt;Location: 128607 - 129363" locus_tag="ctg5_149" class="clusterblast-orf" id="dummy-1_q3_0_all"  />
<polygon points="95,35 100,30 108,30 108,40 100,40 95,35 " style="fill:#4dd815; stroke-width:1; stroke:black; " description="&lt;b&gt;ctg5_150&lt;/b&gt;&lt;br&gt;ctg5 150&lt;br&gt;Location: 129352 - 130156" locus_tag="ctg5_150" class="clusterblast-orf" id="dummy-1_q4_0_all"  />
<polygon points="108,35 113,30 121,30 121,40 113,40 108,35 " style="fill:#1585d8; stroke-width:1; stroke:black; " description="&lt;b&gt;ctg5_151&lt;/b&gt;&lt;br&gt;ctg5 151&lt;br&gt;Location: 130148 - 130970" locus_tag="ctg5_151" class="clusterblast-orf" id="dummy-1_q5_0_all"  />
<polygon points="121,35 126,30 127,30 127,40 126,40 121,35 " style="fill:white; stroke-width:1; stroke:black; " description="&lt;b&gt;ctg5_152&lt;/b&gt;&lt;br&gt;ctg5 152&lt;br&gt;Location: 130982 - 131348" locus_tag="ctg5_152" class="clusterblast-orf" id="dummy-1_q6_0_all"  />
<polygon points="128,35 133,30 149,30 149,40 133,40 128,35 " style="fill:white; stroke-width:1; stroke:black; " description="&lt;b&gt;ctg5_153&lt;/b&gt;&lt;br&gt;ctg5 153&lt;br&gt;Location: 131377 - 132676" locus_tag="ctg5_153" class="clusterblast-orf" id="dummy-1_q7_0_all"  />
<polygon points="152,40 154,40 159,35 154,30 152,30 152,40 " style="fill:white; stroke-width:1; stroke:black; " description="&lt;b&gt;ctg5_154&lt;/b&gt;&lt;br&gt;ctg5 154&lt;br&gt;Location: 132884 - 133307" locus_tag="ctg5_154" class="clusterblast-orf" id="dummy-1_q8_0_all"  />
<polygon points="161,35 166,30 174,30 174,40 166,40 161,35 " style="fill:white; stroke-width:1; stroke:black; " description="&lt;b&gt;ctg5_155&lt;/b&gt;&lt;br&gt;ctg5 155&lt;br&gt;Location: 133432 - 134233" locus_tag="ctg5_155" class="clusterblast-orf" id="dummy-1_q9_0_all"  />
<polygon points="175,35 180,30 188,30 188,40 180,40 175,35 " style="fill:white; stroke-width:1; stroke:black; " description="&lt;b&gt;ctg5_156&lt;/b&gt;&lt;br&gt;ctg5 156&lt;br&gt;Location: 134248 - 135052" locus_tag="ctg5_156" class="clusterblast-orf" id="dummy-1_q10_0_all"  />
<polygon points="188,35 193,30 209,30 209,40 193,40 188,35 " style="fill:#d815bc; stroke-width:1; stroke:black; " description="&lt;b&gt;ctg5_157&lt;/b&gt;&lt;br&gt;ctg5 157&lt;br&gt;Location: 135063 - 136368" locus_tag="ctg5_157" class="clusterblast-orf" id="dummy-1_q11_0_all"  />
<polygon points="210,35 215,30 216,30 216,40 215,40 210,35 " style="fill:white; stroke-width:1; stroke:black; " description="&lt;b&gt;ctg5_158&lt;/b&gt;&lt;br&gt;ctg5 158&lt;br&gt;Location: 136413 - 136806" locus_tag="ctg5_158" class="clusterblast-orf" id="dummy-1_q12_0_all"  />
<polygon points="217,35 222,30 231,30 231,40 222,40 217,35 " style="fill:white; stroke-width:1; stroke:black; " description="&lt;b&gt;ctg5_159&lt;/b&gt;&lt;br&gt;ctg5 159&lt;br&gt;Location: 136821 - 137679" locus_tag="ctg5_159" class="clusterblast-orf" id="dummy-1_q13_0_all"  />
<polygon points="231,35 236,30 255,30 255,40 236,40 231,35 " style="fill:white; stroke-width:1; stroke:black; " description="&lt;b&gt;ctg5_160&lt;/b&gt;&lt;br&gt;ctg5 160&lt;br&gt;Location: 137725 - 139186" locus_tag="ctg5_160" class="clusterblast-orf" id="dummy-1_q14_0_all"  />
<polygon points="255,35 260,30 268,30 268,40 260,40 255,35 " style="fill:white; stroke-width:1; stroke:black; " description="&lt;b&gt;ctg5_161&lt;/b&gt;&lt;br&gt;ctg5 161&lt;br&gt;Location: 139191 - 139962" locus_tag="ctg5_161" class="clusterblast-orf" id="dummy-1_q15_0_all"  />
<polygon points="268,35 273,30 279,30 279,40 273,40 268,35 " style="fill:white; stroke-width:1; stroke:black; " description="&lt;b&gt;ctg5_162&lt;/b&gt;&lt;br&gt;ctg5 162&lt;br&gt;Location: 139958 - 140624" locus_tag="ctg5_162" class="clusterblast-orf" id="dummy-1_q16_0_all"  />
<polygon points="281,40 290,40 295,35 290,30 281,30 281,40 " style="fill:white; stroke-width:1; stroke:black; " description="&lt;b&gt;ctg5_163&lt;/b&gt;&lt;br&gt;ctg5 163&lt;br&gt;Location: 140752 - 141613" locus_tag="ctg5_163" class="clusterblast-orf" id="dummy-1_q17_0_all"  />
<polygon points="294,35 299,30 318,30 318,40 299,40 294,35 " style="fill:#d8bc15; stroke-width:1; stroke:black; " description="&lt;b&gt;ctg5_164&lt;/b&gt;&lt;br&gt;ctg5 164&lt;br&gt;Location: 141539 - 143009" locus_tag="ctg5_164" class="clusterblast-orf" id="dummy-1_q18_0_all"  />
<polygon points="318,35 323,30 331,30 331,40 323,40 318,35 " style="fill:#15d885; stroke-width:1; stroke:black; " description="&lt;b&gt;ctg5_165&lt;/b&gt;&lt;br&gt;ctg5 165&lt;br&gt;Location: 143008 - 143803" locus_tag="ctg5_165" class="clusterblast-orf" id="dummy-1_q19_0_all"  />
<polygon points="339,40 436,40 441,35 436,30 339,30 339,40 " style="fill:#4d15d8; stroke-width:1; stroke:black; " description="&lt;b&gt;ctg5_166&lt;/b&gt;&lt;br&gt;ctg5 166&lt;br&gt;Location: 144290 - 150560" locus_tag="ctg5_166" class="clusterblast-orf" id="dummy-1_q20_0_all"  />
<polygon points="458,40 461,35 458,30 458,40 " style="fill:white; stroke-width:1; stroke:black; " description="&lt;b&gt;ctg5_167&lt;/b&gt;&lt;br&gt;ctg5 167&lt;br&gt;Location: 151617 - 151785" locus_tag="ctg5_167" class="clusterblast-orf" id="dummy-1_q21_0_all"  />
<polygon points="463,40 472,40 477,35 472,30 463,30 463,40 " style="fill:white; stroke-width:1; stroke:black; " description="&lt;b&gt;ctg5_168&lt;/b&gt;&lt;br&gt;ctg5 168&lt;br&gt;Location: 151879 - 152737" locus_tag="ctg5_168" class="clusterblast-orf" id="dummy-1_q22_0_all"  />
<polygon points="476,40 485,40 490,35 485,30 476,30 476,40 " style="fill:white; stroke-width:1; stroke:black; " description="&lt;b&gt;ctg5_169&lt;/b&gt;&lt;br&gt;ctg5 169&lt;br&gt;Location: 152733 - 153540" locus_tag="ctg5_169" class="clusterblast-orf" id="dummy-1_q23_0_all"  />
<polygon points="489,40 504,40 509,35 504,30 489,30 489,40 " style="fill:white; stroke-width:1; stroke:black; " description="&lt;b&gt;ctg5_170&lt;/b&gt;&lt;br&gt;ctg5 170&lt;br&gt;Location: 153526 - 154720" locus_tag="ctg5_170" class="clusterblast-orf" id="dummy-1_q24_0_all"  />
<polygon points="509,40 516,40 521,35 516,30 509,30 509,40 " style="fill:white; stroke-width:1; stroke:black; " description="&lt;b&gt;ctg5_171&lt;/b&gt;&lt;br&gt;ctg5 171&lt;br&gt;Location: 154728 - 155481" locus_tag="ctg5_171" class="clusterblast-orf" id="dummy-1_q25_0_all"  />
<polygon points="521,40 528,40 533,35 528,30 521,30 521,40 " style="fill:white; stroke-width:1; stroke:black; " description="&lt;b&gt;ctg5_172&lt;/b&gt;&lt;br&gt;ctg5 172&lt;br&gt;Location: 155480 - 156194" locus_tag="ctg5_172" class="clusterblast-orf" id="dummy-1_q26_0_all"  />
<polygon points="533,35 538,30 558,30 558,40 538,40 533,35 " style="fill:white; stroke-width:1; stroke:black; " description="&lt;b&gt;ctg5_173&lt;/b&gt;&lt;br&gt;ctg5 173&lt;br&gt;Location: 156215 - 157733" locus_tag="ctg5_173" class="clusterblast-orf" id="dummy-1_q27_0_all"  />
<polygon points="559,35 564,30 586,30 586,40 564,40 559,35 " style="fill:white; stroke-width:1; stroke:black; " description="&lt;b&gt;ctg5_174&lt;/b&gt;&lt;br&gt;ctg5 174&lt;br&gt;Location: 157759 - 159415" locus_tag="ctg5_174" class="clusterblast-orf" id="dummy-1_q28_0_all"  />
<polygon points="589,35 594,30 600,30 600,40 594,40 589,35 " style="fill:white; stroke-width:1; stroke:black; " description="&lt;b&gt;ctg5_175&lt;/b&gt;&lt;br&gt;ctg5 175&lt;br&gt;Location: 159604 - 160279" locus_tag="ctg5_175" class="clusterblast-orf" id="dummy-1_q29_0_all"  />
<polygon points="604,40 610,40 615,35 610,30 604,30 604,40 " style="fill:white; stroke-width:1; stroke:black; " description="&lt;b&gt;ctg5_176&lt;/b&gt;&lt;br&gt;ctg5 176&lt;br&gt;Location: 160553 - 161222" locus_tag="ctg5_176" class="clusterblast-orf" id="dummy-1_q30_0_all"  />
<polygon points="615,40 650,40 655,35 650,30 615,30 615,40 " style="fill:white; stroke-width:1; stroke:black; " description="&lt;b&gt;ctg5_177&lt;/b&gt;&lt;br&gt;ctg5 177&lt;br&gt;Location: 161190 - 163686" locus_tag="ctg5_177" class="clusterblast-orf" id="dummy-1_q31_0_all"  />
<polygon points="655,40 668,40 673,35 668,30 655,30 655,40 " style="fill:white; stroke-width:1; stroke:black; " description="&lt;b&gt;ctg5_178&lt;/b&gt;&lt;br&gt;ctg5 178&lt;br&gt;Location: 163675 - 164740" locus_tag="ctg5_178" class="clusterblast-orf" id="dummy-1_q32_0_all"  />
<polygon points="675,40 694,40 699,35 694,30 675,30 675,40 " style="fill:white; stroke-width:1; stroke:black; " description="&lt;b&gt;ctg5_179&lt;/b&gt;&lt;br&gt;ctg5 179&lt;br&gt;Location: 164890 - 166333" locus_tag="ctg5_179" class="clusterblast-orf" id="dummy-1_q33_0_all"  />
<polygon points="699,35 704,30 717,30 717,40 704,40 699,35 " style="fill:white; stroke-width:1; stroke:black; " description="&lt;b&gt;ctg5_180&lt;/b&gt;&lt;br&gt;ctg5 180&lt;br&gt;Location: 166383 - 167484" locus_tag="ctg5_180" class="clusterblast-orf" id="dummy-1_q34_0_all"  />
<polygon points="717,35 722,30 728,30 728,40 722,40 717,35 " style="fill:white; stroke-width:1; stroke:black; " description="&lt;b&gt;ctg5_181&lt;/b&gt;&lt;br&gt;ctg5 181&lt;br&gt;Location: 167486 - 168158" locus_tag="ctg5_181" class="clusterblast-orf" id="dummy-1_q35_0_all"  />
<polygon points="734,40 744,40 749,35 744,30 734,30 734,40 " style="fill:white; stroke-width:1; stroke:black; " description="&lt;b&gt;ctg5_182&lt;/b&gt;&lt;br&gt;ctg5 182&lt;br&gt;Location: 168475 - 169399" locus_tag="ctg5_182" class="clusterblast-orf" id="dummy-1_q36_0_all"  />
</g>
<g label="BGC0002521" description="BGC0002521_c1: putisolvin III/putisolvin VI/putisolvin V (44% of genes show similarity), NRP" class="clusterblast-cluster"  >
<text x="5" y="70" class="clusterblast-acc"  >
<a xlink:href="https://mibig.secondarymetabolites.org/go/BGC0002521/1" target="_blank">BGC0002521</a>: putisolvin III/putisolvin VI/putisolvin V                                        (44% of genes show similarity), NRP</text>
<line x1="10" y1="85" x2="778.0" y2="85" style="stroke-width:1; stroke:grey; "  />
</g>
<g id="a1_000"  >
<polygon points="0,85 5,80 14,80 14,90 5,90 0,85 " style="fill:white; stroke-width:1; stroke:black; " description="&lt;b&gt;QMN69929.1&lt;/b&gt;&lt;br&gt;Usp&lt;br&gt;Location: 1 - 891" locus_tag="QMN69929.1" class="clusterblast-orf" id="dummy-1_h1_8_0"  />
</g>
<g id="a1_001"  >
<polygon points="16,85 21,80 39,80 39,90 21,90 16,85 " style="fill:#d8bc15; stroke-width:1; stroke:black; " description="&lt;b&gt;QMN69930.1&lt;/b&gt;&lt;br&gt;PsoT&lt;br&gt;Location: 993 - 2402&lt;br&gt;&lt;br&gt;&lt;b&gt;BlastP hit with ctg5_164&lt;/b&gt;&lt;br&gt;Percentage identity: 72&lt;br&gt;Percentage coverage: 93&lt;br&gt;BLAST bit score: 626&lt;br&gt;E-value: 1.32e-224" locus_tag="QMN69930.1" class="clusterblast-orf" id="dummy-1_h1_8_1"  />
</g>
<g id="a1_002"  >
<polygon points="39,85 44,80 52,80 52,90 44,90 39,85 " style="fill:#15d885; stroke-width:1; stroke:black; " description="&lt;b&gt;QMN69931.1&lt;/b&gt;&lt;br&gt;PsoR1&lt;br&gt;Location: 2420 - 3190&lt;br&gt;&lt;br&gt;&lt;b&gt;BlastP hit with ctg5_165&lt;/b&gt;&lt;br&gt;Percentage identity: 54&lt;br&gt;Percentage coverage: 100&lt;br&gt;BLAST bit score: 258&lt;br&gt;E-value: 2.48e-86" locus_tag="QMN69931.1" class="clusterblast-orf" id="dummy-1_h1_8_2"  />
</g>
<g id="a1_003"  >
<polygon points="58,90 157,90 162,85 157,80 58,80 58,90 " style="fill:#4d15d8; stroke-width:1; stroke:black; " description="&lt;b&gt;QMN69932.1&lt;/b&gt;&lt;br&gt;PsoA&lt;br&gt;Location: 3609 - 9959&lt;br&gt;&lt;br&gt;&lt;b&gt;BlastP hit with ctg5_166&lt;/b&gt;&lt;br&gt;Percentage identity: 59&lt;br&gt;Percentage coverage: 101&lt;br&gt;BLAST bit score: 2370&lt;br&gt;E-value: 0.0" locus_tag="QMN69932.1" class="clusterblast-orf" id="dummy-1_h1_8_3"  />
</g>
<g id="a1_004"  >
<polygon points="165,90 524,90 529,85 524,80 165,80 165,90 " style="fill:#4d15d8; stroke-width:1; stroke:black; " description="&lt;b&gt;QMN69933.1&lt;/b&gt;&lt;br&gt;PsoB&lt;br&gt;Location: 10141 - 32436&lt;br&gt;&lt;br&gt;&lt;b&gt;BlastP hit with ctg5_166&lt;/b&gt;&lt;br&gt;Percentage identity: 49&lt;br&gt;Percentage coverage: 100&lt;br&gt;BLAST bit score: 1779&lt;br&gt;E-value: 0.0" locus_tag="QMN69933.1" class="clusterblast-orf" id="dummy-1_h1_8_4"  />
</g>
<g id="a1_005"  >
<polygon points="529,90 709,90 714,85 709,80 529,80 529,90 " style="fill:white; stroke-width:1; stroke:black; " description="&lt;b&gt;QMN69934.1&lt;/b&gt;&lt;br&gt;PsoC&lt;br&gt;Location: 32439 - 43760" locus_tag="QMN69934.1" class="clusterblast-orf" id="dummy-1_h1_8_5"  />
</g>
<g id="a1_006"  >
<polygon points="716,90 730,90 735,85 730,80 716,80 716,90 " style="fill:white; stroke-width:1; stroke:black; " description="&lt;b&gt;QMN69935.1&lt;/b&gt;&lt;br&gt;PsoD&lt;br&gt;Location: 43894 - 45057" locus_tag="QMN69935.1" class="clusterblast-orf" id="dummy-1_h1_8_6"  />
</g>
<g id="a1_007"  >
<polygon points="735,90 763,90 768,85 763,80 735,80 735,90 " style="fill:white; stroke-width:1; stroke:black; " description="&lt;b&gt;QMN69936.1&lt;/b&gt;&lt;br&gt;PsoE&lt;br&gt;Location: 45060 - 47063" locus_tag="QMN69936.1" class="clusterblast-orf" id="dummy-1_h1_8_7"  />
</g>
<g id="a1_008"  >
<polygon points="769,85 774,80 780,80 780,90 774,90 769,85 " style="fill:white; stroke-width:1; stroke:black; " description="&lt;b&gt;QMN69937.1&lt;/b&gt;&lt;br&gt;PsoR2&lt;br&gt;Location: 47128 - 47772" locus_tag="QMN69937.1" class="clusterblast-orf" id="dummy-1_h1_8_8"  />
</g>
</svg>
