<svg xmlns="http://www.w3.org/2000/svg" xmlns:xlink="http://www.w3.org/1999/xlink" version="1.1" x="0" y="0" height="230" width="800" viewBox="0 0 800 230" preserveAspectRatio="none"  >
<g label="Query sequence" class="clusterblast-cluster"  >
<text x="5" y="20" class="clusterblast-acc"  >
Query sequence</text>
<line x1="10" y1="35" x2="778.0" y2="35" style="stroke-width:1; stroke:grey; "  />
<polygon points="0,40 2,35 0,30 0,40 " style="fill:white; stroke-width:1; stroke:black; " description="&lt;b&gt;ctg9_30&lt;/b&gt;&lt;br&gt;ctg9 30&lt;br&gt;Location: 34990 - 35251" locus_tag="ctg9_30" class="clusterblast-orf" id="dummy-1_q0_0_all"  />
<polygon points="3,35 8,30 12,30 12,40 8,40 3,35 " style="fill:white; stroke-width:1; stroke:black; " description="&lt;b&gt;ctg9_31&lt;/b&gt;&lt;br&gt;ctg9 31&lt;br&gt;Location: 35326 - 36151" locus_tag="ctg9_31" class="clusterblast-orf" id="dummy-1_q1_0_all"  />
<polygon points="12,35 17,30 27,30 27,40 17,40 12,35 " style="fill:white; stroke-width:1; stroke:black; " description="&lt;b&gt;ctg9_32&lt;/b&gt;&lt;br&gt;ctg9 32&lt;br&gt;Location: 36147 - 37671" locus_tag="ctg9_32" class="clusterblast-orf" id="dummy-1_q2_0_all"  />
<polygon points="27,35 32,30 38,30 38,40 32,40 27,35 " style="fill:white; stroke-width:1; stroke:black; " description="&lt;b&gt;ctg9_33&lt;/b&gt;&lt;br&gt;ctg9 33&lt;br&gt;Location: 37667 - 38651" locus_tag="ctg9_33" class="clusterblast-orf" id="dummy-1_q3_0_all"  />
<polygon points="40,40 42,35 40,30 40,40 " style="fill:white; stroke-width:1; stroke:black; " description="&lt;b&gt;ctg9_34&lt;/b&gt;&lt;br&gt;ctg9 34&lt;br&gt;Location: 38920 - 39097" locus_tag="ctg9_34" class="clusterblast-orf" id="dummy-1_q4_0_all"  />
<polygon points="43,40 57,40 62,35 57,30 43,30 43,40 " style="fill:white; stroke-width:1; stroke:black; " description="&lt;b&gt;ctg9_35&lt;/b&gt;&lt;br&gt;ctg9 35&lt;br&gt;Location: 39195 - 41004" locus_tag="ctg9_35" class="clusterblast-orf" id="dummy-1_q5_0_all"  />
<polygon points="63,40 81,40 86,35 81,30 63,30 63,40 " style="fill:#d81515; stroke-width:1; stroke:black; " description="&lt;b&gt;ctg9_36&lt;/b&gt;&lt;br&gt;ctg9 36&lt;br&gt;Location: 41130 - 43359" locus_tag="ctg9_36" class="clusterblast-orf" id="dummy-1_q6_0_all"  />
<polygon points="88,40 90,35 88,30 88,40 " style="fill:white; stroke-width:1; stroke:black; " description="&lt;b&gt;ctg9_37&lt;/b&gt;&lt;br&gt;ctg9 37&lt;br&gt;Location: 43501 - 43723" locus_tag="ctg9_37" class="clusterblast-orf" id="dummy-1_q7_0_all"  />
<polygon points="91,35 96,30 96,30 96,40 96,40 91,35 " style="fill:white; stroke-width:1; stroke:black; " description="&lt;b&gt;ctg9_38&lt;/b&gt;&lt;br&gt;ctg9 38&lt;br&gt;Location: 43824 - 44316" locus_tag="ctg9_38" class="clusterblast-orf" id="dummy-1_q8_0_all"  />
<polygon points="98,35 103,30 109,30 109,40 103,40 98,35 " style="fill:white; stroke-width:1; stroke:black; " description="&lt;b&gt;ctg9_39&lt;/b&gt;&lt;br&gt;ctg9 39&lt;br&gt;Location: 44478 - 45585" locus_tag="ctg9_39" class="clusterblast-orf" id="dummy-1_q9_0_all"  />
<polygon points="110,35 113,30 113,40 110,35 " style="fill:#65d815; stroke-width:1; stroke:black; " description="&lt;b&gt;ctg9_40&lt;/b&gt;&lt;br&gt;ctg9 40&lt;br&gt;Location: 45600 - 45936" locus_tag="ctg9_40" class="clusterblast-orf" id="dummy-1_q10_0_all"  />
<polygon points="114,35 119,30 121,30 121,40 119,40 114,35 " style="fill:#15b6d8; stroke-width:1; stroke:black; " description="&lt;b&gt;ctg9_41&lt;/b&gt;&lt;br&gt;ctg9 41&lt;br&gt;Location: 45988 - 46705" locus_tag="ctg9_41" class="clusterblast-orf" id="dummy-1_q11_0_all"  />
<polygon points="125,35 130,30 153,30 153,40 130,40 125,35 " style="fill:#8815d8; stroke-width:1; stroke:black; " description="&lt;b&gt;ctg9_42&lt;/b&gt;&lt;br&gt;ctg9 42&lt;br&gt;Location: 47106 - 49764" locus_tag="ctg9_42" class="clusterblast-orf" id="dummy-1_q12_0_all"  />
<polygon points="153,35 158,30 162,30 162,40 158,40 153,35 " style="fill:#d83815; stroke-width:1; stroke:black; " description="&lt;b&gt;ctg9_43&lt;/b&gt;&lt;br&gt;ctg9 43&lt;br&gt;Location: 49777 - 50608" locus_tag="ctg9_43" class="clusterblast-orf" id="dummy-1_q13_0_all"  />
<polygon points="162,35 164,30 164,40 162,35 " style="fill:#43d815; stroke-width:1; stroke:black; " description="&lt;b&gt;ctg9_44&lt;/b&gt;&lt;br&gt;ctg9 44&lt;br&gt;Location: 50604 - 50865" locus_tag="ctg9_44" class="clusterblast-orf" id="dummy-1_q14_0_all"  />
<polygon points="164,35 169,30 173,30 173,40 169,40 164,35 " style="fill:#1593d8; stroke-width:1; stroke:black; " description="&lt;b&gt;ctg9_45&lt;/b&gt;&lt;br&gt;ctg9 45&lt;br&gt;Location: 50879 - 51749" locus_tag="ctg9_45" class="clusterblast-orf" id="dummy-1_q15_0_all"  />
<polygon points="173,35 178,30 183,30 183,40 178,40 173,35 " style="fill:#aa15d8; stroke-width:1; stroke:black; " description="&lt;b&gt;ctg9_46&lt;/b&gt;&lt;br&gt;ctg9 46&lt;br&gt;Location: 51745 - 52717" locus_tag="ctg9_46" class="clusterblast-orf" id="dummy-1_q16_0_all"  />
<polygon points="183,35 188,30 193,30 193,40 188,40 183,35 " style="fill:#d85a15; stroke-width:1; stroke:black; " description="&lt;b&gt;ctg9_47&lt;/b&gt;&lt;br&gt;ctg9 47&lt;br&gt;Location: 52716 - 53607" locus_tag="ctg9_47" class="clusterblast-orf" id="dummy-1_q17_0_all"  />
<polygon points="194,40 199,40 204,35 199,30 194,30 194,40 " style="fill:#21d815; stroke-width:1; stroke:black; " description="&lt;b&gt;ctg9_48&lt;/b&gt;&lt;br&gt;ctg9 48&lt;br&gt;Location: 53750 - 54698" locus_tag="ctg9_48" class="clusterblast-orf" id="dummy-1_q18_0_all"  />
<polygon points="204,35 209,30 221,30 221,40 209,40 204,35 " style="fill:#1571d8; stroke-width:1; stroke:black; " description="&lt;b&gt;ctg9_49&lt;/b&gt;&lt;br&gt;ctg9 49&lt;br&gt;Location: 54690 - 56310" locus_tag="ctg9_49" class="clusterblast-orf" id="dummy-1_q19_0_all"  />
<polygon points="222,40 231,40 236,35 231,30 222,30 222,40 " style="fill:#cd15d8; stroke-width:1; stroke:black; " description="&lt;b&gt;ctg9_50&lt;/b&gt;&lt;br&gt;ctg9 50&lt;br&gt;Location: 56452 - 57802" locus_tag="ctg9_50" class="clusterblast-orf" id="dummy-1_q20_0_all"  />
<polygon points="236,40 245,40 250,35 245,30 236,30 236,40 " style="fill:#d87c15; stroke-width:1; stroke:black; " description="&lt;b&gt;ctg9_51&lt;/b&gt;&lt;br&gt;ctg9 51&lt;br&gt;Location: 57820 - 59101" locus_tag="ctg9_51" class="clusterblast-orf" id="dummy-1_q21_0_all"  />
<polygon points="250,40 254,40 259,35 254,30 250,30 250,40 " style="fill:#15d82c; stroke-width:1; stroke:black; " description="&lt;b&gt;ctg9_52&lt;/b&gt;&lt;br&gt;ctg9 52&lt;br&gt;Location: 59134 - 60007" locus_tag="ctg9_52" class="clusterblast-orf" id="dummy-1_q22_0_all"  />
<polygon points="261,35 266,30 269,30 269,40 266,40 261,35 " style="fill:#154fd8; stroke-width:1; stroke:black; " description="&lt;b&gt;ctg9_53&lt;/b&gt;&lt;br&gt;ctg9 53&lt;br&gt;Location: 60149 - 60977" locus_tag="ctg9_53" class="clusterblast-orf" id="dummy-1_q23_0_all"  />
<polygon points="271,40 283,40 288,35 283,30 271,30 271,40 " style="fill:#d815c1; stroke-width:1; stroke:black; " description="&lt;b&gt;ctg9_54&lt;/b&gt;&lt;br&gt;ctg9 54&lt;br&gt;Location: 61175 - 62828" locus_tag="ctg9_54" class="clusterblast-orf" id="dummy-1_q24_0_all"  />
<polygon points="289,40 310,40 315,35 310,30 289,30 289,40 " style="fill:#d81515; stroke-width:1; stroke:black; " description="&lt;b&gt;ctg9_55&lt;/b&gt;&lt;br&gt;ctg9 55&lt;br&gt;Location: 62937 - 65379" locus_tag="ctg9_55" class="clusterblast-orf" id="dummy-1_q25_0_all"  />
<polygon points="316,35 321,30 439,30 439,40 321,40 316,35 " style="fill:#d89f15; stroke-width:1; stroke:black; " description="&lt;b&gt;ctg9_56&lt;/b&gt;&lt;br&gt;ctg9 56&lt;br&gt;Location: 65523 - 77376" locus_tag="ctg9_56" class="clusterblast-orf" id="dummy-1_q26_0_all"  />
<polygon points="439,35 444,30 585,30 585,40 444,40 439,35 " style="fill:#d89f15; stroke-width:1; stroke:black; " description="&lt;b&gt;ctg9_57&lt;/b&gt;&lt;br&gt;ctg9 57&lt;br&gt;Location: 77379 - 91434" locus_tag="ctg9_57" class="clusterblast-orf" id="dummy-1_q27_0_all"  />
<polygon points="587,40 590,35 587,30 587,40 " style="fill:#15d84f; stroke-width:1; stroke:black; " description="&lt;b&gt;ctg9_58&lt;/b&gt;&lt;br&gt;ctg9 58&lt;br&gt;Location: 91643 - 91895" locus_tag="ctg9_58" class="clusterblast-orf" id="dummy-1_q28_0_all"  />
<polygon points="590,40 594,35 590,30 590,40 " style="fill:#152cd8; stroke-width:1; stroke:black; " description="&lt;b&gt;ctg9_59&lt;/b&gt;&lt;br&gt;ctg9 59&lt;br&gt;Location: 91891 - 92257" locus_tag="ctg9_59" class="clusterblast-orf" id="dummy-1_q29_0_all"  />
<polygon points="593,35 598,30 606,30 606,40 598,40 593,35 " style="fill:#d8159f; stroke-width:1; stroke:black; " description="&lt;b&gt;ctg9_60&lt;/b&gt;&lt;br&gt;ctg9 60&lt;br&gt;Location: 92239 - 93430" locus_tag="ctg9_60" class="clusterblast-orf" id="dummy-1_q30_0_all"  />
<polygon points="607,40 608,40 613,35 608,30 607,30 607,40 " style="fill:#d8c115; stroke-width:1; stroke:black; " description="&lt;b&gt;ctg9_61&lt;/b&gt;&lt;br&gt;ctg9 61&lt;br&gt;Location: 93572 - 94166" locus_tag="ctg9_61" class="clusterblast-orf" id="dummy-1_q31_0_all"  />
<polygon points="613,35 618,30 627,30 627,40 618,40 613,35 " style="fill:#15d871; stroke-width:1; stroke:black; " description="&lt;b&gt;ctg9_62&lt;/b&gt;&lt;br&gt;ctg9 62&lt;br&gt;Location: 94149 - 95505" locus_tag="ctg9_62" class="clusterblast-orf" id="dummy-1_q32_0_all"  />
<polygon points="628,35 633,30 633,30 633,40 633,40 628,35 " style="fill:#2115d8; stroke-width:1; stroke:black; " description="&lt;b&gt;ctg9_63&lt;/b&gt;&lt;br&gt;ctg9 63&lt;br&gt;Location: 95530 - 96103" locus_tag="ctg9_63" class="clusterblast-orf" id="dummy-1_q33_0_all"  />
<polygon points="634,35 639,30 644,30 644,40 639,40 634,35 " style="fill:#d8157c; stroke-width:1; stroke:black; " description="&lt;b&gt;ctg9_64&lt;/b&gt;&lt;br&gt;ctg9 64&lt;br&gt;Location: 96170 - 97127" locus_tag="ctg9_64" class="clusterblast-orf" id="dummy-1_q34_0_all"  />
<polygon points="644,35 649,30 655,30 655,40 649,40 644,35 " style="fill:#cdd815; stroke-width:1; stroke:black; " description="&lt;b&gt;ctg9_65&lt;/b&gt;&lt;br&gt;ctg9 65&lt;br&gt;Location: 97130 - 98174" locus_tag="ctg9_65" class="clusterblast-orf" id="dummy-1_q35_0_all"  />
<polygon points="655,35 659,30 659,40 655,35 " style="fill:#15d893; stroke-width:1; stroke:black; " description="&lt;b&gt;ctg9_66&lt;/b&gt;&lt;br&gt;ctg9 66&lt;br&gt;Location: 98189 - 98537" locus_tag="ctg9_66" class="clusterblast-orf" id="dummy-1_q36_0_all"  />
<polygon points="659,35 664,30 671,30 671,40 664,40 659,35 " style="fill:#4315d8; stroke-width:1; stroke:black; " description="&lt;b&gt;ctg9_67&lt;/b&gt;&lt;br&gt;ctg9 67&lt;br&gt;Location: 98539 - 99769" locus_tag="ctg9_67" class="clusterblast-orf" id="dummy-1_q37_0_all"  />
<polygon points="674,35 679,30 681,30 681,40 679,40 674,35 " style="fill:#d8155a; stroke-width:1; stroke:black; " description="&lt;b&gt;ctg9_68&lt;/b&gt;&lt;br&gt;ctg9 68&lt;br&gt;Location: 99987 - 100677" locus_tag="ctg9_68" class="clusterblast-orf" id="dummy-1_q38_0_all"  />
<polygon points="681,35 686,30 689,30 689,40 686,40 681,35 " style="fill:#aad815; stroke-width:1; stroke:black; " description="&lt;b&gt;ctg9_69&lt;/b&gt;&lt;br&gt;ctg9 69&lt;br&gt;Location: 100687 - 101446" locus_tag="ctg9_69" class="clusterblast-orf" id="dummy-1_q39_0_all"  />
<polygon points="689,35 694,30 701,30 701,40 694,40 689,35 " style="fill:#15d8b6; stroke-width:1; stroke:black; " description="&lt;b&gt;ctg9_70&lt;/b&gt;&lt;br&gt;ctg9 70&lt;br&gt;Location: 101442 - 102603" locus_tag="ctg9_70" class="clusterblast-orf" id="dummy-1_q40_0_all"  />
<polygon points="701,35 706,30 710,30 710,40 706,40 701,35 " style="fill:#6615d8; stroke-width:1; stroke:black; " description="&lt;b&gt;ctg9_71&lt;/b&gt;&lt;br&gt;ctg9 71&lt;br&gt;Location: 102613 - 103531" locus_tag="ctg9_71" class="clusterblast-orf" id="dummy-1_q41_0_all"  />
<polygon points="712,35 717,30 725,30 725,40 717,40 712,35 " style="fill:#d81538; stroke-width:1; stroke:black; " description="&lt;b&gt;ctg9_72&lt;/b&gt;&lt;br&gt;ctg9 72&lt;br&gt;Location: 103709 - 104918" locus_tag="ctg9_72" class="clusterblast-orf" id="dummy-1_q42_0_all"  />
<polygon points="728,40 758,40 763,35 758,30 728,30 728,40 " style="fill:#88d815; stroke-width:1; stroke:black; " description="&lt;b&gt;ctg9_73&lt;/b&gt;&lt;br&gt;ctg9 73&lt;br&gt;Location: 105220 - 108604" locus_tag="ctg9_73" class="clusterblast-orf" id="dummy-1_q43_0_all"  />
<polygon points="763,40 765,40 770,35 765,30 763,30 763,40 " style="fill:#88d815; stroke-width:1; stroke:black; " description="&lt;b&gt;ctg9_74&lt;/b&gt;&lt;br&gt;ctg9 74&lt;br&gt;Location: 108578 - 109244" locus_tag="ctg9_74" class="clusterblast-orf" id="dummy-1_q44_0_all"  />
<polygon points="771,35 776,30 780,30 780,40 776,40 771,35 " style="fill:#15d8d8; stroke-width:1; stroke:black; " description="&lt;b&gt;ctg9_75&lt;/b&gt;&lt;br&gt;ctg9 75&lt;br&gt;Location: 109364 - 110195" locus_tag="ctg9_75" class="clusterblast-orf" id="dummy-1_q45_0_all"  />
</g>
<g label="NZ_JACAQV010000025" description="NZ_JACAQV010000025 (946-70153): Pseudomonas salomonii strain IPO3765 IPO 3765... (64% of genes show similarity), NRPS" class="clusterblast-cluster"  >
<text x="5" y="70" class="clusterblast-acc"  >
<a xlink:href="https://antismash-db.secondarymetabolites.org/area.html?record=NZ_JACAQV010000025&amp;start=946&amp;end=70153" target="_blank">NZ_JACAQV010000025 (946-70153)</a>: Pseudomonas salomonii strain IPO3765 IPO 3765... (64% of genes show similarity), NRPS</text>
<line x1="10" y1="85" x2="778.0" y2="85" style="stroke-width:1; stroke:grey; "  />
</g>
<g id="a1_000"  >
<polygon points="34,85 37,80 37,90 34,85 " style="fill:#65d815; stroke-width:1; stroke:black; " description="&lt;b&gt;HX810_RS24270&lt;/b&gt;&lt;br&gt;nuclear transport factor 2 family protein&lt;br&gt;Location: 69860 - 69525&lt;br&gt;&lt;br&gt;&lt;b&gt;BlastP hit with ctg9_40&lt;/b&gt;&lt;br&gt;Percentage identity: 84&lt;br&gt;Percentage coverage: 100&lt;br&gt;BLAST bit score: 188&lt;br&gt;E-value: 1.44e-61" locus_tag="HX810_RS24270" class="clusterblast-orf" id="dummy-1_h1_7_0"  />
</g>
<g id="a1_001"  >
<polygon points="38,85 43,80 45,80 45,90 43,90 38,85 " style="fill:#15b6d8; stroke-width:1; stroke:black; " description="&lt;b&gt;HX810_RS24265&lt;/b&gt;&lt;br&gt;YafY family transcriptional regulator&lt;br&gt;Location: 69473 - 68757&lt;br&gt;&lt;br&gt;&lt;b&gt;BlastP hit with ctg9_41&lt;/b&gt;&lt;br&gt;Percentage identity: 95&lt;br&gt;Percentage coverage: 100&lt;br&gt;BLAST bit score: 441&lt;br&gt;E-value: 1.95e-157" locus_tag="HX810_RS24265" class="clusterblast-orf" id="dummy-1_h1_7_1"  />
</g>
<g id="a1_002"  >
<polygon points="47,85 52,80 75,80 75,90 52,90 47,85 " style="fill:#8815d8; stroke-width:1; stroke:black; " description="&lt;b&gt;HX810_RS24260&lt;/b&gt;&lt;br&gt;aminopeptidase N&lt;br&gt;Location: 68577 - 65920&lt;br&gt;&lt;br&gt;&lt;b&gt;BlastP hit with ctg9_42&lt;/b&gt;&lt;br&gt;Percentage identity: 97&lt;br&gt;Percentage coverage: 100&lt;br&gt;BLAST bit score: 1714&lt;br&gt;E-value: 0.0" locus_tag="HX810_RS24260" class="clusterblast-orf" id="dummy-1_h1_7_2"  />
</g>
<g id="a1_003"  >
<polygon points="75,85 80,80 84,80 84,90 80,90 75,85 " style="fill:#d83815; stroke-width:1; stroke:black; " description="&lt;b&gt;HX810_RS24255&lt;/b&gt;&lt;br&gt;DUF2797 domain-containing protein&lt;br&gt;Location: 65906 - 65076&lt;br&gt;&lt;br&gt;&lt;b&gt;BlastP hit with ctg9_43&lt;/b&gt;&lt;br&gt;Percentage identity: 98&lt;br&gt;Percentage coverage: 100&lt;br&gt;BLAST bit score: 557&lt;br&gt;E-value: 3.34e-202" locus_tag="HX810_RS24255" class="clusterblast-orf" id="dummy-1_h1_7_3"  />
</g>
<g id="a1_004"  >
<polygon points="84,85 86,80 86,90 84,85 " style="fill:#43d815; stroke-width:1; stroke:black; " description="&lt;b&gt;HX810_RS24250&lt;/b&gt;&lt;br&gt;DUF1315 family protein&lt;br&gt;Location: 65079 - 64819&lt;br&gt;&lt;br&gt;&lt;b&gt;BlastP hit with ctg9_44&lt;/b&gt;&lt;br&gt;Percentage identity: 100&lt;br&gt;Percentage coverage: 100&lt;br&gt;BLAST bit score: 175&lt;br&gt;E-value: 3.62e-57" locus_tag="HX810_RS24250" class="clusterblast-orf" id="dummy-1_h1_7_4"  />
</g>
<g id="a1_005"  >
<polygon points="86,85 91,80 95,80 95,90 91,90 86,85 " style="fill:#1593d8; stroke-width:1; stroke:black; " description="&lt;b&gt;HX810_RS24245&lt;/b&gt;&lt;br&gt;rhomboid family intramembrane serine protease&lt;br&gt;Location: 64804 - 63935&lt;br&gt;&lt;br&gt;&lt;b&gt;BlastP hit with ctg9_45&lt;/b&gt;&lt;br&gt;Percentage identity: 93&lt;br&gt;Percentage coverage: 100&lt;br&gt;BLAST bit score: 544&lt;br&gt;E-value: 1.4e-196" locus_tag="HX810_RS24245" class="clusterblast-orf" id="dummy-1_h1_7_5"  />
</g>
<g id="a1_006"  >
<polygon points="95,85 100,80 105,80 105,90 100,90 95,85 " style="fill:#aa15d8; stroke-width:1; stroke:black; " description="&lt;b&gt;HX810_RS24240&lt;/b&gt;&lt;br&gt;metallophosphoesterase&lt;br&gt;Location: 63938 - 62967&lt;br&gt;&lt;br&gt;&lt;b&gt;BlastP hit with ctg9_46&lt;/b&gt;&lt;br&gt;Percentage identity: 96&lt;br&gt;Percentage coverage: 100&lt;br&gt;BLAST bit score: 672&lt;br&gt;E-value: 3.37e-246" locus_tag="HX810_RS24240" class="clusterblast-orf" id="dummy-1_h1_7_6"  />
</g>
<g id="a1_007"  >
<polygon points="105,85 110,80 115,80 115,90 110,90 105,85 " style="fill:#d85a15; stroke-width:1; stroke:black; " description="&lt;b&gt;HX810_RS24235&lt;/b&gt;&lt;br&gt;NAD(+) kinase&lt;br&gt;Location: 62967 - 62077&lt;br&gt;&lt;br&gt;&lt;b&gt;BlastP hit with ctg9_47&lt;/b&gt;&lt;br&gt;Percentage identity: 100&lt;br&gt;Percentage coverage: 100&lt;br&gt;BLAST bit score: 599&lt;br&gt;E-value: 3.81e-218" locus_tag="HX810_RS24235" class="clusterblast-orf" id="dummy-1_h1_7_7"  />
</g>
<g id="a1_008"  >
<polygon points="116,90 121,90 126,85 121,80 116,80 116,90 " style="fill:#21d815; stroke-width:1; stroke:black; " description="&lt;b&gt;HX810_RS24230&lt;/b&gt;&lt;br&gt;DUF1853 family protein&lt;br&gt;Location: 61932 - 60985&lt;br&gt;&lt;br&gt;&lt;b&gt;BlastP hit with ctg9_48&lt;/b&gt;&lt;br&gt;Percentage identity: 93&lt;br&gt;Percentage coverage: 100&lt;br&gt;BLAST bit score: 633&lt;br&gt;E-value: 4.52e-231" locus_tag="HX810_RS24230" class="clusterblast-orf" id="dummy-1_h1_7_8"  />
</g>
<g id="a1_009"  >
<polygon points="126,85 131,80 143,80 143,90 131,90 126,85 " style="fill:#1571d8; stroke-width:1; stroke:black; " description="&lt;b&gt;HX810_RS24225&lt;/b&gt;&lt;br&gt;twin-arginine translocation signal domain-containing protein&lt;br&gt;Location: 60992 - 59379&lt;br&gt;&lt;br&gt;&lt;b&gt;BlastP hit with ctg9_49&lt;/b&gt;&lt;br&gt;Percentage identity: 94&lt;br&gt;Percentage coverage: 100&lt;br&gt;BLAST bit score: 1069&lt;br&gt;E-value: 0.0" locus_tag="HX810_RS24225" class="clusterblast-orf" id="dummy-1_h1_7_9"  />
</g>
<g id="a1_0010"  >
<polygon points="144,90 153,90 158,85 153,80 144,80 144,90 " style="fill:#cd15d8; stroke-width:1; stroke:black; " description="&lt;b&gt;HX810_RS24220&lt;/b&gt;&lt;br&gt;pyoverdine-tailoring dipeptidase-like protein PvdM&lt;br&gt;Location: 59236 - 57887&lt;br&gt;&lt;br&gt;&lt;b&gt;BlastP hit with ctg9_50&lt;/b&gt;&lt;br&gt;Percentage identity: 96&lt;br&gt;Percentage coverage: 100&lt;br&gt;BLAST bit score: 884&lt;br&gt;E-value: 0.0" locus_tag="HX810_RS24220" class="clusterblast-orf" id="dummy-1_h1_7_10"  />
</g>
<g id="a1_0011"  >
<polygon points="158,90 167,90 172,85 167,80 158,80 158,90 " style="fill:#d87c15; stroke-width:1; stroke:black; " description="&lt;b&gt;HX810_RS24215&lt;/b&gt;&lt;br&gt;aminotransferase class V-fold PLP-dependent enzyme&lt;br&gt;Location: 57868 - 56588&lt;br&gt;&lt;br&gt;&lt;b&gt;BlastP hit with ctg9_51&lt;/b&gt;&lt;br&gt;Percentage identity: 89&lt;br&gt;Percentage coverage: 100&lt;br&gt;BLAST bit score: 777&lt;br&gt;E-value: 3.61e-284" locus_tag="HX810_RS24215" class="clusterblast-orf" id="dummy-1_h1_7_11"  />
</g>
<g id="a1_0012"  >
<polygon points="172,90 176,90 181,85 176,80 172,80 172,90 " style="fill:#15d82c; stroke-width:1; stroke:black; " description="&lt;b&gt;HX810_RS24210&lt;/b&gt;&lt;br&gt;formylglycine-generating enzyme family protein&lt;br&gt;Location: 56554 - 55682&lt;br&gt;&lt;br&gt;&lt;b&gt;BlastP hit with ctg9_52&lt;/b&gt;&lt;br&gt;Percentage identity: 95&lt;br&gt;Percentage coverage: 100&lt;br&gt;BLAST bit score: 590&lt;br&gt;E-value: 7.67e-215" locus_tag="HX810_RS24210" class="clusterblast-orf" id="dummy-1_h1_7_12"  />
</g>
<g id="a1_0013"  >
<polygon points="183,85 188,80 191,80 191,90 188,90 183,85 " style="fill:#154fd8; stroke-width:1; stroke:black; " description="&lt;b&gt;HX810_RS24205&lt;/b&gt;&lt;br&gt;N(5)-hydroxyornithine transformylase PvdF&lt;br&gt;Location: 55501 - 54674&lt;br&gt;&lt;br&gt;&lt;b&gt;BlastP hit with ctg9_53&lt;/b&gt;&lt;br&gt;Percentage identity: 95&lt;br&gt;Percentage coverage: 100&lt;br&gt;BLAST bit score: 538&lt;br&gt;E-value: 6.44e-195" locus_tag="HX810_RS24205" class="clusterblast-orf" id="dummy-1_h1_7_13"  />
</g>
<g id="a1_0014"  >
<polygon points="194,90 206,90 211,85 206,80 194,80 194,90 " style="fill:#d815c1; stroke-width:1; stroke:black; " description="&lt;b&gt;HX810_RS24200&lt;/b&gt;&lt;br&gt;cyclic peptide export ABC transporter&lt;br&gt;Location: 54474 - 52822&lt;br&gt;&lt;br&gt;&lt;b&gt;BlastP hit with ctg9_54&lt;/b&gt;&lt;br&gt;Percentage identity: 92&lt;br&gt;Percentage coverage: 100&lt;br&gt;BLAST bit score: 981&lt;br&gt;E-value: 0.0" locus_tag="HX810_RS24200" class="clusterblast-orf" id="dummy-1_h1_7_14"  />
</g>
<g id="a1_0015"  >
<polygon points="212,90 232,90 237,85 232,80 212,80 212,90 " style="fill:#d81515; stroke-width:1; stroke:black; " description="&lt;b&gt;HX810_RS24195&lt;/b&gt;&lt;br&gt;TonB-dependent siderophore receptor&lt;br&gt;Location: 52667 - 50289&lt;br&gt;&lt;br&gt;&lt;b&gt;BlastP hit with ctg9_36&lt;/b&gt;&lt;br&gt;Percentage identity: 39&lt;br&gt;Percentage coverage: 96&lt;br&gt;BLAST bit score: 493&lt;br&gt;E-value: 3.45e-162&lt;br&gt;&lt;br&gt;&lt;b&gt;BlastP hit with ctg9_55&lt;/b&gt;&lt;br&gt;Percentage identity: 62&lt;br&gt;Percentage coverage: 98&lt;br&gt;BLAST bit score: 994&lt;br&gt;E-value: 0.0" locus_tag="HX810_RS24195" class="clusterblast-orf" id="dummy-1_h1_7_15"  />
</g>
<g id="a1_0016"  >
<polygon points="238,85 243,80 346,80 346,90 243,90 238,85 " style="fill:#d89f15; stroke-width:1; stroke:black; " description="&lt;b&gt;HX810_RS24190&lt;/b&gt;&lt;br&gt;amino acid adenylation domain-containing protein&lt;br&gt;Location: 50153 - 39810&lt;br&gt;&lt;br&gt;&lt;b&gt;BlastP hit with ctg9_56&lt;/b&gt;&lt;br&gt;Percentage identity: 61&lt;br&gt;Percentage coverage: 100&lt;br&gt;BLAST bit score: 4353&lt;br&gt;E-value: 0.0&lt;br&gt;&lt;br&gt;&lt;b&gt;BlastP hit with ctg9_57&lt;/b&gt;&lt;br&gt;Percentage identity: 68&lt;br&gt;Percentage coverage: 45&lt;br&gt;BLAST bit score: 2730&lt;br&gt;E-value: 0.0" locus_tag="HX810_RS24190" class="clusterblast-orf" id="dummy-1_h1_7_16"  />
</g>
<g id="a1_0017"  >
<polygon points="346,85 351,80 406,80 406,90 351,90 346,85 " style="fill:#d89f15; stroke-width:1; stroke:black; " description="&lt;b&gt;HX810_RS24185&lt;/b&gt;&lt;br&gt;amino acid adenylation domain-containing protein&lt;br&gt;Location: 39736 - 33991&lt;br&gt;&lt;br&gt;&lt;b&gt;BlastP hit with ctg9_56&lt;/b&gt;&lt;br&gt;Percentage identity: 61&lt;br&gt;Percentage coverage: 43&lt;br&gt;BLAST bit score: 1947&lt;br&gt;E-value: 0.0&lt;br&gt;&lt;br&gt;&lt;b&gt;BlastP hit with ctg9_57&lt;/b&gt;&lt;br&gt;Percentage identity: 56&lt;br&gt;Percentage coverage: 36&lt;br&gt;BLAST bit score: 1712&lt;br&gt;E-value: 0.0" locus_tag="HX810_RS24185" class="clusterblast-orf" id="dummy-1_h1_7_17"  />
</g>
<g id="a1_0018"  >
<polygon points="412,85 417,80 427,80 427,90 417,90 412,85 " style="fill:white; stroke-width:1; stroke:black; " description="&lt;b&gt;HX810_RS24180&lt;/b&gt;&lt;br&gt;non-ribosomal peptide synthetase&lt;br&gt;Location: 33429 - 31966" locus_tag="HX810_RS24180" class="clusterblast-orf" id="dummy-1_h1_7_18"  />
</g>
<g id="a1_0019"  >
<polygon points="427,85 432,80 541,80 541,90 432,90 427,85 " style="fill:#d89f15; stroke-width:1; stroke:black; " description="&lt;b&gt;HX810_RS24175&lt;/b&gt;&lt;br&gt;non-ribosomal peptide synthetase&lt;br&gt;Location: 31962 - 20947&lt;br&gt;&lt;br&gt;&lt;b&gt;BlastP hit with ctg9_56&lt;/b&gt;&lt;br&gt;Percentage identity: 61&lt;br&gt;Percentage coverage: 54&lt;br&gt;BLAST bit score: 2385&lt;br&gt;E-value: 0.0&lt;br&gt;&lt;br&gt;&lt;b&gt;BlastP hit with ctg9_57&lt;/b&gt;&lt;br&gt;Percentage identity: 60&lt;br&gt;Percentage coverage: 100&lt;br&gt;BLAST bit score: 5073&lt;br&gt;E-value: 0.0" locus_tag="HX810_RS24175" class="clusterblast-orf" id="dummy-1_h1_7_19"  />
</g>
<g id="a1_0020"  >
<polygon points="543,90 546,85 543,80 543,90 " style="fill:#15d84f; stroke-width:1; stroke:black; " description="&lt;b&gt;HX810_RS24170&lt;/b&gt;&lt;br&gt;type II toxin-antitoxin system HicA family toxin&lt;br&gt;Location: 20737 - 20474&lt;br&gt;&lt;br&gt;&lt;b&gt;BlastP hit with ctg9_58&lt;/b&gt;&lt;br&gt;Percentage identity: 92&lt;br&gt;Percentage coverage: 100&lt;br&gt;BLAST bit score: 159&lt;br&gt;E-value: 8.44e-51" locus_tag="HX810_RS24170" class="clusterblast-orf" id="dummy-1_h1_7_20"  />
</g>
<g id="a1_0021"  >
<polygon points="546,90 550,85 546,80 546,90 " style="fill:#152cd8; stroke-width:1; stroke:black; " description="&lt;b&gt;HX810_RS24165&lt;/b&gt;&lt;br&gt;type II toxin-antitoxin system HicB family antitoxin&lt;br&gt;Location: 20489 - 20124&lt;br&gt;&lt;br&gt;&lt;b&gt;BlastP hit with ctg9_59&lt;/b&gt;&lt;br&gt;Percentage identity: 92&lt;br&gt;Percentage coverage: 100&lt;br&gt;BLAST bit score: 231&lt;br&gt;E-value: 1.75e-78" locus_tag="HX810_RS24165" class="clusterblast-orf" id="dummy-1_h1_7_21"  />
</g>
<g id="a1_0022"  >
<polygon points="549,85 554,80 562,80 562,90 554,90 549,85 " style="fill:#d8159f; stroke-width:1; stroke:black; " description="&lt;b&gt;HX810_RS24160&lt;/b&gt;&lt;br&gt;MFS transporter&lt;br&gt;Location: 20157 - 18952&lt;br&gt;&lt;br&gt;&lt;b&gt;BlastP hit with ctg9_60&lt;/b&gt;&lt;br&gt;Percentage identity: 89&lt;br&gt;Percentage coverage: 100&lt;br&gt;BLAST bit score: 657&lt;br&gt;E-value: 7.17e-238" locus_tag="HX810_RS24160" class="clusterblast-orf" id="dummy-1_h1_7_22"  />
</g>
<g id="a1_0023"  >
<polygon points="563,90 565,90 570,85 565,80 563,80 563,90 " style="fill:#d8c115; stroke-width:1; stroke:black; " description="&lt;b&gt;HX810_RS24155&lt;/b&gt;&lt;br&gt;TetR/AcrR family transcriptional regulator&lt;br&gt;Location: 18810 - 18217&lt;br&gt;&lt;br&gt;&lt;b&gt;BlastP hit with ctg9_61&lt;/b&gt;&lt;br&gt;Percentage identity: 83&lt;br&gt;Percentage coverage: 100&lt;br&gt;BLAST bit score: 322&lt;br&gt;E-value: 7.59e-112" locus_tag="HX810_RS24155" class="clusterblast-orf" id="dummy-1_h1_7_23"  />
</g>
<g id="a1_0024"  >
<polygon points="569,85 574,80 583,80 583,90 574,90 569,85 " style="fill:#15d871; stroke-width:1; stroke:black; " description="&lt;b&gt;HX810_RS24150&lt;/b&gt;&lt;br&gt;MATE family efflux transporter&lt;br&gt;Location: 18233 - 16878&lt;br&gt;&lt;br&gt;&lt;b&gt;BlastP hit with ctg9_62&lt;/b&gt;&lt;br&gt;Percentage identity: 95&lt;br&gt;Percentage coverage: 100&lt;br&gt;BLAST bit score: 788&lt;br&gt;E-value: 9.58e-288" locus_tag="HX810_RS24150" class="clusterblast-orf" id="dummy-1_h1_7_24"  />
</g>
<g id="a1_0025"  >
<polygon points="584,85 589,80 590,80 590,90 589,90 584,85 " style="fill:#2115d8; stroke-width:1; stroke:black; " description="&lt;b&gt;HX810_RS24145&lt;/b&gt;&lt;br&gt;DUF2239 family protein&lt;br&gt;Location: 16852 - 16280&lt;br&gt;&lt;br&gt;&lt;b&gt;BlastP hit with ctg9_63&lt;/b&gt;&lt;br&gt;Percentage identity: 80&lt;br&gt;Percentage coverage: 99&lt;br&gt;BLAST bit score: 310&lt;br&gt;E-value: 3.38e-107" locus_tag="HX810_RS24145" class="clusterblast-orf" id="dummy-1_h1_7_25"  />
</g>
<g id="a1_0026"  >
<polygon points="591,85 596,80 600,80 600,90 596,90 591,85 " style="fill:#15d8d8; stroke-width:1; stroke:black; " description="&lt;b&gt;HX810_RS24140&lt;/b&gt;&lt;br&gt;IclR family transcriptional regulator&lt;br&gt;Location: 16119 - 15289&lt;br&gt;&lt;br&gt;&lt;b&gt;BlastP hit with ctg9_75&lt;/b&gt;&lt;br&gt;Percentage identity: 97&lt;br&gt;Percentage coverage: 100&lt;br&gt;BLAST bit score: 521&lt;br&gt;E-value: 7.15e-188" locus_tag="HX810_RS24140" class="clusterblast-orf" id="dummy-1_h1_7_26"  />
</g>
<g id="a1_0027"  >
<polygon points="602,90 608,90 613,85 608,80 602,80 602,90 " style="fill:#d8155a; stroke-width:1; stroke:black; " description="&lt;b&gt;HX810_RS24135&lt;/b&gt;&lt;br&gt;ABC transporter ATP-binding protein&lt;br&gt;Location: 15046 - 14018&lt;br&gt;&lt;br&gt;&lt;b&gt;BlastP hit with ctg9_68&lt;/b&gt;&lt;br&gt;Percentage identity: 32&lt;br&gt;Percentage coverage: 103&lt;br&gt;BLAST bit score: 102&lt;br&gt;E-value: 9.32e-24" locus_tag="HX810_RS24135" class="clusterblast-orf" id="dummy-1_h1_7_27"  />
</g>
<g id="a1_0028"  >
<polygon points="613,90 617,90 622,85 617,80 613,80 613,90 " style="fill:white; stroke-width:1; stroke:black; " description="&lt;b&gt;HX810_RS24130&lt;/b&gt;&lt;br&gt;ABC transporter permease&lt;br&gt;Location: 14021 - 13176" locus_tag="HX810_RS24130" class="clusterblast-orf" id="dummy-1_h1_7_28"  />
</g>
<g id="a1_0029"  >
<polygon points="622,90 625,90 630,85 625,80 622,80 622,90 " style="fill:white; stroke-width:1; stroke:black; " description="&lt;b&gt;HX810_RS24125&lt;/b&gt;&lt;br&gt;ABC transporter permease&lt;br&gt;Location: 13171 - 12377" locus_tag="HX810_RS24125" class="clusterblast-orf" id="dummy-1_h1_7_29"  />
</g>
<g id="a1_0030"  >
<polygon points="630,90 633,85 630,80 630,90 " style="fill:white; stroke-width:1; stroke:black; " description="&lt;b&gt;HX810_RS24120&lt;/b&gt;&lt;br&gt;(2Fe-2S)-binding protein&lt;br&gt;Location: 12377 - 12087" locus_tag="HX810_RS24120" class="clusterblast-orf" id="dummy-1_h1_7_30"  />
</g>
<g id="a1_0031"  >
<polygon points="633,90 642,90 647,85 642,80 633,80 633,90 " style="fill:white; stroke-width:1; stroke:black; " description="&lt;b&gt;HX810_RS24115&lt;/b&gt;&lt;br&gt;FAD-dependent oxidoreductase&lt;br&gt;Location: 12090 - 10747" locus_tag="HX810_RS24115" class="clusterblast-orf" id="dummy-1_h1_7_31"  />
</g>
<g id="a1_0032"  >
<polygon points="647,90 653,90 658,85 653,80 647,80 647,90 " style="fill:white; stroke-width:1; stroke:black; " description="&lt;b&gt;HX810_RS24110&lt;/b&gt;&lt;br&gt;FAD-binding oxidoreductase&lt;br&gt;Location: 10750 - 9653" locus_tag="HX810_RS24110" class="clusterblast-orf" id="dummy-1_h1_7_32"  />
</g>
<g id="a1_0033"  >
<polygon points="659,90 664,90 669,85 664,80 659,80 659,90 " style="fill:white; stroke-width:1; stroke:black; " description="&lt;b&gt;HX810_RS24105&lt;/b&gt;&lt;br&gt;ABC transporter substrate-binding protein&lt;br&gt;Location: 9638 - 8607" locus_tag="HX810_RS24105" class="clusterblast-orf" id="dummy-1_h1_7_33"  />
</g>
<g id="a1_0034"  >
<polygon points="670,85 673,80 673,90 670,85 " style="fill:white; stroke-width:1; stroke:black; " description="&lt;b&gt;HX810_RS24100&lt;/b&gt;&lt;br&gt;hypothetical protein&lt;br&gt;Location: 8567 - 8211" locus_tag="HX810_RS24100" class="clusterblast-orf" id="dummy-1_h1_7_34"  />
</g>
<g id="a1_0035"  >
<polygon points="676,85 681,80 682,80 682,90 681,90 676,85 " style="fill:white; stroke-width:1; stroke:black; " description="&lt;b&gt;HX810_RS24095&lt;/b&gt;&lt;br&gt;nicotinamidase&lt;br&gt;Location: 7983 - 7336" locus_tag="HX810_RS24095" class="clusterblast-orf" id="dummy-1_h1_7_35"  />
</g>
<g id="a1_0036"  >
<polygon points="685,85 690,80 693,80 693,90 690,90 685,85 " style="fill:white; stroke-width:1; stroke:black; " description="&lt;b&gt;HX810_RS24090&lt;/b&gt;&lt;br&gt;L-iditol 2-dehydrogenase&lt;br&gt;Location: 7100 - 6327" locus_tag="HX810_RS24090" class="clusterblast-orf" id="dummy-1_h1_7_36"  />
</g>
<g id="a1_0037"  >
<polygon points="693,85 698,80 707,80 707,90 698,90 693,85 " style="fill:white; stroke-width:1; stroke:black; " description="&lt;b&gt;HX810_RS24085&lt;/b&gt;&lt;br&gt;sugar ABC transporter substrate-binding protein&lt;br&gt;Location: 6313 - 5003" locus_tag="HX810_RS24085" class="clusterblast-orf" id="dummy-1_h1_7_37"  />
</g>
<g id="a1_0038"  >
<polygon points="709,90 714,90 719,85 714,80 709,80 709,90 " style="fill:white; stroke-width:1; stroke:black; " description="&lt;b&gt;HX810_RS24080&lt;/b&gt;&lt;br&gt;AraC family transcriptional regulator&lt;br&gt;Location: 4794 - 3856" locus_tag="HX810_RS24080" class="clusterblast-orf" id="dummy-1_h1_7_38"  />
</g>
<g id="a1_0039"  >
<polygon points="720,90 725,90 730,85 725,80 720,80 720,90 " style="fill:white; stroke-width:1; stroke:black; " description="&lt;b&gt;HX810_RS24075&lt;/b&gt;&lt;br&gt;nucleoside-specific channel-forming protein Tsx&lt;br&gt;Location: 3700 - 2738" locus_tag="HX810_RS24075" class="clusterblast-orf" id="dummy-1_h1_7_39"  />
</g>
<g id="a1_0040"  >
<polygon points="730,90 736,90 741,85 736,80 730,80 730,90 " style="fill:white; stroke-width:1; stroke:black; " description="&lt;b&gt;HX810_RS24070&lt;/b&gt;&lt;br&gt;purine nucleoside permease&lt;br&gt;Location: 2723 - 1695" locus_tag="HX810_RS24070" class="clusterblast-orf" id="dummy-1_h1_7_40"  />
</g>
<g id="a1_0041"  >
<polygon points="743,85 745,80 745,90 743,85 " style="fill:white; stroke-width:1; stroke:black; " description="&lt;b&gt;HX810_RS24065&lt;/b&gt;&lt;br&gt;hypothetical protein&lt;br&gt;Location: 1524 - 1299" locus_tag="HX810_RS24065" class="clusterblast-orf" id="dummy-1_h1_7_41"  />
</g>
</svg>
