<svg xmlns="http://www.w3.org/2000/svg" xmlns:xlink="http://www.w3.org/1999/xlink" version="1.1" x="0" y="0" height="230" width="800" viewBox="0 0 800 230" preserveAspectRatio="none"  >
<g label="Query sequence" class="clusterblast-cluster"  >
<text x="5" y="20" class="clusterblast-acc"  >
Query sequence</text>
<line x1="10" y1="35" x2="778.0" y2="35" style="stroke-width:1; stroke:grey; "  />
<polygon points="194,40 350,40 355,35 350,30 194,30 194,40 " style="fill:#d81515; stroke-width:1; stroke:black; " description="&lt;b&gt;ctg37_1&lt;/b&gt;&lt;br&gt;ctg37 1&lt;br&gt;Location: 0 - 8772" locus_tag="ctg37_1" class="clusterblast-orf" id="dummy-1_q0_0_all"  />
<polygon points="357,35 359,30 359,40 357,35 " style="fill:white; stroke-width:1; stroke:black; " description="&lt;b&gt;ctg37_2&lt;/b&gt;&lt;br&gt;ctg37 2&lt;br&gt;Location: 8882 - 9020" locus_tag="ctg37_2" class="clusterblast-orf" id="dummy-1_q1_0_all"  />
<polygon points="360,40 364,35 360,30 360,40 " style="fill:#3cd815; stroke-width:1; stroke:black; " description="&lt;b&gt;ctg37_3&lt;/b&gt;&lt;br&gt;ctg37 3&lt;br&gt;Location: 9047 - 9263" locus_tag="ctg37_3" class="clusterblast-orf" id="dummy-1_q2_0_all"  />
<polygon points="366,35 371,30 402,30 402,40 371,40 366,35 " style="fill:#1563d8; stroke-width:1; stroke:black; " description="&lt;b&gt;ctg37_4&lt;/b&gt;&lt;br&gt;ctg37 4&lt;br&gt;Location: 9405 - 11352" locus_tag="ctg37_4" class="clusterblast-orf" id="dummy-1_q3_0_all"  />
<polygon points="402,35 407,30 415,30 415,40 407,40 402,35 " style="fill:#b115d8; stroke-width:1; stroke:black; " description="&lt;b&gt;ctg37_5&lt;/b&gt;&lt;br&gt;ctg37 5&lt;br&gt;Location: 11366 - 12059" locus_tag="ctg37_5" class="clusterblast-orf" id="dummy-1_q4_0_all"  />
<polygon points="418,40 427,40 432,35 427,30 418,30 418,40 " style="fill:#d88a15; stroke-width:1; stroke:black; " description="&lt;b&gt;ctg37_6&lt;/b&gt;&lt;br&gt;ctg37 6&lt;br&gt;Location: 12254 - 13019" locus_tag="ctg37_6" class="clusterblast-orf" id="dummy-1_q5_0_all"  />
<polygon points="432,40 436,35 432,30 432,40 " style="fill:white; stroke-width:1; stroke:black; " description="&lt;b&gt;ctg37_7&lt;/b&gt;&lt;br&gt;ctg37 7&lt;br&gt;Location: 12987 - 13236" locus_tag="ctg37_7" class="clusterblast-orf" id="dummy-1_q6_0_all"  />
<polygon points="441,35 446,30 446,30 446,40 446,40 441,35 " style="fill:white; stroke-width:1; stroke:black; " description="&lt;b&gt;ctg37_8&lt;/b&gt;&lt;br&gt;ctg37 8&lt;br&gt;Location: 13482 - 13755" locus_tag="ctg37_8" class="clusterblast-orf" id="dummy-1_q7_0_all"  />
<polygon points="449,40 453,35 449,30 449,40 " style="fill:#15d863; stroke-width:1; stroke:black; " description="&lt;b&gt;ctg37_9&lt;/b&gt;&lt;br&gt;ctg37 9&lt;br&gt;Location: 13908 - 14160" locus_tag="ctg37_9" class="clusterblast-orf" id="dummy-1_q8_0_all"  />
<polygon points="453,40 465,40 470,35 465,30 453,30 453,40 " style="fill:#3c15d8; stroke-width:1; stroke:black; " description="&lt;b&gt;ctg37_10&lt;/b&gt;&lt;br&gt;ctg37 10&lt;br&gt;Location: 14156 - 15104" locus_tag="ctg37_10" class="clusterblast-orf" id="dummy-1_q9_0_all"  />
<polygon points="472,40 527,40 532,35 527,30 472,30 472,40 " style="fill:#d8158a; stroke-width:1; stroke:black; " description="&lt;b&gt;ctg37_11&lt;/b&gt;&lt;br&gt;ctg37 11&lt;br&gt;Location: 15205 - 18478" locus_tag="ctg37_11" class="clusterblast-orf" id="dummy-1_q10_0_all"  />
<polygon points="535,40 536,40 541,35 536,30 535,30 535,40 " style="fill:#b1d815; stroke-width:1; stroke:black; " description="&lt;b&gt;ctg37_12&lt;/b&gt;&lt;br&gt;ctg37 12&lt;br&gt;Location: 18652 - 18955" locus_tag="ctg37_12" class="clusterblast-orf" id="dummy-1_q11_0_all"  />
<polygon points="542,35 547,30 576,30 576,40 547,40 542,35 " style="fill:#15d8d8; stroke-width:1; stroke:black; " description="&lt;b&gt;ctg37_13&lt;/b&gt;&lt;br&gt;ctg37 13&lt;br&gt;Location: 18994 - 20875" locus_tag="ctg37_13" class="clusterblast-orf" id="dummy-1_q12_0_all"  />
<polygon points="580,35 585,30 585,30 585,40 585,40 580,35 " style="fill:white; stroke-width:1; stroke:black; " description="&lt;b&gt;ctg37_14&lt;/b&gt;&lt;br&gt;ctg37 14&lt;br&gt;Location: 21076 - 21364" locus_tag="ctg37_14" class="clusterblast-orf" id="dummy-1_q13_0_all"  />
</g>
<g label="NZ_LT629802" description="NZ_LT629802 (4806963-4850353): Pseudomonas mucidolens strain LMG 2223 chromos... (47% of genes show similarity), NRPS-like" class="clusterblast-cluster"  >
<text x="5" y="70" class="clusterblast-acc"  >
<a xlink:href="https://antismash-db.secondarymetabolites.org/area.html?record=NZ_LT629802&amp;start=4806963&amp;end=4850353" target="_blank">NZ_LT629802 (4806963-4850353)</a>: Pseudomonas mucidolens strain LMG 2223 chromos... (47% of genes show similarity), NRPS-like</text>
<line x1="10" y1="85" x2="778.0" y2="85" style="stroke-width:1; stroke:grey; "  />
</g>
<g id="a1_000"  >
<polygon points="0,90 244,90 249,85 244,80 0,80 0,90 " style="fill:#d81515; stroke-width:1; stroke:black; " description="&lt;b&gt;BLU75_RS22090&lt;/b&gt;&lt;br&gt;retention module-containing protein&lt;br&gt;Location: 4807006 - 4820658&lt;br&gt;&lt;br&gt;&lt;b&gt;BlastP hit with ctg37_1&lt;/b&gt;&lt;br&gt;Percentage identity: 76&lt;br&gt;Percentage coverage: 100&lt;br&gt;BLAST bit score: 3998&lt;br&gt;E-value: 0.0" locus_tag="BLU75_RS22090" class="clusterblast-orf" id="dummy-1_h1_3_0"  />
</g>
<g id="a1_001"  >
<polygon points="252,90 253,90 258,85 253,80 252,80 252,90 " style="fill:#3cd815; stroke-width:1; stroke:black; " description="&lt;b&gt;BLU75_RS22095&lt;/b&gt;&lt;br&gt;tryptophan synthase subunit beta&lt;br&gt;Location: 4820820 - 4821158&lt;br&gt;&lt;br&gt;&lt;b&gt;BlastP hit with ctg37_3&lt;/b&gt;&lt;br&gt;Percentage identity: 70&lt;br&gt;Percentage coverage: 97&lt;br&gt;BLAST bit score: 88&lt;br&gt;E-value: 1.17e-22" locus_tag="BLU75_RS22095" class="clusterblast-orf" id="dummy-1_h1_3_1"  />
</g>
<g id="a1_002"  >
<polygon points="258,85 263,80 294,80 294,90 263,90 258,85 " style="fill:#1563d8; stroke-width:1; stroke:black; " description="&lt;b&gt;BLU75_RS22100&lt;/b&gt;&lt;br&gt;EAL domain-containing protein&lt;br&gt;Location: 4821164 - 4823110&lt;br&gt;&lt;br&gt;&lt;b&gt;BlastP hit with ctg37_4&lt;/b&gt;&lt;br&gt;Percentage identity: 90&lt;br&gt;Percentage coverage: 100&lt;br&gt;BLAST bit score: 1122&lt;br&gt;E-value: 0.0" locus_tag="BLU75_RS22100" class="clusterblast-orf" id="dummy-1_h1_3_2"  />
</g>
<g id="a1_003"  >
<polygon points="294,85 299,80 307,80 307,90 299,90 294,85 " style="fill:#b115d8; stroke-width:1; stroke:black; " description="&lt;b&gt;BLU75_RS22105&lt;/b&gt;&lt;br&gt;transglutaminase-like cysteine peptidase&lt;br&gt;Location: 4823125 - 4823817&lt;br&gt;&lt;br&gt;&lt;b&gt;BlastP hit with ctg37_5&lt;/b&gt;&lt;br&gt;Percentage identity: 86&lt;br&gt;Percentage coverage: 100&lt;br&gt;BLAST bit score: 405&lt;br&gt;E-value: 7.86e-144" locus_tag="BLU75_RS22105" class="clusterblast-orf" id="dummy-1_h1_3_3"  />
</g>
<g id="a1_004"  >
<polygon points="312,90 320,90 325,85 320,80 312,80 312,90 " style="fill:#d88a15; stroke-width:1; stroke:black; " description="&lt;b&gt;BLU75_RS22110&lt;/b&gt;&lt;br&gt;GntR family transcriptional regulator&lt;br&gt;Location: 4824096 - 4824806&lt;br&gt;&lt;br&gt;&lt;b&gt;BlastP hit with ctg37_6&lt;/b&gt;&lt;br&gt;Percentage identity: 90&lt;br&gt;Percentage coverage: 90&lt;br&gt;BLAST bit score: 392&lt;br&gt;E-value: 5.45e-138" locus_tag="BLU75_RS22110" class="clusterblast-orf" id="dummy-1_h1_3_4"  />
</g>
<g id="a1_005"  >
<polygon points="333,90 342,90 347,85 342,80 333,80 333,90 " style="fill:#15d863; stroke-width:1; stroke:black; " description="&lt;b&gt;BLU75_RS22115&lt;/b&gt;&lt;br&gt;DUF3050 domain-containing protein&lt;br&gt;Location: 4825247 - 4826023&lt;br&gt;&lt;br&gt;&lt;b&gt;BlastP hit with ctg37_9&lt;/b&gt;&lt;br&gt;Percentage identity: 58&lt;br&gt;Percentage coverage: 87&lt;br&gt;BLAST bit score: 87&lt;br&gt;E-value: 1.4e-20" locus_tag="BLU75_RS22115" class="clusterblast-orf" id="dummy-1_h1_3_5"  />
</g>
<g id="a1_006"  >
<polygon points="347,90 359,90 364,85 359,80 347,80 347,90 " style="fill:#3c15d8; stroke-width:1; stroke:black; " description="&lt;b&gt;BLU75_RS22120&lt;/b&gt;&lt;br&gt;diiron oxygenase&lt;br&gt;Location: 4826020 - 4826967&lt;br&gt;&lt;br&gt;&lt;b&gt;BlastP hit with ctg37_10&lt;/b&gt;&lt;br&gt;Percentage identity: 77&lt;br&gt;Percentage coverage: 99&lt;br&gt;BLAST bit score: 487&lt;br&gt;E-value: 3.58e-173" locus_tag="BLU75_RS22120" class="clusterblast-orf" id="dummy-1_h1_3_6"  />
</g>
<g id="a1_007"  >
<polygon points="364,90 421,90 426,85 421,80 364,80 364,90 " style="fill:#d8158a; stroke-width:1; stroke:black; " description="&lt;b&gt;BLU75_RS22125&lt;/b&gt;&lt;br&gt;non-ribosomal peptide synthetase&lt;br&gt;Location: 4826964 - 4830353&lt;br&gt;&lt;br&gt;&lt;b&gt;BlastP hit with ctg37_11&lt;/b&gt;&lt;br&gt;Percentage identity: 65&lt;br&gt;Percentage coverage: 100&lt;br&gt;BLAST bit score: 1391&lt;br&gt;E-value: 0.0" locus_tag="BLU75_RS22125" class="clusterblast-orf" id="dummy-1_h1_3_7"  />
</g>
<g id="a1_008"  >
<polygon points="427,90 430,90 435,85 430,80 427,80 427,90 " style="fill:#b1d815; stroke-width:1; stroke:black; " description="&lt;b&gt;BLU75_RS22130&lt;/b&gt;&lt;br&gt;SRPBCC family protein&lt;br&gt;Location: 4830375 - 4830836&lt;br&gt;&lt;br&gt;&lt;b&gt;BlastP hit with ctg37_12&lt;/b&gt;&lt;br&gt;Percentage identity: 71&lt;br&gt;Percentage coverage: 100&lt;br&gt;BLAST bit score: 142&lt;br&gt;E-value: 3.23e-43" locus_tag="BLU75_RS22130" class="clusterblast-orf" id="dummy-1_h1_3_8"  />
</g>
<g id="a1_009"  >
<polygon points="436,85 441,80 470,80 470,90 441,90 436,85 " style="fill:#15d8d8; stroke-width:1; stroke:black; " description="&lt;b&gt;BLU75_RS22135&lt;/b&gt;&lt;br&gt;methyl-accepting chemotaxis protein&lt;br&gt;Location: 4830884 - 4832764&lt;br&gt;&lt;br&gt;&lt;b&gt;BlastP hit with ctg37_13&lt;/b&gt;&lt;br&gt;Percentage identity: 91&lt;br&gt;Percentage coverage: 100&lt;br&gt;BLAST bit score: 997&lt;br&gt;E-value: 0.0" locus_tag="BLU75_RS22135" class="clusterblast-orf" id="dummy-1_h1_3_9"  />
</g>
<g id="a1_0010"  >
<polygon points="588,85 593,80 610,80 610,90 593,90 588,85 " style="fill:white; stroke-width:1; stroke:black; " description="&lt;b&gt;BLU75_RS22175&lt;/b&gt;&lt;br&gt;CoA transferase&lt;br&gt;Location: 4839190 - 4840410" locus_tag="BLU75_RS22175" class="clusterblast-orf" id="dummy-1_h1_3_10"  />
</g>
<g id="a1_0011"  >
<polygon points="610,85 615,80 632,80 632,90 615,90 610,85 " style="fill:white; stroke-width:1; stroke:black; " description="&lt;b&gt;BLU75_RS22180&lt;/b&gt;&lt;br&gt;acyl-CoA dehydrogenase&lt;br&gt;Location: 4840424 - 4841605" locus_tag="BLU75_RS22180" class="clusterblast-orf" id="dummy-1_h1_3_11"  />
</g>
<g id="a1_0012"  >
<polygon points="635,90 646,90 651,85 646,80 635,80 635,90 " style="fill:white; stroke-width:1; stroke:black; " description="&lt;b&gt;BLU75_RS22185&lt;/b&gt;&lt;br&gt;LysR family transcriptional regulator&lt;br&gt;Location: 4841763 - 4842662" locus_tag="BLU75_RS22185" class="clusterblast-orf" id="dummy-1_h1_3_12"  />
</g>
<g id="a1_0013"  >
<polygon points="659,90 675,90 680,85 675,80 659,80 659,90 " style="fill:white; stroke-width:1; stroke:black; " description="&lt;b&gt;BLU75_RS22190&lt;/b&gt;&lt;br&gt;Re/Si-specific NAD(P)(+) transhydrogenase subunit alpha&lt;br&gt;Location: 4843112 - 4844233" locus_tag="BLU75_RS22190" class="clusterblast-orf" id="dummy-1_h1_3_13"  />
</g>
<g id="a1_0014"  >
<polygon points="680,90 681,90 686,85 681,80 680,80 680,90 " style="fill:white; stroke-width:1; stroke:black; " description="&lt;b&gt;BLU75_RS22195&lt;/b&gt;&lt;br&gt;NAD(P) transhydrogenase subunit alpha&lt;br&gt;Location: 4844249 - 4844572" locus_tag="BLU75_RS22195" class="clusterblast-orf" id="dummy-1_h1_3_14"  />
</g>
<g id="a1_0015"  >
<polygon points="686,90 707,90 712,85 707,80 686,80 686,90 " style="fill:white; stroke-width:1; stroke:black; " description="&lt;b&gt;BLU75_RS22200&lt;/b&gt;&lt;br&gt;NAD(P)(+) transhydrogenase (Re/Si-specific) subunit beta&lt;br&gt;Location: 4844572 - 4846008" locus_tag="BLU75_RS22200" class="clusterblast-orf" id="dummy-1_h1_3_15"  />
</g>
<g id="a1_0016"  >
<polygon points="716,90 738,90 743,85 738,80 716,80 716,90 " style="fill:white; stroke-width:1; stroke:black; " description="&lt;b&gt;BLU75_RS22205&lt;/b&gt;&lt;br&gt;acetyl-CoA hydrolase/transferase family protein&lt;br&gt;Location: 4846189 - 4847682" locus_tag="BLU75_RS22205" class="clusterblast-orf" id="dummy-1_h1_3_16"  />
</g>
<g id="a1_0017"  >
<polygon points="749,90 753,85 749,80 749,90 " style="fill:white; stroke-width:1; stroke:black; " description="&lt;b&gt;BLU75_RS22210&lt;/b&gt;&lt;br&gt;DUF1127 domain-containing protein&lt;br&gt;Location: 4848001 - 4848216" locus_tag="BLU75_RS22210" class="clusterblast-orf" id="dummy-1_h1_3_17"  />
</g>
<g id="a1_0018"  >
<polygon points="760,90 761,90 766,85 761,80 760,80 760,90 " style="fill:white; stroke-width:1; stroke:black; " description="&lt;b&gt;BLU75_RS22215&lt;/b&gt;&lt;br&gt;DUF2388 domain-containing protein&lt;br&gt;Location: 4848604 - 4848924" locus_tag="BLU75_RS22215" class="clusterblast-orf" id="dummy-1_h1_3_18"  />
</g>
<g id="a1_0019"  >
<polygon points="768,90 768,90 773,85 768,80 768,80 768,90 " style="fill:white; stroke-width:1; stroke:black; " description="&lt;b&gt;BLU75_RS22220&lt;/b&gt;&lt;br&gt;DUF2388 domain-containing protein&lt;br&gt;Location: 4849032 - 4849340" locus_tag="BLU75_RS22220" class="clusterblast-orf" id="dummy-1_h1_3_19"  />
</g>
<g id="a1_0020"  >
<polygon points="774,90 775,90 780,85 775,80 774,80 774,90 " style="fill:white; stroke-width:1; stroke:black; " description="&lt;b&gt;BLU75_RS22225&lt;/b&gt;&lt;br&gt;DUF2388 domain-containing protein&lt;br&gt;Location: 4849367 - 4849687" locus_tag="BLU75_RS22225" class="clusterblast-orf" id="dummy-1_h1_3_20"  />
</g>
</svg>
