<svg xmlns="http://www.w3.org/2000/svg" xmlns:xlink="http://www.w3.org/1999/xlink" version="1.1" x="0" y="0" height="230" width="800" viewBox="0 0 800 230" preserveAspectRatio="none"  >
<g label="Query sequence" class="clusterblast-cluster"  >
<text x="5" y="20" class="clusterblast-acc"  >
Query sequence</text>
<line x1="10" y1="35" x2="778.0" y2="35" style="stroke-width:1; stroke:grey; "  />
<polygon points="0,35 5,30 43,30 43,40 5,40 0,35 " style="fill:#d81515; stroke-width:1; stroke:black; " description="&lt;b&gt;ctg23_16&lt;/b&gt;&lt;br&gt;ctg23 16&lt;br&gt;Location: 12213 - 12735" locus_tag="ctg23_16" class="clusterblast-orf" id="dummy-1_q0_0_all"  />
<polygon points="53,40 166,40 171,35 166,30 53,30 53,40 " style="fill:#15d815; stroke-width:1; stroke:black; " description="&lt;b&gt;ctg23_17&lt;/b&gt;&lt;br&gt;ctg23 17&lt;br&gt;Location: 12865 - 14305" locus_tag="ctg23_17" class="clusterblast-orf" id="dummy-1_q1_0_all"  />
<polygon points="169,35 174,30 187,30 187,40 174,40 169,35 " style="fill:white; stroke-width:1; stroke:black; " description="&lt;b&gt;ctg23_18&lt;/b&gt;&lt;br&gt;ctg23 18&lt;br&gt;Location: 14290 - 14512" locus_tag="ctg23_18" class="clusterblast-orf" id="dummy-1_q2_0_all"  />
<polygon points="191,35 196,30 280,30 280,40 196,40 191,35 " style="fill:#1597d8; stroke-width:1; stroke:black; " description="&lt;b&gt;ctg23_19&lt;/b&gt;&lt;br&gt;ctg23 19&lt;br&gt;Location: 14556 - 15642" locus_tag="ctg23_19" class="clusterblast-orf" id="dummy-1_q3_0_all"  />
<polygon points="295,35 300,30 359,30 359,40 300,40 295,35 " style="fill:#9715d8; stroke-width:1; stroke:black; " description="&lt;b&gt;ctg23_20&lt;/b&gt;&lt;br&gt;ctg23 20&lt;br&gt;Location: 15828 - 16617" locus_tag="ctg23_20" class="clusterblast-orf" id="dummy-1_q4_0_all"  />
<polygon points="358,35 363,30 427,30 427,40 363,40 358,35 " style="fill:#d89715; stroke-width:1; stroke:black; " description="&lt;b&gt;ctg23_21&lt;/b&gt;&lt;br&gt;ctg23 21&lt;br&gt;Location: 16607 - 17453" locus_tag="ctg23_21" class="clusterblast-orf" id="dummy-1_q5_0_all"  />
<polygon points="432,35 437,30 453,30 453,40 437,40 432,35 " style="fill:#15d897; stroke-width:1; stroke:black; " description="&lt;b&gt;ctg23_22&lt;/b&gt;&lt;br&gt;ctg23 22&lt;br&gt;Location: 17520 - 17772" locus_tag="ctg23_22" class="clusterblast-orf" id="dummy-1_q6_0_all"  />
<polygon points="462,35 467,30 616,30 616,40 467,40 462,35 " style="fill:#1515d8; stroke-width:1; stroke:black; " description="&lt;b&gt;ctg23_23&lt;/b&gt;&lt;br&gt;ctg23 23&lt;br&gt;Location: 17889 - 19776" locus_tag="ctg23_23" class="clusterblast-orf" id="dummy-1_q7_0_all"  />
<polygon points="616,35 621,30 700,30 700,40 621,40 616,35 " style="fill:#d81597; stroke-width:1; stroke:black; " description="&lt;b&gt;ctg23_24&lt;/b&gt;&lt;br&gt;ctg23 24&lt;br&gt;Location: 19772 - 20807" locus_tag="ctg23_24" class="clusterblast-orf" id="dummy-1_q8_0_all"  />
<polygon points="700,35 705,30 780,30 780,40 705,40 700,35 " style="fill:#97d815; stroke-width:1; stroke:black; " description="&lt;b&gt;ctg23_25&lt;/b&gt;&lt;br&gt;ctg23 25&lt;br&gt;Location: 20803 - 21793" locus_tag="ctg23_25" class="clusterblast-orf" id="dummy-1_q9_0_all"  />
</g>
<g label="NZ_CP015600" description="NZ_CP015600 (6391218-6402064): Pseudomonas antarctica strain PAMC 27494 chrom... (100% of genes show similarity), bacteriocin" class="clusterblast-cluster"  >
<text x="5" y="70" class="clusterblast-acc"  >
<a xlink:href="https://antismash-db.secondarymetabolites.org/area.html?record=NZ_CP015600&amp;start=6391218&amp;end=6402064" target="_blank">NZ_CP015600 (6391218-6402064)</a>: Pseudomonas antarctica strain PAMC 27494 chrom... (100% of genes show similarity), bacteriocin</text>
<line x1="10" y1="85" x2="778.0" y2="85" style="stroke-width:1; stroke:grey; "  />
</g>
<g id="a1_000"  >
<polygon points="4,85 9,80 47,80 47,90 9,90 4,85 " style="fill:#d81515; stroke-width:1; stroke:black; " description="&lt;b&gt;A7J50_RS29140&lt;/b&gt;&lt;br&gt;DUF3617 domain-containing protein&lt;br&gt;Location: 6391938 - 6392459&lt;br&gt;&lt;br&gt;&lt;b&gt;BlastP hit with ctg23_16&lt;/b&gt;&lt;br&gt;Percentage identity: 100&lt;br&gt;Percentage coverage: 100&lt;br&gt;BLAST bit score: 344&lt;br&gt;E-value: 2.54e-121" locus_tag="A7J50_RS29140" class="clusterblast-orf" id="dummy-1_h1_1_0"  />
</g>
<g id="a1_001"  >
<polygon points="57,90 169,90 174,85 169,80 57,80 57,90 " style="fill:#15d815; stroke-width:1; stroke:black; " description="&lt;b&gt;A7J50_RS29145&lt;/b&gt;&lt;br&gt;cardiolipin synthase&lt;br&gt;Location: 6392590 - 6394029&lt;br&gt;&lt;br&gt;&lt;b&gt;BlastP hit with ctg23_17&lt;/b&gt;&lt;br&gt;Percentage identity: 100&lt;br&gt;Percentage coverage: 100&lt;br&gt;BLAST bit score: 948&lt;br&gt;E-value: 0.0" locus_tag="A7J50_RS29145" class="clusterblast-orf" id="dummy-1_h1_1_1"  />
</g>
<g id="a1_002"  >
<polygon points="186,85 191,80 282,80 282,90 191,90 186,85 " style="fill:#1597d8; stroke-width:1; stroke:black; " description="&lt;b&gt;A7J50_RS29150&lt;/b&gt;&lt;br&gt;class I SAM-dependent methyltransferase&lt;br&gt;Location: 6394168 - 6395352&lt;br&gt;&lt;br&gt;&lt;b&gt;BlastP hit with ctg23_19&lt;/b&gt;&lt;br&gt;Percentage identity: 100&lt;br&gt;Percentage coverage: 100&lt;br&gt;BLAST bit score: 729&lt;br&gt;E-value: 6.23e-267" locus_tag="A7J50_RS29150" class="clusterblast-orf" id="dummy-1_h1_1_2"  />
</g>
<g id="a1_003"  >
<polygon points="289,85 294,80 353,80 353,90 294,90 289,85 " style="fill:#9715d8; stroke-width:1; stroke:black; " description="&lt;b&gt;A7J50_RS29155&lt;/b&gt;&lt;br&gt;DUF2063 domain-containing protein&lt;br&gt;Location: 6395440 - 6396228&lt;br&gt;&lt;br&gt;&lt;b&gt;BlastP hit with ctg23_20&lt;/b&gt;&lt;br&gt;Percentage identity: 100&lt;br&gt;Percentage coverage: 100&lt;br&gt;BLAST bit score: 543&lt;br&gt;E-value: 3.48e-197" locus_tag="A7J50_RS29155" class="clusterblast-orf" id="dummy-1_h1_1_3"  />
</g>
<g id="a1_004"  >
<polygon points="353,85 358,80 421,80 421,90 358,90 353,85 " style="fill:#d89715; stroke-width:1; stroke:black; " description="&lt;b&gt;A7J50_RS29160&lt;/b&gt;&lt;br&gt;DUF692 domain-containing protein&lt;br&gt;Location: 6396219 - 6397064&lt;br&gt;&lt;br&gt;&lt;b&gt;BlastP hit with ctg23_21&lt;/b&gt;&lt;br&gt;Percentage identity: 100&lt;br&gt;Percentage coverage: 100&lt;br&gt;BLAST bit score: 548&lt;br&gt;E-value: 1.11e-198" locus_tag="A7J50_RS29160" class="clusterblast-orf" id="dummy-1_h1_1_4"  />
</g>
<g id="a1_005"  >
<polygon points="427,85 432,80 447,80 447,90 432,90 427,85 " style="fill:#15d897; stroke-width:1; stroke:black; " description="&lt;b&gt;A7J50_RS29165&lt;/b&gt;&lt;br&gt;hypothetical protein&lt;br&gt;Location: 6397132 - 6397383&lt;br&gt;&lt;br&gt;&lt;b&gt;BlastP hit with ctg23_22&lt;/b&gt;&lt;br&gt;Percentage identity: 100&lt;br&gt;Percentage coverage: 100&lt;br&gt;BLAST bit score: 135&lt;br&gt;E-value: 1.52e-41" locus_tag="A7J50_RS29165" class="clusterblast-orf" id="dummy-1_h1_1_5"  />
</g>
<g id="a1_006"  >
<polygon points="457,85 462,80 611,80 611,90 462,90 457,85 " style="fill:#1515d8; stroke-width:1; stroke:black; " description="&lt;b&gt;A7J50_RS29170&lt;/b&gt;&lt;br&gt;cadmium-translocating P-type ATPase&lt;br&gt;Location: 6397501 - 6399387&lt;br&gt;&lt;br&gt;&lt;b&gt;BlastP hit with ctg23_23&lt;/b&gt;&lt;br&gt;Percentage identity: 100&lt;br&gt;Percentage coverage: 100&lt;br&gt;BLAST bit score: 1119&lt;br&gt;E-value: 0.0" locus_tag="A7J50_RS29170" class="clusterblast-orf" id="dummy-1_h1_1_6"  />
</g>
<g id="a1_007"  >
<polygon points="610,85 615,80 695,80 695,90 615,90 610,85 " style="fill:#d81597; stroke-width:1; stroke:black; " description="&lt;b&gt;A7J50_RS29175&lt;/b&gt;&lt;br&gt;protease modulator HflK&lt;br&gt;Location: 6399384 - 6400418&lt;br&gt;&lt;br&gt;&lt;b&gt;BlastP hit with ctg23_24&lt;/b&gt;&lt;br&gt;Percentage identity: 100&lt;br&gt;Percentage coverage: 100&lt;br&gt;BLAST bit score: 563&lt;br&gt;E-value: 2.29e-202" locus_tag="A7J50_RS29175" class="clusterblast-orf" id="dummy-1_h1_1_7"  />
</g>
<g id="a1_008"  >
<polygon points="694,85 699,80 775,80 775,90 699,90 694,85 " style="fill:#97d815; stroke-width:1; stroke:black; " description="&lt;b&gt;A7J50_RS29180&lt;/b&gt;&lt;br&gt;protease modulator HflC&lt;br&gt;Location: 6400415 - 6401404&lt;br&gt;&lt;br&gt;&lt;b&gt;BlastP hit with ctg23_25&lt;/b&gt;&lt;br&gt;Percentage identity: 100&lt;br&gt;Percentage coverage: 100&lt;br&gt;BLAST bit score: 532&lt;br&gt;E-value: 1.58e-190" locus_tag="A7J50_RS29180" class="clusterblast-orf" id="dummy-1_h1_1_8"  />
</g>
</svg>
