<svg xmlns="http://www.w3.org/2000/svg" xmlns:xlink="http://www.w3.org/1999/xlink" version="1.1" x="0" y="0" height="230" width="800" viewBox="0 0 800 230" preserveAspectRatio="none"  >
<g label="Query sequence" class="clusterblast-cluster"  >
<text x="5" y="20" class="clusterblast-acc"  >
Query sequence</text>
<line x1="10" y1="35" x2="778.0" y2="35" style="stroke-width:1; stroke:grey; "  />
<polygon points="0,40 2,35 0,30 0,40 " style="fill:white; stroke-width:1; stroke:black; " description="&lt;b&gt;ctg9_30&lt;/b&gt;&lt;br&gt;ctg9 30&lt;br&gt;Location: 34990 - 35251" locus_tag="ctg9_30" class="clusterblast-orf" id="dummy-1_q0_0_all"  />
<polygon points="3,35 8,30 12,30 12,40 8,40 3,35 " style="fill:white; stroke-width:1; stroke:black; " description="&lt;b&gt;ctg9_31&lt;/b&gt;&lt;br&gt;ctg9 31&lt;br&gt;Location: 35326 - 36151" locus_tag="ctg9_31" class="clusterblast-orf" id="dummy-1_q1_0_all"  />
<polygon points="12,35 17,30 27,30 27,40 17,40 12,35 " style="fill:white; stroke-width:1; stroke:black; " description="&lt;b&gt;ctg9_32&lt;/b&gt;&lt;br&gt;ctg9 32&lt;br&gt;Location: 36147 - 37671" locus_tag="ctg9_32" class="clusterblast-orf" id="dummy-1_q2_0_all"  />
<polygon points="27,35 32,30 38,30 38,40 32,40 27,35 " style="fill:white; stroke-width:1; stroke:black; " description="&lt;b&gt;ctg9_33&lt;/b&gt;&lt;br&gt;ctg9 33&lt;br&gt;Location: 37667 - 38651" locus_tag="ctg9_33" class="clusterblast-orf" id="dummy-1_q3_0_all"  />
<polygon points="40,40 42,35 40,30 40,40 " style="fill:white; stroke-width:1; stroke:black; " description="&lt;b&gt;ctg9_34&lt;/b&gt;&lt;br&gt;ctg9 34&lt;br&gt;Location: 38920 - 39097" locus_tag="ctg9_34" class="clusterblast-orf" id="dummy-1_q4_0_all"  />
<polygon points="43,40 57,40 62,35 57,30 43,30 43,40 " style="fill:white; stroke-width:1; stroke:black; " description="&lt;b&gt;ctg9_35&lt;/b&gt;&lt;br&gt;ctg9 35&lt;br&gt;Location: 39195 - 41004" locus_tag="ctg9_35" class="clusterblast-orf" id="dummy-1_q5_0_all"  />
<polygon points="63,40 81,40 86,35 81,30 63,30 63,40 " style="fill:#d81515; stroke-width:1; stroke:black; " description="&lt;b&gt;ctg9_36&lt;/b&gt;&lt;br&gt;ctg9 36&lt;br&gt;Location: 41130 - 43359" locus_tag="ctg9_36" class="clusterblast-orf" id="dummy-1_q6_0_all"  />
<polygon points="88,40 90,35 88,30 88,40 " style="fill:white; stroke-width:1; stroke:black; " description="&lt;b&gt;ctg9_37&lt;/b&gt;&lt;br&gt;ctg9 37&lt;br&gt;Location: 43501 - 43723" locus_tag="ctg9_37" class="clusterblast-orf" id="dummy-1_q7_0_all"  />
<polygon points="91,35 96,30 96,30 96,40 96,40 91,35 " style="fill:white; stroke-width:1; stroke:black; " description="&lt;b&gt;ctg9_38&lt;/b&gt;&lt;br&gt;ctg9 38&lt;br&gt;Location: 43824 - 44316" locus_tag="ctg9_38" class="clusterblast-orf" id="dummy-1_q8_0_all"  />
<polygon points="98,35 103,30 109,30 109,40 103,40 98,35 " style="fill:white; stroke-width:1; stroke:black; " description="&lt;b&gt;ctg9_39&lt;/b&gt;&lt;br&gt;ctg9 39&lt;br&gt;Location: 44478 - 45585" locus_tag="ctg9_39" class="clusterblast-orf" id="dummy-1_q9_0_all"  />
<polygon points="110,35 113,30 113,40 110,35 " style="fill:#65d815; stroke-width:1; stroke:black; " description="&lt;b&gt;ctg9_40&lt;/b&gt;&lt;br&gt;ctg9 40&lt;br&gt;Location: 45600 - 45936" locus_tag="ctg9_40" class="clusterblast-orf" id="dummy-1_q10_0_all"  />
<polygon points="114,35 119,30 121,30 121,40 119,40 114,35 " style="fill:#15b6d8; stroke-width:1; stroke:black; " description="&lt;b&gt;ctg9_41&lt;/b&gt;&lt;br&gt;ctg9 41&lt;br&gt;Location: 45988 - 46705" locus_tag="ctg9_41" class="clusterblast-orf" id="dummy-1_q11_0_all"  />
<polygon points="125,35 130,30 153,30 153,40 130,40 125,35 " style="fill:#8815d8; stroke-width:1; stroke:black; " description="&lt;b&gt;ctg9_42&lt;/b&gt;&lt;br&gt;ctg9 42&lt;br&gt;Location: 47106 - 49764" locus_tag="ctg9_42" class="clusterblast-orf" id="dummy-1_q12_0_all"  />
<polygon points="153,35 158,30 162,30 162,40 158,40 153,35 " style="fill:#d83815; stroke-width:1; stroke:black; " description="&lt;b&gt;ctg9_43&lt;/b&gt;&lt;br&gt;ctg9 43&lt;br&gt;Location: 49777 - 50608" locus_tag="ctg9_43" class="clusterblast-orf" id="dummy-1_q13_0_all"  />
<polygon points="162,35 164,30 164,40 162,35 " style="fill:#43d815; stroke-width:1; stroke:black; " description="&lt;b&gt;ctg9_44&lt;/b&gt;&lt;br&gt;ctg9 44&lt;br&gt;Location: 50604 - 50865" locus_tag="ctg9_44" class="clusterblast-orf" id="dummy-1_q14_0_all"  />
<polygon points="164,35 169,30 173,30 173,40 169,40 164,35 " style="fill:#1593d8; stroke-width:1; stroke:black; " description="&lt;b&gt;ctg9_45&lt;/b&gt;&lt;br&gt;ctg9 45&lt;br&gt;Location: 50879 - 51749" locus_tag="ctg9_45" class="clusterblast-orf" id="dummy-1_q15_0_all"  />
<polygon points="173,35 178,30 183,30 183,40 178,40 173,35 " style="fill:#aa15d8; stroke-width:1; stroke:black; " description="&lt;b&gt;ctg9_46&lt;/b&gt;&lt;br&gt;ctg9 46&lt;br&gt;Location: 51745 - 52717" locus_tag="ctg9_46" class="clusterblast-orf" id="dummy-1_q16_0_all"  />
<polygon points="183,35 188,30 193,30 193,40 188,40 183,35 " style="fill:#d85a15; stroke-width:1; stroke:black; " description="&lt;b&gt;ctg9_47&lt;/b&gt;&lt;br&gt;ctg9 47&lt;br&gt;Location: 52716 - 53607" locus_tag="ctg9_47" class="clusterblast-orf" id="dummy-1_q17_0_all"  />
<polygon points="194,40 199,40 204,35 199,30 194,30 194,40 " style="fill:#21d815; stroke-width:1; stroke:black; " description="&lt;b&gt;ctg9_48&lt;/b&gt;&lt;br&gt;ctg9 48&lt;br&gt;Location: 53750 - 54698" locus_tag="ctg9_48" class="clusterblast-orf" id="dummy-1_q18_0_all"  />
<polygon points="204,35 209,30 221,30 221,40 209,40 204,35 " style="fill:#1571d8; stroke-width:1; stroke:black; " description="&lt;b&gt;ctg9_49&lt;/b&gt;&lt;br&gt;ctg9 49&lt;br&gt;Location: 54690 - 56310" locus_tag="ctg9_49" class="clusterblast-orf" id="dummy-1_q19_0_all"  />
<polygon points="222,40 231,40 236,35 231,30 222,30 222,40 " style="fill:#cd15d8; stroke-width:1; stroke:black; " description="&lt;b&gt;ctg9_50&lt;/b&gt;&lt;br&gt;ctg9 50&lt;br&gt;Location: 56452 - 57802" locus_tag="ctg9_50" class="clusterblast-orf" id="dummy-1_q20_0_all"  />
<polygon points="236,40 245,40 250,35 245,30 236,30 236,40 " style="fill:#d87c15; stroke-width:1; stroke:black; " description="&lt;b&gt;ctg9_51&lt;/b&gt;&lt;br&gt;ctg9 51&lt;br&gt;Location: 57820 - 59101" locus_tag="ctg9_51" class="clusterblast-orf" id="dummy-1_q21_0_all"  />
<polygon points="250,40 254,40 259,35 254,30 250,30 250,40 " style="fill:#15d82c; stroke-width:1; stroke:black; " description="&lt;b&gt;ctg9_52&lt;/b&gt;&lt;br&gt;ctg9 52&lt;br&gt;Location: 59134 - 60007" locus_tag="ctg9_52" class="clusterblast-orf" id="dummy-1_q22_0_all"  />
<polygon points="261,35 266,30 269,30 269,40 266,40 261,35 " style="fill:#154fd8; stroke-width:1; stroke:black; " description="&lt;b&gt;ctg9_53&lt;/b&gt;&lt;br&gt;ctg9 53&lt;br&gt;Location: 60149 - 60977" locus_tag="ctg9_53" class="clusterblast-orf" id="dummy-1_q23_0_all"  />
<polygon points="271,40 283,40 288,35 283,30 271,30 271,40 " style="fill:#d815c1; stroke-width:1; stroke:black; " description="&lt;b&gt;ctg9_54&lt;/b&gt;&lt;br&gt;ctg9 54&lt;br&gt;Location: 61175 - 62828" locus_tag="ctg9_54" class="clusterblast-orf" id="dummy-1_q24_0_all"  />
<polygon points="289,40 310,40 315,35 310,30 289,30 289,40 " style="fill:#d81515; stroke-width:1; stroke:black; " description="&lt;b&gt;ctg9_55&lt;/b&gt;&lt;br&gt;ctg9 55&lt;br&gt;Location: 62937 - 65379" locus_tag="ctg9_55" class="clusterblast-orf" id="dummy-1_q25_0_all"  />
<polygon points="316,35 321,30 439,30 439,40 321,40 316,35 " style="fill:#d89f15; stroke-width:1; stroke:black; " description="&lt;b&gt;ctg9_56&lt;/b&gt;&lt;br&gt;ctg9 56&lt;br&gt;Location: 65523 - 77376" locus_tag="ctg9_56" class="clusterblast-orf" id="dummy-1_q26_0_all"  />
<polygon points="439,35 444,30 585,30 585,40 444,40 439,35 " style="fill:#d89f15; stroke-width:1; stroke:black; " description="&lt;b&gt;ctg9_57&lt;/b&gt;&lt;br&gt;ctg9 57&lt;br&gt;Location: 77379 - 91434" locus_tag="ctg9_57" class="clusterblast-orf" id="dummy-1_q27_0_all"  />
<polygon points="587,40 590,35 587,30 587,40 " style="fill:#15d84f; stroke-width:1; stroke:black; " description="&lt;b&gt;ctg9_58&lt;/b&gt;&lt;br&gt;ctg9 58&lt;br&gt;Location: 91643 - 91895" locus_tag="ctg9_58" class="clusterblast-orf" id="dummy-1_q28_0_all"  />
<polygon points="590,40 594,35 590,30 590,40 " style="fill:#152cd8; stroke-width:1; stroke:black; " description="&lt;b&gt;ctg9_59&lt;/b&gt;&lt;br&gt;ctg9 59&lt;br&gt;Location: 91891 - 92257" locus_tag="ctg9_59" class="clusterblast-orf" id="dummy-1_q29_0_all"  />
<polygon points="593,35 598,30 606,30 606,40 598,40 593,35 " style="fill:#d8159f; stroke-width:1; stroke:black; " description="&lt;b&gt;ctg9_60&lt;/b&gt;&lt;br&gt;ctg9 60&lt;br&gt;Location: 92239 - 93430" locus_tag="ctg9_60" class="clusterblast-orf" id="dummy-1_q30_0_all"  />
<polygon points="607,40 608,40 613,35 608,30 607,30 607,40 " style="fill:#d8c115; stroke-width:1; stroke:black; " description="&lt;b&gt;ctg9_61&lt;/b&gt;&lt;br&gt;ctg9 61&lt;br&gt;Location: 93572 - 94166" locus_tag="ctg9_61" class="clusterblast-orf" id="dummy-1_q31_0_all"  />
<polygon points="613,35 618,30 627,30 627,40 618,40 613,35 " style="fill:#15d871; stroke-width:1; stroke:black; " description="&lt;b&gt;ctg9_62&lt;/b&gt;&lt;br&gt;ctg9 62&lt;br&gt;Location: 94149 - 95505" locus_tag="ctg9_62" class="clusterblast-orf" id="dummy-1_q32_0_all"  />
<polygon points="628,35 633,30 633,30 633,40 633,40 628,35 " style="fill:#2115d8; stroke-width:1; stroke:black; " description="&lt;b&gt;ctg9_63&lt;/b&gt;&lt;br&gt;ctg9 63&lt;br&gt;Location: 95530 - 96103" locus_tag="ctg9_63" class="clusterblast-orf" id="dummy-1_q33_0_all"  />
<polygon points="634,35 639,30 644,30 644,40 639,40 634,35 " style="fill:#d8157c; stroke-width:1; stroke:black; " description="&lt;b&gt;ctg9_64&lt;/b&gt;&lt;br&gt;ctg9 64&lt;br&gt;Location: 96170 - 97127" locus_tag="ctg9_64" class="clusterblast-orf" id="dummy-1_q34_0_all"  />
<polygon points="644,35 649,30 655,30 655,40 649,40 644,35 " style="fill:#cdd815; stroke-width:1; stroke:black; " description="&lt;b&gt;ctg9_65&lt;/b&gt;&lt;br&gt;ctg9 65&lt;br&gt;Location: 97130 - 98174" locus_tag="ctg9_65" class="clusterblast-orf" id="dummy-1_q35_0_all"  />
<polygon points="655,35 659,30 659,40 655,35 " style="fill:#15d893; stroke-width:1; stroke:black; " description="&lt;b&gt;ctg9_66&lt;/b&gt;&lt;br&gt;ctg9 66&lt;br&gt;Location: 98189 - 98537" locus_tag="ctg9_66" class="clusterblast-orf" id="dummy-1_q36_0_all"  />
<polygon points="659,35 664,30 671,30 671,40 664,40 659,35 " style="fill:#4315d8; stroke-width:1; stroke:black; " description="&lt;b&gt;ctg9_67&lt;/b&gt;&lt;br&gt;ctg9 67&lt;br&gt;Location: 98539 - 99769" locus_tag="ctg9_67" class="clusterblast-orf" id="dummy-1_q37_0_all"  />
<polygon points="674,35 679,30 681,30 681,40 679,40 674,35 " style="fill:#d8155a; stroke-width:1; stroke:black; " description="&lt;b&gt;ctg9_68&lt;/b&gt;&lt;br&gt;ctg9 68&lt;br&gt;Location: 99987 - 100677" locus_tag="ctg9_68" class="clusterblast-orf" id="dummy-1_q38_0_all"  />
<polygon points="681,35 686,30 689,30 689,40 686,40 681,35 " style="fill:#aad815; stroke-width:1; stroke:black; " description="&lt;b&gt;ctg9_69&lt;/b&gt;&lt;br&gt;ctg9 69&lt;br&gt;Location: 100687 - 101446" locus_tag="ctg9_69" class="clusterblast-orf" id="dummy-1_q39_0_all"  />
<polygon points="689,35 694,30 701,30 701,40 694,40 689,35 " style="fill:#15d8b6; stroke-width:1; stroke:black; " description="&lt;b&gt;ctg9_70&lt;/b&gt;&lt;br&gt;ctg9 70&lt;br&gt;Location: 101442 - 102603" locus_tag="ctg9_70" class="clusterblast-orf" id="dummy-1_q40_0_all"  />
<polygon points="701,35 706,30 710,30 710,40 706,40 701,35 " style="fill:#6615d8; stroke-width:1; stroke:black; " description="&lt;b&gt;ctg9_71&lt;/b&gt;&lt;br&gt;ctg9 71&lt;br&gt;Location: 102613 - 103531" locus_tag="ctg9_71" class="clusterblast-orf" id="dummy-1_q41_0_all"  />
<polygon points="712,35 717,30 725,30 725,40 717,40 712,35 " style="fill:#d81538; stroke-width:1; stroke:black; " description="&lt;b&gt;ctg9_72&lt;/b&gt;&lt;br&gt;ctg9 72&lt;br&gt;Location: 103709 - 104918" locus_tag="ctg9_72" class="clusterblast-orf" id="dummy-1_q42_0_all"  />
<polygon points="728,40 758,40 763,35 758,30 728,30 728,40 " style="fill:#88d815; stroke-width:1; stroke:black; " description="&lt;b&gt;ctg9_73&lt;/b&gt;&lt;br&gt;ctg9 73&lt;br&gt;Location: 105220 - 108604" locus_tag="ctg9_73" class="clusterblast-orf" id="dummy-1_q43_0_all"  />
<polygon points="763,40 765,40 770,35 765,30 763,30 763,40 " style="fill:#88d815; stroke-width:1; stroke:black; " description="&lt;b&gt;ctg9_74&lt;/b&gt;&lt;br&gt;ctg9 74&lt;br&gt;Location: 108578 - 109244" locus_tag="ctg9_74" class="clusterblast-orf" id="dummy-1_q44_0_all"  />
<polygon points="771,35 776,30 780,30 780,40 776,40 771,35 " style="fill:#15d8d8; stroke-width:1; stroke:black; " description="&lt;b&gt;ctg9_75&lt;/b&gt;&lt;br&gt;ctg9 75&lt;br&gt;Location: 109364 - 110195" locus_tag="ctg9_75" class="clusterblast-orf" id="dummy-1_q45_0_all"  />
</g>
<g label="NZ_CP027762" description="NZ_CP027762 (3697930-3763242): Pseudomonas sp. LBUM920 chromosome, complete g... (100% of genes show similarity), NRPS" class="clusterblast-cluster"  >
<text x="5" y="70" class="clusterblast-acc"  >
<a xlink:href="https://antismash-db.secondarymetabolites.org/area.html?record=NZ_CP027762&amp;start=3697930&amp;end=3763242" target="_blank">NZ_CP027762 (3697930-3763242)</a>: Pseudomonas sp. LBUM920 chromosome, complete g... (100% of genes show similarity), NRPS</text>
<line x1="10" y1="85" x2="778.0" y2="85" style="stroke-width:1; stroke:grey; "  />
</g>
<g id="a1_000"  >
<polygon points="51,85 56,80 78,80 78,90 56,90 51,85 " style="fill:#8815d8; stroke-width:1; stroke:black; " description="&lt;b&gt;C4J83_RS17245&lt;/b&gt;&lt;br&gt;aminopeptidase N&lt;br&gt;Location: 3697931 - 3700588&lt;br&gt;&lt;br&gt;&lt;b&gt;BlastP hit with ctg9_42&lt;/b&gt;&lt;br&gt;Percentage identity: 97&lt;br&gt;Percentage coverage: 100&lt;br&gt;BLAST bit score: 1702&lt;br&gt;E-value: 0.0" locus_tag="C4J83_RS17245" class="clusterblast-orf" id="dummy-1_h1_4_0"  />
</g>
<g id="a1_001"  >
<polygon points="79,85 84,80 87,80 87,90 84,90 79,85 " style="fill:#d83815; stroke-width:1; stroke:black; " description="&lt;b&gt;C4J83_RS17250&lt;/b&gt;&lt;br&gt;DUF2797 domain-containing protein&lt;br&gt;Location: 3700602 - 3701432&lt;br&gt;&lt;br&gt;&lt;b&gt;BlastP hit with ctg9_43&lt;/b&gt;&lt;br&gt;Percentage identity: 95&lt;br&gt;Percentage coverage: 100&lt;br&gt;BLAST bit score: 539&lt;br&gt;E-value: 4.9e-195" locus_tag="C4J83_RS17250" class="clusterblast-orf" id="dummy-1_h1_4_1"  />
</g>
<g id="a1_002"  >
<polygon points="87,85 90,80 90,90 87,85 " style="fill:#43d815; stroke-width:1; stroke:black; " description="&lt;b&gt;C4J83_RS17255&lt;/b&gt;&lt;br&gt;DUF1315 family protein&lt;br&gt;Location: 3701429 - 3701689&lt;br&gt;&lt;br&gt;&lt;b&gt;BlastP hit with ctg9_44&lt;/b&gt;&lt;br&gt;Percentage identity: 100&lt;br&gt;Percentage coverage: 100&lt;br&gt;BLAST bit score: 175&lt;br&gt;E-value: 3.62e-57" locus_tag="C4J83_RS17255" class="clusterblast-orf" id="dummy-1_h1_4_2"  />
</g>
<g id="a1_003"  >
<polygon points="90,85 95,80 99,80 99,90 95,90 90,85 " style="fill:#1593d8; stroke-width:1; stroke:black; " description="&lt;b&gt;C4J83_RS17260&lt;/b&gt;&lt;br&gt;rhomboid family intramembrane serine protease&lt;br&gt;Location: 3701704 - 3702573&lt;br&gt;&lt;br&gt;&lt;b&gt;BlastP hit with ctg9_45&lt;/b&gt;&lt;br&gt;Percentage identity: 94&lt;br&gt;Percentage coverage: 100&lt;br&gt;BLAST bit score: 550&lt;br&gt;E-value: 7.22e-199" locus_tag="C4J83_RS17260" class="clusterblast-orf" id="dummy-1_h1_4_3"  />
</g>
<g id="a1_004"  >
<polygon points="99,85 104,80 109,80 109,90 104,90 99,85 " style="fill:#aa15d8; stroke-width:1; stroke:black; " description="&lt;b&gt;C4J83_RS17265&lt;/b&gt;&lt;br&gt;metallophosphoesterase&lt;br&gt;Location: 3702570 - 3703544&lt;br&gt;&lt;br&gt;&lt;b&gt;BlastP hit with ctg9_46&lt;/b&gt;&lt;br&gt;Percentage identity: 98&lt;br&gt;Percentage coverage: 100&lt;br&gt;BLAST bit score: 687&lt;br&gt;E-value: 5.62e-252" locus_tag="C4J83_RS17265" class="clusterblast-orf" id="dummy-1_h1_4_4"  />
</g>
<g id="a1_005"  >
<polygon points="109,85 114,80 118,80 118,90 114,90 109,85 " style="fill:#d85a15; stroke-width:1; stroke:black; " description="&lt;b&gt;C4J83_RS17270&lt;/b&gt;&lt;br&gt;NAD(+) kinase&lt;br&gt;Location: 3703541 - 3704431&lt;br&gt;&lt;br&gt;&lt;b&gt;BlastP hit with ctg9_47&lt;/b&gt;&lt;br&gt;Percentage identity: 100&lt;br&gt;Percentage coverage: 100&lt;br&gt;BLAST bit score: 599&lt;br&gt;E-value: 3.81e-218" locus_tag="C4J83_RS17270" class="clusterblast-orf" id="dummy-1_h1_4_5"  />
</g>
<g id="a1_006"  >
<polygon points="120,90 125,90 130,85 125,80 120,80 120,90 " style="fill:#21d815; stroke-width:1; stroke:black; " description="&lt;b&gt;C4J83_RS17275&lt;/b&gt;&lt;br&gt;DUF1853 family protein&lt;br&gt;Location: 3704576 - 3705523&lt;br&gt;&lt;br&gt;&lt;b&gt;BlastP hit with ctg9_48&lt;/b&gt;&lt;br&gt;Percentage identity: 94&lt;br&gt;Percentage coverage: 100&lt;br&gt;BLAST bit score: 634&lt;br&gt;E-value: 3.18e-231" locus_tag="C4J83_RS17275" class="clusterblast-orf" id="dummy-1_h1_4_6"  />
</g>
<g id="a1_007"  >
<polygon points="129,85 134,80 146,80 146,90 134,90 129,85 " style="fill:#1571d8; stroke-width:1; stroke:black; " description="&lt;b&gt;C4J83_RS17280&lt;/b&gt;&lt;br&gt;PvdJ/PvdD/PvdP-like protein&lt;br&gt;Location: 3705516 - 3707135&lt;br&gt;&lt;br&gt;&lt;b&gt;BlastP hit with ctg9_49&lt;/b&gt;&lt;br&gt;Percentage identity: 94&lt;br&gt;Percentage coverage: 100&lt;br&gt;BLAST bit score: 1080&lt;br&gt;E-value: 0.0" locus_tag="C4J83_RS17280" class="clusterblast-orf" id="dummy-1_h1_4_7"  />
</g>
<g id="a1_008"  >
<polygon points="148,90 157,90 162,85 157,80 148,80 148,90 " style="fill:#cd15d8; stroke-width:1; stroke:black; " description="&lt;b&gt;C4J83_RS17285&lt;/b&gt;&lt;br&gt;pyoverdine-tailoring dipeptidase-like protein PvdM&lt;br&gt;Location: 3707278 - 3708627&lt;br&gt;&lt;br&gt;&lt;b&gt;BlastP hit with ctg9_50&lt;/b&gt;&lt;br&gt;Percentage identity: 95&lt;br&gt;Percentage coverage: 100&lt;br&gt;BLAST bit score: 879&lt;br&gt;E-value: 0.0" locus_tag="C4J83_RS17285" class="clusterblast-orf" id="dummy-1_h1_4_8"  />
</g>
<g id="a1_009"  >
<polygon points="162,90 170,90 175,85 170,80 162,80 162,90 " style="fill:#d87c15; stroke-width:1; stroke:black; " description="&lt;b&gt;C4J83_RS17290&lt;/b&gt;&lt;br&gt;aminotransferase class V-fold PLP-dependent enzyme&lt;br&gt;Location: 3708646 - 3709926&lt;br&gt;&lt;br&gt;&lt;b&gt;BlastP hit with ctg9_51&lt;/b&gt;&lt;br&gt;Percentage identity: 88&lt;br&gt;Percentage coverage: 100&lt;br&gt;BLAST bit score: 771&lt;br&gt;E-value: 9.9e-282" locus_tag="C4J83_RS17290" class="clusterblast-orf" id="dummy-1_h1_4_9"  />
</g>
<g id="a1_0010"  >
<polygon points="176,90 180,90 185,85 180,80 176,80 176,90 " style="fill:#15d82c; stroke-width:1; stroke:black; " description="&lt;b&gt;C4J83_RS17295&lt;/b&gt;&lt;br&gt;formylglycine-generating enzyme family protein&lt;br&gt;Location: 3709956 - 3710828&lt;br&gt;&lt;br&gt;&lt;b&gt;BlastP hit with ctg9_52&lt;/b&gt;&lt;br&gt;Percentage identity: 94&lt;br&gt;Percentage coverage: 100&lt;br&gt;BLAST bit score: 583&lt;br&gt;E-value: 3e-212" locus_tag="C4J83_RS17295" class="clusterblast-orf" id="dummy-1_h1_4_10"  />
</g>
<g id="a1_0011"  >
<polygon points="197,85 202,80 206,80 206,90 202,90 197,85 " style="fill:#154fd8; stroke-width:1; stroke:black; " description="&lt;b&gt;C4J83_RS17300&lt;/b&gt;&lt;br&gt;N(5)-hydroxyornithine transformylase PvdF&lt;br&gt;Location: 3712068 - 3712895&lt;br&gt;&lt;br&gt;&lt;b&gt;BlastP hit with ctg9_53&lt;/b&gt;&lt;br&gt;Percentage identity: 98&lt;br&gt;Percentage coverage: 100&lt;br&gt;BLAST bit score: 550&lt;br&gt;E-value: 1.72e-199" locus_tag="C4J83_RS17300" class="clusterblast-orf" id="dummy-1_h1_4_11"  />
</g>
<g id="a1_0012"  >
<polygon points="208,90 220,90 225,85 220,80 208,80 208,90 " style="fill:#d815c1; stroke-width:1; stroke:black; " description="&lt;b&gt;C4J83_RS17305&lt;/b&gt;&lt;br&gt;cyclic peptide export ABC transporter&lt;br&gt;Location: 3713094 - 3714746&lt;br&gt;&lt;br&gt;&lt;b&gt;BlastP hit with ctg9_54&lt;/b&gt;&lt;br&gt;Percentage identity: 99&lt;br&gt;Percentage coverage: 100&lt;br&gt;BLAST bit score: 1045&lt;br&gt;E-value: 0.0" locus_tag="C4J83_RS17305" class="clusterblast-orf" id="dummy-1_h1_4_12"  />
</g>
<g id="a1_0013"  >
<polygon points="226,90 247,90 252,85 247,80 226,80 226,90 " style="fill:#d81515; stroke-width:1; stroke:black; " description="&lt;b&gt;C4J83_RS17310&lt;/b&gt;&lt;br&gt;TonB-dependent siderophore receptor&lt;br&gt;Location: 3714856 - 3717297&lt;br&gt;&lt;br&gt;&lt;b&gt;BlastP hit with ctg9_36&lt;/b&gt;&lt;br&gt;Percentage identity: 39&lt;br&gt;Percentage coverage: 97&lt;br&gt;BLAST bit score: 488&lt;br&gt;E-value: 7.8e-160&lt;br&gt;&lt;br&gt;&lt;b&gt;BlastP hit with ctg9_55&lt;/b&gt;&lt;br&gt;Percentage identity: 94&lt;br&gt;Percentage coverage: 100&lt;br&gt;BLAST bit score: 1565&lt;br&gt;E-value: 0.0" locus_tag="C4J83_RS17310" class="clusterblast-orf" id="dummy-1_h1_4_13"  />
</g>
<g id="a1_0014"  >
<polygon points="254,85 259,80 377,80 377,90 259,90 254,85 " style="fill:#d89f15; stroke-width:1; stroke:black; " description="&lt;b&gt;C4J83_RS17315&lt;/b&gt;&lt;br&gt;non-ribosomal peptide synthase/polyketide synthase&lt;br&gt;Location: 3717567 - 3729419&lt;br&gt;&lt;br&gt;&lt;b&gt;BlastP hit with ctg9_56&lt;/b&gt;&lt;br&gt;Percentage identity: 92&lt;br&gt;Percentage coverage: 100&lt;br&gt;BLAST bit score: 7244&lt;br&gt;E-value: 0.0&lt;br&gt;&lt;br&gt;&lt;b&gt;BlastP hit with ctg9_57&lt;/b&gt;&lt;br&gt;Percentage identity: 68&lt;br&gt;Percentage coverage: 45&lt;br&gt;BLAST bit score: 2710&lt;br&gt;E-value: 0.0" locus_tag="C4J83_RS17315" class="clusterblast-orf" id="dummy-1_h1_4_14"  />
</g>
<g id="a1_0015"  >
<polygon points="377,85 382,80 523,80 523,90 382,90 377,85 " style="fill:#d89f15; stroke-width:1; stroke:black; " description="&lt;b&gt;C4J83_RS17320&lt;/b&gt;&lt;br&gt;non-ribosomal peptide synthetase&lt;br&gt;Location: 3729423 - 3743471&lt;br&gt;&lt;br&gt;&lt;b&gt;BlastP hit with ctg9_56&lt;/b&gt;&lt;br&gt;Percentage identity: 67&lt;br&gt;Percentage coverage: 53&lt;br&gt;BLAST bit score: 2659&lt;br&gt;E-value: 0.0&lt;br&gt;&lt;br&gt;&lt;b&gt;BlastP hit with ctg9_57&lt;/b&gt;&lt;br&gt;Percentage identity: 90&lt;br&gt;Percentage coverage: 100&lt;br&gt;BLAST bit score: 8401&lt;br&gt;E-value: 0.0" locus_tag="C4J83_RS17320" class="clusterblast-orf" id="dummy-1_h1_4_15"  />
</g>
<g id="a1_0016"  >
<polygon points="525,90 528,85 525,80 525,90 " style="fill:#15d84f; stroke-width:1; stroke:black; " description="&lt;b&gt;C4J83_RS17325&lt;/b&gt;&lt;br&gt;type II toxin-antitoxin system HicA family toxin&lt;br&gt;Location: 3743682 - 3743933&lt;br&gt;&lt;br&gt;&lt;b&gt;BlastP hit with ctg9_58&lt;/b&gt;&lt;br&gt;Percentage identity: 88&lt;br&gt;Percentage coverage: 100&lt;br&gt;BLAST bit score: 149&lt;br&gt;E-value: 6.95e-47" locus_tag="C4J83_RS17325" class="clusterblast-orf" id="dummy-1_h1_4_16"  />
</g>
<g id="a1_0017"  >
<polygon points="528,90 532,85 528,80 528,90 " style="fill:#152cd8; stroke-width:1; stroke:black; " description="&lt;b&gt;C4J83_RS17330&lt;/b&gt;&lt;br&gt;type II toxin-antitoxin system HicB family antitoxin&lt;br&gt;Location: 3743930 - 3744295&lt;br&gt;&lt;br&gt;&lt;b&gt;BlastP hit with ctg9_59&lt;/b&gt;&lt;br&gt;Percentage identity: 90&lt;br&gt;Percentage coverage: 100&lt;br&gt;BLAST bit score: 227&lt;br&gt;E-value: 1.18e-76" locus_tag="C4J83_RS17330" class="clusterblast-orf" id="dummy-1_h1_4_17"  />
</g>
<g id="a1_0018"  >
<polygon points="532,85 537,80 544,80 544,90 537,90 532,85 " style="fill:#d8159f; stroke-width:1; stroke:black; " description="&lt;b&gt;C4J83_RS17335&lt;/b&gt;&lt;br&gt;MFS transporter&lt;br&gt;Location: 3744296 - 3745468&lt;br&gt;&lt;br&gt;&lt;b&gt;BlastP hit with ctg9_60&lt;/b&gt;&lt;br&gt;Percentage identity: 91&lt;br&gt;Percentage coverage: 98&lt;br&gt;BLAST bit score: 668&lt;br&gt;E-value: 3.68e-242" locus_tag="C4J83_RS17335" class="clusterblast-orf" id="dummy-1_h1_4_18"  />
</g>
<g id="a1_0019"  >
<polygon points="545,90 547,90 552,85 547,80 545,80 545,90 " style="fill:#d8c115; stroke-width:1; stroke:black; " description="&lt;b&gt;C4J83_RS17340&lt;/b&gt;&lt;br&gt;TetR/AcrR family transcriptional regulator&lt;br&gt;Location: 3745610 - 3746209&lt;br&gt;&lt;br&gt;&lt;b&gt;BlastP hit with ctg9_61&lt;/b&gt;&lt;br&gt;Percentage identity: 84&lt;br&gt;Percentage coverage: 101&lt;br&gt;BLAST bit score: 317&lt;br&gt;E-value: 7.78e-110" locus_tag="C4J83_RS17340" class="clusterblast-orf" id="dummy-1_h1_4_19"  />
</g>
<g id="a1_0020"  >
<polygon points="551,85 556,80 565,80 565,90 556,90 551,85 " style="fill:#15d871; stroke-width:1; stroke:black; " description="&lt;b&gt;C4J83_RS17345&lt;/b&gt;&lt;br&gt;MATE family efflux transporter&lt;br&gt;Location: 3746193 - 3747548&lt;br&gt;&lt;br&gt;&lt;b&gt;BlastP hit with ctg9_62&lt;/b&gt;&lt;br&gt;Percentage identity: 97&lt;br&gt;Percentage coverage: 100&lt;br&gt;BLAST bit score: 798&lt;br&gt;E-value: 1.05e-291" locus_tag="C4J83_RS17345" class="clusterblast-orf" id="dummy-1_h1_4_20"  />
</g>
<g id="a1_0021"  >
<polygon points="566,85 571,80 572,80 572,90 571,90 566,85 " style="fill:#2115d8; stroke-width:1; stroke:black; " description="&lt;b&gt;C4J83_RS17350&lt;/b&gt;&lt;br&gt;DUF2239 family protein&lt;br&gt;Location: 3747574 - 3748146&lt;br&gt;&lt;br&gt;&lt;b&gt;BlastP hit with ctg9_63&lt;/b&gt;&lt;br&gt;Percentage identity: 78&lt;br&gt;Percentage coverage: 100&lt;br&gt;BLAST bit score: 300&lt;br&gt;E-value: 3.09e-103" locus_tag="C4J83_RS17350" class="clusterblast-orf" id="dummy-1_h1_4_21"  />
</g>
<g id="a1_0022"  >
<polygon points="572,85 577,80 582,80 582,90 577,90 572,85 " style="fill:#d8157c; stroke-width:1; stroke:black; " description="&lt;b&gt;C4J83_RS17355&lt;/b&gt;&lt;br&gt;ATP-dependent Clp protease ATP-binding subunit&lt;br&gt;Location: 3748214 - 3749170&lt;br&gt;&lt;br&gt;&lt;b&gt;BlastP hit with ctg9_64&lt;/b&gt;&lt;br&gt;Percentage identity: 92&lt;br&gt;Percentage coverage: 100&lt;br&gt;BLAST bit score: 572&lt;br&gt;E-value: 9.79e-207" locus_tag="C4J83_RS17355" class="clusterblast-orf" id="dummy-1_h1_4_22"  />
</g>
<g id="a1_0023"  >
<polygon points="582,85 587,80 593,80 593,90 587,90 582,85 " style="fill:#cdd815; stroke-width:1; stroke:black; " description="&lt;b&gt;C4J83_RS17360&lt;/b&gt;&lt;br&gt;aliphatic amidase&lt;br&gt;Location: 3749174 - 3750217&lt;br&gt;&lt;br&gt;&lt;b&gt;BlastP hit with ctg9_65&lt;/b&gt;&lt;br&gt;Percentage identity: 98&lt;br&gt;Percentage coverage: 99&lt;br&gt;BLAST bit score: 718&lt;br&gt;E-value: 1.12e-263" locus_tag="C4J83_RS17360" class="clusterblast-orf" id="dummy-1_h1_4_23"  />
</g>
<g id="a1_0024"  >
<polygon points="593,85 597,80 597,90 593,85 " style="fill:#15d893; stroke-width:1; stroke:black; " description="&lt;b&gt;C4J83_RS17365&lt;/b&gt;&lt;br&gt;FmdB family transcriptional regulator&lt;br&gt;Location: 3750233 - 3750580&lt;br&gt;&lt;br&gt;&lt;b&gt;BlastP hit with ctg9_66&lt;/b&gt;&lt;br&gt;Percentage identity: 95&lt;br&gt;Percentage coverage: 100&lt;br&gt;BLAST bit score: 239&lt;br&gt;E-value: 9.95e-82" locus_tag="C4J83_RS17365" class="clusterblast-orf" id="dummy-1_h1_4_24"  />
</g>
<g id="a1_0025"  >
<polygon points="597,85 602,80 610,80 610,90 602,90 597,85 " style="fill:#4315d8; stroke-width:1; stroke:black; " description="&lt;b&gt;C4J83_RS17370&lt;/b&gt;&lt;br&gt;acetamidase/formamidase family protein&lt;br&gt;Location: 3750583 - 3751812&lt;br&gt;&lt;br&gt;&lt;b&gt;BlastP hit with ctg9_67&lt;/b&gt;&lt;br&gt;Percentage identity: 100&lt;br&gt;Percentage coverage: 100&lt;br&gt;BLAST bit score: 855&lt;br&gt;E-value: 7.71e-316" locus_tag="C4J83_RS17370" class="clusterblast-orf" id="dummy-1_h1_4_25"  />
</g>
<g id="a1_0026"  >
<polygon points="612,85 617,80 619,80 619,90 617,90 612,85 " style="fill:#d8155a; stroke-width:1; stroke:black; " description="&lt;b&gt;C4J83_RS17380&lt;/b&gt;&lt;br&gt;urea ABC transporter ATP-binding subunit UrtE&lt;br&gt;Location: 3752032 - 3752721&lt;br&gt;&lt;br&gt;&lt;b&gt;BlastP hit with ctg9_68&lt;/b&gt;&lt;br&gt;Percentage identity: 98&lt;br&gt;Percentage coverage: 100&lt;br&gt;BLAST bit score: 436&lt;br&gt;E-value: 6.62e-156" locus_tag="C4J83_RS17380" class="clusterblast-orf" id="dummy-1_h1_4_26"  />
</g>
<g id="a1_0027"  >
<polygon points="619,85 624,80 627,80 627,90 624,90 619,85 " style="fill:#aad815; stroke-width:1; stroke:black; " description="&lt;b&gt;C4J83_RS17385&lt;/b&gt;&lt;br&gt;urea ABC transporter ATP-binding protein UrtD&lt;br&gt;Location: 3752732 - 3753490&lt;br&gt;&lt;br&gt;&lt;b&gt;BlastP hit with ctg9_69&lt;/b&gt;&lt;br&gt;Percentage identity: 98&lt;br&gt;Percentage coverage: 100&lt;br&gt;BLAST bit score: 488&lt;br&gt;E-value: 1.02e-175" locus_tag="C4J83_RS17385" class="clusterblast-orf" id="dummy-1_h1_4_27"  />
</g>
<g id="a1_0028"  >
<polygon points="627,85 632,80 639,80 639,90 632,90 627,85 " style="fill:#15d8b6; stroke-width:1; stroke:black; " description="&lt;b&gt;C4J83_RS17390&lt;/b&gt;&lt;br&gt;urea ABC transporter permease subunit UrtC&lt;br&gt;Location: 3753487 - 3754650&lt;br&gt;&lt;br&gt;&lt;b&gt;BlastP hit with ctg9_70&lt;/b&gt;&lt;br&gt;Percentage identity: 96&lt;br&gt;Percentage coverage: 100&lt;br&gt;BLAST bit score: 710&lt;br&gt;E-value: 5.48e-259" locus_tag="C4J83_RS17390" class="clusterblast-orf" id="dummy-1_h1_4_28"  />
</g>
<g id="a1_0029"  >
<polygon points="639,85 644,80 649,80 649,90 644,90 639,85 " style="fill:#6615d8; stroke-width:1; stroke:black; " description="&lt;b&gt;C4J83_RS17395&lt;/b&gt;&lt;br&gt;urea ABC transporter permease subunit UrtB&lt;br&gt;Location: 3754661 - 3755578&lt;br&gt;&lt;br&gt;&lt;b&gt;BlastP hit with ctg9_71&lt;/b&gt;&lt;br&gt;Percentage identity: 99&lt;br&gt;Percentage coverage: 100&lt;br&gt;BLAST bit score: 569&lt;br&gt;E-value: 4.19e-206" locus_tag="C4J83_RS17395" class="clusterblast-orf" id="dummy-1_h1_4_29"  />
</g>
<g id="a1_0030"  >
<polygon points="650,85 655,80 663,80 663,90 655,90 650,85 " style="fill:#d81538; stroke-width:1; stroke:black; " description="&lt;b&gt;C4J83_RS17400&lt;/b&gt;&lt;br&gt;urea ABC transporter substrate-binding protein&lt;br&gt;Location: 3755746 - 3756954&lt;br&gt;&lt;br&gt;&lt;b&gt;BlastP hit with ctg9_72&lt;/b&gt;&lt;br&gt;Percentage identity: 99&lt;br&gt;Percentage coverage: 100&lt;br&gt;BLAST bit score: 791&lt;br&gt;E-value: 1.81e-290" locus_tag="C4J83_RS17400" class="clusterblast-orf" id="dummy-1_h1_4_30"  />
</g>
<g id="a1_0031"  >
<polygon points="666,90 696,90 701,85 696,80 666,80 666,90 " style="fill:#88d815; stroke-width:1; stroke:black; " description="&lt;b&gt;C4J83_RS17405&lt;/b&gt;&lt;br&gt;response regulator&lt;br&gt;Location: 3757266 - 3760649&lt;br&gt;&lt;br&gt;&lt;b&gt;BlastP hit with ctg9_73&lt;/b&gt;&lt;br&gt;Percentage identity: 97&lt;br&gt;Percentage coverage: 100&lt;br&gt;BLAST bit score: 2135&lt;br&gt;E-value: 0.0&lt;br&gt;&lt;br&gt;&lt;b&gt;BlastP hit with ctg9_74&lt;/b&gt;&lt;br&gt;Percentage identity: 36&lt;br&gt;Percentage coverage: 68&lt;br&gt;BLAST bit score: 74&lt;br&gt;E-value: 2.37e-13" locus_tag="C4J83_RS17405" class="clusterblast-orf" id="dummy-1_h1_4_31"  />
</g>
<g id="a1_0032"  >
<polygon points="701,90 703,90 708,85 703,80 701,80 701,90 " style="fill:#88d815; stroke-width:1; stroke:black; " description="&lt;b&gt;C4J83_RS17410&lt;/b&gt;&lt;br&gt;response regulator&lt;br&gt;Location: 3760624 - 3761289&lt;br&gt;&lt;br&gt;&lt;b&gt;BlastP hit with ctg9_73&lt;/b&gt;&lt;br&gt;Percentage identity: 36&lt;br&gt;Percentage coverage: 13&lt;br&gt;BLAST bit score: 78&lt;br&gt;E-value: 7.85e-14&lt;br&gt;&lt;br&gt;&lt;b&gt;BlastP hit with ctg9_74&lt;/b&gt;&lt;br&gt;Percentage identity: 100&lt;br&gt;Percentage coverage: 100&lt;br&gt;BLAST bit score: 423&lt;br&gt;E-value: 5.47e-151" locus_tag="C4J83_RS17410" class="clusterblast-orf" id="dummy-1_h1_4_32"  />
</g>
<g id="a1_0033"  >
<polygon points="720,85 725,80 728,80 728,90 725,90 720,85 " style="fill:#15d8d8; stroke-width:1; stroke:black; " description="&lt;b&gt;C4J83_RS17425&lt;/b&gt;&lt;br&gt;IclR family transcriptional regulator&lt;br&gt;Location: 3762412 - 3763242&lt;br&gt;&lt;br&gt;&lt;b&gt;BlastP hit with ctg9_75&lt;/b&gt;&lt;br&gt;Percentage identity: 94&lt;br&gt;Percentage coverage: 100&lt;br&gt;BLAST bit score: 511&lt;br&gt;E-value: 4.62e-184" locus_tag="C4J83_RS17425" class="clusterblast-orf" id="dummy-1_h1_4_33"  />
</g>
</svg>
