<svg xmlns="http://www.w3.org/2000/svg" xmlns:xlink="http://www.w3.org/1999/xlink" version="1.1" x="0" y="0" height="230" width="800" viewBox="0 0 800 230" preserveAspectRatio="none"  >
<g label="Query sequence" class="clusterblast-cluster"  >
<text x="5" y="20" class="clusterblast-acc"  >
Query sequence</text>
<line x1="10" y1="35" x2="778.0" y2="35" style="stroke-width:1; stroke:grey; "  />
<polygon points="180,40 180,40 185,35 180,30 180,30 180,40 " style="fill:#d81515; stroke-width:1; stroke:black; " description="&lt;b&gt;ctg24_1&lt;/b&gt;&lt;br&gt;ctg24 1&lt;br&gt;Location: 518 - 1103" locus_tag="ctg24_1" class="clusterblast-orf" id="dummy-1_q0_0_all"  />
<polygon points="186,35 191,30 192,30 192,40 191,40 186,35 " style="fill:#60d815; stroke-width:1; stroke:black; " description="&lt;b&gt;ctg24_2&lt;/b&gt;&lt;br&gt;ctg24 2&lt;br&gt;Location: 1304 - 2051" locus_tag="ctg24_2" class="clusterblast-orf" id="dummy-1_q1_0_all"  />
<polygon points="192,35 195,30 195,40 192,35 " style="fill:#15abd8; stroke-width:1; stroke:black; " description="&lt;b&gt;ctg24_3&lt;/b&gt;&lt;br&gt;ctg24 3&lt;br&gt;Location: 2121 - 2514" locus_tag="ctg24_3" class="clusterblast-orf" id="dummy-1_q2_0_all"  />
<polygon points="195,35 200,30 201,30 201,40 200,40 195,35 " style="fill:#8d15d8; stroke-width:1; stroke:black; " description="&lt;b&gt;ctg24_4&lt;/b&gt;&lt;br&gt;ctg24 4&lt;br&gt;Location: 2510 - 3215" locus_tag="ctg24_4" class="clusterblast-orf" id="dummy-1_q3_0_all"  />
<polygon points="201,35 202,30 202,40 201,35 " style="fill:#d84215; stroke-width:1; stroke:black; " description="&lt;b&gt;ctg24_5&lt;/b&gt;&lt;br&gt;ctg24 5&lt;br&gt;Location: 3226 - 3415" locus_tag="ctg24_5" class="clusterblast-orf" id="dummy-1_q4_0_all"  />
<polygon points="213,40 216,40 221,35 216,30 213,30 213,40 " style="fill:#33d815; stroke-width:1; stroke:black; " description="&lt;b&gt;ctg24_6&lt;/b&gt;&lt;br&gt;ctg24 6&lt;br&gt;Location: 4786 - 5848" locus_tag="ctg24_6" class="clusterblast-orf" id="dummy-1_q5_0_all"  />
<polygon points="221,40 244,40 249,35 244,30 221,30 221,40 " style="fill:#157ed8; stroke-width:1; stroke:black; " description="&lt;b&gt;ctg24_7&lt;/b&gt;&lt;br&gt;ctg24 7&lt;br&gt;Location: 5851 - 9613" locus_tag="ctg24_7" class="clusterblast-orf" id="dummy-1_q6_0_all"  />
<polygon points="249,40 252,40 257,35 252,30 249,30 249,40 " style="fill:#157ed8; stroke-width:1; stroke:black; " description="&lt;b&gt;ctg24_8&lt;/b&gt;&lt;br&gt;ctg24 8&lt;br&gt;Location: 9612 - 10611" locus_tag="ctg24_8" class="clusterblast-orf" id="dummy-1_q7_0_all"  />
<polygon points="258,40 262,35 258,30 258,40 " style="fill:#ba15d8; stroke-width:1; stroke:black; " description="&lt;b&gt;ctg24_9&lt;/b&gt;&lt;br&gt;ctg24 9&lt;br&gt;Location: 10730 - 11276" locus_tag="ctg24_9" class="clusterblast-orf" id="dummy-1_q8_0_all"  />
<polygon points="263,40 356,40 361,35 356,30 263,30 263,40 " style="fill:#d86f15; stroke-width:1; stroke:black; " description="&lt;b&gt;ctg24_10&lt;/b&gt;&lt;br&gt;ctg24 10&lt;br&gt;Location: 11484 - 24396" locus_tag="ctg24_10" class="clusterblast-orf" id="dummy-1_q9_0_all"  />
<polygon points="361,40 442,40 447,35 442,30 361,30 361,40 " style="fill:#d86f15; stroke-width:1; stroke:black; " description="&lt;b&gt;ctg24_11&lt;/b&gt;&lt;br&gt;ctg24 11&lt;br&gt;Location: 24392 - 35729" locus_tag="ctg24_11" class="clusterblast-orf" id="dummy-1_q10_0_all"  />
<polygon points="447,40 451,40 456,35 451,30 447,30 447,40 " style="fill:#15d824; stroke-width:1; stroke:black; " description="&lt;b&gt;ctg24_12&lt;/b&gt;&lt;br&gt;ctg24 12&lt;br&gt;Location: 35725 - 36868" locus_tag="ctg24_12" class="clusterblast-orf" id="dummy-1_q11_0_all"  />
<polygon points="456,40 466,40 471,35 466,30 456,30 456,40 " style="fill:#1551d8; stroke-width:1; stroke:black; " description="&lt;b&gt;ctg24_13&lt;/b&gt;&lt;br&gt;ctg24 13&lt;br&gt;Location: 36871 - 38830" locus_tag="ctg24_13" class="clusterblast-orf" id="dummy-1_q12_0_all"  />
<polygon points="472,35 477,30 477,30 477,40 477,40 472,35 " style="fill:#d815c9; stroke-width:1; stroke:black; " description="&lt;b&gt;ctg24_14&lt;/b&gt;&lt;br&gt;ctg24 14&lt;br&gt;Location: 38957 - 39635" locus_tag="ctg24_14" class="clusterblast-orf" id="dummy-1_q13_0_all"  />
<polygon points="479,35 484,30 488,30 488,40 484,40 479,35 " style="fill:#d89c15; stroke-width:1; stroke:black; " description="&lt;b&gt;ctg24_15&lt;/b&gt;&lt;br&gt;ctg24 15&lt;br&gt;Location: 39867 - 41112" locus_tag="ctg24_15" class="clusterblast-orf" id="dummy-1_q14_0_all"  />
<polygon points="489,40 493,35 489,30 489,40 " style="fill:#15d851; stroke-width:1; stroke:black; " description="&lt;b&gt;ctg24_16&lt;/b&gt;&lt;br&gt;ctg24 16&lt;br&gt;Location: 41235 - 41706" locus_tag="ctg24_16" class="clusterblast-orf" id="dummy-1_q15_0_all"  />
<polygon points="493,35 498,30 499,30 499,40 498,40 493,35 " style="fill:#1524d8; stroke-width:1; stroke:black; " description="&lt;b&gt;ctg24_17&lt;/b&gt;&lt;br&gt;ctg24 17&lt;br&gt;Location: 41784 - 42555" locus_tag="ctg24_17" class="clusterblast-orf" id="dummy-1_q16_0_all"  />
<polygon points="500,40 503,40 508,35 503,30 500,30 500,40 " style="fill:#d8159c; stroke-width:1; stroke:black; " description="&lt;b&gt;ctg24_18&lt;/b&gt;&lt;br&gt;ctg24 18&lt;br&gt;Location: 42653 - 43784" locus_tag="ctg24_18" class="clusterblast-orf" id="dummy-1_q17_0_all"  />
<polygon points="508,35 513,30 525,30 525,40 513,40 508,35 " style="fill:#d8c915; stroke-width:1; stroke:black; " description="&lt;b&gt;ctg24_19&lt;/b&gt;&lt;br&gt;ctg24 19&lt;br&gt;Location: 43773 - 45915" locus_tag="ctg24_19" class="clusterblast-orf" id="dummy-1_q18_0_all"  />
<polygon points="525,35 530,30 531,30 531,40 530,40 525,35 " style="fill:#15d87e; stroke-width:1; stroke:black; " description="&lt;b&gt;ctg24_20&lt;/b&gt;&lt;br&gt;ctg24 20&lt;br&gt;Location: 46020 - 46818" locus_tag="ctg24_20" class="clusterblast-orf" id="dummy-1_q19_0_all"  />
<polygon points="533,40 539,40 544,35 539,30 533,30 533,40 " style="fill:#3315d8; stroke-width:1; stroke:black; " description="&lt;b&gt;ctg24_21&lt;/b&gt;&lt;br&gt;ctg24 21&lt;br&gt;Location: 47055 - 48414" locus_tag="ctg24_21" class="clusterblast-orf" id="dummy-1_q20_0_all"  />
<polygon points="544,40 547,40 552,35 547,30 544,30 544,40 " style="fill:#d8156f; stroke-width:1; stroke:black; " description="&lt;b&gt;ctg24_22&lt;/b&gt;&lt;br&gt;ctg24 22&lt;br&gt;Location: 48436 - 49525" locus_tag="ctg24_22" class="clusterblast-orf" id="dummy-1_q21_0_all"  />
<polygon points="552,40 557,40 562,35 557,30 552,30 552,40 " style="fill:#bad815; stroke-width:1; stroke:black; " description="&lt;b&gt;ctg24_23&lt;/b&gt;&lt;br&gt;ctg24 23&lt;br&gt;Location: 49521 - 50817" locus_tag="ctg24_23" class="clusterblast-orf" id="dummy-1_q22_0_all"  />
<polygon points="563,35 568,30 569,30 569,40 568,40 563,35 " style="fill:#15d8ab; stroke-width:1; stroke:black; " description="&lt;b&gt;ctg24_24&lt;/b&gt;&lt;br&gt;ctg24 24&lt;br&gt;Location: 50934 - 51828" locus_tag="ctg24_24" class="clusterblast-orf" id="dummy-1_q23_0_all"  />
<polygon points="570,40 573,40 578,35 573,30 570,30 570,40 " style="fill:#6015d8; stroke-width:1; stroke:black; " description="&lt;b&gt;ctg24_25&lt;/b&gt;&lt;br&gt;ctg24 25&lt;br&gt;Location: 51941 - 52946" locus_tag="ctg24_25" class="clusterblast-orf" id="dummy-1_q24_0_all"  />
<polygon points="578,40 579,40 584,35 579,30 578,30 578,40 " style="fill:#d81542; stroke-width:1; stroke:black; " description="&lt;b&gt;ctg24_26&lt;/b&gt;&lt;br&gt;ctg24 26&lt;br&gt;Location: 52961 - 53759" locus_tag="ctg24_26" class="clusterblast-orf" id="dummy-1_q25_0_all"  />
<polygon points="585,40 587,35 585,30 585,40 " style="fill:#8dd815; stroke-width:1; stroke:black; " description="&lt;b&gt;ctg24_27&lt;/b&gt;&lt;br&gt;ctg24 27&lt;br&gt;Location: 53843 - 54203" locus_tag="ctg24_27" class="clusterblast-orf" id="dummy-1_q26_0_all"  />
<polygon points="588,35 593,30 599,30 599,40 593,40 588,35 " style="fill:#15d8d8; stroke-width:1; stroke:black; " description="&lt;b&gt;ctg24_28&lt;/b&gt;&lt;br&gt;ctg24 28&lt;br&gt;Location: 54335 - 55727" locus_tag="ctg24_28" class="clusterblast-orf" id="dummy-1_q27_0_all"  />
</g>
<g label="NZ_CABVGW010000014" description="NZ_CABVGW010000014 (41734-146114): Pseudomonas fluorescens isolate PS682, who... (45% of genes show similarity), NRPS" class="clusterblast-cluster"  >
<text x="5" y="70" class="clusterblast-acc"  >
<a xlink:href="https://antismash-db.secondarymetabolites.org/area.html?record=NZ_CABVGW010000014&amp;start=41734&amp;end=146114" target="_blank">NZ_CABVGW010000014 (41734-146114)</a>: Pseudomonas fluorescens isolate PS682, who... (45% of genes show similarity), NRPS</text>
<line x1="10" y1="85" x2="778.0" y2="85" style="stroke-width:1; stroke:grey; "  />
</g>
<g id="a1_000"  >
<polygon points="0,85 5,80 5,80 5,90 5,90 0,85 " style="fill:white; stroke-width:1; stroke:black; " description="&lt;b&gt;F8N22_RS21455&lt;/b&gt;&lt;br&gt;response regulator transcription factor&lt;br&gt;Location: 145238 - 144573" locus_tag="F8N22_RS21455" class="clusterblast-orf" id="dummy-1_h1_8_0"  />
</g>
<g id="a1_001"  >
<polygon points="4,85 9,80 30,80 30,90 9,90 4,85 " style="fill:white; stroke-width:1; stroke:black; " description="&lt;b&gt;F8N22_RS21450&lt;/b&gt;&lt;br&gt;response regulator&lt;br&gt;Location: 144598 - 141215" locus_tag="F8N22_RS21450" class="clusterblast-orf" id="dummy-1_h1_8_1"  />
</g>
<g id="a1_002"  >
<polygon points="32,90 37,90 42,85 37,80 32,80 32,90 " style="fill:white; stroke-width:1; stroke:black; " description="&lt;b&gt;F8N22_RS21445&lt;/b&gt;&lt;br&gt;urea ABC transporter substrate-binding protein&lt;br&gt;Location: 140900 - 139692" locus_tag="F8N22_RS21445" class="clusterblast-orf" id="dummy-1_h1_8_2"  />
</g>
<g id="a1_003"  >
<polygon points="43,90 45,90 50,85 45,80 43,80 43,90 " style="fill:white; stroke-width:1; stroke:black; " description="&lt;b&gt;F8N22_RS21440&lt;/b&gt;&lt;br&gt;urea ABC transporter permease subunit UrtB&lt;br&gt;Location: 139483 - 138602" locus_tag="F8N22_RS21440" class="clusterblast-orf" id="dummy-1_h1_8_3"  />
</g>
<g id="a1_004"  >
<polygon points="50,90 54,90 59,85 54,80 50,80 50,90 " style="fill:white; stroke-width:1; stroke:black; " description="&lt;b&gt;F8N22_RS21435&lt;/b&gt;&lt;br&gt;urea ABC transporter permease subunit UrtC&lt;br&gt;Location: 138591 - 137428" locus_tag="F8N22_RS21435" class="clusterblast-orf" id="dummy-1_h1_8_4"  />
</g>
<g id="a1_005"  >
<polygon points="59,90 59,90 64,85 59,80 59,80 59,90 " style="fill:white; stroke-width:1; stroke:black; " description="&lt;b&gt;F8N22_RS21430&lt;/b&gt;&lt;br&gt;urea ABC transporter ATP-binding protein UrtD&lt;br&gt;Location: 137431 - 136673" locus_tag="F8N22_RS21430" class="clusterblast-orf" id="dummy-1_h1_8_5"  />
</g>
<g id="a1_006"  >
<polygon points="65,90 65,90 70,85 65,80 65,80 65,90 " style="fill:white; stroke-width:1; stroke:black; " description="&lt;b&gt;F8N22_RS21425&lt;/b&gt;&lt;br&gt;urea ABC transporter ATP-binding subunit UrtE&lt;br&gt;Location: 136662 - 135973" locus_tag="F8N22_RS21425" class="clusterblast-orf" id="dummy-1_h1_8_6"  />
</g>
<g id="a1_007"  >
<polygon points="71,90 75,90 80,85 75,80 71,80 71,90 " style="fill:white; stroke-width:1; stroke:black; " description="&lt;b&gt;F8N22_RS21420&lt;/b&gt;&lt;br&gt;hypothetical protein&lt;br&gt;Location: 135796 - 134690" locus_tag="F8N22_RS21420" class="clusterblast-orf" id="dummy-1_h1_8_7"  />
</g>
<g id="a1_008"  >
<polygon points="81,85 86,80 93,80 93,90 86,90 81,85 " style="fill:white; stroke-width:1; stroke:black; " description="&lt;b&gt;F8N22_RS21415&lt;/b&gt;&lt;br&gt;methyl-accepting chemotaxis protein&lt;br&gt;Location: 134553 - 132913" locus_tag="F8N22_RS21415" class="clusterblast-orf" id="dummy-1_h1_8_8"  />
</g>
<g id="a1_009"  >
<polygon points="95,90 99,90 104,85 99,80 95,80 95,90 " style="fill:white; stroke-width:1; stroke:black; " description="&lt;b&gt;F8N22_RS21410&lt;/b&gt;&lt;br&gt;acetamidase/formamidase family protein&lt;br&gt;Location: 132680 - 131451" locus_tag="F8N22_RS21410" class="clusterblast-orf" id="dummy-1_h1_8_9"  />
</g>
<g id="a1_0010"  >
<polygon points="104,90 107,85 104,80 104,90 " style="fill:white; stroke-width:1; stroke:black; " description="&lt;b&gt;F8N22_RS21405&lt;/b&gt;&lt;br&gt;zinc ribbon domain-containing protein&lt;br&gt;Location: 131448 - 131101" locus_tag="F8N22_RS21405" class="clusterblast-orf" id="dummy-1_h1_8_10"  />
</g>
<g id="a1_0011"  >
<polygon points="107,90 110,90 115,85 110,80 107,80 107,90 " style="fill:white; stroke-width:1; stroke:black; " description="&lt;b&gt;F8N22_RS21400&lt;/b&gt;&lt;br&gt;aliphatic amidase&lt;br&gt;Location: 131085 - 130042" locus_tag="F8N22_RS21400" class="clusterblast-orf" id="dummy-1_h1_8_11"  />
</g>
<g id="a1_0012"  >
<polygon points="115,90 117,90 122,85 117,80 115,80 115,90 " style="fill:white; stroke-width:1; stroke:black; " description="&lt;b&gt;F8N22_RS21395&lt;/b&gt;&lt;br&gt;ATP-dependent Clp protease ATP-binding subunit&lt;br&gt;Location: 130038 - 129055" locus_tag="F8N22_RS21395" class="clusterblast-orf" id="dummy-1_h1_8_12"  />
</g>
<g id="a1_0013"  >
<polygon points="123,90 128,90 133,85 128,80 123,80 123,90 " style="fill:white; stroke-width:1; stroke:black; " description="&lt;b&gt;F8N22_RS21390&lt;/b&gt;&lt;br&gt;MATE family efflux transporter&lt;br&gt;Location: 129017 - 127662" locus_tag="F8N22_RS21390" class="clusterblast-orf" id="dummy-1_h1_8_13"  />
</g>
<g id="a1_0014"  >
<polygon points="133,90 137,90 142,85 137,80 133,80 133,90 " style="fill:white; stroke-width:1; stroke:black; " description="&lt;b&gt;F8N22_RS21385&lt;/b&gt;&lt;br&gt;MFS transporter&lt;br&gt;Location: 127621 - 126449" locus_tag="F8N22_RS21385" class="clusterblast-orf" id="dummy-1_h1_8_14"  />
</g>
<g id="a1_0015"  >
<polygon points="142,85 143,80 143,90 142,85 " style="fill:white; stroke-width:1; stroke:black; " description="&lt;b&gt;F8N22_RS21380&lt;/b&gt;&lt;br&gt;type II toxin-antitoxin system HicA family toxin&lt;br&gt;Location: 126392 - 126324" locus_tag="F8N22_RS21380" class="clusterblast-orf" id="dummy-1_h1_8_15"  />
</g>
<g id="a1_0016"  >
<polygon points="145,90 223,90 228,85 223,80 145,80 145,90 " style="fill:#d86f15; stroke-width:1; stroke:black; " description="&lt;b&gt;F8N22_RS21375&lt;/b&gt;&lt;br&gt;amino acid adenylation domain-containing protein&lt;br&gt;Location: 126114 - 115114&lt;br&gt;&lt;br&gt;&lt;b&gt;BlastP hit with ctg24_10&lt;/b&gt;&lt;br&gt;Percentage identity: 31&lt;br&gt;Percentage coverage: 87&lt;br&gt;BLAST bit score: 1215&lt;br&gt;E-value: 0.0&lt;br&gt;&lt;br&gt;&lt;b&gt;BlastP hit with ctg24_11&lt;/b&gt;&lt;br&gt;Percentage identity: 39&lt;br&gt;Percentage coverage: 57&lt;br&gt;BLAST bit score: 1276&lt;br&gt;E-value: 0.0" locus_tag="F8N22_RS21375" class="clusterblast-orf" id="dummy-1_h1_8_16"  />
</g>
<g id="a1_0017"  >
<polygon points="228,90 282,90 287,85 282,80 228,80 228,90 " style="fill:#d86f15; stroke-width:1; stroke:black; " description="&lt;b&gt;F8N22_RS21370&lt;/b&gt;&lt;br&gt;amino acid adenylation domain-containing protein&lt;br&gt;Location: 115110 - 107329&lt;br&gt;&lt;br&gt;&lt;b&gt;BlastP hit with ctg24_10&lt;/b&gt;&lt;br&gt;Percentage identity: 34&lt;br&gt;Percentage coverage: 58&lt;br&gt;BLAST bit score: 1100&lt;br&gt;E-value: 0.0&lt;br&gt;&lt;br&gt;&lt;b&gt;BlastP hit with ctg24_11&lt;/b&gt;&lt;br&gt;Percentage identity: 36&lt;br&gt;Percentage coverage: 68&lt;br&gt;BLAST bit score: 1305&lt;br&gt;E-value: 0.0" locus_tag="F8N22_RS21370" class="clusterblast-orf" id="dummy-1_h1_8_17"  />
</g>
<g id="a1_0018"  >
<polygon points="288,90 361,90 366,85 361,80 288,80 288,90 " style="fill:#d86f15; stroke-width:1; stroke:black; " description="&lt;b&gt;F8N22_RS21365&lt;/b&gt;&lt;br&gt;amino acid adenylation domain-containing protein&lt;br&gt;Location: 107255 - 96903&lt;br&gt;&lt;br&gt;&lt;b&gt;BlastP hit with ctg24_10&lt;/b&gt;&lt;br&gt;Percentage identity: 36&lt;br&gt;Percentage coverage: 75&lt;br&gt;BLAST bit score: 1516&lt;br&gt;E-value: 0.0&lt;br&gt;&lt;br&gt;&lt;b&gt;BlastP hit with ctg24_11&lt;/b&gt;&lt;br&gt;Percentage identity: 35&lt;br&gt;Percentage coverage: 90&lt;br&gt;BLAST bit score: 1652&lt;br&gt;E-value: 0.0" locus_tag="F8N22_RS21365" class="clusterblast-orf" id="dummy-1_h1_8_18"  />
</g>
<g id="a1_0019"  >
<polygon points="367,85 372,80 385,80 385,90 372,90 367,85 " style="fill:white; stroke-width:1; stroke:black; " description="&lt;b&gt;F8N22_RS21360&lt;/b&gt;&lt;br&gt;TonB-dependent siderophore receptor&lt;br&gt;Location: 96749 - 94368" locus_tag="F8N22_RS21360" class="clusterblast-orf" id="dummy-1_h1_8_19"  />
</g>
<g id="a1_0020"  >
<polygon points="387,85 392,80 399,80 399,90 392,90 387,85 " style="fill:white; stroke-width:1; stroke:black; " description="&lt;b&gt;F8N22_RS21355&lt;/b&gt;&lt;br&gt;cyclic peptide export ABC transporter&lt;br&gt;Location: 94211 - 92559" locus_tag="F8N22_RS21355" class="clusterblast-orf" id="dummy-1_h1_8_20"  />
</g>
<g id="a1_0021"  >
<polygon points="401,90 402,90 407,85 402,80 401,80 401,90 " style="fill:white; stroke-width:1; stroke:black; " description="&lt;b&gt;F8N22_RS21350&lt;/b&gt;&lt;br&gt;N(5)-hydroxyornithine transformylase PvdF&lt;br&gt;Location: 92358 - 91528" locus_tag="F8N22_RS21350" class="clusterblast-orf" id="dummy-1_h1_8_21"  />
</g>
<g id="a1_0022"  >
<polygon points="408,85 413,80 414,80 414,90 413,90 408,85 " style="fill:white; stroke-width:1; stroke:black; " description="&lt;b&gt;F8N22_RS21345&lt;/b&gt;&lt;br&gt;formylglycine-generating enzyme family protein&lt;br&gt;Location: 91402 - 90542" locus_tag="F8N22_RS21345" class="clusterblast-orf" id="dummy-1_h1_8_22"  />
</g>
<g id="a1_0023"  >
<polygon points="415,85 420,80 424,80 424,90 420,90 415,85 " style="fill:white; stroke-width:1; stroke:black; " description="&lt;b&gt;F8N22_RS21340&lt;/b&gt;&lt;br&gt;aminotransferase class V-fold PLP-dependent enzyme&lt;br&gt;Location: 90507 - 89236" locus_tag="F8N22_RS21340" class="clusterblast-orf" id="dummy-1_h1_8_23"  />
</g>
<g id="a1_0024"  >
<polygon points="424,85 429,80 435,80 435,90 429,90 424,85 " style="fill:white; stroke-width:1; stroke:black; " description="&lt;b&gt;F8N22_RS21335&lt;/b&gt;&lt;br&gt;membrane dipeptidase&lt;br&gt;Location: 89217 - 87868" locus_tag="F8N22_RS21335" class="clusterblast-orf" id="dummy-1_h1_8_24"  />
</g>
<g id="a1_0025"  >
<polygon points="436,90 443,90 448,85 443,80 436,80 436,90 " style="fill:white; stroke-width:1; stroke:black; " description="&lt;b&gt;F8N22_RS21330&lt;/b&gt;&lt;br&gt;PvdJ/PvdD/PvdP-like protein&lt;br&gt;Location: 87725 - 86100" locus_tag="F8N22_RS21330" class="clusterblast-orf" id="dummy-1_h1_8_25"  />
</g>
<g id="a1_0026"  >
<polygon points="450,90 542,90 547,85 542,80 450,80 450,90 " style="fill:#d86f15; stroke-width:1; stroke:black; " description="&lt;b&gt;F8N22_RS21325&lt;/b&gt;&lt;br&gt;amino acid adenylation domain-containing protein&lt;br&gt;Location: 85853 - 73026&lt;br&gt;&lt;br&gt;&lt;b&gt;BlastP hit with ctg24_10&lt;/b&gt;&lt;br&gt;Percentage identity: 87&lt;br&gt;Percentage coverage: 100&lt;br&gt;BLAST bit score: 7313&lt;br&gt;E-value: 0.0&lt;br&gt;&lt;br&gt;&lt;b&gt;BlastP hit with ctg24_11&lt;/b&gt;&lt;br&gt;Percentage identity: 60&lt;br&gt;Percentage coverage: 57&lt;br&gt;BLAST bit score: 2404&lt;br&gt;E-value: 0.0" locus_tag="F8N22_RS21325" class="clusterblast-orf" id="dummy-1_h1_8_26"  />
</g>
<g id="a1_0027"  >
<polygon points="547,90 628,90 633,85 628,80 547,80 547,90 " style="fill:#d86f15; stroke-width:1; stroke:black; " description="&lt;b&gt;F8N22_RS21320&lt;/b&gt;&lt;br&gt;amino acid adenylation domain-containing protein&lt;br&gt;Location: 73029 - 61735&lt;br&gt;&lt;br&gt;&lt;b&gt;BlastP hit with ctg24_10&lt;/b&gt;&lt;br&gt;Percentage identity: 60&lt;br&gt;Percentage coverage: 50&lt;br&gt;BLAST bit score: 2389&lt;br&gt;E-value: 0.0&lt;br&gt;&lt;br&gt;&lt;b&gt;BlastP hit with ctg24_11&lt;/b&gt;&lt;br&gt;Percentage identity: 86&lt;br&gt;Percentage coverage: 100&lt;br&gt;BLAST bit score: 6446&lt;br&gt;E-value: 0.0" locus_tag="F8N22_RS21320" class="clusterblast-orf" id="dummy-1_h1_8_27"  />
</g>
<g id="a1_0028"  >
<polygon points="633,85 635,80 635,90 633,85 " style="fill:white; stroke-width:1; stroke:black; " description="&lt;b&gt;F8N22_RS21315&lt;/b&gt;&lt;br&gt;hypothetical protein&lt;br&gt;Location: 61667 - 61480" locus_tag="F8N22_RS21315" class="clusterblast-orf" id="dummy-1_h1_8_28"  />
</g>
<g id="a1_0029"  >
<polygon points="637,90 640,90 645,85 640,80 637,80 637,90 " style="fill:#15d824; stroke-width:1; stroke:black; " description="&lt;b&gt;F8N22_RS21310&lt;/b&gt;&lt;br&gt;macrolide transporter subunit MacA&lt;br&gt;Location: 61231 - 60080&lt;br&gt;&lt;br&gt;&lt;b&gt;BlastP hit with ctg24_12&lt;/b&gt;&lt;br&gt;Percentage identity: 92&lt;br&gt;Percentage coverage: 100&lt;br&gt;BLAST bit score: 659&lt;br&gt;E-value: 4.79e-239" locus_tag="F8N22_RS21310" class="clusterblast-orf" id="dummy-1_h1_8_29"  />
</g>
<g id="a1_0030"  >
<polygon points="646,90 655,90 660,85 655,80 646,80 646,90 " style="fill:#1551d8; stroke-width:1; stroke:black; " description="&lt;b&gt;F8N22_RS21305&lt;/b&gt;&lt;br&gt;MacB family efflux pump subunit&lt;br&gt;Location: 60076 - 58118&lt;br&gt;&lt;br&gt;&lt;b&gt;BlastP hit with ctg24_13&lt;/b&gt;&lt;br&gt;Percentage identity: 97&lt;br&gt;Percentage coverage: 100&lt;br&gt;BLAST bit score: 1205&lt;br&gt;E-value: 0.0" locus_tag="F8N22_RS21305" class="clusterblast-orf" id="dummy-1_h1_8_30"  />
</g>
<g id="a1_0031"  >
<polygon points="661,85 666,80 666,80 666,90 666,90 661,85 " style="fill:#d815c9; stroke-width:1; stroke:black; " description="&lt;b&gt;F8N22_RS21300&lt;/b&gt;&lt;br&gt;helix-turn-helix transcriptional regulator&lt;br&gt;Location: 58047 - 57364&lt;br&gt;&lt;br&gt;&lt;b&gt;BlastP hit with ctg24_14&lt;/b&gt;&lt;br&gt;Percentage identity: 90&lt;br&gt;Percentage coverage: 97&lt;br&gt;BLAST bit score: 381&lt;br&gt;E-value: 3.27e-134" locus_tag="F8N22_RS21300" class="clusterblast-orf" id="dummy-1_h1_8_31"  />
</g>
<g id="a1_0032"  >
<polygon points="667,85 672,80 677,80 677,90 672,90 667,85 " style="fill:#d89c15; stroke-width:1; stroke:black; " description="&lt;b&gt;F8N22_RS21295&lt;/b&gt;&lt;br&gt;methionine gamma-lyase&lt;br&gt;Location: 57217 - 55982&lt;br&gt;&lt;br&gt;&lt;b&gt;BlastP hit with ctg24_15&lt;/b&gt;&lt;br&gt;Percentage identity: 94&lt;br&gt;Percentage coverage: 98&lt;br&gt;BLAST bit score: 761&lt;br&gt;E-value: 3.19e-278" locus_tag="F8N22_RS21295" class="clusterblast-orf" id="dummy-1_h1_8_32"  />
</g>
<g id="a1_0033"  >
<polygon points="678,90 681,85 678,80 678,90 " style="fill:#15d851; stroke-width:1; stroke:black; " description="&lt;b&gt;F8N22_RS21290&lt;/b&gt;&lt;br&gt;Lrp/AsnC family transcriptional regulator&lt;br&gt;Location: 55858 - 55388&lt;br&gt;&lt;br&gt;&lt;b&gt;BlastP hit with ctg24_16&lt;/b&gt;&lt;br&gt;Percentage identity: 95&lt;br&gt;Percentage coverage: 100&lt;br&gt;BLAST bit score: 297&lt;br&gt;E-value: 2.82e-103" locus_tag="F8N22_RS21290" class="clusterblast-orf" id="dummy-1_h1_8_33"  />
</g>
<g id="a1_0034"  >
<polygon points="682,90 685,85 682,80 682,90 " style="fill:white; stroke-width:1; stroke:black; " description="&lt;b&gt;F8N22_RS21285&lt;/b&gt;&lt;br&gt;carboxymuconolactone decarboxylase family protein&lt;br&gt;Location: 55290 - 54853" locus_tag="F8N22_RS21285" class="clusterblast-orf" id="dummy-1_h1_8_34"  />
</g>
<g id="a1_0035"  >
<polygon points="685,85 690,80 691,80 691,90 690,90 685,85 " style="fill:#1524d8; stroke-width:1; stroke:black; " description="&lt;b&gt;F8N22_RS21280&lt;/b&gt;&lt;br&gt;helix-turn-helix transcriptional regulator&lt;br&gt;Location: 54848 - 54078&lt;br&gt;&lt;br&gt;&lt;b&gt;BlastP hit with ctg24_17&lt;/b&gt;&lt;br&gt;Percentage identity: 88&lt;br&gt;Percentage coverage: 99&lt;br&gt;BLAST bit score: 461&lt;br&gt;E-value: 9.2e-165" locus_tag="F8N22_RS21280" class="clusterblast-orf" id="dummy-1_h1_8_35"  />
</g>
<g id="a1_0036"  >
<polygon points="692,90 695,90 700,85 695,80 692,80 692,90 " style="fill:#d8159c; stroke-width:1; stroke:black; " description="&lt;b&gt;F8N22_RS21275&lt;/b&gt;&lt;br&gt;MFS transporter&lt;br&gt;Location: 53976 - 52846&lt;br&gt;&lt;br&gt;&lt;b&gt;BlastP hit with ctg24_18&lt;/b&gt;&lt;br&gt;Percentage identity: 85&lt;br&gt;Percentage coverage: 100&lt;br&gt;BLAST bit score: 608&lt;br&gt;E-value: 4.01e-219" locus_tag="F8N22_RS21275" class="clusterblast-orf" id="dummy-1_h1_8_36"  />
</g>
<g id="a1_0037"  >
<polygon points="700,85 705,80 717,80 717,90 705,90 700,85 " style="fill:#d8c915; stroke-width:1; stroke:black; " description="&lt;b&gt;F8N22_RS21270&lt;/b&gt;&lt;br&gt;TonB-dependent siderophore receptor&lt;br&gt;Location: 52856 - 50694&lt;br&gt;&lt;br&gt;&lt;b&gt;BlastP hit with ctg24_19&lt;/b&gt;&lt;br&gt;Percentage identity: 90&lt;br&gt;Percentage coverage: 101&lt;br&gt;BLAST bit score: 1308&lt;br&gt;E-value: 0.0" locus_tag="F8N22_RS21270" class="clusterblast-orf" id="dummy-1_h1_8_37"  />
</g>
<g id="a1_0038"  >
<polygon points="718,85 723,80 725,80 725,90 723,90 718,85 " style="fill:#15d87e; stroke-width:1; stroke:black; " description="&lt;b&gt;F8N22_RS21265&lt;/b&gt;&lt;br&gt;helix-turn-helix domain-containing protein&lt;br&gt;Location: 50554 - 49658&lt;br&gt;&lt;br&gt;&lt;b&gt;BlastP hit with ctg24_20&lt;/b&gt;&lt;br&gt;Percentage identity: 92&lt;br&gt;Percentage coverage: 100&lt;br&gt;BLAST bit score: 503&lt;br&gt;E-value: 7.41e-181" locus_tag="F8N22_RS21265" class="clusterblast-orf" id="dummy-1_h1_8_38"  />
</g>
<g id="a1_0039"  >
<polygon points="726,90 731,90 736,85 731,80 726,80 726,90 " style="fill:#3315d8; stroke-width:1; stroke:black; " description="&lt;b&gt;F8N22_RS21260&lt;/b&gt;&lt;br&gt;glutamine synthetase&lt;br&gt;Location: 49518 - 48160&lt;br&gt;&lt;br&gt;&lt;b&gt;BlastP hit with ctg24_21&lt;/b&gt;&lt;br&gt;Percentage identity: 98&lt;br&gt;Percentage coverage: 100&lt;br&gt;BLAST bit score: 909&lt;br&gt;E-value: 0.0" locus_tag="F8N22_RS21260" class="clusterblast-orf" id="dummy-1_h1_8_39"  />
</g>
<g id="a1_0040"  >
<polygon points="736,90 739,90 744,85 739,80 736,80 736,90 " style="fill:#d8156f; stroke-width:1; stroke:black; " description="&lt;b&gt;F8N22_RS21255&lt;/b&gt;&lt;br&gt;extracellular solute-binding protein&lt;br&gt;Location: 48136 - 47048&lt;br&gt;&lt;br&gt;&lt;b&gt;BlastP hit with ctg24_22&lt;/b&gt;&lt;br&gt;Percentage identity: 95&lt;br&gt;Percentage coverage: 100&lt;br&gt;BLAST bit score: 693&lt;br&gt;E-value: 2.92e-253" locus_tag="F8N22_RS21255" class="clusterblast-orf" id="dummy-1_h1_8_40"  />
</g>
<g id="a1_0041"  >
<polygon points="744,90 749,90 754,85 749,80 744,80 744,90 " style="fill:#bad815; stroke-width:1; stroke:black; " description="&lt;b&gt;F8N22_RS21250&lt;/b&gt;&lt;br&gt;FAD-binding oxidoreductase&lt;br&gt;Location: 47051 - 45759&lt;br&gt;&lt;br&gt;&lt;b&gt;BlastP hit with ctg24_23&lt;/b&gt;&lt;br&gt;Percentage identity: 89&lt;br&gt;Percentage coverage: 99&lt;br&gt;BLAST bit score: 790&lt;br&gt;E-value: 4.81e-289" locus_tag="F8N22_RS21250" class="clusterblast-orf" id="dummy-1_h1_8_41"  />
</g>
<g id="a1_0042"  >
<polygon points="755,85 760,80 761,80 761,90 760,90 755,85 " style="fill:#15d8ab; stroke-width:1; stroke:black; " description="&lt;b&gt;F8N22_RS21245&lt;/b&gt;&lt;br&gt;LysR family transcriptional regulator&lt;br&gt;Location: 45685 - 44792&lt;br&gt;&lt;br&gt;&lt;b&gt;BlastP hit with ctg24_24&lt;/b&gt;&lt;br&gt;Percentage identity: 97&lt;br&gt;Percentage coverage: 99&lt;br&gt;BLAST bit score: 568&lt;br&gt;E-value: 6.46e-206" locus_tag="F8N22_RS21245" class="clusterblast-orf" id="dummy-1_h1_8_42"  />
</g>
<g id="a1_0043"  >
<polygon points="762,90 765,90 770,85 765,80 762,80 762,90 " style="fill:#6015d8; stroke-width:1; stroke:black; " description="&lt;b&gt;F8N22_RS21240&lt;/b&gt;&lt;br&gt;aldo/keto reductase&lt;br&gt;Location: 44678 - 43674&lt;br&gt;&lt;br&gt;&lt;b&gt;BlastP hit with ctg24_25&lt;/b&gt;&lt;br&gt;Percentage identity: 93&lt;br&gt;Percentage coverage: 100&lt;br&gt;BLAST bit score: 611&lt;br&gt;E-value: 1.37e-221" locus_tag="F8N22_RS21240" class="clusterblast-orf" id="dummy-1_h1_8_43"  />
</g>
<g id="a1_0044"  >
<polygon points="770,90 771,90 776,85 771,80 770,80 770,90 " style="fill:#d81542; stroke-width:1; stroke:black; " description="&lt;b&gt;F8N22_RS21235&lt;/b&gt;&lt;br&gt;SDR family oxidoreductase&lt;br&gt;Location: 43707 - 42859&lt;br&gt;&lt;br&gt;&lt;b&gt;BlastP hit with ctg24_26&lt;/b&gt;&lt;br&gt;Percentage identity: 97&lt;br&gt;Percentage coverage: 100&lt;br&gt;BLAST bit score: 481&lt;br&gt;E-value: 4.05e-172" locus_tag="F8N22_RS21235" class="clusterblast-orf" id="dummy-1_h1_8_44"  />
</g>
<g id="a1_0045"  >
<polygon points="776,90 780,85 776,80 776,90 " style="fill:#8dd815; stroke-width:1; stroke:black; " description="&lt;b&gt;F8N22_RS21230&lt;/b&gt;&lt;br&gt;SRPBCC family protein&lt;br&gt;Location: 42829 - 42413&lt;br&gt;&lt;br&gt;&lt;b&gt;BlastP hit with ctg24_27&lt;/b&gt;&lt;br&gt;Percentage identity: 92&lt;br&gt;Percentage coverage: 100&lt;br&gt;BLAST bit score: 215&lt;br&gt;E-value: 7.16e-72" locus_tag="F8N22_RS21230" class="clusterblast-orf" id="dummy-1_h1_8_45"  />
</g>
</svg>
