<svg xmlns="http://www.w3.org/2000/svg" xmlns:xlink="http://www.w3.org/1999/xlink" version="1.1" x="0" y="0" height="230" width="800" viewBox="0 0 800 230" preserveAspectRatio="none"  >
<g label="Query sequence" class="clusterblast-cluster"  >
<text x="5" y="20" class="clusterblast-acc"  >
Query sequence</text>
<line x1="10" y1="35" x2="778.0" y2="35" style="stroke-width:1; stroke:grey; "  />
<polygon points="81,40 82,40 87,35 82,30 81,30 81,40 " style="fill:white; stroke-width:1; stroke:black; " description="&lt;b&gt;ctg24_1&lt;/b&gt;&lt;br&gt;ctg24 1&lt;br&gt;Location: 518 - 1103" locus_tag="ctg24_1" class="clusterblast-orf" id="dummy-1_q0_0_all"  />
<polygon points="89,35 94,30 98,30 98,40 94,40 89,35 " style="fill:white; stroke-width:1; stroke:black; " description="&lt;b&gt;ctg24_2&lt;/b&gt;&lt;br&gt;ctg24 2&lt;br&gt;Location: 1304 - 2051" locus_tag="ctg24_2" class="clusterblast-orf" id="dummy-1_q1_0_all"  />
<polygon points="99,35 103,30 103,40 99,35 " style="fill:white; stroke-width:1; stroke:black; " description="&lt;b&gt;ctg24_3&lt;/b&gt;&lt;br&gt;ctg24 3&lt;br&gt;Location: 2121 - 2514" locus_tag="ctg24_3" class="clusterblast-orf" id="dummy-1_q2_0_all"  />
<polygon points="103,35 108,30 111,30 111,40 108,40 103,35 " style="fill:white; stroke-width:1; stroke:black; " description="&lt;b&gt;ctg24_4&lt;/b&gt;&lt;br&gt;ctg24 4&lt;br&gt;Location: 2510 - 3215" locus_tag="ctg24_4" class="clusterblast-orf" id="dummy-1_q3_0_all"  />
<polygon points="111,35 113,30 113,40 111,35 " style="fill:white; stroke-width:1; stroke:black; " description="&lt;b&gt;ctg24_5&lt;/b&gt;&lt;br&gt;ctg24 5&lt;br&gt;Location: 3226 - 3415" locus_tag="ctg24_5" class="clusterblast-orf" id="dummy-1_q4_0_all"  />
<polygon points="128,40 135,40 140,35 135,30 128,30 128,40 " style="fill:white; stroke-width:1; stroke:black; " description="&lt;b&gt;ctg24_6&lt;/b&gt;&lt;br&gt;ctg24 6&lt;br&gt;Location: 4786 - 5848" locus_tag="ctg24_6" class="clusterblast-orf" id="dummy-1_q5_0_all"  />
<polygon points="140,40 177,40 182,35 177,30 140,30 140,40 " style="fill:white; stroke-width:1; stroke:black; " description="&lt;b&gt;ctg24_7&lt;/b&gt;&lt;br&gt;ctg24 7&lt;br&gt;Location: 5851 - 9613" locus_tag="ctg24_7" class="clusterblast-orf" id="dummy-1_q6_0_all"  />
<polygon points="182,40 189,40 194,35 189,30 182,30 182,40 " style="fill:white; stroke-width:1; stroke:black; " description="&lt;b&gt;ctg24_8&lt;/b&gt;&lt;br&gt;ctg24 8&lt;br&gt;Location: 9612 - 10611" locus_tag="ctg24_8" class="clusterblast-orf" id="dummy-1_q7_0_all"  />
<polygon points="195,40 196,40 201,35 196,30 195,30 195,40 " style="fill:white; stroke-width:1; stroke:black; " description="&lt;b&gt;ctg24_9&lt;/b&gt;&lt;br&gt;ctg24 9&lt;br&gt;Location: 10730 - 11276" locus_tag="ctg24_9" class="clusterblast-orf" id="dummy-1_q8_0_all"  />
<polygon points="203,40 343,40 348,35 343,30 203,30 203,40 " style="fill:#d81515; stroke-width:1; stroke:black; " description="&lt;b&gt;ctg24_10&lt;/b&gt;&lt;br&gt;ctg24 10&lt;br&gt;Location: 11484 - 24396" locus_tag="ctg24_10" class="clusterblast-orf" id="dummy-1_q9_0_all"  />
<polygon points="348,40 470,40 475,35 470,30 348,30 348,40 " style="fill:#d81515; stroke-width:1; stroke:black; " description="&lt;b&gt;ctg24_11&lt;/b&gt;&lt;br&gt;ctg24 11&lt;br&gt;Location: 24392 - 35729" locus_tag="ctg24_11" class="clusterblast-orf" id="dummy-1_q10_0_all"  />
<polygon points="475,40 482,40 487,35 482,30 475,30 475,40 " style="fill:#3cd815; stroke-width:1; stroke:black; " description="&lt;b&gt;ctg24_12&lt;/b&gt;&lt;br&gt;ctg24 12&lt;br&gt;Location: 35725 - 36868" locus_tag="ctg24_12" class="clusterblast-orf" id="dummy-1_q11_0_all"  />
<polygon points="488,40 504,40 509,35 504,30 488,30 488,40 " style="fill:#1563d8; stroke-width:1; stroke:black; " description="&lt;b&gt;ctg24_13&lt;/b&gt;&lt;br&gt;ctg24 13&lt;br&gt;Location: 36871 - 38830" locus_tag="ctg24_13" class="clusterblast-orf" id="dummy-1_q12_0_all"  />
<polygon points="511,35 516,30 518,30 518,40 516,40 511,35 " style="fill:#b115d8; stroke-width:1; stroke:black; " description="&lt;b&gt;ctg24_14&lt;/b&gt;&lt;br&gt;ctg24 14&lt;br&gt;Location: 38957 - 39635" locus_tag="ctg24_14" class="clusterblast-orf" id="dummy-1_q13_0_all"  />
<polygon points="521,35 526,30 535,30 535,40 526,40 521,35 " style="fill:#d88a15; stroke-width:1; stroke:black; " description="&lt;b&gt;ctg24_15&lt;/b&gt;&lt;br&gt;ctg24 15&lt;br&gt;Location: 39867 - 41112" locus_tag="ctg24_15" class="clusterblast-orf" id="dummy-1_q14_0_all"  />
<polygon points="536,40 537,40 542,35 537,30 536,30 536,40 " style="fill:#15d863; stroke-width:1; stroke:black; " description="&lt;b&gt;ctg24_16&lt;/b&gt;&lt;br&gt;ctg24 16&lt;br&gt;Location: 41235 - 41706" locus_tag="ctg24_16" class="clusterblast-orf" id="dummy-1_q15_0_all"  />
<polygon points="542,35 547,30 551,30 551,40 547,40 542,35 " style="fill:white; stroke-width:1; stroke:black; " description="&lt;b&gt;ctg24_17&lt;/b&gt;&lt;br&gt;ctg24 17&lt;br&gt;Location: 41784 - 42555" locus_tag="ctg24_17" class="clusterblast-orf" id="dummy-1_q16_0_all"  />
<polygon points="552,40 560,40 565,35 560,30 552,30 552,40 " style="fill:white; stroke-width:1; stroke:black; " description="&lt;b&gt;ctg24_18&lt;/b&gt;&lt;br&gt;ctg24 18&lt;br&gt;Location: 42653 - 43784" locus_tag="ctg24_18" class="clusterblast-orf" id="dummy-1_q17_0_all"  />
<polygon points="565,35 570,30 589,30 589,40 570,40 565,35 " style="fill:#3c15d8; stroke-width:1; stroke:black; " description="&lt;b&gt;ctg24_19&lt;/b&gt;&lt;br&gt;ctg24 19&lt;br&gt;Location: 43773 - 45915" locus_tag="ctg24_19" class="clusterblast-orf" id="dummy-1_q18_0_all"  />
<polygon points="590,35 595,30 599,30 599,40 595,40 590,35 " style="fill:#d8158a; stroke-width:1; stroke:black; " description="&lt;b&gt;ctg24_20&lt;/b&gt;&lt;br&gt;ctg24 20&lt;br&gt;Location: 46020 - 46818" locus_tag="ctg24_20" class="clusterblast-orf" id="dummy-1_q19_0_all"  />
<polygon points="601,40 612,40 617,35 612,30 601,30 601,40 " style="fill:white; stroke-width:1; stroke:black; " description="&lt;b&gt;ctg24_21&lt;/b&gt;&lt;br&gt;ctg24 21&lt;br&gt;Location: 47055 - 48414" locus_tag="ctg24_21" class="clusterblast-orf" id="dummy-1_q20_0_all"  />
<polygon points="617,40 624,40 629,35 624,30 617,30 617,40 " style="fill:#b1d815; stroke-width:1; stroke:black; " description="&lt;b&gt;ctg24_22&lt;/b&gt;&lt;br&gt;ctg24 22&lt;br&gt;Location: 48436 - 49525" locus_tag="ctg24_22" class="clusterblast-orf" id="dummy-1_q21_0_all"  />
<polygon points="629,40 639,40 644,35 639,30 629,30 629,40 " style="fill:#15d8d8; stroke-width:1; stroke:black; " description="&lt;b&gt;ctg24_23&lt;/b&gt;&lt;br&gt;ctg24 23&lt;br&gt;Location: 49521 - 50817" locus_tag="ctg24_23" class="clusterblast-orf" id="dummy-1_q22_0_all"  />
<polygon points="645,35 650,30 655,30 655,40 650,40 645,35 " style="fill:white; stroke-width:1; stroke:black; " description="&lt;b&gt;ctg24_24&lt;/b&gt;&lt;br&gt;ctg24 24&lt;br&gt;Location: 50934 - 51828" locus_tag="ctg24_24" class="clusterblast-orf" id="dummy-1_q23_0_all"  />
<polygon points="656,40 662,40 667,35 662,30 656,30 656,40 " style="fill:white; stroke-width:1; stroke:black; " description="&lt;b&gt;ctg24_25&lt;/b&gt;&lt;br&gt;ctg24 25&lt;br&gt;Location: 51941 - 52946" locus_tag="ctg24_25" class="clusterblast-orf" id="dummy-1_q24_0_all"  />
<polygon points="668,40 671,40 676,35 671,30 668,30 668,40 " style="fill:white; stroke-width:1; stroke:black; " description="&lt;b&gt;ctg24_26&lt;/b&gt;&lt;br&gt;ctg24 26&lt;br&gt;Location: 52961 - 53759" locus_tag="ctg24_26" class="clusterblast-orf" id="dummy-1_q25_0_all"  />
<polygon points="677,40 681,35 677,30 677,40 " style="fill:white; stroke-width:1; stroke:black; " description="&lt;b&gt;ctg24_27&lt;/b&gt;&lt;br&gt;ctg24 27&lt;br&gt;Location: 53843 - 54203" locus_tag="ctg24_27" class="clusterblast-orf" id="dummy-1_q26_0_all"  />
<polygon points="683,35 688,30 699,30 699,40 688,40 683,35 " style="fill:white; stroke-width:1; stroke:black; " description="&lt;b&gt;ctg24_28&lt;/b&gt;&lt;br&gt;ctg24 28&lt;br&gt;Location: 54335 - 55727" locus_tag="ctg24_28" class="clusterblast-orf" id="dummy-1_q27_0_all"  />
</g>
<g label="BGC0000425" description="BGC0000425_c1: sessilin A (55% of genes show similarity), NRP:Cyclic depsipeptide" class="clusterblast-cluster"  >
<text x="5" y="70" class="clusterblast-acc"  >
<a xlink:href="https://mibig.secondarymetabolites.org/go/BGC0000425/1" target="_blank">BGC0000425</a>: sessilin A                                                                       (55% of genes show similarity), NRP:Cyclic depsipeptide</text>
<line x1="10" y1="85" x2="778.0" y2="85" style="stroke-width:1; stroke:grey; "  />
</g>
<g id="a1_000"  >
<polygon points="0,85 5,80 16,80 16,90 5,90 0,85 " style="fill:white; stroke-width:1; stroke:black; " description="&lt;b&gt;AFH75317.1&lt;/b&gt;&lt;br&gt;outer membrane efflux protein&lt;br&gt;Location: 20 - 1459" locus_tag="AFH75317.1" class="clusterblast-orf" id="dummy-1_h1_4_0"  />
</g>
<g id="a1_001"  >
<polygon points="16,85 21,80 25,80 25,90 21,90 16,85 " style="fill:white; stroke-width:1; stroke:black; " description="&lt;b&gt;AFH75318.1&lt;/b&gt;&lt;br&gt;LuxR family transcriptional regulator&lt;br&gt;Location: 1522 - 2337" locus_tag="AFH75318.1" class="clusterblast-orf" id="dummy-1_h1_4_1"  />
</g>
<g id="a1_002"  >
<polygon points="29,90 43,90 48,85 43,80 29,80 29,90 " style="fill:white; stroke-width:1; stroke:black; " description="&lt;b&gt;AFH75319.1&lt;/b&gt;&lt;br&gt;cyclic peptide transporter&lt;br&gt;Location: 2647 - 4344" locus_tag="AFH75319.1" class="clusterblast-orf" id="dummy-1_h1_4_2"  />
</g>
<g id="a1_003"  >
<polygon points="53,90 263,90 268,85 263,80 53,80 53,90 " style="fill:#d81515; stroke-width:1; stroke:black; " description="&lt;b&gt;AFH75320.1&lt;/b&gt;&lt;br&gt;nonribosomal peptide synthetase&lt;br&gt;Location: 4806 - 24047&lt;br&gt;&lt;br&gt;&lt;b&gt;BlastP hit with ctg24_10&lt;/b&gt;&lt;br&gt;Percentage identity: 56&lt;br&gt;Percentage coverage: 100&lt;br&gt;BLAST bit score: 4410&lt;br&gt;E-value: 0.0&lt;br&gt;&lt;br&gt;&lt;b&gt;BlastP hit with ctg24_11&lt;/b&gt;&lt;br&gt;Percentage identity: 51&lt;br&gt;Percentage coverage: 87&lt;br&gt;BLAST bit score: 2887&lt;br&gt;E-value: 0.0" locus_tag="AFH75320.1" class="clusterblast-orf" id="dummy-1_h1_4_3"  />
</g>
<g id="a1_004"  >
<polygon points="268,90 480,90 485,85 480,80 268,80 268,90 " style="fill:#d81515; stroke-width:1; stroke:black; " description="&lt;b&gt;AFH75321.1&lt;/b&gt;&lt;br&gt;nonribosomal peptide synthetase&lt;br&gt;Location: 24044 - 43444&lt;br&gt;&lt;br&gt;&lt;b&gt;BlastP hit with ctg24_10&lt;/b&gt;&lt;br&gt;Percentage identity: 57&lt;br&gt;Percentage coverage: 99&lt;br&gt;BLAST bit score: 4534&lt;br&gt;E-value: 0.0&lt;br&gt;&lt;br&gt;&lt;b&gt;BlastP hit with ctg24_11&lt;/b&gt;&lt;br&gt;Percentage identity: 53&lt;br&gt;Percentage coverage: 88&lt;br&gt;BLAST bit score: 3125&lt;br&gt;E-value: 0.0" locus_tag="AFH75321.1" class="clusterblast-orf" id="dummy-1_h1_4_4"  />
</g>
<g id="a1_005"  >
<polygon points="490,90 722,90 727,85 722,80 490,80 490,90 " style="fill:#d81515; stroke-width:1; stroke:black; " description="&lt;b&gt;AFH75322.1&lt;/b&gt;&lt;br&gt;nonribosomal peptide synthetase&lt;br&gt;Location: 43822 - 64995&lt;br&gt;&lt;br&gt;&lt;b&gt;BlastP hit with ctg24_10&lt;/b&gt;&lt;br&gt;Percentage identity: 54&lt;br&gt;Percentage coverage: 103&lt;br&gt;BLAST bit score: 4215&lt;br&gt;E-value: 0.0" locus_tag="AFH75322.1" class="clusterblast-orf" id="dummy-1_h1_4_5"  />
</g>
<g id="a1_006"  >
<polygon points="728,90 736,90 741,85 736,80 728,80 728,90 " style="fill:#3cd815; stroke-width:1; stroke:black; " description="&lt;b&gt;AFH75323.1&lt;/b&gt;&lt;br&gt;macrolide-specific efflux protein&lt;br&gt;Location: 65117 - 66268&lt;br&gt;&lt;br&gt;&lt;b&gt;BlastP hit with ctg24_12&lt;/b&gt;&lt;br&gt;Percentage identity: 77&lt;br&gt;Percentage coverage: 100&lt;br&gt;BLAST bit score: 556&lt;br&gt;E-value: 4.2e-200" locus_tag="AFH75323.1" class="clusterblast-orf" id="dummy-1_h1_4_6"  />
</g>
<g id="a1_007"  >
<polygon points="741,90 758,90 763,85 758,80 741,80 741,90 " style="fill:#1563d8; stroke-width:1; stroke:black; " description="&lt;b&gt;AFH75324.1&lt;/b&gt;&lt;br&gt;macrolide export ATP-binding/permease protein MacB&lt;br&gt;Location: 66271 - 68229&lt;br&gt;&lt;br&gt;&lt;b&gt;BlastP hit with ctg24_13&lt;/b&gt;&lt;br&gt;Percentage identity: 79&lt;br&gt;Percentage coverage: 100&lt;br&gt;BLAST bit score: 981&lt;br&gt;E-value: 0.0" locus_tag="AFH75324.1" class="clusterblast-orf" id="dummy-1_h1_4_7"  />
</g>
<g id="a1_008"  >
<polygon points="764,85 769,80 780,80 780,90 769,90 764,85 " style="fill:white; stroke-width:1; stroke:black; " description="&lt;b&gt;AFH75325.1&lt;/b&gt;&lt;br&gt;diaminobutyrate-2-oxoglutarate aminotransferase&lt;br&gt;Location: 68337 - 69722" locus_tag="AFH75325.1" class="clusterblast-orf" id="dummy-1_h1_4_8"  />
</g>
</svg>
