<svg xmlns="http://www.w3.org/2000/svg" xmlns:xlink="http://www.w3.org/1999/xlink" version="1.1" x="0" y="0" height="230" width="800" viewBox="0 0 800 230" preserveAspectRatio="none"  >
<g label="Query sequence" class="clusterblast-cluster"  >
<text x="5" y="20" class="clusterblast-acc"  >
Query sequence</text>
<line x1="10" y1="35" x2="778.0" y2="35" style="stroke-width:1; stroke:grey; "  />
<polygon points="0,40 0,40 5,35 0,30 0,30 0,40 " style="fill:white; stroke-width:1; stroke:black; " description="&lt;b&gt;ctg2_311&lt;/b&gt;&lt;br&gt;ctg2 311&lt;br&gt;Location: 344796 - 345147" locus_tag="ctg2_311" class="clusterblast-orf" id="dummy-2_q0_0_all"  />
<polygon points="5,40 5,40 10,35 5,30 5,30 5,40 " style="fill:white; stroke-width:1; stroke:black; " description="&lt;b&gt;ctg2_312&lt;/b&gt;&lt;br&gt;ctg2 312&lt;br&gt;Location: 345170 - 345497" locus_tag="ctg2_312" class="clusterblast-orf" id="dummy-2_q1_0_all"  />
<polygon points="11,40 14,40 19,35 14,30 11,30 11,40 " style="fill:white; stroke-width:1; stroke:black; " description="&lt;b&gt;ctg2_313&lt;/b&gt;&lt;br&gt;ctg2 313&lt;br&gt;Location: 345529 - 346075" locus_tag="ctg2_313" class="clusterblast-orf" id="dummy-2_q2_0_all"  />
<polygon points="20,40 29,40 34,35 29,30 20,30 20,40 " style="fill:white; stroke-width:1; stroke:black; " description="&lt;b&gt;ctg2_314&lt;/b&gt;&lt;br&gt;ctg2 314&lt;br&gt;Location: 346165 - 347086" locus_tag="ctg2_314" class="clusterblast-orf" id="dummy-2_q3_0_all"  />
<polygon points="33,35 38,30 43,30 43,40 38,40 33,35 " style="fill:white; stroke-width:1; stroke:black; " description="&lt;b&gt;ctg2_315&lt;/b&gt;&lt;br&gt;ctg2 315&lt;br&gt;Location: 347044 - 347704" locus_tag="ctg2_315" class="clusterblast-orf" id="dummy-2_q4_0_all"  />
<polygon points="43,35 48,30 57,30 57,40 48,40 43,35 " style="fill:white; stroke-width:1; stroke:black; " description="&lt;b&gt;ctg2_316&lt;/b&gt;&lt;br&gt;ctg2 316&lt;br&gt;Location: 347700 - 348594" locus_tag="ctg2_316" class="clusterblast-orf" id="dummy-2_q5_0_all"  />
<polygon points="62,35 67,30 69,30 69,40 67,40 62,35 " style="fill:white; stroke-width:1; stroke:black; " description="&lt;b&gt;ctg2_317&lt;/b&gt;&lt;br&gt;ctg2 317&lt;br&gt;Location: 348977 - 349427" locus_tag="ctg2_317" class="clusterblast-orf" id="dummy-2_q6_0_all"  />
<polygon points="77,40 86,40 91,35 86,30 77,30 77,40 " style="fill:white; stroke-width:1; stroke:black; " description="&lt;b&gt;ctg2_318&lt;/b&gt;&lt;br&gt;ctg2 318&lt;br&gt;Location: 349960 - 350896" locus_tag="ctg2_318" class="clusterblast-orf" id="dummy-2_q7_0_all"  />
<polygon points="92,40 99,40 104,35 99,30 92,30 92,40 " style="fill:white; stroke-width:1; stroke:black; " description="&lt;b&gt;ctg2_319&lt;/b&gt;&lt;br&gt;ctg2 319&lt;br&gt;Location: 350934 - 351741" locus_tag="ctg2_319" class="clusterblast-orf" id="dummy-2_q8_0_all"  />
<polygon points="105,35 109,30 109,40 105,35 " style="fill:white; stroke-width:1; stroke:black; " description="&lt;b&gt;ctg2_320&lt;/b&gt;&lt;br&gt;ctg2 320&lt;br&gt;Location: 351805 - 352090" locus_tag="ctg2_320" class="clusterblast-orf" id="dummy-2_q9_0_all"  />
<polygon points="110,35 115,30 118,30 118,40 115,40 110,35 " style="fill:white; stroke-width:1; stroke:black; " description="&lt;b&gt;ctg2_321&lt;/b&gt;&lt;br&gt;ctg2 321&lt;br&gt;Location: 352155 - 352698" locus_tag="ctg2_321" class="clusterblast-orf" id="dummy-2_q10_0_all"  />
<polygon points="119,35 124,30 148,30 148,40 124,40 119,35 " style="fill:#d81515; stroke-width:1; stroke:black; " description="&lt;b&gt;ctg2_322&lt;/b&gt;&lt;br&gt;ctg2 322&lt;br&gt;Location: 352789 - 354712" locus_tag="ctg2_322" class="clusterblast-orf" id="dummy-2_q11_0_all"  />
<polygon points="150,35 155,30 161,30 161,40 155,40 150,35 " style="fill:white; stroke-width:1; stroke:black; " description="&lt;b&gt;ctg2_323&lt;/b&gt;&lt;br&gt;ctg2 323&lt;br&gt;Location: 354823 - 355591" locus_tag="ctg2_323" class="clusterblast-orf" id="dummy-2_q12_0_all"  />
<polygon points="161,35 166,30 179,30 179,40 166,40 161,35 " style="fill:white; stroke-width:1; stroke:black; " description="&lt;b&gt;ctg2_324&lt;/b&gt;&lt;br&gt;ctg2 324&lt;br&gt;Location: 355587 - 356745" locus_tag="ctg2_324" class="clusterblast-orf" id="dummy-2_q13_0_all"  />
<polygon points="179,35 184,30 203,30 203,40 184,40 179,35 " style="fill:#43d815; stroke-width:1; stroke:black; " description="&lt;b&gt;ctg2_325&lt;/b&gt;&lt;br&gt;ctg2 325&lt;br&gt;Location: 356761 - 358378" locus_tag="ctg2_325" class="clusterblast-orf" id="dummy-2_q14_0_all"  />
<polygon points="203,35 208,30 216,30 216,40 208,40 203,35 " style="fill:white; stroke-width:1; stroke:black; " description="&lt;b&gt;ctg2_326&lt;/b&gt;&lt;br&gt;ctg2 326&lt;br&gt;Location: 358381 - 359254" locus_tag="ctg2_326" class="clusterblast-orf" id="dummy-2_q15_0_all"  />
<polygon points="216,35 221,30 243,30 243,40 221,40 216,35 " style="fill:white; stroke-width:1; stroke:black; " description="&lt;b&gt;ctg2_327&lt;/b&gt;&lt;br&gt;ctg2 327&lt;br&gt;Location: 359266 - 361045" locus_tag="ctg2_327" class="clusterblast-orf" id="dummy-2_q16_0_all"  />
<polygon points="245,40 250,40 255,35 250,30 245,30 245,40 " style="fill:white; stroke-width:1; stroke:black; " description="&lt;b&gt;ctg2_328&lt;/b&gt;&lt;br&gt;ctg2 328&lt;br&gt;Location: 361198 - 361822" locus_tag="ctg2_328" class="clusterblast-orf" id="dummy-2_q17_0_all"  />
<polygon points="256,40 263,40 268,35 263,30 256,30 256,40 " style="fill:white; stroke-width:1; stroke:black; " description="&lt;b&gt;ctg2_329&lt;/b&gt;&lt;br&gt;ctg2 329&lt;br&gt;Location: 361915 - 362704" locus_tag="ctg2_329" class="clusterblast-orf" id="dummy-2_q18_0_all"  />
<polygon points="269,35 274,30 277,30 277,40 274,40 269,35 " style="fill:#15b6d8; stroke-width:1; stroke:black; " description="&lt;b&gt;ctg2_330&lt;/b&gt;&lt;br&gt;ctg2 330&lt;br&gt;Location: 362742 - 363294" locus_tag="ctg2_330" class="clusterblast-orf" id="dummy-2_q19_0_all"  />
<polygon points="281,40 288,40 293,35 288,30 281,30 281,40 " style="fill:#8815d8; stroke-width:1; stroke:black; " description="&lt;b&gt;ctg2_331&lt;/b&gt;&lt;br&gt;ctg2 331&lt;br&gt;Location: 363594 - 364347" locus_tag="ctg2_331" class="clusterblast-orf" id="dummy-2_q20_0_all"  />
<polygon points="293,40 482,40 487,35 482,30 293,30 293,40 " style="fill:#d85a15; stroke-width:1; stroke:black; " description="&lt;b&gt;ctg2_332&lt;/b&gt;&lt;br&gt;ctg2 332&lt;br&gt;Location: 364397 - 377294" locus_tag="ctg2_332" class="clusterblast-orf" id="dummy-2_q21_0_all"  />
<polygon points="502,40 506,40 511,35 506,30 502,30 502,40 " style="fill:#15d82c; stroke-width:1; stroke:black; " description="&lt;b&gt;ctg2_333&lt;/b&gt;&lt;br&gt;ctg2 333&lt;br&gt;Location: 378313 - 378949" locus_tag="ctg2_333" class="clusterblast-orf" id="dummy-2_q22_0_all"  />
<polygon points="512,40 523,40 528,35 523,30 512,30 512,40 " style="fill:#1571d8; stroke-width:1; stroke:black; " description="&lt;b&gt;ctg2_334&lt;/b&gt;&lt;br&gt;ctg2 334&lt;br&gt;Location: 378989 - 380054" locus_tag="ctg2_334" class="clusterblast-orf" id="dummy-2_q23_0_all"  />
<polygon points="531,35 536,30 542,30 542,40 536,40 531,35 " style="fill:#cd15d8; stroke-width:1; stroke:black; " description="&lt;b&gt;ctg2_335&lt;/b&gt;&lt;br&gt;ctg2 335&lt;br&gt;Location: 380254 - 381016" locus_tag="ctg2_335" class="clusterblast-orf" id="dummy-2_q24_0_all"  />
<polygon points="542,35 547,30 555,30 555,40 547,40 542,35 " style="fill:#d89f15; stroke-width:1; stroke:black; " description="&lt;b&gt;ctg2_336&lt;/b&gt;&lt;br&gt;ctg2 336&lt;br&gt;Location: 380991 - 381843" locus_tag="ctg2_336" class="clusterblast-orf" id="dummy-2_q25_0_all"  />
<polygon points="555,35 560,30 581,30 581,40 560,40 555,35 " style="fill:#15d871; stroke-width:1; stroke:black; " description="&lt;b&gt;ctg2_337&lt;/b&gt;&lt;br&gt;ctg2 337&lt;br&gt;Location: 381842 - 383588" locus_tag="ctg2_337" class="clusterblast-orf" id="dummy-2_q26_0_all"  />
<polygon points="584,40 589,40 594,35 589,30 584,30 584,40 " style="fill:#152cd8; stroke-width:1; stroke:black; " description="&lt;b&gt;ctg2_338&lt;/b&gt;&lt;br&gt;ctg2 338&lt;br&gt;Location: 383764 - 384460" locus_tag="ctg2_338" class="clusterblast-orf" id="dummy-2_q27_0_all"  />
<polygon points="594,40 609,40 614,35 609,30 594,30 594,40 " style="fill:#d8159f; stroke-width:1; stroke:black; " description="&lt;b&gt;ctg2_339&lt;/b&gt;&lt;br&gt;ctg2 339&lt;br&gt;Location: 384456 - 385779" locus_tag="ctg2_339" class="clusterblast-orf" id="dummy-2_q28_0_all"  />
<polygon points="616,40 622,40 627,35 622,30 616,30 616,40 " style="fill:white; stroke-width:1; stroke:black; " description="&lt;b&gt;ctg2_340&lt;/b&gt;&lt;br&gt;ctg2 340&lt;br&gt;Location: 385903 - 386671" locus_tag="ctg2_340" class="clusterblast-orf" id="dummy-2_q29_0_all"  />
<polygon points="630,40 646,40 651,35 646,30 630,30 630,40 " style="fill:#cdd815; stroke-width:1; stroke:black; " description="&lt;b&gt;ctg2_341&lt;/b&gt;&lt;br&gt;ctg2 341&lt;br&gt;Location: 386867 - 388280" locus_tag="ctg2_341" class="clusterblast-orf" id="dummy-2_q30_0_all"  />
<polygon points="653,40 656,35 653,30 653,40 " style="fill:#15d8b6; stroke-width:1; stroke:black; " description="&lt;b&gt;ctg2_342&lt;/b&gt;&lt;br&gt;ctg2 342&lt;br&gt;Location: 388363 - 388588" locus_tag="ctg2_342" class="clusterblast-orf" id="dummy-2_q31_0_all"  />
<polygon points="658,35 663,30 678,30 678,40 663,40 658,35 " style="fill:white; stroke-width:1; stroke:black; " description="&lt;b&gt;ctg2_343&lt;/b&gt;&lt;br&gt;ctg2 343&lt;br&gt;Location: 388704 - 390051" locus_tag="ctg2_343" class="clusterblast-orf" id="dummy-2_q32_0_all"  />
<polygon points="678,35 683,30 711,30 711,40 683,40 678,35 " style="fill:white; stroke-width:1; stroke:black; " description="&lt;b&gt;ctg2_344&lt;/b&gt;&lt;br&gt;ctg2 344&lt;br&gt;Location: 390068 - 392234" locus_tag="ctg2_344" class="clusterblast-orf" id="dummy-2_q33_0_all"  />
<polygon points="712,35 714,30 714,40 712,35 " style="fill:white; stroke-width:1; stroke:black; " description="&lt;b&gt;ctg2_345&lt;/b&gt;&lt;br&gt;ctg2 345&lt;br&gt;Location: 392306 - 392483" locus_tag="ctg2_345" class="clusterblast-orf" id="dummy-2_q34_0_all"  />
<polygon points="718,35 723,30 737,30 737,40 723,40 718,35 " style="fill:white; stroke-width:1; stroke:black; " description="&lt;b&gt;ctg2_346&lt;/b&gt;&lt;br&gt;ctg2 346&lt;br&gt;Location: 392703 - 393993" locus_tag="ctg2_346" class="clusterblast-orf" id="dummy-2_q35_0_all"  />
<polygon points="739,35 744,30 748,30 748,40 744,40 739,35 " style="fill:white; stroke-width:1; stroke:black; " description="&lt;b&gt;ctg2_347&lt;/b&gt;&lt;br&gt;ctg2 347&lt;br&gt;Location: 394103 - 394739" locus_tag="ctg2_347" class="clusterblast-orf" id="dummy-2_q36_0_all"  />
<polygon points="750,35 753,30 753,40 750,35 " style="fill:#4315d8; stroke-width:1; stroke:black; " description="&lt;b&gt;ctg2_348&lt;/b&gt;&lt;br&gt;ctg2 348&lt;br&gt;Location: 394835 - 395090" locus_tag="ctg2_348" class="clusterblast-orf" id="dummy-2_q37_0_all"  />
<polygon points="753,35 758,30 766,30 766,40 758,40 753,35 " style="fill:#d8155a; stroke-width:1; stroke:black; " description="&lt;b&gt;ctg2_349&lt;/b&gt;&lt;br&gt;ctg2 349&lt;br&gt;Location: 395093 - 395906" locus_tag="ctg2_349" class="clusterblast-orf" id="dummy-2_q38_0_all"  />
<polygon points="769,35 774,30 780,30 780,40 774,40 769,35 " style="fill:#88d815; stroke-width:1; stroke:black; " description="&lt;b&gt;ctg2_350&lt;/b&gt;&lt;br&gt;ctg2 350&lt;br&gt;Location: 396106 - 396844" locus_tag="ctg2_350" class="clusterblast-orf" id="dummy-2_q39_0_all"  />
</g>
<g label="BGC0000993" description="BGC0000993_c1: FR901228 (14% of genes show similarity), NRP:Cyclic depsipeptide+Polyketide:Modular type I polyketide" class="clusterblast-cluster"  >
<text x="5" y="70" class="clusterblast-acc"  >
<a xlink:href="https://mibig.secondarymetabolites.org/go/BGC0000993/1" target="_blank">BGC0000993</a>: FR901228                                                                         (14% of genes show similarity), NRP:Cyclic depsipeptide+Polyketide:Modular type I polyketide</text>
<line x1="10" y1="85" x2="778.0" y2="85" style="stroke-width:1; stroke:grey; "  />
</g>
<g id="a2_000"  >
<polygon points="87,90 88,90 93,85 88,80 87,80 87,90 " style="fill:white; stroke-width:1; stroke:black; " description="&lt;b&gt;ABP57738.1&lt;/b&gt;&lt;br&gt;16S rRNA pseudouridine synthase&lt;br&gt;Location: 1 - 454" locus_tag="ABP57738.1" class="clusterblast-orf" id="dummy-2_h2_4_0"  />
</g>
<g id="a2_001"  >
<polygon points="93,90 96,90 101,85 96,80 93,80 93,90 " style="fill:white; stroke-width:1; stroke:black; " description="&lt;b&gt;ABP57739.1&lt;/b&gt;&lt;br&gt;MutT/nudix family phosphohydrolase&lt;br&gt;Location: 466 - 957" locus_tag="ABP57739.1" class="clusterblast-orf" id="dummy-2_h2_4_1"  />
</g>
<g id="a2_002"  >
<polygon points="101,90 105,90 110,85 105,80 101,80 101,90 " style="fill:white; stroke-width:1; stroke:black; " description="&lt;b&gt;ABP57740.1&lt;/b&gt;&lt;br&gt;transcription elongation factor GreB&lt;br&gt;Location: 972 - 1544" locus_tag="ABP57740.1" class="clusterblast-orf" id="dummy-2_h2_4_2"  />
</g>
<g id="a2_003"  >
<polygon points="111,85 115,80 115,90 111,85 " style="fill:white; stroke-width:1; stroke:black; " description="&lt;b&gt;ABP57741.1&lt;/b&gt;&lt;br&gt;DepK&lt;br&gt;Location: 1616 - 1873" locus_tag="ABP57741.1" class="clusterblast-orf" id="dummy-2_h2_4_3"  />
</g>
<g id="a2_004"  >
<polygon points="116,85 121,80 123,80 123,90 121,90 116,85 " style="fill:white; stroke-width:1; stroke:black; " description="&lt;b&gt;ABP57742.1&lt;/b&gt;&lt;br&gt;DepL&lt;br&gt;Location: 1971 - 2438" locus_tag="ABP57742.1" class="clusterblast-orf" id="dummy-2_h2_4_4"  />
</g>
<g id="a2_005"  >
<polygon points="124,90 137,90 142,85 137,80 124,80 124,90 " style="fill:white; stroke-width:1; stroke:black; " description="&lt;b&gt;ABP57743.1&lt;/b&gt;&lt;br&gt;DepM&lt;br&gt;Location: 2513 - 3682" locus_tag="ABP57743.1" class="clusterblast-orf" id="dummy-2_h2_4_5"  />
</g>
<g id="a2_006"  >
<polygon points="153,90 156,85 153,80 153,90 " style="fill:white; stroke-width:1; stroke:black; " description="&lt;b&gt;ABP57744.1&lt;/b&gt;&lt;br&gt;DepN&lt;br&gt;Location: 4469 - 4666" locus_tag="ABP57744.1" class="clusterblast-orf" id="dummy-2_h2_4_6"  />
</g>
<g id="a2_007"  >
<polygon points="162,90 233,90 238,85 233,80 162,80 162,90 " style="fill:white; stroke-width:1; stroke:black; " description="&lt;b&gt;ABP57745.1&lt;/b&gt;&lt;br&gt;DepA&lt;br&gt;Location: 5034 - 10127" locus_tag="ABP57745.1" class="clusterblast-orf" id="dummy-2_h2_4_7"  />
</g>
<g id="a2_008"  >
<polygon points="238,90 303,90 308,85 303,80 238,80 238,90 " style="fill:white; stroke-width:1; stroke:black; " description="&lt;b&gt;ABP57746.1&lt;/b&gt;&lt;br&gt;DepB&lt;br&gt;Location: 10127 - 14788" locus_tag="ABP57746.1" class="clusterblast-orf" id="dummy-2_h2_4_8"  />
</g>
<g id="a2_009"  >
<polygon points="308,90 356,90 361,85 356,80 308,80 308,90 " style="fill:white; stroke-width:1; stroke:black; " description="&lt;b&gt;ABP57747.1&lt;/b&gt;&lt;br&gt;DepC&lt;br&gt;Location: 14785 - 18336" locus_tag="ABP57747.1" class="clusterblast-orf" id="dummy-2_h2_4_9"  />
</g>
<g id="a2_0010"  >
<polygon points="361,90 494,90 499,85 494,80 361,80 361,90 " style="fill:white; stroke-width:1; stroke:black; " description="&lt;b&gt;ABP57748.1&lt;/b&gt;&lt;br&gt;DepD&lt;br&gt;Location: 18333 - 27506" locus_tag="ABP57748.1" class="clusterblast-orf" id="dummy-2_h2_4_10"  />
</g>
<g id="a2_0011"  >
<polygon points="499,90 579,90 584,85 579,80 499,80 499,90 " style="fill:white; stroke-width:1; stroke:black; " description="&lt;b&gt;ABP57749.1&lt;/b&gt;&lt;br&gt;DepE&lt;br&gt;Location: 27503 - 33181" locus_tag="ABP57749.1" class="clusterblast-orf" id="dummy-2_h2_4_11"  />
</g>
<g id="a2_0012"  >
<polygon points="584,90 596,90 601,85 596,80 584,80 584,90 " style="fill:white; stroke-width:1; stroke:black; " description="&lt;b&gt;ABP57750.1&lt;/b&gt;&lt;br&gt;DepF&lt;br&gt;Location: 33178 - 34350" locus_tag="ABP57750.1" class="clusterblast-orf" id="dummy-2_h2_4_12"  />
</g>
<g id="a2_0013"  >
<polygon points="601,90 611,90 616,85 611,80 601,80 601,90 " style="fill:white; stroke-width:1; stroke:black; " description="&lt;b&gt;ABP57751.1&lt;/b&gt;&lt;br&gt;DepG&lt;br&gt;Location: 34347 - 35312" locus_tag="ABP57751.1" class="clusterblast-orf" id="dummy-2_h2_4_13"  />
</g>
<g id="a2_0014"  >
<polygon points="616,90 625,90 630,85 625,80 616,80 616,90 " style="fill:white; stroke-width:1; stroke:black; " description="&lt;b&gt;ABP57752.1&lt;/b&gt;&lt;br&gt;DepH&lt;br&gt;Location: 35309 - 36268" locus_tag="ABP57752.1" class="clusterblast-orf" id="dummy-2_h2_4_14"  />
</g>
<g id="a2_0015"  >
<polygon points="631,90 640,90 645,85 640,80 631,80 631,90 " style="fill:white; stroke-width:1; stroke:black; " description="&lt;b&gt;ABP57753.1&lt;/b&gt;&lt;br&gt;DepI&lt;br&gt;Location: 36324 - 37238" locus_tag="ABP57753.1" class="clusterblast-orf" id="dummy-2_h2_4_15"  />
</g>
<g id="a2_0016"  >
<polygon points="645,90 651,90 656,85 651,80 645,80 645,90 " style="fill:white; stroke-width:1; stroke:black; " description="&lt;b&gt;ABP57754.1&lt;/b&gt;&lt;br&gt;DepJ&lt;br&gt;Location: 37235 - 37999" locus_tag="ABP57754.1" class="clusterblast-orf" id="dummy-2_h2_4_16"  />
</g>
<g id="a2_0017"  >
<polygon points="657,85 662,80 671,80 671,90 662,90 657,85 " style="fill:white; stroke-width:1; stroke:black; " description="&lt;b&gt;ABP57755.1&lt;/b&gt;&lt;br&gt;hydrogen peroxid-inducible genes activator OxyR&lt;br&gt;Location: 38068 - 39006" locus_tag="ABP57755.1" class="clusterblast-orf" id="dummy-2_h2_4_17"  />
</g>
<g id="a2_0018"  >
<polygon points="671,85 675,80 675,90 671,85 " style="fill:#4315d8; stroke-width:1; stroke:black; " description="&lt;b&gt;ABP57756.1&lt;/b&gt;&lt;br&gt;cell division topological specificity factor MinE&lt;br&gt;Location: 39010 - 39267&lt;br&gt;&lt;br&gt;&lt;b&gt;BlastP hit with ctg2_348&lt;/b&gt;&lt;br&gt;Percentage identity: 57&lt;br&gt;Percentage coverage: 88&lt;br&gt;BLAST bit score: 91&lt;br&gt;E-value: 2.23e-25" locus_tag="ABP57756.1" class="clusterblast-orf" id="dummy-2_h2_4_18"  />
</g>
<g id="a2_0019"  >
<polygon points="675,85 680,80 687,80 687,90 680,90 675,85 " style="fill:#d8155a; stroke-width:1; stroke:black; " description="&lt;b&gt;ABP57757.1&lt;/b&gt;&lt;br&gt;septum site-determining protein MinD&lt;br&gt;Location: 39271 - 40083&lt;br&gt;&lt;br&gt;&lt;b&gt;BlastP hit with ctg2_349&lt;/b&gt;&lt;br&gt;Percentage identity: 71&lt;br&gt;Percentage coverage: 100&lt;br&gt;BLAST bit score: 379&lt;br&gt;E-value: 1.42e-133" locus_tag="ABP57757.1" class="clusterblast-orf" id="dummy-2_h2_4_19"  />
</g>
<g id="a2_0020"  >
<polygon points="688,85 692,80 692,90 688,85 " style="fill:#88d815; stroke-width:1; stroke:black; " description="&lt;b&gt;ABP57758.1&lt;/b&gt;&lt;br&gt;septum formation inhibitor MinC&lt;br&gt;Location: 40110 - 40434&lt;br&gt;&lt;br&gt;&lt;b&gt;BlastP hit with ctg2_350&lt;/b&gt;&lt;br&gt;Percentage identity: 53&lt;br&gt;Percentage coverage: 43&lt;br&gt;BLAST bit score: 111&lt;br&gt;E-value: 3.91e-31" locus_tag="ABP57758.1" class="clusterblast-orf" id="dummy-2_h2_4_20"  />
</g>
</svg>
