<svg xmlns="http://www.w3.org/2000/svg" xmlns:xlink="http://www.w3.org/1999/xlink" version="1.1" x="0" y="0" height="230" width="800" viewBox="0 0 800 230" preserveAspectRatio="none"  >
<g label="Query sequence" class="clusterblast-cluster"  >
<text x="5" y="20" class="clusterblast-acc"  >
Query sequence</text>
<line x1="10" y1="35" x2="778.0" y2="35" style="stroke-width:1; stroke:grey; "  />
<polygon points="141,40 153,40 158,35 153,30 141,30 141,40 " style="fill:white; stroke-width:1; stroke:black; " description="&lt;b&gt;ctg8_95&lt;/b&gt;&lt;br&gt;ctg8 95&lt;br&gt;Location: 90148 - 91648" locus_tag="ctg8_95" class="clusterblast-orf" id="dummy-1_q0_0_all"  />
<polygon points="158,40 159,40 164,35 159,30 158,30 158,40 " style="fill:white; stroke-width:1; stroke:black; " description="&lt;b&gt;ctg8_96&lt;/b&gt;&lt;br&gt;ctg8 96&lt;br&gt;Location: 91619 - 92207" locus_tag="ctg8_96" class="clusterblast-orf" id="dummy-1_q1_0_all"  />
<polygon points="165,40 171,40 176,35 171,30 165,30 165,40 " style="fill:white; stroke-width:1; stroke:black; " description="&lt;b&gt;ctg8_97&lt;/b&gt;&lt;br&gt;ctg8 97&lt;br&gt;Location: 92317 - 93259" locus_tag="ctg8_97" class="clusterblast-orf" id="dummy-1_q2_0_all"  />
<polygon points="177,35 182,30 185,30 185,40 182,40 177,35 " style="fill:#d81515; stroke-width:1; stroke:black; " description="&lt;b&gt;ctg8_98&lt;/b&gt;&lt;br&gt;ctg8 98&lt;br&gt;Location: 93320 - 94076" locus_tag="ctg8_98" class="clusterblast-orf" id="dummy-1_q3_0_all"  />
<polygon points="185,35 190,30 194,30 194,40 190,40 185,35 " style="fill:#4dd815; stroke-width:1; stroke:black; " description="&lt;b&gt;ctg8_99&lt;/b&gt;&lt;br&gt;ctg8 99&lt;br&gt;Location: 94065 - 94869" locus_tag="ctg8_99" class="clusterblast-orf" id="dummy-1_q4_0_all"  />
<polygon points="194,35 199,30 204,30 204,40 199,40 194,35 " style="fill:#1585d8; stroke-width:1; stroke:black; " description="&lt;b&gt;ctg8_100&lt;/b&gt;&lt;br&gt;ctg8 100&lt;br&gt;Location: 94861 - 95683" locus_tag="ctg8_100" class="clusterblast-orf" id="dummy-1_q5_0_all"  />
<polygon points="204,35 208,30 208,40 204,35 " style="fill:white; stroke-width:1; stroke:black; " description="&lt;b&gt;ctg8_101&lt;/b&gt;&lt;br&gt;ctg8 101&lt;br&gt;Location: 95695 - 96061" locus_tag="ctg8_101" class="clusterblast-orf" id="dummy-1_q6_0_all"  />
<polygon points="208,35 213,30 223,30 223,40 213,40 208,35 " style="fill:white; stroke-width:1; stroke:black; " description="&lt;b&gt;ctg8_102&lt;/b&gt;&lt;br&gt;ctg8 102&lt;br&gt;Location: 96090 - 97389" locus_tag="ctg8_102" class="clusterblast-orf" id="dummy-1_q7_0_all"  />
<polygon points="225,40 225,40 230,35 225,30 225,30 225,40 " style="fill:white; stroke-width:1; stroke:black; " description="&lt;b&gt;ctg8_103&lt;/b&gt;&lt;br&gt;ctg8 103&lt;br&gt;Location: 97597 - 98020" locus_tag="ctg8_103" class="clusterblast-orf" id="dummy-1_q8_0_all"  />
<polygon points="231,35 236,30 240,30 240,40 236,40 231,35 " style="fill:white; stroke-width:1; stroke:black; " description="&lt;b&gt;ctg8_104&lt;/b&gt;&lt;br&gt;ctg8 104&lt;br&gt;Location: 98145 - 98946" locus_tag="ctg8_104" class="clusterblast-orf" id="dummy-1_q9_0_all"  />
<polygon points="241,35 246,30 250,30 250,40 246,40 241,35 " style="fill:white; stroke-width:1; stroke:black; " description="&lt;b&gt;ctg8_105&lt;/b&gt;&lt;br&gt;ctg8 105&lt;br&gt;Location: 98961 - 99765" locus_tag="ctg8_105" class="clusterblast-orf" id="dummy-1_q10_0_all"  />
<polygon points="250,35 255,30 265,30 265,40 255,40 250,35 " style="fill:#d815bc; stroke-width:1; stroke:black; " description="&lt;b&gt;ctg8_106&lt;/b&gt;&lt;br&gt;ctg8 106&lt;br&gt;Location: 99776 - 101081" locus_tag="ctg8_106" class="clusterblast-orf" id="dummy-1_q11_0_all"  />
<polygon points="265,35 270,30 270,30 270,40 270,40 265,35 " style="fill:white; stroke-width:1; stroke:black; " description="&lt;b&gt;ctg8_107&lt;/b&gt;&lt;br&gt;ctg8 107&lt;br&gt;Location: 101126 - 101519" locus_tag="ctg8_107" class="clusterblast-orf" id="dummy-1_q12_0_all"  />
<polygon points="270,35 275,30 279,30 279,40 275,40 270,35 " style="fill:white; stroke-width:1; stroke:black; " description="&lt;b&gt;ctg8_108&lt;/b&gt;&lt;br&gt;ctg8 108&lt;br&gt;Location: 101534 - 102392" locus_tag="ctg8_108" class="clusterblast-orf" id="dummy-1_q13_0_all"  />
<polygon points="280,35 285,30 297,30 297,40 285,40 280,35 " style="fill:white; stroke-width:1; stroke:black; " description="&lt;b&gt;ctg8_109&lt;/b&gt;&lt;br&gt;ctg8 109&lt;br&gt;Location: 102438 - 103899" locus_tag="ctg8_109" class="clusterblast-orf" id="dummy-1_q14_0_all"  />
<polygon points="297,35 302,30 305,30 305,40 302,40 297,35 " style="fill:white; stroke-width:1; stroke:black; " description="&lt;b&gt;ctg8_110&lt;/b&gt;&lt;br&gt;ctg8 110&lt;br&gt;Location: 103904 - 104675" locus_tag="ctg8_110" class="clusterblast-orf" id="dummy-1_q15_0_all"  />
<polygon points="305,35 310,30 313,30 313,40 310,40 305,35 " style="fill:white; stroke-width:1; stroke:black; " description="&lt;b&gt;ctg8_111&lt;/b&gt;&lt;br&gt;ctg8 111&lt;br&gt;Location: 104671 - 105337" locus_tag="ctg8_111" class="clusterblast-orf" id="dummy-1_q16_0_all"  />
<polygon points="314,40 319,40 324,35 319,30 314,30 314,40 " style="fill:white; stroke-width:1; stroke:black; " description="&lt;b&gt;ctg8_112&lt;/b&gt;&lt;br&gt;ctg8 112&lt;br&gt;Location: 105465 - 106326" locus_tag="ctg8_112" class="clusterblast-orf" id="dummy-1_q17_0_all"  />
<polygon points="323,35 328,30 340,30 340,40 328,40 323,35 " style="fill:#d8bc15; stroke-width:1; stroke:black; " description="&lt;b&gt;ctg8_113&lt;/b&gt;&lt;br&gt;ctg8 113&lt;br&gt;Location: 106252 - 107722" locus_tag="ctg8_113" class="clusterblast-orf" id="dummy-1_q18_0_all"  />
<polygon points="340,35 345,30 349,30 349,40 345,40 340,35 " style="fill:#15d885; stroke-width:1; stroke:black; " description="&lt;b&gt;ctg8_114&lt;/b&gt;&lt;br&gt;ctg8 114&lt;br&gt;Location: 107721 - 108516" locus_tag="ctg8_114" class="clusterblast-orf" id="dummy-1_q19_0_all"  />
<polygon points="354,40 420,40 425,35 420,30 354,30 354,40 " style="fill:#4d15d8; stroke-width:1; stroke:black; " description="&lt;b&gt;ctg8_115&lt;/b&gt;&lt;br&gt;ctg8 115&lt;br&gt;Location: 109003 - 115273" locus_tag="ctg8_115" class="clusterblast-orf" id="dummy-1_q20_0_all"  />
<polygon points="437,40 439,35 437,30 437,40 " style="fill:white; stroke-width:1; stroke:black; " description="&lt;b&gt;ctg8_116&lt;/b&gt;&lt;br&gt;ctg8 116&lt;br&gt;Location: 116328 - 116496" locus_tag="ctg8_116" class="clusterblast-orf" id="dummy-1_q21_0_all"  />
<polygon points="440,40 445,40 450,35 445,30 440,30 440,40 " style="fill:white; stroke-width:1; stroke:black; " description="&lt;b&gt;ctg8_117&lt;/b&gt;&lt;br&gt;ctg8 117&lt;br&gt;Location: 116590 - 117448" locus_tag="ctg8_117" class="clusterblast-orf" id="dummy-1_q22_0_all"  />
<polygon points="450,40 454,40 459,35 454,30 450,30 450,40 " style="fill:white; stroke-width:1; stroke:black; " description="&lt;b&gt;ctg8_118&lt;/b&gt;&lt;br&gt;ctg8 118&lt;br&gt;Location: 117444 - 118251" locus_tag="ctg8_118" class="clusterblast-orf" id="dummy-1_q23_0_all"  />
<polygon points="459,40 467,40 472,35 467,30 459,30 459,40 " style="fill:white; stroke-width:1; stroke:black; " description="&lt;b&gt;ctg8_119&lt;/b&gt;&lt;br&gt;ctg8 119&lt;br&gt;Location: 118237 - 119431" locus_tag="ctg8_119" class="clusterblast-orf" id="dummy-1_q24_0_all"  />
<polygon points="472,40 476,40 481,35 476,30 472,30 472,40 " style="fill:white; stroke-width:1; stroke:black; " description="&lt;b&gt;ctg8_120&lt;/b&gt;&lt;br&gt;ctg8 120&lt;br&gt;Location: 119439 - 120192" locus_tag="ctg8_120" class="clusterblast-orf" id="dummy-1_q25_0_all"  />
<polygon points="481,40 484,40 489,35 484,30 481,30 481,40 " style="fill:white; stroke-width:1; stroke:black; " description="&lt;b&gt;ctg8_121&lt;/b&gt;&lt;br&gt;ctg8 121&lt;br&gt;Location: 120191 - 120905" locus_tag="ctg8_121" class="clusterblast-orf" id="dummy-1_q26_0_all"  />
<polygon points="489,35 494,30 506,30 506,40 494,40 489,35 " style="fill:white; stroke-width:1; stroke:black; " description="&lt;b&gt;ctg8_122&lt;/b&gt;&lt;br&gt;ctg8 122&lt;br&gt;Location: 120926 - 122444" locus_tag="ctg8_122" class="clusterblast-orf" id="dummy-1_q27_0_all"  />
<polygon points="507,35 512,30 525,30 525,40 512,40 507,35 " style="fill:white; stroke-width:1; stroke:black; " description="&lt;b&gt;ctg8_123&lt;/b&gt;&lt;br&gt;ctg8 123&lt;br&gt;Location: 122470 - 124126" locus_tag="ctg8_123" class="clusterblast-orf" id="dummy-1_q28_0_all"  />
<polygon points="527,35 532,30 535,30 535,40 532,40 527,35 " style="fill:white; stroke-width:1; stroke:black; " description="&lt;b&gt;ctg8_124&lt;/b&gt;&lt;br&gt;ctg8 124&lt;br&gt;Location: 124315 - 124990" locus_tag="ctg8_124" class="clusterblast-orf" id="dummy-1_q29_0_all"  />
<polygon points="538,40 541,40 546,35 541,30 538,30 538,40 " style="fill:white; stroke-width:1; stroke:black; " description="&lt;b&gt;ctg8_125&lt;/b&gt;&lt;br&gt;ctg8 125&lt;br&gt;Location: 125264 - 125933" locus_tag="ctg8_125" class="clusterblast-orf" id="dummy-1_q30_0_all"  />
<polygon points="545,40 569,40 574,35 569,30 545,30 545,40 " style="fill:white; stroke-width:1; stroke:black; " description="&lt;b&gt;ctg8_126&lt;/b&gt;&lt;br&gt;ctg8 126&lt;br&gt;Location: 125901 - 128397" locus_tag="ctg8_126" class="clusterblast-orf" id="dummy-1_q31_0_all"  />
<polygon points="574,40 581,40 586,35 581,30 574,30 574,40 " style="fill:white; stroke-width:1; stroke:black; " description="&lt;b&gt;ctg8_127&lt;/b&gt;&lt;br&gt;ctg8 127&lt;br&gt;Location: 128386 - 129451" locus_tag="ctg8_127" class="clusterblast-orf" id="dummy-1_q32_0_all"  />
<polygon points="587,40 599,40 604,35 599,30 587,30 587,40 " style="fill:white; stroke-width:1; stroke:black; " description="&lt;b&gt;ctg8_128&lt;/b&gt;&lt;br&gt;ctg8 128&lt;br&gt;Location: 129601 - 131044" locus_tag="ctg8_128" class="clusterblast-orf" id="dummy-1_q33_0_all"  />
<polygon points="604,35 609,30 617,30 617,40 609,40 604,35 " style="fill:white; stroke-width:1; stroke:black; " description="&lt;b&gt;ctg8_129&lt;/b&gt;&lt;br&gt;ctg8 129&lt;br&gt;Location: 131094 - 132195" locus_tag="ctg8_129" class="clusterblast-orf" id="dummy-1_q34_0_all"  />
<polygon points="617,35 622,30 624,30 624,40 622,40 617,35 " style="fill:white; stroke-width:1; stroke:black; " description="&lt;b&gt;ctg8_130&lt;/b&gt;&lt;br&gt;ctg8 130&lt;br&gt;Location: 132197 - 132869" locus_tag="ctg8_130" class="clusterblast-orf" id="dummy-1_q35_0_all"  />
<polygon points="628,40 633,40 638,35 633,30 628,30 628,40 " style="fill:white; stroke-width:1; stroke:black; " description="&lt;b&gt;ctg8_131&lt;/b&gt;&lt;br&gt;ctg8 131&lt;br&gt;Location: 133186 - 134110" locus_tag="ctg8_131" class="clusterblast-orf" id="dummy-1_q36_0_all"  />
</g>
<g label="BGC0000447" description="BGC0000447_c1: tolaasin I/tolaasin F (60% of genes show similarity), NRP:Lipopeptide" class="clusterblast-cluster"  >
<text x="5" y="70" class="clusterblast-acc"  >
<a xlink:href="https://mibig.secondarymetabolites.org/go/BGC0000447/1" target="_blank">BGC0000447</a>: tolaasin I/tolaasin F                                                            (60% of genes show similarity), NRP:Lipopeptide</text>
<line x1="10" y1="85" x2="778.0" y2="85" style="stroke-width:1; stroke:grey; "  />
</g>
<g id="a1_000"  >
<polygon points="0,85 5,80 16,80 16,90 5,90 0,85 " style="fill:#d8bc15; stroke-width:1; stroke:black; " description="&lt;b&gt;CCJ67633.1&lt;/b&gt;&lt;br&gt;multidrug/solvent efflux pump outer membrane protein mepC&lt;br&gt;Location: 1 - 1440&lt;br&gt;&lt;br&gt;&lt;b&gt;BlastP hit with ctg8_113&lt;/b&gt;&lt;br&gt;Percentage identity: 73&lt;br&gt;Percentage coverage: 98&lt;br&gt;BLAST bit score: 659&lt;br&gt;E-value: 2.27e-237" locus_tag="CCJ67633.1" class="clusterblast-orf" id="dummy-1_h1_9_0"  />
</g>
<g id="a1_001"  >
<polygon points="16,85 21,80 26,80 26,90 21,90 16,85 " style="fill:#15d885; stroke-width:1; stroke:black; " description="&lt;b&gt;CCJ67634.1&lt;/b&gt;&lt;br&gt;bacterial regulatory, luxR family protein&lt;br&gt;Location: 1503 - 2384&lt;br&gt;&lt;br&gt;&lt;b&gt;BlastP hit with ctg8_114&lt;/b&gt;&lt;br&gt;Percentage identity: 55&lt;br&gt;Percentage coverage: 102&lt;br&gt;BLAST bit score: 269&lt;br&gt;E-value: 4.73e-90" locus_tag="CCJ67634.1" class="clusterblast-orf" id="dummy-1_h1_9_1"  />
</g>
<g id="a1_002"  >
<polygon points="29,90 44,90 49,85 44,80 29,80 29,90 " style="fill:white; stroke-width:1; stroke:black; " description="&lt;b&gt;CCJ67635.1&lt;/b&gt;&lt;br&gt;cyclic peptide transporter family protein&lt;br&gt;Location: 2636 - 4333" locus_tag="CCJ67635.1" class="clusterblast-orf" id="dummy-1_h1_9_2"  />
</g>
<g id="a1_003"  >
<polygon points="54,90 158,90 163,85 158,80 54,80 54,90 " style="fill:#4d15d8; stroke-width:1; stroke:black; " description="&lt;b&gt;CCJ67636.1&lt;/b&gt;&lt;br&gt;TaaA&lt;br&gt;Location: 4795 - 14454&lt;br&gt;&lt;br&gt;&lt;b&gt;BlastP hit with ctg8_115&lt;/b&gt;&lt;br&gt;Percentage identity: 51&lt;br&gt;Percentage coverage: 103&lt;br&gt;BLAST bit score: 1936&lt;br&gt;E-value: 0.0" locus_tag="CCJ67636.1" class="clusterblast-orf" id="dummy-1_h1_9_3"  />
</g>
<g id="a1_004"  >
<polygon points="163,90 269,90 274,85 269,80 163,80 163,90 " style="fill:#4d15d8; stroke-width:1; stroke:black; " description="&lt;b&gt;CCJ67637.1&lt;/b&gt;&lt;br&gt;TaaB&lt;br&gt;Location: 14451 - 24293&lt;br&gt;&lt;br&gt;&lt;b&gt;BlastP hit with ctg8_115&lt;/b&gt;&lt;br&gt;Percentage identity: 47&lt;br&gt;Percentage coverage: 102&lt;br&gt;BLAST bit score: 1672&lt;br&gt;E-value: 0.0" locus_tag="CCJ67637.1" class="clusterblast-orf" id="dummy-1_h1_9_4"  />
</g>
<g id="a1_005"  >
<polygon points="274,90 382,90 387,85 382,80 274,80 274,90 " style="fill:#4d15d8; stroke-width:1; stroke:black; " description="&lt;b&gt;CCJ67638.1&lt;/b&gt;&lt;br&gt;TaaC&lt;br&gt;Location: 24290 - 34258&lt;br&gt;&lt;br&gt;&lt;b&gt;BlastP hit with ctg8_115&lt;/b&gt;&lt;br&gt;Percentage identity: 51&lt;br&gt;Percentage coverage: 91&lt;br&gt;BLAST bit score: 1697&lt;br&gt;E-value: 0.0" locus_tag="CCJ67638.1" class="clusterblast-orf" id="dummy-1_h1_9_5"  />
</g>
<g id="a1_006"  >
<polygon points="387,90 495,90 500,85 495,80 387,80 387,90 " style="fill:#4d15d8; stroke-width:1; stroke:black; " description="&lt;b&gt;CCJ67639.1&lt;/b&gt;&lt;br&gt;TaaD&lt;br&gt;Location: 34255 - 44247&lt;br&gt;&lt;br&gt;&lt;b&gt;BlastP hit with ctg8_115&lt;/b&gt;&lt;br&gt;Percentage identity: 55&lt;br&gt;Percentage coverage: 82&lt;br&gt;BLAST bit score: 1739&lt;br&gt;E-value: 0.0" locus_tag="CCJ67639.1" class="clusterblast-orf" id="dummy-1_h1_9_6"  />
</g>
<g id="a1_007"  >
<polygon points="504,90 738,90 743,85 738,80 504,80 504,90 " style="fill:white; stroke-width:1; stroke:black; " description="&lt;b&gt;CCJ67640.1&lt;/b&gt;&lt;br&gt;TaaE&lt;br&gt;Location: 44558 - 65716" locus_tag="CCJ67640.1" class="clusterblast-orf" id="dummy-1_h1_9_7"  />
</g>
<g id="a1_008"  >
<polygon points="744,90 752,90 757,85 752,80 744,80 744,90 " style="fill:white; stroke-width:1; stroke:black; " description="&lt;b&gt;CCJ67641.1&lt;/b&gt;&lt;br&gt;macrolide-specific efflux protein macA&lt;br&gt;Location: 65838 - 66989" locus_tag="CCJ67641.1" class="clusterblast-orf" id="dummy-1_h1_9_8"  />
</g>
<g id="a1_009"  >
<polygon points="757,90 775,90 780,85 775,80 757,80 757,90 " style="fill:white; stroke-width:1; stroke:black; " description="&lt;b&gt;CCJ67642.1&lt;/b&gt;&lt;br&gt;macrolide export ATP-binding/permease protein MacB&lt;br&gt;Location: 66992 - 68950" locus_tag="CCJ67642.1" class="clusterblast-orf" id="dummy-1_h1_9_9"  />
</g>
</svg>
