<svg xmlns="http://www.w3.org/2000/svg" xmlns:xlink="http://www.w3.org/1999/xlink" version="1.1" x="0" y="0" height="230" width="800" viewBox="0 0 800 230" preserveAspectRatio="none"  >
<g label="Query sequence" class="clusterblast-cluster"  >
<text x="5" y="20" class="clusterblast-acc"  >
Query sequence</text>
<line x1="10" y1="35" x2="778.0" y2="35" style="stroke-width:1; stroke:grey; "  />
<polygon points="0,40 3,40 8,35 3,30 0,30 0,40 " style="fill:white; stroke-width:1; stroke:black; " description="&lt;b&gt;ctg24_1&lt;/b&gt;&lt;br&gt;ctg24 1&lt;br&gt;Location: 518 - 1103" locus_tag="ctg24_1" class="clusterblast-orf" id="dummy-1_q0_0_all"  />
<polygon points="11,35 16,30 21,30 21,40 16,40 11,35 " style="fill:white; stroke-width:1; stroke:black; " description="&lt;b&gt;ctg24_2&lt;/b&gt;&lt;br&gt;ctg24 2&lt;br&gt;Location: 1304 - 2051" locus_tag="ctg24_2" class="clusterblast-orf" id="dummy-1_q1_0_all"  />
<polygon points="22,35 27,30 28,30 28,40 27,40 22,35 " style="fill:white; stroke-width:1; stroke:black; " description="&lt;b&gt;ctg24_3&lt;/b&gt;&lt;br&gt;ctg24 3&lt;br&gt;Location: 2121 - 2514" locus_tag="ctg24_3" class="clusterblast-orf" id="dummy-1_q2_0_all"  />
<polygon points="28,35 33,30 38,30 38,40 33,40 28,35 " style="fill:white; stroke-width:1; stroke:black; " description="&lt;b&gt;ctg24_4&lt;/b&gt;&lt;br&gt;ctg24 4&lt;br&gt;Location: 2510 - 3215" locus_tag="ctg24_4" class="clusterblast-orf" id="dummy-1_q3_0_all"  />
<polygon points="38,35 41,30 41,40 38,35 " style="fill:white; stroke-width:1; stroke:black; " description="&lt;b&gt;ctg24_5&lt;/b&gt;&lt;br&gt;ctg24 5&lt;br&gt;Location: 3226 - 3415" locus_tag="ctg24_5" class="clusterblast-orf" id="dummy-1_q4_0_all"  />
<polygon points="60,40 70,40 75,35 70,30 60,30 60,40 " style="fill:white; stroke-width:1; stroke:black; " description="&lt;b&gt;ctg24_6&lt;/b&gt;&lt;br&gt;ctg24 6&lt;br&gt;Location: 4786 - 5848" locus_tag="ctg24_6" class="clusterblast-orf" id="dummy-1_q5_0_all"  />
<polygon points="75,40 123,40 128,35 123,30 75,30 75,40 " style="fill:white; stroke-width:1; stroke:black; " description="&lt;b&gt;ctg24_7&lt;/b&gt;&lt;br&gt;ctg24 7&lt;br&gt;Location: 5851 - 9613" locus_tag="ctg24_7" class="clusterblast-orf" id="dummy-1_q6_0_all"  />
<polygon points="128,40 137,40 142,35 137,30 128,30 128,40 " style="fill:white; stroke-width:1; stroke:black; " description="&lt;b&gt;ctg24_8&lt;/b&gt;&lt;br&gt;ctg24 8&lt;br&gt;Location: 9612 - 10611" locus_tag="ctg24_8" class="clusterblast-orf" id="dummy-1_q7_0_all"  />
<polygon points="144,40 147,40 152,35 147,30 144,30 144,40 " style="fill:white; stroke-width:1; stroke:black; " description="&lt;b&gt;ctg24_9&lt;/b&gt;&lt;br&gt;ctg24 9&lt;br&gt;Location: 10730 - 11276" locus_tag="ctg24_9" class="clusterblast-orf" id="dummy-1_q8_0_all"  />
<polygon points="155,40 332,40 337,35 332,30 155,30 155,40 " style="fill:#d81515; stroke-width:1; stroke:black; " description="&lt;b&gt;ctg24_10&lt;/b&gt;&lt;br&gt;ctg24 10&lt;br&gt;Location: 11484 - 24396" locus_tag="ctg24_10" class="clusterblast-orf" id="dummy-1_q9_0_all"  />
<polygon points="337,40 492,40 497,35 492,30 337,30 337,40 " style="fill:#d81515; stroke-width:1; stroke:black; " description="&lt;b&gt;ctg24_11&lt;/b&gt;&lt;br&gt;ctg24 11&lt;br&gt;Location: 24392 - 35729" locus_tag="ctg24_11" class="clusterblast-orf" id="dummy-1_q10_0_all"  />
<polygon points="497,40 508,40 513,35 508,30 497,30 497,40 " style="fill:#3cd815; stroke-width:1; stroke:black; " description="&lt;b&gt;ctg24_12&lt;/b&gt;&lt;br&gt;ctg24 12&lt;br&gt;Location: 35725 - 36868" locus_tag="ctg24_12" class="clusterblast-orf" id="dummy-1_q11_0_all"  />
<polygon points="513,40 536,40 541,35 536,30 513,30 513,40 " style="fill:#1563d8; stroke-width:1; stroke:black; " description="&lt;b&gt;ctg24_13&lt;/b&gt;&lt;br&gt;ctg24 13&lt;br&gt;Location: 36871 - 38830" locus_tag="ctg24_13" class="clusterblast-orf" id="dummy-1_q12_0_all"  />
<polygon points="543,35 548,30 552,30 552,40 548,40 543,35 " style="fill:#b115d8; stroke-width:1; stroke:black; " description="&lt;b&gt;ctg24_14&lt;/b&gt;&lt;br&gt;ctg24 14&lt;br&gt;Location: 38957 - 39635" locus_tag="ctg24_14" class="clusterblast-orf" id="dummy-1_q13_0_all"  />
<polygon points="556,35 561,30 573,30 573,40 561,40 556,35 " style="fill:#d88a15; stroke-width:1; stroke:black; " description="&lt;b&gt;ctg24_15&lt;/b&gt;&lt;br&gt;ctg24 15&lt;br&gt;Location: 39867 - 41112" locus_tag="ctg24_15" class="clusterblast-orf" id="dummy-1_q14_0_all"  />
<polygon points="575,40 577,40 582,35 577,30 575,30 575,40 " style="fill:#15d863; stroke-width:1; stroke:black; " description="&lt;b&gt;ctg24_16&lt;/b&gt;&lt;br&gt;ctg24 16&lt;br&gt;Location: 41235 - 41706" locus_tag="ctg24_16" class="clusterblast-orf" id="dummy-1_q15_0_all"  />
<polygon points="583,35 588,30 594,30 594,40 588,40 583,35 " style="fill:white; stroke-width:1; stroke:black; " description="&lt;b&gt;ctg24_17&lt;/b&gt;&lt;br&gt;ctg24 17&lt;br&gt;Location: 41784 - 42555" locus_tag="ctg24_17" class="clusterblast-orf" id="dummy-1_q16_0_all"  />
<polygon points="595,40 606,40 611,35 606,30 595,30 595,40 " style="fill:white; stroke-width:1; stroke:black; " description="&lt;b&gt;ctg24_18&lt;/b&gt;&lt;br&gt;ctg24 18&lt;br&gt;Location: 42653 - 43784" locus_tag="ctg24_18" class="clusterblast-orf" id="dummy-1_q17_0_all"  />
<polygon points="611,35 616,30 641,30 641,40 616,40 611,35 " style="fill:#3c15d8; stroke-width:1; stroke:black; " description="&lt;b&gt;ctg24_19&lt;/b&gt;&lt;br&gt;ctg24 19&lt;br&gt;Location: 43773 - 45915" locus_tag="ctg24_19" class="clusterblast-orf" id="dummy-1_q18_0_all"  />
<polygon points="642,35 647,30 654,30 654,40 647,40 642,35 " style="fill:#d8158a; stroke-width:1; stroke:black; " description="&lt;b&gt;ctg24_20&lt;/b&gt;&lt;br&gt;ctg24 20&lt;br&gt;Location: 46020 - 46818" locus_tag="ctg24_20" class="clusterblast-orf" id="dummy-1_q19_0_all"  />
<polygon points="657,40 671,40 676,35 671,30 657,30 657,40 " style="fill:white; stroke-width:1; stroke:black; " description="&lt;b&gt;ctg24_21&lt;/b&gt;&lt;br&gt;ctg24 21&lt;br&gt;Location: 47055 - 48414" locus_tag="ctg24_21" class="clusterblast-orf" id="dummy-1_q20_0_all"  />
<polygon points="677,40 687,40 692,35 687,30 677,30 677,40 " style="fill:#b1d815; stroke-width:1; stroke:black; " description="&lt;b&gt;ctg24_22&lt;/b&gt;&lt;br&gt;ctg24 22&lt;br&gt;Location: 48436 - 49525" locus_tag="ctg24_22" class="clusterblast-orf" id="dummy-1_q21_0_all"  />
<polygon points="692,40 705,40 710,35 705,30 692,30 692,40 " style="fill:#15d8d8; stroke-width:1; stroke:black; " description="&lt;b&gt;ctg24_23&lt;/b&gt;&lt;br&gt;ctg24 23&lt;br&gt;Location: 49521 - 50817" locus_tag="ctg24_23" class="clusterblast-orf" id="dummy-1_q22_0_all"  />
<polygon points="712,35 717,30 725,30 725,40 717,40 712,35 " style="fill:white; stroke-width:1; stroke:black; " description="&lt;b&gt;ctg24_24&lt;/b&gt;&lt;br&gt;ctg24 24&lt;br&gt;Location: 50934 - 51828" locus_tag="ctg24_24" class="clusterblast-orf" id="dummy-1_q23_0_all"  />
<polygon points="726,40 735,40 740,35 735,30 726,30 726,40 " style="fill:white; stroke-width:1; stroke:black; " description="&lt;b&gt;ctg24_25&lt;/b&gt;&lt;br&gt;ctg24 25&lt;br&gt;Location: 51941 - 52946" locus_tag="ctg24_25" class="clusterblast-orf" id="dummy-1_q24_0_all"  />
<polygon points="741,40 747,40 752,35 747,30 741,30 741,40 " style="fill:white; stroke-width:1; stroke:black; " description="&lt;b&gt;ctg24_26&lt;/b&gt;&lt;br&gt;ctg24 26&lt;br&gt;Location: 52961 - 53759" locus_tag="ctg24_26" class="clusterblast-orf" id="dummy-1_q25_0_all"  />
<polygon points="753,40 753,40 758,35 753,30 753,30 753,40 " style="fill:white; stroke-width:1; stroke:black; " description="&lt;b&gt;ctg24_27&lt;/b&gt;&lt;br&gt;ctg24 27&lt;br&gt;Location: 53843 - 54203" locus_tag="ctg24_27" class="clusterblast-orf" id="dummy-1_q26_0_all"  />
<polygon points="760,35 765,30 780,30 780,40 765,40 760,35 " style="fill:white; stroke-width:1; stroke:black; " description="&lt;b&gt;ctg24_28&lt;/b&gt;&lt;br&gt;ctg24 28&lt;br&gt;Location: 54335 - 55727" locus_tag="ctg24_28" class="clusterblast-orf" id="dummy-1_q27_0_all"  />
</g>
<g label="BGC0001838" description="BGC0001838_c1: WLIP (57% of genes show similarity), NRP" class="clusterblast-cluster"  >
<text x="5" y="70" class="clusterblast-acc"  >
<a xlink:href="https://mibig.secondarymetabolites.org/go/BGC0001838/1" target="_blank">BGC0001838</a>: WLIP                                                                             (57% of genes show similarity), NRP</text>
<line x1="10" y1="85" x2="778.0" y2="85" style="stroke-width:1; stroke:grey; "  />
</g>
<g id="a1_000"  >
<polygon points="172,85 177,80 187,80 187,90 177,90 172,85 " style="fill:white; stroke-width:1; stroke:black; " description="&lt;b&gt;AFJ23822.1&lt;/b&gt;&lt;br&gt;sigma-54-dependent transcriptional regulator&lt;br&gt;Location: 119 - 1234" locus_tag="AFJ23822.1" class="clusterblast-orf" id="dummy-1_h1_2_0"  />
</g>
<g id="a1_001"  >
<polygon points="188,85 193,80 204,80 204,90 193,90 188,85 " style="fill:white; stroke-width:1; stroke:black; " description="&lt;b&gt;AFJ23823.1&lt;/b&gt;&lt;br&gt;acyl-COA dehydrogenase&lt;br&gt;Location: 1245 - 2432" locus_tag="AFJ23823.1" class="clusterblast-orf" id="dummy-1_h1_2_1"  />
</g>
<g id="a1_002"  >
<polygon points="204,85 209,80 212,80 212,90 209,90 204,85 " style="fill:white; stroke-width:1; stroke:black; " description="&lt;b&gt;AFJ23824.1&lt;/b&gt;&lt;br&gt;FMN reductase&lt;br&gt;Location: 2442 - 3002" locus_tag="AFJ23824.1" class="clusterblast-orf" id="dummy-1_h1_2_2"  />
</g>
<g id="a1_003"  >
<polygon points="217,90 395,90 400,85 395,80 217,80 217,90 " style="fill:#d81515; stroke-width:1; stroke:black; " description="&lt;b&gt;AFJ23825.1&lt;/b&gt;&lt;br&gt;WLIP synthetase B&lt;br&gt;Location: 3354 - 16256&lt;br&gt;&lt;br&gt;&lt;b&gt;BlastP hit with ctg24_10&lt;/b&gt;&lt;br&gt;Percentage identity: 65&lt;br&gt;Percentage coverage: 101&lt;br&gt;BLAST bit score: 5418&lt;br&gt;E-value: 0.0" locus_tag="AFJ23825.1" class="clusterblast-orf" id="dummy-1_h1_2_3"  />
</g>
<g id="a1_004"  >
<polygon points="400,90 556,90 561,85 556,80 400,80 400,90 " style="fill:#d81515; stroke-width:1; stroke:black; " description="&lt;b&gt;AFJ23826.1&lt;/b&gt;&lt;br&gt;WLIP synthetase C&lt;br&gt;Location: 16253 - 27655&lt;br&gt;&lt;br&gt;&lt;b&gt;BlastP hit with ctg24_11&lt;/b&gt;&lt;br&gt;Percentage identity: 63&lt;br&gt;Percentage coverage: 101&lt;br&gt;BLAST bit score: 4520&lt;br&gt;E-value: 0.0" locus_tag="AFJ23826.1" class="clusterblast-orf" id="dummy-1_h1_2_4"  />
</g>
<g id="a1_005"  >
<polygon points="563,90 574,90 579,85 574,80 563,80 563,90 " style="fill:#3cd815; stroke-width:1; stroke:black; " description="&lt;b&gt;AFJ23827.1&lt;/b&gt;&lt;br&gt;MacA-like protein&lt;br&gt;Location: 27792 - 28949&lt;br&gt;&lt;br&gt;&lt;b&gt;BlastP hit with ctg24_12&lt;/b&gt;&lt;br&gt;Percentage identity: 72&lt;br&gt;Percentage coverage: 101&lt;br&gt;BLAST bit score: 505&lt;br&gt;E-value: 7.64e-180" locus_tag="AFJ23827.1" class="clusterblast-orf" id="dummy-1_h1_2_5"  />
</g>
<g id="a1_006"  >
<polygon points="579,90 602,90 607,85 602,80 579,80 579,90 " style="fill:#1563d8; stroke-width:1; stroke:black; " description="&lt;b&gt;AFJ23828.1&lt;/b&gt;&lt;br&gt;MacB-like ABC transporter protein&lt;br&gt;Location: 28946 - 30958&lt;br&gt;&lt;br&gt;&lt;b&gt;BlastP hit with ctg24_13&lt;/b&gt;&lt;br&gt;Percentage identity: 81&lt;br&gt;Percentage coverage: 100&lt;br&gt;BLAST bit score: 1008&lt;br&gt;E-value: 0.0" locus_tag="AFJ23828.1" class="clusterblast-orf" id="dummy-1_h1_2_6"  />
</g>
</svg>
