<svg xmlns="http://www.w3.org/2000/svg" xmlns:xlink="http://www.w3.org/1999/xlink" version="1.1" x="0" y="0" height="230" width="800" viewBox="0 0 800 230" preserveAspectRatio="none"  >
<g label="Query sequence" class="clusterblast-cluster"  >
<text x="5" y="20" class="clusterblast-acc"  >
Query sequence</text>
<line x1="10" y1="35" x2="778.0" y2="35" style="stroke-width:1; stroke:grey; "  />
<polygon points="0,40 21,40 26,35 21,30 0,30 0,40 " style="fill:white; stroke-width:1; stroke:black; " description="&lt;b&gt;ctg8_95&lt;/b&gt;&lt;br&gt;ctg8 95&lt;br&gt;Location: 90148 - 91648" locus_tag="ctg8_95" class="clusterblast-orf" id="dummy-1_q0_0_all"  />
<polygon points="26,40 31,40 36,35 31,30 26,30 26,40 " style="fill:white; stroke-width:1; stroke:black; " description="&lt;b&gt;ctg8_96&lt;/b&gt;&lt;br&gt;ctg8 96&lt;br&gt;Location: 91619 - 92207" locus_tag="ctg8_96" class="clusterblast-orf" id="dummy-1_q1_0_all"  />
<polygon points="38,40 50,40 55,35 50,30 38,30 38,40 " style="fill:white; stroke-width:1; stroke:black; " description="&lt;b&gt;ctg8_97&lt;/b&gt;&lt;br&gt;ctg8 97&lt;br&gt;Location: 92317 - 93259" locus_tag="ctg8_97" class="clusterblast-orf" id="dummy-1_q2_0_all"  />
<polygon points="56,35 61,30 69,30 69,40 61,40 56,35 " style="fill:#d81515; stroke-width:1; stroke:black; " description="&lt;b&gt;ctg8_98&lt;/b&gt;&lt;br&gt;ctg8 98&lt;br&gt;Location: 93320 - 94076" locus_tag="ctg8_98" class="clusterblast-orf" id="dummy-1_q3_0_all"  />
<polygon points="69,35 74,30 83,30 83,40 74,40 69,35 " style="fill:#4dd815; stroke-width:1; stroke:black; " description="&lt;b&gt;ctg8_99&lt;/b&gt;&lt;br&gt;ctg8 99&lt;br&gt;Location: 94065 - 94869" locus_tag="ctg8_99" class="clusterblast-orf" id="dummy-1_q4_0_all"  />
<polygon points="83,35 88,30 98,30 98,40 88,40 83,35 " style="fill:#1585d8; stroke-width:1; stroke:black; " description="&lt;b&gt;ctg8_100&lt;/b&gt;&lt;br&gt;ctg8 100&lt;br&gt;Location: 94861 - 95683" locus_tag="ctg8_100" class="clusterblast-orf" id="dummy-1_q5_0_all"  />
<polygon points="98,35 103,30 105,30 105,40 103,40 98,35 " style="fill:white; stroke-width:1; stroke:black; " description="&lt;b&gt;ctg8_101&lt;/b&gt;&lt;br&gt;ctg8 101&lt;br&gt;Location: 95695 - 96061" locus_tag="ctg8_101" class="clusterblast-orf" id="dummy-1_q6_0_all"  />
<polygon points="105,35 110,30 128,30 128,40 110,40 105,35 " style="fill:white; stroke-width:1; stroke:black; " description="&lt;b&gt;ctg8_102&lt;/b&gt;&lt;br&gt;ctg8 102&lt;br&gt;Location: 96090 - 97389" locus_tag="ctg8_102" class="clusterblast-orf" id="dummy-1_q7_0_all"  />
<polygon points="132,40 134,40 139,35 134,30 132,30 132,40 " style="fill:white; stroke-width:1; stroke:black; " description="&lt;b&gt;ctg8_103&lt;/b&gt;&lt;br&gt;ctg8 103&lt;br&gt;Location: 97597 - 98020" locus_tag="ctg8_103" class="clusterblast-orf" id="dummy-1_q8_0_all"  />
<polygon points="142,35 147,30 156,30 156,40 147,40 142,35 " style="fill:white; stroke-width:1; stroke:black; " description="&lt;b&gt;ctg8_104&lt;/b&gt;&lt;br&gt;ctg8 104&lt;br&gt;Location: 98145 - 98946" locus_tag="ctg8_104" class="clusterblast-orf" id="dummy-1_q9_0_all"  />
<polygon points="156,35 161,30 170,30 170,40 161,40 156,35 " style="fill:white; stroke-width:1; stroke:black; " description="&lt;b&gt;ctg8_105&lt;/b&gt;&lt;br&gt;ctg8 105&lt;br&gt;Location: 98961 - 99765" locus_tag="ctg8_105" class="clusterblast-orf" id="dummy-1_q10_0_all"  />
<polygon points="171,35 176,30 194,30 194,40 176,40 171,35 " style="fill:#d815bc; stroke-width:1; stroke:black; " description="&lt;b&gt;ctg8_106&lt;/b&gt;&lt;br&gt;ctg8 106&lt;br&gt;Location: 99776 - 101081" locus_tag="ctg8_106" class="clusterblast-orf" id="dummy-1_q11_0_all"  />
<polygon points="194,35 199,30 201,30 201,40 199,40 194,35 " style="fill:white; stroke-width:1; stroke:black; " description="&lt;b&gt;ctg8_107&lt;/b&gt;&lt;br&gt;ctg8 107&lt;br&gt;Location: 101126 - 101519" locus_tag="ctg8_107" class="clusterblast-orf" id="dummy-1_q12_0_all"  />
<polygon points="202,35 207,30 217,30 217,40 207,40 202,35 " style="fill:white; stroke-width:1; stroke:black; " description="&lt;b&gt;ctg8_108&lt;/b&gt;&lt;br&gt;ctg8 108&lt;br&gt;Location: 101534 - 102392" locus_tag="ctg8_108" class="clusterblast-orf" id="dummy-1_q13_0_all"  />
<polygon points="218,35 223,30 244,30 244,40 223,40 218,35 " style="fill:white; stroke-width:1; stroke:black; " description="&lt;b&gt;ctg8_109&lt;/b&gt;&lt;br&gt;ctg8 109&lt;br&gt;Location: 102438 - 103899" locus_tag="ctg8_109" class="clusterblast-orf" id="dummy-1_q14_0_all"  />
<polygon points="244,35 249,30 257,30 257,40 249,40 244,35 " style="fill:white; stroke-width:1; stroke:black; " description="&lt;b&gt;ctg8_110&lt;/b&gt;&lt;br&gt;ctg8 110&lt;br&gt;Location: 103904 - 104675" locus_tag="ctg8_110" class="clusterblast-orf" id="dummy-1_q15_0_all"  />
<polygon points="257,35 262,30 269,30 269,40 262,40 257,35 " style="fill:white; stroke-width:1; stroke:black; " description="&lt;b&gt;ctg8_111&lt;/b&gt;&lt;br&gt;ctg8 111&lt;br&gt;Location: 104671 - 105337" locus_tag="ctg8_111" class="clusterblast-orf" id="dummy-1_q16_0_all"  />
<polygon points="271,40 282,40 287,35 282,30 271,30 271,40 " style="fill:white; stroke-width:1; stroke:black; " description="&lt;b&gt;ctg8_112&lt;/b&gt;&lt;br&gt;ctg8 112&lt;br&gt;Location: 105465 - 106326" locus_tag="ctg8_112" class="clusterblast-orf" id="dummy-1_q17_0_all"  />
<polygon points="285,35 290,30 311,30 311,40 290,40 285,35 " style="fill:#d8bc15; stroke-width:1; stroke:black; " description="&lt;b&gt;ctg8_113&lt;/b&gt;&lt;br&gt;ctg8 113&lt;br&gt;Location: 106252 - 107722" locus_tag="ctg8_113" class="clusterblast-orf" id="dummy-1_q18_0_all"  />
<polygon points="311,35 316,30 326,30 326,40 316,40 311,35 " style="fill:#15d885; stroke-width:1; stroke:black; " description="&lt;b&gt;ctg8_114&lt;/b&gt;&lt;br&gt;ctg8 114&lt;br&gt;Location: 107721 - 108516" locus_tag="ctg8_114" class="clusterblast-orf" id="dummy-1_q19_0_all"  />
<polygon points="334,40 440,40 445,35 440,30 334,30 334,40 " style="fill:#4d15d8; stroke-width:1; stroke:black; " description="&lt;b&gt;ctg8_115&lt;/b&gt;&lt;br&gt;ctg8 115&lt;br&gt;Location: 109003 - 115273" locus_tag="ctg8_115" class="clusterblast-orf" id="dummy-1_q20_0_all"  />
<polygon points="464,40 467,35 464,30 464,40 " style="fill:white; stroke-width:1; stroke:black; " description="&lt;b&gt;ctg8_116&lt;/b&gt;&lt;br&gt;ctg8 116&lt;br&gt;Location: 116328 - 116496" locus_tag="ctg8_116" class="clusterblast-orf" id="dummy-1_q21_0_all"  />
<polygon points="469,40 479,40 484,35 479,30 469,30 469,40 " style="fill:white; stroke-width:1; stroke:black; " description="&lt;b&gt;ctg8_117&lt;/b&gt;&lt;br&gt;ctg8 117&lt;br&gt;Location: 116590 - 117448" locus_tag="ctg8_117" class="clusterblast-orf" id="dummy-1_q22_0_all"  />
<polygon points="484,40 493,40 498,35 493,30 484,30 484,40 " style="fill:white; stroke-width:1; stroke:black; " description="&lt;b&gt;ctg8_118&lt;/b&gt;&lt;br&gt;ctg8 118&lt;br&gt;Location: 117444 - 118251" locus_tag="ctg8_118" class="clusterblast-orf" id="dummy-1_q23_0_all"  />
<polygon points="498,40 514,40 519,35 514,30 498,30 498,40 " style="fill:white; stroke-width:1; stroke:black; " description="&lt;b&gt;ctg8_119&lt;/b&gt;&lt;br&gt;ctg8 119&lt;br&gt;Location: 118237 - 119431" locus_tag="ctg8_119" class="clusterblast-orf" id="dummy-1_q24_0_all"  />
<polygon points="519,40 528,40 533,35 528,30 519,30 519,40 " style="fill:white; stroke-width:1; stroke:black; " description="&lt;b&gt;ctg8_120&lt;/b&gt;&lt;br&gt;ctg8 120&lt;br&gt;Location: 119439 - 120192" locus_tag="ctg8_120" class="clusterblast-orf" id="dummy-1_q25_0_all"  />
<polygon points="533,40 540,40 545,35 540,30 533,30 533,40 " style="fill:white; stroke-width:1; stroke:black; " description="&lt;b&gt;ctg8_121&lt;/b&gt;&lt;br&gt;ctg8 121&lt;br&gt;Location: 120191 - 120905" locus_tag="ctg8_121" class="clusterblast-orf" id="dummy-1_q26_0_all"  />
<polygon points="546,35 551,30 573,30 573,40 551,40 546,35 " style="fill:white; stroke-width:1; stroke:black; " description="&lt;b&gt;ctg8_122&lt;/b&gt;&lt;br&gt;ctg8 122&lt;br&gt;Location: 120926 - 122444" locus_tag="ctg8_122" class="clusterblast-orf" id="dummy-1_q27_0_all"  />
<polygon points="573,35 578,30 603,30 603,40 578,40 573,35 " style="fill:white; stroke-width:1; stroke:black; " description="&lt;b&gt;ctg8_123&lt;/b&gt;&lt;br&gt;ctg8 123&lt;br&gt;Location: 122470 - 124126" locus_tag="ctg8_123" class="clusterblast-orf" id="dummy-1_q28_0_all"  />
<polygon points="606,35 611,30 618,30 618,40 611,40 606,35 " style="fill:white; stroke-width:1; stroke:black; " description="&lt;b&gt;ctg8_124&lt;/b&gt;&lt;br&gt;ctg8 124&lt;br&gt;Location: 124315 - 124990" locus_tag="ctg8_124" class="clusterblast-orf" id="dummy-1_q29_0_all"  />
<polygon points="623,40 630,40 635,35 630,30 623,30 623,40 " style="fill:white; stroke-width:1; stroke:black; " description="&lt;b&gt;ctg8_125&lt;/b&gt;&lt;br&gt;ctg8 125&lt;br&gt;Location: 125264 - 125933" locus_tag="ctg8_125" class="clusterblast-orf" id="dummy-1_q30_0_all"  />
<polygon points="634,40 673,40 678,35 673,30 634,30 634,40 " style="fill:white; stroke-width:1; stroke:black; " description="&lt;b&gt;ctg8_126&lt;/b&gt;&lt;br&gt;ctg8 126&lt;br&gt;Location: 125901 - 128397" locus_tag="ctg8_126" class="clusterblast-orf" id="dummy-1_q31_0_all"  />
<polygon points="678,40 692,40 697,35 692,30 678,30 678,40 " style="fill:white; stroke-width:1; stroke:black; " description="&lt;b&gt;ctg8_127&lt;/b&gt;&lt;br&gt;ctg8 127&lt;br&gt;Location: 128386 - 129451" locus_tag="ctg8_127" class="clusterblast-orf" id="dummy-1_q32_0_all"  />
<polygon points="700,40 720,40 725,35 720,30 700,30 700,40 " style="fill:white; stroke-width:1; stroke:black; " description="&lt;b&gt;ctg8_128&lt;/b&gt;&lt;br&gt;ctg8 128&lt;br&gt;Location: 129601 - 131044" locus_tag="ctg8_128" class="clusterblast-orf" id="dummy-1_q33_0_all"  />
<polygon points="726,35 731,30 746,30 746,40 731,40 726,35 " style="fill:white; stroke-width:1; stroke:black; " description="&lt;b&gt;ctg8_129&lt;/b&gt;&lt;br&gt;ctg8 129&lt;br&gt;Location: 131094 - 132195" locus_tag="ctg8_129" class="clusterblast-orf" id="dummy-1_q34_0_all"  />
<polygon points="746,35 751,30 758,30 758,40 751,40 746,35 " style="fill:white; stroke-width:1; stroke:black; " description="&lt;b&gt;ctg8_130&lt;/b&gt;&lt;br&gt;ctg8 130&lt;br&gt;Location: 132197 - 132869" locus_tag="ctg8_130" class="clusterblast-orf" id="dummy-1_q35_0_all"  />
<polygon points="763,40 775,40 780,35 775,30 763,30 763,40 " style="fill:white; stroke-width:1; stroke:black; " description="&lt;b&gt;ctg8_131&lt;/b&gt;&lt;br&gt;ctg8 131&lt;br&gt;Location: 133186 - 134110" locus_tag="ctg8_131" class="clusterblast-orf" id="dummy-1_q36_0_all"  />
</g>
<g label="BGC0001346" description="BGC0001346_c1: bananamide 1/bananamide 2/bananamide 3 (50% of genes show similarity), NRP:Cyclic depsipeptide" class="clusterblast-cluster"  >
<text x="5" y="70" class="clusterblast-acc"  >
<a xlink:href="https://mibig.secondarymetabolites.org/go/BGC0001346/1" target="_blank">BGC0001346</a>: bananamide 1/bananamide 2/bananamide 3                                           (50% of genes show similarity), NRP:Cyclic depsipeptide</text>
<line x1="10" y1="85" x2="778.0" y2="85" style="stroke-width:1; stroke:grey; "  />
</g>
<g id="a1_000"  >
<polygon points="84,85 89,80 103,80 103,90 89,90 84,85 " style="fill:#d8bc15; stroke-width:1; stroke:black; " description="&lt;b&gt;AOA33119.1&lt;/b&gt;&lt;br&gt;RND efflux system, outer membrane lipoprotein&lt;br&gt;Location: 1 - 1066&lt;br&gt;&lt;br&gt;&lt;b&gt;BlastP hit with ctg8_113&lt;/b&gt;&lt;br&gt;Percentage identity: 74&lt;br&gt;Percentage coverage: 73&lt;br&gt;BLAST bit score: 504&lt;br&gt;E-value: 3.08e-178" locus_tag="AOA33119.1" class="clusterblast-orf" id="dummy-1_h1_3_0"  />
</g>
<g id="a1_001"  >
<polygon points="104,85 109,80 119,80 119,90 109,90 104,85 " style="fill:#15d885; stroke-width:1; stroke:black; " description="&lt;b&gt;AOA33120.1&lt;/b&gt;&lt;br&gt;LuxR family DNA-binding response regulator&lt;br&gt;Location: 1126 - 1920&lt;br&gt;&lt;br&gt;&lt;b&gt;BlastP hit with ctg8_114&lt;/b&gt;&lt;br&gt;Percentage identity: 62&lt;br&gt;Percentage coverage: 100&lt;br&gt;BLAST bit score: 309&lt;br&gt;E-value: 2.13e-106" locus_tag="AOA33120.1" class="clusterblast-orf" id="dummy-1_h1_3_1"  />
</g>
<g id="a1_002"  >
<polygon points="127,90 236,90 241,85 236,80 127,80 127,90 " style="fill:#4d15d8; stroke-width:1; stroke:black; " description="&lt;b&gt;AOA33121.1&lt;/b&gt;&lt;br&gt;Nonribosomal peptide synthetase&lt;br&gt;Location: 2411 - 8821&lt;br&gt;&lt;br&gt;&lt;b&gt;BlastP hit with ctg8_115&lt;/b&gt;&lt;br&gt;Percentage identity: 64&lt;br&gt;Percentage coverage: 101&lt;br&gt;BLAST bit score: 2630&lt;br&gt;E-value: 0.0" locus_tag="AOA33121.1" class="clusterblast-orf" id="dummy-1_h1_3_2"  />
</g>
<g id="a1_003"  >
<polygon points="245,90 471,90 476,85 471,80 245,80 245,90 " style="fill:#4d15d8; stroke-width:1; stroke:black; " description="&lt;b&gt;AOA33122.1&lt;/b&gt;&lt;br&gt;Nonribosomal peptide synthetase&lt;br&gt;Location: 9072 - 22079&lt;br&gt;&lt;br&gt;&lt;b&gt;BlastP hit with ctg8_115&lt;/b&gt;&lt;br&gt;Percentage identity: 53&lt;br&gt;Percentage coverage: 101&lt;br&gt;BLAST bit score: 2026&lt;br&gt;E-value: 0.0" locus_tag="AOA33122.1" class="clusterblast-orf" id="dummy-1_h1_3_3"  />
</g>
<g id="a1_004"  >
<polygon points="476,90 618,90 623,85 618,80 476,80 476,90 " style="fill:white; stroke-width:1; stroke:black; " description="&lt;b&gt;AOA33123.1&lt;/b&gt;&lt;br&gt;Nonribosomal peptide synthetase&lt;br&gt;Location: 22076 - 30376" locus_tag="AOA33123.1" class="clusterblast-orf" id="dummy-1_h1_3_4"  />
</g>
<g id="a1_005"  >
<polygon points="625,90 640,90 645,85 640,80 625,80 625,90 " style="fill:white; stroke-width:1; stroke:black; " description="&lt;b&gt;AOA33124.1&lt;/b&gt;&lt;br&gt;RND family efflux transporter MFP subunit&lt;br&gt;Location: 30443 - 31591" locus_tag="AOA33124.1" class="clusterblast-orf" id="dummy-1_h1_3_5"  />
</g>
<g id="a1_006"  >
<polygon points="645,90 675,90 680,85 675,80 645,80 645,90 " style="fill:white; stroke-width:1; stroke:black; " description="&lt;b&gt;AOA33125.1&lt;/b&gt;&lt;br&gt;ABC transporter ATP-binding protein&lt;br&gt;Location: 31588 - 33552" locus_tag="AOA33125.1" class="clusterblast-orf" id="dummy-1_h1_3_6"  />
</g>
<g id="a1_007"  >
<polygon points="681,85 686,80 695,80 695,90 686,90 681,85 " style="fill:white; stroke-width:1; stroke:black; " description="&lt;b&gt;AOA33126.1&lt;/b&gt;&lt;br&gt;LuxR family DNA-binding response regulator&lt;br&gt;Location: 33610 - 34383" locus_tag="AOA33126.1" class="clusterblast-orf" id="dummy-1_h1_3_7"  />
</g>
</svg>
