<svg xmlns="http://www.w3.org/2000/svg" xmlns:xlink="http://www.w3.org/1999/xlink" version="1.1" x="0" y="0" height="230" width="800" viewBox="0 0 800 230" preserveAspectRatio="none"  >
<g label="Query sequence" class="clusterblast-cluster"  >
<text x="5" y="20" class="clusterblast-acc"  >
Query sequence</text>
<line x1="10" y1="35" x2="778.0" y2="35" style="stroke-width:1; stroke:grey; "  />
<polygon points="0,40 77,40 82,35 77,30 0,30 0,40 " style="fill:#d81515; stroke-width:1; stroke:black; " description="&lt;b&gt;ctg2_38&lt;/b&gt;&lt;br&gt;ctg2 38&lt;br&gt;Location: 47325 - 48315" locus_tag="ctg2_38" class="clusterblast-orf" id="dummy-1_q0_0_all"  />
<polygon points="82,40 162,40 167,35 162,30 82,30 82,40 " style="fill:#15d815; stroke-width:1; stroke:black; " description="&lt;b&gt;ctg2_39&lt;/b&gt;&lt;br&gt;ctg2 39&lt;br&gt;Location: 48311 - 49346" locus_tag="ctg2_39" class="clusterblast-orf" id="dummy-1_q1_0_all"  />
<polygon points="167,40 317,40 322,35 317,30 167,30 167,40 " style="fill:#1597d8; stroke-width:1; stroke:black; " description="&lt;b&gt;ctg2_40&lt;/b&gt;&lt;br&gt;ctg2 40&lt;br&gt;Location: 49342 - 51229" locus_tag="ctg2_40" class="clusterblast-orf" id="dummy-1_q2_0_all"  />
<polygon points="332,40 347,40 352,35 347,30 332,30 332,40 " style="fill:#9715d8; stroke-width:1; stroke:black; " description="&lt;b&gt;ctg2_41&lt;/b&gt;&lt;br&gt;ctg2 41&lt;br&gt;Location: 51346 - 51598" locus_tag="ctg2_41" class="clusterblast-orf" id="dummy-1_q3_0_all"  />
<polygon points="358,40 423,40 428,35 423,30 358,30 358,40 " style="fill:#d89715; stroke-width:1; stroke:black; " description="&lt;b&gt;ctg2_42&lt;/b&gt;&lt;br&gt;ctg2 42&lt;br&gt;Location: 51665 - 52511" locus_tag="ctg2_42" class="clusterblast-orf" id="dummy-1_q4_0_all"  />
<polygon points="427,40 487,40 492,35 487,30 427,30 427,40 " style="fill:#15d897; stroke-width:1; stroke:black; " description="&lt;b&gt;ctg2_43&lt;/b&gt;&lt;br&gt;ctg2 43&lt;br&gt;Location: 52501 - 53290" locus_tag="ctg2_43" class="clusterblast-orf" id="dummy-1_q5_0_all"  />
<polygon points="499,40 592,40 597,35 592,30 499,30 499,40 " style="fill:#1515d8; stroke-width:1; stroke:black; " description="&lt;b&gt;ctg2_44&lt;/b&gt;&lt;br&gt;ctg2 44&lt;br&gt;Location: 53377 - 54562" locus_tag="ctg2_44" class="clusterblast-orf" id="dummy-1_q6_0_all"  />
<polygon points="608,35 613,30 727,30 727,40 613,40 608,35 " style="fill:#d81597; stroke-width:1; stroke:black; " description="&lt;b&gt;ctg2_45&lt;/b&gt;&lt;br&gt;ctg2 45&lt;br&gt;Location: 54700 - 56140" locus_tag="ctg2_45" class="clusterblast-orf" id="dummy-1_q7_0_all"  />
<polygon points="737,40 775,40 780,35 775,30 737,30 737,40 " style="fill:#97d815; stroke-width:1; stroke:black; " description="&lt;b&gt;ctg2_46&lt;/b&gt;&lt;br&gt;ctg2 46&lt;br&gt;Location: 56270 - 56792" locus_tag="ctg2_46" class="clusterblast-orf" id="dummy-1_q8_0_all"  />
</g>
<g label="NZ_JACAQV010000030" description="NZ_JACAQV010000030 (77522-88368): Pseudomonas salomonii strain IPO3765 IPO 37... (100% of genes show similarity), bacteriocin" class="clusterblast-cluster"  >
<text x="5" y="70" class="clusterblast-acc"  >
<a xlink:href="https://antismash-db.secondarymetabolites.org/area.html?record=NZ_JACAQV010000030&amp;start=77522&amp;end=88368" target="_blank">NZ_JACAQV010000030 (77522-88368)</a>: Pseudomonas salomonii strain IPO3765 IPO 37... (100% of genes show similarity), bacteriocin</text>
<line x1="10" y1="85" x2="778.0" y2="85" style="stroke-width:1; stroke:grey; "  />
</g>
<g id="a1_000"  >
<polygon points="2,90 79,90 84,85 79,80 2,80 2,90 " style="fill:#d81515; stroke-width:1; stroke:black; " description="&lt;b&gt;HX810_RS27255&lt;/b&gt;&lt;br&gt;protease modulator HflC&lt;br&gt;Location: 87714 - 86722&lt;br&gt;&lt;br&gt;&lt;b&gt;BlastP hit with ctg2_38&lt;/b&gt;&lt;br&gt;Percentage identity: 99&lt;br&gt;Percentage coverage: 94&lt;br&gt;BLAST bit score: 525&lt;br&gt;E-value: 9.04e-188" locus_tag="HX810_RS27255" class="clusterblast-orf" id="dummy-1_h1_4_0"  />
</g>
<g id="a1_001"  >
<polygon points="83,90 163,90 168,85 163,80 83,80 83,90 " style="fill:#15d815; stroke-width:1; stroke:black; " description="&lt;b&gt;HX810_RS27250&lt;/b&gt;&lt;br&gt;protease modulator HflK&lt;br&gt;Location: 86725 - 85691&lt;br&gt;&lt;br&gt;&lt;b&gt;BlastP hit with ctg2_39&lt;/b&gt;&lt;br&gt;Percentage identity: 99&lt;br&gt;Percentage coverage: 100&lt;br&gt;BLAST bit score: 558&lt;br&gt;E-value: 1.54e-200" locus_tag="HX810_RS27250" class="clusterblast-orf" id="dummy-1_h1_4_1"  />
</g>
<g id="a1_002"  >
<polygon points="168,90 319,90 324,85 319,80 168,80 168,90 " style="fill:#1597d8; stroke-width:1; stroke:black; " description="&lt;b&gt;HX810_RS27245&lt;/b&gt;&lt;br&gt;cadmium-translocating P-type ATPase&lt;br&gt;Location: 85694 - 83808&lt;br&gt;&lt;br&gt;&lt;b&gt;BlastP hit with ctg2_40&lt;/b&gt;&lt;br&gt;Percentage identity: 98&lt;br&gt;Percentage coverage: 100&lt;br&gt;BLAST bit score: 1105&lt;br&gt;E-value: 0.0" locus_tag="HX810_RS27245" class="clusterblast-orf" id="dummy-1_h1_4_2"  />
</g>
<g id="a1_003"  >
<polygon points="333,90 349,90 354,85 349,80 333,80 333,90 " style="fill:#9715d8; stroke-width:1; stroke:black; " description="&lt;b&gt;HX810_RS27240&lt;/b&gt;&lt;br&gt;membrane protein&lt;br&gt;Location: 83690 - 83436&lt;br&gt;&lt;br&gt;&lt;b&gt;BlastP hit with ctg2_41&lt;/b&gt;&lt;br&gt;Percentage identity: 86&lt;br&gt;Percentage coverage: 101&lt;br&gt;BLAST bit score: 113&lt;br&gt;E-value: 7.71e-33" locus_tag="HX810_RS27240" class="clusterblast-orf" id="dummy-1_h1_4_3"  />
</g>
<g id="a1_004"  >
<polygon points="360,90 425,90 430,85 425,80 360,80 360,90 " style="fill:#d89715; stroke-width:1; stroke:black; " description="&lt;b&gt;HX810_RS27235&lt;/b&gt;&lt;br&gt;DUF692 domain-containing protein&lt;br&gt;Location: 83368 - 82523&lt;br&gt;&lt;br&gt;&lt;b&gt;BlastP hit with ctg2_42&lt;/b&gt;&lt;br&gt;Percentage identity: 92&lt;br&gt;Percentage coverage: 100&lt;br&gt;BLAST bit score: 533&lt;br&gt;E-value: 1.39e-192" locus_tag="HX810_RS27235" class="clusterblast-orf" id="dummy-1_h1_4_4"  />
</g>
<g id="a1_005"  >
<polygon points="429,90 489,90 494,85 489,80 429,80 429,90 " style="fill:#15d897; stroke-width:1; stroke:black; " description="&lt;b&gt;HX810_RS27230&lt;/b&gt;&lt;br&gt;putative DNA-binding domain-containing protein&lt;br&gt;Location: 82532 - 81744&lt;br&gt;&lt;br&gt;&lt;b&gt;BlastP hit with ctg2_43&lt;/b&gt;&lt;br&gt;Percentage identity: 89&lt;br&gt;Percentage coverage: 100&lt;br&gt;BLAST bit score: 494&lt;br&gt;E-value: 1.14e-177" locus_tag="HX810_RS27230" class="clusterblast-orf" id="dummy-1_h1_4_5"  />
</g>
<g id="a1_006"  >
<polygon points="501,90 594,90 599,85 594,80 501,80 501,90 " style="fill:#1515d8; stroke-width:1; stroke:black; " description="&lt;b&gt;HX810_RS27225&lt;/b&gt;&lt;br&gt;class I SAM-dependent methyltransferase&lt;br&gt;Location: 81655 - 80471&lt;br&gt;&lt;br&gt;&lt;b&gt;BlastP hit with ctg2_44&lt;/b&gt;&lt;br&gt;Percentage identity: 96&lt;br&gt;Percentage coverage: 100&lt;br&gt;BLAST bit score: 777&lt;br&gt;E-value: 2.98e-285" locus_tag="HX810_RS27225" class="clusterblast-orf" id="dummy-1_h1_4_6"  />
</g>
<g id="a1_007"  >
<polygon points="605,85 610,80 723,80 723,90 610,90 605,85 " style="fill:#d81597; stroke-width:1; stroke:black; " description="&lt;b&gt;HX810_RS27220&lt;/b&gt;&lt;br&gt;cardiolipin synthase&lt;br&gt;Location: 80395 - 78956&lt;br&gt;&lt;br&gt;&lt;b&gt;BlastP hit with ctg2_45&lt;/b&gt;&lt;br&gt;Percentage identity: 98&lt;br&gt;Percentage coverage: 100&lt;br&gt;BLAST bit score: 931&lt;br&gt;E-value: 0.0" locus_tag="HX810_RS27220" class="clusterblast-orf" id="dummy-1_h1_4_7"  />
</g>
<g id="a1_008"  >
<polygon points="734,90 772,90 777,85 772,80 734,80 734,90 " style="fill:#97d815; stroke-width:1; stroke:black; " description="&lt;b&gt;HX810_RS27215&lt;/b&gt;&lt;br&gt;DUF3617 domain-containing protein&lt;br&gt;Location: 78825 - 78304&lt;br&gt;&lt;br&gt;&lt;b&gt;BlastP hit with ctg2_46&lt;/b&gt;&lt;br&gt;Percentage identity: 98&lt;br&gt;Percentage coverage: 100&lt;br&gt;BLAST bit score: 339&lt;br&gt;E-value: 1.72e-119" locus_tag="HX810_RS27215" class="clusterblast-orf" id="dummy-1_h1_4_8"  />
</g>
</svg>
