<svg xmlns="http://www.w3.org/2000/svg" xmlns:xlink="http://www.w3.org/1999/xlink" version="1.1" x="0" y="0" height="230" width="800" viewBox="0 0 800 230" preserveAspectRatio="none"  >
<g label="Query sequence" class="clusterblast-cluster"  >
<text x="5" y="20" class="clusterblast-acc"  >
Query sequence</text>
<line x1="10" y1="35" x2="778.0" y2="35" style="stroke-width:1; stroke:grey; "  />
<polygon points="145,35 150,30 339,30 339,40 150,40 145,35 " style="fill:#d81515; stroke-width:1; stroke:black; " description="&lt;b&gt;ctg4_1&lt;/b&gt;&lt;br&gt;ctg4 1&lt;br&gt;Location: 581 - 13478" locus_tag="ctg4_1" class="clusterblast-orf" id="dummy-1_q0_0_all"  />
<polygon points="340,35 345,30 351,30 351,40 345,40 340,35 " style="fill:#5cd815; stroke-width:1; stroke:black; " description="&lt;b&gt;ctg4_2&lt;/b&gt;&lt;br&gt;ctg4 2&lt;br&gt;Location: 13528 - 14281" locus_tag="ctg4_2" class="clusterblast-orf" id="dummy-1_q1_0_all"  />
<polygon points="356,40 359,40 364,35 359,30 356,30 356,40 " style="fill:#15a3d8; stroke-width:1; stroke:black; " description="&lt;b&gt;ctg4_3&lt;/b&gt;&lt;br&gt;ctg4 3&lt;br&gt;Location: 14581 - 15133" locus_tag="ctg4_3" class="clusterblast-orf" id="dummy-1_q2_0_all"  />
<polygon points="365,35 370,30 377,30 377,40 370,40 365,35 " style="fill:#9115d8; stroke-width:1; stroke:black; " description="&lt;b&gt;ctg4_4&lt;/b&gt;&lt;br&gt;ctg4 4&lt;br&gt;Location: 15171 - 15960" locus_tag="ctg4_4" class="clusterblast-orf" id="dummy-1_q3_0_all"  />
<polygon points="378,35 383,30 387,30 387,40 383,40 378,35 " style="fill:#d84a15; stroke-width:1; stroke:black; " description="&lt;b&gt;ctg4_5&lt;/b&gt;&lt;br&gt;ctg4 5&lt;br&gt;Location: 16053 - 16677" locus_tag="ctg4_5" class="clusterblast-orf" id="dummy-1_q4_0_all"  />
<polygon points="390,40 411,40 416,35 411,30 390,30 390,40 " style="fill:#27d815; stroke-width:1; stroke:black; " description="&lt;b&gt;ctg4_6&lt;/b&gt;&lt;br&gt;ctg4 6&lt;br&gt;Location: 16830 - 18609" locus_tag="ctg4_6" class="clusterblast-orf" id="dummy-1_q5_0_all"  />
<polygon points="417,40 425,40 430,35 425,30 417,30 417,40 " style="fill:#156ed8; stroke-width:1; stroke:black; " description="&lt;b&gt;ctg4_7&lt;/b&gt;&lt;br&gt;ctg4 7&lt;br&gt;Location: 18621 - 19494" locus_tag="ctg4_7" class="clusterblast-orf" id="dummy-1_q6_0_all"  />
<polygon points="430,40 449,40 454,35 449,30 430,30 430,40 " style="fill:#c715d8; stroke-width:1; stroke:black; " description="&lt;b&gt;ctg4_8&lt;/b&gt;&lt;br&gt;ctg4 8&lt;br&gt;Location: 19497 - 21114" locus_tag="ctg4_8" class="clusterblast-orf" id="dummy-1_q7_0_all"  />
<polygon points="455,40 467,40 472,35 467,30 455,30 455,40 " style="fill:#d88015; stroke-width:1; stroke:black; " description="&lt;b&gt;ctg4_9&lt;/b&gt;&lt;br&gt;ctg4 9&lt;br&gt;Location: 21130 - 22288" locus_tag="ctg4_9" class="clusterblast-orf" id="dummy-1_q8_0_all"  />
<polygon points="472,40 478,40 483,35 478,30 472,30 472,40 " style="fill:#15d839; stroke-width:1; stroke:black; " description="&lt;b&gt;ctg4_10&lt;/b&gt;&lt;br&gt;ctg4 10&lt;br&gt;Location: 22284 - 23052" locus_tag="ctg4_10" class="clusterblast-orf" id="dummy-1_q9_0_all"  />
<polygon points="485,40 509,40 514,35 509,30 485,30 485,40 " style="fill:#1539d8; stroke-width:1; stroke:black; " description="&lt;b&gt;ctg4_11&lt;/b&gt;&lt;br&gt;ctg4 11&lt;br&gt;Location: 23163 - 25086" locus_tag="ctg4_11" class="clusterblast-orf" id="dummy-1_q10_0_all"  />
<polygon points="516,40 519,40 524,35 519,30 516,30 516,40 " style="fill:#d815b5; stroke-width:1; stroke:black; " description="&lt;b&gt;ctg4_12&lt;/b&gt;&lt;br&gt;ctg4 12&lt;br&gt;Location: 25177 - 25720" locus_tag="ctg4_12" class="clusterblast-orf" id="dummy-1_q11_0_all"  />
<polygon points="525,40 529,35 525,30 525,40 " style="fill:#d8b515; stroke-width:1; stroke:black; " description="&lt;b&gt;ctg4_13&lt;/b&gt;&lt;br&gt;ctg4 13&lt;br&gt;Location: 25785 - 26070" locus_tag="ctg4_13" class="clusterblast-orf" id="dummy-1_q12_0_all"  />
<polygon points="530,35 535,30 542,30 542,40 535,40 530,35 " style="fill:#15d86e; stroke-width:1; stroke:black; " description="&lt;b&gt;ctg4_14&lt;/b&gt;&lt;br&gt;ctg4 14&lt;br&gt;Location: 26134 - 26941" locus_tag="ctg4_14" class="clusterblast-orf" id="dummy-1_q13_0_all"  />
<polygon points="543,35 548,30 557,30 557,40 548,40 543,35 " style="fill:#2715d8; stroke-width:1; stroke:black; " description="&lt;b&gt;ctg4_15&lt;/b&gt;&lt;br&gt;ctg4 15&lt;br&gt;Location: 26979 - 27915" locus_tag="ctg4_15" class="clusterblast-orf" id="dummy-1_q14_0_all"  />
<polygon points="565,40 567,40 572,35 567,30 565,30 565,40 " style="fill:#d81580; stroke-width:1; stroke:black; " description="&lt;b&gt;ctg4_16&lt;/b&gt;&lt;br&gt;ctg4 16&lt;br&gt;Location: 28448 - 28898" locus_tag="ctg4_16" class="clusterblast-orf" id="dummy-1_q15_0_all"  />
<polygon points="577,40 586,40 591,35 586,30 577,30 577,40 " style="fill:#c7d815; stroke-width:1; stroke:black; " description="&lt;b&gt;ctg4_17&lt;/b&gt;&lt;br&gt;ctg4 17&lt;br&gt;Location: 29281 - 30175" locus_tag="ctg4_17" class="clusterblast-orf" id="dummy-1_q16_0_all"  />
<polygon points="591,40 596,40 601,35 596,30 591,30 591,40 " style="fill:#15d8a3; stroke-width:1; stroke:black; " description="&lt;b&gt;ctg4_18&lt;/b&gt;&lt;br&gt;ctg4 18&lt;br&gt;Location: 30171 - 30831" locus_tag="ctg4_18" class="clusterblast-orf" id="dummy-1_q17_0_all"  />
<polygon points="600,35 605,30 614,30 614,40 605,40 600,35 " style="fill:#5c15d8; stroke-width:1; stroke:black; " description="&lt;b&gt;ctg4_19&lt;/b&gt;&lt;br&gt;ctg4 19&lt;br&gt;Location: 30789 - 31710" locus_tag="ctg4_19" class="clusterblast-orf" id="dummy-1_q18_0_all"  />
<polygon points="615,35 620,30 624,30 624,40 620,40 615,35 " style="fill:#d8154a; stroke-width:1; stroke:black; " description="&lt;b&gt;ctg4_20&lt;/b&gt;&lt;br&gt;ctg4 20&lt;br&gt;Location: 31800 - 32346" locus_tag="ctg4_20" class="clusterblast-orf" id="dummy-1_q19_0_all"  />
<polygon points="624,35 629,30 629,30 629,40 629,40 624,35 " style="fill:#91d815; stroke-width:1; stroke:black; " description="&lt;b&gt;ctg4_21&lt;/b&gt;&lt;br&gt;ctg4 21&lt;br&gt;Location: 32377 - 32704" locus_tag="ctg4_21" class="clusterblast-orf" id="dummy-1_q20_0_all"  />
<polygon points="629,35 634,30 635,30 635,40 634,40 629,35 " style="fill:#15d8d8; stroke-width:1; stroke:black; " description="&lt;b&gt;ctg4_22&lt;/b&gt;&lt;br&gt;ctg4 22&lt;br&gt;Location: 32727 - 33078" locus_tag="ctg4_22" class="clusterblast-orf" id="dummy-1_q21_0_all"  />
</g>
<g label="NZ_QAJM01000014" description="NZ_QAJM01000014 (588-53473): Pseudomonas sp. KBW05 KBW5 ACAGTG contig 14, who... (56% of genes show similarity), NRPS" class="clusterblast-cluster"  >
<text x="5" y="70" class="clusterblast-acc"  >
<a xlink:href="https://antismash-db.secondarymetabolites.org/area.html?record=NZ_QAJM01000014&amp;start=588&amp;end=53473" target="_blank">NZ_QAJM01000014 (588-53473)</a>: Pseudomonas sp. KBW05 KBW5 ACAGTG contig 14, who... (56% of genes show similarity), NRPS</text>
<line x1="10" y1="85" x2="778.0" y2="85" style="stroke-width:1; stroke:grey; "  />
</g>
<g id="a1_000"  >
<polygon points="0,85 5,80 14,80 14,90 5,90 0,85 " style="fill:white; stroke-width:1; stroke:black; " description="&lt;b&gt;DBR46_RS12605&lt;/b&gt;&lt;br&gt;lipid A biosynthesis lauroyl acyltransferase&lt;br&gt;Location: 1322 - 2257" locus_tag="DBR46_RS12605" class="clusterblast-orf" id="dummy-1_h1_9_0"  />
</g>
<g id="a1_001"  >
<polygon points="15,90 22,90 27,85 22,80 15,80 15,90 " style="fill:white; stroke-width:1; stroke:black; " description="&lt;b&gt;DBR46_RS12610&lt;/b&gt;&lt;br&gt;septum site-determining protein MinC&lt;br&gt;Location: 2377 - 3114" locus_tag="DBR46_RS12610" class="clusterblast-orf" id="dummy-1_h1_9_1"  />
</g>
<g id="a1_002"  >
<polygon points="30,90 37,90 42,85 37,80 30,80 30,90 " style="fill:white; stroke-width:1; stroke:black; " description="&lt;b&gt;DBR46_RS12615&lt;/b&gt;&lt;br&gt;septum site-determining protein MinD&lt;br&gt;Location: 3315 - 4127" locus_tag="DBR46_RS12615" class="clusterblast-orf" id="dummy-1_h1_9_2"  />
</g>
<g id="a1_003"  >
<polygon points="42,90 46,85 42,80 42,90 " style="fill:white; stroke-width:1; stroke:black; " description="&lt;b&gt;DBR46_RS12620&lt;/b&gt;&lt;br&gt;cell division topological specificity factor MinE&lt;br&gt;Location: 4131 - 4385" locus_tag="DBR46_RS12620" class="clusterblast-orf" id="dummy-1_h1_9_3"  />
</g>
<g id="a1_004"  >
<polygon points="47,90 52,90 57,85 52,80 47,80 47,90 " style="fill:white; stroke-width:1; stroke:black; " description="&lt;b&gt;DBR46_RS12625&lt;/b&gt;&lt;br&gt;RluA family pseudouridine synthase&lt;br&gt;Location: 4482 - 5117" locus_tag="DBR46_RS12625" class="clusterblast-orf" id="dummy-1_h1_9_4"  />
</g>
<g id="a1_005"  >
<polygon points="59,90 74,90 79,85 74,80 59,80 59,90 " style="fill:white; stroke-width:1; stroke:black; " description="&lt;b&gt;DBR46_RS12630&lt;/b&gt;&lt;br&gt;M18 family aminopeptidase&lt;br&gt;Location: 5289 - 6578" locus_tag="DBR46_RS12630" class="clusterblast-orf" id="dummy-1_h1_9_5"  />
</g>
<g id="a1_006"  >
<polygon points="82,90 85,85 82,80 82,90 " style="fill:white; stroke-width:1; stroke:black; " description="&lt;b&gt;DBR46_RS30320&lt;/b&gt;&lt;br&gt;hypothetical protein&lt;br&gt;Location: 6787 - 6963" locus_tag="DBR46_RS30320" class="clusterblast-orf" id="dummy-1_h1_9_6"  />
</g>
<g id="a1_007"  >
<polygon points="85,90 113,90 118,85 113,80 85,80 85,90 " style="fill:white; stroke-width:1; stroke:black; " description="&lt;b&gt;DBR46_RS12635&lt;/b&gt;&lt;br&gt;mechanosensitive ion channel family protein&lt;br&gt;Location: 7016 - 9175" locus_tag="DBR46_RS12635" class="clusterblast-orf" id="dummy-1_h1_9_7"  />
</g>
<g id="a1_008"  >
<polygon points="120,85 123,80 123,90 120,85 " style="fill:white; stroke-width:1; stroke:black; " description="&lt;b&gt;DBR46_RS12640&lt;/b&gt;&lt;br&gt;MbtH family protein&lt;br&gt;Location: 9314 - 9535" locus_tag="DBR46_RS12640" class="clusterblast-orf" id="dummy-1_h1_9_8"  />
</g>
<g id="a1_009"  >
<polygon points="125,85 130,80 146,80 146,90 130,90 125,85 " style="fill:white; stroke-width:1; stroke:black; " description="&lt;b&gt;DBR46_RS12645&lt;/b&gt;&lt;br&gt;aspartate aminotransferase family protein&lt;br&gt;Location: 9618 - 11012" locus_tag="DBR46_RS12645" class="clusterblast-orf" id="dummy-1_h1_9_9"  />
</g>
<g id="a1_0010"  >
<polygon points="150,85 155,80 161,80 161,90 155,90 150,85 " style="fill:white; stroke-width:1; stroke:black; " description="&lt;b&gt;DBR46_RS12650&lt;/b&gt;&lt;br&gt;N-acetylmuramoyl-L-alanine amidase&lt;br&gt;Location: 11275 - 12042" locus_tag="DBR46_RS12650" class="clusterblast-orf" id="dummy-1_h1_9_10"  />
</g>
<g id="a1_0011"  >
<polygon points="163,85 168,80 183,80 183,90 168,90 163,85 " style="fill:white; stroke-width:1; stroke:black; " description="&lt;b&gt;DBR46_RS12655&lt;/b&gt;&lt;br&gt;sensor histidine kinase N-terminal domain-containing protein&lt;br&gt;Location: 12166 - 13488" locus_tag="DBR46_RS12655" class="clusterblast-orf" id="dummy-1_h1_9_11"  />
</g>
<g id="a1_0012"  >
<polygon points="183,85 188,80 193,80 193,90 188,90 183,85 " style="fill:white; stroke-width:1; stroke:black; " description="&lt;b&gt;DBR46_RS12660&lt;/b&gt;&lt;br&gt;response regulator&lt;br&gt;Location: 13485 - 14165" locus_tag="DBR46_RS12660" class="clusterblast-orf" id="dummy-1_h1_9_12"  />
</g>
<g id="a1_0013"  >
<polygon points="196,90 217,90 222,85 217,80 196,80 196,90 " style="fill:white; stroke-width:1; stroke:black; " description="&lt;b&gt;DBR46_RS12665&lt;/b&gt;&lt;br&gt;protein-disulfide reductase DsbD&lt;br&gt;Location: 14341 - 16071" locus_tag="DBR46_RS12665" class="clusterblast-orf" id="dummy-1_h1_9_13"  />
</g>
<g id="a1_0014"  >
<polygon points="222,90 230,90 235,85 230,80 222,80 222,90 " style="fill:white; stroke-width:1; stroke:black; " description="&lt;b&gt;DBR46_RS12670&lt;/b&gt;&lt;br&gt;TlpA family protein disulfide reductase&lt;br&gt;Location: 16071 - 16916" locus_tag="DBR46_RS12670" class="clusterblast-orf" id="dummy-1_h1_9_14"  />
</g>
<g id="a1_0015"  >
<polygon points="234,90 241,90 246,85 241,80 234,80 234,90 " style="fill:white; stroke-width:1; stroke:black; " description="&lt;b&gt;DBR46_RS12675&lt;/b&gt;&lt;br&gt;thiol:disulfide interchange protein DsbG&lt;br&gt;Location: 16892 - 17653" locus_tag="DBR46_RS12675" class="clusterblast-orf" id="dummy-1_h1_9_15"  />
</g>
<g id="a1_0016"  >
<polygon points="247,85 252,80 288,80 288,90 252,90 247,85 " style="fill:white; stroke-width:1; stroke:black; " description="&lt;b&gt;DBR46_RS12680&lt;/b&gt;&lt;br&gt;hypothetical protein&lt;br&gt;Location: 17727 - 20438" locus_tag="DBR46_RS12680" class="clusterblast-orf" id="dummy-1_h1_9_16"  />
</g>
<g id="a1_0017"  >
<polygon points="290,85 295,80 484,80 484,90 295,90 290,85 " style="fill:#d81515; stroke-width:1; stroke:black; " description="&lt;b&gt;DBR46_RS12685&lt;/b&gt;&lt;br&gt;non-ribosomal peptide synthetase&lt;br&gt;Location: 20589 - 33473&lt;br&gt;&lt;br&gt;&lt;b&gt;BlastP hit with ctg4_1&lt;/b&gt;&lt;br&gt;Percentage identity: 91&lt;br&gt;Percentage coverage: 100&lt;br&gt;BLAST bit score: 7840&lt;br&gt;E-value: 0.0" locus_tag="DBR46_RS12685" class="clusterblast-orf" id="dummy-1_h1_9_17"  />
</g>
<g id="a1_0018"  >
<polygon points="485,85 490,80 496,80 496,90 490,90 485,85 " style="fill:#5cd815; stroke-width:1; stroke:black; " description="&lt;b&gt;DBR46_RS12690&lt;/b&gt;&lt;br&gt;thioesterase&lt;br&gt;Location: 33525 - 34277&lt;br&gt;&lt;br&gt;&lt;b&gt;BlastP hit with ctg4_2&lt;/b&gt;&lt;br&gt;Percentage identity: 91&lt;br&gt;Percentage coverage: 98&lt;br&gt;BLAST bit score: 450&lt;br&gt;E-value: 7.57e-161" locus_tag="DBR46_RS12690" class="clusterblast-orf" id="dummy-1_h1_9_18"  />
</g>
<g id="a1_0019"  >
<polygon points="501,90 504,90 509,85 504,80 501,80 501,90 " style="fill:#15a3d8; stroke-width:1; stroke:black; " description="&lt;b&gt;DBR46_RS12695&lt;/b&gt;&lt;br&gt;RNA polymerase factor sigma-70&lt;br&gt;Location: 34580 - 35131&lt;br&gt;&lt;br&gt;&lt;b&gt;BlastP hit with ctg4_3&lt;/b&gt;&lt;br&gt;Percentage identity: 98&lt;br&gt;Percentage coverage: 100&lt;br&gt;BLAST bit score: 357&lt;br&gt;E-value: 3.55e-126" locus_tag="DBR46_RS12695" class="clusterblast-orf" id="dummy-1_h1_9_19"  />
</g>
<g id="a1_0020"  >
<polygon points="512,85 517,80 524,80 524,90 517,90 512,85 " style="fill:#9115d8; stroke-width:1; stroke:black; " description="&lt;b&gt;DBR46_RS12700&lt;/b&gt;&lt;br&gt;transporter substrate-binding domain-containing protein&lt;br&gt;Location: 35307 - 36095&lt;br&gt;&lt;br&gt;&lt;b&gt;BlastP hit with ctg4_4&lt;/b&gt;&lt;br&gt;Percentage identity: 92&lt;br&gt;Percentage coverage: 98&lt;br&gt;BLAST bit score: 489&lt;br&gt;E-value: 7.68e-176" locus_tag="DBR46_RS12700" class="clusterblast-orf" id="dummy-1_h1_9_20"  />
</g>
<g id="a1_0021"  >
<polygon points="525,85 530,80 535,80 535,90 530,90 525,85 " style="fill:#d84a15; stroke-width:1; stroke:black; " description="&lt;b&gt;DBR46_RS12705&lt;/b&gt;&lt;br&gt;TetR family transcriptional regulator&lt;br&gt;Location: 36189 - 36812&lt;br&gt;&lt;br&gt;&lt;b&gt;BlastP hit with ctg4_5&lt;/b&gt;&lt;br&gt;Percentage identity: 96&lt;br&gt;Percentage coverage: 100&lt;br&gt;BLAST bit score: 387&lt;br&gt;E-value: 4.02e-137" locus_tag="DBR46_RS12705" class="clusterblast-orf" id="dummy-1_h1_9_21"  />
</g>
<g id="a1_0022"  >
<polygon points="537,90 559,90 564,85 559,80 537,80 537,90 " style="fill:#27d815; stroke-width:1; stroke:black; " description="&lt;b&gt;DBR46_RS12710&lt;/b&gt;&lt;br&gt;DUF1446 domain-containing protein&lt;br&gt;Location: 36966 - 38744&lt;br&gt;&lt;br&gt;&lt;b&gt;BlastP hit with ctg4_6&lt;/b&gt;&lt;br&gt;Percentage identity: 89&lt;br&gt;Percentage coverage: 100&lt;br&gt;BLAST bit score: 1075&lt;br&gt;E-value: 0.0" locus_tag="DBR46_RS12710" class="clusterblast-orf" id="dummy-1_h1_9_22"  />
</g>
<g id="a1_0023"  >
<polygon points="564,90 572,90 577,85 572,80 564,80 564,90 " style="fill:#156ed8; stroke-width:1; stroke:black; " description="&lt;b&gt;DBR46_RS12715&lt;/b&gt;&lt;br&gt;SDR family oxidoreductase&lt;br&gt;Location: 38758 - 39630&lt;br&gt;&lt;br&gt;&lt;b&gt;BlastP hit with ctg4_7&lt;/b&gt;&lt;br&gt;Percentage identity: 94&lt;br&gt;Percentage coverage: 100&lt;br&gt;BLAST bit score: 545&lt;br&gt;E-value: 7.47e-197" locus_tag="DBR46_RS12715" class="clusterblast-orf" id="dummy-1_h1_9_23"  />
</g>
<g id="a1_0024"  >
<polygon points="577,90 597,90 602,85 597,80 577,80 577,90 " style="fill:#c715d8; stroke-width:1; stroke:black; " description="&lt;b&gt;DBR46_RS12720&lt;/b&gt;&lt;br&gt;acyl-CoA carboxylase subunit beta&lt;br&gt;Location: 39634 - 41250&lt;br&gt;&lt;br&gt;&lt;b&gt;BlastP hit with ctg4_8&lt;/b&gt;&lt;br&gt;Percentage identity: 93&lt;br&gt;Percentage coverage: 100&lt;br&gt;BLAST bit score: 981&lt;br&gt;E-value: 0.0" locus_tag="DBR46_RS12720" class="clusterblast-orf" id="dummy-1_h1_9_24"  />
</g>
<g id="a1_0025"  >
<polygon points="602,90 614,90 619,85 614,80 602,80 602,90 " style="fill:#d88015; stroke-width:1; stroke:black; " description="&lt;b&gt;DBR46_RS12725&lt;/b&gt;&lt;br&gt;acyl-CoA dehydrogenase family protein&lt;br&gt;Location: 41267 - 42424&lt;br&gt;&lt;br&gt;&lt;b&gt;BlastP hit with ctg4_9&lt;/b&gt;&lt;br&gt;Percentage identity: 98&lt;br&gt;Percentage coverage: 100&lt;br&gt;BLAST bit score: 766&lt;br&gt;E-value: 1.92e-281" locus_tag="DBR46_RS12725" class="clusterblast-orf" id="dummy-1_h1_9_25"  />
</g>
<g id="a1_0026"  >
<polygon points="619,90 626,90 631,85 626,80 619,80 619,90 " style="fill:#15d839; stroke-width:1; stroke:black; " description="&lt;b&gt;DBR46_RS12730&lt;/b&gt;&lt;br&gt;enoyl-CoA hydratase/isomerase family protein&lt;br&gt;Location: 42421 - 43182&lt;br&gt;&lt;br&gt;&lt;b&gt;BlastP hit with ctg4_10&lt;/b&gt;&lt;br&gt;Percentage identity: 88&lt;br&gt;Percentage coverage: 100&lt;br&gt;BLAST bit score: 439&lt;br&gt;E-value: 3.85e-156" locus_tag="DBR46_RS12730" class="clusterblast-orf" id="dummy-1_h1_9_26"  />
</g>
<g id="a1_0027"  >
<polygon points="632,90 656,90 661,85 656,80 632,80 632,90 " style="fill:#1539d8; stroke-width:1; stroke:black; " description="&lt;b&gt;DBR46_RS12735&lt;/b&gt;&lt;br&gt;acetyl/propionyl/methylcrotonyl-CoA carboxylase subunit alpha&lt;br&gt;Location: 43294 - 45177&lt;br&gt;&lt;br&gt;&lt;b&gt;BlastP hit with ctg4_11&lt;/b&gt;&lt;br&gt;Percentage identity: 80&lt;br&gt;Percentage coverage: 96&lt;br&gt;BLAST bit score: 975&lt;br&gt;E-value: 0.0" locus_tag="DBR46_RS12735" class="clusterblast-orf" id="dummy-1_h1_9_27"  />
</g>
<g id="a1_0028"  >
<polygon points="662,90 665,90 670,85 665,80 662,80 662,90 " style="fill:#d815b5; stroke-width:1; stroke:black; " description="&lt;b&gt;DBR46_RS12740&lt;/b&gt;&lt;br&gt;exonuclease&lt;br&gt;Location: 45250 - 45792&lt;br&gt;&lt;br&gt;&lt;b&gt;BlastP hit with ctg4_12&lt;/b&gt;&lt;br&gt;Percentage identity: 97&lt;br&gt;Percentage coverage: 100&lt;br&gt;BLAST bit score: 367&lt;br&gt;E-value: 4.35e-130" locus_tag="DBR46_RS12740" class="clusterblast-orf" id="dummy-1_h1_9_28"  />
</g>
<g id="a1_0029"  >
<polygon points="671,90 675,85 671,80 671,90 " style="fill:#d8b515; stroke-width:1; stroke:black; " description="&lt;b&gt;DBR46_RS12745&lt;/b&gt;&lt;br&gt;pyrimidine/purine nucleoside phosphorylase&lt;br&gt;Location: 45856 - 46140&lt;br&gt;&lt;br&gt;&lt;b&gt;BlastP hit with ctg4_13&lt;/b&gt;&lt;br&gt;Percentage identity: 95&lt;br&gt;Percentage coverage: 100&lt;br&gt;BLAST bit score: 185&lt;br&gt;E-value: 6.95e-61" locus_tag="DBR46_RS12745" class="clusterblast-orf" id="dummy-1_h1_9_29"  />
</g>
<g id="a1_0030"  >
<polygon points="676,85 681,80 688,80 688,90 681,90 676,85 " style="fill:#15d86e; stroke-width:1; stroke:black; " description="&lt;b&gt;DBR46_RS12750&lt;/b&gt;&lt;br&gt;MOSC domain-containing protein&lt;br&gt;Location: 46191 - 46997&lt;br&gt;&lt;br&gt;&lt;b&gt;BlastP hit with ctg4_14&lt;/b&gt;&lt;br&gt;Percentage identity: 84&lt;br&gt;Percentage coverage: 100&lt;br&gt;BLAST bit score: 458&lt;br&gt;E-value: 2.68e-163" locus_tag="DBR46_RS12750" class="clusterblast-orf" id="dummy-1_h1_9_30"  />
</g>
<g id="a1_0031"  >
<polygon points="689,85 694,80 703,80 703,90 694,90 689,85 " style="fill:#2715d8; stroke-width:1; stroke:black; " description="&lt;b&gt;DBR46_RS12755&lt;/b&gt;&lt;br&gt;chemotaxis protein CheV&lt;br&gt;Location: 47037 - 47972&lt;br&gt;&lt;br&gt;&lt;b&gt;BlastP hit with ctg4_15&lt;/b&gt;&lt;br&gt;Percentage identity: 98&lt;br&gt;Percentage coverage: 100&lt;br&gt;BLAST bit score: 594&lt;br&gt;E-value: 1.17e-215" locus_tag="DBR46_RS12755" class="clusterblast-orf" id="dummy-1_h1_9_31"  />
</g>
<g id="a1_0032"  >
<polygon points="711,90 713,90 718,85 713,80 711,80 711,90 " style="fill:#d81580; stroke-width:1; stroke:black; " description="&lt;b&gt;DBR46_RS12760&lt;/b&gt;&lt;br&gt;hypothetical protein&lt;br&gt;Location: 48490 - 48939&lt;br&gt;&lt;br&gt;&lt;b&gt;BlastP hit with ctg4_16&lt;/b&gt;&lt;br&gt;Percentage identity: 83&lt;br&gt;Percentage coverage: 100&lt;br&gt;BLAST bit score: 249&lt;br&gt;E-value: 1.35e-84" locus_tag="DBR46_RS12760" class="clusterblast-orf" id="dummy-1_h1_9_32"  />
</g>
<g id="a1_0033"  >
<polygon points="721,90 730,90 735,85 730,80 721,80 721,90 " style="fill:#c7d815; stroke-width:1; stroke:black; " description="&lt;b&gt;DBR46_RS12765&lt;/b&gt;&lt;br&gt;sensor histidine kinase&lt;br&gt;Location: 49169 - 50062&lt;br&gt;&lt;br&gt;&lt;b&gt;BlastP hit with ctg4_17&lt;/b&gt;&lt;br&gt;Percentage identity: 85&lt;br&gt;Percentage coverage: 100&lt;br&gt;BLAST bit score: 496&lt;br&gt;E-value: 2.87e-177" locus_tag="DBR46_RS12765" class="clusterblast-orf" id="dummy-1_h1_9_33"  />
</g>
<g id="a1_0034"  >
<polygon points="734,90 739,90 744,85 739,80 734,80 734,90 " style="fill:#15d8a3; stroke-width:1; stroke:black; " description="&lt;b&gt;DBR46_RS12770&lt;/b&gt;&lt;br&gt;response regulator transcription factor&lt;br&gt;Location: 50059 - 50718&lt;br&gt;&lt;br&gt;&lt;b&gt;BlastP hit with ctg4_18&lt;/b&gt;&lt;br&gt;Percentage identity: 89&lt;br&gt;Percentage coverage: 100&lt;br&gt;BLAST bit score: 372&lt;br&gt;E-value: 6.18e-131" locus_tag="DBR46_RS12770" class="clusterblast-orf" id="dummy-1_h1_9_34"  />
</g>
<g id="a1_0035"  >
<polygon points="744,85 749,80 758,80 758,90 749,90 744,85 " style="fill:#5c15d8; stroke-width:1; stroke:black; " description="&lt;b&gt;DBR46_RS12775&lt;/b&gt;&lt;br&gt;lipid kinase YegS&lt;br&gt;Location: 50677 - 51594&lt;br&gt;&lt;br&gt;&lt;b&gt;BlastP hit with ctg4_19&lt;/b&gt;&lt;br&gt;Percentage identity: 92&lt;br&gt;Percentage coverage: 100&lt;br&gt;BLAST bit score: 555&lt;br&gt;E-value: 2.7e-200" locus_tag="DBR46_RS12775" class="clusterblast-orf" id="dummy-1_h1_9_35"  />
</g>
<g id="a1_0036"  >
<polygon points="759,85 764,80 767,80 767,90 764,90 759,85 " style="fill:#d8154a; stroke-width:1; stroke:black; " description="&lt;b&gt;DBR46_RS12780&lt;/b&gt;&lt;br&gt;hypothetical protein&lt;br&gt;Location: 51687 - 52232&lt;br&gt;&lt;br&gt;&lt;b&gt;BlastP hit with ctg4_20&lt;/b&gt;&lt;br&gt;Percentage identity: 75&lt;br&gt;Percentage coverage: 98&lt;br&gt;BLAST bit score: 284&lt;br&gt;E-value: 1.96e-97" locus_tag="DBR46_RS12780" class="clusterblast-orf" id="dummy-1_h1_9_36"  />
</g>
<g id="a1_0037"  >
<polygon points="770,85 775,80 775,80 775,90 775,90 770,85 " style="fill:#91d815; stroke-width:1; stroke:black; " description="&lt;b&gt;DBR46_RS12785&lt;/b&gt;&lt;br&gt;hypothetical protein&lt;br&gt;Location: 52389 - 52715&lt;br&gt;&lt;br&gt;&lt;b&gt;BlastP hit with ctg4_21&lt;/b&gt;&lt;br&gt;Percentage identity: 82&lt;br&gt;Percentage coverage: 100&lt;br&gt;BLAST bit score: 178&lt;br&gt;E-value: 7.52e-58" locus_tag="DBR46_RS12785" class="clusterblast-orf" id="dummy-1_h1_9_37"  />
</g>
<g id="a1_0038"  >
<polygon points="775,85 780,80 780,80 780,90 780,90 775,85 " style="fill:#15d8d8; stroke-width:1; stroke:black; " description="&lt;b&gt;DBR46_RS12790&lt;/b&gt;&lt;br&gt;hypothetical protein&lt;br&gt;Location: 52740 - 53045&lt;br&gt;&lt;br&gt;&lt;b&gt;BlastP hit with ctg4_22&lt;/b&gt;&lt;br&gt;Percentage identity: 74&lt;br&gt;Percentage coverage: 75&lt;br&gt;BLAST bit score: 158&lt;br&gt;E-value: 7.06e-50" locus_tag="DBR46_RS12790" class="clusterblast-orf" id="dummy-1_h1_9_38"  />
</g>
</svg>
