<svg xmlns="http://www.w3.org/2000/svg" xmlns:xlink="http://www.w3.org/1999/xlink" version="1.1" x="0" y="0" height="230" width="800" viewBox="0 0 800 230" preserveAspectRatio="none"  >
<g label="Query sequence" class="clusterblast-cluster"  >
<text x="5" y="20" class="clusterblast-acc"  >
Query sequence</text>
<line x1="10" y1="35" x2="778.0" y2="35" style="stroke-width:1; stroke:grey; "  />
<polygon points="284,40 287,35 284,30 284,40 " style="fill:#d81515; stroke-width:1; stroke:black; " description="&lt;b&gt;ctg39_1&lt;/b&gt;&lt;br&gt;ctg39 1&lt;br&gt;Location: 2 - 80" locus_tag="ctg39_1" class="clusterblast-orf" id="dummy-1_q0_0_all"  />
<polygon points="293,35 298,30 358,30 358,40 298,40 293,35 " style="fill:#4dd815; stroke-width:1; stroke:black; " description="&lt;b&gt;ctg39_2&lt;/b&gt;&lt;br&gt;ctg39 2&lt;br&gt;Location: 298 - 2497" locus_tag="ctg39_2" class="clusterblast-orf" id="dummy-1_q1_0_all"  />
<polygon points="362,40 376,40 381,35 376,30 362,30 362,40 " style="fill:#1585d8; stroke-width:1; stroke:black; " description="&lt;b&gt;ctg39_3&lt;/b&gt;&lt;br&gt;ctg39 3&lt;br&gt;Location: 2633 - 3254" locus_tag="ctg39_3" class="clusterblast-orf" id="dummy-1_q2_0_all"  />
<polygon points="381,35 386,30 402,30 402,40 386,40 381,35 " style="fill:#d815bc; stroke-width:1; stroke:black; " description="&lt;b&gt;ctg39_4&lt;/b&gt;&lt;br&gt;ctg39 4&lt;br&gt;Location: 3267 - 3972" locus_tag="ctg39_4" class="clusterblast-orf" id="dummy-1_q3_0_all"  />
<polygon points="404,40 417,40 422,35 417,30 404,30 404,40 " style="fill:#d8bc15; stroke-width:1; stroke:black; " description="&lt;b&gt;ctg39_5&lt;/b&gt;&lt;br&gt;ctg39 5&lt;br&gt;Location: 4035 - 4668" locus_tag="ctg39_5" class="clusterblast-orf" id="dummy-1_q4_0_all"  />
<polygon points="423,40 442,40 447,35 442,30 423,30 423,40 " style="fill:#15d885; stroke-width:1; stroke:black; " description="&lt;b&gt;ctg39_6&lt;/b&gt;&lt;br&gt;ctg39 6&lt;br&gt;Location: 4696 - 5503" locus_tag="ctg39_6" class="clusterblast-orf" id="dummy-1_q5_0_all"  />
<polygon points="448,35 453,30 453,30 453,40 453,40 448,35 " style="fill:white; stroke-width:1; stroke:black; " description="&lt;b&gt;ctg39_7&lt;/b&gt;&lt;br&gt;ctg39 7&lt;br&gt;Location: 5531 - 5699" locus_tag="ctg39_7" class="clusterblast-orf" id="dummy-1_q6_0_all"  />
<polygon points="456,40 490,40 495,35 490,30 456,30 456,40 " style="fill:#4d15d8; stroke-width:1; stroke:black; " description="&lt;b&gt;ctg39_8&lt;/b&gt;&lt;br&gt;ctg39 8&lt;br&gt;Location: 5810 - 7124" locus_tag="ctg39_8" class="clusterblast-orf" id="dummy-1_q7_0_all"  />
</g>
<g label="NZ_CP015600" description="NZ_CP015600 (3439647-3467711): Pseudomonas antarctica strain PAMC 27494 chrom... (25% of genes show similarity), thiopeptide" class="clusterblast-cluster"  >
<text x="5" y="70" class="clusterblast-acc"  >
<a xlink:href="https://antismash-db.secondarymetabolites.org/area.html?record=NZ_CP015600&amp;start=3439647&amp;end=3467711" target="_blank">NZ_CP015600 (3439647-3467711)</a>: Pseudomonas antarctica strain PAMC 27494 chrom... (25% of genes show similarity), thiopeptide</text>
<line x1="10" y1="85" x2="778.0" y2="85" style="stroke-width:1; stroke:grey; "  />
</g>
<g id="a1_000"  >
<polygon points="0,90 2,90 7,85 2,80 0,80 0,90 " style="fill:white; stroke-width:1; stroke:black; " description="&lt;b&gt;A7J50_RS15535&lt;/b&gt;&lt;br&gt;DUF2934 domain-containing protein&lt;br&gt;Location: 3441099 - 3441368" locus_tag="A7J50_RS15535" class="clusterblast-orf" id="dummy-1_h1_2_0"  />
</g>
<g id="a1_001"  >
<polygon points="11,90 70,90 75,85 70,80 11,80 11,90 " style="fill:white; stroke-width:1; stroke:black; " description="&lt;b&gt;A7J50_RS15540&lt;/b&gt;&lt;br&gt;glycogen debranching protein GlgX&lt;br&gt;Location: 3441500 - 3443656" locus_tag="A7J50_RS15540" class="clusterblast-orf" id="dummy-1_h1_2_1"  />
</g>
<g id="a1_002"  >
<polygon points="75,90 100,90 105,85 100,80 75,80 75,90 " style="fill:white; stroke-width:1; stroke:black; " description="&lt;b&gt;A7J50_RS15545&lt;/b&gt;&lt;br&gt;hypothetical protein&lt;br&gt;Location: 3443658 - 3444656" locus_tag="A7J50_RS15545" class="clusterblast-orf" id="dummy-1_h1_2_2"  />
</g>
<g id="a1_003"  >
<polygon points="105,90 122,90 127,85 122,80 105,80 105,90 " style="fill:white; stroke-width:1; stroke:black; " description="&lt;b&gt;A7J50_RS15550&lt;/b&gt;&lt;br&gt;PIG-L family deacetylase&lt;br&gt;Location: 3444653 - 3445411" locus_tag="A7J50_RS15550" class="clusterblast-orf" id="dummy-1_h1_2_3"  />
</g>
<g id="a1_004"  >
<polygon points="127,90 140,90 145,85 140,80 127,80 127,90 " style="fill:white; stroke-width:1; stroke:black; " description="&lt;b&gt;A7J50_RS15555&lt;/b&gt;&lt;br&gt;methyltransferase domain-containing protein&lt;br&gt;Location: 3445408 - 3446007" locus_tag="A7J50_RS15555" class="clusterblast-orf" id="dummy-1_h1_2_4"  />
</g>
<g id="a1_005"  >
<polygon points="145,90 159,90 164,85 159,80 145,80 145,90 " style="fill:white; stroke-width:1; stroke:black; " description="&lt;b&gt;A7J50_RS15560&lt;/b&gt;&lt;br&gt;glycosyltransferase family 2 protein&lt;br&gt;Location: 3446004 - 3446663" locus_tag="A7J50_RS15560" class="clusterblast-orf" id="dummy-1_h1_2_5"  />
</g>
<g id="a1_006"  >
<polygon points="170,90 187,90 192,85 187,80 170,80 170,90 " style="fill:white; stroke-width:1; stroke:black; " description="&lt;b&gt;A7J50_RS15565&lt;/b&gt;&lt;br&gt;PIG-L family deacetylase&lt;br&gt;Location: 3446854 - 3447615" locus_tag="A7J50_RS15565" class="clusterblast-orf" id="dummy-1_h1_2_6"  />
</g>
<g id="a1_007"  >
<polygon points="196,90 222,90 227,85 222,80 196,80 196,90 " style="fill:white; stroke-width:1; stroke:black; " description="&lt;b&gt;A7J50_RS15570&lt;/b&gt;&lt;br&gt;alpha/beta hydrolase&lt;br&gt;Location: 3447755 - 3448774" locus_tag="A7J50_RS15570" class="clusterblast-orf" id="dummy-1_h1_2_7"  />
</g>
<g id="a1_008"  >
<polygon points="233,90 246,90 251,85 246,80 233,80 233,90 " style="fill:white; stroke-width:1; stroke:black; " description="&lt;b&gt;A7J50_RS15575&lt;/b&gt;&lt;br&gt;LysE family translocator&lt;br&gt;Location: 3448997 - 3449617" locus_tag="A7J50_RS15575" class="clusterblast-orf" id="dummy-1_h1_2_8"  />
</g>
<g id="a1_009"  >
<polygon points="252,90 259,90 264,85 259,80 252,80 252,90 " style="fill:white; stroke-width:1; stroke:black; " description="&lt;b&gt;A7J50_RS15580&lt;/b&gt;&lt;br&gt;SnoaL-like domain-containing protein&lt;br&gt;Location: 3449648 - 3450040" locus_tag="A7J50_RS15580" class="clusterblast-orf" id="dummy-1_h1_2_9"  />
</g>
<g id="a1_0010"  >
<polygon points="264,90 267,85 264,80 264,90 " style="fill:white; stroke-width:1; stroke:black; " description="&lt;b&gt;A7J50_RS31395&lt;/b&gt;&lt;br&gt;VOC family protein&lt;br&gt;Location: 3450050 - 3450151" locus_tag="A7J50_RS31395" class="clusterblast-orf" id="dummy-1_h1_2_10"  />
</g>
<g id="a1_0011"  >
<polygon points="270,90 294,90 299,85 294,80 270,80 270,90 " style="fill:white; stroke-width:1; stroke:black; " description="&lt;b&gt;A7J50_RS15585&lt;/b&gt;&lt;br&gt;alpha/beta hydrolase&lt;br&gt;Location: 3450256 - 3451233" locus_tag="A7J50_RS15585" class="clusterblast-orf" id="dummy-1_h1_2_11"  />
</g>
<g id="a1_0012"  >
<polygon points="308,90 328,90 333,85 328,80 308,80 308,90 " style="fill:white; stroke-width:1; stroke:black; " description="&lt;b&gt;A7J50_RS15590&lt;/b&gt;&lt;br&gt;4-hydroxy-tetrahydrodipicolinate synthase&lt;br&gt;Location: 3451519 - 3452370" locus_tag="A7J50_RS15590" class="clusterblast-orf" id="dummy-1_h1_2_12"  />
</g>
<g id="a1_0013"  >
<polygon points="337,90 373,90 378,85 373,80 337,80 337,90 " style="fill:white; stroke-width:1; stroke:black; " description="&lt;b&gt;A7J50_RS15595&lt;/b&gt;&lt;br&gt;pyridoxal-phosphate dependent enzyme&lt;br&gt;Location: 3452515 - 3453891" locus_tag="A7J50_RS15595" class="clusterblast-orf" id="dummy-1_h1_2_13"  />
</g>
<g id="a1_0014"  >
<polygon points="378,90 407,90 412,85 407,80 378,80 378,90 " style="fill:#d81515; stroke-width:1; stroke:black; " description="&lt;b&gt;A7J50_RS15600&lt;/b&gt;&lt;br&gt;cystathionine gamma-synthase&lt;br&gt;Location: 3453888 - 3455054&lt;br&gt;&lt;br&gt;&lt;b&gt;BlastP hit with ctg39_1&lt;/b&gt;&lt;br&gt;Percentage identity: 100&lt;br&gt;Percentage coverage: 100&lt;br&gt;BLAST bit score: 57&lt;br&gt;E-value: 4.01e-10" locus_tag="A7J50_RS15600" class="clusterblast-orf" id="dummy-1_h1_2_14"  />
</g>
<g id="a1_0015"  >
<polygon points="426,85 431,80 491,80 491,90 431,90 426,85 " style="fill:#4dd815; stroke-width:1; stroke:black; " description="&lt;b&gt;A7J50_RS15605&lt;/b&gt;&lt;br&gt;OsmC domain/YcaO domain-containing protein&lt;br&gt;Location: 3455513 - 3457711&lt;br&gt;&lt;br&gt;&lt;b&gt;BlastP hit with ctg39_2&lt;/b&gt;&lt;br&gt;Percentage identity: 100&lt;br&gt;Percentage coverage: 100&lt;br&gt;BLAST bit score: 1474&lt;br&gt;E-value: 0.0" locus_tag="A7J50_RS15605" class="clusterblast-orf" id="dummy-1_h1_2_15"  />
</g>
<g id="a1_0016"  >
<polygon points="495,90 508,90 513,85 508,80 495,80 495,90 " style="fill:#1585d8; stroke-width:1; stroke:black; " description="&lt;b&gt;A7J50_RS15610&lt;/b&gt;&lt;br&gt;LysE family translocator&lt;br&gt;Location: 3457848 - 3458468&lt;br&gt;&lt;br&gt;&lt;b&gt;BlastP hit with ctg39_3&lt;/b&gt;&lt;br&gt;Percentage identity: 99&lt;br&gt;Percentage coverage: 100&lt;br&gt;BLAST bit score: 397&lt;br&gt;E-value: 2e-141" locus_tag="A7J50_RS15610" class="clusterblast-orf" id="dummy-1_h1_2_16"  />
</g>
<g id="a1_0017"  >
<polygon points="514,85 519,80 533,80 533,90 519,90 514,85 " style="fill:#d815bc; stroke-width:1; stroke:black; " description="&lt;b&gt;A7J50_RS15615&lt;/b&gt;&lt;br&gt;methyltransferase&lt;br&gt;Location: 3458482 - 3459138&lt;br&gt;&lt;br&gt;&lt;b&gt;BlastP hit with ctg39_4&lt;/b&gt;&lt;br&gt;Percentage identity: 99&lt;br&gt;Percentage coverage: 93&lt;br&gt;BLAST bit score: 421&lt;br&gt;E-value: 6.82e-150" locus_tag="A7J50_RS15615" class="clusterblast-orf" id="dummy-1_h1_2_17"  />
</g>
<g id="a1_0018"  >
<polygon points="536,90 550,90 555,85 550,80 536,80 536,90 " style="fill:#d8bc15; stroke-width:1; stroke:black; " description="&lt;b&gt;A7J50_RS15620&lt;/b&gt;&lt;br&gt;TetR/AcrR family transcriptional regulator&lt;br&gt;Location: 3459250 - 3459882&lt;br&gt;&lt;br&gt;&lt;b&gt;BlastP hit with ctg39_5&lt;/b&gt;&lt;br&gt;Percentage identity: 99&lt;br&gt;Percentage coverage: 100&lt;br&gt;BLAST bit score: 394&lt;br&gt;E-value: 4.51e-140" locus_tag="A7J50_RS15620" class="clusterblast-orf" id="dummy-1_h1_2_18"  />
</g>
<g id="a1_0019"  >
<polygon points="556,90 575,90 580,85 575,80 556,80 556,90 " style="fill:#15d885; stroke-width:1; stroke:black; " description="&lt;b&gt;A7J50_RS15625&lt;/b&gt;&lt;br&gt;Suppressor of fused protein (SUFU)&lt;br&gt;Location: 3459911 - 3460717&lt;br&gt;&lt;br&gt;&lt;b&gt;BlastP hit with ctg39_6&lt;/b&gt;&lt;br&gt;Percentage identity: 100&lt;br&gt;Percentage coverage: 100&lt;br&gt;BLAST bit score: 531&lt;br&gt;E-value: 2.08e-192" locus_tag="A7J50_RS15625" class="clusterblast-orf" id="dummy-1_h1_2_19"  />
</g>
<g id="a1_0020"  >
<polygon points="583,90 587,85 583,80 583,90 " style="fill:white; stroke-width:1; stroke:black; " description="&lt;b&gt;A7J50_RS31655&lt;/b&gt;&lt;br&gt;hypothetical protein&lt;br&gt;Location: 3460819 - 3460974" locus_tag="A7J50_RS31655" class="clusterblast-orf" id="dummy-1_h1_2_20"  />
</g>
<g id="a1_0021"  >
<polygon points="589,90 623,90 628,85 623,80 589,80 589,90 " style="fill:#4d15d8; stroke-width:1; stroke:black; " description="&lt;b&gt;A7J50_RS15630&lt;/b&gt;&lt;br&gt;FAD-binding oxidoreductase&lt;br&gt;Location: 3461025 - 3462338&lt;br&gt;&lt;br&gt;&lt;b&gt;BlastP hit with ctg39_8&lt;/b&gt;&lt;br&gt;Percentage identity: 99&lt;br&gt;Percentage coverage: 100&lt;br&gt;BLAST bit score: 878&lt;br&gt;E-value: 0.0" locus_tag="A7J50_RS15630" class="clusterblast-orf" id="dummy-1_h1_2_21"  />
</g>
<g id="a1_0022"  >
<polygon points="630,90 642,90 647,85 642,80 630,80 630,90 " style="fill:white; stroke-width:1; stroke:black; " description="&lt;b&gt;A7J50_RS15635&lt;/b&gt;&lt;br&gt;cysteine hydrolase&lt;br&gt;Location: 3462408 - 3462986" locus_tag="A7J50_RS15635" class="clusterblast-orf" id="dummy-1_h1_2_22"  />
</g>
<g id="a1_0023"  >
<polygon points="648,85 653,80 661,80 661,90 653,90 648,85 " style="fill:white; stroke-width:1; stroke:black; " description="&lt;b&gt;A7J50_RS15640&lt;/b&gt;&lt;br&gt;NUDIX domain-containing protein&lt;br&gt;Location: 3463030 - 3463479" locus_tag="A7J50_RS15640" class="clusterblast-orf" id="dummy-1_h1_2_23"  />
</g>
<g id="a1_0024"  >
<polygon points="661,85 666,80 675,80 675,90 666,90 661,85 " style="fill:white; stroke-width:1; stroke:black; " description="&lt;b&gt;A7J50_RS15645&lt;/b&gt;&lt;br&gt;VOC family protein&lt;br&gt;Location: 3463472 - 3463927" locus_tag="A7J50_RS15645" class="clusterblast-orf" id="dummy-1_h1_2_24"  />
</g>
<g id="a1_0025"  >
<polygon points="675,85 680,80 688,80 688,90 680,90 675,85 " style="fill:white; stroke-width:1; stroke:black; " description="&lt;b&gt;A7J50_RS15650&lt;/b&gt;&lt;br&gt;hypothetical protein&lt;br&gt;Location: 3463948 - 3464376" locus_tag="A7J50_RS15650" class="clusterblast-orf" id="dummy-1_h1_2_25"  />
</g>
<g id="a1_0026"  >
<polygon points="697,90 749,90 754,85 749,80 697,80 697,90 " style="fill:white; stroke-width:1; stroke:black; " description="&lt;b&gt;A7J50_RS15655&lt;/b&gt;&lt;br&gt;methyl-accepting chemotaxis protein&lt;br&gt;Location: 3464680 - 3466620" locus_tag="A7J50_RS15655" class="clusterblast-orf" id="dummy-1_h1_2_26"  />
</g>
<g id="a1_0027"  >
<polygon points="757,85 762,80 780,80 780,90 762,90 757,85 " style="fill:white; stroke-width:1; stroke:black; " description="&lt;b&gt;A7J50_RS15660&lt;/b&gt;&lt;br&gt;nucleotidyltransferase domain-containing protein&lt;br&gt;Location: 3466700 - 3467470" locus_tag="A7J50_RS15660" class="clusterblast-orf" id="dummy-1_h1_2_27"  />
</g>
</svg>
