<svg xmlns="http://www.w3.org/2000/svg" xmlns:xlink="http://www.w3.org/1999/xlink" version="1.1" x="0" y="0" height="230" width="800" viewBox="0 0 800 230" preserveAspectRatio="none"  >
<g label="Query sequence" class="clusterblast-cluster"  >
<text x="5" y="20" class="clusterblast-acc"  >
Query sequence</text>
<line x1="10" y1="35" x2="778.0" y2="35" style="stroke-width:1; stroke:grey; "  />
<polygon points="2,40 63,40 68,35 63,30 2,30 2,40 " style="fill:#d81515; stroke-width:1; stroke:black; " description="&lt;b&gt;ctg15_33&lt;/b&gt;&lt;br&gt;ctg15 33&lt;br&gt;Location: 34497 - 35265" locus_tag="ctg15_33" class="clusterblast-orf" id="dummy-1_q0_0_all"  />
<polygon points="68,40 123,40 128,35 123,30 68,30 68,40 " style="fill:#d81515; stroke-width:1; stroke:black; " description="&lt;b&gt;ctg15_34&lt;/b&gt;&lt;br&gt;ctg15 34&lt;br&gt;Location: 35266 - 35968" locus_tag="ctg15_34" class="clusterblast-orf" id="dummy-1_q1_0_all"  />
<polygon points="132,35 137,30 243,30 243,40 137,40 132,35 " style="fill:#3cd815; stroke-width:1; stroke:black; " description="&lt;b&gt;ctg15_35&lt;/b&gt;&lt;br&gt;ctg15 35&lt;br&gt;Location: 36019 - 37312" locus_tag="ctg15_35" class="clusterblast-orf" id="dummy-1_q2_0_all"  />
<polygon points="244,35 249,30 327,30 327,40 249,40 244,35 " style="fill:#1563d8; stroke-width:1; stroke:black; " description="&lt;b&gt;ctg15_36&lt;/b&gt;&lt;br&gt;ctg15 36&lt;br&gt;Location: 37324 - 38302" locus_tag="ctg15_36" class="clusterblast-orf" id="dummy-1_q3_0_all"  />
<polygon points="365,40 386,40 391,35 386,30 365,30 365,40 " style="fill:#b115d8; stroke-width:1; stroke:black; " description="&lt;b&gt;ctg15_37&lt;/b&gt;&lt;br&gt;ctg15 37&lt;br&gt;Location: 38743 - 39049" locus_tag="ctg15_37" class="clusterblast-orf" id="dummy-1_q4_0_all"  />
<polygon points="393,40 463,40 468,35 463,30 393,30 393,40 " style="fill:#d88a15; stroke-width:1; stroke:black; " description="&lt;b&gt;ctg15_38&lt;/b&gt;&lt;br&gt;ctg15 38&lt;br&gt;Location: 39072 - 39954" locus_tag="ctg15_38" class="clusterblast-orf" id="dummy-1_q5_0_all"  />
<polygon points="468,40 529,40 534,35 529,30 468,30 468,40 " style="fill:#15d863; stroke-width:1; stroke:black; " description="&lt;b&gt;ctg15_39&lt;/b&gt;&lt;br&gt;ctg15 39&lt;br&gt;Location: 39950 - 40727" locus_tag="ctg15_39" class="clusterblast-orf" id="dummy-1_q6_0_all"  />
<polygon points="534,40 570,40 575,35 570,30 534,30 534,40 " style="fill:#3c15d8; stroke-width:1; stroke:black; " description="&lt;b&gt;ctg15_40&lt;/b&gt;&lt;br&gt;ctg15 40&lt;br&gt;Location: 40723 - 41209" locus_tag="ctg15_40" class="clusterblast-orf" id="dummy-1_q7_0_all"  />
<polygon points="575,35 580,30 653,30 653,40 580,40 575,35 " style="fill:#d8158a; stroke-width:1; stroke:black; " description="&lt;b&gt;ctg15_41&lt;/b&gt;&lt;br&gt;ctg15 41&lt;br&gt;Location: 41205 - 42114" locus_tag="ctg15_41" class="clusterblast-orf" id="dummy-1_q8_0_all"  />
<polygon points="661,40 708,40 713,35 708,30 661,30 661,40 " style="fill:#b1d815; stroke-width:1; stroke:black; " description="&lt;b&gt;ctg15_42&lt;/b&gt;&lt;br&gt;ctg15 42&lt;br&gt;Location: 42217 - 42817" locus_tag="ctg15_42" class="clusterblast-orf" id="dummy-1_q9_0_all"  />
<polygon points="721,40 773,40 778,35 773,30 721,30 721,40 " style="fill:#15d8d8; stroke-width:1; stroke:black; " description="&lt;b&gt;ctg15_43&lt;/b&gt;&lt;br&gt;ctg15 43&lt;br&gt;Location: 42914 - 43586" locus_tag="ctg15_43" class="clusterblast-orf" id="dummy-1_q10_0_all"  />
</g>
<g label="NZ_FNOX01000001" description="NZ_FNOX01000001 (822671-833559): Pseudomonas salomonii strain ICMP 14252, who... (90% of genes show similarity), bacteriocin" class="clusterblast-cluster"  >
<text x="5" y="70" class="clusterblast-acc"  >
<a xlink:href="https://antismash-db.secondarymetabolites.org/area.html?record=NZ_FNOX01000001&amp;start=822671&amp;end=833559" target="_blank">NZ_FNOX01000001 (822671-833559)</a>: Pseudomonas salomonii strain ICMP 14252, who... (90% of genes show similarity), bacteriocin</text>
<line x1="10" y1="85" x2="778.0" y2="85" style="stroke-width:1; stroke:grey; "  />
</g>
<g id="a1_000"  >
<polygon points="0,90 101,90 106,85 101,80 0,80 0,90 " style="fill:white; stroke-width:1; stroke:black; " description="&lt;b&gt;BLV67_RS03980&lt;/b&gt;&lt;br&gt;high-affinity branched-chain amino acid ABC transporter permease LivM&lt;br&gt;Location: 833176 - 831923" locus_tag="BLV67_RS03980" class="clusterblast-orf" id="dummy-1_h1_4_0"  />
</g>
<g id="a1_001"  >
<polygon points="106,90 167,90 172,85 167,80 106,80 106,90 " style="fill:#d81515; stroke-width:1; stroke:black; " description="&lt;b&gt;BLV67_RS03975&lt;/b&gt;&lt;br&gt;high-affinity branched-chain amino acid ABC transporter ATP-binding protein LivG&lt;br&gt;Location: 831926 - 831159&lt;br&gt;&lt;br&gt;&lt;b&gt;BlastP hit with ctg15_33&lt;/b&gt;&lt;br&gt;Percentage identity: 99&lt;br&gt;Percentage coverage: 100&lt;br&gt;BLAST bit score: 499&lt;br&gt;E-value: 6.92e-180&lt;br&gt;&lt;br&gt;&lt;b&gt;BlastP hit with ctg15_34&lt;/b&gt;&lt;br&gt;Percentage identity: 32&lt;br&gt;Percentage coverage: 107&lt;br&gt;BLAST bit score: 121&lt;br&gt;E-value: 1.46e-31" locus_tag="BLV67_RS03975" class="clusterblast-orf" id="dummy-1_h1_4_1"  />
</g>
<g id="a1_002"  >
<polygon points="172,90 227,90 232,85 227,80 172,80 172,90 " style="fill:#d81515; stroke-width:1; stroke:black; " description="&lt;b&gt;BLV67_RS03970&lt;/b&gt;&lt;br&gt;ABC transporter ATP-binding protein&lt;br&gt;Location: 831157 - 830456&lt;br&gt;&lt;br&gt;&lt;b&gt;BlastP hit with ctg15_33&lt;/b&gt;&lt;br&gt;Percentage identity: 33&lt;br&gt;Percentage coverage: 100&lt;br&gt;BLAST bit score: 125&lt;br&gt;E-value: 3.77e-33&lt;br&gt;&lt;br&gt;&lt;b&gt;BlastP hit with ctg15_34&lt;/b&gt;&lt;br&gt;Percentage identity: 100&lt;br&gt;Percentage coverage: 100&lt;br&gt;BLAST bit score: 449&lt;br&gt;E-value: 5.9e-161" locus_tag="BLV67_RS03970" class="clusterblast-orf" id="dummy-1_h1_4_2"  />
</g>
<g id="a1_003"  >
<polygon points="236,85 241,80 346,80 346,90 241,90 236,85 " style="fill:#3cd815; stroke-width:1; stroke:black; " description="&lt;b&gt;BLV67_RS03965&lt;/b&gt;&lt;br&gt;MFS transporter&lt;br&gt;Location: 830406 - 829115&lt;br&gt;&lt;br&gt;&lt;b&gt;BlastP hit with ctg15_35&lt;/b&gt;&lt;br&gt;Percentage identity: 97&lt;br&gt;Percentage coverage: 72&lt;br&gt;BLAST bit score: 546&lt;br&gt;E-value: 1.6e-194" locus_tag="BLV67_RS03965" class="clusterblast-orf" id="dummy-1_h1_4_3"  />
</g>
<g id="a1_004"  >
<polygon points="365,90 387,90 392,85 387,80 365,80 365,90 " style="fill:#b115d8; stroke-width:1; stroke:black; " description="&lt;b&gt;BLV67_RS03960&lt;/b&gt;&lt;br&gt;DUF2282 domain-containing protein&lt;br&gt;Location: 828891 - 828583&lt;br&gt;&lt;br&gt;&lt;b&gt;BlastP hit with ctg15_37&lt;/b&gt;&lt;br&gt;Percentage identity: 90&lt;br&gt;Percentage coverage: 101&lt;br&gt;BLAST bit score: 162&lt;br&gt;E-value: 1.69e-51" locus_tag="BLV67_RS03960" class="clusterblast-orf" id="dummy-1_h1_4_4"  />
</g>
<g id="a1_005"  >
<polygon points="394,90 464,90 469,85 464,80 394,80 394,90 " style="fill:#d88a15; stroke-width:1; stroke:black; " description="&lt;b&gt;BLV67_RS03955&lt;/b&gt;&lt;br&gt;DUF692 domain-containing protein&lt;br&gt;Location: 828559 - 827672&lt;br&gt;&lt;br&gt;&lt;b&gt;BlastP hit with ctg15_38&lt;/b&gt;&lt;br&gt;Percentage identity: 96&lt;br&gt;Percentage coverage: 99&lt;br&gt;BLAST bit score: 573&lt;br&gt;E-value: 3.75e-208" locus_tag="BLV67_RS03955" class="clusterblast-orf" id="dummy-1_h1_4_5"  />
</g>
<g id="a1_006"  >
<polygon points="469,90 530,90 535,85 530,80 469,80 469,90 " style="fill:#15d863; stroke-width:1; stroke:black; " description="&lt;b&gt;BLV67_RS03950&lt;/b&gt;&lt;br&gt;DUF2063 domain-containing protein&lt;br&gt;Location: 827675 - 826899&lt;br&gt;&lt;br&gt;&lt;b&gt;BlastP hit with ctg15_39&lt;/b&gt;&lt;br&gt;Percentage identity: 80&lt;br&gt;Percentage coverage: 100&lt;br&gt;BLAST bit score: 397&lt;br&gt;E-value: 1.46e-139" locus_tag="BLV67_RS03950" class="clusterblast-orf" id="dummy-1_h1_4_6"  />
</g>
<g id="a1_007"  >
<polygon points="535,90 571,90 576,85 571,80 535,80 535,90 " style="fill:#3c15d8; stroke-width:1; stroke:black; " description="&lt;b&gt;BLV67_RS03945&lt;/b&gt;&lt;br&gt;DoxX family protein&lt;br&gt;Location: 826902 - 826417&lt;br&gt;&lt;br&gt;&lt;b&gt;BlastP hit with ctg15_40&lt;/b&gt;&lt;br&gt;Percentage identity: 96&lt;br&gt;Percentage coverage: 99&lt;br&gt;BLAST bit score: 299&lt;br&gt;E-value: 5e-104" locus_tag="BLV67_RS03945" class="clusterblast-orf" id="dummy-1_h1_4_7"  />
</g>
<g id="a1_008"  >
<polygon points="576,85 581,80 654,80 654,90 581,90 576,85 " style="fill:#d8158a; stroke-width:1; stroke:black; " description="&lt;b&gt;BLV67_RS03940&lt;/b&gt;&lt;br&gt;LysR family transcriptional regulator&lt;br&gt;Location: 826426 - 825512&lt;br&gt;&lt;br&gt;&lt;b&gt;BlastP hit with ctg15_41&lt;/b&gt;&lt;br&gt;Percentage identity: 96&lt;br&gt;Percentage coverage: 100&lt;br&gt;BLAST bit score: 574&lt;br&gt;E-value: 3.73e-208" locus_tag="BLV67_RS03940" class="clusterblast-orf" id="dummy-1_h1_4_8"  />
</g>
<g id="a1_009"  >
<polygon points="663,90 709,90 714,85 709,80 663,80 663,90 " style="fill:#b1d815; stroke-width:1; stroke:black; " description="&lt;b&gt;BLV67_RS03935&lt;/b&gt;&lt;br&gt;short chain dehydrogenase&lt;br&gt;Location: 825407 - 824808&lt;br&gt;&lt;br&gt;&lt;b&gt;BlastP hit with ctg15_42&lt;/b&gt;&lt;br&gt;Percentage identity: 96&lt;br&gt;Percentage coverage: 100&lt;br&gt;BLAST bit score: 367&lt;br&gt;E-value: 9.16e-130" locus_tag="BLV67_RS03935" class="clusterblast-orf" id="dummy-1_h1_4_9"  />
</g>
<g id="a1_0010"  >
<polygon points="722,90 775,90 780,85 775,80 722,80 722,90 " style="fill:#15d8d8; stroke-width:1; stroke:black; " description="&lt;b&gt;BLV67_RS03930&lt;/b&gt;&lt;br&gt;hypothetical protein&lt;br&gt;Location: 824710 - 824039&lt;br&gt;&lt;br&gt;&lt;b&gt;BlastP hit with ctg15_43&lt;/b&gt;&lt;br&gt;Percentage identity: 96&lt;br&gt;Percentage coverage: 100&lt;br&gt;BLAST bit score: 432&lt;br&gt;E-value: 1.99e-154" locus_tag="BLV67_RS03930" class="clusterblast-orf" id="dummy-1_h1_4_10"  />
</g>
</svg>
