<svg xmlns="http://www.w3.org/2000/svg" xmlns:xlink="http://www.w3.org/1999/xlink" version="1.1" x="0" y="0" height="230" width="800" viewBox="0 0 800 230" preserveAspectRatio="none"  >
<g label="Query sequence" class="clusterblast-cluster"  >
<text x="5" y="20" class="clusterblast-acc"  >
Query sequence</text>
<line x1="10" y1="35" x2="778.0" y2="35" style="stroke-width:1; stroke:grey; "  />
<polygon points="290,40 292,35 290,30 290,40 " style="fill:#d81515; stroke-width:1; stroke:black; " description="&lt;b&gt;ctg39_1&lt;/b&gt;&lt;br&gt;ctg39 1&lt;br&gt;Location: 2 - 80" locus_tag="ctg39_1" class="clusterblast-orf" id="dummy-1_q0_0_all"  />
<polygon points="298,35 303,30 360,30 360,40 303,40 298,35 " style="fill:#4dd815; stroke-width:1; stroke:black; " description="&lt;b&gt;ctg39_2&lt;/b&gt;&lt;br&gt;ctg39 2&lt;br&gt;Location: 298 - 2497" locus_tag="ctg39_2" class="clusterblast-orf" id="dummy-1_q1_0_all"  />
<polygon points="364,40 376,40 381,35 376,30 364,30 364,40 " style="fill:#1585d8; stroke-width:1; stroke:black; " description="&lt;b&gt;ctg39_3&lt;/b&gt;&lt;br&gt;ctg39 3&lt;br&gt;Location: 2633 - 3254" locus_tag="ctg39_3" class="clusterblast-orf" id="dummy-1_q2_0_all"  />
<polygon points="381,35 386,30 401,30 401,40 386,40 381,35 " style="fill:#d815bc; stroke-width:1; stroke:black; " description="&lt;b&gt;ctg39_4&lt;/b&gt;&lt;br&gt;ctg39 4&lt;br&gt;Location: 3267 - 3972" locus_tag="ctg39_4" class="clusterblast-orf" id="dummy-1_q3_0_all"  />
<polygon points="403,40 416,40 421,35 416,30 403,30 403,40 " style="fill:#d8bc15; stroke-width:1; stroke:black; " description="&lt;b&gt;ctg39_5&lt;/b&gt;&lt;br&gt;ctg39 5&lt;br&gt;Location: 4035 - 4668" locus_tag="ctg39_5" class="clusterblast-orf" id="dummy-1_q4_0_all"  />
<polygon points="422,40 439,40 444,35 439,30 422,30 422,40 " style="fill:#15d885; stroke-width:1; stroke:black; " description="&lt;b&gt;ctg39_6&lt;/b&gt;&lt;br&gt;ctg39 6&lt;br&gt;Location: 4696 - 5503" locus_tag="ctg39_6" class="clusterblast-orf" id="dummy-1_q5_0_all"  />
<polygon points="445,35 450,30 450,30 450,40 450,40 445,35 " style="fill:white; stroke-width:1; stroke:black; " description="&lt;b&gt;ctg39_7&lt;/b&gt;&lt;br&gt;ctg39 7&lt;br&gt;Location: 5531 - 5699" locus_tag="ctg39_7" class="clusterblast-orf" id="dummy-1_q6_0_all"  />
<polygon points="453,40 485,40 490,35 485,30 453,30 453,40 " style="fill:#4d15d8; stroke-width:1; stroke:black; " description="&lt;b&gt;ctg39_8&lt;/b&gt;&lt;br&gt;ctg39 8&lt;br&gt;Location: 5810 - 7124" locus_tag="ctg39_8" class="clusterblast-orf" id="dummy-1_q7_0_all"  />
</g>
<g label="NZ_CP023272" description="NZ_CP023272 (3235529-3264084): Pseudomonas lurida strain MYb11 chromosome, co... (21% of genes show similarity), thiopeptide" class="clusterblast-cluster"  >
<text x="5" y="70" class="clusterblast-acc"  >
<a xlink:href="https://antismash-db.secondarymetabolites.org/area.html?record=NZ_CP023272&amp;start=3235529&amp;end=3264084" target="_blank">NZ_CP023272 (3235529-3264084)</a>: Pseudomonas lurida strain MYb11 chromosome, co... (21% of genes show similarity), thiopeptide</text>
<line x1="10" y1="85" x2="778.0" y2="85" style="stroke-width:1; stroke:grey; "  />
</g>
<g id="a1_000"  >
<polygon points="0,90 55,90 60,85 55,80 0,80 0,90 " style="fill:white; stroke-width:1; stroke:black; " description="&lt;b&gt;CLM75_RS14640&lt;/b&gt;&lt;br&gt;TonB-dependent siderophore receptor&lt;br&gt;Location: 3236043 - 3238196" locus_tag="CLM75_RS14640" class="clusterblast-orf" id="dummy-1_h1_7_0"  />
</g>
<g id="a1_001"  >
<polygon points="65,90 102,90 107,85 102,80 65,80 65,90 " style="fill:white; stroke-width:1; stroke:black; " description="&lt;b&gt;CLM75_RS14645&lt;/b&gt;&lt;br&gt;methyl-accepting chemotaxis protein&lt;br&gt;Location: 3238363 - 3239856" locus_tag="CLM75_RS14645" class="clusterblast-orf" id="dummy-1_h1_7_1"  />
</g>
<g id="a1_002"  >
<polygon points="117,90 150,90 155,85 150,80 117,80 117,90 " style="fill:white; stroke-width:1; stroke:black; " description="&lt;b&gt;CLM75_RS14650&lt;/b&gt;&lt;br&gt;MFS transporter&lt;br&gt;Location: 3240230 - 3241567" locus_tag="CLM75_RS14650" class="clusterblast-orf" id="dummy-1_h1_7_2"  />
</g>
<g id="a1_003"  >
<polygon points="180,90 188,90 193,85 188,80 180,80 180,90 " style="fill:white; stroke-width:1; stroke:black; " description="&lt;b&gt;CLM75_RS14655&lt;/b&gt;&lt;br&gt;thiol-disulfide oxidoreductase DCC family protein&lt;br&gt;Location: 3242456 - 3242908" locus_tag="CLM75_RS14655" class="clusterblast-orf" id="dummy-1_h1_7_3"  />
</g>
<g id="a1_004"  >
<polygon points="192,85 197,80 214,80 214,90 197,90 192,85 " style="fill:white; stroke-width:1; stroke:black; " description="&lt;b&gt;CLM75_RS14660&lt;/b&gt;&lt;br&gt;NAD(P)-binding domain-containing protein&lt;br&gt;Location: 3242903 - 3243670" locus_tag="CLM75_RS14660" class="clusterblast-orf" id="dummy-1_h1_7_4"  />
</g>
<g id="a1_005"  >
<polygon points="218,90 223,90 228,85 223,80 218,80 218,90 " style="fill:white; stroke-width:1; stroke:black; " description="&lt;b&gt;CLM75_RS14665&lt;/b&gt;&lt;br&gt;VOC family protein&lt;br&gt;Location: 3243801 - 3244172" locus_tag="CLM75_RS14665" class="clusterblast-orf" id="dummy-1_h1_7_5"  />
</g>
<g id="a1_006"  >
<polygon points="230,90 240,90 245,85 240,80 230,80 230,90 " style="fill:white; stroke-width:1; stroke:black; " description="&lt;b&gt;CLM75_RS14670&lt;/b&gt;&lt;br&gt;adenylate kinase&lt;br&gt;Location: 3244239 - 3244775" locus_tag="CLM75_RS14670" class="clusterblast-orf" id="dummy-1_h1_7_6"  />
</g>
<g id="a1_007"  >
<polygon points="248,90 260,90 265,85 260,80 248,80 248,90 " style="fill:white; stroke-width:1; stroke:black; " description="&lt;b&gt;CLM75_RS14675&lt;/b&gt;&lt;br&gt;LysE family translocator&lt;br&gt;Location: 3244871 - 3245491" locus_tag="CLM75_RS14675" class="clusterblast-orf" id="dummy-1_h1_7_7"  />
</g>
<g id="a1_008"  >
<polygon points="266,90 272,90 277,85 272,80 266,80 266,90 " style="fill:white; stroke-width:1; stroke:black; " description="&lt;b&gt;CLM75_RS14680&lt;/b&gt;&lt;br&gt;ester cyclase&lt;br&gt;Location: 3245530 - 3245922" locus_tag="CLM75_RS14680" class="clusterblast-orf" id="dummy-1_h1_7_8"  />
</g>
<g id="a1_009"  >
<polygon points="278,90 287,90 292,85 287,80 278,80 278,90 " style="fill:white; stroke-width:1; stroke:black; " description="&lt;b&gt;CLM75_RS14685&lt;/b&gt;&lt;br&gt;VOC family protein&lt;br&gt;Location: 3245957 - 3246436" locus_tag="CLM75_RS14685" class="clusterblast-orf" id="dummy-1_h1_7_9"  />
</g>
<g id="a1_0010"  >
<polygon points="295,90 330,90 335,85 330,80 295,80 295,90 " style="fill:white; stroke-width:1; stroke:black; " description="&lt;b&gt;CLM75_RS14690&lt;/b&gt;&lt;br&gt;hypothetical protein&lt;br&gt;Location: 3246561 - 3247952" locus_tag="CLM75_RS14690" class="clusterblast-orf" id="dummy-1_h1_7_10"  />
</g>
<g id="a1_0011"  >
<polygon points="343,90 362,90 367,85 362,80 343,80 343,90 " style="fill:white; stroke-width:1; stroke:black; " description="&lt;b&gt;CLM75_RS14695&lt;/b&gt;&lt;br&gt;4-hydroxy-tetrahydrodipicolinate synthase&lt;br&gt;Location: 3248246 - 3249109" locus_tag="CLM75_RS14695" class="clusterblast-orf" id="dummy-1_h1_7_11"  />
</g>
<g id="a1_0012"  >
<polygon points="370,90 404,90 409,85 404,80 370,80 370,90 " style="fill:white; stroke-width:1; stroke:black; " description="&lt;b&gt;CLM75_RS14700&lt;/b&gt;&lt;br&gt;cystathionine beta-synthase&lt;br&gt;Location: 3249226 - 3250602" locus_tag="CLM75_RS14700" class="clusterblast-orf" id="dummy-1_h1_7_12"  />
</g>
<g id="a1_0013"  >
<polygon points="409,90 437,90 442,85 437,80 409,80 409,90 " style="fill:#d81515; stroke-width:1; stroke:black; " description="&lt;b&gt;CLM75_RS14705&lt;/b&gt;&lt;br&gt;cystathionine gamma-synthase&lt;br&gt;Location: 3250599 - 3251765&lt;br&gt;&lt;br&gt;&lt;b&gt;BlastP hit with ctg39_1&lt;/b&gt;&lt;br&gt;Percentage identity: 96&lt;br&gt;Percentage coverage: 100&lt;br&gt;BLAST bit score: 56&lt;br&gt;E-value: 5.48e-10" locus_tag="CLM75_RS14705" class="clusterblast-orf" id="dummy-1_h1_7_13"  />
</g>
<g id="a1_0014"  >
<polygon points="445,85 450,80 507,80 507,90 450,90 445,85 " style="fill:#4dd815; stroke-width:1; stroke:black; " description="&lt;b&gt;CLM75_RS14710&lt;/b&gt;&lt;br&gt;OsmC domain/YcaO domain-containing protein&lt;br&gt;Location: 3251886 - 3254084&lt;br&gt;&lt;br&gt;&lt;b&gt;BlastP hit with ctg39_2&lt;/b&gt;&lt;br&gt;Percentage identity: 95&lt;br&gt;Percentage coverage: 100&lt;br&gt;BLAST bit score: 1416&lt;br&gt;E-value: 0.0" locus_tag="CLM75_RS14710" class="clusterblast-orf" id="dummy-1_h1_7_14"  />
</g>
<g id="a1_0015"  >
<polygon points="512,90 551,90 556,85 551,80 512,80 512,90 " style="fill:white; stroke-width:1; stroke:black; " description="&lt;b&gt;CLM75_RS14715&lt;/b&gt;&lt;br&gt;methyl-accepting chemotaxis protein&lt;br&gt;Location: 3254248 - 3255813" locus_tag="CLM75_RS14715" class="clusterblast-orf" id="dummy-1_h1_7_15"  />
</g>
<g id="a1_0016"  >
<polygon points="559,90 572,90 577,85 572,80 559,80 559,90 " style="fill:#1585d8; stroke-width:1; stroke:black; " description="&lt;b&gt;CLM75_RS14720&lt;/b&gt;&lt;br&gt;LysE family translocator&lt;br&gt;Location: 3255941 - 3256561&lt;br&gt;&lt;br&gt;&lt;b&gt;BlastP hit with ctg39_3&lt;/b&gt;&lt;br&gt;Percentage identity: 89&lt;br&gt;Percentage coverage: 100&lt;br&gt;BLAST bit score: 365&lt;br&gt;E-value: 1.28e-128" locus_tag="CLM75_RS14720" class="clusterblast-orf" id="dummy-1_h1_7_16"  />
</g>
<g id="a1_0017"  >
<polygon points="579,85 584,80 597,80 597,90 584,90 579,85 " style="fill:#d815bc; stroke-width:1; stroke:black; " description="&lt;b&gt;CLM75_RS14725&lt;/b&gt;&lt;br&gt;class I SAM-dependent methyltransferase&lt;br&gt;Location: 3256634 - 3257290&lt;br&gt;&lt;br&gt;&lt;b&gt;BlastP hit with ctg39_4&lt;/b&gt;&lt;br&gt;Percentage identity: 83&lt;br&gt;Percentage coverage: 93&lt;br&gt;BLAST bit score: 360&lt;br&gt;E-value: 8.13e-126" locus_tag="CLM75_RS14725" class="clusterblast-orf" id="dummy-1_h1_7_17"  />
</g>
<g id="a1_0018"  >
<polygon points="600,90 613,90 618,85 613,80 600,80 600,90 " style="fill:#d8bc15; stroke-width:1; stroke:black; " description="&lt;b&gt;CLM75_RS14730&lt;/b&gt;&lt;br&gt;TetR family transcriptional regulator&lt;br&gt;Location: 3257402 - 3258034&lt;br&gt;&lt;br&gt;&lt;b&gt;BlastP hit with ctg39_5&lt;/b&gt;&lt;br&gt;Percentage identity: 87&lt;br&gt;Percentage coverage: 100&lt;br&gt;BLAST bit score: 341&lt;br&gt;E-value: 6.89e-119" locus_tag="CLM75_RS14730" class="clusterblast-orf" id="dummy-1_h1_7_18"  />
</g>
<g id="a1_0019"  >
<polygon points="619,90 636,90 641,85 636,80 619,80 619,90 " style="fill:#15d885; stroke-width:1; stroke:black; " description="&lt;b&gt;CLM75_RS14735&lt;/b&gt;&lt;br&gt;suppressor of fused domain protein&lt;br&gt;Location: 3258063 - 3258863&lt;br&gt;&lt;br&gt;&lt;b&gt;BlastP hit with ctg39_6&lt;/b&gt;&lt;br&gt;Percentage identity: 77&lt;br&gt;Percentage coverage: 100&lt;br&gt;BLAST bit score: 416&lt;br&gt;E-value: 1.42e-146" locus_tag="CLM75_RS14735" class="clusterblast-orf" id="dummy-1_h1_7_19"  />
</g>
<g id="a1_0020"  >
<polygon points="648,85 653,80 660,80 660,90 653,90 648,85 " style="fill:white; stroke-width:1; stroke:black; " description="&lt;b&gt;CLM75_RS14740&lt;/b&gt;&lt;br&gt;VOC family protein&lt;br&gt;Location: 3259109 - 3259540" locus_tag="CLM75_RS14740" class="clusterblast-orf" id="dummy-1_h1_7_20"  />
</g>
<g id="a1_0021"  >
<polygon points="667,90 676,90 681,85 676,80 667,80 667,90 " style="fill:white; stroke-width:1; stroke:black; " description="&lt;b&gt;CLM75_RS14745&lt;/b&gt;&lt;br&gt;hypothetical protein&lt;br&gt;Location: 3259757 - 3260272" locus_tag="CLM75_RS14745" class="clusterblast-orf" id="dummy-1_h1_7_21"  />
</g>
<g id="a1_0022"  >
<polygon points="685,90 693,90 698,85 693,80 685,80 685,90 " style="fill:white; stroke-width:1; stroke:black; " description="&lt;b&gt;CLM75_RS14750&lt;/b&gt;&lt;br&gt;hypothetical protein&lt;br&gt;Location: 3260429 - 3260869" locus_tag="CLM75_RS14750" class="clusterblast-orf" id="dummy-1_h1_7_22"  />
</g>
<g id="a1_0023"  >
<polygon points="703,85 708,80 718,80 718,90 708,90 703,85 " style="fill:white; stroke-width:1; stroke:black; " description="&lt;b&gt;CLM75_RS14755&lt;/b&gt;&lt;br&gt;GNAT family N-acetyltransferase&lt;br&gt;Location: 3261042 - 3261590" locus_tag="CLM75_RS14755" class="clusterblast-orf" id="dummy-1_h1_7_23"  />
</g>
<g id="a1_0024"  >
<polygon points="719,85 724,80 731,80 731,90 724,90 719,85 " style="fill:white; stroke-width:1; stroke:black; " description="&lt;b&gt;CLM75_RS14760&lt;/b&gt;&lt;br&gt;hypothetical protein&lt;br&gt;Location: 3261622 - 3262041" locus_tag="CLM75_RS14760" class="clusterblast-orf" id="dummy-1_h1_7_24"  />
</g>
<g id="a1_0025"  >
<polygon points="731,85 736,80 744,80 744,90 736,90 731,85 " style="fill:white; stroke-width:1; stroke:black; " description="&lt;b&gt;CLM75_RS14765&lt;/b&gt;&lt;br&gt;hypothetical protein&lt;br&gt;Location: 3262038 - 3262514" locus_tag="CLM75_RS14765" class="clusterblast-orf" id="dummy-1_h1_7_25"  />
</g>
<g id="a1_0026"  >
<polygon points="744,85 749,80 759,80 759,90 749,90 744,85 " style="fill:white; stroke-width:1; stroke:black; " description="&lt;b&gt;CLM75_RS14770&lt;/b&gt;&lt;br&gt;GNAT family N-acetyltransferase&lt;br&gt;Location: 3262501 - 3263046" locus_tag="CLM75_RS14770" class="clusterblast-orf" id="dummy-1_h1_7_26"  />
</g>
<g id="a1_0027"  >
<polygon points="764,90 775,90 780,85 775,80 764,80 764,90 " style="fill:white; stroke-width:1; stroke:black; " description="&lt;b&gt;CLM75_RS14775&lt;/b&gt;&lt;br&gt;cysteine hydrolase&lt;br&gt;Location: 3263211 - 3263771" locus_tag="CLM75_RS14775" class="clusterblast-orf" id="dummy-1_h1_7_27"  />
</g>
</svg>
