<svg xmlns="http://www.w3.org/2000/svg" xmlns:xlink="http://www.w3.org/1999/xlink" version="1.1" x="0" y="0" height="50" width="800" viewBox="0 0 800 50" preserveAspectRatio="none"  >
<g label="Query sequence" class="clusterblast-cluster"  >
<text x="5" y="20" class="clusterblast-acc"  >
Query sequence</text>
<line x1="10" y1="35" x2="778.0" y2="35" style="stroke-width:1; stroke:grey; "  />
<polygon points="1,40 4,40 9,35 4,30 1,30 1,40 " style="fill:white; stroke-width:1; stroke:black; " description="&lt;b&gt;ctg39_1&lt;/b&gt;&lt;br&gt;ctg39 1&lt;br&gt;Location: 2 - 80" locus_tag="ctg39_1" class="clusterblast-orf" id="knownclusterblast-1_q0_0_all"  />
<polygon points="33,35 38,30 274,30 274,40 38,40 33,35 " style="fill:white; stroke-width:1; stroke:black; " description="&lt;b&gt;ctg39_2&lt;/b&gt;&lt;br&gt;ctg39 2&lt;br&gt;Location: 298 - 2497" locus_tag="ctg39_2" class="clusterblast-orf" id="knownclusterblast-1_q1_0_all"  />
<polygon points="289,40 352,40 357,35 352,30 289,30 289,40 " style="fill:white; stroke-width:1; stroke:black; " description="&lt;b&gt;ctg39_3&lt;/b&gt;&lt;br&gt;ctg39 3&lt;br&gt;Location: 2633 - 3254" locus_tag="ctg39_3" class="clusterblast-orf" id="knownclusterblast-1_q2_0_all"  />
<polygon points="358,35 363,30 435,30 435,40 363,40 358,35 " style="fill:white; stroke-width:1; stroke:black; " description="&lt;b&gt;ctg39_4&lt;/b&gt;&lt;br&gt;ctg39 4&lt;br&gt;Location: 3267 - 3972" locus_tag="ctg39_4" class="clusterblast-orf" id="knownclusterblast-1_q3_0_all"  />
<polygon points="442,40 507,40 512,35 507,30 442,30 442,40 " style="fill:white; stroke-width:1; stroke:black; " description="&lt;b&gt;ctg39_5&lt;/b&gt;&lt;br&gt;ctg39 5&lt;br&gt;Location: 4035 - 4668" locus_tag="ctg39_5" class="clusterblast-orf" id="knownclusterblast-1_q4_0_all"  />
<polygon points="515,40 598,40 603,35 598,30 515,30 515,40 " style="fill:white; stroke-width:1; stroke:black; " description="&lt;b&gt;ctg39_6&lt;/b&gt;&lt;br&gt;ctg39 6&lt;br&gt;Location: 4696 - 5503" locus_tag="ctg39_6" class="clusterblast-orf" id="knownclusterblast-1_q5_0_all"  />
<polygon points="606,35 611,30 625,30 625,40 611,40 606,35 " style="fill:white; stroke-width:1; stroke:black; " description="&lt;b&gt;ctg39_7&lt;/b&gt;&lt;br&gt;ctg39 7&lt;br&gt;Location: 5531 - 5699" locus_tag="ctg39_7" class="clusterblast-orf" id="knownclusterblast-1_q6_0_all"  />
<polygon points="637,40 776,40 781,35 776,30 637,30 637,40 " style="fill:white; stroke-width:1; stroke:black; " description="&lt;b&gt;ctg39_8&lt;/b&gt;&lt;br&gt;ctg39 8&lt;br&gt;Location: 5810 - 7124" locus_tag="ctg39_8" class="clusterblast-orf" id="knownclusterblast-1_q7_0_all"  />
</g>
</svg>
