<svg xmlns="http://www.w3.org/2000/svg" xmlns:xlink="http://www.w3.org/1999/xlink" version="1.1" x="0" y="0" height="230" width="800" viewBox="0 0 800 230" preserveAspectRatio="none"  >
<g label="Query sequence" class="clusterblast-cluster"  >
<text x="5" y="20" class="clusterblast-acc"  >
Query sequence</text>
<line x1="10" y1="35" x2="778.0" y2="35" style="stroke-width:1; stroke:grey; "  />
<polygon points="0,40 16,40 21,35 16,30 0,30 0,40 " style="fill:white; stroke-width:1; stroke:black; " description="&lt;b&gt;ctg30_9&lt;/b&gt;&lt;br&gt;ctg30 9&lt;br&gt;Location: 11156 - 12551" locus_tag="ctg30_9" class="clusterblast-orf" id="dummy-1_q0_0_all"  />
<polygon points="23,35 28,30 28,30 28,40 28,40 23,35 " style="fill:white; stroke-width:1; stroke:black; " description="&lt;b&gt;ctg30_10&lt;/b&gt;&lt;br&gt;ctg30 10&lt;br&gt;Location: 12678 - 13032" locus_tag="ctg30_10" class="clusterblast-orf" id="dummy-1_q1_0_all"  />
<polygon points="30,35 35,30 42,30 42,40 35,40 30,35 " style="fill:white; stroke-width:1; stroke:black; " description="&lt;b&gt;ctg30_11&lt;/b&gt;&lt;br&gt;ctg30 11&lt;br&gt;Location: 13116 - 13914" locus_tag="ctg30_11" class="clusterblast-orf" id="dummy-1_q2_0_all"  />
<polygon points="42,35 47,30 58,30 58,40 47,40 42,35 " style="fill:white; stroke-width:1; stroke:black; " description="&lt;b&gt;ctg30_12&lt;/b&gt;&lt;br&gt;ctg30 12&lt;br&gt;Location: 13929 - 14934" locus_tag="ctg30_12" class="clusterblast-orf" id="dummy-1_q3_0_all"  />
<polygon points="59,40 68,40 73,35 68,30 59,30 59,40 " style="fill:white; stroke-width:1; stroke:black; " description="&lt;b&gt;ctg30_13&lt;/b&gt;&lt;br&gt;ctg30 13&lt;br&gt;Location: 15047 - 15941" locus_tag="ctg30_13" class="clusterblast-orf" id="dummy-1_q4_0_all"  />
<polygon points="75,35 80,30 95,30 95,40 80,40 75,35 " style="fill:#d81515; stroke-width:1; stroke:black; " description="&lt;b&gt;ctg30_14&lt;/b&gt;&lt;br&gt;ctg30 14&lt;br&gt;Location: 16053 - 17349" locus_tag="ctg30_14" class="clusterblast-orf" id="dummy-1_q5_0_all"  />
<polygon points="94,35 99,30 111,30 111,40 99,40 94,35 " style="fill:#3cd815; stroke-width:1; stroke:black; " description="&lt;b&gt;ctg30_15&lt;/b&gt;&lt;br&gt;ctg30 15&lt;br&gt;Location: 17345 - 18434" locus_tag="ctg30_15" class="clusterblast-orf" id="dummy-1_q6_0_all"  />
<polygon points="111,35 116,30 132,30 132,40 116,40 111,35 " style="fill:white; stroke-width:1; stroke:black; " description="&lt;b&gt;ctg30_16&lt;/b&gt;&lt;br&gt;ctg30 16&lt;br&gt;Location: 18456 - 19815" locus_tag="ctg30_16" class="clusterblast-orf" id="dummy-1_q7_0_all"  />
<polygon points="136,40 143,40 148,35 143,30 136,30 136,40 " style="fill:#1563d8; stroke-width:1; stroke:black; " description="&lt;b&gt;ctg30_17&lt;/b&gt;&lt;br&gt;ctg30 17&lt;br&gt;Location: 20052 - 20850" locus_tag="ctg30_17" class="clusterblast-orf" id="dummy-1_q8_0_all"  />
<polygon points="150,40 178,40 183,35 178,30 150,30 150,40 " style="fill:#b115d8; stroke-width:1; stroke:black; " description="&lt;b&gt;ctg30_18&lt;/b&gt;&lt;br&gt;ctg30 18&lt;br&gt;Location: 20955 - 23097" locus_tag="ctg30_18" class="clusterblast-orf" id="dummy-1_q9_0_all"  />
<polygon points="182,35 187,30 200,30 200,40 187,40 182,35 " style="fill:white; stroke-width:1; stroke:black; " description="&lt;b&gt;ctg30_19&lt;/b&gt;&lt;br&gt;ctg30 19&lt;br&gt;Location: 23086 - 24217" locus_tag="ctg30_19" class="clusterblast-orf" id="dummy-1_q10_0_all"  />
<polygon points="201,40 208,40 213,35 208,30 201,30 201,40 " style="fill:white; stroke-width:1; stroke:black; " description="&lt;b&gt;ctg30_20&lt;/b&gt;&lt;br&gt;ctg30 20&lt;br&gt;Location: 24315 - 25086" locus_tag="ctg30_20" class="clusterblast-orf" id="dummy-1_q11_0_all"  />
<polygon points="214,35 219,30 221,30 221,40 219,40 214,35 " style="fill:#d88a15; stroke-width:1; stroke:black; " description="&lt;b&gt;ctg30_21&lt;/b&gt;&lt;br&gt;ctg30 21&lt;br&gt;Location: 25164 - 25635" locus_tag="ctg30_21" class="clusterblast-orf" id="dummy-1_q12_0_all"  />
<polygon points="223,40 237,40 242,35 237,30 223,30 223,40 " style="fill:#15d863; stroke-width:1; stroke:black; " description="&lt;b&gt;ctg30_22&lt;/b&gt;&lt;br&gt;ctg30 22&lt;br&gt;Location: 25758 - 27003" locus_tag="ctg30_22" class="clusterblast-orf" id="dummy-1_q13_0_all"  />
<polygon points="246,40 251,40 256,35 251,30 246,30 246,40 " style="fill:#3c15d8; stroke-width:1; stroke:black; " description="&lt;b&gt;ctg30_23&lt;/b&gt;&lt;br&gt;ctg30 23&lt;br&gt;Location: 27235 - 27913" locus_tag="ctg30_23" class="clusterblast-orf" id="dummy-1_q14_0_all"  />
<polygon points="258,35 263,30 288,30 288,40 263,40 258,35 " style="fill:#d8158a; stroke-width:1; stroke:black; " description="&lt;b&gt;ctg30_24&lt;/b&gt;&lt;br&gt;ctg30 24&lt;br&gt;Location: 28040 - 29999" locus_tag="ctg30_24" class="clusterblast-orf" id="dummy-1_q15_0_all"  />
<polygon points="288,35 293,30 306,30 306,40 293,40 288,35 " style="fill:#b1d815; stroke-width:1; stroke:black; " description="&lt;b&gt;ctg30_25&lt;/b&gt;&lt;br&gt;ctg30 25&lt;br&gt;Location: 30002 - 31145" locus_tag="ctg30_25" class="clusterblast-orf" id="dummy-1_q16_0_all"  />
<polygon points="306,35 311,30 479,30 479,40 311,40 306,35 " style="fill:#15d8d8; stroke-width:1; stroke:black; " description="&lt;b&gt;ctg30_26&lt;/b&gt;&lt;br&gt;ctg30 26&lt;br&gt;Location: 31141 - 42478" locus_tag="ctg30_26" class="clusterblast-orf" id="dummy-1_q17_0_all"  />
<polygon points="479,35 484,30 677,30 677,40 484,40 479,35 " style="fill:#15d8d8; stroke-width:1; stroke:black; " description="&lt;b&gt;ctg30_27&lt;/b&gt;&lt;br&gt;ctg30 27&lt;br&gt;Location: 42474 - 55386" locus_tag="ctg30_27" class="clusterblast-orf" id="dummy-1_q18_0_all"  />
<polygon points="680,35 685,30 689,30 689,40 685,40 680,35 " style="fill:white; stroke-width:1; stroke:black; " description="&lt;b&gt;ctg30_28&lt;/b&gt;&lt;br&gt;ctg30 28&lt;br&gt;Location: 55595 - 56168" locus_tag="ctg30_28" class="clusterblast-orf" id="dummy-1_q19_0_all"  />
<polygon points="690,35 695,30 706,30 706,40 695,40 690,35 " style="fill:white; stroke-width:1; stroke:black; " description="&lt;b&gt;ctg30_29&lt;/b&gt;&lt;br&gt;ctg30 29&lt;br&gt;Location: 56260 - 57259" locus_tag="ctg30_29" class="clusterblast-orf" id="dummy-1_q20_0_all"  />
<polygon points="706,35 711,30 763,30 763,40 711,40 706,35 " style="fill:white; stroke-width:1; stroke:black; " description="&lt;b&gt;ctg30_30&lt;/b&gt;&lt;br&gt;ctg30 30&lt;br&gt;Location: 57258 - 61020" locus_tag="ctg30_30" class="clusterblast-orf" id="dummy-1_q21_0_all"  />
<polygon points="763,35 768,30 780,30 780,40 768,40 763,35 " style="fill:white; stroke-width:1; stroke:black; " description="&lt;b&gt;ctg30_31&lt;/b&gt;&lt;br&gt;ctg30 31&lt;br&gt;Location: 61023 - 62085" locus_tag="ctg30_31" class="clusterblast-orf" id="dummy-1_q22_0_all"  />
</g>
<g label="BGC0002522" description="BGC0002522_c1: viscosinamide A/pseudodesmin A (75% of genes show similarity), NRP" class="clusterblast-cluster"  >
<text x="5" y="70" class="clusterblast-acc"  >
<a xlink:href="https://mibig.secondarymetabolites.org/go/BGC0002522/1" target="_blank">BGC0002522</a>: viscosinamide A/pseudodesmin A                                                   (75% of genes show similarity), NRP</text>
<line x1="10" y1="85" x2="778.0" y2="85" style="stroke-width:1; stroke:grey; "  />
</g>
<g id="a1_000"  >
<polygon points="94,90 100,90 105,85 100,80 94,80 94,90 " style="fill:#3c15d8; stroke-width:1; stroke:black; " description="&lt;b&gt;QLY89267.1&lt;/b&gt;&lt;br&gt;LuxR transcriptional regulator&lt;br&gt;Location: 38612 - 37869&lt;br&gt;&lt;br&gt;&lt;b&gt;BlastP hit with ctg30_23&lt;/b&gt;&lt;br&gt;Percentage identity: 64&lt;br&gt;Percentage coverage: 107&lt;br&gt;BLAST bit score: 270&lt;br&gt;E-value: 8.52e-92" locus_tag="QLY89267.1" class="clusterblast-orf" id="dummy-1_h1_2_0"  />
</g>
<g id="a1_001"  >
<polygon points="107,85 112,80 137,80 137,90 112,90 107,85 " style="fill:#d8158a; stroke-width:1; stroke:black; " description="&lt;b&gt;QLY89266.1&lt;/b&gt;&lt;br&gt;integral membrane protein&lt;br&gt;Location: 37767 - 35797&lt;br&gt;&lt;br&gt;&lt;b&gt;BlastP hit with ctg30_24&lt;/b&gt;&lt;br&gt;Percentage identity: 88&lt;br&gt;Percentage coverage: 100&lt;br&gt;BLAST bit score: 1087&lt;br&gt;E-value: 0.0" locus_tag="QLY89266.1" class="clusterblast-orf" id="dummy-1_h1_2_1"  />
</g>
<g id="a1_002"  >
<polygon points="137,85 142,80 155,80 155,90 142,90 137,85 " style="fill:#b1d815; stroke-width:1; stroke:black; " description="&lt;b&gt;QLY89265.1&lt;/b&gt;&lt;br&gt;membrane fusion protein&lt;br&gt;Location: 35794 - 34646&lt;br&gt;&lt;br&gt;&lt;b&gt;BlastP hit with ctg30_25&lt;/b&gt;&lt;br&gt;Percentage identity: 82&lt;br&gt;Percentage coverage: 100&lt;br&gt;BLAST bit score: 588&lt;br&gt;E-value: 6.66e-213" locus_tag="QLY89265.1" class="clusterblast-orf" id="dummy-1_h1_2_2"  />
</g>
<g id="a1_003"  >
<polygon points="157,85 162,80 334,80 334,90 162,90 157,85 " style="fill:#15d8d8; stroke-width:1; stroke:black; " description="&lt;b&gt;QLY89264.1&lt;/b&gt;&lt;br&gt;pseudodesmin synthetase&lt;br&gt;Location: 34463 - 22917&lt;br&gt;&lt;br&gt;&lt;b&gt;BlastP hit with ctg30_26&lt;/b&gt;&lt;br&gt;Percentage identity: 72&lt;br&gt;Percentage coverage: 102&lt;br&gt;BLAST bit score: 5367&lt;br&gt;E-value: 0.0&lt;br&gt;&lt;br&gt;&lt;b&gt;BlastP hit with ctg30_27&lt;/b&gt;&lt;br&gt;Percentage identity: 47&lt;br&gt;Percentage coverage: 78&lt;br&gt;BLAST bit score: 2597&lt;br&gt;E-value: 0.0" locus_tag="QLY89264.1" class="clusterblast-orf" id="dummy-1_h1_2_3"  />
</g>
<g id="a1_004"  >
<polygon points="334,85 339,80 536,80 536,90 339,90 334,85 " style="fill:#15d8d8; stroke-width:1; stroke:black; " description="&lt;b&gt;QLY89263.1&lt;/b&gt;&lt;br&gt;pseudodesmin synthetase&lt;br&gt;Location: 22920 - 9772&lt;br&gt;&lt;br&gt;&lt;b&gt;BlastP hit with ctg30_26&lt;/b&gt;&lt;br&gt;Percentage identity: 47&lt;br&gt;Percentage coverage: 87&lt;br&gt;BLAST bit score: 2580&lt;br&gt;E-value: 0.0&lt;br&gt;&lt;br&gt;&lt;b&gt;BlastP hit with ctg30_27&lt;/b&gt;&lt;br&gt;Percentage identity: 74&lt;br&gt;Percentage coverage: 102&lt;br&gt;BLAST bit score: 6229&lt;br&gt;E-value: 0.0" locus_tag="QLY89263.1" class="clusterblast-orf" id="dummy-1_h1_2_4"  />
</g>
<g id="a1_005"  >
<polygon points="540,85 545,80 638,80 638,90 545,90 540,85 " style="fill:#15d8d8; stroke-width:1; stroke:black; " description="&lt;b&gt;QLY89262.1&lt;/b&gt;&lt;br&gt;pseudodesmin synthetase&lt;br&gt;Location: 9480 - 3052&lt;br&gt;&lt;br&gt;&lt;b&gt;BlastP hit with ctg30_27&lt;/b&gt;&lt;br&gt;Percentage identity: 53&lt;br&gt;Percentage coverage: 50&lt;br&gt;BLAST bit score: 2004&lt;br&gt;E-value: 0.0" locus_tag="QLY89262.1" class="clusterblast-orf" id="dummy-1_h1_2_5"  />
</g>
<g id="a1_006"  >
<polygon points="650,90 657,90 662,85 657,80 650,80 650,90 " style="fill:white; stroke-width:1; stroke:black; " description="&lt;b&gt;QLY89261.1&lt;/b&gt;&lt;br&gt;LuxR transcriptional regulator&lt;br&gt;Location: 2326 - 1520" locus_tag="QLY89261.1" class="clusterblast-orf" id="dummy-1_h1_2_6"  />
</g>
<g id="a1_007"  >
<polygon points="663,90 680,90 685,85 680,80 663,80 663,90 " style="fill:white; stroke-width:1; stroke:black; " description="&lt;b&gt;QLY89260.1&lt;/b&gt;&lt;br&gt;outer membrane protein&lt;br&gt;Location: 1440 - 1" locus_tag="QLY89260.1" class="clusterblast-orf" id="dummy-1_h1_2_7"  />
</g>
</svg>
