<svg xmlns="http://www.w3.org/2000/svg" xmlns:xlink="http://www.w3.org/1999/xlink" version="1.1" x="0" y="0" height="230" width="800" viewBox="0 0 800 230" preserveAspectRatio="none"  >
<g label="Query sequence" class="clusterblast-cluster"  >
<text x="5" y="20" class="clusterblast-acc"  >
Query sequence</text>
<line x1="10" y1="35" x2="778.0" y2="35" style="stroke-width:1; stroke:grey; "  />
<polygon points="0,40 4,40 9,35 4,30 0,30 0,40 " style="fill:white; stroke-width:1; stroke:black; " description="&lt;b&gt;ctg1_477&lt;/b&gt;&lt;br&gt;ctg1 477&lt;br&gt;Location: 531575 - 532490" locus_tag="ctg1_477" class="clusterblast-orf" id="dummy-3_q0_0_all"  />
<polygon points="10,35 15,30 17,30 17,40 15,40 10,35 " style="fill:white; stroke-width:1; stroke:black; " description="&lt;b&gt;ctg1_478&lt;/b&gt;&lt;br&gt;ctg1 478&lt;br&gt;Location: 532610 - 533276" locus_tag="ctg1_478" class="clusterblast-orf" id="dummy-3_q1_0_all"  />
<polygon points="17,35 22,30 52,30 52,40 22,40 17,35 " style="fill:white; stroke-width:1; stroke:black; " description="&lt;b&gt;ctg1_479&lt;/b&gt;&lt;br&gt;ctg1 479&lt;br&gt;Location: 533250 - 536634" locus_tag="ctg1_479" class="clusterblast-orf" id="dummy-3_q2_0_all"  />
<polygon points="55,40 63,40 68,35 63,30 55,30 55,40 " style="fill:white; stroke-width:1; stroke:black; " description="&lt;b&gt;ctg1_480&lt;/b&gt;&lt;br&gt;ctg1 480&lt;br&gt;Location: 536936 - 538145" locus_tag="ctg1_480" class="clusterblast-orf" id="dummy-3_q3_0_all"  />
<polygon points="70,40 74,40 79,35 74,30 70,30 70,40 " style="fill:white; stroke-width:1; stroke:black; " description="&lt;b&gt;ctg1_481&lt;/b&gt;&lt;br&gt;ctg1 481&lt;br&gt;Location: 538323 - 539241" locus_tag="ctg1_481" class="clusterblast-orf" id="dummy-3_q4_0_all"  />
<polygon points="79,40 86,40 91,35 86,30 79,30 79,40 " style="fill:white; stroke-width:1; stroke:black; " description="&lt;b&gt;ctg1_482&lt;/b&gt;&lt;br&gt;ctg1 482&lt;br&gt;Location: 539251 - 540412" locus_tag="ctg1_482" class="clusterblast-orf" id="dummy-3_q5_0_all"  />
<polygon points="91,40 94,40 99,35 94,30 91,30 91,40 " style="fill:white; stroke-width:1; stroke:black; " description="&lt;b&gt;ctg1_483&lt;/b&gt;&lt;br&gt;ctg1 483&lt;br&gt;Location: 540408 - 541167" locus_tag="ctg1_483" class="clusterblast-orf" id="dummy-3_q6_0_all"  />
<polygon points="99,40 102,40 107,35 102,30 99,30 99,40 " style="fill:white; stroke-width:1; stroke:black; " description="&lt;b&gt;ctg1_484&lt;/b&gt;&lt;br&gt;ctg1 484&lt;br&gt;Location: 541177 - 541867" locus_tag="ctg1_484" class="clusterblast-orf" id="dummy-3_q7_0_all"  />
<polygon points="109,40 117,40 122,35 117,30 109,30 109,40 " style="fill:white; stroke-width:1; stroke:black; " description="&lt;b&gt;ctg1_485&lt;/b&gt;&lt;br&gt;ctg1 485&lt;br&gt;Location: 542086 - 543316" locus_tag="ctg1_485" class="clusterblast-orf" id="dummy-3_q8_0_all"  />
<polygon points="122,40 125,35 122,30 122,40 " style="fill:white; stroke-width:1; stroke:black; " description="&lt;b&gt;ctg1_486&lt;/b&gt;&lt;br&gt;ctg1 486&lt;br&gt;Location: 543318 - 543666" locus_tag="ctg1_486" class="clusterblast-orf" id="dummy-3_q9_0_all"  />
<polygon points="125,40 131,40 136,35 131,30 125,30 125,40 " style="fill:white; stroke-width:1; stroke:black; " description="&lt;b&gt;ctg1_487&lt;/b&gt;&lt;br&gt;ctg1 487&lt;br&gt;Location: 543681 - 544725" locus_tag="ctg1_487" class="clusterblast-orf" id="dummy-3_q10_0_all"  />
<polygon points="136,40 141,40 146,35 141,30 136,30 136,40 " style="fill:white; stroke-width:1; stroke:black; " description="&lt;b&gt;ctg1_488&lt;/b&gt;&lt;br&gt;ctg1 488&lt;br&gt;Location: 544728 - 545685" locus_tag="ctg1_488" class="clusterblast-orf" id="dummy-3_q11_0_all"  />
<polygon points="147,40 148,40 153,35 148,30 147,30 147,40 " style="fill:white; stroke-width:1; stroke:black; " description="&lt;b&gt;ctg1_489&lt;/b&gt;&lt;br&gt;ctg1 489&lt;br&gt;Location: 545752 - 546325" locus_tag="ctg1_489" class="clusterblast-orf" id="dummy-3_q12_0_all"  />
<polygon points="153,40 162,40 167,35 162,30 153,30 153,40 " style="fill:white; stroke-width:1; stroke:black; " description="&lt;b&gt;ctg1_490&lt;/b&gt;&lt;br&gt;ctg1 490&lt;br&gt;Location: 546350 - 547706" locus_tag="ctg1_490" class="clusterblast-orf" id="dummy-3_q13_0_all"  />
<polygon points="167,35 172,30 173,30 173,40 172,40 167,35 " style="fill:#d81515; stroke-width:1; stroke:black; " description="&lt;b&gt;ctg1_491&lt;/b&gt;&lt;br&gt;ctg1 491&lt;br&gt;Location: 547689 - 548283" locus_tag="ctg1_491" class="clusterblast-orf" id="dummy-3_q14_0_all"  />
<polygon points="175,40 182,40 187,35 182,30 175,30 175,40 " style="fill:#63d815; stroke-width:1; stroke:black; " description="&lt;b&gt;ctg1_492&lt;/b&gt;&lt;br&gt;ctg1 492&lt;br&gt;Location: 548425 - 549616" locus_tag="ctg1_492" class="clusterblast-orf" id="dummy-3_q15_0_all"  />
<polygon points="187,35 191,30 191,40 187,35 " style="fill:#15b1d8; stroke-width:1; stroke:black; " description="&lt;b&gt;ctg1_493&lt;/b&gt;&lt;br&gt;ctg1 493&lt;br&gt;Location: 549598 - 549964" locus_tag="ctg1_493" class="clusterblast-orf" id="dummy-3_q16_0_all"  />
<polygon points="191,35 193,30 193,40 191,35 " style="fill:#b115d8; stroke-width:1; stroke:black; " description="&lt;b&gt;ctg1_494&lt;/b&gt;&lt;br&gt;ctg1 494&lt;br&gt;Location: 549960 - 550212" locus_tag="ctg1_494" class="clusterblast-orf" id="dummy-3_q17_0_all"  />
<polygon points="195,40 336,40 341,35 336,30 195,30 195,40 " style="fill:#d86315; stroke-width:1; stroke:black; " description="&lt;b&gt;ctg1_495&lt;/b&gt;&lt;br&gt;ctg1 495&lt;br&gt;Location: 550420 - 564475" locus_tag="ctg1_495" class="clusterblast-orf" id="dummy-3_q18_0_all"  />
<polygon points="341,40 459,40 464,35 459,30 341,30 341,40 " style="fill:#d86315; stroke-width:1; stroke:black; " description="&lt;b&gt;ctg1_496&lt;/b&gt;&lt;br&gt;ctg1 496&lt;br&gt;Location: 564478 - 576331" locus_tag="ctg1_496" class="clusterblast-orf" id="dummy-3_q19_0_all"  />
<polygon points="466,35 471,30 491,30 491,40 471,40 466,35 " style="fill:#15d815; stroke-width:1; stroke:black; " description="&lt;b&gt;ctg1_497&lt;/b&gt;&lt;br&gt;ctg1 497&lt;br&gt;Location: 576475 - 578917" locus_tag="ctg1_497" class="clusterblast-orf" id="dummy-3_q20_0_all"  />
<polygon points="492,35 497,30 510,30 510,40 497,40 492,35 " style="fill:#1563d8; stroke-width:1; stroke:black; " description="&lt;b&gt;ctg1_498&lt;/b&gt;&lt;br&gt;ctg1 498&lt;br&gt;Location: 579026 - 580679" locus_tag="ctg1_498" class="clusterblast-orf" id="dummy-3_q21_0_all"  />
<polygon points="512,40 515,40 520,35 515,30 512,30 512,40 " style="fill:#d815b1; stroke-width:1; stroke:black; " description="&lt;b&gt;ctg1_499&lt;/b&gt;&lt;br&gt;ctg1 499&lt;br&gt;Location: 580877 - 581705" locus_tag="ctg1_499" class="clusterblast-orf" id="dummy-3_q22_0_all"  />
<polygon points="522,35 527,30 531,30 531,40 527,40 522,35 " style="fill:#d8b115; stroke-width:1; stroke:black; " description="&lt;b&gt;ctg1_500&lt;/b&gt;&lt;br&gt;ctg1 500&lt;br&gt;Location: 581847 - 582720" locus_tag="ctg1_500" class="clusterblast-orf" id="dummy-3_q23_0_all"  />
<polygon points="531,35 536,30 544,30 544,40 536,40 531,35 " style="fill:#15d863; stroke-width:1; stroke:black; " description="&lt;b&gt;ctg1_501&lt;/b&gt;&lt;br&gt;ctg1 501&lt;br&gt;Location: 582753 - 584034" locus_tag="ctg1_501" class="clusterblast-orf" id="dummy-3_q24_0_all"  />
<polygon points="545,35 550,30 559,30 559,40 550,40 545,35 " style="fill:#1515d8; stroke-width:1; stroke:black; " description="&lt;b&gt;ctg1_502&lt;/b&gt;&lt;br&gt;ctg1 502&lt;br&gt;Location: 584052 - 585402" locus_tag="ctg1_502" class="clusterblast-orf" id="dummy-3_q25_0_all"  />
<polygon points="560,40 572,40 577,35 572,30 560,30 560,40 " style="fill:#d81563; stroke-width:1; stroke:black; " description="&lt;b&gt;ctg1_503&lt;/b&gt;&lt;br&gt;ctg1 503&lt;br&gt;Location: 585544 - 587164" locus_tag="ctg1_503" class="clusterblast-orf" id="dummy-3_q26_0_all"  />
<polygon points="577,35 582,30 587,30 587,40 582,40 577,35 " style="fill:white; stroke-width:1; stroke:black; " description="&lt;b&gt;ctg1_504&lt;/b&gt;&lt;br&gt;ctg1 504&lt;br&gt;Location: 587156 - 588104" locus_tag="ctg1_504" class="clusterblast-orf" id="dummy-3_q27_0_all"  />
<polygon points="588,40 593,40 598,35 593,30 588,30 588,40 " style="fill:white; stroke-width:1; stroke:black; " description="&lt;b&gt;ctg1_505&lt;/b&gt;&lt;br&gt;ctg1 505&lt;br&gt;Location: 588247 - 589138" locus_tag="ctg1_505" class="clusterblast-orf" id="dummy-3_q28_0_all"  />
<polygon points="597,40 603,40 608,35 603,30 597,30 597,40 " style="fill:white; stroke-width:1; stroke:black; " description="&lt;b&gt;ctg1_506&lt;/b&gt;&lt;br&gt;ctg1 506&lt;br&gt;Location: 589137 - 590109" locus_tag="ctg1_506" class="clusterblast-orf" id="dummy-3_q29_0_all"  />
<polygon points="608,40 612,40 617,35 612,30 608,30 608,40 " style="fill:white; stroke-width:1; stroke:black; " description="&lt;b&gt;ctg1_507&lt;/b&gt;&lt;br&gt;ctg1 507&lt;br&gt;Location: 590105 - 590975" locus_tag="ctg1_507" class="clusterblast-orf" id="dummy-3_q30_0_all"  />
<polygon points="617,40 619,35 617,30 617,40 " style="fill:white; stroke-width:1; stroke:black; " description="&lt;b&gt;ctg1_508&lt;/b&gt;&lt;br&gt;ctg1 508&lt;br&gt;Location: 590989 - 591250" locus_tag="ctg1_508" class="clusterblast-orf" id="dummy-3_q31_0_all"  />
<polygon points="619,40 623,40 628,35 623,30 619,30 619,40 " style="fill:white; stroke-width:1; stroke:black; " description="&lt;b&gt;ctg1_509&lt;/b&gt;&lt;br&gt;ctg1 509&lt;br&gt;Location: 591246 - 592077" locus_tag="ctg1_509" class="clusterblast-orf" id="dummy-3_q32_0_all"  />
<polygon points="628,40 651,40 656,35 651,30 628,30 628,40 " style="fill:white; stroke-width:1; stroke:black; " description="&lt;b&gt;ctg1_510&lt;/b&gt;&lt;br&gt;ctg1 510&lt;br&gt;Location: 592090 - 594748" locus_tag="ctg1_510" class="clusterblast-orf" id="dummy-3_q33_0_all"  />
<polygon points="658,40 660,40 665,35 660,30 658,30 658,40 " style="fill:white; stroke-width:1; stroke:black; " description="&lt;b&gt;ctg1_511&lt;/b&gt;&lt;br&gt;ctg1 511&lt;br&gt;Location: 594954 - 595671" locus_tag="ctg1_511" class="clusterblast-orf" id="dummy-3_q34_0_all"  />
<polygon points="666,40 669,35 666,30 666,40 " style="fill:white; stroke-width:1; stroke:black; " description="&lt;b&gt;ctg1_512&lt;/b&gt;&lt;br&gt;ctg1 512&lt;br&gt;Location: 595723 - 596059" locus_tag="ctg1_512" class="clusterblast-orf" id="dummy-3_q35_0_all"  />
<polygon points="670,40 676,40 681,35 676,30 670,30 670,40 " style="fill:white; stroke-width:1; stroke:black; " description="&lt;b&gt;ctg1_513&lt;/b&gt;&lt;br&gt;ctg1 513&lt;br&gt;Location: 596074 - 597181" locus_tag="ctg1_513" class="clusterblast-orf" id="dummy-3_q36_0_all"  />
<polygon points="683,40 683,40 688,35 683,30 683,30 683,40 " style="fill:white; stroke-width:1; stroke:black; " description="&lt;b&gt;ctg1_514&lt;/b&gt;&lt;br&gt;ctg1 514&lt;br&gt;Location: 597343 - 597835" locus_tag="ctg1_514" class="clusterblast-orf" id="dummy-3_q37_0_all"  />
<polygon points="689,35 691,30 691,40 689,35 " style="fill:white; stroke-width:1; stroke:black; " description="&lt;b&gt;ctg1_515&lt;/b&gt;&lt;br&gt;ctg1 515&lt;br&gt;Location: 597936 - 598158" locus_tag="ctg1_515" class="clusterblast-orf" id="dummy-3_q38_0_all"  />
<polygon points="693,35 698,30 716,30 716,40 698,40 693,35 " style="fill:white; stroke-width:1; stroke:black; " description="&lt;b&gt;ctg1_516&lt;/b&gt;&lt;br&gt;ctg1 516&lt;br&gt;Location: 598300 - 600529" locus_tag="ctg1_516" class="clusterblast-orf" id="dummy-3_q39_0_all"  />
<polygon points="717,35 722,30 735,30 735,40 722,40 717,35 " style="fill:white; stroke-width:1; stroke:black; " description="&lt;b&gt;ctg1_517&lt;/b&gt;&lt;br&gt;ctg1 517&lt;br&gt;Location: 600655 - 602398" locus_tag="ctg1_517" class="clusterblast-orf" id="dummy-3_q40_0_all"  />
<polygon points="737,35 739,30 739,40 737,35 " style="fill:#b1d815; stroke-width:1; stroke:black; " description="&lt;b&gt;ctg1_518&lt;/b&gt;&lt;br&gt;ctg1 518&lt;br&gt;Location: 602562 - 602739" locus_tag="ctg1_518" class="clusterblast-orf" id="dummy-3_q41_0_all"  />
<polygon points="742,40 747,40 752,35 747,30 742,30 742,40 " style="fill:#15d8b1; stroke-width:1; stroke:black; " description="&lt;b&gt;ctg1_519&lt;/b&gt;&lt;br&gt;ctg1 519&lt;br&gt;Location: 603008 - 603992" locus_tag="ctg1_519" class="clusterblast-orf" id="dummy-3_q42_0_all"  />
<polygon points="752,40 763,40 768,35 763,30 752,30 752,40 " style="fill:#6315d8; stroke-width:1; stroke:black; " description="&lt;b&gt;ctg1_520&lt;/b&gt;&lt;br&gt;ctg1 520&lt;br&gt;Location: 603988 - 605512" locus_tag="ctg1_520" class="clusterblast-orf" id="dummy-3_q43_0_all"  />
<polygon points="768,40 771,40 776,35 771,30 768,30 768,40 " style="fill:white; stroke-width:1; stroke:black; " description="&lt;b&gt;ctg1_521&lt;/b&gt;&lt;br&gt;ctg1 521&lt;br&gt;Location: 605508 - 606333" locus_tag="ctg1_521" class="clusterblast-orf" id="dummy-3_q44_0_all"  />
<polygon points="777,35 780,30 780,40 777,35 " style="fill:white; stroke-width:1; stroke:black; " description="&lt;b&gt;ctg1_522&lt;/b&gt;&lt;br&gt;ctg1 522&lt;br&gt;Location: 606408 - 606669" locus_tag="ctg1_522" class="clusterblast-orf" id="dummy-3_q45_0_all"  />
</g>
<g label="BGC0001285" description="BGC0001285_c1: pseudopyronine A/pseudopyronine B (18% of genes show similarity), Other:Fatty acid" class="clusterblast-cluster"  >
<text x="5" y="70" class="clusterblast-acc"  >
<a xlink:href="https://mibig.secondarymetabolites.org/go/BGC0001285/1" target="_blank">BGC0001285</a>: pseudopyronine A/pseudopyronine B                                                (18% of genes show similarity), Other:Fatty acid</text>
<line x1="10" y1="85" x2="778.0" y2="85" style="stroke-width:1; stroke:grey; "  />
</g>
<g id="a3_000"  >
<polygon points="273,85 278,80 281,80 281,90 278,90 273,85 " style="fill:white; stroke-width:1; stroke:black; " description="&lt;b&gt;ALJ01868.1&lt;/b&gt;&lt;br&gt;hypothetical protein&lt;br&gt;Location: 22479 - 21685" locus_tag="ALJ01868.1" class="clusterblast-orf" id="dummy-3_h3_10_0"  />
</g>
<g id="a3_001"  >
<polygon points="283,85 288,80 305,80 305,90 288,90 283,85 " style="fill:white; stroke-width:1; stroke:black; " description="&lt;b&gt;ALJ01867.1&lt;/b&gt;&lt;br&gt;glycogen debranching enzyme&lt;br&gt;Location: 21516 - 19363" locus_tag="ALJ01867.1" class="clusterblast-orf" id="dummy-3_h3_10_1"  />
</g>
<g id="a3_002"  >
<polygon points="307,85 310,80 310,90 307,85 " style="fill:white; stroke-width:1; stroke:black; " description="&lt;b&gt;ALJ01866.1&lt;/b&gt;&lt;br&gt;hypothetical protein&lt;br&gt;Location: 19205 - 18939" locus_tag="ALJ01866.1" class="clusterblast-orf" id="dummy-3_h3_10_2"  />
</g>
<g id="a3_003"  >
<polygon points="310,85 315,80 339,80 339,90 315,90 310,85 " style="fill:white; stroke-width:1; stroke:black; " description="&lt;b&gt;ALJ01865.1&lt;/b&gt;&lt;br&gt;malto-oligosyltrehalose synthase&lt;br&gt;Location: 18918 - 16144" locus_tag="ALJ01865.1" class="clusterblast-orf" id="dummy-3_h3_10_3"  />
</g>
<g id="a3_004"  >
<polygon points="339,85 344,80 360,80 360,90 344,90 339,85 " style="fill:white; stroke-width:1; stroke:black; " description="&lt;b&gt;ALJ01864.1&lt;/b&gt;&lt;br&gt;4-alpha-glucanotransferase&lt;br&gt;Location: 16147 - 14078" locus_tag="ALJ01864.1" class="clusterblast-orf" id="dummy-3_h3_10_4"  />
</g>
<g id="a3_005"  >
<polygon points="360,85 365,80 378,80 378,90 365,90 360,85 " style="fill:white; stroke-width:1; stroke:black; " description="&lt;b&gt;ALJ01863.1&lt;/b&gt;&lt;br&gt;malto-oligosyltrehalose trehalohydrolase&lt;br&gt;Location: 14081 - 12339" locus_tag="ALJ01863.1" class="clusterblast-orf" id="dummy-3_h3_10_5"  />
</g>
<g id="a3_006"  >
<polygon points="378,85 383,80 394,80 394,90 383,90 378,85 " style="fill:white; stroke-width:1; stroke:black; " description="&lt;b&gt;ALJ01862.1&lt;/b&gt;&lt;br&gt;glycogen synthase&lt;br&gt;Location: 12324 - 10765" locus_tag="ALJ01862.1" class="clusterblast-orf" id="dummy-3_h3_10_6"  />
</g>
<g id="a3_007"  >
<polygon points="400,85 401,80 401,90 400,85 " style="fill:#b1d815; stroke-width:1; stroke:black; " description="&lt;b&gt;ALJ01861.1&lt;/b&gt;&lt;br&gt;hypothetical protein&lt;br&gt;Location: 10272 - 10105&lt;br&gt;&lt;br&gt;&lt;b&gt;BlastP hit with ctg1_518&lt;/b&gt;&lt;br&gt;Percentage identity: 67&lt;br&gt;Percentage coverage: 67&lt;br&gt;BLAST bit score: 48&lt;br&gt;E-value: 3e-09" locus_tag="ALJ01861.1" class="clusterblast-orf" id="dummy-3_h3_10_7"  />
</g>
<g id="a3_008"  >
<polygon points="403,90 409,90 414,85 409,80 403,80 403,90 " style="fill:#15d8b1; stroke-width:1; stroke:black; " description="&lt;b&gt;ALJ01860.1&lt;/b&gt;&lt;br&gt;6-phosphogluconate dehydrogenase&lt;br&gt;Location: 9908 - 8925&lt;br&gt;&lt;br&gt;&lt;b&gt;BlastP hit with ctg1_519&lt;/b&gt;&lt;br&gt;Percentage identity: 73&lt;br&gt;Percentage coverage: 100&lt;br&gt;BLAST bit score: 480&lt;br&gt;E-value: 6.68e-172" locus_tag="ALJ01860.1" class="clusterblast-orf" id="dummy-3_h3_10_8"  />
</g>
<g id="a3_009"  >
<polygon points="414,90 424,90 429,85 424,80 414,80 414,90 " style="fill:#6315d8; stroke-width:1; stroke:black; " description="&lt;b&gt;ALJ01859.1&lt;/b&gt;&lt;br&gt;glucose-6-phosphate 1-dehydrogenase&lt;br&gt;Location: 8924 - 7431&lt;br&gt;&lt;br&gt;&lt;b&gt;BlastP hit with ctg1_520&lt;/b&gt;&lt;br&gt;Percentage identity: 75&lt;br&gt;Percentage coverage: 98&lt;br&gt;BLAST bit score: 761&lt;br&gt;E-value: 6.11e-277" locus_tag="ALJ01859.1" class="clusterblast-orf" id="dummy-3_h3_10_9"  />
</g>
<g id="a3_0010"  >
<polygon points="430,85 435,80 441,80 441,90 435,90 430,85 " style="fill:white; stroke-width:1; stroke:black; " description="&lt;b&gt;ALJ01858.1&lt;/b&gt;&lt;br&gt;pseudopyronine synthase&lt;br&gt;Location: 7370 - 6321" locus_tag="ALJ01858.1" class="clusterblast-orf" id="dummy-3_h3_10_10"  />
</g>
<g id="a3_0011"  >
<polygon points="443,90 457,90 462,85 457,80 443,80 443,90 " style="fill:white; stroke-width:1; stroke:black; " description="&lt;b&gt;ALJ01857.1&lt;/b&gt;&lt;br&gt;hypothetical protein&lt;br&gt;Location: 6079 - 4283" locus_tag="ALJ01857.1" class="clusterblast-orf" id="dummy-3_h3_10_11"  />
</g>
<g id="a3_0012"  >
<polygon points="466,90 468,85 466,80 466,90 " style="fill:white; stroke-width:1; stroke:black; " description="&lt;b&gt;ALJ01856.1&lt;/b&gt;&lt;br&gt;hypothetical protein&lt;br&gt;Location: 3889 - 3692" locus_tag="ALJ01856.1" class="clusterblast-orf" id="dummy-3_h3_10_12"  />
</g>
<g id="a3_0013"  >
<polygon points="469,85 474,80 476,80 476,90 474,90 469,85 " style="fill:white; stroke-width:1; stroke:black; " description="&lt;b&gt;ALJ01855.1&lt;/b&gt;&lt;br&gt;putative dioxygenase&lt;br&gt;Location: 3560 - 2880" locus_tag="ALJ01855.1" class="clusterblast-orf" id="dummy-3_h3_10_13"  />
</g>
<g id="a3_0014"  >
<polygon points="478,90 496,90 501,85 496,80 478,80 478,90 " style="fill:white; stroke-width:1; stroke:black; " description="&lt;b&gt;ALJ01854.1&lt;/b&gt;&lt;br&gt;hypothetical protein&lt;br&gt;Location: 2718 - 526" locus_tag="ALJ01854.1" class="clusterblast-orf" id="dummy-3_h3_10_14"  />
</g>
<g id="a3_0015"  >
<polygon points="501,85 506,80 506,80 506,90 506,90 501,85 " style="fill:white; stroke-width:1; stroke:black; " description="&lt;b&gt;ALJ01853.1&lt;/b&gt;&lt;br&gt;membrane protein&lt;br&gt;Location: 476 - 9" locus_tag="ALJ01853.1" class="clusterblast-orf" id="dummy-3_h3_10_15"  />
</g>
</svg>
