<svg xmlns="http://www.w3.org/2000/svg" xmlns:xlink="http://www.w3.org/1999/xlink" version="1.1" x="0" y="0" height="50" width="800" viewBox="0 0 800 50" preserveAspectRatio="none"  >
<g label="Query sequence" class="clusterblast-cluster"  >
<text x="5" y="20" class="clusterblast-acc"  >
Query sequence</text>
<line x1="10" y1="35" x2="778.0" y2="35" style="stroke-width:1; stroke:grey; "  />
<polygon points="0,40 11,40 16,35 11,30 0,30 0,40 " style="fill:white; stroke-width:1; stroke:black; " description="&lt;b&gt;ctg1_223&lt;/b&gt;&lt;br&gt;ctg1 223&lt;br&gt;Location: 240940 - 241480" locus_tag="ctg1_223" class="clusterblast-orf" id="subclusterblast-2_q0_0_all"  />
<polygon points="17,35 22,30 52,30 52,40 22,40 17,35 " style="fill:white; stroke-width:1; stroke:black; " description="&lt;b&gt;ctg1_224&lt;/b&gt;&lt;br&gt;ctg1 224&lt;br&gt;Location: 241497 - 242649" locus_tag="ctg1_224" class="clusterblast-orf" id="subclusterblast-2_q1_0_all"  />
<polygon points="67,35 72,30 78,30 78,40 72,40 67,35 " style="fill:white; stroke-width:1; stroke:black; " description="&lt;b&gt;ctg1_225&lt;/b&gt;&lt;br&gt;ctg1 225&lt;br&gt;Location: 243114 - 243465" locus_tag="ctg1_225" class="clusterblast-orf" id="subclusterblast-2_q2_0_all"  />
<polygon points="82,40 96,40 101,35 96,30 82,30 82,40 " style="fill:white; stroke-width:1; stroke:black; " description="&lt;b&gt;ctg1_226&lt;/b&gt;&lt;br&gt;ctg1 226&lt;br&gt;Location: 243595 - 244231" locus_tag="ctg1_226" class="clusterblast-orf" id="subclusterblast-2_q3_0_all"  />
<polygon points="101,35 106,30 160,30 160,40 106,40 101,35 " style="fill:white; stroke-width:1; stroke:black; " description="&lt;b&gt;ctg1_227&lt;/b&gt;&lt;br&gt;ctg1 227&lt;br&gt;Location: 244227 - 246153" locus_tag="ctg1_227" class="clusterblast-orf" id="subclusterblast-2_q4_0_all"  />
<polygon points="160,35 165,30 185,30 185,40 165,40 160,35 " style="fill:white; stroke-width:1; stroke:black; " description="&lt;b&gt;ctg1_228&lt;/b&gt;&lt;br&gt;ctg1 228&lt;br&gt;Location: 246149 - 246956" locus_tag="ctg1_228" class="clusterblast-orf" id="subclusterblast-2_q5_0_all"  />
<polygon points="186,35 191,30 235,30 235,40 191,40 186,35 " style="fill:white; stroke-width:1; stroke:black; " description="&lt;b&gt;ctg1_229&lt;/b&gt;&lt;br&gt;ctg1 229&lt;br&gt;Location: 246970 - 248578" locus_tag="ctg1_229" class="clusterblast-orf" id="subclusterblast-2_q6_0_all"  />
<polygon points="236,35 241,30 271,30 271,40 241,40 236,35 " style="fill:white; stroke-width:1; stroke:black; " description="&lt;b&gt;ctg1_230&lt;/b&gt;&lt;br&gt;ctg1 230&lt;br&gt;Location: 248590 - 249754" locus_tag="ctg1_230" class="clusterblast-orf" id="subclusterblast-2_q7_0_all"  />
<polygon points="277,40 322,40 327,35 322,30 277,30 277,40 " style="fill:white; stroke-width:1; stroke:black; " description="&lt;b&gt;ctg1_231&lt;/b&gt;&lt;br&gt;ctg1 231&lt;br&gt;Location: 249919 - 251548" locus_tag="ctg1_231" class="clusterblast-orf" id="subclusterblast-2_q8_0_all"  />
<polygon points="329,40 488,40 493,35 488,30 329,30 329,40 " style="fill:white; stroke-width:1; stroke:black; " description="&lt;b&gt;ctg1_232&lt;/b&gt;&lt;br&gt;ctg1 232&lt;br&gt;Location: 251615 - 256952" locus_tag="ctg1_232" class="clusterblast-orf" id="subclusterblast-2_q9_0_all"  />
<polygon points="510,35 515,30 538,30 538,40 515,40 510,35 " style="fill:white; stroke-width:1; stroke:black; " description="&lt;b&gt;ctg1_233&lt;/b&gt;&lt;br&gt;ctg1 233&lt;br&gt;Location: 257500 - 258400" locus_tag="ctg1_233" class="clusterblast-orf" id="subclusterblast-2_q10_0_all"  />
<polygon points="538,35 543,30 551,30 551,40 543,40 538,35 " style="fill:white; stroke-width:1; stroke:black; " description="&lt;b&gt;ctg1_234&lt;/b&gt;&lt;br&gt;ctg1 234&lt;br&gt;Location: 258417 - 258810" locus_tag="ctg1_234" class="clusterblast-orf" id="subclusterblast-2_q11_0_all"  />
<polygon points="554,35 559,30 582,30 582,40 559,40 554,35 " style="fill:white; stroke-width:1; stroke:black; " description="&lt;b&gt;ctg1_235&lt;/b&gt;&lt;br&gt;ctg1 235&lt;br&gt;Location: 258909 - 259845" locus_tag="ctg1_235" class="clusterblast-orf" id="subclusterblast-2_q12_0_all"  />
<polygon points="588,40 620,40 625,35 620,30 588,30 588,40 " style="fill:white; stroke-width:1; stroke:black; " description="&lt;b&gt;ctg1_236&lt;/b&gt;&lt;br&gt;ctg1 236&lt;br&gt;Location: 260011 - 261241" locus_tag="ctg1_236" class="clusterblast-orf" id="subclusterblast-2_q13_0_all"  />
<polygon points="629,35 634,30 670,30 670,40 634,40 629,35 " style="fill:white; stroke-width:1; stroke:black; " description="&lt;b&gt;ctg1_237&lt;/b&gt;&lt;br&gt;ctg1 237&lt;br&gt;Location: 261370 - 262699" locus_tag="ctg1_237" class="clusterblast-orf" id="subclusterblast-2_q14_0_all"  />
<polygon points="674,35 679,30 699,30 699,40 679,40 674,35 " style="fill:white; stroke-width:1; stroke:black; " description="&lt;b&gt;ctg1_238&lt;/b&gt;&lt;br&gt;ctg1 238&lt;br&gt;Location: 262826 - 263639" locus_tag="ctg1_238" class="clusterblast-orf" id="subclusterblast-2_q15_0_all"  />
<polygon points="705,40 720,40 725,35 720,30 705,30 705,40 " style="fill:white; stroke-width:1; stroke:black; " description="&lt;b&gt;ctg1_239&lt;/b&gt;&lt;br&gt;ctg1 239&lt;br&gt;Location: 263807 - 264458" locus_tag="ctg1_239" class="clusterblast-orf" id="subclusterblast-2_q16_0_all"  />
<polygon points="727,40 775,40 780,35 775,30 727,30 727,40 " style="fill:white; stroke-width:1; stroke:black; " description="&lt;b&gt;ctg1_240&lt;/b&gt;&lt;br&gt;ctg1 240&lt;br&gt;Location: 264552 - 266250" locus_tag="ctg1_240" class="clusterblast-orf" id="subclusterblast-2_q17_0_all"  />
</g>
</svg>
