<svg xmlns="http://www.w3.org/2000/svg" xmlns:xlink="http://www.w3.org/1999/xlink" version="1.1" x="0" y="0" height="50" width="800" viewBox="0 0 800 50" preserveAspectRatio="none"  >
<g label="Query sequence" class="clusterblast-cluster"  >
<text x="5" y="20" class="clusterblast-acc"  >
Query sequence</text>
<line x1="10" y1="35" x2="778.0" y2="35" style="stroke-width:1; stroke:grey; "  />
<polygon points="0,40 45,40 50,35 45,30 0,30 0,40 " style="fill:white; stroke-width:1; stroke:black; " description="&lt;b&gt;ctg13_33&lt;/b&gt;&lt;br&gt;ctg13 33&lt;br&gt;Location: 34417 - 35707" locus_tag="ctg13_33" class="clusterblast-orf" id="subclusterblast-1_q0_0_all"  />
<polygon points="54,40 118,40 123,35 118,30 54,30 54,40 " style="fill:white; stroke-width:1; stroke:black; " description="&lt;b&gt;ctg13_34&lt;/b&gt;&lt;br&gt;ctg13 34&lt;br&gt;Location: 35797 - 37570" locus_tag="ctg13_34" class="clusterblast-orf" id="subclusterblast-1_q1_0_all"  />
<polygon points="127,40 191,40 196,35 191,30 127,30 127,40 " style="fill:white; stroke-width:1; stroke:black; " description="&lt;b&gt;ctg13_35&lt;/b&gt;&lt;br&gt;ctg13 35&lt;br&gt;Location: 37689 - 39468" locus_tag="ctg13_35" class="clusterblast-orf" id="subclusterblast-1_q2_0_all"  />
<polygon points="205,35 210,30 240,30 240,40 210,40 205,35 " style="fill:white; stroke-width:1; stroke:black; " description="&lt;b&gt;ctg13_36&lt;/b&gt;&lt;br&gt;ctg13 36&lt;br&gt;Location: 39694 - 40594" locus_tag="ctg13_36" class="clusterblast-orf" id="subclusterblast-1_q3_0_all"  />
<polygon points="248,40 292,40 297,35 292,30 248,30 248,40 " style="fill:white; stroke-width:1; stroke:black; " description="&lt;b&gt;ctg13_37&lt;/b&gt;&lt;br&gt;ctg13 37&lt;br&gt;Location: 40803 - 42063" locus_tag="ctg13_37" class="clusterblast-orf" id="subclusterblast-1_q4_0_all"  />
<polygon points="304,40 306,40 311,35 306,30 304,30 304,40 " style="fill:white; stroke-width:1; stroke:black; " description="&lt;b&gt;ctg13_38&lt;/b&gt;&lt;br&gt;ctg13 38&lt;br&gt;Location: 42245 - 42404" locus_tag="ctg13_38" class="clusterblast-orf" id="subclusterblast-1_q5_0_all"  />
<polygon points="311,35 316,30 356,30 356,40 316,40 311,35 " style="fill:white; stroke-width:1; stroke:black; " description="&lt;b&gt;ctg13_39&lt;/b&gt;&lt;br&gt;ctg13 39&lt;br&gt;Location: 42409 - 43561" locus_tag="ctg13_39" class="clusterblast-orf" id="subclusterblast-1_q6_0_all"  />
<polygon points="355,35 360,30 365,30 365,40 360,40 355,35 " style="fill:white; stroke-width:1; stroke:black; " description="&lt;b&gt;ctg13_40&lt;/b&gt;&lt;br&gt;ctg13 40&lt;br&gt;Location: 43532 - 43808" locus_tag="ctg13_40" class="clusterblast-orf" id="subclusterblast-1_q7_0_all"  />
<polygon points="365,35 370,30 394,30 394,40 370,40 365,35 " style="fill:white; stroke-width:1; stroke:black; " description="&lt;b&gt;ctg13_41&lt;/b&gt;&lt;br&gt;ctg13 41&lt;br&gt;Location: 43804 - 44557" locus_tag="ctg13_41" class="clusterblast-orf" id="subclusterblast-1_q8_0_all"  />
<polygon points="395,35 400,30 430,30 430,40 400,40 395,35 " style="fill:white; stroke-width:1; stroke:black; " description="&lt;b&gt;ctg13_42&lt;/b&gt;&lt;br&gt;ctg13 42&lt;br&gt;Location: 44568 - 45480" locus_tag="ctg13_42" class="clusterblast-orf" id="subclusterblast-1_q9_0_all"  />
<polygon points="433,35 438,30 438,30 438,40 438,40 433,35 " style="fill:white; stroke-width:1; stroke:black; " description="&lt;b&gt;ctg13_43&lt;/b&gt;&lt;br&gt;ctg13 43&lt;br&gt;Location: 45551 - 45674" locus_tag="ctg13_43" class="clusterblast-orf" id="subclusterblast-1_q10_0_all"  />
<polygon points="442,35 447,30 536,30 536,40 447,40 442,35 " style="fill:white; stroke-width:1; stroke:black; " description="&lt;b&gt;ctg13_44&lt;/b&gt;&lt;br&gt;ctg13 44&lt;br&gt;Location: 45784 - 48190" locus_tag="ctg13_44" class="clusterblast-orf" id="subclusterblast-1_q11_0_all"  />
<polygon points="537,35 542,30 568,30 568,40 542,40 537,35 " style="fill:white; stroke-width:1; stroke:black; " description="&lt;b&gt;ctg13_45&lt;/b&gt;&lt;br&gt;ctg13 45&lt;br&gt;Location: 48219 - 49014" locus_tag="ctg13_45" class="clusterblast-orf" id="subclusterblast-1_q12_0_all"  />
<polygon points="568,35 573,30 634,30 634,40 573,40 568,35 " style="fill:white; stroke-width:1; stroke:black; " description="&lt;b&gt;ctg13_46&lt;/b&gt;&lt;br&gt;ctg13 46&lt;br&gt;Location: 49024 - 50728" locus_tag="ctg13_46" class="clusterblast-orf" id="subclusterblast-1_q13_0_all"  />
<polygon points="640,35 645,30 658,30 658,40 645,40 640,35 " style="fill:white; stroke-width:1; stroke:black; " description="&lt;b&gt;ctg13_47&lt;/b&gt;&lt;br&gt;ctg13 47&lt;br&gt;Location: 50874 - 51321" locus_tag="ctg13_47" class="clusterblast-orf" id="subclusterblast-1_q14_0_all"  />
<polygon points="690,40 697,40 702,35 697,30 690,30 690,40 " style="fill:white; stroke-width:1; stroke:black; " description="&lt;b&gt;ctg13_48&lt;/b&gt;&lt;br&gt;ctg13 48&lt;br&gt;Location: 52160 - 52457" locus_tag="ctg13_48" class="clusterblast-orf" id="subclusterblast-1_q15_0_all"  />
<polygon points="707,40 742,40 747,35 742,30 707,30 707,40 " style="fill:white; stroke-width:1; stroke:black; " description="&lt;b&gt;ctg13_49&lt;/b&gt;&lt;br&gt;ctg13 49&lt;br&gt;Location: 52580 - 53627" locus_tag="ctg13_49" class="clusterblast-orf" id="subclusterblast-1_q16_0_all"  />
<polygon points="752,35 757,30 773,30 773,40 757,40 752,35 " style="fill:white; stroke-width:1; stroke:black; " description="&lt;b&gt;ctg13_50&lt;/b&gt;&lt;br&gt;ctg13 50&lt;br&gt;Location: 53748 - 54297" locus_tag="ctg13_50" class="clusterblast-orf" id="subclusterblast-1_q17_0_all"  />
<polygon points="772,35 777,30 780,30 780,40 777,40 772,35 " style="fill:white; stroke-width:1; stroke:black; " description="&lt;b&gt;ctg13_51&lt;/b&gt;&lt;br&gt;ctg13 51&lt;br&gt;Location: 54268 - 54466" locus_tag="ctg13_51" class="clusterblast-orf" id="subclusterblast-1_q18_0_all"  />
</g>
</svg>
